<svg width="172" height="69" viewBox="0 0 172 69" fill="none" xmlns="http://www.w3.org/2000/svg">
<path d="M16.5691 51.2502C15.3475 49.949 14.3915 48.3822 13.7009 46.5497C13.0104 44.7172 12.6653 42.6859 12.6653 40.455V6.03769H4.29999V40.9329C4.29999 44.2261 4.84436 47.2136 5.93327 49.8958C7.02201 52.5781 8.50934 54.875 10.3947 56.7871C12.2801 58.6993 14.511 60.173 17.0869 61.2087C19.6629 62.2444 22.438 62.7623 25.4125 62.7623C28.3337 62.7623 31.0555 62.2312 33.5786 61.1691C36.1014 60.1066 38.2924 58.5928 40.1514 56.6278V61.8063H48.437V6.03769H40.0717V40.455C40.0717 42.6859 39.7265 44.704 39.036 46.5099C38.3455 48.3157 37.3761 49.8692 36.128 51.1705C34.8799 52.4717 33.4194 53.4807 31.7462 54.1979C30.0731 54.915 28.2806 55.2735 26.3685 55.2735C24.4032 55.2735 22.5841 54.9284 20.911 54.2379C19.2381 53.5474 17.7908 52.5515 16.5691 51.2502Z" fill="#010202"/>
<path fill-rule="evenodd" clip-rule="evenodd" d="M62.8564 26.3534V6.03769H54.8098V61.8062H62.7767V56.7073C64.6356 58.5662 66.8001 60.0401 69.2698 61.1289C71.7396 62.2178 74.4084 62.7622 77.2766 62.7622C80.2508 62.7622 83.0392 62.2046 85.6418 61.0892C88.2443 59.9738 90.5015 58.4601 92.4137 56.5479C94.3258 54.6361 95.8396 52.392 96.955 49.8159C98.0703 47.24 98.6279 44.4914 98.6279 41.5703C98.6279 38.6491 98.0703 35.8872 96.955 33.2846C95.8396 30.6821 94.3258 28.4249 92.4137 26.5127C90.5015 24.6006 88.2443 23.0868 85.6418 21.9714C83.0392 20.8561 80.251 20.2985 77.2766 20.2985C74.4086 20.2985 71.7528 20.8429 69.3097 21.9318C66.8665 23.0207 64.7153 24.4944 62.8564 26.3534ZM66.7602 51.5291C65.4855 50.2543 64.4895 48.7672 63.7725 47.0675C63.0556 45.3679 62.697 43.5356 62.6972 41.5703C62.6972 39.6051 63.069 37.7594 63.8126 36.0332C64.5561 34.307 65.5654 32.8067 66.8399 31.5319C68.1148 30.2574 69.602 29.2616 71.3015 28.5444C73.0011 27.8273 74.807 27.4687 76.719 27.4687C78.631 27.4687 80.4367 27.8275 82.1364 28.5444C83.8361 29.2614 85.3099 30.2574 86.5582 31.5319C87.8063 32.8067 88.8021 34.307 89.5457 36.0332C90.2892 37.7594 90.661 39.6051 90.661 41.5703C90.661 43.5356 90.2892 45.3679 89.5457 47.0675C88.8021 48.7672 87.8063 50.2545 86.5582 51.5291C85.3097 52.804 83.836 53.813 82.1364 54.5566C80.4368 55.3002 78.6311 55.6719 76.719 55.6719C74.7537 55.6719 72.9214 55.3002 71.2217 54.5566C69.5221 53.813 68.035 52.8038 66.7602 51.5291Z" fill="#010202"/>
<path fill-rule="evenodd" clip-rule="evenodd" d="M103.168 33.3645C104.23 30.8151 105.691 28.5711 107.55 26.6325C109.409 24.6939 111.613 23.1669 114.163 22.0515C116.712 20.9362 119.474 20.3786 122.448 20.3786C125.37 20.3786 128.078 20.9097 130.575 21.9719C133.071 23.0342 135.222 24.5081 137.028 26.3936C138.834 28.279 140.241 30.5099 141.25 33.0858C142.259 35.6618 142.764 38.4636 142.764 41.4911V44.1202H109.701C109.967 45.7667 110.498 47.2937 111.295 48.701C112.092 50.1084 113.087 51.3301 114.282 52.3658C115.477 53.4016 116.832 54.2117 118.345 54.7957C119.859 55.3799 121.466 55.6722 123.165 55.6722C127.999 55.6722 131.903 53.6803 134.877 49.6968L140.693 53.9989C138.675 56.7077 136.178 58.8323 133.204 60.3725C130.23 61.9127 126.883 62.6829 123.166 62.6829C120.138 62.6829 117.31 62.1516 114.681 61.0895C112.052 60.0273 109.768 58.54 107.829 56.6278C105.891 54.7157 104.364 52.4717 103.248 49.8958C102.133 47.32 101.575 44.5181 101.575 41.4907C101.575 38.6227 102.106 35.9139 103.168 33.3645ZM114.362 30.2174C112.105 32.103 110.604 34.6126 109.861 37.7462H134.638C133.947 34.6126 132.474 32.103 130.216 30.2174C127.959 28.3321 125.316 27.3893 122.289 27.3893C119.262 27.3893 116.619 28.3321 114.362 30.2174Z" fill="#010202"/>
<path d="M157.821 31.1336C156.122 32.9926 155.272 35.5154 155.272 38.7023V61.8066H147.225V21.1751H155.192V26.1943C156.201 24.5478 157.516 23.2464 159.135 22.2904C160.755 21.3343 162.681 20.8562 164.912 20.8562H167.7V28.3451H164.354C161.698 28.3453 159.521 29.2747 157.821 31.1336Z" fill="#010202"/>
</svg>
