<svg  viewBox="95 25 150 32" fill="none" xmlns="http://www.w3.org/2000/svg"><defs>
<clipPath id="clip0_0_3114">
<rect width="86.4175" height="30" fill="white" transform="translate(133 26)"/>
</clipPath>
<clipPath id="clip1_0_3114">
<rect width="86.4175" height="30" fill="white" transform="translate(20 26)"/>
</clipPath>
</defs><g clip-path="url(#clip0_0_3114)">
<path d="M137.972 47.4256C138.337 48.3948 138.843 49.2234 139.489 49.9116C140.135 50.5998 140.9 51.1265 141.785 51.4917C142.67 51.8568 143.632 52.0394 144.671 52.0394C145.683 52.0394 146.631 51.8498 147.516 51.4705C148.4 51.0912 149.173 50.5576 149.833 49.8694C150.493 49.1812 151.006 48.3596 151.371 47.4045C151.736 46.4495 151.919 45.3821 151.919 44.2023V26H156.343V55.4944H151.961V52.7556C150.978 53.7949 149.819 54.5955 148.485 55.1574C147.15 55.7191 145.711 56 144.166 56C142.593 56 141.125 55.7261 139.763 55.1783C138.4 54.6306 137.22 53.8512 136.223 52.8399C135.226 51.8286 134.44 50.6139 133.864 49.1953C133.288 47.7767 133 46.1967 133 44.455V26H137.424V44.2023C137.424 45.3821 137.607 46.4565 137.972 47.4256Z" fill="#010202"/>
<path d="M163.968 26V36.7444C164.952 35.7612 166.089 34.9818 167.381 34.4059C168.674 33.83 170.078 33.5421 171.595 33.5421C173.168 33.5421 174.643 33.837 176.019 34.4269C177.395 35.0168 178.589 35.8174 179.6 36.8286C180.612 37.8399 181.412 39.0337 182.002 40.4101C182.592 41.7866 182.887 43.2472 182.887 44.7922C182.887 46.337 182.592 47.7907 182.002 49.153C181.412 50.5154 180.612 51.7023 179.6 52.7134C178.589 53.7247 177.395 54.5253 176.019 55.1151C174.643 55.705 173.168 55.9999 171.595 55.9999C170.078 55.9999 168.667 55.712 167.36 55.1361C166.054 54.5603 164.909 53.7808 163.926 52.7977V55.4943H159.713V26H163.968ZM164.453 47.6994C164.832 48.5984 165.359 49.3849 166.033 50.0591C166.707 50.7332 167.494 51.267 168.393 51.6602C169.292 52.0535 170.261 52.2501 171.3 52.2501C172.311 52.2501 173.266 52.0535 174.165 51.6602C175.064 51.267 175.843 50.7333 176.504 50.0591C177.164 49.385 177.69 48.5984 178.084 47.6994C178.477 46.8006 178.674 45.8315 178.674 44.7922C178.674 43.7528 178.477 42.7767 178.084 41.8638C177.69 40.9508 177.164 40.1573 176.504 39.4832C175.843 38.8091 175.064 38.2823 174.165 37.9032C173.266 37.524 172.311 37.3342 171.3 37.3342C170.289 37.3342 169.334 37.5239 168.435 37.9032C167.536 38.2824 166.75 38.8091 166.075 39.4832C165.401 40.1573 164.867 40.9508 164.474 41.8638C164.081 42.7767 163.884 43.7528 163.884 44.7922C163.884 45.8315 164.074 46.8006 164.453 47.6994Z" fill="#010202"/>
<path d="M185.288 40.4523C185.85 39.104 186.622 37.9173 187.605 36.892C188.588 35.8667 189.754 35.0591 191.102 34.4692C192.451 33.8794 193.911 33.5845 195.484 33.5845C197.029 33.5845 198.462 33.8654 199.782 34.4271C201.102 34.9889 202.24 35.7684 203.195 36.7657C204.15 37.7628 204.895 38.9426 205.428 40.3049C205.962 41.6673 206.229 43.1491 206.229 44.7502V46.1407H188.743C188.883 47.0115 189.164 47.8191 189.586 48.5634C190.007 49.3077 190.534 49.9538 191.166 50.5016C191.798 51.0494 192.514 51.4778 193.315 51.7867C194.115 52.0956 194.965 52.2502 195.864 52.2502C198.42 52.2502 200.485 51.1968 202.058 49.09L205.133 51.3653C204.066 52.7979 202.746 53.9215 201.173 54.7361C199.6 55.5506 197.83 55.958 195.864 55.958C194.263 55.958 192.767 55.677 191.376 55.1153C189.986 54.5535 188.778 53.7669 187.753 52.7556C186.728 51.7443 185.92 50.5576 185.33 49.1953C184.74 47.833 184.445 46.3511 184.445 44.7501C184.445 43.2333 184.726 41.8007 185.288 40.4523ZM191.208 38.788C190.014 39.7852 189.22 41.1124 188.827 42.7697H201.931C201.566 41.1124 200.787 39.7852 199.593 38.788C198.399 37.7908 197.001 37.2922 195.4 37.2922C193.799 37.2922 192.402 37.7908 191.208 38.788Z" fill="#010202"/>
<path d="M214.192 39.2725C213.293 40.2556 212.844 41.5899 212.844 43.2753V55.4945H208.588V34.0057H212.801V36.6602C213.335 35.7894 214.03 35.1012 214.887 34.5956C215.744 34.0899 216.762 33.837 217.942 33.837H219.417V37.7977H217.647C216.242 37.7978 215.091 38.2893 214.192 39.2725Z" fill="#010202"/>
</g><g clip-path="url(#clip1_0_3114)">
<path d="M24.9719 47.4256C25.3371 48.3948 25.8427 49.2234 26.4888 49.9116C27.1349 50.5998 27.9003 51.1265 28.7851 51.4917C29.67 51.8568 30.632 52.0394 31.6714 52.0394C32.6827 52.0394 33.6307 51.8498 34.5155 51.4705C35.4004 51.0912 36.1728 50.5576 36.8329 49.8694C37.493 49.1812 38.0057 48.3596 38.3709 47.4045C38.736 46.4495 38.9186 45.3821 38.9186 44.2023V26H43.3427V55.4944H38.9607V52.7556C37.9776 53.7949 36.8188 54.5955 35.4846 55.1574C34.1502 55.7191 32.7107 56 31.1658 56C29.5927 56 28.125 55.7261 26.7626 55.1783C25.4003 54.6306 24.2204 53.8512 23.2233 52.8399C22.2262 51.8286 21.4396 50.6139 20.8638 49.1953C20.2879 47.7767 20 46.1967 20 44.455V26H24.4242V44.2023C24.4242 45.3821 24.6067 46.4565 24.9719 47.4256Z" fill="#010202"/>
<path d="M50.9685 26V36.7444C51.9516 35.7612 53.0893 34.9818 54.3814 34.4059C55.6735 33.83 57.0781 33.5421 58.5949 33.5421C60.168 33.5421 61.6425 33.837 63.019 34.4269C64.3954 35.0168 65.5892 35.8174 66.6005 36.8286C67.6117 37.8399 68.4123 39.0337 69.0022 40.4101C69.5921 41.7866 69.887 43.2472 69.887 44.7922C69.887 46.337 69.5921 47.7907 69.0022 49.153C68.4123 50.5154 67.6117 51.7023 66.6005 52.7134C65.5892 53.7247 64.3954 54.5253 63.019 55.1151C61.6425 55.705 60.1679 55.9999 58.5949 55.9999C57.078 55.9999 55.6665 55.712 54.3604 55.1361C53.0542 54.5603 51.9095 53.7808 50.9263 52.7977V55.4943H46.7129V26H50.9685ZM51.453 47.6994C51.8322 48.5984 52.3589 49.3849 53.0331 50.0591C53.7073 50.7332 54.4938 51.267 55.3926 51.6602C56.2916 52.0535 57.2606 52.2501 58.3 52.2501C59.3113 52.2501 60.2663 52.0535 61.1651 51.6602C62.064 51.267 62.8434 50.7333 63.5036 50.0591C64.1637 49.385 64.6904 48.5984 65.0837 47.6994C65.4769 46.8006 65.6735 45.8315 65.6735 44.7922C65.6735 43.7528 65.4769 42.7767 65.0837 41.8638C64.6904 40.9508 64.1637 40.1573 63.5036 39.4832C62.8435 38.8091 62.064 38.2823 61.1651 37.9032C60.2662 37.524 59.3112 37.3342 58.3 37.3342C57.2888 37.3342 56.3337 37.5239 55.4349 37.9032C54.536 38.2824 53.7495 38.8091 53.0752 39.4832C52.4012 40.1573 51.8674 40.9508 51.4742 41.8638C51.0809 42.7767 50.8843 43.7528 50.8843 44.7922C50.8842 45.8315 51.0738 46.8006 51.453 47.6994Z" fill="#010202"/>
<path d="M72.2879 40.4523C72.8496 39.104 73.6222 37.9173 74.6052 36.892C75.5883 35.8667 76.7541 35.0591 78.1025 34.4692C79.4508 33.8794 80.9115 33.5845 82.4845 33.5845C84.0294 33.5845 85.462 33.8654 86.7823 34.4271C88.1025 34.9889 89.2401 35.7684 90.1952 36.7657C91.1502 37.7628 91.8947 38.9426 92.4283 40.3049C92.962 41.6673 93.2288 43.1491 93.2288 44.7502V46.1407H75.7429C75.8834 47.0115 76.1644 47.8191 76.5857 48.5634C77.0071 49.3077 77.5337 49.9538 78.1657 50.5016C78.7977 51.0494 79.514 51.4778 80.3146 51.7867C81.1152 52.0956 81.9648 52.2502 82.8638 52.2502C85.42 52.2502 87.4846 51.1968 89.0576 49.09L92.1335 51.3653C91.066 52.7979 89.7459 53.9215 88.1729 54.7361C86.5998 55.5506 84.8301 55.958 82.8638 55.958C81.2627 55.958 79.7669 55.677 78.3765 55.1153C76.986 54.5535 75.7782 53.7669 74.7529 52.7556C73.7276 51.7443 72.9201 50.5576 72.3302 49.1953C71.7403 47.833 71.4453 46.3511 71.4453 44.7501C71.4451 43.2333 71.7261 41.8007 72.2879 40.4523ZM78.2078 38.788C77.014 39.7852 76.2205 41.1124 75.8272 42.7697H88.9312C88.566 41.1124 87.7865 39.7852 86.5927 38.788C85.3988 37.7908 84.0014 37.2922 82.4003 37.2922C80.7991 37.2922 79.4017 37.7908 78.2078 38.788Z" fill="#010202"/>
<path d="M101.192 39.2725C100.293 40.2556 99.8436 41.5899 99.8436 43.2753V55.4945H95.5879V34.0057H99.8013V36.6602C100.335 35.7894 101.03 35.1012 101.887 34.5956C102.744 34.0899 103.762 33.837 104.942 33.837H106.417V37.7977H104.647C103.242 37.7978 102.091 38.2893 101.192 39.2725Z" fill="#010202"/>
</g></svg>