<svg  viewBox="20 16 220 50" fill="none" xmlns="http://www.w3.org/2000/svg"><defs>
<clipPath id="clip0_0_2878">
<rect width="50" height="50" fill="white" transform="translate(20 16)"/>
</clipPath>
<clipPath id="clip1_0_2878">
<rect width="100" height="25" fill="white" transform="translate(115 29)"/>
</clipPath>
</defs><g clip-path="url(#clip0_0_2878)">
<mask id="mask0_0_2878" style="mask-type:alpha" maskUnits="userSpaceOnUse" x="20" y="16" width="50" height="50">
<path fill-rule="evenodd" clip-rule="evenodd" d="M45 66C58.8071 66 70 54.8071 70 41C70 27.1929 58.8071 16 45 16C31.1929 16 20 27.1929 20 41C20 54.8071 31.1929 66 45 66Z" fill="white"/>
</mask>
<g mask="url(#mask0_0_2878)">
<path d="M77.9905 14.6761H14.8535V53.2059H77.9905V14.6761Z" fill="#F64942"/>
<path d="M31.0153 56.8463C27.813 50.5677 30.9022 42.9653 39.257 40.9225C63.5272 36.9582 59.8879 29.4415 67.3225 26.7618C81.1534 21.7761 77.6558 39.1284 74.8737 43.9796C72.0915 48.832 78.6808 58.0356 69.2367 58.7058C63.2927 59.126 61.5606 55.7772 51.0832 60.101C45.6951 62.3248 45.3808 61.8332 39.7856 60.0296L34.9975 57.6094L31.0153 56.8475V56.8463Z" fill="#F4CE45"/>
<path d="M43.6711 11.1665C37.2187 12.0273 4.19732 18.9761 1.84375 20.0511L7.58661 52.6463C11.0343 52.313 17.4319 55.7451 17.4319 50.9106C17.4319 46.2201 18.3831 44.2201 21.6188 38.5975C26.3736 30.338 36.8997 30.4761 40.5664 30.2963C49.2414 29.8725 58.7318 27.0963 63.5807 20.0534C80.1973 -4.0775 64.4295 5.44273 43.6711 11.1665Z" fill="#5B95BF"/>
<path d="M36.7046 49.0201C29.9784 49.0404 22.8856 51.1142 16.4082 53.5463L18.9511 81.0856C36.5784 78.8797 68.2629 73.607 70.2331 70.2654C72.5177 66.3916 69.2986 63.807 75.9367 60.2773C81.2462 57.4547 87.1272 46.2892 74.6046 46.1642C67.6701 46.2201 65.8951 47.6582 60.4867 49.688C51.5724 53.032 41.8581 49.0047 36.7046 49.0201Z" fill="#EF90A4"/>
<path fill-rule="evenodd" clip-rule="evenodd" d="M45.2008 24.088C46.0579 24.088 46.7936 24.6047 47.1162 25.3428C47.1311 25.3768 47.1555 25.4058 47.1867 25.4261C47.2178 25.4464 47.2541 25.4571 47.2912 25.457C47.318 25.4572 47.3446 25.4514 47.3689 25.4401C47.3931 25.4288 47.4146 25.4122 47.4317 25.3916C47.6876 25.0866 48.0249 24.8608 48.4045 24.7406C48.784 24.6205 49.1898 24.6109 49.5746 24.713C49.9681 24.8184 50.3224 25.0367 50.5935 25.3408C50.8647 25.645 51.041 26.0218 51.1008 26.4249C51.1059 26.4562 51.119 26.4857 51.1386 26.5106C51.1583 26.5356 51.1839 26.5551 51.2131 26.5675C51.2423 26.5798 51.2742 26.5846 51.3058 26.5813C51.3373 26.578 51.3676 26.5668 51.3936 26.5487C51.7462 26.3014 52.1665 26.1688 52.5972 26.169C52.8914 26.1695 53.1822 26.2323 53.4505 26.353C53.7187 26.4737 53.9585 26.6498 54.1541 26.8696C54.3497 27.0894 54.4966 27.3481 54.5853 27.6286C54.6739 27.9091 54.7023 28.2052 54.6686 28.4975C54.6659 28.5289 54.6711 28.5605 54.6837 28.5894C54.6962 28.6182 54.7159 28.6435 54.7406 28.663C54.7655 28.6822 54.7948 28.6952 54.8259 28.7005C54.857 28.7056 54.8889 28.703 54.9186 28.6927C55.1508 28.6094 55.3948 28.5665 55.6377 28.5665C55.9781 28.5671 56.3134 28.6508 56.6141 28.8103C56.9149 28.9699 57.1722 29.2005 57.3635 29.482C57.5549 29.7637 57.6746 30.0877 57.7122 30.4262C57.7498 30.7645 57.7042 31.107 57.5793 31.4237C57.5689 31.4533 57.5658 31.485 57.5705 31.5159C57.5753 31.5469 57.5877 31.5762 57.6066 31.6013C57.6254 31.6263 57.6503 31.6462 57.6787 31.6593C57.7072 31.6724 57.7385 31.6781 57.7698 31.676C58.1712 31.6395 58.5747 31.72 58.9315 31.9077C59.2881 32.0955 59.5829 32.3826 59.7799 32.7343C59.977 33.0859 60.0679 33.4871 60.0418 33.8894C60.0158 34.2918 59.8737 34.6778 59.6329 35.001C59.6146 35.027 59.6031 35.057 59.5995 35.0884C59.5958 35.12 59.6 35.1518 59.6118 35.1812C59.6237 35.2106 59.6428 35.2365 59.6672 35.2566C59.6917 35.2768 59.7209 35.2905 59.752 35.2963C60.1487 35.3656 60.5171 35.5481 60.8126 35.8218C61.108 36.0955 61.3181 36.4487 61.4174 36.839C61.5168 37.2294 61.5012 37.6401 61.3727 38.0218C61.244 38.4034 61.0078 38.7399 60.6924 38.9903C60.6681 39.0106 60.6493 39.0366 60.6377 39.0659C60.626 39.0953 60.622 39.1271 60.6256 39.1584C60.6295 39.1899 60.641 39.2197 60.6593 39.2455C60.6777 39.2713 60.7022 39.292 60.7305 39.3058C61.0954 39.4755 61.4035 39.7468 61.6178 40.0874C61.8322 40.4278 61.9437 40.823 61.9389 41.2252C61.9341 41.6276 61.8133 42.02 61.5909 42.3552C61.3685 42.6906 61.0541 42.9545 60.6853 43.1153C60.5591 43.1713 60.5305 43.3427 60.6365 43.432C60.9454 43.6905 61.173 44.0327 61.292 44.4175C61.4109 44.8022 61.4161 45.2132 61.307 45.6009C61.1978 45.9885 60.9789 46.3364 60.6766 46.6026C60.3743 46.8688 60.0015 47.0419 59.6031 47.101C59.5718 47.1064 59.5424 47.1195 59.5175 47.1391C59.4927 47.1587 59.4731 47.1843 59.4608 47.2134C59.4483 47.2426 59.4434 47.2744 59.4464 47.3059C59.4495 47.3375 59.4604 47.3677 59.4781 47.3939C59.7109 47.725 59.8426 48.1164 59.8571 48.5208C59.8716 48.9251 59.7684 49.325 59.5599 49.6719C59.3516 50.0187 59.047 50.2975 58.683 50.4745C58.3192 50.6515 57.9118 50.7191 57.5103 50.6689C57.4804 50.6696 57.4511 50.6772 57.4248 50.6913C57.3985 50.7055 57.3759 50.7255 57.3589 50.75C57.3417 50.7745 57.3308 50.8027 57.3266 50.8322C57.3225 50.8618 57.3255 50.8919 57.3353 50.9201C57.4742 51.2984 57.5006 51.7089 57.4114 52.1019C57.3222 52.495 57.1211 52.8538 56.8326 53.1351C56.544 53.4164 56.1802 53.6081 55.7849 53.6872C55.3898 53.7663 54.9802 53.7294 54.6055 53.5808C54.5842 53.5727 54.5616 53.5687 54.5389 53.5689C54.5131 53.5694 54.4877 53.5751 54.4642 53.5856C54.4408 53.596 54.4196 53.6113 54.4021 53.6302C54.3847 53.6491 54.3712 53.6714 54.3626 53.6956C54.354 53.7199 54.3503 53.7457 54.352 53.7713C54.3878 54.1726 54.3068 54.5756 54.1189 54.9318C53.931 55.2881 53.6441 55.5825 53.2927 55.7794C52.9414 55.9764 52.5406 56.0676 52.1386 56.0421C51.7366 56.0166 51.3505 55.8755 51.027 55.6356C50.996 55.6125 50.9584 55.6 50.9198 55.5999C50.8753 55.5996 50.8322 55.615 50.7978 55.6433C50.7634 55.6715 50.7401 55.7109 50.7317 55.7546C50.6626 56.1515 50.4801 56.52 50.2062 56.8156C49.9324 57.111 49.579 57.321 49.1885 57.4202C48.798 57.5194 48.3872 57.5034 48.0055 57.3744C47.624 57.2453 47.2878 57.0085 47.0377 56.6927C47.0205 56.6714 46.9987 56.6543 46.974 56.6425C46.9492 56.6308 46.9222 56.6247 46.8948 56.6249C46.8587 56.6243 46.8233 56.634 46.7927 56.653C46.7621 56.672 46.7376 56.6995 46.7222 56.732C46.5526 57.0969 46.2812 57.405 45.9408 57.6194C45.6003 57.8338 45.2052 57.9452 44.8028 57.9405C44.4005 57.9357 44.0081 57.8149 43.6728 57.5925C43.3376 57.3701 43.0735 57.0556 42.9127 56.6868C42.8978 56.6528 42.8734 56.6238 42.8422 56.6035C42.8111 56.5832 42.7748 56.5725 42.7377 56.5725C42.711 56.5722 42.6845 56.5778 42.6602 56.5889C42.6359 56.6001 42.6145 56.6164 42.5972 56.6368C42.3415 56.9419 42.0041 57.1678 41.6246 57.288C41.2451 57.4082 40.8391 57.4177 40.4543 57.3153C40.0609 57.2101 39.7068 56.992 39.4356 56.6881C39.1645 56.3841 38.988 56.0076 38.9281 55.6046C38.9231 55.5733 38.9103 55.5437 38.8906 55.5185C38.8711 55.4934 38.8455 55.4738 38.8162 55.4613C38.787 55.4488 38.7551 55.4439 38.7234 55.4471C38.6917 55.4503 38.6615 55.4615 38.6353 55.4796C38.3101 55.7101 37.9255 55.842 37.5273 55.8597C37.1292 55.8775 36.7345 55.7802 36.3901 55.5796C36.0373 55.376 35.7518 55.0737 35.5686 54.7099C35.3855 54.3461 35.3127 53.9366 35.3591 53.532C35.362 53.5006 35.357 53.4689 35.3445 53.4399C35.332 53.4108 35.3124 53.3853 35.2875 53.3658C35.2627 53.3463 35.2334 53.3333 35.2022 53.328C35.171 53.3227 35.139 53.3253 35.1091 53.3356C34.7352 53.4737 34.3296 53.5014 33.9404 53.4156C33.5512 53.3296 33.1949 53.1337 32.9139 52.851C32.6261 52.5628 32.429 52.1966 32.3465 51.7978C32.264 51.3989 32.2998 50.9846 32.4496 50.6058C32.4603 50.5763 32.4635 50.5445 32.4589 50.5133C32.4543 50.4821 32.442 50.4526 32.423 50.4275C32.4041 50.4022 32.3792 50.3822 32.3506 50.3691C32.322 50.3559 32.2905 50.3502 32.2591 50.3522C31.8576 50.3889 31.4542 50.3084 31.0975 50.1207C30.7407 49.9328 30.4461 49.6458 30.249 49.2941C30.0519 48.9425 29.961 48.5413 29.9871 48.1389C30.0131 47.7366 30.1552 47.3506 30.396 47.0272C30.4143 47.0014 30.4258 46.9714 30.4295 46.94C30.4331 46.9084 30.4289 46.8765 30.417 46.8472C30.4052 46.8178 30.3861 46.7919 30.3617 46.7718C30.3372 46.7516 30.3081 46.738 30.277 46.732C29.8802 46.6628 29.5119 46.4803 29.2164 46.2066C28.9209 45.933 28.7108 45.5796 28.6114 45.1894C28.512 44.799 28.5276 44.3883 28.6563 44.0066C28.7849 43.625 29.0211 43.2885 29.3365 43.038C29.3607 43.0178 29.3796 42.9918 29.3912 42.9625C29.4029 42.9331 29.407 42.9013 29.4032 42.8699C29.3994 42.8385 29.3878 42.8087 29.3695 42.7828C29.3512 42.7571 29.3268 42.7364 29.2984 42.7225C28.9335 42.553 28.6254 42.2815 28.4111 41.941C28.1967 41.6006 28.0852 41.2055 28.09 40.8032C28.0948 40.4008 28.2156 40.0084 28.438 39.6732C28.6604 39.3378 28.9748 39.0739 29.3436 38.913C29.3728 38.9002 29.3982 38.8802 29.4176 38.8551C29.437 38.8299 29.4497 38.8001 29.4545 38.7687C29.4594 38.7372 29.4563 38.7051 29.4454 38.6751C29.4346 38.6452 29.4163 38.6185 29.3924 38.5975C29.0831 38.3391 28.8552 37.9969 28.736 37.6119C28.6168 37.227 28.6115 36.8157 28.7207 36.4278C28.8299 36.0399 29.049 35.6919 29.3515 35.4256C29.654 35.1594 30.0271 34.9863 30.4258 34.9272C30.4568 34.9219 30.486 34.9088 30.5108 34.8893C30.5355 34.8697 30.5549 34.8444 30.5674 34.8153C30.5798 34.7864 30.5848 34.7547 30.5819 34.7234C30.579 34.692 30.5683 34.6619 30.5508 34.6356C30.3176 34.3046 30.1857 33.9131 30.171 33.5084C30.1562 33.1039 30.2594 32.7038 30.4678 32.3568C30.6763 32.0096 30.9811 31.7307 31.3452 31.5537C31.7092 31.3765 32.117 31.3091 32.5186 31.3594C32.5484 31.359 32.5777 31.3515 32.604 31.3376C32.6304 31.3237 32.653 31.3037 32.6701 31.2793C32.6872 31.2549 32.6983 31.2266 32.7023 31.1971C32.7064 31.1676 32.7034 31.1376 32.6936 31.1094C32.5553 30.7312 32.5292 30.3209 32.6186 29.9282C32.708 29.5355 32.9091 29.1769 33.1976 28.8958C33.486 28.6146 33.8496 28.4228 34.2445 28.3435C34.6393 28.2643 35.0487 28.3007 35.4234 28.4487C35.453 28.4591 35.4847 28.4621 35.5158 28.4574C35.5467 28.4526 35.5761 28.4402 35.6012 28.4214C35.6262 28.4026 35.6464 28.3778 35.6596 28.3494C35.6728 28.3208 35.6787 28.2896 35.677 28.2582C35.6411 27.857 35.7221 27.454 35.9101 27.0978C36.0979 26.7415 36.3848 26.4471 36.7361 26.2502C37.0876 26.0532 37.4883 25.9619 37.8903 25.9874C38.2923 26.013 38.6784 26.1541 39.002 26.394C39.0353 26.4178 39.0734 26.4297 39.1091 26.4297C39.1536 26.4299 39.1967 26.4146 39.2311 26.3863C39.2655 26.358 39.2889 26.3186 39.2972 26.2749C39.3666 25.8782 39.5492 25.51 39.823 25.2147C40.0967 24.9194 40.4501 24.7094 40.8403 24.6102C41.2306 24.511 41.6412 24.5266 42.0229 24.6553C42.4045 24.784 42.7408 25.0203 42.9912 25.3356C43.027 25.3833 43.0817 25.4047 43.1341 25.4047C43.1701 25.4052 43.2055 25.3954 43.2361 25.3764C43.2667 25.3574 43.2912 25.33 43.3067 25.2975C43.6401 24.5833 44.3615 24.088 45.2008 24.088Z" fill="white"/>
<path fill-rule="evenodd" clip-rule="evenodd" d="M52.7827 49.2047C50.8993 49.2047 51.047 46.5464 52.7827 46.5464C54.5184 46.5464 54.666 49.2047 52.7827 49.2047ZM37.2208 49.2047C35.3374 49.2047 35.4851 46.5464 37.2208 46.5464C38.9565 46.5464 39.1041 49.2047 37.2208 49.2047ZM58.4732 39.3833H57.8351C57.2922 39.3832 56.761 39.226 56.3055 38.9307C55.8502 38.6354 55.4899 38.2146 55.2684 37.719C55.0462 38.214 54.6859 38.6342 54.2305 38.929C53.7751 39.2239 53.2442 39.3807 52.7017 39.3807C52.1592 39.3807 51.6283 39.2239 51.1729 38.929C50.7174 38.6342 50.3571 38.214 50.1351 37.719C49.9128 38.2136 49.5524 38.6335 49.0972 38.928C48.6418 39.2227 48.1112 39.3794 47.569 39.3794C47.0267 39.3794 46.496 39.2227 46.0408 38.928C45.5855 38.6335 45.2251 38.2136 45.0029 37.719C44.7808 38.214 44.4204 38.6342 43.9651 38.929C43.5096 39.2239 42.9787 39.3807 42.4362 39.3807C41.8937 39.3807 41.3628 39.2239 40.9074 38.929C40.452 38.6342 40.0916 38.214 39.8696 37.719C39.6479 38.2144 39.2876 38.6351 38.8322 38.9302C38.3767 39.2253 37.8455 39.3824 37.3029 39.3824C36.7602 39.3824 36.229 39.2253 35.7736 38.9302C35.3182 38.6351 34.9579 38.2144 34.7362 37.719C34.5145 38.2144 34.1542 38.6349 33.6987 38.9299C33.2433 39.2251 32.7122 39.3821 32.1696 39.3821H31.5386C30.5826 40.4119 31.1898 41.2821 33.5529 41.2821V46.569C33.5529 51.538 39.2743 54.0226 44.9958 54.0226C50.7184 54.0226 56.4398 51.538 56.4398 46.5702V41.2821C58.8053 41.2821 59.422 40.413 58.4732 39.3821V39.3833Z" fill="black"/>
<path fill-rule="evenodd" clip-rule="evenodd" d="M45.1844 22.3723C44.3463 22.3723 43.5439 22.6342 42.8785 23.0973C42.0916 22.7909 41.2285 22.7382 40.4101 22.9466C39.5917 23.1549 38.8589 23.6139 38.3142 24.2592C37.4757 24.1672 36.6294 24.3394 35.8935 24.7518C35.1575 25.1641 34.5688 25.796 34.2094 26.5592C33.3749 26.6873 32.6013 27.0732 31.997 27.6628C31.3927 28.2523 30.9879 29.0163 30.8392 29.8473C30.0505 30.1934 29.3925 30.7817 28.9607 31.5271C28.5488 32.2428 28.3656 33.0673 28.4357 33.8902C27.7769 34.4177 27.2997 35.1381 27.0708 35.9503C26.8419 36.7626 26.873 37.6261 27.1595 38.42C26.6602 39.1 26.386 39.9191 26.3753 40.7628C26.3647 41.6064 26.618 42.4322 27.0999 43.1247C26.7934 43.9109 26.7404 44.7732 26.9483 45.591C27.1562 46.4088 27.6147 47.1411 28.2595 47.6854C28.1665 48.5245 28.3384 49.3717 28.751 50.1082C29.1637 50.8447 29.7965 51.4336 30.5607 51.7926C30.6882 52.6272 31.0735 53.401 31.6626 54.0058C32.2518 54.6106 33.0154 55.0159 33.8463 55.1652C34.1857 55.9379 34.7582 56.5852 35.4839 57.0163C36.2095 57.4472 37.0518 57.6404 37.8928 57.5688C38.2719 58.042 38.7526 58.4239 39.2993 58.6863C39.8461 58.9485 40.4448 59.0846 41.0511 59.0842C41.5261 59.0842 41.9892 59.0009 42.4249 58.8438C43.1044 59.3419 43.9224 59.6153 44.7648 59.626C45.6073 59.6367 46.4319 59.384 47.1237 58.9033C47.9281 59.217 48.8117 59.265 49.6451 59.0402C50.4423 58.8256 51.1547 58.3723 51.6868 57.7414C52.5442 57.839 53.41 57.6573 54.1558 57.2235C54.8699 56.81 55.4406 56.1882 55.7916 55.4414C56.6445 55.3126 57.4335 54.9127 58.0416 54.3009C58.6368 53.7069 59.0178 52.9521 59.1618 52.1533C59.9507 51.8067 60.6087 51.2181 61.0404 50.4723C61.4525 49.7571 61.6362 48.9329 61.5666 48.1104C62.2255 47.5831 62.7026 46.8626 62.9313 46.0502C63.16 45.2378 63.1286 44.3742 62.8416 43.5807C63.341 42.9004 63.6152 42.081 63.6258 41.2372C63.6366 40.3934 63.3831 39.5673 62.9011 38.8747C63.207 38.0886 63.2598 37.2266 63.0518 36.4091C62.8439 35.5917 62.3858 34.8596 61.7416 34.3152C61.8353 33.4761 61.6637 32.6288 61.2512 31.8922C60.8387 31.1556 60.206 30.5666 59.4416 30.2081C59.3114 29.3558 58.9123 28.5675 58.3023 27.9581C57.7191 27.3717 56.9691 26.9797 56.1547 26.8354C55.8157 26.0623 55.2432 25.4147 54.5175 24.9834C53.7919 24.5521 52.9494 24.3589 52.1082 24.4306C51.5803 23.7722 50.8597 23.2954 50.0472 23.067C49.2347 22.8385 48.3711 22.87 47.5773 23.1568C46.8835 22.6473 46.0453 22.3725 45.1844 22.3723ZM45.1844 24.3687C46.0261 24.3687 46.7487 24.8771 47.0654 25.6021C47.0805 25.6355 47.105 25.6638 47.1358 25.6837C47.1667 25.7035 47.2025 25.714 47.2392 25.714C47.2654 25.7139 47.2912 25.7082 47.3148 25.6971C47.3385 25.6859 47.3594 25.6698 47.3761 25.6497C47.6276 25.3497 47.9594 25.1276 48.3326 25.0096C48.7058 24.8915 49.105 24.8823 49.4832 24.983C50.2975 25.2021 50.8642 25.8806 50.982 26.6652C50.987 26.6959 50.9997 26.7249 51.0188 26.7495C51.038 26.774 51.0631 26.7933 51.0918 26.8055C51.1204 26.8178 51.1517 26.8226 51.1826 26.8195C51.2136 26.8164 51.2433 26.8055 51.2689 26.7878C51.6166 26.5437 52.0308 26.414 52.4523 26.414C52.7413 26.4144 53.027 26.4759 53.2907 26.5945C53.5543 26.713 53.7899 26.8858 53.9822 27.1017C54.1743 27.3176 54.3187 27.5717 54.4058 27.8473C54.4931 28.1228 54.5211 28.4138 54.488 28.7009C54.4851 28.732 54.49 28.7632 54.5023 28.7919C54.5145 28.8204 54.5339 28.8456 54.5585 28.8648C54.583 28.884 54.612 28.8967 54.6428 28.9017C54.6735 28.9069 54.705 28.9041 54.7344 28.8938C55.1017 28.7583 55.5001 28.731 55.8823 28.8154C56.2645 28.9 56.6144 29.0923 56.8904 29.37C57.4868 29.9664 57.638 30.8378 57.3487 31.5759C57.3379 31.605 57.3345 31.6364 57.3391 31.6671C57.3435 31.6978 57.3555 31.727 57.3741 31.7519C57.3926 31.7767 57.4172 31.7965 57.4455 31.8095C57.4737 31.8223 57.5047 31.8281 57.5356 31.8259C57.9301 31.7897 58.3267 31.8685 58.6773 32.0529C59.028 32.2373 59.3176 32.5194 59.5113 32.865C59.705 33.2106 59.7944 33.6048 59.7687 34.0002C59.7431 34.3956 59.6033 34.775 59.3666 35.0926C59.3487 35.1179 59.3375 35.1473 59.3339 35.1782C59.3304 35.209 59.3347 35.2402 59.3462 35.269C59.3579 35.2977 59.3764 35.3232 59.4004 35.3428C59.4243 35.3626 59.4529 35.3759 59.4832 35.3819C59.8732 35.4498 60.2351 35.6292 60.5254 35.8983C60.8157 36.1672 61.022 36.5145 61.1195 36.8981C61.217 37.2816 61.2016 37.6853 61.0749 38.0603C60.9483 38.4352 60.716 38.7657 60.4058 39.0116C60.3822 39.0315 60.3637 39.057 60.3523 39.0859C60.341 39.1147 60.3369 39.1459 60.3407 39.1767C60.3445 39.2075 60.356 39.2369 60.3739 39.2621C60.392 39.2873 60.4161 39.3076 60.4439 39.3211C60.803 39.4875 61.1061 39.754 61.3172 40.0886C61.5281 40.4233 61.6379 40.8119 61.6332 41.2075C61.6286 41.6029 61.5097 41.9888 61.2908 42.3184C61.0722 42.6479 60.7627 42.9073 60.3999 43.0652C60.3711 43.0773 60.3457 43.0967 60.3264 43.1215C60.3072 43.1461 60.2944 43.1754 60.2895 43.2064C60.2847 43.2373 60.2878 43.2691 60.2986 43.2985C60.3093 43.3279 60.3274 43.3542 60.3511 43.3747C60.6551 43.6285 60.8793 43.9647 60.9964 44.3431C61.1136 44.7214 61.1188 45.1254 61.0114 45.5066C60.9041 45.8878 60.6888 46.2297 60.3914 46.4913C60.0941 46.7528 59.7274 46.9228 59.3356 46.9807C59.3051 46.986 59.2766 46.999 59.2523 47.0183C59.2281 47.0376 59.2091 47.0626 59.197 47.0911C59.185 47.1196 59.1802 47.1507 59.1832 47.1815C59.1862 47.2123 59.1969 47.2419 59.2142 47.2676C59.4432 47.5928 59.5728 47.9776 59.5872 48.3751C59.6014 48.7726 59.5 49.1657 59.295 49.5066C59.0901 49.8475 58.7905 50.1215 58.4328 50.2953C58.0749 50.469 57.6743 50.5351 57.2797 50.4854C57.2503 50.4858 57.2212 50.4932 57.1951 50.5071C57.1691 50.5209 57.1467 50.5407 57.1298 50.565C57.113 50.5891 57.102 50.617 57.0981 50.6463C57.0942 50.6754 57.0973 50.7052 57.107 50.7331C57.2438 51.1047 57.2699 51.5082 57.1824 51.8944C57.0948 52.2807 56.8973 52.6333 56.6136 52.9098C56.33 53.1863 55.9724 53.3747 55.5841 53.4523C55.1956 53.53 54.7931 53.4935 54.4249 53.3473C54.4045 53.3389 54.3828 53.3344 54.3606 53.3342C54.3351 53.3345 54.31 53.34 54.2867 53.3503C54.2635 53.3607 54.2425 53.3757 54.2253 53.3944C54.2079 53.4131 54.1947 53.4352 54.1862 53.4592C54.1778 53.4833 54.1743 53.5088 54.1761 53.5342C54.212 53.9288 54.1329 54.3252 53.9483 54.6758C53.7637 55.0263 53.4816 55.3158 53.136 55.5095C52.7904 55.7032 52.3961 55.7926 52.0007 55.767C51.6055 55.7413 51.226 55.6017 50.9082 55.3652C50.8781 55.3423 50.8413 55.3298 50.8035 55.3295C50.7598 55.3292 50.7174 55.3444 50.6837 55.3722C50.6499 55.4001 50.627 55.4389 50.6189 55.4819C50.551 55.8717 50.3716 56.2336 50.1026 56.524C49.8336 56.8142 49.4863 57.0207 49.1028 57.1182C48.7192 57.2157 48.3156 57.2002 47.9406 57.0735C47.5656 56.9469 47.2353 56.7146 46.9892 56.4045C46.9723 56.3833 46.9506 56.3663 46.9261 56.3547C46.9016 56.3432 46.8747 56.3375 46.8475 56.3378C46.8126 56.3372 46.7782 56.3467 46.7485 56.3651C46.7188 56.3834 46.6949 56.41 46.6797 56.4414C46.513 56.7996 46.2464 57.1021 45.912 57.3126C45.5776 57.5232 45.1895 57.6327 44.7944 57.6282C44.3993 57.6236 44.0139 57.5052 43.6844 57.2871C43.3549 57.069 43.0954 56.7604 42.9368 56.3985C42.9223 56.3648 42.8981 56.3363 42.8674 56.3162C42.8368 56.296 42.8008 56.2854 42.7642 56.2854C42.7379 56.2851 42.7118 56.2908 42.6879 56.3019C42.6639 56.3129 42.6429 56.3294 42.6261 56.3497C42.3745 56.6496 42.0428 56.8715 41.6695 56.9896C41.2963 57.1077 40.8973 57.117 40.5189 57.0164C40.1328 56.9125 39.7854 56.6981 39.5193 56.3994C39.2532 56.1008 39.0803 55.731 39.0213 55.3354C39.0166 55.3045 39.0038 55.2753 38.9847 55.2506C38.9654 55.2259 38.9401 55.2065 38.9113 55.1942C38.8825 55.182 38.8511 55.1772 38.8199 55.1804C38.7887 55.1836 38.7589 55.1948 38.7332 55.2128C38.3868 55.4557 37.9713 55.5854 37.5499 55.5854C37.2608 55.5848 36.9751 55.5232 36.7116 55.4045C36.4479 55.2858 36.2123 55.1128 36.0201 54.8969C35.828 54.6809 35.6836 54.4267 35.5964 54.1511C35.5092 53.8754 35.4812 53.5845 35.5142 53.2973C35.5167 53.2666 35.5114 53.2358 35.4991 53.2076C35.4866 53.1795 35.4674 53.1548 35.443 53.1359C35.4187 53.117 35.39 53.1045 35.3597 53.0994C35.3293 53.0944 35.2981 53.0969 35.2689 53.1069C34.9016 53.2425 34.503 53.2697 34.1206 53.1852C33.7381 53.1008 33.388 52.9083 33.1118 52.6307C32.8287 52.3475 32.6347 51.9876 32.5533 51.5954C32.4722 51.2033 32.5074 50.7959 32.6547 50.4235C32.6656 50.3944 32.6689 50.3628 32.6644 50.332C32.66 50.3011 32.6478 50.272 32.6291 50.247C32.6104 50.2221 32.5856 50.2023 32.5573 50.1895C32.5288 50.1766 32.4976 50.1711 32.4666 50.1735C32.0723 50.2092 31.6761 50.13 31.3258 49.9454C30.9755 49.7609 30.686 49.4789 30.4925 49.1335C30.2989 48.7882 30.2094 48.3941 30.2348 47.999C30.2602 47.6039 30.3994 47.2246 30.6357 46.9069C30.6535 46.8815 30.6647 46.8521 30.6683 46.8213C30.6719 46.7904 30.6677 46.7592 30.656 46.7304C30.6445 46.7016 30.6258 46.6763 30.6019 46.6565C30.5779 46.6369 30.5494 46.6234 30.519 46.6176C30.1291 46.5495 29.7672 46.3702 29.4769 46.1011C29.1865 45.8321 28.9802 45.485 28.8827 45.1014C28.7852 44.7177 28.8007 44.3141 28.9273 43.9391C29.0539 43.5641 29.2863 43.2338 29.5964 42.9878C29.6202 42.9679 29.6387 42.9426 29.6502 42.9138C29.6616 42.885 29.6657 42.8538 29.662 42.8231C29.6584 42.7922 29.6471 42.7628 29.6292 42.7376C29.6112 42.7123 29.5873 42.6919 29.5595 42.6783C29.2009 42.5117 28.898 42.2452 28.6873 41.9107C28.4765 41.5763 28.3669 41.1879 28.3715 40.7926C28.3762 40.3972 28.4949 40.0117 28.7135 39.6822C28.932 39.3527 29.2411 39.0934 29.6035 38.9354C29.7273 38.8807 29.7559 38.7116 29.6511 38.6259C29.3468 38.3722 29.1223 38.0358 29.0049 37.6573C28.8875 37.2789 28.8822 36.8746 28.9896 36.4932C29.0969 36.1117 29.3124 35.7695 29.61 35.5079C29.9076 35.2463 30.2746 35.0764 30.6666 35.0188C30.697 35.0134 30.7256 35.0006 30.7498 34.9815C30.774 34.9623 30.793 34.9375 30.8052 34.909C30.8174 34.8807 30.8223 34.8497 30.8195 34.819C30.8167 34.7883 30.8063 34.7588 30.7892 34.7331C30.5599 34.4078 30.43 34.0229 30.4155 33.6252C30.4009 33.2275 30.5023 32.8341 30.7073 32.4929C30.9123 32.1519 31.2121 31.8777 31.5701 31.7039C31.9281 31.5301 32.3289 31.4641 32.7237 31.514C32.8463 31.514 32.938 31.3866 32.8951 31.2676C32.7597 30.8959 32.7343 30.4929 32.8223 30.1072C32.9103 29.7215 33.1078 29.3694 33.3911 29.0933C33.6743 28.8171 34.0314 28.6286 34.4193 28.5507C34.8072 28.4726 35.2093 28.5082 35.5773 28.6533C35.5987 28.6616 35.6201 28.6652 35.6416 28.6652C35.667 28.665 35.6923 28.6595 35.7156 28.6491C35.7388 28.6388 35.7598 28.6238 35.777 28.6051C35.7943 28.5863 35.8076 28.5642 35.8161 28.5402C35.8245 28.5161 35.8279 28.4906 35.8261 28.4652C35.7907 28.0708 35.8703 27.6747 36.0549 27.3245C36.2397 26.9743 36.5217 26.6849 36.8672 26.4914C37.2125 26.2979 37.6066 26.2084 38.0017 26.2337C38.3968 26.2591 38.7761 26.3982 39.0939 26.6342C39.1193 26.6521 39.1488 26.6633 39.1795 26.6669C39.2104 26.6704 39.2416 26.6662 39.2704 26.6546C39.2992 26.643 39.3245 26.6244 39.3443 26.6005C39.3639 26.5765 39.3774 26.548 39.3832 26.5176C39.4511 26.1274 39.6304 25.7652 39.8995 25.4746C40.1686 25.184 40.5161 24.9775 40.8999 24.88C41.2837 24.7825 41.6875 24.7981 42.0628 24.9249C42.4379 25.0518 42.7683 25.2845 43.0142 25.5949C43.031 25.6161 43.0523 25.6333 43.0767 25.645C43.101 25.6568 43.1276 25.6629 43.1547 25.6628C43.1898 25.6632 43.2242 25.6536 43.2539 25.635C43.2837 25.6164 43.3075 25.5897 43.3225 25.558C43.6499 24.8556 44.3594 24.3687 45.1844 24.3687Z" fill="black"/>
</g><g clip-path="url(#clip1_0_2878)">
<mask id="mask1_0_2878" style="mask-type:alpha" maskUnits="userSpaceOnUse" x="115" y="29" width="25" height="25">
<path fill-rule="evenodd" clip-rule="evenodd" d="M127.5 54C134.404 54 140 48.4036 140 41.5C140 34.5964 134.404 29 127.5 29C120.596 29 115 34.5964 115 41.5C115 48.4036 120.596 54 127.5 54Z" fill="white"/>
</mask>
<g mask="url(#mask1_0_2878)">
<path d="M143.996 28.338H112.428V47.6029H143.996V28.338Z" fill="#F64942"/>
<path d="M120.507 49.4231C118.906 46.2839 120.45 42.4827 124.628 41.4612C136.763 39.4791 134.943 35.7208 138.66 34.3809C145.576 31.888 143.827 40.5642 142.436 42.9898C141.045 45.416 144.339 50.0178 139.617 50.3529C136.645 50.563 135.779 48.8886 130.541 51.0505C127.847 52.1624 127.689 51.9166 124.892 51.0148L122.498 49.8047L120.507 49.4237V49.4231Z" fill="#F4CE45"/>
<path d="M126.836 26.5832C123.609 27.0136 107.099 30.488 105.922 31.0255L108.793 47.3231C110.517 47.1564 113.716 48.8725 113.716 46.4552C113.716 44.11 114.192 43.11 115.809 40.2987C118.187 36.1689 123.45 36.238 125.283 36.1481C129.621 35.9362 134.366 34.5481 136.79 31.0267C145.099 18.9612 137.215 23.7213 126.836 26.5832Z" fill="#5B95BF"/>
<path d="M123.351 45.51C119.988 45.5201 116.442 46.557 113.203 47.7731L114.475 61.5427C123.288 60.4398 139.13 57.8035 140.116 56.1326C141.258 54.1957 139.648 52.9035 142.967 51.1386C145.622 49.7273 148.563 44.1445 142.301 44.082C138.834 44.11 137.947 44.8291 135.242 45.8439C130.785 47.516 125.928 45.5023 123.351 45.51Z" fill="#EF90A4"/>
<path fill-rule="evenodd" clip-rule="evenodd" d="M127.601 33.0439C128.029 33.0439 128.397 33.3023 128.558 33.6713C128.566 33.6883 128.578 33.7028 128.593 33.713C128.609 33.7231 128.627 33.7285 128.646 33.7285C128.659 33.7286 128.672 33.7257 128.685 33.72C128.697 33.7143 128.707 33.706 128.716 33.6957C128.844 33.5432 129.013 33.4303 129.202 33.3702C129.392 33.3102 129.595 33.3054 129.787 33.3564C129.984 33.4092 130.161 33.5183 130.297 33.6704C130.432 33.8224 130.521 34.0109 130.551 34.2124C130.553 34.228 130.56 34.2428 130.569 34.2553C130.579 34.2677 130.592 34.2775 130.607 34.2837C130.621 34.2898 130.637 34.2922 130.653 34.2906C130.669 34.289 130.684 34.2834 130.697 34.2743C130.873 34.1507 131.083 34.0844 131.299 34.0844C131.446 34.0847 131.591 34.1161 131.725 34.1764C131.859 34.2368 131.979 34.3248 132.077 34.4347C132.175 34.5447 132.248 34.674 132.293 34.8142C132.337 34.9545 132.351 35.1025 132.334 35.2487C132.333 35.2644 132.336 35.2802 132.342 35.2946C132.348 35.309 132.358 35.3217 132.37 35.3314C132.383 35.3411 132.398 35.3475 132.413 35.3502C132.429 35.3527 132.445 35.3514 132.459 35.3463C132.576 35.3046 132.698 35.2832 132.819 35.2832C132.989 35.2835 133.157 35.3253 133.307 35.4051C133.458 35.4849 133.586 35.6002 133.682 35.7409C133.778 35.8818 133.837 36.0438 133.856 36.213C133.875 36.3822 133.852 36.5534 133.79 36.7118C133.785 36.7266 133.783 36.7424 133.785 36.7579C133.788 36.7734 133.794 36.788 133.803 36.8006C133.813 36.8131 133.825 36.823 133.839 36.8296C133.854 36.8361 133.869 36.839 133.885 36.838C134.086 36.8197 134.287 36.8599 134.466 36.9538C134.644 37.0477 134.792 37.1912 134.89 37.3671C134.989 37.5429 135.034 37.7435 135.021 37.9446C135.008 38.1458 134.937 38.3389 134.817 38.5005C134.807 38.5134 134.802 38.5284 134.8 38.5442C134.798 38.5599 134.8 38.5758 134.806 38.5905C134.812 38.6052 134.822 38.6182 134.834 38.6283C134.846 38.6383 134.861 38.6452 134.876 38.6481C135.074 38.6827 135.259 38.774 135.406 38.9108C135.554 39.0477 135.659 39.2243 135.709 39.4195C135.759 39.6146 135.751 39.82 135.686 40.0108C135.622 40.2017 135.504 40.3699 135.346 40.4951C135.334 40.5052 135.325 40.5183 135.319 40.5329C135.313 40.5476 135.311 40.5635 135.313 40.5792C135.315 40.5949 135.321 40.6098 135.33 40.6227C135.339 40.6356 135.351 40.6459 135.365 40.6528C135.548 40.7377 135.702 40.8733 135.809 41.0436C135.916 41.2139 135.972 41.4114 135.97 41.6125C135.967 41.8137 135.907 42.0099 135.796 42.1775C135.684 42.3452 135.527 42.4772 135.343 42.5576C135.28 42.5856 135.265 42.6713 135.318 42.7159C135.473 42.8452 135.587 43.0163 135.646 43.2087C135.706 43.4011 135.708 43.6065 135.654 43.8004C135.599 43.9942 135.49 44.1681 135.338 44.3012C135.187 44.4343 135.001 44.5209 134.802 44.5505C134.786 44.5531 134.771 44.5597 134.759 44.5695C134.746 44.5793 134.737 44.5921 134.731 44.6067C134.724 44.6212 134.722 44.6371 134.723 44.6529C134.725 44.6687 134.73 44.6838 134.739 44.6969C134.856 44.8624 134.921 45.0581 134.929 45.2603C134.936 45.4625 134.884 45.6624 134.78 45.8359C134.676 46.0093 134.524 46.1487 134.342 46.2372C134.16 46.3257 133.956 46.3595 133.755 46.3344C133.74 46.3347 133.726 46.3386 133.713 46.3456C133.699 46.3527 133.688 46.3627 133.68 46.3749C133.671 46.3872 133.666 46.4013 133.663 46.4161C133.661 46.4308 133.663 46.4459 133.668 46.46C133.737 46.6492 133.75 46.8544 133.706 47.0509C133.661 47.2474 133.561 47.4268 133.416 47.5675C133.272 47.7081 133.09 47.804 132.893 47.8436C132.695 47.8831 132.49 47.8646 132.303 47.7903C132.292 47.7863 132.281 47.7843 132.27 47.7844C132.257 47.7846 132.244 47.7875 132.232 47.7927C132.221 47.798 132.21 47.8056 132.201 47.815C132.192 47.8245 132.186 47.8356 132.181 47.8477C132.177 47.8599 132.175 47.8728 132.176 47.8856C132.194 48.0862 132.154 48.2877 132.06 48.4658C131.966 48.644 131.822 48.7912 131.646 48.8896C131.471 48.9881 131.27 49.0337 131.069 49.021C130.868 49.0083 130.675 48.9377 130.514 48.8177C130.498 48.8062 130.479 48.7999 130.46 48.7999C130.438 48.7997 130.416 48.8074 130.399 48.8216C130.382 48.8357 130.37 48.8554 130.366 48.8773C130.331 49.0757 130.24 49.2599 130.103 49.4077C129.966 49.5555 129.79 49.6605 129.594 49.71C129.399 49.7596 129.194 49.7517 129.003 49.6871C128.812 49.6226 128.644 49.5042 128.519 49.3463C128.51 49.3356 128.499 49.3271 128.487 49.3212C128.475 49.3153 128.461 49.3123 128.448 49.3124C128.429 49.3121 128.412 49.3169 128.396 49.3264C128.381 49.3359 128.369 49.3497 128.361 49.3659C128.276 49.5484 128.141 49.7024 127.971 49.8096C127.8 49.9168 127.603 49.9725 127.402 49.9702C127.2 49.9678 127.004 49.9074 126.837 49.7962C126.669 49.685 126.537 49.5277 126.456 49.3433C126.449 49.3264 126.437 49.3118 126.421 49.3017C126.406 49.2915 126.388 49.2862 126.369 49.2862C126.356 49.2861 126.342 49.2889 126.33 49.2944C126.318 49.3 126.307 49.3081 126.299 49.3183C126.171 49.4709 126.002 49.5839 125.812 49.6439C125.623 49.704 125.42 49.7088 125.227 49.6576C125.031 49.605 124.854 49.4959 124.718 49.344C124.582 49.192 124.494 49.0037 124.464 48.8022C124.462 48.7866 124.455 48.7718 124.445 48.7592C124.436 48.7467 124.423 48.7368 124.408 48.7306C124.394 48.7243 124.378 48.7219 124.362 48.7235C124.346 48.7251 124.331 48.7307 124.318 48.7397C124.155 48.855 123.963 48.9209 123.764 48.9298C123.565 48.9387 123.367 48.89 123.195 48.7897C123.019 48.688 122.876 48.5368 122.784 48.3549C122.693 48.173 122.656 47.9683 122.68 47.7659C122.681 47.7502 122.679 47.7344 122.672 47.7199C122.666 47.7053 122.656 47.6926 122.644 47.6828C122.631 47.6731 122.617 47.6666 122.601 47.6639C122.586 47.6613 122.57 47.6626 122.555 47.6677C122.368 47.7368 122.165 47.7506 121.97 47.7077C121.776 47.6647 121.598 47.5668 121.457 47.4255C121.313 47.2814 121.215 47.0983 121.173 46.8989C121.132 46.6994 121.15 46.4922 121.225 46.3028C121.23 46.2881 121.232 46.2722 121.23 46.2566C121.227 46.241 121.221 46.2262 121.212 46.2137C121.202 46.2011 121.19 46.1911 121.175 46.1845C121.161 46.1779 121.145 46.175 121.13 46.1761C120.929 46.1944 120.727 46.1542 120.549 46.0603C120.37 45.9664 120.223 45.8228 120.125 45.647C120.026 45.4712 119.981 45.2706 119.994 45.0694C120.007 44.8683 120.078 44.6752 120.198 44.5136C120.207 44.5006 120.213 44.4856 120.215 44.4699C120.217 44.4542 120.215 44.4382 120.209 44.4236C120.203 44.4089 120.193 44.3959 120.181 44.3858C120.169 44.3758 120.154 44.3689 120.139 44.3659C119.94 44.3314 119.756 44.2401 119.608 44.1033C119.461 43.9664 119.356 43.7897 119.306 43.5946C119.256 43.3995 119.264 43.1941 119.328 43.0033C119.393 42.8124 119.511 42.6442 119.668 42.5189C119.68 42.5089 119.69 42.4958 119.696 42.4812C119.702 42.4665 119.704 42.4506 119.702 42.4349C119.7 42.4192 119.694 42.4043 119.685 42.3914C119.676 42.3785 119.664 42.3681 119.649 42.3612C119.467 42.2764 119.313 42.1407 119.206 41.9705C119.098 41.8002 119.043 41.6027 119.045 41.4015C119.048 41.2003 119.108 41.0042 119.219 40.8365C119.33 40.6689 119.488 40.5369 119.672 40.4564C119.686 40.45 119.699 40.44 119.709 40.4275C119.719 40.4149 119.725 40.4 119.727 40.3843C119.73 40.3686 119.728 40.3525 119.723 40.3375C119.717 40.3225 119.708 40.3092 119.696 40.2987C119.542 40.1695 119.428 39.9984 119.368 39.8059C119.309 39.6134 119.306 39.4078 119.36 39.2139C119.415 39.0199 119.525 38.8459 119.676 38.7127C119.827 38.5796 120.014 38.4931 120.213 38.4636C120.229 38.4609 120.243 38.4543 120.256 38.4446C120.268 38.4348 120.278 38.4221 120.284 38.4076C120.29 38.3931 120.293 38.3773 120.291 38.3617C120.29 38.3459 120.284 38.3309 120.276 38.3177C120.159 38.1522 120.093 37.9565 120.086 37.7542C120.078 37.5519 120.13 37.3518 120.234 37.1783C120.338 37.0047 120.491 36.8653 120.673 36.7768C120.855 36.6882 121.059 36.6545 121.259 36.6796C121.274 36.6795 121.289 36.6757 121.302 36.6687C121.315 36.6618 121.327 36.6518 121.335 36.6396C121.344 36.6274 121.349 36.6133 121.351 36.5985C121.353 36.5837 121.352 36.5687 121.347 36.5546C121.278 36.3655 121.265 36.1604 121.309 35.964C121.354 35.7677 121.455 35.5884 121.599 35.4478C121.743 35.3072 121.925 35.2114 122.122 35.1717C122.32 35.1321 122.524 35.1503 122.712 35.2243C122.727 35.2295 122.742 35.231 122.758 35.2286C122.773 35.2262 122.788 35.22 122.801 35.2106C122.813 35.2012 122.823 35.1889 122.83 35.1746C122.837 35.1603 122.839 35.1447 122.839 35.129C122.821 34.9285 122.861 34.727 122.955 34.5488C123.049 34.3707 123.193 34.2235 123.368 34.125C123.544 34.0265 123.744 33.9809 123.945 33.9937C124.146 34.0064 124.339 34.077 124.501 34.1969C124.518 34.2088 124.537 34.2148 124.555 34.2148C124.577 34.2149 124.598 34.2072 124.616 34.1931C124.633 34.179 124.645 34.1592 124.649 34.1374C124.683 33.9391 124.775 33.755 124.912 33.6073C125.048 33.4596 125.225 33.3547 125.42 33.305C125.615 33.2554 125.821 33.2633 126.012 33.3276C126.202 33.392 126.371 33.5101 126.496 33.6678C126.514 33.6916 126.541 33.7023 126.567 33.7023C126.585 33.7025 126.603 33.6976 126.618 33.6881C126.633 33.6786 126.646 33.665 126.653 33.6487C126.82 33.2916 127.181 33.0439 127.601 33.0439Z" fill="white"/>
<path fill-rule="evenodd" clip-rule="evenodd" d="M131.391 45.6022C130.45 45.6022 130.523 44.2731 131.391 44.2731C132.259 44.2731 132.333 45.6022 131.391 45.6022ZM123.61 45.6022C122.669 45.6022 122.743 44.2731 123.61 44.2731C124.478 44.2731 124.552 45.6022 123.61 45.6022ZM134.237 40.6915H133.918C133.646 40.6915 133.381 40.6129 133.153 40.4652C132.925 40.3176 132.745 40.1072 132.634 39.8594C132.523 40.1069 132.343 40.317 132.115 40.4644C131.888 40.6118 131.622 40.6902 131.351 40.6902C131.08 40.6902 130.814 40.6118 130.586 40.4644C130.359 40.317 130.179 40.1069 130.068 39.8594C129.956 40.1067 129.776 40.3166 129.549 40.4639C129.321 40.6112 129.056 40.6896 128.784 40.6896C128.513 40.6896 128.248 40.6112 128.02 40.4639C127.793 40.3166 127.613 40.1067 127.501 39.8594C127.39 40.1069 127.21 40.317 126.983 40.4644C126.755 40.6118 126.489 40.6902 126.218 40.6902C125.947 40.6902 125.681 40.6118 125.454 40.4644C125.226 40.317 125.046 40.1069 124.935 39.8594C124.824 40.1071 124.644 40.3174 124.416 40.465C124.188 40.6125 123.923 40.6911 123.651 40.6911C123.38 40.6911 123.114 40.6125 122.887 40.465C122.659 40.3174 122.479 40.1071 122.368 39.8594C122.257 40.1071 122.077 40.3174 121.849 40.4649C121.622 40.6124 121.356 40.6909 121.085 40.6909H120.769C120.291 41.2058 120.595 41.6409 121.776 41.6409V44.2844C121.776 46.7689 124.637 48.0112 127.498 48.0112C130.359 48.0112 133.22 46.7689 133.22 44.285V41.6409C134.403 41.6409 134.711 41.2064 134.237 40.6909V40.6915Z" fill="black"/>
<path fill-rule="evenodd" clip-rule="evenodd" d="M127.592 32.1862C127.173 32.1862 126.772 32.3171 126.439 32.5487C126.046 32.3955 125.614 32.3691 125.205 32.4733C124.796 32.5775 124.43 32.8069 124.157 33.1296C123.738 33.0836 123.315 33.1697 122.947 33.3759C122.579 33.5821 122.285 33.898 122.105 34.2796C121.688 34.3437 121.301 34.5366 120.999 34.8314C120.696 35.1262 120.494 35.5081 120.42 35.9237C120.025 36.0967 119.696 36.3909 119.48 36.7636C119.275 37.1214 119.183 37.5337 119.218 37.9451C118.889 38.2088 118.65 38.569 118.536 38.9752C118.421 39.3813 118.437 39.8131 118.58 40.21C118.33 40.55 118.193 40.9596 118.188 41.3814C118.182 41.8032 118.309 42.2161 118.55 42.5624C118.397 42.9555 118.37 43.3866 118.474 43.7955C118.578 44.2044 118.807 44.5706 119.13 44.8427C119.083 45.2622 119.169 45.6859 119.376 46.0541C119.582 46.4224 119.898 46.7168 120.28 46.8963C120.344 47.3136 120.537 47.7005 120.831 48.0029C121.126 48.3053 121.508 48.508 121.923 48.5826C122.093 48.969 122.379 49.2926 122.742 49.5081C123.105 49.7236 123.526 49.8202 123.946 49.7844C124.136 50.021 124.376 50.2119 124.65 50.3431C124.923 50.4743 125.223 50.5423 125.526 50.5421C125.763 50.5421 125.995 50.5005 126.213 50.4219C126.552 50.6709 126.961 50.8077 127.383 50.813C127.804 50.8184 128.216 50.692 128.562 50.4516C128.964 50.6085 129.406 50.6325 129.823 50.5201C130.221 50.4128 130.577 50.1862 130.844 49.8707C131.272 49.9195 131.705 49.8287 132.078 49.6118C132.435 49.405 132.72 49.0941 132.896 48.7207C133.322 48.6563 133.717 48.4563 134.021 48.1505C134.319 47.8534 134.509 47.476 134.581 47.0766C134.975 46.9034 135.304 46.609 135.52 46.2362C135.726 45.8786 135.818 45.4665 135.783 45.0552C136.113 44.7915 136.351 44.4313 136.466 44.0251C136.58 43.6189 136.564 43.1871 136.421 42.7903C136.671 42.4502 136.808 42.0405 136.813 41.6186C136.818 41.1967 136.692 40.7837 136.451 40.4374C136.604 40.0443 136.63 39.6133 136.526 39.2046C136.422 38.7959 136.193 38.4298 135.871 38.1576C135.918 37.7381 135.832 37.3144 135.626 36.9461C135.419 36.5778 135.103 36.2833 134.721 36.104C134.656 35.6779 134.456 35.2837 134.151 34.979C133.86 34.6859 133.485 34.4898 133.077 34.4177C132.908 34.0312 132.622 33.7073 132.259 33.4917C131.896 33.2761 131.475 33.1794 131.054 33.2153C130.79 32.8861 130.43 32.6477 130.024 32.5335C129.617 32.4193 129.186 32.435 128.789 32.5784C128.442 32.3237 128.023 32.1862 127.592 32.1862ZM127.592 33.1844C128.013 33.1844 128.374 33.4385 128.533 33.801C128.54 33.8177 128.553 33.8319 128.568 33.8418C128.583 33.8518 128.601 33.857 128.62 33.857C128.633 33.857 128.646 33.8541 128.658 33.8485C128.669 33.843 128.68 33.8349 128.688 33.8248C128.814 33.6749 128.98 33.5638 129.166 33.5048C129.353 33.4457 129.553 33.4411 129.742 33.4915C130.149 33.601 130.432 33.9403 130.491 34.3326C130.494 34.348 130.5 34.3625 130.51 34.3747C130.519 34.387 130.532 34.3967 130.546 34.4028C130.56 34.4089 130.576 34.4113 130.591 34.4097C130.607 34.4082 130.622 34.4027 130.635 34.3939C130.808 34.2719 131.016 34.207 131.226 34.207C131.371 34.2072 131.514 34.238 131.645 34.2972C131.777 34.3565 131.895 34.4429 131.991 34.5509C132.087 34.6588 132.159 34.7858 132.203 34.9236C132.247 35.0614 132.261 35.2069 132.244 35.3505C132.243 35.366 132.245 35.3816 132.251 35.3959C132.257 35.4102 132.267 35.4228 132.279 35.4324C132.292 35.442 132.306 35.4484 132.321 35.4509C132.337 35.4534 132.353 35.4521 132.367 35.4469C132.551 35.3791 132.75 35.3655 132.941 35.4077C133.132 35.45 133.307 35.5462 133.445 35.685C133.744 35.9832 133.819 36.4189 133.674 36.788C133.669 36.8025 133.667 36.8182 133.67 36.8336C133.672 36.8489 133.678 36.8635 133.687 36.8759C133.696 36.8884 133.709 36.8983 133.723 36.9047C133.737 36.9112 133.752 36.914 133.768 36.913C133.965 36.8949 134.163 36.9343 134.339 37.0265C134.514 37.1187 134.659 37.2597 134.756 37.4325C134.853 37.6053 134.897 37.8024 134.884 38.0001C134.872 38.1978 134.802 38.3875 134.683 38.5463C134.674 38.559 134.669 38.5737 134.667 38.5891C134.665 38.6045 134.667 38.6201 134.673 38.6345C134.679 38.6488 134.688 38.6616 134.7 38.6714C134.712 38.6813 134.727 38.688 134.742 38.6909C134.937 38.7249 135.118 38.8146 135.263 38.9491C135.408 39.0836 135.511 39.2572 135.56 39.449C135.609 39.6408 135.601 39.8427 135.538 40.0302C135.474 40.2176 135.358 40.3828 135.203 40.5058C135.191 40.5158 135.182 40.5285 135.176 40.543C135.171 40.5574 135.169 40.573 135.17 40.5884C135.172 40.6037 135.178 40.6184 135.187 40.6311C135.196 40.6437 135.208 40.6538 135.222 40.6606C135.402 40.7437 135.553 40.877 135.659 41.0443C135.764 41.2116 135.819 41.4059 135.817 41.6037C135.814 41.8015 135.755 41.9944 135.646 42.1592C135.536 42.324 135.381 42.4537 135.2 42.5326C135.186 42.5387 135.173 42.5484 135.163 42.5608C135.154 42.5731 135.147 42.5877 135.145 42.6032C135.142 42.6187 135.144 42.6346 135.149 42.6493C135.155 42.664 135.164 42.6771 135.176 42.6874C135.328 42.8143 135.44 42.9824 135.498 43.1715C135.557 43.3607 135.56 43.5627 135.506 43.7533C135.452 43.9439 135.345 44.1149 135.196 44.2456C135.047 44.3764 134.864 44.4614 134.668 44.4903C134.653 44.493 134.638 44.4995 134.626 44.5091C134.614 44.5188 134.605 44.5313 134.599 44.5456C134.593 44.5598 134.59 44.5753 134.592 44.5908C134.593 44.6062 134.599 44.6209 134.607 44.6338C134.722 44.7964 134.786 44.9888 134.794 45.1875C134.801 45.3863 134.75 45.5828 134.648 45.7533C134.545 45.9237 134.395 46.0608 134.216 46.1477C134.038 46.2345 133.837 46.2675 133.64 46.2427C133.625 46.2429 133.611 46.2466 133.598 46.2536C133.585 46.2605 133.573 46.2703 133.565 46.2825C133.557 46.2946 133.551 46.3085 133.549 46.3231C133.547 46.3377 133.549 46.3526 133.554 46.3665C133.622 46.5524 133.635 46.7541 133.591 46.9472C133.548 47.1403 133.449 47.3166 133.307 47.4549C133.165 47.5931 132.986 47.6874 132.792 47.7262C132.598 47.765 132.397 47.7468 132.213 47.6737C132.202 47.6694 132.191 47.6672 132.18 47.6671C132.168 47.6672 132.155 47.67 132.143 47.6752C132.132 47.6803 132.121 47.6878 132.113 47.6972C132.104 47.7065 132.097 47.7176 132.093 47.7296C132.089 47.7416 132.087 47.7544 132.088 47.7671C132.106 47.9644 132.067 48.1626 131.974 48.3379C131.882 48.5131 131.741 48.6579 131.568 48.7547C131.395 48.8516 131.198 48.8963 131 48.8835C130.803 48.8706 130.613 48.8009 130.454 48.6826C130.439 48.6712 130.421 48.6649 130.402 48.6647C130.38 48.6646 130.359 48.6722 130.342 48.6861C130.325 48.7 130.314 48.7194 130.31 48.7409C130.276 48.9359 130.186 49.1168 130.051 49.262C129.917 49.4071 129.743 49.5103 129.551 49.5591C129.36 49.6078 129.158 49.6001 128.97 49.5368C128.783 49.4734 128.618 49.3573 128.495 49.2022C128.486 49.1916 128.475 49.1831 128.463 49.1774C128.451 49.1716 128.437 49.1687 128.424 49.1689C128.406 49.1686 128.389 49.1734 128.374 49.1825C128.36 49.1917 128.348 49.205 128.34 49.2207C128.257 49.3998 128.123 49.5511 127.956 49.6563C127.789 49.7616 127.595 49.8163 127.397 49.8141C127.2 49.8118 127.007 49.7526 126.842 49.6435C126.678 49.5345 126.548 49.3802 126.469 49.1993C126.461 49.1824 126.449 49.1681 126.434 49.1581C126.419 49.148 126.401 49.1427 126.382 49.1427C126.369 49.1425 126.356 49.1454 126.344 49.1509C126.332 49.1565 126.322 49.1647 126.313 49.1749C126.187 49.3248 126.021 49.4358 125.835 49.4948C125.648 49.5538 125.449 49.5585 125.26 49.5082C125.066 49.4562 124.893 49.349 124.76 49.1997C124.627 49.0504 124.54 48.8655 124.511 48.6677C124.508 48.6522 124.502 48.6377 124.492 48.6253C124.483 48.613 124.47 48.6033 124.456 48.5971C124.441 48.591 124.426 48.5886 124.41 48.5902C124.394 48.5918 124.38 48.5974 124.367 48.6064C124.194 48.7278 123.986 48.7927 123.775 48.7927C123.631 48.7924 123.488 48.7616 123.356 48.7022C123.224 48.6429 123.106 48.5564 123.01 48.4484C122.914 48.3405 122.842 48.2134 122.798 48.0756C122.755 47.9377 122.741 47.7922 122.757 47.6487C122.758 47.6333 122.756 47.6179 122.75 47.6038C122.743 47.5897 122.734 47.5774 122.722 47.568C122.709 47.5585 122.695 47.5522 122.68 47.5497C122.665 47.5472 122.649 47.5484 122.635 47.5534C122.451 47.6212 122.252 47.6349 122.06 47.5926C121.869 47.5504 121.694 47.4541 121.556 47.3153C121.414 47.1737 121.317 46.9938 121.277 46.7977C121.236 46.6016 121.254 46.398 121.327 46.2118C121.333 46.1972 121.335 46.1814 121.332 46.166C121.33 46.1506 121.324 46.136 121.315 46.1235C121.305 46.1111 121.293 46.1012 121.279 46.0947C121.265 46.0883 121.249 46.0856 121.233 46.0868C121.036 46.1046 120.838 46.065 120.663 45.9727C120.488 45.8805 120.343 45.7394 120.246 45.5668C120.15 45.3941 120.105 45.1971 120.118 44.9995C120.13 44.8019 120.2 44.6123 120.318 44.4534C120.327 44.4408 120.332 44.4261 120.334 44.4106C120.336 44.3952 120.334 44.3796 120.328 44.3652C120.322 44.3508 120.313 44.3381 120.301 44.3283C120.289 44.3184 120.275 44.3117 120.26 44.3088C120.065 44.2747 119.884 44.1851 119.739 44.0506C119.593 43.916 119.49 43.7425 119.441 43.5507C119.393 43.3588 119.4 43.1571 119.464 42.9696C119.527 42.7821 119.643 42.6169 119.798 42.4939C119.81 42.484 119.819 42.4713 119.825 42.4569C119.831 42.4425 119.833 42.4269 119.831 42.4115C119.829 42.3961 119.824 42.3814 119.815 42.3688C119.806 42.3562 119.794 42.3459 119.78 42.3391C119.601 42.2559 119.449 42.1226 119.344 41.9553C119.238 41.7881 119.184 41.594 119.186 41.3963C119.188 41.1986 119.248 41.0059 119.357 40.8411C119.466 40.6763 119.621 40.5467 119.802 40.4677C119.864 40.4403 119.878 40.3558 119.826 40.313C119.673 40.1861 119.561 40.0179 119.503 39.8287C119.444 39.6394 119.441 39.4373 119.495 39.2466C119.549 39.0559 119.656 38.8847 119.805 38.754C119.954 38.6231 120.137 38.5382 120.333 38.5094C120.349 38.5067 120.363 38.5003 120.375 38.4908C120.387 38.4812 120.397 38.4687 120.403 38.4545C120.409 38.4403 120.411 38.4249 120.41 38.4095C120.408 38.3941 120.403 38.3794 120.395 38.3665C120.28 38.2039 120.215 38.0115 120.208 37.8126C120.201 37.6137 120.251 37.4171 120.354 37.2465C120.456 37.0759 120.606 36.9388 120.785 36.8519C120.964 36.765 121.165 36.7321 121.362 36.757C121.423 36.757 121.469 36.6933 121.448 36.6338C121.38 36.448 121.367 36.2465 121.411 36.0536C121.455 35.8608 121.554 35.6847 121.696 35.5466C121.837 35.4086 122.016 35.3143 122.21 35.2753C122.404 35.2363 122.605 35.2541 122.789 35.3266C122.799 35.3308 122.81 35.3326 122.821 35.3326C122.834 35.3325 122.846 35.3297 122.858 35.3246C122.87 35.3194 122.88 35.3119 122.889 35.3025C122.897 35.2931 122.904 35.2821 122.908 35.2701C122.912 35.2581 122.914 35.2453 122.913 35.2326C122.895 35.0354 122.935 34.8373 123.028 34.6622C123.12 34.4871 123.261 34.3425 123.434 34.2457C123.606 34.1489 123.803 34.1042 124.001 34.1169C124.199 34.1295 124.388 34.1991 124.547 34.3171C124.56 34.326 124.575 34.3317 124.59 34.3334C124.605 34.3352 124.621 34.3331 124.635 34.3273C124.65 34.3215 124.662 34.3122 124.672 34.3002C124.682 34.2883 124.689 34.274 124.692 34.2588C124.726 34.0637 124.815 33.8826 124.95 33.7373C125.084 33.592 125.258 33.4888 125.45 33.44C125.642 33.3912 125.844 33.399 126.031 33.4625C126.219 33.5259 126.384 33.6422 126.507 33.7975C126.516 33.8081 126.526 33.8166 126.538 33.8225C126.551 33.8284 126.564 33.8314 126.577 33.8314C126.595 33.8316 126.612 33.8268 126.627 33.8175C126.642 33.8082 126.654 33.7949 126.661 33.779C126.825 33.4278 127.18 33.1844 127.592 33.1844Z" fill="black"/>
</g><path fill-rule="evenodd" clip-rule="evenodd" d="M151.958 46.275C152.101 46.4226 152.171 46.6131 152.171 46.8458C152.171 47.078 152.077 47.2685 151.889 47.4173C151.701 47.5649 151.458 47.6387 151.162 47.6387H150.854C150.316 47.6445 149.787 47.5047 149.322 47.2339C148.867 46.9715 148.491 46.5908 148.235 46.1321C147.973 45.6667 147.842 45.1435 147.842 44.5613V40.6435H147.054C146.815 40.6435 146.621 40.5798 146.473 40.453C146.402 40.3957 146.345 40.323 146.307 40.2405C146.268 40.158 146.249 40.0679 146.25 39.9768C146.25 39.7655 146.324 39.5964 146.473 39.4696C146.621 39.3429 146.815 39.2792 147.054 39.2792H147.842V36.9952C147.842 36.7625 147.921 36.572 148.082 36.4238C148.241 36.2756 148.446 36.2018 148.698 36.2018C148.948 36.2018 149.154 36.2756 149.314 36.4238C149.473 36.572 149.553 36.7625 149.553 36.9952V39.2792H151.008C151.248 39.2792 151.442 39.3429 151.59 39.4696C151.739 39.5964 151.813 39.7655 151.813 39.9774C151.813 40.1679 151.738 40.3262 151.59 40.4536C151.441 40.5798 151.248 40.6435 151.008 40.6435H149.554V44.5613C149.554 44.9845 149.679 45.3387 149.93 45.6244C150.182 45.9101 150.49 46.053 150.854 46.053H151.436C151.642 46.053 151.816 46.1268 151.958 46.275ZM160.772 39.4774C161.467 39.8468 162.052 40.3942 162.466 41.0637C162.883 41.7351 163.091 42.4833 163.091 43.3083V46.8458C163.091 47.078 163.008 47.2714 162.843 47.425C162.677 47.578 162.469 47.6548 162.218 47.6548C161.967 47.6548 161.759 47.578 161.593 47.425C161.512 47.352 161.449 47.2624 161.406 47.1624C161.363 47.0625 161.343 46.9545 161.345 46.8458V46.2589C160.944 46.7151 160.447 47.0778 159.891 47.3214C159.308 47.5777 158.678 47.7076 158.042 47.7024C157.221 47.7024 156.476 47.5119 155.808 47.131C155.149 46.7587 154.605 46.2129 154.234 45.553C153.852 44.8815 153.661 44.1333 153.661 43.3089C153.661 42.4833 153.866 41.7351 154.277 41.0637C154.688 40.3923 155.255 39.8637 155.98 39.4774C156.704 39.0917 157.506 38.8982 158.385 38.8982C159.263 38.8982 160.059 39.0917 160.771 39.4774H160.772ZM159.933 45.8863C160.385 45.6372 160.761 45.2697 161.02 44.8232C161.282 44.3738 161.414 43.869 161.414 43.3083C161.414 42.7476 161.283 42.2405 161.02 41.7857C160.763 41.3357 160.387 40.9651 159.933 40.7143C159.471 40.456 158.955 40.3262 158.385 40.3262C157.814 40.3262 157.298 40.456 156.836 40.7149C156.381 40.9668 156.003 41.3368 155.741 41.7857C155.472 42.2405 155.338 42.7476 155.338 43.3083C155.338 43.869 155.472 44.3738 155.74 44.8232C156.004 45.2688 156.382 45.6358 156.835 45.8863C157.298 46.1452 157.814 46.275 158.385 46.275C158.955 46.275 159.471 46.1452 159.933 45.8863H159.933ZM166.736 47.369C166.052 47.147 165.516 46.8565 165.127 46.497C165.057 46.4358 165.001 46.3602 164.963 46.2754C164.925 46.1905 164.905 46.0985 164.905 46.0054C164.905 45.7512 165.019 45.5452 165.248 45.3863C165.464 45.2381 165.664 45.1643 165.846 45.1643C166.074 45.1643 166.292 45.2595 166.497 45.45C166.714 45.672 167.039 45.8649 167.472 46.0292C167.916 46.1949 168.386 46.2782 168.859 46.275C169.509 46.275 170.014 46.1738 170.373 45.9732C170.733 45.7726 170.913 45.503 170.913 45.1643C170.913 44.8369 170.736 44.5643 170.382 44.3476C170.028 44.1304 169.429 43.9482 168.585 43.8C166.394 43.4089 165.299 42.5738 165.299 41.294C165.299 40.7756 165.464 40.3369 165.795 39.9774C166.126 39.6173 166.56 39.3476 167.096 39.1679C167.632 38.9881 168.203 38.8982 168.807 38.8982C169.549 38.8982 170.214 39.0095 170.801 39.2315C171.389 39.4536 171.854 39.7601 172.196 40.1518C172.345 40.3208 172.419 40.4899 172.419 40.6595C172.419 40.8393 172.321 41.003 172.127 41.1512C172.002 41.2357 171.842 41.278 171.648 41.278C171.353 41.2783 171.067 41.1713 170.844 40.9768C170.58 40.7452 170.271 40.5696 169.937 40.4607C169.617 40.3607 169.229 40.3101 168.773 40.3101C168.248 40.3101 167.817 40.3923 167.481 40.556C167.144 40.7202 166.976 40.95 166.976 41.2464C166.976 41.4577 167.033 41.6345 167.147 41.7774C167.261 41.9202 167.478 42.0524 167.798 42.1744C168.117 42.2958 168.579 42.4149 169.184 42.5315C170.428 42.7637 171.309 43.0863 171.828 43.4988C172.347 43.9113 172.607 44.4452 172.607 45.1006C172.607 45.5875 172.464 46.0292 172.179 46.4256C171.894 46.822 171.474 47.1339 170.921 47.3613C170.367 47.5887 169.703 47.7024 168.927 47.7024C168.151 47.7024 167.421 47.5911 166.736 47.369ZM181.9 46.9726C181.9 47.2054 181.798 47.4012 181.592 47.5595C181.436 47.6815 181.243 47.7485 181.044 47.75C180.793 47.75 180.588 47.6548 180.428 47.4643L177.176 43.7369L176.321 44.4345V46.8619C176.321 47.094 176.243 47.2821 176.09 47.425C175.936 47.5679 175.733 47.6393 175.482 47.6393C175.231 47.6393 175.029 47.5679 174.874 47.425C174.72 47.2821 174.643 47.094 174.643 46.8619V36.0274C174.643 35.7946 174.72 35.6071 174.874 35.4643C175.029 35.3214 175.231 35.25 175.482 35.25C175.733 35.25 175.936 35.3214 176.09 35.4643C176.243 35.6071 176.321 35.7946 176.321 36.0274V42.4833L180.48 39.0411C180.628 38.9042 180.805 38.8351 181.01 38.8351C181.249 38.8351 181.443 38.9196 181.592 39.0887C181.74 39.2262 181.814 39.3905 181.814 39.5804C181.814 39.8024 181.723 39.9827 181.54 40.1202L178.392 42.7214L181.712 46.497C181.838 46.6238 181.9 46.7827 181.9 46.9732V46.9726ZM189.987 39.4774C190.682 39.8466 191.267 40.3941 191.681 41.0637C192.098 41.7351 192.306 42.4833 192.306 43.3083V46.8458C192.306 47.078 192.223 47.2714 192.058 47.425C191.892 47.578 191.684 47.6548 191.433 47.6548C191.182 47.6548 190.974 47.578 190.808 47.425C190.728 47.352 190.664 47.2624 190.621 47.1625C190.578 47.0626 190.558 46.9545 190.56 46.8458V46.2589C190.159 46.7151 189.662 47.0777 189.105 47.3214C188.523 47.5778 187.893 47.7077 187.257 47.7024C186.436 47.7024 185.691 47.5119 185.023 47.131C184.364 46.7586 183.82 46.2129 183.449 45.553C183.067 44.8815 182.876 44.1333 182.876 43.3089C182.876 42.4833 183.081 41.7351 183.492 41.0637C183.902 40.3923 184.47 39.8637 185.195 39.4774C185.919 39.0917 186.721 38.8982 187.599 38.8982C188.478 38.8982 189.274 39.0917 189.987 39.4774ZM189.148 45.8863C189.6 45.637 189.976 45.2696 190.235 44.8232C190.498 44.3738 190.629 43.869 190.629 43.3083C190.629 42.7476 190.498 42.2405 190.235 41.7857C189.978 41.3358 189.602 40.9652 189.148 40.7143C188.686 40.456 188.17 40.3262 187.599 40.3262C187.029 40.3262 186.513 40.456 186.051 40.7149C185.596 40.9668 185.217 41.3367 184.955 41.7857C184.687 42.2405 184.553 42.7476 184.553 43.3083C184.553 43.869 184.687 44.3738 184.955 44.8232C185.219 45.2688 185.597 45.6358 186.051 45.8863C186.513 46.1452 187.029 46.275 187.599 46.275C188.17 46.275 188.686 46.1452 189.148 45.8863ZM203.448 35.472C203.607 35.6202 203.687 35.8161 203.687 36.0589V43.2923C203.687 44.1173 203.479 44.8655 203.063 45.5369C202.648 46.2064 202.063 46.7538 201.368 47.1232C200.655 47.5095 199.859 47.7024 198.98 47.7024C198.102 47.7024 197.301 47.5095 196.576 47.1232C195.851 46.7375 195.284 46.2083 194.873 45.5369C194.463 44.8655 194.257 44.1173 194.257 43.2929C194.257 42.4679 194.448 41.7196 194.83 41.0482C195.201 40.3881 195.746 39.8421 196.405 39.4696C197.072 39.0887 197.817 38.8982 198.638 38.8982C199.3 38.8982 199.916 39.0256 200.487 39.2792C201.043 39.5231 201.54 39.886 201.942 40.3423V36.0589C201.942 35.8155 202.024 35.6202 202.19 35.472C202.355 35.3238 202.563 35.25 202.814 35.25C203.077 35.25 203.288 35.3238 203.448 35.472ZM200.529 45.8863C200.983 45.6357 201.359 45.2649 201.616 44.8149C201.879 44.3607 202.01 43.853 202.01 43.2923C202.01 42.7321 201.879 42.2268 201.616 41.7774C201.357 41.3311 200.981 40.9639 200.529 40.7149C200.067 40.4554 199.551 40.3262 198.98 40.3262C198.41 40.3262 197.894 40.456 197.432 40.7149C196.979 40.9654 196.601 41.3321 196.336 41.7774C196.068 42.2268 195.934 42.7321 195.934 43.2923C195.934 43.853 196.068 44.3607 196.336 44.8155C196.599 45.2643 196.977 45.6343 197.432 45.8863C197.894 46.1452 198.41 46.275 198.98 46.275C199.551 46.275 200.067 46.1452 200.529 45.8863ZM214.777 43.6655C214.629 43.7976 214.441 43.8637 214.213 43.8637H207.709C207.835 44.6042 208.197 45.2012 208.796 45.656C209.395 46.1107 210.128 46.3381 210.995 46.3381C211.359 46.3346 211.719 46.2758 212.065 46.1637C212.436 46.0476 212.741 45.9048 212.98 45.7351C213.145 45.6174 213.343 45.5562 213.545 45.5607C213.762 45.5607 213.933 45.6143 214.059 45.7196C214.264 45.878 214.367 46.0577 214.367 46.2589C214.367 46.4494 214.276 46.6077 214.093 46.7351C213.705 47.0208 213.223 47.253 212.647 47.4327C212.07 47.6125 211.52 47.7024 210.995 47.7024C210.06 47.7024 209.221 47.5149 208.479 47.1393C207.738 46.7643 207.158 46.2429 206.742 45.5768C206.326 44.9101 206.117 44.1542 206.117 43.3089C206.117 42.4625 206.314 41.7036 206.708 41.0321C207.098 40.3648 207.667 39.8207 208.351 39.4619C209.052 39.0863 209.848 38.8982 210.739 38.8982C211.617 38.8982 212.376 39.078 213.015 39.4375C213.642 39.7854 214.154 40.3093 214.486 40.9446C214.829 41.5899 215 42.3304 215 43.1655C215 43.3667 214.926 43.5333 214.777 43.6655ZM208.71 40.8976C208.191 41.3202 207.863 41.8857 207.726 42.594H213.426C213.323 41.8857 213.038 41.3202 212.57 40.8976C212.102 40.4744 211.492 40.2625 210.739 40.2625C209.905 40.2625 209.23 40.4744 208.71 40.897V40.8976Z" fill="black"/></svg>