<svg width="109" height="109" viewBox="0 0 109 109" fill="none" xmlns="http://www.w3.org/2000/svg">
<path d="M48.7029 70.1677L43.2312 71.6903C43.707 73.0701 44.0876 75.5443 44.0876 78.8749V95.2425H50.2255V77.9233C51.3674 76.5435 52.6045 75.8773 53.9367 75.8773C54.6029 75.8773 55.1262 76.0201 55.6972 76.3531L57.3625 70.6911C56.4109 70.2629 55.9827 70.1677 55.0787 70.1677C54.4125 70.1677 53.6037 70.3105 53.0803 70.5484C51.9384 71.1193 50.511 72.404 49.6069 73.6411C49.6069 72.2613 49.2739 71.1669 48.7029 70.1677ZM27.5773 62.0791H26.9112V95.1949H33.2869V80.5402H41.328V75.0685H33.2869V67.4557H43.3264L43.707 64.5533C37.6643 64.125 32.1926 63.1734 27.5773 62.0791ZM12.6847 99.6199L15.6347 103.046C18.4895 101.904 22.058 99.3344 23.0096 95.2425C23.3427 93.9102 23.4378 93.0538 23.4378 88.724V62.1267H17.0145V89.4377C17.0145 93.0062 16.8718 94.3385 16.396 95.5756C15.7774 96.9554 14.3024 98.5731 12.6847 99.6199ZM70.5898 82.8241C70.5898 88.6288 69.4479 91.103 66.831 91.103C65.6415 91.103 64.3092 90.4369 63.7383 89.1046C63.2625 87.8676 62.977 85.774 62.977 82.9192C62.977 80.4926 63.2149 78.7797 63.5955 77.4475C64.0713 75.9249 65.2608 74.9733 66.7358 74.9733C67.8302 74.9733 68.7818 75.4491 69.3527 76.258C70.2092 77.3999 70.5898 79.541 70.5898 82.8241ZM74.3487 92.3401C76.347 89.9611 77.251 87.0587 77.251 82.8716C77.251 78.9225 76.4422 76.2104 74.5866 73.9266C72.5882 71.4524 70.0189 70.2629 66.6882 70.2629C60.4076 70.2629 56.2206 75.354 56.2206 83.062C56.2206 90.77 60.3601 95.7183 66.6882 95.7183C70.2568 95.7659 72.5882 94.4336 74.3487 92.3401ZM91.763 78.637C91.763 80.8733 90.4308 82.1104 88.0518 82.1104C85.9107 82.1104 84.4832 81.1112 84.4832 78.637C84.4832 76.3531 85.8155 75.0209 88.0993 75.0209C90.3832 75.0209 91.763 76.3531 91.763 78.637ZM102.564 73.4032L100.042 69.3589C98.6146 70.6911 96.9017 71.4524 95.2364 71.4524C94.4751 71.4524 94.0469 71.3572 92.3816 70.929C90.7162 70.4532 89.5267 70.3105 88.1945 70.3105C82.247 70.3105 78.393 73.5459 78.393 78.5894C78.393 82.2055 80.0107 84.4894 83.3889 85.3934C82.0091 85.7264 80.5341 86.4402 79.868 87.249C79.3922 87.82 79.1543 88.5813 79.1543 89.4853C79.1543 90.2466 79.3446 90.9127 79.6301 91.4837C79.9631 92.007 80.3913 92.4353 80.9623 92.6732C82.0566 93.1014 83.8171 93.3869 86.5292 93.4344C87.9566 93.4344 88.813 93.482 89.0985 93.482C90.7638 93.5772 91.6203 93.8627 92.2864 94.1957C92.9049 94.5764 93.3807 95.4328 93.3807 96.3844C93.3807 97.336 92.8098 98.2876 91.9058 98.8586C91.0969 99.4296 89.7646 99.6675 88.0518 99.6675C85.2445 99.6675 83.6744 98.6207 83.6744 96.6699C83.6744 95.8135 83.7695 95.6231 83.9599 95.0998H78.3454C78.1075 95.5756 77.822 96.2417 77.822 97.5739C77.822 99.2392 78.4406 100.667 79.7252 101.904C81.8187 103.95 85.2445 104.521 88.5276 104.521C92.1437 104.521 95.6646 103.664 97.7105 101.38C98.9952 99.9529 99.5662 98.3828 99.5662 96.3368C99.5662 94.1481 98.9476 92.4828 97.5678 91.103C95.9501 89.5329 94.0944 88.9619 90.5259 88.9143L87.2429 88.8667C86.6244 88.8667 86.2437 88.6288 86.2437 88.2958C86.2437 87.6297 87.1002 87.0587 88.6703 86.2974C89.1461 86.345 89.2888 86.345 89.5743 86.345C94.5227 86.345 98.1388 83.2999 98.1388 79.0652C98.1388 77.4475 97.663 76.2104 96.7589 75.0685C97.5202 75.1637 97.7581 75.2112 98.3291 75.2112C99.9468 75.2112 101.231 74.6878 102.564 73.4032ZM25.9596 33.2931C18.3467 35.1487 13.1605 38.8124 13.1605 42.9994C13.1605 45.6163 15.1589 47.9953 18.4419 49.851C17.4427 48.2808 16.9193 46.5679 16.9193 44.855C16.9669 40.5252 20.3451 36.4809 25.9596 33.2931ZM106.275 49.7082C106.275 46.9486 104.562 44.4268 101.707 42.3333C101.945 43.1897 102.135 44.0462 102.135 44.9026C102.135 52.7534 91.1445 59.5098 75.5382 62.317C77.2986 62.5073 79.1067 62.6025 81.0099 62.6025C94.9509 62.5549 106.275 56.7977 106.275 49.7082ZM97.2823 45.426C97.2823 42.5236 94.8081 39.8591 90.5735 37.6704C91.5727 38.8599 92.0961 40.1446 92.0961 41.4769C92.0961 48.4711 77.251 54.1332 58.8851 54.1332C40.5667 54.1332 25.6741 48.4711 25.6741 41.4769C25.6741 40.5728 25.912 39.7164 26.3878 38.9075C23.4378 40.8583 21.7725 43.0946 21.7725 45.4736C21.7725 53.0388 38.6635 59.1767 59.5036 59.1767C80.3438 59.1767 97.2823 52.9437 97.2823 45.426ZM80.8196 45.0454C73.1116 49.9937 49.4166 51.8969 39.2345 45.5212C31.241 40.5252 34.0006 32.5794 11.1145 15.165C8.11699 12.8811 11.6855 10.4546 13.9218 12.0247C16.1581 13.5949 14.1121 13.9755 18.6322 18.4956C27.7676 27.631 27.6725 19.3996 29.0999 22.5399C32.145 29.0584 38.8062 35.6245 38.8062 35.6245C45.515 40.0019 50.844 40.9535 60.7407 34.2447C67.0213 30.01 64.452 41.0011 79.8204 33.0552C85.4348 30.1528 85.1969 32.1036 90.9066 24.1577C93.2856 20.8746 97.8057 26.6794 92.667 27.4883C90.6211 27.8213 87.1477 30.0576 85.6727 33.5785C83.5316 38.8599 84.4357 42.7615 80.8196 45.0454ZM38.0925 31.6278C36.1893 30.7713 34.191 27.5359 33.4297 26.2512C35.5708 24.1577 34.7143 20.6843 33.4772 18.7811C32.2877 16.8779 30.8128 17.4013 29.2426 15.6408C27.6249 13.8803 29.8612 9.31263 31.9071 12.8336C39.5675 26.0133 44.611 20.5416 50.844 19.7327C56.8391 18.9714 62.1681 22.2544 63.7859 12.9763C64.0713 11.4537 65.5463 11.1207 65.6891 13.5949C65.8318 16.1166 66.7834 22.2069 70.0664 22.9682C73.3495 23.777 76.014 22.2069 76.7752 21.3504C77.5365 20.494 77.9647 20.5891 78.2978 22.7778C78.6309 24.9189 79.4873 27.9165 84.1026 24.5859C93.5711 17.8295 90.859 15.2126 94.5702 13.4521C96.6638 12.4529 99.9944 15.6884 95.1888 18.115C88.3372 21.5883 87.6235 25.8705 83.2937 28.5826C76.014 33.1503 78.2502 28.7729 66.5455 27.1076C62.0254 26.4891 60.598 31.485 57.077 30.0576C49.036 26.727 43.3739 27.3931 38.0925 31.6278ZM63.4528 7.2191C63.7383 9.21747 64.0713 9.16989 64.785 9.31263C65.4987 9.50295 66.4028 8.36103 66.4028 7.31426C66.4503 6.21992 65.927 5.5538 64.8802 5.60138C63.7858 5.64896 63.4052 6.17234 63.4528 7.2191ZM98.6621 10.7876C99.5186 11.5965 101.802 11.0731 102.326 10.4546C103.706 8.93199 103.753 8.02797 103.04 6.9812C102.326 5.98202 100.851 6.12476 99.3758 7.2191C97.9009 8.31345 98.1863 10.3594 98.6621 10.7876ZM98.0436 20.8746C97.3299 21.8262 97.2823 22.5399 97.8057 23.0633C98.3767 23.6343 99.5186 24.1101 100.327 23.4915C101.136 22.8254 101.136 21.8738 100.47 21.0649C99.7565 20.2085 98.8049 20.2085 98.0436 20.8746ZM25.8168 8.97957C26.9112 9.31263 27.4346 10.3594 28.3386 9.16989C28.8144 8.59893 28.862 7.79007 28.2434 6.93362C27.8628 6.41024 26.0547 6.0296 25.2935 6.79088C24.5322 7.55216 25.2459 8.78925 25.8168 8.97957ZM3.50171 8.31345C5.50008 9.55053 6.78475 11.4062 8.30731 9.74085C8.8307 9.16989 9.44924 8.17071 8.3549 6.17234C7.54603 4.69735 4.92912 4.12639 4.0251 4.69735C3.07349 5.22073 1.93157 7.36184 3.50171 8.31345ZM21.9153 17.7819C22.5338 18.448 23.6281 18.4005 24.2943 18.0198C24.9128 17.6392 24.8176 16.64 24.1991 15.7835C23.8185 15.2602 22.6765 14.9747 21.9153 15.7835C21.154 16.5924 21.487 17.3061 21.9153 17.7819Z" fill="#41BF47"/>
</svg>
