<svg  viewBox="95 25 150 32" fill="none" xmlns="http://www.w3.org/2000/svg"><defs>
<clipPath id="clip0_0_1696">
<rect width="50" height="50" fill="white" transform="translate(20 16)"/>
</clipPath>
<clipPath id="clip1_0_1696">
<rect width="100" height="35.2863" fill="white" transform="translate(91 23)"/>
</clipPath>
</defs><g clip-path="url(#clip0_0_1696)">
<path d="M30.8316 16H59.1683C65.1466 16 70 20.8535 70 26.8316V55.1683C70 61.1466 65.1466 66 59.1683 66H30.8316C24.8535 66 20 61.1466 20 55.1683V26.8316C20 20.8535 24.8535 16 30.8316 16Z" fill="#FFD02F"/>
<path d="M54.744 22.2444H49.2542L53.8267 30.2793L43.7644 22.2444H38.2747L43.3057 32.0698L32.7849 22.2444H27.2951L32.7849 34.7481L27.2951 59.7555H32.7849L43.3057 32.9576L38.2747 59.7555H43.7644L53.8267 31.182L49.2542 59.7555H54.744L64.8063 28.4888L54.744 22.2444Z" fill="#050038"/>
</g><g clip-path="url(#clip1_0_1696)">
<path fill-rule="evenodd" clip-rule="evenodd" d="M139.694 58.1797L134.168 56.8615V34.6111L139.694 33.5592V58.1797ZM178.35 52.9334C174.342 52.9467 171.093 49.711 171.066 45.703C171.066 45.6897 171.066 45.6764 171.066 45.6631C171.066 41.7216 174.302 38.486 178.336 38.486C182.371 38.486 185.607 41.7216 185.607 45.6631C185.62 49.671 182.371 52.9201 178.376 52.9334C178.376 52.9334 178.363 52.9334 178.35 52.9334ZM190.879 45.6631C190.879 52.5872 185.274 58.193 178.35 58.193C171.425 58.193 165.82 52.5872 165.82 45.6631C165.82 38.8322 171.439 33.2263 178.363 33.2263C185.287 33.2263 190.879 38.8322 190.879 45.6631ZM119.788 56.8748L125.22 58.0066V43.0266C125.22 35.8362 119.614 33.3062 115.753 33.3062C113.21 33.3062 111.106 33.9187 109.268 35.7563C107.338 33.9187 105.061 33.213 103.223 33.213C100.507 33.213 98.2297 34.3448 96.6451 36.2756V33.7323L91.1191 34.7842V56.8615L96.6451 57.9933V42.8535C96.6451 40.4034 98.4028 38.739 101.106 38.739C103.649 38.739 105.487 40.4034 105.487 42.8535V56.8748L110.919 58.0066V42.8535C110.919 40.4034 112.757 38.739 115.393 38.739C117.937 38.739 119.774 40.4034 119.774 42.8535L119.788 56.8748ZM161.692 33.2263L158.443 33.6657C152.397 35.0639 148.456 36.9946 148.456 43.6524V56.8748L153.982 57.9267V44.438C153.982 41.3754 155.74 39.964 158.456 39.4447L161.705 38.9254L161.692 33.2263ZM134.435 24.1051C133.116 25.45 133.116 27.5805 134.435 28.9254C135.78 30.3102 138.003 30.3235 139.375 28.9786C139.388 28.9653 139.415 28.9387 139.428 28.9254C140.746 27.5938 140.746 25.4367 139.428 24.1051C138.017 22.7869 135.833 22.7869 134.435 24.1051Z" fill="#050038"/>
</g></svg>