<svg width="48" height="48" viewBox="0 0 48 48" fill="none" xmlns="http://www.w3.org/2000/svg">
<path d="M40.4763 19.6525C40.4763 10.4556 33.0985 3.00002 23.9976 3.00002C15.8862 2.98846 8.97371 8.94574 7.70442 17.0417C6.43512 25.1376 11.1868 32.9624 18.9045 35.4852V43.8289C18.9045 44.4757 19.4233 45 20.0633 45H27.8855C28.5255 45 29.0443 44.4757 29.0443 43.8289V35.491C35.8511 33.2761 40.4685 26.8789 40.4763 19.6525ZM23.9976 25.2794C20.9207 25.2794 18.4265 22.7588 18.4265 19.6495C18.4265 16.5402 20.9207 14.0197 23.9976 14.0197C27.0744 14.0197 29.5687 16.5402 29.5687 19.6495C29.5687 22.7588 27.0744 25.2794 23.9976 25.2794Z" fill="#2684FF"/>
<path fill-rule="evenodd" clip-rule="evenodd" d="M23.9976 3.00002V14.0255C27.0744 14.0255 29.5687 16.5461 29.5687 19.6554C29.5687 22.7647 27.0744 25.2853 23.9976 25.2853C25.3483 25.2853 26.6438 25.8275 27.5989 26.7927C28.5541 27.7579 29.0906 29.067 29.0906 30.4321V35.4969C36.8112 32.9737 41.565 25.1464 40.2957 17.0475C39.0264 8.94869 32.1118 2.98893 23.9976 3.00002Z" fill="url(#paint0_linear_0_5809)"/>
<defs>
<linearGradient id="paint0_linear_0_5809" x1="32.2369" y1="32.4814" x2="32.2369" y2="14.7926" gradientUnits="userSpaceOnUse">
<stop offset="0.18" stop-color="#0052CC"/>
<stop offset="1" stop-color="#2684FF"/>
</linearGradient>
</defs>
</svg>
