<svg width="250" height="82" viewBox="0 0 250 82" fill="none" xmlns="http://www.w3.org/2000/svg">
<path d="M239.042 0V0.5H244C247.038 0.5 249.5 2.96243 249.5 6V10.667H250V15.333H249.5V24.667H250V29.333H249.5V38.667H250V43.333H249.5V52.667H250V57.333H249.5V66.667H250V71.333H249.5V76C249.5 79.0376 247.038 81.5 244 81.5H239.042V82H234.083V81.5H224.167V82H219.208V81.5H209.292V82H204.333V81.5H194.417V82H189.458V81.5H179.542V82H174.583V81.5H164.667V82H159.708V81.5H149.792V82H144.833V81.5H134.917V82H129.958V81.5H120.042V82H115.083V81.5H105.167V82H100.208V81.5H90.292V82H85.333V81.5H75.417V82H70.458V81.5H60.542V82H55.583V81.5H45.667V82H40.708V81.5H30.792V82H25.833V81.5H15.917V82H10.958V81.5H6C2.96243 81.5 0.5 79.0376 0.5 76V71.333H0V66.667H0.5V57.333H0V52.667H0.5V43.333H0V38.667H0.5V29.333H0V24.667H0.5V15.333H0V10.667H0.5V6C0.5 2.96243 2.96243 0.5 6 0.5H10.958V0H15.917V0.5H25.833V0H30.792V0.5H40.708V0H45.667V0.5H55.583V0H60.542V0.5H70.458V0H75.417V0.5H85.333V0H90.292V0.5H100.208V0H105.167V0.5H115.083V0H120.042V0.5H129.958V0H134.917V0.5H144.833V0H149.792V0.5H159.708V0H164.667V0.5H174.583V0H179.542V0.5H189.458V0H194.417V0.5H204.333V0H209.292V0.5H219.208V0H224.167V0.5H234.083V0H239.042Z" stroke="#722ED1" stroke-dasharray="10 5"/>
<path d="M34.5349 18L20 27.4186L30.1163 35.5581L44.6512 26.4884L34.5349 18ZM20 43.4651L34.5349 53L44.6512 44.5116L30.1163 35.5581L20 43.4651ZM44.6512 44.5116L54.8837 53L69.3023 43.5814L59.3023 35.5581L44.6512 44.5116ZM69.3023 27.4186L54.8837 18L44.6512 26.4884L59.3023 35.5581L69.3023 27.4186ZM44.7674 46.3721L34.5349 54.8605L30.2326 51.9535V55.2093L44.7674 63.9302L59.3023 55.2093V51.9535L54.8837 54.8605L44.7674 46.3721Z" fill="#0056FE"/>
<path fill-rule="evenodd" clip-rule="evenodd" d="M188.314 45.6531L192.003 40.6908L188.601 36.0022H191.514L193.485 38.9276L195.472 36.0022H198.369L194.917 40.674L198.554 45.6531H195.692L193.451 42.5044L191.279 45.6531H188.314Z" fill="black"/>
<path fill-rule="evenodd" clip-rule="evenodd" d="M179.041 41.0204C179.041 44.2056 180.781 45.8989 183.863 45.8989C186.747 45.8989 188.702 44.2056 188.702 41.0204V40.7522C188.702 37.5334 186.713 35.7563 183.863 35.7563C181.079 35.7563 179.041 37.4999 179.041 40.7522V41.0204ZM186.19 41.0211C186.19 42.7881 185.309 43.7474 183.863 43.7474C182.434 43.7474 181.553 42.7713 181.553 41.0211V40.7855C181.553 38.9007 182.483 37.9078 183.879 37.9078C185.292 37.9078 186.19 38.9681 186.19 40.7855V41.0211Z" fill="black"/>
<path fill-rule="evenodd" clip-rule="evenodd" d="M170.615 43.8881C171.137 45.1282 172.183 45.899 173.785 45.899C176.263 45.899 177.882 44.0891 177.882 40.8717V40.5869C177.882 37.3694 176.162 35.7775 173.852 35.7607C172.318 35.7607 171.239 36.4478 170.699 37.7046V32.7444H168.221V45.6476H170.413L170.615 43.8881ZM175.369 40.8948C175.369 42.8078 174.486 43.7475 173.034 43.7475C171.65 43.7475 170.733 42.7071 170.733 40.8948V40.6934C170.733 39.0322 171.683 37.9079 173.068 37.9079C174.402 37.9079 175.369 38.8811 175.369 40.6599V40.8948Z" fill="black"/>
<path fill-rule="evenodd" clip-rule="evenodd" d="M157.207 36.0136V48.9724H159.681V44.1194C160.203 45.2468 161.23 45.9367 162.778 45.9367C165.067 45.9367 166.868 44.2708 166.868 41.0737V40.8045C166.868 37.54 165.252 35.7563 162.778 35.7563C161.179 35.7563 160.102 36.5809 159.58 37.8261L159.328 36.0136H157.207ZM164.356 41.0122C164.356 42.791 163.438 43.7474 162.004 43.7474C160.62 43.7474 159.719 42.6735 159.719 40.9619V40.7772C159.719 38.9817 160.653 37.9078 162.054 37.9078C163.372 37.9078 164.356 38.8643 164.356 40.794V41.0122Z" fill="black"/>
<path fill-rule="evenodd" clip-rule="evenodd" d="M146.195 41.0204C146.195 44.2056 147.952 45.8989 151.034 45.8989C153.917 45.8989 155.856 44.2056 155.856 41.0204V40.7522C155.856 37.5334 153.884 35.7563 151.034 35.7563C148.25 35.7563 146.195 37.4999 146.195 40.7522V41.0204ZM153.344 41.0211C153.344 42.7881 152.447 43.7474 151.017 43.7474C149.588 43.7474 148.707 42.7713 148.707 41.0211V40.7855C148.707 38.9007 149.638 37.9078 151.034 37.9078C152.447 37.9078 153.344 38.9681 153.344 40.7855V41.0211Z" fill="black"/>
<path fill-rule="evenodd" clip-rule="evenodd" d="M139.432 45.6531H141.966V41.2196C141.966 39.1709 142.472 38.4488 144.567 38.4488H145.614V35.8794H144.989C143.182 35.8794 142.185 36.6687 141.797 38.2137L141.476 36.0018H139.432V45.6531Z" fill="black"/>
<path fill-rule="evenodd" clip-rule="evenodd" d="M128.227 33.7278V45.653H132.827C135.824 45.653 138.081 43.9121 138.081 40.0624V39.2421C138.081 35.4091 135.69 33.7278 132.76 33.7278H128.227ZM130.738 35.8792H132.655C134.386 35.8792 135.569 36.9729 135.569 39.3791V40.0017C135.569 42.4078 134.42 43.5015 132.741 43.5015H130.738V35.8792Z" fill="black"/>
<path d="M104.878 31.2446L99.3653 34.7507L104.878 38.2569L110.393 34.7507L115.906 38.2569L121.419 34.7507L115.906 31.2446L110.393 34.7507L104.878 31.2446Z" fill="#0056FE"/>
<path d="M104.878 45.2692L99.3653 41.763L104.878 38.2568L110.393 41.763L104.878 45.2692Z" fill="#0056FE"/>
<path d="M110.393 41.763L115.906 38.2568L121.419 41.763L115.906 45.2692L110.393 41.763Z" fill="#0056FE"/>
<path d="M110.393 49.9439L104.879 46.4377L110.393 42.9316L115.906 46.4377L110.393 49.9439Z" fill="#0056FE"/>
</svg>
