<svg width="184" height="65" viewBox="0 0 184 65" fill="none" xmlns="http://www.w3.org/2000/svg">
<path d="M16.5491 40.9404H4.60914V46.9105H16.5491V40.9404Z" fill="#3D515B"/>
<path d="M34.4508 40.9404H22.5185V46.9105H34.4508V40.9404Z" fill="#3D515B"/>
<path d="M34.4546 29.0005H4.6001V34.9706H34.4546V29.0005Z" fill="#3D515B"/>
<path d="M22.5207 17.0613H4.60914V23.0311H22.5207V17.0613Z" fill="#3D515B"/>
<path d="M34.4584 17.0613H28.4886V23.0311H34.4584V17.0613Z" fill="#3D515B"/>
<path d="M121.126 17.0275C111.538 17.0275 106.586 23.8077 106.586 32.1717C106.586 40.536 111.416 47.317 121.126 47.317C130.836 47.317 135.666 40.536 135.666 32.1717C135.666 23.8077 130.713 17.0275 121.126 17.0275ZM128.38 32.1988C128.373 37.5773 126.56 41.9336 121.126 41.9336C115.691 41.9336 113.879 37.5776 113.873 32.1988V32.172C113.879 26.7939 115.692 22.438 121.126 22.438C126.56 22.438 128.373 26.7939 128.38 32.172V32.1856C128.38 32.1901 128.38 32.1943 128.38 32.1988Z" fill="#404041"/>
<path d="M78.1948 46.9106V5.03896C78.1948 5.03896 83.7175 4.25446 84.1457 4.19684C84.6308 4.13131 85.2748 4.47667 85.2748 5.15948V20.6814C86.4209 19.5919 87.6829 18.7136 89.0584 18.0443C90.4349 17.3758 92.0491 17.041 93.9035 17.041C95.5091 17.041 96.9316 17.3133 98.1736 17.8583C99.4165 18.4021 100.453 19.1674 101.285 20.1508C102.116 21.1356 102.747 22.3107 103.177 23.677C103.606 25.0434 103.821 26.5484 103.821 28.1919V46.9102H96.741V28.1919C96.741 26.3958 96.3252 25.0054 95.494 24.0205C94.6624 23.0368 93.4154 22.5445 91.7523 22.5445C90.5294 22.5445 89.3834 22.8217 88.3138 23.3765C87.2431 23.9309 86.2303 24.6849 85.2748 25.6411V46.9106H78.1948Z" fill="#404041"/>
<path d="M172.719 47.314C167.846 47.314 164.793 44.4784 164.793 39.1884V23.5106H159.302C159.302 23.5106 160.469 19.474 160.561 19.1561C160.654 18.8386 160.895 18.4974 161.38 18.43C161.865 18.3626 164.786 17.9551 164.786 17.9551L166.136 9.37045C166.136 9.37045 170.1 8.81154 170.729 8.71777C171.322 8.62888 171.86 9.05635 171.86 9.703V17.9551H178.805V23.5106H171.86V38.9772C171.86 41.0889 173.146 41.8959 174.379 41.8959C175.132 41.8959 176.163 41.496 176.933 41.1389C177.409 40.919 178.146 41.0821 178.336 41.7461C178.505 42.3343 179.4 45.4569 179.4 45.4569C178.628 45.9555 176.186 47.314 172.719 47.314Z" fill="#404041"/>
<path d="M155.411 23.6032C154.031 23.155 151.437 22.4376 148.97 22.4376C146.456 22.4376 144.478 23.3061 144.478 25.3963C144.478 28.007 148.741 28.767 151.659 29.8314C153.61 30.5428 158.842 31.9299 158.842 37.5565C158.842 44.3914 153.166 47.3136 147.111 47.3136C141.055 47.3136 137.478 45.0614 137.478 45.0614C137.478 45.0614 138.417 41.7434 138.607 41.0885C138.779 40.4991 139.464 40.2923 139.901 40.4599C141.459 41.0606 144.273 41.8956 147.454 41.8956C150.675 41.8956 152.233 40.9122 152.233 38.816C152.233 36.026 147.884 35.1733 145.008 34.266C143.026 33.6416 137.782 32.1852 137.782 25.997C137.782 19.9011 143.135 17.041 148.856 17.041C153.698 17.041 156.073 18.0538 157.848 18.9576C157.848 18.9576 156.859 22.4033 156.712 22.9166C156.539 23.5268 156.038 23.8066 155.411 23.6032Z" fill="#404041"/>
<path d="M75.4308 18.0504C75.4308 17.3909 74.8674 17.0135 74.3299 17.0749C71.9539 17.3472 70.2587 18.4654 69.162 19.5064C67.0085 17.8191 64.0193 17.0135 60.6644 17.0135C53.938 17.0135 48.6826 20.26 48.6826 27.3389C48.6826 31.4026 50.4124 34.2028 53.1595 35.8512C51.1193 36.8169 49.7605 38.8661 49.7605 40.8806C49.7605 44.2506 52.4228 45.3058 52.4228 45.3058C52.4228 45.3058 47.7678 47.5652 47.7678 52.0854C47.7678 57.8717 53.0928 60.2113 59.5997 60.2113C68.979 60.2113 75.4319 56.3374 75.4319 49.2242C75.4319 44.8464 72.0819 42.4296 64.7815 42.1423C60.4493 41.9713 57.6431 41.8153 56.9479 41.5852C56.0293 41.2802 55.5778 40.5446 55.5778 39.7326C55.5778 38.8363 56.314 37.9829 57.4748 37.3969C58.4871 37.5761 59.5556 37.6646 60.6651 37.6646C67.3972 37.6646 72.6472 34.4276 72.6472 27.3393C72.6472 25.6204 72.3369 24.1282 71.7727 22.8534C72.7617 22.3257 73.9786 21.9544 75.4316 21.9544C75.4308 21.9544 75.4308 18.6518 75.4308 18.0504ZM56.894 46.9471C56.894 46.9471 60.4263 47.0808 63.956 47.2443C67.9214 47.4277 69.1571 48.2823 69.1571 50.3356C69.1571 52.8442 65.711 55.2843 60.8952 55.2843C56.3238 55.2843 54.0404 53.6939 54.0404 51.0459C54.0404 49.5266 54.8426 47.8269 56.894 46.9471ZM60.6772 32.7234C57.4906 32.7234 55.0045 31.0309 55.0045 27.3389C55.0045 23.6465 57.4929 21.954 60.6772 21.954C63.8618 21.954 66.3498 23.642 66.3498 27.3389C66.3498 31.0358 63.8649 32.7234 60.6772 32.7234Z" fill="#404041"/>
</svg>
