<svg width="243" height="49" viewBox="0 0 243 49" fill="none" xmlns="http://www.w3.org/2000/svg">
<path d="M144.669 10.1681C150.777 10.1681 156.118 13.0379 158.04 18.4146L151.538 20.2995C149.94 17.1799 147.309 16.36 144.669 16.36C140.21 16.36 136.818 19.8895 136.818 24.5217C136.818 29.1538 140.29 32.7257 144.871 32.7257C148.47 32.7257 151.087 30.8408 152.111 27.8061H143.725V22.0619H158.815C158.922 22.8917 158.977 23.7274 158.98 24.5641C158.98 32.8906 153.05 38.8799 144.791 38.8799C136.532 38.8799 130.029 32.5891 130.029 24.5217C130.029 16.4543 136.447 10.1681 144.669 10.1681ZM102.371 16.9302C107.459 16.9302 110.828 19.2581 111.65 22.8111L105.707 23.9939C105.505 22.7263 104.297 21.5859 102.286 21.5859C100.539 21.5859 99.66 22.321 99.5002 23.1787C99.3922 23.7394 99.66 24.2059 101.516 24.5923C102 24.697 102.876 24.877 103.748 25.0544L103.997 25.1049C105.197 25.3483 106.317 25.5725 106.317 25.5725C110.184 26.3877 111.955 28.7156 111.955 31.7361C111.955 36.2693 108.046 38.6396 102.672 38.6396C97.8699 38.6396 93.7449 36.8819 93.0637 32.6786L99.4392 31.3827C99.721 33.1404 101.318 33.7954 103.061 33.7954C104.805 33.7954 106.139 33.0556 106.176 32.1602C106.237 30.8031 105.176 29.9973 103.672 29.7052C102.634 29.5072 99.519 28.8899 99.519 28.8899C95.7323 28.1972 93.5758 27.0993 93.5758 23.8714C93.5758 19.668 97.1981 16.9302 102.371 16.9302ZM170.269 16.5815C176.039 16.5909 179.675 19.5031 179.675 24.7526V37.7961H173.38V36.2788C171.667 37.7246 169.481 38.4848 167.244 38.4134C162.668 38.4134 159.6 35.7463 159.6 31.6843C159.6 27.6223 162.668 25.0494 168.132 25.0494H173.366V24.6395C173.408 23.8602 173.118 23.0996 172.567 22.5482C172.017 21.9967 171.258 21.7068 170.481 21.7508C168.517 21.7508 167.371 22.5284 167.046 24.3332L160.873 23.0609C161.77 19.0837 165.369 16.5815 170.269 16.5815ZM122.996 10.3142V17.2082H129.047V22.3917H123.029V29.5544C123.029 31.6843 124.048 32.5467 125.768 32.5467C126.812 32.51 127.834 32.2292 128.751 31.7267L130.241 36.8961C128.54 37.8878 126.608 38.4113 124.64 38.4134C119.529 38.4134 116.451 35.6238 116.451 30.2329V22.4153H112.74V17.2318H116.451V11.7279L122.996 10.3142ZM190.927 10.3142V17.2082H196.979V22.3917H190.918V29.5544C190.918 31.6843 191.942 32.5467 193.657 32.5467C194.703 32.5105 195.726 32.2298 196.645 31.7267L198.158 36.8961C196.458 37.8862 194.528 38.4095 192.562 38.4134C187.451 38.4134 184.388 35.6238 184.388 30.2094V22.4153H180.667V17.2318H184.388V11.7279L190.927 10.3142ZM81.4403 16.6616C87.5339 16.6757 92.6878 21.0204 92.6878 27.4998C92.6878 34.0216 87.5198 38.371 81.4403 38.371C75.2246 38.371 70.0706 34.0216 70.0706 27.4998C70.0706 20.978 75.2387 16.6616 81.4403 16.6616ZM208.503 16.6616C214.597 16.6757 219.746 21.0204 219.746 27.4998C219.746 34.0216 214.578 38.371 208.503 38.371C202.288 38.371 197.134 34.0216 197.134 27.4998C197.134 20.978 202.302 16.6616 208.503 16.6616ZM50.1596 10.3142V21.0204H61.6937V10.3142H68.3981V37.7961H61.6937V26.9343H50.1596V37.7961H43.413V10.3142H50.1596ZM234.997 16.9019C235.495 16.8955 235.991 16.9573 236.472 17.0857L236.185 23.6358H234.997C230.421 23.6358 227.926 25.9919 227.926 31.3497V37.7961H221.381V18.6219L227.926 17.2082V21.143C229.396 18.6832 231.647 16.9019 234.997 16.9019ZM173.38 29.2057H168.879C167.244 29.2057 166.224 30.068 166.224 31.3403C166.224 32.6126 167.366 33.4703 169.085 33.4703C171.336 33.4891 173.38 31.9718 173.38 29.6769V29.2057ZM81.4356 22.1702C80.0536 22.1858 78.7364 22.7605 77.7829 23.7639C76.8293 24.7674 76.3202 26.1145 76.3709 27.4998C76.3709 30.7419 78.7811 32.8341 81.4403 32.8341C83.9773 32.8341 86.3828 30.7419 86.3828 27.4998C86.3828 24.3002 83.9726 22.1702 81.4356 22.1702ZM208.503 22.1702C207.12 22.1833 205.8 22.7569 204.845 23.7606C203.889 24.7643 203.379 26.1129 203.429 27.4998C203.429 30.7419 205.844 32.8341 208.503 32.8341C211.036 32.8341 213.451 30.7419 213.451 27.4998C213.451 24.3002 211.036 22.1702 208.503 22.1702Z" fill="#1F2044"/>
<path d="M28.7498 33.7201C27.6035 34.8322 26.4618 36.359 25.306 37.4616C25.8557 40.3597 24.7798 41.632 26.0765 42.6734C26.5464 43.0457 29.3653 43.842 30.9862 42.9184C31.0191 41.4152 30.2016 40.9676 29.3277 40.4068C28.4397 38.5219 28.7592 35.6003 28.7404 33.7201" fill="#2E93EE"/>
<path d="M29.4076 43.3428C29.2193 42.4818 28.6119 41.7735 27.7914 41.4579C28.4424 41.857 28.827 42.5781 28.7968 43.3428C29.0035 43.3522 29.2055 43.3522 29.4076 43.3428Z" fill="#2E578B"/>
<path d="M30.7747 43.0318C30.5915 42.1713 29.9869 41.4622 29.168 41.1469C30.0042 41.7924 30.272 42.4851 30.1546 43.2391C30.3674 43.1899 30.5751 43.1205 30.7747 43.0318Z" fill="#2E578B"/>
<path d="M27.4108 18.7168C26.8188 19.5791 26.5557 21.3886 31.2633 24.0416C31.2633 24.0416 29.2854 27.4674 28.6605 28.0942C28.0357 28.7209 27.6551 30.389 28.2659 31.2278C28.582 31.669 28.9443 32.075 29.3465 32.4389C29.3465 32.4389 30.9063 32.731 31.5734 32.3541C32.3987 31.4388 32.5848 30.1117 32.0432 29.0036C32.0432 29.0036 36.0132 24.838 35.7595 23.5845C35.5058 22.3311 29.2854 15.9836 27.4108 18.7168Z" fill="#2E93EE"/>
<path d="M32.0197 29.0032C32.0197 29.0032 30.413 30.332 30.0089 30.5582C30.3363 30.4589 30.6515 30.3229 30.9486 30.153C30.9486 30.153 31.6627 31.0294 31.1412 31.7693C31.1412 31.7693 32.0808 31.2179 31.456 29.9503C31.6725 29.6766 31.8703 29.3885 32.0479 29.088L32.0197 29.0032Z" fill="#2E578B"/>
<path d="M15.4727 28.2303C15.4613 28.5387 15.3671 28.8382 15.2002 29.0974C14.9277 29.5262 14.7727 29.4791 15.4492 29.8466C15.953 30.1026 16.4962 30.2714 17.056 30.3461C17.9956 30.5016 17.7842 30.398 17.3661 29.5026C17.1822 29.0995 16.9637 28.7132 16.713 28.3481C15.7734 27.0523 15.5103 27.1418 15.4727 28.2209" fill="#2E93EE"/>
<path d="M12.0994 27.7827C11.7517 28.4282 12.2826 28.5319 12.9638 28.7722C13.2192 28.8614 13.4841 28.9199 13.7531 28.9466C14.519 29.0314 14.3216 28.9183 13.9834 28.2963C13.7796 27.9127 13.5537 27.5414 13.3068 27.1842C11.9584 25.2427 12.6021 26.8402 12.0994 27.7827Z" fill="#2E93EE"/>
<path d="M9.18648 27.4952C9.19789 27.6426 9.19789 27.7907 9.18648 27.9382C9.1395 28.4754 9.07842 28.3858 9.74087 28.4471C10.0359 28.4804 10.3338 28.4804 10.6288 28.4471C11.4745 28.3199 11.1644 28.023 10.7228 27.5282C10.5719 27.3558 10.4052 27.198 10.2248 27.057C8.55222 25.7658 9.18178 26.6753 9.20527 27.4999" fill="#2E93EE"/>
<path d="M20.3917 8.55688C20.3917 8.55688 15.5948 11.0355 15.6371 11.8225C15.6794 12.6094 16.9902 12.5011 17.5164 13.5566C17.5164 13.5566 14.58 15.5923 14.7679 16.5253C14.9559 17.4584 16.8492 17.1191 17.3191 17.8589C17.3191 17.8589 16.8492 19.7155 17.2768 20.3941C17.7043 21.0727 17.6385 20.4883 18.2164 21.3366C18.2587 21.3554 17.9204 14.4284 20.3917 8.55688Z" fill="#2E93EE"/>
<path d="M19.3863 10.8093C21.0777 12.4209 23.2106 13.434 25.1557 14.6828C26.4945 15.4856 27.6747 16.5287 28.6371 17.7599C29.8022 19.3244 29.1069 21.1669 29.3982 23.0848C29.4875 23.7351 29.5297 24.3948 29.5579 25.0545C29.6081 26.2539 29.5735 27.4554 29.4546 28.65C29.1586 31.5056 29.0129 33.8335 27.0021 35.9728C24.4933 38.6494 21.7307 39.2714 18.597 36.9435C17.4925 36.2195 16.4865 35.3547 15.6042 34.3706C14.9606 33.6167 14.1619 33.136 13.4712 32.4339C12.5943 31.5015 11.5483 30.745 10.3892 30.205C9.17708 29.7338 8.3408 30.3746 7.74412 30.648C7.43874 30.7893 7.0159 31.0626 6.67293 30.7893C6.5408 30.69 6.49247 30.5136 6.55547 30.3605C6.73428 29.9311 7.0054 29.5465 7.34947 29.2343C9.19587 27.5379 12.1792 27.5002 14.3968 28.6924C15.2378 29.1636 16.1539 29.6584 17.1265 29.7196C17.8124 29.7997 18.502 29.6031 19.0433 29.173C19.4633 28.7862 19.7399 28.2678 19.8279 27.7028C19.9846 26.9168 19.9278 26.1031 19.6635 25.3467C19.3017 24.2534 18.6534 23.2638 18.2305 22.1847C16.8211 18.5139 16.3512 14.3294 18.6393 10.8988L18.9588 10.4276L19.3863 10.8093Z" fill="#2E93EE"/>
<path d="M10.7838 30.3652C12.4 31.1757 14.1195 32.9899 15.7686 34.9455C17.9251 37.5137 23.2858 41.2977 27.7538 35.3508C31.9399 29.7526 29.9713 21.9067 29.727 21.0161L29.6988 20.9218C29.5579 20.7427 25.8275 15.9645 22.4072 15.2671C21.4957 16.0588 21.3172 17.4583 22.5293 19.871C24.5731 23.9282 26.208 29.8421 22.5763 33.4753C22.0356 34.03 21.3726 34.4496 20.6407 34.7005C18.0613 35.5534 16.6942 33.9842 15.078 32.4669C13.9016 31.3322 12.3995 30.597 10.7838 30.3652Z" fill="#FFCF00"/>
<path d="M28.2565 34.6346C26.6839 34.4556 25.1913 33.844 23.9435 32.8675C24.8349 34.1712 26.2049 35.0676 27.7538 35.3602C27.9323 35.1246 28.125 34.8796 28.2565 34.6346Z" fill="#ECA93F"/>
<path d="M20.9931 34.9974C21.6066 36.302 22.4946 37.4579 23.5959 38.3855C23.9477 38.3026 24.2907 38.1859 24.6201 38.0368C23.1429 37.3978 21.8827 36.3418 20.9931 34.9974Z" fill="#ECA93F"/>
<path d="M15.5056 34.644L15.7687 34.955L15.8908 35.1011C15.8071 34.7182 15.8482 34.3184 16.0083 33.9607C15.8251 34.1765 15.6571 34.4048 15.5056 34.644Z" fill="#ECA93F"/>
<path d="M17.3191 36.4582C17.507 36.609 17.6996 36.7598 17.9016 36.9294C17.7654 36.2791 17.7043 35.6006 17.9251 35.2236C17.6782 35.6114 17.4749 36.0254 17.3191 36.4582Z" fill="#ECA93F"/>
<path d="M13.7766 32.7638L14.1948 33.1926C14.1879 32.8898 14.2194 32.5874 14.2887 32.2926C14.1063 32.4363 13.9351 32.5938 13.7766 32.7638Z" fill="#ECA93F"/>
<path d="M25.0993 29.7621C26.7339 29.2674 28.4777 29.2674 30.1123 29.7621C30.1546 29.5265 30.1922 29.2908 30.2251 29.0647C26.941 28.2824 25.0993 29.7621 25.0993 29.7621Z" fill="#ECA93F"/>
<path d="M30.3237 24.6069C30.3002 24.3241 30.272 24.0555 30.2438 23.7963C26.7625 23.7115 24.9678 25.4079 24.9678 25.4079C26.6187 24.5637 28.499 24.2824 30.3237 24.6069Z" fill="#ECA93F"/>
<path d="M28.9518 20.036C28.8156 19.8804 28.6652 19.7108 28.482 19.5317C24.7845 19.5317 23.7838 21.2564 23.7838 21.2564C25.3231 20.2842 27.1418 19.8547 28.9518 20.036Z" fill="#ECA93F"/>
<path d="M30.2767 24.074C30.1857 23.2363 30.0492 22.4041 29.868 21.5812L29.6002 21.4163C28.4209 20.6435 23.2247 17.5098 21.7025 16.5674C21.6762 16.7991 21.6762 17.0331 21.7025 17.2648C23.2999 19.5078 26.8846 23.3059 30.2767 24.074Z" fill="#ECA93F"/>
<path d="M18.4936 33.141C18.9711 32.4369 19.7901 32.046 20.636 32.1184C23.0133 32.4294 22.2616 35.2521 21.6931 36.9108C21.2982 38.1033 21.0705 39.3451 21.0166 40.6005C21.0166 42.2404 21.6414 42.7352 20.8803 43.376C19.6688 44.2273 18.2029 44.6365 16.7271 44.5353C15.4069 44.2337 15.374 41.51 17.4788 40.8173C18.0614 39.545 18.0379 38.2444 17.9909 36.8873C17.958 35.9448 17.8782 34.0599 18.4936 33.1174" fill="#2E93EE"/>
<path d="M17.9816 44.521C18.1695 44.4928 18.3575 44.4598 18.5407 44.4174C18.3755 43.6166 18.6226 42.7862 19.1984 42.2073C18.334 42.7021 18.0521 43.5456 17.9816 44.521Z" fill="#2E578B"/>
<path d="M16.7084 44.5399C16.5121 43.6653 16.7482 42.7495 17.3426 42.0801C16.6118 42.5335 16.1619 43.3293 16.1493 44.1912C16.2939 44.3641 16.4898 44.4863 16.7084 44.5399Z" fill="#2E578B"/>
<path d="M17.9299 29.6913C17.9299 29.6913 17.6574 31.2699 18.7286 31.7977C19.6307 32.2689 20.7394 32.2689 21.2938 31.595C22.0596 30.6526 23.1731 28.7677 20.124 26.9158C18.2447 25.7707 18.1272 29.6583 18.1272 29.6583L17.9299 29.6913Z" fill="#2E578B"/>
<path d="M18.193 22.1233C18.5923 22.9951 18.9541 23.6689 18.9729 23.7302C18.9917 23.7914 21.4536 20.6436 20.9931 20.1347C20.5327 19.6258 18.5829 21.44 18.193 22.1233Z" fill="#2E578B"/>
<path d="M20.6079 17.609C23.2718 20.1866 17.742 23.5983 17.742 23.5983C18.3433 23.98 19.1045 25.2853 19.6729 26.2372C20.2414 27.189 20.4669 27.0335 21.1623 27.8252C21.8576 28.6169 19.875 29.7996 19.875 29.7996C19.875 29.7996 13.2223 26.1947 13.241 23.8857C13.241 23.5983 14.7868 21.0301 16.3466 19.4374C17.1312 18.6363 19.3347 16.3791 20.6079 17.609Z" fill="#2E93EE"/>
<path d="M18.0238 28.5179C18.0238 28.5179 17.554 30.973 18.9917 31.6893C18.9917 31.6893 20.1803 31.7647 20.7817 31.3311C20.7817 31.3311 22.2804 29.0221 21.1622 27.8252C20.0441 26.6283 18.0238 28.5179 18.0238 28.5179Z" fill="#2E93EE"/>
<path d="M17.9956 28.6921C17.9956 28.6921 19.9172 29.7241 20.2507 29.8184C19.9162 29.8645 19.5756 29.8139 19.2688 29.6723C19.2688 29.6723 18.799 30.6147 19.3487 31.1991C19.3487 31.1991 18.4654 31.0436 18.7802 29.5639L17.9768 28.7345L17.9956 28.6921Z" fill="#2E578B"/>
<path d="M19.7198 10.0694C19.7198 10.0694 20.7206 4.15079 23.1683 4.05183C24.7798 3.98114 25.5926 6.0404 25.5926 6.0404C26.5797 6.04478 27.5448 6.33258 28.374 6.86976C28.374 6.86976 28.8438 6.05454 29.5908 6.31843C30.3378 6.58232 31.1882 8.29758 30.8828 11.1155C31.622 11.2294 32.269 11.6753 32.6399 12.3266C32.442 12.6115 32.1396 12.8063 31.799 12.8685C31.2915 12.9109 29.1022 12.1098 28.5102 12.6329C27.9072 13.0561 27.6017 13.7902 27.7256 14.5178C27.7256 14.5178 25.306 14.2727 24.2301 12.892C23.1542 11.5113 22.2287 8.83478 19.7198 10.0694Z" fill="#2E93EE"/>
<path d="M28.0498 10.4982C28.0498 10.4982 28.6512 8.50965 29.8069 7.95361C29.848 8.91617 29.9531 9.87489 30.1217 10.8234C29.438 10.6746 28.7462 10.566 28.0498 10.4982Z" fill="#F1F1F2"/>
<path d="M22.816 6.42212C22.816 6.42212 24.3053 7.1431 25.3061 10.2391C24.1914 10.0488 23.0634 9.94791 21.9327 9.93747C22.4869 8.8472 22.7889 7.64561 22.816 6.42212Z" fill="#F1F1F2"/>
<path d="M23.4268 7.79797C23.7886 7.79797 24.0845 8.20323 24.0845 8.70744C24.0845 9.21165 23.7886 9.6122 23.4268 9.6122C23.065 9.6122 22.769 9.20694 22.769 8.70744C22.769 8.20794 23.0603 7.79797 23.4268 7.79797Z" fill="#2E578B"/>
<path d="M28.9895 10.2107C29.2761 10.2107 29.5063 9.90436 29.5063 9.52266C29.5063 9.14097 29.2761 8.83467 28.9895 8.83467C28.9344 8.83774 28.8804 8.8505 28.8297 8.87237C28.6718 9.05566 28.552 9.26874 28.4774 9.4991C28.4751 9.51472 28.4751 9.5306 28.4774 9.54623C28.4727 9.90436 28.7029 10.2107 28.9895 10.2107Z" fill="#2E578B"/>
<path d="M22.9569 11.5442C22.9569 11.5442 21.1716 10.1305 20.2648 11.1389C19.1842 12.3547 20.2648 14.2443 20.2648 14.2443C20.2648 14.2443 20.3964 13.4338 20.8004 13.1652C20.8004 13.1652 20.9601 15.724 25.1134 18.5702C29.2666 21.4164 31.0754 21.1054 31.9822 20.8651C32.8889 20.6247 33.8098 19.9744 33.4621 19.244C33.1144 18.5136 30.77 16.5298 30.77 16.5298C30.77 16.5298 29.882 16.6382 28.0732 16.002C26.2644 15.3658 23.8448 14.1171 22.285 11.9495C22.5158 11.8261 22.7401 11.6908 22.9569 11.5442Z" fill="#FF9144"/>
<path d="M21.9139 14.871C24.2398 14.3114 26.6899 14.9732 28.421 16.6287L27.9511 16.3742C27.9511 16.3742 30.0841 16.2706 30.3801 16.5674C31.6458 17.4253 32.4573 18.8108 32.5883 20.3373C32.6494 21.0677 30.9251 21.4823 27.082 19.5644C24.6953 18.3581 21.9139 14.871 21.9139 14.871Z" fill="#FF6B17"/>
<path d="M30.5962 16.5157C30.5962 16.5157 30.0794 18.641 29.2807 18.4006C29.0129 18.3205 29.1209 17.7174 29.0129 17.3027C28.9048 16.888 28.5947 16.0963 28.5947 16.0963L30.5962 16.5157Z" fill="#EBEEF2"/>
<path d="M34.5474 15.7099C34.5474 15.7099 34.3829 17.8917 33.556 17.7881C33.2788 17.7551 33.2882 17.1425 33.1144 16.7514C32.9406 16.3602 32.513 15.6251 32.513 15.6251L34.5474 15.7099Z" fill="#EBEEF2"/>
<path d="M35.4259 13.7968C35.3226 12.2606 33.3023 11.5867 31.8177 12.6658C30.6056 12.3972 29.2619 11.5867 28.0591 12.8025C27.5674 13.2148 27.4149 13.9079 27.688 14.4895C27.688 14.4895 25.1697 14.0842 24.3006 12.7978C23.4314 11.5113 22.2944 9.78662 21.0776 9.6641C20.4292 9.60284 19.3346 9.5086 18.7003 10.7479C18.066 11.9872 17.7606 14.2256 22.4589 17.7692C27.1571 21.3128 29.2149 22.2694 30.2391 22.2647C31.5405 22.2647 31.6204 21.7935 33.1191 21.5673C33.8849 21.4589 34.4675 20.1536 33.6265 19.0227C32.9239 18.1361 32.0715 17.3801 31.1083 16.7891C31.0613 16.8362 32.9312 18.3394 33.2788 19.0698C33.6265 19.8002 32.5976 20.262 31.6956 20.4835C30.7935 20.7049 29.633 20.9547 25.4845 18.1273C21.336 15.3 20.8897 12.4396 20.8897 12.4396C20.3635 12.3595 20.3024 13.5046 20.3024 13.5046C20.3024 13.5046 19.6963 12.1805 20.5091 11.3888C21.491 10.4463 22.5058 11.6103 22.5058 11.6103H22.4448C21.8293 11.3134 21.7447 11.8459 21.7447 11.8459C23.3807 13.9582 25.5423 15.6013 28.0122 16.61C29.821 17.2461 30.77 16.5299 30.77 16.5299C31.629 16.5238 32.4864 16.4545 33.3352 16.3225C33.9836 16.1482 35.5716 15.8749 35.4259 13.7968Z" fill="#FFCF00"/>
<path d="M29.4076 13.6319C29.8304 13.5 30.1546 14.0702 29.6002 14.3152C29.5203 14.5273 29.6472 14.7582 29.9855 14.8383C29.6533 14.9983 29.2547 14.858 29.0951 14.5249C28.9356 14.1918 29.0754 13.792 29.4076 13.6319Z" fill="#ECA93F"/>
<path d="M34.1716 13.4576C33.8239 13.3445 33.5561 13.8157 34.0165 14.0231C34.0776 14.1974 33.9742 14.3859 33.6923 14.4519C34.585 14.6357 34.632 13.6225 34.1622 13.4576" fill="#ECA93F"/>
</svg>
