<svg width="172" height="69" viewBox="0 0 172 69" fill="none" xmlns="http://www.w3.org/2000/svg">
<path d="M27.3518 19.9836C30.5461 19.9836 33.1355 22.573 33.1355 25.7673V48.8186H10.0838C6.8895 48.8186 4.30005 46.2292 4.30005 43.0349V36.5803C4.30005 33.3861 6.8895 30.7966 10.0838 30.7966H16.3149V39.9576C16.3149 40.8702 17.0548 41.6101 17.9674 41.6101H21.1207V28.8446C21.1207 27.932 20.3808 27.1925 19.4682 27.1921H4.71317V19.9836H27.3518ZM54.7612 41.6101L54.7616 7.96875H66.7765V48.8186H43.7251C40.5308 48.8186 37.9414 46.2292 37.9414 43.0349V25.7673C37.9414 22.573 40.5308 19.9836 43.7251 19.9836H49.9554V39.9576C49.9554 40.8702 50.6953 41.6101 51.6079 41.6101H54.7612ZM88.4025 41.6101V19.9836H100.418V55.0481C100.418 58.2424 97.8283 60.8318 94.6341 60.8318H71.9954V52.4231H88.403V48.8186H77.366C74.1717 48.8186 71.5823 46.2292 71.5823 43.0349V19.9836H83.5967V39.9576C83.5967 40.8702 84.3366 41.6101 85.2492 41.6101H88.4025ZM128.275 19.9836C131.469 19.9836 134.059 22.573 134.059 25.7673V32.2219C134.059 35.4162 131.469 38.0056 128.275 38.0056H122.044V28.845C122.044 27.9324 121.304 27.1925 120.391 27.1925H117.238V39.9576C117.238 40.8702 117.978 41.6101 118.891 41.6101H133.646V48.8186H111.007C107.813 48.8186 105.224 46.2292 105.224 43.0349V19.9836H128.275ZM161.916 19.9836C165.111 19.9836 167.7 22.573 167.7 25.7673V48.8186H155.685V28.8446C155.685 27.9358 154.942 27.1921 154.033 27.1921H150.879V48.8186H138.865V19.9836H161.916Z" fill="#32AA52"/>
</svg>
