<svg width="154" height="77" viewBox="0 0 154 77" fill="none" xmlns="http://www.w3.org/2000/svg">
<path d="M98.7377 8.74879L86.385 52.5251H86.2285L72.9772 8.74879H43.6669L33.6301 26.6147L23.0031 8.74879H8.10213L25.4308 36.8213L6.41666 68.2691H20.1374L32.3336 47.4576L44.959 68.2691H67.4469V27.0042H67.6034C67.9163 28.7321 68.2144 30.2109 68.4975 31.4405C68.7807 32.67 69.0489 33.8086 69.3023 34.8561L70.1427 37.8419L71.0637 40.9442L79.889 68.2512H91.4549L100.356 40.9442C101.009 38.7447 101.617 36.6243 102.18 34.583C102.792 32.3067 103.283 29.9995 103.651 27.6712H103.807V68.2691H116.433V8.73089L98.7377 8.74879ZM40.2155 36.8974L55.7246 11.1214V62.1541L40.2155 36.8974Z" fill="url(#paint0_linear_0_10410)"/>
<path fill-rule="evenodd" clip-rule="evenodd" d="M133.383 23.6094C133.073 24.0813 132.715 24.5216 132.314 24.9228C131.553 25.6699 130.645 26.25 129.647 26.6262C128.655 27.0038 127.602 27.1964 126.54 27.1944C125.473 27.1947 124.415 27.0022 123.417 26.6262C122.414 26.2534 121.502 25.673 120.739 24.9228C119.929 24.1066 119.294 23.1325 118.875 22.0611C118.376 20.7608 118.135 19.3754 118.166 17.9828C118.137 16.5945 118.378 15.2138 118.875 13.9173C119.295 12.8376 119.931 11.8553 120.744 11.031C121.505 10.277 122.418 9.69483 123.422 9.32383C124.421 8.9508 125.479 8.76011 126.545 8.76081C127.606 8.7585 128.659 8.94928 129.652 9.32383C130.65 9.69889 131.557 10.2807 132.314 11.031C132.898 11.6197 133.389 12.2906 133.774 13.0207C133.851 12.604 133.98 12.1972 134.159 11.8102C134.464 11.1645 134.911 10.5957 135.466 10.1457C136.063 9.67165 136.748 9.31981 137.481 9.11025C138.332 8.86364 139.214 8.74371 140.099 8.75432C140.929 8.74433 141.756 8.84444 142.559 9.05201C143.243 9.23251 143.9 9.50049 144.516 9.8493C145.07 10.1669 145.579 10.5588 146.027 11.0142C146.443 11.4355 146.819 11.8934 147.152 12.3823L144.446 14.4532C143.982 13.6906 143.333 13.0578 142.559 12.6139C141.807 12.1662 140.949 11.9288 140.075 11.9267C139.403 11.8832 138.735 12.0584 138.171 12.4263C137.962 12.5738 137.792 12.7704 137.677 12.9988C137.562 13.2272 137.504 13.4803 137.51 13.7361C137.497 14.0648 137.579 14.3901 137.747 14.6732C137.915 14.9562 138.16 15.1849 138.454 15.332C139.309 15.7676 140.209 16.1071 141.139 16.3441L143.461 17.0625C144.193 17.2842 144.89 17.6084 145.532 18.0255C146.13 18.4142 146.637 18.9294 147.015 19.5346C147.413 20.2211 147.609 21.0064 147.581 21.7997C147.583 22.5045 147.44 23.2022 147.159 23.8485C146.867 24.5103 146.428 25.0968 145.876 25.5635C145.227 26.0997 144.48 26.5034 143.676 26.7517C142.642 27.0685 141.564 27.2188 140.483 27.1969C139.599 27.2068 138.717 27.0966 137.863 26.8695C137.121 26.6682 136.41 26.3632 135.753 25.9634C135.144 25.5906 134.595 25.1271 134.125 24.5889C133.856 24.2791 133.608 23.9518 133.383 23.6094ZM134.17 22.0887L135.88 21.0671C136.322 21.9899 137.014 22.7699 137.878 23.3179C138.718 23.8369 139.687 24.1063 140.674 24.0945C141.45 24.1273 142.221 23.9531 142.907 23.5897C143.18 23.4398 143.406 23.2162 143.558 22.9443C143.71 22.6725 143.783 22.3633 143.769 22.052C143.776 21.7329 143.694 21.4181 143.531 21.1435C143.369 20.8689 143.132 20.6455 142.849 20.4989C142.002 20.0477 141.102 19.7046 140.169 19.4777L137.831 18.771C137.096 18.5547 136.395 18.2381 135.747 17.83C135.418 17.6222 135.117 17.3756 134.85 17.0962C134.77 16.0188 134.547 14.9495 134.181 13.9173C134.062 13.6101 133.926 13.3107 133.774 13.0207C133.712 13.3525 133.684 13.6905 133.69 14.0299C133.658 14.837 133.855 15.6368 134.258 16.3364C134.43 16.6099 134.628 16.8643 134.85 17.0962C134.973 18.7681 134.75 20.4594 134.181 22.0611L134.17 22.0887ZM122.391 20.4989C122.175 19.6779 122.07 18.8316 122.08 17.9828H122.085C121.996 16.4348 122.413 14.8999 123.275 13.6106C123.649 13.0988 124.144 12.687 124.715 12.4112C125.287 12.1354 125.917 12.0041 126.551 12.0289C127.182 12.007 127.81 12.1395 128.379 12.4152C128.948 12.6908 129.441 13.1012 129.815 13.6106C130.681 14.8977 131.101 16.4338 131.009 17.9828C131.02 18.832 130.913 19.6785 130.694 20.4989C130.513 21.1849 130.211 21.8331 129.803 22.4132C129.44 22.9212 128.96 23.3338 128.403 23.6156C127.825 23.8979 127.188 24.0398 126.545 24.0298C125.9 24.0395 125.262 23.8976 124.682 23.6156C124.122 23.3351 123.64 22.9224 123.276 22.4132C122.868 21.8338 122.568 21.1853 122.391 20.4989Z" fill="black"/>
<path d="M133.69 14.0299C133.658 14.837 133.855 15.6368 134.258 16.3364C134.43 16.6099 134.628 16.8643 134.85 17.0962C134.77 16.0188 134.547 14.9495 134.181 13.9173C134.062 13.6101 133.926 13.3107 133.774 13.0207C133.712 13.3525 133.684 13.6905 133.69 14.0299Z" fill="black"/>
<defs>
<linearGradient id="paint0_linear_0_10410" x1="21.0488" y1="9.20719" x2="56.2492" y2="96.3313" gradientUnits="userSpaceOnUse">
<stop offset="0.042" stop-color="#21DBAA"/>
<stop offset="0.358" stop-color="#00B4EF"/>
<stop offset="0.433" stop-color="#01A7EC"/>
<stop offset="0.568" stop-color="#0487E4"/>
<stop offset="0.68" stop-color="#0768DD"/>
<stop offset="0.965" stop-color="#5F1AE5"/>
</linearGradient>
</defs>
</svg>
