<svg width="222" height="54" viewBox="0 0 222 54" fill="none" xmlns="http://www.w3.org/2000/svg">
<path fill-rule="evenodd" clip-rule="evenodd" d="M12.4579 43.8641H37.2103V9.45227H12.4579V43.8641Z" fill="#121119"/>
<path fill-rule="evenodd" clip-rule="evenodd" d="M12.4566 44.8933H7.52332V8.38666H12.4566V44.8933Z" fill="#00FF99"/>
<path fill-rule="evenodd" clip-rule="evenodd" d="M37.1233 44.8933H42.0566V18.2533H37.1233V44.8933Z" fill="#9933FF"/>
<path fill-rule="evenodd" clip-rule="evenodd" d="M42.0566 48.84H7.52332V43.9067H42.0566V48.84Z" fill="#00CCFF"/>
<path fill-rule="evenodd" clip-rule="evenodd" d="M7.52332 9.37333H27.2566V4.44H7.52332V9.37333Z" fill="#FFF35C"/>
<path fill-rule="evenodd" clip-rule="evenodd" d="M37.1234 14.3067V9.37333H32.19V4.44H27.2567V9.40491V9.41231V14.3308V14.3382V19.24H32.1955H37.117H42.0567V14.3067H37.1234" fill="#FF6666"/>
<path d="M27.2566 9.37333H22.3169L27.2566 4.44V9.37333Z" fill="#9F983D"/>
<path d="M37.1233 24.2131V19.24H42.0502L37.1233 24.2131Z" fill="#62259F"/>
<path d="M81.6244 19.6833C79.1126 17.3195 76.0594 16.6791 73.7449 16.6791C68.1308 16.6791 64.4865 20.0279 64.4865 26.7747C64.4865 31.2068 66.7494 36.6732 73.6931 36.6732C75.5155 36.6732 78.3166 36.3286 80.2899 34.9004V30.5867H71.6566V22.94H88.4299V38.1507C86.4566 42.5334 80.2996 44.8975 73.6512 44.8975C60.01 44.8975 54.8611 35.7869 54.8611 26.7747C54.8611 17.7625 60.7818 8.50433 73.7338 8.50433C78.5107 8.50433 82.7514 9.48927 87.2819 14.0691L81.6244 19.6833Z" fill="#121119"/>
<path d="M93.3633 43.9067V9.37334H102.983V43.9067H93.3633Z" fill="#121119"/>
<path d="M118.77 26.3933H125.743C128.452 26.3933 129.831 24.3911 129.831 22.1258C129.831 19.8606 128.403 17.76 125.743 17.76H118.77V26.3933ZM118.77 34.5333V43.9067H108.903V9.37334H125.743C135.002 9.37334 139.582 15.1818 139.582 21.9287C139.582 28.971 134.953 34.5333 125.743 34.5333H118.77Z" fill="#121119"/>
<path d="M165.39 43.9067V31.08H152.81V43.9067H143.19V9.62001H152.81V22.6933H165.39V9.62001H175.01V43.9067H165.39Z" fill="#121119"/>
<path d="M196.064 21.1924L203.5 9.37334H214.477V9.93229L200.91 30.2221V43.9067H191.043V30.2221L177.97 9.8832V9.37334H188.923L196.064 21.1924Z" fill="#121119"/>
</svg>
