<svg width="243" height="49" viewBox="0 0 243 49" fill="none" xmlns="http://www.w3.org/2000/svg">
<path d="M8.03304 21.8589L22.137 36.2136V22.6044H24.1522V40.9691L10.0482 26.6359V40.1754H8.03247V21.8589H8.03304ZM42.9078 26.4486C41.469 25.0053 39.4794 24.118 37.3916 24.118C33.3624 24.118 30.0996 27.5209 30.0996 31.3901C30.0996 35.2594 33.3856 38.66 37.4392 38.66C39.4794 38.66 41.4696 37.7279 42.9084 36.3299V38.7525C41.3499 39.8491 39.4306 40.4783 37.5119 40.4783C32.4036 40.4783 28.0856 36.4457 28.0856 31.4577C28.0856 26.4242 32.3304 22.3008 37.5119 22.3008C39.5259 22.3008 41.3017 22.8591 42.9084 24.0255V26.4481L42.9078 26.4486ZM52.3103 40.1754H50.2962V24.4221H45.9294V22.6044H56.7224V24.4221H52.3086V40.1754H52.3103ZM68.1883 26.0305C67.4689 24.8175 66.6054 24.1186 65.0702 24.1186C63.463 24.1186 62.0719 25.2362 62.0719 26.8446C62.0719 28.3606 63.6786 29.0595 64.9029 29.5951L66.1011 30.108C68.4521 31.1099 70.4412 32.2525 70.4412 35.0478C70.4412 38.1239 67.8995 40.4783 64.7582 40.4783C61.8546 40.4783 59.6964 38.6594 59.1211 35.9339L61.087 35.3972C61.3519 37.1912 62.7663 38.6594 64.7094 38.6594C66.652 38.6594 68.4266 37.2144 68.4266 35.2344C68.4266 33.1824 66.7722 32.4828 65.0924 31.7385L63.9906 31.2721C61.879 30.3389 60.0567 29.2921 60.0567 26.7743C60.0567 24.0477 62.4316 22.3003 65.1173 22.3003C67.1314 22.3003 68.8357 23.3022 69.7956 25.0275L68.1889 26.0294L68.1883 26.0305ZM74.7121 21.8589L88.8144 36.2125V22.6044H90.8302V40.9691L76.7273 26.6359V40.1754H74.7121V21.8589Z" fill="#205CAA"/>
<path d="M124.751 23.5256C124.39 23.5247 124.028 23.5331 123.667 23.5506C123.484 23.5597 123.306 23.5744 123.134 23.5869C122.963 23.6011 122.809 23.6175 122.672 23.6379C122.704 23.5205 122.721 23.4184 122.721 23.3276C122.721 23.2556 122.704 23.1557 122.672 23.0252C123.1 23.0366 123.518 23.0479 123.924 23.0576C124.763 23.075 125.602 23.075 126.441 23.0576C126.849 23.0479 127.266 23.0371 127.694 23.0252C127.66 23.1557 127.645 23.2578 127.645 23.3373C127.645 23.4195 127.66 23.5199 127.694 23.6379C127.557 23.617 127.402 23.6005 127.232 23.5869C127.062 23.5738 126.883 23.5585 126.699 23.55C126.338 23.5325 125.977 23.5242 125.615 23.525C125.595 24.1947 125.585 24.8646 125.585 25.5346V27.2054C125.585 27.6331 125.594 28.053 125.609 28.4688C125.623 28.883 125.641 29.2915 125.659 29.692C125.5 29.6775 125.341 29.6699 125.182 29.6693C125.012 29.6693 124.853 29.6789 124.706 29.692C124.724 29.292 124.741 28.883 124.757 28.4688C124.774 28.0535 124.783 27.6331 124.783 27.2054L124.795 25.5346C124.795 24.8623 124.778 24.1911 124.751 23.525L124.751 23.5256ZM128.542 24.4492C128.539 24.1932 128.534 23.9371 128.528 23.6811C128.52 23.4292 128.511 23.1886 128.502 22.9583C128.495 22.7623 128.484 22.5665 128.468 22.3711C128.65 22.4012 128.796 22.4165 128.907 22.4165C129.016 22.4165 129.163 22.4012 129.344 22.3711C129.332 22.5328 129.32 22.7285 129.31 22.9537C129.301 23.1807 129.291 23.4178 129.285 23.6686C129.28 23.9165 129.274 24.1678 129.271 24.4209C129.268 24.6739 129.268 24.9059 129.268 25.1176L129.266 25.8579H129.286C129.469 25.5771 129.685 25.361 129.939 25.2078C130.192 25.0546 130.496 24.9786 130.847 24.9786C131.029 24.9786 131.213 25.0041 131.399 25.0552C131.582 25.1074 131.75 25.1959 131.9 25.3246C132.05 25.4495 132.172 25.6197 132.266 25.8386C132.36 26.0576 132.408 26.3322 132.408 26.6698C132.408 26.9478 132.4 27.2343 132.385 27.5304C132.37 27.8255 132.362 28.1386 132.362 28.4688V29.1008C132.362 29.2041 132.364 29.3068 132.368 29.4072C132.372 29.5076 132.378 29.6029 132.385 29.6937C132.249 29.6793 132.112 29.6717 131.975 29.671C131.839 29.671 131.704 29.6801 131.575 29.6937C131.586 29.3561 131.603 29.0106 131.618 28.6538C131.633 28.2882 131.641 27.9224 131.64 27.5565V26.9648C131.64 26.4797 131.547 26.1115 131.359 25.8613C131.171 25.614 130.911 25.4892 130.58 25.4892C130.127 25.4892 129.794 25.6282 129.584 25.9073C129.374 26.1842 129.269 26.5768 129.269 27.0805C129.269 27.261 129.269 27.472 129.272 27.7103C129.276 27.9514 129.282 28.1925 129.287 28.4353C129.293 28.6782 129.303 28.913 129.312 29.1388C129.322 29.3646 129.333 29.5502 129.346 29.692C129.201 29.6781 129.055 29.6706 128.909 29.6693C128.766 29.6693 128.619 29.6789 128.469 29.692C128.483 29.5434 128.494 29.355 128.503 29.1292C128.513 28.9034 128.522 28.664 128.528 28.4098C128.534 28.1585 128.54 27.9032 128.542 27.6428C128.544 27.3824 128.547 27.1435 128.547 26.9245V25.1658C128.547 24.9474 128.545 24.7062 128.542 24.4487V24.4492ZM135.41 25.4534C135.247 25.5612 135.108 25.7016 135.002 25.8659C134.896 26.0304 134.815 26.2103 134.759 26.4077C134.707 26.5896 134.673 26.7762 134.658 26.9648L135.284 26.9858C135.499 26.9949 135.713 26.9971 135.919 26.9971C136.133 26.9971 136.349 26.9949 136.569 26.9858L137.209 26.9648C137.209 26.7906 137.196 26.6074 137.167 26.4117C137.138 26.2188 137.08 26.0384 136.992 25.8699C136.904 25.7014 136.784 25.5635 136.628 25.4534C136.473 25.3439 136.269 25.2889 136.017 25.2889C135.776 25.2889 135.575 25.3434 135.41 25.4534ZM134.338 25.6594C134.718 25.2044 135.271 24.9786 135.996 24.9786C136.339 24.9786 136.637 25.0308 136.885 25.1374C137.134 25.2463 137.344 25.3882 137.512 25.5669C137.68 25.7445 137.805 25.9538 137.886 26.1932C137.967 26.4344 138.008 26.6902 138.008 26.962C138.008 27.0272 138.006 27.0908 138.002 27.1526C137.999 27.2144 137.991 27.2774 137.985 27.3427C137.635 27.3336 137.289 27.3273 136.945 27.32C136.599 27.3122 136.253 27.3084 135.907 27.3086C135.693 27.3086 135.481 27.3132 135.271 27.32C135.06 27.3273 134.849 27.3336 134.634 27.3427C134.627 27.3767 134.624 27.4238 134.624 27.4879V27.615C134.624 27.8686 134.66 28.1069 134.736 28.3264C134.809 28.5477 134.918 28.7377 135.061 28.8972C135.203 29.056 135.379 29.1831 135.586 29.2773C135.794 29.3715 136.033 29.4168 136.306 29.4168C136.435 29.4168 136.569 29.3998 136.704 29.3635C136.98 29.2913 137.239 29.1671 137.469 28.9976C137.579 28.9142 137.678 28.8228 137.764 28.7253L137.811 28.7548L137.753 29.2325C137.56 29.3873 137.319 29.5195 137.03 29.6296C136.744 29.7406 136.439 29.7972 136.132 29.7964C135.782 29.7964 135.463 29.7431 135.175 29.6358C134.885 29.528 134.636 29.3732 134.426 29.1683C134.215 28.9636 134.05 28.717 133.94 28.4444C133.827 28.1664 133.77 27.864 133.77 27.5401C133.77 26.7401 133.96 26.1161 134.337 25.6622L134.338 25.6594ZM145.605 27.1691C144.766 26.267 143.925 25.3689 143.086 24.4759C143.078 24.6575 143.073 24.8991 143.065 25.2038C143.057 25.5062 143.053 25.9209 143.053 26.4463C143.053 26.5824 143.055 26.7504 143.059 26.9501C143.061 27.1515 143.065 27.3614 143.068 27.5815C143.071 27.8028 143.077 28.0269 143.082 28.2521C143.089 28.479 143.094 28.6889 143.102 28.8818C143.108 29.077 143.114 29.2478 143.122 29.3924C143.128 29.5365 143.133 29.6353 143.139 29.6875C143.026 29.6742 142.912 29.6679 142.799 29.6687C142.668 29.6687 142.547 29.6744 142.439 29.6875C142.45 29.6251 142.465 29.5036 142.481 29.3283C142.498 29.1542 142.513 28.9448 142.525 28.7031L142.569 27.91C142.584 27.6263 142.598 27.3415 142.607 27.0556C142.617 26.7719 142.623 26.4956 142.631 26.2227C142.637 25.9504 142.641 25.7087 142.641 25.4937C142.641 24.873 142.638 24.3397 142.635 23.8921C142.635 23.5585 142.625 23.225 142.607 22.8919H142.762L144.029 24.2649C144.481 24.755 144.927 25.2367 145.37 25.7133C145.813 26.1887 146.233 26.638 146.633 27.0618C146.975 27.4282 147.323 27.7891 147.677 28.1443V26.8247C147.677 26.1456 147.671 25.4841 147.662 24.839C147.654 24.232 147.633 23.6252 147.6 23.019C147.73 23.0502 147.841 23.0666 147.932 23.0666C148.009 23.0666 148.113 23.0496 148.245 23.019C148.23 23.1608 148.213 23.3736 148.196 23.6589C148.179 23.9443 148.162 24.249 148.145 24.5724C148.128 24.8946 148.112 25.2134 148.098 25.5238C148.084 25.8335 148.077 26.0826 148.077 26.2698V26.8525C148.077 27.0737 148.079 27.3007 148.083 27.5407C148.086 27.7812 148.088 28.0229 148.094 28.2651C148.096 28.508 148.1 28.7338 148.104 28.9443C148.108 29.153 148.11 29.3368 148.11 29.4923V29.8123H147.977C147.202 28.9171 146.411 28.0357 145.605 27.1685V27.1691ZM152.263 27.3699C152.116 27.3968 151.968 27.4248 151.822 27.4539C151.672 27.4826 151.524 27.5195 151.379 27.5645C151.234 27.6099 151.104 27.6723 150.992 27.7494C150.877 27.8289 150.787 27.9253 150.719 28.0422C150.651 28.1591 150.617 28.3077 150.617 28.4892C150.617 28.7939 150.704 29.0242 150.879 29.1814C151.055 29.3368 151.248 29.414 151.462 29.414C151.709 29.414 151.933 29.3471 152.138 29.2098C152.34 29.0736 152.498 28.9147 152.608 28.7332L152.647 27.2717C152.522 27.3156 152.394 27.3483 152.263 27.3693V27.3699ZM151.056 25.0943C151.301 25.016 151.553 24.9786 151.812 24.9786C152.045 24.9786 152.259 25.0109 152.455 25.0807C152.649 25.1488 152.815 25.2469 152.951 25.3712C153.088 25.4988 153.196 25.6503 153.274 25.8307C153.353 26.0166 153.392 26.2167 153.39 26.4185C153.39 26.7884 153.385 27.156 153.369 27.5219C153.355 27.8879 153.347 28.2754 153.347 28.685C153.347 28.7621 153.348 28.845 153.352 28.9329C153.355 29.0203 153.369 29.0991 153.396 29.1666C153.421 29.2347 153.458 29.2915 153.507 29.3368C153.556 29.3822 153.63 29.4049 153.726 29.4049C153.757 29.4049 153.792 29.4038 153.828 29.4004C153.864 29.3972 153.899 29.3856 153.93 29.3663V29.5774C153.844 29.6129 153.754 29.6386 153.662 29.654C153.547 29.6735 153.43 29.683 153.314 29.6824C153.104 29.6824 152.945 29.6302 152.833 29.5235C152.72 29.4142 152.65 29.268 152.636 29.1116C152.403 29.3476 152.173 29.5173 151.945 29.6268C151.719 29.7385 151.44 29.7941 151.11 29.7941C150.947 29.7941 150.789 29.7714 150.634 29.726C150.478 29.6807 150.34 29.6058 150.221 29.5008C150.1 29.3971 150.001 29.2706 149.929 29.1286C149.852 28.9727 149.814 28.8004 149.818 28.6265C149.818 28.2368 149.94 27.9367 150.183 27.7216C150.426 27.5078 150.761 27.3659 151.188 27.2939C151.538 27.2371 151.812 27.1872 152.009 27.1435C152.207 27.1015 152.353 27.0573 152.447 27.013C152.54 26.9676 152.598 26.9143 152.616 26.8525C152.636 26.7918 152.646 26.7118 152.646 26.6142C152.646 26.4525 152.627 26.2982 152.588 26.149C152.549 25.9998 152.488 25.8699 152.404 25.7598C152.316 25.6464 152.204 25.5551 152.075 25.4931C151.938 25.4239 151.773 25.3893 151.579 25.3893C151.318 25.3893 151.079 25.4483 150.855 25.5635C150.642 25.6698 150.468 25.8392 150.356 26.0486H150.249V25.5436C150.541 25.3224 150.809 25.1737 151.056 25.0954V25.0943ZM156.169 23.7798C156.15 24.0266 156.135 24.2694 156.125 24.506C156.116 24.7431 156.104 24.9808 156.091 25.2225C156.162 25.2225 156.295 25.2197 156.49 25.2168C156.684 25.214 156.894 25.2032 157.119 25.1885C157.112 25.2235 157.109 25.2593 157.11 25.2951V25.4994C157.11 25.5476 157.113 25.5788 157.119 25.5987C157.036 25.5907 156.949 25.5873 156.858 25.5816C156.767 25.5788 156.669 25.576 156.566 25.576H156.089C156.083 25.6032 156.076 25.7065 156.066 25.888C156.038 26.6068 156.024 27.3262 156.025 28.0456C156.025 28.2271 156.028 28.407 156.038 28.5806C156.048 28.7553 156.078 28.9125 156.13 29.0532C156.182 29.1916 156.261 29.3028 156.363 29.3879C156.467 29.4707 156.616 29.5144 156.81 29.5144C156.861 29.5144 156.932 29.5076 157.019 29.4934C157.106 29.481 157.183 29.4628 157.247 29.4424V29.675C157.138 29.6931 157.017 29.7187 156.883 29.7476C156.757 29.7761 156.628 29.7909 156.498 29.7919C156.091 29.7919 155.79 29.6909 155.595 29.4895C155.4 29.2886 155.302 28.9942 155.302 28.6044C155.302 28.4308 155.306 28.2425 155.312 28.0371C155.318 27.8328 155.326 27.6116 155.334 27.3676C155.345 27.1254 155.354 26.857 155.36 26.562C155.367 26.267 155.369 25.9379 155.369 25.5748H155.055C155.004 25.5748 154.949 25.5777 154.891 25.5805C154.831 25.5862 154.772 25.5902 154.706 25.5975C154.72 25.5234 154.726 25.4482 154.725 25.3729C154.725 25.3395 154.724 25.3062 154.721 25.273C154.717 25.2407 154.713 25.2085 154.706 25.1766C154.997 25.1981 155.211 25.2095 155.348 25.2095C155.341 25.079 155.336 24.9179 155.335 24.7244C155.331 24.5281 155.323 24.3273 155.313 24.1196L156.12 23.7792H156.168L156.169 23.7798ZM158.531 26.895V27.9049C158.531 28.1971 158.526 28.504 158.517 28.8228C158.509 29.1135 158.488 29.4037 158.454 29.6926C158.603 29.6795 158.749 29.6699 158.893 29.6699C159.035 29.6699 159.18 29.6795 159.331 29.6926C159.296 29.4038 159.275 29.1136 159.268 28.8228C159.258 28.5171 159.253 28.2113 159.253 27.9055V26.8956C159.253 26.6046 159.259 26.2988 159.268 25.9788C159.279 25.6565 159.299 25.3581 159.331 25.0778C159.15 25.1119 159.003 25.1266 158.895 25.1266C158.782 25.1266 158.638 25.1113 158.455 25.0778C158.487 25.3581 158.508 25.6565 158.517 25.9788C158.527 26.2988 158.532 26.6046 158.532 26.895H158.531ZM158.399 23.3866C158.398 23.4514 158.411 23.5156 158.435 23.5755C158.46 23.6353 158.497 23.6896 158.543 23.735C158.641 23.8314 158.757 23.8802 158.893 23.8802C158.958 23.8808 159.022 23.8683 159.081 23.8433C159.141 23.8183 159.195 23.7815 159.239 23.735C159.286 23.69 159.324 23.6359 159.349 23.576C159.374 23.5161 159.387 23.4516 159.386 23.3866C159.387 23.3215 159.374 23.2568 159.349 23.1967C159.324 23.1366 159.286 23.0823 159.239 23.0371C159.195 22.9908 159.141 22.9541 159.081 22.9293C159.022 22.9045 158.958 22.8922 158.893 22.893C158.828 22.8921 158.764 22.9044 158.703 22.9292C158.643 22.954 158.588 22.9907 158.543 23.0371C158.497 23.0827 158.46 23.1372 158.435 23.1972C158.41 23.2573 158.398 23.3217 158.399 23.3866ZM161.806 28.1903C161.853 28.4439 161.936 28.6702 162.051 28.8671C162.168 29.0657 162.324 29.2245 162.518 29.3403C162.712 29.4577 162.951 29.5161 163.235 29.5161C163.52 29.5161 163.759 29.4577 163.953 29.3403C164.148 29.2239 164.303 29.0657 164.42 28.8671C164.537 28.6697 164.617 28.4439 164.666 28.1903C164.715 27.9389 164.739 27.6751 164.739 27.4017C164.739 27.1282 164.715 26.865 164.666 26.6131C164.617 26.3612 164.537 26.1342 164.42 25.9379C164.303 25.7394 164.148 25.5805 163.955 25.4642C163.759 25.3468 163.521 25.2883 163.235 25.2883C162.952 25.2883 162.712 25.3468 162.518 25.4642C162.325 25.5797 162.164 25.7425 162.052 25.9374C161.937 26.1342 161.853 26.3612 161.806 26.6125C161.756 26.8638 161.732 27.1288 161.732 27.4011C161.732 27.6734 161.756 27.9378 161.806 28.1897L161.806 28.1903ZM161.086 26.2778C161.226 25.9691 161.409 25.7201 161.634 25.5289C161.861 25.336 162.115 25.1959 162.397 25.1091C162.678 25.024 162.957 24.9786 163.235 24.9786C163.521 24.9786 163.803 25.0228 164.081 25.1091C164.359 25.1959 164.61 25.336 164.837 25.5289C165.063 25.7201 165.246 25.9691 165.385 26.2778C165.524 26.5841 165.593 26.9586 165.593 27.4C165.593 27.8413 165.525 28.2158 165.385 28.5233C165.262 28.8109 165.074 29.0666 164.837 29.271C164.61 29.4617 164.359 29.5978 164.081 29.6767C163.803 29.7538 163.521 29.7936 163.235 29.7936C162.957 29.7936 162.678 29.7538 162.397 29.6772C162.116 29.5988 161.856 29.4606 161.634 29.2722C161.398 29.0673 161.21 28.8117 161.086 28.5244C160.948 28.2164 160.878 27.8419 160.878 27.4011C160.878 26.9603 160.948 26.5853 161.086 26.2778ZM169.846 25.8608C169.658 25.6134 169.4 25.4886 169.068 25.4886C168.614 25.4886 168.281 25.6282 168.071 25.9073C167.86 26.1842 167.753 26.5768 167.753 27.0805V27.9049C167.753 28.1965 167.759 28.5034 167.769 28.8223C167.778 29.1434 167.799 29.4339 167.831 29.692C167.686 29.6781 167.54 29.6705 167.393 29.6693C167.25 29.6693 167.104 29.6789 166.955 29.692C166.988 29.4327 167.009 29.1434 167.018 28.8223C167.027 28.5166 167.032 28.2107 167.033 27.9049V26.8933C167.033 26.6029 167.027 26.2976 167.018 25.9742C167.009 25.6738 166.988 25.3738 166.955 25.075C167.137 25.1079 167.284 25.1244 167.396 25.1244C167.445 25.1244 167.503 25.1198 167.566 25.1102C167.628 25.1 167.702 25.0892 167.787 25.0744C167.764 25.3343 167.752 25.5924 167.752 25.8517H167.772C167.954 25.5737 168.172 25.3581 168.426 25.2049C168.679 25.0518 168.982 24.978 169.332 24.978C169.514 24.978 169.698 25.003 169.884 25.054C170.069 25.1062 170.236 25.1947 170.385 25.3235C170.535 25.4483 170.658 25.6185 170.751 25.8369C170.845 26.0554 170.893 26.3305 170.893 26.6681C170.893 26.9461 170.885 27.232 170.871 27.5282C170.856 27.8407 170.849 28.1536 170.85 28.4666V29.098C170.85 29.2013 170.85 29.3039 170.853 29.4044C170.858 29.5048 170.863 29.6001 170.87 29.6909C170.74 29.6778 170.604 29.6682 170.46 29.6682C170.324 29.6682 170.19 29.6778 170.06 29.6909C170.073 29.3539 170.087 29.0084 170.103 28.6515C170.119 28.2958 170.127 27.931 170.127 27.5543V26.9648C170.127 26.4792 170.033 26.1115 169.845 25.8608H169.846ZM174.769 27.3699C174.622 27.3966 174.475 27.4244 174.327 27.4539C174.178 27.4825 174.03 27.5194 173.885 27.5645C173.738 27.6099 173.611 27.6723 173.496 27.7494C173.383 27.8289 173.293 27.9253 173.224 28.0422C173.157 28.1591 173.122 28.3077 173.122 28.4892C173.122 28.7939 173.21 29.0242 173.385 29.1814C173.56 29.3368 173.754 29.414 173.968 29.414C174.214 29.414 174.439 29.3471 174.642 29.2098C174.846 29.0736 175.004 28.9147 175.113 28.7332L175.153 27.2717C175.043 27.3115 174.914 27.3444 174.77 27.3693L174.769 27.3699ZM173.561 25.0943C173.806 25.0166 174.061 24.9775 174.318 24.9786C174.55 24.9786 174.765 25.0109 174.959 25.0807C175.154 25.1488 175.32 25.2469 175.457 25.3712C175.593 25.4988 175.701 25.6503 175.778 25.8307C175.857 26.0083 175.898 26.2051 175.898 26.4185C175.898 26.7884 175.888 27.156 175.874 27.5219C175.859 27.8879 175.852 28.2754 175.852 28.685C175.852 28.7621 175.853 28.845 175.858 28.9329C175.862 29.0208 175.875 29.0991 175.9 29.1666C175.925 29.2347 175.962 29.2915 176.013 29.3368C176.062 29.3822 176.134 29.4049 176.231 29.4049C176.263 29.4049 176.296 29.4038 176.333 29.4004C176.369 29.3972 176.404 29.3855 176.435 29.3663V29.5774C176.363 29.6086 176.274 29.6341 176.168 29.654C176.053 29.6735 175.936 29.683 175.819 29.6824C175.609 29.6824 175.449 29.6302 175.338 29.5235C175.225 29.4142 175.156 29.268 175.142 29.1116C174.909 29.3476 174.678 29.5173 174.452 29.6268C174.226 29.7385 173.946 29.7941 173.616 29.7941C173.454 29.7941 173.295 29.7714 173.139 29.726C172.987 29.6821 172.846 29.6052 172.726 29.5008C172.606 29.3969 172.507 29.2705 172.435 29.1286C172.358 28.9728 172.319 28.8005 172.323 28.6265C172.323 28.2368 172.444 27.9367 172.688 27.7216C172.931 27.5078 173.267 27.3659 173.694 27.2939C174.042 27.2371 174.316 27.1872 174.514 27.1435C174.713 27.1015 174.857 27.0573 174.951 27.013C175.045 26.9676 175.103 26.9143 175.123 26.8525C175.141 26.7918 175.152 26.7118 175.152 26.6142C175.152 26.4525 175.133 26.2982 175.093 26.149C175.059 26.0081 174.996 25.8758 174.909 25.7598C174.822 25.6458 174.709 25.5544 174.58 25.4931C174.445 25.4239 174.279 25.3893 174.085 25.3893C173.824 25.3893 173.584 25.4483 173.362 25.5635C173.149 25.6701 172.974 25.8394 172.861 26.0486H172.755V25.5436C173.047 25.3224 173.314 25.1737 173.56 25.0954L173.561 25.0943ZM178.042 24.4492C178.037 24.1932 178.032 23.9371 178.026 23.6811C178.02 23.4401 178.012 23.1991 178.002 22.9583C177.994 22.7624 177.983 22.5666 177.968 22.3711C178.15 22.4012 178.295 22.4165 178.406 22.4165C178.515 22.4165 178.662 22.4012 178.844 22.3711C178.832 22.5328 178.821 22.7285 178.81 22.9583C178.789 23.455 178.776 23.9521 178.772 24.4492C178.767 24.7074 178.766 24.9485 178.766 25.1664V26.9262C178.766 27.1458 178.767 27.3841 178.772 27.6445C178.775 27.9055 178.779 28.1596 178.785 28.4115C178.791 28.6651 178.8 28.9051 178.81 29.1309C178.821 29.3567 178.831 29.5451 178.844 29.6937C178.699 29.6798 178.553 29.6723 178.406 29.671C178.265 29.671 178.117 29.6807 177.968 29.6937C177.98 29.5451 177.992 29.3567 178.002 29.1309C178.013 28.9051 178.019 28.6657 178.026 28.4115C178.032 28.1602 178.038 27.9049 178.042 27.6445C178.043 27.3835 178.046 27.1452 178.046 26.9262V25.1664C178.046 24.9479 178.044 24.7068 178.042 24.4492H178.042ZM188.738 29.46C188.592 29.53 188.439 29.5856 188.282 29.6262C188.104 29.6744 187.904 29.717 187.684 29.7567C187.464 29.7964 187.235 29.8157 186.994 29.8157C186.513 29.8206 186.034 29.7468 185.578 29.5973C185.159 29.4613 184.776 29.234 184.455 28.9318C184.133 28.6242 183.881 28.2517 183.713 27.8391C183.537 27.4079 183.448 26.9189 183.448 26.3697C183.448 25.8205 183.537 25.3297 183.713 24.8974C183.893 24.4674 184.144 24.1032 184.465 23.8064C184.796 23.5012 185.188 23.2692 185.614 23.1256C186.061 22.9713 186.553 22.893 187.092 22.893C187.517 22.893 187.909 22.9362 188.26 23.0235C188.581 23.0989 188.895 23.2033 189.197 23.3356C189.146 23.4263 189.103 23.5483 189.069 23.7043C189.038 23.8592 189.013 23.9903 188.993 24.0924L188.935 24.1128C188.852 24.0174 188.761 23.9296 188.663 23.8507C188.535 23.7452 188.398 23.6509 188.254 23.5687C188.089 23.4732 187.914 23.3967 187.731 23.3407C187.524 23.278 187.308 23.2474 187.091 23.2499C186.707 23.2499 186.354 23.3106 186.027 23.4331C185.701 23.558 185.414 23.7452 185.173 24.0005C184.929 24.2558 184.74 24.5809 184.604 24.9735C184.468 25.3649 184.401 25.8279 184.401 26.3663C184.401 26.9035 184.468 27.3682 184.604 27.7591C184.74 28.1505 184.929 28.4739 185.173 28.7309C185.414 28.9874 185.701 29.1769 186.027 29.3C186.354 29.4219 186.708 29.4838 187.091 29.4838C187.309 29.485 187.526 29.456 187.736 29.3976C188.089 29.2961 188.424 29.1374 188.726 28.9278C188.86 28.8348 188.971 28.7519 189.059 28.6804L189.099 28.7202L189.013 29.2932C188.93 29.3627 188.837 29.4196 188.737 29.4622L188.738 29.46ZM190.61 24.4492C190.608 24.1905 190.602 23.9352 190.597 23.6811C190.59 23.4401 190.581 23.1992 190.571 22.9583C190.564 22.7623 190.553 22.5666 190.538 22.3711C190.719 22.4012 190.866 22.4165 190.975 22.4165C191.087 22.4165 191.233 22.4012 191.414 22.3711C191.401 22.5328 191.39 22.7285 191.38 22.9537C191.369 23.1807 191.363 23.4178 191.355 23.6686C191.343 24.1515 191.337 24.6345 191.336 25.1176V25.8579H191.355C191.537 25.5771 191.755 25.361 192.009 25.2078C192.262 25.0546 192.565 24.9786 192.917 24.9786C193.098 24.9786 193.283 25.0041 193.467 25.0552C193.654 25.1074 193.82 25.1959 193.969 25.3246C194.119 25.4495 194.24 25.6197 194.335 25.8386C194.43 26.0571 194.477 26.3322 194.477 26.6698C194.477 26.9478 194.469 27.2343 194.454 27.5304C194.44 27.8255 194.433 28.1386 194.433 28.4688V29.1008C194.433 29.2041 194.433 29.3068 194.436 29.4072C194.444 29.5076 194.449 29.6029 194.455 29.6937C194.324 29.6801 194.188 29.671 194.044 29.671C193.908 29.671 193.775 29.6801 193.644 29.6937C193.658 29.3561 193.671 29.0106 193.688 28.6538C193.704 28.2981 193.713 27.9333 193.713 27.5565V26.9648C193.713 26.4797 193.617 26.1115 193.429 25.8613C193.242 25.614 192.983 25.4892 192.652 25.4892C192.198 25.4892 191.864 25.6282 191.655 25.9073C191.444 26.1842 191.337 26.5768 191.337 27.0805C191.337 27.261 191.339 27.472 191.343 27.7103C191.347 27.9514 191.351 28.1925 191.356 28.4353C191.364 28.6782 191.371 28.913 191.381 29.1388C191.391 29.3646 191.402 29.5502 191.415 29.692C191.269 29.6781 191.123 29.6705 190.977 29.6693C190.835 29.6693 190.689 29.6789 190.54 29.692C190.553 29.5434 190.564 29.355 190.573 29.1292C190.583 28.9034 190.591 28.664 190.599 28.4098C190.605 28.1585 190.61 27.9032 190.612 27.6428C190.615 27.3818 190.617 27.1435 190.617 26.9245V25.1658C190.617 24.9474 190.615 24.7062 190.612 24.4487L190.61 24.4492ZM196.483 26.895V27.9049C196.483 28.1971 196.479 28.504 196.467 28.8228C196.459 29.144 196.439 29.4344 196.405 29.6926C196.555 29.6795 196.701 29.6699 196.844 29.6699C196.986 29.6699 197.133 29.6795 197.282 29.6926C197.248 29.4344 197.227 29.144 197.218 28.8228C197.209 28.5171 197.205 28.2113 197.205 27.9055V26.8956C197.205 26.6046 197.21 26.2988 197.218 25.9788C197.226 25.6777 197.248 25.3771 197.282 25.0778C197.099 25.1119 196.953 25.1266 196.844 25.1266C196.734 25.1266 196.588 25.1113 196.405 25.0778C196.439 25.3581 196.46 25.6565 196.468 25.9788C196.479 26.2988 196.483 26.6046 196.483 26.895H196.483ZM196.35 23.3866C196.349 23.4516 196.361 23.5159 196.386 23.5758C196.412 23.6358 196.449 23.6899 196.495 23.735C196.592 23.8314 196.708 23.8802 196.844 23.8802C196.98 23.8802 197.095 23.8308 197.191 23.735C197.238 23.69 197.275 23.6358 197.301 23.5759C197.326 23.516 197.338 23.4516 197.337 23.3866C197.338 23.3215 197.326 23.2569 197.301 23.1968C197.276 23.1367 197.238 23.0823 197.191 23.0371C197.095 22.9407 196.98 22.893 196.844 22.893C196.708 22.893 196.591 22.9413 196.495 23.0371C196.448 23.0823 196.411 23.1367 196.386 23.1968C196.36 23.2569 196.348 23.3215 196.348 23.3866H196.35ZM199.467 24.4492C199.466 24.1905 199.46 23.9352 199.455 23.6811C199.448 23.4401 199.44 23.1991 199.429 22.9583C199.419 22.7291 199.409 22.5328 199.396 22.3711C199.577 22.4012 199.724 22.4165 199.833 22.4165C199.944 22.4165 200.091 22.4012 200.272 22.3711C200.259 22.5328 200.248 22.7285 200.238 22.9583C200.227 23.1892 200.221 23.4292 200.213 23.6811C200.207 23.9352 200.201 24.1905 200.2 24.4492C200.197 24.7074 200.194 24.9485 200.194 25.1664V26.9262C200.194 27.1458 200.197 27.3841 200.2 27.6445C200.202 27.9055 200.207 28.1596 200.213 28.4115C200.222 28.6651 200.228 28.9051 200.239 29.1309C200.25 29.3567 200.26 29.5451 200.273 29.6937C200.125 29.6807 199.978 29.671 199.835 29.671C199.692 29.671 199.546 29.6807 199.398 29.6937C199.409 29.5451 199.421 29.3567 199.431 29.1309C199.442 28.9051 199.449 28.6657 199.457 28.4115C199.463 28.1602 199.468 27.9049 199.469 27.6445C199.475 27.3835 199.475 27.1452 199.475 26.9262V25.1664C199.475 24.9479 199.475 24.7068 199.469 24.4492H199.467ZM202.861 28.4495C202.943 28.702 203.046 28.9051 203.174 29.0566C203.299 29.2086 203.443 29.3147 203.605 29.3743C203.767 29.4327 203.925 29.4594 204.08 29.4594C204.331 29.4594 204.548 29.3981 204.73 29.2705C204.915 29.1403 205.069 28.9712 205.181 28.7752C205.302 28.5721 205.389 28.34 205.445 28.0796C205.5 27.8215 205.527 27.5622 205.527 27.3024C205.527 26.6811 205.407 26.2074 205.168 25.8801C204.927 25.5533 204.577 25.3893 204.111 25.3893C203.876 25.3893 203.675 25.4415 203.505 25.5482C203.332 25.656 203.189 25.8046 203.077 25.9964C202.964 26.1881 202.88 26.4105 202.825 26.6681C202.771 26.9234 202.742 27.1969 202.742 27.4868C202.741 27.8754 202.78 28.1971 202.861 28.4495ZM205.495 28.7729C205.443 28.8762 205.373 28.9885 205.286 29.1076C205.086 29.3804 204.807 29.5853 204.486 29.6948C204.306 29.7601 204.095 29.7936 203.858 29.7936C203.61 29.7936 203.37 29.7504 203.134 29.6659C202.894 29.58 202.678 29.4384 202.503 29.2529C202.318 29.0611 202.17 28.816 202.056 28.5136C201.944 28.2118 201.886 27.8499 201.886 27.4272C201.886 27.013 201.948 26.6539 202.072 26.3493C202.195 26.0446 202.353 25.7899 202.552 25.5868C202.75 25.3825 202.972 25.2305 203.221 25.1283C203.459 25.0306 203.714 24.9798 203.972 24.9786C204.691 24.9786 205.189 25.3042 205.468 25.9544H205.481L205.492 24.9984C205.492 24.7528 205.489 24.506 205.487 24.2575C205.482 24.009 205.479 23.7696 205.475 23.5438L205.464 22.9027C205.46 22.7041 205.452 22.5254 205.448 22.3694C205.525 22.3819 205.6 22.3921 205.671 22.4012C205.812 22.4187 205.954 22.4187 206.095 22.4012C206.171 22.3914 206.248 22.381 206.324 22.37C206.299 22.6694 206.282 22.9694 206.273 23.2697C206.26 23.6612 206.247 24.0941 206.237 24.5672C206.226 25.0398 206.22 25.5249 206.211 26.0236C206.205 26.5229 206.202 26.979 206.202 27.392C206.202 27.8402 206.205 28.2408 206.213 28.5976C206.221 28.955 206.229 29.3181 206.235 29.6948C205.984 29.6723 205.732 29.6723 205.481 29.6948L205.515 28.7735H205.494L205.495 28.7729ZM124.751 33.9964C124.581 33.9964 124.407 33.9975 124.222 34.0009C123.859 34.0094 123.496 34.028 123.133 34.0565C122.979 34.07 122.826 34.087 122.672 34.1076C122.702 34.0071 122.719 33.9031 122.721 33.7984C122.721 33.7263 122.704 33.6265 122.672 33.4977C123.1 33.509 123.518 33.5193 123.924 33.5283C124.763 33.5459 125.602 33.5459 126.441 33.5283C126.849 33.5187 127.266 33.509 127.694 33.4966C127.66 33.627 127.645 33.7303 127.645 33.8069C127.645 33.892 127.66 33.9924 127.694 34.1076C127.557 34.0889 127.402 34.0718 127.232 34.0565C127.062 34.0435 126.883 34.0321 126.699 34.0225C126.515 34.0128 126.33 34.0043 126.144 34.0009C125.968 33.9978 125.791 33.9963 125.615 33.9964C125.595 34.6666 125.585 35.3371 125.585 36.0076V37.6778C125.585 38.1045 125.594 38.5254 125.609 38.9402C125.623 39.3543 125.641 39.7628 125.659 40.1639C125.5 40.1483 125.341 40.1407 125.182 40.1412C125.012 40.1412 124.853 40.1486 124.706 40.1639C124.724 39.7628 124.741 39.3537 124.757 38.9396C124.774 38.5254 124.783 38.1033 124.783 37.6767L124.795 36.0059C124.795 35.3308 124.778 34.6613 124.751 33.9941L124.751 33.9964ZM130.23 36.2408C130.138 36.2088 130.041 36.1925 129.943 36.1925C129.788 36.1925 129.648 36.2289 129.526 36.3003C129.402 36.3696 129.299 36.4649 129.214 36.5857C129.131 36.7048 129.065 36.8484 129.021 37.0135C128.974 37.1854 128.951 37.3629 128.952 37.5411V38.6105C128.952 39.0451 128.954 39.3764 128.958 39.6068C128.962 39.836 128.975 40.0232 128.998 40.165C128.732 40.1345 128.463 40.1345 128.198 40.165C128.22 39.9438 128.233 39.6454 128.237 39.2664C128.241 38.8863 128.243 38.421 128.243 37.8707V37.5587C128.243 37.3074 128.241 37.0157 128.237 36.685C128.232 36.3542 128.22 35.9758 128.198 35.5475C128.27 35.5588 128.338 35.5719 128.403 35.5815C128.532 35.6017 128.663 35.6017 128.792 35.5815C128.856 35.5719 128.924 35.5588 128.997 35.5475C128.966 35.7801 128.95 35.965 128.946 36.1006C128.943 36.2368 128.94 36.3673 128.94 36.4898L128.963 36.4983C129.343 35.7994 129.77 35.4499 130.245 35.4499C130.302 35.4499 130.351 35.4533 130.394 35.4601C130.435 35.4681 130.49 35.4868 130.553 35.5157C130.521 35.5934 130.502 35.712 130.495 35.8703C130.49 36.0263 130.486 36.171 130.486 36.3003L130.419 36.348C130.385 36.3094 130.323 36.2731 130.23 36.2402L130.23 36.2408ZM133.72 37.8418C133.572 37.8702 133.426 37.8963 133.277 37.9258C133.128 37.9541 132.981 37.991 132.835 38.0375C132.697 38.0796 132.566 38.1419 132.446 38.2225C132.334 38.3002 132.243 38.3983 132.174 38.5152C132.106 38.6298 132.072 38.7807 132.072 38.9611C132.072 39.2675 132.161 39.4973 132.335 39.6533C132.511 39.8076 132.703 39.8876 132.916 39.8876C133.157 39.8888 133.393 39.8168 133.592 39.6811C133.797 39.5449 133.952 39.3872 134.063 39.2045L134.101 37.7442C133.977 37.7868 133.848 37.819 133.718 37.8407L133.72 37.8418ZM132.509 35.5656C132.756 35.4862 133.008 35.4493 133.266 35.4493C133.5 35.4493 133.714 35.4834 133.907 35.5515C134.103 35.6195 134.268 35.716 134.405 35.8419C134.542 35.969 134.651 36.1199 134.729 36.2992C134.806 36.4785 134.845 36.6748 134.845 36.8892C134.845 37.258 134.838 37.6256 134.824 37.9933C134.809 38.3592 134.801 38.7467 134.801 39.1546C134.801 39.2329 134.803 39.3146 134.807 39.4025C134.81 39.491 134.824 39.5688 134.85 39.6363C134.873 39.7007 134.91 39.7588 134.96 39.8053C135.009 39.8519 135.082 39.8751 135.18 39.8751C135.212 39.8751 135.246 39.8734 135.283 39.8712C135.318 39.8671 135.352 39.8555 135.383 39.8371V40.047C135.314 40.0794 135.224 40.1038 135.116 40.1236C135.01 40.1423 134.893 40.152 134.767 40.152C134.559 40.152 134.399 40.0992 134.287 39.9931C134.175 39.8837 134.106 39.7384 134.091 39.5829C133.859 39.8156 133.628 39.9875 133.401 40.097C133.174 40.2082 132.896 40.2638 132.566 40.2638C132.404 40.2642 132.244 40.2413 132.089 40.1957C131.937 40.1525 131.796 40.0761 131.676 39.9721C131.555 39.8677 131.455 39.7405 131.383 39.5977C131.307 39.4416 131.268 39.2695 131.271 39.0956C131.271 38.7075 131.393 38.4052 131.636 38.1924C131.879 37.9785 132.214 37.8367 132.642 37.7646C132.992 37.7051 133.266 37.6557 133.463 37.6132C133.662 37.5712 133.807 37.5269 133.901 37.4815C133.996 37.4378 134.053 37.3834 134.071 37.3227C134.092 37.2603 134.101 37.1808 134.101 37.0833C134.101 36.9216 134.082 36.7656 134.044 36.6169C134.008 36.4766 133.945 36.3447 133.858 36.2289C133.774 36.1182 133.663 36.028 133.528 35.9605C133.392 35.893 133.227 35.8584 133.033 35.8584C132.774 35.8584 132.534 35.9168 132.309 36.0331C132.088 36.1494 131.921 36.3111 131.81 36.5182H131.703V36.0133C131.995 35.792 132.265 35.6417 132.509 35.5651V35.5656ZM136.759 37.8191C136.769 37.5763 136.775 37.3346 136.775 37.0957C136.775 36.8688 136.773 36.6226 136.769 36.3554C136.766 36.0904 136.759 35.8221 136.752 35.5486C136.915 35.5787 137.053 35.5929 137.162 35.5929C137.266 35.5929 137.4 35.5787 137.562 35.5486C137.527 35.9742 137.502 36.4006 137.488 36.8274C137.471 37.3019 137.462 37.7766 137.462 38.2514C137.462 38.5895 137.492 38.8454 137.55 39.023C137.609 39.2028 137.68 39.3373 137.765 39.4281C137.854 39.5313 137.971 39.6176 138.108 39.6851C138.247 39.7543 138.411 39.7889 138.598 39.7889C138.87 39.7889 139.097 39.7282 139.279 39.6085C139.459 39.4893 139.593 39.3418 139.676 39.166C139.721 39.0559 139.758 38.9617 139.784 38.884C139.809 38.8063 139.831 38.7036 139.846 38.5737C139.862 38.4432 139.872 38.2684 139.876 38.0477C139.88 37.8293 139.881 37.5269 139.881 37.1457V36.3287C139.881 36.1869 139.88 36.049 139.879 35.9202L139.869 35.5503C139.938 35.5639 140.007 35.5741 140.071 35.5821C140.135 35.5923 140.201 35.5951 140.272 35.5951C140.343 35.5951 140.411 35.5912 140.475 35.5815C140.539 35.5739 140.603 35.5635 140.667 35.5503C140.634 36.0575 140.616 36.5449 140.61 37.014C140.602 37.4832 140.599 37.9819 140.599 38.5073C140.599 38.7989 140.602 39.0848 140.611 39.3617C140.618 39.6408 140.629 39.9103 140.643 40.1684C140.389 40.143 140.133 40.143 139.879 40.1684C139.894 40.0394 139.901 39.9097 139.9 39.7798V39.3645H139.881C139.712 39.6737 139.496 39.9035 139.231 40.0493C138.964 40.1945 138.675 40.2677 138.364 40.2677C137.859 40.2677 137.462 40.1338 137.171 39.8649C136.883 39.5949 136.74 39.2068 136.74 38.703C136.742 38.3569 136.747 38.0648 136.759 37.8208L136.759 37.8191ZM142.438 36.4467C142.43 36.1464 142.409 35.8467 142.376 35.548C142.558 35.5798 142.704 35.5963 142.816 35.5963C142.868 35.5963 142.925 35.5906 142.987 35.581C143.048 35.5719 143.122 35.5611 143.207 35.5469C143.184 35.8068 143.174 36.0649 143.174 36.3242H143.194C143.536 35.7398 144.017 35.4505 144.639 35.4505C144.8 35.4505 144.959 35.4732 145.113 35.522C145.269 35.5719 145.411 35.6371 145.537 35.7217C145.663 35.8056 145.771 35.9089 145.862 36.028C145.952 36.1483 146.013 36.2759 146.046 36.4138H146.065C146.221 36.1006 146.432 35.8624 146.7 35.6973C146.969 35.5322 147.277 35.4499 147.626 35.4499C147.839 35.4499 148.037 35.4783 148.218 35.5361C148.399 35.594 148.556 35.6853 148.687 35.8073C148.82 35.9321 148.924 36.091 148.998 36.285C149.072 36.4802 149.108 36.7117 149.108 36.9851C149.108 37.0946 149.105 37.2143 149.099 37.3442C149.092 37.4747 149.087 37.6245 149.081 37.7964C149.075 37.9666 149.068 38.1629 149.063 38.3808C149.05 38.8005 149.049 39.2205 149.059 39.6402C149.063 39.8008 149.07 39.9772 149.087 40.1645C149.016 40.1494 148.943 40.1418 148.87 40.1418H148.45C148.378 40.1418 148.306 40.1494 148.235 40.1645C148.255 40.0028 148.275 39.6766 148.297 39.183C148.32 38.6911 148.332 38.0052 148.332 37.1235C148.332 36.9636 148.313 36.8104 148.279 36.6685C148.248 36.5353 148.19 36.4098 148.109 36.2998C148.028 36.1923 147.922 36.1069 147.799 36.0513C147.669 35.9906 147.508 35.9594 147.315 35.9594C147.08 35.9594 146.883 36.0048 146.722 36.0944C146.575 36.1734 146.447 36.2829 146.345 36.4155C146.296 36.4817 146.255 36.5535 146.224 36.6294C146.194 36.7003 146.173 36.8087 146.156 36.9539C146.137 37.1571 146.126 37.3609 146.124 37.5649C146.108 38.1798 146.108 38.795 146.126 39.4099C146.135 39.6397 146.145 39.8904 146.157 40.1628C145.877 40.1336 145.595 40.1336 145.315 40.1628C145.342 39.8053 145.363 39.4445 145.374 39.0746C145.392 38.4745 145.396 37.8741 145.385 37.2739C145.384 37.1371 145.376 37.0004 145.362 36.8643C145.344 36.7025 145.294 36.5458 145.216 36.403C145.145 36.2793 145.033 36.1761 144.882 36.0887C144.74 36.0039 144.577 35.9585 144.412 35.9571C143.986 35.9571 143.672 36.0955 143.472 36.3747C143.272 36.6527 143.173 37.0453 143.173 37.549V38.3745C143.173 38.6661 143.177 38.9719 143.187 39.2919C143.198 39.6119 143.216 39.9035 143.249 40.1616C142.958 40.1317 142.664 40.1317 142.373 40.1616C142.407 39.8728 142.428 39.5826 142.436 39.2919C142.447 38.9708 142.45 38.665 142.45 38.3728V37.3641C142.453 37.0736 142.45 36.7684 142.438 36.4467ZM152.931 37.8418C152.786 37.8702 152.639 37.8963 152.492 37.9258C152.342 37.9541 152.195 37.991 152.049 38.0375C151.903 38.0829 151.774 38.1453 151.66 38.2225C151.548 38.3002 151.456 38.3983 151.389 38.5152C151.319 38.6298 151.287 38.7807 151.287 38.9611C151.287 39.2675 151.372 39.4973 151.548 39.6533C151.723 39.8076 151.916 39.8876 152.131 39.8876C152.372 39.8886 152.607 39.8166 152.806 39.6811C153.009 39.5449 153.167 39.3872 153.277 39.2045L153.315 37.7442C153.19 37.787 153.062 37.8192 152.931 37.8407V37.8418ZM151.724 35.5656C151.97 35.4862 152.222 35.4493 152.481 35.4493C152.716 35.4493 152.928 35.4834 153.122 35.5515C153.318 35.6195 153.483 35.716 153.62 35.8419C153.757 35.969 153.864 36.1199 153.943 36.2992C154.021 36.4785 154.06 36.6748 154.06 36.8892C154.06 37.258 154.052 37.6256 154.038 37.9933C154.022 38.3802 154.015 38.7674 154.015 39.1546C154.015 39.2329 154.015 39.3146 154.021 39.4025C154.023 39.491 154.038 39.5688 154.064 39.6363C154.089 39.7044 154.126 39.7622 154.175 39.8053C154.224 39.8519 154.296 39.8751 154.393 39.8751C154.426 39.8751 154.46 39.8734 154.495 39.8712C154.532 39.8674 154.566 39.8558 154.598 39.8371V40.047C154.526 40.0794 154.439 40.1038 154.331 40.1236C154.224 40.1423 154.107 40.152 153.983 40.152C153.774 40.152 153.614 40.0992 153.503 39.9931C153.389 39.885 153.319 39.7391 153.306 39.5829C153.071 39.8156 152.842 39.9875 152.615 40.097C152.389 40.2082 152.11 40.2638 151.78 40.2638C151.617 40.2638 151.459 40.2411 151.303 40.1957C151.15 40.1522 151.009 40.0759 150.889 39.9721C150.769 39.8673 150.671 39.7401 150.6 39.5977C150.522 39.442 150.483 39.2696 150.487 39.0956C150.487 38.7075 150.609 38.4052 150.851 38.1924C151.095 37.9785 151.43 37.8367 151.858 37.7646C152.21 37.7051 152.482 37.6557 152.681 37.6132C152.877 37.5712 153.023 37.5269 153.117 37.4815C153.212 37.4378 153.268 37.3834 153.289 37.3227C153.308 37.2603 153.317 37.1808 153.317 37.0833C153.317 36.9216 153.298 36.7656 153.26 36.6169C153.221 36.4683 153.158 36.3389 153.073 36.2289C152.986 36.1149 152.873 36.023 152.744 35.9605C152.609 35.8924 152.443 35.8584 152.249 35.8584C151.99 35.8584 151.748 35.9168 151.527 36.0331C151.305 36.1494 151.135 36.3111 151.026 36.5182H150.918V36.0133C151.211 35.792 151.479 35.6417 151.724 35.5651V35.5656ZM156.84 34.2511C156.82 34.4985 156.805 34.7407 156.797 34.9773C156.787 35.2139 156.774 35.4539 156.761 35.6939C156.833 35.6939 156.967 35.6916 157.16 35.6882C157.354 35.6848 157.565 35.6751 157.791 35.6598C157.782 35.695 157.778 35.7313 157.78 35.7676V35.973C157.78 36.0195 157.783 36.0524 157.791 36.0706C157.706 36.0626 157.619 36.0592 157.528 36.0535C157.438 36.0507 157.34 36.0479 157.237 36.0479H156.761C156.755 36.0751 156.747 36.1784 156.738 36.3599C156.728 36.5403 156.721 36.757 156.714 37.0067C156.708 37.2563 156.702 37.5173 156.7 37.7907C156.697 38.0631 156.696 38.3047 156.696 38.5186C156.696 38.7002 156.699 38.8789 156.709 39.0536C156.718 39.2295 156.749 39.3849 156.801 39.5245C156.853 39.6641 156.93 39.777 157.034 39.8604C157.138 39.9455 157.287 39.988 157.481 39.988C157.532 39.988 157.602 39.9801 157.689 39.9653C157.777 39.9529 157.852 39.9347 157.917 39.9143V40.1486C157.807 40.1673 157.684 40.1917 157.553 40.2206C157.427 40.2497 157.298 40.2645 157.169 40.2649C156.761 40.2649 156.46 40.1639 156.264 39.9642C156.069 39.7639 155.972 39.4683 155.972 39.0803C155.972 38.8904 155.975 38.7005 155.981 38.5107L156.005 37.8412C156.027 37.2443 156.038 36.6469 156.039 36.0496H155.725C155.673 36.0496 155.618 36.0513 155.561 36.0535C155.502 36.0592 155.44 36.0632 155.376 36.0706C155.382 36.032 155.387 35.994 155.391 35.9571C155.392 35.9231 155.395 35.8845 155.395 35.8448C155.395 35.8107 155.392 35.7807 155.391 35.7472C155.387 35.7148 155.38 35.6819 155.376 35.6496C155.668 35.6723 155.881 35.6819 156.017 35.6819C156.01 35.5532 156.006 35.3915 156.003 35.1969C156.002 35.0017 155.995 34.7997 155.983 34.5932L156.789 34.2517H156.84L156.84 34.2511ZM159.2 37.3664V38.3762C159.2 38.6684 159.194 38.9742 159.187 39.2953C159.179 39.5861 159.157 39.8763 159.122 40.165C159.413 40.1353 159.707 40.1353 159.998 40.165C159.964 39.8762 159.943 39.586 159.936 39.2953C159.927 38.989 159.922 38.6826 159.921 38.3762V37.3664C159.921 37.0748 159.927 36.769 159.936 36.4473C159.946 36.1284 159.967 35.8289 159.998 35.5492C159.818 35.5832 159.672 35.5985 159.561 35.5985C159.451 35.5985 159.305 35.5832 159.122 35.5498C159.156 35.8294 159.177 36.1296 159.186 36.449C159.194 36.7701 159.199 37.0759 159.199 37.3681L159.2 37.3664ZM159.066 33.8591C159.066 33.993 159.115 34.1087 159.212 34.2069C159.308 34.3044 159.425 34.3521 159.56 34.3521C159.695 34.3521 159.811 34.3039 159.908 34.2063C160.005 34.1087 160.054 33.9924 160.054 33.8585C160.054 33.7935 160.042 33.729 160.017 33.669C159.992 33.609 159.955 33.5547 159.908 33.5096C159.863 33.4631 159.808 33.4263 159.749 33.4016C159.689 33.3768 159.624 33.3645 159.559 33.3655C159.495 33.3645 159.43 33.3768 159.37 33.4017C159.31 33.4266 159.256 33.4635 159.211 33.5102C159.164 33.5553 159.127 33.6095 159.102 33.6695C159.076 33.7296 159.064 33.7941 159.065 33.8591H159.066ZM161.827 36.782C161.97 36.4756 162.156 36.226 162.385 36.0286C162.615 35.8312 162.879 35.6853 163.177 35.5917C163.475 35.4981 163.778 35.4499 164.089 35.4499C164.446 35.4499 164.764 35.4936 165.045 35.5804C165.327 35.6683 165.53 35.7659 165.652 35.8765C165.607 35.9741 165.566 36.0762 165.53 36.1829C165.495 36.2896 165.465 36.4008 165.438 36.5176H165.36C165.311 36.4244 165.249 36.3378 165.177 36.2601C165.005 36.0684 164.788 35.9216 164.546 35.8323C164.409 35.7832 164.265 35.7588 164.119 35.7602C163.828 35.7602 163.577 35.8136 163.367 35.9191C163.157 36.028 162.985 36.1755 162.852 36.3639C162.72 36.5522 162.623 36.7724 162.561 37.0311C162.5 37.2864 162.469 37.5644 162.469 37.8622C162.469 38.5317 162.611 39.0355 162.896 39.3759C163.18 39.7174 163.597 39.8876 164.146 39.8876C164.277 39.8876 164.41 39.8689 164.546 39.8331C164.821 39.7609 165.08 39.6367 165.308 39.4672C165.422 39.3821 165.52 39.2913 165.604 39.1938L165.652 39.2221C165.62 39.3776 165.601 39.5376 165.593 39.6987C165.4 39.8553 165.16 39.988 164.871 40.0981C164.585 40.2083 164.281 40.2644 163.974 40.2638C163.696 40.2638 163.415 40.2229 163.134 40.1418C162.854 40.0611 162.595 39.9218 162.372 39.7333C162.137 39.5285 161.949 39.2744 161.822 38.9889C161.686 38.6826 161.616 38.3121 161.616 37.8696C161.614 37.4498 161.685 37.0867 161.827 36.7814V36.782ZM170.284 39.2545C170.37 39.3736 170.477 39.4837 170.606 39.579C170.733 39.6777 170.878 39.7566 171.048 39.8184C171.217 39.8791 171.405 39.9103 171.613 39.9103C171.829 39.9103 172.02 39.8729 172.193 39.7985C172.366 39.7236 172.511 39.6238 172.63 39.4978C172.752 39.3713 172.844 39.2221 172.909 39.0497C172.975 38.8795 173.008 38.6968 173.008 38.5016C173.008 38.2049 172.93 37.9683 172.778 37.7924C172.618 37.6119 172.424 37.4636 172.208 37.3556C171.98 37.2393 171.735 37.1326 171.471 37.0356C171.206 36.9386 170.962 36.8183 170.733 36.6725C170.506 36.525 170.317 36.3378 170.164 36.1125C170.01 35.8873 169.934 35.5815 169.934 35.2008C169.934 34.9285 169.983 34.68 170.08 34.4576C170.175 34.2355 170.318 34.0377 170.5 33.8789C170.694 33.7106 170.92 33.5824 171.164 33.5017C171.423 33.4092 171.715 33.3655 172.039 33.3655C172.348 33.3655 172.617 33.4018 172.844 33.4744C173.069 33.5482 173.281 33.6617 173.474 33.8171C173.415 33.9292 173.366 34.0463 173.329 34.1672C173.282 34.3202 173.243 34.4754 173.212 34.6324H173.097C173.059 34.5314 173.016 34.4329 172.966 34.3374C172.909 34.2269 172.833 34.1268 172.743 34.0412C172.644 33.9475 172.531 33.8708 172.408 33.8143C172.262 33.7492 172.103 33.7176 171.943 33.7218C171.761 33.7218 171.594 33.7502 171.442 33.8092C171.294 33.8639 171.159 33.9483 171.044 34.0571C170.931 34.1649 170.843 34.2931 170.781 34.4406C170.721 34.5904 170.689 34.7526 170.689 34.9257C170.689 35.2303 170.764 35.4703 170.917 35.6462C171.07 35.8221 171.26 35.9684 171.488 36.0887C171.716 36.2079 171.963 36.314 172.226 36.4081C172.489 36.5017 172.734 36.6169 172.962 36.7531C173.189 36.8892 173.38 37.0651 173.534 37.2784C173.686 37.4923 173.764 37.776 173.764 38.1328C173.764 38.4318 173.708 38.7115 173.602 38.9782C173.496 39.2448 173.34 39.4757 173.135 39.6732C172.931 39.8706 172.68 40.0221 172.385 40.1287C172.091 40.2365 171.756 40.2904 171.379 40.2904C170.977 40.2904 170.65 40.2371 170.4 40.1316C170.176 40.0393 169.965 39.9167 169.774 39.7673C169.833 39.6198 169.874 39.4837 169.896 39.3657C169.919 39.2448 169.94 39.0922 169.959 38.9038H170.076C170.127 39.0196 170.197 39.1382 170.286 39.2579L170.284 39.2545ZM176.102 34.2511C176.083 34.4985 176.068 34.7407 176.059 34.9773C176.047 35.2139 176.037 35.4539 176.025 35.6939C176.094 35.6939 176.228 35.6916 176.422 35.6882C176.616 35.6848 176.827 35.6751 177.053 35.6598C177.045 35.6952 177.042 35.7314 177.043 35.7676V35.973C177.043 36.0195 177.049 36.0524 177.054 36.0706C176.969 36.0626 176.882 36.0592 176.792 36.0535C176.701 36.0507 176.605 36.0479 176.498 36.0479H176.024C176.018 36.0751 176.009 36.1784 176 36.3599C175.991 36.5415 175.983 36.757 175.977 37.0067L175.96 37.7907C175.96 38.0631 175.957 38.3047 175.957 38.5186C175.957 38.7002 175.96 38.8789 175.97 39.0536C175.98 39.2295 176.011 39.3849 176.063 39.5245C176.116 39.6641 176.194 39.777 176.296 39.8604C176.4 39.9455 176.548 39.988 176.742 39.988C176.793 39.988 176.864 39.9801 176.951 39.9653C177.039 39.9529 177.115 39.9347 177.18 39.9143V40.1486C177.058 40.1699 176.936 40.1939 176.816 40.2206C176.683 40.2507 176.555 40.2649 176.432 40.2649C176.024 40.2649 175.722 40.1639 175.528 39.9642C175.333 39.7639 175.235 39.4683 175.235 39.0803C175.235 38.9044 175.238 38.7155 175.244 38.5107C175.25 38.3087 175.259 38.0852 175.268 37.8412C175.291 37.2439 175.302 36.6462 175.301 36.0484H174.987C174.936 36.0484 174.881 36.0513 174.824 36.0541C174.765 36.0598 174.703 36.0638 174.638 36.0711C174.645 36.0337 174.65 35.9958 174.652 35.9577C174.66 35.8879 174.66 35.8175 174.652 35.7478C174.649 35.7149 174.645 35.6823 174.638 35.6502C174.929 35.6729 175.143 35.6825 175.279 35.6825C175.272 35.5209 175.267 35.3592 175.266 35.1974C175.263 34.9961 175.256 34.7948 175.245 34.5938L176.051 34.2523H176.102L176.102 34.2511ZM180.25 36.2408C180.158 36.2088 180.061 36.1925 179.964 36.1925C179.811 36.1925 179.67 36.2289 179.548 36.3003C179.423 36.3696 179.321 36.4649 179.238 36.5857C179.148 36.7159 179.082 36.8606 179.042 37.0135C178.996 37.178 178.974 37.355 178.974 37.5411V38.6105C178.974 39.0451 178.975 39.3764 178.981 39.6068C178.984 39.836 178.996 40.0232 179.019 40.165C178.753 40.1347 178.485 40.1347 178.219 40.165C178.242 39.9438 178.254 39.6454 178.259 39.2664C178.261 38.8863 178.265 38.421 178.265 37.8707V37.5587C178.265 37.3074 178.261 37.0157 178.259 36.685C178.254 36.3542 178.242 35.9758 178.219 35.5475C178.291 35.5588 178.358 35.5719 178.423 35.5815C178.553 35.6018 178.684 35.6018 178.814 35.5815C178.877 35.5719 178.945 35.5588 179.018 35.5475C178.988 35.7801 178.971 35.965 178.969 36.1006C178.963 36.2368 178.963 36.3673 178.963 36.4898L178.983 36.4983C179.364 35.7994 179.791 35.4499 180.264 35.4499C180.322 35.4499 180.372 35.4533 180.415 35.4601C180.456 35.4681 180.51 35.4868 180.576 35.5157C180.542 35.5934 180.523 35.712 180.516 35.8703C180.509 36.0263 180.506 36.171 180.506 36.3003L180.438 36.348C180.407 36.3094 180.343 36.2731 180.251 36.2402L180.25 36.2408ZM182.983 35.9248C182.818 36.0343 182.682 36.1721 182.575 36.3372C182.469 36.5017 182.388 36.6816 182.333 36.879C182.281 37.061 182.247 37.2476 182.231 37.4361C182.431 37.4441 182.639 37.4503 182.857 37.4588C183.072 37.4645 183.286 37.4702 183.492 37.4702C183.706 37.4702 183.922 37.4645 184.142 37.4588C184.363 37.4503 184.577 37.4441 184.783 37.4361C184.783 37.2603 184.769 37.077 184.739 36.8841C184.712 36.6944 184.653 36.5108 184.564 36.3412C184.477 36.1727 184.356 36.0348 184.201 35.9248C184.046 35.8147 183.842 35.7602 183.588 35.7602C183.35 35.7602 183.147 35.8147 182.983 35.9248ZM181.912 36.1307C182.292 35.6768 182.844 35.4499 183.57 35.4499C183.913 35.4499 184.21 35.5049 184.459 35.6099C184.708 35.7165 184.918 35.8595 185.086 36.0377C185.254 36.2158 185.379 36.4257 185.46 36.6646C185.541 36.9051 185.582 37.161 185.582 37.4333C185.582 37.4974 185.578 37.561 185.575 37.6239C185.572 37.6846 185.564 37.7487 185.558 37.8134C185.212 37.8048 184.866 37.7972 184.519 37.7907C184.173 37.7835 183.827 37.7797 183.481 37.7794C183.268 37.7794 183.056 37.7834 182.845 37.7907C182.634 37.7981 182.422 37.8043 182.208 37.8134C182.201 37.8458 182.197 37.8929 182.197 37.9587V38.0852C182.197 38.3382 182.235 38.5754 182.308 38.7972C182.377 39.0069 182.488 39.2007 182.633 39.3668C182.778 39.5256 182.951 39.6505 183.159 39.7469C183.367 39.8417 183.605 39.8887 183.879 39.8887C184.01 39.8887 184.142 39.8695 184.278 39.8337C184.414 39.798 184.546 39.7497 184.675 39.6873C184.806 39.6249 184.927 39.5523 185.041 39.4678C185.154 39.3827 185.252 39.2919 185.338 39.1943L185.386 39.2227L185.327 39.6993C185.132 39.8558 184.891 39.9886 184.605 40.0987C184.315 40.2093 184.015 40.2649 183.705 40.2649C183.354 40.2649 183.035 40.2104 182.747 40.1043C182.469 40.0041 182.215 39.8461 182.002 39.6408C181.789 39.4354 181.622 39.1874 181.512 38.9129C181.397 38.6251 181.339 38.3178 181.342 38.008C181.343 37.2098 181.533 36.584 181.912 36.1301V36.1307ZM186.983 39.4757C187.053 39.5534 187.131 39.6266 187.226 39.6941C187.319 39.7622 187.427 39.819 187.546 39.8643C187.665 39.9097 187.792 39.9324 187.927 39.9324C188.049 39.9324 188.167 39.9126 188.28 39.8734C188.392 39.8348 188.492 39.7792 188.58 39.7089C188.665 39.6374 188.734 39.5455 188.786 39.4366C188.84 39.3271 188.865 39.1983 188.865 39.0553C188.865 38.8551 188.809 38.7024 188.693 38.5946C188.571 38.4811 188.429 38.3916 188.274 38.3308C188.093 38.2602 187.909 38.2007 187.721 38.1527C187.529 38.1033 187.344 38.0297 187.17 37.9337C187.004 37.8404 186.859 37.7123 186.747 37.5581C186.636 37.4032 186.579 37.1905 186.579 36.9153C186.579 36.702 186.613 36.5068 186.686 36.3287C186.754 36.1538 186.859 35.9961 186.995 35.8669C187.129 35.7364 187.299 35.6343 187.497 35.5605C187.718 35.4822 187.951 35.4445 188.186 35.4493C188.424 35.4493 188.625 35.4817 188.79 35.5446C188.954 35.6088 189.111 35.6666 189.261 35.7165C189.207 35.813 189.159 35.9338 189.113 36.0757C189.077 36.1836 189.048 36.2939 189.027 36.4059H188.911C188.852 36.2418 188.749 36.0975 188.613 35.9894C188.465 35.8646 188.281 35.8034 188.065 35.8034C187.967 35.8034 187.871 35.8204 187.776 35.8521C187.677 35.8848 187.586 35.937 187.509 36.0058C187.431 36.0745 187.368 36.1583 187.323 36.2521C187.272 36.3565 187.246 36.479 187.246 36.622C187.246 36.8291 187.302 36.9908 187.416 37.1043C187.529 37.2177 187.668 37.3068 187.837 37.3726C188.005 37.4367 188.188 37.4934 188.389 37.5411C188.588 37.5922 188.773 37.6602 188.94 37.7453C189.109 37.8344 189.248 37.9564 189.361 38.1124C189.474 38.2684 189.531 38.4823 189.531 38.7552C189.531 38.9424 189.49 39.1274 189.41 39.3112C189.329 39.4927 189.211 39.655 189.06 39.8025C188.907 39.9472 188.726 40.0612 188.512 40.1429C188.299 40.2246 188.057 40.2643 187.784 40.2643C187.489 40.2643 187.24 40.2343 187.04 40.177C186.864 40.1281 186.695 40.0586 186.535 39.9699C186.572 39.8859 186.613 39.7713 186.654 39.6266C186.697 39.4803 186.718 39.36 186.718 39.2618H186.834C186.868 39.3265 186.917 39.398 186.984 39.4746L186.983 39.4757ZM191.053 39.4757C191.118 39.5534 191.199 39.6266 191.293 39.6941C191.387 39.7622 191.493 39.819 191.613 39.8643C191.733 39.9097 191.861 39.9324 191.995 39.9324C192.12 39.9324 192.235 39.9126 192.348 39.8734C192.459 39.8348 192.561 39.7792 192.647 39.7089C192.735 39.6349 192.806 39.5418 192.854 39.4366C192.908 39.3271 192.933 39.1983 192.933 39.0553C192.933 38.8551 192.876 38.7024 192.763 38.5946C192.649 38.4869 192.51 38.4006 192.342 38.3308C192.162 38.2601 191.977 38.2006 191.789 38.1527C191.597 38.1035 191.411 38.0299 191.237 37.9337C191.072 37.8407 190.928 37.7125 190.817 37.5581C190.704 37.4032 190.647 37.1905 190.647 36.9153C190.647 36.702 190.684 36.5068 190.753 36.3287C190.825 36.1506 190.929 35.9962 191.064 35.8669C191.2 35.7364 191.366 35.6343 191.566 35.5605C191.787 35.4824 192.019 35.4448 192.253 35.4493C192.491 35.4493 192.692 35.4817 192.856 35.5446C193.021 35.6088 193.178 35.6666 193.326 35.7165C193.275 35.813 193.224 35.9338 193.181 36.0757C193.137 36.2186 193.107 36.327 193.094 36.4059H192.978C192.92 36.2414 192.816 36.097 192.679 35.9894C192.533 35.8646 192.35 35.8034 192.131 35.8034C192.036 35.8034 191.939 35.8204 191.844 35.8521C191.746 35.8862 191.661 35.9344 191.583 35.9996C191.507 36.0638 191.442 36.1494 191.39 36.2521C191.339 36.3571 191.314 36.479 191.314 36.6226C191.314 36.8297 191.369 36.9914 191.484 37.1048C191.595 37.2183 191.736 37.3074 191.904 37.3732C192.073 37.4373 192.256 37.494 192.457 37.5417C192.656 37.5927 192.841 37.6608 193.007 37.7459C193.176 37.835 193.317 37.957 193.429 38.113C193.542 38.269 193.6 38.4829 193.6 38.7558C193.6 38.943 193.559 39.1279 193.478 39.3118C193.395 39.4933 193.279 39.6556 193.128 39.8031C192.97 39.9524 192.784 40.0682 192.58 40.1435C192.348 40.2278 192.101 40.269 191.854 40.2649C191.557 40.2649 191.307 40.2348 191.108 40.1775C190.933 40.1288 190.763 40.0593 190.604 39.9704C190.64 39.8865 190.682 39.7719 190.723 39.6272C190.766 39.4808 190.786 39.3606 190.786 39.2624H190.903C190.935 39.3271 190.985 39.3986 191.055 39.4752L191.053 39.4757ZM201.314 37.641C200.477 36.7407 199.638 35.8424 198.796 34.9461C198.772 35.6024 198.76 36.2591 198.762 36.9159C198.762 37.0521 198.764 37.2223 198.768 37.422L198.777 38.0551C198.782 38.2747 198.786 38.4976 198.793 38.7246C198.798 38.9515 198.805 39.1614 198.811 39.3543C198.818 39.55 198.824 39.7208 198.831 39.8666C198.833 39.9652 198.84 40.0636 198.851 40.1616C198.617 40.137 198.381 40.137 198.147 40.1616C198.161 40.097 198.176 39.9761 198.192 39.8019C198.209 39.6261 198.223 39.4184 198.235 39.175L198.279 38.3853C198.295 38.0994 198.307 37.8157 198.318 37.5298C198.327 37.2461 198.336 36.967 198.343 36.6958C198.348 36.4234 198.352 36.1795 198.352 35.9662C198.352 35.3444 198.349 34.8116 198.346 34.364C198.346 34.031 198.337 33.6981 198.319 33.3655H198.474C198.869 33.791 199.29 34.2488 199.741 34.7385C200.19 35.2264 200.637 35.7086 201.08 36.1852C201.525 36.6617 201.946 37.1111 202.343 37.5354C202.686 37.902 203.035 38.2629 203.389 38.6179V37.296C203.389 36.6169 203.382 35.9554 203.375 35.3103C203.366 34.7029 203.344 34.0957 203.31 33.4892C203.442 33.521 203.552 33.5374 203.643 33.5374C203.722 33.5374 203.825 33.5204 203.955 33.4898C203.941 33.6333 203.927 33.8449 203.909 34.132C203.892 34.4156 203.873 34.7192 203.858 35.0437C203.84 35.3671 203.822 35.6848 203.809 35.9951C203.796 36.3054 203.788 36.5545 203.788 36.7417V37.3244C203.788 37.5456 203.79 37.7743 203.794 38.0148C203.799 38.2542 203.803 38.4948 203.805 38.737C203.808 38.981 203.813 39.2057 203.816 39.4179C203.82 39.6278 203.822 39.8105 203.822 39.9648V40.2859H203.688C202.913 39.3898 202.122 38.508 201.315 37.641H201.314ZM207.099 35.9248C206.937 36.0329 206.798 36.1733 206.693 36.3372C206.587 36.5017 206.505 36.6816 206.45 36.879C206.398 37.061 206.364 37.2476 206.348 37.4361C206.548 37.4441 206.756 37.4503 206.974 37.4588C207.189 37.4645 207.401 37.4702 207.609 37.4702C207.821 37.4702 208.039 37.4645 208.259 37.4588C208.479 37.4503 208.693 37.4441 208.9 37.4361C208.9 37.2603 208.886 37.077 208.855 36.8841C208.828 36.6945 208.769 36.5109 208.68 36.3412C208.595 36.1727 208.472 36.0348 208.317 35.9248C208.162 35.8147 207.958 35.7602 207.705 35.7602C207.467 35.7602 207.265 35.8147 207.098 35.9248H207.099ZM206.029 36.1307C206.408 35.6768 206.96 35.4499 207.686 35.4499C208.029 35.4499 208.325 35.5049 208.576 35.6099C208.825 35.7165 209.036 35.8595 209.203 36.0377C209.37 36.2158 209.496 36.4257 209.577 36.6646C209.658 36.9051 209.698 37.161 209.698 37.4333C209.698 37.4974 209.696 37.561 209.692 37.6239C209.689 37.6846 209.683 37.7487 209.675 37.8134C209.326 37.8043 208.977 37.7964 208.635 37.7907C208.289 37.7835 207.943 37.7797 207.597 37.7794C207.384 37.7794 207.172 37.7834 206.96 37.7907C206.751 37.7964 206.538 37.8043 206.324 37.8134C206.318 37.8458 206.313 37.8929 206.313 37.9587V38.0852C206.313 38.3382 206.351 38.5754 206.426 38.7972C206.501 39.0184 206.608 39.2074 206.751 39.3668C206.893 39.5256 207.069 39.6505 207.275 39.7469C207.482 39.8417 207.723 39.8887 207.995 39.8887C208.126 39.8887 208.258 39.8695 208.395 39.8337C208.67 39.7612 208.929 39.637 209.158 39.4678C209.271 39.3827 209.369 39.2919 209.453 39.1943L209.502 39.2227L209.444 39.6993C209.248 39.8558 209.007 39.9886 208.72 40.0987C208.433 40.2091 208.128 40.2655 207.821 40.2649C207.47 40.2649 207.151 40.2104 206.864 40.1043C206.584 40.0029 206.329 39.8441 206.114 39.638C205.904 39.4328 205.739 39.186 205.629 38.9135C205.514 38.6258 205.456 38.3184 205.459 38.0086C205.459 37.2103 205.649 36.5846 206.027 36.1307H206.029ZM211.88 34.2511C211.86 34.4985 211.846 34.7407 211.836 34.9773C211.826 35.2139 211.815 35.4539 211.802 35.6939C211.872 35.6939 212.005 35.6916 212.199 35.6882C212.393 35.6848 212.604 35.6751 212.831 35.6598C212.822 35.695 212.818 35.7314 212.82 35.7676V35.973C212.82 36.0195 212.823 36.0524 212.831 36.0706C212.746 36.0626 212.658 36.0592 212.568 36.0535C212.477 36.0507 212.381 36.0479 212.276 36.0479H211.802C211.796 36.0751 211.787 36.1784 211.779 36.3599C211.768 36.5403 211.761 36.757 211.755 37.0067C211.748 37.2563 211.744 37.5173 211.741 37.7907C211.735 38.0631 211.735 38.3047 211.735 38.5186C211.735 38.7002 211.741 38.8789 211.748 39.0536C211.76 39.2295 211.79 39.3849 211.841 39.5245C211.892 39.6641 211.97 39.777 212.074 39.8604C212.177 39.9455 212.326 39.988 212.521 39.988C212.572 39.988 212.642 39.9801 212.731 39.9653C212.817 39.9529 212.893 39.9347 212.956 39.9143V40.1486C212.847 40.1673 212.726 40.1917 212.593 40.2206C212.467 40.2496 212.339 40.2644 212.21 40.2649C211.802 40.2649 211.499 40.1639 211.305 39.9642C211.109 39.7639 211.012 39.4683 211.012 39.0803C211.012 38.9044 211.015 38.7155 211.022 38.5107C211.028 38.3087 211.037 38.0852 211.045 37.8412C211.068 37.2443 211.08 36.647 211.079 36.0496H210.764C210.713 36.0496 210.658 36.0513 210.601 36.0535C210.542 36.0592 210.481 36.0632 210.416 36.0706C210.423 36.032 210.427 35.994 210.429 35.9571C210.432 35.9231 210.436 35.8845 210.436 35.8448C210.436 35.8107 210.432 35.7807 210.429 35.7472C210.427 35.7144 210.422 35.6818 210.416 35.6496C210.708 35.6723 210.922 35.6819 211.057 35.6819C211.051 35.5532 211.046 35.3915 211.044 35.1969C211.041 35.0017 211.034 34.7997 211.024 34.5932L211.83 34.2517H211.879L211.88 34.2511ZM214.818 39.2522C214.689 38.8834 214.547 38.4874 214.395 38.071C214.245 37.6523 214.086 37.2257 213.921 36.7877C213.765 36.372 213.601 35.959 213.432 35.5486C213.508 35.5617 213.585 35.5713 213.658 35.5798C213.734 35.59 213.81 35.5929 213.887 35.5929C213.958 35.5929 214.029 35.5895 214.1 35.5798C214.178 35.5714 214.256 35.561 214.334 35.5486C214.502 36.1579 214.688 36.7684 214.892 37.3811C215.096 37.9938 215.324 38.6224 215.577 39.2703C215.655 39.0888 215.749 38.8505 215.859 38.5527C215.969 38.2537 216.081 37.9331 216.199 37.5899C216.315 37.2467 216.43 36.896 216.547 36.5403C216.663 36.1829 216.768 35.8538 216.859 35.5486C216.974 35.5787 217.072 35.5929 217.149 35.5929C217.202 35.5929 217.246 35.5895 217.285 35.5798C217.331 35.5707 217.376 35.5603 217.42 35.5486C217.583 36.1716 217.771 36.7854 217.984 37.3902C218.205 38.0176 218.428 38.6441 218.654 39.2698C218.737 39.0633 218.838 38.8091 218.95 38.5078C219.065 38.2055 219.183 37.8883 219.305 37.5547C219.429 37.2211 219.554 36.8796 219.679 36.5295C219.806 36.1795 219.924 35.8544 220.033 35.548C220.162 35.5781 220.266 35.5923 220.343 35.5923C220.428 35.5923 220.525 35.5781 220.636 35.548C220.275 36.3148 219.93 37.0892 219.602 37.8707C219.285 38.6284 218.986 39.3931 218.704 40.1645C218.621 40.1482 218.537 40.1406 218.453 40.1418H218.317C218.277 40.1406 218.237 40.1484 218.201 40.1645C217.847 38.9524 217.433 37.7591 216.958 36.5891C216.879 36.782 216.785 37.0248 216.674 37.3125C216.433 37.9525 216.203 38.5971 215.986 39.2459C215.87 39.5864 215.767 39.8927 215.676 40.165C215.597 40.1492 215.506 40.1423 215.404 40.1423C215.3 40.1423 215.208 40.1492 215.132 40.165C215.054 39.9239 214.95 39.6204 214.82 39.2516L214.818 39.2522ZM222.252 38.6616C222.301 38.9169 222.383 39.1427 222.5 39.3407C222.616 39.5381 222.771 39.6953 222.966 39.8127C223.16 39.9279 223.398 39.9886 223.683 39.9886C223.968 39.9886 224.206 39.9285 224.401 39.8127C224.594 39.6953 224.75 39.5381 224.866 39.3407C224.982 39.1421 225.066 38.9163 225.115 38.6616C225.163 38.4091 225.187 38.1465 225.187 37.873C225.187 37.6007 225.163 37.3386 225.115 37.0844C225.071 36.8468 224.987 36.6185 224.867 36.4093C224.75 36.2107 224.594 36.0518 224.402 35.9355C224.206 35.8181 223.968 35.7597 223.683 35.7597C223.398 35.7597 223.16 35.8181 222.966 35.9355C222.773 36.0503 222.612 36.2133 222.501 36.4087C222.379 36.6176 222.295 36.846 222.252 37.0838C222.203 37.3438 222.179 37.6079 222.18 37.8724C222.18 38.1465 222.204 38.4091 222.252 38.661V38.6616ZM221.534 36.7491C221.673 36.4399 221.855 36.1908 222.083 35.9991C222.308 35.8073 222.562 35.6689 222.843 35.5815C223.124 35.4942 223.405 35.451 223.683 35.451C223.968 35.451 224.248 35.4942 224.527 35.5815C224.805 35.6689 225.059 35.8073 225.284 35.9991C225.51 36.1908 225.693 36.4399 225.832 36.7491C225.972 37.0555 226.042 37.4299 226.042 37.8724C226.042 38.3138 225.972 38.6883 225.832 38.9958C225.692 39.3033 225.511 39.5517 225.284 39.7446C225.064 39.932 224.805 40.0698 224.527 40.1486C224.252 40.2252 223.968 40.2643 223.683 40.2649C223.405 40.2649 223.126 40.2252 222.844 40.1486C222.564 40.0707 222.304 39.9326 222.083 39.7441C221.856 39.5523 221.674 39.3033 221.535 38.9952C221.396 38.6888 221.325 38.3144 221.325 37.8719C221.325 37.4305 221.396 37.056 221.535 36.7485L221.534 36.7491ZM229.445 36.2408C229.33 36.2009 229.208 36.1856 229.087 36.1957C228.966 36.2059 228.848 36.2413 228.742 36.2998C228.618 36.3696 228.515 36.4643 228.43 36.5857C228.347 36.7048 228.282 36.8484 228.237 37.0135C228.191 37.178 228.169 37.355 228.169 37.5411V38.6105C228.169 39.0451 228.171 39.3764 228.174 39.6068C228.179 39.836 228.191 40.0232 228.212 40.165C227.947 40.1346 227.679 40.1346 227.414 40.165C227.436 39.9438 227.449 39.6454 227.45 39.2664C227.456 38.8863 227.458 38.421 227.458 37.8707V37.5587C227.458 37.3074 227.457 37.0157 227.45 36.685C227.447 36.3056 227.434 35.9263 227.413 35.5475C227.484 35.5588 227.554 35.5719 227.617 35.5815C227.747 35.6012 227.878 35.6012 228.008 35.5815C228.072 35.5719 228.139 35.5588 228.211 35.5475C228.182 35.7801 228.165 35.965 228.161 36.1006C228.157 36.2368 228.155 36.3673 228.155 36.4898L228.177 36.4983C228.558 35.7994 228.984 35.4499 229.458 35.4499C229.517 35.4499 229.567 35.4533 229.608 35.4601C229.651 35.4681 229.704 35.4868 229.769 35.5157C229.737 35.5934 229.717 35.712 229.711 35.8703C229.704 36.0263 229.7 36.171 229.7 36.3003L229.634 36.348C229.602 36.3094 229.54 36.2731 229.445 36.2402V36.2408ZM231 34.9189C230.996 34.6624 230.991 34.4054 230.986 34.153C230.979 33.9116 230.971 33.6703 230.962 33.429C230.953 33.201 230.941 33.0035 230.928 32.8419C231.11 32.8714 231.256 32.8872 231.366 32.8872C231.476 32.8872 231.623 32.8714 231.804 32.8419C231.789 33.0372 231.778 33.2328 231.769 33.4285C231.76 33.66 231.752 33.9005 231.746 34.1518C231.733 34.6476 231.726 35.1435 231.726 35.6394V37.4038C231.726 37.5286 231.764 37.5888 231.843 37.5888C231.905 37.5851 231.965 37.5612 232.013 37.5207C232.074 37.477 232.143 37.4242 232.221 37.3675C232.28 37.321 232.378 37.2325 232.517 37.1037C232.656 36.9749 232.811 36.8246 232.982 36.6538C233.154 36.4819 233.33 36.2964 233.512 36.1035C233.694 35.9089 233.858 35.7251 234.006 35.5509C234.196 35.5999 234.394 35.6114 234.589 35.5849C234.66 35.5736 234.751 35.5645 234.861 35.5509C234.467 35.8703 234.077 36.1956 233.692 36.5267C233.327 36.84 232.972 37.1658 232.628 37.5037C232.996 37.949 233.377 38.3966 233.769 38.8426C234.16 39.2896 234.561 39.7299 234.968 40.1645C234.87 40.1501 234.771 40.1426 234.673 40.1418H234.183C234.098 40.1418 234.011 40.1486 233.92 40.1645C233.778 40.0022 233.616 39.8127 233.436 39.5954C233.255 39.3815 233.075 39.1665 232.897 38.9504C232.728 38.7481 232.559 38.5471 232.387 38.3473C232.225 38.1601 232.087 38.0046 231.97 37.8809C231.95 37.8553 231.927 37.8324 231.902 37.8129C231.879 37.7961 231.852 37.7862 231.824 37.7845C231.758 37.7845 231.726 37.8231 231.726 37.9008V38.4834C231.726 38.7751 231.732 39.0576 231.741 39.3333C231.75 39.6068 231.772 39.8836 231.804 40.1633C231.513 40.1336 231.219 40.1336 230.928 40.1633C230.941 40.0136 230.953 39.8263 230.962 39.5994C230.972 39.3747 230.979 39.1342 230.987 38.8812C230.999 38.3858 231.005 37.8903 231.005 37.3947V35.6371C231.005 35.4181 231.004 35.1776 231.001 34.9183" fill="#205CAA"/>
<path d="M95.4802 44.1495L98.4417 44.55C106.04 19.9537 129.606 2.81902 161.002 7.05703C170.878 8.39027 180.071 12.2294 186.869 17.6537C179.694 10.8553 169.996 6.10617 158.635 4.57209C130.242 0.739734 102.14 18.4168 95.4808 44.1495H95.4802Z" fill="url(#paint0_linear_0_9257)"/>
<defs>
<linearGradient id="paint0_linear_0_9257" x1="137.233" y1="51.9634" x2="146.539" y2="2.23353" gradientUnits="userSpaceOnUse">
<stop stop-color="white" stop-opacity="0"/>
<stop offset="0.093" stop-color="#FFF7DF" stop-opacity="0.093"/>
<stop offset="0.268" stop-color="#FFE9A8" stop-opacity="0.268"/>
<stop offset="0.439" stop-color="#FFDD7A" stop-opacity="0.439"/>
<stop offset="0.602" stop-color="#FFD456" stop-opacity="0.602"/>
<stop offset="0.753" stop-color="#FFCD3D" stop-opacity="0.753"/>
<stop offset="0.89" stop-color="#FFC92D" stop-opacity="0.89"/>
<stop offset="1" stop-color="#FFC828"/>
</linearGradient>
</defs>
</svg>
