<svg  viewBox="20 16 220 50" fill="none" xmlns="http://www.w3.org/2000/svg"><defs>
<clipPath id="clip0_0_3317">
<rect width="50" height="50" fill="white" transform="translate(20 16)"/>
</clipPath>
<clipPath id="clip1_0_3317">
<rect width="100" height="20.4724" fill="white" transform="translate(100 31)"/>
</clipPath>
</defs><g clip-path="url(#clip0_0_3317)">
<path d="M23.3077 41C23.3077 49.5961 28.3077 57 35.5385 60.5192L25.1923 32.1731C23.9499 34.95 23.3077 37.9578 23.3077 41ZM45 62.6923C47.5192 62.6923 49.9423 62.25 52.2116 61.4616L52.0577 61.1731L45.3846 42.9039L38.8846 61.8077C40.8077 62.3846 42.8654 62.6923 45 62.6923ZM47.9807 30.8269L55.8269 54.1539L58 46.9231C58.9231 43.9231 59.6346 41.7693 59.6346 39.9039C59.6346 37.2115 58.6731 35.3654 57.8654 33.9423C56.75 32.1346 55.7308 30.6154 55.7308 28.8462C55.7308 26.8462 57.2308 25 59.3846 25H59.6539C55.6568 21.3306 50.4259 19.2987 45 19.3077C41.4074 19.307 37.8708 20.1995 34.7087 21.9047C31.5465 23.61 28.8579 26.0746 26.8846 29.0769L28.2692 29.1154C30.5385 29.1154 34.0385 28.8269 34.0385 28.8269C35.2308 28.7692 35.3654 30.4808 34.1923 30.6154C34.1923 30.6154 33.0192 30.7692 31.6923 30.8269L39.6154 54.3269L44.3654 40.0961L40.9807 30.8269C40.2226 30.7851 39.4659 30.721 38.7115 30.6346C37.5385 30.5577 37.6731 28.7692 38.8461 28.8269C38.8461 28.8269 42.4231 29.1154 44.5577 29.1154C46.8269 29.1154 50.3269 28.8269 50.3269 28.8269C51.5 28.7692 51.6538 30.4808 50.4807 30.6154C50.4807 30.6154 49.3077 30.75 47.9807 30.8269ZM55.9039 59.75C59.1855 57.8419 61.9089 55.106 63.8021 51.8158C65.6953 48.5255 66.6918 44.7961 66.6923 41C66.6923 37.2308 65.7307 33.6923 64.0384 30.5962C64.3821 34.0025 63.8664 37.4406 62.5384 40.5961L55.9039 59.75ZM45 66C38.3696 66 32.0107 63.3661 27.3224 58.6777C22.6339 53.9893 20 47.6304 20 41C20 34.3696 22.6339 28.0107 27.3224 23.3224C32.0107 18.6339 38.3696 16 45 16C51.6304 16 57.9893 18.6339 62.6777 23.3224C67.3661 28.0107 70 34.3696 70 41C70 47.6304 67.3661 53.9893 62.6777 58.6777C57.9893 63.3661 51.6304 66 45 66Z" fill="#126FC2"/>
</g><g clip-path="url(#clip1_0_3317)">
<path d="M137.457 36.5118L135.26 44.9528L133.063 36.5118H130.85L131.362 38.3228L129.433 45.2362L127.323 36.5118H125.197L128.189 47.5354H130.52L132.315 41.6378L133.992 47.5354H136.315L139.465 36.5118H137.457ZM159.811 39.7087C159.33 39.5975 158.84 39.5368 158.346 39.5276C155.669 39.5276 154.205 41.315 154.205 43.937C154.205 46.5433 155.669 47.7323 157.394 47.7323C158.31 47.7024 159.194 47.3795 159.913 46.811V47.5354H161.748V36.5118H159.811V39.7087ZM159.811 45.2835C159.181 45.8583 158.591 46.1732 157.969 46.1732C156.898 46.1732 156.213 45.4646 156.213 43.8031C156.213 42.0079 157.063 41.0709 158.543 41.0709C158.976 41.0709 159.409 41.1575 159.803 41.315V45.2835H159.811ZM150.551 41H150.48V39.7087H148.669V47.5354H150.614V42.874C151.22 41.7244 151.961 41.3465 153.197 41.3465H153.394V39.6614C153.219 39.642 153.042 39.6316 152.866 39.6299C151.811 39.6299 151.087 40.0394 150.551 41.0079V41ZM143.165 39.5118C140.488 39.5118 139.228 41.2441 139.228 43.6299C139.228 46.0079 140.488 47.7244 143.165 47.7244C145.843 47.7244 147.118 46.0079 147.118 43.6299C147.118 41.2441 145.827 39.5118 143.157 39.5118H143.165ZM143.165 46.1575C141.906 46.1575 141.228 45.3386 141.228 43.6299C141.228 41.9134 141.906 41.0945 143.173 41.0945C144.433 41.0945 145.094 41.9134 145.094 43.6299C145.094 45.3386 144.425 46.1575 143.157 46.1575H143.165ZM174.906 40.9921H174.843V39.7087H173.024V47.5354H174.961V42.874C175.567 41.7244 176.307 41.3465 177.543 41.3465H177.74V39.6614C177.565 39.642 177.389 39.6316 177.213 39.6299C176.165 39.6299 175.441 40.0394 174.898 41.0079H174.906V40.9921ZM167.756 36.5118H164.15V47.5354H166.228V43.7008H167.748C170.102 43.7008 171.811 42.4331 171.811 40.063C171.811 37.7008 170.102 36.5118 167.748 36.5118H167.756ZM167.772 42.0866H166.228V38.1417H167.764C169.024 38.1417 169.638 38.8346 169.638 40.063C169.638 41.2992 169.063 42.0866 167.764 42.0866H167.772ZM196.134 41.9055C196.134 41.315 196.78 41.0866 197.472 41.0866C198.205 41.0945 198.937 41.2126 199.638 41.4252V39.8189C198.883 39.6055 198.1 39.5047 197.315 39.5197C195.441 39.5197 194.126 40.4094 194.126 41.8583C194.126 44.6693 198 43.9449 198 45.315C198 45.9843 197.394 46.1654 196.504 46.1654C195.874 46.1654 194.874 45.9291 194.15 45.6693V47.2677C194.876 47.5583 195.65 47.7157 196.433 47.7323C198.26 47.7323 200 47.189 200 45.2362C200.024 42.5197 196.142 43.2205 196.142 41.9055H196.134ZM182.354 39.5197C179.85 39.5197 178.551 41.4646 178.551 43.5827C178.551 46.4961 180.079 47.7323 182.567 47.7323C183.543 47.7343 184.513 47.5829 185.441 47.2835V45.6693C184.63 45.9685 183.89 46.1496 183.102 46.1496C181.654 46.1496 180.685 45.7559 180.638 44.0472H185.646C185.693 43.6614 185.717 43.2756 185.709 42.8976C185.709 41.2441 184.835 39.5197 182.346 39.5197H182.354ZM180.654 42.7638C180.772 41.6772 181.362 40.9843 182.331 40.9843C183.37 40.9843 183.685 41.811 183.685 42.7638H180.654ZM189.079 41.9055C189.079 41.315 189.717 41.0866 190.409 41.0866C191.142 41.0945 191.874 41.2126 192.575 41.4252V39.8189C191.822 39.6063 191.042 39.5055 190.26 39.5197C188.386 39.5197 187.063 40.4094 187.063 41.8583C187.063 44.6693 190.945 43.9449 190.945 45.315C190.945 45.9843 190.331 46.1654 189.449 46.1654C188.819 46.1654 187.819 45.9291 187.087 45.6693V47.2677C187.813 47.5584 188.587 47.7158 189.37 47.7323C191.197 47.7323 192.945 47.189 192.945 45.2362C192.961 42.5197 189.079 43.2205 189.079 41.9055ZM101.354 41.2362C101.354 44.7559 103.402 47.7874 106.362 49.2283L102.126 37.622C101.617 38.759 101.354 39.9906 101.354 41.2362ZM110.236 50.1181C111.268 50.1181 112.26 49.937 113.189 49.6142L113.126 49.4961L110.394 42.0157L107.732 49.7559C108.52 49.9921 109.362 50.1181 110.236 50.1181ZM111.457 37.0709L114.669 46.622L115.559 43.6614C115.937 42.4331 116.228 41.5512 116.228 40.7874C116.228 39.685 115.835 38.9291 115.504 38.3465C115.047 37.6063 114.63 36.9843 114.63 36.2598C114.63 35.4409 115.244 34.685 116.126 34.685H116.236C114.6 33.1826 112.458 32.3506 110.236 32.3543C108.765 32.3541 107.317 32.7195 106.022 33.4177C104.728 34.1159 103.627 35.1251 102.819 36.3543L103.386 36.3701C104.315 36.3701 105.748 36.252 105.748 36.252C106.236 36.2283 106.291 36.9291 105.811 36.9843C105.811 36.9843 105.331 37.0472 104.787 37.0709L108.031 46.6929L109.976 40.8661L108.591 37.0709C108.28 37.0537 107.97 37.0275 107.661 36.9921C107.181 36.9606 107.236 36.2283 107.717 36.252C107.717 36.252 109.181 36.3701 110.055 36.3701C110.984 36.3701 112.417 36.252 112.417 36.252C112.898 36.2283 112.961 36.9291 112.48 36.9843C112.48 36.9843 112 37.0394 111.457 37.0709ZM114.701 48.9134C116.044 48.1321 117.16 47.0119 117.935 45.6647C118.71 44.3176 119.118 42.7905 119.118 41.2362C119.118 39.6929 118.724 38.2441 118.031 36.9764C118.172 38.3711 117.961 39.7788 117.417 41.0709L114.701 48.9134ZM110.236 51.4724C107.521 51.4724 104.918 50.394 102.998 48.4743C101.078 46.5546 100 43.951 100 41.2362C100 38.5214 101.078 35.9178 102.998 33.9981C104.918 32.0785 107.521 31 110.236 31C112.951 31 115.555 32.0785 117.474 33.9981C119.394 35.9178 120.472 38.5214 120.472 41.2362C120.472 43.951 119.394 46.5546 117.474 48.4743C115.555 50.394 112.951 51.4724 110.236 51.4724Z" fill="#163B54"/>
</g></svg>