<svg width="218" height="55" viewBox="0 0 218 55" fill="none" xmlns="http://www.w3.org/2000/svg">
<path d="M125.01 22.4184H117.13V23.2543C119.595 23.2543 119.991 23.7825 119.991 26.9081V32.5428C119.991 35.668 119.595 36.2403 117.13 36.2403C115.238 35.9764 113.961 34.9637 112.2 33.0269L110.175 30.8262C112.904 30.3413 114.357 28.6251 114.357 26.6879C114.357 24.2674 112.288 22.4184 108.414 22.4184H100.667V23.2543C103.132 23.2543 103.528 23.7825 103.528 26.9081V32.5428C103.528 35.668 103.132 36.2403 100.667 36.2403V37.0765H109.427V36.2403C106.962 36.2403 106.566 35.668 106.566 32.5428V30.9585H107.314L112.2 37.0765H125.01C131.304 37.0765 134.033 33.7315 134.033 29.7252C134.033 25.7197 131.304 22.4184 125.01 22.4184ZM106.566 29.5929V23.7391H108.371C110.351 23.7391 111.232 25.1036 111.232 26.6883C111.232 28.2292 110.351 29.5933 108.371 29.5933H106.566V29.5929ZM125.142 35.7121H124.834C123.249 35.7121 123.029 35.3162 123.029 33.2912V23.7391H125.142C129.72 23.7391 130.556 27.0842 130.556 29.6815C130.556 32.3663 129.719 35.7121 125.142 35.7121ZM76.1497 31.2224L79.1871 22.242C80.0678 19.645 79.6715 18.897 76.8544 18.897V18.0162H85.1298V18.897C82.3567 18.897 81.6966 19.5571 80.596 22.7706L75.5774 37.8249H75.0054L70.515 24.0468L65.9375 37.8249H65.3652L60.4793 22.7706C59.4228 19.5571 58.7186 18.897 56.1653 18.897V18.0162H65.9375V18.897C63.3402 18.897 62.6355 19.513 63.5604 22.242L66.5095 31.2224L70.9554 18.0162H71.792L76.1497 31.2224ZM91.1155 37.6485C86.2737 37.6485 82.3119 34.0833 82.3119 29.7249C82.3119 25.4113 86.2741 21.8453 91.1155 21.8453C95.9577 21.8453 99.9191 25.4113 99.9191 29.7249C99.9191 34.0833 95.9577 37.6485 91.1155 37.6485ZM91.1155 23.2109C87.0662 23.2109 85.6573 26.864 85.6573 29.7252C85.6573 32.631 87.0662 36.2403 91.1155 36.2403C95.2097 36.2403 96.6182 32.631 96.6182 29.7252C96.6182 26.864 95.2097 23.2109 91.1155 23.2109Z" fill="#00749A"/>
<path d="M144.905 36.1962V37.0765H134.825V36.1962C137.775 36.1962 138.303 35.4481 138.303 31.0456V24.0031C138.303 19.6005 137.775 18.8966 134.825 18.8966V18.0159H143.937C148.471 18.0159 150.98 20.3489 150.98 23.4748C150.98 26.5122 148.471 28.889 143.937 28.889H141.428V31.0452C141.428 35.4481 141.956 36.1962 144.905 36.1962ZM143.937 19.6005H141.428V27.2602H143.937C146.402 27.2602 147.547 25.5436 147.547 23.4748C147.547 21.362 146.402 19.6005 143.937 19.6005ZM181.22 32.939L181 33.7311C180.604 35.1838 180.12 35.7121 176.994 35.7121H176.378C174.089 35.7121 173.693 35.1838 173.693 32.0586V30.034C177.127 30.034 177.391 30.3417 177.391 32.631H178.227V26.0718H177.391C177.391 28.3608 177.127 28.6688 173.693 28.6688V23.7391H176.114C179.24 23.7391 179.723 24.2674 180.12 25.72L180.34 26.5559H181.044L180.736 22.4184H167.794V23.2543C170.259 23.2543 170.656 23.7825 170.656 26.9081V32.5428C170.656 35.4018 170.319 36.122 168.376 36.2247C166.529 35.9426 165.26 34.9351 163.525 33.0269L161.5 30.8261C164.23 30.3413 165.682 28.6251 165.682 26.6879C165.682 24.2674 163.614 22.4184 159.74 22.4184H151.993V23.2543C154.457 23.2543 154.854 23.7825 154.854 26.9081V32.5428C154.854 35.6679 154.458 36.2403 151.993 36.2403V37.0765H160.753V36.2403C158.288 36.2403 157.891 35.6679 157.891 32.5428V30.9585H158.64L163.526 37.0765H181.617L181.881 32.9394H181.22V32.939ZM157.891 29.5929V23.7391H159.695C161.676 23.7391 162.557 25.1036 162.557 26.6883C162.557 28.2292 161.676 29.5933 159.695 29.5933H157.891V29.5929ZM190.156 37.6485C188.395 37.6485 186.854 36.7244 186.194 36.1517C185.974 36.3722 185.578 37.0324 185.49 37.6485H184.654V31.5745H185.534C185.887 34.4795 187.911 36.1962 190.508 36.1962C191.917 36.1962 193.061 35.404 193.061 34.0837C193.061 32.9394 192.049 32.0586 190.244 31.2224L187.735 30.034C185.974 29.197 184.654 27.7443 184.654 25.8079C184.654 23.695 186.635 21.8906 189.364 21.8906C190.817 21.8906 192.049 22.4188 192.797 23.0348C193.017 22.8588 193.237 22.3743 193.37 21.8457H194.206V27.0404H193.282C192.973 24.9713 191.829 23.2547 189.496 23.2547C188.264 23.2547 187.119 23.9589 187.119 25.0599C187.119 26.2041 188.043 26.8202 190.156 27.7888L192.577 28.9772C194.69 29.9895 195.526 31.619 195.526 32.9394C195.526 35.7121 193.105 37.6485 190.156 37.6485ZM203.714 37.6485C201.953 37.6485 200.412 36.7244 199.752 36.1517C199.532 36.3722 199.136 37.0324 199.048 37.6485H198.211V31.5745H199.092C199.444 34.4795 201.468 36.1962 204.066 36.1962C205.474 36.1962 206.619 35.404 206.619 34.0837C206.619 32.9394 205.607 32.0586 203.801 31.2224L201.292 30.034C199.532 29.197 198.211 27.7443 198.211 25.8079C198.211 23.695 200.192 21.8906 202.921 21.8906C204.374 21.8906 205.606 22.4188 206.355 23.0348C206.575 22.8588 206.795 22.3743 206.926 21.8457H207.763V27.0404H206.839C206.53 24.9713 205.386 23.2547 203.053 23.2547C201.821 23.2547 200.676 23.9589 200.676 25.0599C200.676 26.2041 201.6 26.8202 203.714 27.7888L206.134 28.9772C208.247 29.9895 209.083 31.619 209.083 32.9394C209.083 35.7121 206.662 37.6485 203.714 37.6485Z" fill="#464342"/>
<path d="M12.1446 27.2495C12.1446 34.9603 16.6258 41.624 23.1237 44.7818L13.8312 19.3214C12.7503 21.7441 12.1446 24.4252 12.1446 27.2495ZM44.7762 26.2664C44.7762 23.8589 43.9114 22.1915 43.1697 20.8938C42.1822 19.2891 41.2566 17.9302 41.2566 16.3255C41.2566 14.5348 42.6148 12.8679 44.5278 12.8679C44.6142 12.8679 44.6961 12.8786 44.7803 12.8834C41.3144 9.70819 36.6969 7.76954 31.6253 7.76954C24.8196 7.76954 18.832 11.2613 15.3488 16.5502C15.8058 16.5639 16.2365 16.5735 16.6024 16.5735C18.64 16.5735 21.7941 16.3263 21.7941 16.3263C22.8443 16.2644 22.9681 17.8068 21.919 17.931C21.919 17.931 20.8637 18.0551 19.6894 18.1167L26.7835 39.2176L31.0466 26.4317L28.0115 18.1159C26.9625 18.0544 25.9687 17.9302 25.9687 17.9302C24.9189 17.8687 25.042 16.2636 26.0918 16.3255C26.0918 16.3255 29.3089 16.5728 31.2231 16.5728C33.2603 16.5728 36.4148 16.3255 36.4148 16.3255C37.4657 16.2636 37.5891 17.806 36.5397 17.9302C36.5397 17.9302 35.4822 18.0544 34.3101 18.1159L41.35 39.0571L43.2931 32.5639C44.1353 29.8694 44.7762 27.9341 44.7762 26.2664ZM31.967 28.9535L26.1222 45.9376C27.8673 46.4506 29.7129 46.7312 31.6253 46.7312C33.8938 46.7312 36.0693 46.339 38.0943 45.627C38.0421 45.5436 37.9946 45.455 37.9557 45.3586L31.967 28.9535ZM48.7187 17.9032C48.8025 18.5237 48.85 19.1898 48.85 19.9063C48.85 21.8831 48.4808 24.1054 47.3687 26.884L41.4182 44.0883C47.2097 40.711 51.1052 34.4365 51.1052 27.2498C51.1055 23.8629 50.2404 20.6781 48.7187 17.9032ZM31.6253 4.54167C19.1041 4.54167 8.91674 14.7283 8.91674 27.2495C8.91674 39.7721 19.1041 49.9583 31.6253 49.9583C44.146 49.9583 54.3349 39.7721 54.3349 27.2495C54.3345 14.7283 44.146 4.54167 31.6253 4.54167ZM31.6253 48.9175C19.6783 48.9175 9.95798 39.1972 9.95798 27.2495C9.95798 15.3025 19.6779 5.58291 31.6253 5.58291C43.5719 5.58291 53.2914 15.3025 53.2914 27.2495C53.2914 39.1972 43.5719 48.9175 31.6253 48.9175Z" fill="#464342"/>
</svg>
