<svg width="208" height="57" viewBox="0 0 208 57" fill="none" xmlns="http://www.w3.org/2000/svg">
<path d="M33.2785 37.8279L29.9496 18.9756C29.686 17.5254 28.4335 16.4707 26.9833 16.4707C26.8186 16.4707 26.6208 16.4707 26.456 16.5037L26.0935 16.5696L26.2583 18.3164L26.7856 18.2175C26.8515 18.2175 26.9174 18.1846 27.0163 18.1846C27.6425 18.1846 28.1699 18.646 28.2687 19.2392L31.5976 38.0916C31.7294 38.7837 31.268 39.4429 30.5758 39.5747L11.7235 42.9036C11.0313 43.0354 10.3722 42.541 10.2403 41.8818L6.91151 23.0295C6.77968 22.3374 7.2411 21.6782 7.93323 21.5463L22.8306 18.9097L22.6658 17.1628L7.63661 19.7995C5.98867 20.0962 4.90104 21.6452 5.19766 23.2932L8.49353 42.1785C8.7572 43.6287 10.0096 44.6833 11.4598 44.6833C11.6246 44.6833 11.8224 44.6833 11.9871 44.6504L30.8395 41.3216C32.4545 41.0249 33.5751 39.4429 33.2785 37.8279Z" fill="#EA613B"/>
<path d="M54.3391 31.1043L53.3174 19.2392C53.2185 18.0527 52.1309 17.1298 50.9444 17.2287L39.0793 18.2504C37.8598 18.3493 36.9699 19.4369 37.0688 20.6564L37.4972 25.6991L39.2441 25.5343L38.8156 20.4916C38.7826 20.2279 38.9804 19.9972 39.2441 19.9972L51.1092 18.9755H51.1421C51.3728 18.9755 51.5706 19.1733 51.6036 19.404L52.6253 31.2691C52.6582 31.5328 52.4605 31.7635 52.1968 31.7635L40.3317 32.7852C40.068 32.8181 39.8373 32.6204 39.8373 32.3567L39.5407 29.0279L37.7939 29.1927L38.0905 32.5215C38.1894 33.6421 39.1452 34.532 40.2987 34.532C40.3646 34.532 40.4306 34.532 40.4965 34.532L52.3616 33.5103C53.5481 33.4114 54.438 32.3238 54.3391 31.1043Z" fill="#F7B515"/>
<path d="M27.2473 27.5118L28.7963 27.3799L29.06 29.0608L27.3791 29.2256H27.1484C25.6982 29.2256 24.4788 28.105 24.3469 26.6548L22.8308 9.31857C22.699 7.76951 23.8525 6.38524 25.4016 6.25341L42.7379 4.73731C44.2869 4.60548 45.6712 5.79199 45.803 7.30809L46.627 16.7343L44.8802 16.8991L44.0562 7.47288C43.9903 6.91258 43.5289 6.48412 42.9686 6.48412H42.8697L25.5334 8.00022C24.9402 8.06614 24.4788 8.59348 24.5447 9.18674L26.0608 26.523C26.1267 27.1162 26.654 27.5777 27.2473 27.5118Z" fill="#80CDF3"/>
<path d="M46.9235 20.1949L47.319 24.6444C47.4509 26.1934 46.2973 27.5777 44.7482 27.7425L32.5535 28.7972L32.2569 27.0833L44.5835 25.9957C44.8471 25.9627 45.1108 25.8309 45.3085 25.6002C45.5063 25.3694 45.6052 25.1058 45.5722 24.8092L45.1767 20.3597L46.9235 20.1949Z" fill="#80CDF3"/>
<path fill-rule="evenodd" clip-rule="evenodd" d="M81.3652 37.8937L70.9173 5.75902C70.7854 5.33056 70.357 5.03394 69.8955 5.03394C69.4341 5.03394 69.0057 5.33056 68.8738 5.75902L58.4259 37.8937C58.2611 38.454 58.5578 39.0473 59.0851 39.2121C59.6454 39.3769 60.2386 39.0802 60.4034 38.5529V38.487L63.0731 30.3792H76.718L79.3876 38.487V38.5529C79.5524 39.1132 80.1457 39.4098 80.706 39.2121C81.2333 39.0473 81.5629 38.454 81.3652 37.8937ZM63.8641 27.9732L69.8955 9.51632L75.927 27.9732H63.8641Z" fill="#231815"/>
<path d="M153.38 18.3492C153.94 18.3492 154.401 18.8107 154.401 19.3709C154.401 19.9312 153.94 20.3927 153.38 20.3927H150.677V35.6196C150.677 36.6413 151.699 37.1357 152.226 37.1357C152.819 37.1357 153.281 37.5971 153.281 38.1904C153.281 38.7836 152.819 39.245 152.226 39.245C150.15 39.245 148.568 37.696 148.568 35.6196V20.3927H145.964C145.404 20.3927 144.942 19.9312 144.942 19.3709C144.942 18.8107 145.404 18.3492 145.964 18.3492H148.568V10.571C148.601 10.0107 149.062 9.54926 149.622 9.54926C150.183 9.54926 150.644 10.0107 150.677 10.571V18.3492H153.38Z" fill="#231815"/>
<path d="M183.043 34.7956C182.581 34.4001 181.922 34.499 181.592 34.9274C181.23 35.3229 181.296 35.8832 181.724 36.2787C183.405 37.663 186.075 39.245 189.437 39.278C191.48 39.278 193.194 38.6517 194.644 37.5971C196.061 36.5424 197.05 35.1252 197.05 33.3784C197.05 31.5986 196.061 29.9836 194.71 29.0937C193.227 28.2698 191.579 27.6765 189.568 27.3799C187.657 27.0833 186.207 26.5559 185.251 25.9297C184.46 25.3035 184.064 24.7102 184.064 23.8533C184.064 22.9964 184.526 22.1395 185.383 21.4473C186.273 20.7222 187.624 20.2608 189.338 20.2608C191.264 20.2608 192.721 21.2269 194.179 22.1933C194.268 22.2523 194.357 22.3114 194.446 22.3702C194.941 22.6668 195.567 22.535 195.864 22.0735C196.16 21.6121 196.028 20.9529 195.567 20.6234L195.451 20.5498C193.86 19.5426 191.976 18.3492 189.338 18.3492C187.228 18.3492 185.482 18.9095 184.229 19.7664C182.911 20.7222 181.955 22.1724 181.955 23.8533C181.955 25.4683 182.911 26.8525 184.229 27.6106C185.416 28.4675 187.13 28.9289 189.008 29.2585C191.052 29.5881 192.601 30.1155 193.491 30.8076C194.545 31.6975 194.941 32.3896 194.974 33.3784C194.974 34.3342 194.413 35.257 193.392 35.9491C192.469 36.7072 191.052 37.2345 189.437 37.2345C186.8 37.2345 184.493 35.8503 183.043 34.7956Z" fill="#231815"/>
<path d="M134.264 18.3822C131.66 18.3822 129.32 19.5687 127.771 21.4144V19.4039C127.771 18.8436 127.343 18.3822 126.782 18.3822C126.189 18.3822 125.761 18.8436 125.761 19.4039V38.2563C125.761 38.8166 126.222 39.245 126.749 39.245C127.31 39.245 127.738 38.7836 127.738 38.2563V26.8855C127.837 23.326 130.671 20.4256 134.231 20.4256C137.823 20.4256 140.691 23.326 140.691 26.8855V38.2563C140.691 38.8166 141.152 39.278 141.713 39.278C142.273 39.278 142.734 38.8166 142.734 38.2563V26.8855C142.767 22.2384 138.944 18.3822 134.264 18.3822Z" fill="#231815"/>
<path d="M96.2296 19.1732C96.3944 18.6459 97.0206 18.4151 97.548 18.6129C98.0753 18.8106 98.273 19.4039 98.0423 19.8983L90.2311 38.4211C90.0663 38.8825 89.7697 39.245 89.2753 39.245C88.8139 39.245 88.5173 38.8825 88.3195 38.454L80.4754 19.9312C80.2776 19.4369 80.5413 18.8106 81.0027 18.6129C81.4971 18.4151 82.1563 18.6459 82.321 19.1732L89.2753 35.6525L96.2296 19.1732Z" fill="#231815"/>
<path fill-rule="evenodd" clip-rule="evenodd" d="M176.286 35.6855C176.352 36.6742 177.341 37.1686 177.835 37.1686C178.395 37.1686 178.857 37.63 178.857 38.1574C178.857 38.7506 178.395 39.2121 177.802 39.2121C175.726 39.2121 174.144 37.696 174.144 35.5866V35.1911C172.364 37.5971 169.562 39.2121 166.398 39.2121C160.861 39.2121 156.478 34.499 156.478 28.7642C156.478 23.0623 160.894 18.3163 166.398 18.3163C169.595 18.3163 172.463 19.9312 174.243 22.4031V19.338C174.243 18.7447 174.704 18.3163 175.264 18.3163C175.825 18.3163 176.286 18.7447 176.286 19.338V35.6855ZM158.521 28.7971C158.521 33.4773 162.081 37.2016 166.365 37.2016C170.683 37.2016 174.243 33.5102 174.21 28.7971C174.21 24.084 170.683 20.3267 166.365 20.3267C162.114 20.3267 158.521 24.084 158.521 28.7971Z" fill="#231815"/>
<path fill-rule="evenodd" clip-rule="evenodd" d="M121.575 37.1686C121.08 37.1686 120.092 36.6742 120.026 35.6855V19.338C120.026 18.7447 119.564 18.3163 119.004 18.3163C118.444 18.3163 117.982 18.7447 117.982 19.338V22.4031C116.203 19.9312 113.335 18.3163 110.138 18.3163C104.634 18.3163 100.218 23.0623 100.218 28.7642C100.218 34.499 104.601 39.2121 110.138 39.2121C113.302 39.2121 116.104 37.5971 117.883 35.1911V35.5866C117.883 37.696 119.465 39.2121 121.542 39.2121C122.135 39.2121 122.597 38.7506 122.597 38.1574C122.597 37.63 122.168 37.1686 121.575 37.1686ZM110.138 37.2016C105.854 37.2016 102.294 33.4773 102.294 28.7971C102.294 24.084 105.887 20.3267 110.138 20.3267C114.456 20.3267 117.982 24.084 117.982 28.7971C117.982 33.5102 114.423 37.2016 110.138 37.2016Z" fill="#231815"/>
<path d="M58.9861 46.8255H62.5786V49.8577C62.5786 49.9896 62.6775 50.0884 62.8093 50.0884C62.9741 50.0884 63.073 49.9896 63.073 49.8577V43.3319C63.073 43.2001 62.9412 43.1012 62.8093 43.1012C62.6775 43.1012 62.5786 43.2001 62.5786 43.3319V46.3641H58.9861V43.3319C58.9861 43.2001 58.8543 43.1012 58.7224 43.1012C58.5906 43.1012 58.4917 43.2001 58.4917 43.3319V49.8577C58.4917 49.9896 58.5906 50.0884 58.7224 50.0884C58.8872 50.0884 58.9861 49.9896 58.9861 49.8577V46.8255Z" fill="#231815"/>
<path fill-rule="evenodd" clip-rule="evenodd" d="M64.9847 47.6495C64.9847 46.2982 66.0393 45.1776 67.3577 45.1776C68.6101 45.1776 69.6318 46.1663 69.7307 47.4517V47.4847C69.7307 47.6165 69.6318 47.7154 69.5 47.7154H65.479C65.545 48.803 66.3689 49.594 67.3906 49.594C68.0498 49.594 68.6431 49.2645 68.9727 48.7042C69.0386 48.5723 69.2034 48.5723 69.3022 48.6382C69.4011 48.7042 69.467 48.8689 69.3682 48.9678C68.9397 49.627 68.2146 50.0884 67.3906 50.0884C66.0393 50.0884 64.9847 49.0008 64.9847 47.6495ZM65.479 47.254H69.2034C69.0386 46.3311 68.2476 45.672 67.3577 45.672C66.4348 45.672 65.6768 46.3311 65.479 47.254Z" fill="#231815"/>
<path d="M77.8716 43.1012C77.7398 43.1012 77.6409 43.2001 77.6409 43.3319V49.8577C77.6409 49.9896 77.7398 50.0884 77.8716 50.0884C78.0364 50.0884 78.1353 49.9896 78.1353 49.8577V43.3319C78.1353 43.2001 78.0035 43.1012 77.8716 43.1012Z" fill="#231815"/>
<path d="M81.6947 45.4083C81.6947 45.5401 81.5629 45.639 81.464 45.639H80.8378V49.2315C80.8378 49.4622 81.0685 49.594 81.2003 49.594C81.3322 49.594 81.464 49.7259 81.464 49.8577C81.464 49.9896 81.3322 50.0884 81.2003 50.0884C80.7059 50.0884 80.3434 49.7259 80.3434 49.2315V45.639H79.7172C79.4865 45.639 79.4865 45.5072 79.4865 45.4083C79.4865 45.2765 79.4865 45.1776 79.7172 45.1776H80.3434V43.3649C80.3434 43.233 80.4752 43.1342 80.5741 43.1342C80.7059 43.1342 80.8378 43.266 80.8378 43.3649V45.1776H81.464C81.5629 45.1776 81.6947 45.3094 81.6947 45.4083Z" fill="#231815"/>
<path d="M85.5179 45.672C86.3748 45.672 87.067 46.2652 87.067 47.1221H87.034V49.8907C87.034 50.0225 87.1329 50.1214 87.2647 50.1214C87.4295 50.1214 87.5284 50.0225 87.5284 49.8907V47.1551C87.5284 46.0016 86.6055 45.2105 85.485 45.2105C84.8587 45.2105 84.2984 45.5072 83.9359 45.9356V43.3649C83.9359 43.233 83.8041 43.1342 83.6722 43.1342C83.5404 43.1342 83.4415 43.233 83.4415 43.3649V49.9566C83.4415 49.9706 83.4415 49.9787 83.444 49.9858C83.4475 49.9955 83.4555 50.0036 83.4745 50.0225C83.5404 50.0555 83.6063 50.0884 83.6722 50.0884H83.7711C83.87 50.0555 83.9029 50.0225 83.9359 49.9566C83.9689 49.9566 83.9689 49.9566 83.9689 49.9236V47.1221C83.9689 46.2652 84.661 45.672 85.5179 45.672Z" fill="#231815"/>
<path d="M89.1433 47.6165C89.1433 46.2652 90.2639 45.1776 91.6811 45.1776C92.2744 45.1776 92.8017 45.3753 93.2302 45.7049C93.329 45.7708 93.362 45.9356 93.2631 46.0345C93.1972 46.1334 93.0324 46.1663 92.9335 46.0675C92.571 45.8038 92.1425 45.639 91.6811 45.639C90.5276 45.639 89.6377 46.5289 89.6377 47.6165C89.6377 48.7042 90.5276 49.594 91.6811 49.594C92.1425 49.594 92.604 49.4292 92.9335 49.1656C93.0324 49.0997 93.1972 49.0997 93.2631 49.1985C93.362 49.2974 93.329 49.4622 93.2302 49.5611C92.8347 49.8907 92.2744 50.0884 91.6811 50.0884C90.2639 50.0884 89.1433 49.0008 89.1433 47.6165Z" fill="#231815"/>
<path d="M101.305 45.2105C101.14 45.2105 101.042 45.3094 101.042 45.4412V49.8247C101.042 49.9566 101.173 50.0555 101.305 50.0555C101.437 50.0555 101.536 49.9566 101.536 49.8247V47.6824C101.536 47.6824 101.536 47.6495 101.569 47.6165C101.635 47.4188 101.833 46.8914 102.162 46.463C102.492 46.0345 102.953 45.6719 103.579 45.6719C103.711 45.6719 103.81 45.5731 103.81 45.4412C103.81 45.3094 103.711 45.2105 103.579 45.2105C102.624 45.2105 101.964 45.8038 101.602 46.397C101.589 46.4221 101.582 46.4425 101.575 46.4598C101.564 46.488 101.556 46.5085 101.536 46.5289V45.4412C101.536 45.3094 101.437 45.2105 101.305 45.2105Z" fill="#231815"/>
<path fill-rule="evenodd" clip-rule="evenodd" d="M104.634 47.6495C104.634 46.2982 105.689 45.1776 107.007 45.1776C108.259 45.1776 109.281 46.1663 109.38 47.4517V47.4847C109.38 47.6165 109.281 47.7154 109.149 47.7154H105.128C105.194 48.803 106.018 49.594 107.04 49.594C107.699 49.594 108.292 49.2645 108.622 48.7042C108.688 48.5723 108.853 48.5723 108.951 48.6382C109.05 48.7042 109.116 48.8689 109.017 48.9678C108.589 49.627 107.864 50.0884 107.04 50.0884C105.689 50.0884 104.634 49.0008 104.634 47.6495ZM105.161 47.254H108.886C108.721 46.3311 107.93 45.672 107.04 45.672C106.084 45.672 105.326 46.3311 105.161 47.254Z" fill="#231815"/>
<path d="M116.598 49.2315L114.093 43.266C114.027 43.1341 113.895 43.0682 113.763 43.0682C113.632 43.1341 113.566 43.266 113.632 43.3978L116.334 49.8247C116.334 49.8907 116.367 49.9236 116.4 49.9566L116.433 49.9895C116.451 49.9984 116.466 50.0072 116.48 50.0154C116.519 50.0378 116.55 50.0555 116.598 50.0555C116.631 50.0555 116.697 50.0555 116.73 50.0225H116.763C116.796 50.0225 116.829 49.9895 116.829 49.9566C116.845 49.9566 116.853 49.9566 116.857 49.9525C116.862 49.9483 116.862 49.9401 116.862 49.9237L118.641 45.6719L120.421 49.9236V49.9566C120.421 49.9895 120.454 50.0225 120.454 50.0225L120.487 50.0555C120.553 50.0884 120.586 50.0884 120.619 50.0884H120.685C120.751 50.0884 120.85 50.0225 120.883 49.9236L123.618 43.4637C123.684 43.3319 123.618 43.2001 123.486 43.1341C123.354 43.1012 123.223 43.1341 123.157 43.266L120.652 49.2315L118.872 45.0128C118.806 44.9139 118.707 44.848 118.608 44.848C118.51 44.848 118.411 44.9139 118.378 45.0128L116.598 49.2315Z" fill="#231815"/>
<path fill-rule="evenodd" clip-rule="evenodd" d="M126.453 45.1776C127.738 45.1776 128.793 46.2982 128.793 47.6165C128.793 48.9349 127.771 50.0555 126.453 50.0555C125.167 50.0555 124.113 48.9349 124.113 47.6165C124.146 46.2982 125.167 45.1776 126.453 45.1776ZM126.453 49.594C127.441 49.594 128.298 48.7042 128.298 47.6165C128.298 46.5289 127.441 45.639 126.453 45.639C125.464 45.639 124.607 46.5289 124.607 47.6165C124.607 48.7371 125.464 49.594 126.453 49.594Z" fill="#231815"/>
<path d="M130.77 45.2105C130.605 45.2105 130.506 45.3094 130.506 45.4412V49.8247C130.506 49.9566 130.638 50.0555 130.77 50.0555C130.902 50.0555 131.001 49.9566 131.001 49.8247V47.6824C131.001 47.6824 131.001 47.6495 131.034 47.6165C131.1 47.4188 131.297 46.8914 131.627 46.463C131.957 46.0345 132.418 45.6719 133.044 45.6719C133.176 45.6719 133.275 45.5731 133.275 45.4412C133.275 45.3094 133.176 45.2105 133.044 45.2105C132.088 45.2105 131.429 45.8038 131.067 46.397C131.059 46.4126 131.053 46.4264 131.048 46.4387C131.045 46.4462 131.042 46.4531 131.04 46.4596L131.04 46.46C131.029 46.4881 131.021 46.5085 131.001 46.5289V45.4412C131.001 45.3094 130.902 45.2105 130.77 45.2105Z" fill="#231815"/>
<path d="M134.725 43.3319C134.725 43.2001 134.824 43.1012 134.956 43.1012C135.088 43.1012 135.219 43.2001 135.219 43.3319V48.045L138.12 45.1446C138.219 45.0458 138.351 45.0458 138.449 45.1446C138.548 45.2435 138.548 45.3753 138.449 45.4742L136.571 47.3529L138.482 49.66C138.581 49.7589 138.548 49.9236 138.449 50.0225C138.383 50.0555 138.351 50.0555 138.285 50.0555C138.219 50.0555 138.12 50.0225 138.087 49.9566L136.208 47.6825L135.219 48.6712V49.7918C135.219 49.9236 135.121 50.0225 134.956 50.0225C134.824 50.0225 134.725 49.9236 134.725 49.7918V43.3319Z" fill="#231815"/>
<path d="M140.295 43.5956C140.163 43.5956 140.064 43.6945 140.064 43.8263V44.057C140.064 44.1888 140.163 44.3207 140.295 44.3207C140.46 44.3207 140.559 44.1888 140.559 44.057V43.8263C140.559 43.6945 140.427 43.5956 140.295 43.5956Z" fill="#231815"/>
<path d="M140.295 45.1776C140.163 45.1776 140.064 45.2765 140.064 45.4083V49.8248C140.064 49.9566 140.163 50.0555 140.295 50.0555C140.46 50.0555 140.559 49.9566 140.559 49.8248V45.4083C140.559 45.2765 140.427 45.1776 140.295 45.1776Z" fill="#231815"/>
<path d="M146.162 47.1881C146.162 46.3641 145.503 45.672 144.646 45.672C143.822 45.672 143.13 46.3641 143.13 47.1881V49.8907C143.13 49.9072 143.121 49.9236 143.113 49.9401C143.105 49.9566 143.097 49.9731 143.097 49.9895C143.064 50.0555 142.998 50.0884 142.932 50.0884H142.866C142.8 50.0555 142.734 50.0225 142.701 49.9566V45.4413C142.701 45.3094 142.8 45.2105 142.932 45.2105C143.064 45.2105 143.163 45.3094 143.163 45.4413V45.9027C143.525 45.4742 144.085 45.1776 144.679 45.1776C145.766 45.1776 146.656 46.0675 146.656 47.1881V49.8577C146.656 49.9895 146.557 50.0884 146.425 50.0884C146.294 50.0884 146.195 49.9895 146.195 49.8577V47.1881H146.162Z" fill="#231815"/>
<path fill-rule="evenodd" clip-rule="evenodd" d="M150.611 52C151.897 52 152.918 50.9783 152.918 49.6929H152.951V45.4083C152.951 45.2765 152.852 45.1776 152.721 45.1776C152.556 45.1776 152.457 45.2765 152.457 45.4083V46.1334C152.028 45.5731 151.369 45.1776 150.611 45.1776C149.326 45.1776 148.304 46.2982 148.304 47.6165C148.304 48.9678 149.326 50.0555 150.611 50.0555C151.369 50.0555 152.061 49.6929 152.457 49.0997V49.6929C152.457 50.6817 151.633 51.5056 150.611 51.5056C150.315 51.5056 150.084 51.4727 149.82 51.3409C149.688 51.2749 149.557 51.3079 149.491 51.4397C149.425 51.5716 149.491 51.7034 149.59 51.7693C149.919 51.9011 150.249 52 150.611 52ZM150.578 45.672C151.6 45.672 152.424 46.5289 152.424 47.6165C152.424 48.7042 151.6 49.594 150.578 49.594C149.59 49.594 148.766 48.7042 148.766 47.6165C148.766 46.5289 149.59 45.672 150.578 45.672Z" fill="#231815"/>
<path d="M157.862 48.7701C157.928 48.6712 158.093 48.6712 158.159 48.7371C158.686 49.1656 159.543 49.66 160.466 49.627C161.092 49.627 161.62 49.4622 162.015 49.1656C162.411 48.9019 162.608 48.5064 162.608 48.1109C162.608 47.7154 162.411 47.4188 162.048 47.1551C161.653 46.8914 161.092 46.7267 160.433 46.5948H160.4C159.741 46.463 159.181 46.2982 158.752 46.0016C158.324 45.7049 158.027 45.3094 158.027 44.7821C158.027 44.2548 158.324 43.7933 158.752 43.4638C159.181 43.1342 159.774 42.9364 160.433 42.9364C161.336 42.9364 162.018 43.3781 162.572 43.7367L162.608 43.7604C162.707 43.8263 162.74 43.9581 162.674 44.057C162.608 44.1559 162.477 44.1888 162.378 44.1229L162.34 44.0983C161.79 43.7427 161.207 43.3649 160.466 43.3649C159.906 43.3649 159.378 43.5297 159.049 43.7933C158.686 44.057 158.489 44.3866 158.489 44.7491C158.489 45.1117 158.653 45.3754 159.016 45.6061C159.378 45.8368 159.873 46.0016 160.532 46.1334H160.565C161.257 46.2652 161.883 46.463 162.345 46.7596C162.806 47.0562 163.103 47.5177 163.103 48.078C163.103 48.6383 162.773 49.1326 162.312 49.4952C161.85 49.8248 161.224 50.0555 160.499 50.0555C159.411 50.0555 158.489 49.4952 157.928 49.0338C157.796 49.0008 157.796 48.869 157.862 48.7701Z" fill="#231815"/>
<path d="M170.222 45.6719C171.046 45.6719 171.705 46.3641 171.738 47.188H171.705V49.8907C171.705 50.0225 171.804 50.1214 171.936 50.1214C172.067 50.1214 172.166 50.0225 172.166 49.8907V47.221C172.166 46.1004 171.276 45.2105 170.189 45.2105C169.431 45.2105 168.772 45.639 168.409 46.2652C168.079 45.639 167.42 45.2105 166.662 45.2105C166.036 45.2105 165.509 45.4742 165.146 45.9027V45.4412C165.146 45.3094 165.047 45.2105 164.915 45.2105C164.784 45.2105 164.685 45.3094 164.685 45.4412V49.8907C164.718 49.9895 164.784 50.0884 164.882 50.0884H164.981C165.014 50.0884 165.047 50.0555 165.047 50.0555C165.113 50.0225 165.146 49.9236 165.146 49.8577V47.188C165.146 46.3641 165.805 45.6719 166.662 45.6719C167.519 45.6719 168.178 46.3641 168.178 47.188V49.9895C168.211 49.9895 168.211 50.0225 168.211 50.0225L168.244 50.0555C168.244 50.0884 168.277 50.0884 168.277 50.0884C168.279 50.0884 168.28 50.0885 168.281 50.0886C168.283 50.0887 168.284 50.089 168.286 50.0893C168.288 50.0898 168.291 50.0906 168.293 50.0915C168.298 50.0938 168.302 50.097 168.306 50.1005L168.308 50.1028L168.31 50.1049C168.318 50.1131 168.327 50.1214 168.343 50.1214H168.442C168.508 50.1214 168.541 50.1214 168.574 50.0884C168.64 50.0554 168.673 50.0225 168.706 49.9566V47.188C168.706 46.3641 169.398 45.6719 170.222 45.6719Z" fill="#231815"/>
<path d="M180.373 45.4412C180.373 45.3094 180.472 45.2105 180.637 45.2105C180.768 45.2105 180.867 45.3094 180.867 45.4412V46.5289C180.888 46.5085 180.895 46.4881 180.906 46.46C180.909 46.4525 180.912 46.4444 180.916 46.4357C180.92 46.4241 180.926 46.4114 180.933 46.397C181.296 45.8038 181.955 45.2105 182.911 45.2105C183.043 45.2105 183.141 45.3094 183.141 45.4412C183.141 45.5731 183.043 45.6719 182.911 45.6719C182.284 45.6719 181.823 46.0345 181.493 46.463C181.164 46.8914 180.966 47.4188 180.9 47.6165C180.867 47.6495 180.867 47.6824 180.867 47.6824V49.8247C180.867 49.9566 180.768 50.0555 180.637 50.0555C180.505 50.0555 180.373 49.9566 180.373 49.8247V45.4412Z" fill="#231815"/>
<path d="M186.339 45.639C186.437 45.639 186.569 45.5401 186.569 45.4083C186.569 45.3094 186.437 45.1776 186.339 45.1776H185.712V43.3649C185.712 43.266 185.581 43.1342 185.449 43.1342C185.35 43.1342 185.218 43.233 185.218 43.3649V45.1776H184.592C184.361 45.1776 184.361 45.2765 184.361 45.4083C184.361 45.5072 184.361 45.639 184.592 45.639H185.218V49.2315C185.218 49.7259 185.581 50.0884 186.075 50.0884C186.207 50.0884 186.339 49.9896 186.339 49.8577C186.339 49.7259 186.207 49.594 186.075 49.594C185.943 49.594 185.712 49.4622 185.712 49.2315V45.639H186.339Z" fill="#231815"/>
<path fill-rule="evenodd" clip-rule="evenodd" d="M187.921 47.6495C187.921 46.2982 188.975 45.1776 190.294 45.1776C191.546 45.1776 192.568 46.1663 192.667 47.4517V47.4847C192.667 47.6165 192.568 47.7154 192.436 47.7154H188.415C188.481 48.803 189.305 49.594 190.326 49.594C190.986 49.594 191.579 49.2645 191.909 48.7042C191.974 48.5723 192.139 48.5723 192.238 48.6382C192.337 48.7042 192.403 48.8689 192.304 48.9678C191.876 49.627 191.15 50.0884 190.326 50.0884C188.975 50.0884 187.921 49.0008 187.921 47.6495ZM188.415 47.254H192.139C191.974 46.3311 191.183 45.672 190.294 45.672C189.371 45.672 188.613 46.3311 188.415 47.254Z" fill="#231815"/>
<path d="M194.545 45.2105C194.38 45.2105 194.281 45.3094 194.281 45.4412V49.8247C194.281 49.9566 194.413 50.0555 194.545 50.0555C194.677 50.0555 194.776 49.9566 194.776 49.8247V47.6824C194.776 47.6824 194.776 47.6495 194.809 47.6165C194.875 47.4188 195.072 46.8914 195.402 46.463C195.732 46.0345 196.193 45.6719 196.819 45.6719C196.951 45.6719 197.05 45.5731 197.05 45.4412C197.05 45.3094 196.951 45.2105 196.819 45.2105C195.863 45.2105 195.204 45.8038 194.842 46.397C194.829 46.4222 194.821 46.4426 194.815 46.46C194.804 46.4881 194.796 46.5085 194.776 46.5289V45.4412C194.776 45.3094 194.677 45.2105 194.545 45.2105Z" fill="#231815"/>
<path fill-rule="evenodd" clip-rule="evenodd" d="M178.758 49.594C178.626 49.594 178.395 49.4622 178.395 49.2644V45.4412C178.395 45.3094 178.296 45.2105 178.165 45.2105C178.033 45.2105 177.934 45.3094 177.934 45.4412V46.1663C177.505 45.5731 176.846 45.2105 176.088 45.2105C174.803 45.2105 173.781 46.3311 173.781 47.6495C173.781 49.0008 174.803 50.0884 176.088 50.0884C176.813 50.0884 177.472 49.7259 177.901 49.1326V49.2315C177.901 49.7259 178.263 50.0884 178.758 50.0884C178.89 50.0884 179.022 49.9566 179.022 49.8577C178.989 49.7259 178.857 49.594 178.758 49.594ZM176.055 49.594C175.067 49.594 174.21 48.7371 174.21 47.6165C174.21 46.5289 175.067 45.639 176.055 45.639C177.077 45.639 177.901 46.5289 177.901 47.6165C177.901 48.7371 177.077 49.594 176.055 49.594Z" fill="#231815"/>
<path fill-rule="evenodd" clip-rule="evenodd" d="M99.0309 49.2644C99.0309 49.4622 99.2616 49.594 99.3934 49.594C99.5253 49.594 99.6571 49.7259 99.6571 49.8577C99.6571 49.9566 99.5253 50.0884 99.3934 50.0884C98.8991 50.0884 98.5365 49.7259 98.5365 49.2315V49.1326C98.1081 49.7259 97.4489 50.0884 96.7238 50.0884C95.4384 50.0884 94.4167 49.0008 94.4167 47.6495C94.4167 46.3311 95.4384 45.2105 96.7238 45.2105C97.4818 45.2105 98.141 45.5731 98.5695 46.1663V45.4412C98.5695 45.3094 98.6684 45.2105 98.8002 45.2105C98.932 45.2105 99.0309 45.3094 99.0309 45.4412V49.2644ZM94.8781 47.6165C94.8781 48.7371 95.735 49.594 96.7238 49.594C97.7455 49.594 98.5695 48.7371 98.5695 47.6165C98.5695 46.5289 97.7455 45.639 96.7238 45.639C95.735 45.639 94.8781 46.5289 94.8781 47.6165Z" fill="#231815"/>
<path fill-rule="evenodd" clip-rule="evenodd" d="M75.96 49.594C75.8281 49.594 75.6304 49.4622 75.5974 49.2644V45.4412C75.5974 45.3094 75.4985 45.2105 75.3667 45.2105C75.2349 45.2105 75.136 45.3094 75.136 45.4412V46.1663C74.7075 45.5731 74.0484 45.2105 73.2903 45.2105C72.0049 45.2105 70.9832 46.3311 70.9832 47.6495C70.9832 49.0008 72.0049 50.0884 73.2903 50.0884C74.0154 50.0884 74.6746 49.7259 75.103 49.1326V49.2315C75.103 49.7259 75.4656 50.0884 75.96 50.0884C76.0918 50.0884 76.2236 49.9566 76.2236 49.8577C76.2236 49.7259 76.0918 49.594 75.96 49.594ZM73.2903 49.594C72.3015 49.594 71.4446 48.7371 71.4446 47.6165C71.4446 46.5289 72.3015 45.639 73.2903 45.639C74.312 45.639 75.136 46.5289 75.136 47.6165C75.103 48.7371 74.2791 49.594 73.2903 49.594Z" fill="#231815"/>
<path fill-rule="evenodd" clip-rule="evenodd" d="M201.17 35.6525C201.005 35.5866 200.775 35.5536 200.445 35.5536V35.5866H199.522V38.1903H199.984V37.1686H200.379C200.643 37.1686 200.807 37.1686 200.906 37.2345C201.071 37.3334 201.137 37.5312 201.137 37.8278V38.1903H201.566V38.1574C201.533 38.1244 201.533 38.0915 201.533 38.0255V37.63C201.533 37.4982 201.5 37.3664 201.401 37.2345C201.302 37.1027 201.137 37.0038 200.939 36.9709C201.071 36.9379 201.203 36.9049 201.302 36.839C201.467 36.7072 201.566 36.5424 201.566 36.3117C201.566 35.9821 201.434 35.7514 201.17 35.6525ZM200.379 35.8832C200.643 35.8832 200.807 35.9162 200.939 35.9821C201.038 36.048 201.104 36.1799 201.104 36.3776C201.104 36.5754 201.005 36.7072 200.84 36.7731C200.742 36.8061 200.61 36.839 200.412 36.839H199.984V35.8832H200.379Z" fill="#231815"/>
<path fill-rule="evenodd" clip-rule="evenodd" d="M200.478 39.245C201.137 39.245 201.697 39.0143 202.159 38.5529C202.62 38.0914 202.851 37.5312 202.851 36.872C202.851 36.2128 202.62 35.6525 202.159 35.1911C201.697 34.7297 201.137 34.499 200.478 34.499C199.819 34.499 199.258 34.7297 198.797 35.1911C198.336 35.6525 198.105 36.2128 198.105 36.872C198.105 37.5312 198.336 38.0914 198.797 38.5529C199.258 39.0143 199.819 39.245 200.478 39.245ZM198.434 36.872C198.434 36.3117 198.632 35.8173 199.028 35.4218C199.423 35.0263 199.918 34.8285 200.478 34.8285C201.038 34.8285 201.533 35.0263 201.928 35.4218C202.324 35.8173 202.521 36.3117 202.521 36.872C202.521 37.4323 202.324 37.9267 201.928 38.3222C201.533 38.7177 201.038 38.9154 200.478 38.9154C199.918 38.9154 199.423 38.7177 199.028 38.3222C198.632 37.9267 198.434 37.4323 198.434 36.872Z" fill="#231815"/>
</svg>
