<svg width="199" height="60" viewBox="0 0 199 60" fill="none" xmlns="http://www.w3.org/2000/svg">
<path d="M20.3709 14.3295C28.8479 14.3295 35.7666 21.1859 35.7666 29.6629C35.7666 38.1399 28.8479 45.0587 20.3709 45.0587C17.6906 45.0587 15.1351 44.373 12.9535 43.1887V54.7823L4.9751 51.4164V29.7252C4.9751 21.1859 11.8938 14.3295 20.3709 14.3295ZM97.038 4.91748V14.3295H104.455V22.3078H97.038V29.8499C97.038 33.9637 100.342 37.2673 104.455 37.2673V45.2457C96.1031 45.2457 89.309 38.5762 89.0597 30.2862V8.34569L97.038 4.91748ZM54.0296 14.3295V22.3078C49.9158 22.3078 46.6122 25.6114 46.6122 29.7252V45.2457H38.6339V29.2889L38.6433 29.0407C39.0192 20.8662 45.7608 14.3295 54.0296 14.3295ZM70.6097 14.3295C79.0867 14.3295 85.9431 21.1859 86.0054 29.7252C86.0054 38.2023 79.0867 45.121 70.6097 45.121C62.1327 45.121 55.2139 38.2023 55.2139 29.7252C55.2139 21.2482 62.1327 14.3295 70.6097 14.3295ZM121.783 14.3295C130.26 14.3295 137.179 21.1859 137.179 29.7252C137.179 38.2023 130.26 45.121 121.783 45.121C113.306 45.121 106.388 38.2023 106.388 29.7252C106.388 21.2482 113.306 14.3295 121.783 14.3295ZM178.629 14.3295C187.106 14.3295 194.025 21.1859 194.025 29.7252C194.025 38.2023 187.106 45.121 178.629 45.121C170.152 45.121 163.234 38.2023 163.234 29.7252C163.234 21.2482 170.152 14.3295 178.629 14.3295ZM160.117 14.3295V45.121H152.139V14.3295H160.117ZM143.599 34.774C146.467 34.774 148.773 37.0803 148.773 39.9475C148.773 42.8147 146.467 45.121 143.599 45.121C140.732 45.121 138.426 42.8147 138.426 39.9475C138.426 37.0803 140.732 34.774 143.599 34.774ZM70.6097 22.3078C66.4958 22.3078 63.1923 25.6114 63.1923 29.7252C63.1923 33.8391 66.4958 37.1426 70.6097 37.1426C74.6612 37.1426 77.9647 33.7767 78.0271 29.7252C78.0271 25.6114 74.7235 22.3078 70.6097 22.3078ZM121.783 22.3078C117.67 22.3078 114.366 25.6114 114.366 29.7252C114.366 33.8391 117.67 37.1426 121.783 37.1426C125.835 37.1426 129.201 33.7767 129.201 29.7252C129.201 25.6114 125.897 22.3078 121.783 22.3078ZM20.3709 22.3078C16.257 22.3078 12.9535 25.6114 12.9535 29.7252C12.9535 33.8391 16.257 37.1426 20.3709 37.1426C24.4224 37.1426 27.7883 33.7767 27.7883 29.7252C27.7883 25.6114 24.4847 22.3078 20.3709 22.3078ZM178.629 22.3078C174.515 22.3078 171.212 25.6114 171.212 29.7252C171.212 33.8391 174.515 37.1426 178.629 37.1426C182.681 37.1426 186.047 33.7767 186.047 29.7252C186.047 25.6114 182.743 22.3078 178.629 22.3078Z" fill="#3E4245"/>
</svg>
