<svg width="288" height="42" viewBox="0 0 288 42" fill="none" xmlns="http://www.w3.org/2000/svg">
<path d="M19.2371 21.2844L34.4746 36.2844H3.99951L19.2371 21.2844Z" fill="#FF2638"/>
<path d="M3.99951 6.28491L19.2371 21.2849L34.4746 6.28491H3.99951Z" fill="#FFC600"/>
<path d="M19.2405 21.2849L34.478 36.2849L49.7156 21.2849L34.478 6.28491L19.2405 21.2849Z" fill="#0079F2"/>
<path d="M279.759 13.3958C279.759 13.6138 279.458 13.7093 279.316 13.5428C278.201 12.2472 276.36 11.2652 273.84 11.2652C268.386 11.2652 265.286 15.6685 265.286 20.9999C265.286 26.297 268.386 30.6979 273.84 30.6979C276.394 30.6979 278.39 29.804 279.629 28.2611C279.769 28.0897 280.08 28.1828 280.08 28.4032V30.0513C280.08 30.1738 280.178 30.2717 280.298 30.2717H283.78C283.903 30.2717 284.001 30.1738 284.001 30.0513V3.64887C284.001 3.52715 283.902 3.42847 283.78 3.42847H279.977C279.856 3.42981 279.759 3.5281 279.759 3.64887V13.3958ZM279.935 20.9999C279.935 24.3305 277.976 26.9411 274.731 26.9411C271.523 26.9411 269.527 24.3281 269.527 20.9999C269.527 17.6007 271.523 15.0244 274.731 15.0244C277.976 15.0244 279.935 17.6007 279.935 20.9999ZM264.228 11.755C264.228 11.641 264.14 11.546 264.027 11.537C263.891 11.5266 263.756 11.5201 263.62 11.5174C261 11.5174 259.474 12.5681 258.634 13.5966C258.492 13.7681 258.166 13.675 258.166 13.4497V11.9142C258.166 11.7934 258.069 11.6951 257.948 11.6938H254.463C254.343 11.6951 254.246 11.7934 254.246 11.9142V30.0513C254.246 30.1738 254.343 30.2717 254.463 30.2717H258.269C258.39 30.2704 258.487 30.1721 258.487 30.0513V20.6081C258.487 17.0277 260.27 15.453 263.265 15.453C263.52 15.453 263.789 15.4774 263.975 15.4946C264.039 15.5015 264.102 15.4815 264.15 15.4397C264.198 15.3978 264.226 15.3378 264.228 15.2742V11.755ZM246.264 21.5754C246.328 21.5662 246.392 21.5849 246.44 21.6267C246.489 21.6686 246.517 21.7294 246.517 21.7934V22.7191C246.517 25.2244 244.841 27.3721 241.418 27.3721C239.385 27.3721 238.136 26.6913 238.136 24.9379C238.136 23.6497 238.993 22.6848 241.597 22.2881L246.264 21.5779V21.5754ZM240.563 30.7003C243.201 30.7003 245.184 29.9313 246.47 28.4228C246.61 28.2562 246.916 28.3493 246.926 28.5697C246.977 29.635 247.129 30.2693 247.158 30.2693H250.854C251.01 30.2693 251.121 30.1077 251.072 29.9583C250.815 29.1452 250.65 27.8277 250.65 26.7623V18.2081C250.65 13.9493 248.084 11.2652 242.667 11.2652C237.208 11.2652 234.972 14.1256 234.531 17.2872C234.524 17.3487 234.544 17.4103 234.585 17.4565C234.626 17.5028 234.685 17.5294 234.747 17.5297H238.452C238.56 17.5297 238.648 17.4513 238.672 17.346C239.018 15.737 240.326 14.7746 242.559 14.7746C245.089 14.7746 246.517 15.9183 246.517 18.1738V18.2693C246.516 18.3787 246.436 18.4714 246.328 18.4872L241.168 19.2121C236.285 19.8905 234.076 21.9305 234.076 25.0799C234.076 28.2636 235.964 30.7003 240.563 30.7003ZM222.847 30.7003C228.764 30.7003 232.472 26.226 232.472 21.0023C232.472 15.7762 228.764 11.2652 222.847 11.2652C216.965 11.2652 213.259 15.7762 213.259 20.9999C213.259 26.226 216.965 30.6979 222.847 30.6979V30.7003ZM217.501 21.0023C217.501 17.3852 219.781 15.0244 222.847 15.0244C225.95 15.0244 228.23 17.3852 228.23 20.9999C228.23 24.5803 225.95 26.9411 222.847 26.9411C219.781 26.9411 217.501 24.5803 217.501 20.9999V21.0023ZM197.637 13.5428C197.495 13.7093 197.197 13.6138 197.197 13.3958V3.64887C197.197 3.52715 197.098 3.42847 196.976 3.42847H193.173C193.051 3.42847 192.952 3.52715 192.952 3.64887V30.0489C192.952 30.1713 193.05 30.2693 193.173 30.2693H196.655C196.778 30.2693 196.876 30.1713 196.876 30.0489V28.3836C196.876 28.1632 197.179 28.0701 197.317 28.2415C198.583 29.7966 200.581 30.7003 203.113 30.7003C208.601 30.7003 211.704 26.297 211.704 21.0023C211.704 15.6685 208.601 11.2652 203.113 11.2652C200.623 11.2652 198.759 12.2472 197.637 13.5428ZM197.052 20.9999C197.052 17.6007 199.011 15.0244 202.256 15.0244C205.464 15.0244 207.463 17.6007 207.463 20.9999C207.463 24.3305 205.464 26.9411 202.256 26.9411C199.014 26.9411 197.052 24.3281 197.052 20.9999ZM189.35 26.7697C189.348 26.7 189.315 26.6348 189.26 26.5918C189.205 26.5487 189.134 26.5323 189.066 26.5468C188.821 26.5958 188.444 26.657 188.032 26.657C186.57 26.657 185.966 25.9395 185.966 24.4725V15.3134C185.967 15.1926 186.065 15.0954 186.186 15.0954H189.203C189.326 15.0954 189.423 14.9974 189.423 14.875V11.9191C189.423 11.7974 189.325 11.6987 189.203 11.6987H186.183C186.125 11.6987 186.069 11.6754 186.028 11.6341C185.986 11.5928 185.963 11.5367 185.963 11.4783V7.08724C185.963 6.96646 185.866 6.86818 185.745 6.86683H181.942C181.82 6.86683 181.721 6.96551 181.721 7.08724V11.4807C181.721 11.5392 181.698 11.5952 181.657 11.6366C181.616 11.6779 181.559 11.7011 181.501 11.7011H179.126C179.005 11.7011 178.906 11.7983 178.905 11.9191V14.8799C178.905 15.0023 179.003 15.1003 179.126 15.1003H181.501C181.623 15.1003 181.721 15.1983 181.721 15.3183V24.906C181.721 28.413 183.362 30.3819 187.141 30.3819C188.189 30.3819 188.89 30.2644 189.188 30.2032C189.285 30.1821 189.352 30.0959 189.35 29.9974V26.7697ZM159.428 20.9999C159.428 26.3681 163.207 30.6979 168.661 30.6979C174.014 30.6979 176.792 27.0587 177.389 23.7917C177.4 23.7292 177.383 23.665 177.341 23.6167C177.3 23.5684 177.24 23.541 177.176 23.5419H173.253C173.152 23.5428 173.064 23.6109 173.037 23.7085C172.489 25.6211 170.843 26.9411 168.624 26.9411C165.595 26.9411 163.67 24.4725 163.67 20.9999C163.67 17.493 165.595 15.0244 168.624 15.0244C170.843 15.0244 172.489 16.3444 173.037 18.257C173.064 18.355 173.152 18.4236 173.253 18.4236H177.176C177.24 18.4245 177.3 18.3971 177.341 18.3488C177.383 18.3005 177.4 18.2363 177.389 18.1738C176.792 14.9068 174.014 11.2677 168.661 11.2677C163.207 11.2677 159.428 15.5974 159.428 20.9999ZM152.285 22.3958C152.285 25.4374 150.646 27.0489 148.009 27.0489C145.442 27.0489 144.409 25.3664 144.409 22.8268V11.9142C144.409 11.7925 144.31 11.6938 144.188 11.6938H140.385C140.263 11.6938 140.165 11.7925 140.165 11.9142V23.3999C140.165 27.7297 142.484 30.6979 146.973 30.6979C149.466 30.6979 151.168 29.7599 152.121 28.5966C152.265 28.4203 152.608 28.5207 152.608 28.7485V30.0513C152.608 30.1738 152.706 30.2717 152.828 30.2717H156.308C156.431 30.2717 156.529 30.1738 156.529 30.0513V11.9142C156.529 11.7925 156.43 11.6938 156.308 11.6938H152.505C152.383 11.6938 152.285 11.7925 152.285 11.9142V22.3958ZM132.668 13.3958C132.668 13.6138 132.367 13.7093 132.225 13.5428C131.111 12.2472 129.269 11.2652 126.749 11.2652C121.295 11.2652 118.192 15.6685 118.192 20.9999C118.192 26.297 121.295 30.6979 126.749 30.6979C129.301 30.6979 131.297 29.804 132.539 28.2611C132.678 28.0897 132.987 28.1828 132.987 28.4032V30.0513C132.987 30.1738 133.085 30.2717 133.207 30.2717H136.69C136.812 30.2717 136.91 30.1738 136.91 30.0513V3.64887C136.91 3.52715 136.811 3.42847 136.69 3.42847H132.886C132.765 3.42847 132.666 3.52715 132.666 3.64887V13.3958H132.668ZM132.845 20.9999C132.845 24.3305 130.886 26.9411 127.641 26.9411C124.432 26.9411 122.434 24.3281 122.434 20.9999C122.434 17.6007 124.432 15.0244 127.641 15.0244C130.883 15.0244 132.845 17.6007 132.845 20.9999ZM106.856 30.7003C112.775 30.7003 116.481 26.226 116.481 21.0023C116.481 15.7738 112.778 11.2652 106.856 11.2652C100.976 11.2652 97.2684 15.7762 97.2684 20.9999C97.2684 26.226 100.976 30.6979 106.856 30.6979V30.7003ZM101.51 21.0023C101.51 17.3852 103.79 15.0244 106.856 15.0244C109.959 15.0244 112.239 17.3852 112.239 20.9999C112.239 24.5803 109.959 26.9411 106.856 26.9411C103.79 26.9411 101.51 24.5803 101.51 20.9999V21.0023ZM96.781 11.755C96.7814 11.641 96.6939 11.546 96.5802 11.537C96.4457 11.5266 96.311 11.5201 96.1761 11.5174C93.5557 11.5174 92.0276 12.5681 91.1876 13.5966C91.0455 13.7681 90.7223 13.675 90.7223 13.4497V11.9142C90.7223 11.7925 90.6236 11.6938 90.5019 11.6938H87.0194C86.8977 11.6938 86.799 11.7925 86.799 11.9142V30.0513C86.799 30.1738 86.897 30.2717 87.0194 30.2717H90.8227C90.9451 30.2717 91.0431 30.1738 91.0431 30.0513V20.6081C91.0431 17.0277 92.8235 15.453 95.8186 15.453C96.0757 15.453 96.3427 15.4774 96.5288 15.4946C96.5921 15.5015 96.6553 15.4815 96.7032 15.4397C96.7511 15.3978 96.7794 15.3378 96.781 15.2742V11.755ZM69.6708 28.5844C69.6708 28.364 69.9745 28.2685 70.119 28.4374C71.2382 29.7477 73.1019 30.7003 75.59 30.7003C81.0782 30.7003 84.181 26.297 84.181 21.0023C84.181 15.6685 81.0782 11.2652 75.59 11.2652C73.0553 11.2652 71.057 12.1983 69.7908 13.7387C69.6537 13.9076 69.35 13.8121 69.35 13.5917V11.9142C69.35 11.7925 69.2513 11.6938 69.1296 11.6938H65.6496C65.5279 11.6938 65.4292 11.7925 65.4292 11.9142V37.4938C65.4292 37.6162 65.5272 37.7142 65.6496 37.7142H69.4529C69.5753 37.7142 69.6733 37.6162 69.6733 37.4938V28.5844H69.6708ZM69.5288 20.9999C69.5288 17.564 71.488 14.9509 74.7329 14.9509C77.941 14.9509 79.9394 17.564 79.9394 20.9999C79.9394 24.3305 77.941 26.9411 74.7329 26.9411C71.4904 26.9411 69.5288 24.3281 69.5288 20.9999Z" fill="#000C2C"/>
</svg>
