<svg width="154" height="77" viewBox="0 0 154 77" fill="none" xmlns="http://www.w3.org/2000/svg">
<path d="M27.8417 25.7083C27.8999 25.6798 27.9585 25.6517 28.0174 25.624C29.6456 24.8564 31.5417 24.472 33.7051 24.472C35.8677 24.472 37.7639 24.8566 39.392 25.624C41.0201 26.3912 42.382 27.4198 43.4758 28.7076C44.5696 29.9954 45.3908 31.4759 45.9376 33.1474C46.4846 34.8189 46.7588 36.5587 46.7588 38.3669C46.7588 40.1751 46.4846 41.9157 45.9376 43.5871C45.3908 45.2586 44.5696 46.739 43.4758 48.0271C42.382 49.3147 41.0201 50.3371 39.392 51.0923C37.7639 51.8466 35.8677 52.2251 33.7051 52.2251C31.5419 52.2251 29.6456 51.8467 28.0174 51.0923C27.6763 50.934 27.3469 50.7641 27.0292 50.5824C35.5136 58.2747 51.848 63.4825 70.6059 63.4825C85.8639 63.4825 99.539 60.3939 108.669 54.9677C98.6773 64.0524 80.8542 70.4602 60.504 70.4568C29.212 70.4525 3.84728 56.14 3.84998 38.4912C3.85267 20.8421 29.2221 6.53824 60.5139 6.54321C80.9454 6.54634 98.8149 12.9746 108.781 22.1232C99.6504 16.663 85.9198 13.5172 70.6059 13.5172C52.4302 13.5172 36.5299 18.4068 27.8417 25.7083L27.8417 25.7083ZM24.8006 42.3371C25.1575 43.6388 25.7179 44.8101 26.4825 45.8511C27.2465 46.8924 28.2272 47.7291 29.4251 48.3617C30.622 48.994 32.0484 49.3095 33.7051 49.3095C35.3612 49.3095 36.7875 48.994 37.9854 48.3617C39.1822 47.7291 40.1631 46.8924 40.9278 45.8511C41.6916 44.8101 42.2519 43.6388 42.6087 42.3371C42.9655 41.0352 43.144 39.7151 43.144 38.3764C43.144 37.0378 42.9655 35.7186 42.6087 34.4168C42.2519 33.1149 41.6915 31.9437 40.9278 30.902C40.163 29.8612 39.1822 29.0246 37.9854 28.3921C36.7875 27.7597 35.3611 27.4434 33.7051 27.4434C32.0484 27.4434 30.6221 27.7597 29.4251 28.3921C28.2272 29.0247 27.2465 29.8613 26.4825 30.902C25.7178 31.9437 25.1575 33.1149 24.8006 34.4168C24.4438 35.7185 24.2662 37.0378 24.2662 38.3764C24.2662 39.7151 24.4438 41.0352 24.8006 42.3371ZM52.1361 34.7331V37.0247H52.1935C52.6616 36.0865 53.3976 35.404 54.4018 34.9782C55.4059 34.5526 56.5095 34.3397 57.7145 34.3397C59.0523 34.3397 60.2178 34.5797 61.211 35.0597C62.2035 35.5398 63.0283 36.1882 63.6864 37.0054C64.3445 37.8237 64.8403 38.7663 65.1756 39.8344C65.5101 40.9029 65.6777 42.0367 65.6777 43.2359C65.6777 44.4352 65.5154 45.5688 65.1925 46.6376C64.8688 47.7061 64.3785 48.6384 63.7204 49.4339C63.0623 50.2294 62.2366 50.8566 61.2441 51.3138C60.2506 51.7713 59.0969 52.0005 57.7807 52.0005C57.3566 52.0005 56.8823 51.9569 56.3587 51.87C55.8343 51.7818 55.316 51.6408 54.8032 51.4445C54.2904 51.2482 53.8044 50.9799 53.3472 50.642C52.89 50.3038 52.5054 49.8843 52.1933 49.3814H52.136V58.1121H49.267V34.7331H52.1361ZM62.3192 40.7462C62.1076 39.9946 61.7859 39.3243 61.352 38.7356C60.918 38.1471 60.3614 37.6784 59.6826 37.3298C59.003 36.9811 58.2079 36.8067 57.2961 36.8067C56.3385 36.8067 55.5264 36.9925 54.8593 37.363C54.1913 37.7336 53.6463 38.2181 53.2231 38.8173C52.8 39.4165 52.4942 40.0981 52.305 40.8612C52.1158 41.6241 52.0216 42.3977 52.0216 43.1817C52.0216 44.0105 52.1211 44.8114 52.322 45.5847C52.5219 46.3594 52.8393 47.0398 53.2733 47.6287C53.7071 48.2174 54.2684 48.6914 54.9588 49.0507C55.6491 49.4105 56.4839 49.5901 57.4628 49.5901C58.4418 49.5901 59.2595 49.4054 59.9158 49.0348C60.5721 48.6642 61.1012 48.1738 61.5019 47.5631C61.9018 46.9534 62.1913 46.2561 62.3697 45.4711C62.5472 44.6861 62.6368 43.8801 62.6368 43.0515C62.6365 42.2669 62.5307 41.4987 62.3192 40.7462ZM80.3106 50.563C79.014 51.5215 77.3834 52.0005 75.4161 52.0005C74.0301 52.0005 72.8278 51.7827 71.8111 51.3472C70.7935 50.911 69.9383 50.3003 69.2452 49.5153C68.5522 48.7304 68.0323 47.7932 67.6861 46.7025C67.3401 45.6124 67.1447 44.4236 67.0998 43.1377C67.0998 41.8516 67.3007 40.6743 67.704 39.6054C68.1065 38.5368 68.6714 37.6099 69.3986 36.8249C70.1256 36.0399 70.9872 35.4303 71.9824 34.994C72.9776 34.5578 74.0687 34.3397 75.2549 34.3397C76.7988 34.3397 78.0791 34.6514 79.0974 35.2735C80.1161 35.8963 80.9327 36.6883 81.5477 37.6494C82.1628 38.6112 82.5887 39.6598 82.8236 40.7951C83.0585 41.9313 83.1535 43.0124 83.1088 44.0392H70.141C70.1185 44.7794 70.2073 45.4812 70.4081 46.1452C70.609 46.8092 70.9318 47.3971 71.3782 47.9088C71.8248 48.4202 72.3932 48.8276 73.0853 49.1324C73.7765 49.4373 74.5906 49.5897 75.5275 49.5897C76.7315 49.5897 77.7187 49.3174 78.488 48.7715C79.2572 48.2257 79.7645 47.3962 80.0102 46.2818H82.8254C82.4452 48.1777 81.6071 49.6046 80.3106 50.563ZM79.6155 39.7115C79.3595 39.1245 79.0142 38.6182 78.5803 38.1942C78.1454 37.7702 77.6327 37.4329 77.0425 37.1824C76.4517 36.9318 75.7999 36.8066 75.0872 36.8066C74.352 36.8066 73.6886 36.9318 73.0986 37.1824C72.5078 37.4329 72.0013 37.7755 71.578 38.21C71.1548 38.6453 70.8205 39.1518 70.5756 39.7281C70.33 40.3046 70.1856 40.9195 70.1408 41.5721H80.0678C80.0227 40.9195 79.8722 40.2992 79.6155 39.7115ZM87.7071 34.7331V37.4182H87.761C88.9496 35.3664 90.8352 34.3397 93.4163 34.3397C94.5604 34.3397 95.514 34.4929 96.2779 34.7987C97.0408 35.1045 97.6578 35.5301 98.1293 36.0761C98.6008 36.6218 98.9318 37.271 99.1227 38.0243C99.3127 38.7778 99.4087 39.6128 99.4087 40.5299V51.6643H96.5398V40.21C96.5398 39.1631 96.2258 38.3344 95.5992 37.7229C94.9717 37.1122 94.1101 36.8064 93.0135 36.8064C92.1406 36.8064 91.3846 36.938 90.7463 37.1999C90.108 37.4619 89.5762 37.8323 89.1513 38.3124C88.7266 38.7924 88.4073 39.354 88.1949 39.997C87.9815 40.6408 87.8756 41.3443 87.8756 42.1083V51.6639H85.0067V34.7331H87.7071ZM119.241 51.4803C117.946 52.0139 116.638 52.2812 115.318 52.2812C113.234 52.2812 111.362 51.9261 109.698 51.2184C108.033 50.5098 106.631 49.5339 105.487 48.2899C104.344 47.0468 103.468 45.5856 102.858 43.9071C102.249 42.2287 101.944 40.4187 101.944 38.4791C101.944 36.4906 102.248 34.6437 102.856 32.9399C103.464 31.2369 104.338 29.7512 105.478 28.4826C106.619 27.214 108.02 26.2198 109.683 25.4978C111.346 24.7769 113.219 24.416 115.303 24.416C116.699 24.416 118.052 24.6218 119.359 25.0328C120.668 25.4444 121.848 26.0489 122.903 26.8461C123.957 27.6434 124.827 28.6262 125.512 29.794C126.198 30.9626 126.618 32.3029 126.77 33.8167H121.056C120.7 32.3284 120.014 31.2113 118.998 30.4668C117.982 29.7221 116.75 29.3498 115.303 29.3498C113.956 29.3498 112.813 29.6046 111.873 30.1145C110.934 30.6244 110.172 31.3087 109.587 32.1663C109.003 33.0247 108.578 34.0006 108.312 35.0948C108.044 36.189 107.912 37.32 107.912 38.4886C107.912 39.6083 108.045 40.6962 108.312 41.7528C108.58 42.8092 109.005 43.7605 109.59 44.606C110.174 45.4512 110.937 46.1284 111.879 46.6383C112.819 47.1482 113.964 47.4032 115.313 47.4032C117.296 47.4032 118.827 46.9146 119.908 45.9367C120.989 44.9591 121.619 43.5416 121.797 41.6845H115.778V37.3112H127.191V51.6845H123.393L122.785 48.6692C121.719 50.0094 120.537 50.9468 119.241 51.4803ZM136.891 25.0887V46.7304H150.15V51.6641H130.923V25.0887H136.891Z" fill="#5586A4"/>
</svg>
