<svg width="208" height="57" viewBox="0 0 208 57" fill="none" xmlns="http://www.w3.org/2000/svg">
<path fill-rule="evenodd" clip-rule="evenodd" d="M31.2662 52C44.3204 52 54.9027 41.4177 54.9027 28.3636C54.9027 15.3096 44.3204 4.72728 31.2662 4.72728C18.2123 4.72728 7.62994 15.3096 7.62994 28.3636C7.62994 41.4177 18.2123 52 31.2662 52Z" fill="#FF5036"/>
<path fill-rule="evenodd" clip-rule="evenodd" d="M31.2566 26.7528C31.2566 26.7528 30.9523 26.25 30.2878 25.3871C29.6233 24.5239 28.5986 23.3008 27.1577 21.8598C25.5588 20.261 23.4641 19.4604 21.3688 19.4579C19.2733 19.4556 17.177 20.2512 15.5751 21.8453C14.0126 23.3999 13.2241 25.4418 13.1981 27.5019C13.1718 29.5618 13.9079 31.6399 15.3946 33.2671C19.6545 37.9289 25.4555 40.2598 31.2566 40.2598C37.058 40.2598 42.8589 37.9289 47.1186 33.2671H47.1188C48.6055 31.6399 49.3416 29.5618 49.3154 27.5019C49.2894 25.4418 48.5008 23.4001 46.9384 21.8453C45.3364 20.2512 43.2402 19.4556 41.1447 19.4579C39.0494 19.4604 36.9544 20.261 35.3558 21.8598C33.9148 23.3008 32.8899 24.5239 32.2254 25.3871C31.5609 26.25 31.2566 26.7528 31.2566 26.7528Z" fill="white"/>
<path fill-rule="evenodd" clip-rule="evenodd" d="M18.006 27.6583C18.006 29.443 19.4527 30.8899 21.2374 30.8899C23.0221 30.8899 24.469 29.443 24.469 27.6583C24.469 25.8736 23.0221 24.4269 21.2374 24.4269C19.4527 24.4269 18.006 25.8736 18.006 27.6583Z" fill="black"/>
<path fill-rule="evenodd" clip-rule="evenodd" d="M31.2566 26.7529C28.7581 29.2514 28.7581 33.3023 31.2566 35.8009C33.7554 33.3023 33.7554 29.2514 31.2566 26.7529Z" fill="black"/>
<path fill-rule="evenodd" clip-rule="evenodd" d="M44.5197 27.6583C44.5197 29.443 43.073 30.8899 41.2884 30.8899C39.5037 30.8899 38.0568 29.443 38.0568 27.6583C38.0568 25.8736 39.5037 24.4269 41.2884 24.4269C43.073 24.4269 44.5197 25.8736 44.5197 27.6583Z" fill="black"/>
<path fill-rule="evenodd" clip-rule="evenodd" d="M141.508 20.8446H129.483C129.271 20.8446 129.1 21.016 129.1 21.2273V23.3058C129.1 23.5173 129.271 23.6886 129.483 23.6886H136.967L128.045 38.0337C127.886 38.2886 128.07 38.6187 128.37 38.6187H141.457C141.669 38.6187 141.84 38.4474 141.84 38.2359V36.1473C141.84 35.936 141.669 35.7646 141.457 35.7646H132.979L141.833 21.4285C141.991 21.1734 141.807 20.8446 141.508 20.8446Z" fill="#FF5036"/>
<path fill-rule="evenodd" clip-rule="evenodd" d="M87.4995 27.3153C87.6911 25.1122 90.086 23.3878 92.8318 23.3878C95.3589 23.3878 97.828 24.4912 98.218 27.3622C98.2492 27.5907 98.068 27.7943 97.8373 27.7943H95.4456C95.2775 27.7943 95.1235 27.6864 95.0796 27.5243C94.8303 26.5991 93.895 26.1976 92.9595 26.1976C92.1294 26.1976 91.1715 26.5172 90.8523 27.0282C90.5968 27.4429 90.5648 27.9222 90.7246 28.3689C90.9162 28.944 91.7461 29.295 92.5445 29.5183L94.8435 30.0935C98.0685 30.8915 98.7392 32.935 98.7392 34.436C98.7392 37.3093 96.2165 38.9381 92.7998 38.9381C90.1491 38.9381 87.4107 37.3386 87.1105 34.4732C87.0869 34.2485 87.2668 34.0529 87.4928 34.0529H89.8002C89.9797 34.0529 90.13 34.1788 90.1738 34.353C90.4515 35.4632 91.4701 36.192 93.0553 36.192C94.556 36.192 95.7057 35.5212 95.7057 34.4039C95.7057 33.446 94.7158 32.9032 93.6301 32.6479L91.6184 32.1687C88.4574 31.3065 87.308 29.7103 87.4995 27.3153Z" fill="#FF5036"/>
<path fill-rule="evenodd" clip-rule="evenodd" d="M112.363 29.9336C112.043 27.6025 110.351 26.2616 108.116 26.2616C105.817 26.2616 104.029 27.6346 103.71 29.9336H112.363ZM115.195 32.3282H103.71C104.029 34.6272 105.881 36.0643 108.276 36.0643C109.822 36.0643 111.34 35.3998 112.16 34.1998C112.266 34.0452 112.465 33.9872 112.636 34.0641C113.271 34.3508 113.975 34.6505 114.631 34.938C114.841 35.0297 114.925 35.2844 114.809 35.4819C113.431 37.8408 110.788 38.938 108.116 38.938C103.869 38.938 100.453 35.841 100.453 31.1152C100.453 26.3895 103.869 23.3878 108.116 23.3878C112.363 23.3878 115.588 26.3895 115.588 31.1152C115.588 31.3516 115.588 31.6748 115.578 31.9581C115.571 32.1646 115.402 32.3282 115.195 32.3282Z" fill="#FF5036"/>
<path fill-rule="evenodd" clip-rule="evenodd" d="M155.003 31.1108C155.003 28.1776 152.821 26.3022 150.16 26.3022C147.534 26.3022 145.352 28.1776 145.352 31.1108C145.352 34.1119 147.534 36.0557 150.16 36.0557C152.821 36.0557 155.003 34.1119 155.003 31.1108ZM142.402 31.1152C142.402 26.3895 145.947 23.3877 150.161 23.3877C154.408 23.3877 157.984 26.3895 157.984 31.1152C157.984 35.8409 154.408 38.938 150.161 38.938C145.947 38.938 142.402 35.8409 142.402 31.1152Z" fill="#FF5036"/>
<path fill-rule="evenodd" clip-rule="evenodd" d="M172.114 31.1108C172.114 28.1776 169.932 26.3022 167.272 26.3022C164.646 26.3022 162.463 28.1776 162.463 31.1108C162.463 34.1119 164.646 36.0557 167.272 36.0557C169.932 36.0557 172.114 34.1119 172.114 31.1108ZM159.514 31.1152C159.514 26.3895 163.058 23.3877 167.273 23.3877C171.519 23.3877 175.096 26.3895 175.096 31.1152C175.096 35.8409 171.519 38.938 167.273 38.938C163.058 38.938 159.514 35.8409 159.514 31.1152Z" fill="#FF5036"/>
<path fill-rule="evenodd" clip-rule="evenodd" d="M193.593 23.3883C191.614 23.4139 189.844 24.2995 188.636 25.687C187.427 24.2995 185.657 23.4139 183.679 23.3883C179.952 23.3401 176.901 26.4737 176.901 30.2011V38.2359C176.901 38.4474 177.073 38.6187 177.284 38.6187H179.807C180.019 38.6187 180.19 38.4474 180.19 38.2359V30.1663C180.19 28.2603 181.75 26.6415 183.656 26.6771C185.504 26.7117 186.991 28.2208 186.991 30.0771V38.2359C186.991 38.4474 187.163 38.6187 187.374 38.6187H189.897C190.109 38.6187 190.28 38.4474 190.28 38.2359V30.1663C190.28 28.2603 191.84 26.6415 193.746 26.6771C195.594 26.7117 197.081 28.2208 197.081 30.0771V38.2359C197.081 38.4474 197.253 38.6187 197.464 38.6187H199.987C200.199 38.6187 200.37 38.4474 200.37 38.2359V30.2011C200.37 26.4737 197.32 23.3401 193.593 23.3883Z" fill="#FF5036"/>
<path fill-rule="evenodd" clip-rule="evenodd" d="M126.77 23.3957C124.898 23.3105 122.816 23.8866 121.594 26.1507V24.09C121.594 23.8787 121.423 23.7073 121.211 23.7073H118.688C118.476 23.7073 118.305 23.8787 118.305 24.09V38.2359C118.305 38.4474 118.476 38.6186 118.688 38.6186H121.211C121.423 38.6186 121.594 38.4474 121.594 38.2359V32.763C121.594 28.1867 124.093 26.3126 126.77 26.2041C126.974 26.1959 127.135 26.0276 127.135 25.823V23.779C127.135 23.5744 126.975 23.4051 126.77 23.3957Z" fill="#FF5036"/>
<path fill-rule="evenodd" clip-rule="evenodd" d="M81.8506 20.8446H84.4031C84.6144 20.8446 84.7859 21.016 84.7859 21.2273V31.5831C84.7859 35.8411 81.8824 38.938 77.3201 38.938C72.7576 38.938 69.8542 35.8411 69.8542 31.5831V21.2273C69.8542 21.016 70.0257 20.8446 70.237 20.8446H72.7896C73.001 20.8446 73.1723 21.016 73.1723 21.2273V31.572C73.1723 33.8547 74.9884 35.7672 77.2707 35.7858C80.0405 35.8082 81.4678 33.95 81.4678 31.1684V21.2273C81.4678 21.016 81.6391 20.8446 81.8506 20.8446Z" fill="#FF5036"/>
</svg>
