<svg width="217" height="55" viewBox="0 0 217 55" fill="none" xmlns="http://www.w3.org/2000/svg">
<path d="M186.001 16.6463C186.001 15.4897 186.943 14.5558 188.105 14.5558C189.268 14.5558 190.208 15.4897 190.208 16.6463V32.8736C190.208 34.0281 189.268 34.962 188.105 34.962C186.943 34.962 186.001 34.0281 186.001 32.8736V16.6463Z" fill="#4C4C4C"/>
<path d="M110.819 21.9816C110.819 20.8271 111.761 19.8911 112.922 19.8911C114.084 19.8911 115.025 20.8271 115.025 21.9816V22.1466C115.994 20.9075 117.266 19.7819 119.398 19.7819C121.333 19.7819 122.799 20.6333 123.575 22.1198C124.876 20.6065 126.425 19.7819 128.445 19.7819C131.571 19.7819 133.454 21.6518 133.454 25.1999V32.8734C133.454 34.0279 132.513 34.9618 131.349 34.9618C130.188 34.9618 129.246 34.0279 129.246 32.8734V26.575C129.246 24.5958 128.362 23.5753 126.784 23.5753C125.208 23.5753 124.239 24.5958 124.239 26.575V32.8734C124.239 34.0279 123.299 34.9618 122.136 34.9618C120.974 34.9618 120.032 34.0279 120.032 32.8734V26.575C120.032 24.5958 119.149 23.5753 117.57 23.5753C115.994 23.5753 115.025 24.5958 115.025 26.575V32.8734C115.025 34.0279 114.084 34.9618 112.922 34.9618C111.761 34.9618 110.819 34.0279 110.819 32.8734V21.9816Z" fill="#4C4C4C"/>
<path fill-rule="evenodd" clip-rule="evenodd" d="M70.2522 38.2345C69.5345 37.9603 69.0637 37.383 69.0637 36.6119C69.0637 35.678 69.8374 34.909 70.779 34.909C71.0549 34.909 71.2768 34.9626 71.4697 35.0451C72.6873 35.5955 73.9878 35.9254 75.5662 35.9254C78.4431 35.9254 79.7996 34.5503 79.7996 31.9093V31.1939C78.553 32.6804 77.1986 33.5875 74.9564 33.5875C71.4988 33.5875 68.3709 31.0846 68.3709 26.7119V26.6562C68.3709 22.2566 71.5527 19.7826 74.9564 19.7826C77.2525 19.7826 78.609 20.7434 79.7436 21.9824V21.9536C79.7436 20.8279 80.6832 19.8919 81.8468 19.8919C83.0083 19.8919 83.9479 20.8279 83.9479 21.9824V31.4702C83.9479 34.1111 83.3132 36.0347 82.0667 37.2737C80.6832 38.6488 78.553 39.2529 75.6761 39.2529C73.7119 39.2529 71.9966 38.923 70.2522 38.2345ZM79.7996 26.7119V26.6562C79.7996 24.6502 78.2211 23.2462 76.1739 23.2462C74.1267 23.2462 72.5773 24.6502 72.5773 26.6562V26.7119C72.5773 28.7467 74.1267 30.1218 76.1739 30.1218C78.2211 30.1218 79.7996 28.7199 79.7996 26.7119Z" fill="#4C4C4C"/>
<path d="M86.3289 21.9816C86.3289 20.8271 87.2705 19.8911 88.4341 19.8911C89.5957 19.8911 90.5353 20.8271 90.5353 21.9816V22.6414C91.1451 21.2106 92.1407 19.8911 93.3852 19.8911C94.6857 19.8911 95.4324 20.7446 95.4324 21.926C95.4324 23.0269 94.7126 23.6866 93.856 23.8784C91.7258 24.3752 90.5353 25.9977 90.5353 28.9665V32.8734C90.5353 34.0279 89.5957 34.9618 88.4341 34.9618C87.2705 34.9618 86.3289 34.0279 86.3289 32.8734V21.9816Z" fill="#4C4C4C"/>
<path fill-rule="evenodd" clip-rule="evenodd" d="M94.9351 30.5072V30.5628C94.9351 33.478 97.2333 35.0717 100.027 35.0717C102.074 35.0717 103.485 34.3295 104.509 33.2018V33.2306C104.509 34.1109 105.312 34.9624 106.53 34.9624C107.664 34.9624 108.577 34.0821 108.577 32.9544V26.2457C108.577 24.2645 108.079 22.642 106.971 21.541C105.92 20.4958 104.261 19.8917 101.964 19.8917C99.9981 19.8917 98.5607 20.1659 97.2333 20.6607C96.5674 20.9081 96.0966 21.541 96.0966 22.2832C96.0966 23.246 96.8724 23.9903 97.841 23.9903C98.0339 23.9903 98.1998 23.9614 98.4508 23.879C99.2514 23.6316 100.193 23.4666 101.355 23.4666C103.458 23.4666 104.536 24.4294 104.536 26.1612V26.4086C103.485 26.0519 102.406 25.8045 100.913 25.8045C97.3971 25.8045 94.9351 27.2889 94.9351 30.5072ZM104.592 28.8579V29.6C104.592 31.1112 103.265 32.1854 101.299 32.1854C99.9442 32.1854 99.0025 31.5256 99.0025 30.3979V30.3422C99.0025 29.0228 100.11 28.3074 101.908 28.3074C102.933 28.3074 103.873 28.5259 104.592 28.8579Z" fill="#4C4C4C"/>
<path d="M137.826 19.8911C136.665 19.8911 135.723 20.8271 135.723 21.9816V32.8734C135.723 34.0279 136.665 34.9618 137.826 34.9618C138.988 34.9618 139.93 34.0279 139.93 32.8734V26.575C139.93 24.5958 140.898 23.5753 142.475 23.5753C144.053 23.5753 144.937 24.5958 144.937 26.575V32.8734C144.937 34.0279 145.878 34.9618 147.04 34.9618C148.203 34.9618 149.143 34.0279 149.143 32.8734V26.575C149.143 24.5958 150.112 23.5753 151.688 23.5753C153.266 23.5753 154.15 24.5958 154.15 26.575V32.8734C154.15 34.0279 155.092 34.9618 156.253 34.9618C157.417 34.9618 158.359 34.0279 158.359 32.8734V25.1999C158.359 21.6518 156.475 19.7819 153.349 19.7819C151.329 19.7819 149.78 20.6065 148.479 22.1198C147.704 20.6333 146.237 19.7819 144.302 19.7819C142.17 19.7819 140.898 20.9075 139.93 22.1466V21.9816C139.93 20.8271 138.988 19.8911 137.826 19.8911Z" fill="#4C4C4C"/>
<path fill-rule="evenodd" clip-rule="evenodd" d="M159.742 30.5628V30.5072C159.742 27.2889 162.204 25.8045 165.719 25.8045C167.213 25.8045 168.291 26.0519 169.343 26.4086V26.1612C169.343 24.4294 168.264 23.4666 166.161 23.4666C165 23.4666 164.058 23.6316 163.257 23.879C163.006 23.9614 162.84 23.9903 162.647 23.9903C161.679 23.9903 160.903 23.246 160.903 22.2832C160.903 21.541 161.374 20.9081 162.038 20.6607C163.367 20.1659 164.807 19.8917 166.769 19.8917C169.067 19.8917 170.726 20.4958 171.778 21.541C172.886 22.642 173.383 24.2645 173.383 26.2457V32.9544C173.383 34.0821 172.469 34.9624 171.336 34.9624C170.119 34.9624 169.316 34.1109 169.316 33.2306V33.2018C168.291 34.3295 166.881 35.0717 164.834 35.0717C162.038 35.0717 159.742 33.478 159.742 30.5628ZM169.399 29.6V28.8579C168.679 28.5259 167.737 28.3074 166.715 28.3074C164.917 28.3074 163.809 29.0228 163.809 30.3422V30.3979C163.809 31.5256 164.751 32.1854 166.107 32.1854C168.069 32.1854 169.399 31.1112 169.399 29.6Z" fill="#4C4C4C"/>
<path d="M177.728 19.8911C176.566 19.8911 175.625 20.8271 175.625 21.9816V32.8734C175.625 34.0279 176.566 34.9618 177.728 34.9618C178.891 34.9618 179.831 34.0279 179.831 32.8734V28.9665C179.831 25.9977 181.022 24.3752 183.152 23.8784C184.008 23.6866 184.728 23.0269 184.728 21.926C184.728 20.7446 183.981 19.8911 182.681 19.8911C181.436 19.8911 180.441 21.2106 179.831 22.6414V21.9816C179.831 20.8271 178.891 19.8911 177.728 19.8911Z" fill="#4C4C4C"/>
<path d="M192.227 37.1639C192.227 38.1803 192.947 38.6771 193.557 38.8956C194.248 39.143 194.911 39.2812 195.853 39.2812C198.371 39.2812 199.615 38.1535 200.86 35.1558L206.035 22.8065C206.118 22.6148 206.228 22.1468 206.228 21.8169C206.228 20.716 205.315 19.8913 204.237 19.8913C203.156 19.8913 202.548 20.6067 202.216 21.487L199.118 30.0408L195.909 21.4582C195.548 20.4686 194.94 19.8913 193.889 19.8913C192.727 19.8913 191.815 20.716 191.815 21.8994C191.815 22.1736 191.924 22.5859 192.034 22.8622L197.1 34.5229L196.961 34.8527C196.573 35.5949 196.212 35.7331 195.465 35.7331C195.16 35.7331 194.94 35.6774 194.579 35.5681C194.413 35.5125 194.221 35.4589 193.889 35.4589C193.03 35.4589 192.227 36.1454 192.227 37.1639Z" fill="#4C4C4C"/>
<path fill-rule="evenodd" clip-rule="evenodd" d="M56.7336 27.4096C56.7336 40.0248 46.4457 50.2527 33.7518 50.2527C21.06 50.2527 10.7721 40.0248 10.7721 27.4096C10.7721 14.7943 21.06 4.56848 33.7518 4.56848C46.4457 4.56848 56.7336 14.7943 56.7336 27.4096Z" fill="#15C39A"/>
<path fill-rule="evenodd" clip-rule="evenodd" d="M38.2868 30.5051C37.3327 30.5051 36.5777 31.3606 36.7561 32.342C36.8909 33.0904 37.5982 33.6017 38.3636 33.6017H40.7717L42.1676 33.4079C39.9337 36.6632 36.0571 38.162 31.8154 37.5023C28.3661 36.9622 25.4 34.6428 24.1493 31.4019C21.3097 24.0418 26.7171 17.0177 33.761 17.0177C37.4343 17.0177 40.6534 19.1536 42.4995 21.7327C42.4995 21.7327 42.5015 21.7863 42.5015 21.7884C42.9931 22.4914 43.9617 22.6914 44.669 22.2048C45.3411 21.743 45.5257 20.8627 45.1233 20.172H45.1336C42.5783 16.2095 37.9902 13.6737 32.8297 14.018C26.1114 14.4654 20.673 19.9308 20.2872 26.6147C19.8371 34.3892 26.043 40.7391 33.761 40.7391C37.816 40.7391 41.4458 38.9846 43.9203 36.1437L43.6257 37.7724V39.2444C43.6257 40.0031 44.1422 40.7082 44.893 40.8422C45.8824 41.0195 46.7411 40.2691 46.7411 39.3207V30.5051H38.2868Z" fill="#FEFEFE"/>
</svg>
