<svg  viewBox="20 16 220 50" fill="none" xmlns="http://www.w3.org/2000/svg"><defs>
<filter id="filter0_d_0_1126" x="102.435" y="34.4126" width="14.2928" height="14.8849" filterUnits="userSpaceOnUse" color-interpolation-filters="sRGB">
<feFlood flood-opacity="0" result="BackgroundImageFix"/>
<feColorMatrix in="SourceAlpha" type="matrix" values="0 0 0 0 0 0 0 0 0 0 0 0 0 0 0 0 0 0 127 0" result="hardAlpha"/>
<feOffset dy="0.701726"/>
<feGaussianBlur stdDeviation="0.200493"/>
<feColorMatrix type="matrix" values="0 0 0 0 0 0 0 0 0 0 0 0 0 0 0 0 0 0 0.15 0"/>
<feBlend mode="normal" in2="BackgroundImageFix" result="effect1_dropShadow_0_1126"/>
<feBlend mode="normal" in="SourceGraphic" in2="effect1_dropShadow_0_1126" result="shape"/>
</filter>
<clipPath id="clip0_0_1126">
<rect width="50" height="50" fill="white" transform="translate(20 16)"/>
</clipPath>
<clipPath id="clip1_0_1126">
<rect width="100" height="24.5902" fill="white" transform="translate(98 29)"/>
</clipPath>
</defs><g clip-path="url(#clip0_0_1126)">
<path d="M45 16C31.1933 16 20 27.1925 20 41H70C70 27.1925 58.8076 16 45 16Z" fill="#129C78"/>
<path d="M45 65.9999C58.8076 65.9999 70 54.8068 70 41H20C20 54.8068 31.1933 65.9999 45 65.9999Z" fill="#129C78"/>
<path opacity="0.2" fill-rule="evenodd" clip-rule="evenodd" d="M49.9321 44.7176C49.683 44.7176 49.4369 44.7727 49.2114 44.8788C48.8716 45.0389 48.5944 45.3072 48.4236 45.6417C48.2527 45.9763 48.1977 46.3581 48.2672 46.7273C48.4146 47.5457 49.1842 48.1062 50.0162 48.1062H52.6353L54.1539 47.8933C51.7242 51.4578 47.5063 53.0973 42.8941 52.3736C39.1402 51.7838 35.9176 49.2447 34.5502 45.6971C31.4644 37.6432 37.3463 29.9539 45.0104 29.9539C49.0055 29.9539 52.5074 32.2927 54.5161 35.1161V35.1774C54.7694 35.5497 55.1595 35.8066 55.6013 35.8919C56.0434 35.9772 56.5013 35.8839 56.8747 35.6325C57.222 35.3922 57.4658 35.0291 57.5562 34.6163C57.647 34.2036 57.578 33.7718 57.3628 33.408H57.3757C55.9566 31.1853 53.9641 29.3863 51.6087 28.2005C49.2532 27.0146 46.6215 26.4859 43.9908 26.6697C36.6862 27.1618 30.7711 33.1434 30.3511 40.4559C29.8629 48.9667 36.6139 55.9157 45.0104 55.9157C47.1059 55.9239 49.1783 55.4789 51.0856 54.6108C52.9928 53.743 54.6898 52.4726 56.0602 50.8874L55.7418 52.6716V54.2828C55.7418 55.1131 56.3013 55.8835 57.1207 56.0309C57.3658 56.0772 57.6178 56.069 57.8592 56.0065C58.1007 55.9443 58.3253 55.8295 58.5171 55.6703C58.7092 55.5114 58.8635 55.3118 58.9694 55.0861C59.0757 54.8605 59.1306 54.6144 59.1303 54.3651V44.7176H49.9321Z" fill="black"/>
<path fill-rule="evenodd" clip-rule="evenodd" d="M49.9321 44.3888C49.683 44.3888 49.4369 44.4439 49.2114 44.55C48.8716 44.71 48.5944 44.9783 48.4236 45.3129C48.2527 45.6474 48.1977 46.0292 48.2672 46.3984C48.4146 47.2168 49.1842 47.7774 50.0162 47.7774H52.6353L54.1539 47.5644C51.7242 51.129 47.5063 52.7684 42.8941 52.0448C39.1402 51.455 35.9176 48.9158 34.5502 45.3682C31.4644 37.3144 37.3463 29.6251 45.0104 29.6251C49.0055 29.6251 52.5074 31.9638 54.5161 34.7872V34.8486C54.7694 35.2208 55.1595 35.4777 55.6013 35.563C56.0434 35.6483 56.5013 35.5551 56.8747 35.3037C57.222 35.0633 57.4658 34.7002 57.5562 34.2875C57.647 33.8747 57.578 33.443 57.3628 33.0791H57.3757C55.9566 30.8564 53.9641 29.0574 51.6087 27.8716C49.2532 26.6858 46.6215 26.157 43.9908 26.3409C36.6862 26.833 30.7711 32.8146 30.3511 40.127C29.8629 48.6377 36.6139 55.5869 45.0104 55.5869C47.1059 55.5951 49.1783 55.15 51.0856 54.2819C52.9928 53.4142 54.6898 52.1438 56.0602 50.5586L55.7418 52.3428V53.954C55.7418 54.7842 56.3013 55.5546 57.1207 55.702C57.3658 55.7484 57.6178 55.7402 57.8592 55.6777C58.1007 55.6155 58.3253 55.5007 58.5171 55.3415C58.7092 55.1826 58.8635 54.9829 58.9694 54.7573C59.0757 54.5316 59.1306 54.2855 59.1303 54.0362V44.3888H49.9321Z" fill="white"/>
</g><g clip-path="url(#clip1_0_1126)">
<path fill-rule="evenodd" clip-rule="evenodd" d="M128.41 46.8442C128.042 46.7036 127.801 46.4074 127.801 46.0123C127.801 45.5332 128.197 45.1388 128.678 45.1388C128.82 45.1388 128.933 45.1667 129.032 45.209C129.655 45.491 130.319 45.66 131.126 45.66C132.597 45.66 133.29 44.9554 133.29 43.6017V43.2352C132.653 43.9968 131.961 44.4616 130.815 44.4616C129.046 44.4616 127.447 43.1787 127.447 40.9371V40.9092C127.447 38.6534 129.074 37.3848 130.815 37.3848C131.989 37.3848 132.682 37.878 133.262 38.5124V38.498C133.262 37.9203 133.743 37.4412 134.337 37.4412C134.931 37.4412 135.412 37.9203 135.412 38.5124V43.3762C135.412 44.7298 135.087 45.7166 134.45 46.3508C133.743 47.0559 132.653 47.366 131.183 47.366C130.178 47.366 129.301 47.197 128.41 46.8442ZM133.29 40.9371V40.9092C133.29 39.8798 132.484 39.1609 131.437 39.1609C130.39 39.1609 129.598 39.8798 129.598 40.9092V40.9371C129.598 41.9803 130.39 42.6854 131.437 42.6854C132.484 42.6854 133.29 41.9665 133.29 40.9371Z" fill="#0E101A"/>
<path fill-rule="evenodd" clip-rule="evenodd" d="M128.41 46.8441C128.042 46.7036 127.801 46.4073 127.801 46.0122C127.801 45.5332 128.197 45.1387 128.678 45.1387C128.82 45.1387 128.933 45.1666 129.032 45.2089C129.655 45.4909 130.319 45.6599 131.126 45.6599C132.597 45.6599 133.29 44.9553 133.29 43.6017V43.2352C132.653 43.9968 131.961 44.4615 130.815 44.4615C129.046 44.4615 127.447 43.1786 127.447 40.9371V40.9091C127.447 38.6533 129.074 37.3847 130.815 37.3847C131.989 37.3847 132.682 37.878 133.262 38.5123V38.498C133.262 37.9202 133.743 37.4412 134.337 37.4412C134.931 37.4412 135.412 37.9202 135.412 38.5123V43.3762C135.412 44.7298 135.087 45.7165 134.45 46.3507C133.743 47.0558 132.653 47.366 131.183 47.366C130.178 47.366 129.301 47.197 128.41 46.8441ZM133.29 40.9371V40.9091C133.29 39.8797 132.484 39.1608 131.437 39.1608C130.39 39.1608 129.598 39.8797 129.598 40.9091V40.9371C129.598 41.9803 130.39 42.6853 131.437 42.6853C132.484 42.6853 133.29 41.9665 133.29 40.9371ZM136.629 38.5123C136.629 37.9202 137.11 37.4412 137.704 37.4412C138.298 37.4412 138.779 37.9202 138.779 38.5123V38.8503C139.091 38.1177 139.6 37.4412 140.237 37.4412C140.902 37.4412 141.283 37.878 141.283 38.4838C141.283 39.0479 140.916 39.3864 140.477 39.4852C139.388 39.7392 138.779 40.5706 138.779 42.0932V44.095C138.779 44.6871 138.298 45.1666 137.704 45.1666C137.11 45.1666 136.629 44.6871 136.629 44.095V38.5123ZM141.029 42.9108V42.8829C141.029 41.2335 142.288 40.4718 144.085 40.4718C144.848 40.4718 145.4 40.5986 145.938 40.7818V40.655C145.938 39.7672 145.386 39.2734 144.311 39.2734C143.717 39.2734 143.236 39.3584 142.826 39.4852C142.698 39.5274 142.614 39.5417 142.514 39.5417C142.019 39.5417 141.623 39.1608 141.623 38.6671C141.623 38.2867 141.863 37.9625 142.203 37.8353C142.882 37.5816 143.618 37.4412 144.622 37.4412C145.796 37.4412 146.645 37.7512 147.183 38.2867C147.748 38.8503 148.003 39.6827 148.003 40.6979V44.1373C148.003 44.7156 147.537 45.1666 146.956 45.1666C146.334 45.1666 145.924 44.7298 145.924 44.2783V44.264C145.4 44.8424 144.679 45.2226 143.632 45.2226C142.203 45.2226 141.029 44.4056 141.029 42.9108ZM145.966 42.4175V42.0367C145.598 41.8677 145.118 41.7547 144.594 41.7547C143.674 41.7547 143.109 42.1212 143.109 42.7984V42.8263C143.109 43.4047 143.59 43.7427 144.282 43.7427C145.287 43.7427 145.966 43.1929 145.966 42.4175ZM149.15 38.5123C149.15 37.9202 149.63 37.4412 150.225 37.4412C150.819 37.4412 151.3 37.9202 151.3 38.5123V38.5974C151.795 37.9625 152.446 37.3847 153.535 37.3847C154.525 37.3847 155.275 37.8214 155.671 38.583C156.336 37.8077 157.129 37.3847 158.161 37.3847C159.76 37.3847 160.722 38.3433 160.722 40.1623V44.095C160.722 44.6871 160.241 45.1666 159.646 45.1666C159.052 45.1666 158.571 44.6871 158.571 44.095V40.8669C158.571 39.8517 158.118 39.3299 157.312 39.3299C156.506 39.3299 156.011 39.8517 156.011 40.8669V44.095C156.011 44.6871 155.53 45.1666 154.936 45.1666C154.341 45.1666 153.86 44.6871 153.86 44.095V40.8669C153.86 39.8517 153.408 39.3299 152.602 39.3299C151.795 39.3299 151.3 39.8517 151.3 40.8669V44.095C151.3 44.6871 150.819 45.1666 150.225 45.1666C149.63 45.1666 149.15 44.6871 149.15 44.095V38.5123ZM161.882 38.5123C161.882 37.9202 162.363 37.4412 162.958 37.4412C163.552 37.4412 164.033 37.9202 164.033 38.5123V38.5974C164.528 37.9625 165.179 37.3847 166.268 37.3847C167.258 37.3847 168.008 37.8214 168.404 38.583C169.069 37.8077 169.861 37.3847 170.894 37.3847C172.493 37.3847 173.454 38.3433 173.454 40.1623V44.095C173.454 44.6871 172.974 45.1666 172.379 45.1666C171.785 45.1666 171.304 44.6871 171.304 44.095V40.8669C171.304 39.8517 170.851 39.3299 170.045 39.3299C169.238 39.3299 168.743 39.8517 168.743 40.8669V44.095C168.743 44.6871 168.263 45.1666 167.668 45.1666C167.074 45.1666 166.593 44.6871 166.593 44.095V40.8669C166.593 39.8517 166.141 39.3299 165.334 39.3299C164.528 39.3299 164.033 39.8517 164.033 40.8669V44.095C164.033 44.6871 163.552 45.1666 162.958 45.1666C162.363 45.1666 161.882 44.6871 161.882 44.095V38.5123ZM174.163 42.9108V42.8829C174.163 41.2335 175.422 40.4718 177.218 40.4718C177.982 40.4718 178.534 40.5986 179.071 40.7818V40.655C179.071 39.7672 178.52 39.2734 177.444 39.2734C176.85 39.2734 176.369 39.3584 175.959 39.4852C175.832 39.5274 175.747 39.5417 175.648 39.5417C175.153 39.5417 174.757 39.1608 174.757 38.6671C174.757 38.2867 174.997 37.9625 175.336 37.8353C176.016 37.5816 176.751 37.4412 177.756 37.4412C178.93 37.4412 179.779 37.7512 180.316 38.2867C180.882 38.8503 181.136 39.6827 181.136 40.6979V44.1373C181.136 44.7156 180.67 45.1666 180.09 45.1666C179.468 45.1666 179.057 44.7298 179.057 44.2783V44.264C178.534 44.8424 177.812 45.2226 176.766 45.2226C175.336 45.2226 174.163 44.4056 174.163 42.9108ZM179.1 42.4175V42.0367C178.732 41.8677 178.251 41.7547 177.728 41.7547C176.808 41.7547 176.242 42.1212 176.242 42.7984V42.8263C176.242 43.4047 176.723 43.7427 177.416 43.7427C178.42 43.7427 179.1 43.1929 179.1 42.4175ZM182.283 38.5123C182.283 37.9202 182.764 37.4412 183.358 37.4412C183.953 37.4412 184.433 37.9202 184.433 38.5123V38.8503C184.744 38.1177 185.254 37.4412 185.891 37.4412C186.556 37.4412 186.937 37.878 186.937 38.4838C186.937 39.0479 186.57 39.3864 186.13 39.4852C185.042 39.7392 184.433 40.5706 184.433 42.0932V44.095C184.433 44.6871 183.953 45.1666 183.358 45.1666C182.764 45.1666 182.283 44.6871 182.283 44.095V38.5123ZM187.589 35.777C187.589 35.1849 188.069 34.7058 188.663 34.7058C189.258 34.7058 189.739 35.1849 189.739 35.777V44.095C189.739 44.6871 189.258 45.1666 188.663 45.1666C188.069 45.1666 187.589 44.6871 187.589 44.095V35.777ZM191.451 47.1826C191.139 47.0702 190.771 46.8161 190.771 46.2948C190.771 45.773 191.182 45.4202 191.621 45.4202C191.789 45.4202 191.889 45.4487 191.974 45.4766C192.157 45.5332 192.271 45.5616 192.427 45.5616C192.808 45.5616 192.993 45.4909 193.191 45.1102L193.262 44.9412L190.673 38.9634C190.616 38.8223 190.56 38.6111 190.56 38.4701C190.56 37.8638 191.026 37.4412 191.621 37.4412C192.157 37.4412 192.469 37.737 192.653 38.244L194.294 42.643L195.879 38.2582C196.048 37.8077 196.359 37.4412 196.912 37.4412C197.462 37.4412 197.93 37.8638 197.93 38.4277C197.93 38.5974 197.873 38.8366 197.83 38.9354L195.185 45.2654C194.548 46.8019 193.912 47.3802 192.625 47.3802C192.144 47.3802 191.804 47.3099 191.451 47.1826Z" fill="#0E101A"/>
<path d="M109.709 29.5859C103.243 29.5859 98 34.8281 98 41.2951H121.418C121.418 34.8281 116.176 29.5859 109.709 29.5859Z" fill="#4CA385"/>
<path d="M109.709 53.0043C116.176 53.0043 121.418 47.7617 121.418 41.2952H98C98 47.7617 103.243 53.0043 109.709 53.0043Z" fill="#4CA385"/>
<g filter="url(#filter0_d_0_1126)">
<path fill-rule="evenodd" clip-rule="evenodd" d="M112.019 42.8823C111.902 42.8823 111.787 42.9081 111.681 42.9579C111.522 43.0328 111.392 43.1584 111.312 43.3152C111.232 43.4718 111.206 43.6507 111.239 43.8236C111.308 44.2069 111.668 44.4694 112.058 44.4694H113.285L113.996 44.3697C112.858 46.0392 110.882 46.8071 108.722 46.4682C106.964 46.192 105.455 45.0027 104.814 43.3411C103.369 39.5689 106.124 35.9675 109.713 35.9675C111.585 35.9675 113.225 37.0629 114.166 38.3852V38.414C114.284 38.5884 114.467 38.7087 114.674 38.7487C114.881 38.7886 115.095 38.7449 115.27 38.6272C115.433 38.5146 115.547 38.3445 115.59 38.1512C115.632 37.9579 115.6 37.7557 115.499 37.5852H115.505C114.84 36.5442 113.907 35.7017 112.804 35.1463C111.701 34.5909 110.468 34.3432 109.236 34.4293C105.815 34.6598 103.044 37.4614 102.848 40.8862C102.619 44.8724 105.781 48.1271 109.713 48.1271C110.695 48.131 111.666 47.9225 112.559 47.516C113.452 47.1095 114.247 46.5146 114.889 45.772L114.74 46.6077V47.3624C114.74 47.7511 115.002 48.112 115.386 48.1811C115.5 48.2028 115.618 48.1989 115.731 48.1697C115.845 48.1405 115.95 48.0867 116.04 48.0122C116.13 47.9377 116.202 47.8443 116.252 47.7386C116.301 47.6329 116.327 47.5175 116.327 47.4008V42.8823H112.019Z" fill="white"/>
</g></svg>