<svg width="172" height="69" viewBox="0 0 172 69" fill="none" xmlns="http://www.w3.org/2000/svg">
<path d="M13.3369 20.0485C13.631 21.5552 13.9712 23.0363 14.3575 24.492C14.7821 26.1108 15.263 27.6952 15.8002 29.2452C16.3118 30.6856 16.8579 32.0979 17.4385 33.4822C18.3933 35.7119 19.4811 37.8827 20.6961 39.983C21.7192 41.7267 22.8205 43.422 23.9996 45.0688C24.8873 46.2925 25.8209 47.4881 26.8007 48.6558C27.9594 47.636 29.0619 46.5933 30.1081 45.5277C29.1207 44.3423 28.1883 43.1263 27.3109 41.8797C26.3555 40.5259 25.4615 39.1378 24.6251 37.7153C23.588 35.9261 22.6528 34.08 21.8242 32.1859C21.2128 30.799 20.6539 29.379 20.1474 27.9259C19.6077 26.3785 19.1268 24.7941 18.7047 23.1727C18.3236 21.7222 17.991 20.2448 17.7071 18.7407C17.4002 17.1155 17.1431 15.4521 16.9397 13.7695C18.5743 13.3565 20.2088 13.0047 21.8433 12.7141C23.3474 12.4503 24.8515 12.2323 26.3517 12.0717C31.1047 11.553 35.9009 11.562 40.6519 12.0985C42.1534 12.2642 43.6562 12.4834 45.1603 12.7562C46.7948 13.0519 48.4281 13.4063 50.0601 13.8193C51.5385 14.194 53.017 14.6172 54.4955 15.0888C54.6848 13.5898 54.8306 12.0666 54.933 10.5192C54.9344 10.4937 54.9187 10.4703 54.8945 10.4618C53.4135 10.008 51.9324 9.60012 50.4514 9.23811C48.7964 8.83788 47.144 8.49371 45.4941 8.20564C43.9824 7.95071 42.4719 7.73784 40.9627 7.56704C35.9977 7.02417 30.9884 7.01648 26.0217 7.54409C24.5151 7.7047 23.0059 7.91247 21.4942 8.1674C19.8392 8.45038 18.188 8.79199 16.5407 9.19223L11.9326 10.3127L12.5311 15.0315C12.746 16.7293 13.0146 18.4016 13.3369 20.0485ZM42.931 45.1109C45.5726 41.5083 47.8004 37.6218 49.5727 33.5242C50.1713 32.1438 50.7238 30.7289 51.2264 29.2911C49.7684 28.7812 48.3142 28.3453 46.8639 27.9833C46.3523 29.4339 45.787 30.8512 45.168 32.2355C44.3668 34.0295 43.4703 35.7795 42.4821 37.4782C41.6022 39.0078 40.6468 40.489 39.6159 41.9217C38.7335 43.1569 37.7896 44.3691 36.7958 45.5507C35.7419 46.81 34.6228 48.035 33.4385 49.2255C32.3872 50.2937 31.2847 51.3338 30.1311 52.3459C28.8879 53.4395 27.5872 54.5039 26.2289 55.5389C25.0599 54.3356 23.9421 53.1005 22.8755 51.8335C21.8958 50.6684 20.9621 49.4766 20.0745 48.258C18.721 46.4139 17.4671 44.4992 16.3181 42.522C14.9727 40.195 13.772 37.7878 12.723 35.3139C12.1347 33.9296 11.5898 32.5173 11.0884 31.0769C10.5462 29.5141 10.055 27.9208 9.61507 26.2969C9.22115 24.8285 8.86687 23.3371 8.55224 21.8229C7.14793 22.399 5.74106 23.0236 4.33163 23.6966C4.30898 23.708 4.29651 23.7329 4.30093 23.7578C4.63091 25.2682 5.00692 26.7519 5.41748 28.2166C5.87791 29.8481 6.38949 31.4529 6.95225 33.0309C7.46384 34.4713 8.01891 35.8875 8.61747 37.2794C10.6731 42.0795 13.2694 46.6312 16.3565 50.8469C17.2467 52.0706 18.1791 53.2687 19.1536 54.4414C20.2203 55.7161 21.3382 56.9704 22.5071 58.2042L25.7838 61.6458L29.5479 58.732C30.8985 57.6842 32.1979 56.6045 33.4462 55.493C34.5972 54.4733 35.701 53.4268 36.7575 52.3535C37.9315 51.163 39.0506 49.9419 40.1147 48.6902C41.1021 47.5226 42.0409 46.3295 42.931 45.1109ZM58.4782 21.8611C56.8897 21.2135 55.3 20.6272 53.709 20.1021C52.2471 19.6203 50.7852 19.1843 49.3233 18.8057C47.699 18.3825 46.0773 18.0244 44.4581 17.7312C42.9541 17.4558 41.4512 17.2366 39.9498 17.0735C37.7733 16.8371 35.5856 16.7184 33.3963 16.7178C31.2931 16.7178 29.1914 16.8293 27.0999 17.0505C25.5984 17.206 24.0956 17.4189 22.5915 17.6892C22.8704 19.2008 23.2016 20.6769 23.5853 22.1173C25.1047 21.8623 26.6216 21.6571 28.1359 21.5016C29.8932 21.3384 31.6467 21.2556 33.3963 21.2531C35.2252 21.2531 37.0631 21.3449 38.9099 21.5284C40.4217 21.6788 41.9372 21.8891 43.4567 22.1593C45.0759 22.45 46.6976 22.8082 48.3219 23.2339C49.7749 23.6163 51.229 24.0522 52.6845 24.5417C54.2576 25.0745 55.8333 25.6711 57.4116 26.3313C56.969 27.9527 56.4741 29.5434 55.9267 31.1036C55.4151 32.5415 54.8651 33.9525 54.2768 35.3368C52.3112 39.9252 49.8171 44.2704 46.8447 48.2848C45.952 49.4983 45.0119 50.6863 44.0246 51.8488C42.9553 53.1234 41.8337 54.356 40.6596 55.5466C39.5955 56.6274 38.4917 57.6892 37.3483 58.732L41.1124 61.6382L44.4044 58.1966C45.5785 56.9729 46.7015 55.7212 47.7732 54.4414C48.7529 53.2687 49.6917 52.0731 50.5895 50.8545C53.6978 46.6328 56.3159 42.0735 58.3938 37.2641C58.9924 35.8773 59.55 34.4636 60.0667 33.0233C60.6295 31.4504 61.141 29.8481 61.6015 28.2166L62.8523 23.7845C61.3968 23.0988 59.9388 22.4576 58.4782 21.8611Z" fill="url(#paint0_linear_0_6838)"/>
<path d="M156.503 26.6142C151.397 26.316 150.365 26.0674 150.365 24.7214C150.365 23.3753 151.416 22.9967 155.847 22.9967C160.529 22.9967 162.459 23.4709 162.459 25.3944H166.963C166.963 21.0771 162.957 19.429 156.35 19.429C149.743 19.429 145.86 20.6527 145.86 24.4958C145.86 28.4115 148.888 29.6084 156.523 29.9602C162.21 30.2355 163.207 30.4841 163.207 31.9296C163.207 33.3024 161.784 33.8416 157.068 33.8416C151.362 33.8416 149.858 32.9926 149.858 31.1648H145.319C145.319 36.2048 149.597 37.4246 156.784 37.4246C163.268 37.4246 167.7 36.4763 167.7 31.8111C167.7 27.3638 163.41 26.989 156.503 26.6142ZM79.0632 19.6775C75.0892 24.9422 72.0582 30.8518 70.104 37.1455H74.8002L75.679 34.2584C77.0304 30.9281 78.6844 27.7281 80.621 24.6985L81.9369 23.0006L82.2443 23.2988C83.8217 25.6878 85.2209 28.189 86.43 30.7824H80.6099C80.0266 32.0341 79.4945 33.2986 79.0134 34.5758H88.0303C88.3528 35.4298 88.6516 36.2877 88.9282 37.1493H93.6932C91.6374 30.8436 88.512 24.9355 84.4541 19.6814L79.0632 19.6775ZM105.569 19.6775C101.594 24.9414 98.5644 30.8514 96.6134 37.1455H101.31L102.184 34.2584C103.536 30.9281 105.19 27.7281 107.126 24.6985L108.446 23.0006L108.75 23.2988C110.327 25.6886 111.727 28.1897 112.939 30.7824H107.115C106.532 32.0341 106.001 33.2986 105.523 34.5758H114.54C114.861 35.4285 115.157 36.2851 115.438 37.1493H120.203C118.145 30.8434 115.019 24.9354 110.96 19.6814L105.569 19.6775ZM123.944 37.1455H128.452V31.681H138.221C138.702 30.4064 139.23 29.1496 139.805 27.9106L139.844 27.8876H128.452V23.448H142.472V19.6775H123.944V37.1455Z" fill="#234089"/>
<path d="M90.4551 52.0328H92.9028V50.9238H90.4551V50.159H93.1407V48.9621H89.0586V54.0442H93.1945V52.8473H90.4551V52.0328ZM98.6391 51.6504L96.5446 48.9736H95.2241V54.0557H96.6246V51.268L98.8003 54.0557H100.04V48.9545H98.6391V51.6504ZM90.0213 46.1095H90.9958L90.4014 45.1572C90.8444 44.9863 91.1275 44.5516 91.1033 44.0789C91.1131 43.7542 90.984 43.4407 90.7487 43.2162C90.5128 42.9917 90.193 42.8772 89.8679 42.9011H87.3396V46.1095H88.168V45.2529H89.4996L90.0213 46.1095ZM88.168 43.5818H89.6379C89.887 43.5818 90.2749 43.5818 90.2749 44.0674C90.2749 44.5531 89.8909 44.5492 89.6379 44.5492H88.168V43.5818ZM165.152 45.1114H167.309V44.4154H165.152V43.5818H167.585V42.8896H164.324V46.0979H165.152V45.1114ZM92.6079 46.1171H93.4324V42.9088H92.6079V46.1171ZM98.7276 45.8494V45.1114C98.1627 45.3551 97.5506 45.4713 96.9359 45.4517C96.3218 45.4517 95.9574 45.337 95.7844 45.1572C95.4934 44.7767 95.4934 44.2492 95.7844 43.8686C95.9496 43.6889 96.3179 43.5741 96.9359 43.5741C97.5532 43.5608 98.1659 43.6918 98.7236 43.9565V43.1917C98.16 42.9595 97.5525 42.8526 96.9431 42.8782C95.9378 42.8782 95.4089 43.1344 95.1245 43.4212C94.6336 44.0767 94.6336 44.976 95.1245 45.6315C95.3932 45.922 95.9378 46.1783 96.9431 46.1783C97.5565 46.1955 98.1659 46.0766 98.7276 45.8303V45.8494ZM103.424 46.1171H104.341L102.675 42.9088H101.559L99.898 46.1171H100.807L101.152 45.4326H103.071L103.424 46.1171ZM101.46 44.8207L102.12 43.5168L102.772 44.8207H101.46ZM150.871 46.1171H151.7V45.0616L153.518 42.9088H152.521L151.286 44.3466L150.046 42.8858H149.049L150.871 45.0387V46.1171ZM85.6665 45.4632H83.0923V44.8093H85.6665V44.2166H83.0923V43.5435H85.6665V42.8896H82.2633V46.0979H85.6665V45.4632ZM70.104 54.0557H71.5163V52.2393H73.9254V51.0921H71.5163V50.2279H74.1829V48.9927H70.104V54.0557ZM78.2539 48.8742C77.5363 48.8557 76.841 49.1243 76.3233 49.62C75.8055 50.1158 75.5087 50.7974 75.4988 51.5127C75.5539 52.984 76.7669 54.1484 78.2441 54.1484C79.7212 54.1484 80.9343 52.984 80.9893 51.5127C80.9959 50.7938 80.7075 50.1033 80.1911 49.6015C79.6747 49.0996 78.9748 48.83 78.2539 48.855V48.8742ZM79.5508 51.528C79.5672 51.8816 79.4381 52.2267 79.193 52.4831C78.9486 52.7395 78.6091 52.8849 78.2539 52.8855C77.8968 52.8807 77.5566 52.7321 77.3109 52.4735C77.0651 52.2151 76.9347 51.8685 76.9491 51.5127C76.9327 51.1604 77.0605 50.8166 77.3037 50.5604C77.5468 50.3043 77.8843 50.1579 78.2382 50.1552C78.596 50.1581 78.9374 50.3052 79.1852 50.5631C79.4322 50.8211 79.5639 51.1678 79.5508 51.5242V51.528ZM87.0362 50.725C87.0585 50.2842 86.894 49.8543 86.5834 49.5395C86.1285 49.1379 85.5282 48.9389 84.9221 48.9889H82.513V54.071H83.9246V52.5414H84.5426L85.5708 54.071H87.2013L85.985 52.3005C86.6548 52.061 87.0893 51.414 87.0559 50.7059L87.0362 50.725ZM85.6128 50.8091C85.6128 51.1915 85.3369 51.4133 84.8454 51.4133H83.9135V50.1935H84.8382C85.314 50.1935 85.6049 50.3962 85.6049 50.7976L85.6128 50.8091ZM71.6618 42.9088L70.0005 46.1171H70.9134L71.2588 45.4326H73.1776L73.523 46.1171H74.4359L72.7706 42.9088H71.6618ZM71.5661 44.8207L72.2221 43.5168L72.8742 44.8207H71.5661ZM76.4196 43.9183L77.7585 46.1171H78.3535L79.6924 43.9183V46.1171H80.5325V42.9088H79.4165L78.0658 45.1726L76.6962 42.8896H75.5794V46.0979H76.4085L76.4196 43.9183ZM158.89 52.0328H161.335V50.9238H158.89V50.159H161.577V48.9621H157.49V54.0442H161.626V52.8473H158.89V52.0328ZM104.348 50.8856C103.643 50.725 103.466 50.6256 103.466 50.3923C103.466 50.2126 103.635 50.0672 103.976 50.0672C104.492 50.087 104.989 50.2617 105.404 50.5682L106.11 49.574C105.512 49.1081 104.769 48.8683 104.011 48.8971C102.791 48.8971 102.039 49.5816 102.039 50.5262C102.039 51.5739 102.875 51.876 103.957 52.1246C104.652 52.2852 104.816 52.3999 104.816 52.6102C104.816 52.8282 104.613 52.9582 104.234 52.9582C103.63 52.951 103.047 52.7363 102.584 52.3502L101.797 53.2832C102.462 53.8458 103.312 54.1453 104.183 54.1245C105.423 54.1245 106.244 53.5088 106.244 52.4725C106.24 51.5013 105.519 51.1265 104.348 50.8703V50.8856ZM139.594 52.0328H142.039V50.9238H139.594V50.159H142.281V48.9621H138.194V54.0442H142.33V52.8473H139.594V52.0328ZM145.599 46.0979L146.938 43.8992V46.0979H147.767V42.8896H146.647L145.3 45.1535L143.953 42.8896H142.837V46.0979H143.661V43.8992L145.001 46.0979H145.599ZM134.856 54.0365H136.276V48.9545H134.856V54.0365ZM147.775 51.6389L145.676 48.9621H144.36V54.0442H145.76V51.2565L147.936 54.0442H149.175V48.9545H147.779L147.775 51.6389ZM136.168 44.4919C136.204 44.0643 136.053 43.6421 135.753 43.3346C135.452 43.0272 135.032 42.8649 134.603 42.8896H132.254V46.0979H134.591C135.023 46.1251 135.446 45.9633 135.749 45.6549C136.051 45.3464 136.205 44.9219 136.168 44.4919ZM134.292 45.4058H133.098V43.5818H134.296C134.921 43.5818 135.343 43.7156 135.343 44.4919C135.343 45.2681 134.906 45.4058 134.28 45.4058H134.292ZM160.851 42.8438C159.436 42.8438 158.829 43.425 158.829 44.4881C158.829 45.5511 159.436 46.1439 160.851 46.1439C162.267 46.1439 162.877 45.5511 162.877 44.4881C162.877 43.425 162.259 42.8438 160.839 42.8438H160.851ZM160.851 45.4517C159.992 45.4517 159.658 45.1496 159.658 44.4881C159.658 43.8265 159.988 43.5359 160.851 43.5359C161.714 43.5359 162.048 43.838 162.048 44.4881C162.048 45.1381 161.699 45.4517 160.839 45.4517H160.851ZM165.766 50.8703C165.06 50.7097 164.883 50.6103 164.883 50.377C164.883 50.1973 165.052 50.052 165.394 50.052C165.91 50.0718 166.407 50.2463 166.821 50.5529L167.527 49.5587C166.931 49.0935 166.189 48.8537 165.433 48.8818C164.208 48.8818 163.456 49.5663 163.456 50.5108C163.456 51.5586 164.297 51.8607 165.375 52.1093C166.07 52.2699 166.234 52.3846 166.234 52.5949C166.234 52.8129 166.031 52.9429 165.651 52.9429C165.047 52.9351 164.465 52.7204 164.001 52.3349L163.234 53.2679C163.899 53.8306 164.748 54.13 165.621 54.1092C166.86 54.1092 167.681 53.4936 167.681 52.4573C167.654 51.5013 166.929 51.1265 165.754 50.8703H165.766ZM153.488 52.8511C153.143 52.8408 152.817 52.6895 152.587 52.4328C152.357 52.1761 152.243 51.8365 152.272 51.4936C152.248 51.1532 152.364 50.8177 152.593 50.5644C152.822 50.3111 153.146 50.162 153.488 50.1514C153.935 50.1543 154.353 50.3758 154.604 50.7441L155.667 49.9257C155.176 49.2262 154.359 48.8263 153.503 48.8665C152.792 48.8478 152.104 49.1184 151.597 49.6162C151.09 50.114 150.809 50.796 150.818 51.5051C150.842 52.6623 151.61 53.6726 152.721 54.0093C153.833 54.346 155.035 53.9327 155.702 52.985L154.639 52.2202C154.387 52.6089 153.956 52.8458 153.492 52.8511H153.488ZM141.156 45.4441H138.586V44.7902H141.156V44.1974H138.586V43.5435H141.156V42.8896H137.757V46.0979H141.156V45.4441ZM113.837 52.8511C113.493 52.8397 113.168 52.688 112.939 52.4315C112.71 52.1749 112.596 51.8359 112.625 51.4936C112.601 51.1539 112.716 50.8189 112.945 50.5657C113.173 50.3126 113.496 50.163 113.837 50.1514C114.285 50.1543 114.702 50.3758 114.954 50.7441L116.017 49.9257C115.525 49.2262 114.709 48.8263 113.853 48.8665C113.141 48.8478 112.453 49.1184 111.947 49.6162C111.44 50.114 111.158 50.796 111.167 51.5051C111.192 52.6623 111.96 53.6726 113.071 54.0093C114.182 54.346 115.384 53.9327 116.051 52.985L114.989 52.2202C114.736 52.6089 114.306 52.8458 113.841 52.8511H113.837ZM108.804 45.2987L106.605 42.8896H105.473V46.0979H106.297V43.6927L108.492 46.0979H109.621V42.8896H108.792L108.804 45.2987ZM131.027 52.8511C130.682 52.8408 130.356 52.6895 130.126 52.4328C129.896 52.1761 129.782 51.8365 129.811 51.4936C129.786 51.1532 129.902 50.8177 130.132 50.5644C130.361 50.3111 130.684 50.162 131.027 50.1514C131.473 50.1549 131.889 50.3764 132.14 50.7441L133.202 49.9257C132.712 49.2262 131.897 48.8262 131.042 48.8665C130.33 48.8467 129.642 49.117 129.134 49.615C128.628 50.1131 128.347 50.7957 128.356 51.5051C128.381 52.6623 129.149 53.6726 130.26 54.0093C131.372 54.346 132.574 53.9327 133.241 52.985L132.178 52.2202C131.925 52.6083 131.495 52.8451 131.03 52.8511H131.027ZM117.839 42.8896L116.181 46.0979H117.091L117.436 45.4135H119.355L119.7 46.0979H120.617L118.952 42.8896H117.839ZM117.743 44.8017L118.403 43.4977L119.056 44.8017H117.743ZM108.151 54.0365H109.571V48.9545H108.159L108.151 54.0365ZM130.064 46.0979H130.977L129.315 42.8896H128.195L126.538 46.0979H127.447L127.792 45.4135H129.71L130.064 46.0979ZM128.099 44.8017L128.759 43.4977L129.412 44.8017H128.099ZM125.302 50.8703C124.596 50.7097 124.424 50.6103 124.424 50.377C124.424 50.1973 124.588 50.052 124.934 50.052C125.449 50.0731 125.946 50.2477 126.361 50.5529L127.067 49.5587C126.47 49.0931 125.726 48.8534 124.968 48.8818C123.744 48.8818 122.996 49.5663 122.996 50.5108C122.996 51.5586 123.833 51.8607 124.915 52.1093C125.605 52.2699 125.774 52.3846 125.774 52.5949C125.774 52.8129 125.571 52.9429 125.19 52.9429C124.586 52.9357 124.002 52.7209 123.537 52.3349L122.739 53.2794C123.405 53.8426 124.256 54.142 125.129 54.1207C126.365 54.1207 127.19 53.505 127.19 52.4687C127.194 51.5013 126.464 51.1265 125.291 50.8703H125.302ZM125.459 45.8303V45.1114C124.894 45.3554 124.28 45.4716 123.663 45.4517C123.053 45.4517 122.685 45.337 122.513 45.1572C122.227 44.7749 122.227 44.2509 122.513 43.8686C122.678 43.6889 123.049 43.5741 123.663 43.5741C124.281 43.5608 124.894 43.6918 125.452 43.9565V43.1917C124.887 42.9597 124.278 42.8527 123.667 42.8782C122.666 42.8782 122.133 43.1344 121.853 43.4212C121.361 44.0767 121.361 44.976 121.853 45.6315C122.121 45.922 122.666 46.1783 123.667 46.1783C124.279 46.1943 124.887 46.0755 125.448 45.8303H125.459Z" fill="#2D3338"/>
<defs>
<linearGradient id="paint0_linear_0_6838" x1="13.9508" y1="11.7324" x2="50.7464" y2="50.5241" gradientUnits="userSpaceOnUse">
<stop stop-color="#09BCC6"/>
<stop offset="1" stop-color="#243E89"/>
</linearGradient>
</defs>
</svg>
