<svg width="288" height="42" viewBox="0 0 288 42" fill="none" xmlns="http://www.w3.org/2000/svg">
<path d="M34.3004 3.42859C26.6814 3.42859 21.9195 7.23811 20.0147 14.8572C22.8719 11.0476 26.2052 9.61906 30.0147 10.5714C32.1883 11.1148 33.7418 12.6917 35.4614 14.4372C38.2626 17.2805 41.5048 20.5714 48.5861 20.5714C56.2052 20.5714 60.9671 16.7619 62.8719 9.14287C60.0147 12.9524 56.6814 14.381 52.8719 13.4286C50.6983 12.8852 49.1448 11.3084 47.4252 9.56287C44.6239 6.71949 41.3818 3.42859 34.3004 3.42859ZM20.0147 20.5714C12.3957 20.5714 7.63377 24.381 5.729 32C8.58615 28.1905 11.9195 26.7619 15.729 27.7143C17.9025 28.2577 19.4561 29.8345 21.1757 31.58C23.9769 34.4234 27.2191 37.7143 34.3004 37.7143C41.9195 37.7143 46.6814 33.9048 48.5861 26.2857C45.729 30.0953 42.3957 31.5238 38.5861 30.5714C36.4126 30.0281 34.8591 28.4512 33.1395 26.7057C30.3382 23.8623 27.0961 20.5714 20.0147 20.5714Z" fill="url(#paint0_linear_0_10039)"/>
<path d="M91.439 17.8751H86.4527V27.5259C86.4527 30.0995 88.1416 30.0593 91.439 29.8984V33.799C84.7638 34.6032 82.1099 32.7534 82.1099 27.5259V17.8751H78.4104V13.6931H82.1099V8.29208L86.4527 7.0053V13.6931H91.439V17.8751ZM110.446 13.6931H114.789V33.799H110.446V30.9037C108.918 33.0349 106.546 34.3217 103.409 34.3217C97.9406 34.3217 93.3966 29.6974 93.3966 23.746C93.3966 17.7545 97.9406 13.1704 103.409 13.1704C106.546 13.1704 108.918 14.4572 110.446 16.5482V13.6931ZM104.093 30.1799C107.712 30.1799 110.446 27.4857 110.446 23.746C110.446 20.0064 107.712 17.3122 104.093 17.3122C100.474 17.3122 97.7395 20.0064 97.7395 23.746C97.7395 27.4857 100.474 30.1799 104.093 30.1799ZM122.027 10.6773C120.499 10.6773 119.253 9.39049 119.253 7.90266C119.253 6.37462 120.499 5.12806 122.027 5.12806C123.555 5.12806 124.802 6.37462 124.802 7.90266C124.802 9.39049 123.555 10.6773 122.027 10.6773ZM119.856 33.799V13.6931H124.199V33.799H119.856ZM129.225 33.799V4.44446H133.568V33.799H129.225ZM161.756 13.6931H166.341L160.027 33.799H155.765L151.583 20.2476L147.361 33.799H143.098L136.785 13.6931H141.369L145.27 27.5661L149.492 13.6931H153.634L157.816 27.5661L161.756 13.6931ZM171.729 10.6773C170.201 10.6773 168.954 9.39049 168.954 7.90266C168.954 6.37462 170.201 5.12806 171.729 5.12806C173.257 5.12806 174.504 6.37462 174.504 7.90266C174.504 9.39049 173.257 10.6773 171.729 10.6773ZM169.558 33.799V13.6931H173.9V33.799H169.558ZM189.502 13.1704C194.006 13.1704 197.223 16.2265 197.223 21.454V33.799H192.88V21.8963C192.88 18.8402 191.111 17.2318 188.377 17.2318C185.522 17.2318 183.27 18.9206 183.27 23.0222V33.799H178.927V13.6931H183.27V16.2667C184.597 14.1757 186.768 13.1704 189.502 13.1704ZM217.811 5.65081H222.154V33.799H217.811V30.9037C216.283 33.0349 213.911 34.3217 210.774 34.3217C205.306 34.3217 200.762 29.6974 200.762 23.746C200.762 17.7545 205.306 13.1704 210.774 13.1704C213.911 13.1704 216.283 14.4572 217.811 16.5482V5.65081ZM211.458 30.1799C215.077 30.1799 217.811 27.4857 217.811 23.746C217.811 20.0064 215.077 17.3122 211.458 17.3122C207.839 17.3122 205.105 20.0064 205.105 23.746C205.105 27.4857 207.839 30.1799 211.458 30.1799ZM236.711 34.3217C230.639 34.3217 226.095 29.6974 226.095 23.746C226.095 17.7545 230.639 13.1704 236.711 13.1704C240.652 13.1704 244.07 15.2212 245.678 18.3577L241.938 20.5291C241.054 18.6392 239.083 17.4328 236.671 17.4328C233.132 17.4328 230.438 20.127 230.438 23.746C230.438 27.3651 233.132 30.0593 236.671 30.0593C239.083 30.0593 241.054 28.8127 242.019 26.963L245.759 29.0942C244.07 32.2709 240.652 34.3217 236.711 34.3217ZM252.916 19.2423C252.916 22.9016 263.733 20.69 263.733 28.1291C263.733 32.1503 260.235 34.3217 255.892 34.3217C251.871 34.3217 248.975 32.5122 247.689 29.6169L251.428 27.4455C252.072 29.255 253.68 30.3407 255.892 30.3407C257.822 30.3407 259.31 29.6974 259.31 28.0889C259.31 24.5101 248.493 26.5206 248.493 19.3228C248.493 15.5429 251.75 13.1704 255.852 13.1704C259.149 13.1704 261.883 14.6984 263.291 17.3524L259.632 19.4032C258.908 17.8349 257.5 17.1111 255.852 17.1111C254.283 17.1111 252.916 17.7947 252.916 19.2423ZM271.454 19.2423C271.454 22.9016 282.271 20.69 282.271 28.1291C282.271 32.1503 278.772 34.3217 274.429 34.3217C270.408 34.3217 267.513 32.5122 266.226 29.6169L269.966 27.4455C270.609 29.255 272.218 30.3407 274.429 30.3407C276.36 30.3407 277.847 29.6974 277.847 28.0889C277.847 24.5101 267.031 26.5206 267.031 19.3228C267.031 15.5429 270.288 13.1704 274.389 13.1704C277.687 13.1704 280.421 14.6984 281.828 17.3524L278.169 19.4032C277.445 17.8349 276.038 17.1111 274.389 17.1111C272.821 17.1111 271.454 17.7947 271.454 19.2423Z" fill="#2D3748"/>
<defs>
<linearGradient id="paint0_linear_0_10039" x1="4.1417" y1="14.4" x2="53.4939" y2="42.8554" gradientUnits="userSpaceOnUse">
<stop stop-color="#2298BD"/>
<stop offset="1" stop-color="#0ED7B5"/>
</linearGradient>
</defs>
</svg>
