<svg width="130" height="91" viewBox="0 0 130 91" fill="none" xmlns="http://www.w3.org/2000/svg">
<path d="M7.37544 66.2179C8.38955 66.3054 9.34583 66.6967 10.251 67.1392C10.8818 67.4647 11.3095 68.0821 11.522 68.7465C12.0559 70.2259 11.756 71.9448 10.7863 73.1768C10.1824 73.9071 9.4467 74.5931 8.49715 74.819C7.08628 75.236 5.53149 74.7249 4.50797 73.7054C3.28808 72.3537 2.84289 70.2582 3.67812 68.5958C4.33178 67.185 5.82469 66.226 7.37544 66.2179ZM19.7384 52.2813C21.6133 53.3735 23.3887 54.7104 24.7067 56.4534C25.5904 57.6276 26.3732 58.8852 26.9999 60.2153C27.4438 61.1877 27.7935 62.2287 27.8163 63.3061C27.8446 64.3417 27.2057 65.2536 26.4767 65.9288C25.6455 66.6066 24.8305 67.3208 23.885 67.8373C22.6691 68.4761 21.2394 68.7922 19.8756 68.5367C18.2025 68.2569 16.6356 67.454 15.3673 66.3376C15.8232 66.0458 16.333 65.6396 16.333 65.0451C16.4258 63.9328 15.3336 62.9658 14.2523 63.0478C13.8407 63.2294 13.5798 63.6275 13.2839 63.949C12.6033 62.8824 12.068 61.6302 12.1918 60.3418C12.5361 58.054 13.2879 55.7863 14.6558 53.8993C14.7997 53.7272 14.8145 53.4999 14.8347 53.2874C15.5273 52.8193 15.9954 52.0446 16.8077 51.7541C17.8003 51.3856 18.8844 51.7339 19.7384 52.2813ZM68.9092 32.2211C69.5978 32.9003 70.0807 33.7934 70.2649 34.7429C70.4922 36.0691 70.421 37.4436 69.9569 38.7133C69.5723 39.9735 68.9294 41.34 67.6759 41.9224C67.6611 41.1921 67.4957 40.4779 67.3719 39.761C66.842 36.9366 66.0189 34.1592 64.8151 31.5473C64.5986 31.0483 64.3551 30.5601 64.0324 30.1203C65.9032 29.9373 67.5266 31.1115 68.9092 32.2211ZM75.6932 27.09C76.6899 27.2434 77.5601 27.9562 77.9582 28.8762C78.4854 30.1122 78.1532 31.6898 77.0597 32.5116C76.0672 33.2809 74.5514 33.254 73.6099 32.4121C74.086 31.9682 74.624 31.3563 74.4653 30.6582C73.9905 30.0463 73.0463 30.1337 72.4357 30.4861C72.2905 29.5002 72.6334 28.4337 73.4149 27.7935C74.0174 27.2272 74.8795 26.9851 75.6932 27.09ZM36.7873 18.5414C37.2109 18.6947 37.6292 18.9274 37.8794 19.3188C37.2526 19.4304 36.6689 19.686 36.0785 19.9092C33.7476 20.8238 31.4572 21.846 29.2581 23.043C28.2897 23.5743 27.32 24.1217 26.4848 24.8507C25.8863 25.3819 25.1802 25.7962 24.6731 26.4243C24.4996 24.7942 24.8278 23.0686 25.8204 21.7371C26.2521 21.0323 26.9542 20.5777 27.5191 19.994C28.3005 19.2744 29.2689 18.7822 30.2695 18.4419C30.9407 18.3262 31.5701 18.0182 32.2574 17.99C33.7813 17.9375 35.3374 18.0317 36.7873 18.5414ZM20.2966 3.24774C21.1453 3.45352 22.041 3.78438 22.5534 4.53622C23.4465 5.79646 23.3012 7.58527 22.3799 8.79036L22.31 8.72043C22.1029 8.5133 21.9011 8.29272 21.651 8.13671C21.3752 7.95514 20.9354 8.10981 20.8601 8.43798C20.7619 8.91948 20.9933 9.37946 21.2246 9.78699C20.4109 9.95376 19.5259 10.0654 18.7404 9.72512C17.5636 9.24093 16.6544 8.08694 16.5535 6.80788C16.6181 5.75207 17.1951 4.77294 17.9308 4.03589C18.5871 3.51673 19.4412 3.10652 20.2966 3.24774Z" fill="#9B99A6"/>
<path d="M16.3329 65.0451C16.3329 65.6396 15.8232 66.0457 15.3672 66.3376C14.7324 66.7276 14.0774 67.0827 13.456 67.4943C12.8091 67.9085 12.2133 68.4021 11.522 68.7464C11.3095 68.082 10.8818 67.4647 10.251 67.1392C11.0364 65.879 12.3236 65.0585 13.2839 63.9489C13.5798 63.6275 13.8407 63.2294 14.2523 63.0478C15.3336 62.9658 16.4257 63.9328 16.3329 65.0451ZM74.4653 30.6582C74.624 31.3563 74.086 31.9682 73.6099 32.4121C72.5675 33.2823 71.4714 34.1121 70.2649 34.7429C70.0807 33.7933 69.5978 32.9003 68.9092 32.2211C70.0107 31.4988 71.3059 31.1585 72.4357 30.4861C73.0463 30.1337 73.9905 30.0463 74.4653 30.6582ZM21.6509 8.13667C21.9011 8.29269 22.1029 8.51326 22.31 8.72039C22.6866 9.18171 23.1237 9.58521 23.5299 10.0196C25.1828 11.8367 26.6704 13.795 28.2386 15.6833C28.9582 16.5602 29.671 17.4425 30.3744 18.3329L30.2695 18.4418C29.2689 18.7821 28.3005 19.2744 27.5191 19.9939C27.1828 19.6483 26.9542 19.2246 26.6986 18.8211C25.3093 16.6033 23.9603 14.3585 22.7054 12.0613C22.2629 11.2705 21.6792 10.5697 21.2246 9.78695C20.9933 9.37943 20.7619 8.91945 20.8601 8.43795C20.9354 8.10977 21.3752 7.9551 21.6509 8.13667Z" fill="#F79727"/>
<path d="M41.0091 18.731C42.6823 18.4633 44.381 18.5346 46.0689 18.5615C51.0251 18.8991 55.9692 20.8049 59.5549 24.3005C60.0593 24.6475 60.3673 25.1882 60.8125 25.5971C62.0794 26.9568 63.0465 28.556 64.0323 30.1202C64.3551 30.56 64.5986 31.0482 64.8151 31.5472C66.0189 34.1592 66.842 36.9365 67.3719 39.761C67.4956 40.4778 67.6611 41.192 67.6759 41.9223C67.6153 43.1812 67.8951 44.4401 67.7216 45.6963C67.6369 46.3769 67.7135 47.0682 67.5884 47.7434C67.3948 49.0117 66.8379 50.1805 66.2757 51.3196C66.0068 51.8872 65.415 52.171 64.92 52.5073C64.4156 52.8354 63.7472 53.1354 63.1608 52.8341C62.2341 52.3069 61.7876 51.2524 61.5764 50.2544C61.3437 49.3291 61.4244 48.3715 61.411 47.4286C61.2644 44.7952 61.1178 42.1416 60.5341 39.5606C60.1427 37.8686 59.4729 36.1632 58.1669 34.9661C57.3398 34.2681 56.3929 33.7046 55.3761 33.3333C53.8549 32.8814 52.2692 32.6192 50.6795 32.6528C48.7602 32.6098 46.8692 33.0119 45.0225 33.4947C43.1543 33.9803 41.3897 34.7765 39.6467 35.5929C38.2627 36.1793 36.954 36.9177 35.6239 37.613C34.8787 38.0152 34.1417 38.4375 33.4706 38.9553C32.256 39.882 30.9501 40.7226 29.9548 41.8995C28.9568 43.0763 28.0705 44.4213 27.7679 45.9586C27.3872 48.2208 27.8203 50.5476 28.626 52.6727C29.5473 55.0183 30.9232 57.177 32.6273 59.0317C33.8055 60.5085 35.3737 61.5898 36.8948 62.682C37.7274 63.228 38.2734 64.1937 38.2802 65.193C38.2022 66.0269 37.566 66.6806 36.9096 67.1365C36.2022 67.5736 35.375 67.8574 34.5371 67.8319C32.5748 67.8144 30.5964 67.5803 28.7336 66.9455C27.9481 66.6819 27.2259 66.2744 26.4767 65.9287C27.2057 65.2535 27.8445 64.3417 27.8163 63.306C27.7934 62.2287 27.4437 61.1877 26.9999 60.2153C26.3731 58.8851 25.5904 57.6276 24.7067 56.4534C23.3887 54.7103 21.6133 53.3734 19.7384 52.2813C18.8843 51.7339 17.8003 51.3856 16.8077 51.7541C15.9953 52.0446 15.5273 52.8193 14.8346 53.2873C14.6315 52.6969 14.727 52.0607 14.645 51.4515C14.5428 50.74 14.5993 50.0204 14.5307 49.3076C14.4217 48.3244 14.4742 47.3331 14.4567 46.3459C14.4285 44.4159 14.4648 42.4751 14.762 40.5639C15.0498 38.7899 15.7788 37.1248 16.6046 35.5418C17.5004 33.866 18.6436 32.3273 19.9348 30.9339C20.6409 30.1216 21.3941 29.3455 22.2333 28.6703C22.9878 27.8566 23.967 27.2823 24.6731 26.4242C25.1802 25.7961 25.8863 25.3819 26.4848 24.8506C27.32 24.1216 28.2897 23.5742 29.2581 23.043C31.4571 21.8459 33.7476 20.8238 36.0785 19.9092C36.6689 19.6859 37.2526 19.4304 37.8794 19.3187C38.9432 19.2394 39.9466 18.8251 41.0091 18.731Z" fill="#787880"/>
<path d="M99.4105 57.6155C99.9606 58.4103 99.9632 59.4191 99.9498 60.3471C101.155 58.8784 102.64 57.5388 104.485 56.9605C106.874 56.2221 109.573 56.5328 111.728 57.8051C113.206 58.6511 114.383 59.9678 115.171 61.4675C116.318 63.5804 116.676 66.0323 116.622 68.4102C116.56 70.9899 115.892 73.6179 114.384 75.7416C112.944 77.7739 110.613 79.1458 108.13 79.3865C106.238 79.5641 104.211 79.3085 102.618 78.2002C101.592 77.5412 100.774 76.6293 99.9565 75.7389C99.9417 78.5419 99.9605 81.3448 99.9471 84.1477C99.9256 85.1672 99.8032 86.2956 99.0796 87.0797C98.5093 87.6984 97.6082 87.8437 96.8079 87.7576C96.1731 87.7052 95.4858 87.4523 95.163 86.8672C94.7326 86.0804 94.6466 85.1605 94.6237 84.2795C94.621 76.0738 94.6237 67.8695 94.621 59.6639C94.6251 58.7641 94.8026 57.7648 95.5033 57.134C96.6143 56.1589 98.586 56.3593 99.4105 57.6155ZM49.1691 48.6728C49.9868 49.3345 50.2141 50.4468 50.2235 51.4488C50.2356 54.2692 50.2302 57.0896 50.2262 59.91C51.1973 58.8367 52.2894 57.8159 53.6438 57.2537C55.3371 56.5489 57.247 56.4023 59.0412 56.748C60.9174 57.1084 62.639 58.2745 63.5751 59.953C64.5058 61.4231 64.6174 63.2159 64.6524 64.9092C64.6591 68.4963 64.651 72.0833 64.6564 75.6704C64.6699 76.5419 64.608 77.4646 64.1399 78.2258C63.2307 79.7604 60.6672 79.8868 59.6289 78.437C59.1393 77.7093 59.0452 76.8028 59.0398 75.9488C59.0371 72.8069 59.0398 69.6651 59.0385 66.5232C59.0237 65.0397 58.9107 63.4688 58.1333 62.1655C57.446 61.0788 56.0378 60.8111 54.8448 60.8945C52.7279 61.0034 50.8826 62.7358 50.4898 64.7936C50.2962 65.8063 50.2545 66.842 50.2316 67.8709C50.2235 70.6052 50.237 73.3395 50.2249 76.0752C50.2141 77.0194 50.0204 78.051 49.3103 78.7315C48.627 79.408 47.5833 79.5412 46.6728 79.3771C46.085 79.2735 45.5296 78.9548 45.1906 78.4585C44.7118 77.7699 44.5975 76.9037 44.5881 76.0846C44.5894 68.1896 44.5894 60.296 44.5894 52.401C44.5856 51.3963 44.5303 50.3271 45.0131 49.4085C45.7542 47.9236 47.933 47.7003 49.1691 48.6728ZM125.818 57.2967C126.509 57.9248 126.754 58.8932 126.742 59.7997C126.742 65.2226 126.744 70.6469 126.74 76.0698C126.735 76.983 126.541 77.9716 125.871 78.6401C125.132 79.4215 123.917 79.6259 122.921 79.2776C122.145 79.0045 121.562 78.3186 121.321 77.5439C121.032 76.6791 121.122 75.7578 121.11 74.8634C121.116 69.7538 121.095 64.6456 121.12 59.5374C121.122 58.2987 121.83 56.9632 123.109 56.6646C124.04 56.4292 125.113 56.6121 125.818 57.2967ZM82.4329 56.5516C84.3979 56.7574 86.5203 57.2429 87.9042 58.7627C89.2358 60.2543 89.5343 62.3498 89.6379 64.2744C89.685 66.7734 89.6271 69.2737 89.6204 71.7726C89.6258 73.1068 89.9728 74.4047 90.3615 75.6704C90.5444 76.4034 90.8591 77.2198 90.4772 77.9434C89.9715 78.8969 88.8753 79.5398 87.7886 79.4255C87.2479 79.365 86.7704 79.061 86.3804 78.6979C85.6164 77.9783 85.0475 77.0866 84.488 76.207C82.6602 77.6421 80.597 78.9212 78.2635 79.2816C76.2084 79.6031 73.9771 79.4955 72.1492 78.4128C70.5985 77.5372 69.4553 75.9636 69.1473 74.2057C68.9079 72.8042 69.1042 71.2952 69.8453 70.0672C70.5097 68.9603 71.5454 68.0995 72.7209 67.579C73.9555 67.0087 75.3207 66.8474 76.6347 66.5488C79.1458 66.0431 81.6488 65.4889 84.1101 64.7788C84.0522 63.5912 83.8989 62.3135 83.1592 61.3383C82.449 60.526 81.287 60.3982 80.2742 60.3498C78.866 60.3296 77.3086 60.4022 76.164 61.3289C75.1082 62.1157 74.5904 63.3652 73.8022 64.3807C73.4592 64.8097 72.8486 64.8138 72.347 64.8205C71.3167 64.8326 70.2717 64.0928 70.0968 63.0492C69.9637 62.1036 70.2367 61.1393 70.7034 60.3202C71.5346 58.8098 73.0719 57.8549 74.6415 57.255C77.1243 56.3445 79.8304 56.3324 82.4329 56.5516ZM84.1262 68.1452C81.9057 68.8971 79.5789 69.2387 77.3112 69.8117C76.441 70.0497 75.5776 70.5218 75.0584 71.2777C74.3994 72.3873 74.6872 73.9286 75.6596 74.7665C76.5607 75.6206 77.8909 75.7699 79.0732 75.6125C80.8068 75.3933 82.5876 74.5096 83.443 72.9239C84.1585 71.4431 84.102 69.7498 84.1262 68.1452ZM104.684 60.8488C103.16 61.146 101.862 62.2301 101.136 63.5804C100.278 65.2226 100.146 67.1352 100.251 68.9536C100.363 70.7666 100.989 72.6442 102.398 73.8641C103.639 75.01 105.502 75.4215 107.113 74.9131C108.266 74.5473 109.233 73.7054 109.834 72.6644C110.909 70.8661 111.086 68.6873 110.91 66.6429C110.742 64.846 110.085 62.9806 108.658 61.7997C107.574 60.8824 106.065 60.5529 104.684 60.8488ZM125.71 48.9243C126.876 49.7178 127.016 51.4636 126.357 52.6243C125.425 54.1387 123.066 54.2947 121.837 53.0654C121.164 52.4185 121.001 51.4017 121.167 50.5167C121.36 49.4932 122.247 48.6956 123.235 48.4481C124.077 48.2464 125.009 48.4064 125.71 48.9243Z" fill="#464646"/>
</svg>
