<svg width="263" height="46" viewBox="0 0 263 46" fill="none" xmlns="http://www.w3.org/2000/svg">
<path fill-rule="evenodd" clip-rule="evenodd" d="M204.718 15.0361C196.55 15.0361 190.133 21.4536 190.133 29.6213C190.133 33.8996 191.883 37.789 194.605 40.5116C195.578 41.4839 197.328 41.4839 198.495 40.706C200.05 39.3447 202.384 38.5669 204.718 38.5669C207.246 38.5669 209.191 39.3447 210.941 40.706C212.108 41.6784 213.663 41.4839 214.83 40.3171C217.553 37.5945 219.303 33.8996 219.303 29.6213C219.108 21.6481 212.691 15.0361 204.718 15.0361ZM204.523 37.2056C200.05 37.2056 197.133 33.8996 197.133 29.8158C197.133 25.7319 200.05 22.426 204.523 22.426C208.996 22.426 211.913 25.7319 211.913 29.8158C211.913 33.8996 208.996 37.2056 204.523 37.2056Z" fill="#81B5A1"/>
<path d="M103.787 3.75708C106.315 3.75708 108.26 5.70177 108.26 8.0354C108.26 10.5635 106.315 12.3137 103.787 12.3137C101.259 12.3137 99.5088 10.369 99.5088 8.0354C99.5088 5.5073 101.259 3.75708 103.787 3.75708Z" fill="#293E40"/>
<path d="M14.7211 35.4514C12.3875 35.4514 9.66495 34.479 7.91473 32.9233L4.80322 37.9795C7.72026 40.1186 11.4152 41.2855 14.9156 41.2855C20.1663 41.2855 24.8335 38.3684 24.8335 33.5067C24.8335 28.0868 20.1341 26.5458 16.5563 25.3726C14.3573 24.6515 12.582 24.0694 12.582 22.8109C12.582 21.4496 13.9433 20.6718 15.888 20.6718C17.707 20.6718 19.1858 21.5226 20.4834 22.2691C20.573 22.3207 20.6618 22.3717 20.7497 22.422L23.8612 17.5603C22.111 16.199 18.6105 15.0322 15.3045 15.0322C10.4428 15.0322 5.77557 17.9492 5.77557 22.8109C5.77557 27.5054 10.0227 28.9639 13.5157 30.1635C15.9553 31.0013 18.0271 31.7128 18.0271 33.3122C18.0271 34.479 16.4714 35.4514 14.7211 35.4514Z" fill="#293E40"/>
<path d="M59.4495 17.7586C61.3942 16.2029 63.7278 15.2305 66.4504 15.2305C67.0338 15.2305 67.8116 15.425 68.5895 15.6195V22.037C67.8116 21.8425 66.8393 21.648 65.867 21.648C62.9499 21.648 60.6163 23.3982 59.6439 24.7595V40.706H52.8375V15.6195H59.4495V17.7586Z" fill="#293E40"/>
<path fill-rule="evenodd" clip-rule="evenodd" d="M49.9205 27.8671C49.9205 20.8662 45.0587 15.0322 38.0579 15.0322C30.668 15.0322 25.8063 21.2552 25.8063 28.0616C25.8063 36.0348 31.4459 41.091 38.8357 41.091C42.7251 41.091 46.6145 39.5352 49.1426 36.6182L45.2532 32.7288C44.0864 34.0901 41.7528 35.6459 39.0302 35.6459C35.5298 35.6459 32.6127 33.1178 32.2238 29.6173H49.5315C49.9205 29.2284 49.9205 28.645 49.9205 27.8671ZM32.8072 24.9501C33.1961 22.6164 35.5298 20.4773 38.2523 20.4773C40.9749 20.4773 42.9196 22.6164 43.3085 24.9501H32.8072Z" fill="#293E40"/>
<path d="M86.6739 40.7062L98.1476 15.6197H91.1467L84.3403 30.9827L77.3394 15.6197H70.533L82.0066 40.7062H86.6739Z" fill="#293E40"/>
<path d="M100.481 15.6195H107.287V40.7059H100.481V15.6195Z" fill="#293E40"/>
<path d="M134.903 35.4514C131.986 39.3408 128.291 41.091 123.624 41.091C115.845 41.091 110.206 35.2569 110.206 28.0616C110.206 20.6718 116.04 15.0322 123.624 15.0322C128.097 15.0322 131.792 17.1713 134.125 20.0883L129.653 24.1722C128.291 22.422 126.347 21.2552 124.013 21.2552C120.124 21.2552 117.207 24.3667 117.207 28.0616C117.207 31.951 119.929 34.868 124.013 34.868C126.736 34.868 128.875 33.3122 130.042 31.562L134.903 35.4514Z" fill="#293E40"/>
<path fill-rule="evenodd" clip-rule="evenodd" d="M148.905 41.091C152.795 41.091 156.684 39.5352 159.212 36.6182L155.323 32.9233C154.156 34.2846 151.822 35.8403 149.1 35.8403C145.599 35.8403 142.682 33.3122 142.293 29.8118H159.795C159.99 29.2284 159.99 28.645 159.99 27.8671C159.99 20.8662 154.934 15.0322 148.127 15.0322C140.543 15.0322 135.876 21.0607 135.876 28.0616C135.876 36.0348 141.515 41.091 148.905 41.091ZM147.933 20.4773C150.85 20.4773 152.795 22.8109 152.989 24.9501H142.488C142.877 22.6164 145.21 20.4773 147.933 20.4773Z" fill="#293E40"/>
<path d="M162.518 40.702V15.6156H168.936V17.7547C170.88 16.199 173.214 15.2266 175.936 15.2266C179.437 15.2266 182.548 16.7824 184.687 19.3105C186.243 21.2552 187.41 23.7832 187.41 28.0616V40.8965H180.604V27.4782C180.604 24.9501 180.02 23.5888 179.048 22.8109C178.076 21.8386 176.909 21.2552 175.159 21.2552C172.436 21.2552 170.102 23.0054 168.936 24.3667V40.702H162.518Z" fill="#293E40"/>
<path d="M224.165 15.6197H217.553L227.471 40.7062H232.527L237.778 26.51L243.223 40.7062H248.279L258.197 15.6197H251.39L245.945 30.0104L240.695 15.6197H235.055L229.61 30.0104L224.165 15.6197Z" fill="#293E40"/>
</svg>
