<svg width="91" height="130" viewBox="0 0 91 130" fill="none" xmlns="http://www.w3.org/2000/svg">
<path d="M46.1519 23.5586L65.9452 97.4425H26.3585L46.1519 23.5586Z" fill="#C4BAFF"/>
<path d="M71.1923 3.25L26.2836 97.471H87.6578L71.1923 3.25Z" fill="#6750E5" fill-opacity="0.498"/>
<path d="M21.9002 3.25L66.0181 97.471H2.95752L21.9002 3.25Z" fill="#6750E5" fill-opacity="0.498"/>
<path d="M11.7903 91.0662L24.9997 23.5942L46.5421 72.3691L68.8565 23.5942L80.7249 91.0662H71.0107L64.9546 53.1846L46.3797 93.9522L28.3331 53.1439L21.5859 91.0662H11.7903Z" fill="url(#paint0_linear_0_9107)"/>
<path d="M74.5366 85.3488L66.9899 39.84M17.8221 84.4341L26.0549 40.0687L17.8221 84.4341ZM45.9507 81.4612L26.2836 38.9253L45.9507 81.4612ZM46.8654 81.0038L66.9899 38.9253L46.8654 81.0038Z" stroke="#A28BCA" stroke-opacity="0.356" stroke-width="2" stroke-linecap="square"/>
<path d="M74.7653 84.205C75.5231 84.205 76.1374 84.8193 76.1374 85.5771C76.1374 86.3349 75.5231 86.9493 74.7653 86.9493C74.0075 86.9493 73.3932 86.3349 73.3932 85.5771C73.3932 84.8193 74.0075 84.205 74.7653 84.205ZM17.5934 84.205C18.3512 84.205 18.9656 84.8193 18.9656 85.5771C18.9656 86.3349 18.3512 86.9493 17.5934 86.9493C16.8356 86.9493 16.2213 86.3349 16.2213 85.5771C16.2213 84.8193 16.8356 84.205 17.5934 84.205ZM46.4081 81.4608C47.1659 81.4608 47.7802 82.0751 47.7802 82.8329C47.7802 83.5907 47.1659 84.205 46.4081 84.205C45.6502 84.205 45.0359 83.5907 45.0359 82.8329C45.0359 82.0751 45.6502 81.4608 46.4081 81.4608ZM26.2836 38.4675C27.0414 38.4675 27.6557 39.0819 27.6557 39.8397C27.6557 40.5975 27.0414 41.2118 26.2836 41.2118C25.5258 41.2118 24.9114 40.5975 24.9114 39.8397C24.9114 39.0819 25.5258 38.4675 26.2836 38.4675ZM66.9899 38.4675C67.7477 38.4675 68.362 39.0819 68.362 39.8397C68.362 40.5975 67.7477 41.2118 66.9899 41.2118C66.2321 41.2118 65.6178 40.5975 65.6178 39.8397C65.6178 39.0819 66.2321 38.4675 66.9899 38.4675Z" fill="#DCC6FF"/>
<path d="M20.7076 120.254H10.079L7.31332 126.284H3.27734L15.5621 99.897L27.4128 126.284H23.3125L20.7076 120.254ZM19.1801 116.732L15.4978 108.291L11.6387 116.732H19.1801ZM27.9091 126.284V101.457H33.1189C35.6166 101.457 37.589 101.703 39.0362 102.196C40.5906 102.679 42.0002 103.499 43.2651 104.657C45.8271 106.993 47.1081 110.065 47.1081 113.87C47.1081 117.686 45.7735 120.774 43.1043 123.132C41.7644 124.311 40.3601 125.131 38.8915 125.592C37.5193 126.053 35.5737 126.284 33.0546 126.284H27.9091ZM31.6557 122.762H33.344C35.027 122.762 36.4259 122.585 37.5408 122.232C38.6556 121.856 39.6633 121.261 40.5638 120.447C42.4076 118.764 43.3294 116.572 43.3294 113.87C43.3294 111.147 42.4183 108.939 40.5959 107.245C38.9558 105.734 36.5385 104.978 33.344 104.978H31.6557V122.762ZM61.9796 113.356H72.2384V114.176C72.2384 116.041 72.0186 117.692 71.5791 119.128C71.1503 120.457 70.4268 121.701 69.4084 122.859C67.1036 125.453 64.1718 126.75 60.6128 126.75C57.1396 126.75 54.1649 125.496 51.6887 122.987C49.2124 120.468 47.9743 117.445 47.9743 113.918C47.9743 110.317 49.2338 107.261 51.753 104.753C54.2721 102.234 57.338 100.974 60.9505 100.974C62.8908 100.974 64.7024 101.371 66.3854 102.164C67.9934 102.957 69.5745 104.244 71.1289 106.023L68.4597 108.58C66.4229 105.868 63.9413 104.512 61.0148 104.512C58.3885 104.512 56.1856 105.418 54.4061 107.229C52.6266 109.009 51.7369 111.238 51.7369 113.918C51.7369 116.684 52.7285 118.962 54.7116 120.752C56.5662 122.414 58.5761 123.245 60.7415 123.245C62.5853 123.245 64.2415 122.623 65.7101 121.379C67.1787 120.125 67.9987 118.624 68.1702 116.877H61.9796V113.356ZM88.0425 104.978H78.0892V110.944H87.753V114.465H78.0892V122.762H88.0425V126.284H74.3427V101.457H88.0425V104.978Z" fill="url(#paint1_linear_0_9107)"/>
<defs>
<linearGradient id="paint0_linear_0_9107" x1="48.6972" y1="71.5087" x2="48.6972" y2="37.644" gradientUnits="userSpaceOnUse">
<stop stop-color="#803FA5"/>
<stop offset="1" stop-color="#4B114A"/>
</linearGradient>
<linearGradient id="paint1_linear_0_9107" x1="30.5353" y1="112.361" x2="61.1556" y2="120.723" gradientUnits="userSpaceOnUse">
<stop stop-color="#91C5AA"/>
<stop offset="1" stop-color="#3965AF"/>
</linearGradient>
</defs>
</svg>
