<svg width="122" height="98" viewBox="0 0 122 98" fill="none" xmlns="http://www.w3.org/2000/svg">
<path d="M29.6569 44.2738C29.6569 42.4311 31.0794 41.0732 32.8575 41.0732C34.6356 41.0732 36.0581 42.4634 36.0581 44.2738C36.0581 46.1166 34.6356 47.4744 32.8575 47.4744C31.0794 47.4744 29.6569 46.0843 29.6569 44.2738ZM35.3469 38.5192C35.3469 40.362 36.7694 41.7198 38.5475 41.7198C40.3256 41.7198 41.748 40.3297 41.748 38.5192C41.748 36.6765 40.3256 35.3187 38.5475 35.3187C36.7694 35.3187 35.3469 36.6765 35.3469 38.5192ZM43.1382 34.6074V40.362C47.6319 40.362 51.1558 44.0152 51.1558 48.7999C51.1558 53.5846 47.5996 57.2378 43.1382 57.2378C38.6444 57.2378 35.1206 53.5846 35.1206 48.7999H28.8487C28.8487 56.7529 35.1852 62.9924 43.1382 62.9924C51.0912 62.9924 57.4277 56.7529 57.4277 48.7999C57.4277 40.8469 51.0912 34.6074 43.1382 34.6074ZM107.635 88.5648V83.1011H117.754V77.6375H107.635V72.2709H118.788V66.7749H101.492V94.0284H118.95V88.5324H107.635V88.5648ZM97.8391 80.4178C97.8391 88.2415 91.8582 94.0284 83.4203 94.0284H74.4328V66.7426H83.4203C91.8582 66.7426 97.8391 72.5942 97.8391 80.4178ZM91.5673 80.4178C91.5673 75.7624 88.4637 72.2385 83.9053 72.2385H80.543V88.5648H83.9053C88.4637 88.5648 91.5673 85.0732 91.5673 80.4178ZM50.5416 83.5537C50.5416 86.6897 48.3109 89.0174 45.2396 89.0174C42.1683 89.0174 39.9376 86.6897 39.9376 83.5537V66.8072H33.8597V83.4568C33.8597 89.8903 38.6768 94.6103 45.2396 94.6103C51.8024 94.6103 56.6194 89.8579 56.6194 83.4568V66.8072H50.5416V83.5537ZM15.1735 84.1033H21.219C20.6694 86.916 18.1801 89.082 15.2058 89.082C11.8759 89.082 9.19259 86.3987 9.19259 82.4869V78.4457C9.19259 74.5986 12.0699 71.7536 16.111 71.7536C19.247 71.7536 22.0596 73.467 22.9648 75.9564L28.6224 73.9843C27.0706 69.1996 21.9626 66.2253 16.111 66.2253C8.70765 66.2253 3.21169 71.204 3.21169 78.4457V82.4869C3.24402 89.4377 8.38436 94.6103 14.7209 94.6103C18.665 94.6103 22.1566 92.6059 24.1933 89.5023V94.0607H29.56V78.8983H15.1735V84.1033ZM83.9376 51.8065V35.157H77.8597V51.9035C77.8597 55.0394 75.629 57.3671 72.5577 57.3671C69.4865 57.3671 67.2557 55.0394 67.2557 51.9035V35.157H61.1779V51.8065C61.1779 58.24 65.9949 62.9601 72.5577 62.9601C79.1205 62.9601 83.9376 58.24 83.9376 51.8065ZM13.3307 62.4105H19.4409V52.0652L29.6893 35.157H22.7708L16.305 46.3106L9.93616 35.157H3.05005L13.2984 52.1298V62.4105H13.3307ZM74.7238 3.50677H54.0331V9.00272H74.7238V3.50677ZM51.4145 25.2643H40.0669V19.8007H50.1859V14.337H40.0669V8.9704H51.2205V3.47444H33.9244V30.7279H51.3821V25.2643H51.4145ZM14.7209 31.3422C18.665 31.3422 22.1566 29.3378 24.1933 26.2342V30.7926H29.56V15.6302H15.1735V20.8675H21.219C20.6694 23.6802 18.1801 25.8462 15.2058 25.8462C11.8759 25.8462 9.19259 23.1629 9.19259 19.2511V15.2099C9.19259 11.3628 12.0699 8.51779 16.111 8.51779C19.247 8.51779 22.0596 10.2312 22.9648 12.7206L28.6224 10.7485C27.0706 5.96378 21.9626 2.9895 16.111 2.9895C8.70765 2.9895 3.21169 7.96819 3.21169 15.2099V19.2511C3.24402 26.1695 8.38436 31.3422 14.7209 31.3422ZM97.8714 55.5244L94.7032 52.1945L97.8391 48.7999L94.6709 45.47L97.8068 42.0754L94.6385 38.7455L98.1301 35.157H91.7936L88.3667 38.7779L91.5349 42.1078L88.399 45.5023L91.5673 48.8322L88.4313 52.2268L91.5996 55.5567L88.4637 58.9513L91.8259 62.4428H98.1947L94.7678 58.9189L97.8714 55.5244ZM68.161 79.6096C69.0662 78.8014 70.5856 77.4435 70.5856 74.9219C70.5856 72.4325 69.0662 71.0424 68.161 70.2341C68.1286 70.2018 68.0963 70.1695 68.064 70.1372C67.6114 69.6522 67.5467 68.9733 67.5144 68.65V66.7426H61.3718V69.2966C61.3718 69.3289 61.3718 69.3613 61.3718 69.3936C61.3718 71.8829 62.8913 73.2731 63.7965 74.0813C64.4431 74.6632 64.4431 74.6956 64.4431 74.9219C64.4431 75.1482 64.4431 75.1805 63.7965 75.7624C62.9236 76.5383 61.5012 77.8315 61.4042 80.1592C61.4042 80.1915 61.4042 80.2562 61.4042 80.2885C61.4042 80.3208 61.4042 80.3208 61.4042 80.3532C61.4042 80.3855 61.4042 80.3855 61.4042 80.4178C61.4042 80.4501 61.4042 80.5148 61.4042 80.5471C61.5012 82.8748 62.956 84.168 63.7965 84.9439C64.4431 85.5258 64.4431 85.5582 64.4431 85.7845C64.4431 86.0108 64.4431 86.0431 63.7965 86.625C62.8913 87.4333 61.3718 88.7911 61.3718 91.3127C61.3718 91.3451 61.3718 91.3774 61.3718 91.4097V93.9637H67.5144V92.0563C67.5144 91.733 67.6114 91.0541 68.064 90.5692C68.0963 90.5368 68.1286 90.5045 68.161 90.4722C69.0662 89.664 70.5856 88.3061 70.5856 85.7845C70.5856 83.2951 69.0662 81.905 68.161 81.0967C67.579 80.5795 67.5144 80.4825 67.5144 80.3208C67.5467 80.2238 67.6114 80.1269 68.161 79.6096ZM61.3072 30.7602H67.4174V25.6846H61.3072V30.7602ZM67.4497 18.4428H61.3395V23.5185H67.4497V18.4428ZM67.4497 11.1688H61.3395V16.2445H67.4497V11.1688ZM113.777 62.4105L106.342 52.0005C109.963 50.869 112.484 47.7007 112.484 43.8212C112.484 38.9072 108.411 35.157 103.27 35.157H99.6819V40.6853H103.044C104.822 40.6853 106.212 42.1078 106.212 43.9829C106.212 45.858 104.822 47.2804 103.044 47.2804H99.6819V52.5178L106.342 62.4428H113.777V62.4105Z" fill="#FF5533"/>
</svg>
