<svg width="172" height="69" viewBox="0 0 172 69" fill="none" xmlns="http://www.w3.org/2000/svg">
<path d="M154.214 43.6541H161.866V31.8866H154.214V43.6541ZM161.824 27.2637H167.7V49.1176C167.7 52.7319 167.32 53.3623 166.347 54.3289C165.586 55.1274 164.36 55.5057 162.246 55.5057H153.664L151.001 52.5638V51.345H161.824V48.3611H154.425C152.185 48.3611 151.043 47.9408 150.113 47.0163C148.887 45.7555 148.38 43.0237 148.38 37.8544C148.38 32.6851 148.972 29.8273 150.24 28.5245C151.212 27.5999 152.396 27.2217 154.51 27.2217L158.907 27.2637L161.824 29.9114V27.2637ZM92.491 21.464H99.4243L89.4471 34.072L99.847 48.3191H92.491L84.5854 37.14H82.7252V48.3191H76.4684V21.464H82.7252V31.8866H84.5854L92.491 21.464ZM138.149 33.9039V31.9707H136.035C135.993 31.9707 135.993 31.9707 135.951 31.9707H134.302C134.26 31.9707 134.26 31.9707 134.217 31.9707H130.962V33.9039V48.235H125.128V27.2637H128.975H130.962V27.6419V29.9114L133.879 27.2637H135.57C135.824 27.2217 136.12 27.2217 136.416 27.2217H138.952C140.728 27.2217 141.869 27.5999 142.673 28.3984C143.56 29.2389 143.899 30.3316 143.899 33.4416V48.235H138.065V34.1561C138.149 34.072 138.149 33.988 138.149 33.9039ZM107.414 43.6121H115.066V31.8446H107.414V43.6121ZM107.668 48.235C105.554 48.235 104.413 47.8988 103.525 46.9322C102.172 45.5453 101.623 43.6541 101.623 37.7283C101.623 31.7605 102.172 29.9114 103.525 28.4825C104.413 27.5579 105.554 27.2217 107.668 27.2217H114.77C116.884 27.2217 118.026 27.5579 118.914 28.4825C120.266 29.9114 120.816 31.7605 120.816 37.7283C120.816 43.6961 120.266 45.5453 118.914 46.9322C117.983 47.8988 116.884 48.235 114.77 48.235H107.668Z" fill="#043558"/>
<path d="M23.3633 53.2847L24.8075 51.4208H35.4945L41.0649 58.5378L40.0746 60.9524H26.2929L26.623 58.5378L23.3633 53.2847Z" fill="#169FCC"/>
<path d="M26.6313 29.0174L31.7917 20.1024H37.8049L64.758 51.4096L62.6683 60.9524H51.1109L51.8359 58.2737L26.6313 29.0174Z" fill="#14B59A"/>
<path d="M32.895 18.4086L35.3659 13.8393L42.7786 7.84747L55.4798 17.8051L53.8326 19.4863L56.0434 22.5469V25.823L49.7144 30.9958L39.0939 18.4086H32.895Z" fill="#1BC263"/>
<path d="M13.2669 38.3185H16.6241L25.3784 30.9958L36.98 44.4763L33.7078 49.3859H22.9986L15.6042 58.7889L13.9043 60.9525H4.30005V49.4275L13.2669 38.3185Z" fill="#16BDCC"/>
</svg>
