<svg  viewBox="95 25 150 32" fill="none" xmlns="http://www.w3.org/2000/svg"><defs>
<clipPath id="clip0_0_1766">
<rect width="50" height="50" fill="white" transform="translate(20 16)"/>
</clipPath>
<clipPath id="clip1_0_1766">
<rect width="100" height="18.6111" fill="white" transform="translate(105 32)"/>
</clipPath>
</defs><g clip-path="url(#clip0_0_1766)">
<path d="M70 17.467C70.0009 17.272 69.9631 17.0787 69.8889 16.8984C69.8146 16.7181 69.7054 16.5543 69.5675 16.4164C69.4297 16.2785 69.2658 16.1693 69.0855 16.0951C68.9052 16.0208 68.7119 15.983 68.517 15.9839H21.4831C21.2881 15.983 21.0948 16.0208 20.9145 16.0951C20.7342 16.1693 20.5704 16.2785 20.4325 16.4164C20.2946 16.5543 20.1854 16.7181 20.1112 16.8984C20.0369 17.0787 19.9992 17.272 20 17.467V64.5331C19.9992 64.7281 20.0369 64.9213 20.1112 65.1017C20.1854 65.282 20.2946 65.4458 20.4325 65.5837C20.5704 65.7216 20.7342 65.8308 20.9145 65.905C21.0948 65.9792 21.2881 66.017 21.4831 66.0162H56.5194L70 52.5363V17.467Z" fill="#FF0061"/>
<path opacity="0.3" d="M56.9153 52.9977L43.9314 65.9815H56.5193L69.9669 52.5364" fill="black"/>
<path d="M70.0001 52.5032H58.0025C57.8077 52.5024 57.6147 52.5402 57.4346 52.6143C57.2545 52.6884 57.0908 52.7974 56.953 52.935C56.8152 53.0727 56.7059 53.2362 56.6315 53.4161C56.5571 53.5961 56.519 53.7891 56.5194 53.9838V65.9838L70.0001 52.5032Z" fill="#FF5BA0"/>
<path d="M54.8396 33.6169V48.6798C54.8406 48.7494 54.8276 48.8184 54.8014 48.8828C54.7753 48.9472 54.7365 49.0058 54.6873 49.055C54.6381 49.1041 54.5796 49.1429 54.5152 49.1691C54.4507 49.1953 54.3817 49.2082 54.3122 49.2073H50.3896C50.3201 49.2082 50.251 49.1953 50.1866 49.1691C50.1222 49.1429 50.0636 49.1041 50.0145 49.055C49.9653 49.0058 49.9265 48.9472 49.9003 48.8828C49.8742 48.8184 49.8612 48.7494 49.8622 48.6798V41.1613C48.2493 43.3702 46.6654 45.5452 45.017 47.7863C44.688 47.3581 40.3041 41.1944 40.0735 40.7992C40.0735 41.096 40.0735 46.8637 40.0404 48.6766C40.0414 48.7461 40.0284 48.8152 40.0022 48.8796C39.9761 48.944 39.9373 49.0026 39.8881 49.0517C39.8389 49.1009 39.7804 49.1397 39.716 49.1659C39.6515 49.192 39.5825 49.205 39.513 49.204H35.7267C35.6572 49.205 35.5881 49.192 35.5237 49.1659C35.4593 49.1397 35.4007 49.1009 35.3516 49.0517C35.3024 49.0026 35.2636 48.944 35.2374 48.8796C35.2113 48.8152 35.1983 48.7461 35.1993 48.6766V33.5806C35.1987 33.5114 35.212 33.4427 35.2384 33.3787C35.2647 33.3146 35.3036 33.2564 35.3527 33.2076C35.4019 33.1588 35.4602 33.1203 35.5245 33.0943C35.5887 33.0684 35.6574 33.0555 35.7267 33.0564H39.1872C39.2714 33.0604 39.3536 33.0832 39.4278 33.1231C39.5021 33.163 39.5664 33.2191 39.6162 33.2871L44.9557 40.6371L50.3589 33.2871C50.4087 33.2191 50.4731 33.163 50.5473 33.1231C50.6215 33.0832 50.7038 33.0604 50.788 33.0564H54.2815C54.6114 33.0895 54.842 33.3202 54.842 33.6169H54.8396Z" fill="white"/>
</g><g clip-path="url(#clip1_0_1766)">
<path d="M204.973 50.1944C204.973 50.3889 204.806 50.5556 204.612 50.5556H186.806C186.612 50.5556 186.445 50.3889 186.445 50.1944V32.3611C186.445 32.1667 186.612 32 186.806 32H204.612C204.806 32 204.973 32.1667 204.973 32.3611V50.1944Z" fill="#FF0065"/>
<path d="M123.556 50.1944C123.556 50.3889 123.389 50.5556 123.194 50.5556H105.361C105.167 50.5556 105 50.3889 105 50.1944V32.3611C105 32.1667 105.167 32 105.361 32H123.167C123.361 32 123.528 32.1667 123.528 32.3611V50.1944H123.556Z" fill="#FF0065"/>
<path d="M164.278 32.5556C164.278 32.25 164.028 32 163.723 32H146.278C145.973 32 145.723 32.25 145.723 32.5556V50C145.723 50.3056 145.973 50.5556 146.278 50.5556H159.278L164.278 45.5556V32.5556Z" fill="#FF0065"/>
<path d="M143.917 50.1944C143.917 50.3889 143.75 50.5556 143.556 50.5556H125.722C125.528 50.5556 125.361 50.3889 125.361 50.1944V32.3611C125.361 32.1667 125.528 32 125.722 32H143.528C143.722 32 143.889 32.1667 143.889 32.3611V50.1944H143.917Z" fill="#FF0065"/>
<path d="M184.612 50.1944C184.612 50.3889 184.445 50.5556 184.251 50.5556H166.445C166.251 50.5556 166.084 50.3889 166.084 50.1944V32.3611C166.084 32.1667 166.251 32 166.445 32H184.251C184.445 32 184.612 32.1667 184.612 32.3611V50.1944Z" fill="#FF0065"/>
<path d="M155.249 38.3333C155.527 38.3333 155.916 38.3888 156.083 38.4444C156.694 38.5833 157.166 38.9166 157.499 39.4444C158.027 40.3055 157.916 41.5555 156.999 42.1666C156.888 42.2221 156.805 42.3055 156.694 42.3888C156.722 42.4444 157.555 43.7499 157.86 44.1944C157.916 44.2499 157.86 44.361 157.777 44.361H155.944C155.86 44.361 155.805 44.3333 155.749 44.2499L154.777 42.7221H153.999V44.1388C153.999 44.2499 153.888 44.361 153.777 44.361H152.388C152.277 44.361 152.166 44.2499 152.166 44.1388V38.5833C152.166 38.4722 152.277 38.361 152.388 38.361H155.249V38.3333ZM153.999 41.2222H155.249C155.36 41.2222 155.472 41.1944 155.583 41.1388C155.833 41.0277 155.944 40.8055 155.944 40.5277C155.944 40.2222 155.833 40.0833 155.61 39.9444C155.472 39.861 155.333 39.8333 155.194 39.8333C154.805 39.8333 154.388 39.8333 153.999 39.8333V41.2222Z" fill="white"/>
<path d="M117.917 38.5277V44.111C117.917 44.2221 117.833 44.3055 117.722 44.3055H116.278C116.167 44.3055 116.083 44.2221 116.083 44.111C116.083 43.4444 116.083 41.4166 116.083 41.3333C115.5 42.1388 114.889 42.9444 114.305 43.8055C114.194 43.6388 112.555 41.3611 112.472 41.2222V44.1388C112.472 44.2499 112.389 44.3333 112.278 44.3333H110.833C110.722 44.3333 110.639 44.2499 110.639 44.1388V38.5277C110.639 38.4166 110.722 38.3333 110.833 38.3333H112.111C112.167 38.3333 112.222 38.361 112.278 38.4166L114.25 41.1388L116.25 38.4166C116.278 38.361 116.361 38.3333 116.417 38.3333H117.722C117.805 38.3333 117.917 38.4166 117.917 38.5277Z" fill="white"/>
<path d="M137.583 38.3333C137.694 38.3333 137.806 38.4166 137.806 38.5555V41.6944C137.778 42.4166 137.556 43.1111 137 43.6388C136.556 44.0833 136 44.3055 135.389 44.4166C135.028 44.4722 134.639 44.4999 134.278 44.4722C133.5 44.4166 132.778 44.1666 132.222 43.5833C131.861 43.1944 131.639 42.7221 131.556 42.1666C131.5 41.8888 131.5 41.5833 131.5 41.3055C131.5 40.611 131.5 39.1388 131.5 38.5833C131.5 38.4722 131.611 38.361 131.722 38.361H133.083C133.194 38.361 133.306 38.4444 133.306 38.5833V41.2777C133.306 41.5833 133.333 41.9166 133.444 42.1944C133.556 42.4444 133.694 42.6388 133.944 42.7777C134.278 42.9444 134.611 42.9722 134.972 42.8888C135.444 42.8055 135.75 42.5277 135.861 42.0555C135.917 41.8888 135.917 41.7222 135.917 41.5555C135.917 40.7777 135.917 39.1666 135.917 38.5833C135.917 38.4722 136 38.361 136.139 38.361H137.583V38.3333Z" fill="white"/>
<path d="M176.223 38.3333L178.889 44.1388C178.917 44.2222 178.862 44.3333 178.778 44.3333H177.167C177.056 44.3333 176.973 44.2777 176.917 44.1666L176.667 43.5555H174.084L173.834 44.1666C173.778 44.2777 173.695 44.3333 173.584 44.3333H171.973C171.862 44.3333 171.806 44.2222 171.862 44.1388L174.556 38.3333H176.223ZM175.973 42.1111L175.334 40.4444L174.695 42.1111H175.973Z" fill="white"/>
<path d="M195.222 38.5555V42.7777H197.75C197.861 42.7777 197.972 42.8888 197.972 42.9999V44.111C197.972 44.2221 197.861 44.3333 197.75 44.3333H193.611C193.5 44.3333 193.389 44.2221 193.389 44.111V38.5555C193.389 38.4444 193.5 38.3333 193.611 38.3333H194.972C195.139 38.3333 195.222 38.4166 195.222 38.5555Z" fill="white"/>
<path d="M154.611 50.5555L159.417 45.7222H164.111L159.278 50.5555H154.611Z" fill="#B0044B"/>
<path d="M164.277 45.5557H159.833C159.527 45.5557 159.277 45.8057 159.277 46.1112V50.5557L164.277 45.5557Z" fill="#FF5BA0"/>
</g></svg>