<svg width="204" height="59" viewBox="0 0 204 59" fill="none" xmlns="http://www.w3.org/2000/svg">
<path d="M28.9998 4.85718H8.6969V53.4286L28.9998 4.85718Z" fill="#FA0F00"/>
<path d="M63.5808 4.85718H43.2944L63.5808 53.4286V4.85718Z" fill="#FA0F00"/>
<path fill-rule="evenodd" clip-rule="evenodd" d="M120.023 22.524C112.35 22.524 107.863 27.5535 107.863 33.5493C107.863 40.6802 112.642 44.2004 118.847 44.2004C121.686 44.2037 124.496 43.633 127.109 42.5225C127.36 42.4403 127.401 42.3539 127.401 42.1442C127.278 41.1291 127.221 40.1071 127.232 39.0846V14.3075C127.232 14.1388 127.191 14.0566 126.981 14.0566H121.697C121.658 14.052 121.618 14.0564 121.58 14.0694C121.543 14.0824 121.508 14.1038 121.48 14.1319C121.452 14.16 121.431 14.1941 121.418 14.2316C121.405 14.2691 121.4 14.3091 121.405 14.3486V22.6063C121.213 22.5937 121.041 22.5812 120.885 22.5698C120.528 22.5439 120.255 22.524 120.023 22.524ZM119.855 27.389C120.38 27.3642 120.905 27.4352 121.405 27.5987V38.9612C120.767 39.1553 120.101 39.2401 119.435 39.2121C116.248 39.2121 113.859 37.4067 113.859 33.2573C113.859 29.3588 116.626 27.389 119.855 27.389Z" fill="#FA0F00"/>
<path fill-rule="evenodd" clip-rule="evenodd" d="M87.2599 43.4437L89.2709 37.2422H98.9391L101.078 43.4889C101.105 43.5863 101.168 43.6699 101.254 43.7238C101.34 43.7777 101.442 43.798 101.542 43.7809H106.983C107.234 43.7809 107.275 43.6123 107.193 43.4026L97.6766 16.5692C97.6314 16.3595 97.5491 16.3184 97.3394 16.3184H90.6321C90.5609 16.3257 90.4951 16.36 90.4484 16.4143C90.4018 16.4687 90.3777 16.5388 90.3812 16.6104C90.3883 17.48 90.2493 18.3447 89.97 19.1683L81.5849 43.3697C81.5396 43.6123 81.626 43.7809 81.918 43.7809H86.7994C86.9032 43.7862 87.0057 43.7556 87.0896 43.6941C87.1734 43.6327 87.2336 43.5443 87.2599 43.4437ZM96.2053 28.1447L96.2068 28.1495C96.6665 29.6018 97.0971 30.962 97.4052 31.9989H90.7637C90.8439 31.7513 90.9263 31.4976 91.0103 31.2387C92.0845 27.9287 93.4281 23.7884 94.0536 21.1833H94.0947C94.5903 23.0425 95.4371 25.7179 96.2035 28.1391L96.204 28.1406L96.2044 28.1419L96.2048 28.1433L96.205 28.1437L96.2053 28.1447Z" fill="#FA0F00"/>
<path fill-rule="evenodd" clip-rule="evenodd" d="M151.245 33.2573C151.245 39.8372 146.968 44.2004 140.931 44.2004C133.759 44.2004 130.576 38.7926 130.576 33.3848C130.576 27.4301 134.557 22.524 141.013 22.524C147.766 22.524 151.245 27.5987 151.245 33.2573ZM136.485 33.2985C136.485 36.9996 138.204 39.3354 141.009 39.3354C143.443 39.3354 145.286 37.2422 145.286 33.3848C145.286 30.0949 143.945 27.389 140.762 27.389C138.332 27.389 136.485 29.5685 136.485 33.2985Z" fill="#FA0F00"/>
<path fill-rule="evenodd" clip-rule="evenodd" d="M160.469 14.3897C160.469 14.0977 160.391 14.0566 160.057 14.0566H154.938C154.728 14.0566 154.646 14.1388 154.646 14.3486V42.8227C154.648 42.9072 154.672 42.9896 154.716 43.0617C154.76 43.1338 154.822 43.1932 154.896 43.234C157.028 43.8901 159.247 44.216 161.476 44.2004C167.846 44.2004 174.052 40.343 174.052 32.5007C174.052 26.8831 170.158 22.524 163.989 22.524C162.8 22.5224 161.617 22.6772 160.469 22.9846V14.3897ZM160.469 27.8084C161.27 27.5744 162.102 27.4608 162.936 27.4712H162.949C165.885 27.4712 168.105 29.2313 168.097 33.0682C168.097 37.4273 165.206 39.356 162.019 39.356C161.498 39.3624 160.977 39.3072 160.469 39.1915V27.8084Z" fill="#FA0F00"/>
<path fill-rule="evenodd" clip-rule="evenodd" d="M182.256 34.894C182.466 37.2833 184.144 39.2532 188.252 39.2532C190.019 39.2872 191.774 38.9583 193.409 38.2868C193.536 38.2045 193.66 38.2456 193.66 38.4965V42.4814C193.66 42.7734 193.578 42.8926 193.368 42.9831C191.69 43.7809 189.848 44.2168 186.952 44.2168C179.069 44.2168 176.306 38.809 176.306 33.611C176.306 27.8249 179.867 22.5404 186.451 22.5404C192.78 22.5404 195.297 27.4465 195.297 31.5877C195.326 32.5287 195.256 33.4702 195.087 34.3964C195.081 34.484 195.044 34.5664 194.982 34.6285C194.92 34.6905 194.837 34.7279 194.75 34.7337C193.314 34.8693 191.873 34.9256 190.432 34.9023L182.256 34.894ZM187.709 30.8269C188.408 30.8525 189.108 30.8236 189.802 30.7405V30.4486C189.79 29.9958 189.688 29.5499 189.502 29.1371C189.315 28.7243 189.049 28.3527 188.717 28.0441C188.386 27.7356 187.996 27.4961 187.571 27.3399C187.146 27.1836 186.694 27.1136 186.241 27.134C183.601 27.134 182.466 29.1079 182.215 30.8351L187.709 30.8269Z" fill="#FA0F00"/>
<path d="M49.0723 53.4286L36.1471 22.7584L27.2766 43.6617H36.7351L40.6008 53.4286H49.0723Z" fill="#FA0F00"/>
</svg>
