<svg  viewBox="20 16 220 50" fill="none" xmlns="http://www.w3.org/2000/svg"><defs>
<clipPath id="clip0_0_66">
<rect width="56.3559" height="50" fill="white" transform="translate(20 16)"/>
</clipPath>
</defs><g clip-path="url(#clip0_0_66)">
<path d="M20 16V66L40.7627 16H20ZM55.5932 16L76.3559 66V16H55.5932ZM48.3898 34.6441L61.9492 66H53.0508L48.8136 55.8305H39.0678" fill="#FA0F00"/>
</g><path d="M140.902 27H130V53.0724L140.902 27Z" fill="#FA0C00"/><path d="M148.572 27H159.46V53.0724L148.572 27Z" fill="#FA0C00"/><path d="M144.736 36.6094L151.675 53.0724H147.123L145.049 47.8309H139.971L144.736 36.6094Z" fill="#FA0C00"/><path d="M177.246 43.5803L178.532 47.2664C178.575 47.3588 178.638 47.4013 178.752 47.4013H181.224C181.359 47.4013 181.38 47.3373 181.359 47.2024L176.252 33.0192C176.231 32.9056 176.209 32.8843 176.096 32.8843H173.028C172.942 32.8843 172.893 32.9482 172.893 33.0405C172.85 33.7863 172.786 34.0135 172.694 34.2337L168.141 47.1811C168.12 47.3373 168.17 47.4013 168.298 47.4013H170.506C170.641 47.4013 170.705 47.3588 170.755 47.2237L171.969 43.5803H177.246ZM172.672 41.1726C173.34 39.1556 174.221 36.5704 174.576 35.0931H174.597C175.038 36.6414 176.075 39.7096 176.543 41.1726H172.672Z" fill="#FA0C00"/><path d="M187.923 47.6216C189.251 47.6216 190.664 47.3802 192.099 46.7622C192.213 46.7196 192.234 46.67 192.234 46.5634C192.192 46.1656 192.142 45.5904 192.142 45.15V31.7978C192.142 31.7125 192.142 31.6699 192.035 31.6699H189.628C189.535 31.6699 189.493 31.7125 189.493 31.8262V36.3503C189.116 36.3077 188.853 36.2864 188.541 36.2864C184.656 36.2864 182.27 38.8503 182.27 42.0534C182.27 45.768 184.72 47.6216 187.923 47.6216ZM189.493 45.15C189.095 45.2778 188.655 45.3276 188.207 45.3276C186.446 45.3276 185.004 44.3333 185.004 41.9185C185.004 39.7807 186.488 38.5165 188.456 38.5165C188.853 38.5165 189.201 38.5591 189.493 38.6728V45.15Z" fill="#FA0C00"/><path d="M199.916 36.2861C196.599 36.2861 194.547 38.8288 194.547 41.968C194.547 44.7734 196.18 47.6214 199.867 47.6214C202.984 47.6214 205.172 45.3274 205.172 41.8969C205.172 38.8714 203.318 36.2861 199.916 36.2861ZM199.781 38.5162C201.656 38.5162 202.452 40.1285 202.452 41.968C202.452 44.2407 201.28 45.3699 199.916 45.3699C198.233 45.3699 197.239 43.9566 197.239 41.9182C197.239 39.8231 198.297 38.5162 199.781 38.5162Z" fill="#FA0C00"/><path d="M207.66 31.6699C207.568 31.6699 207.504 31.7125 207.504 31.8262V46.9398C207.504 47.0038 207.568 47.1174 207.66 47.1387C208.718 47.4654 209.826 47.6216 210.97 47.6216C214.244 47.6216 217.426 45.5904 217.426 41.4995C217.426 38.5378 215.395 36.2864 212.213 36.2864C211.481 36.2864 210.799 36.4 210.203 36.5989L210.174 31.8475C210.174 31.6912 210.132 31.6699 209.976 31.6699H207.66ZM214.706 41.7694C214.706 44.2196 213.03 45.3702 211.218 45.3702C210.842 45.3702 210.508 45.3489 210.203 45.2565V38.8077C210.551 38.6728 210.97 38.5591 211.744 38.5591C213.491 38.5591 214.706 39.6671 214.706 41.7694Z" fill="#FA0C00"/><path d="M226.411 42.5646C227.49 42.5646 228.378 42.5432 228.684 42.4722C228.797 42.4509 228.84 42.4083 228.861 42.316C228.925 42.0745 228.954 41.5702 228.954 40.9523C228.954 38.8501 227.689 36.2861 224.422 36.2861C221.084 36.2861 219.23 39.0063 219.23 42.0745C219.23 44.7947 220.665 47.6214 224.685 47.6214C226.191 47.6214 227.164 47.3799 228.002 46.9821C228.087 46.9396 228.13 46.8685 228.13 46.7406V44.9012C228.13 44.7947 228.066 44.7734 228.002 44.816C227.164 45.1711 226.255 45.3486 225.26 45.3486C223.009 45.3486 221.986 44.1057 221.922 42.5646H226.411ZM221.922 40.6611C222.1 39.5816 222.782 38.4097 224.309 38.4097C225.992 38.4097 226.432 39.8231 226.432 40.4623C226.432 40.4836 226.432 40.5759 226.432 40.6398C226.34 40.6611 226.056 40.6611 225.218 40.6611H221.922Z" fill="#FA0C00"/></svg>