<svg width="213" height="56" viewBox="0 0 213 56" fill="none" xmlns="http://www.w3.org/2000/svg">
<path d="M157.354 19.8756C160.343 19.8756 163.374 20.9564 165.035 22.5578L161.09 26.9609C160.301 26.0001 158.848 25.3603 157.478 25.3603C154.654 25.3603 152.703 27.7617 152.703 30.4845C152.703 33.2463 154.572 35.5681 157.561 35.5681C158.931 35.5681 160.426 35.0475 161.256 34.0869L165.035 38.5305C163.332 40.1321 160.426 41.0925 157.395 41.0925C150.876 41.0925 145.811 37.0901 145.811 30.4845C145.811 23.9587 150.876 19.8756 157.354 19.8756ZM110.256 19.8756C117.19 19.8756 119.764 23.1579 119.764 30.404V40.4529H113.537V38.3308H113.412C112.374 39.972 110.049 40.9328 107.558 40.9328C104.236 40.9328 100.042 39.3711 100.042 34.6878C100.042 28.9228 107.308 27.9622 113.329 27.9622V27.6423C113.329 25.6802 111.71 24.7593 109.593 24.7593C107.641 24.7593 105.772 25.6802 104.485 26.8009L101.039 23.2384C103.489 20.9961 106.893 19.8756 110.256 19.8756ZM133.19 19.8756C140.124 19.8756 142.698 23.1579 142.698 30.404V40.4529H136.471V38.3308H136.346C135.307 39.972 132.983 40.9328 130.491 40.9328C127.17 40.9328 122.976 39.3711 122.976 34.6878C122.976 28.9228 130.242 27.9622 136.263 27.9622V27.6423C136.263 25.6802 134.644 24.7593 132.526 24.7593C130.575 24.7593 128.706 25.6802 127.419 26.8009L123.973 23.2384C126.423 20.9961 129.827 19.8756 133.19 19.8756ZM75.6053 15.2717V20.5162H80.4633V25.4398H75.6053V33.0466C75.6053 34.9282 76.2286 35.8482 78.1802 35.8482C78.7615 35.8482 79.4694 35.7562 79.9713 35.5994L80.1729 35.5283L80.2563 40.3326C79.3012 40.6523 77.765 40.9327 76.3112 40.9327C70.9095 40.9327 69.0438 38.2507 68.9653 34.1244L68.9627 33.8472V25.4398H65.6408V20.7687C67.0056 20.6782 68.272 20.3953 69.0043 19.6282C69.8862 18.7862 70.1284 17.2388 70.1736 15.6471L70.1789 15.2728L75.6053 15.2717ZM174.624 12.1034V29.0627H174.748L181.349 20.5167H189.612L181.64 29.9829L189.944 40.4532H181.516L174.748 31.3451H174.624V40.4532H167.773V12.1034H174.624ZM97.1387 19.9558C97.6786 19.9558 98.2597 19.9957 98.5915 20.116L98.3009 25.88C97.6786 25.72 97.0975 25.6803 96.5577 25.6803C92.9038 25.6803 91.6994 28.5622 91.6994 30.2044V40.4528H84.891V20.5164H91.4502V23.3983H91.5336C92.5711 21.3567 94.606 19.9558 97.1387 19.9558ZM204.399 19.9558C204.939 19.9558 205.52 19.9957 205.852 20.116L205.562 25.88C204.939 25.72 204.358 25.6803 203.818 25.6803C200.164 25.6803 198.96 28.5622 198.96 30.2044V40.4528H192.151V20.5164H198.711V23.3983H198.794C199.832 21.3567 201.867 19.9558 204.399 19.9558ZM113.537 32.4457V31.7651H112.665C109.675 31.7651 106.312 32.1258 106.312 34.4873C106.312 36.0091 107.89 36.5287 109.26 36.5287C112.042 36.5287 113.537 34.9678 113.537 32.4457ZM136.471 32.4457V31.7651H135.599C132.609 31.7651 129.246 32.1258 129.246 34.4873C129.246 36.0091 130.823 36.5287 132.194 36.5287C134.976 36.5287 136.471 34.9678 136.471 32.4457ZM27.7761 34.9334C29.4768 34.9555 31.1778 35.1684 32.0756 36.1095C33.0165 37.0071 33.2516 38.7079 33.2516 40.4086V45.4595C33.2405 47.1604 33.0163 48.861 32.0756 49.759C31.1778 50.6997 29.4768 50.9126 27.7761 50.9347C26.0751 50.9126 24.3742 50.6997 23.4767 49.759C22.5944 48.9171 22.3425 47.3698 22.3051 45.7782L22.295 43.8694C22.2934 42.8056 22.2946 41.5985 22.2985 40.7494L22.3004 40.4089C22.3117 38.7079 22.5356 37.0071 23.4767 36.1095C24.3744 35.1684 26.0751 34.9555 27.7761 34.9334ZM42.9263 19.9943C44.6271 20.0166 46.328 20.2295 47.2259 21.1704C48.1666 22.068 48.4018 23.7688 48.4018 25.4697V30.5203C48.3905 32.2213 48.1666 33.9221 47.2259 34.8201C46.328 35.7608 44.6271 35.9734 42.9263 35.9958C41.2254 35.9734 39.5244 35.7608 38.6268 34.8201C37.7447 33.9782 37.4927 32.4308 37.4554 30.8391L37.4451 28.9303C37.4434 27.8664 37.4447 26.6594 37.4487 25.8103L37.4506 25.4697C37.4619 23.7688 37.6859 22.068 38.6268 21.1704C39.5244 20.2295 41.2254 20.0166 42.9263 19.9943ZM27.7749 19.7818C29.4756 19.804 31.1766 20.017 32.0744 20.958C33.0153 21.8556 33.228 23.5565 33.2503 25.2573C33.228 26.958 33.0151 28.659 32.0744 29.557C31.1763 30.4977 29.4756 30.7106 27.7746 30.7328C26.0739 30.7106 24.3729 30.4977 23.4755 29.557C22.5344 28.659 22.3215 26.9582 22.2992 25.2573C22.3215 23.5565 22.5344 21.8556 23.4755 20.958C24.3729 20.017 26.0739 19.8042 27.7749 19.7818ZM58.0779 4.63037C59.7786 4.65253 61.4796 4.86539 62.3774 5.80651C63.3183 6.70414 63.531 8.40489 63.5533 10.1058C63.531 11.8066 63.3181 13.5076 62.3774 14.4054C61.4794 15.3463 59.7786 15.5592 58.0777 15.5813C56.3769 15.5592 54.6759 15.3463 53.7785 14.4054C52.8374 13.5078 52.6246 11.8068 52.6022 10.1058C52.6246 8.40489 52.8374 6.70414 53.7785 5.80651C54.6759 4.86539 56.3769 4.65253 58.0779 4.63037ZM42.9262 4.63037C44.6272 4.65253 46.3279 4.86539 47.226 5.80651C48.1667 6.70414 48.3795 8.40489 48.4019 10.1058C48.3795 11.8066 48.1667 13.5076 47.226 14.4054C46.3279 15.3463 44.627 15.5592 42.9262 15.5813C41.2253 15.5592 39.5245 15.3463 38.6269 14.4054C37.686 13.5078 37.4729 11.8068 37.4507 10.1058C37.4729 8.40489 37.6858 6.70414 38.6269 5.80651C39.5245 4.86539 41.2255 4.65253 42.9262 4.63037ZM27.7749 4.63037C29.4756 4.65253 31.1766 4.86539 32.0744 5.80651C33.0153 6.70414 33.228 8.40489 33.2503 10.1058C33.228 11.8066 33.0151 13.5076 32.0744 14.4054C31.1763 15.3463 29.4756 15.5592 27.7746 15.5813C26.0739 15.5592 24.3729 15.3463 23.4755 14.4054C22.5344 13.5078 22.3215 11.8068 22.2992 10.1058C22.3215 8.40489 22.5344 6.70414 23.4755 5.80651C24.3729 4.86539 26.0739 4.65253 27.7749 4.63037ZM12.6232 4.63037C14.3241 4.65253 16.0249 4.86539 16.9229 5.80651C17.8636 6.70414 18.0765 8.40489 18.0989 10.1058C18.0765 11.8066 17.8636 13.5076 16.9229 14.4054C16.0249 15.3463 14.3239 15.5592 12.6232 15.5813C10.9222 15.5592 9.22147 15.3463 8.32384 14.4054C7.38293 13.5078 7.16987 11.8068 7.14771 10.1058C7.16987 8.40489 7.38272 6.70414 8.32384 5.80651C9.22147 4.86539 10.9224 4.65253 12.6232 4.63037Z" fill="#250E62"/>
</svg>
