<svg width="126" height="95" viewBox="0 0 126 95" fill="none" xmlns="http://www.w3.org/2000/svg">
<path d="M59.9755 4.22621C53.7738 4.21717 47.8222 6.67095 43.4289 11.0482C39.0357 15.4255 36.5602 21.3681 36.5467 27.5698C36.4883 33.1363 38.4506 38.535 42.0695 42.765C45.6884 46.9949 50.7185 49.7689 56.2269 50.5727C58.1012 50.5727 59.2939 49.2948 59.2939 47.1649C59.2939 45.3758 57.3344 44.7794 57.3344 44.7794C51.8819 43.8422 48.3889 38.8157 48.3889 33.1928C48.4077 32.2343 48.5803 31.2851 48.9001 30.3813C49.8372 31.6592 51.5411 33.1928 54.8638 34.6411C56.2511 35.2216 57.4784 36.1274 58.442 37.2822C58.7828 37.7081 58.9532 38.1341 59.1235 38.3045C59.2939 38.4749 59.2939 38.6453 59.2939 38.7305V38.7816L59.9755 40.6559L60.6571 38.7816C60.6571 38.6964 61.5942 36.2257 65.0872 34.607C67.4349 33.7737 69.5013 32.2977 71.0509 30.3472C71.3569 31.2546 71.5291 32.2017 71.5621 33.1587C71.5621 38.7816 68.0691 43.8082 62.6166 44.7453C62.6166 44.7453 60.6571 45.4269 60.6571 47.1308C60.6571 49.1755 61.8498 50.5386 63.7241 50.5386C69.2325 49.7348 74.2626 46.9608 77.8815 42.7309C81.5004 38.501 83.4627 33.1022 83.4043 27.5358C83.3999 24.4659 82.79 21.4271 81.6095 18.5933C80.429 15.7595 78.7012 13.1863 76.525 11.0212C74.3488 8.85602 71.7668 7.14136 68.927 5.97539C66.0872 4.80941 63.0453 4.21501 59.9755 4.22621ZM56.9937 16.2388C58.2399 13.9557 59.2669 11.5594 60.0607 9.08237C60.8545 11.5594 61.8815 13.9557 63.1277 16.2388C64.3205 18.5391 65.5984 20.5838 66.28 21.6913C66.1969 21.8802 66.0816 22.0532 65.9392 22.2025C65.5132 22.8841 64.6613 23.5656 62.787 24.5028C61.7003 24.9903 60.7603 25.754 60.0607 26.7179C59.3819 25.7345 58.4359 24.9659 57.3344 24.5028C56.0846 23.9701 54.9761 23.1533 54.097 22.1173C54.0333 21.9891 53.9466 21.8736 53.8414 21.7765C54.523 20.5838 55.7157 18.5391 56.9937 16.2388ZM69.8582 29.7849C68.3877 31.4176 66.5471 32.6739 64.4909 33.4484C62.653 34.19 61.08 35.4662 59.9755 37.1118C58.871 35.4662 57.298 34.19 55.4601 33.4484C52.2227 32.0852 50.6892 30.6369 49.9224 29.5294C49.7754 29.3205 49.6605 29.0907 49.5816 28.8478L49.8372 28.3366C50.8069 26.4289 51.8879 24.5798 53.0746 22.7989C53.9772 24.0718 55.2596 25.0262 56.7381 25.5252C57.5791 25.8661 58.3143 26.4248 58.868 27.1439C59.0384 27.3995 59.2087 27.5698 59.2087 27.8254C59.2177 27.89 59.2477 27.9499 59.2939 27.9958L59.9755 29.9553L60.6571 27.9958C60.8897 27.4062 61.2457 26.8731 61.7012 26.4323C62.1567 25.9915 62.7012 25.6532 63.2981 25.44C64.7272 24.8503 65.9864 23.9132 66.9616 22.7137C68.1975 24.4633 69.2807 26.3161 70.199 28.2514L70.4546 28.7626C70.2244 29.0841 70.0248 29.4263 69.8582 29.7849Z" fill="#1A1C3A"/>
<path d="M13.4587 72.9792L12.0956 70.1677H5.87629L4.4876 72.9792H3.15002L8.43216 61.989H9.59934L14.8815 72.9792H13.4587ZM9.02853 63.3521L6.38746 68.8898H11.6696L9.02853 63.3521ZM20.7003 63.1817V72.8599H19.4224V63.1817H15.563V62.0741H24.5938V63.1817H20.7003ZM33.2241 72.9792V61.989H34.5021V72.8088H33.2241V72.9792ZM46.5999 72.9792L39.1026 64.0336V72.9792H37.8247V61.989H39.0174L46.2335 70.7641V61.989H47.5114V72.8088H46.4891L46.5999 72.9792ZM55.2046 63.1817V72.8599H53.9011V63.1817H50.0673V62.0741H59.0981V63.1817H55.2046ZM69.9435 71.8717V72.9792H61.5687V61.989H69.9179V63.0965H62.9319V66.8451H69.1512V67.9527H62.9319V71.7865L69.9435 71.8717ZM80.8485 67.4415C80.5212 67.6882 80.1798 67.9157 79.8262 68.123C79.429 68.3255 78.9935 68.4416 78.5483 68.4638L82.0157 72.8599H80.4822L77.1596 68.6001H73.9221V72.8599H72.6442V61.989H77.5855C78.2477 61.9785 78.9078 62.0646 79.545 62.2445C80.0715 62.3925 80.5445 62.6881 80.9082 63.0965C81.1753 63.3778 81.4044 63.6929 81.5897 64.0336C81.7953 64.3956 81.8846 64.812 81.8453 65.2264C81.8516 65.6382 81.7642 66.0461 81.5897 66.4191C81.3842 66.7882 81.1354 67.1314 80.8485 67.4415ZM80.4226 65.3116C80.4417 65.011 80.3808 64.7107 80.2461 64.4414C80.1114 64.172 79.9077 63.9431 79.6558 63.7781C79.0402 63.3306 78.2844 63.119 77.5259 63.1817H73.9477V67.6119H77.5259C77.9289 67.6031 78.3293 67.5459 78.7186 67.4415C79.0523 67.3518 79.3689 67.2079 79.6558 67.0155C79.9241 66.7996 80.1544 66.5405 80.3374 66.2487C80.3118 66.0443 80.4226 65.6524 80.4226 65.3116ZM93.2871 72.9792L85.7899 64.0336V72.9792H84.512V61.989H85.7047L92.9463 70.7641V61.989H94.2243V72.8088H93.2019L93.2871 72.9792ZM105.981 71.8717V72.9792H97.6321V61.989H105.981V63.0965H98.9952V66.8451H105.215V67.9527H98.9952V71.7865L105.981 71.8717ZM112.882 63.1817V72.8599H111.604V63.1817H107.77V62.0741H116.716V63.1817H112.882Z" fill="#1A1C3A"/>
<path d="M121.402 64.2892C121.522 64.1471 121.583 63.964 121.572 63.7781C121.585 63.6771 121.568 63.5745 121.522 63.4834C121.477 63.3924 121.405 63.317 121.317 63.2669C121.121 63.1222 120.876 63.0609 120.635 63.0965H119.502V65.5672H119.843V64.63H120.439L121.121 65.5672H121.547L120.78 64.5448C121.146 64.5448 121.317 64.4596 121.402 64.2892ZM119.953 64.2892V63.4373H120.635C120.783 63.4151 120.933 63.4452 121.061 63.5225C121.114 63.5622 121.157 63.6136 121.186 63.6728C121.216 63.7319 121.231 63.7971 121.231 63.8633C121.231 63.9294 121.216 63.9946 121.186 64.0538C121.157 64.1129 121.114 64.1644 121.061 64.204C120.933 64.2813 120.783 64.3115 120.635 64.2892H119.953Z" fill="#1A1C3A"/>
<path d="M120.465 66.7599C119.832 66.7599 119.225 66.5086 118.778 66.0612C118.33 65.6139 118.079 65.0071 118.079 64.3744C118.079 63.7418 118.33 63.135 118.778 62.6877C119.225 62.2403 119.832 61.989 120.465 61.989C121.097 61.989 121.704 62.2403 122.151 62.6877C122.599 63.135 122.85 63.7418 122.85 64.3744C122.85 65.0071 122.599 65.6139 122.151 66.0612C121.704 66.5086 121.097 66.7599 120.465 66.7599ZM120.465 62.1594C120.026 62.1594 119.598 62.2893 119.234 62.5327C118.87 62.7761 118.586 63.122 118.418 63.5268C118.25 63.9315 118.207 64.3769 118.292 64.8066C118.378 65.2363 118.588 65.631 118.898 65.9407C119.208 66.2505 119.603 66.4615 120.032 66.547C120.462 66.6324 120.907 66.5886 121.312 66.4209C121.717 66.2533 122.063 65.9693 122.306 65.6051C122.55 65.2408 122.68 64.8125 122.68 64.3744C122.682 64.0829 122.626 63.7939 122.516 63.5241C122.405 63.2543 122.242 63.0092 122.036 62.8031C121.83 62.5969 121.585 62.4339 121.315 62.3233C121.045 62.2128 120.756 62.1571 120.465 62.1594Z" fill="#1A1C3A"/>
<path d="M61.5091 88.6552C61.9704 88.7017 62.4319 88.568 62.797 88.2823C63.1622 87.9965 63.4028 87.5807 63.4686 87.1217H63.1278C63.0565 87.4936 62.8537 87.8275 62.5565 88.0622C62.2592 88.2968 61.8874 88.4166 61.5091 88.3996C60.4016 88.3996 59.72 87.6329 59.72 86.3549V86.2697C59.6954 86.0164 59.7229 85.7608 59.8008 85.5185C59.8787 85.2763 60.0053 85.0525 60.1729 84.861C60.3405 84.6694 60.5455 84.5142 60.7753 84.4049C61.005 84.2955 61.2548 84.2343 61.5091 84.225C61.8683 84.1925 62.2264 84.2975 62.5111 84.5189C62.7958 84.7404 62.9858 85.0616 63.0426 85.4178H63.3834C63.3047 84.9877 63.0698 84.6018 62.7238 84.3345C62.3778 84.0671 61.9452 83.9371 61.5091 83.9695C61.2113 83.9824 60.9191 84.0548 60.6498 84.1825C60.3804 84.3102 60.1394 84.4905 59.9409 84.7129C59.7424 84.9352 59.5904 85.195 59.4939 85.4771C59.3974 85.7591 59.3584 86.0576 59.3792 86.3549V86.4401C59.3601 86.7287 59.4015 87.0181 59.5006 87.2898C59.5998 87.5615 59.7545 87.8095 59.955 88.018C60.1555 88.2265 60.3972 88.3908 60.6648 88.5006C60.9324 88.6103 61.22 88.663 61.5091 88.6552Z" fill="#1A1C3A"/>
<path d="M67.984 88.3144C67.7232 88.3142 67.4653 88.2598 67.2267 88.1547C66.988 88.0496 66.7738 87.8961 66.5976 87.7039C66.4214 87.5117 66.287 87.2849 66.203 87.038C66.119 86.7912 66.0872 86.5295 66.1097 86.2697V86.1845C66.0872 85.9247 66.119 85.6631 66.203 85.4162C66.287 85.1694 66.4214 84.9426 66.5976 84.7504C66.7738 84.5582 66.988 84.4046 67.2267 84.2995C67.4653 84.1944 67.7232 84.1401 67.984 84.1398C68.2425 84.1474 68.4968 84.2067 68.732 84.3143C68.9672 84.4219 69.1784 84.5755 69.3532 84.7661C69.5279 84.9568 69.6627 85.1805 69.7494 85.4242C69.8362 85.6678 69.8732 85.9264 69.8583 86.1845V86.2697C69.8807 86.5295 69.8489 86.7912 69.7649 87.038C69.6809 87.2849 69.5466 87.5117 69.3704 87.7039C69.1941 87.8961 68.9799 88.0496 68.7413 88.1547C68.5026 88.2598 68.2447 88.3142 67.984 88.3144ZM67.984 88.6552C68.2887 88.6524 68.5896 88.5874 68.8683 88.4643C69.147 88.3412 69.3977 88.1626 69.605 87.9393C69.8124 87.716 69.972 87.4528 70.0741 87.1657C70.1763 86.8787 70.2188 86.5738 70.1991 86.2697V86.1845C70.2073 85.8802 70.1534 85.5774 70.0407 85.2946C69.928 85.0118 69.7589 84.755 69.5436 84.5397C69.3283 84.3244 69.0715 84.1553 68.7887 84.0426C68.5059 83.9299 68.2031 83.876 67.8988 83.8843C67.5897 83.8852 67.284 83.9482 66.9998 84.0695C66.7155 84.1908 66.4586 84.368 66.244 84.5904C66.0295 84.8129 65.8619 85.0762 65.751 85.3646C65.6401 85.6531 65.5882 85.9609 65.5985 86.2697V86.3549C65.6163 86.9741 65.876 87.5617 66.3219 87.9918C66.7679 88.4218 67.3645 88.6599 67.984 88.6552Z" fill="#1A1C3A"/>
<path d="M72.7549 88.57H73.0957V84.3954L74.8848 88.57H74.97L76.7591 84.3954V88.57H77.0999V83.8843H76.5887L74.97 87.8885L73.3513 83.8843H72.8401V88.57H72.7549Z" fill="#1A1C3A"/>
<path d="M79.9114 88.57H80.2522V86.6105H81.1041C82.0413 86.6105 82.7228 86.2697 82.7228 85.2474C82.7228 84.3102 82.0413 83.9694 81.1041 83.9694H79.9114V88.57ZM80.3374 86.2697V84.225H81.1893C81.9561 84.225 82.382 84.4806 82.382 85.2474C82.382 85.9289 81.9561 86.2697 81.1893 86.2697H80.3374Z" fill="#1A1C3A"/>
<path d="M84.5119 88.57H84.8527L85.3639 87.1217H87.4938L88.005 88.57H88.3458L86.6418 83.8843H86.1307L84.5119 88.57ZM86.3862 84.225L87.3234 86.8661H85.4235L86.3862 84.225Z" fill="#1A1C3A"/>
<path d="M91.1572 88.57V84.3102L93.7983 88.57H94.2243V83.8843H93.8835V88.0588L91.2424 83.8843H90.7312V88.57H91.1572Z" fill="#1A1C3A"/>
<path d="M98.2029 88.57H98.5437V86.4912L100.077 83.9354H99.7364L98.4585 86.2357L97.0954 83.9354H96.6694L98.2881 86.4912V88.5359L98.2029 88.57Z" fill="#1A1C3A"/>
<path d="M54.7531 86.2697C54.7531 87.2069 54.3271 87.8033 53.4751 87.8033C52.6232 87.8033 52.1972 87.2069 52.1972 86.2697V86.1845C52.1972 85.2474 52.7084 84.651 53.4751 84.651C53.8585 84.698 54.2078 84.8944 54.4471 85.1975C54.6864 85.5006 54.7964 85.886 54.7531 86.2697ZM53.4751 83.8843C53.1623 83.8713 52.8502 83.9248 52.5595 84.0412C52.2688 84.1577 52.0061 84.3344 51.7887 84.5599C51.5713 84.7853 51.4042 85.0542 51.2984 85.349C51.1926 85.6437 51.1505 85.9575 51.1748 86.2697V86.3549C51.1589 86.6612 51.2075 86.9674 51.3175 87.2537C51.4274 87.54 51.5963 87.8 51.8132 88.0169C52.0301 88.2337 52.2901 88.4026 52.5764 88.5126C52.8627 88.6225 53.1689 88.6711 53.4751 88.6552C53.788 88.6682 54.1001 88.6147 54.3908 88.4983C54.6815 88.3818 54.9442 88.205 55.1616 87.9796C55.3789 87.7542 55.546 87.4852 55.6518 87.1905C55.7577 86.8958 55.7998 86.5819 55.7754 86.2697V86.1845C55.7913 85.8783 55.7428 85.5721 55.6328 85.2858C55.5228 84.9995 55.3539 84.7395 55.1371 84.5226C54.9202 84.3057 54.6602 84.1368 54.3739 84.0269C54.0876 83.9169 53.7814 83.8683 53.4751 83.8843Z" fill="#1A1C3A"/>
<path d="M48.1334 83.8843C47.8205 83.8713 47.5084 83.9248 47.2177 84.0412C46.927 84.1577 46.6643 84.3344 46.4469 84.5599C46.2296 84.7853 46.0625 85.0542 45.9566 85.349C45.8508 85.6437 45.8087 85.9575 45.8331 86.2697V88.6552H46.8554V86.2697C46.8554 85.3326 47.3666 84.7362 48.1334 84.7362C48.9001 84.7362 49.4113 85.3326 49.4113 86.2697V88.6552H50.4933V86.2697C50.4944 85.9562 50.4335 85.6455 50.314 85.3555C50.1945 85.0656 50.0188 84.8022 49.7971 84.5804C49.5754 84.3587 49.3119 84.183 49.022 84.0635C48.7321 83.9441 48.4214 83.8831 48.1078 83.8843" fill="#1A1C3A"/>
<path d="M39.6138 83.8843H38.5062V88.6552H39.6138V83.8843Z" fill="#1A1C3A"/>
<path d="M36.6319 86.2697C36.6319 87.2069 36.206 87.8033 35.354 87.8033H34.0761V84.7362H35.354C36.206 84.7362 36.6319 85.3326 36.6319 86.2697ZM35.4392 83.8843H33.1389V90.2739H34.1613V88.6552H35.4392C35.7521 88.6682 36.0642 88.6147 36.3549 88.4983C36.6456 88.3818 36.9083 88.205 37.1256 87.9796C37.343 87.7542 37.5101 87.4852 37.6159 87.1905C37.7217 86.8958 37.7638 86.5819 37.7395 86.2697V86.1845C37.7477 85.8802 37.6938 85.5774 37.5811 85.2946C37.4684 85.0118 37.2993 84.755 37.084 84.5397C36.8688 84.3244 36.6119 84.1553 36.3291 84.0426C36.0463 83.9299 35.7435 83.876 35.4392 83.8843Z" fill="#1A1C3A"/>
<path d="M43.9588 87.2069C43.8945 87.4218 43.7571 87.6075 43.5705 87.732C43.3838 87.8564 43.1595 87.9118 42.9364 87.8885H42.766C41.9993 87.8885 41.4881 87.2921 41.4881 86.3549V86.2697C41.4881 85.3326 41.9993 84.7362 42.766 84.7362C43.5328 84.7362 44.044 85.3326 44.044 86.2697L43.9588 87.2069ZM42.6808 83.8843C42.368 83.8713 42.0559 83.9248 41.7652 84.0412C41.4745 84.1577 41.2118 84.3344 40.9944 84.5599C40.777 84.7853 40.6099 85.0542 40.5041 85.349C40.3983 85.6437 40.3562 85.9575 40.3806 86.2697V86.3549C40.3628 86.6544 40.4073 86.9543 40.5113 87.2358C40.6152 87.5172 40.7763 87.7741 40.9844 87.9902C41.1925 88.2063 41.4431 88.3769 41.7204 88.4914C41.9977 88.6058 42.2957 88.6616 42.5956 88.6552H42.6808C42.9241 88.6528 43.164 88.5983 43.3844 88.4954C43.6048 88.3926 43.8007 88.2437 43.9588 88.0588V88.6552H45.0663V86.2697C45.0745 85.9542 45.0184 85.6404 44.9014 85.3472C44.7845 85.0541 44.609 84.7879 44.3859 84.5647C44.1627 84.3415 43.8965 84.1661 43.6033 84.0491C43.3102 83.9322 42.9963 83.8761 42.6808 83.8843Z" fill="#1A1C3A"/>
<path d="M39.0174 81.7544C38.9276 81.7532 38.8385 81.7701 38.7552 81.8039C38.672 81.8378 38.5964 81.8879 38.5329 81.9514C38.4694 82.015 38.4192 82.0906 38.3854 82.1738C38.3516 82.257 38.3347 82.3461 38.3359 82.4359C38.3281 82.5274 38.3404 82.6195 38.3719 82.7057C38.4034 82.7919 38.4533 82.8702 38.5182 82.9351C38.5832 83 38.6615 83.05 38.7477 83.0815C38.8339 83.113 38.926 83.1253 39.0174 83.1175C39.1072 83.1186 39.1964 83.1018 39.2796 83.068C39.3628 83.0341 39.4384 82.9839 39.5019 82.9204C39.5654 82.8569 39.6156 82.7813 39.6494 82.6981C39.6833 82.6149 39.7001 82.5258 39.699 82.4359C39.7068 82.3445 39.6945 82.2524 39.663 82.1662C39.6315 82.08 39.5815 82.0017 39.5166 81.9368C39.4517 81.8718 39.3734 81.8219 39.2872 81.7904C39.2009 81.7589 39.1089 81.7466 39.0174 81.7544Z" fill="#1A1C3A"/>
<path d="M25.3009 88.57H25.6417L26.1529 87.1217H28.2828L28.7939 88.57H29.1347L27.4308 83.8843H27.0048L25.3009 88.57ZM27.1752 84.225L28.1124 86.8661H26.2381L27.1752 84.225Z" fill="#1A1C3A"/>
</svg>
