<svg width="154" height="77" viewBox="0 0 154 77" fill="none" xmlns="http://www.w3.org/2000/svg">
<path d="M3.84998 65.7082L4.10485 63.1594H4.35973C4.48717 63.3506 4.61461 63.478 4.80577 63.478C4.99693 63.5417 5.18809 63.478 5.37924 63.478H10.2219C10.6042 63.478 11.0503 63.5417 11.2414 63.0957H11.4963L11.7512 65.6445L11.4326 65.7082C10.9866 64.1152 10.1582 63.9241 8.56522 63.9241V68.6393C8.56522 70.6783 8.69266 70.6146 10.2856 70.8695V71.1881H5.31552V70.8695C6.84479 70.6146 7.03595 70.742 7.03595 68.6393V63.9241C5.44296 63.9241 4.61461 64.1152 4.16857 65.7082H3.84998Z" fill="#211D51"/>
<path d="M14.4911 69.2765C14.4911 70.4872 14.4274 70.8695 15.6381 70.9969V71.2518H12.1335V70.9969C13.153 70.8058 13.2805 70.8695 13.2805 69.2765V67.1738C13.2805 65.5808 13.153 65.6445 12.1335 65.4533V65.1984H15.6381V65.4533C14.4274 65.5808 14.4911 65.9631 14.4911 67.1738V67.8109H17.6771V67.1738C17.6771 65.9631 17.7408 65.5808 16.5302 65.4533V65.1984H20.0347V65.4533C19.0152 65.6445 18.8878 65.5808 18.8878 67.1738V69.2765C18.8878 70.8695 19.0152 70.8058 20.0347 70.9969V71.2518H16.5302V70.9969C17.7408 70.8695 17.6771 70.4872 17.6771 69.2765V68.3207H14.4911V69.2765Z" fill="#211D51"/>
<path d="M22.7747 69.5314C22.7747 70.4234 22.7747 70.8695 23.9853 70.8695C25.1323 70.8695 25.642 70.2323 25.8969 69.2128H26.1518C26.1518 69.9137 26.0244 70.5509 25.8332 71.2518H20.417V70.9969C21.4366 70.8058 21.564 70.8695 21.564 69.2765V67.1738C21.564 65.5808 21.4366 65.6445 20.417 65.4533V65.1984H25.642L25.4509 66.7277H25.196C25.1323 65.5808 24.3677 65.5808 23.4119 65.5808H22.7747V67.8109H23.5393C24.3039 67.8109 24.6863 67.7472 24.9411 66.9189H25.196C25.1323 67.6835 25.1323 68.3844 25.1323 69.1491H24.8774C24.6863 68.257 24.3039 68.3207 23.5393 68.3207H22.7747V69.5314Z" fill="#211D51"/>
<path d="M37.685 64.9436L35.0088 71.3155H34.6902L32.0777 65.1984L31.8228 69.6588C31.7591 70.6783 32.2689 70.6783 33.1609 70.9332V71.2518H29.7201V70.9332C30.5485 70.6783 30.8033 70.6783 30.9308 69.7225L31.2494 67.3012L31.568 64.8161C31.6317 63.9878 31.0582 63.9878 30.3573 63.7966V63.478H33.3521V63.7329C33.0335 64.1152 33.5433 65.0073 33.6707 65.3896L35.2637 69.0853L37.1116 64.8161C37.239 64.4975 37.4939 64.0515 37.1753 63.7329V63.478H40.425V63.7966C39.278 64.0515 39.0869 64.2427 39.1506 65.3259L39.3417 69.0216C39.4055 70.296 39.4055 70.6783 40.8073 70.9332V71.2518H36.4106V70.9332C37.9399 70.742 37.8762 70.3597 37.8125 68.9579L37.685 64.9436Z" fill="#211D51"/>
<path d="M44.5667 69.2765C44.5667 70.4872 44.503 70.8695 45.8411 70.9969V71.2518H42.1454V70.9969C43.2924 70.8058 43.4198 70.8695 43.4198 69.2765V68.8942L42.464 66.9189C42.0817 66.0905 41.9542 65.7082 40.9985 65.517V65.2622H43.9933V65.517C43.3561 65.6445 43.1012 65.5808 43.611 66.664L44.3756 68.257L44.8216 67.3012C45.5863 65.7719 45.3951 65.7082 44.6305 65.517V65.2622H47.1792V65.517C46.4146 65.6445 46.096 65.8356 45.7137 66.5366L44.6942 68.3844L44.5667 68.703V69.2765Z" fill="#211D51"/>
<path d="M54.2521 68.1933C54.2521 70.1686 52.7866 71.3792 50.8113 71.3792C48.8997 71.3792 47.4341 70.1686 47.4341 68.257C47.4341 66.3454 48.8997 65.071 50.8113 65.071C52.6591 65.071 54.2521 66.1542 54.2521 68.1933ZM48.8997 68.1295C48.8997 69.3402 49.4731 70.9969 50.9387 70.9969C52.3405 70.9969 52.7866 69.5951 52.7866 68.4481C52.7866 67.1738 52.2131 65.517 50.6838 65.517C49.3457 65.517 48.8997 66.9826 48.8997 68.1295Z" fill="#211D51"/>
<path d="M59.0311 67.0463H58.7762C58.585 66.3454 58.3939 65.517 57.5018 65.517C56.992 65.517 56.6097 65.8994 56.6097 66.4091C56.6097 67.8109 59.4771 67.7472 59.4771 69.5951C59.4771 70.8695 58.2664 71.3792 57.1195 71.3792C56.4823 71.3792 55.9088 71.1881 55.3353 70.9332L55.0167 69.2128L55.2716 69.1491C55.5902 70.0411 56.2274 70.9969 57.2469 70.9969C57.8204 70.9969 58.2664 70.6146 58.2664 70.0411C58.2664 68.5756 55.3991 68.703 55.3991 66.9189C55.3991 65.7719 56.546 65.071 57.5655 65.071C58.0753 65.071 58.585 65.1984 59.0311 65.4533V67.0463Z" fill="#211D51"/>
<path d="M62.3445 69.2765C62.3445 70.8695 62.4719 70.8058 63.4914 70.9969V71.2518H59.9869V70.9969C61.0064 70.8058 61.1338 70.8695 61.1338 69.2765V67.1738C61.1338 65.5808 61.0064 65.6445 59.9869 65.4533V65.1984H63.4914V65.4533C62.4719 65.6445 62.3445 65.5808 62.3445 67.1738V69.2765Z" fill="#211D51"/>
<path d="M63.8738 66.9189L64.0649 64.9436H64.2561C64.3198 65.1347 64.4472 65.1984 64.5747 65.1984C64.7021 65.1984 64.8933 65.1984 65.0207 65.1984H68.7164C69.035 65.1984 69.3536 65.2622 69.4811 64.9436H69.6722L69.8634 66.9189L69.6085 66.9826C69.2262 65.7082 68.589 65.5808 67.3783 65.5808V69.2128C67.3783 70.8058 67.5058 70.742 68.7164 70.9332V71.1881H64.8933V70.9332C66.1039 70.742 66.2314 70.8058 66.2314 69.2128V65.5808C65.0207 65.5808 64.3835 65.7082 64.0012 66.9826L63.8738 66.9189Z" fill="#211D51"/>
<path d="M72.667 69.2765C72.667 70.8695 72.7945 70.8058 73.814 70.9969V71.2518H70.3094V70.9969C71.3289 70.8058 71.4564 70.8695 71.4564 69.2765V67.1738C71.4564 65.5808 71.3289 65.6445 70.3094 65.4533V65.1984H73.814V65.4533C72.7945 65.6445 72.667 65.5808 72.667 67.1738V69.2765Z" fill="#211D51"/>
<path d="M78.4018 67.0463H78.1469C77.9558 66.3454 77.7646 65.517 76.8725 65.517C76.3628 65.517 75.9805 65.8994 75.9805 66.4091C75.9805 67.8109 78.8478 67.7472 78.8478 69.5951C78.8478 70.8695 77.6372 71.3792 76.4902 71.3792C75.853 71.3792 75.2795 71.1881 74.7061 70.9332L74.3875 69.2128L74.6423 69.1491C74.9609 70.0411 75.5981 70.9969 76.6177 70.9969C77.1911 70.9969 77.6372 70.6146 77.6372 70.0411C77.6372 68.5756 74.7698 68.703 74.7698 66.9189C74.7698 65.7719 75.9167 65.071 76.9363 65.071C77.446 65.071 77.9558 65.1984 78.4018 65.4533V67.0463Z" fill="#211D51"/>
<path d="M84.4552 68.1933L84.264 68.7667C83.5631 70.742 84.0728 70.742 85.2835 70.9332V71.2518H81.7152V70.9332C82.3524 70.742 82.6073 70.742 82.8622 70.1049L83.6268 68.3844L85.4109 64.2427L85.2835 63.9241C85.7295 63.7329 86.1119 63.4143 86.3667 63.032H86.5579L88.6607 68.5756C89.4253 70.4234 89.2978 70.5509 90.5085 70.9332V71.2518H86.6216V70.9332C87.7048 70.742 87.7686 70.5509 87.1951 68.8942L86.9402 68.1933H84.4552ZM86.6853 67.4923L85.6658 64.8798L84.71 67.4923H86.6853Z" fill="#211D51"/>
<path d="M94.714 67.0463H94.4591C94.268 66.3454 94.0768 65.517 93.1847 65.517C92.675 65.517 92.2927 65.8994 92.2927 66.4091C92.2927 67.8109 95.16 67.7472 95.16 69.5951C95.16 70.8695 93.9494 71.3792 92.8024 71.3792C92.1652 71.3792 91.5917 71.1881 91.0183 70.9332L90.6997 69.2128L90.9545 69.1491C91.2731 70.0411 91.9103 70.9969 92.9299 70.9969C93.5033 70.9969 93.9494 70.6146 93.9494 70.0411C93.9494 68.5756 91.082 68.703 91.082 66.9189C91.082 65.7719 92.2289 65.071 93.2485 65.071C93.7582 65.071 94.268 65.1984 94.714 65.4533V67.0463Z" fill="#211D51"/>
<path d="M99.8753 67.0463H99.6204C99.4292 66.3454 99.2381 65.517 98.346 65.517C97.8363 65.517 97.4539 65.8994 97.4539 66.4091C97.4539 67.8109 100.321 67.7472 100.321 69.5951C100.321 70.8695 99.1106 71.3792 97.9637 71.3792C97.3265 71.3792 96.753 71.1881 96.1795 70.9332L95.8609 69.2128L96.1158 69.1491C96.4344 70.0411 97.0716 70.9969 98.0911 70.9969C98.6646 70.9969 99.1106 70.6146 99.1106 70.0411C99.1106 68.5756 96.2433 68.703 96.2433 66.9189C96.2433 65.7719 97.3902 65.071 98.4097 65.071C98.9195 65.071 99.4292 65.1984 99.8753 65.4533V67.0463Z" fill="#211D51"/>
<path d="M107.84 68.1933C107.84 70.1686 106.375 71.3792 104.399 71.3792C102.488 71.3792 101.022 70.1686 101.022 68.257C101.022 66.3454 102.488 65.071 104.399 65.071C106.247 65.071 107.84 66.1542 107.84 68.1933ZM102.488 68.1295C102.488 69.3402 103.061 70.9969 104.527 70.9969C105.929 70.9969 106.375 69.5951 106.375 68.4481C106.375 67.1738 105.801 65.517 104.272 65.517C102.934 65.517 102.488 66.9826 102.488 68.1295Z" fill="#211D51"/>
<path d="M114.467 67.2375H114.212C114.021 66.218 113.384 65.517 112.301 65.517C110.835 65.517 110.07 66.8552 110.07 68.1933C110.07 69.4677 110.899 70.9969 112.364 70.9969C113.575 70.9969 114.148 70.0411 114.594 69.0853L114.849 69.1491L114.276 70.9969C113.639 71.2518 113.001 71.3792 112.301 71.3792C110.389 71.3792 108.669 70.3597 108.669 68.3207C108.669 66.218 110.453 65.071 112.364 65.071C113.065 65.071 113.83 65.1984 114.467 65.517V67.2375Z" fill="#211D51"/>
<path d="M117.526 69.2765C117.526 70.8695 117.653 70.8058 118.673 70.9969V71.2518H115.168V70.9969C116.187 70.8058 116.315 70.8695 116.315 69.2765V67.1738C116.315 65.5808 116.187 65.6445 115.168 65.4533V65.1984H118.673V65.4533C117.653 65.6445 117.526 65.5808 117.526 67.1738V69.2765Z" fill="#211D51"/>
<path d="M120.903 68.8942L120.775 69.3402C120.266 70.8695 120.584 70.8695 121.54 70.9969V71.2518H118.8V70.9969C119.246 70.8695 119.501 70.8058 119.692 70.3597L120.266 69.0216L121.667 65.8356L121.604 65.5808C121.922 65.4533 122.241 65.1984 122.432 64.8798H122.623L124.28 69.1491C124.853 70.6146 124.79 70.6783 125.682 70.9969V71.2518H122.687V70.9969C123.515 70.8695 123.579 70.6783 123.133 69.4677L122.942 68.8942H120.903ZM122.623 68.3207L121.795 66.2817L121.03 68.3207H122.623Z" fill="#211D51"/>
<path d="M125.044 66.9189L125.236 64.9436H125.427C125.491 65.1347 125.618 65.1984 125.745 65.1984C125.873 65.1984 126.064 65.1984 126.191 65.1984H129.887C130.206 65.1984 130.524 65.2622 130.652 64.9436H130.843L131.034 66.9189L130.779 66.9826C130.397 65.7082 129.76 65.5808 128.549 65.5808V69.2128C128.549 70.8058 128.676 70.742 129.887 70.9332V71.1881H126.064V70.9332C127.275 70.742 127.402 70.8058 127.402 69.2128V65.5808C126.191 65.5808 125.554 65.7082 125.172 66.9826L125.044 66.9189Z" fill="#211D51"/>
<path d="M133.838 69.2765C133.838 70.8695 133.965 70.8058 134.985 70.9969V71.2518H131.48V70.9969C132.5 70.8058 132.627 70.8695 132.627 69.2765V67.1738C132.627 65.5808 132.5 65.6445 131.48 65.4533V65.1984H134.985V65.4533C133.965 65.6445 133.838 65.5808 133.838 67.1738V69.2765Z" fill="#211D51"/>
<path d="M142.376 68.1933C142.376 70.1686 140.911 71.3792 138.935 71.3792C137.024 71.3792 135.558 70.1686 135.558 68.257C135.558 66.3454 137.024 65.071 138.935 65.071C140.847 65.071 142.376 66.1542 142.376 68.1933ZM137.024 68.1295C137.024 69.3402 137.597 70.9969 139.063 70.9969C140.465 70.9969 140.911 69.5951 140.911 68.4481C140.911 67.1738 140.337 65.517 138.808 65.517C137.534 65.517 137.024 66.9826 137.024 68.1295Z" fill="#211D51"/>
<path d="M144.097 67.2375C144.097 66.3454 144.097 65.7082 142.95 65.517V65.2622H144.989C146.072 66.7277 147.601 68.1933 148.876 69.6588L148.812 66.8552C148.812 65.8356 148.557 65.7082 147.474 65.517V65.2622H150.15V65.517C149.385 65.5808 149.322 65.9631 149.322 67.3649V71.2518L148.939 71.443C148.047 70.3597 146.008 68.257 144.543 66.7277C144.543 67.6835 144.543 68.6393 144.606 69.5951C144.67 70.6783 144.861 70.742 145.881 70.9969V71.2518H143.013V70.9969C143.651 70.8695 144.097 70.9332 144.097 69.7225V67.2375Z" fill="#211D51"/>
<path d="M3.84998 65.7082L4.10485 63.1594H4.35973C4.48717 63.3506 4.61461 63.478 4.80577 63.478C4.99693 63.5417 5.18809 63.478 5.37924 63.478H10.2219C10.6042 63.478 11.0503 63.5417 11.2414 63.0957H11.4963L11.7512 65.6445L11.4326 65.7082C10.9866 64.1152 10.1582 63.9241 8.56522 63.9241V68.6393C8.56522 70.6783 8.69266 70.6146 10.2856 70.8695V71.1881H5.31552V70.8695C6.84479 70.6146 7.03595 70.742 7.03595 68.6393V63.9241C5.44296 63.9241 4.61461 64.1152 4.16857 65.7082H3.84998Z" fill="#211D51"/>
<path d="M14.4911 69.2765C14.4911 70.4872 14.4274 70.8695 15.6381 70.9969V71.2518H12.1335V70.9969C13.153 70.8058 13.2805 70.8695 13.2805 69.2765V67.1738C13.2805 65.5808 13.153 65.6445 12.1335 65.4533V65.1984H15.6381V65.4533C14.4274 65.5808 14.4911 65.9631 14.4911 67.1738V67.8109H17.6771V67.1738C17.6771 65.9631 17.7408 65.5808 16.5302 65.4533V65.1984H20.0347V65.4533C19.0152 65.6445 18.8878 65.5808 18.8878 67.1738V69.2765C18.8878 70.8695 19.0152 70.8058 20.0347 70.9969V71.2518H16.5302V70.9969C17.7408 70.8695 17.6771 70.4872 17.6771 69.2765V68.3207H14.4911V69.2765Z" fill="#211D51"/>
<path d="M22.7747 69.5314C22.7747 70.4234 22.7747 70.8695 23.9853 70.8695C25.1323 70.8695 25.642 70.2323 25.8969 69.2128H26.1518C26.1518 69.9137 26.0244 70.5509 25.8332 71.2518H20.417V70.9969C21.4366 70.8058 21.564 70.8695 21.564 69.2765V67.1738C21.564 65.5808 21.4366 65.6445 20.417 65.4533V65.1984H25.642L25.4509 66.7277H25.196C25.1323 65.5808 24.3677 65.5808 23.4119 65.5808H22.7747V67.8109H23.5393C24.3039 67.8109 24.6863 67.7472 24.9411 66.9189H25.196C25.1323 67.6835 25.1323 68.3844 25.1323 69.1491H24.8774C24.6863 68.257 24.3039 68.3207 23.5393 68.3207H22.7747V69.5314Z" fill="#211D51"/>
<path d="M37.685 64.9436L35.0088 71.3155H34.6902L32.0777 65.1984L31.8228 69.6588C31.7591 70.6783 32.2689 70.6783 33.1609 70.9332V71.2518H29.7201V70.9332C30.5485 70.6783 30.8033 70.6783 30.9308 69.7225L31.2494 67.3012L31.568 64.8161C31.6317 63.9878 31.0582 63.9878 30.3573 63.7966V63.478H33.3521V63.7329C33.0335 64.1152 33.5433 65.0073 33.6707 65.3896L35.2637 69.0853L37.1116 64.8161C37.239 64.4975 37.4939 64.0515 37.1753 63.7329V63.478H40.425V63.7966C39.278 64.0515 39.0869 64.2427 39.1506 65.3259L39.3417 69.0216C39.4055 70.296 39.4055 70.6783 40.8073 70.9332V71.2518H36.4106V70.9332C37.9399 70.742 37.8762 70.3597 37.8125 68.9579L37.685 64.9436Z" fill="#211D51"/>
<path d="M44.5667 69.2765C44.5667 70.4872 44.503 70.8695 45.8411 70.9969V71.2518H42.1454V70.9969C43.2924 70.8058 43.4198 70.8695 43.4198 69.2765V68.8942L42.464 66.9189C42.0817 66.0905 41.9542 65.7082 40.9985 65.517V65.2622H43.9933V65.517C43.3561 65.6445 43.1012 65.5808 43.611 66.664L44.3756 68.257L44.8216 67.3012C45.5863 65.7719 45.3951 65.7082 44.6305 65.517V65.2622H47.1792V65.517C46.4146 65.6445 46.096 65.8356 45.7137 66.5366L44.6942 68.3844L44.5667 68.703V69.2765Z" fill="#211D51"/>
<path d="M54.2521 68.1933C54.2521 70.1686 52.7866 71.3792 50.8113 71.3792C48.8997 71.3792 47.4341 70.1686 47.4341 68.257C47.4341 66.3454 48.8997 65.071 50.8113 65.071C52.6591 65.071 54.2521 66.1542 54.2521 68.1933ZM48.8997 68.1295C48.8997 69.3402 49.4731 70.9969 50.9387 70.9969C52.3405 70.9969 52.7866 69.5951 52.7866 68.4481C52.7866 67.1738 52.2131 65.517 50.6838 65.517C49.3457 65.517 48.8997 66.9826 48.8997 68.1295Z" fill="#211D51"/>
<path d="M59.0311 67.0463H58.7762C58.585 66.3454 58.3939 65.517 57.5018 65.517C56.992 65.517 56.6097 65.8994 56.6097 66.4091C56.6097 67.8109 59.4771 67.7472 59.4771 69.5951C59.4771 70.8695 58.2664 71.3792 57.1195 71.3792C56.4823 71.3792 55.9088 71.1881 55.3353 70.9332L55.0167 69.2128L55.2716 69.1491C55.5902 70.0411 56.2274 70.9969 57.2469 70.9969C57.8204 70.9969 58.2664 70.6146 58.2664 70.0411C58.2664 68.5756 55.3991 68.703 55.3991 66.9189C55.3991 65.7719 56.546 65.071 57.5655 65.071C58.0753 65.071 58.585 65.1984 59.0311 65.4533V67.0463Z" fill="#211D51"/>
<path d="M62.3445 69.2765C62.3445 70.8695 62.4719 70.8058 63.4914 70.9969V71.2518H59.9869V70.9969C61.0064 70.8058 61.1338 70.8695 61.1338 69.2765V67.1738C61.1338 65.5808 61.0064 65.6445 59.9869 65.4533V65.1984H63.4914V65.4533C62.4719 65.6445 62.3445 65.5808 62.3445 67.1738V69.2765Z" fill="#211D51"/>
<path d="M63.8738 66.9189L64.0649 64.9436H64.2561C64.3198 65.1347 64.4472 65.1984 64.5747 65.1984C64.7021 65.1984 64.8933 65.1984 65.0207 65.1984H68.7164C69.035 65.1984 69.3536 65.2622 69.4811 64.9436H69.6722L69.8634 66.9189L69.6085 66.9826C69.2262 65.7082 68.589 65.5808 67.3783 65.5808V69.2128C67.3783 70.8058 67.5058 70.742 68.7164 70.9332V71.1881H64.8933V70.9332C66.1039 70.742 66.2314 70.8058 66.2314 69.2128V65.5808C65.0207 65.5808 64.3835 65.7082 64.0012 66.9826L63.8738 66.9189Z" fill="#211D51"/>
<path d="M72.667 69.2765C72.667 70.8695 72.7945 70.8058 73.814 70.9969V71.2518H70.3094V70.9969C71.3289 70.8058 71.4564 70.8695 71.4564 69.2765V67.1738C71.4564 65.5808 71.3289 65.6445 70.3094 65.4533V65.1984H73.814V65.4533C72.7945 65.6445 72.667 65.5808 72.667 67.1738V69.2765Z" fill="#211D51"/>
<path d="M78.4018 67.0463H78.1469C77.9558 66.3454 77.7646 65.517 76.8725 65.517C76.3628 65.517 75.9805 65.8994 75.9805 66.4091C75.9805 67.8109 78.8478 67.7472 78.8478 69.5951C78.8478 70.8695 77.6372 71.3792 76.4902 71.3792C75.853 71.3792 75.2795 71.1881 74.7061 70.9332L74.3875 69.2128L74.6423 69.1491C74.9609 70.0411 75.5981 70.9969 76.6177 70.9969C77.1911 70.9969 77.6372 70.6146 77.6372 70.0411C77.6372 68.5756 74.7698 68.703 74.7698 66.9189C74.7698 65.7719 75.9167 65.071 76.9363 65.071C77.446 65.071 77.9558 65.1984 78.4018 65.4533V67.0463Z" fill="#211D51"/>
<path d="M84.4552 68.1933L84.264 68.7667C83.5631 70.742 84.0728 70.742 85.2835 70.9332V71.2518H81.7152V70.9332C82.3524 70.742 82.6073 70.742 82.8622 70.1049L83.6268 68.3844L85.4109 64.2427L85.2835 63.9241C85.7295 63.7329 86.1119 63.4143 86.3667 63.032H86.5579L88.6607 68.5756C89.4253 70.4234 89.2978 70.5509 90.5085 70.9332V71.2518H86.6216V70.9332C87.7048 70.742 87.7686 70.5509 87.1951 68.8942L86.9402 68.1933H84.4552ZM86.6853 67.4923L85.6658 64.8798L84.71 67.4923H86.6853Z" fill="#211D51"/>
<path d="M94.714 67.0463H94.4591C94.268 66.3454 94.0768 65.517 93.1847 65.517C92.675 65.517 92.2927 65.8994 92.2927 66.4091C92.2927 67.8109 95.16 67.7472 95.16 69.5951C95.16 70.8695 93.9494 71.3792 92.8024 71.3792C92.1652 71.3792 91.5917 71.1881 91.0183 70.9332L90.6997 69.2128L90.9545 69.1491C91.2731 70.0411 91.9103 70.9969 92.9299 70.9969C93.5033 70.9969 93.9494 70.6146 93.9494 70.0411C93.9494 68.5756 91.082 68.703 91.082 66.9189C91.082 65.7719 92.2289 65.071 93.2485 65.071C93.7582 65.071 94.268 65.1984 94.714 65.4533V67.0463Z" fill="#211D51"/>
<path d="M99.8753 67.0463H99.6204C99.4292 66.3454 99.2381 65.517 98.346 65.517C97.8363 65.517 97.4539 65.8994 97.4539 66.4091C97.4539 67.8109 100.321 67.7472 100.321 69.5951C100.321 70.8695 99.1106 71.3792 97.9637 71.3792C97.3265 71.3792 96.753 71.1881 96.1795 70.9332L95.8609 69.2128L96.1158 69.1491C96.4344 70.0411 97.0716 70.9969 98.0911 70.9969C98.6646 70.9969 99.1106 70.6146 99.1106 70.0411C99.1106 68.5756 96.2433 68.703 96.2433 66.9189C96.2433 65.7719 97.3902 65.071 98.4097 65.071C98.9195 65.071 99.4292 65.1984 99.8753 65.4533V67.0463Z" fill="#211D51"/>
<path d="M107.84 68.1933C107.84 70.1686 106.375 71.3792 104.399 71.3792C102.488 71.3792 101.022 70.1686 101.022 68.257C101.022 66.3454 102.488 65.071 104.399 65.071C106.247 65.071 107.84 66.1542 107.84 68.1933ZM102.488 68.1295C102.488 69.3402 103.061 70.9969 104.527 70.9969C105.929 70.9969 106.375 69.5951 106.375 68.4481C106.375 67.1738 105.801 65.517 104.272 65.517C102.934 65.517 102.488 66.9826 102.488 68.1295Z" fill="#211D51"/>
<path d="M114.467 67.2375H114.212C114.021 66.218 113.384 65.517 112.301 65.517C110.835 65.517 110.07 66.8552 110.07 68.1933C110.07 69.4677 110.899 70.9969 112.364 70.9969C113.575 70.9969 114.148 70.0411 114.594 69.0853L114.849 69.1491L114.276 70.9969C113.639 71.2518 113.001 71.3792 112.301 71.3792C110.389 71.3792 108.669 70.3597 108.669 68.3207C108.669 66.218 110.453 65.071 112.364 65.071C113.065 65.071 113.83 65.1984 114.467 65.517V67.2375Z" fill="#211D51"/>
<path d="M117.526 69.2765C117.526 70.8695 117.653 70.8058 118.673 70.9969V71.2518H115.168V70.9969C116.187 70.8058 116.315 70.8695 116.315 69.2765V67.1738C116.315 65.5808 116.187 65.6445 115.168 65.4533V65.1984H118.673V65.4533C117.653 65.6445 117.526 65.5808 117.526 67.1738V69.2765Z" fill="#211D51"/>
<path d="M120.903 68.8942L120.775 69.3402C120.266 70.8695 120.584 70.8695 121.54 70.9969V71.2518H118.8V70.9969C119.246 70.8695 119.501 70.8058 119.692 70.3597L120.266 69.0216L121.667 65.8356L121.604 65.5808C121.922 65.4533 122.241 65.1984 122.432 64.8798H122.623L124.28 69.1491C124.853 70.6146 124.79 70.6783 125.682 70.9969V71.2518H122.687V70.9969C123.515 70.8695 123.579 70.6783 123.133 69.4677L122.942 68.8942H120.903ZM122.623 68.3207L121.795 66.2817L121.03 68.3207H122.623Z" fill="#211D51"/>
<path d="M125.044 66.9189L125.236 64.9436H125.427C125.491 65.1347 125.618 65.1984 125.745 65.1984C125.873 65.1984 126.064 65.1984 126.191 65.1984H129.887C130.206 65.1984 130.524 65.2622 130.652 64.9436H130.843L131.034 66.9189L130.779 66.9826C130.397 65.7082 129.76 65.5808 128.549 65.5808V69.2128C128.549 70.8058 128.676 70.742 129.887 70.9332V71.1881H126.064V70.9332C127.275 70.742 127.402 70.8058 127.402 69.2128V65.5808C126.191 65.5808 125.554 65.7082 125.172 66.9826L125.044 66.9189Z" fill="#211D51"/>
<path d="M133.838 69.2765C133.838 70.8695 133.965 70.8058 134.985 70.9969V71.2518H131.48V70.9969C132.5 70.8058 132.627 70.8695 132.627 69.2765V67.1738C132.627 65.5808 132.5 65.6445 131.48 65.4533V65.1984H134.985V65.4533C133.965 65.6445 133.838 65.5808 133.838 67.1738V69.2765Z" fill="#211D51"/>
<path d="M142.376 68.1933C142.376 70.1686 140.911 71.3792 138.935 71.3792C137.024 71.3792 135.558 70.1686 135.558 68.257C135.558 66.3454 137.024 65.071 138.935 65.071C140.847 65.071 142.376 66.1542 142.376 68.1933ZM137.024 68.1295C137.024 69.3402 137.597 70.9969 139.063 70.9969C140.465 70.9969 140.911 69.5951 140.911 68.4481C140.911 67.1738 140.337 65.517 138.808 65.517C137.534 65.517 137.024 66.9826 137.024 68.1295Z" fill="#211D51"/>
<path d="M144.097 67.2375C144.097 66.3454 144.097 65.7082 142.95 65.517V65.2622H144.989C146.072 66.7277 147.601 68.1933 148.876 69.6588L148.812 66.8552C148.812 65.8356 148.557 65.7082 147.474 65.517V65.2622H150.15V65.517C149.385 65.5808 149.322 65.9631 149.322 67.3649V71.2518L148.939 71.443C148.047 70.3597 146.008 68.257 144.543 66.7277C144.543 67.6835 144.543 68.6393 144.606 69.5951C144.67 70.6783 144.861 70.742 145.881 70.9969V71.2518H143.013V70.9969C143.651 70.8695 144.097 70.9332 144.097 69.7225V67.2375Z" fill="#211D51"/>
<path d="M58.3935 17.2814L57.1829 37.4168C56.5457 45.1268 56.5457 46.3375 50.6835 47.2933V48.1216H68.8435V47.2933C64.5743 46.6561 61.8981 46.1463 62.153 41.2399L63.2362 20.0851L58.3935 17.2814Z" fill="#211D51"/>
<path d="M95.7332 17.2814L96.9438 37.4168C97.581 45.1268 97.581 46.3375 103.443 47.2933V48.1216H85.2194V47.2933C89.4886 46.6561 92.1649 46.1463 91.91 41.2399L90.8268 20.0851L95.7332 17.2814Z" fill="#211D51"/>
<path d="M77.0633 15.6247C79.8435 15.6247 82.0972 13.371 82.0972 10.5908C82.0972 7.81073 79.8435 5.55701 77.0633 5.55701C74.2832 5.55701 72.0295 7.81073 72.0295 10.5908C72.0295 13.371 74.2832 15.6247 77.0633 15.6247Z" fill="#211D51"/>
<path d="M102.679 8.36067L102.424 8.48811C96.7531 11.228 85.0925 17.2177 77.0638 24.0994C69.0989 17.2177 57.3745 11.228 51.7034 8.48811L51.4486 8.36067C50.8114 8.04207 50.0467 8.29695 49.7281 8.93415C49.6644 9.12531 49.6007 9.31646 49.6007 9.50762C49.6007 9.95366 49.8556 10.3997 50.3016 10.6546L50.5565 10.782C54.8894 12.8848 66.9961 19.0018 75.0885 25.8835C73.3044 27.604 71.7751 29.3881 70.6281 31.1723C69.7361 32.6378 69.2263 34.3582 69.2263 36.0787C69.2263 40.539 72.2849 44.2348 76.2355 44.7445L76.8727 44.8082L77.5736 44.7445C81.5879 44.2348 84.6464 40.539 84.6464 36.0787C84.6464 34.2945 84.1367 32.5741 83.2446 31.1723C82.1614 29.3881 80.5684 27.604 78.7842 25.8835C86.8766 19.0018 98.9833 12.8848 103.316 10.782L103.571 10.6546C104.017 10.4634 104.272 10.0174 104.272 9.50762C104.272 9.31646 104.208 9.12531 104.145 8.93415C104.017 8.29695 103.253 8.04207 102.679 8.36067ZM76.6815 42.1957C73.9416 41.8771 71.8388 39.2009 71.8388 36.0787C71.8388 34.8043 72.1574 33.5299 72.8583 32.5104C73.8778 30.8537 75.3434 29.197 77.0638 27.604C78.7842 29.2607 80.2498 30.9174 81.2693 32.5104C81.9065 33.5936 82.2888 34.8043 82.2888 36.0787C82.2888 39.2646 80.1861 41.8771 77.4461 42.1957L77.0638 42.2595L76.6815 42.1957Z" fill="#939408"/>
</svg>
