<svg width="270" height="44" viewBox="0 0 270 44" fill="none" xmlns="http://www.w3.org/2000/svg">
<path d="M135.679 15.3019C135.838 12.2364 136.937 9.73137 138.655 7.77708V5.17298H136.372C131.758 5.17298 127.852 6.94126 125.581 10.9368H125.448V5.61263H113.614V38.0818H125.451V24.9743C125.451 19.411 127.079 15.1691 133.647 15.1691C134.362 15.1739 135.031 15.215 135.679 15.3019Z" fill="#717172"/>
<path d="M225.298 15.1836C226.281 12.3137 227.876 9.75795 229.948 7.70703V5.17056H227.67C223.054 5.17056 219.153 6.93884 216.87 10.932H216.742V5.61263H204.9V38.0818H216.742V24.9743C216.742 19.411 218.375 15.1691 224.943 15.1691L225.298 15.1836Z" fill="#717172"/>
<path d="M159.717 13.9661C157.891 13.0167 155.35 12.3838 153.328 12.3838C151.97 12.3838 149.624 12.9491 149.624 14.599C149.624 16.8166 153.328 17.1306 154.966 17.4543C160.483 18.5269 164.657 21.0609 164.657 27.0663C164.657 35.6082 156.654 39.1641 148.907 39.1641C144.155 39.1641 139.481 37.833 135.442 35.427L139.735 27.3828C142.138 29.0351 146.172 30.6753 149.1 30.6753C150.598 30.6753 152.808 29.982 152.808 28.2089C152.808 25.6773 149.1 25.5444 145.387 24.5975C141.684 23.6481 137.981 21.8798 137.981 16.0556C137.981 8.07904 145.387 4.54007 152.688 4.54007C156.461 4.54007 160.237 5.10775 163.676 6.62722L159.717 13.9661Z" fill="#717172"/>
<path d="M265.447 38.0818H253.61V34.4704H253.48C251.397 37.6977 247.291 39.152 243.394 39.152C233.499 39.152 226.545 31.1126 226.545 21.8074C226.545 12.5118 233.376 4.53282 243.261 4.53282C247.097 4.53282 251.136 5.92426 253.608 8.76993V5.61263H265.442L265.447 38.0818ZM238.775 21.8774C238.775 25.9889 241.577 29.1535 246.385 29.1535C251.197 29.1535 253.987 25.9938 253.987 21.8774C253.987 17.8891 251.197 14.5362 246.385 14.5362C241.577 14.5386 238.775 17.8891 238.775 21.8774Z" fill="#717172"/>
<path d="M203.033 23.781H178.11C178.11 28.4602 180.654 30.9894 185.531 30.9894C188.068 30.9894 189.887 30.1705 191.191 28.0157H202.579C200.692 35.6758 193.208 39.1568 185.599 39.1568C174.547 39.1568 166.285 33.0765 166.285 21.8798C166.285 11.0576 173.888 4.54007 184.751 4.54007C196.329 4.54007 203.038 11.5045 203.038 22.5756L203.033 23.781ZM192.037 17.1306C191.45 14.0289 188.522 12.0045 185.338 12.0045C181.886 12.0045 179.035 13.7704 178.308 17.1306H192.037Z" fill="#717172"/>
<path d="M75.963 21.3122C75.9509 21.0319 75.9316 20.759 75.9099 20.4812V20.4715C75.6441 17.4591 74.6489 14.64 72.9603 12.0939C72.2066 10.9585 71.3442 9.92704 70.3804 9.00184C68.972 7.64664 67.3414 6.52576 65.5031 5.6392C62.7371 4.31783 59.6813 3.6511 56.4201 3.6511C56.1013 3.6511 55.7679 3.65593 55.4321 3.66801C53.142 3.77188 50.9269 4.2067 48.8445 4.97248C46.7453 5.731 44.9166 6.73351 43.4213 7.93652C43.117 8.17809 42.786 8.47522 42.4309 8.80133L42.1748 9.05257L41.8246 9.42458H41.8294L41.6651 9.58643L41.5854 9.6734L41.1675 10.113C40.8583 10.4609 40.5636 10.8088 40.2882 11.1494L40.2858 11.1445L40.2761 11.1349C39.7036 11.8306 39.1746 12.5505 38.7856 13.1979C38.5223 13.6134 38.2638 14.041 38.0174 14.4685L34.6041 21.3701L34.6089 21.375L34.4302 21.7252L34.0533 22.4886C33.3044 24.0032 32.5024 25.513 31.6062 26.7595C29.6085 28.9506 27.3498 30.0231 24.4461 30.0231C24.2432 30.0231 24.0355 30.0134 23.8229 30.0014C22.0739 29.9313 20.5738 29.5182 19.2428 28.7307C19.1002 28.6462 18.9625 28.5592 18.8297 28.4698C17.7426 27.7475 16.9092 26.8199 16.286 25.6628C15.583 24.3511 15.2714 23.0104 15.3149 21.59C15.3173 21.5513 15.3197 21.5175 15.3197 21.4861C15.4139 19.225 16.2763 17.4664 18.0132 15.9469C18.4359 15.5822 18.878 15.2729 19.3394 14.9976C19.4046 14.9589 19.4698 14.9227 19.5351 14.8889C20.825 14.1859 22.2938 13.8356 23.9775 13.8356L24.5017 13.8501C27.1759 13.9516 29.2389 14.7874 30.8839 16.418L36.0438 7.15384C34.8094 6.32767 33.4156 5.61746 31.8792 5.04012C31.8212 5.01837 31.7608 4.99422 31.7004 4.97489C31.5168 4.90967 31.3357 4.84203 31.1472 4.78164C29.5142 4.23569 27.8015 3.89991 26.0381 3.74772C25.9946 3.74048 25.9463 3.73565 25.9028 3.73081C25.6322 3.71391 25.3568 3.68009 25.0863 3.66801C24.7916 3.65593 24.4944 3.6511 24.2046 3.64868H24.0379C20.7936 3.66076 17.7788 4.32507 15.0226 5.64162C11.9353 7.12968 9.43266 9.29655 7.57742 12.0891C5.727 14.8816 4.71725 17.9809 4.57231 21.3073C4.56023 21.5924 4.55298 21.875 4.55298 22.1528C4.55057 26.8054 6.24638 30.8976 9.61867 34.3327C13.1383 37.9369 17.716 39.8791 23.2117 40.1086C23.5644 40.1231 23.9123 40.1327 24.2601 40.1327C27.3691 40.1327 30.2462 39.5796 32.8261 38.4732C33.4711 38.1978 34.0968 37.8741 34.7369 37.5141C35.0848 37.3136 35.4133 37.1011 35.7395 36.874L35.981 36.7121L36.3869 36.4343C36.8748 36.0841 37.3314 35.7048 37.7759 35.3014L37.9305 35.154C38.1914 34.9052 38.4523 34.654 38.6987 34.3955L39.6239 33.3495L39.9766 32.9074L40.1408 32.6659L40.3051 32.4291C41.6796 30.1197 46.1535 21.7156 46.1535 21.7156V21.6987L46.4192 21.1865L46.6414 20.7855C47.3009 19.5849 47.7768 18.7322 48.4073 17.836L48.4242 17.8094C49.8954 15.6764 52.4246 14.1569 55.4055 13.9008C60.406 13.4708 64.788 16.7562 65.1915 21.2397C65.5925 25.7232 61.8627 29.7067 56.8622 30.1391C55.821 30.2284 54.8089 30.1584 53.8547 29.9482L53.8305 29.9579C50.1611 29.1945 47.8251 26.518 46.6728 25.3222L41.8608 34.1708C41.8608 34.1708 43.3561 35.6782 44.3804 36.4319C45.407 37.1832 46.7332 37.9224 47.7913 38.3814C50.3592 39.4781 53.1517 40.1352 56.2365 40.1352C56.5941 40.1352 56.5216 40.1352 56.8936 40.1207C62.3844 39.8912 67.2786 37.7871 70.8079 34.1829C74.1512 30.7599 75.9654 26.8513 75.9823 22.2253V22.0876C75.9799 21.8315 75.9727 21.5731 75.963 21.3122Z" fill="#717172"/>
<path d="M94.3705 39.1786C91.8751 39.1786 89.6116 38.8887 87.58 38.3089C85.5484 37.7291 83.814 36.8136 82.3766 35.5574C80.9345 34.3013 79.8233 32.7021 79.0406 30.7623C78.2579 28.8225 77.8666 26.4841 77.8666 23.7592V5.60539H89.2855V23.6143C89.2855 25.6556 89.7735 27.134 90.747 28.0567C91.7229 28.982 92.9622 29.4433 94.4647 29.4433C96.0011 29.4433 97.2476 29.0134 98.209 28.151C99.1656 27.2886 99.6488 25.8585 99.6488 23.8486V5.60539H111.068V23.5201C111.068 26.3416 110.667 28.7404 109.867 30.714C109.068 32.69 107.939 34.3037 106.488 35.5599C105.029 36.816 103.272 37.7291 101.207 38.3113C99.1415 38.8887 96.8635 39.1786 94.3705 39.1786Z" fill="#717172"/>
</svg>
