<svg width="218" height="55" viewBox="0 0 218 55" fill="none" xmlns="http://www.w3.org/2000/svg">
<path d="M59.1539 5.89227C59.1531 5.80478 59.1444 5.71754 59.1278 5.63162C59.1278 5.60556 59.1148 5.5821 59.107 5.55603C59.0992 5.52997 59.0731 5.43874 59.0522 5.38139L59.0131 5.29798C58.9889 5.24823 58.961 5.20032 58.9297 5.15462C58.9115 5.12595 58.8932 5.09728 58.8724 5.06861L58.8359 5.01908C58.815 4.99563 58.7916 4.97738 58.7707 4.95653L58.7186 4.89397L58.6769 4.8653C58.6387 4.83263 58.5987 4.80217 58.557 4.77407L58.4553 4.70891C58.4105 4.68542 58.3644 4.66453 58.3172 4.64635L58.2077 4.60204C58.1582 4.5864 58.1061 4.57858 58.0565 4.56815L57.9445 4.54469C57.8828 4.54077 57.821 4.54077 57.7594 4.54469H57.6551C56.9566 4.60725 47.7268 5.48826 37.3528 10.1149C31.1232 12.8856 26.3011 17.1395 23.2671 22.303L22.4851 22.6419C11.3787 27.5995 4.74243 37.2359 4.74243 48.4205V48.6082C4.74243 49.1338 5.04789 49.6115 5.52439 49.8333C5.70352 49.9154 5.89818 49.9584 6.09522 49.9584H42.9647C43.0363 49.9584 43.1079 49.9527 43.1784 49.9402L43.2723 49.9167C43.3166 49.9037 43.3609 49.8958 43.4052 49.8802C43.4495 49.8646 43.4704 49.8489 43.5042 49.8333C43.5381 49.8176 43.5824 49.802 43.6189 49.7812C43.6878 49.7405 43.7531 49.6943 43.8144 49.643L58.6717 37.116C58.9792 36.8575 59.1552 36.4751 59.1513 36.0734V5.89227H59.1539ZM45.7198 44.4977L44.294 45.6993V19.0475L56.4509 8.80117V35.453L45.7198 44.4977ZM21.4477 37.4314H41.591V47.2554H9.79129L21.4477 37.4314ZM38.4502 12.5859C43.1982 10.4953 48.1649 8.94172 53.2579 7.95405L42.3913 17.116C37.3753 17.728 32.4419 18.8897 27.68 20.5801C30.3699 17.2959 33.9982 14.572 38.4502 12.5859ZM25.0969 24.4665C30.3886 22.2882 35.9283 20.7694 41.591 19.9441V34.7284H22.334C22.4728 31.1437 23.4172 27.6363 25.0969 24.4665ZM21.3878 26.192C20.2489 29.1472 19.6435 32.281 19.5997 35.4478L7.60962 45.5664C8.5167 37.3454 13.3987 30.4693 21.3878 26.192Z" fill="#3C72FF"/>
<path d="M69.5254 42.188V11.582H82.1932C85.467 11.582 88.0987 12.4309 90.0884 14.1286C92.078 15.8263 93.072 18.3277 93.0702 21.6328C93.1638 25.2336 91.3033 28.6035 88.2064 30.4429L94.7671 42.1932H86.0482L80.8638 31.7671H77.4649V42.1932L69.5254 42.188ZM77.4649 25.3967H81.4112C82.378 25.4338 83.3184 25.0773 84.0177 24.4088C84.708 23.709 85.0746 22.7528 85.0291 21.771C85.0291 20.6085 84.7076 19.6901 84.0647 19.0159C83.4217 18.3417 82.5251 18.0037 81.3747 18.0019H77.4649V25.3967ZM95.7784 31.3917C95.7523 29.3573 96.2496 27.3504 97.2225 25.5635C98.1728 23.8346 99.5781 22.3987 101.286 21.4113C103.114 20.3643 105.191 19.8328 107.297 19.8734C109.592 19.8734 111.604 20.386 113.333 21.4113C115.032 22.407 116.428 23.8459 117.371 25.5739C118.344 27.357 118.842 29.3605 118.818 31.3917C118.844 33.4265 118.346 35.4339 117.371 37.2199C116.426 38.9449 115.031 40.3809 113.333 41.3748C111.596 42.4 109.584 42.9126 107.297 42.9126C105.191 42.9532 103.114 42.4217 101.286 41.3748C99.5793 40.3893 98.1741 38.9562 97.2225 37.2304C96.2475 35.4405 95.7502 33.4297 95.7784 31.3917ZM107.297 36.12C108.476 36.1671 109.611 35.6669 110.372 34.7646C111.153 33.8175 111.561 32.6182 111.519 31.3917C111.56 30.1653 111.152 28.9662 110.372 28.0189C109.583 27.157 108.467 26.6663 107.298 26.6663C106.129 26.6663 105.014 27.157 104.224 28.0189C103.442 28.9652 103.033 30.1648 103.074 31.3917C103.029 32.624 103.438 33.83 104.224 34.7802C104.984 35.6808 106.119 36.1792 107.297 36.1304V36.12ZM122.396 42.1776H130.153V11.582H122.396V42.1776ZM134.647 42.1776H142.404V11.582H134.65L134.647 42.1776ZM146.898 41.1662V11.582H154.655V22.3627C155.17 21.7767 155.803 21.3068 156.513 20.9838C157.158 20.6931 157.834 20.4779 158.528 20.3426C159.043 20.2346 159.566 20.1735 160.092 20.1601C162.11 20.1601 163.815 20.6641 165.209 21.6719C166.603 22.686 167.697 24.0575 168.376 25.6417C169.097 27.2999 169.464 29.0907 169.452 30.8991C169.452 34.6925 168.351 37.6465 166.15 39.7613C163.948 41.8761 160.705 42.9317 156.42 42.9283C154.652 42.9317 152.89 42.7393 151.165 42.3548C149.723 42.0432 148.3 41.6498 146.903 41.1767L146.898 41.1662ZM154.655 30.933V36.12C155.037 36.255 155.428 36.3621 155.825 36.4406C156.332 36.5381 156.847 36.5844 157.363 36.5787C158.526 36.6209 159.65 36.1547 160.441 35.3015C161.239 34.4431 161.637 33.0816 161.635 31.2171C161.632 30.5218 161.515 29.8317 161.291 29.1736C161.082 28.5182 160.711 27.9264 160.212 27.4532C159.685 26.9799 158.993 26.7327 158.286 26.7651C157 26.7651 156.075 27.163 155.51 27.9589C154.917 28.8383 154.619 29.8836 154.66 30.9434L154.655 30.933ZM185.495 42.1776L185.219 40.1575C184.404 41.0899 183.397 41.8343 182.266 42.3392C181.082 42.7683 179.828 42.9708 178.57 42.9361C177.552 42.923 176.543 42.7361 175.588 42.3835C174.526 42.0007 173.6 41.3146 172.924 40.4103C172.189 39.4546 171.822 38.1201 171.822 36.4067C171.822 34.669 172.296 33.2154 173.245 32.046C174.249 30.8429 175.558 29.9311 177.035 29.4055C178.672 28.8032 180.405 28.5046 182.149 28.5245C182.852 28.5245 183.419 28.5402 183.848 28.5714C184.276 28.6001 184.734 28.647 185.224 28.7096V28.2821C185.224 27.5193 185.033 26.9458 184.651 26.5618C184.265 26.1772 183.781 25.9066 183.251 25.7798C182.727 25.6454 182.187 25.5763 181.646 25.5739C180.425 25.5529 179.208 25.729 178.043 26.0952C177.14 26.3731 176.282 26.7823 175.497 27.3099L172.559 22.8657C173.477 22.1324 174.769 21.4599 176.435 20.8483C178.102 20.2366 180.205 19.9282 182.746 19.923C185.745 19.923 188.17 20.6962 190.02 22.2428C191.871 23.7893 192.796 26.0909 192.796 29.1475V42.1802L185.495 42.1776ZM185.219 34.2824V32.8618C184.524 32.7224 183.816 32.6604 183.108 32.6767C181.822 32.6767 180.874 32.9296 180.264 33.4352C179.687 33.8643 179.347 34.5408 179.347 35.2598C179.347 36.8533 180.203 37.6491 181.917 37.6474C182.721 37.6444 183.504 37.3962 184.164 36.9358C184.871 36.4597 185.224 35.5787 185.224 34.2928L185.219 34.2824ZM197.209 42.1776V20.6163H204.69L204.951 23.3245C205.567 22.4642 206.338 21.7254 207.224 21.1454C208.204 20.527 209.347 20.2157 210.505 20.2514C211.034 20.2456 211.563 20.276 212.087 20.3426C212.485 20.3889 212.878 20.4763 213.258 20.6033L212.257 27.2213C211.52 27.0432 210.765 26.9556 210.007 26.9606C206.641 26.9606 204.958 28.8121 204.958 32.5151V42.1984L197.209 42.1776Z" fill="#343F55"/>
</svg>
