<svg  viewBox="95 25 150 32" fill="none" xmlns="http://www.w3.org/2000/svg"><defs>
<clipPath id="clip0_0_2842">
<rect width="50" height="34.8749" fill="white" transform="translate(20 24)"/>
</clipPath>
<clipPath id="clip1_0_2842">
<rect width="100" height="15.814" fill="white" transform="translate(111 33)"/>
</clipPath>
</defs><g clip-path="url(#clip0_0_2842)">
<path d="M64.1003 43.9003C63.6241 43.902 63.1498 43.9608 62.6876 44.0755C61.8264 40.6891 60.0092 37.622 57.4528 35.24C54.8964 32.8581 51.7087 31.2618 48.27 30.6417C47.9555 30.5856 47.6725 30.5429 47.3513 30.5025C47.4052 28.782 47.4838 26.7942 50.0152 25.0063L49.6154 23.9978C49.6154 23.9978 44.674 25.5296 44.1147 29.75C43.8699 28.6023 41.5699 27.1648 40.4311 26.893L39.8651 27.8072C39.8651 27.8072 41.3745 28.5618 41.7429 30.644C38.3044 31.262 35.1162 32.8561 32.5587 35.236C30.0011 37.616 28.1821 40.6813 27.3185 44.0665C26.4162 43.8432 25.4738 43.836 24.5681 44.0455C23.6624 44.255 22.819 44.6753 22.1063 45.2722C21.3937 45.8691 20.832 46.6257 20.4669 47.4806C20.1018 48.3355 19.9436 49.2645 20.0052 50.1921C20.0668 51.1197 20.3464 52.0196 20.8213 52.8187C21.2963 53.6178 21.9531 54.2936 22.7384 54.791C23.5237 55.2885 24.4153 55.5935 25.3408 55.6814C26.2662 55.7694 27.1993 55.6376 28.0642 55.2969C28.5681 56.5546 29.2115 57.7518 29.9824 58.866L34.8856 55.562L34.8429 55.5081C33.5469 53.8415 32.754 51.3888 32.6193 48.9473C32.4733 46.252 33.1291 43.5791 34.8496 42.0069C38.3962 38.9881 42.2617 40.365 44.674 43.2579H45.3231C47.7421 40.365 51.6121 38.9904 55.1475 42.0069C56.8657 43.5791 57.5238 46.2542 57.3778 48.9473C57.2453 51.3888 56.4524 53.8415 55.1542 55.5081L55.1115 55.562L60.0147 58.866C60.7872 57.752 61.4321 56.5548 61.9374 55.2969C62.7459 55.6165 63.615 55.7535 64.4826 55.6983C65.3502 55.6431 66.1949 55.397 66.9564 54.9776C67.7179 54.5581 68.3774 53.9758 68.8878 53.272C69.3982 52.5682 69.7469 51.7604 69.909 50.9063C70.0711 50.0522 70.0426 49.1728 69.8256 48.331C69.6085 47.4892 69.2082 46.7056 68.6534 46.0364C68.0985 45.3671 67.4027 44.8287 66.6156 44.4594C65.8286 44.0902 64.9697 43.8993 64.1003 43.9003ZM25.7979 51.537C25.3357 51.537 24.8923 51.3534 24.5655 51.0265C24.2386 50.6996 24.055 50.2563 24.055 49.794C24.055 49.3318 24.2386 48.8884 24.5655 48.5616C24.8923 48.2347 25.3357 48.0511 25.7979 48.0511C26.1462 48.0524 26.4863 48.1572 26.775 48.3521C26.7897 49.2673 26.852 50.1812 26.9614 51.09C26.6419 51.383 26.2247 51.5463 25.7912 51.5482L25.7979 51.537ZM64.2059 51.537C63.776 51.5359 63.3616 51.3759 63.0424 51.0878C63.1519 50.179 63.2141 49.2651 63.2289 48.3498C63.4908 48.1721 63.7963 48.0693 64.1124 48.0523C64.4285 48.0352 64.7432 48.1048 65.0228 48.2533C65.3023 48.4018 65.536 48.6238 65.6988 48.8953C65.8616 49.1668 65.9473 49.4775 65.9466 49.794C65.9487 50.0237 65.9053 50.2514 65.8188 50.4642C65.7324 50.6769 65.6047 50.8704 65.443 51.0335C65.2814 51.1966 65.089 51.3261 64.8771 51.4144C64.6651 51.5028 64.4378 51.5482 64.2082 51.5482L64.2059 51.537Z" fill="#00BF6F"/>
</g><g clip-path="url(#clip1_0_2842)">
<path fill-rule="evenodd" clip-rule="evenodd" d="M133.9 44.3456L134.732 43.3512C135.484 44.0066 136.237 44.3791 137.214 44.3791C138.068 44.3791 138.607 43.9838 138.607 43.3852V43.3624C138.607 42.7982 138.292 42.4926 136.832 42.154C135.158 41.7475 134.215 41.2507 134.215 39.7931V39.7703C134.215 38.4154 135.338 37.4773 136.899 37.4773C138.046 37.4773 138.955 37.8275 139.753 38.4717L139.012 39.5219C138.304 38.9917 137.596 38.7089 136.877 38.7089C136.068 38.7089 135.597 39.1266 135.597 39.6461V39.6689C135.597 40.2791 135.956 40.5503 137.461 40.9117C139.124 41.3177 139.989 41.9163 139.989 43.227V43.2503C139.989 44.7293 138.832 45.6107 137.181 45.6107C135.979 45.6107 134.844 45.1926 133.9 44.3456ZM140.896 43.3289V39.5335H142.256V42.9224C142.256 43.8479 142.717 44.3791 143.526 44.3791C144.312 44.3791 144.863 43.8256 144.863 42.9V39.5335H146.222V45.4977H144.863V44.8828C144.385 45.3442 143.93 45.6219 143.009 45.6219C141.672 45.6219 140.897 44.7182 140.897 43.3289H140.896ZM147.675 39.5335H149.034V40.5275C149.405 39.6349 150.09 39.3749 151.135 39.4205V40.6321H151.056C149.865 40.6321 149.034 41.4321 149.034 43.2275V45.4972H147.675V39.5335ZM151.62 39.5335H153.08L154.676 43.6833L156.282 39.5335H157.709L155.282 45.5428H154.058L151.62 39.5335ZM162.111 42.0977C162.021 41.2163 161.505 40.5275 160.606 40.5275C159.774 40.5275 159.19 41.1712 159.066 42.0977H162.111ZM157.718 42.5382V42.5149C157.718 40.8098 158.921 39.4093 160.617 39.4093C162.504 39.4093 163.459 40.9005 163.459 42.6168C163.459 42.7414 163.448 42.8656 163.437 43.0014H159.078C159.224 43.9726 159.909 44.5149 160.785 44.5149C161.448 44.5149 161.92 44.2666 162.392 43.8033L163.19 44.5149C162.628 45.1926 161.852 45.6331 160.763 45.6331C159.044 45.6331 157.718 44.3791 157.718 42.5382ZM170.664 37.5908H172.135L174.528 41.6242L176.921 37.5908H178.392V45.4977H177.011V39.8275L174.528 43.8493H174.483L172.023 39.8493V45.4977H170.664V37.5908ZM184.332 42.5493V42.5266C184.332 41.4763 183.578 40.6066 182.512 40.6066C181.422 40.6066 180.725 41.4647 180.725 42.5042V42.5266C180.725 43.5661 181.478 44.4475 182.534 44.4475C183.635 44.4475 184.332 43.5772 184.332 42.5493ZM179.366 42.5498V42.5266C179.366 40.821 180.714 39.4093 182.534 39.4093C184.354 39.4093 185.691 40.7986 185.691 42.5042V42.5266C185.691 44.2214 184.342 45.6326 182.512 45.6326C180.703 45.6326 179.366 44.2442 179.366 42.5498ZM193.294 37.2512H194.654V42.1768L197.114 39.5335H198.765L196.407 41.9619L198.844 45.4977H197.272L195.486 42.9224L194.654 43.7921V45.4977H193.294V37.2512Z" fill="#00BF6F"/>
<path fill-rule="evenodd" clip-rule="evenodd" d="M203.126 42.0976C203.036 41.2162 202.52 40.5273 201.621 40.5273C200.789 40.5273 200.206 41.171 200.082 42.0976H203.126ZM198.734 42.538V42.5148C198.734 40.8096 199.936 39.4092 201.632 39.4092C203.519 39.4092 204.474 40.9003 204.474 42.6166C204.474 42.7413 204.463 42.8655 204.452 43.0013H200.093C200.239 43.9724 200.925 44.5148 201.801 44.5148C202.464 44.5148 202.935 44.2664 203.407 43.8031L204.205 44.5148C203.643 45.1924 202.868 45.6329 201.778 45.6329C200.06 45.6329 198.734 44.3789 198.734 42.538ZM168.233 39.5334L166.592 43.6003L164.961 39.5334H163.545L165.882 45.3594L164.662 48.3817H166.078L169.648 39.5334H168.233Z" fill="#00BF6F"/>
<path fill-rule="evenodd" clip-rule="evenodd" d="M209.249 39.5335L207.608 43.6005L205.977 39.5335H204.561L206.898 45.3595L205.679 48.3819H207.094L210.665 39.5335H209.249ZM191.908 41.7023V45.4977H190.549V42.1088C190.549 41.1828 190.088 40.6521 189.28 40.6521C188.493 40.6521 187.943 41.2056 187.943 42.1312V45.4977H186.583V39.5335H187.943V40.1484C188.42 39.687 188.875 39.4088 189.796 39.4088C191.133 39.4088 191.908 40.3135 191.908 41.7023ZM128.7 44.0907C128.521 44.0907 128.358 44.0219 128.235 43.9112C128.277 43.5484 128.305 43.1819 128.31 42.8088C128.421 42.7335 128.556 42.6879 128.7 42.6879C129.084 42.6879 129.398 43.0028 129.398 43.3907C129.398 43.4825 129.381 43.5735 129.346 43.6584C129.311 43.7433 129.259 43.8205 129.195 43.8855C129.13 43.9506 129.053 44.0021 128.968 44.0373C128.883 44.0726 128.792 44.0907 128.7 44.0907ZM113.319 44.0907C113.227 44.0907 113.136 44.0726 113.052 44.0373C112.967 44.0021 112.89 43.9506 112.825 43.8855C112.76 43.8205 112.709 43.7433 112.674 43.6584C112.639 43.5735 112.621 43.4825 112.621 43.3907C112.621 43.0028 112.935 42.6874 113.319 42.6874C113.463 42.6874 113.598 42.734 113.71 42.8088C113.714 43.1819 113.742 43.5484 113.784 43.9112C113.657 44.0265 113.491 44.0904 113.319 44.0907ZM128.655 41.0116C128.459 41.0116 128.27 41.0386 128.089 41.0828C127.394 38.3191 125.137 36.1805 122.316 35.6749C122.191 35.6516 122.077 35.6353 121.949 35.6191C121.97 34.9265 122.002 34.126 123.015 33.406L122.855 33C122.855 33 120.881 33.6167 120.652 35.3153C120.553 34.853 119.633 34.2749 119.177 34.1651L118.951 34.5326C118.951 34.5326 119.555 34.8367 119.702 35.6749C116.882 36.1814 114.625 38.3195 113.93 41.0828C113.745 41.0366 113.555 41.0128 113.364 41.0121C112.061 41.0121 111 42.0763 111 43.3907C111 44.7023 112.061 45.7688 113.364 45.7688C113.67 45.7688 113.961 45.7074 114.228 45.6023C114.43 46.1086 114.688 46.5906 114.997 47.0395L116.96 45.7093L116.943 45.687C116.424 45.0163 116.106 44.0284 116.053 43.0451C115.994 41.9614 116.257 40.8842 116.946 40.2512C118.366 39.0363 119.911 39.5898 120.88 40.7549H121.14C122.108 39.5898 123.654 39.0363 125.074 40.2512C125.762 40.8842 126.026 41.9614 125.967 43.0456C125.913 44.0284 125.596 45.0163 125.077 45.6874L125.06 45.7088L127.023 47.0395C127.332 46.5906 127.589 46.1085 127.791 45.6023C128.066 45.7115 128.359 45.768 128.655 45.7688C129.959 45.7688 131.02 44.7023 131.02 43.3907C131.02 42.0758 129.959 41.0116 128.655 41.0116Z" fill="#00BF6F"/>
</g></svg>