<svg width="172" height="69" viewBox="0 0 172 69" fill="none" xmlns="http://www.w3.org/2000/svg">
<path d="M167.7 18.2508V56.9938L162.339 62.2276V24.3143L167.7 18.2508Z" fill="#E79225"/>
<path d="M132.562 18.2827L127.009 24.3143L127.296 24.6973L162.114 24.5696L162.433 24.3143L167.699 18.2508L132.562 18.2827Z" fill="#FFF16D"/>
<path d="M162.433 24.3148H127.009V62.2601H162.433V24.3148Z" fill="url(#paint0_linear_0_10430)"/>
<path d="M157.041 37.9736C156.339 36.2184 155.285 34.6227 153.913 33.2504C152.605 31.91 151.137 30.8888 149.477 30.2186C147.85 29.5484 146.094 29.1974 144.179 29.1974C142.265 29.1974 140.477 29.5484 138.85 30.2186C137.19 30.8888 135.722 31.91 134.414 33.2504C133.042 34.6227 132.02 36.2184 131.318 37.9736C130.616 39.7289 130.297 41.6437 130.297 43.75C130.297 45.7924 130.648 47.7072 131.35 49.4944C132.052 51.2816 133.074 52.8772 134.446 54.2814C135.722 55.5899 137.19 56.5792 138.818 57.2494C140.446 57.9196 142.265 58.2706 144.211 58.2706C146.094 58.2706 147.85 57.9196 149.477 57.2494C151.105 56.5792 152.605 55.5899 153.913 54.2814C155.285 52.8772 156.339 51.2816 157.041 49.5263C157.743 47.7711 158.094 45.8243 158.094 43.7819C158.094 41.6437 157.743 39.7289 157.041 37.9736ZM149.732 50.4837C148.36 52.1113 146.541 52.9411 144.179 52.9411C141.818 52.9411 139.967 52.1113 138.595 50.4837C137.222 48.8561 136.552 46.5903 136.552 43.718C136.552 40.782 137.254 38.5161 138.595 36.8566C139.967 35.1971 141.786 34.3993 144.179 34.3993C146.541 34.3993 148.36 35.229 149.732 36.8566C151.073 38.5161 151.775 40.782 151.775 43.718C151.775 46.5903 151.105 48.8561 149.732 50.4837Z" fill="white"/>
<path d="M123.529 15.0909V15.2824L128.061 50.1001L125.412 57.4402L125.061 57.1849L120.402 23.8033L120.498 23.3565L123.402 15.2824L123.529 15.0909Z" fill="#009ADA"/>
<path d="M88.6454 19.9418L123.527 15.0909L120.591 23.4523L120.176 23.899L87.5604 28.6861L87.7199 22.7182L88.6454 19.9418Z" fill="#91C9ED"/>
<path d="M120.591 23.4525L125.41 57.4404L91.0394 62.2593L86.4119 29.4203L88.4225 27.8565L120.591 23.4525Z" fill="url(#paint1_linear_0_10430)"/>
<path d="M114.75 29.9627C114.59 28.9095 114.239 28.1117 113.665 27.5692C113.186 27.1543 112.612 26.9309 111.941 26.9309C111.782 26.9309 111.59 26.9309 111.399 26.9628C110.505 27.0905 109.835 27.5054 109.42 28.1755C109.101 28.6542 108.974 29.2606 108.974 29.9627C108.974 30.218 109.005 30.5052 109.037 30.7924L110.282 39.6325L100.389 41.1005L99.1441 32.2605C98.9846 31.2392 98.6335 30.4414 98.0591 29.8989C97.5804 29.4521 97.0059 29.2287 96.3677 29.2287C96.2081 29.2287 96.0485 29.2287 95.889 29.2606C94.9635 29.3883 94.2614 29.8031 93.8146 30.4733C93.4955 30.952 93.3678 31.5584 93.3678 32.2605C93.3678 32.5158 93.3997 32.803 93.4316 33.1221L96.8145 56.1318C96.974 57.1849 97.3251 57.9828 97.9633 58.5253C98.4421 58.9402 99.0165 59.1317 99.7186 59.1317C99.9101 59.1317 100.102 59.1317 100.293 59.0998C101.155 58.9721 101.793 58.5572 102.208 57.887C102.495 57.4083 102.623 56.8339 102.623 56.1637C102.623 55.9084 102.591 55.6212 102.559 55.334L101.187 46.2386L111.08 44.7706L112.452 53.8659C112.612 54.9191 112.963 55.7169 113.569 56.2275C114.048 56.6424 114.622 56.8658 115.292 56.8658C115.452 56.8658 115.643 56.8658 115.835 56.8339C116.729 56.7062 117.399 56.2914 117.814 55.6212C118.101 55.1425 118.26 54.568 118.26 53.8659C118.26 53.6106 118.228 53.3234 118.197 53.0362L114.75 29.9627Z" fill="white"/>
<path d="M55.9993 6.21973L43.585 35.7078L45.2764 48.6647L45.3721 48.6328L59.3183 17.2618L59.2545 16.5916L56.2546 6.6346L55.9993 6.21973Z" fill="#66BF6B"/>
<path d="M55.9998 6.21973L59.223 17.0384L59.2869 17.2618L89.9877 31.0165L90.0834 30.9527L87.4665 20.6127L55.9998 6.21973Z" fill="#98D0A0"/>
<path d="M59.2234 17.0383L90.0838 30.9526L76.1376 62.5789L45.2772 48.6646L59.2234 17.0383Z" fill="url(#paint2_linear_0_10430)"/>
<path d="M80.7306 33.5059C80.0604 31.7188 79.135 30.1869 77.9222 28.9104C76.7095 27.6339 75.2415 26.6126 73.5182 25.8786C71.7948 25.1446 70.0715 24.7935 68.3163 24.7935H68.2205C66.4334 24.7935 64.6781 25.2084 62.9548 25.9743C61.1357 26.7722 59.572 27.8572 58.2316 29.2934C56.8912 30.6976 55.8062 32.4209 54.9764 34.3995C54.1467 36.3462 53.6999 38.3249 53.6041 40.2716V40.9418C53.6041 42.6651 53.8913 44.3565 54.4977 46.0161C55.136 47.7713 56.0615 49.2712 57.2742 50.5478C58.4869 51.8243 59.9868 52.8455 61.774 53.5796C63.4654 54.3136 65.1887 54.6646 66.944 54.6646H66.9759C68.7311 54.6646 70.4864 54.2817 72.2097 53.5476C74.0288 52.7498 75.6245 51.6328 76.9648 50.1967C78.3052 48.7925 79.4222 47.1011 80.2519 45.1225C81.0817 43.1438 81.5285 41.1971 81.6242 39.2504V38.6759C81.6561 36.9207 81.3689 35.1974 80.7306 33.5059ZM74.5713 42.697C73.4224 45.4416 71.8587 47.3245 69.9758 48.3457C68.9545 48.8883 67.9014 49.1755 66.8482 49.1755C65.9228 49.1755 64.9334 48.9521 63.9441 48.5372C61.774 47.6117 60.4336 46.1437 59.8592 44.0374C59.6677 43.3353 59.572 42.6013 59.572 41.8354C59.572 40.3035 59.9549 38.6121 60.7208 36.793C61.9016 33.9846 63.4654 32.0698 65.3483 31.0167C66.3695 30.4422 67.4227 30.1869 68.4758 30.1869C69.4332 30.1869 70.3906 30.4103 71.4119 30.8252C73.5501 31.7507 74.8905 33.2187 75.4649 35.325C75.6564 35.9952 75.7521 36.7292 75.7521 37.4951C75.7521 39.0908 75.3692 40.8141 74.5713 42.697Z" fill="white"/>
<path d="M41.1277 11.2302L46.17 44.9948L43.8722 56.8666L43.5531 56.4517L38.6384 23.8361V23.1978L40.8085 11.8047L41.1277 11.2302Z" fill="#760D16"/>
<path d="M4.29993 28.687L6.69344 16.7513L41.1282 11.2303L38.7985 23.3893V24.1872L4.7148 29.0061L4.29993 28.687Z" fill="#EF463E"/>
<path d="M38.7985 23.3894L43.8727 56.8667L9.78906 62.1963L4.29993 28.6871L38.7985 23.3894Z" fill="url(#paint3_linear_0_10430)"/>
<path d="M35.1284 51.5371C34.8731 51.218 34.4901 50.9946 34.0433 50.835C33.5965 50.6755 33.054 50.6116 32.3838 50.6116C31.7774 50.6116 31.0754 50.6755 30.3094 50.8031L21.3098 52.335C21.4055 51.6329 21.7566 50.7393 22.363 49.6223C23.0331 48.3777 24.0544 46.8778 25.3628 45.1544C25.8096 44.5481 26.1607 44.1013 26.416 43.7821C26.5755 43.5587 26.8309 43.2715 27.15 42.8566C29.2244 40.144 30.469 37.942 30.9796 36.2186C31.2668 35.2293 31.4264 34.24 31.4902 33.2507C31.5221 32.9634 31.5221 32.7081 31.5221 32.4528C31.5221 31.7507 31.4583 31.0486 31.3307 30.3465C31.2349 29.7083 31.0753 29.1977 30.852 28.7828C30.6286 28.3679 30.3733 28.0488 30.0541 27.8573C29.7031 27.6339 29.1605 27.5381 28.4904 27.5381C27.9478 27.5381 27.2776 27.602 26.4798 27.7296L16.076 29.5168C14.8314 29.7402 13.874 30.0912 13.2995 30.6657C12.8208 31.1125 12.5974 31.6869 12.5974 32.3252C12.5974 32.4847 12.5974 32.6762 12.6293 32.8677C12.7889 33.7613 13.2357 34.3996 13.9697 34.7187C14.4165 34.9102 14.9271 35.0059 15.5654 35.0059C15.9802 35.0059 16.459 34.974 16.9696 34.8783L25.6501 33.3464C25.6501 33.506 25.682 33.6655 25.682 33.7932C25.682 34.3357 25.5862 34.8783 25.3947 35.3889C25.1394 36.1229 24.5012 37.1441 23.448 38.4526C23.1608 38.8036 22.714 39.3781 22.1076 40.1121C19.746 42.9524 18.0865 45.3778 17.0653 47.3884C16.3313 48.7926 15.8526 50.1329 15.5654 51.5052C15.4058 52.3031 15.3101 53.0371 15.3101 53.7711C15.3101 54.2817 15.342 54.7923 15.4377 55.271C15.5654 55.9731 15.7249 56.5476 15.9483 56.9943C16.1717 57.4411 16.4909 57.7922 16.8419 57.9837C17.193 58.1751 17.6717 58.239 18.3738 58.239C19.2354 58.239 20.4162 58.1113 21.9162 57.856L31.3626 56.2284C33.0221 55.9412 34.2029 55.5263 34.8731 54.9838C35.4156 54.537 35.7028 53.9306 35.7028 53.2285C35.7028 53.0371 35.6709 52.8456 35.639 52.6541C35.5752 52.2392 35.4156 51.8563 35.1284 51.5371Z" fill="white"/>
<defs>
<linearGradient id="paint0_linear_0_10430" x1="144.72" y1="24.8579" x2="144.72" y2="61.1146" gradientUnits="userSpaceOnUse">
<stop offset="0.005618" stop-color="#FFE513"/>
<stop offset="1" stop-color="#FDB924"/>
</linearGradient>
<linearGradient id="paint1_linear_0_10430" x1="88.1717" y1="28.6891" x2="123.584" y2="57.4097" gradientUnits="userSpaceOnUse">
<stop offset="0.005618" stop-color="#008CD2"/>
<stop offset="1" stop-color="#00649D"/>
</linearGradient>
<linearGradient id="paint2_linear_0_10430" x1="67.6813" y1="29.6889" x2="67.6813" y2="61.4535" gradientUnits="userSpaceOnUse">
<stop stop-color="#26A146"/>
<stop offset="1" stop-color="#008A52"/>
</linearGradient>
<linearGradient id="paint3_linear_0_10430" x1="21.6066" y1="26.5746" x2="26.8673" y2="59.5891" gradientUnits="userSpaceOnUse">
<stop stop-color="#D92231"/>
<stop offset="1" stop-color="#BA2234"/>
</linearGradient>
</defs>
</svg>
