<svg width="235" height="51" viewBox="0 0 235 51" fill="none" xmlns="http://www.w3.org/2000/svg">
<path d="M9.795 43.6856L8.76281 41.2993L7.74165 43.6856H9.795ZM8.29392 40.046H9.26708L11.8908 46.0532H10.7841L10.1761 44.6134H7.35794L6.74474 46.0532H5.67017L8.29392 40.046Z" fill="#54565A"/>
<path d="M13.553 40.0886H14.6703L16.4862 42.9096L18.299 40.0886H19.4164V46.0532H18.3691V41.7772L16.4862 44.5871H16.4521L14.5851 41.7932V46.0532H13.553V40.0886Z" fill="#54565A"/>
<path d="M21.592 40.0886H26.0163V41.0276H22.6402V42.5769H25.6325V43.5149H22.6402V45.1182H26.0584V46.0532H21.592V40.0886Z" fill="#54565A"/>
<path d="M30.5259 43.046C31.2751 43.046 31.7524 42.654 31.7524 42.0487V42.0327C31.7524 41.3929 31.2914 41.0435 30.5178 41.0435H28.9926V43.046H30.5259ZM27.9421 40.089H30.6005C31.2309 40.0537 31.8498 40.2683 32.323 40.6863C32.6521 41.032 32.8305 41.4942 32.8189 41.9714V41.9901C32.8314 42.4103 32.6956 42.8215 32.4352 43.1516C32.1749 43.4817 31.8067 43.7095 31.3951 43.7953L33.0055 46.0536H31.7685L30.3046 43.9739H28.9926V46.0532H27.9424L27.9421 40.089Z" fill="#54565A"/>
<path d="M35.8531 40.089H34.8052V46.0537H35.8531V40.089Z" fill="#54565A"/>
<path d="M37.8224 43.089V43.0729C37.8131 42.6658 37.8862 42.2611 38.0374 41.883C38.1885 41.5049 38.4146 41.1613 38.702 40.8729C38.9894 40.5844 39.3322 40.3571 39.7098 40.2045C40.0873 40.052 40.4918 39.9774 40.8989 39.9853C41.3316 39.9691 41.7629 40.0436 42.1651 40.2038C42.5673 40.3641 42.9316 40.6066 43.2347 40.9159L42.56 41.6917C42.3449 41.4636 42.0865 41.2805 41.8 41.1532C41.5134 41.0259 41.2044 40.9569 40.8909 40.9501C40.6219 40.9542 40.3565 41.0124 40.1105 41.1212C39.8645 41.2301 39.6429 41.3874 39.459 41.5837C39.2751 41.7801 39.1327 42.0115 39.0401 42.2641C38.9476 42.5167 38.9069 42.7853 38.9204 43.054V43.0726C38.9069 43.3421 38.9474 43.6115 39.0398 43.865C39.1321 44.1186 39.2743 44.351 39.458 44.5486C39.6417 44.7462 39.8632 44.905 40.1093 45.0156C40.3554 45.1262 40.6212 45.1863 40.8909 45.1924C41.2142 45.1891 41.5333 45.1186 41.828 44.9855C42.1227 44.8524 42.3865 44.6596 42.6027 44.4192L43.2774 45.099C42.9777 45.4442 42.605 45.7183 42.1862 45.9014C41.7674 46.0845 41.3131 46.172 40.8562 46.1576C40.4535 46.1623 40.054 46.0858 39.6815 45.9328C39.309 45.7797 38.9711 45.5533 38.688 45.2669C38.4048 44.9805 38.1822 44.6401 38.0334 44.2658C37.8846 43.8916 37.8132 43.4916 37.8224 43.089Z" fill="#54565A"/>
<path d="M48.6285 43.6856L47.5992 41.2993L46.5753 43.6856H48.6285ZM47.13 40.046H48.1032L50.7269 46.0534H49.6204L49.0124 44.6136H46.1914L45.5777 46.0532H44.5054L47.13 40.046Z" fill="#54565A"/>
<path d="M52.3911 40.0886H53.3612L56.559 44.2143V40.0886H57.5881V46.0532H56.7103L53.4203 41.8112V46.0532H52.3911V40.0886Z" fill="#54565A"/>
<path d="M62.9605 40.0886H63.9306L67.1273 44.2143V40.0886H68.1595V46.0532H67.2826L63.9917 41.8112V46.0532H62.9605V40.0886Z" fill="#54565A"/>
<path d="M70.2392 43.523V40.0887H71.287V43.4803C71.287 44.5895 71.8603 45.1839 72.7962 45.1839C73.7242 45.1839 74.2948 44.6212 74.2948 43.5227V40.0884H75.3453V43.4721C75.3902 43.8245 75.3557 44.1826 75.2442 44.52C75.1328 44.8574 74.9473 45.1656 74.7013 45.422C74.4554 45.6784 74.1552 45.8765 73.8227 46.0019C73.4902 46.1272 73.1339 46.1766 72.7799 46.1464C72.4312 46.1772 72.0801 46.1297 71.7522 46.0075C71.4242 45.8853 71.1277 45.6914 70.8842 45.44C70.6407 45.1886 70.4564 44.886 70.3448 44.5543C70.2332 44.2226 70.1973 43.8704 70.2392 43.523Z" fill="#54565A"/>
<path d="M80.008 43.046C80.7573 43.046 81.2345 42.654 81.2345 42.0487V42.0327C81.2345 41.3929 80.7735 41.0435 79.9973 41.0435H78.4721V43.046H80.008ZM77.4243 40.089H80.0826C80.713 40.0542 81.3317 40.2687 81.8052 40.6863C82.1342 41.032 82.3126 41.4942 82.3011 41.9714V41.9901C82.3136 42.4103 82.1777 42.8215 81.9174 43.1516C81.657 43.4817 81.2888 43.7095 80.8772 43.7952L82.4877 46.0536H81.2505L79.784 43.9739H78.4721V46.0532H77.4243V40.089Z" fill="#54565A"/>
<path d="M83.8268 45.185L84.4587 44.4357C84.9638 44.9257 85.6375 45.2034 86.3412 45.2116C86.989 45.2116 87.397 44.913 87.397 44.4624V44.4437C87.397 44.0171 87.1598 43.7877 86.0506 43.5318C84.7814 43.2251 84.064 42.8492 84.064 41.7506V41.7347C84.0753 41.4841 84.1381 41.2385 84.2485 41.0133C84.3588 40.7881 84.5145 40.588 84.7056 40.4256C84.8968 40.2633 85.1194 40.142 85.3595 40.0695C85.5996 39.997 85.8521 39.9747 86.1012 40.0041C86.8891 39.9878 87.657 40.2535 88.2663 40.7534L87.7064 41.5451C87.2473 41.1693 86.678 40.954 86.0851 40.9319C85.4719 40.9319 85.1146 41.2464 85.1146 41.6385V41.6571C85.1146 42.1157 85.3867 42.321 86.5276 42.593C87.7888 42.8996 88.4474 43.3529 88.4474 44.3395V44.3581C88.4474 45.4754 87.5676 46.1393 86.3143 46.1393C85.3948 46.1438 84.5072 45.8034 83.8268 45.185Z" fill="#54565A"/>
<path d="M90.3214 40.0886H94.7448V41.0276H91.3686V42.5769H94.3609V43.5149H91.3686V45.1182H94.7878V46.0532H90.3214V40.0886Z" fill="#54565A"/>
<path d="M96.2722 45.185L96.9041 44.4357C97.4091 44.9257 98.0829 45.2034 98.7865 45.2116C99.4344 45.2116 99.8424 44.913 99.8424 44.4624V44.4437C99.8424 44.0171 99.6051 43.7877 98.4959 43.5318C97.2266 43.2251 96.5117 42.8492 96.5117 41.7506V41.7347C96.5226 41.4843 96.5851 41.2388 96.6952 41.0136C96.8053 40.7884 96.9606 40.5883 97.1516 40.4259C97.3425 40.2635 97.5649 40.1422 97.8048 40.0696C98.0447 39.9971 98.2971 39.9748 98.546 40.0041C99.3338 39.9879 100.101 40.2536 100.711 40.7534L100.151 41.5451C99.6917 41.1693 99.1224 40.954 98.5295 40.9319C97.9163 40.9319 97.5589 41.2464 97.5589 41.6385V41.6571C97.5589 42.1157 97.831 42.321 98.9719 42.593C100.233 42.8997 100.892 43.3529 100.892 44.3395V44.3581C100.892 45.4754 100.012 46.1393 98.7586 46.1393C97.8392 46.1439 96.9514 45.8032 96.271 45.1848" fill="#54565A"/>
<path d="M105.698 43.089V43.0729C105.689 42.6658 105.762 42.2611 105.913 41.883C106.064 41.5049 106.291 41.1613 106.578 40.8729C106.865 40.5844 107.208 40.3571 107.586 40.2045C107.963 40.052 108.368 39.9774 108.775 39.9853C109.208 39.9691 109.639 40.0436 110.041 40.2038C110.443 40.3641 110.808 40.6066 111.111 40.9159L110.436 41.6917C110.221 41.4636 109.962 41.2805 109.676 41.1532C109.389 41.0259 109.08 40.9569 108.767 40.9501C108.498 40.9542 108.232 41.0124 107.986 41.1212C107.74 41.2301 107.519 41.3874 107.335 41.5837C107.151 41.7801 107.009 42.0115 106.916 42.2641C106.824 42.5167 106.783 42.7853 106.796 43.054V43.0726C106.783 43.3421 106.823 43.6115 106.916 43.865C107.008 44.1186 107.15 44.351 107.334 44.5486C107.518 44.7462 107.739 44.905 107.985 45.0156C108.231 45.1262 108.497 45.1863 108.767 45.1924C109.09 45.1891 109.409 45.1186 109.704 44.9855C109.999 44.8524 110.262 44.6596 110.479 44.4192L111.153 45.099C110.854 45.4442 110.481 45.7183 110.062 45.9014C109.643 46.0845 109.189 46.172 108.732 46.1576C108.329 46.1623 107.93 46.0858 107.557 45.9328C107.185 45.7797 106.847 45.5533 106.564 45.2669C106.281 44.9805 106.058 44.6401 105.909 44.2658C105.761 43.8916 105.689 43.4916 105.698 43.089Z" fill="#54565A"/>
<path d="M115.475 43.046C116.227 43.046 116.704 42.654 116.704 42.0487V42.0327C116.704 41.3929 116.243 41.0435 115.467 41.0435H113.942V43.046H115.475ZM112.894 40.089H115.552C116.183 40.0542 116.801 40.2687 117.275 40.6863C117.603 41.0323 117.781 41.4946 117.768 41.9714V41.9901C117.781 42.4104 117.645 42.8219 117.385 43.1521C117.125 43.4822 116.756 43.71 116.344 43.7952L117.955 46.0536H116.72L115.254 43.9739H113.942V46.0532H112.895L112.894 40.089Z" fill="#54565A"/>
<path d="M119.697 40.0886H124.12V41.0276H120.744V42.5769H123.736V43.5149H120.744V45.1182H124.162V46.0532H119.697V40.0886Z" fill="#54565A"/>
<path d="M128.27 45.0991C128.542 45.1171 128.814 45.078 129.069 44.9842C129.325 44.8904 129.558 44.744 129.753 44.5545C129.948 44.365 130.102 44.1366 130.203 43.8841C130.305 43.6316 130.352 43.3606 130.342 43.0886V43.0726C130.352 42.7997 130.305 42.5277 130.204 42.274C130.103 42.0203 129.95 41.7905 129.755 41.5994C129.56 41.4083 129.327 41.2602 129.072 41.1644C128.816 41.0687 128.543 41.0275 128.27 41.0435H127.094V45.0991H128.27ZM126.046 40.089H128.27C128.676 40.0622 129.083 40.1189 129.467 40.2557C129.85 40.3925 130.201 40.6065 130.498 40.8844C130.795 41.1624 131.032 41.4983 131.194 41.8715C131.356 42.2446 131.44 42.6471 131.44 43.054V43.0726C131.441 43.4803 131.357 43.8837 131.195 44.2579C131.034 44.6322 130.797 44.9693 130.5 45.2486C130.203 45.5279 129.852 45.7434 129.468 45.8818C129.085 46.0203 128.677 46.0787 128.27 46.0536H126.046V40.089Z" fill="#54565A"/>
<path d="M133.351 40.0886H137.775V41.0276H134.399V42.5769H137.391V43.5149H134.399V45.1182H137.817V46.0532H133.351V40.0886Z" fill="#54565A"/>
<path d="M139.701 40.0886H140.675L143.869 44.2143V40.0886H144.901V46.0532H144.023L140.733 41.8112V46.0532H139.701V40.0886Z" fill="#54565A"/>
<path d="M148.542 41.0597H146.651V40.0896H151.49V41.0597H149.6V46.0542H148.542V41.0597Z" fill="#54565A"/>
<path d="M154.344 40.089H153.296V46.0537H154.344V40.089Z" fill="#54565A"/>
<path d="M160.195 43.6856L159.163 41.2993L158.139 43.6856H160.195ZM158.694 40.046H159.664L162.291 46.0534H161.182L160.576 44.6136H157.755L157.142 46.0534H156.067L158.694 40.046Z" fill="#54565A"/>
<path d="M163.953 40.0886H165V45.0992H168.136V46.0532H163.953V40.0886Z" fill="#54565A"/>
<path d="M170.974 40.089H169.927V46.0537H170.974V40.089Z" fill="#54565A"/>
<path d="M173.21 40.0886H174.18L177.378 44.2143V40.0886H178.409V46.0532H177.532L174.242 41.8112V46.0532H173.21V40.0886Z" fill="#54565A"/>
<path d="M180.318 43.089V43.0729C180.312 42.6666 180.387 42.2632 180.539 41.8865C180.692 41.5098 180.918 41.1674 181.205 40.8796C181.492 40.5918 181.833 40.3644 182.209 40.2108C182.585 40.0572 182.989 39.9805 183.395 39.9853C184.236 39.9455 185.059 40.2365 185.688 40.7958L185.021 41.5875C184.799 41.3767 184.537 41.212 184.25 41.1026C183.964 40.9933 183.659 40.9414 183.352 40.9501C183.087 40.9606 182.826 41.0233 182.585 41.1348C182.344 41.2464 182.127 41.4044 181.947 41.5999C181.767 41.7954 181.628 42.0244 181.537 42.274C181.446 42.5235 181.405 42.7886 181.416 43.054V43.0726C181.397 43.3487 181.436 43.6258 181.53 43.8861C181.624 44.1465 181.771 44.3844 181.962 44.5848C182.153 44.7852 182.383 44.9437 182.639 45.0501C182.894 45.1566 183.169 45.2086 183.446 45.203C183.961 45.2081 184.466 45.0494 184.885 44.7498V43.6328H183.36V42.7236H185.901V45.2274C185.21 45.8271 184.326 46.1575 183.411 46.1579C183.002 46.1766 182.593 46.1101 182.211 45.9628C181.829 45.8155 181.482 45.5905 181.191 45.3021C180.9 45.0136 180.673 44.668 180.522 44.2871C180.372 43.9061 180.302 43.4982 180.318 43.089Z" fill="#54565A"/>
<path d="M190.837 43.0889V43.0729C190.827 42.6658 190.901 42.2611 191.052 41.883C191.203 41.5049 191.429 41.1613 191.716 40.8729C192.004 40.5844 192.347 40.3571 192.724 40.2045C193.102 40.052 193.506 39.9774 193.913 39.9853C194.346 39.9694 194.777 40.044 195.179 40.2042C195.582 40.3645 195.946 40.6068 196.249 40.9158L195.574 41.6917C195.359 41.4636 195.101 41.2805 194.814 41.1532C194.528 41.0259 194.219 40.9569 193.905 40.9501C193.636 40.9543 193.371 41.0125 193.125 41.1215C192.88 41.2304 192.658 41.3877 192.475 41.5841C192.291 41.7805 192.149 42.0118 192.056 42.2644C191.964 42.5169 191.924 42.7855 191.938 43.054V43.0726C191.924 43.3419 191.964 43.6113 192.056 43.8647C192.148 44.1182 192.29 44.3506 192.474 44.5483C192.657 44.7459 192.878 44.9047 193.124 45.0154C193.37 45.126 193.636 45.1862 193.905 45.1924C194.229 45.1894 194.548 45.119 194.843 44.9859C195.137 44.8528 195.401 44.6598 195.617 44.4192L196.292 45.099C195.992 45.4442 195.619 45.7183 195.201 45.9014C194.782 46.0845 194.327 46.172 193.871 46.1576C193.468 46.1623 193.068 46.0858 192.696 45.9328C192.323 45.7797 191.986 45.5533 191.702 45.2669C191.419 44.9805 191.197 44.64 191.048 44.2658C190.899 43.8916 190.828 43.4916 190.837 43.0889Z" fill="#54565A"/>
<path d="M198.03 40.0886H202.454V41.0276H199.079V42.5769H202.07V43.5149H199.079V45.1182H202.497V46.0532H198.03V40.0886Z" fill="#54565A"/>
<path d="M204.383 40.0886H205.354L208.551 44.2143V40.0886H209.582V46.0532H208.702L205.412 41.8112V46.0532H204.383V40.0886Z" fill="#54565A"/>
<path d="M213.22 41.0597H211.33V40.0896H216.17V41.0597H214.279V46.0542H213.22V41.0597Z" fill="#54565A"/>
<path d="M217.919 40.0886H222.343V41.0276H218.967V42.5769H221.959V43.5149H218.967V45.1182H222.385V46.0532H217.919V40.0886Z" fill="#54565A"/>
<path d="M226.853 43.046C227.602 43.046 228.079 42.654 228.079 42.0487V42.0327C228.079 41.3929 227.618 41.0435 226.842 41.0435H225.317V43.046H226.853ZM224.269 40.089H226.927C227.558 40.0537 228.177 40.2683 228.65 40.6863C228.978 41.0323 229.155 41.4945 229.143 41.9714V41.9901C229.156 42.4105 229.02 42.8219 228.76 43.1521C228.499 43.4823 228.131 43.71 227.719 43.7952L229.33 46.0536H228.095L226.629 43.9739H225.317V46.0532H224.269V40.089Z" fill="#54565A"/>
<path d="M129.399 19.5945C129.575 19.5945 129.575 19.4878 129.54 19.3492L126.223 9.92359C126.05 9.40099 125.874 9.40099 125.7 9.92359L122.629 19.3492C122.559 19.5225 122.629 19.5945 122.733 19.5945H129.399ZM125.77 5.63071C126.188 4.47877 126.33 4.26782 126.538 4.26782C126.748 4.26782 126.887 4.4438 127.306 5.52639C127.828 6.85159 133.31 21.2687 135.438 26.5747C136.696 29.6813 137.707 30.2411 138.44 30.449C138.892 30.5926 139.364 30.6636 139.837 30.6595C140.048 30.6595 140.187 30.6941 140.187 30.8674C140.187 31.0779 139.872 31.1474 139.488 31.1474C138.966 31.1474 136.416 31.1474 134.009 31.0781C133.345 31.0434 132.961 31.0434 132.961 30.8327C132.961 30.6941 133.065 30.6248 133.206 30.5901C133.414 30.5182 133.625 30.2062 133.414 29.6462L130.169 21.0581C130.147 20.9935 130.104 20.938 130.047 20.9004C129.99 20.8627 129.923 20.845 129.855 20.85H122.349C122.268 20.8517 122.19 20.88 122.127 20.9307C122.063 20.9813 122.019 21.0514 121.999 21.13L119.906 27.3081C119.616 28.0555 119.45 28.8454 119.415 29.6464C119.415 30.345 120.149 30.6597 120.743 30.6597H121.092C121.335 30.6597 121.442 30.729 121.442 30.8676C121.442 31.0781 121.231 31.1476 120.916 31.1476C120.079 31.1476 118.578 31.0436 118.194 31.0436C117.81 31.0436 115.89 31.1476 114.251 31.1476C113.795 31.1476 113.587 31.0783 113.587 30.8676C113.587 30.729 113.725 30.6597 113.901 30.6597C114.147 30.6597 114.634 30.625 114.912 30.5903C116.52 30.3799 117.216 29.0545 117.845 27.3081L125.77 5.63071Z" fill="#54565A"/>
<path d="M146.295 26.401C146.365 29.2646 146.714 30.1712 147.658 30.4511C148.23 30.5869 148.815 30.6567 149.402 30.6592C149.578 30.6592 149.682 30.7284 149.682 30.8696C149.682 31.0776 149.471 31.1495 149.053 31.1495C147.063 31.1495 145.666 31.0429 145.354 31.0429C145.04 31.0429 143.573 31.1495 142.003 31.1495C141.653 31.1495 141.443 31.1122 141.443 30.8696C141.443 30.7282 141.549 30.6592 141.723 30.6592C142.207 30.6589 142.69 30.5889 143.155 30.4511C144.026 30.2058 144.202 29.1927 144.202 26.0169L144.237 6.01382C144.237 4.65394 144.341 4.27013 144.621 4.27013C144.898 4.27013 145.493 5.03805 145.842 5.38729C146.365 5.97924 151.567 11.6004 156.942 17.3593C160.398 21.0603 164.203 25.3185 165.32 26.4703L164.936 8.73898C164.901 6.46988 164.656 5.70196 163.576 5.42197C163.012 5.31129 162.439 5.25239 161.864 5.24599C161.619 5.24599 161.584 5.14197 161.584 5.00338C161.584 4.79293 161.864 4.75806 162.283 4.75806C163.854 4.75806 165.531 4.86198 165.915 4.86198C166.298 4.86198 167.45 4.75806 168.882 4.75806C169.263 4.75806 169.509 4.79273 169.509 5.00338C169.509 5.14197 169.37 5.24599 169.125 5.24599C168.842 5.24224 168.56 5.27813 168.288 5.35262C167.135 5.59533 166.997 6.36316 166.997 8.45919L166.925 28.9156C166.925 31.2194 166.856 31.3927 166.613 31.3927C166.333 31.3927 165.915 31.0087 164.064 29.158C163.68 28.8087 158.651 23.6786 154.953 19.698C150.903 15.3357 146.959 10.9362 145.842 9.68038L146.295 26.401Z" fill="#54565A"/>
<path d="M178.83 27.8664C177.423 26.5503 176.317 24.9456 175.588 23.1623C174.859 21.3791 174.524 19.4593 174.606 17.5345C174.644 13.9752 176.043 10.5653 178.515 8.00433C180.608 5.90859 183.786 4.26873 189.162 4.26873C190.859 4.26433 192.552 4.4044 194.225 4.68741C195.4 4.93232 196.589 5.10769 197.785 5.21262C198.169 5.2473 198.238 5.38599 198.238 5.59664C198.238 5.87392 198.134 6.29251 198.065 7.55077C197.993 8.70261 197.993 10.6225 197.958 11.1451C197.924 11.6703 197.854 11.8783 197.646 11.8783C197.401 11.8783 197.366 11.633 197.366 11.1451C197.379 10.483 197.255 9.82537 197.002 9.21307C196.75 8.60077 196.375 8.04679 195.9 7.58544C194.679 6.53753 191.991 5.59634 188.917 5.59634C184.274 5.59634 182.112 6.95621 180.888 8.14272C178.339 10.5879 177.747 13.6945 177.747 17.2537C177.724 18.9231 178.033 20.5804 178.656 22.1294C179.279 23.6784 180.204 25.0882 181.376 26.2769C182.549 27.4656 183.946 28.4096 185.486 29.054C187.026 29.6984 188.679 30.0304 190.348 30.0307C192.967 30.0307 195.025 29.7161 196.422 28.2842C197.085 27.4269 197.529 26.4211 197.715 25.3538C197.785 24.9672 197.854 24.8286 198.065 24.8286C198.238 24.8286 198.307 25.0739 198.307 25.3538C198.145 26.8572 197.888 28.3489 197.539 29.8201C197.329 30.484 197.259 30.5533 196.633 30.8332C194.593 31.4299 192.472 31.7007 190.348 31.6358C185.111 31.6358 181.587 30.3461 178.83 27.8664Z" fill="#54565A"/>
<path d="M206.755 27.8664C205.349 26.5502 204.243 24.9456 203.514 23.1623C202.785 21.379 202.45 19.4593 202.532 17.5345C202.57 13.9752 203.969 10.5653 206.441 8.00433C208.534 5.90859 211.712 4.26873 217.088 4.26873C218.784 4.26433 220.478 4.4044 222.151 4.68741C223.326 4.93231 224.515 5.10768 225.711 5.21262C226.095 5.2473 226.164 5.38599 226.164 5.59664C226.164 5.87392 226.06 6.29251 225.991 7.55077C225.919 8.70261 225.919 10.6225 225.884 11.1451C225.849 11.6703 225.78 11.8783 225.572 11.8783C225.327 11.8783 225.292 11.633 225.292 11.1451C225.304 10.483 225.18 9.82539 224.928 9.21309C224.676 8.6008 224.301 8.04681 223.826 7.58544C222.604 6.53753 219.917 5.59634 216.845 5.59634C212.2 5.59634 210.038 6.95621 208.816 8.14272C206.267 10.5879 205.673 13.6945 205.673 17.2537C205.65 18.9231 205.959 20.5804 206.582 22.1294C207.205 23.6784 208.13 25.0882 209.302 26.2769C210.474 27.4656 211.871 28.4096 213.411 29.054C214.952 29.6984 216.605 30.0304 218.274 30.0307C220.892 30.0307 222.954 29.7161 224.348 28.2842C225.012 27.4276 225.456 26.4215 225.641 25.3538C225.71 24.9672 225.78 24.8286 225.99 24.8286C226.164 24.8286 226.233 25.074 226.233 25.3538C226.07 26.8572 225.814 28.3488 225.465 29.8201C225.257 30.484 225.185 30.5533 224.558 30.8332C222.519 31.4299 220.398 31.7007 218.274 31.6358C213.037 31.6358 209.512 30.3461 206.755 27.8664Z" fill="#54565A"/>
<path d="M7.84042 5.92017L16.4715 22.8997L7.5498 32.6826L108.846 30.6699L108.422 19.4418C102.494 21.5243 96.3002 25.7531 89.1708 26.753C96.0713 19.2765 99.7137 19.5725 104.729 17.9886C97.4162 15.8689 89.8709 14.6537 82.2622 14.3703C86.5658 13.1331 90.4053 11.6266 94.4556 11.6266C96.445 11.623 98.416 12.008 100.258 12.7598C103.708 14.1677 106.124 16.2742 108.361 17.8553L107.985 7.93633L7.84042 5.92017ZM38.1385 17.543C38.9624 17.543 39.797 17.5056 40.661 17.4256C35.8348 14.3913 33.363 11.0903 30.0485 8.70927C33.3604 9.56476 36.4764 11.0503 39.2262 13.0847C41.6313 14.8953 41.6659 15.8071 47.2546 19.1876C44.1803 19.2517 40.9326 20.1423 37.8717 20.1423C37.2607 20.1459 36.6502 20.1049 36.0452 20.0196C32.4821 19.4422 29.1399 17.9171 26.3689 15.6041C31.1284 16.7986 34.5147 17.5426 38.1383 17.5426L38.1385 17.543ZM35.08 15.2361C30.1395 14.8841 22.2441 12.527 17.0179 10.2767C18.4543 10.1193 19.8979 10.0365 21.3428 10.0287C26.5662 10.0287 31.1844 11.3033 35.08 15.2361ZM55.1712 20.6169C48.8465 18.1478 44.8176 14.0896 41.25 11.6952C44.7293 12.2074 48.0721 13.4065 51.0836 15.2226C54.2246 17.0866 56.7469 19.4169 60.2399 21.206C56.1443 22.4806 52.5821 24.0671 48.5159 24.3627C47.9719 24.4028 47.4066 24.4214 46.828 24.4214C42.7302 24.3883 38.6761 23.5748 34.8827 22.0243C35.216 22.0377 35.5521 22.043 35.8907 22.043C38.94 21.9709 41.9827 21.7261 45.0044 21.3097C47.9253 20.9043 50.8663 20.6604 53.8141 20.5792C54.2807 20.5792 54.734 20.5925 55.1713 20.6165L55.1712 20.6169ZM59.1575 26.8665C56.5547 26.8366 53.9612 26.5508 51.4143 26.0132C58.7415 24.872 64.1756 22.6189 70.5348 21.1657C65.8927 19.4833 62.581 19.7552 53.4033 14.8678C54.0806 14.8198 54.7361 14.7984 55.3738 14.7984C64.5621 14.7984 70.0495 19.4139 78.0618 20.4218C74.9299 22.1872 71.6942 23.7614 68.3722 25.136C65.4441 26.313 62.3128 26.901 59.1572 26.8665H59.1575ZM75.9687 27.9087C73.0743 27.8605 70.1942 27.493 67.3805 26.8129C74.4171 25.7489 80.3098 22.3013 88.2476 20.3015C83.0028 19.5816 80.7124 19.8349 69.3563 15.126C70.9886 14.9161 72.6327 14.8111 74.2784 14.8115C81.7843 14.8115 88.0583 16.9605 93.8816 18.4911C91.5967 20.4352 89.4741 23.0879 85.6318 25.4877C82.6961 27.1713 79.3516 28.0092 75.9689 27.9087" fill="#D8D6D6"/>
<path d="M108.847 4.19653H5.82666V30.6683H108.847V4.19653Z" fill="url(#paint0_linear_0_7006)"/>
<path d="M38.1387 17.5429C38.9625 17.5429 39.7972 17.5055 40.6611 17.4256C35.8349 14.3913 33.3632 11.0903 30.0486 8.70923C33.3605 9.56472 36.4765 11.0503 39.2264 13.0847C41.6314 14.8952 41.666 15.807 47.2548 19.1876C44.1804 19.2516 40.9328 20.1422 37.8718 20.1422C37.2608 20.1459 36.6503 20.1049 36.0453 20.0196C32.4823 19.4422 29.1401 17.9171 26.3691 15.604C31.1285 16.7985 34.515 17.5429 38.1387 17.5429ZM35.0801 15.236C30.1396 14.8841 22.2442 12.527 17.0181 10.2766C18.4544 10.1193 19.898 10.0365 21.3429 10.0286C26.5664 10.0286 31.1845 11.3032 35.0801 15.236ZM55.1713 20.6168C48.8466 18.1478 44.8177 14.0895 41.2501 11.6951C44.7295 12.2073 48.0722 13.4064 51.0837 15.2226C54.2247 17.0866 56.747 19.4169 60.24 21.206C56.1445 22.4806 52.5822 24.067 48.516 24.3627C47.9721 24.4027 47.4068 24.4214 46.8281 24.4214C42.7303 24.3882 38.6763 23.5747 34.8829 22.0243C35.2162 22.0376 35.5522 22.0429 35.8908 22.0429C38.9401 21.9709 41.9829 21.7261 45.0045 21.3097C47.9254 20.9042 50.8664 20.6603 53.8142 20.5791C54.2808 20.5791 54.734 20.5929 55.1713 20.6168ZM59.1576 26.8664C56.5548 26.8366 53.9613 26.5508 51.4145 26.0131C58.7417 24.8719 64.1758 22.6189 70.5349 21.1657C65.8928 19.4832 62.5811 19.7552 53.4035 14.8678C54.0807 14.8198 54.7363 14.7984 55.3739 14.7984C64.5623 14.7984 70.0497 19.4139 78.0619 20.4218C74.9301 22.1871 71.6943 23.7614 68.3723 25.136C65.4443 26.3129 62.3132 26.901 59.1576 26.8664ZM75.9688 27.9087C73.0745 27.8605 70.1943 27.493 67.3806 26.8128C74.4172 25.7489 80.3099 22.3013 88.2477 20.3015C83.0029 19.5815 80.7126 19.8349 69.3564 15.126C70.9887 14.9161 72.6328 14.811 74.2785 14.8114C81.7844 14.8114 88.0584 16.9605 93.8817 18.491C91.5969 20.4351 89.4742 23.0879 85.632 25.4876C82.6962 27.1712 79.3515 28.0092 75.9688 27.9087Z" fill="white"/>
<path d="M108.422 19.4417C102.494 21.5242 96.3003 25.7531 89.171 26.753C96.0714 19.2765 99.7138 19.5724 104.729 17.9886C97.4163 15.8688 89.871 14.6537 82.2623 14.3703C86.5659 13.1331 90.4054 11.6266 94.4557 11.6266C96.4451 11.623 98.4161 12.0079 100.258 12.7598C103.708 14.1677 106.124 16.2741 108.361 17.8553L108.85 18.291V19.205L108.422 19.4417Z" fill="white"/>
<defs>
<linearGradient id="paint0_linear_0_7006" x1="5.8292" y1="17.4508" x2="108.849" y2="17.4508" gradientUnits="userSpaceOnUse">
<stop stop-color="#054F72"/>
<stop offset="0.048" stop-color="#045980"/>
<stop offset="0.1642" stop-color="#026E9C"/>
<stop offset="0.2804" stop-color="#017DB1"/>
<stop offset="0.3957" stop-color="#0086BD"/>
<stop offset="0.5091" stop-color="#0089C1"/>
<stop offset="0.6186" stop-color="#0086BD"/>
<stop offset="0.7297" stop-color="#017DB1"/>
<stop offset="0.8415" stop-color="#026E9C"/>
<stop offset="0.9532" stop-color="#045980"/>
<stop offset="1" stop-color="#054F72"/>
</linearGradient>
</defs>
</svg>
