<svg width="251" height="48" viewBox="0 0 251 48" fill="none" xmlns="http://www.w3.org/2000/svg">
<path d="M26.0174 3.92382L26.2684 3.929L23.5856 7.0991C18.6197 7.99697 14.3319 11.3879 12.6467 16.3662C10.1393 23.773 14.3419 31.888 22.0336 34.4921C29.7252 37.0957 37.993 33.202 40.5004 25.7956C42.1557 20.9057 40.8862 15.7074 37.6192 11.9897L37.4737 11.8267L37.2675 7.66442C44.0319 12.5742 47.1345 21.4838 44.3134 29.8172C40.8415 40.0726 29.7135 45.5718 19.4581 42.1002C9.20272 38.6283 3.70331 27.5003 7.17494 17.2449C9.97231 8.98165 17.7403 3.80667 26.0174 3.92382ZM94.9127 17.1239C97.5024 17.1239 99.5254 17.7463 100.982 18.9917C102.439 20.2367 103.167 22.2282 103.167 24.9672V36.1718C102.295 36.4456 101.237 36.7072 99.9921 36.9562C98.7474 37.2052 97.3405 37.3296 95.7718 37.3296C94.502 37.3296 93.3377 37.2179 92.2794 36.9935C91.2214 36.7698 90.3121 36.3957 89.5536 35.8731C88.7937 35.3505 88.2088 34.678 87.7975 33.8566C87.3871 33.0344 87.1816 32.0262 87.1816 30.8309C87.1816 29.636 87.4368 28.6338 87.9472 27.8245C88.4574 27.0152 89.1177 26.3678 89.9265 25.8825C90.7361 25.3966 91.6385 25.0483 92.6347 24.8366C93.6307 24.6248 94.6262 24.5191 95.6224 24.5191C96.3446 24.5191 97.1412 24.5568 98.0131 24.631V24.1829C98.0131 23.5856 97.9133 23.0998 97.7139 22.7262C97.5151 22.3531 97.2408 22.0601 96.8924 21.8491C96.5439 21.6369 96.1142 21.4936 95.604 21.4191C95.0934 21.3444 94.5269 21.3072 93.9043 21.3072C92.56 21.3072 91.1281 21.5686 89.6095 22.0914C89.2605 21.444 88.9993 20.8338 88.825 20.2611C88.651 19.6886 88.5634 19.0039 88.5634 18.2068C89.6591 17.8336 90.7547 17.5598 91.85 17.3855C92.9455 17.2113 93.967 17.1239 94.9127 17.1239ZM80.7714 11.4342C81.7965 11.4342 82.7806 11.5097 83.725 11.6598L85.1006 37.1045C84.0759 37.2549 83.1048 37.3296 82.1878 37.3296C81.2701 37.3296 80.367 37.2549 79.477 37.1045L78.7487 18.7076L72.841 31.4227C72.4631 31.4728 72.0723 31.5172 71.6674 31.5542C71.2628 31.592 70.8586 31.6103 70.4537 31.6103C70.1028 31.6103 69.7525 31.5982 69.4021 31.5731C69.0514 31.5483 68.6871 31.4977 68.3092 31.4227L62.8069 18.4441L62.2404 37.1045C61.3774 37.2549 60.5411 37.3296 59.7316 37.3296C58.8683 37.3296 57.9781 37.2549 57.0614 37.1045L58.1942 11.6598C59.2732 11.5097 60.3117 11.4342 61.3096 11.4342C62.3617 11.4342 63.4004 11.5097 64.4253 11.6598L71.1014 25.5162L77.9797 11.6598C78.816 11.5097 79.7461 11.4342 80.7714 11.4342ZM141.776 17.1239C143.12 17.1239 144.315 17.3602 145.361 17.8336C146.407 18.3066 147.297 18.9542 148.031 19.7762C148.766 20.5972 149.32 21.5748 149.694 22.7076C150.067 23.8406 150.254 25.0548 150.254 26.3489C150.254 26.8223 150.235 27.2895 150.198 27.7501C150.161 28.2101 150.117 28.5777 150.067 28.8518H137.667C137.767 30.3455 138.29 31.4287 139.236 32.1012C140.182 32.7734 141.427 33.1096 142.971 33.1096C143.818 33.1096 144.683 33.0284 145.567 32.8663C146.451 32.7047 147.291 32.4743 148.088 32.1759C148.362 32.6739 148.598 33.271 148.797 33.9683C148.996 34.6651 149.108 35.4126 149.133 36.2093C147.191 36.9562 145 37.3296 142.56 37.3296C140.767 37.3296 139.23 37.0806 137.947 36.5829C136.665 36.0849 135.619 35.3935 134.81 34.51C134.001 33.6262 133.403 32.5741 133.017 31.3537C132.631 30.1338 132.439 28.8019 132.439 27.3581C132.439 25.9386 132.637 24.6064 133.036 23.3615C133.434 22.116 134.026 21.0331 134.81 20.1121C135.594 19.1904 136.565 18.4622 137.723 17.927C138.881 17.3915 140.232 17.1239 141.776 17.1239ZM205.231 17.1239C206.8 17.1239 208.169 17.3855 209.34 17.9081C210.51 18.4317 211.481 19.1469 212.253 20.056C213.025 20.9646 213.598 22.0418 213.971 23.2865C214.345 24.5312 214.531 25.8636 214.531 27.2829C214.531 28.7024 214.345 30.0216 213.971 31.2417C213.598 32.4619 213.025 33.5264 212.253 34.4348C211.481 35.3441 210.51 36.0538 209.34 36.564C208.169 37.0744 206.8 37.3296 205.231 37.3296C203.663 37.3296 202.299 37.0744 201.142 36.564C199.984 36.0538 199.025 35.3441 198.266 34.4348C197.506 33.5264 196.934 32.4619 196.548 31.2417C196.162 30.0216 195.969 28.7024 195.969 27.2829C195.969 25.8636 196.162 24.5312 196.548 23.2865C196.934 22.0418 197.506 20.9646 198.266 20.056C199.025 19.1469 199.984 18.4317 201.142 17.9081C202.299 17.3855 203.663 17.1239 205.231 17.1239ZM224.478 17.1239C225.449 17.1239 226.407 17.2113 227.353 17.3855C228.3 17.5598 229.258 17.821 230.229 18.1698C230.179 18.817 230.055 19.4892 229.855 20.1866C229.657 20.8837 229.42 21.4936 229.146 22.0169C228.549 21.7677 227.889 21.55 227.167 21.363C226.445 21.1766 225.685 21.083 224.889 21.083C224.042 21.083 223.382 21.2136 222.909 21.4752C222.436 21.7367 222.2 22.1537 222.2 22.7262C222.2 23.2741 222.368 23.6601 222.703 23.8843C223.04 24.1082 223.519 24.3202 224.141 24.5191L226.27 25.1543C226.968 25.3532 227.596 25.596 228.157 25.8825C228.716 26.1689 229.196 26.5237 229.594 26.9467C229.993 27.37 230.304 27.8931 230.528 28.5154C230.752 29.138 230.864 29.8974 230.864 30.7934C230.864 31.7151 230.671 32.5741 230.285 33.3705C229.9 34.1676 229.339 34.8585 228.605 35.4434C227.87 36.029 226.98 36.4895 225.934 36.8254C224.889 37.1618 223.706 37.3296 222.386 37.3296C221.788 37.3296 221.241 37.311 220.743 37.2738C220.245 37.236 219.765 37.174 219.305 37.0871C218.845 36.9997 218.39 36.8942 217.942 36.7698C217.494 36.6452 217.008 36.4836 216.485 36.284C216.535 35.6115 216.653 34.9328 216.84 34.2486C217.027 33.5641 217.269 32.8976 217.568 32.2501C218.39 32.5741 219.168 32.8166 219.903 32.9785C220.637 33.1406 221.403 33.2215 222.2 33.2215C222.548 33.2215 222.928 33.1903 223.338 33.1279C223.749 33.0656 224.129 32.9537 224.478 32.7921C224.827 32.63 225.119 32.4182 225.356 32.157C225.592 31.8956 225.71 31.553 225.71 31.1295C225.71 30.5325 225.53 30.1028 225.169 29.8411C224.807 29.5802 224.303 29.3491 223.656 29.1505L221.34 28.4782C219.946 28.0795 218.857 27.4884 218.073 26.7039C217.288 25.9199 216.896 24.743 216.896 23.1743C216.896 21.2819 217.574 19.801 218.931 18.7301C220.288 17.6591 222.137 17.1239 224.478 17.1239ZM125.944 11.9322V17.572H130.464C130.538 17.9456 130.588 18.2817 130.613 18.5804C130.638 18.8795 130.65 19.1904 130.65 19.5143C130.65 19.8629 130.638 20.1988 130.613 20.5227C130.588 20.8467 130.538 21.2076 130.464 21.6058H125.944V29.1879C125.944 29.9593 126.007 30.5819 126.131 31.0553C126.256 31.528 126.436 31.9016 126.673 32.1759C126.91 32.4495 127.202 32.6362 127.551 32.7357C127.899 32.8355 128.31 32.8854 128.783 32.8854C129.156 32.8854 129.524 32.8539 129.885 32.7921C130.246 32.7297 130.563 32.6739 130.837 32.624C131.012 33.0964 131.136 33.5887 131.211 34.0989C131.285 34.6095 131.323 35.0641 131.323 35.4625C131.323 35.7363 131.317 35.9665 131.304 36.1536C131.292 36.3398 131.273 36.521 131.248 36.6948C130.103 36.9691 128.92 37.1054 127.7 37.1054C125.434 37.1054 123.703 36.5764 122.508 35.5186C121.313 34.4603 120.715 32.7357 120.715 30.3455V21.6058H118.288L118.101 20.8586L125.085 11.9322H125.944ZM111.932 11.9322V17.572H116.451C116.525 17.9456 116.575 18.2817 116.6 18.5804C116.625 18.8795 116.637 19.1904 116.637 19.5143C116.637 19.8629 116.625 20.1988 116.6 20.5227C116.575 20.8467 116.525 21.2076 116.451 21.6058H111.932V29.1879C111.932 29.9593 111.994 30.5819 112.119 31.0553C112.243 31.528 112.423 31.9016 112.66 32.1759C112.897 32.4495 113.189 32.6362 113.537 32.7357C113.886 32.8355 114.297 32.8854 114.77 32.8854C115.144 32.8854 115.511 32.8539 115.872 32.7921C116.233 32.7297 116.55 32.6739 116.824 32.624C116.999 33.0964 117.123 33.5887 117.198 34.0989C117.273 34.6095 117.31 35.0641 117.31 35.4625C117.31 35.7363 117.304 35.9665 117.291 36.1536C117.279 36.3398 117.26 36.521 117.235 36.6948C116.09 36.9691 114.907 37.1054 113.687 37.1054C111.421 37.1054 109.69 36.5764 108.495 35.5186C107.3 34.4603 106.703 32.7357 106.703 30.3455V21.6058H104.275L104.088 20.8586L111.073 11.9322H111.932ZM162.214 17.3478C162.463 17.3478 162.75 17.3602 163.073 17.3855C163.397 17.4104 163.633 17.4476 163.783 17.4978C163.832 17.7463 163.87 18.0327 163.895 18.3565C163.92 18.6799 163.932 19.0163 163.932 19.3651C163.932 19.7884 163.913 20.2489 163.876 20.7469C163.839 21.2449 163.77 21.7178 163.671 22.1659C163.397 22.116 163.092 22.0914 162.756 22.0914H162.14C161.716 22.0914 161.243 22.1351 160.72 22.222C160.197 22.3094 159.699 22.5395 159.226 22.9134C158.753 23.2865 158.361 23.8468 158.05 24.594C157.739 25.3408 157.583 26.3867 157.583 27.7314V36.9192C157.135 36.9935 156.687 37.0434 156.238 37.0682C155.79 37.0933 155.355 37.1054 154.931 37.1054C154.508 37.1054 154.078 37.0933 153.642 37.0682C153.207 37.0434 152.752 36.9935 152.279 36.9192V17.572C152.653 17.4978 153.008 17.4414 153.344 17.4042C153.68 17.3664 154.047 17.3478 154.446 17.3478C154.819 17.3478 155.187 17.3731 155.547 17.4226C155.909 17.4724 156.263 17.5348 156.611 17.6095C156.687 17.7343 156.755 17.9143 156.817 18.1509C156.88 18.3877 156.936 18.6367 156.986 18.8981C157.035 19.1598 157.078 19.4207 157.116 19.6826C157.153 19.944 157.184 20.1613 157.21 20.3363C157.757 19.5642 158.43 18.8731 159.226 18.2634C160.023 17.6532 161.019 17.3478 162.214 17.3478ZM188.044 17.1239C190.235 17.1239 191.847 17.7281 192.88 18.9359C193.913 20.1429 194.43 22.0293 194.43 24.594V36.8815C193.534 37.031 192.65 37.1054 191.778 37.1054C190.907 37.1054 190.023 37.031 189.127 36.8815V25.9756C189.127 24.631 188.958 23.5978 188.622 22.8761C188.286 22.1537 187.608 21.7928 186.587 21.7928C186.163 21.7928 185.746 21.8551 185.336 21.9792C184.925 22.1036 184.551 22.3337 184.215 22.6701C183.879 23.0062 183.606 23.4796 183.394 24.0898C183.182 24.6991 183.076 25.4905 183.076 26.4611V36.8815C182.18 37.031 181.296 37.1054 180.424 37.1054C179.553 37.1054 178.669 37.031 177.772 36.8815V25.9756C177.772 24.631 177.604 23.5978 177.268 22.8761C176.932 22.1537 176.254 21.7928 175.233 21.7928C174.81 21.7928 174.386 21.8551 173.963 21.9792C173.54 22.1036 173.16 22.3464 172.823 22.7076C172.487 23.0683 172.22 23.5727 172.021 24.2204C171.822 24.8674 171.722 25.7142 171.722 26.7598V36.8815C170.825 37.031 169.942 37.1054 169.07 37.1054C168.199 37.1054 167.315 37.031 166.419 36.8815V17.572C166.767 17.4978 167.115 17.4414 167.464 17.4042C167.813 17.3664 168.199 17.3478 168.622 17.3478C169.045 17.3478 169.419 17.3664 169.742 17.4042C170.066 17.4414 170.402 17.4978 170.751 17.572C170.825 17.6966 170.894 17.8773 170.956 18.1139C171.018 18.3503 171.075 18.5995 171.124 18.8607C171.174 19.1221 171.218 19.3773 171.255 19.6263C171.293 19.8753 171.324 20.087 171.349 20.2611C171.547 19.8882 171.809 19.5143 172.133 19.1407C172.456 18.7676 172.843 18.4317 173.291 18.1325C173.739 17.8336 174.243 17.5906 174.803 17.4042C175.363 17.2172 175.992 17.1239 176.689 17.1239C179.702 17.1239 181.632 18.2696 182.478 20.5602C182.976 19.6387 183.68 18.8361 184.589 18.1509C185.497 17.4662 186.649 17.1239 188.044 17.1239ZM239.487 11.9322V17.572H244.006C244.081 17.9456 244.131 18.2817 244.156 18.5804C244.181 18.8795 244.194 19.1904 244.194 19.5143C244.194 19.8629 244.181 20.1988 244.156 20.5227C244.131 20.8467 244.081 21.2076 244.006 21.6058H239.487V29.1879C239.487 29.9593 239.55 30.5819 239.674 31.0553C239.799 31.528 239.979 31.9016 240.216 32.1759C240.453 32.4495 240.745 32.6362 241.093 32.7357C241.442 32.8355 241.853 32.8854 242.326 32.8854C242.7 32.8854 243.066 32.8539 243.428 32.7921C243.789 32.7297 244.106 32.6739 244.38 32.624C244.555 33.0964 244.679 33.5887 244.753 34.0989C244.829 34.6095 244.866 35.0641 244.866 35.4625C244.866 35.7363 244.86 35.9665 244.847 36.1536C244.835 36.3398 244.816 36.521 244.791 36.6948C243.646 36.9691 242.463 37.1054 241.243 37.1054C238.977 37.1054 237.246 36.5764 236.051 35.5186C234.856 34.4603 234.258 32.7357 234.258 30.3455V21.6058H231.831L231.644 20.8586L238.628 11.9322H239.487ZM205.231 21.2697C203.862 21.2697 202.873 21.7861 202.262 22.8198C201.652 23.853 201.347 25.3408 201.347 27.2829C201.347 29.2249 201.652 30.7129 202.262 31.7462C202.873 32.7796 203.862 33.296 205.231 33.296C206.626 33.296 207.628 32.7796 208.238 31.7462C208.848 30.7129 209.153 29.2249 209.153 27.2829C209.153 25.3408 208.848 23.853 208.238 22.8198C207.628 21.7861 206.626 21.2697 205.231 21.2697ZM96.108 27.8434C94.8878 27.8434 93.9229 28.0609 93.2131 28.4968C92.5036 28.9325 92.1489 29.636 92.1489 30.6069C92.1489 31.2546 92.2861 31.7521 92.56 32.1012C92.8338 32.4495 93.1637 32.7047 93.5495 32.8663C93.9355 33.0284 94.3459 33.1279 94.7818 33.1654C95.218 33.2024 95.5976 33.2215 95.9208 33.2215C96.2947 33.2215 96.6683 33.1903 97.0414 33.1279C97.415 33.0656 97.7387 33.01 98.0131 32.9599V28.0301C97.7139 27.98 97.3904 27.9365 97.0414 27.8993C96.6929 27.862 96.3823 27.8434 96.108 27.8434ZM31.7683 5.73356C31.8594 5.7644 31.9331 5.82176 31.9862 5.89335L32.0156 5.93792L32.0266 5.95582L32.0364 5.97635C32.0622 6.02553 32.0841 6.08187 32.0944 6.1511C32.1131 6.27754 32.1223 6.56226 32.1265 6.8648L32.1284 7.04734C32.1289 7.10815 32.1292 7.16855 32.1294 7.22742L32.1293 7.55321C32.1287 7.7247 32.1274 7.84839 32.1272 7.87376L32.1271 7.87856L32.2042 10.7791L32.3181 14.1273L32.4601 19.9459C32.4601 19.9459 32.4602 19.9494 32.4603 19.956L32.4604 19.9856C32.4591 20.3238 32.3885 22.7517 30.6654 24.4398C28.8097 26.2577 26.5303 26.0914 25.0473 25.5895C23.5643 25.0872 21.6528 23.8349 21.283 21.2635C20.9202 18.7409 22.5243 16.6825 22.5849 16.6057L22.5867 16.6035L26.234 12.0678L28.3585 9.47734L30.1817 7.2199C30.1817 7.2199 31.0184 6.09906 31.2569 5.86749C31.2884 5.83693 31.3205 5.81349 31.3524 5.79439L31.4002 5.76866L31.435 5.75099L31.441 5.7486C31.5413 5.70515 31.6568 5.69584 31.7683 5.73356ZM141.701 21.1573C140.456 21.1573 139.51 21.506 138.862 22.2034C138.215 22.9005 137.83 23.8843 137.705 25.1543H145.249C145.199 23.9588 144.869 22.9941 144.259 22.2597C143.649 21.5251 142.796 21.1573 141.701 21.1573Z" fill="#0058CC"/>
</svg>
