<svg width="184" height="65" viewBox="0 0 184 65" fill="none" xmlns="http://www.w3.org/2000/svg">
<path d="M23.2416 37.6821C23.2416 38.8384 22.9971 39.9131 22.5079 40.9061C22.0188 41.8856 21.3258 42.729 20.4562 43.4091C19.573 44.1028 18.5268 44.6333 17.3176 45.0143C16.1083 45.3951 14.7768 45.5856 13.3365 45.5856C11.611 45.5856 10.062 45.3543 8.70332 44.8783C7.34461 44.4157 5.97228 43.6267 4.59998 42.5385L6.86905 38.852C7.95602 39.7635 8.93429 40.4301 9.81746 40.8517C10.687 41.2735 11.5838 41.4775 12.5077 41.4775C13.6355 41.4775 14.5322 41.1917 15.2252 40.6068C15.9181 40.0219 16.2442 39.2465 16.2442 38.2534C16.2442 37.8318 16.1763 37.4373 16.054 37.07C15.9317 36.7026 15.7007 36.3218 15.3746 35.9273C15.0485 35.5465 14.5866 35.1112 14.0023 34.6623C13.4317 34.2133 12.6844 33.642 11.7604 32.9753C11.0675 32.4857 10.3745 31.9687 9.70876 31.4518C9.04299 30.9213 8.44516 30.3635 7.88809 29.765C7.34461 29.1664 6.9098 28.5 6.57012 27.7517C6.24403 27.0172 6.0674 26.1601 6.0674 25.2216C6.0674 24.1333 6.29839 23.1266 6.74676 22.2288C7.19513 21.331 7.82015 20.5692 8.6082 19.9298C9.39625 19.2905 10.3338 18.8008 11.4479 18.4471C12.5485 18.0934 13.7442 17.9166 15.0485 17.9166C16.4208 17.9166 17.7388 18.0934 19.016 18.4607C20.2931 18.828 21.4752 19.3585 22.5759 20.0659L20.5241 23.3851C19.1247 22.4056 17.6437 21.9023 16.0947 21.9023C15.1572 21.9023 14.3692 22.1472 13.7578 22.6369C13.1463 23.1266 12.8338 23.7388 12.8338 24.4869C12.8338 25.1943 13.1056 25.8337 13.649 26.3914C14.1925 26.9627 15.1301 27.7382 16.4616 28.7719C17.8067 29.7514 18.9209 30.6221 19.7905 31.3566C20.6736 32.0911 21.3666 32.7986 21.8829 33.4515C22.3992 34.1045 22.7389 34.7574 22.9427 35.4376C23.1464 36.1313 23.2416 36.8659 23.2416 37.6821ZM46.5436 31.4655C46.5436 32.4857 46.4349 33.5876 46.2176 34.771C46.0137 35.9546 45.6469 37.0428 45.1306 38.0494C44.6143 39.056 43.9485 39.8859 43.1197 40.5252C42.2909 41.1781 41.231 41.5046 39.9675 41.5046C37.8478 41.5046 36.1766 40.6612 34.9538 38.9609C33.7309 37.2741 33.1195 34.9479 33.1195 31.996C33.1195 28.9624 33.7309 26.5682 34.9809 24.7862C36.2174 23.0041 37.9022 22.1199 40.0218 22.1199C42.0328 22.1199 43.6224 22.9633 44.7909 24.623C45.9595 26.2962 46.5436 28.5816 46.5436 31.4655ZM53.9079 31.2069C53.9079 29.2345 53.6226 27.4388 53.0655 25.8337C52.4948 24.2149 51.7068 22.8274 50.6605 21.6575C49.6144 20.4876 48.3915 19.5898 46.9648 18.9368C45.5381 18.2839 43.9621 17.9574 42.2365 17.9574C40.3343 17.9574 38.6631 18.3247 37.2229 19.032C35.7827 19.753 34.4375 20.882 33.2145 22.4328L33.1739 18.5831H26.3938V58.1551H33.1603V41.4367C33.8261 42.212 34.4646 42.8649 35.0897 43.3956C35.701 43.9261 36.3261 44.3614 36.9648 44.6878C37.6033 45.0143 38.269 45.2591 38.9756 45.3953C39.6821 45.5312 40.443 45.5993 41.2446 45.5993C43.0381 45.5993 44.723 45.2319 46.2719 44.5246C47.8209 43.8036 49.1659 42.797 50.2937 41.491C51.4214 40.1851 52.3046 38.6615 52.9433 36.9339C53.5955 35.1928 53.9079 33.2747 53.9079 31.2069ZM56.9243 44.9599H63.8809V6.24496H56.9243V44.9599ZM93.5554 44.9735V18.5559H86.5987V32.7713C86.5987 34.0365 86.5444 35.0158 86.4357 35.7097C86.3269 36.4034 86.1503 37.0155 85.9057 37.587C84.9275 39.7635 83.1203 40.8652 80.498 40.8652C78.4464 40.8652 77.0197 40.1307 76.2045 38.648C75.8784 38.0902 75.661 37.4509 75.5387 36.7434C75.4164 36.0362 75.3485 35.0158 75.3485 33.6692V18.5559H68.3918V33.5603C68.3918 34.5805 68.4054 35.4512 68.4191 36.145C68.4327 36.8388 68.487 37.4781 68.5549 38.0222C68.6228 38.5663 68.7043 39.056 68.7995 39.4778C68.881 39.8994 69.0169 40.3075 69.1936 40.6885C69.8321 42.3072 70.8511 43.5315 72.2778 44.3614C73.7044 45.1911 75.4572 45.5993 77.5225 45.5993C79.384 45.5993 81.0279 45.2727 82.441 44.6198C83.8541 43.9669 85.2264 42.9057 86.5579 41.423L86.5715 44.9599L93.5554 44.9735ZM123.529 44.9599V29.9827C123.529 28.9624 123.515 28.0918 123.501 27.3708C123.488 26.6498 123.447 26.0242 123.366 25.4937C123.298 24.963 123.203 24.5006 123.108 24.1061C122.999 23.698 122.877 23.3035 122.741 22.9225C122.102 21.3446 121.083 20.1203 119.656 19.2633C118.23 18.4063 116.477 17.971 114.398 17.971C112.537 17.971 110.893 18.2975 109.48 18.9504C108.066 19.6034 106.694 20.678 105.363 22.1472L105.349 18.6103H98.3516V44.9735H105.363V30.7445C105.363 29.5202 105.403 28.5543 105.498 27.8742C105.58 27.194 105.757 26.5546 106.001 25.9425C106.45 24.8814 107.156 24.0925 108.094 23.5483C109.031 23.0041 110.145 22.7322 111.45 22.7322C113.501 22.7322 114.928 23.4667 115.743 24.9495C116.056 25.5072 116.273 26.1466 116.395 26.8403C116.518 27.5342 116.586 28.5679 116.586 29.9011V44.9462L123.529 44.9599ZM152.306 43.2186L141.708 30.0371L150.662 20.4332L145.391 18.1614L136.07 28.976H135.336V6.24496H128.325V44.9599H135.336V30.9348L145.825 45.4904L152.306 43.2186ZM179.4 33.7508V29.4385L158.326 18.8552V23.6027L174.657 31.5606L158.326 39.6273V44.2661L179.4 33.7508ZM160.363 12.0128C159.073 12.0128 158.026 13.0738 158.026 14.3797C158.026 15.7128 159.073 16.7603 160.363 16.7603C161.668 16.7603 162.701 15.7128 162.701 14.3797C162.701 13.0602 161.668 12.0128 160.363 12.0128ZM160.378 12.38C161.423 12.38 162.265 13.2779 162.265 14.3933C162.265 15.5088 161.423 16.4066 160.378 16.393C159.318 16.393 158.474 15.5088 158.474 14.3797C158.474 13.2779 159.318 12.38 160.378 12.38ZM159.929 14.6246H160.213C160.554 14.6246 160.717 14.747 160.784 15.0871C160.839 15.4408 160.907 15.672 160.962 15.7537H161.41C161.368 15.672 161.301 15.5088 161.247 15.1007C161.193 14.7062 161.043 14.5022 160.799 14.4614V14.4341C161.084 14.3525 161.315 14.1349 161.315 13.7948C161.315 13.5499 161.233 13.3595 161.07 13.2506C160.907 13.1282 160.649 13.0466 160.255 13.0466C159.942 13.0466 159.725 13.0738 159.508 13.1146V15.7537H159.929V14.6246ZM159.929 13.4003C159.997 13.3867 160.092 13.3731 160.228 13.3731C160.704 13.3731 160.867 13.6043 160.867 13.8356C160.867 14.1621 160.567 14.2845 160.228 14.2845H159.929V13.4003Z" fill="#0C1724"/>
</svg>
