<svg width="285" height="42" viewBox="0 0 285 42" fill="none" xmlns="http://www.w3.org/2000/svg">
<path d="M52.0278 26.6422C52.202 26.6128 52.3541 26.5564 52.4866 26.4705C52.619 26.3871 52.7221 26.2693 52.8006 26.1197C52.8791 25.97 52.9184 25.7689 52.9184 25.5162V15.1656C52.2363 15.1411 51.7432 15.1239 51.4439 15.1117C51.1446 15.0994 50.9631 15.0945 50.9042 15.0945C50.1976 15.1068 49.6849 15.3276 49.3684 15.7544C49.0519 16.1838 48.8679 16.7407 48.8213 17.4301H48.6398L48.7305 14.805C49.0053 14.7927 49.2605 14.7878 49.4935 14.7878C49.7266 14.7878 49.9449 14.7878 50.151 14.7878C50.6294 14.7878 51.0489 14.7927 51.4096 14.805C51.7702 14.8173 52.0891 14.8271 52.3713 14.832C52.6534 14.8369 52.9061 14.8467 53.1342 14.859C53.3624 14.8712 53.5881 14.8762 53.8163 14.8762C54.0444 14.8762 54.2726 14.8712 54.4983 14.859C54.7264 14.8467 54.984 14.8369 55.2711 14.832C55.5581 14.8271 55.8844 14.8173 56.25 14.805C56.6155 14.7927 57.0497 14.7878 57.5527 14.7878C57.7686 14.7878 57.9967 14.7878 58.2347 14.7878C58.4727 14.7878 58.7327 14.7927 59.0075 14.805L59.1154 17.4301H58.9363C58.9118 17.1283 58.8578 16.8364 58.7744 16.5518C58.691 16.2672 58.5634 16.0145 58.3966 15.7912C58.2298 15.568 58.0163 15.3889 57.7587 15.2564C57.5011 15.1239 57.192 15.0577 56.8338 15.0577C56.775 15.0577 56.5811 15.0675 56.2598 15.0847C55.9359 15.1019 55.433 15.1288 54.751 15.1656V25.5162C54.751 25.7689 54.7902 25.97 54.8687 26.1197C54.9472 26.2693 55.0527 26.3871 55.1828 26.4705C55.3152 26.5539 55.4673 26.6104 55.6415 26.6422C55.8157 26.6717 55.9973 26.6864 56.1911 26.6864V26.8655C55.8304 26.8655 55.5434 26.863 55.3275 26.8557C55.1116 26.8508 54.9252 26.841 54.7706 26.8287C54.6136 26.8164 54.4688 26.8066 54.3315 26.8017C54.1941 26.7968 54.0297 26.7919 53.8359 26.7919C53.6323 26.7919 53.463 26.7944 53.333 26.8017C53.2005 26.8066 53.0582 26.8164 52.9012 26.8287C52.7442 26.841 52.5602 26.8508 52.3443 26.8557C52.1284 26.8606 51.8413 26.8655 51.4807 26.8655V26.6864C51.6721 26.6864 51.8536 26.6717 52.0278 26.6422Z" fill="#00263A"/>
<path d="M69.3801 14.8418C69.7407 14.8418 70.0278 14.8443 70.2437 14.8516C70.4595 14.859 70.646 14.8663 70.8006 14.8786C70.9576 14.8909 71.0999 14.9007 71.2323 14.9056C71.3648 14.9105 71.5316 14.9154 71.7353 14.9154C71.9266 14.9154 72.091 14.913 72.2308 14.9056C72.3682 14.9007 72.5154 14.8909 72.6724 14.8786C72.827 14.8663 73.0134 14.859 73.2293 14.8516C73.4452 14.8467 73.7323 14.8418 74.0929 14.8418V15.0209C73.9015 15.0209 73.7175 15.0356 73.5458 15.0651C73.3716 15.0945 73.2195 15.1509 73.087 15.2368C72.9546 15.3202 72.8515 15.438 72.773 15.5876C72.6945 15.7373 72.6553 15.9384 72.6553 16.1911V25.5186C72.6553 25.7713 72.6945 25.97 72.773 26.1197C72.8515 26.2693 72.9546 26.3871 73.087 26.4705C73.2195 26.5539 73.3716 26.6104 73.5458 26.6422C73.72 26.6717 73.9015 26.6864 74.0929 26.6864V26.8655C73.7323 26.8655 73.4452 26.863 73.2293 26.8557C73.0134 26.8508 72.827 26.841 72.6724 26.8287C72.5154 26.8164 72.3707 26.8066 72.2308 26.8017C72.0935 26.7968 71.9291 26.7919 71.7353 26.7919C71.5316 26.7919 71.3648 26.7944 71.2323 26.8017C71.0999 26.8066 70.9576 26.8164 70.8006 26.8287C70.6435 26.841 70.4595 26.8508 70.2437 26.8557C70.0278 26.8606 69.7407 26.8655 69.3801 26.8655V26.6864C69.5714 26.6864 69.7554 26.6717 69.9272 26.6422C70.1014 26.6128 70.2535 26.5564 70.386 26.4705C70.5184 26.3871 70.6239 26.2693 70.7 26.1197C70.7785 25.97 70.8177 25.7689 70.8177 25.5186V20.8622H65.2095V25.5186C65.2095 25.7713 65.2487 25.97 65.3272 26.1197C65.4057 26.2693 65.5088 26.3871 65.6412 26.4705C65.7737 26.5539 65.9258 26.6104 66.1 26.6422C66.2742 26.6717 66.4557 26.6864 66.6471 26.6864V26.8655C66.2865 26.8655 65.9994 26.863 65.7835 26.8557C65.5676 26.8508 65.3812 26.841 65.2266 26.8287C65.0696 26.8164 64.9249 26.8066 64.785 26.8017C64.6476 26.7968 64.4833 26.7919 64.2895 26.7919C64.0858 26.7919 63.919 26.7944 63.7865 26.8017C63.6541 26.8066 63.5118 26.8164 63.3547 26.8287C63.1977 26.841 63.0137 26.8508 62.7978 26.8557C62.582 26.8606 62.2949 26.8655 61.9343 26.8655V26.6864C62.1256 26.6864 62.3096 26.6717 62.4814 26.6422C62.6556 26.6128 62.8077 26.5564 62.9401 26.4705C63.0726 26.3871 63.1781 26.2693 63.2542 26.1197C63.3327 25.97 63.3719 25.7689 63.3719 25.5186V16.1887C63.3719 15.936 63.3327 15.7373 63.2542 15.5852C63.1757 15.4355 63.0702 15.3177 62.9401 15.2343C62.8077 15.1509 62.6556 15.0945 62.4814 15.0626C62.3072 15.0332 62.1256 15.0184 61.9343 15.0184V14.8394C62.2949 14.8394 62.582 14.8418 62.7978 14.8492C63.0137 14.8565 63.2002 14.8639 63.3547 14.8762C63.5118 14.8884 63.6541 14.8982 63.7865 14.9031C63.919 14.908 64.0858 14.913 64.2895 14.913C64.4808 14.913 64.6452 14.9105 64.785 14.9031C64.9224 14.8982 65.0696 14.8884 65.2266 14.8762C65.3812 14.8639 65.5676 14.8565 65.7835 14.8492C65.9994 14.8443 66.2865 14.8394 66.6471 14.8394V15.0184C66.4557 15.0184 66.2717 15.0332 66.1 15.0626C65.9258 15.092 65.7737 15.1485 65.6412 15.2343C65.5088 15.3177 65.4033 15.4355 65.3272 15.5852C65.2487 15.7348 65.2095 15.936 65.2095 16.1887V20.5384H70.8177V16.1887C70.8177 15.936 70.7785 15.7373 70.7 15.5852C70.6215 15.4355 70.516 15.3177 70.386 15.2343C70.2535 15.1509 70.1014 15.0945 69.9272 15.0626C69.753 15.0332 69.5714 15.0184 69.3801 15.0184V14.8418Z" fill="#00263A"/>
<path d="M81.7104 20.4844C82.2502 20.4844 82.6476 20.3495 82.9052 20.0796C83.1628 19.8098 83.2904 19.4295 83.2904 18.9388H83.4695C83.4695 19.2136 83.467 19.4418 83.4597 19.6209C83.4548 19.8 83.4474 19.9496 83.4425 20.0698C83.4376 20.19 83.4302 20.2906 83.4253 20.3765C83.4204 20.4599 83.4155 20.5531 83.4155 20.6562C83.4155 20.7567 83.418 20.8475 83.4253 20.926C83.4302 21.0045 83.4376 21.1002 83.4425 21.2131C83.4474 21.3259 83.4548 21.4707 83.4597 21.6448C83.4646 21.819 83.4695 22.0423 83.4695 22.3195H83.2904C83.2904 21.8534 83.1604 21.4829 82.9052 21.2155C82.6476 20.9457 82.2477 20.8107 81.7104 20.8107H80.4887V24.687C80.4887 25.1163 80.5279 25.4573 80.6064 25.7149C80.685 25.97 80.8223 26.1614 81.0211 26.2865C81.2198 26.4116 81.4798 26.4926 81.8037 26.5269C82.1275 26.5637 82.5348 26.5809 83.0254 26.5809C83.4572 26.5809 83.862 26.5662 84.2374 26.5368C84.6152 26.5073 84.9488 26.4214 85.2359 26.2792C85.5229 26.1369 85.7609 25.9136 85.9449 25.6094C86.1313 25.3052 86.2466 24.8881 86.2957 24.3533H86.4944L86.3497 26.8704C85.8099 26.8827 85.3315 26.89 84.912 26.8974C84.4925 26.9023 84.0362 26.9072 83.5455 26.9072C82.5274 26.9072 81.7055 26.8925 81.0824 26.863C80.4593 26.8336 79.9563 26.8189 79.5736 26.8189C79.3822 26.8189 79.2179 26.8213 79.0805 26.8287C78.9431 26.8336 78.7959 26.841 78.6389 26.8459C78.4819 26.8508 78.2979 26.8581 78.082 26.863C77.8661 26.868 77.5791 26.8729 77.2184 26.8729V26.6938C77.4098 26.6938 77.5938 26.679 77.7655 26.6496C77.9397 26.6202 78.0918 26.5637 78.2243 26.4779C78.3568 26.3945 78.4623 26.2767 78.5383 26.1271C78.6168 25.9774 78.6561 25.7762 78.6561 25.526V16.1887C78.6561 15.936 78.6168 15.7373 78.5383 15.5852C78.4598 15.4355 78.3543 15.3177 78.2243 15.2343C78.0918 15.1509 77.9397 15.0945 77.7655 15.0626C77.5913 15.0332 77.4098 15.0184 77.2184 15.0184V14.8394C77.5791 14.8394 77.8612 14.8418 78.0722 14.8492C78.2832 14.8565 78.4623 14.8614 78.6119 14.8663C78.7616 14.8712 78.9014 14.8786 79.0339 14.8835C79.1664 14.8884 79.3283 14.8933 79.5196 14.8933C79.9269 14.8933 80.42 14.8762 81.0014 14.8394C81.5829 14.8026 82.233 14.7854 82.9518 14.7854C83.4204 14.7854 83.8424 14.7903 84.2177 14.8026C84.5955 14.8148 85.0224 14.8271 85.5033 14.8394L85.6112 17.1749H85.4321C85.3953 16.7235 85.2996 16.3604 85.1451 16.0881C84.9881 15.8158 84.7795 15.6072 84.5146 15.4649C84.2521 15.3227 83.9454 15.227 83.597 15.1804C83.2487 15.1338 82.866 15.1092 82.4464 15.1092C82.3385 15.1092 82.2134 15.1117 82.0686 15.119C81.9239 15.1239 81.7816 15.1313 81.6368 15.1362C81.4921 15.1411 81.3547 15.1509 81.2247 15.1632C81.0922 15.1755 80.9843 15.1877 80.9009 15.2C80.6261 15.2368 80.4887 15.3963 80.4887 15.6833V20.4844H81.7104Z" fill="#00263A"/>
<path d="M102.829 14.8418C103.189 14.8418 103.476 14.8443 103.692 14.8516C103.908 14.859 104.094 14.8663 104.249 14.8786C104.406 14.8909 104.548 14.9007 104.681 14.9056C104.813 14.9105 104.98 14.9154 105.184 14.9154C105.375 14.9154 105.539 14.913 105.679 14.9056C105.817 14.9007 105.964 14.8909 106.121 14.8786C106.275 14.8663 106.462 14.859 106.678 14.8516C106.894 14.8467 107.181 14.8418 107.541 14.8418V15.0209C107.35 15.0209 107.166 15.0356 106.994 15.0651C106.82 15.0945 106.668 15.1509 106.536 15.2368C106.403 15.3202 106.3 15.438 106.222 15.5876C106.143 15.7373 106.104 15.9384 106.104 16.1911V25.5186C106.104 25.7713 106.143 25.97 106.222 26.1197C106.3 26.2693 106.403 26.3871 106.536 26.4705C106.668 26.5539 106.82 26.6104 106.994 26.6422C107.168 26.6717 107.35 26.6864 107.541 26.6864V26.8655C107.181 26.8655 106.894 26.863 106.678 26.8557C106.462 26.8508 106.275 26.841 106.121 26.8287C105.964 26.8164 105.819 26.8066 105.679 26.8017C105.542 26.7968 105.378 26.7919 105.184 26.7919C104.98 26.7919 104.813 26.7944 104.681 26.8017C104.548 26.8066 104.406 26.8164 104.249 26.8287C104.092 26.841 103.908 26.8508 103.692 26.8557C103.476 26.8606 103.189 26.8655 102.829 26.8655V26.6864C103.02 26.6864 103.204 26.6717 103.376 26.6422C103.547 26.6128 103.702 26.5564 103.834 26.4705C103.967 26.3871 104.072 26.2693 104.148 26.1197C104.227 25.97 104.266 25.7689 104.266 25.5186V20.8622H98.6579V25.5186C98.6579 25.7713 98.6972 25.97 98.7757 26.1197C98.8542 26.2693 98.9572 26.3871 99.0897 26.4705C99.2222 26.5539 99.3743 26.6104 99.5485 26.6422C99.7227 26.6717 99.9042 26.6864 100.096 26.6864V26.8655C99.7349 26.8655 99.4479 26.863 99.232 26.8557C99.0161 26.8508 98.8297 26.841 98.6751 26.8287C98.5181 26.8164 98.3734 26.8066 98.2335 26.8017C98.0961 26.7968 97.9318 26.7919 97.7379 26.7919C97.5343 26.7919 97.3675 26.7944 97.235 26.8017C97.1025 26.8066 96.9602 26.8164 96.8032 26.8287C96.6462 26.841 96.4622 26.8508 96.2463 26.8557C96.0304 26.8606 95.7434 26.8655 95.3828 26.8655V26.6864C95.5741 26.6864 95.7581 26.6717 95.9299 26.6422C96.1016 26.6128 96.2561 26.5564 96.3886 26.4705C96.5211 26.3871 96.6266 26.2693 96.7026 26.1197C96.7812 25.97 96.8204 25.7689 96.8204 25.5186V16.1887C96.8204 15.936 96.7812 15.7373 96.7026 15.5852C96.6241 15.4355 96.5187 15.3177 96.3886 15.2343C96.2561 15.1509 96.104 15.0945 95.9299 15.0626C95.7557 15.0332 95.5741 15.0184 95.3828 15.0184V14.8394C95.7434 14.8394 96.0304 14.8418 96.2463 14.8492C96.4622 14.8565 96.6487 14.8639 96.8032 14.8762C96.9602 14.8884 97.1025 14.8982 97.235 14.9031C97.3675 14.908 97.5343 14.913 97.7379 14.913C97.9293 14.913 98.0937 14.9105 98.2335 14.9031C98.3709 14.8982 98.5181 14.8884 98.6751 14.8762C98.8297 14.8639 99.0161 14.8565 99.232 14.8492C99.4479 14.8443 99.7349 14.8394 100.096 14.8394V15.0184C99.9042 15.0184 99.7202 15.0332 99.5485 15.0626C99.3743 15.092 99.2222 15.1485 99.0897 15.2343C98.9572 15.3177 98.8517 15.4355 98.7757 15.5852C98.6972 15.7348 98.6579 15.936 98.6579 16.1887V20.5384H104.266V16.1887C104.266 15.936 104.227 15.7373 104.148 15.5852C104.07 15.4355 103.964 15.3177 103.834 15.2343C103.702 15.1509 103.55 15.0945 103.376 15.0626C103.201 15.0332 103.02 15.0184 102.829 15.0184V14.8418Z" fill="#00263A"/>
<path d="M109.911 26.6864C110.775 26.6864 111.373 26.2374 111.71 25.3395L115.735 14.6087H116.076L120.139 25.2488C120.343 25.7762 120.571 26.1467 120.821 26.3626C121.074 26.5785 121.415 26.6864 121.847 26.6864V26.8655C121.486 26.8655 121.201 26.863 120.993 26.8557C120.782 26.8508 120.603 26.8434 120.453 26.8385C120.304 26.8336 120.166 26.8262 120.039 26.8213C119.913 26.8164 119.759 26.8115 119.58 26.8115C119.401 26.8115 119.246 26.814 119.121 26.8213C118.996 26.8262 118.856 26.8336 118.706 26.8385C118.557 26.8434 118.368 26.8508 118.14 26.8557C117.912 26.8606 117.607 26.8655 117.222 26.8655V26.6864C117.367 26.6864 117.507 26.6766 117.644 26.6594C117.782 26.6422 117.912 26.6054 118.032 26.5515C118.152 26.4975 118.248 26.419 118.319 26.3184C118.39 26.2178 118.427 26.0878 118.427 25.9308C118.427 25.7983 118.405 25.6609 118.363 25.5186C118.321 25.3739 118.277 25.2439 118.228 25.1236L117.06 22.0496H113.285L112.097 25.3199C112.026 25.5358 111.989 25.7223 111.989 25.8768C111.989 26.0436 112.026 26.1835 112.097 26.289C112.168 26.3969 112.259 26.4803 112.367 26.5417C112.475 26.603 112.598 26.6398 112.735 26.6594C112.872 26.6766 113.007 26.6864 113.14 26.6864V26.8655C112.887 26.8655 112.684 26.863 112.529 26.8557C112.372 26.8508 112.242 26.8434 112.134 26.8385C112.026 26.8336 111.928 26.8262 111.837 26.8213C111.746 26.8164 111.643 26.8115 111.523 26.8115C111.391 26.8115 111.28 26.814 111.189 26.8213C111.099 26.8262 111.001 26.8336 110.893 26.8385C110.785 26.8434 110.652 26.8508 110.498 26.8557C110.341 26.8606 110.144 26.8655 109.904 26.8655V26.6864H109.911ZM116.957 21.7258L115.233 16.856L113.4 21.7258H116.957Z" fill="#00263A"/>
<path d="M131.255 15.4968C131.25 15.7176 131.245 15.9384 131.245 16.1519C131.245 16.38 131.26 16.6376 131.289 16.9247C131.319 17.2117 131.334 17.4816 131.334 17.7343H131.118C131.081 17.3883 130.985 17.0498 130.831 16.7161C130.674 16.3825 130.475 16.0832 130.23 15.8133C129.984 15.5459 129.697 15.3325 129.366 15.1706C129.037 15.0111 128.674 14.9301 128.279 14.9301C127.968 14.9301 127.676 14.989 127.408 15.1092C127.138 15.2294 126.908 15.3864 126.716 15.5852C126.525 15.7814 126.375 16.0169 126.268 16.2917C126.16 16.5665 126.106 16.8535 126.106 17.1528C126.106 17.5944 126.218 17.9624 126.447 18.2544C126.675 18.5463 126.962 18.7941 127.31 18.9977C127.659 19.2013 128.034 19.3829 128.441 19.5448C128.848 19.7067 129.231 19.876 129.592 20.0551C129.962 20.2465 130.313 20.4501 130.644 20.666C130.973 20.8819 131.258 21.1272 131.498 21.402C131.738 21.6767 131.93 21.9981 132.075 22.3637C132.219 22.7292 132.29 23.1634 132.29 23.6664C132.29 24.1693 132.187 24.6305 131.984 25.05C131.78 25.4696 131.498 25.8302 131.14 26.1295C130.779 26.4288 130.355 26.6619 129.864 26.8312C129.373 26.998 128.834 27.0838 128.247 27.0838C127.649 27.0838 127.111 26.9857 126.638 26.787C126.164 26.5883 125.693 26.3356 125.227 26.024L124.815 26.7257H124.636C124.636 26.3552 124.641 26.0608 124.653 25.8449C124.666 25.629 124.67 25.4009 124.67 25.1629C124.67 24.9102 124.666 24.6379 124.653 24.3459C124.641 24.0515 124.636 23.713 124.636 23.3303H124.852C124.877 23.7866 124.97 24.2208 125.132 24.633C125.294 25.0451 125.514 25.4082 125.797 25.7198C126.079 26.0314 126.417 26.2841 126.812 26.4754C127.207 26.6668 127.656 26.7625 128.159 26.7625C128.529 26.7625 128.88 26.7036 129.212 26.5834C129.54 26.4632 129.83 26.2939 130.075 26.0706C130.32 25.8498 130.512 25.5873 130.652 25.288C130.789 24.9887 130.858 24.66 130.858 24.2993C130.858 23.9289 130.767 23.5977 130.588 23.3106C130.409 23.0236 130.178 22.7685 129.896 22.5477C129.614 22.3269 129.3 22.1281 128.951 21.954C128.603 21.7798 128.269 21.6154 127.946 21.4584C127.563 21.2793 127.185 21.0806 126.812 20.8647C126.442 20.6488 126.108 20.3986 125.816 20.1091C125.522 19.822 125.286 19.4884 125.105 19.1106C124.926 18.7328 124.835 18.2863 124.835 17.7711C124.835 17.3393 124.928 16.932 125.114 16.5493C125.301 16.1666 125.549 15.8305 125.86 15.5435C126.172 15.2564 126.53 15.0283 126.937 14.8614C127.345 14.6946 127.771 14.6087 128.213 14.6087C128.669 14.6087 129.106 14.6897 129.526 14.8516C129.945 15.0135 130.34 15.2442 130.71 15.5435L131.088 14.8614H131.267C131.262 15.0626 131.26 15.276 131.255 15.4968Z" fill="#00263A"/>
<path d="M138.461 26.6422C138.635 26.6128 138.787 26.5564 138.919 26.4705C139.052 26.3871 139.155 26.2693 139.233 26.1197C139.312 25.97 139.351 25.7689 139.351 25.5162V15.1656C138.669 15.1411 138.176 15.1239 137.877 15.1117C137.577 15.0994 137.396 15.0945 137.337 15.0945C136.63 15.1068 136.118 15.3276 135.801 15.7544C135.485 16.1838 135.301 16.7407 135.254 17.4301H135.075L135.166 14.805C135.44 14.7927 135.696 14.7878 135.929 14.7878C136.162 14.7878 136.38 14.7878 136.586 14.7878C137.065 14.7878 137.484 14.7927 137.845 14.805C138.205 14.8173 138.524 14.8271 138.806 14.832C139.089 14.8369 139.341 14.8467 139.569 14.859C139.798 14.8712 140.023 14.8762 140.251 14.8762C140.48 14.8762 140.708 14.8712 140.933 14.859C141.162 14.8467 141.419 14.8369 141.706 14.832C141.993 14.8271 142.32 14.8173 142.685 14.805C143.051 14.7927 143.485 14.7878 143.988 14.7878C144.204 14.7878 144.432 14.7878 144.67 14.7878C144.908 14.7878 145.168 14.7927 145.443 14.805L145.551 17.4301H145.371C145.347 17.1283 145.293 16.8364 145.21 16.5518C145.126 16.2672 144.999 16.0145 144.832 15.7912C144.665 15.568 144.451 15.3889 144.194 15.2564C143.936 15.1239 143.627 15.0577 143.269 15.0577C143.21 15.0577 143.016 15.0675 142.695 15.0847C142.371 15.1019 141.868 15.1288 141.186 15.1656V25.5162C141.186 25.7689 141.225 25.97 141.304 26.1197C141.382 26.2693 141.488 26.3871 141.618 26.4705C141.75 26.5539 141.903 26.6104 142.077 26.6422C142.251 26.6717 142.432 26.6864 142.626 26.6864V26.8655C142.266 26.8655 141.979 26.863 141.763 26.8557C141.547 26.8508 141.36 26.841 141.206 26.8287C141.049 26.8164 140.904 26.8066 140.767 26.8017C140.629 26.7968 140.465 26.7919 140.271 26.7919C140.067 26.7919 139.898 26.7944 139.768 26.8017C139.636 26.8066 139.493 26.8164 139.336 26.8287C139.179 26.841 138.995 26.8508 138.779 26.8557C138.564 26.8606 138.277 26.8655 137.916 26.8655V26.6864C138.105 26.6864 138.286 26.6717 138.461 26.6422Z" fill="#00263A"/>
<path d="M148.374 14.8418C148.735 14.8418 149.022 14.8443 149.238 14.8516C149.454 14.859 149.64 14.8663 149.795 14.8786C149.952 14.8909 150.094 14.9007 150.227 14.9056C150.359 14.9105 150.526 14.9154 150.73 14.9154C150.921 14.9154 151.085 14.913 151.225 14.9056C151.362 14.9007 151.51 14.8909 151.667 14.8786C151.821 14.8663 152.008 14.859 152.224 14.8516C152.439 14.8467 152.727 14.8418 153.087 14.8418V15.0209C152.896 15.0209 152.712 15.0356 152.54 15.0651C152.366 15.0945 152.214 15.1509 152.081 15.2368C151.949 15.3202 151.843 15.438 151.767 15.5876C151.689 15.7373 151.65 15.9384 151.65 16.1911V25.5186C151.65 25.7713 151.689 25.97 151.767 26.1197C151.846 26.2693 151.949 26.3871 152.081 26.4705C152.214 26.5539 152.366 26.6104 152.54 26.6422C152.714 26.6717 152.896 26.6864 153.087 26.6864V26.8655C152.727 26.8655 152.439 26.863 152.224 26.8557C152.008 26.8508 151.821 26.841 151.667 26.8287C151.51 26.8164 151.365 26.8066 151.225 26.8017C151.088 26.7968 150.923 26.7919 150.73 26.7919C150.526 26.7919 150.359 26.7944 150.227 26.8017C150.094 26.8066 149.952 26.8164 149.795 26.8287C149.638 26.841 149.454 26.8508 149.238 26.8557C149.022 26.8606 148.735 26.8655 148.374 26.8655V26.6864C148.566 26.6864 148.75 26.6717 148.921 26.6422C149.093 26.6128 149.248 26.5564 149.38 26.4705C149.513 26.3871 149.618 26.2693 149.694 26.1197C149.773 25.97 149.812 25.7689 149.812 25.5186V16.1887C149.812 15.936 149.773 15.7373 149.694 15.5852C149.616 15.4355 149.51 15.3177 149.38 15.2343C149.248 15.1509 149.096 15.0945 148.921 15.0626C148.747 15.0332 148.566 15.0184 148.374 15.0184V14.8418Z" fill="#00263A"/>
<path d="M156.936 26.6422C157.111 26.6128 157.263 26.5564 157.395 26.4705C157.528 26.3871 157.633 26.2693 157.709 26.1197C157.788 25.97 157.827 25.7689 157.827 25.5186V16.2794L157.432 15.7765C157.265 15.5606 157.081 15.3815 156.882 15.2368C156.684 15.092 156.431 15.0209 156.119 15.0209V14.8418C156.335 14.8418 156.522 14.8443 156.676 14.8516C156.831 14.859 156.973 14.8639 157.098 14.8688C157.223 14.8737 157.339 14.8811 157.439 14.886C157.54 14.8909 157.658 14.8958 157.79 14.8958C157.91 14.8958 158.011 14.8933 158.097 14.886C158.18 14.8811 158.264 14.8737 158.35 14.8688C158.433 14.8639 158.524 14.8565 158.619 14.8516C158.715 14.8467 158.835 14.8418 158.98 14.8418L166.458 24.0442V16.1887C166.458 15.936 166.418 15.7373 166.34 15.5852C166.261 15.4355 166.156 15.3177 166.026 15.2343C165.893 15.1509 165.741 15.0945 165.567 15.0626C165.393 15.0332 165.211 15.0184 165.018 15.0184V14.8394C165.258 14.8394 165.449 14.8418 165.594 14.8492C165.739 14.8565 165.864 14.8614 165.972 14.8663C166.08 14.8712 166.181 14.8786 166.279 14.8835C166.374 14.8884 166.487 14.8933 166.62 14.8933C166.752 14.8933 166.865 14.8909 166.961 14.8835C167.056 14.8786 167.159 14.8712 167.267 14.8663C167.375 14.8614 167.503 14.8541 167.655 14.8492C167.805 14.8443 167.998 14.8394 168.239 14.8394V15.0184C168.047 15.0184 167.863 15.0332 167.689 15.0626C167.515 15.092 167.363 15.1485 167.231 15.2343C167.098 15.3177 166.995 15.4355 166.916 15.5852C166.838 15.7348 166.799 15.936 166.799 16.1887V27.0814H166.475L158.17 16.6744V25.5186C158.17 25.7713 158.21 25.97 158.288 26.1197C158.367 26.2693 158.472 26.3871 158.602 26.4705C158.735 26.5539 158.887 26.6104 159.061 26.6422C159.235 26.6717 159.417 26.6864 159.611 26.6864V26.8655C159.37 26.8655 159.176 26.863 159.027 26.8557C158.877 26.8508 158.747 26.8434 158.641 26.8385C158.534 26.8336 158.43 26.8262 158.335 26.8213C158.239 26.8164 158.124 26.8115 157.994 26.8115C157.861 26.8115 157.748 26.814 157.653 26.8213C157.557 26.8262 157.454 26.8336 157.346 26.8385C157.238 26.8434 157.113 26.8508 156.968 26.8557C156.824 26.8606 156.632 26.8655 156.394 26.8655V26.6864C156.581 26.6864 156.765 26.6717 156.936 26.6422Z" fill="#00263A"/>
<path d="M182.127 23.632C182.127 23.9559 182.13 24.3116 182.137 24.7017C182.142 25.0918 182.159 25.4058 182.181 25.6462C181.762 25.683 181.369 25.7787 181.003 25.9332C180.638 26.0903 180.26 26.2546 179.872 26.4288C179.482 26.603 179.06 26.7576 178.604 26.8974C178.148 27.0348 177.628 27.1035 177.041 27.1035C176.165 27.1035 175.371 26.9563 174.652 26.6619C173.933 26.3675 173.312 25.9529 172.792 25.4131C172.27 24.8734 171.867 24.2306 171.578 23.4799C171.291 22.7317 171.146 21.9024 171.146 20.9898C171.146 20.0919 171.308 19.2529 171.632 18.4727C171.956 17.695 172.402 17.0228 172.971 16.4585C173.54 15.8967 174.208 15.4527 174.976 15.1288C175.741 14.805 176.575 14.6431 177.473 14.6431C178.143 14.6431 178.773 14.7412 179.36 14.9399C179.946 15.1387 180.503 15.411 181.03 15.7569L181.462 15.1092H181.641C181.629 15.3251 181.614 15.5091 181.597 15.6588C181.58 15.8084 181.565 15.9433 181.553 16.0636C181.541 16.1838 181.528 16.2966 181.516 16.4046C181.504 16.5125 181.499 16.6327 181.499 16.7652C181.499 16.9222 181.499 17.0498 181.499 17.1528C181.499 17.2559 181.501 17.3638 181.509 17.4767C181.514 17.5895 181.519 17.7318 181.519 17.8986C181.519 18.0655 181.519 18.2936 181.519 18.5807H181.303C181.254 17.484 180.893 16.6082 180.216 15.9507C179.539 15.2957 178.614 14.9669 177.439 14.9669C176.936 14.9669 176.433 15.0945 175.93 15.3521C175.427 15.6097 174.973 15.9924 174.573 16.5002C174.171 17.0081 173.845 17.6435 173.594 18.4016C173.342 19.1621 173.217 20.0502 173.217 21.0659C173.217 21.4363 173.241 21.8338 173.288 22.2582C173.337 22.6826 173.42 23.107 173.54 23.5314C173.661 23.9559 173.82 24.3631 174.016 24.7507C174.215 25.1384 174.46 25.4843 174.752 25.7836C175.047 26.0829 175.39 26.3209 175.785 26.5024C176.18 26.6815 176.637 26.7723 177.152 26.7723C177.522 26.7723 177.895 26.7183 178.266 26.6104C178.636 26.5024 178.972 26.3307 179.271 26.0976C179.571 25.8645 179.816 25.5701 180.007 25.2169C180.199 24.8636 180.294 24.4343 180.294 23.9313C180.294 23.345 180.174 22.9255 179.934 22.6728C179.693 22.4201 179.252 22.295 178.604 22.295V22.1159C178.965 22.1159 179.262 22.1183 179.495 22.1257C179.728 22.1306 179.934 22.1404 180.115 22.1527C180.294 22.1649 180.464 22.1748 180.618 22.1797C180.775 22.1846 180.954 22.1895 181.158 22.1895C181.349 22.1895 181.519 22.187 181.661 22.1797C181.806 22.1748 181.958 22.1649 182.12 22.1527C182.282 22.1404 182.473 22.1306 182.694 22.1257C182.915 22.1208 183.206 22.1159 183.565 22.1159V22.295C183.049 22.295 182.682 22.3808 182.458 22.555C182.237 22.7341 182.127 23.0923 182.127 23.632Z" fill="#00263A"/>
<path d="M193.189 15.4968C193.184 15.7176 193.179 15.9384 193.179 16.1519C193.179 16.38 193.194 16.6376 193.223 16.9247C193.253 17.2117 193.268 17.4816 193.268 17.7343H193.052C193.015 17.3883 192.919 17.0498 192.765 16.7161C192.608 16.3825 192.409 16.0832 192.164 15.8133C191.918 15.5459 191.631 15.3325 191.3 15.1706C190.971 15.0111 190.608 14.9301 190.213 14.9301C189.902 14.9301 189.61 14.989 189.342 15.1092C189.072 15.2294 188.842 15.3864 188.65 15.5852C188.459 15.7814 188.309 16.0169 188.201 16.2917C188.094 16.5665 188.04 16.8535 188.04 17.1528C188.04 17.5944 188.152 17.9624 188.381 18.2544C188.609 18.5463 188.896 18.7941 189.244 18.9977C189.592 19.2013 189.968 19.3829 190.375 19.5448C190.782 19.7067 191.165 19.876 191.526 20.0551C191.896 20.2465 192.247 20.4501 192.578 20.666C192.907 20.8819 193.191 21.1272 193.432 21.402C193.672 21.6767 193.864 21.9981 194.008 22.3637C194.153 22.7292 194.224 23.1634 194.224 23.6664C194.224 24.1693 194.121 24.6305 193.918 25.05C193.714 25.4696 193.432 25.8302 193.074 26.1295C192.713 26.4288 192.289 26.6619 191.798 26.8312C191.307 26.998 190.768 27.0838 190.181 27.0838C189.583 27.0838 189.045 26.9857 188.572 26.787C188.098 26.5883 187.627 26.3356 187.161 26.024L186.749 26.7257H186.57C186.57 26.3552 186.575 26.0608 186.587 25.8449C186.599 25.629 186.604 25.4009 186.604 25.1629C186.604 24.9102 186.599 24.6379 186.587 24.3459C186.575 24.0515 186.57 23.713 186.57 23.3303H186.786C186.81 23.7866 186.904 24.2208 187.066 24.633C187.227 25.0451 187.448 25.4082 187.73 25.7198C188.013 26.0314 188.351 26.2841 188.746 26.4754C189.141 26.6668 189.59 26.7625 190.093 26.7625C190.463 26.7625 190.814 26.7036 191.145 26.5834C191.474 26.4632 191.764 26.2939 192.009 26.0706C192.254 25.8498 192.446 25.5873 192.586 25.288C192.723 24.9887 192.792 24.66 192.792 24.2993C192.792 23.9289 192.701 23.5977 192.522 23.3106C192.343 23.0236 192.112 22.7685 191.83 22.5477C191.548 22.3269 191.234 22.1281 190.885 21.954C190.537 21.7798 190.203 21.6154 189.88 21.4584C189.497 21.2793 189.119 21.0806 188.746 20.8647C188.376 20.6488 188.042 20.3986 187.75 20.1091C187.456 19.822 187.22 19.4884 187.039 19.1106C186.859 18.7328 186.769 18.2863 186.769 17.7711C186.769 17.3393 186.862 16.932 187.048 16.5493C187.235 16.1666 187.483 15.8305 187.794 15.5435C188.106 15.2564 188.464 15.0283 188.871 14.8614C189.278 14.6946 189.705 14.6087 190.147 14.6087C190.603 14.6087 191.04 14.6897 191.459 14.8516C191.879 15.0135 192.274 15.2442 192.644 15.5435L193.022 14.8614H193.201C193.199 15.0626 193.196 15.276 193.189 15.4968Z" fill="#00263A"/>
<path d="M213.777 15.0945C213.777 15.3815 213.775 15.6588 213.767 15.9213C213.763 16.1862 213.758 16.4487 213.758 16.7112C213.758 16.9983 213.767 17.3 213.785 17.6091C213.802 17.9207 213.812 18.2372 213.812 18.561H213.596C213.525 17.4644 213.152 16.5886 212.482 15.9311C211.81 15.276 210.877 14.9473 209.678 14.9473C209.199 14.9473 208.711 15.0798 208.213 15.3423C207.715 15.6048 207.266 15.9949 206.866 16.5076C206.464 17.0228 206.138 17.6558 205.887 18.4089C205.635 19.1621 205.51 20.0306 205.51 21.0119C205.51 21.5982 205.581 22.2263 205.725 22.896C205.87 23.5658 206.106 24.1889 206.434 24.763C206.763 25.3371 207.195 25.813 207.727 26.1908C208.26 26.5686 208.917 26.7551 209.695 26.7551C210.281 26.7551 210.821 26.6619 211.312 26.4754C211.802 26.289 212.224 26.0191 212.58 25.6658C212.933 25.3126 213.211 24.8906 213.417 24.3975C213.62 23.9068 213.733 23.3548 213.758 22.7439H213.974C213.974 23.0923 213.964 23.4603 213.947 23.8504C213.929 24.2405 213.92 24.5496 213.92 24.7753C213.92 24.8955 213.92 25.0083 213.92 25.1163C213.92 25.2242 213.922 25.3444 213.929 25.4769C213.934 25.6094 213.942 25.764 213.947 25.9455C213.951 26.1246 213.961 26.3478 213.974 26.6104H213.794L213.363 25.8744C213.255 25.9578 213.098 26.0657 212.894 26.1982C212.69 26.3307 212.435 26.4632 212.131 26.5932C211.824 26.7257 211.469 26.8385 211.061 26.9342C210.654 27.0299 210.193 27.0789 209.678 27.0789C208.78 27.0789 207.948 26.944 207.188 26.6741C206.427 26.4043 205.767 26.0093 205.21 25.4892C204.653 24.9666 204.219 24.319 203.908 23.5388C203.596 22.7611 203.439 21.8558 203.439 20.8254C203.439 19.9741 203.598 19.1744 203.915 18.4261C204.231 17.6778 204.673 17.0203 205.235 16.4585C205.797 15.8967 206.459 15.4502 207.222 15.119C207.983 14.7903 208.812 14.6235 209.712 14.6235C210.382 14.6235 211.015 14.7216 211.609 14.9203C212.202 15.119 212.754 15.3913 213.272 15.7373L213.596 15.0896H213.777V15.0945Z" fill="#00263A"/>
<path d="M221.829 20.4844C222.369 20.4844 222.766 20.3495 223.024 20.0796C223.281 19.8098 223.409 19.4295 223.409 18.9388H223.588C223.588 19.2136 223.586 19.4418 223.578 19.6209C223.573 19.8 223.566 19.9496 223.561 20.0698C223.556 20.19 223.549 20.2906 223.544 20.3765C223.539 20.4599 223.534 20.5531 223.534 20.6562C223.534 20.7567 223.537 20.8475 223.544 20.926C223.551 21.0045 223.556 21.1002 223.561 21.2131C223.566 21.3259 223.573 21.4707 223.578 21.6448C223.583 21.819 223.588 22.0423 223.588 22.3195H223.409C223.409 21.8534 223.279 21.4829 223.024 21.2155C222.766 20.9457 222.366 20.8107 221.829 20.8107H220.607V24.687C220.607 25.1163 220.647 25.4573 220.725 25.7149C220.804 25.97 220.941 26.1614 221.14 26.2865C221.338 26.4116 221.598 26.4926 221.922 26.5269C222.246 26.5637 222.653 26.5809 223.144 26.5809C223.576 26.5809 223.981 26.5662 224.356 26.5368C224.734 26.5073 225.067 26.4214 225.354 26.2792C225.641 26.1369 225.879 25.9136 226.063 25.6094C226.25 25.3052 226.365 24.8881 226.414 24.3533H226.613L226.468 26.8704C225.929 26.8827 225.45 26.89 225.031 26.8974C224.611 26.9023 224.155 26.9072 223.664 26.9072C222.646 26.9072 221.824 26.8925 221.201 26.863C220.578 26.8336 220.075 26.8189 219.692 26.8189C219.501 26.8189 219.336 26.8213 219.199 26.8287C219.062 26.8336 218.914 26.841 218.757 26.8459C218.6 26.8508 218.416 26.8581 218.201 26.863C217.985 26.868 217.698 26.8729 217.337 26.8729V26.6938C217.528 26.6938 217.712 26.679 217.884 26.6496C218.056 26.6202 218.21 26.5637 218.343 26.4779C218.475 26.3945 218.581 26.2767 218.657 26.1271C218.735 25.9774 218.775 25.7762 218.775 25.526V16.1887C218.775 15.936 218.735 15.7373 218.657 15.5852C218.578 15.4355 218.473 15.3177 218.343 15.2343C218.21 15.1509 218.058 15.0945 217.884 15.0626C217.71 15.0332 217.528 15.0184 217.337 15.0184V14.8394C217.698 14.8394 217.98 14.8418 218.191 14.8492C218.402 14.8565 218.581 14.8614 218.73 14.8663C218.88 14.8712 219.02 14.8786 219.152 14.8835C219.285 14.8884 219.447 14.8933 219.638 14.8933C220.045 14.8933 220.539 14.8762 221.12 14.8394C221.701 14.8026 222.352 14.7854 223.07 14.7854C223.539 14.7854 223.961 14.7903 224.336 14.8026C224.714 14.8148 225.141 14.8271 225.622 14.8394L225.73 17.1749H225.551C225.514 16.7235 225.418 16.3604 225.264 16.0881C225.107 15.8158 224.898 15.6072 224.633 15.4649C224.371 15.3227 224.064 15.227 223.716 15.1804C223.367 15.1338 222.985 15.1092 222.565 15.1092C222.457 15.1092 222.332 15.1117 222.187 15.119C222.042 15.1239 221.9 15.1313 221.755 15.1362C221.611 15.1411 221.473 15.1509 221.343 15.1632C221.211 15.1755 221.103 15.1877 221.019 15.2C220.745 15.2368 220.607 15.3963 220.607 15.6833V20.4844H221.829Z" fill="#00263A"/>
<path d="M230.251 26.6422C230.425 26.6128 230.578 26.5564 230.71 26.4705C230.842 26.3871 230.948 26.2693 231.024 26.1197C231.103 25.97 231.142 25.7689 231.142 25.5186V16.2794L230.747 15.7765C230.58 15.5606 230.396 15.3815 230.197 15.2368C229.999 15.092 229.746 15.0209 229.434 15.0209V14.8418C229.65 14.8418 229.837 14.8443 229.991 14.8516C230.146 14.859 230.288 14.8639 230.413 14.8688C230.538 14.8737 230.654 14.8811 230.754 14.886C230.855 14.8909 230.973 14.8958 231.105 14.8958C231.225 14.8958 231.326 14.8933 231.412 14.886C231.495 14.8811 231.579 14.8737 231.664 14.8688C231.748 14.8639 231.839 14.8565 231.934 14.8516C232.03 14.8467 232.15 14.8418 232.295 14.8418L239.773 24.0442V16.1887C239.773 15.936 239.733 15.7373 239.655 15.5852C239.576 15.4355 239.471 15.3177 239.341 15.2343C239.208 15.1509 239.056 15.0945 238.882 15.0626C238.708 15.0332 238.526 15.0184 238.332 15.0184V14.8394C238.573 14.8394 238.764 14.8418 238.909 14.8492C239.054 14.8565 239.179 14.8614 239.287 14.8663C239.395 14.8712 239.495 14.8786 239.593 14.8835C239.689 14.8884 239.802 14.8933 239.934 14.8933C240.067 14.8933 240.18 14.8909 240.275 14.8835C240.371 14.8786 240.474 14.8712 240.582 14.8663C240.69 14.8614 240.818 14.8541 240.97 14.8492C241.119 14.8443 241.313 14.8394 241.554 14.8394V15.0184C241.362 15.0184 241.178 15.0332 241.004 15.0626C240.83 15.092 240.678 15.1485 240.545 15.2343C240.413 15.3177 240.31 15.4355 240.231 15.5852C240.153 15.7348 240.114 15.936 240.114 16.1887V27.0814H239.79L231.485 16.6744V25.5186C231.485 25.7713 231.525 25.97 231.603 26.1197C231.682 26.2693 231.787 26.3871 231.917 26.4705C232.05 26.5539 232.202 26.6104 232.376 26.6422C232.55 26.6741 232.732 26.6864 232.925 26.6864V26.8655C232.685 26.8655 232.491 26.863 232.341 26.8557C232.192 26.8508 232.062 26.8434 231.956 26.8385C231.848 26.8336 231.745 26.8262 231.65 26.8213C231.554 26.8164 231.439 26.8115 231.309 26.8115C231.176 26.8115 231.063 26.814 230.968 26.8213C230.872 26.8262 230.769 26.8336 230.661 26.8385C230.553 26.8434 230.428 26.8508 230.283 26.8557C230.138 26.8606 229.947 26.8655 229.709 26.8655V26.6864C229.893 26.6864 230.077 26.6717 230.251 26.6422Z" fill="#00263A"/>
<path d="M247.667 26.6422C247.842 26.6128 247.994 26.5564 248.126 26.4705C248.259 26.3871 248.362 26.2693 248.44 26.1197C248.519 25.97 248.558 25.7689 248.558 25.5162V15.1656C247.876 15.1411 247.383 15.1239 247.083 15.1117C246.784 15.0994 246.603 15.0945 246.544 15.0945C245.837 15.1068 245.324 15.3276 245.008 15.7544C244.691 16.1838 244.507 16.7407 244.461 17.4301H244.282L244.373 14.805C244.647 14.7927 244.902 14.7878 245.136 14.7878C245.369 14.7878 245.587 14.7878 245.793 14.7878C246.271 14.7878 246.691 14.7927 247.052 14.805C247.412 14.8173 247.731 14.8271 248.013 14.832C248.295 14.8369 248.548 14.8467 248.776 14.859C249.004 14.8712 249.23 14.8762 249.458 14.8762C249.686 14.8762 249.915 14.8712 250.14 14.859C250.368 14.8467 250.626 14.8369 250.913 14.832C251.2 14.8271 251.526 14.8173 251.892 14.805C252.257 14.7927 252.692 14.7878 253.195 14.7878C253.411 14.7878 253.639 14.7878 253.877 14.7878C254.115 14.7878 254.375 14.7927 254.649 14.805L254.757 17.4301H254.578C254.554 17.1283 254.5 16.8364 254.416 16.5518C254.333 16.2672 254.205 16.0145 254.039 15.7912C253.872 15.568 253.658 15.3889 253.401 15.2564C253.143 15.1239 252.834 15.0577 252.476 15.0577C252.417 15.0577 252.223 15.0675 251.902 15.0847C251.578 15.1019 251.075 15.1288 250.393 15.1656V25.5162C250.393 25.7689 250.432 25.97 250.511 26.1197C250.589 26.2693 250.695 26.3871 250.825 26.4705C250.955 26.5539 251.109 26.6104 251.284 26.6422C251.458 26.6741 251.639 26.6864 251.833 26.6864V26.8655C251.472 26.8655 251.185 26.863 250.969 26.8557C250.754 26.8508 250.567 26.841 250.413 26.8287C250.256 26.8164 250.111 26.8066 249.973 26.8017C249.836 26.7968 249.672 26.7919 249.478 26.7919C249.274 26.7919 249.105 26.7944 248.975 26.8017C248.842 26.8066 248.7 26.8164 248.543 26.8287C248.386 26.841 248.202 26.8508 247.986 26.8557C247.77 26.8606 247.483 26.8655 247.123 26.8655V26.6864C247.309 26.6864 247.493 26.6717 247.667 26.6422Z" fill="#00263A"/>
<path d="M262.073 20.4844C262.613 20.4844 263.01 20.3495 263.268 20.0796C263.526 19.8098 263.653 19.4295 263.653 18.9388H263.832C263.832 19.2136 263.83 19.4418 263.822 19.6209C263.817 19.8 263.81 19.9496 263.805 20.0698C263.8 20.19 263.793 20.2906 263.788 20.3765C263.783 20.4599 263.778 20.5531 263.778 20.6562C263.778 20.7567 263.781 20.8475 263.788 20.926C263.793 21.0045 263.8 21.1002 263.805 21.2131C263.81 21.3259 263.817 21.4707 263.822 21.6448C263.827 21.819 263.832 22.0423 263.832 22.3195H263.653C263.653 21.8534 263.523 21.4829 263.268 21.2155C263.01 20.9457 262.61 20.8107 262.073 20.8107H260.851V24.687C260.851 25.1163 260.891 25.4573 260.969 25.7149C261.048 25.97 261.185 26.1614 261.384 26.2865C261.583 26.4116 261.843 26.4926 262.166 26.5269C262.49 26.5637 262.897 26.5809 263.388 26.5809C263.82 26.5809 264.225 26.5662 264.6 26.5368C264.978 26.5073 265.312 26.4214 265.599 26.2792C265.886 26.1369 266.124 25.9136 266.308 25.6094C266.494 25.3052 266.609 24.8881 266.658 24.3533H266.857L266.712 26.8704C266.173 26.8827 265.694 26.89 265.275 26.8974C264.855 26.9023 264.399 26.9072 263.908 26.9072C262.89 26.9072 262.068 26.8925 261.445 26.863C260.822 26.8336 260.319 26.8189 259.936 26.8189C259.745 26.8189 259.581 26.8213 259.443 26.8287C259.306 26.8336 259.159 26.841 259.002 26.8459C258.845 26.8508 258.661 26.8581 258.445 26.863C258.229 26.868 257.942 26.8729 257.581 26.8729V26.6938C257.773 26.6938 257.957 26.679 258.128 26.6496C258.3 26.6202 258.455 26.5637 258.587 26.4779C258.72 26.3945 258.825 26.2767 258.901 26.1271C258.98 25.9774 259.019 25.7762 259.019 25.526V16.1887C259.019 15.936 258.98 15.7373 258.901 15.5852C258.823 15.4355 258.717 15.3177 258.587 15.2343C258.455 15.1509 258.302 15.0945 258.128 15.0626C257.954 15.0332 257.773 15.0184 257.581 15.0184V14.8394C257.942 14.8394 258.224 14.8418 258.435 14.8492C258.646 14.8565 258.825 14.8614 258.975 14.8663C259.124 14.8712 259.264 14.8786 259.397 14.8835C259.529 14.8884 259.691 14.8933 259.882 14.8933C260.29 14.8933 260.783 14.8762 261.364 14.8394C261.946 14.8026 262.596 14.7854 263.315 14.7854C263.783 14.7854 264.205 14.7903 264.58 14.8026C264.958 14.8148 265.385 14.8271 265.866 14.8394L265.974 17.1749H265.795C265.758 16.7235 265.662 16.3604 265.508 16.0881C265.351 15.8158 265.142 15.6072 264.877 15.4649C264.615 15.3227 264.308 15.227 263.96 15.1804C263.611 15.1338 263.229 15.1092 262.809 15.1092C262.701 15.1092 262.576 15.1117 262.431 15.119C262.287 15.1239 262.144 15.1313 262 15.1362C261.855 15.1411 261.717 15.1509 261.587 15.1632C261.455 15.1755 261.347 15.1877 261.264 15.2C260.989 15.2368 260.851 15.3963 260.851 15.6833V20.4844H262.073Z" fill="#00263A"/>
<path d="M269.764 14.8418C270.125 14.8418 270.412 14.8443 270.628 14.8516C270.844 14.859 271.025 14.8614 271.177 14.8614C271.327 14.8614 271.467 14.8639 271.599 14.8712C271.732 14.8762 271.894 14.8811 272.085 14.8811C272.397 14.8811 272.76 14.8663 273.172 14.8369C273.587 14.8075 274.043 14.7927 274.546 14.7927C275.014 14.7927 275.5 14.8295 276.01 14.9007C276.521 14.9718 276.987 15.1166 277.411 15.3325C277.836 15.5484 278.187 15.8575 278.461 16.2574C278.736 16.6597 278.876 17.1896 278.876 17.8471C278.876 18.2912 278.785 18.6911 278.606 19.0517C278.427 19.4123 278.189 19.7239 277.897 19.9864C277.603 20.2514 277.267 20.4697 276.891 20.6414C276.513 20.8156 276.128 20.9334 275.733 20.9923C275.853 21.1493 276.062 21.4069 276.361 21.7651C276.661 22.1257 276.997 22.528 277.367 22.977C277.738 23.426 278.125 23.8872 278.528 24.3607C278.93 24.8342 279.291 25.2561 279.614 25.6266C279.889 25.9381 280.152 26.1933 280.397 26.3896C280.642 26.5883 280.915 26.6864 281.214 26.6864V26.8655C280.949 26.8655 280.738 26.863 280.576 26.8557C280.414 26.8508 280.279 26.8434 280.171 26.8385C280.063 26.8336 279.96 26.8262 279.865 26.8213C279.769 26.8164 279.649 26.8115 279.506 26.8115C279.362 26.8115 279.239 26.814 279.138 26.8213C279.035 26.8262 278.94 26.8336 278.851 26.8385C278.761 26.8434 278.663 26.8508 278.555 26.8557C278.447 26.8606 278.309 26.8655 278.14 26.8655C277.769 26.3969 277.426 25.9578 277.114 25.5456C276.803 25.131 276.496 24.7287 276.197 24.3312C275.898 23.9362 275.591 23.5388 275.279 23.1365C274.968 22.7341 274.632 22.3072 274.274 21.8509C274.094 21.6228 273.937 21.4633 273.805 21.375C273.672 21.2842 273.469 21.24 273.194 21.24H273.032V25.5186C273.032 25.7713 273.071 25.97 273.15 26.1197C273.228 26.2693 273.331 26.3871 273.464 26.4705C273.596 26.5539 273.749 26.6104 273.923 26.6422C274.097 26.6717 274.278 26.6864 274.47 26.6864V26.8655C274.109 26.8655 273.822 26.863 273.606 26.8557C273.39 26.8508 273.204 26.841 273.049 26.8287C272.892 26.8164 272.748 26.8066 272.608 26.8017C272.47 26.7968 272.306 26.7919 272.112 26.7919C271.909 26.7919 271.742 26.7944 271.609 26.8017C271.477 26.8066 271.334 26.8164 271.177 26.8287C271.02 26.841 270.836 26.8508 270.621 26.8557C270.405 26.8606 270.118 26.8655 269.757 26.8655V26.6864C269.948 26.6864 270.132 26.6717 270.304 26.6422C270.476 26.6128 270.63 26.5564 270.763 26.4705C270.895 26.3871 271.001 26.2693 271.077 26.1197C271.155 25.97 271.195 25.7689 271.195 25.5186V16.1887C271.195 15.936 271.155 15.7373 271.077 15.5852C270.998 15.4355 270.893 15.3177 270.763 15.2343C270.63 15.1509 270.478 15.0945 270.304 15.0626C270.13 15.0332 269.948 15.0184 269.757 15.0184V14.8418H269.764ZM273.037 20.9162H273.935C274.906 20.9162 275.63 20.6537 276.111 20.1262C276.589 19.5988 276.83 18.826 276.83 17.8079C276.83 17.4374 276.771 17.089 276.651 16.7652C276.531 16.4414 276.356 16.1568 276.128 15.9115C275.9 15.6661 275.618 15.4699 275.284 15.3276C274.948 15.1828 274.57 15.1117 274.153 15.1117C274.058 15.1117 273.942 15.1141 273.812 15.1215C273.68 15.1264 273.557 15.1534 273.444 15.2024C273.331 15.2515 273.233 15.3202 273.157 15.4085C273.079 15.4993 273.04 15.622 273.04 15.7765V20.9162H273.037Z" fill="#00263A"/>
<path d="M24.6245 23.7719C25.4169 25.2978 25.9002 26.9784 26.0474 28.6834C26.1922 30.3885 25.9984 32.1156 25.4832 33.7348C24.9704 35.3564 24.1314 36.8652 23.0446 38.163C23.025 38.1851 23.0029 38.2072 22.9833 38.2317C23.2384 38.2293 23.4935 38.2243 23.7462 38.2121C24.7202 36.9045 25.4611 35.4251 25.9076 33.8648C26.3934 32.1745 26.5381 30.3934 26.3418 28.654C26.1431 26.917 25.6009 25.2242 24.757 23.7032C23.9155 22.1821 22.7698 20.8353 21.4156 19.7558C22.7355 20.8745 23.8346 22.2435 24.6245 23.7719Z" fill="#6FA287"/>
<path d="M25.0269 23.4161C25.9738 24.8513 26.6313 26.4705 26.9552 28.151C27.2766 29.8316 27.2667 31.5685 26.9233 33.2343C26.5823 34.9001 25.9076 36.4898 24.9606 37.8931C24.9435 37.9177 24.9238 37.9422 24.9067 37.9667C25.1618 37.9373 25.4145 37.9054 25.6647 37.8662C26.4964 36.4629 27.0803 34.9148 27.36 33.3153C27.6666 31.5832 27.6249 29.7972 27.2471 28.0897C26.8669 26.3822 26.1505 24.7557 25.152 23.3303C24.1559 21.9049 22.8753 20.6856 21.418 19.7558C22.8434 20.7298 24.0823 21.9785 25.0269 23.4161Z" fill="#6FA287"/>
<path d="M25.39 23.0187C26.4817 24.3484 27.3035 25.8891 27.8016 27.5254C28.2971 29.1618 28.4689 30.8938 28.2996 32.5842C28.1352 34.277 27.6298 35.928 26.8325 37.4221C26.8178 37.4491 26.8031 37.4736 26.7883 37.5006C27.0386 37.4442 27.2864 37.3878 27.5317 37.3215C28.2137 35.8397 28.6308 34.2402 28.7412 32.6185C28.8638 30.8644 28.6357 29.0907 28.0812 27.4322C27.5243 25.7738 26.6436 24.2306 25.5004 22.9181C24.3596 21.6056 22.9587 20.5261 21.4131 19.7533C22.9391 20.5752 24.2982 21.6866 25.39 23.0187Z" fill="#6FA287"/>
<path d="M28.5793 26.814C29.2441 28.3915 29.5949 30.0941 29.6047 31.7942C29.617 33.4944 29.2858 35.1896 28.6529 36.7597C28.6406 36.7867 28.6283 36.8161 28.6161 36.8431C28.8589 36.7622 29.0994 36.6788 29.3373 36.588C29.8599 35.0424 30.1077 33.4085 30.0488 31.7844C29.9875 30.0254 29.5753 28.2884 28.8516 26.6962C28.1254 25.104 27.0852 23.6639 25.8144 22.4765C24.5436 21.2891 23.0372 20.3642 21.418 19.7558C23.0201 20.4108 24.4896 21.375 25.7113 22.582C26.9331 23.7915 27.912 25.239 28.5793 26.814Z" fill="#6FA287"/>
<path d="M29.276 26.0265C30.1003 27.5254 30.6278 29.1814 30.8167 30.8718C31.008 32.5621 30.8559 34.2819 30.3898 35.9084C30.3825 35.9379 30.3702 35.9673 30.3628 35.9943C30.5959 35.8888 30.8265 35.7808 31.0522 35.6655C31.4104 34.0733 31.4864 32.4223 31.2583 30.8153C31.013 29.0735 30.4217 27.3881 29.5361 25.8793C28.648 24.3729 27.463 23.0481 26.0744 22.0006C24.6859 20.953 23.0912 20.19 21.418 19.7533C23.0789 20.2366 24.6417 21.0413 25.9837 22.1159C27.3256 23.1929 28.4492 24.5299 29.276 26.0265Z" fill="#6FA287"/>
<path d="M29.8893 25.1703C30.8658 26.5736 31.5625 28.1658 31.928 29.8291C32.2936 31.49 32.323 33.2171 32.0286 34.8829C32.0237 34.9124 32.0164 34.9418 32.009 34.9713C32.2298 34.8412 32.4481 34.7087 32.6591 34.5714C32.848 32.9497 32.7523 31.3011 32.3574 29.7261C31.9329 28.0186 31.1675 26.4043 30.1273 24.9985C29.0846 23.5928 27.7697 22.398 26.2781 21.5026C24.7864 20.6046 23.1231 20.0134 21.4107 19.7558C23.1133 20.0625 24.7521 20.7003 26.1995 21.6277C27.6519 22.555 28.9105 23.7694 29.8893 25.1703Z" fill="#6FA287"/>
<path d="M30.4094 24.2552C31.5281 25.5505 32.3868 27.0593 32.9241 28.6736C33.4614 30.2879 33.6723 32.0003 33.5521 33.6882C33.5497 33.7176 33.5448 33.7495 33.5423 33.7789C33.7484 33.6268 33.952 33.4723 34.1483 33.3153C34.1679 31.6838 33.898 30.0524 33.3411 28.5264C32.7401 26.8729 31.8103 25.3469 30.6302 24.0565C29.4477 22.7685 28.015 21.716 26.4375 20.9825C24.86 20.2465 23.1427 19.8319 21.4156 19.7533C23.1403 19.8809 24.8355 20.3421 26.3737 21.1149C27.9095 21.8877 29.2883 22.9623 30.4094 24.2552Z" fill="#6FA287"/>
<path d="M26.4866 20.5924C28.096 21.1983 29.5802 22.1208 30.829 23.291C32.0777 24.4613 33.0885 25.8744 33.7901 27.4224C34.4942 28.9704 34.8818 30.6534 34.9383 32.3462C34.9383 32.3756 34.9383 32.4075 34.9383 32.437C35.1272 32.2652 35.3136 32.0911 35.4927 31.912C35.3406 30.2879 34.9039 28.6932 34.19 27.2335C33.4197 25.6511 32.3353 24.2306 31.0252 23.0727C29.7151 21.9147 28.1794 21.0193 26.5332 20.455C24.8895 19.8883 23.1378 19.6552 21.4107 19.7583C23.1427 19.7018 24.8772 19.9864 26.4866 20.5924Z" fill="#6FA287"/>
<path d="M26.5455 20.0576C28.2088 20.4918 29.7814 21.2548 31.1454 22.2876C32.5095 23.3205 33.6625 24.6207 34.5236 26.0878C35.3848 27.5549 35.9466 29.1863 36.1821 30.8644C36.187 30.8938 36.1894 30.9257 36.1919 30.9552C36.3612 30.7638 36.528 30.57 36.6875 30.3737C36.3685 28.7742 35.765 27.2335 34.9015 25.8572C33.9692 24.3656 32.7425 23.0653 31.3196 22.0496C29.8942 21.034 28.2751 20.3053 26.5798 19.9153C24.8846 19.5227 23.1182 19.4737 21.4107 19.7583C23.128 19.5227 24.8821 19.6233 26.5455 20.0576Z" fill="#6FA287"/>
<path d="M26.5504 19.5203C28.2505 19.7779 29.8942 20.374 31.3589 21.2572C32.8235 22.1429 34.1066 23.3131 35.1149 24.6845C36.1257 26.0535 36.8543 27.6187 37.2615 29.2599C37.2689 29.2894 37.2738 29.3188 37.2812 29.3483C37.4308 29.1397 37.5756 28.9312 37.713 28.7178C37.2272 27.1599 36.4667 25.6928 35.4657 24.4146C34.3838 23.0285 33.0271 21.8632 31.5061 21.0021C29.9826 20.141 28.2947 19.5865 26.5675 19.3755C24.8404 19.1621 23.0789 19.2995 21.4107 19.7583C23.0937 19.3436 24.8502 19.2602 26.5504 19.5203Z" fill="#6FA287"/>
<path d="M26.4964 18.9855C28.2137 19.064 29.9114 19.4835 31.4595 20.2097C33.0075 20.9358 34.4083 21.9687 35.554 23.2248C36.7022 24.4809 37.5903 25.9602 38.1693 27.5524C38.1791 27.5819 38.1889 27.6113 38.1987 27.6383C38.3238 27.415 38.4489 27.1918 38.5643 26.9661C37.919 25.4671 37.0089 24.0884 35.8803 22.9206C34.6586 21.6547 33.189 20.639 31.5846 19.9398C29.9801 19.2431 28.2432 18.8677 26.5038 18.8383C24.7644 18.8064 23.0274 19.1253 21.4156 19.7583C23.0421 19.1719 24.7791 18.9045 26.4964 18.9855Z" fill="#6FA287"/>
<path d="M31.4521 19.1547C33.0688 19.7165 34.5678 20.5948 35.8386 21.7258C37.1119 22.8543 38.1496 24.2331 38.8905 25.7566C38.9028 25.7836 38.9151 25.813 38.9273 25.84C39.0304 25.6045 39.1285 25.3714 39.2193 25.1335C38.4195 23.7105 37.3719 22.4324 36.1257 21.3897C34.7788 20.2587 33.2111 19.4001 31.5429 18.8751C29.8746 18.35 28.1082 18.1562 26.3737 18.3108C24.6417 18.4604 22.9465 18.9609 21.4107 19.7583C22.9685 19.0051 24.6687 18.5586 26.386 18.458C28.1058 18.355 29.8354 18.5954 31.4521 19.1547Z" fill="#6FA287"/>
<path d="M31.3343 18.1096C33.0001 18.4997 34.5825 19.2161 35.9662 20.2072C37.3499 21.1959 38.5275 22.4594 39.4229 23.8945C39.4401 23.9215 39.4524 23.9485 39.4695 23.973C39.5456 23.7302 39.6216 23.4848 39.6879 23.242C38.7458 21.9098 37.5682 20.7494 36.2213 19.8417C34.7641 18.8579 33.1154 18.1685 31.4006 17.8201C29.6857 17.4718 27.9095 17.4644 26.202 17.7981C24.4945 18.1293 22.8606 18.8039 21.4156 19.7558C22.8851 18.8432 24.5288 18.2225 26.2265 17.9428C27.9218 17.6631 29.6685 17.722 31.3343 18.1096Z" fill="#6FA287"/>
<path d="M31.1086 17.0817C32.8063 17.2951 34.455 17.8422 35.9343 18.6837C37.4137 19.5227 38.7164 20.6562 39.7566 21.9908C39.7762 22.0153 39.7934 22.0398 39.8105 22.0644C39.8621 21.8141 39.9087 21.5639 39.9504 21.3137C38.8734 20.0895 37.5805 19.0566 36.1477 18.2961C34.5948 17.4693 32.8824 16.9566 31.143 16.7897C29.4011 16.6229 27.6323 16.802 25.9714 17.3123C24.308 17.8201 22.7526 18.6616 21.418 19.7607C22.7845 18.7009 24.3547 17.9109 26.0131 17.4546C27.6666 16.9934 29.4109 16.8707 31.1086 17.0817Z" fill="#6FA287"/>
<path d="M30.775 16.0832C32.4849 16.1175 34.1826 16.4904 35.7405 17.1725C37.2983 17.852 38.7139 18.8432 39.889 20.0625C39.9111 20.0845 39.9307 20.1066 39.9504 20.1312C39.9749 19.876 39.997 19.6233 40.0117 19.3706C38.812 18.2642 37.4186 17.3736 35.9147 16.7677C34.2832 16.1077 32.5291 15.7765 30.7799 15.7912C29.0307 15.8084 27.2913 16.1691 25.6893 16.8511C24.0872 17.5306 22.63 18.5291 21.4156 19.7607C22.6643 18.5635 24.1437 17.6141 25.7457 16.9885C27.3452 16.3555 29.065 16.0513 30.775 16.0832Z" fill="#6FA287"/>
<path d="M25.4292 16.5469C26.9552 15.7544 28.6357 15.2711 30.3407 15.1239C32.0458 14.9792 33.7729 15.173 35.3921 15.6882C37.0138 16.2009 38.5225 17.04 39.8204 18.1268C39.8424 18.1464 39.8645 18.1685 39.889 18.1881C39.8866 17.933 39.8817 17.6778 39.8694 17.4252C38.5618 16.4512 37.0825 15.7103 35.5221 15.2638C33.8318 14.778 32.0507 14.6333 30.3113 14.8295C28.5744 15.0283 26.8816 15.5704 25.3605 16.4144C23.8395 17.2559 22.4926 18.4016 21.4131 19.7558C22.5318 18.4359 23.9008 17.3368 25.4292 16.5469Z" fill="#6FA287"/>
<path d="M25.071 16.1445C26.5062 15.1975 28.1254 14.5401 29.8059 14.2162C31.4864 13.8948 33.2234 13.9046 34.8892 14.2481C36.555 14.5891 38.1447 15.2638 39.548 16.2108C39.5726 16.2279 39.5971 16.2476 39.6216 16.2647C39.5922 16.0096 39.5603 15.7569 39.521 15.5067C38.1177 14.675 36.5697 14.0911 34.9701 13.8114C33.2381 13.5048 31.4521 13.5465 29.7446 13.9243C28.0371 14.3045 26.4105 15.0209 24.9852 16.0194C23.5598 17.0154 22.3405 18.2961 21.4107 19.7533C22.3871 18.3255 23.6358 17.089 25.071 16.1445Z" fill="#6FA287"/>
<path d="M19.1733 17.9354C18.3808 16.4095 17.8975 14.729 17.7503 13.0239C17.6056 11.3189 17.7994 9.59172 18.3146 7.97253C18.8273 6.35089 19.6664 4.8421 20.7532 3.5443C20.7728 3.52222 20.7949 3.50014 20.8145 3.47561C20.5594 3.47806 20.3042 3.48297 20.0515 3.49524C19.0776 4.80285 18.3367 6.2822 17.8902 7.84251C17.4044 9.53284 17.2597 11.3139 17.4559 13.0533C17.6547 14.7903 18.1968 16.4831 19.0408 18.0041C19.8823 19.5252 21.028 20.8721 22.3822 21.9515C21.0623 20.8353 19.9632 19.4639 19.1733 17.9354Z" fill="#6FA287"/>
<path d="M18.7709 18.2936C17.8239 16.8584 17.1664 15.2392 16.8426 13.5587C16.5212 11.8782 16.531 10.1413 16.8745 8.47546C17.2155 6.80966 17.8902 5.21991 18.8372 3.81662C18.8543 3.79209 18.874 3.76755 18.8911 3.74302C18.636 3.77246 18.3833 3.80435 18.1331 3.84361C17.3014 5.2469 16.7175 6.79494 16.4378 8.3945C16.1311 10.1265 16.1729 11.9126 16.5507 13.6201C16.9309 15.3276 17.6473 16.9541 18.6458 18.3795C19.6418 19.8049 20.9225 21.0242 22.3797 21.954C20.9544 20.9776 19.7154 19.7288 18.7709 18.2936Z" fill="#6FA287"/>
<path d="M18.4078 18.6911C17.3161 17.3614 16.4942 15.8207 15.9962 14.1843C15.5006 12.548 15.3289 10.8159 15.4982 9.12559C15.6626 7.4328 16.1679 5.78172 16.9653 4.28766C16.98 4.26067 16.9947 4.23614 17.0094 4.20915C16.7592 4.26312 16.5114 4.322 16.2661 4.38824C15.5841 5.87004 15.167 7.4696 15.0566 9.09124C14.9339 10.8454 15.1621 12.6191 15.7165 14.2775C16.2734 15.936 17.1542 17.4791 18.2974 18.7916C19.4382 20.1042 20.8391 21.1836 22.3846 21.9564C20.8587 21.1321 19.4995 20.0208 18.4078 18.6911Z" fill="#6FA287"/>
<path d="M15.2185 14.8933C14.5537 13.3158 14.2028 11.6133 14.193 9.9131C14.1808 8.21296 14.512 6.51772 15.1449 4.9476C15.1572 4.92061 15.1694 4.89117 15.1817 4.86418C14.9388 4.94514 14.6984 5.02856 14.4629 5.11933C13.9403 6.66492 13.6926 8.29882 13.7514 9.92292C13.8128 11.6819 14.2249 13.4189 14.9487 15.0111C15.6748 16.6033 16.715 18.0434 17.9859 19.2308C19.2567 20.4182 20.763 21.3431 22.3822 21.9515C20.7802 21.2965 19.3106 20.3323 18.0889 19.1253C16.8647 17.9158 15.8858 16.4684 15.2185 14.8933Z" fill="#6FA287"/>
<path d="M14.5218 15.6808C13.6975 14.1819 13.17 12.5259 12.9811 10.8356C12.7897 9.14522 12.9418 7.42544 13.408 5.7989C13.4153 5.76946 13.4276 5.74002 13.435 5.71303C13.2019 5.81852 12.9713 5.92647 12.7456 6.04178C12.3874 7.63398 12.3113 9.28506 12.5395 10.892C12.7848 12.6338 13.3761 14.3193 14.2617 15.828C15.1523 17.3344 16.3372 18.6592 17.7283 19.7043C19.1168 20.7518 20.7115 21.5148 22.3846 21.9515C20.7238 21.4682 19.161 20.6635 17.819 19.589C16.4722 18.5144 15.3485 17.1774 14.5218 15.6808Z" fill="#6FA287"/>
<path d="M13.9084 16.5371C12.932 15.1338 12.2353 13.5416 11.8697 11.8782C11.5042 10.2173 11.4748 8.49018 11.7692 6.82438C11.7741 6.79494 11.7814 6.7655 11.7888 6.73606C11.568 6.86609 11.3496 6.99857 11.1387 7.13595C10.9497 8.75759 11.0454 10.4062 11.4404 11.9812C11.8648 13.6888 12.6303 15.303 13.6705 16.7088C14.7131 18.1145 16.0281 19.3093 17.5197 20.2048C19.0113 21.1027 20.6747 21.6939 22.3871 21.9515C20.6845 21.6448 19.0457 21.007 17.5982 20.0796C16.1459 19.1523 14.8873 17.9403 13.9084 16.5371Z" fill="#6FA287"/>
<path d="M13.3883 17.4521C12.2696 16.1568 11.411 14.648 10.8737 13.0337C10.3364 11.4194 10.1254 9.70703 10.2456 8.01915C10.2481 7.98971 10.253 7.95781 10.2555 7.92837C10.0494 8.08048 9.84576 8.23504 9.64949 8.39205C9.62987 10.0235 9.89973 11.655 10.4566 13.1809C11.0577 14.8345 11.9875 16.3604 13.1675 17.6509C14.35 18.9388 15.7828 19.9913 17.3603 20.7249C18.9353 21.4609 20.6551 21.8755 22.3822 21.954C20.6575 21.8264 18.9623 21.3652 17.424 20.5924C15.8883 19.8196 14.5095 18.745 13.3883 17.4521Z" fill="#6FA287"/>
<path d="M17.3112 21.1149C15.7018 20.509 14.2176 19.5865 12.9688 18.4163C11.7201 17.2461 10.7093 15.8329 10.0077 14.2849C9.30358 12.7369 8.91595 11.0539 8.85953 9.36111C8.85953 9.33167 8.85953 9.29978 8.85953 9.27034C8.67062 9.44207 8.48417 9.61625 8.30508 9.79535C8.45718 11.4194 8.89387 13.0141 9.60779 14.4738C10.3781 16.0562 11.4625 17.4767 12.7726 18.6346C14.0826 19.7926 15.6184 20.6881 17.2646 21.2523C18.9083 21.819 20.66 22.0521 22.3871 21.9491C20.6551 22.0055 18.9206 21.7209 17.3112 21.1149Z" fill="#6FA287"/>
<path d="M17.2523 21.6498C15.589 21.2155 14.0164 20.4525 12.6523 19.4197C11.2883 18.3868 10.1352 17.0866 9.27414 15.6195C8.41302 14.1524 7.85121 12.5185 7.6157 10.8429C7.61079 10.8135 7.60834 10.7816 7.60588 10.7521C7.4366 10.9435 7.26978 11.1373 7.11031 11.3336C7.42924 12.9331 8.03276 14.4738 8.89633 15.8501C9.82858 17.3417 11.0552 18.642 12.4782 19.6577C13.9035 20.6733 15.5227 21.402 17.218 21.792C18.9132 22.1846 20.6796 22.2336 22.3871 21.9491C20.6698 22.1846 18.9157 22.0864 17.2523 21.6498Z" fill="#6FA287"/>
<path d="M17.2474 22.187C15.5473 21.9294 13.9035 21.3333 12.4389 20.4501C10.9743 19.5644 9.6912 18.3942 8.68289 17.0228C7.67212 15.6539 6.94349 14.0886 6.53624 12.4474C6.52888 12.4179 6.52397 12.3885 6.51661 12.3591C6.36696 12.5676 6.22221 12.7761 6.08483 12.9896C6.57058 14.5474 7.33111 16.0145 8.33206 17.2927C9.41397 18.6788 10.7707 19.8441 12.2917 20.7052C13.8152 21.5663 15.5031 22.1208 17.2302 22.3318C18.9574 22.5452 20.7188 22.4078 22.3871 21.9491C20.7041 22.3637 18.9476 22.4471 17.2474 22.187Z" fill="#6FA287"/>
<path d="M17.3014 22.7243C15.5841 22.6458 13.8864 22.2263 12.3383 21.5001C10.7903 20.7739 9.38944 19.7411 8.24374 18.485C7.09559 17.2289 6.20749 15.7495 5.62851 14.1573C5.6187 14.1279 5.60888 14.0985 5.59907 14.0715C5.47395 14.2947 5.34883 14.518 5.23353 14.7437C5.87875 16.2427 6.78893 17.6214 7.91745 18.7892C9.1392 20.0551 10.6087 21.0708 12.2132 21.77C13.8177 22.4667 15.5546 22.8421 17.294 22.8715C19.0334 22.9034 20.7704 22.5845 22.3822 21.9515C20.7556 22.5379 19.0187 22.8028 17.3014 22.7243Z" fill="#6FA287"/>
<path d="M12.3457 22.5526C10.729 21.9908 9.22998 21.1125 7.95916 19.9815C6.68589 18.853 5.64814 17.4742 4.90724 15.9532C4.89497 15.9262 4.8827 15.8967 4.87044 15.8697C4.7674 16.1053 4.66926 16.3383 4.57849 16.5763C5.37827 17.9992 6.42584 19.2774 7.67212 20.3201C9.01899 21.451 10.5867 22.3097 12.2549 22.8347C13.9232 23.3597 15.6896 23.5535 17.424 23.399C19.1561 23.2493 20.8513 22.7488 22.3871 21.9515C20.8292 22.7047 19.1291 23.1512 17.4118 23.2518C15.692 23.3524 13.9624 23.1119 12.3457 22.5526Z" fill="#6FA287"/>
<path d="M12.4634 23.5977C10.7976 23.2076 9.21526 22.4912 7.83159 21.5001C6.44792 20.5114 5.27033 19.248 4.37487 17.8128C4.35769 17.7858 4.34543 17.7588 4.32825 17.7343C4.2522 17.9771 4.17615 18.2225 4.11236 18.4654C5.05444 19.7975 6.23203 20.9579 7.5789 21.8656C9.03616 22.8494 10.6848 23.5388 12.3997 23.8872C14.1145 24.2355 15.8907 24.2429 17.5982 23.9093C19.3057 23.5781 20.9396 22.9034 22.3846 21.9515C20.9151 22.8641 19.2714 23.4848 17.5737 23.7645C15.876 24.0442 14.1292 23.9853 12.4634 23.5977Z" fill="#6FA287"/>
<path d="M12.6891 24.6256C10.9915 24.4122 9.34283 23.8651 7.86348 23.0236C6.38413 22.1846 5.08142 21.0511 4.04122 19.7165C4.02159 19.692 4.00442 19.6675 3.98724 19.6429C3.93572 19.8932 3.88911 20.1434 3.8474 20.3937C4.92441 21.6203 6.21731 22.6507 7.65004 23.4112C9.20299 24.238 10.9154 24.7507 12.6548 24.9176C14.3967 25.0844 16.1655 24.9053 17.8264 24.395C19.4897 23.8872 21.0451 23.0457 22.3797 21.9466C21.0132 23.0064 19.4431 23.7964 17.7847 24.2527C16.1311 24.7139 14.3868 24.8366 12.6891 24.6256Z" fill="#6FA287"/>
<path d="M13.0228 25.6241C11.3128 25.5898 9.61515 25.2169 8.05729 24.5349C6.49698 23.8553 5.08387 22.8641 3.90874 21.6473C3.88666 21.6252 3.86703 21.6031 3.8474 21.5811C3.82287 21.8362 3.80079 22.0889 3.78607 22.3416C4.98574 23.448 6.37923 24.3386 7.88311 24.9446C9.51456 25.6045 11.2687 25.9357 13.0179 25.921C14.7671 25.9038 16.5065 25.5432 18.1085 24.8611C19.7105 24.1816 21.1678 23.1831 22.3822 21.9515C21.1335 23.1487 19.6541 24.0982 18.0521 24.7238C16.4525 25.3518 14.7328 25.6585 13.0228 25.6241Z" fill="#6FA287"/>
<path d="M18.3686 25.1604C16.8426 25.9529 15.1621 26.4362 13.457 26.5834C11.752 26.7281 10.0248 26.5343 8.40566 26.0191C6.78402 25.5064 5.27523 24.6673 3.97743 23.5805C3.95535 23.5609 3.93327 23.5388 3.90874 23.5192C3.91119 23.7743 3.9161 24.0295 3.92836 24.2822C5.23598 25.2561 6.71533 25.997 8.27564 26.4435C9.96597 26.9293 11.7471 27.074 13.4865 26.8778C15.2234 26.6791 16.9162 26.1369 18.4373 25.2929C19.9583 24.4514 21.3052 23.3057 22.3846 21.9515C21.2659 23.2714 19.897 24.3729 18.3686 25.1604Z" fill="#6FA287"/>
<path d="M18.7268 25.5628C17.2916 26.5098 15.6724 27.1673 13.9919 27.4911C12.3113 27.8125 10.5744 27.8027 8.90859 27.4592C7.24279 27.1182 5.65304 26.4435 4.24975 25.4966C4.22521 25.4794 4.20068 25.4598 4.17615 25.4426C4.20559 25.6977 4.23748 25.9504 4.27673 26.2007C5.68003 27.0323 7.22807 27.6162 8.82763 27.8959C10.5597 28.2026 12.3457 28.1609 14.0532 27.783C15.7607 27.4028 17.3872 26.6864 18.8126 25.6879C20.238 24.6919 21.4573 23.4112 22.3871 21.954C21.4107 23.3818 20.1619 24.6183 18.7268 25.5628Z" fill="#6FA287"/>
</svg>
