<svg width="213" height="56" viewBox="0 0 213 56" fill="none" xmlns="http://www.w3.org/2000/svg">
<path fill-rule="evenodd" clip-rule="evenodd" d="M19.105 17.0726C18.9834 17.0726 18.8832 16.9725 18.8832 16.8509V4.74091C18.8832 4.69799 18.8546 4.65507 18.8189 4.64076C18.7759 4.61931 18.7259 4.63361 18.6973 4.66222L14.5915 8.76803C14.4412 8.91824 14.3053 9.24012 14.3053 9.44756V21.5432C14.3053 21.6076 14.3554 21.6577 14.4198 21.6577H28.9546C29.0762 21.6577 29.1764 21.7578 29.1764 21.8794V24.0468C29.1764 24.3615 28.9189 24.619 28.6041 24.619H14.4198C14.3912 24.619 14.3626 24.6333 14.3411 24.6548C14.3196 24.6762 14.3053 24.7048 14.3053 24.7335V40.1696C14.3053 41.9435 15.7502 43.3884 17.5242 43.3884H28.6041C28.9189 43.3884 29.1764 43.6459 29.1764 43.9606V46.1351C29.1764 46.2567 29.0762 46.3569 28.9546 46.3569H17.5242C14.1122 46.3569 11.3369 43.5815 11.3369 40.1696V12.2873C11.3369 12.2444 11.3082 12.2015 11.2725 12.1871C11.2296 12.1657 11.1795 12.18 11.1509 12.2086L7.04508 16.3144C6.89487 16.4646 6.76611 16.7865 6.76611 16.9939V41.5072C6.76611 46.7074 10.9935 50.9348 16.1866 50.9348H33.6541C33.7185 50.9348 33.7686 50.8847 33.7686 50.8203L33.7829 17.2014C33.7829 17.137 33.7185 17.0798 33.6613 17.0798H19.105V17.0726ZM29.1764 29.7691V38.2311C29.1764 38.5458 28.9189 38.8033 28.6041 38.8033H19.1336C19.012 38.8033 18.9119 38.7032 18.9119 38.5816V29.7691C18.9119 29.4544 19.1694 29.1969 19.4841 29.1969H28.6113C28.926 29.1969 29.1764 29.4544 29.1764 29.7691Z" fill="#FF5500"/>
<path d="M41.0435 23.6104L36.9376 19.5046C36.9019 19.4689 36.859 19.4617 36.816 19.4832C36.7731 19.4975 36.7517 19.5404 36.7517 19.5833V48.4098C36.7517 48.4527 36.7803 48.4956 36.816 48.5099C36.8304 48.5171 36.8447 48.5171 36.859 48.5171C36.8876 48.5171 36.9162 48.5028 36.9376 48.4813L41.0435 44.3755C41.1937 44.2253 41.3224 43.9106 41.3224 43.696V24.2971C41.3224 24.0825 41.1937 23.7607 41.0435 23.6104Z" fill="#FF5500"/>
<path fill-rule="evenodd" clip-rule="evenodd" d="M135.863 30.7777C134.704 29.8907 133.495 29.4329 132.201 29.4329C130.348 29.4329 128.76 30.1339 127.494 31.5287C126.199 32.9522 125.555 34.7047 125.555 36.8291C125.555 38.7962 126.12 40.4056 127.279 41.7003C128.409 43.0164 129.804 43.6673 131.478 43.6673C133.202 43.6673 134.575 42.995 135.942 41.4642V43.4027H139.926V23.0096L135.863 24.0825V30.7777ZM135.863 39.2039C134.761 39.9549 133.846 40.2554 132.88 40.2554C130.913 40.2554 129.518 38.7747 129.518 36.6002C129.518 34.3685 130.999 32.8306 133.123 32.8306C134.089 32.8306 134.926 33.0452 135.87 33.5816V39.2039H135.863Z" fill="#FF5500"/>
<path d="M141.027 24.5689H158.81V28.4673H152.086V43.3955H147.751V28.4673H141.027V24.5689Z" fill="#FF5500"/>
<path d="M203.466 40.2482C204.324 40.2482 205.104 39.9263 206.155 39.1467L206.234 39.2039L205.612 42.7518C204.567 43.3741 203.359 43.696 202.064 43.696C199.024 43.696 197.386 41.8934 197.386 38.4743V32.8234H195.29V29.6475H197.386V26.7148L201.391 25.7205V29.6475H206.155V32.8234H201.391V38.1238C201.391 39.5258 202.092 40.2482 203.466 40.2482Z" fill="#FF5500"/>
<path d="M190.418 34.9479C189.21 34.6546 188.43 34.3828 188.051 34.1682C187.672 33.9822 187.486 33.7104 187.486 33.3599C187.486 32.7447 188.187 32.337 189.345 32.337C190.769 32.337 192.629 32.9522 194.238 34.0037L194.317 33.9751V30.5345C192.836 29.7548 191.22 29.3542 189.503 29.3542C185.976 29.3542 183.723 31.0495 183.723 33.6317C183.723 35.7561 184.932 36.9435 188.509 37.8806C189.717 38.2025 190.526 38.4743 190.933 38.6889C191.334 38.9035 191.527 39.1967 191.527 39.5758C191.527 40.2196 190.776 40.6774 189.617 40.6774C187.707 40.6774 185.554 39.8691 183.487 38.4457L183.408 38.4957L183.945 42.1795C185.69 43.231 187.414 43.6888 189.381 43.6888C191.155 43.6888 192.586 43.2882 193.687 42.4799C194.767 41.7003 195.304 40.6488 195.304 39.3612C195.304 38.2025 194.953 37.3155 194.252 36.6431C193.537 35.9707 192.278 35.4057 190.418 34.9479Z" fill="#FF5500"/>
<path d="M178.259 38.7961C177.1 39.7618 176.292 40.1409 175.297 40.1409C173.817 40.1409 173.008 39.1967 173.008 37.5587V29.6475H168.917V38.3884C168.917 41.643 170.719 43.6888 173.545 43.6888C175.483 43.6888 176.878 42.8519 178.359 40.9206V43.3955H182.314V29.6475H178.251V38.7961H178.259Z" fill="#FF5500"/>
<path d="M166.77 29.4329C165.29 29.4329 164.16 30.3485 162.25 33.038V29.4615L158.266 29.9694V43.3955H162.357V35.3556C164.102 34.1682 165.454 33.6889 166.928 33.6889C167.278 33.6889 167.572 33.6889 167.901 33.7676L167.657 29.5474C167.257 29.4615 167.071 29.4329 166.77 29.4329Z" fill="#FF5500"/>
<path d="M119.668 29.3256C117.809 29.3256 116.356 30.1625 114.883 32.0938V29.4544L110.899 29.9622V43.3884H114.99V34.2254C116.149 33.2598 116.929 32.9093 117.923 32.9093C119.404 32.9093 120.233 33.8535 120.233 35.4629V43.3955H124.296V34.626C124.296 31.3714 122.494 29.3256 119.668 29.3256Z" fill="#FF5500"/>
<path fill-rule="evenodd" clip-rule="evenodd" d="M102.236 29.2756C100.112 29.2756 98.3381 29.9766 96.9075 31.3714C95.484 32.7948 94.7831 34.5187 94.7831 36.5358C94.7831 38.5816 95.4841 40.2983 96.8789 41.6717C98.2523 43.0736 100.026 43.7675 102.208 43.7675C104.332 43.7675 106.106 43.0665 107.537 41.643C108.96 40.2196 109.661 38.4957 109.661 36.4786C109.661 34.4329 108.96 32.709 107.587 31.3428C106.192 29.9766 104.418 29.2756 102.236 29.2756ZM102.215 40.3054C100.248 40.3054 98.7458 38.6889 98.7458 36.543C98.7458 34.3613 100.198 32.7519 102.244 32.7519C104.261 32.7519 105.713 34.3399 105.713 36.4929C105.706 38.6603 104.232 40.3054 102.215 40.3054Z" fill="#FF5500"/>
<path d="M91.2641 29.6475L88.1669 38.2811L84.7763 29.6475H80.363L86.0925 42.8304C85.4702 44.3111 84.5832 44.9548 83.1097 44.9548C82.3586 44.9548 81.6576 44.7689 80.8207 44.3397L80.7707 44.3898L81.5503 48.1021C82.3014 48.424 83.0596 48.5599 83.918 48.5599C86.7434 48.5599 88.7605 46.9434 90.0767 43.5314L95.5916 29.6475H91.2641Z" fill="#FF5500"/>
<path fill-rule="evenodd" clip-rule="evenodd" d="M75.6059 40.4914C73.3742 40.4914 71.8935 39.4399 71.4643 37.6159H80.9563C80.9678 37.4325 80.9827 37.2445 80.9964 37.0713L80.9965 37.0701L80.9966 37.069C81.0171 36.8107 81.035 36.5854 81.035 36.4571C81.035 34.3041 80.4413 32.5588 79.2897 31.2355C78.1094 29.9193 76.5215 29.2684 74.5043 29.2684C72.4872 29.2684 70.842 29.9694 69.5259 31.3428C68.2097 32.7448 67.5373 34.4615 67.5373 36.4786C67.5373 38.6603 68.2097 40.4056 69.5545 41.7217C70.8706 43.0379 72.6446 43.6816 74.8834 43.6816C76.6288 43.6816 77.9807 43.3884 79.6187 42.6087L80.7203 39.1896L80.6416 39.1324C78.8891 40.0336 77.2439 40.4914 75.6059 40.4914ZM74.4185 32.2083C76.0065 32.2083 77.0508 33.3885 77.2439 35.3055H71.4357C71.6503 33.4457 72.8091 32.2083 74.4185 32.2083Z" fill="#FF5500"/>
<path fill-rule="evenodd" clip-rule="evenodd" d="M63.203 33.5816C64.9268 32.6947 65.8639 31.2712 65.8639 29.5474C65.8639 26.4287 63.4962 24.5689 59.512 24.5689H52.545V43.4027H59.5406C61.6651 43.4027 63.3889 42.9163 64.6765 41.922C65.9426 40.9563 66.5863 39.633 66.5863 37.995C66.5935 35.9421 65.4347 34.4114 63.203 33.5816ZM59.2259 40.0622H56.6723V35.3556H59.1186C61.193 35.3556 62.3446 36.1925 62.3446 37.7232C62.3446 39.1466 61.1572 40.0622 59.2259 40.0622ZM56.6651 27.9022H59.0042C60.6994 27.9022 61.7223 28.6819 61.7223 30.0552C61.7223 31.4572 60.5921 32.3656 58.8468 32.3656H56.6651V27.9022Z" fill="#FF5500"/>
</svg>
