<svg width="172" height="69" viewBox="0 0 172 69" fill="none" xmlns="http://www.w3.org/2000/svg">
<path d="M72.732 23.1897H73.9212C74.8194 23.2597 75.7118 22.9959 76.4276 22.4488C76.7099 22.1735 76.9295 21.8406 77.0716 21.4728C77.2137 21.105 77.2748 20.7109 77.2509 20.3174C77.2867 19.9412 77.246 19.5617 77.1313 19.2017C77.0165 18.8417 76.83 18.5086 76.5831 18.2226C75.9733 17.7219 75.1922 17.4791 74.406 17.5457H72.7594V23.1897H72.732ZM80.919 20.171C80.9775 21.0309 80.8537 21.8933 80.5558 22.702C80.2579 23.5107 79.7925 24.2473 79.1901 24.8637C77.8275 26.0187 76.0695 26.5993 74.2871 26.4828H72.732V33.2428H69.073V14.2434H74.5615C76.2815 14.1196 77.9846 14.6524 79.3273 15.7345C79.8972 16.3163 80.3364 17.013 80.6156 17.7781C80.8948 18.5431 81.0076 19.3589 80.9464 20.171H80.919Z" fill="#231F20"/>
<path d="M90.3043 18.4421C90.7072 18.4318 91.1097 18.4718 91.5027 18.5611L91.2191 22.275C90.876 22.1839 90.522 22.1408 90.1671 22.1469C89.6807 22.1182 89.1936 22.1894 88.7358 22.3561C88.278 22.5229 87.8592 22.7817 87.5052 23.1165C87.1795 23.4912 86.931 23.9264 86.7741 24.3974C86.6171 24.8683 86.5547 25.3656 86.5905 25.8608V33.2519H82.9863V18.7166H85.7306L86.2611 21.159H86.4349C86.8101 20.3757 87.3764 19.6993 88.0815 19.1922C88.7222 18.7092 89.5019 18.4461 90.3043 18.4421Z" fill="#231F20"/>
<path d="M98.5371 21.2596C98.1987 21.2438 97.8614 21.3085 97.5529 21.4484C97.2444 21.5884 96.9735 21.7995 96.7625 22.0646C96.2876 22.7263 96.0288 23.5187 96.0215 24.3331H101.034C101.079 23.5227 100.843 22.7215 100.367 22.0646C100.146 21.7963 99.8657 21.5837 99.5479 21.4438C99.23 21.304 98.8838 21.2409 98.5371 21.2596ZM99.0402 33.5081C98.1276 33.5554 97.2154 33.4068 96.365 33.0723C95.5145 32.7378 94.7456 32.2252 94.1097 31.5688C92.8191 30.0413 92.1642 28.0767 92.2802 26.0803C92.1633 24.06 92.7589 22.0626 93.9633 20.4363C94.5187 19.7718 95.2211 19.2456 96.0149 18.8995C96.8087 18.5534 97.6723 18.3968 98.5371 18.4421C99.3405 18.397 100.144 18.5312 100.889 18.8349C101.634 19.1387 102.303 19.6045 102.846 20.1985C103.945 21.5663 104.497 23.2946 104.391 25.0466V26.9676H95.9575C95.9411 27.9263 96.2652 28.8598 96.8722 29.6021C97.1748 29.9178 97.543 30.1634 97.9507 30.3214C98.3585 30.4794 98.796 30.5462 99.2323 30.5168C99.9849 30.5209 100.735 30.4287 101.464 30.2424C102.23 30.038 102.97 29.7464 103.669 29.3734V32.4378C103.038 32.7834 102.364 33.0448 101.666 33.2154C100.812 33.3984 99.9405 33.4843 99.0676 33.4715L99.0402 33.5081Z" fill="#231F20"/>
<path d="M109.789 33.2428L104.803 18.7166H108.535L111.06 26.9493C111.329 27.9216 111.507 28.9169 111.591 29.9223H111.655C111.729 28.9157 111.907 27.9195 112.185 26.9493L114.701 18.7166H118.433L113.448 33.2428H109.789Z" fill="#231F20"/>
<path d="M124.992 21.2596C124.653 21.2438 124.316 21.3085 124.007 21.4484C123.699 21.5884 123.428 21.7995 123.217 22.0646C122.742 22.7263 122.483 23.5187 122.476 24.3331H127.489C127.526 23.5194 127.28 22.7179 126.794 22.0646C126.574 21.7952 126.294 21.5817 125.976 21.4418C125.658 21.3018 125.311 21.2394 124.964 21.2596H124.992ZM125.495 33.5081C124.582 33.5554 123.67 33.4068 122.82 33.0723C121.969 32.7378 121.2 32.2252 120.564 31.5688C119.297 30.0313 118.662 28.0689 118.79 26.0803C118.66 24.0655 119.239 22.0687 120.427 20.4363C120.982 19.7718 121.685 19.2456 122.479 18.8995C123.272 18.5534 124.136 18.3968 125.001 18.4422C125.805 18.4001 126.609 18.5357 127.355 18.8392C128.102 19.1427 128.772 19.6068 129.318 20.1985C130.411 21.5697 130.958 23.2964 130.855 25.0466V26.9676H122.43C122.414 27.9263 122.738 28.8598 123.345 29.6021C123.648 29.9178 124.016 30.1634 124.424 30.3214C124.831 30.4794 125.269 30.5462 125.705 30.5168C126.461 30.5209 127.214 30.4287 127.946 30.2424C128.708 30.0362 129.445 29.7447 130.142 29.3734V32.4378C129.512 32.7868 128.838 33.0484 128.138 33.2154C127.285 33.3984 126.413 33.4843 125.541 33.4715L125.495 33.5081Z" fill="#231F20"/>
<path d="M145.08 33.2428H141.53V24.7539C141.585 23.9387 141.411 23.1244 141.027 22.403C140.856 22.1395 140.617 21.9272 140.335 21.7887C140.054 21.6501 139.739 21.5906 139.426 21.6163C138.999 21.583 138.571 21.6688 138.19 21.8642C137.809 22.0596 137.49 22.357 137.268 22.7232C136.741 23.8672 136.511 25.1257 136.6 26.3822V33.2154H133.032V18.7166H135.777L136.252 20.5461H136.453C136.817 19.8682 137.374 19.3141 138.054 18.9544C138.793 18.5874 139.608 18.4023 140.433 18.4147C141.076 18.3698 141.722 18.4698 142.322 18.7072C142.922 18.9447 143.461 19.3136 143.9 19.7868C144.756 20.9189 145.175 22.3222 145.08 23.7386V33.2428Z" fill="#231F20"/>
<path d="M153.541 30.343C154.308 30.3171 155.065 30.1657 155.782 29.8948V32.8403C154.759 33.3111 153.642 33.5397 152.516 33.5081C151.939 33.5605 151.357 33.4788 150.816 33.2694C150.274 33.0599 149.789 32.7284 149.397 32.3006C148.671 31.2451 148.326 29.9741 148.418 28.6965V21.6987H146.708V20.0155L148.675 18.6891L149.708 15.6247H151.986V18.7166H155.645V21.6987H151.986V28.7056C151.97 28.9285 152 29.1522 152.074 29.363C152.148 29.5738 152.264 29.7672 152.416 29.9314C152.567 30.0698 152.745 30.1767 152.938 30.2458C153.131 30.3149 153.336 30.3448 153.541 30.3339V30.343Z" fill="#231F20"/>
<path d="M71.2958 45.4821V52.6172H74.8542C75.9697 52.6928 77.0756 52.3685 77.9735 51.7024C78.3381 51.3492 78.6212 50.9206 78.8029 50.4466C78.9846 49.9726 79.0606 49.4646 79.0255 48.9582C79.0657 48.4713 78.9896 47.9819 78.8035 47.5302C78.6174 47.0786 78.3267 46.6776 77.9552 46.3603C76.9958 45.7174 75.8512 45.4088 74.6987 45.4821H71.2958ZM71.2958 43.6069H74.5615C75.6265 43.7006 76.693 43.4436 77.5985 42.8751C77.9304 42.5614 78.1856 42.1754 78.3443 41.747C78.5029 41.3187 78.5607 40.8596 78.5132 40.4053C78.544 39.9767 78.4673 39.5472 78.2899 39.1559C78.1126 38.7645 77.8403 38.4236 77.4978 38.1642C76.4991 37.6123 75.3608 37.3643 74.223 37.4506H71.2958V43.6527V43.6069ZM69.2651 35.5022H74.095C76.3635 35.5022 78.0101 35.8864 79.0163 36.6365C79.5422 37.0618 79.9563 37.6091 80.2225 38.2309C80.4887 38.8526 80.5991 39.53 80.544 40.204C80.5851 41.2036 80.2851 42.1875 79.6932 42.994C79.0712 43.7592 78.1883 44.2674 77.2143 44.421V44.5674C79.8427 45.0492 81.1568 46.5737 81.1568 49.1411C81.192 49.8696 81.0715 50.5973 80.8034 51.2755C80.5352 51.9538 80.1256 52.5671 79.6018 53.0746C78.3923 54.0875 76.8405 54.5982 75.2658 54.5016H69.2651V35.5022Z" fill="#231F20"/>
<path d="M85.7489 54.5016H83.8096V35.1912H85.7489V54.5016Z" fill="#231F20"/>
<path d="M91.091 54.5016H89.1518V40.2589H91.091V54.5016ZM88.9871 36.3987C88.9532 36.0098 89.0712 35.623 89.3164 35.3193C89.4207 35.2094 89.5462 35.1219 89.6854 35.0621C89.8246 35.0023 89.9745 34.9714 90.126 34.9714C90.2774 34.9714 90.4273 35.0023 90.5665 35.0621C90.7057 35.1219 90.8313 35.2094 90.9355 35.3193C91.1882 35.6197 91.3129 36.0073 91.2831 36.3987C91.3124 36.7928 91.1878 37.183 90.9355 37.4872C90.8327 37.5995 90.7076 37.6892 90.5682 37.7506C90.4289 37.8119 90.2782 37.8436 90.126 37.8436C89.9737 37.8436 89.8231 37.8119 89.6837 37.7506C89.5443 37.6892 89.4193 37.5995 89.3164 37.4872C89.0739 37.1786 88.9564 36.79 88.9871 36.3987Z" fill="#231F20"/>
<path d="M103.257 54.5016V45.2901C103.328 44.3675 103.076 43.4492 102.544 42.6922C102.261 42.3897 101.913 42.1552 101.526 42.0063C101.14 41.8573 100.725 41.7979 100.312 41.8323C99.7601 41.7852 99.2053 41.8701 98.693 42.0801C98.1808 42.2901 97.726 42.619 97.3662 43.0398C96.6474 44.2391 96.3271 45.6354 96.4515 47.0281V54.5016H94.4847V40.2589H96.0673L96.3783 42.2073H96.4789C96.8672 41.5137 97.4488 40.948 98.1529 40.5791C98.8898 40.1855 99.7141 39.9841 100.55 39.9937C101.184 39.9493 101.821 40.0378 102.42 40.2536C103.018 40.4694 103.565 40.8077 104.026 41.2469C104.899 42.3731 105.314 43.7881 105.187 45.2077V54.5016H103.257Z" fill="#231F20"/>
<path d="M113.31 52.9557C113.852 53.0033 114.396 52.9192 114.898 52.7106C115.4 52.5019 115.844 52.1748 116.192 51.7573C116.889 50.5895 117.208 49.235 117.107 47.8788V47.4214C117.226 45.924 116.908 44.4241 116.192 43.1038C115.854 42.6629 115.41 42.3143 114.902 42.0905C114.393 41.8666 113.836 41.7747 113.283 41.8232C112.755 41.8072 112.233 41.936 111.774 42.1957C111.314 42.4553 110.934 42.8358 110.676 43.2959C110 44.5781 109.684 46.0196 109.761 47.4672C109.673 48.898 109.99 50.3248 110.676 51.5835C110.954 52.0286 111.345 52.3918 111.81 52.6361C112.274 52.8804 112.795 52.997 113.319 52.9739L113.31 52.9557ZM117.088 52.5898C116.678 53.2831 116.086 53.8514 115.377 54.2334C114.668 54.6154 113.868 54.7967 113.063 54.7577C112.306 54.7893 111.552 54.6319 110.87 54.2998C110.188 53.9676 109.6 53.4712 109.157 52.855C108.133 51.2352 107.644 49.3345 107.758 47.4214C107.639 45.4906 108.128 43.571 109.157 41.9329C109.595 41.3101 110.182 40.8064 110.864 40.4678C111.546 40.1291 112.302 39.9662 113.063 39.9937C113.856 39.9619 114.643 40.1396 115.344 40.509C116.046 40.8784 116.638 41.4263 117.061 42.0976H117.216L117.134 41.0731V35.1912H119.073V54.5016H117.5L117.235 52.5898H117.088Z" fill="#231F20"/>
<path d="M131.194 54.5016V45.2901C131.264 44.3675 131.012 43.4492 130.48 42.6922C130.197 42.3897 129.849 42.1552 129.463 42.0063C129.076 41.8573 128.661 41.7979 128.248 41.8323C127.697 41.7859 127.142 41.8712 126.63 42.0811C126.118 42.2911 125.663 42.6196 125.303 43.0398C124.584 44.2391 124.264 45.6354 124.388 47.0281V54.5016H122.449V40.2589H124.022L124.342 42.2073H124.434C124.822 41.5137 125.404 40.948 126.108 40.5791C126.846 40.1898 127.67 39.9916 128.504 40.0028C129.14 39.9559 129.778 40.0424 130.378 40.2566C130.979 40.4708 131.527 40.8081 131.989 41.2469C132.866 42.3718 133.285 43.7869 133.16 45.2077V54.5016H131.194Z" fill="#231F20"/>
<path d="M141.293 41.8232C140.824 41.8067 140.358 41.8988 139.931 42.0924C139.504 42.286 139.128 42.5758 138.832 42.9391C138.166 43.8359 137.789 44.9146 137.752 46.031H144.458C144.529 44.9294 144.24 43.8346 143.634 42.9117C143.363 42.552 143.008 42.2646 142.599 42.0748C142.191 41.8849 141.742 41.7985 141.293 41.8232ZM141.823 54.776C140.979 54.816 140.137 54.6638 139.361 54.3311C138.585 53.9983 137.894 53.4936 137.341 52.855C136.162 51.3328 135.577 49.4343 135.694 47.5129C135.588 45.5654 136.125 43.6371 137.222 42.0244C137.686 41.376 138.303 40.8517 139.017 40.4976C139.732 40.1435 140.523 39.9704 141.32 39.9937C142.049 39.9657 142.775 40.1102 143.437 40.4153C144.1 40.7205 144.682 41.1778 145.134 41.75C146.116 43.0947 146.61 44.7338 146.534 46.3969V47.769H137.707C137.645 49.1305 138.048 50.4726 138.85 51.5744C139.223 52.0118 139.692 52.3568 140.22 52.5822C140.749 52.8076 141.323 52.9072 141.896 52.8733C143.31 52.8782 144.708 52.5656 145.985 51.9586V53.8796C145.364 54.1897 144.711 54.429 144.037 54.5931C143.309 54.7476 142.567 54.8182 141.823 54.8034V54.776Z" fill="#231F20"/>
<path d="M157.392 50.6139C157.43 51.1995 157.329 51.7859 157.097 52.3249C156.865 52.864 156.508 53.3403 156.057 53.7149C154.969 54.4905 153.648 54.8684 152.315 54.7852C150.932 54.8577 149.557 54.5408 148.345 53.8704V51.8854C148.969 52.2345 149.632 52.5078 150.321 52.6995C150.984 52.8943 151.67 52.9959 152.361 53.0014C153.177 53.0488 153.99 52.8615 154.703 52.4617C154.973 52.2845 155.192 52.0387 155.337 51.7495C155.481 51.4603 155.547 51.1379 155.526 50.8151C155.529 50.5456 155.472 50.2787 155.36 50.0335C155.248 49.7884 155.083 49.5712 154.877 49.3973C154.103 48.812 153.25 48.3407 152.343 47.9977C151.437 47.6579 150.572 47.2192 149.763 46.6896C149.296 46.3605 148.911 45.9286 148.638 45.4273C148.38 44.9078 148.255 44.3328 148.272 43.7533C148.249 43.2275 148.353 42.704 148.574 42.2265C148.795 41.7491 149.128 41.3316 149.544 41.009C150.563 40.2843 151.799 39.9293 153.047 40.0028C154.446 40.0029 155.827 40.3154 157.09 40.9175L156.432 42.7379C155.347 42.1837 154.155 41.8716 152.937 41.8232C152.212 41.775 151.489 41.9438 150.861 42.308C150.637 42.4477 150.454 42.6438 150.331 42.8767C150.207 43.1095 150.147 43.3709 150.156 43.6344C150.148 43.9766 150.24 44.3137 150.422 44.604C150.644 44.9175 150.931 45.1795 151.263 45.3724C151.988 45.7664 152.74 46.1087 153.514 46.3969C154.663 46.7729 155.716 47.3975 156.596 48.2264C157.138 48.8875 157.421 49.7231 157.392 50.5773V50.6139Z" fill="#231F20"/>
<path d="M167.692 50.6139C167.73 51.1986 167.63 51.784 167.399 52.3228C167.169 52.8615 166.815 53.3384 166.366 53.7149C165.278 54.4892 163.957 54.8669 162.624 54.7852C161.239 54.8589 159.86 54.542 158.645 53.8704V51.8854C159.272 52.2361 159.938 52.5094 160.63 52.6995C161.293 52.8949 161.979 52.9965 162.67 53.0014C163.484 53.0501 164.294 52.8627 165.003 52.4617C165.273 52.2845 165.492 52.0387 165.637 51.7495C165.781 51.4603 165.847 51.1379 165.826 50.8151C165.829 50.5456 165.772 50.2787 165.66 50.0335C165.548 49.7884 165.383 49.5712 165.177 49.3973C164.405 48.81 163.551 48.3385 162.643 47.9977C161.752 47.6592 160.899 47.2269 160.1 46.7079C159.633 46.3788 159.248 45.9469 158.975 45.4456C158.722 44.9244 158.596 44.3507 158.609 43.7716C158.588 43.2461 158.693 42.7234 158.914 42.2463C159.135 41.7692 159.466 41.3514 159.88 41.0273C160.899 40.3026 162.135 39.9476 163.384 40.0211C164.783 40.0202 166.164 40.3328 167.427 40.9358L166.741 42.7379C165.652 42.1846 164.457 41.8726 163.237 41.8232C162.512 41.775 161.79 41.9438 161.161 42.308C160.939 42.4497 160.758 42.6463 160.634 42.8786C160.511 43.111 160.45 43.3713 160.457 43.6344C160.461 43.966 160.559 44.2896 160.74 44.5674C160.962 44.8809 161.249 45.143 161.582 45.3358C162.3 45.7415 163.046 46.0961 163.814 46.3969C164.963 46.7729 166.016 47.3975 166.896 48.2264C167.438 48.8875 167.721 49.7231 167.692 50.5773V50.6139Z" fill="#231F20"/>
<path d="M24.8999 15.2222L23.1436 8.25183C17.5455 10.1275 12.6952 13.7468 9.30347 18.5794L15.8439 21.781C18.1965 18.7978 21.3318 16.5271 24.8999 15.2222Z" fill="#00ACA1"/>
<path d="M25.705 18.4146C23.0551 19.4386 20.7008 21.1045 18.8535 23.2627L28.1016 27.7724L25.705 18.4146Z" fill="#00ACA1"/>
<path d="M31.8616 6.83411C28.8984 6.83408 25.9546 7.31287 23.144 8.25198L24.9004 15.2224C28.5451 13.9058 32.4889 13.6523 36.2721 14.4912C40.0554 15.3301 43.5224 17.227 46.2689 19.9608L53.221 16.9787C50.6386 13.8064 47.3815 11.2498 43.6866 9.49497C39.9917 7.7401 35.9521 6.8311 31.8616 6.83411Z" fill="#4777AE"/>
<path d="M33.3986 25.4857C32.5828 24.2955 32.0156 22.9528 31.7311 21.5382C31.4466 20.1235 31.4506 18.666 31.7429 17.2529C29.6781 17.2683 27.633 17.6557 25.7056 18.3964L28.1022 27.7726L33.4444 25.4857H33.3986Z" fill="#5E84B7"/>
<path d="M52.2609 34.3956C52.2593 35.4769 52.1737 36.5565 52.0048 37.6246L58.7648 40.3689C59.6786 36.2993 59.6544 32.0752 58.694 28.0164C57.7336 23.9576 55.8621 20.1706 53.2214 16.9421L46.2693 19.9242C48.1711 21.8159 49.6796 24.0653 50.7079 26.5427C51.7363 29.0201 52.2641 31.6766 52.2609 34.359V34.3956Z" fill="#005596"/>
<path d="M48.8854 36.3346C49.204 33.6589 48.8907 30.9457 47.9707 28.4129C45.6416 29.9039 42.8242 30.4311 40.1136 29.8832C37.403 29.3352 35.0115 27.7551 33.4444 25.4766L28.1023 27.7726L48.8854 36.3346Z" fill="#005596"/>
<path d="M31.8617 54.7944C30.9436 54.7947 30.0266 54.7305 29.1174 54.6023L29.401 61.8471C30.2151 61.9203 31.0384 61.966 31.8708 61.966C38.1359 61.9612 44.2126 59.8234 49.1008 55.9046C53.9889 51.9858 57.3972 46.5194 58.7645 40.4054L52.0045 37.6611C51.2371 42.4475 48.7904 46.8042 45.1027 49.9504C41.415 53.0967 36.7274 54.8269 31.88 54.831L31.8617 54.7944Z" fill="#A5D7E9"/>
<path d="M15.8448 21.781L9.30434 18.5793C6.58814 22.4328 4.91484 26.9233 4.44702 31.6145L11.8656 30.4071C12.491 27.2574 13.8548 24.3011 15.8448 21.781Z" fill="#8DC63F"/>
<path d="M28.102 27.7728L18.8538 23.2631C17.2171 25.1715 16.0209 27.417 15.3503 29.8401L28.102 27.7728Z" fill="#009AC7"/>
<path d="M11.4717 34.3953C11.472 33.0562 11.6038 31.7204 11.865 30.407L4.44641 31.6145C4.35493 32.5292 4.30005 33.444 4.30005 34.3587C4.30426 36.1208 4.47269 37.8786 4.80316 39.6094L12.9536 42.006C11.9732 39.5757 11.4701 36.9793 11.4717 34.3587V34.3953Z" fill="#AED477"/>
<path d="M28.1019 27.7725L15.3503 29.8398C14.7186 32.0901 14.5551 34.446 14.8698 36.7619C15.1844 39.0779 15.9706 41.3047 17.1798 43.3049L28.6782 46.6803L28.1019 27.7725Z" fill="#41BFBA"/>
<path d="M12.9534 42.043L4.80298 39.6464C6.13288 46.495 10.0097 52.5848 15.6519 56.6882L21.6801 52.1144C17.7318 49.8257 14.6606 46.2845 12.9534 42.0522V42.043Z" fill="#EBE72A"/>
<path d="M17.2253 43.3054C18.9756 46.163 21.5178 48.451 24.5433 49.8916L28.7329 46.6808L17.2253 43.3054Z" fill="#8DC63F"/>
<path d="M21.6986 52.0686L15.6704 56.6424C19.693 59.572 24.4353 61.3551 29.3917 61.8015L29.1081 54.6299C26.4962 54.2619 23.9802 53.3921 21.6986 52.0686Z" fill="#8DC63F"/>
<path d="M24.5339 49.8913C25.9252 50.5479 27.3993 51.0126 28.9156 51.2726L28.7235 46.6989L24.5339 49.8913Z" fill="#00ACA1"/>
<path d="M48.8854 36.3345L28.1023 27.7725L28.7701 46.6803L48.8946 36.3803L48.8854 36.3345Z" fill="#009AC7"/>
<path d="M31.8623 51.5286C36.0626 51.5298 40.1168 49.9871 43.2538 47.1941C46.3909 44.4011 48.392 40.5526 48.8767 36.3804L28.7522 46.6805L28.9443 51.2542C29.9171 51.4227 30.9025 51.5084 31.8898 51.5103L31.8623 51.5286Z" fill="#46B9D9"/>
</svg>
