<svg width="48" height="48" viewBox="0 0 48 48" fill="none" xmlns="http://www.w3.org/2000/svg">
<rect x="12" y="3" width="36" height="42" rx="2" fill="#2FB776"/>
<path d="M12 34.5H48V43C48 44.1046 47.1046 45 46 45H14C12.8954 45 12 44.1046 12 43V34.5Z" fill="url(#paint0_linear_0_5829)"/>
<rect x="30" y="24" width="18" height="10.5" fill="#229C5B"/>
<rect x="30" y="13.5" width="18" height="10.5" fill="#27AE68"/>
<path d="M12 5C12 3.89543 12.8954 3 14 3H30V13.5H12V5Z" fill="#1D854F"/>
<rect x="12" y="13.5" width="18" height="10.5" fill="#197B43"/>
<rect x="12" y="24" width="18" height="10.5" fill="#1B5B38"/>
<path d="M12 16.5C12 14.8431 13.3431 13.5 15 13.5H27C28.6569 13.5 30 14.8431 30 16.5V37.5C30 39.1569 28.6569 40.5 27 40.5H12V16.5Z" fill="black" fill-opacity="0.3"/>
<rect y="10.5" width="27" height="27" rx="2" fill="url(#paint1_linear_0_5829)"/>
<path d="M19.5 31.5L15.2732 23.85L19.3144 16.5H16.0155L13.5206 21.1929L11.067 16.5H7.66495L11.7268 23.85L7.5 31.5H10.799L13.4588 26.5286L16.0979 31.5H19.5Z" fill="white"/>
<defs>
<linearGradient id="paint0_linear_0_5829" x1="12" y1="39.75" x2="48" y2="39.75" gradientUnits="userSpaceOnUse">
<stop stop-color="#163C27"/>
<stop offset="1" stop-color="#2A6043"/>
</linearGradient>
<linearGradient id="paint1_linear_0_5829" x1="0" y1="24" x2="27" y2="24" gradientUnits="userSpaceOnUse">
<stop stop-color="#185A30"/>
<stop offset="1" stop-color="#176F3D"/>
</linearGradient>
</defs>
</svg>
