<svg width="184" height="65" viewBox="0 0 184 65" fill="none" xmlns="http://www.w3.org/2000/svg">
<path d="M55.668 56.103H41.9291C41.4057 56.1037 40.8916 55.965 40.4395 55.7013C39.9874 55.4376 39.6137 55.0583 39.3566 54.6024L28.5951 35.547C28.5225 35.4175 28.4844 35.2715 28.4844 35.123C28.4844 34.9746 28.5225 34.8286 28.5951 34.699L31.0151 30.4116C31.09 30.2798 31.1984 30.1703 31.3294 30.0941C31.4603 30.0179 31.6092 29.9777 31.7607 29.9777C31.9122 29.9777 32.061 30.0179 32.192 30.0941C32.3229 30.1703 32.4314 30.2798 32.5062 30.4116L43.4631 49.5718C43.5362 49.7023 43.6426 49.8112 43.7715 49.8874C43.9003 49.9635 44.047 50.0042 44.1967 50.0053L49.0368 50.0624C49.1881 50.0642 49.3373 50.0259 49.4691 49.9514C49.6008 49.8769 49.7105 49.7688 49.787 49.6381C49.8634 49.5074 49.9039 49.3589 49.9044 49.2075C49.9048 49.0561 49.8652 48.9073 49.7895 48.7762L32.3681 18.4496C32.2929 18.319 32.1846 18.2105 32.0541 18.135C31.9237 18.0596 31.7756 18.0199 31.6249 18.0199C31.4742 18.0199 31.3262 18.0596 31.1957 18.135C31.0652 18.2105 30.9569 18.319 30.8818 18.4496L10.14 54.6214C9.88129 55.0724 9.50798 55.447 9.05789 55.7071C8.60779 55.9673 8.09691 56.1039 7.57702 56.103C7.05751 56.1071 6.5461 55.9742 6.0944 55.7175C5.6427 55.4608 5.26669 55.0896 5.00431 54.6412C4.74193 54.1927 4.60248 53.6831 4.60001 53.1635C4.59754 52.644 4.73215 52.133 4.99026 51.6822L29.0572 9.65551C29.3164 9.20422 29.6901 8.8293 30.1405 8.56857C30.5909 8.30785 31.1021 8.17056 31.6225 8.17056C32.143 8.17056 32.6542 8.30785 33.1046 8.56857C33.555 8.8293 33.9287 9.20422 34.1879 9.65551L58.2358 51.6822C58.493 52.1316 58.6276 52.6409 58.626 53.1588C58.6243 53.6767 58.4865 54.185 58.2264 54.6329C57.9663 55.0807 57.593 55.4523 57.144 55.7103C56.6949 55.9683 56.1859 56.1038 55.668 56.103ZM21.1016 50.1149H28.4855C28.6371 50.1151 28.786 50.0751 28.9172 49.9991C29.0483 49.923 29.1569 49.8136 29.2319 49.6819C29.307 49.5502 29.3458 49.401 29.3444 49.2494C29.343 49.0979 29.3014 48.9494 29.2239 48.8191L25.4367 42.4022C25.3615 42.2716 25.2532 42.1631 25.1227 42.0876C24.9923 42.0122 24.8442 41.9725 24.6935 41.9725C24.5428 41.9725 24.3948 42.0122 24.2643 42.0876C24.1338 42.1631 24.0255 42.2716 23.9504 42.4022L20.3537 48.8381C20.2805 48.9686 20.2428 49.116 20.2442 49.2656C20.2457 49.4151 20.2862 49.5617 20.3618 49.6908C20.4374 49.8199 20.5455 49.9269 20.6752 50.0013C20.805 50.0757 20.952 50.1148 21.1016 50.1149Z" fill="url(#paint0_linear_0_6677)"/>
<path d="M64.0768 36.8867C64.0768 33.9617 66.1205 33.2709 70.7033 33.2709H71.1273C71.1273 32.3182 70.87 31.8418 69.0788 31.8418C68.0248 31.8504 66.9921 32.1399 66.0871 32.6802L64.658 30.5794C66.0932 29.7428 67.7273 29.3084 69.3885 29.3217C73.109 29.3217 73.876 30.5079 73.876 33.4281V36.5675C73.876 37.3917 73.9332 37.5203 74.7716 37.5203V39.8593C74.3735 39.9252 73.9695 39.9492 73.5664 39.9308C72.4707 39.9308 71.9991 39.7116 71.5941 38.9113C71.0653 39.6211 69.9173 40.0594 67.9641 40.0594C64.7723 40.0785 64.0768 38.6922 64.0768 36.8867ZM71.1273 35.6243V35.267H70.8891C67.2352 35.267 66.7969 35.5576 66.7969 36.6723C66.7969 37.4393 67.2162 37.8013 68.531 37.8013C70.3412 37.7775 71.1273 37.1392 71.1273 35.6243Z" fill="#2E294E"/>
<path d="M75.6672 35.0955V29.5789H78.5255V35.1479C78.5255 36.577 78.5636 37.5965 80.6073 37.5965C82.651 37.5965 82.6701 36.5723 82.6701 35.1336V29.5789H85.4903V35.0764C85.4903 38.6207 84.5375 40.0785 80.5978 40.0785C76.6581 40.0785 75.6672 38.635 75.6672 35.0955Z" fill="#2E294E"/>
<path d="M86.3382 29.5789H88.1628L88.6392 27.0636L90.8639 26.5873V29.5599H93.3125V32.0276H90.8639V36.2817C90.8639 37.0868 90.9734 37.525 92.1978 37.525H93.3125V39.907C92.8933 39.9403 92.1263 39.9403 91.6166 39.9403C88.8202 39.9403 88.0151 38.9875 88.0151 36.6914V32.0276H86.3192L86.3382 29.5789Z" fill="#2E294E"/>
<path d="M93.9937 34.7287C93.9937 31.2606 95.5086 29.3455 99.4007 29.3455C103.293 29.3455 104.784 31.2511 104.784 34.7287C104.784 38.2063 103.288 40.1166 99.4007 40.1166C95.5134 40.1166 93.9937 38.1967 93.9937 34.7287ZM101.921 34.8049C101.921 33.0518 101.373 31.9466 99.4007 31.9466C97.4285 31.9466 96.8806 33.0423 96.8806 34.8049C96.8806 36.5675 97.4094 37.6632 99.4007 37.6632C101.392 37.6632 101.921 36.5723 101.921 34.8049Z" fill="#2E294E"/>
<path d="M106.008 26.0204H108.895V28.6309H106.008V26.0204ZM106.008 29.5789H108.866V39.9165H106.008V29.5789Z" fill="#2E294E"/>
<path d="M110.572 29.7457L112.797 29.5789L113.035 30.4746C113.511 29.8553 114.588 29.3455 116.67 29.3455C118.932 29.3455 119.352 29.8553 119.68 30.5127C120.209 29.8362 121.343 29.3455 123.491 29.3455C126.612 29.3455 127.107 31.0796 127.107 33.633V39.9165H124.22V34.1999C124.22 32.9375 124.22 32.0276 122.467 32.0276C120.481 32.0276 120.262 32.9565 120.262 34.3285V39.9165H117.403V34.1999C117.403 32.9375 117.365 32.0276 115.631 32.0276C113.645 32.0276 113.425 32.9565 113.425 34.3285V39.9165H110.567L110.572 29.7457Z" fill="#2E294E"/>
<path d="M128.76 29.7457L130.985 29.5789L131.223 30.4746C131.7 29.8553 132.776 29.3455 134.858 29.3455C137.121 29.3455 137.54 29.8553 137.869 30.5127C138.398 29.8362 139.531 29.3455 141.704 29.3455C144.824 29.3455 145.319 31.0796 145.319 33.633V39.9165H142.433V34.1999C142.433 32.9375 142.433 32.0276 140.684 32.0276C138.693 32.0276 138.474 32.9565 138.474 34.3285V39.9165H135.615V34.1999C135.615 32.9375 135.577 32.0276 133.843 32.0276C131.857 32.0276 131.638 32.9565 131.638 34.3285V39.9165H128.779L128.76 29.7457Z" fill="#2E294E"/>
<path d="M146.844 35.0955V29.5789H149.702V35.1479C149.702 36.577 149.735 37.5965 151.784 37.5965C153.832 37.5965 153.847 36.5723 153.847 35.1336V29.5789H156.657V35.0764C156.657 38.6207 155.705 40.0785 151.765 40.0785C147.825 40.0785 146.844 38.635 146.844 35.0955Z" fill="#2E294E"/>
<path d="M158.268 29.7457L160.497 29.5789L160.735 30.4746C161.278 29.8743 162.283 29.3455 164.475 29.3455C167.595 29.3455 168.181 31.0796 168.181 33.633V39.9165H165.323V34.1999C165.323 32.9375 165.18 32.0276 163.446 32.0276C161.455 32.0276 161.126 32.9565 161.126 34.3285V39.9165H158.268V29.7457Z" fill="#2E294E"/>
<path d="M169.334 34.7287C169.334 31.8704 170.287 29.3455 174.703 29.3455C179.252 29.3455 179.395 32.3753 179.305 35.8243H172.111C172.273 37.0677 172.878 37.7966 174.722 37.7966C175.883 37.8675 177.032 37.5305 177.971 36.8438L179.4 38.7065C178.066 39.7069 176.751 40.1356 174.708 40.1356C170.249 40.1166 169.334 37.6489 169.334 34.7287ZM172.111 33.7759H176.694C176.623 32.5897 176.384 31.7322 174.612 31.7322C172.84 31.7322 172.259 32.5182 172.111 33.7759Z" fill="#2E294E"/>
<path d="M64.5293 53.2696C64.5293 50.4112 66.3348 49.6538 71.2654 49.6538H71.9228C71.9228 47.5386 71.5417 46.643 69.0026 46.643C67.9226 46.6403 66.865 46.9515 65.9585 47.5386L65.4821 46.8098C66.5599 46.1467 67.7991 45.7924 69.0645 45.7856C72.3468 45.7856 72.8423 46.9717 72.8423 49.8396V53.846C72.8423 55.0131 72.9137 55.1608 73.9379 55.1608V55.9802C73.8193 56.0167 73.6947 56.0296 73.5711 56.0183C72.3659 56.0183 72.0181 55.4704 72.0181 54.3367C71.3798 55.58 70.3222 56.1993 67.9688 56.1993C65.2439 56.2279 64.5293 54.9512 64.5293 53.2696ZM71.9228 51.364V50.5113H71.3035C66.7017 50.5113 65.444 51.0591 65.444 53.2124C65.444 54.5796 66.0442 55.3847 68.0736 55.3847C70.8129 55.3895 71.9228 54.1366 71.9228 51.364Z" fill="#2E294E"/>
<path d="M75.2623 55.1132L75.7387 54.4033C76.7899 55.0551 78.0084 55.3862 79.2449 55.3561C81.198 55.3561 82.146 54.9369 82.146 53.2743C82.146 51.9404 81.3457 51.688 79.2449 51.2306C76.982 50.7542 75.6672 50.335 75.6672 48.3437C75.6672 46.7574 76.62 45.7713 79.2258 45.7713C80.4423 45.7331 81.6467 46.0227 82.7129 46.6097L82.2747 47.3767C81.348 46.8654 80.303 46.6075 79.2449 46.6287C77.2012 46.6287 76.5819 47.3052 76.5819 48.3628C76.5819 49.6586 77.4203 49.9539 79.3354 50.3731C81.7173 50.8829 83.0607 51.264 83.0607 53.2553C83.0607 55.5181 81.7649 56.1946 79.2115 56.1946C77.8166 56.2368 76.4411 55.8601 75.2623 55.1132Z" fill="#2E294E"/>
<path d="M84.1993 55.1132L84.6756 54.4033C85.7266 55.0556 86.9453 55.3868 88.1818 55.3561C90.135 55.3561 91.083 54.9369 91.083 53.2743C91.083 51.9404 90.2827 51.688 88.1818 51.2306C85.919 50.7542 84.6042 50.335 84.6042 48.3437C84.6042 46.7574 85.557 45.7713 88.1628 45.7713C89.3918 45.7314 90.6087 46.0261 91.6833 46.624L91.2069 47.391C90.2801 46.8802 89.2351 46.6222 88.1771 46.643C86.1334 46.643 85.5093 47.3195 85.5093 48.3771C85.5093 49.6728 86.3525 49.9682 88.2676 50.3874C90.6495 50.8972 91.9929 51.2783 91.9929 53.2696C91.9929 55.5324 90.6971 56.2088 88.139 56.2088C86.7458 56.2452 85.3736 55.8636 84.1993 55.1132Z" fill="#2E294E"/>
<path d="M93.3601 50.9877C93.3601 47.5386 94.675 45.7856 98.0335 45.7856C101.392 45.7856 102.74 47.5386 102.74 50.9877C102.74 54.4367 101.392 56.2279 98.0335 56.2279C94.675 56.2279 93.3601 54.4557 93.3601 50.9877ZM101.811 50.9877C101.811 48.1294 100.754 46.643 98.0335 46.643C95.3133 46.643 94.2891 48.1294 94.2891 50.9877C94.2891 53.846 95.3324 55.3323 98.0335 55.3323C100.735 55.3323 101.811 53.8746 101.811 50.9877Z" fill="#2E294E"/>
<path d="M104.269 50.9877C104.269 47.7387 105.351 45.7855 108.943 45.7855C109.582 45.7471 110.222 45.8482 110.819 46.0818C111.415 46.3154 111.953 46.676 112.396 47.1385L111.739 47.7768C111.373 47.4109 110.936 47.1233 110.456 46.9317C109.975 46.74 109.46 46.6483 108.943 46.6621C106.118 46.6621 105.203 48.2294 105.203 51.0067C105.203 53.784 106.08 55.3514 108.943 55.3514C110.003 55.3773 111.03 54.9835 111.801 54.2557L112.425 54.8607C111.963 55.3111 111.416 55.6642 110.815 55.899C110.215 56.1339 109.573 56.2457 108.928 56.2279C105.332 56.2279 104.269 54.2366 104.269 50.9877Z" fill="#2E294E"/>
<path d="M114.226 42.7891H115.179V44.5612H114.226V42.7891ZM114.226 46.0237H115.179V56.0278H114.226V46.0237Z" fill="#2E294E"/>
<path d="M116.932 53.2696C116.932 50.4112 118.742 49.6538 123.668 49.6538H124.325C124.325 47.5386 123.944 46.643 121.405 46.643C120.325 46.6403 119.267 46.9515 118.361 47.5386L117.884 46.8098C118.962 46.1474 120.202 45.7931 121.467 45.7856C124.749 45.7856 125.245 46.9717 125.245 49.8396V53.846C125.245 55.0131 125.316 55.1608 126.34 55.1608V55.9802C126.222 56.0167 126.097 56.0296 125.973 56.0183C124.768 56.0183 124.42 55.4704 124.42 54.3367C123.782 55.58 122.724 56.1993 120.371 56.1993C117.627 56.2279 116.932 54.9512 116.932 53.2696ZM124.325 51.364V50.5113H123.706C119.104 50.5113 117.846 51.0591 117.846 53.2124C117.846 54.5796 118.447 55.3847 120.476 55.3847C123.196 55.3895 124.325 54.1366 124.325 51.364Z" fill="#2E294E"/>
<path d="M126.826 46.0237H128.689L128.836 42.8081L129.584 42.6986V46.0333H132.467V46.8717H129.584V53.5411C129.584 54.5272 129.727 55.1656 131.19 55.1656H132.467V56.004C132.395 56.004 131.171 56.004 131.08 56.004C128.96 56.004 128.67 55.0893 128.67 53.5935V46.8622H126.826V46.0237Z" fill="#2E294E"/>
<path d="M134.215 42.7891H135.168V44.5612H134.215V42.7891ZM134.215 46.0237H135.168V56.0278H134.215V46.0237Z" fill="#2E294E"/>
<path d="M137.121 50.9877C137.121 47.5386 138.436 45.7856 141.794 45.7856C145.153 45.7856 146.506 47.5386 146.506 50.9877C146.506 54.4367 145.153 56.2279 141.794 56.2279C138.436 56.2279 137.121 54.4557 137.121 50.9877ZM145.572 50.9877C145.572 48.1294 144.514 46.643 141.794 46.643C139.074 46.643 138.05 48.1294 138.05 50.9877C138.05 53.846 139.093 55.3323 141.794 55.3323C144.495 55.3323 145.572 53.8746 145.572 50.9877Z" fill="#2E294E"/>
<path d="M148.464 46.0571L149.197 46.0237L149.307 47.4529C149.707 46.5764 150.655 45.8094 153.027 45.8094C156.333 45.8094 156.643 47.4529 156.643 49.9158V56.0326H155.714V50.0016C155.714 48.0293 155.547 46.6669 152.827 46.6669C149.945 46.6669 149.397 48.2151 149.397 50.2969V56.0135H148.444L148.464 46.0571Z" fill="#2E294E"/>
<defs>
<linearGradient id="paint0_linear_0_6677" x1="12.0265" y1="19.0212" x2="39.1947" y2="66.0785" gradientUnits="userSpaceOnUse">
<stop stop-color="#D9186A"/>
<stop offset="1" stop-color="#802064"/>
</linearGradient>
</defs>
</svg>
