<svg width="48" height="48" viewBox="0 0 48 48" fill="none" xmlns="http://www.w3.org/2000/svg">
<circle cx="25.5" cy="24" r="21" fill="url(#paint0_linear_0_5874)"/>
<mask id="mask0_0_5874" style="mask-type:alpha" maskUnits="userSpaceOnUse" x="4" y="3" width="43" height="42">
<circle cx="25.5" cy="24" r="21" fill="#C4C4C4"/>
</mask>
<g mask="url(#mask0_0_5874)">
<rect x="27" width="25.5" height="25.5" fill="url(#paint1_linear_0_5874)"/>
<path d="M9 16.5C9 14.8431 10.3431 13.5 12 13.5H27C28.6569 13.5 30 14.8431 30 16.5V37.5C30 39.1569 28.6569 40.5 27 40.5H9V16.5Z" fill="black" fill-opacity="0.3"/>
<rect x="1.5" width="25.5" height="25.5" fill="#EB6C4D"/>
</g>
<rect y="10.5" width="27" height="27" rx="2" fill="url(#paint2_linear_0_5874)"/>
<path d="M19.5 21.6857C19.5 18.45 17.3699 16.5 13.9918 16.5H9V31.5H12.0984V26.9357H13.8627C17.0256 26.9357 19.5 25.1357 19.5 21.6857ZM16.3586 21.75C16.3586 23.2071 15.4334 24.15 13.9273 24.15H12.0984V19.3071H13.9057C15.4119 19.3071 16.3586 20.1 16.3586 21.75Z" fill="white"/>
<defs>
<linearGradient id="paint0_linear_0_5874" x1="4.5" y1="26.8966" x2="46.5" y2="26.8966" gradientUnits="userSpaceOnUse">
<stop stop-color="#A73A24"/>
<stop offset="1" stop-color="#F75936"/>
</linearGradient>
<linearGradient id="paint1_linear_0_5874" x1="47.25" y1="15" x2="27" y2="15" gradientUnits="userSpaceOnUse">
<stop stop-color="#FDB8A3"/>
<stop offset="1" stop-color="#F1876D"/>
</linearGradient>
<linearGradient id="paint2_linear_0_5874" x1="1.10749e-07" y1="25.8621" x2="27" y2="25.8621" gradientUnits="userSpaceOnUse">
<stop stop-color="#A73A24"/>
<stop offset="1" stop-color="#F75936"/>
</linearGradient>
</defs>
</svg>
