<svg width="267" height="45" viewBox="0 0 267 45" fill="none" xmlns="http://www.w3.org/2000/svg">
<path d="M23.1388 3.70853C26.6874 3.67794 29.7396 6.21423 30.3588 9.70857C33.6961 8.43854 37.4615 9.78381 39.2386 12.8811L39.2417 12.8874L39.2749 12.9505C40.9888 16.001 40.3021 19.8382 37.6366 22.1049C40.3985 24.3756 41.1171 28.3087 39.3364 31.4093L39.3179 31.4401L39.297 31.4693C37.5325 34.4895 33.862 35.8177 30.5734 34.626C30.0361 38.1482 27.0221 40.76 23.4592 40.7913C19.8963 40.822 16.8375 38.263 16.2389 34.7506C13.0083 35.9797 9.37667 34.7583 7.53589 31.8693L7.51705 31.8396L7.55034 31.8953L7.35752 31.5813C7.35122 31.571 7.3453 31.5604 7.33977 31.5496L7.32438 31.5166C5.60878 28.4667 6.29498 24.6287 8.96112 22.3622C6.19256 20.092 5.47332 16.1519 7.26124 13.0499L7.27959 13.0194L7.29912 12.99C9.06805 9.97416 12.7352 8.64742 16.0242 9.83326C16.5826 6.32867 19.5901 3.73967 23.1388 3.70853ZM23.1789 4.9798C19.9536 4.99205 17.3489 7.61655 17.3611 10.8418C17.3698 10.9765 17.3409 11.111 17.2774 11.2301C17.1884 11.3976 17.0362 11.5228 16.8547 11.5779C16.6731 11.633 16.4771 11.6135 16.3099 11.5237L16.1735 11.4531C13.4357 10.0805 10.0877 11.0583 8.5255 13.7128C8.51696 13.7317 8.50748 13.7502 8.49709 13.7681L8.42107 13.9042C6.94064 16.6374 7.84771 20.0665 10.5111 21.704C10.6288 21.7631 10.7277 21.8538 10.7967 21.966C11.005 22.3028 10.9029 22.7445 10.5679 22.9557L10.4083 23.0586L10.3072 23.1283C7.90268 24.8237 7.11664 28.0536 8.49514 30.6708L8.56969 30.8079C8.58217 30.8252 8.59375 30.8431 8.60442 30.8616L8.68366 30.9954C10.2988 33.6427 13.7161 34.5721 16.4567 33.0823C16.6729 32.9403 16.9489 32.9264 17.1783 33.046C17.4076 33.1656 17.5542 33.3999 17.5615 33.6584L17.571 33.9046L17.5582 33.6619L17.5613 33.8228C17.624 35.7908 18.6751 37.5956 20.3559 38.6212L20.4975 38.7049C22.3083 39.7412 24.5344 39.7328 26.3374 38.6828C28.1403 37.6327 29.2461 35.7006 29.2382 33.6142C29.2199 33.3545 29.3443 33.1053 29.5629 32.9638C29.7816 32.8223 30.0598 32.8109 30.2893 32.934L30.4279 33.0055C33.1633 34.3728 36.5054 33.396 38.0674 30.7464L38.0959 30.6896C39.6847 27.9375 38.7945 24.4235 36.0898 22.7584C35.8585 22.6406 35.7083 22.4076 35.6966 22.1483C35.6848 21.889 35.8133 21.6434 36.0329 21.5051C38.688 19.8381 39.5682 16.3832 38.0359 13.6497C38.0239 13.6329 38.0128 13.6156 38.0027 13.5976L37.9236 13.4637C36.3105 10.8135 32.8901 9.88402 30.1504 11.3785C30.0403 11.4507 29.9127 11.4916 29.7811 11.4968C29.385 11.5092 29.0537 11.1985 29.0409 10.8024C29.0287 7.57235 26.4042 4.96764 23.1789 4.9798ZM18.6249 23.8561C18.9862 23.1453 19.8407 22.8416 20.5696 23.165C21.2985 23.4884 21.6467 24.3257 21.3622 25.0706C21.1081 25.6136 21.0939 25.934 21.2659 26.316L22.5728 29.0986C22.8285 29.6589 23.3825 29.8483 23.8355 29.9588C25.256 30.3014 26.2834 31.5385 26.3592 32.9993C26.4349 34.4601 25.541 35.7968 24.1619 36.2847C22.7829 36.7726 21.2472 36.2955 20.3875 35.112C19.5277 33.9286 19.5486 32.3206 20.4389 31.1599C20.8035 30.6832 20.9124 30.3502 20.7735 29.752L20.0727 26.7437C19.9764 26.3554 19.7775 26.1613 19.2125 25.8346C18.5217 25.4362 18.2635 24.5669 18.6249 23.8561ZM19.1567 19.0911C19.9574 19.0496 20.6502 19.6429 20.7324 20.4405C20.8146 21.238 20.2574 21.9601 19.465 22.0828C18.8684 22.1318 18.5843 22.2801 18.3381 22.621L16.5877 25.1464C16.2326 25.6483 16.3446 26.2244 16.4772 26.6727C16.8912 28.0816 16.3288 29.5949 15.0952 30.3915C13.8616 31.1881 12.2509 31.078 11.1371 30.1211C10.0233 29.1641 9.67191 27.5883 10.2737 26.2488C10.8754 24.9093 12.2868 24.1254 13.7419 24.3225C14.337 24.4014 14.6795 24.3304 15.1262 23.9105L17.3737 21.7971C17.6626 21.5194 17.7288 21.2495 17.7288 20.596C17.7282 19.7942 18.356 19.1326 19.1567 19.0911ZM30.3493 25.2127C31.1148 24.4008 32.2394 24.0318 33.3371 24.2325C34.9003 24.5148 36.0435 25.8664 36.0624 27.4548C36.0814 29.0431 34.9708 30.4216 33.4148 30.7411C31.8588 31.0606 30.2949 30.2313 29.6864 28.764C29.4576 28.2068 29.2255 27.9464 28.6384 27.768L25.6932 26.8731C25.3081 26.7626 25.0429 26.8384 24.4794 27.1651C24.1724 27.3445 23.8112 27.4078 23.4614 27.3435C22.6643 27.1758 22.1451 26.4047 22.2894 25.6031C22.4338 24.8015 23.1894 24.26 23.9949 24.3809C24.349 24.4441 24.6681 24.6337 24.893 24.9144C25.2339 25.4084 25.5054 25.582 25.9189 25.6215L28.9762 25.8787C29.587 25.9371 30.0336 25.5505 30.3493 25.2127ZM30.2443 13.9947C31.2837 12.8696 32.9674 12.6002 34.3104 13.3603C35.6919 14.1421 36.3251 15.7935 35.8205 17.2985C35.316 18.8035 33.8153 19.7395 32.2418 19.5306C31.6483 19.4501 31.3058 19.5227 30.8591 19.9426L28.6147 22.0544C28.3259 22.3338 28.2596 22.6021 28.2596 23.2571C28.2603 23.9225 27.8233 24.5091 27.1856 24.6988C26.5479 24.8886 25.8613 24.6364 25.4981 24.079C25.1348 23.5215 25.1815 22.7916 25.6127 22.2849C25.8443 22.0091 26.1677 21.8264 26.5234 21.7703C27.1216 21.7214 27.4057 21.573 27.6472 21.2321L29.396 18.7067C29.7527 18.2032 29.6391 17.6287 29.5081 17.1789C29.1899 16.1068 29.4338 14.9465 30.1568 14.0932L30.2443 13.9947ZM22.9232 7.34894C24.1891 7.34812 25.3448 8.06837 25.9018 9.20512C26.4588 10.3419 26.3196 11.6966 25.5432 12.6964C25.1834 13.1699 25.0697 13.5029 25.2165 14.109L25.9173 17.1079C26.0136 17.4977 26.2125 17.6919 26.7759 18.017C27.4668 18.415 27.7254 19.2841 27.3645 19.995C27.0035 20.7059 26.1494 21.0101 25.4203 20.6873C24.6913 20.3645 24.3424 19.5276 24.6262 18.7825C24.8803 18.2395 24.8961 17.9176 24.7225 17.5372L23.4172 14.753C23.1599 14.1927 22.6075 14.0033 22.1545 13.8944L22.1482 13.8975C20.7243 13.5507 19.6958 12.3118 19.6169 10.8483C19.538 9.38487 20.4273 8.04258 21.8057 7.54466C22.1639 7.41469 22.5421 7.34845 22.9232 7.34894ZM12.5732 13.1118C14.1294 12.7921 15.6936 13.6216 16.302 15.0892C16.5309 15.6447 16.7645 15.9067 17.35 16.0851L20.2968 16.98C20.6804 17.0905 20.9471 17.0132 21.5106 16.6865C22.2038 16.2854 23.0897 16.4972 23.5266 17.1685C23.9634 17.8398 23.7984 18.7356 23.1509 19.2071C22.5034 19.6785 21.6002 19.5606 21.0955 18.9388C20.7545 18.4447 20.4846 18.2711 20.0695 18.2317L17.0139 17.9744C16.403 17.916 15.9564 18.3011 15.6407 18.6404C14.8744 19.4511 13.7505 19.8198 12.6529 19.6206C11.0893 19.3391 9.94536 17.9877 9.9259 16.3991C9.90644 14.8105 11.0169 13.4315 12.5732 13.1118Z" fill="#005EEC"/>
<path d="M62.792 28.164C62.0164 29.0237 61.1026 29.7476 60.0883 30.3059C59.075 30.8635 57.7597 31.1419 56.1424 31.1408C54.9797 31.1512 53.8271 30.924 52.7553 30.4732C50.7322 29.6348 49.1291 28.021 48.3044 25.9922C47.8793 24.9564 47.6646 23.8463 47.673 22.7266V22.6651C47.6656 21.5409 47.8801 20.4263 48.3044 19.3853C48.7128 18.3791 49.3114 17.4611 50.0674 16.6816C50.8309 15.9006 51.7433 15.2807 52.7506 14.8586C53.8423 14.4039 55.0152 14.1768 56.1977 14.1909C57.7382 14.1909 59.014 14.434 60.0252 14.9201C61.0393 15.4064 61.9478 16.0875 62.6989 16.9246L59.8721 19.9566C59.3941 19.4477 58.8474 19.0078 58.248 18.6498C57.6081 18.3067 56.8885 18.14 56.163 18.1668C55.6118 18.159 55.0663 18.2784 54.5688 18.5156C54.0929 18.7477 53.6688 19.0736 53.3219 19.4737C52.9604 19.8906 52.6818 20.3727 52.5012 20.8942C52.3087 21.4428 52.2126 22.0206 52.2171 22.6019V22.6619C52.2125 23.2617 52.3101 23.858 52.5059 24.4249C52.6871 24.9492 52.971 25.4321 53.3409 25.8455C53.706 26.2512 54.1509 26.5774 54.6477 26.8035C55.1829 27.0418 55.7635 27.1608 56.3492 27.1523C57.0517 27.1666 57.7465 27.0038 58.3695 26.6788C58.9915 26.3306 59.5678 25.9065 60.0852 25.4161L62.792 28.164ZM69.0502 30.7762H64.4288V8.59253H69.047L69.0502 30.7762ZM88.6423 22.6651C88.6487 23.7961 88.4203 24.9162 87.9714 25.9544C87.5348 26.9611 86.9053 27.8726 86.1184 28.6376C85.3112 29.4177 84.3625 30.0364 83.3232 30.4605C82.2047 30.9143 81.0072 31.1413 79.8003 31.1282C78.6041 31.1396 77.4171 30.9176 76.3058 30.4747C75.2716 30.0675 74.3269 29.4622 73.5248 28.6928C72.7431 27.9305 72.1189 27.0221 71.6876 26.0191C71.2389 24.9787 71.0115 23.8564 71.02 22.7235V22.6619C71.0115 21.529 71.2389 20.4067 71.6876 19.3663C72.1242 18.3596 72.7537 17.448 73.5406 16.6831C74.3469 15.902 75.2959 15.2831 76.3358 14.8602C77.4543 14.4064 78.6518 14.1794 79.8587 14.1925C81.0549 14.1811 82.2419 14.4031 83.3532 14.8459C84.3879 15.2556 85.3322 15.8642 86.1326 16.6374C86.9143 17.3996 87.5385 18.3081 87.9698 19.3111C88.4185 20.3514 88.6459 21.4737 88.6375 22.6067L88.6423 22.6651ZM84.0855 22.7266V22.6651C84.0902 22.0786 83.988 21.4962 83.784 20.9463C83.383 19.8757 82.5727 19.0087 81.5317 18.5361C80.9867 18.2888 80.394 18.1643 79.7956 18.1715C79.1851 18.16 78.5792 18.279 78.0183 18.5203C77.5158 18.7438 77.0658 19.0702 76.6973 19.4784C76.3275 19.8921 76.0432 20.3749 75.8607 20.8989C75.6687 21.446 75.5726 22.0222 75.5766 22.6019V22.6619C75.5737 23.247 75.6769 23.8278 75.8813 24.376C76.2818 25.4417 77.0834 26.3084 78.1146 26.7909C78.6622 27.0406 79.2585 27.1652 79.8603 27.1555C80.4708 27.167 81.0766 27.048 81.6375 26.8067C82.14 26.5832 82.5901 26.2568 82.9586 25.8486C83.3275 25.4372 83.6117 24.9572 83.7951 24.436C83.9892 23.8861 84.0864 23.3066 84.0824 22.7235L84.0855 22.7266ZM105.199 30.7762H100.578V28.4639C100.312 28.8123 100.023 29.1424 99.7127 29.452C99.3953 29.7681 99.0438 30.0481 98.6647 30.2869C98.2668 30.5357 97.8374 30.73 97.3878 30.8646C96.8751 31.0132 96.3432 31.085 95.8095 31.0777C94.048 31.0777 92.6865 30.541 91.7247 29.4678C90.763 28.3945 90.2821 26.9161 90.2821 25.0326V14.4908H94.8988V23.5742C94.8988 24.6675 95.1418 25.4924 95.628 26.0491C96.1141 26.6057 96.8028 26.8845 97.694 26.8856C98.5842 26.8856 99.2876 26.6067 99.8043 26.0491C100.321 25.4914 100.579 24.6664 100.579 23.5742V14.4908H105.197L105.199 30.7762ZM124.123 30.7762H119.504V28.4339C118.948 29.1911 118.251 29.8341 117.452 30.328C116.653 30.8236 115.646 31.0719 114.429 31.073C113.481 31.0753 112.542 30.8913 111.666 30.5316C110.77 30.1639 109.963 29.6103 109.298 28.9074C108.58 28.1436 108.018 27.248 107.641 26.27C107.206 25.1204 106.995 23.8986 107.017 22.6698V22.6098C106.995 21.3811 107.206 20.1593 107.641 19.0096C108.014 18.0326 108.571 17.1358 109.281 16.3675C109.939 15.6619 110.742 15.1072 111.636 14.7418C112.522 14.3783 113.471 14.1928 114.429 14.1957C115.666 14.1957 116.684 14.4387 117.483 14.9249C118.244 15.3787 118.926 15.9528 119.504 16.6247V8.59253H124.12L124.123 30.7762ZM119.567 22.6651V22.6051C119.575 21.9785 119.468 21.3557 119.251 20.7679C119.058 20.2433 118.77 19.759 118.4 19.3395C118.054 18.9511 117.63 18.6407 117.155 18.4288C116.176 18.0038 115.065 18.0038 114.087 18.4288C113.608 18.6426 113.178 18.9526 112.824 19.3395C112.448 19.7539 112.155 20.2359 111.959 20.76C111.739 21.3526 111.632 21.9811 111.643 22.613V22.673C111.635 23.3001 111.742 23.9234 111.959 24.5118C112.154 25.0362 112.448 25.5184 112.824 25.9323C113.178 26.3197 113.608 26.6302 114.087 26.8445C115.065 27.2696 116.176 27.2696 117.155 26.8445C117.63 26.6321 118.055 26.3211 118.4 25.9323C118.769 25.5152 119.058 25.0336 119.251 24.5118C119.469 23.9197 119.575 23.2925 119.564 22.6619L119.567 22.6651ZM147.406 30.7762H142.937V29.0116C142.365 29.6433 141.673 30.1546 140.901 30.5158C140.112 30.8904 139.15 31.0777 138.016 31.0777C137.28 31.0831 136.548 30.9767 135.844 30.762C135.194 30.5644 134.59 30.2386 134.067 29.804C133.558 29.3759 133.149 28.8421 132.868 28.2398C132.562 27.5678 132.412 26.8359 132.427 26.098V26.038C132.406 25.2409 132.573 24.4499 132.913 23.7289C133.227 23.0912 133.691 22.5389 134.264 22.119C134.887 21.6727 135.588 21.3481 136.33 21.1625C137.199 20.9423 138.092 20.8362 138.988 20.8468C139.716 20.8377 140.444 20.8985 141.16 21.0283C141.774 21.1466 142.38 21.3069 142.972 21.5082V21.2351C142.972 20.2628 142.679 19.5263 142.091 19.0254C141.504 18.5245 140.634 18.2715 139.479 18.2662C138.688 18.2562 137.899 18.3324 137.124 18.4935C136.396 18.6602 135.68 18.8786 134.983 19.1469L133.818 15.6146C134.722 15.2241 135.657 14.9074 136.613 14.6676C137.768 14.4047 138.951 14.2822 140.136 14.303C142.667 14.303 144.509 14.9207 145.66 16.156C146.811 17.3913 147.39 19.1127 147.396 21.3203L147.406 30.7762ZM143.032 25.0358V24.2182C142.597 24.0264 142.144 23.8788 141.679 23.7778C141.156 23.6631 140.621 23.607 140.085 23.6105C139.092 23.6105 138.312 23.8031 137.746 24.1882C137.188 24.5557 136.864 25.1903 136.895 25.8581V25.9196C136.869 26.4924 137.131 27.0403 137.595 27.378C138.061 27.7221 138.668 27.8941 139.416 27.8941C140.509 27.8941 141.385 27.6311 142.044 27.105C142.687 26.6128 143.053 25.8416 143.029 25.0326L143.032 25.0358ZM164.141 28.164C163.365 29.022 162.452 29.7448 161.439 30.3027C160.425 30.8604 159.11 31.1387 157.493 31.1377C156.33 31.148 155.178 30.9209 154.106 30.47C152.083 29.6317 150.48 28.0178 149.655 25.9891C149.23 24.9532 149.015 23.8431 149.023 22.7235V22.6619C149.016 21.5378 149.231 20.4232 149.655 19.3821C150.063 18.3759 150.662 17.4579 151.418 16.6784C152.181 15.8975 153.094 15.2776 154.101 14.8554C155.193 14.4008 156.366 14.1736 157.548 14.1878C159.088 14.1878 160.363 14.4308 161.376 14.917C162.39 15.4037 163.298 16.0847 164.049 16.9215L161.224 19.9566C160.746 19.4476 160.198 19.0077 159.598 18.6498C159.043 18.3257 158.349 18.1636 157.518 18.1636C156.967 18.1558 156.422 18.2752 155.924 18.5124C155.449 18.7448 155.025 19.0706 154.679 19.4705C154.317 19.8874 154.039 20.3696 153.858 20.891C153.663 21.4418 153.565 22.0224 153.569 22.6067V22.6667C153.567 23.2652 153.666 23.8597 153.863 24.4249C154.044 24.9492 154.328 25.4321 154.698 25.8455C155.063 26.2512 155.508 26.5774 156.005 26.8035C156.54 27.042 157.12 27.161 157.706 27.1523C158.408 27.1668 159.102 27.004 159.725 26.6788C160.347 26.3311 160.924 25.9069 161.442 25.4161L164.141 28.164ZM179.572 30.7762H175.107V29.0116C174.535 29.6426 173.843 30.1538 173.071 30.5158C172.282 30.8904 171.32 31.0777 170.186 31.0777C169.45 31.0833 168.718 30.9769 168.014 30.762C167.364 30.5647 166.759 30.2389 166.237 29.804C165.728 29.3755 165.318 28.8419 165.036 28.2398C164.731 27.5678 164.58 26.8359 164.595 26.098V26.038C164.575 25.2409 164.742 24.4502 165.082 23.7289C165.397 23.0915 165.861 22.5393 166.434 22.119C167.056 21.6724 167.757 21.3478 168.5 21.1625C169.369 20.9422 170.262 20.8361 171.158 20.8468C171.886 20.8377 172.614 20.8985 173.33 21.0283C173.943 21.1489 174.547 21.3113 175.137 21.5145V21.2351C175.137 20.2628 174.844 19.5263 174.257 19.0254C173.669 18.5245 172.799 18.2715 171.644 18.2662C170.853 18.2562 170.064 18.3324 169.289 18.4935C168.561 18.6602 167.845 18.8786 167.148 19.1469L165.994 15.6225C166.898 15.2318 167.832 14.9151 168.788 14.6755C169.943 14.4125 171.127 14.2901 172.312 14.3109C174.844 14.3109 176.685 14.9285 177.836 16.1639C178.987 17.3992 179.566 19.1206 179.572 21.3282V30.7762ZM175.197 25.0358V24.2182C174.763 24.0261 174.31 23.8786 173.846 23.7778C173.322 23.6631 172.787 23.607 172.25 23.6105C171.259 23.6105 170.48 23.8031 169.911 24.1882C169.354 24.5561 169.031 25.1906 169.062 25.8581V25.9196C169.035 26.492 169.297 27.0397 169.76 27.378C170.225 27.7221 170.833 27.8941 171.583 27.8941C172.676 27.8941 173.552 27.6311 174.211 27.105C174.854 26.6133 175.221 25.8419 175.197 25.0326V25.0358ZM198.345 30.7762H193.727V28.4339C193.171 29.1915 192.475 29.8347 191.675 30.328C190.877 30.8236 189.869 31.0719 188.653 31.0729C187.704 31.0733 186.765 30.8872 185.889 30.5253C184.994 30.1575 184.187 29.604 183.521 28.9011C182.805 28.139 182.243 27.2456 181.866 26.27C181.429 25.1209 181.214 23.8991 181.234 22.6698V22.6098C181.214 21.3806 181.429 20.1587 181.866 19.0096C182.239 18.0326 182.796 17.1358 183.506 16.3675C184.164 15.6619 184.967 15.1072 185.861 14.7418C186.747 14.3782 187.696 14.1926 188.654 14.1957C189.89 14.1957 190.908 14.4387 191.708 14.9249C192.469 15.3784 193.151 15.9525 193.727 16.6247V8.59253H198.345V30.7762ZM193.795 22.6619V22.6019C193.803 21.9754 193.696 21.3525 193.479 20.7648C193.286 20.2401 192.998 19.7558 192.629 19.3363C192.283 18.948 191.858 18.6375 191.383 18.4256C190.405 18.0006 189.294 18.0006 188.315 18.4256C187.836 18.6394 187.406 18.9494 187.052 19.3363C186.676 19.7507 186.383 20.2328 186.187 20.7569C185.967 21.3494 185.86 21.9779 185.872 22.6098V22.6698C185.863 23.2969 185.97 23.9203 186.187 24.5086C186.382 25.033 186.676 25.5152 187.052 25.9291C187.406 26.3165 187.836 26.627 188.315 26.8414C189.294 27.2664 190.405 27.2664 191.383 26.8414C191.858 26.6289 192.283 26.318 192.629 25.9291C192.997 25.5121 193.286 25.0305 193.479 24.5086C193.697 23.9178 193.804 23.2917 193.795 22.6619ZM216.092 23.0881C216.092 23.3106 216.092 23.5032 216.076 23.6658C216.061 23.8283 216.051 24.0193 216.031 24.2419H204.7C204.923 25.2941 205.384 26.089 206.082 26.6267C206.781 27.1644 207.647 27.4327 208.68 27.4317C209.388 27.4438 210.091 27.3094 210.745 27.0371C211.438 26.7168 212.074 26.2861 212.629 25.7618L215.26 28.0993C214.505 29.0407 213.55 29.8034 212.465 30.3327C211.372 30.8693 210.086 31.1377 208.608 31.1377C207.451 31.1484 206.302 30.9423 205.221 30.53C204.209 30.1448 203.288 29.5535 202.517 28.7938C201.753 28.0373 201.148 27.1351 200.74 26.1406C200.305 25.0546 200.091 23.8931 200.108 22.7235V22.6619C200.102 21.5416 200.303 20.4297 200.7 19.3821C201.075 18.3836 201.637 17.4659 202.356 16.6784C203.846 15.0587 205.957 14.1525 208.158 14.1878C209.515 14.1878 210.69 14.4308 211.682 14.917C212.642 15.3778 213.487 16.047 214.156 16.8757C214.822 17.7127 215.317 18.6727 215.612 19.7009C215.93 20.7809 216.089 21.901 216.086 23.0265L216.092 23.0881ZM211.596 21.3519C211.453 20.3176 211.089 19.4821 210.502 18.8455C209.915 18.2089 209.133 17.8916 208.158 17.8937C207.187 17.8937 206.402 18.2094 205.805 18.8407C205.207 19.4721 204.817 20.3139 204.635 21.3661L211.596 21.3519ZM242.793 30.7683H238.176V21.6928C238.176 20.5996 237.943 19.7741 237.477 19.2164C237.011 18.6587 236.34 18.3793 235.463 18.3783C234.592 18.3783 233.908 18.6566 233.411 19.2132C232.915 19.7699 232.668 20.5964 232.671 21.6928V30.7746H228.055V21.6928C228.055 20.5996 227.821 19.7741 227.355 19.2164C226.889 18.6587 226.221 18.3793 225.351 18.3783C224.48 18.3783 223.796 18.6566 223.299 19.2132C222.802 19.7699 222.555 20.5964 222.556 21.6928V30.7746H217.944V14.4908H222.56V16.7999C222.827 16.4519 223.117 16.1218 223.427 15.8119C223.744 15.4955 224.096 15.2155 224.475 14.9769C224.877 14.7258 225.311 14.5314 225.766 14.3993C226.284 14.2527 226.821 14.1814 227.36 14.1878C228.329 14.1622 229.288 14.3924 230.14 14.8554C230.919 15.3001 231.548 15.9665 231.947 16.77C232.593 15.9693 233.399 15.3124 234.314 14.8412C235.242 14.3931 236.261 14.1692 237.291 14.1878C239.014 14.1878 240.36 14.6939 241.332 15.7061C242.303 16.7184 242.789 18.2068 242.79 20.1713L242.793 30.7683ZM260.717 14.4908L254.452 31.1629C254.194 31.8951 253.868 32.602 253.48 33.2747C253.177 33.805 252.792 34.2844 252.341 34.6953C251.93 35.0577 251.445 35.3269 250.92 35.4844C250.328 35.6557 249.713 35.7376 249.097 35.7275C248.337 35.74 247.579 35.6378 246.85 35.4244C246.203 35.2225 245.581 34.9472 244.997 34.6037L246.546 31.2623C246.858 31.4489 247.189 31.6019 247.533 31.7185C247.85 31.833 248.184 31.8944 248.521 31.9C248.855 31.918 249.187 31.839 249.477 31.6727C249.763 31.4547 249.988 31.1673 250.131 30.8378L243.759 14.4908H248.652L252.352 25.5787L255.904 14.4908H260.717Z" fill="#005EEC"/>
</svg>
