<svg width="162" height="73" viewBox="0 0 162 73" fill="none" xmlns="http://www.w3.org/2000/svg">
<path d="M150.909 25.9973H146.913L142.486 32.976L138.182 25.9973H134.031L140.211 36.1118L133.97 46.5644H137.905L142.301 39.4935L146.605 46.5644H150.756L144.515 36.3577L150.909 25.9973Z" fill="white"/>
<path d="M128.836 25.9973V39.9854L120.75 25.9973H117.43V46.5644H120.75V32.6378L128.836 46.5644H132.218V25.9973H128.836Z" fill="white"/>
<path d="M114.663 25.9973H111.097V46.5644H114.663V25.9973Z" fill="white"/>
<path d="M108.33 33.3142V32.1459C108.33 28.1493 105.41 25.5669 100.245 25.5669C95.1414 25.5669 92.1901 28.1493 92.1901 32.1459V40.4158C92.1901 44.4124 95.1414 46.9948 100.275 46.9948C105.41 46.9948 108.33 44.4124 108.33 40.4158V35.5891H100.122V38.8787H104.733V40.2006C104.733 42.3526 103.104 43.6746 100.214 43.6746C97.3549 43.6746 95.7255 42.3526 95.7255 40.2006V32.3611C95.7255 30.2091 97.3549 28.8871 100.245 28.8871C103.104 28.8871 104.733 30.2091 104.733 32.3611V33.3142H108.33Z" fill="white"/>
<path d="M86.0722 25.9973V39.9854L77.9867 25.9973H74.6357V46.5644H77.9867V32.6378L86.0722 46.5644H89.4232V25.9973H86.0722Z" fill="white"/>
<path d="M112.542 55.972H111.22V54.1889H114.294V53.3896H110.359V56.7714H112.48C113.249 56.7714 113.679 57.1095 113.679 57.7551V58.4315C113.679 59.1386 113.188 59.5382 112.327 59.5382C111.497 59.5382 111.005 59.1386 111.005 58.4315V57.7859H110.144V58.4007C110.144 59.569 111.005 60.3068 112.296 60.3068C113.618 60.3068 114.479 59.5382 114.479 58.4007V57.7551C114.54 56.6791 113.741 55.972 112.542 55.972Z" fill="#999999"/>
<path d="M109.406 54.1582V53.3589H105.225V60.1838H106.086V57.4477H109.068V56.6176H106.086V54.1582H109.406Z" fill="#999999"/>
<path d="M101.751 53.5126H102.182V52.744H101.659C100.552 52.744 99.9066 53.4204 99.9066 54.5886V55.2957H99.3532V56.0643H99.9373V60.1838H100.767V56.0643H102.12V55.2957H100.767V54.6501C100.737 53.8508 101.044 53.5126 101.751 53.5126Z" fill="#999999"/>
<path d="M91.0218 59.4153C90.3455 59.4153 90.038 59.1078 90.038 58.3085V56.0643H91.36V55.2957H90.038V53.8508H89.208V55.2957H88.5624V56.0643H89.208V58.493C89.208 59.6612 89.7613 60.1838 90.8373 60.1838H91.4522V59.4153H91.0218Z" fill="#999999"/>
<path d="M87.6401 55.2035C87.0867 55.1727 86.5333 55.3879 86.1337 55.7876L85.9799 55.2957H85.3958V60.1838H86.2259V57.1095C86.2259 56.3102 86.81 55.9413 87.5171 55.9413C87.6708 55.9413 87.7938 55.972 87.9475 56.0028V55.2342C87.8245 55.2035 87.7323 55.2035 87.6401 55.2035Z" fill="#999999"/>
<path d="M96.5556 55.1727C95.2029 55.1727 94.465 55.9413 94.465 57.2018V58.2778C94.465 59.5382 95.1721 60.3068 96.5556 60.3068C97.9083 60.3068 98.6461 59.5382 98.6461 58.2778V57.2018C98.6461 55.9413 97.939 55.1727 96.5556 55.1727ZM97.8468 58.247C97.8468 59.1078 97.4471 59.5382 96.5863 59.5382C95.6948 59.5382 95.3258 59.1078 95.3258 58.247V57.2633C95.3258 56.4024 95.7255 55.972 96.5863 55.972C97.4779 55.972 97.8468 56.4024 97.8468 57.2633V58.247Z" fill="#999999"/>
<path d="M83.705 55.2957L83.5512 55.7876C83.1516 55.3572 82.5982 55.142 82.0141 55.1727C80.8151 55.1727 80.108 55.7568 80.108 57.2325V58.247C80.108 59.692 80.8151 60.3068 82.0141 60.3068C82.5982 60.3376 83.1516 60.1224 83.5512 59.692L83.705 60.1838H84.2891V55.2957H83.705ZM82.1678 59.5382C81.3377 59.5382 80.9381 59.1386 80.9381 58.2163V57.294C80.9381 56.3717 81.3377 55.972 82.1678 55.972C82.9364 55.972 83.3975 56.341 83.459 57.1403V58.37C83.3975 59.1693 82.9056 59.5382 82.1678 59.5382Z" fill="#999999"/>
<path d="M77.3104 53.3589H74.6357V60.1838H75.4965V57.6937H77.3104C78.6323 57.6937 79.4009 57.0173 79.4009 55.8798V55.1727C79.4009 54.0352 78.6323 53.3589 77.3104 53.3589ZM78.5709 55.9106C78.5709 56.5562 78.1712 56.8943 77.3719 56.8943H75.4965V54.1582H77.3719C78.1712 54.1582 78.5709 54.4964 78.5709 55.142V55.9106Z" fill="#999999"/>
<path d="M4.48045 51.6986C4.75714 52.1905 5.1568 52.5594 5.64869 52.8361L29.3209 66.486C30.3046 67.0702 31.5036 67.0702 32.4567 66.486L56.1288 52.8361C57.1126 52.2827 57.6967 51.2375 57.6967 50.1V22.8001C57.6967 21.6626 57.1126 20.6173 56.1288 20.064L32.4567 6.41404C31.4729 5.82992 30.2739 5.82992 29.3209 6.41404L5.64869 20.064C4.63417 20.6173 4.05005 21.6626 4.05005 22.8001V50.1307C4.05005 50.6841 4.17302 51.2067 4.48045 51.6986Z" fill="#009639"/>
<path d="M23.2951 46.872C23.2951 48.5629 21.9424 49.9156 20.2516 49.9156C18.5607 49.9156 17.208 48.5629 17.208 46.872V25.9975C17.208 24.3681 18.6529 23.0461 20.6512 23.0461C22.0962 23.0461 23.787 23.6302 24.8016 24.8907L25.7238 25.9975L38.4515 41.2153V26.0589C38.4515 24.3681 39.8042 23.0154 41.495 23.0154C43.1859 23.0154 44.5386 24.3681 44.5386 26.0589V46.9335C44.5386 48.5629 43.0937 49.8848 41.0954 49.8848C39.6505 49.8848 37.9596 49.3007 36.9451 48.0403L23.2951 31.7464V46.872Z" fill="white"/>
<path d="M155.122 45.6423H155.521V44.7815H155.829C155.982 44.7815 156.136 44.7815 156.259 44.843C156.413 44.9659 156.505 45.1504 156.474 45.3349V45.5193V45.5808V45.6115C156.474 45.6115 156.474 45.6115 156.474 45.6423H156.843V45.6115C156.843 45.5808 156.812 45.5501 156.812 45.4886C156.812 45.4271 156.812 45.3656 156.812 45.3349V45.1811C156.812 45.0582 156.751 44.9352 156.689 44.843C156.597 44.72 156.444 44.6585 156.321 44.6278C156.444 44.6278 156.536 44.5663 156.628 44.5355C156.782 44.4433 156.843 44.2588 156.843 44.1051C156.874 43.8592 156.72 43.644 156.505 43.5518C156.321 43.4903 156.105 43.4595 155.89 43.4595H155.122V45.6423ZM156.228 44.4433C156.105 44.474 155.982 44.5048 155.859 44.5048H155.521V43.7055H155.859C156.013 43.7055 156.167 43.7362 156.321 43.7977C156.413 43.8592 156.474 43.9822 156.474 44.1051C156.444 44.2588 156.351 44.4126 156.228 44.4433ZM157.335 43.1214C156.966 42.7524 156.444 42.5372 155.921 42.5372C154.814 42.5372 153.923 43.4288 153.923 44.5663C153.923 45.673 154.814 46.5646 155.921 46.5646C157.028 46.5646 157.95 45.673 157.95 44.5663C157.919 44.0129 157.735 43.521 157.335 43.1214ZM157.151 43.3366C157.489 43.644 157.673 44.1051 157.643 44.5663C157.643 45.5193 156.874 46.2879 155.921 46.3186C155.46 46.3186 154.999 46.1342 154.691 45.796C154.353 45.4578 154.199 45.0274 154.199 44.5663C154.199 43.6132 154.968 42.8447 155.921 42.8447C156.382 42.8139 156.812 42.9984 157.151 43.3366Z" fill="#999999"/>
</svg>
