<svg width="172" height="69" viewBox="0 0 172 69" fill="none" xmlns="http://www.w3.org/2000/svg">
<path d="M60.5334 35.7547C60.5334 31.0488 57.61 26.9133 53.2131 25.3209C53.4032 24.3227 53.4983 23.3244 53.4983 22.3024C53.4983 13.5323 46.3681 6.40213 37.6217 6.40213C32.488 6.40213 27.7345 8.85016 24.7398 12.9857C23.2663 11.8448 21.46 11.2269 19.5823 11.2269C14.924 11.2269 11.145 15.0059 11.145 19.6643C11.145 20.6863 11.3351 21.6845 11.6678 22.6114C7.29467 24.1801 4.29999 28.3869 4.29999 33.069C4.29999 37.7987 7.24713 41.9342 11.6441 43.5266C11.4539 44.5011 11.3589 45.5231 11.3589 46.5451C11.3589 55.2914 18.4653 62.3979 27.2116 62.3979C32.3454 62.3979 37.0988 59.926 40.0697 55.7905C41.5433 56.9551 43.3496 57.5969 45.2272 57.5969C49.8856 57.5969 53.6646 53.8179 53.6646 49.1595C53.6646 48.1375 53.4745 47.1393 53.1418 46.2123C57.5149 44.6437 60.5334 40.4369 60.5334 35.7547Z" fill="white"/>
<path d="M26.4036 30.5258L38.7151 36.1349L51.1216 25.2494C51.3118 24.3463 51.3831 23.4669 51.3831 22.5162C51.3831 14.8631 45.156 8.63611 37.503 8.63611C32.9159 8.63611 28.6615 10.894 26.0709 14.673L24.0031 25.392L26.4036 30.5258Z" fill="#FED10A"/>
<path d="M13.6643 43.5502C13.4742 44.4533 13.4029 45.3803 13.4029 46.331C13.4029 54.0078 19.6537 60.2348 27.3305 60.2348C31.9414 60.2348 36.2433 57.9532 38.8339 54.1504L40.8779 43.4789L38.1446 38.2501L25.7856 32.6172L13.6643 43.5502Z" fill="#24BBB1"/>
<path d="M13.593 22.2547L22.0304 24.2512L23.8842 14.673C22.7434 13.7936 21.3173 13.3182 19.8438 13.3182C16.1836 13.3182 13.1889 16.2891 13.1889 19.9731C13.1889 20.7574 13.3315 21.5417 13.593 22.2547Z" fill="#EF5098"/>
<path d="M12.8561 24.2755C9.1009 25.5114 6.46274 29.1241 6.46274 33.0932C6.46274 36.9673 8.86323 40.4135 12.4521 41.792L24.2882 31.0968L22.1254 26.4621L12.8561 24.2755Z" fill="#17A8E0"/>
<path d="M40.9728 54.1511C42.1374 55.0305 43.5397 55.5296 44.9895 55.5296C48.6496 55.5296 51.6443 52.5587 51.6443 48.8748C51.6443 48.0667 51.5017 47.2823 51.2403 46.5693L42.8267 44.5966L40.9728 54.1511Z" fill="#93C83E"/>
<path d="M42.6842 42.386L51.9534 44.5488C55.7324 43.3129 58.3468 39.7002 58.3468 35.7073C58.3468 31.857 55.9463 28.387 52.3575 27.0323L40.2362 37.6563L42.6842 42.386Z" fill="#0779A1"/>
<path d="M82.9222 45.7375L84.0392 45.6187L84.1105 47.9003C81.1634 48.3044 78.6441 48.5183 76.5525 48.5183C73.7718 48.5183 71.7991 47.7102 70.6345 46.094C69.4699 44.4778 68.8995 41.9585 68.8995 38.5598C68.8995 31.7623 71.6089 28.3636 77.0041 28.3636C79.6185 28.3636 81.5674 29.1004 82.8509 30.5502C84.1343 32 84.776 34.3054 84.776 37.4189L84.6096 39.6293H71.8229C71.8229 41.7683 72.2031 43.3608 72.9874 44.3828C73.7718 45.4047 75.1027 45.9276 77.0279 45.9276C78.9768 45.9752 80.9257 45.9039 82.9222 45.7375ZM81.8764 37.3476C81.8764 34.9709 81.4961 33.2834 80.7356 32.309C79.975 31.3345 78.7391 30.8354 77.0279 30.8354C75.3166 30.8354 74.0094 31.3583 73.1538 32.3803C72.2982 33.4023 71.8466 35.066 71.8229 37.3476H81.8764Z" fill="black"/>
<path d="M88.8165 48.1618V20.354H91.7161V48.1618H88.8165Z" fill="black"/>
<path d="M110.041 34.6382V44.1689C110.041 45.1433 112.441 45.3334 112.441 45.3334L112.299 47.9003C110.255 47.9003 108.567 48.0667 107.545 47.0922C105.216 48.1142 102.91 48.542 100.581 48.542C98.7987 48.542 97.444 48.0429 96.5171 47.0209C95.5901 46.0227 95.1148 44.5729 95.1148 42.6715C95.1148 40.7939 95.5901 39.3916 96.5408 38.5122C97.4915 37.6329 98.9889 37.0624 101.033 36.8723L107.117 36.3019V34.6382C107.117 33.331 106.832 32.3803 106.262 31.8099C105.691 31.2395 104.907 30.9542 103.932 30.9542H96.3032V28.3874H103.742C105.929 28.3874 107.521 28.8865 108.52 29.9085C109.542 30.9067 110.041 32.4991 110.041 34.6382ZM98.1095 42.5289C98.1095 44.9056 99.0839 46.094 101.057 46.094C102.815 46.094 104.55 45.8088 106.238 45.2146L107.117 44.9056V38.5122L101.389 39.0589C100.225 39.154 99.3929 39.4867 98.87 40.0571C98.3471 40.6275 98.1095 41.4594 98.1095 42.5289Z" fill="black"/>
<path d="M121.378 30.978C118.573 30.978 117.147 31.9525 117.147 33.9252C117.147 34.8283 117.48 35.47 118.122 35.8503C118.763 36.2306 120.237 36.6109 122.542 37.0149C124.848 37.4189 126.464 37.9656 127.415 38.7024C128.365 39.4154 128.841 40.7701 128.841 42.7666C128.841 44.763 128.199 46.2128 126.915 47.1398C125.632 48.0667 123.778 48.542 121.306 48.542C119.714 48.542 114.366 47.9478 114.366 47.9478L114.533 45.4285C117.599 45.7137 119.833 45.9514 121.33 45.9514C122.827 45.9514 123.968 45.7137 124.753 45.2384C125.537 44.763 125.941 43.9549 125.941 42.8379C125.941 41.7208 125.608 40.9603 124.943 40.5562C124.277 40.1522 122.804 39.7719 120.522 39.4154C118.24 39.0589 116.624 38.536 115.673 37.823C114.723 37.1337 114.247 35.8265 114.247 33.9489C114.247 32.0713 114.913 30.669 116.244 29.7659C117.575 28.8627 119.239 28.4111 121.211 28.4111C122.78 28.4111 128.246 28.8152 128.246 28.8152V31.3583C125.371 31.1919 123.018 30.978 121.378 30.978Z" fill="black"/>
<path d="M142.863 31.3108H136.708V40.58C136.708 42.7903 136.874 44.2639 137.183 44.9532C137.516 45.6424 138.276 45.9989 139.488 45.9989L142.935 45.7613L143.125 48.1618C141.39 48.447 140.082 48.5896 139.179 48.5896C137.159 48.5896 135.781 48.0904 134.996 47.116C134.212 46.1415 133.832 44.2639 133.832 41.5069V31.3108H131.075V28.7914H133.832V22.8496H136.708V28.7677H142.863V31.3108Z" fill="black"/>
<path d="M146.904 24.3945V21.0433H149.803V24.4182L146.904 24.3945ZM146.904 48.1618V28.7914H149.803V48.1618H146.904Z" fill="black"/>
<path d="M162.4 28.3874C163.256 28.3874 164.705 28.5537 166.749 28.8627L167.676 28.9816L167.557 31.3345C165.49 31.0968 163.969 30.978 162.994 30.978C160.808 30.978 159.31 31.5009 158.526 32.5466C157.742 33.5924 157.338 35.5413 157.338 38.3696C157.338 41.1979 157.694 43.1706 158.431 44.2877C159.168 45.4048 160.689 45.9514 163.018 45.9514L167.581 45.5949L167.7 47.9954C165.3 48.3519 163.493 48.542 162.305 48.542C159.286 48.542 157.195 47.7577 156.054 46.2128C154.913 44.668 154.319 42.0536 154.319 38.3696C154.319 34.6857 154.937 32.0951 156.173 30.6215C157.433 29.1479 159.5 28.3874 162.4 28.3874Z" fill="black"/>
</svg>
