<svg width="213" height="56" viewBox="0 0 213 56" fill="none" xmlns="http://www.w3.org/2000/svg">
<path fill-rule="evenodd" clip-rule="evenodd" d="M25.9533 12.0415C25.0672 12.0429 24.2178 12.3955 23.5913 13.022C22.9647 13.6486 22.6121 14.498 22.6107 15.3841V40.1822C22.6113 41.0689 22.9635 41.9192 23.5901 42.5466C24.2167 43.174 25.0666 43.5273 25.9533 43.529H50.7483C51.636 43.5287 52.4873 43.1761 53.1152 42.5486C53.7432 41.921 54.0963 41.0699 54.0972 40.1822V15.3841C54.0952 14.4971 53.7416 13.647 53.1138 13.0204C52.486 12.3938 51.6353 12.0418 50.7483 12.0415H25.9533ZM24.4846 40.1833V15.3841C24.4851 14.9953 24.6401 14.6226 24.9153 14.348C25.1905 14.0734 25.5635 13.9193 25.9522 13.9196H50.7472C51.5607 13.9196 52.2149 14.5737 52.2149 15.3841V40.1822C52.2149 40.9978 51.5607 41.6499 50.7472 41.6499H25.9522C25.7596 41.65 25.5687 41.6122 25.3907 41.5385C25.2126 41.4649 25.0508 41.3569 24.9145 41.2207C24.7782 41.0845 24.6701 40.9227 24.5963 40.7447C24.5226 40.5667 24.4846 40.3759 24.4846 40.1833Z" fill="#698DBA"/>
<path fill-rule="evenodd" clip-rule="evenodd" d="M16.1845 5.61315C16.8124 4.98522 17.6637 4.63183 18.5517 4.63043H43.3467C44.2347 4.6321 45.086 4.98555 45.714 5.61339C46.3421 6.24124 46.6958 7.09235 46.6977 7.98039V32.7711C46.6977 33.6601 46.3447 34.5126 45.7164 35.1414C45.088 35.7702 44.2356 36.1237 43.3467 36.1243H39.2909V47.588C39.2907 48.0276 39.204 48.4629 39.0356 48.8691C38.8673 49.2752 38.6205 49.6442 38.3096 49.955C37.9986 50.2657 37.6295 50.5122 37.2232 50.6803C36.817 50.8485 36.3816 50.9349 35.942 50.9348H11.1491C10.7094 50.9352 10.274 50.8489 9.8677 50.6809C9.46141 50.5129 9.09222 50.2664 8.78128 49.9555C8.47033 49.6447 8.22372 49.2756 8.05557 48.8693C7.88741 48.4631 7.80099 48.0277 7.80127 47.588V22.793C7.80267 21.9056 8.15587 21.055 8.78344 20.4276C9.41101 19.8003 10.2617 19.4473 11.1491 19.4462H15.2018V21.3254H11.1502C10.3356 21.3254 9.6783 21.9859 9.6783 22.792V47.5869C9.6783 47.9771 9.83323 48.3513 10.109 48.6273C10.3848 48.9033 10.7589 49.0585 11.1491 49.0588H35.943C36.7544 49.0588 37.4138 48.3973 37.4138 47.5869V36.1243H18.5517C17.663 36.1234 16.8109 35.7698 16.1828 35.141C15.5546 34.5123 15.2018 33.6599 15.2018 32.7711V21.3254H17.0809V32.7701C17.0809 33.5867 17.7393 34.2462 18.5517 34.2462H37.4138V22.792C37.4138 21.9859 36.7544 21.3254 35.943 21.3254H17.0809V19.4462H35.942C36.8293 19.4479 37.6798 19.801 38.3074 20.4282C38.935 21.0554 39.2887 21.9057 39.2909 22.793V34.2462H43.3467C44.156 34.2462 44.8165 33.5867 44.8165 32.7711V7.98039C44.8165 7.17113 44.156 6.51591 43.3467 6.51591H18.5517C18.359 6.51535 18.168 6.55281 17.9897 6.62613C17.8114 6.69946 17.6493 6.80721 17.5127 6.94322C17.3761 7.07924 17.2677 7.24086 17.1936 7.41882C17.1195 7.59679 17.0812 7.78762 17.0809 7.98039V19.4462H15.2018V7.98039C15.2032 7.09236 15.5566 6.24109 16.1845 5.61315Z" fill="#698DBA"/>
<path d="M15.2018 19.4462V21.3254H17.0809V19.4462H15.2018Z" fill="#698DBA"/>
<path fill-rule="evenodd" clip-rule="evenodd" d="M78.109 38.5701C77.554 40.0293 76.9684 40.9272 75.0481 40.9272C73.1247 40.9272 72.5412 40.0283 71.9904 38.5701L66.2992 23.9263C66.027 23.2173 65.9468 22.7889 65.9468 22.274C65.9468 20.4571 67.3585 19.5202 68.8905 19.5202C70.4595 19.5202 71.1316 20.6555 71.3996 21.5207L75.008 32.7006H75.0872L78.6935 21.5207C78.971 20.6555 79.6357 19.5202 81.2036 19.5202H86.7566C88.1926 19.5202 89.1369 20.3041 89.3321 21.6811C90.7175 20.1828 92.5323 19.3218 94.633 19.3218C96.9996 19.3218 98.9874 20.3041 100.476 22.1886C102.039 20.378 104.533 19.3218 106.469 19.3218C111.074 19.3218 114.202 21.9955 114.202 26.9365V37.7872C114.202 39.6685 113.026 40.9283 111.387 40.9283C109.74 40.9283 108.572 39.6695 108.572 37.7872V27.9262C108.572 25.6472 107.303 24.0339 105.244 24.0339C103.154 24.0339 101.887 25.6482 101.887 27.9262V37.7872C101.887 39.6685 100.705 40.9283 99.0718 40.9283C97.4248 40.9283 96.2599 39.6695 96.2599 37.7872V27.9262C96.2599 25.6472 94.9864 24.0339 92.929 24.0339C90.6014 24.0339 89.5674 25.6482 89.5674 27.9262V37.7872C89.5674 39.6685 88.3952 40.9283 86.7566 40.9283C85.1107 40.9283 83.9405 39.6695 83.9405 37.7872V23.6858L78.109 38.5701ZM116.135 22.3901C115.981 21.8752 115.856 21.412 115.856 21.0554C115.856 20.3822 116.332 19.5191 117.511 19.5191C118.255 19.5191 118.959 19.7892 119.435 21.2928L123.87 35.5958H123.948L128.305 21.8034C128.78 20.3052 129.087 19.5191 130.353 19.5191C131.604 19.5191 131.92 20.3052 132.389 21.8034L136.75 35.5958H136.83L141.26 21.2928C141.736 19.7892 142.443 19.5191 143.18 19.5191C144.363 19.5191 144.829 20.3812 144.829 21.0543C144.829 21.4067 144.711 21.8741 144.554 22.388L138.827 39.1167C138.36 40.4524 137.809 40.9262 136.828 40.9262C135.88 40.9262 135.297 40.4524 134.872 39.1167L130.394 24.9825H130.316L125.84 39.1167C125.409 40.4524 124.826 40.9262 123.884 40.9262C122.898 40.9262 122.353 40.4524 121.877 39.1167L116.135 22.3901ZM149.734 30.2232C149.734 26.6601 151.228 22.4829 155.472 22.4829C159.717 22.4829 161.213 26.659 161.213 30.2232C161.213 33.7736 159.717 37.9592 155.472 37.9592C151.228 37.9592 149.734 33.7747 149.734 30.2232ZM164.469 21.1873C164.469 19.9844 163.522 19.5191 162.856 19.5191C162.147 19.5191 161.254 19.9844 161.254 21.1873V22.2856H161.17C159.563 20.5257 157.873 19.5191 155.472 19.5191C149.574 19.5191 146.275 24.6543 146.275 30.2232C146.275 35.791 149.574 40.9272 155.472 40.9272C157.717 40.9272 159.676 39.9133 161.17 37.8009H161.254V39.2496C161.254 40.4609 162.147 40.9272 162.856 40.9272C163.522 40.9272 164.469 40.4619 164.469 39.2496V21.1873ZM169.016 21.3677C169.016 20.2292 169.679 19.5244 170.737 19.5244C171.796 19.5244 172.472 20.2282 172.472 21.3677V23.1445H172.552C173.333 21.526 175.262 19.5255 177.264 19.5255C178.473 19.5255 179.186 20.3094 179.186 21.2928C179.186 22.2761 178.473 22.9029 177.022 23.1804C174.979 23.5328 172.472 25.0679 172.472 29.1185V39.0776C172.472 40.2171 171.796 40.9262 170.737 40.9262C169.679 40.9262 169.016 40.2171 169.016 39.0776V21.3677ZM183.586 28.975C183.701 25.7685 185.226 22.3268 189.512 22.484C193.326 22.484 195.054 25.9648 195.054 28.975H183.586ZM196.587 31.5695C198.074 31.5695 198.511 30.9364 198.511 29.7252C198.511 24.6543 195.212 19.5202 189.512 19.5202C183.657 19.5202 180.122 24.5372 180.122 30.2327C180.122 35.7941 183.034 40.9283 189.711 40.9283C193.795 40.9283 198.075 38.3559 198.075 36.6646C198.075 35.6739 197.455 35.1252 196.821 35.1252C195.526 35.1252 194.346 37.9613 189.744 37.9613C185.864 37.9613 183.587 35.1632 183.587 31.5706H196.587V31.5695Z" fill="#5C4835"/>
<path fill-rule="evenodd" clip-rule="evenodd" d="M201.182 19.8768V20.3337H200.094V23.4547H199.547V20.3337H198.466V19.8768H201.182ZM204.658 23.4547L204.512 21.3086C204.489 21.0195 204.505 20.6819 204.495 20.3263H204.473C204.384 20.6639 204.276 21.0459 204.163 21.3582L203.428 23.403H203.006L202.286 21.3086C202.194 21.0153 202.105 20.6587 202.016 20.3263H201.994C201.986 20.6671 201.994 20.9752 201.972 21.3002L201.844 23.4547H201.319L201.591 19.8768H202.317L203.007 21.8098C203.096 22.0831 203.172 22.3753 203.26 22.714H203.282C203.358 22.3753 203.439 22.0683 203.54 21.8045L204.228 19.8768H204.928L205.199 23.4547H204.658Z" fill="#5C4835"/>
</svg>
