<svg width="218" height="55" viewBox="0 0 218 55" fill="none" xmlns="http://www.w3.org/2000/svg">
<path d="M131.406 37.5833H129.766V49.7533H131.406V37.5833ZM126.929 37.5833H117.301V39.1211H121.286V49.7542H122.943V39.1211H126.929L126.929 37.5833ZM110.924 39.5771L113.388 45.0954H108.443L110.924 39.5771ZM110.217 37.4984L104.671 49.7542H106.375L107.783 46.6168H114.048L115.438 49.7542H117.21L111.705 37.5873L111.665 37.4985L110.217 37.4984ZM48.0286 37.5833H39.1991V49.7542H40.8393V44.5816H47.2657V43.0612H40.8393V39.1211H48.0286V37.5833ZM46.8176 26.177H41.8711L44.3519 20.6587L46.8176 26.177ZM48.8669 30.8356H50.6387L45.1339 18.6688L45.0934 18.5807H43.6444L38.0991 30.8356H39.8039L41.2108 27.6981H47.4763L48.8669 30.8356ZM56.2388 38.9181C57.1906 38.8657 58.1362 39.1006 58.953 39.5922C59.7697 40.0839 60.4199 40.8096 60.8192 41.6752C61.2184 42.5408 61.3484 43.5065 61.1922 44.4469C61.036 45.3873 60.6008 46.2591 59.9431 46.9491C59.2854 47.6392 58.4356 48.1157 57.5038 48.3169C56.5719 48.5181 55.6012 48.4346 54.7174 48.0774C53.8335 47.7201 53.0775 47.1055 52.5472 46.3133C52.0169 45.5212 51.7369 44.5879 51.7435 43.6346C51.7215 43.0279 51.821 42.4229 52.0364 41.8552C52.2517 41.2875 52.5784 40.7687 52.9973 40.3292C53.4162 39.8897 53.9188 39.5384 54.4755 39.2961C55.0321 39.0537 55.6317 38.9252 56.2388 38.9181ZM56.2729 37.3802C55.4464 37.3768 54.6275 37.5387 53.8645 37.8565C53.1015 38.1743 52.4098 38.6415 51.8301 39.2306C51.2504 39.8198 50.7944 40.519 50.489 41.287C50.1836 42.055 50.035 42.8764 50.0518 43.7028C50.0287 44.5247 50.1725 45.3427 50.4744 46.1076C50.7762 46.8724 51.23 47.5681 51.8083 48.1526C52.3865 48.7372 53.0772 49.1984 53.8387 49.5086C54.6002 49.8188 55.4167 49.9714 56.2388 49.9572C57.0653 49.9606 57.8841 49.7986 58.6471 49.4808C59.41 49.163 60.1017 48.6957 60.6814 48.1066C61.261 47.5175 61.717 46.8183 62.0224 46.0503C62.3278 45.2823 62.4765 44.461 62.4598 43.6346C62.4829 42.8127 62.3391 41.9947 62.0372 41.2299C61.7354 40.4651 61.2816 39.7694 60.7034 39.1848C60.1251 38.6003 59.4344 38.139 58.6729 37.8288C57.9114 37.5187 57.095 37.3661 56.2729 37.3802ZM62.6168 30.8355H64.2569V18.6657H62.67L58.4261 25.0223L54.1833 18.6657H52.5955V30.8356H54.2024V21.5747L58.2511 27.5142L58.2963 27.5792H58.5223L62.6172 21.5589L62.6168 30.8355ZM66.9534 44.5505V37.5833H65.3133V44.6355C65.3133 47.907 67.2612 49.9397 70.397 49.9397C73.5915 49.9397 75.499 47.9189 75.499 44.5332V37.5833H73.8589V44.6355C73.8589 47.064 72.6416 48.4013 70.4311 48.4013C68.2207 48.4013 66.9534 46.9976 66.9534 44.5509V44.5505ZM67.3143 30.8359H76.2795V29.3148H68.9544V25.4601H75.4317V23.9387H68.9544V20.1868H76.1946V18.6657H67.3143V30.8359ZM83.8098 24.7188H80.3147V20.2034H83.8281C85.634 20.2034 86.7126 21.0219 86.7126 22.4273C86.7126 23.8191 85.5729 24.7185 83.8098 24.7185V24.7188ZM88.9444 30.8356L85.2604 25.9351C86.1275 25.8181 86.9219 25.3884 87.4944 24.7268C88.0669 24.0652 88.3781 23.2173 88.3694 22.3424C88.3788 21.8914 88.2988 21.4431 88.1341 21.0231C87.9694 20.6032 87.7232 20.2201 87.4097 19.8957C86.4566 19.0436 85.206 18.6016 83.9291 18.6657H78.6743V30.8356H80.3144V26.2242H83.4804L86.9224 30.836L88.9444 30.8356ZM87.9253 49.7542H89.2172V37.5833H87.6112V46.8118L80.3565 37.5833H78.8781V49.7542H80.4842V40.3044L87.8798 49.6963L87.9253 49.7542ZM91.0532 30.8357H92.6933V18.6657H91.0532V30.8357ZM97.0526 48.2156H94.422V39.1211H97.0533C97.6744 39.079 98.2975 39.1672 98.8826 39.3801C99.4677 39.593 100.002 39.9258 100.451 40.3572C100.9 40.7886 101.253 41.309 101.489 41.8852C101.725 42.4613 101.838 43.0804 101.821 43.7028C101.821 46.3596 99.8601 48.2155 97.0533 48.2155L97.0526 48.2156ZM97.0533 37.5833H92.7833V49.7542H97.0533C100.796 49.7542 103.511 47.1949 103.511 43.6347C103.511 40.1286 100.796 37.5834 97.0533 37.5834V37.5833ZM97.0342 24.7162C97.0032 24.1115 97.0949 23.5068 97.3037 22.9385C97.5126 22.3702 97.8344 21.85 98.2497 21.4094C98.665 20.9688 99.1652 20.6168 99.7201 20.3747C100.275 20.1325 100.873 20.0052 101.479 20.0005C102.16 20.0011 102.834 20.1423 103.458 20.4152C104.082 20.6881 104.643 21.0869 105.106 21.5866L105.216 21.6905L106.337 20.4867L106.228 20.3844C105.617 19.7522 104.88 19.2546 104.065 18.9236C103.25 18.5926 102.375 18.4353 101.496 18.4619C100.674 18.4631 99.8604 18.6287 99.1033 18.949C98.3463 19.2693 97.6609 19.7378 97.0876 20.3269C96.5143 20.9161 96.0646 21.6139 95.765 22.3794C95.4654 23.1449 95.322 23.9626 95.3432 24.7844C95.3147 25.6006 95.4519 26.414 95.7465 27.1756C96.0412 27.9373 96.4871 28.6313 97.0574 29.2158C97.6277 29.8003 98.3105 30.2632 99.0647 30.5765C99.8188 30.8898 100.629 31.0471 101.445 31.0387C102.36 31.0535 103.267 30.8708 104.105 30.5032C104.943 30.1356 105.691 29.5916 106.3 28.9085L106.406 28.8015L105.312 27.7291L105.207 27.829C104.738 28.3534 104.163 28.7731 103.521 29.061C102.878 29.3488 102.182 29.4983 101.478 29.4998C100.87 29.4845 100.271 29.3477 99.7167 29.0976C99.1621 28.8475 98.6632 28.4891 98.2491 28.0434C97.835 27.5977 97.5142 27.0737 97.3055 26.5023C97.0968 25.9309 97.0044 25.3235 97.0338 24.7158L97.0342 24.7162ZM116 26.1767H111.054L113.535 20.6584L116 26.1767ZM118.049 30.8354H119.821L114.317 18.6685L114.276 18.5805H112.829L107.283 30.8354H108.986L110.394 27.6979H116.659L118.049 30.8354ZM130.825 30.8354H132.117V18.6657H130.511V27.8933L123.256 18.6657H121.779V30.8356H123.384V21.3859L130.78 30.7778L130.825 30.8354ZM140.75 38.9181C141.702 38.8657 142.647 39.1006 143.464 39.5922C144.281 40.0838 144.931 40.8095 145.33 41.6751C145.73 42.5408 145.86 43.5064 145.704 44.4468C145.547 45.3872 145.112 46.259 144.454 46.9491C143.797 47.6392 142.947 48.1157 142.015 48.3169C141.083 48.5181 140.113 48.4346 139.229 48.0774C138.345 47.7201 137.589 47.1055 137.059 46.3133C136.528 45.5212 136.248 44.5879 136.255 43.6346C136.233 43.0279 136.332 42.4228 136.548 41.8551C136.763 41.2874 137.09 40.7685 137.508 40.329C137.927 39.8895 138.43 39.5382 138.987 39.2959C139.543 39.0536 140.143 38.9251 140.75 38.9181ZM140.784 37.3802C139.958 37.3768 139.139 37.5387 138.376 37.8565C137.613 38.1744 136.921 38.6416 136.342 39.2307C135.762 39.8199 135.306 40.5191 135.001 41.2871C134.696 42.0551 134.547 42.8765 134.564 43.7028C134.541 44.5246 134.684 45.3427 134.986 46.1074C135.288 46.8722 135.742 47.5679 136.32 48.1525C136.898 48.737 137.589 49.1983 138.35 49.5085C139.112 49.8187 139.928 49.9713 140.75 49.9572C141.577 49.9607 142.395 49.7988 143.159 49.481C143.922 49.1632 144.613 48.696 145.193 48.1069C145.773 47.5177 146.229 46.8185 146.534 46.0505C146.84 45.2824 146.989 44.461 146.972 43.6346C146.995 42.8127 146.851 41.9945 146.549 41.2297C146.247 40.4648 145.793 39.7691 145.215 39.1846C144.637 38.6 143.946 38.1388 143.184 37.8286C142.423 37.5185 141.606 37.366 140.784 37.3802ZM149.308 30.8355H150.599V18.6657H148.993V27.8933L141.739 18.6657H140.261V30.8356H141.867V21.3859L149.263 30.7778L149.308 30.8355ZM158.743 46.8117L151.489 37.5832H150.011V49.7542H151.618V40.3044L159.013 49.6963L159.059 49.7541H160.35V37.5833H158.743V46.8117ZM163.656 25.6147V18.6657H162.016V25.717C162.016 28.1454 160.799 29.4829 158.588 29.4829C156.378 29.4829 155.111 28.0799 155.111 25.6325V18.6657H153.47V25.717C153.47 28.9886 155.418 31.0212 158.554 31.0212C161.749 31.0212 163.656 29.0004 163.656 25.6147H163.656ZM171.662 24.7185H168.167V20.2034H171.678C173.485 20.2034 174.564 21.0219 174.564 22.4273C174.564 23.8191 173.425 24.7185 171.662 24.7185ZM176.796 30.8356L173.112 25.9351C173.979 25.8181 174.774 25.3884 175.346 24.7268C175.919 24.0652 176.23 23.2173 176.221 22.3424C176.231 21.8914 176.151 21.4429 175.986 21.023C175.821 20.603 175.575 20.2199 175.261 19.8957C174.308 19.0436 173.057 18.6016 171.781 18.6657H166.527V30.8356H168.167V26.2242H171.332L174.775 30.836L176.796 30.8356ZM180.121 21.7659C180.121 20.726 181.098 20.0004 182.497 20.0004C183.722 20.0011 184.906 20.447 185.828 21.2551L185.948 21.3534L186.909 20.0789L186.796 19.9869C185.607 18.981 184.088 18.45 182.531 18.4959C180.184 18.4959 178.48 19.9211 178.48 21.9181C178.48 24.1435 180.12 24.9556 182.585 25.491C185.092 26.02 185.551 26.6156 185.551 27.6331C185.551 28.7326 184.525 29.5001 183.056 29.5001C182.318 29.5086 181.586 29.3677 180.904 29.0858C180.222 28.8039 179.604 28.3869 179.087 27.8599L178.972 27.756L177.947 28.9703L178.056 29.0671C179.391 30.3321 181.166 31.0271 183.005 31.0045C185.479 31.0045 187.208 29.5619 187.208 27.4638C187.208 25.6158 186.016 24.5682 183.224 23.959C180.6 23.3975 180.12 22.7909 180.12 21.7662L180.121 21.7659ZM189.638 30.836H198.603V29.3148H191.278V25.4601H197.756V23.9387H191.278V20.1868H198.519V18.6657H189.639L189.638 30.836ZM208.16 21.3538L209.123 20.0793L209.01 19.9872C207.82 18.9814 206.301 18.4504 204.744 18.4962C202.397 18.4962 200.694 19.9215 200.694 21.9185C200.694 24.1434 202.334 24.956 204.798 25.4913C207.305 26.0203 207.764 26.6159 207.764 27.6335C207.764 28.7329 206.738 29.5005 205.269 29.5005C204.531 29.5088 203.799 29.3679 203.117 29.086C202.435 28.8041 201.817 28.3872 201.301 27.8603L201.186 27.7564L200.16 28.9706L200.269 29.0674C201.604 30.3325 203.38 31.0275 205.219 31.0049C207.693 31.0049 209.422 29.5623 209.422 27.4641C209.422 25.617 208.23 24.5685 205.437 23.9594C202.814 23.3979 202.334 22.7912 202.334 21.7665C202.334 20.7267 203.311 20.0011 204.71 20.0011C205.935 20.0017 207.119 20.4476 208.04 21.2558L208.16 21.3538Z" fill="#54565A"/>
<path d="M20.9607 49.4553C-1.55041 20.7287 36.1564 23.1257 32.4066 9.68237C43.939 24.932 23.723 24.9835 21.1757 36.1829C19.4529 43.7579 21.0075 47.8619 20.9607 49.4553Z" fill="#009ADE"/>
<path d="M28.9881 4.54199C26.5238 7.7485 0.893535 15.5358 10.8746 31.0718C13.6044 18.2744 35.9369 15.4922 28.9881 4.54199Z" fill="#003A5D"/>
</svg>
