<svg  viewBox="20 16 220 50" fill="none" xmlns="http://www.w3.org/2000/svg"><defs>
<clipPath id="clip0_0_1989">
<rect width="50" height="50" fill="white" transform="translate(20 16)"/>
</clipPath>
<clipPath id="clip1_0_1989">
<rect width="100" height="24.4722" fill="white" transform="translate(94 29)"/>
</clipPath>
</defs><g clip-path="url(#clip0_0_1989)">
<path d="M20 41.0004C20 51.2375 26.1559 60.032 34.9646 63.8986C34.8943 62.1529 34.9521 60.0572 35.3998 58.1578C35.8805 56.1283 38.6166 44.5352 38.6166 44.5352C38.6166 44.5352 37.818 42.9389 37.818 40.5797C37.818 36.8748 39.9652 34.1078 42.6395 34.1078C44.9135 34.1078 46.0121 35.8158 46.0121 37.8611C46.0121 40.1471 44.5541 43.5664 43.8043 46.7334C43.1779 49.3853 45.134 51.5484 47.7502 51.5484C52.4869 51.5484 55.6772 45.4646 55.6772 38.2564C55.6772 32.7771 51.9867 28.676 45.2744 28.676C37.6908 28.676 32.9664 34.3314 32.9664 40.6486C32.9664 42.8268 33.6086 44.3627 34.6145 45.5522C35.077 46.0984 35.1412 46.3182 34.9738 46.9455C34.8539 47.4055 34.5785 48.5129 34.4645 48.9518C34.298 49.585 33.785 49.8113 33.2127 49.5775C29.7197 48.1516 28.093 44.3264 28.093 40.0264C28.093 32.9246 34.0824 24.409 45.9605 24.409C55.5055 24.409 61.7877 31.316 61.7877 38.7303C61.7877 48.5375 56.3354 55.8643 48.2982 55.8643C45.5992 55.8643 43.0604 54.4053 42.1906 52.748C42.1906 52.748 40.7393 58.5082 40.4318 59.6205C39.9018 61.548 38.8643 63.4746 37.9156 64.9762C40.1641 65.6398 42.5393 66.0014 45.001 66.0014C58.8064 66.0014 70.0002 54.8082 70.0002 41.0004C70.0002 27.1932 58.8064 16 45.001 16C31.1941 16 20 27.1932 20 41.0004Z" fill="#CB1F27"/>
</g><g clip-path="url(#clip1_0_1989)">
<path d="M133.387 37.8069H136.545V47.726H133.387V37.8069Z" fill="#E60023"/>
<path d="M137.203 37.807H140.245V39.1632H140.303C141.039 38.0976 141.988 37.5165 143.364 37.5165C145.534 37.5165 146.812 39.0663 146.812 41.2749V47.7262H143.654V41.9142C143.654 40.868 143.131 40.1511 142.105 40.1511C141.058 40.1511 140.361 41.023 140.361 42.2435V47.7262H137.203V37.807Z" fill="#E60023"/>
<path d="M136.859 35.1532C136.859 34.1069 136.011 33.2589 134.965 33.2589C133.919 33.2589 133.071 34.1069 133.071 35.1532C133.071 36.1993 133.919 37.0473 134.965 37.0473C136.011 37.0473 136.859 36.1993 136.859 35.1532Z" fill="#E60023"/>
<path d="M169.023 37.6637C168.933 37.6556 168.83 37.652 168.709 37.652C167.507 37.652 166.694 38.175 165.996 39.3568H165.938V37.8069H162.916V47.726H166.074V43.2702C166.074 41.2056 167.217 40.2489 169.023 40.4159V37.6637Z" fill="#E60023"/>
<path d="M184.519 41.4684C183.259 41.2361 182.136 41.1392 182.136 40.4418C182.136 39.8218 182.736 39.5312 183.511 39.5312C184.383 39.5312 184.983 39.8024 185.1 40.6936H188.006C187.851 38.7369 186.34 37.5164 183.53 37.5164C181.186 37.5164 179.249 38.6013 179.249 40.6936C179.249 43.0183 181.09 43.4833 182.814 43.774C184.131 44.0065 185.332 44.1033 185.332 44.9945C185.332 45.6338 184.731 45.9825 183.782 45.9825C182.83 45.9825 182.2 45.5796 182.007 44.762H178.998C179.219 46.8011 181.009 48.0361 183.802 48.0361C186.398 48.0361 188.315 46.9124 188.315 44.7427C188.315 42.2047 186.262 41.7591 184.519 41.4684Z" fill="#E60023"/>
<path d="M173.921 39.7637C174.948 39.7637 175.683 40.5192 175.8 41.7011H171.886C172.1 40.5192 172.719 39.7637 173.921 39.7637ZM174.095 45.75C172.797 45.75 172.061 44.917 171.867 43.5802H178.997C179.016 41.5655 178.435 39.8411 177.253 38.7563C176.4 37.9814 175.277 37.5164 173.862 37.5164C170.84 37.5164 168.767 39.783 168.767 42.7472C168.767 45.75 170.782 48.0167 174.056 48.0167C175.316 48.0167 176.323 47.6874 177.156 47.1062C178.028 46.5056 178.609 45.6532 178.822 44.7621H175.742C175.471 45.382 174.928 45.75 174.095 45.75Z" fill="#E60023"/>
<path d="M193.878 45.3871C193.732 45.3929 193.535 45.4014 193.354 45.4014C192.676 45.4014 192.25 45.2076 192.25 44.4327V39.783H193.878V37.8069H192.25V34.6685H189.17V37.8069H188.201V39.783H189.17V45.1107C189.17 47.2419 190.487 47.8424 192.328 47.8424C193.03 47.8424 193.561 47.7897 193.878 47.7279V45.3871Z" fill="#E60023"/>
<path d="M152.451 45.3916C152.325 45.3965 152.18 45.4014 152.044 45.4014C151.366 45.4014 150.94 45.2076 150.94 44.4327V39.783H152.451V37.8069H150.94V34.6685H147.859V37.8069H146.832V39.783H147.859V45.1107C147.859 47.2419 149.177 47.8424 151.017 47.8424C151.64 47.8424 152.127 47.8009 152.451 47.7484V45.3916Z" fill="#E60023"/>
<path d="M159.329 41.701C159.213 40.5192 158.477 39.7635 157.45 39.7635C156.249 39.7635 155.629 40.5192 155.416 41.701H159.329ZM152.297 42.7471C152.297 39.783 154.37 37.5164 157.392 37.5164C158.806 37.5164 159.93 37.9813 160.782 38.7562C161.964 39.8411 162.545 41.5653 162.526 43.5802H155.397C155.59 44.9169 156.327 45.75 157.625 45.75C158.458 45.75 159 45.3819 159.271 44.7619H162.352C162.138 45.6531 161.557 46.5055 160.685 47.1062C159.853 47.6873 158.845 48.0167 157.586 48.0167C154.312 48.0167 152.297 45.75 152.297 42.7471Z" fill="#E60023"/>
<path d="M127.902 40.3836C129.142 40.3836 129.839 39.6474 129.839 38.5431C129.839 37.4388 129.123 36.7608 127.902 36.7608H125.48V40.3836H127.902ZM122.283 33.8741H127.767C129.452 33.8741 130.692 34.3391 131.545 35.1528C132.436 35.9858 132.94 37.1676 132.94 38.5624C132.94 41.2166 131.099 43.0959 128.251 43.0959H125.48V47.7261H122.283V33.8741Z" fill="#E60023"/>
<path d="M117.949 41.2165C117.949 47.8012 112.611 53.1391 106.026 53.1391C99.4415 53.1391 94.1035 47.8012 94.1035 41.2165C94.1035 34.6318 99.4415 29.2939 106.026 29.2939C112.611 29.2939 117.949 34.6318 117.949 41.2165Z" fill="white"/>
<path d="M106.026 29.2939C99.4415 29.2939 94.1035 34.6319 94.1035 41.2165C94.1035 46.2675 97.2461 50.5855 101.681 52.3226C101.577 51.3793 101.483 49.9286 101.723 48.8988C101.939 47.9683 103.121 42.9725 103.121 42.9725C103.121 42.9725 102.764 42.2583 102.764 41.2024C102.764 39.5445 103.725 38.3069 104.921 38.3069C105.939 38.3069 106.43 39.0705 106.43 39.9863C106.43 41.0093 105.779 42.5387 105.442 43.956C105.162 45.1427 106.038 46.1104 107.208 46.1104C109.327 46.1104 110.956 43.876 110.956 40.6508C110.956 37.7961 108.905 35.8002 105.976 35.8002C102.583 35.8002 100.592 38.3447 100.592 40.9743C100.592 41.999 100.987 43.0978 101.479 43.6951C101.577 43.8132 101.591 43.9166 101.562 44.0371C101.472 44.4137 101.271 45.2235 101.231 45.3893C101.179 45.6075 101.058 45.6538 100.832 45.5486C99.3433 44.8555 98.4123 42.6784 98.4123 40.9298C98.4123 37.1689 101.145 33.7149 106.29 33.7149C110.426 33.7149 113.64 36.6621 113.64 40.6008C113.64 44.7098 111.049 48.0167 107.453 48.0167C106.245 48.0167 105.109 47.389 104.721 46.6477C104.721 46.6477 104.123 48.9241 103.978 49.4819C103.709 50.5175 102.982 51.8155 102.496 52.6075C103.612 52.9528 104.797 53.1391 106.026 53.1391C112.611 53.1391 117.949 47.8011 117.949 41.2165C117.949 34.6319 112.611 29.2939 106.026 29.2939Z" fill="#E60023"/>
</g></svg>