<svg width="213" height="56" viewBox="0 0 213 56" fill="none" xmlns="http://www.w3.org/2000/svg">
<path d="M92.652 16.0083C92.652 13.9766 91.0051 12.3299 88.9736 12.3299C86.9422 12.3299 85.2952 13.9766 85.2952 16.0083C85.2952 18.0397 86.9422 19.6865 88.9736 19.6865C91.0051 19.6865 92.652 18.0397 92.652 16.0083Z" fill="#E60023"/>
<path d="M99.2268 21.1614H93.3204V40.4232H99.4525V29.7765C99.4525 27.4065 100.807 25.7134 102.838 25.7134C104.832 25.7134 105.848 27.1055 105.848 29.1371V40.4232H111.98V27.8956C111.98 23.6068 109.497 20.5972 105.284 20.5972C102.613 20.5972 100.769 21.7257 99.3396 23.7949H99.2268V21.1614Z" fill="#E60023"/>
<path d="M92.0401 21.1614H85.9077V40.4232H92.0401V21.1614Z" fill="#E60023"/>
<path d="M154.498 20.8606C154.733 20.8606 154.934 20.8677 155.109 20.8834V26.2277C151.602 25.9036 149.382 27.7614 149.382 31.7706V40.4232H143.25V21.1616H149.119V24.1712H149.232C150.586 21.8764 152.166 20.8606 154.498 20.8606Z" fill="#E60023"/>
<path d="M185.202 28.2717C184.9 28.216 184.602 28.1643 184.312 28.114C182.251 27.7562 180.574 27.4652 180.574 26.278C180.574 25.074 181.741 24.5098 183.245 24.5098C184.938 24.5098 186.105 25.0364 186.33 26.7671H191.974C191.673 22.9674 188.738 20.5972 183.283 20.5972C178.731 20.5972 174.969 22.704 174.969 26.7671C174.969 31.2813 178.543 32.1843 181.891 32.7487C182.159 32.7959 182.424 32.8403 182.684 32.8838C184.912 33.2564 186.782 33.5692 186.782 35.1187C186.782 36.3603 185.616 37.0375 183.772 37.0375C181.923 37.0375 180.7 36.255 180.325 34.6674H174.481C174.911 38.6271 178.387 41.0252 183.81 41.0252C188.851 41.0252 192.575 38.8433 192.575 34.6299C192.575 29.7013 188.588 28.8361 185.202 28.2717Z" fill="#E60023"/>
<path fill-rule="evenodd" clip-rule="evenodd" d="M160.633 32.3723C161.01 34.9681 162.439 36.5857 164.96 36.5857C166.578 36.5857 167.631 35.8711 168.158 34.6673H174.139C173.726 36.3978 172.597 38.0531 170.904 39.2193C169.286 40.348 167.33 40.9875 164.885 40.9875C158.527 40.9875 154.614 36.5857 154.614 30.7547C154.614 24.9986 158.64 20.5971 164.508 20.5971C167.255 20.5971 169.437 21.5001 171.092 23.0049C173.387 25.1115 174.516 28.4599 174.478 32.3723H160.633ZM168.271 28.7233C168.045 26.4282 166.615 24.961 164.621 24.961C162.289 24.961 161.085 26.4282 160.671 28.7233H168.271Z" fill="#E60023"/>
<path d="M203.375 35.8812L203.3 35.8842C203.026 35.8952 202.68 35.909 202.359 35.909C201.042 35.909 200.215 35.5326 200.215 34.0278V24.9988H203.375V21.1616H200.215V15.067H194.233V21.1616H192.351V24.9988H194.233V35.3445C194.233 39.483 196.791 40.649 200.365 40.649C201.729 40.649 202.76 40.5469 203.375 40.4268V35.8812Z" fill="#E60023"/>
<path d="M122.14 35.9086C122.404 35.9086 122.687 35.8992 122.931 35.8897V40.4663C122.303 40.5682 121.356 40.6487 120.147 40.6487C116.572 40.6487 114.014 39.4827 114.014 35.3442V24.9985H112.02V21.1613H114.014V15.0667H119.996V21.1613H122.931V24.9985H119.996V34.0275C119.996 35.5323 120.824 35.9086 122.14 35.9086Z" fill="#E60023"/>
<path fill-rule="evenodd" clip-rule="evenodd" d="M122.632 30.7547C122.632 24.9988 126.657 20.5973 132.526 20.5973C135.272 20.5973 137.454 21.5001 139.11 23.0049C141.405 25.1117 142.533 28.4599 142.496 32.3725H128.651C129.027 34.9681 130.457 36.5859 132.978 36.5859C134.595 36.5859 135.649 35.8711 136.175 34.6673H142.157C141.743 36.3978 140.615 38.0531 138.922 39.2195C137.304 40.348 135.348 40.9875 132.902 40.9875C126.544 40.9875 122.632 36.5859 122.632 30.7547ZM136.288 28.7233C136.063 26.4284 134.633 24.961 132.639 24.961C130.306 24.961 129.103 26.4284 128.689 28.7233H136.288Z" fill="#E60023"/>
<path fill-rule="evenodd" clip-rule="evenodd" d="M74.996 13.5245H64.3472V40.4232H70.5554V31.432H75.9364C81.4667 31.432 85.0407 27.7826 85.0407 22.6287C85.0407 19.9201 84.0625 17.625 82.3319 16.0075C80.6766 14.4273 78.2688 13.5245 74.996 13.5245ZM79.0203 22.5909C79.0203 24.7355 77.666 26.1651 75.2583 26.1651H70.5554V19.13H75.2583C77.6283 19.13 79.0203 20.4467 79.0203 22.5909Z" fill="#E60023"/>
<path d="M55.929 27.7826C55.929 40.5691 45.5633 50.9348 32.7768 50.9348C19.9903 50.9348 9.62463 40.5691 9.62463 27.7826C9.62463 14.9959 19.9903 4.63044 32.7768 4.63044C45.5633 4.63044 55.929 14.9959 55.929 27.7826Z" fill="white"/>
<path d="M32.7768 4.63044C19.9903 4.63044 9.62463 14.9961 9.62463 27.7826C9.62463 37.591 15.7271 45.9759 24.3396 49.3493C24.1373 47.5175 23.9543 44.7004 24.4198 42.7006C24.8406 40.8937 27.1347 31.1925 27.1347 31.1925C27.1347 31.1925 26.4422 29.8055 26.4422 27.7551C26.4422 24.5358 28.3081 22.1324 30.6315 22.1324C32.6068 22.1324 33.5608 23.6153 33.5608 25.3936C33.5608 27.3801 32.2961 30.35 31.6434 33.1023C31.098 35.4066 32.799 37.2859 35.0719 37.2859C39.1868 37.2859 42.3499 32.947 42.3499 26.684C42.3499 21.1405 38.3667 17.2648 32.6791 17.2648C26.0915 17.2648 22.2248 22.2058 22.2248 27.3121C22.2248 29.302 22.9913 31.4358 23.9478 32.5957C24.1371 32.825 24.1648 33.0258 24.1084 33.2598C23.9327 33.991 23.5421 35.5636 23.4654 35.8855C23.3645 36.3092 23.1299 36.3992 22.6911 36.195C19.7995 34.849 17.9917 30.6214 17.9917 27.2258C17.9917 19.9225 23.298 13.2153 33.2892 13.2153C41.3207 13.2153 47.5621 18.9385 47.5621 26.587C47.5621 34.5661 42.5312 40.9876 35.5482 40.9876C33.2021 40.9876 30.9966 39.7688 30.2417 38.3291C30.2417 38.3291 29.0808 42.7496 28.7993 43.8329C28.2766 45.8438 26.8656 48.3645 25.9218 49.9024C28.088 50.5731 30.3901 50.9348 32.7768 50.9348C45.5635 50.9348 55.9292 40.5691 55.9292 27.7826C55.9292 14.9961 45.5635 4.63044 32.7768 4.63044Z" fill="#E60023"/>
</svg>
