<svg  viewBox="20 16 220 50" fill="none" xmlns="http://www.w3.org/2000/svg"><defs>
<clipPath id="clip0_0_3304">
<rect width="50" height="38.8889" fill="white" transform="translate(20 22)"/>
</clipPath>
<clipPath id="clip1_0_3304">
<rect width="100" height="16.4062" fill="white" transform="translate(98 33)"/>
</clipPath>
</defs><g clip-path="url(#clip0_0_3304)">
<path d="M49.389 59.3333C43.0001 61.0926 28.5927 60.2407 26.2779 60.2407H20.926L29.7408 50.2963C32.1297 47.6111 33.4445 47.0555 36.0186 47.0555C38.5927 47.0555 44.8519 47.3148 48.2038 47.0555C52.8999 46.7833 57.4866 45.528 61.6668 43.3704C67.1297 39.926 68.2223 37.8149 68.2223 37.8149C68.2223 37.8149 70.1668 53.6111 49.389 59.3333Z" fill="#3363E7"/>
<path d="M67.5742 31.4259C68.5742 25.3333 65.1297 23.6667 65.1297 23.6667C65.1297 23.6667 65.3705 28.6296 56.1112 29.6852C48.0186 30.6111 20.926 29.9074 20.926 29.9074L29.6482 39.9074C30.3441 40.9242 31.2826 41.7515 32.3788 42.314C33.475 42.8768 34.6942 43.157 35.926 43.1296C40.0929 43.3003 44.266 43.2385 48.426 42.9444C53.7264 42.6526 58.8475 40.9242 63.2408 37.9445C65.4281 36.3692 66.9682 34.0525 67.5742 31.4259Z" fill="#3363E7"/>
</g><g clip-path="url(#clip1_0_3304)">
<path d="M110.398 48.75C107.703 49.4922 101.625 49.1328 100.648 49.1328H98.3906L102.109 44.9375C103.117 43.8047 103.672 43.5703 104.758 43.5703C105.844 43.5703 108.484 43.6797 109.898 43.5703C111.88 43.4555 113.815 42.9259 115.578 42.0157C117.883 40.5626 118.344 39.6719 118.344 39.6719C118.344 39.6719 119.164 46.336 110.398 48.75Z" fill="#3363E7"/>
<path d="M118.07 36.9766C118.492 34.4062 117.039 33.7031 117.039 33.7031C117.039 33.7031 117.141 35.7969 113.234 36.2422C109.82 36.6328 98.3906 36.3359 98.3906 36.3359L102.07 40.5547C102.364 40.9837 102.76 41.3326 103.222 41.57C103.685 41.8074 104.199 41.9256 104.719 41.914C106.477 41.9861 108.237 41.96 109.992 41.8359C112.228 41.7128 114.389 40.9837 116.242 39.7266C117.165 39.062 117.815 38.0846 118.07 36.9766Z" fill="#3363E7"/>
<path d="M142.578 33.8984H144.992L138.82 49.2188H138.18L133.359 37.2265L128.484 49.2188H127.852V49.1406L121.703 33.8984H124.172L128.219 44.0547L132.305 33.8984H134.5L138.602 44.0547L142.578 33.8984ZM147.312 49.1563H149.711V33.8984H147.312V49.1563ZM159.203 40.8594L157.562 39.8906C156.983 39.5693 156.456 39.1609 156 38.6797C155.704 38.3542 155.538 37.9319 155.531 37.4922C155.531 37.2648 155.588 37.0411 155.697 36.8417C155.807 36.6424 155.965 36.4737 156.156 36.3515C156.646 36.0283 157.226 35.8671 157.812 35.8906C158.455 35.913 159.087 36.0627 159.672 36.3309C160.257 36.5991 160.782 36.9805 161.219 37.4531L161.43 37.6562V34.8203L161.375 34.7812C160.335 34.0704 159.103 33.6942 157.844 33.7031C156.647 33.6511 155.476 34.0592 154.57 34.8437C154.154 35.2155 153.824 35.674 153.604 36.1869C153.384 36.6998 153.279 37.2547 153.297 37.8125C153.29 38.5789 153.525 39.3278 153.969 39.9531C154.582 40.7279 155.341 41.3754 156.203 41.8594L157.836 42.8516C159.102 43.6328 159.75 44.4766 159.75 45.3438C159.755 45.596 159.701 45.8459 159.592 46.0738C159.484 46.3016 159.324 46.501 159.125 46.6563C158.682 47.0102 158.129 47.1981 157.562 47.1875C156.788 47.1581 156.032 46.9477 155.353 46.5733C154.675 46.1988 154.094 45.6707 153.656 45.0313L153.43 44.75V47.875H153.484C154.64 48.7902 156.065 49.3006 157.539 49.3281C158.725 49.3754 159.883 48.9577 160.766 48.1641C161.177 47.7782 161.502 47.3088 161.717 46.7874C161.933 46.2659 162.035 45.7045 162.016 45.1406C162.016 43.4141 161.07 41.9688 159.203 40.8594ZM163.797 36.0469H168.328V49.1563H170.734V36.0469H175.352V33.875H163.797V36.0469ZM177.953 49.1641H180.352V33.8984H177.953V49.1641ZM197.727 49.1641H195.266L193.266 44.7188H187.016L185.109 49.1563H182.625L182.703 48.9844L189.211 33.8125H190.883L197.727 49.1641ZM190.031 37.5547L187.969 42.5469H192.258L190.031 37.5547Z" fill="#3363E7"/>
</g></svg>