<svg width="281" height="43" viewBox="0 0 281 43" fill="none" xmlns="http://www.w3.org/2000/svg">
<path d="M97.4858 25.0126C97.9307 24.9898 98.3754 25.0634 98.7892 25.2283C99.2031 25.3932 99.5765 25.6456 99.8838 25.9682C100.191 26.2908 100.425 26.676 100.57 27.0974C100.714 27.5188 100.766 27.9664 100.722 28.4098C100.722 30.4034 99.5777 31.8427 97.4858 31.8427C95.3938 31.8427 94.2495 30.4302 94.2495 28.4098C94.2495 26.3893 95.3849 25.0126 97.4858 25.0126ZM97.4858 30.8057C98.8357 30.8057 99.3363 29.6077 99.3363 28.4098C99.3363 27.2118 98.7999 26.0496 97.4858 26.0496C96.1716 26.0496 95.6263 27.2386 95.6263 28.4098C95.6263 29.5809 96.1269 30.7967 97.4858 30.7967V30.8057ZM108.142 26.3357C107.719 26.1507 107.263 26.0533 106.801 26.0496C106.672 26.0287 106.541 26.0363 106.415 26.0718C106.289 26.1073 106.173 26.1698 106.074 26.255C105.976 26.3402 105.897 26.446 105.843 26.5649C105.789 26.6839 105.762 26.8132 105.764 26.9436C105.764 28.0879 108.661 27.6052 108.661 29.8223C108.661 31.2706 107.516 31.8159 106.184 31.8159C105.608 31.8139 105.036 31.7265 104.486 31.5566L104.611 30.3676C105.067 30.6252 105.58 30.7664 106.104 30.7789C106.604 30.7789 107.275 30.5196 107.275 29.8849C107.275 28.6243 104.378 29.1428 104.378 26.9615C104.378 25.4864 105.523 24.95 106.685 24.95C107.222 24.944 107.756 25.0255 108.267 25.1914L108.142 26.3357ZM113.712 26.1659H111.816V25.1199H116.93V26.1659H115.035V31.7265H113.712V26.1659ZM120.435 25.1199H124.332V26.1659H121.758V27.7929H124.154V28.8299H121.793V30.6805H124.386V31.7265H120.47L120.435 25.1199ZM131.306 25.0126C131.75 24.9898 132.195 25.0634 132.609 25.2283C133.023 25.3932 133.396 25.6456 133.704 25.9682C134.011 26.2908 134.245 26.676 134.39 27.0974C134.534 27.5188 134.586 27.9664 134.542 28.4098C134.542 30.4034 133.397 31.8427 131.306 31.8427C129.214 31.8427 128.069 30.4302 128.069 28.4098C128.069 26.3893 129.169 25.0126 131.306 25.0126ZM131.306 30.8057C132.655 30.8057 133.165 29.6077 133.165 28.4098C133.165 27.2118 132.629 26.0496 131.306 26.0496C129.982 26.0496 129.446 27.2386 129.446 28.4098C129.446 29.5809 129.92 30.7967 131.306 30.7967V30.8057ZM138.261 25.1199H139.933C141.372 25.1199 142.686 25.5311 142.686 27.1135C142.686 28.6959 141.56 29.2144 140.138 29.2144H139.584V31.7265H138.261V25.1199ZM139.584 28.1773H140.049C140.71 28.1773 141.309 27.9628 141.309 27.1939C141.309 26.4251 140.728 26.1659 140.049 26.1659H139.584V28.1773ZM147.496 25.1199H148.989L151.581 31.7265H150.079L149.516 30.2067H146.834L146.253 31.7265H144.876L147.496 25.1199ZM148.22 26.443L147.263 29.125H149.185L148.22 26.443ZM155.542 26.1659H153.655V25.1199H158.769V26.1659H156.874V31.7265H155.551L155.542 26.1659ZM162.256 25.1199H163.579V27.8019H166.261V25.1199H167.584V31.7265H166.261V28.8299H163.579V31.7265H162.256V25.1199ZM171.634 25.1199H172.957V31.7265H171.634V25.1199ZM181.852 31.6371C181.361 31.7621 180.857 31.8311 180.35 31.8427C178.213 31.8427 176.72 30.7699 176.72 28.5439C176.72 26.3178 178.106 25.0126 180.35 25.0126C180.86 25.0174 181.365 25.1112 181.843 25.2897L181.745 26.443C181.309 26.1978 180.814 26.0772 180.314 26.0943C180.007 26.092 179.703 26.1538 179.421 26.2757C179.139 26.3977 178.885 26.5772 178.677 26.8027C178.468 27.0282 178.309 27.2947 178.209 27.5853C178.109 27.8759 178.071 28.1841 178.097 28.4902C178.07 28.797 178.109 29.106 178.211 29.3967C178.312 29.6874 178.475 29.9531 178.687 30.1763C178.899 30.3995 179.156 30.575 179.441 30.6912C179.727 30.8074 180.033 30.8617 180.341 30.8504C180.838 30.8563 181.33 30.7621 181.789 30.5732L181.852 31.6371Z" fill="#22205F"/>
<path d="M54.3057 8.64386L53.3849 5.88142L47.6902 19.3807C47.6902 19.3807 46.7962 14.3028 44.4807 11.5583C43.3163 10.1306 42.007 8.82731 40.574 7.66941C39.2301 6.58298 37.6963 5.75543 36.0504 5.2288C33.8958 4.71923 34.5306 5.2288 34.772 5.53276C35.0133 5.83672 37.2126 6.28372 39.1704 7.83926C41.4594 9.60481 43.2343 11.9507 44.3109 14.6336C45.3896 17.2556 45.8397 20.0938 45.625 22.9209C45.33 25.9829 44.1634 28.8961 42.2636 31.3155C40.5702 33.666 38.1999 35.4438 35.4693 36.4113C34.4769 36.6527 34.3965 37.4394 35.4693 37.1622C37.8979 36.2703 40.1564 34.9703 42.1474 33.3181C44.3734 31.4496 45.8396 28.3743 46.6978 26.5505C48.9507 21.7945 54.3057 8.64386 54.3057 8.64386Z" fill="white"/>
<g opacity="0.2">
<path d="M81.4026 3.51245V38.6375V3.51245Z" fill="#22205F"/>
<path d="M81.4026 3.51245V38.6375" stroke="#22205F" stroke-width="1.22168"/>
</g>
<path d="M40.3146 32.701C41.4801 32.2475 42.5827 31.6467 43.5956 30.913C45.812 29.0457 47.4135 26.5531 48.1907 23.7611C48.5457 22.2773 48.6245 20.7408 48.4231 19.2285C48.1935 17.5211 47.6542 15.87 46.8318 14.3562C45.9754 12.8714 44.84 11.5661 43.4883 10.5121C42.2714 9.73245 40.9844 9.06802 39.6441 8.52741C39.1792 8.12511 41.2354 7.57084 45.0081 10.2349C46.6823 11.4736 48.047 13.0831 48.9953 14.9373C49.6407 16.2212 50.0983 17.591 50.3541 19.005L54.699 8.83137L55.4946 11.111L49.7194 25.1557C49.1222 26.5157 48.3563 27.7952 47.4397 28.9641C46.2848 30.4907 44.8114 31.7476 43.1217 32.6474C39.7961 34.1582 39.5547 33.0407 40.3146 32.701ZM20.3517 19.2911C18.7515 15.429 18.1346 14.3205 16.9277 11.111L17.7681 8.96547L22.104 19.2911C22.5054 16.8542 23.531 14.5627 25.081 12.6398C25.9644 11.6642 26.9305 10.7669 27.9686 9.9578C29.2648 9.01016 32.072 7.74963 32.2955 8.34861C32.4385 8.76879 31.0707 9.05486 29.4526 10.0651C28.8087 10.499 28.2097 10.9962 27.6646 11.5491C26.5553 12.6524 25.6476 13.9413 24.9826 15.3575C24.4854 16.5956 24.1402 17.8894 23.9545 19.2106C23.6903 21.2021 23.9048 23.2279 24.5803 25.1199C25.4743 27.9002 28.5139 30.7253 28.791 30.9398C30.731 32.406 32.7961 32.7278 32.2597 33.3178C31.7233 33.9079 25.6084 31.3242 23.3198 26.1033C21.8805 23.028 20.7898 20.3013 20.3517 19.2911Z" fill="white"/>
<path d="M38.7769 34.3914C38.9305 34.3797 39.083 34.3557 39.2328 34.3199C39.9223 34.2008 40.6032 34.0366 41.2712 33.8282C41.6556 33.7119 42.031 33.5778 42.3886 33.4348C43.5417 32.9846 44.63 32.3834 45.6249 31.6468C46.3666 31.0855 47.0495 30.4505 47.6632 29.7516C48.6162 28.6461 49.3886 27.397 49.9518 26.0504H60.9301L61.0999 26.4885C62.0251 28.6681 62.7813 30.9157 63.3617 33.2113L59.5265 33.8192H59.3835V34.5612H68.7704V33.8282H68.6363L65.8381 33.2113C65.0125 31.7557 64.2895 30.2441 63.6746 28.6877L55.2174 7.16034H53.4295L49.9518 15.5013C47.6721 10.2536 42.5049 7.00836 36.3452 7.00836H36.0592C29.8996 7.00836 24.7323 10.2536 22.4526 15.5013L18.975 7.16034H17.187L8.72979 28.6788C8.11506 30.2353 7.39213 31.7468 6.56633 33.2024L3.76813 33.8192H3.63403V34.5523H12.9941V33.8103H12.8511L9.01587 33.2024C9.60175 30.9061 10.3639 28.6585 11.2956 26.4795L11.4654 26.0415H22.4258C22.7441 26.7783 23.1239 27.4871 23.5611 28.1602C23.918 28.7054 24.3123 29.2252 24.7412 29.7158C25.3548 30.4148 26.0378 31.0498 26.7795 31.6111C27.7744 32.3476 28.8627 32.9488 30.0158 33.399C30.3734 33.5421 30.7488 33.6762 31.1333 33.7924C31.8012 34.0008 32.4821 34.165 33.1716 34.2841C33.5113 34.3467 33.8778 34.4003 34.2533 34.4361H34.4142C35.1373 34.5301 35.8678 34.5541 36.5956 34.5076L35.5943 33.0146H35.3887C33.6763 32.8601 32.032 32.2696 30.6125 31.2993C29.1931 30.329 28.0458 29.0113 27.2802 27.4719C27.0612 27.0252 26.8701 26.5654 26.708 26.0951C26.1004 24.3727 25.7979 22.5575 25.814 20.7312C25.6906 17.4784 26.7731 14.2947 28.8536 11.7912C29.7508 10.7762 30.8508 9.96065 32.0827 9.39706C33.3146 8.83348 34.6509 8.53443 36.0055 8.51921H36.4347C37.7892 8.53443 39.1256 8.83348 40.3575 9.39706C41.5894 9.96065 42.6894 10.7762 43.5866 11.7912C45.6671 14.2947 46.7495 17.4784 46.6262 20.7312C46.643 22.5576 46.3405 24.3729 45.7322 26.0951C45.5599 26.5755 45.3568 27.0444 45.1243 27.4987C44.374 29.0052 43.2586 30.2999 41.8798 31.2649C40.501 32.2299 38.9026 32.8345 37.2303 33.0236C37.5685 33.1325 37.8805 33.3103 38.1467 33.5457C38.4129 33.7811 38.6275 34.069 38.7769 34.3914ZM16.9992 24.6558C15.369 24.6734 13.7392 24.5958 12.118 24.4234L12.5293 23.3684C13.5663 20.6865 15.4616 15.8142 16.8473 13.0249L21.6838 24.4412C20.1272 24.5966 18.5635 24.6682 16.9992 24.6558ZM31.7322 8.70695C30.0739 9.32398 28.5678 10.2905 27.3159 11.5409C25.2778 13.5982 23.9901 16.2807 23.6595 19.1577C23.5804 19.7505 23.5386 20.3477 23.5343 20.9457C23.5495 23.016 24.0617 25.0524 25.0278 26.8835C25.9939 28.7146 27.3857 30.2869 29.086 31.468C29.9675 32.0732 30.9229 32.5629 31.9289 32.9252C32.0094 32.9699 32.072 33.0325 32.0541 33.113C32.0362 33.1934 31.8753 33.1845 31.7233 33.113L31.464 33.0325C29.5483 32.3909 27.8009 31.3278 26.3504 29.9214C25.0162 28.6377 23.9576 27.0954 23.2393 25.3889L17.2049 10.9151L17.7412 9.53836L21.6212 18.8627L22.238 20.3378H22.3453C22.395 19.2439 22.5904 18.1616 22.9264 17.1194C23.7804 14.4997 25.4111 12.2017 27.602 10.5307C28.8459 9.5793 30.2468 8.85314 31.7412 8.38511H32.0451C32.063 8.38511 31.7322 8.70695 31.7322 8.70695ZM49.1562 25.4246C47.8972 28.4027 45.6271 30.8406 42.7462 32.3084C42.074 32.6498 41.3742 32.9339 40.6543 33.1577C40.5113 33.1577 40.3593 33.2024 40.3414 33.1577C40.3235 33.113 40.395 33.0146 40.4755 32.9699C41.4779 32.6097 42.4303 32.123 43.3095 31.5217C45.0098 30.3405 46.4016 28.7682 47.3677 26.9371C48.3338 25.106 48.846 23.0696 48.8612 20.9994C48.8566 20.4013 48.8148 19.8042 48.736 19.2114C48.4047 16.3346 47.1171 13.6523 45.0796 11.5945C43.8281 10.3437 42.3218 9.37712 40.6632 8.76059C40.6632 8.76059 40.2878 8.65331 40.3325 8.48345C40.3772 8.31359 40.4844 8.41193 40.6275 8.48345C42.125 8.95052 43.529 9.67672 44.7756 10.629C46.9735 12.2914 48.6136 14.5832 49.478 17.1999C49.8143 18.242 50.0097 19.3244 50.0591 20.4183H50.1664L54.6453 9.65458L55.1817 11.0313L50.8458 21.4642L49.1562 25.4246ZM55.4141 24.629C53.8501 24.6444 52.2863 24.5757 50.7296 24.4234L55.5482 13.0339C56.9339 15.8231 58.8292 20.7043 59.8662 23.3774L60.2775 24.4323C58.6561 24.6018 57.0263 24.6764 55.3962 24.6558L55.4141 24.629Z" fill="#22205F"/>
<path d="M30.427 14.7593C30.6655 14.7356 30.9064 14.7621 31.134 14.8371C31.3617 14.9121 31.5711 15.0339 31.7488 15.1948C31.9265 15.3556 32.0685 15.5519 32.1658 15.771C32.263 15.9901 32.3133 16.2271 32.3133 16.4668C32.3044 18.0224 31.178 18.3978 30.1499 18.3978H28.2635V18.2012C28.5139 18.2012 28.6837 18.1475 28.7105 18.076C28.7223 18.002 28.7223 17.9265 28.7105 17.8525V15.3136C28.7229 15.2366 28.7229 15.1581 28.7105 15.0811C28.7105 15.0096 28.5139 14.9649 28.2635 14.956V14.7593H30.427ZM29.8191 17.6379C29.8191 18.0849 29.8191 18.0581 30.0605 18.0581C30.6684 18.0581 31.2137 17.772 31.2137 16.4668C31.2137 15.4834 30.7757 15.0811 29.9174 15.0811H29.8191V17.6379ZM40.5738 16.44C40.6083 15.9396 40.8371 15.4725 41.2112 15.1385C41.5854 14.8044 42.0753 14.6298 42.5764 14.652C43.0506 14.652 43.5054 14.8404 43.8407 15.1757C44.176 15.511 44.3644 15.9658 44.3644 16.44C44.3656 16.699 44.3152 16.9556 44.2161 17.1948C44.117 17.4341 43.9712 17.6512 43.7873 17.8335C43.6033 18.0157 43.3849 18.1595 43.1448 18.2564C42.9046 18.3533 42.6476 18.4014 42.3886 18.3978C42.1366 18.4028 41.8864 18.3543 41.6543 18.2557C41.4223 18.1571 41.2138 18.0106 41.0424 17.8257C40.871 17.6408 40.7407 17.4218 40.6599 17.1829C40.5792 16.9441 40.5498 16.6909 40.5738 16.44ZM43.2558 16.5294C43.2558 15.3583 42.7909 14.947 42.3618 14.947C41.9327 14.947 41.6645 15.1616 41.6645 16.297C41.6645 17.4323 42.031 18.0224 42.487 18.0224C42.7999 18.0224 43.2826 17.924 43.2826 16.5383L43.2558 16.5294Z" fill="#22205F"/>
<path d="M37.9366 36.4207C38.059 36.1388 38.1199 35.8341 38.1154 35.5268C38.1185 35.2797 38.076 35.0343 37.9902 34.8026C37.863 34.499 37.6729 34.2257 37.4326 34.0008C37.1922 33.7758 36.907 33.6042 36.5956 33.4974L36.2112 33.3543C36.0758 33.3157 35.9464 33.2585 35.8267 33.1845C35.6176 33.0706 35.4401 32.9063 35.3106 32.7065C35.181 32.5066 35.1034 32.2776 35.0847 32.0402V31.8077C35.0929 31.203 35.1801 30.6019 35.344 30.0198C35.3292 29.9971 35.3094 29.978 35.2862 29.9641C35.263 29.9501 35.2369 29.9417 35.2099 29.9393C35.0937 29.9393 34.7718 29.9929 34.3159 30.7618C34.0627 31.1362 33.8919 31.5602 33.8148 32.0056C33.7377 32.451 33.7562 32.9077 33.8689 33.3454C34.0331 33.7106 34.2802 34.0325 34.5906 34.2854C34.901 34.5384 35.2661 34.7155 35.6569 34.8026L36.1039 34.9546L36.6492 35.196C36.8959 35.2991 37.1163 35.4562 37.2942 35.6558C37.4722 35.8554 37.6031 36.0924 37.6773 36.3492C37.6773 36.3492 37.7578 36.5995 37.9366 36.4207Z" fill="#22205F"/>
<path d="M38.6875 28.8129C38.5119 28.451 38.2524 28.1364 37.9304 27.8954C37.6085 27.6543 37.2336 27.4938 36.8369 27.4272L36.2559 27.2752C35.9855 27.2196 35.7218 27.1357 35.4691 27.0249C35.2614 26.9359 35.0837 26.7893 34.9569 26.6023C34.8301 26.4153 34.7597 26.1958 34.7539 25.97V25.818C34.7797 25.1764 34.8817 24.5402 35.0579 23.9227C35.0579 23.8512 35.0043 23.8333 34.9953 23.8333C34.8076 23.8333 34.3248 24.1552 33.9672 24.7273C33.6952 25.0892 33.5115 25.5096 33.4308 25.9551C33.3501 26.4006 33.3746 26.8588 33.5023 27.2931C33.7161 27.6885 34.0233 28.0256 34.3973 28.275C34.7714 28.5243 35.2007 28.6783 35.6479 28.7235H35.7284C35.791 29.6175 35.9787 32.371 35.9787 32.4425L36.1396 32.5319L36.2648 32.5855H36.3631L36.5419 32.7017L36.7386 29.1258L36.8459 29.1794C37.0324 29.251 37.1958 29.3721 37.3186 29.5296C37.4415 29.6871 37.5191 29.8751 37.5432 30.0734C37.5457 30.1121 37.5457 30.1509 37.5432 30.1896C37.4717 30.726 37.2303 31.8793 37.1409 32.1653V32.2369C37.2839 32.2369 37.7309 31.5932 37.9544 31.2892C38.4125 30.7292 38.6899 30.0434 38.7501 29.3224C38.7583 29.1503 38.7371 28.9779 38.6875 28.8129Z" fill="#22205F"/>
<path d="M39.0451 22.4476C38.8518 22.0762 38.5709 21.7574 38.2266 21.5191C37.8823 21.2807 37.4851 21.13 37.0694 21.0798C36.8048 21.0116 36.536 20.9609 36.2648 20.9278C35.875 20.8569 35.4921 20.7522 35.1205 20.6149C34.9146 20.5608 34.7293 20.447 34.5878 20.288C34.4462 20.129 34.3548 19.9317 34.3248 19.7209V19.569C34.3497 18.9302 34.4518 18.2969 34.6288 17.6826C34.6288 17.6022 34.5751 17.5932 34.5573 17.5843C34.3695 17.5843 33.8868 17.9061 33.5292 18.4783C33.1543 19.0031 32.9343 19.6226 32.8944 20.2663C32.8922 20.4892 32.9316 20.7105 33.0107 20.9189C33.243 21.3443 33.5735 21.7081 33.9747 21.9802C34.3758 22.2522 34.836 22.4248 35.3172 22.4834C35.3708 23.3148 35.5496 25.9342 35.5585 26.0594C35.6806 26.1173 35.806 26.168 35.934 26.2113L36.1665 26.2739H36.4346L36.7386 26.3454L36.9085 22.841L37.0426 22.8946C37.253 22.9613 37.4374 23.0918 37.5704 23.268C37.7033 23.4442 37.7782 23.6574 37.7846 23.878V23.9764C37.7669 24.6223 37.6493 25.2617 37.4359 25.8716C37.4359 25.9431 37.4806 25.961 37.4985 25.961C37.6415 25.961 38.0796 25.6928 38.4819 25.067C38.8992 24.4769 39.1493 23.785 39.206 23.0645C39.1898 22.8509 39.1353 22.6419 39.0451 22.4476Z" fill="#22205F"/>
<path d="M41.9685 13.1948C41.7852 12.5961 41.5108 12.0292 41.1549 11.5141C40.8885 11.1235 40.533 10.8018 40.1179 10.5754C39.5542 10.3271 38.9458 10.1963 38.3299 10.191C37.8139 9.7682 37.2087 9.46808 36.5598 9.31322C35.9109 9.15836 35.2354 9.15281 34.5841 9.29699C33.8343 9.42786 33.1597 9.83209 32.6908 10.4315C32.2218 11.0309 31.9918 11.783 32.0451 12.5422V12.5958C32.0451 14.8219 33.556 15.4834 35.0043 15.8321C35.0579 16.7261 35.2456 19.4081 35.2546 19.5243C35.4296 19.6022 35.6087 19.6708 35.791 19.7299L36.1307 19.8103H36.3542C36.5777 19.8103 36.8548 19.8908 37.0604 19.9444C37.0604 19.7656 37.1409 17.0837 37.1677 16.297L37.3376 16.3595C37.5374 16.417 37.7156 16.5328 37.8494 16.692C37.9832 16.8512 38.0664 17.0467 38.0885 17.2535V17.3608C38.0491 18.0252 37.9073 18.6796 37.6684 19.3008C37.6684 19.3634 37.7131 19.3812 37.7309 19.3812C37.9187 19.3812 38.4014 19.0594 38.759 18.4872C39.0197 18.1505 39.203 17.7604 39.2957 17.3447C39.3884 16.929 39.3883 16.498 39.2954 16.0824C39.1092 15.6939 38.8341 15.3546 38.4924 15.0921C38.1507 14.8297 37.7521 14.6513 37.3286 14.5715C36.9542 14.4546 36.5718 14.3649 36.1843 14.3033C35.6887 14.2662 35.2039 14.139 34.7539 13.9279C34.4871 13.7932 34.2625 13.5877 34.1048 13.3338C33.9471 13.0799 33.8624 12.7874 33.8599 12.4885C33.8543 12.2237 33.9172 11.9619 34.0425 11.7285C34.1678 11.4952 34.3513 11.2981 34.5751 11.1565L34.7361 11.0671L34.888 12.8551C35.1064 12.9822 35.337 13.0871 35.5764 13.168L36.0234 13.2842H36.1486C36.5314 13.3427 36.9105 13.4233 37.2839 13.5256C37.2839 13.3378 37.3733 11.9253 37.3733 11.8896C37.3777 11.8038 37.3624 11.7182 37.3286 11.6392L37.275 11.5409L37.5253 11.827C37.6646 12.0112 37.7901 12.2054 37.9008 12.4081C37.9658 12.5349 38.0437 12.6547 38.1332 12.7657C39.0272 13.5792 40.3235 13.5166 41.8344 13.3557C41.8889 13.3134 41.9269 13.2533 41.9416 13.1859L41.9685 13.1948ZM35.943 8.49239C36.4417 8.46029 36.9425 8.48428 37.4359 8.56391L37.5164 6.51667C37.5164 5.76571 36.6224 5.62267 36.0592 5.56009C35.8239 5.52295 35.5832 5.54163 35.3565 5.61462C35.1297 5.6876 34.9234 5.81286 34.7539 5.98027C34.607 6.1786 34.5342 6.4222 34.5483 6.66865L34.6377 8.64437C35.0695 8.56823 35.5053 8.51749 35.943 8.49239Z" fill="#22205F"/>
<path d="M62.0654 13.1046C61.484 13.1029 60.9162 12.9289 60.4337 12.6046C59.9512 12.2803 59.5756 11.8204 59.3544 11.2828C59.1331 10.7452 59.0762 10.1541 59.1907 9.58413C59.3052 9.01417 59.586 8.49093 59.9977 8.08048C60.4094 7.67004 60.9335 7.3908 61.5038 7.27803C62.0741 7.16527 62.665 7.22403 63.2019 7.44691C63.7388 7.66979 64.1977 8.04677 64.5205 8.53026C64.8433 9.01375 65.0155 9.58205 65.0155 10.1634C65.0155 10.5504 64.9392 10.9336 64.7908 11.291C64.6424 11.6485 64.425 11.9731 64.1509 12.2463C63.8768 12.5196 63.5515 12.736 63.1937 12.8833C62.8358 13.0306 62.4524 13.1058 62.0654 13.1046ZM62.0654 7.74067C61.59 7.73358 61.1233 7.86804 60.7247 8.12696C60.326 8.38587 60.0133 8.75753 59.8265 9.19465C59.6397 9.63177 59.5871 10.1146 59.6755 10.5817C59.7638 11.0488 59.9891 11.479 60.3227 11.8177C60.6564 12.1563 61.0832 12.3881 61.5489 12.4835C62.0146 12.5789 62.4981 12.5336 62.938 12.3533C63.3779 12.1731 63.7542 11.866 64.0191 11.4713C64.284 11.0766 64.4254 10.612 64.4255 10.1366C64.4232 9.51052 64.174 8.91064 63.7322 8.46711C63.2903 8.02359 62.6914 7.77219 62.0654 7.76749V7.74067ZM63.5583 11.6921H62.861L62.271 10.5568H61.4843V11.6832H60.8763V8.46481H62.4677C62.7238 8.44255 62.9793 8.51464 63.1861 8.66753C63.3929 8.82042 63.5367 9.04357 63.5905 9.29503C63.6443 9.5465 63.6044 9.80896 63.4783 10.0331C63.3522 10.2572 63.1486 10.4275 62.9057 10.5121L63.5583 11.6921ZM62.4677 10.0204C62.534 10.0256 62.6006 10.0165 62.6631 9.99381C62.7257 9.97108 62.7826 9.9352 62.83 9.88859C62.8775 9.84198 62.9144 9.78573 62.9382 9.72364C62.9621 9.66154 62.9723 9.59505 62.9683 9.52866C62.9683 9.16212 62.7716 9.03696 62.4677 9.03696H61.4843V10.0293L62.4677 10.0204Z" fill="#22205F"/>
<path d="M96.3234 15.5185L95.6618 17.5032H94.7678L96.9313 11.129H97.9236L100.15 17.5032H99.2557L98.5762 15.5006L96.3234 15.5185ZM98.4153 14.8748L97.7895 13.0422C97.6465 12.622 97.5571 12.2465 97.4587 11.88C97.3604 12.2554 97.2621 12.6488 97.1369 13.0332L96.5111 14.8748H98.4153ZM112.862 14.7229C112.818 13.8289 112.755 12.765 112.764 11.9694C112.549 12.7203 112.281 13.507 111.959 14.3921L110.815 17.5032H110.189L109.161 14.4725C108.857 13.5786 108.607 12.7561 108.428 11.9962C108.428 12.7918 108.365 13.8557 108.303 14.8123L108.115 17.5032H107.328L107.775 11.129H108.821L109.912 14.2133C110.18 15 110.395 15.6973 110.556 16.3589C110.717 15.7152 110.94 15.0179 111.226 14.2133L112.362 11.129H113.425L113.819 17.5032H113.014L112.862 14.7229ZM124.815 14.5351H122.365V16.8327H125.128V17.5032H121.552V11.1469H124.994V11.8353H122.365V13.8468H124.842L124.815 14.5351ZM132.575 11.2452C133.097 11.1516 133.627 11.1067 134.157 11.1111C134.815 11.0447 135.473 11.23 135.999 11.6296C136.163 11.7836 136.293 11.9709 136.38 12.179C136.466 12.3871 136.507 12.6113 136.499 12.8365C136.505 13.2013 136.39 13.5578 136.174 13.8515C135.958 14.1453 135.651 14.3602 135.301 14.4636C135.549 14.5828 135.761 14.764 135.918 14.9896C136.075 15.2152 136.17 15.4775 136.195 15.751C136.304 16.3607 136.469 16.9592 136.687 17.5389H135.793C135.602 17.0472 135.458 16.5383 135.364 16.0192C135.176 15.1252 134.837 14.8123 134.086 14.7765H133.308V17.5032H132.485L132.575 11.2452ZM133.397 14.1507H134.238C135.132 14.1507 135.677 13.668 135.677 12.9438C135.677 12.2197 135.078 11.7637 134.211 11.7548C133.938 11.7456 133.665 11.7696 133.397 11.8263V14.1507ZM144.903 11.1469V17.5032H144.08V11.1469H144.903ZM157.231 17.3154C156.699 17.534 156.126 17.6376 155.55 17.6194C155.123 17.6454 154.696 17.5791 154.297 17.4249C153.898 17.2708 153.537 17.0325 153.238 16.7262C152.939 16.42 152.71 16.0529 152.566 15.6501C152.422 15.2474 152.367 14.8183 152.404 14.3921C152.379 13.9481 152.448 13.504 152.607 13.0886C152.765 12.6731 153.009 12.2955 153.322 11.9803C153.636 11.665 154.012 11.4192 154.427 11.2587C154.841 11.0982 155.285 11.0266 155.729 11.0486C156.248 11.0278 156.765 11.1257 157.24 11.3346L157.043 12.0051C156.64 11.8212 156.2 11.7295 155.756 11.7369C155.412 11.7179 155.068 11.7741 154.749 11.9015C154.429 12.0289 154.14 12.2245 153.904 12.4747C153.667 12.7249 153.488 13.0236 153.379 13.3501C153.269 13.6766 153.233 14.0231 153.271 14.3653C153.234 14.7013 153.27 15.0414 153.379 15.3617C153.487 15.682 153.664 15.9747 153.897 16.2192C154.131 16.4638 154.415 16.6542 154.73 16.7772C155.045 16.9002 155.383 16.9527 155.72 16.931C156.181 16.9363 156.638 16.8449 157.061 16.6628L157.231 17.3154ZM165.679 15.5185L165.018 17.5032H164.124L166.287 11.129H167.28L169.497 17.5032H168.603L167.959 15.5185H165.679ZM167.771 14.8748L167.146 13.0422C167.002 12.622 166.913 12.2465 166.815 11.88C166.716 12.2554 166.618 12.6488 166.493 13.0332L165.867 14.8748H167.771ZM176.854 17.5032V11.1469H177.748L179.787 14.3742C180.213 15.0398 180.595 15.7326 180.931 16.4483C180.859 15.5543 180.833 14.8212 180.833 13.8289V11.1469H181.61V17.5032H180.779L178.758 14.2669C178.326 13.5818 177.935 12.8713 177.587 12.1392C177.632 12.9438 177.65 13.7127 177.65 14.7676V17.4495L176.854 17.5032ZM192.428 29.6704L191.766 31.673H190.872L193.036 25.2988H194.028L196.2 31.673H195.306L194.627 29.6704H192.428ZM194.52 29.0268L193.894 27.1941C193.751 26.7739 193.661 26.3984 193.563 26.0319C193.465 26.4074 193.366 26.8007 193.241 27.1851L192.615 29.0268H194.52ZM200.402 30.6717C200.847 30.941 201.357 31.086 201.877 31.0919C202.718 31.0919 203.209 30.6449 203.209 30.0012C203.209 29.3575 202.869 29.1072 202.011 28.7317C200.974 28.3652 200.331 27.8377 200.331 26.9438C200.342 26.6914 200.406 26.4442 200.518 26.2177C200.629 25.9911 200.787 25.7901 200.98 25.6273C201.173 25.4644 201.397 25.3432 201.64 25.2713C201.882 25.1994 202.136 25.1783 202.387 25.2094C202.876 25.1929 203.362 25.3006 203.799 25.5223L203.576 26.1928C203.205 25.9929 202.79 25.8885 202.369 25.8888C201.475 25.8888 201.171 26.4074 201.171 26.8454C201.171 27.4444 201.555 27.7394 202.44 28.0791C203.522 28.4904 204.067 28.9731 204.067 29.9476C204.067 30.922 203.343 31.7803 201.832 31.7803C201.264 31.7861 200.703 31.6445 200.205 31.369L200.402 30.6717ZM208.394 30.6717C208.84 30.941 209.349 31.086 209.869 31.0919C210.71 31.0919 211.202 30.6449 211.202 30.0012C211.202 29.3575 210.862 29.1072 210.004 28.7317C208.967 28.3652 208.323 27.8377 208.323 26.9438C208.334 26.6914 208.398 26.4442 208.51 26.2177C208.622 25.9911 208.779 25.7901 208.972 25.6273C209.165 25.4644 209.39 25.3432 209.632 25.2713C209.874 25.1994 210.128 25.1783 210.379 25.2094C210.862 25.2057 211.338 25.3225 211.765 25.5491L211.541 26.2196C211.17 26.0197 210.756 25.9153 210.334 25.9157C209.44 25.9157 209.136 26.4342 209.136 26.8722C209.136 27.4712 209.521 27.7662 210.406 28.1059C211.488 28.5172 212.033 28.9999 212.033 29.9744C212.033 30.9488 211.318 31.8071 209.816 31.8071C209.247 31.813 208.686 31.6713 208.189 31.3958L208.394 30.6717ZM221.947 28.4278C221.947 30.6181 220.615 31.7803 218.988 31.7803C217.361 31.7803 216.127 30.475 216.127 28.544C216.127 26.613 217.388 25.2005 219.087 25.2005C220.785 25.2005 221.947 26.5325 221.947 28.4278ZM217.004 28.5351C217.004 29.8939 217.737 31.1187 219.033 31.1187C220.329 31.1187 221.071 29.9207 221.071 28.4367C221.071 27.1672 220.41 25.8441 219.042 25.8441C217.674 25.8441 217.004 27.1315 217.004 28.5261V28.5351ZM230.798 31.4674C230.265 31.686 229.693 31.7895 229.117 31.7713C228.69 31.7973 228.263 31.731 227.864 31.5768C227.465 31.4227 227.103 31.1844 226.805 30.8781C226.506 30.5719 226.277 30.2048 226.133 29.8021C225.989 29.3993 225.934 28.9702 225.97 28.544C225.946 28.1001 226.015 27.656 226.173 27.2405C226.332 26.825 226.576 26.4474 226.889 26.1322C227.203 25.8169 227.579 25.5711 227.994 25.4106C228.408 25.2501 228.852 25.1785 229.296 25.2005C229.815 25.1794 230.332 25.2773 230.807 25.4865L230.61 26.157C230.206 25.9731 229.766 25.8815 229.323 25.8888C228.979 25.8698 228.635 25.926 228.315 26.0534C227.995 26.1808 227.707 26.3764 227.471 26.6266C227.234 26.8768 227.055 27.1755 226.945 27.5021C226.836 27.8286 226.799 28.175 226.837 28.5172C226.8 28.8532 226.837 29.1933 226.945 29.5136C227.054 29.8339 227.231 30.1266 227.464 30.3711C227.698 30.6157 227.982 30.8061 228.297 30.9291C228.612 31.0521 228.95 31.1046 229.287 31.0829C229.748 31.0885 230.205 30.9971 230.628 30.8147L230.798 31.4674ZM235.983 25.3077V31.6819H235.161V25.3077H235.983ZM241.785 29.6704L241.123 31.673H240.229L242.393 25.2988H243.385L245.558 31.673H244.664L243.984 29.6704H241.785ZM243.877 29.0268L243.251 27.1941C243.108 26.7739 243.019 26.3984 242.92 26.0319C242.822 26.4074 242.724 26.8007 242.599 27.1851L241.973 29.0268H243.877ZM250.349 26.0051H248.418V25.3077H253.139V26.0051H251.19V31.673H250.358L250.349 26.0051ZM257.993 25.3077V31.6819H257.171V25.3077H257.993ZM268.203 28.4278C268.203 30.6181 266.87 31.7803 265.243 31.7803C263.616 31.7803 262.383 30.475 262.383 28.544C262.383 26.613 263.643 25.2005 265.342 25.2005C267.04 25.2005 268.203 26.5325 268.203 28.4278ZM263.259 28.5351C263.259 29.8939 263.992 31.1187 265.288 31.1187C266.584 31.1187 267.326 29.9207 267.326 28.4367C267.326 27.1672 266.665 25.8441 265.297 25.8441C263.929 25.8441 263.259 27.1315 263.259 28.5261V28.5351ZM272.61 31.673V25.3077H273.504L275.542 28.5351C275.969 29.2007 276.351 29.8935 276.687 30.6091C276.615 29.7151 276.588 28.9821 276.588 27.9897V25.3077H277.366V31.6819H276.535L274.514 28.4457C274.075 27.761 273.678 27.0505 273.325 26.318C273.37 27.1226 273.388 27.8824 273.388 28.9463V31.6283L272.61 31.673Z" fill="#231F20"/>
</svg>
