<svg width="213" height="56" viewBox="0 0 213 56" fill="none" xmlns="http://www.w3.org/2000/svg">
<path d="M8.13179 39.6806C7.89482 39.5436 7.70068 39.2081 7.70068 38.9357V16.6284C7.70068 16.3555 7.89482 16.0205 8.13179 15.8833L27.6985 4.73307C27.9357 4.59614 28.3238 4.59614 28.561 4.73307L48.1265 15.8845C48.3637 16.0215 48.5576 16.3565 48.5576 16.6294V38.9367C48.5576 39.2089 48.3637 39.5441 48.1265 39.6816L28.561 50.832C28.3238 50.969 27.9357 50.969 27.6985 50.832L8.13179 39.6806ZM66.9365 18.8485V27.8964H70.8055C73.6135 27.8964 74.8615 26.7525 74.8615 24.8805V21.8645C74.8615 19.9927 73.6135 18.8485 70.8055 18.8485H66.9365ZM66.9365 30.7738V38.851C66.9365 39.3361 66.8117 39.5441 66.3749 39.5441H64.4715C64.0659 39.5441 63.9099 39.3361 63.9099 38.851V16.6648C63.9099 16.1794 64.0659 15.9712 64.4715 15.9712H70.8055C76.1721 15.9712 77.8881 18.4672 77.8881 21.3098V25.4354C77.8881 28.2778 76.1721 30.7738 70.8055 30.7738H66.9365ZM84.9294 18.8485V27.3418H88.7981C91.6064 27.3418 92.8546 26.2325 92.8546 24.3258V21.8645C92.8546 19.9927 91.6064 18.8485 88.7981 18.8485H84.9294ZM84.9294 30.2191V38.851C84.9294 39.3361 84.8043 39.5441 84.3675 39.5441H82.4643C82.0587 39.5441 81.9027 39.3361 81.9027 38.851V16.6648C81.9027 16.1794 82.0587 15.9712 82.4643 15.9712H88.7981C94.165 15.9712 95.881 18.4672 95.881 21.3098V24.9151C95.881 27.0298 94.9138 28.9364 92.2304 29.7687L95.9746 38.851C96.1306 39.267 95.8498 39.5441 95.413 39.5441H93.5408C93.104 39.5441 93.0416 39.267 92.8546 38.851L89.3285 30.2191H84.9294ZM112.283 21.5872C112.283 19.7152 110.966 18.5712 108.002 18.5712C105.071 18.5712 103.754 19.7152 103.754 21.5872V33.9282C103.754 35.8004 105.071 36.9441 108.002 36.9441C110.966 36.9441 112.283 35.8004 112.283 33.9282V21.5872ZM100.527 21.0325C100.527 18.1898 102.371 15.6941 108.002 15.6941C113.667 15.6941 115.511 18.1898 115.511 21.0325V34.4831C115.511 37.3257 113.667 39.8217 108.002 39.8217C102.371 39.8217 100.527 37.3257 100.527 34.4831V21.0325ZM132.899 15.9712C133.327 15.9712 133.525 16.1448 133.525 16.6299V18.1898C133.525 18.6752 133.327 18.8485 132.899 18.8485H127.63V38.851C127.63 39.3361 127.466 39.5441 127.037 39.5441H124.996C124.567 39.5441 124.403 39.3361 124.403 38.851V18.8485H119.134C118.673 18.8485 118.508 18.6752 118.508 18.1898V16.6299C118.508 16.1448 118.673 15.9712 119.134 15.9712H132.899ZM148.247 21.5872C148.247 19.7152 146.929 18.5712 143.966 18.5712C141.035 18.5712 139.717 19.7152 139.717 21.5872V33.9282C139.717 35.8004 141.035 36.9441 143.966 36.9441C146.929 36.9441 148.247 35.8004 148.247 33.9282V21.5872ZM136.49 21.0325C136.49 18.1898 138.334 15.6941 143.966 15.6941C149.63 15.6941 151.474 18.1898 151.474 21.0325V34.4831C151.474 37.3257 149.63 39.8217 143.966 39.8217C138.334 39.8217 136.49 37.3257 136.49 34.4831V21.0325ZM170.536 38.8855C170.536 39.3361 170.412 39.5441 169.975 39.5441H168.259C167.947 39.5441 167.822 39.4401 167.697 39.2321L160.365 24.95C159.678 23.6671 159.304 22.5925 159.241 22.4538V38.8855C159.241 39.3361 159.085 39.5441 158.68 39.5441H156.933C156.527 39.5441 156.371 39.3361 156.371 38.8855V16.6299C156.371 16.1794 156.527 15.9712 156.933 15.9712H158.68C158.929 15.9712 159.085 16.0752 159.179 16.2485L166.699 30.8431C167.135 31.6751 167.666 33.0615 167.666 33.0615V16.6299C167.666 16.1794 167.853 15.9712 168.259 15.9712H169.975C170.412 15.9712 170.536 16.1794 170.536 16.6299V38.8855ZM175.902 39.5441C175.496 39.5441 175.34 39.3361 175.34 38.851V16.6648C175.34 16.1794 175.496 15.9712 175.902 15.9712H186.573C186.978 15.9712 187.166 16.1448 187.166 16.6299V18.1898C187.166 18.6752 186.978 18.8485 186.573 18.8485H178.367V25.8511H186.011C186.448 25.8511 186.635 26.0245 186.635 26.5098V28.0004C186.635 28.4511 186.448 28.6591 186.011 28.6591H178.367V36.6671H186.916C187.322 36.6671 187.509 36.8057 187.509 37.2908V38.8855C187.509 39.371 187.322 39.5441 186.916 39.5441H175.902ZM204.706 15.9712C205.112 15.9712 205.299 16.1448 205.299 16.6299V18.1898C205.299 18.6752 205.112 18.8485 204.706 18.8485H199.714V38.851C199.714 39.3361 199.558 39.5441 199.153 39.5441H197.218C196.813 39.5441 196.657 39.3361 196.657 38.851V18.8485H191.664C191.228 18.8485 191.071 18.6752 191.071 18.1898V16.6299C191.071 16.1448 191.228 15.9712 191.664 15.9712H204.706Z" fill="#E15B29"/>
</svg>
