<svg width="199" height="60" viewBox="0 0 199 60" fill="none" xmlns="http://www.w3.org/2000/svg">
<path d="M53.9606 4.97501V6.50578H55.4914V4.97501H53.9606ZM53.9606 8.03655V9.56731H55.4914V8.03655H53.9606ZM49.3683 9.56731V11.0981H50.8991V9.56731H49.3683ZM29.3397 10.7144C17.1854 10.7144 7.33544 20.5644 7.33544 32.7187C7.33544 44.873 17.1854 54.725 29.3397 54.725C41.494 54.725 51.344 44.875 51.344 32.7187C51.344 20.5623 41.494 10.7144 29.3418 10.7144H29.3397ZM29.3397 17.7314C37.61 17.7314 44.329 24.4484 44.329 32.7187C44.329 40.9889 37.61 47.708 29.3397 47.708C21.0695 47.708 14.4158 40.9889 14.4158 32.7187C14.4158 24.4484 21.0695 17.7314 29.3397 17.7314Z" fill="#FDB511"/>
<path d="M64.1147 44.3627C60.9511 44.3627 58.2978 43.5769 56.1547 42.0053L58.206 38.6376C59.9204 39.8419 61.8594 40.444 64.0229 40.444C65.0842 40.444 65.921 40.2399 66.5334 39.8316C67.1457 39.403 67.4518 38.8111 67.4518 38.056C67.4518 37.8519 67.4314 37.6682 67.3906 37.5049C67.3488 37.3396 67.2761 37.1838 67.1763 37.0456C67.0742 36.8824 66.9722 36.7497 66.8701 36.6476C66.7305 36.4964 66.5645 36.3719 66.3803 36.2803C66.1762 36.1578 65.9925 36.0557 65.8292 35.9741C65.3362 35.7375 64.8241 35.5429 64.2984 35.3924C64.0943 35.3108 63.778 35.1985 63.3494 35.0556C62.9207 34.9128 62.5636 34.7903 62.2778 34.6883C61.6146 34.4627 60.9698 34.1863 60.349 33.8616C59.774 33.5238 59.2309 33.1344 58.7264 32.6983C58.1754 32.2084 57.7569 31.5961 57.4712 30.8613C57.1855 30.1062 57.0426 29.2489 57.0426 28.2896C57.0426 26.3507 57.7161 24.8505 59.0632 23.7892C60.4103 22.7074 62.186 22.1666 64.3903 22.1666C67.0436 22.1666 69.1969 22.6564 70.8501 23.6361L69.2887 27.1569C67.8094 26.4387 66.1877 26.0621 64.5434 26.0547C62.4207 26.0547 61.3594 26.7487 61.3594 28.1366C61.3594 28.4631 61.4206 28.7489 61.543 28.9938C61.6655 29.2387 61.7982 29.4428 61.941 29.6061C62.0839 29.7694 62.339 29.9327 62.7064 30.096C63.0942 30.2592 63.4106 30.3817 63.6555 30.4633L64.9414 30.8613L65.5537 31.045C66.268 31.2695 66.8803 31.4839 67.3906 31.688C67.9008 31.8921 68.4621 32.188 69.0744 32.5758C69.6867 32.9432 70.1868 33.3616 70.5746 33.831C70.9624 34.3005 71.2889 34.8924 71.5543 35.6067C71.8196 36.3211 71.9523 37.1171 71.9523 37.9947C71.9523 39.9133 71.2685 41.4543 69.901 42.6177C68.554 43.781 66.6252 44.3627 64.1147 44.3627ZM79.5082 44.7913L73.7218 28.2284H78.5285L81.4982 39.801L84.0086 28.2284H88.5091L83.7637 44.2709C82.6615 47.9855 80.3654 49.8429 76.8752 49.8429C76.0588 49.8429 75.1914 49.751 74.2729 49.5673L74.7628 46.3221C75.5792 46.4037 76.0996 46.4446 76.3242 46.4446C77.161 46.4446 77.8141 46.3119 78.2835 46.0466C78.753 45.8017 79.1612 45.3832 79.5082 44.7913ZM103.688 30.3103C105.219 28.6774 106.852 27.861 108.587 27.861C110.199 27.861 111.332 28.4121 111.985 29.5143C112.658 30.6164 112.995 31.9941 112.995 33.6473V44.0566H108.342V33.5861C108.342 32.3207 107.852 31.688 106.872 31.688C106.097 31.688 105.229 32.1166 104.27 32.9738V44.0566H99.6163V33.5861C99.6163 32.3207 99.1265 31.688 98.1468 31.688C97.2488 31.688 96.3813 32.137 95.5445 33.035V44.0566H90.891V28.2284H93.7688L94.6873 30.647C96.2997 28.7897 98.0243 27.861 99.8613 27.861C101.698 27.861 102.974 28.6774 103.688 30.3103ZM124.619 33.9229V33.5249C124.619 32.8105 124.456 32.2901 124.129 31.9635C123.823 31.6369 123.282 31.4736 122.506 31.4736C121.302 31.4736 119.822 31.8819 118.067 32.6983L116.475 29.6367C118.516 28.4529 120.659 27.861 122.904 27.861C125.007 27.861 126.588 28.3815 127.65 29.4224C128.732 30.4429 129.272 31.9023 129.272 33.8004V44.0566H126.395C125.864 42.934 125.588 42.3727 125.568 42.3727C124.119 43.6994 122.568 44.3627 120.914 44.3627C119.506 44.3627 118.322 43.9545 117.363 43.1381C116.424 42.3013 115.955 41.1685 115.955 39.7398C115.955 38.0662 116.496 36.8415 117.577 36.066C118.843 35.1271 121.19 34.4127 124.619 33.9229ZM124.619 40.1378V36.8007C122.598 37.2089 121.374 37.658 120.945 38.1478C120.659 38.454 120.516 38.8724 120.516 39.403C120.516 40.5256 121.057 41.0869 122.139 41.0869C123.037 41.0869 123.864 40.7705 124.619 40.1378ZM132.987 44.0566V28.2284H135.865L136.783 30.647C138.396 28.7897 140.161 27.861 142.08 27.861C145.101 27.861 146.611 29.7898 146.611 33.6473V44.0566H141.957V33.5861C141.957 32.3207 141.427 31.688 140.365 31.688C139.386 31.688 138.477 32.137 137.641 33.035V44.0566H132.987ZM151.428 31.4124H149.101V28.2284H151.489L152.285 23.728H156.081V28.2284H159.449V31.4124H156.081V39.0356C156.081 39.7296 156.194 40.2092 156.418 40.4746C156.643 40.7399 157.102 40.8726 157.796 40.8726C158.184 40.8726 158.724 40.7705 159.418 40.5664L159.969 43.781C158.806 44.1688 157.622 44.3627 156.418 44.3627C153.091 44.3627 151.428 42.6687 151.428 39.2806V31.4124ZM166.684 37.5049C166.787 38.5866 167.082 39.3826 167.572 39.8929C168.083 40.4031 168.838 40.6583 169.838 40.6583C170.389 40.6583 170.94 40.5766 171.491 40.4133C172.063 40.2501 172.481 40.097 172.746 39.9541C173.032 39.8112 173.45 39.5867 174.002 39.2806L175.838 42.2197C175.206 42.6891 174.665 43.0565 174.216 43.3218C173.767 43.5667 173.124 43.8014 172.287 44.026C171.45 44.2505 170.522 44.3627 169.501 44.3627C167.174 44.3627 165.317 43.6484 163.929 42.2197C162.562 40.7705 161.878 38.8009 161.878 36.3109C161.878 33.8208 162.531 31.79 163.837 30.2184C165.143 28.6468 166.94 27.861 169.226 27.861C171.573 27.861 173.328 28.6468 174.491 30.2184C175.655 31.79 176.236 33.8106 176.236 36.2803V37.5049H166.684ZM166.684 34.7801H171.491C171.491 32.3921 170.726 31.1981 169.195 31.1981C168.46 31.1981 167.889 31.4839 167.48 32.0553C167.072 32.6064 166.807 33.5147 166.684 34.7801ZM186.184 44.3627C183.654 44.3627 181.745 43.6178 180.459 42.1278C179.194 40.6174 178.561 38.6479 178.561 36.219C178.561 33.7902 179.225 31.79 180.551 30.2184C181.878 28.6468 183.756 27.861 186.184 27.861C188.328 27.861 190.073 28.4529 191.42 29.6367L189.246 32.7289C188.695 32.3207 188.215 32.0451 187.807 31.9023C187.399 31.739 186.868 31.6573 186.215 31.6573C184.317 31.6573 183.368 33.1575 183.368 36.1578C183.368 39.0969 184.337 40.5664 186.276 40.5664C187.317 40.5664 188.368 40.148 189.43 39.3112L191.665 42.189C190.215 43.6382 188.389 44.3627 186.184 44.3627ZM35.5914 21.8135C31.5951 26.8058 30.5888 28.9979 28.9968 33.0371C27.1905 29.3836 25.0352 26.863 21.3022 25.1934C20.596 25.0118 20.249 24.9077 19.7714 25.5751C19.2938 26.2425 19.5857 26.8446 20.1551 27.5528C21.6492 29.4102 23.3289 31.1246 24.4923 33.2289C25.8577 35.6965 27.5559 39.7602 28.1274 40.8195C28.5825 41.6604 29.6847 42.0319 30.1072 42.0319C32.3645 41.7645 32.3645 40.6154 32.7952 38.6254C33.4932 35.3618 34.3974 31.988 38.6529 27.9345V21.8114L35.5914 21.8135Z" fill="black"/>
<path d="M52.4299 6.50577V8.03654H53.9606V6.50577H52.4299ZM52.4299 8.03654H49.3683V9.56731H52.4299V8.03654ZM49.3683 9.56731H47.8375V12.6288H49.3683V9.56731ZM49.3683 12.6288V14.1596H50.8991V12.6288H49.3683ZM50.8991 12.6288H52.4299V11.0981H50.8991V12.6288ZM49.3683 14.1596H47.8375V15.6904H46.3068V14.1596H43.2452V15.6904H41.7145V17.2212H43.2452V18.7519H41.7145V17.2212H40.1837V18.7519H38.6529V20.2827H37.1222V26.4058H40.1837V24.875H41.7145V23.3442H43.2452V21.8135H41.7145V20.2827H43.2452V21.8135H44.776V20.2827H46.3068V18.7519H47.8375V17.2212H49.3683V14.1596ZM46.3068 14.1596H47.8375V12.6288H46.3068V14.1596ZM46.3068 12.6288V11.0981H44.776V12.6288H46.3068Z" fill="black"/>
</svg>
