<svg  viewBox="20 16 50 50" fill="none" xmlns="http://www.w3.org/2000/svg"><defs>
<linearGradient id="paint0_linear_0_444" x1="20.129" y1="50.0217" x2="61.7516" y2="50.0217" gradientUnits="userSpaceOnUse">
<stop stop-color="#8930FD"/>
<stop offset="1" stop-color="#49CCF9"/>
</linearGradient>
<linearGradient id="paint1_linear_0_444" x1="21.0352" y1="32.7691" x2="60.9158" y2="32.7691" gradientUnits="userSpaceOnUse">
<stop stop-color="#FF02F0"/>
<stop offset="1" stop-color="#FFC800"/>
</linearGradient>
<linearGradient id="paint2_linear_0_444" x1="101.061" y1="49.6738" x2="120.434" y2="49.6738" gradientUnits="userSpaceOnUse">
<stop stop-color="#8930FD"/>
<stop offset="1" stop-color="#49CCF9"/>
</linearGradient>
<linearGradient id="paint3_linear_0_444" x1="101.482" y1="36.8052" x2="120.045" y2="36.8052" gradientUnits="userSpaceOnUse">
<stop stop-color="#FF02F0"/>
<stop offset="1" stop-color="#FFC800"/>
</linearGradient>
<clipPath id="clip0_0_444">
<rect width="41.9355" height="50" fill="white" transform="translate(20 16)"/>
</clipPath>
<clipPath id="clip1_0_444">
<rect width="100" height="24.3243" fill="white" transform="translate(101 29)"/>
</clipPath>
</defs><g clip-path="url(#clip0_0_444)">
<path d="M20.129 54.4259L27.8097 48.542C31.8903 53.8678 36.2258 56.3226 41.0516 56.3226C45.8516 56.3226 50.0645 53.8968 53.9613 48.613L61.7516 54.3549C56.1291 61.9743 49.1419 66.0001 41.0516 66.0001C32.9871 66.0001 25.9323 62.0001 20.129 54.4259Z" fill="url(#paint0_linear_0_444)"/>
<path d="M41.0255 28.8518L27.3545 40.6324L21.0352 33.3034L41.0545 16.0518L60.9158 33.3163L54.5674 40.6195L41.0255 28.8518Z" fill="url(#paint1_linear_0_444)"/>
</g></svg>