<svg width="222" height="54" viewBox="0 0 222 54" fill="none" xmlns="http://www.w3.org/2000/svg">
<path d="M117.308 7.04171C118.038 7.03872 118.763 7.14216 119.463 7.34883C120.115 7.5424 120.719 7.87093 121.235 8.31307C121.775 8.79477 122.197 9.39367 122.469 10.0638C122.796 10.8967 122.952 11.7872 122.927 12.6818C122.918 13.2742 122.862 13.865 122.76 14.4487C122.647 15.149 122.496 15.9085 122.302 16.7381C122.108 17.5676 121.882 18.4565 121.618 19.3938C121.354 20.3311 121.079 21.2846 120.772 22.2596C121.874 22.1842 123.117 22.1087 124.5 22.0333L128.664 21.8125C129.206 20.0169 129.809 18.1656 130.474 16.2586C131.138 14.3517 131.836 12.4735 132.569 10.624C132.78 10.0714 133.111 9.57273 133.539 9.16419C133.926 8.80819 134.435 8.61523 134.961 8.62551C135.181 8.62571 135.401 8.65653 135.613 8.71709C135.81 8.78133 135.993 8.88383 136.151 9.01875C136.317 9.15576 136.447 9.33152 136.528 9.5305C136.623 9.76277 136.669 10.0122 136.663 10.2631C136.663 10.5491 136.649 10.835 136.62 11.1196C136.581 11.4885 136.494 11.8507 136.361 12.197C136.114 12.8596 135.823 13.5706 135.575 14.3248C135.327 15.0789 135.036 15.8546 134.729 16.6573C134.422 17.4599 134.164 18.2733 133.878 19.1029C133.593 19.9325 133.339 20.7728 133.065 21.597L134.832 21.4731L135.974 21.3869H136.588C136.85 21.3795 137.111 21.4122 137.363 21.4839C137.54 21.535 137.701 21.6294 137.832 21.7586C137.944 21.8745 138.024 22.0174 138.064 22.1734C138.108 22.3495 138.129 22.5305 138.128 22.7121C138.131 22.9017 138.081 23.0882 137.983 23.2508C137.891 23.3965 137.768 23.5198 137.622 23.6117C137.481 23.7016 137.326 23.7671 137.164 23.8056C137.015 23.8405 136.864 23.8639 136.712 23.8756L136.07 23.951L135.796 23.9834H135.236L134.498 24.048L133.366 24.1611L132.3 24.285C131.941 25.6066 131.641 26.8348 131.4 27.9696C131.192 28.9459 131.079 29.9398 131.061 30.9378C131.027 31.5437 131.189 32.1444 131.524 32.6508C131.897 33.092 132.463 33.3216 133.038 33.2649C133.371 33.2513 133.699 33.1726 134.002 33.0332C134.456 32.8352 134.887 32.5897 135.289 32.3006C135.852 31.9045 136.392 31.4764 136.905 31.0186C137.498 30.4907 138.159 29.864 138.888 29.1386C138.92 29.2032 138.985 29.354 139.082 29.5857C139.134 29.711 139.19 29.8504 139.254 30.0177C139.382 29.3518 139.529 28.6693 139.69 27.9696C139.911 27.0108 140.154 26.0573 140.407 25.1038C140.66 24.1504 140.881 23.2723 141.075 22.4697C141.15 22.192 141.306 21.9428 141.522 21.7532C141.749 21.5522 142.007 21.3902 142.287 21.2738C142.571 21.1508 142.867 21.0587 143.17 20.9991C143.444 20.944 143.721 20.9152 144 20.9129C144.326 20.8748 144.654 20.9635 144.916 21.1607C145.083 21.3416 145.17 21.5824 145.158 21.8286C145.141 22.1729 145.087 22.5142 144.996 22.8467C144.889 23.2885 144.754 23.7948 144.592 24.3551C144.431 24.9153 144.258 25.524 144.081 26.1704C143.903 26.8168 143.725 27.4686 143.542 28.1151C143.359 28.7615 143.251 29.3971 143.143 30.0112C143.042 30.5605 142.988 31.1173 142.982 31.6758C142.967 32.0648 143.022 32.4533 143.143 32.8232C143.237 33.1004 143.509 33.2766 143.801 33.2487C144.257 33.2297 144.701 33.0924 145.088 32.8501C145.59 32.5636 146.069 32.2395 146.521 31.8805C147.006 31.5034 147.474 31.1101 147.938 30.7007C148.397 30.2945 148.799 29.9519 149.147 29.6625C149.153 29.6176 149.159 29.5721 149.166 29.5264C149.29 28.6484 149.446 27.7972 149.629 26.9731C149.81 26.1743 150.048 25.3895 150.34 24.6244C150.594 23.93 150.958 23.2807 151.418 22.7013C151.86 22.1595 152.41 21.7155 153.034 21.3977C153.735 21.0594 154.507 20.895 155.285 20.9183C155.906 20.9129 156.523 21.0019 157.117 21.1822C157.672 21.3529 158.182 21.6456 158.609 22.0387C159.058 22.4674 159.404 22.9923 159.622 23.574C159.889 24.3125 160.015 25.0945 159.993 25.8795C159.995 26.5959 159.886 27.3082 159.67 27.9912C159.445 28.6934 159.107 29.354 158.668 29.9466C158.173 30.6051 157.589 31.1923 156.934 31.6919C156.161 32.2718 155.322 32.7582 154.434 33.141L154.574 33.4965C155.569 33.5057 156.562 33.3972 157.532 33.1733C158.273 33.003 158.995 32.7546 159.684 32.4324C159.679 32.3689 159.678 32.3052 159.681 32.2414C159.68 31.9912 159.747 31.7455 159.875 31.5303C160 31.316 160.152 31.1186 160.327 30.9432C160.486 30.7791 160.657 30.6278 160.839 30.4907C161.012 30.3452 161.141 30.2644 161.227 30.1674C161.825 29.6288 162.304 29.2248 162.687 28.88C163.069 28.5352 163.382 28.2228 163.651 27.9427C163.911 27.6687 164.155 27.381 164.384 27.0808C164.599 26.7899 164.863 26.4505 165.159 26.0519L166.237 24.5975C166.668 24.0265 167.224 23.3082 167.907 22.4427C168.051 22.2535 168.208 22.0736 168.375 21.904C168.549 21.7224 168.74 21.5582 168.946 21.4138C169.161 21.2696 169.393 21.152 169.636 21.0637C169.908 20.9699 170.194 20.9243 170.482 20.929C170.884 20.9104 171.285 20.9671 171.667 21.096C171.903 21.1781 172.114 21.319 172.281 21.5054C172.403 21.6494 172.481 21.825 172.507 22.0118C172.527 22.1636 172.538 22.3165 172.539 22.4697C172.522 22.7772 172.415 23.073 172.232 23.3208C172.025 23.6333 171.8 23.9337 171.559 24.2204C171.311 24.5113 171.08 24.7591 170.859 25.0176C170.697 25.1695 170.569 25.3528 170.482 25.5563C170.479 25.8594 170.502 26.1622 170.552 26.4613C170.599 26.7327 170.664 27.0008 170.746 27.2639C170.826 27.5279 170.907 27.8026 170.993 28.0989C171.08 28.3952 171.16 28.7346 171.241 29.1224C171.33 29.562 171.395 30.0062 171.435 30.4529C171.484 30.9593 171.51 31.5303 171.51 32.236C171.908 31.9745 172.324 31.7422 172.755 31.5411L174.145 30.8893C174.624 30.663 175.12 30.4152 175.631 30.1405C175.892 29.998 176.147 29.8468 176.396 29.6871L176.456 30.1028C176.235 28.6283 176.131 27.1388 176.143 25.6479C176.143 25.0087 176.17 24.3245 176.224 23.5955C176.278 22.8629 176.353 22.1411 176.445 21.4408C176.127 21.3977 175.879 21.36 175.701 21.3223L175.136 21.2091C174.936 21.1714 174.689 21.1283 174.382 21.0853C174.075 21.0422 173.633 20.9883 173.056 20.929C172.848 20.909 172.646 20.8447 172.464 20.7405C172.335 20.6612 172.23 20.5498 172.157 20.4173C172.093 20.2992 172.054 20.1689 172.044 20.0348V19.6901C172.043 19.4797 172.165 19.2882 172.356 19.1999C172.609 19.0745 172.88 18.9908 173.159 18.9521C173.515 18.895 173.875 18.8644 174.236 18.8605H176.326C176.522 18.8781 176.718 18.8781 176.913 18.8605C177.19 17.44 177.55 16.037 177.991 14.6588C178.39 13.413 178.891 12.2023 179.488 11.0388C179.954 10.104 180.563 9.24786 181.293 8.50161C181.825 7.92247 182.565 7.57929 183.351 7.54808C183.8 7.54479 184.24 7.67818 184.611 7.93061C185.004 8.20209 185.336 8.55251 185.586 8.95949C185.867 9.42655 186.076 9.9332 186.206 10.4624C186.35 11.0495 186.422 11.6518 186.421 12.2562C186.416 12.8166 186.34 13.3741 186.195 13.9154C186.041 14.5303 185.843 15.1334 185.602 15.72C185.333 16.3484 185.029 16.9617 184.692 17.5569C184.347 18.1764 183.976 18.7958 183.615 19.4046C183.712 19.4046 183.873 19.4046 184.094 19.4315H184.875L185.834 19.4746L186.825 19.5123L187.725 19.5446L188.42 19.5769C188.623 19.5886 188.802 19.7136 188.883 19.9001C188.988 20.1428 189.038 20.4061 189.028 20.6705C189.042 21.0058 188.926 21.3334 188.705 21.5862C188.534 21.8021 188.275 21.9304 188 21.9364H181.81C181.498 22.3673 181.185 22.7875 180.867 23.2023C180.55 23.6171 180.259 23.9834 179.995 24.3173C179.952 24.9799 179.914 25.6317 179.882 26.2782C179.882 26.5529 179.882 26.8168 179.849 27.1347L179.817 28.0127C179.817 28.3036 179.817 28.5514 179.79 28.8477C179.763 29.1439 179.79 29.3864 179.79 29.5857C179.78 30.079 179.834 30.5716 179.952 31.0509C180.037 31.4026 180.195 31.7327 180.415 32.0205C180.612 32.2638 180.87 32.4498 181.164 32.5592C181.48 32.6722 181.814 32.7287 182.149 32.7262C182.438 32.7147 182.723 32.6603 182.995 32.5646C183.374 32.4414 183.745 32.2938 184.105 32.1229C184.503 31.9343 184.929 31.7135 185.371 31.4549C185.812 31.1963 186.26 30.9162 186.691 30.6146C187.114 30.3182 187.527 29.9959 187.914 29.668C187.913 29.653 187.913 29.6382 187.913 29.6234C187.917 28.9856 187.976 28.3493 188.091 27.7218C188.21 27.0495 188.39 26.3896 188.63 25.7502C188.871 25.109 189.176 24.4936 189.54 23.9133C189.891 23.3405 190.321 22.82 190.817 22.3673C191.292 21.9205 191.838 21.5563 192.433 21.2899C193.07 21.0186 193.756 20.8829 194.448 20.8913C195.019 20.886 195.587 20.9846 196.123 21.1822C196.618 21.3651 197.073 21.6412 197.464 21.9956C197.845 22.3489 198.148 22.7784 198.353 23.2561C198.575 23.7789 198.685 24.3422 198.676 24.9099C198.667 25.603 198.5 26.2849 198.186 26.903C197.836 27.5975 197.378 28.2321 196.829 28.783C196.214 29.3991 195.518 29.9284 194.76 30.356C193.947 30.827 193.076 31.1892 192.169 31.4334C192.305 31.6877 192.464 31.9293 192.643 32.1552C192.777 32.3293 192.937 32.4819 193.117 32.6077C193.271 32.7125 193.443 32.7891 193.623 32.8339C193.81 32.8785 194.002 32.9002 194.194 32.8986C194.889 32.8893 195.576 32.758 196.225 32.5107C196.945 32.2503 197.641 31.9277 198.305 31.5465C198.971 31.1717 199.61 30.7505 200.217 30.286C200.648 29.9648 201.062 29.6227 201.46 29.261L201.45 29.3271C201.537 28.6322 201.65 27.9211 201.774 27.1724C201.898 26.4236 202.027 25.761 202.167 25.1092C202.307 24.4574 202.447 23.8541 202.587 23.31C202.698 22.8513 202.836 22.3998 203.002 21.9579C203.071 21.7709 203.158 21.5906 203.26 21.4192C203.335 21.2904 203.436 21.1785 203.557 21.0906C203.682 21.0049 203.826 20.9496 203.977 20.929C204.397 20.8787 204.822 20.8787 205.243 20.929C205.379 20.9436 205.504 21.0138 205.588 21.123C205.674 21.2545 205.722 21.4074 205.728 21.5647V23.8002C205.728 24.3604 205.738 24.9153 205.76 25.4647H205.938L206.66 24.0265C206.924 23.5031 207.236 23.0054 207.591 22.5397C207.932 22.0922 208.339 21.6997 208.798 21.3761C209.254 21.0578 209.799 20.8918 210.355 20.9021C210.559 20.901 210.761 20.9357 210.953 21.0044C211.139 21.0696 211.311 21.1702 211.459 21.3007C211.606 21.4327 211.724 21.5942 211.804 21.7748C211.893 21.9748 211.937 22.1917 211.933 22.4104C211.926 22.6671 211.899 22.9228 211.852 23.1753C211.799 23.4986 211.739 23.8433 211.675 24.2042C211.61 24.5651 211.551 24.9099 211.497 25.2439C211.448 25.5233 211.421 25.8061 211.416 26.0896C211.409 26.4147 211.447 26.7393 211.529 27.0539C211.587 27.2775 211.688 27.4879 211.826 27.6733C211.935 27.8174 212.08 27.9306 212.246 28.0019C212.401 28.0667 212.568 28.0996 212.736 28.0989C213.25 28.092 213.757 27.9821 214.228 27.7757C214.719 27.5743 215.193 27.3328 215.645 27.0539C216.161 26.7289 216.654 26.3689 217.121 25.9765L216.878 29.7473C216.604 29.9304 216.286 30.1351 215.936 30.356C215.57 30.5903 215.19 30.8026 214.799 30.9916C214.397 31.1918 213.979 31.3593 213.549 31.4926C213.118 31.6257 212.67 31.6929 212.219 31.6919C211.538 31.7251 210.863 31.5544 210.279 31.2017C209.786 30.8782 209.382 30.4354 209.105 29.9143C208.803 29.3552 208.585 28.7543 208.459 28.1312C208.324 27.474 208.211 26.8061 208.125 26.1327H207.866L204.99 34.1483C204.867 34.5023 204.725 34.8493 204.564 35.188C204.453 35.4252 204.316 35.6492 204.155 35.8559C204.034 36.0096 203.879 36.1331 203.702 36.2169C203.532 36.2894 203.348 36.3243 203.163 36.3192C202.784 36.341 202.407 36.243 202.086 36.0391C201.816 35.8476 201.602 35.5872 201.467 35.2849C201.317 34.9426 201.22 34.5792 201.181 34.2076C201.162 33.9692 201.15 33.7302 201.147 33.4912C201.038 33.5731 200.927 33.6539 200.815 33.7335C200.352 34.0567 199.856 34.3692 199.328 34.6816C198.791 34.997 198.231 35.2725 197.653 35.5058C197.065 35.7505 196.458 35.9451 195.837 36.0876C195.222 36.2411 194.591 36.3242 193.957 36.3354C193.047 36.3566 192.143 36.1725 191.312 35.7967C190.584 35.4508 189.94 34.9487 189.427 34.3261C189.093 33.9123 188.813 33.4589 188.593 32.977C187.731 33.477 186.953 33.9236 186.26 34.3099C185.457 34.757 184.741 35.1341 184.105 35.4358C183.565 35.6998 183.007 35.9249 182.435 36.1091C182.007 36.2496 181.56 36.3259 181.11 36.3354C180.328 36.3467 179.566 36.0858 178.955 35.5974C178.272 35.0231 177.736 34.2935 177.393 33.4696C177.297 33.2436 177.207 33.0152 177.124 32.7846L177.167 32.7531C176.443 33.3028 175.672 33.786 174.861 34.1968C173.972 34.6555 173.052 35.0533 172.108 35.3873C171.172 35.7225 170.212 35.9907 169.237 36.1899C168.319 36.3791 167.384 36.4783 166.447 36.4862C165.853 36.4901 165.261 36.4305 164.68 36.3084C164.173 36.2121 163.687 36.03 163.242 35.7698C162.834 35.5259 162.49 35.1879 162.24 34.784C162.199 34.7175 162.162 34.6497 162.126 34.5808C161.709 34.8843 161.268 35.1538 160.807 35.3873C160.223 35.682 159.611 35.9184 158.981 36.093C158.367 36.2664 157.733 36.3552 157.095 36.3569C157.001 36.3548 156.907 36.3439 156.815 36.3246L156.25 36.1899L155.054 35.9744C154.515 35.8829 153.825 35.7751 152.937 35.6459V35.9314C152.954 37.7139 152.789 39.4935 152.446 41.2428C152.184 42.6611 151.742 44.0404 151.132 45.3475C150.683 46.3238 150.042 47.1996 149.247 47.9224C148.651 48.4873 147.869 48.8133 147.049 48.8382C146.503 48.8585 145.966 48.6996 145.519 48.3857C145.097 48.0712 144.764 47.6539 144.549 47.1737C144.283 46.6092 144.101 46.0083 144.011 45.3906C143.907 44.6771 143.857 43.9569 143.86 43.2359C143.868 42.7335 143.939 42.2341 144.07 41.7491C144.213 41.1601 144.393 40.5808 144.609 40.0146C144.846 39.4059 145.11 38.7918 145.406 38.1669C145.702 37.542 146.004 36.9279 146.311 36.3408C146.682 35.6339 147.083 34.9151 147.515 34.1844L147.717 34.046C147.126 34.4594 146.507 34.8302 145.864 35.1557C145.218 35.4866 144.548 35.7693 143.86 36.0014C143.224 36.2134 142.559 36.326 141.888 36.3354C141.409 36.3493 140.932 36.2706 140.482 36.1037C140.122 35.9683 139.801 35.7441 139.55 35.4519C139.304 35.1569 139.131 34.8082 139.044 34.4338C138.96 34.0925 138.91 33.744 138.893 33.3932C138.501 33.7561 138.094 34.1049 137.676 34.4392C136.93 35.0382 136.14 35.5785 135.311 36.0553C134.614 36.4569 133.878 36.7855 133.113 37.0357C132.487 37.2435 131.833 37.3543 131.174 37.3643C130.528 37.3704 129.888 37.242 129.294 36.9872C128.721 36.741 128.208 36.3735 127.791 35.9098C127.348 35.3855 127.008 34.7824 126.789 34.1322C126.531 33.3579 126.408 32.5455 126.423 31.7296C126.427 31.3366 126.458 30.9443 126.514 30.5553C126.579 30.0866 126.676 29.548 126.8 28.9392C126.924 28.3305 127.069 27.6841 127.247 26.9731C127.425 26.262 127.619 25.5078 127.834 24.7106L123.702 25.1308L119.77 25.5025C119.468 26.4038 119.17 27.2837 118.876 28.142C118.579 29.0039 118.299 29.8173 118.025 30.5715C117.75 31.3256 117.486 32.0151 117.27 32.6454L116.683 34.2614C116.317 35.1498 115.798 35.9667 115.148 36.6747C114.803 37.067 114.325 37.3183 113.807 37.3804C113.55 37.3809 113.295 37.3371 113.053 37.2511C112.812 37.1682 112.588 37.0442 112.39 36.8848C112.198 36.7251 112.042 36.5269 111.932 36.303C111.817 36.0684 111.76 35.81 111.765 35.5489C111.765 35.3798 111.786 35.2114 111.83 35.0479C112.282 33.4103 112.772 31.8284 113.3 30.3021C113.828 28.7759 114.367 27.2891 114.916 25.8418C114.348 25.8447 113.78 25.7996 113.22 25.7072C112.698 25.622 112.192 25.4624 111.717 25.2331C111.252 25.0029 110.835 24.6867 110.488 24.3012C110.1 23.8561 109.796 23.3429 109.594 22.7875C109.551 22.5989 109.519 22.4266 109.492 22.2488C109.464 22.1013 109.45 21.9517 109.449 21.8017C109.449 21.3277 109.616 21.0906 109.95 21.0906C110.206 21.1161 110.445 21.2327 110.623 21.4192C110.969 21.7514 111.286 22.1117 111.571 22.4966C112.078 22.4966 112.579 22.4589 113.085 22.4481C113.591 22.4373 114.125 22.4481 114.701 22.4481H116.242C116.629 21.4534 116.989 20.4909 117.319 19.5608C117.649 18.6306 117.973 17.7239 118.289 16.8404C118.469 16.2824 118.614 15.714 118.725 15.1382C118.824 14.6051 118.877 14.0644 118.881 13.5221C118.887 13.1349 118.849 12.7482 118.768 12.3694C118.729 12.0289 118.615 11.7013 118.434 11.4105C118.265 11.1665 118.04 10.9669 117.777 10.8287C117.466 10.6801 117.124 10.608 116.78 10.6186C116.402 10.6265 116.025 10.6808 115.66 10.7802C115.175 10.9157 114.705 11.096 114.254 11.3189C113.676 11.5991 113.116 11.9157 112.579 12.267C111.896 12.7165 111.238 13.202 110.607 13.7215C110.402 13.9 110.171 14.047 109.923 14.1578C109.745 14.2375 109.552 14.2814 109.357 14.2871C109.271 14.2871 109.206 14.1416 109.163 13.8561C109.116 13.5081 109.094 13.157 109.099 12.8057C109.093 12.2426 109.228 11.687 109.492 11.1896C109.772 10.6705 110.136 10.201 110.569 9.79984C111.03 9.36615 111.535 8.98327 112.078 8.65783C112.641 8.31536 113.232 8.01988 113.844 7.77439C114.432 7.54431 115.037 7.36411 115.654 7.23571C116.197 7.11293 116.752 7.04792 117.308 7.04171ZM95.3999 4.43994C96.3777 4.44412 97.3383 4.69816 98.1903 5.17794C99.1673 5.75197 99.9871 6.55883 100.577 7.5266C101.36 8.8104 101.925 10.2159 102.247 11.6852C102.713 13.6985 102.939 15.7598 102.92 17.8262C102.92 19.5716 102.859 21.2289 102.737 22.7983C102.615 24.3676 102.435 25.8706 102.198 27.307C102.85 27.7111 103.512 28.1097 104.186 28.4921C104.859 28.8746 105.533 29.2678 106.217 29.6503L106.755 29.9574C106.965 30.0759 107.165 30.1998 107.364 30.3344C107.544 30.4543 107.714 30.5895 107.87 30.7385C107.986 30.8256 108.062 30.9557 108.081 31.0994C108.074 31.2163 108.027 31.3271 107.946 31.4118C107.848 31.5194 107.74 31.6169 107.623 31.7027C107.504 31.7876 107.38 31.865 107.251 31.9343L106.971 32.0798C106.75 32.1831 106.508 32.2312 106.265 32.2198C105.549 32.1926 104.84 32.0749 104.154 31.8697C103.252 31.6106 102.369 31.294 101.509 30.9216C101.077 32.7744 100.51 34.5928 99.8117 36.3623C99.2117 37.8912 98.4912 39.37 97.657 40.7849C96.942 42.0012 96.1103 43.145 95.1737 44.2001C94.3797 45.0992 93.4911 45.9101 92.5234 46.6188C91.6971 47.2244 90.7906 47.7121 89.8299 48.0679C89.0147 48.3736 88.1526 48.5358 87.282 48.5473C86.4669 48.5454 85.6626 48.3614 84.9279 48.0086C84.1886 47.6506 83.543 47.1249 83.0425 46.4734C82.4666 45.7156 82.0373 44.857 81.7766 43.9416C81.4501 42.8071 81.2886 41.6314 81.2972 40.4509C81.3109 38.9376 81.5917 37.4386 82.1268 36.0229C82.6942 34.488 83.4876 33.0464 84.4808 31.7458C85.5281 30.3759 86.7672 29.164 88.16 28.1474C89.6164 27.0841 91.2406 26.272 92.9651 25.7449C92.069 25.0199 91.2164 24.2429 90.4117 23.4177C89.6502 22.6455 88.9563 21.8092 88.3378 20.9183C87.7758 20.1189 87.3094 19.2565 86.948 18.3487C86.6178 17.5283 86.446 16.6528 86.4416 15.7684C86.4357 14.718 86.5569 13.6708 86.8025 12.6495C87.0293 11.7023 87.3637 10.7842 87.7991 9.91296C88.2054 9.09673 88.7102 8.3333 89.302 7.63972C89.8499 6.98735 90.4759 6.4048 91.1659 5.90516C91.8034 5.44769 92.5038 5.08481 93.2452 4.82779C93.9359 4.57611 94.6648 4.44492 95.3999 4.43994ZM149.274 36.0337C149.05 36.4317 148.852 36.8438 148.681 37.2673C148.487 37.7306 148.308 38.2154 148.142 38.7217C147.975 39.2227 147.819 39.7237 147.679 40.23C147.539 40.7364 147.421 41.1997 147.318 41.636C147.216 42.0723 147.135 42.444 147.076 42.7619C147.018 42.9791 146.979 43.2007 146.957 43.4244C146.963 43.564 146.981 43.7028 147.011 43.8392C147.052 44.0373 147.113 44.2305 147.194 44.4156C147.276 44.6133 147.391 44.7955 147.534 44.9543C147.67 45.1071 147.868 45.1902 148.072 45.1805C148.263 45.1683 148.434 45.0555 148.519 44.8843C148.656 44.6347 148.754 44.3659 148.81 44.087C148.891 43.7161 148.945 43.3399 148.972 42.9612C149.004 42.5464 149.026 42.1154 149.047 41.6737C149.069 41.232 149.085 40.8064 149.09 40.3917C149.096 39.9769 149.09 39.5998 149.128 39.2658C149.16 38.6894 149.187 38.1884 149.204 37.7952C149.22 37.402 149.231 37.0572 149.241 36.7933C149.252 36.5293 149.241 36.2546 149.274 36.0337ZM96.8651 28.5083C95.7733 28.7226 94.72 29.1003 93.7408 29.6288C92.7537 30.1548 91.8271 30.787 90.9773 31.5142C90.1296 32.235 89.3571 33.04 88.6718 33.9167C88.011 34.747 87.4217 35.6318 86.9103 36.5616C86.4464 37.3916 86.0691 38.267 85.7844 39.1742C85.5461 39.9199 85.4208 40.697 85.4127 41.4798C85.3522 42.3544 85.5751 43.2252 86.0484 43.9631C86.4326 44.5076 87.0629 44.8248 87.7291 44.8089C88.6035 44.7458 89.4388 44.4211 90.1262 43.8769C91.1864 43.082 92.0982 42.1064 92.8196 40.995C93.8464 39.4349 94.7041 37.77 95.3784 36.0283C96.2903 33.7147 96.9863 31.3218 97.4577 28.88L96.8651 28.5083ZM167.411 28.142L163.607 31.8962L163.631 32.3808C163.658 32.4055 163.683 32.4327 163.705 32.4622C163.861 32.6238 164.044 32.8016 164.244 33.0009C164.462 33.2044 164.7 33.3849 164.955 33.5396C165.231 33.7043 165.549 33.7883 165.87 33.782C166.227 33.7943 166.581 33.7223 166.905 33.5719C167.163 33.4489 167.387 33.2638 167.557 33.0332C167.723 32.7916 167.839 32.5185 167.896 32.2306C167.957 31.9146 167.988 31.5936 167.987 31.2717C167.988 30.9764 167.97 30.6814 167.934 30.3883C167.898 30.0902 167.849 29.8047 167.788 29.5318C167.729 29.2571 167.664 28.9931 167.594 28.7615C167.524 28.5299 167.465 28.3144 167.411 28.142ZM155.528 23.8972C155.153 23.8909 154.786 24.0062 154.483 24.2258C154.163 24.4667 153.897 24.7712 153.702 25.12C153.464 25.5395 153.282 25.9887 153.163 26.4559C153.01 26.9993 152.892 27.5516 152.807 28.1097C152.716 28.6968 152.651 29.3109 152.613 29.9466C152.576 30.5822 152.549 31.2233 152.549 31.8805C153.143 31.5899 153.701 31.2281 154.208 30.8031C154.658 30.4271 155.063 30.0006 155.415 29.5318C155.747 29.0915 156.027 28.6143 156.25 28.1097C156.462 27.6312 156.633 27.1357 156.761 26.6283C156.821 26.3572 156.857 26.0814 156.869 25.8041C156.887 25.5027 156.854 25.2004 156.772 24.9099C156.695 24.6394 156.55 24.3929 156.352 24.1935C156.128 23.9886 155.831 23.8819 155.528 23.8972ZM192.81 24.9153C192.582 25.195 192.4 25.5096 192.271 25.8472C192.138 26.1875 192.035 26.5391 191.964 26.8976C191.9 27.2377 191.855 27.5813 191.83 27.9265C191.807 28.2174 191.803 28.4648 191.803 28.6788L191.803 28.7938C192.239 28.7837 192.668 28.6828 193.063 28.4975C193.519 28.2995 193.946 28.0423 194.334 27.7326C194.709 27.4435 195.041 27.1025 195.32 26.7199C195.57 26.4153 195.712 26.0364 195.724 25.6425C195.741 25.2312 195.65 24.8226 195.46 24.4574C195.349 24.1906 195.097 24.0092 194.809 23.9888C194.033 23.9622 193.291 24.3062 192.81 24.9153ZM95.7555 7.83365C95.3365 7.83879 94.9241 7.93821 94.5488 8.12453C94.1186 8.33389 93.7197 8.60222 93.3637 8.92178C92.9633 9.27524 92.6021 9.67075 92.2863 10.1015C91.9415 10.5502 91.6419 11.032 91.3921 11.5398C91.1414 12.0437 90.9394 12.5704 90.7888 13.1127C90.6369 13.6417 90.5589 14.1892 90.5571 14.7396C90.5539 15.6192 90.7375 16.4896 91.0958 17.2929C91.5125 18.1978 92.0468 19.0436 92.685 19.8086C93.4192 20.6968 94.2264 21.5221 95.0983 22.2757C96.0284 23.0909 97.0555 23.8954 98.1795 24.689C98.3627 23.1987 98.5081 21.6311 98.6159 19.9863C98.7236 18.3416 98.7775 16.5926 98.7775 14.7396C98.7927 13.6661 98.7116 12.5934 98.5351 11.5344C98.4199 10.7891 98.2005 10.0638 97.8833 9.37967C97.6743 8.90508 97.3412 8.49566 96.919 8.19456C96.575 7.96256 96.1703 7.83703 95.7555 7.83365ZM183.038 11.1412C182.764 11.1412 182.5 11.389 182.198 11.8792C181.864 12.4811 181.59 13.1144 181.379 13.7699C181.113 14.5349 180.867 15.377 180.641 16.2964C180.415 17.2157 180.203 18.1135 180.005 18.9898L180.485 19.0436L180.986 19.0975C181.304 18.5588 181.638 17.9609 181.988 17.3252C182.338 16.6896 182.65 16.0593 182.931 15.4452C183.211 14.8311 183.437 14.2547 183.62 13.7161C183.772 13.292 183.856 12.8465 183.868 12.3963C183.875 12.2635 183.875 12.1304 183.868 11.9977C183.853 11.8571 183.818 11.7193 183.766 11.5883C183.71 11.4624 183.623 11.3529 183.512 11.2704C183.373 11.1756 183.206 11.1301 183.038 11.1412ZM145.142 13.7107C145.505 13.7067 145.867 13.7501 146.219 13.84C146.532 13.9156 146.828 14.049 147.092 14.2332C147.341 14.4148 147.541 14.6554 147.674 14.9335C147.827 15.2543 147.903 15.6068 147.895 15.9624C147.897 16.329 147.837 16.6933 147.717 17.0397C147.603 17.3793 147.42 17.6912 147.178 17.9555C146.901 18.2354 146.569 18.4554 146.203 18.6019C145.756 18.7799 145.278 18.866 144.797 18.8551C144.04 18.9162 143.289 18.6762 142.707 18.1871C142.221 17.7189 141.955 17.0677 141.974 16.3933C141.982 16.108 142.037 15.826 142.136 15.5584C142.255 15.2344 142.439 14.9376 142.675 14.6857C142.943 14.3885 143.272 14.1517 143.639 13.9908C144.114 13.7908 144.627 13.6953 145.142 13.7107Z" fill="#343333"/>
<path d="M42.5228 24.9741C42.5228 24.9741 10.5519 6.42181 7.78846 17.9604C5.02502 29.499 1.91682 38.2688 10.4334 39.8902C18.95 41.5116 42.5228 24.9741 42.5228 24.9741Z" fill="#3474AB"/>
<path d="M36.996 22.1836C46.1536 17.4432 64.2964 9.31988 66.3704 17.9227C69.1607 29.499 72.2959 38.3064 63.7901 39.9602C57.8215 41.1183 44.3975 33.2913 36.9529 28.5401C36.9421 22.9162 37.0067 27.7267 36.996 22.1836Z" fill="#4289C7"/>
</svg>
