<svg width="222" height="54" viewBox="0 0 222 54" fill="none" xmlns="http://www.w3.org/2000/svg">
<path d="M5.64301 32.7215V13.1586C5.64301 12.5387 6.12519 12.0565 6.74514 12.0565H12.5313C13.1513 12.0565 13.6335 12.5387 13.6335 13.1586V32.5148C13.6335 38.3699 16.5955 41.4696 21.4173 41.4696C26.2391 41.4696 29.2011 38.5077 29.2011 32.7903V13.1586C29.2011 12.5387 29.6833 12.0565 30.3032 12.0565H36.0894C36.7094 12.0565 37.1916 12.5387 37.1916 13.1586V32.4459C37.1916 43.3984 31.0609 48.7713 21.3484 48.7713C11.567 48.7713 5.64301 43.3295 5.64301 32.7215ZM46.0775 13.1586C46.0775 12.5387 46.5597 12.0565 47.1796 12.0565H60.8874C69.4978 12.0565 74.733 17.1538 74.733 24.5244V24.6621C74.733 32.997 68.2579 37.3366 60.1297 37.3366H54.068V47.1181C54.068 47.738 53.5858 48.2202 52.9658 48.2202H47.1796C46.5597 48.2202 46.0775 47.738 46.0775 47.1181V13.1586ZM60.2675 30.3106C64.2627 30.3106 66.5358 27.9685 66.5358 24.8688V24.7999C66.5358 21.218 64.056 19.3581 60.0608 19.3581H54.9635C54.3435 19.3581 53.8613 19.8403 53.8613 20.4602V29.3462C53.8613 29.9661 54.3435 30.4483 54.9635 30.4483H60.2675V30.3106ZM80.037 30.2417V30.1039C80.037 19.8403 87.7519 11.4365 98.911 11.4365C105.248 11.4365 108.624 13.503 112.068 16.0517C112.55 16.3961 112.619 17.085 112.274 17.5671L109.037 22.1823C108.692 22.6645 108.004 22.7334 107.521 22.4579C104.766 20.598 102.08 18.807 98.7732 18.807C92.7115 18.807 88.303 23.8355 88.303 30.035V30.3106C88.303 36.51 93.3315 41.8141 99.531 41.5385C102.906 41.4008 105.11 40.3675 107.384 38.1632C107.797 37.7499 108.417 37.7499 108.83 38.0944L112.688 41.4696C113.101 41.8829 113.17 42.5718 112.757 42.9851C109.45 46.7048 105.042 48.8402 98.4977 48.8402C87.9586 48.8402 80.037 40.5742 80.037 30.2417ZM154.775 41.8141L158.564 38.2321C158.977 37.8188 159.666 37.8877 160.079 38.2321C162.835 40.8497 166.003 41.6763 169.792 41.6763C173.029 41.6763 175.027 40.3675 175.027 38.301V38.1632C175.027 36.1656 173.787 35.1324 167.725 33.5481C160.424 31.6882 155.74 29.6906 155.74 22.5267V22.389C155.74 15.8451 160.975 11.5054 168.414 11.5054C173.305 11.5054 177.507 12.952 181.02 15.4318C181.502 15.7762 181.571 16.465 181.295 16.9472L178.333 21.218C177.989 21.7001 177.369 21.769 176.887 21.4935C173.994 19.6336 171.17 18.5315 168.345 18.5315C165.315 18.5315 163.73 19.9092 163.73 21.7001V21.8379C163.73 24.1799 165.246 25.0065 171.514 26.5909C178.816 28.5196 182.949 31.1371 182.949 37.4055V37.5433C182.949 44.7072 177.507 48.7713 169.654 48.7713C164.557 48.7713 158.633 47.3247 154.844 43.4673C154.293 42.9162 154.293 42.2274 154.775 41.8141ZM188.804 13.1586C188.804 12.5387 189.286 12.0565 189.906 12.0565H214.979C215.599 12.0565 216.082 12.5387 216.082 13.1586V18.0493C216.082 18.6693 215.599 19.1515 214.979 19.1515H197.759C197.139 19.1515 196.656 19.6336 196.656 20.2536V25.4198C196.656 26.0398 197.139 26.522 197.759 26.522H212.637C213.257 26.522 213.739 27.0042 213.739 27.6241V32.5148C213.739 33.1348 213.257 33.6169 212.637 33.6169H197.759C197.139 33.6169 196.656 34.0991 196.656 34.7191V40.1609C196.656 40.7808 197.139 41.263 197.759 41.263H215.255C215.875 41.263 216.357 41.7452 216.357 42.3651V47.2558C216.357 47.8758 215.875 48.358 215.255 48.358H189.906C189.286 48.358 188.804 47.8758 188.804 47.2558V13.1586Z" fill="#5F5F5F"/>
<path d="M132.206 5.15372C128.218 10.9305 116.87 27.6418 113.226 33.3498C112.744 34.0375 112.95 35.0003 113.569 35.5504C114.463 36.2381 115.701 37.2009 116.595 37.9574C117.283 38.4388 118.177 38.4388 118.865 37.8886C125.398 32.2494 126.705 31.2179 130.693 27.573C132.275 26.1288 134.682 26.1288 136.264 27.573C141.49 32.2494 143.829 34.0375 148.161 37.9574C148.78 38.5076 149.743 38.5763 150.362 38.0262C151.325 37.2697 152.631 36.3069 153.525 35.6192C154.213 35.069 154.351 34.175 153.869 33.4185C150.155 27.6418 138.877 10.9992 134.888 5.22249C134.338 4.19093 132.894 4.19093 132.206 5.15372Z" fill="url(#paint0_linear_0_10218)"/>
<defs>
<linearGradient id="paint0_linear_0_10218" x1="133.605" y1="4.40826" x2="133.605" y2="32.9922" gradientUnits="userSpaceOnUse">
<stop stop-color="#487BF6"/>
<stop offset="1" stop-color="#0093CB"/>
</linearGradient>
</defs>
</svg>
