<svg  viewBox="20 16 50 50" fill="none" xmlns="http://www.w3.org/2000/svg"><defs>
<clipPath id="clip0_0_730">
<rect width="50" height="53.5714" fill="white" transform="translate(20 14)"/>
</clipPath>
<clipPath id="clip1_0_730">
<rect width="127" height="30" fill="white" transform="translate(96 26)"/>
</clipPath>
</defs><g clip-path="url(#clip0_0_730)">
<path d="M48.7637 14.9832L65.9831 24.6461C68.386 25.9944 69.8719 28.5234 69.8719 31.2647V50.3068C69.8719 53.048 68.386 55.577 65.9831 56.9254L48.7637 66.5882C46.4276 67.8991 43.5712 67.8991 41.2349 66.5882L24.0156 56.9254C21.6128 55.577 20.127 53.048 20.127 50.3068V31.2647C20.127 28.5234 21.6128 25.9944 24.0156 24.6461L41.2349 14.9832C43.5712 13.6723 46.4276 13.6723 48.7637 14.9832ZM22.9969 31.3418V50.3068C22.9969 52.0086 23.9209 53.5814 25.4201 54.4227L42.3949 63.9482C42.6148 64.0334 42.849 64.0775 43.0862 64.0775C44.1428 64.0775 44.9994 63.2209 44.9994 62.1643V46.8354C44.9994 44.3371 43.6089 42.0466 41.3924 40.8941L40.1289 40.2371C39.8308 40.1102 39.5365 39.9713 39.2469 39.82L22.9969 31.3418ZM40.7994 38.1238C43.8494 39.715 46.1576 39.715 49.2076 38.1238L65.693 28.8689C65.2871 27.9394 64.583 27.1462 63.6619 26.6293L47.3594 17.4859C45.8956 16.6646 44.1031 16.6646 42.6394 17.4859L26.3679 26.6293C25.4467 27.1462 24.7427 27.9394 24.3368 28.8689L40.7994 38.1238ZM44.9994 20.6964C48.5867 20.6964 51.5153 22.4595 51.6878 24.6749L51.6958 28.4691C51.6958 30.7805 48.6978 32.6543 44.9994 32.6543C41.301 32.6543 38.303 30.7805 38.303 28.4691V24.6749C38.4835 22.4595 41.4121 20.6964 44.9994 20.6964ZM45.0001 27.3929C48.1067 27.3929 50.6251 26.1337 50.6251 24.5804C50.6251 23.0271 48.1067 21.7679 45.0001 21.7679C41.8935 21.7679 39.3751 23.0271 39.3751 24.5804C39.3751 26.1337 41.8935 27.3929 45.0001 27.3929Z" fill="#5A45FF"/>
</g><g clip-path="url(#clip1_0_730)">
<path d="M112.109 26.5506L121.752 31.9618C123.097 32.7169 123.929 34.1331 123.929 35.6682V46.3318C123.929 47.8669 123.097 49.2831 121.752 50.0382L112.109 55.4494C110.801 56.1835 109.201 56.1835 107.893 55.4494L98.2499 50.0382C96.9043 49.2831 96.0723 47.8669 96.0723 46.3318V35.6682C96.0723 34.1331 96.9043 32.7169 98.2499 31.9618L107.893 26.5506C109.201 25.8165 110.801 25.8165 112.109 26.5506ZM97.6794 35.7114V46.3318C97.6794 47.2848 98.1969 48.1656 99.0364 48.6367L108.542 53.971C108.665 54.0187 108.797 54.0434 108.929 54.0434C109.521 54.0434 110.001 53.5637 110.001 52.972V44.3878C110.001 42.9888 109.222 41.7061 107.981 41.0607L107.273 40.6928C107.106 40.6217 106.942 40.5439 106.779 40.4592L97.6794 35.7114ZM107.649 39.5093C109.357 40.4004 110.649 40.4004 112.357 39.5093L121.589 34.3266C121.362 33.806 120.968 33.3619 120.452 33.0724L111.322 27.9521C110.503 27.4921 109.499 27.4921 108.679 27.9521L99.5672 33.0724C99.0513 33.3619 98.6571 33.806 98.4298 34.3266L107.649 39.5093ZM110.001 29.75C112.01 29.75 113.65 30.7373 113.746 31.9779L113.751 34.1027C113.751 35.3971 112.072 36.4464 110.001 36.4464C107.93 36.4464 106.251 35.3971 106.251 34.1027V31.9779C106.352 30.7373 107.992 29.75 110.001 29.75ZM110.001 33.5C111.741 33.5 113.151 32.7949 113.151 31.925C113.151 31.0552 111.741 30.35 110.001 30.35C108.262 30.35 106.851 31.0552 106.851 31.925C106.851 32.7949 108.262 33.5 110.001 33.5Z" fill="#5A45FF"/>
<path fill-rule="evenodd" clip-rule="evenodd" d="M138.702 41.8052C138.702 43.0068 139.011 43.9724 139.629 44.7019C140.247 45.4315 141.062 45.7962 142.075 45.7962C143.053 45.7962 143.851 45.4272 144.469 44.6891C145.087 43.9509 145.396 42.9811 145.396 41.7795C145.396 40.595 145.096 39.6509 144.495 38.9471C143.894 38.2433 143.096 37.8914 142.1 37.8914C141.105 37.8914 140.29 38.2476 139.654 38.96C139.019 39.6724 138.702 40.6208 138.702 41.8052ZM148.28 29.4716V48.1136H146.593C146.146 48.1136 145.737 47.8629 145.534 47.4648C145.425 47.2513 145.371 47.0437 145.371 46.842C145.024 47.2382 144.748 47.5709 144.096 47.9314C143.444 48.2919 142.581 48.4226 141.74 48.4226C139.955 48.4226 138.504 47.7961 137.388 46.543C136.273 45.2898 135.715 43.7106 135.715 41.8052C135.715 39.9685 136.277 38.415 137.401 37.1447C138.526 35.8744 139.955 35.2393 141.689 35.2393C142.684 35.2393 143.487 35.4195 144.096 35.78C144.705 36.1405 145.13 36.5611 145.371 37.0417V29.4716H148.28ZM158.938 35.4195V38.4579H158.554C156.305 38.4579 155.181 39.6852 155.181 42.1399V48.1136H152.194V35.574H154.131C154.475 35.574 154.779 35.7955 154.885 36.1225L155.181 37.0378C155.323 36.7407 155.72 36.0811 156.413 35.7503C157.106 35.4195 157.91 35.4195 158.734 35.4195H158.938ZM160.612 44.7148C160.612 43.6505 160.959 42.7965 161.655 42.1528C162.35 41.5091 163.264 41.1014 164.397 40.9298L167.615 40.4405C168.233 40.3547 168.542 40.0543 168.542 39.5393C168.542 38.9729 168.345 38.5137 167.95 38.1618C167.555 37.8099 166.963 37.6339 166.173 37.6339C165.418 37.6339 164.817 37.8442 164.371 38.2648C163.925 38.6853 163.667 39.2303 163.599 39.8998L160.907 39.8741C161.027 38.7411 161.53 37.1833 162.491 36.3851C163.453 35.5869 164.671 35.1878 166.148 35.1878C167.967 35.1878 169.31 35.6255 170.177 36.501C171.044 37.3764 171.478 38.5008 171.478 39.8741V46.1052C171.478 46.9292 171.529 47.5986 171.632 48.1136H170.026C169.856 48.1136 169.688 48.0824 169.529 48.0217C168.997 47.8174 168.73 47.4849 168.73 47.0243C168.136 48.0146 166.611 48.4998 164.86 48.4998C163.59 48.4998 162.564 48.1265 161.783 47.3798C161.002 46.6331 160.612 45.7447 160.612 44.7148ZM165.427 46.1567C166.354 46.1567 167.105 45.9035 167.68 45.3971C168.255 44.8907 168.542 44.0625 168.542 42.9124V42.3459L165.272 42.8352C164.156 43.024 163.599 43.5904 163.599 44.5346C163.599 44.9809 163.762 45.3628 164.088 45.6804C164.414 45.9979 164.86 46.1567 165.427 46.1567ZM180.644 32.4169C180.146 32.4169 179.713 32.5585 179.344 32.8417C178.975 33.1249 178.79 33.6184 178.79 34.3222V35.574H181.7V38.1747H178.79V48.1136H175.778V38.1747H173.589V35.574H174.449C175.183 35.574 175.778 34.979 175.778 34.245C175.778 32.8546 176.181 31.756 176.988 30.9492C177.795 30.1424 178.85 29.739 180.155 29.739H181.7V32.4169H180.644ZM188.727 31.789V35.6255H191.328V38.2776H188.727V44.0968C188.727 44.6461 188.856 45.0452 189.113 45.2941C189.371 45.543 189.774 45.6675 190.324 45.6675H190.734V48.3196H189.525C188.358 48.3196 187.44 47.9892 186.77 47.3283C186.101 46.6674 185.766 45.7533 185.766 44.5861V38.2776H183.449V35.6255H184.093C184.728 35.6255 185.208 35.4453 185.534 35.0848C185.861 34.7243 186.024 34.2523 186.024 33.6686V31.789H188.727ZM193.748 29.4122H196.657V37.0853C196.898 36.6046 197.397 36.2098 198.006 35.8493C198.616 35.4889 199.585 35.2551 200.581 35.2551C202.315 35.2551 203.7 35.815 204.825 37.0853C205.949 38.3556 206.325 39.9546 206.325 41.7913C206.325 43.6968 205.953 45.2304 204.837 46.4835C203.722 47.7366 202.168 48.4266 200.383 48.4266C199.542 48.4266 198.782 48.2325 198.13 47.872C197.478 47.5115 197.004 47.1787 196.657 46.7826C196.657 46.9843 196.603 47.1919 196.494 47.4054C196.291 47.8035 195.883 48.0542 195.436 48.0542H193.748V29.4122ZM202.393 44.7148C203.028 43.9938 203.346 43.024 203.346 41.8052C203.346 40.5864 203.037 39.6295 202.419 38.9342C201.801 38.239 200.986 37.8914 199.973 37.8914C198.994 37.8914 198.188 38.239 197.553 38.9342C196.917 39.6295 196.6 40.5864 196.6 41.8052C196.6 43.0068 196.917 43.9681 197.553 44.6891C198.188 45.41 198.994 45.7705 199.973 45.7705C200.969 45.7705 201.775 45.4186 202.393 44.7148ZM209.242 38.5232H208.008V35.5522H210.979V35.574H212.204V48.1136H209.242V38.5232ZM209.345 32.5357C208.968 32.158 208.779 31.7032 208.779 31.171C208.779 30.6389 208.968 30.1797 209.345 29.7935C209.723 29.4072 210.178 29.2141 210.71 29.2141C211.259 29.2141 211.723 29.4029 212.101 29.7806C212.478 30.1582 212.667 30.6217 212.667 31.171C212.667 31.7032 212.478 32.158 212.101 32.5357C211.723 32.9133 211.259 33.1022 210.71 33.1022C210.178 33.1022 209.723 32.9133 209.345 32.5357ZM219.851 31.7375V35.574H222.451V38.2261H219.851V44.0453C219.851 44.5946 219.98 44.9937 220.237 45.2426C220.495 45.4916 220.898 45.616 221.447 45.616H221.857V48.2681H220.649C219.482 48.2681 218.563 47.9377 217.894 47.2768C217.224 46.6159 216.89 45.7018 216.89 44.5346V38.2261H214.572V35.574H215.216C215.851 35.574 216.332 35.3938 216.658 35.0333C216.984 34.6728 217.147 34.2008 217.147 33.6171V31.7375H219.851Z" fill="#16192F"/>
</g></svg>