<svg width="184" height="65" viewBox="0 0 184 65" fill="none" xmlns="http://www.w3.org/2000/svg">
<path fill-rule="evenodd" clip-rule="evenodd" d="M25.5761 8.9115H11.9801C11.0495 8.9115 10.2583 9.58761 10.1132 10.5064L4.61428 45.3703C4.50491 46.0579 5.03782 46.6783 5.73551 46.6783H12.2265C13.1569 46.6783 13.948 46.0025 14.0932 45.0821L15.5763 35.6788C15.7195 34.7581 16.5126 34.0821 17.441 34.0821H21.7451C30.7012 34.0821 35.87 29.7482 37.2201 21.16C37.8283 17.4025 37.2458 14.4504 35.4864 12.3829C33.554 10.1123 30.1266 8.9115 25.5761 8.9115ZM27.1447 21.6451C26.4012 26.5238 22.6736 26.5238 19.0692 26.5238H17.0176L18.4569 17.4126C18.5425 16.8619 19.0195 16.4563 19.5762 16.4563H20.5165C22.9717 16.4563 25.2879 16.4563 26.4846 17.8558C27.1983 18.6909 27.4171 19.9313 27.1447 21.6451Z" fill="#283B82"/>
<path fill-rule="evenodd" clip-rule="evenodd" d="M66.2171 21.4882H59.7066C59.152 21.4882 58.6729 21.8938 58.5871 22.4445L58.2992 24.2655L57.8438 23.6054C56.4343 21.5597 53.291 20.8759 50.154 20.8759C42.9594 20.8759 36.8144 26.3251 35.6176 33.969C34.9954 37.782 35.8801 41.4281 38.043 43.9707C40.027 46.3086 42.8659 47.2827 46.2437 47.2827C52.0408 47.2827 55.2555 43.5554 55.2555 43.5554L54.9651 45.3644C54.8556 46.0563 55.3886 46.6765 56.0826 46.6765H61.9469C62.8793 46.6765 63.6666 46.0005 63.8138 45.0802L67.3325 22.7963C67.4441 22.1104 66.9132 21.4882 66.2171 21.4882ZM57.1419 34.1599C56.5139 37.8794 53.5615 40.3766 49.7964 40.3766C47.9058 40.3766 46.3947 39.7701 45.4245 38.621C44.4623 37.4799 44.0965 35.8557 44.4027 34.0465C44.9891 30.3587 47.9912 27.7804 51.6986 27.7804C53.5478 27.7804 55.0506 28.3946 56.0407 29.5535C57.0329 30.7244 57.4261 32.3587 57.1419 34.1599Z" fill="#283B82"/>
<path d="M94.3499 21.4882H100.892C101.809 21.4882 102.344 22.516 101.823 23.2676L80.062 54.6784C79.7103 55.1874 79.1296 55.4897 78.5095 55.4897H71.9749C71.054 55.4897 70.5173 54.4536 71.0503 53.7003L77.8255 44.1358L70.6189 22.9871C70.3704 22.2516 70.913 21.4882 71.6945 21.4882H78.1237C78.9587 21.4882 79.6962 22.0369 79.9368 22.8362L83.7615 35.6093L92.7853 22.3173C93.1391 21.7984 93.7256 21.4882 94.3499 21.4882Z" fill="#283B82"/>
<path d="M165.289 45.3708L170.869 9.8685C170.955 9.31808 171.432 8.912 171.986 8.91034H178.269C178.963 8.91034 179.495 9.53252 179.386 10.2207L173.883 45.0826C173.74 46.003 172.949 46.6788 172.016 46.6788H166.406C165.712 46.6788 165.18 46.0584 165.289 45.3708Z" fill="#469BDB"/>
<path fill-rule="evenodd" clip-rule="evenodd" d="M122.554 8.91199H108.956C108.028 8.91199 107.236 9.58811 107.091 10.5069L101.592 45.3708C101.483 46.0584 102.016 46.6788 102.71 46.6788H109.688C110.336 46.6788 110.891 46.2059 110.992 45.5617L112.552 35.6793C112.695 34.7586 113.489 34.0826 114.417 34.0826H118.719C127.677 34.0826 132.844 29.7487 134.196 21.1605C134.807 17.403 134.22 14.4509 132.46 12.3834C130.53 10.1128 127.105 8.91199 122.554 8.91199ZM124.123 21.6456C123.381 26.5242 119.654 26.5243 116.047 26.5243H113.998L115.439 17.4131C115.525 16.8624 115.997 16.4568 116.556 16.4568H117.496C119.95 16.4568 122.268 16.4568 123.464 17.8562C124.178 18.6913 124.395 19.9318 124.123 21.6456Z" fill="#469BDB"/>
<path fill-rule="evenodd" clip-rule="evenodd" d="M163.194 21.4887H156.687C156.128 21.4887 155.653 21.8943 155.569 22.445L155.281 24.266L154.824 23.6059C153.414 21.5602 150.273 20.8764 147.136 20.8764C139.941 20.8764 133.799 26.3256 132.601 33.9695C131.981 37.7825 132.862 41.4286 135.025 43.9712C137.013 46.3091 139.848 47.2832 143.226 47.2832C149.023 47.2832 152.237 43.5559 152.237 43.5559L151.947 45.3649C151.838 46.0568 152.37 46.677 153.068 46.677H158.931C159.859 46.677 160.651 46.001 160.796 45.0807L164.317 22.7968C164.424 22.1109 163.891 21.4887 163.194 21.4887ZM154.118 34.1604C153.494 37.8799 150.537 40.3771 146.772 40.3771C144.886 40.3771 143.371 39.7706 142.4 38.6215C141.439 37.4804 141.076 35.8562 141.379 34.047C141.969 30.3592 144.967 27.7809 148.675 27.7809C150.524 27.7809 152.027 28.3951 153.017 29.554C154.013 30.7249 154.406 32.3591 154.118 34.1604Z" fill="#469BDB"/>
</svg>
