<svg width="227" height="53" viewBox="0 0 227 53" fill="none" xmlns="http://www.w3.org/2000/svg">
<path d="M23.3754 4.36536L4.43811 15.3061L14.1794 20.9037L23.3754 15.5969V4.36536Z" fill="#4E8DCB"/>
<path d="M32.5713 31.4809L23.3752 36.7877L23.4116 48.0192L42.3125 37.1148V25.8833L32.5713 31.4809Z" fill="#1F6DAE"/>
<path d="M23.3752 4.36536V15.5969L32.5713 20.9037L42.2762 15.2697L23.3752 4.36536Z" fill="#1F6DAE"/>
<path d="M4.47437 37.1148L23.4116 48.0192L23.3753 36.7877L14.1793 31.5172L4.47437 37.1148Z" fill="#4E8DCB"/>
<path d="M4.47446 37.1148L14.1794 31.5173V20.9037L4.43811 15.3061L4.47446 37.1148Z" fill="#1F6DAE"/>
<path d="M23.3752 15.5969L32.5713 20.9037V31.5173L23.3752 26.2105V15.5969Z" fill="#888888"/>
<path d="M23.3753 15.5969L14.1793 20.9037V31.5173L23.3753 26.2105V15.5969Z" fill="#595757"/>
<path d="M68.6285 32.8985C66.6657 34.8249 64.1213 35.7336 61.4316 35.7336C54.4891 35.7336 51.3632 30.9357 51.3268 25.9197C51.2905 20.9036 54.5982 15.8876 61.4316 15.8876C64.0123 15.8876 66.4839 16.8327 68.4467 18.7955L66.4112 20.7583C65.03 19.4134 63.249 18.7955 61.4679 18.7955C56.5973 18.7955 54.3801 22.3939 54.4164 25.9197C54.4528 29.4091 56.5246 32.8985 61.4679 32.8985C63.249 32.8985 65.2117 32.1715 66.5566 30.8266L68.6285 32.8985Z" fill="#231815"/>
<path d="M79.86 24.6839L85.3122 16.2148H89.0197V16.3602L81.3866 27.519V35.3702H78.3334V27.519L70.9548 16.3602V16.2148H74.5896L79.86 24.6839Z" fill="#231815"/>
<path fill-rule="evenodd" clip-rule="evenodd" d="M108.32 21.667C108.32 17.8868 105.449 16.2148 101.814 16.2148H93.018V35.3702H101.814C105.594 35.3702 108.938 34.0616 108.938 29.8816C108.938 28.4277 107.957 26.1741 105.667 25.4835C107.484 24.7202 108.32 23.2663 108.32 21.667ZM101.851 24.1387H96.0712V18.9773H101.814C104.14 18.9773 105.304 20.3948 105.304 21.7397C105.304 23.23 104.14 24.1387 101.851 24.1387ZM101.814 32.4987H96.0349V26.8648H101.814C103.595 26.8648 105.849 27.8098 105.849 29.8453C105.849 31.9535 103.523 32.4987 101.814 32.4987Z" fill="#231815"/>
<path d="M128.13 35.3702H113.991V16.2148H128.057V19.1954H117.08V24.3567H127.621V27.2282H117.08V32.3533H128.13V35.3702Z" fill="#231815"/>
<path fill-rule="evenodd" clip-rule="evenodd" d="M146.377 35.3702H149.975L149.648 34.825L143.941 28.4641C147.722 27.9189 149.139 25.2291 149.139 22.503C149.139 19.268 146.813 16.2512 142.378 16.2512C140.888 16.2512 139.407 16.2421 137.926 16.233C136.445 16.2239 134.963 16.2148 133.473 16.2148V35.3702H136.526V28.7548H140.561L146.377 35.3702ZM136.526 25.9561V19.0136H142.378C144.886 19.0136 146.013 20.831 146.013 22.5394C146.013 24.3567 144.886 25.9561 142.342 25.9561H136.526Z" fill="#231815"/>
<path fill-rule="evenodd" clip-rule="evenodd" d="M220.89 16.033H221.108C221.217 16.033 221.254 15.9604 221.181 15.924C220.89 15.3788 220.599 15.0153 220.49 14.9426C220.963 14.9063 221.144 14.6155 221.144 14.252C221.144 13.8885 220.854 13.5614 220.308 13.5614H219.691C219.654 13.5614 219.582 13.5977 219.582 13.6704V15.924C219.582 15.9604 219.618 16.033 219.691 16.033H219.836C219.909 16.033 219.945 15.9967 219.945 15.924V14.979H220.018C220.09 14.979 220.127 15.0153 220.163 15.0517C220.298 15.1864 220.401 15.3523 220.56 15.6073L220.599 15.6696C220.672 15.8148 220.708 15.8877 220.781 15.9967C220.817 16.033 220.854 16.033 220.89 16.033ZM219.945 13.8522H220.199C220.563 13.8522 220.745 13.9612 220.745 14.252C220.745 14.5428 220.636 14.6518 220.199 14.6518H219.945V13.8522Z" fill="#1F6DAE"/>
<path fill-rule="evenodd" clip-rule="evenodd" d="M218.055 14.7972C218.055 16.1057 219.073 17.0508 220.308 17.0508C221.508 17.0508 222.526 16.0694 222.562 14.7972C222.562 13.4887 221.508 12.5436 220.308 12.5436C219.073 12.5436 218.055 13.525 218.055 14.7972ZM218.455 14.8336C218.455 13.7431 219.291 12.9071 220.308 12.9071C221.326 12.9071 222.162 13.7068 222.162 14.8336C222.162 15.924 221.326 16.76 220.308 16.76C219.254 16.76 218.455 15.924 218.455 14.8336Z" fill="#1F6DAE"/>
<path fill-rule="evenodd" clip-rule="evenodd" d="M158.735 32.2079H167.277L168.513 35.3702H174.328L165.75 16.2148H160.298L151.72 35.3702H157.463L158.735 32.2079ZM160.553 27.7008L163.024 21.5943L165.459 27.7008H160.553Z" fill="#1F6DAE"/>
<path fill-rule="evenodd" clip-rule="evenodd" d="M188.977 35.3702H194.974V35.043L189.994 28.5731C193.193 27.1555 194.029 25.1564 194.029 22.7938C194.029 19.3771 191.485 16.2148 186.578 16.2148H177.236V35.3702H182.652V29.1547H184.542L188.977 35.3702ZM182.652 25.1201V20.5402H186.578C187.995 20.5402 188.686 21.7033 188.686 22.9028C188.686 24.066 188.068 25.1201 186.65 25.1201H182.652Z" fill="#1F6DAE"/>
<path d="M215.692 16.5419L207.914 25.5926C210.603 28.5368 213.693 31.9898 216.346 35.043V35.3702H209.658L204.17 29.0093V35.3702H198.754V16.2148H204.17V22.503C205.805 20.4675 207.586 18.2503 209.186 16.2148H215.656V16.5419H215.692Z" fill="#1F6DAE"/>
</svg>
