<svg width="250" height="82" viewBox="0 0 250 82" fill="none" xmlns="http://www.w3.org/2000/svg">
<path d="M239.042 0V0.5H244C247.038 0.5 249.5 2.96243 249.5 6V10.667H250V15.333H249.5V24.667H250V29.333H249.5V38.667H250V43.333H249.5V52.667H250V57.333H249.5V66.667H250V71.333H249.5V76C249.5 79.0376 247.038 81.5 244 81.5H239.042V82H234.083V81.5H224.167V82H219.208V81.5H209.292V82H204.333V81.5H194.417V82H189.458V81.5H179.542V82H174.583V81.5H164.667V82H159.708V81.5H149.792V82H144.833V81.5H134.917V82H129.958V81.5H120.042V82H115.083V81.5H105.167V82H100.208V81.5H90.292V82H85.333V81.5H75.417V82H70.458V81.5H60.542V82H55.583V81.5H45.667V82H40.708V81.5H30.792V82H25.833V81.5H15.917V82H10.958V81.5H6C2.96243 81.5 0.5 79.0376 0.5 76V71.333H0V66.667H0.5V57.333H0V52.667H0.5V43.333H0V38.667H0.5V29.333H0V24.667H0.5V15.333H0V10.667H0.5V6C0.5 2.96243 2.96243 0.5 6 0.5H10.958V0H15.917V0.5H25.833V0H30.792V0.5H40.708V0H45.667V0.5H55.583V0H60.542V0.5H70.458V0H75.417V0.5H85.333V0H90.292V0.5H100.208V0H105.167V0.5H115.083V0H120.042V0.5H129.958V0H134.917V0.5H144.833V0H149.792V0.5H159.708V0H164.667V0.5H174.583V0H179.542V0.5H189.458V0H194.417V0.5H204.333V0H209.292V0.5H219.208V0H224.167V0.5H234.083V0H239.042Z" stroke="#722ED1" stroke-dasharray="10 5"/>
<g clip-path="url(#clip0_0_245)">
<path d="M65.1775 46.6804C64.1124 46.6804 63.284 45.852 63.1657 44.7869C62.4556 34.6094 56.8935 20.2602 46.5681 20.2602C38.0473 20.2602 31.6272 26.1774 27.4852 37.923C27.1302 38.9881 25.9468 39.5798 24.8817 39.1064C23.8166 38.7514 23.2249 37.5679 23.6982 36.6212C28.432 23.1005 36.1539 16.2366 46.5681 16.2366C60.2071 16.2366 66.4793 33.5443 67.1894 44.5502C67.3077 45.6153 66.4793 46.6804 65.2959 46.6804H65.1775Z" fill="#1D2D35"/>
<path opacity="0.4" d="M69.9109 50.5858L34.3487 65.2899L20.2363 31.1481L26.6268 28.5445L55.8872 16.5623L69.9109 50.5858Z" fill="#FFE000"/>
<path d="M68.2554 54.5205L30.563 62.3312L23.1074 26.1774L29.3796 24.8756L60.7997 18.3667L68.2554 54.5205Z" fill="#FFE000"/>
<path d="M46.0947 54.1656C39.2308 54.1656 32.574 51.207 27.9586 45.9999C27.3669 45.5265 27.2485 44.6981 27.4852 43.9881C28.787 40.5561 32.2189 32.5975 36.5976 32.4792C38.8461 32.4792 40.5029 34.2543 41.8047 35.6744C42.1598 36.1478 42.7515 36.7395 43.2248 37.0946C44.2899 36.0295 46.3018 32.7159 47.8402 29.2839C48.3136 28.2188 49.497 27.8638 50.5621 28.3372C51.6272 28.8105 51.9822 29.994 51.5089 31.0591C46.7751 41.3549 44.2899 41.3549 43.3432 41.3549C41.4497 41.3549 40.1479 39.9348 38.8461 38.5147C38.2544 37.923 37.071 36.6212 36.5976 36.6212C35.5325 36.7395 33.284 40.4082 31.7456 44.3135C35.6509 48.2189 40.9763 50.3491 46.4497 50.2307C51.1834 50.2307 59.6154 49.4023 63.0473 44.3135C62.1006 34.136 56.5385 20.3786 46.4497 20.3786C45.3846 20.3786 44.4379 19.4318 44.4379 18.3667C44.4379 17.3017 45.3846 16.2366 46.568 16.2366C60.2071 16.2366 66.4793 33.5443 67.1893 44.5502C67.1893 44.9052 67.071 45.3786 66.9527 45.7337C63.7574 51.1775 56.5385 54.2544 46.568 54.2544C46.4497 54.1656 46.213 54.1656 46.0947 54.1656Z" fill="#1D2D35"/>
</g>
<g clip-path="url(#clip1_0_245)">
<path d="M127.266 44.1333C126.666 44.1333 126.199 43.6667 126.133 43.0667C125.733 37.3333 122.599 29.2667 116.799 29.2667C111.999 29.2667 108.399 32.6 106.066 39.2C105.866 39.8 105.199 40.1333 104.599 39.8667C103.999 39.6667 103.666 39 103.933 38.4667C106.599 30.8667 110.933 27 116.799 27C124.466 27 127.999 36.7333 128.399 42.9333C128.466 43.5333 127.999 44.1333 127.333 44.1333H127.266Z" fill="#1D2D35"/>
<path opacity="0.4" d="M129.933 46.3333L109.933 54.5999L102 35.3999L105.6 33.9333L122.067 27.2L129.933 46.3333Z" fill="#FFE000"/>
<path d="M129 48.533L107.8 52.933L103.6 32.5997L107.133 31.8664L124.8 28.1997L129 48.533Z" fill="#FFE000"/>
<path d="M116.533 48.3333C112.666 48.3333 108.933 46.6667 106.333 43.7333C106 43.4667 105.933 43 106.066 42.6C106.8 40.6667 108.733 36.2 111.2 36.1333C112.466 36.1333 113.4 37.1333 114.133 37.9333C114.333 38.2 114.666 38.5333 114.933 38.7333C115.533 38.1333 116.666 36.2667 117.533 34.3333C117.8 33.7333 118.466 33.5333 119.066 33.8C119.666 34.0667 119.866 34.7333 119.6 35.3333C116.933 41.1333 115.533 41.1333 115 41.1333C113.933 41.1333 113.2 40.3333 112.466 39.5333C112.133 39.2 111.466 38.4667 111.2 38.4667C110.6 38.5333 109.333 40.6 108.466 42.8C110.666 45 113.666 46.2 116.733 46.1333C119.4 46.1333 124.133 45.6667 126.066 42.8C125.533 37.0667 122.4 29.3333 116.733 29.3333C116.133 29.3333 115.6 28.8 115.6 28.2C115.6 27.6 116.133 27 116.8 27C124.466 27 128 36.7333 128.4 42.9333C128.4 43.1333 128.333 43.4 128.266 43.6C126.466 46.6667 122.4 48.4 116.8 48.4C116.733 48.3333 116.6 48.3333 116.533 48.3333Z" fill="#1D2D35"/>
<path d="M133.199 32.6665H137.266C139.533 32.6665 140.733 33.5998 140.733 35.3332V35.3998C140.799 36.4665 140.066 37.3998 139.066 37.5998C140.333 37.7332 141.199 38.7998 141.133 40.0665V40.1332C141.133 42.0665 139.866 43.0665 137.466 43.0665H133.199V32.6665ZM136.866 36.9332C137.999 36.9332 138.466 36.5332 138.466 35.5998V35.5332C138.466 34.6665 137.999 34.2665 136.866 34.2665H135.466V36.9332H136.866ZM137.133 41.3998C138.266 41.3998 138.799 40.8665 138.799 39.9332V39.8665C138.799 38.9332 138.266 38.3998 136.999 38.3998H135.533V41.3998H137.133Z" fill="#1D2D35"/>
<path d="M141.734 40.9333C141.734 39.1999 143.334 38.5333 145.668 38.5333H146.534V38.1999C146.534 37.2666 146.268 36.7999 145.334 36.7999C144.734 36.7333 144.134 37.1333 144.068 37.7999V37.8666H142.068C142.201 36.0666 143.601 35.2666 145.468 35.2666C147.334 35.2666 148.668 35.9999 148.668 38.0666V42.9999H146.601V42.1333C146.068 42.8666 145.201 43.2666 144.334 43.1999C142.868 43.1999 141.734 42.5333 141.734 40.9333ZM146.534 40.3999V39.7333H145.734C144.534 39.7333 143.801 39.9999 143.801 40.7999C143.801 41.3333 144.134 41.7333 144.934 41.7333C145.801 41.7333 146.534 41.1999 146.534 40.3999Z" fill="#1D2D35"/>
<path d="M149.467 40.6666H151.4C151.467 41.3333 151.8 41.7333 152.733 41.7333C153.667 41.7333 153.933 41.3999 153.933 40.9333C153.933 40.4666 153.467 40.1999 152.4 39.9999C150.4 39.6666 149.6 39.1333 149.6 37.5999C149.6 36.0666 151 35.2666 152.6 35.2666C154.267 35.2666 155.533 35.8666 155.733 37.5999H153.8C153.667 36.9999 153.333 36.6666 152.6 36.6666C151.867 36.6666 151.533 36.9999 151.533 37.4666C151.533 37.9333 151.867 38.1333 153 38.2666C154.867 38.5333 155.933 38.9999 155.933 40.6666C155.933 42.3333 154.733 43.1999 152.733 43.1999C150.733 43.1999 149.533 42.2666 149.467 40.6666Z" fill="#1D2D35"/>
<path d="M156.533 39.3333V39.1999C156.4 37.1333 158 35.3333 160.133 35.2666H160.467C162.4 35.2666 164.2 36.3999 164.2 39.1333V39.7333H158.667C158.733 40.9999 159.4 41.7333 160.533 41.7333C161.533 41.7333 162 41.3333 162.133 40.6666H164.133C163.867 42.3333 162.6 43.1999 160.533 43.1999C158.2 43.1999 156.533 41.7333 156.533 39.3333ZM162.067 38.3999C162 37.2666 161.4 36.6666 160.4 36.6666C159.467 36.6666 158.667 37.3999 158.667 38.3999H162.067Z" fill="#1D2D35"/>
<path d="M164.666 39.3333V39.1999C164.599 37.1333 166.199 35.3333 168.266 35.2666H168.599C170.333 35.2666 171.999 35.9999 172.133 38.1999H170.133C170.066 37.4666 169.399 36.8666 168.666 36.9333C167.599 36.9333 166.866 37.7333 166.866 39.1999V39.3333C166.866 40.8666 167.533 41.6666 168.733 41.6666C169.599 41.7333 170.333 41.0666 170.333 40.1999H172.199C172.066 41.9999 170.799 43.2666 168.599 43.2666C166.399 43.2666 164.666 41.7999 164.666 39.3333Z" fill="#1D2D35"/>
<path d="M172.732 40.9335C172.732 39.2002 174.332 38.5335 176.666 38.5335H177.532V38.2002C177.532 37.2668 177.266 36.8002 176.332 36.8002C175.732 36.7335 175.132 37.1335 175.066 37.8002V37.9335H173.066C173.199 36.1335 174.599 35.3335 176.466 35.3335C178.332 35.3335 179.666 36.0668 179.666 38.1335V43.0002H177.599V42.1335C177.066 42.8668 176.199 43.2668 175.332 43.2002C173.866 43.2002 172.732 42.5335 172.732 40.9335ZM177.466 40.4002V39.7335H176.666C175.466 39.7335 174.732 40.0002 174.732 40.8002C174.732 41.3335 175.066 41.7335 175.866 41.7335C176.799 41.7335 177.466 41.2002 177.466 40.4002Z" fill="#1D2D35"/>
<path d="M181 35.4666H183.133V36.5999C183.6 35.7333 184.467 35.2666 185.467 35.2666C186.4 35.1999 187.267 35.7333 187.6 36.5999C188.2 35.7333 189.133 35.2666 190.133 35.2666C191.533 35.2666 192.667 36.1333 192.667 38.1999V42.9999H190.6V38.3999C190.6 37.3999 190.2 36.9999 189.4 36.9999C188.6 36.9333 187.933 37.5999 187.933 38.3333V38.5333V42.9999H185.867V38.3999C185.867 37.3999 185.4 36.9999 184.667 36.9999C183.867 36.9333 183.267 37.5999 183.2 38.3333V38.5333V42.9999H181.067L181 35.4666Z" fill="#1D2D35"/>
<path d="M194.066 35.4668H196.133V36.6668C196.666 35.8002 197.6 35.3335 198.533 35.3335C200.4 35.3335 201.866 36.7335 201.866 39.2002V39.3335C201.866 41.8668 200.466 43.2668 198.533 43.2668C197.533 43.3335 196.6 42.8002 196.133 41.9335V45.6668H194.066V35.4668ZM199.733 39.2668V39.1335C199.733 37.6002 199 36.8668 197.933 36.8668C196.866 36.8668 196.066 37.6002 196.066 39.1335V39.2668C196.066 40.8002 196.8 41.5335 197.933 41.5335C199.066 41.5335 199.733 40.7335 199.733 39.2668Z" fill="#1D2D35"/>
</g>
<defs>
<clipPath id="clip0_0_245">
<rect width="50" height="49.4083" fill="white" transform="translate(20 16)"/>
</clipPath>
<clipPath id="clip1_0_245">
<rect width="100" height="28" fill="white" transform="translate(102 27)"/>
</clipPath>
</defs>
</svg>
