<svg width="199" height="60" viewBox="0 0 199 60" fill="none" xmlns="http://www.w3.org/2000/svg">
<path d="M133.36 37.4076C132.622 37.8879 131.846 38.1465 131.107 38.1465C130.553 38.1465 130.109 37.9248 129.74 37.4815C129.407 37.0381 129.223 36.484 129.223 35.782C129.223 34.7475 129.481 33.3805 129.998 31.6441L131.476 26.6195L134.949 26.3609L135.688 22.925L132.548 23.1097L134.875 15.3512L128.89 16.5704L126.784 23.553L124.641 23.6269L123.939 27.1368L125.639 27.0629L124.678 30.4618C124.235 31.9766 123.902 33.3066 123.718 34.4889C121.944 36.2992 120.614 37.4445 119.728 37.9618C118.841 38.479 117.88 38.7376 116.92 38.7376C114.407 38.7376 112.856 37.2968 112.265 34.3781C118.804 32.4569 122.092 29.9446 122.092 26.8781C122.092 25.7328 121.686 24.7722 120.836 24.0703C119.986 23.3683 118.878 22.9989 117.511 22.9989C114.851 22.9989 112.412 24.292 110.233 26.8412C108.238 29.1688 107.166 31.718 106.981 34.5628C105.171 36.3362 103.804 37.5184 102.917 38.0726C101.994 38.6637 101.144 38.9593 100.331 38.9593C99.5554 38.9593 98.8904 38.5898 98.447 37.814C97.9667 37.0381 97.745 36.0406 97.745 34.7475C97.745 34.1564 97.8189 33.085 97.9298 31.5702C100.922 28.356 103.102 25.2895 104.506 22.4447C105.91 19.5999 106.612 16.6442 106.612 13.6147C106.612 12.5433 106.464 11.6936 106.206 11.0655C105.947 10.4374 105.577 10.1049 105.134 10.1049C105.06 10.1049 104.912 10.1418 104.728 10.1788L99.0381 12.1738C97.117 15.8684 95.4544 19.8954 94.0874 24.292C92.8682 28.2451 92.2032 31.718 92.0924 34.6367C89.7279 37.4815 87.5481 38.8854 85.553 38.8854C84.1122 38.8854 83.0038 38.1096 82.2649 36.5578L84.1491 27.2106C87.2156 24.3658 89.2845 22.0013 90.3929 20.0802C91.5013 18.159 92.0554 16.127 92.0554 14.0581C92.0554 12.8389 91.8707 11.8783 91.5013 11.1394C91.1318 10.4005 90.6885 10.031 90.1343 10.031C90.0604 10.031 89.5062 10.1788 88.4717 10.4374C87.4373 10.696 86.4397 10.9916 85.5161 11.2502C84.5925 11.5458 84.0383 11.8413 83.7797 12.1738C83.558 12.5064 82.9669 13.7256 82.0432 15.9053C81.1196 18.0851 80.4176 20.0432 79.9373 21.8536C79.4201 23.6269 78.7551 26.5456 77.9792 30.5357L74.2477 34.415V34.3781C72.9916 35.6342 71.994 36.5948 71.2921 37.1859C70.5901 37.814 69.9621 38.1096 69.3709 38.1096C68.4473 38.1096 68.0039 37.4815 68.0039 36.1884C68.0039 34.9692 68.5212 32.7155 69.5187 29.4274L71.4768 22.888H70.2207L65.6394 25.4003C64.9005 23.7008 63.6074 22.8141 61.7232 22.8141C60.2454 22.8141 58.5459 23.4422 56.6247 24.6984C54.7036 25.9545 53.1149 27.5801 51.8957 29.6121C50.9351 31.2008 50.344 32.8264 50.1593 34.5258C48.4598 36.2253 47.1667 37.3706 46.28 37.8879C45.3933 38.4051 44.4327 38.6637 43.4722 38.6637C40.9599 38.6637 39.4081 37.2229 38.817 34.3042C45.3564 32.383 48.6445 29.8707 48.6445 26.8042C48.6445 25.6589 48.2381 24.6984 47.3884 23.9964C46.5386 23.2944 45.4303 22.925 44.0633 22.925C41.4032 22.925 38.9648 24.2181 36.785 26.7673C34.79 29.0949 33.7185 31.681 33.5338 34.5258C31.354 36.9273 29.0634 38.1465 26.662 38.1465C25.4058 38.1465 23.928 37.814 22.1916 37.149C20.4551 36.484 19.1251 36.0406 18.2015 35.782C17.2778 35.5603 16.1695 35.4864 14.9133 35.5603C16.8714 33.5283 18.1645 31.4594 18.9034 29.3535C19.6054 27.2476 20.1226 24.8461 20.4182 22.1122C20.7137 19.3782 21.0093 17.4201 21.2679 16.2009C21.5265 14.9817 22.0068 13.9472 22.6719 13.0605C23.3369 12.1738 24.2975 11.7305 25.5167 11.7305C26.5142 11.7305 27.327 12.1 27.9181 12.8389C28.5092 13.5778 28.8048 14.5753 28.8048 15.8684C28.8048 17.5309 28.4353 18.9718 27.6595 20.191C26.8836 21.4102 25.9969 22.0013 24.9994 22.0013C24.3713 22.0013 23.8911 21.7797 23.4847 21.2994C23.2999 21.9274 23.226 22.4447 23.226 22.925C23.226 23.8117 23.4847 24.5136 24.0388 25.0309C24.593 25.5481 25.295 25.8067 26.2556 25.8067C28.0659 25.8067 29.6545 24.92 31.0215 23.1836C32.3885 21.4102 33.0905 19.3782 33.0905 17.0506C33.0905 15.0186 32.4255 13.3561 31.0954 12.063C29.7654 10.7699 28.1028 10.1049 26.0339 10.1049C23.0413 10.1049 20.2704 11.5827 17.7212 14.5753C15.1719 17.5309 13.768 21.6688 13.5094 26.9151C13.3616 29.4643 13.1769 31.2746 12.9552 32.383C12.7335 33.4914 12.1793 34.6367 11.3296 35.782C9.29759 36.1145 7.74589 36.7056 6.63752 37.5554C5.52916 38.4051 4.97498 39.4027 4.97498 40.548C4.97498 41.1021 5.1597 41.5455 5.52916 41.9149C5.89861 42.2844 6.3789 42.4691 6.93309 42.4691C8.55869 42.4691 10.369 41.3608 12.401 39.181C13.4724 39.4765 14.7286 39.9568 16.1695 40.6218C17.5734 41.2869 18.7926 41.7302 19.7901 42.0258C20.7876 42.2844 21.8221 42.4322 22.8935 42.4322C26.5881 42.4322 30.1718 40.6588 33.7185 37.0751C33.9772 38.4421 34.5313 39.6243 35.455 40.548C36.7111 41.8411 38.3367 42.5061 40.3687 42.5061C42.1791 42.5061 43.8416 42.0627 45.3564 41.176C46.7972 40.3263 48.4228 38.9963 50.2332 37.2598C50.381 38.5529 50.8243 39.6982 51.5263 40.6588C52.4499 41.878 53.5583 42.5061 54.8514 42.5061C56.1814 42.5061 57.4745 41.9888 58.7676 40.9913C60.0237 39.9938 61.3907 38.4051 62.9055 36.2623C62.7577 40.4002 63.866 42.5061 66.2306 42.5061C67.1542 42.5061 68.1517 42.1736 69.1862 41.4716C70.2207 40.7696 71.9202 39.3288 74.2847 37.0381L75.7994 35.3756C76.2058 36.5209 76.5014 37.2229 76.6861 37.5184C75.5039 44.0208 74.6911 49.304 74.2108 53.405C76.3906 52.9616 78.2378 52.6661 79.7895 52.4444C80.2698 48.639 80.824 45.1292 81.4521 41.8411C82.4496 42.2844 83.2255 42.4691 83.7797 42.4691C84.9619 42.4691 86.3289 41.9888 87.8437 41.0652C89.3215 40.1416 90.7993 38.8485 92.3141 37.1859C92.4988 38.5529 92.9421 39.6982 93.681 40.6218C94.6416 41.841 95.9347 42.4691 97.5234 42.4691C98.8904 42.4691 100.368 42.0258 101.883 41.1391C103.398 40.2524 105.171 38.8854 107.203 37.0012C107.462 38.4051 108.016 39.5504 108.94 40.511C110.196 41.8041 111.821 42.4691 113.853 42.4691C115.664 42.4691 117.326 42.0258 118.841 41.1391C120.282 40.2893 121.907 38.9593 123.718 37.2229C123.792 38.7007 124.198 39.9199 124.9 40.8435C125.713 41.9149 126.747 42.4691 128.003 42.4691C129.223 42.4691 130.553 42.0258 131.92 41.1391C133.287 40.2524 134.912 38.8854 136.796 37.0012V34.415C135.208 35.8928 134.099 36.9273 133.36 37.4076ZM101.624 16.6812C102.659 13.9472 103.472 12.5802 104.026 12.5802C104.284 12.5802 104.469 12.765 104.654 13.0975C104.802 13.43 104.912 13.8733 104.912 14.4275C104.912 16.3117 104.321 18.5654 103.139 21.1516C101.957 23.7747 100.442 26.1023 98.5209 28.2082C99.5184 23.2575 100.553 19.4152 101.624 16.6812ZM87.1786 14.9078C87.8437 13.2083 88.5087 12.3216 89.1737 12.3216C89.5062 12.3216 89.8018 12.5064 90.0234 12.9128C90.2451 13.3192 90.3559 13.8364 90.3559 14.4645C90.3559 15.9423 89.8757 17.5679 88.8781 19.3043C87.8806 21.0408 86.5136 22.7033 84.7772 24.2181C85.7008 19.7107 86.5136 16.6073 87.1786 14.9078ZM42.7702 24.7353C43.8047 24.7353 44.3219 25.4373 44.3219 26.8781C44.3219 29.7599 42.4007 31.7549 38.5953 32.8264C38.5953 30.4249 39.0387 28.4668 39.9254 26.989C40.8121 25.5112 41.7727 24.7353 42.7702 24.7353ZM62.0557 34.3781C60.7257 36.9273 59.3218 38.1835 57.8439 38.1835C57.2159 38.1835 56.7356 37.9248 56.3292 37.4445C55.9228 36.9642 55.738 36.2992 55.738 35.4864C55.738 33.3436 56.4031 31.016 57.7331 28.5037C59.0631 25.9545 60.4671 24.6984 61.9818 24.6984C62.6099 24.6984 63.0902 24.92 63.4966 25.4003C63.8661 25.8806 64.0508 26.5087 64.0508 27.3584C64.0138 29.5013 63.3488 31.8288 62.0557 34.3781ZM116.218 24.7353C117.252 24.7353 117.769 25.4373 117.769 26.8781C117.769 29.7599 115.848 31.7549 112.043 32.8264C112.043 30.4249 112.486 28.4668 113.373 26.989C114.297 25.4742 115.257 24.7353 116.218 24.7353Z" fill="#70706F"/>
<path d="M144.333 24.8462C144.814 25.4004 153.939 28.4299 157.079 32.1244C160.257 35.819 161.624 39.1071 161.18 42.2845C160.737 45.4618 158.779 45.3879 157.966 46.5701C157.116 47.7154 155.934 49.1563 153.717 49.0085C150.762 48.8238 147.732 47.346 145.552 42.2475C143.373 37.149 143.52 32.3461 143.705 29.686C143.853 26.989 144.333 24.8462 144.333 24.8462Z" fill="url(#paint0_linear_0_8718)"/>
<path d="M144.592 25.6962L158.262 46.0901L157.634 46.792L144.592 25.6962Z" fill="url(#paint1_linear_0_8718)"/>
<path d="M92.2402 54.0334L92.3511 53.1467C96.0087 51.1886 100.516 50.4497 104.211 48.5655C105.319 49.0458 105.799 48.3438 106.981 48.4177C107.425 48.7872 106.427 49.3044 107.61 49.2305C110.233 49.563 112.819 49.0827 115.405 48.861C118.139 48.6394 120.836 48.898 123.533 48.7133C124.383 48.6763 125.713 47.4941 126.747 48.0852C127.228 48.9349 125.196 49.0088 125.75 49.9694C131.107 51.2256 144.518 56.5457 146.809 50.7453C146.846 51.1147 146.402 51.7797 147.03 51.7058C151.538 49.6738 159.222 45.3143 160.589 44.169C162.067 42.9128 164.062 42.9498 165.983 42.5064C169.493 41.6936 173.225 40.8808 176.254 39.1074C178.138 40.4005 182.055 41.0656 184.124 40.5853C186.303 40.105 189.702 36.4843 191.513 35.1912C192.215 34.674 193.286 33.7134 194.025 34.2676C193.508 34.637 194.099 35.6715 193.471 35.4868C193.138 34.8587 192.473 35.5976 191.993 35.4498C190.183 36.9646 188.262 38.3685 186.414 39.8094C185.528 40.3266 187.264 40.8808 186.229 41.0655C181.427 42.0261 174.074 39.6247 171.045 42.9498C166.242 44.6123 161.698 45.0187 156.969 47.568C154.235 49.0458 150.91 51.7058 148.065 53.1098C147.585 53.3314 146.883 53.4423 146.328 53.7748C145.626 54.1812 145.479 54.7354 144.888 54.8462C143.447 55.1418 140.454 54.4029 138.533 54.1442C132.252 53.2206 125.528 50.6714 119.58 50.3389C117.215 50.228 114.444 50.5975 111.784 50.7083C106.132 50.9669 102.622 51.1147 98.0776 52.6295C96.3042 53.2576 93.4225 54.9201 92.2402 54.0334Z" fill="#3D3D3C"/>
<path d="M179.505 4.78516C178.877 5.81963 164.395 13.2826 160.072 20.2653C155.712 27.2849 154.493 32.7898 156.082 37.9622C157.67 43.1346 160.663 42.9129 162.363 44.6124C164.062 46.3119 166.39 48.3808 170.121 47.568C174.998 46.4596 179.69 43.2084 182.018 34.1199C184.345 25.0313 182.83 17.0511 181.833 12.6545C180.835 8.25803 179.505 4.78516 179.505 4.78516Z" fill="url(#paint2_linear_0_8718)"/>
<path d="M179.246 6.33679L161.697 43.9473L162.732 44.9818L179.246 6.33679Z" fill="url(#paint3_linear_0_8718)"/>
<defs>
<linearGradient id="paint0_linear_0_8718" x1="142.508" y1="35.8145" x2="161.942" y2="37.5804" gradientUnits="userSpaceOnUse">
<stop stop-color="#8AC443"/>
<stop offset="1" stop-color="#75B843"/>
</linearGradient>
<linearGradient id="paint1_linear_0_8718" x1="143.115" y1="34.8809" x2="159.882" y2="36.0805" gradientUnits="userSpaceOnUse">
<stop stop-color="#75B843"/>
<stop offset="1" stop-color="#4B9744"/>
</linearGradient>
<linearGradient id="paint2_linear_0_8718" x1="185.615" y1="22.5976" x2="153.668" y2="27.0941" gradientUnits="userSpaceOnUse">
<stop stop-color="#C1DB74"/>
<stop offset="1" stop-color="#ACD259"/>
</linearGradient>
<linearGradient id="paint3_linear_0_8718" x1="184.348" y1="21.1711" x2="156.741" y2="23.0808" gradientUnits="userSpaceOnUse">
<stop stop-color="#ACD259"/>
<stop offset="1" stop-color="#8AC443"/>
</linearGradient>
</defs>
</svg>
