<svg  viewBox="20 16 220 50" fill="none" xmlns="http://www.w3.org/2000/svg"><defs>
<clipPath id="clip0_0_1869">
<rect width="50" height="28.5714" fill="white" transform="translate(156 27)"/>
</clipPath>
<clipPath id="clip1_0_1869">
<rect width="100" height="57.1429" fill="white" transform="translate(20 12)"/>
</clipPath>
</defs><g clip-path="url(#clip0_0_1869)">
<path fill-rule="evenodd" clip-rule="evenodd" d="M188.739 55.5714H181.971V27H188.739V55.5714ZM179.554 41.3204C179.554 47.824 174.28 53.0867 167.783 53.0867C161.286 53.0867 156.004 47.8153 156.004 41.3204C156.004 34.8255 161.277 29.5536 167.774 29.5536C174.272 29.5536 179.554 34.8163 179.554 41.3204ZM171.336 41.3204C171.336 40.8533 171.244 40.3908 171.066 39.9592C170.887 39.5276 170.625 39.1355 170.295 38.8053C169.964 38.4751 169.572 38.2134 169.14 38.035C168.709 37.8566 168.246 37.7651 167.779 37.7658C167.312 37.7651 166.849 37.8566 166.418 38.035C165.986 38.2134 165.594 38.4751 165.263 38.8053C164.933 39.1355 164.671 39.5276 164.492 39.9592C164.314 40.3908 164.222 40.8533 164.222 41.3204C164.222 41.7874 164.314 42.2499 164.492 42.6814C164.671 43.1129 164.933 43.5049 165.263 43.835C165.594 44.1651 165.986 44.4269 166.417 44.6052C166.849 44.7836 167.311 44.8751 167.778 44.8745C168.245 44.8752 168.708 44.7838 169.14 44.6055C169.572 44.4272 169.964 44.1655 170.294 43.8354C170.625 43.5052 170.887 43.1132 171.065 42.6816C171.244 42.25 171.336 41.7875 171.336 41.3204ZM205.917 34.1776H201.419L198.778 36.8148L196.138 34.177H191.639V38.7485L194.244 41.3505L191.639 43.9531V48.4633H196.207L198.787 45.8872L201.366 48.4633H205.935V43.9531L203.329 41.351L205.935 38.749V34.1776H205.917H205.917Z" fill="#002F34"/>
</g><g clip-path="url(#clip1_0_1869)">
<path fill-rule="evenodd" clip-rule="evenodd" d="M85.4755 69.1429H71.9398V12H85.4755V69.1429ZM67.1061 40.6408C67.1061 53.648 56.5592 64.1735 43.5653 64.1735C30.5704 64.1735 20.0061 53.6306 20.0061 40.6408C20.0061 27.651 30.553 17.1071 43.5469 17.1071C56.5418 17.1071 67.1061 27.6327 67.1061 40.6408ZM50.6694 40.6408C50.6702 39.7067 50.4867 38.7815 50.1295 37.9184C49.7722 37.0552 49.2482 36.271 48.5875 35.6106C47.9267 34.9503 47.1422 34.4267 46.2789 34.07C45.4155 33.7132 44.4903 33.5303 43.5561 33.5316C42.6219 33.5303 41.6967 33.7132 40.8333 34.07C39.97 34.4267 39.1855 34.9503 38.5247 35.6106C37.864 36.271 37.34 37.0552 36.9827 37.9184C36.6255 38.7815 36.442 39.7067 36.4428 40.6408C36.4422 41.5748 36.6257 42.4998 36.9829 43.3627C37.3402 44.2257 37.8641 45.0097 38.5247 45.67C39.1853 46.3302 39.9697 46.8537 40.8329 47.2104C41.696 47.5672 42.6211 47.7502 43.5551 47.749C44.4892 47.7505 45.4145 47.5676 46.2779 47.211C47.1413 46.8544 47.9259 46.331 48.5868 45.6707C49.2476 45.0104 49.7717 44.2263 50.1291 43.3632C50.4864 42.5001 50.67 41.575 50.6694 40.6408ZM119.833 26.3551H110.837L105.555 31.6296L100.273 26.3541H91.2755V35.4969L96.4867 40.701L91.2755 45.9061V54.9265H100.413L105.571 49.7745L110.73 54.9265H119.867V45.9061L114.656 40.702L119.867 35.498V26.3551H119.832H119.833Z" fill="#002F34"/>
</g></svg>