<svg width="218" height="55" viewBox="0 0 218 55" fill="none" xmlns="http://www.w3.org/2000/svg">
<path d="M13.9267 40.2373C13.8954 40.184 13.8591 40.1338 13.8184 40.0874C13.7328 40.1134 13.6419 40.1172 13.5544 40.0982C13.4669 40.0793 13.3858 40.0382 13.3186 39.9791C13.2168 39.8922 13.1514 39.7703 13.1353 39.6375C12.827 39.5492 12.4975 39.5715 12.2039 39.7005C11.9102 39.8296 11.671 40.0572 11.5275 40.3441C11.3841 40.6309 11.3454 40.9589 11.4183 41.2712C11.4912 41.5836 11.671 41.8606 11.9266 42.0543C12.1822 42.248 12.4975 42.3463 12.8179 42.332C13.1384 42.3178 13.4437 42.1919 13.6811 41.9762C13.9185 41.7606 14.073 41.4687 14.1178 41.1511C14.1627 40.8335 14.0951 40.5103 13.9267 40.2373Z" fill="#FFB81C"/>
<path d="M41.3666 24.5514C41.5191 24.4592 41.6407 24.3238 41.7161 24.1624C41.7915 24.001 41.8173 23.8208 41.7902 23.6447C41.7631 23.4687 41.6843 23.3046 41.5639 23.1733C41.4434 23.0421 41.2867 22.9495 41.1136 22.9074C40.9405 22.8653 40.7588 22.8756 40.5915 22.9368C40.4242 22.9981 40.2789 23.1077 40.174 23.2516C40.069 23.3956 40.0092 23.5674 40.002 23.7455C39.9949 23.9235 40.0407 24.0996 40.1338 24.2515C40.1945 24.3527 40.2747 24.4409 40.3697 24.5109C40.4648 24.5809 40.5728 24.6313 40.6875 24.6592C40.8022 24.6871 40.9213 24.6919 41.0379 24.6734C41.1545 24.6549 41.2662 24.6134 41.3666 24.5514Z" fill="#FFB81C"/>
<path d="M39.4257 21.7024C39.5931 21.5326 39.6869 21.3036 39.6869 21.0652C39.6869 20.8267 39.5931 20.5978 39.4257 20.4279C39.3442 20.342 39.2466 20.273 39.1384 20.2249C39.0302 20.1767 38.9137 20.1504 38.7953 20.1473C38.677 20.1442 38.5592 20.1644 38.4486 20.2069C38.3381 20.2493 38.237 20.3131 38.1511 20.3946C38.0653 20.4761 37.9963 20.5737 37.9481 20.6819C37.9 20.79 37.8736 20.9066 37.8705 21.0249C37.8674 21.1433 37.8877 21.2611 37.9301 21.3716C37.9725 21.4822 38.0363 21.5832 38.1178 21.6691C38.2003 21.7592 38.3001 21.8318 38.4112 21.8825C38.5223 21.9331 38.6426 21.9608 38.7647 21.9639C38.8868 21.9671 39.0082 21.9455 39.1218 21.9006C39.2354 21.8556 39.3388 21.7882 39.4257 21.7024Z" fill="#FFB81C"/>
<path d="M37.1099 19.4366C37.2549 19.1934 37.3021 18.9042 37.2419 18.6275C37.1817 18.3508 37.0187 18.1074 36.7857 17.9464C36.5527 17.7855 36.2673 17.7191 35.9872 17.7606C35.7072 17.8022 35.4533 17.9487 35.2772 18.1704C35.1821 18.2901 35.1126 18.428 35.073 18.5757C35.0334 18.7233 35.0246 18.8775 35.047 19.0287C35.0695 19.1799 35.1227 19.3249 35.2035 19.4547C35.2843 19.5845 35.3909 19.6963 35.5167 19.7832C35.6424 19.8701 35.7847 19.9302 35.9347 19.9599C36.0846 19.9895 36.2391 19.988 36.3885 19.9555C36.5378 19.9231 36.6789 19.8602 36.803 19.771C36.9271 19.6817 37.0316 19.5679 37.1099 19.4366Z" fill="#FFB81C"/>
<path d="M21.1407 45.9935C20.8817 45.8841 20.5992 45.8419 20.3196 45.8711C20.0399 45.9002 19.7722 45.9996 19.5413 46.1601C19.5881 45.7818 19.5305 45.3979 19.3749 45.0499C19.2193 44.702 18.9715 44.4032 18.6583 44.1859C18.3439 43.9717 17.9775 43.8463 17.5978 43.8229C17.2181 43.7994 16.8392 43.8788 16.5008 44.0526C16.5829 43.6898 16.5413 43.3099 16.3826 42.9735C16.2238 42.6371 15.9571 42.3635 15.6248 42.1963C15.2926 42.0291 14.9139 41.9779 14.5491 42.0508C14.1844 42.1238 13.8545 42.3167 13.6121 42.5988C13.3697 42.881 13.2287 43.2361 13.2116 43.6077C13.1944 43.9793 13.3021 44.3459 13.5175 44.6492C13.7328 44.9524 14.0435 45.1749 14.4 45.2812C14.7564 45.3874 15.1382 45.3713 15.4845 45.2355C15.3285 45.67 15.3208 46.144 15.4626 46.5835C15.6043 47.0229 15.8875 47.403 16.268 47.6646C16.6484 47.9262 17.1048 48.0545 17.5658 48.0294C18.0269 48.0044 18.4666 47.8275 18.8166 47.5263C18.817 47.827 18.8987 48.1219 19.0532 48.3799C19.2076 48.6378 19.429 48.8492 19.6938 48.9916C19.9586 49.1339 20.257 49.202 20.5574 49.1885C20.8578 49.175 21.1489 49.0805 21.3999 48.9149C21.6509 48.7494 21.8524 48.519 21.9831 48.2482C22.1138 47.9775 22.1687 47.6764 22.1422 47.3769C22.1156 47.0774 22.0085 46.7907 21.8322 46.5471C21.6559 46.3036 21.4169 46.1123 21.1407 45.9935Z" fill="#FFB81C"/>
<path d="M34.4358 17.6706C34.54 17.4196 34.5674 17.1434 34.5147 16.8769C34.4619 16.6103 34.3314 16.3654 34.1395 16.173C33.9476 15.9807 33.703 15.8495 33.4366 15.796C33.1702 15.7426 32.8939 15.7693 32.6427 15.8729C32.3915 15.9764 32.1766 16.152 32.0251 16.3776C31.8737 16.6032 31.7925 16.8686 31.7918 17.1403C31.7912 17.4121 31.8711 17.6779 32.0214 17.9042C32.1717 18.1305 32.3858 18.3072 32.6365 18.412C32.8032 18.4828 32.9822 18.5198 33.1633 18.5208C33.3444 18.5218 33.5239 18.4868 33.6913 18.4178C33.8587 18.3488 34.0108 18.2472 34.1386 18.1189C34.2664 17.9907 34.3675 17.8383 34.4358 17.6706Z" fill="#FFB81C"/>
<path d="M24.048 47.2181C23.781 47.1669 23.5047 47.196 23.2543 47.3018C23.0038 47.4076 22.7904 47.5853 22.6409 47.8125C22.4915 48.0396 22.4127 48.306 22.4147 48.5779C22.4167 48.8497 22.4992 49.1149 22.6519 49.3399C22.8046 49.5649 23.0206 49.7395 23.2725 49.8417C23.5245 49.9439 23.8011 49.9691 24.0674 49.914C24.3336 49.859 24.5776 49.7262 24.7684 49.5325C24.9592 49.3388 25.0883 49.0929 25.1393 48.8258C25.2076 48.4679 25.1311 48.0975 24.9264 47.7961C24.7218 47.4946 24.4058 47.2867 24.048 47.2181Z" fill="#FFB81C"/>
<path d="M30.1791 14.5051C29.8441 14.4381 29.4966 14.4756 29.1837 14.6127C28.8708 14.7498 28.6076 14.9798 28.4297 15.2715C28.2952 14.8362 28.0222 14.4568 27.6522 14.1909C27.2822 13.9251 26.8356 13.7873 26.3801 13.7986C25.9247 13.8099 25.4854 13.9697 25.1291 14.2536C24.7728 14.5375 24.5189 14.93 24.4062 15.3714C24.2149 15.0886 23.9412 14.8714 23.6224 14.7492C23.3035 14.6271 22.9548 14.6058 22.6235 14.6883C22.4967 14.7189 22.3738 14.7636 22.257 14.8216C22.2828 14.9594 22.2774 15.1012 22.2414 15.2367C22.2054 15.3722 22.1396 15.4979 22.0487 15.6047C21.9642 15.7039 21.8596 15.7842 21.7419 15.8402C21.6242 15.8961 21.496 15.9266 21.3656 15.9296C21.2979 16.2031 21.2979 16.489 21.3656 16.7626C21.4135 16.9812 21.5048 17.1879 21.6343 17.3704C21.7637 17.5529 21.9286 17.7074 22.119 17.8248C22.3095 17.9422 22.5217 18.02 22.7429 18.0536C22.9641 18.0873 23.1898 18.076 23.4066 18.0205C23.6792 17.9531 23.9311 17.82 24.1402 17.6326C24.3494 17.4453 24.5093 17.2094 24.6061 16.9458C24.79 17.2789 25.0624 17.5548 25.3931 17.7429C25.7238 17.9311 26.1001 18.0242 26.4804 18.0121C26.8629 18.002 27.2352 17.8871 27.5569 17.68C27.8785 17.4729 28.1372 17.1815 28.3048 16.8376C28.4248 17.0937 28.6081 17.315 28.8373 17.4807C29.0665 17.6464 29.3342 17.751 29.615 17.7847C29.8959 17.8184 30.1807 17.78 30.4426 17.6732C30.7045 17.5663 30.9349 17.3946 31.112 17.1741C31.2892 16.9536 31.4073 16.6916 31.4553 16.4129C31.5032 16.1341 31.4794 15.8477 31.3861 15.5807C31.2927 15.3137 31.133 15.0749 30.9218 14.8867C30.7106 14.6985 30.455 14.5672 30.1791 14.5051Z" fill="#FFB81C"/>
<path d="M27.2302 49.9587C27.842 49.9587 28.3381 49.4627 28.3381 48.8508C28.3381 48.2389 27.842 47.7429 27.2302 47.7429C26.6183 47.7429 26.1222 48.2389 26.1222 48.8508C26.1222 49.4627 26.6183 49.9587 27.2302 49.9587Z" fill="#FFB81C"/>
<path d="M30.4373 47.5263C30.2641 47.5674 30.1071 47.659 29.9859 47.7894C29.8648 47.9198 29.7851 48.0832 29.7569 48.2589C29.7287 48.4347 29.7532 48.6148 29.8274 48.7766C29.9016 48.9384 30.0221 49.0745 30.1737 49.1678C30.3252 49.2611 30.5011 49.3073 30.6789 49.3007C30.8568 49.294 31.0287 49.2347 31.1728 49.1303C31.317 49.0259 31.4269 48.8811 31.4888 48.7142C31.5506 48.5473 31.5616 48.3658 31.5202 48.1927C31.4649 47.9608 31.3197 47.7604 31.1167 47.6354C30.9136 47.5105 30.6693 47.4712 30.4373 47.5263Z" fill="#FFB81C"/>
<path d="M33.8944 48.1594C34.3912 48.1594 34.794 47.7566 34.794 47.2597C34.794 46.7628 34.3912 46.3601 33.8944 46.3601C33.3975 46.3601 32.9947 46.7628 32.9947 47.2597C32.9947 47.7566 33.3975 48.1594 33.8944 48.1594Z" fill="#FFB81C"/>
<path d="M18.625 18.2537C18.5735 18.1487 18.5467 18.0333 18.5467 17.9163C18.5467 17.7994 18.5735 17.684 18.625 17.5789C18.672 17.492 18.7357 17.4151 18.8125 17.3528C18.8892 17.2904 18.9775 17.2438 19.0722 17.2156C19.167 17.1873 19.2664 17.178 19.3647 17.1882C19.4631 17.1984 19.5585 17.2279 19.6454 17.2749C19.7324 17.3219 19.8093 17.3856 19.8716 17.4624C19.934 17.5391 19.9806 17.6274 20.0088 17.7222C20.037 17.8169 20.0463 17.9163 20.0362 18.0146C20.026 18.113 19.9965 18.2084 19.9495 18.2954C19.862 18.4622 19.7143 18.5895 19.5364 18.6514C19.3585 18.7133 19.1636 18.7051 18.9915 18.6286C19.2702 18.8091 19.6048 18.8827 19.9334 18.8356C20.2621 18.7886 20.5627 18.6242 20.7796 18.3728C20.9965 18.1214 21.115 17.8 21.1133 17.468C21.1116 17.136 20.9898 16.8158 20.7704 16.5666C20.551 16.3174 20.2488 16.1561 19.9196 16.1124C19.5905 16.0688 19.2566 16.1457 18.9798 16.3291C18.703 16.5124 18.5019 16.7898 18.4137 17.1099C18.3255 17.43 18.3562 17.7712 18.5 18.0704C18.5382 18.1338 18.58 18.195 18.625 18.2537Z" fill="#FFB81C"/>
<path d="M37.936 45.6125C38.017 45.006 37.5911 44.4486 36.9846 44.3676C36.3781 44.2866 35.8207 44.7125 35.7397 45.3191C35.6586 45.9256 36.0846 46.4829 36.6911 46.5639C37.2976 46.645 37.855 46.219 37.936 45.6125Z" fill="#FFB81C"/>
<path d="M17.6718 19.9808C18.0592 19.5072 17.9892 18.8092 17.5156 18.4218C17.042 18.0344 16.344 18.1043 15.9566 18.578C15.5692 19.0516 15.6391 19.7496 16.1127 20.137C16.5864 20.5244 17.2844 20.4545 17.6718 19.9808Z" fill="#FFB81C"/>
<path d="M40.2337 42.0533C40.0212 41.8743 39.7598 41.7635 39.4834 41.7353C39.207 41.707 38.9286 41.7627 38.6843 41.895C38.8552 41.9814 38.9953 42.1183 39.0857 42.2871C39.1761 42.4558 39.2124 42.6483 39.1897 42.8384C39.1669 43.0286 39.0863 43.2071 38.9586 43.3498C38.8309 43.4924 38.6625 43.5924 38.476 43.636C38.3471 43.6651 38.2134 43.6651 38.0845 43.636C38.1652 43.8295 38.2908 44.0008 38.451 44.1359C38.7299 44.3592 39.0847 44.4651 39.4403 44.4313C39.7959 44.3975 40.1244 44.2266 40.3562 43.9548C40.5879 43.6829 40.7047 43.3315 40.6819 42.9751C40.659 42.6186 40.4983 42.285 40.2337 42.045V42.0533Z" fill="#FFB81C"/>
<path d="M15.0013 22.2272C15.1571 22.0461 15.2345 21.8105 15.2165 21.5722C15.1985 21.334 15.0867 21.1126 14.9055 20.9569C14.7243 20.8011 14.4887 20.7237 14.2505 20.7417C14.0122 20.7596 13.7909 20.8715 13.6351 21.0527C13.558 21.1424 13.4993 21.2464 13.4624 21.3588C13.4255 21.4712 13.411 21.5897 13.4199 21.7077C13.4288 21.8257 13.4609 21.9407 13.5142 22.0463C13.5676 22.1519 13.6412 22.2459 13.7309 22.323C13.8206 22.4002 13.9247 22.4589 14.037 22.4958C14.1494 22.5327 14.268 22.5471 14.386 22.5382C14.5039 22.5293 14.619 22.4973 14.7246 22.4439C14.8301 22.3906 14.9242 22.3169 15.0013 22.2272Z" fill="#FFB81C"/>
<path d="M12.0107 25.1178C12.138 25.1878 12.2831 25.2184 12.4277 25.2057C12.5724 25.1931 12.71 25.1378 12.8232 25.0468C12.9363 24.9558 13.0199 24.8333 13.0634 24.6948C13.1068 24.5562 13.1081 24.4079 13.0672 24.2686C13.0262 24.1293 12.9448 24.0053 12.8333 23.9124C12.7217 23.8194 12.5851 23.7616 12.4407 23.7464C12.2963 23.7312 12.1507 23.7592 12.0222 23.8269C11.8937 23.8946 11.7883 23.9989 11.7192 24.1265C11.6724 24.2106 11.6429 24.3031 11.6323 24.3987C11.6216 24.4943 11.6301 24.591 11.6573 24.6833C11.6844 24.7755 11.7296 24.8615 11.7903 24.9361C11.851 25.0107 11.9259 25.0725 12.0107 25.1178Z" fill="#FFB81C"/>
<path d="M10.8695 28.225C10.9817 28.2583 11.1013 28.2574 11.2131 28.2226C11.3249 28.1878 11.4238 28.1207 11.4974 28.0296C11.571 27.9386 11.6158 27.8277 11.6264 27.7111C11.6369 27.5946 11.6126 27.4775 11.5566 27.3747C11.5005 27.2719 11.4152 27.1881 11.3115 27.1338C11.2078 27.0796 11.0903 27.0573 10.9739 27.0699C10.8575 27.0824 10.7474 27.1292 10.6577 27.2044C10.5679 27.2795 10.5025 27.3796 10.4696 27.492C10.4257 27.6422 10.4432 27.8037 10.5181 27.9411C10.593 28.0785 10.7194 28.1806 10.8695 28.225Z" fill="#FFB81C"/>
<path d="M44.9237 33.8313C44.9601 33.3895 44.8195 32.9512 44.5329 32.613C44.2462 32.2748 43.8369 32.0643 43.3951 32.0278C42.9532 31.9914 42.5149 32.1319 42.1767 32.4186C41.8385 32.7053 41.628 33.1145 41.5916 33.5564C41.5709 33.8366 41.6193 34.1176 41.7326 34.3746C41.8459 34.6317 42.0206 34.8571 42.2413 35.0309C41.9103 35.0963 41.6001 35.2411 41.3374 35.453C41.0748 35.6649 40.8675 35.9374 40.7335 36.2471C40.8802 36.1897 41.0385 36.1677 41.1953 36.1831C41.3521 36.1984 41.503 36.2506 41.6358 36.3354C41.7686 36.4202 41.8795 36.5351 41.9594 36.6709C42.0393 36.8067 42.086 36.9594 42.0957 37.1167C42.1053 37.2739 42.0777 37.4313 42.015 37.5758C41.9523 37.7203 41.8563 37.848 41.7349 37.9484C41.6134 38.0488 41.47 38.119 41.3162 38.1535C41.1625 38.1879 41.0028 38.1854 40.8502 38.1464C40.9396 38.3037 41.0519 38.4469 41.1834 38.5712C40.9297 38.5931 40.6845 38.6728 40.4664 38.8042C40.2483 38.9356 40.0633 39.1152 39.9255 39.3293C39.9633 39.5201 39.9567 39.717 39.9062 39.9048C39.8556 40.0926 39.7624 40.2662 39.6339 40.4122C39.6587 40.6936 39.7521 40.9645 39.9061 41.2013C40.0601 41.438 40.2698 41.6334 40.5169 41.7701L40.7752 41.8867C40.7319 41.7648 40.7144 41.6351 40.7239 41.5061C40.7334 41.377 40.7696 41.2514 40.8303 41.1371C40.8909 41.0228 40.9747 40.9223 41.0763 40.8421C41.1778 40.762 41.295 40.7038 41.4202 40.6713C41.5455 40.6388 41.6761 40.6328 41.8039 40.6535C41.9316 40.6742 42.0536 40.7213 42.1622 40.7917C42.2707 40.8622 42.3634 40.9544 42.4344 41.0626C42.5054 41.1708 42.5531 41.2926 42.5745 41.4202C42.6662 41.3196 42.7446 41.2076 42.8078 41.087C42.9754 40.7897 43.0477 40.4482 43.015 40.1085C42.9822 39.7688 42.8459 39.4474 42.6245 39.1877C43.0794 39.1866 43.5216 39.0371 43.8839 38.762C44.2462 38.4869 44.5089 38.1011 44.6321 37.6632C44.7588 37.2264 44.7413 36.7603 44.5822 36.3342C44.4232 35.908 44.131 35.5445 43.7491 35.2974C44.0696 35.1996 44.3532 35.0073 44.5627 34.7457C44.7723 34.4842 44.8981 34.1655 44.9237 33.8313ZM43.7074 34.806C43.5951 34.987 43.4176 35.1182 43.2116 35.1724C43.0055 35.2267 42.7864 35.1999 42.5995 35.0975C42.549 35.0692 42.5015 35.0357 42.4579 34.9976C42.337 34.8938 42.2483 34.7575 42.2025 34.6048C42.1567 34.4522 42.1557 34.2896 42.1995 34.1364C42.2433 33.9831 42.3302 33.8457 42.4498 33.7403C42.5694 33.635 42.7167 33.5662 42.8742 33.542C43.0317 33.5179 43.1929 33.5394 43.3385 33.6041C43.4842 33.6688 43.6082 33.7739 43.6959 33.9069C43.7836 34.04 43.8314 34.1954 43.8334 34.3547C43.8354 34.5141 43.7917 34.6707 43.7074 34.806Z" fill="#FFB81C"/>
<path d="M10.3447 31.7737C10.4898 31.7851 10.635 31.7529 10.7618 31.6814C10.8885 31.6099 10.9912 31.5023 11.0566 31.3723C11.122 31.2423 11.1472 31.0957 11.129 30.9513C11.1108 30.8069 11.0501 30.6712 10.9545 30.5614C10.8589 30.4517 10.7328 30.3729 10.5922 30.335C10.4517 30.2972 10.3031 30.3021 10.1653 30.349C10.0275 30.3959 9.90684 30.4828 9.81862 30.5986C9.7304 30.7143 9.67864 30.8537 9.66993 30.999C9.66313 31.0942 9.67522 31.1899 9.70549 31.2804C9.73576 31.3709 9.78362 31.4546 9.84632 31.5266C9.90902 31.5986 9.98532 31.6575 10.0708 31.6999C10.1564 31.7423 10.2494 31.7674 10.3447 31.7737Z" fill="#FFB81C"/>
<path d="M42.9994 28.8915C42.8211 28.9144 42.649 28.9723 42.4931 29.0618C42.3371 29.1512 42.2003 29.2705 42.0905 29.4129C41.9806 29.5552 41.8999 29.7178 41.8529 29.8913C41.8059 30.0648 41.7935 30.2459 41.8165 30.4242C41.8394 30.6025 41.8973 30.7746 41.9868 30.9305C42.0762 31.0865 42.1955 31.2233 42.3379 31.3331C42.4802 31.443 42.6428 31.5237 42.8163 31.5707C42.9898 31.6177 43.1709 31.6301 43.3492 31.6071C43.5167 31.593 43.6789 31.5418 43.8241 31.4572C43.787 31.3407 43.787 31.2155 43.8241 31.099C43.8688 30.9682 43.9546 30.8554 44.0687 30.7773C44.1828 30.6993 44.3191 30.6602 44.4572 30.6658C44.5195 30.4752 44.5366 30.2727 44.5071 30.0744C44.4613 29.7188 44.2775 29.3955 43.9955 29.1742C43.7134 28.9529 43.3556 28.8514 42.9994 28.8915Z" fill="#FFB81C"/>
<path d="M10.6029 35.3807C10.8319 35.3413 11.0367 35.2149 11.1745 35.0279C11.3124 34.8408 11.3725 34.6078 11.3424 34.3774C11.3122 34.147 11.1941 33.9373 11.0128 33.792C10.8315 33.6467 10.6011 33.5772 10.3697 33.5981C10.2442 33.6135 10.1234 33.6557 10.0157 33.7218C9.90786 33.7879 9.81553 33.8764 9.7449 33.9813C9.77729 34.0166 9.80527 34.0558 9.8282 34.0979C9.90397 34.2233 9.92976 34.3726 9.90043 34.5162C9.87111 34.6597 9.78881 34.787 9.66993 34.8726C9.75239 35.0445 9.88689 35.1862 10.0544 35.2774C10.2218 35.3686 10.4137 35.4047 10.6029 35.3807Z" fill="#FFB81C"/>
<path d="M43.0266 27.7984C43.5237 27.4416 43.6374 26.7494 43.2806 26.2523C42.9238 25.7552 42.2316 25.6415 41.7345 25.9983C41.2374 26.3551 41.1237 27.0473 41.4805 27.5444C41.8373 28.0415 42.5295 28.1552 43.0266 27.7984Z" fill="#FFB81C"/>
<path d="M12.3273 37.4716C12.2625 37.2894 12.1518 37.127 12.0058 37C11.8599 36.8731 11.6837 36.7859 11.4943 36.7469C11.5339 36.7698 11.5703 36.7978 11.6026 36.8302C11.6827 36.9303 11.7207 37.0577 11.7082 37.1853C11.6958 37.3129 11.6339 37.4306 11.5359 37.5133C11.4875 37.5538 11.4315 37.5843 11.3711 37.6029C11.3108 37.6215 11.2474 37.6279 11.1845 37.6217C11.1217 37.6155 11.0607 37.5968 11.0052 37.5667C10.9497 37.5367 10.9007 37.4959 10.8612 37.4467C10.8012 37.3496 10.7775 37.2345 10.7943 37.1217C10.8111 37.0089 10.8672 36.9056 10.9528 36.8302H11.0194H10.9111C10.7048 36.9037 10.5249 37.0366 10.394 37.2123C10.2632 37.3879 10.1874 37.5984 10.1762 37.8171C10.1649 38.0359 10.2188 38.253 10.3309 38.4412C10.443 38.6293 10.6083 38.78 10.8061 38.8742C11.0038 38.9684 11.225 39.0019 11.4417 38.9704C11.6585 38.939 11.861 38.844 12.0238 38.6975C12.1866 38.551 12.3023 38.3595 12.3563 38.1472C12.4103 37.935 12.4002 37.7115 12.3273 37.505V37.4716Z" fill="#FFB81C"/>
<path d="M26.1727 5.85786C26.5362 5.85786 26.8308 5.56322 26.8308 5.19976C26.8308 4.83631 26.5362 4.54167 26.1727 4.54167C25.8093 4.54167 25.5146 4.83631 25.5146 5.19976C25.5146 5.56322 25.8093 5.85786 26.1727 5.85786Z" fill="#E87722"/>
<path d="M27.064 43.494C26.7607 43.372 26.5 43.1634 26.3143 42.8943H26.1727C25.9025 42.8941 25.6396 42.9821 25.424 43.145C25.2083 43.3079 25.0517 43.5366 24.9779 43.7966C24.9042 44.0565 24.9172 44.3335 25.0152 44.5853C25.1131 44.8372 25.2906 45.0502 25.5206 45.192C25.7506 45.3338 26.0206 45.3967 26.2896 45.3711C26.5586 45.3455 26.8119 45.2328 27.0111 45.0501C27.2102 44.8674 27.3443 44.6248 27.3929 44.3589C27.4416 44.0931 27.4021 43.8187 27.2806 43.5773L27.064 43.494Z" fill="#E87722"/>
<path d="M22.9072 6.14108C22.9923 6.12701 23.0738 6.09613 23.1469 6.05024C23.2199 6.00436 23.2831 5.94438 23.3327 5.87382C23.3823 5.80325 23.4174 5.72351 23.4359 5.63925C23.4544 5.55499 23.4559 5.46789 23.4404 5.38303C23.3975 5.22464 23.297 5.08798 23.1586 4.99984C23.0202 4.91171 22.8539 4.87846 22.6922 4.90662C22.5305 4.93478 22.3852 5.02232 22.2848 5.15206C22.1843 5.2818 22.136 5.44439 22.1492 5.60795C22.1633 5.69306 22.1941 5.77452 22.24 5.84757C22.2859 5.92062 22.3459 5.9838 22.4165 6.03342C22.487 6.08305 22.5668 6.11813 22.651 6.13661C22.7353 6.1551 22.8224 6.15662 22.9072 6.14108Z" fill="#E87722"/>
<path d="M29.7631 42.661C29.7848 42.5559 29.8154 42.4527 29.8547 42.3528C29.7191 42.3361 29.5821 42.3361 29.4465 42.3528C29.4465 42.4361 29.3965 42.5194 29.3632 42.6027C29.2489 42.876 29.0676 43.1161 28.8362 43.301C28.6047 43.4859 28.3305 43.6095 28.0387 43.6606C28.0138 43.8207 28.0138 43.9837 28.0387 44.1438C28.1098 44.5435 28.3365 44.8987 28.6692 45.1313C29.0018 45.364 29.4132 45.4553 29.813 45.385C30.0906 45.3375 30.3493 45.2132 30.5598 45.0262C30.7703 44.8393 30.9243 44.5971 31.0043 44.3271H30.896C30.7122 44.2921 30.5371 44.2212 30.3807 44.1186C30.2243 44.0159 30.0896 43.8834 29.9844 43.7287C29.8792 43.574 29.8055 43.4001 29.7675 43.2169C29.7295 43.0337 29.728 42.8448 29.7631 42.661Z" fill="#E87722"/>
<path d="M19.5168 7.1907C19.9677 7.1907 20.3332 6.8252 20.3332 6.37433C20.3332 5.92347 19.9677 5.55797 19.5168 5.55797C19.0659 5.55797 18.7004 5.92347 18.7004 6.37433C18.7004 6.8252 19.0659 7.1907 19.5168 7.1907Z" fill="#E87722"/>
<path d="M15.9431 6.94079C15.772 7.03966 15.634 7.18706 15.5466 7.36434C15.4592 7.54163 15.4263 7.74085 15.4521 7.93682C15.4779 8.13279 15.5612 8.31672 15.6915 8.46535C15.8218 8.61398 15.9932 8.72065 16.1841 8.77187C16.375 8.82309 16.5768 8.81656 16.764 8.75311C16.9512 8.68966 17.1154 8.57214 17.2358 8.41539C17.3563 8.25865 17.4275 8.06972 17.4406 7.8725C17.4537 7.67527 17.408 7.47859 17.3093 7.30732C17.2445 7.19267 17.1575 7.09208 17.0535 7.01141C16.9494 6.93075 16.8303 6.87163 16.7031 6.83751C16.5759 6.80338 16.4432 6.79494 16.3127 6.81268C16.1822 6.83041 16.0566 6.87396 15.9431 6.94079Z" fill="#E87722"/>
<path d="M35.1444 40.1619C34.8434 40.334 34.61 40.6036 34.4828 40.9262C34.3556 41.2487 34.3421 41.605 34.4447 41.9363C34.2248 41.5558 33.8787 41.2642 33.4664 41.112C33.0541 40.9599 32.6015 40.9568 32.1872 41.1033C31.9641 41.1841 31.7579 41.3056 31.5791 41.4615C31.8785 41.5531 32.1394 41.7408 32.3214 41.9956C32.5034 42.2504 32.5963 42.5581 32.5859 42.871C32.5755 43.184 32.4622 43.4848 32.2637 43.7269C32.0651 43.969 31.7923 44.139 31.4874 44.2104C31.6686 44.3914 31.8845 44.5339 32.1221 44.6293C32.3597 44.7247 32.6142 44.7711 32.8702 44.7657C33.1262 44.7602 33.3785 44.7031 33.6118 44.5976C33.8452 44.4922 34.0548 44.3407 34.2281 44.1521C34.0098 44.0499 33.8292 43.8817 33.7117 43.6712C33.5943 43.4608 33.5459 43.2187 33.5735 42.9793C33.6012 42.7398 33.7034 42.5151 33.8657 42.3369C34.028 42.1587 34.2422 42.0361 34.478 41.9863H34.6779C34.9644 41.9783 35.2434 42.0784 35.4595 42.2667C35.6756 42.455 35.8129 42.7177 35.8442 43.0026C36.1363 43.0168 36.4261 42.9444 36.6772 42.7943C36.8592 42.6985 37.0199 42.5668 37.1497 42.4073C37.2794 42.2477 37.3756 42.0636 37.4323 41.8659C37.4891 41.6682 37.5052 41.4611 37.4798 41.257C37.4544 41.0529 37.3879 40.856 37.2844 40.6783C37.1809 40.5006 37.0425 40.3456 36.8776 40.2228C36.7126 40.0999 36.5245 40.0117 36.3246 39.9635C36.1247 39.9152 35.917 39.9079 35.7142 39.942C35.5114 39.9762 35.3176 40.0509 35.1444 40.1619Z" fill="#E87722"/>
<path d="M12.8693 8.80677C12.6803 8.96429 12.5425 9.17437 12.4732 9.41037C12.4039 9.64637 12.4063 9.89763 12.48 10.1323C12.5538 10.3669 12.6956 10.5744 12.8874 10.7283C13.0793 10.8822 13.3126 10.9756 13.5576 10.9967C13.8027 11.0178 14.0485 10.9656 14.2638 10.8468C14.4792 10.728 14.6544 10.5478 14.7671 10.3292C14.8799 10.1107 14.9252 9.86352 14.8973 9.61915C14.8694 9.37478 14.7695 9.14421 14.6103 8.95672C14.3985 8.70725 14.0967 8.55153 13.7706 8.52344C13.4446 8.49536 13.1206 8.59719 12.8693 8.80677Z" fill="#E87722"/>
<path d="M39.6344 38.7791C39.4769 38.5902 39.2668 38.4523 39.0308 38.383C38.7948 38.3138 38.5436 38.3161 38.3089 38.3899C38.0743 38.4636 37.8669 38.6054 37.7129 38.7973C37.559 38.9892 37.4656 39.2224 37.4445 39.4675C37.4234 39.7125 37.4756 39.9583 37.5944 40.1737C37.7132 40.389 37.8934 40.5642 38.112 40.677C38.3305 40.7898 38.5777 40.8351 38.8221 40.8072C39.0664 40.7792 39.297 40.6793 39.4845 40.5201C39.5322 40.485 39.5743 40.4429 39.6094 40.3952C39.7399 40.2533 39.8362 40.0834 39.8911 39.8987C39.9459 39.7139 39.9579 39.519 39.926 39.3289C39.8771 39.1239 39.7767 38.9346 39.6344 38.7791Z" fill="#E87722"/>
<path d="M12.2445 11.006C11.9364 10.7721 11.5513 10.6634 11.1664 10.7016C10.7815 10.7398 10.4253 10.9221 10.1692 11.212C9.91313 11.5018 9.77606 11.8777 9.78552 12.2644C9.79498 12.651 9.95026 13.0198 10.2202 13.2968C9.78835 13.0783 9.28914 13.0338 8.82541 13.1723C8.36167 13.3109 7.9687 13.6219 7.72743 14.0415C7.48616 14.4611 7.41494 14.9572 7.52845 15.4276C7.64196 15.8981 7.93154 16.3072 8.33758 16.5706C7.9717 16.4622 7.57831 16.4965 7.23674 16.6667C6.89518 16.8369 6.63085 17.1302 6.49706 17.4876C6.36328 17.845 6.36999 18.2398 6.51584 18.5925C6.66169 18.9451 6.93583 19.2293 7.28298 19.3878C7.63013 19.5463 8.02446 19.5673 8.38645 19.4465C8.74844 19.3257 9.05115 19.0721 9.23355 18.7369C9.41595 18.4017 9.46446 18.0098 9.3693 17.6402C9.27414 17.2707 9.04238 16.9509 8.72078 16.7455C9.14086 16.9009 9.60248 16.9022 10.0234 16.749C10.4443 16.5959 10.7972 16.2983 11.0192 15.9093C11.2412 15.5203 11.318 15.0651 11.2357 14.6248C11.1535 14.1845 10.9176 13.7877 10.5701 13.505C10.8985 13.6498 11.2674 13.6741 11.6119 13.5737C11.9565 13.4732 12.2545 13.2544 12.4536 12.9558C12.6526 12.6572 12.74 12.2979 12.7002 11.9413C12.6604 11.5846 12.4961 11.2534 12.2362 11.006H12.2445Z" fill="#E87722"/>
<path d="M40.709 36.2467C40.5559 36.3051 40.4209 36.4028 40.3175 36.5299C40.147 36.7346 40.0644 36.9984 40.0878 37.2638C40.1112 37.5291 40.2387 37.7745 40.4425 37.9461C40.5561 38.0369 40.6862 38.1048 40.8257 38.146C40.9806 38.1897 41.1437 38.1957 41.3014 38.1635C41.4591 38.1313 41.6068 38.0617 41.7321 37.9607C41.8575 37.8597 41.9568 37.7301 42.0217 37.5828C42.0867 37.4355 42.1155 37.2748 42.1056 37.1142C42.0957 36.9535 42.0475 36.7976 41.965 36.6593C41.8825 36.5211 41.7681 36.4047 41.6314 36.3197C41.4946 36.2348 41.3396 36.1838 41.1791 36.1711C41.0186 36.1584 40.8574 36.1843 40.709 36.2467Z" fill="#E87722"/>
<path d="M43.4414 33.6893C43.2686 33.6164 43.0763 33.6038 42.8955 33.6538C42.7147 33.7037 42.5561 33.8132 42.4453 33.9645C42.3345 34.1158 42.2779 34.3 42.2849 34.4874C42.2918 34.6749 42.3617 34.8544 42.4834 34.9972C42.527 35.0353 42.5745 35.0688 42.625 35.0971C42.8119 35.1995 43.031 35.2263 43.237 35.172C43.4431 35.1178 43.6206 34.9867 43.7329 34.8056C43.8378 34.6178 43.866 34.3968 43.8117 34.1888C43.7573 33.9807 43.6246 33.8018 43.4414 33.6893Z" fill="#E87722"/>
<path d="M44.6909 30.6987C44.622 30.6868 44.5516 30.6868 44.4827 30.6987C44.3445 30.6931 44.2083 30.7322 44.0942 30.8103C43.9801 30.8883 43.8943 31.0011 43.8496 31.1319C43.8125 31.2484 43.8125 31.3736 43.8496 31.4901C43.8708 31.6 43.9204 31.7024 43.9935 31.7871C44.0666 31.8719 44.1605 31.9361 44.2661 31.9733C44.4285 32.0298 44.6067 32.0206 44.7624 31.9474C44.9181 31.8742 45.039 31.7429 45.0991 31.5817C45.1334 31.4972 45.1499 31.4066 45.1477 31.3154C45.1455 31.2243 45.1247 31.1345 45.0864 31.0518C45.0481 30.969 44.9933 30.895 44.9253 30.8342C44.8572 30.7735 44.7775 30.7274 44.6909 30.6987Z" fill="#E87722"/>
<path d="M6.78815 22.5017C6.95148 22.538 7.12048 22.5406 7.28484 22.5094C7.44921 22.4782 7.60551 22.4139 7.74423 22.3204C7.88295 22.2269 8.00118 22.1061 8.09173 21.9654C8.18228 21.8247 8.24326 21.6671 8.27094 21.5021C8.32675 21.1775 8.25217 20.8441 8.06341 20.5742C7.87466 20.3043 7.587 20.1199 7.26298 20.061C7.09855 20.0248 6.92848 20.0224 6.7631 20.054C6.59773 20.0856 6.44052 20.1506 6.30104 20.2449C6.16155 20.3391 6.04271 20.4608 5.95173 20.6025C5.86076 20.7442 5.79956 20.9029 5.77186 21.0689C5.74206 21.23 5.74488 21.3954 5.78015 21.5553C5.81542 21.7153 5.88241 21.8665 5.97717 22.0001C6.07193 22.1337 6.19253 22.247 6.33183 22.3331C6.47113 22.4193 6.6263 22.4766 6.78815 22.5017Z" fill="#E87722"/>
<path d="M45.4573 27.3916C45.2843 27.3648 45.1076 27.4063 44.9646 27.5073C44.8216 27.6084 44.7234 27.761 44.6909 27.9331C44.6766 28.0184 44.6793 28.1057 44.6987 28.1901C44.7182 28.2744 44.7541 28.354 44.8044 28.4244C44.8547 28.4948 44.9184 28.5546 44.9918 28.6004C45.0653 28.6462 45.147 28.677 45.2324 28.6911C45.3172 28.7067 45.4043 28.7052 45.4886 28.6867C45.5729 28.6682 45.6526 28.6331 45.7232 28.5835C45.7937 28.5339 45.8537 28.4707 45.8996 28.3976C45.9455 28.3246 45.9764 28.2431 45.9904 28.158C46.006 28.0727 46.0046 27.9851 45.9862 27.9003C45.9678 27.8155 45.9328 27.7351 45.8833 27.6639C45.8337 27.5927 45.7706 27.532 45.6975 27.4852C45.6244 27.4385 45.5428 27.4067 45.4573 27.3916Z" fill="#E87722"/>
<path d="M6.71318 25.6756C7.26986 25.6756 7.72114 25.2243 7.72114 24.6676C7.72114 24.1109 7.26986 23.6597 6.71318 23.6597C6.1565 23.6597 5.70522 24.1109 5.70522 24.6676C5.70522 25.2243 6.1565 25.6756 6.71318 25.6756Z" fill="#E87722"/>
<path d="M45.6406 25.484C46.0914 25.484 46.4569 25.1185 46.4569 24.6676C46.4569 24.2168 46.0914 23.8513 45.6406 23.8513C45.1897 23.8513 44.8242 24.2168 44.8242 24.6676C44.8242 25.1185 45.1897 25.484 45.6406 25.484Z" fill="#E87722"/>
<path d="M7.80445 27.8998C7.77948 27.7351 7.70575 27.5818 7.59276 27.4594C7.47978 27.3371 7.33273 27.2515 7.17059 27.2135C7.00846 27.1756 6.83867 27.1871 6.68315 27.2466C6.52763 27.3062 6.39352 27.4109 6.29811 27.5474C6.2027 27.6838 6.15038 27.8458 6.1479 28.0123C6.14542 28.1788 6.19289 28.3422 6.2842 28.4814C6.3755 28.6207 6.50644 28.7294 6.66012 28.7935C6.81379 28.8576 6.98316 28.8742 7.14635 28.8411C7.35588 28.7986 7.54106 28.6772 7.66356 28.502C7.78606 28.3268 7.8365 28.1111 7.80445 27.8998Z" fill="#E87722"/>
<path d="M45.1657 20.2942C44.9724 20.3292 44.7936 20.4204 44.6518 20.5565C44.5099 20.6925 44.4114 20.8674 44.3684 21.0591C44.3253 21.2509 44.3398 21.4511 44.41 21.6347C44.4801 21.8183 44.6028 21.9771 44.7627 22.0913C44.9227 22.2055 45.1127 22.2701 45.3091 22.2769C45.5055 22.2837 45.6996 22.2325 45.867 22.1296C46.0345 22.0267 46.1679 21.8768 46.2506 21.6985C46.3333 21.5202 46.3616 21.3215 46.332 21.1273C46.3118 20.9952 46.2654 20.8685 46.1955 20.7546C46.1256 20.6408 46.0335 20.5421 45.9248 20.4644C45.8161 20.3868 45.6929 20.3317 45.5625 20.3025C45.4321 20.2732 45.2972 20.2704 45.1657 20.2942Z" fill="#E87722"/>
<path d="M7.66283 30.6987C7.49824 30.7584 7.36408 30.881 7.28987 31.0396C7.21567 31.1981 7.20749 31.3797 7.26714 31.5443C7.32679 31.7089 7.44939 31.843 7.60795 31.9172C7.76652 31.9914 7.94807 31.9996 8.11267 31.94C8.27726 31.8803 8.41142 31.7577 8.48562 31.5991C8.55983 31.4406 8.56801 31.259 8.50835 31.0944C8.4487 30.9298 8.32611 30.7957 8.16754 30.7215C8.00898 30.6473 7.82743 30.6391 7.66283 30.6987Z" fill="#E87722"/>
<path d="M44.0412 16.8372C43.8105 16.9218 43.6101 17.073 43.4655 17.2716C43.3208 17.4702 43.2383 17.7072 43.2285 17.9527C43.2186 18.1982 43.2819 18.4411 43.4102 18.6507C43.5385 18.8602 43.7262 19.0269 43.9493 19.1297C44.1725 19.2325 44.4211 19.2668 44.6638 19.2282C44.9064 19.1896 45.1321 19.0798 45.3123 18.9128C45.4926 18.7458 45.6192 18.5291 45.6761 18.2901C45.7331 18.0511 45.7178 17.8005 45.6322 17.5702C45.5765 17.4171 45.4911 17.2766 45.3808 17.1568C45.2705 17.0369 45.1375 16.9401 44.9895 16.8719C44.8416 16.8038 44.6816 16.7656 44.5188 16.7596C44.356 16.7537 44.1937 16.78 44.0412 16.8372Z" fill="#E87722"/>
<path d="M9.7454 33.9809C9.65181 33.8878 9.53048 33.8277 9.39975 33.8097C9.26901 33.7917 9.13595 33.8167 9.02067 33.8809C8.95086 33.9205 8.88971 33.9737 8.84085 34.0374C8.79199 34.1011 8.75641 34.1739 8.73621 34.2516C8.71601 34.3293 8.71161 34.4102 8.72327 34.4897C8.73493 34.5691 8.76241 34.6453 8.80408 34.7139C8.84283 34.7846 8.89562 34.8466 8.95921 34.8962C9.0228 34.9457 9.09584 34.9817 9.17385 35.002C9.25187 35.0223 9.3332 35.0264 9.41286 35.0141C9.49252 35.0018 9.56883 34.9734 9.63711 34.9305H9.69542C9.8143 34.8449 9.8966 34.7176 9.92592 34.5741C9.95525 34.4305 9.92946 34.2812 9.85369 34.1558C9.82809 34.0916 9.79144 34.0324 9.7454 33.9809Z" fill="#E87722"/>
<path d="M11.4864 36.7465C11.4148 36.7079 11.3346 36.6876 11.2532 36.6876C11.1718 36.6876 11.0916 36.7079 11.0199 36.7465H10.9533C10.8571 36.8289 10.797 36.9458 10.7861 37.072C10.7752 37.1982 10.8143 37.3236 10.895 37.4213C10.9345 37.4705 10.9835 37.5113 11.039 37.5413C11.0946 37.5714 11.1555 37.5901 11.2184 37.5963C11.2812 37.6025 11.3446 37.5961 11.405 37.5775C11.4653 37.5589 11.5213 37.5284 11.5697 37.4879C11.6558 37.4018 11.7069 37.2869 11.713 37.1653C11.7192 37.0437 11.68 36.9242 11.6031 36.8298C11.5682 36.7968 11.529 36.7687 11.4864 36.7465Z" fill="#E87722"/>
<path d="M39.6011 11.006C39.3336 11.3477 39.1917 11.771 39.1993 12.2049C39.2069 12.6388 39.3635 13.0569 39.6429 13.389C39.9223 13.7211 40.3074 13.947 40.7335 14.0288C41.1597 14.1106 41.6011 14.0433 41.9836 13.8383C41.6942 14.1035 41.5163 14.4686 41.4858 14.8599C41.4553 15.2512 41.5744 15.6395 41.8191 15.9464C42.0638 16.2533 42.4158 16.4559 42.8041 16.5132C43.1924 16.5706 43.588 16.4785 43.9109 16.2555C44.2339 16.0324 44.4602 15.6952 44.5441 15.3118C44.6281 14.9284 44.5634 14.5274 44.3631 14.1898C44.1628 13.8523 43.8419 13.6033 43.4652 13.4932C43.0884 13.3831 42.684 13.4201 42.3334 13.5967C42.6502 13.3162 42.8642 12.938 42.9416 12.5221C42.8349 12.2546 42.8349 11.9565 42.9416 11.689C42.8735 11.4129 42.7423 11.1563 42.5584 10.9393C42.4773 10.8402 42.385 10.7508 42.2835 10.6728C42.266 10.75 42.2409 10.8254 42.2085 10.8977C42.1047 11.1502 41.9302 11.3673 41.7059 11.523C41.4816 11.6786 41.2171 11.7661 40.9442 11.7749C40.6714 11.7837 40.4018 11.7134 40.1679 11.5726C39.9341 11.4317 39.7459 11.2263 39.6261 10.981L39.6011 11.006Z" fill="#E87722"/>
<path d="M13.2691 39.2289C13.178 39.3443 13.1361 39.491 13.1525 39.6371C13.1686 39.7699 13.234 39.8918 13.3357 39.9787C13.4029 40.0378 13.4841 40.0789 13.5716 40.0978C13.6591 40.1168 13.7499 40.113 13.8356 40.087C13.9322 40.0546 14.0184 39.9971 14.0855 39.9204C14.1773 39.8117 14.2227 39.6712 14.2117 39.5294C14.2008 39.3875 14.1345 39.2557 14.0272 39.1623C13.9166 39.0735 13.776 39.0309 13.6347 39.0433C13.4935 39.0557 13.3625 39.1222 13.2691 39.2289Z" fill="#E87722"/>
<path d="M39.6011 11.006C39.5143 10.8223 39.4693 10.6218 39.4693 10.4187C39.4693 10.2156 39.5143 10.015 39.6011 9.8314C39.712 9.56767 39.8973 9.34191 40.1343 9.18164C40.041 8.95859 39.8953 8.7614 39.7094 8.60685C39.4735 8.40872 39.183 8.28674 38.8764 8.25698C39.0351 8.45299 39.1493 8.68115 39.2112 8.92567C39.273 9.17018 39.281 9.42522 39.2346 9.67312C39.1573 10.005 38.9856 10.3075 38.7402 10.544C38.4948 10.7805 38.1863 10.9409 37.8518 11.006C38.109 11.1833 38.414 11.2782 38.7264 11.2782C39.0389 11.2782 39.3439 11.1833 39.6011 11.006Z" fill="#E87722"/>
<path d="M16.7762 40.945C16.6244 40.8598 16.4452 40.8373 16.2771 40.8825C16.109 40.9276 15.9652 41.0368 15.8765 41.1866C15.7987 41.3361 15.7813 41.5099 15.8279 41.6719C15.8744 41.8339 15.9814 41.9719 16.1267 42.0574C16.272 42.1429 16.4446 42.1693 16.6088 42.1313C16.7731 42.0933 16.9165 41.9936 17.0094 41.853C17.0958 41.7009 17.1197 41.5212 17.0762 41.3519C17.0327 41.1825 16.9251 41.0366 16.7762 40.945Z" fill="#E87722"/>
<path d="M35.9608 8.39859C36.0841 8.18423 36.252 7.9989 36.4533 7.85517C36.6545 7.71144 36.8843 7.61267 37.127 7.56556C37.0933 7.39158 37.0222 7.22699 36.9186 7.08317C36.8151 6.93935 36.6815 6.81971 36.5272 6.73253C36.2528 6.57276 35.9279 6.52345 35.6184 6.59463C35.309 6.6658 35.0382 6.85212 34.8612 7.11573C35.1216 7.24418 35.3533 7.42408 35.5423 7.64457C35.7313 7.86506 35.8737 8.12156 35.9608 8.39859Z" fill="#E87722"/>
<path d="M19.8 42.1862C19.6451 42.125 19.4755 42.1116 19.3129 42.1478C19.1503 42.184 19.0023 42.2681 18.888 42.3893C18.7737 42.5104 18.6984 42.6631 18.6717 42.8275C18.645 42.9919 18.6682 43.1605 18.7383 43.3116C18.8084 43.4626 18.9222 43.5892 19.065 43.675C19.2077 43.7608 19.3729 43.8018 19.5392 43.7927C19.7055 43.7837 19.8653 43.725 19.9979 43.6242C20.1305 43.5235 20.2299 43.3853 20.2832 43.2275C20.3516 43.0251 20.3395 42.8041 20.2496 42.6103C20.1597 42.4165 19.9987 42.2647 19.8 42.1862Z" fill="#E87722"/>
<path d="M32.4871 7.31565H32.5537C32.8801 7.05287 33.2774 6.89336 33.6949 6.85749C33.7277 6.80458 33.7556 6.74881 33.7782 6.69088C33.847 6.50364 33.8586 6.3002 33.8117 6.10634C33.7647 5.91248 33.6613 5.73691 33.5145 5.60185C33.3678 5.46678 33.1842 5.3783 32.9871 5.34761C32.79 5.31691 32.5883 5.34538 32.4074 5.42941C32.2265 5.51344 32.0746 5.64926 31.9709 5.81966C31.8672 5.99006 31.8164 6.1874 31.825 6.38668C31.8335 6.58596 31.901 6.77823 32.0188 6.93915C32.1367 7.10007 32.2996 7.2224 32.4871 7.29066V7.31565Z" fill="#E87722"/>
<path d="M22.9655 42.8443C22.7709 42.8143 22.5717 42.8425 22.3931 42.9254C22.2144 43.0082 22.0642 43.1419 21.9612 43.3098C21.8583 43.4777 21.8073 43.6723 21.8145 43.8691C21.8218 44.0659 21.887 44.2562 22.002 44.4161C22.117 44.5759 22.2767 44.6983 22.461 44.7677C22.6453 44.8372 22.846 44.8506 23.0379 44.8064C23.2298 44.7622 23.4044 44.6623 23.5397 44.5192C23.675 44.3761 23.7651 44.1963 23.7986 44.0022C23.8223 43.8712 23.8195 43.7368 23.7901 43.6069C23.7608 43.4771 23.7056 43.3545 23.6279 43.2464C23.5501 43.1383 23.4514 43.047 23.3376 42.9779C23.2238 42.9089 23.0973 42.8634 22.9655 42.8443Z" fill="#E87722"/>
<path d="M29.4132 6.29936C29.5764 6.33245 29.7457 6.31586 29.8994 6.25176C30.0531 6.18765 30.184 6.07895 30.2753 5.9397C30.3666 5.80045 30.4141 5.63703 30.4116 5.47054C30.4092 5.30404 30.3568 5.14211 30.2614 5.00564C30.166 4.86917 30.0319 4.76442 29.8764 4.70492C29.7209 4.64541 29.5511 4.63388 29.3889 4.67182C29.2268 4.70975 29.0798 4.7954 28.9668 4.91772C28.8538 5.04004 28.7801 5.19341 28.7551 5.35804C28.723 5.56942 28.7735 5.78503 28.896 5.96025C29.0185 6.13547 29.2037 6.25688 29.4132 6.29936Z" fill="#E87722"/>
<path d="M20.9416 34.264C20.795 34.0235 20.5803 33.8318 20.3247 33.7132C20.0692 33.5946 19.7842 33.5545 19.5058 33.5979C19.2274 33.6414 18.9681 33.7663 18.7608 33.9571C18.5535 34.1479 18.4074 34.3958 18.3409 34.6696C18.2745 34.9434 18.2908 35.2308 18.3877 35.4953C18.4846 35.7599 18.6578 35.9898 18.8853 36.1559C19.1129 36.322 19.3846 36.4169 19.6661 36.4287C19.9476 36.4404 20.2262 36.3683 20.4668 36.2217C20.6274 36.1251 20.7671 35.9976 20.8781 35.8466C20.989 35.6956 21.0688 35.5241 21.113 35.342C21.1572 35.1599 21.1648 34.9709 21.1353 34.7858C21.1059 34.6008 21.0401 34.4234 20.9416 34.264Z" fill="#00B5E2"/>
<path d="M48.8814 18.1533C49.3967 18.1533 49.8144 17.7356 49.8144 17.2203C49.8144 16.705 49.3967 16.2873 48.8814 16.2873C48.3661 16.2873 47.9484 16.705 47.9484 17.2203C47.9484 17.7356 48.3661 18.1533 48.8814 18.1533Z" fill="#00B5E2"/>
<path d="M47.3569 15.0628C47.537 14.8926 47.6421 14.658 47.6491 14.4103C47.6562 14.1627 47.5645 13.9225 47.3944 13.7424C47.2243 13.5623 46.9896 13.4572 46.742 13.4502C46.4944 13.4432 46.2541 13.5348 46.0741 13.7049C45.894 13.875 45.7889 14.1097 45.7819 14.3573C45.7749 14.6049 45.8665 14.8452 46.0366 15.0253C46.2067 15.2053 46.4414 15.3104 46.689 15.3175C46.9366 15.3245 47.1769 15.2329 47.3569 15.0628Z" fill="#00B5E2"/>
<path d="M44.9245 12.7136C45.0979 12.4629 45.1646 12.1535 45.11 11.8535C45.0553 11.5536 44.8837 11.2876 44.6329 11.1142C44.3822 10.9408 44.0728 10.8741 43.7729 10.9287C43.4729 10.9834 43.207 11.155 43.0335 11.4058C42.9748 11.494 42.9272 11.5891 42.8919 11.689C42.9538 11.9632 42.9538 12.2478 42.8919 12.522C42.9707 12.7131 43.0995 12.8794 43.2649 13.0034C43.4302 13.1274 43.6259 13.2045 43.8314 13.2267C44.0368 13.2489 44.2445 13.2152 44.4325 13.1294C44.6204 13.0435 44.7818 12.9085 44.8995 12.7386L44.9245 12.7136Z" fill="#00B5E2"/>
<path d="M28.4139 40.2618C28.1452 40.1461 27.8518 40.1 27.5606 40.1277C27.2694 40.1553 26.9899 40.2559 26.7478 40.4201C26.7936 40.0294 26.732 39.6337 26.5699 39.2753C26.4077 38.917 26.151 38.6095 25.8273 38.386C25.5036 38.1625 25.1252 38.0314 24.7326 38.0067C24.34 37.982 23.9481 38.0647 23.599 38.2459C23.6631 37.9629 23.6571 37.6685 23.5816 37.3884C23.5062 37.1082 23.3634 36.8507 23.1658 36.6382C22.9464 36.405 22.6675 36.2363 22.3592 36.1501C22.0509 36.0639 21.7249 36.0635 21.4164 36.149C21.1079 36.2345 20.8286 36.4027 20.6086 36.6353C20.3887 36.8679 20.2365 37.1562 20.1684 37.469C20.1003 37.7818 20.1189 38.1073 20.2223 38.4103C20.3257 38.7133 20.5098 38.9823 20.7549 39.1883C20.9999 39.3943 21.2966 39.5294 21.6128 39.5792C21.9291 39.6289 22.2529 39.5913 22.5494 39.4705C22.3976 39.9178 22.3962 40.4025 22.5455 40.8507C22.6947 41.2989 22.9864 41.6861 23.3761 41.9531C23.7658 42.2201 24.2321 42.3524 24.704 42.3298C25.1758 42.3072 25.6274 42.131 25.9898 41.8279C25.9783 42.2068 26.0925 42.5788 26.3147 42.8859C26.519 42.9095 26.7143 42.9835 26.883 43.1012C27.0517 43.219 27.1884 43.3769 27.281 43.5606C27.5303 43.6189 27.7897 43.6189 28.039 43.5606C28.0865 43.2428 28.2327 42.9479 28.457 42.7177C28.6812 42.4875 28.9721 42.3336 29.2886 42.2778H29.4468C29.5417 41.8738 29.4899 41.4493 29.3007 41.08C29.1115 40.7108 28.7972 40.4208 28.4139 40.2618Z" fill="#00B5E2"/>
<path d="M42.2588 10.6727C42.3233 10.3957 42.3035 10.1058 42.2018 9.84024C42.1002 9.57466 41.9213 9.34559 41.6884 9.18251C41.4554 9.01943 41.179 8.92982 40.8946 8.9252C40.6103 8.92058 40.3311 9.00117 40.0929 9.15659C40.1999 9.40186 40.2408 9.67086 40.2116 9.93684C40.1824 10.2028 40.084 10.4565 39.9263 10.6727C40.2592 10.4119 40.6698 10.2702 41.0926 10.2702C41.5154 10.2702 41.926 10.4119 42.2588 10.6727Z" fill="#00B5E2"/>
<path d="M39.6098 11.0059C39.7029 10.9394 39.7869 10.8609 39.8597 10.7727L39.9263 10.6727C39.808 10.7708 39.7017 10.8827 39.6098 11.0059Z" fill="#00B5E2"/>
<path d="M31.0046 44.327C31.1647 44.3523 31.3277 44.3523 31.4878 44.327C31.3104 44.1409 31.1691 43.9234 31.0712 43.6856C31.1002 43.9017 31.0774 44.1215 31.0046 44.327Z" fill="#00B5E2"/>
<path d="M29.855 42.3278C30.0991 42.3788 30.3273 42.488 30.5202 42.646C30.7131 42.8041 30.865 43.0064 30.963 43.2358C30.9228 42.9289 30.958 42.6168 31.0654 42.3266C31.1728 42.0363 31.3492 41.7766 31.5794 41.5697H31.4211C31.113 41.5053 30.7922 41.5447 30.5089 41.6818C30.2256 41.819 29.9956 42.0461 29.855 42.3278Z" fill="#00B5E2"/>
<path d="M37.7771 7.60716C37.5626 7.56452 37.3418 7.56452 37.1274 7.60716C37.1803 7.89383 37.127 8.18996 36.9774 8.44019C36.8831 8.60711 36.7512 8.74974 36.5921 8.85675C36.4331 8.96376 36.2512 9.0322 36.0611 9.05663C35.9476 9.06908 35.833 9.06908 35.7195 9.05663C35.567 9.03436 35.42 8.98349 35.2864 8.90668C35.0099 8.74157 34.8085 8.47549 34.7245 8.16462C34.6406 7.85376 34.6808 7.52244 34.8365 7.24063C34.8338 7.21571 34.8338 7.19057 34.8365 7.16566C34.5348 6.97754 34.1916 6.86602 33.8369 6.84077H33.6953C33.5823 7.03237 33.4091 7.1812 33.2026 7.26407C32.9962 7.34694 32.7682 7.3592 32.554 7.29894C32.1697 7.60219 31.9019 8.02888 31.796 8.50683C31.5611 8.17412 31.218 7.9333 30.8252 7.82553C30.4325 7.71776 30.0145 7.74971 29.6427 7.91594C29.2709 8.08217 28.9683 8.37235 28.7868 8.7369C28.6052 9.10145 28.5558 9.51775 28.6471 9.91465C28.7428 10.2717 28.9487 10.5894 29.2354 10.8227C29.522 11.0561 29.875 11.1931 30.244 11.2143C30.613 11.2355 30.9793 11.1398 31.2908 10.9409C31.6024 10.742 31.8432 10.4499 31.9792 10.1062C32.1686 10.4524 32.4503 10.7392 32.793 10.9348C33.1356 11.1304 33.5259 11.2271 33.9202 11.2142C34.3201 11.2102 34.7111 11.0951 35.0494 10.8819C35.3878 10.6686 35.6601 10.3654 35.8362 10.0063C35.9479 10.2743 36.1244 10.5104 36.3497 10.6936C36.575 10.8767 36.8422 11.0012 37.1274 11.0559C37.3668 11.1018 37.6127 11.1018 37.8521 11.0559L37.7021 10.9393C37.4515 10.7312 37.2742 10.4484 37.196 10.1322C37.1178 9.81597 37.143 9.48305 37.2678 9.1822C37.3926 8.88135 37.6105 8.62838 37.8896 8.46037C38.1686 8.29236 38.4941 8.21814 38.8184 8.24859C38.5624 7.91356 38.1915 7.68509 37.7771 7.60716Z" fill="#00B5E2"/>
<path d="M34.6199 42.3527C34.7283 42.6716 34.7491 43.0137 34.6803 43.3434C34.6114 43.6731 34.4554 43.9782 34.2284 44.2271C34.3891 44.3049 34.5665 44.342 34.7449 44.3353C34.8959 44.3321 35.0447 44.2991 35.183 44.2383C35.3212 44.1776 35.4461 44.0901 35.5505 43.981C35.655 43.872 35.7369 43.7434 35.7916 43.6026C35.8463 43.4619 35.8728 43.3117 35.8695 43.1608C35.8739 43.1248 35.8739 43.0884 35.8695 43.0525C35.6204 43.0443 35.377 42.9765 35.1595 42.8547C34.9421 42.733 34.7571 42.5608 34.6199 42.3527Z" fill="#00B5E2"/>
<path d="M38.0437 41.8279C37.8351 41.8728 37.6481 41.9878 37.514 42.1538C37.3799 42.3198 37.3067 42.5267 37.3067 42.7401C37.3067 42.9535 37.3799 43.1604 37.514 43.3264C37.6481 43.4924 37.8351 43.6074 38.0437 43.6523C37.943 43.4155 37.9099 43.1555 37.9482 42.9011C37.9864 42.6467 38.0944 42.4078 38.2603 42.2111C38.3682 42.0859 38.498 41.9815 38.6435 41.9029C38.4572 41.8127 38.2464 41.7863 38.0437 41.8279Z" fill="#00B5E2"/>
<path d="M40.7594 41.8696C40.7625 41.8945 40.7625 41.9197 40.7594 41.9446C40.8549 42.1477 41.0206 42.3097 41.2259 42.4006C41.4312 42.4915 41.6624 42.5053 41.8771 42.4395C42.0918 42.3736 42.2755 42.2326 42.3946 42.0422C42.5137 41.8519 42.5601 41.6249 42.5254 41.4031C42.3054 41.6401 42.0226 41.8097 41.71 41.8923C41.3973 41.9749 41.0677 41.967 40.7594 41.8696Z" fill="#00B5E2"/>
<path d="M26.9811 12.1138C27.7678 12.1138 28.4056 11.4761 28.4056 10.6894C28.4056 9.90265 27.7678 9.26489 26.9811 9.26489C26.1944 9.26489 25.5566 9.90265 25.5566 10.6894C25.5566 11.4761 26.1944 12.1138 26.9811 12.1138Z" fill="#00B5E2"/>
<path d="M44.6746 40.8283C45.3095 40.8283 45.8242 40.3136 45.8242 39.6787C45.8242 39.0438 45.3095 38.5291 44.6746 38.5291C44.0397 38.5291 43.525 39.0438 43.525 39.6787C43.525 40.3136 44.0397 40.8283 44.6746 40.8283Z" fill="#00B5E2"/>
<path d="M23.9405 13.6966C24.5754 13.6966 25.0901 13.1819 25.0901 12.547C25.0901 11.9121 24.5754 11.3974 23.9405 11.3974C23.3056 11.3974 22.791 11.9121 22.791 12.547C22.791 13.1819 23.3056 13.6966 23.9405 13.6966Z" fill="#00B5E2"/>
<path d="M48.1983 36.1467C47.9849 35.9627 47.7216 35.8461 47.4419 35.8117C47.1622 35.7773 46.8786 35.8267 46.6269 35.9536C46.3753 36.0804 46.1669 36.2791 46.0282 36.5244C45.8895 36.7697 45.8266 37.0506 45.8476 37.3317C45.8686 37.6127 45.9725 37.8812 46.1461 38.1032C46.3197 38.3251 46.5553 38.4906 46.823 38.5787C47.0907 38.6668 47.3785 38.6734 47.65 38.5979C47.9215 38.5223 48.1645 38.368 48.3482 38.1543C48.5943 37.8681 48.7168 37.4959 48.6887 37.1195C48.6606 36.743 48.4842 36.3932 48.1983 36.1467Z" fill="#00B5E2"/>
<path d="M21.3665 15.9291C21.4241 15.6901 21.5339 15.4668 21.688 15.2753C21.8421 15.0837 22.0367 14.9286 22.2578 14.8212C22.2171 14.6142 22.1087 14.4266 21.9496 14.288C21.7588 14.172 21.5326 14.1282 21.3122 14.1647C21.0918 14.2012 20.8919 14.3156 20.7487 14.487C20.6055 14.6585 20.5286 14.8756 20.5319 15.099C20.5352 15.3223 20.6185 15.5371 20.7667 15.7042C20.9327 15.8495 21.1459 15.9295 21.3665 15.9291Z" fill="#00B5E2"/>
<path d="M17.7678 21.8353C17.8848 21.8719 18.01 21.8729 18.1275 21.838C18.245 21.8032 18.3494 21.7341 18.4275 21.6396C18.5055 21.5451 18.5537 21.4295 18.5657 21.3075C18.5777 21.1855 18.5531 21.0627 18.495 20.9548C18.4368 20.8469 18.3479 20.7587 18.2394 20.7016C18.131 20.6445 18.008 20.621 17.8861 20.6342C17.7643 20.6473 17.6491 20.6965 17.5553 20.7754C17.4615 20.8543 17.3934 20.9594 17.3596 21.0772C17.3365 21.1538 17.3288 21.2342 17.3368 21.3137C17.3449 21.3933 17.3685 21.4705 17.4065 21.5409C17.4444 21.6113 17.4958 21.6736 17.5578 21.7241C17.6198 21.7746 17.6912 21.8124 17.7678 21.8353Z" fill="#00B5E2"/>
<path d="M53.0798 27.6665C53.1121 27.4298 53.0957 27.189 53.0317 26.9588C52.9678 26.7287 52.8575 26.514 52.7078 26.3278C52.5581 26.1417 52.372 25.988 52.1609 25.8762C51.9498 25.7644 51.7181 25.6968 51.48 25.6775C51.2419 25.6582 51.0024 25.6877 50.7761 25.7641C50.5497 25.8405 50.3413 25.9622 50.1636 26.1219C49.9859 26.2815 49.8426 26.4757 49.7424 26.6925C49.6423 26.9094 49.5874 27.1444 49.5811 27.3832C49.5562 27.6728 49.6041 27.9639 49.7205 28.2302C49.8369 28.4965 50.0181 28.7294 50.2475 28.9077C49.8592 28.9843 49.499 29.1651 49.2056 29.4307C48.9121 29.6963 48.6964 30.0367 48.5815 30.4155C48.4658 30.7928 48.4567 31.1949 48.5552 31.5771C48.6537 31.9593 48.856 32.3069 49.1396 32.5813C48.7466 32.6115 48.3751 32.7729 48.0849 33.0396C47.7946 33.3064 47.6025 33.6629 47.5393 34.052C47.4761 34.4411 47.5455 34.8401 47.7363 35.185C47.9272 35.5299 48.2285 35.8006 48.5917 35.9536C48.955 36.1067 49.3591 36.1332 49.7393 36.0289C50.1194 35.9246 50.4534 35.6956 50.6877 35.3786C50.922 35.0616 51.043 34.675 51.0311 34.281C51.0193 33.887 50.8753 33.5084 50.6224 33.2061C51.0952 33.2143 51.5578 33.0675 51.9393 32.7881C52.3209 32.5087 52.6006 32.1122 52.7356 31.6589C52.8706 31.2057 52.8536 30.7208 52.6871 30.2781C52.5206 29.8355 52.2139 29.4595 51.8136 29.2076C52.156 29.1092 52.4604 28.9092 52.6865 28.634C52.9126 28.3588 53.0498 28.0214 53.0798 27.6665Z" fill="#00B5E2"/>
<path d="M17.3642 25.4971C17.7803 25.4513 18.0806 25.0769 18.0348 24.6607C17.989 24.2446 17.6145 23.9443 17.1984 23.9901C16.7822 24.0359 16.482 24.4104 16.5278 24.8265C16.5736 25.2427 16.9481 25.5429 17.3642 25.4971Z" fill="#00B5E2"/>
<path d="M51.0556 22.51C50.7789 22.5484 50.5196 22.6678 50.3106 22.8531C50.1016 23.0385 49.952 23.2815 49.8808 23.5517C49.8095 23.8218 49.8198 24.107 49.9103 24.3713C50.0007 24.6357 50.1674 24.8673 50.3892 25.0372C50.611 25.207 50.8782 25.3074 51.1569 25.3258C51.4357 25.3442 51.7137 25.2797 51.9559 25.1405C52.1981 25.0012 52.3937 24.7934 52.5181 24.5433C52.6425 24.2931 52.6901 24.0117 52.655 23.7346C52.6314 23.5487 52.5712 23.3694 52.4778 23.2069C52.3844 23.0445 52.2598 22.9022 52.111 22.7883C51.9622 22.6744 51.7923 22.5912 51.6112 22.5434C51.43 22.4956 51.2412 22.4843 51.0556 22.51Z" fill="#00B5E2"/>
<path d="M17.4929 29.2326C17.732 29.1935 17.9466 29.063 18.0912 28.8686C18.2358 28.6742 18.2991 28.4312 18.2677 28.1909C18.2364 27.9506 18.1127 27.732 17.923 27.5813C17.7333 27.4306 17.4924 27.3595 17.2513 27.3832C17.1269 27.3955 17.0062 27.4326 16.8964 27.4924C16.7866 27.5522 16.6899 27.6334 16.6122 27.7313C16.5344 27.8292 16.4771 27.9417 16.4436 28.0622C16.4102 28.1827 16.4013 28.3086 16.4175 28.4326C16.4337 28.5566 16.4746 28.676 16.5379 28.7839C16.6012 28.8917 16.6854 28.9857 16.7858 29.0603C16.8861 29.135 17.0004 29.1887 17.1218 29.2182C17.2433 29.2478 17.3695 29.2527 17.4929 29.2326Z" fill="#00B5E2"/>
<path d="M49.3312 20.8273C49.4108 21.0389 49.5511 21.2223 49.7344 21.3546C49.9177 21.4869 50.1359 21.5622 50.3618 21.5712C50.5877 21.5801 50.8112 21.5222 51.0044 21.4047C51.1975 21.2873 51.3518 21.1155 51.4478 20.9108C51.5439 20.7062 51.5774 20.4778 51.5443 20.2541C51.5112 20.0305 51.4129 19.8216 51.2617 19.6535C51.1105 19.4855 50.9131 19.3657 50.6942 19.3093C50.4753 19.2529 50.2446 19.2622 50.031 19.3362C49.8852 19.3854 49.7509 19.4637 49.6361 19.5661C49.5214 19.6686 49.4285 19.7933 49.3632 19.9326C49.2978 20.0718 49.2613 20.2229 49.2558 20.3767C49.2503 20.5304 49.276 20.6837 49.3312 20.8273Z" fill="#00B5E2"/>
<path d="M19.2839 31.3984C19.2336 31.2557 19.1556 31.1242 19.0545 31.0116C18.9534 30.8989 18.8311 30.8073 18.6945 30.742C18.558 30.6766 18.4099 30.6388 18.2588 30.6306C18.1076 30.6225 17.9564 30.6442 17.8136 30.6945C17.6709 30.7448 17.5394 30.8228 17.4268 30.9239C17.3141 31.025 17.2225 31.1474 17.1572 31.2839C17.0918 31.4204 17.054 31.5685 17.0458 31.7196C17.0377 31.8708 17.0594 32.0221 17.1097 32.1648C17.2113 32.4531 17.4233 32.6893 17.6991 32.8213C17.9748 32.9533 18.2917 32.9704 18.58 32.8687C18.8683 32.7671 19.1045 32.5551 19.2365 32.2794C19.3685 32.0036 19.3855 31.6867 19.2839 31.3984Z" fill="#00B5E2"/>
<path d="M21.3657 15.929C21.496 15.9261 21.6243 15.8956 21.742 15.8396C21.8597 15.7836 21.9643 15.7034 22.0488 15.6042C22.1396 15.4974 22.2055 15.3717 22.2415 15.2362C22.2775 15.1007 22.2828 14.9589 22.2571 14.8211C22.0359 14.9286 21.8414 15.0837 21.6873 15.2752C21.5331 15.4668 21.4233 15.69 21.3657 15.929Z" fill="white"/>
<path d="M19.6747 17.2702C19.4978 17.1756 19.2907 17.1549 19.0987 17.2127C18.9067 17.2705 18.7453 17.402 18.65 17.5784C18.5986 17.6834 18.5718 17.7988 18.5718 17.9158C18.5718 18.0328 18.5986 18.1482 18.65 18.2532C18.7547 18.4026 18.8877 18.53 19.0416 18.628C19.2137 18.7046 19.4085 18.7128 19.5865 18.6509C19.7644 18.589 19.9121 18.4617 19.9996 18.2948C20.0458 18.2063 20.074 18.1095 20.0827 18.01C20.0914 17.9104 20.0803 17.8102 20.0501 17.715C20.0199 17.6198 19.9712 17.5315 19.9068 17.4551C19.8424 17.3788 19.7635 17.316 19.6747 17.2702Z" fill="white"/>
<path d="M42.9161 11.6889C42.8095 11.9564 42.8095 12.2545 42.9161 12.522C42.9781 12.2477 42.9781 11.9631 42.9161 11.6889Z" fill="white"/>
<path d="M42.1831 10.8975C42.2155 10.8253 42.2406 10.7499 42.2581 10.6726C41.9252 10.4119 41.5146 10.2702 41.0918 10.2702C40.669 10.2702 40.2584 10.4119 39.9256 10.6726L39.8756 10.7393C39.8028 10.8276 39.7188 10.906 39.6257 10.9725C39.7455 11.2178 39.9337 11.4233 40.1675 11.5641C40.4014 11.705 40.671 11.7752 40.9438 11.7664C41.2167 11.7576 41.4812 11.6702 41.7055 11.5145C41.9298 11.3589 42.1043 11.1417 42.2081 10.8892L42.1831 10.8975Z" fill="white"/>
<path d="M39.8673 10.706C40.0277 10.4913 40.129 10.2384 40.1612 9.97235C40.1933 9.70633 40.1552 9.43652 40.0505 9.18984C39.8135 9.35012 39.6283 9.57588 39.5174 9.8396C39.4306 10.0232 39.3856 10.2238 39.3856 10.4269C39.3856 10.63 39.4306 10.8306 39.5174 11.0142C39.6212 10.8977 39.7387 10.7943 39.8673 10.706Z" fill="white"/>
<path d="M37.5098 8.77333C37.3811 8.92695 37.2839 9.10445 37.2239 9.29566C37.1639 9.48687 37.1421 9.68804 37.1599 9.88766C37.1777 10.0873 37.2347 10.2814 37.3276 10.459C37.4205 10.6366 37.5475 10.7941 37.7014 10.9225L37.8513 11.0392C38.1828 10.9598 38.4842 10.7863 38.7193 10.5394C38.9543 10.2926 39.1129 9.98297 39.1758 9.64801C39.2223 9.4001 39.2143 9.14507 39.1525 8.90055C39.0906 8.65603 38.9764 8.42787 38.8176 8.23186C38.5721 8.20963 38.3249 8.24728 38.0971 8.34159C37.8693 8.4359 37.6678 8.58405 37.5098 8.77333Z" fill="white"/>
<path d="M35.9604 8.39846C35.8752 8.12291 35.7354 7.86732 35.5493 7.64692C35.3633 7.42652 35.1348 7.24583 34.8774 7.1156C34.8747 7.14052 34.8747 7.16566 34.8774 7.19058C34.7217 7.47239 34.6815 7.8037 34.7654 8.11457C34.8494 8.42543 35.0508 8.69152 35.3273 8.85663C35.4609 8.93343 35.6079 8.98431 35.7604 9.00658C35.8739 9.01903 35.9885 9.01903 36.102 9.00658C36.2921 8.98214 36.474 8.9137 36.633 8.8067C36.7921 8.69969 36.924 8.55706 37.0183 8.39013C37.1678 8.1399 37.2212 7.84378 37.1683 7.55711C36.9173 7.59952 36.6789 7.69695 36.47 7.84242C36.2612 7.98789 36.0871 8.17778 35.9604 8.39846Z" fill="white"/>
<path d="M32.5533 7.34052C32.7674 7.40078 32.9954 7.38852 33.2019 7.30565C33.4083 7.22278 33.5815 7.07395 33.6945 6.88235C33.277 6.91822 32.8797 7.07774 32.5533 7.34052Z" fill="white"/>
<path d="M26.3139 42.8941C26.4995 43.1633 26.7603 43.3719 27.0636 43.4939L27.2802 43.5689C27.1877 43.3851 27.0509 43.2273 26.8823 43.1095C26.7136 42.9917 26.5183 42.9177 26.3139 42.8941Z" fill="white"/>
<path d="M28.0383 43.6105C28.3301 43.5594 28.6043 43.4357 28.8358 43.2509C29.0672 43.066 29.2485 42.8259 29.3628 42.5526C29.3628 42.4693 29.4211 42.386 29.4461 42.3027H29.2878C28.9677 42.36 28.6742 42.5175 28.4496 42.7526C28.2249 42.9877 28.0809 43.2882 28.0383 43.6105Z" fill="white"/>
<path d="M31.5953 41.5363C31.3651 41.7432 31.1887 42.0029 31.0813 42.2932C30.9739 42.5835 30.9388 42.8955 30.9789 43.2024C30.8809 42.973 30.729 42.7707 30.5361 42.6126C30.3432 42.4546 30.115 42.3454 29.8709 42.2944C29.8317 42.3943 29.801 42.4974 29.7793 42.6026C29.7443 42.7864 29.7458 42.9752 29.7838 43.1584C29.8217 43.3416 29.8954 43.5156 30.0006 43.6703C30.1059 43.825 30.2405 43.9575 30.3969 44.0601C30.5533 44.1628 30.7284 44.2336 30.9122 44.2686H31.0205C31.0973 44.0554 31.1202 43.8264 31.0871 43.6022C31.185 43.84 31.3263 44.0575 31.5037 44.2436C31.8085 44.1722 32.0813 44.0022 32.2799 43.7601C32.4785 43.518 32.5917 43.2172 32.6022 42.9042C32.6126 42.5913 32.5196 42.2836 32.3376 42.0288C32.1556 41.774 31.8947 41.5863 31.5953 41.4946V41.5363Z" fill="white"/>
<path d="M34.6942 42.0361H34.4942C34.2584 42.0859 34.0442 42.2086 33.8819 42.3868C33.7196 42.565 33.6174 42.7897 33.5898 43.0291C33.5622 43.2686 33.6105 43.5106 33.728 43.7211C33.8454 43.9316 34.026 44.0998 34.2443 44.202C34.4713 43.9531 34.6273 43.648 34.6962 43.3183C34.765 42.9887 34.7442 42.6466 34.6359 42.3277C34.7722 42.5346 34.9559 42.7061 35.1718 42.8278C35.3876 42.9495 35.6294 43.0179 35.8771 43.0274C35.8398 42.7441 35.6976 42.4851 35.4786 42.3015C35.2596 42.118 34.9796 42.0232 34.6942 42.0361Z" fill="white"/>
<path d="M38.6844 41.8945C38.5389 41.9731 38.4091 42.0775 38.3012 42.2027C38.1353 42.3994 38.0273 42.6382 37.9891 42.8927C37.9508 43.1471 37.9839 43.4071 38.0846 43.6439C38.2135 43.6729 38.3472 43.6729 38.4761 43.6439C38.6625 43.6002 38.831 43.5003 38.9587 43.3576C39.0863 43.2149 39.167 43.0364 39.1898 42.8463C39.2125 42.6561 39.1762 42.4636 39.0858 42.2949C38.9954 42.1261 38.8552 41.9892 38.6844 41.9028V41.8945Z" fill="white"/>
<path d="M41.2251 40.6949C41.0155 40.798 40.8516 40.9752 40.7654 41.1923C40.6792 41.4094 40.6768 41.6507 40.7586 41.8695C41.0715 41.9738 41.408 41.9853 41.7273 41.9025C42.0466 41.8197 42.3351 41.6463 42.5579 41.403C42.5337 41.2601 42.4771 41.1246 42.3924 41.0069C42.3077 40.8892 42.1972 40.7925 42.0693 40.7241C41.9415 40.6558 41.7997 40.6176 41.6548 40.6126C41.5099 40.6075 41.3657 40.6357 41.2334 40.6949H41.2251Z" fill="white"/>
<path d="M130.808 30.7742C129 30.2494 128.226 29.6663 128.201 28.8249C128.214 28.6006 128.273 28.3814 128.373 28.1803C128.474 27.9793 128.614 27.8006 128.785 27.6551C128.956 27.5096 129.155 27.4002 129.369 27.3335C129.584 27.2669 129.81 27.2443 130.033 27.2671C131.608 27.2671 131.899 28.2751 131.924 28.9332H135.44C135.14 25.6011 132.474 24.4265 130.067 24.4265C126.918 24.4265 124.635 26.4508 124.635 29.2498C124.635 31.1241 125.877 32.4069 128.351 33.1816L128.559 33.2566C131.216 34.1729 132.316 34.5561 132.316 35.8557C132.323 36.0705 132.285 36.2843 132.204 36.4837C132.124 36.683 132.003 36.8635 131.849 37.0136C131.629 37.2273 131.368 37.3948 131.082 37.5064C130.796 37.618 130.49 37.6713 130.183 37.6633C129.679 37.6779 129.184 37.5211 128.78 37.2186C128.376 36.916 128.087 36.4855 127.959 35.9973H124.385C124.81 39.1295 127.534 40.5373 130.133 40.5373C130.941 40.5629 131.746 40.429 132.503 40.1431C133.259 39.8572 133.951 39.425 134.54 38.8712C134.98 38.4222 135.325 37.889 135.554 37.3035C135.783 36.7181 135.891 36.0925 135.873 35.4641C135.856 32.1487 133.174 31.4156 130.808 30.7742Z" fill="white"/>
<path d="M146.169 40.0291H146.752V36.8303H146.169C145.227 36.8303 144.324 36.4567 143.657 35.7914C142.99 35.1262 142.614 34.2235 142.612 33.2816V28.1168H146.777V24.8347H142.612V20.8945H139.372V33.24C139.376 35.0406 140.094 36.7662 141.368 38.0387C142.642 39.3112 144.368 40.0269 146.169 40.0291Z" fill="white"/>
<path d="M168.253 24.3932C166.659 24.3932 165.102 24.8656 163.777 25.7508C162.453 26.6359 161.42 27.894 160.81 29.3659C160.201 30.8378 160.041 32.4575 160.352 34.0201C160.663 35.5827 161.43 37.018 162.557 38.1446C163.683 39.2712 165.119 40.0384 166.681 40.3492C168.244 40.66 169.863 40.5005 171.335 39.8908C172.807 39.2811 174.065 38.2486 174.95 36.9239C175.836 35.5992 176.308 34.0418 176.308 32.4486C176.306 30.3128 175.456 28.2652 173.946 26.755C172.436 25.2448 170.388 24.3954 168.253 24.3932ZM168.253 37.2551C167.3 37.2551 166.369 36.9725 165.577 36.4431C164.785 35.9137 164.168 35.1612 163.803 34.2809C163.439 33.4006 163.344 32.4321 163.531 31.4978C163.717 30.5636 164.177 29.7057 164.851 29.0327C165.525 28.3596 166.384 27.9017 167.318 27.7169C168.253 27.532 169.221 27.6285 170.101 27.9943C170.981 28.36 171.732 28.9784 172.26 29.7713C172.788 30.5642 173.069 31.4959 173.068 32.4486C173.065 33.7241 172.557 34.9467 171.654 35.8478C170.752 36.749 169.528 37.2551 168.253 37.2551Z" fill="white"/>
<path d="M157.523 27.667H158.106V24.3932H157.423C155.646 24.4302 153.953 25.1613 152.708 26.43C151.463 27.6988 150.763 29.4045 150.759 31.1824V40.0541H154V31.1824C154.008 30.2513 154.383 29.361 155.042 28.7033C155.701 28.0457 156.592 27.6735 157.523 27.667Z" fill="white"/>
<path d="M204.239 46.6017C206.375 46.5995 208.423 45.7501 209.933 44.2399C211.443 42.7297 212.293 40.6821 212.295 38.5463V24.8347H209.029V26.0009L208.804 25.8427C207.599 25.0041 206.188 24.5108 204.723 24.4162C203.258 24.3215 201.794 24.6291 200.491 25.3057C199.188 25.9823 198.095 27.0021 197.33 28.255C196.564 29.5079 196.156 30.9462 196.148 32.4143C196.141 33.8825 196.535 35.3248 197.288 36.5853C198.041 37.8458 199.124 38.8766 200.42 39.5662C201.716 40.2559 203.176 40.5781 204.642 40.4982C206.108 40.4183 207.524 39.9392 208.738 39.1128L209.013 38.9295L208.963 39.2544C208.792 40.3938 208.22 41.4347 207.349 42.1893C206.478 42.9438 205.367 43.3624 204.214 43.3696C203.004 43.3676 201.84 42.9061 200.957 42.0784H196.984C197.649 43.4355 198.682 44.5788 199.964 45.3783C201.247 46.1779 202.728 46.6018 204.239 46.6017ZM204.239 37.2551C203.286 37.2601 202.352 36.9817 201.557 36.4553C200.762 35.9289 200.14 35.1781 199.772 34.2983C199.404 33.4184 199.306 32.4491 199.49 31.5133C199.673 30.5774 200.131 29.7171 200.804 29.0416C201.477 28.366 202.336 27.9056 203.271 27.7188C204.206 27.5319 205.176 27.6269 206.057 27.9919C206.938 28.3569 207.691 28.9753 208.22 29.7687C208.749 30.5622 209.031 31.4949 209.029 32.4486C209.027 33.7198 208.522 34.9386 207.625 35.839C206.728 36.7395 205.511 37.2486 204.239 37.2551Z" fill="white"/>
<path d="M186.246 27.667C187.187 27.667 188.09 28.0409 188.755 28.7064C189.421 29.3719 189.795 30.2745 189.795 31.2157V40.0541H193.035V31.1824C193.035 29.3818 192.32 27.6549 191.047 26.3817C189.773 25.1085 188.047 24.3932 186.246 24.3932C184.445 24.3932 182.719 25.1085 181.445 26.3817C180.172 27.6549 179.457 29.3818 179.457 31.1824V40.0541H182.697V31.1824C182.706 30.247 183.084 29.3529 183.748 28.6946C184.413 28.0363 185.311 27.667 186.246 27.667Z" fill="white"/>
<path d="M100.494 24.8347L96.5206 36.3555L92.5471 24.8347H89.115L94.3714 40.0625H98.6698L103.926 24.8347H100.494Z" fill="white"/>
<path d="M65.4987 17.9539V40.0541H77.2777V36.8136H68.7391V17.9539H65.4987Z" fill="white"/>
<path d="M83.542 17.8956C83.1578 17.8956 82.7822 18.0096 82.4628 18.2233C82.1435 18.4369 81.8947 18.7406 81.748 19.0957C81.6014 19.4509 81.5634 19.8415 81.639 20.2183C81.7146 20.595 81.9003 20.9408 82.1726 21.212C82.4448 21.4831 82.7915 21.6673 83.1685 21.7412C83.5456 21.8152 83.9361 21.7755 84.2906 21.6273C84.6451 21.4792 84.9477 21.2291 85.1599 20.9088C85.3722 20.5885 85.4846 20.2124 85.483 19.8282C85.483 19.5737 85.4327 19.3217 85.3351 19.0867C85.2374 18.8517 85.0943 18.6383 84.914 18.4587C84.7337 18.2791 84.5196 18.1369 84.2842 18.0403C84.0487 17.9437 83.7965 17.8945 83.542 17.8956Z" fill="white"/>
<path d="M85.1664 24.8347H81.926V40.0541H85.1664V24.8347Z" fill="white"/>
<path d="M117.038 35.9973C116.134 36.8817 114.921 37.3779 113.656 37.3801C112.633 37.3781 111.636 37.0557 110.805 36.4581C109.974 35.8604 109.352 35.0176 109.024 34.048H121.52C121.623 33.5267 121.676 32.9967 121.678 32.4652C121.694 30.473 120.975 28.5447 119.66 27.0486C118.344 25.5525 116.524 24.5933 114.546 24.3542C112.568 24.1151 110.571 24.6128 108.937 25.7524C107.303 26.8919 106.145 28.5934 105.686 30.532C105.227 32.4706 105.497 34.5105 106.446 36.2622C107.396 38.0139 108.957 39.3547 110.831 40.0286C112.706 40.7025 114.764 40.6622 116.611 39.9156C118.458 39.1689 119.965 37.7681 120.845 35.9806L117.038 35.9973ZM113.656 27.5837C114.679 27.5857 115.676 27.9081 116.507 28.5057C117.338 29.1034 117.96 29.9462 118.288 30.9158H109.066C109.385 29.9466 109.999 29.1014 110.822 28.498C111.645 27.8947 112.636 27.5634 113.656 27.5504V27.5837Z" fill="white"/>
</svg>
