<svg width="184" height="65" viewBox="0 0 184 65" fill="none" xmlns="http://www.w3.org/2000/svg">
<path d="M68.0559 44.0237C68.1557 44.0153 68.2562 44.0276 68.351 44.06C68.4458 44.0923 68.5329 44.1438 68.6066 44.2114C68.6804 44.279 68.7394 44.3611 68.7796 44.4526C68.8199 44.544 68.8407 44.6428 68.8407 44.7426C68.8407 44.8425 68.8199 44.9412 68.7796 45.0327C68.7394 45.1241 68.6804 45.2062 68.6066 45.2738C68.5329 45.3413 68.4458 45.3929 68.351 45.4252C68.2562 45.4575 68.1557 45.4699 68.0559 45.4615H58.7727V50.7368H66.4744C66.5753 50.7263 66.6773 50.7377 66.7733 50.7703C66.8694 50.8028 66.9572 50.8555 67.0308 50.9251C67.1045 50.9946 67.1622 51.0791 67.1999 51.1729C67.2378 51.2667 67.2547 51.3675 67.2498 51.4685C67.2518 51.5676 67.2326 51.6659 67.1935 51.757C67.1543 51.8481 67.0961 51.9298 67.0227 51.9966C66.9493 52.0635 66.8624 52.114 66.7678 52.1446C66.6733 52.1753 66.5733 52.1856 66.4744 52.1746H58.7727V57.6699C58.7871 57.7805 58.777 57.8929 58.7431 57.9992C58.7092 58.1055 58.6522 58.2031 58.5764 58.285C58.5005 58.367 58.4075 58.4314 58.3039 58.4736C58.2003 58.5159 58.0887 58.535 57.9769 58.5295C57.4634 58.5295 57.2016 58.2072 57.2016 57.6699V44.8782C57.1891 44.764 57.2021 44.6485 57.2396 44.54C57.2772 44.4313 57.3384 44.3324 57.4189 44.2502C57.4995 44.1681 57.5972 44.1047 57.7052 44.0646C57.8132 44.0246 57.9288 44.0088 58.0437 44.0186L68.0559 44.0237Z" fill="#00A99D"/>
<path d="M73.7499 47.9277C76.9799 47.9277 79.1979 50.0972 79.1979 53.29C79.1979 56.4829 76.9799 58.6575 73.7499 58.6575C70.5204 58.6575 68.3228 56.4675 68.3228 53.29C68.3228 50.1126 70.5409 47.9277 73.7499 47.9277ZM73.7499 57.3271C76.0965 57.3271 77.6884 55.6949 77.6884 53.29C77.6884 50.8852 76.0965 49.2581 73.7499 49.2581C71.4035 49.2581 69.8324 50.8903 69.8324 53.29C69.8324 55.6898 71.4241 57.3271 73.7499 57.3271Z" fill="#00A99D"/>
<path d="M90.021 48.8385V57.7671C90.0271 57.8675 90.0116 57.9679 89.9762 58.0619C89.94 58.1558 89.8844 58.2412 89.8134 58.3122C89.7418 58.3833 89.6567 58.4385 89.5623 58.4742C89.4678 58.5099 89.3667 58.5253 89.2663 58.5193C89.1672 58.5249 89.0674 58.509 88.9749 58.4728C88.8819 58.4366 88.7981 58.3809 88.7292 58.3095C88.6595 58.2381 88.6066 58.1528 88.5738 58.0592C88.541 57.9656 88.5283 57.866 88.537 57.7671V56.8001H88.5115C88.0836 57.4085 87.5063 57.8977 86.8352 58.221C86.1635 58.5443 85.4202 58.6911 84.6761 58.6472C81.8111 58.6472 80.24 56.9741 80.24 53.8631V48.8385C80.24 48.6418 80.3184 48.453 80.4577 48.3139C80.5976 48.1748 80.7871 48.0966 80.9847 48.0966C81.1816 48.0966 81.3711 48.1748 81.5111 48.3139C81.6504 48.453 81.7288 48.6418 81.7288 48.8385V53.7301C81.7288 56.094 82.8686 57.3117 84.9996 57.3117C87.1306 57.3117 88.5524 55.7768 88.5524 53.3207V48.8385C88.5443 48.7363 88.5571 48.6333 88.5905 48.5363C88.624 48.4392 88.6769 48.3501 88.7466 48.2746C88.8162 48.1991 88.9013 48.1388 88.9957 48.0976C89.0895 48.0563 89.1913 48.035 89.2944 48.035C89.3975 48.035 89.4993 48.0563 89.5938 48.0976C89.6882 48.1388 89.7726 48.1991 89.8422 48.2746C89.9119 48.3501 89.9654 48.4392 89.9989 48.5363C90.0324 48.6333 90.0451 48.7363 90.0364 48.8385H90.021Z" fill="#00A99D"/>
<path d="M101.61 52.6914V57.7313C101.61 58.243 101.353 58.5295 100.88 58.5295C100.776 58.5355 100.671 58.5185 100.574 58.4798C100.476 58.4411 100.389 58.3817 100.316 58.3056C100.245 58.2296 100.19 58.1388 100.157 58.0395C100.124 57.9403 100.113 57.8351 100.126 57.7313V52.8193C100.126 50.481 98.9857 49.2376 96.8292 49.2376C94.6728 49.2376 93.2349 50.7726 93.2349 53.2286V57.7109C93.2436 57.8132 93.2309 57.916 93.1974 58.0131C93.1639 58.1102 93.111 58.1993 93.0414 58.2748C92.9717 58.3503 92.8867 58.4106 92.7923 58.4519C92.6978 58.493 92.596 58.5143 92.4936 58.5143C92.3904 58.5143 92.2886 58.493 92.1942 58.4519C92.0998 58.4106 92.0154 58.3503 91.9458 58.2748C91.8754 58.1993 91.8225 58.1102 91.789 58.0131C91.7556 57.916 91.7428 57.8132 91.7515 57.7109V48.8385C91.7428 48.7363 91.7556 48.6333 91.789 48.5363C91.8225 48.4392 91.8754 48.3501 91.9458 48.2746C92.0154 48.1991 92.0998 48.1388 92.1942 48.0976C92.2886 48.0563 92.3904 48.035 92.4936 48.035C92.596 48.035 92.6978 48.0563 92.7923 48.0976C92.8867 48.1388 92.9717 48.1991 93.0414 48.2746C93.111 48.3501 93.1639 48.4392 93.1974 48.5363C93.2309 48.6333 93.2436 48.7363 93.2349 48.8385V49.7647H93.2811C94.052 48.6031 95.3867 47.9175 97.1527 47.9175C100.059 47.9277 101.61 49.6009 101.61 52.6914Z" fill="#00A99D"/>
<path d="M113.47 44.0442V57.7313C113.486 57.834 113.478 57.9389 113.448 58.0381C113.417 58.1374 113.365 58.2287 113.295 58.3053C113.224 58.3818 113.137 58.4417 113.041 58.4805C112.944 58.5193 112.84 58.536 112.736 58.5295C112.632 58.5354 112.526 58.5185 112.429 58.4798C112.332 58.4411 112.244 58.3817 112.172 58.3056C112.1 58.2296 112.046 58.1388 112.013 58.0395C111.98 57.9403 111.969 57.8351 111.981 57.7313V56.708H111.94C111.124 57.9309 109.681 58.6421 107.832 58.6421C104.752 58.6421 102.647 56.4931 102.647 53.2747C102.647 50.0563 104.732 47.9124 107.832 47.9124C109.686 47.9124 111.129 48.6236 111.94 49.8465H111.981V44.0442C111.968 43.9404 111.978 43.835 112.011 43.7356C112.044 43.6363 112.098 43.5453 112.17 43.4694C112.242 43.3935 112.331 43.3346 112.429 43.2968C112.526 43.2591 112.632 43.2434 112.736 43.2511C113.214 43.2511 113.47 43.5325 113.47 44.0442ZM111.981 53.29C111.981 50.9108 110.369 49.2581 108.064 49.2581C105.758 49.2581 104.146 50.8903 104.146 53.29C104.146 55.6898 105.738 57.3271 108.064 57.3271C110.389 57.3271 111.981 55.6949 111.981 53.29Z" fill="#00A99D"/>
<path d="M125.516 48.8385V57.7211C125.531 57.8237 125.523 57.9286 125.493 58.0279C125.462 58.1272 125.41 58.2185 125.34 58.295C125.27 58.3716 125.183 58.4314 125.086 58.4702C124.99 58.509 124.885 58.5258 124.781 58.5193C124.677 58.5253 124.572 58.5082 124.475 58.4696C124.377 58.4309 124.29 58.3714 124.217 58.2954C124.146 58.2193 124.092 58.1285 124.058 58.0293C124.025 57.9301 124.015 57.8249 124.027 57.7211V56.6978H123.986C123.169 57.9206 121.726 58.6319 119.878 58.6319C116.797 58.6319 114.692 56.4829 114.692 53.2645C114.692 50.0461 116.777 47.9021 119.878 47.9021C121.731 47.9021 123.175 48.6134 123.986 49.8363H124.027V48.8129C124.013 48.7092 124.024 48.6038 124.056 48.5044C124.089 48.405 124.143 48.3141 124.215 48.2382C124.288 48.1623 124.376 48.1033 124.474 48.0655C124.572 48.0278 124.677 48.0122 124.781 48.0199C125.259 48.0556 125.516 48.3269 125.516 48.8385ZM124.027 53.2798C124.027 50.9005 122.415 49.2478 120.109 49.2478C117.804 49.2478 116.192 50.88 116.192 53.2798C116.192 55.6795 117.783 57.3169 120.109 57.3169C122.435 57.3169 124.027 55.6949 124.027 53.29V53.2798Z" fill="#00A99D"/>
<path d="M134.265 56.8103C133.659 57.9922 132.478 58.6575 130.861 58.6575C128.535 58.6575 127.097 57.1532 127.097 54.6664V45.5025C127.084 45.4009 127.094 45.2979 127.125 45.2004C127.156 45.103 127.208 45.0134 127.278 44.938C127.347 44.8626 127.432 44.803 127.526 44.7636C127.622 44.7241 127.723 44.7056 127.826 44.7093C127.931 44.7026 128.035 44.7188 128.133 44.7569C128.23 44.7951 128.318 44.854 128.39 44.9297C128.462 45.0053 128.516 45.0959 128.55 45.1949C128.583 45.2938 128.593 45.3989 128.581 45.5025V48.1836H133.058C133.152 48.1708 133.247 48.1786 133.337 48.2066C133.428 48.2345 133.511 48.2819 133.581 48.3453C133.652 48.4087 133.706 48.4867 133.743 48.5737C133.779 48.6606 133.796 48.7545 133.792 48.8488C133.796 48.9427 133.778 49.0362 133.741 49.1227C133.704 49.2093 133.649 49.2869 133.579 49.3502C133.51 49.4134 133.427 49.4607 133.337 49.4891C133.247 49.5173 133.152 49.5258 133.058 49.5139H128.56V54.6869C128.56 56.3805 129.444 57.3271 130.927 57.3271C131.367 57.3536 131.803 57.2496 132.182 57.0282C132.562 56.8069 132.867 56.4781 133.058 56.0837C133.114 55.9714 133.2 55.877 133.307 55.8118C133.414 55.7466 133.538 55.7132 133.664 55.7153C133.755 55.7158 133.846 55.735 133.929 55.7715C134.014 55.808 134.089 55.8612 134.151 55.9277C134.214 55.9943 134.262 56.0729 134.293 56.1587C134.324 56.2444 134.337 56.3356 134.331 56.4265C134.336 56.5577 134.313 56.6883 134.265 56.8103Z" fill="#00A99D"/>
<path d="M134.789 44.9703C134.789 44.7896 134.844 44.6132 134.945 44.4634C135.047 44.3136 135.191 44.197 135.358 44.1283C135.526 44.0596 135.71 44.0419 135.888 44.0774C136.066 44.1129 136.229 44.2 136.357 44.3278C136.486 44.4556 136.573 44.6183 136.609 44.7955C136.644 44.9727 136.626 45.1564 136.557 45.3236C136.488 45.4907 136.372 45.6338 136.221 45.7348C136.071 45.8358 135.894 45.8903 135.713 45.8913C135.59 45.8972 135.467 45.8774 135.352 45.8331C135.237 45.7889 135.133 45.7213 135.046 45.6345C134.959 45.5479 134.891 45.4439 134.847 45.3295C134.803 45.2152 134.783 45.0928 134.789 44.9703ZM136.447 57.7313C136.456 57.8336 136.443 57.9365 136.409 58.0336C136.376 58.1307 136.322 58.2197 136.253 58.2953C136.183 58.3708 136.099 58.4311 136.004 58.4723C135.91 58.5135 135.808 58.5348 135.705 58.5348C135.602 58.5348 135.5 58.5135 135.406 58.4723C135.312 58.4311 135.227 58.3708 135.157 58.2953C135.087 58.2197 135.035 58.1307 135.001 58.0336C134.968 57.9365 134.955 57.8336 134.963 57.7313V48.8385C134.955 48.7363 134.968 48.6333 135.001 48.5363C135.035 48.4392 135.087 48.3501 135.157 48.2746C135.227 48.1991 135.312 48.1388 135.406 48.0976C135.5 48.0563 135.602 48.0351 135.705 48.0351C135.808 48.0351 135.91 48.0563 136.004 48.0976C136.099 48.1388 136.183 48.1991 136.253 48.2746C136.322 48.3501 136.376 48.4392 136.409 48.5363C136.443 48.6333 136.456 48.7363 136.447 48.8385V57.7313Z" fill="#00A99D"/>
<path d="M142.993 47.9277C146.223 47.9277 148.441 50.0972 148.441 53.29C148.441 56.4829 146.223 58.6575 142.993 58.6575C139.764 58.6575 137.567 56.4675 137.567 53.29C137.567 50.1126 139.785 47.9277 142.993 47.9277ZM142.993 57.3271C145.34 57.3271 146.932 55.6949 146.932 53.29C146.932 50.8852 145.34 49.2581 142.993 49.2581C140.647 49.2581 139.076 50.8903 139.076 53.29C139.076 55.6898 140.667 57.3271 142.993 57.3271Z" fill="#00A99D"/>
<path d="M159.516 52.6914V57.7313C159.516 58.243 159.26 58.5295 158.787 58.5295C158.682 58.5364 158.577 58.52 158.479 58.4817C158.381 58.4433 158.293 58.3839 158.221 58.3076C158.149 58.2313 158.094 58.1401 158.062 58.0405C158.029 57.9409 158.019 57.8353 158.032 57.7313V52.8193C158.032 50.481 156.892 49.2376 154.736 49.2376C152.579 49.2376 151.142 50.7726 151.142 53.2286V57.7109C151.15 57.8132 151.138 57.916 151.104 58.0131C151.071 58.1102 151.018 58.1993 150.948 58.2748C150.878 58.3503 150.793 58.4106 150.699 58.4518C150.604 58.493 150.503 58.5143 150.4 58.5143C150.297 58.5143 150.195 58.493 150.101 58.4518C150.006 58.4106 149.922 58.3503 149.852 58.2748C149.782 58.1993 149.729 58.1102 149.696 58.0131C149.662 57.916 149.649 57.8132 149.658 57.7109V48.8385C149.649 48.7363 149.662 48.6333 149.696 48.5363C149.729 48.4392 149.782 48.3501 149.852 48.2746C149.922 48.1991 150.006 48.1388 150.101 48.0976C150.195 48.0563 150.297 48.035 150.4 48.035C150.503 48.035 150.604 48.0563 150.699 48.0976C150.793 48.1388 150.878 48.1991 150.948 48.2746C151.018 48.3501 151.071 48.4392 151.104 48.5363C151.138 48.6333 151.15 48.7363 151.142 48.8385V49.7647H151.188C151.958 48.6031 153.293 47.9175 155.059 47.9175C157.966 47.9277 159.516 49.6009 159.516 52.6914Z" fill="#00A99D"/>
<path d="M71.2089 7.39318V21.4129C71.2172 21.5494 71.1963 21.6862 71.1476 21.814C71.0989 21.9419 71.0235 22.0581 70.9264 22.1548C70.8294 22.2515 70.7129 22.3265 70.5846 22.3751C70.4562 22.4236 70.319 22.4445 70.1821 22.4362C70.0066 22.4427 69.8322 22.4081 69.6726 22.3352C69.5129 22.2623 69.3727 22.1532 69.263 22.0167L59.0659 9.28636H59.0146V21.505C59.0279 21.6218 59.0158 21.74 58.9793 21.8517C58.9426 21.9633 58.8824 22.0658 58.8025 22.1522C58.7226 22.2386 58.625 22.3069 58.5163 22.3524C58.4076 22.3979 58.2903 22.4195 58.1725 22.4158C58.0538 22.422 57.9351 22.4022 57.825 22.3576C57.7148 22.3131 57.6158 22.245 57.535 22.1581C57.4541 22.0712 57.3935 21.9677 57.3572 21.8548C57.321 21.742 57.3101 21.6225 57.3254 21.505V7.50575C57.3114 7.36999 57.3266 7.23282 57.3702 7.10344C57.4138 6.97408 57.4848 6.8555 57.5781 6.75567C57.6715 6.65584 57.7852 6.57706 57.9116 6.52463C58.0381 6.47221 58.1743 6.44735 58.3112 6.45171C58.4899 6.44447 58.6679 6.47967 58.8304 6.55439C58.9929 6.62912 59.1352 6.74123 59.2456 6.88151L69.4838 19.5913H69.5146V7.39318C69.4994 7.27544 69.5104 7.15585 69.5466 7.04277C69.5828 6.92969 69.6434 6.82586 69.7241 6.73859C69.8048 6.65131 69.9037 6.5827 70.0139 6.53756C70.124 6.49242 70.2427 6.47185 70.3618 6.47729C70.4802 6.47361 70.5982 6.49537 70.7075 6.54111C70.8168 6.58684 70.915 6.65546 70.9954 6.74233C71.0757 6.82921 71.1363 6.93229 71.1732 7.04459C71.2101 7.15689 71.2223 7.27578 71.2089 7.39318Z" fill="#007497"/>
<path d="M84.528 11.86V21.551C84.5441 21.6627 84.5354 21.7765 84.5019 21.8842C84.4684 21.9919 84.4108 22.0908 84.3344 22.1737C84.2574 22.2566 84.163 22.3213 84.0579 22.3632C83.9527 22.4051 83.8395 22.4231 83.727 22.4158C83.6132 22.4234 83.4987 22.4058 83.3922 22.3645C83.2864 22.323 83.1906 22.2587 83.1116 22.1761C83.0332 22.0935 82.9743 21.9946 82.9388 21.8866C82.9026 21.7785 82.8912 21.6639 82.9053 21.551V20.451H82.8645C81.9711 21.7864 80.3946 22.5591 78.3768 22.5591C74.9934 22.5591 72.7285 20.2156 72.7285 16.7055C72.7285 13.1955 75.0088 10.852 78.3768 10.852C80.3946 10.852 81.9711 11.6247 82.8645 12.9601H82.9107V11.86C82.8946 11.7468 82.9046 11.6314 82.9395 11.5225C82.975 11.4136 83.0339 11.3139 83.1129 11.2309C83.1913 11.1479 83.2884 11.0836 83.3955 11.0428C83.5027 11.002 83.6179 10.9858 83.7317 10.9953C84.2454 10.9748 84.528 11.2972 84.528 11.86ZM82.9053 16.7055C82.9053 14.1063 81.144 12.3052 78.6286 12.3052C76.1125 12.3052 74.3565 14.0858 74.3565 16.7055C74.3565 19.3253 76.0917 21.1059 78.6286 21.1059C81.1647 21.1059 82.9053 19.3253 82.9053 16.7055Z" fill="#007497"/>
<path d="M94.0472 20.5431C93.3902 21.8324 92.0957 22.5591 90.335 22.5591C87.7982 22.5591 86.227 20.9166 86.227 18.2047V8.20671C86.227 7.99229 86.3128 7.78667 86.4648 7.63506C86.6168 7.48345 86.8231 7.39827 87.0387 7.39827C87.2537 7.39827 87.46 7.48345 87.612 7.63506C87.764 7.78667 87.8497 7.99229 87.8497 8.20671V11.1335H92.7379C92.8397 11.1189 92.9442 11.1272 93.0426 11.1576C93.1411 11.188 93.2321 11.2398 93.3078 11.3093C93.3842 11.3787 93.4438 11.4642 93.4826 11.5594C93.5221 11.6546 93.5395 11.7573 93.5335 11.86C93.5375 11.9623 93.5188 12.0641 93.4793 12.1584C93.4397 12.2528 93.3801 12.3375 93.3045 12.4066C93.2288 12.4757 93.1384 12.5276 93.0406 12.5586C92.9428 12.5897 92.8397 12.5992 92.7379 12.5866H87.8444V18.215C87.8444 20.0672 88.8101 21.0956 90.412 21.0956C90.8909 21.1258 91.3684 21.0129 91.7822 20.7714C92.1968 20.5298 92.5296 20.1706 92.7379 19.7397C92.7982 19.618 92.8919 19.5158 93.0084 19.4451C93.1243 19.3745 93.2589 19.3383 93.3949 19.3406C93.4947 19.3404 93.5938 19.3606 93.6849 19.4C93.7766 19.4394 93.859 19.497 93.9273 19.5694C93.9963 19.6419 94.0485 19.7275 94.0827 19.8211C94.1161 19.9146 94.1302 20.014 94.1242 20.1132C94.1295 20.2604 94.1034 20.407 94.0472 20.5431Z" fill="#007497"/>
<path d="M94.5916 7.62345C94.5963 7.42838 94.6586 7.23907 94.7705 7.07897C94.883 6.91887 95.039 6.795 95.2212 6.72267C95.4033 6.65034 95.6022 6.63275 95.7938 6.67206C95.986 6.71137 96.1621 6.80586 96.3001 6.94384C96.4387 7.08182 96.5338 7.25723 96.5726 7.44835C96.6121 7.63949 96.5947 7.83794 96.5224 8.01918C96.4494 8.2004 96.3255 8.35646 96.1648 8.46801C96.004 8.57956 95.8138 8.64171 95.6183 8.64678C95.481 8.65583 95.3437 8.63555 95.2145 8.58733C95.0859 8.53909 94.9693 8.46403 94.8722 8.36714C94.7745 8.27025 94.6995 8.15377 94.6512 8.02552C94.6024 7.89726 94.5823 7.76017 94.5916 7.62345ZM96.4039 11.8601V21.5511C96.4039 21.7655 96.3181 21.9711 96.1661 22.1228C96.0141 22.2743 95.8078 22.3595 95.5928 22.3595C95.3772 22.3595 95.1709 22.2743 95.0189 22.1228C94.8669 21.9711 94.7812 21.7655 94.7812 21.5511V11.8601C94.7812 11.6457 94.8669 11.44 95.0189 11.2884C95.1709 11.1368 95.3772 11.0516 95.5928 11.0516C95.8078 11.0516 96.0141 11.1368 96.1661 11.2884C96.3181 11.44 96.4039 11.6457 96.4039 11.8601Z" fill="#007497"/>
<path d="M103.52 10.852C107.042 10.852 109.461 13.216 109.461 16.7055C109.461 20.1951 107.042 22.5591 103.52 22.5591C99.9981 22.5591 97.5999 20.1849 97.5999 16.7055C97.5999 13.2262 100.018 10.852 103.52 10.852ZM103.52 21.0855C106.087 21.0855 107.818 19.3048 107.818 16.6851C107.818 14.0653 106.077 12.2847 103.52 12.2847C100.963 12.2847 99.2434 14.0653 99.2434 16.6851C99.2434 19.3048 100.984 21.1059 103.52 21.1059V21.0855Z" fill="#007497"/>
<path d="M121.522 16.0506V21.551C121.538 21.6627 121.529 21.7765 121.496 21.8842C121.462 21.9919 121.405 22.0908 121.328 22.1737C121.251 22.2566 121.157 22.3213 121.052 22.3632C120.946 22.4051 120.833 22.4231 120.721 22.4158C120.607 22.4224 120.493 22.4043 120.387 22.3626C120.281 22.3208 120.186 22.2565 120.108 22.1741C120.03 22.0917 119.97 21.9932 119.934 21.8856C119.898 21.7779 119.886 21.6638 119.899 21.551V16.1888C119.899 13.6304 118.657 12.3052 116.305 12.3052C113.953 12.3052 112.382 13.9885 112.382 16.6594V21.551C112.391 21.6623 112.377 21.7741 112.34 21.8796C112.303 21.9851 112.246 22.0818 112.169 22.1637C112.094 22.2457 112.001 22.3111 111.899 22.3559C111.796 22.4006 111.686 22.4237 111.573 22.4237C111.461 22.4237 111.351 22.4006 111.249 22.3559C111.145 22.3111 111.054 22.2457 110.977 22.1637C110.902 22.0818 110.843 21.9851 110.807 21.8796C110.77 21.7741 110.756 21.6623 110.765 21.551V11.86C110.756 11.7488 110.77 11.6369 110.807 11.5315C110.843 11.426 110.902 11.3293 110.977 11.2473C111.054 11.1653 111.145 11.0999 111.249 11.0552C111.351 11.0104 111.461 10.9873 111.573 10.9873C111.686 10.9873 111.796 11.0104 111.899 11.0552C112.001 11.0999 112.094 11.1653 112.169 11.2473C112.246 11.3293 112.303 11.426 112.34 11.5315C112.377 11.6369 112.391 11.7488 112.382 11.86V12.8834H112.429C113.276 11.6196 114.734 10.8674 116.659 10.8674C119.832 10.852 121.522 12.6787 121.522 16.0506Z" fill="#007497"/>
<path d="M134.43 11.86V21.551C134.446 21.6622 134.437 21.7756 134.404 21.8829C134.371 21.9902 134.314 22.0888 134.237 22.1716C134.162 22.2544 134.068 22.3193 133.964 22.3614C133.859 22.4037 133.747 22.4222 133.634 22.4158C133.52 22.4233 133.406 22.4057 133.299 22.3643C133.193 22.3229 133.096 22.2586 133.017 22.1762C132.939 22.0937 132.879 21.9949 132.842 21.8869C132.806 21.7789 132.794 21.6642 132.807 21.551V20.451H132.761C131.873 21.7864 130.296 22.5591 128.278 22.5591C124.895 22.5591 122.631 20.2156 122.631 16.7055C122.631 13.1955 124.91 10.852 128.278 10.852C130.296 10.852 131.873 11.6247 132.761 12.9601H132.807V11.86C132.792 11.7465 132.803 11.631 132.838 11.5222C132.874 11.4133 132.934 11.3138 133.013 11.2309C133.092 11.1479 133.189 11.0837 133.297 11.043C133.404 11.0022 133.52 10.9859 133.634 10.9953C134.147 10.9748 134.43 11.2972 134.43 11.86ZM132.807 16.7055C132.807 14.1063 131.046 12.3052 128.536 12.3052C126.025 12.3052 124.258 14.0858 124.258 16.7055C124.258 19.3253 125.999 21.1059 128.536 21.1059C131.072 21.1059 132.807 19.3253 132.807 16.7055Z" fill="#007497"/>
<path d="M137.911 6.61544V21.5511C137.919 21.6623 137.905 21.7742 137.869 21.8796C137.832 21.9851 137.774 22.0818 137.698 22.1638C137.622 22.2458 137.53 22.3111 137.427 22.3559C137.325 22.4007 137.214 22.4238 137.102 22.4238C136.99 22.4238 136.879 22.4007 136.777 22.3559C136.674 22.3111 136.582 22.2458 136.506 22.1638C136.43 22.0818 136.372 21.9851 136.336 21.8796C136.299 21.7742 136.285 21.6623 136.293 21.5511V6.61544C136.285 6.50421 136.299 6.39235 136.336 6.2869C136.372 6.18145 136.43 6.08469 136.506 6.00271C136.582 5.92073 136.674 5.85531 136.777 5.81057C136.879 5.76583 136.99 5.74274 137.102 5.74274C137.214 5.74274 137.325 5.76583 137.427 5.81057C137.53 5.85531 137.622 5.92073 137.698 6.00271C137.774 6.08469 137.832 6.18145 137.869 6.2869C137.905 6.39235 137.919 6.50421 137.911 6.61544Z" fill="#007497"/>
<path d="M62.6087 31.9533C67.6354 32.0198 69.3965 33.2836 69.3965 36.236C69.3965 39.2753 66.8857 41.0815 62.7217 41.0815C59.528 41.0815 57.0738 40.1656 55.9339 38.5231C55.8106 38.3538 55.7457 38.1491 55.7491 37.9398C55.744 37.831 55.7617 37.7222 55.8012 37.6206C55.8406 37.519 55.901 37.4266 55.9783 37.3496C56.0557 37.2725 56.1483 37.2124 56.2503 37.1731C56.3522 37.1337 56.4614 37.116 56.5706 37.1212C56.6871 37.116 56.8032 37.1383 56.9093 37.1863C57.0156 37.2343 57.1088 37.3067 57.1816 37.3974C58.2393 38.7585 60.2315 39.5055 62.8295 39.5055C65.8383 39.5055 67.6918 38.2673 67.6918 36.2513C67.6918 34.4503 66.3774 33.693 62.4803 33.652C57.6848 33.606 55.9699 32.4138 55.9699 29.6763C55.9699 26.7496 58.5782 24.8308 62.5728 24.8308C65.2016 24.8308 67.317 25.6035 68.5134 26.985C68.66 27.1612 68.7351 27.3857 68.7239 27.6143C68.729 27.7232 68.7113 27.8319 68.6718 27.9336C68.6323 28.0352 68.572 28.1275 68.4947 28.2046C68.4173 28.2816 68.3247 28.3418 68.2227 28.3811C68.1207 28.4205 68.0116 28.4381 67.9023 28.433C67.7788 28.4367 67.656 28.4134 67.5425 28.3648C67.429 28.3162 67.3275 28.2434 67.2451 28.1516C66.1874 27.0054 64.5444 26.3965 62.4547 26.3965C59.5897 26.3965 57.7104 27.686 57.7104 29.6508C57.7053 31.2472 58.876 31.8765 62.6087 31.9533Z" fill="#007497"/>
<path d="M80.6203 38.9478C80.0658 39.6389 79.3559 40.1898 78.5475 40.5562C77.7392 40.9224 76.8559 41.0936 75.9685 41.0559C72.472 41.0559 70.0486 38.6664 70.0486 35.2024C70.0486 31.7384 72.472 29.3489 75.9685 29.3489C76.7882 29.3235 77.6046 29.4687 78.3647 29.7753C79.1248 30.0819 79.8126 30.5431 80.3845 31.1295C80.5111 31.2693 80.5794 31.4526 80.5741 31.6412C80.5814 31.7428 80.5674 31.8448 80.5325 31.9405C80.4971 32.0361 80.4421 32.1233 80.3711 32.1963C80.2995 32.2693 80.2138 32.3264 80.1187 32.3639C80.0236 32.4014 79.9218 32.4184 79.8193 32.4138C79.6988 32.4099 79.5796 32.3806 79.4704 32.3277C79.3619 32.2748 79.2655 32.1995 79.1878 32.1068C78.7706 31.6798 78.2689 31.343 77.7151 31.1177C77.1613 30.8923 76.5666 30.7831 75.9685 30.7969C73.4323 30.7969 71.6965 32.5775 71.6965 35.1973C71.6965 37.817 73.4323 39.5976 75.9685 39.5976C76.6355 39.623 77.2985 39.4895 77.9033 39.2084C78.5074 38.9272 79.0358 38.5063 79.4449 37.9807C79.5173 37.9048 79.605 37.845 79.7021 37.8053C79.7999 37.7656 79.9044 37.747 80.0095 37.7505C80.1093 37.7453 80.2091 37.7611 80.3022 37.7968C80.3959 37.8326 80.4803 37.8875 80.5513 37.9578C80.6216 38.0283 80.6765 38.1127 80.7127 38.2057C80.7482 38.2987 80.7643 38.3981 80.7589 38.4976C80.7602 38.6582 80.7114 38.8153 80.6203 38.9478Z" fill="#007497"/>
<path d="M83.4444 25.1122V40.0479C83.4444 40.2623 83.3587 40.468 83.2067 40.6195C83.0546 40.7711 82.8484 40.8563 82.6334 40.8563C82.4178 40.8563 82.2115 40.7711 82.0595 40.6195C81.9074 40.468 81.8217 40.2623 81.8217 40.0479V25.1122C81.8217 24.8979 81.9074 24.6922 82.0595 24.5406C82.2115 24.389 82.4178 24.3039 82.6334 24.3039C82.8484 24.3039 83.0546 24.389 83.2067 24.5406C83.3587 24.6922 83.4444 24.8979 83.4444 25.1122Z" fill="#007497"/>
<path d="M95.3464 35.7652H86.3764C86.6329 38.0575 88.3018 39.6028 90.7663 39.6028C91.4219 39.6293 92.0749 39.5046 92.6743 39.2383C93.2737 38.972 93.8034 38.5715 94.2213 38.0677C94.2976 37.9655 94.3968 37.8825 94.5106 37.8256C94.6251 37.7687 94.751 37.7395 94.8789 37.7403C94.9787 37.7351 95.0785 37.7509 95.1716 37.7867C95.2647 37.8224 95.3497 37.8772 95.4201 37.9477C95.4911 38.018 95.546 38.1025 95.5821 38.1954C95.6176 38.2884 95.6337 38.3879 95.6283 38.4873C95.637 38.672 95.5788 38.8537 95.4643 38.999C94.8897 39.6745 94.1677 40.2101 93.3533 40.5649C92.539 40.9196 91.6536 41.0841 90.7663 41.0456C87.1258 41.0456 84.7075 38.6817 84.7075 35.1922C84.7075 31.7025 87.1258 29.3387 90.6277 29.3387C93.9648 29.3387 96.3831 31.6565 96.3831 34.7726C96.3958 34.9097 96.3777 35.0479 96.3295 35.177C96.2813 35.3061 96.2043 35.4226 96.1045 35.518C96.0054 35.6134 95.8848 35.6852 95.7536 35.728C95.6223 35.7708 95.483 35.7835 95.3464 35.7652ZM86.4226 34.3581H94.8535C94.6887 33.3621 94.1751 32.4565 93.4029 31.8031C92.6307 31.1497 91.651 30.791 90.6377 30.791C89.6251 30.791 88.6447 31.1497 87.8725 31.8031C87.1003 32.4565 86.5867 33.3621 86.4226 34.3581Z" fill="#007497"/>
<path d="M104.038 30.1932C104.048 30.2998 104.034 30.4073 103.997 30.5081C103.961 30.6087 103.903 30.7003 103.827 30.7763C103.751 30.8522 103.659 30.9108 103.558 30.948C103.458 30.9852 103.35 31 103.243 30.9914C100.588 30.9914 99.1095 32.6031 99.1095 35.8829V40.0479C99.1095 40.2624 99.0244 40.468 98.8717 40.6196C98.7197 40.7712 98.5134 40.8563 98.2984 40.8563C98.0835 40.8563 97.8772 40.7712 97.7245 40.6196C97.5725 40.468 97.4874 40.2624 97.4874 40.0479V30.3569C97.4874 30.1425 97.5725 29.9369 97.7245 29.7852C97.8772 29.6336 98.0835 29.5484 98.2984 29.5484C98.5134 29.5484 98.7197 29.6336 98.8717 29.7852C99.0244 29.9369 99.1095 30.1425 99.1095 30.3569V31.6207H99.1557C99.9312 30.1932 101.317 29.4205 103.264 29.4205C103.367 29.412 103.472 29.4261 103.57 29.462C103.668 29.4978 103.757 29.5544 103.831 29.6279C103.905 29.7015 103.961 29.7901 103.997 29.8877C104.033 29.9853 104.047 30.0896 104.038 30.1932Z" fill="#007497"/>
<path d="M109.481 29.3489C113.004 29.3489 115.422 31.7128 115.422 35.2024C115.422 38.692 113.004 41.0559 109.481 41.0559C105.959 41.0559 103.561 38.6664 103.561 35.2024C103.561 31.7384 105.969 29.3489 109.481 29.3489ZM109.481 39.5823C112.049 39.5823 113.779 37.8017 113.779 35.1819C113.779 32.5622 112.038 30.7816 109.481 30.7816C106.924 30.7816 105.204 32.5622 105.204 35.1819C105.204 37.8017 106.945 39.6283 109.481 39.6283V39.5823Z" fill="#007497"/>
<path d="M127.955 25.1122V40.0479C127.971 40.1591 127.962 40.2724 127.929 40.3798C127.896 40.487 127.839 40.5857 127.763 40.6685C127.687 40.7512 127.593 40.8161 127.489 40.8583C127.384 40.9005 127.272 40.9191 127.159 40.9126C127.045 40.9203 126.931 40.9027 126.825 40.8613C126.719 40.8198 126.623 40.7555 126.545 40.673C126.466 40.5903 126.407 40.4915 126.371 40.3834C126.335 40.2754 126.324 40.1608 126.338 40.0479V38.9478H126.287C125.398 40.2833 123.822 41.0559 121.804 41.0559C118.42 41.0559 116.156 38.7125 116.156 35.2024C116.156 31.6924 118.436 29.3489 121.804 29.3489C123.822 29.3489 125.398 30.1215 126.287 31.457H126.338V25.1122C126.322 24.999 126.332 24.8837 126.367 24.7747C126.402 24.6658 126.461 24.5662 126.54 24.4831C126.619 24.4001 126.715 24.3358 126.822 24.295C126.93 24.2542 127.045 24.238 127.159 24.2475C127.673 24.2475 127.955 24.5546 127.955 25.1122ZM126.338 35.2024C126.338 32.6031 124.572 30.8021 122.061 30.8021C119.55 30.8021 117.783 32.5827 117.783 35.2024C117.783 37.8222 119.524 39.6028 122.061 39.6028C124.597 39.6028 126.338 37.8222 126.338 35.2024Z" fill="#007497"/>
<path d="M139.898 35.7652H130.928C131.185 38.0575 132.853 39.6028 135.318 39.6028C135.973 39.6293 136.627 39.5046 137.226 39.2383C137.825 38.972 138.355 38.5715 138.773 38.0677C138.85 37.9655 138.949 37.8825 139.063 37.8256C139.177 37.7687 139.303 37.7395 139.431 37.7403C139.531 37.7351 139.631 37.7509 139.724 37.7867C139.817 37.8224 139.902 37.8772 139.972 37.9477C140.043 38.018 140.098 38.1025 140.134 38.1954C140.17 38.2884 140.186 38.3879 140.18 38.4873C140.189 38.672 140.131 38.8537 140.016 38.999C139.441 39.6739 138.718 40.2091 137.905 40.5638C137.09 40.9185 136.206 41.0833 135.318 41.0456C131.678 41.0456 129.26 38.6817 129.26 35.1922C129.26 31.7025 131.678 29.3387 135.179 29.3387C138.511 29.3387 140.93 31.6565 140.93 34.7726C140.944 34.9094 140.926 35.0476 140.878 35.1767C140.831 35.3058 140.754 35.4225 140.655 35.518C140.556 35.6135 140.436 35.6854 140.305 35.7282C140.174 35.771 140.034 35.7836 139.898 35.7652ZM130.974 34.3581H139.405C139.241 33.3621 138.726 32.4565 137.955 31.8031C137.183 31.1497 136.202 30.791 135.19 30.791C134.176 30.791 133.197 31.1497 132.425 31.8031C131.652 32.4565 131.138 33.3621 130.974 34.3581Z" fill="#007497"/>
<path d="M148.585 30.1932C148.595 30.2998 148.58 30.4073 148.544 30.5081C148.507 30.6087 148.449 30.7003 148.374 30.7763C148.297 30.8522 148.206 30.9108 148.105 30.948C148.005 30.9852 147.897 31 147.79 30.9914C145.135 30.9914 143.651 32.6031 143.651 35.8829V40.0479C143.66 40.1592 143.645 40.271 143.609 40.3765C143.572 40.4819 143.514 40.5787 143.438 40.6606C143.363 40.7426 143.27 40.808 143.168 40.8528C143.065 40.8975 142.954 40.9206 142.842 40.9206C142.731 40.9206 142.619 40.8975 142.517 40.8528C142.415 40.808 142.322 40.7426 142.246 40.6606C142.171 40.5787 142.112 40.4819 142.076 40.3765C142.039 40.271 142.025 40.1592 142.033 40.0479V30.3569C142.025 30.2457 142.039 30.1338 142.076 30.0283C142.112 29.9229 142.171 29.8262 142.246 29.7442C142.322 29.6622 142.415 29.5968 142.517 29.5521C142.619 29.5072 142.731 29.4842 142.842 29.4842C142.954 29.4842 143.065 29.5072 143.168 29.5521C143.27 29.5968 143.363 29.6622 143.438 29.7442C143.514 29.8262 143.572 29.9229 143.609 30.0283C143.645 30.1338 143.66 30.2457 143.651 30.3569V31.6207H143.702C144.473 30.1932 145.859 29.4205 147.81 29.4205C147.914 29.412 148.019 29.4261 148.116 29.462C148.215 29.4978 148.303 29.5544 148.378 29.6279C148.451 29.7015 148.508 29.7901 148.544 29.8877C148.58 29.9853 148.594 30.0896 148.585 30.1932Z" fill="#007497"/>
<path d="M166.464 34.3377V40.0479C166.477 40.1611 166.465 40.2757 166.428 40.3838C166.392 40.4918 166.332 40.5905 166.253 40.673C166.174 40.7555 166.079 40.8197 165.972 40.8611C165.866 40.9025 165.751 40.9201 165.637 40.9126C165.525 40.9173 165.413 40.8974 165.31 40.8546C165.206 40.8118 165.113 40.7469 165.037 40.6646C164.961 40.5822 164.905 40.4844 164.871 40.3779C164.837 40.2713 164.827 40.1588 164.841 40.0479V34.4758C164.841 32.0914 163.814 30.8021 161.883 30.8021C159.953 30.8021 158.639 32.3933 158.639 34.8954V40.0479C158.647 40.1592 158.633 40.271 158.597 40.3765C158.56 40.4819 158.502 40.5787 158.426 40.6606C158.35 40.7426 158.258 40.808 158.155 40.8528C158.053 40.8975 157.942 40.9206 157.83 40.9206C157.718 40.9206 157.607 40.8975 157.505 40.8528C157.402 40.808 157.31 40.7426 157.234 40.6606C157.158 40.5787 157.1 40.4819 157.064 40.3765C157.027 40.271 157.013 40.1592 157.021 40.0479V34.4758C157.021 32.0914 155.995 30.8021 154.039 30.8021C152.082 30.8021 150.819 32.3933 150.819 34.8954V40.0479C150.819 40.2623 150.734 40.468 150.582 40.6196C150.429 40.7712 150.223 40.8563 150.008 40.8563C149.793 40.8563 149.586 40.7712 149.434 40.6196C149.282 40.468 149.197 40.2623 149.197 40.0479V30.3569C149.197 30.1425 149.282 29.9369 149.434 29.7852C149.586 29.6336 149.793 29.5484 150.008 29.5484C150.223 29.5484 150.429 29.6336 150.582 29.7852C150.734 29.9369 150.819 30.1425 150.819 30.3569V31.104H150.865C151.254 30.5366 151.781 30.0777 152.398 29.7706C153.014 29.4634 153.699 29.3183 154.387 29.3489C156.149 29.3489 157.443 30.1011 158.079 31.4825H158.125C158.875 30.1215 160.215 29.3489 162.141 29.3489C165.016 29.3489 166.464 31.0835 166.464 34.3377Z" fill="#007497"/>
<path d="M179.392 30.3569V40.0479C179.408 40.1595 179.4 40.2733 179.366 40.3811C179.333 40.4888 179.276 40.5877 179.199 40.6705C179.122 40.7535 179.027 40.8181 178.922 40.8601C178.818 40.9019 178.704 40.9199 178.591 40.9126C178.477 40.9203 178.363 40.9027 178.257 40.8613C178.151 40.8198 178.055 40.7555 177.976 40.673C177.898 40.5903 177.839 40.4915 177.803 40.3834C177.768 40.2754 177.756 40.1608 177.77 40.0479V38.9478H177.723C176.83 40.2833 175.254 41.0559 173.236 41.0559C169.852 41.0559 167.588 38.7125 167.588 35.2024C167.588 31.6924 169.863 29.3489 173.236 29.3489C175.254 29.3489 176.83 30.1215 177.723 31.457H177.77V30.3569C177.754 30.2437 177.764 30.1283 177.799 30.0194C177.834 29.9105 177.893 29.8108 177.972 29.7278C178.051 29.6447 178.147 29.5804 178.254 29.5397C178.362 29.4989 178.477 29.4826 178.591 29.4922C179.115 29.4922 179.392 29.7941 179.392 30.3569ZM177.77 35.2024C177.77 32.6031 176.009 30.8021 173.493 30.8021C170.977 30.8021 169.221 32.5827 169.221 35.2024C169.221 37.8222 170.957 39.6028 173.493 39.6028C176.029 39.6028 177.775 37.8222 177.775 35.2024H177.77Z" fill="#007497"/>
<path d="M10.705 17.023C10.705 17.023 16.5223 29.6714 28.6345 27.1592C27.946 26.216 27.351 25.2083 26.858 24.1505C26.4892 24.4329 26.062 24.63 25.6072 24.7273C25.1525 24.8247 24.6818 24.82 24.2291 24.7133C24.1157 24.693 24.0054 24.6586 23.9006 24.611C23.1892 24.35 22.6013 23.8336 22.2524 23.163C22.0103 22.6951 21.8913 22.1737 21.9066 21.6474C21.9219 21.1213 22.0709 20.6075 22.3396 20.1544L22.4732 19.9548C22.8959 19.36 23.5223 18.9396 24.2343 18.7729C24.3812 18.737 24.5304 18.7113 24.681 18.6961C24.681 18.6961 23.6541 16.2657 23.2125 10.6987C21.4045 10.9844 19.6353 11.4754 17.9394 12.1621C15.219 13.2709 12.7564 14.9255 10.705 17.023Z" fill="#007497"/>
<path d="M23.2022 10.6885C23.6541 16.2555 24.6707 18.6859 24.6707 18.6859C24.7562 18.6808 24.8419 18.6808 24.9274 18.6859C25.5606 18.6923 26.1764 18.8931 26.6911 19.2609C27.2057 19.6286 27.5941 20.1454 27.8034 20.741C28.0127 21.3365 28.0328 21.9819 27.8609 22.5893C27.689 23.1966 27.3333 23.7364 26.8426 24.1352C27.3356 25.193 27.9306 26.2006 28.6191 27.1438C28.6191 27.1438 35.1553 26.233 44.0225 19.3306C41.6409 16.0916 38.4218 13.5575 34.7086 11.9984C31.0719 10.4967 27.0851 10.0429 23.2022 10.6885Z" fill="#00B189"/>
<path d="M30.6256 34.5627C32.0581 34.4553 33.4239 34.4092 34.7332 34.4041H34.7948C33.8398 33.5189 32.9978 32.6644 32.2687 31.8458L32.2379 31.8918C31.5797 32.6834 31.0369 33.5636 30.6256 34.5064V34.5627Z" fill="#6BCBB8"/>
<path d="M32.29 31.8667C33.0139 32.6649 33.856 33.5194 34.8059 34.3995H34.8778C39.2602 34.3714 43.6328 34.8157 47.9193 35.7247H47.9963C48.1948 34.5221 48.2944 33.3055 48.2942 32.0867C48.3003 28.7987 47.5541 25.5526 46.112 22.5952L46.0606 22.626C44.9824 23.1376 42.7232 24.2582 40.1868 25.6959C37.1832 27.4151 34.2462 29.4516 32.3054 31.836L32.29 31.8667Z" fill="#89DC65"/>
<path d="M34.9186 34.4043C39.2768 34.379 43.6251 34.8216 47.8883 35.7245H47.9909C47.6379 37.8345 46.9699 39.88 46.009 41.7929L45.9321 41.7622C41.8411 39.9296 38.0818 37.4366 34.8056 34.3839L34.9186 34.4043Z" fill="#A0E2BA"/>
<path d="M30.6229 34.5682C30.4439 34.9937 30.3013 35.4337 30.1967 35.8832C30.1967 35.8832 30.0889 36.2721 29.9811 36.8502C29.5806 39.0453 29.3136 44.9397 36.1424 51.6221H36.1886C40.4414 49.5075 43.8889 46.072 46.0109 41.8339L45.9133 41.793C41.8283 39.9603 38.0743 37.4692 34.8023 34.4198H34.6021C33.3544 34.4198 32.0348 34.4812 30.7102 34.5733L30.6229 34.5682Z" fill="#78DED4"/>
<path d="M7.09532 42.2228C5.63902 39.4498 4.79861 36.3969 4.63117 33.2716C4.46373 30.1462 4.97317 27.0215 6.12491 24.1097L6.28922 24.2377C10.9975 27.8193 15.3259 31.2475 16.4144 35.1464C16.597 35.8154 16.7106 36.5011 16.7533 37.1931V37.2903C13.3117 38.4843 10.0606 40.1662 7.10046 42.2842" fill="#007497"/>
<path d="M17.0974 51.7913C21.83 54.0124 27.2024 54.4787 32.2491 53.1062C32.2491 53.1062 26.7758 47.6263 22.4372 46.6695C20.5939 46.2806 19.1973 47.2477 17.0974 51.7913Z" fill="#6BCBB8"/>
<path d="M7.2193 42.5042C8.81041 45.3997 11.0378 47.8992 13.735 49.8159L13.8582 49.8978C14.8306 47.4243 15.6133 44.8808 16.1995 42.2893C16.6024 40.6646 16.7888 38.9941 16.754 37.3209V37.2954L16.6873 37.3209C13.2656 38.5114 10.0337 40.1863 7.09094 42.2944L7.2193 42.5042Z" fill="#36B0C9"/>
</svg>
