<svg width="184" height="65" viewBox="0 0 184 65" fill="none" xmlns="http://www.w3.org/2000/svg">
<path d="M13.5969 7.57969C10.0213 9.07722 6.08601 13.3083 4.8434 18.6191C3.27016 25.348 9.81694 28.1936 10.3539 27.2604C10.9858 26.1642 9.18085 25.7934 8.80895 22.3021C8.32868 17.793 10.425 12.7541 13.0634 10.5434C13.5538 10.1329 13.5304 10.7045 13.5304 11.7618L13.426 34.1707C13.426 38.9646 13.2281 40.4787 12.8725 41.9743C12.5121 43.4901 11.9329 44.5147 12.3719 44.9089C12.8623 45.3503 14.9565 44.3004 16.1682 42.6086C17.6218 40.5796 18.1303 38.1429 18.2219 35.4966C18.3323 32.3066 18.3279 27.2448 18.3323 24.3572L18.2881 9.29352C18.2661 8.15023 15.0949 6.95065 13.5984 7.57748L13.5969 7.57969ZM140.647 30.0136C140.531 32.5059 139.98 34.4537 139.295 35.8279C137.97 38.4879 135.219 39.3138 134.051 35.4902C133.415 33.4058 133.385 29.9247 133.843 27.0159C134.306 24.0528 135.609 21.8148 137.763 22.0167C139.887 22.2163 140.881 24.9531 140.647 30.0138L140.647 30.0136ZM104.837 45.4765C104.809 49.6176 104.157 53.2483 102.759 54.3051C100.777 55.8004 98.113 54.6787 98.6647 51.657C99.153 48.983 101.461 46.2524 104.843 42.9158L104.838 45.4788L104.837 45.4765ZM104.296 29.9902C104.175 32.26 103.586 34.5404 102.944 35.829C101.619 38.489 98.8488 39.3206 97.7007 35.4913C96.9156 32.8747 97.1036 29.4883 97.4921 27.3547C97.9962 24.5863 99.2181 22.0178 101.412 22.0178C103.545 22.0178 104.597 24.3581 104.296 29.9904L104.296 29.9902ZM83.5527 29.9556C83.4225 32.3596 82.9537 34.3694 82.2011 35.8287C80.8393 38.4707 78.1455 39.3083 76.9574 35.4911C76.101 32.7383 76.3924 28.9851 76.7488 26.9576C77.2776 23.9489 78.6015 21.8157 80.6687 22.0181C82.7919 22.2255 83.824 24.9542 83.553 29.956L83.5527 29.9556ZM178.615 32.7635C178.096 32.7635 177.859 33.2985 177.663 34.199C176.984 37.3303 176.269 38.0394 175.346 38.0394C174.317 38.0394 173.392 36.4889 173.154 33.3852C172.968 30.9448 172.998 26.4518 173.236 21.9825C173.285 21.0644 173.032 20.1557 170.569 19.2611C169.509 18.8762 167.968 18.3099 167.201 20.1612C165.034 25.3921 164.186 29.5453 163.987 31.2322C163.976 31.3196 163.869 31.3372 163.851 31.1333C163.723 29.7821 163.439 27.3267 163.404 22.1675C163.397 21.161 163.184 20.3042 162.073 19.6028C161.352 19.1477 159.163 18.3425 158.375 19.3004C157.692 20.084 156.901 22.1918 156.079 24.6902L154.946 28.0947L154.963 20.5369C154.967 19.7527 154.429 19.4916 154.267 19.4443C153.537 19.2324 152.099 18.8784 151.486 18.8784C150.732 18.8784 150.548 19.2995 150.548 19.9129L150.429 32.1155L150.431 32.8195C150.014 35.1123 148.663 38.2248 147.194 38.2248C145.723 38.2248 145.031 36.9237 145.031 30.9766C145.031 27.5074 145.135 25.9988 145.186 23.49L145.27 20.683C145.259 19.9105 143.924 19.5214 143.302 19.3775C142.678 19.2324 142.135 19.1762 141.712 19.2002C141.112 19.234 140.688 19.6275 140.688 20.1685L140.691 21.0103C139.918 19.7964 138.676 18.9519 137.85 18.7072C135.624 18.0461 133.301 18.6321 131.549 21.0836C130.156 23.0316 129.316 25.2381 128.988 28.4082C128.747 30.7256 128.826 33.0758 129.255 35.0633C128.736 37.3058 127.773 38.2248 126.719 38.2248C125.188 38.2248 124.078 35.7263 124.207 31.4048C124.292 28.5624 124.861 26.5676 125.483 23.682C125.748 22.4518 125.533 21.8077 124.992 21.1906C124.497 20.6245 123.441 20.3354 121.924 20.6911C120.843 20.945 119.297 21.2175 117.883 21.427C117.883 21.427 117.969 21.0867 118.038 20.4863C118.406 17.339 114.986 17.5941 113.895 18.5992C113.243 19.1996 112.8 19.9074 112.631 21.1802C112.364 23.2002 114.012 24.1528 114.012 24.1528C113.471 26.6248 112.147 29.8591 110.779 32.1956C110.046 33.4475 109.485 34.3753 108.762 35.3615L108.756 34.2617L108.839 23.4909L108.924 20.7134C108.916 20.1484 108.586 19.9352 107.9 19.665C107.293 19.4262 106.575 19.2607 105.832 19.2031C104.892 19.1298 104.326 19.628 104.341 20.217C104.344 20.3283 104.344 21.0112 104.344 21.0112C103.572 19.7973 102.329 18.9528 101.503 18.708C99.277 18.0472 96.9542 18.633 95.2018 21.0845C93.8095 23.0325 92.8975 25.7662 92.6415 28.3848C92.3987 30.8254 92.445 32.8994 92.7732 34.6464C92.4192 36.396 91.4015 38.2255 90.2509 38.2255C88.7799 38.2255 87.9427 36.9244 87.9427 30.9773C87.9427 27.5081 88.0469 25.9995 88.0981 23.4907L88.182 20.6836C88.1709 19.9111 86.8356 19.522 86.2141 19.3779C85.5639 19.2278 85.0002 19.1722 84.5713 19.204C84.0025 19.2464 83.6024 19.7558 83.6024 20.1354V21.0107C82.8299 19.7968 81.5879 18.9524 80.7614 18.7076C78.5353 18.0468 76.2253 18.642 74.46 21.084C73.309 22.6765 72.3772 24.4417 71.8997 28.3499C71.7611 29.4793 71.7 30.5367 71.7077 31.5253C71.2486 34.3323 69.2216 37.5675 67.5632 37.5675C66.5927 37.5675 65.6686 35.6853 65.6686 31.674C65.6686 26.3306 65.9992 18.7233 66.0553 17.9898L68.556 17.9494C69.601 17.938 70.5477 17.9627 71.9395 17.8914C72.6376 17.8561 73.3101 15.3501 72.5897 15.0398C72.263 14.8994 69.9548 14.7765 69.0398 14.7573C68.2704 14.7396 66.1286 14.5814 66.1286 14.5814L66.3654 8.99843C66.4033 8.55391 65.8282 8.32526 65.498 8.18621C64.6959 7.84697 63.9784 7.68453 63.1275 7.50928C61.9524 7.26694 61.4192 7.50398 61.315 8.49587C61.1605 10.0011 61.0766 14.4101 61.0766 14.4101C60.2143 14.4101 57.2685 14.2415 56.4059 14.2415C55.6047 14.2415 54.7395 17.6883 55.8475 17.7309L60.8171 17.8678L60.7542 28.724C59.9435 32.9491 57.0881 35.2315 57.0881 35.2315C57.7013 32.4364 56.4487 30.3374 54.1924 28.5604C53.3612 27.9056 51.7204 26.6661 49.8841 25.3078C49.8841 25.3078 50.9475 24.2598 51.8926 22.1516C52.5607 20.658 52.5896 18.9491 50.9497 18.5721C48.2398 17.949 46.0057 19.939 45.3391 22.0638C44.8227 23.7096 45.0981 24.9308 46.1094 26.1999C46.1834 26.2926 46.2633 26.3875 46.346 26.4824C45.7342 27.6615 44.8938 29.2488 44.1824 30.4795C42.207 33.8973 40.7146 36.6006 39.5872 36.6006C38.6855 36.6006 38.6977 33.856 38.6977 31.2862C38.6977 29.071 38.861 25.7404 38.9919 22.2922C39.0351 21.1518 38.4648 20.5022 37.5087 19.9136C36.9282 19.556 35.6883 18.8533 34.9705 18.8533C33.8956 18.8533 30.7957 18.9994 27.8664 27.473C27.4972 28.5412 26.7717 30.487 26.7717 30.487L26.8341 20.2974C26.8341 20.0586 26.707 19.8273 26.4154 19.6695C25.9219 19.4015 24.6056 18.8533 23.4314 18.8533C22.873 18.8533 22.594 19.113 22.594 19.6308L22.4918 35.5729C22.4918 36.7842 22.5234 38.1994 22.6432 38.8152C22.7631 39.431 22.9558 39.9373 23.195 40.2366C23.4343 40.5359 23.7106 40.7637 24.1666 40.8577C24.591 40.9451 26.9145 41.2435 27.0354 40.3556C27.1802 39.2917 27.1855 38.1403 28.4061 33.8476C30.3055 27.1644 32.7821 23.9034 33.9464 22.7453C34.1499 22.5429 34.3823 22.5308 34.3713 22.8623L34.0292 31.0993C33.7135 39.4235 35.2281 40.9665 37.3922 40.9665C39.0475 40.9665 41.3815 39.3215 43.8811 35.1573L48.0433 28.1839L50.5027 30.4484C52.4788 32.3238 53.1274 34.1061 52.6971 35.7963C52.3678 37.0888 51.1278 38.4228 48.9213 37.1261C48.2782 36.7487 48.0036 36.4567 47.3569 36.0307C47.0095 35.802 46.4789 35.7336 46.1606 35.9733C45.3345 36.5962 44.862 37.3885 44.592 38.3696C44.3294 39.3242 45.2855 39.8285 46.2765 40.2677C47.1298 40.6474 48.9637 40.9917 50.1333 41.0309C54.6903 41.1854 58.3407 38.8304 60.882 32.7619C61.3366 38.003 63.273 40.9689 66.6364 40.9689C68.8855 40.9689 71.1398 38.0621 72.1255 35.2026C72.4085 36.3679 72.8274 37.3819 73.3686 38.2389C75.9604 42.3455 80.9885 41.4613 83.5141 37.9745C84.295 36.897 84.414 36.5099 84.414 36.5099C84.7825 39.8025 87.434 40.9528 88.9518 40.9528C90.6522 40.9528 92.4077 40.149 93.6382 37.3788C93.7823 37.6794 93.9397 37.9666 94.1116 38.2387C96.7035 42.3453 101.732 41.4611 104.257 37.9743C104.364 37.8277 104.468 37.6793 104.57 37.5291L104.644 39.6921L102.319 41.8246C98.4261 45.3958 95.4664 48.1055 95.2485 51.2608C94.9691 55.2844 98.2319 56.7793 100.701 56.975C103.322 57.1832 105.567 55.7346 106.947 53.7085C108.161 51.9247 108.955 48.0852 108.897 44.2933L108.805 38.7746C110.173 37.1855 111.715 35.1776 113.134 32.827C114.681 30.2655 116.339 26.8254 117.187 24.1482C117.187 24.1482 118.627 24.1605 120.165 24.0599C120.656 24.0279 120.797 24.1283 120.707 24.4885C120.597 24.924 118.765 31.9905 120.437 36.6983C121.581 39.9208 124.161 40.9581 125.691 40.9581C127.482 40.9581 129.195 39.6058 130.113 37.5978C130.223 37.8216 130.339 38.0383 130.465 38.2383C133.057 42.3449 138.067 41.4556 140.611 37.9739C141.184 37.1881 141.51 36.5092 141.51 36.5092C142.056 39.917 144.706 40.9698 146.224 40.9698C147.805 40.9698 149.306 40.3216 150.524 37.4406C150.574 38.709 150.655 39.7462 150.781 40.0731C150.858 40.273 151.307 40.524 151.634 40.6454C153.081 41.1817 154.556 40.9279 155.099 40.8175C155.478 40.7409 155.773 40.4379 155.812 39.6544C155.918 37.5978 155.853 34.1423 156.475 31.5741C157.521 27.2642 158.497 25.5927 158.96 24.7651C159.22 24.3016 159.512 24.2248 159.523 24.7156C159.545 25.7088 159.594 28.6245 160 32.5428C160.298 35.4242 160.695 37.1274 161.001 37.6664C161.873 39.2079 162.95 39.2809 163.826 39.2809C164.384 39.2809 165.551 39.1264 165.447 38.1458C165.396 37.6677 165.485 34.7128 166.517 30.4667C167.191 27.6939 168.314 25.1886 168.719 24.2727C168.868 23.935 168.938 24.2011 168.935 24.2528C168.85 26.1624 168.659 32.4081 169.436 35.8241C170.491 40.4518 173.542 40.9696 174.604 40.9696C176.874 40.9696 178.729 39.2436 179.355 34.7013C179.506 33.6082 179.283 32.7641 178.614 32.7641" fill="#262626"/>
</svg>
