<svg  viewBox="20 16 220 50" fill="none" xmlns="http://www.w3.org/2000/svg"><defs>
<clipPath id="clip0_0_2780">
<rect width="100" height="20" fill="white" transform="translate(91 31)"/>
</clipPath>
</defs><path d="M21.5507 62.0734L20.0018 20.8022C19.9506 19.4392 20.9958 18.2841 22.3571 18.199L57.461 16.005C58.8467 15.9184 60.0403 16.9715 60.1269 18.3571C60.1301 18.4093 60.1318 18.4616 60.1318 18.5139V63.4861C60.1318 64.8745 59.0062 66 57.6179 66C57.5802 66 57.5426 65.9991 57.5051 65.9975L23.95 64.4904C22.6432 64.4318 21.5998 63.3806 21.5507 62.0734Z" fill="white"/><g mask="url(#mask0_0_2780)">
<path d="M21.5507 62.0734L20.0018 20.8022C19.9506 19.4392 20.9958 18.2841 22.3571 18.199L57.461 16.005C58.8467 15.9184 60.0403 16.9715 60.1269 18.3571C60.1301 18.4093 60.1318 18.4616 60.1318 18.5139V63.4861C60.1318 64.8745 59.0062 66 57.6179 66C57.5802 66 57.5426 65.9991 57.5051 65.9975L23.95 64.4904C22.6432 64.4318 21.5998 63.3806 21.5507 62.0734Z" fill="#FF4785"/>
<path d="M49.6351 22.1458L49.8748 16.3788L54.6957 16L54.9033 21.9473C54.9106 22.1543 54.7487 22.328 54.5417 22.3352C54.4531 22.3383 54.3662 22.3099 54.2966 22.255L52.4375 20.7905L50.2363 22.4601C50.0713 22.5853 49.8361 22.553 49.711 22.388C49.6583 22.3186 49.6315 22.2329 49.6351 22.1458Z" fill="white"/>
<path d="M43.4697 34.8461C43.4697 35.8241 50.0577 35.3554 50.9421 34.6684C50.9421 28.0081 47.3684 24.5083 40.8244 24.5083C34.2802 24.5083 30.6137 28.0626 30.6137 33.394C30.6137 42.6796 43.1449 42.8574 43.1449 47.9222C43.1449 49.344 42.4487 50.1881 40.9171 50.1881C38.9214 50.1881 38.1324 49.1689 38.2252 45.7035C38.2252 44.9516 30.6137 44.7172 30.3816 45.7035C29.7907 54.1015 35.0229 56.5237 41.01 56.5237C46.8115 56.5237 51.3599 53.4314 51.3599 47.8334C51.3599 37.8814 38.643 38.1479 38.643 33.2164C38.643 31.217 40.1281 30.9505 41.01 30.9505C41.9382 30.9505 43.609 31.1141 43.4697 34.8461Z" fill="white"/>
</g><g clip-path="url(#clip0_0_2780)">
<path fill-rule="evenodd" clip-rule="evenodd" d="M117.639 46.8314C116.786 46.8314 115.964 46.7167 115.175 46.4874C114.386 46.2581 113.73 45.9407 113.207 45.5354L114.007 43.7594C115.095 44.5167 116.316 44.8954 117.671 44.8954C118.375 44.8954 118.916 44.7807 119.295 44.5514C119.674 44.3221 119.863 44.0047 119.863 43.5994C119.863 43.2367 119.69 42.9541 119.343 42.7514C118.996 42.5487 118.38 42.3514 117.495 42.1594C116.503 41.9567 115.711 41.7114 115.119 41.4234C114.527 41.1354 114.095 40.7807 113.823 40.3594C113.551 39.9381 113.415 39.4181 113.415 38.7994C113.415 38.1167 113.604 37.5087 113.983 36.9754C114.362 36.4421 114.892 36.0234 115.575 35.7194C116.258 35.4154 117.047 35.2634 117.943 35.2634C118.743 35.2634 119.514 35.3808 120.255 35.6154C120.996 35.8501 121.586 36.1647 122.023 36.5594L121.223 38.3354C120.188 37.5781 119.1 37.1994 117.959 37.1994C117.308 37.1994 116.796 37.3247 116.423 37.5754C116.05 37.8261 115.863 38.1701 115.863 38.6074C115.863 38.8634 115.935 39.0741 116.079 39.2394C116.223 39.4047 116.463 39.5514 116.799 39.6794C117.135 39.8074 117.612 39.9407 118.231 40.0794C119.682 40.3994 120.724 40.8101 121.359 41.3114C121.994 41.8127 122.311 42.5061 122.311 43.3914C122.311 44.4581 121.9 45.2981 121.079 45.9114C120.258 46.5247 119.111 46.8314 117.639 46.8314ZM128.103 45.0394C128.348 45.0394 128.604 45.0234 128.871 44.9914L128.743 46.7514C128.434 46.7941 128.124 46.8154 127.815 46.8154C126.62 46.8154 125.748 46.5541 125.199 46.0314C124.65 45.5087 124.375 44.7141 124.375 43.6474V40.6394H122.887V38.8314H124.375V36.5274H126.791V38.8314H128.759V40.6394H126.791V43.6314C126.791 44.5701 127.228 45.0394 128.103 45.0394ZM133.719 46.8154C132.887 46.8154 132.156 46.6474 131.527 46.3114C130.898 45.9754 130.412 45.5007 130.071 44.8874C129.73 44.2741 129.559 43.5514 129.559 42.7194C129.559 41.8874 129.73 41.1647 130.071 40.5514C130.412 39.9381 130.898 39.4661 131.527 39.1354C132.156 38.8047 132.887 38.6394 133.719 38.6394C134.551 38.6394 135.282 38.8047 135.911 39.1354C136.54 39.4661 137.026 39.9381 137.367 40.5514C137.708 41.1647 137.879 41.8874 137.879 42.7194C137.879 43.5514 137.708 44.2741 137.367 44.8874C137.026 45.5007 136.54 45.9754 135.911 46.3114C135.282 46.6474 134.551 46.8154 133.719 46.8154ZM133.719 44.9754C134.892 44.9754 135.479 44.2234 135.479 42.7194C135.479 41.9621 135.327 41.3967 135.023 41.0234C134.719 40.6501 134.284 40.4634 133.719 40.4634C132.546 40.4634 131.959 41.2154 131.959 42.7194C131.959 44.2234 132.546 44.9754 133.719 44.9754ZM144.567 40.6234L143.207 40.7674C142.535 40.8314 142.061 41.0207 141.783 41.3354C141.506 41.6501 141.367 42.0687 141.367 42.5914V46.6874H138.951V38.8314H141.271V40.1594C141.666 39.2527 142.482 38.7567 143.719 38.6714L144.423 38.6234L144.567 40.6234ZM151.587 38.8474H153.955L149.219 49.5674H146.771L148.275 46.2554L145.043 38.8474H147.555L149.539 43.8394L151.587 38.8474ZM159.555 38.6394C160.238 38.6394 160.841 38.8047 161.363 39.1354C161.886 39.4661 162.294 39.9381 162.587 40.5514C162.881 41.1647 163.027 41.8767 163.027 42.6874C163.027 43.4981 162.881 44.2154 162.587 44.8394C162.294 45.4634 161.883 45.9487 161.355 46.2954C160.827 46.6421 160.227 46.8154 159.555 46.8154C159.011 46.8154 158.521 46.7007 158.083 46.4714C157.646 46.2421 157.31 45.9247 157.075 45.5194V46.6874H154.691V35.4074H157.107V39.8874C157.342 39.4927 157.675 39.1861 158.107 38.9674C158.539 38.7487 159.022 38.6394 159.555 38.6394ZM158.851 44.9754C159.417 44.9754 159.854 44.7754 160.163 44.3754C160.473 43.9754 160.627 43.4127 160.627 42.6874C160.627 41.9727 160.473 41.4261 160.163 41.0474C159.854 40.6687 159.417 40.4794 158.851 40.4794C158.286 40.4794 157.849 40.6741 157.539 41.0634C157.23 41.4527 157.075 42.0047 157.075 42.7194C157.075 43.4447 157.23 44.0021 157.539 44.3914C157.849 44.7807 158.286 44.9754 158.851 44.9754ZM168.275 46.8154C167.443 46.8154 166.713 46.6474 166.083 46.3114C165.454 45.9754 164.969 45.5007 164.627 44.8874C164.286 44.2741 164.115 43.5514 164.115 42.7194C164.115 41.8874 164.286 41.1647 164.627 40.5514C164.969 39.9381 165.454 39.4661 166.083 39.1354C166.713 38.8047 167.443 38.6394 168.275 38.6394C169.107 38.6394 169.838 38.8047 170.467 39.1354C171.097 39.4661 171.582 39.9381 171.923 40.5514C172.265 41.1647 172.435 41.8874 172.435 42.7194C172.435 43.5514 172.265 44.2741 171.923 44.8874C171.582 45.5007 171.097 45.9754 170.467 46.3114C169.838 46.6474 169.107 46.8154 168.275 46.8154ZM168.275 44.9754C169.449 44.9754 170.035 44.2234 170.035 42.7194C170.035 41.9621 169.883 41.3967 169.579 41.0234C169.275 40.6501 168.841 40.4634 168.275 40.4634C167.102 40.4634 166.515 41.2154 166.515 42.7194C166.515 44.2234 167.102 44.9754 168.275 44.9754ZM177.283 46.8154C176.451 46.8154 175.721 46.6474 175.091 46.3114C174.462 45.9754 173.977 45.5007 173.635 44.8874C173.294 44.2741 173.123 43.5514 173.123 42.7194C173.123 41.8874 173.294 41.1647 173.635 40.5514C173.977 39.9381 174.462 39.4661 175.091 39.1354C175.721 38.8047 176.451 38.6394 177.283 38.6394C178.115 38.6394 178.846 38.8047 179.475 39.1354C180.105 39.4661 180.59 39.9381 180.931 40.5514C181.273 41.1647 181.443 41.8874 181.443 42.7194C181.443 43.5514 181.273 44.2741 180.931 44.8874C180.59 45.5007 180.105 45.9754 179.475 46.3114C178.846 46.6474 178.115 46.8154 177.283 46.8154ZM177.283 44.9754C178.457 44.9754 179.043 44.2234 179.043 42.7194C179.043 41.9621 178.891 41.3967 178.587 41.0234C178.283 40.6501 177.849 40.4634 177.283 40.4634C176.11 40.4634 175.523 41.2154 175.523 42.7194C175.523 44.2234 176.11 44.9754 177.283 44.9754ZM190.999 46.6874H188.039L185.031 43.1834V46.6874H182.615V35.4074H185.031V42.1914L187.927 38.8474H190.807L187.511 42.5914L190.999 46.6874Z" fill="#333333"/>
<mask id="mask1_0_2780" style="mask-type:alpha" maskUnits="userSpaceOnUse" x="91" y="31" width="17" height="20">
<path d="M91.6203 49.4293L91.0007 32.9209C90.9803 32.3757 91.3983 31.9136 91.9428 31.8796L105.984 31.002C106.539 30.9674 107.016 31.3886 107.051 31.9429C107.052 31.9637 107.053 31.9847 107.053 32.0056V49.9944C107.053 50.5498 106.602 51 106.047 51C106.032 51 106.017 50.9997 106.002 50.999L92.58 50.3962C92.0573 50.3727 91.6399 49.9522 91.6203 49.4293Z" fill="white"/>
</mask>
<g mask="url(#mask1_0_2780)">
<path d="M91.6203 49.4293L91.0007 32.9209C90.9803 32.3757 91.3983 31.9136 91.9428 31.8796L105.984 31.002C106.539 30.9674 107.016 31.3886 107.051 31.9429C107.052 31.9637 107.053 31.9847 107.053 32.0056V49.9944C107.053 50.5498 106.602 51 106.047 51C106.032 51 106.017 50.9997 106.002 50.999L92.58 50.3962C92.0573 50.3727 91.6399 49.9522 91.6203 49.4293Z" fill="#FF4785"/>
<path d="M102.854 33.4583L102.95 31.1515L104.878 31L104.961 33.3789C104.964 33.4617 104.899 33.5312 104.816 33.5341C104.781 33.5353 104.746 33.5239 104.718 33.502L103.975 32.9162L103.094 33.5841C103.028 33.6341 102.934 33.6212 102.884 33.5552C102.863 33.5274 102.852 33.4932 102.854 33.4583Z" fill="white"/>
<path d="M100.388 38.5382C100.388 38.9294 103.023 38.7419 103.377 38.4671C103.377 35.803 101.948 34.4031 99.3301 34.4031C96.7125 34.4031 95.2459 35.8248 95.2459 37.9574C95.2459 41.6716 100.258 41.7427 100.258 43.7687C100.258 44.3374 99.9799 44.675 99.3672 44.675C98.5689 44.675 98.2533 44.2673 98.2905 42.8812C98.2905 42.5805 95.2459 42.4867 95.153 42.8812C94.9167 46.2404 97.0095 47.2093 99.4044 47.2093C101.725 47.2093 103.544 45.9724 103.544 43.7331C103.544 39.7523 98.4576 39.859 98.4576 37.8863C98.4576 37.0866 99.0516 36.98 99.4044 36.98C99.7757 36.98 100.444 37.0454 100.388 38.5382Z" fill="white"/>
</g></svg>