<svg width="250" height="82" viewBox="0 0 250 82" fill="none" xmlns="http://www.w3.org/2000/svg">
<path d="M239.042 0V0.5H244C247.038 0.5 249.5 2.96243 249.5 6V10.667H250V15.333H249.5V24.667H250V29.333H249.5V38.667H250V43.333H249.5V52.667H250V57.333H249.5V66.667H250V71.333H249.5V76C249.5 79.0376 247.038 81.5 244 81.5H239.042V82H234.083V81.5H224.167V82H219.208V81.5H209.292V82H204.333V81.5H194.417V82H189.458V81.5H179.542V82H174.583V81.5H164.667V82H159.708V81.5H149.792V82H144.833V81.5H134.917V82H129.958V81.5H120.042V82H115.083V81.5H105.167V82H100.208V81.5H90.292V82H85.333V81.5H75.417V82H70.458V81.5H60.542V82H55.583V81.5H45.667V82H40.708V81.5H30.792V82H25.833V81.5H15.917V82H10.958V81.5H6C2.96243 81.5 0.5 79.0376 0.5 76V71.333H0V66.667H0.5V57.333H0V52.667H0.5V43.333H0V38.667H0.5V29.333H0V24.667H0.5V15.333H0V10.667H0.5V6C0.5 2.96243 2.96243 0.5 6 0.5H10.958V0H15.917V0.5H25.833V0H30.792V0.5H40.708V0H45.667V0.5H55.583V0H60.542V0.5H70.458V0H75.417V0.5H85.333V0H90.292V0.5H100.208V0H105.167V0.5H115.083V0H120.042V0.5H129.958V0H134.917V0.5H144.833V0H149.792V0.5H159.708V0H164.667V0.5H174.583V0H179.542V0.5H189.458V0H194.417V0.5H204.333V0H209.292V0.5H219.208V0H224.167V0.5H234.083V0H239.042Z" stroke="#722ED1" stroke-dasharray="10 5"/>
<path d="M69.1463 40.3658C69.7561 48.4146 65.9756 52.9268 63.7805 56.0975C60.3659 59.7561 55.8537 64.7561 44.7561 65C35.2439 65.3658 30.6098 61.2195 26.7073 57.561C21.5854 51.9512 20.2439 48.5366 20 40.3658C20 35.2439 21.9512 30.2439 25.3659 25.7317C30.122 19.0244 37.6829 16.7074 44.7561 16.2196C52.0732 15.9756 57.9268 19.6342 61.9512 23.6586C67.0732 29.1463 68.6585 33.7805 69.1463 40.3658Z" fill="#FF7E1D"/>
<path d="M117.701 34.6809H119.403V39.4149C120.095 38.4043 121.052 37.8724 122.169 37.8724C123.712 37.8724 124.616 38.7234 124.616 40.4256V46.2234H122.914V40.9043C122.914 39.7341 122.488 39.4149 121.637 39.4149C121.105 39.4149 120.627 39.7341 120.148 40.3192C119.669 40.9575 119.456 41.7553 119.456 42.766V46.2234H117.754L117.701 34.6809Z" fill="#3A3938"/>
<path d="M133.128 42.5531H127.33C127.33 43.8297 128.075 44.8404 129.352 44.8404C130.256 44.8404 131.107 44.3085 131.479 43.4574L132.916 44.0425C132.064 45.6382 131.107 46.3297 129.299 46.3297C126.586 46.3297 125.469 44.0425 125.469 42.0744C125.469 40.1063 126.586 37.8191 129.299 37.8191C131.905 37.8191 133.075 39.9468 133.075 41.8085V42.5531H133.128ZM127.384 41.1702H131.373C131.213 40.1595 130.522 39.3616 129.405 39.3616C128.288 39.3616 127.596 40.1063 127.384 41.1702Z" fill="#3A3938"/>
<path d="M146.426 37.8724C146.852 37.8724 147.224 37.9788 147.703 38.1915C148.128 38.4043 148.447 38.6171 148.66 38.883V34.6277H150.362V46.1703H148.66V45.2128C148.341 45.7447 147.437 46.2766 146.426 46.2766C144.032 46.2766 142.756 44.7341 142.756 42.0213C142.756 39.4681 144.032 37.8724 146.426 37.8724ZM144.511 42.0745C144.511 42.9256 144.724 43.5639 145.096 44.0958C145.469 44.5745 146.001 44.8405 146.586 44.8405C147.224 44.8405 147.703 44.5745 148.075 44.0958C148.447 43.6171 148.66 42.9256 148.66 42.0745C148.66 41.2235 148.447 40.5852 148.075 40.1064C147.703 39.6277 147.171 39.3618 146.586 39.3618C145.947 39.3618 145.469 39.6277 145.096 40.1064C144.724 40.5852 144.511 41.2766 144.511 42.0745Z" fill="#3A3938"/>
<path d="M156.798 39.1489L155.734 40.1064C155.362 39.6276 154.883 39.3617 154.298 39.3617C153.819 39.3617 153.5 39.6808 153.5 40.1595C153.5 40.3191 153.553 40.5319 153.713 40.6383C153.979 40.9042 154.245 41.0638 154.989 41.3298C155.574 41.5425 155.787 41.6489 156.266 41.9149C156.904 42.2872 157.223 42.8191 157.277 43.6702C157.277 44.4149 157.011 45 156.479 45.5319C155.947 46.0106 155.255 46.2766 154.404 46.2766C152.862 46.2766 151.745 45.2659 151.213 44.0957L152.649 43.2978C153.074 44.3085 153.713 44.7872 154.457 44.7872C155.202 44.7872 155.574 44.4149 155.574 43.7234C155.574 43.4574 155.468 43.2447 155.149 43.0851C154.989 42.9787 154.883 42.9255 154.723 42.8723C154.457 42.7659 153.872 42.5532 153.606 42.4468C152.436 41.9681 151.851 41.2234 151.851 40.2127C151.851 39.5744 152.117 38.9893 152.543 38.5638C153.021 38.0851 153.606 37.8723 154.351 37.8723C155.362 37.8723 156.266 38.351 156.798 39.1489Z" fill="#3A3938"/>
<path d="M162.223 46.3298C161.265 46.3298 160.414 45.851 160.042 45.2659V49.5213H158.34V37.9787H160.042V38.9361C160.361 38.4042 161.265 37.8723 162.276 37.8723C164.67 37.8723 165.946 39.4149 165.946 42.1276C165.893 44.6808 164.616 46.3298 162.223 46.3298ZM164.138 42.0744C164.138 41.2234 163.925 40.5851 163.553 40.1064C163.18 39.6276 162.648 39.3617 162.063 39.3617C161.425 39.3617 160.946 39.6276 160.574 40.1064C160.202 40.5851 159.989 41.2766 159.989 42.0744C159.989 42.9255 160.202 43.5638 160.574 44.0957C160.946 44.5744 161.478 44.8404 162.063 44.8404C162.702 44.8404 163.18 44.5744 163.553 44.0957C163.925 43.617 164.138 42.9255 164.138 42.0744Z" fill="#3A3938"/>
<path d="M182.648 44.0425C181.956 45.5319 180.786 46.3297 179.084 46.3297C177.861 46.3297 176.903 45.9042 176.212 45.1063C175.52 44.3085 175.201 43.2978 175.201 42.0744C175.201 40.851 175.52 39.8404 176.212 39.0425C176.903 38.2446 177.861 37.8191 179.084 37.8191C180.786 37.8191 181.956 38.5638 182.648 40.1063L181.159 40.7446C180.733 39.7872 180.042 39.3085 179.137 39.3085C177.754 39.3085 177.063 40.4255 177.063 42.0212C177.063 43.6702 177.754 44.734 179.137 44.734C180.042 44.734 180.733 44.2553 181.159 43.2978L182.648 44.0425Z" fill="#3A3938"/>
<path d="M190.841 42.5531H185.043C185.043 43.8297 185.788 44.8404 187.065 44.8404C187.969 44.8404 188.82 44.3085 189.192 43.4574L190.628 44.0425C189.777 45.6382 188.82 46.3297 187.011 46.3297C184.299 46.3297 183.182 44.0425 183.182 42.0744C183.182 40.1063 184.299 37.8191 187.011 37.8191C189.618 37.8191 190.788 39.9468 190.788 41.8085V42.5531H190.841ZM185.097 41.1702H189.086C188.926 40.1595 188.235 39.3616 187.118 39.3616C186.001 39.3616 185.256 40.1063 185.097 41.1702Z" fill="#3A3938"/>
<path d="M137.809 37.8723C138.234 37.8723 138.606 37.9787 139.085 38.1915C139.511 38.4042 139.83 38.617 140.043 38.883V37.9787H141.745V46.2234H140.309L140.043 45.2659C139.723 45.7978 138.819 46.3298 137.809 46.3298C135.415 46.3298 134.138 44.7872 134.138 42.0744C134.085 39.5213 135.362 37.8723 137.809 37.8723ZM135.894 42.1276C135.894 42.9787 136.106 43.617 136.479 44.1489C136.851 44.6276 137.383 44.8936 137.968 44.8936C138.606 44.8936 139.085 44.6276 139.457 44.1489C139.83 43.6702 140.043 42.9787 140.043 42.1276C140.043 41.2766 139.83 40.6383 139.457 40.1595C139.085 39.6808 138.553 39.4149 137.968 39.4149C137.33 39.4149 136.851 39.6808 136.479 40.1595C136.106 40.5851 135.894 41.2766 135.894 42.1276Z" fill="#3A3938"/>
<path d="M170.414 37.8723C170.84 37.8723 171.212 37.9787 171.691 38.1915C172.116 38.4042 172.435 38.617 172.648 38.883V37.9787H174.35V46.2234H172.914L172.648 45.2659C172.329 45.7978 171.425 46.3298 170.414 46.3298C168.02 46.3298 166.744 44.7872 166.744 42.0744C166.691 39.5213 167.967 37.8723 170.414 37.8723ZM168.499 42.1276C168.499 42.9787 168.712 43.617 169.084 44.1489C169.457 44.6276 169.988 44.8936 170.574 44.8936C171.212 44.8936 171.691 44.6276 172.063 44.1489C172.435 43.6702 172.648 42.9787 172.648 42.1276C172.648 41.2766 172.435 40.6383 172.063 40.1595C171.691 39.6808 171.159 39.4149 170.574 39.4149C169.935 39.4149 169.457 39.6808 169.084 40.1595C168.659 40.5851 168.499 41.2766 168.499 42.1276Z" fill="#3A3938"/>
<path d="M112.436 41.0638C112.702 44.5744 111.053 46.5425 110.096 47.9255C108.606 49.5212 106.638 51.7021 101.798 51.8085C97.6489 51.968 95.6277 50.1595 93.9255 48.5638C91.6915 46.117 91.1064 44.6276 91 41.0638C91 38.8297 91.8511 36.6489 93.3404 34.6808C95.4149 31.7553 98.7128 30.7447 101.798 30.5319C104.989 30.4255 107.543 32.0212 109.298 33.7766C111.532 36.1702 112.223 38.1914 112.436 41.0638Z" fill="#FF7E1D"/>
</svg>
