<svg width="227" height="53" viewBox="0 0 227 53" fill="none" xmlns="http://www.w3.org/2000/svg">
<path d="M69.917 17.2299C70.8308 17.2299 71.7447 17.3705 72.5882 17.6517C73.4318 17.9328 74.1347 18.4249 74.7674 18.9873C75.4001 19.6199 75.8921 20.3229 76.3139 21.2368C76.6654 22.1506 76.8763 23.205 76.9466 24.4704V27.001C76.9466 28.2664 76.7357 29.3208 76.3139 30.2346C75.8921 31.1485 75.4001 31.9217 74.7674 32.4841C74.1347 33.1168 73.4318 33.5386 72.5882 33.8197C71.7447 34.1009 70.8308 34.2415 69.917 34.2415H65.6289V39.0216C65.6289 39.2325 65.4883 39.4434 65.3477 39.584C65.2072 39.7949 64.9963 39.8652 64.7854 39.8652H60.0052V18.3546C60.0052 18.1437 60.1458 17.9328 60.2864 17.7922C60.427 17.5814 60.6379 17.5111 60.8488 17.5111H64.6448C64.8557 17.5111 65.0666 17.6517 65.2072 17.7922C65.418 17.9328 65.4883 18.1437 65.4883 18.3546V19.0576L66.121 18.4249C66.4022 18.1437 66.6131 18.0031 66.9646 17.7922C67.316 17.6517 67.6675 17.5111 68.1596 17.3705C68.6517 17.3002 69.214 17.2299 69.917 17.2299ZM162.989 17.2299C164.043 17.2299 165.098 17.3705 166.012 17.6517C166.925 17.9328 167.699 18.214 168.402 18.6358C169.105 19.0576 169.597 19.5496 170.019 20.0417C170.44 20.6041 170.651 21.0962 170.651 21.6585C170.651 21.8694 170.581 22.0803 170.44 22.2209C170.229 22.3615 170.089 22.5021 169.808 22.5021H165.871C165.66 22.5021 165.449 22.4318 165.309 22.3615C165.168 22.2912 165.027 22.1506 164.817 22.01C164.606 21.8694 164.395 21.7991 164.043 21.6585C163.762 21.5882 163.34 21.5179 162.778 21.5179C162.286 21.5179 161.864 21.5882 161.583 21.7288C161.231 21.8694 161.091 22.0803 161.091 22.4318C161.091 22.6427 161.161 22.8536 161.231 22.9942C161.302 23.1347 161.513 23.205 161.864 23.2753C162.145 23.3456 162.637 23.4159 163.2 23.4862C163.762 23.5565 164.535 23.6971 165.449 23.8377C167.347 24.1189 168.753 24.8218 169.597 25.7357C170.44 26.7198 170.932 27.8446 170.932 29.1099C170.932 29.8129 170.721 30.5158 170.37 31.0782C170.019 31.7109 169.456 32.2732 168.823 32.695C168.121 33.1871 167.277 33.5386 166.293 33.8197C165.309 34.1009 164.184 34.2415 162.919 34.2415C161.653 34.2415 160.529 34.1009 159.615 33.8197C158.631 33.5386 157.857 33.1871 157.225 32.7653C156.592 32.3435 156.1 31.8514 155.748 31.2891C155.397 30.797 155.186 30.2346 155.186 29.7426C155.186 29.5317 155.256 29.3208 155.397 29.1802C155.608 29.0396 155.748 28.899 156.03 28.899H159.896C160.107 28.899 160.318 28.9693 160.388 29.0396C160.458 29.1802 160.599 29.2505 160.81 29.3911C160.95 29.5317 161.231 29.6723 161.513 29.7426C161.794 29.8832 162.286 29.8832 162.919 29.8832C163.551 29.8832 164.114 29.8129 164.535 29.602C165.098 29.5317 165.309 29.3208 165.309 28.9693C165.309 28.7584 165.238 28.5475 165.098 28.4069C164.957 28.2664 164.676 28.1961 164.325 28.1258C163.973 28.0555 163.481 27.9852 162.848 27.8446C162.216 27.7743 161.442 27.6337 160.529 27.4931C158.912 27.2119 157.717 26.5792 156.873 25.7357C156.03 24.8218 155.608 23.6971 155.608 22.2912C155.608 21.5882 155.819 20.8853 156.17 20.3229C156.522 19.6902 157.014 19.1982 157.646 18.7061C158.279 18.214 159.052 17.8625 159.966 17.6517C160.88 17.3705 161.864 17.2299 162.989 17.2299ZM180.633 17.2299C181.688 17.2299 182.742 17.3705 183.656 17.6517C184.57 17.9328 185.343 18.214 186.046 18.6358C186.749 19.0576 187.241 19.5496 187.663 20.0417C188.085 20.6041 188.295 21.0962 188.295 21.6585C188.295 21.8694 188.225 22.0803 188.085 22.2209C187.874 22.3615 187.733 22.5021 187.452 22.5021H183.726C183.515 22.5021 183.304 22.4318 183.164 22.3615C183.023 22.2912 182.883 22.1506 182.672 22.01C182.461 21.8694 182.25 21.7991 181.899 21.6585C181.617 21.5882 181.196 21.5179 180.633 21.5179C180.141 21.5179 179.719 21.5882 179.438 21.7288C179.087 21.8694 178.946 22.0803 178.946 22.4318C178.946 22.6427 179.016 22.8536 179.087 22.9942C179.157 23.1347 179.368 23.205 179.719 23.2753C180.071 23.3456 180.493 23.4159 181.055 23.4862C181.617 23.5565 182.391 23.6971 183.304 23.8377C185.202 24.1189 186.608 24.8218 187.452 25.7357C188.295 26.7198 188.788 27.8446 188.788 29.1099C188.788 29.8129 188.577 30.5158 188.225 31.0782C187.874 31.7109 187.311 32.2732 186.679 32.695C185.976 33.1871 185.132 33.5386 184.148 33.8197C183.164 34.1009 182.039 34.2415 180.774 34.2415C179.508 34.2415 178.384 34.1009 177.47 33.8197C176.486 33.5386 175.712 33.1871 175.08 32.7653C174.447 32.3435 173.955 31.8514 173.604 31.2891C173.252 30.797 173.041 30.2346 173.041 29.7426C173.041 29.5317 173.112 29.3208 173.252 29.1802C173.463 29.0396 173.604 28.899 173.885 28.899H177.751C177.962 28.899 178.173 28.9693 178.243 29.0396C178.313 29.1802 178.454 29.2505 178.665 29.3911C178.806 29.5317 179.087 29.6723 179.368 29.7426C179.649 29.8832 180.141 29.8832 180.774 29.8832C181.406 29.8832 181.969 29.8129 182.391 29.602C182.672 29.5317 182.953 29.3208 182.953 28.9693C182.953 28.7584 182.883 28.5475 182.742 28.4069C182.601 28.2664 182.32 28.1961 181.969 28.1258C181.617 28.0555 181.125 27.9852 180.493 27.8446C179.86 27.7743 179.087 27.6337 178.173 27.4931C176.556 27.2119 175.361 26.5792 174.517 25.7357C173.674 24.8218 173.252 23.6971 173.252 22.2912C173.252 21.5882 173.463 20.8853 173.814 20.3229C174.166 19.6902 174.658 19.1982 175.291 18.7061C175.923 18.214 176.697 17.8625 177.61 17.6517C178.524 17.3705 179.508 17.2299 180.633 17.2299ZM144.853 17.3002C146.399 17.3002 147.664 17.5814 148.789 18.0734C149.844 18.5655 150.757 19.2685 151.46 20.0417C152.163 20.8853 152.655 21.7991 152.937 22.7833C153.218 23.7674 153.358 24.8218 153.358 25.806V26.7198C153.358 26.9307 153.288 27.1416 153.077 27.2822C152.937 27.4228 152.726 27.5634 152.515 27.5634L141.971 27.5634L141.972 27.6054C141.982 28.0492 142.057 28.4286 142.252 28.6881C142.462 28.9693 142.673 29.2505 142.955 29.4614C143.236 29.6723 143.517 29.8129 143.868 29.8832C144.22 29.9535 144.501 30.0238 144.853 30.0238C145.485 30.0238 145.977 29.9535 146.329 29.8129C146.68 29.6723 147.032 29.5317 147.243 29.2505C147.453 29.0396 147.664 28.9693 147.735 28.899C147.799 28.8351 147.979 28.8293 148.222 28.8288L152.374 28.8287C152.866 28.8287 153.077 29.0396 153.077 29.5317C153.077 29.8129 152.937 30.1643 152.585 30.6564C152.304 31.1485 151.812 31.7109 151.109 32.2029C150.476 32.7653 149.562 33.1871 148.578 33.6088C147.524 34.0306 146.258 34.1712 144.853 34.1712C143.517 34.1712 142.252 33.9603 141.197 33.6088C140.143 33.1871 139.229 32.695 138.526 31.9217C137.823 31.2188 137.261 30.3049 136.909 29.2505C136.558 28.1961 136.347 27.001 136.347 25.7357C136.347 24.5407 136.558 23.4159 136.909 22.3615C137.261 21.307 137.823 20.4635 138.526 19.6902C139.229 18.917 140.143 18.3546 141.197 17.9328C142.252 17.5111 143.447 17.3002 144.853 17.3002ZM96.7701 17.1596C98.0354 17.1596 99.1601 17.3002 100.074 17.6517C100.988 17.9328 101.761 18.4249 102.394 18.9873C103.026 19.5496 103.448 20.1823 103.729 20.9556C104.011 21.7288 104.151 22.5724 104.151 23.4862V32.9762C104.151 33.1871 104.081 33.398 103.87 33.5386C103.729 33.6791 103.518 33.8197 103.308 33.8197H99.371C99.1601 33.8197 98.9492 33.7494 98.8086 33.5386C98.6681 33.398 98.5275 33.1871 98.5275 32.9762V32.0623C98.0354 32.695 97.4027 33.1871 96.6295 33.5386C95.8562 33.89 94.9424 34.1009 93.677 34.1009C92.7632 34.1009 91.9899 33.9603 91.287 33.7494C90.584 33.4683 90.0216 33.1871 89.5296 32.695C89.0375 32.2732 88.686 31.7109 88.4751 31.1485C88.1939 30.6564 88.0534 29.9535 88.0534 29.2505C88.0534 27.8446 88.6157 26.7198 89.6702 25.806C90.7246 24.8921 92.482 24.2595 94.8721 23.8377L98.5275 23.205C98.5275 22.713 98.3869 22.2912 98.1057 21.9397C97.8245 21.5882 97.3324 21.4476 96.6998 21.4476C96.2077 21.4476 95.8562 21.5179 95.575 21.6585C95.2938 21.7991 95.1533 21.9397 95.0127 22.01C94.8018 22.1506 94.6612 22.2912 94.4503 22.2912C94.3273 22.3527 94.1504 22.3604 93.9669 22.3614L89.8811 22.3615C89.6702 22.3615 89.5296 22.2912 89.389 22.1506C89.2484 22.01 89.1781 21.8694 89.2484 21.6585C89.3187 21.1665 89.5296 20.6744 89.8811 20.1823C90.2325 19.6902 90.7949 19.1982 91.4276 18.7061C92.0602 18.2843 92.9038 17.9328 93.8176 17.5814C94.7315 17.3002 95.7156 17.1596 96.7701 17.1596ZM211.985 17.2299C213.11 17.2299 214.094 17.4408 214.938 17.7922C215.781 18.1437 216.484 18.6358 217.117 19.2685C217.679 19.9011 218.101 20.6744 218.452 21.5179C218.734 22.4318 218.945 23.3456 218.945 24.3298V26.8604C218.874 27.8446 218.734 28.8287 218.452 29.6723C218.171 30.5861 217.679 31.2891 217.117 31.9217C216.554 32.5544 215.852 33.0465 214.938 33.398C214.094 33.7494 213.11 33.9603 211.985 33.9603C210.86 33.9603 209.876 33.7494 209.033 33.398C208.189 33.0465 207.486 32.5544 206.854 31.9217C206.291 31.2891 205.799 30.5158 205.518 29.6723C205.237 28.8287 205.026 27.8446 205.026 26.8604V24.3298C205.026 23.3456 205.237 22.3615 205.518 21.5179C205.799 20.6744 206.291 19.9011 206.854 19.2685C207.416 18.6358 208.119 18.1437 209.033 17.7922C209.876 17.4408 210.86 17.2299 211.985 17.2299ZM84.6791 11.6062C84.89 11.6062 85.1009 11.6765 85.2415 11.8874C85.3821 12.028 85.5227 12.2389 85.5227 12.4498V33.0465C85.5227 33.2574 85.4524 33.4683 85.2415 33.6088C85.1009 33.7494 84.89 33.89 84.6791 33.89H80.7426C80.5317 33.89 80.3208 33.8197 80.1802 33.6088C80.0396 33.4683 79.899 33.2574 79.899 33.0465V12.4498C79.899 12.2389 79.9693 12.028 80.1802 11.8874C80.3208 11.7468 80.5317 11.6062 80.7426 11.6062H84.6791ZM117.648 17.3002C118.632 17.3002 119.546 17.4408 120.39 17.722C121.233 18.0031 121.936 18.4249 122.569 19.0576C123.131 19.6199 123.623 20.3932 123.975 21.307C124.326 22.2209 124.467 23.2753 124.467 24.5407V33.0465H124.326C124.326 33.2574 124.256 33.4683 124.045 33.6088C123.904 33.7494 123.693 33.89 123.483 33.89H119.546C119.335 33.89 119.124 33.8197 118.984 33.6088C118.843 33.4683 118.702 33.2574 118.702 33.0465V25.103C118.702 24.1892 118.492 23.4862 118.07 22.9239C117.648 22.3615 116.945 22.0803 116.031 22.0803C115.117 22.0803 114.414 22.3615 113.993 22.9239C113.571 23.4862 113.36 24.1892 113.36 25.103V33.0465C113.36 33.2574 113.29 33.4683 113.079 33.6088C112.938 33.7494 112.727 33.89 112.516 33.89H108.58C108.369 33.89 108.158 33.8197 108.017 33.6088C107.877 33.4683 107.736 33.2574 107.736 33.0465V18.4249C107.736 18.214 107.807 18.0031 108.017 17.8625C108.158 17.722 108.369 17.5814 108.58 17.5814H112.376C112.587 17.5814 112.798 17.6517 112.938 17.8625C113.079 18.0031 113.219 18.214 113.219 18.4249V19.1279C113.36 18.917 113.571 18.7061 113.852 18.4952C114.133 18.2843 114.414 18.0734 114.766 17.8625C115.117 17.6517 115.539 17.5111 116.031 17.4408C116.523 17.3002 117.086 17.3002 117.648 17.3002ZM132.551 11.6062C132.762 11.6062 132.973 11.6765 133.113 11.8874C133.254 12.028 133.394 12.2389 133.394 12.4498V33.0465H133.465C133.465 33.2574 133.394 33.4683 133.183 33.6088C133.043 33.7494 132.832 33.89 132.621 33.89H128.614C128.403 33.89 128.192 33.8197 128.052 33.6088C127.911 33.4683 127.771 33.2574 127.771 33.0465V12.4498C127.771 12.2389 127.841 12.028 128.052 11.8874C128.192 11.7468 128.403 11.6062 128.614 11.6062H132.551ZM193.989 31.0079C194.2 31.0079 194.341 31.0782 194.482 31.2188C194.622 31.3594 194.692 31.5 194.692 31.7109V33.1871C194.692 33.398 194.622 33.5386 194.482 33.6791C194.341 33.8197 194.2 33.89 193.989 33.89H192.513C192.021 33.89 191.81 33.6791 191.81 33.1871V31.7109C191.81 31.5 191.881 31.3594 192.021 31.2188C192.162 31.0782 192.302 31.0079 192.513 31.0079H193.989ZM200.386 17.5814C200.878 17.5814 201.089 17.7923 201.089 18.2843V33.1871C201.089 33.6791 200.878 33.89 200.386 33.89H199.824C199.332 33.89 199.121 33.6791 199.121 33.1871V18.2843C199.121 17.7923 199.332 17.5814 199.824 17.5814H200.386ZM211.985 19.0576C210.509 19.0576 209.314 19.5497 208.4 20.4635C207.486 21.3773 206.994 22.7833 206.924 24.5407V26.9307C206.994 28.7584 207.486 30.094 208.4 31.0079C209.314 31.9217 210.509 32.4138 211.985 32.4138C213.461 32.4138 214.656 31.9217 215.57 31.0079C216.484 30.094 216.976 28.6881 217.047 26.9307V25.7357C217.117 25.2436 217.117 24.8921 217.047 24.5407C216.976 22.713 216.484 21.3773 215.57 20.4635C214.656 19.5497 213.461 19.0576 211.985 19.0576ZM98.5275 26.9307L95.6453 27.3525C95.083 27.4228 94.5909 27.6337 94.3097 27.9149C93.9582 28.1961 93.8176 28.4772 93.8176 28.899C93.8176 29.3208 93.9582 29.602 94.2394 29.7426C94.38 29.8832 94.7315 29.9535 95.2235 29.9535C95.7156 29.9535 96.1374 29.8832 96.4889 29.7426C96.8404 29.602 97.2621 29.3911 97.5433 29.1099C97.8245 28.8287 98.0354 28.5475 98.2463 28.1258C98.3869 27.7743 98.5275 27.3525 98.5275 26.9307ZM68.5111 22.1506C68.019 22.1506 67.6675 22.2209 67.316 22.3615C66.9646 22.5021 66.6834 22.713 66.4725 22.9239C66.2616 23.1347 66.121 23.4159 65.9804 23.6971C65.8398 23.9783 65.7695 24.3298 65.6992 24.611C65.6289 24.9624 65.6289 25.3139 65.6289 25.7357V29.3208H68.5111C69.4952 29.3208 70.1982 29.0396 70.6199 28.4772C71.0417 27.9852 71.2526 27.2822 71.3229 26.5792V24.8921C71.2526 24.1892 71.0417 23.5565 70.6199 22.9942C70.1982 22.4318 69.4952 22.1506 68.5111 22.1506ZM144.782 21.5179C143.868 21.5179 143.236 21.7991 142.744 22.2912C142.252 22.7833 142.041 23.4159 141.9 24.0486H147.524C147.453 23.4159 147.172 22.7833 146.68 22.2912C146.329 21.7288 145.626 21.5179 144.782 21.5179ZM200.668 11.6062C200.878 11.6062 201.019 11.6765 201.16 11.8171C201.3 11.9577 201.371 12.0983 201.371 12.3092V13.5042C201.371 13.7151 201.3 13.8557 201.16 13.9963C201.019 14.1369 200.878 14.2072 200.668 14.2072H199.473C198.98 14.2072 198.77 13.9963 198.77 13.5042V12.3092C198.77 12.0983 198.84 11.9577 198.98 11.8171C199.121 11.6765 199.262 11.6062 199.473 11.6062H200.668Z" fill="#111111"/>
<path d="M12.9058 4.36548H22.1849H31.464C34.6976 4.36548 37.5095 5.7011 39.4074 7.80998C41.3054 9.91886 42.2896 12.9416 41.9381 16.1752C38.8451 16.1752 35.7521 16.1752 32.659 16.1752C29.566 16.1752 26.473 16.1752 23.38 16.1752C20.1463 16.1752 17.3345 14.8396 15.4365 12.7307C13.6088 10.5515 12.5544 7.59909 12.9058 4.36548Z" fill="#F7CE12"/>
<path d="M10.1636 29.4616H19.4426H28.7217C31.9553 29.4616 35.0484 28.126 37.4384 26.0171C39.8285 23.9082 41.4453 20.8855 41.8671 17.6519C38.774 17.6519 35.681 17.6519 32.588 17.6519C29.495 17.6519 26.402 17.6519 23.3089 17.6519C20.0753 17.6519 16.9823 18.9875 14.5922 21.0964C12.2022 23.2052 10.5151 26.1577 10.1636 29.4616Z" fill="#F0572A"/>
<path d="M23.3097 17.6519C22.9582 20.7449 22.6068 23.8379 22.2553 26.9309C21.9038 30.024 21.5523 33.117 21.2008 36.21C20.8494 39.4436 19.1622 42.396 16.7722 44.5752C14.3821 46.6841 11.2891 48.0197 8.05548 48.0197L9.10992 38.7407C9.4614 35.6476 9.81288 32.5546 10.1644 29.4616C10.5158 26.228 12.2029 23.2755 14.5227 21.0964C16.9128 18.9172 20.0058 17.6519 23.3097 17.6519Z" fill="#2ABDE1"/>
<path d="M23.3089 17.6519C22.9574 20.7449 22.606 23.8379 22.2545 26.9309C22.1585 27.7757 22.0625 28.6205 21.9665 29.4652L10.1636 29.4616C10.5151 26.228 12.2022 23.2755 14.5219 21.0964C16.912 18.9172 20.005 17.6519 23.3089 17.6519Z" fill="#1C519F"/>
</svg>
