<svg  viewBox="20 16 220 50" fill="none" xmlns="http://www.w3.org/2000/svg"><defs>
<clipPath id="clip0_0_1874">
<rect width="50" height="50" fill="white" transform="translate(20 20)"/>
</clipPath>
<clipPath id="clip1_0_1874">
<rect width="100" height="22.779" fill="white" transform="translate(99 34)"/>
</clipPath>
</defs><g clip-path="url(#clip0_0_1874)">
<path d="M70 45C70 58.8064 58.8064 70 45 70C31.1937 70 20 58.8064 20 45C20 31.1937 31.1937 20 45 20C58.8092 20 70 31.1937 70 45Z" fill="#2081E2"/>
<path d="M32.3345 45.84L32.4424 45.6704L38.9459 35.4965C39.0409 35.3476 39.2644 35.363 39.3363 35.5248C40.4228 37.9597 41.3603 40.988 40.9211 42.8733C40.7336 43.649 40.2199 44.6995 39.6419 45.6704C39.5675 45.8117 39.4853 45.9504 39.398 46.084C39.3569 46.1456 39.2875 46.1816 39.213 46.1816H32.5246C32.3448 46.1816 32.2395 45.9864 32.3345 45.84Z" fill="white"/>
<path d="M61.3222 47.7305V49.341C61.3222 49.4334 61.2657 49.5156 61.1835 49.5515C60.6801 49.7673 58.9566 50.5584 58.24 51.555C56.4112 54.1004 55.014 57.74 51.8906 57.74H38.8605C34.2424 57.74 30.5 53.9848 30.5 49.3512V49.2022C30.5 49.0789 30.6001 48.9788 30.7234 48.9788H37.9872C38.131 48.9788 38.2364 49.1123 38.2236 49.2536C38.1722 49.7262 38.2595 50.2091 38.483 50.6483C38.9145 51.5242 39.8083 52.0713 40.774 52.0713H44.37V49.2639H40.8151C40.6328 49.2639 40.525 49.0533 40.6303 48.9043C40.6688 48.8452 40.7125 48.7836 40.7586 48.7143C41.0951 48.2365 41.5754 47.4942 42.0532 46.6492C42.3794 46.079 42.6953 45.4702 42.9496 44.8589C43.001 44.7485 43.0421 44.6354 43.0832 44.525C43.1525 44.3298 43.2245 44.1474 43.2758 43.965C43.3272 43.8109 43.3682 43.6491 43.4093 43.4975C43.5301 42.9787 43.5814 42.4291 43.5814 41.8589C43.5814 41.6354 43.5712 41.4016 43.5506 41.1782C43.5403 40.9342 43.5096 40.6902 43.4787 40.4461C43.4582 40.2304 43.4196 40.0172 43.3785 39.7938C43.3272 39.4676 43.2552 39.1439 43.173 38.8177L43.1448 38.6945C43.0831 38.471 43.0318 38.2578 42.9599 38.0343C42.757 37.3331 42.5232 36.6499 42.2766 36.0103C42.1867 35.756 42.084 35.5121 41.9813 35.2681C41.8298 34.9008 41.6756 34.5669 41.5343 34.2509C41.4624 34.1071 41.4008 33.976 41.3391 33.8425C41.2698 33.6909 41.1979 33.5394 41.1259 33.3956C41.0746 33.2852 41.0155 33.1824 40.9744 33.0796L40.5352 32.268C40.4735 32.1575 40.5763 32.0265 40.697 32.0599L43.4454 32.8048H43.4531C43.4582 32.8048 43.4608 32.8074 43.4633 32.8074L43.8255 32.9075L44.2236 33.0206L44.37 33.0617V31.4281C44.37 30.6395 45.0018 30 45.7827 30C46.1731 30 46.5276 30.1592 46.7819 30.4186C47.0361 30.6781 47.1954 31.0325 47.1954 31.4281V33.8528L47.4882 33.9349C47.5113 33.9427 47.5344 33.953 47.555 33.9684C47.6269 34.0223 47.7296 34.1019 47.8606 34.1995C47.9634 34.2817 48.0738 34.3819 48.2073 34.4846C48.4719 34.6978 48.7878 34.9727 49.1346 35.2886C49.227 35.3682 49.317 35.4504 49.3992 35.5326C49.8461 35.9487 50.3469 36.4367 50.8247 36.9761C50.9583 37.1277 51.0892 37.2818 51.2228 37.4436C51.3563 37.608 51.4977 37.7698 51.6209 37.9316C51.7827 38.1474 51.9574 38.3708 52.109 38.6045C52.1809 38.715 52.2631 38.828 52.3324 38.9384C52.5276 39.2338 52.6997 39.5395 52.8641 39.8451C52.9335 39.9864 53.0054 40.1405 53.067 40.292C53.2494 40.7004 53.3932 41.1166 53.4856 41.5326C53.5139 41.6226 53.5345 41.7202 53.5448 41.8075V41.8281C53.5756 41.9513 53.5858 42.0823 53.5961 42.2159C53.6372 42.6423 53.6166 43.0686 53.5242 43.4975C53.4857 43.6799 53.4343 43.852 53.3727 44.0344C53.311 44.2091 53.2493 44.3914 53.1698 44.5635C53.0156 44.9205 52.8333 45.2775 52.6175 45.6115C52.5482 45.7347 52.466 45.8658 52.3838 45.989C52.2939 46.12 52.2014 46.2433 52.1192 46.364C52.0062 46.5182 51.8855 46.6799 51.7622 46.8238C51.6517 46.9753 51.5387 47.1269 51.4154 47.2605C51.2433 47.4634 51.079 47.656 50.9069 47.841C50.8042 47.9617 50.6937 48.0849 50.5807 48.1954C50.4703 48.3186 50.3572 48.4291 50.2544 48.5319C50.0824 48.704 49.9386 48.8375 49.8178 48.948L49.5353 49.2074C49.4942 49.2433 49.4403 49.2639 49.3838 49.2639H47.1954V52.0713H49.9488C50.5652 52.0713 51.1509 51.8529 51.6235 51.4522C51.7853 51.311 52.4917 50.6997 53.3264 49.7776C53.3547 49.7467 53.3907 49.7236 53.4318 49.7134L61.0371 47.5147C61.1784 47.4736 61.3222 47.5815 61.3222 47.7305Z" fill="white"/>
</g><g clip-path="url(#clip1_0_1874)">
<path d="M133.333 50.2863C132.303 50.2863 131.357 50.0556 130.494 49.5941C129.641 49.1326 128.959 48.4906 128.45 47.668C127.951 46.8354 127.701 45.9024 127.701 44.8692C127.701 43.8359 127.951 42.9079 128.45 42.0853C128.959 41.2627 129.641 40.6207 130.494 40.1592C131.357 39.6978 132.303 39.467 133.333 39.467C134.362 39.467 135.304 39.6978 136.157 40.1592C137.02 40.6207 137.696 41.2627 138.185 42.0853C138.684 42.9079 138.933 43.8359 138.933 44.8692C138.933 45.9024 138.684 46.8354 138.185 47.668C137.685 48.4906 137.009 49.1326 136.157 49.5941C135.304 50.0556 134.362 50.2863 133.333 50.2863ZM133.333 47.9389C134.206 47.9389 134.903 47.658 135.423 47.0962C135.954 46.5344 136.219 45.7921 136.219 44.8692C136.219 43.9362 135.954 43.1939 135.423 42.6421C134.903 42.0803 134.206 41.7994 133.333 41.7994C132.449 41.7994 131.742 42.0753 131.211 42.627C130.691 43.1788 130.431 43.9262 130.431 44.8692C130.431 45.8021 130.691 46.5495 131.211 47.1113C131.742 47.663 132.449 47.9389 133.333 47.9389Z" fill="#04111D"/>
<path d="M143.086 42.9732C143.346 42.582 143.704 42.266 144.162 42.0252C144.62 41.7844 145.155 41.6641 145.769 41.6641C146.486 41.6641 147.136 41.8396 147.719 42.1907C148.301 42.5419 148.759 43.0434 149.092 43.6955C149.435 44.3476 149.607 45.105 149.607 45.9677C149.607 46.8304 149.435 47.5929 149.092 48.255C148.759 48.907 148.301 49.4136 147.719 49.7748C147.136 50.1259 146.486 50.3014 145.769 50.3014C145.166 50.3014 144.63 50.1811 144.162 49.9403C143.704 49.6995 143.346 49.3885 143.086 49.0073V52.679H140.418V41.7844H143.086V42.9732ZM146.892 45.9677C146.892 45.3257 146.705 44.8241 146.33 44.4629C145.966 44.0918 145.514 43.9062 144.973 43.9062C144.443 43.9062 143.99 44.0918 143.616 44.4629C143.252 44.8341 143.07 45.3407 143.07 45.9827C143.07 46.6248 143.252 47.1314 143.616 47.5026C143.99 47.8737 144.443 48.0593 144.973 48.0593C145.504 48.0593 145.956 47.8737 146.33 47.5026C146.705 47.1214 146.892 46.6097 146.892 45.9677Z" fill="#04111D"/>
<path d="M159.211 45.8473C159.211 46.0881 159.195 46.3389 159.164 46.5997H153.127C153.168 47.1214 153.34 47.5226 153.641 47.8035C153.953 48.0744 154.333 48.2098 154.78 48.2098C155.446 48.2098 155.909 47.9389 156.169 47.3972H159.008C158.862 47.949 158.597 48.4455 158.212 48.887C157.838 49.3283 157.365 49.6745 156.793 49.9252C156.221 50.176 155.581 50.3014 154.874 50.3014C154.021 50.3014 153.262 50.1259 152.596 49.7748C151.931 49.4237 151.411 48.9221 151.036 48.27C150.662 47.6179 150.475 46.8555 150.475 45.9827C150.475 45.11 150.657 44.3476 151.021 43.6955C151.395 43.0434 151.915 42.5419 152.581 42.1907C153.246 41.8396 154.011 41.6641 154.874 41.6641C155.716 41.6641 156.465 41.8346 157.12 42.1757C157.776 42.5168 158.285 43.0033 158.649 43.6353C159.024 44.2673 159.211 45.0047 159.211 45.8473ZM156.481 45.1702C156.481 44.7288 156.325 44.3777 156.013 44.1168C155.701 43.856 155.311 43.7256 154.843 43.7256C154.395 43.7256 154.016 43.851 153.704 44.1018C153.402 44.3526 153.215 44.7087 153.142 45.1702H156.481Z" fill="#04111D"/>
<path d="M165.923 41.6941C166.942 41.6941 167.754 42.0151 168.357 42.6571C168.97 43.2891 169.277 44.1619 169.277 45.2754V50.181H166.625V45.6215C166.625 45.0597 166.474 44.6234 166.173 44.3124C165.871 44.0014 165.466 43.8459 164.956 43.8459C164.446 43.8459 164.041 44.0014 163.739 44.3124C163.438 44.6234 163.287 45.0597 163.287 45.6215V50.181H160.619V41.7844H163.287V42.8979C163.557 42.5267 163.921 42.2358 164.379 42.0251C164.836 41.8044 165.351 41.6941 165.923 41.6941Z" fill="#04111D"/>
<path d="M175.093 50.2863C174.292 50.2863 173.575 50.1609 172.94 49.9101C172.306 49.6593 171.796 49.2882 171.411 48.7966C171.037 48.305 170.839 47.7132 170.818 47.021H173.658C173.699 47.4122 173.84 47.7132 174.079 47.9238C174.318 48.1245 174.63 48.2248 175.015 48.2248C175.41 48.2248 175.722 48.1395 175.951 47.969C176.18 47.7884 176.294 47.5426 176.294 47.2316C176.294 46.9708 176.201 46.7551 176.013 46.5846C175.837 46.414 175.613 46.2736 175.343 46.1633C175.082 46.0529 174.708 45.9275 174.219 45.7871C173.512 45.5764 172.935 45.3657 172.488 45.1551C172.041 44.9444 171.656 44.6334 171.333 44.2221C171.011 43.8108 170.85 43.2741 170.85 42.612C170.85 41.6289 171.219 40.8615 171.957 40.3097C172.696 39.7479 173.658 39.467 174.843 39.467C176.05 39.467 177.022 39.7479 177.761 40.3097C178.499 40.8615 178.894 41.6339 178.946 42.627H176.06C176.039 42.286 175.909 42.0201 175.67 41.8295C175.431 41.6289 175.124 41.5286 174.75 41.5286C174.427 41.5286 174.167 41.6139 173.97 41.7844C173.772 41.9449 173.673 42.1806 173.673 42.4916C173.673 42.8327 173.84 43.0985 174.173 43.2891C174.505 43.4798 175.025 43.6854 175.733 43.9061C176.44 44.1368 177.012 44.3575 177.449 44.5682C177.896 44.7789 178.281 45.0848 178.603 45.4861C178.926 45.8874 179.087 46.404 179.087 47.036C179.087 47.6379 178.926 48.1846 178.603 48.6762C178.291 49.1678 177.834 49.559 177.23 49.8499C176.627 50.1408 175.915 50.2863 175.093 50.2863Z" fill="#04111D"/>
<path d="M188.933 45.8473C188.933 46.0881 188.918 46.3389 188.887 46.5997H182.849C182.891 47.1214 183.062 47.5226 183.364 47.8035C183.676 48.0744 184.056 48.2098 184.503 48.2098C185.169 48.2098 185.631 47.9389 185.891 47.3972H188.731C188.585 47.949 188.32 48.4455 187.935 48.887C187.561 49.3283 187.087 49.6745 186.515 49.9252C185.943 50.176 185.304 50.3014 184.597 50.3014C183.744 50.3014 182.985 50.1259 182.319 49.7748C181.653 49.4237 181.133 48.9221 180.759 48.27C180.385 47.6179 180.197 46.8555 180.197 45.9827C180.197 45.11 180.379 44.3476 180.743 43.6955C181.118 43.0434 181.638 42.5419 182.303 42.1907C182.969 41.8396 183.733 41.6641 184.597 41.6641C185.439 41.6641 186.188 41.8346 186.843 42.1757C187.498 42.5168 188.008 43.0033 188.372 43.6353C188.746 44.2673 188.933 45.0047 188.933 45.8473ZM186.203 45.1702C186.203 44.7288 186.047 44.3777 185.735 44.1168C185.423 43.856 185.033 43.7256 184.565 43.7256C184.118 43.7256 183.738 43.851 183.426 44.1018C183.125 44.3526 182.938 44.7087 182.865 45.1702H186.203Z" fill="#04111D"/>
<path d="M189.811 45.9677C189.811 45.105 189.977 44.3476 190.31 43.6955C190.653 43.0434 191.116 42.5419 191.698 42.1907C192.281 41.8396 192.931 41.6641 193.648 41.6641C194.262 41.6641 194.798 41.7844 195.255 42.0252C195.723 42.266 196.082 42.582 196.332 42.9732V41.7844H198.999V50.1811H196.332V48.9923C196.072 49.3835 195.708 49.6995 195.239 49.9403C194.782 50.1811 194.246 50.3014 193.633 50.3014C192.925 50.3014 192.281 50.1259 191.698 49.7748C191.116 49.4136 190.653 48.907 190.31 48.255C189.977 47.5929 189.811 46.8304 189.811 45.9677ZM196.332 45.9827C196.332 45.3407 196.144 44.8341 195.77 44.4629C195.406 44.0918 194.959 43.9062 194.428 43.9062C193.898 43.9062 193.445 44.0918 193.071 44.4629C192.707 44.8241 192.525 45.3257 192.525 45.9677C192.525 46.6097 192.707 47.1214 193.071 47.5026C193.445 47.8737 193.898 48.0593 194.428 48.0593C194.959 48.0593 195.406 47.8737 195.77 47.5026C196.144 47.1314 196.332 46.6248 196.332 45.9827Z" fill="#04111D"/>
<path d="M121.779 45.3895C121.779 51.6794 116.679 56.779 110.39 56.779C104.1 56.779 99 51.6794 99 45.3895C99 39.0996 104.1 34 110.39 34C116.681 34 121.779 39.0996 121.779 45.3895Z" fill="#2081E2"/>
<path d="M104.62 45.7721L104.669 45.6949L107.632 41.0599C107.675 40.992 107.777 40.999 107.81 41.0727C108.305 42.182 108.732 43.5617 108.532 44.4206C108.446 44.774 108.212 45.2526 107.949 45.6949C107.915 45.7593 107.878 45.8225 107.838 45.8833C107.819 45.9114 107.787 45.9278 107.753 45.9278H104.706C104.624 45.9278 104.576 45.8388 104.62 45.7721Z" fill="white"/>
<path d="M117.825 46.6333V47.367C117.825 47.4091 117.799 47.4466 117.762 47.463C117.533 47.5613 116.747 47.9217 116.421 48.3757C115.588 49.5353 114.951 51.1935 113.528 51.1935H107.592C105.488 51.1935 103.783 49.4827 103.783 47.3717V47.3038C103.783 47.2477 103.829 47.202 103.885 47.202H107.194C107.26 47.202 107.308 47.2629 107.302 47.3272C107.278 47.5425 107.318 47.7625 107.42 47.9626C107.617 48.3617 108.024 48.6109 108.464 48.6109H110.102V47.3319H108.483C108.4 47.3319 108.35 47.236 108.398 47.1681C108.416 47.1412 108.436 47.1131 108.457 47.0815C108.61 46.8639 108.829 46.5257 109.047 46.1407C109.195 45.8809 109.339 45.6036 109.455 45.3251C109.478 45.2748 109.497 45.2233 109.516 45.173C109.547 45.084 109.58 45.0009 109.604 44.9179C109.627 44.8476 109.646 44.7739 109.664 44.7049C109.719 44.4685 109.743 44.2181 109.743 43.9583C109.743 43.8565 109.738 43.75 109.729 43.6482C109.724 43.5371 109.71 43.4259 109.696 43.3147C109.687 43.2164 109.669 43.1193 109.65 43.0175C109.627 42.8689 109.594 42.7215 109.557 42.5728L109.544 42.5167C109.516 42.4149 109.492 42.3178 109.46 42.216C109.367 41.8965 109.261 41.5852 109.148 41.2939C109.107 41.178 109.061 41.0668 109.014 40.9557C108.945 40.7884 108.875 40.6362 108.81 40.4923C108.777 40.4268 108.749 40.3671 108.721 40.3062C108.69 40.2372 108.657 40.1681 108.624 40.1026C108.601 40.0523 108.574 40.0055 108.555 39.9587L108.355 39.5889C108.327 39.5386 108.374 39.4789 108.429 39.4941L109.681 39.8335H109.684C109.687 39.8335 109.688 39.8347 109.689 39.8347L109.854 39.8803L110.035 39.9318L110.102 39.9505V39.2063C110.102 38.847 110.39 38.5557 110.746 38.5557C110.924 38.5557 111.085 38.6282 111.201 38.7464C111.317 38.8646 111.389 39.0261 111.389 39.2063V40.3109L111.523 40.3484C111.533 40.3519 111.544 40.3566 111.553 40.3636C111.586 40.3881 111.633 40.4244 111.692 40.4689C111.739 40.5063 111.789 40.552 111.85 40.5988C111.971 40.6959 112.115 40.8211 112.273 40.965C112.315 41.0013 112.356 41.0388 112.393 41.0762C112.597 41.2658 112.825 41.4881 113.043 41.7338C113.104 41.8029 113.163 41.8731 113.224 41.9468C113.285 42.0217 113.349 42.0954 113.405 42.1691C113.479 42.2674 113.559 42.3692 113.628 42.4757C113.661 42.5261 113.698 42.5775 113.73 42.6279C113.819 42.7624 113.897 42.9017 113.972 43.0409C114.003 43.1053 114.036 43.1755 114.064 43.2445C114.147 43.4306 114.213 43.6202 114.255 43.8097C114.268 43.8507 114.277 43.8951 114.282 43.9349V43.9443C114.296 44.0004 114.301 44.0601 114.305 44.121C114.324 44.3152 114.315 44.5095 114.273 44.7049C114.255 44.788 114.232 44.8664 114.204 44.9495C114.175 45.029 114.147 45.1121 114.111 45.1905C114.041 45.3532 113.958 45.5158 113.86 45.6679C113.828 45.7241 113.79 45.7838 113.753 45.84C113.712 45.8996 113.67 45.9558 113.632 46.0108C113.581 46.081 113.526 46.1547 113.47 46.2203C113.42 46.2893 113.368 46.3584 113.312 46.4192C113.233 46.5116 113.159 46.5994 113.08 46.6837C113.033 46.7386 112.983 46.7948 112.932 46.8451C112.881 46.9013 112.83 46.9516 112.783 46.9984C112.705 47.0768 112.639 47.1377 112.584 47.188L112.455 47.3062C112.437 47.3226 112.412 47.3319 112.386 47.3319H111.389V48.6109H112.644C112.925 48.6109 113.191 48.5114 113.407 48.3289C113.48 48.2645 113.802 47.9861 114.182 47.566C114.195 47.5519 114.212 47.5414 114.23 47.5367L117.695 46.535C117.76 46.5163 117.825 46.5655 117.825 46.6333Z" fill="white"/>
</g></svg>