<svg width="231" height="52" viewBox="0 0 231 52" fill="none" xmlns="http://www.w3.org/2000/svg">
<path d="M173.563 18.9208C177.787 18.9208 180.966 21.2466 180.966 26.3101V36.4347H176.742L176.866 33.9857C175.61 35.8226 173.938 36.8019 171.345 36.8019C167.873 36.8019 165.027 35.2104 165.027 31.3727C165.027 27.8185 167.956 26.2699 171.93 26.2281H176.742C176.742 23.4919 175.487 22.3491 173.229 22.3491C171.411 22.3491 170.2 22.9628 169.295 23.7429L166.243 22.0237L166.2 21.9814C166.227 21.9509 166.253 21.9188 166.28 21.8908C167.819 20.1445 169.901 18.9208 173.563 18.9208ZM176.742 30.4316V29.0846H172.224C170.383 29.0846 169.169 29.7384 169.169 31.2504C169.169 32.7191 170.341 33.4937 172.516 33.4937C174.985 33.4942 176.742 32.3097 176.742 30.4316ZM221.354 31.1593L224.736 33.0654C223.073 35.3245 220.363 36.8019 217.295 36.8019C212.236 36.8019 208.136 32.7981 208.136 27.8603C208.136 22.9235 212.236 18.9203 217.295 18.9203C220.359 18.9203 223.06 20.3915 224.725 22.6424L221.343 24.5496C220.327 23.3739 218.849 22.6998 217.295 22.7035C214.382 22.7035 212.012 25.0166 212.012 27.8598C212.012 30.7025 214.382 33.0171 217.295 33.0171C218.855 33.0223 220.339 32.3433 221.354 31.1593ZM72.9544 31.1593L76.3364 33.0654C74.6732 35.3245 71.9634 36.8019 68.8956 36.8019C63.8361 36.8019 59.7361 32.7981 59.7361 27.8603C59.7361 22.9235 63.8356 18.9203 68.8956 18.9203C71.9588 18.9203 74.6604 20.3915 76.3257 22.6424L72.9432 24.5496C71.9274 23.3739 70.4493 22.6998 68.8956 22.7035C65.9827 22.7035 63.6126 25.0166 63.6126 27.8598C63.6126 30.7025 65.9827 33.0171 68.8956 33.0171C70.4554 33.0225 71.9391 32.3434 72.9544 31.1593ZM134.802 19.2885H139.027L138.943 22.2279C140.116 20.0646 141.914 18.9208 144.173 18.9208C146.724 18.9208 148.399 20.1033 149.319 22.1861C150.699 20.1455 152.79 18.9208 155.342 18.9208C159.483 18.9208 161.95 21.6158 161.95 25.9827V36.4342H157.727V26.3916C157.727 24.023 156.847 22.7168 154.421 22.7168C151.955 22.7168 150.489 24.187 150.489 27.0455V36.4347H146.266V26.3916C146.266 24.023 145.428 22.7168 143.002 22.7168C140.491 22.7168 139.027 24.187 139.027 27.0455V36.4347H134.802V19.2885H134.802ZM79.3909 9.37012H83.6147V22.3089C84.7453 20.1868 86.8373 18.9208 89.4743 18.9208C93.362 18.9208 96.0407 21.6158 96.0407 26.2704V36.4347H91.8138V26.5963C91.8138 24.1463 90.644 22.7168 88.1741 22.7168C85.414 22.7168 83.6147 24.3505 83.6147 27.127V36.4342H79.3909V9.37012ZM122.288 18.9208C127.35 18.9208 131.449 22.9235 131.449 27.8608C131.449 32.7981 127.35 36.8024 122.288 36.8024C117.23 36.8024 113.129 32.7986 113.129 27.8608C113.129 22.9235 117.23 18.9208 122.288 18.9208ZM122.288 22.7046C119.377 22.7046 117.006 25.0171 117.006 27.8608C117.006 30.7035 119.377 33.0181 122.288 33.0181C125.205 33.0181 127.575 30.7035 127.575 27.8608C127.575 25.0171 125.205 22.7041 122.288 22.7046ZM100.24 19.2885H104.467L104.424 22.5126C105.597 19.8186 107.604 18.961 109.528 18.961C110.429 18.961 111.138 19.1087 111.741 19.3582C111.979 19.455 112.476 19.6882 112.96 20.0416C112.96 20.0416 112.374 20.7526 111.859 21.6173C111.342 22.483 110.993 23.4109 110.993 23.4109C110.323 23.085 109.653 22.8385 108.692 22.8385C106.182 22.8385 104.467 24.2675 104.467 28.1063V36.4347H100.24V19.2885ZM200.186 36.4602V19.2885H204.459V36.4602H200.186ZM199.516 12.6248C199.516 11.0716 200.814 9.92572 202.322 9.92572C203.831 9.92572 205.13 11.0716 205.13 12.6248C205.13 14.2595 203.831 15.3636 202.322 15.3636C200.814 15.3636 199.516 14.26 199.516 12.6248ZM186.92 30.6556V22.7636H184.281V19.2885H186.92V9.37012H191.151V19.289H195.844V22.7636H191.151V30.7361C191.151 32.6993 191.822 33.2722 192.911 33.2722C193.917 33.2722 194.545 32.8215 195.006 32.4538L197.017 35.2339C196.136 36.0522 194.754 36.8701 192.491 36.8701C189.183 36.8701 186.92 35.2344 186.92 30.6556Z" fill="#333333"/>
<path d="M27.6528 47.0556C39.4656 47.0556 49.0417 37.4795 49.0417 25.6667C49.0417 13.854 39.4656 4.27783 27.6528 4.27783C15.84 4.27783 6.26392 13.854 6.26392 25.6667C6.26392 37.4795 15.84 47.0556 27.6528 47.0556Z" fill="#FC521F"/>
<path d="M32.6792 35.5031L29.2804 33.5414L39.5053 27.6437C39.8974 27.4175 40.2666 27.1578 40.6104 26.8686C41.9395 28.761 42.0699 31.2528 40.8854 33.3051C39.8068 35.1616 37.8227 36.3049 35.6756 36.3072C34.6281 36.3072 33.5928 36.0296 32.6792 35.5026V35.5031ZM31.8603 36.9198C32.2524 37.1464 32.6618 37.3369 33.085 37.4902C32.1088 39.5853 30.0147 40.944 27.6426 40.944C24.3314 40.944 21.6359 38.2515 21.6359 34.9424V23.1459L26.8237 26.1398V33.5419C26.8237 33.8342 26.98 34.1041 27.2331 34.2503L31.8603 36.9198ZM19.6253 36.3062C17.4794 36.304 15.4964 35.1615 14.4181 33.3061C13.6178 31.9291 13.4021 30.2889 13.8193 28.7518C14.2274 27.2116 15.2352 25.8988 16.6176 25.1065L20.0154 23.1459L20.0159 34.9403C20.0159 35.3931 20.0546 35.8417 20.1336 36.2863C19.9645 36.2995 19.7944 36.3062 19.6253 36.3062ZM32.8472 21.7286L27.6609 24.7205L21.2443 21.0197C20.9909 20.8741 20.6792 20.8741 20.4259 21.0197L15.7987 23.6888C15.4066 23.9144 15.0369 24.1725 14.6926 24.4633C13.3645 22.5714 13.2346 20.0791 14.4181 18.0268C15.4965 16.1702 17.4803 15.0267 19.6274 15.0242C20.6739 15.0242 21.7102 15.3033 22.6238 15.8299L32.8472 21.7286ZM27.6426 10.3884C30.9553 10.3884 33.6493 13.0809 33.6493 16.3916V20.3129L23.4275 14.4157C23.0364 14.1892 22.626 13.998 22.2012 13.8443C23.1769 11.7476 25.272 10.3884 27.6426 10.3884ZM40.8849 18.0288C42.54 20.8955 41.554 24.5733 38.6854 26.2284L28.462 32.1257V26.1408L34.8781 22.439C35.1318 22.2929 35.2881 22.023 35.2881 21.7307V16.3916C35.2881 15.9409 35.2474 15.4917 35.17 15.0492C37.4904 14.8558 39.7149 16.0156 40.8849 18.0288Z" fill="white"/>
</svg>
