<svg width="247" height="48" viewBox="0 0 247 48" fill="none" xmlns="http://www.w3.org/2000/svg">
<path d="M125.503 4.10493H134.228C141.587 14.7125 149.195 25.9099 156.873 36.977C164.526 25.9373 171.878 14.8418 179.325 4.10059H188.054V43.607H182.301V9.7735L159.043 43.607L154.599 43.5998L131.357 9.7735L131.302 43.607H125.503V4.10493Z" fill="#1FD3EF"/>
<path d="M202.239 18.4934C202.239 18.4934 198.663 18.5334 197.256 18.5334C196.412 8.5681 199.217 5.06935 207.426 4.39092C216.383 4.06785 222.892 4.20865 231.003 4.38947C237.019 4.85767 239.728 7.21122 240.508 13.2072C240.754 15.1046 240.779 17.0608 240.645 18.9717C240.253 24.5685 237.693 27.2957 232.083 27.8367C225.372 28.4843 218.637 28.8821 211.915 29.427C210.078 29.576 208.229 29.7457 206.427 30.1122C203.074 30.794 201.828 31.5727 201.676 34.9278C201.622 36.1236 201.745 37.7929 201.745 39.2684H240.653L240.693 43.6071H197.088C197.136 40.2786 196.825 36.5556 197.313 33.2256C197.982 28.6661 201.017 26.4456 205.251 25.6939C212.222 24.4566 219.316 24.5043 226.345 23.8452C228.021 23.688 229.695 23.4889 231.359 23.2314C232.397 23.0703 233.044 23.2039 234.103 22.0693C236.072 20.9444 235.797 15.5198 235.309 11.9839C234.7 9.38588 232.189 8.29518 229.731 8.2026C222.506 7.93064 215.274 7.91763 208.051 8.21513C204.475 8.36268 202.621 10.4491 202.316 14.3775C202.212 15.7151 202.239 18.4934 202.239 18.4934Z" fill="#5D5D5D"/>
<path d="M75.4226 8.70896L75.4424 3.98739C75.4424 3.98739 98.6312 3.97919 108.995 3.98787C115.893 3.99366 118.984 7.03625 119.11 13.9537C119.149 16.1182 119.083 18.2741 118.807 20.4362C118.239 24.8829 115.921 27.3035 111.436 28.0229C108.477 28.4969 105.506 28.2963 102.541 28.3103C95.4015 28.3431 88.2618 28.3209 80.8101 28.3209V43.6072H75.4544V23.5964C75.4544 23.5964 95.7873 23.7208 104.623 23.608C111.378 23.5222 114.11 23.0034 113.1 13.7599C112.706 10.155 111.381 8.90955 107.58 8.82902C101.236 8.69401 75.4226 8.70896 75.4226 8.70896Z" fill="#1FD3EF"/>
<path d="M35.4174 43.8143C27.0731 43.8148 18.7284 43.8351 10.3842 43.8042C7.45058 43.7936 5.90083 42.0833 6.35216 39.4641C6.76346 37.0763 8.41254 36.4991 10.5829 36.5029C25.7471 36.53 40.9119 36.5169 56.0761 36.5169C57.6809 36.5169 59.2865 36.4803 60.8898 36.5261C63.3417 36.596 64.755 37.9394 64.7815 40.1478C64.8085 42.349 63.4107 43.7811 60.9318 43.795C52.4274 43.8428 43.9222 43.8134 35.4174 43.8143Z" fill="#1FD3EF"/>
<path d="M35.4174 28.2638C27.0731 28.2643 18.7284 28.2845 10.3842 28.2537C7.45058 28.2431 5.90083 26.5328 6.35216 23.9135C6.76346 21.5257 8.41254 20.9486 10.5829 20.9524C25.7471 20.9799 40.9119 20.9664 56.0761 20.9664C57.6809 20.9664 59.2865 20.9297 60.8898 20.9756C63.3417 21.0455 64.755 22.3888 64.7815 24.5973C64.8085 26.7984 63.4107 28.2305 60.9318 28.2445C52.4274 28.2922 43.9222 28.2628 35.4174 28.2638Z" fill="#5D5D5D"/>
<path d="M35.4174 11.87C27.0731 11.8705 18.7284 11.8907 10.3842 11.8599C7.45058 11.8493 5.90083 10.139 6.35216 7.51972C6.76346 5.13193 8.41254 4.55476 10.5829 4.55861C25.7471 4.58562 40.9119 4.5726 56.0761 4.5726C57.6809 4.5726 59.2865 4.53643 60.8898 4.58176C63.3417 4.65167 64.755 5.99504 64.7815 8.20346C64.8085 10.4046 63.4107 11.8367 60.9318 11.8507C52.4274 11.8984 43.9222 11.869 35.4174 11.87Z" fill="#1FD3EF"/>
</svg>
