<svg width="184" height="65" viewBox="0 0 184 65" fill="none" xmlns="http://www.w3.org/2000/svg">
<g opacity="0.3">
<path d="M29.3827 6.16699C29.6384 7.54565 29.8496 8.94655 30.0442 10.3197C30.2388 11.6928 30.4222 13.0992 30.6001 14.489C30.778 15.8788 30.9114 17.2686 31.0282 18.6695L31.2061 20.7652C31.245 21.4657 31.3061 22.1661 31.3339 22.8666C31.1949 22.1773 31.0949 21.4824 30.9726 20.793L30.6668 18.7139C30.4611 17.3242 30.2944 15.9344 30.1109 14.5446C29.9275 13.1548 29.7996 11.765 29.6773 10.3641C29.555 8.96323 29.4605 7.56789 29.3827 6.16699Z" fill="#D4910B"/>
<path d="M16.252 9.28566C17.1915 10.492 18.0921 11.7317 18.9815 12.9769C19.871 14.2222 20.7438 15.473 21.6055 16.7349C22.4671 17.9968 23.3177 19.2698 24.1404 20.5596L25.3801 22.4886C25.7748 23.1446 26.1862 23.7894 26.5697 24.4509C26.0972 23.8506 25.6469 23.2335 25.1855 22.622L23.8402 20.7652C22.9452 19.5256 22.078 18.2636 21.2163 17.0017C20.3547 15.7398 19.5041 14.4668 18.6814 13.177C17.8586 11.8873 17.0303 10.6143 16.252 9.28566Z" fill="#D4910B"/>
<path d="M6.29563 20.4817C7.76324 21.0376 9.20861 21.6714 10.654 22.294C12.0994 22.9166 13.528 23.567 14.9567 24.223C16.3854 24.879 17.803 25.5517 19.215 26.2521L21.3275 27.2917C22.0224 27.6586 22.7284 28.0088 23.4177 28.4035C22.6839 28.1255 21.9557 27.8142 21.2274 27.5196L19.0594 26.5912C17.614 25.9741 16.1853 25.3182 14.7566 24.6678C13.3279 24.0173 11.9103 23.3391 10.4983 22.6387C9.08631 21.9382 7.67985 21.2322 6.29563 20.4817Z" fill="#D4910B"/>
<path d="M4.6001 35.0744C6.07882 34.802 7.56311 34.5852 9.0474 34.374C10.5317 34.1627 12.0215 33.9737 13.4947 33.8181C14.9679 33.6624 16.4744 33.479 17.9698 33.3511L20.1934 33.1565C20.9439 33.1065 21.6888 33.0454 22.4171 33.012C21.6777 33.151 20.9384 33.2622 20.1934 33.39L17.9698 33.7124C16.4855 33.9293 14.9957 34.1127 13.5225 34.2684C12.0493 34.424 10.5372 34.6019 9.04184 34.7353C7.54643 34.8687 6.11218 34.9688 4.6001 35.0744Z" fill="#D4910B"/>
<path d="M24.2071 37.9596C22.9063 38.9936 21.5777 39.9831 20.249 40.9671C18.9204 41.9511 17.5695 42.9072 16.2187 43.869C14.8678 44.8307 13.5003 45.7591 12.1216 46.6763L10.0536 48.0494C9.35315 48.4942 8.66382 48.95 7.95225 49.3836C8.60267 48.8611 9.2642 48.3663 9.92018 47.8604L11.9103 46.3761C13.239 45.3922 14.5898 44.4304 15.9407 43.4798C17.2916 42.5292 18.6591 41.5842 20.0378 40.6669C21.4164 39.7497 22.7895 38.8324 24.2071 37.9596Z" fill="#D4910B"/>
<path d="M27.7316 40.8782C27.2091 42.2735 26.6198 43.6577 26.0639 45.0253C25.508 46.3928 24.8965 47.7548 24.2905 49.1168C23.6846 50.4788 23.0619 51.8241 22.4171 53.1638L21.4442 55.1707C21.1051 55.8322 20.7771 56.5049 20.4269 57.1608C20.6771 56.4604 20.9828 55.771 21.233 55.0762L22.0835 53.0137C22.6395 51.6406 23.2565 50.2786 23.8569 48.9222C24.4573 47.5658 25.0855 46.2149 25.7359 44.8752C26.3863 43.5354 27.0312 42.1957 27.7316 40.8782Z" fill="#D4910B"/>
<path d="M32.1956 41.8621C32.4624 43.213 32.6792 44.575 32.8849 45.9314C33.0906 47.2878 33.2685 48.6554 33.4408 50.0174C33.6132 51.3793 33.7688 52.7469 33.8967 54.1144L34.0801 56.1713C34.1246 56.8551 34.1913 57.5444 34.2191 58.2337C34.0801 57.5555 33.9745 56.8773 33.8522 56.1991L33.5298 54.1589C33.3185 52.8025 33.1406 51.4405 32.9739 50.0785C32.8071 48.7165 32.6459 47.3434 32.5236 45.9759C32.4013 44.6083 32.2679 43.2408 32.1956 41.8621Z" fill="#D4910B"/>
<path d="M36.9987 40.4557C38.066 41.662 39.0945 42.8961 40.1118 44.1302C41.1291 45.3644 42.1353 46.6263 43.1304 47.8604C44.1255 49.0945 45.0983 50.3954 46.0545 51.6795L47.4887 53.6141C47.9501 54.2701 48.4282 54.9149 48.8841 55.582C48.3282 54.9817 47.8334 54.3646 47.3053 53.7586L45.7654 51.9075C44.7425 50.6733 43.7474 49.417 42.7524 48.155C41.7573 46.8931 40.7844 45.6368 39.8283 44.3582C38.8721 43.0796 37.9104 41.7787 36.9987 40.4557Z" fill="#D4910B"/>
<path d="M40.4676 36.4698C42.1798 37.2036 43.8586 37.9819 45.543 38.7657C47.2275 39.5495 48.8785 40.3723 50.5463 41.1783C52.214 41.9844 53.8817 42.8461 55.5105 43.6855L57.9788 44.9752C58.7904 45.42 59.6132 45.848 60.4193 46.3094C59.5631 45.9481 58.7515 45.5589 57.8732 45.1976L55.3493 44.0246C53.6816 43.2408 52.0139 42.418 50.3461 41.612C48.6784 40.8059 47.0106 39.9442 45.3818 39.1048C43.753 38.2654 42.0908 37.3759 40.4676 36.4698Z" fill="#D4910B"/>
<path d="M41.3515 31.8724C42.8858 31.6222 44.4257 31.4276 45.9655 31.2386C47.5054 31.0496 49.0508 30.8884 50.5963 30.7272C52.1417 30.566 53.6872 30.4381 55.2382 30.3269L57.5619 30.1657C58.3401 30.1324 59.1129 30.0768 59.8911 30.0601C59.124 30.188 58.3513 30.288 57.5841 30.3992L55.2715 30.6938C53.7316 30.8884 52.1862 31.0441 50.6463 31.1997C49.1064 31.3554 47.5554 31.4944 46.0044 31.6C44.4535 31.7056 42.908 31.8223 41.3515 31.8724Z" fill="#D4910B"/>
<path d="M39.6059 27.0804C41.0679 25.9019 42.5634 24.7678 44.0532 23.6393C45.543 22.5108 47.0662 21.4157 48.5783 20.3038C50.0904 19.192 51.6247 18.1247 53.1646 17.0573L55.4827 15.4674C56.261 14.9504 57.0337 14.4223 57.8287 13.9164C57.1005 14.5112 56.3555 15.0783 55.6051 15.6564L53.3814 17.3575C51.886 18.4693 50.3684 19.5812 48.8618 20.693C47.3553 21.8048 45.8154 22.8722 44.27 23.9562C42.7246 25.0402 41.1847 26.0631 39.6059 27.0804Z" fill="#D4910B"/>
<path d="M36.2259 23.8672C36.7819 22.4608 37.3378 21.0877 37.927 19.6979C38.5163 18.3081 39.1278 16.9517 39.7449 15.6175C40.3619 14.2833 41.0012 12.8935 41.6628 11.5482L42.6579 9.50247C43.0025 8.84093 43.3361 8.16828 43.6974 7.50674C43.4361 8.21275 43.1415 8.90208 42.8691 9.60253L41.9963 11.6761C41.4404 13.0547 40.7955 14.4223 40.1785 15.7843C39.5614 17.1463 38.911 18.5082 38.2606 19.8536C37.6102 21.1989 36.9375 22.5442 36.2259 23.8672Z" fill="#D4910B"/>
<path d="M25.1355 12.9436C25.6136 13.9609 26.0416 14.9949 26.4641 16.0344C26.8866 17.074 27.2813 18.1191 27.6705 19.1642C28.0596 20.2093 28.4321 21.2711 28.7823 22.3385L29.2937 23.9562C29.4494 24.5121 29.6217 25.0291 29.7662 25.5739C29.5216 25.0625 29.3048 24.5455 29.0769 24.034L28.4376 22.483C28.0096 21.4435 27.6149 20.3983 27.2257 19.3477C26.8366 18.297 26.4641 17.2241 26.125 16.1734C25.7859 15.1227 25.4246 14.0276 25.1355 12.9436Z" fill="#D4910B"/>
<path d="M7.67985 11.2202C9.31423 12.51 10.9208 13.8386 12.5218 15.1728C14.1229 16.507 15.6905 17.8745 17.2749 19.2198C18.8592 20.5651 20.4158 21.9605 21.9612 23.3558L24.2794 25.4516C25.041 26.1632 25.8137 26.858 26.5642 27.5807C25.7414 26.9414 24.9409 26.2799 24.1293 25.6239L21.7222 23.6338C20.1267 22.294 18.5535 20.932 16.9636 19.5812C15.3737 18.2303 13.8282 16.8405 12.2828 15.4507C10.7374 14.0609 9.18637 12.66 7.67985 11.2202Z" fill="#D4910B"/>
<path d="M8.64714 27.8142C10.0258 27.9865 11.3933 28.2089 12.7609 28.4424C14.1284 28.6759 15.4904 28.9316 16.8524 29.1984C18.2144 29.4653 19.5708 29.7544 20.9217 30.0601L22.9452 30.5326C23.6179 30.705 24.2961 30.8606 24.9632 31.0496C24.2738 30.9662 23.5901 30.8551 22.9007 30.7606L20.8494 30.4214C19.4819 30.1935 18.1199 29.9322 16.7579 29.6654C15.3959 29.3986 14.0395 29.1095 12.6886 28.7982C11.3378 28.4869 10.0036 28.1811 8.64714 27.8142Z" fill="#D4910B"/>
<path d="M10.2815 40.389C11.5268 39.7997 12.7887 39.2771 14.0562 38.7212C15.3236 38.1653 16.5967 37.6872 17.8753 37.1813C19.1539 36.6755 20.438 36.1863 21.7333 35.7471L23.679 35.0744C24.335 34.8632 24.9798 34.6353 25.6414 34.4351C25.0188 34.7353 24.3906 34.991 23.7624 35.2912L21.8667 36.0973C20.6048 36.6532 19.3262 37.1369 18.0476 37.6372C16.769 38.1375 15.4849 38.6212 14.1896 39.077C12.8943 39.5328 11.599 39.9831 10.2815 40.389Z" fill="#D4910B"/>
<path d="M24.1015 41.5842C23.4288 42.4903 22.7173 43.3686 22.0002 44.2414C21.283 45.1142 20.5437 45.9648 19.7765 46.8153C19.0093 47.6658 18.2755 48.483 17.4973 49.3169L16.3298 50.5399C15.924 50.9402 15.5349 51.346 15.1235 51.7351C15.4571 51.2737 15.8128 50.8345 16.152 50.3843L17.2304 49.0723C17.942 48.1995 18.6869 47.349 19.4263 46.4984C20.1656 45.6479 20.9272 44.8307 21.7055 43.9968C22.4838 43.163 23.2788 42.3624 24.1015 41.5842Z" fill="#D4910B"/>
<path d="M30.4 39.4383C30.261 40.7336 30.072 42.0178 29.8774 43.3019C29.6829 44.5861 29.4549 45.8703 29.227 47.1488C28.9991 48.4274 28.7489 49.7005 28.471 50.9735L28.054 52.8636C27.8984 53.4918 27.7594 54.1311 27.5871 54.7593C27.6538 54.1089 27.7483 53.464 27.8261 52.8192L28.1096 50.8901C28.3042 49.606 28.5321 48.3274 28.76 47.0488C28.988 45.7702 29.2437 44.4916 29.5216 43.2241C29.7996 41.9566 30.072 40.6947 30.4 39.4383Z" fill="#D4910B"/>
<path d="M33.8578 39.3494C34.4971 40.5835 35.0919 41.8399 35.6756 43.0962C36.2593 44.3526 36.7874 45.6256 37.3433 46.8987C37.8992 48.1717 38.4552 49.4503 38.9388 50.74L39.706 52.6802C39.9394 53.3306 40.1952 53.9755 40.4175 54.637C40.0951 54.0199 39.8005 53.3917 39.4892 52.7691L38.633 50.8846C38.0438 49.6282 37.4879 48.3607 36.9653 47.0877C36.4428 45.8147 35.8535 44.5361 35.3643 43.2408C34.8751 41.9455 34.3192 40.6614 33.8578 39.3494Z" fill="#D4910B"/>
<path d="M37.1321 37.4426C38.5497 38.4989 39.9117 39.5996 41.3014 40.7003C42.6912 41.801 44.0365 42.9239 45.3874 44.0357C46.7383 45.1476 48.0836 46.3094 49.4066 47.4768L51.3912 49.228C52.0417 49.8228 52.6976 50.4065 53.3425 51.0124C52.6309 50.4899 51.9416 49.9395 51.2411 49.4059L49.1731 47.7381C47.7945 46.6263 46.4381 45.5145 45.0816 44.4026C43.7252 43.2908 42.391 42.1234 41.0679 40.9615C39.7449 39.7997 38.4218 38.6545 37.1321 37.4426Z" fill="#D4910B"/>
<path d="M38.9555 33.8848C40.4731 34.0905 41.9741 34.3406 43.4806 34.6075C44.9871 34.8743 46.477 35.1634 47.9779 35.4525C49.4789 35.7415 50.9632 36.064 52.4252 36.4086L54.6489 36.9256C55.3882 37.1146 56.1332 37.287 56.8725 37.4815C56.1165 37.3815 55.3605 37.2536 54.6044 37.1424L52.3808 36.7588C50.8742 36.4976 49.3788 36.2029 47.8834 35.9083C46.388 35.6137 44.8926 35.2968 43.4361 34.9521C41.9796 34.6075 40.4342 34.2795 38.9555 33.8848Z" fill="#D4910B"/>
<path d="M38.7665 30.3492C40.134 29.7544 41.5127 29.2374 42.8969 28.6814C44.2811 28.1255 45.6765 27.6363 47.0662 27.136C48.456 26.6357 49.8458 26.1465 51.2689 25.6851L53.3647 24.9957C54.0763 24.7845 54.7823 24.5566 55.4939 24.3564C54.8157 24.6566 54.1263 24.9124 53.4426 25.2125L51.369 26.0242C49.9903 26.5801 48.5894 27.0693 47.1997 27.5752C45.8099 28.0811 44.4201 28.5647 42.997 29.0205C41.5738 29.4764 40.2007 29.9434 38.7665 30.3492Z" fill="#D4910B"/>
<path d="M36.6206 27.1416C37.5991 25.8574 38.6219 24.601 39.6504 23.3558C40.6788 22.1106 41.7239 20.8764 42.7746 19.6479C43.8253 18.4193 44.8982 17.2074 45.9878 16.0122L47.6222 14.2222C48.1781 13.6385 48.734 13.0436 49.2899 12.4655C48.8007 13.1103 48.2948 13.7385 47.7945 14.3778L46.2602 16.2568C45.2373 17.5076 44.1866 18.7306 43.1304 19.9592C42.0741 21.1877 41.0068 22.3996 39.9172 23.5948C38.8276 24.7901 37.7491 25.9853 36.6206 27.1416Z" fill="#D4910B"/>
<path d="M33.552 25.396C33.7077 24.1063 33.9134 22.8221 34.1079 21.5435C34.3025 20.2649 34.5582 18.9863 34.8084 17.7077C35.0585 16.4291 35.3254 15.1672 35.62 13.8997L36.0592 12.0041C36.226 11.3759 36.376 10.7422 36.5539 10.114C36.4817 10.7644 36.376 11.4037 36.2871 12.0485L35.998 13.9498C35.7868 15.2284 35.5422 16.507 35.2976 17.78C35.053 19.053 34.7806 20.3261 34.4859 21.588C34.1913 22.8499 33.9078 24.1452 33.552 25.396Z" fill="#D4910B"/>
</g>
<path d="M45.4491 43.0959C44.7664 42.4848 44.1326 41.8213 43.5534 41.1113C41.1686 44.2522 37.0882 46.248 32.8465 46.3703H32.0627C27.8267 46.248 23.724 44.2522 21.3558 41.1113C20.7767 41.8231 20.1409 42.4868 19.4546 43.0959C19.4546 43.0959 16.2581 42.6568 15.0073 42.1009C17.1476 45.7143 22.0118 51.7515 32.2851 51.9349H32.6242C42.903 51.7515 47.7672 45.7143 49.9242 42.1009C48.3621 42.8124 45.4491 43.0959 45.4491 43.0959Z" fill="#BC3627"/>
<path d="M20.8163 41.0338C19.1486 40.9282 16.0744 40.0832 13.406 38.8713C13.8767 40.0289 14.616 41.0579 15.5629 41.8733C16.7534 42.2871 17.9958 42.5322 19.2542 42.6015C19.8574 42.1682 20.3851 41.6385 20.8163 41.0338Z" fill="#A58F86"/>
<path d="M44.0924 41.0338C45.7601 40.9282 48.8343 40.0832 51.5027 38.8713C51.0291 40.0317 50.2836 41.0612 49.3291 41.8733C48.1388 42.2876 46.8962 42.5328 45.6378 42.6015C45.0406 42.1668 44.5185 41.6372 44.0924 41.0338Z" fill="#A58F86"/>
<path d="M21.1658 40.7006C20.9333 40.3975 20.746 40.0623 20.6099 39.7055C18.4474 38.6548 13.2274 33.9907 12.3212 31.7393C12.2656 36.1476 13.8944 38.4825 13.8944 38.4825C16.177 39.6237 18.6349 40.3735 21.1658 40.7006Z" fill="#D1912A"/>
<path d="M44.3251 39.7055C44.1889 40.0623 44.0016 40.3975 43.7692 40.7006C46.2985 40.3711 48.7545 39.6195 51.035 38.4769C51.035 38.4769 52.6693 36.1421 52.6082 31.7559C51.6965 33.9907 46.482 38.6548 44.3251 39.7055Z" fill="#D1912A"/>
<path d="M20.2274 38.8879C19.9538 38.3459 19.7107 37.7891 19.4991 37.2202C16.4259 33.0319 14.7916 27.961 14.8406 22.7664C14.8406 22.7664 12.6169 27.7196 12.9616 31.7722C12.9838 32.0391 16.7918 36.9478 20.2274 38.8879Z" fill="#7FB241"/>
<path d="M45.4269 37.2202C45.2189 37.7898 44.9776 38.3466 44.7042 38.8879C48.1397 36.9478 51.931 32.039 51.97 31.7555C52.2979 27.7029 50.091 22.7498 50.091 22.7498C50.1432 27.9509 48.5065 33.0285 45.4269 37.2202Z" fill="#7FB241"/>
<path d="M18.5367 32.5172C17.1525 27.7253 19.9154 16.9072 19.9154 16.9072C15.5904 21.2878 15.2791 23.9228 15.2791 23.9228C15.4729 28.0202 16.7007 32.0019 18.848 35.4969C18.7869 34.7965 18.5367 32.5172 18.5367 32.5172Z" fill="#0997A7"/>
<path d="M46.3935 32.5172C46.3935 32.5172 46.1433 34.7965 46.0822 35.4969C48.2295 32.0019 49.4572 28.0202 49.6511 23.9228C49.6511 23.9228 49.3398 21.2878 45.0259 16.9072C45.0259 16.9072 47.8055 27.2528 46.3935 32.5172Z" fill="#0997A7"/>
<path d="M18.7197 31.1107C18.7197 31.1107 20.6654 20.5484 26.6804 14.4333C24.3535 15.246 22.1738 16.4306 20.2262 17.9412C19.1638 22.2487 18.6575 26.6745 18.7197 31.1107Z" fill="#6A4E6D"/>
<path d="M44.7031 17.9578C42.7549 16.4482 40.5754 15.2636 38.2489 14.45C44.2639 20.5317 46.204 31.1274 46.204 31.1274C46.2708 26.6913 45.7664 22.2651 44.7031 17.9578Z" fill="#6A4E6D"/>
<path d="M23.6954 35.0081V25.7911L22.0277 26.4081L21.6997 24.2234L24.0234 23.1394H26.4305V35.0081H23.6954Z" fill="#D1912A"/>
<path d="M27.7925 35.0081V32.979L30.8834 28.9598C31.4393 28.3473 31.7672 27.562 31.8118 26.7361C31.8311 26.5535 31.8108 26.3689 31.7524 26.1949C31.694 26.0208 31.5988 25.8614 31.4733 25.7274C31.3477 25.5934 31.1948 25.4881 31.0249 25.4185C30.855 25.3489 30.6721 25.3167 30.4887 25.3241C29.6634 25.3713 28.8789 25.6989 28.265 26.2525L27.9204 23.901C28.8396 23.263 29.9312 22.9199 31.0502 22.917C33.0626 22.917 34.6413 23.9843 34.6413 26.2525C34.6413 27.6145 34.0854 28.7985 33.007 30.1772L31.0668 32.7344H34.5079L34.8693 35.0248L27.7925 35.0081Z" fill="#D1912A"/>
<path d="M38.655 35.2304C37.5878 35.23 36.5346 34.9867 35.5753 34.5189L35.9533 32.2341C36.7038 32.6513 37.5414 32.8874 38.3993 32.9234C38.6354 32.9458 38.8735 32.9165 39.0971 32.8376C39.3208 32.7587 39.5245 32.632 39.6943 32.4665C39.8641 32.3009 39.9958 32.1004 40.0804 31.8788C40.1649 31.6573 40.2002 31.42 40.1838 31.1834C40.2036 30.9867 40.1813 30.7881 40.1183 30.6007C40.0552 30.4133 39.953 30.2416 39.8183 30.0969C39.6836 29.9522 39.5196 29.8379 39.3372 29.7616C39.1548 29.6854 38.9583 29.6489 38.7607 29.6546C38.3789 29.6435 38.0021 29.7439 37.6766 29.9437L36.0089 29.5323L36.4369 23.1505H42.3852L42.7132 25.4242H38.6384L38.4827 27.6478C38.8545 27.529 39.2431 27.4708 39.6334 27.4755C41.4402 27.4755 42.9356 28.6762 42.9356 31.05C42.9356 33.7851 41.1678 35.2304 38.655 35.2304Z" fill="#D1912A"/>
<path d="M25.958 39.9279V41.8013H25.0129V39.9335L23.651 36.8926L24.646 36.7425L25.5299 38.9662L26.3972 36.7814H27.37L25.958 39.9279Z" fill="#D1912A"/>
<path d="M27.7925 41.8013V36.7981H30.2385V37.5764H28.732V38.7827H29.8438L30.0162 39.5888H28.732V41.0119H30.3108V41.8013H27.7925Z" fill="#D1912A"/>
<path d="M30.6165 41.8013L31.9785 36.7981H33.0403L34.3578 41.7179L33.4239 41.8847L33.107 40.5505H31.8284L31.5338 41.8291L30.6165 41.8013ZM32.0063 39.7667H32.9291L32.4733 37.8544L32.0063 39.7667Z" fill="#D1912A"/>
<path d="M35.9644 39.8167H35.7476V41.8013H34.8359V36.7981H36.0145C37.0262 36.7981 37.6822 37.354 37.6822 38.2824C37.7021 38.5738 37.6266 38.8638 37.4671 39.1085C37.3077 39.3532 37.0729 39.5393 36.7983 39.6388L37.9101 41.7124L37.004 41.8736L35.9644 39.8167ZM35.9644 39.1385C36.5203 39.1385 36.8316 38.8661 36.8316 38.3269C36.8316 37.7876 36.5481 37.5375 35.9867 37.5375H35.7532V39.1385H35.9644Z" fill="#D1912A"/>
<path d="M39.5612 41.8625C39.1146 41.8726 38.6728 41.7694 38.277 41.5623L38.4104 40.7507C38.7427 40.9641 39.1275 41.0815 39.5223 41.0898C39.8892 41.0898 40.1115 40.8952 40.1115 40.5672C40.1115 40.2392 39.917 39.9779 39.3777 39.5888C38.8385 39.1997 38.3548 38.805 38.3548 38.0656C38.3492 37.888 38.3805 37.7111 38.4468 37.5462C38.513 37.3812 38.6128 37.2319 38.7398 37.1075C38.8668 36.9831 39.0182 36.8865 39.1845 36.8237C39.3507 36.7608 39.5282 36.7332 39.7057 36.7425C40.067 36.7242 40.4265 36.8049 40.7453 36.976L40.6118 37.8099C40.3669 37.6191 40.0662 37.5137 39.7557 37.5097C39.69 37.504 39.6239 37.5125 39.5618 37.5346C39.4996 37.5567 39.4429 37.5918 39.3955 37.6377C39.3481 37.6835 39.3111 37.7389 39.2869 37.8003C39.2627 37.8617 39.252 37.9275 39.2554 37.9933C39.2554 38.3269 39.4722 38.5492 39.967 38.8717C40.5785 39.3108 41.0121 39.7333 41.0121 40.5061C41.0177 40.6939 40.9833 40.8808 40.911 41.0542C40.8388 41.2277 40.7304 41.3838 40.5932 41.5122C40.4559 41.6405 40.2929 41.7381 40.1149 41.7985C39.937 41.8589 39.7482 41.8807 39.5612 41.8625Z" fill="#D1912A"/>
<path d="M61.1469 17.8022H62.5089L64.9549 24.3342L63.6763 24.5621L63.037 22.8054H60.5076L59.9072 24.4732H58.623L61.1469 17.8022ZM60.8578 21.7603H62.6812L61.7751 19.1809L60.8578 21.7603Z" fill="#BE3526"/>
<path d="M71.9927 24.5121L71.637 19.6423L69.9692 24.5343H68.8574L67.1897 19.6423L66.8561 24.5121H65.7054L66.1501 17.8411H67.8178L69.4856 22.8443L71.1533 17.8411H72.7488L73.2602 24.5121H71.9927Z" fill="#BE3526"/>
<path d="M74.4888 24.5121V17.8411H78.3802V18.9252H75.7729V20.5095H77.7798L77.9577 21.5824H75.7729V23.4002H78.4802V24.5121H74.4888Z" fill="#BE3526"/>
<path d="M83.0721 24.5621L81.3154 21.9438H80.7595V24.5121H79.492V17.8411H81.56C83.0498 17.8411 83.9504 18.5471 83.9504 19.8424C83.9732 20.2656 83.8505 20.6838 83.6027 21.0276C83.355 21.3715 82.9971 21.6202 82.5884 21.7325L84.3896 24.3509L83.0721 24.5621ZM81.4599 18.8529H80.7539V20.9709H81.4043C82.1937 20.9709 82.6885 20.5929 82.6885 19.898C82.6885 19.2031 82.2716 18.8529 81.4599 18.8529Z" fill="#BE3526"/>
<path d="M85.2679 24.5121V17.8411H86.5521V24.5121H85.2679Z" fill="#BE3526"/>
<path d="M90.8993 24.6121C88.9592 24.6121 87.7417 23.239 87.7417 21.171C87.7417 19.103 89.0037 17.7133 90.8882 17.7133C91.5439 17.6958 92.1912 17.8634 92.7561 18.1969L92.5726 19.4032C92.1108 19.0342 91.5404 18.8271 90.9493 18.814C89.7708 18.814 89.0426 19.7146 89.0426 21.1655C89.0426 22.6164 89.8153 23.5003 90.9938 23.5003C91.5925 23.4839 92.1728 23.2905 92.6616 22.9444L92.8394 24.0562C92.2573 24.419 91.5852 24.6115 90.8993 24.6121Z" fill="#BE3526"/>
<path d="M95.9692 17.8022H97.3312L99.7772 24.3342L98.5042 24.5621L97.8649 22.8054H95.3355L94.7351 24.4732H93.4676L95.9692 17.8022ZM95.6802 21.7603H97.5091L96.5974 19.1809L95.6802 21.7603Z" fill="#BE3526"/>
<path d="M105.014 24.5121L101.873 19.9258V24.5121H100.683V17.8411H101.895L104.886 22.205V17.8411H106.076V24.5121H105.014Z" fill="#BE3526"/>
<path d="M111.557 17.8022H112.919L115.359 24.3342L114.086 24.5621L113.447 22.8054H110.918L110.317 24.4732H109.05L111.557 17.8022ZM111.262 21.7603H113.091L112.18 19.1809L111.262 21.7603Z" fill="#BE3526"/>
<path d="M118.906 24.6121C116.966 24.6121 115.749 23.239 115.749 21.171C115.749 19.103 117.011 17.7133 118.895 17.7133C119.551 17.6958 120.198 17.8634 120.763 18.1969L120.579 19.4032C120.12 19.0342 119.551 18.8271 118.962 18.814C117.783 18.814 117.055 19.7146 117.055 21.1655C117.055 22.6164 117.828 23.5003 119.006 23.5003C119.614 23.4874 120.204 23.2939 120.702 22.9444L120.874 24.0562C120.284 24.4249 119.602 24.6177 118.906 24.6121Z" fill="#BE3526"/>
<path d="M123.965 17.8022H125.327L127.767 24.3342L126.494 24.5621L125.855 22.8054H123.326L122.725 24.4732H121.458L123.965 17.8022ZM123.67 21.7603H125.499L124.588 19.1809L123.67 21.7603Z" fill="#BE3526"/>
<path d="M130.808 24.5121H128.696V17.8411H130.808C133.126 17.8411 134.327 19.2031 134.327 21.1766C134.327 23.1501 133.082 24.5121 130.808 24.5121ZM130.808 18.8974H129.969V23.4614H130.78C132.181 23.4614 133.004 22.7443 133.004 21.1822C133.004 19.62 132.131 18.8807 130.797 18.8807L130.808 18.8974Z" fill="#BE3526"/>
<path d="M135.495 24.5121V17.8411H139.386V18.9252H136.751V20.5095H138.758L138.93 21.5824H136.751V23.4002H139.453V24.5121H135.495Z" fill="#BE3526"/>
<path d="M146.652 24.5121L146.296 19.6423L144.628 24.5343H143.516L141.849 19.6423L141.465 24.5121H140.314L140.826 17.8411H142.449L144.117 22.8721L145.785 17.8689H147.38L147.891 24.5399L146.652 24.5121Z" fill="#BE3526"/>
<path d="M151.966 21.9438V24.5121H150.693V21.9549L148.353 17.9745L149.687 17.7633L151.355 20.7763L153.023 17.83H154.385L151.966 21.9438Z" fill="#BE3526"/>
<path d="M160.133 24.6233C158.237 24.6233 157.008 23.2279 157.008 21.171C157.008 19.1142 158.248 17.7021 160.149 17.7021C162.051 17.7021 163.268 19.0975 163.268 21.1544C163.268 23.2112 162.045 24.6233 160.133 24.6233ZM160.133 18.7639C158.993 18.7639 158.309 19.7034 158.309 21.1655C158.309 22.6275 158.993 23.5615 160.133 23.5615C161.272 23.5615 161.973 22.622 161.973 21.1655C161.973 19.709 161.278 18.7639 160.138 18.7639H160.133Z" fill="#BE3526"/>
<path d="M165.697 18.953V20.6207H167.571L167.754 21.7325H165.697V24.5121H164.419V17.8411H168.149V18.953H165.697Z" fill="#BE3526"/>
<path d="M61.9808 36.214C60.0907 36.214 58.8621 34.8242 58.8621 32.7674C58.8621 30.7105 60.1018 29.2985 62.003 29.2985C63.9042 29.2985 65.1217 30.6883 65.1217 32.7451C65.1217 34.802 63.9265 36.214 61.9808 36.214ZM61.9808 30.3603C60.8689 30.3603 60.1574 31.2998 60.1574 32.7563C60.1574 34.2127 60.8411 35.1522 61.9808 35.1522C63.1204 35.1522 63.8153 34.2127 63.8153 32.7563C63.8153 31.2998 63.1315 30.3603 61.9919 30.3603H61.9808Z" fill="#BE3526"/>
<path d="M68.7573 30.5326V36.0917H67.4787V30.5326H65.4719V29.4208H70.6474L70.8309 30.5326H68.7573Z" fill="#BE3526"/>
<path d="M74.2219 36.214C72.3318 36.214 71.1033 34.8242 71.1033 32.7674C71.1033 30.7105 72.343 29.2985 74.2442 29.2985C76.1454 29.2985 77.3629 30.6883 77.3629 32.7451C77.3629 34.802 76.1565 36.214 74.2219 36.214ZM74.2219 30.3603C73.0823 30.3603 72.3986 31.2998 72.3986 32.7563C72.3986 34.2127 73.0823 35.1522 74.2219 35.1522C75.3616 35.1522 76.0565 34.2127 76.0565 32.7563C76.0565 31.2998 75.3727 30.3603 74.2331 30.3603H74.2219Z" fill="#BE3526"/>
<path d="M78.5136 36.0917V29.4208H79.7977V34.9799H82.0214L82.1937 36.0917H78.5136Z" fill="#BE3526"/>
<path d="M85.1234 29.393H86.4854L88.9425 35.925L87.6695 36.1584L87.0302 34.3962H84.4952L83.8948 36.0639H82.6329L85.1234 29.393ZM84.8343 33.3566H86.6577L85.7516 30.7772L84.8343 33.3566Z" fill="#BE3526"/>
<path d="M93.4232 36.1862L91.6609 33.5679H91.105V36.1195H89.832V29.4486H91.9C93.3842 29.4486 94.2848 30.1546 94.2848 31.4499C94.3043 31.8688 94.1814 32.282 93.9361 32.6222C93.6908 32.9624 93.3376 33.2095 92.934 33.3233L94.7296 35.9416L93.4232 36.1862ZM91.8055 30.477H91.0994V32.5895H91.7499C92.5393 32.5895 93.034 32.2115 93.034 31.5166C93.034 30.8217 92.6115 30.4492 91.8055 30.4492V30.477Z" fill="#BE3526"/>
<path d="M98.3263 33.5401V36.0917H97.0533V33.5512L94.7129 29.5653L96.0471 29.3541L97.7148 32.3671L99.3825 29.4208H100.745L98.3263 33.5401Z" fill="#BE3526"/>
<path d="M105.892 36.0917L102.751 31.4999V36.0917H101.567V29.4208H102.774L105.77 33.7903V29.4208H106.954V36.0917H105.892Z" fill="#BE3526"/>
<path d="M111.379 36.214C109.267 36.214 108.105 34.8242 108.105 32.7674C108.105 30.7105 109.333 29.2985 111.362 29.2985C112.077 29.2913 112.78 29.4839 113.392 29.8544L113.208 31.044C112.679 30.6454 112.036 30.4254 111.374 30.4159C110.067 30.4159 109.411 31.3665 109.411 32.784C109.411 34.2016 110.084 35.1634 111.429 35.1634C111.817 35.1691 112.2 35.0753 112.541 34.891V33.4067H111.179L111.029 32.3838H113.703V35.5636C113.005 35.9948 112.199 36.2202 111.379 36.214Z" fill="#BE3526"/>
<path d="M117.883 36.214C115.988 36.214 114.765 34.8242 114.765 32.7674C114.765 30.7105 115.999 29.2985 117.9 29.2985C119.801 29.2985 121.024 30.6883 121.024 32.7451C121.024 34.802 119.796 36.214 117.883 36.214ZM117.883 30.3603C116.744 30.3603 116.054 31.2998 116.054 32.7563C116.054 34.2127 116.744 35.1522 117.883 35.1522C119.023 35.1522 119.718 34.2127 119.718 32.7563C119.718 31.2998 119.034 30.3603 117.894 30.3603H117.883Z" fill="#BE3526"/>
<path d="M122.175 36.0917V29.4208H123.459V34.9799H125.683L125.861 36.0917H122.175Z" fill="#BE3526"/>
<path d="M129.235 36.214C127.339 36.214 126.116 34.8242 126.116 32.7674C126.116 30.7105 127.35 29.2985 129.252 29.2985C131.153 29.2985 132.376 30.6883 132.376 32.7451C132.376 34.802 131.147 36.214 129.235 36.214ZM129.235 30.3603C128.095 30.3603 127.406 31.2998 127.406 32.7563C127.406 34.2127 128.095 35.1522 129.235 35.1522C130.375 35.1522 131.07 34.2127 131.07 32.7563C131.07 31.2998 130.386 30.3603 129.246 30.3603H129.235Z" fill="#BE3526"/>
<path d="M136.54 36.214C134.422 36.214 133.265 34.8242 133.265 32.7674C133.265 30.7105 134.488 29.2985 136.517 29.2985C137.233 29.2905 137.935 29.483 138.547 29.8544L138.363 31.044C137.834 30.6447 137.191 30.4246 136.529 30.4159C135.222 30.4159 134.566 31.3665 134.566 32.784C134.566 34.2016 135.244 35.1634 136.584 35.1634C136.972 35.1699 137.355 35.076 137.696 34.891V33.4067H136.345L136.195 32.3616H138.869V35.5414C138.172 35.9825 137.364 36.2158 136.54 36.214Z" fill="#BE3526"/>
<path d="M142.994 33.5401V36.0917H141.715V33.5512L139.38 29.5653L140.709 29.3541L142.377 32.3671L144.045 29.4208H145.407L142.994 33.5401Z" fill="#BE3526"/>
<path d="M145.223 33.857V32.7451H148.681V33.857H145.223Z" fill="#BE3526"/>
<path d="M63.2371 47.6825V44.7862H60.4075V47.6825H59.1234V41.0116H60.4075V43.641H63.2371V41.0171H64.5268V47.6881L63.2371 47.6825Z" fill="#BE3526"/>
<path d="M65.9333 47.6825V41.0116H69.8247V42.1234H67.2175V43.7077H69.2243L69.4022 44.7751H67.2175V46.6207H69.9247V47.7325L65.9333 47.6825Z" fill="#BE3526"/>
<path d="M72.9378 40.9893H74.2998L76.7458 47.5213L75.4727 47.7492L74.8335 45.9925H72.304L71.7037 47.6603H70.4362L72.9378 40.9893ZM72.6487 44.9474H74.4888L73.5771 42.368L72.6487 44.9474Z" fill="#BE3526"/>
<path d="M79.77 47.6825H77.6519V41.0116H79.77C82.0881 41.0116 83.2889 42.3735 83.2889 44.347C83.2889 46.3205 82.0381 47.6825 79.77 47.6825ZM79.77 42.0678H78.9361V46.6318H79.7477C81.1486 46.6318 81.9714 45.9147 81.9714 44.3526C81.9714 42.7905 81.093 42.0678 79.7588 42.0678H79.77Z" fill="#BE3526"/>
<path d="M88.52 40.9893H89.882L92.328 47.5213L91.055 47.7492L90.4157 45.9925H87.8863L87.2859 47.6603H86.0184L88.52 40.9893ZM88.2309 44.9474H90.0543L89.1426 42.368L88.2309 44.9474Z" fill="#BE3526"/>
<path d="M97.5647 47.6825L94.4238 43.0962V47.6825H93.2341V41.0116H94.446L97.4368 45.3755V41.0171H98.6265V47.6881L97.5647 47.6825Z" fill="#BE3526"/>
<path d="M102.157 47.6825H100.061V41.0116H102.179C104.497 41.0116 105.692 42.3735 105.692 44.347C105.692 46.3205 104.425 47.6825 102.157 47.6825ZM102.157 42.0678H101.323V46.6318H102.134C103.535 46.6318 104.358 45.9147 104.358 44.3526C104.358 42.7905 103.48 42.0678 102.145 42.0678H102.157Z" fill="#BE3526"/>
<path d="M113.236 47.6825L110.095 43.0962V47.6825H108.905V41.0116H110.117L113.108 45.3755V41.0171H114.298V47.6881L113.236 47.6825Z" fill="#BE3526"/>
<path d="M115.71 47.6825V41.0116H119.601V42.1234H116.988V43.7077H118.962L119.134 44.7751H116.949V46.6207H119.657V47.7325L115.71 47.6825Z" fill="#BE3526"/>
<path d="M123.526 47.7992C121.58 47.7992 120.363 46.4261 120.363 44.3581C120.363 42.2901 121.63 40.9004 123.515 40.9004C124.169 40.8821 124.814 41.0499 125.377 41.384L125.194 42.5903C124.733 42.2194 124.162 42.0121 123.57 42.0011C122.392 42.0011 121.669 42.9017 121.669 44.3526C121.669 45.8035 122.442 46.6874 123.62 46.6874C124.219 46.6703 124.799 46.477 125.288 46.1315L125.466 47.2433C124.884 47.6061 124.212 47.7986 123.526 47.7992Z" fill="#BE3526"/>
<path d="M130.636 47.7492L127.973 44.4137V47.6603H126.689V40.9893H127.973V43.969L130.397 41.0449H131.892L129.246 44.158L132.026 47.538L130.636 47.7492Z" fill="#BE3526"/>
<path d="M136.623 47.7603C135.899 47.7666 135.183 47.6108 134.527 47.3045L134.722 46.1315C135.302 46.4894 135.964 46.6923 136.645 46.7208C137.235 46.7208 137.64 46.4428 137.64 45.9091C137.64 45.3755 137.407 45.2142 136.44 44.7973C135.144 44.2414 134.627 43.8411 134.627 42.8071C134.627 41.6286 135.534 40.9448 136.779 40.9448C137.389 40.9275 137.994 41.0673 138.535 41.3507L138.346 42.5125C137.881 42.1906 137.333 42.0092 136.768 41.99C136.134 41.99 135.85 42.2957 135.85 42.7015C135.85 43.1073 136.067 43.3297 136.99 43.7188C138.363 44.2748 138.869 44.7528 138.869 45.7868C138.869 47.0821 137.907 47.7603 136.623 47.7603Z" fill="#BE3526"/>
<path d="M142.555 47.7992C140.943 47.7992 139.892 46.8431 139.892 45.1031V41.0171H141.165V45.0364C141.165 46.0481 141.632 46.7041 142.566 46.7041C143.5 46.7041 143.978 46.087 143.978 45.0808V41.0171H145.262V45.0808C145.293 45.4447 145.244 45.811 145.12 46.1541C144.995 46.4973 144.796 46.8091 144.539 47.0679C144.281 47.3267 143.97 47.5261 143.627 47.6525C143.285 47.7788 142.919 47.8288 142.555 47.7992Z" fill="#BE3526"/>
<path d="M150.187 47.7492L148.425 45.1309H147.869V47.6825H146.591V41.0116H148.659C150.148 41.0116 151.049 41.7176 151.049 43.0128C151.068 43.4325 150.945 43.8463 150.698 44.1865C150.452 44.5268 150.097 44.7735 149.693 44.8863L151.494 47.5046L150.187 47.7492ZM148.575 42.04H147.869V44.158H148.52C149.309 44.158 149.804 43.78 149.804 43.0851C149.804 42.3902 149.376 42.04 148.575 42.04Z" fill="#BE3526"/>
<path d="M155.263 47.8104C153.145 47.8104 151.989 46.415 151.989 44.3581C151.989 42.3013 153.212 40.8892 155.241 40.8892C155.956 40.8812 156.659 41.0738 157.27 41.4452L157.086 42.6348C156.559 42.233 155.915 42.0126 155.252 42.0066C153.945 42.0066 153.289 42.9517 153.289 44.3748C153.289 45.798 153.984 46.7486 155.307 46.7486C155.695 46.7564 156.079 46.6624 156.419 46.4762V44.9752H155.096L154.924 43.969H157.598V47.1488C156.898 47.5868 156.088 47.8163 155.263 47.8104Z" fill="#BE3526"/>
<path d="M158.904 47.6825V41.0116H162.795V42.1234H160.188V43.7077H162.195L162.367 44.7751H160.188V46.6207H162.879V47.7325L158.904 47.6825Z" fill="#BE3526"/>
<path d="M167.493 47.7492L165.736 45.1309H165.18V47.6825H163.907V41.0116H165.975C167.465 41.0116 168.36 41.7176 168.36 43.0128C168.38 43.4318 168.257 43.845 168.011 44.1852C167.766 44.5253 167.413 44.7724 167.009 44.8863L168.805 47.5046L167.493 47.7492ZM165.881 42.04H165.175V44.158H165.82C166.615 44.158 167.104 43.78 167.104 43.0851C167.104 42.3902 166.681 42.04 165.881 42.04Z" fill="#BE3526"/>
<path d="M172.402 45.1309V47.6825H171.123V45.142L168.788 41.1894L170.122 40.9782L171.79 43.9912L173.43 41.0449H174.792L172.402 45.1309Z" fill="#BE3526"/>
<path d="M177.388 45.1364C177.118 45.1472 176.848 45.1009 176.597 45.0006C176.345 44.9002 176.118 44.7481 175.929 44.5541C175.74 44.3601 175.594 44.1286 175.501 43.8745C175.408 43.6205 175.369 43.3496 175.387 43.0795C175.397 42.6847 175.523 42.3015 175.75 41.978C175.976 41.6545 176.293 41.4051 176.661 41.261C177.029 41.1169 177.431 41.0846 177.817 41.168C178.203 41.2515 178.556 41.447 178.831 41.7301C179.107 42.0132 179.293 42.3713 179.366 42.7595C179.438 43.1477 179.395 43.5488 179.241 43.9125C179.087 44.2762 178.829 44.5864 178.499 44.8041C178.17 45.0218 177.783 45.1374 177.388 45.1364ZM177.388 41.245C177.024 41.2239 176.661 41.3126 176.348 41.4997C176.035 41.6867 175.785 41.9636 175.63 42.2943C175.476 42.6251 175.424 42.9946 175.482 43.355C175.54 43.7153 175.705 44.05 175.955 44.3157C176.206 44.5814 176.53 44.7658 176.886 44.8452C177.242 44.9245 177.614 44.8951 177.954 44.7607C178.293 44.6264 178.584 44.3933 178.79 44.0916C178.995 43.7899 179.105 43.4334 179.106 43.0684C179.126 42.8343 179.097 42.5984 179.02 42.3764C178.943 42.1543 178.82 41.951 178.659 41.7799C178.497 41.6088 178.302 41.4737 178.085 41.3834C177.868 41.2931 177.634 41.2498 177.399 41.2562L177.388 41.245ZM177.894 44.158L177.288 43.263H177.121V44.1302H176.615V41.8677H177.394C177.916 41.8677 178.239 42.1123 178.239 42.557C178.245 42.6948 178.207 42.831 178.128 42.9445C178.05 43.058 177.936 43.1426 177.805 43.1852L178.444 44.0802L177.894 44.158ZM177.338 42.2624H177.099V42.9072H177.333C177.572 42.9072 177.711 42.8016 177.711 42.5848C177.711 42.368 177.611 42.3013 177.371 42.3013L177.338 42.2624Z" fill="#BE3526"/>
</svg>
