<svg width="126" height="95" viewBox="0 0 126 95" fill="none" xmlns="http://www.w3.org/2000/svg">
<path d="M13.5221 78.5781C14.3405 78.5781 15.0156 78.8645 15.5884 79.4374C16.1612 80.0102 16.4476 80.7058 16.4476 81.5036V91.6508H6.0754C5.25708 91.6508 4.58197 91.3644 4.00914 90.7916C3.43631 90.2188 3.1499 89.5232 3.1499 88.7253V83.8972H14.0131V81.5036C14.0131 81.3604 13.9722 81.2581 13.8699 81.1558C13.7676 81.0536 13.6653 81.0126 13.5221 81.0126H3.1499V78.5781H13.5221ZM14.0131 89.2163V86.3317H5.58441V88.7253C5.58441 88.8685 5.62533 88.9708 5.72762 89.0731C5.82991 89.1754 5.9322 89.2163 6.0754 89.2163H14.0131ZM37.4785 78.5781H40.0767L35.1667 91.6508H33.1823L28.7838 81.9332L24.6308 91.6508L24.5899 91.6304L24.6104 91.6508H22.6464L17.5114 78.5781H20.0892L23.6284 87.2523L27.3927 78.5781H30.175L34.1643 87.2523L37.4785 78.5781ZM51.2263 78.5781C52.0446 78.5781 52.7197 78.8645 53.2926 79.4374C53.8654 80.0102 54.1518 80.7058 54.1518 81.5036V86.3317H43.2886V88.7253C43.2886 88.8685 43.3295 88.9708 43.4318 89.0731C43.5341 89.1754 43.6364 89.2163 43.7796 89.2163H54.1518V91.6508H43.7796C42.9613 91.6508 42.2861 91.3644 41.7133 90.7916C41.1405 90.2188 40.8541 89.5232 40.8541 88.7253V81.5036C40.8541 80.6853 41.1405 80.0102 41.7133 79.4374C42.2861 78.8645 42.9817 78.5781 43.7796 78.5781H51.2263ZM43.2886 83.8972H51.7173V81.5036C51.7173 81.3604 51.6764 81.2581 51.5741 81.1558C51.4718 81.0536 51.3695 81.0126 51.2263 81.0126H43.7796C43.6364 81.0126 43.5341 81.0536 43.4318 81.1558C43.3295 81.2581 43.2886 81.3604 43.2886 81.5036V83.8972ZM69.6795 81.5241V82.0151H67.2449V81.5241C67.2449 81.3809 67.204 81.2786 67.1017 81.1763C66.9995 81.074 66.8972 81.0331 66.754 81.0331H59.3072C59.164 81.0331 59.0617 81.074 58.9594 81.1763C58.8571 81.2786 58.8162 81.3809 58.8162 81.5241V83.4267C58.8162 83.5699 58.8571 83.6722 58.9594 83.7745C59.0617 83.8768 59.164 83.9177 59.3072 83.9177H66.754C67.5723 83.9177 68.2474 84.2041 68.8202 84.7769C69.393 85.3497 69.6795 86.0453 69.6795 86.8432V88.7458C69.6795 89.5641 69.393 90.2392 68.8202 90.812C68.2474 91.3849 67.5518 91.6713 66.754 91.6713H59.3072C58.4889 91.6713 57.8138 91.3849 57.241 90.812C56.6681 90.2392 56.3817 89.5436 56.3817 88.7458V88.2548H58.8162V88.7458C58.8162 88.889 58.8571 88.9913 58.9594 89.0936C59.0617 89.1958 59.164 89.2368 59.3072 89.2368H66.754C66.8972 89.2368 66.9995 89.1958 67.1017 89.0936C67.204 88.9913 67.2449 88.889 67.2449 88.7458V86.8432C67.2449 86.7 67.204 86.5977 67.1017 86.4954C66.9995 86.3931 66.8972 86.3522 66.754 86.3522H59.3072C58.4889 86.3522 57.8138 86.0658 57.241 85.4929C56.6681 84.9201 56.3817 84.2245 56.3817 83.4267V81.5241C56.3817 80.7058 56.6681 80.0306 57.241 79.4578C57.8138 78.885 58.5094 78.5986 59.3072 78.5986H66.754C67.5723 78.5986 68.2474 78.885 68.8202 79.4578C69.393 80.0102 69.6795 80.7058 69.6795 81.5241ZM74.8349 78.5781H82.2816C83.0999 78.5781 83.775 78.8645 84.3479 79.4374C84.9207 80.0102 85.2071 80.7058 85.2071 81.5036V88.7253C85.2071 89.5436 84.9207 90.2188 84.3479 90.7916C83.775 91.3644 83.0795 91.6508 82.2816 91.6508H74.8349C74.0166 91.6508 73.3414 91.3644 72.7686 90.7916C72.1958 90.2188 71.9094 89.5232 71.9094 88.7253V81.5036C71.9094 80.6853 72.1958 80.0102 72.7686 79.4374C73.3414 78.8645 74.037 78.5781 74.8349 78.5781ZM82.2816 81.0126H74.8349C74.6917 81.0126 74.5894 81.0536 74.4871 81.1558C74.3848 81.2581 74.3439 81.3604 74.3439 81.5036V88.7253C74.3439 88.8685 74.3848 88.9708 74.4871 89.0731C74.5894 89.1754 74.6917 89.2163 74.8349 89.2163H82.2816C82.4248 89.2163 82.5271 89.1754 82.6294 89.0731C82.7317 88.9708 82.7726 88.8685 82.7726 88.7253V81.5036C82.7726 81.3604 82.7317 81.2581 82.6294 81.1558C82.5271 81.074 82.4248 81.0126 82.2816 81.0126ZM104.274 78.5781C105.092 78.5781 105.767 78.8645 106.34 79.4374C106.913 80.0102 107.199 80.7058 107.199 81.5036V91.6508H104.785V81.5036C104.785 81.3604 104.745 81.2581 104.642 81.1558C104.54 81.0536 104.417 81.0126 104.274 81.0126H99.1186C98.9754 81.0126 98.8731 81.0536 98.7708 81.1558C98.6685 81.2581 98.6276 81.3604 98.6276 81.5036V91.6508H96.1931V81.5036C96.1931 81.3604 96.1522 81.2581 96.0499 81.1558C95.9476 81.0536 95.8453 81.0126 95.7021 81.0126H90.5262C90.383 81.0126 90.2807 81.0536 90.1784 81.1558C90.0761 81.2581 90.0352 81.3604 90.0352 81.5036V91.6508H87.6007V78.5781H104.274ZM119.924 78.5781C120.743 78.5781 121.418 78.8645 121.991 79.4374C122.563 80.0102 122.85 80.7058 122.85 81.5036V86.3317H111.987V88.7253C111.987 88.8685 112.028 88.9708 112.13 89.0731C112.232 89.1754 112.334 89.2163 112.478 89.2163H122.85V91.6508H112.478C111.659 91.6508 110.984 91.3644 110.411 90.7916C109.839 90.2188 109.552 89.5232 109.552 88.7253V81.5036C109.552 80.6853 109.839 80.0102 110.411 79.4374C110.984 78.8645 111.68 78.5781 112.478 78.5781H119.924ZM111.987 83.8972H120.415V81.5036C120.415 81.3604 120.374 81.2581 120.272 81.1558C120.17 81.0536 120.068 81.0126 119.924 81.0126H112.478C112.334 81.0126 112.232 81.0536 112.13 81.1558C112.028 81.2581 111.987 81.3604 111.987 81.5036V83.8972Z" fill="#494368"/>
<path d="M122.85 31.0056L92.1576 2.85054L87.8402 7.55669L113.417 31.0056H12.6031L38.1801 7.53623L33.8627 2.83008L3.17036 31.0056H3.1499V49.5642C3.1499 57.9535 11.2322 64.7876 21.1561 64.7876H40.083C50.0068 64.7876 58.0891 57.9535 58.0891 49.5642V37.3692H67.9107V49.5642C67.9107 57.9535 75.993 64.7876 85.9168 64.7876H104.844C114.768 64.7876 122.85 57.9535 122.85 49.5642V31.0056Z" fill="#FC60A8"/>
</svg>
