<svg width="199" height="60" viewBox="0 0 199 60" fill="none" xmlns="http://www.w3.org/2000/svg">
<path d="M78.0236 25.2038C77.6881 25.2097 77.3537 25.1643 77.0318 25.0692C76.7755 24.9926 76.5372 24.8651 76.3312 24.6944C76.1486 24.54 76.0052 24.3446 75.9125 24.1241C75.8175 23.8939 75.7667 23.6478 75.7631 23.3987C75.3756 23.3491 75.0029 23.2188 74.6686 23.0176C74.3312 22.8115 74.0381 22.5403 73.8064 22.2199C73.5542 21.8666 73.3638 21.473 73.2432 21.056C73.1037 20.5765 73.0357 20.079 73.0413 19.5796C73.034 19.0308 73.1188 18.4846 73.2921 17.9637C73.441 17.5171 73.6732 17.1026 73.9764 16.7424C74.2573 16.4153 74.6068 16.154 75.0001 15.9773C75.3979 15.7988 75.8294 15.708 76.2653 15.711C76.6996 15.7081 77.1296 15.7988 77.5249 15.9773C77.9159 16.1551 78.2634 16.4163 78.5429 16.7424C78.8462 17.1018 79.077 17.5165 79.2223 17.9637C79.5375 18.9768 79.5496 20.0607 79.2556 21.0808C79.1306 21.5012 78.9335 21.8967 78.6732 22.2497C78.433 22.5709 78.1298 22.8396 77.7821 23.0396C77.4367 23.2375 77.0542 23.3622 76.6585 23.4058C76.6733 23.5898 76.7295 23.768 76.8229 23.9272C76.9065 24.0582 77.0223 24.1656 77.1594 24.2389C77.3138 24.3205 77.4819 24.3734 77.6553 24.3948C77.8664 24.4231 78.0803 24.4351 78.2928 24.4337H78.8043V25.2016L78.0236 25.2038ZM76.2632 22.6655C76.5832 22.6683 76.8996 22.5972 77.1877 22.4579C77.4751 22.3159 77.7255 22.1087 77.9188 21.853C78.1363 21.5604 78.2992 21.231 78.3984 20.8803C78.6278 20.0303 78.6278 19.1347 78.3984 18.2847C78.2998 17.9369 78.1371 17.6107 77.9188 17.3226C77.7244 17.069 77.4736 16.8641 77.1862 16.7244C76.8988 16.5847 76.5827 16.514 76.2632 16.5179C75.9374 16.5142 75.6151 16.5852 75.321 16.7254C75.0309 16.865 74.7766 17.0693 74.5779 17.3226C74.3562 17.6088 74.1925 17.9361 74.0962 18.2847C73.8694 19.135 73.8694 20.0299 74.0962 20.8803C74.1939 21.2324 74.3583 21.5625 74.5779 21.853C74.775 22.1098 75.0295 22.317 75.321 22.4579C75.6151 22.5974 75.9377 22.6684 76.2632 22.6655ZM82.2295 23.4079C82.0164 23.4229 81.8026 23.3941 81.6011 23.3233C81.3996 23.2525 81.2147 23.1412 81.0578 22.9963C80.9162 22.8384 80.8075 22.6538 80.7382 22.4533C80.6688 22.2528 80.6402 22.0405 80.654 21.8289V17.9907H81.5253V21.6461C81.5014 21.9281 81.5837 22.2088 81.7563 22.4331C81.9575 22.6173 82.2267 22.7165 82.4987 22.6839C82.8109 22.6869 83.1184 22.6072 83.3899 22.453C83.6905 22.2775 83.9698 22.0678 84.2223 21.8282V17.99H85.1007V23.308H84.2131V22.5104C84.0948 22.6308 83.9687 22.7427 83.8341 22.8447C83.535 23.0734 83.1929 23.2392 82.8281 23.3321C82.6298 23.3831 82.4264 23.4086 82.2224 23.4079H82.2295ZM87.8012 23.3888C87.4054 23.4104 87.0152 23.287 86.7039 23.0417C86.5663 22.9174 86.4586 22.7636 86.3886 22.5919C86.3187 22.4202 86.2885 22.2349 86.3001 22.0499C86.2978 21.7893 86.3624 21.5324 86.4878 21.3039C86.6368 21.0505 86.8439 20.8361 87.0921 20.6784C87.4325 20.4614 87.8022 20.2944 88.1901 20.1825C88.7356 20.0217 89.2953 19.9027 89.8592 19.8283V19.5874C89.8946 19.3126 89.7989 19.0363 89.6006 18.8436C89.5025 18.7482 89.3837 18.6768 89.2534 18.635C89.1231 18.5932 88.9849 18.5821 88.8497 18.6027C88.4805 18.5948 88.1147 18.6742 87.7821 18.8344C87.4745 18.9872 87.187 19.1775 86.9263 19.4011L86.4729 18.8599C86.79 18.57 87.1502 18.331 87.5405 18.1515C87.9814 17.9547 88.4604 17.8579 88.9432 17.8681C89.218 17.8619 89.4918 17.9026 89.7529 17.9885C89.9605 18.0594 90.1482 18.1777 90.3005 18.3427C90.4471 18.5029 90.5541 18.6948 90.6122 18.9038C90.6821 19.1469 90.716 19.399 90.7128 19.6519V21.9996C90.7107 22.2653 90.722 22.5309 90.7482 22.7944C90.7636 22.9705 90.8034 23.1436 90.8665 23.3088H89.981C89.9442 23.194 89.9158 23.0821 89.8924 22.9715C89.8684 22.8391 89.857 22.7052 89.8592 22.5706C89.3087 23.1058 88.5696 23.4025 87.8019 23.3966L87.8012 23.3888ZM88.052 22.7045C88.3914 22.7085 88.7276 22.6379 89.0367 22.4976C89.3412 22.356 89.6192 22.1631 89.8584 21.9273V20.4397C89.4284 20.5052 89.0026 20.5963 88.5833 20.7124C88.2921 20.7905 88.0115 20.9035 87.7474 21.0489C87.5653 21.1452 87.4094 21.2841 87.2919 21.4527C87.2026 21.592 87.1557 21.7541 87.1565 21.9195C87.1494 22.0288 87.167 22.1383 87.208 22.2398C87.249 22.3413 87.3122 22.4324 87.3932 22.5061C87.5821 22.6487 87.8157 22.7191 88.052 22.7045ZM92.26 23.3088V15.847H93.1257V23.3066L92.26 23.3088ZM96.5856 23.3782C96.17 23.4232 95.7533 23.304 95.4245 23.0459C95.1857 22.76 95.0691 22.3914 95.1 22.0201V18.7047H94.1741V17.9921H95.0951V16.0971H95.9664V17.9921H97.3443V18.7047H95.9728V21.8303C95.9564 22.0547 96.0163 22.2782 96.1428 22.4643C96.3199 22.6294 96.5594 22.7073 96.7988 22.6768C96.8936 22.6766 96.9883 22.6697 97.0822 22.6563C97.1682 22.646 97.2535 22.6297 97.3372 22.6074V23.3208C97.2664 23.3335 97.1551 23.347 97.0042 23.3598L96.5849 23.3796L96.5856 23.3782ZM98.5196 23.3102V17.9914H99.3867V18.9747H99.4065C99.6067 18.6598 99.8746 18.3936 100.191 18.1954C100.576 17.9685 101.019 17.858 101.466 17.8773H101.574L101.515 18.6849C101.473 18.6757 101.43 18.6729 101.388 18.6757H101.265C100.872 18.6675 100.486 18.7762 100.156 18.9881C99.8263 19.2109 99.562 19.5176 99.3902 19.8765V23.3123L98.5196 23.3102ZM102.589 16.8494V15.9993H103.495V16.8494H102.589ZM102.609 23.3102V17.9914H103.475V23.3102H102.609ZM107.132 23.4221C106.826 23.4228 106.523 23.3626 106.241 23.245C105.954 23.1267 105.697 22.9475 105.486 22.7208C105.255 22.47 105.077 22.1757 104.962 21.8551C104.824 21.4674 104.757 21.0579 104.765 20.6465C104.755 20.2209 104.827 19.7974 104.977 19.399C105.102 19.0755 105.293 18.782 105.539 18.5376C105.764 18.3194 106.032 18.1508 106.318 18.0417C106.599 17.9354 106.897 17.8802 107.198 17.8787C107.465 17.8731 107.73 17.9142 107.983 17.9992C108.195 18.0741 108.393 18.1848 108.568 18.3265C108.736 18.4614 108.88 18.6235 108.993 18.8061C109.106 18.987 109.204 19.1765 109.286 19.3728L108.549 19.6774C108.443 19.3753 108.263 19.1047 108.025 18.8904C107.786 18.702 107.486 18.6062 107.182 18.6204C106.988 18.6195 106.796 18.6555 106.615 18.7267C106.425 18.8021 106.255 18.921 106.119 19.0738C105.959 19.2569 105.839 19.471 105.765 19.7029C105.67 20.0104 105.625 20.3312 105.633 20.6529C105.598 21.1925 105.748 21.728 106.058 22.171C106.187 22.34 106.354 22.476 106.545 22.568C106.737 22.66 106.948 22.7053 107.16 22.7002C107.459 22.713 107.753 22.6282 107.999 22.4587C108.261 22.2376 108.464 21.9528 108.587 21.6319L109.306 21.9118C109.208 22.1274 109.09 22.3329 108.952 22.5252C108.822 22.7058 108.666 22.8664 108.489 23.002C108.31 23.1381 108.11 23.2439 107.896 23.3151C107.647 23.3926 107.386 23.429 107.125 23.4228L107.132 23.4221ZM112.176 23.4079C111.733 23.416 111.293 23.3285 110.886 23.1515C110.545 23.0074 110.241 22.7851 110.001 22.5026L110.522 21.9798C110.727 22.1953 110.969 22.3736 111.236 22.5068C111.531 22.6499 111.857 22.7208 112.185 22.7137C112.516 22.7335 112.845 22.6598 113.136 22.5012C113.351 22.3595 113.476 22.1278 113.464 21.8756C113.469 21.754 113.44 21.6333 113.38 21.5277C113.319 21.4221 113.229 21.3361 113.121 21.2798C112.796 21.1187 112.452 21.0015 112.096 20.9313C111.812 20.8624 111.553 20.7875 111.316 20.7067C111.103 20.6377 110.901 20.5375 110.716 20.4092C110.556 20.2944 110.424 20.1443 110.33 19.97C110.23 19.7704 110.182 19.5491 110.189 19.326C110.187 19.1298 110.231 18.9364 110.314 18.7593C110.4 18.5805 110.525 18.4234 110.68 18.2995C110.856 18.16 111.057 18.0541 111.271 17.9871C111.523 17.9069 111.786 17.8676 112.05 17.8709C112.455 17.8596 112.858 17.9299 113.235 18.0778C113.55 18.2119 113.838 18.402 114.085 18.6389L113.632 19.2148C113.428 19.0221 113.194 18.8656 112.937 18.7522C112.671 18.6339 112.383 18.5737 112.091 18.5751C111.797 18.5468 111.502 18.6247 111.259 18.7876C111.184 18.8472 111.123 18.9225 111.081 19.0082C111.038 19.0939 111.015 19.1879 111.013 19.2835C111.001 19.5116 111.123 19.7263 111.325 19.8325C111.625 19.9809 111.943 20.0874 112.272 20.1492L113.097 20.383C113.323 20.4535 113.538 20.5566 113.734 20.689C113.907 20.8053 114.049 20.9622 114.147 21.146C114.25 21.3599 114.298 21.5955 114.289 21.8324C114.295 22.0624 114.243 22.2902 114.137 22.4944C114.031 22.6986 113.874 22.8723 113.683 22.9992C113.47 23.1366 113.247 23.2365 113.006 23.2946C112.734 23.3637 112.454 23.3992 112.174 23.4001L112.176 23.4079ZM73.4841 43.9534V27.9064H79.3215C80.1446 27.9041 80.9664 27.9733 81.7775 28.1132C82.5214 28.2337 83.234 28.4993 83.8744 28.8967C84.486 29.2861 84.9857 29.8278 85.3246 30.4687C85.7156 31.2721 85.9005 32.159 85.8644 33.0516C85.903 33.963 85.7066 34.869 85.2941 35.6827C84.9345 36.3339 84.4103 36.8794 83.7738 37.2646C83.1202 37.6545 82.3994 37.9188 81.6486 38.0438C80.8638 38.1813 80.0686 38.2505 79.2719 38.2507H76.9872V43.9563L73.4841 43.9534ZM76.9893 35.5233H79.4036C80.2254 35.5941 81.0472 35.3816 81.7272 34.9211C82.2075 34.4585 82.4569 33.8068 82.4102 33.1416C82.4298 32.8217 82.3799 32.5013 82.2639 32.2025C82.1478 31.9037 81.9683 31.6337 81.7379 31.4109C81.0573 30.9366 80.2299 30.7206 79.4043 30.8017H76.9901L76.9893 35.5233ZM86.5175 43.9626V32.3928H90.0115V34.3303H90.0327C90.2027 34.0646 90.3869 33.8132 90.6037 33.5794C90.8419 33.3155 91.1123 33.0825 91.4085 32.8858C92.1548 32.3929 93.0341 32.1401 93.9283 32.1611H94.0452L93.9921 35.2626C93.9212 35.2498 93.7795 35.2342 93.567 35.2201L93.0711 35.1988C92.4364 35.1847 91.8101 35.3497 91.2661 35.6756C90.7847 35.9669 90.3572 36.3391 90.0023 36.7758V43.9556L86.5175 43.9626ZM99.7947 44.2035C99.0817 44.201 98.3727 44.0977 97.6886 43.8968C96.9631 43.6933 96.292 43.3307 95.7241 42.8354C95.1563 42.3401 94.7059 41.7245 94.4058 41.0333C94.0271 40.135 93.8466 39.1656 93.8766 38.1912C93.848 37.2132 94.0285 36.2404 94.4058 35.3377C94.7024 34.6456 95.1501 34.0287 95.7162 33.5322C96.2823 33.0357 96.9524 32.6723 97.6772 32.4686C99.0512 32.0671 100.511 32.0671 101.885 32.4686C102.581 32.6669 103.227 33.0096 103.781 33.4745C104.373 33.9851 104.842 34.6217 105.155 35.3377C105.537 36.2393 105.719 37.2126 105.69 38.1912C105.72 39.1661 105.538 40.136 105.155 41.0333C104.839 41.7453 104.376 42.3779 103.781 42.8866C103.226 43.352 102.581 43.6963 101.885 43.8975C101.207 44.0984 100.503 44.2015 99.7947 44.2035ZM99.7947 41.7474C100.158 41.7686 100.519 41.6889 100.84 41.5171C101.16 41.3453 101.427 41.0881 101.61 40.7741C102.035 39.9891 102.238 39.1036 102.198 38.2124C102.2 37.759 102.156 37.3066 102.067 36.8622C101.991 36.4683 101.854 36.0829 101.642 35.745C101.458 35.4386 101.201 35.1824 100.895 34.999C100.56 34.8105 100.179 34.7172 99.7947 34.7291C99.428 34.705 99.0618 34.7821 98.7359 34.952C98.4101 35.1219 98.1372 35.3781 97.9472 35.6926C97.5238 36.4629 97.3206 37.335 97.3599 38.2131C97.358 38.6733 97.4021 39.1325 97.4916 39.5839C97.566 39.9819 97.7099 40.3636 97.9167 40.7117C98.1019 41.0197 98.3578 41.2791 98.6634 41.4683C99.0069 41.6663 99.3992 41.7635 99.7954 41.7488L99.7947 41.7474ZM110.648 44.1298C110.031 44.1369 109.421 44.0165 108.853 43.7756C108.307 43.5377 107.824 43.1736 107.446 42.713C107.022 42.1741 106.713 41.5547 106.536 40.8924C106.305 40.0423 106.196 39.1639 106.212 38.2833C106.198 37.3955 106.307 36.5101 106.536 35.6522C106.719 34.9608 107.032 34.3098 107.457 33.7352C107.829 33.2379 108.315 32.837 108.874 32.5663C109.442 32.3003 110.062 32.1664 110.689 32.1746C111.398 32.1576 112.086 32.3021 112.723 32.5996C113.312 32.8972 113.821 33.3328 114.205 33.8691V27.9184H117.698V41.1516C117.691 41.7225 117.715 42.2934 117.769 42.8618C117.801 43.2426 117.894 43.6159 118.044 43.9676H114.466C114.415 43.8729 114.378 43.7712 114.356 43.6658C114.321 43.5191 114.294 43.3706 114.275 43.2209C114.255 43.0556 114.237 42.8863 114.223 42.713L114.202 42.2313C113.817 42.7641 113.337 43.2206 112.785 43.5773C112.143 43.9697 111.4 44.1653 110.648 44.144V44.1298ZM111.95 41.5087C112.39 41.5122 112.823 41.3911 113.199 41.1601C113.563 40.9391 113.901 40.6763 114.205 40.3766V36.1098C113.888 35.7862 113.523 35.5132 113.124 35.3001C112.744 35.1198 112.327 35.031 111.907 35.0408C110.431 35.0408 109.694 36.1101 109.695 38.2486C109.658 39.0704 109.846 39.8867 110.24 40.609C110.415 40.9014 110.667 41.1401 110.968 41.2988C111.27 41.4575 111.61 41.5301 111.95 41.5087ZM122.771 44.1971C122.314 44.2014 121.859 44.139 121.421 44.0129C121.015 43.8982 120.642 43.6886 120.333 43.4015C120.023 43.1144 119.787 42.758 119.642 42.3616C119.465 41.8714 119.38 41.3528 119.394 40.8314V32.4013H122.877V39.8149C122.848 40.236 122.96 40.6548 123.196 41.005C123.461 41.299 123.85 41.4499 124.244 41.4116C124.705 41.413 125.158 41.2985 125.562 41.0787C125.992 40.8449 126.396 40.5665 126.766 40.2477V32.3942H130.261V43.9556H126.767V42.1562C126.569 42.3985 126.359 42.6294 126.129 42.8504C125.87 43.1058 125.581 43.3278 125.267 43.5114C124.915 43.7194 124.54 43.8858 124.15 44.0073C123.701 44.149 123.234 44.2056 122.766 44.1986L122.771 44.1971ZM137.084 44.1964C136.396 44.1952 135.713 44.0918 135.055 43.8897C134.384 43.686 133.763 43.3413 133.235 42.8788C132.663 42.3664 132.213 41.7334 131.916 41.0256C131.552 40.1236 131.379 39.1558 131.408 38.1834C131.375 37.1895 131.563 36.2007 131.958 35.2881C132.579 33.8996 133.786 32.8596 135.251 32.4509C135.894 32.262 136.56 32.1665 137.23 32.1675C137.916 32.1524 138.599 32.2506 139.253 32.458C139.773 32.6283 140.257 32.8924 140.682 33.2372C141.064 33.5545 141.386 33.9365 141.635 34.3657C141.885 34.7957 142.098 35.246 142.273 35.7117L139.34 36.6858C139.202 36.1036 138.901 35.5728 138.472 35.1556C138.107 34.8706 137.654 34.7227 137.191 34.7376C136.518 34.7199 135.884 35.0493 135.512 35.6111C135.047 36.3986 134.831 37.3089 134.893 38.2216C134.889 38.6995 134.933 39.1766 135.025 39.6456C135.1 40.0366 135.236 40.4135 135.427 40.7627C135.591 41.0635 135.83 41.317 136.12 41.4988C136.432 41.6791 136.788 41.7689 137.147 41.7581C137.618 41.7566 138.068 41.6008 138.449 41.3139C138.932 40.8909 139.273 40.3283 139.423 39.7036L142.313 40.6997C142.117 41.1559 141.888 41.5937 141.605 42.0067C141.32 42.4362 140.968 42.8171 140.563 43.1345C140.119 43.4761 139.621 43.7409 139.09 43.918C138.442 44.127 137.764 44.2262 137.083 44.2113L137.084 44.1964Z" fill="black"/>
<path d="M148.063 44.1022C147.367 44.1213 146.673 44.0441 145.998 43.8741C145.549 43.7643 145.138 43.5362 144.806 43.2131C144.523 42.9156 144.344 42.5472 144.268 42.1505C144.173 41.6731 144.129 41.1871 144.135 40.7004V34.931H142.208V32.3907H144.135V28.4235H147.606V32.3907H150.57V34.9317H147.609V39.9403C147.561 40.3919 147.676 40.846 147.932 41.2211C148.294 41.5002 148.752 41.6254 149.207 41.5696C149.421 41.5693 149.635 41.5587 149.848 41.5377C150.023 41.5271 150.202 41.4917 150.361 41.4315V43.9294C150.238 43.9512 150.114 43.9689 149.99 43.9825L149.392 44.0356L148.698 44.0781C148.458 44.0947 148.247 44.1032 148.063 44.1036L148.063 44.1022ZM150.964 43.9605L156.098 35.4808L151.418 27.9135H155.442L158.311 32.7307L161.022 27.9135H164.663L160.089 35.5034L165.288 43.9619H161.37L157.97 38.3513L154.677 43.9619L150.964 43.9605ZM166.769 43.9605V27.9064H171.428L175.005 39.71H175.048L178.383 27.9064H183.158V43.9556H179.749V33.007H179.706C179.607 33.6346 179.472 34.2573 179.31 34.8715C179.157 35.4222 178.993 35.9937 178.818 36.5859L176.414 43.9534H173.297L170.917 36.5859L170.669 35.75L170.441 34.9452L170.224 34.0243L169.985 32.82H169.943V43.9464L166.769 43.9605ZM186.008 30.8286V28.2301H185.081V27.9113H187.283V28.2301H186.353V30.8286H186.008ZM187.769 30.8286V27.9064H188.222L189.143 30.3858H189.15L190.052 27.9064H190.514V30.8236H190.172V28.4618H190.163L190.084 28.7154L189.985 28.9988L189.288 30.8229H188.977L188.28 28.9988C188.26 28.9515 188.244 28.9043 188.231 28.8571L188.188 28.731L188.146 28.5992L188.099 28.4434H188.092V30.8166L187.769 30.8286Z" fill="black"/>
<path d="M20.1466 4.97501H31.8072V43.0666C31.7987 49.5026 26.5819 54.7179 20.1466 54.725H8.48608V16.6355C8.49317 10.1989 13.71 4.98209 20.1466 4.97501ZM46.5777 4.97501H34.9171V42.2895H46.5777C49.6691 42.2857 52.6328 41.056 54.8188 38.87C57.0047 36.6841 58.2345 33.7203 58.2382 30.6289V16.6355C58.2345 13.5438 57.0044 10.5797 54.818 8.39369C52.6316 6.20767 49.6673 4.97819 46.5755 4.97501L46.5777 4.97501Z" fill="#00B4EF"/>
</svg>
