<svg width="274" height="44" viewBox="0 0 274 44" fill="none" xmlns="http://www.w3.org/2000/svg">
<path d="M244.012 8.10056V21.4517H247.518C252.553 21.4517 254.89 18.7545 254.89 14.7537C254.89 11.517 253.317 8.10056 246.664 8.10056H244.012ZM257.947 38.7588C254.303 33.9652 250.868 29.0157 247.653 23.9242H244.057V36.2414L249.496 36.7808V38.9386C246.979 38.8487 245.225 38.7588 243.068 38.7588H239.202C237.044 38.7588 234.931 38.8487 232.459 38.9386V36.7808L238.258 36.2414V8.05562L232.414 7.60607V5.3584C235.56 5.49326 237.808 5.58317 239.606 5.58317H247.698C254.8 5.58317 260.959 8.05562 260.959 14.484C260.959 18.9793 257.632 21.5416 253.452 22.8003C256.453 27.6598 259.932 32.2076 263.836 36.3763L267.387 36.7359V38.9386L257.947 38.7588ZM177.84 8.10056L172.176 7.60607V5.40337L178.784 5.58317H182.65L189.483 5.40337V7.56113L183.639 8.10056V36.2864L189.483 36.7359V38.9386C186.966 38.8487 184.808 38.7588 182.65 38.7588H178.784C176.671 38.7588 174.514 38.8487 172.041 38.9386V36.7359L177.84 36.2864V8.10056ZM164.309 8.10056L153.475 39.1184H149.115L138.326 8.10056L134.235 7.60607V5.40337L141.563 5.58317L149.879 5.40337V7.56113L144.53 8.10056L152.756 32.8249L160.848 8.10056L155.543 7.60607V5.40337L162.376 5.58317L168.13 5.40337V7.56113L164.309 8.10056ZM12.5016 36.2414V8.05562L6.65762 7.60607V5.3584C9.80436 5.49326 12.052 5.58317 13.4456 5.58317H30.0334L30.4829 3.69513H32.8205V13.1803H30.4829L29.5839 8.05562H18.2556V20.8224H26.6169L27.2463 17.0463H29.449V26.981H27.2463L26.6169 23.2499H18.2556V33.3194C18.2556 35.5671 18.3905 35.8368 18.5253 35.9717C18.6602 36.1065 19.1097 36.2414 22.7959 36.2414H26.1224C28.8197 36.2414 30.1233 36.0616 30.7077 35.4772C31.337 34.8478 32.0563 33.1396 32.9554 29.4085H35.203L34.304 38.7588H15.5584C12.4117 38.7588 9.04015 38.8487 6.61267 38.9386V36.7359L12.4566 36.2864L12.5016 36.2414ZM95.9351 30.3075C95.9351 36.0166 91.2599 39.3881 85.1463 39.3881C81.9995 39.3881 78.9876 38.3992 76.8748 37.0506L76.2904 39.6579H74.0428V28.5094H76.2904C76.5152 30.0378 76.8748 32.0158 77.1895 33.4093C79.1225 35.4322 82.2243 36.8708 84.9215 36.8708C88.5178 36.8708 90.5407 34.8029 90.5407 31.5662C90.5407 24.0141 74.762 23.9242 74.762 13.5849C74.762 8.10057 79.2574 4.95382 85.0114 4.95382C87.2591 4.95382 89.5067 5.40337 91.215 6.12262L91.8893 3.60522H94.092V13.3601H91.8443C91.628 11.9055 91.3278 10.4646 90.9453 9.04458C89.3832 8.018 87.5549 7.47107 85.6857 7.47122C82.4491 7.47122 80.0665 8.95468 80.0665 12.2812C80.0665 19.6536 95.9351 19.6985 95.9351 30.2626V30.3075ZM47.9249 36.2414V8.05562L42.0809 7.60607V5.3584C45.2276 5.49326 47.4753 5.58317 48.9138 5.58317H52.7349L59.5678 5.40337V7.56113L53.7238 8.05562V33.5892C53.7238 35.1625 53.7238 35.7469 54.0385 36.0166C54.1734 36.1964 55.9266 36.2414 57.9944 36.2414H59.7026C62.7595 36.2414 63.7484 35.9267 64.198 35.4772C64.8273 34.8029 65.6814 33.0497 66.6704 28.1498H68.9181L68.2438 38.7588H50.712C47.3405 38.7588 44.5983 38.8487 42.0809 38.9386V36.7808L47.9249 36.2414ZM108.792 36.2414V8.05562L102.948 7.60607V5.3584C106.095 5.49326 108.342 5.58317 110.14 5.58317H126.324L126.773 3.69513H129.111V13.1803H126.818L125.919 8.05562H114.591V20.8224H122.907L123.581 17.0463H125.739V26.981H123.581L122.907 23.2948H114.591V33.3194C114.591 35.5671 114.681 35.8368 114.816 35.9717C114.995 36.1065 115.4 36.2414 119.086 36.2414H123.087C125.784 36.2414 127.088 36.0616 127.627 35.4772C128.302 34.8478 129.021 33.1396 129.875 29.4085H132.168L131.224 38.7588H111.894C108.792 38.7588 105.42 38.8487 102.993 38.9386V36.7359L108.792 36.2864V36.2414ZM202.789 36.2414V8.05562L196.945 7.60607V5.3584C200.092 5.49326 202.34 5.58317 204.138 5.58317H220.321L220.816 3.69513H223.108V13.1803H220.861L219.962 8.05562H208.588V20.8224H216.95L217.579 17.0463H219.782V26.981H217.579L216.95 23.2948H208.588V33.3194C208.588 35.5671 208.723 35.8368 208.858 35.9717C208.993 36.1065 209.442 36.2414 213.129 36.2414H216.545C219.242 36.2414 220.456 36.0616 221.04 35.4772C221.67 34.8478 222.389 33.1396 223.288 29.4085H225.536L224.637 38.7588H205.936C202.789 38.7588 199.418 38.8487 196.945 38.9386V36.7359L202.789 36.2864V36.2414Z" fill="#FF6C00"/>
</svg>
