<svg width="213" height="56" viewBox="0 0 213 56" fill="none" xmlns="http://www.w3.org/2000/svg">
<path d="M61.4736 33.27C60.3461 33.27 59.8199 33.4955 58.3917 34.4727L52.8292 38.156C51.9271 38.7574 51.3258 39.8098 51.3258 40.8621C51.2506 42.8917 51.3258 44.9213 51.4761 45.4475C51.5513 45.9737 51.7768 46.9509 53.3553 46.9509H61.9247C62.6012 46.8757 64.1797 46.8005 65.2321 45.5978C66.5852 44.0944 66.8858 43.4931 67.2617 42.2904C67.4872 41.5387 67.5624 39.8849 66.961 38.6822C66.059 36.5775 63.2777 33.27 61.4736 33.27ZM59.5192 18.0858C64.3301 15.3797 63.1274 11.9971 61.7743 10.2682C60.7971 8.99032 59.2186 8.16346 57.5648 8.16346C56.0614 8.08829 54.2574 8.68964 52.3781 10.4937C48.9204 13.9515 50.1982 23.2725 50.1982 23.2725L59.5192 18.0858ZM37.0436 23.3477C37.0436 23.3477 39.7497 16.1314 33.7361 10.5689C29.7522 6.73524 25.693 9.06549 24.4903 10.4937C23.1372 11.9971 21.4084 16.2066 26.0689 18.4617C29.677 20.1154 33.2851 21.7691 37.0436 23.3477ZM20.9573 4.63049H66.4348C67.412 4.63049 76.0565 5.30702 77.6351 14.4025C78.9881 21.5436 71.0953 25.3021 71.0953 25.3021C71.0953 25.3021 82.0701 27.482 80.1156 39.1332C78.2364 49.8073 68.3892 50.9348 66.1341 50.9348H22.8366C20.9573 50.9348 14.2673 49.8073 10.6591 44.0193C6.97583 38.156 6.97583 31.9922 6.97583 31.9922H19.6795C19.6795 31.9922 20.356 47.026 28.5494 48.1536C35.6154 49.1308 37.2691 43.1924 36.0664 40.4111C33.4355 34.5479 26.2192 32.8942 23.9641 31.9922C21.7842 31.0901 13.4404 28.7599 9.7571 22.7463C6.14897 16.5073 10.6591 9.89235 11.5612 8.91515C12.0873 8.31379 15.019 4.63049 20.9573 4.63049Z" fill="#1594A1"/>
<path d="M93.1951 24.1749L94.3978 22.7467C95.4501 23.6487 96.5777 24.2501 98.0059 24.2501C99.2086 24.2501 100.035 23.6487 100.035 22.8219C100.035 21.995 99.5844 21.544 97.4797 21.093C95.0743 20.4916 93.7212 19.8151 93.7212 17.7103C93.7212 15.7559 95.375 14.4029 97.5549 14.4029C99.2086 14.4029 100.486 14.9291 101.689 15.8311L100.637 17.3345C99.5844 16.5828 98.6072 16.1318 97.5549 16.1318C96.3522 16.1318 95.6756 16.7331 95.6756 17.4848C95.6756 18.3869 96.2018 18.7627 98.3817 19.2889C100.787 19.8903 101.99 20.7171 101.99 22.5964C101.99 24.7011 100.336 25.979 97.9307 25.979C96.2018 25.979 94.5481 25.3776 93.1951 24.1749Z" fill="#1594A1"/>
<path d="M104.32 14.4781H108.755C111.386 14.4781 113.04 15.9814 113.04 18.2365C113.04 20.7923 111.01 22.0702 108.53 22.0702H106.275V25.6783H104.32V14.4781ZM108.605 20.3413C110.108 20.3413 111.085 19.5144 111.085 18.3117C111.085 16.9586 110.108 16.2821 108.605 16.2821H106.275V20.3413H108.605Z" fill="#1594A1"/>
<path d="M115.22 14.4781H117.174V25.8286H115.22V14.4781Z" fill="#1594A1"/>
<path d="M120.256 14.4781H122.135L128.224 22.2957V14.4781H130.178V25.8286H128.525L122.286 17.7855V25.8286H120.331V14.4781H120.256Z" fill="#1594A1"/>
<path d="M137.094 14.4029H138.973L143.934 25.8286H141.83L140.702 23.1225H135.365L134.162 25.8286H132.133L137.094 14.4029ZM139.95 21.3185L137.996 16.8083L136.042 21.3185H139.95Z" fill="#1594A1"/>
<path d="M155.811 14.4781C157.089 14.4781 158.141 14.8539 158.743 15.4553C159.269 15.9814 159.494 16.5828 159.494 17.3345C159.494 18.6875 158.743 19.4392 157.841 19.8903C159.194 20.3413 160.096 21.093 160.096 22.6715C160.096 24.7011 158.442 25.7535 155.886 25.7535H150.624V14.4781H155.811ZM157.54 17.7103C157.54 16.8083 156.864 16.2821 155.586 16.2821H152.654V19.2889H155.36C156.638 19.2137 157.54 18.7627 157.54 17.7103ZM155.811 20.9426H152.654V24.0246H155.961C157.315 24.0246 158.141 23.4984 158.141 22.446C158.141 21.4688 157.39 20.9426 155.811 20.9426Z" fill="#1594A1"/>
<path d="M162.501 14.4781H164.456V25.8286H162.501V14.4781Z" fill="#1594A1"/>
<path d="M167.538 14.4781H175.957V16.2821H169.492V19.3641H175.205V21.1681H169.492V25.7535H167.538V14.4781Z" fill="#1594A1"/>
<path d="M178.287 14.4781H180.241V25.8286H178.287V14.4781Z" fill="#1594A1"/>
<path d="M183.323 14.4781H187.533C191.066 14.4781 193.546 16.9587 193.546 20.1158C193.546 23.2729 191.066 25.7535 187.533 25.7535H183.323V14.4781ZM185.278 16.2821V24.0246H187.533C189.938 24.0246 191.441 22.446 191.441 20.1909C191.441 17.9359 189.863 16.3573 187.533 16.3573H185.278V16.2821Z" fill="#1594A1"/>
<path d="M199.184 14.4029H201.063L206.024 25.8286H203.92L202.792 23.1225H197.455L196.252 25.8286H194.223L199.184 14.4029ZM202.04 21.3185L200.086 16.8083L198.132 21.3185H202.04Z" fill="#1594A1"/>
<path d="M97.8559 30.9402H99.6599L104.546 42.0653H102.516L101.389 39.4343H96.2021L95.0746 42.0653H93.1202L97.8559 30.9402ZM100.562 37.6303L98.6827 33.1953L96.8035 37.6303H100.562Z" fill="#1594A1"/>
<path d="M105.448 40.4116L106.651 39.0585C107.703 39.9605 108.755 40.4867 110.108 40.4867C111.311 40.4867 112.063 39.8854 112.063 39.1337C112.063 38.382 111.612 37.931 109.582 37.4799C107.252 36.8786 105.899 36.2021 105.899 34.1725C105.899 32.2933 107.478 30.9402 109.657 30.9402C111.236 30.9402 112.514 31.4664 113.641 32.2933L112.589 33.7966C111.612 33.045 110.635 32.6691 109.582 32.6691C108.455 32.6691 107.778 33.2705 107.778 33.947C107.778 34.7738 108.304 35.1497 110.409 35.6759C112.739 36.2772 113.942 37.1041 113.942 38.9082C113.942 40.9377 112.288 42.2156 110.033 42.2156C108.38 42.2156 106.801 41.6143 105.448 40.4116Z" fill="#1594A1"/>
<path d="M115.37 40.4116L116.573 39.0585C117.625 39.9605 118.678 40.4867 120.031 40.4867C121.234 40.4867 121.985 39.8854 121.985 39.1337C121.985 38.382 121.534 37.931 119.505 37.4799C117.174 36.8786 115.821 36.2021 115.821 34.1725C115.821 32.2933 117.4 30.9402 119.58 30.9402C121.158 30.9402 122.436 31.4664 123.564 32.2933L122.511 33.7966C121.534 33.045 120.557 32.6691 119.505 32.6691C118.377 32.6691 117.701 33.2705 117.701 33.947C117.701 34.7738 118.227 35.1497 120.332 35.6759C122.662 36.2772 123.864 37.1041 123.864 38.9082C123.864 40.9377 122.211 42.2156 119.956 42.2156C118.302 42.2156 116.723 41.6143 115.37 40.4116Z" fill="#1594A1"/>
<path d="M125.744 36.5779C125.744 33.4208 128.149 30.865 131.532 30.865C134.914 30.865 137.32 33.4208 137.32 36.5779C137.32 39.6599 134.914 42.2908 131.532 42.2908C128.149 42.2156 125.744 39.6599 125.744 36.5779ZM135.29 36.5779C135.29 34.398 133.712 32.5939 131.532 32.5939C129.352 32.5939 127.773 34.3228 127.773 36.5027C127.773 38.6827 129.352 40.4116 131.532 40.4116C133.712 40.4116 135.29 38.6827 135.29 36.5779Z" fill="#1594A1"/>
<path d="M139.199 36.5779C139.199 33.4208 141.529 30.865 144.912 30.865C146.941 30.865 148.144 31.5416 149.272 32.5939L147.994 34.0222C147.092 33.1953 146.19 32.6691 144.912 32.6691C142.807 32.6691 141.304 34.398 141.304 36.5779C141.304 38.7578 142.807 40.4867 144.912 40.4867C146.265 40.4867 147.167 39.9605 148.069 39.0585L149.347 40.3364C148.219 41.5391 146.941 42.2908 144.837 42.2908C141.529 42.2156 139.199 39.735 139.199 36.5779Z" fill="#1594A1"/>
<path d="M151.452 31.0154H153.406V42.0653H151.452V31.0154Z" fill="#1594A1"/>
<path d="M160.246 30.9402H162.051L166.937 42.0653H164.907L163.779 39.4343H158.593L157.465 42.0653H155.511L160.246 30.9402ZM163.028 37.6303L161.148 33.1953L159.269 37.6303H163.028Z" fill="#1594A1"/>
<path d="M170.094 32.8194H166.561V31.0154H175.506V32.8194H171.973V42.0653H170.018V32.8194H170.094Z" fill="#1594A1"/>
<path d="M177.686 31.0154H179.64V42.0653H177.686V31.0154Z" fill="#1594A1"/>
<path d="M182.121 36.5779C182.121 33.4208 184.526 30.865 187.909 30.865C191.291 30.865 193.697 33.4208 193.697 36.5779C193.697 39.6599 191.291 42.2908 187.909 42.2908C184.451 42.2156 182.121 39.6599 182.121 36.5779ZM191.592 36.5779C191.592 34.398 190.014 32.5939 187.834 32.5939C185.654 32.5939 184.075 34.3228 184.075 36.5027C184.075 38.6827 185.654 40.4116 187.834 40.4116C190.089 40.4116 191.592 38.6827 191.592 36.5779Z" fill="#1594A1"/>
<path d="M196.027 31.0154H197.831L203.77 38.6827V31.0154H205.649V42.0653H203.995L197.906 34.1725V42.0653H196.027V31.0154Z" fill="#1594A1"/>
</svg>
