<svg width="184" height="65" viewBox="0 0 184 65" fill="none" xmlns="http://www.w3.org/2000/svg">
<path fill-rule="evenodd" clip-rule="evenodd" d="M167.54 27.8931C167.383 27.9247 167.225 28.2717 167.225 28.4609C167.194 29.7225 167.162 33.0661 167.162 35.337C167.162 35.4002 167.256 35.5262 167.351 35.5262C167.824 35.5577 168.96 35.5893 169.937 35.5893C171.294 35.5893 172.082 35.4002 172.524 35.211C173.659 34.6432 174.196 33.4129 174.196 32.0565C174.196 28.9971 172.051 27.83 168.865 27.83C168.644 27.7987 168.014 27.7987 167.54 27.8931ZM175.678 41.9923C175.678 38.8698 173.375 37.1348 169.212 37.1348C169.023 37.1348 167.698 37.1032 167.383 37.1664C167.288 37.198 167.162 37.2611 167.162 37.3559C167.162 39.5952 167.13 43.1595 167.225 44.5471C167.288 45.1465 167.73 45.9982 168.266 46.2505C168.833 46.566 170.127 46.6288 171.01 46.6288C173.502 46.6288 175.678 45.2412 175.678 41.9923ZM161.106 26.1584C161.421 26.1584 162.368 26.2529 164.796 26.2529C167.099 26.2529 168.928 26.19 171.168 26.19C173.912 26.19 177.697 27.1677 177.697 31.268C177.697 33.2869 176.277 34.8955 174.416 35.684C174.322 35.7156 174.322 35.7785 174.416 35.8101C177.066 36.4726 179.4 38.1128 179.4 41.2038C179.4 44.2319 177.508 46.1558 174.763 47.3545C173.092 48.0799 171.01 48.3322 168.897 48.3322C167.288 48.3322 162.967 48.1431 160.57 48.2062C160.317 48.1115 160.79 46.9759 161.011 46.7867C161.579 46.7551 162.021 46.7236 162.62 46.5344C163.472 46.3137 163.566 46.0613 163.692 44.7682C163.755 43.6642 163.755 39.7527 163.755 36.9772C163.755 33.1606 163.787 30.5742 163.755 29.3126C163.724 28.3349 163.377 28.0194 162.683 27.83C162.147 27.7355 161.264 27.6092 160.538 27.5148C160.38 27.3569 160.916 26.2845 161.106 26.1584ZM142.906 45.7774C143.663 46.3765 145.146 46.6288 146.47 46.6288C148.174 46.6288 149.877 46.3137 151.517 44.831C153.189 43.3171 154.356 40.9831 154.356 37.2611C154.356 33.6968 153 30.7949 150.224 29.0919C148.647 28.1139 146.628 27.7039 144.294 27.7039C143.6 27.7039 142.938 27.7355 142.528 27.9247C142.433 27.9878 142.212 28.2717 142.212 28.4293C142.149 29.0603 142.149 33.9175 142.149 36.7565C142.149 39.6899 142.149 43.7902 142.212 44.2632C142.212 44.7366 142.433 45.462 142.906 45.7774ZM135.746 26.1584C136.346 26.1584 138.648 26.2529 139.752 26.2529C141.739 26.2529 143.158 26.1584 146.912 26.1584C150.066 26.1584 152.716 27.0101 154.608 28.6185C156.911 30.6058 158.109 33.35 158.109 36.6933C158.109 41.4561 155.933 44.2004 153.757 45.7774C151.58 47.3861 148.741 48.3322 144.704 48.3322C142.559 48.3322 138.869 48.2691 135.809 48.2375H135.778C135.62 47.9539 136.03 46.8499 136.282 46.8183C137.102 46.7236 137.323 46.692 137.733 46.5344C138.396 46.2821 138.522 45.935 138.617 44.7682C138.711 42.5917 138.68 39.9738 138.68 37.0088C138.68 34.8955 138.711 30.7634 138.648 29.4386C138.554 28.3349 138.08 28.051 137.134 27.8615C136.661 27.7671 136.03 27.6408 135.147 27.5464C135.021 27.3253 135.589 26.3476 135.746 26.1584Z" fill="#8E714E"/>
<path fill-rule="evenodd" clip-rule="evenodd" d="M97.581 47.0087C96.7924 46.914 96.2247 46.788 95.5306 46.4725C95.4361 46.4094 95.2782 46.0942 95.2782 45.9679C95.2151 44.8639 95.2151 41.7097 95.2151 39.5964C95.2151 37.893 94.9315 36.4107 94.2058 35.3698C93.3541 34.1711 92.1241 33.4773 90.547 33.4773C89.1591 33.4773 87.2981 34.4237 85.7526 35.7485C85.7211 35.7798 85.4687 36.0008 85.5003 35.6537C85.5003 35.3067 85.5635 34.6129 85.595 34.1398C85.6266 33.698 85.3743 33.4773 85.3743 33.4773C84.3647 33.9819 81.5261 34.6445 80.4852 34.7389C79.7282 34.8968 79.5391 35.6222 80.3276 35.8745H80.3592C81.2106 36.1268 81.7784 36.4107 82.2199 36.6946C82.5353 36.9469 82.5038 37.294 82.5038 37.5779C82.5353 39.9435 82.5353 43.5707 82.4409 45.558C82.4093 46.3465 82.1886 46.6301 81.6208 46.7564L81.6836 46.7248C81.2421 46.8196 80.8951 46.914 80.3589 46.9772C80.1697 47.1663 80.1697 48.1759 80.3589 48.3966C80.7059 48.3966 82.5353 48.3019 84.0495 48.3019C86.1313 48.3019 87.2037 48.3966 87.7399 48.3966C87.9607 48.1443 88.0238 47.1979 87.8975 46.9772C87.2981 46.9456 86.8566 46.8827 86.4467 46.7564C85.8789 46.6301 85.7211 46.3465 85.6895 45.684C85.6266 44.0122 85.6266 40.4797 85.6266 38.0825C85.6266 37.42 85.8158 37.1045 86.005 36.9153C86.7303 36.2847 87.8975 35.8429 88.9384 35.8429C89.9476 35.8429 90.6102 36.1584 91.1148 36.5686C91.8086 37.1361 92.0294 37.9562 92.1241 38.5556C92.2817 39.9119 92.2188 42.593 92.2188 44.927C92.2188 46.1886 92.1241 46.5041 91.651 46.6617C91.4303 46.7564 90.8625 46.8827 90.2 46.9456C89.9792 47.1663 90.0424 48.1443 90.2 48.3651C91.1148 48.3651 92.1872 48.2703 93.7643 48.2703C95.7197 48.2703 96.9816 48.3651 97.4863 48.3651C97.6438 48.1759 97.707 47.2611 97.5807 47.0087H97.581ZM106.318 34.9599C104.646 34.9599 103.605 36.2531 103.605 38.2717C103.605 40.3218 104.52 42.6874 107.107 42.6874C107.548 42.6874 108.368 42.4983 108.747 42.0568C109.346 41.489 109.756 40.3534 109.756 39.1549C109.756 36.537 108.463 34.9599 106.318 34.9599ZM106.097 48.9013C105.466 48.9013 105.025 49.0905 104.741 49.2483C103.416 50.0997 102.817 50.9198 102.817 51.8978C102.817 52.8124 103.164 53.5378 103.921 54.1687C104.835 54.9573 106.097 55.3359 107.706 55.3359C110.923 55.3359 112.342 53.6009 112.342 51.8978C112.342 50.6991 111.743 49.9106 110.513 49.4691C109.63 49.0905 108.021 48.9013 106.097 48.9013ZM106.318 57.1021C104.394 57.1021 103.006 56.6919 101.808 55.7774C100.64 54.8941 100.136 53.5694 100.136 52.6548C100.136 52.4025 100.199 51.7084 100.767 51.0777C101.113 50.6991 101.87 49.9737 103.669 48.7437C103.731 48.7121 103.763 48.6805 103.763 48.6174C103.763 48.5542 103.7 48.4911 103.637 48.4598C102.154 47.892 101.713 46.9772 101.587 46.4725V46.4094C101.555 46.2202 101.492 46.031 101.776 45.8416C101.997 45.684 102.312 45.4948 102.659 45.2741C103.195 44.9586 103.763 44.6115 104.11 44.3277C104.173 44.2645 104.173 44.2016 104.173 44.1385C104.173 44.0753 104.11 44.0122 104.047 43.9809C101.839 43.2552 100.735 41.615 100.735 39.1549C100.735 37.5463 101.461 36.0952 102.754 35.1807C103.637 34.4866 105.845 33.6352 107.296 33.6352H107.39C108.873 33.6665 109.693 33.9819 110.86 34.3921C111.491 34.6129 112.09 34.7073 112.91 34.7073C114.14 34.7073 114.676 34.329 115.118 33.8875C115.15 33.9504 115.213 34.1082 115.244 34.5182C115.276 34.9284 115.15 35.5274 114.834 35.9692C114.582 36.316 114.014 36.5686 113.446 36.5686H113.289C112.721 36.5054 112.468 36.4423 112.468 36.4423L112.342 36.5054C112.311 36.5686 112.342 36.6314 112.374 36.7262L112.406 36.7893C112.468 37.0732 112.595 37.9246 112.595 38.1457C112.595 40.732 111.554 41.8673 110.45 42.719C109.377 43.5075 108.147 44.0122 106.76 44.1385C106.728 44.1385 106.602 44.1385 106.318 44.1701C106.16 44.1701 105.939 44.2016 105.908 44.2016H105.876C105.624 44.2645 104.993 44.58 104.993 45.1162C104.993 45.5893 105.277 46.157 106.633 46.2518C106.917 46.2834 107.201 46.2834 107.516 46.3149C109.314 46.4409 111.554 46.5988 112.595 46.9456C114.046 47.4818 114.96 48.775 114.96 50.3208C114.96 52.6548 113.289 54.8312 110.513 56.1873C109.157 56.7867 107.8 57.1021 106.318 57.1021ZM124.297 35.1175C123.634 35.1175 123.035 35.2751 122.593 35.5906C121.363 36.3475 120.732 37.8618 120.732 40.0695C120.732 44.2016 122.814 47.1035 125.779 47.1035C126.662 47.1035 127.356 46.8511 127.956 46.3465C128.87 45.5893 129.344 44.0753 129.344 41.962C129.344 37.8618 127.293 35.1175 124.297 35.1175ZM124.865 48.6174C119.502 48.6174 117.578 44.6747 117.578 40.9843C117.578 38.398 118.619 36.4107 120.701 34.9912C122.184 34.0767 123.95 33.572 125.527 33.572C129.627 33.572 132.498 36.5054 132.498 40.732C132.498 43.6023 131.362 45.8731 129.186 47.2611C128.145 47.9549 126.347 48.6174 124.864 48.6174H124.865ZM68.6571 35.1175C67.9946 35.1175 67.3955 35.2751 66.9538 35.5906C65.7237 36.3475 65.0928 37.8618 65.0928 40.0695C65.0928 44.2016 67.1745 47.1035 70.1395 47.1035C71.0227 47.1035 71.7166 46.8511 72.3159 46.3465C73.2305 45.5893 73.7038 44.0753 73.7038 41.962C73.7038 37.8618 71.685 35.1175 68.6571 35.1175ZM69.2249 48.6174C63.8628 48.6174 61.9386 44.6747 61.9386 40.9843C61.9386 38.398 62.9795 36.4107 65.0612 34.9912C66.5438 34.0767 68.3101 33.572 69.8872 33.572C73.9877 33.572 76.858 36.5054 76.858 40.732C76.858 43.6023 75.7224 45.8731 73.5459 47.2611C72.5367 47.9549 70.7388 48.6174 69.2249 48.6174ZM33.1727 48.3019C33.1095 48.2075 33.0464 47.9236 33.0779 47.5765C33.0779 47.3242 33.1411 47.1663 33.1727 47.1035C33.8349 47.0087 34.1819 46.914 34.5603 46.8196C35.1912 46.6617 35.4435 46.3149 35.4751 45.5264C35.5699 43.6338 35.5699 40.0379 35.5383 37.5463V37.4831C35.5383 37.1992 35.5383 36.8522 35.1912 36.5999C34.6866 36.2847 34.0872 36.0008 33.2987 35.7798C33.0148 35.6853 32.8256 35.5274 32.8572 35.3383C32.8572 35.1491 33.0464 34.9284 33.4566 34.8652C34.4974 34.7705 37.2098 34.1082 38.2822 33.6352C38.3454 33.698 38.4401 33.8875 38.4401 34.1398L38.4085 34.4866C38.377 34.8336 38.3454 35.2438 38.3454 35.6537C38.3454 35.7798 38.4717 35.8745 38.5977 35.8745C38.6609 35.8745 38.724 35.8429 38.7872 35.8113C40.8057 34.2343 42.6351 33.6665 43.5812 33.6665C45.127 33.6665 46.3255 34.3921 47.2403 35.9061C47.3032 36.0008 47.3663 36.0321 47.4611 36.0321C47.5242 36.0321 47.6187 36.0008 47.6502 35.9376C49.5112 34.5182 51.3722 33.6665 52.6022 33.6665C55.5356 33.6665 57.2706 35.8429 57.2706 39.5333C57.2706 40.5741 57.2706 41.9305 57.239 43.1608C57.239 44.2645 57.2074 45.2741 57.2074 45.9995C57.2074 46.157 57.4282 46.6617 57.7752 46.7564C58.2167 46.9772 58.8161 47.0719 59.6046 47.1979H59.6362C59.6993 47.4186 59.573 48.2388 59.447 48.3966C59.2575 48.3966 58.9737 48.3966 58.6585 48.3651C58.0591 48.3335 57.2074 48.3019 56.2613 48.3019C54.3056 48.3019 53.2963 48.3335 52.3183 48.3966C52.2554 48.1443 52.2239 47.3874 52.3183 47.1979C52.8861 47.1035 53.17 47.0087 53.517 46.914C54.148 46.7248 54.3056 46.4409 54.3372 45.6208C54.3372 45.0218 54.4632 39.9119 54.274 38.6816C54.0848 37.42 53.1384 35.9376 51.0567 35.9376C50.2682 35.9376 49.0381 36.2531 47.8394 37.1677C47.7765 37.2308 47.7134 37.3884 47.7134 37.4831V37.5147C47.8394 38.1769 47.8394 38.9342 47.8394 40.1011V42.1512C47.8394 43.5707 47.8078 44.8954 47.8394 45.9047C47.8394 46.5988 48.2496 46.7564 48.5967 46.8827C48.7858 46.914 48.9118 46.9456 49.0697 46.9772C49.3536 47.0403 49.6375 47.1035 50.079 47.1979C50.1422 47.3242 50.1422 47.7341 50.0474 48.0812C50.0158 48.2703 49.9527 48.3651 49.9214 48.3966C48.849 48.3651 47.745 48.3335 46.1363 48.3335C45.6632 48.3335 44.8431 48.3651 44.149 48.3651C43.5812 48.3651 43.045 48.3966 42.7298 48.3966C42.6983 48.3335 42.6351 48.1127 42.6351 47.7657C42.6351 47.4818 42.6983 47.2611 42.7614 47.1979C42.919 47.1663 43.045 47.135 43.2029 47.135C43.5812 47.0719 43.8967 47.0087 44.2122 46.9456C44.7484 46.788 44.9376 46.5041 44.9691 45.8103C45.0639 44.2332 45.1583 39.7227 44.9376 38.5871C44.5592 36.7578 43.5184 35.8429 41.8466 35.8429C40.8689 35.8429 39.6386 36.316 38.6293 37.0732C38.4717 37.1992 38.3454 37.5147 38.3454 37.7986V39.6596C38.3454 41.9305 38.3454 44.7694 38.377 45.9995C38.4085 46.3778 38.5345 46.8196 39.2602 46.9772C39.4178 47.0087 39.6701 47.0719 39.9856 47.1035L40.5534 47.1979C40.6166 47.3874 40.585 48.1443 40.4587 48.3966C40.1432 48.3966 39.7649 48.3651 39.3231 48.3651C38.6609 48.3335 37.8092 48.3019 36.863 48.3019C35.759 48.3019 34.9705 48.3335 34.3395 48.3651C33.8981 48.3019 33.551 48.3019 33.1727 48.3019Z" fill="#442D22"/>
<path fill-rule="evenodd" clip-rule="evenodd" d="M16.5815 55.8709L15.2883 55.4291C15.2883 55.4291 15.4462 48.8369 13.0806 48.3639C11.5035 46.5345 13.3329 -29.2288 19.0102 48.1116C19.0102 48.1116 17.0548 49.0893 16.7078 50.7611C16.3292 52.4013 16.5815 55.8709 16.5815 55.8709Z" fill="#A6A385"/>
<path fill-rule="evenodd" clip-rule="evenodd" d="M17.2754 49.5005C17.2754 49.5005 28.5988 42.0566 25.9493 26.5695C23.3945 15.3092 17.3698 11.6188 16.7076 10.1993C15.9822 9.19007 15.2881 7.42383 15.2881 7.42383L15.7614 38.7446C15.7614 38.7761 14.7834 48.3333 17.2754 49.5005Z" fill="#499D4A"/>
<path fill-rule="evenodd" clip-rule="evenodd" d="M14.6258 49.9098C14.6258 49.9098 3.99617 42.655 4.62711 29.8809C5.22619 17.1064 12.7332 10.8297 14.184 9.69406C15.1304 8.68478 15.162 8.30616 15.2251 7.29688C15.8874 8.71636 15.7614 28.5245 15.8558 30.8586C16.1397 39.8479 15.3512 48.2067 14.6258 49.9098Z" fill="#58AA50"/>
</svg>
