<svg width="235" height="51" viewBox="0 0 235 51" fill="none" xmlns="http://www.w3.org/2000/svg">
<path fill-rule="evenodd" clip-rule="evenodd" d="M34.6127 19.3909L24.9433 13.8102C22.1283 12.1635 19.7004 12.2057 17.6947 13.2824C20.1789 16.3789 22.1494 19.8554 22.0509 22.987C26.3563 22.2479 30.5684 21.0421 34.6127 19.3909Z" fill="#FAA61A"/>
<path fill-rule="evenodd" clip-rule="evenodd" d="M17.6949 13.2819C19.7006 12.2051 22.1003 12.1629 24.9435 13.8097L21.4247 11.797L8.29993 4.19653C11.7531 6.87386 14.9034 9.92037 17.6949 13.2819Z" fill="#F58220"/>
<path fill-rule="evenodd" clip-rule="evenodd" d="M11.4668 21.9027C12.9094 18.2081 14.9362 14.7597 17.6949 13.2819C14.9034 9.92037 11.7531 6.87386 8.29993 4.19653V15.3649C8.29993 18.6514 9.53148 20.7064 11.4668 21.9027Z" fill="#008FD5"/>
<path fill-rule="evenodd" clip-rule="evenodd" d="M11.4668 21.9033C9.53148 20.7069 8.29993 18.652 8.29993 15.3655V34.5847C8.89526 30.2603 9.95706 26.0131 11.4668 21.9173V21.9033Z" fill="#00588A"/>
<path fill-rule="evenodd" clip-rule="evenodd" d="M11.4668 21.9027C9.95706 25.9985 8.89526 30.2457 8.29993 34.5701L17.9694 28.9894C20.8195 27.3427 21.9807 25.2455 22.0511 22.9724C18.1242 23.5706 14.134 23.5425 11.4949 21.8887L11.4668 21.9027Z" fill="#66952E"/>
<path fill-rule="evenodd" clip-rule="evenodd" d="M22.0511 22.986C21.9807 25.2591 20.8195 27.3563 17.9694 29.003L21.4881 26.9833L34.641 19.3899C30.5967 21.0411 26.3846 22.2469 22.0792 22.986H22.0511Z" fill="#DBDB45"/>
<path d="M129.942 4.29462H130.463L133.876 11.6698H133.278L132.342 9.62196H128.021L127.085 11.6698H126.522L129.942 4.29462ZM132.117 9.12933L130.189 4.90687L128.253 9.12933H132.117Z" fill="#122033"/>
<path d="M135.354 6.30733H135.861V7.25739C136.027 6.93074 136.281 6.65692 136.594 6.46672C136.908 6.27651 137.268 6.17745 137.634 6.18066C138.015 6.17084 138.391 6.27555 138.712 6.48129C139.033 6.68702 139.285 6.98433 139.436 7.3348C139.616 6.98038 139.892 6.68403 140.234 6.47985C140.575 6.27567 140.967 6.17196 141.364 6.18066C141.651 6.17279 141.936 6.22661 142.201 6.3385C142.465 6.45039 142.702 6.61774 142.897 6.82923C143.091 7.04072 143.237 7.29143 143.326 7.5644C143.415 7.83738 143.444 8.12626 143.412 8.41152V11.6417H142.898V8.47486C142.898 7.32072 142.307 6.65217 141.322 6.65217C141.084 6.65596 140.85 6.70889 140.633 6.80762C140.417 6.90636 140.224 7.04875 140.065 7.22588C139.906 7.403 139.786 7.61103 139.712 7.83687C139.637 8.0627 139.61 8.30148 139.633 8.53819V11.6417H139.126V8.43967C139.126 7.33479 138.514 6.65217 137.564 6.65217C137.326 6.66471 137.093 6.72434 136.878 6.8276C136.663 6.93086 136.471 7.07569 136.313 7.25372C136.154 7.43175 136.033 7.63944 135.955 7.86475C135.878 8.09007 135.846 8.32854 135.861 8.56635V11.6417H135.347L135.354 6.30733Z" fill="#122033"/>
<path d="M145.009 9.01674C144.985 8.66417 145.031 8.31022 145.146 7.976C145.261 7.64178 145.442 7.33415 145.679 7.07144C145.915 6.80873 146.202 6.59633 146.522 6.44691C146.843 6.29749 147.19 6.21413 147.543 6.20177C149.035 6.20177 149.992 7.41924 149.992 9.01674C149.999 9.08692 149.999 9.15768 149.992 9.22786H145.565C145.565 9.78779 145.788 10.3248 146.184 10.7207C146.58 11.1167 147.117 11.3391 147.677 11.3391C148.024 11.3398 148.367 11.2653 148.683 11.1208C148.999 10.9762 149.28 10.765 149.506 10.5016L149.858 10.8183C149.588 11.1381 149.251 11.3938 148.87 11.5666C148.489 11.7395 148.074 11.8252 147.656 11.8176C147.295 11.8183 146.937 11.745 146.606 11.6025C146.274 11.4599 145.975 11.2511 145.728 10.9887C145.48 10.7264 145.288 10.4161 145.165 10.077C145.041 9.73783 144.988 9.37703 145.009 9.01674ZM149.436 8.75635C149.359 7.67258 148.732 6.68031 147.522 6.68031C146.993 6.71561 146.496 6.94877 146.131 7.33343C145.766 7.71809 145.559 8.22606 145.551 8.75635H149.436Z" fill="#122033"/>
<path d="M151.498 6.30732H152.047V7.82741C152.233 7.35253 152.558 6.9451 152.981 6.65871C153.403 6.37232 153.901 6.22039 154.411 6.22288V6.78586H154.362C153.124 6.78586 152.047 7.72184 152.047 9.46009V11.6417H151.533L151.498 6.30732Z" fill="#122033"/>
<path d="M155.742 4.24536H156.375V4.9491H155.742V4.24536ZM155.805 6.35659H156.319V11.691H155.805V6.35659Z" fill="#122033"/>
<path d="M158.008 9.02378C158.007 8.29278 158.291 7.5903 158.799 7.06494C159.308 6.53958 160 6.23256 160.731 6.2088C161.133 6.21281 161.529 6.30281 161.893 6.47275C162.258 6.64269 162.581 6.88863 162.842 7.19404L162.469 7.57407C162.254 7.30904 161.984 7.09335 161.678 6.94159C161.372 6.78983 161.037 6.70553 160.696 6.69439C160.403 6.69978 160.114 6.76357 159.846 6.882C159.578 7.00044 159.336 7.17116 159.135 7.38415C158.934 7.59714 158.777 7.84811 158.674 8.1224C158.571 8.39669 158.524 8.68878 158.535 8.98155C158.527 9.27847 158.577 9.57412 158.684 9.85148C158.79 10.1288 158.95 10.3824 159.155 10.5976C159.36 10.8128 159.605 10.9854 159.877 11.1054C160.148 11.2254 160.441 11.2905 160.738 11.2969C161.083 11.2869 161.422 11.2018 161.731 11.0475C162.039 10.8931 162.311 10.6732 162.526 10.4031L162.877 10.7198C162.529 11.1844 162.042 11.526 161.486 11.6954C160.93 11.8647 160.335 11.8529 159.787 11.6617C159.238 11.4706 158.765 11.1099 158.435 10.6319C158.105 10.1539 157.936 9.58329 157.951 9.00266L158.008 9.02378Z" fill="#122033"/>
<path d="M163.954 10.1216C163.954 9.01673 164.911 8.39041 166.291 8.39041C166.887 8.38456 167.481 8.46033 168.057 8.6156V8.39041C168.057 7.30664 167.403 6.75772 166.298 6.75772C165.713 6.76104 165.137 6.90848 164.623 7.187L164.44 6.73661C165.026 6.43626 165.674 6.2772 166.333 6.27213C166.638 6.25329 166.944 6.29523 167.232 6.3955C167.521 6.49576 167.787 6.65237 168.015 6.85624C168.204 7.05783 168.351 7.29599 168.445 7.55615C168.54 7.81632 168.58 8.09301 168.564 8.36929V11.691H168.057V10.8042C167.826 11.1272 167.519 11.3885 167.163 11.5652C166.807 11.7419 166.413 11.8286 166.016 11.8176C165.024 11.7965 163.954 11.2335 163.954 10.1216ZM168.071 9.67825V9.066C167.478 8.90957 166.868 8.82917 166.255 8.82673C165.129 8.82673 164.503 9.32639 164.503 10.0724C164.503 10.8465 165.207 11.2969 166.051 11.2969C166.534 11.3483 167.016 11.207 167.395 10.9038C167.773 10.6005 168.016 10.16 168.071 9.67825Z" fill="#122033"/>
<path d="M170.443 6.30732H170.956V7.2996C171.141 6.95175 171.42 6.6626 171.761 6.46485C172.102 6.26711 172.491 6.16867 172.885 6.18065C173.173 6.16865 173.461 6.21815 173.728 6.32587C173.996 6.43359 174.238 6.59705 174.438 6.8054C174.637 7.01375 174.79 7.26221 174.887 7.53428C174.983 7.80635 175.02 8.09578 174.996 8.38336V11.6417H174.482V8.47485C174.51 8.23961 174.486 8.00114 174.413 7.77598C174.339 7.55081 174.217 7.34436 174.056 7.17094C173.895 6.99752 173.698 6.86129 173.478 6.77171C173.259 6.68213 173.023 6.64133 172.786 6.65216C172.537 6.64907 172.291 6.69671 172.061 6.79219C171.831 6.88767 171.624 7.02897 171.45 7.20746C171.277 7.38595 171.142 7.59789 171.054 7.83032C170.965 8.06275 170.925 8.31079 170.935 8.5593V11.6417H170.422L170.443 6.30732Z" fill="#122033"/>
<path d="M126.832 19.4814C126.815 18.9932 126.896 18.5066 127.07 18.0502C127.244 17.5938 127.508 17.1769 127.845 16.8241C128.183 16.4712 128.588 16.1896 129.037 15.9957C129.485 15.8018 129.968 15.6997 130.456 15.6953C131.437 15.6603 132.394 16.0028 133.13 16.6523L132.778 17.0605C132.139 16.4688 131.292 16.1528 130.421 16.1808C130.005 16.1925 129.596 16.2871 129.218 16.4592C128.839 16.6314 128.499 16.8774 128.217 17.183C127.935 17.4886 127.717 17.8475 127.576 18.2386C127.435 18.6297 127.373 19.0451 127.395 19.4603C127.395 21.3534 128.577 22.7679 130.533 22.7679C131.385 22.7614 132.208 22.4661 132.87 21.9304V19.8192H130.421V19.3195H133.398V22.1345C132.601 22.8333 131.579 23.2228 130.519 23.2324C130.025 23.2496 129.533 23.1639 129.073 22.9806C128.614 22.7974 128.197 22.5206 127.851 22.1679C127.504 21.8152 127.234 21.3942 127.059 20.9317C126.883 20.4693 126.806 19.9754 126.832 19.4814Z" fill="#122033"/>
<path d="M134.953 21.5715C134.953 20.4666 135.903 19.8403 137.289 19.8403C137.886 19.8345 138.48 19.9102 139.056 20.0655V19.8403C139.073 19.6103 139.039 19.3794 138.954 19.1646C138.87 18.9499 138.739 18.7569 138.57 18.6C138.4 18.4431 138.198 18.3263 137.978 18.2584C137.757 18.1905 137.524 18.1731 137.296 18.2076C136.712 18.2119 136.138 18.3567 135.622 18.6299L135.439 18.1865C136.025 17.8862 136.673 17.7271 137.332 17.722C137.637 17.7032 137.942 17.7451 138.231 17.8454C138.52 17.9457 138.786 18.1023 139.014 18.3062C139.202 18.5081 139.348 18.7465 139.441 19.0067C139.534 19.2669 139.573 19.5434 139.555 19.8192V23.1409H139.056V22.2542C138.824 22.5772 138.517 22.8384 138.162 23.0151C137.806 23.1918 137.412 23.2785 137.015 23.2675C136.023 23.2464 134.953 22.6834 134.953 21.5715ZM139.07 21.1211V20.5159C138.477 20.3595 137.867 20.2791 137.254 20.2766C136.128 20.2766 135.495 20.7763 135.495 21.5223C135.495 22.2964 136.234 22.7468 137.05 22.7468C137.533 22.7981 138.017 22.6558 138.396 22.3511C138.774 22.0464 139.017 21.6042 139.07 21.1211Z" fill="#122033"/>
<path d="M140.984 22.4512L141.287 22.043C141.828 22.4856 142.502 22.7334 143.201 22.7468C143.905 22.7468 144.489 22.3456 144.489 21.7334C144.489 21.1 143.82 20.8748 143.081 20.6637C142.216 20.4103 141.251 20.15 141.251 19.1999C141.262 18.9846 141.318 18.7739 141.414 18.5808C141.51 18.3878 141.644 18.2166 141.809 18.0779C141.974 17.9393 142.166 17.8361 142.373 17.7749C142.58 17.7137 142.797 17.6957 143.011 17.722C143.684 17.7386 144.339 17.9408 144.904 18.3062L144.629 18.7354C144.145 18.4062 143.576 18.223 142.99 18.2076C142.286 18.2076 141.772 18.6017 141.772 19.1366C141.772 19.7348 142.476 19.9529 143.257 20.1711C144.038 20.3892 145.016 20.727 145.016 21.67C145.004 21.8951 144.947 22.1154 144.846 22.3172C144.746 22.5191 144.606 22.6984 144.434 22.8441C144.262 22.9897 144.062 23.0987 143.846 23.1642C143.63 23.2298 143.404 23.2506 143.18 23.2253C142.382 23.2168 141.61 22.9446 140.984 22.4512Z" fill="#122033"/>
<path d="M146.867 21.7897V18.271H146.093V17.7995H146.867V16.0964H147.374V17.7995H149.232V18.271H147.353V21.7123C147.336 21.8553 147.353 22.0002 147.401 22.1358C147.449 22.2714 147.528 22.3941 147.632 22.4941C147.735 22.5942 147.861 22.6691 147.998 22.7129C148.135 22.7567 148.28 22.7683 148.423 22.7468C148.696 22.7456 148.965 22.6831 149.211 22.5638V23.0423C148.938 23.1719 148.64 23.2369 148.338 23.2324C148.143 23.2478 147.948 23.2213 147.764 23.1547C147.581 23.088 147.414 22.9828 147.274 22.846C147.135 22.7093 147.026 22.5442 146.956 22.362C146.886 22.1798 146.856 21.9846 146.867 21.7897Z" fill="#122033"/>
<path d="M150.808 17.7854H151.343V19.3055C151.529 18.8306 151.855 18.4232 152.277 18.1368C152.699 17.8504 153.198 17.6984 153.708 17.7009V18.2639H153.658C152.42 18.2639 151.343 19.1999 151.343 20.9381V23.1198H150.829L150.808 17.7854Z" fill="#122033"/>
<path d="M154.411 20.4737C154.404 20.1073 154.47 19.7431 154.604 19.4023C154.739 19.0616 154.941 18.7511 155.197 18.489C155.453 18.227 155.759 18.0185 156.096 17.876C156.434 17.7334 156.797 17.6596 157.163 17.6587C157.525 17.6587 157.884 17.7307 158.218 17.8705C158.552 18.0104 158.855 18.2153 159.109 18.4733C159.363 18.7314 159.563 19.0374 159.698 19.3736C159.833 19.7097 159.899 20.0693 159.894 20.4315C159.901 20.7979 159.835 21.1621 159.701 21.5028C159.566 21.8436 159.364 22.1541 159.108 22.4161C158.852 22.6782 158.546 22.8866 158.209 23.0291C157.871 23.1717 157.508 23.2456 157.142 23.2464C156.78 23.2474 156.421 23.1761 156.086 23.0366C155.752 22.897 155.448 22.6922 155.194 22.4339C154.94 22.1757 154.739 21.8693 154.605 21.5327C154.471 21.1961 154.405 20.8361 154.411 20.4737ZM159.338 20.4737C159.348 20.1772 159.299 19.8817 159.194 19.6043C159.089 19.327 158.929 19.0734 158.725 18.8585C158.52 18.6435 158.275 18.4715 158.003 18.3525C157.731 18.2335 157.439 18.1699 157.142 18.1654C156.848 18.168 156.557 18.2297 156.287 18.347C156.017 18.4643 155.773 18.6347 155.57 18.8481C155.367 19.0615 155.209 19.3135 155.106 19.5891C155.002 19.8647 154.955 20.1584 154.967 20.4526C154.957 20.7494 155.006 21.0453 155.111 21.323C155.216 21.6008 155.376 21.8548 155.58 22.0703C155.784 22.2858 156.03 22.4584 156.301 22.5782C156.573 22.698 156.866 22.7625 157.163 22.7679C157.458 22.7644 157.749 22.7017 158.019 22.5837C158.289 22.4656 158.533 22.2946 158.736 22.0806C158.938 21.8667 159.096 21.6142 159.2 21.3382C159.303 21.0622 159.35 20.7682 159.338 20.4737Z" fill="#122033"/>
<path d="M161.153 20.4666C161.129 20.1141 161.175 19.7601 161.29 19.4259C161.405 19.0917 161.586 18.7841 161.822 18.5213C162.059 18.2586 162.346 18.0462 162.666 17.8968C162.986 17.7474 163.334 17.664 163.687 17.6517C165.179 17.6517 166.136 18.8691 166.136 20.4666C166.143 20.5368 166.143 20.6076 166.136 20.6778H161.709C161.709 21.2377 161.932 21.7747 162.328 22.1706C162.724 22.5666 163.261 22.789 163.82 22.789C164.169 22.7907 164.514 22.7167 164.831 22.5721C165.148 22.4276 165.43 22.2158 165.657 21.9515L166.009 22.2682C165.739 22.589 165.4 22.8452 165.017 23.0181C164.635 23.191 164.219 23.2762 163.799 23.2675C163.438 23.2682 163.081 23.1949 162.75 23.0524C162.418 22.9098 162.119 22.701 161.871 22.4386C161.624 22.1763 161.432 21.866 161.308 21.5269C161.185 21.1877 161.132 20.8269 161.153 20.4666ZM165.58 20.2063C165.502 19.1225 164.876 18.1302 163.666 18.1302C163.137 18.1655 162.64 18.3987 162.275 18.7833C161.91 19.168 161.703 19.676 161.695 20.2063H165.58Z" fill="#122033"/>
<path d="M167.67 17.7854H168.184V18.7777C168.369 18.4298 168.647 18.1407 168.988 17.9429C169.329 17.7452 169.718 17.6467 170.112 17.6587C170.4 17.6457 170.687 17.6942 170.955 17.8011C171.223 17.908 171.465 18.0708 171.665 18.2786C171.864 18.4864 172.018 18.7345 172.114 19.0062C172.21 19.278 172.248 19.5671 172.223 19.8544V23.1198H171.752V19.9529C171.78 19.7177 171.756 19.4792 171.682 19.254C171.609 19.0289 171.487 18.8224 171.326 18.649C171.164 18.4756 170.967 18.3394 170.748 18.2498C170.528 18.1602 170.292 18.1194 170.056 18.1302C169.807 18.1271 169.56 18.1748 169.331 18.2702C169.101 18.3657 168.893 18.507 168.72 18.6855C168.547 18.864 168.412 19.0759 168.323 19.3084C168.235 19.5408 168.194 19.7889 168.205 20.0374V23.1198H167.691L167.67 17.7854Z" fill="#122033"/>
<path d="M174.412 21.7897V18.271H173.638V17.7995H174.412V16.0964H174.926V17.7995H176.798V18.271H174.926V21.7123C174.909 21.8546 174.925 21.9988 174.973 22.1338C175.021 22.2688 175.1 22.391 175.202 22.4909C175.305 22.5909 175.429 22.6659 175.566 22.7103C175.702 22.7546 175.846 22.7671 175.988 22.7468C176.261 22.7463 176.531 22.6838 176.776 22.5638V23.0423C176.506 23.1713 176.21 23.2363 175.911 23.2324C175.714 23.2521 175.515 23.2288 175.328 23.1641C175.141 23.0994 174.97 22.9948 174.828 22.8576C174.685 22.7204 174.574 22.5538 174.502 22.3694C174.431 22.185 174.4 21.9872 174.412 21.7897Z" fill="#122033"/>
<path d="M177.832 20.4666C177.808 20.1143 177.855 19.7607 177.971 19.427C178.086 19.0932 178.267 18.7859 178.503 18.5234C178.74 18.2609 179.026 18.0485 179.346 17.8988C179.666 17.749 180.013 17.665 180.366 17.6517C181.864 17.6517 182.815 18.8691 182.815 20.4666C182.818 20.537 182.818 20.6074 182.815 20.6778H178.388C178.388 21.2377 178.61 21.7747 179.006 22.1706C179.402 22.5666 179.939 22.789 180.499 22.789C180.847 22.7916 181.191 22.718 181.507 22.5733C181.823 22.4286 182.104 22.2164 182.329 21.9515L182.688 22.2682C182.417 22.589 182.078 22.8452 181.696 23.0181C181.314 23.191 180.898 23.2762 180.478 23.2675C180.118 23.2672 179.761 23.1932 179.43 23.0503C179.099 22.9074 178.8 22.6985 178.552 22.4364C178.305 22.1743 178.113 21.8644 177.989 21.5257C177.865 21.1871 177.812 20.8267 177.832 20.4666ZM182.259 20.2063C182.188 19.1225 181.555 18.1302 180.344 18.1302C179.816 18.1672 179.322 18.4011 178.958 18.7856C178.594 19.1701 178.388 19.6771 178.381 20.2063H182.259Z" fill="#122033"/>
<path d="M184.356 17.7854H184.869V19.3055C185.055 18.83 185.38 18.4221 185.802 18.1355C186.225 17.849 186.724 17.6975 187.234 17.7009V18.2639H187.178C185.946 18.2639 184.869 19.1999 184.869 20.9382V23.1198H184.356V17.7854Z" fill="#122033"/>
<path d="M187.938 20.4737C187.931 20.107 187.998 19.7426 188.133 19.4018C188.269 19.061 188.471 18.7506 188.728 18.4886C188.985 18.2266 189.291 18.0184 189.629 17.8759C189.967 17.7334 190.33 17.6596 190.696 17.6587C191.059 17.6587 191.417 17.7307 191.751 17.8705C192.085 18.0104 192.388 18.2153 192.642 18.4733C192.896 18.7314 193.097 19.0374 193.231 19.3736C193.366 19.7097 193.433 20.0693 193.427 20.4315C193.427 21.1594 193.138 21.8575 192.623 22.3722C192.108 22.8869 191.41 23.1761 190.682 23.1761C189.954 23.1761 189.256 22.8869 188.742 22.3722C188.227 21.8575 187.938 21.1594 187.938 20.4315V20.4737ZM192.864 20.4737C192.874 20.1772 192.825 19.8817 192.72 19.6043C192.615 19.327 192.455 19.0734 192.251 18.8585C192.046 18.6435 191.801 18.4715 191.529 18.3525C191.258 18.2335 190.965 18.1699 190.668 18.1654C190.374 18.168 190.082 18.2297 189.812 18.3469C189.542 18.4641 189.297 18.6344 189.094 18.8477C188.89 19.061 188.732 19.3129 188.628 19.5886C188.523 19.8642 188.475 20.1581 188.487 20.4526C188.476 20.75 188.525 21.0464 188.631 21.3246C188.737 21.6028 188.897 21.8572 189.102 22.0728C189.307 22.2883 189.553 22.4609 189.826 22.5802C190.098 22.6996 190.392 22.7634 190.689 22.7679C190.984 22.7644 191.275 22.7017 191.545 22.5837C191.815 22.4656 192.059 22.2946 192.262 22.0806C192.465 21.8667 192.622 21.6142 192.726 21.3382C192.829 21.0622 192.876 20.7682 192.864 20.4737Z" fill="#122033"/>
<path d="M195.137 15.456H195.679V23.0916H195.165L195.137 15.456Z" fill="#122033"/>
<path d="M197.347 20.4737C197.328 20.102 197.385 19.7304 197.514 19.3815C197.643 19.0325 197.842 18.7135 198.099 18.4438C198.355 18.1741 198.664 17.9593 199.006 17.8126C199.348 17.6658 199.716 17.5901 200.088 17.5901C200.46 17.5901 200.828 17.6658 201.17 17.8126C201.512 17.9593 201.821 18.1741 202.077 18.4438C202.334 18.7135 202.532 19.0325 202.662 19.3815C202.791 19.7304 202.848 20.102 202.829 20.4737C202.836 20.8401 202.771 21.2043 202.636 21.545C202.501 21.8858 202.3 22.1963 202.044 22.4583C201.787 22.7204 201.482 22.9288 201.144 23.0714C200.806 23.2139 200.444 23.2878 200.077 23.2887C199.711 23.2898 199.349 23.2171 199.011 23.075C198.674 22.9329 198.369 22.7242 198.114 22.4614C197.859 22.1987 197.66 21.8872 197.528 21.5457C197.396 21.2041 197.335 20.8396 197.347 20.4737ZM202.273 20.4737C202.283 20.1772 202.234 19.8817 202.129 19.6043C202.024 19.327 201.864 19.0734 201.66 18.8585C201.455 18.6435 201.21 18.4715 200.938 18.3525C200.667 18.2335 200.374 18.1699 200.077 18.1654C199.783 18.168 199.491 18.2297 199.221 18.3469C198.951 18.4641 198.706 18.6344 198.503 18.8477C198.3 19.061 198.141 19.3129 198.037 19.5886C197.932 19.8642 197.884 20.1581 197.896 20.4526C197.885 20.75 197.935 21.0464 198.04 21.3246C198.146 21.6028 198.306 21.8572 198.511 22.0728C198.716 22.2883 198.962 22.4609 199.235 22.5802C199.507 22.6996 199.801 22.7634 200.098 22.7679C200.393 22.7644 200.684 22.7017 200.954 22.5837C201.224 22.4656 201.468 22.2946 201.671 22.0806C201.874 21.8667 202.031 21.6142 202.135 21.3382C202.238 21.0622 202.285 20.7682 202.273 20.4737Z" fill="#122033"/>
<path d="M204.349 23.9994L204.652 23.5842C205.264 24.0718 206.023 24.3373 206.805 24.3372C207.086 24.3674 207.37 24.3349 207.637 24.2423C207.904 24.1496 208.147 23.9989 208.349 23.8011C208.551 23.6033 208.707 23.3633 208.805 23.0982C208.903 22.8332 208.941 22.5497 208.916 22.2682V21.4871C208.68 21.8643 208.353 22.1756 207.964 22.3922C207.575 22.6088 207.138 22.7235 206.693 22.7257C206.359 22.7303 206.027 22.6689 205.717 22.545C205.407 22.4211 205.125 22.2371 204.886 22.0036C204.647 21.7701 204.457 21.4917 204.326 21.1845C204.195 20.8773 204.127 20.5472 204.124 20.2133C204.125 19.8779 204.192 19.546 204.322 19.2367C204.452 18.9274 204.642 18.6469 204.88 18.4114C205.119 18.1759 205.402 17.99 205.713 17.8644C206.024 17.7388 206.357 17.6761 206.693 17.6798C207.134 17.6768 207.569 17.7848 207.957 17.9939C208.346 18.2029 208.676 18.5063 208.916 18.8762V17.8065H209.43V22.3175C209.441 22.6509 209.385 22.9831 209.264 23.294C209.143 23.6049 208.96 23.888 208.726 24.1261C208.2 24.6076 207.504 24.8607 206.791 24.8299C205.908 24.831 205.049 24.5389 204.349 23.9994ZM208.93 20.2063C208.921 19.9271 208.855 19.6527 208.739 19.3989C208.622 19.1451 208.456 18.9171 208.25 18.7279C208.045 18.5387 207.804 18.3922 207.541 18.2969C207.279 18.2015 207 18.1592 206.721 18.1724C206.45 18.1598 206.18 18.203 205.927 18.2995C205.674 18.3959 205.443 18.5435 205.25 18.7331C205.056 18.9226 204.904 19.15 204.802 19.4011C204.701 19.6521 204.652 19.9214 204.659 20.1922C204.657 20.4625 204.709 20.7305 204.812 20.9804C204.915 21.2302 205.068 21.4569 205.26 21.6471C205.452 21.8372 205.68 21.9871 205.931 22.0877C206.182 22.1883 206.45 22.2377 206.721 22.233C206.999 22.2463 207.278 22.2042 207.54 22.1093C207.802 22.0144 208.042 21.8685 208.248 21.6801C208.453 21.4916 208.619 21.2644 208.737 21.0114C208.854 20.7585 208.92 20.4848 208.93 20.2063Z" fill="#122033"/>
<path d="M211.408 15.6953H212.048V16.399H211.408V15.6953ZM211.471 17.8065H211.985V23.1409H211.471V17.8065Z" fill="#122033"/>
<path d="M213.681 20.4737C213.669 19.9046 213.835 19.3459 214.155 18.8752C214.475 18.4044 214.933 18.0448 215.467 17.8461C216 17.6474 216.582 17.6195 217.132 17.7662C217.682 17.913 218.173 18.2271 218.537 18.6651L218.171 19.038C217.952 18.7752 217.681 18.5615 217.374 18.4111C217.067 18.2607 216.732 18.1769 216.39 18.1654C216.098 18.1717 215.81 18.2362 215.542 18.355C215.275 18.4739 215.034 18.6447 214.834 18.8576C214.634 19.0705 214.478 19.3212 214.375 19.595C214.272 19.8689 214.225 20.1604 214.237 20.4526C214.227 20.7491 214.277 21.0446 214.382 21.322C214.488 21.5993 214.647 21.8529 214.852 22.0682C215.056 22.2835 215.301 22.4562 215.572 22.5763C215.843 22.6964 216.136 22.7615 216.432 22.7679C216.778 22.758 217.118 22.673 217.428 22.5187C217.738 22.3643 218.011 22.1444 218.227 21.8741L218.579 22.1908C218.23 22.6554 217.743 22.997 217.187 23.1664C216.632 23.3357 216.037 23.3239 215.488 23.1328C214.94 22.9416 214.466 22.5809 214.136 22.1029C213.806 21.6249 213.637 21.0543 213.653 20.4737H213.681Z" fill="#122033"/>
<path d="M219.606 21.5715C219.606 20.4666 220.556 19.8403 221.936 19.8403C222.534 19.8341 223.131 19.9099 223.709 20.0655V19.8403C223.726 19.6103 223.692 19.3794 223.608 19.1646C223.523 18.9499 223.392 18.7569 223.223 18.6C223.054 18.4431 222.852 18.3263 222.631 18.2584C222.411 18.1905 222.178 18.1731 221.95 18.2076C221.366 18.2119 220.791 18.3567 220.275 18.6299L220.085 18.1865C220.672 17.8879 221.319 17.7289 221.978 17.722C222.284 17.7023 222.591 17.7437 222.881 17.844C223.171 17.9443 223.438 18.1014 223.667 18.3061C223.854 18.509 223.999 18.7475 224.092 19.0075C224.185 19.2675 224.225 19.5435 224.209 19.8192V23.1409H223.709V22.2542C223.478 22.5771 223.171 22.8384 222.815 23.0151C222.459 23.1918 222.065 23.2785 221.668 23.2675C220.697 23.2464 219.606 22.6834 219.606 21.5715ZM223.716 21.1211V20.5159C223.126 20.3594 222.518 20.279 221.907 20.2766C220.774 20.2766 220.148 20.7763 220.148 21.5223C220.148 22.2964 220.852 22.7468 221.696 22.7468C222.808 22.7679 223.737 22.0993 223.737 21.1211H223.716Z" fill="#122033"/>
<path d="M226.186 15.456H226.7V23.0916H226.186V15.456Z" fill="#122033"/>
<path d="M129.942 27.1944H130.463L133.876 34.5767H133.278L132.342 32.5218H128.021L127.085 34.5767H126.522L129.942 27.1944ZM132.117 32.0292L130.189 27.8067L128.253 32.0292H132.117Z" fill="#122033"/>
<path d="M134.89 33.9011L135.192 33.4929C135.737 33.9346 136.413 34.1822 137.113 34.1967C137.817 34.1967 138.394 33.7956 138.394 33.1833C138.394 32.557 137.726 32.3247 136.987 32.1136C136.114 31.8603 135.15 31.5999 135.15 30.6498C135.161 30.4345 135.216 30.2238 135.312 30.0307C135.408 29.8377 135.543 29.6665 135.708 29.5278C135.873 29.3892 136.065 29.286 136.272 29.2248C136.478 29.1636 136.695 29.1456 136.909 29.172C137.583 29.1863 138.238 29.3886 138.802 29.7561L138.535 30.1853C138.048 29.8552 137.476 29.6719 136.888 29.6575C136.185 29.6575 135.678 30.0516 135.678 30.5865C135.678 31.1847 136.382 31.4028 137.163 31.621C137.944 31.8391 138.922 32.1769 138.922 33.12C138.91 33.3457 138.852 33.5666 138.751 33.769C138.651 33.9714 138.51 34.151 138.337 34.2968C138.164 34.4425 137.963 34.5513 137.747 34.6164C137.53 34.6815 137.303 34.7015 137.078 34.6752C136.284 34.6626 135.515 34.3908 134.89 33.9011Z" fill="#122033"/>
<path d="M140.027 33.9011L140.337 33.4929C140.878 33.9355 141.552 34.1833 142.251 34.1967C142.955 34.1967 143.539 33.7955 143.539 33.1833C143.539 32.557 142.835 32.3247 142.131 32.1136C141.258 31.8602 140.301 31.5999 140.301 30.6498C140.312 30.4352 140.367 30.2251 140.463 30.0326C140.559 29.8401 140.693 29.6692 140.857 29.5307C141.021 29.3921 141.212 29.2888 141.418 29.2271C141.624 29.1654 141.84 29.1466 142.054 29.1719C142.729 29.1872 143.387 29.3894 143.954 29.7561L143.679 30.1853C143.192 29.8552 142.621 29.6719 142.033 29.6575C141.329 29.6575 140.822 30.0516 140.822 30.5865C140.822 31.1847 141.526 31.4028 142.307 31.621C143.088 31.8391 144.066 32.1769 144.066 33.12C144.054 33.3457 143.996 33.5666 143.896 33.769C143.795 33.9714 143.654 34.151 143.481 34.2968C143.308 34.4425 143.108 34.5513 142.891 34.6164C142.675 34.6815 142.447 34.7015 142.223 34.6752C141.426 34.6641 140.655 34.3922 140.027 33.9011Z" fill="#122033"/>
<path d="M145.368 31.9236C145.361 31.5572 145.426 31.193 145.561 30.8522C145.696 30.5115 145.898 30.201 146.154 29.9389C146.41 29.6769 146.716 29.4685 147.053 29.3259C147.391 29.1833 147.754 29.1095 148.12 29.1086C148.482 29.1086 148.841 29.1806 149.175 29.3204C149.509 29.4603 149.812 29.6652 150.066 29.9232C150.32 30.1813 150.52 30.4873 150.655 30.8235C150.79 31.1596 150.856 31.5192 150.851 31.8814C150.858 32.2478 150.792 32.612 150.658 32.9527C150.523 33.2935 150.321 33.604 150.065 33.866C149.809 34.1281 149.503 34.3365 149.166 34.4791C148.828 34.6216 148.465 34.6955 148.099 34.6963C147.736 34.6973 147.377 34.626 147.043 34.4865C146.708 34.3469 146.405 34.1421 146.151 33.8838C145.897 33.6256 145.696 33.3192 145.562 32.9826C145.428 32.646 145.362 32.286 145.368 31.9236ZM150.295 31.9236C150.305 31.6271 150.256 31.3316 150.151 31.0542C150.045 30.7769 149.886 30.5233 149.681 30.3084C149.477 30.0934 149.232 29.9214 148.96 29.8024C148.688 29.6834 148.395 29.6198 148.099 29.6153C147.804 29.6179 147.514 29.6797 147.243 29.7969C146.973 29.9142 146.73 30.0846 146.527 30.298C146.324 30.5114 146.166 30.7634 146.063 31.039C145.959 31.3147 145.912 31.6083 145.924 31.9025C145.914 32.1993 145.963 32.4952 146.068 32.7729C146.173 33.0507 146.333 33.3047 146.537 33.5202C146.741 33.7357 146.987 33.9084 147.258 34.0281C147.53 34.1479 147.823 34.2124 148.12 34.2178C148.415 34.2143 148.706 34.1516 148.976 34.0336C149.246 33.9155 149.49 33.7445 149.692 33.5305C149.895 33.3166 150.053 33.0641 150.156 32.7881C150.26 32.5121 150.307 32.2181 150.295 31.9236Z" fill="#122033"/>
<path d="M152.11 31.9236C152.099 31.1906 152.378 30.4829 152.887 29.9554C153.396 29.4279 154.094 29.1234 154.827 29.1086C155.229 29.1126 155.625 29.2026 155.989 29.3726C156.353 29.5425 156.677 29.7885 156.938 30.0939L156.572 30.4739C156.355 30.2094 156.083 29.9941 155.776 29.8425C155.469 29.6908 155.134 29.6062 154.791 29.5942C154.499 29.5996 154.21 29.6634 153.943 29.7819C153.675 29.9004 153.434 30.0713 153.233 30.2844C153.033 30.4974 152.877 30.7485 152.774 31.0228C152.672 31.297 152.626 31.5889 152.638 31.8814C152.629 32.1779 152.678 32.4734 152.784 32.7508C152.889 33.0281 153.049 33.2817 153.253 33.497C153.457 33.7123 153.702 33.885 153.973 34.0051C154.245 34.1252 154.537 34.1903 154.834 34.1967C155.178 34.1867 155.516 34.1022 155.825 33.9492C156.133 33.7961 156.405 33.578 156.621 33.31L156.98 33.6196C156.632 34.0842 156.144 34.4259 155.589 34.5952C155.033 34.7645 154.438 34.7527 153.889 34.5615C153.341 34.3704 152.867 34.0097 152.538 33.5317C152.208 33.0537 152.038 32.4831 152.054 31.9025L152.11 31.9236Z" fill="#122033"/>
<path d="M158.5 27.1452H159.141V27.8489H158.5V27.1452ZM158.564 29.2564H159.084V34.5978H158.571L158.564 29.2564Z" fill="#122033"/>
<path d="M160.703 33.0496C160.703 31.9447 161.653 31.3184 163.032 31.3184C163.631 31.3121 164.228 31.3879 164.806 31.5436V31.3184C164.823 31.0884 164.788 30.8574 164.704 30.6427C164.62 30.4279 164.489 30.2349 164.32 30.078C164.15 29.9211 163.948 29.8044 163.728 29.7364C163.507 29.6685 163.274 29.6512 163.046 29.6857C162.461 29.689 161.886 29.8364 161.371 30.115L161.181 29.6646C161.768 29.3642 162.416 29.2052 163.075 29.2001C163.381 29.1803 163.688 29.2218 163.978 29.3221C164.268 29.4224 164.535 29.5795 164.764 29.7842C164.951 29.9871 165.095 30.2256 165.189 30.4856C165.282 30.7455 165.321 31.0216 165.305 31.2972V34.626H164.806V33.6829C164.574 34.0059 164.267 34.2672 163.912 34.4439C163.556 34.6206 163.162 34.7073 162.765 34.6963C161.766 34.6963 160.703 34.1333 160.703 33.0496ZM164.813 32.5992V31.994C164.223 31.8375 163.615 31.757 163.004 31.7547C161.871 31.7547 161.245 32.2543 161.245 33.0003C161.245 33.7744 161.949 34.2248 162.793 34.2248C163.884 34.2178 164.813 33.5492 164.813 32.571V32.5992Z" fill="#122033"/>
<path d="M167.424 33.2044V29.6857H166.65V29.2142H167.424V27.5111H167.93V29.2142H169.809V29.6857H167.93V33.127C167.914 33.27 167.93 33.4149 167.978 33.5505C168.027 33.6861 168.106 33.8088 168.209 33.9089C168.313 34.009 168.438 34.0838 168.575 34.1276C168.712 34.1715 168.858 34.183 169 34.1615C169.273 34.1603 169.543 34.0978 169.788 33.9785V34.4571C169.516 34.5866 169.217 34.6516 168.916 34.6471C168.719 34.6657 168.521 34.6417 168.335 34.5765C168.149 34.5113 167.979 34.4065 167.837 34.2694C167.696 34.1323 167.585 33.9661 167.514 33.7823C167.442 33.5984 167.412 33.4013 167.424 33.2044Z" fill="#122033"/>
<path d="M171.379 27.1452H172.012V27.8489H171.379V27.1452ZM171.442 29.2564H171.956V34.5978H171.442V29.2564Z" fill="#122033"/>
<path d="M173.645 31.9236C173.645 31.1957 173.934 30.4976 174.449 29.9829C174.963 29.4682 175.661 29.179 176.389 29.179C177.117 29.179 177.815 29.4682 178.33 29.9829C178.845 30.4976 179.134 31.1957 179.134 31.9236C179.134 32.6515 178.845 33.3496 178.33 33.8643C177.815 34.379 177.117 34.6682 176.389 34.6682C175.661 34.6682 174.963 34.379 174.449 33.8643C173.934 33.3496 173.645 32.6515 173.645 31.9236ZM178.571 31.9236C178.581 31.6271 178.532 31.3316 178.427 31.0542C178.322 30.7769 178.162 30.5233 177.958 30.3084C177.753 30.0934 177.508 29.9214 177.236 29.8024C176.965 29.6834 176.672 29.6198 176.375 29.6153C176.081 29.6179 175.789 29.6796 175.519 29.7968C175.248 29.914 175.004 30.0843 174.801 30.2976C174.597 30.5109 174.439 30.7628 174.335 31.0385C174.23 31.3142 174.182 31.608 174.194 31.9025C174.183 32.1993 174.232 32.4952 174.337 32.7729C174.443 33.0507 174.602 33.3047 174.806 33.5202C175.011 33.7357 175.256 33.9084 175.528 34.0281C175.8 34.1479 176.092 34.2124 176.389 34.2178C176.685 34.2162 176.978 34.1549 177.25 34.0377C177.521 33.9205 177.767 33.7497 177.971 33.5356C178.175 33.3214 178.334 33.0683 178.439 32.7914C178.543 32.5144 178.59 32.2193 178.578 31.9236H178.571Z" fill="#122033"/>
<path d="M180.753 29.2353H181.266V30.2346C181.451 29.8868 181.73 29.5976 182.071 29.3999C182.411 29.2021 182.801 29.1037 183.195 29.1157C183.483 29.1037 183.771 29.1532 184.038 29.2609C184.306 29.3686 184.548 29.532 184.747 29.7404C184.947 29.9487 185.1 30.1972 185.196 30.4693C185.293 30.7413 185.33 31.0308 185.306 31.3184V34.5837H184.792V31.4099C184.82 31.1746 184.796 30.9361 184.723 30.711C184.649 30.4858 184.527 30.2794 184.366 30.1059C184.205 29.9325 184.007 29.7963 183.788 29.7067C183.569 29.6171 183.333 29.5763 183.096 29.5872C182.847 29.5841 182.601 29.6317 182.371 29.7272C182.141 29.8227 181.933 29.964 181.76 30.1425C181.587 30.321 181.452 30.5329 181.363 30.7653C181.275 30.9978 181.235 31.2458 181.245 31.4943V34.5837H180.731L180.753 29.2353Z" fill="#122033"/>
<path d="M59.7437 34.3805C59.5255 33.3882 59.3707 32.5367 59.2863 31.8188C59.1932 31.093 59.1461 30.362 59.1455 29.6302C58.016 31.211 56.5405 32.5132 54.8316 33.4375C52.975 34.4588 50.884 34.9779 48.7653 34.9435C45.9081 34.9435 43.6983 34.2069 42.136 32.7337C41.3402 31.955 40.7195 31.0155 40.3154 29.9779C39.9113 28.9404 39.7331 27.8286 39.7926 26.7167C39.7659 25.4383 40.0724 24.1749 40.682 23.0509C41.2915 21.9268 42.1831 20.9807 43.2691 20.3056C45.582 18.7245 48.7278 17.9316 52.7063 17.9269H59.1526V14.0775C59.2027 13.1592 59.0488 12.2412 58.702 11.3895C58.3553 10.5378 57.8242 9.77337 57.1469 9.15126C55.8098 7.96897 53.9308 7.37079 51.5169 7.37079C50.0134 7.35567 48.517 7.57895 47.0834 8.03231C45.8613 8.41356 44.7223 9.02244 43.7265 9.82686L43.4591 13.7397H40.7848V8.10972C42.2484 7.00468 43.8843 6.1487 45.6266 5.57625C47.5572 4.92074 49.5837 4.59249 51.6225 4.60509C54.8456 4.60509 57.4284 5.42142 59.3637 7.05411C61.299 8.68679 62.2983 11.0373 62.2983 14.0915V28.4409C62.2983 29.032 62.3124 29.6021 62.3405 30.151C62.3663 30.6889 62.425 31.2248 62.5164 31.7555L65.4299 31.9455V34.3171L59.7437 34.3805ZM49.1172 32.0863C51.287 32.1297 53.4262 31.5693 55.296 30.4677C56.9765 29.4986 58.3218 28.0404 59.1526 26.2874V20.4393H52.65C49.7224 20.4393 47.3766 21.0469 45.6125 22.262C44.8147 22.7371 44.1523 23.4092 43.689 24.2139C43.2256 25.0187 42.9768 25.9289 42.9665 26.8575C42.9422 27.5699 43.076 28.279 43.3583 28.9336C43.6406 29.5882 44.0643 30.1722 44.5991 30.6436C45.8711 31.6737 47.4836 32.1885 49.1172 32.0863Z" fill="#122033"/>
<path d="M66.8937 20.0311C66.8937 15.377 67.886 11.6519 69.8706 8.85569C70.7778 7.5085 72.0127 6.41415 73.4592 5.67551C74.9057 4.93686 76.5163 4.5782 78.1396 4.63323C80.0223 4.58571 81.8819 5.0555 83.5162 5.99146C85.0721 6.9357 86.3647 8.2573 87.2741 9.83389L87.6542 5.16808H90.3776V33.9653C90.3776 37.7186 89.3619 40.6837 87.3304 42.8606C85.299 45.0375 82.4746 46.1377 78.8574 46.1611C77.3467 46.1501 75.8416 45.9778 74.3675 45.6474C72.9252 45.355 71.5254 44.8822 70.2013 44.2399L71.0669 41.5164C72.2453 42.0752 73.4789 42.5092 74.7475 42.8113C76.0788 43.1206 77.4414 43.2741 78.8081 43.2688C81.5762 43.2688 83.6592 42.4501 85.0574 40.8127C86.4555 39.1753 87.1592 36.9022 87.1686 33.9934V30.3058C86.2317 31.7511 84.9436 32.9351 83.4247 33.7471C81.7782 34.5747 79.9537 34.9855 78.1114 34.9435C76.5259 35.0108 74.9478 34.6903 73.5142 34.0096C72.0806 33.329 70.8347 32.3089 69.8846 31.0377C67.8907 28.4291 66.8937 24.9503 66.8937 20.6012V20.0311ZM70.131 20.6012C70.131 24.1058 70.8347 26.9044 72.2422 28.9968C73.6497 31.0893 75.7844 32.1379 78.6462 32.1426C80.4964 32.2182 82.3256 31.7272 83.8891 30.7351C85.3103 29.7481 86.4268 28.3829 87.1123 26.7941V13.24C86.4521 11.6101 85.3862 10.176 84.0158 9.07385C82.4809 7.94596 80.6052 7.37952 78.7025 7.46931C77.4115 7.41362 76.1298 7.71202 74.996 8.33222C73.8623 8.95242 72.9198 9.8708 72.2703 10.988C70.8206 13.3338 70.0981 16.3529 70.1028 20.0452L70.131 20.6012Z" fill="#122033"/>
<path d="M114.586 34.3805C114.368 33.3882 114.213 32.5367 114.129 31.8188C114.036 31.093 113.989 30.362 113.988 29.6302C112.859 31.211 111.383 32.5132 109.674 33.4375C107.818 34.4588 105.727 34.9779 103.608 34.9435C100.751 34.9435 98.5411 34.2069 96.9788 32.7337C96.1866 31.9582 95.568 31.0233 95.1641 29.9909C94.7601 28.9585 94.5798 27.8521 94.6353 26.7449C94.6087 25.4664 94.9152 24.2031 95.5247 23.079C96.1343 21.9549 97.0258 21.0088 98.1118 20.3337C100.429 18.7527 103.575 17.9598 107.549 17.9551H113.988V14.1056C114.038 13.1874 113.885 12.2694 113.538 11.4177C113.191 10.5659 112.66 9.80153 111.983 9.17942C110.645 7.99713 108.766 7.39895 106.353 7.39895C104.849 7.38383 103.353 7.60711 101.919 8.06047C100.697 8.44172 99.558 9.05059 98.5622 9.85501L98.2948 13.7678H95.6206V8.13788C97.0841 7.03284 98.72 6.17684 100.462 5.6044C102.393 4.94889 104.419 4.62064 106.458 4.63323C109.681 4.63323 112.264 5.44958 114.199 7.08227C116.135 8.71495 117.134 11.0655 117.134 14.1197V28.469C117.134 29.0602 117.148 29.6302 117.176 30.1791C117.202 30.7171 117.261 31.2529 117.352 31.7837L120.266 31.9737V34.3453L114.586 34.3805ZM103.96 32.0863C106.13 32.1297 108.269 31.5693 110.139 30.4677C111.817 29.4975 113.159 28.0394 113.988 26.2874V20.4393H107.493C104.565 20.4393 102.219 21.0469 100.455 22.262C99.6666 22.7431 99.014 23.4179 98.5595 24.2222C98.105 25.0265 97.8637 25.9336 97.8585 26.8575C97.8342 27.5699 97.968 28.279 98.2503 28.9336C98.5326 29.5882 98.9563 30.1722 99.4911 30.6436C100.75 31.6619 102.343 32.1761 103.96 32.0863Z" fill="#122033"/>
<path d="M59.7437 34.3805C59.5255 33.3882 59.3707 32.5367 59.2863 31.8188C59.1932 31.093 59.1461 30.362 59.1455 29.6302C58.016 31.211 56.5405 32.5132 54.8316 33.4375C52.975 34.4588 50.884 34.9779 48.7653 34.9435C45.9081 34.9435 43.6983 34.2069 42.136 32.7337C41.3402 31.955 40.7195 31.0155 40.3154 29.9779C39.9113 28.9404 39.7331 27.8286 39.7926 26.7167C39.7659 25.4383 40.0724 24.1749 40.682 23.0509C41.2915 21.9268 42.1831 20.9807 43.2691 20.3056C45.582 18.7245 48.7278 17.9316 52.7063 17.9269H59.1526V14.0775C59.2027 13.1592 59.0488 12.2412 58.702 11.3895C58.3553 10.5378 57.8242 9.77337 57.1469 9.15126C55.8098 7.96897 53.9308 7.37079 51.5169 7.37079C50.0134 7.35567 48.517 7.57895 47.0834 8.03231C45.8613 8.41356 44.7223 9.02244 43.7265 9.82686L43.4591 13.7397H40.7848V8.10972C42.2484 7.00468 43.8843 6.1487 45.6266 5.57625C47.5572 4.92074 49.5837 4.59249 51.6225 4.60509C54.8456 4.60509 57.4284 5.42142 59.3637 7.05411C61.299 8.68679 62.2983 11.0373 62.2983 14.0915V28.4409C62.2983 29.032 62.3124 29.6021 62.3405 30.151C62.3663 30.6889 62.425 31.2248 62.5164 31.7555L65.4299 31.9455V34.3171L59.7437 34.3805ZM49.1172 32.0863C51.287 32.1297 53.4262 31.5693 55.296 30.4677C56.9765 29.4986 58.3218 28.0404 59.1526 26.2874V20.4393H52.65C49.7224 20.4393 47.3766 21.0469 45.6125 22.262C44.8147 22.7371 44.1523 23.4092 43.689 24.2139C43.2256 25.0187 42.9768 25.9289 42.9665 26.8575C42.9422 27.5699 43.076 28.279 43.3583 28.9336C43.6406 29.5882 44.0643 30.1722 44.5991 30.6436C45.8711 31.6737 47.4836 32.1885 49.1172 32.0863Z" stroke="#122033" stroke-width="0.74" stroke-miterlimit="10"/>
<path d="M66.8937 20.0311C66.8937 15.377 67.886 11.6519 69.8706 8.85569C70.7778 7.5085 72.0127 6.41415 73.4592 5.67551C74.9057 4.93686 76.5163 4.5782 78.1396 4.63323C80.0223 4.58571 81.8819 5.0555 83.5162 5.99146C85.0721 6.9357 86.3647 8.2573 87.2741 9.83389L87.6542 5.16808H90.3776V33.9653C90.3776 37.7186 89.3619 40.6837 87.3304 42.8606C85.299 45.0375 82.4746 46.1377 78.8574 46.1611C77.3467 46.1501 75.8416 45.9778 74.3675 45.6474C72.9252 45.355 71.5254 44.8822 70.2013 44.2399L71.0669 41.5164C72.2453 42.0752 73.4789 42.5092 74.7475 42.8113C76.0788 43.1206 77.4414 43.2741 78.8081 43.2688C81.5762 43.2688 83.6592 42.4501 85.0574 40.8127C86.4555 39.1753 87.1592 36.9022 87.1686 33.9934V30.3058C86.2317 31.7511 84.9436 32.9351 83.4247 33.7471C81.7782 34.5747 79.9537 34.9855 78.1114 34.9435C76.5259 35.0108 74.9478 34.6903 73.5142 34.0096C72.0806 33.329 70.8347 32.3089 69.8846 31.0377C67.8907 28.4291 66.8937 24.9503 66.8937 20.6012V20.0311ZM70.131 20.6012C70.131 24.1058 70.8347 26.9044 72.2422 28.9968C73.6497 31.0893 75.7844 32.1379 78.6462 32.1426C80.4964 32.2182 82.3256 31.7272 83.8891 30.7351C85.3103 29.7481 86.4268 28.3829 87.1123 26.7941V13.24C86.4521 11.6101 85.3862 10.176 84.0158 9.07385C82.4809 7.94596 80.6052 7.37952 78.7025 7.46931C77.4115 7.41362 76.1298 7.71202 74.996 8.33222C73.8623 8.95242 72.9198 9.8708 72.2703 10.988C70.8206 13.3338 70.0981 16.3529 70.1028 20.0452L70.131 20.6012Z" stroke="#122033" stroke-width="0.74" stroke-miterlimit="10"/>
<path d="M114.586 34.3805C114.368 33.3882 114.213 32.5367 114.129 31.8188C114.036 31.093 113.989 30.362 113.988 29.6302C112.859 31.211 111.383 32.5132 109.674 33.4375C107.818 34.4588 105.727 34.9779 103.608 34.9435C100.751 34.9435 98.5411 34.2069 96.9788 32.7337C96.1866 31.9582 95.568 31.0233 95.1641 29.9909C94.7601 28.9585 94.5798 27.8521 94.6353 26.7449C94.6087 25.4664 94.9152 24.2031 95.5247 23.079C96.1343 21.9549 97.0258 21.0088 98.1118 20.3337C100.429 18.7527 103.575 17.9598 107.549 17.9551H113.988V14.1056C114.038 13.1874 113.885 12.2694 113.538 11.4177C113.191 10.5659 112.66 9.80153 111.983 9.17942C110.645 7.99713 108.766 7.39895 106.353 7.39895C104.849 7.38383 103.353 7.60711 101.919 8.06047C100.697 8.44172 99.558 9.05059 98.5622 9.85501L98.2948 13.7678H95.6206V8.13788C97.0841 7.03284 98.72 6.17684 100.462 5.6044C102.393 4.94889 104.419 4.62064 106.458 4.63323C109.681 4.63323 112.264 5.44958 114.199 7.08227C116.135 8.71495 117.134 11.0655 117.134 14.1197V28.469C117.134 29.0602 117.148 29.6302 117.176 30.1791C117.202 30.7171 117.261 31.2529 117.352 31.7837L120.266 31.9737V34.3453L114.586 34.3805ZM103.96 32.0863C106.13 32.1297 108.269 31.5693 110.139 30.4677C111.817 29.4975 113.159 28.0394 113.988 26.2874V20.4393H107.493C104.565 20.4393 102.219 21.0469 100.455 22.262C99.6666 22.7431 99.014 23.4179 98.5595 24.2222C98.105 25.0265 97.8637 25.9336 97.8585 26.8575C97.8342 27.5699 97.968 28.279 98.2503 28.9336C98.5326 29.5882 98.9563 30.1722 99.4911 30.6436C100.75 31.6619 102.343 32.1761 103.96 32.0863Z" stroke="#122033" stroke-width="0.74" stroke-miterlimit="10"/>
</svg>
