<svg width="281" height="43" viewBox="0 0 281 43" fill="none" xmlns="http://www.w3.org/2000/svg">
<path d="M138.912 19.0546H134.923V18.5746C135.274 18.5511 135.567 18.5082 135.799 18.4397C136.03 18.3711 136.148 18.2875 136.148 18.189C136.148 18.1483 136.144 18.099 136.135 18.039C136.127 17.9812 136.114 17.9276 136.095 17.8826L135.3 15.7315H131.929C131.803 16.0464 131.7 16.3228 131.621 16.5564C131.542 16.792 131.471 17.0084 131.407 17.2056C131.349 17.3984 131.308 17.5569 131.285 17.6791C131.261 17.8012 131.25 17.8997 131.25 17.9769C131.25 18.1569 131.392 18.2961 131.677 18.3947C131.962 18.4932 132.281 18.5532 132.636 18.5704V19.0503H129.022V18.5704C129.14 18.5618 129.286 18.5361 129.461 18.4932C129.637 18.4504 129.78 18.3925 129.894 18.3218C130.074 18.1997 130.213 18.0733 130.312 17.9405C130.41 17.8076 130.509 17.6234 130.603 17.3898C131.085 16.1857 131.617 14.8338 132.199 13.3318C132.78 11.8299 133.298 10.4929 133.755 9.32097H134.297L137.496 17.5998C137.564 17.7755 137.641 17.9169 137.725 18.0262C137.811 18.1333 137.931 18.2404 138.083 18.3433C138.186 18.4054 138.323 18.459 138.488 18.5018C138.655 18.5447 138.794 18.5682 138.908 18.5725V19.0546H138.912ZM135.051 15.1316L133.596 11.4078L132.163 15.1316H135.051Z" fill="#009BDE"/>
<path d="M147.247 19.0546V18.6068C147.349 18.5982 147.454 18.5896 147.561 18.5789C147.669 18.5704 147.761 18.5511 147.842 18.5254C147.969 18.4847 148.061 18.414 148.123 18.3133C148.183 18.2104 148.215 18.0797 148.215 17.9169V14.4738C148.215 14.0046 148.108 13.6425 147.894 13.3875C147.679 13.1326 147.411 13.0062 147.092 13.0062C146.872 13.0062 146.664 13.0404 146.469 13.109C146.276 13.1754 146.096 13.2718 145.935 13.394C145.805 13.4925 145.695 13.5996 145.607 13.7153C145.52 13.831 145.453 13.9253 145.408 14.0024V17.8505C145.408 18.009 145.436 18.1376 145.49 18.2383C145.543 18.3411 145.635 18.4182 145.766 18.4718C145.869 18.5125 145.963 18.5425 146.047 18.5639C146.13 18.5832 146.24 18.5982 146.374 18.6068V19.0524H143.195V18.6068C143.298 18.5982 143.398 18.5896 143.497 18.5789C143.593 18.5704 143.683 18.5511 143.765 18.5254C143.891 18.4847 143.986 18.414 144.046 18.3133C144.106 18.2104 144.138 18.0797 144.138 17.9169V14.4738C144.138 14.0046 144.031 13.6425 143.816 13.3875C143.602 13.1326 143.334 13.0062 143.013 13.0062C142.79 13.0062 142.582 13.0404 142.389 13.1111C142.194 13.1818 142.017 13.2761 141.854 13.3982C141.723 13.4968 141.612 13.6082 141.522 13.7325C141.432 13.8568 141.363 13.951 141.318 14.0132V17.8355C141.318 17.9897 141.35 18.1183 141.412 18.2211C141.474 18.324 141.571 18.4032 141.697 18.4568C141.792 18.5018 141.89 18.5361 141.989 18.5575C142.087 18.5811 142.199 18.5961 142.321 18.6046V19.0503H139.081V18.6068C139.184 18.5982 139.291 18.5896 139.403 18.5789C139.514 18.5704 139.608 18.5511 139.69 18.5254C139.816 18.4847 139.908 18.414 139.97 18.3133C140.033 18.2126 140.063 18.0797 140.063 17.919V13.7775C140.063 13.6339 140.03 13.5032 139.964 13.3897C139.9 13.274 139.808 13.1776 139.69 13.0961C139.604 13.0426 139.497 12.9976 139.37 12.9633C139.244 12.929 139.113 12.9076 138.978 12.899V12.4534L141.211 12.3034L141.305 12.3977V13.3511H141.352C141.466 13.2376 141.603 13.1047 141.766 12.9526C141.929 12.7983 142.079 12.6762 142.22 12.5798C142.379 12.4727 142.576 12.3827 142.811 12.3098C143.047 12.2391 143.304 12.2027 143.578 12.2027C144.011 12.2027 144.384 12.3184 144.695 12.5519C145.005 12.7833 145.23 13.064 145.365 13.394C145.528 13.2354 145.67 13.0961 145.794 12.9783C145.918 12.8583 146.081 12.7319 146.285 12.5969C146.456 12.4791 146.657 12.3848 146.889 12.312C147.12 12.2413 147.377 12.2048 147.662 12.2048C148.226 12.2048 148.671 12.3891 148.999 12.7598C149.327 13.1304 149.492 13.6982 149.492 14.4631V17.8526C149.492 18.0112 149.52 18.1397 149.573 18.2404C149.627 18.3433 149.719 18.4204 149.852 18.474C149.955 18.5147 150.058 18.5447 150.16 18.5661C150.261 18.5854 150.375 18.6004 150.501 18.6089V19.0546H147.247Z" fill="#009BDE"/>
<path d="M157.209 17.4841C156.929 18.0154 156.556 18.4397 156.087 18.7568C155.617 19.0739 155.08 19.2303 154.469 19.2303C153.933 19.2303 153.462 19.136 153.059 18.9453C152.656 18.7568 152.324 18.4997 152.061 18.174C151.799 17.8505 151.604 17.4712 151.476 17.0384C151.347 16.6056 151.283 16.1471 151.283 15.6651C151.283 15.2323 151.352 14.808 151.489 14.3902C151.626 13.9724 151.829 13.5975 152.095 13.2633C152.352 12.944 152.671 12.6848 153.053 12.4877C153.434 12.2905 153.861 12.1941 154.334 12.1941C154.82 12.1941 155.238 12.2713 155.585 12.4234C155.932 12.5776 156.213 12.7855 156.429 13.0512C156.637 13.304 156.792 13.6018 156.892 13.9446C156.993 14.2874 157.044 14.6602 157.044 15.0609V15.5065H152.629C152.629 15.9457 152.669 16.3421 152.753 16.6999C152.836 17.0577 152.967 17.3705 153.149 17.6426C153.325 17.904 153.554 18.1119 153.839 18.2618C154.124 18.414 154.463 18.4889 154.855 18.4889C155.255 18.4889 155.602 18.3947 155.894 18.2061C156.185 18.0176 156.466 17.6791 156.736 17.1884L157.209 17.4841ZM155.714 14.9409C155.714 14.6902 155.692 14.4202 155.65 14.131C155.607 13.8439 155.538 13.6039 155.444 13.409C155.341 13.2033 155.198 13.034 155.018 12.9033C154.838 12.7726 154.604 12.7083 154.321 12.7083C153.848 12.7083 153.456 12.9055 153.141 13.2975C152.828 13.6896 152.656 14.2381 152.631 14.9387H155.714V14.9409Z" fill="#009BDE"/>
<path d="M163.086 13.244C163.086 13.4732 163.031 13.6789 162.917 13.8568C162.806 14.0346 162.63 14.1246 162.396 14.1246C162.144 14.1246 161.951 14.0582 161.818 13.9275C161.685 13.7968 161.619 13.6532 161.619 13.4947C161.619 13.3961 161.627 13.3061 161.642 13.2247C161.657 13.1433 161.672 13.0619 161.687 12.9804C161.475 12.9804 161.227 13.0661 160.944 13.2376C160.659 13.409 160.419 13.6532 160.22 13.9682V17.8505C160.22 18.009 160.25 18.1376 160.312 18.2361C160.372 18.3347 160.468 18.4097 160.599 18.459C160.712 18.5039 160.858 18.5382 161.036 18.5597C161.214 18.5832 161.368 18.5982 161.499 18.6068V19.0524H157.981V18.6068C158.084 18.5982 158.191 18.5896 158.302 18.5789C158.413 18.5704 158.508 18.5511 158.589 18.5254C158.716 18.4847 158.808 18.414 158.87 18.3133C158.932 18.2126 158.962 18.0797 158.962 17.919V13.8053C158.962 13.6661 158.93 13.5289 158.863 13.394C158.799 13.259 158.707 13.1497 158.589 13.0704C158.503 13.0169 158.403 12.9762 158.285 12.9526C158.167 12.929 158.041 12.9119 157.906 12.9033V12.4577L160.123 12.3077L160.218 12.402V13.3425H160.252C160.532 12.9762 160.843 12.6998 161.186 12.5112C161.529 12.3227 161.842 12.2263 162.127 12.2263C162.412 12.2263 162.641 12.3184 162.821 12.5027C162.999 12.6848 163.086 12.9333 163.086 13.244Z" fill="#009BDE"/>
<path d="M166.887 19.0546H163.667V18.6068C163.77 18.5982 163.877 18.5896 163.988 18.5789C164.1 18.5704 164.194 18.5511 164.276 18.5254C164.402 18.4847 164.494 18.414 164.556 18.3133C164.616 18.2126 164.646 18.0797 164.646 17.919V13.8053C164.646 13.6618 164.614 13.5289 164.548 13.409C164.483 13.289 164.391 13.1904 164.273 13.109C164.188 13.0554 164.063 13.0083 163.901 12.9697C163.738 12.9312 163.59 12.9076 163.455 12.899V12.4534L165.81 12.3034L165.904 12.3977V17.8355C165.904 17.994 165.934 18.1247 165.994 18.2276C166.054 18.3304 166.148 18.4075 166.279 18.4568C166.377 18.4975 166.474 18.5297 166.568 18.5554C166.662 18.5789 166.767 18.5961 166.883 18.6046V19.0546H166.887ZM166.043 9.67235C166.043 9.92945 165.96 10.1544 165.79 10.3451C165.621 10.5379 165.413 10.6322 165.165 10.6322C164.935 10.6322 164.734 10.5401 164.567 10.358C164.398 10.1758 164.314 9.96588 164.314 9.73234C164.314 9.4838 164.4 9.2674 164.567 9.08314C164.736 8.89888 164.935 8.80676 165.165 8.80676C165.422 8.80676 165.632 8.8946 165.797 9.06815C165.96 9.24169 166.043 9.44309 166.043 9.67235Z" fill="#009BDE"/>
<path d="M170.797 19.2303C169.833 19.2303 169.077 18.911 168.533 18.2704C167.986 17.6298 167.714 16.7706 167.714 15.6929C167.714 15.2237 167.787 14.7845 167.935 14.3774C168.081 13.9682 168.295 13.5975 168.573 13.2633C168.839 12.944 169.173 12.6848 169.574 12.4877C169.975 12.2905 170.414 12.1941 170.887 12.1941C171.541 12.1941 172.074 12.3505 172.484 12.6633C172.893 12.9762 173.099 13.4047 173.099 13.9446C173.099 14.1696 173.045 14.3688 172.936 14.5424C172.826 14.7159 172.649 14.8038 172.4 14.8038C172.134 14.8038 171.929 14.7373 171.781 14.6024C171.635 14.4674 171.562 14.3174 171.562 14.1503C171.562 13.9489 171.59 13.7411 171.644 13.5268C171.697 13.3125 171.729 13.1561 171.738 13.0576C171.657 12.9183 171.537 12.8262 171.376 12.7769C171.215 12.7298 171.044 12.7062 170.86 12.7062C170.643 12.7062 170.438 12.7512 170.243 12.8455C170.048 12.9397 169.857 13.109 169.673 13.3554C169.505 13.5804 169.371 13.8846 169.268 14.2681C169.165 14.6516 169.113 15.108 169.113 15.6415C169.113 16.4814 169.3 17.1649 169.67 17.6941C170.041 18.2233 170.53 18.4889 171.132 18.4889C171.569 18.4889 171.933 18.3818 172.229 18.1697C172.524 17.9555 172.796 17.6362 173.049 17.2098L173.482 17.4948C173.184 18.0262 172.792 18.4482 172.306 18.7589C171.819 19.0739 171.316 19.2303 170.797 19.2303Z" fill="#009BDE"/>
<path d="M180.321 18.9325C180.109 19.0096 179.923 19.0717 179.764 19.1189C179.603 19.166 179.423 19.1896 179.22 19.1896C178.868 19.1896 178.588 19.1081 178.378 18.9432C178.168 18.7782 178.033 18.5382 177.975 18.2233H177.934C177.641 18.5468 177.326 18.7953 176.992 18.9667C176.655 19.1381 176.25 19.2238 175.777 19.2238C175.275 19.2238 174.864 19.0696 174.543 18.7632C174.219 18.4568 174.058 18.0562 174.058 17.5591C174.058 17.302 174.095 17.0727 174.168 16.8692C174.238 16.6656 174.348 16.4835 174.491 16.3207C174.605 16.1857 174.753 16.0657 174.937 15.9586C175.121 15.8536 175.295 15.7679 175.457 15.7058C175.661 15.6286 176.072 15.4872 176.692 15.2794C177.311 15.0716 177.731 14.9087 177.947 14.793V14.1224C177.947 14.0646 177.934 13.951 177.911 13.7839C177.885 13.6168 177.834 13.4604 177.752 13.3104C177.662 13.1433 177.534 12.9976 177.371 12.8733C177.206 12.7491 176.972 12.6869 176.67 12.6869C176.462 12.6869 176.27 12.7212 176.092 12.7919C175.914 12.8626 175.787 12.9355 175.717 13.0104C175.717 13.1004 175.738 13.2333 175.781 13.409C175.824 13.5846 175.845 13.7475 175.845 13.8953C175.845 14.0539 175.775 14.1974 175.633 14.3281C175.492 14.4588 175.293 14.5252 175.042 14.5252C174.817 14.5252 174.65 14.446 174.545 14.2853C174.438 14.1246 174.386 13.9467 174.386 13.7475C174.386 13.5397 174.459 13.3425 174.605 13.1519C174.75 12.9633 174.941 12.794 175.177 12.6441C175.38 12.5177 175.627 12.4105 175.914 12.3227C176.203 12.2348 176.484 12.1898 176.76 12.1898C177.139 12.1898 177.469 12.2156 177.752 12.267C178.033 12.3184 178.29 12.4298 178.519 12.6012C178.748 12.7683 178.924 12.9954 179.042 13.2804C179.16 13.5654 179.222 13.936 179.222 14.386C179.222 15.0309 179.216 15.6029 179.203 16.1C179.19 16.5992 179.181 17.1434 179.181 17.7348C179.181 17.9105 179.211 18.0497 179.273 18.1526C179.336 18.2576 179.428 18.3454 179.554 18.4161C179.62 18.4568 179.73 18.4782 179.875 18.4825C180.021 18.4868 180.171 18.4889 180.325 18.4889V18.9325H180.321ZM177.96 15.3608C177.576 15.4744 177.24 15.5836 176.953 15.6929C176.664 15.8022 176.396 15.9372 176.147 16.1C175.922 16.2543 175.745 16.4364 175.614 16.6464C175.483 16.8563 175.417 17.107 175.417 17.3941C175.417 17.769 175.515 18.0454 175.71 18.2211C175.907 18.3968 176.156 18.4847 176.458 18.4847C176.777 18.4847 177.06 18.4075 177.302 18.2511C177.546 18.0947 177.752 17.9105 177.917 17.6983L177.96 15.3608Z" fill="#009BDE"/>
<path d="M188.349 19.0546H185.088V18.6068C185.191 18.5982 185.307 18.5896 185.429 18.5789C185.553 18.5704 185.656 18.5511 185.737 18.5254C185.864 18.4847 185.956 18.414 186.018 18.3133C186.08 18.2104 186.11 18.0797 186.11 17.9169V14.4888C186.11 14.0153 185.999 13.6511 185.774 13.394C185.549 13.1369 185.277 13.0083 184.958 13.0083C184.718 13.0083 184.499 13.0447 184.3 13.1197C184.101 13.1947 183.925 13.2847 183.771 13.394C183.621 13.4968 183.503 13.6082 183.415 13.7282C183.327 13.8482 183.263 13.9425 183.222 14.0153V17.8505C183.222 18.0047 183.254 18.1311 183.316 18.2297C183.379 18.3283 183.475 18.4054 183.601 18.459C183.696 18.5039 183.798 18.5382 183.91 18.5597C184.021 18.5832 184.135 18.5982 184.251 18.6068V19.0524H180.983V18.6068C181.086 18.5982 181.193 18.5896 181.305 18.5789C181.416 18.5704 181.51 18.5511 181.592 18.5254C181.718 18.4847 181.81 18.414 181.872 18.3133C181.934 18.2126 181.964 18.0797 181.964 17.919V13.8053C181.964 13.6511 181.932 13.5118 181.866 13.3832C181.802 13.2547 181.709 13.1497 181.592 13.0683C181.506 13.0147 181.405 12.974 181.287 12.9505C181.17 12.9269 181.043 12.9097 180.908 12.9012V12.4555L183.126 12.3055L183.22 12.3998V13.3404H183.254C183.361 13.2311 183.499 13.1026 183.659 12.9505C183.822 12.8005 183.974 12.6762 184.12 12.5819C184.287 12.4748 184.484 12.3848 184.715 12.312C184.945 12.2413 185.204 12.2048 185.493 12.2048C186.134 12.2048 186.607 12.4041 186.916 12.8026C187.224 13.2011 187.379 13.7325 187.379 14.3945V17.8633C187.379 18.0219 187.407 18.1483 187.46 18.2447C187.514 18.3411 187.606 18.4161 187.736 18.4718C187.846 18.5168 187.938 18.5489 188.017 18.5661C188.096 18.5854 188.206 18.5982 188.345 18.6068V19.0546H188.349Z" fill="#009BDE"/>
<path d="M201.633 19.0546H197.644V18.5746C197.995 18.5511 198.289 18.5082 198.52 18.4397C198.751 18.3711 198.869 18.2875 198.869 18.189C198.869 18.1483 198.865 18.099 198.856 18.039C198.848 17.9812 198.835 17.9276 198.816 17.8826L198.021 15.7315H194.65C194.524 16.0464 194.421 16.3228 194.342 16.5564C194.263 16.792 194.192 17.0084 194.128 17.2056C194.07 17.3984 194.029 17.5569 194.006 17.6791C193.982 17.8012 193.971 17.8997 193.971 17.9769C193.971 18.1569 194.113 18.2961 194.398 18.3947C194.683 18.4932 195.002 18.5532 195.358 18.5704V19.0503H191.743V18.5704C191.861 18.5618 192.007 18.5361 192.182 18.4932C192.358 18.4504 192.502 18.3925 192.615 18.3218C192.795 18.1997 192.934 18.0733 193.033 17.9405C193.131 17.8076 193.23 17.6234 193.324 17.3898C193.806 16.1857 194.338 14.8338 194.92 13.3318C195.501 11.8299 196.02 10.4929 196.476 9.32097H197.018L200.219 17.5998C200.288 17.7755 200.365 17.9169 200.448 18.0262C200.534 18.1333 200.654 18.2404 200.806 18.3433C200.909 18.4054 201.046 18.459 201.211 18.5018C201.378 18.5447 201.517 18.5682 201.631 18.5725V19.0546H201.633ZM197.772 15.1316L196.317 11.4078L194.884 15.1316H197.772Z" fill="#009BDE"/>
<path d="M204.888 19.2303C203.923 19.2303 203.167 18.911 202.623 18.2704C202.077 17.6298 201.804 16.7706 201.804 15.6929C201.804 15.2237 201.877 14.7845 202.025 14.3774C202.171 13.9682 202.385 13.5975 202.664 13.2633C202.929 12.944 203.264 12.6848 203.664 12.4877C204.065 12.2905 204.504 12.1941 204.978 12.1941C205.631 12.1941 206.165 12.3505 206.574 12.6633C206.983 12.9762 207.189 13.4047 207.189 13.9446C207.189 14.1696 207.135 14.3688 207.026 14.5424C206.917 14.7159 206.739 14.8038 206.49 14.8038C206.225 14.8038 206.019 14.7373 205.871 14.6024C205.725 14.4674 205.652 14.3174 205.652 14.1503C205.652 13.9489 205.68 13.7411 205.734 13.5268C205.787 13.3125 205.82 13.1561 205.828 13.0576C205.747 12.9183 205.627 12.8262 205.466 12.7769C205.305 12.7298 205.134 12.7062 204.95 12.7062C204.733 12.7062 204.528 12.7512 204.333 12.8455C204.138 12.9376 203.947 13.109 203.763 13.3554C203.596 13.5804 203.461 13.8846 203.358 14.2681C203.255 14.6516 203.204 15.108 203.204 15.6415C203.204 16.4814 203.39 17.1649 203.761 17.6941C204.131 18.2233 204.62 18.4889 205.222 18.4889C205.659 18.4889 206.023 18.3818 206.319 18.1697C206.614 17.9555 206.887 17.6362 207.139 17.2098L207.572 17.4948C207.274 18.0262 206.882 18.4482 206.396 18.7589C205.907 19.0739 205.406 19.2303 204.888 19.2303Z" fill="#009BDE"/>
<path d="M214.409 18.9325C214.197 19.0096 214.011 19.0717 213.852 19.1189C213.691 19.166 213.511 19.1896 213.308 19.1896C212.956 19.1896 212.676 19.1081 212.466 18.9432C212.256 18.7782 212.121 18.5382 212.063 18.2233H212.022C211.729 18.5468 211.414 18.7953 211.08 18.9667C210.743 19.1381 210.338 19.2238 209.865 19.2238C209.363 19.2238 208.952 19.0696 208.631 18.7632C208.307 18.4568 208.146 18.0562 208.146 17.5591C208.146 17.302 208.183 17.0727 208.256 16.8692C208.326 16.6656 208.436 16.4835 208.579 16.3207C208.693 16.1857 208.841 16.0657 209.025 15.9586C209.209 15.8536 209.383 15.7679 209.546 15.7058C209.749 15.6286 210.16 15.4872 210.78 15.2794C211.399 15.0716 211.819 14.9087 212.035 14.793V14.1224C212.035 14.0646 212.022 13.951 211.999 13.7839C211.973 13.6168 211.922 13.4604 211.84 13.3104C211.75 13.1433 211.622 12.9976 211.459 12.8733C211.294 12.7491 211.06 12.6869 210.758 12.6869C210.55 12.6869 210.358 12.7212 210.18 12.7919C210.002 12.8626 209.875 12.9355 209.805 13.0104C209.805 13.1004 209.826 13.2333 209.869 13.409C209.912 13.5846 209.933 13.7475 209.933 13.8953C209.933 14.0539 209.863 14.1974 209.721 14.3281C209.58 14.4588 209.381 14.5252 209.13 14.5252C208.905 14.5252 208.738 14.446 208.633 14.2853C208.528 14.1246 208.474 13.9467 208.474 13.7475C208.474 13.5397 208.547 13.3425 208.693 13.1519C208.838 12.9633 209.029 12.794 209.265 12.6441C209.468 12.5177 209.715 12.4105 210.002 12.3227C210.291 12.2348 210.572 12.1898 210.848 12.1898C211.227 12.1898 211.557 12.2156 211.84 12.267C212.121 12.3184 212.378 12.4298 212.607 12.6012C212.836 12.7683 213.012 12.9954 213.13 13.2804C213.248 13.5654 213.31 13.936 213.31 14.386C213.31 15.0309 213.304 15.6029 213.291 16.1C213.278 16.5992 213.269 17.1434 213.269 17.7348C213.269 17.9105 213.299 18.0497 213.361 18.1526C213.424 18.2576 213.516 18.3454 213.642 18.4161C213.708 18.4568 213.818 18.4782 213.963 18.4825C214.109 18.4868 214.259 18.4889 214.413 18.4889V18.9325H214.409ZM212.05 15.3608C211.667 15.4744 211.33 15.5836 211.043 15.6929C210.754 15.8022 210.486 15.9372 210.238 16.1C210.013 16.2543 209.835 16.4364 209.704 16.6464C209.573 16.8563 209.507 17.107 209.507 17.3941C209.507 17.769 209.605 18.0454 209.8 18.2211C209.998 18.3968 210.246 18.4847 210.548 18.4847C210.867 18.4847 211.15 18.4075 211.392 18.2511C211.637 18.0947 211.842 17.9105 212.007 17.6983L212.05 15.3608Z" fill="#009BDE"/>
<path d="M222.377 18.9325L220.044 19.0803L219.941 18.986V18.3625L219.888 18.3497C219.654 18.6111 219.365 18.8253 219.02 18.9924C218.675 19.1596 218.321 19.2431 217.955 19.2431C217.576 19.2431 217.212 19.1596 216.858 18.9903C216.505 18.821 216.198 18.5832 215.937 18.2768C215.671 17.9662 215.461 17.5912 215.305 17.1541C215.15 16.7171 215.071 16.235 215.071 15.7058C215.071 15.2237 215.155 14.7652 215.322 14.3324C215.489 13.8996 215.718 13.5204 216.01 13.1968C216.284 12.8947 216.62 12.6526 217.019 12.4727C217.417 12.2927 217.824 12.2027 218.238 12.2027C218.549 12.2027 218.853 12.2413 219.153 12.3205C219.453 12.3998 219.71 12.5005 219.926 12.6205V10.298C219.926 10.1094 219.894 9.93588 219.832 9.77947C219.77 9.62307 219.68 9.50523 219.568 9.42381C219.442 9.33811 219.271 9.27597 219.058 9.23741C218.844 9.19884 218.613 9.17099 218.364 9.15171V8.73391L221.096 8.58393L221.199 8.68463V17.6748C221.199 17.8333 221.229 17.9662 221.291 18.0776C221.351 18.189 221.441 18.2811 221.559 18.3583C221.644 18.4118 221.769 18.4461 221.932 18.4611C222.094 18.474 222.242 18.4847 222.377 18.4889V18.9325ZM219.93 17.7626V13.8589C219.894 13.7411 219.836 13.6146 219.755 13.4797C219.673 13.3447 219.573 13.2204 219.451 13.109C219.32 12.9954 219.166 12.9033 218.992 12.8283C218.816 12.7533 218.613 12.7169 218.377 12.7169C218.107 12.7169 217.859 12.7876 217.632 12.9269C217.404 13.0661 217.203 13.2675 217.027 13.5289C216.86 13.7818 216.729 14.1031 216.633 14.4931C216.537 14.883 216.487 15.3158 216.487 15.7893C216.487 16.1686 216.524 16.5114 216.594 16.8199C216.667 17.1284 216.787 17.4177 216.959 17.6812C217.115 17.934 217.317 18.1376 217.563 18.2897C217.807 18.444 218.099 18.5189 218.437 18.5189C218.797 18.5189 219.095 18.4397 219.333 18.2833C219.568 18.1247 219.768 17.9512 219.93 17.7626Z" fill="#009BDE"/>
<path d="M228.953 17.4841C228.672 18.0154 228.299 18.4397 227.83 18.7568C227.361 19.0717 226.823 19.2303 226.212 19.2303C225.677 19.2303 225.205 19.136 224.803 18.9453C224.4 18.7546 224.068 18.4997 223.804 18.174C223.543 17.8505 223.348 17.4712 223.219 17.0384C223.091 16.6056 223.026 16.1471 223.026 15.6651C223.026 15.2323 223.095 14.808 223.232 14.3902C223.369 13.9724 223.573 13.5975 223.838 13.2633C224.096 12.944 224.415 12.6848 224.796 12.4877C225.178 12.2905 225.604 12.1941 226.077 12.1941C226.564 12.1941 226.982 12.2713 227.329 12.4234C227.676 12.5776 227.956 12.7855 228.173 13.0512C228.381 13.304 228.535 13.6018 228.636 13.9446C228.736 14.2874 228.788 14.6602 228.788 15.0609V15.5065H224.372C224.372 15.9457 224.413 16.3421 224.496 16.6999C224.58 17.0577 224.71 17.3705 224.893 17.6426C225.068 17.904 225.298 18.1119 225.583 18.2618C225.867 18.414 226.206 18.4889 226.598 18.4889C226.999 18.4889 227.346 18.3947 227.637 18.2061C227.929 18.0176 228.209 17.6791 228.479 17.1884L228.953 17.4841ZM227.457 14.9409C227.457 14.6902 227.436 14.4202 227.393 14.131C227.35 13.8439 227.282 13.6039 227.187 13.409C227.084 13.2033 226.941 13.034 226.761 12.9033C226.581 12.7726 226.347 12.7083 226.065 12.7083C225.591 12.7083 225.199 12.9055 224.884 13.2975C224.571 13.6896 224.4 14.2381 224.374 14.9387H227.457V14.9409Z" fill="#009BDE"/>
<path d="M237.887 19.0546V18.6068C237.99 18.5982 238.095 18.5896 238.202 18.5789C238.309 18.5704 238.401 18.5511 238.483 18.5254C238.609 18.4847 238.701 18.414 238.763 18.3133C238.823 18.2104 238.856 18.0797 238.856 17.9169V14.4738C238.856 14.0046 238.748 13.6425 238.534 13.3875C238.32 13.1326 238.052 13.0062 237.733 13.0062C237.512 13.0062 237.304 13.0404 237.109 13.109C236.917 13.1754 236.737 13.2718 236.576 13.394C236.445 13.4925 236.336 13.5996 236.248 13.7153C236.16 13.831 236.094 13.9253 236.049 14.0024V17.8505C236.049 18.009 236.077 18.1376 236.13 18.2383C236.184 18.3411 236.276 18.4182 236.407 18.4718C236.51 18.5125 236.604 18.5425 236.687 18.5639C236.771 18.5832 236.88 18.5982 237.015 18.6068V19.0524H233.836V18.6068C233.938 18.5982 234.039 18.5896 234.138 18.5789C234.234 18.5704 234.324 18.5511 234.406 18.5254C234.532 18.4847 234.626 18.414 234.686 18.3133C234.746 18.2104 234.778 18.0797 234.778 17.9169V14.4738C234.778 14.0046 234.671 13.6425 234.457 13.3875C234.243 13.1326 233.975 13.0062 233.654 13.0062C233.431 13.0062 233.223 13.0404 233.03 13.1111C232.835 13.1818 232.657 13.2761 232.494 13.3982C232.364 13.4968 232.252 13.6082 232.162 13.7325C232.072 13.8568 232.004 13.951 231.959 14.0132V17.8355C231.959 17.9897 231.991 18.1183 232.053 18.2211C232.115 18.324 232.212 18.4032 232.338 18.4568C232.432 18.5018 232.531 18.5361 232.629 18.5575C232.728 18.5811 232.839 18.5961 232.961 18.6046V19.0503H229.722V18.6068C229.825 18.5982 229.932 18.5896 230.043 18.5789C230.155 18.5704 230.249 18.5511 230.33 18.5254C230.457 18.4847 230.549 18.414 230.611 18.3133C230.673 18.2126 230.703 18.0797 230.703 17.919V13.7775C230.703 13.6339 230.671 13.5032 230.605 13.3897C230.54 13.274 230.448 13.1776 230.33 13.0961C230.245 13.0426 230.138 12.9976 230.011 12.9633C229.885 12.929 229.754 12.9076 229.619 12.899V12.4534L231.852 12.3034L231.946 12.3977V13.3511H231.993C232.107 13.2376 232.244 13.1047 232.407 12.9526C232.569 12.7983 232.719 12.6762 232.861 12.5798C233.019 12.4727 233.216 12.3827 233.452 12.3098C233.688 12.2391 233.945 12.2027 234.219 12.2027C234.652 12.2027 235.025 12.3184 235.335 12.5519C235.646 12.7833 235.871 13.064 236.006 13.394C236.169 13.2354 236.31 13.0961 236.435 12.9783C236.559 12.8583 236.722 12.7319 236.925 12.5969C237.097 12.4791 237.298 12.3848 237.529 12.312C237.761 12.2413 238.018 12.2048 238.303 12.2048C238.866 12.2048 239.312 12.3891 239.64 12.7598C239.968 13.1304 240.133 13.6982 240.133 14.4631V17.8526C240.133 18.0112 240.16 18.1397 240.214 18.2404C240.268 18.3433 240.36 18.4204 240.493 18.474C240.595 18.5147 240.698 18.5447 240.801 18.5661C240.902 18.5854 241.015 18.6004 241.142 18.6089V19.0546H237.887Z" fill="#009BDE"/>
<path d="M241.418 21.2314C241.418 21.0064 241.48 20.8222 241.605 20.6808C241.729 20.5394 241.883 20.4665 242.067 20.4665C242.211 20.4665 242.335 20.4944 242.438 20.5479C242.541 20.6015 242.635 20.6701 242.714 20.7558C242.781 20.8222 242.854 20.9143 242.931 21.0322C243.008 21.1479 243.068 21.2443 243.113 21.3214C243.338 21.1993 243.608 20.8822 243.921 20.3701C244.233 19.858 244.461 19.4081 244.6 19.0203C244.171 17.9512 243.783 16.9956 243.436 16.1536C243.089 15.3115 242.727 14.4395 242.348 13.5375C242.262 13.3297 242.119 13.169 241.915 13.0533C241.712 12.9376 241.51 12.8647 241.307 12.8326V12.387H244.356V12.8605C244.221 12.8647 244.058 12.8926 243.867 12.9462C243.678 12.9976 243.582 13.0576 243.582 13.1261C243.582 13.154 243.593 13.199 243.612 13.2611C243.631 13.3233 243.657 13.3897 243.683 13.4561C243.854 13.9017 244.116 14.5445 244.465 15.3865C244.816 16.2264 245.088 16.8992 245.281 17.4027C245.485 16.9206 245.695 16.4214 245.915 15.905C246.134 15.3887 246.378 14.7802 246.65 14.0774C246.682 13.9917 246.727 13.8739 246.785 13.7239C246.843 13.5739 246.873 13.4432 246.873 13.3361C246.873 13.2183 246.77 13.109 246.567 13.0083C246.361 12.9076 246.166 12.8455 245.982 12.8219V12.3891H248.459V12.809C248.324 12.8326 248.146 12.9097 247.925 13.0426C247.704 13.1754 247.539 13.364 247.432 13.6082C246.897 14.853 246.419 15.9864 246.001 17.0106C245.583 18.0347 245.268 18.7868 245.052 19.2688C244.767 19.9009 244.514 20.3937 244.291 20.7472C244.068 21.1007 243.85 21.3793 243.638 21.5828C243.43 21.7713 243.241 21.8999 243.072 21.9642C242.903 22.0306 242.727 22.0627 242.547 22.0627C242.196 22.0627 241.919 21.9792 241.718 21.812C241.519 21.6406 241.418 21.45 241.418 21.2314Z" fill="#009BDE"/>
<path d="M258.586 14.883C258.586 15.4165 258.496 15.9479 258.316 16.4814C258.136 17.0127 257.875 17.4819 257.532 17.8826C257.185 18.2983 256.767 18.6304 256.277 18.881C255.788 19.1317 255.22 19.256 254.576 19.256C253.828 19.256 253.219 19.016 252.752 18.5318C252.285 18.0476 252.052 17.3984 252.052 16.5821C252.052 15.9822 252.15 15.423 252.349 14.9023C252.549 14.3838 252.814 13.9275 253.149 13.5354C253.487 13.1433 253.905 12.8262 254.404 12.5841C254.901 12.3441 255.443 12.222 256.024 12.222C256.827 12.222 257.455 12.4662 257.907 12.9569C258.359 13.4475 258.586 14.0881 258.586 14.883ZM257.207 14.6259C257.207 13.9853 257.093 13.5032 256.866 13.184C256.639 12.8626 256.311 12.7041 255.882 12.7041C255.508 12.7041 255.156 12.8198 254.824 13.049C254.492 13.2783 254.207 13.6532 253.969 14.1738C253.785 14.5659 253.65 15.003 253.564 15.4829C253.479 15.9629 253.436 16.4064 253.436 16.8135C253.436 17.4584 253.547 17.949 253.77 18.279C253.993 18.6111 254.329 18.7761 254.781 18.7761C255.182 18.7761 255.538 18.6496 255.85 18.3968C256.161 18.144 256.414 17.8226 256.609 17.4348C256.802 17.0556 256.952 16.6206 257.054 16.13C257.153 15.6436 257.207 15.1401 257.207 14.6259Z" fill="#009BDE"/>
<path d="M262.383 13.0619L261.192 18.6496C260.98 19.6502 260.534 20.4687 259.855 21.105C259.176 21.7413 258.475 22.0584 257.753 22.0584C257.357 22.0584 257.065 21.9835 256.879 21.8313C256.692 21.6792 256.598 21.4907 256.598 21.2593C256.598 21.0664 256.656 20.8929 256.774 20.7451C256.892 20.5951 257.061 20.5222 257.282 20.5222C257.421 20.5222 257.545 20.5544 257.65 20.6165C257.757 20.6786 257.849 20.7579 257.931 20.8522C257.993 20.9293 258.066 21.0322 258.145 21.1629C258.224 21.2935 258.293 21.4071 258.351 21.5014C258.698 21.4735 258.996 21.24 259.24 20.7986C259.486 20.3573 259.698 19.7252 259.878 18.9046L261.125 13.0597H259.803L259.945 12.4448H261.247L261.346 11.9863C261.453 11.4635 261.627 10.9943 261.86 10.5744C262.094 10.1544 262.362 9.79876 262.659 9.50737C262.953 9.22027 263.285 8.99316 263.656 8.82818C264.028 8.6632 264.386 8.58179 264.729 8.58179C265.125 8.58179 265.417 8.65678 265.605 8.8089C265.792 8.96102 265.886 9.14956 265.886 9.38096C265.886 9.57593 265.83 9.74734 265.719 9.89517C265.608 10.043 265.434 10.118 265.2 10.118C265.059 10.118 264.939 10.088 264.834 10.0259C264.729 9.96373 264.637 9.88446 264.556 9.7859C264.466 9.67235 264.393 9.56736 264.339 9.4688C264.286 9.37025 264.217 9.25883 264.136 9.13671C263.823 9.14956 263.549 9.35525 263.309 9.75162C263.069 10.148 262.852 10.8079 262.661 11.7292L262.509 12.4448H264.217L264.076 13.0597H262.383V13.0619Z" fill="#009BDE"/>
<path d="M132.506 37.6455C131.799 37.322 131.193 36.8849 130.689 36.3364C130.595 36.2335 130.539 36.1435 130.52 36.0643C130.509 36.0343 130.505 36.0128 130.505 35.9979C130.505 35.9293 130.543 35.8564 130.623 35.7772L131.608 34.813C131.666 34.7552 131.733 34.7252 131.808 34.7252C131.895 34.7252 131.998 34.7787 132.116 34.888C132.504 35.2715 132.866 35.5543 133.204 35.7407C133.68 36.015 134.169 36.1521 134.67 36.1521C134.951 36.1521 135.206 36.1135 135.439 36.0343C135.673 35.955 135.872 35.8479 136.039 35.7108C136.196 35.5779 136.315 35.4258 136.399 35.2544C136.483 35.083 136.523 34.903 136.523 34.7166C136.523 34.3138 136.279 33.9774 135.788 33.7075C135.636 33.6239 135.48 33.5553 135.317 33.5018C135.154 33.4482 134.938 33.3818 134.661 33.3025L134.462 33.2511C133.237 32.889 132.328 32.4519 131.739 31.942C131.116 31.4064 130.805 30.7357 130.805 29.9259C130.805 29.4738 130.899 29.0603 131.088 28.6853C131.276 28.3104 131.55 27.9868 131.908 27.7169C132.262 27.4469 132.684 27.2391 133.175 27.0955C133.665 26.9499 134.201 26.8792 134.779 26.8792C135.403 26.8792 136.026 27.0313 136.648 27.3355C137.226 27.6205 137.742 27.9933 138.192 28.4539C138.28 28.5418 138.325 28.6339 138.325 28.726C138.325 28.8246 138.278 28.9231 138.186 29.0196L137.376 29.8959C137.312 29.9537 137.245 29.9837 137.177 29.9837C137.083 29.9837 136.963 29.9216 136.817 29.7994C136.493 29.5252 136.191 29.3067 135.913 29.1438C135.486 28.9081 135.086 28.7903 134.713 28.7903C134.226 28.7903 133.849 28.8589 133.579 28.996C133.202 29.1974 133.014 29.5209 133.014 29.9666C133.014 30.1487 133.063 30.3072 133.164 30.4422C133.264 30.5772 133.414 30.6993 133.616 30.8064C133.787 30.905 133.993 30.995 134.235 31.0743C134.477 31.1535 134.781 31.25 135.154 31.3571C135.718 31.5242 136.21 31.6977 136.633 31.8799C137.055 32.062 137.417 32.272 137.721 32.5119C138.07 32.7926 138.336 33.1161 138.52 33.4825C138.704 33.851 138.797 34.2817 138.797 34.7787C138.797 35.2758 138.687 35.73 138.469 36.1478C138.25 36.5656 137.946 36.9234 137.552 37.2213C137.175 37.5148 136.74 37.7419 136.249 37.9026C135.758 38.0611 135.246 38.1425 134.711 38.1425C133.974 38.1468 133.237 37.9797 132.506 37.6455Z" fill="#0D5384"/>
<path d="M141.462 37.684V27.3891C141.462 27.2948 141.494 27.2177 141.558 27.1577C141.623 27.0977 141.704 27.0656 141.8 27.0656H143.302C143.504 27.0656 143.611 27.1727 143.626 27.3891V36H147.93C148.025 36 148.102 36.03 148.162 36.0921C148.224 36.1543 148.254 36.2357 148.254 36.3385V37.6862C148.254 37.8876 148.147 37.9947 147.93 38.0097H141.785C141.569 38.0076 141.462 37.8983 141.462 37.684Z" fill="#0D5384"/>
<path d="M150.572 37.7119V27.3719C150.572 27.1813 150.668 27.0848 150.859 27.0848H158.05C158.251 27.0848 158.352 27.1813 158.352 27.3719V28.7989C158.352 28.996 158.251 29.0924 158.05 29.0924H152.721V31.3228H156.783C157.004 31.3228 157.115 31.4214 157.115 31.6163V33.0154C157.115 33.2061 157.004 33.3025 156.783 33.3025H152.721V36.0043H158.189C158.394 36.0043 158.497 36.1028 158.497 36.2978V37.7098C158.497 37.9069 158.394 38.0033 158.189 38.0033H150.859C150.666 38.0076 150.572 37.909 150.572 37.7119Z" fill="#0D5384"/>
<path d="M161.124 37.7119V27.3719C161.124 27.1813 161.221 27.0848 161.411 27.0848H168.602C168.803 27.0848 168.904 27.1813 168.904 27.3719V28.7989C168.904 28.996 168.803 29.0924 168.602 29.0924H163.273V31.3228H167.335C167.556 31.3228 167.667 31.4214 167.667 31.6163V33.0154C167.667 33.2061 167.556 33.3025 167.335 33.3025H163.273V36.0043H168.741C168.947 36.0043 169.049 36.1028 169.049 36.2978V37.7098C169.049 37.9069 168.947 38.0033 168.741 38.0033H161.411C161.221 38.0076 161.124 37.909 161.124 37.7119Z" fill="#0D5384"/>
<path d="M171.678 37.7055V27.3741C171.678 27.2755 171.704 27.2027 171.755 27.1577C171.807 27.1105 171.878 27.087 171.965 27.087H176.248C176.728 27.087 177.178 27.1834 177.596 27.3741C178.014 27.5648 178.378 27.8283 178.693 28.1625C178.997 28.4903 179.233 28.8674 179.4 29.2917C179.567 29.7159 179.651 30.153 179.651 30.605C179.651 31.0507 179.565 31.4835 179.394 31.9013C179.222 32.3191 178.982 32.6898 178.672 33.0133C178.357 33.3475 177.988 33.6089 177.564 33.7975C177.14 33.986 176.69 34.0803 176.214 34.0803H173.823V37.7076C173.823 37.909 173.724 38.0097 173.529 38.0097H171.97C171.773 38.0076 171.678 37.9069 171.678 37.7055ZM175.813 32.2162C176.293 32.2162 176.692 32.0598 177.005 31.7449C177.153 31.5971 177.264 31.4278 177.343 31.2328C177.422 31.04 177.461 30.8279 177.461 30.5965C177.461 30.3758 177.422 30.1637 177.343 29.9644C177.264 29.763 177.153 29.5873 177.005 29.4352C176.685 29.116 176.289 28.9574 175.813 28.9574H173.819V32.2184H175.813V32.2162Z" fill="#0D5384"/>
<path d="M187.405 37.9304C187.355 37.879 187.336 37.804 187.347 37.7055L188.459 27.3591C188.482 27.1684 188.587 27.072 188.767 27.072H190.681C190.76 27.072 190.813 27.0913 190.846 27.1277C190.878 27.1641 190.912 27.2348 190.953 27.3377L193.588 34.6223L196.178 27.3441C196.213 27.2455 196.249 27.177 196.29 27.1341C196.328 27.0934 196.386 27.072 196.459 27.072H198.417C198.604 27.072 198.704 27.1684 198.719 27.3591L199.831 37.7055C199.842 37.804 199.821 37.879 199.774 37.9304C199.724 37.9819 199.649 38.0076 199.546 38.0076H198.053C197.955 38.0076 197.884 37.9861 197.839 37.9411C197.794 37.8962 197.766 37.8233 197.751 37.7205L197.001 30.7657L194.499 37.5148C194.46 37.6283 194.419 37.7012 194.377 37.7355C194.336 37.7697 194.274 37.7869 194.197 37.7869H192.96C192.881 37.7869 192.821 37.7697 192.78 37.7355C192.74 37.7012 192.699 37.6283 192.658 37.5148L190.201 30.7593L189.427 37.714C189.417 37.8169 189.391 37.8919 189.346 37.939C189.301 37.9861 189.23 38.0097 189.132 38.0097H187.63C187.527 38.0076 187.454 37.9819 187.405 37.9304Z" fill="#0D5384"/>
<path d="M202.484 37.7119V27.3719C202.484 27.1813 202.58 27.0848 202.771 27.0848H209.961C210.163 27.0848 210.264 27.1813 210.264 27.3719V28.7989C210.264 28.996 210.163 29.0924 209.961 29.0924H204.633V31.3228H208.695C208.916 31.3228 209.027 31.4214 209.027 31.6163V33.0154C209.027 33.2061 208.916 33.3025 208.695 33.3025H204.633V36.0043H210.101C210.306 36.0043 210.409 36.1028 210.409 36.2978V37.7098C210.409 37.9069 210.306 38.0033 210.101 38.0033H202.771C202.578 38.0076 202.484 37.909 202.484 37.7119Z" fill="#0D5384"/>
<path d="M213.036 37.7119V27.3719C213.036 27.1813 213.135 27.0848 213.33 27.0848H216.848C217.304 27.0848 217.758 27.147 218.212 27.2734C218.667 27.3976 219.102 27.5798 219.519 27.8133C219.931 28.0533 220.312 28.3382 220.659 28.666C221.008 28.9938 221.306 29.3581 221.557 29.7545C221.816 30.1723 222.018 30.6158 222.161 31.0871C222.303 31.5585 222.375 32.0448 222.375 32.5441C222.375 33.2704 222.236 33.9581 221.96 34.6073C221.683 35.2565 221.293 35.8329 220.794 36.3321C220.295 36.8313 219.71 37.2277 219.044 37.5212C218.377 37.8147 217.666 37.9733 216.91 38.0033H213.332C213.135 38.0076 213.036 37.909 213.036 37.7119ZM216.657 36.0193C217.152 36.0193 217.619 35.9293 218.056 35.7515C218.493 35.5715 218.872 35.3229 219.196 35.0037C219.519 34.6845 219.77 34.3138 219.946 33.8917C220.121 33.4696 220.211 33.0218 220.211 32.5441C220.211 32.0684 220.121 31.6185 219.944 31.1943C219.764 30.77 219.515 30.3972 219.196 30.0801C218.872 29.7609 218.491 29.5123 218.056 29.3324C217.619 29.1524 217.154 29.0646 216.657 29.0646H215.206V36.0193H216.657Z" fill="#0D5384"/>
<path d="M225.105 37.7055V27.3869C225.105 27.1855 225.204 27.0848 225.399 27.0848H226.988C227.179 27.0848 227.275 27.1855 227.275 27.3869V37.7055C227.275 37.9069 227.179 38.0076 226.988 38.0076H225.399C225.204 38.0076 225.105 37.9069 225.105 37.7055Z" fill="#0D5384"/>
<path d="M234.222 37.9626C233.742 37.8297 233.287 37.639 232.861 37.3884C232.443 37.1484 232.062 36.857 231.717 36.5121C231.372 36.1693 231.076 35.7879 230.83 35.3722C230.579 34.9501 230.389 34.4981 230.256 34.0139C230.123 33.5296 230.056 33.0347 230.056 32.5226C230.056 32.0127 230.123 31.5178 230.256 31.0357C230.389 30.5558 230.579 30.1037 230.83 29.6816C231.081 29.2638 231.376 28.8846 231.721 28.5439C232.066 28.2032 232.445 27.914 232.861 27.6783C233.287 27.4341 233.742 27.2455 234.222 27.1148C234.701 26.9841 235.199 26.9199 235.708 26.9199C236.351 26.9199 236.934 27.0077 237.459 27.1812C237.984 27.3548 238.47 27.6076 238.916 27.9354C238.999 28.004 239.04 28.0833 239.04 28.1711C239.04 28.2247 239.027 28.2697 239.004 28.3039L238.224 29.6216C238.175 29.6859 238.112 29.718 238.04 29.718C237.971 29.718 237.894 29.6902 237.812 29.6366C237.44 29.4052 237.103 29.2402 236.803 29.1353C236.465 29.0174 236.098 28.9596 235.706 28.9596C235.216 28.9596 234.757 29.0496 234.333 29.2317C233.909 29.4138 233.54 29.6666 233.225 29.9901C232.91 30.3179 232.668 30.6993 232.493 31.1343C232.319 31.5692 232.231 32.0298 232.231 32.5205C232.231 33.0111 232.319 33.4761 232.493 33.9153C232.666 34.3545 232.91 34.7402 233.225 35.0744C233.545 35.4087 233.915 35.67 234.339 35.8586C234.764 36.0471 235.218 36.1414 235.704 36.1414C236.088 36.1414 236.456 36.0793 236.816 35.9529C237.174 35.8286 237.493 35.6615 237.774 35.4558C237.877 35.3765 237.965 35.3379 238.04 35.3379C238.119 35.3379 238.185 35.3744 238.239 35.4494L238.982 36.707C239.04 36.7713 239.07 36.8313 239.07 36.8913C239.07 36.9706 239.014 37.0498 238.901 37.1334C238.455 37.4612 237.971 37.714 237.448 37.8919C236.925 38.0697 236.345 38.1575 235.708 38.1575C235.199 38.1618 234.701 38.0954 234.222 37.9626Z" fill="#0D5384"/>
<path d="M242.08 37.7055V27.3869C242.08 27.1855 242.179 27.0848 242.374 27.0848H243.964C244.154 27.0848 244.251 27.1855 244.251 27.3869V37.7055C244.251 37.9069 244.154 38.0076 243.964 38.0076H242.374C242.179 38.0076 242.08 37.9069 242.08 37.7055Z" fill="#0D5384"/>
<path d="M247.732 37.684V27.4041C247.732 27.3098 247.76 27.2327 247.818 27.1727C247.876 27.1127 247.955 27.0806 248.058 27.0806H249.787C249.866 27.0806 249.946 27.102 250.029 27.1427C250.113 27.1834 250.175 27.2391 250.214 27.3077L255.049 34.2688V27.3077C255.079 27.2284 255.124 27.1705 255.186 27.1341C255.249 27.0977 255.311 27.0784 255.375 27.0784H256.862C256.945 27.0784 257.027 27.1084 257.104 27.1705C257.183 27.2327 257.222 27.3098 257.222 27.4019V37.6819C257.222 37.8983 257.102 38.0054 256.862 38.0054H255.411C255.304 38.0054 255.225 37.9883 255.176 37.954C255.126 37.9197 255.062 37.8554 254.985 37.7633L249.871 30.4036V37.6819C249.886 37.8983 249.776 38.0054 249.547 38.0054H248.06C247.842 38.0076 247.732 37.8983 247.732 37.684Z" fill="#0D5384"/>
<path d="M260.249 37.7119V27.3719C260.249 27.1813 260.346 27.0848 260.536 27.0848H267.727C267.928 27.0848 268.029 27.1813 268.029 27.3719V28.7989C268.029 28.996 267.928 29.0924 267.727 29.0924H262.398V31.3228H266.461C266.681 31.3228 266.793 31.4214 266.793 31.6163V33.0154C266.793 33.2061 266.681 33.3025 266.461 33.3025H262.398V36.0043H267.866C268.072 36.0043 268.175 36.1028 268.175 36.2978V37.7098C268.175 37.9069 268.072 38.0033 267.866 38.0033H260.536C260.346 38.0076 260.249 37.909 260.249 37.7119Z" fill="#0D5384"/>
<path d="M271.333 26.8792C271.397 26.8792 271.444 26.907 271.444 26.9713V27.3205C271.444 27.3955 271.388 27.4319 271.333 27.4319H270.677V29.5831C270.677 29.6838 270.621 29.703 270.557 29.703H270.197C270.141 29.703 270.086 29.6752 270.086 29.5916V27.4341H269.422C269.338 27.4341 269.319 27.3891 269.319 27.3227V26.9991C269.319 26.9434 269.327 26.8792 269.422 26.8792H271.333ZM274.469 29.5831C274.469 29.6559 274.442 29.6838 274.369 29.6838H274.028C273.964 29.6838 273.927 29.6559 273.917 29.5916L273.788 27.9761L273.225 29.4888C273.205 29.5445 273.188 29.5723 273.132 29.5723H272.929C272.882 29.5723 272.845 29.5445 272.826 29.4888L272.29 27.9847L272.162 29.6002C272.162 29.673 272.117 29.6923 272.059 29.6923H271.727C271.643 29.6923 271.607 29.6559 271.607 29.5916L271.755 26.9906C271.763 26.9263 271.81 26.8877 271.855 26.8877H272.344C272.408 26.8877 272.445 26.8963 272.464 26.952L273.017 28.4561L273.589 26.9713C273.608 26.9349 273.645 26.8792 273.782 26.8792H274.197C274.242 26.8792 274.309 26.9156 274.317 26.9906L274.469 29.5831Z" fill="#0D5384"/>
<path d="M54.4356 37.7782C54.3349 37.0498 54.1228 36.3534 53.8228 35.7064C52.6594 33.1846 50.1162 31.4363 47.1595 31.4363C44.1985 31.4363 41.6531 33.1846 40.4854 35.7064C40.1855 36.3513 39.9798 37.0476 39.8791 37.7782C39.817 38.2282 40.1748 38.6353 40.6247 38.6353H53.69C54.1464 38.6353 54.4977 38.2303 54.4356 37.7782Z" fill="#FF6C0C"/>
<path d="M53.8229 35.7086H40.4834C41.6532 33.1868 44.1964 31.4385 47.1574 31.4385C50.1163 31.4385 52.6595 33.1868 53.8229 35.7086Z" fill="#F99C25"/>
<path d="M30.5547 17.5247C28.9864 13.606 27.3859 9.69371 25.8518 5.76427C25.4276 4.69085 24.7141 4.24735 23.6322 4.24735C22.5502 4.24735 22.7109 4.24735 21.4789 4.24735C20.2469 4.24735 19.6384 4.67157 19.1949 5.79427C15.0705 16.1514 10.9033 26.4828 6.74885 36.8227C6.31819 37.9026 6.47674 38.1511 7.65729 38.1618C8.37076 38.1725 9.09708 38.1618 9.81055 38.1618C13.4872 38.0975 12.7437 38.7574 14.2135 35.1408C14.3442 34.8408 14.6913 33.9431 15.1219 32.8268C15.499 31.8306 16.2296 30.0994 16.6432 29.0088C16.6432 29.0088 27.7373 28.9638 28.1144 28.9595C28.4915 28.9553 28.7743 28.7474 28.9885 28.1689C29.2028 27.5905 31.2918 22.3626 31.5125 21.7863C31.671 21.4113 31.7139 20.8221 31.5382 20.3015C31.3646 19.7787 30.7969 18.1182 30.5547 17.5247ZM18.4815 23.9503C19.8848 20.1687 21.0547 17.0105 22.5287 13.0575L26.6189 23.871L18.4815 23.9503Z" fill="#0D5384"/>
<path d="M53.0151 17.5247C51.4446 13.606 49.8463 9.69371 48.3058 5.76427C47.8858 4.69085 47.2795 4.24735 46.0861 4.24735H43.9328C42.7266 4.22806 42.0967 4.67157 41.6489 5.79427C37.5309 16.1514 33.3636 26.4828 29.2092 36.8227C28.7721 37.9026 28.9371 38.1511 30.1177 38.1618C30.8311 38.1725 31.5575 38.1618 32.2709 38.1618C35.0798 38.1147 35.3091 38.4853 35.9111 37.052C36.9845 31.7706 41.7003 27.869 47.1531 27.869C49.2207 27.869 51.179 28.4303 52.8759 29.4138C53.2508 29.6045 53.7414 29.6237 54.185 29.2295C54.6413 28.7731 55.7362 27.6483 56.0704 27.3291C56.4046 27.0098 56.5675 26.4849 56.3232 26.005C55.2027 23.1918 53.3665 18.3989 53.0151 17.5247ZM48.1365 22.399C47.2752 22.3348 46.4953 22.3691 45.7047 22.3691C44.2585 22.429 42.7716 22.6176 41.2975 22.9947C42.508 19.7316 43.7164 16.4792 44.9848 13.0575L48.5779 22.4462C48.4301 22.4355 48.2822 22.4119 48.1365 22.399Z" fill="#0D5384"/>
<path d="M81.0183 24.1174C80.4462 22.969 79.617 21.9577 78.5308 21.0835C77.5752 20.3422 76.4461 19.6759 75.1327 19.1124C73.8193 18.5467 72.2809 18.0068 70.5241 17.4862C69.3628 17.1541 68.4008 16.8584 67.6595 16.6077C66.9053 16.3506 66.2647 16.0742 65.7312 15.7657C65.1034 15.4336 64.632 15.0501 64.3192 14.628C64.0043 14.2081 63.8479 13.7174 63.8479 13.1454C63.8479 11.757 64.4392 10.7457 65.6133 10.1244C66.4553 9.69157 67.6359 9.47732 69.1485 9.47732C70.3098 9.47732 71.5546 9.84155 72.8851 10.5764C73.7572 11.0842 74.6999 11.7634 75.7112 12.6247C76.1632 13.0018 76.5468 13.1968 76.836 13.1968C77.0438 13.1968 77.256 13.1025 77.4509 12.9204L79.9748 10.1886C80.2705 9.88654 80.4141 9.58016 80.4141 9.27163C80.4141 8.98239 80.2769 8.69957 79.9941 8.42318C78.5929 6.99196 76.986 5.82426 75.1777 4.93725C73.2365 3.9881 71.2975 3.51245 69.3564 3.51245C67.5545 3.51245 65.8833 3.74385 64.3514 4.19593C62.8259 4.64158 61.5125 5.28863 60.4069 6.13065C59.2885 6.97267 58.4422 7.97753 57.8509 9.14522C57.2659 10.3193 56.9724 11.607 56.9724 13.0147C56.9724 15.5322 57.9387 17.6362 59.8799 19.3009C61.7203 20.8843 64.5463 22.2534 68.3708 23.3825L68.9921 23.5389C69.847 23.7831 70.524 23.991 71.034 24.1602C71.5353 24.3295 72.026 24.5437 72.4973 24.8008C74.0293 25.6429 74.7899 26.6906 74.7899 27.9418C74.7899 28.5332 74.6635 29.0838 74.3999 29.6194C74.2178 30.003 73.9736 30.3479 73.665 30.6672V30.6736C73.6586 30.68 73.6586 30.68 73.6522 30.6864C73.5386 30.8064 73.4079 30.9307 73.2751 31.0378C72.7609 31.4706 72.1331 31.8113 71.4089 32.0555C70.6805 32.2998 69.877 32.4198 69.0093 32.4198C68.0601 32.4198 67.1388 32.2634 66.2218 31.9484C66.1897 31.942 66.1532 31.9291 66.1275 31.9163C64.5378 31.432 62.9994 30.6286 61.6368 29.7566C61.5103 29.6752 61.3861 29.5873 61.2532 29.4995C61.0026 29.3238 60.739 29.1352 60.4755 28.9338C59.9977 28.5825 59.6827 28.5032 59.3956 28.5225C59.1814 28.5353 58.9821 28.6424 58.7936 28.8374L56.8717 30.8086L56.5632 31.1921C56.2868 31.5113 56.1604 31.8263 56.1797 32.1348C56.2161 32.6769 56.7153 33.1182 56.771 33.1739L56.7774 33.1804C57.041 33.4632 57.3174 33.7332 57.6002 33.9903C57.7373 34.1231 57.883 34.2538 58.0265 34.3738C58.1765 34.5002 58.3222 34.6245 58.4722 34.7444C58.6222 34.8644 58.7743 34.9823 58.9307 35.0958C59.3956 35.4472 59.8734 35.7686 60.3748 36.0685C60.9768 36.4392 61.611 36.7713 62.2709 37.0734C64.5442 38.1168 66.8367 38.6375 69.1464 38.6375C70.8111 38.6375 72.4116 38.3932 73.9436 37.8897C75.4626 37.3926 76.8253 36.6834 77.9994 35.7664C79.225 34.8366 80.172 33.7182 80.8576 32.4198C81.5368 31.1192 81.8753 29.7009 81.8753 28.1497C81.8774 26.6113 81.5946 25.2594 81.0183 24.1174Z" fill="#0D5384"/>
<path d="M122.929 37.2469L119.516 5.29934C119.516 5.28006 119.516 5.2672 119.509 5.25006L119.503 5.16222C119.46 4.56659 119.139 4.24735 118.545 4.24735H112.475C112.019 4.24735 111.837 4.51731 111.605 5.1108L103.614 27.5583C103.614 27.5647 103.614 27.5647 103.614 27.5647L103.575 27.659L97.9809 12.2562C97.8373 12.1427 97.6552 12.2755 97.6231 12.5197C97.2653 14.9194 96.284 17.4305 94.6299 19.0481L94.3557 19.2345L100.693 36.6534C100.925 37.3369 101.15 37.474 101.608 37.474C101.608 37.474 101.608 37.474 101.615 37.474H105.441C105.516 37.474 105.591 37.474 105.653 37.4612C105.885 37.4355 106.028 37.3412 106.168 37.1291C106.187 37.1098 106.206 37.0905 106.21 37.067C106.273 36.9598 106.33 36.8227 106.399 36.6534L114.159 15.7036L116.488 37.2919C116.576 37.8618 116.788 38.1382 117.335 38.1554C117.36 38.1618 117.377 38.1618 117.403 38.1618H122.057C122.106 38.1618 122.157 38.1618 122.207 38.1489C122.245 38.1489 122.282 38.1425 122.32 38.1297C122.74 38.0547 122.978 37.7719 122.933 37.3091C122.935 37.2919 122.929 37.2662 122.929 37.2469Z" fill="#0D5384"/>
<path d="M92.6459 20.6743C92.6459 20.6743 92.1767 20.8521 91.9689 20.9528C90.6191 21.6256 89.1171 22.0262 87.5359 22.0841H87.3924C87.116 22.0841 86.786 22.0198 86.5696 22.0027C86.2097 21.9705 85.9676 22.1055 85.944 22.3391C85.7683 23.9653 84.335 37.2191 84.335 37.2191C84.29 37.8147 84.6113 38.1361 85.207 38.1361H85.2627C85.3891 38.1618 85.5262 38.1682 85.6762 38.1618C86.3361 38.1425 87.0067 38.1361 87.673 38.1361C88.3458 38.1361 89.01 38.1425 89.6763 38.1618C89.8327 38.1682 89.972 38.1554 90.0898 38.1232C90.1584 38.1104 90.2163 38.0975 90.272 38.0782C90.2848 38.0782 90.2977 38.0718 90.3105 38.0654C90.6748 37.9154 90.8376 37.5812 90.9019 37.0284C90.9083 36.9341 90.9212 36.8399 90.9276 36.752C90.9597 36.4435 90.9961 36.1371 91.0347 35.8286C91.1611 34.6159 91.2982 33.3989 91.4311 32.1862C91.6325 30.3458 91.8403 28.5053 92.046 26.667C92.2452 24.8458 92.6459 20.6743 92.6459 20.6743Z" fill="#0D5384"/>
<path d="M90.6319 5.09151C90.0213 4.72514 89.3507 4.4466 88.6372 4.26877C88.1958 4.1595 87.7545 4.47231 87.7052 4.92011L86.3254 17.9125C86.2761 18.3668 86.6446 18.7589 87.0988 18.746C87.8337 18.7224 88.5493 18.5874 89.2221 18.3561C91.8532 17.4648 93.8607 15.1208 94.1714 12.1812C94.4842 9.23521 93.0166 6.52059 90.6319 5.09151Z" fill="#0D5384"/>
<path d="M89.2222 18.3561L90.3299 7.92192L90.6298 5.09375C93.0145 6.52283 94.4843 9.23745 94.1715 12.1835C93.8608 15.1188 91.8532 17.4648 89.2222 18.3561Z" fill="#009BDE"/>
</svg>
