<svg width="172" height="69" viewBox="0 0 172 69" fill="none" xmlns="http://www.w3.org/2000/svg">
<path d="M145.766 57.9617C138.233 57.9617 130.78 52.3468 130.78 38.502C130.78 29.5603 136.543 22.5515 143.644 22.5515C148.773 22.5515 154.628 24.7023 156.662 29.7621C156.7 35.4874 156.743 41.8619 156.786 46.9913C156.517 53.3847 150.883 57.9617 145.764 57.9617H145.766ZM167.688 57.7304C167.688 57.4037 167.399 57.2741 167.101 57.1443C166.446 56.8834 165.824 56.5481 165.245 56.1445C164.831 55.7795 164.505 55.3259 164.291 54.8172C164.077 54.3086 163.981 53.7581 164.01 53.207L164.024 6.88551C164.024 5.04833 163.18 4.94287 161.307 5.57215C161.307 5.57215 153.644 8.11978 153.481 8.18222C153.317 8.24466 152.894 8.41811 152.894 8.8122V10.0673C152.894 10.394 153.183 10.5189 153.481 10.6535C154.126 10.9851 154.735 11.383 155.298 11.8406C155.721 12.1994 156.056 12.6503 156.277 13.1586C156.499 13.6669 156.601 14.2193 156.576 14.7733C156.576 14.7733 156.6 18.7731 156.634 24.3061C153.961 21.6912 149.755 19.7534 144.082 19.7534C132.426 19.7534 123.397 28.9546 123.397 41.3139C123.397 54.986 132.833 63.5759 144.265 63.5759C150.093 63.5759 154.596 59.932 157.268 55.4584V61.7927C157.268 63.6485 158.056 63.9894 159.725 63.111C159.725 63.111 166.974 59.6835 167.114 59.6162C167.268 59.5469 167.7 59.3089 167.7 58.9862V57.7304H167.688ZM35.5903 53.5435C34.7057 56.2306 32.0089 58.7545 29.086 58.7545C25.8411 58.7545 23.5626 55.2308 23.5626 50.4095V24.1146H36.9168C37.0722 24.1139 37.2207 24.0519 37.3306 23.9421C37.4405 23.8323 37.5025 23.6836 37.5032 23.5284V21.1972C37.5025 21.0419 37.4405 20.8932 37.3306 20.7834C37.2207 20.6737 37.0722 20.6117 36.9168 20.6109H23.5626L23.4905 11.1177C23.4897 10.9624 23.4277 10.8137 23.318 10.7039C23.2082 10.5941 23.0595 10.5321 22.9042 10.5314H20.2837C20.2067 10.5313 20.1304 10.5464 20.0593 10.5759C19.9881 10.6053 19.9234 10.6485 19.869 10.7029C19.8145 10.7574 19.7714 10.8221 19.7419 10.8932C19.7125 10.9644 19.6974 11.0407 19.6975 11.1177V12.5552C19.5102 19.0402 12.9191 20.6075 8.77085 20.6075H4.88627C4.80883 20.6079 4.73223 20.6236 4.66086 20.6537C4.58948 20.6837 4.52472 20.7275 4.47028 20.7826C4.41585 20.8377 4.37279 20.903 4.34357 20.9747C4.31436 21.0464 4.29956 21.1232 4.30001 21.2007V23.5318C4.30074 23.6871 4.36274 23.8358 4.47253 23.9456C4.58232 24.0554 4.73101 24.1174 4.88627 24.1181H15.6693V50.3229C15.6693 59.2646 20.2268 63.5571 26.9782 63.5571C33.2917 63.5571 36.6693 59.1168 37.9097 54.3706C38.4648 52.2843 36.0731 52.081 35.5924 53.5435H35.5903ZM122.213 59.4275C121.492 59.3932 120.797 59.144 120.219 58.7115C119.92 58.4039 119.686 58.0395 119.531 57.6398C119.376 57.2401 119.303 56.8131 119.317 56.3845V39.1223C119.317 25.4412 110.62 19.7541 102.03 19.7541C99.2272 19.6959 96.4635 20.4193 94.0487 21.8432C91.6341 23.2671 89.6635 25.3353 88.3579 27.816V21.4171C88.3579 19.5612 87.6176 19.3212 85.901 20.0989C85.901 20.0989 78.6418 23.5214 78.5122 23.5887C78.3581 23.6581 77.9258 23.8961 77.9258 24.2187V25.4731C77.9258 25.7999 78.2146 25.9296 78.5122 26.0593C79.1665 26.3183 79.7879 26.6539 80.3632 27.0591C80.7792 27.4238 81.1072 27.8778 81.3229 28.3873C81.5385 28.8967 81.6362 29.4483 81.6085 30.0009V56.5581C81.6207 56.9974 81.5368 57.4343 81.3625 57.8377C81.1879 58.2413 80.9275 58.6018 80.599 58.8941C80.0532 59.2457 79.4169 59.4312 78.7675 59.4275C78.6122 59.4282 78.4636 59.4902 78.3537 59.6001C78.2441 59.7098 78.1821 59.8586 78.1813 60.0137V62.1966C78.1821 62.3517 78.2441 62.5005 78.3537 62.6104C78.4636 62.72 78.6122 62.782 78.7675 62.7828H92.1508C92.2279 62.783 92.3042 62.7677 92.3754 62.7383C92.4464 62.7088 92.5111 62.6658 92.5656 62.6113C92.62 62.5569 92.6633 62.4922 92.6927 62.421C92.7221 62.3497 92.7372 62.2736 92.7372 62.1966V60.0137C92.7365 59.8586 92.6745 59.7098 92.5646 59.6001C92.4549 59.4902 92.3061 59.4282 92.1508 59.4275C91.3691 59.4156 90.6147 59.1377 90.0119 58.6395C89.4914 58.0735 89.212 57.3266 89.2334 56.5581V35.2618C89.2334 28.3398 93.7044 23.1669 100.189 23.1669C106.236 23.1669 111.741 28.3059 111.741 38.9438V56.4713C111.767 57.2291 111.535 57.9733 111.083 58.5819C110.856 58.8399 110.578 59.0482 110.267 59.1936C109.956 59.3393 109.618 59.4188 109.275 59.4275C109.12 59.4282 108.971 59.4902 108.862 59.6001C108.752 59.7098 108.69 59.8586 108.689 60.0137V62.1966C108.69 62.3517 108.752 62.5005 108.862 62.6104C108.971 62.72 109.12 62.782 109.275 62.7828H122.211C122.288 62.783 122.364 62.7677 122.435 62.7383C122.507 62.7088 122.571 62.6658 122.626 62.6113C122.68 62.5569 122.724 62.4922 122.753 62.421C122.782 62.3497 122.797 62.2736 122.797 62.1966V60.0137C122.798 59.9371 122.783 59.861 122.754 59.7898C122.725 59.7188 122.683 59.6541 122.629 59.5997C122.575 59.5452 122.51 59.5019 122.44 59.4723C122.369 59.4428 122.293 59.4275 122.216 59.4275H122.213ZM46.3054 38.5069C46.3251 40.576 46.593 42.6353 47.1033 44.6407L66.1348 34.9683C67.6106 34.1227 68.2406 33.3914 68.2406 31.9012C68.2406 27.959 64.3322 22.5605 58.2845 22.5605C51.1792 22.5556 46.3046 29.5679 46.3046 38.5062L46.3054 38.5069ZM77.0398 51.0382C75.9854 56.2979 70.2019 63.5688 59.2488 63.5688C47.94 63.5688 38.9144 54.9782 38.9144 41.3071C38.9114 28.9483 47.94 19.7492 59.5958 19.7492C70.1137 19.7492 75.599 26.3931 75.599 31.7193C75.599 34.5222 74.0892 35.45 71.4791 36.8915L48.1126 47.6212C48.9815 50.6173 50.8041 53.2485 53.3032 55.1156C55.8026 56.9823 58.8428 57.9833 61.9624 57.9665C68.4473 57.9763 72.5669 54.5488 74.4945 50.3424C74.6095 50.0324 74.8361 49.7766 75.1302 49.6256C75.4242 49.4744 75.7643 49.4389 76.0831 49.5259C76.4021 49.613 76.6768 49.8162 76.8536 50.0958C77.0301 50.3752 77.0955 50.7107 77.0371 51.036" fill="#ABA69C"/>
</svg>
