<svg width="172" height="69" viewBox="0 0 172 69" fill="none" xmlns="http://www.w3.org/2000/svg">
<path d="M44.3479 36.0917C47.049 36.0917 48.1319 37.5031 48.1319 39.8757V41.3358C48.1319 43.3069 47.3289 44.4262 45.5889 44.8156C47.4019 45.1928 48.1319 46.4217 48.1319 48.2468V50.8627C48.1319 51.5562 48.1806 52.3228 48.5578 52.8825H47.3532C47.049 52.3836 46.976 51.7753 46.976 50.8627V48.2224C46.976 45.9958 45.6863 45.3753 43.6787 45.3753H41.8414V52.8703H40.6855V36.0917H44.3479ZM43.6909 44.3654C45.7593 44.3654 46.9638 43.8179 46.9638 41.5548V39.973C46.9638 38.1723 46.2338 37.1016 44.3236 37.1016H41.8293V44.3654H43.6909Z" fill="#51C8ED"/>
<path d="M57.379 43.8666V44.8764H52.5608V51.8726H58.3524V52.8825H51.3927V36.0917H58.3524V37.1016H52.5608V43.8666H57.379Z" fill="#51C8ED"/>
<path d="M67.9402 40.1434V40.5084H66.8329V40.0825C66.8329 38.3061 66.1272 36.9677 64.217 36.9677C62.3067 36.9677 61.601 38.2818 61.601 40.0582C61.601 44.1342 67.9767 44.2072 67.9767 48.8308C67.9767 51.2521 66.8694 53.0285 64.1683 53.0285C61.4672 53.0285 60.36 51.2521 60.36 48.8308V47.9669H61.4672V48.9038C61.4672 50.7045 62.1972 51.9943 64.144 51.9943C66.0786 51.9943 66.8208 50.7045 66.8208 48.9038C66.8208 44.8764 60.4451 44.8034 60.4451 40.1312C60.4451 37.6126 61.601 35.9822 64.2048 35.9578C66.8573 35.9457 67.9402 37.7221 67.9402 40.1434Z" fill="#51C8ED"/>
<path d="M76.5546 43.8666V44.8764H71.7363V51.8726H77.5279V52.8825H70.5683V36.0917H77.5279V37.1016H71.7363V43.8666H76.5546Z" fill="#51C8ED"/>
<path d="M81.1173 49.1593L80.2291 52.8703H79.1705L83.0275 36.0674H84.7188L88.6488 52.8703H87.4929L86.6047 49.1593H81.1173ZM81.2876 48.1981H86.4344L83.8427 37.3449L81.2876 48.1981Z" fill="#51C8ED"/>
<path d="M94.7202 36.0917C97.4214 36.0917 98.5043 37.5031 98.5043 39.8757V41.3358C98.5043 43.3069 97.7012 44.4262 95.9613 44.8156C97.7742 45.1928 98.5043 46.4217 98.5043 48.2468V50.8627C98.5043 51.5562 98.5529 52.3228 98.9301 52.8825H97.7256C97.4214 52.3836 97.3484 51.7753 97.3484 50.8627V48.2224C97.3484 45.9958 96.0586 45.3753 94.051 45.3753H92.2138V52.8703H91.0579V36.0917H94.7202ZM94.0632 44.3654C96.1316 44.3654 97.3362 43.8179 97.3362 41.5548V39.973C97.3362 38.1723 96.6062 37.1016 94.6959 37.1016H92.2016V44.3654H94.0632Z" fill="#51C8ED"/>
<path d="M109.065 40.192V41.5791H107.958V40.119C107.958 38.3183 107.228 36.9556 105.281 36.9556C103.347 36.9556 102.617 38.3183 102.617 40.119V48.8429C102.617 50.6437 103.347 51.9821 105.281 51.9821C107.228 51.9821 107.958 50.6437 107.958 48.8429V46.8475H109.065V48.7699C109.065 51.1912 107.958 53.0163 105.257 53.0163C102.556 53.0163 101.449 51.1912 101.449 48.7699V40.192C101.449 37.7708 102.556 35.9457 105.257 35.9457C107.958 35.9457 109.065 37.7708 109.065 40.192Z" fill="#51C8ED"/>
<path d="M112.862 44.9859V52.8703H111.706V36.0917H112.862V43.9761H118.349V36.0917H119.529V52.8703H118.349V44.9859H112.862Z" fill="#51C8ED"/>
<path d="M134.337 44.2681V45.278H129.774V52.8703H128.618V36.0917H135.322V37.1016H129.774V44.2681H134.337Z" fill="#51C8ED"/>
<path d="M138.826 48.8186C138.826 50.6194 139.532 52.0064 141.467 52.0064C143.414 52.0064 144.107 50.6194 144.107 48.8186V36.0917H145.19V48.7699C145.19 51.1669 144.131 53.0163 141.43 53.0163C138.729 53.0163 137.646 51.1669 137.646 48.7699V36.0917H138.802V48.8186H138.826Z" fill="#51C8ED"/>
<path d="M149.509 52.8703H148.451V36.0917H149.96L155.252 50.2543V36.0917H156.311V52.8703H155.021L149.497 37.9168V52.8703H149.509Z" fill="#51C8ED"/>
<path d="M163.441 36.0917C166.166 36.0917 167.346 37.7951 167.346 40.265V48.7091C167.346 51.1791 166.166 52.8825 163.441 52.8825H159.559V36.0917H163.441ZM163.416 51.8726C165.388 51.8726 166.191 50.6072 166.191 48.7578V40.2164C166.191 38.367 165.363 37.1016 163.416 37.1016H160.715V51.8726H163.416Z" fill="#51C8ED"/>
<path d="M43.4482 23.4373H47.0254V25.8342H43.4482V32.7574H40.6741V15.9788H48.0109V18.3757H43.4482V23.4373Z" fill="#0869A9"/>
<path d="M57.3067 32.7696H54.5082L54.0337 29.7278H50.6269L50.1523 32.7696H47.6094L50.42 15.9788H54.4717L57.3067 32.7696ZM50.9797 27.4403H53.6443L52.306 18.9597L50.9797 27.4403Z" fill="#0869A9"/>
<path d="M61.0542 20.6145V32.7696H58.5599V15.9788H62.0397L64.8869 26.0167V15.9788H67.3568V32.7574H64.5097L61.0542 20.6145Z" fill="#0869A9"/>
<path d="M77.3826 26.5034V28.73C77.3826 31.419 75.9712 32.9521 73.2458 32.9521C70.5203 32.9521 69.1089 31.419 69.1089 28.73V20.0183C69.1089 17.3293 70.5203 15.7963 73.2458 15.7963C75.9712 15.7963 77.3826 17.3293 77.3826 20.0183V21.6487H74.7667V19.848C74.7667 18.6434 74.207 18.1932 73.3309 18.1932C72.4549 18.1932 71.8952 18.6434 71.8952 19.848V28.9004C71.8952 30.1049 72.4549 30.5308 73.3309 30.5308C74.207 30.5308 74.7667 30.1049 74.7667 28.9004V26.5034H77.3826Z" fill="#0869A9"/>
<path d="M78.5993 20.0183C78.5993 17.3293 80.0838 15.7963 82.8092 15.7963C85.5347 15.7963 87.0191 17.3293 87.0191 20.0183V28.7422C87.0191 31.4312 85.5347 32.9642 82.8092 32.9642C80.0838 32.9642 78.5993 31.4312 78.5993 28.7422V20.0183ZM81.3735 28.9004C81.3735 30.1049 81.9332 30.5551 82.8092 30.5551C83.6853 30.5551 84.2449 30.1049 84.2449 28.9004V19.8358C84.2449 18.6312 83.6853 18.181 82.8092 18.181C81.9332 18.181 81.3735 18.6312 81.3735 19.8358V28.9004Z" fill="#0869A9"/>
<path d="M91.0221 20.6145V32.7696H88.5278V15.9788H92.0076L94.8548 26.0167V15.9788H97.3247V32.7574H94.4654L91.0221 20.6145Z" fill="#0869A9"/>
<path d="M99.819 15.9788H102.593V32.7574H99.819V15.9788Z" fill="#0869A9"/>
<path d="M117.985 32.7696H115.186L114.712 29.7278H111.305L110.83 32.7696H108.287L111.11 15.9909H115.162L117.985 32.7696ZM111.658 27.4403H114.335L112.996 18.9597L111.658 27.4403Z" fill="#0869A9"/>
<path d="M121.732 20.6145V32.7696H119.238V15.9788H122.718L125.565 26.0167V15.9788H128.035V32.7574H125.188L121.732 20.6145Z" fill="#0869A9"/>
<path d="M133.048 23.0601H136.856V25.4571H133.048V30.3726H137.842V32.7696H130.286V15.9788H137.842V18.3757H133.048V23.0601Z" fill="#0869A9"/>
<path d="M145.422 27.9027L147.308 15.9909H151.165V32.7696H148.549V20.7362L146.639 32.7696H144.023L141.954 20.9065V32.7696H139.533V15.9788H143.39L145.422 27.9027Z" fill="#0869A9"/>
<path d="M153.696 15.9788H156.47V32.7574H153.696V15.9788Z" fill="#0869A9"/>
<path d="M167.7 32.7696H164.902L164.427 29.7278H161.02L160.546 32.7696H158.003L160.826 15.9909H164.877L167.7 32.7696ZM161.373 27.4403H164.05L162.711 18.9597L161.373 27.4403Z" fill="#0869A9"/>
<path d="M26.9977 39.5467C26.9977 39.5467 25.7567 35.9087 25.4403 35.2395C23.8343 31.7475 19.3324 28.6327 15.7674 25.9924C13.9301 24.6297 12.0442 23.2304 10.3286 21.7947C5.52256 17.7552 4.40318 14.1659 4.30584 11.8541C4.23284 9.956 4.85336 8.21608 5.98492 7.10886L7.33548 5.7948L7.37198 7.63205C7.45715 11.4891 9.7811 15.1879 14.4898 18.9719C15.6822 19.921 17.0571 20.9308 18.505 22.0016C23.019 25.311 27.2654 27.489 28.3361 32.5992C29.1148 36.2494 26.9977 39.5467 26.9977 39.5467Z" fill="#4F86C6"/>
<path d="M22.3864 11.7328C22.3864 14.7746 20.5613 17.2446 18.3104 17.2446C16.0595 17.2446 14.2344 14.7746 14.2344 11.7328C14.2344 8.69102 16.0595 6.22107 18.3104 6.22107C20.5613 6.22107 22.3864 8.69102 22.3864 11.7328Z" fill="#51C8ED"/>
<path d="M14.5021 39.778H18.5903L19.9408 38.756H13.2002L14.5021 39.778Z" fill="#51C8ED"/>
<path d="M11.472 37.2957H21.802L22.9822 36.2737H11.472L11.0461 36.8942L11.472 37.2957Z" fill="#51C8ED"/>
<path d="M12.7378 34.8136H23.8221L23.0678 33.7915H13.772L12.7378 34.8136Z" fill="#51C8ED"/>
<path d="M15.4636 32.3317H21.7419L20.659 31.3097H16.7777L15.4636 32.3317Z" fill="#51C8ED"/>
<path d="M6.87327 34.5097C7.72498 29.363 12.239 27.1851 16.7531 23.8634C18.201 22.7927 19.5759 21.7828 20.7683 20.8338C24.0047 18.2421 26.0975 16.3319 26.6329 12.925C27.6306 13.8254 29.4922 18.4976 26.7789 21.722C25.9758 22.671 21.328 26.4915 19.5029 27.8421C15.9379 30.4824 11.363 33.585 9.75691 37.0648C9.45273 37.734 8.28467 41.3964 8.28467 41.3964C7.18962 39.5348 6.32575 37.8192 6.87327 34.5097Z" fill="#80D2EF"/>
<path d="M14.2099 47.4556C11.8129 45.594 9.72016 44.0974 8.57644 42.759C6.90953 40.8001 6.22817 37.5271 6.75136 34.7408C6.94604 33.7309 7.27455 32.8671 7.27455 32.8671C7.27455 32.8671 7.96808 34.0716 8.58861 35.2883C10 38.0625 13.2243 40.4594 16.619 42.9902C18.1399 44.1218 19.819 45.3141 21.3399 46.47C25.5254 49.6822 26.7543 52.2616 27.095 54.2449C27.4722 56.4593 27.314 58.5278 25.6957 61.1316C24.8075 54.9263 18.5049 50.7772 14.2099 47.4556Z" fill="#51C8ED"/>
<path d="M6.92202 63.0049C6.81252 62.6156 5.59579 61.2163 5.40112 58.9776C4.82926 52.2734 7.87107 49.9616 14.052 44.6811C15.4999 43.44 17.0695 42.2719 18.5904 41.1404C21.9972 38.6096 25.185 36.1883 26.6208 33.4385C26.7181 33.2439 27.8983 31.0294 27.8983 31.0294C27.8983 31.0294 28.3364 32.3921 28.4702 33.2682C28.896 36.0545 28.1538 39.1085 26.6694 40.8484C25.5379 42.1868 23.3965 43.732 20.9995 45.5936C15.9379 49.5358 9.09996 53.8795 6.92202 63.0049Z" fill="#0869A9"/>
</svg>
