<svg  viewBox="95 25 150 32" fill="none" xmlns="http://www.w3.org/2000/svg"><defs>
<clipPath id="clip0_0_1002">
<rect width="100" height="20" fill="white" transform="translate(107 31)"/>
</clipPath>
</defs><g clip-path="url(#clip0_0_1002)">
<path d="M119.335 47.3217C119.744 47.3217 120.112 47.6499 120.112 48.1011C120.112 48.5112 119.785 48.8804 119.335 48.8804C118.927 48.8804 118.559 48.5522 118.559 48.1011C118.559 47.6499 118.927 47.3217 119.335 47.3217ZM131.35 42.5637C130.942 42.5637 130.574 42.2356 130.574 41.7844C130.574 41.3743 130.901 41.0051 131.35 41.0051C131.759 41.0051 132.127 41.3333 132.127 41.7844C132.127 42.1946 131.759 42.5637 131.35 42.5637ZM131.35 39.4055C130.043 39.4055 128.98 40.4719 128.98 41.7844C128.98 42.0305 129.021 42.2767 129.103 42.5227L121.297 46.7065C120.848 46.0502 120.112 45.6811 119.335 45.6811C118.436 45.6811 117.619 46.2143 117.21 46.9936L110.181 43.3021C109.446 42.8919 108.874 41.7024 108.955 40.5539C108.996 39.9797 109.201 39.5285 109.487 39.3645C109.691 39.2414 109.895 39.2824 110.181 39.4055C112.061 40.3899 118.191 43.6302 118.436 43.7533C118.845 43.9173 119.049 43.9993 119.744 43.6712L132.331 37.1085C132.535 37.0265 132.74 36.8624 132.74 36.5753C132.74 36.2061 132.372 36.0421 132.372 36.0421C131.636 35.7139 130.533 35.1807 129.47 34.6885C127.182 33.6221 124.566 32.3916 123.422 31.7763C122.441 31.2431 121.624 31.6943 121.501 31.7763C116.311 34.4014 109.16 37.9289 108.751 38.1749C108.056 38.5851 107.607 39.4465 107.566 40.5129C107.484 42.1946 108.342 43.9583 109.568 44.5736L117.006 48.4292C117.17 49.5777 118.191 50.48 119.335 50.48C120.643 50.48 121.665 49.4546 121.706 48.1421L129.879 43.7122C130.288 44.0404 130.819 44.2044 131.35 44.2044C132.658 44.2044 133.721 43.138 133.721 41.8255C133.721 40.4719 132.658 39.4055 131.35 39.4055Z" fill="#4D82F7"/>
<path d="M199.96 41.4079V34.6399L196.84 34.6402V47.3599H199.96V44.4079L200.529 43.7245L202.888 47.3599H206.44L202.843 41.8584L206.248 37.7599H202.773L199.96 41.4079Z" fill="black"/>
<path d="M191.087 47.5639C194.106 47.5639 195.99 45.7417 195.99 42.5375C195.99 39.395 194.08 37.52 191.087 37.52C188.111 37.52 186.184 39.4038 186.184 42.5375C186.184 45.7329 188.067 47.5639 191.087 47.5639ZM191.087 45.2752C190.013 45.2752 189.352 44.2981 189.352 42.5463C189.352 40.821 190.03 39.8087 191.087 39.8087C192.152 39.8087 192.83 40.821 192.83 42.5463C192.83 44.2981 192.152 45.2752 191.087 45.2752Z" fill="black"/>
<path d="M180.688 47.5714C183.708 47.5714 185.591 45.7493 185.591 42.5451C185.591 39.4025 183.681 37.5276 180.688 37.5276C177.713 37.5276 175.785 39.4113 175.785 42.5451C175.785 45.7405 177.669 47.5714 180.688 47.5714ZM180.688 45.2827C179.614 45.2827 178.954 44.3056 178.954 42.5539C178.954 40.8286 179.632 39.8163 180.688 39.8163C181.753 39.8163 182.431 40.8286 182.431 42.5539C182.431 44.3056 181.753 45.2827 180.688 45.2827Z" fill="black"/>
<path d="M170.752 47.3599C173.472 47.3599 175.181 45.9073 175.181 43.6802C175.181 41.9901 173.826 40.6711 172.109 40.5919C173.518 40.3983 174.591 39.2349 174.591 37.8089C174.591 35.8459 173.086 34.6399 170.586 34.6399H164.68V47.3599H170.752ZM167.91 36.9286H169.732C170.815 36.9286 171.449 37.4567 171.449 38.3458C171.449 39.2613 170.745 39.8159 169.574 39.8159H167.91V36.9286ZM167.91 45.0535V41.7789H169.812C171.141 41.7789 171.898 42.3598 171.898 43.3985C171.898 44.4725 171.158 45.0535 169.829 45.0535H167.91Z" fill="black"/>
<path d="M158.975 35.6086V37.76H157.672V40.0539H158.975V44.7105C158.975 46.5943 159.945 47.432 162.436 47.432C163.043 47.432 163.517 47.3073 163.817 47.2457V45.0275C163.632 45.0627 163.447 45.0715 163.2 45.0715C162.452 45.0715 162.1 44.7369 162.1 44.0767V40.0539H163.816V37.76H162.1V35.6086H158.975Z" fill="black"/>
<path d="M153.688 47.36H156.808V37.76H153.688V47.36Z" fill="black"/>
<path d="M156.857 35.4848C156.857 36.3568 156.147 37.0881 155.244 37.0881C154.35 37.0881 153.641 36.3568 153.641 35.4848C153.641 34.6034 154.35 33.8721 155.244 33.8721C156.147 33.8721 156.857 34.6034 156.857 35.4848Z" fill="black"/>
<path d="M152.536 45.2337V40.4374H147.354V42.7414H149.416V44.2774C148.888 44.7297 148.48 44.9553 147.099 44.9553C145.241 44.9553 144.044 43.4324 144.044 40.9148C144.044 38.4413 145.127 37.0065 146.958 37.0065C148.199 37.0065 149.099 37.6931 149.416 38.8198H152.536C152.21 36.2318 150.03 34.4097 146.949 34.4097C143.111 34.4097 140.92 36.8324 140.92 40.952C140.92 45.1245 143.111 47.552 147.028 47.552C150.494 47.552 151.912 46.2657 152.536 45.2337Z" fill="black"/>
</g></svg>