<svg  viewBox="20 16 50 50" fill="none" xmlns="http://www.w3.org/2000/svg"><defs>
<clipPath id="clip0_0_595">
<rect width="50" height="50.6849" fill="white" transform="translate(20 16)"/>
</clipPath>
<clipPath id="clip1_0_595">
<rect width="100" height="23.622" fill="white" transform="translate(100 29)"/>
</clipPath>
</defs><g clip-path="url(#clip0_0_595)">
<path fill-rule="evenodd" clip-rule="evenodd" d="M26.5215 61.6795C26.5215 64.4236 28.2965 66.2034 31.0326 66.2034L44.213 66.2036C52.0757 66.2036 58.5078 63.5355 62.8807 58.8649H26.5215V61.6795ZM44.213 16.0003L31.0326 16C28.2965 16 26.5215 17.78 26.5215 20.5241V23.3388H62.8807C58.5078 18.668 52.0757 16.0003 44.213 16.0003ZM55.7156 48.2551C55.7156 50.4751 57.1574 51.9154 59.3807 51.9154H67.2787C68.1739 49.6874 68.7754 47.2379 69.0551 44.5947H59.3807C57.1574 44.5947 55.7156 46.0348 55.7156 48.2551ZM44.7684 33.9665C44.7684 36.1868 46.2106 37.6268 48.4338 37.6268H69.0551C68.7754 34.9836 68.1739 32.5342 67.2787 30.3062H48.4338C46.2106 30.3062 44.7684 31.7463 44.7684 33.9665ZM48.4313 48.2551C48.4313 46.0348 46.9891 44.5947 44.7659 44.5947H26.5215V51.9154H44.7659C46.9891 51.9154 48.4313 50.4753 48.4313 48.2551ZM37.4841 33.9665C37.4841 31.7463 36.0421 30.3062 33.8188 30.3062H26.5215V37.6268H33.8188C36.0421 37.6268 37.4841 36.1868 37.4841 33.9665Z" fill="#0062FF"/>
</g></svg>