<svg width="250" height="82" viewBox="0 0 250 82" fill="none" xmlns="http://www.w3.org/2000/svg">
<path d="M239.042 0V0.5H244C247.038 0.5 249.5 2.96243 249.5 6V10.667H250V15.333H249.5V24.667H250V29.333H249.5V38.667H250V43.333H249.5V52.667H250V57.333H249.5V66.667H250V71.333H249.5V76C249.5 79.0376 247.038 81.5 244 81.5H239.042V82H234.083V81.5H224.167V82H219.208V81.5H209.292V82H204.333V81.5H194.417V82H189.458V81.5H179.542V82H174.583V81.5H164.667V82H159.708V81.5H149.792V82H144.833V81.5H134.917V82H129.958V81.5H120.042V82H115.083V81.5H105.167V82H100.208V81.5H90.292V82H85.333V81.5H75.417V82H70.458V81.5H60.542V82H55.583V81.5H45.667V82H40.708V81.5H30.792V82H25.833V81.5H15.917V82H10.958V81.5H6C2.96243 81.5 0.5 79.0376 0.5 76V71.333H0V66.667H0.5V57.333H0V52.667H0.5V43.333H0V38.667H0.5V29.333H0V24.667H0.5V15.333H0V10.667H0.5V6C0.5 2.96243 2.96243 0.5 6 0.5H10.958V0H15.917V0.5H25.833V0H30.792V0.5H40.708V0H45.667V0.5H55.583V0H60.542V0.5H70.458V0H75.417V0.5H85.333V0H90.292V0.5H100.208V0H105.167V0.5H115.083V0H120.042V0.5H129.958V0H134.917V0.5H144.833V0H149.792V0.5H159.708V0H164.667V0.5H174.583V0H179.542V0.5H189.458V0H194.417V0.5H204.333V0H209.292V0.5H219.208V0H224.167V0.5H234.083V0H239.042Z" stroke="#722ED1" stroke-dasharray="10 5"/>
<g clip-path="url(#clip0_0_595)">
<path fill-rule="evenodd" clip-rule="evenodd" d="M26.5215 61.6795C26.5215 64.4236 28.2965 66.2034 31.0326 66.2034L44.213 66.2036C52.0757 66.2036 58.5078 63.5355 62.8807 58.8649H26.5215V61.6795ZM44.213 16.0003L31.0326 16C28.2965 16 26.5215 17.78 26.5215 20.5241V23.3388H62.8807C58.5078 18.668 52.0757 16.0003 44.213 16.0003ZM55.7156 48.2551C55.7156 50.4751 57.1574 51.9154 59.3807 51.9154H67.2787C68.1739 49.6874 68.7754 47.2379 69.0551 44.5947H59.3807C57.1574 44.5947 55.7156 46.0348 55.7156 48.2551ZM44.7684 33.9665C44.7684 36.1868 46.2106 37.6268 48.4338 37.6268H69.0551C68.7754 34.9836 68.1739 32.5342 67.2787 30.3062H48.4338C46.2106 30.3062 44.7684 31.7463 44.7684 33.9665ZM48.4313 48.2551C48.4313 46.0348 46.9891 44.5947 44.7659 44.5947H26.5215V51.9154H44.7659C46.9891 51.9154 48.4313 50.4753 48.4313 48.2551ZM37.4841 33.9665C37.4841 31.7463 36.0421 30.3062 33.8188 30.3062H26.5215V37.6268H33.8188C36.0421 37.6268 37.4841 36.1868 37.4841 33.9665Z" fill="#0062FF"/>
</g>
<g clip-path="url(#clip1_0_595)">
<path fill-rule="evenodd" clip-rule="evenodd" d="M100.525 50.4934C100.525 51.7846 101.353 52.622 102.63 52.622L108.779 52.622C112.447 52.622 115.447 51.3667 117.487 49.169H100.525V50.4934ZM108.779 29.0001L102.63 29C101.353 29 100.525 29.8375 100.525 31.1287V32.4531H117.487C115.447 30.2554 112.447 29.0001 108.779 29.0001ZM114.145 44.1768C114.145 45.2214 114.818 45.8991 115.855 45.8991H119.539C119.957 44.8508 120.238 43.6983 120.368 42.4546H115.855C114.818 42.4546 114.145 43.1322 114.145 44.1768ZM109.038 37.4537C109.038 38.4983 109.711 39.176 110.748 39.176H120.368C120.238 37.9323 119.957 36.7798 119.539 35.7314H110.748C109.711 35.7314 109.038 36.409 109.038 37.4537ZM110.747 44.1768C110.747 43.1322 110.074 42.4546 109.037 42.4546H100.525V45.8991H109.037C110.074 45.8991 110.747 45.2215 110.747 44.1768ZM105.64 37.4537C105.64 36.409 104.967 35.7314 103.93 35.7314H100.525V39.176H103.93C104.967 39.176 105.64 38.4983 105.64 37.4537Z" fill="#0062FF"/>
<path fill-rule="evenodd" clip-rule="evenodd" d="M143.796 40.4554C144.07 39.1074 144.955 38.4219 146.118 38.4219C147.271 38.4219 148.115 39.1381 148.384 40.4554H143.796ZM146.181 36.0867C143.219 36.0867 141.377 38.4864 141.377 41.4218C141.377 44.4618 143.346 46.7166 146.272 46.7166C148.29 46.7166 149.514 45.7703 150.271 44.5787L148.388 43.3583C147.914 44.0145 147.156 44.3611 146.344 44.3611C145.015 44.3611 144.125 43.7302 143.822 42.4686H148.794C148.794 42.4703 148.793 42.4719 148.793 42.4737L150.605 42.4845C150.674 42.1524 150.715 41.8094 150.715 41.4218C150.715 38.8649 149.161 36.0867 146.181 36.0867Z" fill="#0062FF"/>
<path fill-rule="evenodd" clip-rule="evenodd" d="M133.792 44.3545C131.969 44.3545 130.873 43.0324 130.873 41.4016C130.873 39.7709 131.99 38.449 133.792 38.449C135.593 38.449 136.709 39.7709 136.709 41.4016C136.709 43.0324 135.614 44.3545 133.792 44.3545ZM136.511 37.6475C135.783 36.763 134.75 36.2209 133.467 36.2209C130.601 36.2209 128.539 38.5705 128.539 41.4688C128.539 44.3672 130.581 46.7167 133.467 46.7167C134.75 46.7167 135.783 46.1746 136.511 45.2901V46.4583H139.044V32.5435H136.511V37.6475Z" fill="#0062FF"/>
<path fill-rule="evenodd" clip-rule="evenodd" d="M158.462 41.2271C159.149 41.7133 159.585 42.4422 159.585 43.404C159.585 45.348 158.29 46.6967 155.869 46.6967C153.591 46.6967 152.369 45.5154 151.883 44.3224L153.974 43.0867C153.974 43.0867 154.255 44.376 155.832 44.376C156.808 44.376 157.108 43.9396 157.108 43.5541C157.108 43.3756 157.052 43.047 156.357 42.7692C154.963 42.2116 152.266 41.9614 152.266 39.4171C152.266 37.3345 153.879 36.2237 155.869 36.2237C157.73 36.2237 158.925 37.3953 159.379 38.3068L157.333 39.5163C157.333 39.5163 156.939 38.5047 155.888 38.5047C154.837 38.5047 154.743 39.1196 154.743 39.2981C154.743 39.8189 155.268 40.0326 156.395 40.3693C157.062 40.5686 157.747 40.7496 158.464 41.2252C158.463 41.2259 158.462 41.2265 158.462 41.2271ZM199.739 38.9609H197.617V43.0866C197.617 44.376 198.856 44.0982 199.739 44.0982V46.419C199.739 46.419 199.274 46.4983 198.462 46.4983C196.661 46.4983 195.197 45.943 195.197 43.0866V38.9609H193.564V36.5013H195.197V33.7244H197.617V36.5013H199.739V38.9609ZM165.604 44.1974C166.608 44.1974 167.381 43.6909 167.771 42.86L169.87 44.1318C169.047 45.656 167.515 46.7165 165.604 46.7165C162.704 46.7165 160.677 44.372 160.677 41.48C160.677 38.588 162.723 36.2435 165.604 36.2435C167.487 36.2435 169.014 37.2866 169.845 38.7906L167.751 40.0914C167.353 39.2714 166.587 38.7626 165.604 38.7626C164.139 38.7626 163.098 39.9792 163.098 41.48C163.098 42.9808 164.129 44.1974 165.604 44.1974Z" fill="#0062FF"/>
<path fill-rule="evenodd" clip-rule="evenodd" d="M187.857 44.1705C186.28 44.1705 185.332 42.9264 185.332 41.3919C185.332 39.8572 186.298 38.6132 187.857 38.6132C189.417 38.6132 190.383 39.8572 190.383 41.3919C190.383 42.9264 189.435 44.1705 187.857 44.1705ZM188.158 36.1892C190.82 36.1892 192.735 38.5186 192.735 41.3919C192.735 44.2653 190.839 46.5945 188.158 46.5945C186.968 46.5945 186.008 46.057 185.332 45.1802V50.26H182.98V36.4652H185.332V37.6035C186.008 36.7267 186.968 36.1892 188.158 36.1892ZM178.459 46.3383V36.4848H180.811V46.3383H178.459ZM174.076 38.1679C174.53 36.9739 175.455 36.2909 176.848 36.2879V39.1257C175.215 38.9587 174.035 39.8362 174.078 41.9092C174.078 41.9077 174.077 41.9061 174.076 41.9045V46.3383H171.725V36.4849H174.076V38.1679ZM178.459 35.1698V32.5435H180.889V35.1698H178.459Z" fill="#0062FF"/>
</g>
<defs>
<clipPath id="clip0_0_595">
<rect width="50" height="50.6849" fill="white" transform="translate(20 16)"/>
</clipPath>
<clipPath id="clip1_0_595">
<rect width="100" height="23.622" fill="white" transform="translate(100 29)"/>
</clipPath>
</defs>
</svg>
