<svg width="144" height="83" viewBox="0 0 144 83" fill="none" xmlns="http://www.w3.org/2000/svg">
<g clip-path="url(#clip0_0_7921)">
<rect x="4" y="4.00018" width="152" height="85" fill="#0081C6"/>
<path d="M51.8555 35.6689C52.0457 35.1503 52.1148 35.0466 52.2012 35.0466C52.3049 35.0466 52.3568 35.1331 52.547 35.6171C52.789 36.2221 55.2782 42.7736 56.2462 45.1936C56.8166 46.6111 57.2834 46.8531 57.6118 46.9568C57.8538 47.0432 58.0958 47.0605 58.2514 47.0605C58.3551 47.0605 58.407 47.0778 58.407 47.1642C58.407 47.2507 58.2687 47.2852 58.0958 47.2852C57.8538 47.2852 56.6956 47.2852 55.6066 47.2507C55.3127 47.2334 55.1226 47.2334 55.1226 47.147C55.1226 47.0778 55.1744 47.0432 55.2263 47.0432C55.33 47.0087 55.4165 46.8704 55.33 46.6111L53.8607 42.7044C53.8261 42.6353 53.7916 42.6007 53.7224 42.6007H50.2997C50.2133 42.6007 50.1787 42.6525 50.1442 42.7217L49.1934 45.5393C49.0551 45.9369 48.9687 46.3172 48.9687 46.6111C48.9687 46.9222 49.2971 47.0778 49.5737 47.0778H49.7293C49.833 47.0778 49.8849 47.1124 49.8849 47.1815C49.8849 47.268 49.7812 47.3025 49.6429 47.3025C49.2626 47.3025 48.5711 47.2507 48.3983 47.2507C48.2254 47.2507 47.3438 47.3025 46.6005 47.3025C46.3931 47.3025 46.3066 47.268 46.3066 47.1815C46.3066 47.1124 46.3758 47.0778 46.4449 47.0778C46.5486 47.0778 46.7734 47.0605 46.9117 47.0432C47.6377 46.9395 47.9661 46.3518 48.2427 45.5566L51.8555 35.6689ZM53.515 42.0302C53.6014 42.0302 53.6014 41.9784 53.5841 41.9265L52.0802 37.6396C51.9938 37.3975 51.9246 37.3975 51.8382 37.6396L50.438 41.9265C50.4035 42.013 50.438 42.0302 50.4899 42.0302H53.515Z" fill="white"/>
<path d="M61.5876 43.3959C61.5876 45.3838 61.6222 46.1962 61.8815 46.4209C62.1062 46.6457 62.6421 46.7321 63.7311 46.7321C64.4571 46.7321 65.0794 46.7148 65.4079 46.3172C65.5807 46.1098 65.7017 45.8332 65.7363 45.5566C65.7536 45.4529 65.8055 45.3838 65.8746 45.3838C65.9437 45.3838 65.9783 45.4529 65.9783 45.5912C65.9783 45.7295 65.8746 46.5419 65.7709 46.9395C65.6672 47.2507 65.6326 47.3025 64.8893 47.3025C63.8867 47.3025 63.1088 47.2852 62.4692 47.2507C61.8296 47.2334 61.3629 47.2161 60.948 47.2161C60.8789 47.2161 60.6542 47.2161 60.3776 47.2334C60.0837 47.2507 59.7899 47.268 59.5651 47.268C59.4269 47.268 59.3404 47.2334 59.3404 47.1642C59.3404 47.1124 59.375 47.0605 59.4441 47.0605C59.5651 47.0605 59.738 47.026 59.8763 46.9914C60.1529 46.9222 60.1702 46.6802 60.2393 46.2826C60.3257 45.7295 60.3257 44.6577 60.3257 43.3613V40.9758C60.3257 38.8842 60.3257 38.5039 60.2912 38.0717C60.2566 37.605 60.1874 37.3975 59.7207 37.3284C59.617 37.3111 59.375 37.2938 59.2367 37.2938C59.1848 37.2938 59.133 37.2247 59.133 37.1901C59.133 37.1037 59.2021 37.0864 59.3577 37.0864C59.9973 37.0864 60.8616 37.121 60.948 37.121C61.0172 37.121 62.0544 37.0864 62.4865 37.0864C62.6248 37.0864 62.7112 37.121 62.7112 37.1901C62.7112 37.242 62.6421 37.2938 62.6075 37.2938C62.5038 37.2938 62.3136 37.3111 62.1408 37.3284C61.7259 37.4148 61.6568 37.6223 61.6222 38.089C61.6049 38.5212 61.6049 38.9014 61.6049 40.9931V43.3959H61.5876Z" fill="white"/>
<path d="M72.7891 46.6457C74.2584 46.6457 74.6387 46.4037 74.9671 46.0234C75.1054 45.8505 75.2091 45.4875 75.261 45.2973C75.2956 45.1763 75.3474 45.0899 75.4166 45.0899C75.503 45.0899 75.5203 45.1418 75.5203 45.3838C75.5203 45.8159 75.3301 46.6111 75.2264 46.9395C75.14 47.268 75.1227 47.2852 74.8116 47.2852C72.4779 47.2852 70.1097 47.2161 67.6724 47.2161C67.5168 47.2161 67.4131 47.1988 67.4131 47.1124C67.4131 47.0432 67.4304 46.9568 67.6032 46.6975C69.6948 43.6724 71.7692 40.6646 73.688 37.6568H70.732C70.0233 37.6568 69.1935 37.6396 68.7441 37.8816C68.2601 38.1409 68.0008 38.6249 67.9489 38.9533C67.9144 39.1607 67.8452 39.1953 67.7588 39.1953C67.6896 39.1953 67.6724 39.1262 67.6724 39.0224C67.6724 38.8669 67.8798 37.6396 67.9662 37.2247C67.9835 37.0345 68.0181 36.9654 68.0872 36.9654C68.2082 36.9654 68.3119 37.0518 68.675 37.0691C70.006 37.121 70.6802 37.1037 71.1123 37.1037H75.019C75.2264 37.1037 75.3129 37.1383 75.3129 37.2074C75.3129 37.2765 75.2956 37.363 75.2264 37.4494C73.1867 40.5609 71.1642 43.5687 69.0553 46.6457H72.7891Z" fill="white"/>
<path d="M86.9983 43.3613C86.9983 44.6577 87.0156 45.7295 87.0847 46.2826C87.1366 46.6802 87.1712 46.9395 87.586 46.9914C87.7762 47.026 88.0873 47.0605 88.2083 47.0605C88.3121 47.0605 88.3293 47.1297 88.3293 47.1642C88.3293 47.2334 88.2429 47.268 88.0873 47.268C87.3268 47.268 86.4279 47.2161 86.3587 47.2161C86.2896 47.2161 85.3907 47.268 84.9758 47.268C84.8203 47.268 84.7511 47.2334 84.7511 47.1642C84.7511 47.1124 84.7857 47.0605 84.8548 47.0605C84.9758 47.0605 85.1487 47.026 85.2697 46.9914C85.5636 46.9222 85.5981 46.6629 85.65 46.2654C85.7191 45.7122 85.7191 44.6923 85.7191 43.3959V42.0475C85.7191 41.9784 85.6846 41.9611 85.6327 41.9611H79.8073C79.7554 41.9611 79.7208 41.9784 79.7208 42.0475V43.3959C79.7208 44.6923 79.7208 45.7295 79.79 46.2826C79.8418 46.6802 79.8937 46.9395 80.2913 46.9914C80.4987 47.026 80.7926 47.0605 80.9309 47.0605C81.0173 47.0605 81.0346 47.1297 81.0346 47.1642C81.0346 47.2334 80.9654 47.268 80.8099 47.268C80.032 47.268 79.1504 47.2161 79.0812 47.2161C78.9948 47.2161 78.1132 47.268 77.6811 47.268C77.5428 47.268 77.4563 47.2334 77.4563 47.1642C77.4563 47.1124 77.4909 47.0605 77.5601 47.0605C77.6811 47.0605 77.8539 47.026 77.9922 46.9914C78.2688 46.9222 78.2861 46.6802 78.3552 46.2826C78.4417 45.7295 78.4417 44.6577 78.4417 43.3613V40.9758C78.4417 38.8842 78.4417 38.5039 78.4071 38.0717C78.3725 37.605 78.3034 37.3975 77.8366 37.3284C77.7329 37.3111 77.4909 37.2938 77.3526 37.2938C77.3008 37.2938 77.2489 37.2247 77.2489 37.1901C77.2489 37.1037 77.3181 37.0864 77.4736 37.0864C78.1132 37.0864 78.9948 37.121 79.0812 37.121C79.1504 37.121 80.032 37.0864 80.4641 37.0864C80.6197 37.0864 80.6889 37.121 80.6889 37.1901C80.6889 37.242 80.6197 37.2938 80.5851 37.2938C80.4814 37.2938 80.395 37.2938 80.2394 37.3284C79.8591 37.4148 79.7727 37.605 79.7381 38.0717C79.7208 38.5039 79.7208 38.9187 79.7208 41.0104V41.3042C79.7208 41.3907 79.7554 41.3907 79.8073 41.3907H85.6327C85.6846 41.3907 85.7191 41.3907 85.7191 41.3042V41.0104C85.7191 38.9187 85.7019 38.5039 85.6846 38.0717C85.65 37.605 85.5808 37.3975 85.1314 37.3284C85.0277 37.3111 84.7857 37.2938 84.6474 37.2938C84.5782 37.2938 84.5437 37.2247 84.5437 37.1901C84.5437 37.1037 84.6128 37.0864 84.7684 37.0864C85.3907 37.0864 86.2896 37.121 86.3587 37.121C86.4452 37.121 87.3268 37.0864 87.7416 37.0864C87.8972 37.0864 87.9836 37.121 87.9836 37.1901C87.9836 37.242 87.9145 37.2938 87.8626 37.2938C87.7589 37.2938 87.6898 37.2938 87.5169 37.3284C87.1539 37.4148 87.0675 37.605 87.0329 38.0717C86.9983 38.5039 86.9983 38.8842 86.9983 40.9758V43.3613Z" fill="white"/>
<path d="M91.6137 40.9758C91.6137 38.8842 91.6137 38.5039 91.5791 38.0717C91.5446 37.605 91.4754 37.3975 91.0087 37.3284C90.905 37.3111 90.663 37.2938 90.5247 37.2938C90.4728 37.2938 90.421 37.2247 90.421 37.1901C90.421 37.1037 90.4901 37.0864 90.6457 37.0864C91.2853 37.0864 92.1842 37.121 92.2706 37.121C92.3743 37.121 95.2784 37.1383 95.6068 37.121C95.8834 37.1037 96.1254 37.0518 96.2464 37.0345C96.3156 37.0173 96.3674 36.9654 96.4366 36.9654C96.4884 36.9654 96.5057 37.0345 96.5057 37.0864C96.5057 37.1901 96.4193 37.3457 96.402 37.726C96.3847 37.847 96.3501 38.452 96.3156 38.6076C96.2983 38.6767 96.2464 38.7459 96.1946 38.7459C96.1081 38.7459 96.0908 38.6767 96.0908 38.573C96.0908 38.4693 96.0736 38.2619 96.0044 38.089C95.918 37.8643 95.7624 37.7778 95.0018 37.6741C94.7598 37.6396 93.1522 37.6223 92.9793 37.6223C92.9102 37.6223 92.8929 37.6741 92.8929 37.7606V41.4252C92.8929 41.5289 92.8929 41.5635 92.9793 41.5635C93.1522 41.5635 95.0018 41.5635 95.313 41.5289C95.6414 41.4944 95.8488 41.4771 95.9871 41.3388C96.0908 41.2351 96.1427 41.1659 96.1946 41.1659C96.2464 41.1659 96.281 41.2005 96.281 41.2697C96.281 41.3561 96.1946 41.5635 96.1773 42.013C96.1427 42.2895 96.1081 42.7908 96.1081 42.8946C96.1081 42.9983 96.0736 43.1539 95.9871 43.1539C95.918 43.1539 95.8834 43.102 95.8834 43.0328C95.8834 42.9118 95.8834 42.7563 95.8143 42.5834C95.7624 42.3933 95.6414 42.2377 95.1055 42.1685C94.7252 42.1167 93.2386 42.0994 92.9966 42.0994C92.9102 42.0994 92.8929 42.1513 92.8929 42.1858V43.3094C92.8929 43.7762 92.8756 45.3492 92.8929 45.6085C92.9275 46.5074 93.1868 46.6802 94.5524 46.6802C94.9154 46.6802 95.5895 46.6802 95.9526 46.5419C96.3156 46.3864 96.5057 46.1444 96.5921 45.6085C96.6267 45.4529 96.6613 45.4011 96.7304 45.4011C96.8169 45.4011 96.8342 45.5048 96.8342 45.6085C96.8342 45.7122 96.7304 46.6284 96.644 46.905C96.5576 47.2507 96.402 47.2507 95.8661 47.2507C94.8117 47.2507 94.0165 47.2161 93.4461 47.1988C92.8583 47.1642 92.4953 47.1642 92.2879 47.1642C92.2533 47.1642 91.994 47.1642 91.6829 47.1815C91.4063 47.1988 91.0951 47.2161 90.8704 47.2161C90.7321 47.2161 90.6457 47.1815 90.6457 47.1124C90.6457 47.0605 90.6803 47.0087 90.7494 47.0087C90.8704 47.0087 91.0433 46.9568 91.1816 46.9395C91.4581 46.8877 91.4754 46.6284 91.5446 46.2308C91.631 45.6776 91.631 44.6059 91.631 43.3094V40.9758H91.6137Z" fill="white"/>
<path d="M101.622 43.3613C101.622 44.6577 101.622 45.7295 101.692 46.2826C101.743 46.6802 101.795 46.9395 102.193 46.9914C102.4 47.026 102.694 47.0605 102.832 47.0605C102.919 47.0605 102.936 47.1297 102.936 47.1642C102.936 47.2334 102.867 47.268 102.711 47.268C101.934 47.268 101.035 47.2161 100.966 47.2161C100.879 47.2161 100.015 47.268 99.5827 47.268C99.4444 47.268 99.3579 47.2334 99.3579 47.1642C99.3579 47.1124 99.3925 47.0605 99.4616 47.0605C99.5826 47.0605 99.7555 47.026 99.8938 46.9914C100.17 46.9222 100.205 46.6802 100.257 46.2826C100.326 45.7295 100.343 44.6577 100.343 43.3613V40.9758C100.343 38.8842 100.343 38.5039 100.309 38.0717C100.274 37.605 100.17 37.3975 99.8592 37.3457C99.7037 37.3111 99.5308 37.2938 99.4271 37.2938C99.3579 37.2938 99.3234 37.2247 99.3234 37.1901C99.3234 37.1037 99.3925 37.0864 99.5481 37.0864C100.015 37.0864 100.879 37.121 100.966 37.121C101.035 37.121 101.934 37.0864 102.366 37.0864C102.521 37.0864 102.59 37.121 102.59 37.1901C102.59 37.242 102.521 37.2938 102.487 37.2938C102.383 37.2938 102.297 37.2938 102.141 37.3284C101.761 37.4148 101.674 37.605 101.657 38.0717C101.64 38.5039 101.64 38.8842 101.64 40.9758V43.3613H101.622Z" fill="white"/>
<path d="M116.99 45.5393C117.042 46.0234 117.128 46.7494 117.699 46.9395C118.096 47.0605 118.459 47.0605 118.597 47.0605C118.667 47.0605 118.701 47.0951 118.701 47.1642C118.701 47.2507 118.58 47.2852 118.407 47.2852C118.096 47.2852 116.54 47.2507 116.022 47.1988C115.693 47.1642 115.624 47.1124 115.624 47.0605C115.624 47.0087 115.659 46.9568 115.728 46.9568C115.814 46.9395 115.814 46.7321 115.797 46.4728L115.123 39.6448L111.752 46.5419C111.458 47.1297 111.389 47.2507 111.268 47.2507C111.147 47.2507 111.061 47.1297 110.784 46.6284C110.421 45.9542 109.505 44.2256 109.142 43.4996C108.727 42.6353 107.603 40.3708 107.361 39.8176H107.292L106.756 45.9196C106.739 46.1271 106.739 46.3864 106.739 46.6111C106.739 46.8185 106.86 46.9395 107.068 46.9914C107.31 47.0605 107.517 47.0778 107.603 47.0778C107.655 47.0778 107.707 47.1297 107.707 47.1815C107.707 47.268 107.603 47.3025 107.448 47.3025C106.929 47.3025 106.255 47.2507 106.151 47.2507C106.03 47.2507 105.356 47.3025 104.976 47.3025C104.838 47.3025 104.734 47.268 104.734 47.1815C104.734 47.1297 104.803 47.0778 104.872 47.0778C104.976 47.0778 105.08 47.0605 105.287 47.026C105.754 46.9395 105.771 46.4555 105.823 45.9542L106.843 37.1383C106.86 37 106.929 36.8962 106.998 36.8962C107.102 36.8962 107.206 36.9481 107.292 37.1037L111.51 45.4875L115.572 37.121C115.642 37 115.693 36.8962 115.797 36.8962C115.884 36.8962 115.97 37 116.005 37.2593L116.99 45.5393Z" fill="white"/>
<path d="M121.19 40.9758C121.19 38.8842 121.19 38.5039 121.156 38.0717C121.121 37.605 121.052 37.3975 120.585 37.3284C120.482 37.3111 120.24 37.2938 120.101 37.2938C120.049 37.2938 119.998 37.2247 119.998 37.1901C119.998 37.1037 120.067 37.0864 120.222 37.0864C120.862 37.0864 121.761 37.121 121.847 37.121C121.951 37.121 124.855 37.1383 125.183 37.121C125.46 37.1037 125.702 37.0518 125.823 37.0345C125.892 37.0173 125.944 36.9654 126.013 36.9654C126.065 36.9654 126.082 37.0345 126.082 37.0864C126.082 37.1901 125.996 37.3457 125.979 37.726C125.961 37.847 125.927 38.452 125.892 38.6076C125.875 38.6767 125.823 38.7459 125.771 38.7459C125.685 38.7459 125.667 38.6767 125.667 38.573C125.667 38.4693 125.65 38.2619 125.581 38.089C125.477 37.8643 125.339 37.7778 124.578 37.6741C124.336 37.6396 122.729 37.6223 122.556 37.6223C122.487 37.6223 122.47 37.6741 122.47 37.7606V41.4252C122.47 41.5289 122.47 41.5635 122.556 41.5635C122.729 41.5635 124.578 41.5635 124.89 41.5289C125.218 41.4944 125.425 41.4771 125.564 41.3388C125.65 41.2351 125.719 41.1659 125.771 41.1659C125.823 41.1659 125.858 41.2005 125.858 41.2697C125.858 41.3561 125.771 41.5635 125.754 42.013C125.719 42.2895 125.685 42.7908 125.685 42.8946C125.685 42.9983 125.65 43.1539 125.564 43.1539C125.495 43.1539 125.46 43.102 125.46 43.0328C125.46 42.9118 125.46 42.7563 125.391 42.5834C125.339 42.3933 125.218 42.2377 124.682 42.1685C124.302 42.1167 122.815 42.0994 122.573 42.0994C122.487 42.0994 122.47 42.1513 122.47 42.1858V43.3094C122.47 43.7762 122.452 45.3492 122.47 45.6085C122.504 46.5074 122.763 46.6802 124.129 46.6802C124.492 46.6802 125.166 46.6802 125.529 46.5419C125.892 46.3864 126.082 46.1444 126.169 45.6085C126.203 45.4529 126.238 45.4011 126.307 45.4011C126.394 45.4011 126.394 45.5048 126.411 45.6085C126.411 45.7122 126.307 46.6284 126.221 46.905C126.134 47.2507 125.979 47.2507 125.443 47.2507C124.388 47.2507 123.593 47.2161 123.005 47.1988C122.418 47.1642 122.055 47.1642 121.847 47.1642C121.813 47.1642 121.553 47.1642 121.242 47.1815C120.966 47.1988 120.655 47.2161 120.43 47.2161C120.291 47.2161 120.205 47.1815 120.205 47.1124C120.205 47.0605 120.24 47.0087 120.309 47.0087C120.43 47.0087 120.603 46.9568 120.741 46.9395C121.018 46.8877 121.035 46.6284 121.104 46.2308C121.19 45.6776 121.19 44.6059 121.19 43.3094V40.9758Z" fill="white"/>
<path d="M129.937 40.9758C129.937 38.8842 129.937 38.5039 129.903 38.0717C129.868 37.605 129.799 37.3975 129.332 37.3284C129.228 37.3111 128.986 37.2938 128.848 37.2938C128.796 37.2938 128.744 37.2247 128.744 37.1901C128.744 37.1037 128.814 37.0864 128.969 37.0864C129.609 37.0864 130.542 37.121 130.629 37.121C130.767 37.121 131.942 37.0864 132.375 37.0864C133.256 37.0864 134.241 37.1728 134.985 37.6741C135.33 37.9334 135.953 38.573 135.953 39.5238C135.953 40.5263 135.538 41.4944 134.241 42.6007C135.382 44.0354 136.35 45.2455 137.163 46.0925C137.906 46.8531 138.373 46.9741 138.719 47.026C138.995 47.0778 139.133 47.0778 139.203 47.0778C139.289 47.0778 139.324 47.147 139.324 47.1815C139.324 47.268 139.237 47.2852 138.995 47.2852H138.114C137.318 47.2852 136.973 47.1988 136.627 47.0087C136.022 46.6975 135.521 46.0406 134.725 45.0208C134.138 44.2947 133.515 43.4131 133.222 43.0501C133.152 42.981 133.135 42.9637 133.031 42.9637L131.251 42.9291C131.182 42.9291 131.147 42.9637 131.147 43.0328V43.344C131.147 44.6405 131.147 45.6949 131.216 46.2481C131.268 46.6457 131.337 46.905 131.77 46.9568C131.96 46.9914 132.254 47.026 132.392 47.026C132.478 47.026 132.496 47.0951 132.496 47.1297C132.496 47.1988 132.426 47.2334 132.271 47.2334C131.51 47.2334 130.629 47.1815 130.559 47.1815C130.542 47.1815 129.609 47.2334 129.177 47.2334C129.038 47.2334 128.952 47.1988 128.952 47.1297C128.952 47.0778 128.986 47.026 129.056 47.026C129.177 47.026 129.349 46.9914 129.488 46.9568C129.764 46.8877 129.782 46.6457 129.851 46.2481C129.937 45.6949 129.937 44.6232 129.937 43.3267V40.9758ZM131.147 42.1167C131.147 42.2031 131.182 42.2377 131.251 42.2895C131.458 42.3933 132.167 42.497 132.789 42.497C133.118 42.497 133.498 42.4797 133.844 42.255C134.328 41.9438 134.691 41.2178 134.691 40.1979C134.691 38.5212 133.775 37.5531 132.271 37.5531C131.856 37.5531 131.407 37.605 131.268 37.6396C131.199 37.6741 131.164 37.726 131.164 37.7951V42.1167H131.147Z" fill="white"/>
<path d="M138.39 37.5531C138.269 37.4148 138.252 37.363 138.252 37.2765C138.252 37.2247 138.338 37.1901 138.39 37.1728C138.649 37.1728 139.254 37.363 139.496 37.4667C139.687 37.5704 139.773 37.6396 139.773 37.8816C139.773 39.0052 138.961 40.3362 138.407 41.0104C138.338 41.1141 138.286 41.1314 138.2 41.1314C138.165 41.1314 138.114 41.0968 138.114 41.0449C138.114 40.9931 138.131 40.9412 138.183 40.8375C138.425 40.3362 138.701 39.4719 138.701 38.573C138.701 38.089 138.494 37.6741 138.39 37.5531Z" fill="white"/>
<path d="M141.813 47.0951C141.623 47.0087 141.605 46.9568 141.605 46.5938C141.605 45.9196 141.675 45.3838 141.692 45.159C141.692 45.0208 141.726 44.9343 141.796 44.9343C141.882 44.9343 141.917 44.9862 141.917 45.0899C141.917 45.1936 141.917 45.3838 141.968 45.5739C142.193 46.5592 143.23 46.905 144.181 46.905C145.564 46.905 146.273 46.1271 146.273 45.1072C146.273 44.1392 145.754 43.6724 144.509 42.7563L143.87 42.2723C142.366 41.1487 141.865 40.3189 141.865 39.3855C141.865 37.7951 143.127 36.8444 144.959 36.8444C145.512 36.8444 146.065 36.9308 146.411 37C146.688 37.0691 146.791 37.0691 146.895 37.0691C146.999 37.0691 147.033 37.0864 147.033 37.1728C147.033 37.242 146.964 37.6741 146.964 38.6076C146.964 38.815 146.947 38.9014 146.86 38.9014C146.757 38.9014 146.757 38.8323 146.739 38.7286C146.722 38.573 146.618 38.21 146.532 38.0544C146.428 37.8988 145.979 37.3803 144.717 37.3803C143.697 37.3803 142.867 37.8816 142.867 38.8323C142.867 39.6966 143.299 40.1806 144.682 41.1141L145.08 41.3907C146.774 42.5488 147.362 43.4823 147.362 44.6405C147.362 45.4356 147.068 46.2999 146.065 46.9395C145.477 47.3198 144.613 47.4235 143.835 47.4235C143.196 47.4581 142.383 47.3544 141.813 47.0951Z" fill="white"/>
<path d="M53.5841 52.8514C53.5841 51.8142 53.5841 51.6414 53.5668 51.4166C53.5495 51.1919 53.515 51.0882 53.2903 51.0536C53.2384 51.0536 53.1174 51.0364 53.0482 51.0364C53.031 51.0364 52.9964 51.0018 52.9964 50.9845C52.9964 50.9499 53.031 50.9326 53.1001 50.9326C53.4113 50.9326 53.878 50.9499 53.9126 50.9499C53.9817 50.9499 54.5521 50.9326 54.7769 50.9326C55.209 50.9326 55.693 50.9672 56.056 51.2265C56.2289 51.3475 56.5401 51.6759 56.5401 52.1254C56.5401 52.6094 56.3326 53.0934 55.693 53.6466C56.2462 54.3553 56.7302 54.943 57.1278 55.3579C57.4908 55.7382 57.7155 55.79 57.8884 55.8246C58.0267 55.8419 58.0958 55.8419 58.1304 55.8419C58.165 55.8419 58.1995 55.8765 58.1995 55.8938C58.1995 55.9283 58.165 55.9456 58.044 55.9456H57.6118C57.2142 55.9456 57.0586 55.9111 56.8858 55.8073C56.5919 55.6518 56.3326 55.3233 55.9523 54.8393C55.6585 54.4763 55.3646 54.0441 55.209 53.8713C55.1744 53.8367 55.1572 53.8367 55.1226 53.8367L54.241 53.8194C54.2064 53.8194 54.1891 53.8367 54.1891 53.8713V54.0269C54.1891 54.6664 54.1891 55.185 54.2237 55.4616C54.241 55.6518 54.2929 55.7728 54.5003 55.8073C54.5867 55.8246 54.7423 55.8419 54.8114 55.8419C54.8633 55.8419 54.8633 55.8765 54.8633 55.8938C54.8633 55.9283 54.8287 55.9456 54.7596 55.9456C54.3793 55.9456 53.9471 55.9283 53.9126 55.9283C53.9126 55.9283 53.4458 55.9456 53.2384 55.9456C53.1693 55.9456 53.1347 55.9283 53.1347 55.8938C53.1347 55.8765 53.152 55.8419 53.1865 55.8419C53.2557 55.8419 53.3421 55.8246 53.394 55.8073C53.5323 55.7728 53.5495 55.6518 53.5668 55.4616C53.6014 55.185 53.6014 54.6664 53.6014 54.0269V52.8514H53.5841ZM54.1718 53.4046C54.1718 53.4391 54.1891 53.4737 54.2237 53.491C54.3274 53.5428 54.6732 53.5947 54.9843 53.5947C55.1399 53.5947 55.33 53.5947 55.5029 53.4737C55.7449 53.3181 55.9178 52.9724 55.9178 52.4538C55.9178 51.6241 55.4683 51.1573 54.725 51.1573C54.5176 51.1573 54.3101 51.1746 54.241 51.1919C54.2064 51.2092 54.1891 51.2265 54.1891 51.2784V53.4046H54.1718Z" fill="white"/>
<path d="M58.8218 52.8514C58.8218 51.8142 58.8218 51.6414 58.8046 51.4166C58.7873 51.1919 58.7527 51.0882 58.528 51.0536C58.4761 51.0536 58.3551 51.0364 58.286 51.0364C58.2687 51.0364 58.2341 51.0018 58.2341 50.9845C58.2341 50.9499 58.2687 50.9326 58.3378 50.9326C58.649 50.9326 59.0984 50.9499 59.133 50.9499C59.1848 50.9499 60.6196 50.9499 60.7752 50.9499C60.9135 50.9499 61.0345 50.9153 61.0863 50.9153C61.1209 50.9153 61.1555 50.8808 61.1728 50.8808C61.19 50.8808 61.2073 50.9153 61.2073 50.9499C61.2073 51.0018 61.1728 51.0709 61.1555 51.2611C61.1555 51.3302 61.1382 51.6241 61.1209 51.6932C61.1209 51.7278 61.0863 51.7624 61.0518 51.7624C61.0172 51.7624 60.9999 51.7278 60.9999 51.6759C60.9999 51.6241 60.9999 51.5204 60.9653 51.4339C60.9135 51.3302 60.8443 51.2784 60.4813 51.2265C60.3603 51.2092 59.5651 51.2092 59.496 51.2092C59.4614 51.2092 59.4614 51.2265 59.4614 51.2784V53.0761C59.4614 53.128 59.4614 53.1453 59.496 53.1453C59.5824 53.1453 60.4813 53.1453 60.6369 53.128C60.7925 53.1107 60.8962 53.1107 60.9653 53.0415C61.0172 52.9897 61.0345 52.9551 61.069 52.9551C61.0863 52.9551 61.1036 52.9724 61.1036 53.007C61.1036 53.0415 61.069 53.1626 61.0518 53.37C61.0345 53.5083 61.0172 53.7503 61.0172 53.8021C61.0172 53.854 60.9999 53.9231 60.948 53.9231C60.9135 53.9231 60.8962 53.9059 60.8962 53.854C60.8962 53.7849 60.8962 53.7157 60.8616 53.6293C60.8443 53.5428 60.7752 53.4564 60.5159 53.4218C60.3257 53.4046 59.5997 53.3873 59.4787 53.3873C59.4441 53.3873 59.4268 53.4046 59.4268 53.4391V53.9923C59.4268 54.217 59.4268 54.9949 59.4268 55.1159C59.4441 55.5653 59.5651 55.6518 60.2393 55.6518C60.4122 55.6518 60.7406 55.6518 60.9307 55.5826C61.1036 55.4962 61.2073 55.3925 61.2419 55.1159C61.2592 55.0467 61.2765 55.0122 61.311 55.0122C61.3456 55.0122 61.3629 55.064 61.3629 55.1159C61.3629 55.1677 61.311 55.6172 61.2765 55.7555C61.2246 55.9283 61.1555 55.9283 60.8962 55.9283C60.3776 55.9283 59.98 55.911 59.7034 55.911C59.4096 55.8938 59.2367 55.8938 59.133 55.8938C59.1157 55.8938 58.9774 55.8938 58.8391 55.8938C58.7008 55.8938 58.5453 55.911 58.4415 55.911C58.3724 55.911 58.3378 55.8938 58.3378 55.8592C58.3378 55.8419 58.3551 55.8073 58.3897 55.8073C58.4588 55.8073 58.5453 55.7901 58.5971 55.7728C58.7354 55.7555 58.7527 55.6172 58.77 55.427C58.8045 55.1505 58.8046 54.6319 58.8046 53.9923V52.8514H58.8218Z" fill="white"/>
<path d="M62.5384 55.8592C62.4519 55.8073 62.4347 55.7901 62.4347 55.6172C62.4347 55.2887 62.4692 55.0295 62.4692 54.9085C62.4692 54.8393 62.4865 54.8047 62.5211 54.8047C62.5557 54.8047 62.5902 54.822 62.5902 54.8912C62.5902 54.943 62.5902 55.0467 62.6075 55.1332C62.7112 55.6172 63.2298 55.7901 63.6965 55.7901C64.3707 55.7901 64.7337 55.4098 64.7337 54.9085C64.7337 54.4244 64.4744 54.1997 63.8694 53.7503L63.5583 53.5256C62.8149 52.9724 62.5729 52.5748 62.5729 52.1081C62.5729 51.3302 63.1952 50.8635 64.0941 50.8635C64.3707 50.8635 64.6473 50.8981 64.8029 50.9499C64.9411 50.9845 64.993 50.9845 65.0449 50.9845C65.0967 50.9845 65.114 50.9845 65.114 51.0364C65.114 51.0709 65.0794 51.2784 65.0794 51.7451C65.0794 51.8488 65.0794 51.9007 65.0276 51.9007C64.9757 51.9007 64.9757 51.8661 64.9584 51.8142C64.9584 51.7278 64.8893 51.5549 64.8547 51.4858C64.8029 51.3994 64.5781 51.1573 63.9731 51.1573C63.4718 51.1573 63.0569 51.3994 63.0569 51.8834C63.0569 52.2982 63.2644 52.5402 63.9385 53.007L64.1287 53.1453C64.9584 53.7157 65.2523 54.1824 65.2523 54.7356C65.2523 55.1332 65.0967 55.548 64.6127 55.8592C64.3188 56.0493 63.8867 56.1012 63.5237 56.1012C63.2125 56.0321 62.8149 55.9802 62.5384 55.8592Z" fill="white"/>
<path d="M67.0501 52.8514C67.0501 51.8142 67.0501 51.6414 67.0328 51.4166C67.0155 51.1919 66.9809 51.0882 66.7562 51.0536C66.7043 51.0536 66.5833 51.0364 66.5142 51.0364C66.4969 51.0364 66.4623 51.0018 66.4623 50.9845C66.4623 50.9499 66.4969 50.9326 66.566 50.9326C66.8772 50.9326 67.3266 50.9499 67.3612 50.9499C67.4131 50.9499 68.8478 50.9499 69.0034 50.9499C69.1417 50.9499 69.2627 50.9153 69.3145 50.9153C69.3491 50.9153 69.3837 50.8808 69.401 50.8808C69.4183 50.8808 69.4356 50.9153 69.4356 50.9499C69.4356 51.0018 69.401 51.0709 69.3837 51.2611C69.3837 51.3302 69.3664 51.6241 69.3491 51.6932C69.3491 51.7278 69.3145 51.7624 69.28 51.7624C69.2454 51.7624 69.2281 51.7278 69.2281 51.6759C69.2281 51.6241 69.2281 51.5204 69.1935 51.4339C69.1417 51.3302 69.0725 51.2784 68.7095 51.2265C68.5885 51.2092 67.7934 51.2092 67.7242 51.2092C67.6896 51.2092 67.6896 51.2265 67.6896 51.2784V53.0761C67.6896 53.128 67.6896 53.1453 67.7242 53.1453C67.8106 53.1453 68.7095 53.1453 68.8651 53.128C69.0207 53.1107 69.1244 53.1107 69.1935 53.0415C69.2454 52.9897 69.28 52.9551 69.2973 52.9551C69.3145 52.9551 69.3318 52.9724 69.3318 53.007C69.3318 53.0415 69.2973 53.1626 69.28 53.37C69.2627 53.5083 69.2454 53.7503 69.2454 53.8021C69.2454 53.854 69.2281 53.9231 69.1763 53.9231C69.1417 53.9231 69.1244 53.9059 69.1244 53.854C69.1244 53.7849 69.1244 53.7157 69.0898 53.6293C69.0725 53.5428 69.0034 53.4564 68.7441 53.4218C68.554 53.4046 67.8279 53.3873 67.7069 53.3873C67.6724 53.3873 67.6551 53.4046 67.6551 53.4391V53.9923C67.6551 54.217 67.6551 54.9949 67.6551 55.1159C67.6724 55.5653 67.7934 55.6518 68.4675 55.6518C68.6404 55.6518 68.9688 55.6518 69.159 55.5826C69.3318 55.4962 69.4356 55.3925 69.4701 55.1159C69.4874 55.0467 69.5047 55.0122 69.5393 55.0122C69.5738 55.0122 69.5911 55.064 69.5911 55.1159C69.5911 55.1677 69.5393 55.6172 69.5047 55.7555C69.4528 55.9283 69.3837 55.9283 69.1244 55.9283C68.6058 55.9283 68.2082 55.911 67.9317 55.911C67.6378 55.8938 67.4649 55.8938 67.3612 55.8938C67.3439 55.8938 67.2056 55.8938 67.0673 55.8938C66.9291 55.8938 66.7735 55.911 66.6698 55.911C66.6006 55.911 66.566 55.8938 66.566 55.8592C66.566 55.8419 66.5833 55.8073 66.6179 55.8073C66.687 55.8073 66.7735 55.7901 66.8253 55.7728C66.9636 55.7555 66.9809 55.6172 66.9982 55.427C67.0328 55.1505 67.0328 54.6319 67.0328 53.9923V52.8514H67.0501Z" fill="white"/>
<path d="M72.3915 51.0709C72.4779 50.8462 72.5125 50.8116 72.5471 50.8116C72.6162 50.8116 72.6335 50.8981 72.7026 51.0536C72.8236 51.3302 73.93 54.0787 74.3448 55.0813C74.5868 55.669 74.777 55.7555 74.9326 55.8073C75.0363 55.8419 75.14 55.8419 75.2091 55.8419C75.2437 55.8419 75.2956 55.8592 75.2956 55.8938C75.2956 55.9283 75.2091 55.9456 75.14 55.9456C75.0363 55.9456 74.535 55.9456 74.051 55.9283C73.9127 55.9283 73.809 55.9283 73.809 55.8765C73.809 55.8419 73.8262 55.8419 73.8608 55.8246C73.8954 55.8073 73.9645 55.7555 73.93 55.6518L73.3077 54.1306C73.2904 54.096 73.2904 54.096 73.2385 54.096H71.6482C71.6136 54.096 71.5963 54.1133 71.579 54.1479L71.1815 55.2023C71.1123 55.3579 71.0777 55.5308 71.0777 55.6518C71.0777 55.79 71.1987 55.8246 71.3197 55.8246H71.3889C71.4407 55.8246 71.458 55.8419 71.458 55.8765C71.458 55.9111 71.4235 55.9283 71.3543 55.9283C71.1987 55.9283 70.8184 55.911 70.732 55.911C70.6629 55.911 70.3171 55.9283 70.0406 55.9283C69.9541 55.9283 69.9023 55.9111 69.9023 55.8765C69.9023 55.8419 69.9368 55.8246 69.9714 55.8246C70.0233 55.8246 70.127 55.8246 70.1789 55.8073C70.49 55.7728 70.6283 55.5308 70.7493 55.2023L72.3915 51.0709ZM73.1521 53.8194C73.1867 53.8194 73.1866 53.8021 73.1694 53.7676L72.4952 51.9525C72.4606 51.8488 72.4088 51.8488 72.3742 51.9525L71.7346 53.7676C71.7346 53.8021 71.7346 53.8194 71.7519 53.8194H73.1521Z" fill="white"/>
<path d="M76.2117 52.8514C76.2117 51.8142 76.2117 51.6414 76.1944 51.4166C76.1772 51.1919 76.1426 51.0882 75.9179 51.0536C75.866 51.0536 75.745 51.0364 75.6759 51.0364C75.6586 51.0364 75.624 51.0018 75.624 50.9845C75.624 50.9499 75.6586 50.9326 75.7277 50.9326C76.0389 50.9326 76.5056 50.9499 76.5402 50.9499C76.6093 50.9499 77.1798 50.9326 77.4045 50.9326C77.8366 50.9326 78.3206 50.9672 78.6837 51.2265C78.8565 51.3475 79.1677 51.6759 79.1677 52.1254C79.1677 52.6094 78.9602 53.0934 78.3206 53.6466C78.8911 54.3553 79.3578 54.943 79.7554 55.3579C80.1184 55.7382 80.3431 55.79 80.516 55.8246C80.6543 55.8419 80.7234 55.8419 80.758 55.8419C80.7926 55.8419 80.8271 55.8765 80.8271 55.8938C80.8271 55.9283 80.7926 55.9456 80.6716 55.9456H80.2394C79.8418 55.9456 79.6863 55.9111 79.5134 55.8073C79.2195 55.6518 78.9602 55.3233 78.5799 54.8393C78.2861 54.4763 77.9922 54.0441 77.8366 53.8713C77.8021 53.8367 77.7848 53.8367 77.7502 53.8367L76.8686 53.8194C76.834 53.8194 76.8167 53.8367 76.8167 53.8713V54.0269C76.8167 54.6664 76.8167 55.185 76.8513 55.4616C76.8686 55.6518 76.9205 55.7728 77.1279 55.8073C77.2143 55.8246 77.3699 55.8419 77.4391 55.8419C77.4909 55.8419 77.4909 55.8765 77.4909 55.8938C77.4909 55.9283 77.4563 55.9456 77.3872 55.9456C77.0069 55.9456 76.5747 55.9283 76.5402 55.9283C76.5402 55.9283 76.0734 55.9456 75.866 55.9456C75.7969 55.9456 75.7623 55.9283 75.7623 55.8938C75.7623 55.8765 75.7796 55.8419 75.8142 55.8419C75.8833 55.8419 75.9697 55.8246 76.0216 55.8073C76.1599 55.7728 76.1772 55.6518 76.1944 55.4616C76.229 55.185 76.229 54.6664 76.229 54.0269L76.2117 52.8514ZM76.7995 53.4046C76.7995 53.4391 76.8167 53.4737 76.8513 53.491C76.955 53.5428 77.3008 53.5947 77.6119 53.5947C77.7675 53.5947 77.9576 53.5947 78.1305 53.4737C78.3725 53.3181 78.5454 52.9724 78.5454 52.4538C78.5454 51.6241 78.0959 51.1573 77.3526 51.1573C77.1452 51.1573 76.9378 51.1746 76.8686 51.1919C76.834 51.2092 76.8167 51.2265 76.8167 51.2784V53.4046H76.7995Z" fill="white"/>
<path d="M81.6223 55.3233C80.9482 54.7529 80.7926 53.9923 80.7926 53.3527C80.7926 52.9033 80.9482 52.1427 81.5704 51.5376C81.9853 51.1401 82.6076 50.8289 83.6621 50.8289C83.9387 50.8289 84.319 50.8462 84.6647 50.8981C84.924 50.9499 85.1487 50.9845 85.3734 51.0018C85.4426 51.0018 85.4598 51.0363 85.4598 51.0709C85.4598 51.1228 85.4426 51.2092 85.4253 51.4512C85.4253 51.6759 85.4253 52.0389 85.408 52.1254C85.408 52.2291 85.3734 52.2637 85.3216 52.2637C85.2697 52.2637 85.2697 52.2118 85.2697 52.1254C85.2697 51.8661 85.166 51.6068 84.9758 51.4685C84.7338 51.2611 84.2325 51.1055 83.6275 51.1055C82.7459 51.1055 82.331 51.3475 82.089 51.5722C81.5877 52.0389 81.4667 52.6267 81.4667 53.3008C81.4667 54.5627 82.4693 55.7036 83.9387 55.7036C84.4572 55.7036 84.803 55.669 85.0623 55.3925C85.2178 55.2369 85.3043 54.9603 85.3216 54.8393C85.3388 54.7702 85.3388 54.7529 85.3907 54.7529C85.4253 54.7529 85.4598 54.8047 85.4598 54.8393C85.4598 54.8912 85.3734 55.4616 85.3043 55.6863C85.2697 55.8073 85.2524 55.8419 85.1314 55.8765C84.8548 55.9802 84.3362 56.0321 83.8868 56.0321C82.8496 56.0321 82.1582 55.79 81.6223 55.3233Z" fill="white"/>
<path d="M91.2853 54.0269C91.2853 54.6664 91.2853 55.185 91.3199 55.4616C91.3371 55.6518 91.3544 55.7728 91.5619 55.8073C91.6483 55.8246 91.8039 55.8419 91.873 55.8419C91.9249 55.8419 91.9422 55.8765 91.9422 55.8938C91.9422 55.9283 91.9076 55.9456 91.8212 55.9456C91.4409 55.9456 91.0087 55.9283 90.9741 55.9283C90.9396 55.9283 90.4901 55.9456 90.3 55.9456C90.2135 55.9456 90.1963 55.9283 90.1963 55.8938C90.1963 55.8765 90.2135 55.8419 90.2481 55.8419C90.3173 55.8419 90.3864 55.8246 90.4555 55.8073C90.5938 55.7728 90.6111 55.6518 90.6457 55.4443C90.6803 55.1677 90.6803 54.6664 90.6803 54.0269V53.37C90.6803 53.3354 90.663 53.3354 90.6457 53.3354H87.7762C87.7589 53.3354 87.7416 53.3354 87.7416 53.37V54.0269C87.7416 54.6664 87.7416 55.1677 87.7762 55.4443C87.7935 55.6345 87.828 55.7555 88.0182 55.7901C88.1219 55.8073 88.2602 55.8246 88.3293 55.8246C88.3639 55.8246 88.3812 55.8592 88.3812 55.8765C88.3812 55.9111 88.3466 55.9283 88.2775 55.9283C87.8972 55.9283 87.465 55.911 87.4305 55.911C87.3959 55.911 86.9464 55.9283 86.739 55.9283C86.6699 55.9283 86.6353 55.9111 86.6353 55.8765C86.6353 55.8592 86.6526 55.8246 86.6872 55.8246C86.7563 55.8246 86.8427 55.8073 86.8946 55.7901C87.0329 55.7555 87.0502 55.6345 87.0675 55.4443C87.102 55.1677 87.102 54.6492 87.102 54.0096V52.8341C87.102 51.7969 87.102 51.6241 87.0847 51.3994C87.0675 51.1746 87.0329 51.0709 86.8082 51.0364C86.7563 51.0364 86.6353 51.0191 86.5662 51.0191C86.5489 51.0191 86.5143 50.9845 86.5143 50.9672C86.5143 50.9326 86.5489 50.9153 86.618 50.9153C86.9292 50.9153 87.3613 50.9326 87.4132 50.9326C87.4478 50.9326 87.8799 50.9153 88.0873 50.9153C88.1738 50.9153 88.1911 50.9326 88.1911 50.9672C88.1911 50.9845 88.1565 51.0191 88.1392 51.0191C88.0873 51.0191 88.0528 51.0191 87.9663 51.0364C87.7762 51.0709 87.7416 51.1746 87.7243 51.3994C87.7243 51.6068 87.7243 51.8142 87.7243 52.8341V52.9724C87.7243 53.007 87.7416 53.007 87.7589 53.007H90.6284C90.6457 53.007 90.663 53.007 90.663 52.9724V52.8341C90.663 51.7969 90.663 51.6068 90.6457 51.3994C90.6284 51.1746 90.5938 51.0709 90.3691 51.0364C90.3173 51.0364 90.1963 51.0191 90.1271 51.0191C90.0925 51.0191 90.0753 50.9845 90.0753 50.9672C90.0753 50.9326 90.1098 50.9153 90.179 50.9153C90.4901 50.9153 90.9223 50.9326 90.9568 50.9326C90.9914 50.9326 91.4409 50.9153 91.631 50.9153C91.7174 50.9153 91.752 50.9326 91.752 50.9672C91.752 50.9845 91.7174 51.0191 91.6829 51.0191C91.631 51.0191 91.5964 51.0191 91.51 51.0364C91.3371 51.0709 91.2853 51.1746 91.268 51.3994C91.2507 51.6068 91.2507 51.7969 91.2507 52.8341V54.0269H91.2853Z" fill="white"/>
<path d="M95.7797 52.8514C95.7797 51.8142 95.7797 51.6414 95.7624 51.4166C95.7451 51.1919 95.7105 51.0882 95.4858 51.0536C95.434 51.0536 95.313 51.0364 95.2438 51.0364C95.2265 51.0364 95.192 51.0018 95.192 50.9845C95.192 50.9499 95.2265 50.9326 95.2957 50.9326C95.6068 50.9326 96.039 50.9499 96.0736 50.9499C96.2118 50.9499 97.6985 50.9499 97.854 50.9499C97.9923 50.9499 98.096 50.9499 98.1652 50.9153C98.1998 50.9153 98.2343 50.8808 98.2516 50.8808C98.2862 50.8808 98.3035 50.9153 98.3035 50.9499C98.3035 51.0018 98.2689 51.0709 98.2516 51.2611C98.2516 51.3302 98.2343 51.6241 98.217 51.6932C98.217 51.7278 98.1825 51.7624 98.1479 51.7624C98.1133 51.7624 98.096 51.7278 98.096 51.6932C98.096 51.6414 98.0788 51.5376 98.0269 51.4512C97.9923 51.3648 97.8195 51.2611 97.5602 51.2611L96.4366 51.2438C96.402 51.2438 96.3847 51.2611 96.3847 51.3129V53.128C96.3847 53.1626 96.3847 53.1971 96.4366 53.1971H97.37C97.491 53.1971 97.5947 53.1971 97.6812 53.1971C97.8368 53.1798 97.9405 53.1625 98.0096 53.0761C98.0442 53.0415 98.0788 53.007 98.096 53.007C98.1306 53.007 98.1306 53.0243 98.1306 53.0588C98.1306 53.0934 98.0788 53.2144 98.0615 53.4218C98.0442 53.5601 98.0442 53.8194 98.0442 53.8713C98.0442 53.9404 98.0269 54.0096 97.975 54.0096C97.9405 54.0096 97.9232 53.975 97.9232 53.9404C97.9232 53.8713 97.9059 53.7849 97.8713 53.6984C97.8368 53.612 97.733 53.5256 97.5256 53.491C97.3527 53.4737 96.5403 53.4737 96.4193 53.4737C96.3847 53.4737 96.3674 53.491 96.3674 53.5428V54.0787C96.3674 54.7356 96.3674 55.2542 96.402 55.5135C96.4193 55.7036 96.4711 55.8246 96.644 55.8592C96.7477 55.8765 96.886 55.8938 96.9552 55.8938C96.9897 55.8938 97.007 55.9283 97.007 55.9456C97.007 55.9802 96.9724 55.9975 96.9033 55.9975C96.523 55.9975 96.0736 55.9802 96.039 55.9802C96.0044 55.9802 95.5723 55.9975 95.3648 55.9975C95.2957 55.9975 95.2611 55.9802 95.2611 55.9456C95.2611 55.9283 95.2784 55.8938 95.313 55.8938C95.3821 55.8938 95.4685 55.8765 95.5204 55.8592C95.6587 55.8419 95.676 55.7036 95.6933 55.5135C95.7278 55.2369 95.7278 54.7183 95.7278 54.0787V52.8514H95.7797Z" fill="white"/>
<path d="M101.899 50.8462C103.437 50.8462 104.613 51.7969 104.613 53.3354C104.613 54.822 103.507 56.0321 101.864 56.0321C99.9802 56.0321 99.1851 54.6146 99.1851 53.4218C99.1678 52.3674 99.9975 50.8462 101.899 50.8462ZM102.055 55.7555C102.677 55.7555 103.904 55.427 103.904 53.5083C103.904 51.9179 102.936 51.0882 101.847 51.0882C100.706 51.0882 99.8765 51.8142 99.8765 53.249C99.8765 54.7874 100.81 55.7555 102.055 55.7555Z" fill="white"/>
<path d="M105.909 52.8514C105.909 51.8142 105.909 51.6414 105.892 51.4166C105.875 51.2092 105.84 51.0882 105.616 51.0536C105.564 51.0536 105.443 51.0364 105.374 51.0364C105.356 51.0364 105.322 51.0018 105.322 50.9845C105.322 50.9499 105.356 50.9326 105.425 50.9326C105.737 50.9326 106.151 50.9499 106.221 50.9499C106.29 50.9499 106.705 50.9326 106.912 50.9326C106.998 50.9326 107.033 50.9499 107.033 50.9845C107.033 51.0018 106.998 51.0364 106.964 51.0364C106.912 51.0364 106.877 51.0364 106.791 51.0536C106.618 51.0882 106.566 51.2092 106.549 51.4166C106.532 51.6241 106.532 51.8142 106.532 52.8514V53.7849C106.532 54.7356 106.739 55.1332 107.033 55.4098C107.361 55.7209 107.673 55.7728 108.053 55.7728C108.468 55.7728 108.883 55.5826 109.107 55.306C109.436 54.9257 109.505 54.3726 109.505 53.6984V52.8687C109.505 51.8315 109.505 51.6586 109.488 51.4339C109.488 51.2265 109.436 51.1055 109.211 51.0709C109.159 51.0709 109.038 51.0536 108.969 51.0536C108.934 51.0536 108.917 51.0191 108.917 51.0018C108.917 50.9672 108.952 50.9499 109.021 50.9499C109.332 50.9499 109.73 50.9672 109.764 50.9672C109.816 50.9672 110.145 50.9499 110.335 50.9499C110.421 50.9499 110.438 50.9672 110.438 51.0018C110.438 51.0191 110.421 51.0536 110.387 51.0536C110.335 51.0536 110.3 51.0536 110.214 51.0709C110.023 51.1055 109.989 51.2265 109.972 51.4339C109.954 51.6414 109.972 51.8315 109.972 52.8687V53.5774C109.972 54.2861 109.885 55.0986 109.332 55.5653C108.831 55.9975 108.295 56.0493 107.897 56.0493C107.673 56.0493 106.947 56.0321 106.463 55.5826C106.134 55.2715 105.858 54.8047 105.858 53.8367V52.8514H105.909Z" fill="white"/>
<path d="M112.253 55.0467C112.271 55.5999 112.34 55.7555 112.513 55.8073C112.634 55.8419 112.789 55.8419 112.858 55.8419C112.893 55.8419 112.91 55.8592 112.91 55.8938C112.91 55.9283 112.858 55.9456 112.789 55.9456C112.392 55.9456 112.132 55.9283 112.063 55.9283C111.994 55.9283 111.718 55.9456 111.406 55.9456C111.337 55.9456 111.303 55.9456 111.303 55.8938C111.303 55.8592 111.32 55.8419 111.355 55.8419C111.406 55.8419 111.527 55.8419 111.631 55.8073C111.804 55.7555 111.821 55.5826 111.821 54.9776V51.1746C111.821 50.9153 111.856 50.8462 111.908 50.8462C111.994 50.8462 112.098 50.9845 112.167 51.0536C112.271 51.1574 113.273 52.2291 114.328 53.3181C115.002 54.0269 115.745 54.8047 115.953 55.0295L115.884 51.7105C115.884 51.2784 115.832 51.1401 115.624 51.0882C115.503 51.0709 115.348 51.0536 115.296 51.0536C115.244 51.0536 115.244 51.0191 115.244 50.9845C115.244 50.9499 115.296 50.9326 115.382 50.9326C115.693 50.9326 116.022 50.9499 116.108 50.9499C116.195 50.9499 116.419 50.9326 116.696 50.9326C116.765 50.9326 116.817 50.9326 116.817 50.9845C116.817 51.0018 116.782 51.0536 116.731 51.0536C116.696 51.0536 116.644 51.0536 116.575 51.0709C116.35 51.1228 116.333 51.2438 116.333 51.6414L116.316 55.5308C116.316 55.9629 116.316 56.0148 116.264 56.0148C116.195 56.0148 116.126 55.9629 115.745 55.6172C115.676 55.548 114.691 54.58 113.965 53.8194C113.17 52.9897 112.392 52.1772 112.184 51.9352L112.253 55.0467Z" fill="white"/>
<path d="M118.304 52.8514C118.304 51.8142 118.304 51.6414 118.286 51.4166C118.269 51.1919 118.234 51.0882 118.01 51.0536C117.958 51.0536 117.837 51.0364 117.768 51.0364C117.75 51.0364 117.716 51.0018 117.716 50.9845C117.716 50.9499 117.75 50.9326 117.82 50.9326C118.131 50.9326 118.58 50.9499 118.615 50.9499C118.701 50.9499 119.133 50.9326 119.531 50.9326C120.222 50.9326 121.467 50.8635 122.279 51.6932C122.625 52.0389 122.954 52.5921 122.954 53.37C122.954 54.1997 122.591 54.8393 122.21 55.2369C121.916 55.548 121.294 55.9975 120.136 55.9975C119.842 55.9975 119.479 55.9802 119.185 55.9629C118.891 55.9456 118.649 55.9283 118.632 55.9283C118.615 55.9283 118.494 55.9283 118.355 55.9283C118.217 55.9283 118.044 55.9456 117.941 55.9456C117.871 55.9456 117.837 55.9283 117.837 55.8938C117.837 55.8765 117.854 55.8419 117.889 55.8419C117.958 55.8419 118.044 55.8246 118.096 55.8073C118.234 55.7728 118.252 55.6518 118.269 55.4616C118.304 55.185 118.304 54.6664 118.304 54.0269V52.8514ZM118.926 53.5774C118.926 54.2861 118.926 54.8912 118.926 55.0122C118.926 55.1677 118.943 55.4098 119.012 55.4962C119.099 55.6172 119.341 55.7555 120.153 55.7555C120.793 55.7555 121.346 55.548 121.761 55.1505C122.124 54.822 122.297 54.1824 122.297 53.5774C122.297 52.7304 121.934 52.1945 121.657 51.9179C121.018 51.2611 120.257 51.1746 119.427 51.1746C119.289 51.1746 119.081 51.1919 119.012 51.2265C118.943 51.2438 118.926 51.2784 118.926 51.3648V53.5774Z" fill="white"/>
<path d="M125.598 51.0709C125.685 50.8462 125.719 50.8116 125.754 50.8116C125.823 50.8116 125.84 50.8981 125.91 51.0536C126.031 51.3302 127.137 54.0787 127.552 55.0813C127.794 55.669 127.984 55.7555 128.139 55.8073C128.243 55.8419 128.347 55.8419 128.416 55.8419C128.451 55.8419 128.502 55.8592 128.502 55.8938C128.502 55.9283 128.433 55.9456 128.347 55.9456C128.243 55.9456 127.742 55.9456 127.258 55.9283C127.12 55.9283 127.016 55.9283 127.016 55.8765C127.016 55.8419 127.033 55.8419 127.068 55.8246C127.102 55.8073 127.171 55.7555 127.137 55.6518L126.515 54.1306C126.497 54.096 126.497 54.096 126.445 54.096H124.855C124.82 54.096 124.803 54.1133 124.786 54.1479L124.388 55.2023C124.319 55.3579 124.285 55.5308 124.285 55.6518C124.285 55.79 124.406 55.8246 124.527 55.8246H124.596C124.648 55.8246 124.665 55.8419 124.665 55.8765C124.665 55.9111 124.63 55.9283 124.561 55.9283C124.406 55.9283 124.025 55.911 123.939 55.911C123.87 55.911 123.524 55.9283 123.247 55.9283C123.161 55.9283 123.109 55.9111 123.109 55.8765C123.109 55.8419 123.144 55.8246 123.178 55.8246C123.23 55.8246 123.334 55.8246 123.386 55.8073C123.697 55.7728 123.835 55.5308 123.956 55.2023L125.598 51.0709ZM126.359 53.8194C126.394 53.8194 126.394 53.8021 126.376 53.7676L125.702 51.9525C125.667 51.8488 125.616 51.8488 125.581 51.9525L124.941 53.7676C124.941 53.8021 124.941 53.8194 124.959 53.8194H126.359Z" fill="white"/>
<path d="M130.404 54.0269C130.404 54.6664 130.404 55.185 130.438 55.4616C130.456 55.6518 130.49 55.7728 130.698 55.8073C130.784 55.8246 130.94 55.8419 131.009 55.8419C131.061 55.8419 131.061 55.8765 131.061 55.8938C131.061 55.9283 131.026 55.9456 130.957 55.9456C130.577 55.9456 130.145 55.9283 130.11 55.9283C130.075 55.9283 129.609 55.9456 129.401 55.9456C129.315 55.9456 129.298 55.9283 129.298 55.8938C129.298 55.8765 129.315 55.8419 129.349 55.8419C129.419 55.8419 129.488 55.8246 129.557 55.8073C129.695 55.7728 129.73 55.6518 129.764 55.4443C129.799 55.1677 129.799 54.6492 129.799 54.0096V51.2265L128.814 51.2438C128.381 51.2438 128.226 51.2956 128.122 51.4512C128.036 51.5722 128.036 51.6068 128.018 51.6587C128.001 51.7105 127.984 51.7278 127.949 51.7278C127.932 51.7278 127.897 51.7105 127.897 51.6759C127.897 51.6068 128.036 51.0191 128.053 50.9499C128.07 50.9153 128.105 50.8289 128.122 50.8289C128.174 50.8289 128.243 50.8808 128.433 50.9153C128.623 50.9326 128.9 50.9499 128.969 50.9499H131.562C131.787 50.9499 131.942 50.9326 132.046 50.9153C132.15 50.8981 132.202 50.8808 132.236 50.8808C132.271 50.8808 132.271 50.9153 132.271 50.9672C132.271 51.1746 132.254 51.6414 132.254 51.7278C132.254 51.7797 132.219 51.8142 132.184 51.8142C132.15 51.8142 132.133 51.7969 132.133 51.6932V51.6241C132.115 51.4166 131.96 51.2784 131.303 51.2611L130.438 51.2438V54.0269H130.404Z" fill="white"/>
<path d="M134.293 54.0269C134.293 54.6664 134.293 55.185 134.328 55.4616C134.345 55.6518 134.38 55.7728 134.57 55.8073C134.674 55.8246 134.812 55.8419 134.881 55.8419C134.916 55.8419 134.933 55.8765 134.933 55.8938C134.933 55.9283 134.898 55.9456 134.829 55.9456C134.449 55.9456 133.999 55.9283 133.965 55.9283C133.93 55.9283 133.498 55.9456 133.291 55.9456C133.222 55.9456 133.187 55.9283 133.187 55.8938C133.187 55.8765 133.204 55.8419 133.239 55.8419C133.308 55.8419 133.394 55.8246 133.446 55.8073C133.585 55.7728 133.602 55.6518 133.619 55.4616C133.654 55.185 133.654 54.6664 133.654 54.0269V52.8514C133.654 51.8142 133.654 51.6414 133.636 51.4166C133.619 51.1919 133.567 51.0882 133.412 51.0536C133.343 51.0364 133.256 51.0364 133.204 51.0364C133.17 51.0364 133.152 51.0018 133.152 50.9845C133.152 50.9499 133.187 50.9326 133.256 50.9326C133.481 50.9326 133.913 50.9499 133.948 50.9499C133.982 50.9499 134.432 50.9326 134.639 50.9326C134.725 50.9326 134.743 50.9499 134.743 50.9845C134.743 51.0018 134.708 51.0364 134.691 51.0364C134.639 51.0364 134.604 51.0364 134.518 51.0536C134.328 51.0882 134.293 51.1919 134.276 51.4166C134.276 51.6241 134.276 51.8142 134.276 52.8514V54.0269H134.293Z" fill="white"/>
<path d="M138.546 50.8462C140.084 50.8462 141.26 51.7969 141.26 53.3354C141.26 54.822 140.153 56.0321 138.511 56.0321C136.627 56.0321 135.832 54.6146 135.832 53.4218C135.814 52.3674 136.644 50.8462 138.546 50.8462ZM138.701 55.7555C139.324 55.7555 140.551 55.427 140.551 53.5083C140.551 51.9179 139.583 51.0882 138.494 51.0882C137.353 51.0882 136.523 51.8142 136.523 53.249C136.523 54.7874 137.457 55.7555 138.701 55.7555Z" fill="white"/>
<path d="M142.971 55.0467C142.988 55.5999 143.057 55.7555 143.23 55.8073C143.351 55.8419 143.507 55.8419 143.576 55.8419C143.611 55.8419 143.628 55.8592 143.628 55.8938C143.628 55.9283 143.576 55.9456 143.507 55.9456C143.109 55.9456 142.85 55.9283 142.781 55.9283C142.712 55.9283 142.435 55.9456 142.124 55.9456C142.055 55.9456 142.02 55.9456 142.02 55.8938C142.02 55.8592 142.038 55.8419 142.072 55.8419C142.124 55.8419 142.245 55.8419 142.349 55.8073C142.522 55.7555 142.539 55.5826 142.539 54.9776V51.1746C142.539 50.9153 142.573 50.8462 142.625 50.8462C142.712 50.8462 142.815 50.9845 142.885 51.0536C142.988 51.1574 143.991 52.2291 145.045 53.3181C145.719 54.0269 146.463 54.8047 146.67 55.0295L146.601 51.7105C146.601 51.2784 146.549 51.1401 146.342 51.0882C146.221 51.0709 146.065 51.0536 146.013 51.0536C145.961 51.0536 145.961 51.0191 145.961 50.9845C145.961 50.9499 146.013 50.9326 146.1 50.9326C146.411 50.9326 146.739 50.9499 146.826 50.9499C146.895 50.9499 147.137 50.9326 147.414 50.9326C147.483 50.9326 147.535 50.9326 147.535 50.9845C147.535 51.0018 147.5 51.0536 147.448 51.0536C147.414 51.0536 147.362 51.0536 147.293 51.0709C147.068 51.1228 147.051 51.2438 147.051 51.6414L147.033 55.5308C147.033 55.9629 147.033 56.0148 146.981 56.0148C146.912 56.0148 146.843 55.9629 146.463 55.6172C146.394 55.548 145.408 54.58 144.682 53.8194C143.887 52.9897 143.109 52.1772 142.902 51.9352L142.971 55.0467Z" fill="white"/>
<path d="M50.1269 28.2532C50.1269 26.6801 50.1269 26.3862 50.1096 26.0751C50.0923 25.7294 50.0059 25.5738 49.6774 25.5047C49.591 25.4874 49.4181 25.4701 49.3317 25.4701C49.2971 25.4701 49.2453 25.4528 49.2453 25.4009C49.2453 25.3318 49.2971 25.3145 49.4009 25.3145C49.6256 25.3145 49.9022 25.3145 50.1269 25.3318L50.5418 25.3491C50.7492 25.3664 52.789 25.3491 53.031 25.3318C53.2211 25.3145 53.3767 25.3145 53.4804 25.2972C53.5495 25.2799 53.5841 25.2281 53.6187 25.2281C53.6533 25.2281 53.6878 25.2626 53.6878 25.3145C53.6878 25.3836 53.636 25.5047 53.6014 25.7812C53.5841 25.8849 53.5668 26.3344 53.5495 26.4554C53.5323 26.5073 53.515 26.5591 53.4631 26.5591C53.4113 26.5591 53.394 26.5073 53.394 26.4381C53.394 26.3517 53.3594 26.1788 53.3075 26.0578C53.2384 25.9195 53.0137 25.7467 52.6161 25.7294L51.0603 25.6948C50.9912 25.6948 50.9739 25.7294 50.9739 25.7985V28.5816C50.9739 28.6335 50.9912 28.668 51.0431 28.668L52.3395 28.6507C52.5124 28.6507 52.6507 28.6507 52.789 28.6335C53.031 28.6162 53.1693 28.5816 53.2557 28.4433C53.2903 28.3914 53.3248 28.3396 53.3594 28.3396C53.394 28.3396 53.4113 28.3742 53.4113 28.426C53.4113 28.4779 53.3594 28.6507 53.3248 28.9965C53.3075 29.2039 53.2903 29.6015 53.2903 29.6706C53.2903 29.7571 53.2903 29.8608 53.2211 29.8608C53.1693 29.8608 53.152 29.8262 53.152 29.7743C53.1347 29.6706 53.1347 29.5323 53.0828 29.4113C53.031 29.273 52.8754 29.0829 52.5642 29.0483C52.3049 29.0137 51.2159 29.0137 51.0431 29.0137C50.9912 29.0137 50.9739 29.031 50.9739 29.1002V29.9645C50.9739 30.9325 50.9739 31.7277 51.0258 32.1598C51.0603 32.4537 51.1122 32.6784 51.4233 32.713C51.5616 32.7303 51.7864 32.7476 51.8728 32.7476C51.9419 32.7476 51.9592 32.7821 51.9592 32.8167C51.9592 32.8686 51.9074 32.9031 51.8036 32.9031C51.2505 32.9031 50.6109 32.8686 50.559 32.8686C50.5072 32.8686 49.8676 32.9031 49.5737 32.9031C49.47 32.9031 49.4181 32.8859 49.4181 32.8167C49.4181 32.7821 49.4354 32.7476 49.5046 32.7476C49.591 32.7476 49.712 32.7303 49.8157 32.713C50.0232 32.6784 50.075 32.4537 50.1096 32.1598C50.1615 31.7277 50.1615 30.9325 50.1615 29.9645V28.2532H50.1269Z" fill="white"/>
<path d="M56.6783 30.4658C56.6783 31.2955 56.6783 31.9697 56.7129 32.3327C56.7475 32.592 56.7821 32.7476 57.0414 32.7821C57.1796 32.7994 57.3698 32.8167 57.4389 32.8167C57.4908 32.8167 57.5081 32.8513 57.5081 32.8859C57.5081 32.9204 57.4735 32.955 57.3698 32.955C56.8685 32.955 56.298 32.9204 56.2635 32.9204C56.2116 32.9204 55.6585 32.955 55.3819 32.955C55.2955 32.955 55.2436 32.9377 55.2436 32.8859C55.2436 32.8513 55.2609 32.8167 55.3127 32.8167C55.3992 32.8167 55.5029 32.7994 55.5893 32.7821C55.7622 32.7476 55.7968 32.5747 55.814 32.3327C55.8486 31.987 55.8659 31.2955 55.8659 30.4658V28.9446C55.8659 27.6136 55.8659 27.3716 55.8486 27.095C55.8313 26.8011 55.7622 26.6628 55.572 26.6283C55.4683 26.611 55.3646 26.5937 55.2955 26.5937C55.2609 26.5937 55.2263 26.5591 55.2263 26.5245C55.2263 26.4727 55.2609 26.4554 55.3646 26.4554C55.6585 26.4554 56.2116 26.4727 56.2635 26.4727C56.298 26.4727 56.8858 26.4554 57.1451 26.4554C57.2488 26.4554 57.2834 26.4727 57.2834 26.5245C57.2834 26.5591 57.2488 26.5937 57.2142 26.5937C57.1451 26.5937 57.0932 26.5937 56.9895 26.611C56.7475 26.6628 56.6956 26.7838 56.6783 27.0777C56.6611 27.3543 56.6611 27.5963 56.6611 28.9273V30.4658H56.6783Z" fill="white"/>
<path d="M59.0466 32.8513C58.9256 32.7994 58.9083 32.7649 58.9083 32.5228C58.9083 32.0907 58.9428 31.7623 58.9601 31.6067C58.9601 31.5202 58.9774 31.4684 59.0293 31.4684C59.0811 31.4684 59.1157 31.503 59.1157 31.5721C59.1157 31.6412 59.1157 31.7623 59.1503 31.8833C59.2886 32.5056 59.9627 32.7303 60.5504 32.7303C61.432 32.7303 61.8815 32.229 61.8815 31.5894C61.8815 30.9671 61.5531 30.6732 60.7579 30.1028L60.3603 29.7916C59.3923 29.0829 59.0811 28.547 59.0811 27.9593C59.0811 26.9567 59.8763 26.3517 61.0518 26.3517C61.3975 26.3517 61.7605 26.4035 61.9679 26.4554C62.1408 26.49 62.2099 26.49 62.2791 26.49C62.3482 26.49 62.3655 26.5073 62.3655 26.5418C62.3655 26.5764 62.3309 26.8703 62.3309 27.458C62.3309 27.5963 62.3136 27.6481 62.2618 27.6481C62.1926 27.6481 62.1926 27.6136 62.1754 27.5444C62.1581 27.4407 62.0889 27.216 62.0371 27.1123C61.9679 27.0086 61.6913 26.6801 60.8789 26.6801C60.2393 26.6801 59.7034 27.0086 59.7034 27.6136C59.7034 28.1667 59.98 28.4779 60.8616 29.0656L61.1209 29.2385C62.2099 29.9818 62.5729 30.5695 62.5729 31.3128C62.5729 31.8141 62.3828 32.3673 61.7432 32.7821C61.3629 33.0241 60.8097 33.0933 60.3257 33.0933C59.9282 33.076 59.4096 33.0241 59.0466 32.8513Z" fill="white"/>
<path d="M70.3171 30.4658C70.3171 31.2955 70.3344 31.9697 70.369 32.3327C70.4036 32.592 70.4209 32.7476 70.6974 32.7821C70.8184 32.7994 71.0259 32.8167 71.095 32.8167C71.1469 32.8167 71.1815 32.8513 71.1815 32.8859C71.1815 32.9204 71.1296 32.955 71.0259 32.955C70.5419 32.955 69.9714 32.9204 69.9196 32.9204C69.885 32.9204 69.2973 32.955 69.038 32.955C68.9342 32.955 68.8997 32.9377 68.8997 32.8859C68.8997 32.8513 68.917 32.8167 68.9688 32.8167C69.0553 32.8167 69.159 32.7994 69.2281 32.7821C69.4183 32.7476 69.4356 32.5747 69.4701 32.3154C69.5047 31.9697 69.5047 31.3128 69.5047 30.4831V29.6188C69.5047 29.5842 69.4874 29.5669 69.4528 29.5669H65.7536C65.719 29.5669 65.7017 29.5842 65.7017 29.6188V30.4831C65.7017 31.3128 65.7017 31.9697 65.7363 32.3154C65.7709 32.5747 65.8055 32.7303 66.0647 32.7649C66.203 32.7821 66.3932 32.7994 66.4623 32.7994C66.5142 32.7994 66.5315 32.834 66.5315 32.8686C66.5315 32.9031 66.4969 32.9377 66.3932 32.9377C65.8919 32.9377 65.3387 32.9031 65.2869 32.9031C65.235 32.9031 64.6646 32.9377 64.4053 32.9377C64.3188 32.9377 64.267 32.9204 64.267 32.8686C64.267 32.834 64.2843 32.7994 64.3361 32.7994C64.4226 32.7994 64.5263 32.7821 64.6127 32.7649C64.7856 32.7303 64.8029 32.5574 64.8374 32.3154C64.8893 31.9697 64.8893 31.2782 64.8893 30.4485V28.9273C64.8893 27.5963 64.8893 27.3543 64.872 27.0777C64.8547 26.7838 64.8029 26.6455 64.509 26.611C64.4398 26.5937 64.2843 26.5937 64.1978 26.5937C64.1633 26.5937 64.1287 26.5591 64.1287 26.5245C64.1287 26.4727 64.1633 26.4554 64.267 26.4554C64.6646 26.4554 65.235 26.4727 65.2869 26.4727C65.3214 26.4727 65.8919 26.4554 66.1685 26.4554C66.2722 26.4554 66.3068 26.4727 66.3068 26.5245C66.3068 26.5591 66.2722 26.5937 66.2376 26.5937C66.1857 26.5937 66.1166 26.5937 66.0129 26.611C65.7709 26.6628 65.719 26.7838 65.7017 27.0777C65.6844 27.3543 65.6844 27.6136 65.6844 28.9446V29.1348C65.6844 29.1866 65.7017 29.1866 65.7363 29.1866H69.4356C69.4701 29.1866 69.4874 29.1866 69.4874 29.1348V28.9446C69.4874 27.6136 69.4701 27.3543 69.4701 27.0777C69.4528 26.7838 69.401 26.6455 69.1244 26.611C69.0553 26.5937 68.8997 26.5937 68.8132 26.5937C68.7787 26.5937 68.7441 26.5591 68.7441 26.5245C68.7441 26.4727 68.7787 26.4554 68.8824 26.4554C69.28 26.4554 69.8504 26.4727 69.885 26.4727C69.9368 26.4727 70.5073 26.4554 70.7666 26.4554C70.8703 26.4554 70.9222 26.4727 70.9222 26.5245C70.9222 26.5591 70.8876 26.5937 70.8357 26.5937C70.7666 26.5937 70.732 26.5937 70.611 26.611C70.3863 26.6628 70.3344 26.7838 70.2999 27.0777C70.2826 27.3543 70.2826 27.5963 70.2826 28.9273V30.4658H70.3171Z" fill="white"/>
<path d="M73.2385 28.9619C73.2385 27.6309 73.2385 27.3888 73.2212 27.1123C73.2039 26.8184 73.1521 26.6801 72.8582 26.6455C72.7891 26.6283 72.6335 26.6283 72.5471 26.6283C72.5125 26.6283 72.4779 26.5937 72.4779 26.5591C72.4779 26.5073 72.5125 26.49 72.6162 26.49C73.0138 26.49 73.6015 26.5073 73.6534 26.5073C73.7225 26.5073 75.5721 26.5245 75.7796 26.5073C75.9524 26.49 76.108 26.4727 76.1772 26.4554C76.2117 26.4381 76.2636 26.4208 76.2982 26.4208C76.3327 26.4208 76.3327 26.4554 76.3327 26.5073C76.3327 26.5591 76.2809 26.6628 76.2636 26.9048C76.2463 26.9913 76.229 27.3716 76.2117 27.4753C76.1945 27.5099 76.1772 27.5617 76.1253 27.5617C76.0734 27.5617 76.0562 27.5271 76.0562 27.458C76.0562 27.3888 76.0389 27.2506 76.0043 27.1468C75.9352 27.0086 75.8487 26.9394 75.3647 26.8875C75.2091 26.8703 74.1893 26.853 74.0855 26.853C74.051 26.853 74.0337 26.8875 74.0337 26.9394V29.273C74.0337 29.3422 74.0337 29.3595 74.0855 29.3595C74.1893 29.3595 75.3647 29.3595 75.5722 29.3422C75.7796 29.3249 75.9179 29.3076 76.0043 29.2212C76.0734 29.152 76.108 29.1175 76.1426 29.1175C76.1772 29.1175 76.1944 29.1348 76.1944 29.1866C76.1944 29.2385 76.1426 29.3768 76.1253 29.6533C76.108 29.8262 76.0907 30.1546 76.0907 30.2065C76.0907 30.2756 76.0734 30.3621 76.0043 30.3621C75.9697 30.3621 75.9352 30.3275 75.9352 30.2756C75.9352 30.1892 75.9352 30.1028 75.9006 29.9991C75.866 29.8781 75.7969 29.7743 75.4511 29.7398C75.2091 29.7052 74.2584 29.7052 74.1028 29.7052C74.051 29.7052 74.051 29.7398 74.051 29.7743V30.4831C74.051 30.7769 74.0337 31.7795 74.051 31.9524C74.0682 32.5228 74.2411 32.6438 75.1054 32.6438C75.3301 32.6438 75.7623 32.6438 75.987 32.5574C76.2117 32.4537 76.3327 32.2981 76.3846 31.9697C76.4019 31.866 76.4192 31.8314 76.471 31.8314C76.5229 31.8314 76.5402 31.9005 76.5402 31.9697C76.5402 32.0388 76.471 32.6093 76.4192 32.7994C76.35 33.0241 76.2636 33.0241 75.9179 33.0241C75.2437 33.0241 74.7424 33.0069 74.3794 32.9896C73.9991 32.9723 73.7744 32.9723 73.6361 32.9723C73.6188 32.9723 73.4459 32.9723 73.2558 32.9896C73.0829 33.0069 72.8755 33.0069 72.7372 33.0069C72.6508 33.0069 72.5989 32.9896 72.5989 32.9377C72.5989 32.9031 72.6162 32.8686 72.6681 32.8686C72.7545 32.8686 72.8582 32.834 72.9446 32.834C73.1175 32.7994 73.1348 32.6266 73.1694 32.3846C73.2212 32.0388 73.2212 31.3474 73.2212 30.5176V28.9619H73.2385Z" fill="white"/>
<path d="M78.8047 28.9619C78.8047 27.6309 78.8047 27.3888 78.7874 27.1123C78.7701 26.8184 78.7182 26.6801 78.4244 26.6455C78.3552 26.6283 78.1996 26.6283 78.1132 26.6283C78.0786 26.6283 78.0441 26.5937 78.0441 26.5591C78.0441 26.5073 78.0786 26.49 78.1824 26.49C78.5799 26.49 79.185 26.5073 79.2368 26.5073C79.3232 26.5073 80.0838 26.49 80.3431 26.49C80.9136 26.49 81.5359 26.5418 82.0026 26.8703C82.2273 27.0258 82.6249 27.4407 82.6249 28.0457C82.6249 28.6853 82.3656 29.2903 81.5359 29.9991C82.2619 30.9152 82.8842 31.6931 83.4028 32.229C83.8695 32.713 84.1634 32.7994 84.3881 32.8167C84.561 32.8513 84.6474 32.8513 84.6992 32.8513C84.7511 32.8513 84.7857 32.8859 84.7857 32.9204C84.7857 32.9723 84.7338 32.9896 84.5782 32.9896H84.0078C83.5065 32.9896 83.2818 32.9377 83.0571 32.8167C82.6768 32.6093 82.3483 32.1944 81.847 31.5548C81.4667 31.0881 81.0864 30.5349 80.879 30.3102C80.8444 30.2756 80.8271 30.2584 80.758 30.2584L79.6344 30.2411C79.5998 30.2411 79.5653 30.2584 79.5653 30.3102V30.5176C79.5653 31.3474 79.5653 32.0043 79.5998 32.3673C79.6344 32.6266 79.6863 32.7821 79.9455 32.8167C80.0666 32.834 80.2567 32.8513 80.3431 32.8513C80.4123 32.8513 80.4123 32.8859 80.4123 32.9204C80.4123 32.955 80.3777 32.9896 80.274 32.9896C79.79 32.9896 79.2195 32.955 79.185 32.955C79.1677 32.955 78.5799 32.9896 78.3034 32.9896C78.2169 32.9896 78.1651 32.9723 78.1651 32.9204C78.1651 32.8859 78.1824 32.8513 78.2342 32.8513C78.3206 32.8513 78.4244 32.834 78.5108 32.8167C78.6837 32.7821 78.7009 32.6093 78.7355 32.3673C78.7874 32.0215 78.7874 31.3301 78.7874 30.5004V28.9619H78.8047ZM79.5825 29.6879C79.5825 29.7398 79.5998 29.7743 79.6517 29.7916C79.79 29.8608 80.2394 29.9299 80.637 29.9299C80.8444 29.9299 81.0864 29.9126 81.3112 29.7743C81.6223 29.5669 81.847 29.1175 81.847 28.4606C81.847 27.3888 81.2593 26.7665 80.3086 26.7665C80.0493 26.7665 79.7554 26.8011 79.669 26.8184C79.6344 26.8357 79.5998 26.8703 79.5998 26.9221V29.6879H79.5825Z" fill="white"/>
<path d="M87.1366 32.0215C86.1513 31.1399 85.9093 29.9991 85.9093 29.031C85.9093 28.3569 86.134 27.1641 87.0329 26.2652C87.6379 25.6602 88.5541 25.1762 90.1098 25.1762C90.5074 25.1762 91.0779 25.2108 91.5791 25.2972C91.9594 25.3664 92.2879 25.4355 92.6163 25.4528C92.72 25.4701 92.7546 25.5047 92.7546 25.5565C92.7546 25.6429 92.72 25.7639 92.7028 26.127C92.6855 26.4554 92.6855 27.0086 92.6682 27.1641C92.6509 27.3197 92.6336 27.3716 92.5817 27.3716C92.5126 27.3716 92.4953 27.3024 92.4953 27.1641C92.4953 26.7665 92.3397 26.3517 92.0632 26.127C91.7174 25.8158 90.9396 25.5565 90.0407 25.5565C88.6924 25.5565 88.0701 25.9541 87.7243 26.2998C86.981 27.0086 86.8082 27.9074 86.8082 28.9446C86.8082 30.8807 88.2948 32.6438 90.4555 32.6438C91.2161 32.6438 91.8039 32.5574 92.2187 32.1425C92.4262 31.9178 92.5645 31.4684 92.599 31.2955C92.6163 31.1918 92.6336 31.1399 92.7028 31.1399C92.7546 31.1399 92.7719 31.2091 92.7719 31.2955C92.7719 31.3647 92.6509 32.2463 92.5472 32.592C92.478 32.7821 92.4607 32.7994 92.2879 32.8859C91.8903 33.0414 91.1124 33.1106 90.4728 33.1106C88.9689 33.1106 87.9491 32.7303 87.1366 32.0215Z" fill="white"/>
<path d="M94.9672 28.9619C94.9672 27.6309 94.9672 27.3888 94.95 27.1123C94.9327 26.8184 94.8808 26.6801 94.587 26.6455C94.5178 26.6283 94.3622 26.6283 94.2758 26.6283C94.2412 26.6283 94.2066 26.5937 94.2066 26.5591C94.2066 26.5073 94.2412 26.49 94.3449 26.49C94.7425 26.49 95.3303 26.5073 95.3821 26.5073C95.4513 26.5073 97.3009 26.5245 97.5083 26.5073C97.6812 26.49 97.8367 26.4727 97.9059 26.4554C97.9405 26.4381 97.9923 26.4208 98.0269 26.4208C98.0615 26.4208 98.0615 26.4554 98.0615 26.5073C98.0615 26.5764 98.0096 26.6628 97.9923 26.9048C97.975 26.9913 97.9578 27.3716 97.9405 27.4753C97.9232 27.5099 97.9059 27.5617 97.854 27.5617C97.8022 27.5617 97.7849 27.5271 97.7849 27.458C97.7849 27.3888 97.7676 27.2506 97.733 27.1468C97.6639 27.0086 97.5775 26.9394 97.0934 26.8875C96.9379 26.8703 95.918 26.853 95.8143 26.853C95.7797 26.853 95.7624 26.8875 95.7624 26.9394V29.273C95.7624 29.3422 95.7624 29.3595 95.8143 29.3595C95.918 29.3595 97.0934 29.3595 97.3009 29.3422C97.5083 29.3249 97.6466 29.3076 97.733 29.2212C97.8022 29.152 97.8368 29.1175 97.8713 29.1175C97.9059 29.1175 97.9232 29.1348 97.9232 29.1866C97.9232 29.2385 97.8713 29.3768 97.854 29.6533C97.8368 29.8262 97.8195 30.1546 97.8195 30.2065C97.8195 30.2756 97.8022 30.3621 97.733 30.3621C97.6985 30.3621 97.6639 30.3275 97.6639 30.2756C97.6639 30.1892 97.6639 30.1028 97.6293 29.9991C97.5947 29.8781 97.5256 29.7743 97.1799 29.7398C96.9379 29.7052 95.9871 29.7052 95.8316 29.7052C95.7797 29.7052 95.7624 29.7398 95.7624 29.7743V30.4831C95.7624 30.7769 95.7451 31.7795 95.7624 31.9524C95.7797 32.5228 95.9526 32.6438 96.8169 32.6438C97.0416 32.6438 97.4737 32.6438 97.6985 32.5574C97.9232 32.4537 98.0442 32.2981 98.096 31.9697C98.1133 31.866 98.1306 31.8314 98.1825 31.8314C98.2343 31.8314 98.2343 31.9005 98.2343 31.9697C98.2343 32.0388 98.1652 32.6093 98.1133 32.7994C98.0442 33.0241 97.9578 33.0241 97.612 33.0241C96.9379 33.0241 96.4366 33.0069 96.0736 32.9896C95.6933 32.9723 95.4685 32.9723 95.3303 32.9723C95.313 32.9723 95.1401 32.9723 94.95 32.9896C94.7771 33.0069 94.5697 33.0069 94.4314 33.0069C94.3449 33.0069 94.2931 32.9896 94.2931 32.9377C94.2931 32.9031 94.3104 32.8686 94.3622 32.8686C94.4487 32.8686 94.5524 32.834 94.6388 32.834C94.8117 32.7994 94.8289 32.6266 94.8635 32.3846C94.9154 32.0388 94.9154 31.3474 94.9154 30.5176V28.9619H94.9672Z" fill="white"/>
<path d="M100.914 31.7968C100.931 32.5056 101.017 32.713 101.259 32.7821C101.415 32.8167 101.622 32.834 101.709 32.834C101.743 32.834 101.778 32.8686 101.778 32.9031C101.778 32.955 101.709 32.9723 101.622 32.9723C101.121 32.9723 100.758 32.9377 100.689 32.9377C100.62 32.9377 100.24 32.9723 99.8247 32.9723C99.7382 32.9723 99.6864 32.955 99.6864 32.9031C99.6864 32.8686 99.7209 32.834 99.7555 32.834C99.8247 32.834 99.9802 32.8167 100.119 32.7821C100.343 32.713 100.378 32.4883 100.378 31.7104V26.7838C100.378 26.4381 100.43 26.3517 100.499 26.3517C100.603 26.3517 100.758 26.5245 100.845 26.611C100.983 26.7493 102.279 28.1322 103.645 29.5323C104.526 30.4485 105.477 31.4684 105.754 31.745L105.667 27.4407C105.65 26.8875 105.616 26.6974 105.339 26.6455C105.183 26.611 104.976 26.611 104.907 26.611C104.838 26.611 104.838 26.5591 104.838 26.5245C104.838 26.4727 104.907 26.4554 105.011 26.4554C105.408 26.4554 105.84 26.4727 105.944 26.4727C106.048 26.4727 106.342 26.4554 106.705 26.4554C106.791 26.4554 106.86 26.4727 106.86 26.5245C106.86 26.5591 106.826 26.611 106.756 26.611C106.722 26.611 106.653 26.611 106.549 26.6283C106.255 26.6974 106.238 26.853 106.238 27.3716L106.221 32.4018C106.221 32.9723 106.203 33.0241 106.151 33.0241C106.065 33.0241 105.961 32.955 105.477 32.5056C105.391 32.4191 104.112 31.1572 103.161 30.1892C102.124 29.1002 101.138 28.063 100.862 27.7519L100.914 31.7968Z" fill="white"/>
<path d="M110.888 30.4658C110.888 31.2955 110.888 31.9697 110.922 32.3327C110.957 32.592 110.992 32.7476 111.268 32.7821C111.389 32.7994 111.597 32.8167 111.666 32.8167C111.718 32.8167 111.735 32.8513 111.735 32.8859C111.735 32.9204 111.7 32.955 111.597 32.955C111.113 32.955 110.542 32.9204 110.49 32.9204C110.456 32.9204 109.833 32.955 109.574 32.955C109.47 32.955 109.436 32.9377 109.436 32.8859C109.436 32.8513 109.453 32.8167 109.505 32.8167C109.591 32.8167 109.695 32.7994 109.764 32.7821C109.937 32.7476 109.989 32.5747 110.024 32.3154C110.058 31.9697 110.058 31.2782 110.058 30.4485V26.8703L108.779 26.8875C108.226 26.9048 108.018 26.9567 107.88 27.1641C107.776 27.3197 107.776 27.3716 107.742 27.4407C107.724 27.5099 107.69 27.5271 107.655 27.5271C107.638 27.5271 107.586 27.5099 107.586 27.458C107.586 27.3716 107.776 26.5937 107.776 26.5245C107.794 26.4727 107.845 26.369 107.863 26.369C107.932 26.369 108.018 26.4381 108.26 26.4727C108.52 26.5073 108.865 26.5073 108.952 26.5073H112.305C112.599 26.5073 112.807 26.49 112.945 26.4727C113.083 26.4554 113.152 26.4381 113.204 26.4381C113.239 26.4381 113.239 26.49 113.239 26.5418C113.239 26.8011 113.204 27.4234 113.204 27.5271C113.204 27.5963 113.17 27.6309 113.118 27.6309C113.083 27.6309 113.049 27.5963 113.049 27.4753L113.031 27.3888C112.997 27.1296 112.807 26.9394 111.96 26.9221L110.853 26.9048V30.4658H110.888Z" fill="white"/>
<path d="M115.106 28.9619C115.106 27.6309 115.106 27.3888 115.088 27.1123C115.071 26.8184 115.019 26.6801 114.725 26.6455C114.656 26.6283 114.501 26.6283 114.414 26.6283C114.38 26.6283 114.345 26.5937 114.345 26.5591C114.345 26.5073 114.38 26.49 114.483 26.49C114.881 26.49 115.469 26.5073 115.521 26.5073C115.572 26.5073 117.439 26.5245 117.647 26.5073C117.82 26.49 117.975 26.4727 118.044 26.4554C118.079 26.4381 118.131 26.4208 118.165 26.4208C118.2 26.4208 118.2 26.4554 118.2 26.5073C118.2 26.5764 118.148 26.6628 118.131 26.9048C118.113 26.9913 118.096 27.3716 118.079 27.4753C118.062 27.5099 118.044 27.5617 117.992 27.5617C117.941 27.5617 117.923 27.5271 117.923 27.458C117.923 27.3888 117.906 27.2506 117.871 27.1468C117.82 27.0086 117.716 26.9394 117.232 26.8875C117.076 26.8703 116.056 26.853 115.953 26.853C115.918 26.853 115.901 26.8875 115.901 26.9394V29.273C115.901 29.3422 115.901 29.3595 115.953 29.3595C116.056 29.3595 117.232 29.3595 117.439 29.3422C117.647 29.3249 117.785 29.3076 117.871 29.2212C117.941 29.152 117.975 29.1175 118.01 29.1175C118.044 29.1175 118.062 29.1348 118.062 29.1866C118.062 29.2385 118.01 29.3768 117.992 29.6533C117.975 29.8262 117.958 30.1546 117.958 30.2065C117.958 30.2756 117.941 30.3621 117.871 30.3621C117.837 30.3621 117.802 30.3275 117.802 30.2756C117.802 30.1892 117.802 30.1028 117.768 29.9991C117.733 29.8781 117.664 29.7743 117.318 29.7398C117.076 29.7052 116.126 29.7052 115.97 29.7052C115.918 29.7052 115.918 29.7398 115.918 29.7743V30.4831C115.918 30.7769 115.901 31.7795 115.918 31.9524C115.935 32.5228 116.108 32.6438 116.973 32.6438C117.197 32.6438 117.629 32.6438 117.854 32.5574C118.079 32.4537 118.2 32.2981 118.252 31.9697C118.269 31.866 118.286 31.8314 118.338 31.8314C118.39 31.8314 118.39 31.9005 118.39 31.9697C118.39 32.0388 118.321 32.6093 118.269 32.7994C118.2 33.0241 118.113 33.0241 117.768 33.0241C117.094 33.0241 116.592 33.0069 116.229 32.9896C115.849 32.9723 115.624 32.9723 115.486 32.9723C115.469 32.9723 115.296 32.9723 115.106 32.9896C114.933 33.0069 114.725 33.0069 114.587 33.0069C114.501 33.0069 114.449 32.9896 114.449 32.9377C114.449 32.9031 114.466 32.8686 114.518 32.8686C114.604 32.8686 114.708 32.834 114.794 32.834C114.967 32.7994 114.985 32.6266 115.019 32.3846C115.071 32.0388 115.071 31.3474 115.071 30.5176V28.9619H115.106Z" fill="white"/>
<path d="M120.672 28.9619C120.672 27.6309 120.672 27.3888 120.655 27.1123C120.637 26.8184 120.585 26.6801 120.291 26.6455C120.222 26.6283 120.067 26.6283 119.98 26.6283C119.946 26.6283 119.911 26.5937 119.911 26.5591C119.911 26.5073 119.946 26.49 120.049 26.49C120.447 26.49 121.052 26.5073 121.104 26.5073C121.19 26.5073 121.951 26.49 122.21 26.49C122.781 26.49 123.403 26.5418 123.87 26.8703C124.094 27.0258 124.492 27.4407 124.492 28.0457C124.492 28.6853 124.233 29.2903 123.403 29.9991C124.129 30.9152 124.751 31.6931 125.27 32.229C125.737 32.713 126.031 32.7994 126.255 32.8167C126.428 32.8513 126.515 32.8513 126.566 32.8513C126.618 32.8513 126.653 32.8859 126.653 32.9204C126.653 32.9723 126.601 32.9896 126.445 32.9896H125.892C125.391 32.9896 125.166 32.9377 124.941 32.8167C124.561 32.6093 124.233 32.1944 123.731 31.5548C123.351 31.0881 122.971 30.5349 122.781 30.3102C122.746 30.2756 122.712 30.2584 122.66 30.2584L121.536 30.2411C121.502 30.2411 121.467 30.2584 121.467 30.3102V30.5176C121.467 31.3474 121.467 32.0043 121.502 32.3673C121.536 32.6266 121.588 32.7821 121.847 32.8167C121.968 32.834 122.158 32.8513 122.245 32.8513C122.314 32.8513 122.314 32.8859 122.314 32.9204C122.314 32.955 122.279 32.9896 122.176 32.9896C121.692 32.9896 121.121 32.955 121.087 32.955C121.069 32.955 120.482 32.9896 120.205 32.9896C120.119 32.9896 120.067 32.9723 120.067 32.9204C120.067 32.8859 120.084 32.8513 120.136 32.8513C120.222 32.8513 120.326 32.834 120.412 32.8167C120.585 32.7821 120.603 32.6093 120.637 32.3673C120.689 32.0215 120.689 31.3301 120.689 30.5004V28.9619H120.672ZM121.45 29.6879C121.45 29.7398 121.467 29.7743 121.519 29.7916C121.657 29.8608 122.107 29.9299 122.504 29.9299C122.712 29.9299 122.954 29.9126 123.178 29.7743C123.489 29.5669 123.714 29.1175 123.714 28.4606C123.714 27.3888 123.126 26.7665 122.176 26.7665C121.916 26.7665 121.623 26.8011 121.536 26.8184C121.502 26.8357 121.467 26.8703 121.467 26.9221V29.6879H121.45Z" fill="white"/>
<path d="M129.298 28.9619C129.298 27.6136 129.298 27.3716 129.28 27.095C129.263 26.8011 129.211 26.6628 128.917 26.611C128.848 26.5937 128.693 26.5937 128.606 26.5937C128.572 26.5937 128.537 26.5591 128.537 26.5245C128.537 26.4727 128.572 26.4554 128.675 26.4554C129.09 26.4554 129.643 26.4727 129.695 26.4727C129.868 26.4727 131.821 26.49 132.029 26.4727C132.202 26.4554 132.357 26.4554 132.444 26.4381C132.496 26.4208 132.53 26.3862 132.565 26.3862C132.599 26.3862 132.634 26.4208 132.634 26.4727C132.634 26.5418 132.599 26.6283 132.565 26.8875C132.547 26.974 132.547 27.3543 132.53 27.458C132.513 27.4926 132.496 27.5444 132.444 27.5444C132.409 27.5444 132.375 27.5099 132.375 27.4407C132.375 27.3716 132.34 27.2333 132.288 27.1123C132.236 27.0086 132.029 26.853 131.683 26.853L130.214 26.8357C130.162 26.8357 130.145 26.853 130.145 26.9221V29.2903C130.145 29.3422 130.145 29.3768 130.214 29.3768L131.441 29.3595C131.597 29.3595 131.735 29.3595 131.856 29.3422C132.063 29.3249 132.184 29.2903 132.271 29.1866C132.305 29.1348 132.357 29.1002 132.392 29.1002C132.426 29.1002 132.444 29.1348 132.444 29.1693C132.444 29.2212 132.375 29.3595 132.357 29.6533C132.34 29.8262 132.323 30.1719 132.323 30.2411C132.323 30.3275 132.305 30.4139 132.236 30.4139C132.184 30.4139 132.167 30.3794 132.167 30.3275C132.15 30.2411 132.15 30.1201 132.098 30.0163C132.063 29.8953 131.908 29.7743 131.631 29.7398C131.407 29.7052 130.352 29.7225 130.196 29.7225C130.145 29.7225 130.127 29.7398 130.127 29.8089V30.5004C130.127 31.3647 130.127 32.0388 130.162 32.3846C130.196 32.6438 130.248 32.7994 130.49 32.8513C130.629 32.8686 130.819 32.8859 130.905 32.8859C130.957 32.8859 130.974 32.9204 130.974 32.955C130.974 32.9896 130.94 33.0241 130.836 33.0241C130.335 33.0241 129.747 32.9896 129.712 32.9896C129.661 32.9896 129.107 33.0241 128.831 33.0241C128.744 33.0241 128.693 33.0069 128.693 32.955C128.693 32.9204 128.71 32.8859 128.762 32.8859C128.848 32.8859 128.952 32.8513 129.038 32.8513C129.211 32.8167 129.228 32.6438 129.28 32.3846C129.332 32.0215 129.332 31.3474 129.332 30.5004V28.9619H129.298Z" fill="white"/>
<path d="M137.301 26.3344C139.324 26.3344 140.845 27.5617 140.845 29.5842C140.845 31.5202 139.41 33.1279 137.249 33.1279C134.795 33.1279 133.74 31.2782 133.74 29.7225C133.74 28.3223 134.829 26.3344 137.301 26.3344ZM137.509 32.7649C138.321 32.7649 139.929 32.3327 139.929 29.8262C139.929 27.7519 138.667 26.6455 137.249 26.6455C135.745 26.6455 134.674 27.579 134.674 29.4632C134.674 31.503 135.884 32.7649 137.509 32.7649Z" fill="white"/>
<path d="M142.729 28.9619C142.729 27.6136 142.729 27.3716 142.712 27.095C142.694 26.8011 142.643 26.6628 142.349 26.611C142.28 26.5937 142.124 26.5937 142.038 26.5937C142.003 26.5937 141.968 26.5591 141.968 26.5245C141.968 26.4727 142.003 26.4554 142.107 26.4554C142.522 26.4554 143.109 26.4727 143.161 26.4727C143.248 26.4727 144.008 26.4554 144.285 26.4554C144.855 26.4554 145.495 26.5073 145.961 26.8357C146.186 26.9913 146.584 27.4234 146.584 28.0112C146.584 28.6507 146.324 29.273 145.477 29.9818C146.203 30.8979 146.826 31.6931 147.362 32.229C147.846 32.713 148.14 32.7994 148.364 32.834C148.537 32.8686 148.624 32.8686 148.675 32.8686C148.727 32.8686 148.762 32.9031 148.762 32.9377C148.762 32.9896 148.71 33.0069 148.554 33.0069H148.001C147.5 33.0069 147.275 32.955 147.051 32.834C146.67 32.6266 146.342 32.2117 145.823 31.5548C145.443 31.0881 145.045 30.5176 144.855 30.2929C144.821 30.2584 144.786 30.2411 144.734 30.2411L143.593 30.2238C143.559 30.2238 143.524 30.2411 143.524 30.2929V30.5004C143.524 31.3301 143.524 32.0043 143.559 32.3673C143.593 32.6266 143.645 32.7821 143.922 32.834C144.043 32.8513 144.233 32.8686 144.319 32.8686C144.388 32.8686 144.388 32.9031 144.388 32.9377C144.388 32.9723 144.354 33.0069 144.25 33.0069C143.766 33.0069 143.196 32.9723 143.144 32.9723C143.127 32.9723 142.539 33.0069 142.262 33.0069C142.176 33.0069 142.124 32.9896 142.124 32.9377C142.124 32.9031 142.141 32.8686 142.193 32.8686C142.28 32.8686 142.383 32.8513 142.47 32.834C142.643 32.7994 142.66 32.6266 142.712 32.3673C142.764 32.0043 142.764 31.3301 142.764 30.4831V28.9619H142.729ZM143.507 29.7052C143.507 29.7571 143.524 29.7916 143.576 29.8089C143.714 29.8781 144.164 29.9472 144.561 29.9472C144.769 29.9472 145.028 29.9299 145.235 29.7916C145.547 29.5842 145.771 29.1348 145.771 28.4606C145.771 27.3716 145.184 26.7493 144.216 26.7493C143.956 26.7493 143.662 26.7838 143.576 26.8011C143.541 26.8184 143.507 26.853 143.507 26.9048V29.7052Z" fill="white"/>
<path d="M28.5537 23.1711C28.7784 23.1365 28.9167 22.929 28.8821 22.7043C28.8476 22.4796 28.6401 22.3413 28.4154 22.3759C28.1907 22.4105 28.0524 22.6179 28.087 22.8426C28.1215 23.0673 28.329 23.2056 28.5537 23.1711Z" fill="white"/>
<path d="M27.0844 33.1625C26.6522 33.2316 26.3411 33.6465 26.4275 34.0959C26.4966 34.5281 26.9115 34.8392 27.361 34.7528C27.7931 34.6837 28.1043 34.2688 28.0178 33.8193C27.9487 33.3872 27.5338 33.0933 27.0844 33.1625Z" fill="white"/>
<path d="M24.9063 34.0268C24.4742 34.0959 24.163 34.5108 24.2494 34.9602C24.3186 35.3924 24.7335 35.7035 25.1829 35.6171C25.615 35.548 25.9262 35.1331 25.8398 34.6837C25.7706 34.2515 25.3558 33.9576 24.9063 34.0268Z" fill="white"/>
<path d="M26.7041 30.6733C27.0844 30.6041 27.3437 30.2411 27.2918 29.8608C27.2227 29.4805 26.8597 29.2212 26.4794 29.2731C26.0991 29.3422 25.8398 29.7052 25.8916 30.0855C25.9435 30.4658 26.3065 30.7251 26.7041 30.6733Z" fill="white"/>
<path d="M26.4448 22.2376C26.6695 22.203 26.8078 21.9956 26.7732 21.7709C26.7387 21.5462 26.5312 21.4079 26.3065 21.4424C26.0818 21.477 25.9435 21.6844 25.9781 21.9092C26.0299 22.1339 26.2374 22.2722 26.4448 22.2376Z" fill="white"/>
<path d="M28.5191 32.6266C28.5883 33.0415 28.9859 33.3353 29.4007 33.2662C29.8156 33.197 30.1095 32.7995 30.0403 32.3846C29.9712 31.9697 29.5736 31.6759 29.1587 31.745C28.7266 31.8141 28.45 32.2117 28.5191 32.6266Z" fill="white"/>
<path d="M31.2676 28.2186C31.0256 28.2532 30.8528 28.4952 30.8873 28.7372C30.9219 28.9792 31.1639 29.1521 31.4059 29.1175C31.6479 29.0829 31.8208 28.8409 31.7862 28.5989C31.7344 28.3396 31.5096 28.1668 31.2676 28.2186Z" fill="white"/>
<path d="M20.2736 34.4244C19.8415 34.4935 19.5303 34.9084 19.6167 35.3578C19.6859 35.79 20.1008 36.1011 20.5502 36.0147C20.9824 35.9455 21.2935 35.5307 21.2071 35.0812C21.1379 34.6491 20.7231 34.3552 20.2736 34.4244Z" fill="white"/>
<path d="M22.6073 34.5281C22.1751 34.5972 21.8639 35.0121 21.9504 35.4615C22.0195 35.8937 22.4344 36.2048 22.8838 36.1184C23.316 36.0493 23.6271 35.6344 23.5407 35.185C23.4543 34.7528 23.0394 34.4589 22.6073 34.5281Z" fill="white"/>
<path d="M30.1959 24.7441C30.4206 24.7095 30.5589 24.5021 30.5243 24.2774C30.4898 24.0526 30.2823 23.9144 30.0576 23.9489C29.8329 23.9835 29.6946 24.1909 29.7292 24.4157C29.781 24.6231 29.9885 24.7787 30.1959 24.7441Z" fill="white"/>
<path d="M30.1267 30.8288C30.1786 31.14 30.4725 31.3474 30.7836 31.2956C31.0948 31.2437 31.3022 30.9498 31.2503 30.6387C31.1985 30.3275 30.9046 30.1201 30.5935 30.172C30.2823 30.2238 30.0749 30.5177 30.1267 30.8288Z" fill="white"/>
<path d="M31.2158 26.8703C31.4578 26.8357 31.6306 26.5937 31.5961 26.3517C31.5615 26.1097 31.3195 25.9368 31.0775 25.9714C30.8355 26.006 30.6626 26.248 30.6972 26.49C30.7318 26.7493 30.9738 26.9222 31.2158 26.8703Z" fill="white"/>
<path d="M17.2831 24.8651C17.5251 24.8305 17.698 24.5885 17.6634 24.3465C17.6288 24.1045 17.3868 23.9316 17.1448 23.9662C16.9028 24.0008 16.73 24.2428 16.7645 24.4848C16.7991 24.7441 17.0411 24.917 17.2831 24.8651Z" fill="white"/>
<path d="M19.2883 22.808C19.2537 22.5833 19.0463 22.445 18.8216 22.4796C18.5969 22.5142 18.4586 22.7216 18.4931 22.9463C18.5277 23.1711 18.7351 23.3093 18.9599 23.2748C19.1846 23.2229 19.3229 23.0155 19.2883 22.808Z" fill="white"/>
<path d="M23.8519 21.9437C24.0766 21.9092 24.2149 21.7017 24.1803 21.477C24.1457 21.2523 23.9383 21.114 23.7136 21.1486C23.4888 21.1831 23.3506 21.3906 23.3851 21.6153C23.437 21.84 23.6444 21.9956 23.8519 21.9437Z" fill="white"/>
<path d="M22.4171 32.3673C22.4863 32.3846 22.5727 32.3846 22.6591 32.3673C23.0913 32.2982 23.4024 31.8833 23.316 31.4339C23.2468 31.019 22.8665 30.7424 22.4517 30.7597C22.4344 30.7597 22.3998 30.7597 22.3825 30.7597C21.9504 30.8288 21.6392 31.2437 21.7257 31.6931C21.7948 32.0734 22.0714 32.3327 22.4171 32.3673Z" fill="white"/>
<path d="M23.9901 31.1746C23.9901 31.6067 24.3359 31.9351 24.768 31.9351C25.1656 31.9351 25.4768 31.6413 25.5286 31.261C25.5286 31.2264 25.5459 31.1918 25.5459 31.1573C25.5459 30.7251 25.2002 30.3794 24.768 30.3794C24.3359 30.3967 23.9901 30.7424 23.9901 31.1746C23.9901 31.1573 23.9901 31.1573 23.9901 31.1746Z" fill="white"/>
<path d="M21.1725 22.2722C21.3972 22.2376 21.5355 22.0302 21.5009 21.8054C21.4664 21.5807 21.2589 21.4424 21.0342 21.477C20.8095 21.5116 20.6712 21.719 20.7058 21.9437C20.7576 22.1685 20.9651 22.3067 21.1725 22.2722Z" fill="white"/>
<path fill-rule="evenodd" clip-rule="evenodd" d="M32.6678 64.5542C32.6332 67.8386 31.7862 72.4885 27.4128 73.7332L34.0334 72.5923C34.5001 70.1895 34.7076 67.7176 34.5174 65.1592C34.3273 62.3761 33.6531 60.0425 32.4777 56.6717C32.0628 55.4962 31.5269 54.338 30.9911 53.2144L30.9804 53.1919C30.2576 51.6603 29.5026 50.0603 29.1241 48.4262C28.7957 47.0606 29.0204 46.6284 29.1241 46.5074C29.176 46.4555 29.2624 46.3864 29.5044 46.4037C29.9943 46.4544 30.5172 46.7857 31.0247 47.1072L31.0602 47.1297L31.1333 47.1744C31.4151 47.3469 31.6711 47.5036 31.9418 47.631C33.342 48.2879 34.4483 48.3743 35.3126 47.873C35.9871 47.4852 36.1517 46.7519 36.3037 46.0744L36.3152 46.0234C36.4016 45.6431 36.4881 45.2628 36.6436 44.9862C36.7128 44.8652 36.8511 44.8134 37.0931 44.7615L37.1273 44.7522C37.3079 44.7032 37.502 44.6506 37.6808 44.5368C37.871 44.4158 37.992 44.2083 38.0265 43.9663C38.0438 43.8972 38.0438 43.828 38.0438 43.7589C38.0438 43.4823 37.9747 43.1712 37.871 42.8773C38.3895 42.7909 38.9081 42.6353 39.323 42.3069C39.4094 42.255 39.444 42.1686 39.444 42.0821C39.444 42.0476 39.444 42.0303 39.4267 41.9957L39.3921 41.892C39.3403 41.7537 39.323 41.5981 39.323 41.4426C39.323 41.2005 39.3748 40.9585 39.4786 40.7511C39.6514 40.3881 39.9626 40.3017 40.4639 40.1807C40.8615 40.0942 41.3109 39.9905 41.6393 39.6275C41.8122 39.4374 41.8813 39.1953 41.8813 38.9188C41.8813 38.1755 41.3801 37.2074 41.017 36.5851L40.8269 36.274C40.3256 35.4442 39.8589 34.6664 39.4786 33.8021C39.3921 33.5946 39.3403 33.3526 39.3403 33.1106C39.3403 32.8686 39.4094 32.6439 39.5477 32.5056C40.17 31.9179 40.4812 31.14 40.4812 30.2065V30.0164V29.9991C40.4812 29.9991 40.3947 29.2558 40.3083 28.4952C40.291 28.2705 40.2737 28.0458 40.2392 27.821C40.2219 27.5445 40.1873 27.2506 40.1354 27.0259C40.1354 26.9913 40.1182 26.9567 40.1009 26.9394C38.9773 21.7536 33.9297 18.5729 26.0991 18.2791C19.15 18.0198 12.3738 21.9437 11.5441 26.6801C11.5441 26.6888 11.5398 26.7018 11.5355 26.7147C11.5311 26.7277 11.5268 26.7407 11.5268 26.7493V26.7839C11.5095 26.8012 11.5095 26.8184 11.5095 26.8357V26.8703V26.9049C11.4922 26.9222 11.4922 26.9394 11.4922 26.9567V26.974V26.9913V27.0259C11.475 27.0432 11.475 27.0604 11.475 27.0777V27.1123V27.1469C11.4577 27.1642 11.4577 27.1814 11.4577 27.1987V27.216V27.2333C11.4404 27.2506 11.4404 27.2679 11.4404 27.2852V27.337C11.4231 27.3543 11.4231 27.3716 11.4231 27.3889V27.4235V27.458C11.4058 27.4753 11.4058 27.4926 11.4058 27.5099V27.5617C11.3885 27.579 11.3885 27.5963 11.3885 27.6136C11.3712 27.6482 11.3712 27.6655 11.3712 27.7C11.3712 27.7087 11.3669 27.7216 11.3626 27.7346C11.3583 27.7476 11.3539 27.7605 11.3539 27.7692C11.3539 27.7951 11.3496 27.8254 11.3453 27.8556C11.341 27.8859 11.3367 27.9161 11.3367 27.942C11.3194 27.9593 11.3194 27.9593 11.3194 27.9766C11.0428 29.4805 11.475 31.0017 12.564 32.35C13.7222 33.8193 15.5372 34.9429 17.6807 35.6344L17.688 35.6357C17.8948 35.6735 18.8589 35.8494 19.0809 35.0639C19.2537 34.4416 18.8389 34.1305 18.5623 33.9922C16.3324 33.3526 14.4655 32.2463 13.29 30.777C13.2381 30.7251 13.1863 30.656 13.1344 30.5868C12.3047 29.4114 11.959 28.1495 12.1664 26.8876C12.5121 24.8305 14.1889 22.7562 16.7818 21.235C19.4957 19.6274 22.8147 18.8149 26.1336 18.9359C30.1613 19.0915 33.5321 20.0595 35.9003 21.7017C37.9401 23.1538 39.1847 25.0552 39.5996 27.3889C39.6298 27.5704 39.6601 27.8445 39.6903 28.1187L39.6943 28.155L39.7033 28.2359C39.7206 28.4433 39.7206 28.6508 39.7206 28.8409C39.7206 29.0484 39.7206 29.2385 39.7033 29.3941C39.6687 29.7571 39.444 30.293 39.2366 30.6214C39.1588 30.7381 39.081 30.8256 39.0032 30.9131C38.9773 30.9423 38.9513 30.9714 38.9254 31.0017L38.9205 31.0072C38.7662 31.1786 38.5959 31.3678 38.4933 31.6586C38.4414 31.8487 38.4068 32.0562 38.4068 32.2636C38.4068 33.3008 39.0291 34.5281 39.3403 35.0812L39.3921 35.1677C39.8762 36.032 40.3083 36.7753 40.8269 37.605C40.8615 37.6569 40.9133 37.7779 40.9479 37.8816C40.9479 37.9075 40.9522 37.9291 40.9565 37.9507C40.9609 37.9724 40.9652 37.994 40.9652 38.0199C40.9652 38.1409 40.9306 38.2619 40.8615 38.3656C40.7577 38.5385 40.4293 38.5903 40.17 38.6249L40.0144 38.6595C39.444 38.7632 38.9773 39.0743 38.6661 39.5584C38.4933 39.8349 38.4414 40.1461 38.4414 40.44C38.4414 40.6992 38.4933 40.924 38.5278 41.0623C38.3204 41.2005 37.6289 41.3734 36.9721 41.4598C36.9375 41.4598 36.9029 41.4771 36.8684 41.4944C36.8338 41.5175 36.8146 41.5405 36.7954 41.5636C36.7858 41.5751 36.7762 41.5866 36.7646 41.5981C36.7646 41.6068 36.7603 41.6111 36.756 41.6154C36.7517 41.6197 36.7474 41.6241 36.7474 41.6327C36.7438 41.6435 36.7402 41.6535 36.7367 41.6631C36.7237 41.6996 36.7128 41.73 36.7128 41.771V41.8056C36.7227 41.8155 36.7269 41.8197 36.7287 41.8248C36.7301 41.8286 36.7301 41.8328 36.7301 41.8401V41.8747C36.7301 41.8747 36.8684 42.2204 36.9548 42.4624L36.9748 42.5193C37.0632 42.7701 37.0966 42.8647 37.1449 42.9292C37.1449 42.9292 37.1622 42.9465 37.1795 42.981C37.1449 43.1366 36.9029 43.2403 36.8511 43.2576C36.0386 43.5342 35.7966 43.7416 35.52 44.6405L35.399 45.0554C35.1224 46.058 34.9323 46.5765 34.0161 46.6976C32.8571 46.851 31.4964 46.0296 30.4975 45.4266L30.4552 45.4011L30.386 45.3492C29.5217 44.8134 28.9859 44.9171 28.692 45.0899C28.4327 45.2628 28.1388 45.6085 28.1388 46.421V46.6457C28.2215 47.9689 28.7157 49.2446 29.1974 50.488C29.2191 50.5441 29.2408 50.6001 29.2624 50.6561L29.4872 51.2438C29.7292 51.8661 30.0057 52.4884 30.2823 53.0934C30.3105 53.1566 30.3389 53.2199 30.3672 53.2832C30.7037 54.0348 31.0458 54.7988 31.2849 55.5481C31.6652 56.7063 31.9591 57.9336 32.2011 59.2992C32.4085 60.4401 32.5468 61.6155 32.616 62.8256C32.5468 61.823 32.4258 61.1834 32.4258 61.1834L32.6332 63.2059C32.6505 63.6553 32.6678 64.1047 32.6678 64.5542ZM19.6167 35.3578C19.6859 35.79 20.118 36.0838 20.5502 36.0147C20.9824 35.9455 21.2935 35.5307 21.2071 35.0812C21.1379 34.6491 20.7058 34.3552 20.2736 34.4244C19.8415 34.4935 19.5476 34.9257 19.6167 35.3578ZM21.9331 35.4788C22.0022 35.911 22.4344 36.2048 22.8665 36.1357C23.2987 36.0493 23.6099 35.6344 23.5234 35.2022C23.4543 34.7701 23.0221 34.4762 22.59 34.5454C22.1578 34.6145 21.8639 35.0467 21.9331 35.4788ZM31.4059 29.1002C31.6652 29.0656 31.8208 28.8236 31.7862 28.5816C31.7344 28.3396 31.5096 28.1668 31.2676 28.2013C31.0083 28.2359 30.8528 28.4779 30.8873 28.7199C30.9219 28.9792 31.1639 29.1348 31.4059 29.1002ZM31.5788 26.369C31.5442 26.1097 31.3022 25.9541 31.0602 25.9887C30.8182 26.0233 30.6453 26.248 30.6799 26.5073C30.7145 26.7666 30.9565 26.9222 31.1985 26.8876C31.4578 26.853 31.6134 26.611 31.5788 26.369ZM30.7836 31.2956C31.0948 31.2437 31.3022 30.9498 31.2503 30.6387C31.1985 30.3275 30.9046 30.1201 30.5935 30.172C30.2823 30.2238 30.0749 30.5177 30.1267 30.8288C30.1786 31.14 30.4725 31.3474 30.7836 31.2956ZM30.5416 24.2774C30.4898 24.0526 30.2996 23.9144 30.0749 23.9489C29.8502 23.9835 29.7119 24.1909 29.7464 24.4157C29.7983 24.6404 29.9885 24.7787 30.2132 24.7441C30.4379 24.6922 30.5762 24.5021 30.5416 24.2774ZM29.4007 33.2489C29.8329 33.1798 30.1095 32.7822 30.0403 32.3673C29.9712 31.9524 29.5736 31.6759 29.1587 31.7277C28.7266 31.7969 28.45 32.1944 28.5191 32.6093C28.5883 33.0415 28.9859 33.318 29.4007 33.2489ZM28.8821 22.7043C28.8303 22.4796 28.6401 22.3413 28.4154 22.3759C28.1907 22.4277 28.0524 22.6179 28.087 22.8426C28.1388 23.0673 28.329 23.2056 28.5537 23.1711C28.7784 23.1192 28.9167 22.929 28.8821 22.7043ZM26.4275 34.0959C26.4966 34.5281 26.9288 34.8219 27.361 34.7528C27.7931 34.6837 28.087 34.2688 28.0178 33.8193C27.9487 33.3872 27.5165 33.0933 27.0844 33.1625C26.6522 33.2316 26.3584 33.6638 26.4275 34.0959ZM27.4301 28.6681C27.7412 28.6162 27.9487 28.3223 27.8968 28.0112C27.845 27.7 27.5511 27.4753 27.24 27.5445C26.9288 27.5963 26.7214 27.8902 26.7732 28.2013C26.8251 28.5125 27.1189 28.7199 27.4301 28.6681ZM26.6868 26.611C26.9461 26.5764 27.1017 26.3344 27.0671 26.0924C27.0152 25.8504 26.7905 25.6776 26.5485 25.7121C26.2892 25.7467 26.1336 25.9887 26.1682 26.2307C26.2028 26.49 26.4448 26.6456 26.6868 26.611ZM26.7732 21.7882C26.7214 21.5634 26.5312 21.4251 26.3065 21.4597C26.0991 21.4943 25.9435 21.7017 25.9781 21.9264C26.0299 22.1512 26.2201 22.2895 26.4448 22.2549C26.6695 22.203 26.8078 22.0129 26.7732 21.7882ZM27.2745 29.8608C27.2054 29.4632 26.8424 29.2039 26.4621 29.2731C26.0818 29.3422 25.8225 29.7052 25.8743 30.0855C25.9435 30.4831 26.3065 30.7424 26.6868 30.6733C27.0844 30.6041 27.3437 30.2411 27.2745 29.8608ZM25.1829 35.6171C25.615 35.548 25.9089 35.1158 25.8398 34.6837C25.7706 34.2515 25.3558 33.9576 24.9063 34.0268C24.4742 34.0959 24.1803 34.5281 24.2494 34.9602C24.3186 35.3924 24.7507 35.6863 25.1829 35.6171ZM25.1656 25.3145C25.131 25.0552 24.889 24.8997 24.647 24.9342C24.3877 24.9688 24.2322 25.2108 24.2667 25.4528C24.3013 25.7121 24.5433 25.8677 24.7853 25.8331C25.0446 25.7986 25.2002 25.5565 25.1656 25.3145ZM25.5286 31.1746C25.5286 30.7424 25.1829 30.3967 24.7507 30.3967C24.3359 30.3967 23.9901 30.7424 23.9729 31.1918C23.9901 31.6067 24.3186 31.9524 24.7507 31.9524C25.1483 31.9524 25.4595 31.6586 25.5113 31.2783C25.5286 31.2437 25.5286 31.2091 25.5286 31.1746ZM24.1976 21.4943C24.1457 21.2696 23.9556 21.1313 23.7309 21.1659C23.5061 21.2004 23.3506 21.4079 23.4024 21.6326C23.4543 21.8573 23.6444 21.9956 23.8691 21.961C24.0939 21.9092 24.2322 21.719 24.1976 21.4943ZM23.1604 25.3318C23.1086 25.1071 22.9184 24.9688 22.6937 25.0034C22.469 25.038 22.3307 25.2454 22.3652 25.4701C22.4171 25.6948 22.6073 25.8331 22.832 25.7986C23.0567 25.7467 23.195 25.5565 23.1604 25.3318ZM22.469 30.777H22.3998C21.9504 30.8461 21.6565 31.261 21.7429 31.7277C21.7948 32.0734 22.0887 32.3327 22.4344 32.3846C22.5208 32.4019 22.59 32.4019 22.6764 32.3846C23.1086 32.3154 23.4024 31.8833 23.3333 31.4511C23.2641 31.0363 22.8838 30.7424 22.469 30.777ZM21.5182 21.8227C21.4664 21.598 21.2762 21.4597 21.0515 21.4943C20.8268 21.5289 20.6885 21.7363 20.7231 21.961C20.7749 22.1857 20.9651 22.324 21.1898 22.2895C21.4145 22.2376 21.5528 22.0475 21.5182 21.8227ZM21.7775 26.5246C21.7429 26.3171 21.5528 26.1788 21.3454 26.2134C21.1379 26.248 20.9996 26.4554 21.0342 26.6456C21.0688 26.853 21.2589 26.9913 21.4664 26.9567C21.6738 26.9222 21.8121 26.732 21.7775 26.5246ZM20.9132 31.0708C20.8441 30.6387 20.4119 30.3448 19.9798 30.414C19.5303 30.4831 19.2537 30.9153 19.3229 31.3474C19.392 31.7796 19.8242 32.0734 20.2563 32.0043C20.6885 31.9351 20.9824 31.503 20.9132 31.0708ZM17.6461 24.3465C17.6115 24.0872 17.3695 23.9316 17.1275 23.9662C16.8855 24.0181 16.73 24.2428 16.7472 24.4848C16.7818 24.7441 17.0238 24.8997 17.2658 24.8651C17.5251 24.8305 17.6807 24.5885 17.6461 24.3465ZM15.9478 26.3672C15.9465 26.3963 15.9479 26.4259 15.9521 26.4554C15.9866 26.6974 16.2287 26.853 16.4707 26.8357C16.7128 26.8034 16.8645 26.5903 16.8553 26.3652C16.8555 26.3435 16.8541 26.3217 16.851 26.2999C16.8164 26.0578 16.5744 25.885 16.3324 25.9196C16.1141 25.9507 15.9521 26.1507 15.9478 26.3672ZM15.9478 26.3672C15.9473 26.3907 15.9487 26.4144 15.9521 26.4381C15.9866 26.6974 16.2287 26.853 16.4707 26.8184C16.6908 26.787 16.8538 26.5838 16.8553 26.3652C16.8547 26.3492 16.8532 26.3332 16.851 26.3171C16.8164 26.0578 16.5744 25.9023 16.3324 25.9368C16.1047 25.9672 15.957 26.1574 15.9478 26.3672ZM16.0039 28.4779C16.0731 28.8409 16.4015 29.0656 16.7472 29.0138C17.093 28.9446 17.335 28.6162 17.2831 28.2705C17.214 27.9075 16.8855 27.6827 16.5398 27.7346C16.1768 27.8038 15.9521 28.1322 16.0039 28.4779ZM17.8536 29.4632C17.4214 29.5324 17.1448 29.93 17.214 30.3448C17.2658 30.6387 17.4733 30.8461 17.7326 30.9498C17.8536 30.9844 17.9746 31.0017 18.1128 30.9844C18.545 30.9153 18.8216 30.5177 18.7524 30.1028C18.7179 29.8608 18.5796 29.6879 18.3894 29.5669C18.2339 29.4805 18.0437 29.4287 17.8536 29.4632ZM18.4931 22.929C18.545 23.1538 18.7351 23.2921 18.9599 23.2575C19.1846 23.2229 19.3229 23.0155 19.2883 22.7908C19.2364 22.566 19.0463 22.4277 18.8216 22.4623C18.5969 22.5142 18.4586 22.7043 18.4931 22.929Z" fill="white"/>
<path d="M16.851 26.3171C16.8164 26.0578 16.5744 25.9023 16.3324 25.9368C16.1047 25.9672 15.957 26.1574 15.9478 26.3672C15.9473 26.3907 15.9487 26.4144 15.9521 26.4381C15.9866 26.6974 16.2287 26.853 16.4707 26.8184C16.6908 26.787 16.8538 26.5838 16.8553 26.3652C16.8547 26.3492 16.8532 26.3332 16.851 26.3171Z" fill="white"/>
</g>
<defs>
<clipPath id="clip0_0_7921">
<rect width="144" height="82.8" fill="white"/>
</clipPath>
</defs>
</svg>
