<svg width="154" height="77" viewBox="0 0 154 77" fill="none" xmlns="http://www.w3.org/2000/svg">
<path d="M73.0722 29.073C74.7543 29.073 76.316 29.3533 77.7569 29.9128C79.1956 30.4723 80.4289 31.3391 81.4579 32.5132C82.4859 33.6893 83.29 35.1814 83.8704 36.9894C84.4497 38.8005 84.7394 40.9341 84.7394 43.3963C84.7394 48.32 83.4025 52.1719 80.7293 54.9501C78.0543 57.7294 74.2688 59.1191 69.3692 59.1191C68.5467 59.1191 67.7058 59.063 66.8453 58.9509C65.9839 58.8389 65.237 58.689 64.6015 58.5035V71.6517C64.1528 71.7251 63.6761 71.7812 63.1713 71.8189C62.6666 71.8555 62.2073 71.875 61.7965 71.875C61.3847 71.875 60.9275 71.8555 60.4227 71.8189C59.9179 71.7812 59.4596 71.7251 59.0488 71.6517V29.7437C59.4219 29.6703 59.8055 29.6143 60.198 29.5765C60.5912 29.5397 60.9924 29.5205 61.4042 29.5205C61.7772 29.5205 62.1705 29.5397 62.5822 29.5765C62.993 29.6143 63.3864 29.6703 63.7604 29.7437C63.7973 29.8199 63.8448 30.0519 63.8999 30.4442C63.9561 30.8356 64.0124 31.2551 64.0686 31.7025C64.1248 32.15 64.1809 32.58 64.2371 32.9897C64.2933 33.4003 64.3205 33.6613 64.3205 33.7734C64.6945 33.1762 65.1431 32.5983 65.6673 32.0388C66.1904 31.4793 66.8181 30.9749 67.5467 30.5284C68.2755 30.08 69.098 29.7264 70.0155 29.4654C70.9301 29.2044 71.9493 29.073 73.0722 29.073ZM41.5465 29.073C45.2854 29.073 48.128 29.9226 50.0725 31.6186C52.0171 33.3164 52.9898 36.03 52.9898 39.7591V57.7198C51.681 58.0185 50.0919 58.3258 48.2221 58.6428C46.3512 58.9587 44.4434 59.1182 42.4998 59.1182C40.6668 59.1182 39.0128 58.9509 37.5353 58.6147C36.0578 58.2784 34.805 57.7392 33.7771 56.9912C32.7481 56.2471 31.9537 55.2943 31.3927 54.1385C30.8317 52.9828 30.5517 51.5844 30.5517 49.9416C30.5517 48.3394 30.8781 46.9305 31.5331 45.7177C32.1871 44.5069 33.0755 43.499 34.1975 42.6968C35.3196 41.8957 36.6101 41.2975 38.0682 40.9071C39.5274 40.5147 41.0602 40.3187 42.6685 40.3187C43.865 40.3187 44.8465 40.3477 45.6128 40.4026C46.3793 40.4598 47.0245 40.5245 47.5486 40.5989V39.5359C47.5486 37.3346 46.9876 35.8057 45.8658 34.9476C44.7438 34.0905 43.117 33.6613 40.9855 33.6613C39.6755 33.6613 38.452 33.7647 37.3115 33.9688C36.1702 34.1744 35.0569 34.4441 33.9737 34.7795C33.2625 33.5483 32.908 32.0765 32.908 30.3593C34.1781 29.9496 35.5802 29.6326 37.1148 29.4084C38.6477 29.1842 40.1243 29.073 41.5465 29.073ZM27.2424 29.7434L27.5225 30.472L12.2647 54.0269H26.5691C26.6805 54.774 26.7376 55.5374 26.7376 56.3202C26.7376 57.0682 26.6805 57.7755 26.5691 58.448H4.13097L3.85 57.6643L18.9964 34.1644H5.64533C5.53293 33.4928 5.47673 32.7478 5.47673 31.9263C5.47673 31.1436 5.53293 30.415 5.64533 29.7434H27.2424ZM43.2295 44.6267C40.91 44.6267 39.1426 45.0566 37.9287 45.9139C36.7118 46.7729 36.1053 48.0784 36.1053 49.8304C36.1053 50.9495 36.3097 51.8269 36.7225 52.4599C37.1333 53.0949 37.6477 53.579 38.265 53.9152C38.882 54.2506 39.5642 54.4555 40.3122 54.5308C41.0602 54.6063 41.7712 54.6429 42.4437 54.6429C43.304 54.6429 44.1924 54.5966 45.108 54.5019C46.0247 54.4091 46.8375 54.27 47.5486 54.0834V44.963C46.9876 44.8885 46.2776 44.815 45.4171 44.7397C44.5568 44.6654 43.8273 44.6267 43.2295 44.6267ZM71.838 33.8846C70.9029 33.8846 70.0047 34.0527 69.1454 34.389C68.2842 34.7232 67.5188 35.2267 66.8453 35.8983C66.172 36.5699 65.6305 37.4195 65.2197 38.4448C64.8068 39.4721 64.6015 40.6916 64.6015 42.1101V53.7471C65.3107 54.009 66.0411 54.1954 66.7891 54.3066C67.5371 54.4178 68.5089 54.4747 69.7064 54.4747C71.0531 54.4747 72.2865 54.2602 73.4085 53.8311C74.5305 53.404 75.4935 52.7401 76.2968 51.8443C77.1008 50.9495 77.7364 49.8217 78.2043 48.4591C78.6714 47.0984 78.9059 45.4857 78.9059 43.6205C78.9059 40.6364 78.3536 38.2679 77.251 36.5139C76.1475 34.7619 74.3424 33.8846 71.838 33.8846ZM116.715 29.0725C118.696 29.0725 120.435 29.4088 121.931 30.0804C123.427 30.752 124.68 31.6748 125.69 32.8499C126.699 34.025 127.465 35.4233 127.989 37.0459C128.513 38.6684 128.775 40.43 128.775 42.3328C128.775 42.8557 128.756 43.4054 128.718 43.9834C128.681 44.5631 128.644 45.056 128.607 45.4657H109.029C109.104 48.5996 109.917 50.8938 111.469 52.3482C113.021 53.8026 115.312 54.5312 118.341 54.5312C120.997 54.5312 123.52 54.0643 125.914 53.1319C126.214 53.6914 126.456 54.3717 126.644 55.1737C126.831 55.9769 126.942 56.7683 126.98 57.552C125.746 58.0748 124.389 58.4652 122.914 58.7271C121.435 58.987 119.8 59.1185 118.005 59.1185C115.386 59.1185 113.143 58.7551 111.274 58.0274C109.404 57.2997 107.86 56.2745 106.645 54.9505C105.43 53.6267 104.542 52.0593 103.981 50.2501C103.42 48.4411 103.139 46.4553 103.139 44.2906C103.139 42.1656 103.41 40.1798 103.953 38.3321C104.494 36.4863 105.328 34.8832 106.449 33.5206C107.571 32.16 108.982 31.0786 110.684 30.2755C112.385 29.4735 114.395 29.0725 116.715 29.0725ZM97.0819 29.7434V58.448C96.669 58.5215 96.2118 58.5766 95.707 58.6143C95.2022 58.6509 94.743 58.6703 94.3322 58.6703C93.9582 58.6703 93.5183 58.6509 93.0145 58.6143C92.5088 58.5766 92.0504 58.5215 91.6396 58.448V34.1084H87.9928C87.9182 33.8099 87.862 33.4649 87.8252 33.0735C87.7873 32.6821 87.769 32.2994 87.769 31.9263C87.769 31.5544 87.7873 31.1708 87.8252 30.7794C87.862 30.388 87.9182 30.043 87.9928 29.7434H97.0819ZM123.278 41.3267C123.278 40.2822 123.137 39.2849 122.857 38.3321C122.576 37.3812 122.165 36.552 121.623 35.8428C121.079 35.1344 120.389 34.5653 119.547 34.1371C118.706 33.7081 117.705 33.4926 116.546 33.4926C114.265 33.4926 112.517 34.1835 111.301 35.5635C110.086 36.9434 109.347 38.8646 109.085 41.3267H123.278ZM137.249 29.5205C137.659 29.5205 138.07 29.5399 138.483 29.5765C138.894 29.6143 139.268 29.6703 139.605 29.7437C139.716 30.3033 139.829 31.0417 139.941 31.9539C140.052 32.8689 140.11 33.6421 140.11 34.2769C140.894 33.0091 141.933 31.9075 143.223 30.9749C144.513 30.0434 146.167 29.5765 148.187 29.5765C148.485 29.5765 148.795 29.5852 149.112 29.6046C149.429 29.6239 149.702 29.652 149.926 29.6877C150 30.024 150.057 30.3797 150.094 30.7516C150.132 31.1247 150.15 31.5161 150.15 31.9267C150.15 32.3742 150.122 32.841 150.067 33.3251C150.011 33.8102 149.945 34.2769 149.87 34.7234C149.57 34.65 149.262 34.6123 148.944 34.6123H148.187C147.178 34.6123 146.214 34.7525 145.298 35.0318C144.38 35.312 143.559 35.8057 142.829 36.5141C142.101 37.2234 141.52 38.1936 141.091 39.4247C140.661 40.6549 140.446 42.2407 140.446 44.1793V58.4475C140.034 58.5209 139.576 58.5769 139.071 58.6147C138.567 58.6515 138.108 58.6707 137.698 58.6707C137.285 58.6707 136.828 58.6515 136.323 58.6147C135.817 58.5769 135.341 58.5209 134.892 58.4475V29.7437C135.303 29.6703 135.696 29.6143 136.07 29.5765C136.443 29.5399 136.837 29.5205 137.249 29.5205ZM93.1989 5.12504C93.7249 5.126 94.2423 5.17046 94.7452 5.25453V10.6758L98.5886 6.84226C99.0131 7.14375 99.4102 7.47908 99.7774 7.84533C100.145 8.21159 100.482 8.60877 100.784 9.03203L96.9406 12.8656H102.376C102.46 13.3671 102.505 13.8812 102.505 14.4069V14.4195C102.505 14.9452 102.46 15.4602 102.376 15.9618H96.9396L100.784 19.7943C100.482 20.2176 100.145 20.6148 99.7785 20.981C99.4102 21.3473 99.0131 21.6836 98.5897 21.9841L94.7452 18.1506V23.5718C94.2432 23.6559 93.7258 23.7003 93.1998 23.7014H93.1863C92.66 23.7003 92.1447 23.6559 91.6418 23.5718V18.1506L87.7984 21.9841C86.9496 21.3821 86.2075 20.6409 85.6028 19.7943L89.4464 15.9618H84.011C83.9257 15.4593 83.8812 14.9423 83.8812 14.4166V14.4098C83.8812 14.2617 83.8914 14.0747 83.9062 13.8825L83.9166 13.7539C83.9551 13.3038 84.011 12.8656 84.011 12.8656H89.4464L85.6028 9.03203C85.9041 8.60877 86.2404 8.21255 86.6076 7.84728C86.9758 7.47908 87.3739 7.14375 87.7984 6.84226L91.6418 10.6758V5.25453C92.1447 5.17046 92.6612 5.126 93.1881 5.12504H93.1989ZM93.1979 12.0915H93.1891C92.4973 12.0915 91.8347 12.2181 91.2223 12.4481C90.9928 13.0579 90.8657 13.7188 90.8648 14.4088V14.4175C90.8657 15.1075 90.9928 15.7685 91.2232 16.3783C91.8347 16.6083 92.4973 16.7349 93.1891 16.7349H93.1979C93.8897 16.7349 94.5523 16.6083 95.1638 16.3783C95.3942 15.7675 95.5213 15.1075 95.5213 14.4175V14.4088C95.5213 13.7188 95.3942 13.0579 95.1638 12.4481C94.5523 12.2181 93.8897 12.0915 93.1979 12.0915Z" fill="#FF4A00"/>
</svg>
