<svg width="213" height="56" viewBox="0 0 213 56" fill="none" xmlns="http://www.w3.org/2000/svg">
<path d="M5.62268 31.8255H12.6786C12.7521 33.222 13.2666 34.2509 14.2221 34.9124C15.251 35.5739 16.6475 35.9414 18.338 35.9414C19.5875 35.9414 20.6165 35.7209 21.572 35.2064C22.3804 34.6919 22.8214 34.1039 22.8214 33.222C22.8214 31.9725 21.3515 31.017 18.485 30.429C17.2355 30.2085 16.28 29.988 15.692 29.841C12.0171 28.959 9.59162 27.8565 8.34214 26.607C6.94566 25.3576 6.28417 23.7406 6.28417 21.6091C6.28417 18.9632 7.31316 16.8317 9.29763 15.0677C11.3556 13.4507 14.0751 12.7157 17.3825 12.7157C20.984 12.7157 23.8504 13.5242 25.9819 15.0677C27.9664 16.7582 29.0689 19.0367 29.2159 21.7561H24.8059C23.4829 21.7561 22.5274 21.1681 21.7925 19.9921C21.4985 19.6981 21.2045 19.4776 20.984 19.1837C20.1755 18.5957 18.9995 18.2282 17.603 18.2282C16.2065 18.2282 15.1775 18.4487 14.5161 18.8162C13.9281 19.2572 13.5606 19.8451 13.5606 20.6536C13.5606 21.7561 15.3245 22.7116 18.926 23.4466C19.367 23.5936 19.7345 23.6671 20.0285 23.7406C20.3225 23.8141 20.6165 23.8141 20.9105 23.8141C24.4384 24.6961 26.8639 25.7251 28.2604 26.901C29.5833 28.1505 30.2448 29.7675 30.2448 31.899C30.2448 34.9124 29.1424 37.2644 26.9374 38.9549C24.8794 40.4984 21.7925 41.2333 17.603 41.2333C13.7076 41.2333 10.7676 40.4249 8.78314 38.8814C6.79866 37.2644 5.76968 34.9859 5.76968 31.9725V31.8255H5.62268ZM48.6196 21.1681C47.5906 19.6981 46.1941 18.9632 44.3566 18.9632C42.4457 18.9632 40.9757 19.6246 39.9467 21.0211C38.9177 22.4176 38.4032 24.3286 38.4032 26.6805V40.9394H31.3473V5.36585H34.8753C35.8308 5.36585 36.6392 5.73334 37.3742 6.39483C38.0357 7.05633 38.4032 7.93831 38.4032 8.8938V17.0522C39.6527 14.9942 41.4167 13.6712 43.6951 13.1567C45.9736 12.6422 48.1051 12.7157 50.2366 13.5977C52.1475 14.4062 53.7645 15.7292 55.0875 17.4932C56.4105 19.2572 57.072 21.7561 57.072 24.9166V40.9394H50.1631V26.6805C50.1631 25.6516 50.0896 24.6961 49.8691 23.8141C49.6486 23.0056 49.2076 22.1236 48.6196 21.1681ZM58.5419 13.4507H62.2904C63.2459 13.4507 64.0544 13.8182 64.7894 14.4797C65.4508 15.1412 65.8183 16.0232 65.8183 16.9787V40.9394H58.6154V13.4507H58.5419ZM74.4177 47.4073C74.4177 48.3627 74.0502 49.1712 73.3887 49.9062C72.7272 50.5677 71.8453 50.9352 70.8898 50.9352H67.3618V25.2106C67.3618 20.3596 68.7583 17.1257 71.6248 15.3617C74.4177 13.5977 77.5047 12.7157 80.8121 12.7157C82.5026 12.7157 84.2666 13.0097 86.0306 13.6712C87.7945 14.3327 89.191 15.2882 90.22 16.5377C92.278 19.2572 93.307 22.6381 93.307 26.901C93.307 31.2375 92.278 34.7654 90.22 37.4114C88.162 40.0574 85.5161 41.3068 82.2821 41.3068C80.5916 41.3068 79.0481 41.0128 77.7252 40.3514C76.3287 39.6899 75.2262 38.5874 74.4177 37.1174V47.4073ZM86.2511 27.1215C86.2511 24.4021 85.7366 22.3441 84.7076 20.9476C83.6786 19.4776 82.2086 18.7427 80.2976 18.7427C78.4602 18.7427 76.9902 19.4776 75.9612 20.9476C75.0057 22.2706 74.4912 24.3286 74.4912 27.1215C74.4912 29.7675 75.0057 31.6785 76.0347 33.0015C77.0637 34.4714 78.5337 35.2064 80.4446 35.2064C82.2086 35.2064 83.6786 34.4714 84.7076 33.0015C85.7366 31.605 86.2511 29.6205 86.2511 27.1215ZM101.612 47.4073C101.612 48.3627 101.245 49.1712 100.583 49.9062C99.9219 50.5677 99.0399 50.9352 98.0844 50.9352H94.5564V25.2106C94.5564 20.3596 95.9529 17.1257 98.8194 15.3617C101.612 13.5977 104.699 12.7157 108.007 12.7157C109.697 12.7157 111.461 13.0097 113.225 13.6712C114.989 14.3327 116.386 15.2882 117.415 16.5377C119.473 19.2572 120.502 22.6381 120.502 26.901C120.502 31.2375 119.473 34.7654 117.415 37.4114C115.357 40.0574 112.711 41.3068 109.477 41.3068C107.786 41.3068 106.243 41.0128 104.92 40.3514C103.523 39.6899 102.421 38.5874 101.612 37.1174V47.4073ZM113.372 27.1215C113.372 24.4021 112.858 22.3441 111.829 20.9476C110.8 19.4776 109.33 18.7427 107.419 18.7427C105.581 18.7427 104.111 19.4776 103.082 20.9476C102.127 22.2706 101.612 24.3286 101.612 27.1215C101.612 29.7675 102.127 31.6785 103.156 33.0015C104.185 34.4714 105.655 35.2064 107.566 35.2064C109.33 35.2064 110.8 34.4714 111.829 33.0015C112.858 31.605 113.372 29.6205 113.372 27.1215ZM139.244 39.6164C137.774 40.3514 136.23 40.8658 134.613 41.0128C132.996 41.1598 131.6 41.3068 130.35 41.3068C127.851 41.3068 125.72 40.6454 123.809 39.3224C121.972 37.9994 121.016 35.7209 121.016 32.634C121.016 29.7675 121.825 27.636 123.515 26.4601C125.206 25.2106 127.337 24.4021 129.983 23.9611C130.35 23.9611 130.718 23.8876 131.232 23.8141C131.747 23.7406 132.261 23.5936 132.923 23.5201C135.936 23.0791 137.48 22.1971 137.48 20.8006C137.48 19.7716 136.965 19.1102 135.863 18.8162C134.76 18.5222 133.805 18.3752 132.923 18.3752C131.967 18.3752 131.085 18.5222 130.35 18.8162C129.615 19.1102 129.027 19.6246 128.66 20.3596H121.751C122.045 18.2282 123.001 16.4642 124.618 15.0677C126.455 13.4507 129.101 12.7157 132.555 12.7157C136.377 12.7157 139.317 13.3772 141.228 14.7002C143.213 16.0967 144.242 18.0077 144.242 20.5066V29.9145C144.242 32.7075 143.727 34.8389 142.772 36.3824C141.816 37.7789 140.64 38.8814 139.244 39.6164ZM137.627 26.901C136.671 27.4155 135.348 27.8565 133.584 28.224L131.232 28.7385C129.983 29.106 129.101 29.547 128.513 30.0615C127.998 30.7965 127.778 31.605 127.778 32.34C127.778 33.369 128.072 34.1774 128.733 34.8389C129.321 35.4269 130.277 35.6474 131.453 35.6474C133.364 35.6474 134.907 35.1329 136.01 33.9569C137.112 32.8545 137.7 31.311 137.7 29.4V26.901H137.627ZM153.062 8.15881V16.4642C153.797 15.1412 154.899 14.1122 156.369 13.2302C157.619 12.5687 159.089 12.2013 160.926 12.2013C164.16 12.2013 166.806 13.5242 168.864 16.2437C170.922 18.9632 171.951 22.4176 171.951 26.6805C171.951 30.9435 170.922 34.3979 168.864 37.1174C167.835 38.4404 166.438 39.3959 164.674 39.9839C162.91 40.5719 161.146 40.8658 159.456 40.8658C156.149 40.8658 153.062 39.9839 150.269 38.2934C147.476 36.6029 146.006 33.2955 146.006 28.371V4.63086H149.534C150.489 4.63086 151.298 4.99835 152.033 5.65984C152.694 6.32134 153.062 7.20332 153.062 8.15881ZM164.821 26.3131C164.821 23.8141 164.307 21.9031 163.278 20.5066C162.249 19.0367 160.852 18.3017 159.015 18.3017C157.104 18.3017 155.634 18.9632 154.605 20.3596C153.576 21.8296 153.062 23.7406 153.062 26.2396C153.062 29.106 153.576 31.2375 154.532 32.5605C155.561 34.0304 157.031 34.7654 158.868 34.7654C160.779 34.7654 162.249 34.0304 163.278 32.5605C164.307 31.164 164.821 29.106 164.821 26.3131ZM173.2 5.36585H176.949C177.904 5.36585 178.713 5.65984 179.448 6.32134C180.109 6.98283 180.477 7.79131 180.477 8.7468V40.9394H173.274V5.36585H173.2ZM201.791 32.4135H206.936C206.201 35.2799 204.731 37.4849 202.6 39.0284C200.468 40.6454 197.749 41.3803 194.515 41.3803C190.62 41.3803 187.533 40.1309 185.328 37.5584C183.123 35.0594 182.02 31.5315 182.02 26.901C182.02 22.4911 183.123 19.0367 185.254 16.5377C187.459 13.9652 190.546 12.7157 194.442 12.7157C198.557 12.7157 201.791 13.9652 204.07 16.4642C206.275 19.0367 207.377 22.5646 207.377 27.1215V27.8565V28.2975C207.377 28.665 207.377 28.8855 207.304 29.0325H189.444C189.517 31.164 190.032 32.781 190.987 33.8099C191.869 34.9124 193.192 35.5004 195.03 35.5004C196.206 35.5004 197.234 35.2799 198.043 34.7654C198.263 34.6919 198.41 34.5449 198.631 34.3979C198.778 34.2509 198.998 34.0304 199.219 33.8099C199.292 33.5895 199.513 33.2955 200.027 33.0015C200.321 32.5605 200.983 32.4135 201.791 32.4135ZM189.37 24.3286H199.88C199.733 22.4911 199.292 21.0946 198.41 20.2126C197.528 19.2572 196.206 18.7427 194.589 18.7427C193.045 18.7427 191.796 19.2572 190.84 20.2126C189.958 21.1681 189.444 22.5646 189.37 24.3286Z" fill="black"/>
<path d="M58.5426 5.36523H62.2911C63.2465 5.36523 64.055 5.73273 64.79 6.39422C65.4515 7.05571 65.819 7.9377 65.819 8.89318V11.0982H58.6161V5.36523H58.5426Z" fill="#238189"/>
</svg>
