<svg width="103" height="115" viewBox="0 0 103 115" fill="none" xmlns="http://www.w3.org/2000/svg">
<path d="M12.5752 82.994C48.8592 86.5907 77.9938 65.1292 85.2614 55.9328C92.5291 46.7364 81.5094 2.86108 81.5094 2.86108C69.5641 32.2067 47.8449 76.6838 12.5752 83.0088V82.994Z" fill="url(#paint0_linear_0_9895)" style="mix-blend-mode:multiply"/>
<path d="M29.3535 71.2828C50.7563 72.0707 67.0473 58.6121 70.9744 53.0327C74.9016 47.4533 68.8889 22.3237 68.8889 22.3237C62.9409 39.7317 46.3911 65.0977 29.3535 71.2828Z" fill="url(#paint1_linear_0_9895)" style="mix-blend-mode:multiply"/>
<path d="M5.91765 101.931C6.57953 102.618 7.36668 103.177 8.23822 103.578C9.10312 103.988 10.0507 104.201 11.0107 104.202C12.0267 104.263 13.0325 103.974 13.8543 103.384C14.519 102.866 14.8956 102.071 14.8699 101.238C14.882 100.832 14.8004 100.43 14.6312 100.06C14.4761 99.7432 14.2567 99.4613 13.9863 99.2314C13.6904 98.985 13.3647 98.7754 13.0165 98.6075L11.8181 98.0286L9.17255 96.8957C8.7195 96.7003 8.27864 96.4786 7.85231 96.2319C7.4061 95.9773 6.99916 95.6613 6.64378 95.2936C6.27658 94.9098 5.98095 94.4656 5.77039 93.9811C5.28758 92.7991 5.32248 91.4737 5.86687 90.3179C6.15605 89.7281 6.56774 89.2045 7.0754 88.7807C7.61571 88.3383 8.23582 87.9998 8.90342 87.7826C9.65111 87.5363 10.4355 87.4149 11.224 87.4232C12.2731 87.4164 13.3117 87.629 14.2707 88.0471C15.1648 88.4325 15.9764 88.9813 16.6624 89.6641L15.398 91.1613C14.8519 90.6389 14.218 90.2134 13.5243 89.9036C12.7926 89.5911 12.0013 89.4362 11.2037 89.4495C10.3162 89.4058 9.43914 89.6533 8.71046 90.1532C8.08651 90.61 7.7329 91.3406 7.76598 92.1046C7.7539 92.494 7.84674 92.8797 8.03511 93.2225C8.22647 93.5282 8.47655 93.7943 8.7714 94.006C9.07816 94.2409 9.40819 94.4449 9.7565 94.6149C10.1119 94.7912 10.4776 94.9576 10.8533 95.114L13.4735 96.2219C13.9897 96.4378 14.4887 96.6914 14.9664 96.9805C15.417 97.253 15.8242 97.5893 16.1749 97.9787C16.5211 98.3704 16.7928 98.82 16.9772 99.3062C17.1837 99.8692 17.2835 100.465 17.2717 101.063C17.2733 101.751 17.1244 102.432 16.835 103.059C16.5413 103.69 16.1136 104.251 15.5808 104.706C15.0025 105.196 14.3336 105.573 13.6106 105.814C12.7682 106.092 11.8839 106.227 10.9955 106.213C8.55313 106.234 6.21057 105.262 4.52124 103.528L5.91765 101.931Z" fill="#149CB5"/>
<path d="M19.4795 107.044V111.583H17.2726V92.4558H19.1012L19.2904 94.004H19.3728C19.9667 93.4843 20.6178 93.0384 21.3129 92.6756C21.9985 92.312 22.7584 92.1219 23.5295 92.1212C24.3005 92.1101 25.0637 92.2809 25.7607 92.6206C26.401 92.9385 26.9557 93.4135 27.3758 94.004C27.8254 94.6555 28.1543 95.387 28.3459 96.1615C28.5799 97.0874 28.6925 98.0414 28.6806 98.9981C28.6973 100.038 28.5432 101.073 28.2246 102.06C27.9535 102.893 27.5341 103.667 26.9878 104.342C26.4964 104.946 25.8821 105.432 25.1883 105.765C24.5161 106.091 23.7827 106.262 23.0396 106.265C22.4132 106.261 21.7948 106.119 21.2256 105.85C20.5804 105.546 19.9717 105.165 19.4116 104.716L19.4795 107.044ZM19.4795 102.919C19.9875 103.383 20.5702 103.753 21.2014 104.012C21.6649 104.205 22.1572 104.313 22.6565 104.332C23.1769 104.337 23.6903 104.208 24.1504 103.957C24.6158 103.701 25.02 103.341 25.3338 102.904C25.6902 102.399 25.9548 101.832 26.1147 101.231C26.3113 100.501 26.406 99.7456 26.3961 98.9881C26.3999 98.3173 26.3365 97.6479 26.2069 96.9905C26.1022 96.4348 25.8965 95.9044 25.6006 95.4273C25.3292 95.0062 24.9588 94.6626 24.5238 94.4285C24.0366 94.1776 23.4969 94.0541 22.9523 94.0689C22.3636 94.0783 21.7865 94.2397 21.2741 94.5384C20.6211 94.9185 20.0125 95.3742 19.4601 95.8968L19.4795 102.919Z" fill="#149CB5"/>
<path d="M31.0322 89.6292C30.592 89.6407 30.1639 89.495 29.8373 89.2225C29.5281 88.9524 29.3529 88.5767 29.3529 88.1838C29.3529 87.7909 29.5281 87.4153 29.8373 87.1451C30.5304 86.6206 31.5286 86.6206 32.2218 87.1451C32.5324 87.4146 32.7085 87.7905 32.7085 88.1838C32.7085 88.5772 32.5324 88.9531 32.2218 89.2225C31.8967 89.4942 31.4706 89.6399 31.0322 89.6292ZM29.7948 92.3436H32.2112V105.543H29.7948V92.3436Z" fill="#149CB5"/>
<path d="M34.0508 92.4431H35.9379L36.131 94.3299H36.2152C36.8214 93.7283 37.498 93.1994 38.2311 92.7543C38.9797 92.3195 39.838 92.1004 40.7076 92.1222C42.1175 92.1222 43.1477 92.5533 43.7982 93.4157C44.4487 94.278 44.7789 95.5536 44.7888 97.2426V105.543H42.5352V97.5392C42.5352 96.3009 42.3338 95.4077 41.931 94.8599C41.472 94.286 40.7498 93.9772 40.0092 94.0381C39.3587 94.0258 38.7191 94.2035 38.1717 94.5487C37.5178 94.9906 36.9105 95.4956 36.3589 96.0561V105.543H34.1053L34.0508 92.4431Z" fill="#149CB5"/>
<path d="M46.1311 92.4432H48.0018L48.1953 94.3299H48.2797C48.8869 93.7283 49.5648 93.1994 50.2993 92.7544C51.0492 92.3192 51.9091 92.1001 52.7803 92.1222C54.1929 92.1222 55.225 92.5534 55.8767 93.4157C56.5284 94.278 56.8592 95.5537 56.8691 97.2426V105.543H54.5667V97.5392C54.5667 96.3009 54.3649 95.4078 53.9613 94.8599C53.5015 94.286 52.778 93.9772 52.036 94.0381C51.3843 94.0258 50.7435 94.2035 50.195 94.5487C49.5399 94.9906 48.9315 95.4956 48.3789 96.0561V105.543H46.1311V92.4432Z" fill="#149CB5"/>
<path d="M58.2167 102.397C58.1832 100.982 58.9688 99.6694 60.2439 99.0119C61.5954 98.2275 63.7258 97.679 66.6349 97.3665C66.6352 96.9496 66.5928 96.5336 66.5082 96.125C66.431 95.7404 66.2778 95.3745 66.0571 95.0481C65.837 94.732 65.5433 94.4722 65.2006 94.2902C64.7732 94.0811 64.299 93.9816 63.8221 94.001C63.0537 93.9938 62.2924 94.145 61.587 94.4447C60.9429 94.7188 60.3269 95.0527 59.7473 95.4419L58.8198 93.8664C59.5604 93.4077 60.3405 93.014 61.1511 92.6897C62.1159 92.302 63.15 92.1087 64.192 92.1213C65.8578 92.1213 67.0657 92.6199 67.8158 93.6171C68.6188 94.8034 69.0133 96.2122 68.9409 97.6358V105.878H67.0302L66.8326 104.277H66.7768C66.1247 104.809 65.4141 105.267 64.6583 105.643C63.9149 106.018 63.0913 106.213 62.256 106.212C61.2028 106.249 60.1743 105.893 59.3773 105.214C58.5837 104.492 58.1583 103.46 58.2167 102.397ZM60.4923 102.233C60.429 102.864 60.687 103.486 61.1815 103.893C61.6775 104.236 62.2734 104.411 62.8794 104.392C63.5316 104.392 64.1739 104.235 64.7495 103.933C65.4285 103.566 66.057 103.116 66.6197 102.592V98.8623C65.6451 98.9784 64.6786 99.1532 63.7258 99.3859C63.0641 99.5407 62.4266 99.7822 61.8303 100.104C61.4134 100.328 61.0638 100.657 60.8166 101.056C60.6051 101.413 60.4932 101.819 60.4923 102.233Z" fill="#149CB5"/>
<path d="M69.6205 86.0806H71.9054V99.2595H71.9919L77.8288 92.2607H80.3732L75.7932 97.5924L81.0296 105.543H78.4852L74.4803 99.1313L71.9359 102.031V105.528H69.651L69.6205 86.0806Z" fill="#149CB5"/>
<path d="M79.0183 99.2247C78.9953 98.206 79.1649 97.1921 79.5184 96.2359C79.8278 95.4169 80.2893 94.6632 80.8786 94.0142C81.4182 93.4236 82.0734 92.9489 82.8038 92.6195C83.5079 92.2957 84.2735 92.1258 85.0491 92.1214C85.8335 92.1094 86.6118 92.2604 87.3343 92.5647C87.9919 92.8468 88.5716 93.2825 89.0245 93.8349C89.4976 94.4256 89.8509 95.1024 90.0647 95.8274C90.3146 96.6697 90.4359 97.5445 90.4247 98.4227C90.4296 98.8377 90.4012 99.2525 90.3397 99.663H81.2786C81.2984 100.937 81.7756 102.161 82.6238 103.115C83.4411 103.968 84.5864 104.43 85.7691 104.385C86.3781 104.392 86.9837 104.294 87.5594 104.096C88.1075 103.902 88.6324 103.648 89.1245 103.339L89.9296 104.834C89.3053 105.218 88.6456 105.541 87.9594 105.8C87.1701 106.087 86.3344 106.227 85.4941 106.213C84.6243 106.215 83.7627 106.046 82.9588 105.715C82.1866 105.402 81.4883 104.932 80.9086 104.335C80.3062 103.704 79.8399 102.956 79.5384 102.139C79.1893 101.207 79.0131 100.219 79.0183 99.2247ZM88.4445 98.2035C88.4445 96.822 88.1528 95.7677 87.5694 95.0404C86.9734 94.3062 86.0606 93.9006 85.1141 93.9495C84.6419 93.9478 84.1749 94.0463 83.7439 94.2384C83.3011 94.4364 82.9005 94.7171 82.5638 95.0653C82.1942 95.4508 81.8977 95.8997 81.6887 96.3903C81.4452 96.9664 81.2917 97.5762 81.2336 98.1985L88.4445 98.2035Z" fill="#149CB5"/>
<path d="M91.1015 92.4232H92.9732L93.1668 94.7998H93.2512C93.6588 94.0423 94.2257 93.3783 94.9143 92.8517C95.5219 92.3796 96.274 92.1222 97.0491 92.1212C97.5394 92.1129 98.0262 92.2041 98.4789 92.3891L98.0371 94.3371C97.8386 94.2718 97.6364 94.2181 97.4314 94.1764C97.2036 94.137 96.9726 94.1191 96.7413 94.1228C96.0893 94.1514 95.4648 94.3892 94.964 94.7998C94.2231 95.4268 93.6676 96.2375 93.3554 97.1472V105.543H91.0965L91.1015 92.4232Z" fill="#149CB5"/>
<defs>
<linearGradient id="paint0_linear_0_9895" x1="74.346" y1="7.71865" x2="34.3917" y2="86.1982" gradientUnits="userSpaceOnUse">
<stop stop-color="#2B3990"/>
<stop offset="0.16" stop-color="#1E62A7"/>
<stop offset="0.32" stop-color="#1485BC"/>
<stop offset="0.49" stop-color="#0BA1CC"/>
<stop offset="0.66" stop-color="#05B4D7"/>
<stop offset="0.83" stop-color="#01C0DE"/>
<stop offset="1" stop-color="#00C4E0"/>
</linearGradient>
<linearGradient id="paint1_linear_0_9895" x1="-13572.7" y1="38703.6" x2="-8477.74" y2="38703.6" gradientUnits="userSpaceOnUse">
<stop stop-color="#2B3990"/>
<stop offset="0.16" stop-color="#1E62A7"/>
<stop offset="0.32" stop-color="#1485BC"/>
<stop offset="0.49" stop-color="#0BA1CC"/>
<stop offset="0.66" stop-color="#05B4D7"/>
<stop offset="0.83" stop-color="#01C0DE"/>
<stop offset="1" stop-color="#00C4E0"/>
</linearGradient>
</defs>
</svg>
