<svg width="270" height="44" viewBox="0 0 270 44" fill="none" xmlns="http://www.w3.org/2000/svg">
<path d="M5.30869 3.64865H17.3267V39.1841H5.30869V3.64865ZM21.0446 3.64865H30.3823L39.6337 17.3095L48.885 3.64865H58.3092V39.1841H46.8964V26.3879L39.6337 37.0225L32.3709 26.3879V39.1841H21.0446V3.64865ZM61.9406 3.64865H71.3648L80.5296 17.3095L89.781 3.64865H99.2052V39.1841H87.7924V26.3879L80.5296 37.109L73.2669 26.4743V39.2705H61.9406V3.64865ZM116.497 40.1351C114.249 40.1351 112.261 39.8758 110.445 39.2705C108.629 38.6653 107.073 37.8872 105.776 36.6767C104.479 35.5527 103.528 34.0829 102.837 32.3537C102.145 30.6244 101.799 28.5494 101.799 26.2149V3.64865H113.125V25.7826C113.125 26.9931 113.385 27.9442 113.904 28.6358C114.422 29.3275 115.287 29.5869 116.497 29.5869C117.708 29.5869 118.572 29.2411 119.091 28.6358C119.61 27.9442 119.869 26.9931 119.869 25.7826V3.64865H131.282V26.2149C131.282 28.5494 130.936 30.6244 130.245 32.3537C129.553 34.0829 128.515 35.5527 127.219 36.6767C125.922 37.8007 124.365 38.6653 122.55 39.2705C120.734 39.7893 118.745 40.1351 116.497 40.1351ZM139.669 12.9864H133.098V3.64865H157.912V12.9864H151.341V39.1841H139.582V12.9864H139.669ZM166.472 3.64865H175.031L188.519 39.1841H177.366L176.155 35.985H165.348L164.137 39.1841H152.984L166.472 3.64865ZM173.129 28.2035L170.708 21.9784L168.287 28.2035H173.129ZM189.384 3.64865H203.304C205.12 3.64865 206.676 3.82157 208.146 4.25388C209.616 4.68618 210.913 5.29141 211.95 6.06956C212.988 6.8477 213.852 7.88523 214.371 9.09569C214.976 10.3061 215.236 11.6895 215.236 13.2458C215.236 14.3698 215.063 15.3209 214.803 16.1855C214.544 16.9636 214.198 17.6553 213.939 18.1741C213.506 18.7793 213.074 19.3845 212.642 19.7304C213.42 20.2491 214.112 20.8544 214.803 21.6325C215.322 22.3242 215.841 23.1888 216.273 24.2263C216.706 25.2639 216.965 26.5608 216.965 28.0306C216.965 29.7598 216.706 31.3161 216.1 32.6995C215.495 34.0829 214.63 35.2933 213.506 36.2444C212.382 37.1955 210.999 37.9736 209.443 38.4924C207.8 39.0111 205.984 39.2705 203.996 39.2705H189.47V3.64865H189.384ZM204.342 14.4563C204.342 12.8135 203.477 12.0354 201.661 12.0354H200.364V16.9636H201.661C203.477 16.9636 204.342 16.099 204.342 14.4563ZM201.661 30.7974C204.342 30.7974 205.725 29.7598 205.725 27.6848C205.725 25.6097 204.342 24.5722 201.661 24.5722H200.364V30.7974H201.661ZM219.991 3.64865H231.836V29.8463H241.606V39.1841H219.991V3.64865ZM243.335 3.64865H264.259V12.9864H254.662V16.9636H264.086V25.7826H254.662V29.8463H264.691V39.1841H243.335V3.64865Z" fill="#FC4349"/>
<path d="M5.30869 3.64865H17.3267V39.1841H5.30869V3.64865ZM12.0526 34.9475V7.88523H10.6693V34.9475H12.0526ZM21.0446 3.64865H30.3823L39.6337 17.3095L48.885 3.64865H58.3092V39.1841H46.8964V26.3879L39.6337 37.0225L32.3709 26.3879V39.1841H21.0446V3.64865ZM27.702 34.9475V10.4791L39.6337 27.8577L51.5652 10.4791V34.9475H52.9486V7.88523H51.5652L39.6337 25.4368L27.702 7.88523H26.3187V34.9475H27.702ZM61.9406 3.64865H71.3648L80.5296 17.3095L89.781 3.64865H99.2052V39.1841H87.7924V26.3879L80.5296 37.109L73.2669 26.4743V39.2705H61.9406V3.64865ZM68.598 34.9475V10.4791L80.5296 27.8577L92.3748 10.4791V34.9475H93.7581V7.88523H92.3748L80.5296 25.4368L68.598 7.88523H67.2147V34.9475H68.598ZM116.497 40.1351C114.249 40.1351 112.261 39.8758 110.445 39.2705C108.629 38.6653 107.073 37.8872 105.776 36.6767C104.479 35.5527 103.528 34.0829 102.837 32.3537C102.145 30.6244 101.799 28.5494 101.799 26.2149V3.64865H113.125V25.7826C113.125 26.9931 113.385 27.9442 113.904 28.6358C114.422 29.3275 115.287 29.5869 116.497 29.5869C117.708 29.5869 118.572 29.2411 119.091 28.6358C119.61 27.9442 119.869 26.9931 119.869 25.7826V3.64865H131.282V26.2149C131.282 28.5494 130.936 30.6244 130.245 32.3537C129.553 34.0829 128.515 35.5527 127.219 36.6767C125.922 37.8007 124.365 38.6653 122.55 39.2705C120.734 39.7893 118.745 40.1351 116.497 40.1351ZM116.497 33.737C111.137 33.737 108.543 31.1432 108.543 25.8691V7.88523H107.16V25.8691C107.16 28.8952 107.938 31.1432 109.58 32.6995C111.223 34.2558 113.558 35.0339 116.497 35.0339C119.523 35.0339 121.858 34.2558 123.501 32.6995C125.143 31.1432 125.922 28.8088 125.922 25.8691V7.88523H124.452V25.8691C124.452 31.0567 121.858 33.737 116.497 33.737ZM139.669 12.9864H133.098V3.64865H157.912V12.9864H151.341V39.1841H139.582V12.9864H139.669ZM146.24 34.9475V9.18215H153.848V7.88523H137.248V9.18215H144.857V34.9475H146.24ZM166.472 3.64865H175.031L188.519 39.1841H177.366L176.155 35.985H165.348L164.137 39.1841H152.984L166.472 3.64865ZM160.938 34.9475L161.976 32.2672H179.527L180.565 34.9475H182.035L171.746 7.88523H169.757L159.468 34.9475H160.938ZM170.708 9.18215L179.009 30.9703H162.408L170.708 9.18215ZM173.129 28.2035L170.708 21.9784L168.287 28.2035H173.129ZM189.384 3.64865H203.304C205.12 3.64865 206.676 3.82157 208.146 4.25388C209.616 4.68618 210.913 5.29141 211.95 6.06956C212.988 6.8477 213.852 7.88523 214.371 9.09569C214.976 10.3061 215.236 11.6895 215.236 13.2458C215.236 14.3698 215.063 15.3209 214.803 16.1855C214.544 16.9636 214.198 17.6553 213.939 18.1741C213.506 18.7793 213.074 19.3845 212.642 19.7304C213.42 20.2491 214.112 20.8544 214.803 21.6325C215.322 22.3242 215.841 23.1888 216.273 24.2263C216.706 25.2639 216.965 26.5608 216.965 28.0306C216.965 29.7598 216.706 31.3161 216.1 32.6995C215.495 34.0829 214.63 35.2933 213.506 36.2444C212.382 37.1955 210.999 37.9736 209.443 38.4924C207.8 39.0111 205.984 39.2705 203.996 39.2705H189.47V3.64865H189.384ZM202.439 34.9475C205.552 34.9475 207.887 34.2558 209.356 32.9589C210.826 31.5755 211.604 29.8463 211.604 27.5983C211.604 26.1285 211.258 25.0045 210.653 24.1399C210.048 23.2753 209.356 22.5836 208.665 22.0648C207.8 21.4596 206.763 21.1137 205.725 20.8544C206.59 20.595 207.368 20.2491 208.059 19.6439C208.665 19.2116 209.183 18.5199 209.702 17.7418C210.221 16.9636 210.394 15.9261 210.394 14.7156C210.394 12.4677 209.702 10.8249 208.232 9.61445C206.849 8.49046 204.86 7.88523 202.439 7.88523H194.744V34.9475H202.439ZM196.128 20.1627V9.18215H202.439C204.774 9.18215 206.417 9.70091 207.454 10.7384C208.492 11.776 209.01 13.0729 209.01 14.7156C209.01 16.3584 208.492 17.6553 207.454 18.6928C206.417 19.7304 204.774 20.2491 202.439 20.2491H196.128V20.1627ZM196.128 33.6506V21.4596H202.353C203.477 21.4596 204.515 21.5461 205.379 21.8054C206.33 22.0648 207.108 22.4107 207.887 22.843C208.578 23.3617 209.183 23.967 209.529 24.7451C209.962 25.5233 210.134 26.4743 210.134 27.5119C210.134 29.6734 209.443 31.2297 207.973 32.1807C206.503 33.1318 204.601 33.6506 202.267 33.6506H196.128ZM204.342 14.4563C204.342 12.8135 203.477 12.0354 201.661 12.0354H200.364V16.9636H201.661C203.477 16.9636 204.342 16.099 204.342 14.4563ZM201.661 30.7974C204.342 30.7974 205.725 29.7598 205.725 27.6848C205.725 25.6097 204.342 24.5722 201.661 24.5722H200.364V30.7974H201.661ZM219.991 3.64865H231.836V29.8463H241.606V39.1841H219.991V3.64865ZM238.667 34.9475V33.6506H226.735V7.88523H225.352V34.9475H238.667ZM243.335 3.64865H264.259V12.9864H254.662V16.9636H264.086V25.7826H254.662V29.8463H264.691V39.1841H243.335V3.64865ZM260.714 34.9475V33.6506H250.079V21.9784H260.195V20.6814H250.079V9.18215H260.714V7.88523H248.696V34.9475H260.714Z" fill="#2C3E50"/>
</svg>
