<svg  viewBox="20 16 50 50" fill="none" xmlns="http://www.w3.org/2000/svg"><path d="M23.8 18.4285L42.4 32.4285L39.0714 24.1428L23.8 18.4285ZM60.3286 50.6142L55.3286 58.2428L66.0286 61.1856L69.0857 50.7856L60.3286 50.6142ZM21.8143 50.7856L24.8572 61.1856L35.5286 58.2428L30.5572 50.6142L21.8143 50.7856Z" fill="#E27625" stroke="#E27625" stroke-width="0.25" stroke-linecap="round" stroke-linejoin="round"/><path d="M34.9578 37.7285L31.9863 42.2142L42.5578 42.6999L42.2149 31.3142L34.9578 37.7428V37.7285ZM55.9292 37.7428L48.5578 31.1714L48.3149 42.6999L58.8863 42.2142L55.9292 37.7428ZM35.5292 58.2428L41.9435 55.1571L36.4292 50.8714L35.5292 58.2428ZM48.9578 55.1428L55.3292 58.2428L54.4721 50.8571L48.9578 55.1428Z" fill="#E27625" stroke="#E27625" stroke-width="0.25" stroke-linecap="round" stroke-linejoin="round"/><path d="M55.3293 58.2429L48.9579 55.1572L49.4722 59.3001L49.415 61.0572L55.3293 58.2429ZM35.5293 58.2429L41.4722 61.0572L41.4293 59.3001L41.9436 55.1572L35.5293 58.2429Z" fill="#D5BFB2" stroke="#D5BFB2" stroke-width="0.25" stroke-linecap="round" stroke-linejoin="round"/><path d="M41.5709 48.1142L36.2852 46.5713L40.028 44.8571L41.5852 48.1142H41.5709ZM49.2994 48.1142L50.8709 44.8428L54.628 46.5571L49.2994 48.1285V48.1142Z" fill="#233447" stroke="#233447" stroke-width="0.25" stroke-linecap="round" stroke-linejoin="round"/><path d="M35.5281 58.2427L36.4567 50.6141L30.5566 50.7855L35.5281 58.2427ZM54.4281 50.6141L55.3281 58.2427L60.3281 50.7855L54.4281 50.6141ZM58.8995 42.2141L48.3281 42.6998L49.2995 48.1284L50.8709 44.8427L54.6281 46.557L58.8995 42.2141ZM36.2852 46.5713L40.0281 44.857L41.5852 48.1141L42.5709 42.6855L31.9995 42.2141L36.2852 46.5713Z" fill="#CC6228" stroke="#CC6228" stroke-width="0.25" stroke-linecap="round" stroke-linejoin="round"/><path d="M31.9999 42.2141L36.4284 50.857L36.2856 46.5713L31.9999 42.2141ZM54.6285 46.5713L54.457 50.857L58.8856 42.2141L54.6285 46.5713ZM42.5713 42.6998L41.5713 48.1284L42.8284 54.5284L43.1142 46.0855L42.5713 42.6998ZM48.3142 42.6998L47.7999 46.0713L48.057 54.5284L49.2999 48.1141L48.3142 42.6855V42.6998Z" fill="#E27525" stroke="#E27525" stroke-width="0.25" stroke-linecap="round" stroke-linejoin="round"/><path d="M49.2999 48.1144L48.057 54.5287L48.957 55.1571L54.457 50.8714L54.6284 46.5715L49.2999 48.1144ZM36.2856 46.5715L36.4284 50.8572L41.9427 55.143L42.8284 54.5287L41.5856 48.1144L36.2713 46.5715H36.2856Z" fill="#F5841F" stroke="#F5841F" stroke-width="0.25" stroke-linecap="round" stroke-linejoin="round"/><path d="M49.4293 61.0572L49.4722 59.3001L48.9864 58.9001H41.9007L41.4293 59.3001L41.4722 61.0572L35.5293 58.2429L37.615 59.9572L41.8293 62.8572H49.0436L53.2722 59.9429L55.3293 58.2429L49.415 61.0572H49.4293Z" fill="#C0AC9D" stroke="#C0AC9D" stroke-width="0.25" stroke-linecap="round" stroke-linejoin="round"/><path d="M48.9563 55.1429L48.0563 54.5286H42.8277L41.942 55.1571L41.4277 59.3L41.8992 58.9H48.9849L49.4706 59.3L48.9563 55.1571V55.1429Z" fill="#161616" stroke="#161616" stroke-width="0.25" stroke-linecap="round" stroke-linejoin="round"/><path d="M67.8849 33.2142L69.4563 25.5713L67.0849 18.4285L48.942 31.857L55.9277 37.7285L65.7849 40.5999L67.9563 38.0713L67.0134 37.3856L68.5134 36.0142L67.3706 35.1285L68.8706 33.9856L67.8706 33.2142H67.8849ZM21.4277 25.557L23.0277 33.2142L21.9992 33.9713L23.5277 35.1142L22.3849 36.0142L23.8706 37.3856L22.9277 38.0713L25.0992 40.5999L34.9563 37.7428L41.942 31.8428L23.7992 18.4285L21.4277 25.557Z" fill="#763E1A" stroke="#763E1A" stroke-width="0.25" stroke-linecap="round" stroke-linejoin="round"/><path d="M65.7857 40.6001L55.9286 37.743L58.9 42.2144L54.4714 50.8572L60.3286 50.7858H69.0857L65.7857 40.6001ZM34.9572 37.7287L25.1 40.6001L21.8143 50.7858H30.5715L36.4286 50.8572L32 42.2144L34.9714 37.7287H34.9572ZM48.3143 42.7001L48.9572 31.843L51.8143 24.1287H39.0714L41.9286 31.843L42.5714 42.7001L42.8143 46.1001V54.5287H48.0572L48.0857 46.1001L48.3143 42.7001Z" fill="#F5841F" stroke="#F5841F" stroke-width="0.25" stroke-linecap="round" stroke-linejoin="round"/><path d="M96.5465 31.5813L104.116 37.279L102.762 33.9069L96.5465 31.5813ZM111.413 44.6801L109.378 47.7848L113.733 48.9825L114.977 44.7499L111.413 44.6801ZM95.7384 44.7499L96.9768 48.9825L101.32 47.7848L99.2965 44.6801L95.7384 44.7499Z" fill="#E27625" stroke="#E27625" stroke-width="0.25" stroke-linecap="round" stroke-linejoin="round"/><path d="M101.086 39.4359L99.877 41.2615L104.179 41.4592L104.04 36.8255L101.086 39.4417V39.4359ZM109.621 39.4417L106.621 36.7673L106.522 41.4592L110.825 41.2615L109.621 39.4417ZM101.319 47.7848L103.929 46.529L101.685 44.7848L101.319 47.7848ZM106.784 46.5231L109.377 47.7848L109.028 44.779L106.784 46.5231Z" fill="#E27625" stroke="#E27625" stroke-width="0.25" stroke-linecap="round" stroke-linejoin="round"/><path d="M109.378 47.7849L106.785 46.5291L106.995 48.2151L106.971 48.9302L109.378 47.7849ZM101.32 47.7849L103.739 48.9302L103.721 48.2151L103.931 46.5291L101.32 47.7849Z" fill="#D5BFB2" stroke="#D5BFB2" stroke-width="0.25" stroke-linecap="round" stroke-linejoin="round"/><path d="M103.778 43.6629L101.627 43.035L103.15 42.3374L103.784 43.6629H103.778ZM106.923 43.6629L107.563 42.3315L109.092 43.0292L106.923 43.6688V43.6629Z" fill="#233447" stroke="#233447" stroke-width="0.25" stroke-linecap="round" stroke-linejoin="round"/><path d="M101.32 47.7847L101.698 44.6801L99.2969 44.7498L101.32 47.7847ZM109.012 44.6801L109.378 47.7847L111.413 44.7498L109.012 44.6801ZM110.832 41.2615L106.529 41.4591L106.925 43.6685L107.564 42.3312L109.093 43.0289L110.832 41.2615ZM101.628 43.0347L103.152 42.3371L103.785 43.6626L104.186 41.4533L99.8841 41.2615L101.628 43.0347Z" fill="#CC6228" stroke="#CC6228" stroke-width="0.25" stroke-linecap="round" stroke-linejoin="round"/><path d="M99.8828 41.2615L101.685 44.7789L101.627 43.0347L99.8828 41.2615ZM109.092 43.0347L109.022 44.7789L110.825 41.2615L109.092 43.0347ZM104.185 41.4591L103.778 43.6685L104.29 46.2731L104.406 42.8371L104.185 41.4591ZM106.522 41.4591L106.313 42.8312L106.418 46.2731L106.923 43.6626L106.522 41.4533V41.4591Z" fill="#E27525" stroke="#E27525" stroke-width="0.25" stroke-linecap="round" stroke-linejoin="round"/><path d="M106.925 43.6628L106.42 46.2733L106.786 46.5291L109.024 44.7849L109.094 43.0349L106.925 43.6628ZM101.629 43.0349L101.687 44.7791L103.931 46.5233L104.292 46.2733L103.786 43.6628L101.623 43.0349H101.629Z" fill="#F5841F" stroke="#F5841F" stroke-width="0.25" stroke-linecap="round" stroke-linejoin="round"/><path d="M106.977 48.9303L106.995 48.2151L106.797 48.0524H103.913L103.721 48.2151L103.739 48.9303L101.32 47.7849L102.169 48.4826L103.884 49.6628H106.82L108.541 48.4768L109.378 47.7849L106.971 48.9303H106.977Z" fill="#C0AC9D" stroke="#C0AC9D" stroke-width="0.25" stroke-linecap="round" stroke-linejoin="round"/><path d="M106.785 46.5232L106.419 46.2732H104.291L103.93 46.529L103.721 48.2151L103.913 48.0523H106.797L106.994 48.2151L106.785 46.529V46.5232Z" fill="#161616" stroke="#161616" stroke-width="0.25" stroke-linecap="round" stroke-linejoin="round"/><path d="M114.489 37.5987L115.129 34.4883L114.163 31.5813L106.78 37.0464L109.623 39.436L113.634 40.6046L114.518 39.5755L114.134 39.2964L114.745 38.7383L114.28 38.3778L114.89 37.9127L114.483 37.5987H114.489ZM95.582 34.4825L96.2332 37.5987L95.8146 37.9069L96.4367 38.372L95.9716 38.7383L96.5762 39.2964L96.1925 39.5755L97.0762 40.6046L101.088 39.4418L103.931 37.0406L96.5471 31.5813L95.582 34.4825Z" fill="#763E1A" stroke="#763E1A" stroke-width="0.25" stroke-linecap="round" stroke-linejoin="round"/><path d="M113.634 40.6048L109.622 39.442L110.831 41.2618L109.029 44.7793L111.413 44.7502H114.977L113.634 40.6048ZM101.087 39.4362L97.0756 40.6048L95.7384 44.7502H99.3024L101.686 44.7793L99.8838 41.2618L101.093 39.4362H101.087ZM106.523 41.4595L106.785 37.0409L107.948 33.9014H102.762L103.924 37.0409L104.186 41.4595L104.285 42.8432V46.2734H106.419L106.43 42.8432L106.523 41.4595Z" fill="#F5841F" stroke="#F5841F" stroke-width="0.25" stroke-linecap="round" stroke-linejoin="round"/></svg>