<svg width="218" height="55" viewBox="0 0 218 55" fill="none" xmlns="http://www.w3.org/2000/svg">
<path d="M32.1399 10.6186L27.7422 14.9763C24.7837 10.4986 20.0661 6.34076 18.307 4.54169C15.7483 7.26029 6.51306 15.0163 6.51306 21.5729C6.51306 28.8092 11.3106 32.8871 16.308 33.7267C16.4679 44.5211 24.5838 49.9584 32.1399 49.9584C39.736 49.9584 47.9718 44.4412 47.9718 33.4468C47.9718 24.6913 35.5781 14.2567 32.1399 10.6186Z" fill="#B81D32"/>
<path d="M30.1411 21.5727C29.9722 19.1932 29.1413 16.9083 27.7424 14.9761C22.8249 19.8536 16.3082 27.0899 16.3082 33.4466V33.7264C18.0515 34.0498 19.8454 33.9732 21.5547 33.5024C23.264 33.0317 24.8442 32.179 26.1761 31.0088C27.508 29.8386 28.5569 28.3812 29.2438 26.7467C29.9306 25.1122 30.2374 23.343 30.1411 21.5727Z" fill="#8F1F1A"/>
<path d="M43.973 19.7338V9.41907H45.3722L50.7695 17.4949V9.41907H52.0888V19.7338H50.6895L45.2523 11.6179V19.7338H43.973ZM58.8053 18.8142C58.0602 19.5176 57.0713 19.9045 56.0468 19.8937C55.2072 19.8937 54.6075 19.6938 54.1677 19.294C53.728 18.8942 53.4881 18.3745 53.4881 17.7748C53.4881 17.415 53.568 17.0951 53.728 16.7753C53.8879 16.4555 54.1277 16.2156 54.3676 16.0557C54.6425 15.8591 54.9559 15.7229 55.2872 15.6559L56.4066 15.456C57.446 15.336 58.1657 15.1761 58.6454 15.0162V14.6964C58.6454 14.1766 58.5255 13.8168 58.2856 13.6169C57.9658 13.3371 57.486 13.1771 56.8463 13.1771C56.2467 13.1771 55.8069 13.2971 55.527 13.497C55.2472 13.6969 55.0473 14.0567 54.8874 14.6164L53.648 14.4565C53.7679 13.9368 53.9278 13.497 54.2077 13.1771C54.4476 12.8573 54.8474 12.6174 55.3271 12.4175C56.3757 12.0651 57.5085 12.0511 58.5655 12.3776C58.9653 12.5375 59.2451 12.6974 59.445 12.9373C59.6482 13.1934 59.7855 13.4954 59.8448 13.8168L59.9248 14.9762V16.6554C59.9248 17.8148 59.9647 18.5744 60.0047 18.8942C60.0447 19.214 60.1646 19.4939 60.3246 19.7738H59.0052L58.8053 18.8142ZM58.7254 15.9757C58.057 16.2278 57.3577 16.3891 56.6465 16.4555C56.2675 16.5056 55.8932 16.5858 55.527 16.6953C55.3271 16.7753 55.1272 16.9352 55.0473 17.0951C54.9273 17.295 54.8874 17.4949 54.8874 17.6948C54.8874 18.0147 55.0073 18.2945 55.2872 18.5344C55.527 18.7743 55.9268 18.8542 56.4066 18.8542C56.8863 18.8542 57.3261 18.7343 57.7259 18.5344C58.0857 18.3345 58.3656 18.0147 58.5655 17.6548C58.6854 17.375 58.7654 16.9352 58.7654 16.3755V15.9757H58.7254ZM64.2825 18.5744L64.4824 19.6938L63.5229 19.8137C63.0831 19.8137 62.7233 19.7338 62.4435 19.6138C62.2036 19.4539 62.0037 19.294 61.9237 19.0541C61.7783 18.5754 61.7241 18.0736 61.7638 17.5749V13.2571H60.8443V12.2576H61.7638V10.4186L63.0032 9.65895V12.2576H64.2825V13.2571H63.0032V17.6149C63.0032 17.9747 63.0432 18.2146 63.0831 18.2945L63.283 18.5344C63.403 18.6144 63.5229 18.6144 63.7228 18.6144C63.8428 18.6543 64.0427 18.6144 64.2825 18.5744ZM65.242 10.8583V9.41907H66.5214V10.8583H65.242ZM65.242 19.7338V12.2576H66.5214V19.7338H65.242ZM67.6808 15.9757C67.6808 14.5764 68.0806 13.5769 68.8402 12.8973C69.495 12.3343 70.3358 12.0351 71.199 12.0577C72.2384 12.0577 73.078 12.3776 73.7177 13.0572C74.3574 13.7369 74.6772 14.6564 74.6772 15.8558C74.6772 16.8153 74.5173 17.5749 74.2374 18.1346C73.9538 18.6698 73.524 19.1135 72.9981 19.4139C72.4484 19.7186 71.8272 19.8704 71.199 19.8537C70.1595 19.8537 69.3199 19.5339 68.6803 18.8542C68.0406 18.1746 67.6808 17.255 67.6808 15.9757ZM69.0001 15.9757C69.0001 16.9352 69.2 17.6548 69.6398 18.1346C69.8299 18.3629 70.0685 18.5459 70.3382 18.6704C70.6079 18.7949 70.9019 18.8577 71.199 18.8542C71.8386 18.8542 72.3584 18.6144 72.7582 18.1346C73.158 17.6548 73.3978 16.9352 73.3978 15.9357C73.3978 15.0162 73.1979 14.2966 72.7582 13.8568C72.5681 13.6285 72.3295 13.4455 72.0598 13.321C71.7901 13.1965 71.496 13.1337 71.199 13.1372C70.5593 13.1372 70.0396 13.377 69.6398 13.8568C69.2 14.3365 69.0001 15.0162 69.0001 15.9757ZM75.8766 19.7338V12.2576H76.996V13.3371C77.2468 12.9426 77.5965 12.6207 78.0104 12.4033C78.4242 12.1859 78.8877 12.0805 79.3548 12.0977C79.7946 12.0977 80.2343 12.1777 80.5942 12.3376C80.9263 12.4717 81.2162 12.6927 81.4337 12.9772C81.6303 13.2522 81.7665 13.5655 81.8335 13.8968L81.9135 15.1361V19.7338H80.6341V15.1761C80.6341 14.6564 80.5942 14.2566 80.4742 14.0167C80.3943 13.7768 80.1944 13.5769 79.9545 13.417C79.6908 13.2534 79.3852 13.1701 79.0749 13.1771C78.5552 13.1771 78.0754 13.3371 77.6756 13.6969C77.2759 14.0567 77.076 14.6964 77.076 15.6559V19.7338H75.8766ZM88.3901 18.8142C87.645 19.5176 86.6561 19.9045 85.6316 19.8937C84.792 19.8937 84.1923 19.6938 83.7525 19.294C83.3128 18.8942 83.0729 18.3745 83.0729 17.7748C83.0729 17.415 83.1528 17.0951 83.3128 16.7753C83.4727 16.4555 83.7125 16.2156 83.9524 16.0557C84.2273 15.8591 84.5407 15.7229 84.872 15.6559L85.9914 15.456C87.0308 15.336 87.7505 15.1761 88.2302 15.0162V14.6964C88.2302 14.1766 88.1103 13.8168 87.8704 13.6169C87.5506 13.3371 87.0708 13.1771 86.4311 13.1771C85.8315 13.1771 85.3917 13.2971 85.1118 13.497C84.832 13.6969 84.6321 14.0567 84.4722 14.6164L83.2328 14.4565C83.3527 13.9368 83.5126 13.497 83.7925 13.1771C84.0324 12.8573 84.4322 12.6174 84.9119 12.4175C85.9605 12.0651 87.0933 12.0511 88.1503 12.3776C88.5501 12.5375 88.8299 12.6974 89.0298 12.9373C89.233 13.1934 89.3703 13.4954 89.4296 13.8168L89.5096 14.9762V16.6554C89.5096 17.8148 89.5495 18.5744 89.5895 18.8942C89.6295 19.214 89.7494 19.4939 89.9094 19.7738H88.59L88.3901 18.8142ZM88.2702 15.9757C87.6018 16.2278 86.9026 16.3891 86.1913 16.4555C85.8124 16.5056 85.438 16.5858 85.0718 16.6953C84.872 16.7753 84.6721 16.9352 84.5921 17.0951C84.4722 17.295 84.4322 17.4949 84.4322 17.6948C84.4322 18.0147 84.5521 18.2945 84.832 18.5344C85.0718 18.7743 85.4716 18.8542 85.9514 18.8542C86.4311 18.8542 86.8709 18.7343 87.2707 18.5344C87.6305 18.3345 87.9104 18.0147 88.1103 17.6548C88.2302 17.375 88.3102 16.9352 88.3102 16.3755V15.9757H88.2702ZM91.1487 19.7338V9.41907H92.4281V19.7338H91.1487ZM98.1851 19.7338V9.41907H102.063C102.863 9.41907 103.462 9.53901 103.942 9.73891C104.407 9.9333 104.798 10.269 105.062 10.6984C105.313 11.0837 105.45 11.5322 105.457 11.992C105.464 12.4518 105.341 12.9042 105.102 13.2971C104.862 13.6969 104.502 14.0167 104.022 14.2566C104.662 14.4565 105.142 14.7363 105.461 15.1761C105.799 15.6259 105.981 16.173 105.981 16.7353C105.976 17.2064 105.867 17.6706 105.661 18.0946C105.489 18.4736 105.229 18.8058 104.902 19.0632C104.575 19.3206 104.191 19.4958 103.782 19.5739C103.342 19.6938 102.783 19.7338 102.103 19.7338H98.1851ZM99.5444 13.7369H101.783C102.383 13.7369 102.823 13.6969 103.103 13.6169C103.462 13.497 103.702 13.3371 103.902 13.0972C104.062 12.8573 104.182 12.5775 104.182 12.2176C104.182 11.8578 104.102 11.578 103.942 11.2981C103.782 11.0183 103.542 10.8583 103.223 10.7784C102.903 10.6984 102.383 10.6185 101.663 10.6185H99.5844V13.7369H99.5444ZM99.5444 18.4944H102.103L103.023 18.4544C103.304 18.4093 103.574 18.3146 103.822 18.1746C104.022 18.0546 104.222 17.8547 104.342 17.6149C104.475 17.3407 104.543 17.0399 104.542 16.7353C104.562 16.3803 104.464 16.0286 104.262 15.7358C104.061 15.4612 103.782 15.2524 103.462 15.1361C103.103 15.0162 102.623 14.9762 101.943 14.9762H99.5444V18.4944ZM107.38 19.7338V9.41907H108.66V19.7338H107.38ZM109.859 15.9757C109.859 14.5764 110.259 13.5769 111.019 12.8973C111.673 12.3343 112.514 12.0351 113.377 12.0577C114.417 12.0577 115.256 12.3776 115.896 13.0572C116.536 13.7369 116.856 14.6564 116.856 15.8558C116.856 16.8153 116.696 17.5749 116.416 18.1346C116.132 18.6698 115.702 19.1135 115.176 19.4139C114.627 19.7186 114.006 19.8704 113.377 19.8537C112.338 19.8537 111.498 19.5339 110.859 18.8542C110.219 18.1746 109.859 17.255 109.859 15.9757ZM111.138 15.9757C111.138 16.9352 111.338 17.6548 111.778 18.1346C111.968 18.3629 112.207 18.5459 112.477 18.6704C112.746 18.7949 113.04 18.8577 113.337 18.8542C113.977 18.8542 114.497 18.6144 114.897 18.1346C115.296 17.6548 115.536 16.9352 115.536 15.9357C115.536 15.0162 115.336 14.2966 114.897 13.8568C114.706 13.6285 114.468 13.4455 114.198 13.321C113.928 13.1965 113.634 13.1337 113.337 13.1372C112.698 13.1372 112.178 13.377 111.778 13.8568C111.338 14.3365 111.138 15.0162 111.138 15.9757ZM117.615 15.9757C117.615 14.5764 118.015 13.5769 118.775 12.8973C119.429 12.3343 120.27 12.0351 121.133 12.0577C122.173 12.0577 123.012 12.3776 123.652 13.0572C124.292 13.7369 124.612 14.6564 124.612 15.8558C124.612 16.8153 124.452 17.5749 124.172 18.1346C123.888 18.6698 123.458 19.1135 122.932 19.4139C122.383 19.7186 121.762 19.8704 121.133 19.8537C120.094 19.8537 119.254 19.5339 118.615 18.8542C117.935 18.2146 117.615 17.255 117.615 15.9757ZM118.894 15.9757C118.894 16.9352 119.094 17.6548 119.534 18.1346C119.724 18.3629 119.963 18.5459 120.233 18.6704C120.502 18.7949 120.796 18.8577 121.093 18.8542C121.733 18.8542 122.253 18.6144 122.653 18.1346C123.052 17.6548 123.292 16.9352 123.292 15.9357C123.292 15.0162 123.092 14.2966 122.653 13.8568C122.462 13.6285 122.224 13.4455 121.954 13.321C121.684 13.1965 121.39 13.1337 121.093 13.1372C120.454 13.1372 119.934 13.377 119.534 13.8568C119.094 14.3365 118.894 15.0162 118.894 15.9757ZM130.648 19.7338V18.7743C130.437 19.1329 130.132 19.4269 129.765 19.6242C129.399 19.8216 128.985 19.9148 128.569 19.8937C127.97 19.8937 127.41 19.7338 126.93 19.4139C126.451 19.0941 126.051 18.6144 125.771 18.0546C125.49 17.4124 125.354 16.7164 125.371 16.0157C125.371 15.2561 125.491 14.5764 125.731 13.9767C125.955 13.4084 126.345 12.9207 126.85 12.5775C127.349 12.2522 127.934 12.085 128.53 12.0977C128.969 12.0977 129.369 12.1777 129.729 12.3776C130.089 12.5775 130.369 12.8173 130.568 13.1372V9.45905H131.808V19.7338H130.648ZM126.65 16.0157C126.65 16.9752 126.85 17.6948 127.25 18.1746C127.65 18.6543 128.13 18.8942 128.689 18.8942C129.249 18.8942 129.729 18.6543 130.089 18.2146C130.489 17.7748 130.688 17.0552 130.688 16.1356C130.688 15.0962 130.489 14.3765 130.089 13.8968C129.689 13.417 129.209 13.1771 128.649 13.1771C128.09 13.1771 127.61 13.417 127.25 13.8568C126.85 14.2966 126.65 15.0162 126.65 16.0157ZM143.962 16.0956L145.321 16.4555C145.139 17.4466 144.607 18.3392 143.822 18.9705C143.036 19.6017 142.05 19.9294 141.043 19.8937C139.924 19.8937 139.044 19.6538 138.324 19.214C137.61 18.7335 137.053 18.0518 136.725 17.255C136.35 16.3757 136.159 15.4285 136.166 14.4723C136.173 13.5162 136.377 12.5717 136.765 11.6979C137.165 10.8983 137.765 10.2986 138.524 9.85885C139.284 9.45905 140.124 9.21918 141.003 9.21918C142.043 9.21918 142.882 9.49903 143.602 10.0188C144.321 10.5385 144.801 11.2981 145.081 12.2176L143.722 12.5375C143.546 11.8997 143.184 11.3289 142.682 10.8983C142.186 10.5324 141.579 10.3488 140.963 10.3786C140.256 10.3647 139.561 10.5594 138.964 10.9383C138.431 11.3045 138.037 11.8397 137.845 12.4575C137.395 13.8391 137.423 15.3317 137.925 16.6953C138.139 17.3135 138.564 17.8369 139.124 18.1746C139.693 18.5169 140.351 18.6809 141.014 18.6453C141.677 18.6096 142.313 18.376 142.842 17.9747C143.402 17.6149 143.762 16.9752 143.962 16.0956ZM146.44 19.7338V9.41907H147.72V19.7338H146.44ZM148.919 15.9757C148.919 14.5764 149.319 13.5769 150.078 12.8973C150.733 12.3343 151.574 12.0351 152.437 12.0577C153.477 12.0577 154.316 12.3776 154.956 13.0572C155.596 13.7369 155.915 14.6564 155.915 15.8558C155.915 16.8153 155.756 17.5749 155.476 18.1346C155.192 18.6698 154.762 19.1135 154.236 19.4139C153.687 19.7186 153.065 19.8704 152.437 19.8537C151.398 19.8537 150.558 19.5339 149.919 18.8542C149.239 18.2146 148.919 17.255 148.919 15.9757ZM150.238 15.9757C150.238 16.9352 150.438 17.6548 150.878 18.1346C151.068 18.3629 151.307 18.5459 151.576 18.6704C151.846 18.7949 152.14 18.8577 152.437 18.8542C153.077 18.8542 153.597 18.6144 153.996 18.1346C154.396 17.6548 154.636 16.9352 154.636 15.9357C154.636 15.0162 154.436 14.2966 153.996 13.8568C153.806 13.6285 153.568 13.4455 153.298 13.321C153.028 13.1965 152.734 13.1337 152.437 13.1372C151.798 13.1372 151.278 13.377 150.878 13.8568C150.438 14.3365 150.238 15.0162 150.238 15.9757ZM159.714 18.5744L159.913 19.6938L158.954 19.8137C158.514 19.8137 158.154 19.7338 157.874 19.6138C157.635 19.4539 157.435 19.294 157.355 19.0541C157.209 18.5754 157.155 18.0736 157.195 17.5749V13.2571H156.275V12.2576H157.195V10.4186L158.434 9.65895V12.2576H159.714V13.2571H158.434V17.6149C158.434 17.9747 158.474 18.2146 158.514 18.2945C158.554 18.4145 158.634 18.4944 158.714 18.5344C158.834 18.6144 158.954 18.6144 159.154 18.6144C159.314 18.6543 159.474 18.6144 159.714 18.5744ZM163.711 19.7338L167.669 9.41907H169.149L173.346 19.7338H171.787L170.588 16.6154H166.27L165.151 19.7338H163.711ZM166.67 15.496H170.148L169.069 12.6574L168.349 10.5385C168.229 11.2182 168.029 11.8578 167.789 12.4975L166.67 15.496ZM174.146 19.7338V9.41907H175.425V19.7338H174.146ZM176.945 19.7338V9.41907H178.224V19.7338H176.945ZM179.783 10.8583V9.41907H181.063V10.8583H179.783ZM179.783 19.7338V12.2576H181.063V19.7338H179.783ZM187.539 18.8142C186.794 19.5176 185.805 19.9045 184.781 19.8937C183.941 19.8937 183.341 19.6938 182.902 19.294C182.462 18.8942 182.222 18.3745 182.222 17.7748C182.222 17.415 182.302 17.0951 182.462 16.7753C182.622 16.4555 182.862 16.2156 183.101 16.0557C183.376 15.8591 183.69 15.7229 184.021 15.6559L185.14 15.456C186.18 15.336 186.9 15.1761 187.379 15.0162V14.6964C187.379 14.1766 187.259 13.8168 187.019 13.6169C186.7 13.3371 186.22 13.1771 185.58 13.1771C184.981 13.1771 184.541 13.2971 184.261 13.497C183.981 13.6969 183.781 14.0567 183.621 14.6164L182.382 14.4565C182.502 13.9368 182.662 13.497 182.942 13.1771C183.181 12.8573 183.581 12.6174 184.061 12.4175C185.11 12.0651 186.242 12.0511 187.299 12.3776C187.699 12.5375 187.979 12.6974 188.179 12.9373C188.382 13.1934 188.519 13.4954 188.579 13.8168L188.659 14.9762V16.6554C188.659 17.8148 188.699 18.5744 188.739 18.8942C188.779 19.214 188.899 19.4939 189.058 19.7738H187.739L187.539 18.8142ZM187.419 15.9757C186.751 16.2278 186.052 16.3891 185.34 16.4555C184.961 16.5056 184.587 16.5858 184.221 16.6953C184.021 16.7753 183.821 16.9352 183.741 17.0951C183.621 17.295 183.581 17.4949 183.581 17.6948C183.581 18.0147 183.701 18.2945 183.981 18.5344C184.221 18.7743 184.621 18.8542 185.1 18.8542C185.58 18.8542 186.02 18.7343 186.42 18.5344C186.78 18.3345 187.059 18.0147 187.259 17.6548C187.379 17.375 187.459 16.9352 187.459 16.3755V15.9757H187.419ZM190.298 19.7338V12.2576H191.417V13.3371C191.668 12.9426 192.018 12.6207 192.432 12.4033C192.845 12.1859 193.309 12.0805 193.776 12.0977C194.216 12.0977 194.656 12.1777 195.015 12.3376C195.347 12.4717 195.637 12.6927 195.855 12.9772C196.051 13.2522 196.188 13.5655 196.255 13.8968L196.335 15.1361V19.7338H195.055V15.1761C195.055 14.6564 195.015 14.2566 194.895 14.0167C194.815 13.7768 194.616 13.5769 194.376 13.417C194.112 13.2534 193.806 13.1701 193.496 13.1771C192.976 13.1771 192.497 13.3371 192.097 13.6969C191.697 14.0567 191.497 14.6964 191.497 15.6559V19.7338H190.298ZM202.811 16.9752L204.051 17.1351C203.962 17.9066 203.592 18.6182 203.011 19.1341C202.431 19.6218 201.69 19.8781 200.932 19.8537C200.472 19.8757 200.011 19.7978 199.584 19.6253C199.156 19.4528 198.77 19.1897 198.454 18.8542C197.814 18.1746 197.534 17.2151 197.534 15.9757C197.534 15.1761 197.654 14.4565 197.934 13.8568C198.214 13.2571 198.614 12.8173 199.133 12.4975C199.683 12.1929 200.304 12.041 200.932 12.0577C201.732 12.0577 202.412 12.2576 202.931 12.6574C203.451 13.0572 203.771 13.6569 203.931 14.4165L202.691 14.6164C202.571 14.0967 202.372 13.7369 202.052 13.497C201.748 13.2488 201.364 13.1207 200.972 13.1372C200.333 13.1372 199.813 13.377 199.413 13.8168C199.013 14.2566 198.813 15.0162 198.813 15.9757C198.758 16.7498 198.954 17.5212 199.373 18.1746C199.773 18.6144 200.253 18.8542 200.892 18.8542C201.372 18.8542 201.812 18.6943 202.132 18.4145C202.531 18.0946 202.731 17.6149 202.811 16.9752ZM210.128 17.335L211.447 17.4949C211.283 18.2008 210.871 18.8247 210.288 19.254C209.674 19.7006 208.927 19.926 208.169 19.8937C207.089 19.8937 206.21 19.5739 205.57 18.8942C204.887 18.1125 204.542 17.0916 204.61 16.0557C204.61 14.8163 204.93 13.8168 205.57 13.1372C205.892 12.7955 206.283 12.5262 206.718 12.347C207.152 12.1678 207.619 12.0828 208.089 12.0977C208.543 12.0815 208.995 12.1622 209.416 12.3346C209.836 12.5069 210.215 12.7669 210.527 13.0972C211.167 13.7768 211.487 14.7363 211.487 15.9757V16.2955H205.93C205.97 17.1351 206.21 17.7348 206.609 18.1746C207.009 18.6144 207.529 18.8142 208.169 18.8142C208.648 18.8142 209.048 18.6943 209.368 18.4544C209.744 18.1809 210.012 17.7851 210.128 17.335ZM205.97 15.2561H210.128C210.131 14.7488 209.962 14.2554 209.648 13.8568C209.462 13.624 209.224 13.4378 208.953 13.3128C208.683 13.1879 208.387 13.1278 208.089 13.1372C207.814 13.1302 207.541 13.1798 207.287 13.283C207.032 13.3861 206.802 13.5406 206.609 13.7369C206.25 14.0967 206.05 14.6164 205.97 15.2561Z" fill="#272525"/>
<path d="M63.9625 22.4522H190.697V23.4917H63.9625V22.4522Z" fill="#6D6E70"/>
<path d="M58.4856 33.0071C58.5015 33.4301 58.4153 33.8507 58.2344 34.2334C58.0534 34.6161 57.7831 34.9497 57.4462 35.2059C57.1263 35.4458 56.7665 35.6457 56.3667 35.7657C55.3964 36.0487 54.3618 36.0208 53.4082 35.6857L52.8885 35.4458L52.5687 35.2459C52.4933 35.1721 52.4502 35.0715 52.4487 34.9661L52.4088 34.4463V34.0865L52.4487 33.8466L52.5287 33.7267L52.6486 33.6867L52.9285 33.8067L53.4082 34.0865L54.0879 34.3664C54.5964 34.5082 55.132 34.5219 55.6471 34.4063C55.847 34.3664 55.9669 34.2864 56.1268 34.1665C56.2468 34.0465 56.3667 33.9266 56.4067 33.8067L56.5266 33.3269C56.5266 33.127 56.4867 32.9271 56.3667 32.7672L55.9269 32.3674L55.2873 32.0476L54.5676 31.7277L53.848 31.3279L53.2083 30.8082C53.0084 30.6083 52.8885 30.3684 52.7686 30.0886C52.6486 29.8087 52.6086 29.4889 52.6086 29.0891C52.6086 28.6493 52.6886 28.2495 52.8485 27.8897C53.0167 27.5575 53.2532 27.2646 53.5426 27.0303C53.832 26.796 54.1677 26.6257 54.5277 26.5304C54.9275 26.4105 55.3273 26.3705 55.727 26.3705L56.4067 26.4105C56.7964 26.5049 57.1831 26.6115 57.5661 26.7303C57.726 26.8103 57.806 26.8502 57.846 26.9302L57.9259 27.0501L57.9659 27.1701L58.0059 27.37V28.0496L57.9659 28.2895C57.9659 28.3695 57.9259 28.4094 57.8859 28.4094L57.766 28.4494L57.5261 28.3295L57.0863 28.0896L56.4867 27.8897C56.2468 27.8097 56.0069 27.8097 55.767 27.8097L55.2073 27.8897L54.8075 28.0896C54.6876 28.1696 54.6076 28.2895 54.5676 28.4094C54.5184 28.5372 54.4913 28.6724 54.4877 28.8092C54.4877 29.0091 54.5277 29.209 54.6476 29.329L55.0874 29.7288L55.727 30.0486L56.4467 30.3684L57.1663 30.7682L57.806 31.288C58.0059 31.4878 58.1258 31.7277 58.2457 32.0076C58.4456 32.2874 58.4856 32.6073 58.4856 33.0071ZM63.7629 34.9261L63.7229 35.4058L63.603 35.6457L63.4031 35.7657L63.1232 35.8456L62.7634 35.9256L62.3636 35.9655C62.0038 35.9655 61.684 35.9256 61.4441 35.8456C61.1643 35.7657 60.9644 35.6057 60.8044 35.4058C60.6445 35.2059 60.4846 34.9661 60.4046 34.6862C60.3247 34.4064 60.2847 34.0465 60.2847 33.6467V30.3684H59.5251C59.4451 30.3684 59.3652 30.3284 59.3252 30.2085L59.2452 29.6488V29.289L59.2852 29.0491L59.3652 28.9292L59.4851 28.8892H60.2447V27.4499L60.2847 27.33L60.4446 27.25L60.7245 27.21H61.604L61.8839 27.25L62.0438 27.33L62.0838 27.4499V28.8892H63.4831L63.603 28.9292L63.683 29.0491L63.7229 29.289V29.6488L63.643 30.2085C63.603 30.3284 63.523 30.3684 63.4431 30.3684H62.0838V33.4069C62.0838 33.7667 62.1238 34.0066 62.2437 34.2065C62.3636 34.3664 62.5635 34.4863 62.8434 34.4863L63.0833 34.4463L63.2832 34.4063L63.4431 34.3664L63.563 34.3264L63.643 34.3664L63.7229 34.4863L63.7629 34.6862V34.9261ZM71.7188 32.2874C71.7188 32.8472 71.6389 33.3269 71.5189 33.8067C71.3793 34.2294 71.1624 34.6225 70.8793 34.9661C70.5994 35.2859 70.1996 35.5258 69.7598 35.7257C68.782 36.0894 67.7084 36.1036 66.7214 35.7657C66.3284 35.6198 65.9731 35.3875 65.6819 35.086C65.3992 34.7571 65.1821 34.3771 65.0423 33.9666C64.9223 33.5268 64.8424 33.0071 64.8424 32.4474C64.8424 31.8876 64.9223 31.4079 65.0822 30.9281C65.2217 30.4952 65.4554 30.0986 65.7665 29.7668C66.0776 29.435 66.4583 29.1762 66.8813 29.0091C67.8711 28.6358 68.9606 28.6216 69.9597 28.9691C70.3528 29.115 70.708 29.3472 70.9992 29.6488C71.2791 29.9686 71.479 30.3284 71.5989 30.7682C71.6389 31.208 71.7188 31.6877 71.7188 32.2874ZM69.8398 32.3274L69.7598 31.4479C69.7199 31.168 69.6399 30.9681 69.52 30.7682C69.4 30.5683 69.2401 30.4084 69.0402 30.2885C68.8403 30.1685 68.6004 30.1285 68.2806 30.1285C68.0007 30.1285 67.7609 30.1685 67.561 30.2885C67.3611 30.3684 67.2012 30.5283 67.0812 30.7282C66.9613 30.9281 66.8413 31.128 66.8014 31.4079C66.7214 31.6877 66.7214 31.9676 66.7214 32.3274L66.8014 33.207C66.8413 33.4868 66.9213 33.6867 67.0412 33.8866C67.1612 34.0865 67.3211 34.2464 67.521 34.3264C67.7209 34.4463 67.9608 34.4863 68.2806 34.4863C68.5605 34.4863 68.8003 34.4463 69.0002 34.3264C69.2001 34.2464 69.36 34.0865 69.48 33.8866C69.5999 33.6867 69.7199 33.4868 69.7598 33.207L69.8398 32.3274ZM79.7547 32.2475C79.7524 32.7734 79.6853 33.2971 79.5548 33.8067C79.4386 34.2162 79.2635 34.6068 79.0351 34.9661C78.7952 35.2859 78.5153 35.5258 78.1555 35.7257C77.7957 35.8856 77.3959 35.9655 76.9561 35.9655L76.4364 35.9256L75.9966 35.7657L75.5569 35.4858L75.1171 35.086V38.1244L75.0771 38.2444L74.9172 38.3243L74.6373 38.4043L74.1976 38.4443L73.7578 38.4043L73.4779 38.3243L73.318 38.2444L73.278 38.1244V29.1291L73.318 29.0091L73.4379 28.9292L73.6778 28.8892H74.3975L74.6373 28.9292L74.7573 29.0091L74.7973 29.1291V29.8887L75.357 29.3689C75.5569 29.209 75.7168 29.0891 75.9167 29.0091L76.5164 28.7692L77.156 28.6893C77.5514 28.6704 77.9447 28.7566 78.2958 28.9392C78.647 29.1218 78.9434 29.3943 79.155 29.7288C79.3549 30.0486 79.5148 30.4084 79.5948 30.8482C79.6747 31.288 79.7547 31.7677 79.7547 32.2475ZM77.8357 32.3674L77.7557 31.5678L77.5558 30.8882C77.4673 30.6957 77.3293 30.5302 77.156 30.4084C76.9961 30.2885 76.7962 30.2485 76.5563 30.2485L76.1965 30.2885L75.8367 30.4484L75.4769 30.7682L75.0771 31.248V33.3669C75.2859 33.6478 75.5275 33.9028 75.7967 34.1265C76.0366 34.2864 76.2765 34.4063 76.5164 34.4063C76.7562 34.4063 76.9561 34.3264 77.1161 34.2065C77.2894 34.0846 77.4273 33.9191 77.5159 33.7267C77.6358 33.5268 77.7157 33.3269 77.7557 33.047C77.8357 32.8472 77.8357 32.6073 77.8357 32.3674ZM89.9495 26.4904V26.8902L89.9095 27.1301L89.8295 27.29L89.7096 27.33H87.1509V35.5258L87.1109 35.6857L86.951 35.8056L86.6312 35.8856L86.1514 35.9256L85.6717 35.8856L85.3518 35.8056L85.1919 35.6857L85.1519 35.5258V27.33H82.4733L82.3534 27.29L82.2734 27.1301L82.2334 26.8902V26.0906L82.2734 25.8108L82.3534 25.6508L82.4733 25.6109H89.6296L89.7496 25.6508L89.8295 25.8108L89.8695 26.0906C89.9495 26.2106 89.9495 26.3305 89.9495 26.4904ZM97.1458 35.5658L97.1058 35.6857L96.9459 35.7657L96.666 35.8056H95.7865L95.5066 35.7657L95.3467 35.6857L95.3067 35.5658V31.8876L95.2268 31.168L95.0269 30.7282C94.9469 30.6083 94.827 30.4884 94.707 30.4484C94.5871 30.3684 94.4272 30.3284 94.2273 30.3284C93.9874 30.3284 93.7475 30.4084 93.5076 30.5683C93.2678 30.7282 93.0279 30.9681 92.788 31.288V35.5658L92.748 35.6857L92.5881 35.7657L92.3083 35.8056H91.4287L91.1488 35.7657L90.9889 35.6857L90.949 35.5658V26.0506L90.9889 25.9307L91.1488 25.8507L91.4287 25.7708L91.8685 25.7308L92.3083 25.7708L92.5881 25.8507L92.748 25.9307L92.788 26.0506V29.6088C93.1078 29.289 93.4277 29.0891 93.7475 28.9292C94.0673 28.7692 94.4272 28.6893 94.747 28.6893C95.1868 28.6893 95.5466 28.7692 95.8664 28.8892C96.1863 29.0491 96.4261 29.249 96.5861 29.4889C96.786 29.7288 96.9059 30.0486 96.9859 30.3684C97.0658 30.6883 97.1058 31.128 97.1058 31.5678V35.5658H97.1458ZM105.022 32.1275C105.022 32.3674 104.982 32.5273 104.862 32.6073C104.782 32.7272 104.622 32.7672 104.462 32.7672H100.544L100.624 33.5268C100.684 33.7402 100.796 33.9356 100.95 34.0958C101.103 34.2561 101.293 34.3764 101.504 34.4463C101.743 34.5263 101.983 34.5663 102.303 34.5663C102.805 34.5611 103.304 34.4802 103.782 34.3264L104.222 34.1665L104.502 34.0865L104.622 34.1265L104.702 34.2065L104.742 34.4063V34.9661L104.702 35.166L104.662 35.2859L104.582 35.4058L104.342 35.5258L103.822 35.6857L103.063 35.8456C102.263 35.9678 101.447 35.927 100.664 35.7257C100.224 35.5658 99.8644 35.3659 99.5845 35.086C99.2792 34.7736 99.059 34.3882 98.9448 33.9666C98.7849 33.5268 98.7449 33.0071 98.7449 32.4074C98.7449 31.8477 98.8249 31.3279 98.9848 30.8482C99.1245 30.4255 99.3414 30.0323 99.6245 29.6888C99.9043 29.3689 100.264 29.1291 100.664 28.9691C101.064 28.8092 101.544 28.7293 102.023 28.7293C102.543 28.7293 103.023 28.8092 103.423 28.9691C103.822 29.1291 104.102 29.329 104.382 29.6488C104.622 29.9286 104.822 30.2485 104.942 30.6483C105.062 31.0481 105.102 31.4479 105.102 31.8876V32.1275H105.022ZM103.263 31.6078C103.263 31.0881 103.183 30.6883 102.943 30.4084C102.743 30.1285 102.383 29.9686 101.943 29.9686C101.703 29.9686 101.504 30.0086 101.344 30.0886C101.17 30.1721 101.018 30.2952 100.9 30.4479C100.782 30.6006 100.701 30.7787 100.664 30.9681C100.584 31.168 100.584 31.3679 100.544 31.6078H103.263ZM116.496 34.3664V34.6862L116.456 34.8861L116.416 35.046L116.296 35.2059L115.976 35.4058L115.416 35.6457L114.657 35.8456L113.737 35.9256C113.098 35.9256 112.538 35.8456 112.018 35.6457C111.514 35.4635 111.061 35.1617 110.699 34.7662C110.339 34.3664 110.059 33.8866 109.859 33.2869C109.659 32.6872 109.579 32.0076 109.579 31.248C109.579 30.4484 109.699 29.7687 109.899 29.1291C110.099 28.5294 110.419 28.0096 110.779 27.5699C111.179 27.1701 111.618 26.8502 112.138 26.6104C112.942 26.3121 113.811 26.2294 114.657 26.3705L115.336 26.5304L115.896 26.7703L116.256 27.0101L116.376 27.1701L116.416 27.33L116.456 27.5699V28.2495L116.416 28.4894L116.336 28.6093L116.216 28.6493L115.936 28.5294L115.496 28.2495C115.298 28.1255 115.082 28.0312 114.857 27.9697C114.617 27.8897 114.337 27.8497 113.977 27.8497C113.617 27.8497 113.257 27.9297 112.978 28.0896C112.688 28.2558 112.431 28.4725 112.218 28.7293C112.004 29.0479 111.842 29.3989 111.738 29.7687C111.618 30.1685 111.578 30.6083 111.578 31.128C111.578 31.6877 111.618 32.1675 111.738 32.5673C111.858 32.9671 112.018 33.2869 112.218 33.5668C112.434 33.8093 112.692 34.0122 112.978 34.1665C113.386 34.324 113.824 34.3878 114.26 34.3532C114.696 34.3186 115.118 34.1865 115.496 33.9666L115.936 33.7267L116.216 33.6068L116.336 33.6467L116.416 33.7667L116.456 34.0066L116.496 34.3664ZM119.694 35.5658L119.654 35.6857L119.494 35.7657L119.214 35.8056H118.335L118.055 35.7657L117.895 35.6857L117.855 35.5658V26.0506L117.895 25.9307L118.055 25.8507L118.335 25.7708L118.775 25.7308L119.214 25.7708L119.494 25.8507L119.654 25.9307L119.694 26.0506V35.5658ZM128.13 32.2874C128.13 32.8472 128.05 33.3269 127.93 33.8067C127.79 34.2294 127.573 34.6225 127.29 34.9661C127.01 35.2859 126.611 35.5258 126.171 35.7257C125.193 36.0894 124.119 36.1036 123.132 35.7657C122.739 35.6198 122.384 35.3875 122.093 35.086C121.81 34.7571 121.593 34.3771 121.453 33.9666C121.185 32.9715 121.185 31.9232 121.453 30.9281C121.593 30.4952 121.826 30.0986 122.138 29.7668C122.449 29.435 122.829 29.1762 123.252 29.0091C124.242 28.6358 125.332 28.6216 126.331 28.9691C126.724 29.115 127.079 29.3472 127.37 29.6488C127.65 29.9686 127.85 30.3284 127.97 30.7682C128.05 31.208 128.13 31.6877 128.13 32.2874ZM126.251 32.3274L126.171 31.4479C126.131 31.168 126.051 30.9681 125.931 30.7682C125.811 30.5683 125.651 30.4084 125.451 30.2885C125.251 30.1685 125.011 30.1285 124.692 30.1285C124.412 30.1285 124.172 30.1685 123.972 30.2885C123.772 30.3684 123.612 30.5283 123.492 30.7282C123.372 30.9281 123.252 31.128 123.212 31.4079C123.132 31.6877 123.132 31.9676 123.132 32.3274L123.212 33.207C123.252 33.4868 123.332 33.6867 123.452 33.8866C123.572 34.0865 123.732 34.2464 123.932 34.3264C124.132 34.4463 124.372 34.4863 124.692 34.4863C124.971 34.4863 125.211 34.4463 125.411 34.3264C125.611 34.2464 125.771 34.0865 125.891 33.8866C126.011 33.6867 126.131 33.4868 126.171 33.207L126.251 32.3274ZM133.487 34.9261L133.447 35.4058L133.327 35.6457L133.127 35.7657L132.847 35.8456L132.488 35.9256L132.088 35.9655C131.728 35.9655 131.408 35.9256 131.168 35.8456C130.912 35.774 130.687 35.6193 130.529 35.4058C130.369 35.2059 130.209 34.9661 130.129 34.6862C130.049 34.4064 130.009 34.0465 130.009 33.6467V30.3684H129.249C129.169 30.3684 129.089 30.3284 129.049 30.2085L128.969 29.6488V29.289L129.009 29.0491L129.089 28.9292L129.209 28.8892H129.969V27.4499L130.009 27.33L130.169 27.25L130.449 27.21H131.328L131.608 27.25L131.768 27.33L131.808 27.4499V28.8892H133.207L133.327 28.9292L133.407 29.0491L133.447 29.289V29.6488L133.367 30.2085C133.327 30.3284 133.247 30.3684 133.167 30.3684H131.768V33.4069C131.768 33.7667 131.808 34.0066 131.928 34.2065C132.048 34.3664 132.248 34.4863 132.528 34.4863L132.807 34.4463L133.007 34.4063L133.167 34.3664L133.287 34.3264L133.367 34.3664L133.447 34.4863L133.487 34.6862V34.9261ZM141.123 28.2495C141.12 29.0558 140.805 29.8295 140.244 30.4084C139.884 30.7534 139.447 31.0072 138.969 31.1485C138.491 31.2898 137.986 31.3145 137.497 31.2205C137.007 31.1265 136.548 30.9166 136.156 30.6084C135.765 30.3002 135.452 29.9025 135.246 29.4489C135.086 29.0891 135.006 28.6893 135.006 28.2495C135.006 27.8097 135.086 27.4099 135.246 27.0501C135.406 26.6903 135.606 26.3705 135.886 26.0906C136.245 25.7456 136.683 25.4919 137.16 25.3506C137.638 25.2093 138.143 25.1846 138.633 25.2785C139.122 25.3725 139.582 25.5824 139.973 25.8906C140.365 26.1989 140.677 26.5965 140.883 27.0501C141.043 27.4099 141.123 27.8097 141.123 28.2495ZM140.404 28.2895C140.404 27.9297 140.364 27.5699 140.244 27.29C140.124 26.9702 139.964 26.7303 139.764 26.5304C139.564 26.3305 139.324 26.1306 139.004 26.0506C138.724 25.9307 138.405 25.8907 138.085 25.8907C137.765 25.8899 137.448 25.9532 137.152 26.0768C136.857 26.2004 136.59 26.3818 136.366 26.6104C135.939 27.0638 135.709 27.6673 135.726 28.2895C135.726 28.6493 135.766 28.9691 135.886 29.289C136.006 29.6088 136.166 29.8487 136.366 30.0486C136.566 30.2485 136.805 30.4484 137.125 30.5283C137.405 30.6483 137.725 30.6883 138.045 30.6883C138.365 30.6891 138.682 30.6258 138.977 30.5022C139.272 30.3786 139.54 30.1972 139.764 29.9686C140.19 29.5152 140.42 28.9117 140.404 28.2895ZM139.484 29.6888V29.7288L139.444 29.7687H138.884L138.764 29.7288L138.684 29.6888L138.644 29.6088L138.485 29.0891C138.405 28.8892 138.365 28.7692 138.245 28.6893C138.165 28.6093 138.045 28.5693 137.845 28.5693H137.645V29.6488L137.565 29.7687L137.245 29.8087L136.925 29.7687C136.885 29.7288 136.845 29.7288 136.845 29.6488V26.8502L136.925 26.5704C136.965 26.4904 137.085 26.4904 137.165 26.4904H138.045L138.604 26.5304L139.004 26.6903C139.124 26.7703 139.204 26.8502 139.244 26.9702L139.324 27.37C139.324 27.6098 139.244 27.8097 139.124 27.9697C139.004 28.0896 138.804 28.2095 138.564 28.2495L138.924 28.4494C139.044 28.5294 139.124 28.6893 139.204 28.8892L139.404 29.3689L139.484 29.6888ZM138.525 27.5299L138.485 27.37L138.405 27.25C138.36 27.2087 138.304 27.181 138.245 27.1701L137.965 27.1301H137.605V28.0096H137.965C138.165 28.0096 138.325 27.9697 138.405 27.8897C138.485 27.7698 138.525 27.6898 138.525 27.5299Z" fill="#B81D32"/>
</svg>
