<svg  viewBox="20 16 220 50" fill="none" xmlns="http://www.w3.org/2000/svg"><path fill-rule="evenodd" clip-rule="evenodd" d="M59.9245 18.4739C59.7378 18.4586 59.5445 18.498 59.37 18.5988L44.8904 26.9586L30.4108 18.5988C30.2519 18.507 30.0777 18.4662 29.9069 18.4711C29.7361 18.4662 29.5618 18.507 29.403 18.5988L21.9631 22.8942C21.6722 23.0622 21.5031 23.3602 21.487 23.6724C21.4763 23.7296 21.4707 23.7885 21.4707 23.8487V57.735C21.4707 57.7842 21.4745 57.8328 21.4817 57.8801C21.4595 58.2307 21.6324 58.5803 21.9572 58.7678L29.3971 63.0632C29.5792 63.1684 29.7815 63.2066 29.9757 63.1857C30.1699 63.2066 30.3722 63.1684 30.5542 63.0632L37.9941 58.7678C38.1514 58.677 38.2731 58.5482 38.3542 58.3997C38.4522 58.2497 38.5092 58.0706 38.5092 57.8781V41.5682L44.5748 45.0701C44.7494 45.1709 44.9425 45.2103 45.1292 45.195C45.3158 45.2103 45.5089 45.1709 45.6835 45.0701L51.5385 41.6897V57.8781C51.5385 57.9692 51.5513 58.0573 51.5751 58.1409C51.6297 58.3956 51.7879 58.6272 52.0313 58.7678L59.4711 63.0632C59.6497 63.1663 59.8476 63.2051 60.0383 63.1869C60.2289 63.2051 60.4269 63.1663 60.6054 63.0632L68.0454 58.7678C68.3735 58.5784 68.5466 58.2235 68.5201 57.8694C68.5263 57.8254 68.5295 57.7806 68.5295 57.7348V23.8487C68.5295 23.545 68.3876 23.2744 68.1666 23.0996C68.0982 23.0197 68.0151 22.9498 67.9188 22.8942L60.4789 18.5988C60.3044 18.498 60.1113 18.4586 59.9245 18.4739ZM66.6204 57.386V24.8316L45.2061 37.1951C45.0481 37.2864 44.8748 37.3273 44.7048 37.3229C44.5348 37.3273 44.3616 37.2864 44.2035 37.1951L23.3798 25.1725V57.3847L29.107 60.6913V35.7804C29.107 35.5111 29.2185 35.2679 29.3979 35.0944C29.6807 34.7011 30.2211 34.5786 30.6495 34.826L45.1291 43.1857L59.6088 34.826C60.0653 34.5623 60.6491 34.7188 60.9126 35.1754C60.956 35.2504 60.9881 35.3289 61.0092 35.4089C61.0575 35.5232 61.0842 35.6486 61.0842 35.7804V60.5823L66.6204 57.386ZM59.1751 60.6879L53.4476 57.381V40.6963C53.4476 40.6607 53.4457 40.6256 53.4419 40.5909L59.1751 37.2807V60.6879ZM36.6001 57.3682V40.6963C36.6001 40.622 36.6086 40.5497 36.6247 40.4801L31.016 37.242V60.5922L36.6001 57.3682ZM65.1294 23.4881L44.7048 35.2801L24.5165 23.6244L29.9069 20.5123L44.336 28.8429C44.5106 28.9436 44.7036 28.9831 44.8904 28.9678C45.0772 28.9831 45.2703 28.9436 45.4447 28.8429L59.9245 20.4831L65.1294 23.4881Z" fill="black"/><path d="M59.925 18.4739L59.8948 18.8403L59.925 18.8427L59.955 18.8403L59.925 18.4739ZM44.8909 26.9585L44.707 27.2769L44.8909 27.3831L45.0747 27.2769L44.8909 26.9585ZM29.9074 18.4711L29.8968 18.8386L29.9074 18.8389L29.9179 18.8386L29.9074 18.4711ZM21.4874 23.6724L21.8488 23.7399L21.8533 23.7158L21.8546 23.6914L21.4874 23.6724ZM21.4821 57.8801L21.8491 57.9033L21.8516 57.8638L21.8456 57.8246L21.4821 57.8801ZM29.9761 63.1857L30.0155 62.8202L29.9761 62.816L29.9368 62.8202L29.9761 63.1857ZM38.3547 58.3996L38.0469 58.1985L38.039 58.2107L38.032 58.2233L38.3547 58.3996ZM38.5097 41.5682L38.6935 41.2498L38.142 40.9313V41.5682H38.5097ZM45.1297 45.1949L45.1597 44.8285L45.1295 44.8261L45.0995 44.8285L45.1297 45.1949ZM51.539 41.6896H51.9066V41.0529L51.3551 41.3713L51.539 41.6896ZM51.5756 58.1408L51.9351 58.0638L51.9325 58.0517L51.9291 58.0398L51.5756 58.1408ZM60.0388 63.1869L60.0737 62.821L60.0388 62.8176L60.0038 62.821L60.0388 63.1869ZM68.5206 57.8694L68.1566 57.818L68.151 57.8573L68.154 57.8967L68.5206 57.8694ZM68.167 23.0995L67.8879 23.3388L67.911 23.3658L67.939 23.3879L68.167 23.0995ZM66.6209 57.386L66.8047 57.7044L66.9885 57.5982V57.386H66.6209ZM66.6209 24.8315H66.9885V24.1947L66.437 24.5131L66.6209 24.8315ZM44.7053 37.3229L44.7148 36.9548L44.6957 36.9552L44.7053 37.3229ZM23.3802 25.1725L23.5641 24.8541L23.0126 24.5357V25.1725H23.3802ZM23.3802 57.3846H23.0126V57.5969L23.1964 57.703L23.3802 57.3846ZM29.1074 60.6913L28.9236 61.0096L29.4751 61.328V60.6913H29.1074ZM29.3984 35.0944L29.654 35.3585L29.6776 35.3357L29.6968 35.3089L29.3984 35.0944ZM45.1295 43.1857L44.9457 43.5041L45.1295 43.6102L45.3134 43.5041L45.1295 43.1857ZM61.0097 35.4089L60.6543 35.503L60.6609 35.5282L60.671 35.5521L61.0097 35.4089ZM61.0847 60.5823H60.717V61.2191L61.2685 60.9007L61.0847 60.5823ZM53.4481 57.381H53.0804V57.5933L53.2643 57.6994L53.4481 57.381ZM59.1756 60.6879L58.9917 61.0063L59.5432 61.3246V60.6879H59.1756ZM53.4423 40.5908L53.2585 40.2724L53.0506 40.3924L53.0769 40.631L53.4423 40.5908ZM59.1756 37.2807H59.5432V36.6439L58.9917 36.9623L59.1756 37.2807ZM36.6006 57.3682L36.7844 57.6866L36.9682 57.5804V57.3682H36.6006ZM36.6251 40.4801L36.9834 40.563L37.0447 40.2979L36.809 40.1617L36.6251 40.4801ZM31.0165 37.242L31.2003 36.9236L30.6489 36.6052V37.242H31.0165ZM31.0165 60.5921H30.6489V61.2289L31.2003 60.9105L31.0165 60.5921ZM44.7053 35.2801L44.5215 35.5985L44.7053 35.7046L44.8891 35.5985L44.7053 35.2801ZM65.1298 23.488L65.3137 23.8064L65.8651 23.488L65.3137 23.1696L65.1298 23.488ZM24.5169 23.6244L24.3331 23.306L23.7816 23.6244L24.3331 23.9428L24.5169 23.6244ZM29.9074 20.5122L30.0912 20.1938L29.9074 20.0877L29.7235 20.1938L29.9074 20.5122ZM44.8909 28.9677L44.9209 28.6013L44.8909 28.5989L44.8609 28.6013L44.8909 28.9677ZM59.925 20.483L60.1088 20.1646L59.925 20.0585L59.7412 20.1646L59.925 20.483ZM59.5542 18.9171C59.662 18.8549 59.7803 18.8309 59.8948 18.8403L59.955 18.1075C59.6962 18.0862 59.4281 18.141 59.1866 18.2803L59.5542 18.9171ZM45.0747 27.2769L59.5542 18.9171L59.1866 18.2803L44.707 26.6401L45.0747 27.2769ZM30.2274 18.9171L44.707 27.2769L45.0747 26.6401L30.5951 18.2803L30.2274 18.9171ZM29.9179 18.8386C30.0226 18.8355 30.1293 18.8604 30.2274 18.9171L30.5951 18.2803C30.3755 18.1536 30.1337 18.0968 29.8968 18.1036L29.9179 18.8386ZM29.5873 18.9171C29.6855 18.8604 29.7921 18.8355 29.8968 18.8386L29.9179 18.1036C29.681 18.0968 29.4392 18.1536 29.2196 18.2803L29.5873 18.9171ZM22.1474 23.2125L29.5873 18.9171L29.2196 18.2803L21.7797 22.5758L22.1474 23.2125ZM21.8546 23.6914C21.8645 23.4983 21.9688 23.3156 22.1474 23.2125L21.7797 22.5758C21.3764 22.8086 21.1426 23.222 21.1203 23.6534L21.8546 23.6914ZM21.8388 23.8487C21.8388 23.8112 21.8423 23.7749 21.8488 23.7399L21.126 23.6049C21.1112 23.6842 21.1035 23.7657 21.1035 23.8487H21.8388ZM21.8388 57.7349V23.8487H21.1035V57.7349H21.8388ZM21.8456 57.8246C21.8411 57.7955 21.8388 57.7657 21.8388 57.7349H21.1035C21.1035 57.8029 21.1087 57.8699 21.1187 57.9355L21.8456 57.8246ZM22.1415 58.4494C21.9423 58.3344 21.8354 58.1198 21.8491 57.9033L21.1152 57.8569C21.0846 58.3414 21.3235 58.8261 21.7739 59.0861L22.1415 58.4494ZM29.5814 62.7448L22.1415 58.4494L21.7739 59.0861L29.2138 63.3816L29.5814 62.7448ZM29.9368 62.8202C29.8175 62.833 29.6937 62.8096 29.5814 62.7448L29.2138 63.3816C29.4656 63.527 29.7464 63.5802 30.0155 63.5513L29.9368 62.8202ZM30.3709 62.7448C30.2585 62.8096 30.1347 62.833 30.0155 62.8202L29.9368 63.5513C30.2059 63.5802 30.4867 63.527 30.7385 63.3816L30.3709 62.7448ZM37.8107 58.4494L30.3709 62.7448L30.7385 63.3816L38.1784 59.0861L37.8107 58.4494ZM38.032 58.2233C37.9823 58.3144 37.9079 58.3932 37.8107 58.4494L38.1784 59.0861C38.3957 58.9607 38.5647 58.7819 38.6773 58.5758L38.032 58.2233ZM38.142 57.878C38.142 57.997 38.107 58.1066 38.0469 58.1985L38.6625 58.6007C38.7984 58.3929 38.8773 58.1441 38.8773 57.878H38.142ZM38.142 41.5682V57.878H38.8773V41.5682H38.142ZM44.7591 44.7517L38.6935 41.2498L38.3259 41.8866L44.3915 45.3885L44.7591 44.7517ZM45.0995 44.8285C44.985 44.8379 44.8668 44.8139 44.7591 44.7517L44.3915 45.3885C44.6328 45.5279 44.9009 45.5826 45.1597 45.5614L45.0995 44.8285ZM45.5001 44.7517C45.3923 44.8139 45.2743 44.8379 45.1597 44.8285L45.0997 45.5614C45.3584 45.5826 45.6265 45.5277 45.8678 45.3885L45.5001 44.7517ZM51.3551 41.3713L45.5001 44.7517L45.8678 45.3885L51.7228 42.008L51.3551 41.3713ZM51.9066 57.878V41.6896H51.1713V57.878H51.9066ZM51.9291 58.0398C51.9145 57.9889 51.9066 57.9347 51.9066 57.878H51.1713C51.1713 58.0036 51.189 58.1258 51.222 58.2419L51.9291 58.0398ZM52.2156 58.4494C52.0659 58.3629 51.9688 58.2211 51.9351 58.0638L51.2162 58.2179C51.2916 58.5701 51.5107 58.8914 51.8479 59.0861L52.2156 58.4494ZM59.6554 62.7448L52.2156 58.4494L51.8479 59.0861L59.2878 63.3816L59.6554 62.7448ZM60.0038 62.821C59.8867 62.8321 59.7656 62.8083 59.6554 62.7448L59.2878 63.3816C59.5347 63.5241 59.8094 63.578 60.0737 63.5529L60.0038 62.821ZM60.422 62.7448C60.3119 62.8083 60.1907 62.8321 60.0737 62.821L60.0038 63.5529C60.2681 63.578 60.5429 63.5241 60.7897 63.3816L60.422 62.7448ZM67.862 58.4494L60.422 62.7448L60.7897 63.3816L68.2297 59.0861L67.862 58.4494ZM68.154 57.8967C68.1703 58.1154 68.0632 58.3332 67.862 58.4494L68.2297 59.0861C68.6845 58.8235 68.9238 58.3316 68.8872 57.842L68.154 57.8967ZM68.1623 57.7348C68.1623 57.7633 68.1604 57.7911 68.1566 57.818L68.8847 57.9207C68.8932 57.8598 68.8976 57.7977 68.8976 57.7348H68.1623ZM68.1623 23.8487V57.7348H68.8976V23.8487H68.1623ZM67.939 23.3879C68.0757 23.496 68.1623 23.6621 68.1623 23.8487H68.8976C68.8976 23.4278 68.7006 23.0527 68.3951 22.8112L67.939 23.3879ZM67.7354 23.2125C67.7953 23.2471 67.8462 23.29 67.8879 23.3388L68.4463 22.8603C68.351 22.7492 68.236 22.6525 68.1031 22.5758L67.7354 23.2125ZM60.2956 18.9171L67.7354 23.2125L68.1031 22.5758L60.6632 18.2803L60.2956 18.9171ZM59.955 18.8403C60.0695 18.8309 60.1878 18.8549 60.2956 18.9171L60.6632 18.2803C60.4219 18.141 60.1538 18.0862 59.8948 18.1075L59.955 18.8403ZM66.9885 57.386V24.8315H66.2532V57.386H66.9885ZM66.437 24.5131L45.0228 36.8767L45.3904 37.5135L66.8047 25.1499L66.437 24.5131ZM45.0228 36.8767C44.9251 36.933 44.819 36.9576 44.7148 36.9548L44.6957 37.6904C44.9315 37.6966 45.172 37.6396 45.3904 37.5135L45.0228 36.8767ZM44.6957 36.9552C44.5916 36.958 44.4854 36.933 44.3878 36.8767L44.0201 37.5135C44.2385 37.6396 44.4791 37.6966 44.7148 37.6904L44.6957 36.9552ZM44.3878 36.8767L23.5641 24.8541L23.1964 25.4909L44.0201 37.5135L44.3878 36.8767ZM23.0126 25.1725V57.3846H23.7479V25.1725H23.0126ZM23.1964 57.703L28.9236 61.0096L29.2912 60.3729L23.5641 57.0663L23.1964 57.703ZM29.4751 60.6913V35.7804H28.7398V60.6913H29.4751ZM29.4751 35.7804C29.4751 35.6148 29.5432 35.4657 29.654 35.3585L29.1428 34.8301C28.8947 35.0699 28.7398 35.4074 28.7398 35.7804H29.4751ZM29.6968 35.3089C29.8705 35.0674 30.2029 34.9923 30.4661 35.1444L30.8338 34.5076C30.2402 34.1648 29.4918 34.3346 29.0999 34.8796L29.6968 35.3089ZM30.4661 35.1444L44.9457 43.5041L45.3134 42.8673L30.8338 34.5076L30.4661 35.1444ZM45.3134 43.5041L59.7931 35.1444L59.4254 34.5076L44.9457 42.8673L45.3134 43.5041ZM59.7931 35.1444C60.0738 34.9823 60.4326 35.0785 60.5947 35.3592L61.2316 34.9916C60.8665 34.3591 60.0578 34.1424 59.4254 34.5076L59.7931 35.1444ZM60.5947 35.3592C60.6217 35.4058 60.6413 35.4541 60.6543 35.503L61.3651 35.3149C61.3357 35.2038 61.2913 35.0951 61.2316 34.9916L60.5947 35.3592ZM60.671 35.5521C60.7006 35.6219 60.717 35.6988 60.717 35.7804H61.4523C61.4523 35.5986 61.4154 35.4244 61.3482 35.2657L60.671 35.5521ZM60.717 35.7804V60.5823H61.4523V35.7804H60.717ZM61.2685 60.9007L66.8047 57.7044L66.437 57.0676L60.9009 60.2639L61.2685 60.9007ZM53.2643 57.6994L58.9917 61.0063L59.3594 60.3694L53.6319 57.0626L53.2643 57.6994ZM53.0804 40.6963V57.381H53.8157V40.6963H53.0804ZM53.0769 40.631C53.0793 40.6523 53.0804 40.6742 53.0804 40.6963H53.8157C53.8157 40.6471 53.8131 40.5986 53.8078 40.5507L53.0769 40.631ZM58.9917 36.9623L53.2585 40.2724L53.6262 40.9092L59.3594 37.5991L58.9917 36.9623ZM59.5432 60.6879V37.2807H58.8079V60.6879H59.5432ZM36.2329 40.6963V57.3682H36.9682V40.6963H36.2329ZM36.267 40.3971C36.2447 40.4936 36.2329 40.5939 36.2329 40.6963H36.9682C36.9682 40.6501 36.9735 40.6055 36.9834 40.563L36.267 40.3971ZM30.8327 37.5604L36.4413 40.7985L36.809 40.1617L31.2003 36.9236L30.8327 37.5604ZM31.3841 60.5921V37.242H30.6489V60.5921H31.3841ZM36.4168 57.0498L30.8327 60.2738L31.2003 60.9105L36.7844 57.6866L36.4168 57.0498ZM44.8891 35.5985L65.3137 23.8064L64.946 23.1696L44.5215 34.9617L44.8891 35.5985ZM24.3331 23.9428L44.5215 35.5985L44.8891 34.9617L24.7008 23.306L24.3331 23.9428ZM29.7235 20.1938L24.3331 23.306L24.7008 23.9428L30.0912 20.8306L29.7235 20.1938ZM44.5203 28.5245L30.0912 20.1938L29.7235 20.8306L44.1526 29.1613L44.5203 28.5245ZM44.8609 28.6013C44.7463 28.6107 44.6281 28.5867 44.5203 28.5245L44.1526 29.1613C44.394 29.3007 44.662 29.3554 44.9209 29.3342L44.8609 28.6013ZM45.2613 28.5245C45.1537 28.5867 45.0354 28.6107 44.9209 28.6013L44.8609 29.3342C45.1197 29.3554 45.3878 29.3007 45.629 29.1613L45.2613 28.5245ZM59.7412 20.1646L45.2613 28.5245L45.629 29.1613L60.1088 20.8014L59.7412 20.1646ZM65.3137 23.1696L60.1088 20.1646L59.7412 20.8014L64.946 23.8064L65.3137 23.1696Z" fill="black"/><path fill-rule="evenodd" clip-rule="evenodd" d="M132.723 30.6912C132.636 30.684 132.545 30.7025 132.463 30.7497L125.673 34.6702L118.882 30.7497C118.808 30.7067 118.726 30.6876 118.646 30.6899C118.566 30.6876 118.484 30.7067 118.41 30.7497L114.921 32.7642C114.784 32.8429 114.705 32.9827 114.697 33.1291C114.692 33.1559 114.69 33.1836 114.69 33.2118V49.1033C114.69 49.1264 114.691 49.1491 114.695 49.1714C114.684 49.3358 114.766 49.4997 114.918 49.5876L118.407 51.602C118.492 51.6514 118.587 51.6693 118.678 51.6595C118.769 51.6693 118.864 51.6514 118.95 51.602L122.439 49.5876C122.512 49.5451 122.569 49.4847 122.607 49.415C122.653 49.3447 122.68 49.2607 122.68 49.1704V41.5216L125.525 43.1639C125.607 43.2111 125.697 43.2296 125.785 43.2225C125.872 43.2296 125.963 43.2111 126.045 43.1639L128.79 41.5786V49.1704C128.79 49.2131 128.796 49.2545 128.808 49.2936C128.833 49.4131 128.907 49.5217 129.022 49.5876L132.511 51.602C132.594 51.6504 132.687 51.6686 132.777 51.66C132.866 51.6686 132.959 51.6504 133.043 51.602L136.532 49.5876C136.685 49.4988 136.767 49.3324 136.754 49.1663C136.757 49.1457 136.759 49.1247 136.759 49.1032V33.2118C136.759 33.0694 136.692 32.9425 136.588 32.8605C136.556 32.823 136.517 32.7902 136.472 32.7642L132.983 30.7497C132.901 30.7025 132.811 30.684 132.723 30.6912ZM135.863 48.9396V33.6727L125.821 39.4708C125.747 39.5136 125.665 39.5328 125.586 39.5307C125.506 39.5328 125.425 39.5136 125.351 39.4708L115.585 33.8326V48.939L118.271 50.4897V38.8074C118.271 38.6811 118.323 38.567 118.407 38.4856C118.54 38.3012 118.793 38.2438 118.994 38.3598L125.785 42.2802L132.575 38.3598C132.789 38.2361 133.063 38.3095 133.187 38.5236C133.207 38.5588 133.222 38.5956 133.232 38.6331C133.255 38.6867 133.267 38.7456 133.267 38.8074V50.4386L135.863 48.9396ZM132.372 50.4881L129.686 48.9373V41.1127C129.686 41.096 129.685 41.0796 129.683 41.0633L132.372 39.5109V50.4881ZM121.785 48.9313V41.1127C121.785 41.0779 121.789 41.044 121.796 41.0114L119.166 39.4928V50.4432L121.785 48.9313ZM135.164 33.0427L125.586 38.5727L116.118 33.1066L118.646 31.6471L125.413 35.5539C125.495 35.6011 125.585 35.6196 125.673 35.6125C125.76 35.6196 125.851 35.6011 125.933 35.5539L132.723 31.6334L135.164 33.0427Z" fill="black"/><path d="M132.724 30.691L132.709 30.8628L132.724 30.864L132.738 30.8628L132.724 30.691ZM125.673 34.67L125.587 34.8193L125.673 34.8691L125.759 34.8193L125.673 34.67ZM118.646 30.6897L118.641 30.862L118.646 30.8622L118.651 30.862L118.646 30.6897ZM114.698 33.1289L114.867 33.1606L114.869 33.1493L114.87 33.1378L114.698 33.1289ZM114.695 49.1712L114.867 49.1821L114.868 49.1635L114.866 49.1452L114.695 49.1712ZM118.679 51.6593L118.697 51.4879L118.679 51.4859L118.66 51.4879L118.679 51.6593ZM122.608 49.4148L122.463 49.3205L122.46 49.3262L122.456 49.3321L122.608 49.4148ZM122.68 41.5214L122.767 41.3721L122.508 41.2227V41.5214H122.68ZM125.785 43.2223L125.799 43.0504L125.785 43.0493L125.771 43.0504L125.785 43.2223ZM128.791 41.5784H128.963V41.2798L128.705 41.4291L128.791 41.5784ZM128.808 49.2934L128.977 49.2573L128.975 49.2516L128.974 49.2461L128.808 49.2934ZM132.777 51.6598L132.793 51.4883L132.777 51.4867L132.76 51.4883L132.777 51.6598ZM136.755 49.1661L136.584 49.1421L136.581 49.1605L136.583 49.179L136.755 49.1661ZM136.589 32.8603L136.458 32.9725L136.469 32.9852L136.482 32.9955L136.589 32.8603ZM135.864 48.9394L135.95 49.0887L136.036 49.039V48.9394H135.864ZM135.864 33.6725H136.036V33.3739L135.777 33.5232L135.864 33.6725ZM125.586 39.5305L125.59 39.3579L125.582 39.3581L125.586 39.5305ZM115.585 33.8324L115.671 33.6831L115.413 33.5338V33.8324H115.585ZM115.585 48.9388H115.413V49.0383L115.499 49.0881L115.585 48.9388ZM118.271 50.4895L118.185 50.6388L118.444 50.7881V50.4895H118.271ZM118.408 38.4854L118.527 38.6093L118.539 38.5986L118.548 38.5861L118.408 38.4854ZM125.785 42.28L125.699 42.4293L125.785 42.4791L125.871 42.4293L125.785 42.28ZM133.232 38.633L133.066 38.6771L133.069 38.6889L133.073 38.7001L133.232 38.633ZM133.267 50.4384H133.095V50.737L133.354 50.5877L133.267 50.4384ZM129.686 48.9371H129.514V49.0367L129.6 49.0864L129.686 48.9371ZM132.372 50.4879L132.286 50.6372L132.544 50.7865V50.4879H132.372ZM129.683 41.0631L129.597 40.9138L129.5 40.9701L129.512 41.0819L129.683 41.0631ZM132.372 39.5107H132.544V39.2121L132.286 39.3614L132.372 39.5107ZM121.785 48.9311L121.871 49.0804L121.958 49.0306V48.9311H121.785ZM121.797 41.0112L121.965 41.0501L121.993 40.9257L121.883 40.8618L121.797 41.0112ZM119.166 39.4926L119.253 39.3433L118.994 39.194V39.4926H119.166ZM119.166 50.443H118.994V50.7416L119.253 50.5923L119.166 50.443ZM125.586 38.5725L125.5 38.7218L125.586 38.7716L125.672 38.7218L125.586 38.5725ZM135.164 33.0425L135.251 33.1918L135.509 33.0425L135.251 32.8932L135.164 33.0425ZM116.118 33.1064L116.032 32.9571L115.774 33.1064L116.032 33.2557L116.118 33.1064ZM118.646 31.6469L118.732 31.4976L118.646 31.4478L118.56 31.4976L118.646 31.6469ZM125.673 35.6123L125.687 35.4404L125.673 35.4393L125.659 35.4404L125.673 35.6123ZM132.724 31.6332L132.81 31.4839L132.724 31.4341L132.637 31.4839L132.724 31.6332ZM132.55 30.8989C132.6 30.8697 132.656 30.8584 132.709 30.8628L132.738 30.5192C132.616 30.5092 132.49 30.5349 132.377 30.6002L132.55 30.8989ZM125.759 34.8193L132.55 30.8989L132.377 30.6002L125.587 34.5207L125.759 34.8193ZM118.796 30.8989L125.587 34.8193L125.759 34.5207L118.969 30.6002L118.796 30.8989ZM118.651 30.862C118.7 30.8606 118.75 30.8723 118.796 30.8989L118.969 30.6002C118.866 30.5408 118.752 30.5141 118.641 30.5173L118.651 30.862ZM118.496 30.8989C118.542 30.8723 118.592 30.8606 118.641 30.862L118.651 30.5173C118.54 30.5141 118.427 30.5408 118.324 30.6002L118.496 30.8989ZM115.007 32.9133L118.496 30.8989L118.324 30.6002L114.835 32.6146L115.007 32.9133ZM114.87 33.1378C114.874 33.0473 114.923 32.9616 115.007 32.9133L114.835 32.6146C114.646 32.7239 114.536 32.9177 114.525 33.12L114.87 33.1378ZM114.862 33.2116C114.862 33.194 114.864 33.177 114.867 33.1606L114.528 33.0973C114.521 33.1345 114.518 33.1727 114.518 33.2116H114.862ZM114.862 49.1031V33.2116H114.518V49.1031H114.862ZM114.866 49.1452C114.864 49.1315 114.862 49.1175 114.862 49.1031H114.518C114.518 49.135 114.52 49.1664 114.525 49.1972L114.866 49.1452ZM115.004 49.4381C114.911 49.3842 114.861 49.2836 114.867 49.1821L114.523 49.1603C114.509 49.3875 114.621 49.6148 114.832 49.7367L115.004 49.4381ZM118.493 51.4525L115.004 49.4381L114.832 49.7367L118.321 51.7512L118.493 51.4525ZM118.66 51.4879C118.604 51.4939 118.546 51.483 118.493 51.4525L118.321 51.7512C118.439 51.8194 118.571 51.8443 118.697 51.8307L118.66 51.4879ZM118.864 51.4525C118.811 51.483 118.753 51.4939 118.697 51.4879L118.66 51.8307C118.786 51.8443 118.918 51.8194 119.036 51.7512L118.864 51.4525ZM122.353 49.4381L118.864 51.4525L119.036 51.7512L122.525 49.7367L122.353 49.4381ZM122.456 49.3321C122.433 49.3748 122.398 49.4118 122.353 49.4381L122.525 49.7367C122.627 49.6779 122.706 49.5941 122.759 49.4974L122.456 49.3321ZM122.508 49.1702C122.508 49.226 122.492 49.2774 122.463 49.3205L122.752 49.5091C122.816 49.4116 122.853 49.295 122.853 49.1702H122.508ZM122.508 41.5214V49.1702H122.853V41.5214H122.508ZM125.611 43.0144L122.767 41.3721L122.594 41.6707L125.439 43.313L125.611 43.0144ZM125.771 43.0504C125.717 43.0548 125.662 43.0436 125.611 43.0144L125.439 43.313C125.552 43.3784 125.678 43.4041 125.799 43.3941L125.771 43.0504ZM125.959 43.0144C125.908 43.0436 125.853 43.0548 125.799 43.0504L125.771 43.3941C125.892 43.4041 126.018 43.3783 126.131 43.313L125.959 43.0144ZM128.705 41.4291L125.959 43.0144L126.131 43.313L128.877 41.7277L128.705 41.4291ZM128.963 49.1702V41.5784H128.618V49.1702H128.963ZM128.974 49.2461C128.967 49.2222 128.963 49.1967 128.963 49.1702H128.618C128.618 49.2291 128.627 49.2864 128.642 49.3408L128.974 49.2461ZM129.108 49.4381C129.038 49.3976 128.992 49.3311 128.977 49.2573L128.639 49.3296C128.675 49.4947 128.778 49.6454 128.936 49.7367L129.108 49.4381ZM132.597 51.4525L129.108 49.4381L128.936 49.7367L132.425 51.7512L132.597 51.4525ZM132.76 51.4883C132.706 51.4935 132.649 51.4823 132.597 51.4525L132.425 51.7512C132.54 51.818 132.669 51.8433 132.793 51.8315L132.76 51.4883ZM132.957 51.4525C132.905 51.4823 132.848 51.4935 132.793 51.4883L132.76 51.8315C132.884 51.8433 133.013 51.818 133.129 51.7512L132.957 51.4525ZM136.446 49.4381L132.957 51.4525L133.129 51.7512L136.618 49.7367L136.446 49.4381ZM136.583 49.179C136.59 49.2815 136.54 49.3836 136.446 49.4381L136.618 49.7367C136.831 49.6136 136.944 49.3829 136.926 49.1533L136.583 49.179ZM136.587 49.103C136.587 49.1164 136.586 49.1294 136.584 49.1421L136.925 49.1902C136.929 49.1616 136.931 49.1325 136.931 49.103H136.587ZM136.587 33.2116V49.103H136.931V33.2116H136.587ZM136.482 32.9955C136.546 33.0462 136.587 33.1241 136.587 33.2116H136.931C136.931 33.0142 136.839 32.8383 136.696 32.725L136.482 32.9955ZM136.386 32.9133C136.414 32.9295 136.438 32.9496 136.458 32.9725L136.72 32.7481C136.675 32.696 136.621 32.6506 136.559 32.6146L136.386 32.9133ZM132.897 30.8989L136.386 32.9133L136.559 32.6146L133.07 30.6002L132.897 30.8989ZM132.738 30.8628C132.791 30.8584 132.847 30.8697 132.897 30.8989L133.07 30.6002C132.957 30.5349 132.831 30.5092 132.709 30.5192L132.738 30.8628ZM136.036 48.9394V33.6725H135.691V48.9394H136.036ZM135.777 33.5232L125.735 39.3213L125.907 39.6199L135.95 33.8218L135.777 33.5232ZM125.735 39.3213C125.689 39.3477 125.639 39.3592 125.59 39.3579L125.582 39.7029C125.692 39.7058 125.805 39.6791 125.907 39.6199L125.735 39.3213ZM125.582 39.3581C125.533 39.3594 125.483 39.3477 125.437 39.3213L125.265 39.6199C125.367 39.6791 125.48 39.7058 125.59 39.7029L125.582 39.3581ZM125.437 39.3213L115.671 33.6831L115.499 33.9818L125.265 39.6199L125.437 39.3213ZM115.413 33.8324V48.9388H115.758V33.8324H115.413ZM115.499 49.0881L118.185 50.6388L118.357 50.3402L115.671 48.7895L115.499 49.0881ZM118.444 50.4895V38.8072H118.099V50.4895H118.444ZM118.444 38.8072C118.444 38.7295 118.476 38.6596 118.527 38.6093L118.288 38.3615C118.171 38.474 118.099 38.6323 118.099 38.8072H118.444ZM118.548 38.5861C118.629 38.4728 118.785 38.4376 118.908 38.5089L119.081 38.2103C118.802 38.0495 118.451 38.1292 118.268 38.3847L118.548 38.5861ZM118.908 38.5089L125.699 42.4293L125.871 42.1307L119.081 38.2103L118.908 38.5089ZM125.871 42.4293L132.662 38.5089L132.489 38.2103L125.699 42.1307L125.871 42.4293ZM132.662 38.5089C132.793 38.4329 132.962 38.478 133.038 38.6096L133.336 38.4372C133.165 38.1406 132.786 38.039 132.489 38.2103L132.662 38.5089ZM133.038 38.6096C133.05 38.6315 133.059 38.6541 133.066 38.6771L133.399 38.5889C133.385 38.5367 133.364 38.4858 133.336 38.4372L133.038 38.6096ZM133.073 38.7001C133.087 38.7328 133.095 38.7689 133.095 38.8072H133.44C133.44 38.7219 133.422 38.6402 133.391 38.5658L133.073 38.7001ZM133.095 38.8072V50.4384H133.44V38.8072H133.095ZM133.354 50.5877L135.95 49.0887L135.777 48.7901L133.181 50.2891L133.354 50.5877ZM129.6 49.0864L132.286 50.6372L132.458 50.3385L129.772 48.7878L129.6 49.0864ZM129.514 41.1125V48.9371H129.858V41.1125H129.514ZM129.512 41.0819C129.513 41.0919 129.514 41.1022 129.514 41.1125H129.858C129.858 41.0895 129.857 41.0667 129.855 41.0443L129.512 41.0819ZM132.286 39.3614L129.597 40.9138L129.77 41.2124L132.458 39.6601L132.286 39.3614ZM132.544 50.4879V39.5107H132.2V50.4879H132.544ZM121.613 41.1125V48.9311H121.958V41.1125H121.613ZM121.629 40.9723C121.618 41.0175 121.613 41.0645 121.613 41.1125H121.958C121.958 41.0909 121.96 41.07 121.965 41.0501L121.629 40.9723ZM119.08 39.6419L121.71 41.1605L121.883 40.8618L119.253 39.3433L119.08 39.6419ZM119.339 50.443V39.4926H118.994V50.443H119.339ZM121.699 48.7818L119.08 50.2937L119.253 50.5923L121.871 49.0804L121.699 48.7818ZM125.672 38.7218L135.251 33.1918L135.078 32.8932L125.5 38.4232L125.672 38.7218ZM116.032 33.2557L125.5 38.7218L125.672 38.4232L116.205 32.9571L116.032 33.2557ZM118.56 31.4976L116.032 32.9571L116.205 33.2557L118.732 31.7962L118.56 31.4976ZM125.499 35.4044L118.732 31.4976L118.56 31.7962L125.327 35.703L125.499 35.4044ZM125.659 35.4404C125.605 35.4448 125.55 35.4336 125.499 35.4044L125.327 35.703C125.44 35.7684 125.566 35.7941 125.687 35.7841L125.659 35.4404ZM125.847 35.4044C125.796 35.4336 125.741 35.4448 125.687 35.4404L125.659 35.7841C125.78 35.7941 125.906 35.7684 126.019 35.703L125.847 35.4044ZM132.637 31.4839L125.847 35.4044L126.019 35.703L132.81 31.7825L132.637 31.4839ZM135.251 32.8932L132.81 31.4839L132.637 31.7825L135.078 33.1918L135.251 32.8932Z" fill="black"/><path d="M146.883 47.9312V33.9272H149.92L154.08 40.9487H154.158L158.318 33.9272H161.316V47.9312H158.68V38.2729H158.602L154.197 45.5874H154.002L149.598 38.2143H149.52V47.9312H146.883ZM168.602 48.1069C166.974 48.1069 165.727 47.6154 164.861 46.6323C163.982 45.6558 163.543 44.3634 163.543 42.7554C163.543 41.1473 163.982 39.8452 164.861 38.8492C165.74 37.853 166.987 37.355 168.602 37.355C170.203 37.355 171.443 37.853 172.322 38.8492C173.201 39.8452 173.641 41.1473 173.641 42.7554C173.641 44.3439 173.208 45.6297 172.342 46.6128C171.463 47.6089 170.216 48.1069 168.602 48.1069ZM168.602 45.7534C170.144 45.7534 170.916 44.754 170.916 42.7554C170.916 40.7241 170.144 39.7085 168.602 39.7085C167.052 39.7085 166.277 40.7241 166.277 42.7554C166.277 44.754 167.052 45.7534 168.602 45.7534ZM181.141 48.1069C179.897 48.1069 178.94 47.674 178.27 46.8081H178.182L177.908 47.9312H175.506V33.1265H178.182V38.6538H178.27C178.94 37.7879 179.897 37.355 181.141 37.355C182.462 37.355 183.504 37.853 184.265 38.8492C185.028 39.8452 185.408 41.1408 185.408 42.7358C185.408 44.3569 185.028 45.6558 184.265 46.6323C183.478 47.6154 182.436 48.1069 181.141 48.1069ZM178.641 44.8941C179.018 45.4669 179.601 45.7534 180.389 45.7534C181.176 45.7534 181.762 45.4735 182.146 44.9136C182.505 44.3602 182.684 43.6343 182.684 42.7358C182.684 41.8178 182.505 41.0822 182.146 40.5288C181.756 39.9819 181.17 39.7085 180.389 39.7085C179.588 39.7085 179.005 39.9885 178.641 40.5483C178.27 41.0887 178.084 41.8178 178.084 42.7358C178.084 43.6343 178.27 44.3537 178.641 44.8941ZM192.899 48.1069C191.655 48.1069 190.698 47.674 190.028 46.8081H189.939L189.666 47.9312H187.263V33.1265H189.939V38.6538H190.028C190.698 37.7879 191.655 37.355 192.899 37.355C194.22 37.355 195.262 37.853 196.023 38.8492C196.785 39.8452 197.166 41.1408 197.166 42.7358C197.166 44.3569 196.785 45.6558 196.023 46.6323C195.236 47.6154 194.194 48.1069 192.899 48.1069ZM190.399 44.8941C190.776 45.4669 191.359 45.7534 192.146 45.7534C192.934 45.7534 193.52 45.4735 193.904 44.9136C194.263 44.3602 194.441 43.6343 194.441 42.7358C194.441 41.8178 194.263 41.0822 193.904 40.5288C193.514 39.9819 192.928 39.7085 192.146 39.7085C191.345 39.7085 190.763 39.9885 190.399 40.5483C190.028 41.0887 189.842 41.8178 189.842 42.7358C189.842 43.6343 190.028 44.3537 190.399 44.8941ZM200.379 36.2319C199.825 36.2319 199.412 36.0854 199.139 35.7925C198.859 35.5125 198.719 35.1121 198.719 34.5913C198.719 34.103 198.859 33.7091 199.139 33.4097C199.419 33.1297 199.832 32.9897 200.379 32.9897C200.893 32.9897 201.3 33.1297 201.6 33.4097C201.892 33.7026 202.039 34.0965 202.039 34.5913C202.039 35.1187 201.892 35.519 201.6 35.7925C201.307 36.0854 200.9 36.2319 200.379 36.2319ZM199.021 47.9312V37.5307H201.697V47.9312H199.021ZM203.963 47.9312V37.5307H206.365L206.561 38.7124H206.639C207.329 37.8074 208.315 37.355 209.598 37.355C210.756 37.355 211.678 37.687 212.361 38.3511C213.045 39.0347 213.387 39.9559 213.387 41.1147V47.9312H210.701V41.8667C210.701 40.48 210.06 39.7866 208.777 39.7866C208.146 39.7866 207.634 40.0015 207.244 40.4312C206.841 40.8543 206.639 41.4338 206.639 42.1694V47.9312H203.963Z" fill="black"/></svg>