<svg width="106" height="112" viewBox="0 0 106 112" fill="none" xmlns="http://www.w3.org/2000/svg">
<path d="M43.5269 13.7228C43.8901 13.3595 43.8901 12.7447 43.5269 12.3814L34.2074 3.06201C33.8442 2.69873 33.2294 2.69873 32.8661 3.06201L2.90976 33.0044C2.54648 33.3677 2.54648 33.9824 2.90976 34.3457L32.8661 64.302C33.2294 64.6653 33.8442 64.6653 34.2074 64.302L43.5269 54.9826C43.8901 54.6193 43.8901 54.0046 43.5269 53.6413L24.2453 34.3597C23.882 33.9964 23.882 33.3816 24.2453 33.0184L43.5269 13.7228Z" fill="#F93535"/>
<path d="M73.1479 3.06201C72.7846 2.69873 72.1698 2.69873 71.8066 3.06201L41.8921 32.9625C41.5289 33.3257 41.5289 33.9405 41.8921 34.3038L51.2116 43.6372C51.5748 44.0005 52.1896 44.0005 52.5529 43.6372L71.8066 24.3835C72.1698 24.0203 72.7846 24.0203 73.1479 24.3835L81.7687 33.0044C82.132 33.3677 82.132 33.9824 81.7687 34.3457L62.4871 53.6273C62.1238 53.9906 62.1238 54.6054 62.4871 54.9686L71.8066 64.2881C72.1698 64.6514 72.7846 64.6514 73.1479 64.2881L103.09 34.3457C103.454 33.9824 103.454 33.3677 103.09 33.0044L73.1479 3.06201Z" fill="#F93535"/>
<path d="M20.654 97.5003H27.8357V100.448C26.3966 101.678 24.5523 102.293 22.3726 102.293C20.0532 102.293 18.139 101.538 16.5322 100.001C14.9673 98.4364 14.2129 96.5362 14.2129 94.2028C14.2129 91.8555 14.9813 89.9553 16.5742 88.4044C18.181 86.8395 20.0812 86.071 22.3866 86.071C24.706 86.071 26.5782 86.7138 28.1012 88.0271C29.4705 86.5601 31.5104 84.7856 32.6422 83.4722C29.8058 80.8734 26.3547 79.574 22.3866 79.574C18.1111 79.574 14.5761 80.9432 11.6001 83.7517C8.61001 86.574 7.17088 89.9972 7.17088 94.2028C7.17088 98.4085 8.62398 101.832 11.614 104.654C14.5622 107.407 18.1949 108.79 22.4005 108.79C27.2209 108.79 31.72 106.624 34.4166 103.019L34.5144 102.88V91.1429H20.654V97.5003Z" fill="#424242"/>
<path d="M65.0436 80.0071L60.2791 95.5162L55.7382 80.0071H50.2331L45.7061 95.5162L40.9416 80.0071H33.9276L42.5065 108.371H48.3609L52.9717 93.2667L57.5825 108.371H63.4368L72.0157 80.0071H65.0436Z" fill="#424242"/>
<path d="M73.9858 80.0071L72.0157 86.5181H80.427V108.371H88.3911V86.5181H96.7884V80.0071H73.9858Z" fill="#424242"/>
</svg>
