<svg  viewBox="20 16 50 50" fill="none" xmlns="http://www.w3.org/2000/svg"><defs>
<clipPath id="clip0_0_654">
<rect width="50" height="38.7097" fill="white" transform="translate(20 22)"/>
</clipPath>
<clipPath id="clip1_0_654">
<rect width="100" height="19.3548" fill="white" transform="translate(104 31)"/>
</clipPath>
</defs><g clip-path="url(#clip0_0_654)">
<path d="M62.326 25.2419C59.0914 23.7274 55.6331 22.6267 52.0176 22C51.5734 22.8034 51.0547 23.8841 50.6971 24.7437C46.8535 24.1653 43.0453 24.1653 39.2726 24.7437C38.915 23.8841 38.3844 22.8034 37.9365 22C34.3169 22.6267 30.8546 23.7314 27.6202 25.2499C21.0964 35.1161 19.3279 44.7374 20.2122 54.2219C24.5391 57.4558 28.7324 59.4202 32.8549 60.7056C33.8728 59.3037 34.7806 57.8134 35.5627 56.2426C34.0732 55.6761 32.6467 54.9773 31.2987 54.1656C31.6563 53.9006 32.0061 53.6234 32.344 53.3382C40.5656 57.1866 49.4984 57.1866 57.6218 53.3382C57.9636 53.6234 58.3134 53.9006 58.6671 54.1656C57.3152 54.9811 55.8847 55.6802 54.3952 56.2466C55.1773 57.8134 56.0811 59.3077 57.1029 60.7097C61.2294 59.4242 65.4266 57.4598 69.7535 54.2219C70.7911 43.2269 67.9811 33.694 62.326 25.2419ZM36.6827 48.389C34.2147 48.389 32.1908 46.0831 32.1908 43.2752C32.1908 40.4671 34.1715 38.1573 36.6827 38.1573C39.194 38.1573 41.2179 40.4631 41.1747 43.2752C41.1787 46.0831 39.194 48.389 36.6827 48.389ZM53.2831 48.389C50.815 48.389 48.791 46.0831 48.791 43.2752C48.791 40.4671 50.7718 38.1573 53.2831 38.1573C55.7942 38.1573 57.8182 40.4631 57.775 43.2752C57.775 46.0831 55.7942 48.389 53.2831 48.389Z" fill="#5865F2"/>
</g><g clip-path="url(#clip1_0_654)">
<path d="M124.969 32.5749C123.357 31.8375 121.644 31.3 119.857 31C119.632 31.3875 119.382 31.9125 119.207 32.3249C117.306 32.0499 115.418 32.0499 113.543 32.3249C113.368 31.9125 113.106 31.3875 112.893 31C111.093 31.3 109.381 31.8375 107.78 32.5749C104.542 37.3497 103.667 42.0119 104.105 46.6117C106.255 48.1741 108.33 49.1241 110.368 49.7491C110.868 49.0741 111.318 48.3491 111.706 47.5867C110.968 47.3117 110.268 46.9742 109.593 46.5742C109.768 46.4493 109.943 46.3118 110.106 46.1743C114.181 48.0367 118.594 48.0367 122.619 46.1743C122.794 46.3118 122.957 46.4493 123.132 46.5742C122.457 46.9742 121.757 47.3117 121.019 47.5867C121.407 48.3491 121.857 49.0741 122.357 49.7491C124.394 49.1241 126.481 48.1741 128.62 46.6117C129.157 41.287 127.769 36.6623 124.969 32.5749ZM112.268 43.7744C111.043 43.7744 110.043 42.6619 110.043 41.2995C110.043 39.9371 111.018 38.8246 112.268 38.8246C113.506 38.8246 114.518 39.9371 114.493 41.2995C114.493 42.6619 113.506 43.7744 112.268 43.7744ZM120.482 43.7744C119.257 43.7744 118.255 42.6619 118.255 41.2995C118.255 39.9371 119.232 38.8246 120.482 38.8246C121.719 38.8246 122.732 39.9371 122.707 41.2995C122.707 42.6619 121.732 43.7744 120.482 43.7744Z" fill="#5862E3"/>
<path d="M137.281 34.9243H142.595C143.87 34.9243 144.957 35.1243 145.845 35.5243C146.732 35.9243 147.395 36.4743 147.832 37.1867C148.269 37.8992 148.494 38.7116 148.494 39.6366C148.494 40.5366 148.27 41.3491 147.807 42.0865C147.345 42.8115 146.645 43.3989 145.707 43.8239C144.77 44.2489 143.607 44.4614 142.22 44.4614H137.281V34.9243ZM142.157 42.0365C143.02 42.0365 143.682 41.824 144.145 41.3866C144.607 40.9616 144.845 40.3616 144.845 39.6241C144.845 38.9366 144.632 38.3866 144.22 37.9742C143.807 37.5617 143.182 37.3492 142.345 37.3492H140.682V42.0365H142.157Z" fill="#5862E3"/>
<path d="M156.771 44.4495C156.033 44.262 155.371 43.987 154.783 43.612V41.3496C155.233 41.6996 155.821 41.9746 156.571 42.1996C157.321 42.4246 158.046 42.5371 158.746 42.5371C159.07 42.5371 159.32 42.4996 159.483 42.4121C159.645 42.3246 159.733 42.2246 159.733 42.0996C159.733 41.9621 159.683 41.8496 159.595 41.7621C159.508 41.6746 159.333 41.5996 159.07 41.5246L157.433 41.1622C156.496 40.9497 155.833 40.6372 155.433 40.2622C155.033 39.8872 154.846 39.3748 154.846 38.7497C154.846 38.2247 155.021 37.7623 155.358 37.3748C155.708 36.9873 156.196 36.6873 156.833 36.4748C157.471 36.2624 158.208 36.1499 159.07 36.1499C159.833 36.1499 160.533 36.2249 161.17 36.3999C161.808 36.5623 162.333 36.7748 162.745 37.0248V39.1623C162.32 38.9122 161.82 38.7122 161.27 38.5622C160.708 38.4122 160.133 38.3372 159.545 38.3372C158.695 38.3372 158.271 38.4872 158.271 38.7747C158.271 38.9122 158.333 39.0122 158.471 39.0873C158.608 39.1623 158.845 39.2248 159.195 39.2998L160.558 39.5498C161.445 39.6997 162.108 39.9747 162.545 40.3622C162.983 40.7497 163.195 41.3121 163.195 42.0746C163.195 42.8996 162.833 43.562 162.108 44.037C161.383 44.5245 160.358 44.762 159.033 44.762C158.258 44.737 157.508 44.637 156.771 44.4495Z" fill="#5862E3"/>
<path d="M166.573 44.1623C165.798 43.7748 165.198 43.2624 164.81 42.6124C164.41 41.9624 164.223 41.2249 164.223 40.3999C164.223 39.5875 164.423 38.85 164.835 38.2126C165.248 37.5626 165.848 37.0626 166.635 36.6877C167.422 36.3252 168.372 36.1377 169.472 36.1377C170.835 36.1377 171.96 36.4252 172.86 37.0001V39.4875C172.547 39.275 172.172 39.0875 171.747 38.9625C171.322 38.825 170.872 38.7625 170.397 38.7625C169.547 38.7625 168.897 38.9125 168.41 39.225C167.935 39.5375 167.697 39.9375 167.697 40.4374C167.697 40.9249 167.922 41.3249 168.397 41.6374C168.86 41.9498 169.535 42.1123 170.41 42.1123C170.86 42.1123 171.31 42.0499 171.747 41.9124C172.185 41.7749 172.572 41.6249 172.885 41.4249V43.8373C171.885 44.4373 170.722 44.7373 169.41 44.7373C168.297 44.7373 167.36 44.5373 166.573 44.1623Z" fill="#5862E3"/>
<path d="M176.423 44.1623C175.635 43.7748 175.036 43.2623 174.623 42.5998C174.211 41.9373 173.998 41.1999 173.998 40.3749C173.998 39.5625 174.211 38.825 174.623 38.1876C175.036 37.5501 175.635 37.0501 176.41 36.6877C177.185 36.3252 178.123 36.1377 179.199 36.1377C180.274 36.1377 181.211 36.3127 181.986 36.6877C182.761 37.0501 183.361 37.5501 183.774 38.1876C184.186 38.825 184.386 39.55 184.386 40.3749C184.386 41.1874 184.186 41.9373 183.774 42.5998C183.361 43.2623 182.774 43.7873 181.986 44.1623C181.199 44.5373 180.274 44.7373 179.199 44.7373C178.135 44.7373 177.21 44.5373 176.423 44.1623ZM180.561 41.7499C180.886 41.425 181.061 40.9749 181.061 40.4374C181.061 39.8875 180.899 39.4625 180.561 39.1375C180.224 38.8125 179.774 38.65 179.212 38.65C178.624 38.65 178.173 38.8125 177.835 39.1375C177.51 39.4625 177.335 39.8875 177.335 40.4374C177.335 40.9874 177.498 41.425 177.835 41.7499C178.173 42.0874 178.624 42.2498 179.212 42.2498C179.774 42.2373 180.237 42.0749 180.561 41.7499Z" fill="#5862E3"/>
<path d="M192.749 36.6372V39.5746C192.399 39.3496 191.949 39.2371 191.399 39.2371C190.674 39.2371 190.111 39.4621 189.724 39.8995C189.336 40.337 189.136 41.0245 189.136 41.9495V44.4494H185.799V36.4997H189.074V39.0371C189.249 38.1121 189.549 37.4247 189.949 36.9872C190.349 36.5497 190.874 36.3123 191.511 36.3123C191.986 36.3123 192.399 36.4248 192.749 36.6372Z" fill="#5862E3"/>
<path d="M204 34.6497V44.4616H200.663V42.6742C200.375 43.3492 199.95 43.8617 199.375 44.2117C198.8 44.5617 198.087 44.7367 197.237 44.7367C196.487 44.7367 195.825 44.5492 195.262 44.1867C194.7 43.8242 194.262 43.3117 193.962 42.6742C193.662 42.0243 193.512 41.2993 193.512 40.4994C193.5 39.6619 193.662 38.912 194 38.2495C194.325 37.5871 194.8 37.0746 195.4 36.6996C196 36.3246 196.687 36.1371 197.462 36.1371C199.05 36.1371 200.113 36.8246 200.663 38.212V34.6497H204ZM200.163 41.6868C200.5 41.3618 200.675 40.9243 200.675 40.3994C200.675 39.8869 200.513 39.4744 200.175 39.162C199.838 38.8495 199.388 38.687 198.825 38.687C198.262 38.687 197.812 38.8495 197.475 39.1745C197.137 39.4994 196.975 39.9119 196.975 40.4369C196.975 40.9618 197.137 41.3743 197.475 41.6993C197.812 42.0243 198.25 42.1868 198.812 42.1868C199.375 42.1868 199.825 42.0243 200.163 41.6868Z" fill="#5862E3"/>
<path d="M151.571 36.9752C152.53 36.9752 153.309 36.2756 153.309 35.4128C153.309 34.5498 152.53 33.8503 151.571 33.8503C150.611 33.8503 149.834 34.5498 149.834 35.4128C149.834 36.2756 150.611 36.9752 151.571 36.9752Z" fill="#5862E3"/>
<path d="M153.309 38.0491C152.246 38.5115 150.921 38.524 149.834 38.0491V44.4613H153.309V38.0491Z" fill="#5862E3"/>
</g></svg>