<svg width="227" height="53" viewBox="0 0 227 53" fill="none" xmlns="http://www.w3.org/2000/svg">
<path fill-rule="evenodd" clip-rule="evenodd" d="M4.51587 30.5606C4.51587 35.38 17.0349 39.2917 32.4802 39.2917V48.0193C17.0349 48.0193 4.51587 44.1111 4.51587 39.2917V30.5606ZM60.4534 30.5606V39.29C60.4534 41.3476 58.1658 43.2353 54.3567 44.7286L32.4785 39.29V30.5606L54.3567 35.9974C58.1658 34.506 60.4552 32.6182 60.4534 30.5606ZM32.4802 4.36548C47.9273 4.36548 60.4534 8.28077 60.4534 13.0966V21.833C60.4534 23.8836 58.1658 25.7784 54.3585 27.2646L32.4802 21.833V30.5606C17.0349 30.5606 4.51587 26.6506 4.51587 21.833V13.0966C4.51587 8.28077 17.0349 4.36548 32.4802 4.36548Z" fill="#D33C44"/>
<path fill-rule="evenodd" clip-rule="evenodd" d="M84.6547 14.4908C89.03 14.4908 91.6519 15.9521 93.8051 18.0717L90.5568 21.8171C88.7663 20.193 86.9423 19.1987 84.6228 19.1987C80.7093 19.1987 77.8945 22.447 77.8945 26.4242V26.4932C77.8945 30.4704 80.6438 33.7859 84.6228 33.7859C87.2749 33.7859 88.8973 32.7261 90.7196 31.0666L93.9679 34.3468C91.5847 36.9015 88.9327 38.4938 84.4583 38.4938C77.6273 38.4938 72.5567 33.2215 72.5567 26.5569V26.4932C72.5567 19.8975 77.5282 14.4908 84.6547 14.4908ZM143.853 19.993C149.787 19.993 152.506 24.6019 152.506 29.6424V29.7079C152.506 30.205 152.474 30.504 152.441 30.9693H140.076C140.571 33.2551 142.163 34.4476 144.419 34.4476C146.11 34.4476 147.335 33.9151 148.727 32.6235L151.615 35.1783C149.953 37.2341 147.567 38.4938 144.352 38.4938C139.014 38.4938 135.065 34.7484 135.065 29.3115V29.2425C135.065 24.1702 138.681 19.993 143.853 19.993ZM104.875 20.1257C110.379 20.1257 112.801 22.976 112.801 27.7865V38.094H107.924V36.1726C106.699 37.5314 105.01 38.4266 102.554 38.4266C99.2083 38.4266 96.4554 36.5034 96.4554 32.9898V32.9208C96.4554 29.0409 99.4047 27.2504 103.614 27.2504C105.406 27.2504 106.699 27.5494 107.961 27.9793V27.6839C107.961 25.5979 106.667 24.4356 104.146 24.4356C102.225 24.4356 100.866 24.8018 99.2419 25.3962L97.9805 21.5517C99.9372 20.6866 101.86 20.1257 104.875 20.1257ZM122.178 13.891V26.7922L128.082 20.3257H134.113L127.351 27.3176L134.345 38.094H128.579L123.937 30.8348L122.178 32.6908V38.094H117.143V13.891H122.178ZM166.265 14.8871C171.8 14.8871 175.149 18.169 175.149 22.914V22.9777C175.147 28.3473 170.97 31.1321 165.765 31.1321H161.89V38.094H156.784V14.8871H166.265ZM184.03 14.8871V24.0711H193.446V14.8871H198.55V38.094H193.446V28.7737H184.03V38.094H178.926V14.8871H184.03ZM213.599 14.8871C219.133 14.8871 222.484 18.169 222.484 22.914V22.9777C222.486 28.3473 218.309 31.1321 213.106 31.1321H209.224V38.094H204.118V14.8871H213.599ZM104.811 30.2705C102.657 30.2705 101.328 31.1321 101.328 32.7244V32.7898C101.328 34.1468 102.457 34.943 104.079 34.943C106.432 34.943 108.026 33.655 108.026 31.8274V30.9339C107.166 30.5323 106.036 30.2705 104.811 30.2705ZM143.855 24.0393C141.767 24.0393 140.405 25.5307 140.008 27.8165H147.602C147.301 25.5608 145.976 24.0393 143.855 24.0393ZM165.832 19.4977H161.888V26.5958H165.933C168.484 26.5958 169.976 25.0654 169.976 23.0803V23.0096C169.976 20.7237 168.387 19.4977 165.832 19.4977ZM213.169 19.4977H209.224V26.5958H213.267C215.821 26.5958 217.313 25.0654 217.313 23.0803V23.0096C217.313 20.7237 215.722 19.4977 213.169 19.4977Z" fill="#D33C44"/>
</svg>
