<svg width="259" height="46" viewBox="0 0 259 46" fill="none" xmlns="http://www.w3.org/2000/svg">
<path d="M42.1196 23.0563C42.1196 33.4615 33.7419 41.8971 23.4071 41.8971C13.0724 41.8971 4.69531 33.4641 4.69531 23.0563C4.69531 12.6485 13.073 4.21613 23.4071 4.21613C33.7412 4.21613 42.1196 12.651 42.1196 23.0563ZM62.6473 23.0563C62.6473 32.8516 58.4582 40.7915 53.2911 40.7915C48.1241 40.7915 43.9349 32.849 43.9349 23.0563C43.9349 13.2635 48.1241 5.32108 53.2911 5.32108C58.4582 5.32108 62.6473 13.2635 62.6473 23.0563ZM71.0435 23.0563C71.0435 31.8324 69.57 38.9463 67.7527 38.9463C65.9355 38.9463 64.462 31.8298 64.462 23.0563C64.462 14.2827 65.9355 7.16628 67.7534 7.16628C69.5713 7.16628 71.0435 14.2808 71.0435 23.0563ZM122.687 5.84973L122.739 5.8383V5.43482H112.097L102.216 28.6586L92.335 5.43482H80.8673V5.8383L80.9188 5.84973C82.8612 6.28816 83.8474 6.94198 83.8474 9.29994V36.9048C83.8474 39.2627 82.8574 39.9165 80.915 40.355L80.8635 40.3664V40.7711H88.644V40.3677L88.5925 40.3562C86.6501 39.9178 85.6639 39.264 85.6639 36.906V10.9011L98.3573 40.7711H99.0772L112.14 10.0681V37.5878C111.974 39.4502 110.997 40.0252 109.238 40.4223L109.186 40.4344V40.8347H122.739V40.4344L122.687 40.4223C120.926 40.0252 119.925 39.4502 119.759 37.5878L119.75 9.29994H119.759C119.759 6.94198 120.745 6.28816 122.687 5.84973ZM128.877 24.1365C129.099 19.1766 130.88 15.5967 133.869 15.5351C134.791 15.5503 135.564 15.8528 136.165 16.4348C137.442 17.6745 138.043 20.265 137.95 24.1365H128.877ZM128.743 25.5343H144.628V25.4676C144.583 21.6749 143.484 18.7248 141.366 16.6991C139.535 14.9486 136.824 13.9854 133.976 13.9854H133.912C132.434 13.9854 130.621 14.3437 129.332 14.9931C127.863 15.673 126.568 16.6896 125.491 18.0239C123.756 20.1735 122.705 23.0785 122.45 26.3432C122.441 26.441 122.434 26.5389 122.427 26.6367C122.42 26.7346 122.416 26.8223 122.411 26.9157C122.389 27.3747 122.381 27.8343 122.389 28.2939C122.561 35.688 126.555 41.5972 133.649 41.5972C139.876 41.5972 143.502 37.0452 144.406 30.9352L143.95 30.7745C142.361 34.0582 139.508 36.0482 136.261 35.8055C131.829 35.4738 128.433 30.9797 128.741 25.5356L128.743 25.5343ZM162.588 35.5545C162.067 36.7904 160.98 37.4703 159.523 37.4703C158.066 37.4703 156.734 36.4701 155.788 34.6529C154.772 32.7022 154.237 29.9446 154.237 26.678C154.237 19.8793 156.351 15.4817 159.624 15.4817C160.995 15.4817 162.074 16.1616 162.588 17.3479V35.5545ZM173.126 40.4013C171.183 39.942 170.197 39.2576 170.197 36.7796V3.80884L158.396 7.28573V7.71145L158.468 7.70573C160.096 7.5742 161.201 7.79913 161.842 8.39132C162.344 8.85516 162.588 9.56681 162.588 10.5682V15.0884C161.425 14.3456 160.041 13.9841 158.362 13.9841C154.956 13.9841 151.843 15.4182 149.598 18.0227C147.258 20.7371 146.021 24.4465 146.021 28.7488C146.02 36.4327 149.803 41.5972 155.432 41.5972C158.726 41.5972 161.375 39.7926 162.588 36.7491V40.8347H173.177V40.4115L173.126 40.4013ZM183.247 8.29283C183.247 5.89358 181.438 4.08396 179.038 4.08396C176.65 4.08396 174.781 5.93297 174.781 8.29283C174.781 10.6527 176.652 12.5017 179.038 12.5017C181.438 12.5017 183.247 10.6921 183.247 8.29283ZM186.033 40.4013C184.09 39.942 183.104 39.2576 183.104 36.7796H183.096V14.0622L172.506 17.1026V17.5156L172.57 17.5213C174.861 17.7253 175.488 18.5145 175.488 21.192V40.8347H186.087V40.4115L186.033 40.4013ZM213.167 40.4013C211.225 39.942 210.239 39.2576 210.239 36.7796V14.0622L200.156 17.0022V17.4165L200.216 17.4229C202.089 17.6198 202.63 18.4541 202.63 21.1437V35.5037C202.006 36.7396 200.834 37.4734 199.415 37.523C197.113 37.523 195.845 35.9682 195.845 33.1451V14.0629L185.255 17.1032V17.5156L185.319 17.5213C187.61 17.7247 188.238 18.5138 188.238 21.192V33.3453C188.233 34.1937 188.306 35.0407 188.458 35.8754L188.649 36.7046C189.546 39.9172 191.895 41.5972 195.575 41.5972C198.692 41.5972 201.424 39.6675 202.628 36.6481V40.8417H213.217V40.4185L213.167 40.4013ZM254.305 40.8347V40.4109L254.253 40.3988C252.146 39.9127 251.325 38.9965 251.325 37.131V21.6781C251.325 16.8599 248.618 13.9841 244.086 13.9841C240.782 13.9841 237.995 15.8935 236.923 18.8677C236.071 15.7162 233.619 13.9841 229.993 13.9841C226.809 13.9841 224.313 15.6647 223.242 18.5037V14.0641L212.652 16.98V17.3955L212.716 17.4012C214.98 17.602 215.634 18.4141 215.634 21.023V40.8347H225.515V40.4115L225.463 40.3988C223.781 40.0036 223.239 39.283 223.239 37.434V19.7217C223.684 18.6828 224.58 17.4521 226.352 17.4521C228.553 17.4521 229.669 18.977 229.669 21.9812V40.8347H239.552V40.4115L239.5 40.3988C237.819 40.0036 237.276 39.283 237.276 37.434V21.6762C237.28 21.087 237.234 20.4985 237.136 19.9174C237.608 18.7883 238.556 17.4521 240.4 17.4521C242.632 17.4521 243.717 18.9332 243.717 21.9812V40.8347H254.305Z" fill="black"/>
</svg>
