<svg width="250" height="82" viewBox="0 0 250 82" fill="none" xmlns="http://www.w3.org/2000/svg">
<path d="M239.042 0V0.5H244C247.038 0.5 249.5 2.96243 249.5 6V10.667H250V15.333H249.5V24.667H250V29.333H249.5V38.667H250V43.333H249.5V52.667H250V57.333H249.5V66.667H250V71.333H249.5V76C249.5 79.0376 247.038 81.5 244 81.5H239.042V82H234.083V81.5H224.167V82H219.208V81.5H209.292V82H204.333V81.5H194.417V82H189.458V81.5H179.542V82H174.583V81.5H164.667V82H159.708V81.5H149.792V82H144.833V81.5H134.917V82H129.958V81.5H120.042V82H115.083V81.5H105.167V82H100.208V81.5H90.292V82H85.333V81.5H75.417V82H70.458V81.5H60.542V82H55.583V81.5H45.667V82H40.708V81.5H30.792V82H25.833V81.5H15.917V82H10.958V81.5H6C2.96243 81.5 0.5 79.0376 0.5 76V71.333H0V66.667H0.5V57.333H0V52.667H0.5V43.333H0V38.667H0.5V29.333H0V24.667H0.5V15.333H0V10.667H0.5V6C0.5 2.96243 2.96243 0.5 6 0.5H10.958V0H15.917V0.5H25.833V0H30.792V0.5H40.708V0H45.667V0.5H55.583V0H60.542V0.5H70.458V0H75.417V0.5H85.333V0H90.292V0.5H100.208V0H105.167V0.5H115.083V0H120.042V0.5H129.958V0H134.917V0.5H144.833V0H149.792V0.5H159.708V0H164.667V0.5H174.583V0H179.542V0.5H189.458V0H194.417V0.5H204.333V0H209.292V0.5H219.208V0H224.167V0.5H234.083V0H239.042Z" stroke="#722ED1" stroke-dasharray="10 5"/>
<g clip-path="url(#clip0_0_1504)">
<path fill-rule="evenodd" clip-rule="evenodd" d="M139 23.4481H146.593V43.8894C146.593 47.1244 148.068 49.0513 149.234 49.8774C147.999 50.9786 144.226 51.9422 141.413 49.6019C139.754 48.2225 139 45.9543 139 43.8205V23.4481ZM186.452 40.4282V38.2801H188.767V30.7437H186.224C185.248 26.2191 181.232 22.8286 176.43 22.8286C170.898 22.8286 166.413 27.3277 166.413 32.8772V50.4769C167.989 50.6991 169.867 50.4492 171.464 49.1203C173.123 47.7406 173.877 45.4726 173.877 43.3388V42.6904H177.669V35.1541H173.877V32.8772H173.886C173.886 31.4679 175.025 30.3254 176.43 30.3254C177.835 30.3254 178.978 31.4679 178.978 32.8772V40.4282C178.978 45.9778 183.468 50.4769 189 50.4769V42.9801C187.595 42.9801 186.452 41.8376 186.452 40.4282ZM157.695 30.7437V41.8041C157.695 42.432 157.176 42.941 156.535 42.941C155.894 42.941 155.375 42.432 155.375 41.8041V30.7437H147.862V43.7519C147.862 46.0918 148.653 49.0513 152.253 50.0149C155.857 50.9796 157.948 48.9827 157.948 48.9827C157.757 50.2982 156.522 51.2618 154.533 51.4683C153.027 51.6244 151.102 51.1243 150.142 50.7112V57.603C152.589 58.3269 155.177 58.5608 157.71 58.0677C162.307 57.173 165.208 53.3188 165.208 48.1911V30.7437H157.695Z" fill="#EA0B8C"/>
</g>
<g clip-path="url(#clip1_0_1504)">
<path fill-rule="evenodd" clip-rule="evenodd" d="M20 12.6903H32.4521V46.156C32.4521 51.4521 34.8713 54.6069 36.7843 55.9592C34.759 57.7621 28.5702 59.3397 23.9568 55.5083C21.2369 53.25 20 49.5365 20 46.0432V12.6903ZM97.8207 40.4895V36.9726H101.618V24.6344H97.4479C95.8469 17.2268 89.2612 11.676 81.3853 11.676C72.3121 11.676 64.9572 19.0417 64.9572 28.1272V56.9407C67.5421 57.3045 70.6216 56.8955 73.2417 54.7197C75.9612 52.461 77.1981 48.7479 77.1981 45.2546V44.1931H83.4171V31.8549H77.1981V28.1272H77.213C77.213 25.82 79.0808 23.9495 81.3853 23.9495C83.6893 23.9495 85.5645 25.82 85.5645 28.1272V40.4895C85.5645 49.575 92.9273 56.9407 102 56.9407V44.6672C99.696 44.6672 97.8207 42.7968 97.8207 40.4895ZM50.6601 24.6344V42.742C50.6601 43.77 49.8084 44.6033 48.7575 44.6033C47.7066 44.6033 46.8549 43.77 46.8549 42.742V24.6344H34.5337V45.9308C34.5337 49.7617 35.8311 54.6069 41.7353 56.1845C47.6457 57.7637 51.0744 54.4945 51.0744 54.4945C50.762 56.6483 48.7364 58.2258 45.4734 58.5639C43.0045 58.8195 39.8472 58.0006 38.2722 57.3244V68.6073C42.2854 69.7925 46.5301 70.1754 50.6841 69.3681C58.2229 67.9034 62.9809 61.5934 62.9809 53.1986V24.6344H50.6601Z" fill="#EA0B8C"/>
</g>
<defs>
<clipPath id="clip0_0_1504">
<rect width="50" height="35.4271" fill="white" transform="translate(139 23)"/>
</clipPath>
<clipPath id="clip1_0_1504">
<rect width="82" height="58" fill="white" transform="translate(20 12)"/>
</clipPath>
</defs>
</svg>
