<svg width="235" height="51" viewBox="0 0 235 51" fill="none" xmlns="http://www.w3.org/2000/svg">
<path d="M82.1456 16.2239H87.6656V38.6595H82.1456V35.9193C80.6849 38.0886 78.3534 39.1732 75.1509 39.1732C72.0329 39.1732 69.5609 38.0601 67.735 35.8335C65.9089 33.6071 64.9959 30.8101 64.9961 27.4424C64.9961 24.0742 65.9091 21.277 67.735 19.0505C69.5607 16.824 72.0327 15.7106 75.1509 15.7102C78.3534 15.7102 80.6849 16.7949 82.1456 18.9642V16.2239ZM80.3338 32.0233C81.3451 30.8242 81.851 29.297 81.851 27.4414C81.851 25.5859 81.3521 24.059 80.3546 22.8607C79.3575 21.6616 78.0444 21.0621 76.4151 21.0621C74.7859 21.0621 73.4726 21.6616 72.4753 22.8607C71.478 24.0596 70.9795 25.5868 70.9795 27.4424C70.9795 29.298 71.478 30.8253 72.4753 32.0241C73.4724 33.223 74.7857 33.8225 76.4148 33.8226C78.044 33.8226 79.3505 33.2228 80.3338 32.0233ZM98.7474 12.285C98.0732 12.9701 97.2023 13.3126 96.135 13.3126C95.0674 13.3126 94.1966 12.9701 93.5224 12.285C93.1876 11.9428 92.925 11.5345 92.7511 11.0853C92.5771 10.6362 92.4955 10.1556 92.5111 9.6732C92.4968 9.18773 92.5789 8.7043 92.7526 8.25184C92.9264 7.79938 93.1882 7.38721 93.5224 7.04C93.8628 6.69111 94.2708 6.41775 94.7204 6.23719C95.1701 6.05662 95.6517 5.97278 96.135 5.99097C96.6181 5.97276 97.0996 6.05659 97.5494 6.23715C97.999 6.41772 98.4068 6.6911 98.7472 7.04C99.0815 7.38721 99.3433 7.79938 99.5171 8.25184C99.6909 8.7043 99.773 9.18773 99.7585 9.6732C99.7742 10.1556 99.6927 10.6361 99.5187 11.0852C99.3447 11.5343 99.0824 11.9426 98.7474 12.2848V12.285ZM93.1432 38.6595V16.2239H99.1268V38.6595H93.1432ZM117.077 16.0527V21.7472C116.689 21.6651 116.293 21.622 115.897 21.6187C114.127 21.6187 112.8 22.0897 111.915 23.0317C111.03 23.9736 110.588 25.4579 110.588 27.4845V38.6594H104.604V16.2239H110.123V19.1354C111.387 17.0517 113.466 16.0099 116.36 16.0099L117.077 16.0527ZM128.833 16.2241H132.246V21.0191H128.833V38.6594H122.85V21.0193H119.688V16.2239H122.85V14.4257C122.85 11.7997 123.517 9.8301 124.852 8.51706C126.186 7.20403 128.019 6.54751 130.351 6.54751L132.121 6.6332V11.8568C131.813 11.8205 131.503 11.8062 131.193 11.8137C129.62 11.8137 128.834 12.6415 128.834 14.297L128.833 16.2241ZM153.862 35.7909C151.727 38.0459 148.932 39.1734 145.477 39.1734C142.021 39.1734 139.226 38.039 137.091 35.7698C134.956 33.5002 133.889 30.7245 133.889 27.4424C133.889 24.1603 134.956 21.3842 137.091 19.114C139.226 16.8448 142.021 15.7102 145.476 15.7102C148.932 15.7102 151.727 16.8448 153.862 19.114C155.997 21.3833 157.064 24.1595 157.064 27.4424C157.064 30.7253 155.997 33.5082 153.862 35.7909ZM141.432 22.7747C140.392 23.9167 139.873 25.4722 139.873 27.4419C139.873 29.4114 140.4 30.9671 141.454 32.1087C142.508 33.2504 143.849 33.8214 145.478 33.8214C147.106 33.8214 148.448 33.2504 149.502 32.1087C150.555 30.9669 151.082 29.4112 151.083 27.4417C151.083 25.472 150.556 23.9165 149.502 22.7747C148.448 21.633 147.107 21.0621 145.478 21.0621C143.849 21.0621 142.5 21.633 141.432 22.7747ZM162.879 35.8335C160.801 33.5786 159.762 30.7816 159.762 27.4424C159.762 24.1032 160.808 21.3132 162.901 19.0723C164.994 16.8317 167.641 15.7113 170.844 15.7112C173.99 15.7112 176.469 16.6103 178.281 18.4087C180.093 20.207 181.125 22.2193 181.378 24.4457H175.225C175.005 23.4821 174.452 22.631 173.666 22.0474C172.842 21.4162 171.833 21.0845 170.8 21.1056C169.227 21.1056 167.991 21.6836 167.092 22.8397C166.192 23.9958 165.743 25.53 165.744 27.4424C165.744 29.3548 166.194 30.8892 167.093 32.0453C167.992 33.2014 169.228 33.7793 170.801 33.7793C171.833 33.8004 172.842 33.4686 173.667 32.8374C174.452 32.254 175.006 31.403 175.226 30.4398H181.377C181.125 32.6662 180.092 34.6786 178.281 36.4768C176.469 38.2749 173.99 39.1741 170.843 39.1743C167.64 39.1736 164.986 38.0601 162.879 35.8335ZM202.444 36.7755C200.761 38.374 198.26 39.173 194.944 39.173C191.631 39.173 189.13 38.374 187.444 36.7755C185.759 35.1771 184.917 32.6082 184.917 29.0689V16.2239H190.899V29.1543C190.899 32.2087 192.248 33.736 194.944 33.736C197.641 33.736 198.99 32.2087 198.99 29.1543V16.2239H204.974V29.0689C204.974 32.6082 204.13 35.1771 202.444 36.7756V36.7755ZM218.078 39.173C212.067 39.173 208.877 36.5756 208.514 31.3805H214.582C214.603 31.7761 214.7 32.1635 214.87 32.5202C215.041 32.8767 215.279 33.1952 215.572 33.4572C216.175 34.0137 217.067 34.2921 218.246 34.2921C219.371 34.2921 220.227 34.1065 220.817 33.7355C221.407 33.3645 221.703 32.865 221.703 32.237C221.703 31.5518 221.28 31.0453 220.438 30.7171C219.448 30.35 218.424 30.0847 217.383 29.9249C216.169 29.7205 214.966 29.4491 213.78 29.1116C212.578 28.773 211.506 28.0712 210.704 27.0994C209.861 26.1 209.44 24.7727 209.44 23.1171C209.44 21.0335 210.254 19.278 211.883 17.8507C213.513 16.4234 215.647 15.7099 218.288 15.71C221.294 15.71 223.528 16.4807 224.988 18.0221C226.448 19.5635 227.234 21.319 227.348 23.2886H221.575C221.552 22.919 221.458 22.5578 221.294 22.2267C221.132 21.8957 220.904 21.6014 220.627 21.3618C220.05 20.8478 219.257 20.5909 218.246 20.591C217.291 20.591 216.547 20.798 216.012 21.2119C215.764 21.3869 215.562 21.6206 215.422 21.8929C215.282 22.165 215.21 22.4677 215.212 22.7746C215.212 23.4598 215.633 23.9591 216.477 24.2732C217.467 24.6242 218.491 24.8754 219.532 25.0226C220.74 25.2114 221.935 25.4761 223.112 25.8149C224.316 26.163 225.383 26.8809 226.167 27.8698C227.011 28.8973 227.432 30.2676 227.432 31.9801C227.432 34.0638 226.597 35.7835 224.925 37.1394C223.254 38.4953 220.971 39.1732 218.077 39.1732L218.078 39.173Z" fill="#3C4453"/>
<path d="M47.2855 25.0268C46.0176 23.0139 44.2567 21.358 42.1697 20.2161C40.0827 19.0742 37.7388 18.4841 35.3599 18.5015C32.981 18.519 30.6459 19.1436 28.576 20.3161C26.506 21.4886 24.7697 23.1701 23.5315 25.2015V25.3412C22.8395 26.5507 22.4667 27.9165 22.4484 29.3099C22.4301 30.7033 22.7667 32.0784 23.4267 33.3058C24.0868 34.5129 25.0414 35.5334 26.2019 36.2724C27.3623 37.0115 28.6909 37.445 30.0638 37.5326C27.6988 37.4622 25.391 36.788 23.3601 35.5739C21.3292 34.3598 19.6428 32.6463 18.4611 30.5963C17.2795 28.5464 16.642 26.2282 16.6092 23.8623C16.5765 21.4964 17.1497 19.1615 18.2742 17.0797L23.2695 8.34659C23.9997 7.08459 25.049 6.03681 26.3121 5.3084C27.5751 4.57998 29.0075 4.19653 30.4656 4.19653C31.9236 4.19653 33.356 4.57998 34.6191 5.3084C35.8821 6.03681 36.9314 7.08459 37.6616 8.34659L47.2855 25.0268Z" fill="#51D7FF"/>
<path d="M32.4566 44.3094C30.4637 45.4672 28.211 46.104 25.9068 46.1608H15.8638C14.4067 46.1606 12.9754 45.7766 11.7138 45.0475C10.4523 44.3185 9.40495 43.27 8.67728 42.0076C7.9496 40.7453 7.56722 39.3135 7.56861 37.8565C7.56999 36.3994 7.95509 34.9684 8.68516 33.7074L18.2741 17.0796C17.1496 19.1614 16.5764 21.4963 16.6092 23.8622C16.6419 26.2281 17.2794 28.5463 18.461 30.5963C19.6427 32.6462 21.3292 34.3597 23.3601 35.5738C25.3909 36.7879 27.6987 37.4622 30.0638 37.5325H30.483C31.892 37.5334 33.2768 37.1661 34.5002 36.4671C35.732 35.7765 36.7571 34.7695 37.4694 33.5502C38.1976 32.341 38.5952 30.9617 38.6222 29.5504C38.6411 28.1446 38.3046 26.7568 37.6441 25.5158C39.4166 28.7054 39.8605 32.4651 38.8796 35.9798C37.8988 39.4945 35.5722 42.481 32.4042 44.2919L32.4566 44.3094Z" fill="#318EFF"/>
<path d="M45.1022 46.1609H25.8894C28.2741 46.0909 30.6011 45.4114 32.6488 44.1873C34.6867 42.9508 36.3744 41.2136 37.5514 39.1409C38.7284 37.0681 39.3556 34.7287 39.3733 32.3452C39.3813 29.9628 38.7801 27.6179 37.6267 25.5334C36.9397 24.276 35.9337 23.2218 34.7098 22.4768C33.4964 21.7249 32.1024 21.3146 30.6752 21.2891C29.246 21.2581 27.8338 21.6032 26.58 22.2898C25.3263 22.9765 24.275 23.9806 23.5315 25.2015C24.7536 23.1497 26.4841 21.4478 28.5561 20.2601C30.628 19.0725 32.9712 18.4393 35.3593 18.4218C37.7474 18.4042 40.0996 19.0029 42.1888 20.1599C44.278 21.3169 46.0334 22.9932 47.2855 25.0268L52.2983 33.7599C53.0161 35.0208 53.3907 36.4479 53.3847 37.8988C53.3787 39.3496 52.9923 40.7736 52.2641 42.0285C51.5359 43.2834 50.4914 44.3254 49.2347 45.0505C47.978 45.7756 46.5531 46.1585 45.1022 46.1609Z" fill="#FFD400"/>
</svg>
