<svg width="184" height="65" viewBox="0 0 184 65" fill="none" xmlns="http://www.w3.org/2000/svg">
<path d="M16.4484 5.56274H7.31995V25.3733H16.4484V5.56274Z" fill="#FF6B00"/>
<path d="M7.31995 34.502V49.457C7.31995 56.2548 12.5639 58.7796 16.4484 58.7796H20.9155V49.457H16.4484V34.502H7.31995Z" fill="#FF6B00"/>
<path d="M4.59998 25.3733H8.13768V34.5017H4.59998V25.3733Z" fill="#05CE7C"/>
<path d="M15.9067 25.3733H20.9149V34.5017H15.9067V25.3733Z" fill="#05CE7C"/>
<path d="M16.4484 25.3733H7.31995V34.5017H16.4484V25.3733Z" fill="#055600"/>
<path d="M50.0484 43.6301L59.371 39.7457C58.1085 36.7546 56.8461 33.919 55.6808 32.3652L46.5524 36.2497L50.0484 43.6301Z" fill="#DA1800"/>
<path d="M38.3948 48.2915L35.093 40.9111L25.5762 44.7956C26.2948 47.7672 27.5184 50.4668 29.0722 52.3702L38.3948 48.2915Z" fill="#DA1800"/>
<path d="M46.5516 36.2495L55.68 32.3651C45.7747 18.3811 23.245 26.5384 25.5757 44.7953L35.0925 40.9108C35.9859 34.9482 42.2787 32.637 46.5516 36.2495Z" fill="#FF6B00"/>
<path d="M35.0928 40.9113C34.9667 42.4337 35.1064 43.7121 35.5058 44.8064C36.0285 46.2388 36.9962 47.3558 38.3946 48.2917L50.0479 43.6304C49.4458 40.7559 48.5135 38.2893 46.5519 36.25L35.0928 40.9113Z" fill="#DA3AB3"/>
<path d="M29.071 52.3702C35.9465 60.8577 48.1048 60.7218 55.8736 53.5356L50.047 46.3494C47.1336 49.6511 41.1128 50.2338 38.3937 48.2916" fill="#FF6B00"/>
<path d="M73.1598 25.7617V25.3733H64.0314V37.0266L73.1598 25.7617Z" fill="#DA3AB3"/>
<path d="M73.1593 25.762L72.4385 26.8115L72.6769 36.6913L73.1593 37.0268C74.0722 34.4243 76.733 33.7056 78.5976 35.4731L85.2011 28.8695C81.5497 25.4124 77.0632 24.6743 73.1593 25.762Z" fill="#00B3E3"/>
<path d="M73.1598 25.7617C68.3625 27.1018 64.4587 31.297 64.0314 37.0266V58.7794H73.1598V25.7617Z" fill="#00299F"/>
<path d="M112.392 25.3733H97.8252C84.7736 27.7234 86.036 46.2715 99.1848 46.5434H104.817C106.798 46.5434 106.798 49.651 104.817 49.651H91.6102V58.7794H104.817C111.887 58.0802 115.227 53.5937 115.305 48.4856C115.383 42.9115 111.362 37.415 104.623 37.415H98.7963C97.5145 36.9683 97.5145 35.0067 98.7963 34.5017H112.392V25.3733Z" fill="#FF4338"/>
<path d="M144.245 43.6301L153.567 39.7457C152.305 36.7546 151.042 33.919 149.877 32.3652L140.749 36.2497L144.245 43.6301Z" fill="#DA1800"/>
<path d="M132.591 48.2915L129.289 40.9111L119.772 44.7956C120.491 47.7672 121.715 50.4668 123.268 52.3702L132.591 48.2915Z" fill="#DA1800"/>
<path d="M140.75 36.2495L149.879 32.3651C139.973 18.3811 117.444 26.5384 119.774 44.7953L129.291 40.9108C130.185 34.9482 136.477 32.637 140.75 36.2495Z" fill="#FF6B00"/>
<path d="M129.291 40.9113C129 44.4267 130.127 46.6409 132.593 48.2917L144.246 43.6304C143.644 40.7559 142.712 38.2893 140.751 36.25L129.291 40.9113Z" fill="#DA3AB3"/>
<path d="M123.27 52.3702C130.145 60.8577 142.303 60.7218 150.072 53.5356L144.245 46.3494C141.332 49.6511 135.311 50.2338 132.592 48.2916" fill="#FF6B00"/>
<path d="M167.358 25.7617V25.3733H158.23V37.0266L167.358 25.7617Z" fill="#DA3AB3"/>
<path d="M167.358 25.762L167.118 26.2181V36.7171L167.358 37.0268C168.271 34.4243 170.932 33.7056 172.797 35.4731L179.4 28.8695C175.749 25.4124 171.262 24.6743 167.358 25.762Z" fill="#00B3E3"/>
<path d="M167.358 25.7617C162.561 27.1018 158.657 31.297 158.23 37.0266V58.7794H167.358V25.7617Z" fill="#00299F"/>
</svg>
