<svg  viewBox="20 16 220 50" fill="none" xmlns="http://www.w3.org/2000/svg"><defs>
<clipPath id="clip0_0_363">
<rect width="50" height="51.1834" fill="white" transform="translate(20 15)"/>
</clipPath>
<clipPath id="clip1_0_363">
<rect width="100" height="24.1619" fill="white" transform="translate(92 29)"/>
</clipPath>
</defs><g clip-path="url(#clip0_0_363)">
<path d="M54.258 48.1701C52.6411 49.605 50.6219 51.3905 46.9606 51.3905H44.7713C42.1219 51.3905 39.7121 50.4275 37.9873 48.6819C36.3023 46.9763 35.3748 44.642 35.3748 42.108V39.1124C35.3748 36.5784 36.3023 34.2441 37.9873 32.5384C39.7121 30.7929 42.1219 29.8313 44.7713 29.8313H46.9606C50.6263 29.8313 52.6411 31.6154 54.258 33.0503C55.937 34.5296 57.3852 35.8225 61.2476 35.8225C61.8367 35.8223 62.4248 35.7753 63.0065 35.6819L62.9932 35.6479C62.7618 35.0734 62.4905 34.5158 62.181 33.9793L59.5997 29.5074C58.4356 27.4914 56.7614 25.8174 54.7454 24.6536C52.7293 23.4898 50.4424 22.8771 48.1145 22.8772H42.9503C40.6223 22.8771 38.3355 23.4898 36.3194 24.6536C34.3034 25.8174 32.6291 27.4914 31.4651 29.5074L28.8837 33.9793C27.72 35.9954 27.1074 38.2824 27.1074 40.6102C27.1074 42.938 27.72 45.225 28.8837 47.2411L31.4651 51.713C32.6291 53.729 34.3034 55.4029 36.3194 56.5668C38.3355 57.7306 40.6223 58.3433 42.9503 58.3432H48.1145C50.4424 58.3433 52.7293 57.7306 54.7454 56.5668C56.7614 55.4029 58.4356 53.729 59.5997 51.713L62.181 47.2485C62.4905 46.712 62.7618 46.1544 62.9932 45.5799L63.0065 45.5473C62.4251 45.4507 61.837 45.4013 61.2476 45.3994C57.3852 45.3994 55.937 46.6849 54.258 48.1716" fill="#006BFF"/>
<path d="M46.9592 32.5459H44.7698C40.7373 32.5459 38.0879 35.4261 38.0879 39.1125V42.108C38.0879 45.7944 40.7373 48.6746 44.7698 48.6746H46.9592C52.8349 48.6746 52.3734 42.6835 61.2462 42.6835C62.0869 42.6824 62.9258 42.7598 63.7521 42.9142C64.0213 41.39 64.0213 39.8304 63.7521 38.3063C62.9256 38.46 62.0869 38.5372 61.2462 38.537C52.3704 38.537 52.8349 32.5459 46.9592 32.5459Z" fill="#006BFF"/>
<path d="M68.8506 45.1036C67.3397 43.997 65.5971 43.2479 63.7545 42.9128C63.7545 42.9291 63.7545 42.9424 63.7545 42.9572C63.5959 43.8405 63.3479 44.7053 63.0148 45.5385C64.537 45.7743 65.9812 46.369 67.2278 47.2738C67.2278 47.2856 67.2204 47.3004 67.216 47.3137C65.6114 52.5093 62.1966 56.9569 57.5916 59.8488C52.9867 62.7406 47.4972 63.8848 42.1204 63.0735C36.7437 62.2621 31.8362 59.549 28.2896 55.4272C24.7431 51.3053 22.7926 46.048 22.7926 40.6103C22.7926 35.1726 24.7431 29.9153 28.2896 25.7934C31.8362 21.6715 36.7437 18.9585 42.1204 18.1471C47.4972 17.3358 52.9867 18.48 57.5916 21.3718C62.1966 24.2637 65.6114 28.7113 67.216 33.9069C67.216 33.9202 67.2234 33.935 67.2278 33.9468C65.9814 34.8516 64.537 35.4459 63.0148 35.6806C63.3477 36.5149 63.5954 37.3807 63.7545 38.2649C63.7536 38.2786 63.7536 38.2925 63.7545 38.3063C65.5971 37.9718 67.3395 37.2232 68.8506 36.1169C70.3033 35.0415 70.0222 33.827 69.8018 33.1081C68.0058 27.2828 64.1795 22.2951 59.0182 19.0515C53.8571 15.8078 47.7034 14.5233 41.6756 15.4314C35.6478 16.3396 30.1458 19.3801 26.1694 24.0005C22.1929 28.6208 20.006 34.5144 20.006 40.6103C20.006 46.7061 22.1929 52.5998 26.1694 57.2201C30.1458 61.8405 35.6478 64.881 41.6756 65.7891C47.7034 66.6973 53.8571 65.4128 59.0182 62.1692C64.1795 58.9254 68.0058 53.9378 69.8018 48.1125C70.0222 47.3936 70.3033 46.1791 68.8506 45.1036Z" fill="#006BFF"/>
<path d="M63.0067 35.6806C62.4253 35.7772 61.8371 35.8266 61.2478 35.8285C57.3854 35.8285 55.9371 34.543 54.2596 33.0564C52.6413 31.6214 50.6265 29.8359 46.9608 29.8359H44.7714C42.1206 29.8359 39.7123 30.799 37.9874 32.5445C36.3025 34.2501 35.375 36.5845 35.375 39.1185V42.114C35.375 44.6481 36.3025 46.9824 37.9874 48.688C39.7123 50.4336 42.1206 51.3951 44.7714 51.3951H46.9608C50.6265 51.3951 52.6413 49.6111 54.2596 48.1762C55.9371 46.6969 57.3854 45.404 61.2478 45.404C61.8368 45.4041 62.425 45.4512 63.0067 45.5445C63.3405 44.7115 63.5883 43.8466 63.7463 42.9632C63.7472 42.9484 63.7472 42.9336 63.7463 42.9188C62.9198 42.7655 62.0809 42.6887 61.2404 42.6895C52.3646 42.6895 52.8291 48.6821 46.9534 48.6821H44.7641C40.7315 48.6821 38.0821 45.8004 38.0821 42.114V39.1126C38.0821 35.4262 40.7315 32.546 44.7641 32.546H46.9534C52.8291 32.546 52.3676 38.5356 61.2404 38.5356C62.0811 38.5371 62.92 38.4603 63.7463 38.3064C63.7463 38.293 63.7463 38.2797 63.7463 38.2649C63.5873 37.3808 63.3395 36.5149 63.0067 35.6806Z" fill="#0AE8F0"/>
<path d="M63.0067 35.6806C62.4253 35.7772 61.8371 35.8266 61.2478 35.8285C57.3854 35.8285 55.9371 34.543 54.2596 33.0564C52.6413 31.6214 50.6265 29.8359 46.9608 29.8359H44.7714C42.1206 29.8359 39.7123 30.799 37.9874 32.5445C36.3025 34.2501 35.375 36.5845 35.375 39.1185V42.114C35.375 44.6481 36.3025 46.9824 37.9874 48.688C39.7123 50.4336 42.1206 51.3951 44.7714 51.3951H46.9608C50.6265 51.3951 52.6413 49.6111 54.2596 48.1762C55.9371 46.6969 57.3854 45.404 61.2478 45.404C61.8368 45.4041 62.425 45.4512 63.0067 45.5445C63.3405 44.7115 63.5883 43.8466 63.7463 42.9632C63.7472 42.9484 63.7472 42.9336 63.7463 42.9188C62.9198 42.7655 62.0809 42.6887 61.2404 42.6895C52.3646 42.6895 52.8291 48.6821 46.9534 48.6821H44.7641C40.7315 48.6821 38.0821 45.8004 38.0821 42.114V39.1126C38.0821 35.4262 40.7315 32.546 44.7641 32.546H46.9534C52.8291 32.546 52.3676 38.5356 61.2404 38.5356C62.0811 38.5371 62.92 38.4603 63.7463 38.3064C63.7463 38.293 63.7463 38.2797 63.7463 38.2649C63.5873 37.3808 63.3395 36.5149 63.0067 35.6806Z" fill="#0AE8F0"/>
</g><g clip-path="url(#clip1_0_363)">
<path d="M151.358 38.5217C152.909 38.5217 154.378 39.4705 154.688 41.5204H147.781C148.07 39.7216 149.414 38.5217 151.358 38.5217ZM154.467 44.5533C153.939 45.3756 152.92 46.0081 151.524 46.0081C149.6 46.0081 148.132 44.9537 147.781 43.0922H156.446C156.488 42.8254 156.509 42.5558 156.509 42.2858C156.509 39.3908 154.485 36.8259 151.359 36.8259C148.133 36.8259 145.941 39.2042 145.941 42.2655C145.941 45.3648 148.155 47.7051 151.483 47.7051C153.552 47.7051 155.123 46.7741 156.033 45.3648L154.467 44.5533Z" fill="#006BFF"/>
<path d="M145.09 32.3381H143.291V47.4355H145.09V32.3381Z" fill="#006BFF"/>
<path d="M166.519 41.0865V47.435H164.72V41.1896C164.72 39.4938 163.748 38.5425 162.156 38.5425C160.501 38.5425 159.157 39.5147 159.157 41.9549V47.435H157.357V37.096H159.157V38.5849C159.922 37.3648 161.06 36.8271 162.509 36.8271C164.929 36.8271 166.521 38.4401 166.521 41.0877" fill="#006BFF"/>
<path d="M176.44 42.265C176.44 40.1556 174.847 38.5629 172.759 38.5629C170.69 38.5629 169.098 40.1556 169.098 42.265C169.098 44.3744 170.69 45.9671 172.759 45.9671C174.846 45.9671 176.44 44.3744 176.44 42.265ZM178.239 32.3384V47.4358H176.44V45.6565C175.613 46.9216 174.289 47.7046 172.531 47.7046C169.656 47.7046 167.299 45.3257 167.299 42.265C167.299 39.2043 169.656 36.8254 172.531 36.8254C174.289 36.8254 175.613 37.611 176.44 38.8729V32.3384H178.239Z" fill="#006BFF"/>
<path d="M181.488 32.3381H179.689V47.4355H181.488V32.3381Z" fill="#006BFF"/>
<path d="M140.084 42.2648C140.084 40.1554 138.492 38.5627 136.403 38.5627C134.336 38.5627 132.743 40.1554 132.743 42.2648C132.743 44.3742 134.336 45.9669 136.403 45.9669C138.49 45.9669 140.084 44.3742 140.084 42.2648ZM141.884 37.0959V47.4349H140.084V45.6563C139.257 46.9213 137.934 47.7044 136.176 47.7044C133.301 47.7044 130.943 45.3255 130.943 42.2648C130.943 39.2041 133.301 36.8252 136.176 36.8252C137.934 36.8252 139.257 37.6108 140.084 38.8726V37.0959H141.884Z" fill="#006BFF"/>
<path d="M128.275 45.4452C127.354 45.785 126.36 45.8768 125.393 45.7112C124.425 45.5457 123.518 45.1286 122.762 44.502C122.007 43.8753 121.429 43.061 121.087 42.1406C120.746 41.2203 120.652 40.2263 120.816 39.2583C120.979 38.2904 121.394 37.3825 122.02 36.6256C122.645 35.8687 123.458 35.2895 124.378 34.9461C125.297 34.6026 126.291 34.507 127.259 34.6687C128.228 34.8305 129.137 35.2439 129.895 35.8677C130.211 36.1285 130.497 36.4238 130.747 36.7481L132.304 35.6096C131.397 34.4241 130.159 33.5345 128.746 33.0536C127.333 32.5727 125.809 32.5221 124.367 32.9083C122.925 33.2944 121.63 34.0999 120.647 35.2227C119.663 36.3455 119.035 37.735 118.843 39.2151C118.65 40.6952 118.9 42.1992 119.563 43.5365C120.226 44.8739 121.271 45.9844 122.566 46.7272C123.86 47.47 125.346 47.8117 126.835 47.709C128.324 47.6063 129.75 47.0639 130.93 46.1504L129.894 44.5122C129.41 44.9109 128.863 45.2262 128.275 45.4452Z" fill="#006BFF"/>
<path d="M190.172 37.0959V42.9644C190.172 44.8619 189.069 46.0637 187.384 46.0637C185.699 46.0637 184.479 44.8619 184.479 42.9644V37.0959H182.658V42.7885C182.658 45.7715 184.517 47.7082 187.384 47.7082C189.863 47.7082 190.25 46.1396 190.25 46.1004V48.2117C190.25 50.3034 189.34 51.4849 187.442 51.4849C186.764 51.4883 186.108 51.245 185.596 50.8005C185.084 50.356 184.751 49.7405 184.659 49.0688L183.031 49.638C183.264 50.6333 183.827 51.5203 184.629 52.1546C185.431 52.789 186.423 53.1333 187.445 53.1314C190.389 53.1314 191.999 51.194 191.999 48.2117V37.0959H190.172Z" fill="#006BFF"/>
<path d="M106.648 43.1194C105.957 43.7329 105.093 44.4963 103.528 44.4963H102.592C101.459 44.4963 100.429 44.0846 99.691 43.3382C98.9706 42.6089 98.574 41.6108 98.574 40.5273V39.2465C98.574 38.163 98.9706 37.1649 99.691 36.4356C100.429 35.6893 101.459 35.2781 102.592 35.2781H103.528C105.095 35.2781 105.957 36.0409 106.648 36.6545C107.366 37.287 107.985 37.8398 109.637 37.8398C109.889 37.8397 110.14 37.8196 110.389 37.7797L110.383 37.7652C110.284 37.5195 110.168 37.2811 110.036 37.0517L108.932 35.1396C108.434 34.2776 107.718 33.5619 106.856 33.0642C105.994 32.5666 105.017 32.3046 104.021 32.3047H101.813C100.818 32.3046 99.8399 32.5666 98.9779 33.0642C98.1159 33.5619 97.4 34.2776 96.9023 35.1396L95.7986 37.0517C95.301 37.9137 95.0391 38.8916 95.0391 39.8869C95.0391 40.8822 95.301 41.8601 95.7986 42.7221L96.9023 44.6342C97.4 45.4962 98.1159 46.212 98.9779 46.7096C99.8399 47.2072 100.818 47.4692 101.813 47.4691H104.021C105.017 47.4692 105.994 47.2072 106.856 46.7096C107.718 46.212 108.434 45.4962 108.932 44.6342L110.036 42.7253C110.168 42.4959 110.284 42.2575 110.383 42.0118L110.389 41.9979C110.14 41.9566 109.889 41.9355 109.637 41.9347C107.985 41.9347 107.366 42.4843 106.648 43.12" fill="#006BFF"/>
<path d="M103.528 36.439H102.591C100.867 36.439 99.7344 37.6705 99.7344 39.2467V40.5275C99.7344 42.1037 100.867 43.3352 102.591 43.3352H103.528C106.04 43.3352 105.843 40.7736 109.636 40.7736C109.996 40.7732 110.354 40.8062 110.708 40.8722C110.823 40.2206 110.823 39.5537 110.708 38.902C110.354 38.9677 109.996 39.0007 109.636 39.0006C105.841 39.0006 106.04 36.439 103.528 36.439Z" fill="#006BFF"/>
<path d="M112.887 41.8082C112.241 41.335 111.496 41.0147 110.708 40.8715C110.708 40.8784 110.708 40.8841 110.708 40.8904C110.64 41.2681 110.534 41.6379 110.392 41.9942C111.042 42.095 111.66 42.3492 112.193 42.7361C112.193 42.7412 112.19 42.7475 112.188 42.7532C111.502 44.9747 110.042 46.8764 108.073 48.1129C106.104 49.3494 103.757 49.8386 101.458 49.4917C99.1586 49.1448 97.0603 47.9847 95.5438 46.2223C94.0274 44.4599 93.1934 42.212 93.1934 39.8869C93.1934 37.5619 94.0274 35.314 95.5438 33.5516C97.0603 31.7892 99.1586 30.6291 101.458 30.2822C103.757 29.9353 106.104 30.4245 108.073 31.661C110.042 32.8975 111.502 34.7992 112.188 37.0207C112.188 37.0264 112.191 37.0327 112.193 37.0378C111.66 37.4246 111.042 37.6788 110.392 37.7791C110.534 38.1358 110.64 38.506 110.708 38.8841C110.707 38.89 110.707 38.8959 110.708 38.9018C111.496 38.7588 112.241 38.4387 112.887 37.9657C113.508 37.5059 113.388 36.9866 113.293 36.6792C112.526 34.1884 110.89 32.0558 108.683 30.6689C106.476 29.2819 103.845 28.7327 101.267 29.121C98.69 29.5093 96.3375 30.8094 94.6372 32.785C92.937 34.7605 92.002 37.2805 92.002 39.8869C92.002 42.4934 92.937 45.0134 94.6372 46.9889C96.3375 48.9645 98.69 50.2646 101.267 50.6529C103.845 51.0412 106.476 50.4919 108.683 49.105C110.89 47.7181 112.526 45.5855 113.293 43.0947C113.388 42.7873 113.508 42.268 112.887 41.8082Z" fill="#006BFF"/>
<path d="M110.387 37.7791C110.138 37.8204 109.887 37.8415 109.635 37.8423C107.983 37.8423 107.364 37.2927 106.647 36.657C105.955 36.0435 105.093 35.28 103.526 35.28H102.59C101.457 35.28 100.427 35.6918 99.6893 36.4382C98.9688 37.1674 98.5723 38.1655 98.5723 39.249V40.5299C98.5723 41.6134 98.9688 42.6115 99.6893 43.3407C100.427 44.0871 101.457 44.4982 102.59 44.4982H103.526C105.093 44.4982 105.955 43.7354 106.647 43.1219C107.364 42.4894 107.983 41.9366 109.635 41.9366C109.887 41.9366 110.138 41.9568 110.387 41.9967C110.53 41.6405 110.636 41.2707 110.703 40.8929C110.704 40.8866 110.704 40.8803 110.703 40.874C110.35 40.8084 109.991 40.7756 109.632 40.7759C105.837 40.7759 106.035 43.3382 103.523 43.3382H102.587C100.863 43.3382 99.7298 42.1061 99.7298 40.5299V39.2465C99.7298 37.6703 100.863 36.4388 102.587 36.4388H103.523C106.035 36.4388 105.838 38.9998 109.632 38.9998C109.991 39.0005 110.35 38.9676 110.703 38.9018C110.703 38.8961 110.703 38.8904 110.703 38.8841C110.635 38.506 110.529 38.1358 110.387 37.7791Z" fill="#0AE8F0"/>
<path d="M110.387 37.7791C110.138 37.8204 109.887 37.8415 109.635 37.8423C107.983 37.8423 107.364 37.2927 106.647 36.657C105.955 36.0435 105.093 35.28 103.526 35.28H102.59C101.457 35.28 100.427 35.6918 99.6893 36.4382C98.9688 37.1674 98.5723 38.1655 98.5723 39.249V40.5299C98.5723 41.6134 98.9688 42.6115 99.6893 43.3407C100.427 44.0871 101.457 44.4982 102.59 44.4982H103.526C105.093 44.4982 105.955 43.7354 106.647 43.1219C107.364 42.4894 107.983 41.9366 109.635 41.9366C109.887 41.9366 110.138 41.9568 110.387 41.9967C110.53 41.6405 110.636 41.2707 110.703 40.8929C110.704 40.8866 110.704 40.8803 110.703 40.874C110.35 40.8084 109.991 40.7756 109.632 40.7759C105.837 40.7759 106.035 43.3382 103.523 43.3382H102.587C100.863 43.3382 99.7298 42.1061 99.7298 40.5299V39.2465C99.7298 37.6703 100.863 36.4388 102.587 36.4388H103.523C106.035 36.4388 105.838 38.9998 109.632 38.9998C109.991 39.0005 110.35 38.9676 110.703 38.9018C110.703 38.8961 110.703 38.8904 110.703 38.8841C110.635 38.506 110.529 38.1358 110.387 37.7791Z" fill="#0AE8F0"/>
</g></svg>