<svg width="184" height="65" viewBox="0 0 184 65" fill="none" xmlns="http://www.w3.org/2000/svg">
<path d="M31.6045 5.15088C27.9799 5.15088 24.5365 5.87581 21.3649 7.14444L22.8147 7.95999C23.9021 8.77554 25.0802 9.68171 25.9863 10.7691C27.5268 12.5814 27.7986 15.0281 28.5236 17.2935C29.0673 19.1965 29.611 20.7369 31.5139 21.6431C32.5107 22.0962 33.5981 22.4587 34.4137 23.1836C34.5949 23.3648 34.8667 23.5461 34.9574 23.9085C35.048 24.271 34.9574 24.7241 34.6855 25.0865C34.5043 25.3584 34.1418 25.6302 33.87 25.9927C32.8732 27.2613 33.6887 27.8957 34.4137 28.8924C35.1386 29.8892 34.8667 30.2517 34.2324 31.1579C34.0512 31.4297 33.87 31.7016 33.9606 32.064C34.0512 32.8796 35.3198 32.6077 35.7729 33.3327C36.0448 33.7857 35.8635 34.4201 35.6823 34.9638C35.6823 35.145 35.5917 35.2356 35.5917 35.4168C35.5917 35.6887 35.7729 35.8699 35.9541 36.0511C36.4978 36.7761 36.8603 38.1353 36.9509 39.1321C37.0415 39.857 36.8603 40.582 36.3166 41.0351C36.0448 41.3069 35.5917 41.4881 35.2292 41.5788C33.5981 42.1225 31.7858 42.1225 30.1547 42.7568C25.5332 44.4785 23.8115 49.6436 23.8115 54.0839C23.8115 55.4431 23.8115 56.893 24.3552 58.2522C26.6206 58.8865 29.0673 59.249 31.6045 59.249C46.6469 59.249 58.6989 47.1064 58.6989 32.1546C58.7895 17.2935 46.5563 5.15088 31.6045 5.15088V5.15088Z" fill="#6E6259"/>
<path d="M30.155 42.938C31.7861 42.3037 33.5984 42.3943 35.2295 41.76C35.592 41.6694 35.9545 41.4882 36.3169 41.2163C36.8606 40.7632 36.9513 40.0383 36.9513 39.3134C36.8606 38.4072 36.4982 37.0479 35.9545 36.2324C35.8639 36.0512 35.6826 35.8699 35.592 35.5981C35.592 35.4168 35.592 35.2356 35.6826 35.145C35.8639 34.6013 36.1357 33.967 35.7732 33.5139C35.3202 32.8796 34.0515 33.1514 33.9609 32.2453C33.9609 31.9734 34.0515 31.6109 34.2328 31.3391C34.8671 30.5235 35.1389 30.0705 34.414 29.0737C33.6891 28.0769 32.7829 27.4426 33.8703 26.1739C34.1421 25.9021 34.414 25.6302 34.6858 25.2678C34.8671 24.9959 35.0483 24.5428 34.9577 24.0898C34.8671 23.8179 34.6858 23.5461 34.414 23.3648C33.5984 22.6399 32.511 22.2774 31.5143 21.8243C29.6113 20.9182 29.0676 19.3777 28.5239 17.4747C27.8896 15.2093 27.5271 12.8533 25.9866 10.9503C25.0805 9.86295 23.9025 8.95678 22.8151 8.14123L21.3652 7.32568C21.3652 7.32568 22.9057 8.32247 23.3588 10.0442C23.7212 11.7659 23.6306 14.0313 23.7212 16.931C23.8118 20.4651 29.2488 24.5428 29.3395 26.627C29.4301 29.3455 25.9866 28.1675 25.9866 30.7048C25.9866 31.4297 26.2585 32.5171 26.2585 33.242C26.2585 34.0576 25.7148 35.2356 24.8992 34.9638C25.5336 35.145 26.0773 35.9605 25.9866 36.5949C25.896 37.3198 25.0805 37.7729 24.8086 38.4072C24.3555 39.3134 25.1711 40.4008 25.4429 41.3069C26.0773 43.5723 25.3523 45.6565 22.9963 46.4721C20.9121 47.197 19.0092 47.0158 17.8311 49.4624C16.8344 51.3654 17.7405 54.6276 18.0124 55.8962C19.9153 56.9836 22.0901 57.8898 24.3555 58.5241C23.9025 57.2555 23.8118 55.8056 23.8118 54.3557C23.9025 49.7343 25.5336 44.6597 30.155 42.938Z" fill="white"/>
<path d="M49.5458 39.7664C48.9115 39.7664 48.8209 39.4039 48.549 33.1513C48.549 32.3358 48.549 31.6109 48.4584 30.8859C48.3678 28.7111 48.1866 24.6334 47.9147 23.0929C47.6429 24.5428 47.4616 27.9862 47.371 29.7985C47.371 30.4328 47.371 31.0672 47.2804 31.7921C47.0992 36.9572 46.9179 37.5916 46.2836 37.5916C45.6493 37.5916 45.4681 36.776 45.2868 33.0607C45.2868 32.517 45.2868 31.9733 45.1962 31.5202C45.015 28.8017 44.8337 27.08 44.6525 26.2645C44.5619 26.8082 44.3807 28.0768 44.1088 30.6141C44.1088 30.8859 44.1088 31.2484 44.0182 31.6109C43.7463 35.0543 43.6557 35.7792 43.0214 35.7792C42.3871 35.7792 42.2059 34.8731 42.0246 32.6076C42.0246 32.3358 42.0246 32.0639 41.934 31.8827C41.7528 29.8891 41.5715 28.983 41.3903 28.6205C41.2997 28.983 41.0278 29.7079 40.8466 31.1578C40.4841 33.8763 40.3029 34.3294 39.8498 34.42C39.2155 34.42 39.0343 33.6044 38.7624 32.6076C38.6718 32.1546 38.4 31.1578 38.2187 31.1578C38.1281 31.1578 37.8563 31.5202 37.675 31.8827C37.5844 32.0639 37.3126 32.1546 37.1313 32.0639C36.9501 31.9733 36.8595 31.7015 36.9501 31.5202C37.0407 31.2484 37.5844 30.2516 38.3093 30.2516C39.2155 30.2516 39.4874 31.339 39.7592 32.3358C39.7592 32.4264 39.8498 32.6076 39.8498 32.8795C39.9404 32.2452 40.0311 31.4296 40.1217 30.9765C40.5748 27.3519 41.2091 27.3519 41.5716 27.3519C42.2059 27.3519 42.5683 27.9862 43.0214 31.7015C43.0214 31.8827 43.0214 32.1546 43.112 32.517C43.112 32.7889 43.112 33.0607 43.2026 33.4232C43.2026 32.7889 43.2933 32.0639 43.2933 31.6109C43.2933 31.2484 43.2933 30.9765 43.3839 30.6141C43.7463 25.8114 44.1088 25.0865 44.8337 25.0865C45.5587 25.0865 45.8305 25.6302 46.2836 31.6109C46.2836 32.0639 46.2836 32.6076 46.3742 33.1513C46.3742 33.5138 46.3742 34.0575 46.4648 34.5106C46.4648 33.695 46.5555 32.6983 46.5555 31.8827C46.5555 31.2484 46.5555 30.5235 46.6461 29.8891C47.0085 22.4586 47.2804 21.7336 48.0959 21.7336C48.9115 21.7336 49.0927 22.5492 49.5458 31.0672C49.5458 31.7921 49.5458 32.517 49.6364 33.3326C49.6364 34.2387 49.727 35.2355 49.727 36.1417C49.727 35.5074 49.727 34.7824 49.8177 34.2387C49.8177 33.5138 49.8177 32.8795 49.9083 32.2452C50.0895 29.1642 50.1801 27.1706 50.3614 25.902C50.452 24.9052 50.6332 24.0897 51.2675 24.0897C51.9018 24.0897 52.2643 24.6334 52.7174 30.3422C52.7174 30.6141 52.7174 30.9765 52.808 31.339C52.808 32.1546 52.8986 33.242 52.9892 34.0575C52.9892 33.9669 52.9892 33.7857 52.9892 33.695C52.9892 33.5138 52.9892 33.242 53.0799 33.0607C53.3517 30.9765 53.5329 29.7079 54.5297 29.7079C55.2547 29.7079 55.6171 30.3422 55.889 30.7047C55.889 30.7953 56.0702 31.0672 56.1608 31.0672C56.4327 31.0672 56.6139 31.2484 56.6139 31.5202C56.6139 31.7921 56.4327 31.9733 56.1608 31.9733C55.6171 31.9733 55.3453 31.5202 55.0734 31.1578C54.8922 30.7953 54.711 30.6141 54.5297 30.6141C54.3485 30.7953 54.0766 32.2452 53.986 33.242C53.986 33.4232 53.986 33.6044 53.8954 33.8763C53.7142 35.3261 53.6236 36.3229 52.8986 36.3229C52.2643 36.3229 52.1737 35.7792 51.8112 31.4296C51.8112 31.0672 51.8112 30.7953 51.7206 30.4328C51.5394 27.7143 51.3581 26.2645 51.1769 25.6302C50.9957 26.6269 50.8144 28.8924 50.6332 32.3358C50.6332 32.9701 50.6332 33.6044 50.5426 34.3294C50.3614 39.2227 50.2707 39.7664 49.5458 39.7664Z" fill="white"/>
<path d="M23.8107 16.7499C23.7201 13.9408 23.8107 11.6754 23.4482 9.86303C23.0858 8.14131 21.5453 7.14453 21.4547 7.14453C12.3024 10.8598 5.59676 19.4684 4.59998 29.6175C5.32491 29.6175 5.59676 30.6142 5.86861 31.4298C5.86861 31.5204 5.95923 31.611 5.95923 31.7016C5.95923 31.8829 6.04984 32.0641 6.04984 32.2453C6.04984 32.336 6.14046 32.5172 6.14046 32.6984C6.23107 32.4266 6.32169 32.1547 6.32169 31.8829C6.32169 31.7923 6.41231 31.611 6.41231 31.5204C6.95601 30.5236 7.22786 29.3456 8.13402 29.3456C8.31526 29.3456 8.85896 29.3456 9.40266 31.7923V32.0641C9.40266 32.336 9.58389 32.8797 9.67451 33.3327C9.85574 32.6078 9.94636 31.4298 10.037 30.9767C10.3088 28.4394 10.4901 27.0802 11.4868 27.0802C12.3024 27.0802 12.6649 28.1676 12.9367 31.5204V32.1547C12.9367 32.789 13.0273 34.692 13.2992 35.5982C13.3898 35.1451 13.571 34.1483 13.7523 32.2453C13.7523 32.1547 13.7523 31.9735 13.7523 31.8829C13.7523 31.611 13.9335 31.4298 14.2053 31.5204C14.4772 31.611 14.6584 31.7016 14.5678 31.9735V32.336C14.296 35.7794 13.9335 36.9574 13.2086 36.9574C12.4836 36.9574 12.3024 36.0512 12.0305 32.336C12.0305 32.0641 12.0305 31.8829 12.0305 31.7016C11.8493 29.3456 11.6681 28.5301 11.4868 28.2582C11.3056 28.7113 11.1244 30.1612 10.9431 31.2486C10.5807 34.2389 10.3994 34.8732 9.76512 34.8732C9.04019 34.8732 8.76834 33.8764 8.49649 32.4266V32.2453C8.31526 31.2486 8.13402 30.7955 8.04341 30.5236C7.86217 30.8861 7.59032 31.7016 7.49971 31.9735C7.49971 32.0641 7.49971 32.1547 7.40909 32.336C7.22786 33.2421 6.95601 34.0577 6.32169 34.0577C5.59676 34.0577 5.41553 33.3327 5.32491 32.6984C5.32491 32.5172 5.23429 32.336 5.23429 32.2453C5.23429 32.1547 5.14368 32.0641 5.14368 31.8829C5.05306 31.611 4.87183 30.8861 4.69059 30.7049V32.336C4.50936 42.3038 9.94636 51.003 18.1019 55.715C17.7394 54.537 16.8332 51.2748 17.9206 49.2813C19.1893 46.8346 21.0922 47.0159 23.0858 46.2909C25.4418 45.4754 26.1667 43.3912 25.5324 41.1258C25.2606 40.2196 24.445 39.2228 24.8981 38.226C25.17 37.5917 25.9855 37.2293 26.0761 36.4137C26.1667 35.7794 25.7137 34.9638 24.9887 34.7826C25.7137 34.9638 26.348 33.8764 26.348 33.0609C26.348 32.336 26.0761 31.2486 26.0761 30.5236C26.0761 28.077 29.5195 29.1644 29.4289 26.4459C29.2477 24.2711 23.9013 20.2839 23.8107 16.7499Z" fill="#6E6259"/>
<path d="M5.144 32.1546C5.144 32.2453 5.23462 32.4265 5.23462 32.6077C5.41585 33.3327 5.59708 34.0576 6.32202 34.0576C6.95633 34.0576 7.13757 33.242 7.40942 32.3359C7.40942 32.2453 7.40942 32.1546 7.50003 31.9734C7.59065 31.7016 7.77188 30.886 8.04373 30.5236C8.13435 30.7954 8.31558 31.2485 8.49682 32.064V32.2453C8.76867 33.6951 9.04052 34.6919 9.76545 34.6919C10.3092 34.6919 10.4904 34.0576 10.9435 31.0673C11.0341 29.9799 11.3059 28.53 11.4872 28.0769C11.5778 28.3488 11.8496 29.1643 12.0309 31.5203V32.1546C12.4839 36.0512 12.6652 36.8667 13.3901 36.8667C14.2057 36.8667 14.4775 35.7793 14.7494 32.2453C14.7494 32.1546 14.7494 31.9734 14.7494 31.8828C14.7494 31.6109 14.5681 31.4297 14.3869 31.4297C14.115 31.4297 13.9338 31.6109 13.9338 31.7922V32.1546C13.8432 34.0576 13.662 35.0544 13.4807 35.5075C13.2995 34.6013 13.2089 32.789 13.1183 32.064C13.1183 31.7922 13.1183 31.6109 13.1183 31.4297C12.8464 28.1675 12.4839 26.9895 11.6684 26.9895C10.6716 26.9895 10.4904 28.3488 10.2185 30.886C10.2185 31.3391 10.0373 32.5171 9.85607 33.242C9.76545 32.789 9.58422 32.2453 9.58422 31.9734V31.7016C9.13113 29.2549 8.49682 29.2549 8.31558 29.2549C7.50003 29.2549 7.13757 30.4329 6.86572 31.5203C6.86572 31.6109 6.86572 31.7016 6.7751 31.8828C6.7751 32.064 6.68448 32.4265 6.59387 32.6983C6.59387 32.6077 6.50325 32.4265 6.50325 32.2453C6.50325 32.064 6.41263 31.8828 6.41263 31.7016C6.41263 31.6109 6.32202 31.5203 6.32202 31.4297C6.14078 30.6142 5.77832 29.6174 5.05339 29.6174C5.05339 29.8892 5.05339 30.2517 4.96277 30.5236C5.144 30.6142 5.32524 31.3391 5.41585 31.7016C5.05339 31.8828 5.144 32.064 5.144 32.1546Z" fill="white"/>
<path d="M67.2166 33.6044H66.2198L68.8477 26.6269H70.0257L72.6536 33.6044H71.6568L70.9319 31.7014H67.9415L67.2166 33.6044ZM70.7506 30.8859L69.5726 27.6237L68.3946 30.8859H70.7506Z" fill="#6E6259"/>
<path d="M74.2847 29.3454C74.5565 28.9829 75.0096 28.8017 75.4627 28.8017C76.0064 28.8017 76.4595 28.9829 76.822 29.5266C77.1844 29.0735 77.6375 28.8017 78.2718 28.8017C78.9968 28.8017 79.6311 29.1641 79.9029 29.7078C80.0841 29.9797 80.1748 30.4328 80.1748 31.0671V33.5137H79.2686V31.0671C79.2686 30.5234 79.2686 30.2515 79.0874 29.9797C78.9968 29.7078 78.6343 29.5266 78.2718 29.5266C77.9094 29.5266 77.5469 29.7078 77.3657 29.9797C77.275 30.2515 77.1844 30.5234 77.1844 31.0671V33.3325H76.2782V30.8859C76.2782 30.3422 76.2783 30.0703 76.097 29.7985C76.0064 29.5266 75.6439 29.3454 75.2815 29.3454C74.919 29.3454 74.5565 29.5266 74.3753 29.7985C74.2847 30.0703 74.1941 30.3422 74.1941 30.8859V33.1513H73.2879V28.6204H74.1941L74.2847 29.3454Z" fill="#6E6259"/>
<path d="M82.0777 31.6108C82.1683 32.4263 82.712 32.8794 83.5276 32.8794C84.0713 32.8794 84.5244 32.6076 84.7962 32.2451C84.7962 32.1545 84.7962 32.1545 84.8868 32.1545L85.6118 32.4263C85.1587 33.2419 84.4337 33.695 83.5276 33.695C82.2589 33.695 81.1715 32.6982 81.1715 31.2483C81.1715 29.8891 82.1683 28.8017 83.437 28.8017C84.7056 28.8017 85.7024 29.8891 85.7024 31.3389V31.6108H82.0777ZM84.7962 30.8859C84.7056 30.0703 84.1619 29.6172 83.437 29.6172C82.712 29.6172 82.2589 30.0703 82.0777 30.8859H84.7962Z" fill="#6E6259"/>
<path d="M87.6053 28.9829V29.436C88.0584 29.0735 88.2396 28.9829 88.6927 28.9829H88.9646V29.7985C88.874 29.7985 88.7833 29.7985 88.6927 29.7985C88.2396 29.7985 87.9678 29.9797 87.7866 30.2515C87.6959 30.5234 87.6053 30.7952 87.6053 31.3389V33.6044H86.6992V28.9829H87.6053Z" fill="#6E6259"/>
<path d="M90.7769 27.4424C90.7769 27.7143 90.5051 27.9861 90.2332 27.9861C89.9614 27.9861 89.6895 27.7143 89.6895 27.4424C89.6895 27.1706 89.9614 26.8987 90.2332 26.8987C90.5051 26.8987 90.7769 27.08 90.7769 27.4424ZM90.5957 33.6044H89.6895V28.9829H90.5957V33.6044Z" fill="#6E6259"/>
<path d="M95.2171 30.2515C94.8547 29.7985 94.4922 29.6172 94.0391 29.6172C93.1329 29.6172 92.4986 30.2515 92.4986 31.2483C92.4986 32.2451 93.1329 32.8794 94.0391 32.8794C94.4922 32.8794 94.8547 32.6982 95.3077 32.2451L95.8514 32.7888C95.3077 33.4231 94.764 33.6044 94.0391 33.6044C92.6799 33.6044 91.5925 32.517 91.5925 31.1577C91.5925 29.7985 92.5892 28.7111 94.0391 28.7111C94.764 28.7111 95.3077 28.9829 95.8514 29.5266L95.2171 30.2515Z" fill="#6E6259"/>
<path d="M100.11 33.1513C99.5667 33.6044 99.1136 33.7856 98.6606 33.7856C97.3919 33.7856 96.3045 32.6982 96.3045 31.3389C96.3045 29.9797 97.3013 28.8923 98.6606 28.8923C99.2043 28.8923 99.5667 29.0735 100.11 29.5266V29.0735H101.017V33.695H100.11V33.1513ZM97.1201 31.2483C97.1201 32.1545 97.7544 32.8794 98.5699 32.8794C99.3855 32.8794 100.02 32.2451 100.02 31.2483C100.02 30.3422 99.4761 29.6172 98.5699 29.6172C97.6638 29.6172 97.1201 30.2515 97.1201 31.2483Z" fill="#6E6259"/>
<path d="M103.101 28.9829V29.436C103.373 29.0735 103.826 28.8923 104.369 28.8923C105.004 28.8923 105.638 29.2548 106.001 29.7985C106.182 30.0703 106.272 30.5234 106.272 31.1577V33.6044H105.366V31.1577C105.366 30.614 105.366 30.3422 105.185 30.1609C105.094 29.8891 104.732 29.7078 104.279 29.7078C103.826 29.7078 103.463 29.8891 103.282 30.1609C103.191 30.4328 103.101 30.7046 103.101 31.2483V33.6044H102.195V28.9829H103.101Z" fill="#6E6259"/>
<path d="M70.7506 20.7368L69.8445 23.3647H66.5823L71.2943 10.5877H74.8284L79.6311 23.4553H76.2782L75.3721 20.8274H70.7506V20.7368ZM73.0161 14.0312L71.7474 17.9277H74.3753L73.0161 14.0312Z" fill="#6E6259"/>
<path d="M86.1555 14.5749C85.4305 13.4875 85.1587 13.2156 84.5244 13.2156C83.7994 13.2156 83.2557 13.6687 83.2557 14.303C83.2557 14.6655 83.6182 14.9373 84.4337 15.2998L85.6118 15.7529C87.8772 16.5684 88.9646 17.7464 88.9646 19.5588C88.9646 22.0054 86.971 23.9084 84.3431 23.9084C82.6214 23.9084 81.0809 23.0928 80.2654 21.643C79.9935 21.1899 79.9029 20.7368 79.6311 19.8306L82.712 19.0151C82.8027 19.6494 82.9839 19.9212 83.0745 20.1931C83.2557 20.6462 83.7088 20.918 84.2525 20.918C85.0681 20.918 85.7024 20.2837 85.7024 19.5588C85.7024 19.1057 85.3399 18.7432 84.2525 18.3808L83.1651 18.0183C81.1716 17.2934 80.1748 16.0247 80.1748 14.3936C80.1748 12.1282 82.0777 10.4065 84.615 10.4065C86.4273 10.4065 87.6959 11.1314 88.874 13.0344L86.1555 14.5749Z" fill="#6E6259"/>
<path d="M97.2107 10.6783H100.382V23.5459H97.2107V18.4714H93.2236V23.5459H90.052V10.6783H93.2236V15.5716H97.2107V10.6783Z" fill="#6E6259"/>
<path d="M105.457 20.7368L104.551 23.3647H101.288L106.091 10.5877H109.625L114.428 23.4553H111.075L110.169 20.8274H105.457V20.7368ZM107.813 14.0312L106.544 17.9277H109.172L107.813 14.0312Z" fill="#6E6259"/>
<path d="M69.7539 38.407C69.3914 37.8633 69.0289 37.5915 68.4852 37.5915C67.8509 37.5915 67.3072 38.0446 67.3072 38.6789C67.3072 39.0414 67.5791 39.4038 68.2134 39.6757L68.8477 39.9475C69.9351 40.4006 70.4788 40.9443 70.4788 41.8505C70.4788 43.0285 69.482 44.0253 68.2134 44.0253C67.0354 44.0253 66.3104 43.3909 66.0386 42.1223L66.9447 41.9411C67.0354 42.3035 67.0354 42.3942 67.126 42.5754C67.3072 42.9379 67.7603 43.2097 68.2134 43.2097C68.9383 43.2097 69.482 42.666 69.482 41.9411C69.482 41.488 69.2102 41.1255 68.3946 40.8537L67.9415 40.4912C66.9447 40.1287 66.4917 39.585 66.4917 38.7695C66.4917 37.6821 67.3978 36.8666 68.5758 36.8666C69.3914 36.8666 70.0257 37.229 70.4788 38.0446L69.7539 38.407Z" fill="#6E6259"/>
<path d="M72.6536 39.6757C73.1973 39.2226 73.6504 39.0414 74.1035 39.0414C75.3721 39.0414 76.4595 40.1287 76.4595 41.488C76.4595 42.8472 75.4627 43.9346 74.1035 43.9346C73.5598 43.9346 73.1973 43.7534 72.6536 43.3003V46.2001H71.7474V39.132H72.6536V39.6757ZM72.6536 41.5786C72.6536 42.4848 73.1973 43.2097 74.1035 43.2097C75.0096 43.2097 75.6439 42.5754 75.6439 41.5786C75.6439 40.6725 75.0096 39.9475 74.1941 39.9475C73.1973 39.9475 72.6536 40.5818 72.6536 41.5786Z" fill="#6E6259"/>
<path d="M78 41.9411C78.0906 42.7566 78.6343 43.2097 79.4498 43.2097C79.9935 43.2097 80.4466 42.9379 80.7185 42.5754C80.7185 42.4848 80.7185 42.4848 80.8091 42.4848L81.534 42.7566C81.0809 43.5722 80.356 44.0253 79.4498 44.0253C78.1812 44.0253 77.0938 43.0285 77.0938 41.5786C77.0938 40.2194 78.0906 39.132 79.3592 39.132C80.6278 39.132 81.6246 40.2194 81.6246 41.6692V41.9411H78ZM80.7185 41.2161C80.6278 40.4006 80.0841 39.9475 79.3592 39.9475C78.6343 39.9475 78.1812 40.4006 78 41.2161H80.7185Z" fill="#6E6259"/>
<path d="M83.1651 41.9411C83.2557 42.7566 83.7994 43.2097 84.615 43.2097C85.1587 43.2097 85.6118 42.9379 85.8836 42.5754C85.8836 42.4848 85.8836 42.4848 85.9742 42.4848L86.6992 42.7566C86.2461 43.5722 85.5211 44.0253 84.615 44.0253C83.3463 44.0253 82.259 43.0285 82.259 41.5786C82.259 40.2194 83.2557 39.132 84.5244 39.132C85.793 39.132 86.7898 40.2194 86.7898 41.6692V41.9411H83.1651ZM85.8836 41.2161C85.793 40.4006 85.2493 39.9475 84.5244 39.9475C83.7994 39.9475 83.3464 40.4006 83.1651 41.2161H85.8836Z" fill="#6E6259"/>
<path d="M91.1394 40.4912C90.7769 40.0381 90.4144 39.8569 89.9614 39.8569C89.0552 39.8569 88.4209 40.4912 88.4209 41.488C88.4209 42.4848 89.0552 43.1191 89.9614 43.1191C90.4144 43.1191 90.7769 42.9379 91.23 42.4848L91.7737 43.0285C91.23 43.6628 90.6863 43.844 89.9614 43.844C88.6021 43.844 87.5147 42.7566 87.5147 41.3974C87.5147 40.0381 88.5115 38.9507 89.9614 38.9507C90.6863 38.9507 91.23 39.2226 91.7737 39.7663L91.1394 40.4912Z" fill="#6E6259"/>
<path d="M93.4048 36.8666V39.5851C93.6766 39.2226 94.1297 39.0414 94.6734 39.0414C95.3077 39.0414 95.9421 39.4038 96.3045 39.9475C96.4858 40.2194 96.5764 40.6725 96.5764 41.3068V43.7534H95.6702V41.3974C95.6702 40.8537 95.6702 40.5818 95.489 40.4006C95.3984 40.1288 95.0359 39.9475 94.5828 39.9475C94.1297 39.9475 93.7673 40.1288 93.586 40.4006C93.4954 40.6725 93.4048 40.9443 93.4048 41.488V43.844H92.4986V36.8666H93.4048Z" fill="#6E6259"/>
<path d="M99.6573 40.2194V41.0349H97.4825V40.2194H99.6573Z" fill="#6E6259"/>
<path d="M104.369 43.0285V43.844H100.745V36.8666H101.651V43.0285H104.369Z" fill="#6E6259"/>
<path d="M108.538 43.3909C107.994 43.844 107.541 44.0253 107.088 44.0253C105.819 44.0253 104.732 42.9379 104.732 41.5786C104.732 40.2194 105.729 39.132 107.088 39.132C107.632 39.132 107.994 39.3132 108.538 39.7663V39.3132H109.444V43.9346H108.538V43.3909ZM105.547 41.5786C105.547 42.4848 106.182 43.2097 106.997 43.2097C107.813 43.2097 108.447 42.5754 108.447 41.5786C108.447 40.6725 107.903 39.9475 106.997 39.9475C106.182 39.9475 105.547 40.5818 105.547 41.5786Z" fill="#6E6259"/>
<path d="M111.619 39.2226V39.6757C111.891 39.3132 112.344 39.132 112.887 39.132C113.522 39.132 114.156 39.4944 114.518 40.0381C114.7 40.31 114.79 40.7631 114.79 41.3974V43.844H113.884V41.3974C113.884 40.8537 113.884 40.5818 113.703 40.4006C113.612 40.1288 113.25 39.9475 112.797 39.9475C112.344 39.9475 111.981 40.1288 111.8 40.4006C111.709 40.6725 111.619 40.9443 111.619 41.488V43.844H110.713V39.2226H111.619Z" fill="#6E6259"/>
<path d="M120.499 43.9346C120.499 45.3845 119.502 46.3813 118.053 46.3813C117.418 46.3813 116.784 46.2001 116.331 45.747C116.24 45.6564 116.15 45.5657 115.968 45.2939L116.512 44.7502C116.784 45.1127 116.874 45.1127 117.056 45.2033C117.328 45.3845 117.69 45.4751 118.053 45.4751C119.049 45.4751 119.593 44.8408 119.593 43.844V43.3003C119.14 43.7534 118.687 43.9346 118.143 43.9346C116.875 43.9346 115.787 42.8472 115.787 41.488C115.787 40.1287 116.784 39.0414 118.143 39.0414C118.687 39.0414 119.14 39.2226 119.593 39.6757V39.2226H120.499V43.9346ZM116.603 41.5786C116.603 42.4848 117.237 43.2097 118.053 43.2097C118.868 43.2097 119.502 42.5754 119.502 41.5786C119.502 40.6725 118.959 39.9475 118.053 39.9475C117.146 39.9475 116.603 40.5818 116.603 41.5786Z" fill="#6E6259"/>
<path d="M124.849 43.3909C124.577 43.7534 124.124 43.9346 123.58 43.9346C122.946 43.9346 122.312 43.5722 121.949 43.0285C121.768 42.7566 121.677 42.3035 121.677 41.6692V39.2226H122.583V41.6692C122.583 42.2129 122.583 42.4848 122.765 42.666C122.855 42.9379 123.218 43.1191 123.671 43.1191C124.124 43.1191 124.486 42.9379 124.668 42.666C124.758 42.3942 124.849 42.1223 124.849 41.5786V39.3132H125.755V43.9346H124.849V43.3909Z" fill="#6E6259"/>
<path d="M130.558 43.3909C130.014 43.844 129.561 44.0253 129.108 44.0253C127.839 44.0253 126.752 42.9379 126.752 41.5786C126.752 40.2194 127.748 39.132 129.108 39.132C129.651 39.132 130.014 39.3132 130.558 39.7663V39.3132H131.464V43.9346H130.558V43.3909ZM127.658 41.5786C127.658 42.4848 128.292 43.2097 129.108 43.2097C129.923 43.2097 130.558 42.5754 130.558 41.5786C130.558 40.6725 130.014 39.9475 129.108 39.9475C128.292 39.9475 127.658 40.5818 127.658 41.5786Z" fill="#6E6259"/>
<path d="M137.263 43.9346C137.263 45.3845 136.266 46.3813 134.817 46.3813C134.182 46.3813 133.548 46.2001 133.095 45.747C133.004 45.6564 132.914 45.5657 132.732 45.2939L133.276 44.7502C133.548 45.1127 133.639 45.1127 133.82 45.2033C134.092 45.3845 134.454 45.4751 134.817 45.4751C135.813 45.4751 136.357 44.8408 136.357 43.844V43.3003C135.904 43.7534 135.451 43.9346 134.907 43.9346C133.639 43.9346 132.551 42.8472 132.551 41.488C132.551 40.1287 133.548 39.0414 134.907 39.0414C135.451 39.0414 135.904 39.2226 136.357 39.6757V39.2226H137.263V43.9346ZM133.367 41.5786C133.367 42.4848 134.001 43.2097 134.817 43.2097C135.632 43.2097 136.266 42.5754 136.266 41.5786C136.266 40.6725 135.723 39.9475 134.817 39.9475C133.91 39.9475 133.367 40.5818 133.367 41.5786Z" fill="#6E6259"/>
<path d="M139.076 41.9411C139.166 42.7566 139.71 43.2097 140.525 43.2097C141.069 43.2097 141.522 42.9379 141.794 42.5754C141.794 42.4848 141.794 42.4848 141.885 42.4848L142.61 42.7566C142.157 43.5722 141.432 44.0253 140.525 44.0253C139.257 44.0253 138.169 43.0285 138.169 41.5786C138.169 40.2194 139.166 39.132 140.435 39.132C141.703 39.132 142.7 40.2194 142.7 41.6692V41.9411H139.076ZM141.794 41.2161C141.703 40.4006 141.16 39.9475 140.435 39.9475C139.71 39.9475 139.257 40.4006 139.076 41.2161H141.794Z" fill="#6E6259"/>
<path d="M145.781 40.2194V41.0349H143.606V40.2194H145.781Z" fill="#6E6259"/>
<path d="M147.775 36.8666V39.8569H151.128V36.8666H152.034V43.844H151.128V40.7631H147.775V43.844H146.869V36.8666H147.775Z" fill="#6E6259"/>
<path d="M154.118 41.9411C154.209 42.7566 154.752 43.2097 155.568 43.2097C156.111 43.2097 156.565 42.9379 156.836 42.5754C156.836 42.4848 156.836 42.4848 156.927 42.4848L157.652 42.7566C157.199 43.5722 156.474 44.0253 155.568 44.0253C154.299 44.0253 153.212 43.0285 153.212 41.5786C153.212 40.2194 154.209 39.132 155.477 39.132C156.746 39.132 157.743 40.2194 157.743 41.6692V41.9411H154.118ZM156.836 41.2161C156.746 40.4006 156.202 39.9475 155.477 39.9475C154.752 39.9475 154.299 40.4006 154.118 41.2161H156.836Z" fill="#6E6259"/>
<path d="M162.273 43.3909C161.73 43.844 161.277 44.0253 160.824 44.0253C159.555 44.0253 158.468 42.9379 158.468 41.5786C158.468 40.2194 159.464 39.132 160.824 39.132C161.367 39.132 161.73 39.3132 162.273 39.7663V39.3132H163.18V43.9346H162.273V43.3909ZM159.283 41.5786C159.283 42.4848 159.917 43.2097 160.733 43.2097C161.548 43.2097 162.183 42.5754 162.183 41.5786C162.183 40.6725 161.639 39.9475 160.733 39.9475C159.917 39.9475 159.283 40.5818 159.283 41.5786Z" fill="#6E6259"/>
<path d="M165.264 39.2226V39.6757C165.717 39.3132 165.898 39.2226 166.351 39.2226H166.623V40.0381C166.532 40.0381 166.442 40.0381 166.351 40.0381C165.898 40.0381 165.626 40.2194 165.445 40.4912C165.354 40.7631 165.264 41.0349 165.264 41.5786V43.844H164.358V39.2226H165.264Z" fill="#6E6259"/>
<path d="M168.435 37.6821C168.435 37.954 168.164 38.2258 167.892 38.2258C167.62 38.2258 167.348 37.954 167.348 37.6821C167.348 37.4103 167.62 37.1384 167.892 37.1384C168.164 37.1384 168.435 37.3196 168.435 37.6821ZM168.345 43.844H167.439V39.2226H168.345V43.844Z" fill="#6E6259"/>
<path d="M170.52 39.2226V39.6757C170.791 39.3132 171.244 39.132 171.788 39.132C172.422 39.132 173.057 39.4944 173.419 40.0381C173.601 40.31 173.691 40.7631 173.691 41.3974V43.844H172.785V41.3974C172.785 40.8537 172.785 40.5818 172.604 40.4006C172.513 40.1288 172.151 39.9475 171.698 39.9475C171.244 39.9475 170.882 40.1288 170.701 40.4006C170.61 40.6725 170.52 40.9443 170.52 41.488V43.844H169.613V39.2226H170.52Z" fill="#6E6259"/>
<path d="M179.4 43.9346C179.4 45.3845 178.403 46.3813 176.953 46.3813C176.319 46.3813 175.685 46.2001 175.232 45.747C175.141 45.6564 175.05 45.5657 174.869 45.2939L175.413 44.7502C175.685 45.1127 175.775 45.1127 175.957 45.2033C176.228 45.3845 176.591 45.4751 176.953 45.4751C177.95 45.4751 178.494 44.8408 178.494 43.844V43.3003C178.041 43.7534 177.588 43.9346 177.044 43.9346C175.775 43.9346 174.688 42.8472 174.688 41.488C174.688 40.1287 175.685 39.0414 177.044 39.0414C177.588 39.0414 178.041 39.2226 178.494 39.6757V39.2226H179.4V43.9346ZM175.503 41.5786C175.503 42.4848 176.138 43.2097 176.953 43.2097C177.769 43.2097 178.403 42.5754 178.403 41.5786C178.403 40.6725 177.859 39.9475 176.953 39.9475C176.047 39.9475 175.503 40.5818 175.503 41.5786Z" fill="#6E6259"/>
<path d="M67.2166 54.0837H66.2198L68.8477 47.1062H70.0257L72.6536 54.0837H71.6568L70.9319 52.1808H67.9415L67.2166 54.0837ZM70.7506 51.3652L69.5726 48.103L68.304 51.3652H70.7506Z" fill="#6E6259"/>
<path d="M73.741 52.6338C74.0128 53.1775 74.2847 53.3588 74.6472 53.3588C75.1002 53.3588 75.3721 53.0869 75.3721 52.7245C75.3721 52.4526 75.2815 52.362 74.6472 52.0901L74.1941 51.9089C73.5598 51.6371 73.1973 51.2746 73.1973 50.7309C73.1973 50.006 73.8316 49.3716 74.7378 49.3716C75.3721 49.3716 75.8252 49.6435 76.1876 50.2778L75.4627 50.6403C75.2815 50.2778 75.0096 50.1872 74.7378 50.1872C74.3753 50.1872 74.1035 50.3684 74.1035 50.7309C74.1035 51.0934 74.1941 51.0934 74.8284 51.3652L75.2815 51.5464C76.0064 51.8183 76.3689 52.1808 76.3689 52.7245C76.3689 53.54 75.6439 54.2649 74.7378 54.2649C73.9222 54.2649 73.3785 53.9025 73.1067 52.9963L73.741 52.6338Z" fill="#6E6259"/>
<path d="M77.6375 52.6338C77.9093 53.1775 78.1812 53.3588 78.5437 53.3588C78.9967 53.3588 79.2686 53.0869 79.2686 52.7245C79.2686 52.4526 79.178 52.362 78.5437 52.0901L78.0906 51.9089C77.4563 51.6371 77.0938 51.2746 77.0938 50.7309C77.0938 50.006 77.7281 49.3716 78.6343 49.3716C79.2686 49.3716 79.7217 49.6435 80.0842 50.2778L79.3592 50.6403C79.178 50.2778 78.9061 50.1872 78.6343 50.1872C78.2718 50.1872 78 50.3684 78 50.7309C78 51.0934 78.0906 51.0934 78.7249 51.3652L79.178 51.5464C79.9029 51.8183 80.2654 52.1808 80.2654 52.7245C80.2654 53.54 79.5405 54.2649 78.6343 54.2649C77.8187 54.2649 77.275 53.9025 77.0032 52.9963L77.6375 52.6338Z" fill="#6E6259"/>
<path d="M85.7024 51.7277C85.7024 53.0869 84.7056 54.1743 83.2557 54.1743C81.8965 54.1743 80.8091 53.0869 80.8091 51.7277C80.8091 50.3684 81.8965 49.281 83.2557 49.281C84.615 49.3716 85.7024 50.459 85.7024 51.7277ZM81.8059 51.7277C81.8059 52.6338 82.4402 53.3588 83.3463 53.3588C84.2525 53.3588 84.8868 52.7245 84.8868 51.7277C84.8868 50.8215 84.2525 50.0966 83.437 50.0966C82.3496 50.0966 81.8059 50.8215 81.8059 51.7277Z" fill="#6E6259"/>
<path d="M90.052 50.7309C89.6895 50.2778 89.327 50.0966 88.874 50.0966C87.9678 50.0966 87.3335 50.7309 87.3335 51.7277C87.3335 52.7245 87.9678 53.3588 88.874 53.3588C89.327 53.3588 89.6895 53.1775 90.1426 52.7245L90.6863 53.2682C90.1426 53.9025 89.5989 54.0837 88.874 54.0837C87.5147 54.0837 86.4273 52.9963 86.4273 51.6371C86.4273 50.2778 87.4241 49.1904 88.874 49.1904C89.5989 49.1904 90.1426 49.4623 90.6863 50.006L90.052 50.7309Z" fill="#6E6259"/>
<path d="M92.4986 47.9218C92.4986 48.1936 92.2268 48.4655 91.9549 48.4655C91.6831 48.4655 91.4112 48.1936 91.4112 47.9218C91.4112 47.6499 91.6831 47.3781 91.9549 47.3781C92.2268 47.2875 92.4986 47.5593 92.4986 47.9218ZM92.408 54.0837H91.5018V49.4623H92.408V54.0837Z" fill="#6E6259"/>
<path d="M97.2107 54.0837V53.6306C96.667 54.0837 96.2139 54.2649 95.7608 54.2649C94.4922 54.2649 93.4048 53.1775 93.4048 51.8183C93.4048 50.459 94.4016 49.3716 95.7608 49.3716C96.3045 49.3716 96.667 49.5529 97.2107 50.006V49.5529H98.1169V54.0837H97.2107ZM94.2203 51.7277C94.2203 52.6338 94.8547 53.3588 95.6702 53.3588C96.4858 53.3588 97.1201 52.7245 97.1201 51.7277C97.1201 50.8215 96.5764 50.0966 95.6702 50.0966C94.8547 50.0966 94.2203 50.8215 94.2203 51.7277Z" fill="#6E6259"/>
<path d="M101.107 50.2778H100.382V52.6338C100.382 53.0869 100.473 53.2682 100.745 53.2682C100.835 53.2682 100.926 53.2682 101.107 53.1775V53.9931C100.926 53.9931 100.745 54.0837 100.564 54.0837C99.8386 54.0837 99.3855 53.54 99.3855 52.6338V50.2778H98.9324V49.4623H99.3855V48.3749L100.292 48.0124V49.3716H101.017L101.107 50.2778Z" fill="#6E6259"/>
<path d="M103.101 47.9218C103.101 48.1936 102.829 48.4655 102.557 48.4655C102.285 48.4655 102.013 48.1936 102.013 47.9218C102.013 47.6499 102.285 47.3781 102.557 47.3781C102.829 47.2875 103.101 47.5593 103.101 47.9218ZM102.92 54.0837H102.013V49.4623H102.92V54.0837Z" fill="#6E6259"/>
<path d="M108.719 51.7277C108.719 53.0869 107.722 54.1743 106.272 54.1743C104.913 54.1743 103.826 53.0869 103.826 51.7277C103.826 50.3684 104.913 49.281 106.272 49.281C107.632 49.3716 108.719 50.459 108.719 51.7277ZM104.732 51.7277C104.732 52.6338 105.366 53.3588 106.272 53.3588C107.179 53.3588 107.813 52.7245 107.813 51.7277C107.813 50.8215 107.179 50.0966 106.363 50.0966C105.366 50.0966 104.732 50.8215 104.732 51.7277Z" fill="#6E6259"/>
<path d="M110.531 49.4623V49.9153C110.803 49.5529 111.256 49.3716 111.8 49.3716C112.434 49.3716 113.069 49.7341 113.431 50.2778C113.612 50.5497 113.703 51.0027 113.703 51.6371V54.0837H112.797V51.6371C112.797 51.0934 112.797 50.8215 112.616 50.6403C112.525 50.3684 112.162 50.1872 111.709 50.1872C111.256 50.1872 110.894 50.3684 110.713 50.6403C110.622 50.9121 110.531 51.184 110.531 51.7277V54.0837H109.625V49.4623H110.531Z" fill="#6E6259"/>
</svg>
