<svg width="184" height="65" viewBox="0 0 184 65" fill="none" xmlns="http://www.w3.org/2000/svg">
<path d="M75.2644 28.725C75.876 28.703 76.4859 28.8004 77.0602 29.0119C77.9791 29.4214 78.7294 30.1341 79.1854 31.0308V29.0119H82.7239V42.167C82.8096 43.5758 82.4926 44.98 81.8101 46.2155C80.8036 47.7321 78.9157 48.5207 76.1464 48.5813L75.7957 48.5851C74.2802 48.6373 72.7798 48.2696 71.4603 47.5225C70.3577 46.8569 69.6601 45.6849 69.6007 44.3984H73.5536C73.6132 44.748 73.7848 45.0687 74.0424 45.3123C74.6258 45.6974 75.3225 45.8734 76.0188 45.8117C77.0767 45.942 78.11 45.4275 78.6435 44.5047C78.996 43.6352 79.159 42.7006 79.1217 41.7632V40.8706C78.8394 41.3846 78.4563 41.8364 77.9953 42.1988C77.1807 42.7832 76.191 43.0719 75.19 43.017C73.5596 43.076 71.9925 42.3825 70.9396 41.1362C69.8162 39.6856 69.254 37.8783 69.3563 36.0463C69.2923 34.1914 69.8372 32.3664 70.9077 30.8502C71.9038 29.4467 73.5452 28.646 75.2644 28.725ZM164.237 28.8631C165.252 28.8344 166.261 29.0032 167.21 29.3586L167.563 29.5007C168.539 29.9463 169.369 30.6615 169.953 31.5621C170.521 32.4255 170.884 33.4066 171.016 34.4312C171.122 35.3445 171.158 36.2646 171.122 37.1833H161.028C160.962 38.3466 161.511 39.4591 162.473 40.1161C163.074 40.4792 163.768 40.66 164.47 40.6368C165.194 40.6794 165.908 40.4565 166.479 40.0099C166.792 39.7447 167.048 39.4195 167.233 39.0535H170.931C170.78 39.9263 170.375 40.733 169.769 41.374L169.582 41.5613C168.213 42.9512 166.311 43.6832 164.364 43.5696C162.582 43.5928 160.85 42.9828 159.476 41.8482C158.059 40.7076 157.351 38.8552 157.351 36.2907C157.222 34.2683 157.916 32.2794 159.274 30.7758C160.59 29.4749 162.388 28.7816 164.237 28.8631ZM102.51 28.6718C104.531 28.522 106.504 29.3425 107.823 30.8821C108.926 32.2702 109.54 33.9799 109.576 35.7464V36.0782C109.613 37.9649 108.985 39.8045 107.801 41.2744C106.466 42.7824 104.496 43.5704 102.488 43.3996C100.483 43.5585 98.518 42.7726 97.1754 41.2744C96.065 39.8825 95.4498 38.1642 95.4206 36.3902L95.4221 36.057C95.3887 34.1676 96.0164 32.3259 97.1966 30.8502C98.5219 29.3225 100.493 28.5142 102.51 28.6718ZM177.147 25.4946V29.3625H179.4V31.9447H177.147V39.2767C177.101 39.6445 177.176 40.0175 177.36 40.3393C177.773 40.5346 178.234 40.6083 178.688 40.5518H179.4V43.2508L177.689 43.3039C175.968 43.3039 174.799 43.0595 174.172 42.4114C173.725 41.8742 173.504 41.1847 173.556 40.488V31.9872L171.59 31.9447V29.3625H173.556V25.4946H177.147ZM145.418 29.6175C145.947 30.0659 146.356 30.6393 146.608 31.2858C147.02 30.5328 147.634 29.9106 148.382 29.49C149.159 29.1083 150.015 28.9153 150.88 28.9269C151.486 28.9209 152.088 29.029 152.654 29.2456C153.293 29.5151 153.85 29.9475 154.269 30.4995C154.68 31.0136 154.95 31.6248 155.056 32.2741C155.135 32.8172 155.178 33.3648 155.185 33.9134L155.183 43.0702H151.464V34.2399C151.48 33.7939 151.393 33.3503 151.209 32.9435C150.872 32.2874 150.168 31.9039 149.434 31.9765C148.529 31.8759 147.665 32.3814 147.309 33.2198C147.102 33.7214 147.001 34.2604 147.012 34.8031V43.0595H143.356V34.7925C143.39 34.1864 143.304 33.5796 143.101 33.0073C142.782 32.3199 142.059 31.9135 141.306 31.9978C140.461 31.8736 139.624 32.267 139.18 32.9966C138.95 33.5325 138.848 34.1147 138.883 34.6968V43.0489H135.302V29.235H138.83V31.254C139.164 30.6748 139.595 30.1573 140.105 29.7238C141.709 28.6735 143.773 28.6322 145.418 29.6175ZM122.157 29.49C122.687 29.9377 123.097 30.5114 123.347 31.1583C123.765 30.4126 124.379 29.7952 125.122 29.3731C125.896 28.9847 126.753 28.7914 127.619 28.81C128.17 28.8136 128.715 28.9096 129.233 29.0933L129.489 29.1925C130.743 29.7292 131.645 30.8582 131.891 32.1997C131.961 32.728 132 33.2597 132.009 33.7922L132.008 43.0595H128.289V34.2293C128.305 33.7798 128.218 33.3325 128.034 32.9223C127.695 32.2683 126.992 31.8856 126.259 31.9553C125.358 31.8753 124.506 32.3742 124.134 33.1985C123.957 33.6184 123.857 34.0659 123.838 34.5196L123.836 43.0489H120.181V34.7925C120.214 34.1829 120.128 33.5727 119.926 32.9966C119.608 32.3133 118.89 31.9076 118.141 31.9872C117.296 31.863 116.459 32.2564 116.015 32.986C115.791 33.5272 115.689 34.1115 115.718 34.6968V43.0383H112.041V29.2244H115.569V31.1371C115.9 30.5524 116.332 30.0308 116.844 29.5963C118.452 28.556 120.509 28.5148 122.157 29.49ZM93.6369 28.7356L93.86 28.7462H94.1682V32.4653C93.945 32.4653 93.7432 32.4653 93.5625 32.4122H93.1268C91.9531 32.2633 90.8011 32.8164 90.1834 33.8255C89.8621 34.606 89.717 35.4477 89.7584 36.2907V42.932H86.0499V29.0544H89.514V31.4771C89.9024 30.7717 90.3969 30.1301 90.9804 29.575C91.7351 28.983 92.679 28.6847 93.6369 28.7356ZM102.472 31.7429C101.526 31.7429 100.629 32.1633 100.023 32.8904C99.3973 33.8311 99.0951 34.9503 99.1625 36.0782C99.0943 37.2047 99.3925 38.323 100.013 39.266C100.618 39.9931 101.516 40.4135 102.462 40.4135C103.408 40.4135 104.306 39.9931 104.911 39.266C105.526 38.3206 105.823 37.2041 105.761 36.0782C105.833 34.9528 105.539 33.8343 104.922 32.8904C104.316 32.1633 103.419 31.7429 102.472 31.7429ZM73.4898 33.6342C73.2158 34.3863 73.0826 35.1823 73.0967 35.9826C73.0891 36.7107 73.2263 37.4332 73.5005 38.1078C73.874 39.1496 74.8485 39.8458 75.9417 39.8738L76.1357 39.8717C76.9464 39.8972 77.7286 39.5719 78.2822 38.9791V38.9685C78.937 38.0892 79.247 37.0005 79.1535 35.9082C79.2345 34.8416 78.9455 33.7796 78.3353 32.901C77.8455 32.2684 77.1061 31.8839 76.3136 31.8418L76.1145 31.8384C74.9342 31.7748 73.8581 32.5111 73.4898 33.6342ZM162.133 32.6247C161.593 33.2126 161.254 33.9569 161.166 34.75H167.414C167.404 33.9188 167.055 33.1277 166.447 32.561C165.913 32.1092 165.248 31.8467 164.554 31.8102L164.322 31.8065C163.51 31.7603 162.715 32.0572 162.133 32.6247Z" fill="#7D4CDB"/>
<path d="M30.1026 15.1981C39.4924 15.1981 47.1043 22.8101 47.1043 32.1999C47.1043 41.5897 39.4924 49.2016 30.1026 49.2016C20.7128 49.2016 13.1008 41.5897 13.1008 32.1999C13.1008 22.8101 20.7128 15.1981 30.1026 15.1981ZM30.1026 6.69727C16.0179 6.69727 4.59998 18.1152 4.59998 32.1999C4.59998 46.2846 16.0179 57.7025 30.1026 57.7025C44.1873 57.7025 55.6052 46.2846 55.6052 32.1999C55.6052 25.4362 52.9183 18.9495 48.1356 14.1668C43.353 9.38414 36.8663 6.69727 30.1026 6.69727Z" fill="#7D4CDB"/>
</svg>
