<svg  viewBox="20 16 50 50" fill="none" xmlns="http://www.w3.org/2000/svg"><path fill-rule="evenodd" clip-rule="evenodd" d="M42.19 17C49.8317 17 61.3783 19.3533 66.7533 24.75C68.115 26.1183 69.8967 28.7983 69.8967 32.7233C69.8967 39.7017 64.2967 50.4083 58.1133 56.6183C54.9167 59.8283 49.8317 64.0233 42.9917 64.0233C36.305 64.0233 31.1983 59.4633 29.72 57.9783C24.0567 52.2917 20 43.66 20 35.6117C20 30.5333 21.4417 26.0917 25.12 22.4C28.5267 18.98 34.3967 17 42.19 17ZM51.6483 44.83C54.2283 42.2383 54.9233 39.0467 54.9233 37.29C54.9233 36.0167 54.59 34.1483 53.0033 32.5567C50.57 30.1133 47.875 29.4233 44.9433 29.4233C41.23 29.4233 38.735 30.6017 37.0733 32.2717C35.77 33.58 34.6433 35.5917 34.6433 38.45C34.6433 41.3067 36.16 44.0667 37.8133 45.725C39.34 47.2583 41.74 48.3933 44.1567 48.3933C46.5733 48.3933 49.0683 47.4217 51.6483 44.83Z" fill="#5952FF"/></svg>