<svg  viewBox="95 25 150 32" fill="none" xmlns="http://www.w3.org/2000/svg"><path fill-rule="evenodd" clip-rule="evenodd" d="M199.919 39.7453C200.505 40.3627 200.799 41.1987 200.799 42.2553V47.8247H198.623V42.8887C198.623 42.266 198.446 41.7747 198.093 41.4127C197.738 41.052 197.256 40.8713 196.647 40.8713C195.927 40.882 195.357 41.1273 194.937 41.6047C194.516 42.0827 194.306 42.694 194.306 43.4387V47.8247H192.147V35.4513H194.306V40.6047C194.915 39.4367 195.983 38.8427 197.511 38.82C198.529 38.82 199.332 39.1287 199.919 39.7453ZM187.352 40.738C186.632 40.738 186.049 40.982 185.6 41.4713C185.152 41.9607 184.927 42.5947 184.927 43.3727C184.927 44.1727 185.152 44.8173 185.601 45.3067C186.049 45.796 186.633 46.04 187.353 46.04C188.415 46.04 189.213 45.69 189.744 44.99L191.089 46.1067C190.691 46.6843 190.147 47.1451 189.511 47.4413C188.858 47.7527 188.1 47.908 187.236 47.908C186.361 47.908 185.584 47.7193 184.903 47.3413C184.232 46.9735 183.682 46.4204 183.317 45.748C182.941 45.0647 182.752 44.2787 182.752 43.3893C182.752 42.4887 182.943 41.694 183.325 41.0047C183.693 40.3299 184.246 39.7744 184.919 39.404C185.6 39.026 186.383 38.8373 187.269 38.8373C188.077 38.8373 188.8 38.9787 189.437 39.262C190.073 39.5453 190.591 39.9487 190.99 40.4707L189.677 41.7213C189.079 41.066 188.305 40.738 187.353 40.738H187.352ZM181.378 38.9033V47.8247H179.219V46.4073C178.911 46.8841 178.485 47.2722 177.981 47.5333C177.477 47.7947 176.899 47.9247 176.246 47.9247C175.405 47.9247 174.666 47.7327 174.029 47.3493C173.392 46.966 172.897 46.4267 172.542 45.732C172.189 45.0373 172.011 44.2393 172.011 43.3387C172.011 42.45 172.188 41.6633 172.543 40.9793C172.896 40.296 173.392 39.7647 174.029 39.3873C174.665 39.0093 175.399 38.82 176.229 38.82C176.883 38.82 177.464 38.9507 177.973 39.212C178.48 39.4712 178.909 39.8593 179.219 40.3373V38.904H181.378V38.9033ZM178.438 45.4487C178.892 45.0093 179.152 44.4287 179.219 43.706V43.0727C179.152 42.3493 178.892 41.7687 178.439 41.33C177.984 40.89 177.409 40.6713 176.711 40.6713C175.969 40.6713 175.366 40.924 174.901 41.43C174.436 41.936 174.197 42.5887 174.187 43.3893C174.197 44.1893 174.436 44.8427 174.901 45.3487C175.366 45.854 175.969 46.1073 176.711 46.1073C177.409 46.1073 177.984 45.8873 178.438 45.4487ZM169.843 40.054C170.557 40.8653 170.914 42.0047 170.914 43.4727C170.914 43.762 170.908 43.978 170.897 44.1227H164.337C164.481 44.7567 164.777 45.254 165.226 45.6153C165.674 45.9767 166.225 46.1573 166.879 46.1573C167.326 46.1587 167.769 46.0708 168.182 45.8987C168.593 45.73 168.963 45.4773 169.27 45.1567L170.432 46.374C169.983 46.8673 169.43 47.2544 168.813 47.5073C168.176 47.7747 167.471 47.908 166.695 47.908C165.788 47.908 164.988 47.7193 164.296 47.3413C163.618 46.9775 163.061 46.4237 162.693 45.748C162.317 45.0647 162.129 44.2787 162.129 43.3893C162.129 42.5 162.319 41.7107 162.702 41.0213C163.072 40.3436 163.628 39.7854 164.304 39.412C164.991 39.028 165.771 38.8367 166.645 38.8367C168.063 38.8367 169.129 39.2433 169.843 40.054ZM168.938 42.672C168.915 42.016 168.699 41.494 168.29 41.1047C167.881 40.7153 167.338 40.5207 166.663 40.5207C166.031 40.5207 165.503 40.7127 165.076 41.0967C164.65 41.48 164.387 42.0047 164.288 42.672H168.938ZM159.783 39.2953C160.297 38.9893 160.898 38.8313 161.585 38.82V40.9213C160.665 40.8653 159.932 41.0793 159.384 41.5633C158.836 42.0467 158.562 42.7 158.562 43.522V47.8247H156.403V38.9033H158.562V40.6207C158.861 40.0433 159.268 39.6007 159.782 39.2953H159.783ZM154.786 47.2733C154.077 47.7067 153.335 47.924 152.561 47.924C151.797 47.924 151.171 47.6987 150.684 47.2487C150.197 46.798 149.953 46.134 149.953 45.256V36.8187L152.095 36.5627V39.27H154.636V40.8547H152.096V44.8733C152.096 45.2847 152.173 45.5767 152.328 45.7487C152.483 45.9213 152.715 46.0073 153.025 46.0073C153.357 46.0073 153.779 45.8847 154.287 45.64L154.786 47.274V47.2733ZM145.953 38.9033H148.095V43.904C148.095 46.8227 146.066 47.908 144.007 47.908C141.948 47.908 139.919 46.8227 139.919 43.904V38.904H142.062V43.9813C142.062 45.1 142.893 46.0073 144.007 46.0073C145.121 46.0073 145.953 45.1007 145.953 43.9813V38.9033H145.953ZM135.481 36.7853C136.406 37.2875 137.178 38.0309 137.714 38.9367C138.257 39.848 138.528 40.86 138.528 41.972C138.528 43.0833 138.257 44.098 137.715 45.0147C137.178 45.9265 136.407 46.6779 135.481 47.1907C134.535 47.724 133.485 47.9907 132.334 47.9907C131.182 47.9907 130.134 47.724 129.187 47.1907C128.262 46.6781 127.49 45.9266 126.953 45.0147C126.411 44.098 126.139 43.0833 126.139 41.972C126.139 40.86 126.411 39.848 126.953 38.9367C127.489 38.0308 128.261 37.2873 129.187 36.7853C130.133 36.2633 131.182 36.002 132.333 36.002C133.485 36.002 134.534 36.2633 135.481 36.7853ZM130.391 38.5287C129.791 38.8699 129.292 39.3646 128.946 39.962C128.591 40.5687 128.415 41.238 128.415 41.972C128.415 42.7053 128.595 43.3787 128.955 43.9893C129.303 44.5896 129.801 45.0894 130.4 45.44C131.003 45.796 131.659 45.9733 132.368 45.9733C133.052 45.977 133.724 45.7925 134.311 45.44C134.903 45.0897 135.393 44.5893 135.731 43.9893C136.08 43.3749 136.261 42.6789 136.254 41.972C136.254 41.2387 136.079 40.5687 135.731 39.9627C135.392 39.3675 134.902 38.8727 134.311 38.5287C133.723 38.1809 133.051 37.9991 132.368 38.0027C131.674 37.9989 130.992 38.1805 130.391 38.5287H130.391ZM109.876 31C112.933 31 117.551 31.9413 119.701 34.1C120.246 34.6473 120.959 35.7193 120.959 37.2893C120.959 40.0807 118.719 44.3633 116.245 46.8473C114.967 48.1313 112.933 49.8093 110.197 49.8093C107.522 49.8093 105.479 47.9853 104.888 47.3913C102.623 45.1167 101 41.664 101 38.4447C101 36.4133 101.577 34.6367 103.048 33.16C104.411 31.792 106.759 31 109.876 31ZM113.659 42.132C114.691 41.0953 114.969 39.8187 114.969 39.116C114.969 38.6067 114.836 37.8593 114.201 37.2227C113.228 36.2453 112.15 35.9693 110.977 35.9693C109.492 35.9693 108.494 36.4407 107.829 37.1087C107.308 37.632 106.857 38.4367 106.857 39.58C106.857 40.7227 107.464 41.8267 108.125 42.49C108.736 43.1033 109.696 43.5573 110.663 43.5573C111.629 43.5573 112.627 43.1687 113.659 42.132Z" fill="#5952FF"/></svg>