<svg width="231" height="52" viewBox="0 0 231 52" fill="none" xmlns="http://www.w3.org/2000/svg">
<path d="M102.062 18.5515L107.261 4.27783H92.6451L88.6943 25.0777H96.002L91.118 47.0556L110.026 18.5515H102.062ZM21.6397 17.713C21.6397 19.0471 21.3923 20.1713 20.8974 21.0859C20.4025 22.0004 19.7354 22.7373 18.8962 23.2968C18.057 23.8563 17.0887 24.2651 15.9913 24.5233C14.8939 24.7815 13.7535 24.9106 12.57 24.9106H9.82651V33.5285H4.30722V10.6767H12.6991C13.9472 10.6767 15.1145 10.8004 16.2011 11.0478C17.2878 11.2953 18.2346 11.6934 19.0415 12.2421C19.8484 12.7908 20.4832 13.5116 20.9458 14.4046C21.4084 15.2976 21.6397 16.4004 21.6397 17.713ZM16.1204 17.7452C16.1204 17.2073 16.0129 16.7662 15.7977 16.4219C15.5825 16.0776 15.292 15.8086 14.9262 15.615C14.5604 15.4213 14.1462 15.2922 13.6836 15.2277C13.2209 15.1631 12.7422 15.1308 12.2473 15.1308H9.82651V20.521H12.1504C12.6669 20.521 13.1618 20.478 13.6351 20.3919C14.1085 20.3058 14.5335 20.1552 14.9101 19.94C15.2866 19.7249 15.5825 19.4398 15.7977 19.0847C16.0129 18.7297 16.1204 18.2832 16.1204 17.7452ZM24.9642 33.5285V10.6767H40.3279V15.3568H30.2899V19.6495H39.7792V24.0714H30.2899V28.8161H40.9088V33.5285H24.9642ZM56.7889 33.5285L51.8506 24.4588H49.9786V33.5285H44.5561V10.6767H53.2708C54.3682 10.6767 55.4387 10.7896 56.4823 11.0156C57.5259 11.2415 58.4619 11.6234 59.2903 12.1614C60.1188 12.6993 60.7804 13.4094 61.2754 14.2916C61.7703 15.1739 62.0177 16.2713 62.0177 17.5838C62.0177 19.1331 61.5981 20.4349 60.7589 21.4893C59.9197 22.5437 58.7578 23.2968 57.2731 23.7487L63.2442 33.5285H56.7889ZM56.563 17.6807C56.563 17.1427 56.45 16.707 56.2241 16.3735C55.9981 16.0399 55.7077 15.7817 55.3526 15.5988C54.9976 15.4159 54.5995 15.2922 54.1584 15.2277C53.7173 15.1631 53.2923 15.1308 52.8834 15.1308H49.9463V20.4565H52.5607C53.0126 20.4565 53.4752 20.4188 53.9486 20.3435C54.422 20.2682 54.8523 20.1337 55.2396 19.94C55.627 19.7464 55.9443 19.4666 56.1918 19.1008C56.4393 18.735 56.563 18.2617 56.563 17.6807ZM71.4102 15.389V20.1014H80.254V24.6524H71.4102V33.5285H65.9555V10.6767H80.9963V15.389H71.4102ZM129.056 33.5285L124.118 24.4588H122.246V33.5285H116.823V10.6767H125.538C126.635 10.6767 127.706 10.7896 128.75 11.0156C129.793 11.2415 130.729 11.6234 131.558 12.1614C132.386 12.6993 133.048 13.4094 133.543 14.2916C134.037 15.1739 134.285 16.2713 134.285 17.5838C134.285 19.1331 133.865 20.4349 133.026 21.4893C132.187 22.5437 131.025 23.2968 129.54 23.7487L135.511 33.5285H129.056ZM128.83 17.6807C128.83 17.1427 128.717 16.707 128.491 16.3735C128.265 16.0399 127.975 15.7817 127.62 15.5988C127.265 15.4159 126.867 15.2922 126.426 15.2277C125.984 15.1631 125.56 15.1308 125.151 15.1308H122.214V20.4565H124.828C125.28 20.4565 125.742 20.4188 126.216 20.3435C126.689 20.2682 127.12 20.1337 127.507 19.94C127.894 19.7464 128.212 19.4666 128.459 19.1008C128.706 18.735 128.83 18.2617 128.83 17.6807ZM162.043 22.0057C162.043 23.8132 161.731 25.4647 161.107 26.9602C160.483 28.4557 159.617 29.736 158.508 30.8011C157.4 31.8662 156.082 32.6893 154.555 33.2703C153.027 33.8512 151.37 34.1417 149.584 34.1417C147.798 34.1417 146.147 33.8512 144.63 33.2703C143.113 32.6893 141.8 31.8662 140.692 30.8011C139.584 29.736 138.718 28.4557 138.094 26.9602C137.47 25.4647 137.158 23.8132 137.158 22.0057C137.158 20.1767 137.47 18.5253 138.094 17.0513C138.718 15.5773 139.584 14.3239 140.692 13.2911C141.8 12.2582 143.113 11.4621 144.63 10.9026C146.147 10.3431 147.798 10.0634 149.584 10.0634C151.37 10.0634 153.027 10.3431 154.555 10.9026C156.082 11.4621 157.4 12.2582 158.508 13.2911C159.617 14.3239 160.483 15.5773 161.107 17.0513C161.731 18.5253 162.043 20.1767 162.043 22.0057ZM156.136 22.0057C156.136 21.0159 155.975 20.0907 155.652 19.23C155.329 18.3692 154.883 17.6323 154.313 17.019C153.742 16.4057 153.054 15.9216 152.247 15.5666C151.44 15.2115 150.552 15.034 149.584 15.034C148.616 15.034 147.734 15.2115 146.937 15.5666C146.141 15.9216 145.453 16.4057 144.872 17.019C144.291 17.6323 143.844 18.3692 143.532 19.23C143.22 20.0907 143.064 21.0159 143.064 22.0057C143.064 23.0386 143.226 23.9907 143.548 24.8622C143.871 25.7337 144.318 26.4814 144.888 27.1054C145.458 27.7295 146.141 28.219 146.937 28.574C147.734 28.9291 148.616 29.1066 149.584 29.1066C150.552 29.1066 151.435 28.9291 152.231 28.574C153.027 28.219 153.715 27.7295 154.296 27.1054C154.877 26.4814 155.329 25.7337 155.652 24.8622C155.975 23.9907 156.136 23.0386 156.136 22.0057ZM185.798 30.3654C184.787 31.5273 183.539 32.4472 182.054 33.125C180.57 33.8028 178.859 34.1417 176.922 34.1417C175.158 34.1417 173.528 33.8512 172.032 33.2703C170.537 32.6893 169.24 31.8662 168.143 30.8011C167.046 29.736 166.185 28.4611 165.561 26.9763C164.937 25.4916 164.625 23.8563 164.625 22.0703C164.625 20.2413 164.942 18.5844 165.577 17.0997C166.212 15.615 167.089 14.3508 168.208 13.3072C169.327 12.2636 170.639 11.4621 172.145 10.9026C173.652 10.3431 175.276 10.0634 177.019 10.0634C178.633 10.0634 180.22 10.3485 181.78 10.9187C183.34 11.489 184.604 12.3228 185.572 13.4202L181.828 17.1643C181.312 16.4542 180.634 15.927 179.795 15.5827C178.956 15.2384 178.095 15.0663 177.213 15.0663C176.244 15.0663 175.357 15.2438 174.55 15.5988C173.743 15.9539 173.049 16.4434 172.468 17.0674C171.887 17.6914 171.435 18.4284 171.113 19.2784C170.79 20.1283 170.628 21.059 170.628 22.0703C170.628 23.1031 170.79 24.0499 171.113 24.9106C171.435 25.7713 171.882 26.5083 172.452 27.1216C173.022 27.7348 173.705 28.2136 174.502 28.5579C175.298 28.9022 176.169 29.0743 177.116 29.0743C178.213 29.0743 179.171 28.8591 179.989 28.4288C180.806 27.9984 181.463 27.439 181.957 26.7504L185.798 30.3654ZM202.13 33.5285L193.642 23.0063H193.577V33.5285H188.155V10.6767H193.577V19.9723H193.674L201.84 10.6767H208.747L198.903 21.1988L209.328 33.5285H202.13ZM223.175 16.6156C222.701 16.0131 222.083 15.5343 221.319 15.1792C220.555 14.8242 219.818 14.6467 219.108 14.6467C218.742 14.6467 218.371 14.679 217.994 14.7435C217.618 14.8081 217.279 14.9318 216.978 15.1147C216.676 15.2976 216.423 15.5343 216.219 15.8248C216.015 16.1153 215.912 16.4864 215.912 16.9383C215.912 17.3256 215.993 17.6484 216.154 17.9066C216.316 18.1648 216.553 18.3908 216.865 18.5844C217.177 18.7781 217.548 18.9556 217.978 19.117C218.408 19.2784 218.893 19.4451 219.431 19.6173C220.205 19.8755 221.012 20.1606 221.851 20.4726C222.69 20.7846 223.454 21.1988 224.143 21.7152C224.831 22.2317 225.402 22.8718 225.854 23.6357C226.305 24.3996 226.531 25.3517 226.531 26.4922C226.531 27.8048 226.289 28.9398 225.805 29.8974C225.321 30.8549 224.67 31.6457 223.852 32.2697C223.035 32.8937 222.099 33.3563 221.044 33.6576C219.99 33.9588 218.903 34.1095 217.784 34.1095C216.149 34.1095 214.568 33.8243 213.04 33.2541C211.512 32.6839 210.242 31.8716 209.231 30.8172L212.846 27.1377C213.406 27.8263 214.143 28.4019 215.057 28.8645C215.972 29.3271 216.881 29.5585 217.784 29.5585C218.193 29.5585 218.591 29.5154 218.979 29.4293C219.366 29.3433 219.705 29.2034 219.995 29.0098C220.286 28.8161 220.517 28.5579 220.689 28.2351C220.861 27.9123 220.948 27.525 220.948 27.0732C220.948 26.6428 220.84 26.277 220.625 25.9758C220.41 25.6745 220.103 25.4002 219.705 25.1527C219.307 24.9052 218.812 24.6793 218.22 24.4749C217.628 24.2705 216.956 24.0499 216.203 23.8132C215.471 23.5765 214.756 23.2968 214.056 22.974C213.357 22.6513 212.733 22.2371 212.184 21.7314C211.636 21.2257 211.195 20.6125 210.861 19.8916C210.528 19.1708 210.361 18.2939 210.361 17.2611C210.361 15.9915 210.619 14.9049 211.135 14.0011C211.652 13.0974 212.33 12.355 213.169 11.7741C214.008 11.1931 214.955 10.7681 216.009 10.4991C217.064 10.2302 218.129 10.0957 219.205 10.0957C220.496 10.0957 221.814 10.3324 223.158 10.8058C224.503 11.2792 225.681 11.9785 226.693 12.9037L223.175 16.6156Z" fill="#3B4C60"/>
</svg>
