<svg width="243" height="49" viewBox="0 0 243 49" fill="none" xmlns="http://www.w3.org/2000/svg">
<path d="M18.9418 36.9549V40.5393C18.9418 41.2986 18.1125 41.7668 17.4522 41.3682L15.7851 40.2976L15.3863 40.0726C15.3578 40.0565 13.0528 38.7236 8.04417 35.827L7.64635 35.5988C7.25413 35.3724 6.93237 35.0484 6.71001 34.6573C6.4901 34.2693 6.37566 33.8289 6.37996 33.3914L6.37805 15.5237C6.37805 15.0491 6.51207 14.5856 6.76158 14.1873C7.00839 13.7876 7.36578 13.4592 7.73723 13.2796L14.9791 9.09356L15.3746 8.86204C15.5061 8.78666 15.5061 8.78666 15.7736 8.63427L22.71 4.62895L23.1146 4.38918C23.5369 4.14591 24.0145 4.03019 24.4986 4.05275C24.9688 4.07558 25.4322 4.22969 25.7571 4.46099L32.9749 8.63278L33.3748 8.85847C33.4038 8.87523 35.8111 10.2673 40.712 13.1015L41.1121 13.3304C41.5042 13.5574 41.8252 13.8809 42.0474 14.2719C42.2668 14.6589 42.3812 15.0992 42.3775 15.5381L42.3791 23.6667C42.3792 24.4179 41.5657 24.8873 40.9154 24.5113L37.8011 22.7109C37.4996 22.5365 37.3139 22.2147 37.3139 21.8664V16.9823L30.9732 13.3151C30.9184 13.2879 30.7949 13.2175 30.452 13.0187L24.3783 9.50274L18.059 13.1531C17.9985 13.1929 17.9985 13.1929 17.9622 13.216C17.9476 13.225 17.7985 13.3118 17.5149 13.4763L11.4436 16.9826V31.9467L17.7873 35.6152C17.8279 35.6355 17.9151 35.6855 18.3196 35.919L18.4503 36.035L18.5586 36.1798C18.7987 36.3632 18.9418 36.6492 18.9418 36.9549ZM37.3139 27.7421C37.3139 26.9916 38.126 26.5222 38.7763 26.8968L41.8905 28.6907C42.1928 28.8649 42.3791 29.1872 42.3791 29.536V32.506C42.3791 32.7605 42.2796 33.005 42.1015 33.1876L40.6333 34.6845C40.0828 35.3883 39.2744 35.6684 38.5532 35.2529L26.9812 28.5437L26.9783 41.2028C27.0189 41.6778 26.8228 42.1425 26.45 42.443C26.085 42.738 26.085 42.738 24.3158 44.1672C24.0507 44.4129 23.7035 44.55 23.3403 44.55C22.5485 44.55 21.9067 43.9077 21.9067 43.1158L21.9086 25.6104L19.9585 24.4832L18.9726 25.0501C18.9256 25.083 18.9423 25.0734 17.9472 25.6479C17.2458 26.0582 16.3627 25.8411 15.9592 25.1452C15.8634 24.9795 15.8634 24.9795 15.4099 24.1959L14.8653 23.2567C14.4574 22.5528 14.6752 21.6713 15.3715 21.2686C15.5418 21.1708 15.5418 21.1708 16.3291 20.7188L18.7036 19.3518L19.1317 19.1101C19.5879 18.7855 20.1925 18.7559 20.6824 19.0387L21.2232 19.3538L37.3139 28.6533V27.7421Z" fill="black"/>
<path fill-rule="evenodd" clip-rule="evenodd" d="M52.7633 32.6006C52.5808 32.6006 52.4211 32.5324 52.284 32.3962C52.1474 32.2597 52.0784 32.1006 52.0784 31.9188V14.1871C52.0784 13.9874 52.1474 13.8235 52.284 13.6964C52.4211 13.5688 52.5808 13.5052 52.7633 13.5052H56.5974C56.7983 13.5052 56.9624 13.5688 57.0904 13.6964C57.2181 13.8235 57.2819 13.9874 57.2819 14.1871V28.3181H65.4978C65.6983 28.3181 65.8675 28.386 66.0042 28.5225C66.1412 28.659 66.2098 28.8271 66.2098 29.0272V31.9188C66.2098 32.1189 66.1412 32.2827 66.0042 32.4099C65.8675 32.5371 65.6983 32.6006 65.4978 32.6006H52.7633ZM67.4421 32.6006C67.296 32.6006 67.1633 32.5417 67.045 32.4232C66.926 32.305 66.8668 32.1731 66.8668 32.0276C66.8668 31.9188 66.8762 31.8369 66.8943 31.7823L73.2752 14.2963C73.4577 13.7689 73.8227 13.5052 74.3705 13.5052H78.6428C79.1902 13.5052 79.5556 13.7689 79.738 14.2963L86.119 31.7823C86.1374 31.8369 86.1464 31.9188 86.1464 32.0276C86.1464 32.1731 86.0869 32.305 85.9682 32.4232C85.8496 32.5417 85.7172 32.6006 85.5712 32.6006H82.0108C81.573 32.6006 81.2625 32.4005 81.08 32.0003L80.094 29.3545H72.9193L71.9332 32.0003C71.7508 32.4005 71.4402 32.6006 71.002 32.6006H67.4421ZM74.0694 25.2627H78.9439L76.5066 18.3062L74.0694 25.2627ZM88.9396 32.6006C88.7387 32.6006 88.57 32.5371 88.4329 32.4099C88.2962 32.2827 88.2277 32.1189 88.2277 31.9188V14.2144C88.2277 14.0147 88.2962 13.8462 88.4329 13.71C88.57 13.5735 88.7387 13.5052 88.9396 13.5052H92.0344C92.4906 13.5052 92.8195 13.7053 93.02 14.1052L97.7304 22.5072L102.468 14.1052C102.669 13.7053 102.998 13.5052 103.454 13.5052H106.549C106.75 13.5052 106.918 13.5735 107.055 13.71C107.192 13.8462 107.261 14.0147 107.261 14.2144V31.9188C107.261 32.1189 107.192 32.2827 107.055 32.4099C106.918 32.5371 106.75 32.6006 106.549 32.6006H103.071C102.888 32.6006 102.728 32.5324 102.591 32.3962C102.455 32.2597 102.386 32.1006 102.386 31.9188V21.9888L99.4284 27.3905C99.1911 27.8086 98.8715 28.0177 98.4698 28.0177H96.9911C96.6258 28.0177 96.3062 27.8086 96.0325 27.3905L93.1022 21.9888V31.9188C93.1022 32.1189 93.0337 32.2827 92.897 32.4099C92.76 32.5371 92.5912 32.6006 92.3903 32.6006H88.9396ZM111.669 32.6006C111.487 32.6006 111.327 32.5324 111.191 32.3962C111.054 32.2597 110.985 32.1006 110.985 31.9188V14.2144C110.985 14.0147 111.049 13.8462 111.176 13.71C111.305 13.5735 111.469 13.5052 111.669 13.5052H120.132C122.45 13.5052 124.176 13.978 125.308 14.9239C126.44 15.8694 127.006 17.2152 127.006 18.9611C127.006 19.8341 126.773 20.5889 126.308 21.2251C125.842 21.8617 125.326 22.3255 124.76 22.6165C125.509 22.9437 126.138 23.4847 126.65 24.2395C127.161 24.9943 127.417 25.8447 127.417 26.7902C127.417 28.6266 126.809 30.0547 125.595 31.0731C124.381 32.0912 122.642 32.6006 120.378 32.6006H111.669ZM119.557 21.0616C120.232 21.0616 120.752 20.8799 121.118 20.5159C121.483 20.152 121.666 19.6796 121.666 19.0976C121.666 18.5336 121.487 18.0745 121.131 17.7199C120.776 17.365 120.25 17.1879 119.557 17.1879H116.134V21.0616H119.557ZM119.803 28.918C120.515 28.918 121.068 28.7132 121.46 28.304C121.852 27.8952 122.049 27.3905 122.049 26.7902C122.049 26.1719 121.848 25.6582 121.446 25.2486C121.045 24.8398 120.497 24.6351 119.803 24.6351H116.134V28.918H119.803ZM131.031 32.6006C130.848 32.6006 130.689 32.5324 130.552 32.3962C130.415 32.2597 130.346 32.1006 130.346 31.9188V14.2144C130.346 14.0147 130.411 13.8462 130.538 13.71C130.666 13.5735 130.83 13.5052 131.031 13.5052H138.234C140.936 13.5052 143.035 14.1461 144.533 15.4287C146.029 16.7104 146.815 18.5519 146.887 20.9524C146.906 21.4798 146.915 22.18 146.915 23.0529C146.915 23.9259 146.906 24.6167 146.887 25.1262C146.705 30.1089 143.866 32.6006 138.37 32.6006H131.031ZM138.234 28.5088C139.384 28.5088 140.232 28.2362 140.781 27.6905C141.328 27.1451 141.62 26.2718 141.657 25.0715C141.694 24.5442 141.712 23.8623 141.712 23.0256C141.712 22.1889 141.694 21.5161 141.657 21.007C141.62 19.8431 141.305 18.9837 140.712 18.4291C140.119 17.8744 139.247 17.5971 138.097 17.5971H135.495V28.5088H138.234ZM148.969 32.6006C148.823 32.6006 148.69 32.5417 148.572 32.4232C148.453 32.305 148.394 32.1731 148.394 32.0276C148.394 31.9188 148.403 31.8369 148.421 31.7823L154.802 14.2963C154.984 13.7689 155.35 13.5052 155.897 13.5052H160.17C160.717 13.5052 161.082 13.7689 161.265 14.2963L167.646 31.7823C167.664 31.8369 167.673 31.9188 167.673 32.0276C167.673 32.1731 167.614 32.305 167.495 32.4232C167.377 32.5417 167.244 32.6006 167.098 32.6006H163.538C163.1 32.6006 162.789 32.4005 162.607 32.0003L161.621 29.3545H154.446L153.46 32.0003C153.278 32.4005 152.967 32.6006 152.529 32.6006H148.969ZM155.596 25.2627H160.471L158.033 18.3062L155.596 25.2627Z" fill="black"/>
<path fill-rule="evenodd" clip-rule="evenodd" d="M173.361 32.8733C173.16 32.8733 172.992 32.8097 172.855 32.6826C172.717 32.5554 172.649 32.3916 172.649 32.1915V18.2243H167.83C167.629 18.2243 167.46 18.1607 167.323 18.0335C167.186 17.906 167.117 17.7426 167.117 17.5424V14.487C167.117 14.2873 167.186 14.1188 167.323 13.9827C167.46 13.8462 167.629 13.7779 167.83 13.7779H182.7C182.9 13.7779 183.07 13.8462 183.207 13.9827C183.343 14.1188 183.412 14.2873 183.412 14.487V17.5424C183.412 17.7426 183.343 17.906 183.207 18.0335C183.07 18.1607 182.9 18.2243 182.7 18.2243H177.88V32.1915C177.88 32.3916 177.811 32.5554 177.675 32.6826C177.538 32.8097 177.369 32.8733 177.168 32.8733H173.361ZM186.506 32.8733C186.324 32.8733 186.164 32.805 186.027 32.6689C185.89 32.5324 185.822 32.3732 185.822 32.1915V14.487C185.822 14.2873 185.885 14.1188 186.014 13.9827C186.142 13.8462 186.306 13.7779 186.506 13.7779H199.432C199.633 13.7779 199.802 13.8462 199.939 13.9827C200.076 14.1188 200.144 14.2873 200.144 14.487V17.1879C200.144 17.388 200.076 17.5514 199.939 17.6786C199.802 17.8061 199.633 17.8697 199.432 17.8697H190.779V21.3343H198.83C199.031 21.3343 199.199 21.4026 199.337 21.5387C199.474 21.6752 199.542 21.8433 199.542 22.0434V24.5258C199.542 24.7259 199.474 24.8941 199.337 25.0306C199.199 25.1667 199.031 25.2354 198.83 25.2354H190.779V28.7815H199.651C199.852 28.7815 200.021 28.8497 200.158 28.9859C200.295 29.1224 200.363 29.2905 200.363 29.4906V32.1915C200.363 32.3916 200.295 32.5554 200.158 32.6826C200.021 32.8097 199.852 32.8733 199.651 32.8733H186.506ZM210.66 33.146C208.89 33.146 207.383 32.8916 206.142 32.3822C204.9 31.8732 203.96 31.2003 203.321 30.3632C202.682 29.5273 202.344 28.6177 202.308 27.6355C202.308 27.472 202.367 27.3355 202.486 27.2263C202.604 27.1174 202.746 27.0628 202.91 27.0628H206.552C206.771 27.0628 206.95 27.0991 207.087 27.1721C207.224 27.2446 207.374 27.3718 207.538 27.5535C207.776 27.99 208.145 28.3493 208.647 28.6313C209.15 28.9133 209.82 29.0541 210.66 29.0541C211.647 29.0541 212.404 28.904 212.933 28.6044C213.463 28.304 213.728 27.8906 213.728 27.3628C213.728 26.9813 213.59 26.6673 213.317 26.422C213.043 26.1762 212.605 25.9578 212.003 25.767C211.4 25.5763 210.533 25.3625 209.4 25.1262C207.192 24.6897 205.539 24.0258 204.444 23.1345C203.348 22.2435 202.801 20.9704 202.801 19.3157C202.801 18.188 203.115 17.1832 203.746 16.3012C204.375 15.4189 205.27 14.7328 206.429 14.2417C207.589 13.7506 208.935 13.5052 210.469 13.5052C212.075 13.5052 213.468 13.7826 214.645 14.3369C215.823 14.8919 216.726 15.5827 217.356 16.4101C217.986 17.2378 218.319 18.0515 218.356 18.8519C218.356 19.0153 218.301 19.1565 218.191 19.2747C218.082 19.3929 217.945 19.4518 217.781 19.4518H213.947C213.545 19.4518 213.235 19.2884 213.016 18.9607C212.906 18.5789 212.623 18.2563 212.167 17.9926C211.71 17.7289 211.144 17.5971 210.469 17.5971C209.702 17.5971 209.108 17.7336 208.689 18.0062C208.269 18.2789 208.059 18.6791 208.059 19.2065C208.059 19.7338 208.333 20.1477 208.88 20.4477C209.428 20.748 210.451 21.0523 211.947 21.3616C213.664 21.6705 215.028 22.0571 216.041 22.5209C217.055 22.9843 217.803 23.585 218.287 24.3211C218.771 25.0579 219.013 25.9902 219.013 27.1175C219.013 28.354 218.657 29.427 217.945 30.3363C217.233 31.2455 216.247 31.941 214.987 32.4232C213.728 32.9053 212.285 33.146 210.66 33.146ZM226.571 32.8733C226.37 32.8733 226.201 32.8097 226.065 32.6826C225.928 32.5554 225.859 32.3916 225.859 32.1915V18.2243H221.04C220.838 18.2243 220.67 18.1607 220.533 18.0335C220.396 17.906 220.328 17.7426 220.328 17.5424V14.487C220.328 14.2873 220.396 14.1188 220.533 13.9827C220.67 13.8462 220.838 13.7779 221.04 13.7779H235.91C236.11 13.7779 236.28 13.8462 236.416 13.9827C236.553 14.1188 236.622 14.2873 236.622 14.487V17.5424C236.622 17.7426 236.553 17.906 236.416 18.0335C236.28 18.1607 236.11 18.2243 235.91 18.2243H231.09V32.1915C231.09 32.3916 231.021 32.5554 230.884 32.6826C230.748 32.8097 230.579 32.8733 230.378 32.8733H226.571Z" fill="black"/>
</svg>
