<svg width="48" height="48" viewBox="0 0 48 48" fill="none" xmlns="http://www.w3.org/2000/svg">
<path d="M3 17.9333C3 12.7062 3 10.0926 4.01727 8.09609C4.91209 6.33991 6.33991 4.91209 8.09609 4.01727C10.0926 3 12.7062 3 17.9333 3H30.0667C35.2938 3 37.9074 3 39.9039 4.01727C41.6601 4.91209 43.0879 6.33991 43.9827 8.09609C45 10.0926 45 12.7062 45 17.9333V30.0667C45 35.2938 45 37.9074 43.9827 39.9039C43.0879 41.6601 41.6601 43.0879 39.9039 43.9827C37.9074 45 35.2938 45 30.0667 45H17.9333C12.7062 45 10.0926 45 8.09609 43.9827C6.33991 43.0879 4.91209 41.6601 4.01727 39.9039C3 37.9074 3 35.2938 3 30.0667V17.9333Z" fill="white"/>
<path d="M7.5 35.34C7.5 36.5334 8.47497 37.5 9.67621 37.5H9.70749C8.48785 37.5 7.5 36.5334 7.5 35.34Z" fill="#FBBC05"/>
<path d="M26.2011 18.6V24.2393L33.8041 18.1068V12.66C33.8041 11.4666 32.8291 10.5 31.6279 10.5H15.1563L15.1416 18.6H26.2011Z" fill="#FBBC05"/>
<path d="M26.2012 29.8811H15.1232L15.1104 37.5004H31.6279C32.831 37.5004 33.8041 36.5338 33.8041 35.3404V30.4229L26.2012 24.2417V29.8811Z" fill="#34A853"/>
<path d="M15.1563 10.5L7.5 18.6H15.1434L15.1563 10.5Z" fill="#EA4335"/>
<path d="M7.5 29.8806V35.34C7.5 36.5334 8.48785 37.5 9.70749 37.5H15.1103L15.1232 29.8806H7.5Z" fill="#1967D2"/>
<path d="M15.1434 18.5999H7.5V29.8804H15.1232L15.1434 18.5999Z" fill="#4285F4"/>
<path d="M40.4893 33.4198V14.8799C40.0607 12.4193 37.362 15.2399 37.362 15.2399L33.8062 18.1073V30.421L38.8963 34.5592C40.734 34.8004 40.4893 33.4198 40.4893 33.4198Z" fill="#34A853"/>
<path d="M26.2012 24.2394L33.806 30.4224V18.1086L26.2012 24.2394Z" fill="#188038"/>
</svg>
