<svg  viewBox="20 16 50 50" fill="none" xmlns="http://www.w3.org/2000/svg"><defs>
<clipPath id="clip0_0_1231">
<rect width="100" height="28.8288" fill="white" transform="translate(101 27)"/>
</clipPath>
</defs><path d="M49.5992 26.4864C49.5427 28.7369 47.9565 31.9438 45.2942 31.9438C43.6513 31.9438 42.2919 30.5935 42.2919 28.9619V28.9057C42.2352 26.2613 41.0457 23.9546 39.1763 22.323C37.7602 21.1415 36.0041 20.3538 34.0781 20.1288C35.7209 18.4409 38.0434 17.4282 40.5925 17.4282C43.8213 17.4282 46.7669 19.2849 48.4663 21.9854C49.2594 23.3357 49.6559 24.9673 49.5992 26.4864Z" fill="#175FFF"/><path d="M39.0642 26.7114C40.4802 28.5117 41.3301 31.9437 39.2908 33.6316C37.9879 34.7006 36.1186 34.5318 35.0423 33.294C33.2862 31.3248 30.8504 30.3121 28.4146 30.2559C26.5453 30.1996 24.6759 30.7622 23.0898 31.8312C23.2598 29.5245 24.3361 27.2177 26.3187 25.5861C28.8678 23.5044 32.4365 22.8856 35.4954 24.1233C36.9116 24.6297 38.1578 25.5299 39.0642 26.7114Z" fill="#175FFF"/><path d="M31.1326 33.5755C33.3418 34.0256 36.2874 36.1635 35.8343 38.7516C35.551 40.3832 33.9649 41.4522 32.3222 41.1709H32.2655C29.6598 40.777 27.1107 41.5647 25.2414 43.0838C23.8252 44.2089 22.6923 45.8407 22.1824 47.6972C20.8229 45.7843 20.1998 43.3651 20.5963 40.8334C21.2195 37.6263 23.542 34.9258 26.7142 33.8568C28.1303 33.4067 29.7164 33.2942 31.1326 33.5755Z" fill="#175FFF"/><path d="M29.4908 43.9274C31.4734 42.8586 35.0988 42.6334 36.4017 44.884C37.2514 46.2905 36.7415 48.147 35.3254 48.9911C33.0595 50.3413 31.6433 52.5355 31.1335 54.9547C30.7937 56.7551 30.9636 58.668 31.8133 60.4122C29.5474 59.8495 27.4515 58.3868 26.2053 56.1926C24.5625 53.3232 24.6192 49.7788 26.3186 46.9657C27.1116 45.6716 28.1879 44.6026 29.4908 43.9274Z" fill="#175FFF"/><path d="M34.929 52.8734C35.7787 50.7917 38.3844 48.3161 40.8203 49.2163C42.4064 49.779 43.1995 51.523 42.633 53.0422C41.7832 55.5176 42.1232 58.1057 43.3128 60.2438C44.2191 61.8753 45.5785 63.1694 47.3347 64.0132C45.182 65.0259 42.6895 65.2511 40.3105 64.3509C37.1949 63.2255 34.929 60.4688 34.4192 57.2055C34.2493 55.7428 34.4192 54.2236 34.929 52.8734Z" fill="#175FFF"/><path d="M44.8977 56.2488C44.1614 54.1109 44.5579 50.5663 47.0502 49.6661C48.6364 49.1036 50.3358 49.8913 50.9023 51.4665C51.8652 53.8859 53.7912 55.6863 56.1137 56.5865C57.8131 57.2615 59.7958 57.374 61.665 56.924C60.7021 59.0618 58.8895 60.8061 56.5102 61.7063C53.3946 62.8315 49.826 62.1563 47.3902 59.962C46.2573 58.8932 45.351 57.6553 44.8977 56.2488Z" fill="#175FFF"/><path d="M54.7543 52.4796C52.8283 51.2981 50.7891 48.3161 52.1485 46.0658C52.9983 44.6592 54.811 44.1529 56.2837 44.9406C58.6062 46.1783 61.212 46.3471 63.5912 45.5594C65.3471 44.9406 66.9333 43.8152 68.0662 42.24C68.6893 44.4904 68.4627 46.966 67.1598 49.1602C65.5171 52.0294 62.3448 53.7736 59.0595 53.6611C57.4733 53.6611 55.9439 53.2673 54.7543 52.4796Z" fill="#175FFF"/><path d="M59.854 43.3084C57.588 43.6461 54.1327 42.6332 53.6796 40.0453C53.3396 38.4699 54.4725 36.8945 56.1153 36.6132H56.1719C58.7777 36.1069 60.8736 34.5316 62.1198 32.4499C63.0828 30.8745 63.5359 29.0179 63.3661 27.105C65.2921 28.399 66.7648 30.4807 67.1613 32.9562C67.7278 36.1632 66.425 39.5389 63.8759 41.5643C62.6863 42.4645 61.2702 43.1397 59.854 43.3084Z" fill="#175FFF"/><path d="M57.8148 33.0691C56.2853 34.7569 52.9998 36.2197 50.9605 34.5319C49.6576 33.4629 49.4876 31.6063 50.564 30.3123C52.2067 28.2868 52.8298 25.6988 52.4332 23.2795C52.1501 21.4791 51.3003 19.735 49.9409 18.3285C52.2634 18.1034 54.6992 18.7786 56.6819 20.4102C59.2309 22.4918 60.4205 25.9238 59.7407 29.1308C59.4574 30.5936 58.7776 32.0001 57.8148 33.0691Z" fill="#175FFF"/></svg>