<svg width="126" height="95" viewBox="0 0 126 95" fill="none" xmlns="http://www.w3.org/2000/svg">
<path d="M3.15002 60.3722V78.2655H26.4116V82.441H30.5871V78.2655H34.7621V82.441V86.616H38.9376V82.441V78.2655H43.1126V82.441V86.616H47.2876V90.7915H51.4631V86.616V82.441H55.6381V86.616H59.8131V82.441V78.2655V60.3722H3.15002Z" fill="#5F2688"/>
<path d="M3.15002 56.1967H59.8131V38.3029H3.15002V56.1967ZM70.6178 47.0116C71.2617 47.0116 71.7601 46.8129 72.1136 46.4164C72.4671 46.0189 72.6438 45.4513 72.6438 44.713C72.6438 43.1438 72.0154 42.3587 70.759 42.3587H68.2855V47.0116H70.6178ZM63.8557 38.3707H71.7484C73.5393 38.3707 74.8901 38.943 75.8009 40.0877C76.7118 41.2328 77.1677 42.7739 77.1677 44.713C77.1677 45.8941 76.9161 46.9424 76.4135 47.856C75.9108 48.7702 75.2272 49.4762 74.3641 49.9746C74.5366 50.1406 74.6858 50.3347 74.8115 50.5563C74.9368 50.7779 75.0785 51.101 75.2356 51.5256L76.9788 56.2061H72.3614L70.759 51.9132C70.6332 51.5808 70.4803 51.3461 70.2994 51.2072C70.1194 51.0688 69.8641 50.9991 69.534 50.9991H68.2855V56.2061H63.8557V38.3707ZM82.657 49.5317L78.5106 43.0786H83.3163L85.0599 45.8481L86.8269 43.0786H91.6093L87.4867 49.5317L91.7982 56.2059H86.9447L85.0599 53.2704L83.1751 56.2059H78.345L82.657 49.5317ZM99.6671 52.218C100.453 52.218 101.089 52.0842 101.576 51.8168C102.062 51.5484 102.436 51.0686 102.695 50.3766C102.954 49.6841 103.084 48.6915 103.084 47.3991C103.084 46.0885 102.966 45.0682 102.73 44.3388C102.495 43.6098 102.129 43.0969 101.635 42.8018C101.139 42.5063 100.484 42.3586 99.6671 42.3586H97.8767V52.218H99.6671ZM93.4473 38.3706H100.233C102.652 38.3706 104.485 39.086 105.734 40.5172C106.983 41.9476 107.607 44.2415 107.607 47.3991C107.607 50.4089 106.983 52.629 105.734 54.0593C104.485 55.4905 102.652 56.2059 100.233 56.2059H93.4473V38.3706ZM116.584 52.5782C117.18 52.5782 117.62 52.4305 117.903 52.135C118.185 51.8394 118.327 51.3504 118.327 50.6672C118.327 50.0762 118.182 49.6376 117.891 49.3519C117.6 49.0653 117.133 48.9227 116.489 48.9227H113.52V52.5782H116.584ZM116.395 45.4883C117.478 45.4883 118.02 44.9155 118.02 43.7709C118.02 43.1799 117.883 42.7418 117.608 42.4556C117.334 42.1694 116.889 42.0264 116.277 42.0264H113.52V45.4883H116.395ZM109.256 38.3704H117.596C119.12 38.3704 120.286 38.7949 121.095 39.6445C121.904 40.4936 122.309 41.7126 122.309 43.3C122.309 44.1866 122.167 44.9525 121.884 45.5987C121.602 46.2453 121.217 46.7531 120.73 47.122C121.437 47.4545 121.967 47.9071 122.32 48.479C122.673 49.0517 122.85 49.8639 122.85 50.9164C122.85 52.5965 122.41 53.8982 121.531 54.8212C120.651 55.7442 119.403 56.2062 117.785 56.2062H109.256V38.3704Z" fill="#8D1F89"/>
<path d="M11.5005 3.7086V7.88408V12.0591H7.32551V7.88408H3.15002V12.0591V16.2341V34.1279H59.8131V16.2341H36.5515V12.0591H32.3765V16.2341H28.201V12.0591V7.88408H24.026V12.0591V16.2341H19.851V12.0591V7.88408H15.676V3.7086H11.5005Z" fill="#E6008D"/>
</svg>
