<svg  viewBox="95 25 150 32" fill="none" xmlns="http://www.w3.org/2000/svg"><defs>
<clipPath id="clip0_0_3237">
<rect width="120" height="27" fill="white" transform="translate(96 28)"/>
</clipPath>
</defs><g clip-path="url(#clip0_0_3237)">
<path fill-rule="evenodd" clip-rule="evenodd" d="M165.785 45.5912L161.784 30.7007C161.42 29.4599 160.474 28.6569 159.31 28.6569C158.219 28.6569 157.2 29.3869 156.837 30.7007L152.69 45.6642C152.472 46.2482 151.962 46.2482 151.889 45.5912L149.27 28.7299C149.27 28.5109 149.052 28.365 148.834 28.365H143.232C143.014 28.365 142.868 28.5839 142.868 28.8029V28.8759L148.033 53.3285C148.106 53.6204 148.325 53.7664 148.616 53.7664H154.217C154.436 53.7664 154.654 53.5474 154.727 53.3285L158.655 39.3869C158.801 38.9489 159.383 38.9489 159.456 39.3869L163.166 53.3285C163.239 53.5474 163.457 53.7664 163.675 53.7664H169.35C169.569 53.7664 169.859 53.5474 169.859 53.3285L175.025 28.8759C175.098 28.6569 174.88 28.365 174.589 28.365H169.569C169.35 28.365 169.205 28.5109 169.132 28.7299L166.586 45.5182C166.513 46.1752 165.931 46.1752 165.785 45.5912ZM116.822 49.3869H98.1969C97.8332 49.3869 97.4694 49.6788 97.4694 50.1168V53.1825C97.4694 53.5474 97.7604 53.9124 98.1969 53.9124H116.822C117.186 53.9124 117.549 53.6204 117.549 53.1825V50.1168C117.549 49.6788 117.259 49.3869 116.822 49.3869ZM119.005 29.0219C119.15 28.8029 119.077 28.5839 118.859 28.5109C118.786 28.438 118.714 28.438 118.641 28.438H113.33C113.184 28.438 113.039 28.5109 112.966 28.6569L108.019 39.0219C107.946 39.2409 107.655 39.3139 107.437 39.2409C107.364 39.1679 107.291 39.1679 107.218 39.0219L102.417 28.6569C102.344 28.5109 102.198 28.438 102.053 28.438H96.4509C96.0871 28.438 95.8688 28.7299 96.0871 29.0949L104.89 45.6642C105.618 47.1241 106.636 47.562 107.582 47.562C108.528 47.562 109.474 47.1241 110.274 45.6642L119.005 29.0219ZM215.622 49.3869H207.11C206.891 49.3869 206.673 49.1679 206.673 48.9489V28.8029C206.673 28.5839 206.455 28.365 206.237 28.365H200.998C200.78 28.365 200.562 28.5839 200.562 28.8029V53.4745C200.562 53.6934 200.78 53.9124 200.998 53.9124H215.549C215.767 53.9124 215.986 53.6934 215.986 53.4745V49.8248C216.059 49.6058 215.84 49.3869 215.622 49.3869ZM187.175 28C181.355 28 176.699 31.7956 176.699 41.2117C176.699 50.7737 181.209 54.2774 187.393 54.2774C192.341 54.2774 195.833 51.7956 196.851 47.2701C196.924 47.0511 196.779 46.8321 196.56 46.7591L192.413 45.5912C192.195 45.5182 191.904 45.6642 191.904 45.8832C191.249 48.7299 189.94 49.6788 187.539 49.6788C184.847 49.6788 183.028 48 182.883 42.7445H196.56C196.779 42.7445 196.997 42.5255 196.997 42.3066V39.5328C196.997 32.3796 193.359 28 187.175 28ZM191.104 38.5839H182.883C182.955 34.3504 184.774 32.3796 187.175 32.3796C189.867 32.4525 191.104 34.7153 191.104 38.5839ZM130.354 28C124.025 28 119.805 31.9416 119.805 41.1387C119.805 50.3358 124.025 54.2774 130.354 54.2774C136.684 54.2774 140.831 50.3358 140.831 41.1387C140.831 31.9416 136.684 28 130.354 28ZM130.354 49.8248C127.881 49.8248 126.135 47.781 126.135 41.1387C126.135 34.4963 127.808 32.5255 130.354 32.5255C132.901 32.5255 134.574 34.5693 134.574 41.1387C134.574 47.781 132.901 49.8248 130.354 49.8248Z" fill="black"/>
</g></svg>