<svg width="48" height="48" viewBox="0 0 48 48" fill="none" xmlns="http://www.w3.org/2000/svg">
<path d="M24.0739 12.6609C33.956 4.9891 28.8842 0 28.8842 0C29.639 7.93108 20.7187 9.80374 18.3277 15.2537C16.6961 18.9727 19.4449 22.229 24.0706 26.3331C23.6616 25.4241 23.0309 24.5409 22.3924 23.6467C20.2147 20.5969 17.946 17.4198 24.0739 12.6609Z" fill="#E76F00"/>
<path d="M25.6515 28.0155C25.6515 28.0155 28.6246 25.6168 26.2701 22.9511C18.2889 13.9078 34.9993 9.80374 34.9993 9.80374C24.7969 14.7188 26.32 17.6361 28.8843 21.1802C31.6299 24.9806 25.6515 28.0155 25.6515 28.0155Z" fill="#E76F00"/>
<path d="M34.4056 35.1684C43.5635 30.4887 39.3292 25.9916 36.3738 26.5975C35.6494 26.7458 35.3264 26.8742 35.3264 26.8742C35.3264 26.8742 35.5953 26.46 36.1089 26.2807C41.9558 24.2593 46.4524 32.2424 34.2215 35.4042C34.2215 35.4043 34.3632 35.2797 34.4056 35.1684Z" fill="#5382A1"/>
<path d="M15.3496 29.2454C9.61968 28.4929 18.4912 26.4209 18.4912 26.4209C18.4912 26.4209 15.046 26.1924 10.8089 28.2065C5.79866 30.5897 23.2021 31.6736 32.211 29.3437C33.1476 28.7148 34.4422 28.1696 34.4422 28.1696C34.4422 28.1696 30.7556 28.8172 27.0842 29.1217C22.5918 29.4919 17.7689 29.5639 15.3496 29.2454Z" fill="#5382A1"/>
<path d="M17.5295 33.7137C14.3344 33.3887 16.4265 31.8658 16.4265 31.8658C8.15848 34.5644 21.0266 37.6245 32.5798 34.3024C31.3518 33.8766 30.5708 33.098 30.5708 33.098C24.9245 34.1672 21.6614 34.1329 17.5295 33.7137Z" fill="#5382A1"/>
<path d="M18.9217 38.5487C15.7289 38.1878 17.5942 37.1211 17.5942 37.1211C10.0889 39.1833 22.1594 43.4438 31.7149 39.4166C30.1498 38.8181 29.0291 38.1271 29.0291 38.1271C24.7666 38.9204 22.7897 38.9826 18.9217 38.5487Z" fill="#5382A1"/>
<path d="M38.908 41.0082C38.908 41.0082 40.2884 42.1266 37.3878 42.9919C31.8722 44.6349 14.4314 45.1311 9.58641 43.0573C7.84476 42.3123 11.1108 41.2783 12.1382 41.0613C13.2097 40.8328 13.822 40.8754 13.822 40.8754C11.8851 39.5337 1.30273 43.51 8.44667 44.6488C27.9292 47.7557 43.9615 43.2497 38.908 41.0082Z" fill="#5382A1"/>
<path d="M42 43.4518C41.6803 47.542 28.1816 48.4024 19.3911 47.8491C13.6565 47.4874 12.5072 46.5837 12.4904 46.5705C17.9788 47.4603 27.2323 47.6223 34.7352 46.2338C41.3855 45.0024 42 43.4518 42 43.4518Z" fill="#5382A1"/>
</svg>
