<svg width="172" height="69" viewBox="0 0 172 69" fill="none" xmlns="http://www.w3.org/2000/svg">
<path d="M30.1255 20.4178H24.1488C22.3393 20.4178 20.9137 18.9921 20.9137 17.1827V11.206C20.9137 9.45136 22.3393 7.97088 24.1488 7.97088H30.1255C31.8801 7.97088 33.3606 9.39652 33.3606 11.206V17.1827C33.3606 18.9921 31.9349 20.4178 30.1255 20.4178Z" fill="#406EB3"/>
<path d="M14.6084 33.8517H7.9189C5.89013 33.8517 4.29999 32.2067 4.29999 30.2327V23.4884C4.29999 21.5144 5.94494 19.8695 7.9189 19.8695H14.6633C16.6921 19.8695 18.2822 21.5144 18.2822 23.4884V30.2327C18.2822 32.2615 16.6372 33.8517 14.6084 33.8517Z" fill="#632678"/>
<path d="M14.0061 47.8338H9.89371C8.68741 47.8338 7.70044 46.8469 7.70044 45.6406V41.5281C7.70044 40.3218 8.68741 39.3349 9.89371 39.3349H14.0061C15.2124 39.3349 16.1994 40.3218 16.1994 41.5281V45.6406C16.1994 46.8469 15.2124 47.8338 14.0061 47.8338Z" fill="#982881"/>
<path d="M25.0253 60.8291H20.1452C18.7196 60.8291 17.5132 59.6777 17.5132 58.1972V53.3171C17.5132 51.8915 18.6647 50.6852 20.1452 50.6852H25.0253C26.4509 50.6852 27.6572 51.8367 27.6572 53.3171V58.1972C27.6572 59.6777 26.5057 60.8291 25.0253 60.8291Z" fill="#BA2F7D"/>
<path d="M42.8467 22.8852H39.5019C38.515 22.8852 37.6925 22.0627 37.6925 21.0757V17.7309C37.6925 16.7439 38.515 15.9215 39.5019 15.9215H42.8467C43.8337 15.9215 44.6562 16.7439 44.6562 17.7309V21.0757C44.7111 22.0627 43.8885 22.8852 42.8467 22.8852Z" fill="#BA2F7D"/>
<path d="M118.571 23.2142C118.571 24.2561 117.748 25.1334 116.651 25.1334C115.555 25.1334 114.677 24.2561 114.677 23.2142C114.677 22.1724 115.555 21.2951 116.651 21.2951C117.693 21.2951 118.571 22.1176 118.571 23.2142Z" fill="#26478D"/>
<path fill-rule="evenodd" clip-rule="evenodd" d="M61.818 29.794C63.5178 28.2588 65.8208 27.3266 68.2882 27.3266C73.7166 27.3266 77.9935 31.6584 77.9935 37.0319C77.9935 42.3506 73.6618 46.6824 68.2882 46.6824C65.8208 46.6824 63.5178 45.7502 61.818 44.2149V52.4946C61.818 53.317 61.0504 54.0299 60.2279 54.0299C59.4602 54.0299 58.6377 53.317 58.6377 52.4946V29.0264C58.6377 28.2039 59.4054 27.4911 60.2279 27.4911C61.1052 27.4911 61.818 28.2039 61.818 29.0264V29.794ZM68.2334 30.5617C64.6144 30.5617 61.7632 33.413 61.7632 37.0319C61.7632 40.6508 64.6144 43.5021 68.2334 43.5021C71.8523 43.5021 74.7036 40.6508 74.7036 37.0319C74.7584 33.413 71.9071 30.5617 68.2334 30.5617Z" fill="#26478D"/>
<path d="M45.754 45.8599C45.4798 46.2985 44.9863 46.5179 44.438 46.5179C44.1638 46.5179 43.78 46.4629 43.5607 46.2985C43.122 46.0244 42.8479 45.4761 42.8479 44.9277C42.8479 44.6536 42.9028 44.3794 43.0672 44.1601L47.5634 37.0867L43.0672 30.0134C42.9027 29.7941 42.8479 29.4651 42.8479 29.2457C42.8479 28.6974 43.122 28.1491 43.6155 27.8749C43.8897 27.7104 44.1638 27.6556 44.438 27.6556C44.9863 27.6556 45.4798 27.8749 45.8088 28.3136L49.4826 34.1258L53.2112 28.3136C53.4853 27.8749 54.0336 27.6556 54.5819 27.6556C54.8561 27.6556 55.1303 27.7105 55.4044 27.8749C55.8979 28.1491 56.1721 28.6974 56.1721 29.2457C56.1721 29.5199 56.1172 29.7941 55.9528 30.0134L51.4565 37.0867L55.9528 44.1601C56.1172 44.3794 56.1721 44.6536 56.1721 44.9277C56.1721 45.4761 55.8979 46.0792 55.4593 46.2985C55.1851 46.4631 54.8561 46.5179 54.5819 46.5179C54.0336 46.5179 53.595 46.2985 53.266 45.8599L49.5374 40.1025L45.754 45.8599Z" fill="#26478D"/>
<path d="M105.466 35.2773V44.9826C105.466 45.8051 104.698 46.5179 103.876 46.5179C102.998 46.5179 102.286 45.8051 102.286 44.9826V29.0265C102.286 28.204 103.053 27.4912 103.876 27.4912C104.643 27.4912 105.411 28.1492 105.466 28.9716C106.782 27.9847 108.482 27.3815 110.291 27.3815C111.278 27.3815 112.046 28.1492 112.046 28.9716C112.046 29.849 111.278 30.6166 110.291 30.6166C107.824 30.6715 105.466 31.5488 105.466 35.2773Z" fill="#26478D"/>
<path d="M116.652 27.4912C115.775 27.4912 115.062 28.204 115.062 29.0265V45.0375C115.062 45.86 115.83 46.5728 116.652 46.5728C117.42 46.5728 118.242 45.86 118.242 45.0375V29.0265C118.242 28.204 117.475 27.4912 116.652 27.4912Z" fill="#26478D"/>
<path fill-rule="evenodd" clip-rule="evenodd" d="M137.048 29.0265C137.048 28.204 137.815 27.4912 138.638 27.4912C139.406 27.4912 140.228 28.204 140.228 29.0265V45.0375C140.228 45.8599 139.46 46.5728 138.638 46.5728C137.761 46.5728 137.048 45.8599 137.048 45.0375V44.2698C135.293 45.8051 133.045 46.7373 130.578 46.7373C125.149 46.7373 120.872 42.4055 120.872 37.032C120.872 31.7132 125.204 27.3815 130.578 27.3815C133.045 27.3815 135.293 28.3136 137.048 29.8489V29.0265ZM130.578 43.5022C134.197 43.5022 137.048 40.6509 137.048 37.032C137.048 33.413 134.197 30.5618 130.578 30.5618C126.959 30.5618 124.107 33.413 124.107 37.032C124.107 40.6509 126.959 43.5022 130.578 43.5022Z" fill="#26478D"/>
<path d="M156.515 35.4967C156.515 32.8099 154.212 30.5069 151.525 30.5069C148.948 30.5069 146.535 31.5488 146.535 35.3322V45.0375C146.535 45.8599 145.768 46.5728 144.945 46.5728C144.068 46.5728 143.355 45.8599 143.355 45.0375V29.0265C143.355 28.204 144.123 27.4912 144.945 27.4912C145.713 27.4912 146.48 28.1492 146.535 28.9716C147.906 27.9298 149.606 27.3815 151.47 27.3815C155.802 27.3815 159.695 30.7811 159.695 35.058V45.0375C159.695 45.8599 158.927 46.5728 158.105 46.5728C157.228 46.5728 156.515 45.8599 156.515 45.0375V35.4967Z" fill="#26478D"/>
<path fill-rule="evenodd" clip-rule="evenodd" d="M41.9148 36.4836C41.8598 31.5487 37.4734 27.3815 32.2643 27.3815C26.8359 27.3815 22.559 31.7132 22.559 37.032C22.559 42.4604 26.8908 46.7373 32.2643 46.7373C34.8414 46.7373 37.254 45.7503 39.0087 43.9957C39.3377 43.7215 39.557 43.228 39.557 42.7893C39.557 41.912 38.7893 41.1992 37.9668 41.1992C37.4734 41.1992 37.0347 41.4734 36.7057 41.8572C35.6091 43.0087 34.0189 43.557 32.3191 43.557C29.084 43.557 26.4521 41.3637 25.9038 38.2931H40.544C40.5989 38.2931 40.6536 38.2931 40.7086 38.2382C41.3666 37.964 41.9148 37.3061 41.9148 36.4836ZM32.2643 30.5618C35.1704 30.5618 37.583 32.4261 38.4055 35.058H26.0683C26.8908 32.4261 29.3034 30.5618 32.2643 30.5618Z" fill="#26478D"/>
<path fill-rule="evenodd" clip-rule="evenodd" d="M99.5978 36.4836C99.543 31.5487 95.1016 27.3815 89.9474 27.3815C84.519 27.3815 80.2421 31.7132 80.2421 37.032C80.2421 42.4604 84.5738 46.7373 89.9474 46.7373C92.5245 46.7373 94.9371 45.7503 96.6917 43.9957C97.0207 43.7215 97.24 43.228 97.24 42.7893C97.24 41.912 96.4724 41.1992 95.6499 41.1992C95.1564 41.1992 94.7178 41.4734 94.3888 41.8572C93.2921 43.0087 91.702 43.557 90.0022 43.557C86.7671 43.557 84.1352 41.3637 83.5868 38.2931H98.3367C98.9947 38.0189 99.5978 37.3061 99.5978 36.4836ZM89.9474 30.5618C92.8535 30.5618 95.2661 32.4261 96.0886 35.058H83.7513C84.5738 32.4261 86.9864 30.5618 89.9474 30.5618Z" fill="#26478D"/>
<path d="M163.093 46.5728C162.929 46.5728 162.819 46.4631 162.819 46.2986V43.6118H162.216C162.051 43.6118 161.942 43.5022 161.942 43.3377C161.942 43.1731 162.051 43.0635 162.216 43.0635H163.971C164.135 43.0635 164.245 43.1731 164.245 43.3377C164.245 43.5022 164.135 43.6118 163.971 43.6118H163.367V46.2986C163.367 46.4631 163.258 46.5728 163.093 46.5728Z" fill="#26478D"/>
<path d="M166.22 46.5728C166.055 46.5728 166 46.4631 165.945 46.3535L165.178 44.1602V46.2986C165.178 46.4631 165.068 46.5728 164.904 46.5728C164.739 46.5728 164.629 46.4631 164.629 46.2986V43.4473C164.629 43.228 164.794 43.0635 165.013 43.0635C165.178 43.0635 165.342 43.1731 165.397 43.3377L166.165 45.5858L166.932 43.3377C166.987 43.1731 167.152 43.0635 167.316 43.0635C167.536 43.0635 167.7 43.2281 167.7 43.4473V46.2986C167.7 46.4631 167.59 46.5728 167.426 46.5728C167.261 46.5728 167.152 46.4631 167.152 46.2986V44.1602C167.119 44.2598 167.08 44.3796 167.038 44.5104C166.942 44.8113 166.828 45.1704 166.713 45.4761C166.439 46.3534 166.384 46.3535 166.384 46.3535C166.439 46.518 166.329 46.5728 166.22 46.5728Z" fill="#26478D"/>
</svg>
