<svg width="184" height="65" viewBox="0 0 184 65" fill="none" xmlns="http://www.w3.org/2000/svg">
<path d="M34.678 54.69C43.0311 53.2144 49.9302 51.9934 50.0094 51.9766L50.1535 51.946L42.2674 42.5657C37.9301 37.4066 34.3813 33.1655 34.3813 33.141C34.3813 33.0947 42.5244 10.6705 42.5702 10.5906C42.5855 10.564 48.1271 20.1314 56.0034 33.7828C63.3773 46.5634 69.4568 57.1011 69.5133 57.1998L69.616 57.3793L44.5533 57.3761L19.4906 57.3729L34.678 54.69V54.69ZM130.791 52.4214C126.975 52.1768 124.757 50.0045 124.169 45.9383C124.012 44.8566 124.012 44.8286 123.996 37.8064L123.98 31.0101H125.669H127.357L127.37 37.5838C127.382 43.5086 127.39 44.2033 127.446 44.6201C127.676 46.3116 128.134 47.4491 128.913 48.2655C129.537 48.919 130.267 49.3016 131.277 49.5046C131.754 49.6004 133.11 49.6006 133.545 49.505C134.569 49.2796 135.391 48.8337 136.115 48.1097C136.94 47.2844 137.551 46.1135 137.847 44.7894L137.946 44.3431L137.957 37.7137L137.969 31.0843H139.692H141.416V41.5059V51.9275H139.71H138.004V50.2741C138.004 49.1506 137.992 48.6247 137.966 48.6334C137.945 48.6404 137.857 48.7745 137.771 48.9312C137.183 50.0034 136.204 50.9839 135.13 51.5747C133.844 52.2828 132.553 52.5345 130.791 52.4215V52.4214ZM169.513 52.4046C168.167 52.3034 166.749 51.8404 165.59 51.1234C163.147 49.6124 161.702 47.1217 161.278 43.694C161.132 42.5079 161.114 40.9147 161.236 39.9068C161.51 37.6548 162.394 35.4441 163.655 33.8658C163.978 33.4612 164.711 32.7284 165.115 32.4053C166.208 31.533 167.486 30.9231 168.842 30.6262C169.633 30.4533 171.025 30.3721 171.865 30.4499C173.975 30.6455 175.909 31.6389 177.223 33.2025C178.558 34.7911 179.292 37.0108 179.386 39.7442C179.401 40.1726 179.404 40.9236 179.394 41.4131L179.375 42.3032L171.986 42.3126L164.596 42.322V42.6517C164.596 43.6556 164.84 44.799 165.262 45.7718C165.626 46.6107 166.252 47.5268 166.765 47.9701C167.816 48.879 169.103 49.4231 170.511 49.554C171.033 49.6026 172.364 49.5515 172.959 49.4601C174.657 49.1992 176.271 48.5333 177.574 47.5562C177.727 47.4412 177.874 47.3338 177.9 47.3175C177.938 47.2936 177.947 47.594 177.946 48.8566L177.945 50.4254L177.596 50.6414C176.121 51.5533 174.432 52.1388 172.644 52.358C172.11 52.4234 170.152 52.4526 169.513 52.4046L169.513 52.4046ZM175.945 39.1733C175.945 37.4917 175.236 35.6237 174.233 34.6618C173.518 33.9753 172.652 33.5558 171.624 33.3965C171.137 33.3212 170.112 33.3502 169.599 33.4538C168.514 33.673 167.617 34.1497 166.835 34.9228C166.012 35.7364 165.394 36.7246 165.006 37.8506C164.867 38.2554 164.703 38.9201 164.653 39.2899L164.628 39.466H170.287H175.945V39.1733ZM75.7047 51.8811C75.7133 51.8556 78.2227 45.2633 81.2811 37.2316L86.8417 22.6283H88.6284H90.415L90.5633 23.0084C91.0163 24.1701 101.695 51.8958 101.695 51.9102C101.695 51.9197 100.84 51.9272 99.7946 51.9272L97.8938 51.9268L96.3547 47.829L94.8155 43.7312L88.6183 43.7311L82.421 43.731L82.3671 43.8701C82.3375 43.9466 81.6799 45.7905 80.9058 47.9676L79.4984 51.9261L77.5937 51.9267C76.086 51.9272 75.6922 51.9177 75.7047 51.881V51.8811ZM93.6844 40.6039C93.6844 40.5975 92.6486 37.7895 91.3826 34.364C89.0143 27.9554 88.8818 27.5699 88.6947 26.541C88.6069 26.0586 88.5625 26.0452 88.5104 26.4854C88.4732 26.8 88.3118 27.5041 88.1873 27.8947C88.1256 28.0885 87.0591 31.0157 85.8173 34.3997C84.5755 37.7836 83.5595 40.5666 83.5595 40.584C83.5595 40.6015 85.8376 40.6158 88.6219 40.6158C91.4063 40.6158 93.6844 40.6104 93.6844 40.6039V40.6039ZM102.845 51.3938V50.8601L109.019 42.3722L115.194 33.8844L109.604 33.8658L104.013 33.8473L104.004 32.4287L103.994 31.0101H112.079H120.165V31.4892V31.9683L113.99 40.5025C110.594 45.1963 107.815 49.0445 107.815 49.0542C107.815 49.0638 110.56 49.0717 113.916 49.0717H120.017V50.4996V51.9275H111.431H102.845V51.3938ZM148.154 51.9027C148.14 51.8891 148.129 47.1827 148.129 41.444V31.0101H149.816H151.504V33.1611C151.504 34.3442 151.518 35.3122 151.536 35.3122C151.553 35.3122 151.636 35.1186 151.718 34.8819C152.098 33.7972 152.756 32.7838 153.603 31.9783C154.367 31.2527 155.24 30.8188 156.27 30.6527C156.559 30.606 156.804 30.5971 157.382 30.6122C158.109 30.6311 158.489 30.6843 158.931 30.8287L159.07 30.8742V32.6258V34.3773L158.671 34.1778C157.967 33.8252 157.272 33.6857 156.437 33.7292C155.893 33.7574 155.536 33.8272 155.101 33.9904C154.207 34.326 153.482 34.9184 152.975 35.727C152.241 36.8977 151.718 38.4024 151.563 39.7854C151.536 40.0336 151.519 42.055 151.513 46.0398L151.503 51.9275H149.841C148.927 51.9275 148.167 51.9163 148.154 51.9027ZM4.59998 51.8295C4.59998 51.8163 8.31587 45.3658 12.8575 37.495L21.1151 23.1846L30.7383 15.1087C36.031 10.667 40.3757 7.0275 40.3932 7.02068C40.4106 7.01423 40.341 7.18946 40.2384 7.41028C40.1359 7.6311 35.4337 17.7169 29.789 29.8233L19.5259 51.8348L12.0629 51.8441C7.95831 51.8493 4.59998 51.8427 4.59998 51.8295V51.8295Z" fill="#0089D6"/>
</svg>
