<svg width="208" height="57" viewBox="0 0 208 57" fill="none" xmlns="http://www.w3.org/2000/svg">
<path d="M64.3591 44.9806V47.4637H65.6191V44.9806H66.8244V51.1802H65.6191V48.586H64.3582V51.1794H63.1537V44.9806H64.3591Z" fill="#CE0024"/>
<path d="M89.6042 44.9806H92.3009V46.0252H90.8104V47.6147H92.2082V48.6213H90.8104V51.182H89.6051L89.6042 44.9806Z" fill="#CE0024"/>
<path d="M71.1933 48.4573H69.7858V50.135H71.3752V51.1849H68.5787V44.9809H71.2754V46.0255H69.784V47.456H71.1915L71.1933 48.4573Z" fill="#262A32"/>
<path d="M73.8785 49.7642L73.6021 51.177H72.433L73.7752 44.9774H75.2225L76.426 51.177H75.2604L74.9893 49.7642H73.8785ZM74.8807 48.8273L74.6785 47.5284C74.6132 47.154 74.5311 46.5262 74.4763 46.1218H74.4489C74.3845 46.5377 74.2926 47.1717 74.2282 47.5284L73.9968 48.8273H74.8807Z" fill="#262A32"/>
<path d="M77.7973 45.071C78.2308 44.9917 78.6706 44.9527 79.1112 44.9544C79.7005 44.9003 80.2893 45.0632 80.7669 45.4127C80.9413 45.5758 81.0766 45.7763 81.1625 45.9991C81.2484 46.2219 81.2828 46.4613 81.2631 46.6993C81.2732 47.0223 81.1879 47.3412 81.0178 47.616C80.8478 47.8908 80.6005 48.1095 80.3068 48.2445V48.2639C80.7307 48.4406 80.9435 48.8264 81.0618 49.4949C81.1446 50.0669 81.2769 50.6306 81.4574 51.1796H80.1973C80.0426 50.6953 79.9376 50.1965 79.8839 49.6909C79.7726 48.9253 79.5801 48.7046 79.1836 48.7046H79.0008V51.177H77.7964L77.7973 45.071ZM79.0017 47.7756H79.2216C79.7514 47.7756 80.0401 47.3536 80.0401 46.8123C80.0401 46.271 79.8291 45.9098 79.2949 45.8904C79.1958 45.8861 79.0968 45.8983 79.0017 45.9266V47.7756Z" fill="#262A32"/>
<path d="M83.4547 46.0917H82.3607V44.9809H85.7638V46.0917H84.6609V51.1796H83.4547V46.0917Z" fill="#262A32"/>
<path d="M94.5639 49.7642L94.2857 51.177H93.1184L94.4606 44.9774H95.9043L97.1105 51.177H95.9422L95.6773 49.7642H94.5639ZM95.5652 48.8273L95.3621 47.5284C95.2985 47.154 95.2155 46.5262 95.1599 46.1218H95.1334C95.0698 46.5377 94.9762 47.1717 94.9144 47.5284L94.6813 48.8273H95.5652Z" fill="#262A32"/>
<path d="M99.6853 44.9809V51.1805H98.4774V44.9809H99.6853Z" fill="#262A32"/>
<path d="M101.449 44.9809H102.653V50.1589H104.238V51.1796H101.449V44.9809Z" fill="#262A32"/>
<path d="M106.62 44.9809V49.0101C106.62 49.9187 106.885 50.1969 107.208 50.1969C107.561 50.1969 107.805 49.9461 107.805 49.0101V44.9809H109.011V48.7982C109.011 50.3876 108.404 51.2565 107.217 51.2565C105.92 51.2565 105.415 50.3602 105.415 48.807V44.9809H106.62Z" fill="#262A32"/>
<path d="M110.741 45.071C111.175 44.9918 111.615 44.9528 112.056 44.9544C112.646 44.9005 113.235 45.0634 113.714 45.4127C113.888 45.5762 114.022 45.7768 114.108 45.9995C114.194 46.2222 114.228 46.4614 114.209 46.6993C114.219 47.0224 114.134 47.3414 113.964 47.6163C113.794 47.8912 113.547 48.1097 113.253 48.2445V48.2639C113.675 48.4405 113.889 48.8264 114.009 49.4949C114.091 50.0669 114.223 50.6307 114.403 51.1796H113.143C112.988 50.6955 112.883 50.1966 112.83 49.6909C112.719 48.9253 112.526 48.7046 112.13 48.7046H111.947V51.177H110.741V45.071ZM111.947 47.7756H112.166C112.285 47.7726 112.403 47.7445 112.51 47.693C112.618 47.6416 112.714 47.5681 112.792 47.4772C112.869 47.3864 112.927 47.2802 112.96 47.1656C112.994 47.0511 113.004 46.9307 112.988 46.8123C112.988 46.2763 112.776 45.9098 112.242 45.8904C112.142 45.8861 112.043 45.8983 111.948 45.9266L111.947 47.7756Z" fill="#262A32"/>
<path d="M118.364 48.4573H116.958V50.135H118.547V51.1849H115.751V44.9809H118.447V46.0255H116.957V47.456H118.364L118.364 48.4573Z" fill="#262A32"/>
<path d="M122.447 49.9478C122.765 50.1033 123.114 50.1856 123.468 50.1889C124.03 50.1889 124.313 49.8949 124.313 49.4904C124.313 49.0383 124.039 48.8176 123.519 48.4776C123.189 48.3171 122.908 48.0729 122.703 47.7695C122.498 47.466 122.376 47.114 122.349 46.7487C122.341 46.496 122.387 46.2446 122.484 46.0111C122.581 45.7776 122.727 45.5675 122.912 45.3948C123.096 45.2222 123.316 45.0909 123.555 45.0098C123.794 44.9286 124.048 44.8995 124.3 44.9244C124.637 44.917 124.971 44.9938 125.271 45.1478L125.08 46.188C124.844 46.0454 124.573 45.972 124.297 45.9761C123.783 45.9761 123.532 46.2869 123.532 46.6198C123.532 46.988 123.717 47.184 124.38 47.5911C124.711 47.754 124.991 48.0052 125.188 48.317C125.386 48.6288 125.493 48.9891 125.498 49.358C125.502 49.6197 125.45 49.8791 125.346 50.1194C125.242 50.3598 125.089 50.5755 124.897 50.7527C124.704 50.9299 124.476 51.0646 124.228 51.1478C123.98 51.2311 123.717 51.2612 123.457 51.2361C123.048 51.243 122.642 51.1576 122.271 50.9863L122.447 49.9478Z" fill="#262A32"/>
<path d="M130.558 47.9699C130.558 50.3081 129.732 51.2556 128.554 51.2556C127.147 51.2556 126.596 49.7633 126.596 48.06C126.596 46.3566 127.266 44.905 128.646 44.905C130.136 44.905 130.558 46.5518 130.558 47.9699ZM127.845 48.0803C127.845 49.4887 128.11 50.2048 128.601 50.2048C129.115 50.2048 129.308 49.2847 129.308 48.0255C129.308 46.9394 129.144 45.9549 128.591 45.9549C128.113 45.9549 127.845 46.7469 127.845 48.0803Z" fill="#262A32"/>
<path d="M134.984 51.0887C134.686 51.1967 134.371 51.2465 134.055 51.2353C132.465 51.2353 131.709 49.939 131.709 48.1721C131.709 45.8357 133.006 44.9226 134.21 44.9226C134.499 44.9039 134.788 44.9611 135.048 45.0886L134.843 46.1015C134.668 46.0178 134.476 45.9772 134.282 45.9831C133.601 45.9831 132.987 46.5712 132.987 48.1068C132.987 49.5876 133.546 50.1677 134.282 50.1677C134.479 50.1659 134.675 50.1361 134.863 50.0794L134.984 51.0887Z" fill="#262A32"/>
<path d="M137.539 44.9809V51.1805H136.334V44.9809H137.539Z" fill="#262A32"/>
<path d="M141.919 48.4573H140.511V50.135H142.101V51.1849H139.306V44.9809H142.001V46.0255H140.511V47.456H141.919V48.4573Z" fill="#262A32"/>
<path d="M144.289 46.0917H143.195V44.9809H146.599V46.0917H145.496V51.1796H144.289V46.0917Z" fill="#262A32"/>
<path d="M148.926 51.1805V48.8061L147.563 44.9809H148.851L149.264 46.4608C149.384 46.8573 149.504 47.3174 149.596 47.7756H149.615C149.688 47.3253 149.792 46.875 149.901 46.4335L150.268 44.9809H151.519L150.132 48.7602V51.1805H148.926Z" fill="#262A32"/>
<path d="M158.803 47.9699C158.803 50.3081 157.976 51.2556 156.797 51.2556C155.39 51.2556 154.838 49.7633 154.838 48.06C154.838 46.3566 155.511 44.905 156.892 44.905C158.38 44.905 158.803 46.5518 158.803 47.9699ZM156.088 48.0803C156.088 49.4887 156.353 50.2048 156.844 50.2048C157.358 50.2048 157.551 49.2847 157.551 48.0255C157.551 46.9394 157.384 45.9549 156.831 45.9549C156.355 45.9549 156.089 46.7469 156.089 48.0803H156.088Z" fill="#262A32"/>
<path d="M160.255 44.9809H162.951V46.0255H161.461V47.6149H162.859V48.6216H161.461V51.1823H160.256L160.255 44.9809Z" fill="#262A32"/>
<path d="M168.053 49.7642L167.778 51.177H166.609L167.952 44.9774H169.397L170.601 51.177H169.434L169.169 49.7642H168.053ZM169.057 48.8273L168.854 47.5284C168.789 47.154 168.707 46.5262 168.653 46.1218H168.625C168.561 46.5377 168.469 47.1717 168.404 47.5284L168.175 48.8273H169.057Z" fill="#262A32"/>
<path d="M175.762 49.0101C175.726 48.4202 175.688 47.6194 175.696 46.9589H175.681C175.568 47.6194 175.403 48.384 175.284 48.8617L174.741 51.0807H173.896L173.38 48.9015C173.26 48.4035 173.095 47.6291 172.993 46.9589H172.978C172.956 47.6291 172.91 48.4132 172.882 49.026L172.771 51.1805H171.741L172.183 44.9809H173.462L173.96 47.2255C174.126 48.007 174.281 48.6957 174.393 49.396H174.42C174.509 48.7054 174.651 48.007 174.806 47.2255L175.303 44.9809H176.577L176.952 51.1805H175.87L175.762 49.0101Z" fill="#262A32"/>
<path d="M181.132 48.4573H179.724V50.135H181.313V51.1849H178.517V44.9809H181.213V46.0255H179.719V47.456H181.128L181.132 48.4573Z" fill="#262A32"/>
<path d="M182.833 45.071C183.267 44.9918 183.708 44.9528 184.15 44.9544C184.74 44.9002 185.329 45.0632 185.807 45.4127C185.981 45.5758 186.117 45.7763 186.202 45.9991C186.288 46.2219 186.323 46.4613 186.303 46.6993C186.313 47.0222 186.227 47.341 186.057 47.6157C185.887 47.8905 185.64 48.1092 185.347 48.2445V48.2639C185.771 48.4405 185.981 48.8264 186.102 49.4949C186.183 50.067 186.315 50.6309 186.496 51.1796H185.235C185.083 50.6945 184.979 50.196 184.923 49.6909C184.813 48.9253 184.62 48.7046 184.223 48.7046H184.041V51.177H182.834L182.833 45.071ZM184.04 47.7756H184.261C184.784 47.7756 185.077 47.3536 185.077 46.8123C185.077 46.271 184.866 45.9098 184.333 45.8904C184.234 45.8859 184.135 45.8982 184.04 45.9266V47.7756Z" fill="#262A32"/>
<path d="M189.051 44.9809V51.1805H187.846V44.9809H189.051Z" fill="#262A32"/>
<path d="M193.789 51.0887C193.492 51.197 193.176 51.2467 192.859 51.2353C191.27 51.2353 190.513 49.939 190.513 48.1721C190.513 45.8357 191.809 44.9226 193.015 44.9226C193.304 44.9037 193.593 44.9609 193.853 45.0886L193.65 46.1015C193.474 46.018 193.281 45.9775 193.087 45.9831C192.409 45.9831 191.793 46.5712 191.793 48.1068C191.793 49.5876 192.353 50.1677 193.087 50.1677C193.285 50.166 193.481 50.1363 193.67 50.0794L193.789 51.0887Z" fill="#262A32"/>
<path d="M196.276 49.7642L196.001 51.177H194.828L196.171 44.9774H197.614L198.819 51.177H197.653L197.384 49.7642H196.276ZM197.276 48.8273L197.07 47.5266C197.004 47.1522 196.922 46.5244 196.867 46.12H196.84C196.774 46.5359 196.683 47.1699 196.62 47.5266L196.39 48.8255L197.276 48.8273Z" fill="#262A32"/>
<path d="M67.7001 9.2947V19.6524H78.6308V9.2947H83.3496V35.1518H78.6308V23.761H67.7001V35.1518H62.9795V9.2947H67.7001Z" fill="#CE0024"/>
<path d="M87.9942 9.2947H102.954V13.1676H92.7112V20.3058H102.228V24.1425H92.7121V35.1518H87.9942V9.2947Z" fill="#CE0024"/>
<path d="M105.325 30.2591C107.298 31.362 109.518 31.947 111.777 31.9598C114.868 31.9598 116.606 30.4975 116.606 28.3191C116.606 26.2997 115.263 25.1129 111.897 23.8864C107.464 22.3014 104.656 19.9659 104.656 16.1301C104.656 11.7354 108.298 8.44794 114.117 8.44794C116.318 8.38572 118.502 8.84693 120.49 9.79364L119.342 13.7107C117.687 12.8685 115.854 12.4349 113.997 12.4462C110.907 12.4462 109.605 14.0709 109.605 15.6542C109.605 17.7098 111.15 18.6617 114.712 20.0471C119.341 21.7893 121.559 24.1231 121.559 27.9624C121.559 32.2777 118.313 35.9978 111.467 35.9978C108.95 36.0308 106.464 35.4456 104.226 34.2936L105.325 30.2591Z" fill="#002650"/>
<path d="M130.501 28.0013L128.205 35.5625H123.176L131.728 8.88768H137.945L146.61 35.566H141.348L138.933 28.0048L130.501 28.0013ZM138.141 24.32L136.043 17.7504C135.529 16.1292 135.092 14.3067 134.699 12.7632H134.617C134.223 14.3085 133.787 16.1672 133.351 17.7504L131.293 24.32H138.141Z" fill="#002650"/>
<path d="M18.1536 39.4795H8.11554V41.0999H19.8057C19.6953 40.9948 19.5796 40.8871 19.471 40.782C19.0154 40.3414 18.5792 39.9087 18.1536 39.4795Z" fill="#CE0024"/>
<path d="M199.884 39.4795H49.888C49.4633 39.9087 49.027 40.3414 48.5705 40.7829C48.4628 40.8871 48.3471 40.9948 48.2359 41.0999H199.884V39.4795Z" fill="#CE0024"/>
<path d="M54.6501 25.2556C54.1501 27.2335 53.2421 29.0851 51.9843 30.6914C50.0932 33.2411 47.9779 35.6168 45.6638 37.7899C45.073 38.3612 44.4682 38.9263 43.8598 39.4826H44.6545C45.1198 39.0517 45.5816 38.6173 46.0364 38.1784C51.4872 32.9086 54.5636 28.5934 55.1782 25.3571L54.6484 25.2565L54.6501 25.2556Z" fill="white"/>
<path d="M28.989 9.25798C28.3921 9.14369 27.7882 9.06935 27.1814 9.03546C25.0931 8.91908 23.0057 9.27935 21.0772 10.089C19.1486 10.8987 17.4296 12.1365 16.0502 13.7087C14.6709 15.281 13.6673 17.1465 13.1155 19.164C12.5636 21.1814 12.4781 23.298 12.8652 25.3534C13.4772 28.5905 16.5527 32.9058 22.0079 38.1747C22.4609 38.6162 22.9227 39.048 23.3889 39.4789H24.1836C23.5752 38.9217 22.9713 38.3566 22.3814 37.7862C20.0659 35.6136 17.9497 33.2379 16.0582 30.6877C14.8007 29.0815 13.8932 27.2299 13.3942 25.2519C12.907 22.6926 13.1865 20.0465 14.1977 17.6455C15.2089 15.2445 16.9066 13.1956 19.0779 11.7559C21.2492 10.3163 23.7973 9.54992 26.4026 9.55307C29.0078 9.55623 31.5541 10.3287 33.7219 11.7737L34.0221 11.9732L34.3223 11.7737C36.4843 10.3263 39.0275 9.55363 41.6292 9.55379C43.5778 9.55038 45.503 9.97744 47.2674 10.8044C49.0318 11.6314 50.5917 12.838 51.8356 14.3378C53.0796 15.8376 53.9769 17.5937 54.4634 19.4806C54.9499 21.3674 55.0137 23.3384 54.65 25.2528L55.1798 25.3534C55.6882 22.6893 55.3981 19.9344 54.3461 17.4346C53.294 14.9349 51.5268 12.8016 49.2664 11.3028C47.006 9.80399 44.3532 9.00641 41.641 9.01022C38.9289 9.01403 36.2783 9.81906 34.0221 11.3242C32.4993 10.3061 30.7879 9.60351 28.989 9.25798Z" fill="white"/>
<path d="M42.0443 41.0999H42.8647C43.4645 40.5701 44.062 40.0299 44.6572 39.4795H43.8625C43.2532 40.0305 42.6501 40.5718 42.0443 41.0999Z" fill="white"/>
<path d="M24.1885 39.4795H23.3938C23.986 40.0288 24.5826 40.5689 25.1836 41.0999H26.0013C25.392 40.5718 24.7863 40.0297 24.1885 39.4795Z" fill="white"/>
<path d="M9.79611 25.891C9.3408 23.475 9.41664 20.989 10.0184 18.6053C10.6201 16.2216 11.7333 13.9974 13.2807 12.0871C14.8281 10.1767 16.7727 8.62597 18.9795 7.54243C21.1863 6.45888 23.6024 5.86849 26.0602 5.81225C26.4064 5.80401 26.7519 5.80666 27.0969 5.8202C29.5067 5.9115 31.8687 6.52044 34.0223 7.60564C36.8439 6.19203 40.0045 5.59507 43.1473 5.88213C46.2902 6.16918 49.2903 7.32881 51.8092 9.2302C54.328 11.1316 56.2654 13.699 57.4028 16.6429C58.5401 19.5868 58.8321 22.7899 58.2459 25.891C57.5394 29.6278 54.5478 34.0826 49.1253 39.4796H49.8873C51.9948 37.4065 53.9192 35.1553 55.6392 32.751C57.1414 30.7393 58.2094 28.4376 58.7757 25.9916C59.204 23.7375 59.1839 21.4211 58.7165 19.1747C58.249 16.9284 57.3434 14.7962 56.0513 12.9002C54.7593 11.0041 53.1062 9.38122 51.1866 8.12442C49.267 6.86762 47.1185 6.00151 44.8639 5.57561C43.7839 5.37076 42.6871 5.26759 41.5879 5.26744C38.9669 5.2686 36.3802 5.86395 34.0223 7.00873C31.6647 5.86408 29.0783 5.26873 26.4576 5.26744C23.885 5.26243 21.3431 5.82582 19.0135 6.91733C16.684 8.00883 14.6243 9.60149 12.9818 11.5815C11.3393 13.5614 10.1544 15.8798 9.51198 18.3709C8.86953 20.862 8.78534 23.4642 9.26542 25.9916C9.83193 28.4377 10.9003 30.7394 12.4027 32.751C14.1239 35.1552 16.0492 37.4064 18.1573 39.4796H18.9193C13.4959 34.0835 10.5052 29.6278 9.79611 25.891Z" fill="white"/>
<path d="M49.8885 39.4795H49.1265C48.8227 39.7824 48.5145 40.0862 48.1966 40.3943C47.9556 40.6266 47.7057 40.8632 47.4514 41.1007H48.2364C48.3476 40.9957 48.4633 40.8879 48.571 40.7837C49.0276 40.3414 49.4638 39.9087 49.8885 39.4795Z" fill="white"/>
<path d="M19.8471 40.3943C19.5274 40.0862 19.2201 39.7824 18.9172 39.4795H18.1552C18.5799 39.9087 19.0161 40.3414 19.4718 40.7829C19.5804 40.8879 19.6961 40.9948 19.8064 41.1007H20.5923C20.338 40.8632 20.0872 40.6266 19.8471 40.3943Z" fill="white"/>
<path d="M34.0215 11.3249C35.5443 10.3065 37.2557 9.60357 39.0547 9.25777C37.2558 9.60351 35.5444 10.3061 34.0215 11.324C32.4986 10.3061 30.7872 9.60351 28.9884 9.25777C30.7874 9.60357 32.4988 10.3065 34.0215 11.3249Z" fill="white"/>
<path d="M23.2795 6.10676C24.1965 5.93291 25.1262 5.83457 26.0592 5.81272C25.1262 5.83457 24.1965 5.93291 23.2795 6.10676Z" fill="white"/>
<path d="M54.6502 25.2556L55.18 25.3563L54.6502 25.2556Z" fill="white"/>
<path d="M14.9289 24.9627C14.4717 22.5824 14.769 20.1187 15.7793 17.9155C16.7896 15.7122 18.4624 13.8793 20.5645 12.6725C22.6665 11.4658 25.0929 10.9453 27.505 11.1838C29.917 11.4222 32.1945 12.4077 34.0195 14.0028V13.9895C35.8466 12.3964 38.1252 11.4131 40.5377 11.1765C42.9502 10.9399 45.3764 11.4619 47.4781 12.6698C49.5798 13.8776 51.2524 15.7111 52.2626 17.9146C53.2728 20.1182 53.5703 22.582 53.1137 24.9627C52.3852 28.8038 46.9874 34.6272 41.5198 39.4802H42.333C43.5913 38.35 44.8399 37.1729 46.024 35.9817C47.8389 34.1937 49.517 32.2719 51.0439 30.2325C52.2632 28.7101 53.1503 26.9493 53.6479 25.0633C53.9473 23.4877 53.9331 21.8686 53.6063 20.2984C53.2794 18.7283 52.6463 17.2379 51.743 15.9127C50.8398 14.5874 49.6842 13.4532 48.3422 12.5749C47.0003 11.6966 45.4984 11.0914 43.9225 10.7939C43.1926 10.6561 42.4515 10.5869 41.7088 10.5873C38.9102 10.6013 36.1986 11.5617 34.0151 13.3123C31.8324 11.5641 29.1232 10.6042 26.3268 10.5882C25.5882 10.5878 24.8511 10.6566 24.1254 10.7939C22.5493 11.0912 21.0473 11.6962 19.7052 12.5745C18.3631 13.4527 17.2073 14.5869 16.304 15.9122C15.4006 17.2375 14.7674 18.7279 14.4405 20.2981C14.1137 21.8684 14.0996 23.4877 14.3991 25.0633C14.8967 26.9493 15.7837 28.7101 17.0031 30.2325C19.5939 33.5954 22.5118 36.6932 25.714 39.4802H26.5237C21.0579 34.6272 15.6583 28.8029 14.9289 24.9627Z" fill="white"/>
<path d="M39.6501 41.0999H40.4819C41.0959 40.5736 41.7119 40.0335 42.33 39.4795H41.5168C40.8952 40.0341 40.2682 40.5762 39.6501 41.0999Z" fill="white"/>
<path d="M26.5245 39.4795H25.713C26.3287 40.0329 26.9442 40.573 27.5594 41.0999H28.3903C27.773 40.5762 27.1488 40.0341 26.5245 39.4795Z" fill="white"/>
<path d="M34.0213 18.1461L34.0151 18.1532L34.0213 18.1603V18.1461Z" fill="#07294F"/>
<path d="M38.2867 14.8847C36.6282 15.624 35.1669 16.7432 34.0209 18.1518V18.1659C35.1665 16.7534 36.6276 15.6295 38.2867 14.8847Z" fill="#07294F"/>
<path d="M28.989 8.71727C28.3921 8.60299 27.7882 8.52865 27.1814 8.49476C25.0931 8.37837 23.0057 8.73865 21.0772 9.54831C19.1486 10.358 17.4296 11.5958 16.0502 13.168C14.6709 14.7403 13.6673 16.6058 13.1155 18.6233C12.5636 20.6407 12.4781 22.7573 12.8652 24.8127C13.4772 28.0498 16.5527 32.3651 22.0079 37.634C25.7551 41.2448 29.7714 44.5653 34.0221 47.567V47.5449C38.2754 44.5532 42.2931 41.2399 46.0398 37.634C51.4906 32.3642 54.567 28.049 55.1816 24.8127L54.6518 24.7121C54.1518 26.69 53.2438 28.5415 51.986 30.1479C50.0948 32.6976 47.9796 35.0732 45.6654 37.2464C42.0462 40.7255 38.1762 43.9338 34.0866 46.8455L34.008 46.8994C33.8378 46.7817 33.6612 46.658 33.4782 46.5285C29.5706 43.6928 25.8632 40.5911 22.3823 37.2455C20.0668 35.0729 17.9506 32.6972 16.0591 30.147C14.8015 28.5408 13.8941 26.6891 13.395 24.7112C12.908 22.1521 13.1877 19.5061 14.1988 17.1053C15.2099 14.7044 16.9076 12.6557 19.0787 11.216C21.2498 9.77642 23.7978 9.01003 26.4028 9.01304C29.0079 9.01605 31.5541 9.78832 33.7219 11.233L34.0221 11.4325L34.3223 11.233C36.4843 9.78556 39.0275 9.01293 41.6292 9.01308C43.5778 9.00967 45.503 9.43673 47.2674 10.2637C49.0318 11.0907 50.5917 12.2973 51.8356 13.7971C53.0796 15.2969 53.9769 17.053 54.4634 18.9399C54.9499 20.8267 55.0137 22.7977 54.65 24.7121L55.1798 24.8127C55.6882 22.1486 55.3981 19.3937 54.3461 16.8939C53.294 14.3942 51.5268 12.2609 49.2664 10.7621C47.006 9.26329 44.3532 8.46571 41.641 8.46952C38.9289 8.47333 36.2783 9.27835 34.0221 10.7835C32.4993 9.76539 30.7879 9.06281 28.989 8.71727Z" fill="white"/>
<path d="M44.8639 5.03547C43.7839 4.83064 42.6871 4.72746 41.5879 4.72731C38.9669 4.72846 36.3802 5.32382 34.0223 6.4686C31.6647 5.32395 29.0783 4.7286 26.4576 4.72731C23.885 4.7223 21.3431 5.28569 19.0135 6.3772C16.684 7.4687 14.6243 9.06136 12.9818 11.0413C11.3393 13.0213 10.1544 15.3397 9.51198 17.8308C8.86953 20.3219 8.78534 22.9241 9.26542 25.4515C9.83193 27.8975 10.9003 30.1993 12.4027 32.2109C14.4937 35.1102 16.8593 37.8011 19.4668 40.2463C23.945 44.419 28.7067 48.2766 33.7177 51.7916L34.0223 52L34.3261 51.7916C39.3352 48.275 44.095 44.4162 48.5716 40.2428C51.1811 37.7979 53.5485 35.107 55.641 32.2074C57.1421 30.1966 58.2095 27.8961 58.7757 25.4515C59.204 23.1974 59.1839 20.8809 58.7165 18.6346C58.249 16.3883 57.3434 14.2561 56.0513 12.36C54.7593 10.4639 53.1062 8.84109 51.1866 7.58429C49.267 6.32749 47.1185 5.46138 44.8639 5.03547ZM58.2459 25.3508C57.4979 29.2979 54.2096 34.0423 48.1946 39.8542C43.7405 44.006 39.0052 47.8453 34.0223 51.3448C29.0382 47.8458 24.302 44.0064 19.8474 39.8542C13.8306 34.0432 10.5449 29.2979 9.79611 25.3508C9.3408 22.9349 9.41664 20.4489 10.0184 18.0652C10.6201 15.6815 11.7333 13.4573 13.2807 11.547C14.8281 9.63661 16.7727 8.08584 18.9795 7.0023C21.1863 5.91875 23.6024 5.32836 26.0602 5.27212C26.4064 5.26388 26.7519 5.26653 27.0969 5.28007C29.5067 5.37137 31.8687 5.9803 34.0223 7.06551C36.8439 5.6519 40.0045 5.05494 43.1473 5.34199C46.2902 5.62905 49.2903 6.78868 51.8092 8.69007C54.328 10.5915 56.2654 13.1589 57.4028 16.1028C58.5401 19.0467 58.8321 22.2498 58.2459 25.3508Z" fill="white"/>
<path d="M34.0215 10.7848C35.5443 9.76632 37.2557 9.06344 39.0547 8.71764C37.2558 9.06338 35.5444 9.76594 34.0215 10.7839C32.4986 9.76594 30.7872 9.06338 28.9884 8.71764C30.7874 9.06344 32.4988 9.76632 34.0215 10.7848Z" fill="white"/>
<path d="M23.2801 5.56606C24.1971 5.39221 25.1267 5.29386 26.0598 5.27202C25.1267 5.29386 24.1971 5.39221 23.2801 5.56606Z" fill="white"/>
<path d="M54.6502 24.7161L55.18 24.8168L54.6502 24.7161Z" fill="white"/>
<path d="M26.074 33.4131C24.0407 31.5001 22.1735 29.4178 20.4925 27.1888C19.9906 26.5119 19.5379 25.7998 19.138 25.0581C18.8959 24.6277 18.7147 24.166 18.5994 23.6859C18.4043 22.6572 18.4139 21.6002 18.6275 20.5752C18.8411 19.5502 19.2545 18.5773 19.8442 17.7122C20.4338 16.847 21.1881 16.1065 22.0641 15.5329C22.94 14.9593 23.9203 14.5639 24.9491 14.3693C25.4633 14.2703 25.9857 14.22 26.5093 14.2192C27.685 14.2196 28.8454 14.4858 29.9036 14.998C31.3352 15.7174 32.599 16.7308 33.6122 17.9719L34.0025 18.4276V17.6284L34.0158 17.6134C30.7434 13.7935 27.3941 13.352 24.8484 13.8386C22.6314 14.261 20.6725 15.5456 19.4014 17.4106C18.1304 19.2756 17.6511 21.5686 18.0687 23.7865C18.3662 25.3495 20.5261 28.8029 25.6987 33.8016C28.338 36.3298 31.1086 38.7172 33.999 40.954V40.267C31.2429 38.1181 28.5978 35.8305 26.074 33.4131Z" fill="white"/>
<path d="M43.176 13.8476C45.3926 14.2699 47.3512 15.5541 48.6222 17.4185C49.8932 19.2829 50.3728 21.5754 49.9558 23.7929C49.6582 25.3576 47.5001 28.8111 42.3284 33.8089C39.6854 36.3394 36.9106 38.7286 34.0157 40.9666H34.0219C36.9217 38.7251 39.7012 36.332 42.3487 33.7974C47.5196 28.7996 49.6776 25.3462 49.9761 23.7824C50.3934 21.5644 49.914 19.2715 48.643 17.4066C47.372 15.5417 45.4133 14.257 43.1963 13.8344C41.5468 13.506 39.8367 13.6808 38.2877 14.3359C39.8321 13.6899 41.5343 13.5199 43.176 13.8476Z" fill="white"/>
<path d="M43.9225 10.2532C43.1926 10.1154 42.4515 10.0462 41.7088 10.0466C38.9102 10.0606 36.1986 11.021 34.0151 12.7716C31.8324 11.0234 29.1232 10.0635 26.3268 10.0475C25.5882 10.0471 24.8511 10.1159 24.1254 10.2532C22.5493 10.5505 21.0473 11.1555 19.7052 12.0338C18.3631 12.912 17.2073 14.0462 16.304 15.3715C15.4006 16.6968 14.7674 18.1872 14.4405 19.7574C14.1137 21.3277 14.0996 22.947 14.3991 24.5226C14.8967 26.4086 15.7837 28.1694 17.0031 29.6918C21.0473 35.2547 28.7109 41.8234 33.7052 45.4314L34.0213 45.6592L34.3374 45.4314C38.4806 42.4027 42.3871 39.0629 46.0231 35.441C47.8384 33.6531 49.5167 31.7312 51.0439 29.6918C52.2632 28.1694 53.1503 26.4086 53.6479 24.5226C53.9473 22.947 53.9331 21.3278 53.6063 19.7577C53.2794 18.1876 52.6463 16.6972 51.743 15.372C50.8398 14.0467 49.6842 12.9125 48.3422 12.0342C47.0003 11.1559 45.4984 10.5507 43.9225 10.2532ZM53.1146 24.4211C52.0329 30.1297 40.6306 40.2269 34.0222 44.9952C27.4164 40.2269 16.0088 30.1324 14.9315 24.4211C14.4743 22.0408 14.7716 19.5771 15.7819 17.3739C16.7922 15.1706 18.4651 13.3377 20.5671 12.131C22.6692 10.9242 25.0955 10.4037 27.5076 10.6422C29.9197 10.8806 32.1971 11.8662 34.0222 13.4612V13.4488C35.8494 11.8568 38.1276 10.8743 40.5396 10.6383C42.9515 10.4023 45.377 10.9245 47.4782 12.1322C49.5793 13.3398 51.2514 15.1728 52.2616 17.3757C53.2717 19.5786 53.5696 22.0418 53.1137 24.422L53.1146 24.4211Z" fill="white"/>
<path d="M34.0125 40.9654L33.9984 40.976V40.9548C31.108 38.7181 28.3374 36.3306 25.6981 33.8025C20.5255 28.8046 18.3692 25.3512 18.0681 23.7874C17.6503 21.5692 18.1296 19.2758 19.4008 17.4106C20.672 15.5454 22.6313 14.2608 24.8487 13.8385C27.39 13.3546 30.7454 13.797 34.0125 17.609L34.0187 17.6019V13.4588C32.1934 11.8645 29.9159 10.8797 27.5041 10.6418C25.0922 10.4039 22.6662 10.9248 20.5646 12.1318C18.463 13.3388 16.7905 15.1717 15.7806 17.3748C14.7706 19.5779 14.4735 22.0413 14.9307 24.4214C16.0124 30.13 27.4156 40.2272 34.0214 44.9955V40.9698L34.0125 40.9654Z" fill="#CE0024"/>
<path d="M22.0081 37.6353C16.5529 32.3655 13.4774 28.0502 12.8655 24.814C12.3564 22.1499 12.6459 19.3947 13.6978 16.8945C14.7496 14.3944 16.5167 12.2609 18.7773 10.7619C21.0378 9.26291 23.6909 8.46537 26.4033 8.46945C29.1156 8.47352 31.7663 9.27904 34.0223 10.7848V7.06558C31.8687 5.98037 29.5068 5.37143 27.0969 5.28013C26.7525 5.26659 26.407 5.26395 26.0603 5.27219C23.6025 5.32856 21.1865 5.91903 18.9798 7.00263C16.7731 8.08624 14.8287 9.63702 13.2813 11.5474C11.734 13.4577 10.6209 15.6818 10.0192 18.0655C9.41754 20.4491 9.34172 22.935 9.79702 25.3509C10.5449 29.2979 13.8341 34.0423 19.8483 39.8543C24.3026 44.0068 29.0385 47.8464 34.0223 51.3458V47.5638C29.7718 44.5636 25.7554 41.2445 22.0081 37.6353Z" fill="#CE0024"/>
<path d="M44.7638 5.56663C41.1157 4.86899 37.3392 5.39674 34.0221 7.06774V10.7861C36.2791 9.28635 38.9284 8.48564 41.6382 8.4842C44.3481 8.48276 46.9982 9.28064 49.2569 10.778C51.5155 12.2753 53.2823 14.4056 54.3362 16.9022C55.39 19.3987 55.6841 22.1507 55.1816 24.8135C54.5635 28.0507 51.4906 32.3659 46.0398 37.6348C42.2937 41.241 38.2766 44.5546 34.0238 47.5466V51.3435C39.007 47.8443 43.7426 44.0053 48.197 39.8538C54.2111 34.0427 57.5004 29.2975 58.2483 25.3504C59.077 20.9395 58.1229 16.38 55.5952 12.6714C53.0675 8.96284 49.1724 6.40787 44.7638 5.56663Z" fill="#74787D"/>
<path d="M43.8216 10.7837C42.0925 10.4688 40.3147 10.5449 38.6188 11.0063C36.9228 11.4678 35.3516 12.3029 34.0203 13.4504V17.6093C35.1662 16.2008 36.6275 15.0816 38.2861 14.3422C39.8351 13.687 41.5452 13.5123 43.1947 13.8407C45.4116 14.2633 47.3704 15.548 48.6414 17.4129C49.9123 19.2778 50.3918 21.5707 49.9744 23.7886C49.6769 25.3516 47.5179 28.805 42.347 33.8037C39.6995 36.3383 36.9201 38.7313 34.0203 40.9728V44.9958C40.6287 40.2276 52.0336 30.133 53.1127 24.4217C53.6849 21.3816 53.0282 18.2386 51.2865 15.682C49.5448 13.1254 46.8603 11.3639 43.8216 10.7837Z" fill="#74787D"/>
<path d="M34.0222 40.2843C36.7861 38.13 39.4385 35.8365 41.9692 33.4127C45.82 29.6926 47.9737 26.8378 48.9026 25.0577C49.1446 24.6273 49.3258 24.1655 49.4412 23.6855C49.6363 22.657 49.6268 21.6001 49.4134 20.5753C49.2 19.5505 48.7868 18.5777 48.1974 17.7125C47.608 16.8474 46.854 16.1068 45.9784 15.5331C45.1028 14.9594 44.1227 14.5638 43.0942 14.3689C42.5803 14.2698 42.0582 14.2195 41.5348 14.2188C40.3591 14.2193 39.1988 14.4855 38.1405 14.9976C36.7091 15.7172 35.4454 16.7306 34.4319 17.9715L34.0222 18.4501L34.0019 18.4272V40.2684L34.0222 40.2843Z" fill="#002650"/>
<path d="M34.0219 17.6199L34.0157 17.6128L34.0024 17.6278V18.4269L34.0227 18.4499L34.4325 17.9713C35.4459 16.7304 36.7096 15.717 38.1411 14.9973C39.1994 14.4853 40.3597 14.219 41.5354 14.2185C42.0587 14.2193 42.5809 14.2696 43.0948 14.3686C44.1236 14.5632 45.104 14.9585 45.98 15.532C46.8561 16.1056 47.6105 16.8461 48.2002 17.7113C48.79 18.5764 49.2035 19.5493 49.4171 20.5744C49.6308 21.5994 49.6404 22.6565 49.4454 23.6852C49.3299 24.1653 49.1487 24.6271 48.9067 25.0574C47.9787 26.8367 45.8241 29.6923 41.9734 33.4125C39.4426 35.8363 36.7902 38.1298 34.0263 40.284L34.006 40.2681V40.9551L34.0201 40.9657C36.915 38.7278 39.6897 36.3386 42.3327 33.808C47.5036 28.8111 49.6617 25.3577 49.9602 23.7921C50.3772 21.5745 49.8976 19.2821 48.6266 17.4176C47.3556 15.5532 45.397 14.269 43.1804 13.8468C41.5383 13.5204 39.8361 13.692 38.2921 14.3395C36.6315 15.0835 35.1688 16.2071 34.0219 17.6199Z" fill="#002650"/>
<path d="M34.0213 17.6202V17.6061L34.0151 17.6132L34.0213 17.6202Z" fill="#07294F"/>
<path d="M34.0019 40.9763L34.016 40.9657L34.0019 40.9551V40.9763Z" fill="#07294F"/>
</svg>
