<svg  viewBox="20 16 50 50" fill="none" xmlns="http://www.w3.org/2000/svg"><defs>
<clipPath id="clip0_0_332">
<rect width="50" height="38.4615" fill="white" transform="translate(20 22)"/>
</clipPath>
</defs><g clip-path="url(#clip0_0_332)">
<path d="M52.7653 25.0769C50.8951 27.5769 50.4432 28.4099 48.638 28.4099H21.6836V60.4615H32.2593C34.6451 60.4615 36.9661 59.3077 38.4492 57.3846C40.3844 54.821 40.6415 54.0517 42.5117 54.0517H69.5309V22H58.8903C56.5046 22 54.1847 23.1538 52.7653 25.0769ZM61.1474 45.7825H49.8626C47.4119 45.7825 45.1559 46.8077 43.6728 48.7944C41.7376 51.3594 41.3507 52.1287 39.5453 52.1287H30.0021V36.744H41.2869C43.7365 36.744 45.9936 35.5901 47.4769 33.6671C49.4119 31.1671 49.9276 30.3978 51.668 30.3978H61.1474V45.7825Z" fill="black"/>
</g></svg>