<svg  viewBox="95 25 150 32" fill="none" xmlns="http://www.w3.org/2000/svg"><defs>
<linearGradient id="paint0_linear_0_429" x1="21.5625" y1="19.125" x2="68.4375" y2="66" gradientUnits="userSpaceOnUse">
<stop stop-color="#DEBF4B"/>
<stop offset="0.192708" stop-color="#6FAA72"/>
<stop offset="0.657004" stop-color="#4967BD"/>
</linearGradient>
<clipPath id="clip0_0_429">
<rect width="50" height="50" fill="white" transform="translate(20 16)"/>
</clipPath>
<clipPath id="clip1_0_429">
<rect width="100" height="20.4082" fill="white" transform="translate(92 31)"/>
</clipPath>
</defs><g clip-path="url(#clip1_0_429)">
<path d="M170.887 43.8599V36.3199H172.035C173.16 36.3199 173.184 36.3199 173.216 36.5023C173.239 36.5975 173.303 36.9067 173.358 37.1921L173.461 37.6995L174 37.2079C174.982 36.3279 175.94 36.0108 177.223 36.1534C178.91 36.3437 180.098 37.5092 180.597 39.4596C180.756 40.1098 180.787 40.4111 180.787 41.4655C180.78 43.7014 180.272 45.1364 179.093 46.1988C177.984 47.2058 176.439 47.5467 174.649 47.1899C174.261 47.1106 173.873 47.0155 173.802 46.9838C173.667 46.9283 173.659 47.0551 173.659 48.9104C173.659 50.0045 173.627 50.9163 173.588 50.9401C173.524 50.9797 173.247 51.0273 171.956 51.2255C171.695 51.2651 171.346 51.3206 171.188 51.3524L170.887 51.4079V43.8599ZM176.265 44.9858C176.994 44.7559 177.493 44.2009 177.833 43.2415C178.039 42.6786 178.031 40.7361 177.825 40.1018C177.635 39.4914 177.271 39.0315 176.788 38.7857C175.956 38.3496 175.005 38.6113 174.118 39.5072L173.659 39.9829V42.3139V44.6369L173.904 44.7717C174.221 44.9303 175.021 45.1047 175.489 45.1127C175.695 45.1206 176.043 45.0571 176.265 44.9858Z" fill="black"/>
<path d="M96.1978 47.3405C94.091 47.063 92.6178 45.6359 92.0871 43.3524C92.0396 43.1463 92 42.4486 92 41.8064C92 40.411 92.1505 39.7291 92.6495 38.7539C93.2514 37.5805 94.3048 36.7163 95.588 36.3437C96.4117 36.1058 98.067 36.0741 98.8907 36.2802C99.3581 36.3992 100.514 36.9066 100.586 37.0255C100.602 37.0493 100.586 37.2872 100.546 37.5488C100.34 38.9204 100.261 39.4199 100.213 39.4596C100.19 39.4834 99.9283 39.3565 99.6273 39.1821C98.9462 38.7619 98.4551 38.6112 97.6552 38.5637C95.8414 38.4447 94.7721 39.634 94.7721 41.7588C94.7721 42.9878 95.0335 43.7172 95.6671 44.3039C96.3958 44.9778 97.3304 45.1919 98.4155 44.9302C98.9858 44.7954 99.3343 44.6369 99.8729 44.2959C100.111 44.1453 100.332 44.0502 100.356 44.0898C100.396 44.1532 100.586 45.287 100.689 46.0482C100.728 46.3732 100.728 46.3812 100.348 46.6269C99.3897 47.2295 97.6393 47.5308 96.1978 47.3405Z" fill="black"/>
<path d="M111.951 47.3405C111.318 47.2375 110.557 46.9679 110.138 46.6983C109.773 46.4684 109.061 45.7945 108.831 45.4615C108.569 45.0809 108.237 44.3198 108.078 43.7489C107.849 42.8689 107.849 40.7361 108.078 39.8957C108.585 38.088 109.765 36.7877 111.35 36.312C111.769 36.1852 112.118 36.1534 112.894 36.1455C113.789 36.1455 113.963 36.1693 114.494 36.3596C115.904 36.867 116.838 37.9294 117.266 39.5072C117.448 40.2049 117.591 41.5448 117.527 42.0047L117.48 42.3456L114.066 42.3615L110.653 42.3852L110.676 42.7817C110.724 43.8599 111.453 44.8272 112.419 45.1285C113.013 45.3029 113.947 45.3108 114.636 45.1364C115.27 44.9699 116.347 44.4863 116.791 44.1533C117.108 43.9234 117.234 44.0027 117.29 44.4625C117.314 44.6686 117.377 45.1285 117.424 45.4773C117.512 46.0879 117.504 46.1116 117.329 46.2464C116.87 46.5873 116.031 46.96 115.167 47.1978C114.526 47.3722 112.664 47.4515 111.951 47.3405ZM114.811 40.4269C114.811 40.1415 114.613 39.4834 114.423 39.1187C114.058 38.3972 113.512 38.0642 112.72 38.0642C111.777 38.0642 110.851 39.0473 110.716 40.189L110.668 40.6013H112.744H114.811V40.4269Z" fill="black"/>
<path d="M121.227 47.3485C120.348 47.1582 119.556 46.508 119.239 45.7072C118.97 45.0412 118.97 43.7093 119.239 43.0353C119.5 42.3614 120.205 41.6399 120.934 41.2831C122.011 40.7678 122.827 40.5537 125.029 40.2287L125.465 40.1573L125.457 39.7133C125.441 38.7619 124.91 38.3813 123.611 38.3813C122.74 38.3813 122.138 38.5003 121.092 38.865C120.134 39.2059 120.094 39.2059 120.023 38.8174C119.865 37.977 119.738 37.0731 119.778 37.0097C119.857 36.8749 121.14 36.4706 122.09 36.2723C122.882 36.1058 125.132 36.1058 125.773 36.2723C127.239 36.6608 127.999 37.4537 128.197 38.8174C128.237 39.1266 128.276 41.0849 128.276 43.2811V47.1819H127.104H125.924L125.837 46.7776C125.781 46.5556 125.742 46.294 125.742 46.1829C125.742 45.9372 125.583 45.9372 125.346 46.1909C125.037 46.5239 124.316 46.96 123.762 47.1661C123.366 47.3167 123.049 47.3643 122.376 47.3881C121.9 47.396 121.378 47.3881 121.227 47.3485ZM124.332 45.0254C124.577 44.9144 124.942 44.6686 125.14 44.4862L125.504 44.1453V42.9957V41.8461L125.092 41.9016C123.738 42.076 122.479 42.623 122.083 43.2098C121.607 43.8916 121.694 44.6845 122.281 45.1047C122.51 45.2712 122.605 45.287 123.207 45.2633C123.73 45.2395 123.983 45.1919 124.332 45.0254Z" fill="black"/>
<path d="M141.225 47.3407C140.584 47.2455 139.475 46.9125 138.841 46.6271C138.334 46.3972 138.327 46.3893 138.366 46.1355C138.619 44.5578 138.683 44.201 138.738 44.1376C138.77 44.1059 139.007 44.201 139.261 44.3516C140.275 44.97 141.328 45.2793 142.493 45.3031C143.237 45.3189 143.419 45.2951 143.736 45.1445C144.187 44.9383 144.394 44.645 144.394 44.201C144.394 43.5746 143.895 43.2258 142.453 42.8452C139.974 42.1951 139.158 41.6956 138.707 40.546C138.564 40.1813 138.508 38.9206 138.612 38.5004C138.865 37.4935 139.728 36.661 140.861 36.3201C141.558 36.1139 143.649 36.0901 144.488 36.2804C145.178 36.439 146.239 36.7879 146.295 36.8751C146.318 36.9147 146.302 37.1764 146.255 37.4618C146.215 37.7472 146.136 38.2229 146.096 38.5163C146.049 38.8096 145.985 39.0792 145.946 39.1188C145.906 39.1585 145.685 39.0871 145.455 38.9682C144.18 38.326 142.453 38.0326 141.716 38.3418C141.075 38.6035 140.901 39.2774 141.352 39.7135C141.574 39.9355 142.746 40.4429 143.031 40.4429C143.213 40.4429 144.695 40.9186 145.098 41.101C146.405 41.7035 146.968 42.5519 146.968 43.9473C146.968 45.6519 146.12 46.7698 144.473 47.2217C143.91 47.3724 141.938 47.4437 141.225 47.3407Z" fill="black"/>
<path d="M152.789 47.3643C152.329 47.3167 151.426 47.0393 150.967 46.8014C150.341 46.4922 149.422 45.5091 149.082 44.8034C148.591 43.7807 148.512 43.3525 148.512 41.8302C148.52 40.308 148.607 39.8243 149.066 38.8809C149.723 37.5409 150.808 36.6609 152.282 36.2803C152.963 36.0979 154.666 36.1059 155.363 36.2803C155.901 36.423 156.971 36.8829 157.05 37.0097C157.105 37.1049 156.788 39.3486 156.701 39.4438C156.67 39.4834 156.543 39.4358 156.416 39.3565C155.711 38.8491 154.761 38.5399 153.945 38.5399C152.258 38.5399 151.244 39.7609 151.244 41.7985C151.244 43.3525 151.87 44.407 153.042 44.8589C154.016 45.2316 155.355 44.9858 156.432 44.2484L156.788 44.0027L156.86 44.185C157.01 44.5497 157.216 46.2385 157.129 46.3812C157.01 46.5715 156.115 47.0076 155.466 47.182C154.895 47.3406 153.43 47.4436 152.789 47.3643Z" fill="black"/>
<path d="M162.57 47.3486C162.04 47.2455 161.247 46.9601 160.915 46.7539C160.4 46.4289 159.735 45.755 159.442 45.2713C158.737 44.1138 158.499 43.1148 158.555 41.5132C158.594 40.2447 158.705 39.7452 159.172 38.8096C159.751 37.6362 160.748 36.764 161.976 36.3597C162.515 36.1853 162.744 36.1536 163.64 36.1536C164.535 36.1536 164.748 36.1773 165.287 36.3518C166.879 36.883 167.98 38.0485 168.519 39.8086C168.685 40.3319 168.709 40.5697 168.709 41.7511C168.709 42.9245 168.685 43.1782 168.526 43.7332C168.035 45.422 166.942 46.6192 165.422 47.1424C164.946 47.3089 164.638 47.3565 163.877 47.3803C163.354 47.3961 162.768 47.3803 162.57 47.3486ZM164.4 45.0335C165.089 44.859 165.754 43.9314 165.976 42.8452C166.119 42.1554 166.039 40.8552 165.826 40.1812C165.485 39.1426 164.701 38.4687 163.742 38.3973C163.125 38.3498 162.364 38.659 162.024 39.0871C161.454 39.8086 161.263 40.4904 161.263 41.7907C161.263 42.6153 161.295 42.8769 161.446 43.3368C161.96 44.859 162.911 45.4061 164.4 45.0335Z" fill="black"/>
<path d="M186.569 47.3723C185.991 47.293 185.009 46.9362 184.589 46.6508C182.997 45.5725 182.268 43.7886 182.395 41.3149C182.458 40.189 182.593 39.6658 183.052 38.7064C183.623 37.5409 184.51 36.7639 185.745 36.3596C186.268 36.1852 186.521 36.1535 187.321 36.1535C188.842 36.1455 189.753 36.4944 190.632 37.422C191.551 38.4052 191.979 39.6103 191.986 41.2753L191.995 42.306L188.573 42.3297L185.143 42.3456V42.631C185.143 43.0433 185.349 43.6935 185.618 44.1137C186.427 45.3981 188.343 45.6518 190.244 44.7241C190.6 44.5576 191.052 44.3198 191.258 44.1929C191.464 44.074 191.654 44.0026 191.686 44.0264C191.765 44.1057 192.026 45.9927 191.979 46.1195C191.915 46.294 190.402 47.0075 189.737 47.1899C189.151 47.3485 187.227 47.4595 186.569 47.3723ZM189.301 40.5221C189.373 40.4031 189.199 39.6975 188.985 39.2138C188.779 38.754 188.303 38.2783 187.924 38.1514C186.719 37.755 185.603 38.5478 185.23 40.0701C185.183 40.2763 185.159 40.4824 185.183 40.53C185.254 40.633 189.238 40.6251 189.301 40.5221Z" fill="black"/>
<path d="M102.899 45.1742C102.876 45.1038 102.852 42.4285 102.852 39.2218C102.852 32.8564 102.828 33.2212 103.295 32.9085C103.398 32.8396 103.794 32.5347 104.174 32.2234C104.563 31.9026 105.038 31.5099 105.252 31.3317L105.624 31.0264V39.0872V47.1559H104.238H102.899V45.1742Z" fill="black"/>
<path d="M130.889 41.7508V36.3198H132.037C133.162 36.3198 133.186 36.3198 133.225 36.5022C133.241 36.5973 133.32 37.0175 133.392 37.4298C133.455 37.8421 133.534 38.2068 133.558 38.2464C133.582 38.2861 133.716 38.1434 133.859 37.9293C134.16 37.4853 134.984 36.6925 135.348 36.5101C135.871 36.2326 136.861 36.0423 136.979 36.1929C137.035 36.2643 137.336 38.0086 137.407 38.6587C137.423 38.7856 137.36 38.8252 137.067 38.8807C135.815 39.1106 134.936 39.5705 134.168 40.3871L133.661 40.9184L133.645 44.0342L133.621 47.1422L132.259 47.166L130.889 47.1819V41.7508Z" fill="black"/>
</g></svg>