<svg width="147" height="81" viewBox="0 0 147 81" fill="none" xmlns="http://www.w3.org/2000/svg">
<path d="M84.3173 38.6693H76.3292L74.8076 42.283H70.7184L78.4213 25.1655H82.3203L90.0232 42.283H85.8389L84.3173 38.6693ZM83.0811 35.6262L80.3233 29.0645L77.6605 35.6262H83.0811ZM106.855 31.3468C106.855 35.1507 104.002 37.5282 99.4378 37.5282H95.9192V42.283H91.9251V25.1655H99.3427C104.002 25.1655 106.855 27.543 106.855 31.3468ZM102.861 31.3468C102.861 29.4449 101.625 28.3988 99.2476 28.3988H95.9192V34.39H99.1525C101.625 34.2949 102.861 33.2488 102.861 31.3468ZM112.846 28.3988H107.331V25.1655H122.261V28.3988H116.745V42.283H112.751V28.3988H112.846ZM133.673 38.6693H125.685L124.163 42.3781H120.074L127.777 25.1655H131.676L139.379 42.3781H135.194L133.673 38.6693ZM142.707 40.0007C142.897 40.0958 143.087 40.286 143.182 40.4762C143.373 40.8566 143.373 41.4271 143.182 41.8075C143.087 41.9977 142.897 42.1879 142.707 42.283C142.327 42.4732 141.756 42.4732 141.376 42.283C141.185 42.1879 140.995 41.9977 140.9 41.8075C140.71 41.4271 140.71 40.8566 140.9 40.4762C140.995 40.286 141.185 40.0958 141.376 40.0007C141.756 39.7154 142.231 39.7154 142.707 40.0007ZM142.612 42.1879C142.802 42.0928 142.897 41.9026 142.992 41.7124C143.182 41.332 143.182 40.8566 142.992 40.4762C142.897 40.286 142.707 40.1909 142.612 40.0958C142.232 39.9056 141.756 39.9056 141.376 40.0958C141.185 40.1909 141.09 40.3811 140.995 40.5713C140.805 40.9517 140.805 41.4271 140.995 41.8075C141.09 41.9977 141.281 42.0928 141.376 42.283C141.756 42.3781 142.232 42.3781 142.612 42.1879ZM142.517 41.1418C142.517 41.2369 142.422 41.2369 142.327 41.2369L142.612 41.6173H142.422L142.136 41.2369H141.851V41.6173H141.566V40.3811H142.041C142.136 40.3811 142.327 40.3811 142.422 40.4762C142.517 40.5713 142.517 40.6664 142.517 40.7615C142.517 41.0468 142.517 41.1418 142.517 41.1418ZM142.231 41.1418C142.327 41.1418 142.327 41.0468 142.327 40.9517C142.327 40.8566 142.327 40.8566 142.231 40.7615C142.136 40.7615 142.041 40.6664 142.041 40.6664H141.756V41.1418H142.041C142.136 41.1418 142.231 41.1418 142.231 41.1418ZM132.436 35.6262L129.679 29.0645L126.921 35.6262H132.436ZM71.1939 51.4123H67.6753L66.9146 53.029H65.9636L68.9116 46.4673H69.8626L72.8106 53.029H71.8596L71.1939 51.4123ZM70.8135 50.6516L69.3871 47.4183L67.9606 50.6516H70.8135ZM81.9399 50.1761V53.029H80.9889V50.2712C80.9889 49.3202 80.5135 48.8447 79.6576 48.8447C78.8968 48.8447 78.136 49.4153 78.136 50.2712C78.136 50.3663 78.136 50.4614 78.136 50.5565V53.1241H77.1851V50.3663C77.1851 49.4153 76.7096 48.9398 75.8537 48.9398C75.0929 48.9398 74.3321 49.5104 74.3321 50.3663C74.3321 50.4614 74.3321 50.5565 74.3321 50.6516V53.2192H73.3812V48.2741H74.237V49.0349C74.6174 48.4643 75.2831 48.179 75.9488 48.2741C76.6145 48.179 77.3752 48.5594 77.6605 49.2251C78.136 48.6545 78.8017 48.2741 79.5625 48.2741C80.6085 48.179 81.5595 48.9398 81.6546 50.081C81.9399 49.8908 81.9399 50.081 81.9399 50.1761ZM87.931 50.8418H83.8419C83.9369 51.6976 84.7928 52.3633 85.6487 52.2682C86.2193 52.2682 86.6948 52.078 87.0751 51.6976L87.5506 52.2682C86.5046 53.3143 84.7928 53.3143 83.7467 52.2682C83.2713 51.7927 82.986 51.1271 82.986 50.4614C82.8909 49.13 83.9369 47.9888 85.3634 47.8937C85.4585 47.8937 85.4585 47.8937 85.5536 47.8937C86.885 47.8937 88.0261 48.9398 88.0261 50.2712C88.0261 50.3663 88.0261 50.4614 88.0261 50.4614C87.931 50.6516 87.931 50.7467 87.931 50.8418ZM83.8419 50.1761H87.0751C86.9801 49.3202 86.2193 48.6545 85.2683 48.7496C84.5075 48.8447 83.9369 49.5104 83.8419 50.1761ZM91.6398 47.9888V48.9398C91.5447 48.9398 91.5447 48.9398 91.4496 48.9398C90.5938 48.8447 89.9281 49.5104 89.833 50.3663C89.833 50.4614 89.833 50.5565 89.833 50.6516V53.1241H88.882V48.179H89.7379V48.9398C90.2134 48.2741 90.9741 47.9888 91.6398 47.9888ZM92.4006 46.5624C92.4006 46.2771 92.6859 45.9918 92.9712 45.9918C93.2565 45.9918 93.5418 46.2771 93.5418 46.5624C93.5418 46.8477 93.2565 47.133 92.9712 47.133C92.5908 47.133 92.4006 46.8477 92.4006 46.5624ZM92.4957 48.0839H93.4467V53.029H92.4957V48.0839ZM94.4927 50.5565C94.4927 49.2251 95.5388 48.0839 96.9653 47.9888C97.0604 47.9888 97.0604 47.9888 97.1555 47.9888C98.0113 47.8937 98.7721 48.3692 99.1525 49.0349L98.4868 49.5104C98.2015 49.0349 97.6309 48.7496 97.1555 48.7496C96.2045 48.7496 95.4437 49.6055 95.4437 50.5565C95.4437 51.5074 96.2045 52.2682 97.1555 52.2682C97.726 52.2682 98.2015 51.9829 98.4868 51.5074L99.1525 51.9829C98.7721 52.6486 97.9162 53.1241 97.1555 53.029C95.729 53.1241 94.5878 52.078 94.4927 50.6516C94.4927 50.6516 94.4927 50.6516 94.4927 50.5565ZM104.193 50.081V53.1241H103.337V52.4584C102.956 52.9339 102.291 53.2192 101.72 53.2192C100.579 53.2192 99.9133 52.6486 99.9133 51.7927C99.9133 51.032 100.389 50.3663 101.91 50.3663H103.337V50.1761C103.337 49.4153 102.861 48.9398 102.005 48.9398C101.435 48.9398 100.864 49.13 100.389 49.5104L100.008 48.8447C100.579 48.3692 101.34 48.179 102.101 48.179C103.432 47.9888 104.193 48.6545 104.193 50.081ZM103.242 51.5074V50.8418H101.815C100.959 50.8418 100.674 51.2221 100.674 51.6025C100.674 52.078 101.054 52.4584 101.815 52.4584C102.481 52.4584 103.051 52.078 103.242 51.5074ZM110.374 50.1761V53.029H109.423V50.2712C109.423 49.3202 108.948 48.8447 108.092 48.8447C107.236 48.7496 106.57 49.4153 106.475 50.1761C106.475 50.2712 106.475 50.3663 106.475 50.4614V53.029H105.524V48.0839H106.38V48.8447C106.855 48.2741 107.521 47.9888 108.187 48.0839C109.233 47.9888 110.184 48.7496 110.279 49.8908C110.374 49.8908 110.374 50.081 110.374 50.1761ZM67.39 59.4956C67.39 60.9221 66.344 61.7779 64.6322 61.7779H63.0156V63.775H62.0646V57.2133H64.6322C66.344 57.2133 67.39 58.0691 67.39 59.4956ZM66.4391 59.4956C66.4391 58.5446 65.7734 57.974 64.6322 57.974H63.0156V60.9221H64.6322C65.8685 61.0172 66.4391 60.4466 66.4391 59.4956ZM73.191 60.9221V63.775H72.24V61.0172C72.24 60.0662 71.7645 59.5907 70.9086 59.5907C70.0528 59.4956 69.3871 60.1613 69.292 60.9221C69.292 61.0172 69.292 61.1123 69.292 61.2074V63.775H68.341V56.8329H69.292V59.4956C69.7675 59.0201 70.3381 58.7348 71.0988 58.7348C72.1449 58.6397 73.0959 59.4005 73.191 60.5417C73.191 60.6368 73.191 60.827 73.191 60.9221ZM78.8968 58.8299L76.5194 64.3456C76.0439 65.3916 75.4733 65.772 74.7125 65.772C74.237 65.772 73.7616 65.5818 73.4763 65.2965L73.8566 64.6308C74.1419 64.821 74.4272 65.0112 74.7125 65.0112C75.188 65.0112 75.3782 64.821 75.6635 64.2505L75.8537 63.8701L73.6665 58.925H74.6174L76.3292 62.9191L78.0409 58.925L78.8968 58.8299ZM78.9919 63.2995L79.3723 62.5387C79.8478 62.9191 80.5135 63.0142 81.084 63.0142C81.9399 63.0142 82.2252 62.7289 82.2252 62.3485C82.2252 61.2073 79.087 62.1583 79.087 60.2564C79.087 59.4005 79.8478 58.7348 81.1791 58.7348C81.8448 58.7348 82.4154 58.925 82.986 59.2103L82.6056 59.9711C82.1301 59.6858 81.6546 59.5907 81.1791 59.5907C80.4184 59.5907 80.038 59.876 80.038 60.2564C80.038 61.3975 83.1762 60.4466 83.1762 62.4436C83.1762 63.3946 82.3203 63.9652 80.9889 63.9652C80.3233 63.8701 79.5625 63.6799 78.9919 63.2995ZM84.032 57.3084C84.032 57.0231 84.3173 56.7378 84.6026 56.7378C84.8879 56.7378 85.1732 57.0231 85.1732 57.3084C85.1732 57.5937 84.8879 57.879 84.6026 57.879C84.3173 57.879 84.032 57.5937 84.032 57.3084ZM84.2222 58.8299H85.1732V63.775H84.2222V58.8299ZM86.1242 61.3024C86.1242 59.9711 87.1703 58.8299 88.5967 58.7348C88.6918 58.7348 88.6918 58.7348 88.7869 58.7348C89.6428 58.6397 90.4036 59.1152 90.7839 59.7809L90.1183 60.2564C89.833 59.7809 89.2624 59.4956 88.7869 59.4956C87.8359 59.4956 87.0751 60.3515 87.0751 61.3024C87.0751 62.2534 87.8359 63.0142 88.7869 63.0142C89.3575 63.0142 89.833 62.7289 90.1183 62.2534L90.7839 62.7289C90.4036 63.3946 89.5477 63.8701 88.7869 63.775C87.3604 63.8701 86.2193 62.824 86.1242 61.3975C86.1242 61.3975 86.1242 61.3975 86.1242 61.3024ZM95.8241 60.827V63.8701H94.9682V63.2044C94.5878 63.6799 93.9221 63.9652 93.3516 63.9652C92.2104 63.9652 91.5447 63.3946 91.5447 62.5387C91.5447 61.7779 92.0202 61.1123 93.5418 61.1123H94.9682V60.9221C94.9682 60.1613 94.4927 59.6858 93.6369 59.6858C93.0663 59.6858 92.4957 59.876 92.0202 60.2564L91.6398 59.4005C92.2104 58.925 92.9712 58.7348 93.732 58.7348C95.0633 58.7348 95.8241 59.4005 95.8241 60.827ZM94.9682 62.2534V61.5877H93.5418C92.6859 61.5877 92.4006 61.9681 92.4006 62.3485C92.4006 62.824 92.781 63.2044 93.5418 63.2044C94.1123 63.2044 94.6829 62.824 94.9682 62.2534ZM97.2505 56.8329H98.2015V63.775H97.2505V56.8329ZM103.907 58.0691H101.625V57.2133H107.046V58.0691H104.763V63.8701H103.812L103.907 58.0691ZM112.561 60.9221V63.775H111.61V61.0172C111.61 60.0662 111.135 59.5907 110.279 59.5907C109.423 59.4956 108.757 60.1613 108.662 60.9221C108.662 61.0172 108.662 61.1123 108.662 61.2074V63.775H107.711V56.8329H108.662V59.4956C109.138 59.0201 109.708 58.7348 110.469 58.7348C111.515 58.6397 112.466 59.4005 112.561 60.5417C112.561 60.6368 112.561 60.827 112.561 60.9221ZM118.552 61.5877H114.463C114.558 62.4436 115.414 63.1093 116.27 63.0142C116.841 63.0142 117.316 62.824 117.696 62.4436L118.172 63.0142C117.126 64.0603 115.414 64.0603 114.368 63.0142C113.893 62.5387 113.607 61.873 113.607 61.2074C113.512 59.876 114.558 58.7348 115.985 58.6397C116.08 58.6397 116.08 58.6397 116.175 58.6397C117.506 58.6397 118.647 59.6858 118.647 61.0172C118.647 61.1123 118.647 61.2074 118.647 61.2074C118.552 61.3975 118.552 61.4926 118.552 61.5877ZM114.463 60.9221H117.696C117.601 60.0662 116.841 59.4005 115.89 59.4956C115.224 59.5907 114.558 60.2564 114.463 60.9221ZM122.356 58.7348V59.5907C122.261 59.5907 122.261 59.5907 122.166 59.5907C121.31 59.4956 120.644 60.1613 120.549 61.0172C120.549 61.1123 120.549 61.2074 120.549 61.3024V63.775H119.598V58.8299H120.454V59.6858C120.93 59.0201 121.595 58.7348 122.356 58.7348ZM127.301 60.827V63.8701H126.445V63.2044C126.065 63.6799 125.399 63.9652 124.829 63.9652C123.688 63.9652 123.022 63.3946 123.022 62.5387C123.022 61.7779 123.497 61.1123 125.019 61.1123H126.445V60.9221C126.445 60.1613 125.97 59.6858 125.114 59.6858C124.543 59.6858 123.973 59.876 123.497 60.2564L123.117 59.5907C123.688 59.1152 124.448 58.925 125.209 58.925C126.54 58.7348 127.301 59.4005 127.301 60.827ZM126.35 62.2534V61.5877H124.924C124.068 61.5877 123.783 61.9681 123.783 62.3485C123.783 62.824 124.163 63.2044 124.924 63.2044C125.59 63.2044 126.16 62.824 126.35 62.2534ZM133.863 61.3024C133.958 62.6338 132.912 63.775 131.581 63.8701C131.486 63.8701 131.39 63.8701 131.39 63.8701C130.725 63.8701 130.059 63.5848 129.679 63.0142V65.5818H128.728V58.7348H129.584V59.4956C129.964 58.925 130.63 58.6397 131.39 58.6397C132.722 58.5446 133.863 59.5907 133.958 60.9221C133.863 61.2073 133.863 61.2074 133.863 61.3024ZM132.912 61.3024C132.912 60.3515 132.056 59.6858 131.2 59.6858C130.249 59.6858 129.584 60.5417 129.584 61.3975C129.584 62.2534 130.344 63.0142 131.295 63.0142C132.246 63.0142 133.007 62.3485 133.007 61.3975C133.007 61.3975 133.007 61.3975 132.912 61.3024ZM139.283 58.8299L136.906 64.3456C136.431 65.3916 135.86 65.772 135.099 65.772C134.624 65.772 134.148 65.5818 133.863 65.2965L134.243 64.6308C134.529 64.821 134.814 65.0112 135.099 65.0112C135.575 65.0112 135.765 64.821 136.05 64.2505L136.24 63.8701L134.053 58.925H135.004L136.716 62.9191L138.428 58.925L139.283 58.8299ZM61.494 72.9043H57.9754L57.2146 74.521H56.2637L59.2117 67.9593H60.1627L63.1107 74.521H62.1597L61.494 72.9043ZM61.1136 72.1435L59.6872 68.9102L58.2607 72.1435H61.1136ZM63.5862 74.0455L63.9665 73.2847C64.442 73.6651 65.1077 73.7602 65.6783 73.7602C66.5342 73.7602 66.8195 73.4749 66.8195 73.0945C66.8195 71.9533 63.6812 72.9043 63.6812 71.0024C63.6812 70.1465 64.442 69.4808 65.7734 69.4808C66.4391 69.4808 67.0096 69.671 67.5802 69.9563L67.1998 70.7171C66.7244 70.4318 66.2489 70.3367 65.7734 70.3367C65.0126 70.3367 64.6322 70.622 64.6322 71.0024C64.6322 72.1435 67.7704 71.1926 67.7704 73.1896C67.7704 74.1406 66.9146 74.7111 65.5832 74.7111C64.9175 74.6161 64.1567 74.4259 63.5862 74.0455ZM68.2459 74.0455L68.6263 73.2847C69.1018 73.6651 69.7675 73.7602 70.3381 73.7602C71.1939 73.7602 71.4792 73.4749 71.4792 73.0945C71.4792 71.9533 68.341 72.9043 68.341 71.0024C68.341 70.1465 69.1018 69.4808 70.4331 69.4808C71.0988 69.4808 71.6694 69.671 72.24 69.9563L71.8596 70.7171C71.3841 70.4318 70.9086 70.3367 70.4331 70.3367C69.6724 70.3367 69.292 70.622 69.292 71.0024C69.292 72.1435 72.4302 71.1926 72.4302 73.1896C72.4302 74.1406 71.5743 74.7111 70.243 74.7111C69.5773 74.6161 68.8165 74.4259 68.2459 74.0455ZM73.0959 72.0484C73.0959 70.622 74.237 69.4808 75.6635 69.3857C77.0899 69.3857 78.2311 70.5269 78.3262 71.9533C78.3262 73.3798 77.1851 74.521 75.7586 74.6161C74.4272 74.7111 73.191 73.6651 73.191 72.2386C73.0959 72.1435 73.0959 72.1435 73.0959 72.0484ZM77.3752 72.0484C77.3752 71.0975 76.5194 70.4318 75.6635 70.4318C74.7125 70.4318 74.0468 71.2877 74.0468 72.1435C74.0468 72.9994 74.8076 73.7602 75.7586 73.7602C76.7096 73.7602 77.3752 73.0945 77.4703 72.1435C77.3752 72.1435 77.3752 72.1435 77.3752 72.0484ZM78.9919 72.0484C78.9919 70.7171 80.038 69.5759 81.4644 69.4808C81.5595 69.4808 81.5595 69.4808 81.6546 69.4808C82.5105 69.3857 83.2713 69.8612 83.6517 70.5269L82.986 71.0024C82.7007 70.5269 82.1301 70.2416 81.6546 70.2416C80.7036 70.2416 79.9429 71.0975 79.9429 72.0484C79.9429 72.9994 80.7036 73.7602 81.6546 73.7602C82.2252 73.7602 82.7007 73.4749 82.986 72.9994L83.6517 73.4749C83.2713 74.1406 82.4154 74.6161 81.6546 74.521C80.2282 74.6161 79.087 73.57 78.9919 72.1435C78.9919 72.2386 78.9919 72.1435 78.9919 72.0484ZM84.4124 68.0543C84.4124 67.7691 84.6977 67.4838 84.983 67.4838C85.2683 67.4838 85.5536 67.7691 85.5536 68.0543C85.5536 68.3396 85.2683 68.6249 84.983 68.6249C84.6977 68.6249 84.4124 68.3396 84.4124 68.0543ZM84.6026 69.5759H85.5536V74.521H84.6026V69.5759ZM90.879 71.5729V74.6161H90.0232V73.9504C89.6428 74.4259 88.9771 74.7111 88.4065 74.7111C87.2653 74.7111 86.5997 74.1406 86.5997 73.2847C86.5997 72.5239 87.0752 71.8582 88.5967 71.8582H90.0232V71.668C90.0232 70.9073 89.5477 70.4318 88.6918 70.4318C88.1212 70.4318 87.5506 70.622 87.0751 71.0024L86.6948 70.3367C87.2654 69.8612 88.0261 69.671 88.7869 69.671C90.1183 69.4808 90.879 70.1465 90.879 71.5729ZM90.0232 72.9994V72.3337H88.5967C87.7408 72.3337 87.4555 72.7141 87.4555 73.0945C87.4555 73.57 87.8359 73.9504 88.5967 73.9504C89.1673 73.9504 89.7379 73.57 90.0232 72.9994ZM95.0633 74.2357C94.778 74.521 94.3976 74.6161 94.0172 74.6161C93.2565 74.7111 92.4957 74.1406 92.4006 73.3798C92.4006 73.2847 92.4006 73.1896 92.4006 73.0945V70.3367H91.5447V69.5759H92.4006V68.5298H93.3516V69.5759H94.778V70.3367H93.3516V72.9994C93.2565 73.3798 93.5418 73.7602 94.0172 73.8553C94.1123 73.8553 94.1123 73.8553 94.2074 73.8553C94.4927 73.8553 94.6829 73.7602 94.8731 73.6651L95.0633 74.2357ZM95.8241 68.0543C95.8241 67.7691 96.1094 67.4838 96.3947 67.4838C96.68 67.4838 96.9653 67.7691 96.9653 68.0543C96.9653 68.3396 96.68 68.6249 96.3947 68.6249C96.0143 68.6249 95.8241 68.3396 95.8241 68.0543ZM95.9192 69.5759H96.8702V74.521H95.9192V69.5759ZM97.9162 72.0484C97.9162 70.622 99.0574 69.4808 100.484 69.3857C101.91 69.3857 103.051 70.5269 103.147 71.9533C103.147 73.3798 102.005 74.521 100.579 74.6161C99.2476 74.7111 98.0113 73.6651 98.0113 72.2386C97.9162 72.1435 97.9162 72.1435 97.9162 72.0484ZM102.196 72.0484C102.196 71.0975 101.34 70.4318 100.484 70.4318C99.5329 70.4318 98.8672 71.2877 98.8672 72.1435C98.8672 72.9994 99.628 73.7602 100.579 73.7602C101.53 73.7602 102.196 73.0945 102.291 72.1435C102.196 72.1435 102.196 72.1435 102.196 72.0484ZM108.852 71.668V74.521H107.901V71.7631C107.901 70.8122 107.426 70.3367 106.57 70.3367C105.714 70.2416 105.049 70.9073 104.953 71.668C104.953 71.7631 104.953 71.8582 104.953 71.9533V74.521H104.002V69.5759H104.858V70.3367C105.334 69.7661 105.999 69.4808 106.665 69.5759C107.711 69.4808 108.662 70.2416 108.757 71.3827C108.947 71.3827 108.947 71.5729 108.852 71.668Z" fill="#3F4444"/>
<path d="M58.3559 47.133L25.8327 31.8224C26.8788 31.6322 27.9248 31.5371 28.9709 31.3469C31.3483 30.9665 33.8208 31.0616 36.1983 31.5371L62.1598 38.5743L58.3559 47.133ZM68.246 25.1656C68.3411 25.0705 52.7452 25.3558 52.6501 25.3558C49.9874 25.4509 47.3246 25.9264 44.8521 26.9724C42.8551 27.7332 41.0482 28.3989 39.1463 29.0646L64.0617 34.6753C63.9666 34.5802 68.1509 25.2607 68.246 25.1656ZM54.7422 22.2176L69.7676 21.5519C76.4244 6.71674 76.7097 6.05106 76.7097 6.14615C70.148 12.4226 62.7304 17.8431 54.7422 22.2176ZM22.219 33.8194C20.3171 32.8685 18.2249 32.4881 16.0377 32.4881C15.2769 32.4881 14.5161 32.4881 13.8504 32.4881L52.3648 60.3515L56.1687 51.983L22.219 33.8194ZM3.67505 31.1567L45.9933 74.6161L49.9874 65.8672L9.76127 33.8194C7.95442 32.4881 5.86228 31.6322 3.67505 31.1567Z" fill="#009CB6"/>
</svg>
