<svg width="91" height="130" viewBox="0 0 91 130" fill="none" xmlns="http://www.w3.org/2000/svg">
<path d="M21.4503 89.9574C22.0281 89.9574 22.2922 90.238 22.2922 90.7992V119.107C22.2922 120.147 22.0941 121.154 21.6814 122.079C21.2688 123.003 20.7406 123.812 20.0473 124.505C19.354 125.198 18.5452 125.743 17.6209 126.139C16.6965 126.535 15.7062 126.75 14.6498 126.75H12.3389C11.299 126.75 10.2921 126.552 9.36775 126.139C8.4434 125.743 7.63459 125.198 6.94133 124.505C6.24806 123.812 5.70336 123.003 5.3072 122.079C4.89455 121.154 4.69647 120.164 4.69647 119.107V112.621C4.69647 112.043 4.96057 111.696 5.48877 111.531L11.0019 110.079C11.5301 109.913 11.7942 110.112 11.7942 110.689V118.81C11.7942 119.223 11.9262 119.553 12.2233 119.834C12.5039 120.114 12.8506 120.263 13.2467 120.263H13.7419C14.1381 120.263 14.4847 120.131 14.7653 119.834C15.0459 119.553 15.1945 119.207 15.1945 118.81V90.8157C15.1945 90.238 15.4751 89.9739 16.0363 89.9739C16.0528 89.9574 21.4503 89.9574 21.4503 89.9574ZM45.0213 125.479C45.1039 126.057 44.8563 126.321 44.295 126.321H38.7819C38.2537 126.321 37.9566 126.04 37.8741 125.479L37.3789 119.553H33.6155L33.1203 125.479C33.0378 126.057 32.7241 126.321 32.2124 126.321H26.6993C26.1216 126.321 25.8905 126.04 25.9731 125.479L30.5288 90.8157C30.6113 90.238 30.925 89.9739 31.5027 89.9739H39.5082C40.0859 89.9739 40.3996 90.2545 40.4821 90.8157L45.0213 125.479ZM36.9002 112.753L35.7613 99.3495H35.2661L34.1272 112.753H36.9002ZM58.9526 89.9574C59.9925 89.9574 60.9829 90.1555 61.9238 90.5681C62.8481 90.9808 63.6569 91.509 64.3502 92.2023C65.0434 92.8955 65.5881 93.7043 65.9843 94.6287C66.3804 95.553 66.595 96.5434 66.595 97.5998V118.695C66.595 119.735 66.3969 120.742 65.9843 121.666C65.5716 122.59 65.0434 123.399 64.3502 124.092C63.6569 124.786 62.8481 125.33 61.9238 125.727C60.9994 126.139 60.009 126.337 58.9526 126.337H49.8742C49.2964 126.337 49.0323 126.057 49.0323 125.495V90.8157C49.0323 90.238 49.313 89.9739 49.8742 89.9739L58.9526 89.9574ZM59.5138 97.8969C59.5138 97.5008 59.3818 97.1541 59.0847 96.8735C58.8041 96.5929 58.4574 96.4444 58.0613 96.4444H56.13V119.834H58.0613C58.4574 119.834 58.8041 119.702 59.0847 119.405C59.3653 119.124 59.5138 118.777 59.5138 118.381V97.8969ZM86.3035 120.081V125.479C86.3035 126.057 86.0229 126.321 85.4617 126.321H72.3062C71.7285 126.321 71.4644 126.04 71.4644 125.479V90.8157C71.4644 90.238 71.745 89.9739 72.3062 89.9739H85.4452C86.0229 89.9739 86.287 90.2545 86.287 90.8157V96.1968C86.287 96.7745 86.0064 97.0386 85.4452 97.0386H78.5291V103.955H84.5209C85.0986 103.955 85.3627 104.235 85.3627 104.797V110.194C85.3627 110.772 85.0821 111.036 84.5209 111.036H78.5291V119.223H85.4452C86.0229 119.223 86.3035 119.504 86.3035 120.081Z" fill="#569A83"/>
<path d="M66.2411 49.0652C66.6168 49.4408 66.651 50.0556 66.207 50.3629C65.1141 51.0801 63.7139 50.9777 62.4161 50.8411C60.2304 50.602 57.6348 50.4996 56.5078 48.4504C56.4736 48.4504 56.4736 48.4163 56.4395 48.3821C55.0051 47.5966 57.4299 47.0502 58.1129 46.9477C59.6498 46.7428 61.2891 47.1526 62.7918 47.4942C64.0554 47.7332 65.2507 48.0748 66.2411 49.0652ZM86.186 81.6464C85.1615 82.3636 85.6054 83.593 84.8882 84.4468C84.171 85.2665 82.4293 85.2665 81.5072 85.2665C77.5797 85.3007 73.7546 84.9933 69.8954 85.3006C68.905 85.3689 68.0171 85.5056 67.095 85.7446C66.8217 85.8129 66.3778 85.9837 66.0704 85.8129C65.2849 85.4031 64.5677 84.1053 63.5431 84.5151C62.6893 84.8908 62.0404 86.1203 61.0159 85.3689C59.1375 83.9687 57.5665 85.2323 55.5857 85.608C53.5365 86.0178 51.5899 84.8908 49.5749 85.4373C48.0722 85.8812 46.6378 86.3252 45.1009 85.8129C43.5641 85.2665 43.1543 84.0712 44.4862 82.9441C46.6036 81.2024 49.2334 80.9292 51.8631 81.1341C55.8589 81.4756 59.8205 81.1682 63.8163 80.9633C63.953 80.9633 64.0213 81.0316 64.0213 81.1341C65.7289 81.8171 66.8217 80.451 67.8121 79.2557C67.9488 79.085 68.1878 79.1874 68.2561 79.2899C69.6905 81.4073 71.4323 79.0166 73.2423 79.2216C73.7205 79.2557 74.1645 79.3923 74.4718 79.8363C74.6084 80.0412 74.6426 80.2803 74.6426 80.5193C74.7109 81.6122 76.1111 81.3731 76.077 80.2803C76.077 80.1095 76.2819 79.9388 76.4527 80.0071C77.887 80.5876 79.7313 81.339 80.8924 79.8363C81.8829 78.5727 82.0195 76.7626 82.1219 75.2257C82.3268 71.0933 82.0536 66.8585 81.7462 62.7602C81.5072 58.7644 81.0632 54.7003 81.5413 50.7045C82.0195 46.7428 81.9853 42.8836 81.917 38.8878C81.8829 36.8045 81.7804 34.7212 81.917 32.638C81.9853 30.7254 82.3268 28.6763 82.1219 26.7638C81.917 25.0562 80.8924 23.5876 80.6875 21.9142C80.4826 20.3773 80.6875 18.7722 81.0632 17.2695C81.2681 16.3474 81.7462 15.2203 81.7121 14.2641C81.6779 13.4444 81.6438 12.5906 81.6779 11.771C81.6779 11.3611 81.6096 10.7123 81.917 10.3707C82.3951 9.79015 82.6342 8.93634 81.5072 8.83388C78.8092 8.49236 76.0428 6.78475 73.4814 8.45821C73.5156 9.0388 73.5497 9.68769 73.4131 10.2683L73.7888 10.7464C74.4377 11.0196 75.0866 11.1221 75.8038 11.1562C76.6234 11.1562 77.5114 10.9513 78.331 11.0196C79.0141 11.0879 79.5947 11.7027 79.3556 12.4882C79.1848 13.0688 78.6725 13.5469 78.3652 14.025C77.8187 14.8788 77.9212 16.1083 77.9212 17.0987C77.887 19.5918 77.9212 22.0849 77.9895 24.5097C78.0578 26.5589 78.2627 28.6422 78.3993 30.6913C78.4335 30.7254 78.5701 30.7596 78.5701 30.862C78.6384 33.1844 79.4239 35.4726 79.458 37.7949C79.4922 37.8291 78.8433 40.6637 78.8433 40.6637C78.8092 43.6691 78.5701 49.2359 78.5701 49.2359C78.5359 54.3588 77.648 59.4474 78.5359 64.5361C78.9116 66.5852 78.1261 68.5661 78.0578 70.6152C77.9895 72.8692 78.2627 75.0891 77.9212 77.3432C77.9554 77.4798 77.9212 77.6164 77.7504 77.6847C73.0716 78.5727 68.3244 78.7434 63.5431 78.4702C62.3478 78.4019 60.9476 78.2994 59.7864 78.7434C59.3424 78.9483 58.7277 79.2216 58.1812 79.1874C57.4982 79.1191 57.1567 78.5727 56.5078 78.4702C55.6881 78.2994 54.9026 78.1287 54.1171 78.0604C51.9997 77.7872 49.9847 77.6506 48.0039 78.5044C46.911 78.9825 45.7498 78.7776 44.657 78.3336C43.3592 77.7872 42.3688 77.1383 40.9344 77.8555C40.3538 78.1287 39.8415 78.4361 39.1926 78.5727C38.6462 78.7093 38.168 78.5727 37.6899 78.3678C36.597 77.9579 35.7432 77.8213 34.5821 78.0262C34.7187 78.197 34.6162 78.5044 34.3772 78.5044C27.4443 78.1287 20.4772 78.9483 13.5443 79.0508C13.2028 79.1191 12.9637 79.4948 12.7588 79.4948H12.5539C12.3831 79.4948 12.349 78.9142 12.3831 78.8117C11.461 77.7872 11.7001 74.4061 11.7343 73.4157C12.0075 66.9609 11.1878 60.472 11.0171 54.0514C10.9488 50.8411 10.9488 47.5966 11.461 44.4205C12.0758 40.8345 12.0758 37.351 12.0075 33.765C11.8367 26.6272 12.5539 19.5235 12.349 12.3857C12.349 12.2491 12.4856 12.215 12.5539 12.2491L12.6222 12.215C14.5347 12.0442 16.618 11.5319 18.4964 12.0442C18.5305 12.0442 18.5647 12.0783 18.5647 12.1125L18.8379 12.1466H20.9553C21.0236 12.1466 21.1261 12.1808 21.1261 12.215C24.8828 12.2491 28.6396 11.9417 32.3963 11.771C33.6941 11.7368 35.0602 11.771 36.358 11.3611C37.0069 11.1562 37.7924 10.8147 38.4754 10.883C40.183 11.0196 41.9248 11.5319 43.5982 11.9076C44.7936 12.1466 45.6132 10.0975 46.6719 10.8147C48.2771 11.8393 50.1213 11.4636 51.9655 11.4978C52.9559 11.5319 53.8781 11.327 54.8685 11.327C55.4149 11.327 55.8589 11.4636 56.337 11.5661C56.8151 11.4978 57.225 11.5319 57.7714 11.7368L66.5144 11.4636C68.2561 11.4978 70.1686 11.6344 71.8421 10.9855C72.2861 10.8147 72.5251 10.5756 72.6618 10.3024C72.5935 10.1658 72.5252 10.0292 72.4568 9.85845C72.3202 9.61938 72.1836 9.31201 72.0129 9.14125C70.1345 8.52651 67.9829 8.69728 66.0021 8.59482C63.3041 8.45821 60.6743 8.83388 57.9763 9.0388C55.4832 9.24371 52.8876 9.41447 50.3945 9.20956C48.926 9.07295 46.1597 8.42406 44.896 9.44862C44.7594 9.51693 44.657 9.51693 44.5204 9.44862C42.1297 7.50195 38.9877 10.439 36.2555 9.61938C34.6162 9.14125 33.0794 8.79973 31.3376 9.00464C29.6642 9.17541 28.0248 9.41447 26.3172 9.41447C22.5946 9.38032 18.9062 9.61938 15.1836 9.48278C14.364 9.44862 13.5785 9.44862 12.8271 9.34617C12.1782 9.27786 11.3244 8.93634 10.6755 9.20956C9.65097 9.58523 9.44605 9.92675 9.54851 10.2341C9.82173 10.439 8.86547 11.7368 8.86547 12.3857L8.79716 14.0933C8.76301 16.6206 8.59225 18.9429 8.01166 21.4019C7.73844 22.6997 7.08955 24.5439 7.56768 25.8417C7.8409 26.6955 8.48979 27.2761 8.86547 28.0274C9.51436 29.4277 9.54851 31.1353 9.48021 32.638L9.07038 47.3234C8.89962 52.2072 8.59225 57.1251 8.79716 62.043C8.96792 66.5852 9.68512 71.2299 9.07038 75.738C8.86547 77.2407 7.0554 79.9046 8.79716 80.9633C9.78758 81.5439 10.9488 81.6805 12.0758 81.783C14.8421 81.9537 17.6084 81.6464 20.4089 81.339C21.4335 81.2024 22.458 80.9975 23.4826 80.9975C24.2681 80.9633 24.9853 81.0658 25.7367 81.339C26.3855 81.5781 27.376 82.022 28.1273 82.022C28.1615 82.0562 29.3568 81.9879 29.4251 81.6464C30.4497 81.2024 31.3376 80.8609 32.6354 81.0999C33.899 81.339 35.026 81.5098 36.358 81.2707C37.041 81.1341 38.0656 81.0658 38.7486 81.2365L39.0219 81.4415C39.2951 81.3048 38.8511 81.783 38.5779 81.8854C37.041 82.5002 37.5192 84.481 37.3484 85.8129C37.3484 85.9495 37.1776 85.9837 37.1093 85.9837C36.4946 85.9837 35.6408 85.9837 35.2993 85.3348C34.5821 84.0029 32.8403 83.0807 32.8403 85.8812C32.8403 86.052 32.7037 86.1203 32.6012 86.1203C32.4646 86.1203 32.3622 86.052 32.3622 85.8812C32.3622 85.7105 30.5521 84.7542 30.3472 84.6518C29.4592 84.1736 28.4347 83.593 27.376 83.9687C26.7271 84.1736 26.1806 84.5493 25.5659 84.8225C24.473 86.1545 23.3118 87.5888 21.7067 86.735C21.3652 86.5643 20.0332 85.4031 19.76 85.6422C19.3843 86.052 18.9745 86.4618 18.4622 86.6667C16.9937 87.2473 15.4568 87.1449 13.8858 87.1107C13.8175 87.1107 13.6468 87.0424 13.6468 86.9058C13.5785 86.2911 13.2369 85.0616 12.3831 85.8129C12.1782 85.9837 12.0075 86.1545 11.8026 86.3594C11.5635 86.5643 11.2561 86.8375 10.9488 86.9741C9.92418 87.3839 6.78218 86.8375 6.37236 86.1203C6.03083 85.5739 5.92838 85.0274 5.79177 84.4127C5.5527 82.91 5.72346 81.2707 5.65516 79.7338C5.51855 75.8746 5.24533 72.0837 4.93796 68.2245C4.7672 66.2779 4.59644 64.2629 4.7672 62.2821C4.83551 61.0184 4.90381 59.2767 5.5527 58.1155C6.09914 57.1934 5.72346 56.442 5.00627 55.759C4.83551 55.5541 4.7672 55.1784 4.7672 54.9393C4.63059 53.505 4.90381 52.0023 4.97212 50.5679C5.04042 49.5091 5.21118 48.4504 5.21118 47.3917C5.21118 46.5721 5.04042 45.7866 4.97212 45.0011C4.93796 44.5912 4.90381 44.1814 5.14288 43.8057C5.62101 43.1227 5.5527 42.747 5.27949 41.9615C4.73305 40.4588 5.27949 38.6488 5.34779 37.0778C5.4844 35.2335 5.5527 33.4235 5.34779 31.5451C5.14288 29.496 4.73305 27.5151 4.86966 25.4319C5.00627 23.5535 5.10873 21.8459 5.21118 20.0017C5.38194 16.6547 5.38194 13.2737 5.27949 9.92675V10.7123C5.27949 10.7123 5.00627 6.44323 6.78218 5.41866C9.51436 3.91597 12.8271 4.15503 15.7984 4.01842C19.6576 3.84766 23.5509 4.22334 27.4101 4.22334C29.6642 4.22334 31.884 4.18919 34.0698 3.6769C35.6066 3.33538 37.1435 3.19877 38.7145 3.26708C40.627 3.40368 42.4712 3.88182 44.3496 4.05258C46.228 4.22334 48.0722 4.12088 49.9506 4.01842C54.0147 3.74521 58.1129 3.84766 62.177 4.01842L68.5293 4.29164C69.5198 4.32579 70.6468 4.56486 71.603 4.32579L73.4131 3.71105C74.745 3.33538 75.6672 3.6769 76.9649 3.98427L81.7462 5.11129C82.2927 4.97469 82.805 4.94053 83.2148 5.35036C84.1027 6.17001 83.2489 7.19458 83.8978 8.11669C84.6833 9.20956 85.4005 9.92675 85.5713 11.327C85.7421 12.8297 85.8104 14.469 85.3322 15.9375C84.9907 16.928 84.5467 17.9867 84.9566 19.0454C85.1956 19.6943 85.6396 20.309 85.8104 20.9921C86.1519 22.4606 86.1519 23.9292 86.0494 25.4319C85.9811 27.1395 85.8787 28.8812 85.6737 30.5547C85.5371 31.6476 85.0932 32.7063 85.059 33.765C85.0248 34.6529 85.2981 35.4043 85.4688 36.2581C86.0494 39.0586 83.5905 40.8345 83.1465 43.3959C82.9074 44.7961 84.4784 44.1814 85.1956 45.0011C85.6396 45.5475 85.4005 46.4355 85.3664 47.016C85.1956 48.5187 85.6396 49.9873 85.5713 51.49C85.503 53.3683 84.9224 54.9052 85.3664 56.7836C85.6054 57.8423 85.8103 58.901 85.5713 59.9597C85.3322 61.0184 84.1027 63.6823 85.7421 64.1604C85.8104 64.1604 85.8787 64.2287 85.8787 64.3312C85.8787 64.8093 85.8103 65.1509 85.6054 65.5948C84.8882 67.2341 86.0153 66.8926 86.2202 67.9513C86.4251 68.9417 85.8445 69.2833 85.6737 70.2054C85.4347 71.6739 86.2202 72.8009 86.1519 74.2353C86.1177 75.5673 85.3664 76.3186 85.6054 77.5481C85.6737 77.5481 85.7762 77.6164 85.7762 77.7189C85.9128 78.3678 85.9811 79.1191 85.7421 79.768C85.4005 80.6901 85.0248 80.9633 86.0836 81.5098C86.3568 81.3048 86.3568 81.5439 86.186 81.6464ZM68.3244 36.3264C67.6755 32.3306 67.2999 28.164 65.9679 24.339C65.3873 22.7338 65.1141 20.9921 63.2358 20.6847C60.7768 20.2749 61.5964 22.324 61.938 24.2707C62.4161 27.2761 62.621 30.3498 63.4065 33.321C63.953 35.3701 64.9434 37.7949 62.2112 36.2239C57.6348 33.4576 56.0638 27.4127 54.2196 22.9046C53.3999 20.8555 51.0093 15.9717 49.37 14.7422C48.5845 14.1616 44.7253 13.3078 43.9739 13.8201C42.3688 14.913 47.3208 22.5972 48.0039 23.9633C49.5066 27.037 51.1117 30.0765 53.0584 32.8429C54.4586 34.7896 56.6444 36.5996 53.5365 37.7608C50.3262 38.9903 48.7552 37.1802 46.5695 35.5067C44.8277 34.209 42.6078 34.0041 40.4221 33.765C34.4113 33.0478 28.7079 33.7308 23.8924 37.7266C21.5701 39.6733 20.1015 42.3372 18.8721 45.0694C18.5305 45.7524 16.5497 51.7973 16.8229 51.8315C15.5934 51.6266 16.3448 48.7578 14.7738 50.4313C13.3736 51.8998 15.1836 56.1347 15.7984 57.6032C17.1986 60.8818 18.6671 64.0921 19.76 67.5074C20.8529 70.9226 21.092 70.8543 24.234 71.1275C28.2298 71.5032 32.1573 70.2737 36.0848 69.7956C36.0848 69.7956 29.1177 65.4582 42.8811 70.2054C45.9547 71.2641 49.1992 70.9909 52.4095 71.0933C54.6977 70.5469 54.766 66.6194 55.9613 64.7752C56.4053 64.0921 58.6252 60.6086 59.3083 60.3354C60.2987 59.9597 61.6989 60.9843 62.6893 61.1209C68.4269 62.0089 70.2028 57.2958 69.2807 52.6853C68.4952 48.6553 68.9392 44.1473 69.5198 41.0394C69.7588 39.8782 68.5293 37.3851 68.3244 36.3264ZM42.6761 85.3689C42.0614 84.7884 41.1393 84.6518 40.5245 84.037C40.183 83.6613 40.0806 83.3198 40.1489 82.91C40.1489 82.91 40.1147 82.91 40.1147 82.8758C39.6707 82.0562 40.6953 81.3731 41.4125 81.6464C41.7882 81.8171 42.3346 82.0562 42.4029 82.5002C42.4371 83.0808 42.0614 83.4906 41.9589 84.0029C42.3688 84.2419 42.7786 84.8225 42.9835 85.0957C43.1201 85.3348 42.8469 85.5397 42.6761 85.3689Z" fill="#C1272D"/>
</svg>
