<svg width="231" height="52" viewBox="0 0 231 52" fill="none" xmlns="http://www.w3.org/2000/svg">
<path d="M40.364 4.27783C44.3628 4.97044 48.1877 6.18679 51.7649 7.86046C58.0195 17.2009 61.1273 27.7355 59.9798 39.886C55.1943 43.4642 50.5523 45.635 45.9884 47.0556C44.8583 45.5063 43.8586 43.8549 42.9937 42.1235C44.641 41.4975 46.2231 40.7251 47.7183 39.8239C47.3271 39.5309 46.9403 39.2246 46.5621 38.9094C37.5779 43.1623 27.6983 43.1623 18.6055 38.9094C18.2317 39.2246 17.8448 39.5309 17.4493 39.8239C18.9401 40.7207 20.5179 41.4931 22.1652 42.1191C21.3003 43.8549 20.2963 45.5019 19.1705 47.0512C14.611 45.6306 9.97332 43.4597 5.18782 39.886C4.20986 29.4047 6.16578 18.7724 13.381 7.86932C16.9582 6.19126 20.7874 4.97044 24.7906 4.27783C25.2861 5.16572 25.8728 6.35996 26.2683 7.30997C30.441 6.6707 34.6528 6.6707 38.9036 7.30997C39.2992 6.35996 39.8729 5.16572 40.364 4.27783ZM150.018 17.9608C153.06 17.9608 155.586 18.6134 157.594 19.9186V25.6054C156.886 25.1082 156.059 24.7042 155.116 24.3935C154.173 24.0827 153.165 23.9273 152.087 23.9273C150.201 23.9273 148.727 24.278 147.662 24.9839C146.597 25.6898 146.063 26.6087 146.063 27.7496C146.063 28.8683 146.58 29.7829 147.614 30.5021C148.649 31.2168 150.148 31.5764 152.117 31.5764C153.13 31.5764 154.13 31.4254 155.116 31.128C156.099 30.8261 156.946 30.4577 157.655 30.0226V35.5229C155.425 36.8903 152.839 37.5739 149.896 37.5739C147.419 37.5651 145.306 37.13 143.563 36.2599C141.821 35.3898 140.504 34.2089 139.626 32.7173C138.748 31.2257 138.304 29.5476 138.304 27.683C138.304 25.8185 138.76 24.1493 139.673 22.6799C140.586 21.2104 141.925 20.0562 143.69 19.2172C145.454 18.3781 147.562 17.9608 150.018 17.9608ZM127.167 17.9566C128.871 17.9566 130.432 18.143 131.853 18.5159C133.275 18.8889 134.448 19.3638 135.383 19.9454V24.8243C134.426 24.2427 133.331 23.7855 132.079 23.4391C130.832 23.0974 129.55 22.9287 128.228 22.9287C126.32 22.9287 125.368 23.2616 125.368 23.9231C125.368 24.2339 125.516 24.4647 125.811 24.6201C126.107 24.7754 126.65 24.9353 127.437 25.104L130.479 25.6633C132.466 26.014 133.948 26.6311 134.921 27.5101C135.896 28.3891 136.382 29.6899 136.382 31.4123C136.382 33.299 135.578 34.7951 133.965 35.905C132.353 37.0148 130.066 37.5697 127.102 37.5697C125.359 37.5653 123.665 37.3477 122.022 36.9127C120.378 36.4776 118.896 35.8472 117.579 35.0171V29.8586C118.575 30.6443 119.909 31.2925 121.582 31.803C123.256 32.3091 124.873 32.5621 126.437 32.5621C127.167 32.5621 127.72 32.4644 128.093 32.2691C128.467 32.0738 128.654 31.8385 128.654 31.5677C128.654 31.2569 128.554 30.9995 128.35 30.7908C128.145 30.5821 127.75 30.409 127.164 30.2625L123.512 29.4234C121.422 28.9263 119.939 28.2381 119.057 27.3547C118.175 26.4757 117.735 25.3214 117.735 23.892C117.735 22.6889 118.118 21.6457 118.892 20.7534C119.661 19.8611 120.756 19.1729 122.178 18.689C123.599 18.2007 125.259 17.9566 127.167 17.9566ZM226.047 14.5693V36.9437H218.592V32.8729C217.962 34.4044 217.006 35.572 215.72 36.3711C214.432 37.1658 212.842 37.5653 210.955 37.5653C209.269 37.5653 207.8 37.148 206.544 36.3089C205.288 35.4699 204.319 34.3201 203.636 32.8596C202.958 31.399 202.614 29.7476 202.614 27.9008C202.593 25.9963 202.954 24.2871 203.697 22.7733C204.436 21.2595 205.483 20.0786 206.831 19.2307C208.178 18.3828 209.717 17.9566 211.443 17.9566C214.933 17.9566 217.293 19.4787 218.528 22.5186L218.592 22.6796L218.592 14.5693H226.047ZM171.407 17.9521C173.819 17.9521 175.901 18.365 177.644 19.1951C179.387 20.0253 180.717 21.1618 181.63 22.6135C182.543 24.0652 182.999 25.7299 182.999 27.6167C182.999 29.4812 182.543 31.1682 181.63 32.6819C180.717 34.1957 179.383 35.3855 177.627 36.2556C175.871 37.1258 173.797 37.5608 171.403 37.5608C169.008 37.5608 166.934 37.1302 165.183 36.2601C163.427 35.39 162.088 34.2002 161.167 32.6864C160.245 31.1726 159.78 29.4856 159.78 27.6211C159.78 25.7566 160.241 24.0918 161.167 22.6313C162.092 21.1707 163.422 20.0253 165.17 19.1951C166.912 18.365 168.995 17.9521 171.407 17.9521ZM114.251 23.0484V37.0413H106.819V23.0484C109.096 24.0517 111.921 24.0961 114.251 23.0484ZM198.512 18.3605C199.585 18.3605 200.507 18.6091 201.28 19.1063V25.8186C200.507 25.2992 199.507 25.0417 198.268 25.0417C196.647 25.0417 195.395 25.5434 194.526 26.5467C193.652 27.55 193.217 29.1126 193.217 31.2257V36.9437H185.763V18.7645H193.066V24.5445C193.47 22.4313 194.126 20.8732 195.03 19.8654C195.93 18.8621 197.094 18.3605 198.512 18.3605ZM91.0782 15.1908C93.9386 15.1908 96.3551 15.648 98.3376 16.5581C100.315 17.4681 101.797 18.7378 102.78 20.3626C103.761 21.9874 104.257 23.8475 104.257 25.9429C104.257 27.9939 103.744 29.854 102.718 31.5187C101.693 33.1879 100.132 34.5065 98.033 35.4787C95.9339 36.4509 93.3341 36.9392 90.2268 36.9392H79.2126V15.1908H91.0782ZM23.404 22.133C20.6266 22.133 18.4359 24.6857 18.4359 27.7888C18.4359 30.8919 20.6744 33.4401 23.404 33.4401C26.1814 33.4401 28.3764 30.8919 28.3721 27.7888C28.4199 24.6812 26.1814 22.133 23.404 22.133ZM41.7636 22.133C38.9862 22.133 36.7956 24.6857 36.7956 27.7888C36.7956 30.8919 39.034 33.4401 41.7636 33.4401C44.541 33.4401 46.7317 30.8919 46.7317 27.7888C46.7795 24.6812 44.541 22.133 41.7636 22.133ZM171.403 23.6789C170.103 23.6789 169.086 24.0474 168.343 24.7843C167.604 25.5213 167.234 26.5068 167.234 27.7498C167.234 28.9929 167.604 29.9917 168.343 30.7464C169.082 31.5011 170.103 31.8829 171.403 31.8829C172.68 31.8784 173.689 31.5011 174.428 30.7464C175.167 29.9917 175.541 28.9929 175.541 27.7498C175.541 26.5068 175.171 25.5168 174.428 24.7843C173.689 24.0474 172.68 23.6789 171.403 23.6789ZM214.485 23.7722C213.229 23.7722 212.225 24.1406 211.473 24.8775C210.721 25.6145 210.347 26.5689 210.347 27.7498C210.347 28.9307 210.721 29.8941 211.473 30.6399C212.225 31.3856 213.216 31.7586 214.454 31.7586C215.71 31.7542 216.719 31.3768 217.48 30.6221C218.241 29.8674 218.619 28.8863 218.619 27.6877C218.619 26.529 218.249 25.5834 217.51 24.8598C216.771 24.1362 215.758 23.7722 214.485 23.7722ZM90.5351 20.7222H86.8232V31.4122H90.1048C92.0304 31.4122 93.5129 30.9195 94.5469 29.9383C95.5817 28.9528 96.0991 27.6121 96.0991 25.9119C96.0991 24.3358 95.6377 23.0795 94.7166 22.1383C93.7954 21.1972 92.4001 20.7222 90.5351 20.7222ZM110.538 13.881C112.59 13.881 114.255 15.4074 114.255 17.2904C114.255 19.1734 112.59 20.6999 110.538 20.6999C108.485 20.6999 106.822 19.1734 106.822 17.2904C106.822 15.4074 108.485 13.881 110.538 13.881Z" fill="#5865F2"/>
</svg>
