<svg  viewBox="95 25 150 32" fill="none" xmlns="http://www.w3.org/2000/svg"><defs>
<clipPath id="clip0_0_1914">
<rect width="37.5" height="50" fill="white" transform="translate(20 16)"/>
</clipPath>
<clipPath id="clip1_0_1914">
<rect width="100" height="30.4762" fill="white" transform="translate(93 26)"/>
</clipPath>
</defs><g clip-path="url(#clip0_0_1914)">
<path d="M45 61.0001V62.2193C45 63.9451 43.6009 65.3443 41.875 65.3443C41.3383 65.3443 40.8106 65.206 40.343 64.9429L21.5929 54.396C20.6089 53.8426 20 52.8013 20 51.6724V30.3277C20 29.1987 20.6089 28.1575 21.5929 27.604L40.343 17.0572C41.8472 16.211 43.7525 16.7445 44.5988 18.2488C44.8617 18.7165 45 19.2441 45 19.7808V21.0001L47.227 20.3319C48.8802 19.836 50.6223 20.7741 51.1183 22.4272C51.2056 22.7185 51.25 23.021 51.25 23.3251V24.5938L53.9873 24.2516C55.7 24.0376 57.2619 25.2523 57.4759 26.9649C57.4919 27.0935 57.5 27.2229 57.5 27.3525V54.6476C57.5 56.3735 56.1009 57.7726 54.375 57.7726C54.2455 57.7726 54.1159 57.7645 53.9873 57.7485L51.25 57.4063V58.6749C51.25 60.4009 49.8509 61.7999 48.125 61.7999C47.8209 61.7999 47.5183 61.7556 47.227 61.6682L45 61.0001ZM45 57.7374L48.125 58.6749V23.3251L45 24.2626V57.7374ZM51.25 27.7431V54.257L54.375 54.6476V27.3525L51.25 27.7431ZM20 50.7413V31.2588V50.7413ZM23.125 30.3277V51.6724L41.875 62.2193V19.7808L23.125 30.3277ZM26.25 32.4063L29.375 30.8438V51.1563L26.25 49.5938V32.4063Z" fill="black"/>
</g><g clip-path="url(#clip1_0_1914)">
<path d="M108.238 53.4286V54.1718C108.238 55.2237 107.385 56.0765 106.333 56.0765C106.006 56.0765 105.685 55.9923 105.4 55.8319L93.9709 49.4033C93.3712 49.066 93 48.4313 93 47.7432V34.7331C93 34.0449 93.3712 33.4103 93.9709 33.0729L105.4 26.6444C106.316 26.1286 107.478 26.4538 107.994 27.3707C108.154 27.6558 108.238 27.9774 108.238 28.3045V29.0477L109.596 28.6404C110.603 28.3381 111.665 28.9099 111.967 29.9175C112.021 30.0951 112.048 30.2795 112.048 30.4649V31.2381L113.716 31.0296C114.76 30.8991 115.712 31.6395 115.842 32.6834C115.852 32.7617 115.857 32.8407 115.857 32.9196V49.5566C115.857 50.6086 115.004 51.4614 113.952 51.4614C113.873 51.4614 113.794 51.4565 113.716 51.4467L112.048 51.2382V52.0114C112.048 53.0634 111.195 53.9162 110.143 53.9162C109.958 53.9162 109.773 53.8891 109.596 53.8359L108.238 53.4286ZM108.238 51.44L110.143 52.0114V30.4649L108.238 31.0363V51.44ZM112.048 33.1577V49.3185L113.952 49.5566V32.9196L112.048 33.1577ZM93 47.1757V35.3006V47.1757ZM94.9048 34.7331V47.7432L106.333 54.1718V28.3045L94.9048 34.7331ZM96.8095 36.0001L98.7143 35.0477V47.4286L96.8095 46.4763V36.0001Z" fill="black"/>
<path d="M129.977 49.085C128.838 49.085 127.85 48.8343 127.015 48.333C126.179 47.8316 125.531 47.1304 125.07 46.2291C124.615 45.3277 124.387 44.2745 124.387 43.0694C124.387 41.8641 124.615 40.8084 125.07 39.902C125.531 38.9956 126.179 38.2917 127.015 37.7904C127.85 37.2892 128.838 37.0385 129.977 37.0385C131.116 37.0385 132.104 37.2892 132.939 37.7904C133.775 38.2917 134.42 38.9956 134.876 39.902C135.337 40.8084 135.567 41.8641 135.567 43.0694C135.567 44.2745 135.337 45.3277 134.876 46.2291C134.42 47.1304 133.775 47.8316 132.939 48.333C132.104 48.8343 131.116 49.085 129.977 49.085ZM129.992 46.8822C130.61 46.8822 131.126 46.7126 131.542 46.3734C131.957 46.029 132.266 45.5682 132.468 44.991C132.676 44.4137 132.78 43.7706 132.78 43.0617C132.78 42.3477 132.676 41.7021 132.468 41.1249C132.266 40.5425 131.957 40.0793 131.542 39.7349C131.126 39.3906 130.61 39.2184 129.992 39.2184C129.359 39.2184 128.833 39.3906 128.412 39.7349C127.997 40.0793 127.686 40.5425 127.478 41.1249C127.276 41.7021 127.174 42.3477 127.174 43.0617C127.174 43.7706 127.276 44.4137 127.478 44.991C127.686 45.5682 127.997 46.029 128.412 46.3734C128.833 46.7126 129.359 46.8822 129.992 46.8822ZM144.909 43.9504V37.1904H147.659V48.8571H144.993V46.7835H144.871C144.608 47.4367 144.175 47.971 143.572 48.3861C142.975 48.8014 142.238 49.009 141.362 49.009C140.597 49.009 139.921 48.8394 139.334 48.5001C138.752 48.1557 138.296 47.657 137.967 47.0037C137.638 46.3454 137.473 45.5505 137.473 44.6188V37.1904H140.223V44.1934C140.223 44.9327 140.425 45.5201 140.83 45.9556C141.236 46.3911 141.767 46.6088 142.425 46.6088C142.831 46.6088 143.223 46.51 143.603 46.3126C143.983 46.1151 144.294 45.8214 144.537 45.4315C144.785 45.0365 144.909 44.5429 144.909 43.9504ZM155.884 37.1904V39.3172H149.177V37.1904H155.884ZM150.833 34.3953H153.583V45.3479C153.583 45.7176 153.638 46.0012 153.75 46.1987C153.866 46.3911 154.018 46.5227 154.206 46.5936C154.393 46.6645 154.601 46.6999 154.828 46.6999C155.001 46.6999 155.158 46.6873 155.299 46.6619C155.446 46.6367 155.558 46.6138 155.633 46.5936L156.097 48.7432C155.95 48.7937 155.74 48.8494 155.466 48.9102C155.198 48.971 154.869 49.0064 154.479 49.0166C153.79 49.0368 153.17 48.9331 152.618 48.7052C152.066 48.4722 151.628 48.1127 151.304 47.6266C150.985 47.1405 150.828 46.5329 150.833 45.8036V34.3953ZM160.756 33.3015V48.8571H158.007V33.3015H160.756ZM163.156 48.8571V37.1904H165.905V48.8571H163.156ZM164.538 35.5346C164.103 35.5346 163.728 35.3903 163.414 35.1016C163.1 34.808 162.943 34.456 162.943 34.0459C162.943 33.6306 163.1 33.2787 163.414 32.9901C163.728 32.6964 164.103 32.5496 164.538 32.5496C164.979 32.5496 165.353 32.6964 165.662 32.9901C165.976 33.2787 166.133 33.6306 166.133 34.0459C166.133 34.456 165.976 34.808 165.662 35.1016C165.353 35.3903 164.979 35.5346 164.538 35.5346ZM171.055 42.0212V48.8571H168.305V37.1904H170.933V39.1728H171.07C171.338 38.5196 171.766 38.0006 172.353 37.6157C172.946 37.2309 173.677 37.0385 174.548 37.0385C175.354 37.0385 176.055 37.2107 176.652 37.555C177.255 37.8994 177.721 38.3981 178.05 39.0513C178.384 39.7045 178.549 40.497 178.544 41.4287V48.8571H175.794V41.854C175.794 41.0742 175.592 40.464 175.187 40.0235C174.786 39.583 174.232 39.3627 173.523 39.3627C173.042 39.3627 172.614 39.4691 172.239 39.6817C171.87 39.8894 171.579 40.1906 171.366 40.5855C171.158 40.9806 171.055 41.4591 171.055 42.0212ZM186.076 49.085C184.906 49.085 183.896 48.8418 183.045 48.3557C182.2 47.8646 181.549 47.1709 181.093 46.2746C180.638 45.3733 180.41 44.3124 180.41 43.0921C180.41 41.892 180.638 40.8388 181.093 39.9324C181.554 39.0209 182.197 38.312 183.023 37.8056C183.848 37.2942 184.818 37.0385 185.932 37.0385C186.651 37.0385 187.329 37.155 187.967 37.3879C188.611 37.6157 189.177 37.9702 189.669 38.4513C190.165 38.9323 190.554 39.545 190.838 40.2894C191.122 41.0287 191.264 41.9097 191.264 42.9326V43.7757H181.701V41.9224H188.628C188.623 41.3957 188.509 40.9274 188.287 40.5173C188.063 40.102 187.752 39.7754 187.352 39.5374C186.957 39.2994 186.496 39.1804 185.97 39.1804C185.408 39.1804 184.914 39.3172 184.489 39.5906C184.063 39.859 183.731 40.2134 183.493 40.6539C183.261 41.0894 183.142 41.5679 183.137 42.0894V43.7074C183.137 44.3858 183.261 44.9682 183.509 45.4543C183.757 45.9354 184.104 46.305 184.549 46.5633C184.995 46.8164 185.516 46.943 186.114 46.943C186.514 46.943 186.876 46.8873 187.2 46.7759C187.524 46.6594 187.805 46.4898 188.043 46.267C188.281 46.0442 188.461 45.7682 188.583 45.4391L191.15 45.7277C190.988 46.4062 190.679 46.9987 190.223 47.5051C189.772 48.0064 189.195 48.3963 188.491 48.6748C187.787 48.9482 186.982 49.085 186.076 49.085Z" fill="black"/>
</g></svg>