<svg width="184" height="65" viewBox="0 0 184 65" fill="none" xmlns="http://www.w3.org/2000/svg">
<path fill-rule="evenodd" clip-rule="evenodd" d="M136.336 39.4658H137.503V34.5867C137.503 34.3746 137.397 34.2685 137.185 34.2685H136.23V32.6775H138.458C139.2 32.6775 139.518 32.9957 139.518 33.6321V34.0564C139.518 34.1624 139.518 34.2685 139.518 34.2685V34.3746C139.624 34.1624 140.473 32.4653 142.594 32.4653C144.398 32.4653 145.352 33.42 145.352 35.6474V39.4658H146.519V41.0568H143.231V36.0716C143.231 35.011 142.913 34.3746 141.958 34.3746C140.473 34.3746 139.624 35.8595 139.624 37.2384V39.4658H140.791V41.0568H136.336V39.4658ZM130.715 32.4653C128.169 32.4653 126.154 34.2685 126.154 36.8141C126.154 39.3598 128.169 41.1629 130.715 41.1629C133.26 41.1629 135.276 39.3598 135.276 36.8141C135.276 34.2685 133.26 32.4653 130.715 32.4653ZM130.715 39.4658C129.336 39.4658 128.169 38.4051 128.275 36.8141C128.275 35.2231 129.336 34.1624 130.715 34.1624C132.094 34.1624 133.154 35.2231 133.154 36.8141C133.154 38.4051 132.094 39.4658 130.715 39.4658ZM122.123 31.2986H124.245V29.4954H122.123V31.2986ZM120.957 39.4658H122.123V34.2685H120.85V32.6775H124.245V39.4658H125.411V41.0568H120.957V39.4658ZM115.229 34.2685H113.956V32.6775H115.335V30.45H117.35V32.6775H119.259V34.2685H117.35V37.7687C117.35 39.2537 118.411 39.3598 119.047 39.3598C119.153 39.3598 119.259 39.3598 119.366 39.3598H119.472V41.0568H119.259C119.153 41.0568 119.047 41.0568 118.835 41.0568C117.668 41.0568 115.335 40.7386 115.335 37.8748V34.2685H115.229ZM113.214 39.4658C113.001 39.4658 112.895 39.3598 112.895 39.1476V35.7534C112.895 33.6321 111.729 32.4653 109.501 32.4653C108.441 32.4653 107.592 32.7835 107.062 32.9957C106.743 33.1017 106.425 33.3139 106.213 33.526L107.062 35.011C107.274 34.7988 107.592 34.6928 107.804 34.5867C108.228 34.3746 108.759 34.1624 109.395 34.1624C110.244 34.1624 110.88 34.5867 110.88 35.6474V35.8595H110.35C108.971 35.8595 105.577 36.1777 105.577 38.8294C105.577 40.5265 106.849 41.375 108.334 41.375C109.289 41.375 109.925 40.9508 110.35 40.5265C110.668 40.2083 110.88 39.9962 110.986 39.678V39.784C110.986 39.8901 110.986 39.9962 110.986 40.1022V40.2083C110.986 40.6326 111.304 41.0568 112.047 41.0568H113.956V39.4658H113.214ZM110.774 37.4505C110.774 38.5112 110.032 39.678 108.865 39.678C108.122 39.678 107.698 39.1476 107.698 38.5112C107.698 37.2384 109.607 37.1323 110.456 37.1323H110.774V37.4505ZM103.88 39.4658C103.667 39.4658 103.561 39.3598 103.561 39.1476V29.3894H100.167V30.9804H101.44V33.1017C101.44 33.3139 101.44 33.42 101.44 33.526C101.44 33.6321 101.44 33.7382 101.44 33.7382C101.334 33.526 101.122 33.3139 100.91 33.1017C100.485 32.7835 99.9551 32.4653 99.0005 32.4653C96.773 32.4653 95.2881 34.2685 95.2881 36.8141C95.2881 39.3598 96.667 41.1629 98.8944 41.1629C99.9551 41.1629 100.591 40.8447 101.016 40.4204C101.334 40.2083 101.546 39.9962 101.652 39.678V39.784C101.652 39.8901 101.652 39.9962 101.652 40.1022V40.2083C101.652 40.6326 101.97 41.0568 102.713 41.0568H104.622V39.4658H103.88ZM99.4247 39.4658C98.1519 39.4658 97.3034 38.5112 97.4095 36.8141C97.4095 35.2231 98.3641 34.2685 99.5308 34.2685C100.91 34.2685 101.546 35.5413 101.546 36.9202C101.546 38.7233 100.485 39.4658 99.4247 39.4658ZM84.3631 39.4658H85.5298V34.5867C85.5298 34.3746 85.4238 34.2685 85.2116 34.2685H84.257V32.6775H86.4845C87.2269 32.6775 87.5451 32.9957 87.5451 33.6321V34.0564C87.5451 34.1624 87.5451 34.2685 87.5451 34.2685V34.3746C87.6512 34.1624 88.4997 32.4653 90.6211 32.4653C92.4243 32.4653 93.3789 33.42 93.3789 35.6474V39.4658H94.5456V41.0568H91.2575V36.0716C91.2575 35.011 90.9393 34.3746 89.9847 34.3746C88.4997 34.3746 87.6512 35.8595 87.6512 37.2384V39.4658H88.818V41.0568H84.3631V39.4658ZM74.1806 34.2685H72.9078V32.6775H76.3019V37.6627C76.3019 38.6173 76.5141 39.3598 77.5748 39.3598C79.0597 39.3598 79.9082 37.8748 79.9082 36.3899V34.2685H78.6354V32.6775H82.0296V39.1476C82.0296 39.3598 82.1357 39.4658 82.3478 39.4658H83.0903V41.0568H80.9689C80.2264 41.0568 79.9082 40.7386 79.9082 40.1022V39.784C79.9082 39.678 79.9082 39.5719 79.9082 39.4658V39.3598C79.8022 39.678 78.9536 41.1629 76.8323 41.1629C75.1352 41.1629 74.0745 40.3144 74.0745 37.9809L74.1806 34.2685ZM67.8165 32.4653C65.2709 32.4653 63.2556 34.2685 63.2556 36.8141C63.2556 39.3598 65.2709 41.1629 67.8165 41.1629C70.3621 41.1629 72.3774 39.3598 72.3774 36.8141C72.3774 34.2685 70.3621 32.4653 67.8165 32.4653ZM67.8165 39.4658C66.4376 39.4658 65.3769 38.4051 65.3769 36.8141C65.3769 35.2231 66.4376 34.1624 67.8165 34.1624C69.1954 34.1624 70.2561 35.2231 70.2561 36.8141C70.2561 38.4051 69.1954 39.4658 67.8165 39.4658ZM54.6641 39.4658H56.043V31.0865H54.6641V29.4954H62.9374V32.4653H61.1342V31.2986H58.1643V34.5867H61.9828V36.2838H58.1643V39.4658H59.7553V41.0568H54.6641V39.4658ZM145.034 22.8132H146.837V23.3435C146.837 23.8738 147.58 24.192 148.428 24.192C149.277 24.192 149.807 23.8738 149.807 23.3435C149.807 22.7071 149.065 22.3889 147.898 22.0707C146.731 21.6464 145.246 21.1161 145.246 19.5251C145.246 17.7219 147.049 17.0855 148.534 17.0855C149.701 17.0855 151.504 17.5098 151.504 18.7826V19.8433H149.913V19.419C149.913 18.9947 149.383 18.7826 148.64 18.7826C148.004 18.7826 147.474 18.9947 147.474 19.5251C147.474 20.1615 148.322 20.4797 149.171 20.7979C150.443 21.2221 151.928 21.7525 151.928 23.3435C151.928 25.0406 150.337 25.8891 148.428 25.8891C146.943 25.8891 145.034 25.2527 145.034 23.8738V22.8132ZM135.064 18.7826H133.791V17.1916H137.185V22.1768C137.185 23.1314 137.397 23.8738 138.458 23.8738C139.943 23.8738 140.791 22.3889 140.791 20.9039V18.7826H139.518V17.1916H142.913V23.6617C142.913 23.8738 143.019 23.9799 143.231 23.9799H144.079V25.5709H142.064C141.322 25.5709 141.003 25.2527 141.003 24.6163V24.2981C141.003 24.192 141.003 24.086 141.003 23.9799C140.897 24.2981 140.049 25.7831 137.927 25.7831C136.23 25.7831 135.17 24.9345 135.17 22.601V18.7826H135.064ZM129.336 17.0855C130.715 17.0855 132.73 17.6158 132.73 19.1008V20.2675H130.927V19.7372C130.927 19.2068 130.078 18.8886 129.336 18.8886C127.851 18.8886 126.896 19.9493 126.896 21.4343C126.896 23.1314 128.063 24.086 129.548 24.086C130.715 24.086 131.669 23.4496 132.094 23.0253L132.836 24.5102C132.306 25.0406 131.033 25.7831 129.442 25.7831C127.002 25.7831 124.881 24.086 124.881 21.4343C124.881 18.9947 126.79 17.0855 129.336 17.0855ZM119.153 17.0855C116.608 17.0855 114.592 18.8886 114.592 21.4343C114.592 23.9799 116.608 25.7831 119.153 25.7831C121.699 25.7831 123.714 23.9799 123.714 21.4343C123.714 18.8886 121.699 17.0855 119.153 17.0855ZM119.153 24.086C117.881 24.086 116.714 23.0253 116.714 21.4343C116.714 19.8433 117.774 18.7826 119.153 18.7826C120.532 18.7826 121.593 19.8433 121.593 21.4343C121.593 23.0253 120.532 24.086 119.153 24.086ZM105.789 23.9799H107.168V15.6005H105.789V14.0095H114.062V16.9794H112.259V15.8127H109.289V19.2068H113.108V20.9039H109.289V24.086H110.774V25.677H105.683L105.789 23.9799ZM100.273 18.7826H99.0005V17.1916H100.379V14.9641H102.395V17.1916H104.304V18.7826H102.395V22.2828C102.395 23.7678 103.455 23.8738 104.092 23.8738C104.198 23.8738 104.304 23.8738 104.41 23.8738H104.516V25.5709H104.304C104.198 25.5709 104.092 25.5709 103.88 25.5709C102.713 25.5709 100.379 25.2527 100.379 22.3889L100.273 18.7826C100.379 18.7826 100.273 18.7826 100.273 18.7826ZM88.3937 24.086H89.5604V15.4945H88.2876V14.0095H91.6818V18.0401C91.6818 18.2522 91.6818 18.4644 91.6818 18.5704V18.7826C92.1061 17.934 93.1667 17.0855 94.5456 17.0855C96.3488 17.0855 97.4095 18.0401 97.4095 20.2675V24.086H98.5762V25.677H95.2881V20.6918C95.2881 19.6311 95.076 18.9947 94.0153 18.9947C92.5303 18.9947 91.6818 20.2675 91.6818 21.8585V24.086H92.8485V25.677H88.3937V24.086ZM85.5298 17.2976C84.8934 17.2976 84.5752 17.6158 84.5752 18.0401C84.5752 18.1462 84.5752 18.2522 84.5752 18.2522C84.5752 18.3583 84.5752 18.3583 84.5752 18.3583C84.151 17.5098 82.9842 17.0855 82.0296 17.0855C79.59 17.0855 78.3172 18.8886 78.3172 21.2221C78.3172 23.5556 79.59 25.4649 82.0296 25.4649C83.0903 25.4649 83.8328 25.0406 84.257 24.4042V24.5102C84.257 24.6163 84.257 24.7224 84.257 24.8284V25.3588C84.257 26.9498 83.1964 27.4801 81.9235 27.4801C81.2871 27.4801 80.7568 27.268 80.3325 27.1619C80.1204 27.0559 79.9082 26.9498 79.6961 26.8437L79.1658 28.3287C80.0143 28.753 81.075 29.0712 82.1357 29.0712C84.257 29.0712 86.4845 28.0105 86.4845 25.1467V19.2068C86.4845 18.9947 86.5905 18.8886 86.8027 18.8886H87.6512V17.2976H85.5298ZM82.5599 23.6617C81.1811 23.6617 80.4386 22.601 80.4386 21.1161C80.4386 19.7372 81.075 18.7826 82.3478 18.7826C83.4085 18.7826 84.3631 19.3129 84.3631 21.2221C84.3631 23.1314 83.4085 23.6617 82.5599 23.6617ZM74.1806 15.8127H76.3019V14.0095H74.1806V15.8127ZM73.0138 24.086H74.1806V18.8886H72.9078V17.2976H76.3019V24.086H77.4687V25.677H73.0138V24.086ZM65.5891 24.086H66.7558V19.2068C66.7558 18.9947 66.6498 18.8886 66.4376 18.8886H65.483V17.2976H67.6044C68.3468 17.2976 68.665 17.6158 68.665 18.3583V18.8886C68.665 18.9947 68.665 19.1008 68.665 19.3129V19.419C69.0893 18.2522 70.0439 17.2976 71.3167 17.2976C71.4228 17.2976 71.5289 17.2976 71.5289 17.2976H71.6349V19.3129H71.5289C71.4228 19.3129 71.3167 19.3129 71.2107 19.3129C69.5136 19.3129 68.7711 20.7979 68.7711 22.3889V24.192H69.9379V25.7831H65.483V24.086H65.5891ZM62.5131 19.419C63.3616 18.9947 63.892 18.0401 63.892 16.9794C63.892 15.7066 63.1495 14.752 62.0888 14.3277C61.4524 14.1156 60.816 14.0095 59.9675 14.0095H54.6641V15.6005H56.043V23.9799H54.7701V25.5709H60.3917C61.0282 25.5709 61.5585 25.5709 62.0888 25.3588C63.3616 24.9345 64.4223 23.7678 64.4223 22.1768C64.4223 20.9039 63.7859 19.8433 62.5131 19.419ZM58.1643 15.7066H59.9675C60.2857 15.7066 60.7099 15.8127 60.9221 15.9187C61.3464 16.2369 61.5585 16.7673 61.5585 17.2976C61.5585 18.1462 61.1342 18.7826 60.1796 18.7826H58.1643V15.7066ZM61.1342 23.7678C60.9221 23.8738 60.6039 23.8738 60.2857 23.8738L58.1643 23.9799V20.4797H60.3917C61.4524 20.4797 62.0888 21.2221 62.0888 22.1768C62.0888 22.8132 61.7706 23.5556 61.1342 23.7678ZM178.551 56.1185H179.4V55.2699H178.551V56.1185ZM175.369 51.5576H174.733V50.9212H175.475V49.4362H176.218V50.9212H177.491V51.5576H176.218V54.1032C176.218 55.376 176.96 55.4821 177.385 55.4821C177.491 55.4821 177.597 55.4821 177.597 55.4821V56.1185C177.597 56.1185 177.491 56.1185 177.279 56.1185C176.642 56.1185 175.475 55.9064 175.475 54.2093L175.369 51.5576ZM169.111 48.9059H169.854V51.7697C169.854 51.9818 169.854 52.194 169.854 52.194C170.066 51.6636 170.702 50.9212 171.975 50.9212C173.248 50.9212 173.672 51.6636 173.672 52.9364V56.2246H172.93V53.0425C172.93 52.194 172.824 51.4515 171.763 51.4515C170.915 51.4515 170.066 52.0879 169.854 52.9364C169.748 53.1486 169.748 53.3607 169.748 53.6789V56.2246H169.005V48.9059H169.111ZM166.672 51.0272V51.5576C166.672 51.6636 166.672 51.7697 166.672 51.7697C166.672 51.7697 166.354 50.9212 164.975 50.9212C163.596 50.9212 162.747 51.9818 162.747 53.5729C162.747 55.1639 163.702 56.2246 165.081 56.2246C165.929 56.2246 166.46 55.8003 166.778 55.2699C166.778 55.2699 166.778 55.4821 166.778 55.6942V56.1185C166.778 57.2852 166.035 57.7095 164.975 57.7095C164.232 57.7095 163.596 57.3913 163.384 57.4974L163.065 58.0277C163.596 58.3459 164.126 58.452 164.763 58.452C166.035 58.452 167.308 57.8156 167.308 56.1185V51.0272H166.672ZM165.187 55.4821C164.126 55.4821 163.49 54.7396 163.49 53.4668C163.49 52.194 164.02 51.4515 165.081 51.4515C166.035 51.4515 166.778 51.9818 166.778 53.4668C166.778 54.9517 166.035 55.4821 165.187 55.4821ZM160.838 56.1185H161.581V50.9212H160.838V56.1185ZM160.838 49.7544H161.581V48.9059H160.838V49.7544ZM155.429 54.8457C155.429 54.8457 156.171 55.6942 157.338 55.6942C158.186 55.6942 158.823 55.2699 158.823 54.4214C158.823 52.6182 155.216 53.0425 155.216 50.8151C155.216 49.7544 156.171 48.9059 157.444 48.9059C158.717 48.9059 159.353 49.6483 159.353 49.6483L159.035 50.2848C159.035 50.2848 158.399 49.6483 157.444 49.6483C156.489 49.6483 155.959 50.2848 155.959 50.9212C155.959 52.6182 159.565 52.194 159.565 54.5275C159.565 55.5881 158.717 56.5428 157.338 56.5428C155.853 56.5428 155.004 55.5881 155.004 55.5881L155.429 54.8457ZM146.625 50.9212H147.367V51.6636C147.367 51.8758 147.367 52.0879 147.367 52.0879C147.58 51.6636 148.216 50.8151 149.489 50.8151C150.762 50.8151 151.186 51.5576 151.186 52.8304V56.1185H150.443V52.9364C150.443 52.0879 150.337 51.3454 149.277 51.3454C148.428 51.3454 147.58 51.9818 147.367 52.8304C147.261 53.0425 147.261 53.2547 147.261 53.5729V56.1185H146.519V50.9212H146.625ZM144.398 56.1185H145.14V50.9212H144.398V56.1185ZM144.291 49.7544H145.034V48.9059H144.291V49.7544ZM140.473 53.2547C140.473 51.8758 139.731 50.8151 138.246 50.8151C136.867 50.8151 135.7 51.8758 135.7 53.4668C135.7 55.0578 136.867 56.2246 138.458 56.2246C139.624 56.2246 140.367 55.4821 140.367 55.4821L140.049 54.9517C140.049 54.9517 139.412 55.5881 138.458 55.5881C137.397 55.5881 136.442 54.9517 136.442 53.5729H140.473C140.473 53.5729 140.473 53.3607 140.473 53.2547ZM136.442 53.0425C136.655 51.9818 137.397 51.4515 138.246 51.4515C138.988 51.4515 139.731 51.9818 139.731 53.0425H136.442ZM132.518 50.9212H133.26V51.8758C133.26 52.0879 133.26 52.3 133.26 52.3C133.473 51.5576 134.109 50.9212 134.958 50.9212C135.064 50.9212 135.276 50.9212 135.276 50.9212V51.6636C135.276 51.6636 135.17 51.6636 135.064 51.6636C134.321 51.6636 133.791 52.194 133.579 53.0425C133.473 53.3607 133.473 53.6789 133.473 54.1032V56.3306H132.73V50.9212H132.518ZM126.472 50.9212H127.215V54.1032C127.215 54.9517 127.321 55.6942 128.381 55.6942C129.548 55.6942 130.291 54.6335 130.291 53.4668V50.9212H131.033V56.1185H130.397V55.376C130.397 55.1639 130.397 54.9517 130.397 54.9517C130.184 55.4821 129.548 56.2246 128.381 56.2246C127.108 56.2246 126.684 55.5881 126.684 54.2093V50.9212H126.472ZM122.441 48.7998C124.139 48.7998 125.093 49.7544 125.093 49.7544L124.669 50.2848C124.669 50.2848 123.82 49.4362 122.441 49.4362C120.744 49.4362 119.472 50.8151 119.472 52.5122C119.472 54.2093 120.744 55.6942 122.441 55.6942C123.926 55.6942 124.775 54.7396 124.775 54.7396L125.199 55.2699C125.199 55.2699 124.245 56.4367 122.441 56.4367C120.32 56.4367 118.729 54.7396 118.729 52.6182C118.835 50.3908 120.426 48.7998 122.441 48.7998ZM113.956 56.1185H114.805V55.2699H113.956V56.1185ZM111.623 48.7998V51.3454C111.623 51.5576 111.623 51.7697 111.623 51.7697C111.623 51.7697 111.198 50.8151 109.925 50.8151C108.547 50.8151 107.592 51.8758 107.698 53.4668C107.698 55.0578 108.547 56.2246 109.925 56.2246C111.304 56.2246 111.729 55.1639 111.729 55.1639C111.729 55.1639 111.729 55.376 111.729 55.5881V56.1185H112.365V48.7998H111.623ZM109.925 55.6942C108.971 55.6942 108.334 54.8457 108.228 53.5729C108.228 52.194 108.971 51.4515 109.925 51.4515C111.092 51.4515 111.623 52.5122 111.623 53.5729C111.623 55.0578 110.774 55.6942 109.925 55.6942ZM101.864 50.9212H102.607V51.6636C102.607 51.8758 102.607 52.0879 102.607 52.0879C102.819 51.6636 103.455 50.8151 104.728 50.8151C106.001 50.8151 106.425 51.5576 106.425 52.8304V56.1185H105.683V52.9364C105.683 52.0879 105.577 51.3454 104.516 51.3454C103.667 51.3454 102.819 51.9818 102.607 52.8304C102.501 53.0425 102.501 53.2547 102.501 53.5729V56.1185H101.758L101.864 50.9212ZM99.6369 56.1185H100.379V50.9212H99.6369V56.1185ZM99.5308 49.7544H100.273V48.9059H99.5308V49.7544ZM91.3636 48.9059H92.1061L94.0153 53.1486C94.2274 53.5729 94.3335 53.9971 94.3335 53.9971C94.3335 53.9971 94.5456 53.4668 94.6517 53.1486L96.5609 48.9059H97.3034L97.8337 56.2246H97.0912L96.8791 51.0272C96.8791 50.603 96.8791 49.9665 96.8791 49.9665C96.8791 49.9665 96.667 50.603 96.4548 51.0272L94.7578 54.8457H94.1213L92.4243 51.1333C92.2121 50.8151 92 50.0726 92 50.0726C92 50.0726 92 50.709 92 51.1333L91.5757 56.1185H90.8332L91.3636 48.9059ZM82.1357 50.9212H82.8781V51.6636C82.8781 51.8758 82.8781 52.0879 82.8781 52.0879C83.0903 51.6636 83.7267 50.8151 84.9995 50.8151C86.2723 50.8151 86.6966 51.5576 86.6966 52.8304V56.1185H85.9541V52.9364C85.9541 52.0879 85.848 51.3454 84.7874 51.3454C83.9388 51.3454 83.0903 51.9818 82.8781 52.8304C82.7721 53.0425 82.7721 53.2547 82.7721 53.5729V56.1185H82.0296L82.1357 50.9212ZM79.8022 56.1185H80.5447V50.9212H79.8022V56.1185ZM79.8022 49.7544H80.5447V48.9059H79.8022V49.7544ZM75.9837 53.2547C75.9837 51.8758 75.2413 50.8151 73.7563 50.8151C72.2714 50.8151 71.1046 51.8758 71.2107 53.4668C71.2107 55.0578 72.3774 56.2246 73.9684 56.2246C75.1352 56.2246 75.8777 55.4821 75.8777 55.4821L75.5595 54.9517C75.5595 54.9517 74.9231 55.5881 73.9684 55.5881C72.9078 55.5881 71.9531 54.9517 71.9531 53.5729H75.9837C75.9837 53.5729 75.9837 53.3607 75.9837 53.2547ZM71.8471 53.0425C72.0592 51.9818 72.8017 51.4515 73.6502 51.4515C74.3927 51.4515 75.1352 51.9818 75.1352 53.0425H71.8471ZM68.0286 50.9212H68.7711V51.8758C68.7711 52.0879 68.7711 52.3 68.7711 52.3C68.9832 51.5576 69.6197 50.9212 70.4682 50.9212C70.5743 50.9212 70.7864 50.9212 70.7864 50.9212V51.6636C70.7864 51.6636 70.6803 51.6636 70.5743 51.6636C69.8318 51.6636 69.3015 52.194 69.0893 53.0425C68.9832 53.3607 68.9832 53.6789 68.9832 54.1032V56.3306H68.2408V50.9212H68.0286ZM61.8767 50.9212H62.6192V54.1032C62.6192 54.9517 62.7252 55.6942 63.7859 55.6942C64.9527 55.6942 65.6951 54.6335 65.6951 53.4668V50.9212H66.4376V56.1185H65.8012V55.376C65.8012 55.1639 65.8012 54.9517 65.8012 54.9517C65.5891 55.4821 64.9527 56.2246 63.7859 56.2246C62.5131 56.2246 62.0888 55.5881 62.0888 54.2093V50.9212H61.8767ZM57.9522 48.7998C59.6493 48.7998 60.6039 49.7544 60.6039 49.7544L60.1796 50.2848C60.1796 50.2848 59.3311 49.4362 57.9522 49.4362C56.2551 49.4362 54.9823 50.8151 54.9823 52.5122C54.9823 54.2093 56.2551 55.6942 57.9522 55.6942C59.4371 55.6942 60.2857 54.7396 60.2857 54.7396L60.71 55.2699C60.71 55.2699 59.7553 56.4367 57.9522 56.4367C55.8308 56.4367 54.2398 54.7396 54.2398 52.6182C54.2398 50.3908 55.8308 48.7998 57.9522 48.7998ZM155.641 16.7673C155.959 16.7673 156.065 16.5552 156.065 16.2369C156.065 15.9187 155.853 15.8127 155.641 15.8127H155.11V16.7673H155.641ZM154.792 15.4945H155.747C156.171 15.4945 156.595 15.8127 156.595 16.2369C156.595 16.6612 156.383 16.8734 156.065 16.9794C156.065 16.9794 156.065 17.0855 156.171 17.0855L156.701 18.0401H156.277L155.747 16.9794H155.216V18.0401H154.792V15.4945ZM155.535 18.8886C156.701 18.8886 157.55 17.934 157.55 16.7673C157.55 15.6005 156.701 14.6459 155.535 14.6459C154.368 14.6459 153.519 15.6005 153.519 16.7673C153.625 18.0401 154.474 18.8886 155.535 18.8886ZM155.535 14.3277C156.914 14.3277 157.974 15.3884 157.974 16.7673C157.974 18.1462 156.914 19.2068 155.535 19.2068C154.156 19.2068 153.095 18.1462 153.095 16.7673C153.201 15.3884 154.262 14.3277 155.535 14.3277Z" fill="#180E5E"/>
<path d="M32.0716 43.3904H9.37303L20.7223 23.7678C21.4648 22.3889 21.0405 20.6918 19.7677 19.9493L19.0252 21.1161L4.59998 46.1481H33.4504H34.8293C34.8293 44.6632 33.5565 43.3904 32.0716 43.3904Z" fill="#015CAB"/>
<path d="M32.9197 14.9641C31.5408 15.7066 31.1166 17.4037 31.9651 18.7826L43.3144 38.4051H20.5098C19.0248 38.4051 17.752 39.6779 17.752 41.1629H19.1309H47.9814L33.5561 16.1309L32.9197 14.9641Z" fill="#00A3E4"/>
<path d="M36.2082 30.9803L21.783 5.94824L7.35777 30.9803L6.6153 32.147C7.99418 32.8895 9.69127 32.4652 10.4337 31.0863L21.783 11.5698L33.1323 31.1924C33.8748 32.5713 35.5718 32.9956 36.9507 32.2531L36.2082 30.9803Z" fill="#ED1C24"/>
</svg>
