<svg width="204" height="59" viewBox="0 0 204 59" fill="none" xmlns="http://www.w3.org/2000/svg">
<path d="M79.5297 45.7469C79.5297 48.1341 81.0661 49.2214 83.0751 49.2214C85.8641 49.2214 86.5023 47.3778 86.5023 45.6287V40.7834C86.5023 39.2707 85.1314 39.8853 85.1314 39.3416C85.1314 39.2707 85.226 39.1998 85.2732 39.1998C85.8641 39.1998 86.4314 39.2471 87.0223 39.2471C87.3059 39.2471 87.5659 39.1998 87.8495 39.1998C87.9204 39.1998 88.0386 39.2707 88.0386 39.3653C88.0386 39.7671 87.1641 39.4598 87.1641 40.8071V45.416C87.1641 46.1487 87.3532 49.8123 83.0278 49.8123C79.1279 49.8123 78.3716 47.6142 78.3716 45.3215V40.3107C78.3716 39.4362 77.1662 39.7907 77.1662 39.318C77.1662 39.2235 77.4262 39.1762 77.4971 39.1762C77.8752 39.1762 78.2534 39.2235 78.6552 39.2235C79.1279 39.2235 79.6007 39.1762 80.0734 39.1762C80.1443 39.1762 80.5461 39.1526 80.5461 39.318C80.5461 39.7198 79.5534 39.318 79.5534 40.3816V45.7469H79.5297ZM93.6875 42.1307C93.6875 39.0344 91.8912 39.9089 91.8912 39.3416C91.8912 39.2471 92.0331 39.1998 92.104 39.1998C92.3403 39.1998 92.5767 39.2471 92.813 39.2471C93.0258 39.2471 93.2857 39.1998 93.4985 39.1998C93.6639 39.1998 93.8057 39.4362 93.8766 39.5307L100.991 47.4487C101.086 47.5432 101.133 47.6142 101.18 47.6142C101.204 47.6142 101.227 47.5669 101.227 47.4487V41.2325C101.227 39.2707 99.5729 39.838 99.5729 39.3416C99.5729 39.2471 99.6438 39.1998 99.7383 39.1998C100.187 39.1998 100.613 39.2471 101.086 39.2471C101.582 39.2471 102.22 39.1998 102.598 39.1998C102.693 39.1998 102.74 39.2471 102.74 39.3416C102.74 39.7198 101.866 39.4598 101.866 40.5471V49.1741C101.866 49.5996 101.842 49.8123 101.724 49.8123C101.629 49.8123 101.464 49.7414 101.156 49.3868L94.7512 42.1779C94.7275 42.1543 94.5384 41.8943 94.4439 41.8943C94.373 41.8943 94.3494 41.9416 94.3494 42.2252V48.2996C94.3494 49.6468 95.6493 49.1268 95.6493 49.5286C95.6493 49.5996 95.6257 49.7177 95.4839 49.7177C95.1293 49.7177 94.7039 49.6705 93.9712 49.6705C93.4512 49.6705 92.6712 49.7177 92.5767 49.7177C92.3876 49.7177 92.3876 49.6232 92.3876 49.5523C92.3876 49.0323 93.6875 49.6941 93.6875 47.6142V42.1307ZM108.767 40.4762C108.744 39.3889 107.562 39.6962 107.562 39.3653C107.562 39.2235 107.585 39.1998 107.704 39.1998C108.247 39.1998 108.791 39.2471 109.334 39.2471C109.783 39.2471 110.256 39.1998 110.705 39.1998C110.942 39.1998 110.989 39.2235 110.989 39.3416C110.989 39.6962 109.925 39.3653 109.925 40.4762V48.465C109.925 49.4814 111.249 49.1268 111.249 49.5759C111.249 49.6941 111.202 49.7177 110.965 49.7177C110.611 49.7177 109.973 49.6705 109.334 49.6705C108.436 49.6705 108.105 49.7177 107.916 49.7177C107.656 49.7177 107.609 49.6468 107.609 49.505C107.609 49.0796 108.767 49.5523 108.767 48.0869V40.4762ZM115.929 40.3343C115.551 39.4362 114.771 39.7198 114.771 39.3889C114.771 39.2471 114.842 39.1762 114.983 39.1762C115.456 39.1762 115.905 39.2235 116.354 39.2235C116.756 39.2235 117.323 39.1762 117.536 39.1762C117.631 39.1762 117.749 39.2471 117.749 39.318C117.772 39.5307 117.134 39.5544 117.134 40.0744C117.134 40.2871 117.205 40.5234 117.276 40.6652L119.876 46.8105C120.207 47.5905 120.301 47.9451 120.467 47.9451C120.609 47.9451 120.656 47.7087 120.727 47.5196L123.327 41.138C123.421 40.9016 123.587 40.4289 123.539 40.1216C123.539 39.4362 122.594 39.7198 122.594 39.3653C122.594 39.2235 122.665 39.1762 122.807 39.1762C123.138 39.1762 123.469 39.2235 123.776 39.2235C124.485 39.2235 124.721 39.1762 124.934 39.1762C125.099 39.1762 125.194 39.2471 125.194 39.3653C125.194 39.6962 124.769 39.318 124.367 40.3343L120.656 49.1032C120.49 49.4814 120.396 49.9777 120.16 49.9777C119.923 49.9777 119.734 49.3632 119.616 49.0323L115.929 40.3343ZM145.781 44.3288C146.821 43.9033 147.672 42.9106 147.672 41.7525C147.672 38.8926 144.386 39.1762 144.15 39.1762C143.37 39.1762 142.519 39.2235 141.668 39.2235C140.912 39.2235 140.983 39.1762 140.723 39.1762C140.534 39.1762 140.415 39.2707 140.415 39.3416C140.415 39.838 141.692 39.2471 141.692 40.6652V48.2287C141.692 49.3632 140.604 49.1505 140.604 49.5286C140.604 49.6232 140.675 49.6941 140.746 49.6941C141.314 49.6941 141.881 49.6468 142.448 49.6468C143.677 49.6468 144.032 49.6941 144.15 49.6941C144.268 49.6941 144.41 49.7177 144.41 49.5759C144.41 49.0559 142.85 49.5286 142.85 48.2523V45.1088C142.85 44.9669 142.755 44.6833 143.252 44.6833C144.93 44.6833 144.693 44.6361 145.237 45.4633L146.892 48.0632C147.459 48.9141 148.05 49.6705 149.137 49.6705C149.279 49.6705 150.106 49.6705 150.106 49.4814C150.106 49.1268 149.373 49.6705 148.31 48.0396L145.781 44.3288ZM142.85 40.2162C142.85 39.6253 143.157 39.6725 143.701 39.6725C145.166 39.6725 146.561 40.2871 146.561 42.107C146.561 43.9506 145.119 44.2342 144.481 44.2342C143.772 44.2342 142.85 44.3051 142.85 44.0215V40.2162ZM152.966 47.0705C152.919 46.7633 152.99 46.5978 153.131 46.5978C153.344 46.5978 153.344 46.7869 153.415 47.0942C153.604 47.7796 154.479 49.3396 156.535 49.3396C157.953 49.3396 159.348 48.5596 159.348 46.976C159.348 44.1161 153.273 45.7233 153.273 41.8234C153.273 39.9325 154.857 39.0107 156.582 39.0107C158.402 39.0107 158.899 39.5544 159.111 39.5544C159.253 39.5544 159.277 39.3889 159.419 39.3889C159.513 39.3889 159.584 39.4362 159.584 39.6016L159.797 41.6343C159.82 41.7525 159.773 41.847 159.631 41.847C159.466 41.847 159.371 41.5398 159.324 41.398C158.875 40.1216 157.788 39.4598 156.464 39.4598C155.282 39.4598 154.03 40.0271 154.03 41.398C154.03 44.187 160.104 42.5561 160.104 46.6687C160.104 47.9214 159.229 49.7886 155.826 49.7886C154.715 49.7886 153.368 49.245 153.297 48.9614L152.966 47.0705ZM165.8 40.4762C165.777 39.3889 164.595 39.6962 164.595 39.3653C164.595 39.2235 164.618 39.1998 164.737 39.1998C165.28 39.1998 165.824 39.2471 166.367 39.2471C166.817 39.2471 167.289 39.1998 167.762 39.1998C167.998 39.1998 168.046 39.2235 168.046 39.3416C168.046 39.6962 166.982 39.3653 166.982 40.4762V48.465C166.982 49.4814 168.306 49.1268 168.306 49.5759C168.306 49.6941 168.258 49.7177 167.998 49.7177C167.644 49.7177 167.006 49.6705 166.367 49.6705C165.469 49.6705 165.138 49.7177 164.949 49.7177C164.689 49.7177 164.642 49.6468 164.642 49.505C164.642 49.0796 165.8 49.5523 165.8 48.0869V40.4762ZM176.082 40.6889C176.082 40.5707 176.153 40.0271 175.94 40.0034H173.505C172.584 40.0034 172.56 40.2162 172.276 41.0434C172.229 41.1852 172.229 41.3743 172.016 41.3743C171.922 41.3743 171.875 41.2798 171.875 41.1852L172.04 39.7435C172.064 39.5544 172.04 39.1762 172.3 39.1762C173.458 39.1762 174.616 39.2235 176.531 39.2235C179.225 39.2235 180.596 39.1762 180.903 39.1762C181.258 39.1762 181.329 39.2707 181.352 39.6016L181.423 40.7834C181.447 40.9252 181.447 41.1143 181.258 41.1143C180.714 41.1143 181.518 39.9798 179.982 39.9798H177.854C177.193 39.9798 177.264 39.9089 177.264 40.7125V48.2996C177.264 49.5523 178.469 49.0559 178.469 49.5286C178.469 49.5759 178.493 49.7177 178.327 49.7177C177.973 49.7177 177.547 49.6705 177.122 49.6705C175.467 49.6705 175.184 49.7177 175.089 49.7177C174.947 49.7177 174.9 49.6705 174.9 49.5286C174.9 49.1741 176.082 49.3159 176.082 48.4178V40.6889ZM185.3 40.1216C184.921 39.4835 184.189 39.6725 184.189 39.4126C184.189 39.318 184.283 39.1998 184.378 39.1998C184.78 39.1998 185.063 39.2471 186.08 39.2471C186.576 39.2471 186.978 39.1998 187.12 39.1998C187.214 39.1998 187.403 39.2235 187.403 39.3416C187.403 39.6016 186.718 39.6016 186.718 40.0507C186.718 40.2871 186.883 40.5234 186.978 40.6652L188.774 43.5488C188.892 43.7379 188.987 43.8088 189.058 43.8088C189.129 43.8088 189.223 43.7143 189.341 43.5015L190.878 41.0198C190.972 40.8543 191.185 40.5943 191.185 40.1925C191.185 39.4598 190.074 39.7671 190.074 39.4126C190.074 39.2235 190.216 39.1998 190.381 39.1998C190.736 39.1998 191.114 39.2471 191.469 39.2471C191.894 39.2471 192.343 39.1998 192.769 39.1998C192.863 39.1998 192.934 39.2944 192.934 39.3653C192.934 39.5307 192.674 39.6016 192.579 39.6489C192.178 39.8853 191.989 40.3107 191.752 40.6652L189.672 43.9033C189.436 44.2815 189.318 44.3524 189.318 44.5651V48.205C189.318 49.505 190.547 49.0796 190.547 49.5523C190.547 49.6941 190.405 49.6941 190.216 49.6941C189.98 49.6941 189.129 49.6468 188.585 49.6468C187.923 49.6468 187.38 49.6941 187.238 49.6941C187.096 49.6941 187.001 49.6705 187.001 49.505C187.001 49.0796 188.16 49.4814 188.16 48.4178V44.8251C188.16 44.5415 187.947 44.2579 187.805 44.0688L185.3 40.1216ZM130.985 43.4306C130.985 43.9506 130.961 43.9506 131.552 43.9506H133.159C134.696 43.9506 134.317 42.7452 134.648 42.7452C134.766 42.7452 134.814 42.9106 134.814 43.0288C134.814 43.5488 134.79 44.0688 134.79 44.5415C134.79 44.9197 134.814 45.3215 134.814 45.7233C134.814 45.8651 134.766 45.9124 134.648 45.9124C134.199 45.9124 134.696 44.6124 133.443 44.6124H131.245C130.937 44.6124 130.985 44.8724 130.985 45.0851V47.8269C130.985 48.7014 130.867 49.0559 132.119 49.0559C135.546 49.0559 136.043 47.5196 136.256 47.5196C136.35 47.5196 136.374 47.6614 136.374 47.7087C136.374 48.2287 135.996 48.7487 135.617 49.1505C135.145 49.6705 134.814 49.6468 134.176 49.6468C133.041 49.6468 131.93 49.5523 130.796 49.5996C130.205 49.6232 129.567 49.6468 128.976 49.6468C128.834 49.6468 128.763 49.6232 128.763 49.505C128.787 49.3396 128.952 49.3632 129.425 49.1268C129.803 48.9378 129.85 48.5359 129.85 47.8269V41.0198C129.85 40.3343 129.85 39.6253 129.047 39.5071C128.928 39.4835 128.598 39.4598 128.598 39.2944C128.598 39.1762 128.692 39.1053 129.118 39.1053C131.93 39.1053 132.687 39.1526 133.325 39.1526C133.632 39.1526 134.979 39.1053 135.452 39.1053C135.57 39.1053 135.594 39.2471 135.594 39.4362C135.594 41.0907 135.381 41.2089 135.286 41.2089C134.932 41.2089 135.168 40.4998 134.932 40.1453C134.554 39.6253 133.017 39.7198 132.427 39.7198C131.008 39.7198 131.032 39.6725 131.032 40.6652L130.985 43.4306ZM139.919 32.4873C147.932 32.4873 153.486 27.2638 153.486 19.204C153.486 11.7824 147.861 6.48798 140.534 6.48798C133.159 6.48798 127.368 11.9006 127.368 19.3694C127.345 26.9565 132.119 32.4873 139.919 32.4873ZM139.446 7.66976C146.443 7.66976 150.862 14.0278 150.862 20.5512C150.862 27.1929 146.655 31.3764 141.408 31.3764C134.294 31.3764 129.945 24.9475 129.945 18.3058C129.968 12.6569 133.419 7.66976 139.446 7.66976ZM167.596 18.8967C170.055 17.9277 171.993 15.5877 171.993 12.8696C171.993 6.13344 164.264 6.84251 163.72 6.84251C161.9 6.84251 159.915 6.98433 157.906 6.98433C156.133 6.98433 156.299 6.84251 155.684 6.84251C155.259 6.84251 154.999 7.05523 154.999 7.26796C154.999 8.44974 158 7.0316 158 10.3642V28.091C158 30.7382 155.448 30.2655 155.448 31.14C155.448 31.3528 155.59 31.5182 155.802 31.5182C157.126 31.5182 158.449 31.3764 159.773 31.3764C162.657 31.3764 163.46 31.5182 163.791 31.5182C164.075 31.5182 164.382 31.5891 164.382 31.2346C164.382 30.0528 160.766 31.14 160.766 28.1147V20.764C160.766 20.4094 160.553 19.7949 161.664 19.7949C165.587 19.7949 165.044 19.7003 166.32 21.6385L170.196 27.7601C171.52 29.7455 172.891 31.5419 175.42 31.5419C175.727 31.5419 178.493 31.5419 178.493 31.1164C178.493 30.2655 175.964 31.5655 173.458 27.7365L167.596 18.8967ZM160.718 9.27699C160.718 7.92976 161.451 7.97703 162.704 7.97703C166.131 7.97703 169.369 9.39517 169.369 13.6496C169.369 17.9749 166.013 18.5895 164.524 18.5895C162.893 18.5895 160.718 18.7549 160.718 18.0931V9.27699ZM177.76 9.04064C176.862 7.52795 175.136 7.95339 175.136 7.3625C175.136 7.12614 175.349 6.84251 175.585 6.84251C176.531 6.84251 177.193 6.98433 179.556 6.98433C180.714 6.98433 181.636 6.84251 181.991 6.84251C182.227 6.84251 182.652 6.88978 182.652 7.19705C182.652 7.78794 181.022 7.81158 181.022 8.82791C181.022 9.39517 181.447 9.93879 181.636 10.2461L185.843 16.9822C186.127 17.4077 186.34 17.6204 186.529 17.6204C186.694 17.6204 186.907 17.384 187.191 16.9113L190.783 11.0969C191.019 10.7188 191.516 10.1279 191.516 9.18245C191.516 7.48068 188.916 8.21338 188.916 7.3625C188.916 6.91342 189.27 6.84251 189.649 6.84251C190.476 6.84251 191.35 6.98433 192.178 6.98433C193.194 6.98433 194.187 6.84251 195.203 6.84251C195.416 6.84251 195.581 7.07887 195.581 7.26796C195.581 7.64613 194.99 7.78794 194.754 7.92976C193.809 8.49701 193.359 9.46608 192.816 10.3406L187.947 17.9513C187.38 18.8258 187.12 18.9913 187.12 19.5113V28.0438C187.12 31.0691 189.98 30.1001 189.98 31.1873C189.98 31.4946 189.672 31.5419 189.176 31.5419C188.656 31.5419 186.623 31.4 185.347 31.4C183.787 31.4 182.534 31.5419 182.227 31.5419C181.92 31.5419 181.707 31.5182 181.707 31.1164C181.707 30.1473 184.378 31.0455 184.378 28.5638V20.1258C184.378 19.464 183.858 18.7549 183.574 18.3531L177.76 9.04064ZM123.374 28.3038C123.539 31.2346 126.116 29.9346 126.116 31.1637C126.116 31.5182 125.667 31.5182 125.289 31.5182C124.627 31.5182 123.398 31.3528 122.027 31.3528C120.963 31.3528 119.829 31.5182 119.001 31.5182C118.694 31.5182 118.623 31.3528 118.623 31.211C118.623 30.171 120.821 30.9273 120.774 28.351L119.829 14.855C119.829 13.9805 119.663 13.5078 119.451 13.5078C119.214 13.5078 118.883 13.8151 118.529 14.5478L111.32 29.2492C111.154 29.5564 110.587 30.9982 110.233 30.9982C109.878 30.9982 109.642 30.2419 109.523 29.9819L102.102 14.4532C101.984 14.1696 101.818 14.075 101.676 14.075C101.582 14.075 101.464 14.2405 101.44 14.595L100.424 26.8147C100.258 31.4473 103.544 29.911 103.544 31.1637C103.544 31.5182 103.165 31.5419 102.669 31.5419C102.22 31.5419 100.66 31.3764 99.6201 31.3764C97.8002 31.3764 97.2093 31.5419 96.5475 31.5419C96.2875 31.5419 96.1929 31.3764 96.1929 31.1164C96.1929 29.9346 98.4147 31.3528 98.6511 27.7365C99.0765 22.0403 99.5019 18.3531 99.5019 14.6659C99.5019 6.46434 96.8075 8.42611 96.8075 7.24432C96.8075 6.93706 97.0911 6.86615 97.3984 6.86615C98.0129 6.86615 98.6511 7.00796 99.3129 7.00796C99.9274 7.00796 100.566 6.86615 101.18 6.86615C101.676 6.86615 101.747 7.45704 101.913 7.83521L110.233 25.562C110.611 26.2947 110.753 26.602 111.013 26.602C111.178 26.602 111.533 25.8693 112.1 24.7111L120.42 8.04793C120.632 7.66976 120.892 6.81888 121.318 6.86615C121.672 6.86615 122.783 7.00796 122.949 7.00796C123.752 7.00796 124.059 6.86615 124.627 6.86615C124.839 6.86615 124.981 7.07887 124.981 7.29159C124.981 8.40247 122.192 6.91342 122.334 11.0497L123.374 28.3038Z" fill="#004990"/>
<path d="M81.0424 17.0059C81.0424 18.1877 80.9715 18.1877 82.366 18.1877H86.1241C89.7404 18.1877 88.795 15.3986 89.6222 15.3986C89.9058 15.3986 90.0004 15.7768 90.0004 16.0604C90.0004 17.2895 89.9531 18.4713 89.9531 19.5585C89.9531 20.4567 90.0004 21.3785 90.0004 22.3239C90.0004 22.6312 89.8586 22.773 89.6222 22.773C88.5586 22.773 89.7168 19.7003 86.8096 19.7003H81.657C80.9243 19.7003 81.0424 20.2912 81.0424 20.8112V27.2401C81.0424 29.2965 80.7588 30.1473 83.6896 30.1473C91.7022 30.1473 92.8839 26.5547 93.333 26.5547C93.5694 26.5547 93.6166 26.9092 93.6166 26.9802C93.6166 28.2328 92.7185 29.4619 91.8912 30.3601C90.7804 31.6364 90.0004 31.5655 88.4877 31.5655C85.8405 31.5655 83.2169 31.3528 80.5697 31.4237C79.1752 31.4709 77.7334 31.5655 76.3389 31.5655C76.0317 31.5655 75.8189 31.4946 75.8189 31.2109C75.8898 30.7855 76.2444 30.8564 77.3553 30.2892C78.2534 29.8637 78.3243 28.8946 78.3243 27.2638V11.3569C78.3243 9.79698 78.3243 8.11884 76.4335 7.83521C76.1498 7.76431 75.3935 7.6934 75.3935 7.29159C75.3935 7.00796 75.6062 6.86615 76.5989 6.86615C83.146 6.86615 84.966 7.00796 86.4314 7.00796C87.1168 7.00796 90.3076 6.86615 91.3949 6.86615C91.6785 6.86615 91.7494 7.22068 91.7494 7.62249C91.7494 11.4988 91.2531 11.7824 91.064 11.7824C90.2131 11.7824 90.7804 10.1042 90.2131 9.30063C89.3149 8.11884 85.6987 8.33156 84.3278 8.33156C80.9952 8.33156 81.0661 8.18975 81.0661 10.5297L81.0424 17.0059Z" fill="#004990"/>
<path d="M10.2298 4.85712L8.48072 6.7007C8.45708 8.0243 8.43344 9.67881 8.43344 10.5061C8.26799 23.4821 9.14252 43.667 30.2729 53.4285C41.4526 48.2523 49.8905 39.3653 52.1123 25.562C53.4122 17.5731 52.6323 9.98607 52.6323 4.88075L10.2298 4.85712ZM30.3438 51.9395C7.48802 41.3507 10.2298 17.715 10.2298 6.67707L50.7178 6.7007C50.6941 17.7622 53.2468 41.398 30.3438 51.9395Z" fill="#004990"/>
<path d="M21.7167 33.8582C20.0859 35.5836 18.5023 37.309 17.9586 37.8762C17.8405 38.018 17.8168 38.1362 17.8877 38.2308C18.0059 38.3489 18.1477 38.5144 18.2186 38.5144C18.3132 38.538 18.3841 38.5853 18.5732 38.3962C18.6441 38.3253 20.4168 36.5999 22.544 34.5672C22.544 34.5672 22.3313 34.4491 22.1422 34.3072C21.9294 34.1418 21.7167 33.8582 21.7167 33.8582ZM22.804 33.4091C23.2058 33.8109 23.8912 34.1891 23.8912 34.1891L23.513 34.5436C23.3712 34.6854 22.8512 34.4491 22.3549 34C21.8585 33.5509 21.5513 33.0545 21.6931 32.9127L22.0949 32.5346C22.0949 32.5346 22.3785 33.0073 22.804 33.4091ZM41.2871 37.8526C41.618 37.5217 41.6417 37.2144 41.6417 37.2144L42.0198 37.4035C42.1144 37.5217 42.0435 37.9471 41.6889 38.278C41.358 38.6089 40.8853 38.7271 40.7671 38.6089L40.578 38.2071C40.578 38.2071 40.9326 38.2071 41.2871 37.8526ZM40.7199 37.2617C40.9326 37.0726 41.0035 36.8126 41.0035 36.8126L41.2398 36.9781C41.3107 37.049 41.2398 37.3326 41.0035 37.569C40.7671 37.8053 40.4126 37.8999 40.3417 37.8053L40.1999 37.5453C40.2235 37.5453 40.5071 37.4744 40.7199 37.2617ZM41.8544 18.8022L41.4289 19.1804C40.838 19.4167 39.4908 18.3768 38.4508 17.455C37.7418 16.8404 36.3236 15.2805 36.7254 14.6423L36.9145 14.4532C36.7963 14.3823 36.6781 14.3114 36.5836 14.2641C36.4654 14.1932 36.3 14.1696 36.1345 14.1696C35.9691 14.1932 35.8273 14.2641 35.8273 14.406C35.8036 14.6896 35.9691 15.0678 36.1818 15.4932C36.3945 15.9423 37.2927 17.2186 39.0417 18.6131C39.8453 19.2513 40.7671 19.6531 41.4526 19.8894C41.5707 19.9367 41.9962 20.0313 42.1853 19.8422C42.3744 19.6531 42.1616 19.3222 42.0198 19.0149C41.9725 18.9676 41.9253 18.8967 41.8544 18.8022ZM24.7657 19.8658C22.8749 17.9986 22.1658 17.5495 21.3149 17.195C20.8658 17.0059 20.4404 16.8641 20.2986 16.9113C19.9204 17.0532 19.3768 17.2895 19.0223 17.5968C18.7859 17.8095 18.7859 17.9277 18.9277 17.9986C19.0695 18.0695 20.015 18.2822 20.8895 18.7549C22.4258 19.5585 25.2857 21.5676 31.5256 28.0201C34.6927 31.3055 39.6799 36.3636 39.6799 36.3636L39.7981 36.269C39.7981 36.269 32.5419 28.1147 26.8693 22.0876C26.113 21.2367 25.4039 20.504 24.7657 19.8658ZM23.4894 12.1842V12.6096C23.4894 13.0351 23.8912 16.5804 25.9239 19.1567C27.6966 21.3785 33.0382 27.7365 33.8891 28.7528C34.6927 29.6983 39.9399 35.8436 40.6017 36.6235L40.6726 36.6944C40.6726 36.6944 40.6017 36.8599 40.4362 36.9781C40.2708 37.1199 40.0817 37.1199 40.0817 37.1199L39.9162 36.9544C39.7508 36.7654 30.6983 27.6892 29.8238 26.8383C28.9493 25.9875 24.2694 21.473 22.3549 20.244C20.6768 19.1804 19.9204 18.5895 18.1005 18.424C18.1005 18.424 16.8005 18.3768 16.706 18.3058C16.6823 18.3058 16.706 18.2349 16.7532 18.2349C17.5568 17.904 19.3295 16.8877 20.7004 15.5641C22.6622 13.7205 23.2767 12.4206 23.3712 12.2078C23.3949 12.1606 23.4894 12.1606 23.4894 12.1842Z" fill="#004990"/>
<path d="M19.755 14.9496C19.9677 14.7605 20.724 14.0041 21.3622 13.2478C22.024 12.4678 22.3785 11.7588 22.3785 11.7588C22.3785 11.7588 22.4731 11.546 22.4731 11.3806C22.4494 11.2624 22.3313 11.2151 22.284 11.1679C22.2131 11.0969 20.5822 11.8533 19.8495 12.5151C19.755 12.586 19.6131 12.9169 19.5422 13.1769C19.4713 13.3896 20.015 13.9569 19.6604 14.8314C19.6131 14.9496 19.7313 14.9732 19.755 14.9496ZM19.1877 15.9895C18.3605 16.675 17.3205 17.3131 16.4223 17.6913C15.8551 17.9277 15.0278 17.6677 15.6187 16.5568C15.8078 16.2259 16.0442 15.8005 16.3987 15.3514C17.4859 13.9096 19.4477 12.1133 21.3386 11.0969C21.9058 10.7897 22.4494 10.577 22.6858 10.6006C23.1585 10.6242 23.1821 11.026 23.0876 11.4042C22.8749 12.2078 21.504 14.0514 19.1877 15.9895ZM29.682 27.3583C29.3038 27.7129 23.4185 33.3618 23.4185 33.3618C23.513 33.4564 23.7494 33.6218 23.7494 33.6218C23.7494 33.6218 29.162 28.4219 29.5638 28.0438C29.682 27.9492 29.9183 27.7129 29.9892 27.642L29.682 27.3583ZM40.7671 20.4094C40.838 20.4094 40.9326 20.3858 41.0035 20.3858C41.098 20.3858 41.2162 20.3622 41.2162 20.3385C41.2635 20.2912 41.2871 20.244 41.1926 20.244C40.9089 20.244 40.4126 20.1022 39.8453 19.8185C39.4908 19.9131 38.9235 20.0549 38.2617 20.3622C37.4109 20.7403 35.5436 21.8512 31.7383 25.3493L32.0455 25.7038C33.3691 24.522 35.1182 22.9621 36.0872 22.3239C37.789 21.213 39.0181 20.7167 39.8453 20.5276C40.129 20.4567 40.4835 20.4331 40.7671 20.4094ZM37.0563 17.6204C36.0163 16.5332 35.6854 15.7532 35.52 15.1859C35.52 15.1623 35.4964 15.1387 35.4964 15.1387C35.4964 15.1387 35.4491 15.115 35.4255 15.1623C35.4255 15.1859 35.4018 15.2096 35.4018 15.2332C35.3073 16.3677 35.4018 16.8404 34.9291 17.9749C34.5273 18.944 33.8419 20.1494 32.8728 21.2603C32.3292 21.8985 31.3837 22.9621 30.5092 23.9548L31.1237 24.6639C31.171 24.593 31.3837 24.4039 31.5965 24.1675C34.5037 21.0712 37.0327 19.1331 37.9308 18.4713C37.6472 18.1877 37.3399 17.904 37.0563 17.6204ZM28.4529 26.2475C27.2239 27.642 25.9948 28.9892 25.6403 29.391C25.333 29.7219 22.6622 32.6055 22.6622 32.6055C22.6622 32.6055 22.7331 32.7236 22.804 32.8182C22.8985 32.9127 23.0403 33.0309 23.0403 33.0309C23.0403 33.0309 28.6656 27.2638 29.0911 26.8383L28.4529 26.2475ZM38.0963 13.8151V13.6969C37.8127 13.626 37.5763 13.626 37.4581 13.7442C37.08 14.146 37.9072 15.4932 39.2781 16.7695C40.6489 18.0459 42.0671 18.7549 42.4453 18.3531C42.5871 18.1877 42.5398 17.8804 42.3507 17.4786C40.3417 17.715 38.0963 15.0914 38.0963 13.8151Z" fill="#004990"/>
<path d="M43.7452 16.155C43.6743 16.2968 43.3671 16.675 42.8943 16.8877C42.3744 17.1004 41.7126 17.1477 41.358 17.0295C39.7744 16.5332 38.829 14.9259 38.829 14.9259C37.5763 12.9169 39.2544 12.0424 39.3963 12.0187C39.3963 12.0187 39.2308 12.6805 39.3253 13.1296C39.4199 13.5314 39.6562 13.8387 39.7272 14.0751C39.8926 14.5241 39.6799 14.8314 39.5617 14.9732C39.5144 15.0441 39.6562 14.9968 39.6799 14.9968C39.7035 14.9732 39.7272 14.9496 39.7744 14.9259C40.0108 14.7605 40.2235 14.4769 40.1526 14.2169C40.0108 13.6023 39.5617 13.2005 40.0817 11.9242C40.4126 11.1442 41.1453 10.3642 41.2162 10.317C41.3344 10.2461 41.4053 10.1279 41.4053 10.2224C41.4053 10.317 41.5471 10.8842 41.618 11.2624C41.6889 11.6406 42.1144 12.3969 42.0198 13.4605C41.9253 14.5241 40.1999 15.6823 39.9635 15.7532C39.8926 15.7768 39.7744 15.8477 39.7272 15.8714C39.6562 15.9423 39.7508 15.9423 39.7981 15.9423C39.8926 15.9659 40.6253 15.7768 41.2162 15.375C41.7126 15.0205 42.1853 14.5241 42.3507 14.2169C42.658 13.6496 42.7998 12.8696 42.8234 12.7987C42.8707 12.6805 42.918 12.6805 42.9416 12.7515C42.9653 12.8224 43.0834 13.2714 43.1307 13.5078C43.1543 13.6496 43.2252 14.0041 43.2252 14.406C43.2252 15.2096 42.9889 15.5641 42.5398 15.9186C42.2798 16.1314 41.9725 16.2023 41.6653 16.2259L41.5471 16.2495C41.4998 16.2495 41.4526 16.2732 41.5471 16.3204C41.5707 16.3441 41.618 16.3441 41.6653 16.3677C41.9253 16.4859 42.4925 16.4623 42.8471 16.2495C43.0125 16.155 43.2252 15.9895 43.5325 15.7059C43.6507 15.5877 43.7925 15.3987 43.8161 15.4696C43.8634 15.4932 43.9107 15.8477 43.7452 16.155ZM44.2889 14.335C44.0998 14.5478 43.7689 15.0678 43.5561 15.2568C43.7689 15.0678 43.887 14.595 43.6507 13.3896C43.4852 12.5387 43.3907 12.2551 43.2725 11.9715C43.2016 11.806 43.1071 11.8533 42.9889 11.9715C42.8707 12.0897 42.6343 12.5387 42.6107 12.5624C42.5871 12.6569 42.6107 12.5624 42.2089 11.3333C41.9489 10.5533 41.8544 10.0097 41.8544 9.72608C41.8544 9.58426 41.878 9.41881 41.878 9.32427C41.878 9.22973 41.8307 9.22973 41.5707 9.34791C41.4289 9.39518 40.389 10.1279 39.9399 11.2388C39.6799 11.8769 39.6799 12.3969 39.6326 12.0897C39.5617 11.4751 39.5617 11.4751 39.5144 11.4988C39.1599 11.6169 37.9545 12.1606 37.9545 13.8151C37.9545 15.2096 40.578 18.1877 42.7289 17.5259C42.7289 17.5259 44.3598 17.2186 44.3834 15.7532C44.4543 14.2641 44.2889 14.335 44.2889 14.335Z" fill="#004990"/>
</svg>
