<svg width="245" height="49" viewBox="0 0 245 49" fill="none" xmlns="http://www.w3.org/2000/svg">
<path d="M177.13 44.1643C176.633 44.1659 176.136 44.1151 175.65 44.0127C175.248 43.9368 174.857 43.8155 174.483 43.6512L174.962 42.077C175.282 42.1889 175.609 42.2823 175.941 42.3569C176.321 42.4626 176.713 42.5137 177.107 42.5085C177.572 42.5679 178.044 42.475 178.452 42.2438C178.86 42.0125 179.181 41.6554 179.369 41.2258C179.753 40.1733 179.931 39.057 179.894 37.9375V13.3101H181.853V38.0891C181.957 39.705 181.549 41.3125 180.687 42.6834C180.258 43.1993 179.71 43.6035 179.091 43.8614C178.471 44.1193 177.799 44.2232 177.13 44.1643Z" fill="black"/>
<path d="M180.885 8.24939C180.45 8.24506 180.032 8.07396 179.719 7.7713C179.554 7.62493 179.422 7.44537 179.332 7.2444C179.242 7.04344 179.195 6.82561 179.194 6.60524C179.181 6.3642 179.222 6.12328 179.312 5.89958C179.403 5.67588 179.542 5.4749 179.719 5.3109C180.066 5.01745 180.506 4.85645 180.961 4.85645C181.416 4.85645 181.856 5.01745 182.203 5.3109C182.38 5.4749 182.519 5.67588 182.609 5.89958C182.7 6.12328 182.74 6.3642 182.728 6.60524C182.725 6.82526 182.677 7.0424 182.587 7.24306C182.497 7.44372 182.366 7.62356 182.203 7.7713C181.86 8.08699 181.409 8.25826 180.943 8.24939H180.885Z" fill="black"/>
<path fill-rule="evenodd" clip-rule="evenodd" d="M119.514 5.50896V34.2059H121.52V21.8806H126.919C129.589 22.0421 132.237 21.3165 134.452 19.8166C135.377 19.0627 136.106 18.0964 136.577 17C137.048 15.9037 137.247 14.7097 137.157 13.5198C137.193 12.2343 136.946 10.9565 136.434 9.77677C135.98 8.78654 135.277 7.93085 134.393 7.29304C133.412 6.61641 132.3 6.15177 131.128 5.92874C129.685 5.63787 128.216 5.4972 126.744 5.50896H119.514ZM126.441 20.2131H121.52V7.21142H126.324C128.604 7.07545 130.878 7.55046 132.912 8.58738C134.382 9.48525 135.105 11.1411 135.105 13.5432C135.198 14.5028 135.052 15.4705 134.68 16.3598C134.307 17.2491 133.72 18.0322 132.971 18.6389C131.548 19.6883 129.379 20.2131 126.441 20.2131Z" fill="black"/>
<path d="M50.9729 34.2059V8.69231H42.3673V5.68385H63.2516V8.69231H54.6343V34.2059H50.9729Z" fill="black"/>
<path fill-rule="evenodd" clip-rule="evenodd" d="M73.7464 34.7307C72.3802 34.7424 71.0251 34.4849 69.7584 33.9728C68.5465 33.4761 67.4507 32.7336 66.5401 31.7922C65.5885 30.7866 64.8542 29.5958 64.3828 28.294C63.8377 26.8006 63.5728 25.2193 63.6016 23.6298C63.5781 22.0385 63.8509 20.4569 64.4062 18.9655C64.8912 17.6756 65.6152 16.4888 66.5401 15.4673C67.386 14.5374 68.414 13.7912 69.5602 13.2751C70.6589 12.7747 71.8511 12.5124 73.0584 12.5055C74.2908 12.4904 75.5132 12.7285 76.6499 13.2051C77.6846 13.6499 78.5967 14.3379 79.3085 15.2107C80.0477 16.1427 80.6018 17.2074 80.941 18.3475C81.3364 19.675 81.5252 21.0554 81.5007 22.4404V23.5481C81.4914 23.8621 81.4523 24.1744 81.3841 24.481H67.1348C67.1569 26.4742 67.9076 28.3904 69.2453 29.8682C69.8843 30.527 70.6547 31.0439 71.5065 31.3854C72.3583 31.7269 73.2724 31.8854 74.1895 31.8505C75.1457 31.8531 76.0956 31.6955 76.9997 31.3841C77.8549 31.0831 78.6757 30.6922 79.4484 30.218L80.7195 32.5502C79.7403 33.1564 78.7056 33.6679 77.6294 34.0777C76.3861 34.5318 75.0698 34.7532 73.7464 34.7307ZM78.4106 21.904H67.0906C67.1912 20.9507 67.4381 20.0185 67.8227 19.1404C68.1484 18.3753 68.6107 17.6758 69.187 17.0765C69.7073 16.5189 70.3337 16.0709 71.0294 15.7588C71.7133 15.4752 72.4463 15.3286 73.1867 15.3273C73.9147 15.287 74.642 15.4179 75.3103 15.7095C75.9786 16.0011 76.5692 16.4453 77.0347 17.0065C78.0465 18.4305 78.5328 20.1614 78.4106 21.904Z" fill="black"/>
<path d="M87.9836 33.9028C89.3528 34.4613 90.8193 34.7427 92.298 34.7307C93.4416 34.7554 94.5811 34.5858 95.6679 34.2293C96.5619 33.9386 97.3899 33.4751 98.105 32.865C98.7359 32.3109 99.2396 31.627 99.5817 30.8602C99.9238 30.0935 100.096 29.2618 100.087 28.4222C100.113 27.5428 99.9119 26.6716 99.5043 25.8919C99.1527 25.2188 98.6781 24.6176 98.105 24.1195C97.4695 23.6381 96.7711 23.2458 96.0294 22.9534L93.6973 22.0439L91.9365 21.3675C91.4108 21.1711 90.9067 20.9211 90.4323 20.6213C90.0245 20.3726 89.6682 20.048 89.3828 19.6651C89.1232 19.2885 88.9886 18.8397 88.998 18.3824C88.9971 17.9815 89.0796 17.5847 89.2402 17.2174C89.4007 16.85 89.636 16.5201 89.9309 16.2485C90.7555 15.5759 91.809 15.2498 92.8694 15.339C93.7548 15.3276 94.6328 15.5024 95.4464 15.852C96.2502 16.2139 97.0094 16.6678 97.7086 17.2047L99.411 14.9425C98.533 14.2341 97.5545 13.6603 96.5075 13.24C94.3563 12.4006 91.9835 12.3183 89.7793 13.0068C88.9274 13.2709 88.1352 13.6987 87.4472 14.2662C86.8316 14.7879 86.3414 15.4415 86.0129 16.1785C85.6798 16.9107 85.5087 17.7063 85.5115 18.5107C85.4728 19.3198 85.6499 20.1246 86.0246 20.8428C86.3763 21.5025 86.8422 22.0947 87.4005 22.5919C88.0202 23.0655 88.6982 23.4574 89.4178 23.758C90.1758 24.0961 90.9337 24.3877 91.68 24.6558L93.4291 25.3438C93.9689 25.5622 94.4847 25.8357 94.9683 26.1601C95.4203 26.4372 95.816 26.7972 96.1344 27.2212C96.4266 27.6414 96.5777 28.1437 96.5658 28.6555C96.5675 29.0966 96.4747 29.5329 96.2937 29.9352C96.1126 30.3375 95.8476 30.6963 95.5164 30.9876C94.6302 31.6846 93.5157 32.0255 92.3913 31.9438C91.2256 31.9701 90.0692 31.7309 89.0097 31.2441C88.0065 30.7472 87.0636 30.1368 86.1995 29.4251L84.4154 31.8155C85.4895 32.6918 86.6933 33.396 87.9836 33.9028Z" fill="black"/>
<path d="M110.804 34.7307C109.829 34.7623 108.858 34.5834 107.959 34.206C107.224 33.8908 106.579 33.3979 106.081 32.7717C105.58 32.1179 105.23 31.3613 105.055 30.5562C104.85 29.61 104.748 28.6442 104.752 27.676V16.0153H101.615V13.2634L104.927 13.0418L105.335 7.11822H108.367V13.0418H114.069V15.957H108.367V27.7226C108.304 28.7787 108.556 29.8296 109.09 30.7428C109.388 31.1225 109.777 31.4202 110.222 31.6079C110.667 31.7956 111.152 31.867 111.632 31.8155C112.026 31.8004 112.417 31.7417 112.798 31.6406C113.196 31.5383 113.586 31.4058 113.964 31.2442L114.664 33.9494C114.045 34.1635 113.414 34.3426 112.775 34.4858C112.13 34.6444 111.468 34.7266 110.804 34.7307Z" fill="black"/>
<path d="M143.209 34.2061V13.3101H144.865L145.04 17.1815H145.168C145.797 15.9595 146.665 14.8769 147.722 13.9981C148.671 13.2208 149.865 12.8074 151.092 12.832C151.459 12.8304 151.825 12.8577 152.188 12.9136C152.536 12.9863 152.873 13.1039 153.191 13.2635L152.748 15.0126C152.457 14.8806 152.151 14.7828 151.838 14.7211C151.506 14.6728 151.17 14.6533 150.835 14.6628C149.75 14.7168 148.714 15.1266 147.885 15.8288C146.631 16.9643 145.681 18.3954 145.121 19.9917V34.2061H143.209Z" fill="black"/>
<path fill-rule="evenodd" clip-rule="evenodd" d="M160.619 33.9871C161.747 34.481 162.966 34.7343 164.198 34.7308C165.433 34.7338 166.655 34.4838 167.789 33.9962C168.931 33.504 169.956 32.7769 170.798 31.8623C171.698 30.8634 172.395 29.699 172.85 28.434C173.379 26.937 173.636 25.3573 173.608 23.7697C173.629 22.1827 173.373 20.6042 172.85 19.1055C172.4 17.8171 171.703 16.6288 170.798 15.6073C169.956 14.6926 168.931 13.9655 167.789 13.4734C166.655 12.9857 165.433 12.7357 164.198 12.7387C162.966 12.7352 161.747 12.9885 160.619 13.4824C159.491 13.9763 158.478 14.7 157.645 15.6073C156.742 16.6285 156.049 17.8171 155.604 19.1055C155.072 20.6021 154.812 22.1816 154.834 23.7697C154.805 25.3584 155.066 26.9391 155.604 28.434C156.055 29.6984 156.748 30.8628 157.645 31.8623C158.478 32.7696 159.491 33.4932 160.619 33.9871ZM167.136 32.3637C166.222 32.8112 165.216 33.0388 164.198 33.0283C163.18 33.041 162.173 32.8133 161.259 32.3637C160.353 31.9067 159.558 31.2582 158.927 30.463C158.243 29.5917 157.722 28.6042 157.388 27.5478C156.995 26.3396 156.802 25.0752 156.817 23.8047C156.802 22.519 156.995 21.2393 157.388 20.015C157.726 18.9534 158.247 17.959 158.927 17.0765C159.555 16.2729 160.351 15.6162 161.259 15.1525C162.167 14.7084 163.164 14.4771 164.175 14.4762C165.197 14.4739 166.207 14.7072 167.125 15.1582C168.043 15.6091 168.845 16.2656 169.468 17.0765C170.152 17.9584 170.677 18.9528 171.019 20.015C171.409 21.2399 171.598 22.5196 171.579 23.8047C171.598 25.0746 171.409 26.3389 171.019 27.5478C170.681 28.6047 170.156 29.5922 169.468 30.463C168.843 31.263 168.046 31.9126 167.136 32.3637Z" fill="black"/>
<path fill-rule="evenodd" clip-rule="evenodd" d="M194.015 33.9961C195.209 34.4899 196.489 34.7397 197.781 34.7307C199.089 34.7502 200.387 34.5001 201.594 33.9961C202.54 33.5852 203.463 33.1219 204.358 32.6085L203.565 31.1276C202.789 31.7077 201.933 32.1712 201.023 32.5035C200.037 32.8435 198.999 33.0131 197.956 33.0049C196.843 33.0161 195.741 32.7853 194.726 32.3286C193.782 31.8852 192.943 31.2452 192.266 30.4512C191.557 29.6062 191.019 28.6321 190.68 27.5827C190.293 26.4082 190.088 25.1812 190.074 23.9446H205.092C205.149 23.6841 205.176 23.4182 205.174 23.1516V22.3704C205.338 19.8131 204.581 17.2816 203.04 15.234C202.324 14.3973 201.427 13.7346 200.417 13.2962C199.407 12.8578 198.31 12.6552 197.21 12.7037C196.044 12.7021 194.893 12.9611 193.84 13.4616C192.728 13.9846 191.732 14.7262 190.913 15.6422C190.015 16.6664 189.322 17.8541 188.872 19.1404C188.338 20.6364 188.078 22.2163 188.103 23.8046C188.078 25.3701 188.339 26.9269 188.872 28.399C189.333 29.6676 190.034 30.8356 190.936 31.8389C191.795 32.772 192.845 33.508 194.015 33.9961ZM203.39 22.452H190.074C190.165 21.2976 190.437 20.1645 190.878 19.0937C191.26 18.165 191.805 17.312 192.487 16.575C193.107 15.8996 193.857 15.3563 194.691 14.9775C195.501 14.625 196.374 14.4424 197.257 14.4411C198.107 14.4053 198.954 14.5654 199.732 14.9092C200.511 15.2529 201.2 15.771 201.746 16.4234C202.971 18.1842 203.551 20.3132 203.39 22.452Z" fill="black"/>
<path d="M218.642 34.7306C217.346 34.7443 216.061 34.4944 214.864 33.996C213.727 33.5033 212.705 32.7762 211.868 31.862C210.971 30.8687 210.289 29.7018 209.862 28.4338C209.356 26.9317 209.112 25.3542 209.139 23.7695C209.118 22.1796 209.387 20.5991 209.932 19.1053C210.386 17.8112 211.096 16.6215 212.019 15.6071C212.868 14.6918 213.899 13.9639 215.046 13.4699C216.192 12.9759 217.429 12.7268 218.677 12.7385C219.929 12.692 221.172 12.9607 222.292 13.5198C223.205 14.0093 224.055 14.6084 224.823 15.3039L223.657 16.6565C222.993 16.0252 222.243 15.4912 221.429 15.0707C220.582 14.6363 219.641 14.4161 218.689 14.4293C217.656 14.4317 216.637 14.6626 215.704 15.1056C214.781 15.5719 213.966 16.2274 213.314 17.0297C212.602 17.9041 212.053 18.8995 211.693 19.9682C211.295 21.1916 211.098 22.4714 211.11 23.7579C211.093 25.0267 211.278 26.2902 211.658 27.5009C211.976 28.5592 212.49 29.5481 213.174 30.4161C213.822 31.221 214.643 31.8705 215.576 32.3168C216.55 32.7692 217.615 32.9964 218.689 32.9815C219.751 32.994 220.801 32.7584 221.756 32.2935C222.671 31.8656 223.519 31.3079 224.275 30.6377L225.277 31.9903C224.369 32.7785 223.357 33.4377 222.269 33.9493C221.135 34.4822 219.895 34.7495 218.642 34.7306Z" fill="black"/>
<path d="M233.183 34.276C233.985 34.607 234.848 34.7621 235.714 34.7307C236.242 34.7208 236.766 34.6464 237.276 34.5092C237.897 34.358 238.508 34.1711 239.107 33.9495L238.582 32.3753C238.167 32.5596 237.738 32.7116 237.3 32.8301C236.868 32.96 236.421 33.0267 235.97 33.0283C235.362 33.0549 234.756 32.9433 234.198 32.7018C233.768 32.5016 233.4 32.187 233.137 31.7922C232.866 31.3653 232.68 30.8902 232.589 30.393C232.486 29.7961 232.435 29.1913 232.437 28.5856V15.0125H238.489V13.3101H232.437V7.25817H230.781L230.525 13.3101L227.213 13.4733V15.0125H230.478V28.4223C230.478 29.2833 230.56 30.1423 230.723 30.9877C230.854 31.7113 231.145 32.3966 231.574 32.9933C231.988 33.5558 232.543 33.9985 233.183 34.276Z" fill="black"/>
<path d="M6.73819 11.0687C6.31579 12.0657 6.09595 13.1367 6.09149 14.2195C6.09441 15.3042 6.31349 16.3774 6.73594 17.3765C7.15839 18.3756 7.77574 19.2804 8.5519 20.0382L15.1961 26.7445C15.184 26.8185 15.1764 26.8936 15.1735 26.9693C15.1564 27.4233 15.3108 27.8671 15.6062 28.2124C15.9445 28.547 16.4012 28.7348 16.8772 28.7348C17.3531 28.7348 17.8098 28.547 18.1482 28.2124C18.4864 27.8735 18.6764 27.4143 18.6764 26.9355C18.6764 26.4567 18.4864 25.9975 18.1482 25.6587C17.8016 25.3649 17.3571 25.2125 16.9032 25.2317C16.7258 25.2392 16.5521 25.2727 16.3872 25.33L9.79959 18.7322C8.60546 17.5363 7.93475 15.9153 7.93475 14.2253C7.93475 12.5353 8.60546 10.9144 9.79959 9.71845L10.2777 9.24036C11.0889 8.42829 12.1042 7.85017 13.2165 7.56695C14.3288 7.28374 15.497 7.30593 16.5978 7.63119C16.8328 7.71005 17.0895 7.69231 17.3115 7.58188C17.5335 7.47145 17.7025 7.27736 17.7813 7.04232C17.8602 6.80729 17.8425 6.55055 17.732 6.32859C17.6216 6.10663 17.4275 5.93763 17.1925 5.85877C15.7728 5.42861 14.2627 5.39347 12.8246 5.75712C11.3864 6.12076 10.0746 6.86945 9.02998 7.92271L8.5519 8.41246C7.77713 9.16883 7.1606 10.0718 6.73819 11.0687Z" fill="#EF516F"/>
<path d="M24.0899 14.0406C24.0444 14.0535 23.9982 14.0647 23.9516 14.074C23.6009 14.144 23.2373 14.1084 22.9069 13.9717C22.5764 13.835 22.2939 13.6033 22.0952 13.306C21.8964 13.0087 21.7903 12.6592 21.7903 12.3015C21.7903 11.9439 21.8964 11.5944 22.0952 11.2971C22.2939 10.9998 22.5764 10.7681 22.9069 10.6314C23.2373 10.4947 23.6009 10.4591 23.9516 10.5291C24.3023 10.5991 24.6243 10.7716 24.877 11.0247C25.2124 11.365 25.4004 11.8237 25.4004 12.3015C25.4004 12.4319 25.3864 12.5608 25.3593 12.6862L32.176 19.5136C32.9452 20.2766 33.5547 21.1851 33.9691 22.1861C34.3835 23.1871 34.5945 24.2606 34.5898 25.344C34.5945 26.4273 34.3835 27.5008 33.9691 28.5018C33.5547 29.5028 32.9452 30.4113 32.176 31.1743L31.698 31.6524C30.6496 32.7002 29.3382 33.4459 27.9018 33.8112C26.4653 34.1765 24.957 34.1477 23.5355 33.728C23.3409 33.6669 23.1717 33.5438 23.0538 33.3774C22.9358 33.211 22.8757 33.0106 22.8825 32.8068C22.8825 32.5614 22.9791 32.3259 23.1516 32.1513C23.324 31.9766 23.5583 31.877 23.8037 31.8739C23.8927 31.8628 23.9828 31.8628 24.0719 31.8739C25.1726 32.1992 26.3408 32.2214 27.4531 31.9382C28.5655 31.655 29.5808 31.0768 30.392 30.2648L30.8701 29.7867C31.4643 29.1949 31.936 28.4916 32.2581 27.7173C32.5803 26.943 32.7465 26.1127 32.7474 25.274C32.7273 23.6102 32.0578 22.0201 30.8817 20.8429L24.0899 14.0406Z" fill="#F8A266"/>
<path d="M27.5516 25.0419C28.0056 25.059 28.4494 24.9046 28.7946 24.6093C29.1293 24.2709 29.317 23.8142 29.317 23.3383C29.317 22.8623 29.1293 22.4056 28.7946 22.0672C28.6276 21.8984 28.4288 21.7643 28.2096 21.6728C27.9905 21.5813 27.7553 21.5342 27.5178 21.5342C27.2803 21.5342 27.0451 21.5813 26.826 21.6728C26.6068 21.7643 26.408 21.8984 26.241 22.0672C25.9472 22.4138 25.7948 22.8583 25.814 23.3123C25.8198 23.4491 25.8411 23.5837 25.8768 23.7139L19.0928 30.4978C18.5014 31.0905 17.799 31.5607 17.0256 31.8815C16.2523 32.2024 15.4232 32.3675 14.586 32.3675C13.7487 32.3675 12.9197 32.2024 12.1463 31.8815C11.373 31.5607 10.6705 31.0905 10.0791 30.4978L9.60103 30.0197C8.78896 29.2085 8.21083 28.1932 7.92762 27.0809C7.6444 25.9686 7.66659 24.8004 7.99185 23.6996C8.06144 23.4646 8.0348 23.2116 7.91781 22.9962C7.80082 22.7808 7.60305 22.6207 7.36801 22.5511C7.13297 22.4815 6.87992 22.5081 6.66452 22.6251C6.44912 22.7421 6.28901 22.9399 6.21943 23.1749C6.00019 23.9328 5.89025 24.7181 5.89293 25.5071C5.89065 27.6918 6.75443 29.7883 8.29503 31.3374L8.7498 31.8038C9.51459 32.571 10.4233 33.1797 11.4238 33.5951C12.4242 34.0104 13.4969 34.2242 14.5801 34.2242C15.6634 34.2242 16.736 34.0104 17.7365 33.5951C18.737 33.1797 19.6457 32.571 20.4105 31.8038L27.2166 24.9977C27.326 25.0227 27.438 25.0376 27.5516 25.0419Z" fill="#923B95"/>
<path d="M15.1337 15.4729C15.1672 15.6112 15.1846 15.754 15.1846 15.8986C15.1846 16.3745 14.9969 16.8313 14.6622 17.1696C14.4102 17.4244 14.0882 17.5985 13.7371 17.6698C13.3859 17.7412 13.0215 17.7065 12.6901 17.5703C12.3587 17.4341 12.0752 17.2025 11.8757 16.9048C11.6763 16.6072 11.5698 16.2569 11.5698 15.8986C11.5698 15.5403 11.6763 15.1901 11.8757 14.8924C12.0752 14.5948 12.3587 14.3631 12.6901 14.2269C13.0215 14.0907 13.3859 14.0561 13.7371 14.1274C13.7707 14.1342 13.8041 14.142 13.8371 14.1507L20.2118 7.7362C20.9774 6.9704 21.8863 6.36292 22.8867 5.94846C23.8871 5.534 24.9593 5.32068 26.0421 5.32068C27.125 5.32068 28.1972 5.534 29.1976 5.94846C30.198 6.36292 31.1069 6.9704 31.8725 7.7362L32.3506 8.22595C33.4058 9.2693 34.1567 10.5806 34.5224 12.0188C34.8882 13.457 34.8549 14.9677 34.4262 16.3884C34.3932 16.5056 34.3376 16.6151 34.2623 16.7107C34.1871 16.8063 34.0937 16.8862 33.9876 16.9458C33.8815 17.0053 33.7647 17.0434 33.6439 17.0578C33.523 17.0722 33.4006 17.0627 33.2834 17.0298C33.1663 16.9968 33.0568 16.9412 32.9611 16.8659C32.8655 16.7907 32.7856 16.6973 32.7261 16.5912C32.6665 16.4851 32.6285 16.3683 32.614 16.2475C32.5996 16.1266 32.6092 16.0042 32.6421 15.887C32.977 14.7833 33.0064 13.6095 32.7272 12.4904C32.4479 11.3713 31.8705 10.3489 31.0562 9.53195L30.5781 9.0422C29.3822 7.84807 27.7613 7.17736 26.0713 7.17736C24.3813 7.17736 22.7603 7.84807 21.5644 9.0422L15.1337 15.4729Z" fill="#05A2D8"/>
<path d="M180.908 4.01636C180.447 4.01636 179.996 4.15313 179.612 4.40939C179.229 4.66565 178.93 5.02988 178.753 5.45602C178.577 5.88217 178.531 6.35108 178.621 6.80347C178.711 7.25586 178.933 7.67141 179.259 7.99756C179.585 8.32372 180.001 8.54583 180.453 8.63582C180.905 8.72581 181.374 8.67962 181.801 8.50311C182.227 8.32659 182.591 8.02768 182.847 7.64416C183.103 7.26064 183.24 6.80975 183.24 6.34849C183.24 5.72997 182.994 5.13678 182.557 4.69942C182.12 4.26206 181.527 4.01636 180.908 4.01636Z" fill="#F99C5B"/>
</svg>
