<svg width="213" height="56" viewBox="0 0 213 56" fill="none" xmlns="http://www.w3.org/2000/svg">
<path d="M145.151 12.7579C148.832 12.7579 151.958 14.1488 154.531 16.93C157.104 19.7112 158.391 23.2781 158.392 27.6307C158.392 31.8286 157.062 35.3397 154.402 38.1641C151.742 40.9884 148.589 42.4003 144.944 42.3997C143.39 42.4132 141.848 42.1186 140.409 41.533C139.009 40.9549 137.619 40.009 136.238 38.6954V50.9348H129.215V13.4838H136.238V16.5919C137.424 15.3776 138.831 14.4016 140.384 13.7166C141.89 13.0728 143.513 12.7465 145.151 12.7579ZM72.8956 4.6306C78.5496 4.6306 83.6876 6.66738 88.6031 10.8456C92.5941 14.2386 95.8089 18.4786 98.9179 22.5769C99.007 22.6945 99.0961 22.8119 99.185 22.9291L99.4516 23.2802C99.496 23.3386 99.5404 23.3969 99.5847 23.4552L99.8504 23.8042L100.116 24.1514C104.001 29.2301 107.721 33.6624 111.583 33.6624C115.178 33.6468 118.082 30.7239 118.074 27.129C118.074 23.6181 115.162 20.6059 111.583 20.6059C109.254 20.6059 106.977 22.2207 104.684 24.6152C103.612 23.2864 102.548 21.8771 101.552 20.5641C100.923 19.7356 100.277 18.8839 99.6132 18.0226C103.016 14.7036 106.846 12.355 111.582 12.355C119.711 12.355 126.323 19.053 126.324 27.1277C126.327 35.2774 119.733 41.8915 111.583 41.913C103.647 41.913 98.2564 35.3301 93.149 28.6241L92.8268 28.2004C92.7731 28.1298 92.7195 28.0592 92.6659 27.9886L92.3446 27.5652C89.503 23.8197 86.5647 19.9467 83.2594 17.1369C79.8516 14.2404 76.5589 12.8803 72.8956 12.8803C67.8036 12.8803 63.0983 15.5969 60.5522 20.0068C58.0062 24.4166 58.0062 29.8498 60.5522 34.2597C63.0983 38.6696 67.8036 41.3862 72.8956 41.3862C76.5589 41.3862 79.8518 40.0373 83.2594 37.141C85.6324 35.1238 87.8159 32.5567 89.9109 29.8847C91.6114 32.1276 93.3454 34.407 95.1976 36.4874C93.187 38.9646 91.0399 41.3537 88.6031 43.4252C83.6876 47.6039 78.5488 49.6378 72.8956 49.6378C64.8391 49.663 57.3838 45.3793 53.3482 38.4064C49.3126 31.4334 49.3126 22.835 53.3482 15.8621C57.3838 8.88909 64.8391 4.60548 72.8956 4.6306ZM188.903 12.7577C190.54 12.7461 192.161 13.0724 193.665 13.7161C195.211 14.398 196.609 15.3746 197.781 16.5915V13.4838H204.855V41.6745H197.781V38.695C196.4 40.0083 195.016 40.9541 193.628 41.5326C192.195 42.1191 190.659 42.414 189.111 42.4C185.47 42.4 182.321 40.9879 179.665 38.1637C177.009 35.3394 175.68 31.8283 175.678 27.6303C175.678 23.2765 176.964 19.7096 179.535 16.9296C182.106 14.1495 185.229 12.7589 188.903 12.7577ZM15.0682 13.4836L20.7368 29.5219L26.8368 13.4836H31.0714L37.0602 29.3412L42.7371 13.4836H49.7068L39.4197 41.6745H34.9358L28.9254 25.6095L22.7319 41.6745H18.3024L8.14467 13.4836H15.0682ZM173.783 12.7579C174.785 12.779 175.768 13.0271 176.66 13.4836L174.457 19.572C173.628 19.1571 172.946 18.95 172.41 18.9508C171.322 18.9508 170.402 19.6242 169.65 20.9711C168.898 22.318 168.522 24.9613 168.524 28.9009L168.549 30.274V41.6743H161.527L161.528 13.4838H167.591V17.0329C168.152 15.749 169.058 14.6457 170.208 13.8455C171.263 13.1311 172.509 12.752 173.783 12.7579ZM143.674 19.2869L143.674 19.2871C141.446 19.2871 139.598 20.0473 138.129 21.5678C136.661 23.0882 135.926 25.0749 135.927 27.5278C135.927 30.0321 136.661 32.0575 138.129 33.6041C139.598 35.1506 141.446 35.9235 143.674 35.9227C145.747 35.9601 147.735 35.1007 149.129 33.5652C150.606 31.9931 151.344 29.9892 151.344 27.5535C151.344 25.1354 150.618 23.1533 149.167 21.6071C147.716 20.0609 145.885 19.2875 143.674 19.2869ZM190.345 19.2869V19.2871C188.157 19.2871 186.341 20.0604 184.896 21.6071C183.45 23.1537 182.727 25.1359 182.726 27.5535C182.726 29.9883 183.462 31.9922 184.934 33.5652C186.32 35.0999 188.302 35.9596 190.37 35.9227C192.592 35.9227 194.434 35.1498 195.896 33.6041C197.358 32.0583 198.09 30.0329 198.09 27.5278C198.09 25.0743 197.359 23.0876 195.896 21.5678C194.433 20.0479 192.583 19.2876 190.345 19.2869Z" fill="#020202"/>
</svg>
