<svg  viewBox="20 16 220 50" fill="none" xmlns="http://www.w3.org/2000/svg"><defs>
<clipPath id="clip0_0_176">
<rect width="50" height="49.2424" fill="white" transform="translate(20 16)"/>
</clipPath>
<clipPath id="clip1_0_176">
<rect width="100" height="16.5829" fill="white" transform="translate(100 33)"/>
</clipPath>
</defs><g clip-path="url(#clip0_0_176)">
<path d="M69.7475 18.7778H23.7879C23.6485 18.7778 23.5354 18.8909 23.5354 19.0304V64.99C23.5354 65.1294 23.6485 65.2425 23.7879 65.2425H69.7475C69.887 65.2425 70 65.1294 70 64.99V19.0304C70 18.8909 69.887 18.7778 69.7475 18.7778Z" fill="#EE5C27"/>
<path d="M66.2121 16H20.2525C20.1131 16 20 16.1131 20 16.2525V62.2121C20 62.3516 20.1131 62.4646 20.2525 62.4646H66.2121C66.3516 62.4646 66.4646 62.3516 66.4646 62.2121V16.2525C66.4646 16.1131 66.3516 16 66.2121 16Z" fill="white"/>
<path d="M37.2321 46.8586C37.0113 46.4692 36.8393 45.7048 36.7186 44.5637C35.4453 46.3849 33.412 47.2968 30.6213 47.2968C28.5392 47.2968 26.8807 46.7975 25.6433 45.8018C24.4058 44.8033 23.7871 43.4203 23.7871 41.645C23.7871 38.2193 26.2106 36.2633 31.0603 35.7793L33.9254 35.5246C34.8805 35.4024 35.5659 35.1782 35.9818 34.8497C36.3977 34.5211 36.6057 34.0295 36.6057 33.3749C36.6057 32.5727 36.3438 31.9843 35.8175 31.6073C35.2912 31.2304 34.4029 31.0419 33.1526 31.0419C31.8048 31.0419 30.8395 31.2661 30.2516 31.7169C29.6637 32.1651 29.3222 32.9369 29.2221 34.0295H24.6677C24.9373 29.7531 27.7793 27.6162 33.1912 27.6162C38.4567 27.6162 41.0882 29.4984 41.0882 33.2654V43.2879C41.0882 44.941 41.3449 46.1304 41.8609 46.8586H37.2321ZM35.2476 42.8293C36.1539 42.0397 36.6057 40.9039 36.6057 39.4215V37.7099C36.1641 38.0971 35.4427 38.3543 34.4389 38.474L31.9409 38.7644C30.7163 38.9096 29.8408 39.1948 29.3145 39.6202C28.7882 40.0455 28.5238 40.6593 28.5238 41.4617C28.5238 42.2639 28.7985 42.8879 29.3505 43.3387C29.9024 43.7894 30.6906 44.0137 31.7201 44.0137C33.1681 44.0137 34.3413 43.619 35.2476 42.8293Z" fill="#2A2F3D"/>
<path d="M62.4626 47.3818H44.3887V50.8813H62.4626V47.3818Z" fill="#2A2F3D"/>
</g><g clip-path="url(#clip1_0_176)">
<path d="M165.148 35.1727C164.897 34.9307 164.773 34.6355 164.773 34.2845C164.773 33.9335 164.899 33.6345 165.148 33.3874C165.397 33.139 165.699 33.0161 166.052 33.0161C166.406 33.0161 166.705 33.1403 166.947 33.3874C167.191 33.6357 167.313 33.9348 167.313 34.2845C167.313 34.6355 167.187 34.9307 166.938 35.1727C166.688 35.4147 166.393 35.5351 166.052 35.5351C165.698 35.5351 165.397 35.4147 165.148 35.1727Z" fill="#2A2F3D"/>
<path d="M106.689 46.0153C106.579 45.8215 106.493 45.4413 106.433 44.8736C105.8 45.7796 104.788 46.2333 103.4 46.2333C102.364 46.2333 101.539 45.9849 100.923 45.4895C100.308 44.9928 100 44.3047 100 43.4216C100 41.7173 101.206 40.7442 103.618 40.5034L105.044 40.3767C105.519 40.3159 105.86 40.2044 106.067 40.0409C106.274 39.8775 106.377 39.6329 106.377 39.3073C106.377 38.9081 106.247 38.6155 105.985 38.4279C105.723 38.2404 105.281 38.1466 104.659 38.1466C103.989 38.1466 103.508 38.2581 103.216 38.4824C102.924 38.7054 102.754 39.0894 102.704 39.6329H100.438C100.572 37.5055 101.986 36.4424 104.678 36.4424C107.298 36.4424 108.607 37.3788 108.607 39.2528V44.2389C108.607 45.0612 108.735 45.653 108.992 46.0153H106.689ZM105.701 44.0108C106.152 43.6179 106.377 43.0528 106.377 42.3154V41.4639C106.157 41.6565 105.799 41.7845 105.299 41.844L104.056 41.9885C103.447 42.0607 103.012 42.2026 102.75 42.4142C102.488 42.6258 102.356 42.9312 102.356 43.3303C102.356 43.7295 102.493 44.0399 102.768 44.2641C103.042 44.4884 103.434 44.5999 103.947 44.5999C104.667 44.5999 105.251 44.4036 105.701 44.0108Z" fill="#2A2F3D"/>
<path d="M120.031 37.765C120.786 38.6596 121.164 39.8507 121.164 41.337C121.164 42.8119 120.786 43.9966 120.031 44.8912C119.263 45.7857 118.234 46.2331 116.942 46.2331C115.663 46.2331 114.688 45.7553 114.019 44.8012V49.5693H111.715V36.6588H113.926V38.0007C114.608 36.9617 115.613 36.4409 116.941 36.4409C118.234 36.4409 119.263 36.8831 120.031 37.765ZM116.393 44.3463C117.148 44.3463 117.746 44.0739 118.184 43.5303C118.61 42.9981 118.824 42.243 118.824 41.2635C118.824 40.3081 118.613 39.5808 118.193 39.079C117.773 38.5772 117.172 38.3264 116.393 38.3264C115.626 38.3264 115.028 38.5861 114.603 39.1056C114.176 39.6251 113.963 40.3689 113.963 41.3357C113.963 42.3152 114.182 43.0577 114.621 43.5658C115.034 44.0866 115.626 44.3463 116.393 44.3463Z" fill="#2A2F3D"/>
<path d="M131.869 37.765C132.624 38.6596 133.002 39.8507 133.002 41.337C133.002 42.8119 132.624 43.9966 131.869 44.8912C131.102 45.7857 130.072 46.2331 128.781 46.2331C127.501 46.2331 126.527 45.7553 125.857 44.8012V49.5693H123.555V36.6588H125.765V38.0007C126.448 36.9617 127.453 36.4409 128.781 36.4409C130.072 36.4409 131.102 36.8831 131.869 37.765ZM128.232 44.3463C128.987 44.3463 129.584 44.0739 130.022 43.5303C130.449 42.9981 130.662 42.243 130.662 41.2635C130.662 40.3081 130.452 39.5808 130.031 39.079C129.611 38.5772 129.011 38.3264 128.232 38.3264C127.464 38.3264 126.866 38.5861 126.441 39.1056C126.015 39.6251 125.801 40.3689 125.801 41.3357C125.801 42.3152 126.021 43.0577 126.459 43.5658C126.873 44.0866 127.464 44.3463 128.232 44.3463Z" fill="#2A2F3D"/>
<path d="M135.084 43.0415H137.332C137.393 43.6218 137.585 44.0323 137.908 44.2743C138.231 44.5164 138.739 44.6367 139.434 44.6367C140.677 44.6367 141.299 44.2616 141.299 43.5128C141.299 43.1745 141.165 42.9147 140.897 42.7335C140.628 42.5523 140.147 42.4015 139.453 42.2799L138.375 42.0987C136.317 41.7604 135.287 40.8177 135.287 39.2705C135.287 38.3887 135.628 37.6955 136.31 37.195C136.992 36.6933 137.955 36.4424 139.198 36.4424C141.89 36.4424 143.28 37.5004 143.365 39.6152H141.19C141.166 39.0589 140.99 38.6636 140.66 38.4279C140.331 38.1922 139.844 38.0744 139.198 38.0744C138.102 38.0744 137.553 38.4368 137.553 39.1628C137.553 39.4771 137.674 39.7216 137.918 39.8965C138.162 40.0714 138.563 40.2082 139.124 40.3045L140.312 40.4857C141.457 40.691 142.289 41.0179 142.806 41.4651C143.323 41.9124 143.583 42.5346 143.583 43.3329C143.583 44.2756 143.217 45.0003 142.485 45.5084C141.755 46.0166 140.725 46.2699 139.397 46.2699C136.644 46.2687 135.205 45.193 135.084 43.0415Z" fill="#2A2F3D"/>
<path d="M159.346 37.3482C159.924 37.9526 160.214 38.78 160.214 39.8317V46.0139H157.911V40.1941C157.911 39.0093 157.368 38.4176 156.284 38.4176C155.699 38.4176 155.228 38.6266 154.868 39.0435C154.509 39.4604 154.329 40.0673 154.329 40.8656V46.0151H152.044V40.1941C152.044 39.0093 151.496 38.4176 150.399 38.4176C149.827 38.4176 149.36 38.6266 149 39.0435C148.64 39.4604 148.461 40.0673 148.461 40.8656V46.0151H146.158V36.6588H148.388V38.0007C149.033 36.9617 149.93 36.4409 151.074 36.4409C152.512 36.4409 153.487 37.0212 153.999 38.1819C154.705 37.0212 155.68 36.4409 156.923 36.4409C157.96 36.4409 158.767 36.7437 159.346 37.3482Z" fill="#2A2F3D"/>
<path d="M174.91 38.4V43.4582C174.91 43.761 174.992 43.9727 175.156 44.093C175.321 44.2135 175.598 44.2743 175.988 44.2743H177.67V46.0152C177.171 46.0633 175.872 46.0875 175.568 46.0875C174.545 46.0875 173.799 45.8974 173.329 45.516C172.86 45.1347 172.625 44.5277 172.625 43.6939V38.4H170.488V36.659H172.626V33.5369H174.911V36.6603H177.858V38.4H174.91Z" fill="#2A2F3D"/>
<path d="M188.157 37.3205C188.749 37.9071 189.044 38.7371 189.044 39.8141V46.0153H186.741V40.1942C186.741 39.0095 186.15 38.4178 184.968 38.4178C184.383 38.4178 183.887 38.6256 183.479 39.0437C183.072 39.4606 182.867 40.0371 182.867 40.7746V46.014H180.564V33.5356H182.867V37.9097C183.586 36.9302 184.543 36.4411 185.736 36.4411C186.759 36.4411 187.566 36.7351 188.157 37.3205Z" fill="#2A2F3D"/>
<path d="M199.894 47.3557H190.902V49.0967H199.894V47.3557Z" fill="#FF6D2D"/>
<path d="M167.22 44.2742V36.6589H162.377V38.3999H164.917V44.2742H162.377V46.0152H169.76V44.2742H167.22Z" fill="#2A2F3D"/>
</g></svg>