<svg  viewBox="20 16 50 50" fill="none" xmlns="http://www.w3.org/2000/svg"><defs>
<clipPath id="clip0_0_176">
<rect width="50" height="49.2424" fill="white" transform="translate(20 16)"/>
</clipPath>
<clipPath id="clip1_0_176">
<rect width="100" height="16.5829" fill="white" transform="translate(100 33)"/>
</clipPath>
</defs><g clip-path="url(#clip0_0_176)">
<path d="M69.7475 18.7778H23.7879C23.6485 18.7778 23.5354 18.8909 23.5354 19.0304V64.99C23.5354 65.1294 23.6485 65.2425 23.7879 65.2425H69.7475C69.887 65.2425 70 65.1294 70 64.99V19.0304C70 18.8909 69.887 18.7778 69.7475 18.7778Z" fill="#EE5C27"/>
<path d="M66.2121 16H20.2525C20.1131 16 20 16.1131 20 16.2525V62.2121C20 62.3516 20.1131 62.4646 20.2525 62.4646H66.2121C66.3516 62.4646 66.4646 62.3516 66.4646 62.2121V16.2525C66.4646 16.1131 66.3516 16 66.2121 16Z" fill="white"/>
<path d="M37.2321 46.8586C37.0113 46.4692 36.8393 45.7048 36.7186 44.5637C35.4453 46.3849 33.412 47.2968 30.6213 47.2968C28.5392 47.2968 26.8807 46.7975 25.6433 45.8018C24.4058 44.8033 23.7871 43.4203 23.7871 41.645C23.7871 38.2193 26.2106 36.2633 31.0603 35.7793L33.9254 35.5246C34.8805 35.4024 35.5659 35.1782 35.9818 34.8497C36.3977 34.5211 36.6057 34.0295 36.6057 33.3749C36.6057 32.5727 36.3438 31.9843 35.8175 31.6073C35.2912 31.2304 34.4029 31.0419 33.1526 31.0419C31.8048 31.0419 30.8395 31.2661 30.2516 31.7169C29.6637 32.1651 29.3222 32.9369 29.2221 34.0295H24.6677C24.9373 29.7531 27.7793 27.6162 33.1912 27.6162C38.4567 27.6162 41.0882 29.4984 41.0882 33.2654V43.2879C41.0882 44.941 41.3449 46.1304 41.8609 46.8586H37.2321ZM35.2476 42.8293C36.1539 42.0397 36.6057 40.9039 36.6057 39.4215V37.7099C36.1641 38.0971 35.4427 38.3543 34.4389 38.474L31.9409 38.7644C30.7163 38.9096 29.8408 39.1948 29.3145 39.6202C28.7882 40.0455 28.5238 40.6593 28.5238 41.4617C28.5238 42.2639 28.7985 42.8879 29.3505 43.3387C29.9024 43.7894 30.6906 44.0137 31.7201 44.0137C33.1681 44.0137 34.3413 43.619 35.2476 42.8293Z" fill="#2A2F3D"/>
<path d="M62.4626 47.3818H44.3887V50.8813H62.4626V47.3818Z" fill="#2A2F3D"/>
</g></svg>