<svg width="235" height="51" viewBox="0 0 235 51" fill="none" xmlns="http://www.w3.org/2000/svg">
<path d="M6.58496 4.19653L25.6283 19.7421L39.5031 4.74229C39.6956 4.53416 39.548 4.19653 39.2645 4.19653H6.58496V4.19653Z" fill="#2397D4"/>
<path d="M6.58496 46.1608L25.6283 30.6152L39.5031 45.615C39.6956 45.8232 39.548 46.1608 39.2645 46.1608H6.58496Z" fill="#2397D4"/>
<path d="M6.79394 4.27732L32.0836 24.9028C32.2582 25.0453 32.2582 25.3121 32.0836 25.4545L6.79394 46.08C6.56143 46.2697 6.21301 46.1042 6.21301 45.8042V4.55316C6.21301 4.25313 6.56143 4.08769 6.79394 4.27732Z" fill="#2F4A75"/>
<path d="M111.397 33.9772C111.397 41.1659 105.586 46.1382 98.337 46.1382H80.8851C80.6973 46.1382 80.545 45.9859 80.545 45.7981V4.53748C80.545 4.35309 80.6945 4.20361 80.8789 4.20361H97.0787C104.148 4.20361 109.839 8.99625 109.839 16.0053C109.839 19.5995 108.341 22.4153 105.885 24.3922C109.24 26.3092 111.397 29.604 111.397 33.9772ZM88.8119 12.2144V20.8084C88.8119 21.0011 88.9681 21.1573 89.1608 21.1573H97.0787C99.8043 21.1573 101.792 18.9445 101.553 16.0796C101.354 13.7073 99.2741 11.9315 96.8935 11.9315L89.0948 11.9315C88.9385 11.9315 88.8119 12.0582 88.8119 12.2144ZM103.177 33.0475C103.016 30.4781 100.783 28.5256 98.2089 28.5256H88.8119V38.4103H98.337C101.279 38.4103 103.37 36.1218 103.177 33.0475ZM141.005 38.59H124.741C124.607 38.59 124.487 38.6759 124.445 38.8033L122.071 45.9248C122.029 46.0523 121.909 46.1382 121.775 46.1382H113.514C113.299 46.1382 113.149 45.926 113.22 45.7231L127.678 4.41259C127.722 4.28742 127.84 4.20362 127.973 4.20362H137.774C137.906 4.20362 138.024 4.28724 138.068 4.41221L152.586 45.7227C152.658 45.9257 152.507 46.1382 152.292 46.1382H143.971C143.837 46.1382 143.718 46.0523 143.675 45.9248L141.301 38.8033C141.259 38.6759 141.14 38.59 141.005 38.59ZM138.516 30.4507L133.199 14.6101C133.104 14.3264 132.703 14.3264 132.607 14.6101L127.29 30.4507C127.222 30.6529 127.373 30.862 127.586 30.862H138.22C138.433 30.862 138.584 30.6529 138.516 30.4507ZM189.336 4.54118V45.8007C189.336 45.9871 189.184 46.1382 188.998 46.1382H183.221C183.111 46.1382 183.008 46.0845 182.945 45.9944L165.074 20.4983V45.8007C165.074 45.9871 164.923 46.1382 164.736 46.1382H157.144C156.958 46.1382 156.807 45.9871 156.807 45.8007V4.54118C156.807 4.35475 156.958 4.20361 157.144 4.20361H162.921C163.031 4.20361 163.134 4.25716 163.198 4.34712L181.069 29.7837V4.54118C181.069 4.35475 181.22 4.20361 181.406 4.20361H188.998C189.184 4.20361 189.336 4.35475 189.336 4.54118ZM219.546 45.9672L211.802 32.9846C211.666 32.7565 211.336 32.7565 211.2 32.9846L203.456 45.9672C203.392 46.0732 203.278 46.1382 203.155 46.1382H194.626C194.354 46.1382 194.185 45.8417 194.325 45.6079L206.721 24.8112C206.787 24.7006 206.787 24.5628 206.722 24.4522L194.983 4.7337C194.844 4.49994 195.012 4.20361 195.284 4.20361H203.813C203.937 4.20361 204.051 4.2687 204.115 4.37493L211.2 16.2778C211.336 16.5062 211.667 16.5062 211.803 16.2778L218.887 4.37494C218.951 4.26871 219.065 4.20361 219.189 4.20361H227.717C227.989 4.20361 228.158 4.50033 228.018 4.73409L216.281 24.392C216.215 24.5028 216.215 24.6409 216.281 24.7516L228.737 45.6077C228.876 45.8415 228.708 46.1382 228.436 46.1382H219.848C219.724 46.1382 219.61 46.0732 219.546 45.9672ZM58.9768 38.209C57.8975 38.069 57.0609 37.1564 57.0609 36.039V29.149C57.0609 28.9702 57.2058 28.8253 57.3845 28.8253H72.6124C72.7912 28.8253 72.9361 28.6803 72.9361 28.5016V21.3612C72.9361 21.1824 72.7912 21.0375 72.6124 21.0375H57.3845C57.2058 21.0375 57.0609 20.8925 57.0609 20.7138V12.4351C57.0609 12.2563 57.2058 12.1114 57.3845 12.1114H74.1102C74.289 12.1114 74.434 11.9665 74.434 11.7877V4.5273C74.434 4.34854 74.289 4.20362 74.1102 4.20362H49.1177C48.9389 4.20362 48.7941 4.34854 48.7941 4.5273V29.7898V38.3165C48.7941 42.6445 52.3026 46.1531 56.6305 46.1531H74.7331V38.209H58.9768Z" fill="#2F4A75"/>
</svg>
