<svg width="154" height="77" viewBox="0 0 154 77" fill="none" xmlns="http://www.w3.org/2000/svg">
<path d="M70.015 42.4746H77.0956L79.165 55.2107L81.4618 42.4746H86.3926L88.8665 55.2107L91.1193 42.4746H97.7405L92.3543 61.7399H86.1171L84.1306 51.6704L81.779 61.7399H75.7555L70.015 42.4746ZM114.431 42.5206H121.972L125.007 54.1994L128.409 42.3828H135.582L128.402 61.7402H121.636L114.431 42.5206ZM137.329 42.5206V61.7396H150.15V56.8203H143.996V54.5212H149.56V49.555H143.996V47.3942H150.066V42.5206H137.329ZM104.89 54.7741L106.752 48.0151L108.167 54.7741H104.89ZM110.661 42.4746H102.856L95.8416 61.7399H103.244L103.902 59.0734H109.339L109.91 61.7399H117.505L110.661 42.4746ZM59.2097 55.7167L55.5316 61.6939H39.5306L48.4047 47.9462H40.2061L43.6225 42.4748H59.2097L50.8872 55.7167H59.2097ZM50.0665 34.0146C39.8581 34.0146 31.5824 42.2897 31.5824 52.4981C31.5824 62.7065 39.8581 70.9822 50.0665 70.9822C60.2744 70.9822 68.5501 62.7065 68.5501 52.4981C68.5501 42.2897 60.2744 34.0146 50.0665 34.0146ZM49.646 12.0995V6.01776C24.335 6.12977 3.8501 26.6781 3.8501 52.0154C3.8501 52.1309 3.8581 52.2446 3.85924 52.36H9.92327C9.99699 30.3339 27.6902 12.4687 49.646 12.0995ZM49.646 24.7846V18.7069C49.5997 18.7063 49.5546 18.7029 49.5083 18.7029C30.9962 18.7029 15.989 33.7101 15.989 52.2222C15.989 52.2685 15.9924 52.3142 15.9924 52.3599H22.0702C22.3262 37.2424 34.528 25.0407 49.646 24.7846Z" fill="#00396F"/>
</svg>
