<svg width="227" height="53" viewBox="0 0 227 53" fill="none" xmlns="http://www.w3.org/2000/svg">
<path d="M28.3696 4.36548C40.4302 4.36548 50.2087 14.137 50.2078 26.1924C50.2078 38.246 40.4293 48.0193 28.3696 48.0193C16.3099 48.0193 6.53223 38.246 6.53223 26.1924C6.53223 14.137 16.3099 4.36548 28.3696 4.36548ZM28.3696 5.58084C16.9793 5.58084 7.74933 14.8091 7.74933 26.1924C7.74933 37.5723 16.9793 46.8031 28.3696 46.8031C39.7555 46.8031 48.9907 37.5723 48.9907 26.1924C48.9907 14.8091 39.7555 5.58084 28.3696 5.58084ZM26.0188 17.7301C27.7132 17.7301 29.0894 19.1054 29.0894 20.8033C29.0894 20.9441 29.0746 21.0867 29.0572 21.2284L35.9582 23.1262C36.3346 22.5654 36.9745 22.1968 37.6969 22.1968C38.8592 22.1968 39.7955 23.1323 39.7964 24.2894C39.7964 25.4448 38.8584 26.3828 37.6969 26.3828C36.991 26.3828 36.3633 26.0281 35.986 25.4891L27.5089 29.928C27.7471 30.4679 27.881 31.0599 27.881 31.685C27.881 34.1018 25.9189 36.0596 23.5047 36.0596C21.087 36.0596 19.1301 34.1018 19.1301 31.685C19.1301 29.2717 21.087 27.3139 23.5047 27.3139C23.8272 27.3139 24.1367 27.3486 24.4375 27.4138L25.0295 23.7052C23.8176 23.2931 22.9465 22.1473 22.9465 20.8033C22.9465 19.1054 24.3219 17.7301 26.0188 17.7301ZM28.8642 21.9465C28.4139 23.0732 27.3107 23.8695 26.0188 23.8695C25.9276 23.8695 25.8441 23.866 25.758 23.859L25.1538 27.6373C25.9745 27.9711 26.6683 28.5457 27.1525 29.2751L35.6739 24.8127C35.6313 24.6432 35.6052 24.4685 35.6052 24.2876C35.6052 24.1233 35.6278 23.966 35.6591 23.8147L28.8642 21.9465Z" fill="#232E44"/>
<path d="M81.7124 19.2193C82.8373 17.9344 85.2098 16.7338 88.5603 17.2902C91.4883 17.7762 92.9193 19.188 93.879 21.3823C94.9779 23.8921 95.2622 28.7726 93.6139 31.8206C92.3151 34.2226 90.1738 35.6693 86.9233 35.6693C83.2825 35.6693 81.6628 34.2574 81.6628 34.2574V42.0364H79.7729V25.363C79.7729 23.0392 80.4266 20.6894 81.7124 19.2193ZM100.928 19.2193C102.053 17.9344 104.425 16.7338 107.776 17.2902C110.705 17.7762 112.135 19.188 113.094 21.3823C114.193 23.8921 114.477 28.7726 112.828 31.8206C111.53 34.2226 109.388 35.6693 106.138 35.6693C102.498 35.6693 100.878 34.2574 100.878 34.2574V42.0364H98.9883V25.363C98.9883 23.0392 99.6411 20.6894 100.928 19.2193ZM65.8101 17.2389C74.4342 16.0861 74.7436 21.5979 74.9027 22.7776C75.2757 25.5508 75.433 28.8761 74.881 31.006C74.5202 32.4031 73.8795 34.3956 71.0628 35.2841C67.2081 36.4995 59.935 35.8179 60.973 28.7605C61.8131 23.0514 72.8234 24.4568 73.2635 24.5153L73.277 24.5172C73.0875 20.5398 71.5974 19.2793 69.5475 18.9585C65.7675 18.3682 63.562 20.2582 63.562 20.2582L62.5953 18.6386C62.5953 18.6386 63.8376 17.5023 65.8101 17.2389ZM142.358 17.2389C150.982 16.0861 151.295 21.5979 151.45 22.7776C151.823 25.5508 151.98 28.8761 151.429 31.006C151.069 32.4031 150.426 34.3956 147.61 35.2841C143.754 36.4995 136.482 35.8179 137.521 28.7605C138.344 23.1679 148.925 24.4024 149.77 24.5101L149.824 24.5172C149.634 20.5398 148.145 19.2793 146.096 18.9585C142.315 18.3682 140.11 20.2582 140.11 20.2582L139.144 18.6386C139.144 18.6386 140.385 17.5023 142.358 17.2389ZM120.409 10.85V18.6629C120.409 18.6629 122.081 17.2511 125.722 17.2511C128.972 17.2511 131.165 18.6968 132.466 21.0988C134.115 24.1459 133.83 29.0256 132.731 31.5381C131.772 33.7297 130.314 35.1433 127.385 35.631C124.034 36.1865 121.636 34.9868 120.51 33.7002C119.224 32.2292 118.518 29.8802 118.518 27.5564V10.85H120.409ZM192.863 32.2709V35.7362H191.604V32.2709H192.863ZM199.163 17.1502V35.7362H197.904V17.1502H199.163ZM166.193 18.9333L165.051 20.173L165.037 20.1596C164.844 19.9676 162.548 17.7866 159.37 19.048C157.857 19.647 157.224 21.2232 157.531 22.4003C157.898 23.8182 159.307 24.751 161.152 25.2361C165.344 26.3376 166.461 27.8868 166.735 29.8559C167.137 32.7421 164.865 35.7023 161.519 35.7154C157.425 35.7336 155.062 32.9012 155.062 32.9012L156.558 31.6407C156.558 31.6407 161.758 36.3708 164.722 32.1136C165.562 30.9061 165.352 28.491 162.385 27.3878C158.984 26.1237 156.27 25.4987 155.692 22.7697C154.651 17.8509 161.205 15.0507 166.193 18.9333ZM179.054 17.1398C183.517 17.1894 186.152 19.827 186.423 23.8208C186.485 24.7371 186.581 26.6175 186.423 27.4956L172.679 27.4825L172.679 27.501C172.683 27.79 172.79 31.39 175.672 33.1525C177.477 34.2557 181.344 34.8842 184.913 32.7639L185.746 34.207C185.746 34.207 183.945 35.7318 179.919 35.7129C172.3 35.6727 170.092 30.5209 171.091 24.1216C171.617 20.7615 174.276 17.0859 179.054 17.1398ZM212.12 17.1485C216.729 17.1485 220.468 21.284 220.468 26.3837C220.468 31.4842 216.729 35.6197 212.12 35.6197C207.509 35.6197 203.771 31.4842 203.771 26.3837C203.771 21.2831 207.509 17.1485 212.12 17.1485ZM212.12 18.5681C208.181 18.5681 204.991 22.0995 204.991 26.4567C204.991 30.813 208.183 34.3452 212.12 34.3452C216.058 34.3452 219.251 30.8122 219.25 26.4567C219.25 22.0995 216.057 18.5681 212.12 18.5681ZM126.187 18.9776C121.94 18.6899 120.461 20.7728 120.461 20.7728C120.41 24.2381 120.36 27.6634 120.582 29.6437C120.679 30.4957 121.719 34.4808 126.265 34.1766C130.666 33.8836 131.77 30.8113 131.873 26.428C131.993 21.397 129.69 19.2132 126.187 18.9776ZM73.2857 26.3889C73.2857 26.3889 70.4647 25.5187 66.1857 26.3889C61.9876 27.2417 62.0502 30.9965 63.0977 32.3014C64.7443 34.3557 68.6156 34.5721 71.281 33.3707C73.7432 32.2609 73.4231 27.688 73.312 26.615L73.2997 26.5022C73.2912 26.4286 73.2857 26.3889 73.2857 26.3889ZM149.833 26.3889C149.833 26.3889 147.013 25.5187 142.733 26.3889C138.536 27.2417 138.598 30.9965 139.646 32.3014C141.29 34.3557 145.164 34.5721 147.828 33.3707C150.624 32.111 149.833 26.3889 149.833 26.3889ZM87.4136 18.7429C82.8686 18.4386 81.8272 22.4246 81.7307 23.2757C81.5265 25.0998 81.5509 28.1503 81.5982 31.3275L81.6107 32.1466C81.6107 32.1466 83.0903 34.2279 87.3363 33.9418C90.8389 33.7071 93.1436 31.5216 93.0227 26.4915C92.9175 22.1073 91.8152 19.0367 87.4136 18.7429ZM106.631 18.7429C102.087 18.4386 101.044 22.4246 100.949 23.2757C100.743 25.0998 100.769 28.1503 100.815 31.3275L100.828 32.1466C100.828 32.1466 102.307 34.2279 106.553 33.9418C110.054 33.7071 112.36 31.5216 112.238 26.4915C112.133 22.1073 111.031 19.0367 106.631 18.7429ZM179.02 18.7246C173.612 18.6733 172.7 25.0257 172.699 25.9698H184.924C184.924 25.9698 185.528 18.7872 179.02 18.7246ZM199.163 10.5353V14.0006H197.904V10.5353H199.163Z" fill="#232E44"/>
</svg>
