<svg width="239" height="50" viewBox="0 0 239 50" fill="none" xmlns="http://www.w3.org/2000/svg">
<path d="M125.346 13.6386C126.887 13.617 128.417 13.8905 129.855 14.4445C131.179 14.9611 132.348 15.8084 133.252 16.9055V15.4899C133.252 14.5878 133.983 13.8564 134.886 13.8564H138.37V33.2618C138.37 41.3056 134.261 45.3275 126.043 45.3275C123.931 45.341 121.828 45.0625 119.793 44.4999C118.017 44.0395 116.356 43.2164 114.914 42.0824L116.46 39.4907C116.904 38.7735 117.825 38.5312 118.56 38.9235L118.638 38.968C119.419 39.4147 120.244 39.7796 121.099 40.0569C122.596 40.555 124.161 40.8122 125.738 40.8192C127.733 40.995 129.718 40.3855 131.27 39.1204C132.548 37.6922 133.185 35.8036 133.034 33.8934V32.652C132.107 33.6254 130.966 34.3708 129.702 34.8299C128.311 35.3566 126.833 35.6153 125.346 35.5922C123.301 35.6199 121.281 35.1411 119.466 34.1983C117.742 33.3034 116.301 31.9459 115.306 30.278C114.27 28.5338 113.742 26.5348 113.781 24.5065C113.746 22.4856 114.274 20.4947 115.306 18.7568C116.322 17.1495 117.761 15.8534 119.466 15.0107C121.285 14.0822 123.304 13.6113 125.346 13.6386ZM22.4173 28.9495C24.2132 29.031 25.8003 30.1429 26.4904 31.8029C27.1619 33.4181 26.8666 35.2692 25.7367 36.5938L25.6406 36.7029L25.5914 36.7582C25.329 37.0805 25.3454 37.5538 25.6406 37.8572C26.8601 38.885 28.2369 39.7089 29.7176 40.2977L29.9965 40.4054L30.0616 40.4241C30.4536 40.5199 30.8592 40.3171 31.0178 39.9461L31.0419 39.8827L31.0961 39.7453C31.547 38.6552 32.3973 37.7758 33.4761 37.2894C34.5998 36.7827 35.879 36.7441 37.0312 37.1821C38.306 37.6962 39.2871 38.7491 39.71 40.0569C39.7375 40.1268 39.7741 40.1927 39.8189 40.2529C28.4066 46.068 24.3121 44.2386 15.8617 34.2854C14.6231 32.7849 13.6507 31.0833 12.9868 29.2544C16.0762 30.2083 19.396 30.1009 22.4173 28.9495ZM77.2358 13.5297C78.8193 13.5351 80.3972 13.7177 81.9401 14.0742C83.3022 14.3607 84.6106 14.8605 85.8168 15.5552L84.7932 17.5154C84.2467 18.614 82.9639 19.129 81.8094 18.7132C80.3238 18.1692 78.7525 17.8962 77.1704 17.9074C75.9381 17.8391 74.7087 18.0865 73.5986 18.6261C72.8849 18.9746 72.4176 19.684 72.379 20.4773C72.352 21.3121 72.8873 22.0616 73.6857 22.3068C75.0049 22.786 76.3695 23.129 77.7585 23.3304C79.2771 23.561 80.7767 23.9031 82.245 24.3541C83.4058 24.7051 84.4562 25.3503 85.2941 26.2271C86.1927 27.2689 86.6463 28.6219 86.5573 29.9949C86.5886 32.0773 85.532 34.0253 83.7696 35.1348C81.5004 36.5397 78.8554 37.2162 76.1904 37.0732C74.3265 37.0636 72.4727 36.7998 70.6802 36.2891C69.1696 35.918 67.7333 35.292 66.4332 34.4379L67.3697 32.5866C67.9347 31.4713 69.2569 30.9708 70.4188 31.4323C70.98 31.6689 71.5545 31.8725 72.1394 32.0422C73.5546 32.4531 75.0216 32.6585 76.4953 32.652C79.6896 32.652 81.2867 31.8098 81.2867 30.1256C81.3081 29.3545 80.8072 28.6658 80.0671 28.4486C78.7917 28.027 77.479 27.728 76.1468 27.5556C74.5844 27.3301 73.041 26.9879 71.5296 26.532C70.3599 26.1553 69.3088 25.4796 68.4805 24.5719C67.5575 23.4986 67.0888 22.1081 67.1737 20.6951C67.1307 18.6085 68.1577 16.6448 69.8961 15.4899C72.0765 14.0829 74.6442 13.3971 77.2358 13.5297ZM178.335 8.80364C179.208 8.80364 179.921 9.48854 179.966 10.3503L179.969 10.4371V14.0089H186.067V18.3648H179.969V29.2544C179.901 30.1793 180.198 31.0939 180.796 31.8026C181.414 32.4111 182.261 32.7279 183.127 32.6737C183.467 32.7031 183.81 32.7031 184.15 32.6737C185.375 32.4107 186.613 33.0617 187.091 34.2201L187.7 35.4833C187.018 36.0229 186.233 36.4158 185.392 36.6376C184.464 36.9006 183.503 37.0326 182.539 37.0296C180.408 37.1662 178.309 36.4537 176.702 35.0477C175.236 33.5064 174.485 31.42 174.633 29.298V8.80364H178.335ZM155.031 13.6604C156.426 13.6437 157.81 13.9028 159.104 14.4227C160.332 14.9021 161.44 15.6456 162.349 16.6006V15.5552C162.349 14.6822 163.034 13.9691 163.896 13.924L163.983 13.9218L167.729 13.8564V36.79H162.654V33.7627C161.786 34.8355 160.663 35.6741 159.387 36.202C158.004 36.7609 156.523 37.035 155.031 37.0078C152.95 37.0415 150.895 36.539 149.064 35.5486C147.348 34.6039 145.936 33.1916 144.991 31.4759C143.024 27.6099 143.024 23.0366 144.991 19.1706C145.937 17.4189 147.366 15.9752 149.107 15.0107C150.937 14.0681 152.974 13.6036 155.031 13.6604ZM207.824 15.0979C209.639 16.0474 211.148 17.4891 212.18 19.2577C214.258 23.0191 214.258 27.5838 212.18 31.3452C211.148 33.1138 209.639 34.5555 207.824 35.5051C203.882 37.5036 199.222 37.5036 195.28 35.5051C193.465 34.5555 191.956 33.1138 190.924 31.3452C188.846 27.5838 188.846 23.0191 190.924 19.2577C191.956 17.4891 193.465 16.0474 195.28 15.0979C199.222 13.0993 203.882 13.0993 207.824 15.0979ZM56.3276 11.6567C59.7688 15.7077 53.3874 30.1256 45.2638 36.79C43.9621 35.2773 43.7738 33.1016 44.7962 31.3877C45.7959 29.7119 47.734 28.8449 49.642 29.2061L49.7721 29.2326L49.8437 29.2442C50.0353 29.2663 50.2293 29.219 50.39 29.1094C50.5707 28.9862 50.6936 28.7948 50.7304 28.5792C50.9607 27.1113 50.9751 25.6181 50.7735 24.147L50.7304 23.8531L50.7104 23.7889C50.5686 23.391 50.1451 23.16 49.7285 23.2651C47.7645 23.6263 45.7897 22.69 44.8262 20.9409C43.8846 19.2315 44.1153 17.1207 45.3909 15.6563L45.4816 15.5552L45.5308 15.5C45.7932 15.1777 45.7768 14.7043 45.4816 14.4009C44.2623 13.3728 42.8855 12.5489 41.4046 11.9603L41.1257 11.8527L41.0605 11.834C40.6468 11.733 40.2179 11.9645 40.0803 12.3754C39.8446 13.0497 39.4571 13.6607 38.9478 14.1613C37.8802 15.2062 36.3731 15.6701 34.9028 15.4063C33.4324 15.1425 32.1805 14.1837 31.5428 12.8328C31.3127 11.3634 30.8572 9.9382 30.1925 8.60763C33.5029 7.97603 52.7776 7.30087 56.3276 11.6567ZM109.6 13.8563L112.976 13.8782L104.09 34.6121C103.557 35.8832 102.339 36.7276 100.969 36.7868L100.845 36.79H97.9697L106.681 16.4917L107.117 15.4681C107.546 14.4809 108.524 13.8461 109.6 13.8563ZM232.108 13.5951V18.6697C231.699 18.5882 231.284 18.5445 230.867 18.539C229.068 18.4463 227.311 19.1004 226.01 20.3467C224.751 21.7941 224.117 23.6814 224.246 25.5955V36.79H218.888V13.8564H222.351C223.224 13.8564 223.937 14.5413 223.982 15.4031L223.985 15.4899V17.1887C225.857 14.6261 228.953 13.2564 232.108 13.5951ZM91.5665 13.8346C92.6171 13.8318 93.5686 14.4427 94.006 15.3906L94.0494 15.4899L99.3418 27.6427L96.6847 33.8063L87.7987 13.8346H91.5665ZM150.806 20.1071C148.261 23.0942 148.261 27.4869 150.806 30.474C152.077 31.7841 153.838 32.5027 155.663 32.456C157.492 32.5146 159.262 31.8035 160.542 30.4958V30.474C163.114 27.4972 163.114 23.084 160.542 20.1071C157.83 17.4764 153.518 17.4764 150.806 20.1071ZM196.673 20.0418C194.129 23.0289 194.129 27.4216 196.673 30.4087C197.944 31.7187 199.706 32.4374 201.53 32.3906C203.356 32.4549 205.125 31.752 206.409 30.4523V30.4087C208.981 27.4318 208.981 23.0186 206.409 20.0418C203.697 17.4111 199.385 17.4111 196.673 20.0418ZM121.056 19.9329C119.767 21.1336 119.06 22.833 119.117 24.5936C119.05 26.3752 119.756 28.0989 121.056 29.3197C123.957 31.7402 128.173 31.7402 131.074 29.3197C132.381 28.1028 133.097 26.3786 133.034 24.5936C133.086 22.8296 132.371 21.1296 131.074 19.9329C128.164 17.5384 123.966 17.5384 121.056 19.9329ZM35.5502 21.7623C37.9799 21.7623 39.9496 23.732 39.9496 26.1617C39.9496 28.5915 37.9799 30.5612 35.5502 30.5612C33.1205 30.5612 31.1508 28.5915 31.1508 26.1617C31.1508 23.732 33.1205 21.7623 35.5502 21.7623ZM18.0396 4.12109C18.8487 4.14389 19.4981 4.78517 19.5402 5.58422L19.5424 5.66742V7.6929C19.5365 8.21448 19.7938 8.7015 20.2224 8.99124L20.3047 9.04321L21.0887 9.50058C21.539 9.76056 22.0877 9.77585 22.5495 9.54646L22.6351 9.50058L24.3556 8.47695L24.4408 8.42794C24.7867 8.24335 25.1911 8.19646 25.572 8.29929C25.9528 8.40211 26.2787 8.64619 26.4846 8.97976L26.5336 9.06499L27.383 10.4589L27.4324 10.5434C27.6188 10.8869 27.6687 11.2895 27.5698 11.67C27.4709 12.0505 27.2311 12.3778 26.9011 12.587L26.8167 12.6368L25.1179 13.6604C24.6683 13.9249 24.3842 14.3968 24.3576 14.9134L24.3556 15.0107V15.8384C24.3455 16.3558 24.5946 16.8416 25.0153 17.1358L25.0961 17.1887L26.7949 18.2123L26.8167 18.1905C27.1829 18.4028 27.4461 18.7559 27.5448 19.1675C27.636 19.5474 27.5798 19.9465 27.3897 20.2851L27.3394 20.3684L26.5336 21.7623L26.4838 21.8467C26.2746 22.1767 25.9473 22.4165 25.5668 22.5154C25.1863 22.6144 24.7837 22.5644 24.4402 22.378L24.3556 22.3286L22.6786 21.2832C22.2283 21.0232 21.6797 21.0079 21.2178 21.2373L21.1323 21.2832L20.3482 21.7405C19.8986 22.005 19.6146 22.4769 19.5879 22.9935L19.586 23.0909V24.8985L19.5837 24.9834C19.5412 25.7699 18.911 26.4001 18.1245 26.4426L18.0396 26.4449H16.4498C15.6242 26.4449 14.9498 25.7979 14.9057 24.9834L14.9034 24.8985V23.1344C14.9093 22.6128 14.6521 22.1258 14.2235 21.8361L14.1411 21.7841L13.3571 21.3267C12.9068 21.0668 12.3582 21.0515 11.8963 21.2809L11.8108 21.3267L10.112 22.3504L10.0274 22.3998C9.68396 22.5862 9.28133 22.6362 8.90082 22.5372C8.52031 22.4383 8.19301 22.1985 7.98384 21.8685L7.93405 21.7841L7.12822 20.3902L7.07879 20.3056C6.89242 19.9622 6.84243 19.5596 6.94136 19.1791C7.0403 18.7986 7.28007 18.4713 7.61012 18.2621L7.69448 18.2123L9.39326 17.1887C9.83032 16.9317 10.1118 16.478 10.151 15.9765L10.1555 15.8819V15.0107C10.1584 14.5006 9.90973 14.0241 9.49477 13.7343L9.41504 13.6822L7.71626 12.6586L7.63189 12.6088C7.30185 12.3996 7.06208 12.0723 6.96314 11.6918C6.86421 11.3113 6.9142 10.9087 7.10057 10.5652L7.15 10.4806L7.89049 9.04321L7.94029 8.95885C8.14945 8.6288 8.47675 8.38903 8.85726 8.2901C9.23778 8.19117 9.64041 8.24116 9.98384 8.42753L10.0684 8.47695L11.789 9.65303C12.2393 9.91301 12.7879 9.9283 13.2498 9.69891L13.3353 9.65303L14.1194 9.19567C14.569 8.93122 14.853 8.45933 14.8797 7.94271L14.8816 7.84535V5.66742C14.8816 4.84188 15.5286 4.16743 16.3431 4.12338L16.428 4.12109H18.0396ZM14.8789 13.0416C13.9401 13.9867 13.6641 15.4047 14.18 16.6329C14.6802 17.8238 15.8293 18.6081 17.1131 18.6465L17.2338 18.6479L17.212 18.6261L17.3201 18.6244C19.0421 18.5688 20.4312 17.1889 20.4982 15.4672L20.5007 15.3592L20.4985 15.2385C20.4516 13.955 19.6597 12.8112 18.4655 12.3188C17.2339 11.8111 15.8177 12.0965 14.8789 13.0416Z" fill="black"/>
</svg>
