<svg  viewBox="20 16 50 50" fill="none" xmlns="http://www.w3.org/2000/svg"><defs>
<clipPath id="clip0_0_2006">
<rect width="108" height="29" fill="white" transform="translate(97 27)"/>
</clipPath>
</defs><path d="M27.0064 65.9995V65.1966C27.0064 55.1462 26.9921 45.0959 27.0064 35.0374C27.0166 29.8411 30.4786 25.5598 35.5441 24.7874C37.7704 24.4492 40.0887 24.7304 42.5172 24.7304V25.5761C42.5172 35.4566 42.5172 45.3371 42.5172 55.2176C42.5172 61.5347 38.0605 65.9669 31.7307 65.9893C30.2131 66.0036 28.6833 65.9995 27.0064 65.9995Z" fill="black"/><path d="M47.6897 48.7074V16.0005C50.5668 16.1506 53.4335 15.6401 56.2143 16.644C60.3097 18.0933 63.0943 22.0841 63.1716 26.6146C63.2269 30.2614 63.2043 33.9081 63.19 37.5548C63.1635 43.7757 59.1957 48.2805 53.2902 48.7096C51.4609 48.8212 49.6194 48.7074 47.6897 48.7074Z" fill="black"/></svg>