<svg  viewBox="20 16 220 50" fill="none" xmlns="http://www.w3.org/2000/svg"><defs>
<clipPath id="clip0_0_2006">
<rect width="108" height="29" fill="white" transform="translate(97 27)"/>
</clipPath>
</defs><path d="M27.0064 65.9995V65.1966C27.0064 55.1462 26.9921 45.0959 27.0064 35.0374C27.0166 29.8411 30.4786 25.5598 35.5441 24.7874C37.7704 24.4492 40.0887 24.7304 42.5172 24.7304V25.5761C42.5172 35.4566 42.5172 45.3371 42.5172 55.2176C42.5172 61.5347 38.0605 65.9669 31.7307 65.9893C30.2131 66.0036 28.6833 65.9995 27.0064 65.9995Z" fill="black"/><path d="M47.6897 48.7074V16.0005C50.5668 16.1506 53.4335 15.6401 56.2143 16.644C60.3097 18.0933 63.0943 22.0841 63.1716 26.6146C63.2269 30.2614 63.2043 33.9081 63.19 37.5548C63.1635 43.7757 59.1957 48.2805 53.2902 48.7096C51.4609 48.8212 49.6194 48.7074 47.6897 48.7074Z" fill="black"/><g clip-path="url(#clip0_0_2006)">
<path fill-rule="evenodd" clip-rule="evenodd" d="M142.441 56V48.6108C142.593 48.7336 142.735 48.8523 142.87 48.9659C143.164 49.2118 143.429 49.4344 143.713 49.6253C146.721 51.6481 151.315 50.9152 153.875 47.9824C156.001 45.5452 156.574 42.6653 156.034 39.5492C155.306 35.3781 152.601 32.1625 147.96 32.0063C145.787 31.9338 143.841 32.4748 142.38 34.2296C142.355 34.2597 142.317 34.2787 142.256 34.3091C142.22 34.327 142.176 34.349 142.122 34.3796V32.6162H137.225V56H142.441ZM146.631 45.8305C144.235 45.8317 142.226 43.799 142.209 41.3556H142.21C142.303 39.3562 143.665 36.9312 146.577 36.9225C147.751 36.9176 148.877 37.386 149.704 38.2229C150.531 39.0598 150.989 40.195 150.975 41.3741C150.95 43.8494 149.026 45.8292 146.631 45.8305Z" fill="black"/>
<path fill-rule="evenodd" clip-rule="evenodd" d="M171.423 56V48.6964C171.645 48.8486 171.856 49.0046 172.063 49.1577C172.5 49.4802 172.918 49.7896 173.376 50.0228C176.676 51.7016 181.157 50.4907 183.399 47.3283C185.273 44.6841 185.62 41.7453 184.824 38.675C183.988 35.4512 182.137 33.0576 178.759 32.2888C175.956 31.6514 173.306 31.9584 171.273 34.3373C171.266 34.3455 171.241 34.3391 171.2 34.3284C171.174 34.3215 171.142 34.313 171.103 34.3053V32.6425H166.225V56H171.423ZM175.61 45.8423C173.206 45.8337 171.202 43.8036 171.193 41.367L171.192 41.3658C171.291 39.3529 172.666 36.9457 175.571 36.9457C176.747 36.9404 177.874 37.4094 178.701 38.2471C179.527 39.0849 179.983 40.2208 179.964 41.3989C179.927 43.8773 178.015 45.8509 175.61 45.8423Z" fill="black"/>
<path fill-rule="evenodd" clip-rule="evenodd" d="M191.297 42.5733H204.071C204.817 38.8939 202.864 33.729 197.682 32.3345C192.769 31.0167 187.945 33.7042 186.592 38.4275C185.205 43.2664 187.863 48.2199 192.617 49.6144C197.606 51.0786 202.023 48.1785 203.564 44.1957C203.56 44.1917 203.555 44.1866 203.551 44.1815C203.542 44.1714 203.534 44.1614 203.526 44.1614C203.149 44.1606 202.772 44.1586 202.395 44.1565C201.242 44.1504 200.091 44.1442 198.939 44.1709C198.593 44.1839 198.263 44.3142 198.005 44.5393C196.922 45.5831 195.641 45.8901 194.183 45.654C192.563 45.3883 191.307 44.0564 191.297 42.5733ZM194.649 36.3185C196.938 36.1544 198.676 37.2573 199.038 39.169H191.425C191.463 37.8737 192.882 36.4449 194.649 36.3185Z" fill="black"/>
<path d="M97.2283 55.9997V55.534C97.2283 49.7048 97.22 43.8756 97.2283 38.0417C97.2342 35.0278 99.2422 32.5446 102.18 32.0967C103.471 31.9005 104.816 32.0636 106.225 32.0636V32.5541C106.225 38.2848 106.225 44.0155 106.225 49.7462C106.225 53.4101 103.64 55.9808 99.9684 55.9938C99.0882 56.0021 98.2009 55.9997 97.2283 55.9997Z" fill="black"/>
<path d="M109.225 45.9703V27.0003C110.893 27.0874 112.556 26.7913 114.169 27.3735C116.544 28.2141 118.159 30.5288 118.204 33.1565C118.236 35.2716 118.223 37.3867 118.215 39.5018C118.199 43.1099 115.898 45.7227 112.473 45.9716C111.412 46.0363 110.344 45.9703 109.225 45.9703Z" fill="black"/>
<path d="M163.225 50H158.225V33H163.225V50Z" fill="black"/>
<path d="M163.225 27V31H158.225V27H163.225Z" fill="black"/>
</g></svg>