<svg width="204" height="59" viewBox="0 0 204 59" fill="none" xmlns="http://www.w3.org/2000/svg">
<path d="M48.9271 49.6817L46.6644 43.5313C46.6644 43.5313 42.9877 47.6319 37.4741 47.6319C32.5953 47.6319 29.1312 43.3899 29.1312 36.6025C29.1312 27.9067 33.514 24.7961 37.8272 24.7961C44.0483 24.7961 46.0279 28.826 47.7248 33.987L49.9874 41.0569C52.2493 47.9144 56.4913 53.4286 68.7219 53.4286C77.4892 53.4286 83.4278 50.7424 83.4278 43.673C83.4278 37.9462 80.1749 34.9767 74.0949 33.5626L69.5704 32.5729C66.46 31.866 65.5411 30.5933 65.5411 28.4723C65.5411 26.0685 67.4494 24.6547 70.5607 24.6547C73.9541 24.6547 75.7921 25.9274 76.0751 28.9674L83.1447 28.1188C82.5792 21.7561 78.1961 19.1403 70.9845 19.1403C64.6221 19.1403 58.4005 21.544 58.4005 29.2501C58.4005 34.0577 60.7335 37.0979 66.6009 38.5117L71.4092 39.6428C75.0147 40.4914 76.2159 41.9759 76.2159 44.0262C76.2159 46.6415 73.6711 47.7021 68.8635 47.7021C61.7229 47.7021 58.7539 43.9552 57.0568 38.7942L54.7237 31.7249C51.755 22.534 47.0179 19.1403 37.6146 19.1403C27.2222 19.1403 21.7075 25.7151 21.7075 36.8853C21.7075 47.632 27.2222 53.4286 37.1203 53.4286C45.1087 53.4286 48.9271 49.6817 48.9271 49.6817Z" fill="#D41107"/>
<path d="M18.6722 46.3587C17.965 46.571 17.2581 46.7122 16.3391 46.7122C14.6422 46.7122 13.4402 45.9348 13.4402 43.884V5.35201H6.0166V45.6518C6.0166 50.9542 9.69334 53.1467 14.0058 53.1467C15.4198 53.1467 16.7632 52.934 18.4601 52.5104L18.6722 46.3587Z" fill="#D41107"/>
<path d="M108.102 45.2276C106.263 46.5009 104.708 47.1374 102.587 47.1374C99.9004 47.1374 98.4156 45.7233 98.4156 42.2589V25.714H108.173V19.917H98.4863V12.0687L90.9922 12.988V19.917H86.2548V25.714H90.9922V43.8136C90.9922 50.3193 94.7391 53.4286 100.819 53.4286C104.142 53.4286 107.112 52.7932 109.445 51.4501L108.102 45.2276Z" fill="#D41107"/>
<path d="M114.55 47.7725C114.55 50.6719 116.812 53.005 119.711 53.005C122.751 53.005 125.014 50.6719 125.014 47.7725C125.014 44.8032 122.751 42.5417 119.711 42.5417C116.812 42.5417 114.55 44.8032 114.55 47.7725Z" fill="#D41107"/>
<path d="M132.699 25.714V52.5806H140.122V25.714H148.465V19.917H140.122V16.9472C140.122 12.4934 142.032 11.0796 145.142 11.0796C147.334 11.0796 148.819 11.5739 150.516 12.4934L151.717 6.27127C149.738 5.35201 147.405 4.85718 144.577 4.85718C138.355 4.85718 132.699 7.82647 132.699 16.6642V19.917H127.962V25.714H132.699Z" fill="#D41107"/>
<path d="M178.046 26.351C177.197 21.0484 173.733 19.1386 169.208 19.1386C164.683 19.1386 160.795 21.1892 159.098 26.2088L158.179 19.917H152.169V52.5806H159.593V34.1281C159.593 27.835 162.845 25.4312 166.309 25.4312C169.915 25.4312 171.4 27.835 171.4 31.7238V52.5806H178.753V34.0574C178.753 27.835 182.076 25.4312 185.54 25.4312C189.075 25.4312 190.56 27.835 190.56 31.7238V52.5806H197.984V29.1085C197.984 22.109 193.883 19.1386 188.439 19.1386C183.844 19.1386 179.743 21.1892 178.046 26.351Z" fill="#D41107"/>
</svg>
