<svg width="199" height="60" viewBox="0 0 199 60" fill="none" xmlns="http://www.w3.org/2000/svg">
<path d="M45.0311 42.3063L52.022 46.2889L36.6376 55.2764L21.628 46.7117L28.2389 42.4668L36.5948 47.2363L45.0311 42.3063ZM16.3393 15.9751L16.366 24.0259L11.9606 26.5954L11.9927 33.3561L17.8702 36.7071L44.6778 21.0658L44.7045 29.1166L17.9077 44.7472L5.04992 37.4137L4.97498 22.6128L16.3393 15.9751ZM56.6363 15.7985L68.0862 22.3291L68.0916 37.0871L55.3087 44.5545L39.737 35.674L46.6637 31.6164L55.2659 36.5144L61.106 33.1045L61.0685 26.3438L56.663 23.8279L56.6363 15.7985ZM36.4235 4.42346L54.1257 14.5191L54.1846 32.2855L47.2044 28.303L47.1722 18.5713L36.4717 12.4689L25.8193 18.6891L25.8461 28.4154L23.4748 29.8018L18.898 32.7352L18.8445 14.7011L36.4235 4.42346ZM28.3299 21.1728L33.3616 24.0367L28.3513 26.9594L28.3299 21.1728Z" fill="#3F5DFF"/>
<path d="M130.009 22.9498C133.499 22.9498 135.426 25.5406 135.426 30.1388C135.426 34.6662 133.558 37.2995 130.169 37.3795L130.009 37.3813C128.304 37.4375 126.761 36.3763 126.203 34.7637H126.096V42.3542H122.713V23.2656H126.096V25.5406H126.203C126.748 23.9217 128.303 22.863 130.009 22.9498ZM173.93 22.9284C176.708 22.9284 178.534 24.2506 179.353 26.4185L176.574 27.6604C176.31 26.4726 175.253 25.6373 174.047 25.6443L173.93 25.6477C172.057 25.6477 171.104 26.9698 171.104 28.9023V31.4128C171.104 33.3452 172.057 34.6246 173.93 34.6246C175.536 34.6246 176.339 33.6985 176.842 32.4834L179.454 33.736C178.555 36.1662 176.623 37.3813 173.951 37.3813C169.862 37.3813 167.56 34.5817 167.56 30.1174C167.56 25.7012 169.862 22.9284 173.93 22.9284ZM99.9845 22.9284C103.924 22.9284 106.408 25.7012 106.408 30.1174C106.408 34.5336 103.951 37.3599 99.9845 37.3599C96.0179 37.3599 93.5877 34.5817 93.5877 30.1174C93.5877 25.7012 96.0447 22.9284 99.9845 22.9284ZM114.1 22.9284C118.061 22.9284 120.524 25.7012 120.524 30.1174C120.524 34.5336 118.061 37.3599 114.1 37.3599C110.139 37.3599 107.677 34.5817 107.677 30.1174C107.677 25.7012 110.139 22.9284 114.1 22.9284ZM159.466 22.9498C163.213 22.9498 165.178 24.7216 165.178 27.8638V34.3676H166.548V37.0441H164.675C163.219 37.0441 162.32 36.0913 162.111 34.6674H161.95C161.501 36.4392 159.996 37.3439 157.93 37.3439C155.109 37.3813 153.519 35.7701 153.519 33.3292C153.519 30.4974 155.66 29.1003 159.408 29.1003H161.79V28.0779C161.79 26.5416 161.024 25.6477 159.226 25.6477C157.943 25.6247 156.745 26.2878 156.083 27.3874L154.071 25.5941C155.077 23.9883 156.688 22.9498 159.466 22.9498ZM85.5155 18.6139V33.9715H92.7901V37.0762H82.0307V18.6139H85.5155ZM184.641 17.5005V29.277H184.77L186.595 26.7932L189.689 23.2496H193.522L188.763 28.6025L194.025 37.0762H190.005L186.461 30.8882L184.641 32.8741V37.0762H181.253V17.5005H184.641ZM146.539 18.6139C149.58 18.6139 151.426 20.4874 151.426 23.3459C151.426 26.2044 149.82 27.2054 148.124 27.3124V27.4677C149.729 27.4677 152.117 28.6346 152.117 31.75C152.117 34.7156 150.077 37.0387 147.358 37.0387H137.974V18.6139H146.539ZM161.79 31.1184H159.648C157.828 31.1184 156.972 31.7233 156.972 32.7939V33.2435C156.972 34.3516 157.737 34.9083 159.06 34.9083C160.553 34.935 161.79 34.2392 161.79 32.9437V31.1184ZM99.9845 25.6584C98.2127 25.6584 97.1314 26.7986 97.1314 28.8701V31.4342C97.1314 33.5219 98.2394 34.646 99.9845 34.646C101.73 34.646 102.864 33.5219 102.864 31.4342V28.8701C102.864 26.8093 101.756 25.6584 99.9845 25.6584ZM114.079 25.6584C112.312 25.6584 111.22 26.7986 111.22 28.8701V31.4342C111.22 33.5219 112.334 34.646 114.079 34.646C115.824 34.646 116.959 33.5219 116.959 31.4342V28.8701C116.959 26.8093 115.845 25.6584 114.079 25.6584ZM128.906 25.7226C127.301 25.7226 126.08 26.5951 126.08 27.9441V32.3335C126.08 33.7627 127.295 34.5817 128.906 34.5817C130.652 34.5817 131.867 33.3291 131.867 31.3539V28.9772C131.867 27.018 130.652 25.7226 128.906 25.7226ZM146.314 29.1485H141.448V34.1053H146.314C147.636 34.1053 148.429 33.3934 148.429 32.098V31.188C148.429 29.8926 147.636 29.1485 146.314 29.1485ZM145.758 21.5741H141.448V26.3061H145.758C146.297 26.3635 146.835 26.1776 147.224 25.799C147.613 25.4203 147.813 24.8881 147.77 24.3469V23.5279C147.77 22.286 147.026 21.5741 145.758 21.5741Z" fill="#001956"/>
</svg>
