<svg  viewBox="20 16 220 50" fill="none" xmlns="http://www.w3.org/2000/svg"><defs>
<clipPath id="clip0_0_1629">
<rect width="100" height="44.2857" fill="white" transform="translate(105 19)"/>
</clipPath>
</defs><path d="M41.8424 30.0527C45.2635 30.0527 38.9477 47.6842 39.7372 55.3157C40.5266 62.9476 48.9477 60.8421 48.4214 56.3684C47.3688 48.7368 52.6319 24.7896 57.6319 24.7896C61.3161 24.7896 53.4214 41.1052 55.0004 51.3684C56.053 57.9473 65.0004 56.1055 63.9477 51.6318C61.053 38.2107 70.5267 25.3159 69.2109 15.8422C68.6846 11.8948 66.3161 9.78955 63.9477 9.78955C55.5267 9.78955 48.6846 27.158 48.6846 27.158C48.6846 27.158 49.7372 17.4211 42.6319 16.8948C32.6319 16.3685 22.3688 41.6318 22.6319 64.5263C22.8951 71.8947 31.8424 70.5792 31.3161 64.7897C30.7898 54.5265 36.5793 30.0527 41.8424 30.0527Z" fill="#1DADFF"/><g clip-path="url(#clip0_0_1629)">
<path d="M190.143 48.143C154.286 45.2858 124.714 54.0001 118 57.2858C114.286 59.0001 114 61.143 114.571 62.2858C115 63.143 116.857 63.7144 118.714 62.7144C133 55.0001 161.714 48.8572 190.143 50.5715C190.857 50.5715 191.428 50.0001 191.428 49.2858C191.428 48.7144 190.857 48.143 190.143 48.143ZM199 37.2858C197.428 39.0001 195.286 40.2858 194.571 39.7144C193.857 39.143 194.571 37.0001 194.571 37.0001C198.143 34.7144 205 28.8572 205 24.2858C205 20.143 201.286 18.8572 197.428 22.7144C194.286 26.143 192 30.4287 190.714 35.0001C188.714 37.0001 185.428 39.5715 182.571 39.5715C181 39.5715 180.714 38.4287 180.857 37.0001C183.286 37.0001 190.143 35.0001 190.143 29.2858C190.143 28.2858 189.714 27.4287 189 26.7144C188.286 26.0001 187.428 25.7144 186.428 25.8572C183.286 25.8572 179.428 29.0001 177.428 33.5715C177 33.4287 176.428 33.2858 176 33.0001C176.571 31.8572 176.857 30.7144 177.286 29.5715C177.714 27.143 176.714 25.7144 174.857 26.0001C173.571 26.0001 172.143 27.143 171.714 29.5715C171.571 30.8572 171.857 32.143 172.286 33.143C171.428 35.8572 168 39.143 166.857 39.0001C165.714 38.8572 167 34.143 168.143 30.5715C168.857 29.8572 169.286 29.143 169.714 28.143C170 27.4287 169.857 26.5715 169.143 26.2858C167.428 25.5715 165.428 26.4287 164.714 28.143C164.286 29.0001 163.857 29.8572 163.428 30.8572C162.428 32.0001 161 33.5715 160.571 33.4287C160 33.0001 162.143 30.143 161.857 28.4287C161.714 27.143 160.428 26.143 159.143 26.2858C157.143 26.5715 154.714 30.2858 154.714 30.2858C155 29.5715 155.143 28.8572 155.286 28.143C155.143 26.7144 152.571 26.143 151.286 28.7144C150.428 31.143 149.714 33.7144 149.428 36.2858C148.857 37.4287 146.714 40.8572 145 41.0001C143.571 41.143 145.286 34.8572 145.571 34.5715C146.286 33.4287 147.286 31.0001 147.143 29.8572C147.143 29.2858 147 28.8572 146.571 28.5715C146.143 28.2858 145.571 28.143 145.143 28.2858C144.286 28.5715 143.571 29.143 143.143 29.8572C142.571 29.143 141.571 28.7144 140.571 28.8572C134.857 29.4287 131.286 39.4287 131.714 44.143C132 46.7144 133.286 48.2858 135.428 47.8572C137.857 47.5715 139.857 43.8572 139.857 43.8572C139.857 43.8572 140.428 46.8572 143.143 46.5715C145.143 46.0001 146.857 44.7144 148.143 43.0001C148.143 43.143 148 43.2858 148 43.5715C147.571 46.143 151.714 45.8572 152 43.8572C153.286 34.2858 156.428 30.4287 157.286 30.4287C158 30.4287 155.286 34.8572 156.857 36.7144C158.143 38.143 160.286 37.0001 162.143 35.4287C161.857 36.5715 161.714 37.8572 161.571 39.0001C161.428 41.7144 162.428 43.8572 165 43.7144C168.428 43.5715 172 39.2858 174.428 35.2858C175 35.7144 175.714 36.0001 176.428 36.143C176.143 37.143 176.143 38.143 176.143 39.0001C176.286 42.143 178.428 43.2858 181 43.143C183.857 43.0001 187.286 40.8572 189.571 38.7144C189.571 38.8572 189.571 39.0001 189.428 39.0001C189.286 40.5715 189.571 43.2858 191.714 43.4287C194.143 43.5715 198.428 41.143 200.571 38.4287C202.143 37.5715 200.286 35.8572 199 37.2858ZM201.286 24.4287C201.571 24.4287 201.714 24.7144 201.714 25.0001C201.714 27.7144 195.143 33.2858 195.143 33.2858C195.143 33.2858 199.428 24.4287 201.286 24.4287ZM185.286 30.0001C185.571 30.0001 185.714 30.0001 185.857 30.2858C186 30.5715 186 30.7144 186 30.8572C186 32.4287 184 33.5715 181.714 33.5715C183 31.7144 184.286 30.0001 185.286 30.0001ZM141 34.143C140.857 35.7144 138 43.0001 136.571 43.0001C134.714 43.143 137.571 32.8572 140.571 32.8572C141.143 32.8572 141.143 33.2858 141 34.143ZM116.857 36.143C118.714 36.143 115.286 45.7144 115.714 49.8572C116.143 54.0001 120.714 52.8573 120.428 50.4287C119.857 46.2858 122.714 33.2858 125.428 33.2858C127.428 33.2858 123.143 42.143 124 47.7144C124.571 51.2858 129.428 50.2858 128.857 47.8572C127.286 40.5715 132.428 33.5715 131.714 28.4287C131.428 26.2858 130.143 25.143 128.857 25.143C124.286 25.143 120.571 34.5715 120.571 34.5715C120.571 34.5715 121.143 29.2858 117.286 29.0001C111.857 28.7144 106.286 42.4287 106.428 54.8573C106.571 58.8573 111.428 58.143 111.143 55.0001C110.857 49.4287 114 36.143 116.857 36.143Z" fill="#57B3F9"/>
</g></svg>