<svg width="154" height="77" viewBox="0 0 154 77" fill="none" xmlns="http://www.w3.org/2000/svg">
<path d="M128.1 47.8766C74.8817 43.6361 30.9929 56.5695 21.0278 61.4461C15.5152 63.9904 15.0912 67.1707 15.9393 68.8669C16.5754 70.139 19.3317 70.9871 22.088 69.503C43.2903 58.0537 85.9069 48.9367 128.1 51.481C129.16 51.481 130.008 50.6329 130.008 49.5728C130.008 48.7247 129.16 47.8766 128.1 47.8766ZM141.245 31.7628C138.913 34.3071 135.732 36.2153 134.672 35.3672C133.612 34.5191 134.672 31.3388 134.672 31.3388C139.973 27.9464 150.15 19.2535 150.15 12.4687C150.15 6.32004 144.637 4.41184 138.913 10.1365C134.248 15.225 130.856 21.5857 128.948 28.3705C125.979 31.3388 121.103 35.1552 116.862 35.1552C114.53 35.1552 114.106 33.459 114.318 31.3388C117.922 31.3388 128.1 28.3705 128.1 19.8895C128.1 18.4054 127.463 17.1332 126.403 16.0731C125.343 15.013 124.071 14.5889 122.587 14.801C117.922 14.801 112.198 19.4655 109.23 26.2502C108.593 26.0382 107.745 25.8262 107.109 25.4021C107.957 23.7059 108.381 22.0098 109.017 20.3136C109.654 16.7092 108.169 14.5889 105.413 15.013C103.505 15.013 101.385 16.7092 100.749 20.3136C100.537 22.2218 100.961 24.13 101.597 25.6142C100.325 29.6426 95.236 34.5191 93.5398 34.3071C91.8436 34.0951 93.7518 27.0983 95.448 21.7977C96.5081 20.7376 97.1442 19.6775 97.7803 18.1933C98.2043 17.1332 97.9923 15.8611 96.9322 15.437C94.3879 14.3769 91.4196 15.6491 90.3594 18.1933C89.7234 19.4655 89.0873 20.7376 88.4512 22.2218C86.9671 23.918 84.8468 26.2502 84.2108 26.0382C83.3627 25.4021 86.543 21.1617 86.119 18.6174C85.9069 16.7092 83.9987 15.225 82.0905 15.437C79.1222 15.8611 75.5178 21.3737 75.5178 21.3737C75.9419 20.3136 76.1539 19.2535 76.3659 18.1933C76.1539 16.0731 72.3375 15.225 70.4293 19.0414C69.1571 22.6458 68.097 26.4622 67.673 30.2787C66.8249 31.9749 63.6445 37.0634 61.1002 37.2754C58.98 37.4875 61.5243 28.1584 61.9483 27.7344C63.0084 26.0382 64.4926 22.4338 64.2806 20.7376C64.2806 19.8895 64.0686 19.2535 63.4325 18.8294C62.7964 18.4054 61.9483 18.1933 61.3123 18.4054C60.0401 18.8294 58.98 19.6775 58.3439 20.7376C57.4958 19.6775 56.0117 19.0414 54.5275 19.2535C46.0466 20.1016 40.746 34.9432 41.3821 41.9399C41.8061 45.7564 43.7143 48.0886 46.8947 47.4525C50.4991 47.0285 53.4674 41.5159 53.4674 41.5159C53.4674 41.5159 54.3155 45.9684 58.3439 45.5443C61.3123 44.6962 63.8565 42.788 65.7647 40.2438C65.7647 40.4558 65.5527 40.6678 65.5527 41.0919C64.9166 44.9083 71.0653 44.4842 71.4894 41.5159C73.3976 27.3103 78.0621 21.5857 79.3342 21.5857C80.3943 21.5857 76.3659 28.1584 78.6982 30.9147C80.6064 33.035 83.7867 31.3388 86.543 29.0065C86.119 30.7027 85.907 32.6109 85.6949 34.3071C85.4829 38.3355 86.9671 41.5159 90.7835 41.3039C95.872 41.0919 101.173 34.7312 104.777 28.7945C105.625 29.4306 106.685 29.8546 107.745 30.0666C107.321 31.5508 107.321 33.035 107.321 34.3071C107.533 38.9716 110.714 40.6678 114.53 40.4558C118.771 40.2438 123.859 37.0634 127.251 33.8831C127.251 34.0951 127.251 34.3071 127.039 34.3071C126.827 36.6394 127.251 40.6678 130.432 40.8798C134.036 41.0919 140.397 37.4875 143.577 33.459C145.91 32.1869 143.153 29.6426 141.245 31.7628ZM144.637 12.6807C145.061 12.6807 145.273 13.1048 145.273 13.5288C145.273 17.5573 135.52 25.8262 135.52 25.8262C135.52 25.8262 141.881 12.6807 144.637 12.6807ZM120.891 20.9496C121.315 20.9496 121.527 20.9496 121.739 21.3737C121.951 21.7977 121.951 22.0098 121.951 22.2218C121.951 24.554 118.983 26.2502 115.59 26.2502C117.498 23.4939 119.407 20.9496 120.891 20.9496ZM55.1636 27.0983C54.9516 29.4306 50.7111 40.2438 48.5909 40.2438C45.8346 40.4558 50.075 25.1901 54.5275 25.1901C55.3756 25.1901 55.3756 25.8262 55.1636 27.0983ZM19.3317 30.0666C22.088 30.0666 16.9994 44.2722 17.6355 50.4209C18.2715 56.5695 25.0563 54.8734 24.6322 51.269C23.7841 45.1203 28.0246 25.8262 32.0531 25.8262C35.0214 25.8262 28.6607 38.9716 29.9328 47.2405C30.7809 52.5411 37.9897 51.0569 37.1416 47.4525C34.8094 36.6394 42.4422 26.2502 41.3821 18.6174C40.958 15.437 39.0498 13.7409 37.1416 13.7409C30.3569 13.7409 24.8443 27.7344 24.8443 27.7344C24.8443 27.7344 25.6924 19.8895 19.9677 19.4655C11.9109 19.0414 3.64194 39.3957 3.85397 57.8417C4.06599 63.7783 11.2748 62.7182 10.8507 58.0537C10.4267 49.7848 15.0912 30.0666 19.3317 30.0666Z" fill="#20B6FF"/>
</svg>
