<svg  viewBox="20 16 50 50" fill="none" xmlns="http://www.w3.org/2000/svg"><defs>
<clipPath id="clip0_0_3185">
<rect width="50" height="50" fill="white" transform="translate(20 16)"/>
</clipPath>
<clipPath id="clip1_0_3185">
<rect width="140" height="17.5" fill="white" transform="translate(93 32)"/>
</clipPath>
</defs><g clip-path="url(#clip0_0_3185)">
<path d="M45 28.5C45 21.5964 50.5965 16 57.5 16C64.4035 16 70 21.5964 70 28.5C70 35.4035 64.4035 41 57.5 41C50.5965 41 45 35.4035 45 28.5Z" fill="#158D71"/>
<path d="M20 41H45V53.5C45 60.4035 39.4035 66 32.5 66C25.5964 66 20 60.4035 20 53.5V41Z" fill="#158D71"/>
<path d="M45 53.5C45 46.5965 50.5965 41 57.5 41C64.4035 41 70 46.5965 70 53.5V66H45V53.5Z" fill="#011936"/>
<path d="M20 28.5C20 21.5964 25.5964 16 32.5 16C39.4035 16 45 21.5964 45 28.5C45 35.4035 39.4035 41 32.5 41C25.5964 41 20 35.4035 20 28.5Z" fill="#011936"/>
</g><g clip-path="url(#clip1_0_3185)">
<path d="M101.75 36.375C101.75 33.9588 103.709 32 106.125 32C108.541 32 110.5 33.9588 110.5 36.375C110.5 38.7912 108.541 40.75 106.125 40.75C103.709 40.75 101.75 38.7912 101.75 36.375Z" fill="#158D71"/>
<path d="M93 40.75H101.75V45.125C101.75 47.5412 99.7912 49.5 97.375 49.5C94.9588 49.5 93 47.5412 93 45.125V40.75Z" fill="#158D71"/>
<path d="M101.75 45.125C101.75 42.7088 103.709 40.75 106.125 40.75C108.541 40.75 110.5 42.7088 110.5 45.125V49.5H101.75V45.125Z" fill="#011936"/>
<path d="M93 36.375C93 33.9588 94.9588 32 97.375 32C99.7912 32 101.75 33.9588 101.75 36.375C101.75 38.7912 99.7912 40.75 97.375 40.75C94.9588 40.75 93 38.7912 93 36.375Z" fill="#011936"/>
<path d="M122.977 43.0375C122.96 44.805 121.595 45.4875 120.457 45.4875C119.32 45.4875 118.497 44.6125 118.497 43.23V38.54H116.975V43.265C116.957 45.5575 118.217 46.9225 120.265 46.9225C121.175 46.9225 122.487 46.4675 122.977 45.435V46.7125H124.5V38.54H122.977V43.0375Z" fill="black"/>
<path d="M129.455 46.9226C131.153 46.9226 132.623 45.9601 132.623 44.4376C132.623 43.5101 132.185 42.4951 130.488 42.0751L129.28 41.7776C128.755 41.6551 128.23 41.3576 128.23 40.7976C128.23 40.1676 128.755 39.6601 129.543 39.6601C130.19 39.6601 130.838 40.0801 130.855 40.7101H132.325C132.325 39.0651 130.89 38.3301 129.508 38.3301C127.863 38.3301 126.708 39.3976 126.708 40.7451C126.708 42.0576 127.495 42.7226 128.86 43.0901L129.98 43.3526C130.628 43.4926 131.1 43.8076 131.1 44.4201C131.1 45.0851 130.488 45.5926 129.455 45.5926C128.458 45.5926 127.845 45.0151 127.828 44.3151H126.41C126.48 45.9951 127.985 46.9226 129.455 46.9226Z" fill="black"/>
<path d="M142.293 42.6001C142.293 40.0101 140.561 38.3301 138.233 38.3301C135.906 38.3301 134.033 40.0101 134.033 42.6001C134.033 45.1901 135.906 46.9226 138.233 46.9226C139.808 46.9226 141.278 46.1526 141.978 44.7351L140.666 44.2101C140.193 45.0326 139.283 45.4876 138.286 45.4876C136.886 45.4876 135.836 44.7351 135.608 43.2826H142.258C142.276 43.0551 142.293 42.8276 142.293 42.6001ZM135.626 41.9701C135.871 40.5001 136.851 39.7651 138.233 39.7651C139.581 39.7651 140.578 40.5701 140.771 41.9701H135.626Z" fill="black"/>
<path d="M148.114 38.3301C147.029 38.3301 146.241 38.9601 145.821 40.3951V38.5401H144.281V46.7126H145.821V43.7201C145.821 41.5676 146.469 39.8001 148.096 39.8001C148.411 39.8001 148.849 39.8701 149.286 40.0801L149.531 38.6451C149.286 38.4876 148.691 38.3301 148.114 38.3301Z" fill="black"/>
<path d="M156.29 36.545C156.885 36.545 157.375 36.1075 157.375 35.53C157.375 34.9525 156.885 34.515 156.29 34.515C155.713 34.515 155.223 34.9525 155.223 35.53C155.223 36.1075 155.713 36.545 156.29 36.545ZM157.06 46.7125V38.54H155.538V46.7125H157.06Z" fill="black"/>
<path d="M163.856 38.3301C162.964 38.3301 161.634 38.7851 161.144 39.7826V38.5401H159.621V46.7126H161.144V42.2851C161.144 40.5176 162.509 39.8351 163.646 39.8351C164.784 39.8351 165.624 40.7101 165.624 42.0751V46.7126H167.146V41.9876C167.164 39.6951 165.886 38.3301 163.856 38.3301Z" fill="black"/>
<path d="M171.649 38.5401V35.4601H170.126V38.5401H168.656V39.8526H170.126V46.7126H171.649V39.8526H173.416V38.5401H171.649Z" fill="black"/>
<path d="M182.578 42.6001C182.578 40.0101 180.846 38.3301 178.518 38.3301C176.191 38.3301 174.318 40.0101 174.318 42.6001C174.318 45.1901 176.191 46.9226 178.518 46.9226C180.093 46.9226 181.563 46.1526 182.263 44.7351L180.951 44.2101C180.478 45.0326 179.568 45.4876 178.571 45.4876C177.171 45.4876 176.121 44.7351 175.893 43.2826H182.543C182.561 43.0551 182.578 42.8276 182.578 42.6001ZM175.911 41.9701C176.156 40.5001 177.136 39.7651 178.518 39.7651C179.866 39.7651 180.863 40.5701 181.056 41.9701H175.911Z" fill="black"/>
<path d="M188.399 38.3301C187.314 38.3301 186.526 38.9601 186.106 40.3951V38.5401H184.566V46.7126H186.106V43.7201C186.106 41.5676 186.754 39.8001 188.381 39.8001C188.696 39.8001 189.134 39.8701 189.571 40.0801L189.816 38.6451C189.571 38.4876 188.976 38.3301 188.399 38.3301Z" fill="black"/>
<path d="M194.413 44.77L191.893 38.54H190.266L193.661 46.7125H195.148L198.561 38.54H196.916L194.413 44.77Z" fill="black"/>
<path d="M200.818 36.545C201.413 36.545 201.903 36.1075 201.903 35.53C201.903 34.9525 201.413 34.515 200.818 34.515C200.24 34.515 199.75 34.9525 199.75 35.53C199.75 36.1075 200.24 36.545 200.818 36.545ZM201.588 46.7125V38.54H200.065V46.7125H201.588Z" fill="black"/>
<path d="M211.864 42.6001C211.864 40.0101 210.131 38.3301 207.804 38.3301C205.476 38.3301 203.604 40.0101 203.604 42.6001C203.604 45.1901 205.476 46.9226 207.804 46.9226C209.379 46.9226 210.849 46.1526 211.549 44.7351L210.236 44.2101C209.764 45.0326 208.854 45.4876 207.856 45.4876C206.456 45.4876 205.406 44.7351 205.179 43.2826H211.829C211.846 43.0551 211.864 42.8276 211.864 42.6001ZM205.196 41.9701C205.441 40.5001 206.421 39.7651 207.804 39.7651C209.151 39.7651 210.149 40.5701 210.341 41.9701H205.196Z" fill="black"/>
<path d="M222.044 44.35L219.944 38.54H218.456L216.374 44.35L214.291 38.54H212.646L215.761 46.7125H217.021L219.191 40.64L221.449 46.7125H222.726L225.771 38.54H224.126L222.044 44.35Z" fill="black"/>
<path d="M229.561 46.9226C231.258 46.9226 232.728 45.9601 232.728 44.4376C232.728 43.5101 232.291 42.4951 230.593 42.0751L229.386 41.7776C228.861 41.6551 228.336 41.3576 228.336 40.7976C228.336 40.1676 228.861 39.6601 229.648 39.6601C230.296 39.6601 230.943 40.0801 230.961 40.7101H232.431C232.431 39.0651 230.996 38.3301 229.613 38.3301C227.968 38.3301 226.813 39.3976 226.813 40.7451C226.813 42.0576 227.601 42.7226 228.966 43.0901L230.086 43.3526C230.733 43.4926 231.206 43.8076 231.206 44.4201C231.206 45.0851 230.593 45.5926 229.561 45.5926C228.563 45.5926 227.951 45.0151 227.933 44.3151H226.516C226.586 45.9951 228.091 46.9226 229.561 46.9226Z" fill="black"/>
</g></svg>