<svg  viewBox="20 16 50 50" fill="none" xmlns="http://www.w3.org/2000/svg"><defs>
<clipPath id="clip0_0_835">
<rect width="50" height="50" fill="white" transform="translate(20 16)"/>
</clipPath>
<clipPath id="clip1_0_835">
<rect width="100" height="22.2222" fill="white" transform="translate(102 30)"/>
</clipPath>
</defs><g clip-path="url(#clip0_0_835)">
<path d="M66.8373 63.8148C65.4742 63.8148 64.6319 62.7493 64.6319 61.4457C64.6319 60.0498 65.5961 59.0767 66.8373 59.0767C68.0664 59.0767 69.0278 60.0498 69.0278 61.4457C69.0278 62.8446 68.0664 63.8148 66.8373 63.8148ZM66.8373 58.8088C65.4414 58.8088 64.248 59.8593 64.248 61.4457C64.248 62.9457 65.3254 64.0736 66.8373 64.0736C68.2152 64.0736 69.4147 63.0291 69.4147 61.4457C69.4147 59.8593 68.2152 58.8088 66.8373 58.8088Z" fill="#072F54"/>
<path d="M66.2184 61.2285V60.2671H66.8672C67.1946 60.2671 67.5815 60.3178 67.5815 60.7166C67.5815 61.1897 67.2243 61.2285 66.8167 61.2285H66.2184ZM68.0608 60.779C68.0608 60.1512 67.6739 59.8833 66.9239 59.8833H65.7422V62.9993H66.2572V61.6659H66.7334L67.5398 62.9993H68.1203L67.2453 61.6302C67.7184 61.5738 68.0608 61.3445 68.0608 60.779Z" fill="#072F54"/>
<path d="M49.0467 35.071L48.0467 32.2406L39.5645 20.9043L41.0883 20.5263L55.7133 33.1692L64.3205 30.7079C65.3324 30.446 66.4812 30.3894 67.3562 30.3954C64.6507 24.5621 59.7014 19.7734 53.1657 17.446C40.246 12.8418 26.0406 19.5918 21.4454 32.5174C20.0228 36.5144 19.6835 40.6395 20.2817 44.5621L40.9008 37.3984L49.0467 35.071Z" fill="#072F54"/>
<path d="M68.2628 32.6301C67.5068 33.1212 66.3966 33.7641 65.2954 34.1182L56.6704 36.5795L50.9144 55.0558L49.4204 55.5408L50.6347 41.4308L49.9561 38.4992L41.8729 40.8058L20.5098 45.8356C22.2002 54.0587 28.0217 61.2194 36.5068 64.2432C49.4294 68.8475 63.6287 62.0944 68.2239 49.1777C70.2061 43.6094 70.0782 37.7998 68.2628 32.6301Z" fill="#072F54"/>
<path d="M49.9538 38.5006L50.6355 41.4292L49.4181 55.5392L50.9121 55.0542L56.6681 36.581L65.2931 34.1197C66.3943 33.7655 67.5045 33.1167 68.2605 32.6316C67.9955 31.8726 67.6919 31.1256 67.3557 30.3964C66.4807 30.3905 65.3319 30.45 64.32 30.706L55.7128 33.1732L41.0848 20.5244L39.564 20.9054L48.0431 32.2417L49.0462 35.0691L40.8973 37.4024L20.2812 44.5601C20.3467 44.9887 20.4211 45.4142 20.5074 45.8368L41.8735 40.807L49.9538 38.5006Z" fill="#FBC108"/>
</g><g clip-path="url(#clip1_0_835)">
<path d="M123.229 44.4125C125.172 38.7197 122.132 32.5299 116.439 30.5867C110.747 28.6439 104.557 31.6838 102.614 37.3761C100.671 43.0689 103.711 49.2587 109.403 51.2019C115.096 53.1447 121.286 50.1048 123.229 44.4125Z" fill="black"/>
<path d="M103.699 46.6893C105.394 45.8805 111.163 43.0489 112.3 42.3825C113.234 41.8383 114.624 41.0359 114.624 41.0359L115.214 42.238L116.115 48.1624L116.803 47.7652L117.26 39.4903C118.651 38.6214 119.875 37.7758 121.157 36.8912C121.627 36.5669 122.105 36.237 122.6 35.8991C122.443 35.5955 122.272 35.2995 122.088 35.0129C121.547 35.2733 121.023 35.5218 120.508 35.7666C119.1 36.4344 117.756 37.072 116.308 37.841L108.913 34.1003L108.225 34.4975L112.906 38.2395L113.651 39.3493L113.652 39.3514C113.652 39.3514 112.262 40.1543 111.323 40.6912C110.178 41.3425 104.84 44.9235 103.293 45.9864C103.42 46.226 103.555 46.4602 103.699 46.6893Z" fill="#FFC94C"/>
<path d="M199.76 38.4704V37.275H201.867V48.1663H199.699V46.9295C198.926 47.8306 197.838 48.4255 196.266 48.4255C193.169 48.4255 191.18 45.9577 191.18 42.7272C191.18 39.5188 193.169 37.0286 196.266 37.0286C197.641 37.0286 198.917 37.5477 199.76 38.4704ZM199.614 40.6079C198.973 39.6581 197.887 39.0738 196.612 39.0738C194.694 39.0738 193.374 40.6968 193.374 42.7272C193.374 44.7577 194.646 46.429 196.612 46.429C197.925 46.429 198.987 45.6807 199.614 44.7111V40.6079Z" fill="black"/>
<path d="M186.814 34.4708C186.814 33.6337 187.5 32.957 188.346 32.957C189.166 32.957 189.86 33.6515 189.86 34.4708C189.86 35.3169 189.183 36.0024 188.346 36.0024C187.5 36.0024 186.814 35.3169 186.814 34.4708Z" fill="black"/>
<path d="M187.211 48.1666H189.464V37.2744H187.211V48.1666Z" fill="black"/>
<path d="M182.808 33.2363H185.012V48.1664H182.844V46.9296C182.071 47.8307 180.983 48.4256 179.41 48.4256C176.314 48.4256 174.324 45.9578 174.324 42.7273C174.324 39.5189 176.314 37.0286 179.41 37.0286C180.735 37.0286 181.966 37.5097 182.808 38.368V33.2363ZM182.76 40.608C182.118 39.6582 181.033 39.0739 179.756 39.0739C177.839 39.0739 176.519 40.6969 176.519 42.7273C176.519 44.7577 177.791 46.4291 179.756 46.4291C181.069 46.4291 182.132 45.6809 182.76 44.7111V40.608Z" fill="black"/>
<path fill-rule="evenodd" clip-rule="evenodd" d="M170.656 47.8914C169.854 48.2568 168.962 48.441 167.978 48.4435C164.736 48.4402 162.395 46.0515 162.395 42.7178C162.395 39.4492 164.739 36.9924 167.85 36.9924C170.938 36.9924 173.17 39.517 173.17 42.6276C173.17 42.8897 173.16 43.1488 173.14 43.4088L173.14 43.4151C173.138 43.4372 173.137 43.4596 173.135 43.4817H164.665C164.877 45.15 166.341 46.4174 168.023 46.4174C168.735 46.4174 169.367 46.2776 169.922 46.0007C170.482 45.7065 170.985 45.3427 171.432 44.868L171.435 44.8647L172.78 46.2984C172.172 46.992 171.463 47.523 170.656 47.8914ZM167.803 38.9758C169.404 38.9758 170.65 40.1056 170.867 41.6206H164.719C164.82 40.9838 165.182 40.3359 165.714 39.8401C166.268 39.3231 167.002 38.9758 167.803 38.9758Z" fill="black"/>
<path d="M152.833 47.0747V52.2064H150.629V37.2763H152.797V38.5131C153.571 37.6124 154.658 37.0171 156.231 37.0171C159.327 37.0171 161.317 39.4849 161.317 42.7154C161.317 45.9238 159.327 48.414 156.231 48.414C154.906 48.414 153.675 47.9334 152.833 47.0747ZM152.882 44.8347C153.523 45.7845 154.609 46.3688 155.885 46.3688C157.802 46.3688 159.122 44.7458 159.122 42.7154C159.122 40.6854 157.85 39.0136 155.885 39.0136C154.572 39.0136 153.51 39.7618 152.882 40.732V44.8347Z" fill="black"/>
<path d="M142.814 42.5671L138.972 37.2754H141.692L144.254 40.8848L146.817 37.2754H149.5L145.642 42.59L149.679 48.1667H146.956L144.225 44.3121L141.494 48.1667H138.76L142.814 42.5671Z" fill="black"/>
<path d="M131.713 41.7769H137.371V39.6397H131.713V35.7572H137.861V33.6201H129.252V48.1666H137.906V46.0295H131.713V41.7769Z" fill="black"/>
</g></svg>