<svg width="158" height="76" viewBox="0 0 158 76" fill="none" xmlns="http://www.w3.org/2000/svg">
<path fill-rule="evenodd" clip-rule="evenodd" d="M154.05 6.83132V53.246C154.05 54.4865 153.041 55.4919 151.798 55.4919H100.014V68.2185C100.014 69.4589 99.006 70.4643 97.7625 70.4643H6.20145C4.95787 70.4643 3.94995 69.4589 3.94995 68.2185V21.8038C3.94995 20.5641 4.95787 19.5579 6.20145 19.5579H95.511V6.83132C95.511 5.59085 96.5196 4.58545 97.7625 4.58545H151.798C153.041 4.58545 154.05 5.59085 154.05 6.83132ZM139.217 20.1568C139.217 19.8267 138.947 19.5579 138.617 19.5579H135.615C135.285 19.5579 135.015 19.8267 135.015 20.1568V31.4139C135.015 31.5935 134.805 31.6534 134.745 31.4738L130.633 20.0969C130.543 19.8267 130.333 19.5579 129.882 19.5579H126.311C125.981 19.5579 125.71 19.8267 125.71 20.1568V39.9167C125.71 40.2461 125.981 40.5156 126.311 40.5156H129.312C129.643 40.5156 129.912 40.2461 129.912 39.9167V29.5573C129.912 29.3776 130.123 29.3185 130.183 29.4974L134.265 40.0066C134.355 40.2461 134.565 40.5156 135.075 40.5156H138.617C138.947 40.5156 139.217 40.2461 139.217 39.9167V20.1568ZM122.377 37.072C122.377 36.7433 122.107 36.4738 121.776 36.4738H119.225C119.045 36.4738 118.925 36.3548 118.925 36.1744V23.8992C118.925 23.7195 119.045 23.599 119.225 23.599H121.477C121.806 23.599 122.076 23.3302 122.076 23.0008V20.1568C122.076 19.8267 121.806 19.5579 121.477 19.5579H112.172C111.842 19.5579 111.571 19.8267 111.571 20.1568V23.0008C111.571 23.3302 111.842 23.599 112.172 23.599H114.423C114.603 23.599 114.723 23.7195 114.723 23.8992V36.1744C114.723 36.3548 114.603 36.4738 114.423 36.4738H111.872C111.542 36.4738 111.271 36.7433 111.271 37.072V39.9167C111.271 40.2461 111.542 40.5156 111.872 40.5156H121.776C122.107 40.5156 122.377 40.2461 122.377 39.9167V37.072ZM95.511 24.0497H8.8282C8.62106 24.0497 8.45295 24.2181 8.45295 24.424V65.5983C8.45295 65.8049 8.62106 65.9726 8.8282 65.9726H95.1357C95.3428 65.9726 95.511 65.8049 95.511 65.5983V24.0497ZM82.2083 51.2966C82.5386 51.2966 82.8087 51.5661 82.8087 51.8955V54.8892C82.8087 55.2186 82.5386 55.4881 82.2083 55.4881H71.1933C70.863 55.4881 70.5928 55.2186 70.5928 54.8892V35.1293C70.5928 34.7992 70.863 34.5304 71.1933 34.5304H82.0883C82.4185 34.5304 82.6887 34.7992 82.6887 35.1293V38.123C82.6887 38.4524 82.4185 38.7219 82.0883 38.7219H75.0951C74.915 38.7219 74.7942 38.8417 74.7942 39.0214V42.614C74.7942 42.7937 74.915 42.9135 75.0951 42.9135H81.8481C82.1783 42.9135 82.4485 43.183 82.4485 43.5124V46.5061C82.4485 46.8363 82.1783 47.105 81.8481 47.105H75.0951C74.915 47.105 74.7942 47.2248 74.7942 47.4045V50.9971C74.7942 51.1768 74.915 51.2966 75.0951 51.2966H82.2083ZM66.6587 34.5304C66.9882 34.5304 67.2584 34.7992 67.2584 35.1293V54.8892C67.2584 55.2186 66.9882 55.4881 66.6587 55.4881H63.1164C62.606 55.4881 62.3959 55.2186 62.3066 54.9791L58.2239 44.4699C58.1638 44.291 57.9537 44.3501 57.9537 44.5298V54.8892C57.9537 55.2186 57.6843 55.4881 57.3533 55.4881H54.352C54.0226 55.4881 53.7516 55.2186 53.7516 54.8892V35.1293C53.7516 34.7992 54.0226 34.5304 54.352 34.5304H57.9237C58.3747 34.5304 58.5841 34.7992 58.6742 35.0694L62.7862 46.4462C62.8469 46.6259 63.0563 46.566 63.0563 46.3864V35.1293C63.0563 34.7992 63.3265 34.5304 63.6567 34.5304H66.6587ZM49.7275 34.5304C50.0584 34.5304 50.3279 34.7992 50.3279 35.1293V49.2012C50.3279 52.8238 47.3266 55.8175 43.1838 55.8175C39.1026 55.8175 36.1006 52.8238 36.1006 49.2012V35.1293C36.1006 34.7992 36.3708 34.5304 36.7018 34.5304H39.733C40.0625 34.5304 40.3334 34.7992 40.3334 35.1293V49.2012C40.3334 50.518 41.4134 51.596 43.1838 51.596C45.0158 51.596 46.0958 50.518 46.0958 49.2012V35.1293C46.0958 34.7992 46.366 34.5304 46.6962 34.5304H49.7275ZM33.2172 35.1293V38.123C33.2172 38.4524 32.947 38.7219 32.6168 38.7219H28.8651C28.6849 38.7219 28.5649 38.8417 28.5649 39.0214V54.8892C28.5649 55.2186 28.2939 55.4881 27.9645 55.4881H24.9632C24.633 55.4881 24.3628 55.2186 24.3628 54.8892V39.0214C24.3628 38.8417 24.2427 38.7219 24.0626 38.7219H20.3109C19.9799 38.7219 19.7105 38.4524 19.7105 38.123V35.1293C19.7105 34.7992 19.9799 34.5304 20.3109 34.5304H32.6168C32.947 34.5304 33.2172 34.7992 33.2172 35.1293Z" fill="#14D8CC"/>
</svg>
