<svg width="199" height="60" viewBox="0 0 199 60" fill="none" xmlns="http://www.w3.org/2000/svg">
<path d="M19.1736 38.5352C19.1694 38.4891 19.1515 38.4453 19.122 38.4096C19.0339 38.2987 18.8889 38.3324 18.7486 38.3653C18.6408 38.3947 18.5297 38.4104 18.4179 38.412C18.2994 38.4147 18.1821 38.3881 18.0764 38.3343C17.9707 38.2806 17.88 38.2015 17.8124 38.1041C17.7324 37.9408 17.693 37.7606 17.6975 37.5788C17.7021 37.397 17.7504 37.2189 17.8385 37.0598C17.8624 37.0023 17.8907 36.9388 17.9217 36.8695C18.1665 36.4621 18.3142 36.0038 18.3534 35.5301C18.3925 35.0563 18.3221 34.58 18.1474 34.1379C17.975 33.7782 17.7161 33.4669 17.3938 33.2318C17.0716 32.9968 16.696 32.8453 16.3009 32.791C15.9278 32.7434 15.5488 32.7852 15.1952 32.9131C14.8416 33.041 14.5235 33.2512 14.2672 33.5264C13.962 33.8531 13.7354 34.245 13.6045 34.6724C13.4736 35.0998 13.4419 35.5515 13.5117 35.993C13.5674 36.1457 13.6543 36.1879 13.7175 36.1967C13.8511 36.2146 14.0483 36.1173 14.172 35.7836C14.1809 35.7596 14.1927 35.7224 14.2072 35.6751C14.2827 35.4063 14.3922 35.1483 14.533 34.9072C14.6326 34.7506 14.7624 34.6154 14.915 34.5097C15.0675 34.404 15.2397 34.3299 15.4213 34.2916C15.6067 34.2513 15.7983 34.2485 15.9847 34.2834C16.1712 34.3183 16.3488 34.3903 16.507 34.4949C16.7743 34.672 16.9726 34.9356 17.0685 35.2416C17.1643 35.5476 17.152 35.8772 17.0334 36.1751C16.8457 36.6506 16.7524 37.1581 16.7587 37.6693C16.7441 38.0444 16.8724 38.411 17.1177 38.6951C17.363 38.9792 17.707 39.1596 18.0802 39.1998C18.2897 39.2191 18.5003 39.1796 18.6884 39.0856C18.8766 38.9916 19.0347 38.847 19.1451 38.6679C19.1677 38.6276 19.1777 38.5813 19.1736 38.5352Z" fill="#241C15"/>
<path d="M41.6496 26.9211C41.7505 27.446 41.9682 27.9416 42.2867 28.371C42.6157 28.3305 42.9484 28.3305 43.2774 28.371C43.4698 27.7947 43.4866 27.1743 43.3258 26.5885C43.088 25.5075 42.7662 24.8533 42.1013 24.955C41.4365 25.0569 41.412 25.8401 41.6496 26.9211Z" fill="#241C15"/>
<path d="M40.9094 31.7609C40.7185 31.7926 40.5227 31.7529 40.3592 31.6494C39.9385 31.4532 39.7196 31.0577 39.8704 30.7663C39.9916 30.6154 40.1641 30.5145 40.3549 30.4827C40.5458 30.4509 40.7417 30.4905 40.9052 30.594C41.3259 30.7904 41.5446 31.1859 41.394 31.4775C41.2728 31.6283 41.1003 31.7292 40.9094 31.7609Z" fill="#241C15"/>
<path d="M42.5536 29.4203C42.7179 29.3617 42.8965 29.356 43.0642 29.4042C43.2508 29.4359 43.4179 29.5385 43.5306 29.6907C43.6432 29.8428 43.6927 30.0326 43.6686 30.2204C43.6657 30.3948 43.6082 30.564 43.5043 30.7041C43.4003 30.8442 43.255 30.9482 43.0889 31.0014C42.9228 31.0547 42.7441 31.0546 42.5781 31.0012C42.412 30.9477 42.2669 30.8436 42.163 30.7034C42.0592 30.5631 42.0019 30.3939 41.9992 30.2195C41.9965 30.0451 42.0485 29.8742 42.148 29.7308C42.2474 29.5874 42.3892 29.4788 42.5536 29.4203Z" fill="#241C15"/>
<path d="M32.0246 29.3076C31.9185 29.2926 31.8733 29.2472 31.86 29.1871C31.8188 29.0006 32.1056 28.6937 32.4079 28.4722C32.8491 28.1496 33.3659 27.946 33.9086 27.8808C34.4513 27.8157 35.0016 27.8912 35.5066 28.1002C35.9785 28.2949 36.3843 28.6215 36.6753 29.0409C36.7834 29.2172 36.8043 29.3539 36.7344 29.4256C36.6315 29.5341 36.3779 29.4226 35.9688 29.2426L35.8959 29.2106C35.3529 28.9442 34.7529 28.815 34.1484 28.8343C33.4322 28.9521 32.7231 29.1101 32.0246 29.3076Z" fill="#241C15"/>
<path d="M35.8219 29.7878C36.0912 29.8761 36.3343 30.0297 36.5296 30.235C36.5512 30.261 36.5643 30.2929 36.5673 30.3265C36.5703 30.3601 36.563 30.3938 36.5463 30.4231C36.4831 30.5221 36.3486 30.507 36.0677 30.4753L36.046 30.4729C35.4078 30.3742 34.7549 30.442 34.1506 30.6697C34.0126 30.7273 33.8679 30.7674 33.7199 30.7891C33.6841 30.7895 33.6495 30.7764 33.623 30.7523C33.6081 30.7388 33.5963 30.7222 33.5886 30.7037C33.5808 30.6851 33.5772 30.6651 33.578 30.645C33.6129 30.4644 33.7156 30.3041 33.865 30.1968C34.1857 29.9355 34.5754 29.773 34.9867 29.7293C35.2657 29.6794 35.5526 29.6995 35.8219 29.7878Z" fill="#241C15"/>
<path fill-rule="evenodd" clip-rule="evenodd" d="M53.7107 39.2731C53.6323 40.8837 53.292 42.4708 52.7032 43.972C49.7658 51.0322 42.7559 54.9626 34.4051 54.7138C26.6203 54.4819 19.9807 50.3614 17.0747 43.6445C15.2402 43.5932 13.4852 42.8844 12.1296 41.6473C10.7293 40.4535 9.82955 38.7763 9.60939 36.9494C9.4673 35.6925 9.62274 34.4197 10.0632 33.234L8.4312 31.8473C0.963859 25.523 24.3197 -0.516697 31.7899 6.01881C31.8224 6.04715 33.6842 7.87912 34.2039 8.39047L34.3373 8.52172C34.3472 8.51664 35.7186 7.93337 35.7255 7.93052C42.2775 5.20909 47.5941 6.5231 47.6008 10.8652C47.6042 13.1234 46.1697 15.7555 43.8718 18.1447C44.7901 19.0794 45.4404 20.2438 45.7544 21.516C46.0078 22.4035 46.1447 23.3203 46.1618 24.2431C46.1893 24.8786 46.2189 26.0978 46.236 26.8039L46.2362 26.8085C46.2438 27.1223 46.2489 27.3336 46.2503 27.3453C46.2827 27.3552 46.5022 27.416 46.7253 27.4778C46.9032 27.5271 47.0838 27.5771 47.173 27.6023C48.5097 27.8955 49.7537 28.5135 50.7949 29.4017C51.3445 29.939 51.7044 30.6406 51.8204 31.4005C51.9621 32.3864 51.716 33.3889 51.134 34.1973C51.2855 34.5427 51.4169 34.8965 51.5276 35.257C51.6979 35.8047 51.8274 36.2703 51.8707 36.4259L51.8834 36.4715C52.5942 36.4715 53.7107 37.2923 53.7107 39.2731ZM20.7106 35.399C20.2028 32.1022 17.9794 30.9403 16.4707 30.8574C16.092 30.8373 15.7123 30.8644 15.3403 30.938C12.6476 31.4829 11.1268 33.7805 11.426 36.7659C11.644 38.1051 12.3071 39.3316 13.3083 40.2473C14.3094 41.1631 15.5901 41.7144 16.9433 41.8124C17.2023 41.8193 17.4613 41.801 17.7168 41.7579C20.446 41.2911 21.1605 38.3186 20.7106 35.399ZM25.3131 14.4709C27.5941 12.5957 30.0273 10.9137 32.5875 9.44234C32.5875 9.44234 30.5546 7.07812 29.9407 6.90389C26.1649 5.8801 18.0084 11.5224 12.8007 18.9767C10.6935 21.9928 7.67698 27.3342 9.11922 30.0812C9.63158 30.6978 10.2095 31.2567 10.8429 31.7482C11.8071 30.389 13.2621 29.4581 14.9001 29.152C16.9495 23.391 20.5536 18.3097 25.3131 14.4709ZM33.5195 40.5599C33.6195 40.9981 33.8361 41.4011 34.1463 41.7263C34.4565 42.0515 34.8487 42.287 35.2816 42.4077C35.732 42.5755 36.1966 42.7021 36.6699 42.7858C42.6425 43.8163 48.2262 40.391 49.4835 39.5282C49.5778 39.4634 49.6402 39.5266 49.5645 39.6409C49.5266 39.7018 49.4855 39.7606 49.4413 39.817C47.9027 41.8077 43.7663 44.113 38.3847 44.1122C36.0376 44.1118 33.6917 43.2824 32.8304 42.008C31.494 40.0305 32.7641 37.1441 34.9908 37.4449C34.9935 37.4453 35.7528 37.5316 35.9662 37.5554C39.4275 37.8882 42.9164 37.3282 46.0996 35.9288C49.1376 34.5143 50.2852 32.9576 50.1131 31.6974C50.0555 31.3061 49.8716 30.9443 49.5893 30.6671C48.7585 29.9833 47.7721 29.5146 46.7171 29.3026C46.6184 29.2748 46.5262 29.249 46.4389 29.2247C46.0996 29.13 45.8351 29.0561 45.5545 28.9634C44.9274 28.7562 44.6175 28.5895 44.5472 27.4067C44.5166 26.8894 44.4267 25.0874 44.3941 24.3426C44.3368 23.0378 44.1805 21.2542 43.077 20.5178C42.7961 20.3329 42.4699 20.2283 42.1339 20.2154C41.9455 20.2039 41.7564 20.2225 41.5738 20.2704C41.0149 20.3998 40.5055 20.6886 40.1075 21.1019C39.5918 21.568 38.9854 21.9225 38.3262 22.1432C37.6671 22.3639 36.9694 22.446 36.277 22.3844C35.8736 22.3675 35.4576 22.3266 35.0186 22.2833C34.6173 22.2437 34.1967 22.2023 33.7489 22.1756L33.6307 22.1686C33.4874 22.1601 33.3438 22.1515 33.2004 22.1442C31.9928 22.1758 30.8368 22.6401 29.9427 23.4525C29.0487 24.2649 28.4761 25.3713 28.3292 26.5703C27.8987 29.5411 29.5328 31.361 30.5959 32.545C30.8589 32.8379 31.087 33.0919 31.2402 33.3148C31.3595 33.4579 31.4336 33.6333 31.4528 33.8187C31.4324 34.0243 31.334 34.2142 31.1778 34.3494V34.3506C30.1094 35.5409 29.3585 36.9815 28.9946 38.539C28.6306 40.0966 28.6654 41.7207 29.0958 43.2613C29.1979 43.6312 29.3287 43.9926 29.4872 44.3421C31.4394 48.9182 37.4957 51.049 43.4125 49.1107C44.1872 48.8571 44.9392 48.5386 45.6604 48.1586C46.9561 47.5163 48.1228 46.6417 49.1027 45.5781C50.6265 44.0467 51.6293 42.0741 51.9686 39.9405C52.1467 38.7609 51.886 38.3048 51.5304 38.0852C51.2791 37.9452 50.9886 37.8919 50.7039 37.9337C50.5532 37.0075 50.2889 36.1033 49.9169 35.2418C48.227 36.5169 46.3168 37.4698 44.2817 38.053C41.8332 38.7448 39.2861 39.021 36.7462 38.8702C36.4257 38.8443 36.1265 38.805 35.8494 38.7686C34.7142 38.6195 33.9514 38.5194 33.6246 39.5848C36.0963 40.4113 38.7205 40.679 41.3082 40.3687C41.3264 40.3668 41.3448 40.3686 41.3623 40.3738C41.3798 40.3791 41.3962 40.3878 41.4103 40.3994C41.4245 40.4109 41.4362 40.4252 41.4449 40.4414C41.4535 40.4575 41.4589 40.4752 41.4606 40.4934C41.4634 40.524 41.4566 40.5547 41.4411 40.5813C41.4257 40.6078 41.4023 40.6289 41.3744 40.6417C41.3744 40.6417 38.3394 42.0551 33.5195 40.5599ZM24.631 19.0701C26.6384 17.6608 28.9018 16.6574 31.2941 16.1162C33.9927 15.4908 36.7978 15.4832 39.4998 16.094C39.5944 16.1157 39.6547 15.9514 39.5701 15.9039C38.168 15.1739 36.6202 14.767 35.0403 14.713C35.0251 14.7127 35.0102 14.7083 34.9974 14.7001C34.9845 14.6919 34.9742 14.6804 34.9675 14.6667C34.9608 14.653 34.958 14.6378 34.9594 14.6226C34.9608 14.6075 34.9664 14.593 34.9755 14.5808C35.2209 14.2587 35.5076 13.9702 35.8281 13.7227C35.8425 13.7115 35.8529 13.696 35.8578 13.6785C35.8628 13.661 35.862 13.6423 35.8556 13.6252C35.8492 13.6082 35.8376 13.5936 35.8223 13.5836C35.8071 13.5737 35.789 13.5688 35.7708 13.5698C33.8361 13.7611 31.9768 14.4195 30.353 15.4885C30.3391 15.4979 30.3227 15.5029 30.3059 15.5028C30.2892 15.5028 30.2728 15.4977 30.259 15.4882C30.2452 15.4788 30.2345 15.4654 30.2284 15.4498C30.2223 15.4341 30.221 15.4171 30.2248 15.4007C30.3556 14.9105 30.5482 14.4389 30.798 13.9974C30.8063 13.9823 30.8095 13.9649 30.8072 13.9478C30.8049 13.9308 30.7971 13.9149 30.7851 13.9025C30.7731 13.8902 30.7574 13.882 30.7404 13.8792C30.7234 13.8765 30.706 13.8792 30.6907 13.8871C28.3422 15.1834 26.2505 16.898 24.5186 18.9465C24.505 18.9621 24.4976 18.982 24.4978 19.0027C24.498 19.0233 24.5058 19.0431 24.5197 19.0584C24.5336 19.0737 24.5526 19.0833 24.5731 19.0854C24.5936 19.0876 24.6142 19.0822 24.631 19.0701Z" fill="#241C15"/>
<path fill-rule="evenodd" clip-rule="evenodd" d="M183.286 23.9216C184.106 23.3395 185.081 23.0156 186.087 22.9916L186.086 22.9896C189.67 22.9896 192.023 25.7123 192.023 30.7727C192.023 35.2369 190.057 38.5418 186.152 38.5418C185.4 38.5269 184.665 38.3111 184.023 37.917C183.382 37.5228 182.857 36.9645 182.504 36.2997V42.3194H177.103V23.3329H181.06C181.214 24.1856 181.186 25.0612 180.979 25.9024C180.934 26.093 180.88 26.2763 180.83 26.4433C180.687 26.925 180.584 27.2717 180.871 27.2717C181.059 27.2717 181.106 27.1574 181.245 26.8152C181.303 26.6722 181.377 26.4895 181.485 26.2587C181.839 25.3176 182.467 24.5037 183.286 23.9216ZM182.454 31.2583C182.454 33.4476 183.365 35.018 184.604 35.018C186.115 35.018 186.705 33.7342 186.705 31.2583C186.705 28.8779 186.064 27.4996 184.561 27.4996C183.391 27.4996 182.454 29.1327 182.454 31.2583Z" fill="#241C15"/>
<path d="M145.764 38.2144V23.3538C146.61 23.7464 147.538 23.9287 148.47 23.8852C149.398 23.9301 150.323 23.7476 151.165 23.3538V38.2144H145.764Z" fill="#241C15"/>
<path d="M134.553 26.3859C134.867 25.6917 136.086 22.9946 139.07 22.9946V22.9965C143.376 22.9965 144.009 26.5224 144.009 30.3418V38.2164H138.608V30.0173C138.608 28.3355 138.255 27.5006 137.128 27.5006C135.767 27.5006 135.286 29.6073 135.286 30.8135V38.2154H129.885V18.8298H134.548C134.743 19.5511 134.819 20.2993 134.773 21.0451C134.775 22.8072 134.51 24.5595 133.988 26.2427C133.979 26.2727 133.968 26.3039 133.957 26.336C133.823 26.7332 133.643 27.2656 133.959 27.2757C134.139 27.2812 134.254 27.0319 134.458 26.5919C134.476 26.5533 134.495 26.5132 134.514 26.4716C134.525 26.448 134.538 26.4193 134.553 26.3859Z" fill="#241C15"/>
<path d="M123.195 28.2211C120.914 28.2211 119.671 29.4382 119.671 30.7756L119.67 30.7766C119.67 32.1699 120.61 33.371 123.22 33.371C124.978 33.3005 126.681 32.7411 128.138 31.7559V36.6709C126.586 37.9189 124.647 38.5862 122.656 38.5577C118.258 38.5577 115.165 35.6997 115.165 30.5448C115.165 25.3899 118.574 22.9946 122.667 22.9946C126.55 22.9946 128.129 24.5151 128.129 24.5151V29.6899C126.643 28.7736 124.94 28.2669 123.195 28.2211Z" fill="#241C15"/>
<path d="M113.727 18.8298H108.326V38.2154H113.727V18.8298Z" fill="#241C15"/>
<path fill-rule="evenodd" clip-rule="evenodd" d="M85.8052 24.5151C88.0365 23.5026 90.4603 22.9839 92.9106 22.9946C97.8127 22.9946 99.4308 26.3213 99.4308 30.8931V38.2154H95.3606C95.1642 37.285 95.0906 36.3328 95.1417 35.3832C95.1447 35.2364 95.1518 35.1061 95.158 34.9919C95.1803 34.5803 95.1912 34.3791 94.9606 34.3791C94.779 34.3791 94.6988 34.6047 94.5677 34.974C94.512 35.1307 94.4472 35.3133 94.3615 35.5156C93.9556 36.4504 93.2769 37.2409 92.4144 37.7837C91.5518 38.3264 90.5455 38.5962 89.5271 38.5577C87.4223 38.5577 84.9255 37.2859 84.9255 34.2428C84.9255 31.0344 87.1477 29.0341 91.5492 29.0341C92.3793 28.9991 93.2107 29.0535 94.0291 29.1963C94.1257 28.246 93.8649 27.1015 91.7423 27.1015C89.0832 27.1015 85.8052 28.9864 85.8052 28.9864V24.5151ZM89.6355 33.779C89.6355 34.6348 90.3043 35.0329 91.596 34.7344C92.1794 34.5405 92.7077 34.2093 93.1365 33.7688C93.5653 33.3282 93.882 32.7911 94.06 32.2027C94.06 32.2027 93.3425 32.137 92.5792 32.137C90.8486 32.137 89.6355 32.6067 89.6355 33.779Z" fill="#241C15"/>
<path d="M167.888 23.9028C168.617 23.3548 169.493 23.0375 170.404 22.9916L170.405 22.9896C173.99 22.9896 175.358 25.578 175.358 29.4611V38.2104H170.033V30.1447C170.033 28.8003 169.815 27.4956 168.589 27.4956C167.453 27.4956 166.923 29.5088 166.923 30.8085V38.2144H161.5V30.1447C161.5 28.4251 161.258 27.4956 160.049 27.4956C159.002 27.4956 158.391 29.3486 158.391 30.8085V38.2104H152.99V23.3329H156.947C157.1 24.1856 157.073 25.0612 156.865 25.9024C156.82 26.093 156.766 26.2763 156.717 26.4433C156.574 26.925 156.471 27.2717 156.758 27.2717C156.958 27.2717 157.009 27.1465 157.169 26.7466C157.221 26.6154 157.286 26.4545 157.372 26.2587C157.878 25.1003 158.947 22.9916 161.443 22.9916C162.314 22.9189 163.182 23.1606 163.891 23.6728C164.599 24.185 165.101 24.9339 165.305 25.784C165.421 26.1775 165.442 26.5114 165.458 26.7626C165.478 27.0863 165.49 27.2727 165.684 27.2727C165.851 27.2727 165.943 27.0239 166.081 26.6512C166.145 26.4787 166.219 26.2797 166.314 26.0666C166.611 25.2044 167.159 24.4508 167.888 23.9028Z" fill="#241C15"/>
<path d="M76.2208 23.9028C76.9497 23.3548 77.8259 23.0375 78.7366 22.9916L78.7376 22.9896C82.3222 22.9896 83.6905 25.578 83.6905 29.4611V38.2104H78.3654V30.1447C78.3654 28.8003 78.1475 27.4956 76.9215 27.4956C75.786 27.4956 75.2556 29.5088 75.2556 30.8085V38.2144H69.833V30.1447C69.833 28.4251 69.5902 27.4956 68.3811 27.4956C67.3342 27.4956 66.7232 29.3486 66.7232 30.8085V38.2104H61.3225V23.3329H65.2792C65.433 24.1856 65.4052 25.0612 65.1976 25.9024C65.153 26.093 65.0986 26.2763 65.0491 26.4433C64.9063 26.925 64.8034 27.2717 65.0901 27.2717C65.2909 27.2717 65.3411 27.1465 65.5014 26.7467C65.554 26.6154 65.6185 26.4545 65.7041 26.2587C66.2107 25.1003 67.2794 22.9916 69.7753 22.9916C70.6441 22.9312 71.5066 23.1776 72.2124 23.6879C72.9182 24.1982 73.4225 24.94 73.6375 25.784C73.7625 26.2394 73.7834 26.5839 73.7981 26.8261C73.8165 27.1296 73.8251 27.2727 74.0166 27.2727C74.184 27.2727 74.276 27.0239 74.4138 26.6511C74.4776 26.4787 74.5512 26.2797 74.6466 26.0666C74.9436 25.2044 75.4919 24.4508 76.2208 23.9028Z" fill="#241C15"/>
<path d="M148.449 18.6796C146.623 18.6796 145.143 19.6455 145.143 20.8371C145.143 22.0286 146.623 22.9946 148.449 22.9946C150.275 22.9946 151.755 22.0286 151.755 20.8371C151.755 19.6455 150.275 18.6796 148.449 18.6796Z" fill="#241C15"/>
<path d="M106.578 23.3538C105.736 23.7476 104.811 23.9301 103.883 23.8852L101.177 23.3538V38.2144H106.578V23.3538Z" fill="#241C15"/>
<path d="M103.862 18.6796C102.036 18.6796 100.556 19.6455 100.556 20.8371C100.556 22.0286 102.036 22.9946 103.862 22.9946C105.688 22.9946 107.168 22.0286 107.168 20.8371C107.168 19.6455 105.688 18.6796 103.862 18.6796Z" fill="#241C15"/>
</svg>
