<svg  viewBox="20 16 220 50" fill="none" xmlns="http://www.w3.org/2000/svg"><defs>
<clipPath id="clip0_0_1590">
<rect width="100" height="22.6891" fill="white" transform="translate(88 30)"/>
</clipPath>
</defs><path d="M55.4394 39.7794C55.7421 39.7403 56.0449 39.7403 56.3476 39.7794C56.5136 39.4083 56.5429 38.754 56.3964 38.0606C56.1816 37.0157 55.8788 36.3809 55.2734 36.4786C54.6679 36.5762 54.6386 37.338 54.8632 38.3829C54.9706 38.9591 55.1952 39.4669 55.4394 39.7794ZM50.1952 40.6094C50.6347 40.8048 50.8984 40.9317 51.0058 40.8145C51.1913 40.629 50.664 39.8966 49.8242 39.5352C48.8281 39.1251 47.6952 39.2618 46.8261 39.8966C46.5331 40.1114 46.2597 40.4044 46.2988 40.5899C46.3867 40.9512 47.2753 40.3262 48.5156 40.2481C49.1894 40.1993 49.7558 40.4141 50.1952 40.6094ZM49.3163 41.1075C48.4277 41.2442 47.8515 41.7423 47.998 42.0938C48.0859 42.1231 48.1152 42.1719 48.5058 42.0157C49.0917 41.7911 49.7167 41.7325 50.3417 41.8204C50.6249 41.8497 50.7617 41.8692 50.83 41.7716C50.957 41.5665 50.2636 41.0001 49.3163 41.1075ZM54.6093 42.7872C54.9413 42.1133 53.5449 41.42 53.2128 42.1036C52.8808 42.7774 54.287 43.461 54.6093 42.7872ZM56.1425 40.7852C55.3906 40.7755 55.3613 42.3282 56.1132 42.3477C56.8749 42.3477 56.9042 40.795 56.1425 40.7852ZM34.7363 48.5001C34.6093 48.5294 34.1503 48.6466 33.9062 48.2657C33.3984 47.4844 34.9902 46.2735 34.1992 44.7598C33.3105 43.0508 31.4745 43.4317 30.7714 44.213C29.9218 45.1505 29.9218 46.5176 30.2831 46.5665C30.7031 46.6251 30.6835 45.9317 31.0058 45.4239C31.3867 44.838 32.1581 44.6719 32.7441 45.0528C32.7441 45.0528 32.7538 45.0528 32.7538 45.0626C33.8867 45.8048 32.8906 46.8008 32.9784 47.8653C33.1152 49.4962 34.7851 49.4669 35.0878 48.7442C35.1269 48.6758 35.1171 48.5782 35.0683 48.5196C35.0683 48.627 35.1269 48.4122 34.7363 48.5001ZM64.0722 46.8301C63.7402 45.6778 63.8183 45.9317 63.4081 44.8184C63.6523 44.4571 64.9023 42.4649 63.1054 40.5899C62.0898 39.5255 59.7851 38.9688 59.082 38.7735C58.9355 37.6602 59.5409 33.0313 56.9726 30.6485C59.0038 28.5391 60.2734 26.2149 60.2734 24.2227C60.2636 20.3946 55.5566 19.2325 49.7558 21.6348L48.5253 22.1524C48.5156 22.1426 46.2988 19.9747 46.2695 19.9454C39.6679 14.1837 18.9843 37.1622 25.5956 42.7481L27.0409 43.9688C26.6503 45.0137 26.5136 46.1368 26.6406 47.2501C26.9726 50.5216 30.1659 53.168 33.2519 53.1583C38.9062 66.1856 59.4726 66.2052 64.7949 53.4512C64.9609 53.0118 65.6835 51.0391 65.6835 49.3008C65.6835 47.5626 64.6972 46.8301 64.0722 46.8301ZM33.1347 51.5469C30.8984 51.4883 28.4863 49.4766 28.2519 47.0938C27.6464 41.0977 35.5175 39.7305 36.4745 45.8829C36.9238 48.7833 36.0156 51.6055 33.1347 51.5469ZM31.3281 40.3653C29.8437 40.6583 28.5351 41.4981 27.7343 42.6602C27.2558 42.2598 26.3671 41.4883 26.2109 41.1954C24.9413 38.7637 27.6074 34.0469 29.4726 31.3907C34.082 24.8087 41.2988 19.8282 44.6484 20.7266C45.1952 20.8829 46.9921 22.963 46.9921 22.963C46.9921 22.963 43.6523 24.8184 40.5566 27.4063C36.3671 30.629 33.2128 35.2969 31.3281 40.3653ZM54.707 50.2676C54.707 50.2676 51.2109 50.7852 47.9003 49.5743C48.5058 47.6016 50.5468 50.17 57.3339 48.2266C58.8281 47.7969 60.7909 46.9571 62.3242 45.7462C62.6562 46.5079 62.8906 47.3087 63.0175 48.1192C63.3788 48.0508 64.414 48.0704 64.1406 49.8868C63.8183 51.8301 62.9882 53.4122 61.6015 54.8673C60.7324 55.8048 59.6972 56.586 58.5546 57.1524C57.9199 57.4844 57.246 57.7676 56.5624 57.9923C51.3281 59.7012 45.9667 57.8262 44.2284 53.7833C44.0917 53.4708 43.9745 53.1583 43.8769 52.8262C43.1445 50.1602 43.7695 46.9669 45.7226 44.9551C45.8398 44.8282 45.9667 44.6719 45.9667 44.4864C45.9472 44.3204 45.8886 44.1641 45.7812 44.0372C45.0976 43.0411 42.7245 41.3516 43.2031 38.0801C43.5449 35.7266 45.5956 34.0762 47.5195 34.1739L48.0077 34.2032C48.8378 34.252 49.5605 34.3594 50.2441 34.3887C51.3867 34.4376 52.4218 34.2716 53.6327 33.2559C54.0429 32.9141 54.3749 32.6114 54.9316 32.5235C55.3906 32.4063 55.8691 32.4942 56.2597 32.7383C57.2363 33.3926 57.373 34.9649 57.4218 36.1173C57.4511 36.7716 57.5292 38.3731 57.5585 38.8223C57.6171 39.8673 57.8906 40.0137 58.4472 40.1895C58.7597 40.2969 59.0527 40.3653 59.4726 40.4923C60.7617 40.8536 61.5234 41.2247 62.0214 41.6934C62.2753 41.9376 62.4316 42.2598 62.4902 42.6016C62.6464 43.7149 61.6308 45.0919 58.9355 46.3321C54.3652 48.4512 49.7656 47.7481 49.1015 47.67C47.1288 47.4063 46.0058 49.9551 47.1874 51.6934C49.4042 54.9649 59.1699 53.6466 62.0019 49.6036C62.0702 49.5059 62.0117 49.4473 61.9335 49.5059C57.8417 52.2989 52.4316 53.2462 49.3554 52.0548C48.8867 51.8692 47.9101 51.42 47.7929 50.4239C52.0605 51.7423 54.746 50.4923 54.746 50.4923C54.746 50.4923 54.9609 50.2383 54.707 50.2676ZM39.8437 31.3614C41.4843 29.4669 43.496 27.8165 45.3124 26.8985C45.3417 26.879 45.3906 26.8887 45.4101 26.9278C45.4199 26.9473 45.4199 26.9766 45.4101 26.9962C45.2636 27.2598 44.9902 27.8165 44.9023 28.2364C44.8925 28.2755 44.9218 28.3145 44.9609 28.3243C44.9804 28.3341 44.9999 28.3243 45.0195 28.3145C46.1425 27.5528 48.1054 26.7227 49.8144 26.6251C49.8534 26.6251 49.8925 26.6544 49.8925 26.6934C49.8925 26.7227 49.8827 26.7423 49.8632 26.7618C49.58 26.9766 49.3261 27.2305 49.1113 27.5235C49.0917 27.5528 49.0917 27.6016 49.1308 27.6212C49.1406 27.6309 49.1601 27.6309 49.1699 27.6309C50.371 27.6407 52.0702 28.0606 53.1835 28.6856C53.2617 28.7247 53.2031 28.8712 53.1249 28.8516C46.3183 27.2891 41.0742 30.668 39.9609 31.4786C39.9218 31.4981 39.8827 31.4883 39.8534 31.4591C39.8242 31.42 39.8242 31.3809 39.8437 31.3614Z" fill="black"/><g clip-path="url(#clip0_0_1590)">
<path d="M92.8504 41.7563C92.6841 41.748 92.5174 41.7593 92.3538 41.7899C92.0807 41.834 91.8192 41.9319 91.5844 42.078C91.3497 42.2242 91.1463 42.4156 90.9862 42.6411C90.8262 42.8666 90.7126 43.1217 90.6521 43.3915C90.5916 43.6614 90.5854 43.9405 90.6338 44.2128C90.7528 45.3356 91.9499 46.2824 93.0581 46.3106C93.1718 46.3135 93.2856 46.306 93.398 46.2881C94.5972 46.094 94.9111 44.8582 94.7135 43.6444C94.4902 42.2739 93.5134 41.7908 92.8504 41.7563ZM94.0254 45.0034C93.9748 45.0792 93.9045 45.1398 93.8221 45.1787C93.7397 45.2177 93.6483 45.2335 93.5576 45.2245C93.3982 45.2119 93.2495 45.1391 93.1417 45.021C93.0339 44.9029 92.975 44.7482 92.977 44.5882C92.9742 44.3751 93.0153 44.1638 93.0977 43.9672C93.1492 43.8423 93.1541 43.7032 93.1117 43.575C93.0692 43.4467 92.9822 43.338 92.8663 43.2686C92.724 43.1803 92.5533 43.1501 92.3894 43.1841C92.2306 43.2146 92.0903 43.3066 91.999 43.4401C91.9374 43.5397 91.8893 43.647 91.8559 43.7593C91.8494 43.779 91.8443 43.7944 91.8404 43.8044C91.786 43.943 91.6993 43.9835 91.6407 43.976C91.6191 43.972 91.5991 43.9619 91.5831 43.9469C91.5671 43.9319 91.5557 43.9127 91.5504 43.8914C91.5199 43.7064 91.5342 43.5168 91.5919 43.3385C91.6496 43.1601 91.7492 42.9981 91.8822 42.866C91.998 42.7504 92.1388 42.6627 92.2936 42.6098C92.4485 42.5567 92.6134 42.5398 92.7758 42.5602C92.9464 42.5806 93.1094 42.6424 93.2507 42.7399C93.3921 42.8375 93.5076 42.968 93.5872 43.1202C93.6638 43.3034 93.6948 43.5024 93.6775 43.7002C93.6602 43.898 93.5952 44.0887 93.4879 44.2558C93.4744 44.2847 93.4619 44.3111 93.4513 44.3348C93.4128 44.4002 93.3915 44.4744 93.3894 44.5504C93.3875 44.6264 93.4048 44.7016 93.4399 44.769C93.4707 44.8101 93.511 44.8432 93.5573 44.8654C93.6036 44.8877 93.6546 44.8985 93.706 44.897C93.7551 44.8964 93.8038 44.8899 93.8513 44.8776C93.9129 44.864 93.9766 44.85 94.0154 44.8961C94.0283 44.9106 94.0362 44.9288 94.038 44.9481C94.0398 44.9674 94.0354 44.9868 94.0254 45.0034V45.0034Z" fill="white"/>
<path d="M108.177 47.306C108.427 46.6711 108.571 45.9995 108.605 45.3179C108.605 44.4799 108.13 44.1326 107.828 44.1326C107.819 44.1002 107.759 43.8817 107.677 43.6186C107.63 43.4661 107.574 43.3164 107.51 43.1703C107.757 42.8288 107.861 42.4044 107.801 41.987C107.752 41.6652 107.599 41.3683 107.365 41.1413C106.922 40.7652 106.394 40.5038 105.826 40.38C105.741 40.3561 105.459 40.2788 105.434 40.2712C105.432 40.2551 105.413 39.3481 105.396 38.9586C105.389 38.5682 105.331 38.1804 105.223 37.805C105.09 37.2662 104.813 36.7734 104.423 36.3785C105.4 35.3675 106.009 34.2539 106.008 33.2986C106.005 31.4613 103.746 30.9053 100.961 32.0568C100.958 32.058 100.375 32.3048 100.371 32.3069C100.368 32.3043 99.3044 31.2619 99.2884 31.2479C96.1137 28.4827 86.1874 39.5002 89.361 42.176L90.0546 42.7628C89.8674 43.2643 89.8014 43.8029 89.8618 44.3347C89.9558 45.1085 90.3383 45.8184 90.9328 46.3224C91.5099 46.8462 92.2555 47.146 93.0345 47.1675C94.2696 50.0094 97.0913 51.7528 100.4 51.8509C103.949 51.9562 106.928 50.2932 108.177 47.306ZM108.905 43.9428C109.209 44.3352 109.365 44.8219 109.347 45.3179C109.315 46.0917 109.153 46.8545 108.868 47.5746L108.862 47.5915C108.218 49.1401 107.093 50.441 105.654 51.3023C104.156 52.1736 102.45 52.621 100.717 52.5969H100.717C100.604 52.5969 100.491 52.5952 100.378 52.5918C98.6679 52.5561 96.9985 52.0634 95.5432 51.1647C94.2622 50.3619 93.2255 49.2236 92.5457 47.8732C91.7625 47.7516 91.0313 47.4057 90.4406 46.8773C89.7061 46.2498 89.2356 45.3682 89.1232 44.4087C89.0731 43.9426 89.1001 43.4713 89.2032 43.0139L88.8812 42.7416C88.6206 42.5165 88.4088 42.2405 88.2588 41.9305C88.1089 41.6205 88.024 41.283 88.0094 40.9389C87.9829 40.2247 88.1064 39.5129 88.3717 38.8494C89.0327 37.0448 90.5532 34.8961 92.4393 33.1014C93.2811 32.2846 94.2148 31.5683 95.2217 30.9669C96.0616 30.4298 97.0262 30.1191 98.0217 30.0651C98.6638 30.0483 99.2891 30.2708 99.7764 30.6893C99.8041 30.7136 100.221 31.1212 100.537 31.4309C100.616 31.3975 100.674 31.3734 100.675 31.3727C101.611 30.9653 102.616 30.7423 103.636 30.7158C105.525 30.7158 106.748 31.7291 106.75 33.2974C106.752 34.2651 106.277 35.35 105.401 36.4001C105.639 36.7686 105.819 37.1715 105.935 37.5947C106.06 38.028 106.128 38.4755 106.138 38.9261C106.146 39.12 106.155 39.431 106.162 39.7056C106.808 39.8692 107.406 40.1863 107.903 40.6301C108.24 40.9647 108.461 41.3985 108.534 41.8679C108.607 42.3313 108.535 42.806 108.329 43.2272C108.347 43.2799 108.366 43.3372 108.385 43.3979C108.402 43.4508 108.418 43.5018 108.432 43.5502C108.614 43.6487 108.775 43.7821 108.905 43.9428H108.905Z" fill="white"/>
<path d="M106.655 43.0252C106.775 42.9121 106.869 42.7738 106.93 42.6202C106.99 42.4665 107.016 42.3014 107.006 42.1365C106.982 41.9704 106.904 41.8166 106.785 41.6984C106.435 41.408 106.019 41.2087 105.573 41.1182C105.37 41.0605 105.232 41.0235 105.083 40.974C104.818 40.886 104.688 40.815 104.658 40.3121C104.645 40.0922 104.607 39.326 104.593 39.0094C104.569 38.4546 104.503 37.6962 104.038 37.3831C103.919 37.3046 103.782 37.2602 103.64 37.2546C103.56 37.2497 103.481 37.2576 103.404 37.2779C103.168 37.3331 102.953 37.456 102.785 37.6314C102.568 37.8294 102.313 37.9801 102.035 38.074C101.757 38.1679 101.462 38.2029 101.169 38.1768C100.844 38.163 100.499 38.1117 100.103 38.088C100.026 38.0834 99.9488 38.0786 99.8717 38.0745C99.3604 38.0897 98.8716 38.288 98.4944 38.6335C98.1172 38.9789 97.8768 39.4485 97.8169 39.9565C97.5904 41.5321 98.719 42.3463 99.0448 42.8241C99.0951 42.8851 99.1264 42.9596 99.1344 43.0383C99.126 43.1256 99.0845 43.2063 99.0185 43.264L99.0186 43.2644C98.5674 43.7723 98.2506 44.3852 98.0972 45.047C97.9438 45.7088 97.9586 46.3985 98.1402 47.0531C98.1833 47.2103 98.2385 47.364 98.3054 47.5126C99.1288 49.4583 101.684 50.3644 104.179 49.5403C104.506 49.4323 104.823 49.2968 105.127 49.1352C105.675 48.8618 106.167 48.4899 106.579 48.0382C107.223 47.3853 107.646 46.547 107.788 45.6412C107.864 45.1398 107.753 44.9457 107.604 44.8524C107.498 44.7929 107.375 44.7702 107.255 44.7881C107.191 44.3944 107.08 44.01 106.923 43.6435L106.655 43.0252Z" fill="white"/>
<path d="M102.563 35.5109C102.604 35.5202 102.629 35.4506 102.593 35.4304C101.997 35.1214 101.339 34.9493 100.668 34.9266C100.662 34.9265 100.655 34.9246 100.65 34.9212C100.644 34.9177 100.64 34.9129 100.637 34.9071C100.634 34.9013 100.633 34.8948 100.634 34.8884C100.634 34.8819 100.637 34.8758 100.64 34.8706C100.745 34.7343 100.867 34.6122 101.003 34.5076C101.009 34.5029 101.013 34.4963 101.015 34.4889C101.017 34.4815 101.017 34.4736 101.014 34.4663C101.012 34.4591 101.007 34.4529 101 34.4487C100.994 34.4445 100.986 34.4425 100.978 34.4429C100.157 34.5236 99.3666 34.8022 98.6759 35.2547C98.67 35.2586 98.663 35.2608 98.6559 35.2608C98.6488 35.2608 98.6419 35.2586 98.636 35.2546C98.6302 35.2506 98.6257 35.2449 98.623 35.2383C98.6204 35.2317 98.6199 35.2244 98.6214 35.2175C98.677 35.01 98.7589 34.8105 98.8651 34.6237C98.8686 34.6173 98.8699 34.61 98.8689 34.6027C98.8679 34.5955 98.8646 34.5888 98.8595 34.5836C98.8544 34.5784 98.8478 34.5749 98.8405 34.5737C98.8333 34.5726 98.8259 34.5738 98.8194 34.5771C97.822 35.125 96.933 35.8504 96.1963 36.7177C96.1905 36.7243 96.1874 36.7328 96.1875 36.7415C96.1876 36.7503 96.1909 36.7587 96.1968 36.7652C96.2027 36.7717 96.2108 36.7758 96.2195 36.7767C96.2282 36.7776 96.2369 36.7752 96.2441 36.7702C97.0978 36.1735 98.0597 35.749 99.0758 35.5202C100.223 35.2556 101.415 35.2524 102.563 35.5109" fill="white"/>
<path d="M99.6266 32.6965C99.6266 32.6965 98.7625 31.6962 98.5017 31.6224C96.8969 31.1893 93.4305 33.5766 91.2171 36.7306C90.3216 38.0067 89.0396 40.2665 89.6526 41.4289C89.8705 41.6898 90.1161 41.9263 90.3851 42.1342C90.7959 41.5584 91.414 41.1646 92.1094 41.0357C92.9821 38.5959 94.514 36.4458 96.5349 34.8241C97.5047 34.0304 98.5388 33.3188 99.6266 32.6965Z" fill="white"/>
<path d="M93.9675 44.9601C93.98 44.9752 93.9876 44.9936 93.9893 45.0131C93.991 45.0326 93.9869 45.0521 93.9773 45.0692C93.9307 45.1448 93.8639 45.2058 93.7845 45.2455C93.7051 45.2852 93.6161 45.3019 93.5277 45.2937C93.3701 45.2768 93.2248 45.2006 93.1213 45.0807C93.0177 44.9607 92.9635 44.8059 92.9697 44.6475C92.967 44.4317 93.0064 44.2174 93.0857 44.0167C93.1358 43.8909 93.141 43.7517 93.1005 43.6225C93.06 43.4934 92.9763 43.382 92.8635 43.3073C92.7967 43.2631 92.7217 43.2327 92.6429 43.218C92.5642 43.2032 92.4833 43.2044 92.4051 43.2215C92.3284 43.2376 92.2557 43.2689 92.1913 43.3135C92.1269 43.3581 92.072 43.4152 92.03 43.4813C91.9706 43.5831 91.9243 43.6921 91.8924 43.8056C91.8863 43.8255 91.8813 43.8413 91.8776 43.8514C91.8253 43.9923 91.7421 44.0333 91.6857 44.0258C91.659 44.0221 91.6223 44.0042 91.5988 43.9398C91.5693 43.7534 91.5827 43.5627 91.6379 43.3822C91.6932 43.2018 91.7889 43.0363 91.9178 42.8984C92.026 42.7822 92.1603 42.6934 92.3096 42.6394C92.4589 42.5854 92.6189 42.5677 92.7764 42.5878C92.9432 42.6108 93.1018 42.6747 93.2379 42.774C93.3739 42.8732 93.4832 43.0047 93.5561 43.1565C93.6298 43.3432 93.6596 43.5443 93.643 43.7443C93.6265 43.9443 93.5641 44.1378 93.4607 44.3099C93.4477 44.3391 93.4357 44.3659 93.4256 44.3902C93.3884 44.4574 93.368 44.5326 93.3661 44.6093C93.3642 44.6861 93.3808 44.7622 93.4146 44.8311C93.4431 44.8723 93.4814 44.9056 93.5261 44.9283C93.5707 44.951 93.6202 44.9623 93.6703 44.9611C93.7174 44.9605 93.7643 44.9538 93.8099 44.9414C93.8691 44.9275 93.9303 44.9133 93.9675 44.9601V44.9601ZM108.571 45.3247C108.538 46.0047 108.395 46.6748 108.146 47.3086C106.906 50.2895 103.946 51.949 100.42 51.844C97.1334 51.7461 94.3301 50.0063 93.1032 47.1704C92.3286 47.1487 91.5876 46.8494 91.0153 46.3271C90.424 45.8231 90.0441 45.1149 89.9512 44.3436C89.8912 43.8129 89.9568 43.2755 90.1428 42.7749L89.4537 42.1894C86.3009 39.5192 96.1621 28.5248 99.3161 31.2842C99.332 31.2981 100.389 32.3384 100.392 32.341C100.396 32.3389 100.975 32.0926 100.978 32.0914C103.744 30.9424 105.989 31.4971 105.992 33.3305C105.993 34.2839 105.387 35.3952 104.417 36.4039C104.805 36.7986 105.08 37.2902 105.212 37.8274C105.319 38.2021 105.377 38.5891 105.384 38.9788C105.401 39.3673 105.42 40.2725 105.421 40.2886C105.446 40.2961 105.726 40.3731 105.811 40.3971C106.375 40.5209 106.901 40.7818 107.34 41.1568C107.572 41.3837 107.724 41.6799 107.773 42.0007C107.833 42.417 107.729 42.8403 107.483 43.1816C107.547 43.3274 107.603 43.4768 107.65 43.629C107.731 43.8916 107.791 44.1095 107.8 44.1418C108.1 44.1418 108.571 44.4884 108.571 45.3247ZM94.6382 43.689C94.4239 42.297 93.4851 41.8065 92.8481 41.7715C92.6882 41.763 92.5279 41.7744 92.3709 41.8055C91.2339 42.0355 90.5918 43.0056 90.7182 44.2661C90.8102 44.8315 91.0902 45.3494 91.5129 45.736C91.9356 46.1226 92.4763 46.3555 93.0477 46.3968C93.157 46.3997 93.2664 46.392 93.3742 46.3738C94.5265 46.1767 94.8282 44.9217 94.6382 43.689ZM96.5815 34.8528C97.5446 34.0611 98.5719 33.3509 99.6528 32.7297C99.6528 32.7297 98.7946 31.7315 98.5353 31.6579C96.9411 31.2257 93.4973 33.6079 91.2986 36.7552C90.4089 38.0287 89.1353 40.2839 89.7442 41.4437C89.9605 41.7041 90.2046 41.94 90.472 42.1476C90.8791 41.5737 91.4934 41.1806 92.185 41.0514C93.0503 38.619 94.5719 36.4736 96.5815 34.8528ZM100.046 45.868C100.089 46.053 100.18 46.2231 100.311 46.3605C100.442 46.4978 100.608 46.5972 100.79 46.6481C100.981 46.719 101.177 46.7725 101.377 46.8078C103.898 47.2429 106.256 45.7967 106.787 45.4324C106.826 45.405 106.853 45.4317 106.821 45.48C106.805 45.5057 106.787 45.5305 106.769 45.5544C106.119 46.3949 104.373 47.3682 102.101 47.3678C101.11 47.3677 100.119 47.0175 99.7554 46.4794C99.1912 45.6444 99.7274 44.4258 100.668 44.5528C100.669 44.553 100.989 44.5894 101.079 44.5994C102.541 44.74 104.014 44.5035 105.358 43.9127C106.641 43.3155 107.125 42.6582 107.052 42.1261C107.028 41.9609 106.95 41.8081 106.831 41.6911C106.481 41.4024 106.064 41.2045 105.619 41.115C105.415 41.0576 105.277 41.021 105.128 40.9718C104.863 40.8843 104.732 40.8139 104.702 40.3145C104.69 40.0961 104.652 39.3353 104.638 39.0208C104.614 38.4699 104.548 37.7168 104.082 37.4059C103.963 37.3278 103.825 37.2837 103.683 37.2782C103.604 37.2734 103.524 37.2813 103.447 37.3015C103.211 37.3561 102.996 37.4781 102.828 37.6525C102.61 37.8493 102.354 37.999 102.076 38.0922C101.798 38.1854 101.503 38.22 101.211 38.194C100.885 38.1804 100.539 38.1294 100.143 38.1059C100.066 38.1013 99.9888 38.0965 99.9117 38.0926C99.4018 38.106 98.9137 38.302 98.5362 38.645C98.1587 38.988 97.9169 39.4551 97.8549 39.9614C97.6282 41.526 98.7579 42.3346 99.084 42.809C99.1344 42.8694 99.1656 42.9435 99.1738 43.0218C99.1652 43.1086 99.1236 43.1887 99.0577 43.2458V43.2463C98.6066 43.7489 98.2896 44.3571 98.1359 45.0147C97.9822 45.6724 97.9969 46.3581 98.1786 47.0086C98.2217 47.1647 98.277 47.3173 98.3438 47.4649C99.1681 49.397 101.725 50.2967 104.223 49.4783C104.55 49.3712 104.868 49.2367 105.172 49.0763C105.72 48.8051 106.212 48.4358 106.626 47.9868C107.269 47.3402 107.693 46.5073 107.836 45.6065C107.911 45.1084 107.801 44.9159 107.651 44.8231C107.545 44.764 107.422 44.7415 107.302 44.7592C107.238 44.3681 107.127 43.9864 106.97 43.6226C106.256 44.161 105.45 44.5633 104.59 44.8095C103.557 45.1016 102.481 45.2183 101.409 45.1546C100.719 45.0987 100.262 44.8967 100.091 45.4563C101.134 45.8052 102.242 45.9183 103.335 45.7873C103.343 45.7865 103.35 45.7872 103.358 45.7894C103.365 45.7917 103.372 45.7953 103.378 45.8002C103.384 45.8051 103.389 45.8111 103.393 45.8179C103.396 45.8247 103.399 45.8322 103.399 45.8399C103.4 45.8528 103.398 45.8658 103.391 45.877C103.384 45.8882 103.375 45.8971 103.363 45.9025C103.363 45.9025 102.081 46.4993 100.046 45.868ZM96.2935 36.7947C97.1411 36.1997 98.0967 35.776 99.1068 35.5475C100.246 35.2834 101.431 35.2802 102.571 35.5381C102.611 35.5473 102.637 35.4779 102.601 35.4579C102.009 35.1497 101.356 34.9778 100.688 34.955C100.682 34.9549 100.676 34.9531 100.67 34.9496C100.665 34.9462 100.661 34.9413 100.658 34.9355C100.655 34.9297 100.654 34.9233 100.654 34.9169C100.655 34.9105 100.657 34.9044 100.661 34.8992C100.765 34.7632 100.886 34.6414 101.021 34.5369C101.027 34.5322 101.032 34.5257 101.034 34.5183C101.036 34.5109 101.035 34.503 101.033 34.4958C101.03 34.4886 101.025 34.4824 101.019 34.4782C101.012 34.474 101.005 34.472 100.997 34.4724C100.18 34.5531 99.3951 34.8311 98.7094 35.2825C98.7035 35.2864 98.6967 35.2885 98.6896 35.2885C98.6825 35.2885 98.6756 35.2864 98.6698 35.2823C98.6639 35.2784 98.6594 35.2727 98.6568 35.2661C98.6543 35.2595 98.6537 35.2523 98.6553 35.2454C98.7105 35.0384 98.7918 34.8393 98.8973 34.6529C98.9008 34.6465 98.9022 34.6392 98.9012 34.632C98.9002 34.6248 98.8969 34.6181 98.8919 34.6128C98.8868 34.6076 98.8802 34.6042 98.873 34.603C98.8659 34.6018 98.8585 34.603 98.852 34.6063C97.8604 35.1536 96.9773 35.8776 96.2461 36.7425C96.2403 36.7491 96.2372 36.7575 96.2373 36.7662C96.2374 36.7749 96.2407 36.7833 96.2465 36.7897C96.2524 36.7962 96.2604 36.8002 96.269 36.8012C96.2777 36.8021 96.2864 36.7998 96.2935 36.7947ZM102.934 42.1059C103.003 42.1496 103.086 42.1663 103.166 42.1529C103.247 42.1395 103.32 42.0969 103.371 42.0333C103.435 41.9102 103.342 41.7432 103.165 41.6602C103.096 41.6165 103.013 41.5998 102.932 41.6132C102.852 41.6267 102.779 41.6693 102.728 41.733C102.664 41.856 102.757 42.023 102.934 42.1059ZM103.479 40.1095C103.522 40.3311 103.614 40.5404 103.748 40.7217C103.887 40.7046 104.027 40.7046 104.166 40.7217C104.248 40.4784 104.255 40.2164 104.187 39.9691C104.086 39.5127 103.95 39.2365 103.67 39.2794C103.389 39.3224 103.379 39.6531 103.479 40.1095ZM104.076 41.1579C104.005 41.1376 103.93 41.1399 103.861 41.1647C103.791 41.1894 103.731 41.2352 103.689 41.2958C103.647 41.3563 103.626 41.4285 103.627 41.5021C103.628 41.5758 103.652 41.6472 103.696 41.7064C103.74 41.7656 103.801 41.8096 103.871 41.8322C103.941 41.8547 104.017 41.8548 104.087 41.8323C104.157 41.8098 104.218 41.7659 104.262 41.7067C104.306 41.6476 104.33 41.5761 104.331 41.5025C104.342 41.4232 104.321 41.3431 104.273 41.2789C104.226 41.2146 104.155 41.1713 104.076 41.1579Z" fill="black"/>
<path d="M100.965 41.6231C101.044 41.3427 101.048 41.0465 100.978 40.7638C100.876 40.3067 100.723 40.0456 100.438 40.0886C100.153 40.1316 100.146 40.4999 100.238 40.959C100.28 41.1693 100.362 41.3696 100.48 41.549C100.706 41.8651 100.86 41.7833 100.964 41.6231H100.965Z" fill="black"/>
<path d="M122.568 40.1104C121.196 40.1104 120.519 41.1936 120.207 41.8928C120.034 42.2817 119.985 42.5895 119.845 42.5895C119.643 42.5895 119.788 42.3236 119.626 41.7278C119.411 40.9449 118.766 40.1153 117.398 40.1153C115.96 40.1153 115.342 41.3364 115.051 42.0085C114.849 42.4664 114.849 42.5944 114.697 42.5944C114.475 42.5944 114.66 42.2301 114.758 41.8017C114.879 41.3118 114.896 40.8022 114.808 40.3048H112.525V48.9267H115.635V44.6429C115.635 43.796 115.989 42.7251 116.592 42.7251C117.294 42.7251 117.43 43.2642 117.43 44.2613V48.9365H120.556V44.6429C120.556 43.8896 120.861 42.7251 121.516 42.7251C122.225 42.7251 122.348 43.4833 122.348 44.2613V48.934H125.421V43.86C125.423 41.6098 124.633 40.1105 122.568 40.1105L122.568 40.1104Z" fill="black"/>
<path d="M175.427 40.1104C174.058 40.1104 173.378 41.1936 173.068 41.8928C172.894 42.2817 172.847 42.5895 172.704 42.5895C172.505 42.5895 172.64 42.2498 172.487 41.7278C172.258 40.9498 171.69 40.1153 170.259 40.1153C168.826 40.1153 168.204 41.3364 167.911 42.0085C167.711 42.4664 167.711 42.5944 167.559 42.5944C167.334 42.5944 167.519 42.2301 167.62 41.8017C167.741 41.3118 167.755 40.8022 167.667 40.3048H165.385V48.9267H168.497V44.6429C168.497 43.796 168.849 42.7251 169.452 42.7251C170.149 42.7251 170.291 43.2642 170.291 44.2613V48.9365H173.415V44.6429C173.415 43.8896 173.723 42.7251 174.378 42.7251C175.08 42.7251 175.21 43.4833 175.21 44.2613V48.934H178.28V43.86C178.283 41.6098 177.495 40.1105 175.427 40.1105V40.1104Z" fill="black"/>
<path d="M130.741 40.1129C129.328 40.1055 127.929 40.4059 126.642 40.9918V43.5842C126.642 43.5842 128.533 42.4911 130.067 42.4911C131.29 42.4911 131.44 43.1558 131.386 43.7024C131.386 43.7024 131.034 43.6089 129.956 43.6089C127.417 43.6089 126.135 44.7684 126.135 46.6272C126.135 48.3899 127.575 49.126 128.789 49.126C130.559 49.126 131.337 47.932 131.578 47.3633C131.743 46.9694 131.772 46.7059 131.923 46.7059C132.093 46.7059 132.033 46.8954 132.024 47.2869C132.009 47.9738 132.041 48.4908 132.147 48.929H134.498V44.6896C134.498 42.0406 133.567 40.1129 130.741 40.1129V40.1129ZM129.98 46.9152C129.234 47.0875 128.85 46.8562 128.85 46.3613C128.85 45.6818 129.552 45.4086 130.546 45.4086C130.987 45.4086 131.401 45.4479 131.401 45.4479C131.403 45.7384 130.775 46.7306 129.98 46.9152Z" fill="black"/>
<path d="M139.629 37.6978H142.746V48.9314H139.629V37.6978Z" fill="black"/>
<path d="M146.172 44.6203C146.172 43.8448 146.888 43.1407 148.203 43.1407C149.638 43.1407 150.79 43.8349 151.049 43.9901V40.9915C151.049 40.9915 150.138 40.1125 147.9 40.1125C145.539 40.1125 143.574 41.5011 143.574 44.4874C143.574 47.4737 145.357 49.1257 147.89 49.1257C149.87 49.1257 151.051 48.0325 151.051 48.0325V45.1891C150.677 45.3983 149.638 46.1246 148.215 46.1246C146.713 46.1246 146.172 45.4278 146.172 44.6204V44.6203Z" fill="black"/>
<path d="M157.356 40.1128C155.55 40.1128 154.868 41.8264 154.73 42.1291C154.589 42.432 154.52 42.5994 154.407 42.5945C154.208 42.5895 154.348 42.2301 154.427 41.9962C154.727 41.0213 154.878 40.007 154.878 38.9853C154.878 38.0227 154.747 37.7026 154.747 37.7026H152.059V48.9312H155.17V44.6425C155.17 43.9433 155.449 42.7247 156.234 42.7247C156.884 42.7247 157.086 43.2097 157.086 44.1846V48.9336H160.198V44.3692C160.205 42.1535 159.838 40.1126 157.356 40.1126V40.1128Z" fill="black"/>
<path d="M161.221 40.3196V48.9313H164.333V40.3196C164.333 40.3196 163.808 40.6224 162.777 40.6224C161.748 40.6224 161.221 40.3196 161.221 40.3196Z" fill="black"/>
<path d="M164.675 38.8625C164.675 38.1706 163.821 37.6118 162.767 37.6118C161.716 37.6118 160.861 38.1706 160.861 38.8625C160.861 39.5519 161.716 40.1132 162.767 40.1132C163.821 40.1132 164.675 39.5518 164.675 38.8625Z" fill="black"/>
<path d="M135.508 40.3196V48.9313H138.62V40.3196C138.62 40.3196 138.095 40.6224 137.066 40.6224C136.037 40.6224 135.508 40.3196 135.508 40.3196Z" fill="black"/>
<path d="M138.962 38.8625C138.962 38.1706 138.107 37.6118 137.056 37.6118C136.002 37.6118 135.15 38.1706 135.15 38.8625C135.15 39.5519 136.002 40.1132 137.056 40.1132C138.107 40.1132 138.962 39.5518 138.962 38.8625Z" fill="black"/>
<path d="M184.47 40.1104C182.87 40.1104 182.136 41.3217 181.819 42.0036C181.607 42.4566 181.617 42.5895 181.464 42.5895C181.243 42.5895 181.427 42.2251 181.526 41.7968C181.646 41.3093 181.661 40.7997 181.573 40.3048H179.293V51.3122H182.405V47.8211C182.774 48.4514 183.456 49.1235 184.512 49.1235C186.765 49.1235 187.897 47.2056 187.897 44.6207C187.895 41.6885 186.538 40.1105 184.47 40.1105V40.1104ZM183.616 47.0803C182.902 47.0803 182.378 46.1719 182.378 44.9015C182.378 43.6681 182.917 42.7227 183.591 42.7227C184.458 42.7227 184.827 43.5228 184.827 44.9015C184.827 46.3368 184.488 47.0803 183.616 47.0803Z" fill="black"/>
</g></svg>