<svg width="213" height="56" viewBox="0 0 213 56" fill="none" xmlns="http://www.w3.org/2000/svg">
<path d="M10.3534 50.8305C8.57502 50.8567 6.80835 50.5387 5.15069 49.894V47.1886C6.84094 47.7275 8.58594 48.0765 10.3534 48.2292C12.0183 48.2292 13.7872 47.917 13.7872 45.8359C13.7872 44.2751 12.6426 43.8589 11.1859 43.4426L9.72909 43.1305C7.96016 42.6102 5.04663 41.8818 5.04663 38.344C5.04663 34.3899 8.27233 33.4534 11.6021 33.4534C13.2149 33.3922 14.8193 33.7131 16.2845 34.3899V36.9913C14.7739 36.3301 13.1468 35.9764 11.498 35.9507C9.41693 35.9507 8.06422 36.3669 8.06422 38.1359C8.06422 39.6967 9.31287 40.1129 10.7696 40.4251L12.3305 40.9453C14.3075 41.4656 16.7008 42.6102 16.7008 45.7319C16.8048 49.6859 13.8913 50.8305 10.3534 50.8305ZM28.0427 50.8305C31.1644 50.8305 35.8468 49.894 35.8468 42.0899C35.8468 34.3899 31.0603 33.3493 28.0427 33.3493C24.817 33.3493 20.2386 34.598 20.2386 42.0899C20.2386 49.79 24.713 50.8305 28.0427 50.8305ZM28.0427 35.7426C29.8117 35.7426 32.7252 36.1588 32.7252 42.0899C32.7252 47.8129 29.6035 48.4373 28.0427 48.4373C26.7941 48.4373 23.3603 48.0211 23.3603 42.0899C23.3603 36.2629 26.2738 35.7426 28.0427 35.7426ZM39.905 50.5184H43.0266V28.1466H39.905V50.5184ZM61.4443 50.5184V39.1764C61.4443 34.8061 58.947 33.4534 55.201 33.4534C53.0362 33.478 50.8907 33.8649 48.8537 34.598V37.1994C50.7324 36.5453 52.6942 36.16 54.6807 36.0548C56.8659 36.0548 58.1145 36.575 58.1145 38.7602V40.217H54.3686C51.6631 40.217 47.2928 41.1534 47.2928 45.7319C47.2928 49.9981 50.1023 50.9346 52.7037 50.9346C54.8137 50.9254 56.8197 50.017 58.2186 48.4373L58.5308 50.6224L61.4443 50.5184ZM58.3226 46.1481C58.3226 46.1481 56.0334 48.3332 53.7442 48.3332C52.0794 48.3332 50.7267 47.7089 50.7267 45.5237C50.7267 42.8183 52.3915 42.0899 55.3051 41.9859H58.3226V46.1481ZM72.8903 36.2629C73.7845 36.2501 74.6712 36.4274 75.4917 36.7831V33.8696C74.7787 33.5311 73.9889 33.3875 73.2025 33.4534C71.488 33.469 69.9413 34.4865 69.2484 36.0548L68.8322 33.7656H66.4389V50.5184H69.5606V38.2399C69.5606 38.2399 71.0173 36.2629 72.8903 36.2629ZM104.939 33.6615H101.401L99.4243 43.3386C98.904 45.8359 98.3837 49.0616 98.3837 49.0616C98.3837 49.0616 97.6553 45.5237 97.031 43.3386L94.1175 33.6615H89.5391L86.6255 43.3386C86.0012 45.5237 85.2728 49.0616 85.2728 49.0616C85.2728 49.0616 84.7525 45.6278 84.2323 43.3386L82.1512 33.6615H78.5093L83.0877 50.5184H87.458L90.0593 41.5697C90.6837 39.2805 91.8283 35.3264 91.8283 35.3264C91.8283 35.3264 92.8688 39.2805 93.4931 41.6737L96.0945 50.6224H100.465L104.939 33.6615ZM108.893 50.5184H112.015V33.5575H108.893V50.5184ZM131.889 50.5184V39.0723C131.889 34.8061 129.496 33.4534 126.478 33.4534C124.115 33.6019 121.875 34.5569 120.131 36.1588L119.507 33.7656H117.114V50.5184H120.235V38.2399C121.84 37.0389 123.752 36.3173 125.75 36.1588C127.935 36.1588 128.768 36.9913 128.768 39.0723V50.5184H131.889ZM150.827 50.5184V28.1466H147.706V35.0142C146.503 33.8729 144.887 33.2716 143.231 33.3493C140.942 33.3493 135.635 34.3899 135.635 42.0899C135.635 49.5819 140.006 50.8305 142.607 50.8305C144.678 50.8859 146.665 50.0072 148.018 48.4373L148.33 50.5184H150.827ZM147.706 46.3562C146.459 47.4694 144.894 48.1612 143.231 48.3332C141.254 48.3332 138.757 47.7089 138.757 42.0899C138.757 36.7831 141.15 35.9507 143.543 35.9507C145.081 36.0124 146.55 36.6001 147.706 37.6156V46.3562ZM160.608 50.8305C164.146 50.8305 166.956 49.79 166.956 45.7319C166.956 42.6102 164.458 41.4656 162.585 40.9453L160.921 40.5291C159.464 40.1129 158.215 39.8007 158.215 38.2399C158.215 36.471 159.568 36.0548 161.649 36.0548C163.298 36.0804 164.925 36.4342 166.435 37.0953V34.4939C164.97 33.8172 163.366 33.4963 161.753 33.5575C158.423 33.5575 155.198 34.4939 155.198 38.448C155.198 41.9859 158.111 42.7143 159.88 43.2345L161.233 43.6508C162.69 44.067 163.834 44.3791 163.834 46.044C163.834 48.1251 162.169 48.4373 160.4 48.4373C158.633 48.2846 156.888 47.9356 155.198 47.3967V50.1021C155.302 49.894 157.487 50.8305 160.608 50.8305Z" fill="#444444"/>
<path d="M181.732 23.4643C179.442 24.0887 177.153 24.6089 174.864 25.3373C170.147 21.0884 164.214 18.4309 157.903 17.7413C167.247 11.0311 178.448 7.39452 189.952 7.33585L185.998 10.9778C185.998 10.9778 202.751 10.3534 206.913 4.63043C206.788 5.23319 206.614 5.82478 206.393 6.39936C205.2 9.79891 203.072 12.7926 200.253 15.0359C197.621 17.0948 194.714 18.7759 191.617 20.0305C188.536 21.3746 185.374 22.5215 182.148 23.4643C182.044 23.3603 181.836 23.4643 181.732 23.4643ZM207.953 22.9441C197.33 22.4626 186.702 23.7998 176.529 26.8981C178.679 29.1416 180.469 31.7039 181.836 34.4941C190.264 29.8117 201.918 23.7765 207.953 22.9441ZM182.876 36.8874C183.877 39.4558 184.508 42.1536 184.749 44.8996L199.421 29.8117L182.876 36.8874Z" fill="#F99D1C"/>
</svg>
