<svg  viewBox="20 16 220 50" fill="none" xmlns="http://www.w3.org/2000/svg"><defs>
<clipPath id="clip0_0_1206">
<rect width="50" height="46.1783" fill="white" transform="translate(20 18)"/>
</clipPath>
<clipPath id="clip1_0_1206">
<rect width="100" height="14.6465" fill="white" transform="translate(98 34)"/>
</clipPath>
</defs><g clip-path="url(#clip0_0_1206)">
<path fill-rule="evenodd" clip-rule="evenodd" d="M27.8367 64.1402V56.4969H62.2316V64.1402H27.8367ZM54.9258 25.9236H35.1392L45.0341 39.6179L54.9258 25.9236ZM69.8749 18.2803L45.0341 52.6752L20.1934 18.2803H69.8749Z" fill="#00B3E6"/>
</g><g clip-path="url(#clip1_0_1206)">
<path fill-rule="evenodd" clip-rule="evenodd" d="M100.487 48.6343V46.2101H111.396V48.6343H100.487ZM109.079 36.5131H102.803L105.941 40.8565L109.079 36.5131ZM113.82 34.0889L105.941 44.998L98.0625 34.0889H113.82Z" fill="#00B3E6"/>
<path d="M123.434 46.2112V42.3203H119.703V46.2112H117.453V36.5142H119.703V40.3092H123.434V36.5122H125.683V46.2092L123.434 46.2112Z" fill="black"/>
<path d="M128.521 46.2111V36.5142H134.666V38.5758H130.771V40.3091H134.317V42.2677H130.771V44.1596H134.666V46.2111H128.521Z" fill="black"/>
<path d="M137.346 46.2111V36.5142H139.594V44.1616H143.485V46.2132L137.346 46.2111Z" fill="black"/>
<path d="M145.373 46.2111V36.5142H147.626V44.1616H151.515V46.2132L145.373 46.2111Z" fill="black"/>
<path d="M157.862 46.3697C154.858 46.3697 152.939 44.2132 152.939 41.3677C152.939 38.5222 154.951 36.3525 157.955 36.3525C160.959 36.3525 162.877 38.5101 162.877 41.3677C162.877 44.2253 160.853 46.3697 157.862 46.3697ZM157.899 38.3647C156.365 38.3647 155.332 39.6212 155.332 41.3677C155.332 43.1142 156.365 44.3717 157.899 44.3717C159.433 44.3717 160.467 43.101 160.467 41.3677C160.467 39.6344 159.436 38.3647 157.899 38.3647Z" fill="black"/>
<path d="M167.736 46.3697C166.638 46.3697 165.312 45.9334 164.469 45.3768L165.09 43.3394C165.871 43.9081 166.89 44.2788 167.803 44.2788C168.597 44.2788 168.901 43.9081 168.901 43.4323C168.901 42.9273 168.65 42.5849 167.168 41.9899C165.461 41.302 164.868 40.3091 164.868 39.1445C164.868 37.7303 166.018 36.3525 168.281 36.3525C169.339 36.3525 170.425 36.7232 170.994 37.1071L170.423 39.1182C169.867 38.7344 168.968 38.3243 168.279 38.3243C167.459 38.3243 167.128 38.7081 167.128 39.1051C167.128 39.7404 167.617 39.9525 168.835 40.4677C170.648 41.2354 171.19 42.1091 171.19 43.3525C171.19 44.901 170.066 46.3697 167.736 46.3697Z" fill="black"/>
<path d="M173.604 46.2111V36.5142H175.853V46.2111H173.604Z" fill="black"/>
<path d="M187.066 40.7596V45.3909C185.953 46.0509 184.68 46.3897 183.387 46.3697C180.542 46.3697 178.293 44.3324 178.293 41.3677C178.293 38.403 180.569 36.3525 183.506 36.3525C184.777 36.3525 185.795 36.6839 186.761 37.1869L185.821 38.999C185.153 38.6473 184.411 38.4613 183.656 38.4566C181.723 38.4566 180.692 39.6606 180.692 41.3677C180.692 43.2202 181.935 44.3718 183.52 44.3718C184.234 44.3718 184.592 44.292 184.95 44.1071V42.6778H183.003V40.7586L187.066 40.7596Z" fill="black"/>
<path d="M197.75 46.3959L191.902 41.1433V46.211H189.652V36.3797L189.955 36.3262L195.725 41.5393V36.512H197.975V46.3565L197.75 46.3959Z" fill="black"/>
</g></svg>