<svg  viewBox="95 25 150 32" fill="none" xmlns="http://www.w3.org/2000/svg"><path d="M200.075 40.5816C199.744 40.5051 199.871 40.0463 200.075 39.715C200.279 39.3071 200.407 38.8993 200.407 38.4405V38.3131C200.407 38.0327 200.203 37.8543 199.948 37.8543H196.989C196.708 37.8543 196.529 38.0582 196.529 38.3131V49.8849C196.529 50.1652 196.734 50.3437 196.989 50.3437H200.024C200.305 50.3437 200.484 50.1398 200.484 49.8849V45.6283C200.484 42.5442 201.427 41.2443 204.514 41.3207C204.795 41.3207 204.973 41.1168 204.973 40.8619V38.1092C204.973 37.8288 204.769 37.6504 204.514 37.6504C201.81 37.7268 201.147 38.5935 200.407 40.1992C200.407 40.3777 200.279 40.5816 200.075 40.5816Z" fill="#0A0B1E"/><path d="M195.561 43.5382C195.561 39.1542 192.398 37.1406 189.158 37.1406C184.923 37.1406 182.424 39.9699 182.424 43.8696C182.424 47.6419 184.77 50.5986 189.235 50.5986C192.526 50.5986 194.49 48.7125 195.153 46.4949C195.23 46.2146 195.026 45.9597 194.745 45.9597H191.786C191.582 45.9597 191.403 46.0617 191.327 46.24C190.842 47.0047 190.255 47.5144 189.184 47.5144C187.781 47.5144 186.684 46.6479 186.352 45.297C186.276 45.0165 186.48 44.7618 186.76 44.7618H195.102C195.306 44.7618 195.485 44.7362 195.536 44.3539C195.536 44.252 195.561 43.8186 195.561 43.5382ZM189.235 40.1737C190.51 40.1737 191.403 40.8365 191.735 42.1364C191.811 42.4168 191.607 42.5952 191.327 42.5952H186.939C186.658 42.5952 186.48 42.3148 186.531 42.0599C186.888 40.9384 187.628 40.1737 189.235 40.1737Z" fill="#0A0B1E"/><path d="M181.555 40.9894C181.836 40.9894 182.014 40.7855 182.014 40.5306V38.3131C182.014 38.0328 181.81 37.8543 181.555 37.8543H179.412C179.132 37.8543 179.081 37.6504 179.081 37.3955V34.5408C179.081 34.2605 178.876 34.082 178.621 34.082H175.586C175.305 34.082 175.126 34.2859 175.126 34.5408V37.3701C175.126 37.6504 174.922 37.8288 174.667 37.8288H173.596C173.315 37.8288 173.137 38.0328 173.137 38.2876V40.5052C173.137 40.7855 173.341 40.9639 173.596 40.9639H174.667C174.948 40.9639 175.126 41.1678 175.126 41.4227V46.4695C175.126 49.5536 176.351 50.3692 178.902 50.3692H181.785C182.065 50.3692 182.244 50.1653 182.244 49.9104V47.6929C182.244 47.4126 182.04 47.2341 181.785 47.2341H180.126C179.055 47.2341 179.055 47.1577 179.055 45.9597V41.4737C179.055 41.1933 179.183 41.0149 179.387 41.0149H181.555V40.9894Z" fill="#0A0B1E"/><path d="M171.657 40.9894C171.937 40.9894 172.116 40.7855 172.116 40.5306V38.3131C172.116 38.0328 171.912 37.8543 171.657 37.8543H169.514C169.233 37.8543 169.182 37.6504 169.182 37.3955V34.5408C169.182 34.2605 168.978 34.082 168.723 34.082H165.687C165.407 34.082 165.228 34.2859 165.228 34.5408V37.3701C165.228 37.6504 165.024 37.8288 164.769 37.8288H163.698C163.417 37.8288 163.238 38.0328 163.238 38.2876V40.5052C163.238 40.7855 163.443 40.9639 163.698 40.9639H164.769C165.05 40.9639 165.228 41.1678 165.228 41.4227V46.4695C165.228 49.5536 166.453 50.3692 169.004 50.3692H171.835C172.116 50.3692 172.295 50.1653 172.295 49.9104V47.6929C172.295 47.4126 172.09 47.2341 171.835 47.2341H170.177C169.106 47.2341 169.106 47.1577 169.106 45.9597V41.4737C169.106 41.1933 169.233 41.0149 169.437 41.0149H171.657V40.9894Z" fill="#0A0B1E"/><path d="M153.953 50.6752C156.173 50.6752 157.525 48.9165 158.188 47.7185C158.264 47.5146 158.392 47.2597 158.724 47.3872C159.055 47.5146 158.8 47.9989 158.596 48.4068C158.392 48.8145 158.264 49.2224 158.264 49.7576V49.8851C158.264 50.1654 158.468 50.3439 158.724 50.3439H161.683C161.963 50.3439 162.218 50.14 162.218 49.8851V38.3133C162.218 38.0329 161.938 37.8545 161.683 37.8545H158.724C158.443 37.8545 158.264 38.0584 158.264 38.3133V42.4934C158.264 45.4501 156.861 47.4126 155.305 47.4126C153.953 47.4126 153.341 46.5971 153.341 43.7678V38.3133C153.341 38.0329 153.06 37.8545 152.805 37.8545H149.846C149.565 37.8545 149.387 38.0584 149.387 38.3133V45.3226C149.361 48.8655 151.173 50.6752 153.953 50.6752Z" fill="#0A0B1E"/><path d="M138.928 33.3936C138.928 33.1132 138.724 32.9348 138.469 32.9348H135.434C135.153 32.9348 134.974 33.1387 134.974 33.3936V49.8847C134.974 50.165 135.178 50.3435 135.434 50.3435H138.393C138.673 50.3435 138.928 50.1396 138.928 49.8847C138.928 49.5533 138.724 49.222 138.52 48.8651C138.316 48.4573 138.112 48.0496 138.444 47.9221C138.724 47.8456 138.775 48.126 138.852 48.2534C139.668 49.8082 140.944 50.7513 142.882 50.7513C146.377 50.7513 148.418 47.7947 148.418 44.0223C148.418 40.25 146.403 37.2934 142.882 37.2934C140.918 37.2934 139.643 38.3129 138.852 39.7912C138.775 39.9951 138.571 40.3265 138.316 40.1226C137.985 39.9951 138.316 39.5109 138.52 39.103C138.724 38.7717 138.928 38.4403 138.928 38.0325V33.3936ZM141.837 47.3868C140.025 47.3868 138.877 45.7811 138.877 43.8949C138.877 42.0087 140 40.3775 141.837 40.3775C143.801 40.3775 144.668 41.9832 144.668 43.8694C144.668 45.7555 143.775 47.3868 141.837 47.3868Z" fill="#0A0B1E"/></svg>