<svg width="208" height="57" viewBox="0 0 208 57" fill="none" xmlns="http://www.w3.org/2000/svg">
<path d="M70.3521 41.9508L72.6856 36.531C75.2073 38.4129 78.557 39.3914 81.8691 39.3914C84.3156 39.3914 85.8587 38.4505 85.8587 37.0203C85.8211 33.0307 71.2177 36.1546 71.1048 26.143C71.0672 21.062 75.5837 17.1477 81.982 17.1477C85.7834 17.1477 89.5848 18.0886 92.2947 20.2339L90.1118 25.7666C87.6277 24.1859 84.5414 23.0567 81.6057 23.0567C79.6109 23.0567 78.2936 23.9977 78.2936 25.2021C78.3312 29.1164 93.0475 26.971 93.198 36.531C93.198 41.725 88.7944 45.3758 82.4713 45.3758C77.8419 45.3758 73.5889 44.2843 70.3521 41.9508ZM159.892 34.5738C158.725 36.6063 156.542 37.9988 154.02 37.9988C150.294 37.9988 147.283 34.9878 147.283 31.2617C147.283 27.5356 150.294 24.5246 154.02 24.5246C156.542 24.5246 158.725 25.9172 159.892 27.9496L166.328 24.3741C163.919 20.0834 159.29 17.1477 154.02 17.1477C146.229 17.1477 139.906 23.4708 139.906 31.2617C139.906 39.0527 146.229 45.3758 154.02 45.3758C159.327 45.3758 163.919 42.4777 166.328 38.1494L159.892 34.5738ZM96.4349 5.44238H104.489V44.8489H96.4349V5.44238ZM169.489 5.44238V44.8489H177.544V33.0307L187.104 44.8489H197.416L185.259 30.8101L196.513 17.7122H186.652L177.544 28.5895V5.44238H169.489ZM128.427 34.6491C127.26 36.5686 124.851 37.9988 122.141 37.9988C118.415 37.9988 115.404 34.9878 115.404 31.2617C115.404 27.5356 118.415 24.5246 122.141 24.5246C124.851 24.5246 127.26 26.0301 128.427 27.9873V34.6491ZM128.427 17.7122V20.9114C127.109 18.6908 123.835 17.1477 120.41 17.1477C113.334 17.1477 107.764 23.3955 107.764 31.2241C107.764 39.0527 113.334 45.3758 120.41 45.3758C123.835 45.3758 127.109 43.8327 128.427 41.612V44.8112H136.481V17.7122H128.427Z" fill="black"/>
<path d="M20.5576 34.6115C20.5576 37.359 18.337 39.5796 15.5895 39.5796C12.842 39.5796 10.6213 37.359 10.6213 34.6115C10.6213 31.8639 12.842 29.6433 15.5895 29.6433H20.5576V34.6115ZM23.0417 34.6115C23.0417 31.8639 25.2623 29.6433 28.0099 29.6433C30.7574 29.6433 32.978 31.8639 32.978 34.6115V47.0318C32.978 49.7794 30.7574 52 28.0099 52C25.2623 52 23.0417 49.7794 23.0417 47.0318V34.6115Z" fill="#E01E5A"/>
<path d="M28.0099 14.6636C25.2624 14.6636 23.0418 12.443 23.0418 9.69545C23.0418 6.94791 25.2624 4.72729 28.0099 4.72729C30.7575 4.72729 32.9781 6.94791 32.9781 9.69545V14.6636H28.0099ZM28.0099 17.1853C30.7575 17.1853 32.9781 19.4059 32.9781 22.1535C32.9781 24.901 30.7575 27.1216 28.0099 27.1216H15.5519C12.8044 27.1216 10.5837 24.901 10.5837 22.1535C10.5837 19.4059 12.8044 17.1853 15.5519 17.1853H28.0099Z" fill="#36C5F0"/>
<path d="M47.9201 22.1535C47.9201 19.4059 50.1408 17.1853 52.8883 17.1853C55.6358 17.1853 57.8564 19.4059 57.8564 22.1535C57.8564 24.901 55.6358 27.1216 52.8883 27.1216H47.9201V22.1535ZM45.4361 22.1535C45.4361 24.901 43.2154 27.1216 40.4679 27.1216C37.7204 27.1216 35.4998 24.901 35.4998 22.1535V9.69545C35.4998 6.94791 37.7204 4.72729 40.4679 4.72729C43.2154 4.72729 45.4361 6.94791 45.4361 9.69545V22.1535Z" fill="#2EB67D"/>
<path d="M40.4679 42.0637C43.2154 42.0637 45.4361 44.2843 45.4361 47.0318C45.4361 49.7794 43.2154 52 40.4679 52C37.7204 52 35.4998 49.7794 35.4998 47.0318V42.0637H40.4679ZM40.4679 39.5796C37.7204 39.5796 35.4998 37.359 35.4998 34.6115C35.4998 31.8639 37.7204 29.6433 40.4679 29.6433H52.9259C55.6735 29.6433 57.8941 31.8639 57.8941 34.6115C57.8941 37.359 55.6735 39.5796 52.9259 39.5796H40.4679Z" fill="#ECB22E"/>
</svg>
