<svg  viewBox="95 25 150 32" fill="none" xmlns="http://www.w3.org/2000/svg"><defs>
<clipPath id="clip0_0_2636">
<rect width="50" height="50" fill="white" transform="translate(20 16)"/>
</clipPath>
<clipPath id="clip1_0_2636">
<rect width="100" height="25" fill="white" transform="translate(90 29)"/>
</clipPath>
</defs><g clip-path="url(#clip0_0_2636)">
<path d="M30.7082 47.496C30.7082 50.3701 28.3853 52.6929 25.5113 52.6929C22.6373 52.6929 20.3145 50.3701 20.3145 47.496C20.3145 44.622 22.6373 42.2992 25.5113 42.2992H30.7082V47.496ZM33.3066 47.496C33.3066 44.622 35.6294 42.2992 38.5034 42.2992C41.3774 42.2992 43.7003 44.622 43.7003 47.496V60.4882C43.7003 63.3622 41.3774 65.685 38.5034 65.685C35.6294 65.685 33.3066 63.3622 33.3066 60.4882V47.496Z" fill="#E01E5A"/>
<path d="M38.504 26.6299C35.63 26.6299 33.3071 24.3071 33.3071 21.4331C33.3071 18.559 35.63 16.2362 38.504 16.2362C41.378 16.2362 43.7008 18.559 43.7008 21.4331V26.6299H38.504ZM38.504 29.2677C41.378 29.2677 43.7008 31.5905 43.7008 34.4646C43.7008 37.3386 41.378 39.6614 38.504 39.6614H25.4725C22.5985 39.6614 20.2756 37.3386 20.2756 34.4646C20.2756 31.5905 22.5985 29.2677 25.4725 29.2677H38.504Z" fill="#36C5F0"/>
<path d="M59.33 34.4646C59.33 31.5905 61.6529 29.2677 64.5269 29.2677C67.4009 29.2677 69.7237 31.5905 69.7237 34.4646C69.7237 37.3386 67.4009 39.6614 64.5269 39.6614H59.33V34.4646ZM56.7316 34.4646C56.7316 37.3386 54.4088 39.6614 51.5347 39.6614C48.6607 39.6614 46.3379 37.3386 46.3379 34.4646V21.4331C46.3379 18.559 48.6607 16.2362 51.5347 16.2362C54.4088 16.2362 56.7316 18.559 56.7316 21.4331V34.4646Z" fill="#2EB67D"/>
<path d="M51.5347 55.2913C54.4088 55.2913 56.7316 57.6142 56.7316 60.4882C56.7316 63.3622 54.4088 65.685 51.5347 65.685C48.6607 65.685 46.3379 63.3622 46.3379 60.4882V55.2913H51.5347ZM51.5347 52.6929C48.6607 52.6929 46.3379 50.3701 46.3379 47.496C46.3379 44.622 48.6607 42.2992 51.5347 42.2992H64.5662C67.4403 42.2992 69.7631 44.622 69.7631 47.496C69.7631 50.3701 67.4403 52.6929 64.5662 52.6929H51.5347Z" fill="#ECB22E"/>
</g><g clip-path="url(#clip1_0_2636)">
<path d="M121.526 48.7822L122.746 45.9297C124.082 46.9193 125.825 47.4431 127.569 47.4431C128.847 47.4431 129.66 46.9485 129.66 46.1918C129.631 44.096 121.962 45.726 121.903 40.4568C121.874 37.7789 124.257 35.7123 127.627 35.7123C129.631 35.7123 131.636 36.2073 133.059 37.3427L131.919 40.256C130.609 39.4139 128.992 38.8268 127.452 38.8268C126.407 38.8268 125.709 39.3214 125.709 39.9622C125.738 42.0289 133.467 40.8935 133.554 45.9297C133.554 48.666 131.229 50.5872 127.917 50.5872C125.477 50.5872 123.24 50.0052 121.525 48.7822H121.526ZM170.121 44.8968C169.813 45.4442 169.365 45.8997 168.822 46.2168C168.28 46.5338 167.663 46.7009 167.035 46.701C165.078 46.701 163.491 45.111 163.491 43.1497C163.491 41.1885 165.078 39.5985 167.035 39.5985C167.663 39.5985 168.28 39.7657 168.822 40.0827C169.365 40.3997 169.813 40.8553 170.121 41.4027L173.514 39.5193C172.243 37.2481 169.819 35.7123 167.035 35.7123C162.936 35.7123 159.612 39.0418 159.612 43.1497C159.612 47.2572 162.936 50.5872 167.035 50.5872C169.819 50.5872 172.243 49.0514 173.514 46.7802L170.121 44.8968ZM135.755 50.296H139.997V29.521H135.756L135.755 50.296ZM175.656 29.521V50.296H179.897V44.0718L184.924 50.296H190.345L183.954 42.9018L189.88 36.0023H184.691L179.897 41.7385V29.521H175.656ZM153.065 36.0031V37.6918C152.368 36.5272 150.654 35.7123 148.852 35.7123C145.134 35.7123 142.199 39.0018 142.199 43.1352C142.199 47.2685 145.134 50.5872 148.852 50.5872C150.654 50.5872 152.368 49.7722 153.065 48.6077V50.296H157.307V36.0031H153.065ZM153.065 44.9256C152.455 45.9443 151.177 46.7006 149.753 46.7006C147.795 46.7006 146.209 45.111 146.209 43.1497C146.209 41.1885 147.795 39.5985 149.753 39.5985C151.177 39.5985 152.455 40.3843 153.065 41.4318V44.9256Z" fill="black"/>
<path d="M99.1258 29.0618C97.7512 29.0618 96.6371 30.1784 96.6371 31.5555C96.6368 31.8827 96.7009 32.2067 96.8258 32.5091C96.9507 32.8115 97.1339 33.0863 97.365 33.3178C97.5961 33.5494 97.8705 33.7332 98.1727 33.8587C98.4748 33.9842 98.7987 34.0489 99.1258 34.0493H101.615V31.5555C101.616 30.8948 101.354 30.2608 100.887 29.7932C100.42 29.3255 99.7866 29.0624 99.1258 29.0618ZM99.1258 35.7118H92.4887C91.1142 35.7118 90 36.8284 90 38.2059C90 39.583 91.1142 40.6997 92.4887 40.6997H99.1263C100.5 40.6997 101.615 39.583 101.615 38.2059C101.615 36.8284 100.5 35.7118 99.1258 35.7118Z" fill="#2FBDEE"/>
<path d="M114.888 38.2059C114.888 36.8284 113.774 35.7118 112.399 35.7118C111.025 35.7118 109.911 36.8284 109.911 38.2059V40.6997H112.399C113.06 40.699 113.693 40.4359 114.16 39.9683C114.627 39.5006 114.889 38.8667 114.888 38.2059ZM108.251 38.2059V31.5555C108.252 30.8948 107.99 30.2608 107.523 29.7932C107.056 29.3255 106.423 29.0624 105.762 29.0618C104.388 29.0618 103.273 30.1784 103.273 31.5555V38.2055C103.273 39.5834 104.388 40.7001 105.762 40.7001C106.423 40.6994 107.056 40.4363 107.523 39.9687C107.99 39.501 108.252 38.8671 108.251 38.2064" fill="#29AD72"/>
<path d="M105.762 54.0002C106.423 53.9996 107.056 53.7365 107.523 53.2688C107.99 52.8012 108.252 52.1672 108.251 51.5065C108.252 50.8457 107.99 50.2118 107.523 49.7441C107.056 49.2765 106.423 49.0134 105.762 49.0127H103.273V51.5065C103.273 52.8836 104.388 54.0002 105.762 54.0002ZM105.762 47.3502H112.4C113.774 47.3502 114.888 46.2336 114.888 44.8561C114.889 44.1953 114.627 43.5614 114.16 43.0937C113.693 42.6261 113.06 42.363 112.399 42.3623H105.762C104.388 42.3623 103.273 43.479 103.273 44.8561C103.273 45.1832 103.337 45.5072 103.462 45.8096C103.587 46.112 103.77 46.3868 104.001 46.6184C104.232 46.8499 104.507 47.0337 104.809 47.1592C105.111 47.2847 105.435 47.3495 105.762 47.3498" fill="#E9A929"/>
<path d="M90 44.8561C89.9997 45.1832 90.0638 45.5072 90.1887 45.8096C90.3136 46.112 90.4968 46.3868 90.7279 46.6184C90.959 46.8499 91.2335 47.0337 91.5356 47.1592C91.8377 47.2847 92.1616 47.3495 92.4887 47.3498C93.1495 47.3491 93.783 47.086 94.2498 46.6184C94.7165 46.1507 94.9785 45.5168 94.9779 44.8561V42.3623H92.4887C91.1142 42.3623 90 43.479 90 44.8561ZM96.6371 44.8561V51.5061C96.6371 52.8836 97.7512 54.0002 99.1258 54.0002C99.7866 53.9996 100.42 53.7365 100.887 53.2688C101.354 52.8012 101.616 52.1672 101.615 51.5065V44.8561C101.615 44.5289 101.551 44.2048 101.426 43.9024C101.301 43.6 101.118 43.3252 100.887 43.0936C100.656 42.862 100.381 42.6783 100.079 42.5528C99.777 42.4273 99.453 42.3626 99.1258 42.3623C97.7512 42.3623 96.6371 43.479 96.6371 44.8561Z" fill="#DC1C50"/>
</g></svg>