<svg  viewBox="20 16 220 50" fill="none" xmlns="http://www.w3.org/2000/svg"><defs>
<clipPath id="clip0_0_1650">
<rect width="50" height="50.4545" fill="white" transform="translate(20 16)"/>
</clipPath>
<clipPath id="clip1_0_1650">
<rect width="100" height="18.4692" fill="white" transform="translate(105 32)"/>
</clipPath>
</defs><g clip-path="url(#clip0_0_1650)">
<path d="M52.8182 58C53.2727 55.3182 52.3182 52.5455 50.2727 50.7273C48.8182 49.3636 46.8636 48.5909 44.8636 48.5909C43.6818 48.5909 42.5455 48.3182 41.5 47.7727C40.1364 47.0455 39.0455 45.9091 38.3182 44.5455C38.7273 43.5 38.9091 42.3636 38.9091 41.1364C38.9091 44.4545 41.5455 47.1364 44.8182 47.1364H44.9545C48.1818 47.0909 50.7727 44.4091 50.7727 41.1364C50.7727 39.9545 51 38.8182 51.3636 37.7273C52 36.0455 53.0909 34.5455 54.5455 33.4545C56.3182 32.0909 58.5 31.4545 60.6818 31.5455C59.1364 28.9091 56.9545 26.6818 54.3182 25.0909C54.3182 25.2273 54.3182 25.4091 54.3182 25.5455C54.3182 27.6364 53.6364 29.6364 52.4091 31.3182C52.0455 31 51.6364 30.7273 51.2273 30.5C52.3182 29.0909 52.8636 27.3636 52.8636 25.5909C52.8636 24.5455 52.6818 23.5 52.2727 22.5C51.0909 19.5909 48.3182 17.5454 45.0455 17.4545H44.8182H44.5909C42.5909 17.4545 40.6364 17.7273 38.7273 18.2727C30.6818 20.4545 24.3636 26.8636 22.2273 35C20.8636 36.6818 20.0455 38.7273 20 40.9091C20.1364 27.2273 31.0455 16.1364 44.5909 16H44.8636C45 16 45.0909 16 45.2273 16C58.6818 16.2273 69.5455 27.2273 69.6818 40.9091C69.6818 41 69.6818 41.0909 69.6818 41.1818C69.6818 41.2727 69.6818 41.3636 69.6818 41.4545C69.6364 43.6364 68.8636 45.6818 67.4545 47.3636C66.1818 48.9091 64.4091 50.0455 62.4545 50.5C61.7273 50.6818 60.9545 50.7727 60.2273 50.7727C58.1818 50.7727 56.1818 50.0909 54.5455 48.8636C53.9545 49.6818 53.2273 50.3636 52.4545 51C53.7727 52.7727 54.4545 55 54.3182 57.2273C56.9545 55.6364 59.1364 53.4091 60.6818 50.7727C61.2727 50.7273 61.8636 50.6364 62.4545 50.5C60.5909 54.1364 57.6364 57.0909 54.0455 59C51.2273 60.5 48.0455 61.2727 44.8636 61.2727C43.4545 61.2727 42.1364 60.5909 41.3182 59.5C40.7273 58.6818 40.4091 57.7273 40.4091 56.7273C40.4091 55.3636 41.0455 54.0909 42 53.2727C42.9091 53.5 43.9091 53.6364 44.9091 53.6364C43.2273 53.6364 41.8182 55.0455 41.8182 56.7727C41.8182 58.5 43.1818 59.9091 44.9091 59.9091H44.9545C46.6364 59.9091 48.0455 58.5 48.0455 56.7727C48.0455 55.0455 46.6818 53.6364 44.9545 53.6364C42.6818 53.6364 40.5 53 38.5455 51.8182C38.1364 51.5455 37.7273 51.2727 37.3636 51C36.5455 50.3636 35.8636 49.6364 35.2273 48.8636C35.5909 48.5909 35.9545 48.2727 36.3182 47.9091C37.1818 49.0455 38.2727 50.0455 39.5455 50.7727C41.1818 51.7273 43.0455 52.2273 44.9545 52.2273C46.0455 52.2273 47.0909 52.6364 47.8636 53.3182C48.8182 54.1364 49.4545 55.4091 49.4545 56.7727C49.4545 57.7727 49.1364 58.7273 48.5455 59.5455C50.0455 59.2273 51.5 58.7727 52.8636 58.0909L52.8182 58ZM62.9545 37.5455C62.6818 36 62.1818 34.5455 61.5 33.1364C59.3182 32.7727 57.0909 33.3636 55.3636 34.6818C53.3636 36.2273 52.1818 38.6364 52.1818 41.1818C52.1818 42.4091 51.9091 43.5455 51.3636 44.5909C50.6818 45.9545 49.5455 47.0909 48.2273 47.8182C49.4545 48.2727 50.5455 49 51.5 49.9091C52.6364 49.0455 53.5909 47.9091 54.2727 46.6818C55.2273 45 55.7273 43.1364 55.7273 41.1818C55.7273 40.0455 56.1364 39.0455 56.8182 38.2273C57.6818 37.2273 58.9091 36.6364 60.2273 36.6364C61.2273 36.6364 62.1818 36.9545 62.9545 37.5455ZM63.2727 41.0455C63.2273 39.4091 61.8636 38.0909 60.1818 38.0455C58.4545 38.0455 57.0909 39.4545 57.0909 41.1364C57.0909 41.1818 57.0909 41.2273 57.0909 41.2273C57.1364 42.9091 58.5 44.2273 60.1818 44.2273C61.9091 44.2273 63.2727 42.8182 63.2727 41.1364C63.2727 41.1364 63.2727 41.0909 63.2727 41.0455ZM56.8182 44.1364C56.5 45.3636 56.0455 46.5909 55.3636 47.6818C57.0909 49.0455 59.3182 49.5909 61.5 49.2273C62.0909 49.1364 62.6818 48.9545 63.2727 48.7273C66.2273 47.5 68.1818 44.6364 68.2727 41.4091V41C68.2727 39 68 37 67.4545 35.0455C65.3182 26.9545 59 20.5454 51 18.3182C52.5455 19.6364 53.5909 21.4091 54.0909 23.3636V23.4091C58.2727 25.6364 61.5 29.2727 63.2727 33.6818C64.2273 36 64.7273 38.5455 64.7273 41.2273C64.7273 42.6818 64.0455 44 62.9545 44.8182C62.1818 45.4091 61.2273 45.7727 60.2273 45.7727C58.8636 45.7273 57.6364 45.0909 56.8182 44.1364ZM44.5 66.3182C31.0455 66.0909 20.1818 55.0455 20.0455 41.4091V41.1364V40.8636C20.0909 38.6818 20.8636 36.6364 22.2727 34.9545C23.5455 33.4091 25.3182 32.3182 27.2727 31.8182C28 31.6364 28.7727 31.5455 29.5 31.5455C31.5455 31.5455 33.5455 32.2273 35.1818 33.4545C35.7727 32.6364 36.5 31.9545 37.2727 31.3182C35.9545 29.5455 35.2727 27.3182 35.3636 25.0909C32.7273 26.6818 30.5455 28.9091 29 31.5455C28.4091 31.5909 27.8182 31.6818 27.2273 31.8182C29.0909 28.1818 32.0455 25.2273 35.6364 23.3182C38.4545 21.8182 41.6364 21.0455 44.8182 21.0455C46.2273 21.0455 47.5455 21.7273 48.3636 22.8182C48.9545 23.5909 49.2727 24.5455 49.2727 25.5909C49.2727 27 48.6364 28.2273 47.6818 29.0455C46.7273 28.8182 45.7727 28.6818 44.7727 28.6818C46.4545 28.6818 47.8636 27.2727 47.8636 25.5455C47.8636 23.8182 46.5 22.4091 44.7727 22.4091H44.7273C43.0455 22.4091 41.6364 23.8182 41.6364 25.5455C41.6364 27.2727 43 28.6818 44.7273 28.6818C47 28.6818 49.1818 29.3182 51.1364 30.5C51.5455 30.7727 51.9545 31.0455 52.3182 31.3182C53.0909 31.9545 53.8182 32.6818 54.4545 33.4545C54.0909 33.7273 53.7273 34.0455 53.3636 34.4091C52.5 33.2727 51.4091 32.2727 50.1364 31.5455C48.5 30.5909 46.6364 30.0909 44.7273 30.0909C43.6818 30.0909 42.6364 29.6818 41.8182 29C40.8182 28.1364 40.2273 26.8636 40.2273 25.5455C40.2273 24.5 40.5909 23.5455 41.1364 22.7727C39.6364 23.0909 38.1364 23.5909 36.7727 24.2273C36.3182 26.9091 37.2727 29.6818 39.3182 31.5C40.7727 32.8636 42.7273 33.6364 44.7273 33.6364C45.9091 33.6364 47.0455 33.9091 48.0909 34.4545C49.4545 35.1818 50.5455 36.3182 51.2727 37.6818C50.8636 38.7727 50.6364 39.9091 50.6818 41.0909C50.6818 37.7727 48.0455 35.0909 44.7727 35.0909H44.7273C41.5 35.1364 38.9091 37.8182 38.9091 41.0909C38.9091 42.2727 38.6818 43.4091 38.3182 44.5C37.6818 46.1818 36.5909 47.6818 35.1364 48.7727C33.3636 50.1364 31.1818 50.7727 29 50.6818C30.5455 53.3182 32.7273 55.5455 35.3636 57.1364C35.2727 54.9091 35.9091 52.7273 37.2273 50.9545C37.5909 51.2727 38 51.5455 38.4091 51.7727C37.3182 53.1818 36.7727 54.9091 36.7727 56.6818C36.7727 57.7273 36.9545 58.7727 37.3636 59.7727C38.5455 62.6818 41.3182 64.7273 44.5909 64.8182H45C47 64.8182 48.9545 64.5455 50.8636 64C58.9091 61.8182 65.2273 55.4091 67.3636 47.2727C68.7273 45.5909 69.5455 43.5455 69.5909 41.3636C69.4545 55.0455 58.5455 66.1364 45 66.2727H44.7273H44.4545C44.5909 66.3182 44.5 66.3182 44.5 66.3182ZM38.7273 64.0455C37.1818 62.7273 36.1364 60.9545 35.6364 59C35.6364 59 35.6364 59 35.6364 58.9545C31.4545 56.7273 28.2273 53.0909 26.4545 48.6818C25.5 46.2727 25 43.7273 25 41.1364C25 39.6818 25.6818 38.3636 26.7727 37.5455C27.5455 36.9545 28.4545 36.5909 29.5 36.5909C30.8636 36.5909 32.0909 37.2273 32.9091 38.1818C33.2273 36.9091 33.6818 35.7273 34.3636 34.6364C32.6364 33.2727 30.4091 32.7273 28.2273 33.0909C27.5909 33.1818 27.0455 33.3636 26.4545 33.5909C23.5 34.8182 21.5455 37.6818 21.4545 40.9091C21.4545 41 21.4545 41.0455 21.4545 41.1364V41.3636C21.4545 43.3636 21.7273 45.3636 22.2727 47.3182C24.4545 55.4545 30.7273 61.8636 38.7273 64.0455ZM28.2273 49.2273C30.4091 49.5909 32.6364 49 34.3636 47.6818C36.3636 46.1364 37.5455 43.7273 37.5455 41.1818C37.5455 39.9545 37.8182 38.8182 38.3636 37.7727C39.0455 36.4091 40.1818 35.2727 41.5 34.5455H41.4545C40.2273 34.0909 39.1364 33.3636 38.1818 32.4545C37.0455 33.3182 36.0909 34.4545 35.4091 35.6818C34.4545 37.3636 33.9545 39.2273 33.9545 41.1818C33.9545 42.3182 33.5455 43.3182 32.8636 44.1364C32 45.1364 30.7727 45.7273 29.4545 45.7273C28.4091 45.7273 27.5 45.3636 26.7273 44.7727C27.0909 46.3182 27.5909 47.8182 28.2273 49.2273ZM26.4545 41.3182C26.5455 42.9545 27.8636 44.3182 29.5455 44.3182C31.2727 44.3182 32.6364 42.9091 32.6364 41.2273C32.6364 41.1818 32.6364 41.1364 32.6364 41.1364C32.5909 39.4545 31.2273 38.1364 29.5455 38.1364C27.8182 38.1364 26.4545 39.5455 26.4545 41.2727C26.4545 41.2273 26.4545 41.2727 26.4545 41.3182Z" fill="#1F1F30"/>
</g><g clip-path="url(#clip1_0_1650)">
<path d="M117.013 47.3744C117.18 46.3927 116.83 45.3777 116.082 44.7121C115.549 44.213 114.834 43.9301 114.101 43.9301C113.669 43.9301 113.253 43.8303 112.87 43.6306C112.371 43.3644 111.972 42.9484 111.705 42.4493C111.855 42.0666 111.922 41.6506 111.922 41.2013C111.922 42.416 112.887 43.3977 114.085 43.3977H114.135C115.316 43.381 116.265 42.3993 116.265 41.2013C116.265 40.7687 116.348 40.3527 116.481 39.9534C116.714 39.3378 117.113 38.7887 117.646 38.3894C118.295 37.8902 119.093 37.6572 119.892 37.6905C119.326 36.7255 118.527 35.9101 117.562 35.3278C117.562 35.3777 117.562 35.4443 117.562 35.4942C117.562 36.2596 117.313 36.9917 116.864 37.6073C116.73 37.4908 116.581 37.391 116.431 37.3078C116.83 36.792 117.03 36.1597 117.03 35.5108C117.03 35.1281 116.963 34.7454 116.814 34.3794C116.381 33.3145 115.366 32.5657 114.168 32.5324H114.085H114.002C113.27 32.5324 112.554 32.6323 111.855 32.8319C108.91 33.6306 106.597 35.9767 105.815 38.9551C105.316 39.5707 105.017 40.3195 105 41.1181C105.05 36.1098 109.043 32.0499 114.002 32H114.101C114.151 32 114.185 32 114.235 32C119.16 32.0832 123.136 36.1098 123.186 41.1181C123.186 41.1514 123.186 41.1847 123.186 41.218C123.186 41.2512 123.186 41.2845 123.186 41.3178C123.17 42.1165 122.887 42.8652 122.371 43.4809C121.905 44.0466 121.256 44.4626 120.541 44.629C120.275 44.6955 119.992 44.7288 119.725 44.7288C118.977 44.7288 118.245 44.4792 117.646 44.03C117.429 44.3295 117.163 44.579 116.88 44.812C117.363 45.4609 117.612 46.2762 117.562 47.0915C118.527 46.5092 119.326 45.6938 119.892 44.7288C120.108 44.7121 120.324 44.6789 120.541 44.629C119.859 45.9601 118.777 47.0416 117.463 47.7404C116.431 48.2895 115.266 48.5724 114.101 48.5724C113.586 48.5724 113.103 48.3228 112.804 47.9235C112.587 47.624 112.471 47.2745 112.471 46.9085C112.471 46.4093 112.704 45.9434 113.053 45.6439C113.386 45.7271 113.752 45.777 114.118 45.777C113.502 45.777 112.987 46.2928 112.987 46.9251C112.987 47.5574 113.486 48.0732 114.118 48.0732H114.135C114.75 48.0732 115.266 47.5574 115.266 46.9251C115.266 46.2928 114.767 45.777 114.135 45.777C113.303 45.777 112.504 45.5441 111.789 45.1115C111.639 45.0116 111.489 44.9118 111.356 44.812C111.057 44.579 110.807 44.3128 110.574 44.03C110.707 43.9301 110.84 43.8136 110.973 43.6805C111.29 44.0965 111.689 44.4626 112.155 44.7288C112.754 45.0782 113.436 45.2612 114.135 45.2612C114.534 45.2612 114.917 45.411 115.2 45.6606C115.549 45.9601 115.782 46.426 115.782 46.9251C115.782 47.2912 115.666 47.6406 115.449 47.9401C115.998 47.8236 116.531 47.6572 117.03 47.4077L117.013 47.3744ZM120.724 39.8869C120.624 39.3211 120.441 38.7887 120.191 38.2729C119.393 38.1398 118.577 38.3561 117.945 38.8386C117.213 39.4043 116.78 40.2862 116.78 41.218C116.78 41.6672 116.681 42.0832 116.481 42.4659C116.231 42.9651 115.815 43.381 115.333 43.6473C115.782 43.8136 116.181 44.0799 116.531 44.4126C116.947 44.0965 117.296 43.6805 117.546 43.2313C117.895 42.6156 118.078 41.9334 118.078 41.218C118.078 40.802 118.228 40.4359 118.478 40.1364C118.794 39.7704 119.243 39.5541 119.725 39.5541C120.092 39.5541 120.441 39.6705 120.724 39.8869ZM120.84 41.1681C120.824 40.5691 120.324 40.0865 119.709 40.0699C119.077 40.0699 118.577 40.5857 118.577 41.2013C118.577 41.218 118.577 41.2346 118.577 41.2346C118.594 41.8502 119.093 42.3328 119.709 42.3328C120.341 42.3328 120.84 41.817 120.84 41.2013C120.84 41.2013 120.84 41.1847 120.84 41.1681ZM118.478 42.2995C118.361 42.7488 118.195 43.198 117.945 43.5973C118.577 44.0965 119.393 44.2962 120.191 44.1631C120.408 44.1298 120.624 44.0632 120.84 43.98C121.922 43.5308 122.637 42.4825 122.671 41.3012V41.1514C122.671 40.4193 122.571 39.6872 122.371 38.9717C121.589 36.01 119.276 33.6639 116.348 32.8486C116.913 33.3311 117.296 33.98 117.479 34.6955V34.7121C119.01 35.5275 120.191 36.8586 120.84 38.4725C121.19 39.3211 121.373 40.2529 121.373 41.2346C121.373 41.7671 121.123 42.2496 120.724 42.5491C120.441 42.7654 120.092 42.8985 119.725 42.8985C119.226 42.8819 118.777 42.6489 118.478 42.2995ZM113.968 50.4193C109.043 50.3361 105.067 46.2928 105.017 41.3012V41.2013V41.1015C105.033 40.3028 105.316 39.5541 105.832 38.9384C106.298 38.3727 106.947 37.9734 107.662 37.7903C107.928 37.7238 108.211 37.6905 108.478 37.6905C109.226 37.6905 109.958 37.9401 110.557 38.3894C110.774 38.0899 111.04 37.8403 111.323 37.6073C110.84 36.9584 110.591 36.1431 110.624 35.3278C109.659 35.9101 108.86 36.7255 108.295 37.6905C108.078 37.7072 107.862 37.7404 107.646 37.7903C108.328 36.4592 109.409 35.3777 110.724 34.6789C111.755 34.1298 112.92 33.8469 114.085 33.8469C114.601 33.8469 115.083 34.0965 115.383 34.4958C115.599 34.7787 115.715 35.1281 115.715 35.5108C115.715 36.0266 115.483 36.4759 115.133 36.7754C114.784 36.6922 114.434 36.6423 114.068 36.6423C114.684 36.6423 115.2 36.1265 115.2 35.4942C115.2 34.8619 114.7 34.3461 114.068 34.3461H114.052C113.436 34.3461 112.92 34.8619 112.92 35.4942C112.92 36.1265 113.419 36.6423 114.052 36.6423C114.884 36.6423 115.682 36.8752 116.398 37.3078C116.547 37.4077 116.697 37.5075 116.83 37.6073C117.113 37.8403 117.379 38.1065 117.612 38.3894C117.479 38.4892 117.346 38.6057 117.213 38.7388C116.897 38.3228 116.498 37.9567 116.032 37.6905C115.433 37.3411 114.75 37.1581 114.052 37.1581C113.669 37.1581 113.286 37.0083 112.987 36.7587C112.621 36.4426 112.404 35.9767 112.404 35.4942C112.404 35.1115 112.537 34.7621 112.737 34.4792C112.188 34.5957 111.639 34.7787 111.14 35.0116C110.973 35.9933 111.323 37.0083 112.072 37.6739C112.604 38.173 113.319 38.4559 114.052 38.4559C114.484 38.4559 114.9 38.5557 115.283 38.7554C115.782 39.0216 116.181 39.4376 116.448 39.9368C116.298 40.3361 116.215 40.7521 116.231 41.1847C116.231 39.97 115.266 38.9884 114.068 38.9884H114.052C112.87 39.005 111.922 39.9867 111.922 41.1847C111.922 41.6173 111.839 42.0333 111.705 42.4326C111.473 43.0483 111.073 43.5973 110.541 43.9967C109.892 44.4958 109.093 44.7288 108.295 44.6955C108.86 45.6606 109.659 46.4759 110.624 47.0582C110.591 46.2429 110.824 45.4443 111.306 44.7953C111.439 44.9118 111.589 45.0116 111.739 45.0948C111.339 45.6106 111.14 46.2429 111.14 46.8918C111.14 47.2745 111.206 47.6572 111.356 48.0233C111.789 49.0882 112.804 49.8369 114.002 49.8702H114.151C114.884 49.8702 115.599 49.7704 116.298 49.5707C119.243 48.772 121.556 46.426 122.338 43.4476C122.837 42.8319 123.136 42.0832 123.153 41.2845C123.103 46.2928 119.11 50.3527 114.151 50.4027H114.052H113.952C114.002 50.4193 113.968 50.4193 113.968 50.4193ZM111.855 49.5874C111.29 49.1048 110.907 48.4559 110.724 47.7404C110.724 47.7404 110.724 47.7404 110.724 47.7238C109.193 46.9085 108.012 45.5774 107.363 43.9634C107.013 43.0815 106.83 42.1497 106.83 41.2013C106.83 40.6689 107.08 40.1864 107.479 39.8869C107.762 39.6705 108.095 39.5374 108.478 39.5374C108.977 39.5374 109.426 39.7704 109.725 40.1198C109.842 39.6539 110.008 39.2213 110.258 38.822C109.626 38.3228 108.81 38.1231 108.012 38.2562C107.779 38.2895 107.579 38.3561 107.363 38.4393C106.281 38.8885 105.566 39.9368 105.532 41.1181C105.532 41.1514 105.532 41.1681 105.532 41.2013V41.2845C105.532 42.0166 105.632 42.7488 105.832 43.4642C106.631 46.4426 108.927 48.7887 111.855 49.5874ZM108.012 44.1631C108.81 44.2962 109.626 44.0799 110.258 43.5973C110.99 43.0316 111.423 42.1498 111.423 41.218C111.423 40.7687 111.522 40.3527 111.722 39.97C111.972 39.4709 112.388 39.0549 112.87 38.7887H112.854C112.404 38.6223 112.005 38.3561 111.656 38.0233C111.24 38.3394 110.89 38.7554 110.641 39.2047C110.291 39.8203 110.108 40.5025 110.108 41.218C110.108 41.6339 109.958 42 109.709 42.2995C109.393 42.6656 108.943 42.8819 108.461 42.8819C108.078 42.8819 107.745 42.7488 107.463 42.5324C107.596 43.0982 107.779 43.6473 108.012 44.1631ZM107.363 41.2679C107.396 41.8669 107.879 42.3661 108.494 42.3661C109.126 42.3661 109.626 41.8502 109.626 41.2346C109.626 41.218 109.626 41.2013 109.626 41.2013C109.609 40.5857 109.11 40.1032 108.494 40.1032C107.862 40.1032 107.363 40.619 107.363 41.2512C107.363 41.2346 107.363 41.2512 107.363 41.2679ZM130.491 36.3927H132.987L135.316 42.7488H135.349L137.646 36.3927H140.141V45.3444H138.561V38.1564H138.544L135.832 45.3444H134.717L132.038 38.1564H132.022V45.3444H130.507L130.491 36.3927ZM144.501 36.3927H150.424V37.7903H146.098V40.0699H150.208V41.401H146.082V43.9301H150.641V45.3444H144.484L144.501 36.3927ZM157.479 40.2529C157.712 40.2529 157.928 40.2363 158.161 40.203C158.378 40.1697 158.577 40.1032 158.777 40.02C158.96 39.9201 159.11 39.787 159.226 39.6206C159.343 39.4542 159.409 39.2213 159.409 38.9551C159.409 38.7055 159.359 38.5058 159.243 38.3561C159.126 38.2063 158.993 38.0732 158.827 37.99C158.644 37.8902 158.461 37.8236 158.245 37.807C158.045 37.7737 157.829 37.7571 157.612 37.7571H156.165V40.2696C156.181 40.2529 157.479 40.2529 157.479 40.2529ZM154.584 36.3927H157.696C158.111 36.3927 158.527 36.4426 158.927 36.5258C159.309 36.609 159.659 36.7587 159.975 36.9584C160.275 37.1581 160.541 37.4409 160.707 37.7571C160.89 38.0898 160.99 38.4892 160.99 38.9551C160.99 39.604 160.807 40.1364 160.441 40.5358C160.075 40.9517 159.576 41.218 158.943 41.3677L161.323 45.3278H159.409L157.346 41.5341H156.181V45.3278H154.584V36.3927ZM171.373 38.4892C171.14 38.173 170.824 37.9235 170.458 37.7903C170.108 37.6406 169.725 37.574 169.343 37.574C168.91 37.574 168.478 37.6572 168.078 37.8236C167.712 37.99 167.379 38.223 167.097 38.5225C166.814 38.822 166.597 39.1714 166.464 39.5541C166.314 39.97 166.231 40.4027 166.248 40.8353C166.248 41.3178 166.314 41.7671 166.464 42.1664C166.614 42.5657 166.814 42.9151 167.08 43.2146C167.346 43.4975 167.662 43.7304 168.028 43.8968C168.394 44.0632 168.81 44.1298 169.276 44.1298C169.759 44.1298 170.175 44.0299 170.557 43.8469C170.907 43.6639 171.223 43.4143 171.456 43.0982L172.737 43.9967C172.354 44.4958 171.855 44.8785 171.29 45.1448C170.724 45.411 170.042 45.5607 169.276 45.5607C168.577 45.5607 167.928 45.4443 167.346 45.2113C166.78 44.995 166.265 44.6622 165.832 44.2463C165.399 43.8136 165.067 43.3145 164.85 42.7488C164.617 42.1664 164.501 41.5341 164.501 40.8353C164.501 40.1198 164.617 39.4709 164.867 38.8885C165.116 38.3062 165.449 37.8236 165.882 37.4243C166.331 37.0083 166.847 36.6922 167.413 36.4925C168.311 36.1597 169.293 36.0765 170.225 36.2429C170.541 36.2928 170.84 36.376 171.123 36.4925C171.406 36.609 171.672 36.7421 171.938 36.9085C172.188 37.0749 172.404 37.2745 172.587 37.5075C172.587 37.5408 171.373 38.4892 171.373 38.4892ZM183.22 42.0499C183.22 42.5824 183.12 43.0815 182.937 43.5141C182.77 43.9301 182.504 44.3128 182.171 44.6123C181.839 44.9118 181.456 45.1614 181.04 45.3111C180.591 45.4775 180.092 45.5607 179.609 45.5607C179.126 45.5607 178.644 45.4775 178.178 45.3111C177.762 45.1614 177.363 44.9118 177.03 44.6123C176.697 44.2962 176.448 43.9301 176.265 43.5141C176.082 43.0815 175.998 42.599 175.998 42.0499V36.3927H177.596V41.9834C177.596 42.2496 177.629 42.4992 177.696 42.7654C177.762 43.015 177.879 43.2479 178.028 43.4476C178.178 43.6473 178.394 43.8136 178.644 43.9468C178.894 44.0799 179.226 44.1298 179.592 44.1298C179.975 44.1298 180.291 44.0632 180.541 43.9468C180.79 43.8303 180.99 43.6639 181.156 43.4476C181.306 43.2479 181.423 43.015 181.489 42.7654C181.556 42.5158 181.589 42.2496 181.589 41.9834V36.3927H183.186C183.22 36.3927 183.22 42.0499 183.22 42.0499ZM190.391 40.2529C190.624 40.2529 190.84 40.2363 191.073 40.203C191.306 40.1697 191.506 40.1032 191.689 40.02C191.872 39.9201 192.022 39.787 192.138 39.6206C192.255 39.4542 192.321 39.2213 192.321 38.9551C192.321 38.7055 192.271 38.5058 192.155 38.3561C192.055 38.2063 191.905 38.0732 191.739 37.99C191.556 37.8902 191.373 37.8236 191.156 37.807C190.957 37.7737 190.74 37.7571 190.524 37.7571H189.077V40.2696C189.093 40.2529 190.391 40.2529 190.391 40.2529ZM187.496 36.3927H190.607C191.023 36.3927 191.439 36.4426 191.839 36.5258C192.221 36.609 192.571 36.7587 192.887 36.9584C193.186 37.1581 193.436 37.4243 193.619 37.7571C193.802 38.0898 193.902 38.4892 193.902 38.9551C193.902 39.604 193.719 40.1364 193.353 40.5358C192.987 40.9517 192.488 41.218 191.855 41.3677L194.235 45.3278H192.321L190.258 41.5341H189.093V45.3278H187.496C187.496 45.3444 187.496 36.3927 187.496 36.3927ZM199.908 41.4676L196.547 36.4093H198.494L200.74 40.1697L203.02 36.4093H204.867L201.506 41.4676V45.3444H199.908V41.4676Z" fill="#1F1F30"/>
</g></svg>