<svg width="48" height="48" viewBox="0 0 48 48" fill="none" xmlns="http://www.w3.org/2000/svg">
<path d="M12 34.5H48V43C48 44.1046 47.1046 45 46 45H14C12.8954 45 12 44.1046 12 43V34.5Z" fill="#5D29A1"/>
<rect x="12" y="24" width="36" height="10.5" fill="#7F32CC"/>
<rect x="12" y="13.5" width="36" height="10.5" fill="#9A40D6"/>
<path d="M15 3C13.3431 3 12 4.34315 12 6V42C12 43.6569 13.3431 45 15 45H36V13.5H48V6C48 4.34315 46.6569 3 45 3H15Z" fill="url(#paint0_linear_0_5850)"/>
<path d="M12 16.5C12 14.8431 13.3431 13.5 15 13.5H27C28.6569 13.5 30 14.8431 30 16.5V37.5C30 39.1569 28.6569 40.5 27 40.5H12V16.5Z" fill="black" fill-opacity="0.3"/>
<rect y="10.5" width="27" height="27" rx="2" fill="url(#paint1_linear_0_5850)"/>
<path d="M19.5 31.5V16.5H16.3339V25.2429L10.4446 16.5H7.5V31.5H10.6218V22.4357L16.7325 31.5H19.5Z" fill="white"/>
<defs>
<linearGradient id="paint0_linear_0_5850" x1="12" y1="24" x2="36.75" y2="24" gradientUnits="userSpaceOnUse">
<stop stop-color="#8C42AC"/>
<stop offset="1" stop-color="#C36DEF"/>
</linearGradient>
<linearGradient id="paint1_linear_0_5850" x1="0" y1="24" x2="28.5" y2="24" gradientUnits="userSpaceOnUse">
<stop stop-color="#44176C"/>
<stop offset="1" stop-color="#621F9C"/>
</linearGradient>
</defs>
</svg>
