<svg width="250" height="82" viewBox="0 0 250 82" fill="none" xmlns="http://www.w3.org/2000/svg">
<path d="M239.042 0V0.5H244C247.038 0.5 249.5 2.96243 249.5 6V10.667H250V15.333H249.5V24.667H250V29.333H249.5V38.667H250V43.333H249.5V52.667H250V57.333H249.5V66.667H250V71.333H249.5V76C249.5 79.0376 247.038 81.5 244 81.5H239.042V82H234.083V81.5H224.167V82H219.208V81.5H209.292V82H204.333V81.5H194.417V82H189.458V81.5H179.542V82H174.583V81.5H164.667V82H159.708V81.5H149.792V82H144.833V81.5H134.917V82H129.958V81.5H120.042V82H115.083V81.5H105.167V82H100.208V81.5H90.292V82H85.333V81.5H75.417V82H70.458V81.5H60.542V82H55.583V81.5H45.667V82H40.708V81.5H30.792V82H25.833V81.5H15.917V82H10.958V81.5H6C2.96243 81.5 0.5 79.0376 0.5 76V71.333H0V66.667H0.5V57.333H0V52.667H0.5V43.333H0V38.667H0.5V29.333H0V24.667H0.5V15.333H0V10.667H0.5V6C0.5 2.96243 2.96243 0.5 6 0.5H10.958V0H15.917V0.5H25.833V0H30.792V0.5H40.708V0H45.667V0.5H55.583V0H60.542V0.5H70.458V0H75.417V0.5H85.333V0H90.292V0.5H100.208V0H105.167V0.5H115.083V0H120.042V0.5H129.958V0H134.917V0.5H144.833V0H149.792V0.5H159.708V0H164.667V0.5H174.583V0H179.542V0.5H189.458V0H194.417V0.5H204.333V0H209.292V0.5H219.208V0H224.167V0.5H234.083V0H239.042Z" stroke="#722ED1" stroke-dasharray="10 5"/>
<g clip-path="url(#clip0_0_885)">
<path d="M32.7907 53.3721H20V66.1628H32.7907V53.3721Z" fill="#4ABEA7"/>
<path d="M44.4186 40.5815V27.7908H20V40.5815H32.7907V53.3722H70V40.5815H44.4186Z" fill="#4ABEA7"/>
<path d="M69.9994 15H44.418V27.7907H69.9994V15Z" fill="#4ABEA7"/>
</g>
<g clip-path="url(#clip1_0_885)">
<path d="M190.219 38.5442C187.155 38.5442 184.734 41.0934 184.734 44.2091C184.734 47.3248 187.155 49.874 190.219 49.874C193.283 49.874 195.704 47.3248 195.704 44.2091C195.704 41.0934 193.283 38.5442 190.219 38.5442ZM190.219 47.0931C188.751 47.0931 187.463 45.8056 187.463 44.2349C187.463 42.6641 188.725 41.3766 190.219 41.3766C191.712 41.3766 192.974 42.6641 192.974 44.2349C192.974 45.8056 191.686 47.0931 190.219 47.0931Z" fill="black"/>
<path d="M162.255 38.7244L162.023 39.9604C162.023 39.9604 161.199 38.5442 158.985 38.5442C156.152 38.5442 153.783 40.5527 153.783 44.1318C153.783 47.5823 156.333 49.8998 158.753 49.8998C161.019 49.8998 162.023 47.9943 162.023 47.9943L162.255 49.6165H164.753V38.7244H162.255ZM159.268 47.0931C157.749 47.0931 156.513 45.8056 156.513 44.2349C156.513 42.6641 157.749 41.3766 159.268 41.3766C160.787 41.3766 162.023 42.6641 162.023 44.2349C162.023 45.8056 160.787 47.0931 159.268 47.0931Z" fill="black"/>
<path d="M169.388 46.1145V41.4796H172.143V38.7244H169.388V35.9949L166.633 36.7416C166.633 36.7416 166.633 45.6253 166.633 46.1403C166.633 46.99 166.633 49.9255 169.954 49.9255C171.447 49.9255 172.143 49.462 172.143 49.462V47.1188C172.143 47.093 169.388 48.2002 169.388 46.1145Z" fill="black"/>
<path d="M209.84 38.5442C207.394 38.5442 206.389 40.3466 206.389 40.3466C206.389 40.3466 205.694 38.5442 203.274 38.5442C201.548 38.5442 200.313 39.3424 199.823 39.9604L199.592 38.7244H197.094V49.7195H199.823V44.2091C199.823 42.7929 200.39 41.3766 201.986 41.3766C203.377 41.3766 203.943 42.2006 203.943 43.5654V49.7195H206.698V43.6426C206.698 42.8959 207.111 41.4024 208.81 41.4024C210.51 41.4024 210.793 42.6384 210.793 43.5396V49.7195H213.548V42.6641C213.548 41.5827 213.11 38.5442 209.84 38.5442Z" fill="black"/>
<path d="M144.18 33.2395V49.7193H147.192V42.8441H152.42V40.1147H147.192V35.9948H155.149V33.2395H144.18Z" fill="black"/>
<path d="M179.636 38.5439C177.859 38.5439 176.906 39.5225 176.572 39.9602V33.2395L173.816 33.9862V49.7193H176.572V43.4364C176.572 42.6897 176.88 41.4022 178.554 41.4022C180.202 41.4022 180.614 42.8184 180.614 43.7711V49.7193H183.369V43.2819C183.369 40.7069 181.825 38.5439 179.636 38.5439Z" fill="black"/>
<path d="M119.612 46.8367H114V52.4489H119.612V46.8367Z" fill="#4ABEA7"/>
<path d="M124.714 41.2245V35.6123H114V41.2245H119.612V46.8368H135.939V41.2245H124.714Z" fill="#4ABEA7"/>
<path d="M135.939 30H124.715V35.6122H135.939V30Z" fill="#4ABEA7"/>
</g>
<defs>
<clipPath id="clip0_0_885">
<rect width="50" height="51.1628" fill="white" transform="translate(20 15)"/>
</clipPath>
<clipPath id="clip1_0_885">
<rect width="100" height="22.449" fill="white" transform="translate(114 30)"/>
</clipPath>
</defs>
</svg>
