<svg  viewBox="20 16 220 50" fill="none" xmlns="http://www.w3.org/2000/svg"><defs>
<clipPath id="clip0_0_866">
<rect width="50" height="12.5" fill="white" transform="translate(157 35)"/>
</clipPath>
<clipPath id="clip1_0_866">
<rect width="100" height="25" fill="white" transform="translate(20 29)"/>
</clipPath>
</defs><g clip-path="url(#clip0_0_866)">
<path d="M159.99 39.0627V38.5787C159.99 38.4494 159.939 38.3253 159.847 38.2339C159.756 38.1424 159.632 38.091 159.502 38.091H158.569V37.6425C158.567 37.1175 158.686 36.8045 158.792 36.6903L158.797 36.684C158.87 36.6124 158.961 36.5626 159.061 36.5402C159.405 36.4848 159.754 36.4578 160.103 36.4595H160.282C160.346 36.4595 160.41 36.4469 160.469 36.4224C160.528 36.3979 160.582 36.362 160.627 36.3167C160.672 36.2714 160.708 36.2177 160.733 36.1585C160.757 36.0993 160.77 36.0358 160.77 35.9718V35.5347C160.77 35.4215 160.731 35.3117 160.659 35.2242C160.587 35.1368 160.487 35.0772 160.375 35.0558C160.316 35.0443 160.25 35.0328 160.177 35.0215C160.085 35.0073 159.602 35 159.507 35H159.5C158.715 35 158.046 35.1835 157.598 35.664C157.16 36.147 157.002 36.8288 157 37.6575V46.7898C157 46.9191 157.051 47.0432 157.143 47.1347C157.234 47.2261 157.358 47.2775 157.488 47.2775H158.081C158.145 47.2776 158.209 47.265 158.268 47.2405C158.327 47.216 158.381 47.1801 158.426 47.1348C158.471 47.0895 158.507 47.0357 158.532 46.9765C158.556 46.9173 158.569 46.8538 158.569 46.7898V39.55H159.502C159.566 39.5501 159.629 39.5376 159.689 39.5132C159.748 39.4888 159.802 39.4529 159.847 39.4076C159.892 39.3624 159.928 39.3086 159.953 39.2495C159.977 39.1903 159.99 39.1268 159.99 39.0627Z" fill="#272827"/>
<path d="M201.869 47.0953C201.912 47.1425 201.965 47.1803 202.023 47.2063C202.082 47.2323 202.145 47.2461 202.21 47.2467H202.813C202.914 47.2468 203.013 47.2153 203.095 47.1567C203.178 47.0981 203.24 47.0153 203.273 46.9198L206.973 36.3045C206.999 36.231 207.007 36.1524 206.996 36.0753C206.985 35.9982 206.956 35.9248 206.911 35.8613C206.865 35.7978 206.806 35.746 206.737 35.7102C206.667 35.6745 206.591 35.6558 206.513 35.6558H205.92C205.819 35.6556 205.72 35.6871 205.637 35.7457C205.555 35.8044 205.492 35.8873 205.459 35.983L201.759 46.5983C201.74 46.6486 201.73 46.702 201.73 46.7557C201.732 46.8823 201.781 47.0036 201.868 47.0953" fill="#7476EB"/>
<path d="M190.027 47.2461H190.604C190.668 47.2462 190.732 47.2336 190.791 47.2092C190.85 47.1847 190.904 47.1487 190.949 47.1034C190.995 47.0581 191.031 47.0043 191.055 46.9451C191.08 46.8859 191.092 46.8225 191.092 46.7584V41.7786C191.095 41.4925 191.142 41.2086 191.233 40.9371C191.325 40.6514 191.464 40.3828 191.643 40.1424C191.809 39.9165 192.02 39.7271 192.262 39.5861C192.499 39.4533 192.768 39.387 193.04 39.3941C193.337 39.3754 193.632 39.4539 193.88 39.6176C194.1 39.787 194.265 40.0174 194.355 40.2801C194.481 40.6359 194.542 41.0114 194.535 41.3886V46.7584C194.535 46.8878 194.586 47.0118 194.678 47.1033C194.769 47.1948 194.893 47.2461 195.022 47.2461H195.6C195.664 47.2462 195.727 47.2336 195.787 47.2091C195.846 47.1846 195.9 47.1486 195.945 47.1033C195.99 47.058 196.026 47.0043 196.05 46.9451C196.075 46.8859 196.087 46.8224 196.087 46.7584V41.7786C196.09 41.4925 196.137 41.2086 196.228 40.9371C196.32 40.6513 196.458 40.3826 196.638 40.1421C196.804 39.9163 197.015 39.7269 197.257 39.5859C197.494 39.4531 197.763 39.3867 198.035 39.3939C198.332 39.3751 198.626 39.4536 198.875 39.6174C199.095 39.7865 199.26 40.0169 199.35 40.2796C199.476 40.6355 199.536 41.011 199.529 41.3884V46.7584C199.529 46.8878 199.581 47.0118 199.672 47.1033C199.764 47.1948 199.888 47.2461 200.017 47.2461H200.595C200.659 47.2462 200.722 47.2336 200.781 47.2092C200.841 47.1847 200.894 47.1487 200.94 47.1034C200.985 47.0581 201.021 47.0043 201.045 46.9451C201.07 46.8859 201.082 46.8225 201.082 46.7584V41.2476C201.097 40.6554 200.99 40.0665 200.769 39.5169C200.564 39.0244 200.212 38.6071 199.762 38.3214C199.28 38.0335 198.726 37.8885 198.164 37.9034H198.155C197.556 37.8982 196.969 38.0653 196.463 38.3849C196.13 38.5995 195.839 38.8739 195.605 39.1941C195.403 38.842 195.119 38.5434 194.777 38.3231C194.303 38.0346 193.756 37.8889 193.201 37.9034H193.189C192.596 37.9 192.015 38.0672 191.514 38.3851C191.364 38.4827 191.223 38.5935 191.093 38.7161V38.5411C191.091 38.414 191.04 38.2924 190.95 38.2023C190.86 38.1121 190.739 38.0605 190.612 38.0584H190.027C189.898 38.0584 189.773 38.1098 189.682 38.2013C189.591 38.2927 189.539 38.4168 189.539 38.5461V46.7584C189.539 46.8878 189.591 47.0118 189.682 47.1033C189.773 47.1948 189.898 47.2461 190.027 47.2461Z" fill="#272827"/>
<path d="M182.331 46.8128C182.986 47.2076 183.741 47.407 184.506 47.3878H184.515C185.265 47.4044 186.006 47.2122 186.653 46.8328C187.283 46.4406 187.778 45.8641 188.069 45.1813C188.4 44.3851 188.562 43.5289 188.544 42.6668C188.561 41.8122 188.403 40.9632 188.08 40.1718C187.794 39.4854 187.309 38.9001 186.688 38.4913C186.036 38.0899 185.282 37.8868 184.517 37.9066H184.507C183.753 37.8907 183.009 38.0858 182.36 38.4698C181.729 38.8621 181.235 39.4395 180.944 40.1233C180.613 40.93 180.455 41.797 180.479 42.6686C180.461 43.5123 180.615 44.3509 180.932 45.1328C181.214 45.8238 181.703 46.4106 182.331 46.8128ZM182.706 40.1773C182.902 39.9248 183.158 39.7244 183.45 39.5936C183.785 39.4548 184.146 39.3867 184.509 39.3936C184.863 39.3869 185.215 39.4559 185.541 39.5961C185.834 39.7333 186.09 39.9391 186.287 40.1961C186.713 40.7418 186.955 41.5426 186.956 42.6508V42.6523C186.956 43.7943 186.714 44.6053 186.303 45.1288C186.109 45.3807 185.855 45.5806 185.565 45.7108C185.231 45.8496 184.871 45.9177 184.509 45.9108C184.168 45.931 183.828 45.8682 183.516 45.7279C183.205 45.5875 182.933 45.3738 182.722 45.1051C182.291 44.5578 182.047 43.7641 182.047 42.6676V42.6661C182.047 41.5143 182.292 40.6993 182.707 40.1771" fill="#272827"/>
<path d="M172.189 35.519V46.7585C172.189 46.8226 172.201 46.886 172.226 46.9452C172.25 47.0044 172.286 47.0582 172.332 47.1035C172.377 47.1488 172.431 47.1848 172.49 47.2093C172.549 47.2338 172.613 47.2463 172.677 47.2463H173.262C173.388 47.2439 173.509 47.1927 173.599 47.1032C173.688 47.0136 173.74 46.8929 173.742 46.7662V41.7787C173.745 41.4959 173.796 41.2157 173.894 40.9503C173.996 40.6628 174.148 40.3953 174.343 40.16C174.533 39.9264 174.771 39.735 175.039 39.598C175.324 39.457 175.638 39.3872 175.955 39.3945C176.312 39.3749 176.667 39.4586 176.977 39.6357C177.222 39.7943 177.412 40.0254 177.519 40.2968C177.656 40.6442 177.723 41.0155 177.715 41.389V46.759C177.715 46.8883 177.767 47.0124 177.858 47.1039C177.95 47.1953 178.074 47.2467 178.203 47.2467H178.803C178.93 47.2446 179.051 47.1933 179.141 47.1036C179.23 47.014 179.282 46.893 179.284 46.7662V41.248C179.3 40.6433 179.176 40.0431 178.921 39.4942C178.682 38.9991 178.299 38.5873 177.823 38.3122C177.299 38.0271 176.709 37.886 176.114 37.9032H176.106C175.474 37.8971 174.852 38.0639 174.308 38.3855C174.105 38.5061 173.916 38.6474 173.742 38.8073V35.519C173.742 35.4549 173.73 35.3915 173.705 35.3323C173.681 35.2731 173.645 35.2193 173.599 35.174C173.554 35.1287 173.5 35.0928 173.441 35.0683C173.382 35.0438 173.318 35.0312 173.254 35.0313H172.669C172.542 35.0335 172.421 35.0849 172.331 35.1747C172.241 35.2644 172.19 35.3855 172.188 35.5125L172.189 35.519Z" fill="#272827"/>
<path d="M168.162 36.643V44.6503C168.164 45.4703 168.324 46.1503 168.757 46.6325C169.207 47.121 169.882 47.3075 170.677 47.3075C170.771 47.3075 170.863 47.3046 170.952 47.2988C171.069 47.2926 171.185 47.2683 171.295 47.2268C171.385 47.1911 171.463 47.129 171.519 47.0485C171.574 46.968 171.604 46.8729 171.604 46.7753V46.3373C171.604 46.2081 171.552 46.0842 171.461 45.9929C171.37 45.9016 171.246 45.8503 171.116 45.8503H170.887C170.664 45.8554 170.44 45.828 170.225 45.769C170.125 45.7471 170.033 45.6977 169.96 45.6265L169.955 45.6198C169.848 45.5053 169.73 45.1913 169.73 44.6673V39.519H170.748C170.875 39.5168 170.996 39.4654 171.085 39.3758C171.175 39.2862 171.226 39.1653 171.228 39.0385V38.5475C171.228 38.4182 171.177 38.2941 171.085 38.2026C170.994 38.1112 170.87 38.0598 170.741 38.0598H169.731V36.643C169.731 36.5137 169.679 36.3896 169.588 36.2981C169.497 36.2067 169.372 36.1553 169.243 36.1553H168.643C168.516 36.1575 168.395 36.209 168.305 36.2987C168.216 36.3885 168.164 36.5096 168.162 36.6365V36.643Z" fill="#272827"/>
<path d="M159.834 44.6203V44.626C159.822 45.1539 159.967 45.6734 160.248 46.12C160.53 46.5484 160.934 46.883 161.407 47.0813C161.934 47.2961 162.499 47.4002 163.068 47.387C163.506 47.3819 163.94 47.3008 164.35 47.1475C164.811 46.9778 165.237 46.7261 165.609 46.4045C165.682 46.342 165.751 46.2753 165.818 46.2068C165.862 46.4914 165.958 46.7653 166.103 47.0143C166.146 47.0855 166.207 47.1443 166.28 47.185C166.353 47.2257 166.435 47.2469 166.519 47.2465L166.804 47.2433C166.932 47.2418 167.055 47.1898 167.145 47.0985C167.236 47.0071 167.286 46.8839 167.286 46.7555V41.5305C167.3 40.8897 167.18 40.2531 166.932 39.662C166.694 39.1146 166.289 38.6569 165.774 38.355C165.194 38.0377 164.54 37.8823 163.879 37.905C163.228 37.8886 162.582 38.0199 161.989 38.289C161.457 38.5399 161.01 38.9399 160.701 39.4403L160.699 39.4438C160.657 39.5104 160.636 39.5873 160.636 39.6658C160.636 39.7579 160.665 39.8477 160.719 39.9226C160.773 39.9975 160.848 40.0539 160.936 40.084L161.414 40.2543C161.487 40.2802 161.564 40.2934 161.641 40.2933C161.743 40.2931 161.844 40.2702 161.935 40.2264C162.027 40.1825 162.108 40.1188 162.173 40.0398C162.218 39.9844 162.266 39.9316 162.317 39.8815C162.63 39.5775 163.095 39.3983 163.817 39.3955C164.128 39.3881 164.438 39.4365 164.733 39.5383C164.943 39.6142 165.13 39.7453 165.273 39.918C165.544 40.2505 165.714 40.7645 165.73 41.501C165.033 41.512 164.415 41.541 163.88 41.591C163.209 41.6509 162.546 41.7887 161.907 42.0018H161.905L161.899 42.0035C161.314 42.1631 160.788 42.4888 160.384 42.9413C160.008 43.4145 159.813 44.0062 159.834 44.6103L159.834 44.6203ZM165.379 44.539C165.144 44.9473 164.814 45.2919 164.415 45.5425C164.027 45.7894 163.575 45.9177 163.115 45.9118C162.651 45.9447 162.189 45.8131 161.812 45.54C161.681 45.4338 161.576 45.2986 161.507 45.145C161.434 44.9684 161.399 44.779 161.402 44.5883C161.399 44.364 161.455 44.1429 161.565 43.9475C161.712 43.7311 161.921 43.5638 162.164 43.4673C162.647 43.2643 163.157 43.1315 163.678 43.073C164.36 42.9832 165.047 42.9349 165.735 42.9285V43.2303C165.736 43.6905 165.613 44.1427 165.379 44.5388" fill="#272827"/>
</g><g clip-path="url(#clip1_0_866)">
<path d="M25.98 37.1255V36.1575C25.98 35.8988 25.8772 35.6507 25.6943 35.4677C25.5114 35.2848 25.2632 35.182 25.0045 35.182H23.1375V34.285C23.1345 33.235 23.3715 32.609 23.5845 32.3805L23.5945 32.368C23.7398 32.2248 23.9224 32.1252 24.1215 32.0805C24.8106 31.9696 25.5076 31.9156 26.2055 31.919H26.564C26.6922 31.9191 26.819 31.8939 26.9374 31.8449C27.0559 31.7959 27.1634 31.7241 27.2541 31.6335C27.3447 31.5429 27.4167 31.4353 27.4657 31.3169C27.5148 31.1985 27.54 31.0716 27.54 30.9435V30.0695C27.5405 29.843 27.4619 29.6233 27.3179 29.4485C27.1739 29.2736 26.9734 29.1544 26.751 29.1115C26.633 29.0885 26.501 29.0655 26.3545 29.043C26.1705 29.0145 25.204 29 25.014 29H25.0005C23.43 29 22.092 29.367 21.196 30.328C20.319 31.294 20.0045 32.6575 20 34.315V52.5795C20 52.8382 20.1028 53.0864 20.2857 53.2693C20.4687 53.4522 20.7168 53.555 20.9755 53.555H22.162C22.2901 53.5552 22.417 53.53 22.5355 53.481C22.6539 53.4321 22.7615 53.3602 22.8521 53.2696C22.9427 53.1789 23.0145 53.0714 23.0635 52.9529C23.1125 52.8345 23.1376 52.7077 23.1375 52.5795V38.1H25.0035C25.1316 38.1003 25.2586 38.0752 25.377 38.0264C25.4955 37.9775 25.6031 37.9058 25.6939 37.8153C25.7846 37.7247 25.8566 37.6173 25.9057 37.4989C25.9548 37.3805 25.98 37.2536 25.98 37.1255Z" fill="#272827"/>
<path d="M109.737 53.1905C109.824 53.2849 109.93 53.3605 110.047 53.4126C110.164 53.4647 110.291 53.4923 110.419 53.4935H111.626C111.828 53.4935 112.025 53.4307 112.19 53.3134C112.355 53.1962 112.48 53.0306 112.546 52.8396L119.946 31.609C119.998 31.462 120.013 31.3048 119.991 31.1506C119.97 30.9964 119.911 30.8496 119.821 30.7226C119.731 30.5955 119.612 30.4919 119.473 30.4204C119.335 30.3489 119.181 30.3116 119.026 30.3115H117.84C117.637 30.3112 117.439 30.3741 117.274 30.4914C117.109 30.6087 116.985 30.7746 116.918 30.966L109.518 52.1966C109.48 52.2973 109.461 52.4039 109.461 52.5115C109.463 52.7646 109.562 53.0073 109.737 53.1905" fill="#7476EB"/>
<path d="M86.0555 53.4923H87.2105C87.3385 53.4924 87.4655 53.4673 87.584 53.4183C87.7025 53.3693 87.81 53.2975 87.9005 53.2069C87.9915 53.1163 88.063 53.0087 88.112 52.8903C88.161 52.7718 88.186 52.6449 88.186 52.5168V42.5573C88.191 41.985 88.286 41.4171 88.467 40.8743C88.6515 40.3028 88.929 39.7657 89.2885 39.2848C89.62 38.833 90.041 38.4543 90.525 38.1723C91 37.9066 91.5375 37.7739 92.0815 37.7883C92.6755 37.7508 93.265 37.9077 93.7615 38.2353C94.2015 38.574 94.532 39.0349 94.7115 39.5603C94.9635 40.2718 95.085 41.0227 95.071 41.7773V52.5168C95.071 52.7755 95.174 53.0236 95.357 53.2066C95.5395 53.3895 95.788 53.4923 96.0465 53.4923H97.2015C97.3295 53.4924 97.4565 53.4672 97.575 53.4182C97.693 53.3692 97.801 53.2973 97.8915 53.2067C97.982 53.1161 98.0535 53.0085 98.1025 52.8901C98.1515 52.7718 98.1765 52.6449 98.1765 52.5168V42.5573C98.1815 41.9851 98.276 41.4172 98.457 40.8743C98.641 40.3025 98.9185 39.7652 99.278 39.2843C99.6095 38.8325 100.031 38.4539 100.515 38.1718C100.99 37.9062 101.527 37.7735 102.071 37.7878C102.665 37.7503 103.254 37.9072 103.751 38.2348C104.191 38.573 104.522 39.0338 104.701 39.5593C104.953 40.271 105.074 41.0221 105.06 41.7768V52.5168C105.06 52.7755 105.163 53.0236 105.346 53.2066C105.529 53.3895 105.777 53.4923 106.036 53.4923H107.191C107.319 53.4924 107.446 53.4673 107.564 53.4183C107.683 53.3693 107.79 53.2975 107.881 53.2069C107.972 53.1163 108.043 53.0087 108.092 52.8903C108.141 52.7718 108.166 52.6449 108.166 52.5168V41.4953C108.195 40.3109 107.982 39.133 107.54 38.0338C107.13 37.0489 106.426 36.2141 105.525 35.6428C104.561 35.067 103.453 34.7771 102.33 34.8068H102.311C101.114 34.7963 99.9395 35.1307 98.9275 35.7698C98.261 36.199 97.6795 36.7477 97.2125 37.3883C96.807 36.684 96.2395 36.0867 95.5565 35.6463C94.608 35.0693 93.513 34.7778 92.403 34.8068H92.3805C91.1945 34.8 90.0315 35.1344 89.0305 35.7703C88.73 35.9654 88.448 36.1869 88.187 36.4323V36.0823C88.184 35.8279 88.0815 35.5848 87.902 35.4045C87.7225 35.2243 87.48 35.1211 87.2255 35.1168H86.0555C85.797 35.1168 85.5485 35.2196 85.366 35.4025C85.183 35.5854 85.08 35.8336 85.08 36.0923V52.5168C85.08 52.7755 85.183 53.0236 85.366 53.2066C85.5485 53.3895 85.797 53.4923 86.0555 53.4923Z" fill="#272827"/>
<path d="M70.66 52.6257C71.971 53.4151 73.48 53.8141 75.01 53.7757H75.0285C76.529 53.8088 78.0095 53.4245 79.3045 52.6657C80.565 51.8813 81.554 50.7282 82.137 49.3627C82.7985 47.7702 83.122 46.0577 83.087 44.3337C83.1205 42.6245 82.8045 40.9264 82.1585 39.3437C81.5865 37.9707 80.617 36.8002 79.3745 35.9827C78.071 35.1799 76.562 34.7735 75.0315 34.8132H75.0115C73.5035 34.7814 72.0165 35.1716 70.7185 35.9397C69.4565 36.7242 68.4674 37.8791 67.886 39.2467C67.2242 40.86 66.9074 42.594 66.956 44.3372C66.9193 46.0246 67.228 47.7018 67.863 49.2657C68.4262 50.6475 69.4032 51.8212 70.66 52.6257ZM71.41 39.3547C71.803 38.8497 72.314 38.4488 72.898 38.1872C73.569 37.9096 74.29 37.7734 75.016 37.7872C75.725 37.7738 76.4285 37.9119 77.0795 38.1922C77.666 38.4666 78.178 38.8782 78.5715 39.3922C79.424 40.4837 79.9085 42.0852 79.9095 44.3017V44.3047C79.9095 46.5887 79.4255 48.2107 78.6035 49.2577C78.2155 49.7613 77.7085 50.1612 77.1285 50.4217C76.4595 50.6992 75.7405 50.8354 75.0165 50.8217C74.335 50.862 73.6535 50.7364 73.031 50.4557C72.4085 50.1751 71.8635 49.7477 71.4425 49.2102C70.5795 48.1157 70.0925 46.5282 70.0925 44.3352V44.3322C70.0925 42.0287 70.5815 40.3987 71.4115 39.3542" fill="#272827"/>
<path d="M50.378 30.038V52.517C50.3779 52.6452 50.403 52.772 50.452 52.8904C50.5009 53.0089 50.5728 53.1164 50.6635 53.2071C50.7541 53.2977 50.8616 53.3696 50.98 53.4185C51.0984 53.4675 51.2254 53.4927 51.3535 53.4925H52.5235C52.7767 53.4879 53.0184 53.3853 53.1976 53.2063C53.3768 53.0273 53.4797 52.7857 53.4845 52.5325V42.5575C53.4903 41.9919 53.5929 41.4314 53.788 40.9005C53.9928 40.3256 54.2964 39.7907 54.685 39.32C55.0666 38.8527 55.5411 38.47 56.0785 38.196C56.6474 37.914 57.2762 37.7743 57.911 37.789C58.6244 37.7497 59.334 37.9173 59.9545 38.2715C60.4444 38.5886 60.8232 39.0508 61.038 39.5935C61.3127 40.2884 61.4464 41.0309 61.431 41.778V52.518C61.431 52.7767 61.5338 53.0249 61.7167 53.2078C61.8997 53.3907 62.1478 53.4935 62.4065 53.4935H63.6065C63.86 53.4891 64.102 53.3865 64.2814 53.2073C64.4607 53.028 64.5635 52.786 64.568 52.5325V41.496C64.5995 40.2866 64.3513 39.0863 63.843 37.9885C63.364 36.9982 62.5986 36.1746 61.646 35.6245C60.5987 35.0543 59.419 34.772 58.227 34.8065H58.2125C56.9484 34.7943 55.7049 35.1277 54.6165 35.771C54.211 36.0121 53.8316 36.2948 53.4845 36.6145V30.038C53.4845 29.9099 53.4592 29.783 53.4102 29.6646C53.3611 29.5462 53.2893 29.4386 53.1986 29.348C53.108 29.2575 53.0004 29.1856 52.882 29.1366C52.7636 29.0876 52.6366 29.0624 52.5085 29.0625H51.338C51.0841 29.067 50.8418 29.1698 50.6622 29.3493C50.4826 29.5289 50.3796 29.7711 50.375 30.025L50.378 30.038Z" fill="#272827"/>
<path d="M42.3242 32.286V48.3006C42.3272 49.9406 42.6472 51.3006 43.5137 52.2651C44.4137 53.2421 45.7637 53.6151 47.3547 53.6151C47.5417 53.6151 47.7251 53.6092 47.9047 53.5976C48.1389 53.5852 48.3698 53.5366 48.5892 53.4536C48.7708 53.3822 48.9269 53.258 49.0373 53.097C49.1476 52.9361 49.2071 52.7457 49.2082 52.5506V51.6746C49.2078 51.4161 49.1049 51.1684 48.922 50.9858C48.7391 50.8031 48.4912 50.7006 48.2327 50.7006H47.7747C47.3274 50.7107 46.8809 50.656 46.4492 50.5381C46.2498 50.4942 46.0666 50.3955 45.9202 50.2531L45.9092 50.2396C45.6952 50.0106 45.4592 49.3826 45.4592 48.3346V38.0381H47.4957C47.7492 38.0336 47.991 37.9309 48.1703 37.7516C48.3495 37.5724 48.4522 37.3305 48.4567 37.0771V36.0951C48.4567 35.8364 48.3539 35.5882 48.171 35.4053C47.9881 35.2223 47.7399 35.1196 47.4812 35.1196H45.4617V32.286C45.4617 32.0273 45.3589 31.7792 45.176 31.5963C44.9931 31.4133 44.7449 31.3105 44.4862 31.3105H43.2862C43.0324 31.315 42.7902 31.4179 42.6108 31.5975C42.4313 31.777 42.3286 32.0192 42.3242 32.273V32.286Z" fill="#272827"/>
<path d="M25.6666 48.2405V48.252C25.6444 49.3078 25.9328 50.3468 26.4961 51.24C27.0604 52.0967 27.867 52.766 28.8131 53.1625C29.8671 53.5923 30.9982 53.8004 32.1361 53.774C33.0116 53.7638 33.8786 53.6017 34.6986 53.295C35.6209 52.9557 36.4742 52.4522 37.2171 51.809C37.3636 51.684 37.5016 51.5505 37.6361 51.4135C37.723 51.9827 37.9161 52.5305 38.2051 53.0285C38.292 53.171 38.4141 53.2886 38.5598 53.37C38.7055 53.4514 38.8698 53.4938 39.0366 53.493L39.6076 53.4865C39.8644 53.4836 40.1097 53.3796 40.2903 53.1969C40.4709 53.0143 40.5721 52.7678 40.5721 52.511V42.061C40.6005 40.7794 40.3591 39.5063 39.8636 38.324C39.3882 37.2292 38.5772 36.3138 37.5476 35.71C36.3881 35.0754 35.0792 34.7645 33.7581 34.81C32.456 34.7773 31.1633 35.0399 29.9771 35.578C28.9137 36.0798 28.019 36.8797 27.4016 37.8805L27.3971 37.8875C27.3145 38.0209 27.2707 38.1746 27.2706 38.3315C27.2718 38.5159 27.3301 38.6953 27.4376 38.8452C27.5451 38.995 27.6964 39.1078 27.8706 39.168L28.8281 39.5085C28.9739 39.5603 29.1274 39.5867 29.2821 39.5865C29.4857 39.5861 29.6867 39.5404 29.8705 39.4527C30.0543 39.365 30.2162 39.2375 30.3446 39.0795C30.4351 38.9688 30.5316 38.8631 30.6336 38.763C31.2601 38.155 32.1896 37.7965 33.6336 37.791C34.2561 37.7763 34.8762 37.8729 35.4646 38.0765C35.8862 38.2283 36.2592 38.4906 36.5446 38.836C37.0866 39.501 37.4276 40.529 37.4596 42.002C36.0656 42.024 34.8291 42.082 33.7596 42.182C32.4167 42.3018 31.0923 42.5775 29.8131 43.0035H29.8086L29.7971 43.007C28.6271 43.3261 27.5746 43.9776 26.7671 44.8825C26.0153 45.829 25.6253 47.0124 25.6671 48.2205L25.6666 48.2405ZM36.7566 48.078C36.2884 48.8946 35.6269 49.5838 34.8301 50.085C34.0537 50.5787 33.1502 50.8354 32.2301 50.8235C31.3006 50.8894 30.3776 50.6262 29.6226 50.08C29.3606 49.8677 29.1518 49.5972 29.0126 49.29C28.8683 48.9368 28.7974 48.558 28.8041 48.1765C28.7971 47.728 28.9095 47.2858 29.1296 46.895C29.4236 46.4622 29.8408 46.1276 30.3271 45.9345C31.2937 45.5286 32.3133 45.2631 33.3551 45.146C34.7192 44.9664 36.0929 44.8699 37.4686 44.857V45.4605C37.4718 46.381 37.226 47.2853 36.7571 48.0775" fill="#272827"/>
</g></svg>