<svg width="172" height="69" viewBox="0 0 172 69" fill="none" xmlns="http://www.w3.org/2000/svg">
<path d="M140.799 7.42688C139.795 7.42688 138.591 7.42688 137.587 7.62686L131.766 17.8167C134.376 16.2179 137.587 15.4191 140.799 15.4191C151.237 15.4191 159.869 24.0102 159.869 34.4C159.869 44.7899 151.237 53.381 140.799 53.381C130.361 53.381 121.93 44.9893 121.729 34.6L115.708 44.7899C119.722 54.5798 129.558 61.3732 140.599 61.3732C155.453 61.3732 167.698 49.1851 167.698 34.4C167.899 19.6149 155.653 7.42688 140.799 7.42688Z" fill="#BF3078"/>
<path d="M58.9004 35.5988L63.5174 27.6066L73.9558 45.3893L85.9994 24.8096L98.0431 45.3893L118.719 10.4239C119.723 8.62569 121.73 7.42688 123.938 7.42688H129.76L98.0436 61.3732L86 40.7935L73.9558 61.3732L58.9004 35.5988Z" fill="#802050"/>
<path d="M67.5317 7.42688L35.8156 61.3732L4.30005 7.42688H10.1213C12.3293 7.42688 14.3368 8.62569 15.3405 10.4239L35.8156 45.5887L56.4912 10.4239C57.4949 8.62569 59.5018 7.42688 61.7104 7.42688H67.5317Z" fill="#26134D"/>
</svg>
