<svg width="184" height="65" viewBox="0 0 184 65" fill="none" xmlns="http://www.w3.org/2000/svg">
<path d="M54.5105 30.4954C49.0904 30.4954 45.0253 34.5605 45.0253 39.9807V49.0143H47.7353V39.9807C47.7353 35.9156 50.4454 33.2055 54.5105 33.2055C58.5757 33.2055 61.2857 35.9156 61.2857 39.9807V49.0143H63.9958V39.9807C63.9958 35.9156 66.7059 33.2055 70.771 33.2055C74.8361 33.2055 77.5462 35.9156 77.5462 39.9807V49.0143H80.2563V39.9807C80.2563 34.5605 76.1912 30.4954 70.771 30.4954C67.2332 30.4954 64.2704 32.2314 62.6408 34.9416C61.0112 32.2314 58.0484 30.4954 54.5105 30.4954Z" fill="#262F45"/>
<path d="M94.0325 30.4954C88.6124 30.4954 84.5473 34.5605 84.5473 39.9807C84.5473 45.4008 88.6124 49.466 94.0325 49.466C96.7426 49.466 99.1139 48.4497 100.808 46.7559V49.0143H103.518V39.9807C103.518 34.5605 99.4527 30.4954 94.0325 30.4954ZM94.0325 33.2055C98.0977 33.2055 100.808 35.9156 100.808 39.9807C100.808 44.0458 98.0977 46.7559 94.0325 46.7559C89.9674 46.7559 87.2573 44.0458 87.2573 39.9807C87.2573 35.9156 89.9674 33.2055 94.0325 33.2055Z" fill="#262F45"/>
<path d="M117.068 30.4954C111.648 30.4954 107.583 34.5605 107.583 39.9807C107.583 45.4008 111.648 49.466 117.068 49.466C119.778 49.466 122.15 48.4497 123.843 46.7559V49.466C123.843 53.5311 121.133 56.2412 117.068 56.2412V58.9512C122.488 58.9512 126.553 54.8861 126.553 49.466V39.9807C126.553 34.5605 122.488 30.4954 117.068 30.4954ZM117.068 33.2055C121.133 33.2055 123.843 35.9156 123.843 39.9807C123.843 44.0458 121.133 46.7559 117.068 46.7559C113.003 46.7559 110.293 44.0458 110.293 39.9807C110.293 35.9156 113.003 33.2055 117.068 33.2055Z" fill="#262F45"/>
<path d="M140.104 30.4954C134.684 30.4954 130.619 34.5605 130.619 39.9807C130.619 45.4008 134.684 49.466 140.104 49.466V46.7559C136.511 46.7559 133.982 44.6337 133.442 41.3357H149.504C149.562 40.8939 149.589 40.4441 149.589 39.9807C149.589 34.5605 145.524 30.4954 140.104 30.4954ZM140.104 33.2055C143.696 33.2055 146.226 35.3277 146.766 38.6256H133.442C133.982 35.3277 136.511 33.2055 140.104 33.2055Z" fill="#262F45"/>
<path d="M153.654 30.9471H156.364V49.0143H153.654V30.9471Z" fill="#262F45"/>
<path d="M169.915 30.4954C164.495 30.4954 160.429 34.5605 160.429 39.9806C160.429 45.4008 164.495 49.4659 169.915 49.4659C172.625 49.4659 174.996 48.4496 176.69 46.7558V49.0142H179.4V39.9806C179.4 34.5605 175.335 30.4954 169.915 30.4954ZM169.915 33.2054C173.98 33.2054 176.69 35.9155 176.69 39.9806C176.69 44.0458 173.98 46.7558 169.915 46.7558C165.85 46.7558 163.14 44.0458 163.14 39.9806C163.14 35.9155 165.85 33.2054 169.915 33.2054Z" fill="#262F45"/>
<path d="M155.009 56.0156C153.886 56.0156 152.976 55.1055 152.976 53.983C152.976 52.8604 153.886 51.9504 155.009 51.9504C156.132 51.9504 157.042 52.8604 157.042 53.983C157.042 55.1055 156.132 56.0156 155.009 56.0156Z" fill="#2397D4"/>
<path d="M8.87418 26.6038C6.51406 29.6629 4.59998 33.1037 4.59998 37.272C4.59998 46.3071 11.4561 53.7583 19.9571 53.7583C28.4578 53.7583 35.3142 46.3071 35.3142 37.272C35.3142 33.1029 33.3971 29.7714 30.9035 26.6038C29.9685 25.6226 28.6186 25.7685 27.6358 26.3964C24.7602 27.8843 23.208 28.4788 19.9571 28.4643C16.8129 28.4502 15.161 27.9367 12.2852 26.3691C11.3025 25.7685 9.80921 25.6226 8.87418 26.6038ZM10.9235 29.1418C13.9042 30.7899 16.5625 31.626 19.9571 31.626C23.3545 31.626 26.0085 30.7899 28.9907 29.1418C30.618 31.4363 32.1525 34.2814 32.1525 37.272C32.1525 44.6799 26.6927 50.5966 19.9571 50.5966C13.2212 50.5966 7.5359 44.6799 7.5359 37.272C7.5359 34.2854 9.29266 31.4381 10.9235 29.1418Z" fill="#262F45"/>
<path d="M16.4977 24.1391H16.4954C14.9884 24.1391 13.7611 22.9135 13.7595 21.4075C13.7573 19.8965 14.9847 18.6691 16.4931 18.6675C18.0024 18.6675 19.2294 19.8931 19.2313 21.3991C19.2313 22.9101 18.006 24.1375 16.4977 24.1391Z" fill="#2397D4"/>
<path d="M23.8866 22.133C22.4794 22.133 21.334 20.9888 21.3331 19.5829C21.3309 18.1732 22.4761 17.0272 23.8843 17.026C25.2933 17.026 26.4387 18.1699 26.4401 19.5759C26.4401 20.9856 25.2968 22.1316 23.8889 22.133H23.8866Z" fill="#2397D4"/>
<path d="M21.7848 14.8416C21.7848 16.1008 20.764 17.1215 19.5049 17.1215C18.2457 17.1215 17.225 16.1008 17.225 14.8416C17.225 13.5825 18.2457 12.5617 19.5049 12.5617C20.764 12.5617 21.7848 13.5825 21.7848 14.8416Z" fill="#2397D4"/>
<path d="M25.2502 11.0114C25.2502 12.1698 24.3111 13.1089 23.1527 13.1089C21.9943 13.1089 21.0552 12.1698 21.0552 11.0114C21.0552 9.853 21.9943 8.91392 23.1527 8.91392C24.3111 8.91392 25.2502 9.853 25.2502 11.0114Z" fill="#2397D4"/>
<path d="M20.508 7.2724C20.508 8.27972 19.6915 9.09631 18.6841 9.09631C17.6768 9.09631 16.8602 8.27972 16.8602 7.2724C16.8602 6.26508 17.6768 5.44849 18.6841 5.44849C19.6915 5.44849 20.508 6.26508 20.508 7.2724Z" fill="#2397D4"/>
</svg>
