<svg width="147" height="81" viewBox="0 0 147 81" fill="none" xmlns="http://www.w3.org/2000/svg">
<path d="M100.488 63.6542C99.5834 66.0891 98.2905 68.1792 96.6098 69.9245C94.9291 71.6699 92.9251 73.0274 90.5765 73.9755C88.2278 74.9236 85.6421 75.4192 82.8193 75.4192C78.4236 75.4192 74.6528 74.3203 71.5284 72.144C68.404 69.9676 66.357 66.9941 65.3873 63.2017H71.7654C72.3903 64.5807 73.166 65.7012 74.1356 66.5416C75.0837 67.3819 76.118 68.0068 77.1954 68.4378C78.2728 68.8687 79.3071 69.1488 80.3198 69.2997C81.3325 69.4505 82.1514 69.5151 82.8409 69.5151C85.1896 69.5151 87.1719 69.1057 88.8311 68.2654C90.4903 67.425 91.8262 66.3476 92.839 65.0332C93.8732 63.7188 94.6059 62.2321 95.0584 60.5513C95.5109 58.8706 95.7479 57.2115 95.7479 55.5308V51.6522C94.4119 53.4622 92.645 55.0136 90.4687 56.2849C88.2924 57.5562 85.8575 58.1811 83.1856 58.1811C80.5137 58.1811 78.0358 57.6855 75.7948 56.6728C73.5539 55.66 71.593 54.281 69.9554 52.5141C68.2962 50.7472 67.0034 48.6786 66.0768 46.3515C65.1503 44.0028 64.6762 41.5033 64.6762 38.8098C64.6762 36.1164 65.1503 33.6168 66.0768 31.2466C67.0034 28.8764 68.2962 26.8293 69.9554 25.084C71.6146 23.3386 73.5539 21.9596 75.7948 20.9253C78.0358 19.891 80.5137 19.3739 83.1856 19.3739C85.9222 19.3739 88.4002 20.0419 90.6411 21.3778C92.8821 22.7138 94.6489 24.3298 95.9418 26.1829V20.3004H101.824V55.5308C101.846 58.5259 101.393 61.2193 100.488 63.6542ZM94.7567 33.5307C94.0887 31.8499 93.1837 30.3847 92.0201 29.1134C90.8781 27.8421 89.5422 26.8509 88.0338 26.1398C86.5255 25.4288 84.9094 25.0624 83.1856 25.0624C81.4618 25.0624 79.8457 25.4288 78.3159 26.1398C76.786 26.8509 75.4716 27.8421 74.3727 29.1134C73.2737 30.3847 72.3903 31.8499 71.7439 33.5307C71.0974 35.2114 70.7742 36.9998 70.7742 38.9176C70.7742 40.7922 71.0974 42.5591 71.7439 44.2183C72.3903 45.899 73.2522 47.3427 74.3727 48.5924C75.4716 49.8422 76.786 50.8118 78.3159 51.5444C79.8457 52.2555 81.4834 52.6218 83.1856 52.6218C84.9094 52.6218 86.5255 52.2555 88.0338 51.5444C89.5422 50.8334 90.8781 49.8422 92.0201 48.5924C93.1622 47.3427 94.0672 45.899 94.7567 44.2183C95.4247 42.5375 95.7694 40.7706 95.7694 38.9176C95.7479 36.9998 95.4247 35.1898 94.7567 33.5307ZM132.099 20.9253C134.361 21.9596 136.322 23.3602 137.981 25.1271C139.64 26.894 140.933 28.9626 141.881 31.3328C142.829 33.703 143.325 36.2241 143.325 38.896C143.325 41.5679 142.851 44.0674 141.881 46.3946C140.933 48.7217 139.619 50.7472 137.981 52.4925C136.322 54.2379 134.361 55.6169 132.099 56.6081C129.836 57.5993 127.38 58.1165 124.751 58.1165C122.122 58.1165 119.687 57.6209 117.425 56.6081C115.162 55.5954 113.223 54.2379 111.542 52.4925C109.862 50.7472 108.547 48.7217 107.599 46.3946C106.651 44.0674 106.155 41.5679 106.155 38.896C106.155 36.2241 106.629 33.703 107.599 31.3328C108.547 28.9626 109.862 26.894 111.542 25.1271C113.223 23.3602 115.184 21.9596 117.425 20.9253C119.666 19.891 122.122 19.3739 124.751 19.3739C127.38 19.3954 129.815 19.9126 132.099 20.9253ZM129.578 51.4583C131.086 50.7472 132.422 49.7775 133.564 48.5493C134.706 47.3211 135.611 45.8774 136.257 44.2183C136.904 42.5375 137.227 40.7706 137.227 38.9176C137.227 36.9998 136.904 35.1898 136.257 33.5091C135.611 31.8068 134.706 30.3416 133.564 29.0918C132.422 27.8421 131.086 26.8509 129.578 26.1183C128.069 25.3857 126.453 24.9978 124.729 24.9978C123.006 24.9978 121.39 25.3641 119.881 26.1183C118.373 26.8509 117.058 27.8421 115.938 29.0918C114.818 30.3416 113.934 31.8068 113.288 33.5091C112.641 35.2114 112.318 37.0214 112.318 38.9176C112.318 40.7922 112.641 42.5591 113.288 44.2183C113.934 45.899 114.818 47.3427 115.938 48.5493C117.058 49.7775 118.373 50.7472 119.881 51.4583C121.39 52.1693 123.006 52.5356 124.729 52.5356C126.475 52.5356 128.069 52.1693 129.578 51.4583ZM9.79451 66.4985C8.80332 66.4985 7.81213 66.2615 6.90713 65.7659C4.92475 64.71 3.67499 62.6415 3.67499 60.379V35.9655C3.67499 32.5826 6.41153 29.8676 9.77296 29.8676C13.1344 29.8676 15.8709 32.6041 15.8709 35.9655V48.9803L35.3931 35.9655L6.41153 16.6158C3.61034 14.7411 2.85618 10.9488 4.70927 8.14758C6.58391 5.34639 10.3763 4.59223 13.1775 6.44532L49.8299 30.8803C51.5322 32.0223 52.5449 33.9185 52.5449 35.9655C52.5449 38.0126 51.5322 39.9087 49.8299 41.0508L13.199 65.4857C12.1647 66.1537 10.9796 66.4985 9.79451 66.4985Z" fill="black"/>
</svg>
