<svg width="263" height="46" viewBox="0 0 263 46" fill="none" xmlns="http://www.w3.org/2000/svg">
<path d="M72.7821 19.4871C70.6772 19.4871 68.2592 20.5076 68.2592 28.4463C68.2592 36.385 70.6772 37.402 72.7821 37.402C74.0914 37.402 75.8382 37.0094 76.7117 33.9446C76.9642 33.0608 77.8186 32.4917 78.7283 32.5315C80.0601 32.5834 80.9595 33.9031 80.5807 35.195C79.3977 39.2422 76.8293 41.2191 72.7821 41.2191C66.9257 41.2191 64.2 37.1598 64.2 28.4445C64.2 19.731 66.9257 15.6717 72.7821 15.6717C76.8293 15.6717 79.3977 17.6468 80.5824 21.694C80.9595 22.986 80.0601 24.3057 78.7283 24.3593C77.8186 24.3956 76.9642 23.8283 76.7117 22.9445C75.8382 19.8814 74.0914 19.4871 72.7821 19.4871ZM96.2004 31.5145C96.2004 27.5365 94.8341 25.5181 92.136 25.5181C89.4413 25.5181 88.0749 27.5365 88.0749 31.5145C88.0749 35.4908 89.4413 37.5075 92.1377 37.5075C94.8323 37.5075 96.2004 35.4908 96.2004 31.5145ZM92.136 21.8082C97.3298 21.8082 100.191 25.2552 100.191 31.5145C100.191 37.7721 97.3298 41.2174 92.1377 41.2174C86.9438 41.2174 84.0848 37.7721 84.0848 31.5145C84.0848 25.2535 86.9438 21.8082 92.1377 21.8082H92.136ZM115.554 31.0856C115.554 27.6524 113.946 25.5181 111.351 25.5181C107.939 25.5181 107.429 29.273 107.429 31.5145C107.429 33.7526 107.939 37.5075 111.351 37.5075C113.946 37.5075 115.554 35.3749 115.554 31.9417V31.0839V31.0856ZM115.554 23.8249V16.277C115.554 15.1926 116.424 14.314 117.497 14.314C118.569 14.314 119.439 15.1926 119.439 16.277V38.9863C119.439 39.9842 118.638 40.7919 117.654 40.7919C116.41 40.766 115.859 40.1122 115.8 39.0105C114.707 40.4616 113.04 41.2191 110.893 41.2191C106.225 41.2191 103.439 37.5905 103.439 31.5145C103.439 25.5268 106.282 21.8082 110.859 21.8082C112.83 21.8082 114.449 22.5121 115.554 23.8249ZM127.867 29.3007H135.737C135.275 26.7582 133.983 25.5181 131.802 25.5181C129.623 25.5181 128.331 26.7565 127.867 29.3007ZM139.777 29.439C139.794 29.5688 139.806 29.6985 139.817 29.8247C139.953 31.4194 138.732 32.7961 137.148 32.7961H127.744C128.03 36.0079 129.408 37.5092 132.051 37.5092C133.336 37.5092 134.306 37.1183 134.986 36.3833C136.074 35.2089 136.951 34.7869 138.11 35.3369C139.116 35.8125 139.429 36.8779 138.755 37.9295C137.371 40.0828 135.092 41.2191 132.015 41.2191C126.662 41.2191 123.714 37.76 123.714 31.4782C123.714 25.2414 126.586 21.8065 131.802 21.8065C136.42 21.8065 139.187 24.4977 139.777 29.4408V29.439ZM146.92 40.7919C145.905 40.7919 145.083 39.9617 145.083 38.9361V17.953C145.083 16.9291 145.905 16.0989 146.918 16.0989H158.292C159.307 16.0989 160.129 16.9291 160.129 17.953C160.129 18.9786 159.307 19.8088 158.292 19.8088H149.039V26.3742H156.173C157.187 26.3742 158.008 27.2062 158.008 28.2301C158.008 29.2557 157.187 30.0859 156.173 30.0859H149.039V38.9361C149.039 39.96 148.215 40.7919 147.2 40.7919H146.918H146.92ZM174.571 33.2268H170.302C168.803 33.2268 167.016 33.6038 167.016 35.4026C167.016 37.2359 168.721 37.5092 169.737 37.5092C172.417 37.5092 174.458 35.6828 174.571 33.2268ZM171.042 21.8065C175.896 21.8065 178.46 24.214 178.46 28.7645V38.9551C178.46 39.9704 177.646 40.7885 176.644 40.785C175.259 40.7573 174.775 39.979 174.806 38.7753C173.486 40.344 171.502 41.2191 169.169 41.2191C165.439 41.2191 163.026 38.9499 163.026 35.4389C163.026 31.7359 165.61 29.695 170.302 29.695H174.574V28.9444C174.574 26.6077 173.429 25.5181 170.971 25.5181C169.553 25.5181 168.541 25.8571 168.009 26.6181C167.923 26.7388 167.848 26.866 167.782 26.9986C167.441 27.6801 166.774 28.1228 166.021 28.1228C164.624 28.1228 163.635 26.6683 164.211 25.3832C164.314 25.1504 164.434 24.9256 164.57 24.7104C165.594 23.114 167.483 21.8065 171.042 21.8065ZM191.493 37.5092C193.43 37.5092 194.43 36.1896 194.903 35.2245C195.21 34.6001 195.855 34.2265 196.543 34.2265H196.924C198.283 34.2265 199.174 35.669 198.577 36.9056C197.327 39.704 194.871 41.2191 191.493 41.2191C186.301 41.2191 183.44 37.7704 183.44 31.5145C183.44 25.34 186.225 21.9016 191.285 21.8082C194.196 21.7563 196.761 23.3683 198.255 25.7551L198.312 25.8536C199.073 27.1335 198.119 28.7662 196.642 28.7662C195.91 28.7662 195.232 28.3563 194.921 27.687C194.824 27.4773 194.71 27.2755 194.582 27.0834C193.887 26.0577 192.873 25.5181 191.493 25.5181C188.798 25.5181 187.432 27.5365 187.432 31.5145C187.432 35.4925 188.798 37.5092 191.493 37.5092ZM215.335 34.332C215.335 33.1265 215.888 32.4571 217.161 32.4762C218.26 32.4762 219.15 33.3755 219.15 34.4859V34.69C219.15 38.9448 216.655 41.3419 212.325 41.2157C208.887 41.1136 206.185 38.1647 206.185 34.69V25.8381H203.557C202.571 25.8381 201.772 25.0321 201.772 24.0376C201.772 23.0414 202.571 22.2354 203.555 22.2354H206.367L206.415 17.8786C206.428 16.8928 207.221 16.0989 208.199 16.0989H208.289C209.273 16.0989 210.07 16.9066 210.07 17.9011V22.2354H216.094C217.08 22.2354 217.876 23.0414 217.876 24.0376C217.876 25.0321 217.08 25.8381 216.094 25.8381H210.072V34.3303C210.072 37.1495 211.469 37.5092 212.685 37.5092C214.519 37.5092 215.335 36.5303 215.335 34.332ZM234.654 31.5128C234.654 27.5348 233.288 25.5181 230.591 25.5181C227.895 25.5181 226.529 27.5365 226.529 31.5145C226.529 35.4908 227.895 37.5075 230.593 37.5075C233.286 37.5075 234.652 35.4908 234.652 31.5145L234.654 31.5128ZM230.591 21.8082C235.785 21.8082 238.644 25.2552 238.644 31.5145C238.644 37.7721 235.785 41.2174 230.591 41.2174C225.398 41.2174 222.539 37.7721 222.539 31.5145C222.539 25.2535 225.398 21.8082 230.591 21.8082ZM252.455 21.8082C256.372 21.8082 258.531 24.3679 258.531 29.0153V29.9424C258.531 31.0268 257.661 31.9054 256.589 31.9054C255.516 31.9054 254.646 31.0268 254.646 29.9424V29.3716C254.646 26.8153 253.66 25.5181 251.715 25.5181C249.302 25.5181 247.616 27.4258 247.616 30.1585V38.8306C247.616 39.9133 246.747 40.7919 245.675 40.7919C244.603 40.7919 243.733 39.9133 243.733 38.8306V24.0878C243.733 23.1071 244.494 22.2492 245.462 22.2371C246.932 22.2146 247.36 23.0154 247.379 24.1327C248.562 22.6228 250.317 21.8065 252.455 21.8065V21.8082Z" fill="#232344"/>
<path d="M12.6898 7.90805C12.6898 10.2015 10.8495 12.059 8.5803 12.059C6.30938 12.059 4.46912 10.2015 4.46912 7.90805C4.46912 5.61464 6.30938 3.75708 8.5803 3.75708C10.8495 3.75708 12.6898 5.61464 12.6898 7.90805ZM12.6898 22.5437C12.6898 24.8353 10.8495 26.6946 8.5803 26.6946C6.30938 26.6946 4.46912 24.8353 4.46912 22.5437C4.46912 20.2502 6.30938 18.3927 8.5803 18.3927C10.8495 18.3927 12.6898 20.2502 12.6898 22.5437ZM12.6898 37.1775C12.6898 39.471 10.8495 41.3285 8.5803 41.3285C6.30938 41.3285 4.46912 39.471 4.46912 37.1775C4.46912 34.8841 6.30938 33.0266 8.5803 33.0266C10.8495 33.0266 12.6898 34.8841 12.6898 37.1775Z" fill="#F44A6A"/>
<path d="M21.9863 3.75708C19.7172 3.75708 17.8769 5.61464 17.8769 7.90805C17.8769 10.2015 19.7172 12.059 21.9863 12.059H37.5525C39.8217 12.059 41.6602 10.2015 41.6602 7.90805C41.6602 5.61464 39.8217 3.75708 37.5507 3.75708H21.9846H21.9863Z" fill="url(#paint0_linear_0_7501)"/>
<path d="M21.9863 18.3911C19.7172 18.3911 17.8769 20.2504 17.8769 22.5421C17.8769 24.8355 19.7172 26.6948 21.9863 26.6948H30.8729C33.1421 26.6948 34.9823 24.8355 34.9823 22.5438C34.9823 20.2504 33.1421 18.3928 30.8729 18.3928H21.9863V18.3911Z" fill="url(#paint1_linear_0_7501)"/>
<defs>
<linearGradient id="paint0_linear_0_7501" x1="17.8764" y1="7.90788" x2="41.6607" y2="7.90788" gradientUnits="userSpaceOnUse">
<stop stop-color="#0AA1A5"/>
<stop offset="1" stop-color="#50D690"/>
</linearGradient>
<linearGradient id="paint1_linear_0_7501" x1="17.8765" y1="22.5428" x2="34.9827" y2="22.5428" gradientUnits="userSpaceOnUse">
<stop stop-color="#0AA1A5"/>
<stop offset="1" stop-color="#50D690"/>
</linearGradient>
</defs>
</svg>
