<svg width="204" height="59" viewBox="0 0 204 59" fill="none" xmlns="http://www.w3.org/2000/svg">
<path fill-rule="evenodd" clip-rule="evenodd" d="M48.3546 12.3779H20.9446V26.1211H34.4316C34.9121 26.1211 35.3019 26.5109 35.3019 26.9914V40.2923H49.2249V13.2498C49.2254 13.0187 49.1338 12.7969 48.9706 12.6334C48.8073 12.4698 48.5857 12.3779 48.3546 12.3779Z" fill="#8E75FF"/>
<path opacity="0.405" fill-rule="evenodd" clip-rule="evenodd" d="M20.943 12.3779V26.1211H8.08435C7.90765 26.1208 7.74862 26.0139 7.68168 25.8504C7.61474 25.6868 7.65312 25.4991 7.77887 25.375L20.943 12.3779ZM36.0433 53.3037C35.9181 53.4266 35.7314 53.4626 35.5696 53.3948C35.4077 53.3271 35.3022 53.1689 35.3019 52.9934V40.2923H49.2249L36.0433 53.3021V53.3037Z" fill="#8E75FF"/>
<path opacity="0.405" fill-rule="evenodd" clip-rule="evenodd" d="M20.9424 26.1221H34.867C35.1056 26.1221 35.3013 26.3162 35.3013 26.5564V40.2933H21.8143C21.3336 40.2933 20.944 39.9036 20.944 39.423V26.1221H20.9424Z" fill="#8E75FF"/>
<path fill-rule="evenodd" clip-rule="evenodd" d="M189.622 11.5114C190.4 12.2815 191.318 12.6649 192.378 12.6649C193.471 12.6649 194.407 12.2815 195.185 11.5114C195.963 10.7414 196.351 9.83448 196.351 8.786C196.351 7.73911 195.963 6.82268 195.185 6.03672C194.454 5.27057 193.437 4.84339 192.378 4.85777C191.318 4.85777 190.4 5.25076 189.622 6.03513C188.844 6.82268 188.456 7.73752 188.456 8.78759C188.456 9.83448 188.844 10.7414 189.622 11.5114ZM105.203 21.5539C105.203 21.6335 105.136 21.7003 105.055 21.7003H99.5899V31.9146C99.5899 32.7658 99.8063 33.3879 100.236 33.7809C100.665 34.1739 101.295 34.3934 102.123 34.4428C102.88 34.4889 103.803 34.4857 104.893 34.4348L105.047 34.4268C105.087 34.4247 105.127 34.4391 105.156 34.4668C105.185 34.4945 105.201 34.533 105.201 34.5732V40.032C105.202 40.107 105.146 40.1702 105.071 40.1784L104.971 40.1895C100.691 40.6398 97.6632 40.2213 95.8908 38.9358C94.0866 37.6264 93.1861 35.286 93.1861 31.9146V21.7003H89.0112C88.9304 21.7003 88.8649 21.6348 88.8649 21.5539V15.7578C88.8649 15.6783 88.9301 15.6115 89.0112 15.6115H93.1845V11.5591C93.1845 11.4414 93.2545 11.3364 93.3611 11.2887L99.3847 8.66826C99.43 8.64769 99.4827 8.65159 99.5246 8.67863C99.5664 8.70566 99.5916 8.7521 99.5915 8.80191V15.6115H105.055C105.135 15.6115 105.201 15.6767 105.201 15.7578V21.5539H105.203ZM116.817 19.8356C117.412 18.2637 118.397 17.0848 119.77 16.2988C121.125 15.5276 122.657 15.1218 124.216 15.1214C124.297 15.1214 124.364 15.1867 124.364 15.2694V21.9278C124.364 21.9952 124.335 22.0594 124.285 22.1045C124.235 22.1497 124.168 22.1716 124.101 22.1649C122.254 21.9994 120.595 22.4019 119.124 23.3709C117.586 24.3843 116.817 26.0708 116.817 28.4287V40.0177C116.817 40.0568 116.802 40.0943 116.774 40.1218C116.746 40.1493 116.709 40.1645 116.669 40.1641H110.557C110.476 40.1641 110.41 40.0985 110.41 40.0177V15.7562C110.41 15.6767 110.476 15.6099 110.557 15.6099H116.669C116.749 15.6099 116.816 15.6751 116.816 15.7562V19.8324L116.817 19.8356ZM147.104 15.6115C147.065 15.611 147.027 15.6263 147 15.6538C146.972 15.6813 146.956 15.7187 146.956 15.7578V18.5103C145.037 16.119 142.339 14.9241 138.863 14.9241C135.553 14.9241 132.713 16.1763 130.347 18.6805C127.98 21.1848 126.796 24.2539 126.796 27.8878C126.796 31.5217 127.98 34.5907 130.347 37.095C132.713 39.5993 135.553 40.8514 138.863 40.8514C142.339 40.8514 145.036 39.6565 146.956 37.2668V40.0177C146.956 40.0972 147.023 40.1641 147.104 40.1641H153.215C153.296 40.1641 153.363 40.0988 153.363 40.0177V15.7562C153.363 15.7172 153.348 15.6797 153.32 15.6522C153.292 15.6247 153.254 15.6095 153.215 15.6099H147.104V15.6115ZM135.14 32.8963C136.43 34.1739 138.067 34.8119 140.056 34.8119C142.041 34.8119 143.688 34.1643 144.996 32.8708C146.304 31.5789 146.956 29.9179 146.956 27.8878C146.956 25.8576 146.304 24.1966 144.996 22.9031C143.688 21.6112 142.041 20.9637 140.054 20.9637C138.069 20.9637 136.43 21.6112 135.138 22.9047C133.849 24.1966 133.202 25.8576 133.202 27.8878C133.202 29.9179 133.848 31.5869 135.14 32.8963ZM181.836 18.6805C179.469 16.1763 176.613 14.9241 173.27 14.9241C169.794 14.9241 167.113 16.119 165.226 18.5087V15.7578C165.226 15.677 165.16 15.6115 165.079 15.6115H158.967C158.886 15.6115 158.82 15.677 158.82 15.7578V49.8375C158.82 49.9186 158.886 49.9854 158.967 49.9854H165.079C165.159 49.9854 165.226 49.9186 165.226 49.8375V37.2668C167.113 39.6565 169.794 40.8514 173.27 40.8514C176.613 40.8514 179.469 39.5993 181.836 37.095C184.202 34.5907 185.386 31.5217 185.386 27.8878C185.386 24.2539 184.202 21.1848 181.836 18.6805ZM167.162 32.8963C168.454 34.1739 170.091 34.8119 172.078 34.8119C174.064 34.8119 175.711 34.1643 177.018 32.8708C178.326 31.5789 178.98 29.9179 178.98 27.8878C178.98 25.8576 178.326 24.1966 177.018 22.9031C175.711 21.6112 174.064 20.9637 172.078 20.9637C170.091 20.9637 168.454 21.6112 167.162 22.9047C165.872 24.1966 165.226 25.8576 165.226 27.8878C165.226 29.9179 165.872 31.5869 167.162 32.8963ZM189.347 40.1641C189.266 40.1641 189.201 40.0985 189.201 40.0177V15.7562C189.201 15.6767 189.266 15.6099 189.347 15.6099H195.46C195.541 15.6099 195.606 15.6751 195.606 15.7562V40.0193C195.606 40.1001 195.541 40.1657 195.46 40.1657H189.347V40.1641ZM75.136 24.1807C74.2577 23.7718 73.8202 23.2388 73.8202 22.5849C73.8202 21.9628 74.0922 21.4712 74.6396 21.1116C75.1853 20.752 75.8726 20.5707 76.6999 20.5707C78.2862 20.5707 79.4842 21.1832 80.2956 22.4067C80.3515 22.4924 80.4606 22.5259 80.555 22.4863L85.9612 20.1204C85.999 20.1035 86.0279 20.0713 86.0406 20.0319C86.0534 19.9924 86.0488 19.9494 86.0281 19.9136C85.9658 19.8098 85.9022 19.707 85.8371 19.6049C84.9128 18.1651 83.7147 17.0911 82.2112 16.2749C80.5566 15.3744 78.7189 14.9241 76.6999 14.9241C74.0175 14.9241 71.7757 15.6194 69.9699 17.0116C68.1673 18.4021 67.2652 20.3097 67.2652 22.7313C67.2652 24.3366 67.7043 25.6699 68.581 26.7343C69.4282 27.7763 70.5319 28.5801 71.7837 29.0667C73.0406 29.5567 74.2991 29.9672 75.5576 30.2934C76.8145 30.6211 77.8836 30.9902 78.7603 31.3991C79.6369 31.808 80.0761 32.3394 80.0761 32.9949C80.0761 34.403 78.9337 35.1062 76.6506 35.1062C74.4757 35.1062 72.969 34.3107 72.1305 32.7229C72.0607 32.584 71.8948 32.5233 71.7519 32.5844L66.3615 34.9471C66.3252 34.9631 66.2969 34.993 66.2831 35.0302C66.2693 35.0674 66.2712 35.1086 66.2883 35.1444L66.3488 35.2669C68.2325 38.9899 71.6659 40.8514 76.6506 40.8514C79.4969 40.8514 81.8723 40.172 83.7752 38.8149C85.6796 37.4546 86.6311 35.5151 86.6311 32.9949C86.6311 31.3244 86.1919 29.9338 85.3153 28.8201C84.4888 27.7454 83.38 26.9214 82.1126 26.4399C80.879 25.9728 79.6188 25.5791 78.3387 25.261C77.0802 24.9492 76.0126 24.5896 75.136 24.1791V24.1807Z" fill="#2F2E8B"/>
</svg>
