<svg  viewBox="20 16 50 50" fill="none" xmlns="http://www.w3.org/2000/svg"><defs>
<clipPath id="clip0_0_1926">
<rect width="50" height="43.5484" fill="white" transform="translate(20 19)"/>
</clipPath>
</defs><path fill-rule="evenodd" clip-rule="evenodd" d="M135 44.6724C133.226 44.6724 131.782 43.2284 131.782 41.4543C131.782 39.6814 133.226 38.2369 135 38.2369C136.774 38.2369 138.217 39.6814 138.217 41.4543C138.217 43.2284 136.774 44.6724 135 44.6724ZM135 35.9336C131.956 35.9336 129.479 38.4102 129.479 41.4543C129.479 44.4989 131.956 46.9759 135 46.9759C138.044 46.9759 140.521 44.4989 140.521 41.4543C140.521 38.4102 138.044 35.9336 135 35.9336Z" fill="#161637"/><path fill-rule="evenodd" clip-rule="evenodd" d="M124.315 39.4328C124.313 39.3685 124.261 39.3174 124.197 39.3174H122.005C122.005 43.3524 118.734 46.6223 114.7 46.6223C110.664 46.6223 107.393 43.3524 107.393 39.3174H105.199C105.135 39.3174 105.083 39.3685 105.081 39.4323L105.08 39.4361C105.08 39.4376 105.081 39.4385 105.081 39.4404C105.147 44.6873 109.436 48.9349 114.7 48.9349C119.962 48.9349 124.248 44.6864 124.315 39.4404C124.315 39.4385 124.315 39.4371 124.315 39.4361C124.315 39.4361 124.315 39.4342 124.315 39.4328Z" fill="#FB5D2E"/><path fill-rule="evenodd" clip-rule="evenodd" d="M114.697 32.0154C110.664 32.0154 107.394 35.2847 107.394 39.3175H121.999C121.999 35.2847 118.73 32.0154 114.697 32.0154Z" fill="#16B4F2"/><path fill-rule="evenodd" clip-rule="evenodd" d="M121.999 39.3174C121.999 43.3511 118.73 46.6195 114.697 46.6195C110.663 46.6195 107.394 43.3511 107.394 39.3174H121.999Z" fill="#2C2C96"/></svg>