<svg  viewBox="20 16 220 50" fill="none" xmlns="http://www.w3.org/2000/svg"><defs>
<clipPath id="clip0_0_1926">
<rect width="50" height="43.5484" fill="white" transform="translate(20 19)"/>
</clipPath>
</defs><path fill-rule="evenodd" clip-rule="evenodd" d="M135 44.6724C133.226 44.6724 131.782 43.2284 131.782 41.4543C131.782 39.6814 133.226 38.2369 135 38.2369C136.774 38.2369 138.217 39.6814 138.217 41.4543C138.217 43.2284 136.774 44.6724 135 44.6724ZM135 35.9336C131.956 35.9336 129.479 38.4102 129.479 41.4543C129.479 44.4989 131.956 46.9759 135 46.9759C138.044 46.9759 140.521 44.4989 140.521 41.4543C140.521 38.4102 138.044 35.9336 135 35.9336Z" fill="#161637"/><path fill-rule="evenodd" clip-rule="evenodd" d="M124.315 39.4328C124.313 39.3685 124.261 39.3174 124.197 39.3174H122.005C122.005 43.3524 118.734 46.6223 114.7 46.6223C110.664 46.6223 107.393 43.3524 107.393 39.3174H105.199C105.135 39.3174 105.083 39.3685 105.081 39.4323L105.08 39.4361C105.08 39.4376 105.081 39.4385 105.081 39.4404C105.147 44.6873 109.436 48.9349 114.7 48.9349C119.962 48.9349 124.248 44.6864 124.315 39.4404C124.315 39.4385 124.315 39.4371 124.315 39.4361C124.315 39.4361 124.315 39.4342 124.315 39.4328Z" fill="#FB5D2E"/><path fill-rule="evenodd" clip-rule="evenodd" d="M114.697 32.0154C110.664 32.0154 107.394 35.2847 107.394 39.3175H121.999C121.999 35.2847 118.73 32.0154 114.697 32.0154Z" fill="#16B4F2"/><path fill-rule="evenodd" clip-rule="evenodd" d="M121.999 39.3174C121.999 43.3511 118.73 46.6195 114.697 46.6195C110.663 46.6195 107.394 43.3511 107.394 39.3174H121.999Z" fill="#2C2C96"/><g clip-path="url(#clip0_0_1926)">
<path fill-rule="evenodd" clip-rule="evenodd" d="M69.2181 37.9417C69.2144 37.7776 69.082 37.6475 68.9173 37.6475H63.3315C63.3315 47.9304 54.9971 56.2633 44.7157 56.2633C34.43 56.2633 26.0951 47.9304 26.0951 37.6475H20.505C20.3404 37.6475 20.2079 37.7776 20.2036 37.9404L20.2012 37.9502C20.2012 37.9538 20.2036 37.9562 20.2036 37.961C20.3719 51.3321 31.3021 62.1567 44.7157 62.1567C58.125 62.1567 69.0492 51.3297 69.2181 37.961C69.2181 37.9562 69.2194 37.9525 69.2194 37.9502C69.2194 37.9502 69.2181 37.9452 69.2181 37.9417Z" fill="#FB5D2E"/>
<path fill-rule="evenodd" clip-rule="evenodd" d="M44.7124 19.0391C34.4327 19.0391 26.1016 27.3707 26.1016 37.6478H63.319C63.319 27.3707 54.9883 19.0391 44.7124 19.0391Z" fill="#16B4F2"/>
<path fill-rule="evenodd" clip-rule="evenodd" d="M63.319 37.6475C63.319 47.927 54.9883 56.2562 44.7122 56.2562C34.4324 56.2562 26.1016 47.927 26.1016 37.6475H63.319Z" fill="#2C2C96"/>
</g><path fill-rule="evenodd" clip-rule="evenodd" d="M175.546 46.6197H177.628C177.693 46.6197 177.745 46.5687 177.745 46.5058V32.1391C177.745 32.07 177.689 32.0154 177.618 32.0154H175.556C175.486 32.0154 175.43 32.07 175.43 32.1391V46.5058C175.43 46.5687 175.482 46.6197 175.546 46.6197Z" fill="#161637"/><path fill-rule="evenodd" clip-rule="evenodd" d="M184.511 44.6724C182.738 44.6724 181.294 43.2284 181.294 41.4543C181.294 39.6814 182.738 38.2369 184.511 38.2369C186.285 38.2369 187.728 39.6814 187.728 41.4543C187.728 43.2284 186.285 44.6724 184.511 44.6724ZM184.511 35.9336C181.466 35.9336 178.99 38.4102 178.99 41.4543C178.99 44.4989 181.466 46.9759 184.511 46.9759C187.556 46.9759 190.033 44.4989 190.033 41.4543C190.033 38.4102 187.556 35.9336 184.511 35.9336Z" fill="#161637"/><path fill-rule="evenodd" clip-rule="evenodd" d="M148.509 36.1874L145.594 43.4237L142.678 36.1874C142.66 36.1423 142.615 36.1116 142.565 36.1116H140.288C140.201 36.1116 140.142 36.2001 140.175 36.2804L144.443 46.7226C144.462 46.7675 144.507 46.7976 144.556 46.7976H146.64C146.691 46.7976 146.735 46.7675 146.753 46.7226L151.021 36.2804C151.054 36.2001 150.995 36.1116 150.908 36.1116H148.622C148.572 36.1116 148.527 36.142 148.509 36.1874Z" fill="#161637"/><path fill-rule="evenodd" clip-rule="evenodd" d="M165.105 36.7162V36.2083C165.105 36.1422 165.052 36.0886 164.986 36.0886H162.901C162.836 36.0886 162.783 36.1422 162.783 36.2083V46.6697C162.783 46.741 162.839 46.7978 162.91 46.7978H164.978C165.048 46.7978 165.105 46.741 165.105 46.6697V40.9041C165.105 39.9624 165.334 39.2803 165.788 38.8731C166.259 38.4513 166.868 38.2376 167.597 38.2376H168.003C168.071 38.2376 168.126 38.1819 168.126 38.1129V36.0588C168.126 35.9896 168.071 35.9336 168.003 35.9336H167.597C166.592 35.9336 165.758 36.197 165.105 36.7162Z" fill="#161637"/><path fill-rule="evenodd" clip-rule="evenodd" d="M170.429 32.9982C169.611 33.7397 169.195 34.8193 169.195 36.2084V46.4991C169.195 46.5657 169.251 46.6197 169.319 46.6197H171.435C171.504 46.6197 171.559 46.5657 171.559 46.4991V38.3319H174.237C174.305 38.3319 174.36 38.2776 174.36 38.2118V36.1814C174.36 36.1153 174.305 36.0612 174.237 36.0612H171.562C171.583 35.3904 171.752 34.9146 172.065 34.6468C172.407 34.3558 172.995 34.2371 173.776 34.3001L174.227 34.3368C174.298 34.3432 174.36 34.2875 174.36 34.2176V32.1783C174.36 32.1155 174.31 32.0626 174.246 32.0583L173.859 32.0327C172.404 31.9335 171.244 32.2605 170.429 32.9982Z" fill="#161637"/><path fill-rule="evenodd" clip-rule="evenodd" d="M202.413 36.1972L200.461 42.806L198.383 36.1943C198.368 36.1447 198.322 36.1116 198.271 36.1116H196.4C196.349 36.1116 196.303 36.1447 196.287 36.1943L194.209 42.806L192.258 36.1972C192.242 36.1459 192.197 36.1116 192.144 36.1116H189.973C189.894 36.1116 189.837 36.1878 189.861 36.2655L193.066 46.714C193.082 46.7641 193.127 46.7976 193.179 46.7976H195.165C195.216 46.7976 195.262 46.7645 195.277 46.7151L197.335 40.2614L199.393 46.7151C199.408 46.7645 199.454 46.7976 199.505 46.7976H201.492C201.544 46.7976 201.59 46.7641 201.605 46.714L204.81 36.2655C204.835 36.1878 204.777 36.1116 204.697 36.1116H202.526C202.474 36.1116 202.428 36.1459 202.413 36.1972Z" fill="#161637"/><path fill-rule="evenodd" clip-rule="evenodd" d="M153.966 38.9353C154.556 38.417 155.307 38.155 156.199 38.155C156.963 38.155 157.639 38.4023 158.21 38.89C158.64 39.2569 158.944 39.7489 159.115 40.3555H153.039C153.217 39.7962 153.528 39.3191 153.966 38.9353ZM159.104 43.3552C159.05 43.3231 158.98 43.3357 158.94 43.3843C158.775 43.5934 158.332 44.1226 157.979 44.3203C157.53 44.5715 156.981 44.6998 156.346 44.6998C155.451 44.6998 154.694 44.4535 154.096 43.9703C153.658 43.6178 153.35 43.1611 153.177 42.6121H161.331C161.398 42.6121 161.452 42.5632 161.459 42.4984L161.497 42.1361C161.524 41.8679 161.538 41.6513 161.538 41.4931C161.538 40.0085 161.05 38.7026 160.088 37.6113C159.108 36.4977 157.809 35.9336 156.231 35.9336C154.614 35.9336 153.267 36.4683 152.23 37.5227C151.197 38.5728 150.674 39.8959 150.674 41.4544C150.674 43.0409 151.205 44.3721 152.255 45.411C153.303 46.4491 154.675 46.9759 156.327 46.9759C157.349 46.9759 158.277 46.755 159.085 46.3208C159.782 45.945 160.36 45.4481 160.809 44.8385C160.848 44.7832 160.914 44.6858 160.965 44.6103C161.003 44.5509 160.986 44.4721 160.925 44.4364L159.104 43.3552Z" fill="#161637"/></svg>