<svg width="172" height="69" viewBox="0 0 172 69" fill="none" xmlns="http://www.w3.org/2000/svg">
<path d="M71.2314 45.5293H74.6071V24.801H71.2314V22.744H88.5314V28.1239H86.4217V24.801H78.6156V34.0839H84.6811V31.0775H86.7381V39.7275H84.6811V36.1409H78.6156V45.5293H82.0439V47.5864H71.2314V45.5293Z" fill="#045388"/>
<path d="M90.6939 45.5293H94.0168V24.801H90.6939V22.744H108.047V28.1239H105.937V24.801H98.0253V33.7675H104.144V30.7611H106.201V39.4111H104.144V35.8772H98.0253V45.5293H106.253V42.0482H108.31V47.5864H90.6939V45.5293Z" fill="#045388"/>
<path d="M110.209 45.5293H113.585V24.801H110.209V22.744H118.174V24.801L126.138 41.4681L133.997 24.801V22.744H142.119V24.801H138.744V45.5293H142.119V47.5864H131.254V45.5293H134.682V28.4403H134.63L125.663 47.5864H124.766L115.958 28.8095H115.853V45.5293H119.228V47.5864H110.209V45.5293Z" fill="#045388"/>
<path d="M144.282 47.5864H150.769V45.5293H148.501L150.769 38.8836H159.05L161.423 45.5293H159.05V47.5864H167.7V45.5293H165.538L156.782 22.1111H154.672L146.444 45.5293H144.282V47.5864ZM158.206 36.8266H151.56L154.778 27.7019H154.883L158.206 36.8266Z" fill="#045388"/>
<path d="M33.2037 5.4964C17.2223 5.4964 4.30005 18.4714 4.30005 34.4C4.30005 50.3287 17.2223 63.3037 33.2037 63.3037C49.1851 63.3037 62.1074 50.3814 62.1074 34.4C62.1074 18.4186 49.1324 5.4964 33.2037 5.4964Z" fill="white"/>
<path d="M50.7682 24.0624C50.4518 24.1679 50.1353 24.2733 49.8189 24.3261C51.6121 27.2797 52.6143 30.7081 52.6143 34.4529C52.6143 45.1599 43.9115 53.8627 33.2045 53.8627C22.4975 53.8627 13.7948 45.1599 13.7948 34.4529C13.7948 30.6026 14.9024 27.016 16.8539 23.9569C16.5375 23.8514 16.221 23.7459 15.9573 23.5877C14.0058 26.6996 12.8454 30.4444 12.8454 34.4529C12.7399 45.6874 21.8646 54.812 33.1518 54.812C44.439 54.812 53.5109 45.6874 53.5109 34.4529C53.6164 30.6026 52.5615 27.0688 50.7682 24.0624Z" fill="#C42032"/>
<path d="M21.9173 18.6297C25.1347 16.309 28.985 14.9904 33.2045 14.9904C37.8987 14.9904 42.2237 16.6255 45.5993 19.4209C45.9686 19.3154 46.3378 19.2099 46.707 19.1044C43.1204 15.8871 38.3734 13.9883 33.2045 13.9883C28.5631 13.9883 24.2908 15.5706 20.8625 18.155C21.0207 18.2078 21.1789 18.2605 21.3899 18.366C21.5481 18.4715 21.7064 18.5243 21.9173 18.6297Z" fill="#C42032"/>
<path d="M33.2037 61.5104C18.2772 61.5104 6.09334 49.3793 6.09334 34.4C6.09334 19.4208 18.2244 7.28969 33.2037 7.28969C48.183 7.28969 60.3141 19.4208 60.3141 34.4C60.3141 49.3793 48.183 61.5104 33.2037 61.5104ZM33.2037 5.4964C17.2223 5.4964 4.30005 18.4714 4.30005 34.4C4.30005 50.3287 17.2223 63.3037 33.2037 63.3037C49.1851 63.3037 62.1074 50.3814 62.1074 34.4C62.1074 18.4186 49.1324 5.4964 33.2037 5.4964Z" fill="#C0C2C4"/>
<path d="M32.9934 39.0419H27.5081C27.6135 39.2001 27.719 39.3584 27.7718 39.5166C28.1937 40.0968 28.7212 40.466 29.4068 40.7297C30.3562 40.9934 30.9892 41.2571 31.4638 41.3626L31.9913 41.5209C32.4132 41.6264 32.7297 41.8901 32.9407 42.101V39.0419H32.9934Z" fill="#5E9841"/>
<path d="M32.7286 36.9316L32.3594 36.7734L32.1484 36.246L31.621 36.035L31.0408 35.5075L30.6716 35.8768L30.1441 35.9822L29.8804 36.4042L29.564 36.8789L29.0365 37.1426L28.6673 37.7755L28.4563 38.0393L28.0871 38.303L27.8762 38.092L27.6652 38.303L27.4015 38.8304C27.2432 38.4612 27.1905 38.1975 27.1377 37.5646C27.0323 36.4569 26.9795 35.0329 26.874 33.6088C28.7201 33.1868 31.0935 32.9758 32.9396 32.9231V37.3008C32.8868 37.1953 32.8341 37.1426 32.7286 36.9316Z" fill="#0778AE"/>
<path d="M38.7941 34.5582C39.0051 34.3999 39.2161 34.2417 39.4798 34.1889C39.4798 33.978 39.5326 33.767 39.5326 33.6088C37.6865 33.1868 35.313 32.9758 33.467 32.9231V34.5582C33.5198 34.6109 33.5725 34.6109 33.6252 34.6636C33.889 34.8219 34.0999 34.9274 34.4164 34.9274C34.6274 34.9274 34.8383 34.8219 35.0493 34.6636C35.3658 34.4527 35.735 34.2417 36.2624 34.2417C36.7371 34.2417 37.0536 34.4527 37.3173 34.6109C37.581 34.7691 37.792 34.8746 38.1085 34.8746C38.3722 34.8746 38.5304 34.7164 38.7941 34.5582Z" fill="#0778AE"/>
<path d="M33.4143 37.7228V39.3051C33.467 39.3578 33.5198 39.3579 33.5725 39.4106C33.8362 39.5688 34.0472 39.6743 34.3637 39.6743C34.5746 39.6743 34.7856 39.5688 34.9966 39.4106C35.313 39.1996 35.6823 38.9886 36.2097 38.9886C36.6844 38.9886 37.0008 39.1996 37.2646 39.3578C37.5283 39.5161 37.7393 39.6216 38.0557 39.6216C38.3194 39.6216 38.4777 39.5161 38.6359 39.4106C39.0051 38.8832 39.2161 38.2502 39.2161 37.5118C39.2161 37.4591 39.2161 37.4591 39.2161 37.4063L39.1633 37.4591C38.8996 37.67 38.5832 37.9338 38.003 37.9338C37.4755 37.9338 37.1063 37.7228 36.8426 37.5646C36.6316 37.4063 36.4207 37.3008 36.1569 37.3008C35.8932 37.3008 35.5768 37.4591 35.3658 37.6173C35.1021 37.8283 34.7329 37.9865 34.3109 37.9865C33.9417 37.9865 33.678 37.881 33.4143 37.7228Z" fill="#0778AE"/>
<path d="M26.2416 28.5986C25.8196 28.3876 25.4504 28.1766 25.0812 27.8074C23.8153 26.6998 23.5516 25.4867 23.9208 24.1153C24.1318 23.3242 24.501 22.9022 24.3428 22.0583C24.2373 21.5836 23.9208 21.1617 23.5516 20.8452C22.7605 20.054 21.7583 19.5794 20.2815 19.0519C19.3849 18.7355 16.7477 17.9443 15.5873 16.8894C15.3236 17.6278 15.851 18.6827 16.5367 18.7882C15.9565 18.8409 15.4291 19.1574 15.2181 19.4739C15.64 20.0013 16.5367 20.5287 17.2751 20.5287C16.9059 20.7397 16.5367 21.2144 16.3785 21.4781C17.0114 21.8473 18.0135 22.1111 18.8047 22.0583C18.4882 22.322 18.2245 22.6385 18.0135 22.955C18.541 23.2187 19.5431 23.5351 20.5452 23.5879C20.176 23.7989 19.6486 24.379 19.4376 24.7483C19.965 25.012 21.1782 25.1175 21.8638 25.2229C21.3364 25.4867 20.8089 26.0141 20.4925 26.5415C21.0199 26.8053 22.0221 27.069 22.866 27.069C22.444 27.4382 22.233 27.9129 22.0748 28.3876C22.7077 28.4931 23.3407 28.4931 24.0791 28.4403C23.6044 29.0205 23.4461 29.8117 23.3406 30.3391C23.9736 30.2864 24.7647 30.1809 25.3449 29.8117C25.2394 30.2864 25.2394 30.9193 25.4504 31.3412C25.7141 31.2885 25.9778 31.183 26.2416 31.0248C26.2943 30.2336 26.2943 29.3897 26.2416 28.5986Z" fill="#045388"/>
<path d="M51.1367 18.3135C49.9763 19.3684 48.183 19.6321 46.2315 20.265C44.8074 20.7397 43.858 21.0034 42.5394 22.0583C42.1702 22.322 41.801 22.7967 41.8538 23.5351C41.9065 24.379 42.0647 24.7483 42.0647 25.9086C42.0647 26.6998 41.801 27.4382 41.4318 27.8074C41.0626 28.2294 40.5879 28.5986 40.166 28.8095C40.1132 29.4952 40.0605 30.2336 40.0077 31.0775C40.3242 31.2358 40.6934 31.394 40.9571 31.4467C41.1681 31.0248 41.1681 30.3918 41.0626 29.9172C41.6428 30.2864 42.4339 30.3918 43.0669 30.4446C43.0141 29.9172 42.8031 29.126 42.3285 28.5458C43.0669 28.6513 43.7525 28.6513 44.3327 28.4931C44.1745 28.0711 43.9108 27.5964 43.5416 27.1745C44.3327 27.2272 45.3349 26.9108 45.915 26.647C45.5986 26.1196 45.0711 25.5922 44.5437 25.3284C45.2821 25.2757 46.4952 25.1175 47.0754 24.8537C46.8117 24.4845 46.2842 23.8516 45.915 23.6934C46.8644 23.6406 47.8666 23.2714 48.4467 23.0604C48.2358 22.744 47.972 22.4275 47.6556 22.1638C48.5522 22.1111 49.4489 21.9528 50.0818 21.5836C49.9763 21.3199 49.5016 20.8452 49.1852 20.6342C51.0839 20.054 51.1367 19.1047 51.1367 18.3135Z" fill="#045388"/>
<path d="M42.9614 20.4233C40.1659 18.4717 36.8431 17.3641 33.2038 17.3641C29.9336 17.3641 26.8217 18.3135 24.1846 19.8958C24.8702 20.4233 25.2394 21.0034 25.3977 21.5309C25.5031 22.0583 25.5559 22.6385 25.2394 23.5351C24.923 24.4845 24.7647 25.4339 25.4504 26.4361C26.1361 27.3854 27.0327 27.8601 27.8239 27.9656C28.7733 27.8074 29.8809 27.6492 30.9358 27.5437C31.0413 27.069 31.516 26.6998 31.8852 26.3306C32.4653 25.8559 32.3599 25.4339 32.2544 25.1175C32.1489 24.8537 31.8852 24.6955 31.6214 24.4845C31.3577 24.3263 30.3556 24.2208 30.3556 24.9065C30.1974 24.6955 30.0919 24.379 30.1446 23.9571C30.2501 23.3769 31.1995 23.2714 31.4105 23.2714C31.1995 23.1132 31.3577 22.9022 31.7797 22.744C32.2544 22.6385 32.7291 22.5858 33.151 22.5858C34.0477 22.6385 34.2059 22.8495 34.6806 23.2187C35.2608 23.7461 35.9464 23.8516 36.2629 23.5879C36.0519 24.0626 35.3663 24.3263 34.997 24.2208C35.208 24.8537 35.2608 25.4339 35.3663 26.1196C35.419 26.4361 35.4717 26.9635 35.5772 27.3854C36.7903 27.4909 38.0034 27.6492 39.1111 27.8601C39.533 27.7547 40.0077 27.4909 40.4297 26.9635C40.8516 26.5415 41.1681 25.9086 41.0099 24.4845C40.9571 24.0626 40.7461 23.0604 40.7989 22.533C40.7989 21.7419 41.6428 20.9507 42.9614 20.4233Z" fill="#045388"/>
<path d="M31.6214 23.4297C31.7797 23.5351 31.8852 23.5879 31.9379 23.5351C31.9379 23.5879 31.9906 23.5879 31.9906 23.6406C32.0434 23.6934 32.0434 23.6934 32.0434 23.7461C32.0961 23.6934 32.3071 23.6406 32.5181 23.5351C32.7291 23.4824 32.94 23.3769 32.94 23.3769C32.1489 23.2714 32.0434 23.4824 31.6214 23.4297Z" fill="#045388"/>
<path d="M38.7945 36.932C38.9527 36.8266 39.111 36.6683 39.3747 36.5628C39.4274 36.0354 39.4274 35.508 39.4802 34.9278C39.4274 34.9805 39.3747 35.0333 39.2692 35.086C39.0055 35.297 38.689 35.5607 38.1088 35.5607C37.5814 35.5607 37.2122 35.3497 36.9485 35.1915C36.7375 35.0333 36.5265 34.9278 36.2628 34.9278C35.9991 34.9278 35.6826 35.086 35.4716 35.2442C35.2079 35.4552 34.8387 35.6134 34.4168 35.6134C33.9948 35.6134 33.6783 35.508 33.4674 35.3497V36.8793C33.5201 36.932 33.5729 36.932 33.6256 36.9848C33.8893 37.143 34.1003 37.2485 34.4168 37.2485C34.6277 37.2485 34.8387 37.143 35.0497 36.9848C35.3662 36.7738 35.7354 36.5628 36.2628 36.5628C36.7375 36.5628 37.054 36.7738 37.3177 36.932C37.5814 37.0903 37.7924 37.1958 38.1088 37.1958C38.3726 37.2485 38.5308 37.0903 38.7945 36.932Z" fill="#045388"/>
<path d="M34.364 40.4131C33.9421 40.4131 33.6256 40.3076 33.4146 40.1494V42.0482C33.6256 41.8372 33.9421 41.6262 34.364 41.468L34.8915 41.3098C35.3134 41.1516 35.9463 40.9406 36.9485 40.6769C37.2122 40.5714 37.4759 40.4659 37.7396 40.3077C37.3704 40.2549 37.1594 40.0967 36.9485 39.9384C36.7375 39.7802 36.5265 39.6747 36.2628 39.6747C35.9991 39.6747 35.6826 39.833 35.4716 39.9912C35.1024 40.2022 34.786 40.4131 34.364 40.4131Z" fill="#045388"/>
<path d="M26.8744 33.1345C26.7689 31.5522 26.7162 29.9171 26.6634 28.6513C28.6149 28.2293 31.1994 27.9128 33.2037 27.9128C35.2079 27.9128 37.7924 28.1766 39.7439 28.6513C39.6912 29.9171 39.6384 31.5522 39.5329 33.1345C37.7396 32.7653 35.2607 32.4488 33.2037 32.4488C31.1466 32.4488 28.7204 32.7653 26.8744 33.1345Z" fill="#045388"/>
<path d="M55.8307 26.7525C56.8328 26.3305 57.3075 25.1702 56.8856 24.2208C56.4636 23.2714 55.3032 22.8494 54.3011 23.2714C53.299 23.6933 52.8243 24.8537 53.2462 25.8031C53.6682 26.8052 54.8285 27.2272 55.8307 26.7525ZM54.6176 24.0625C55.4087 23.6933 56.3054 23.8516 56.5691 24.4317C56.7801 24.9592 56.3054 25.7503 55.5142 26.0668C54.7231 26.436 53.7737 26.2778 53.5627 25.6976C53.299 25.1702 53.8264 24.379 54.6176 24.0625Z" fill="#045388"/>
<path d="M54.4066 29.3897L53.9846 27.9128L54.2484 27.8074L54.3539 28.2293L57.5712 27.4381L57.4657 27.0162L57.6767 26.9634L58.3096 29.2314H58.4679L58.5206 29.4952L57.624 29.7589L57.5185 29.4424L57.9404 29.3369L57.6767 28.1766L56.3581 28.493L56.5691 29.3897L56.9383 29.2842L57.0438 29.6006L55.9362 29.8644L55.8307 29.6006L56.2526 29.4952L55.9889 28.5985L54.5121 28.9677L54.6176 29.3369L54.4066 29.3897Z" fill="#045388"/>
<path d="M9.4688 25.3284L9.36331 25.8031L11.4203 26.436C12.0533 26.647 12.3697 26.9634 12.4752 27.4909C12.5279 27.7546 12.5279 28.0711 12.4225 28.3348C12.1587 29.2314 11.4731 29.6534 10.7347 29.4424L8.51941 28.8095L8.41392 29.2314L8.20295 29.1787L8.67764 27.6491L8.88862 27.7019L8.78313 28.1238L10.8401 28.7567C11.4203 28.915 11.684 28.915 11.895 28.6513C12.0005 28.5458 12.106 28.3875 12.1587 28.2293C12.3697 27.5964 12.0533 27.0689 11.4203 26.858L9.36331 26.225L9.25783 26.6997L8.99411 26.647L9.20508 25.2756L9.4688 25.3284Z" fill="#045388"/>
<path d="M13.1081 26.225C13.0026 26.436 12.7917 26.4888 12.5807 26.436C12.3697 26.3305 12.317 26.1195 12.3697 25.9086C12.4752 25.6976 12.6862 25.6448 12.8972 25.6976C13.1081 25.8031 13.2136 26.0141 13.1081 26.225Z" fill="#045388"/>
<path d="M13.8465 24.59L13.6883 24.8537L12.7917 24.3263L12.9499 24.0625L13.3191 24.2735C13.6356 24.168 13.7938 24.0098 13.8993 23.7461C14.1103 23.4296 14.0048 23.1131 13.7411 22.9549C13.5301 22.8494 13.2664 22.9022 12.6862 23.1659C12.106 23.4824 12.0533 23.5351 11.7895 23.5878C11.5786 23.6406 11.3676 23.5878 11.1566 23.4824C10.5764 23.1659 10.4709 22.5857 10.7874 21.9528C10.8929 21.7418 10.9984 21.5836 11.2093 21.4781L11.0511 21.4253L11.2093 21.1616L12.0533 21.6363L11.895 21.9L11.5258 21.6891C11.2621 21.7945 11.1566 21.9528 11.0511 22.111C10.8929 22.3747 10.9984 22.6912 11.2093 22.7967C11.4203 22.9022 11.5786 22.8494 12.1587 22.533C12.4225 22.3747 12.5807 22.2692 12.6862 22.2692C12.8444 22.2165 13.0026 22.1638 13.2136 22.1638C13.4246 22.1638 13.6356 22.2165 13.7938 22.322C14.374 22.6384 14.5322 23.2714 14.2158 23.8516C14.0575 24.1153 13.8465 24.3263 13.6356 24.4845L13.8465 24.59Z" fill="#045388"/>
<path d="M15.3234 21.9528C15.3234 22.1638 15.1651 22.322 14.9542 22.322C14.7432 22.322 14.585 22.1638 14.585 21.9528C14.585 21.7418 14.7432 21.5836 14.9542 21.5836C15.1651 21.5836 15.3234 21.7418 15.3234 21.9528Z" fill="#045388"/>
<path d="M24.2371 14.5686L21.8109 15.8345L21.7054 15.6235L22.0746 15.4125L20.545 12.4589L20.1758 12.6699L20.0703 12.4589L22.1801 11.3513L22.0746 11.193L22.3911 11.0875L22.813 11.8787L22.5493 12.0369L22.3383 11.6677L21.2834 12.1952L21.8636 13.4083L22.7075 12.9863L22.5493 12.6171L22.813 12.5116L23.3404 13.5138L23.024 13.6192L22.8657 13.3028L22.0218 13.672L22.7075 14.9906L23.8151 14.4104L23.6042 13.9885L23.8679 13.883L24.2371 14.5686Z" fill="#045388"/>
<path d="M26.5578 13.7247L24.9755 14.2522L24.9228 14.0412L25.3447 13.9357L24.2898 10.8238L23.8679 10.9293L23.8151 10.7183L25.4502 10.1381C26.1359 9.92717 26.7161 10.1909 26.927 10.7711C27.138 11.3513 26.7688 12.0369 26.1359 12.2479C26.0304 12.3006 25.9776 12.3006 25.8194 12.3006L25.7139 12.0369C25.7667 12.0369 25.8194 11.9842 25.8721 11.9842C26.2414 11.8787 26.3996 11.5095 26.1886 11.0348C26.0304 10.5074 25.7139 10.2964 25.3447 10.4546L25.0282 10.5601L26.0304 13.6192L26.5051 13.461L26.5578 13.7247Z" fill="#045388"/>
<path d="M31.252 12.4589L30.9883 12.5116L28.984 9.08327L28.6148 9.13601L27.8237 13.0391L27.4545 13.0918L27.5072 13.3555L28.6676 13.1445L28.6148 12.8808L28.1929 12.9863L28.4039 12.0369L29.7752 11.7732L30.3026 12.6171L29.8807 12.6699L29.9334 12.9336L31.3048 12.6699L31.252 12.4589ZM28.4566 11.615L28.7731 10.0854L29.5642 11.404L28.4566 11.615Z" fill="#045388"/>
<path d="M35.2078 12.4589H34.9441C34.8386 12.4589 34.7331 12.4061 34.6276 12.1952L33.8365 10.9293C34.3639 10.7711 34.6276 10.4019 34.6276 9.92717C34.6276 9.61071 34.5221 9.34699 34.3639 9.18876C34.1529 8.97778 33.8892 8.92504 33.4145 8.92504H31.7267V9.18876H32.1487V12.5116H31.7267V12.7753H33.309V12.5116H32.8871V11.0348H33.0453L33.8892 12.4061C34.1002 12.7226 34.1529 12.7753 34.4694 12.7753H35.2078V12.4589ZM32.8871 9.18876H33.2563C33.6782 9.18876 33.8892 9.45248 33.8892 9.92717C33.8892 10.4019 33.6255 10.7183 33.2563 10.7183H32.8871V9.18876Z" fill="#045388"/>
<path d="M37.845 13.1445L35.999 12.8281L36.0517 12.6171L36.6319 12.6699L37.1593 9.50522L36.1572 9.34699L36.0517 9.82168L35.788 9.76894L35.9462 8.81955L36.21 8.87229V9.03052L38.8999 9.45248L38.9526 9.29424L39.2164 9.34699L39.1109 10.3491L38.7944 10.2964L38.8471 9.82168L37.845 9.66345L37.3176 12.8281L37.8978 12.9336L37.845 13.1445Z" fill="#045388"/>
<path d="M43.2249 14.9378L41.6426 14.3577L41.6953 14.0939L42.17 14.3049L43.0667 11.9842L40.8514 14.0939L40.535 11.0875L39.6911 13.3028L40.1657 13.5138L40.0603 13.7247L38.7944 13.25L38.8999 13.0391L39.3746 13.1973L40.535 10.1381L40.113 9.92717L40.1657 9.7162L41.1679 10.0854L41.4316 13.0918L43.5414 10.982L44.5962 11.404L44.4907 11.615L44.0688 11.4567L42.8557 14.5686L43.3304 14.7269L43.2249 14.9378Z" fill="#045388"/>
<path d="M46.0203 16.7839L43.6996 15.307L43.8578 15.0961L44.227 15.3598L46.0203 12.5644L45.6511 12.3006L45.7566 12.1424L47.7609 13.3555L47.8664 13.25L48.1301 13.4083L47.6026 14.1994L47.3389 14.0412L47.6026 13.672L46.6005 13.0391L45.8621 14.1994L46.6005 14.6741L46.8115 14.3577L47.1279 14.5159L46.495 15.4653L46.2313 15.307L46.4423 14.9378L45.6511 14.4631L44.86 15.6763L45.9676 16.3092L46.1786 15.9927L46.4423 16.151L46.0203 16.7839Z" fill="#045388"/>
<path d="M19.7539 16.9421L19.3847 17.2058L17.4859 14.6741L17.9078 14.4104C18.4353 13.9885 19.3319 14.2522 19.8593 14.9378C20.3868 15.6235 20.334 16.5202 19.7539 16.9421ZM20.4923 14.4631C19.8593 13.6192 18.699 13.4083 17.8023 14.0939L16.3782 15.1488L16.5365 15.3598L16.9057 15.0961L18.8572 17.786C18.9627 17.8388 19.0682 17.8388 19.1209 17.8915L20.0703 17.1531C20.545 16.7839 20.756 16.4674 20.8615 15.94C20.967 15.4125 20.8087 14.8324 20.4923 14.4631Z" fill="#045388"/>
<path d="M50.9255 15.9927L50.7673 16.2037L51.1365 16.5202L49.5014 18.3134L49.9234 15.0961L49.0267 14.3049L48.8685 14.5159L49.185 14.7796L49.1322 15.1488L47.0752 17.3641L46.706 17.0476L46.5478 17.2586L47.4971 18.1552L47.6554 17.9442L47.2862 17.6278L48.974 15.7817L48.6048 18.7354C48.974 18.6299 49.3432 18.5244 49.7124 18.4189C49.7651 18.4189 49.7651 18.3662 49.8179 18.3662L51.242 16.7839L51.6112 17.1003L51.7694 16.8894L50.9255 15.9927Z" fill="#045388"/>
<path d="M54.8285 20.1595L54.7231 20.265L53.088 18.1025L53.1935 17.997L52.9825 17.7333L52.1914 18.3662L52.4023 18.6299L52.7715 18.3662L53.3517 19.1574L50.7673 21.0561L50.6618 20.8452C50.609 20.8979 50.5035 20.8979 50.4508 20.9506L51.4002 22.2165L51.6112 22.0583L51.242 21.6363L53.8264 19.6848L54.4066 20.4759L54.0374 20.7397L54.2484 21.0034L55.0395 20.4232L54.8285 20.1595Z" fill="#045388"/>
<path d="M37.9505 59.7174L37.634 59.7701L37.4231 58.768L37.7395 58.7153L37.845 59.1372C38.1087 59.2954 38.3725 59.3482 38.6362 59.2427C39.0054 59.19 39.2164 58.8735 39.1636 58.6098C39.1109 58.3461 38.8999 58.1878 38.3197 57.9769C37.6868 57.7659 37.5813 57.7131 37.4231 57.5549C37.2121 57.4494 37.1066 57.1857 37.0539 56.9747C36.9484 56.3945 37.2648 55.8671 37.9505 55.7089C38.1615 55.6561 38.3724 55.6561 38.5834 55.7089L38.5307 55.5506L38.8471 55.4979L39.0581 56.4473L38.7417 56.5L38.6362 56.1308C38.3725 56.0253 38.2142 56.0253 38.0032 56.0253C37.7395 56.0781 37.5285 56.3418 37.5813 56.6055C37.634 56.8165 37.7923 56.9747 38.3725 57.1857C38.6362 57.2912 38.8471 57.3967 38.9526 57.3967C39.1109 57.4494 39.2164 57.5549 39.3746 57.6604C39.5328 57.8186 39.6383 57.9769 39.6383 58.1878C39.7438 58.8208 39.4273 59.4009 38.7417 59.5592C38.4252 59.6119 38.1615 59.6119 37.845 59.5064L37.9505 59.7174Z" fill="#045388"/>
<path d="M43.8051 57.8714L41.2734 58.8735L41.1679 58.6625L41.5898 58.4515L40.3767 55.3924L39.9548 55.5506L39.902 55.3397L42.1173 54.443L42.0118 54.2848L42.3282 54.232L42.6447 55.0759L42.381 55.1814L42.2228 54.7595L41.1151 55.2342L41.5898 56.5L42.4865 56.1836L42.3282 55.7616L42.592 55.6561L43.0139 56.711L42.6975 56.8692L42.592 56.4473L41.6953 56.8165L42.2755 58.1351L43.4359 57.6604L43.2776 57.2912L43.5414 57.1857L43.8051 57.8714Z" fill="#045388"/>
<path d="M47.6554 55.5506C47.3389 55.9726 47.0752 56.1836 46.706 56.3945C45.6511 57.0275 44.4907 56.7637 43.9106 55.8144C43.3304 54.865 43.6468 53.7046 44.5962 53.0717C44.9127 52.8607 45.1764 52.8079 45.5456 52.7025L45.4401 52.4915L45.7039 52.3333L46.2313 53.2299L45.9676 53.3881L45.7566 53.0717C45.3346 53.0189 45.1764 53.0717 44.9127 53.2826C44.227 53.7046 44.1215 54.5485 44.5962 55.3924C45.0709 56.1836 45.9676 56.5 46.6532 56.0781C46.917 55.9198 47.0225 55.7616 47.1807 55.4979L46.9697 55.1287L47.2334 54.9705L47.6554 55.5506Z" fill="#045388"/>
<path d="M49.3959 49.5906L49.0267 49.907L50.5036 51.4894C50.9255 51.964 51.031 52.4387 50.8728 52.9134C50.7673 53.1772 50.609 53.4409 50.3453 53.5991C49.6596 54.232 48.8685 54.232 48.341 53.6519L46.7587 51.9113L46.4423 52.175L46.284 51.964L47.4971 50.8564L47.6554 51.0674L47.3389 51.3311L48.763 52.9134C49.185 53.3354 49.3959 53.4936 49.7124 53.3881C49.8706 53.3354 50.0289 53.2826 50.1343 53.1244C50.6618 52.6497 50.6618 52.0695 50.1871 51.5421L48.763 49.9598L48.4993 50.4345L48.341 50.2235L49.2904 49.3269L49.3959 49.5906Z" fill="#045388"/>
<path d="M55.8307 46.2677L55.0923 47.6918L54.8813 47.5336L55.0923 47.1644L52.1914 45.582L51.9804 45.9512L51.7694 45.8458L52.5078 44.4217L52.7188 44.5272L52.5078 44.9491L55.4615 46.5314L55.6197 46.1095L55.8307 46.2677Z" fill="#045388"/>
<path d="M57.3075 42.7866L56.6746 44.5272L56.4636 44.4217L56.6218 43.947L53.6154 42.7866L53.299 43.736L53.7209 43.8942L53.6154 44.2107L52.7188 43.8415L52.8243 43.525L52.9825 43.5778L53.9319 41.0461L53.7737 40.9933L53.8792 40.7296L54.8285 41.0461L54.6703 41.3098L54.2484 41.2043L53.9319 42.1009L56.9383 43.2086L57.0965 42.7339L57.3075 42.7866Z" fill="#045388"/>
<path d="M58.3624 38.5671L58.0459 40.1494L57.7822 40.0967L57.8877 39.6747L56.3054 39.3583L54.4066 40.1494L54.3539 40.5186L54.0901 40.4659L54.4066 38.8836L54.6703 38.9363L54.5648 39.3583L55.9889 38.7781L54.8813 37.7759L54.7758 38.2506H54.5121L54.7758 36.932H55.0395L54.9868 37.354L56.3054 38.6198L57.9932 38.9363L58.0987 38.5144L58.3624 38.5671Z" fill="#045388"/>
<path d="M50.5036 48.272L50.7145 48.0083C50.9782 47.6918 51.2947 47.639 51.6639 47.9028C52.0331 48.1665 52.1386 48.5884 51.8749 48.9049L51.6639 49.1686L50.5036 48.272ZM54.4593 48.3247L54.3539 48.5357C54.3011 48.6412 54.1956 48.6412 53.9319 48.6412L52.4023 48.5357C52.6133 48.0083 52.5078 47.5863 52.0331 47.2698C51.7694 47.0589 51.5057 47.0061 51.2947 47.0589C51.031 47.1116 50.7673 47.2698 50.5036 47.6918L49.5014 49.0631L49.7124 49.2214L49.9761 48.8522L52.666 50.8037L52.4023 51.1729L52.6133 51.3311L53.5627 50.0653L53.3517 49.907L53.088 50.2762L51.9276 49.3796L52.0331 49.2741L53.6154 49.3796C53.9846 49.4323 54.0374 49.3796 54.2484 49.1159L54.6703 48.5357L54.4593 48.3247Z" fill="#045388"/>
<path d="M8.83587 42.1009L8.46667 40.5714L8.73039 40.4659L8.83587 40.9406L10.26 40.5714L9.83801 38.7253L8.36118 39.0945L8.46667 39.5165L8.25569 39.5692L7.83374 38.0397L8.09746 37.9342L8.20295 38.4089L11.4203 37.6177L11.3148 37.143L11.5258 37.0903L11.895 38.6726L11.684 38.7253L11.5786 38.3034L10.1545 38.6726L10.5764 40.4659L12.0533 40.0967L11.895 39.7275L12.1587 39.622L12.5279 41.2043L12.317 41.257L12.2115 40.8878L8.99411 41.6262L9.09959 42.0482L8.83587 42.1009Z" fill="#045388"/>
<path d="M12.317 45.7403C13.3191 45.2656 13.7411 44.158 13.3191 43.2086C12.8972 42.2592 11.7368 41.8372 10.7347 42.3119C9.73252 42.7866 9.31057 43.8942 9.73252 44.8436C10.1545 45.7403 11.2621 46.1622 12.317 45.7403ZM11.0511 42.9976C11.8423 42.6284 12.7389 42.7866 13.0026 43.3141C13.2664 43.8415 12.7389 44.6327 11.9478 44.9491C11.1566 45.3183 10.2072 45.1601 9.99624 44.6326C9.73252 44.158 10.26 43.3668 11.0511 42.9976Z" fill="#045388"/>
<path d="M13.7411 51.1729L12.7389 49.8015L12.9499 49.6961L13.2136 50.0653L15.2179 48.5884L12.2115 49.2214L13.6356 46.4787L11.684 47.9028L11.9478 48.272L11.7368 48.4302L10.9984 47.3753L11.1566 47.2171L11.4203 47.5863L14.163 45.6348L13.8465 45.2656L14.0575 45.1073L14.6377 45.9512L13.3191 48.6412L16.1673 48.061L16.8529 48.9576L16.642 49.1159L16.3255 48.6939L13.6883 50.6455L13.952 51.0674L13.7411 51.1729Z" fill="#045388"/>
<path d="M16.7475 54.1265L14.7432 52.2805L14.9014 52.0695L15.2179 52.386L17.4859 49.9598L17.1694 49.6961L17.3276 49.4851L19.0682 51.0674L19.1737 50.9619L19.3847 51.1729L18.8045 51.8586L18.5407 51.6476L18.8572 51.3311L17.9078 50.54L17.0112 51.5421L17.6968 52.1223L17.9606 51.8586L18.2243 52.0695L17.4331 52.9134L17.2222 52.7025L17.4859 52.386L16.8002 51.7531L15.8508 52.8607L16.7475 53.7046L17.0112 53.3881L17.2749 53.5464L16.7475 54.1265Z" fill="#045388"/>
<path d="M20.1758 56.4473L17.9078 54.9705L18.0661 54.7595L18.4353 55.0232L20.2813 52.2805L19.9121 52.0168L20.0176 51.8058L21.3889 52.7025L21.2307 52.9134L20.8615 52.7025L19.0682 55.3397L20.0703 56.0253L20.334 55.7089L20.5978 55.8671L20.1758 56.4473Z" fill="#045388"/>
<path d="M24.3426 58.2406L24.1316 58.1351L24.3426 54.1793L24.0261 54.0211L21.1252 56.7637L20.8087 56.6055L20.7032 56.8165L21.8109 57.3439L21.9164 57.1329L21.4944 56.922L22.2328 56.2363L23.4987 56.8165L23.4459 57.8186L23.0767 57.6604L22.9712 57.8714L24.2371 58.4515L24.3426 58.2406ZM22.4965 56.0253L23.6042 54.9705L23.4987 56.5L22.4965 56.0253Z" fill="#045388"/>
<path d="M28.2984 59.6119L27.9292 59.5064L26.6106 56.3418L26.0304 58.768L26.5051 58.8735L26.3996 59.0845L25.1865 58.768V58.557L25.6612 58.6625L26.3996 55.7089L26.2941 55.3924L25.8721 55.2869L25.9249 55.0759L27.0325 55.3397L28.2456 58.3461L28.8258 56.0253L28.3511 55.9198L28.4039 55.6561L29.6697 55.9726L29.617 56.1836L29.1423 56.0781L28.2984 59.6119Z" fill="#045388"/>
<path d="M33.0981 58.0296C33.0453 58.9262 32.5179 59.6119 31.7795 59.5592L31.3048 59.5064L31.4103 56.3418L31.9377 56.3945C32.5706 56.4473 33.1508 57.1857 33.0981 58.0296ZM32.0432 56.0781L30.2499 56.0253V56.289H30.6718L30.5664 59.6119H30.1444V59.8756L31.9377 59.9284C32.5179 59.9811 32.8871 59.8229 33.309 59.5064C33.731 59.1372 33.942 58.6625 33.942 58.1351C33.942 57.0275 33.1508 56.1308 32.0432 56.0781Z" fill="#045388"/>
<path d="M44.1337 42.7576C44.1154 42.8019 44.0945 42.8348 44.068 42.8608C44.0384 42.8804 44.0037 42.8921 43.9632 42.8921C43.9552 42.8941 43.9475 42.8959 43.9401 42.8974C43.9359 42.8732 43.9253 42.8542 43.9105 42.8394L43.805 42.7339C43.9105 42.7867 43.9632 42.7867 44.0159 42.7867C44.0639 42.7867 44.1022 42.777 44.1337 42.7576Z" fill="#045388"/>
<path d="M43.8817 42.9445C43.845 42.9434 43.804 42.9379 43.7425 42.912C43.7492 42.9197 43.7551 42.9293 43.7617 42.9401C43.7724 42.9573 43.7848 42.9774 43.805 42.9976C43.8212 43.0138 43.8375 43.0351 43.846 43.0629C43.8499 43.0585 43.8538 43.0543 43.8577 43.0504C43.8771 43.0117 43.884 42.9765 43.8817 42.9445Z" fill="#045388"/>
<path d="M43.612 43.3932C43.5246 43.4452 43.4448 43.4505 43.383 43.4196L43.2775 43.3141C43.3303 43.3668 43.3303 43.4196 43.3303 43.4723C43.3337 43.486 43.3362 43.499 43.3379 43.5113C43.4069 43.5419 43.5025 43.5498 43.5412 43.4723C43.5679 43.4456 43.5912 43.419 43.612 43.3932Z" fill="#045388"/>
<path d="M43.2238 43.5433C43.221 43.539 43.2182 43.5345 43.2153 43.5298C43.2046 43.5126 43.1922 43.4924 43.172 43.4723C43.172 43.4987 43.1852 43.525 43.1984 43.5514C43.2023 43.5592 43.2062 43.567 43.2098 43.5748C43.2148 43.5648 43.2195 43.5542 43.2238 43.5433Z" fill="#045388"/>
<path d="M43.1175 43.7715C43.1007 43.7774 43.0837 43.7831 43.0667 43.7887C43.0877 43.7887 43.1045 43.7824 43.1175 43.7715Z" fill="#045388"/>
<path d="M43.0667 43.7887C42.6977 43.8941 42.5391 43.8415 42.4864 43.7361C42.3949 43.5836 42.3916 43.4135 42.4254 43.287C42.381 43.4311 42.3838 43.5308 42.4336 43.6305C42.4455 43.6544 42.4548 43.6836 42.4644 43.7139C42.4972 43.8179 42.5341 43.935 42.6973 43.8942C42.8028 43.8942 42.9612 43.8414 43.0667 43.7887Z" fill="#045388"/>
<path d="M20.4626 38.4336C20.3522 38.9161 20.1602 39.755 20.2594 40.5776L20.2524 40.5618C20.2234 40.4955 20.2053 40.4543 20.123 40.4131C19.9647 39.6747 20.0702 38.6726 20.4922 38.3034C20.4869 38.3271 20.4812 38.3521 20.4753 38.3783L20.4626 38.4336Z" fill="#045388"/>
<path d="M17.644 38.3034C17.5385 37.7232 17.855 36.2464 18.3824 35.9827C18.0903 36.5251 17.9633 37.0345 17.7924 37.7198C17.7473 37.9008 17.6991 38.0941 17.644 38.3034Z" fill="#045388"/>
<path fill-rule="evenodd" clip-rule="evenodd" d="M50.1342 37.1958L51.5583 36.7739L50.398 37.776L50.4507 37.4068L49.8178 37.8287C49.7672 38.0059 49.7287 38.1587 49.6907 38.3106L48.6047 38.6726L48.9211 38.7781L45.9675 40.7296C45.7565 40.9406 45.5983 41.0988 45.3873 41.257C45.651 41.0988 45.9675 40.9406 46.3367 40.7823L49.0794 38.9891L49.0266 39.3055L49.5974 38.6747C49.5838 38.7249 49.5695 38.7768 49.5541 38.8309L50.7144 38.6726L50.398 38.5672L51.822 38.1452L50.7672 39.2001L50.8199 38.8309L49.976 39.3056C49.934 39.5574 49.8587 39.7759 49.7765 40.0141C49.7554 40.0752 49.7338 40.1376 49.7123 40.2022L50.2925 39.9385L49.976 39.7803L51.4001 39.4638L50.2925 40.4132L50.3452 40.044L49.5541 40.4132C47.1278 46.9534 40.9041 51.5949 33.5199 51.5949C28.351 51.5949 23.7095 49.2742 20.5977 45.6348L20.6504 45.5821C21.2812 44.8029 21.0767 44.1281 20.8816 43.4843C20.7994 43.2129 20.7188 42.9471 20.7031 42.6812C20.6504 42.6812 20.6504 42.7339 20.6504 42.7339C20.6504 42.9236 20.6817 43.1202 20.7149 43.3283C20.8108 43.9302 20.9219 44.6279 20.3339 45.5293C20.2285 45.6876 20.123 45.8458 19.9647 46.004C19.7448 45.7841 19.6184 45.4705 19.5633 45.1302C19.5729 45.1585 19.5836 45.1861 19.5955 45.2128C19.5428 44.7381 19.9647 43.2086 20.3867 42.6284C20.2812 42.6811 19.912 43.1558 19.8065 43.525C19.6727 43.7659 19.566 44.0747 19.521 44.3826C19.4968 44.3429 19.4671 44.3032 19.4373 44.2635C19.3977 44.2108 19.3582 44.158 19.3318 44.1053C19.1208 44.2635 18.8571 44.4217 18.5406 44.4745C18.4352 43.947 18.4879 43.4723 18.6989 43.1031C18.6621 42.9928 18.5997 42.8825 18.5474 42.79C18.5247 42.7499 18.5039 42.7131 18.4879 42.6812C18.3033 42.7339 18.1187 42.7603 17.9341 42.7867C17.7495 42.813 17.5649 42.8394 17.3803 42.8922C17.4441 42.573 17.5658 42.3118 17.7105 42.1086C18.2108 41.8607 18.8293 41.6617 19.2263 41.5735C19.2791 41.7317 19.4373 41.8372 19.5955 41.7845C19.8592 41.7845 19.9647 41.6262 19.912 41.468C19.8592 41.3098 19.701 41.2043 19.5428 41.2043C19.3846 41.257 19.2791 41.4153 19.2791 41.5735H19.2263C18.8489 41.5358 18.3633 41.6061 17.9244 41.8618C17.9539 41.834 17.9835 41.8083 18.0132 41.7845C17.9605 41.7845 17.9605 41.7318 17.9605 41.7318C17.4858 41.7845 16.9583 41.679 16.4309 41.5208C16.6946 41.2571 17.1166 40.9934 17.5913 40.8879C17.5649 40.8351 17.5517 40.7956 17.5385 40.756C17.5253 40.7165 17.5121 40.6769 17.4858 40.6242C16.8528 40.6769 16.2199 40.4659 15.587 39.8857C16.0617 39.6748 16.6419 39.5693 17.1693 39.622C16.3254 39.4638 15.7452 39.0946 15.376 38.5144C15.9562 38.3562 16.4309 38.3562 16.8528 38.4617C16.8477 38.4514 16.8431 38.4407 16.8389 38.4295C16.8895 38.4794 16.9503 38.5144 17.0111 38.5144C17.1693 38.4616 17.2748 38.3034 17.2221 38.1979C17.1693 38.0924 17.1166 37.9869 17.0111 37.9869C16.6419 37.5122 16.1144 36.9848 15.2705 36.932C15.7452 37.143 16.4309 37.565 16.9056 38.0397C16.8541 38.0654 16.8027 38.1037 16.7696 38.1484C16.7633 38.1286 16.756 38.1098 16.7474 38.0925C15.9562 37.987 15.4288 37.8815 15.0068 36.5629C15.6397 36.5629 16.1672 36.6684 16.5364 36.9321C16.51 36.8266 16.4968 36.7079 16.4836 36.5893C16.4704 36.4706 16.4573 36.3519 16.4309 36.2464C15.9035 35.93 15.587 35.4553 15.5342 34.6641C15.5342 34.3372 15.5026 34.1369 15.4638 33.8915C15.4525 33.8202 15.4406 33.7451 15.4288 33.662C15.5637 33.7969 15.6986 33.8766 15.8476 33.9646C15.9899 34.0487 16.1451 34.1403 16.3254 34.2949C16.3254 32.5544 16.5891 30.972 17.0638 29.4425C17.6614 29.4851 18.2245 29.3896 18.6132 29.3237C18.7048 29.3082 18.7867 29.2943 18.8571 29.2842C18.2242 29.7062 17.8022 30.4446 17.5913 31.2358C18.3824 31.3412 19.3318 31.0775 19.9647 30.6028C19.4373 31.183 19.1208 31.9742 19.0153 32.6598C19.7538 32.6071 20.4394 32.2906 21.0724 31.8159C21.0279 31.9161 20.9716 32.0326 20.9101 32.1602C20.6799 32.6373 20.3756 33.268 20.3339 33.7675C20.9669 33.7147 21.9163 33.3455 22.3382 32.8181C21.9163 33.6092 21.758 34.2422 21.8108 34.9806C22.4964 34.8751 23.0239 34.6641 23.6041 34.0839C23.3403 34.7696 23.2876 35.6135 23.3403 36.1937C24.1315 35.93 24.6062 35.5608 25.0281 34.8223C24.8172 35.4553 24.7117 36.2992 24.8699 36.8266C25.5556 36.6156 25.9248 36.1937 26.294 35.508C26.0303 36.1409 25.9248 36.9848 26.1358 37.4595C26.5577 37.3013 26.8214 37.1431 26.9269 37.0376C26.9269 37.0903 26.9401 37.1563 26.9533 37.2222C26.9665 37.2881 26.9797 37.354 26.9797 37.4068C26.9797 37.8815 27.0852 38.3562 27.2434 38.7781C27.1379 38.8309 27.0324 38.9891 27.0324 38.9891C26.6632 39.3583 26.3995 39.5165 25.872 39.7803C25.9604 39.7803 26.0652 39.8296 26.1773 39.8824C26.2659 39.9241 26.3591 39.9679 26.4522 39.9912C26.3264 40.1171 26.1525 40.1949 25.9707 40.2762C25.7715 40.3654 25.5628 40.4587 25.3974 40.6242C25.478 40.6443 25.5433 40.6876 25.6078 40.7305C25.7121 40.7997 25.8146 40.8677 25.9775 40.8351C25.3974 41.2571 24.5535 41.4153 24.448 41.4153C24.4216 41.4153 24.3787 41.4186 24.3252 41.4227C24.1645 41.4351 23.9073 41.4549 23.7095 41.4153C23.4458 41.3626 23.0239 41.5208 22.9184 41.6263C22.7602 41.7318 22.7074 41.89 22.7074 41.9955C22.4964 41.9428 22.1272 41.9955 22.0745 42.101C22.0236 42.1518 22.0096 42.1904 22.0145 42.2463C21.939 42.2686 21.8819 42.2935 21.8635 42.3119C21.7937 42.3818 21.7932 42.4516 21.8162 42.5521C21.8126 42.5606 21.8108 42.5686 21.8108 42.5756C21.8108 42.6086 21.8313 42.7443 21.8981 42.8544C21.9434 42.9872 22.0026 43.0615 22.1272 43.1031C22.1397 43.1031 22.1521 43.106 22.1653 43.1091C22.2078 43.1192 22.2576 43.1309 22.3382 43.0503L22.2327 43.1558C22.18 43.2086 22.18 43.314 22.3382 43.525C22.4964 43.736 22.6547 43.7887 22.7602 43.736L22.8656 43.6305C22.8129 43.6833 22.8129 43.736 22.8129 43.7887C22.7602 43.9997 22.9184 44.0525 23.0766 44.1052C23.4458 44.2107 23.6041 44.2107 23.6568 44.0525C23.6891 44.012 23.714 43.9704 23.7325 43.9286C23.7871 43.9092 23.8307 43.8786 23.8678 43.8415C24.026 43.5778 23.9205 43.2614 23.815 43.2086C23.8678 43.3141 23.8678 43.4196 23.815 43.5251C23.8064 43.551 23.7992 43.5768 23.7922 43.6018C23.7853 43.6265 23.7787 43.6503 23.7712 43.6724C23.7578 43.5693 23.7097 43.4842 23.6476 43.4415C23.6568 43.4299 23.6568 43.4195 23.6568 43.4195C23.6392 43.3668 23.6216 43.3023 23.6041 43.2379C23.5689 43.109 23.5337 42.98 23.4986 42.9448C23.4754 42.9911 23.4625 43.0373 23.4507 43.0792C23.4357 43.1327 23.4227 43.1789 23.3931 43.2086L23.2349 43.3668C23.3403 43.4195 23.4458 43.4723 23.5513 43.4723C23.5838 43.4723 23.6063 43.4673 23.6218 43.4604C23.6559 43.5522 23.65 43.6441 23.6041 43.736C23.5949 43.7544 23.5873 43.7744 23.5799 43.7949C23.5708 43.7933 23.5613 43.7913 23.5513 43.7888C23.4458 43.7888 23.2876 43.7361 23.1821 43.6833C23.0766 43.6833 23.0766 43.5251 23.1294 43.4196C23.1294 43.3141 23.1821 43.2614 23.2349 43.2086C23.1821 43.235 23.1426 43.2614 23.103 43.2877C23.0634 43.3141 23.0239 43.3405 22.9711 43.3668C22.9184 43.4196 22.7602 43.4723 22.7074 43.3668C22.6456 43.3051 22.6019 43.2433 22.5657 43.1921C22.5401 43.1559 22.5183 43.125 22.4964 43.1031C22.4682 43.0608 22.4664 43.0185 22.4809 42.9783C22.4955 42.9709 22.5095 42.9641 22.5223 42.958C22.532 42.9533 22.5411 42.9489 22.5492 42.9448C22.53 42.9448 22.5122 42.9457 22.4954 42.9473C22.5507 42.8503 22.6902 42.7689 22.7602 42.7339C22.6391 42.7339 22.5736 42.7561 22.5178 42.7751C22.452 42.7974 22.3996 42.8152 22.2855 42.7867C22.213 42.7867 22.1593 42.7494 22.1199 42.6961C22.1639 42.8155 22.2232 42.8538 22.3382 42.8922C22.3832 42.8922 22.4283 42.8922 22.5062 42.8593C22.4995 42.8671 22.4936 42.8767 22.4869 42.8874C22.4763 42.9046 22.4638 42.9248 22.4437 42.9449C22.4437 42.948 22.4433 42.9512 22.4427 42.9547C22.4047 42.9619 22.372 42.9722 22.3407 42.9821C22.2642 43.0061 22.1953 43.0278 22.0745 42.9976C21.9952 42.9778 21.9383 42.9207 21.8981 42.8544C21.8859 42.8186 21.8747 42.7786 21.8635 42.7339C21.8554 42.7016 21.8474 42.6718 21.8399 42.6441C21.8308 42.6106 21.8226 42.5802 21.8162 42.5521C21.8389 42.4966 21.9303 42.4174 22.0217 42.4174C22.0227 42.4169 22.0237 42.4164 22.0247 42.416C22.0327 42.4121 22.0406 42.4089 22.0485 42.4062C22.1152 42.3833 22.1801 42.3976 22.2297 42.4084C22.2517 42.4132 22.2707 42.4174 22.2855 42.4174L22.4964 42.2065L22.4964 42.2592C22.4964 42.312 22.5492 42.4175 22.7074 42.5229C22.8129 42.5229 22.8656 42.5229 22.7602 42.4702C22.7074 42.4175 22.6019 41.9955 22.8129 41.89C22.9711 41.7318 23.1294 41.679 23.3931 41.679C23.481 41.679 23.5748 41.6849 23.6685 41.6908C23.8561 41.7025 24.0436 41.7142 24.1842 41.679C24.2897 41.679 24.6062 41.679 24.6589 41.7318C24.7147 41.769 24.7508 41.8586 24.7904 41.9567C24.863 42.137 24.9473 42.3461 25.1864 42.312C25.2651 42.2895 25.3606 42.2646 25.4672 42.2368C25.8608 42.1342 26.4064 41.992 26.8214 41.7845C26.7675 41.8654 26.755 41.96 26.7415 42.0613C26.7285 42.1583 26.7148 42.2615 26.6632 42.3647C26.9487 42.3076 27.1261 42.1887 27.3207 42.0581C27.4856 41.9475 27.663 41.8285 27.9291 41.7318C27.8763 41.8373 27.8499 41.9296 27.8236 42.0219C27.7972 42.1142 27.7708 42.2065 27.7181 42.312C27.9669 42.2567 28.2157 42.129 28.4872 41.9895C28.7338 41.8629 28.9992 41.7267 29.3004 41.6263C29.3004 41.679 29.3004 41.679 29.3531 41.679C29.5641 41.7318 29.7751 41.7845 29.9333 41.8373C29.5641 42.1537 29.0894 42.9976 28.8784 43.7888C28.8784 43.7888 29.1949 43.7888 29.6696 43.6306C29.5641 44.0525 29.4586 44.4745 29.4586 45.0019C29.4586 45.0019 29.8278 44.9492 30.3553 44.6327C30.3025 45.1074 30.3025 45.5293 30.408 46.0568C30.408 46.0568 30.83 45.8986 31.3574 45.3711C31.4102 45.8458 31.5156 46.3205 31.7266 46.7952C31.7266 46.7952 32.0958 46.5842 32.465 46.004C32.7815 46.9534 33.2034 47.3754 33.2034 47.3754C33.5199 46.9007 33.7836 46.426 33.9419 45.9513C34.3638 46.5842 34.733 46.8479 34.733 46.8479C34.8913 46.3732 35.0495 45.8986 35.1022 45.4239C35.6297 45.8986 36.0516 46.1095 36.0516 46.1095C36.1571 45.6348 36.1571 45.1601 36.1044 44.6854C36.6318 45.0019 37.001 45.0546 37.001 45.0546C37.001 44.58 36.8955 44.1053 36.79 43.6833C37.2647 43.8415 37.5812 43.8415 37.5812 43.8415C37.3702 43.0504 37.001 42.4175 36.5263 41.89C36.6845 41.7845 36.8955 41.7318 37.1592 41.679C37.1592 41.6527 37.1592 41.6395 37.1658 41.6329C37.1724 41.6263 37.1856 41.6263 37.212 41.6263C37.584 41.7122 37.8784 41.8757 38.1458 42.0241C38.3711 42.1493 38.5772 42.2637 38.7943 42.312C38.7032 42.1905 38.682 42.0865 38.6603 41.9798C38.6443 41.9013 38.6281 41.8213 38.5833 41.7318C38.8127 41.8235 38.9722 41.9252 39.127 42.0239C39.3281 42.1522 39.5213 42.2753 39.8492 42.3647C39.7964 42.2592 39.7832 42.1669 39.7701 42.0746C39.7569 41.9823 39.7437 41.89 39.6909 41.7845C40.03 41.9149 40.3303 41.9809 40.5984 42.0397C40.8724 42.0998 41.1127 42.1526 41.326 42.2592C41.6745 42.4086 41.7411 42.135 41.7918 41.9264C41.7948 41.914 41.7977 41.9018 41.8007 41.89C41.8102 41.871 41.8197 41.8468 41.8302 41.8202C41.8776 41.6997 41.9443 41.5303 42.1172 41.5736C42.2168 41.5736 42.3517 41.5618 42.4941 41.5494C42.5289 41.5464 42.5641 41.5433 42.5994 41.5403C42.5289 41.537 42.4618 41.5322 42.4056 41.5282C42.3479 41.5241 42.3018 41.5208 42.2754 41.5208C42.2271 41.5128 42.1751 41.5059 42.1196 41.4987C41.8116 41.4582 41.3957 41.4037 40.9041 41.0461C41.0495 41.0461 41.1307 40.998 41.2186 40.946C41.2901 40.9037 41.3659 40.8588 41.4842 40.8351C41.3341 40.7101 41.1484 40.6206 40.9666 40.5329C40.7649 40.4358 40.568 40.3409 40.4294 40.2022C40.5618 40.1691 40.6942 40.1152 40.8136 40.0666C40.8844 40.0378 40.9506 40.0109 41.0095 39.9912C40.5876 39.8858 40.1656 39.5165 39.7964 39.1473L39.5855 38.9364C39.7437 38.5144 39.7964 38.0397 39.8492 37.565C39.8492 37.5123 39.8624 37.4463 39.8755 37.3804C39.8887 37.3145 39.9019 37.2486 39.9019 37.1958C40.1129 37.4068 40.4821 37.6178 40.7458 37.6705C40.7969 37.3132 40.8973 36.5113 40.5691 35.7907C40.8851 36.4306 41.3484 36.7813 41.9589 36.9848C42.1172 36.5101 41.9589 35.6135 41.748 34.9806C42.1699 35.719 42.6973 36.0354 43.4885 36.2992C43.5412 35.719 43.383 34.9806 43.1193 34.2422C43.6995 34.8223 44.2269 35.0333 44.9126 35.1388C44.9126 34.4004 44.7544 33.7675 44.3852 32.9763C44.8071 33.5037 45.5983 33.9784 46.2839 34.0312C46.3894 33.3455 45.9675 32.3434 45.5983 31.9214C46.1257 32.4489 46.9169 32.8708 47.708 32.8181C47.6553 32.0269 47.3388 31.2885 46.7586 30.7611C47.3388 31.183 48.3937 31.4995 49.1848 31.2885C49.0794 30.5501 48.7102 29.9172 47.708 29.337C47.8092 29.3514 47.9382 29.3817 48.0883 29.417C48.486 29.5105 49.0325 29.639 49.6068 29.6007C50.0815 31.1303 50.3452 32.8181 50.3452 34.5059V35.1915L50.9254 34.5586L50.5562 34.5059L51.822 33.7147L51.0836 34.9806L51.0309 34.6114L50.2925 35.4553C50.2652 35.6191 50.252 35.7972 50.2383 35.982C50.2256 36.1541 50.2124 36.3321 50.187 36.5101L50.8199 35.9827L50.4507 35.8772L51.822 35.2443L50.9254 36.4574L50.8727 36.0882L50.0815 36.7211C50.0288 37.0376 49.976 37.354 49.9233 37.6178L50.4507 37.3013L50.1342 37.1958ZM43.0072 41.5224C43.2091 41.536 43.4433 41.6339 43.5412 41.7318C43.7522 41.89 43.6995 42.2065 43.594 42.312C43.4885 42.4175 43.5413 42.4175 43.6467 42.3647C43.7504 42.3302 43.7862 42.2729 43.8133 42.2079C43.869 42.2113 43.9425 42.2224 44.0159 42.2592C44.112 42.3072 44.2081 42.3553 44.2245 42.4432C44.2194 42.4622 44.2138 42.4823 44.2078 42.5037C44.1973 42.5409 44.1857 42.5821 44.1742 42.6284C44.1681 42.6528 44.1619 42.6752 44.1557 42.6956C44.1302 42.7125 44.1013 42.7258 44.0687 42.7339C43.9479 42.7641 43.879 42.7424 43.8025 42.7184C43.7454 42.7004 43.6842 42.6812 43.594 42.6812C43.6021 42.6852 43.6112 42.6896 43.6209 42.6943C43.705 42.7349 43.8408 42.8005 43.8744 42.9064C43.8161 42.9095 43.7768 42.8961 43.7309 42.8805C43.675 42.8616 43.6096 42.8394 43.4885 42.8394C43.5832 42.8867 43.8056 43.0192 43.7735 43.1603C43.7403 43.207 43.7003 43.2605 43.6467 43.3141C43.594 43.4196 43.4885 43.3668 43.383 43.3141C43.3303 43.2614 43.2248 43.2086 43.1193 43.1559C43.1395 43.1962 43.1519 43.2288 43.1625 43.2566C43.1797 43.3017 43.1922 43.3343 43.2248 43.3668C43.2439 43.3859 43.2491 43.4188 43.2456 43.4555C43.208 43.4347 43.1769 43.414 43.1458 43.3932C43.1129 43.3714 43.08 43.3494 43.0396 43.3275L43.0666 43.314C43.0263 43.2738 42.9937 43.2489 42.9658 43.2276C42.9208 43.1932 42.8882 43.1683 42.8556 43.1031C42.8028 42.9976 42.7501 42.8921 42.7501 42.8394C42.6973 42.8921 42.6446 43.1558 42.6446 43.3668C42.6446 43.3872 42.6446 43.3997 42.6507 43.4074C42.6604 43.4195 42.6854 43.4195 42.7501 43.4195C42.8438 43.4195 42.9375 43.3779 43.0312 43.3316C43.0776 43.3791 43.1193 43.4312 43.1193 43.525C43.1368 43.5601 43.1486 43.6011 43.1525 43.6401C43.0477 43.6895 42.902 43.7361 42.8028 43.7361C42.6364 43.7361 42.6013 43.6376 42.5679 43.5442C42.559 43.5192 42.5503 43.4946 42.5391 43.4723C42.4864 43.3141 42.4864 43.2086 42.5391 43.1031C42.4988 43.1233 42.4584 43.1821 42.4328 43.2617C42.3276 43.3157 42.2231 43.6312 42.3809 43.8942C42.4864 43.9997 42.6446 44.0525 42.9611 43.947C43.1391 43.9025 43.242 43.858 43.2381 43.7183C43.2864 43.6892 43.3228 43.6511 43.3356 43.5953C43.4368 43.608 43.5681 43.5419 43.6995 43.3668C43.7887 43.2775 43.8308 43.2072 43.8456 43.1517C43.9099 43.0564 43.9376 42.986 43.9415 42.934C43.9956 42.9139 44.0359 42.8923 44.068 42.8608C44.1139 42.8304 44.1476 42.7809 44.1718 42.7262C44.1966 42.6997 44.2164 42.6645 44.2339 42.6205C44.2222 42.6362 44.2092 42.651 44.1948 42.6645C44.2185 42.5885 44.2269 42.5124 44.2269 42.4701C44.2269 42.4608 44.2261 42.4518 44.2245 42.4432C44.2508 42.3445 44.2614 42.2755 44.2269 42.2064C44.1742 42.1537 44.0687 42.1009 43.9632 42.1009L44.0167 42.0589C44.0597 42.0664 44.0996 42.0792 44.1214 42.101C44.2269 42.1537 44.3324 42.2592 44.3324 42.312C44.3324 42.3285 44.3311 42.3489 44.3281 42.3718C44.3985 42.2236 44.4201 42.1359 44.3324 42.0483C44.3324 42.0176 44.279 42.0048 44.2135 41.989C44.1875 41.9828 44.1597 41.9761 44.1325 41.9677L48.9211 38.1979V38.4616L49.0266 38.3189V38.4089L49.9233 37.1958L48.5519 37.776L48.5633 37.7792L48.4464 37.8287L48.8156 37.9342L43.805 41.89L43.7874 41.9428H43.7522C43.7522 41.8595 43.7193 41.7762 43.6796 41.7189L46.7982 35.4816L46.9169 35.719L46.9238 35.6801L46.9696 35.7717L47.2333 34.3476L47.1429 34.4531L47.1806 34.2422L46.2312 35.3498L46.3943 35.3265L46.2839 35.4552L46.5496 35.4109L46.0892 36.4426L43.5619 41.5842C43.3996 41.5228 43.1944 41.4847 43.0138 41.5208C43.0116 41.5214 43.0094 41.5219 43.0072 41.5224ZM16.4836 34.7168C16.6946 34.0839 17.1693 33.6092 17.5385 33.4509C17.9077 34.4531 17.6967 35.508 16.9583 36.1409C17.0111 35.8244 16.9056 35.508 16.8001 35.2442C16.9056 34.7168 17.1166 34.0839 17.3275 33.7674C17.0638 33.9784 16.8001 34.5586 16.6946 35.0333C16.6419 34.9278 16.5891 34.8223 16.4836 34.7168ZM49.4486 34.6641L49.5541 35.0333L50.1342 33.6619L48.9211 34.5586H49.2903L46.073 38.6198C45.8092 38.9891 45.5455 39.411 45.3345 39.7802C45.4928 39.5165 45.7038 39.3055 45.9147 39.0945L49.4486 34.6641ZM42.9083 42.4701C43.0138 42.6284 43.0138 42.8921 42.9611 43.0503C43.2393 43.004 43.3137 42.7538 43.3634 42.5865C43.3703 42.5635 43.3766 42.542 43.383 42.5229C43.2775 42.4174 43.0138 42.4174 42.9083 42.4701ZM42.5391 42.2592C42.5919 42.3647 42.6446 42.4701 42.8556 42.4701C42.6974 42.5756 42.5391 42.5756 42.4864 42.5229C42.4336 42.4701 42.4336 42.3647 42.4336 42.2592C42.4336 42.1009 42.4864 42.1537 42.5391 42.2592ZM47.0223 36.4573L46.6531 36.5101L47.8135 35.4552L47.3388 36.8793L47.2333 36.5628L44.4906 40.6769L44.4379 40.7295C44.6489 40.3076 44.8599 39.8857 45.0708 39.411L47.0223 36.4573ZM46.3894 39.6747C46.073 39.9384 45.7565 40.2022 45.4928 40.4131C45.6087 40.2682 45.7406 40.1233 45.8884 39.9609L45.889 39.9602C46.0099 39.8273 46.1417 39.6824 46.2839 39.5165L49.2376 36.7738L48.8684 36.7211L50.187 36.0354L49.3958 37.3012L49.3431 36.932L46.3894 39.6747ZM48.7629 39.7802L44.6489 41.8372C44.5961 41.89 44.5434 41.9427 44.4906 41.9427L44.5434 41.9955C44.5434 41.9955 44.5434 42.0482 44.5961 42.0482L48.8684 39.8857L48.8156 40.2549L49.9233 39.3055L48.4992 39.622L48.7629 39.7802ZM42.4073 44.1052C42.4336 44.1184 42.46 44.1316 42.4864 44.158L41.6952 45.7403L41.8007 46.004L41.0095 47.6918L40.8513 47.2698L40.4294 47.3753L41.326 45.6875L41.5897 45.582L42.3281 44.0525C42.3545 44.0788 42.3809 44.092 42.4073 44.1052ZM42.1172 43.4723C42.1172 43.5778 42.1172 43.6305 42.1699 43.736L41.2733 44.7909L41.0623 44.8436L39.9547 46.3205L39.9019 45.9512L39.5327 46.004H39.48L40.9041 44.5799L41.1678 44.5272L42.1172 43.4723ZM43.9632 41.6262C44.0284 41.5611 44.1137 41.4959 44.2317 41.4058C44.3045 41.3501 44.39 41.2848 44.4906 41.2043L49.3431 35.9299L49.3958 36.2991L50.0815 34.9805L48.8156 35.7717L49.1848 35.8244L44.1214 41.3625C44.0951 41.4153 44.0687 41.4548 44.0423 41.4944C44.0159 41.5339 43.9896 41.5735 43.9632 41.6262ZM41.4315 43.947L39.6382 45.2128H39.4272L38.2669 46.215L38.2141 45.8985L37.7922 45.793L39.2163 44.8964L39.3745 44.7909L39.6909 44.8436L41.9589 43.3668C41.9153 43.4105 41.8535 43.4813 41.7812 43.5642L41.7808 43.5646L41.7804 43.5651C41.6782 43.6823 41.5548 43.8237 41.4315 43.947ZM38.1614 45.3711L38.8998 44.9491L39.5327 44.4744L39.7437 44.5272C39.7437 44.5272 41.3787 43.525 41.8007 43.2613C41.8534 43.2613 41.8534 43.2086 41.8534 43.2086L39.6909 44.2634L39.4272 44.158L37.6867 44.9491L38.0559 45.0546L38.1614 45.3711ZM18.2109 40.249C18.0813 40.3239 18.0243 40.4576 18.066 40.6241C18.1187 40.8351 18.2769 40.9406 18.4879 40.8878C18.6989 40.8878 18.8044 40.6769 18.7516 40.4659C18.6989 40.2549 18.5406 40.1494 18.3297 40.2022C18.286 40.2131 18.2468 40.2285 18.2127 40.248C17.6913 39.9369 17.3225 39.8337 16.6419 39.9384C17.2689 39.9907 17.7406 40.0429 18.2109 40.249ZM19.4373 42.4174C18.9626 42.7866 18.5934 43.3668 18.5406 43.8942C18.7516 43.4723 19.2263 42.7339 19.701 42.3119C19.9647 42.0482 19.8065 42.1537 19.4373 42.4174ZM17.6967 38.4616C17.855 38.4616 18.0132 38.5144 18.066 38.7253C18.066 38.8836 17.9605 39.0418 17.8022 39.0945C17.644 39.0945 17.4858 39.0418 17.433 38.8308C17.433 38.6726 17.4858 38.5144 17.6967 38.4616ZM20.8614 39.1473C20.8614 38.9715 20.8555 38.8015 20.8497 38.6316C20.8379 38.2917 20.8262 37.9518 20.8614 37.565C19.912 38.3034 19.5428 39.5165 19.9647 40.3604H19.8592C19.6483 40.4131 19.5428 40.5714 19.5955 40.7823C19.6483 40.9933 19.8065 41.0988 20.0175 41.0461C20.198 41.0009 20.3013 40.8786 20.2943 40.7121C20.4453 40.5098 20.5479 40.356 20.6504 40.2022C20.6768 40.2813 20.69 40.3604 20.7031 40.4395C20.7163 40.5186 20.7295 40.5977 20.7559 40.6769C20.8086 39.9384 21.0196 39.2 21.8108 38.7253C21.2306 39.4637 20.9141 40.2549 20.8614 40.8878C20.9622 40.7617 21.0933 40.6598 21.2349 40.5495C21.686 40.1985 22.2453 39.7631 22.2855 38.1979C21.758 38.3034 21.1778 38.6198 20.8614 39.1473ZM21.0724 40.9933C21.2833 40.9406 21.4416 41.0461 21.4943 41.257C21.547 41.4153 21.4416 41.6262 21.2306 41.679C21.0196 41.7317 20.8614 41.6262 20.8086 41.4153C20.7559 41.2043 20.8614 41.0461 21.0724 40.9933ZM21.3888 42.3119C21.3361 42.1009 21.1778 41.9955 20.9669 42.0482C20.7559 42.1009 20.6504 42.2592 20.7031 42.4701C20.7559 42.6811 20.9141 42.7866 21.1251 42.7339C21.3361 42.6811 21.4416 42.4702 21.3888 42.3119ZM18.4879 39.0945C18.4352 38.4616 18.5934 37.6705 19.3318 37.0903C20.0889 38.6443 19.6418 39.235 19.287 39.7039C19.1721 39.8557 19.0669 39.9947 19.0153 40.1494C18.8571 39.411 19.0153 38.2506 19.1208 37.6177C18.8044 38.0924 18.6989 38.6198 18.7516 39.2V39.3583C18.7516 39.622 18.8044 39.8857 18.8571 40.0967C18.7516 39.9384 18.6461 39.7802 18.5934 39.5692C18.567 39.5692 18.5538 39.5824 18.5406 39.5956C18.5275 39.6088 18.5143 39.622 18.4879 39.622C18.3824 39.6747 18.2242 39.5692 18.1714 39.411C18.1187 39.3055 18.2242 39.1473 18.3824 39.0945H18.4879ZM22.2327 41.7317C22.18 41.5735 22.0217 41.468 21.9163 41.5208C21.758 41.5735 21.6525 41.7317 21.7053 41.8372C21.758 41.9955 21.9163 42.1009 22.0217 42.0482C22.18 42.0482 22.2327 41.89 22.2327 41.7317ZM20.4394 41.468C20.5449 41.468 20.6504 41.5735 20.7031 41.679C20.7031 41.7845 20.6504 41.9427 20.4922 41.9427C20.3867 41.9427 20.2812 41.8372 20.2285 41.7317C20.2285 41.6262 20.3339 41.5208 20.4394 41.468ZM16.8528 36.3519C17.0111 36.2991 17.1693 36.4046 17.2221 36.5628C17.2748 36.7211 17.1693 36.8793 16.9583 36.932C16.8001 36.9848 16.5891 36.8793 16.5891 36.7211C16.5891 36.5628 16.6946 36.4046 16.8001 36.3519H16.8528ZM16.7804 36.2826L16.8001 36.3519C16.5364 35.7717 16.0089 34.9805 15.587 34.4003C16.4044 34.9623 16.5785 35.5738 16.7804 36.2826ZM18.1187 39.5692C18.066 39.4637 17.9605 39.3583 17.855 39.3583C17.8022 39.3583 17.7495 39.411 17.6967 39.4637C17.0289 38.8913 16.5336 38.8366 16.1328 38.7923C16.0905 38.7877 16.0492 38.7831 16.0089 38.7781C16.0591 38.7981 16.1303 38.8239 16.2162 38.8551L16.2168 38.8553L16.2174 38.8555C16.5836 38.9882 17.2174 39.2178 17.644 39.5165C17.5913 39.5692 17.5913 39.622 17.5913 39.6747C17.644 39.7802 17.7495 39.8857 17.855 39.8857C18.066 39.7802 18.1714 39.6747 18.1187 39.5692ZM19.2263 41.0988C19.1736 40.9933 19.0681 40.8878 18.9626 40.8878C18.8571 40.8878 18.8044 40.9406 18.7516 40.9933C18.1187 40.8878 17.3803 40.9933 16.8001 41.3625C17.4858 41.2043 18.1714 41.0461 18.7516 41.0461V41.1516C18.8044 41.257 18.9099 41.3625 19.0153 41.3625C19.1736 41.3098 19.2791 41.2043 19.2263 41.0988ZM18.6989 35.4552C17.5913 35.9299 17.1166 37.3012 17.644 38.3034C17.764 38.1474 17.9059 38.0187 18.0485 37.8893C18.5325 37.4501 19.0248 37.0034 18.6989 35.4552ZM24.1842 42.9976C25.5556 44.0525 26.3995 45.5293 26.5577 46.6897C26.3467 46.5842 26.0303 46.4259 25.872 46.4787C25.6611 45.2656 25.0809 44.2634 24.026 43.4195C24.0788 43.2086 24.1315 43.1031 24.1842 42.9976ZM23.2876 42.5756C23.1821 42.5229 22.9711 42.5229 22.8656 42.6284C22.8729 42.6501 22.8801 42.6747 22.8879 42.7013L22.8881 42.7019C22.937 42.869 23.0077 43.1104 23.2349 43.1558C23.1821 42.9976 23.1821 42.7339 23.2876 42.5756ZM23.3931 42.6284C23.6041 42.6284 23.6568 42.5229 23.7095 42.4174C23.7623 42.3119 23.815 42.2592 23.815 42.4174C23.815 42.5756 23.815 42.6284 23.7623 42.6811C23.7521 42.6811 23.7379 42.6831 23.7205 42.6855C23.6482 42.6956 23.5207 42.7134 23.3931 42.6284Z" fill="#045388"/>
<path d="M40.5348 35.719C40.5467 35.7428 40.5581 35.7667 40.5691 35.7907C40.5575 35.7672 40.5461 35.7433 40.5348 35.719Z" fill="#045388"/>
<path d="M22.4268 43.0074C22.3194 43.0698 22.2114 43.1659 22.2855 43.314C22.3073 43.3359 22.3292 43.3668 22.3548 43.403C22.3909 43.4542 22.4347 43.516 22.4964 43.5778C22.5492 43.6833 22.6547 43.6305 22.7602 43.5778C22.7752 43.5627 22.7945 43.5477 22.8169 43.5327C22.7348 43.5071 22.642 43.4378 22.5492 43.3141C22.401 43.1659 22.4089 43.0698 22.4268 43.0074Z" fill="#045388"/>
<path d="M22.979 43.5247C22.9626 43.5675 22.9499 43.599 22.9184 43.6305C22.9184 43.6833 22.9184 43.8415 22.9711 43.8942C23.0766 43.947 23.2349 43.9997 23.3403 43.9997C23.418 43.9997 23.4671 43.9783 23.5007 43.9459C23.4388 43.9378 23.3684 43.9212 23.2876 43.8943C23.0766 43.8415 22.9711 43.7888 23.0239 43.5778C23.0239 43.5515 23.0371 43.5251 23.0502 43.4987C23.0634 43.4723 23.0766 43.446 23.0766 43.4196C23.0565 43.4397 23.044 43.4599 23.0334 43.4771C23.0176 43.5026 23.0059 43.5216 22.979 43.5247Z" fill="#045388"/>
<path d="M22.5492 42.8394C22.5338 42.8471 22.5195 42.8537 22.5062 42.8593C22.5167 42.847 22.5292 42.8394 22.5492 42.8394Z" fill="#045388"/>
<path d="M28.1408 29.7585L28.1935 29.3893L27.877 29.2311H28.2463L28.299 28.8619L28.4572 29.1783L28.7737 29.1256L28.51 29.3366L28.6682 29.653L28.3517 29.442L28.1408 29.7585Z" fill="white"/>
<path d="M30.3033 29.442L29.9868 29.2311L29.7231 29.4948L29.8286 29.1783L29.5121 29.0201L29.8813 28.9673V28.6509L30.0395 28.9673L30.356 28.9146L30.145 29.1256L30.3033 29.442Z" fill="white"/>
<path d="M31.8856 29.3366L31.6219 29.1256L31.3581 29.3893L31.4636 29.0201L31.1472 28.8091H31.4636L31.5691 28.4927L31.6746 28.8091H31.9911L31.7274 28.9673L31.8856 29.3366Z" fill="white"/>
<path d="M33.4679 29.2838L33.2042 29.0728L32.9405 29.2838L33.0459 28.9673L32.7822 28.7564H33.0987L33.2042 28.4399L33.3097 28.7564H33.6261L33.3624 28.9673L33.4679 29.2838Z" fill="white"/>
<path d="M38.0039 29.442L37.7402 29.653L37.8984 29.3366L37.6347 29.1256L38.0039 29.1783L38.1094 28.8619L38.1621 29.2311H38.5313L38.1621 29.3893L38.2676 29.7585L38.0039 29.442Z" fill="white"/>
<path d="M36.3161 29.1256L35.9996 28.9146L36.3688 28.9673L36.4743 28.6509L36.527 28.9673L36.8963 29.0201L36.5798 29.1783L36.6853 29.4948L36.4216 29.2311L36.1578 29.442L36.3161 29.1256Z" fill="white"/>
<path d="M34.681 28.9673L34.3645 28.8091H34.7338L34.8392 28.4927L34.9447 28.8091H35.2612L34.9975 29.0201L35.0502 29.3893L34.8392 29.1256L34.5228 29.3366L34.681 28.9673Z" fill="white"/>
<path d="M28.3517 32.2902L28.4572 31.9738L28.1408 31.8155L28.51 31.7628V31.4463L28.6682 31.7628L28.9847 31.6573L28.7209 31.921L28.8792 32.2375L28.6155 32.0792L28.3517 32.2902Z" fill="white"/>
<path d="M30.4615 32.0792L30.145 31.8683L29.8813 32.132L29.9868 31.7628L29.6703 31.6045H30.0395L30.0923 31.2353L30.1978 31.5518H30.567L30.3033 31.7628L30.4615 32.0792Z" fill="white"/>
<path d="M31.9911 31.921L31.7274 31.7628L31.4636 31.9738L31.5691 31.6045L31.2527 31.4463H31.6219L31.6746 31.1298L31.7801 31.4463L32.1493 31.3936L31.8328 31.6045L31.9911 31.921Z" fill="white"/>
<path d="M33.5206 31.921L33.2569 31.6573L32.9932 31.921L33.0987 31.6045L32.835 31.3936H33.1514L33.2569 31.0771L33.3624 31.3936H33.6789L33.4152 31.6045L33.5206 31.921Z" fill="white"/>
<path d="M37.8984 32.0792L37.6347 32.2375L37.7929 31.921L37.5292 31.71L37.8456 31.7628L38.0039 31.4463V31.8155H38.3731L38.0566 31.9738L38.1621 32.343L37.8984 32.0792Z" fill="white"/>
<path d="M36.2106 31.7628L35.9469 31.5518L36.3161 31.6045L36.4216 31.2353L36.4743 31.6045H36.8435L36.527 31.7628L36.6325 32.132L36.3688 31.8683L36.0524 32.0792L36.2106 31.7628Z" fill="white"/>
<path d="M34.681 31.6045L34.3645 31.3936L34.7338 31.4463L34.8392 31.1298L34.9447 31.4463H35.2612L34.9447 31.6573L35.0502 31.9738L34.7865 31.7628L34.5228 31.921L34.681 31.6045Z" fill="white"/>
<path d="M29.1429 30.7606L29.1956 30.4442L28.8792 30.2859H29.2484L29.3011 29.9167L29.4594 30.2332L29.7758 30.1805L29.5121 30.3914L29.6703 30.7079L29.3539 30.4969L29.1429 30.7606Z" fill="white"/>
<path d="M27.6133 31.0244L27.6661 30.6552L27.3496 30.5497L27.7188 30.4969V30.1277L27.877 30.4442L28.2463 30.3914L27.9825 30.6552L28.1408 30.9189L27.8243 30.7606L27.6133 31.0244Z" fill="white"/>
<path d="M31.1999 30.6024L30.9362 30.3914L30.6725 30.6024L30.778 30.2859L30.4615 30.1277L30.8307 30.075L30.8834 29.7585L30.9889 30.075L31.3581 30.0222L31.0417 30.2332L31.1999 30.6024Z" fill="white"/>
<path d="M32.7822 30.4969L32.4658 30.2859L32.202 30.4969L32.3075 30.1805L31.9911 29.9695H32.3603L32.4658 29.653L32.5185 29.9695H32.8877L32.624 30.1805L32.7822 30.4969Z" fill="white"/>
<path d="M34.2591 30.4969L33.9953 30.2859L33.7316 30.4969L33.8899 30.1805L33.5734 29.9695H33.8899L34.0481 29.653L34.1008 30.0222L34.47 29.9695L34.1536 30.1805L34.2591 30.4969Z" fill="white"/>
<path d="M38.6368 30.7606L38.3203 30.9716L38.5313 30.6552L38.2149 30.3914L38.5841 30.4969L38.7423 30.1805L38.795 30.4969L39.1115 30.5497L38.795 30.7079L38.8478 31.0771L38.6368 30.7606Z" fill="white"/>
<path d="M36.949 30.4442L36.6853 30.1805L37.0545 30.2332L37.16 29.9167L37.2127 30.2859H37.5819L37.2127 30.4442L37.3182 30.8134L37.1072 30.5497L36.7908 30.7606L36.949 30.4442Z" fill="white"/>
<path d="M35.4194 30.2859L35.1557 30.075H35.4722L35.6304 29.7585L35.6831 30.1277H35.9996L35.6831 30.2859L35.7886 30.6024L35.5249 30.3914L35.2612 30.6024L35.4194 30.2859Z" fill="white"/>
</svg>
