<svg width="130" height="91" viewBox="0 0 130 91" fill="none" xmlns="http://www.w3.org/2000/svg">
<path d="M17.7117 73.2898C18.7722 73.2898 19.7362 73.5308 20.2665 74.0129C20.3629 74.7841 19.6398 76.0375 19.206 76.0375C18.6757 75.8446 18.1937 75.7482 17.567 75.7482C15.0604 75.7482 13.8071 78.3513 13.8071 80.9061C13.8071 82.4969 14.3373 83.4609 15.6389 83.4609C16.9886 83.4609 18.3383 82.5451 19.1096 81.8702C19.3024 82.0148 19.5434 82.4487 19.5434 82.9307C19.5434 83.4609 19.3988 83.9912 18.8686 84.5214C18.0009 85.3891 16.5065 86.1604 14.3373 86.1604C11.8789 86.1604 10.1436 84.7625 10.1436 81.4846C10.24 77.1462 13.0358 73.2898 17.7117 73.2898Z" fill="#373535"/>
<path d="M25.81 83.3163C27.1597 83.3163 29.6182 80.9543 30.293 76.4231C30.3412 76.1339 30.3412 76.0857 30.3894 75.7964C30.1002 75.7 29.6664 75.6036 29.2807 75.6036C28.2684 75.6036 27.2079 75.8928 26.2921 77.1944C25.328 78.5441 24.8941 80.2312 24.8941 81.581C24.8941 82.6897 25.2316 83.3163 25.81 83.3163ZM21.3752 82.063C21.3752 80.4241 21.9054 77.6282 23.9782 75.5554C25.7618 73.7236 27.8828 73.2898 29.8592 73.2898C31.1607 73.2898 32.8961 73.7236 34.0048 73.9165C33.7155 75.1216 33.0889 79.701 32.7515 82.3522C32.6068 83.4609 32.5586 85.0517 32.6068 85.6301C31.691 86.0158 30.0038 86.1122 29.5218 86.1122C29.2807 86.1122 29.2325 85.0035 29.2807 83.8948C29.3289 83.5574 29.3771 83.0271 29.3771 82.7861C28.3166 84.5697 26.1956 86.064 23.9782 86.064C22.3875 86.1122 21.3752 84.7625 21.3752 82.063Z" fill="#373535"/>
<path d="M40.8498 73.2898C41.9585 73.2898 43.0672 73.7236 43.5493 74.2057C43.5011 74.977 42.9226 76.2785 41.9585 75.8928C41.5247 75.7482 41.139 75.6518 40.5606 75.6518C39.8375 75.6518 39.1627 75.9893 39.1627 76.6641C39.1627 77.1944 39.5483 77.58 41.3801 78.8815C42.6816 79.8456 43.2118 80.7133 43.2118 81.9184C43.2118 83.943 41.3319 86.1122 38.0057 86.1122C36.656 86.1122 35.4509 85.5819 35.1135 85.0517C34.6314 84.2322 35.0171 82.5933 35.5473 82.8825C36.2704 83.2199 37.4273 83.6056 38.3914 83.6056C39.3073 83.6056 39.8857 83.1717 39.8857 82.6415C39.8857 82.1594 39.4519 81.7738 37.8129 80.5687C36.415 79.5082 35.9812 78.5441 35.9812 77.4836C35.9812 75.1698 37.9575 73.2898 40.8498 73.2898Z" fill="#373535"/>
<path d="M50.3461 73.2898C51.4548 73.2898 52.5635 73.7236 53.0455 74.2057C52.9973 74.977 52.4189 76.2785 51.4548 75.8928C51.021 75.7482 50.6353 75.6518 50.0569 75.6518C49.3338 75.6518 48.6589 75.9893 48.6589 76.6641C48.6589 77.1944 49.0446 77.58 50.8763 78.8815C52.1779 79.8456 52.7081 80.7133 52.7081 81.9184C52.7081 83.943 50.8281 86.1122 47.502 86.1122C46.1523 86.1122 44.9954 85.5819 44.6098 85.0517C44.1277 84.2322 44.5134 82.5933 45.0436 82.8825C45.7667 83.2199 46.9236 83.6056 47.8877 83.6056C48.8035 83.6056 49.382 83.1717 49.382 82.6415C49.382 82.1594 48.9482 81.7738 47.3092 80.5687C45.9113 79.5082 45.4774 78.5441 45.4774 77.4836C45.4774 75.1698 47.4538 73.2898 50.3461 73.2898Z" fill="#373535"/>
<path d="M58.9747 83.3163C60.3244 83.3163 62.7828 80.9543 63.4577 76.4231C63.5059 76.1339 63.5059 76.0857 63.5541 75.7964C63.2649 75.7 62.8311 75.6036 62.4454 75.6036C61.4331 75.6036 60.3726 75.8928 59.4567 77.1944C58.4926 78.5441 58.0588 80.2312 58.0588 81.581C58.107 82.6897 58.3962 83.3163 58.9747 83.3163ZM54.5399 82.063C54.5399 80.4241 55.0701 77.6282 57.1429 75.5554C58.9265 73.7236 61.0475 73.2898 63.0239 73.2898C64.3254 73.2898 66.0608 73.7236 67.1695 73.9165C66.8802 75.1216 66.2536 79.701 65.9161 82.3522C65.7715 83.4609 65.7233 85.0517 65.7715 85.6301C64.8556 86.0158 63.1685 86.1122 62.6864 86.1122C62.4454 86.1122 62.3972 85.0035 62.4454 83.8948C62.4936 83.5574 62.5418 83.0271 62.5418 82.7861C61.4813 84.5697 59.3603 86.064 57.1429 86.064C55.6004 86.1122 54.5399 84.7625 54.5399 82.063Z" fill="#373535"/>
<path d="M73.3878 76.8569C74.6411 74.8323 76.2801 73.2898 78.5939 73.2898C80.5703 73.2898 81.197 75.1216 80.8113 77.6764C80.6185 78.8815 80.2811 80.6169 80.0883 82.2076C79.8954 83.5574 79.7508 84.7625 79.799 85.5819C79.076 85.9194 77.0032 86.064 76.5211 86.064C76.3283 86.064 76.2801 84.5697 76.5693 82.9789C76.8103 81.6774 77.2442 79.2672 77.4852 77.8692C77.6298 77.0498 77.5816 76.0857 76.8103 76.0857C75.7981 76.0857 73.3878 77.7246 72.1827 84.3768C72.0863 84.9071 71.8935 85.2445 71.5561 85.4373C71.1222 85.6784 70.2545 85.9194 68.471 85.9194C68.8084 84.2322 69.3387 80.8097 69.7243 78.2549C70.0617 75.9411 70.2063 74.4467 70.1581 73.8683C70.6402 73.7236 73.0986 73.1934 73.3396 73.1934C73.6289 73.1934 73.6771 74.0611 73.436 76.0857C73.3878 76.2785 73.3878 76.5677 73.3396 76.7605H73.3878V76.8569Z" fill="#373535"/>
<path d="M87.3671 83.2681C88.5722 83.2681 91.0307 81.0025 91.7055 77.0015C91.7537 76.7605 91.8019 76.3749 91.8501 76.1339C91.5127 75.7964 91.0307 75.6036 90.2594 75.6036C87.4635 75.6036 86.2584 78.9297 86.2584 81.34C86.3066 82.5933 86.7405 83.2681 87.3671 83.2681ZM85.5836 86.1122C83.8 86.1122 82.7395 84.5214 82.7395 81.8702C82.7395 77.4354 85.5354 73.338 90.2112 73.338C91.0307 73.338 91.8019 73.579 92.2358 73.8201C92.4768 72.5667 93.0553 68.6622 93.1035 67.5053C93.8747 67.3607 95.5137 67.1196 96.285 67.1196C96.5742 67.1196 96.6706 67.4089 96.5742 68.1319C95.8993 72.2775 94.7424 80.183 94.5014 81.9184C94.3568 83.4127 94.3086 84.8589 94.3568 85.6784C93.4891 86.064 91.7055 86.1604 91.2235 86.1604C91.0307 86.1604 90.9343 84.9071 90.9825 83.7502C91.0307 83.4127 91.0789 82.8825 91.0789 82.7861C89.5845 85.0035 87.7046 86.1122 85.5836 86.1122Z" fill="#373535"/>
<path d="M101.684 77.2426C103.13 74.0129 104.865 73.2898 106.022 73.2898C106.36 73.2898 106.938 73.5308 107.179 73.7718C107.276 74.6877 106.553 76.4713 105.926 77.1944C105.588 77.0498 105.203 76.8569 104.721 76.8569C103.805 76.8569 101.925 78.3031 100.768 84.5697C100.672 85.0999 100.527 85.2927 100.238 85.4373C99.7557 85.7266 97.9239 85.9194 97.0562 85.9676C97.4901 83.702 98.1649 79.1225 98.4542 76.4231C98.5506 75.7482 98.5506 74.4467 98.5024 73.9647C99.0326 73.7236 101.105 73.2416 101.539 73.2416C101.78 73.2416 101.973 74.7359 101.587 77.1944H101.684V77.2426Z" fill="#373535"/>
<path d="M111.373 83.3163C112.723 83.3163 115.181 80.9543 115.856 76.4231C115.904 76.1339 115.904 76.0857 115.952 75.7964C115.663 75.7 115.229 75.6036 114.844 75.6036C113.831 75.6036 112.771 75.8928 111.855 77.1944C110.891 78.5441 110.457 80.2312 110.457 81.581C110.505 82.6897 110.795 83.3163 111.373 83.3163ZM106.938 82.063C106.938 80.4241 107.468 77.6282 109.541 75.5554C111.325 73.7236 113.446 73.2898 115.422 73.2898C116.724 73.2898 118.459 73.7236 119.568 73.9165C119.278 75.1216 118.652 79.701 118.314 82.3522C118.17 83.4609 118.122 85.0517 118.17 85.6301C117.254 86.0158 115.567 86.1122 115.085 86.1122C114.844 86.1122 114.795 85.0035 114.844 83.8948C114.892 83.5574 114.94 83.0271 114.94 82.7861C113.88 84.5697 111.759 86.064 109.541 86.064C107.999 86.1122 106.938 84.7625 106.938 82.063Z" fill="#373535"/>
<path d="M101.876 26.6764C102.792 37.2331 86.1616 47.3079 64.7106 49.1396C43.2596 50.9714 25.1829 43.8854 24.267 33.3286C23.3512 22.7718 39.9817 12.6971 61.4327 10.8653C82.8355 9.03352 100.96 16.0714 101.876 26.6764Z" fill="#BBE6FB"/>
<path d="M62.0113 12.0703C53.8165 11.9257 44.272 15.2036 37.1377 18.2405C36.4147 20.3615 35.9808 22.6271 35.9808 24.9891C35.9808 37.5223 47.3089 47.6934 61.2882 47.6934C75.2675 47.6934 86.6437 37.5705 86.6437 24.9891C86.6437 21.0363 85.4868 17.2764 83.5104 14.0467C77.8223 13.179 69.965 12.2149 62.0113 12.0703Z" fill="white"/>
<path d="M61.3364 12.0703C56.8052 11.781 48.9961 14.143 42.4885 16.5051C41.4762 18.8189 40.9459 21.3737 40.9459 24.0732C40.9459 35.0638 50.9243 43.9816 61.4328 43.9816C71.8932 43.9816 81.1485 35.0638 81.9197 24.0732C82.1608 20.506 80.9556 17.1317 79.2203 14.2395C72.5199 13.0825 65.3856 12.3595 61.3364 12.0703Z" fill="white"/>
<path d="M49.7192 22.6754C50.2976 21.4221 51.1171 20.8437 51.9366 19.8314C51.8402 19.5904 51.6474 18.7709 51.6474 18.5299C51.6474 17.2765 52.6596 16.3125 53.8648 16.3125C54.154 16.3125 54.4432 16.3607 54.6842 16.4571C58.396 13.613 63.2646 12.4079 68.1815 13.5166C68.6153 13.613 69.0492 13.7576 69.483 13.854C64.6626 13.1792 59.1673 14.9145 55.4555 17.9032C55.5519 18.1924 55.8893 18.9155 55.8893 19.2529C55.8893 20.5062 55.0699 20.7955 53.8648 20.7955C53.5755 20.7955 53.3345 20.7473 53.0453 20.6509C52.2258 21.7596 51.1653 23.9288 50.6833 25.2785C52.7561 27.1103 54.5878 27.7851 56.9981 28.701C56.9981 28.6046 57.0945 28.46 57.0945 28.3636C57.0945 24.6518 60.3724 21.615 64.0841 21.615C67.4102 21.615 70.2061 24.0252 70.7363 27.2067C72.4235 26.1462 74.0142 25.3267 75.2193 23.7842C74.9301 23.4467 74.6409 22.4344 74.6409 21.9524C74.6409 20.8437 75.5568 19.9278 76.6655 19.9278C76.8101 19.9278 76.9547 19.9278 77.1475 19.976C77.7742 18.6745 78.2562 17.3248 78.5455 15.9268C72.7127 11.5884 61.4329 12.2151 61.4329 12.2151C61.4329 12.2151 52.4668 11.733 46.3931 14.7217C46.8269 17.5176 47.9838 20.3134 49.7192 22.6754Z" fill="#373535"/>
<path d="M77.5813 20.9879C78.0151 21.3735 78.208 21.6628 78.4008 22.0002C78.931 22.9643 77.8705 23.8802 76.7136 23.8802C76.6172 23.8802 76.4726 23.8802 76.3762 23.832C75.1229 25.8083 72.9055 28.315 70.9291 29.6165C73.966 30.0985 76.81 31.3037 79.0274 33.1836C80.6664 30.2432 81.9197 25.953 81.9197 22.3376C81.9197 19.59 80.7146 17.5654 78.8828 16.071C78.8346 17.5654 78.0151 19.6382 77.5813 20.9879Z" fill="#373535"/>
<path d="M53.0935 39.6916C54.1058 36.8957 56.5642 34.7747 58.9262 32.8947C58.5888 32.4127 58.0586 31.2558 57.8657 30.7255C55.0217 29.8579 52.5151 28.2189 50.5387 26.0979C50.5387 26.1461 50.4905 26.2425 50.4905 26.2907C50.1048 27.9297 50.0566 29.6168 50.2494 31.2076C51.5992 31.4486 52.6597 32.6537 52.6597 34.0998C52.6597 34.9675 51.8884 36.1726 51.3099 36.7511C51.8884 38.0044 52.3222 38.6793 53.0935 39.6916Z" fill="#373535"/>
<path d="M52.9008 42.0053C51.6956 40.8002 50.8762 38.4382 50.1049 36.9438C49.9603 36.9438 49.8157 36.992 49.6711 36.992C48.0321 36.992 46.3449 35.6423 46.7306 34.0515C46.9234 33.1839 47.5501 32.6054 48.5142 32.1234C48.2731 30.2916 48.2249 27.7368 48.6588 25.8568C48.7552 25.3265 49.0444 25.0855 49.189 24.5553C47.4054 21.9522 46.2485 18.4815 46.2485 15.059V14.6733C43.2117 16.2159 40.946 18.5779 40.946 22.3379C40.946 30.6772 45.7665 38.872 52.9008 42.0535V42.0053Z" fill="#373535"/>
<path d="M70.4953 30.4844C69.5794 33.0874 67.0728 35.0156 64.1323 35.0156C62.5416 35.0156 61.0954 34.4853 59.9867 33.5695C57.6247 35.4012 55.4555 38.6309 54.395 41.475C54.8771 42.0052 55.2145 42.4391 55.793 42.9211C57.4319 43.355 59.7457 42.9211 61.5293 42.9211C68.7118 42.9211 75.1229 39.7396 78.7865 34.0997C76.2799 32.3643 73.3876 30.7254 70.4953 30.4844Z" fill="#373535"/>
<path d="M49.5263 23.6392C50.1048 22.3858 50.7796 21.2771 51.5991 20.2166C51.5027 19.9756 51.4545 19.6864 51.4545 19.4454C51.4545 18.192 52.4668 17.228 53.6719 17.228C53.9611 17.228 54.2504 17.2762 54.4914 17.3726C58.2031 14.5285 63.0718 13.3234 67.9886 14.4321C68.4225 14.5285 68.8563 14.6731 69.2902 14.7695C64.4697 14.0947 59.4565 15.589 55.7447 18.5777C55.8411 18.8669 55.9375 19.1561 55.9375 19.4454C55.9375 20.6987 54.9252 21.6628 53.7201 21.6628C53.4309 21.6628 53.1899 21.6146 52.9006 21.5182C52.0812 22.6269 51.3581 23.8802 50.8761 25.2299C52.6596 27.1099 54.8288 28.6524 57.239 29.5201V29.1827C57.239 25.4709 60.2759 22.434 63.9877 22.434C67.3138 22.434 70.1096 24.8443 70.6399 28.0258C72.327 26.9653 73.7732 25.6155 75.0265 24.0248C74.7373 23.6874 74.5445 23.2535 74.5445 22.7715C74.5445 21.6628 75.4603 20.7469 76.569 20.7469C76.7137 20.7469 76.8583 20.7469 77.0511 20.7951C77.6777 19.4936 78.1598 18.1438 78.449 16.7459C72.6163 12.4075 61.3364 13.0342 61.3364 13.0342C61.3364 13.0342 52.3704 12.5521 46.2966 15.5408C46.6341 18.4813 47.791 21.2771 49.5263 23.6392Z" fill="#1287B1"/>
<path d="M77.8706 21.3256C78.3045 21.7112 78.5455 22.2415 78.5455 22.8199C78.5455 23.9286 77.6296 24.8445 76.5209 24.8445C76.4245 24.8445 76.2799 24.8445 76.1835 24.7963C74.9301 26.7727 73.243 28.4599 71.2666 29.7132C74.1589 30.147 76.9065 31.4003 79.1721 33.2803C80.8111 30.3398 81.7752 26.9173 81.7752 23.302C81.7752 20.5543 80.5701 18.5297 78.7383 17.0354C78.6419 18.5297 78.3527 19.9759 77.8706 21.3256Z" fill="#1287B1"/>
<path d="M53.3828 40.3179C54.3951 37.522 56.1305 35.0636 58.4925 33.1836C58.155 32.7016 57.8658 32.2195 57.673 31.6411C54.8289 30.7734 52.3223 29.1344 50.3459 27.0134C50.3459 27.0616 50.2977 27.158 50.2977 27.2062C49.9121 28.8452 49.8639 30.5324 50.0567 32.1231C51.4064 32.3641 52.4669 33.5692 52.4669 35.0154C52.4669 35.8831 52.0813 36.6543 51.5028 37.1846C51.9849 38.2933 52.6597 39.3538 53.3828 40.3179Z" fill="#1287B1"/>
<path d="M52.9006 41.9571C51.6955 40.752 50.6832 39.4023 49.9119 37.9079C49.7673 37.9079 49.6227 37.9561 49.4781 37.9561C47.8391 37.9561 46.5376 36.6546 46.5376 35.0157C46.5376 33.8587 47.2125 32.8465 48.1765 32.3644C47.9355 30.5326 48.0319 28.7009 48.4658 26.8209C48.5622 26.2906 48.755 25.7604 48.8996 25.2301C47.116 22.6271 46.0555 19.4456 46.0555 16.0231V15.6375C43.0187 17.18 40.7531 19.542 40.7531 23.302C40.7531 31.6413 45.7181 38.8238 52.8524 42.0053C52.9006 42.0053 52.9006 42.0053 52.9006 41.9571Z" fill="#1287B1"/>
<path d="M70.3023 31.4485C69.3864 34.0515 66.8798 35.9797 63.9393 35.9797C62.3486 35.9797 60.9024 35.4495 59.7937 34.5336C57.4317 36.3653 55.6481 38.872 54.5394 41.716C55.0215 42.2463 55.5517 42.7283 56.082 43.2104C57.7209 43.6442 59.4563 43.8852 61.2398 43.8852C68.4223 43.8852 74.7853 40.1735 78.4488 34.5336C76.0386 32.7982 73.1946 31.6895 70.3023 31.4485Z" fill="#1287B1"/>
<path d="M70.5435 29.7133L76.7619 28.2189L70.4953 27.8815L75.605 24.0251L69.8204 26.0979L73.725 20.6508L68.2779 24.2662L70.1579 17.9032L66.4461 23.1575L66.3497 16.5052L63.8913 22.4344L61.8667 16.457L61.9631 23.4949L58.4442 17.1801L60.3724 23.8805L54.636 19.7349L59.1191 25.3749L51.9848 22.7718L57.5765 26.9174L50.394 27.1584L57.7693 29.0384L50.394 30.6291L57.6729 31.1594L51.551 35.064L57.8657 32.7983L53.4791 38.3419L59.0226 33.8588L57.0463 41.2823L61.3365 35.2086L60.758 42.3428L63.1682 35.8352L65.241 42.6321L65.7231 35.787L68.8082 41.6198L66.9764 34.9676L72.5681 39.306L68.9528 33.7624L75.1229 36.1727L70.3989 31.545L76.7137 32.0271L70.5435 29.7133Z" fill="white"/>
<path d="M4.16565 41.6195C23.4956 22.2895 38.9211 16.3122 52.9486 13.6127C54.7803 13.2753 55.166 9.17789 55.166 9.17789C55.166 9.17789 55.407 12.1666 56.7085 12.5522C58.01 12.9378 59.6972 7.87637 59.6972 7.87637C59.6972 7.87637 58.1547 12.4076 59.6972 12.6968C61.2397 12.9378 64.132 8.262 64.132 8.262C64.132 8.262 62.9751 12.263 63.7464 12.5522C64.5177 12.7932 68.4222 6.71946 68.4222 6.71946C68.4222 6.71946 66.1084 10.7204 68.2776 11.1543C70.495 11.5399 73.7247 8.40662 73.7247 8.40662C73.7247 8.40662 71.2181 11.2507 72.3268 11.6845C77.1472 13.3717 81.0036 7.1533 81.0036 7.1533C81.0036 7.1533 80.0877 9.90095 77.7739 12.8896C82.8354 14.1912 86.5953 6.57484 86.5953 6.57484L82.8354 14.1912C84.7635 15.1552 92.5245 6.18921 92.5245 6.18921C92.5245 6.18921 88.5235 13.1789 86.1615 14.625C87.463 15.6855 92.1388 11.4917 92.1388 11.4917C92.1388 11.4917 88.3789 16.1675 89.825 16.4086C91.8978 18.0957 99.5623 7.73175 99.5623 7.73175C99.5623 7.73175 96.5736 13.8537 92.187 18.626C95.8506 20.5059 105.009 8.69584 105.009 8.69584C105.009 8.69584 104.768 12.4558 98.1162 18.4331C103.033 17.8065 109.396 8.45482 109.396 8.45482C109.396 8.45482 107.082 15.4445 101.49 20.4095C106.311 19.9275 114.072 7.97277 114.072 7.97277C114.072 7.97277 111.083 16.2639 105.009 21.0844C111.758 22.5787 121.495 12.504 121.495 12.504C121.495 12.504 117.687 19.6383 112.674 22.5787C118.266 24.6997 125.93 15.8783 125.93 15.8783C125.93 15.8783 118.266 27.6884 106.07 27.1582C102.069 26.9653 89.9696 15.0106 64.0356 15.9747C29.714 17.228 22.4834 31.7858 4.16565 41.6195Z" fill="#373535" fill-opacity="0.35"/>
<path d="M4.93726 40.1735C24.2673 20.8435 39.6927 14.8661 53.7202 12.1667C55.552 11.8292 55.9376 7.73187 55.9376 7.73187C55.9376 7.73187 56.1786 10.7205 57.4801 11.1062C58.7817 11.4918 60.4688 6.43035 60.4688 6.43035C60.4688 6.43035 58.9263 10.9616 60.4688 11.2508C62.0114 11.4918 64.9036 6.81598 64.9036 6.81598C64.9036 6.81598 63.7467 10.817 64.518 11.1062C65.2893 11.3472 69.1938 5.27344 69.1938 5.27344C69.1938 5.27344 66.88 9.27441 69.0492 9.70825C71.2666 10.0939 74.4963 6.9606 74.4963 6.9606C74.4963 6.9606 71.9897 9.80466 73.0984 10.2385C77.9188 11.9257 81.7752 5.70728 81.7752 5.70728C81.7752 5.70728 80.8593 8.45494 78.5455 11.4436C83.607 12.7451 87.3669 5.12883 87.3669 5.12883L83.607 12.7451C85.5351 13.8056 93.3443 4.8396 93.3443 4.8396C93.3443 4.8396 89.3433 11.8292 86.9813 13.2754C88.2828 14.1913 92.9586 10.0457 92.9586 10.0457C92.9586 10.0457 89.1987 14.7215 90.6448 14.9625C92.7176 16.6497 100.382 6.28573 100.382 6.28573C100.382 6.28573 97.3452 12.4077 92.9586 17.1799C96.6222 19.0117 105.829 7.20162 105.829 7.20162C105.829 7.20162 105.588 10.9616 98.936 16.9389C103.853 16.3123 110.216 6.9606 110.216 6.9606C110.216 6.9606 107.902 13.9502 102.31 18.9153C107.131 18.4333 114.892 6.47855 114.892 6.47855C114.892 6.47855 111.903 14.7697 105.829 19.5902C112.578 21.0845 122.315 11.0098 122.315 11.0098C122.315 11.0098 118.507 18.144 113.494 21.0845C119.085 23.2055 126.75 14.3841 126.75 14.3841C126.75 14.3841 119.085 26.1942 106.89 25.6639C102.889 25.4711 90.7894 13.5164 64.8554 14.4805C30.5338 15.782 23.255 30.2916 4.93726 40.1735Z" fill="#373535"/>
<path d="M3.68359 43.7405C13.9029 48.8502 23.2546 42.9692 35.0165 46.2953C43.9825 48.802 54.8768 51.9353 69.6755 49.7661C84.4743 47.6451 97.1039 41.1857 103.178 29.713C105.058 24.6033 112.722 30.8699 112.722 30.8699C112.722 30.8699 107.13 28.5561 107.275 29.6166C107.42 30.7253 115.663 34.5334 115.663 34.5334C115.663 34.5334 108.191 32.2196 108.673 33.955C109.107 35.6904 118.025 42.7282 118.025 42.7282C118.025 42.7282 107.853 35.1119 107.034 36.1724C106.166 37.2329 111.324 41.4267 111.324 41.4267C111.324 41.4267 102.84 36.1724 99.8515 37.7149C97.6823 38.8236 108.673 46.0061 108.673 46.0061C108.673 46.0061 101.539 40.559 99.8515 42.0051C98.1644 43.4513 107.902 55.1168 107.902 55.1168C107.902 55.1168 96.8147 43.1621 95.7059 43.7405C94.5972 44.319 98.7428 50.0553 98.7428 50.0553C98.7428 50.0553 93.3439 44.0779 91.8496 45.0902C90.3552 46.1507 99.6587 61.6244 99.6587 61.6244C99.6587 61.6244 89.584 45.7651 85.3902 48.4163C91.8978 62.7331 89.4876 64.7577 89.4876 64.7577C89.4876 64.7577 88.6681 50.1517 80.5215 50.5373C76.4242 50.7302 82.4497 61.4315 82.4497 61.4315C82.4497 61.4315 76.9062 51.646 73.1945 51.8389C79.9913 64.7577 77.5811 69.9637 77.5811 69.9637C77.5811 69.9637 78.6898 58.9249 69.4827 52.8029C73.0016 55.9362 67.2653 69.9637 67.2653 69.9637C67.2653 69.9637 72.2786 49.284 63.5536 53.2368C62.1556 53.8634 63.4571 63.5525 63.4571 63.5525C63.4571 63.5525 61.7218 52.4655 59.0705 53.044C57.528 53.3814 49.3332 68.4212 49.3332 68.4212C49.3332 68.4212 56.0337 52.1763 54.0091 52.8512C52.5147 53.3332 49.7189 60.0336 49.7189 60.0336C49.7189 60.0336 51.0686 53.4296 49.7189 53.044C48.3691 52.6583 40.7528 60.0336 40.7528 60.0336C40.7528 60.0336 46.3928 53.4296 45.4287 52.0317C43.9343 49.9589 42.2472 49.8625 40.1744 50.682C37.1857 51.8389 33.1847 57.286 33.1847 57.286C33.1847 57.286 37.1857 51.7425 36.5108 49.7179C35.4021 46.3918 23.8813 56.1291 23.8813 56.1291C23.8813 56.1291 30.6781 49.7179 29.1356 48.3199C27.593 46.9702 19.109 47.3558 16.506 47.3558C8.74506 47.4523 6.04561 45.6205 3.68359 43.7405Z" fill="#373535" fill-opacity="0.35"/>
<path d="M3.25 42.5835C13.4693 47.6932 22.821 41.8123 34.5829 45.1384C43.5489 47.645 54.4432 50.7783 69.2419 48.6091C84.0407 46.4881 96.6703 40.0287 102.744 28.556C104.624 23.4463 112.289 29.7129 112.289 29.7129C112.289 29.7129 106.697 27.3991 106.841 28.4596C106.986 29.5683 115.229 33.3765 115.229 33.3765C115.229 33.3765 107.757 31.0627 108.239 32.798C108.673 34.5334 117.591 41.5712 117.591 41.5712C117.591 41.5712 107.516 33.9067 106.697 34.9672C105.877 36.0277 110.987 40.2215 110.987 40.2215C110.987 40.2215 102.503 34.9672 99.5144 36.5098C97.3451 37.6185 108.336 44.8009 108.336 44.8009C108.336 44.8009 101.202 39.3538 99.5144 40.8C97.8272 42.2461 107.564 53.9116 107.564 53.9116C107.564 53.9116 96.5257 41.9569 95.417 42.5353C94.3083 43.1138 98.4538 48.8501 98.4538 48.8501C98.4538 48.8501 92.9585 42.921 91.4642 43.9332C89.9699 44.9937 99.2251 60.4674 99.2251 60.4674C99.2251 60.4674 89.1504 44.5599 85.0048 47.2112C91.5606 61.5761 89.1022 63.6007 89.1022 63.6007C89.1022 63.6007 88.2827 48.9947 80.1361 49.3804C76.0388 49.5732 82.0643 60.2746 82.0643 60.2746C82.0643 60.2746 76.569 50.5373 72.8573 50.7301C79.6541 63.6489 77.2439 68.855 77.2439 68.855C77.2439 68.855 78.3526 57.8161 69.1455 51.6942C72.6645 54.8275 66.9281 68.855 66.9281 68.855C66.9281 68.855 71.9414 48.1752 63.2164 52.128C61.8184 52.7547 63.12 62.4438 63.12 62.4438C63.12 62.4438 61.3846 51.3567 58.7334 51.9352C57.1908 52.2726 48.9961 67.3124 48.9961 67.3124C48.9961 67.3124 55.6965 51.0675 53.6719 51.7424C52.1775 52.2244 49.3817 58.9248 49.3817 58.9248C49.3817 58.9248 50.7314 52.3208 49.3817 51.9352C48.032 51.5496 40.4157 58.9248 40.4157 58.9248C40.4157 58.9248 46.0556 52.3208 45.0915 50.9229C43.5971 48.8501 41.91 48.7537 39.8372 49.5732C36.8485 50.7301 32.8475 56.1772 32.8475 56.1772C32.8475 56.1772 36.8485 50.6337 36.1737 48.6091C35.065 45.283 23.5441 55.0203 23.5441 55.0203C23.5441 55.0203 30.3409 48.6091 28.7984 47.2112C27.2558 45.8614 18.7718 46.2471 16.1688 46.2471C8.31147 46.2953 5.61202 44.4635 3.25 42.5835Z" fill="#373535"/>
</svg>
