<svg  viewBox="95 25 150 32" fill="none" xmlns="http://www.w3.org/2000/svg"><path d="M199.92 39.7617C199.92 34.0777 195.96 30.08 190.409 30.08C183.342 30.08 178.605 35.2145 178.605 42.5468C178.605 48.2687 182.603 52.2285 188.249 52.2285C193.384 52.2285 197.211 49.7465 198.783 45.7867H193.081C192.323 47.0182 190.712 47.795 188.742 47.795C185.71 47.795 183.816 45.7867 183.645 42.9447H199.598C199.807 41.8647 199.92 40.9363 199.92 39.7617ZM184.081 39.0985C184.592 36.4839 187.131 34.3998 190.201 34.3998C192.853 34.3998 194.862 36.3323 194.862 39.0985H184.081Z" fill="#2E4369"/><path d="M163.277 51.7169L164.3 46.2603C167.427 46.8856 167.9 45.1235 168.715 40.8795L169.113 38.7764C170.25 32.8462 172.542 29.8905 179.098 30.6863L178.074 36.1429C174.948 35.5176 174.399 37.886 173.698 41.5616L173.3 43.6647C172.163 49.6707 169.795 52.5127 163.277 51.7169Z" fill="#2E4369"/><path d="M155.623 51.7359L159.488 30.5916H164.585L160.738 51.7359H155.623Z" fill="#2E4369"/><path d="M126.426 30.5915H131.371L132.981 45.8814L139.461 30.5915H144.368L146.092 46.0329L152.345 30.5915H157.271L148.309 51.7359H142.701L140.882 37.1849L134.686 51.7359H129.268L126.426 30.5915Z" fill="#2E4369"/></svg>