<svg  viewBox="20 16 50 50" fill="none" xmlns="http://www.w3.org/2000/svg"><defs>
<clipPath id="clip0_0_1804">
<rect width="100" height="18.0723" fill="white" transform="translate(75 32)"/>
</clipPath>
</defs><path fill-rule="evenodd" clip-rule="evenodd" d="M25.834 33.5C25.836 31.7537 26.2039 30.0271 26.914 28.4317C27.624 26.8362 28.6605 25.4072 29.9566 24.2368C31.2528 23.0665 32.7798 22.1807 34.4392 21.6365C36.0986 21.0924 37.8537 20.902 39.591 21.0776C41.3285 21.2532 43.01 21.791 44.527 22.6562C46.0438 23.5213 47.3627 24.6948 48.3983 26.1009C49.4342 27.507 50.1637 29.1144 50.5401 30.8197C50.9167 32.525 50.9315 34.2903 50.584 36.0017C47.316 32.7903 42.9158 30.9937 38.334 31C33.7523 30.9937 29.352 32.7903 26.084 36.0017C25.9172 35.1782 25.8334 34.3402 25.834 33.5ZM22.5173 41C21.4052 38.6563 20.8301 36.0942 20.834 33.5C20.834 23.835 28.669 16 38.334 16C47.999 16 55.834 23.835 55.834 33.5C55.834 36.1833 55.229 38.7267 54.1507 41C55.2628 43.3437 55.8378 45.9058 55.834 48.5C55.834 58.165 47.999 66 38.334 66C28.669 66 20.834 58.165 20.834 48.5C20.834 45.8167 21.439 43.2733 22.5173 41ZM50.584 45.9983C50.9527 47.8138 50.9132 49.6885 50.4685 51.4868C50.0237 53.2852 49.1848 54.9622 48.0125 56.3965C46.84 57.8308 45.3635 58.9867 43.6896 59.7803C42.0158 60.574 40.1865 60.9858 38.334 60.9858C36.4815 60.9858 34.6522 60.574 32.9783 59.7803C31.3045 58.9867 29.8279 57.8308 28.6556 56.3965C27.4832 54.9622 26.6443 53.2852 26.1996 51.4868C25.7548 49.6885 25.7154 47.8138 26.084 45.9983C29.352 49.2097 33.7523 51.0063 38.334 51C43.104 51 47.4273 49.0917 50.584 45.9983ZM48.334 41C47.1708 42.5537 45.6611 43.8145 43.9251 44.6825C42.1893 45.5505 40.2748 46.0015 38.334 46C36.3932 46.0015 34.4788 45.5502 32.7429 44.6823C31.0069 43.8143 29.4973 42.5535 28.334 41C29.4973 39.4465 31.0069 38.1857 32.7429 37.3177C34.4788 36.4498 36.3932 35.9985 38.334 36C40.2748 35.9985 42.1893 36.4495 43.9251 37.3175C45.6611 38.1855 47.1708 39.4463 48.334 41Z" fill="#8D80D1"/></svg>