<svg  viewBox="95 25 150 32" fill="none" xmlns="http://www.w3.org/2000/svg"><defs>
<clipPath id="clip0_0_1804">
<rect width="100" height="18.0723" fill="white" transform="translate(75 32)"/>
</clipPath>
</defs><g clip-path="url(#clip0_0_1804)">
<path fill-rule="evenodd" clip-rule="evenodd" d="M77.108 38.3253C77.1087 37.6941 77.2417 37.07 77.4984 36.4934C77.755 35.9167 78.1297 35.4002 78.5981 34.9772C79.0666 34.5541 79.6185 34.234 80.2183 34.0373C80.8181 33.8406 81.4525 33.7718 82.0804 33.8353C82.7084 33.8988 83.3162 34.0931 83.8645 34.4058C84.4128 34.7186 84.8895 35.1427 85.2638 35.6509C85.6382 36.1591 85.9019 36.7402 86.0379 37.3565C86.174 37.9729 86.1794 38.611 86.0538 39.2295C84.8726 38.0688 83.2822 37.4194 81.6261 37.4217C79.97 37.4194 78.3796 38.0688 77.1984 39.2295C77.1381 38.9319 77.1078 38.629 77.108 38.3253ZM75.9092 41.0361C75.5072 40.189 75.2994 39.263 75.3008 38.3253C75.3008 34.8319 78.1327 32 81.6261 32C85.1195 32 87.9514 34.8319 87.9514 38.3253C87.9514 39.2952 87.7327 40.2145 87.3429 41.0361C87.7449 41.8833 87.9528 42.8093 87.9514 43.747C87.9514 47.2404 85.1195 50.0723 81.6261 50.0723C78.1327 50.0723 75.3008 47.2404 75.3008 43.747C75.3008 42.7771 75.5195 41.8578 75.9092 41.0361ZM86.0538 42.8428C86.187 43.499 86.1728 44.1766 86.012 44.8266C85.8513 45.4766 85.5481 46.0827 85.1243 46.6011C84.7005 47.1196 84.1669 47.5373 83.5619 47.8242C82.9569 48.1111 82.2957 48.2599 81.6261 48.2599C80.9565 48.2599 80.2953 48.1111 79.6903 47.8242C79.0853 47.5373 78.5516 47.1196 78.1279 46.6011C77.7041 46.0827 77.4009 45.4766 77.2402 44.8266C77.0794 44.1766 77.0651 43.499 77.1984 42.8428C78.3796 44.0035 79.97 44.6529 81.6261 44.6506C83.3502 44.6506 84.9128 43.9608 86.0538 42.8428ZM85.2405 41.0361C84.8201 41.5977 84.2745 42.0534 83.647 42.3672C83.0196 42.6809 82.3276 42.8439 81.6261 42.8434C80.9246 42.8439 80.2326 42.6808 79.6052 42.3671C78.9778 42.0534 78.4321 41.5976 78.0116 41.0361C78.4321 40.4746 78.9778 40.0189 79.6052 39.7052C80.2326 39.3915 80.9246 39.2284 81.6261 39.2289C82.3276 39.2284 83.0196 39.3914 83.647 39.7051C84.2745 40.0189 84.8201 40.4746 85.2405 41.0361Z" fill="#8D80D1"/>
<path d="M104.291 46.5012V37.1904L105.419 37.0024L105.346 36.3229L103.727 36.3663L102.151 36.3229L102.108 37.0024L103.178 37.1904V43.5229L102.773 42.2795L98.1318 36.3229L96.5848 36.3663L95.4137 36.3229L95.3414 37.0024L96.4402 37.2337V45.6048L95.3125 45.7928L95.3848 46.4723L97.0185 46.4289L98.5944 46.4723L98.6378 45.7928L97.5679 45.6048V38.1157L97.9005 39.4458L103.206 46.5012H104.291ZM109.806 45.4602L110.269 46.6169L112.77 46.1108L112.669 45.4313H111.975C111.845 45.1855 111.787 44.9253 111.787 44.347V41.5422C111.787 39.8506 111.108 39.3157 109.084 39.3157L106.076 40.5446V41.759H107.884L108.1 40.4867C108.373 40.3457 108.675 40.2714 108.982 40.2699C109.488 40.2699 109.72 40.5301 109.72 41.412V42.2361L106.51 43.2626C106.12 43.6385 105.859 44.1157 105.859 44.7373C105.859 45.9229 106.814 46.6747 108.144 46.6747L109.806 45.4602ZM108.606 45.4458C108.259 45.4458 107.869 45.1566 107.869 44.4626C107.869 44.1301 107.97 43.7398 108.187 43.5084L109.72 42.9012V44.8964L109.344 45.1566C109.156 45.2723 108.896 45.4458 108.606 45.4458ZM115.223 46.4289L117.681 46.4723L117.753 45.7639L116.222 45.6048V42.5542L116.423 42.3229C116.799 41.8892 117.161 41.5277 117.508 41.3687H118.983V39.3879H117.638L116.106 41.7301L115.947 39.4892L115.166 39.5325L113.272 39.9518L113.344 40.6602L114.197 40.6024V45.6193L113.344 45.7928L113.417 46.4723L115.224 46.4289H115.223ZM121.535 46.4289L123.993 46.4723L124.065 45.7639L122.532 45.6048V42.5542L122.735 42.3229C123.111 41.8892 123.472 41.5277 123.819 41.3687H125.294V39.3879H123.949L122.417 41.7301L122.258 39.4892L121.477 39.5325L119.583 39.9518L119.655 40.6602L120.508 40.6024V45.6193L119.655 45.7928L119.728 46.4723L121.535 46.4289ZM129.785 45.4602L130.247 46.6169L132.749 46.1108L132.647 45.4313H131.953C131.823 45.1855 131.766 44.9253 131.766 44.347V41.5422C131.766 39.8506 131.086 39.3157 129.062 39.3157L126.055 40.5446V41.759H127.862L128.079 40.4867C128.351 40.3457 128.654 40.2714 128.961 40.2699C129.467 40.2699 129.698 40.5301 129.698 41.412V42.2361L126.488 43.2626C126.098 43.6385 125.838 44.1157 125.838 44.7373C125.838 45.9229 126.792 46.6747 128.122 46.6747L129.785 45.4602ZM128.585 45.4458C128.238 45.4458 127.847 45.1566 127.847 44.4626C127.847 44.1301 127.949 43.7398 128.166 43.5084L129.698 42.9012V44.8964L129.322 45.1566C129.134 45.2723 128.874 45.4458 128.585 45.4458ZM138.341 45.6482L138.037 44.9976C137.531 45.2723 137.228 45.359 136.881 45.359C136.49 45.359 136.158 44.9976 136.158 44.4626V40.5879H138.095V39.8072H136.143V37.6819H135.464L134.148 38.7518V39.7494H133.382L132.818 40.3277V40.5879H134.134V44.3904C134.134 45.9229 134.9 46.6747 136.418 46.6747L138.341 45.6482ZM141.517 38.2024L141.705 37.3928L141.604 36.4096L141.141 36.3229L139.768 36.4096L139.594 37.2337L139.696 38.2024L140.173 38.3036L141.517 38.2024ZM140.722 46.4289L142.515 46.4723L142.587 45.7928L141.72 45.6193V39.4892L140.823 39.5325L138.785 39.9373L138.857 40.6169L139.696 40.5735V45.6193L138.857 45.7928L138.929 46.4723L140.722 46.4289ZM147.461 46.2699L149.687 40.3711L150.54 40.1976L150.468 39.5181L149.326 39.547L147.981 39.5181L147.909 40.1976L148.588 40.3711L146.984 45.2578L146.868 44.0867L145.523 40.3711L146.304 40.1976L146.232 39.5181L144.584 39.5614L142.661 39.5181L142.588 40.1976L143.311 40.3711L145.899 46.6747L147.461 46.2699ZM156.679 42.0916C156.679 40.5735 155.899 39.3157 153.875 39.3157C151.214 40.0096 150.405 41.4843 150.405 43.2193C150.405 45.3157 151.923 46.6747 153.918 46.6747C155.075 46.3132 155.899 45.9518 156.665 45.2867L156.347 44.6361C155.928 44.9108 155.219 45.2145 154.54 45.2145C153.296 45.2145 152.573 44.2313 152.487 42.8867H156.679V42.0916ZM152.487 42.1783C152.559 40.8771 152.964 40.2265 153.643 40.2265C154.438 40.2265 154.655 40.9494 154.655 42.0482L152.487 42.1783ZM162.859 46.4289L165.852 46.4723C168.05 46.1687 169.684 45.359 169.684 43.5518C169.684 42.1349 168.628 41.1229 166.59 41.0217C168.122 40.7181 169.134 39.7639 169.134 38.5783C169.134 37.4651 168.296 36.3084 166.488 36.3229L162.859 36.3663L161.038 36.3229L160.966 37.0024L162.093 37.1904V45.6048L160.966 45.7928L161.038 46.4723L162.859 46.4289ZM164.305 37.147L165.303 37.0458C166.431 37.0602 166.893 37.7687 166.893 38.7663C166.893 39.8795 166.257 40.7904 165.245 40.7904H164.305V37.147ZM164.305 45.6482V41.4988H165.447C166.705 41.4988 167.443 42.3807 167.443 43.5807C167.443 44.5494 166.908 45.7349 165.259 45.7349L164.305 45.6482ZM172.356 46.4289L174.51 46.4723L174.582 45.7783L173.455 45.5904V37.1904L174.582 37.0024L174.51 36.3229L172.356 36.3663L170.187 36.3229L170.115 37.0024L171.243 37.1904V45.5904L170.115 45.7783L170.187 46.4723L172.356 46.4289Z" fill="#2B2A45"/>
</g></svg>