<svg width="227" height="53" viewBox="0 0 227 53" fill="none" xmlns="http://www.w3.org/2000/svg">
<path d="M141.503 4.36548C146.54 4.36548 150.018 7.84334 150.018 12.8804V19.8363H141.383V14.5594C141.383 13.2402 140.663 12.5206 139.344 12.5206H129.99C128.671 12.5206 127.951 13.2402 127.951 14.5594V37.8255C127.951 39.1446 128.671 39.8641 129.99 39.8641H139.344C140.663 39.8641 141.383 39.1446 141.383 37.8255V32.5486H150.018V39.5046C150.018 44.5414 146.54 48.0193 141.503 48.0193H127.831C122.794 48.0193 119.316 44.5414 119.316 39.5046V12.8804C119.316 7.84335 122.794 4.36548 127.831 4.36548H141.503ZM28.773 4.60527C33.81 4.60527 37.2879 8.08324 37.2879 13.1202V24.0337C37.2879 29.0707 33.81 32.5487 28.773 32.5487H15.3411V47.7796H6.70618V4.60527H28.773ZM61.7525 4.60527L75.6643 47.7796H66.3697L63.5515 38.0652H49.5798L46.7015 47.7796H37.7668L51.6786 4.60527H61.7525ZM103.367 4.60527C108.404 4.60527 111.881 8.08324 111.881 13.1202V23.2542C111.881 27.3317 109.603 30.3899 106.005 31.4093L113.201 47.7796H103.906L96.9504 31.7691H89.9944V47.7796H81.3596V4.60527H103.367ZM185.935 4.60527V12.7605H166.327V21.6352H182.217V29.7903H166.327V39.6244H185.935V47.7796H157.692V4.60527H185.935ZM202.184 4.60527V39.6244H220.294V47.7796H193.55V4.60527H202.184ZM140.424 7.84335H128.91C125.193 7.84335 123.034 10.0021 123.034 13.7199V38.6649C123.034 42.3827 125.193 44.5414 128.91 44.5414H140.424C144.141 44.5414 146.3 42.3827 146.3 38.6649V36.0266H145.101V38.6649C145.101 41.6632 143.422 43.3421 140.424 43.3421H128.91C125.912 43.3421 124.233 41.6632 124.233 38.6649V13.7199C124.233 10.7217 125.912 9.04271 128.91 9.04271H140.424C143.422 9.04271 145.101 10.7217 145.101 13.7199V16.4782H146.3V13.7199C146.3 10.0021 144.141 7.84335 140.424 7.84335ZM27.6936 8.08324H10.4239V44.3017H11.6232V29.0707H27.6936C31.4114 29.0707 33.5701 26.912 33.5701 23.1942V13.9597C33.5701 10.242 31.4114 8.08324 27.6936 8.08324ZM59.4739 8.08324H53.9572L42.6839 44.3017H43.8233L46.8214 34.5874H66.4898L69.4278 44.3017H70.5672L59.4739 8.08324ZM102.287 8.08324H85.0775V44.3017H86.2768V28.3511H99.4688L106.425 44.3017H107.684L100.728 28.3511H102.287C106.005 28.3511 108.164 26.1925 108.164 22.4747V13.9597C108.164 10.242 106.005 8.08324 102.287 8.08324ZM182.217 8.08324H161.41V44.3017H182.217V43.1024H162.609V26.3124H178.5V25.113H162.609V9.28251H182.217V8.08324ZM198.467 8.08324H197.268V44.3017H216.576V43.1024H198.467V8.08324ZM58.7543 9.28251L66.1298 33.3882H47.1812L54.6767 9.28251H58.7543ZM56.6555 14.0797L51.9784 29.9102H61.2128L56.6555 14.0797ZM27.6936 9.28251C30.6919 9.28251 32.3709 10.9616 32.3709 13.9597V23.1942C32.3709 26.1925 30.6919 27.8714 27.6936 27.8714H11.6232V9.28251H27.6936ZM102.287 9.28251C105.285 9.28251 106.964 10.9616 106.964 13.9597V22.4747C106.964 25.4729 105.285 27.1518 102.287 27.1518H86.2768V9.28251H102.287ZM26.6143 12.7605H15.3411V24.3935H26.6143C27.9335 24.3935 28.6531 23.674 28.6531 22.3547V14.7993C28.6531 13.4801 27.9335 12.7605 26.6143 12.7605ZM101.208 12.7605H89.9944V23.7339H101.208C102.527 23.7339 103.247 23.0143 103.247 21.6951V14.7993C103.247 13.4801 102.527 12.7605 101.208 12.7605Z" fill="#BE4248"/>
</svg>
