<svg width="48" height="48" viewBox="0 0 48 48" fill="none" xmlns="http://www.w3.org/2000/svg">
<g clip-path="url(#clip0_0_5620)">
<path d="M41.4858 16.4572L6.58291 18.4458L6.3772 5.07435L37.8515 0.137207L41.4858 16.4572Z" fill="url(#paint0_linear_0_5620)"/>
<path d="M13.92 29.6228L25.1657 15.3599L12.96 6.99422C10.8343 5.07422 7.61141 4.25136 4.31998 5.62279C2.67427 6.3085 1.37141 7.61136 0.685694 9.25707C-0.754306 12.6856 0.137122 16.0456 2.33141 18.1028L13.92 29.6228Z" fill="url(#paint1_linear_0_5620)"/>
<path d="M13.92 29.6228L31.2 46.6971L41.9658 26.6057L25.1658 15.36L13.92 29.6228Z" fill="url(#paint2_linear_0_5620)"/>
<path d="M36.96 25.0971L8.2286 23.7257C7.13146 23.52 5.89717 23.5885 4.59431 24.1371C3.36003 24.6857 2.40003 25.5771 1.92003 26.8114C0.480027 30.1714 2.19431 33.3943 5.00574 34.4914L30.72 46.6285C31.0629 46.8343 32.7772 47.3143 32.7772 47.3143C34.1486 47.7257 35.6572 47.9314 37.0286 47.9314C38.7429 47.9314 40.6629 47.4514 42.5829 46.4914C44.3657 45.6 45.4629 44.16 46.4229 42.3771C47.5886 40.32 47.9315 38.4 47.9315 36.48C47.8629 30.5143 42.9257 25.5085 36.96 25.0971Z" fill="url(#paint3_linear_0_5620)"/>
<path d="M35.7257 0.75429C35.2457 0.960004 34.7657 1.23429 34.3542 1.50858L18.4457 13.5086L26.3314 25.0286L43.6114 15.36C44.9142 14.7429 45.9428 13.6457 46.56 12.4114C50.4 5.00572 43.2685 -2.4 35.7257 0.75429Z" fill="url(#paint4_linear_0_5620)"/>
<path d="M9.94284 34.1487L26.3314 25.0287L18.4457 13.5087L3.35999 24.823L9.94284 34.1487Z" fill="#905CFB"/>
<path d="M13.9886 38.6743V24L8.2286 23.7257C7.13145 23.52 5.89717 23.5885 4.59431 24.1371C3.36003 24.6857 2.40003 25.5771 1.92003 26.8114C0.480027 30.1714 2.19431 33.3943 5.00574 34.4914H5.07431L13.9886 38.6743Z" fill="url(#paint5_linear_0_5620)"/>
<path d="M9.1886 9.1886H38.8115V38.8115H9.1886V9.1886Z" fill="black"/>
<path d="M12 20.16V13.0286H14.7429V20.0914C14.7429 22.1486 15.7714 23.1771 17.4171 23.1771C19.0629 23.1771 20.0914 22.1486 20.0914 20.16V13.0286H22.8343V20.0228C22.8343 23.7943 20.7086 25.6457 17.3486 25.6457C14.0571 25.7143 12 23.7943 12 20.16Z" fill="white"/>
<path d="M24.2743 13.0286H29.3486C32.2971 13.0286 34.08 14.8114 34.08 17.3486V17.4171C34.08 20.2971 31.8171 21.8057 29.0743 21.8057H27.0171V25.5086H24.2743V13.0286ZM29.2114 19.3371C30.5829 19.3371 31.4057 18.5143 31.4057 17.4857V17.4171C31.4057 16.1828 30.5829 15.5657 29.2114 15.5657H27.0857V19.3371H29.2114Z" fill="white"/>
<path d="M12 33.2572H23.1086V35.1086H12V33.2572Z" fill="white"/>
</g>
<defs>
<linearGradient id="paint0_linear_0_5620" x1="44.5118" y1="7.54978" x2="12.009" y2="12.4252" gradientUnits="userSpaceOnUse">
<stop stop-color="#FF8200"/>
<stop offset="0.973" stop-color="#905CFB"/>
</linearGradient>
<linearGradient id="paint1_linear_0_5620" x1="10.7486" y1="23.8642" x2="13.778" y2="6.93936" gradientUnits="userSpaceOnUse">
<stop stop-color="#0CB0F2"/>
<stop offset="0.973" stop-color="#905CFB"/>
</linearGradient>
<linearGradient id="paint2_linear_0_5620" x1="40.0012" y1="36.7995" x2="18.4992" y2="26.2985" gradientUnits="userSpaceOnUse">
<stop stop-color="#0CB0F2"/>
<stop offset="0.973" stop-color="#905CFB"/>
</linearGradient>
<linearGradient id="paint3_linear_0_5620" x1="41.6078" y1="38.4397" x2="5.0414" y2="25.2939" gradientUnits="userSpaceOnUse">
<stop stop-color="#0CB0F2"/>
<stop offset="0.973" stop-color="#905CFB"/>
</linearGradient>
<linearGradient id="paint4_linear_0_5620" x1="44.0187" y1="4.06972" x2="12.7021" y2="29.3102" gradientUnits="userSpaceOnUse">
<stop stop-color="#FF8200"/>
<stop offset="0.973" stop-color="#905CFB"/>
</linearGradient>
<linearGradient id="paint5_linear_0_5620" x1="20.8787" y1="33.7666" x2="1.55317" y2="26.8985" gradientUnits="userSpaceOnUse">
<stop stop-color="#0CB0F2"/>
<stop offset="0.973" stop-color="#905CFB"/>
</linearGradient>
<clipPath id="clip0_0_5620">
<rect width="48" height="48" fill="white"/>
</clipPath>
</defs>
</svg>
