<svg width="184" height="65" viewBox="0 0 184 65" fill="none" xmlns="http://www.w3.org/2000/svg">
<path d="M127.759 16.2135H118.504C118.294 16.2135 118.083 16.4238 118.083 16.6342V21.9981C118.083 22.2084 118.294 22.4188 118.504 22.4188H127.759C127.97 22.4188 128.18 22.2084 128.18 21.9981V16.6342C128.285 16.4238 128.075 16.2135 127.759 16.2135Z" fill="#F22F46"/>
<path d="M127.654 24.2067H109.774C109.564 24.2067 109.249 24.4171 109.143 24.6274L106.83 33.3569L106.724 33.7776L103.99 24.4171C103.885 24.2067 103.674 23.9964 103.359 23.9964H96.4173C96.207 23.9964 95.8914 24.2067 95.7862 24.4171L93.1569 33.1466L93.0517 33.5673L92.9465 33.3569L91.8948 29.0448L90.7379 24.7326C90.6327 24.5223 90.4224 24.3119 90.1068 24.3119H76.1186V16.7393C76.1186 16.529 75.8031 16.2135 75.4876 16.3186L66.6529 19.0532C66.3374 19.1584 66.2322 19.2635 66.2322 19.4739V24.2067H63.9184C63.708 24.2067 63.4977 24.4171 63.4977 24.6274V31.3586C63.4977 31.569 63.708 31.7793 63.9184 31.7793H66.2322V39.9829C66.2322 45.7675 69.3875 48.502 75.1721 48.502C77.5911 48.502 79.9049 47.9762 81.4825 47.1348V40.1933C81.4825 39.8777 81.167 39.7726 80.9567 39.7726C80.0101 40.1933 79.2739 40.2984 78.4325 40.2984C76.8548 40.2984 76.0134 39.6674 76.0134 37.8794V31.8845H81.0618C81.2722 31.8845 81.4825 31.6741 81.4825 31.4638V25.7843L88.1085 47.7658C88.2137 47.9762 88.424 48.1865 88.7396 48.1865H96.1018C96.3121 48.1865 96.6277 47.9762 96.7328 47.7658L99.8881 37.9846L101.466 43.033L102.938 47.6607C103.043 47.871 103.254 48.0814 103.569 48.0814H110.931C111.142 48.0814 111.457 47.871 111.562 47.6607L118.294 25.574V47.6607C118.294 47.871 118.504 48.0814 118.714 48.0814H127.654C127.864 48.0814 128.075 47.871 128.075 47.6607V24.7326C128.075 24.4171 127.864 24.2067 127.654 24.2067Z" fill="#F22F46"/>
<path d="M139.434 16.2135H130.494C130.283 16.2135 130.073 16.4238 130.073 16.6342V47.6607C130.073 47.871 130.283 48.0814 130.494 48.0814H139.434C139.644 48.0814 139.854 47.871 139.854 47.6607V16.6342C139.854 16.4238 139.644 16.2135 139.434 16.2135Z" fill="#F22F46"/>
<path d="M151.318 16.2135H142.063C141.853 16.2135 141.642 16.4238 141.642 16.6342V21.9981C141.642 22.2084 141.853 22.4188 142.063 22.4188H151.318C151.529 22.4188 151.739 22.2084 151.739 21.9981V16.6342C151.844 16.4238 151.634 16.2135 151.318 16.2135Z" fill="#F22F46"/>
<path d="M151.213 24.2067H142.273C142.063 24.2067 141.853 24.4171 141.853 24.6274V47.6607C141.853 47.871 142.063 48.0814 142.273 48.0814H151.213C151.424 48.0814 151.634 47.871 151.634 47.6607V24.7326C151.634 24.4171 151.424 24.2067 151.213 24.2067Z" fill="#F22F46"/>
<path fill-rule="evenodd" clip-rule="evenodd" d="M166.043 23.6809C158.155 23.6809 152.58 29.4654 152.58 36.1966V36.3018C152.58 43.033 158.155 48.7124 165.938 48.7124C173.826 48.7124 179.4 42.9278 179.4 36.1966V36.0915C179.4 29.3603 173.826 23.6809 166.043 23.6809ZM169.829 36.1966C169.829 38.5105 168.251 40.2984 166.043 40.2984C163.834 40.2984 162.151 38.4053 162.151 36.0915V35.9863C162.151 33.6724 163.729 31.8845 165.938 31.8845C168.146 31.8845 169.829 33.7776 169.829 36.1966Z" fill="#F22F46"/>
<path d="M37.4144 31.1482C40.4349 31.1482 42.8835 28.6996 42.8835 25.6792C42.8835 22.6587 40.4349 20.2101 37.4144 20.2101C34.3939 20.2101 31.9453 22.6587 31.9453 25.6792C31.9453 28.6996 34.3939 31.1482 37.4144 31.1482Z" fill="#F22F46"/>
<path d="M42.8835 38.7208C42.8835 41.7413 40.4349 44.1899 37.4144 44.1899C34.3939 44.1899 31.9453 41.7413 31.9453 38.7208C31.9453 35.7003 34.3939 33.2517 37.4144 33.2517C40.4349 33.2517 42.8835 35.7003 42.8835 38.7208Z" fill="#F22F46"/>
<path d="M24.3728 44.1899C27.3933 44.1899 29.8419 41.7413 29.8419 38.7208C29.8419 35.7003 27.3933 33.2517 24.3728 33.2517C21.3523 33.2517 18.9037 35.7003 18.9037 38.7208C18.9037 41.7413 21.3523 44.1899 24.3728 44.1899Z" fill="#F22F46"/>
<path d="M29.8419 25.6792C29.8419 28.6996 27.3933 31.1482 24.3728 31.1482C21.3523 31.1482 18.9037 28.6996 18.9037 25.6792C18.9037 22.6587 21.3523 20.2101 24.3728 20.2101C27.3933 20.2101 29.8419 22.6587 29.8419 25.6792Z" fill="#F22F46"/>
<path fill-rule="evenodd" clip-rule="evenodd" d="M30.8936 5.90637C16.3795 5.90637 4.59998 17.6859 4.59998 32.2C4.59998 46.7141 16.3795 58.4936 30.8936 58.4936C45.4077 58.4936 57.1872 46.7141 57.1872 32.2C57.1872 17.6859 45.4077 5.90637 30.8936 5.90637ZM30.8936 51.5521C20.1658 51.5521 11.5415 42.9278 11.5415 32.2C11.5415 21.4722 20.1658 12.8479 30.8936 12.8479C41.6214 12.8479 50.2457 21.4722 50.2457 32.2C50.2457 42.9278 41.6214 51.5521 30.8936 51.5521Z" fill="#F22F46"/>
</svg>
