<svg width="184" height="65" viewBox="0 0 184 65" fill="none" xmlns="http://www.w3.org/2000/svg">
<path fill-rule="evenodd" clip-rule="evenodd" d="M57.3746 24.9945H65.1552V30.7418H66.4133V18.2911H65.1552V23.895H57.3746V18.2911H56.1158V30.7418H57.3746V24.9945Z" fill="black"/>
<path fill-rule="evenodd" clip-rule="evenodd" d="M72.0416 23.4294C73.7466 23.4294 75.0328 24.7921 75.0328 26.5984C75.0328 28.3946 73.7466 29.7497 72.0416 29.7497C70.2983 29.7497 69.0319 28.4239 69.0319 26.5984C69.0319 24.7615 70.2983 23.4294 72.0416 23.4294ZM72.0416 30.9027C74.4445 30.9027 76.256 29.0517 76.256 26.5984C76.256 24.135 74.4439 22.277 72.0416 22.277C69.6285 22.277 67.8087 24.135 67.8087 26.5984C67.8087 29.0517 69.6291 30.9027 72.0416 30.9027ZM78.9094 25.6099C79.7463 24.2038 80.5991 23.4294 81.3136 23.4294C81.7177 23.4294 82.0944 23.648 82.8083 24.2949L82.9485 24.4218L83.6178 23.3478L83.5183 23.2592C82.7089 22.5434 82.183 22.2763 81.5813 22.2763C80.7126 22.2763 79.7947 22.9475 78.9094 24.2236V22.437H77.7392V30.7421H78.9094V25.6099ZM85.405 25.0241C86.1106 23.8775 86.7422 23.4287 87.6492 23.4287C88.8826 23.4287 89.5913 24.3772 89.5913 26.028V30.7421H90.7609V25.1841C91.5436 23.8896 92.139 23.4287 93.0237 23.4287C94.2283 23.4287 94.9466 24.4078 94.9466 26.0465V30.7421H96.1169V25.673C96.1169 23.6416 94.9377 22.277 93.1836 22.277C92.0593 22.277 91.2237 22.8015 90.4333 24.017C89.8852 22.8462 89.0298 22.277 87.8271 22.277C86.8111 22.277 86.0679 22.6613 85.405 23.5467V22.4376H84.2354V30.7421H85.405V25.0241ZM98.7703 26.5984C98.7703 24.7621 100.036 23.4294 101.78 23.4294C103.485 23.4294 104.771 24.7921 104.771 26.5984C104.771 28.3946 103.485 29.7497 101.78 29.7497C100.036 29.7497 98.7703 28.4246 98.7703 26.5984ZM101.78 30.9021C104.182 30.9021 105.994 29.0517 105.994 26.5984C105.994 24.135 104.182 22.2763 101.78 22.2763C99.3663 22.2763 97.5465 24.135 97.5465 26.5978C97.5465 29.0517 99.3663 30.9021 101.78 30.9021ZM108.629 25.0241C109.336 23.8915 110.051 23.4287 111.087 23.4287C112.751 23.4287 113.1 24.8431 113.1 26.028V30.7421H114.271V25.7087C114.271 23.5925 113.071 22.277 111.14 22.277C110.06 22.277 109.326 22.6377 108.629 23.5403V22.4376H107.46V30.7421H108.629V25.0241ZM117.071 25.4435C117.399 24.1955 118.325 23.4294 119.522 23.4294C120.775 23.4294 121.54 24.0884 121.854 25.4435H117.071ZM119.844 30.9021C121.039 30.9021 122.048 30.5521 123.017 29.8013L123.079 29.7535V28.385L122.821 28.5928C121.808 29.4151 120.974 29.7497 119.95 29.7497C119.515 29.7486 119.085 29.6552 118.689 29.4758C118.293 29.2964 117.939 29.035 117.652 28.7088C117.103 28.0893 116.842 27.2932 116.908 26.4538H123.222V26.2957C123.222 23.5339 121.304 22.2763 119.522 22.2763C117.308 22.2763 115.701 24.0489 115.701 26.4907C115.701 29.0466 117.443 30.9021 119.844 30.9021ZM129.879 24.9948H137.66V30.7414H138.919V18.2921H137.66V23.8947H129.879V18.2921H128.62V30.7421H129.879L129.879 24.9948ZM142.005 25.4435C142.334 24.1955 143.259 23.4294 144.457 23.4294C145.71 23.4294 146.475 24.0884 146.79 25.4435H142.005ZM144.778 30.9021C145.972 30.9021 146.981 30.5521 147.952 29.8013L148.013 29.7535V28.385L147.755 28.5928C146.742 29.4151 145.909 29.7497 144.884 29.7497C144.449 29.7484 144.02 29.6551 143.623 29.4758C143.227 29.2965 142.874 29.0353 142.586 28.7095C142.315 28.4039 142.109 28.0462 141.981 27.6584C141.853 27.2705 141.806 26.8606 141.842 26.4538H148.156V26.2957C148.156 23.5339 146.238 22.2763 144.457 22.2763C142.242 22.2763 140.634 24.0489 140.634 26.4907C140.634 29.0466 142.377 30.9021 144.778 30.9021ZM154.262 26.6622V28.93C153.488 29.6088 152.904 29.8746 152.197 29.8746C151.383 29.8746 150.77 29.3774 150.77 28.7165C150.77 28.292 150.945 27.9089 151.29 27.5787C151.897 26.9968 152.949 26.6609 154.139 26.6609L154.262 26.6622ZM149.6 28.7165C149.6 29.9422 150.616 30.9027 151.911 30.9027C152.726 30.9027 153.469 30.635 154.291 30.0416C154.357 30.5706 154.49 30.9027 154.99 30.9027C155.355 30.9027 155.714 30.7816 156.561 30.1417L156.767 29.9868V28.8688L156.511 29.0721C155.68 29.7306 155.489 29.7503 155.462 29.7567C155.456 29.749 155.431 29.7057 155.431 29.4998V24.518C155.431 22.8659 154.063 22.277 152.783 22.277C151.89 22.277 151.144 22.5236 150.119 23.1559L150.044 23.2018V24.4785L150.297 24.2873C151.27 23.5543 151.861 23.3057 152.641 23.3057C153.732 23.3057 154.262 23.7889 154.262 24.7845V25.6481C152.451 25.7526 149.6 26.3008 149.6 28.7165Z" fill="black"/>
<path fill-rule="evenodd" clip-rule="evenodd" d="M158.537 30.7421H159.707V18.2908H158.537V30.7421ZM163.075 29.0358C163.075 30.3253 164.083 30.9021 165.083 30.9021C165.387 30.9021 165.74 30.8282 166.052 30.753C166.429 30.6414 166.665 30.5566 166.814 30.4725L166.896 30.4279V29.2742L166.673 29.3737C165.982 29.6828 165.734 29.7497 165.279 29.7497C164.279 29.7497 164.244 29.4514 164.244 28.0396V23.4479H166.487V22.4383H164.244V19.7861H163.743L163.075 20.637V22.4383H160.922V23.4479H163.075V29.0358ZM169.529 25.0254C170.283 23.8622 170.953 23.4301 171.987 23.4301C173.342 23.4301 174.001 24.2803 174.001 26.0293V30.7421H175.172V25.6902C175.172 23.5843 173.971 22.277 172.041 22.277C170.959 22.277 170.225 22.6378 169.529 23.5416V18.2921H168.36V30.7428H169.529V25.0254ZM61.8485 42.4649L57.1356 37.079H56.0712V44.69H57.3715V39.3385L61.9734 44.6352L62.0199 44.69H63.1487V37.079H61.8485V42.4649ZM77.0513 41.4814H80.0356V40.2232H77.0513V38.3366H80.1427V37.0784H75.6861V44.69H80.2395V43.4331H77.0513V41.4814ZM91.9298 38.3359H94.4539V44.6906H95.8185V38.3359H98.3445V37.0784H91.9298V38.3359ZM116.579 41.839L114.655 37.079H113.447L111.531 41.8403L109.666 37.1784L109.627 37.079H108.238L111.319 44.755H111.733L114.045 39.0492L116.335 44.755H116.752L119.842 37.079H118.463L116.579 41.839ZM134.117 43.5083C132.591 43.5083 131.44 42.3801 131.44 40.8848C131.44 39.364 132.566 38.2607 134.117 38.2607C135.675 38.2607 136.805 39.3634 136.805 40.8848C136.805 42.405 135.675 43.5083 134.117 43.5083ZM134.117 36.9815C131.795 36.9815 130.044 38.6591 130.044 40.8848C130.044 43.1087 131.787 44.7863 134.097 44.7863C136.793 44.7863 138.203 42.8231 138.203 40.8848C138.203 38.6234 136.484 36.9815 134.117 36.9815ZM153.379 39.2391C153.385 39.5387 153.303 39.7758 153.137 39.9453C152.927 40.1582 152.579 40.2659 152.104 40.2659H151.588V38.2932H152.104C153.233 38.2932 153.373 38.8324 153.379 39.2391ZM155.145 42.9844C154.645 42.1621 154.267 41.5439 153.708 41.0977C154.4 40.7306 154.777 40.0932 154.777 39.2793C154.777 37.9216 153.798 37.079 152.222 37.079H150.223V44.69H151.588V41.5241H151.869C152.324 41.5241 152.72 41.6376 153.673 43.1201L154.681 44.69H156.329L156.044 44.2961C155.62 43.7097 155.443 43.4662 155.145 42.9844ZM174.801 37.0784H173.066L170.223 40.169V37.0784H168.86V44.6906H170.223V41.301L173.713 44.6906H175.611L171.485 40.686L174.801 37.0784ZM55.8921 34.1069H175.133V33.3962H55.8921V34.1069ZM22.8029 15.1957C22.9696 15.3412 23.1646 15.4506 23.3757 15.517C23.5868 15.5833 23.8093 15.6052 24.0292 15.5813C24.2581 15.5544 24.4789 15.4802 24.6775 15.3633C24.8762 15.2465 25.0483 15.0895 25.1829 14.9025C25.7572 14.1262 25.6355 12.9891 24.9101 12.3689C24.742 12.2233 24.5456 12.1142 24.3332 12.0484C24.1208 11.9825 23.8971 11.9615 23.6761 11.9865C23.2236 12.0387 22.8163 12.2796 22.5314 12.664C21.9514 13.4403 22.0737 14.5761 22.8029 15.1957ZM18.3215 17.6528C18.1496 17.6732 17.9839 17.729 17.8348 17.8168C17.6857 17.9046 17.5565 18.0224 17.4553 18.1627C17.0199 18.7542 17.1111 19.6134 17.6592 20.0806C17.7874 20.191 17.937 20.2738 18.0987 20.3237C18.2604 20.3736 18.4306 20.3896 18.5987 20.3706C18.7698 20.3504 18.9348 20.2949 19.0833 20.2076C19.2317 20.1202 19.3604 20.003 19.4611 19.8632C19.9009 19.2737 19.8098 18.4132 19.2591 17.9447C19.1318 17.8335 18.9828 17.75 18.8214 17.6998C18.6601 17.6495 18.4894 17.6335 18.3215 17.6528ZM16.3245 23.9438C16.2384 23.8687 16.1376 23.8125 16.0285 23.7786C15.9194 23.7447 15.8045 23.7338 15.691 23.7468C15.4551 23.773 15.2448 23.896 15.0982 24.0929C14.8037 24.4894 14.8668 25.0726 15.2404 25.3926C15.3285 25.4681 15.4314 25.5245 15.5425 25.558C15.6536 25.5915 15.7706 25.6015 15.8858 25.5872C16.001 25.5729 16.1119 25.5347 16.2115 25.4751C16.3111 25.4154 16.3971 25.3357 16.4641 25.2409C16.7656 24.8431 16.7031 24.2599 16.3245 23.9438ZM20.8156 17.9339C21.0141 17.9101 21.2056 17.8453 21.3778 17.7437C21.55 17.6421 21.6993 17.5059 21.8162 17.3437C22.3198 16.6636 22.2133 15.6642 21.5785 15.1154C21.4313 14.9875 21.2592 14.8915 21.073 14.8336C20.8868 14.7757 20.6906 14.757 20.4969 14.7788C20.2964 14.8027 20.1031 14.8678 19.9291 14.9702C19.7551 15.0725 19.6042 15.2099 19.486 15.3735C18.9792 16.0568 19.0876 17.0537 19.7269 17.5961C19.8752 17.7245 20.0485 17.8207 20.2359 17.8789C20.4232 17.937 20.6206 17.9558 20.8156 17.9339ZM37.965 14.9904C38.0492 14.9904 38.1339 14.9847 38.2187 14.9745C38.8395 14.9031 39.394 14.5768 39.7809 14.0548C40.5662 12.991 40.3992 11.4389 39.4081 10.595C38.9294 10.1871 38.3309 9.99845 37.7222 10.0711C37.1014 10.1425 36.5494 10.4701 36.1644 10.9934C35.3747 12.0521 35.5391 13.6054 36.5322 14.4557C36.9309 14.7988 37.439 14.9885 37.965 14.9904ZM15.1314 28.4507C15.2339 28.4506 15.335 28.4258 15.426 28.3786C15.5171 28.3314 15.5955 28.263 15.6547 28.1792C15.7632 28.0313 15.8127 27.8481 15.7934 27.6656C15.774 27.4831 15.6873 27.3144 15.5501 27.1925C15.4828 27.1359 15.4048 27.0934 15.3207 27.0676C15.2365 27.0419 15.1481 27.0334 15.0606 27.0427C14.971 27.0538 14.8847 27.0834 14.8072 27.1297C14.7297 27.176 14.6628 27.238 14.6106 27.3117C14.5042 27.4603 14.4564 27.643 14.4763 27.8247C14.4961 28.0064 14.5823 28.1744 14.7183 28.2965C14.833 28.3958 14.9796 28.4505 15.1314 28.4507ZM17.6063 20.7562C17.4997 20.663 17.3747 20.5931 17.2395 20.551C17.1043 20.5089 16.9618 20.4954 16.8211 20.5115C16.5311 20.5446 16.2729 20.6963 16.0919 20.9392C15.7273 21.4325 15.8038 22.1553 16.264 22.5517C16.3713 22.6428 16.4961 22.711 16.6307 22.7521C16.7653 22.7932 16.9068 22.8064 17.0467 22.7908C17.3354 22.7589 17.5948 22.6085 17.7784 22.3669C17.9562 22.1255 18.0371 21.8262 18.0053 21.5281C17.9734 21.23 17.8311 20.9546 17.6063 20.7562ZM32.4287 13.3747C32.5039 13.3747 32.5798 13.3702 32.6562 13.3619C33.2216 13.2969 33.7277 12.9999 34.0827 12.525C34.801 11.5543 34.6487 10.1412 33.7411 9.37445C33.5339 9.19227 33.2908 9.05545 33.0276 8.97279C32.7644 8.89013 32.4868 8.86347 32.2126 8.8945C31.6466 8.95824 31.1405 9.2559 30.7868 9.73266C30.071 10.7002 30.2214 12.1158 31.1246 12.8877C31.4872 13.2001 31.9501 13.3728 32.4287 13.3747ZM27.6802 14.0044C27.7484 14.0044 27.8166 13.9999 27.8854 13.9917C28.3953 13.9343 28.8517 13.6666 29.1704 13.2376C29.818 12.3619 29.6816 11.0852 28.8664 10.393C28.6767 10.2297 28.4555 10.1073 28.2164 10.0333C27.9773 9.95942 27.7256 9.93561 27.4769 9.96339C27.2233 9.99422 26.979 10.0773 26.7592 10.2074C26.5395 10.3376 26.3491 10.5119 26.2002 10.7193C25.5488 11.5925 25.6852 12.8686 26.5023 13.5627C26.8294 13.8467 27.247 14.0034 27.6802 14.0044ZM11.8864 32.0124C12.5831 31.8952 13.0624 31.1947 12.9547 30.4515C12.9292 30.269 12.8677 30.0934 12.7738 29.9349C12.68 29.7763 12.5556 29.638 12.4078 29.5279C12.2775 29.4322 12.1292 29.3637 11.9719 29.3265C11.8145 29.2893 11.6513 29.2841 11.4919 29.3112C10.7959 29.4291 10.3166 30.1271 10.4224 30.8671C10.4772 31.2444 10.669 31.5714 10.9641 31.7887C11.0951 31.8858 11.2442 31.9556 11.4026 31.994C11.561 32.0324 11.7256 32.0387 11.8864 32.0124ZM13.7387 37.5309C13.7846 37.5309 13.8311 37.5264 13.877 37.5182C14.3518 37.4468 14.6775 36.9726 14.6017 36.4633C14.5855 36.3406 14.545 36.2223 14.4825 36.1155C14.42 36.0087 14.3368 35.9154 14.2377 35.8412C14.1483 35.7755 14.0466 35.7284 13.9387 35.7027C13.8307 35.677 13.7187 35.6731 13.6093 35.6914C13.137 35.7717 12.8126 36.2459 12.8859 36.7463C12.9215 36.9981 13.0548 37.2256 13.2511 37.369C13.3958 37.4761 13.5659 37.5309 13.7387 37.5309ZM14.5928 16.1671C14.9433 16.422 15.3513 16.5559 15.7668 16.5559C15.8765 16.5559 15.9874 16.5457 16.0983 16.5278C17.2417 16.343 18.0295 15.1944 17.8543 13.9687C17.7676 13.3575 17.4431 12.8074 16.9664 12.4581C16.7517 12.299 16.5073 12.1844 16.2477 12.1212C15.988 12.0579 15.7184 12.0472 15.4545 12.0897C14.3123 12.2758 13.5264 13.4263 13.7004 14.6539C13.7884 15.2658 14.1135 15.8178 14.5928 16.1671ZM11.8476 34.5926C11.9581 34.6754 12.0842 34.7354 12.2183 34.7687C12.3524 34.8021 12.4918 34.8083 12.6283 34.787C13.2116 34.6875 13.6125 34.0986 13.5232 33.4752C13.5035 33.3242 13.4535 33.1787 13.3763 33.0474C13.2991 32.9161 13.1962 32.8017 13.0739 32.711C12.9644 32.6282 12.8392 32.5687 12.706 32.536C12.5727 32.5033 12.4341 32.4982 12.2988 32.5211C11.7105 32.6148 11.3071 33.2005 11.4001 33.8258C11.4428 34.1381 11.6022 34.4109 11.8476 34.5926ZM18.7071 12.4957C18.9432 12.6712 19.212 12.7976 19.4977 12.8677C19.7834 12.9377 20.0802 12.95 20.3707 12.9036C21.625 12.6946 22.4881 11.4313 22.2936 10.0864C22.198 9.41588 21.843 8.81164 21.3184 8.42793C21.0839 8.25287 20.8163 8.12719 20.5318 8.0585C20.2472 7.98981 19.9518 7.97954 19.6632 8.02829C18.4082 8.23608 17.5439 9.4981 17.7363 10.8392C17.8326 11.5186 18.1768 12.1063 18.7071 12.4957ZM15.4118 39.9122C15.4458 39.9119 15.4797 39.9089 15.5132 39.9033C15.8771 39.844 16.1263 39.4832 16.0696 39.0989C16.0566 39.0047 16.025 38.914 15.9767 38.8322C15.9283 38.7503 15.8641 38.6789 15.7879 38.6221C15.7206 38.5722 15.6439 38.5363 15.5624 38.5167C15.4809 38.4971 15.3963 38.4941 15.3136 38.508C14.951 38.5654 14.7005 38.9261 14.7559 39.3118C14.7846 39.5062 14.8834 39.6744 15.0338 39.7866C15.146 39.8688 15.278 39.9122 15.4118 39.9122ZM10.5141 28.438C10.6664 28.5511 10.8398 28.6324 11.024 28.6772C11.2083 28.722 11.3997 28.7293 11.5869 28.6987C12.3944 28.5629 12.9509 27.7509 12.8278 26.8885C12.7995 26.6782 12.7293 26.4756 12.6215 26.2928C12.5137 26.11 12.3704 25.9506 12.2 25.8241C12.0481 25.7109 11.8751 25.6294 11.6912 25.5842C11.5073 25.539 11.3162 25.531 11.1292 25.5608C10.3217 25.696 9.76777 26.5086 9.89269 27.371C9.91903 27.5815 9.98766 27.7846 10.0944 27.968C10.2012 28.1513 10.344 28.3112 10.5141 28.438ZM10.8124 24.3511C10.9853 24.479 11.182 24.5709 11.391 24.6215C11.6 24.6721 11.817 24.6803 12.0292 24.6455C12.9534 24.4945 13.587 23.5709 13.4417 22.5868C13.4077 22.3462 13.3265 22.1147 13.2027 21.9056C13.0788 21.6966 12.9148 21.5141 12.7201 21.3687C12.5481 21.2414 12.3523 21.15 12.1442 21.1C11.9362 21.0499 11.7202 21.0423 11.5091 21.0775C10.5919 21.2304 9.96026 22.1546 10.0992 23.1362C10.1303 23.3763 10.2095 23.6076 10.332 23.8163C10.4546 24.0251 10.618 24.2069 10.8124 24.3511ZM12.0655 20.2973C12.2587 20.4398 12.4785 20.5422 12.7119 20.5982C12.9453 20.6543 13.1876 20.6629 13.4244 20.6236C14.4551 20.4528 15.1671 19.4177 15.009 18.3138C14.928 17.7631 14.6348 17.2653 14.2033 16.9504C14.0102 16.8072 13.7903 16.7043 13.5566 16.6478C13.323 16.5913 13.0803 16.5823 12.8431 16.6215C11.8087 16.7885 11.0993 17.8236 11.2612 18.9308C11.3408 19.484 11.6334 19.9824 12.0655 20.2973ZM15.4928 42.6529C15.2841 42.6017 15.0672 42.5933 14.8552 42.6284C14.6432 42.6634 14.4405 42.7412 14.2594 42.8569C14.0566 42.9872 13.882 43.1567 13.7457 43.3555C13.6094 43.5542 13.5143 43.7783 13.4659 44.0144C13.2606 44.9807 13.8317 45.952 14.7394 46.1777C14.9482 46.2279 15.1651 46.2356 15.377 46.2002C15.5889 46.1648 15.7915 46.0872 15.9727 45.9718C16.1754 45.8424 16.3498 45.6733 16.4855 45.4747C16.6211 45.2761 16.7151 45.0521 16.7618 44.8162C16.9708 43.8455 16.4017 42.8741 15.4928 42.6529ZM18.9977 44.8557C18.8148 44.8104 18.6247 44.8026 18.4387 44.8327C18.2527 44.8628 18.0747 44.9303 17.9155 45.031C17.7373 45.1449 17.5838 45.2933 17.464 45.4675C17.3441 45.6417 17.2603 45.838 17.2175 46.0451C17.0352 46.9011 17.5349 47.7546 18.3317 47.947C18.4426 47.9751 18.5554 47.9891 18.6676 47.9891C18.9257 47.9891 19.18 47.9165 19.4076 47.7749C19.5871 47.6598 19.7419 47.51 19.863 47.3344C19.984 47.1587 20.0688 46.9607 20.1125 46.7519C20.2935 45.9004 19.7932 45.0501 18.9977 44.8557ZM22.1343 46.0457C21.9753 46.0059 21.8099 45.9989 21.6481 46.0252C21.4864 46.0515 21.3317 46.1105 21.1935 46.1987C20.8876 46.3905 20.6766 46.6997 20.6001 47.07C20.4408 47.8055 20.8723 48.5398 21.5587 48.7055C21.7167 48.7455 21.8811 48.7528 22.0419 48.7272C22.2028 48.7016 22.3567 48.6434 22.4944 48.5564C22.7978 48.3664 23.0184 48.0465 23.0968 47.6774C23.2523 46.9464 22.8201 46.214 22.1343 46.0457ZM12.3657 39.5183C12.1318 39.4606 11.8887 39.451 11.6509 39.49C11.4132 39.529 11.1858 39.6158 10.9826 39.7452C10.5269 40.0307 10.2114 40.4903 10.0935 41.0403C9.86083 42.1277 10.5001 43.217 11.5187 43.4681C11.7526 43.5246 11.9955 43.5335 12.233 43.4944C12.4704 43.4553 12.6976 43.369 12.9011 43.2406C13.1281 43.0943 13.3236 42.9042 13.4761 42.6813C13.6285 42.4585 13.7349 42.2074 13.789 41.9429C14.0249 40.8549 13.3862 39.7669 12.3657 39.5183ZM11.2261 37.7693C11.4842 36.5614 10.7742 35.353 9.64603 35.0789C9.38784 35.0143 9.1192 35.0031 8.85651 35.0458C8.59383 35.0885 8.34262 35.1844 8.11822 35.3275C7.61851 35.6391 7.25775 36.1644 7.12772 36.768C6.87085 37.9771 7.57835 39.1824 8.70333 39.4564C8.9631 39.5205 9.23315 39.5312 9.49717 39.4879C9.7612 39.4447 10.0137 39.3483 10.2394 39.2047C10.7455 38.8892 11.0948 38.378 11.2261 37.7693ZM9.15524 32.4446C9.43951 31.1214 8.66318 29.7962 7.4241 29.4909C7.13959 29.4202 6.84365 29.4083 6.55434 29.4557C6.26504 29.5032 5.98844 29.609 5.74141 29.7669C5.18688 30.1156 4.80127 30.6765 4.65786 31.3483C4.37549 32.6728 5.15374 33.996 6.39282 34.2981C6.56491 34.3408 6.74019 34.3618 6.91292 34.3618C7.31766 34.3618 7.71603 34.2471 8.07169 34.024C8.6192 33.6817 9.01438 33.1062 9.15524 32.4446ZM40.8887 28.9524L40.9174 28.9517C41.033 28.9478 41.1465 28.9201 41.2509 28.8703C41.3553 28.8205 41.4484 28.7497 41.5242 28.6623C41.6843 28.4782 41.7689 28.2403 41.7609 27.9964C41.7528 27.7524 41.6528 27.5206 41.4808 27.3474C41.3987 27.2652 41.3008 27.2003 41.1931 27.1567C41.0853 27.1131 40.9699 27.0917 40.8536 27.0937C40.7363 27.0973 40.621 27.1252 40.515 27.1757C40.409 27.2262 40.3147 27.2981 40.2379 27.3869C40.0793 27.571 39.995 27.8081 40.0031 28.0509C40.0111 28.2938 40.1102 28.5248 40.2806 28.698C40.4464 28.8638 40.6612 28.9524 40.8887 28.9524ZM38.1715 23.3638C38.0577 23.2507 37.9223 23.1617 37.7734 23.1021C37.6245 23.0424 37.4651 23.0132 37.3047 23.0164C37.144 23.0226 36.9863 23.0619 36.8415 23.1318C36.6968 23.2018 36.568 23.301 36.4633 23.423C36.0102 23.9349 36.0369 24.745 36.5239 25.2294C36.7489 25.4563 37.0414 25.5799 37.3499 25.5799H37.3882C37.5489 25.5739 37.7066 25.5347 37.8514 25.4647C37.9962 25.3947 38.125 25.2955 38.2295 25.1733C38.6834 24.6608 38.6572 23.8488 38.1722 23.3638H38.1715ZM39.4221 27.2308C39.7 27.2206 39.9556 27.0969 40.1417 26.8815C40.5375 26.4372 40.5158 25.7387 40.0939 25.3244C39.9973 25.2244 39.8811 25.1456 39.7525 25.0929C39.6239 25.0403 39.4858 25.0149 39.3469 25.0184C39.2076 25.0231 39.0708 25.0567 38.9453 25.1172C38.8197 25.1776 38.7082 25.2636 38.6177 25.3696C38.2257 25.8139 38.2474 26.5131 38.6649 26.928C38.8625 27.1243 39.1168 27.2314 39.3845 27.2314L39.4221 27.2308ZM42.5204 32.7588H42.5421C42.6146 32.7558 42.6856 32.7377 42.7507 32.7057C42.8158 32.6736 42.8735 32.6283 42.92 32.5727C43.0195 32.4592 43.0723 32.3123 43.0679 32.1614C43.0636 32.0106 43.0023 31.867 42.8965 31.7594C42.8479 31.7085 42.7896 31.668 42.7249 31.6403C42.6603 31.6126 42.5907 31.5982 42.5204 31.5981H42.5128C42.4377 31.6 42.3638 31.6172 42.2957 31.6487C42.2275 31.6801 42.1665 31.7252 42.1163 31.7811L42.115 31.7823C41.9111 32.0201 41.9238 32.3808 42.145 32.6027C42.2448 32.7023 42.3794 32.7585 42.5204 32.7588ZM42.1342 31.0156L42.1596 31.0149C42.3509 31.0079 42.5261 30.9231 42.6549 30.7759C42.9194 30.4738 42.9035 29.9983 42.6192 29.7147C42.5555 29.6489 42.4792 29.5966 42.3949 29.5608C42.3106 29.525 42.22 29.5065 42.1284 29.5062H42.1074C41.9162 29.5126 41.739 29.5961 41.6089 29.744C41.4783 29.8929 41.409 30.0858 41.4153 30.2838C41.4216 30.4818 41.5029 30.67 41.6427 30.8103C41.7766 30.9429 41.9512 31.0156 42.1342 31.0156ZM22.2433 25.2428C22.5939 25.5914 23.0464 25.7814 23.5232 25.7814L23.5844 25.7801C23.8322 25.7709 24.0754 25.7106 24.2989 25.6032C24.5224 25.4957 24.7214 25.3433 24.8833 25.1555C25.5819 24.3613 25.543 23.105 24.7954 22.3541C24.4289 21.9883 23.9591 21.7926 23.4518 21.8117C23.2037 21.8204 22.96 21.8804 22.7362 21.9879C22.5124 22.0954 22.3134 22.2481 22.1515 22.4364C21.4536 23.2376 21.495 24.4958 22.2433 25.2428ZM35.4588 21.5976C35.3315 21.4662 35.178 21.3631 35.0082 21.295C34.8384 21.2269 34.6562 21.1954 34.4734 21.2024C34.2908 21.2086 34.1115 21.2526 33.9467 21.3316C33.7819 21.4106 33.6353 21.5229 33.5161 21.6613C33.0023 22.2477 33.0323 23.1687 33.5836 23.7156C33.8405 23.9757 34.1745 24.1172 34.527 24.1172C34.5397 24.1172 34.5537 24.1172 34.5665 24.1159C34.7491 24.11 34.9284 24.0662 35.0932 23.9872C35.2579 23.9081 35.4043 23.7957 35.5232 23.657C36.0395 23.0744 36.0114 22.1502 35.4588 21.5976ZM31.2878 23.3344L31.3305 23.3338C31.5359 23.327 31.7376 23.2779 31.9232 23.1897C32.1087 23.1014 32.2741 22.9758 32.4089 22.8207C32.9845 22.1655 32.9501 21.1323 32.3325 20.5172C32.0303 20.2176 31.6409 20.0538 31.226 20.0723C31.0227 20.0793 30.823 20.1284 30.6396 20.2164C30.4562 20.3043 30.293 20.4293 30.1602 20.5835C29.5809 21.2394 29.6134 22.2726 30.2323 22.8876C30.3697 23.0285 30.5338 23.1406 30.7151 23.2173C30.8963 23.294 31.091 23.3338 31.2878 23.3344ZM27.4271 23.4256L27.48 23.425C27.7066 23.417 27.9291 23.3622 28.1334 23.2639C28.3376 23.1656 28.5193 23.026 28.6669 22.8539C29.3061 22.1241 29.2692 20.9774 28.5834 20.2999C28.4306 20.1446 28.2486 20.0212 28.0478 19.9367C27.8471 19.8523 27.6316 19.8084 27.4138 19.8078L27.3602 19.8084C27.1345 19.8162 26.9127 19.8705 26.709 19.9682C26.5053 20.0658 26.324 20.2046 26.1766 20.3757C25.5392 21.1004 25.5749 22.2458 26.2563 22.9303C26.4088 23.0864 26.5909 23.2106 26.792 23.2956C26.993 23.3806 27.2089 23.4248 27.4271 23.4256ZM36.1555 20.8193C36.3934 20.8217 36.6294 20.7766 36.8497 20.6868C37.07 20.5969 37.2701 20.4641 37.4385 20.296C37.8201 19.9136 38.0348 19.3957 38.0358 18.8555C38.039 17.7637 37.2046 16.8644 36.1746 16.8529H36.1593C35.6876 16.8529 35.2383 17.039 34.8928 17.3806C34.7033 17.5694 34.5532 17.7939 34.4514 18.0412C34.3495 18.2886 34.2978 18.5537 34.2994 18.8211C34.2956 19.9142 35.128 20.8104 36.1555 20.8193ZM42.9978 41.5407L43.0086 41.5413C43.144 41.5408 43.2739 41.4875 43.3707 41.3928C43.4841 41.2805 43.5485 41.1279 43.5498 40.9683C43.5498 40.6515 43.305 40.3902 43.0048 40.3864C42.7033 40.3826 42.4567 40.6292 42.4477 40.9562V40.96C42.4528 41.28 42.7001 41.5407 42.9978 41.5407ZM45.6047 36.2262C45.6047 35.7061 45.2197 35.2931 44.7296 35.2886L44.7162 35.288C44.4995 35.288 44.2898 35.3746 44.1285 35.534C43.9513 35.7093 43.8481 35.9566 43.8481 36.2122C43.8468 36.7221 44.2375 37.1427 44.72 37.1504H44.727C44.9501 37.1504 45.1624 37.0624 45.3262 36.9005C45.5046 36.7253 45.6028 36.4856 45.6047 36.2262ZM42.7084 27.6005C42.7084 28.4055 43.321 29.0645 44.075 29.0715H44.0807C44.8341 29.0715 45.4492 28.424 45.4537 27.6247C45.4549 26.8209 44.8418 26.1638 44.0858 26.16L44.0712 26.1593C43.8986 26.1597 43.7279 26.194 43.5686 26.2604C43.4094 26.3268 43.2648 26.4239 43.1431 26.5462C42.8643 26.8262 42.708 27.2053 42.7084 27.6005ZM46.0522 33.7703C46.0534 33.1629 45.5894 32.6619 45.0164 32.6549L45.003 32.6543C44.7417 32.6543 44.4918 32.7575 44.3006 32.9462C44.0875 33.1601 43.9678 33.4499 43.9679 33.7519C43.9628 34.358 44.4268 34.8596 45.0043 34.8679H45.0075C45.2758 34.8679 45.5308 34.7608 45.7265 34.5664C45.9368 34.3574 46.0522 34.0744 46.0522 33.7703ZM40.9951 24.4174C40.99 25.3186 41.6752 26.0593 42.523 26.0682H42.5344C42.9417 26.0682 43.3248 25.9025 43.6135 25.5984C43.9064 25.2882 44.0695 24.8777 44.0692 24.4511C44.0731 23.5512 43.3872 22.8105 42.5395 22.8003L42.5223 22.799C42.1331 22.8009 41.7605 22.9567 41.4859 23.2325C41.172 23.5472 40.9955 23.9728 40.9951 24.4174ZM39.9543 19.5414C39.5221 19.5414 39.111 19.7135 38.7949 20.0258C38.6228 20.1976 38.4865 20.402 38.3941 20.627C38.3016 20.8519 38.2548 21.093 38.2563 21.3362C38.2512 22.3318 39.0084 23.1509 39.9428 23.1611C40.1609 23.1636 40.3772 23.1226 40.5793 23.0405C40.7813 22.9584 40.9649 22.8369 41.1194 22.683C41.2923 22.5108 41.429 22.3058 41.5215 22.0799C41.614 21.8541 41.6604 21.6121 41.658 21.3681C41.6618 20.377 40.9034 19.5579 39.9651 19.542H39.9543V19.5414ZM44.8743 29.6535C44.5709 29.6535 44.2815 29.7727 44.0584 29.9926C43.8149 30.2309 43.6734 30.5726 43.6709 30.9251V30.9263C43.6709 31.6338 44.212 32.2107 44.8755 32.2132H44.8908C45.193 32.2132 45.4823 32.094 45.7048 31.8741C45.947 31.6357 46.0872 31.2973 46.0885 30.9467C46.0904 30.2386 45.5512 29.6579 44.887 29.6528L44.8743 29.6535ZM44.0304 39.466C44.4255 39.466 44.7481 39.1295 44.7481 38.7171C44.7538 38.3009 44.437 37.9586 44.0412 37.9522H44.0329C43.6435 37.9522 43.3241 38.2862 43.319 38.7011C43.319 39.1167 43.6371 39.4584 44.0285 39.466H44.0304ZM37.1772 48.063C37.1369 47.9468 37.0732 47.84 36.99 47.7494C36.9067 47.6587 36.8058 47.586 36.6934 47.5359C36.5896 47.4902 36.4776 47.4661 36.3642 47.465C36.2508 47.4639 36.1384 47.4859 36.0337 47.5296C35.5825 47.7157 35.3632 48.2523 35.543 48.7291C35.6296 48.9675 35.7998 49.1549 36.0242 49.2543C36.1269 49.3008 36.2381 49.3257 36.3508 49.3273C36.4635 49.329 36.5754 49.3074 36.6794 49.2639C37.1281 49.0765 37.3519 48.5373 37.1772 48.063ZM46.3957 40.41C46.2164 40.3301 46.0227 40.2876 45.8264 40.2851C45.6302 40.2826 45.4354 40.3201 45.2542 40.3953C44.4644 40.7223 44.075 41.6688 44.3835 42.5051C44.4537 42.7076 44.5646 42.8936 44.7092 43.0517C44.8539 43.2099 45.0294 43.3368 45.2248 43.4248C45.4053 43.5056 45.6002 43.5489 45.7979 43.552C45.9956 43.555 46.1918 43.5178 46.3747 43.4426L46.3753 43.442C47.1631 43.1118 47.5526 42.1653 47.2441 41.3316C47.1731 41.1283 47.0612 40.9417 46.9154 40.7832C46.7697 40.6247 46.5924 40.4977 46.3957 40.41ZM33.2656 48.8929C33.3382 49.0873 33.4848 49.2448 33.6671 49.3238C33.7502 49.3591 33.8396 49.3773 33.9299 49.3771C34.0201 49.3768 34.1094 49.3583 34.1923 49.3225C34.5556 49.1695 34.7354 48.7323 34.5939 48.3492C34.5604 48.2551 34.5082 48.1687 34.4404 48.0953C34.3725 48.0219 34.2906 47.963 34.1994 47.9222C34.1162 47.8848 34.0263 47.865 33.9351 47.864C33.844 47.863 33.7536 47.8809 33.6697 47.9165C33.3051 48.065 33.1241 48.5028 33.2656 48.8916V48.8929ZM41.4821 45.4364C41.3408 45.3735 41.1881 45.3399 41.0334 45.3377C40.8787 45.3355 40.7252 45.3647 40.5821 45.4236C39.9639 45.6741 39.656 46.4173 39.8969 47.0796C40.0193 47.4097 40.2571 47.6666 40.5662 47.803C40.7077 47.8649 40.8602 47.8977 41.0147 47.8997C41.1692 47.9017 41.3225 47.8727 41.4655 47.8145C42.0806 47.5608 42.3878 46.8189 42.1488 46.1598C42.0926 46.0003 42.0045 45.8539 41.8899 45.7295C41.7753 45.6051 41.6365 45.5054 41.4821 45.4364ZM44.1406 43.2693C43.9799 43.1973 43.8062 43.1588 43.6301 43.1562C43.454 43.1535 43.2792 43.1868 43.1164 43.254C42.4165 43.5478 42.0679 44.393 42.3407 45.1387C42.4777 45.5148 42.746 45.8061 43.0966 45.9597C43.2578 46.0314 43.4318 46.0696 43.6082 46.0721C43.7846 46.0747 43.9596 46.0414 44.1228 45.9743C44.8239 45.685 45.1726 44.8398 44.8972 44.0896C44.8333 43.9087 44.7332 43.7428 44.6032 43.6017C44.4731 43.4607 44.3157 43.3476 44.1406 43.2693ZM39.0001 46.7558C38.8786 46.7012 38.7472 46.672 38.614 46.6702C38.4809 46.6683 38.3487 46.6938 38.2257 46.7449C37.6922 46.9661 37.4258 47.6067 37.6329 48.1752V48.1765C37.7387 48.4621 37.9453 48.6839 38.2117 48.8011C38.334 48.8549 38.4659 48.8835 38.5995 48.8852C38.733 48.887 38.8656 48.8619 38.9893 48.8113C39.5221 48.5883 39.7854 47.947 39.5757 47.381C39.5271 47.2434 39.451 47.117 39.3521 47.0096C39.2531 46.9022 39.1334 46.8154 39.0001 46.7558ZM48.1829 36.571C47.9841 36.4823 47.7692 36.435 47.5514 36.4322C47.3336 36.4293 47.1176 36.4709 46.9164 36.5544C46.0464 36.9171 45.6149 37.9662 45.9546 38.8924C46.1255 39.3608 46.4582 39.7235 46.8948 39.9154C47.094 40.0038 47.3092 40.0507 47.5271 40.0532C47.7451 40.0557 47.9613 40.0138 48.1625 39.93C49.0313 39.5699 49.4647 38.5227 49.1269 37.5946C48.9548 37.1255 48.6195 36.7622 48.1829 36.571ZM31.3675 48.9535C31.434 48.9827 31.5058 48.9979 31.5784 48.9981C31.6474 48.9977 31.7156 48.9838 31.7792 48.9573C32.0584 48.8407 32.1961 48.5048 32.0851 48.2096C32.0606 48.1376 32.0215 48.0714 31.9701 48.0153C31.9188 47.9591 31.8564 47.9142 31.7869 47.8833C31.7222 47.8542 31.6523 47.8387 31.5814 47.838C31.5106 47.8372 31.4403 47.8511 31.3751 47.8788C31.094 47.9936 30.9583 48.3218 31.0672 48.6259C31.1201 48.7725 31.2298 48.8923 31.3675 48.9535ZM49.6406 31.9608C49.4224 31.8634 49.1866 31.8116 48.9476 31.8088C48.7086 31.8059 48.4716 31.852 48.2511 31.9442C47.2931 32.3362 46.8202 33.4867 47.1969 34.5078C47.383 35.0196 47.7489 35.4173 48.2256 35.6277C48.4551 35.7277 48.6973 35.7787 48.9395 35.7787C49.1677 35.7787 49.3965 35.7335 49.6151 35.6436C50.5718 35.2484 51.0467 34.0992 50.6719 33.0813C50.4845 32.5695 50.1187 32.1718 49.6406 31.9608ZM32.5473 51.0983C32.4049 51.022 32.2481 50.9765 32.087 50.9648C31.9259 50.953 31.7641 50.9753 31.6122 51.0301C30.9538 51.2519 30.5694 51.9963 30.7543 52.6885C30.8473 53.0327 31.0641 53.31 31.3643 53.4687C31.5338 53.5579 31.718 53.6026 31.9054 53.6026C32.0373 53.6026 32.1699 53.5809 32.3006 53.5356C32.9603 53.3119 33.3427 52.5681 33.1547 51.8791C33.1132 51.7138 33.0378 51.5589 32.9333 51.4244C32.8287 51.2898 32.6972 51.1786 32.5473 51.0976V51.0983ZM35.2319 52.6121C35.0744 52.5276 34.9011 52.4767 34.7229 52.4627C34.5447 52.4487 34.3656 52.4717 34.1968 52.5305C33.4689 52.7854 33.0438 53.6083 33.2496 54.3687C33.3516 54.7511 33.5906 55.0577 33.9215 55.233C34.1082 55.3331 34.3122 55.3834 34.5206 55.3834C34.6653 55.3834 34.8125 55.3586 34.9566 55.3088C35.6851 55.0603 36.1102 54.2355 35.9037 53.4693C35.857 53.2878 35.7732 53.1179 35.6576 52.9704C35.5419 52.8228 35.397 52.7008 35.2319 52.6121ZM27.4698 44.6205C27.5667 44.6722 27.6725 44.6983 27.7809 44.6983C27.8574 44.6983 27.9345 44.6849 28.0103 44.6588C28.3909 44.5288 28.612 44.1004 28.503 43.7059C28.4785 43.611 28.4348 43.5221 28.3745 43.4448C28.3142 43.3675 28.2386 43.3034 28.1525 43.2565C28.0701 43.2122 27.9793 43.1856 27.886 43.1783C27.7927 43.1711 27.699 43.1834 27.6107 43.2145C27.2296 43.3464 27.0135 43.7658 27.1186 44.1718C27.1722 44.3707 27.2978 44.53 27.4698 44.6205ZM28.1021 41.308C28.0345 41.2721 27.9601 41.2506 27.8837 41.245C27.8074 41.2394 27.7307 41.2498 27.6585 41.2755C27.3481 41.3813 27.1696 41.7306 27.2601 42.0538C27.2783 42.1295 27.3121 42.2006 27.3593 42.2625C27.4066 42.3244 27.4662 42.3758 27.5344 42.4133C27.6026 42.4509 27.6779 42.4738 27.7555 42.4806C27.833 42.4874 27.9112 42.4779 27.9849 42.4528H27.9861C28.2946 42.3444 28.4744 41.9951 28.387 41.6739C28.3674 41.5966 28.3319 41.5243 28.2829 41.4614C28.2339 41.3985 28.1723 41.3459 28.1021 41.308ZM28.9263 45.6078C28.898 45.4962 28.847 45.3916 28.7765 45.3006C28.706 45.2096 28.6174 45.1341 28.5164 45.0788C28.418 45.0253 28.3096 44.9929 28.198 44.9837C28.0864 44.9745 27.974 44.9887 27.8682 45.0253C27.4201 45.1814 27.1601 45.6901 27.2882 46.1579C27.3162 46.2701 27.3675 46.3752 27.4386 46.4665C27.5098 46.5577 27.5992 46.633 27.7012 46.6876C27.7988 46.7397 27.9061 46.771 28.0164 46.7792C28.1268 46.7874 28.2376 46.7725 28.3418 46.7354C28.788 46.5805 29.0506 46.0757 28.9263 45.6078ZM39.4705 54.3081C39.4187 54.108 39.3259 53.9207 39.1981 53.7581C39.0703 53.5956 38.9102 53.4612 38.728 53.3635C38.5557 53.2723 38.3664 53.2177 38.1721 53.2033C37.9777 53.1888 37.7824 53.2147 37.5985 53.2794C36.8005 53.5522 36.3365 54.456 36.5628 55.2942C36.673 55.7104 36.9344 56.0463 37.2977 56.2388C37.4993 56.3462 37.7244 56.4023 37.9529 56.402C38.1123 56.402 38.2735 56.3752 38.4316 56.321C39.2315 56.0501 39.6981 55.1469 39.4705 54.3081ZM29.7415 47.6736C29.7087 47.5432 29.6491 47.421 29.5665 47.3148C29.4838 47.2087 29.38 47.121 29.2615 47.0573C29.149 46.9971 29.0252 46.9612 28.898 46.9517C28.7707 46.9423 28.643 46.9596 28.5228 47.0024C28.0065 47.1796 27.7019 47.7647 27.844 48.3091C27.9179 48.58 28.09 48.7986 28.3284 48.9242C28.4407 48.9836 28.564 49.0193 28.6907 49.0288C28.8174 49.0384 28.9447 49.0216 29.0646 48.9796C29.5815 48.8043 29.8855 48.2179 29.7415 47.6736ZM31.1724 49.9274C31.1342 49.7794 31.0656 49.641 30.9712 49.5209C30.8767 49.4008 30.7584 49.3015 30.6236 49.2295C30.4967 49.1626 30.3572 49.1229 30.2141 49.1131C30.071 49.1032 29.9274 49.1233 29.7925 49.1721C29.2023 49.3703 28.86 50.0345 29.0289 50.6508C29.1092 50.9593 29.3004 51.2073 29.5675 51.3507C29.6955 51.4191 29.8363 51.4602 29.981 51.4714C30.1257 51.4826 30.2712 51.4636 30.4082 51.4157C30.9971 51.2111 31.3407 50.5437 31.1724 49.9274ZM28.5878 39.7273C28.5733 39.6683 28.5466 39.6128 28.5096 39.5646C28.4725 39.5163 28.4259 39.4762 28.3726 39.4469C28.3193 39.4176 28.2605 39.3996 28.1999 39.3941C28.1393 39.3886 28.0782 39.3957 28.0205 39.415C27.7822 39.4966 27.6464 39.7611 27.7114 40.0186C27.7277 40.078 27.7558 40.1335 27.7942 40.1817C27.8325 40.2299 27.8803 40.2699 27.9345 40.2991C27.9864 40.3273 28.0435 40.3443 28.1024 40.3492C28.1612 40.354 28.2204 40.3465 28.2761 40.3271L28.2787 40.3265C28.395 40.2823 28.4909 40.1967 28.5479 40.0861C28.605 39.9755 28.6192 39.8477 28.5878 39.7273ZM25.6087 40.6324C25.4888 40.5593 25.3552 40.5113 25.2162 40.4913C25.0771 40.4714 24.9355 40.4799 24.7998 40.5164C24.6469 40.558 24.5038 40.6298 24.379 40.7276C24.2542 40.8253 24.1502 40.9471 24.0732 41.0856C23.752 41.6618 23.9158 42.3687 24.4467 42.695C24.5676 42.768 24.702 42.8155 24.8418 42.8348C24.9817 42.8541 25.124 42.8447 25.26 42.8072C25.4122 42.7655 25.5543 42.6935 25.6778 42.5955C25.8014 42.4974 25.9038 42.3754 25.979 42.2367C26.2977 41.6714 26.132 40.9505 25.6087 40.6324ZM26.6062 48.4404C27.0033 47.7373 26.798 46.8469 26.1485 46.4562C25.9996 46.3653 25.8338 46.3056 25.6612 46.2807C25.4885 46.2557 25.3126 46.266 25.144 46.3109C24.9555 46.3623 24.7791 46.4511 24.6254 46.5718C24.4717 46.6926 24.3438 46.8429 24.2491 47.0139C23.854 47.7208 24.0618 48.6125 24.7119 49.0013C24.9152 49.1262 25.144 49.1899 25.3786 49.1899C25.4895 49.1899 25.6029 49.1759 25.7139 49.1466C25.9023 49.0946 26.0783 49.0053 26.2316 48.8839C26.3849 48.7626 26.5123 48.6118 26.6062 48.4404ZM26.6068 39.5208C26.8886 39.0116 26.7445 38.3914 26.2799 38.1058C26.173 38.0408 26.0541 37.9982 25.9302 37.9807C25.8064 37.9631 25.6803 37.971 25.5596 38.0038C25.2925 38.0752 25.0688 38.2537 24.9286 38.5055C24.643 39.0045 24.789 39.6375 25.2537 39.9173C25.3602 39.9822 25.4788 40.0248 25.6023 40.0424C25.7258 40.0601 25.8516 40.0524 25.972 40.0199C26.2352 39.9517 26.4666 39.7688 26.6068 39.5208ZM24.812 45.8399C24.9107 45.8399 25.0108 45.8265 25.1103 45.8016C25.2814 45.7553 25.4414 45.6751 25.581 45.5659C25.7206 45.4566 25.8369 45.3205 25.9229 45.1655L25.9235 45.1649C26.2799 44.53 26.0925 43.7244 25.5067 43.3674C25.3718 43.2867 25.2221 43.2339 25.0664 43.2121C24.9107 43.1903 24.7522 43.2 24.6003 43.2406C24.2632 43.3286 23.9674 43.5593 23.787 43.8761C23.4365 44.5147 23.6251 45.3197 24.2064 45.6678C24.3913 45.7812 24.5997 45.8399 24.812 45.8399ZM27.8478 49.6387C27.6829 49.5394 27.4997 49.4746 27.309 49.4482C27.1184 49.4218 26.9244 49.4343 26.7388 49.4851C26.3277 49.5934 25.9828 49.8675 25.7655 50.2544C25.3333 51.0237 25.5577 52.0008 26.2658 52.4323C26.4295 52.5321 26.6118 52.5975 26.8016 52.6247C26.9913 52.6519 27.1847 52.6402 27.3698 52.5904C27.7815 52.4827 28.1283 52.208 28.3482 51.8172C28.7784 51.0505 28.554 50.074 27.8478 49.6387ZM30.7231 33.1782C30.7726 33.2088 30.828 33.229 30.8856 33.2374C30.9433 33.2459 31.002 33.2424 31.0583 33.2273C31.1206 33.2112 31.1788 33.1825 31.2296 33.143C31.2803 33.1036 31.3225 33.0542 31.3534 32.9978L31.3547 32.9959C31.4784 32.7645 31.4082 32.4726 31.1992 32.3445C31.1481 32.3143 31.0915 32.2947 31.0327 32.2868C30.9739 32.279 30.9141 32.283 30.8569 32.2986C30.7965 32.3158 30.7401 32.345 30.6911 32.3844C30.6422 32.4238 30.6017 32.4727 30.572 32.5281C30.4407 32.7594 30.5083 33.0514 30.7231 33.1782ZM28.301 34.7207C28.2245 34.6728 28.139 34.641 28.0498 34.6272C27.9606 34.6134 27.8696 34.6179 27.7822 34.6404C27.6836 34.6671 27.5913 34.7132 27.5107 34.776C27.4302 34.8388 27.363 34.9171 27.313 35.0062C27.1091 35.3727 27.2155 35.8361 27.5502 36.0413C27.6288 36.0888 27.7162 36.1198 27.8071 36.1325C27.898 36.1452 27.9906 36.1393 28.0792 36.1153C28.2749 36.063 28.4406 35.9336 28.5445 35.7494C28.7504 35.3848 28.6414 34.9234 28.301 34.7207ZM29.3501 34.539C29.3974 34.5387 29.4444 34.5329 29.4904 34.5218C29.571 34.4998 29.6466 34.462 29.7125 34.4105C29.7785 34.3591 29.8336 34.2951 29.8747 34.2222C30.0398 33.922 29.9499 33.5447 29.6758 33.3809C29.612 33.3424 29.5411 33.3172 29.4673 33.3066C29.3934 33.2961 29.3183 33.3006 29.2462 33.3197C29.1669 33.3412 29.0927 33.3784 29.028 33.4291C28.9633 33.4798 28.9094 33.5429 28.8695 33.6148C28.7 33.9182 28.7848 34.2892 29.0639 34.4587C29.15 34.5112 29.2487 34.5392 29.3495 34.5397L29.3501 34.539ZM26.9606 37.8534C27.0759 37.8218 27.1837 37.7672 27.2773 37.6928C27.371 37.6184 27.4486 37.5258 27.5055 37.4206C27.749 36.9872 27.6203 36.4391 27.22 36.1981C27.129 36.1423 27.0276 36.1056 26.922 36.0903C26.8163 36.0749 26.7087 36.0813 26.6056 36.1089C26.489 36.1405 26.3799 36.1953 26.285 36.27C26.19 36.3447 26.1111 36.4377 26.0529 36.5436C25.8088 36.9732 25.9338 37.522 26.3334 37.7699C26.427 37.8252 26.5308 37.861 26.6385 37.8753C26.7463 37.8895 26.8558 37.8825 26.9606 37.8534ZM40.25 31.4056C40.2791 31.4103 40.3085 31.4126 40.338 31.4127C40.6236 31.4127 40.8798 31.1889 40.9327 30.8773V30.8753C40.9459 30.792 40.9424 30.7069 40.9226 30.6248C40.9028 30.5428 40.8671 30.4655 40.8173 30.3973C40.7734 30.3373 40.7178 30.2868 40.654 30.2487C40.5902 30.2106 40.5194 30.1857 40.4457 30.1755C40.1289 30.1392 39.8255 30.3737 39.7752 30.7077C39.7604 30.7884 39.7619 30.8713 39.7797 30.9514C39.7974 31.0316 39.831 31.1073 39.8784 31.1743C39.969 31.3018 40.1015 31.3846 40.25 31.4056ZM26.7279 33.9418C26.7878 33.9507 26.8478 33.9552 26.907 33.9552C27.5865 33.9552 28.1984 33.4191 28.315 32.6868C28.3492 32.4928 28.3441 32.294 28.3 32.1021C28.2558 31.9101 28.1736 31.729 28.0582 31.5695C27.9557 31.4279 27.8259 31.3084 27.6765 31.2178C27.5271 31.1273 27.361 31.0676 27.1881 31.0423C26.4411 30.9378 25.7266 31.5044 25.6023 32.2961C25.5671 32.4906 25.5716 32.6902 25.6154 32.883C25.6592 33.0757 25.7415 33.2577 25.8573 33.4179C25.9598 33.5592 26.0897 33.6784 26.2393 33.7684C26.3889 33.8584 26.5551 33.9174 26.7279 33.9418ZM30.8027 30.8014C30.8322 30.6261 30.8267 30.4467 30.7866 30.2735C30.7464 30.1004 30.6724 29.9369 30.5688 29.7924C30.4763 29.6643 30.359 29.5559 30.2239 29.4738C30.0888 29.3917 29.9387 29.3375 29.7823 29.3144C29.1066 29.2143 28.4616 29.7331 28.345 30.4534C28.3144 30.6288 28.3193 30.8085 28.3595 30.9819C28.3997 31.1554 28.4743 31.319 28.5789 31.463C28.6878 31.6135 28.831 31.7359 28.9966 31.8201C29.1622 31.9043 29.3454 31.948 29.5311 31.9474C30.1449 31.9474 30.6969 31.4656 30.8027 30.8014ZM35.9713 29.3494C35.9305 29.5961 35.9879 29.8466 36.13 30.0385C36.2613 30.2169 36.4512 30.331 36.6654 30.3591C36.7049 30.3654 36.7444 30.3686 36.7827 30.3686C37.2014 30.3686 37.5756 30.0397 37.647 29.5872C37.6852 29.3405 37.6247 29.09 37.4812 28.8975C37.4186 28.8115 37.3392 28.7389 37.2479 28.6841C37.1565 28.6294 37.0551 28.5936 36.9497 28.5788C36.4844 28.5138 36.0478 28.8631 35.9713 29.3494ZM38.4711 30.7083C38.5042 30.7136 38.5377 30.7162 38.5712 30.716C38.9268 30.716 39.243 30.4406 39.2997 30.0614C39.3183 29.9614 39.3166 29.8587 39.2947 29.7594C39.2728 29.6601 39.2311 29.5662 39.1722 29.4833C39.1188 29.4082 39.0508 29.3447 38.9723 29.2965C38.8938 29.2483 38.8063 29.2164 38.7152 29.2028C38.3251 29.1461 37.9504 29.4419 37.8853 29.8542C37.868 29.9548 37.871 30.0578 37.8941 30.1572C37.9172 30.2566 37.9599 30.3504 38.0198 30.433C38.1301 30.586 38.2907 30.6828 38.4711 30.7083ZM24.165 36.7361C24.9063 36.7361 25.5743 36.151 25.7037 35.3466C25.7391 35.132 25.7317 34.9126 25.6819 34.7009C25.6321 34.4893 25.5409 34.2895 25.4136 34.1133C25.3024 33.9597 25.1612 33.8302 24.9987 33.7325C24.8362 33.6348 24.6556 33.5709 24.4678 33.5447C23.6449 33.4255 22.8641 34.0451 22.7252 34.9195C22.6891 35.1334 22.6959 35.3522 22.7451 35.5634C22.7944 35.7746 22.8851 35.9739 23.012 36.1497C23.144 36.3319 23.3175 36.4801 23.5181 36.5821C23.7187 36.684 23.94 36.7368 24.165 36.7361ZM33.2261 29.7899C33.2542 29.6346 33.2508 29.4753 33.2159 29.3215C33.1811 29.1676 33.1156 29.0223 33.0234 28.8944C32.9407 28.7792 32.8358 28.6819 32.7148 28.6081C32.5938 28.5343 32.4592 28.4855 32.3191 28.4648C31.7142 28.3723 31.1354 28.8325 31.0315 29.4795C30.9806 29.8045 31.059 30.1347 31.247 30.3884C31.3436 30.5215 31.4705 30.6298 31.6173 30.7041C31.764 30.7785 31.9264 30.8169 32.0909 30.8161C32.6403 30.8161 33.133 30.3833 33.2261 29.7899ZM35.6679 29.4317C35.6905 29.2933 35.6854 29.1518 35.653 29.0154C35.6207 28.879 35.5616 28.7503 35.4792 28.6368C35.4067 28.5366 35.3147 28.4519 35.2089 28.3879C35.103 28.3238 34.9853 28.2817 34.8629 28.264C34.3275 28.19 33.8176 28.5878 33.7283 29.1538C33.6824 29.438 33.7494 29.7287 33.9132 29.9518C33.9982 30.0696 34.1098 30.1658 34.2389 30.2324C34.368 30.2991 34.511 30.3344 34.6564 30.3355C35.1395 30.3355 35.5793 29.953 35.6679 29.4317ZM177.638 40.5202C177.441 40.5205 177.245 40.4817 177.062 40.4061C176.879 40.3306 176.713 40.2197 176.573 40.0798C176.434 39.94 176.323 39.7739 176.247 39.5911C176.172 39.4084 176.133 39.2125 176.133 39.0147C176.133 38.817 176.172 38.6211 176.247 38.4384C176.323 38.2556 176.434 38.0895 176.573 37.9497C176.713 37.8098 176.879 37.6989 177.062 37.6233C177.245 37.5478 177.441 37.509 177.638 37.5092C177.836 37.5089 178.032 37.5476 178.215 37.6232C178.398 37.6987 178.564 37.8096 178.704 37.9494C178.843 38.0893 178.954 38.2554 179.03 38.4382C179.105 38.621 179.144 38.8169 179.144 39.0147C179.144 39.2125 179.105 39.4084 179.03 39.5912C178.954 39.7739 178.843 39.94 178.703 40.0798C178.564 40.2197 178.397 40.3306 178.215 40.4062C178.032 40.4817 177.836 40.5205 177.638 40.5202ZM177.638 37.253C177.171 37.2539 176.724 37.4398 176.394 37.77C176.064 38.1003 175.878 38.5479 175.878 39.0147C175.879 39.4814 176.064 39.9287 176.394 40.2586C176.724 40.5886 177.172 40.7744 177.638 40.7752C178.105 40.7745 178.553 40.5889 178.883 40.2589C179.213 39.9289 179.399 39.4816 179.4 39.0147C179.399 38.5477 179.213 38.1 178.883 37.7698C178.553 37.4395 178.105 37.2537 177.638 37.253Z" fill="black"/>
<path fill-rule="evenodd" clip-rule="evenodd" d="M177.582 38.9058H177.255V38.2187H177.709C177.927 38.2187 178.164 38.2952 178.164 38.5553C178.164 38.8912 177.861 38.9058 177.582 38.9058ZM178.42 38.5553C178.42 38.1913 178.24 37.9925 177.781 37.9925H176.999V40.0232H177.255V39.1327H177.62L178.225 40.0232H178.515L177.908 39.1327C178.183 39.0862 178.42 38.9288 178.42 38.5553Z" fill="black"/>
</svg>
