<svg width="281" height="43" viewBox="0 0 281 43" fill="none" xmlns="http://www.w3.org/2000/svg">
<path d="M220.017 3.51245H215.247V8.28287H220.017V3.51245Z" fill="white"/>
<path d="M235.328 3.51245H226.411V8.28287H235.328V3.51245Z" fill="#1955A6"/>
<path d="M226.41 3.51245H220.013V8.28287H226.41V3.51245Z" fill="#4CC0AD"/>
<path d="M196.607 11.897L202.009 25.9109L207.416 11.897H212.64L203.356 34.572C200.696 41.0069 192.923 37.8761 192.923 37.8761L194.162 34.2952C197.792 35.2204 198.713 34.5967 199.486 31.7675L191.382 11.897H196.607ZM13.856 5.44956C19.5505 3.4542 25.8842 5.27447 29.6504 9.98879L24.9172 12.2191C23.2095 10.5721 20.9291 9.65252 18.5566 9.65424C14.421 9.6497 10.7909 12.4057 9.68402 16.3904C8.57714 20.3751 10.2657 24.6086 13.8111 26.7377C17.3565 28.8668 21.8869 28.368 24.8841 25.5185V21.9623H14.9055V17.6008H29.6504V27.7199L29.508 27.8953C25.726 32.4791 19.4793 34.2295 13.856 32.2591C8.16145 30.2638 4.34912 24.8883 4.34912 18.8543C4.34912 12.8203 8.16145 7.44492 13.856 5.44956ZM268.593 11.4468C273.524 11.4468 275.267 14.2016 276.027 15.6266L272.31 17.3778C271.516 16.0133 270.038 15.1936 268.461 15.2425C266.21 15.2425 265.615 16.5393 265.569 17.068C265.508 17.8197 265.499 18.9142 269.076 20.0335C269.247 20.0901 269.418 20.1468 269.589 20.2038L269.929 20.3184C273.436 21.5084 276.651 22.9092 276.651 26.6089C276.651 29.752 274.483 33.0562 268.96 33.0562C262.744 33.0562 261.233 29.6115 260.956 26.8154H265.128C265.607 29.087 268.093 29.2646 269.097 29.2646C270.1 29.2646 272.31 28.9218 272.31 27.0549C272.31 25.1881 268.485 24.2918 266.908 23.6888C265.33 23.0858 261.233 21.7682 261.233 17.4273C261.233 15.3085 262.629 11.4468 268.593 11.4468ZM43.0861 11.4468C49.9381 11.4468 52.1024 15.8083 52.09 19.9179V32.5812H47.3195V30.4087C45.2792 32.4325 43.4041 33.0562 40.2155 33.0562C36.0192 33.0562 32.8513 30.2228 32.8513 26.5717C32.8513 18.8481 43.8171 19.7031 47.2535 20.5994V20.5622C47.2535 18.2245 46.5265 15.7133 43.0613 15.7133C38.7534 15.7133 38.6337 18.2988 38.6337 18.2988H34.0904C34.0904 15.4903 36.234 11.4468 43.0861 11.4468ZM170.648 11.4468C177.5 11.4468 179.661 15.8083 179.644 19.9179V32.5812H174.878V30.4087C172.837 32.4325 170.962 33.0562 167.778 33.0562C163.582 33.0562 160.414 30.2228 160.414 26.5717C160.414 18.8481 171.375 19.7031 174.824 20.5994V20.5622C174.824 18.2245 174.101 15.7133 170.636 15.7133C166.328 15.7133 166.204 18.2988 166.204 18.2988H161.632C161.632 15.4903 163.78 11.4468 170.648 11.4468ZM246.75 11.8829C251.332 10.5433 256.25 12.3712 258.845 16.3783L254.963 18.8564C253.819 17.1042 251.868 16.0479 249.775 16.0478V16.0355C246.834 16.0442 244.304 18.1203 243.721 21.0037C243.139 23.8871 244.664 26.7827 247.371 27.9329C250.079 29.0831 253.222 28.1708 254.893 25.7498L258.775 28.2279C256.133 32.204 251.193 33.9734 246.627 32.5796C242.061 31.1859 238.951 26.9596 238.98 22.1856C239.008 17.4115 242.167 13.2224 246.75 11.8829ZM98.8112 11.4757C105.721 11.4757 109.971 17.766 108.988 23.9614H93C93.7021 26.6956 96.0357 28.707 98.8112 28.707C100.67 28.6957 102.415 27.8059 103.516 26.3074L107.728 28.3725C107.369 28.8516 104.482 33.0272 98.8112 33.0272C92.8471 33.0272 88.4856 28.2031 88.4856 22.2515C88.4856 16.2998 92.8595 11.4757 98.8112 11.4757ZM226.613 11.897L225.923 16.1263H220.013V26.6254C220.013 28.7194 221.392 29.0003 222.842 28.7648C223.079 28.7304 223.486 28.6496 223.901 28.5625L224.128 28.5147C224.727 28.3867 225.279 28.261 225.279 28.261L224.606 32.3912C223.514 32.7535 222.377 32.9579 221.227 32.9983C217.613 33.0562 215.247 30.8217 215.247 27.0797V11.897H226.613ZM148.428 11.4468C154.28 11.0007 157.171 15.3622 157.171 20.1905V32.5812H152.413V21.0578C152.413 17.5843 150.551 16.2668 148.63 16.0065C146.9 15.7711 142.798 16.3246 142.798 21.5865V32.5812H138.036V11.897H142.798V15.164C143.888 13.019 146.027 11.6066 148.428 11.4468ZM65.666 11.4468C67.709 11.2133 69.7278 12.0502 71.0064 13.6606C72.5417 12.2367 74.5586 11.4459 76.6525 11.4468C81.2531 11.449 84.9827 15.1768 84.9873 19.7775V32.5812H80.221V19.7775C80.2654 18.4728 79.5947 17.2479 78.4717 16.5824C77.3487 15.917 75.9521 15.917 74.8291 16.5824C73.7061 17.2479 73.0354 18.4728 73.0798 19.7775V32.5812H68.3011V21.0743C68.3011 18.6086 67.7105 16.878 65.885 16.2626C64.4063 15.767 61.16 16.3989 61.16 21.3552V32.5812H56.3937V11.897H61.1765V14.6312C62.1141 12.9213 63.6009 11.6368 65.666 11.4468ZM125.286 5.10685L135.715 32.5812H130.577L128.26 26.4808H116.918L114.597 32.5812H109.463L119.904 5.10685H125.286ZM188.528 5.10685V32.5812H183.766V5.10685H188.528ZM235.324 11.897V32.5771H230.562V11.897H235.324ZM47.2782 24.4364C43.0737 22.5406 37.7622 23.7714 37.6631 26.5221C37.597 28.294 39.3482 29.9461 42.4541 29.3513C44.6308 28.9424 46.9148 26.8402 47.2782 24.8494V24.4364ZM174.841 24.4364C170.632 22.5406 165.32 23.7714 165.221 26.5221C165.159 28.3064 166.911 29.9378 170.012 29.3513C172.189 28.9424 174.477 26.8402 174.841 24.8494V24.4364ZM122.597 11.5418L118.525 22.2515H126.67L122.597 11.5418ZM98.8195 15.7522C96.3005 15.7522 94.0599 17.3531 93.2436 19.7361H104.395C103.579 17.3531 101.338 15.7522 98.8195 15.7522Z" fill="black"/>
</svg>
