<svg width="135" height="88" viewBox="0 0 135 88" fill="none" xmlns="http://www.w3.org/2000/svg">
<path d="M66.804 83.1416C66.3691 83.1416 65.9633 83.0257 65.5864 82.8227L61.7308 80.5326C61.151 80.2137 61.4409 80.0977 61.6148 80.0397C62.3976 79.7788 62.5425 79.7208 63.3542 79.257C63.4412 79.199 63.5571 79.228 63.6441 79.286L66.6011 81.0544C66.717 81.1123 66.862 81.1123 66.9489 81.0544L78.5158 74.3578C78.6317 74.2998 78.6897 74.1838 78.6897 74.0389V60.6747C78.6897 60.5297 78.6317 60.4138 78.5158 60.3558L66.9489 53.6882C66.833 53.6302 66.688 53.6302 66.6011 53.6882L55.0342 60.3558C54.9182 60.4138 54.8603 60.5587 54.8603 60.6747V74.0389C54.8603 74.1548 54.9182 74.2998 55.0342 74.3578L58.1941 76.1841C59.9045 77.0538 60.9771 76.0392 60.9771 75.0245V61.8343C60.9771 61.6603 61.122 61.4864 61.3249 61.4864H62.8034C62.9774 61.4864 63.1513 61.6313 63.1513 61.8343V75.0245C63.1513 77.3147 61.9047 78.6482 59.7305 78.6482C59.0638 78.6482 58.5419 78.6482 57.0635 77.9235L54.0196 76.1841C53.2658 75.7493 52.802 74.9376 52.802 74.0679V60.7037C52.802 59.834 53.2658 59.0223 54.0196 58.5874L65.5864 51.8908C66.3112 51.485 67.2968 51.485 68.0215 51.8908L79.5884 58.5874C80.3421 59.0223 80.806 59.834 80.806 60.7037V74.0679C80.806 74.9376 80.3421 75.7493 79.5884 76.1841L68.0215 82.8807C67.6447 83.0546 67.2098 83.1416 66.804 83.1416ZM70.3697 73.9519C65.2965 73.9519 64.2529 71.6327 64.2529 69.6614C64.2529 69.4875 64.3978 69.3136 64.6008 69.3136H66.1082C66.2822 69.3136 66.4271 69.4295 66.4271 69.6035C66.659 71.1399 67.3258 71.8936 70.3987 71.8936C72.8338 71.8936 73.8774 71.3428 73.8774 70.0383C73.8774 69.2846 73.5876 68.7338 69.7899 68.3569C66.63 68.038 64.6588 67.3423 64.6588 64.8202C64.6588 62.472 66.63 61.0805 69.9349 61.0805C73.6455 61.0805 75.4719 62.3561 75.7038 65.1391C75.7038 65.226 75.6748 65.313 75.6168 65.4C75.5588 65.458 75.4719 65.5159 75.3849 65.5159H73.8774C73.7325 65.5159 73.5876 65.4 73.5586 65.255C73.2107 63.6606 72.312 63.1388 69.9349 63.1388C67.2678 63.1388 66.9489 64.0665 66.9489 64.7622C66.9489 65.6029 67.3258 65.8638 70.9205 66.3276C74.4862 66.7915 76.1676 67.4582 76.1676 69.9513C76.1386 72.5024 74.0514 73.9519 70.3697 73.9519Z" fill="#539E43"/>
<path d="M30.9151 30.8732C30.9151 30.3514 30.6252 29.8586 30.1614 29.5977L17.8698 22.5242C17.6669 22.4083 17.435 22.3503 17.203 22.3213H17.0871C16.8552 22.3213 16.6232 22.4083 16.4203 22.5242L4.12873 29.5977C3.6649 29.8586 3.375 30.3514 3.375 30.8732L3.40399 49.8904C3.40399 50.1513 3.54894 50.4122 3.78085 50.5282C4.01277 50.6731 4.30267 50.6731 4.50559 50.5282L11.811 46.3537C12.2748 46.0928 12.5647 45.5999 12.5647 45.0781V36.1783C12.5647 35.6565 12.8546 35.1637 13.3184 34.9028L16.4203 33.1054C16.6522 32.9605 16.9131 32.9025 17.1741 32.9025C17.435 32.9025 17.6959 32.9605 17.8988 33.1054L21.0007 34.9028C21.4645 35.1637 21.7544 35.6565 21.7544 36.1783V45.0781C21.7544 45.5999 22.0443 46.0928 22.5081 46.3537L29.8135 50.5282C30.0454 50.6731 30.3353 50.6731 30.5672 50.5282C30.7992 50.4122 30.9441 50.1513 30.9441 49.8904L30.9151 30.8732Z" fill="#333333"/>
<path d="M89.9959 4.69561C89.764 4.57965 89.4741 4.57965 89.2712 4.69561C89.0392 4.84056 88.8943 5.07248 88.8943 5.33338V24.1766C88.8943 24.3506 88.8073 24.5245 88.6334 24.6405C88.4595 24.7274 88.2855 24.7274 88.1116 24.6405L85.0387 22.8721C84.5749 22.6112 84.0241 22.6112 83.5602 22.8721L71.2686 29.9746C70.8048 30.2355 70.5149 30.7283 70.5149 31.2501V45.426C70.5149 45.9478 70.8048 46.4406 71.2686 46.7016L83.5602 53.804C84.0241 54.0649 84.5749 54.0649 85.0387 53.804L97.3303 46.7016C97.7941 46.4406 98.084 45.9478 98.084 45.426V10.0877C98.084 9.53688 97.7941 9.04405 97.3303 8.78315L89.9959 4.69561ZM88.8653 40.7587C88.8653 40.9036 88.8073 41.0196 88.6914 41.0776L84.4879 43.5127C84.3719 43.5707 84.227 43.5707 84.111 43.5127L79.9075 41.0776C79.7916 41.0196 79.7336 40.8746 79.7336 40.7587V35.8884C79.7336 35.7435 79.7916 35.6275 79.9075 35.5695L84.111 33.1344C84.227 33.0764 84.3719 33.0764 84.4879 33.1344L88.6914 35.5695C88.8073 35.6275 88.8653 35.7725 88.8653 35.8884V40.7587Z" fill="#333333"/>
<path d="M130.9 35.7724C131.364 35.5115 131.625 35.0187 131.625 34.4969V31.0471C131.625 30.5253 131.335 30.0325 130.9 29.7716L118.696 22.6981C118.232 22.4372 117.681 22.4372 117.217 22.6981L104.926 29.8006C104.462 30.0615 104.172 30.5543 104.172 31.0761V45.252C104.172 45.7738 104.462 46.2667 104.926 46.5276L117.13 53.4851C117.594 53.746 118.145 53.746 118.58 53.4851L125.972 49.3686C126.204 49.2526 126.349 48.9917 126.349 48.7308C126.349 48.4699 126.204 48.209 125.972 48.093L113.622 40.9906C113.391 40.8456 113.246 40.6137 113.246 40.3528V35.9174C113.246 35.6565 113.391 35.3956 113.622 35.2796L117.478 33.0764C117.71 32.9315 118 32.9315 118.232 33.0764L122.087 35.2796C122.319 35.4246 122.464 35.6565 122.464 35.9174V39.3961C122.464 39.657 122.609 39.9179 122.841 40.0339C123.073 40.1789 123.363 40.1789 123.595 40.0339L130.9 35.7724Z" fill="#333333"/>
<path d="M117.767 35.1057C117.854 35.0478 117.97 35.0478 118.057 35.1057L120.405 36.4683C120.492 36.5262 120.55 36.6132 120.55 36.7292V39.4542C120.55 39.5701 120.492 39.6571 120.405 39.7151L118.057 41.0776C117.97 41.1356 117.854 41.1356 117.767 41.0776L115.419 39.7151C115.332 39.6571 115.274 39.5701 115.274 39.4542V36.7292C115.274 36.6132 115.332 36.5262 115.419 36.4683L117.767 35.1057Z" fill="#539E43"/>
<mask id="mask0_0_9262" style="mask-type:alpha" maskUnits="userSpaceOnUse" x="37" y="22" width="28" height="32">
<path d="M51.4686 22.7557C51.0048 22.4948 50.454 22.4948 49.9902 22.7557L37.7855 29.8002C37.3217 30.0611 37.0608 30.5539 37.0608 31.0758V45.1937C37.0608 45.7155 37.3507 46.2083 37.7855 46.4692L49.9902 53.5137C50.454 53.7746 51.0048 53.7746 51.4686 53.5137L63.6733 46.4692C64.1371 46.2083 64.398 45.7155 64.398 45.1937V31.0758C64.398 30.5539 64.1081 30.0611 63.6733 29.8002L51.4686 22.7557Z" fill="white"/>
</mask>
<g mask="url(#mask0_0_9262)">
<path d="M51.4686 22.7557C51.0048 22.4948 50.454 22.4948 49.9902 22.7557L37.7855 29.8002C37.3217 30.0611 37.0608 30.5539 37.0608 31.0758V45.1937C37.0608 45.7155 37.3507 46.2083 37.7855 46.4692L49.9902 53.5137C50.454 53.7746 51.0048 53.7746 51.4686 53.5137L63.6733 46.4692C64.1371 46.2083 64.398 45.7155 64.398 45.1937V31.0758C64.398 30.5539 64.1081 30.0611 63.6733 29.8002L51.4686 22.7557Z" fill="url(#paint0_linear_0_9262)"/>
<path d="M63.7016 29.8L51.439 22.7555C51.323 22.6976 51.1781 22.6396 51.0621 22.6106L37.321 46.1502C37.437 46.2951 37.582 46.4111 37.7269 46.498L49.9895 53.5425C50.3374 53.7454 50.7432 53.8034 51.1201 53.6875L64.0205 30.0899C63.9335 29.974 63.8175 29.887 63.7016 29.8Z" fill="url(#paint1_linear_0_9262)"/>
<path fill-rule="evenodd" clip-rule="evenodd" d="M63.7309 46.4697C64.0787 46.2668 64.3396 45.9189 64.4556 45.5421L51.0044 22.5823C50.6565 22.5243 50.2797 22.5533 49.9608 22.7562L37.7852 29.7717L50.9174 53.7171C51.0914 53.6881 51.2943 53.6302 51.4683 53.5432L63.7309 46.4697Z" fill="url(#paint2_linear_0_9262)"/>
<path fill-rule="evenodd" clip-rule="evenodd" d="M63.7307 46.4698L51.4971 53.5143C51.3232 53.6013 51.1492 53.6593 50.9463 53.6883L51.1782 54.1231L64.7453 46.2669V46.093L64.3975 45.5132C64.3395 45.919 64.0786 46.2669 63.7307 46.4698Z" fill="url(#paint3_linear_0_9262)"/>
<path fill-rule="evenodd" clip-rule="evenodd" d="M63.7307 46.4698L51.4971 53.5143C51.3232 53.6013 51.1492 53.6593 50.9463 53.6883L51.1782 54.1231L64.7453 46.2669V46.093L64.3975 45.5132C64.3395 45.919 64.0786 46.2669 63.7307 46.4698Z" fill="url(#paint4_linear_0_9262)"/>
</g>
<defs>
<linearGradient id="paint0_linear_0_9262" x1="55.7016" y1="28.0071" x2="42.3237" y2="49.0269" gradientUnits="userSpaceOnUse">
<stop stop-color="#41873F"/>
<stop offset="0.3288" stop-color="#418B3D"/>
<stop offset="0.6352" stop-color="#419637"/>
<stop offset="0.9319" stop-color="#3FA92D"/>
<stop offset="1" stop-color="#3FAE2A"/>
</linearGradient>
<linearGradient id="paint1_linear_0_9262" x1="48.8756" y1="39.7879" x2="82.3786" y2="21.5859" gradientUnits="userSpaceOnUse">
<stop offset="0.1376" stop-color="#41873F"/>
<stop offset="0.4032" stop-color="#54A044"/>
<stop offset="0.7136" stop-color="#66B848"/>
<stop offset="0.9081" stop-color="#6CC04A"/>
</linearGradient>
<linearGradient id="paint2_linear_0_9262" x1="36.6146" y1="38.1356" x2="64.8554" y2="38.1356" gradientUnits="userSpaceOnUse">
<stop offset="0.0919165" stop-color="#6CC04A"/>
<stop offset="0.2864" stop-color="#66B848"/>
<stop offset="0.5968" stop-color="#54A044"/>
<stop offset="0.8624" stop-color="#41873F"/>
</linearGradient>
<linearGradient id="paint3_linear_0_9262" x1="36.6145" y1="49.8419" x2="64.8553" y2="49.8419" gradientUnits="userSpaceOnUse">
<stop offset="0.0919165" stop-color="#6CC04A"/>
<stop offset="0.2864" stop-color="#66B848"/>
<stop offset="0.5968" stop-color="#54A044"/>
<stop offset="0.8624" stop-color="#41873F"/>
</linearGradient>
<linearGradient id="paint4_linear_0_9262" x1="68.9697" y1="27.3403" x2="61.8152" y2="64.8298" gradientUnits="userSpaceOnUse">
<stop stop-color="#41873F"/>
<stop offset="0.3288" stop-color="#418B3D"/>
<stop offset="0.6352" stop-color="#419637"/>
<stop offset="0.9319" stop-color="#3FA92D"/>
<stop offset="1" stop-color="#3FAE2A"/>
</linearGradient>
</defs>
</svg>
