<svg  viewBox="20 16 220 50" fill="none" xmlns="http://www.w3.org/2000/svg"><defs>
<clipPath id="clip0_0_2366">
<rect width="50" height="50" fill="white" transform="translate(20 16)"/>
</clipPath>
<clipPath id="clip1_0_2366">
<rect width="100" height="23.1061" fill="white" transform="translate(84 29)"/>
</clipPath>
</defs><g clip-path="url(#clip0_0_2366)">
<path d="M45 66C58.8071 66 70 54.8071 70 41C70 27.1929 58.8071 16 45 16C31.1929 16 20 27.1929 20 41C20 54.8071 31.1929 66 45 66Z" fill="black"/>
<path fill-rule="evenodd" clip-rule="evenodd" d="M56.0909 52.9869V49.1019C56.0909 48.3269 55.6672 47.9375 54.9653 47.9375C54.1316 47.9375 53.4447 48.5562 53.4153 49.3069V52.9819H52.0066V49.0975C52.0066 48.3225 51.5828 47.9325 50.8809 47.9325C50.0472 47.9325 49.3603 48.5513 49.3309 49.3019V52.9769H47.9222V46.9037H49.1897L49.3309 47.4206L49.3997 47.4837L49.4672 47.4206C49.7503 47.0306 50.4522 46.7725 51.0172 46.7725C52.0309 46.7725 52.7622 47.1725 53.1328 47.8056L53.4834 47.4156C53.8347 47.0256 54.5409 46.7675 55.1022 46.7675C56.6522 46.7675 57.4997 47.6737 57.4997 48.9656V52.9769H56.0909V52.9869ZM34.6509 34.0706H34.3922V38.2625H33.0078V28.5H36.3709C37.8822 28.5 39.2078 29.5037 39.2078 31.2394C39.2078 32.9106 37.7941 33.9781 36.2828 33.9781L39.3928 37.9894V38.2581H37.8141L34.6509 34.0706ZM36.4491 32.6869C37.2097 32.6869 37.9066 32.1556 37.9066 31.2931C37.9066 30.4306 37.2097 29.8994 36.4491 29.8994H34.4216V32.6869H36.4491Z" fill="white" stroke="white" stroke-width="0.2"/>
<path fill-rule="evenodd" clip-rule="evenodd" d="M32.5725 52.6702L56.4663 28.7765L57.2244 29.5334L33.3306 53.4271L32.5725 52.6702Z" fill="white" stroke="white" stroke-width="0.6"/>
</g><g clip-path="url(#clip1_0_2366)">
<path d="M90.6449 35.9049C90.7727 35.954 90.8182 36.2496 90.8182 37.0312V38.0909H90.0037C88.7994 38.0909 87.9628 38.3085 87.4558 38.7535C86.6005 39.5045 86.5951 39.5328 86.5253 43.5833L86.4621 47.2449L85.2311 47.2811L84 47.3172V41.6308V35.9444H85.1348H86.2697L86.3477 36.4321C86.4826 37.2751 86.583 37.3242 87.1198 36.8097C87.6609 36.2913 88.1909 35.9962 88.8886 35.825C89.3376 35.7149 90.2588 35.7568 90.6449 35.9049Z" fill="black"/>
<path fill-rule="evenodd" clip-rule="evenodd" d="M98.3301 35.9699C99.3999 36.2397 100.428 36.9595 101.188 37.9704C101.959 38.9964 102.465 40.9587 102.18 41.82L102.036 42.2576H97.7368H93.4374L93.5203 42.7759C93.7719 44.3488 95.1384 45.3475 97.0051 45.3226C98.0844 45.3082 98.7875 45.0114 99.4057 44.3091L99.9082 43.7383L100.856 44.1513C101.377 44.3786 101.803 44.6359 101.803 44.7231C101.803 44.9826 100.714 46.1153 100.062 46.5335C97.1095 48.4281 93.133 47.398 91.6331 44.3504C90.5219 42.0921 90.8889 39.2484 92.5099 37.5565C94.0066 35.9945 96.1309 35.4153 98.3301 35.9699ZM93.7285 39.779C94.0564 38.9163 94.7856 38.2712 95.7347 38.0038C97.3186 37.5576 99.2801 38.4509 99.5995 39.7639L99.684 40.1111H96.6431H93.6023L93.7285 39.779Z" fill="black"/>
<path fill-rule="evenodd" clip-rule="evenodd" d="M110.728 36.0187C111.088 36.1181 111.64 36.3956 111.954 36.6356C112.269 36.8757 112.549 37.0313 112.577 36.9817C112.605 36.9321 112.698 36.6763 112.783 36.4132L112.937 35.935L114.03 35.9712L115.124 36.0076V41.6263V47.245L114.023 47.2815L112.921 47.3178L112.837 46.9658C112.647 46.1701 112.572 46.1305 112.051 46.5494C111.315 47.1407 110.247 47.4659 109.063 47.4594C105.706 47.4408 103.175 44.9691 103.154 41.6894C103.142 39.6801 103.898 38.12 105.449 36.9544C106.934 35.8392 108.848 35.4999 110.728 36.0187ZM106.707 38.8168C107.246 38.3124 107.598 38.1288 108.432 37.9169C108.571 37.8817 109.027 37.8705 109.446 37.8919C110.75 37.959 111.873 38.7039 112.508 39.9217C112.95 40.7686 112.985 42.2775 112.584 43.1479C111.941 44.5441 110.804 45.2879 109.313 45.2879C108.088 45.2879 107.313 45.0013 106.595 44.2839C105.886 43.5751 105.591 42.7882 105.591 41.6085C105.591 40.4124 105.943 39.531 106.707 38.8168Z" fill="black"/>
<path fill-rule="evenodd" clip-rule="evenodd" d="M128.54 38.1225L128.508 47.2449L127.427 47.2811L126.345 47.3172L126.164 46.7429L125.982 46.1686L125.354 46.617C123.781 47.7383 121.215 47.7482 119.325 46.6404C118.602 46.2169 117.56 45.0992 117.17 44.3284C116.708 43.4178 116.554 42.7197 116.557 41.5606C116.562 39.8183 117.129 38.536 118.434 37.3153C119.371 36.4398 120.282 36.0265 121.727 35.822C123.046 35.6351 124.912 36.0775 125.488 36.7136C126.026 37.3086 126.046 37.1797 126.046 32.9773V29H127.309H128.572L128.54 38.1225ZM119.378 39.7841C119.888 38.814 120.59 38.2585 121.69 37.9542C122.282 37.7902 123.542 37.9067 124.168 38.1836C124.867 38.4928 125.565 39.1929 125.947 39.9688C126.179 40.4394 126.235 40.7617 126.233 41.6263C126.232 42.5417 126.182 42.7923 125.897 43.3308C125.201 44.6456 124.159 45.2806 122.691 45.2851C121.059 45.2901 120.023 44.7047 119.393 43.423C119.083 42.7917 119.038 42.5548 119.039 41.5631C119.04 40.5766 119.085 40.342 119.378 39.7841Z" fill="black"/>
<path d="M133.325 39.6691C134.102 41.683 134.787 43.41 134.848 43.507C134.923 43.628 135.429 42.4671 136.458 39.8138L137.958 35.9444H139.133H140.309L140.059 36.6073C139.921 36.9718 138.511 40.594 136.926 44.6565L134.042 52.0429L132.869 52.0794C131.792 52.1128 131.7 52.0972 131.759 51.89C131.794 51.7657 132.227 50.6246 132.722 49.3541C133.216 48.0837 133.621 46.9757 133.62 46.892C133.62 46.77 132.136 42.9796 129.569 36.5397L129.328 35.9355L130.62 35.9715L131.911 36.0075L133.325 39.6691Z" fill="black"/>
<path d="M148.372 36.0248C148.882 36.165 149.214 36.374 149.751 36.8948L150.459 37.5803L151.13 36.9458C152.18 35.9525 153.272 35.615 154.756 35.8251C156.264 36.0386 157.315 36.791 157.914 38.0844C158.165 38.6274 158.182 38.8979 158.219 42.9882L158.258 47.3174L157.019 47.2812L155.781 47.2449L155.717 43.1354C155.662 39.4929 155.629 38.9876 155.432 38.6873C154.999 38.0276 154.024 37.7348 153.042 37.9703C152.221 38.1674 151.263 39.0483 151.059 39.7954C150.975 40.1044 150.921 41.6626 150.92 43.8088L150.919 47.3171L149.688 47.281L148.457 47.2449L148.394 43.1354C148.338 39.4929 148.306 38.9876 148.109 38.6873C147.394 37.5967 145.417 37.6593 144.327 38.8072C143.66 39.5104 143.596 39.9413 143.596 43.7886V47.308H142.397H141.197V41.6213V35.9346L142.301 35.9711C143.289 36.0038 143.409 36.0339 143.452 36.2601C143.479 36.399 143.552 36.6496 143.616 36.817L143.732 37.1214L144.137 36.7375C145.159 35.7708 146.576 35.5323 148.372 36.0248Z" fill="black"/>
<path fill-rule="evenodd" clip-rule="evenodd" d="M166.99 36.0302C167.323 36.1348 167.877 36.4103 168.222 36.6423L168.848 37.0642L168.989 36.5043L169.13 35.9445H170.252H171.373V41.6312V47.318L170.268 47.2815L169.163 47.245L168.995 46.7134L168.827 46.1819L168.19 46.6197C166.596 47.7165 164.095 47.7571 162.298 46.7154C160.986 45.9548 159.947 44.6248 159.567 43.2186C159.273 42.1343 159.355 40.4668 159.752 39.4364C160.812 36.6855 164.123 35.1276 166.99 36.0302ZM161.829 41.1369C162.021 39.5075 162.842 38.4969 164.365 38.0151C166.06 37.4791 167.861 38.2468 168.702 39.8643C169.105 40.6398 169.123 40.7314 169.072 41.7526C169.013 42.9532 168.76 43.5882 168.066 44.2825C167.385 44.9641 166.538 45.2853 165.418 45.2867C164.571 45.2878 164.352 45.2368 163.662 44.8776C162.324 44.1816 161.637 42.7785 161.829 41.1369Z" fill="black"/>
<path d="M179.58 35.8226C180.811 36.0159 181.82 36.5636 182.723 37.5288C183.147 37.9819 183.494 38.4233 183.494 38.5097C183.494 38.5962 183.063 38.8803 182.536 39.1411L181.577 39.6154L181.088 39.0601C179.791 37.5867 177.164 37.543 175.871 38.9733C174.557 40.4279 174.609 43.1098 175.978 44.4387C176.883 45.3177 178.663 45.5935 179.9 45.0466C180.688 44.6977 180.949 44.4613 181.236 43.8358C181.608 43.0265 181.596 43.0151 180.395 43.0151H179.317L179.354 42.0366L179.39 41.0581L181.563 41.0236L183.735 40.989L183.882 41.4822C183.996 41.8598 183.995 42.177 183.88 42.8356C183.67 44.0449 183.19 44.9776 182.339 45.8305C179.569 48.606 174.652 47.7664 173.008 44.2373C171.83 41.7073 172.606 38.4083 174.722 36.9525C176.259 35.8945 177.782 35.5405 179.58 35.8226Z" fill="black"/>
</g></svg>