<svg  viewBox="95 25 150 32" fill="none" xmlns="http://www.w3.org/2000/svg"><defs>
<clipPath id="clip0_0_2415">
<rect width="50" height="50" fill="white" transform="translate(34 16)"/>
</clipPath>
<clipPath id="clip1_0_2415">
<rect width="50" height="50" fill="white" transform="translate(111 16)"/>
</clipPath>
</defs><g clip-path="url(#clip0_0_2415)">
<path d="M34 16L59 16.0001V66H34L34 16Z" fill="black"/>
<path d="M84 28.5C84 35.4035 78.4035 41 71.5 41C64.5965 41 59 35.4035 59 28.5C59 21.5964 64.5965 16 71.5 16C78.4035 16 84 21.5964 84 28.5Z" fill="black"/>
</g><g clip-path="url(#clip1_0_2415)">
<path d="M111 16L136 16.0001V66H111L111 16Z" fill="black"/>
<path d="M161 28.5C161 35.4035 155.404 41 148.5 41C141.596 41 136 35.4035 136 28.5C136 21.5964 141.596 16 148.5 16C155.404 16 161 21.5964 161 28.5Z" fill="black"/>
</g></svg>