<svg  viewBox="20 16 50 50" fill="none" xmlns="http://www.w3.org/2000/svg"><defs>
<clipPath id="clip0_0_2979">
<rect width="50" height="33.8384" fill="white" transform="translate(20 24)"/>
</clipPath>
<clipPath id="clip1_0_2979">
<rect width="100" height="22.7545" fill="white" transform="translate(103 30)"/>
</clipPath>
</defs><g clip-path="url(#clip0_0_2979)">
<path d="M46.4037 30.7711C46.6148 30.5577 46.9025 30.4663 47.1894 30.4663C47.4763 30.4663 47.7645 30.5577 47.9742 30.7711C48.179 30.9786 48.2751 31.2692 48.2751 31.5658C48.2751 31.8637 48.179 32.1529 47.9742 32.3618C47.7631 32.5752 47.4763 32.6666 47.1894 32.6666C46.9025 32.6666 46.6148 32.5752 46.4037 32.3618C46.199 32.1543 46.1028 31.8637 46.1028 31.5658C46.1028 31.2692 46.199 30.9786 46.4037 30.7707V30.7711ZM52.6275 40.5074C52.5996 39.6556 52.351 38.7531 51.7192 38.1586C51.0128 37.4947 49.9908 37.1899 49.0422 37.1899H44.8098C44.3916 37.1899 44.0218 36.8719 44.0218 36.4793C44.0218 36.1494 44.2442 35.873 44.545 35.7921C44.5441 35.7921 44.6163 35.7733 44.6947 35.7482C45.4525 36.1174 46.3072 36.2833 47.1605 36.2833C48.4663 36.2833 49.7743 35.8954 50.7318 34.9878C51.6641 34.1055 52.1007 32.8708 52.1007 31.6073C52.1007 30.3439 51.665 29.1092 50.7318 28.2254C50.4597 27.9688 50.1564 27.7483 49.8293 27.5693C50.7282 27.7804 51.656 27.5185 52.2938 26.4031L50.4942 25.0935L48.9931 27.2101C48.3995 27.0211 47.7805 26.9266 47.1583 26.93C45.853 26.93 44.545 27.3179 43.5874 28.2254C42.6552 29.1078 42.2186 30.3429 42.2186 31.6069C42.2186 32.8708 42.6543 34.1055 43.5874 34.9883C43.6682 35.0651 43.7525 35.1373 43.8378 35.2076C43.7453 35.2575 43.6632 35.3013 43.6619 35.3013C43.3182 35.4969 42.8965 35.8085 42.4797 36.2586C41.8884 36.8965 41.2971 37.8516 41.2971 39.1219C41.2971 39.1219 41.215 41.8325 44.2888 41.8325H46.5142C47.0275 41.8325 47.5484 42.1624 47.5484 42.682C47.5484 42.8707 47.4934 43.0448 47.3996 43.1919H51.6578C52.3028 42.4672 52.6591 41.4373 52.6275 40.5074ZM57.2087 30.7711C57.4193 30.5577 57.7075 30.4663 57.9935 30.4663C58.2799 30.4663 58.5681 30.5577 58.7788 30.7711C58.9835 30.9786 59.0796 31.2692 59.0796 31.5658C59.0796 31.8637 58.9835 32.1529 58.7788 32.3618C58.5681 32.5752 58.2799 32.6666 57.993 32.6666C57.7062 32.6666 57.4184 32.5752 57.2082 32.3618C57.0039 32.1543 56.9078 31.8637 56.9078 31.5658C56.9078 31.2692 57.0039 30.9786 57.2087 30.7707V30.7711ZM64.75 40.5074C64.722 39.6556 64.474 38.7531 63.8416 38.1586C63.1357 37.4947 62.1132 37.1899 61.1652 37.1899L56.252 37.1542C55.9417 37.1542 55.7054 36.9573 55.7054 36.6653C55.7054 36.4259 55.8235 36.0685 56.1199 36.0096C56.7004 36.1969 57.3188 36.2838 57.9358 36.2838C59.2415 36.2838 60.5491 35.8954 61.507 34.9878C62.4389 34.1055 62.8746 32.8708 62.8746 31.6073C62.8746 30.3439 62.4389 29.1092 61.507 28.2254C61.2348 27.9688 60.9313 27.7483 60.6041 27.5693C61.5034 27.7804 62.4308 27.5185 63.069 26.4031L61.2694 25.0935L59.7683 27.2101C59.1747 27.0211 58.5557 26.9266 57.9335 26.93C56.6277 26.93 55.3202 27.3179 54.3622 28.2254C53.429 29.1078 52.9933 30.3429 52.9933 31.6069C52.9933 32.8708 53.429 34.1055 54.3622 34.9883C54.636 35.2463 54.9415 35.4674 55.271 35.6463C55.0554 35.8126 54.8281 36.0156 54.6021 36.2586C54.0113 36.8965 53.4196 37.8516 53.4196 39.1219C53.4196 39.1219 53.3379 41.8325 56.4113 41.8325H58.6384C59.1513 41.8325 59.6722 42.1624 59.6722 42.682C59.6722 42.8707 59.6172 43.0448 59.5234 43.1919H63.782C64.4257 42.4672 64.782 41.4373 64.7504 40.5074H64.75Z" fill="#FF8A7A"/>
<path d="M69.9033 39.1159V35.0687C68.9869 35.1862 68.6671 34.5313 68.6671 33.8811V24H64.1184V34.6191C64.1184 35.9383 64.3114 37.0377 64.781 37.7295C65.5022 38.7828 66.4786 39.4732 68.4199 39.4801C68.7794 39.4664 69.3766 39.3933 69.9033 39.1159ZM36.3685 34.1945C36.097 34.4696 35.7248 34.5884 35.3545 34.5884C34.9838 34.5884 34.6126 34.4696 34.3407 34.1945C34.0763 33.9263 33.9519 33.5503 33.9519 33.1673C33.9519 32.783 34.0763 32.4079 34.3407 32.1396C34.6126 31.8646 34.9847 31.7462 35.3545 31.7462C35.7258 31.7462 36.097 31.8636 36.3685 32.1396C36.6332 32.4079 36.7573 32.7839 36.7573 33.1669C36.7573 33.5516 36.6328 33.9263 36.3685 34.1945ZM39.7585 28.6952C38.584 27.4806 36.9801 26.9606 35.3789 26.9606C33.7786 26.9606 32.1747 27.4806 31.0003 28.6952C29.8565 29.8778 29.3224 31.5301 29.3224 33.2217C29.3224 34.9133 29.8565 36.5657 31.0003 37.7483C32.1747 38.9619 33.7786 39.4824 35.3794 39.4824C36.9801 39.4824 38.584 38.9628 39.7585 37.7483C40.901 36.5671 41.4363 34.9133 41.4363 33.2217C41.435 31.5301 40.901 29.8768 39.7585 28.6952ZM27.682 35.0856C26.9257 35.0856 26.6153 34.8503 26.3357 34.4911C26.1553 34.2563 26.0637 33.9108 26.0637 33.4625V31.3679H28.6026V27.6127H26.0651V24H22.8194V25.3512C22.8194 26.8482 21.6941 28.0605 20.3058 28.0605C20.2016 28.0605 20.0997 28.0532 20 28.0404V31.3688H21.7036V34.7136C21.7036 36.0306 21.9381 37.045 22.4063 37.7355C23.1297 38.7924 23.933 39.4838 25.8919 39.4838C27.0276 39.4838 27.9797 39.2192 28.6026 38.8669V34.9303C28.368 35.023 28.0505 35.0856 27.682 35.0856Z" fill="#FF8A7A"/>
<path d="M22.5475 47.8144C21.9601 48.2691 21.5136 48.8586 21.2096 49.582V43.3533H20V57.4182H21.2106V52.7769C21.2081 52.1998 21.2646 51.624 21.3793 51.0588C21.4919 50.5169 21.6768 50.0375 21.9343 49.6226C22.1909 49.2081 22.5495 48.8687 22.9753 48.6379C23.4116 48.3971 23.947 48.2759 24.5818 48.2759C25.4808 48.2759 26.1576 48.568 26.6141 49.1501C27.0697 49.7327 27.298 50.5064 27.298 51.4705V57.4195H28.5475V51.5523C28.5475 50.2263 28.2394 49.1574 27.6242 48.3468C27.0101 47.5371 26.0677 47.1314 24.7985 47.1314C23.8864 47.1314 23.1359 47.3589 22.5475 47.8144Z" fill="#FF8A7A"/>
<path d="M30.4509 57.4172H31.6605V47.3702H30.4509V57.4172Z" fill="#FF8A7A"/>
<path d="M31.0664 43.1919C30.7482 43.1919 30.4845 43.2984 30.2729 43.5131C30.0608 43.7279 29.9552 43.9961 29.9552 44.3173C29.9527 44.4645 29.98 44.6106 30.0345 44.7469C30.0891 44.8833 30.1699 45.0071 30.2729 45.1111C30.4845 45.3318 30.7497 45.4419 31.0664 45.4419C31.2123 45.4439 31.3573 45.4155 31.4921 45.3587C31.627 45.3017 31.7487 45.2175 31.8502 45.1111C32.0689 44.8904 32.178 44.6258 32.178 44.3173C32.178 43.9961 32.0679 43.7279 31.8502 43.5131C31.632 43.2984 31.3709 43.1919 31.0664 43.1919Z" fill="#FF8A7A"/>
<path d="M38.2843 47.1299C37.5303 47.1299 36.8894 47.3378 36.3606 47.7527C35.8313 48.1681 35.4343 48.8055 35.1697 49.6619V47.3712H34V57.4168H35.2096V52.7764C35.2066 52.2036 35.2566 51.6318 35.3586 51.0683C35.4576 50.5319 35.6263 50.0699 35.8641 49.6815C36.0975 49.2987 36.4212 48.9811 36.8066 48.7576C37.1965 48.53 37.6823 48.4157 38.2646 48.4157C38.4232 48.416 38.5823 48.4229 38.7409 48.4363C38.9141 48.4524 39.0864 48.4792 39.2561 48.5168V47.2309C38.8859 47.1633 38.5616 47.1299 38.2843 47.1299Z" fill="#FF8A7A"/>
<path fill-rule="evenodd" clip-rule="evenodd" d="M40.0394 50.3555C40.2712 49.7053 40.598 49.1433 41.0207 48.6675C41.4434 48.1919 41.9561 47.8167 42.5576 47.5416C43.1601 47.2666 43.8308 47.1304 44.5707 47.1304C45.3505 47.1304 46.0353 47.2675 46.6232 47.5416C47.2121 47.8167 47.7005 48.1882 48.0904 48.6566C48.4803 49.1254 48.7717 49.671 48.9626 50.2939C49.1545 50.9167 49.2505 51.576 49.2505 52.2724V52.6344H40.9212L40.901 52.7742C40.9141 53.3769 41.0227 53.9092 41.2293 54.3721C41.4338 54.8346 41.7045 55.2225 42.0419 55.5369C42.3838 55.8548 42.7848 56.1006 43.2217 56.2602C43.6712 56.4279 44.154 56.5116 44.6692 56.5116C45.4232 56.5116 46.0702 56.3612 46.6126 56.0601C47.1545 55.7585 47.6177 55.3929 48.0015 54.9653L48.6359 55.9294C48.2131 56.3717 47.6838 56.7702 47.049 57.1253C46.4146 57.4799 45.6409 57.658 44.7288 57.658C43.9742 57.658 43.2909 57.5347 42.6763 57.2865C42.0616 57.0385 41.5323 56.6911 41.0899 56.2415C40.647 55.7932 40.303 55.2476 40.0581 54.6047C39.8131 53.9613 39.6914 53.2448 39.6914 52.4552C39.6914 51.704 39.8076 51.0044 40.0394 50.3555ZM47.0106 49.2497C47.2924 49.5587 47.5111 49.9208 47.655 50.3153C47.8071 50.7234 47.896 51.1694 47.9227 51.6519H40.9621C41.0813 50.6471 41.448 49.8337 42.0626 49.2109C42.6788 48.588 43.5202 48.2759 44.5919 48.2759C45.1197 48.2759 45.5869 48.3627 45.9899 48.5369C46.3924 48.7114 46.7333 48.9481 47.0106 49.2497Z" fill="#FF8A7A"/>
</g><g clip-path="url(#clip1_0_2979)">
<path d="M134.305 38.0279C134.555 37.7749 134.896 37.6665 135.236 37.6665C135.576 37.6665 135.918 37.7749 136.167 38.0279C136.41 38.2739 136.524 38.6185 136.524 38.9701C136.524 39.3233 136.41 39.6662 136.167 39.9138C135.917 40.1668 135.576 40.2752 135.236 40.2752C134.896 40.2752 134.555 40.1668 134.305 39.9138C134.062 39.6679 133.948 39.3233 133.948 38.9701C133.948 38.6185 134.062 38.2739 134.305 38.0274V38.0279ZM141.684 49.5715C141.651 48.5616 141.356 47.4916 140.607 46.7868C139.77 45.9996 138.558 45.6382 137.433 45.6382H132.415C131.919 45.6382 131.481 45.2612 131.481 44.7958C131.481 44.4046 131.744 44.0768 132.101 43.9809C132.1 43.9809 132.186 43.9587 132.279 43.9289C133.177 44.3667 134.19 44.5633 135.202 44.5633C136.75 44.5633 138.301 44.1034 139.436 43.0274C140.542 41.9813 141.059 40.5174 141.059 39.0194C141.059 37.5214 140.543 36.0575 139.436 35.0097C139.114 34.7054 138.754 34.444 138.366 34.2317C139.432 34.482 140.532 34.1716 141.288 32.8491L139.155 31.2964L137.375 33.8059C136.671 33.5818 135.937 33.4698 135.199 33.4738C133.652 33.4738 132.101 33.9337 130.966 35.0097C129.86 36.0559 129.343 37.5203 129.343 39.0188C129.343 40.5174 129.859 41.9813 130.966 43.028C131.062 43.119 131.162 43.2046 131.263 43.288C131.153 43.3471 131.056 43.3991 131.054 43.3991C130.647 43.631 130.147 44.0004 129.652 44.5341C128.951 45.2904 128.25 46.4227 128.25 47.9288C128.25 47.9288 128.153 51.1427 131.797 51.1427H134.436C135.044 51.1427 135.662 51.5338 135.662 52.1498C135.662 52.3736 135.597 52.58 135.486 52.7544H140.534C141.299 51.8952 141.721 50.674 141.684 49.5715ZM147.116 38.0279C147.365 37.7749 147.707 37.6665 148.046 37.6665C148.386 37.6665 148.727 37.7749 148.977 38.0279C149.22 38.2739 149.334 38.6185 149.334 38.9701C149.334 39.3233 149.22 39.6662 148.977 39.9138C148.727 40.1668 148.386 40.2752 148.045 40.2752C147.705 40.2752 147.364 40.1668 147.115 39.9138C146.873 39.6679 146.759 39.3233 146.759 38.9701C146.759 38.6185 146.873 38.2739 147.116 38.0274V38.0279ZM156.057 49.5715C156.024 48.5616 155.729 47.4916 154.98 46.7868C154.143 45.9996 152.93 45.6382 151.806 45.6382L145.981 45.5959C145.613 45.5959 145.333 45.3625 145.333 45.0162C145.333 44.7324 145.473 44.3087 145.825 44.2388C146.513 44.4609 147.246 44.5639 147.978 44.5639C149.526 44.5639 151.076 44.1034 152.212 43.0274C153.317 41.9813 153.833 40.5174 153.833 39.0194C153.833 37.5214 153.317 36.0575 152.212 35.0097C151.889 34.7054 151.529 34.4439 151.141 34.2317C152.207 34.482 153.307 34.1716 154.064 32.8491L151.93 31.2964L150.15 33.8059C149.446 33.5818 148.713 33.4698 147.975 33.4738C146.427 33.4738 144.876 33.9337 143.741 35.0097C142.634 36.0559 142.118 37.5203 142.118 39.0188C142.118 40.5174 142.634 41.9813 143.741 43.028C144.065 43.3338 144.427 43.596 144.818 43.8081C144.563 44.0053 144.293 44.2459 144.025 44.5341C143.325 45.2904 142.623 46.4227 142.623 47.9288C142.623 47.9288 142.526 51.1427 146.17 51.1427H148.811C149.419 51.1427 150.036 51.5338 150.036 52.1498C150.036 52.3736 149.971 52.58 149.86 52.7544H154.909C155.672 51.8952 156.095 50.674 156.057 49.5715H156.057Z" fill="#FF8A7A"/>
<path d="M162.167 47.9219V43.1234C161.08 43.2626 160.701 42.4862 160.701 41.7153V30H155.308V42.5903C155.308 44.1544 155.537 45.4579 156.094 46.2781C156.949 47.5269 158.106 48.3455 160.408 48.3537C160.834 48.3374 161.542 48.2507 162.167 47.9219ZM122.407 42.0869C122.085 42.4131 121.644 42.554 121.205 42.554C120.765 42.554 120.325 42.4131 120.003 42.0869C119.689 41.7689 119.542 41.3231 119.542 40.869C119.542 40.4134 119.689 39.9686 120.003 39.6506C120.325 39.3245 120.766 39.1841 121.205 39.1841C121.645 39.1841 122.085 39.3234 122.407 39.6506C122.721 39.9686 122.868 40.4145 122.868 40.8685C122.868 41.3247 122.721 41.7689 122.407 42.0869H122.407ZM126.426 35.5667C125.034 34.1267 123.132 33.5101 121.234 33.5101C119.336 33.5101 117.435 34.1267 116.042 35.5667C114.686 36.9689 114.053 38.9279 114.053 40.9335C114.053 42.9392 114.686 44.8982 116.042 46.3004C117.435 47.7393 119.336 48.3563 121.234 48.3563C123.132 48.3563 125.034 47.7404 126.426 46.3004C127.781 44.8999 128.416 42.9392 128.416 40.9335C128.414 38.9279 127.781 36.9677 126.426 35.5667ZM169.472 38.3569C169.832 37.4992 170.362 36.8004 171.058 36.2613C171.756 35.7211 172.646 35.4513 173.727 35.4513C175.232 35.4513 176.349 35.9324 177.077 36.8925C177.807 37.8535 178.172 39.1208 178.172 40.693V47.6493H176.69V40.596C176.69 39.4529 176.42 38.5356 175.88 37.8449C175.338 37.1547 174.536 36.8084 173.47 36.8084C172.717 36.8084 172.083 36.952 171.565 37.2375C171.06 37.5112 170.635 37.9137 170.331 38.4051C170.026 38.897 169.807 39.4653 169.673 40.1078C169.537 40.778 169.47 41.4607 169.473 42.1449V47.6477H168.038V30.9719H169.472V38.3569ZM181.863 47.6466H180.429V35.7347H181.863V47.6461V47.6466ZM180.217 31.1616C180.468 30.9069 180.78 30.7807 181.157 30.7807C181.519 30.7807 181.828 30.9069 182.087 31.1616C182.345 31.4162 182.475 31.7342 182.475 32.1151C182.475 32.4808 182.346 32.7945 182.087 33.0561C181.966 33.1823 181.822 33.2822 181.662 33.3497C181.502 33.4171 181.331 33.4507 181.157 33.4484C180.782 33.4484 180.468 33.3178 180.217 33.0561C180.095 32.9329 179.999 32.7861 179.934 32.6244C179.869 32.4627 179.837 32.2895 179.84 32.1151C179.84 31.7342 179.965 31.4162 180.217 31.1616ZM187.435 36.1881C188.062 35.6962 188.822 35.4497 189.716 35.4497C190.045 35.4497 190.429 35.4893 190.868 35.5694V37.094C190.667 37.0495 190.463 37.0177 190.257 36.9986C190.069 36.9828 189.881 36.9746 189.693 36.9743C189.002 36.9743 188.426 37.1097 187.964 37.3795C187.507 37.6446 187.123 38.0211 186.847 38.475C186.565 38.9354 186.365 39.4832 186.247 40.1192C186.126 40.7873 186.067 41.4653 186.071 42.1444V47.6461H184.637V35.7358H186.023V38.4517C186.337 37.4364 186.808 36.6811 187.435 36.1887V36.1881ZM200.826 39.2264C200.656 38.7586 200.396 38.3293 200.062 37.963C199.734 37.6054 199.329 37.3248 198.852 37.1178C198.374 36.9114 197.82 36.8084 197.195 36.8084C195.924 36.8084 194.926 37.1785 194.196 37.9169C193.467 38.6554 193.032 39.6198 192.891 40.8111H201.144C201.112 40.239 201.007 39.7102 200.826 39.2264ZM191.797 39.2741C192.072 38.5031 192.459 37.8368 192.96 37.2728C193.462 36.7088 194.069 36.264 194.783 35.9378C195.497 35.6117 196.292 35.4502 197.169 35.4502C198.094 35.4502 198.906 35.6128 199.603 35.9378C200.301 36.264 200.88 36.7044 201.343 37.2598C201.805 37.8156 202.15 38.4625 202.377 39.201C202.604 39.9394 202.718 40.7211 202.718 41.5468V41.9759H192.843L192.819 42.1417C192.834 42.8563 192.963 43.4874 193.208 44.0363C193.45 44.5846 193.771 45.0445 194.171 45.4172C194.577 45.7941 195.052 46.0856 195.57 46.2749C196.103 46.4737 196.675 46.5729 197.286 46.5729C198.18 46.5729 198.947 46.3946 199.59 46.0376C200.233 45.68 200.782 45.2466 201.237 44.7395L201.989 45.8826C201.488 46.4071 200.86 46.8795 200.108 47.3005C199.356 47.7209 198.438 47.9322 197.357 47.9322C196.462 47.9322 195.652 47.7859 194.923 47.4917C194.195 47.1975 193.567 46.7857 193.043 46.2527C192.517 45.7212 192.11 45.0743 191.819 44.312C191.529 43.5492 191.384 42.6997 191.384 41.7635C191.384 40.8729 191.522 40.0434 191.797 39.2741ZM112.108 43.1434C111.211 43.1434 110.843 42.8644 110.512 42.4386C110.298 42.1601 110.189 41.7505 110.189 41.219V38.7356H113.199V34.2833H110.191V30H106.343V31.602C106.343 33.3769 105.009 34.8142 103.363 34.8142C103.239 34.8142 103.118 34.8055 103 34.7904V38.7366H105.02V42.7024C105.02 44.2638 105.298 45.4665 105.853 46.2852C106.711 47.5383 107.663 48.358 109.986 48.358C111.332 48.358 112.461 48.0443 113.199 47.6266V42.9592C112.921 43.0692 112.545 43.1434 112.109 43.1434H112.108Z" fill="#FF8A7A"/>
</g></svg>