<svg width="231" height="52" viewBox="0 0 231 52" fill="none" xmlns="http://www.w3.org/2000/svg">
<path fill-rule="evenodd" clip-rule="evenodd" d="M162.538 18.7039C161.86 18.7039 161.169 18.7279 160.479 18.7614V18.2621C160.901 18.0645 161.181 17.9136 161.298 17.7975L161.438 17.5664C161.509 17.3808 161.544 16.9845 161.566 16.3583C161.601 15.4518 161.625 14.9058 161.625 14.7322V9.31882C161.625 8.4136 161.601 7.51916 161.566 6.64866C161.543 6.02123 161.496 5.63687 161.414 5.52192C161.318 5.39339 161.183 5.29934 161.029 5.2537C160.854 5.20701 160.362 5.16031 159.544 5.14953V4.5209C161.252 4.55563 162.304 4.57957 162.712 4.57957C163.157 4.57957 164.177 4.55563 165.743 4.5209V5.14953C164.899 5.16031 164.398 5.20701 164.209 5.2537C164.034 5.31238 163.905 5.3938 163.836 5.49797C163.754 5.63687 163.71 5.96255 163.683 6.47383C163.671 6.60196 163.649 7.55388 163.625 9.31882V16.0793C163.625 16.7869 163.637 17.3569 163.683 17.7975C164.479 17.8442 164.572 17.855 165.357 17.855C167.345 17.855 168.83 17.7388 169.625 17.4958C169.718 17.297 169.8 17.0659 169.873 16.8097L170.294 15.1381H170.984C170.808 16.304 170.655 17.4733 170.525 18.6453C170.245 18.7039 170.01 18.7267 169.85 18.7482C169.485 18.7602 168.912 18.7602 168.164 18.7602L162.538 18.7039ZM175.557 18.7039L172.318 18.7614V18.1352C173.134 18.1232 173.64 18.0765 173.815 18.0178C173.961 17.9824 174.092 17.9009 174.188 17.7855C174.27 17.6466 174.328 17.3341 174.352 16.8216C174.364 16.6708 174.376 15.7188 174.411 13.9527V9.31762C174.411 8.4124 174.387 7.51796 174.352 6.64746C174.328 6.02003 174.281 5.63567 174.2 5.52072C174.104 5.3922 173.969 5.29814 173.815 5.25251C173.64 5.20581 173.134 5.15911 172.318 5.14834V4.51971C173.65 4.55443 174.691 4.57837 175.417 4.57837C176.106 4.57837 177.138 4.55443 178.494 4.51971V5.14834C177.664 5.15911 177.171 5.20581 176.995 5.25251C176.808 5.31118 176.691 5.3926 176.621 5.49678C176.54 5.63567 176.481 5.94938 176.469 6.47264C176.46 6.60076 176.437 7.55268 176.398 9.31762V13.9527C176.398 14.8711 176.424 15.7643 176.436 16.6229C176.46 17.2503 176.504 17.6347 176.585 17.7496C176.669 17.8658 176.796 17.9591 176.971 18.0166C177.158 18.0753 177.663 18.122 178.493 18.134V18.7602C177.007 18.7267 176.025 18.7039 175.557 18.7039ZM176.398 13.9527V9.31762C176.436 7.55268 176.46 6.60076 176.469 6.47264L176.398 13.9527ZM194.577 19.1206L194.308 18.8524L194.144 18.7027C194.003 18.5754 193.87 18.4394 193.746 18.2956C193.162 17.6562 192.728 17.1809 192.46 16.8552L191.101 15.1944L183.627 6.61154V14.3921C183.627 15.0555 183.651 15.8326 183.7 16.7378C183.724 17.2958 183.768 17.643 183.838 17.7712L184.061 17.9687C184.294 18.0621 184.777 18.1208 185.513 18.1328V18.759C184.835 18.7213 184.157 18.7021 183.479 18.7015C182.657 18.7015 181.781 18.7255 180.822 18.759V18.1328C181.558 18.1208 182.049 18.0621 182.284 17.958L182.494 17.7712C182.565 17.6323 182.612 17.2838 182.646 16.7151C182.681 15.8326 182.705 15.077 182.705 14.4376V6.27268C182.705 6.05236 182.693 5.90029 182.658 5.84281C182.563 5.67318 182.431 5.52679 182.273 5.41416C182.149 5.30841 182 5.23625 181.841 5.20461C181.475 5.16784 181.108 5.14867 180.741 5.14714V4.51851C181.946 4.55324 182.717 4.57718 183.036 4.57718C183.56 4.57718 184.086 4.55324 184.614 4.51851C185.196 5.25131 185.629 5.79612 185.912 6.15653L188.063 8.70097L191.199 12.347C192.193 13.5085 193 14.4257 193.619 15.089C194.005 15.5297 194.321 15.8781 194.59 16.1224V8.82909C194.59 8.16574 194.566 7.40062 194.532 6.52892C194.497 5.97094 194.45 5.62249 194.392 5.49557L194.169 5.29801C193.935 5.20461 193.444 5.15792 192.719 5.14714V4.51851C193.549 4.55324 194.39 4.57718 195.244 4.57718C196.039 4.57718 196.776 4.55324 197.433 4.51851V5.14714C196.697 5.15792 196.216 5.20461 195.983 5.29801L195.772 5.50755C195.699 5.63447 195.642 5.98291 195.618 6.56484C195.584 7.32315 195.566 8.08204 195.561 8.84107V13.6605C195.561 14.6364 195.583 16.46 195.618 19.1314L194.577 19.1206ZM202.483 18.7039L199.257 18.7614V18.1352C200.076 18.1232 200.566 18.0765 200.753 18.0178C200.898 17.9792 201.028 17.8984 201.127 17.7855C201.208 17.6466 201.255 17.3341 201.279 16.8216C201.291 16.6708 201.314 15.7188 201.338 13.9527V9.31762C201.338 8.4124 201.326 7.51796 201.279 6.64746C201.255 6.02003 201.208 5.63567 201.127 5.52072C201.038 5.39014 200.905 5.29517 200.753 5.25251C200.566 5.20581 200.076 5.15911 199.257 5.14834V4.51971C200.589 4.55443 201.619 4.57837 202.346 4.57837C203.045 4.57837 204.076 4.55443 205.421 4.51971V5.14834C204.602 5.15911 204.099 5.20581 203.924 5.25251C203.749 5.31118 203.617 5.3926 203.561 5.49678C203.468 5.63567 203.421 5.94938 203.395 6.47264C203.383 6.60076 203.371 7.55268 203.336 9.31762V13.9527C203.336 14.8711 203.35 15.7643 203.371 16.6229C203.383 17.2503 203.444 17.6347 203.525 17.7496C203.621 17.8786 203.756 17.9725 203.911 18.0166C204.086 18.0753 204.588 18.122 205.419 18.134V18.7602C203.936 18.7267 202.966 18.7039 202.483 18.7039ZM212.276 18.6453C211.403 18.4168 210.576 18.0397 209.832 17.5305C209.173 17.0911 208.591 16.5457 208.11 15.9164C207.669 15.3198 207.325 14.657 207.092 13.9527C206.859 13.257 206.753 12.4775 206.753 11.6417C206.753 9.51639 207.536 7.76222 209.092 6.36847C210.662 4.97352 212.801 4.27783 215.516 4.27783C216.147 4.27783 216.741 4.31256 217.293 4.38201C217.962 4.4745 218.626 4.60644 219.28 4.77714C220.063 4.97351 220.544 5.09086 220.718 5.12558C220.57 5.46968 220.456 5.82793 220.38 6.19485C220.257 6.8465 220.179 7.50581 220.146 8.16814H219.515L219.503 6.9959C219.432 6.34572 219.047 5.85719 218.357 5.5327C217.653 5.21898 216.638 5.05613 215.305 5.05613C214.297 5.08008 213.443 5.19623 212.753 5.41655C212.064 5.63804 211.432 6.01117 210.906 6.50856C210.366 6.99589 209.935 7.62332 209.596 8.38965C209.255 9.144 209.079 10.0971 209.079 11.2586C209.079 13.2678 209.722 14.895 211.034 16.114C212.332 17.3449 214.051 17.9484 216.194 17.9484C217.153 17.9484 218.041 17.8215 218.871 17.5772C219.463 17.3896 220.025 17.1199 220.542 16.7761L220.717 16.9845L220.308 17.9256C219.538 18.2958 218.73 18.5801 217.899 18.7734C217.05 18.9563 216.183 19.0462 215.315 19.0416C214.288 19.0506 213.265 18.9172 212.276 18.6453ZM150.197 18.6453C149.325 18.4168 148.498 18.0397 147.753 17.5305C147.095 17.0911 146.514 16.5457 146.034 15.9164C145.591 15.3205 145.247 14.6575 145.014 13.9527C144.78 13.257 144.677 12.4775 144.677 11.6417C144.677 9.51639 145.458 7.76222 147.013 6.36847C148.583 4.97352 150.723 4.27783 153.425 4.27783C154.068 4.27783 154.665 4.31256 155.214 4.38201C155.884 4.4745 156.548 4.60644 157.202 4.77714C157.985 4.97351 158.468 5.09086 158.64 5.12558C158.492 5.47008 158.379 5.82822 158.301 6.19485C158.184 6.76361 158.117 7.42576 158.07 8.16814H157.437L157.425 6.9959C157.354 6.34572 156.968 5.85719 156.279 5.5327C155.577 5.21898 154.559 5.05613 153.227 5.05613C152.218 5.08008 151.365 5.19623 150.675 5.41655C149.985 5.63804 149.354 6.01117 148.827 6.50856C148.29 6.99589 147.856 7.62332 147.518 8.38965C147.179 9.144 147 10.0971 147 11.2586C147 13.2678 147.646 14.895 148.944 16.114C150.254 17.3449 151.972 17.9484 154.103 17.9484C155.074 17.9484 155.963 17.8215 156.792 17.5772C157.384 17.3867 157.947 17.1173 158.466 16.7761L158.64 16.9845L158.233 17.9256C157.459 18.2972 156.647 18.5815 155.811 18.7734C154.966 18.957 154.103 19.0469 153.239 19.0416C152.211 19.0506 151.188 18.9173 150.197 18.6453ZM82.5498 18.9697C82.4754 18.7643 82.3895 18.5632 82.2924 18.3675L81.568 16.9031L76.527 7.00667V13.9874C76.527 14.8938 76.5497 15.7763 76.6084 16.6348C76.6204 17.2623 76.6803 17.6347 76.7605 17.7496C76.8311 17.8777 76.9724 17.9591 77.1472 18.0166C77.3221 18.0753 77.8369 18.122 78.6679 18.134V18.7722L76.1187 18.6919L73.4629 18.7722V18.134C74.2939 18.122 74.7968 18.0753 74.9836 18.0166C75.1704 17.9591 75.2997 17.8777 75.3703 17.7843C75.4517 17.6574 75.4984 17.3329 75.5212 16.8204C75.5332 16.6815 75.5463 15.7404 75.5799 13.9862V9.38707C75.5799 8.49262 75.5571 7.61135 75.5212 6.73846C75.4972 6.123 75.4505 5.73984 75.3703 5.62369C75.2722 5.49954 75.1365 5.41048 74.9836 5.36985C74.8088 5.31118 74.2939 5.27646 73.4629 5.26448V4.59035C74.1993 4.64783 74.9141 4.67177 75.5811 4.67177C76.272 4.67177 76.915 4.64783 77.546 4.59035C78.0856 5.77195 78.6509 6.94167 79.2415 8.09869L83.2551 15.8805L86.87 8.75006C87.8531 6.8091 88.508 5.42852 88.8457 4.59035C89.4722 4.64153 90.1005 4.66869 90.7292 4.67177C91.1974 4.67177 91.9565 4.64783 93.009 4.59035V5.26448C92.1672 5.27646 91.6643 5.31118 91.4883 5.36985C91.3015 5.42732 91.1854 5.50874 91.1147 5.61172C91.0201 5.73984 90.9615 6.05475 90.9507 6.56604C90.9387 6.69176 90.9267 7.64607 90.904 9.38707V13.9862C90.904 14.8926 90.916 15.7751 90.9507 16.6336C90.9734 17.2611 91.0201 17.6335 91.1016 17.7484C91.1947 17.8805 91.3318 17.9751 91.4883 18.0154C91.6631 18.0741 92.178 18.1208 93.009 18.1328V18.771C92.0073 18.7264 91.005 18.6996 90.0024 18.6908C89.5342 18.6908 88.4949 18.7147 86.8916 18.771V18.1328C87.7225 18.1208 88.2374 18.0741 88.4242 18.0154C88.599 17.958 88.7295 17.8765 88.787 17.7831C88.8804 17.6442 88.9283 17.3317 88.9511 16.8192C88.9511 16.6803 88.9738 15.7392 88.9978 13.985V6.66662L85.3589 13.8797C84.7866 14.9956 84.3411 15.9008 84.013 16.5857C83.6502 17.3742 83.2993 18.1682 82.9605 18.9674H82.5498V18.9697ZM107.338 18.7039L103.933 18.7722V18.134C104.729 18.122 105.208 18.0992 105.372 18.0633C105.547 18.0286 105.652 17.9819 105.711 17.9125L105.805 17.6802C105.805 17.5413 105.756 17.3437 105.664 17.1114L104.353 14.0581H98.2236L97.0897 16.6241C96.8909 17.0899 96.7855 17.4263 96.7855 17.6359L96.8682 17.8669C96.9693 17.959 97.0949 18.0197 97.2298 18.0418C97.4884 18.0992 97.9446 18.1352 98.5996 18.1352V18.7734C97.7068 18.735 96.8134 18.7123 95.9198 18.7051C95.2421 18.7051 94.4938 18.7291 93.6747 18.7734V18.1352C94.2243 18.1352 94.5752 18.1112 94.7153 18.0765C94.8584 18.0307 94.9902 17.9553 95.102 17.855C95.2182 17.7616 95.381 17.4958 95.6037 17.0539C95.7211 16.8097 96.1773 15.8697 96.9723 14.2437L99.6162 8.60997C99.9095 7.99332 100.529 6.61273 101.477 4.46343H102.144L106.67 14.4975C107.408 16.1236 107.888 17.1342 108.132 17.5532C108.261 17.7963 108.412 17.9472 108.565 18.0166C108.729 18.0873 109.079 18.134 109.642 18.134V18.7722C108.874 18.736 108.106 18.7132 107.338 18.7039ZM98.5876 13.2103H103.933L101.289 7.20424L98.5876 13.2103ZM114.742 18.7039C113.946 18.7039 112.882 18.7279 111.573 18.7722V18.134C112.392 18.122 112.895 18.0873 113.07 18.0286C113.256 17.9699 113.373 17.8897 113.432 17.7963C113.525 17.6562 113.584 17.3437 113.596 16.8324C113.608 16.6935 113.63 15.7524 113.665 14.0114V12.8499C113.532 12.577 113.388 12.3098 113.233 12.0489C113.127 11.886 112.777 11.3041 112.156 10.3282L109.466 6.55406C109.139 6.0308 108.894 5.71709 108.729 5.57819C108.576 5.46304 108.4 5.38035 108.213 5.33513C108.004 5.28843 107.722 5.25371 106.881 5.23096V4.59155C108.273 4.63825 108.683 4.66099 109.384 4.66099C110.109 4.66099 111.97 4.63825 113.28 4.59155V5.23096C112.461 5.25371 111.747 5.28843 111.607 5.33513C111.465 5.3926 111.396 5.486 111.384 5.60095C111.373 5.71709 111.56 6.10026 111.922 6.72769L115.07 11.7806L118.426 6.72769C118.847 6.10146 119.046 5.71709 119.057 5.60095C119.057 5.486 118.989 5.3926 118.858 5.33513C118.718 5.28843 118.11 5.25371 117.303 5.23096V4.59155C118.235 4.63134 119.167 4.65449 120.1 4.66099C120.801 4.66099 121.175 4.63825 122.568 4.59155V5.23096C121.726 5.25371 121.422 5.28843 121.211 5.33513C121.017 5.38082 120.834 5.46333 120.671 5.57819C120.497 5.71709 120.215 6.0308 119.844 6.55406L116.754 10.9449C116.157 11.874 115.818 12.4428 115.749 12.6523C115.666 12.8607 115.631 13.0594 115.631 13.2438V14.0114C115.631 14.9166 115.643 15.7871 115.691 16.6468C115.715 17.2754 115.761 17.6454 115.842 17.7628C115.913 17.8789 116.053 17.9711 116.227 18.0298C116.392 18.0885 116.894 18.1232 117.713 18.1352V18.7734C116.723 18.7304 115.733 18.7073 114.742 18.7039ZM126.1 18.5291C125.186 18.2147 124.355 17.6982 123.668 17.018C122.998 16.3233 122.487 15.491 122.171 14.5789C121.83 13.6731 121.652 12.7139 121.646 11.7459C121.646 10.6886 121.82 9.71276 122.149 8.83029C122.487 7.93465 123.037 7.1336 123.809 6.41397C124.572 5.71061 125.467 5.16564 126.442 4.81067C127.413 4.45145 128.535 4.27783 129.787 4.27783C130.945 4.27783 131.997 4.4287 132.944 4.73044C133.894 5.04416 134.677 5.45127 135.285 5.96135C135.893 6.47264 136.36 7.02942 136.711 7.6341C136.981 8.08552 137.202 8.60878 137.354 9.22423C137.518 9.84089 137.588 10.5018 137.588 11.1975C137.588 13.4402 136.793 15.2986 135.202 16.7965C133.61 18.2836 131.61 19.0272 129.19 19.0272C128.14 19.0341 127.095 18.8658 126.1 18.5291ZM126.392 5.82126C125.56 6.2892 124.897 7.00841 124.498 7.87598C124.066 8.77162 123.855 9.78221 123.855 10.9197C123.855 11.5472 123.925 12.1854 124.054 12.8475C124.194 13.4965 124.358 14.0677 124.568 14.531C124.895 15.3333 125.341 16.0062 125.878 16.5415C126.43 17.0875 127.036 17.4934 127.702 17.7484C128.416 18.0016 129.168 18.1277 129.926 18.1208C131.059 18.1208 132.043 17.8646 132.872 17.3425C133.705 16.8192 134.325 16.0876 134.734 15.1357C135.156 14.1946 135.355 13.0906 135.355 11.8477C135.355 10.7916 135.202 9.81573 134.91 8.92009C134.742 8.39592 134.498 7.89929 134.186 7.44612C133.89 7.00493 133.526 6.61299 133.108 6.28465C132.687 5.94699 132.149 5.668 131.483 5.44768C130.789 5.22021 130.062 5.10618 129.332 5.11001C128.206 5.11361 127.234 5.35787 126.392 5.82126Z" fill="black"/>
<path fill-rule="evenodd" clip-rule="evenodd" d="M37.1749 47.0556C29.9343 44.3363 25.0921 39.7599 23.8755 32.0823C23.1619 32.4307 22.4015 32.7564 21.6065 33.057C14.5874 30.4215 10.2816 25.6943 10.2816 17.2395V4.56641H32.9397V11.6178H30.3306V7.15754H12.8799V18.7949C12.8799 23.1977 13.7001 28.6458 21.6077 32.1529C29.5152 28.6446 30.333 23.1977 30.333 18.7949V15.4854H26.2032V27.5298C25.4884 28.2614 24.6466 28.9703 23.6301 29.6336C23.5966 29.1151 23.5811 28.5955 23.5834 28.0758V12.8727H39.8893V15.4854H32.9409V17.2407C32.9409 23.6515 30.4611 27.9142 26.2152 30.7496C26.3661 35.8936 28.1562 42.1535 37.1749 46.1612C46.6618 41.9452 48.1597 35.2314 48.1597 29.9462V15.4854H43.8659V18.7949C43.8659 21.7357 44.2526 25.1602 46.8497 28.1465V29.9222C43.2935 27.1024 41.258 23.06 41.258 17.2407V4.56641H63.9161V17.2395C63.9161 25.6943 59.6103 30.4215 52.5924 33.057C51.8698 32.7867 51.1594 32.4847 50.4634 32.1517C49.2361 39.7958 44.4047 44.3495 37.1749 47.0556ZM43.8659 12.8727H50.7688V28.0758C50.7688 29.1559 50.7089 30.1785 50.6047 31.1543C51.2481 31.5241 51.9117 31.8575 52.5924 32.1529C60.4999 28.6446 61.3189 23.1977 61.3189 18.7949V7.15754H43.8659V12.8727Z" fill="#295CA7"/>
</svg>
