<svg width="231" height="52" viewBox="0 0 231 52" fill="none" xmlns="http://www.w3.org/2000/svg">
<path d="M152.461 16.9584C161.988 16.9584 167.391 24.2359 166.906 34.3363H144.434C145.082 38.6144 148.972 41.6317 153.277 41.1949C156.223 41.2648 159.074 40.153 161.194 38.1074L165.12 42.3637C162.039 45.5414 157.742 47.2439 153.321 47.039C143.728 47.039 137.531 40.6435 137.531 31.9987C137.441 28.0019 138.981 24.1406 141.798 21.3033C144.614 18.4661 148.464 16.8974 152.461 16.9584ZM49.627 16.9584C59.154 16.9584 64.5571 24.2359 64.0719 34.3363H41.6217C42.2696 38.605 46.1463 41.6192 50.443 41.1949C53.3885 41.2648 56.2395 40.153 58.3601 38.1074L62.2856 42.3637C59.2048 45.5414 54.9083 47.2439 50.4871 47.039C40.894 47.039 34.697 40.6435 34.697 31.9987C34.6066 28.0019 36.1469 24.1406 38.9634 21.3033C41.7798 18.4661 45.6297 16.8974 49.627 16.9584ZM194.715 22.3614L189.577 25.3607C188.136 23.2212 185.692 21.9784 183.115 22.0747C179.829 22.0747 178.153 23.6846 178.153 25.5371C178.153 27.3896 180.8 28.1835 184.968 29.1097C185.062 29.1304 185.158 29.1514 185.253 29.1726L185.539 29.2369C185.683 29.2694 185.826 29.3026 185.97 29.3365L186.258 29.4053C186.355 29.4285 186.451 29.4522 186.547 29.4762L186.835 29.5493L187.123 29.625C191.196 30.7157 195.068 32.6118 195.068 37.7105C195.068 41.7021 191.606 47.061 183.402 47.0169C178.251 47.3948 173.337 44.8005 170.743 40.3348L176.279 37.3576C177.768 40.0245 180.613 41.6463 183.667 41.5698C187.129 41.5698 188.915 39.7835 188.915 37.7546C188.915 35.7257 185.563 34.9318 181.924 34.1819C181.826 34.1612 181.728 34.1403 181.629 34.119L181.334 34.0546C181.285 34.0437 181.235 34.0327 181.186 34.0217L180.891 33.9546C176.321 32.8988 171.934 31.1188 171.934 25.5812C171.934 21.0162 176.345 16.7599 183.093 16.7599C187.677 16.484 192.076 18.6042 194.715 22.3614ZM131.731 4.27778V46.4435H125.6V42.474C123.25 45.3834 119.703 47.0637 115.963 47.0392C112.042 47.0057 108.301 45.3894 105.589 42.5573C102.878 39.7251 101.425 35.9173 101.562 31.9987C101.394 28.0659 102.842 24.2354 105.571 21.3983C108.3 18.5612 112.071 16.9648 116.007 16.9804C119.701 16.9531 123.216 18.5692 125.6 21.3911V4.27778H131.731ZM29.4924 17.6641V23.3097L12.1586 40.9523H29.8012V46.5097H4.13124V40.8861L21.4651 23.2435H4.52819V17.6641H29.4924ZM206.161 4.27778V31.8884L219.15 17.5097H226.604L215.335 29.8816L226.869 46.4435H219.966L211.012 33.6306L206.161 38.9454V46.4656H200.03V4.27778H206.161ZM83.3464 16.9804C90.624 16.9804 96.7548 21.7219 96.7548 29.5728V46.4435H90.4475V30.3447C90.4475 25.6253 88.154 22.7804 83.5228 22.7804C81.4972 22.6307 79.5099 23.3894 78.0994 24.851C76.689 26.3126 76.0015 28.3257 76.2232 30.3447V46.4435H69.9822V29.5728C69.9822 21.7219 76.0688 16.9804 83.3464 16.9804ZM116.801 22.8686C111.759 22.8686 107.671 26.9563 107.671 31.9987C107.671 37.0411 111.759 41.1287 116.801 41.1287C121.844 41.1287 125.931 37.0411 125.931 31.9987C125.931 26.9563 121.844 22.8686 116.801 22.8686ZM144.412 29.5067L160.136 29.5287C159.922 25.5522 156.526 22.5015 152.549 22.7143C148.469 22.4747 144.905 25.4491 144.412 29.5067ZM41.6217 29.5067L57.3016 29.5287C57.0764 25.561 53.6836 22.5233 49.7152 22.7363C45.6588 22.5198 42.1252 25.4758 41.6217 29.5067Z" fill="#03363D"/>
</svg>
