<svg width="267" height="45" viewBox="0 0 267 45" fill="none" xmlns="http://www.w3.org/2000/svg">
<path d="M17.0679 3.70833V33.325L4.52569 40.732L4.5144 11.1089L17.0679 3.70833Z" fill="#F96B13"/>
<path d="M29.6166 25.9132V40.2677L17.0679 40.2741V33.325L29.6166 25.9132Z" fill="#F96B13"/>
<path d="M42.1815 6.92327H49.574V34.3488H62.8547V40.2741H42.1815V6.92327Z" fill="#282C33"/>
<path d="M65.143 31.5975V15.8828H71.7126V30.6643C71.7126 33.9758 73.0371 35.5594 75.8637 35.5594C78.6488 35.5594 80.8368 33.7892 80.8368 30.1947V15.8828H87.4064V40.2738H80.8368V36.4505C79.6068 38.9251 77.1883 40.7856 73.2618 40.7856C68.6081 40.7856 65.143 37.9858 65.143 31.5975ZM90.4224 28.3824V28.0091C90.4224 20.1275 95.9448 15.3228 102.745 15.3228C108.269 15.3228 113.377 17.7974 113.974 24.7878H107.724C107.269 21.9459 105.578 20.6394 102.887 20.6394C99.4639 20.6394 97.1813 23.2525 97.1813 27.9127V28.2861C97.1813 33.1811 99.3278 35.7039 103.023 35.7039C105.672 35.7039 107.813 34.1204 108.133 30.9955H114.11C113.744 36.7817 109.64 40.7916 102.698 40.7916C95.7206 40.7857 90.4224 36.3542 90.4224 28.3824ZM116.576 8.88636C116.576 6.78503 118.22 5.20151 120.319 5.20151C122.466 5.20151 124.11 6.78503 124.11 8.88636C124.11 10.9877 122.466 12.5712 120.319 12.5712C118.22 12.5712 116.576 10.9817 116.576 8.88636ZM117.079 15.8828H123.648V40.2738H117.079V15.8828ZM126.936 28.4245V28.0512C126.936 20.0312 131.454 15.3168 137.432 15.3168C141.264 15.3168 143.641 17.0448 144.966 19.5134V4.82822H151.536V40.2738H144.966V36.2157C143.736 38.6903 140.815 40.7856 137.297 40.7856C131.501 40.7856 126.936 36.5408 126.936 28.4245ZM145.143 28.1957V27.8224C145.143 22.9695 143.044 20.5009 139.437 20.5009C135.741 20.5009 133.683 23.0658 133.683 27.9188V28.292C133.683 33.145 135.966 35.5233 139.254 35.5233C142.725 35.5172 145.143 33.1389 145.143 28.1957ZM154.592 28.3824V28.0091C154.592 20.1275 160.116 15.3228 166.916 15.3228C172.439 15.3228 177.548 17.7974 178.145 24.7878H171.895C171.44 21.9459 169.749 20.6394 167.058 20.6394C163.634 20.6394 161.351 23.2525 161.351 27.9127V28.2861C161.351 33.1811 163.498 35.7039 167.194 35.7039C169.843 35.7039 171.983 34.1204 172.302 30.9955H178.281C177.915 36.7817 173.81 40.7916 166.868 40.7916C159.885 40.7857 154.592 36.3542 154.592 28.3824ZM181.06 4.82822H187.677V19.7543C188.866 17.3278 191.468 15.3228 195.435 15.3228C200.137 15.3228 203.465 18.2129 203.465 24.7457V40.2738H196.849V25.7211C196.849 22.4095 195.571 20.826 192.65 20.826C189.818 20.826 187.677 22.5962 187.677 26.1908V40.2738H181.06V4.82822ZM206.21 33.5123C206.21 27.8224 211.318 25.6789 218.622 25.6789H221.312V24.6976C221.312 21.8074 220.442 20.2179 217.432 20.2179C214.831 20.2179 213.642 21.5726 213.371 23.6679H207.12C207.528 17.8817 212.004 15.3168 217.847 15.3168C223.688 15.3168 227.84 17.7433 227.84 24.3663V40.2679H221.406V37.3296C220.034 39.2864 217.935 40.7796 214.192 40.7796C209.864 40.7857 206.21 38.6422 206.21 33.5123ZM221.318 31.7361V29.6829H218.763C214.932 29.6829 212.69 30.5198 212.69 33.1329C212.69 34.9031 213.742 36.0712 216.161 36.0712C219.082 36.0772 221.318 34.4455 221.318 31.7361ZM232.133 15.8828H238.75V20.549C240.257 17.2856 242.582 15.5576 246.461 15.5094V21.8074C241.577 21.7592 238.75 23.391 238.75 28.0572V40.2738H232.133V15.8828ZM250.754 33.0426V20.6815H247.697V15.8768H250.754V10.6084H257.323V15.8768H262.343V20.6815H257.323V32.4345C257.323 34.3913 258.281 35.3246 259.973 35.3246C260.978 35.3246 261.705 35.1861 262.486 34.8609V40.0872C261.575 40.4123 260.25 40.7375 258.47 40.7375C253.444 40.7375 250.754 38.1244 250.754 33.0426Z" fill="#282C33"/>
</svg>
