<svg  viewBox="95 25 150 32" fill="none" xmlns="http://www.w3.org/2000/svg"><defs>
<clipPath id="clip0_0_3012">
<rect width="50" height="32.1839" fill="white" transform="translate(20 25)"/>
</clipPath>
<clipPath id="clip1_0_3012">
<rect width="100" height="19.7605" fill="white" transform="translate(109 31)"/>
</clipPath>
</defs><g clip-path="url(#clip0_0_3012)">
<path d="M52.5492 41.259C52.521 40.4326 52.2733 39.5567 51.6429 38.9797C50.9383 38.336 49.9187 38.04 48.9716 38.04H44.7498C44.3331 38.04 43.963 37.7314 43.963 37.3504C43.963 37.0303 44.1848 36.7619 44.486 36.6837C44.4848 36.6837 44.5567 36.6653 44.6342 36.6412C45.39 36.9987 46.2429 37.1602 47.094 37.1602C48.3963 37.1602 49.7015 36.7831 50.6572 35.9027C51.5871 35.0464 52.0216 33.8475 52.0216 32.6217C52.0216 31.3952 51.5871 30.1964 50.6567 29.3401C50.3846 29.0906 50.0818 28.877 49.7555 28.7044C50.6521 28.909 51.5773 28.6556 52.2153 27.5722L50.421 26.3021L48.9233 28.3556C48.3308 28.1719 47.7137 28.0802 47.0934 28.0837C45.7917 28.0837 44.486 28.4608 43.5308 29.3412C42.6003 30.1975 42.1658 31.3958 42.1658 32.6222C42.1658 33.8487 42.6003 35.0464 43.5308 35.9038C43.6112 35.9785 43.6952 36.0487 43.7808 36.1165L43.6067 36.2073C43.2624 36.3969 42.8423 36.6998 42.4262 37.1366C41.836 37.7544 41.2463 38.682 41.2463 39.9142C41.2463 39.9142 41.1641 42.5452 44.2302 42.5452H46.4515C46.9624 42.5452 47.4831 42.8659 47.4831 43.3694C47.4831 43.5515 47.4285 43.7222 47.3348 43.8648H51.5819C52.225 43.1607 52.5802 42.1625 52.5492 41.259ZM46.3406 31.8107C46.5503 31.6038 46.8377 31.5148 47.1239 31.5148C47.4101 31.5148 47.6969 31.6038 47.9066 31.8107C48.1112 32.0119 48.2067 32.2941 48.2067 32.5826C48.2067 32.8711 48.1112 33.1527 47.9066 33.3544C47.6969 33.5613 47.4101 33.6504 47.1239 33.6504C46.8377 33.6504 46.5503 33.5619 46.3406 33.3544C46.136 33.1533 46.0406 32.8717 46.0406 32.5826C46.0406 32.2941 46.136 32.0125 46.3406 31.8107Z" fill="#E57CD8"/>
<path d="M64.6437 41.259C64.615 40.4326 64.3679 39.5567 63.7368 38.9797C63.0328 38.336 62.0133 38.04 61.0661 38.04L56.1644 38.005C55.8558 38.005 55.6196 37.8136 55.6196 37.5314C55.6196 37.2987 55.7368 36.9515 56.0322 36.8935C56.6191 37.0735 57.2299 37.1634 57.8437 37.1602C59.146 37.1602 60.4512 36.7831 61.4069 35.9027C62.3368 35.0464 62.7713 33.8475 62.7713 32.6217C62.7713 31.3952 62.3368 30.1964 61.4069 29.3401C61.1351 29.0905 60.8325 28.8767 60.5064 28.7038C61.4029 28.9084 62.3282 28.655 62.9656 27.5717L61.1713 26.3021L59.6742 28.3556C59.0815 28.1719 58.4642 28.0802 57.8437 28.0837C56.542 28.0837 55.2368 28.4608 54.2811 29.3412C53.3506 30.197 52.9161 31.3952 52.9161 32.6217C52.9161 33.8481 53.3512 35.0458 54.2811 35.9033C54.5569 36.1567 54.8615 36.3688 55.1868 36.5418C54.9719 36.7027 54.746 36.8998 54.5202 37.136C53.9311 37.7544 53.3409 38.682 53.3409 39.9142C53.3409 39.9142 53.2592 42.5452 56.3253 42.5452H58.546C59.0569 42.5452 59.5776 42.8659 59.5776 43.3694C59.5776 43.5515 59.523 43.7222 59.4294 43.8648H63.6765C64.3196 43.1607 64.6753 42.1625 64.6437 41.259ZM57.1207 31.8107C57.3305 31.6038 57.6173 31.5148 57.9041 31.5148C58.1903 31.5148 58.4771 31.6038 58.6874 31.8107C58.8914 32.0119 58.9874 32.2941 58.9874 32.5826C58.9874 32.8711 58.8914 33.1527 58.6874 33.3544C58.4771 33.5613 58.1903 33.6504 57.9041 33.6504C57.6173 33.6504 57.3305 33.5619 57.1207 33.3544C56.9161 33.1533 56.8207 32.8717 56.8207 32.5826C56.8207 32.2941 56.9161 32.0125 57.1207 31.8107Z" fill="#E57CD8"/>
<path d="M69.783 39.9092V35.9822C68.868 36.0966 68.5496 35.4609 68.5496 34.8293V25.2402H64.0117V35.546C64.0117 36.8259 64.2048 37.8931 64.6732 38.5644C65.3933 39.5868 66.3669 40.2558 68.3037 40.2638C68.6611 40.2483 69.2577 40.1788 69.783 39.9092Z" fill="#E57CD8"/>
<path d="M39.7117 29.796C38.5393 28.6178 36.9399 28.1127 35.3427 28.1127C33.7462 28.1127 32.1456 28.6184 30.9749 29.796C29.8335 30.9431 29.3008 32.5471 29.3008 34.1885C29.3008 35.8305 29.8335 37.4339 30.9743 38.581C32.1456 39.7592 33.7462 40.2638 35.3427 40.2638C36.9399 40.2638 38.5399 39.7592 39.7117 38.581C40.8519 37.4339 41.3853 35.8299 41.3853 34.1885C41.3853 32.5471 40.8519 30.9425 39.7117 29.796ZM36.3301 35.1333C36.0588 35.4012 35.6881 35.515 35.3186 35.515C34.9485 35.515 34.5778 35.4012 34.3071 35.1333C34.0427 34.873 33.9192 34.5086 33.9192 34.1362C33.9192 33.7632 34.0422 33.3994 34.3065 33.1391C34.5778 32.8719 34.9485 32.7569 35.318 32.7569C35.6881 32.7569 36.0594 32.8719 36.3301 33.1391C36.5945 33.3994 36.718 33.7632 36.718 34.1362C36.718 34.5086 36.5945 34.873 36.3301 35.1333Z" fill="#E57CD8"/>
<path d="M27.6638 35.9977C26.9086 35.9977 26.6 35.7701 26.3207 35.4207C26.1402 35.1926 26.0506 34.8575 26.0506 34.423V32.3903H28.5828V28.7466H26.05V25.2402H22.8126V26.5506C22.8126 28.0029 21.6902 29.1805 20.3057 29.1805C20.2035 29.1801 20.1014 29.1734 20 29.1603V32.3903H21.7V35.6362C21.7 36.9132 21.9339 37.8977 22.4011 38.5678C23.1236 39.5937 23.9241 40.2644 25.8787 40.2644C27.0121 40.2644 27.9609 40.0075 28.5828 39.665V35.8471C28.3483 35.9357 28.031 35.9977 27.6632 35.9977" fill="#E57CD8"/>
<path d="M25.4707 56.9494C25.2115 56.9828 24.9506 56.9989 24.6891 56.9977C23.8184 56.9977 23.1655 56.7965 22.7299 56.3942C22.2948 55.9908 22.077 55.2885 22.077 54.2879V48.2046H20V47.1517H22.077V44.5391H23.2839V47.1517H26.1529V48.2046H23.2839V54.346C23.2839 54.8661 23.3897 55.2529 23.6006 55.5069C23.8115 55.7598 24.1943 55.8862 24.7483 55.8862C25.0517 55.8862 25.3155 55.8741 25.5397 55.8477C25.7638 55.8218 25.9879 55.7891 26.2121 55.75V56.8034C25.9615 56.8684 25.7144 56.9166 25.4707 56.9494Z" fill="#E57CD8"/>
<path d="M30.2862 47.4263C30.8138 47.0229 31.4529 46.8212 32.2052 46.8212C32.4822 46.8212 32.8052 46.8545 33.1747 46.9189V48.1671C33.0052 48.1304 32.8334 48.1042 32.6604 48.0889C32.5023 48.0759 32.3437 48.0694 32.1851 48.0694C31.6046 48.0694 31.1201 48.1797 30.7311 48.401C30.3477 48.6163 30.0247 48.9247 29.7914 49.2975C29.5541 49.6746 29.3857 50.1228 29.2868 50.6429C29.1857 51.1896 29.1362 51.7445 29.1385 52.3004V56.8044H27.9316V47.0556H29.0989V49.2786C29.3632 48.4464 29.7587 47.8292 30.2862 47.4263ZM34.6374 48.2447C34.8345 47.9463 35.0903 47.691 35.3885 47.4942C35.7052 47.2798 36.088 47.1142 36.5362 46.997C36.9845 46.8797 37.519 46.8212 38.1391 46.8212C39.4575 46.8212 40.4339 47.12 41.0667 47.7182C41.7 48.3159 42.0167 49.2136 42.0167 50.409V56.8044H40.8098V54.7182C40.5064 55.4596 40.0351 56.0246 39.3949 56.4142C38.7552 56.8044 38.0201 56.9998 37.1891 56.9998C36.6483 56.9998 36.1701 56.9246 35.7546 56.7757C35.3391 56.6263 34.9931 56.4211 34.7161 56.1608C34.4385 55.8997 34.2219 55.5801 34.0828 55.2251C33.9362 54.8528 33.8627 54.4558 33.8655 54.0556C33.8655 53.1452 34.165 52.4498 34.7655 51.9694C35.3655 51.4878 36.1207 51.2021 37.0311 51.1108L40.315 50.7993C40.6449 50.7602 40.8092 50.624 40.8092 50.3895V50.0389C40.8092 49.3757 40.6052 48.8521 40.1966 48.4694C39.7874 48.0861 39.1219 47.8941 38.1983 47.8941C36.523 47.8941 35.5535 48.505 35.2903 49.7269L34.2213 49.1608C34.3133 48.8364 34.4535 48.5276 34.6368 48.2447H34.6374ZM37.2087 52.2217C36.4569 52.3004 35.923 52.5113 35.6064 52.8562C35.2903 53.201 35.1316 53.6004 35.1316 54.0556C35.1316 54.6142 35.3196 55.0596 35.6949 55.3906C36.0713 55.7223 36.6219 55.8878 37.3477 55.8878C37.9012 55.8878 38.3926 55.7935 38.8213 55.6056C39.2288 55.4316 39.5989 55.1798 39.9098 54.8642C40.2023 54.5656 40.4311 54.2107 40.5822 53.8211C40.7316 53.4423 40.8092 53.0388 40.8098 52.6315V51.8332L37.2087 52.2228V52.2217ZM43.7931 49.9021C44.0276 49.2932 44.3845 48.739 44.842 48.274C45.3081 47.8053 45.8673 47.44 46.4839 47.2016C47.1236 46.9481 47.8328 46.8217 48.6104 46.8217C49.323 46.8217 49.9661 46.932 50.5397 47.1527C51.1029 47.3672 51.6173 47.6922 52.0529 48.1085L51.2816 49.0441C50.9098 48.7128 50.4851 48.4459 50.0253 48.2544C49.5575 48.0636 49.0564 47.9677 48.5512 47.9723C47.9845 47.9723 47.4632 48.0659 46.988 48.2544C46.5299 48.4321 46.1127 48.7008 45.7615 49.0441C45.419 49.382 45.1518 49.7981 44.9604 50.2918C44.7696 50.7861 44.6736 51.332 44.6736 51.9297C44.6736 52.5274 44.7696 53.0705 44.961 53.5579C45.1385 54.0247 45.4115 54.4495 45.7615 54.8056C46.111 55.1544 46.5288 55.4269 46.9885 55.6056C47.4805 55.7973 48.0041 55.8932 48.5316 55.8884C49.0857 55.8884 49.6035 55.7872 50.0845 55.5861C50.5661 55.3849 50.9983 55.1148 51.3805 54.7769L52.1121 55.7125C51.6903 56.1027 51.1828 56.4211 50.5891 56.6677C49.9954 56.9148 49.3161 57.0384 48.5512 57.0384C47.773 57.0384 47.0673 56.9119 46.4345 56.6585C45.8012 56.405 45.2604 56.0539 44.8121 55.6056C44.3581 55.1487 44.0075 54.6 43.7834 53.9964C43.546 53.3728 43.427 52.6907 43.427 51.9493C43.427 51.2085 43.5489 50.5263 43.7931 49.9021Z" fill="#E57CD8"/>
<path d="M54.7635 53.8995V56.8047H53.5566V43.9656H54.7635V52.3788L59.9664 47.0558H61.6681L57.375 51.3064L61.767 56.8047H60.1842L56.5635 52.1253L54.7635 53.8995Z" fill="#E57CD8"/>
</g><g clip-path="url(#clip1_0_3012)">
<path d="M170.981 46.4503C170.711 46.4851 170.439 46.5019 170.167 46.5006C169.26 46.5006 168.579 46.291 168.126 45.8719C167.672 45.4515 167.445 44.7198 167.445 43.6773V37.3389H165.281V36.2419H167.445V33.5198H168.703V36.2419H171.692V37.3389H168.703V43.7377C168.703 44.2796 168.813 44.6826 169.033 44.9473C169.253 45.2108 169.651 45.3425 170.229 45.3425C170.545 45.3425 170.82 45.3299 171.053 45.3024C171.287 45.2755 171.52 45.2413 171.754 45.2006V46.2982C171.493 46.3659 171.235 46.4162 170.981 46.4503Z" fill="#E57CD8"/>
<path d="M142.914 47.9404C142.884 47.0793 142.626 46.1667 141.969 45.5655C141.235 44.8949 140.173 44.5865 139.186 44.5865H134.787C134.353 44.5865 133.967 44.2649 133.967 43.8679C133.967 43.5344 134.199 43.2548 134.512 43.1733C134.511 43.1733 134.586 43.1542 134.667 43.129C135.454 43.5015 136.343 43.6697 137.23 43.6697C138.587 43.6697 139.947 43.2769 140.942 42.3595C141.911 41.4673 142.364 40.2182 142.364 38.941C142.364 37.6631 141.911 36.4141 140.942 35.5218C140.658 35.262 140.343 35.0394 140.003 34.8596C140.937 35.0727 141.901 34.8087 142.566 33.6799L140.696 32.3566L139.136 34.4961C138.518 34.3047 137.875 34.2092 137.229 34.2129C135.873 34.2129 134.512 34.6057 133.517 35.523C132.548 36.4152 132.095 37.6637 132.095 38.9416C132.095 40.2194 132.548 41.4673 133.517 42.3607C133.601 42.4386 133.688 42.5116 133.778 42.5823L133.596 42.6769C133.238 42.8745 132.8 43.1901 132.366 43.6452C131.751 44.2889 131.137 45.2554 131.137 46.5392C131.137 46.5392 131.051 49.2805 134.246 49.2805H136.56C137.093 49.2805 137.635 49.6146 137.635 50.1392C137.635 50.329 137.578 50.5069 137.481 50.6554H141.906C142.576 49.9218 142.946 48.8817 142.914 47.9404ZM136.445 38.0961C136.663 37.8805 136.963 37.7877 137.261 37.7877C137.559 37.7877 137.858 37.8805 138.076 38.0961C138.29 38.3057 138.389 38.5997 138.389 38.9003C138.389 39.2009 138.29 39.4943 138.076 39.7045C137.858 39.92 137.559 40.0128 137.261 40.0128C136.963 40.0128 136.663 39.9206 136.445 39.7045C136.232 39.4949 136.132 39.2015 136.132 38.9003C136.132 38.5997 136.232 38.3063 136.445 38.0961Z" fill="#E57CD8"/>
<path d="M155.514 47.9404C155.484 47.0793 155.227 46.1667 154.569 45.5655C153.836 44.8949 152.773 44.5865 151.787 44.5865L146.679 44.55C146.358 44.55 146.112 44.3506 146.112 44.0566C146.112 43.814 146.234 43.4524 146.542 43.3919C147.153 43.5794 147.789 43.6731 148.429 43.6697C149.786 43.6697 151.146 43.2769 152.142 42.3595C153.11 41.4673 153.563 40.2182 153.563 38.941C153.563 37.6631 153.11 36.4141 152.142 35.5218C151.858 35.2618 151.543 35.039 151.203 34.859C152.137 35.0721 153.102 34.8081 153.766 33.6793L151.896 32.3566L150.336 34.4961C149.719 34.3047 149.076 34.2092 148.429 34.2129C147.073 34.2129 145.713 34.6057 144.717 35.523C143.748 36.4147 143.295 37.6631 143.295 38.941C143.295 40.2188 143.748 41.4667 144.717 42.3601C145.005 42.6242 145.322 42.8452 145.661 43.0254C145.437 43.1931 145.202 43.3985 144.966 43.6446C144.352 44.2889 143.737 45.2554 143.737 46.5392C143.737 46.5392 143.652 49.2805 146.847 49.2805H149.161C149.693 49.2805 150.236 49.6146 150.236 50.1392C150.236 50.329 150.179 50.5069 150.081 50.6554H154.506C155.176 49.9218 155.547 48.8817 155.514 47.9404ZM147.676 38.0961C147.894 37.8805 148.193 37.7877 148.492 37.7877C148.79 37.7877 149.089 37.8805 149.308 38.0961C149.521 38.3057 149.621 38.5997 149.621 38.9003C149.621 39.2009 149.521 39.4943 149.308 39.7045C149.089 39.92 148.79 40.0128 148.492 40.0128C148.193 40.0128 147.894 39.9206 147.676 39.7045C147.463 39.4949 147.363 39.2015 147.363 38.9003C147.363 38.5997 147.463 38.3063 147.676 38.0961Z" fill="#E57CD8"/>
<path d="M160.871 46.5341V42.4425C159.917 42.5616 159.586 41.8994 159.586 41.2413V31.2502H154.858V41.988C154.858 43.3215 155.059 44.4335 155.547 45.1329C156.297 46.1982 157.311 46.8952 159.329 46.9036C159.702 46.8874 160.323 46.8149 160.871 46.5341Z" fill="#E57CD8"/>
<path d="M129.537 35.9969C128.315 34.7694 126.649 34.243 124.985 34.243C123.321 34.243 121.654 34.77 120.434 35.9969C119.245 37.1921 118.689 38.8634 118.689 40.5736C118.689 42.2843 119.245 43.955 120.433 45.1502C121.654 46.3778 123.321 46.9035 124.985 46.9035C126.649 46.9035 128.316 46.3778 129.537 45.1502C130.725 43.955 131.28 42.2837 131.28 40.5736C131.28 38.8634 130.725 37.1915 129.537 35.9969ZM126.013 41.558C125.731 41.837 125.345 41.9556 124.96 41.9556C124.574 41.9556 124.188 41.837 123.906 41.558C123.63 41.2867 123.501 40.9071 123.501 40.5191C123.501 40.1305 123.63 39.7514 123.905 39.4802C124.188 39.2017 124.574 39.082 124.959 39.082C125.345 39.082 125.731 39.2017 126.013 39.4802C126.289 39.7514 126.418 40.1305 126.418 40.5191C126.418 40.9071 126.289 41.2867 126.013 41.558Z" fill="#E57CD8"/>
<path d="M116.985 42.4586C116.198 42.4586 115.877 42.2215 115.586 41.8574C115.398 41.6197 115.304 41.2706 115.304 40.8179V38.7H117.943V34.9035H115.304V31.2502H111.931V32.6155C111.931 34.1287 110.761 35.3556 109.319 35.3556C109.212 35.3553 109.106 35.3483 109 35.3347V38.7H110.771V42.082C110.771 43.4125 111.015 44.4383 111.502 45.1365C112.254 46.2054 113.089 46.9042 115.125 46.9042C116.306 46.9042 117.295 46.6365 117.943 46.2796V42.3018C117.698 42.394 117.368 42.4586 116.984 42.4586" fill="#E57CD8"/>
<path d="M176 36.5279C176.55 36.1075 177.216 35.8973 178 35.8973C178.288 35.8973 178.625 35.9321 179.01 35.9991V37.2997C178.833 37.2615 178.654 37.2342 178.474 37.2183C178.309 37.2048 178.144 37.198 177.979 37.1979C177.374 37.1979 176.869 37.3129 176.464 37.5434C176.064 37.7678 175.728 38.0891 175.485 38.4776C175.237 38.8704 175.062 39.3375 174.959 39.8794C174.853 40.4489 174.802 41.0271 174.804 41.6063V46.2991H173.547V36.1417H174.763V38.4578C175.038 37.5907 175.45 36.9476 176 36.5279ZM180.534 37.3806C180.739 37.0697 181.006 36.8036 181.316 36.5985C181.646 36.3752 182.045 36.2027 182.512 36.0806C182.979 35.9584 183.536 35.8973 184.182 35.8973C185.556 35.8973 186.573 36.2087 187.233 36.8321C187.892 37.4548 188.222 38.3901 188.222 39.6357V46.2991H186.965V44.1255C186.649 44.8979 186.158 45.4866 185.491 45.8925C184.824 46.2991 184.058 46.5027 183.192 46.5027C182.629 46.5027 182.131 46.4243 181.698 46.2692C181.265 46.1135 180.904 45.8997 180.616 45.6285C180.327 45.3564 180.101 45.0234 179.956 44.6536C179.803 44.2657 179.727 43.852 179.73 43.4351C179.73 42.4866 180.041 41.762 180.667 41.2614C181.292 40.7596 182.079 40.462 183.028 40.3668L186.449 40.0422C186.793 40.0015 186.964 39.8596 186.964 39.6153V39.25C186.964 38.559 186.752 38.0135 186.326 37.6147C185.9 37.2153 185.206 37.0153 184.244 37.0153C182.498 37.0153 181.488 37.6518 181.214 38.9249L180.1 38.3351C180.196 37.9971 180.342 37.6754 180.533 37.3806H180.534ZM183.213 41.5243C182.43 41.6063 181.873 41.8261 181.543 42.1854C181.214 42.5446 181.049 42.9608 181.049 43.4351C181.049 44.0171 181.244 44.4812 181.635 44.8261C182.028 45.1716 182.601 45.344 183.358 45.344C183.934 45.344 184.446 45.2458 184.893 45.05C185.318 44.8687 185.703 44.6064 186.027 44.2776C186.332 43.9664 186.57 43.5967 186.728 43.1907C186.883 42.7961 186.964 42.3756 186.965 41.9512V41.1195L183.213 41.5255V41.5243ZM190.073 39.1075C190.318 38.4731 190.689 37.8957 191.166 37.4111C191.652 36.9228 192.234 36.5421 192.877 36.2937C193.543 36.0297 194.282 35.8979 195.092 35.8979C195.835 35.8979 196.505 36.0129 197.103 36.2428C197.689 36.4663 198.225 36.8049 198.679 37.2387L197.876 38.2135C197.488 37.8683 197.046 37.5903 196.567 37.3907C196.079 37.1919 195.557 37.092 195.031 37.0967C194.44 37.0967 193.897 37.1943 193.402 37.3907C192.925 37.5759 192.49 37.8558 192.124 38.2135C191.767 38.5656 191.489 38.9991 191.289 39.5135C191.091 40.0285 190.991 40.5973 190.991 41.2201C190.991 41.8428 191.091 42.4087 191.29 42.9165C191.475 43.4028 191.759 43.8455 192.124 44.2165C192.488 44.58 192.924 44.8638 193.403 45.05C193.915 45.2497 194.461 45.3497 195.01 45.3446C195.588 45.3446 196.127 45.2392 196.628 45.0297C197.13 44.8201 197.58 44.5387 197.979 44.1866L198.741 45.1614C198.301 45.568 197.773 45.8997 197.154 46.1566C196.535 46.4141 195.828 46.5428 195.031 46.5428C194.22 46.5428 193.485 46.4111 192.825 46.147C192.165 45.883 191.602 45.5171 191.135 45.05C190.662 44.574 190.297 44.0023 190.063 43.3734C189.816 42.7237 189.692 42.0129 189.692 41.2404C189.692 40.4686 189.819 39.7578 190.073 39.1075Z" fill="#E57CD8"/>
<path d="M201.504 43.2724V46.2994H200.246V32.9221H201.504V41.688L206.925 36.1419H208.698L204.225 40.5706L208.801 46.2994H207.151L203.379 41.4239L201.504 43.2724Z" fill="#E57CD8"/>
</g></svg>