<svg width="109" height="109" viewBox="0 0 109 109" fill="none" xmlns="http://www.w3.org/2000/svg">
<circle cx="54.5" cy="54.5001" r="51.775" fill="#293E40"/>
<path fill-rule="evenodd" clip-rule="evenodd" d="M14.9875 64.8806V44.0805H20.3085V45.8542C21.9209 44.5643 23.8558 43.7581 26.1131 43.7581C29.0155 43.7581 31.5953 45.048 33.369 47.1441C34.6589 48.7565 35.6264 50.8527 35.6264 54.4V65.0419H29.9829V53.9162C29.9829 51.8201 29.4992 50.6914 28.693 50.0465C27.8868 49.2402 26.9193 48.7565 25.4682 48.7565C23.2108 48.7565 21.2759 50.2077 20.3085 51.3364V64.8806H14.9875Z" fill="white"/>
<path fill-rule="evenodd" clip-rule="evenodd" d="M49.977 43.6001C43.2048 43.6001 37.8839 48.921 37.8839 55.6932C37.8839 59.2405 39.3351 62.4653 41.5924 64.7227C42.3986 65.5289 43.8498 65.5289 44.8172 64.8839C46.1072 63.7552 48.0421 63.1103 49.977 63.1103C52.0731 63.1103 53.6855 63.7552 55.1367 64.8839C56.1041 65.6901 57.394 65.5289 58.3615 64.5614C60.6189 62.304 62.07 59.2405 62.07 55.6932C61.9088 49.0823 56.5878 43.6001 49.977 43.6001ZM49.8157 61.9816C46.1072 61.9816 43.6886 59.2405 43.6886 55.8544C43.6886 52.4684 46.1072 49.7273 49.8157 49.7273C53.5243 49.7273 55.9429 52.4684 55.9429 55.8544C55.9429 59.2405 53.5243 61.9816 49.8157 61.9816Z" fill="#81B5A1"/>
<path fill-rule="evenodd" clip-rule="evenodd" d="M60.6185 44.084H66.1007L70.6154 56.0158L75.1302 44.084H79.8061L84.1597 56.0158L88.6744 44.084H94.3178L86.0945 64.8841H81.9023L77.3875 53.1135L73.034 64.8841H68.8418L60.6185 44.084Z" fill="white"/>
</svg>
