<svg  viewBox="20 16 220 50" fill="none" xmlns="http://www.w3.org/2000/svg"><defs>
<clipPath id="clip0_0_743">
<rect width="100" height="23.7624" fill="white" transform="translate(85 29)"/>
</clipPath>
</defs><path d="M60.439 16.2705H59.9023L39.5929 16C38.6517 16 38.115 16.2705 37.7104 16.9434L37.5741 17.2117L30.3103 29.9889L28.1594 33.8881C28.0253 34.0244 28.0253 34.2927 28.0253 34.561C28.0253 35.0998 28.4299 35.3681 29.1007 35.3681H33.8091C34.6162 35.5023 35.155 36.1752 34.7504 36.8482C34.7504 36.9824 34.6162 37.1166 34.6162 37.1166L27.3524 49.2208C27.3524 49.2208 27.084 49.4913 27.084 49.6255C26.8157 50.2984 27.2182 50.835 27.8911 50.9713H32.7316C33.5408 51.1055 33.9454 51.7763 33.5408 52.5834L33.4066 52.988L27.6228 64.956C27.6228 64.956 27.4886 65.2264 27.4886 65.3606C27.3531 65.6297 27.4872 65.7638 27.6207 65.8973L27.6228 65.8994C27.8911 66.0335 28.0253 66.0335 28.2936 65.8994C28.4299 65.8994 28.6982 65.6311 28.6982 65.6311L50.083 49.7596L50.3513 49.4913C50.493 49.3554 50.5935 49.1827 50.6412 48.9923C50.6891 48.8022 50.6823 48.6024 50.6218 48.4159C50.3513 48.1454 49.9489 47.875 49.5464 47.875H46.1838C45.2405 47.875 44.838 47.2042 45.2405 46.5334C45.2405 46.3992 45.3726 46.267 45.5048 46.1349L45.5109 46.1288L54.6551 35.7727L55.0597 35.3681C55.4622 34.6973 55.0598 34.0244 54.2527 33.8881H49.1418C48.2005 33.7539 47.7959 33.0831 48.2005 32.4102C48.2005 32.276 48.471 32.0056 48.471 32.0056L60.8436 17.8846C60.9777 17.8846 60.9777 17.7505 61.1119 17.6142C61.5165 17.0775 61.1119 16.4046 60.439 16.2705Z" fill="#111111"/><g clip-path="url(#clip0_0_743)">
<path d="M121.519 52.3246L118.518 45.3206H115.953V52.3246H109.139V29.3127H121.145C126.398 29.3127 129.212 32.8771 129.212 37.2533C129.212 41.2563 126.96 43.3197 125.147 44.2583L129.212 52.387H121.52V52.3246H121.519ZM122.332 37.6296C122.332 36.0652 121.269 35.3781 120.081 35.3781H115.953V39.9424H120.081C121.269 39.9424 122.332 39.2553 122.332 37.6296Z" fill="#111111"/>
<path d="M146.971 52.3246V29.3127H164.104V35.3781H153.787V38.4424H163.854V44.5078H153.787V52.3246H146.971Z" fill="#111111"/>
<path d="M85 52.3246V29.3127H95.1307C102.259 29.3127 107.512 33.4395 107.512 40.8177C107.512 48.1969 102.196 52.387 95.1307 52.387H85V52.3246ZM100.57 40.8187C100.57 37.692 98.8198 35.3781 95.1307 35.3781H91.8782V46.2593H95.1307C98.5693 46.2593 100.57 43.6949 100.57 40.8187Z" fill="#111111"/>
<path d="M171.857 52.3247V35.3781H165.792V29.3128H184.74V35.3781H178.737V52.3247H171.857ZM145.469 29.3128H145.719C146.032 29.3751 146.22 29.688 146.032 29.9375C145.969 30.0009 145.969 30.0632 145.907 30.0632L140.154 36.6286C140.154 36.6286 140.029 36.7543 140.029 36.8167C139.841 37.1296 140.029 37.4415 140.466 37.5038H142.843C143.218 37.5672 143.405 37.8801 143.218 38.192L143.03 38.3801L138.778 43.195C138.716 43.2573 138.652 43.3197 138.652 43.3831C138.465 43.695 138.652 44.0068 139.091 44.0068H140.654C140.842 44.0068 141.029 44.1326 141.154 44.2583C141.183 44.3451 141.186 44.4379 141.163 44.5264C141.141 44.6149 141.095 44.6952 141.029 44.7583L140.904 44.8831L130.961 52.2623C130.961 52.2623 130.837 52.387 130.773 52.387C130.649 52.4494 130.586 52.4494 130.461 52.387C130.399 52.3247 130.336 52.2623 130.399 52.1366C130.399 52.0742 130.461 51.9484 130.461 51.9484L133.15 46.3841L133.213 46.196C133.401 45.8207 133.213 45.5088 132.837 45.4465H130.586C130.273 45.3831 130.086 45.1336 130.211 44.8207C130.211 44.7583 130.336 44.6326 130.336 44.6326L133.713 39.0049C133.713 39.0049 133.775 38.9425 133.775 38.8801C133.963 38.5672 133.713 38.2543 133.338 38.192H131.149C130.837 38.192 130.649 38.0672 130.649 37.8167C130.649 37.692 130.649 37.5672 130.711 37.5038L131.711 35.691L135.088 29.7504L135.151 29.6256C135.34 29.3128 135.589 29.187 136.027 29.187L145.469 29.3128Z" fill="#111111"/>
</g></svg>