<svg  viewBox="20 16 50 50" fill="none" xmlns="http://www.w3.org/2000/svg"><defs>
<clipPath id="clip0_0_743">
<rect width="100" height="23.7624" fill="white" transform="translate(85 29)"/>
</clipPath>
</defs><path d="M60.439 16.2705H59.9023L39.5929 16C38.6517 16 38.115 16.2705 37.7104 16.9434L37.5741 17.2117L30.3103 29.9889L28.1594 33.8881C28.0253 34.0244 28.0253 34.2927 28.0253 34.561C28.0253 35.0998 28.4299 35.3681 29.1007 35.3681H33.8091C34.6162 35.5023 35.155 36.1752 34.7504 36.8482C34.7504 36.9824 34.6162 37.1166 34.6162 37.1166L27.3524 49.2208C27.3524 49.2208 27.084 49.4913 27.084 49.6255C26.8157 50.2984 27.2182 50.835 27.8911 50.9713H32.7316C33.5408 51.1055 33.9454 51.7763 33.5408 52.5834L33.4066 52.988L27.6228 64.956C27.6228 64.956 27.4886 65.2264 27.4886 65.3606C27.3531 65.6297 27.4872 65.7638 27.6207 65.8973L27.6228 65.8994C27.8911 66.0335 28.0253 66.0335 28.2936 65.8994C28.4299 65.8994 28.6982 65.6311 28.6982 65.6311L50.083 49.7596L50.3513 49.4913C50.493 49.3554 50.5935 49.1827 50.6412 48.9923C50.6891 48.8022 50.6823 48.6024 50.6218 48.4159C50.3513 48.1454 49.9489 47.875 49.5464 47.875H46.1838C45.2405 47.875 44.838 47.2042 45.2405 46.5334C45.2405 46.3992 45.3726 46.267 45.5048 46.1349L45.5109 46.1288L54.6551 35.7727L55.0597 35.3681C55.4622 34.6973 55.0598 34.0244 54.2527 33.8881H49.1418C48.2005 33.7539 47.7959 33.0831 48.2005 32.4102C48.2005 32.276 48.471 32.0056 48.471 32.0056L60.8436 17.8846C60.9777 17.8846 60.9777 17.7505 61.1119 17.6142C61.5165 17.0775 61.1119 16.4046 60.439 16.2705Z" fill="#111111"/></svg>