<svg width="213" height="56" viewBox="0 0 213 56" fill="none" xmlns="http://www.w3.org/2000/svg">
<path d="M128.163 4.63239C128.857 4.74775 129.088 5.44188 128.742 5.90329C128.703 5.94174 128.678 5.9802 128.656 6.01865L128.596 6.134C128.575 6.17245 128.549 6.2109 128.511 6.24935L116.956 19.3044L116.611 19.6525C116.146 20.2292 116.611 20.9234 117.419 21.0387H122.039C122.849 21.1541 123.195 21.8482 122.849 22.425L122.503 22.771L114.068 32.3615L113.722 32.7075C113.376 33.2863 113.837 33.9784 114.531 33.9784H117.65C118.074 33.9765 118.468 34.1959 118.69 34.5572C118.805 34.9013 118.805 35.2493 118.459 35.48L118.226 35.7128L98.5862 50.5001L98.2401 50.8482C98.0074 50.9636 97.7767 50.9636 97.6613 50.8482C97.5395 50.7205 97.4591 50.559 97.4306 50.3848C97.4306 50.2694 97.546 50.0387 97.546 50.0387L102.976 38.9487L103.091 38.6006C103.439 37.9065 103.091 37.2144 102.281 37.099H97.6634C96.9712 36.9837 96.6232 36.4049 96.8539 35.9435C96.9712 35.8281 97.0866 35.5954 97.0866 35.5954L103.785 24.39C103.785 24.39 103.902 24.2726 103.902 24.1573C104.249 23.4652 103.787 22.8864 102.978 22.8864H98.5882C98.0892 22.9104 97.6473 22.5665 97.548 22.0769C97.548 21.8482 97.548 21.6155 97.7787 21.3848L99.8591 17.8028L106.675 5.90329L106.79 5.67259C107.138 5.0938 107.715 4.74775 108.525 4.74775L127.588 4.63239H128.163ZM77.7883 4.63239C88.3036 4.63239 93.8486 11.7964 93.8486 20.3446C93.8486 28.2027 89.3418 32.4768 85.7618 34.2091L93.8486 50.3848H78.4825V50.5021L72.474 36.5182H67.3904V50.4981H53.872V4.63239H77.7883ZM165.944 4.63037V16.7606H145.494V22.8844H165.482V35.0166H145.494V50.4981L131.86 50.5021V4.63037H165.944ZM208.462 4.63239V16.7626H196.332V50.5021H182.814V16.7606H170.797V4.63239H208.462ZM24.6413 4.63037C38.8519 4.63037 49.3672 12.8325 49.3672 27.5066C49.3672 42.1786 38.8519 50.4981 24.7587 50.4981H4.5376V4.63037H24.6413ZM24.7566 16.7626H18.1714V38.3699H24.6413C31.4572 38.3699 35.5026 33.2863 35.5026 27.5086H35.5006C35.5006 21.2694 32.036 16.7626 24.7566 16.7626ZM75.71 16.7626H67.5058V25.8896H75.71C78.0191 25.8896 80.1015 24.5054 80.1015 21.2694C80.1015 18.1509 77.9037 16.7626 75.71 16.7626Z" fill="#111111"/>
</svg>
