<svg  viewBox="20 16 220 50" fill="none" xmlns="http://www.w3.org/2000/svg"><defs>
<clipPath id="clip0_0_1149">
<rect width="52" height="50" fill="white" transform="translate(20 16)"/>
</clipPath>
<clipPath id="clip1_0_1149">
<rect width="100" height="13.6364" fill="white" transform="translate(95 34)"/>
</clipPath>
</defs><g clip-path="url(#clip0_0_1149)">
<path d="M50.4703 65.5102C62.3614 65.5102 72.0011 56.2048 72.0011 44.7259C72.0011 33.247 62.3614 23.9414 50.4703 23.9414C38.5792 23.9414 28.9395 33.247 28.9395 44.7259C28.9395 56.2048 38.5792 65.5102 50.4703 65.5102Z" fill="black"/>
<path d="M44.9131 61.1545C57.4197 61.1545 67.6309 51.3571 67.6309 39.183C67.6309 27.009 57.4197 17.2114 44.9131 17.2114C32.4066 17.2114 22.1953 27.009 22.1953 39.183C22.1953 51.3571 32.4066 61.1545 44.9131 61.1545Z" fill="#FF90E8" stroke="black" stroke-width="1.5625"/>
<path d="M43.2033 50.2677C36.8454 50.2677 33.1055 45.1307 33.1055 38.7406C33.1055 32.0998 37.2193 26.7122 45.0731 26.7122C53.1764 26.7122 55.9189 32.2253 56.0436 35.3575H50.1844C50.0598 33.6034 48.5637 30.9722 44.9485 30.9722C41.0841 30.9722 38.5907 34.3552 38.5907 38.49C38.5907 42.6248 41.0841 46.0076 44.9485 46.0076C48.4392 46.0076 49.9351 43.2512 50.5585 40.4948H44.9485V38.2394H56.7199V49.7665H51.5558V42.4994C51.1817 45.1307 49.561 50.2677 43.2033 50.2677Z" fill="black"/>
</g><g clip-path="url(#clip1_0_1149)">
<path d="M154.437 34.0002C152.371 34.0002 150.351 35.8711 150.119 38.5742V34.2231H147.152V47.3428H150.156V40.9923C150.156 39.2134 151.416 36.7041 154.437 36.7041V34.0002Z" fill="black"/>
<path d="M185.939 45.2424V36.2538H187.679C189.998 36.2538 191.883 37.7036 191.883 40.6756C191.883 43.6476 189.998 45.2424 187.679 45.2424H185.939ZM182.967 47.3446H188.041C191.158 47.3446 195 45.3149 195 40.6756C195 36.1088 191.158 34.2241 188.041 34.2241H182.967V47.3446Z" fill="black"/>
<path d="M171.595 40.8208C171.595 38.4286 172.828 36.4715 174.857 36.4715C176.814 36.4715 177.902 38.4286 177.902 40.8208C177.902 43.2129 176.814 45.1701 174.857 45.1701C172.828 45.1701 171.595 43.2129 171.595 40.8208ZM168.551 40.9657C168.551 44.8801 170.58 47.6347 173.77 47.6347C176.089 47.6347 177.467 46.1125 178.192 43.6478V47.3448H181.163V34.2243H178.192V37.7038C177.539 35.3841 176.162 34.0068 173.988 34.0068C170.725 34.0068 168.551 36.9789 168.551 40.9657Z" fill="black"/>
<path d="M100.872 47.6347C97.1747 47.6347 95 44.6627 95 40.9657C95 37.1239 97.3921 34.0068 101.959 34.0068C106.671 34.0068 108.265 37.1963 108.338 39.0085H104.931C104.858 37.9937 103.989 36.4715 101.886 36.4715C99.6393 36.4715 98.1895 38.4286 98.1895 40.8208C98.1895 43.2129 99.6393 45.1701 101.886 45.1701C103.916 45.1701 104.786 43.5754 105.148 41.9806H101.886V40.6758H108.731V47.3448H105.728V43.1404C105.511 44.6627 104.568 47.6347 100.872 47.6347Z" fill="black"/>
<path d="M114.819 47.6345C111.992 47.6345 110.252 45.7498 110.252 41.9804V34.2241H113.296V41.9804C113.296 43.9376 114.239 44.88 115.834 44.88C118.951 44.88 120.11 41.038 120.11 38.356V34.2241H123.155V47.3446H120.183V42.4878C119.603 45.1699 118.008 47.6345 114.819 47.6345Z" fill="black"/>
<path d="M141.348 34C138.751 34 137.112 36.5092 136.577 38.8292C136.486 35.7201 134.957 34 132.511 34C130.397 34 128.436 35.8849 127.927 38.8668V34.2232H124.959V47.344H127.965V42.6402C127.965 41.4741 128.451 36.6886 131.477 36.6886C133.437 36.6886 133.642 38.4568 133.642 40.8738V47.344H136.646V42.6402C136.646 41.4741 137.152 36.6886 140.178 36.6886C142.137 36.6886 142.339 38.4568 142.339 40.8738V47.344H145.348V39.5831C145.362 35.8599 144.047 34 141.348 34Z" fill="black"/>
<path d="M160.886 34C156.994 34 154.357 37.0513 154.357 40.8174C154.357 44.9671 156.865 47.6347 160.886 47.6347C164.777 47.6347 167.461 44.5835 167.461 40.8174C167.461 36.6677 164.904 34 160.886 34ZM160.886 45.3123C158.62 45.3123 157.153 43.3944 157.153 40.8174C157.153 38.2404 158.625 36.3224 160.886 36.3224C163.146 36.3224 164.559 38.2404 164.559 40.8174C164.559 43.3944 163.144 45.3123 160.886 45.3123Z" fill="black"/>
</g></svg>