<svg width="48" height="48" viewBox="0 0 48 48" fill="none" xmlns="http://www.w3.org/2000/svg">
<path d="M23.9921 4.5C12.3999 4.5 3 11.9577 3 21.1607C3 27.111 6.92715 32.3234 12.8415 35.2827L10.7124 42.9387C10.7124 42.9387 10.6729 43.2957 10.9016 43.4306C11.1303 43.5654 11.4063 43.4623 11.4063 43.4623C12.0687 43.3671 19.0556 38.4244 20.2779 37.5676C21.4844 37.7421 22.7383 37.8294 24.0079 37.8294C35.6001 37.8294 45 30.3717 45 21.1687C45 11.9656 35.5843 4.5 23.9921 4.5Z" fill="black"/>
<path d="M12.3841 26.9679C11.7138 26.9679 11.1697 26.4443 11.1697 25.8017V18.5582H9.27711C8.62259 18.5582 8.09424 18.0266 8.09424 17.3682C8.09424 16.7097 8.63048 16.1781 9.27711 16.1781H15.4833C16.1378 16.1781 16.6661 16.7097 16.6661 17.3682C16.6661 18.0266 16.1299 18.5582 15.4833 18.5582H13.5907V25.8017C13.5907 26.4363 13.0387 26.9679 12.3763 26.9679H12.3841ZM23.0064 26.952C22.5017 26.952 22.1153 26.7458 21.997 26.4125L21.3977 24.8258H17.7071L17.1078 26.4125C16.9895 26.7458 16.6031 26.952 16.0984 26.952C15.8302 26.952 15.57 26.8965 15.3256 26.7934C14.9943 26.6347 14.671 26.2142 15.0417 25.0638L17.9358 17.392C18.1408 16.8049 18.7638 16.2019 19.5524 16.186C20.341 16.1702 20.9718 16.8049 21.169 17.392L24.0631 25.0638C24.4337 26.2142 24.1104 26.6506 23.7792 26.7934C23.5426 26.9044 23.2745 26.952 23.0064 26.952ZM20.7589 22.6678L19.5524 19.2088L18.3458 22.6678H20.7589ZM26.0109 26.7934C25.38 26.7934 24.8517 26.2935 24.8517 25.6826V17.392C24.8517 16.7176 25.4037 16.1702 26.0897 16.1702C26.7758 16.1702 27.3278 16.7255 27.3278 17.392V24.5481H29.8986C30.5295 24.5481 31.0578 25.048 31.0578 25.6588C31.0578 26.2697 30.5373 26.7696 29.8986 26.7696L26.0109 26.7934ZM31.5231 25.7302V17.3999C31.5231 16.7255 32.0751 16.1781 32.7375 16.1781C33.3999 16.1781 33.9519 16.7335 33.9519 17.3999V20.018L37.3428 16.6065C37.7161 16.231 38.4217 16.2639 38.849 16.6938C39.2504 17.0976 39.3548 17.7802 38.9358 18.2091L36.16 20.9859L39.1408 24.9527C39.5413 25.4686 39.4442 26.272 38.9042 26.6506C38.3719 27.0472 37.5899 26.915 37.2088 26.4125L34.3699 22.6282L33.9519 23.0487V25.7064C33.9519 27.2895 31.5231 27.3505 31.5231 25.7302Z" fill="#FFE812"/>
</svg>
