<svg width="277" height="43" viewBox="0 0 277 43" fill="none" xmlns="http://www.w3.org/2000/svg">
<path d="M60.6321 8.27545H48.7402V4.03998H77.4111V8.27545H65.5192V38.9012H60.6321V8.27545Z" fill="#E7E7E7"/>
<path d="M82.624 12.6738C89.6288 12.6738 93.3756 17.8867 93.3756 24.4028C93.3756 25.0544 93.2127 26.5206 93.2127 26.5206H75.1305C75.4563 32.0593 79.2031 34.8286 83.7643 34.8286C87.9998 34.8286 91.095 31.8964 91.095 31.8964L93.0498 35.4802C93.0498 35.4802 89.303 39.0641 83.4385 39.0641C75.6192 39.0641 70.2434 33.3625 70.2434 26.0319C70.2434 17.7238 75.6192 12.6738 82.624 12.6738ZM88.6514 22.7738C88.4885 18.5383 85.8821 16.4206 82.624 16.4206C79.0402 16.4206 75.945 18.7012 75.2934 22.7738H88.6514Z" fill="#E7E7E7"/>
<path d="M108.851 12.5109C115.205 12.5109 118.3 16.0948 118.3 16.0948L116.019 19.5157C116.019 19.5157 113.413 16.5835 109.177 16.5835C104.127 16.5835 100.543 20.3303 100.543 25.5432C100.543 30.5931 104.127 34.5028 109.34 34.5028C114.064 34.5028 116.997 31.0818 116.997 31.0818L118.951 34.6657C118.951 34.6657 115.53 38.7383 109.014 38.7383C101.195 38.7383 95.6563 33.1996 95.6563 25.7061C95.4934 18.2125 101.032 12.5109 108.851 12.5109Z" fill="#E7E7E7"/>
<path d="M121.232 3.87708H125.956V16.5835C125.956 17.7238 125.793 18.7012 125.793 18.7012H125.956C127.097 16.2577 130.192 13.1625 135.242 13.1625C141.106 13.1625 143.875 16.4206 143.875 22.7738V38.7383H139.151V23.7512C139.151 20.1674 138.337 17.398 134.427 17.398C130.68 17.398 127.585 20.0045 126.445 23.5883C126.119 24.5657 126.119 25.7061 126.119 26.8464V38.5754H121.395V3.87708H121.232Z" fill="#E7E7E7"/>
<path d="M149.414 30.9189C149.414 30.9189 152.998 34.6657 158.211 34.6657C161.469 34.6657 164.075 32.8738 164.075 29.6157C164.075 22.1222 147.459 23.7512 147.459 13.1625C147.459 7.78674 152.021 3.55127 158.537 3.55127C164.89 3.55127 168.311 6.97223 168.311 6.97223L166.193 11.0448C166.193 11.0448 163.098 8.11255 158.7 8.11255C155.116 8.11255 152.509 10.3932 152.509 13.1625C152.509 20.3303 169.125 18.3754 169.125 29.4528C169.125 34.8286 165.053 39.0641 158.211 39.0641C150.88 39.0641 146.808 34.5028 146.808 34.5028L149.414 30.9189Z" fill="#E7E7E7"/>
<path d="M171.243 13.8141H175.967V17.0722C175.967 18.0496 175.804 18.8641 175.804 18.8641H175.967C177.108 15.9319 180.692 13.1625 184.601 13.1625C188.837 13.1625 191.28 15.1174 192.095 18.8641H192.258C193.561 15.769 197.145 13.1625 201.217 13.1625C206.919 13.1625 209.525 16.4206 209.525 22.7738V38.7383H204.801V23.7512C204.801 20.1674 204.15 17.398 200.403 17.398C196.819 17.398 194.212 20.3303 193.398 23.7512C193.072 24.7286 193.072 25.869 193.072 27.1722V38.5754H188.348V23.5883C188.348 20.3303 187.859 17.2351 183.95 17.2351C180.366 17.2351 177.759 20.3303 176.782 23.7512C176.456 24.7286 176.456 25.869 176.456 27.0093V38.4125H171.243V13.8141Z" fill="#E7E7E7"/>
<path d="M212.621 4.03998H217.508V8.92706H212.621V4.03998ZM212.621 13.8141H217.345V38.7383H212.621V13.8141Z" fill="#E7E7E7"/>
<path d="M223.209 17.7238H219.951V13.8141H223.209V6.80933H227.933V13.8141H233.961V17.7238H227.933V28.9641C227.933 34.177 231.517 34.8286 233.309 34.8286C233.961 34.8286 234.449 34.6657 234.449 34.6657V38.9012C234.449 38.9012 233.798 39.0641 232.82 39.0641C229.562 39.0641 223.209 38.0867 223.209 29.7786V17.7238Z" fill="#E7E7E7"/>
<path d="M236.73 3.87708H241.617V16.5835C241.617 17.7238 241.454 18.7012 241.454 18.7012H241.617C242.758 16.2577 245.853 13.1625 250.903 13.1625C256.767 13.1625 259.537 16.4206 259.537 22.7738V38.7383H254.812V23.7512C254.812 20.1674 253.998 17.398 250.088 17.398C246.341 17.398 243.246 20.0045 242.106 23.5883C241.78 24.5657 241.78 25.7061 241.78 26.8464V38.5754H237.056L236.73 3.87708Z" fill="#E7E7E7"/>
<path d="M6.71191 7.29803V35.4802L20.7216 21.3077L6.71191 7.29803Z" fill="#E7E7E7"/>
<path d="M41.5731 35.4802V3.87708H10.1329L41.5731 35.4802Z" fill="#E7E7E7"/>
<path d="M9.96997 38.7383H38.1522L24.1425 24.7286L9.96997 38.7383Z" fill="#E7E7E7"/>
<path d="M265.401 4.03992C268.171 4.03992 270.288 6.32056 270.288 9.08991C270.288 11.8593 268.171 14.1399 265.401 14.1399C262.795 14.1399 260.514 12.0222 260.514 9.08991C260.677 6.32056 262.795 4.03992 265.401 4.03992ZM265.401 13.3254C267.682 13.3254 269.474 11.5334 269.474 9.08991C269.474 6.64636 267.682 4.85443 265.401 4.85443C263.121 4.85443 261.329 6.64636 261.329 9.08991C261.492 11.5334 263.121 13.3254 265.401 13.3254ZM263.772 6.48346H265.727C266.704 6.48346 267.356 7.13507 267.356 8.11249C267.356 8.927 266.867 9.41571 266.379 9.57861C266.379 9.57861 266.379 9.57861 266.542 9.90442L267.519 11.8593H266.704L265.564 9.74152H264.587V11.6964H263.772V6.48346ZM265.564 8.927C266.216 8.927 266.542 8.6012 266.542 7.94959C266.542 7.29797 266.216 6.97217 265.564 6.97217H264.587V8.927H265.564Z" fill="#E7E7E7"/>
</svg>
