<svg width="204" height="59" viewBox="0 0 204 59" fill="none" xmlns="http://www.w3.org/2000/svg">
<path d="M35.6922 13.6897V4.85901H26.8612L25.98 5.74784L21.813 13.6888L20.5027 14.5729H5.63062V26.7H13.8067L14.5348 27.5808L5.63062 44.5957V53.4266H14.4614L15.3428 52.538L19.51 44.5968L20.8201 43.713H35.6922V31.5856H27.5161L26.7887 30.6989L35.6922 13.6897Z" fill="#45AD47"/>
<path d="M52.9457 45.0001L55.4546 40.2115L56.6121 45.0001H52.9457ZM53.1901 31.5869L41.7616 53.4265H48.5434L50.2018 50.2484L57.8594 50.2479L58.617 53.4265H65.3983L60.1716 31.5869H53.1901ZM76.0638 41.7968H73.1662V37.381H76.0638C77.8293 37.381 78.4999 38.2644 78.4999 39.6065C78.4999 40.9142 77.8293 41.7968 76.0638 41.7968ZM85.1422 39.4988C85.1422 34.4837 81.7502 31.5869 76.9816 31.5869H66.633V53.4286H73.1662V47.0582H74.7559L76.0536 47.0547L79.2166 53.4286H85.9987L81.9656 45.7218C83.9436 44.4617 85.1422 42.3258 85.1422 39.4988ZM86.1085 31.5869V37.3767H92.2816V53.4286H96.0014L98.8098 48.0559V37.3767H104.409L107.436 31.5869H86.1085ZM122.709 4.85884H129.236V26.6975H122.709V4.85884ZM67.1912 4.86978L64.2582 10.469H66.0592C69.2746 10.469 71.3104 12.524 71.3104 15.7753C71.3104 18.9888 69.2746 21.0446 66.0592 21.0446H64.0239V10.9164L57.7098 22.9703V26.6942H66.4947C73.5735 26.6942 77.7342 22.4259 77.7342 15.7751C77.7342 9.34434 73.8449 5.14291 67.1912 4.86978ZM79.4605 26.6975H96.1305V20.9086H85.9873V18.5485H95.313V13.0073H85.9873V10.648H96.1305V4.85884H79.4605V26.6975ZM107.736 18.0745L104.572 4.85884H97.7971L103.027 26.6968H109.996L121.435 4.85884H114.653L107.736 18.0745ZM177.042 4.85718V10.647H183.215V26.6989H186.935L189.743 21.3263V10.647H195.342L198.37 4.85718H177.042ZM141.691 18.2723L144.196 13.488L145.353 18.2723H141.691ZM141.945 4.85884L130.513 26.6968H137.284L138.948 23.5149L146.598 23.5147L147.358 26.6968L154.13 26.6975L148.903 4.85884H141.945ZM169.117 15.2036L161.807 4.85884H155.37V26.6975H161.895V15.6065L169.988 26.6975H175.643V4.85884H169.117V15.2036Z" fill="#1F211F"/>
</svg>
