<svg width="184" height="65" viewBox="0 0 184 65" fill="none" xmlns="http://www.w3.org/2000/svg">
<mask id="mask0_0_10329" style="mask-type:alpha" maskUnits="userSpaceOnUse" x="4" y="4" width="69" height="56">
<path d="M4.6001 41.207V4.41913L21.4846 22.8793L38.4421 4.41913L55.1736 22.7836L72.0316 4.41913V41.2918L55.3632 59.9807L38.4421 41.5443L21.5211 59.9807L4.6001 41.207Z" fill="white"/>
</mask>
<g mask="url(#mask0_0_10329)">
<path d="M4.6001 41.207V4.41913L21.4846 22.8793L38.4421 4.41913L55.1736 22.7836L72.0316 4.41913V41.2918L55.3632 59.9807L38.4421 41.5443L21.5211 59.9807L4.6001 41.207Z" fill="#5B2E6E"/>
<path d="M13.0611 32.1999C14.8139 30.281 20.4546 24.1067 21.5211 22.939C19.3779 20.5939 8.09691 8.24682 4.6001 4.41913C4.81341 5.11996 12.2034 29.3837 13.0611 32.1999Z" fill="url(#paint0_linear_0_10329)"/>
<path d="M4.60085 4.41914L10.7966 11.1368L17.5059 32.5559L10.985 34.5495L4.60085 4.41914Z" fill="url(#paint1_linear_0_10329)"/>
<path d="M12.9961 34.7677L10.5362 26.6243L19.7859 21.0549L23.4556 25.048L12.9961 34.7677Z" fill="url(#paint2_linear_0_10329)"/>
<path d="M55.1101 22.8545L72.0311 41.2918V4.41913L55.1101 22.8545Z" fill="url(#paint3_linear_0_10329)"/>
<path d="M55.1147 22.8631L58.6367 19.0298L72.031 33.9678L72.031 41.2919L55.1147 22.8631Z" fill="url(#paint4_linear_0_10329)"/>
<path d="M55.3639 59.9806L72.0323 41.2917L49.05 16.0365L55.3639 59.9806Z" fill="url(#paint5_linear_0_10329)"/>
<path d="M38.4419 41.5443L55.3629 59.9806L49.0491 16.0365L38.4419 41.5443Z" fill="url(#paint6_linear_0_10329)"/>
<path d="M21.5222 59.9807L38.4432 41.5443V4.41913L21.5222 59.9807Z" fill="url(#paint7_linear_0_10329)"/>
<path d="M21.5222 59.9807L28.1391 52.7712L38.4432 15.2647V4.41913L21.5222 59.9807Z" fill="url(#paint8_linear_0_10329)"/>
<path d="M38.4419 41.5443L49.0491 16.0365L38.4419 4.41913V41.5443Z" fill="url(#paint9_linear_0_10329)"/>
<path d="M12.9353 32.164C13.5146 34.0617 21.5232 59.9807 21.5232 59.9807L38.4431 4.41913L12.9353 32.164Z" fill="url(#paint10_linear_0_10329)"/>
<path d="M12.2502 32.8928L18.2386 26.3949L26.7115 54.3316L21.5217 59.9803L12.2502 32.8928Z" fill="url(#paint11_linear_0_10329)"/>
<path d="M4.6001 41.4129L21.5211 59.9807L4.60079 4.41913L4.6001 41.4129Z" fill="url(#paint12_linear_0_10329)"/>
</g>
<path d="M179.114 39.019L174.063 32.9578L179.114 26.8965C179.213 26.5755 179.338 26.2571 179.367 25.8863C179.338 25.0568 178.639 24.371 177.852 24.371C177.315 24.371 176.89 24.5914 176.589 24.8761L172.295 30.4322L167.749 24.8761C167.448 24.5914 167.024 24.371 166.487 24.371C165.7 24.371 165 25.0568 164.971 25.8863C165 26.2571 165.125 26.551 165.224 26.8965L170.275 32.9578L165.224 39.019C165.175 39.2148 165.075 39.3862 164.971 39.5241C164.801 40.415 165.3 41.2723 166.234 41.5446C166.774 41.6643 167.398 41.3948 167.749 40.7869L172.295 35.4833L176.589 40.7869C176.94 41.3948 177.589 41.6643 178.104 41.5446C179.038 41.2723 179.538 40.4395 179.367 39.5241C179.263 39.3862 179.163 39.1903 179.114 39.019ZM162.446 25.8863C162.446 25.0579 161.762 24.371 160.931 24.371C160.1 24.371 159.44 25.0334 159.415 25.8863C159.415 25.8675 159.415 25.8921 159.415 25.8863C159.415 25.8921 159.415 25.9166 159.415 25.8863V40.0292C159.415 39.9744 159.415 39.9989 159.415 40.0292C159.415 40.8576 160.1 41.5446 160.931 41.5446C161.762 41.5446 162.446 40.8576 162.446 40.0292C162.446 39.9499 162.446 39.9744 162.446 40.0292V25.8863C162.446 25.9411 162.421 25.9411 162.446 25.8863ZM137.696 32.9578C137.696 28.1982 133.847 24.371 129.109 24.371C124.371 24.371 120.522 28.2228 120.522 32.9578C120.522 37.521 124.1 41.2256 128.604 41.5446C128.714 41.4955 128.813 41.5446 128.856 41.5446C129.751 41.5446 130.441 40.8576 130.372 40.0292C130.441 39.1893 129.8 38.5269 129.109 38.5139C128.986 38.4778 128.961 38.4778 128.856 38.5139C128.936 38.4778 128.936 38.4778 128.856 38.5139C128.912 38.4778 128.912 38.4778 128.856 38.5139C126.518 38.3797 124.544 36.8096 123.805 34.7256H135.928C136.092 34.6506 136.117 34.6751 136.18 34.7256C136.98 34.6751 137.671 33.9882 137.696 33.2103C137.696 33.0804 137.671 33.0068 137.696 32.9578ZM123.805 31.695C124.431 29.2345 126.608 27.4016 129.362 27.4016C131.863 27.4016 134.065 29.2345 134.665 31.695H123.805ZM119.007 25.3812C118.734 24.6937 117.891 24.2032 116.986 24.371C116.552 24.5711 116.205 24.9635 115.976 25.3812L112.946 36.7461L107.895 30.4322C107.676 30.1135 107.305 29.9419 106.884 29.9271C106.462 29.9419 106.09 30.1135 105.874 30.4322L100.823 36.7461L97.7925 25.3812C97.5856 24.9635 97.2137 24.5711 96.7822 24.371C95.8749 24.2032 95.0319 24.6937 94.7618 25.3812C94.7344 25.7482 94.7592 25.9689 94.7618 26.1389L98.5501 40.5343C98.7757 40.9042 99.1476 41.3456 99.8129 41.5446C100.338 41.6644 100.957 41.3946 101.328 40.7869L106.884 33.968L112.441 40.7869C112.858 41.3946 113.503 41.6644 114.208 41.5446C114.668 41.3456 115.04 40.9287 115.219 40.5343L119.007 26.1389C119.007 25.9935 119.032 25.7482 119.007 25.3812ZM148.303 24.371C146.156 24.3092 144.256 25.1205 142.747 26.3914V17.047C142.751 17.0806 142.776 17.056 142.747 17.047C142.776 16.2201 142.085 15.5316 141.231 15.5316C140.407 15.5316 139.741 16.1955 139.716 17.047C139.716 17.056 139.716 17.0806 139.716 17.047C139.716 17.0806 139.716 17.1052 139.716 17.047V32.7052C139.741 32.8162 139.716 32.8654 139.716 32.9578C139.716 37.6844 143.565 41.5446 148.303 41.5446C153.04 41.5446 156.89 37.6844 156.89 32.9578C156.865 28.1447 153.016 24.3092 148.303 24.371ZM148.303 38.5139C145.241 38.5139 142.747 36.0309 142.747 32.9578C142.747 29.8847 145.241 27.4016 148.303 27.4016C151.365 27.4016 153.859 29.8847 153.859 32.9578C153.859 36.0309 151.365 38.5139 148.303 38.5139ZM160.931 18.3097C160.1 18.3097 159.415 18.9886 159.415 19.825C159.415 20.6615 160.1 21.3404 160.931 21.3404C161.762 21.3404 162.446 20.6615 162.446 19.825C162.446 18.9886 161.762 18.3097 160.931 18.3097Z" fill="black"/>
<defs>
<linearGradient id="paint0_linear_0_10329" x1="6.78832" y1="6.93384" x2="22.7565" y2="19.0443" gradientUnits="userSpaceOnUse">
<stop stop-color="#67337A"/>
<stop offset="1" stop-color="#723986"/>
</linearGradient>
<linearGradient id="paint1_linear_0_10329" x1="12.7186" y1="18.7638" x2="8.65324" y2="20.0067" gradientUnits="userSpaceOnUse">
<stop stop-color="#623274" stop-opacity="0"/>
<stop offset="1" stop-color="#542C65"/>
</linearGradient>
<linearGradient id="paint2_linear_0_10329" x1="14.8078" y1="24.4228" x2="17.6977" y2="28.55" gradientUnits="userSpaceOnUse">
<stop stop-color="#623274" stop-opacity="0"/>
<stop offset="1" stop-color="#542C65"/>
</linearGradient>
<linearGradient id="paint3_linear_0_10329" x1="70.6224" y1="6.48363" x2="53.8225" y2="22.6368" gradientUnits="userSpaceOnUse">
<stop stop-color="#8A519F"/>
<stop offset="1" stop-color="#8A53A0"/>
</linearGradient>
<linearGradient id="paint4_linear_0_10329" x1="65.6416" y1="29.2008" x2="62.6829" y2="32.2645" gradientUnits="userSpaceOnUse">
<stop stop-color="#8A529F" stop-opacity="0.1"/>
<stop offset="1" stop-color="#542C65"/>
</linearGradient>
<linearGradient id="paint5_linear_0_10329" x1="54.7264" y1="29.8354" x2="70.8838" y2="35.2599" gradientUnits="userSpaceOnUse">
<stop stop-color="#5C2E6D"/>
<stop offset="1" stop-color="#6D377B"/>
</linearGradient>
<linearGradient id="paint6_linear_0_10329" x1="40.531" y1="31.1787" x2="53.0154" y2="32.5101" gradientUnits="userSpaceOnUse">
<stop stop-color="#612E74"/>
<stop offset="1" stop-color="#7F4395"/>
</linearGradient>
<linearGradient id="paint7_linear_0_10329" x1="38.4432" y1="4.41913" x2="38.4432" y2="42.9566" gradientUnits="userSpaceOnUse">
<stop stop-color="#582C6A"/>
<stop offset="1" stop-color="#743983"/>
</linearGradient>
<linearGradient id="paint8_linear_0_10329" x1="29.9827" y1="45.9725" x2="24.7949" y2="45.8123" gradientUnits="userSpaceOnUse">
<stop stop-color="#623274" stop-opacity="0"/>
<stop offset="1" stop-color="#542C65"/>
</linearGradient>
<linearGradient id="paint9_linear_0_10329" x1="38.4419" y1="4.41913" x2="38.4419" y2="41.5443" gradientUnits="userSpaceOnUse">
<stop stop-color="#723A85"/>
<stop offset="1" stop-color="#8C519C"/>
</linearGradient>
<linearGradient id="paint10_linear_0_10329" x1="12.9353" y1="24.3807" x2="29.1983" y2="25.6741" gradientUnits="userSpaceOnUse">
<stop stop-color="#66397A"/>
<stop offset="1" stop-color="#9F69AB"/>
</linearGradient>
<linearGradient id="paint11_linear_0_10329" x1="20.8603" y1="42.274" x2="15.6092" y2="43.8794" gradientUnits="userSpaceOnUse">
<stop stop-color="#623274" stop-opacity="0"/>
<stop offset="1" stop-color="#542C65"/>
</linearGradient>
<linearGradient id="paint12_linear_0_10329" x1="13.0606" y1="16.1087" x2="13.0606" y2="47.8638" gradientUnits="userSpaceOnUse">
<stop stop-color="#5D306E"/>
<stop offset="1" stop-color="#9F6AAA"/>
</linearGradient>
</defs>
</svg>
