<svg width="213" height="56" viewBox="0 0 213 56" fill="none" xmlns="http://www.w3.org/2000/svg">
<path d="M114.225 21.2246H116.485L111.373 35.8097C110.815 37.4019 109.312 38.4661 107.625 38.4661H105.455V36.7322H107.476C108.348 36.7322 109.127 36.188 109.429 35.3702L109.546 35.0496H108.811L103.974 21.2246H106.314L110.309 33.3948L114.225 21.2246ZM130.705 28.1111C130.705 32.3169 128.969 35.3388 125.369 35.3388C123.871 35.3388 122.636 34.8138 121.716 33.7616V38.4661H119.534V21.2246H121.374L121.558 23.143C122.584 21.7247 124.029 20.9097 125.711 20.9097C129.39 20.9097 130.705 23.7742 130.705 28.1111ZM128.365 28.1111C128.365 24.4844 127.366 22.6707 125.185 22.6707C123.634 22.6707 122.452 23.8012 121.716 24.9047V31.7912C122.425 32.869 123.582 33.5258 124.896 33.5258C127.209 33.5258 128.365 31.8176 128.365 28.1111ZM97.0621 20.9097C95.433 20.9097 93.7247 21.6719 92.6469 23.1173V17.0985H90.4656V35.0496H92.6469V24.9574C93.3564 23.8796 94.7754 22.6443 96.379 22.6443C98.0089 22.6443 98.7711 23.3802 98.7711 25.0351V35.0496H100.952V25.0094C100.952 22.4342 99.7692 20.9097 97.0621 20.9097ZM175.489 33.8151L174.964 35.3645C173.78 35.2085 172.834 34.63 172.441 33.3948C171.442 34.682 169.892 35.3388 168.104 35.3388C165.318 35.3388 163.636 33.6576 163.636 31.0817C163.636 28.2429 165.922 26.6393 170.128 26.6393H172.151V25.4831C172.151 23.4856 170.916 22.7491 168.866 22.7491C167.946 22.7491 166.685 22.9336 165.265 23.4322L164.687 21.803C166.369 21.1726 167.841 20.9097 169.181 20.9097C172.624 20.9097 174.36 22.6443 174.36 25.377V32.0541C174.36 33.1582 174.728 33.5785 175.489 33.8151ZM172.151 28.1374H170.154C167.078 28.1374 165.974 29.268 165.974 31.0553C165.974 32.7899 166.842 33.6833 168.656 33.6833C170.023 33.6833 171.337 32.9737 172.151 31.7128V28.1374ZM145.846 27.7171C145.846 28.1902 145.82 28.6112 145.793 28.8997H136.489C136.595 32.1324 138.408 33.5258 140.537 33.5258C141.798 33.5258 143.034 33.2102 144.243 32.2371L145.268 33.736C143.98 34.7354 142.245 35.3388 140.537 35.3388C136.489 35.3388 134.202 32.448 134.202 28.1374C134.202 23.9587 136.567 20.9097 140.142 20.9097C143.718 20.9097 145.846 23.512 145.846 27.7171ZM143.743 27.2171C143.691 24.2479 142.351 22.7234 140.169 22.7234C138.197 22.7234 136.673 24.1695 136.489 27.2171H143.743ZM190.894 28.1111C190.894 32.3169 189.158 35.3388 185.558 35.3388C184.06 35.3388 182.825 34.8138 181.905 33.7616V38.4661H179.723V21.2246H181.563L181.747 23.143C182.773 21.7247 184.217 20.9097 185.899 20.9097C189.579 20.9097 190.894 23.7742 190.894 28.1111ZM188.554 28.1111C188.554 24.4844 187.556 22.6707 185.374 22.6707C183.823 22.6707 182.641 23.8012 181.905 24.9047V31.7912C182.615 32.869 183.771 33.5258 185.085 33.5258C187.398 33.5258 188.554 31.8176 188.554 28.1111ZM206.14 28.1111C206.14 32.3169 204.405 35.3388 200.804 35.3388C199.307 35.3388 198.071 34.8138 197.151 33.7616V38.4661H194.97V21.2246H196.81L196.993 23.143C198.019 21.7247 199.464 20.9097 201.146 20.9097C204.826 20.9097 206.14 23.7742 206.14 28.1111ZM203.8 28.1111C203.8 24.4844 202.802 22.6707 200.62 22.6707C199.07 22.6707 197.887 23.8012 197.151 24.9047V31.7912C197.861 32.869 199.017 33.5258 200.331 33.5258C202.644 33.5258 203.8 31.8176 203.8 28.1111ZM154.96 23.8796L154.697 21.2246H149.571V22.9336H152.805V33.3157H149.571V35.0496H158.876V33.3157H154.986V26.7711C155.459 24.8527 156.904 23.039 158.771 23.039C159.349 23.039 159.77 23.1173 160.374 23.2755L160.768 21.1199C160.111 20.9617 159.638 20.9097 158.955 20.9097C157.299 20.9097 155.774 21.9077 154.96 23.8796Z" fill="black"/>
<path d="M33.8478 23.9464H49.4269L53.1687 31.6184H33.8478V50.9348H26.1771V31.6184H6.85999V23.9464H26.1771V4.63049H33.8478V23.9464ZM81.9002 50.9348H72.8619L50.2782 4.63049H59.3165L81.9002 50.9348Z" fill="#0080FF"/>
</svg>
