<svg width="274" height="44" viewBox="0 0 274 44" fill="none" xmlns="http://www.w3.org/2000/svg">
<path d="M76.9625 10.0014L77.2658 10.0118C79.0581 10.1361 80.2336 11.3622 80.3587 13.2328L80.3698 13.5695V36.0743C80.3698 38.2767 79.0642 39.6443 76.9605 39.6443C75.3519 39.6443 73.6373 38.7901 73.4848 36.4245L73.4738 36.0762V35.5338C71.4283 38.1934 68.174 39.6443 64.1836 39.6443C56.0383 39.6443 50.568 33.6878 50.568 24.8219C50.568 15.9579 56.1351 10.0014 64.4238 10.0014C67.9032 10.0014 70.8819 11.168 72.9728 13.3166L73.313 13.6838V13.5695C73.313 11.5026 74.8472 10.0014 76.9625 10.0014ZM117.98 10.0014C125.253 9.99947 129.018 14.3577 129.178 22.9543L129.184 23.5337V35.9929C129.184 38.3116 127.855 39.6424 125.534 39.6424C123.343 39.6424 122.089 38.4669 121.975 36.3219L121.966 35.9929V23.5337C121.966 18.3192 120.366 16.0915 116.614 16.0915C112.766 16.0915 110.828 18.3668 110.703 23.0416L110.696 23.5337V35.9949C110.696 38.3135 109.368 39.6443 107.049 39.6443C104.857 39.6443 103.604 38.4689 103.489 36.3239L103.481 35.9949V23.3768C103.481 18.2049 101.929 16.0935 98.1268 16.0935C94.3882 16.0935 92.43 18.1755 92.2994 22.2839L92.2924 22.7318V36.0743C92.2924 38.3097 90.9287 39.6443 88.643 39.6443C86.4568 39.6443 85.2024 38.501 85.0824 36.412L85.0729 36.0743V13.7303C85.0729 11.154 86.9073 10.0014 88.7224 10.0014C90.7563 10.0014 92.2401 11.3845 92.2905 13.308C93.9505 11.245 96.7573 10.0014 99.8954 10.0014C104.11 10.0014 107.229 11.768 108.965 15.1249C110.545 11.8571 113.788 10.0014 117.98 10.0014ZM172.743 10.0014C174.503 10.0014 175.83 11.431 175.83 13.3293C175.83 13.8959 175.717 14.4652 175.476 15.0965L175.315 15.4833L167.204 36.4423C166.354 38.5692 164.973 39.6424 163.098 39.6424C161.249 39.6424 159.938 38.6849 159.197 36.7926L153.69 21.3623L148.159 36.4365C147.619 37.93 146.679 39.6443 144.21 39.6443C142.078 39.6443 141.082 38.5039 140.317 36.7617L140.184 36.4481L131.987 15.5472C131.632 14.66 131.477 13.9956 131.477 13.3293C131.477 11.2469 133.048 10.0014 134.565 10.0014C136.052 10.0014 137.311 11.0059 137.988 12.7068L138.116 13.0562L144.208 30.2689L150.226 13.1317C150.9 11.1036 151.654 10.0014 153.693 10.0014C155.491 10.0014 156.328 11.1099 156.964 12.8068L157.081 13.1317L163.1 30.2689L169.194 13.0503C169.829 11.1443 171.156 10.0014 172.743 10.0014ZM191.096 10.0808C202.095 10.0808 205.998 18.0228 205.998 24.8219C205.998 31.6597 202.095 39.6443 191.098 39.6443C186.418 39.6443 182.54 38.0927 179.883 35.1561C177.504 32.5314 176.194 28.8607 176.194 24.8219C176.194 20.7889 177.506 17.1337 179.883 14.5264C182.418 11.751 186.064 10.2235 190.463 10.0903L191.096 10.0808ZM234.122 3.60522C235.996 3.60624 237.532 5.0493 237.68 6.88433L237.692 7.17717V21.9376L247.126 12.1903L247.588 11.6949C248.446 10.7975 249.371 10.0014 250.599 10.0014C252.451 10.0014 253.847 11.398 253.847 13.2479C253.847 14.5675 252.974 15.5438 251.987 16.5394L251.738 16.7889L243.943 24.8974L252.455 33.4147L252.92 33.8967C253.6 34.6362 254.167 35.4585 254.167 36.4791C254.167 38.1954 252.716 39.6443 251 39.6443C249.661 39.6443 248.724 38.7745 247.843 37.8636L247.132 37.13L237.69 27.311V36.0724C237.688 38.0421 236.092 39.6383 234.122 39.6404C232.251 39.6404 230.713 38.1964 230.564 36.3663L230.552 36.0743V7.1733C230.555 5.20328 232.152 3.60736 234.122 3.60522ZM6.73421 3.60909C8.42407 3.60909 10.1333 4.79506 10.2922 7.06825L10.3042 7.41737V10.8847H14.9861C16.8805 10.8847 18.1532 12.1244 18.1532 13.9724C18.1532 15.8314 17.091 16.9375 15.2234 17.0488L14.9047 17.0581L10.3042 17.0601V30.3677C10.3042 32.9033 11.3599 33.2287 12.28 33.2287C12.9475 33.2287 13.4342 33.0494 13.8036 32.886L13.9788 32.8065C14.2545 32.6619 14.5606 32.5848 14.8718 32.5818C16.3498 32.5818 17.3764 34.2961 17.3764 35.8341C17.3764 36.6632 17.0549 37.7285 16.1503 38.2322L15.6539 38.5096C14.5229 39.1055 13.0053 39.6424 10.5928 39.6424C5.60872 39.6424 3.30339 37.2282 3.1721 31.8312L3.16614 31.3324V7.41737C3.16614 4.91662 4.9618 3.60716 6.73421 3.60909ZM223.432 10.0011C225.894 10.0011 227.484 11.307 227.484 13.3293C227.484 15.2237 226.341 16.4964 224.638 16.4964C224.307 16.4964 224.051 16.4561 223.806 16.404L223.561 16.3492C223.191 16.262 222.808 16.1748 222.147 16.1748C218.122 16.1748 216.338 18.7697 216.236 24.8237L216.232 25.3836V36.0743C216.232 38.4181 214.436 39.6443 212.663 39.6443C210.978 39.6443 209.273 38.5377 209.107 36.4175L209.093 36.0743V13.5695C209.093 11.5704 210.662 10.0011 212.663 10.0011C214.522 10.0042 216.068 11.4307 216.22 13.2828C218.027 11.1859 220.663 9.98665 223.432 10.0011ZM34.9785 9.8232C40.5728 9.8232 45.2915 13.2421 47.2944 18.7434C47.8066 20.1523 47.5139 21.9566 45.2388 22.9365L44.9002 23.0708L28.4913 29.0427C29.8221 31.8244 32.4139 33.4728 35.4977 33.4728C36.7615 33.4577 38.013 33.2217 39.1955 32.7755C40.6054 32.2796 41.9198 31.5494 43.0838 30.6169L43.674 30.1159C44.2436 29.6441 44.9568 29.3804 45.6963 29.3682C47.0464 29.3682 48.2668 30.3425 48.538 31.6365C48.7016 32.4079 48.5131 33.1961 48.0067 33.8855L47.7864 34.1566L47.767 34.1721C45.7835 35.9019 43.2827 37.345 40.5379 38.3426C39.5124 38.7147 38.461 39.0113 37.3921 39.2298C36.2182 39.478 35.022 39.6059 33.8221 39.6114C27.761 39.6114 23.0017 36.0859 20.7644 29.9377C19.3832 26.141 19.3503 22.2049 20.6753 18.8577C22.1397 15.1656 25.1344 12.4034 29.3417 10.8731C31.2574 10.1757 33.1538 9.8232 34.9785 9.8232ZM191.096 15.8533C186.428 15.8533 183.412 19.3729 183.412 24.8219C183.412 30.4529 186.356 33.9513 191.096 33.9513C195.765 33.9513 198.781 30.3677 198.781 24.8219C198.781 19.3729 195.765 15.8533 191.096 15.8533ZM65.6287 16.417C61.034 16.417 57.9463 19.8262 57.9463 24.9013C57.9463 29.8834 61.0011 33.2287 65.5493 33.2287C70.8568 33.2287 73.2336 29.0059 73.2336 24.8219C73.2336 19.0146 69.4137 16.417 65.6287 16.417ZM34.0817 15.5956C33.3874 15.5956 32.6734 15.7023 31.9533 15.9135L31.4124 16.0915C27.2342 17.6121 26.3101 21.137 26.7987 23.9657L26.8564 24.2659L40.1563 19.4252C39.1277 17.5133 37.0512 15.5956 34.0817 15.5956Z" fill="#1D1C39"/>
<path d="M264.571 27.1367C261.115 27.141 258.315 29.9414 258.311 33.3973C258.315 36.8532 261.115 39.6536 264.571 39.6579C268.028 39.6547 270.83 36.8539 270.834 33.3973C270.83 29.9407 268.028 27.1399 264.571 27.1367Z" fill="#FF22B1"/>
</svg>
