<svg  viewBox="95 25 150 32" fill="none" xmlns="http://www.w3.org/2000/svg"><defs>
<clipPath id="clip0_0_2903">
<rect width="50" height="50" fill="white" transform="translate(20 16)"/>
</clipPath>
<clipPath id="clip1_0_2903">
<rect width="100" height="13.6691" fill="white" transform="translate(96 34)"/>
</clipPath>
</defs><g clip-path="url(#clip0_0_2903)">
<path d="M63.2432 16H26.7568C23.0251 16 20 19.0251 20 22.7568V59.2432C20 62.9749 23.0251 66 26.7568 66H63.2432C66.9749 66 70 62.9749 70 59.2432V22.7568C70 19.0251 66.9749 16 63.2432 16Z" fill="#1B1A32"/>
<path fill-rule="evenodd" clip-rule="evenodd" d="M45.7575 37.5445C47.1981 37.5445 48.0238 36.7608 48.0238 35.3918C48.0238 34.1027 47.1359 33.2378 45.8143 33.2378H42.5481V30.8189C42.5481 29.0743 41.2954 28.1621 40.0575 28.1621C38.8211 28.1608 37.5684 29.0743 37.5684 30.8189V47.5027C37.5684 51.5121 39.167 53.2999 42.7494 53.2999C44.6913 53.2999 45.8021 52.8013 46.6265 52.3162C47.2575 51.9648 47.4819 51.2216 47.4819 50.6432C47.4819 49.5702 46.7657 48.3743 45.7346 48.3743C45.5174 48.3764 45.3039 48.4302 45.1116 48.531C44.8413 48.6554 44.4697 48.8256 43.9265 48.8256C43.2846 48.8256 42.5481 48.5986 42.5481 46.8297V37.5459H45.7589L45.7575 37.5445Z" fill="white"/>
<path fill-rule="evenodd" clip-rule="evenodd" d="M55.8111 44.3784C54.557 44.38 53.3558 44.8788 52.4691 45.7654C51.5824 46.6521 51.0835 47.8541 51.082 49.1081C51.0835 50.3622 51.5824 51.5642 52.4691 52.4509C53.3558 53.3375 54.557 53.8363 55.8111 53.8379C57.065 53.8367 58.2677 53.3381 59.1543 52.4514C60.0411 51.5646 60.54 50.3623 60.5415 49.1081C60.54 47.854 60.0411 46.6517 59.1543 45.7649C58.2677 44.8781 57.065 44.3796 55.8111 44.3784Z" fill="#FF1FA8"/>
</g><g clip-path="url(#clip1_0_2903)">
<path fill-rule="evenodd" clip-rule="evenodd" d="M100.36 39.1274C101.127 39.1274 101.566 38.7101 101.566 37.9814C101.566 37.295 101.094 36.8346 100.39 36.8346H98.6511V35.5468C98.6511 34.6181 97.9842 34.1324 97.3252 34.1324C96.6669 34.1317 96 34.6181 96 35.5468V44.4289C96 46.5634 96.8511 47.5152 98.7583 47.5152C99.7921 47.5152 100.383 47.2497 100.822 46.9915C101.158 46.8044 101.278 46.4087 101.278 46.1008C101.278 45.5296 100.896 44.8929 100.347 44.8929C100.232 44.894 100.118 44.9227 100.016 44.9763C99.8719 45.0425 99.6741 45.1332 99.3849 45.1332C99.0432 45.1332 98.6511 45.0123 98.6511 44.0706V39.1281H100.36L100.36 39.1274Z" fill="#1B1A32"/>
<path fill-rule="evenodd" clip-rule="evenodd" d="M106.491 38.7684C106.826 38.6461 107.16 38.5842 107.482 38.5842C108.585 38.5842 109.356 39.2964 109.738 40.0065L104.799 41.8043C104.573 40.7367 104.884 39.3533 106.491 38.7684ZM111.796 43.6993C111.521 43.7038 111.256 43.8018 111.045 43.977L111.007 44.0101C110.532 44.4301 109.98 44.7543 109.382 44.9648C108.942 45.1305 108.478 45.2182 108.008 45.2238C106.863 45.2238 105.9 44.6115 105.406 43.5784L111.5 41.3605C112.46 41.0108 112.589 40.3015 112.389 39.7533C111.646 37.7101 109.893 36.4403 107.815 36.4403C107.138 36.4403 106.433 36.5712 105.722 36.8302C104.159 37.3986 103.047 38.4245 102.503 39.7957C102.011 41.0389 102.023 42.5007 102.536 43.9108C103.367 46.1943 105.135 47.5036 107.386 47.5036C107.831 47.5016 108.276 47.4541 108.712 47.3619C109.109 47.2807 109.499 47.1706 109.88 47.0324C110.9 46.6619 111.828 46.1259 112.565 45.4835L112.572 45.4777L112.578 45.4713C112.823 45.1943 112.92 44.8641 112.851 44.5418C112.751 44.0612 112.297 43.6993 111.796 43.6993Z" fill="#1B1A32"/>
<path fill-rule="evenodd" clip-rule="evenodd" d="M122.023 42.0107C122.023 43.5646 121.141 45.133 119.169 45.133C117.48 45.133 116.346 43.8905 116.346 42.0402C116.346 40.1553 117.493 38.8891 119.199 38.8891C120.605 38.8891 122.023 39.8538 122.023 42.0114V42.0107ZM123.408 36.5063C122.623 36.5063 122.053 37.0639 122.053 37.8315V37.874C121.272 36.9891 120.116 36.5063 118.752 36.5063C115.673 36.5063 113.605 38.7186 113.605 42.0107C113.605 45.3035 115.637 47.5157 118.662 47.5157C120.144 47.5157 121.353 46.9769 122.113 45.9891V46.1905C122.113 47.1675 122.782 47.5157 123.408 47.5157C124.189 47.5157 124.674 47.0078 124.674 46.1898V37.8315C124.674 37.0265 124.177 36.5063 123.408 36.5063" fill="#1B1A32"/>
<path fill-rule="evenodd" clip-rule="evenodd" d="M138.642 36.5065C137.085 36.5065 135.88 37.1957 135.293 38.4093C134.649 37.1626 133.491 36.5065 131.925 36.5065C130.76 36.5065 129.717 36.9683 129.101 37.7345C129.082 37.0201 128.531 36.5065 127.775 36.5065C127.101 36.5065 126.42 36.9345 126.42 37.8913V46.1899C126.42 47.0453 126.891 47.5158 127.746 47.5158C128.595 47.5158 129.101 47.0201 129.101 46.1899V41.2345C129.101 39.5985 129.83 38.769 131.268 38.769C132.68 38.769 133.257 39.5532 133.257 41.4741V46.1604C133.257 47.0345 133.727 47.5158 134.582 47.5158C135.443 47.5158 135.937 47.0216 135.937 46.1604V41.5323C135.937 39.6726 136.656 38.7683 138.134 38.7683C139.528 38.7683 140.122 39.5957 140.122 41.5323V46.1597C140.122 47.0338 140.593 47.5151 141.447 47.5151C142.309 47.5151 142.803 47.0208 142.803 46.1597V41.5323C142.803 38.1971 141.403 36.5057 138.642 36.5057" fill="#1B1A32"/>
<path fill-rule="evenodd" clip-rule="evenodd" d="M158.98 36.5063C158.391 36.5063 157.898 36.9308 157.662 37.6387L155.399 44.0337L153.164 37.6689C152.921 36.9711 152.615 36.5063 151.905 36.5063C151.148 36.5063 150.868 36.9157 150.618 37.6689L148.382 44.0337L146.12 37.6409C145.883 36.9308 145.39 36.5063 144.801 36.5063C144.238 36.5063 143.654 36.9689 143.654 37.7423C143.654 37.9898 143.712 38.2366 143.844 38.5661L146.888 46.3287C147.179 47.0409 147.545 47.5157 148.383 47.5157C149.3 47.5157 149.649 46.879 149.85 46.3243L151.904 40.7258L153.9 46.3207C154.164 47.1135 154.669 47.515 155.398 47.515C156.095 47.515 156.608 47.1164 156.923 46.3265L159.936 38.5423C160.067 38.2488 160.127 37.9948 160.127 37.7423C160.127 37.0373 159.634 36.5063 158.98 36.5063Z" fill="#1B1A32"/>
<path fill-rule="evenodd" clip-rule="evenodd" d="M165.796 45.4014C164.036 45.4014 162.942 44.1021 162.942 42.0107C162.942 39.987 164.062 38.6798 165.796 38.6798C167.53 38.6798 168.65 39.987 168.65 42.0107C168.65 44.0704 167.53 45.4014 165.796 45.4014ZM165.796 36.5359C164.057 36.5359 162.618 37.1071 161.632 38.187C160.749 39.1553 160.262 40.5129 160.262 42.0107C160.262 43.5107 160.748 44.874 161.632 45.8488C162.619 46.9395 164.059 47.5157 165.797 47.5157C169.881 47.5157 171.331 44.5503 171.331 42.0107C171.331 39.4855 169.881 36.5359 165.796 36.5359Z" fill="#1B1A32"/>
<path fill-rule="evenodd" clip-rule="evenodd" d="M177.806 36.5064C177.298 36.5037 176.795 36.6112 176.332 36.8217C175.87 37.0321 175.459 37.3403 175.127 37.7251C175.1 37.3933 174.949 37.0839 174.704 36.8582C174.46 36.6325 174.139 36.5069 173.806 36.5064C173.063 36.5064 172.48 37.0891 172.48 37.8316V46.1899C172.48 47.0604 173.147 47.5158 173.806 47.5158C174.465 47.5158 175.132 47.0604 175.132 46.1899V42.2194C175.132 39.8222 175.788 38.7992 177.329 38.7992C177.574 38.7992 177.716 38.8316 177.854 38.864C177.975 38.892 178.09 38.9186 178.254 38.9186C178.886 38.9186 179.311 38.446 179.311 37.7424C179.311 36.9913 178.72 36.5064 177.806 36.5064Z" fill="#1B1A32"/>
<path fill-rule="evenodd" clip-rule="evenodd" d="M185.424 42.0388L188.319 39.0273C188.722 38.6244 189.103 38.2431 189.103 37.7122C189.103 37.0251 188.584 36.5064 187.896 36.5064C187.358 36.5064 186.976 36.9194 186.606 37.3194L183.103 40.9395V35.4575C183.103 35.1058 182.963 34.7684 182.714 34.5197C182.466 34.2709 182.129 34.1311 181.777 34.1309C181.426 34.1312 181.088 34.271 180.84 34.5194C180.591 34.7678 180.452 35.1046 180.451 35.456V46.1899C180.451 46.9201 181.045 47.5143 181.777 47.5143C182.128 47.514 182.465 47.3742 182.714 47.1258C182.962 46.8773 183.101 46.5405 183.102 46.1891V42.9352L186.609 46.5819C186.67 46.6438 186.731 46.7071 186.791 46.7697C187.143 47.1366 187.506 47.5158 188.045 47.5158C188.683 47.5158 189.222 46.9776 189.222 46.3402C189.222 45.8769 188.907 45.5237 188.586 45.2021L185.423 42.0395L185.424 42.0388Z" fill="#1B1A32"/>
<path fill-rule="evenodd" clip-rule="evenodd" d="M193.085 42.8706C192.468 42.8714 191.878 43.1166 191.442 43.5525C191.006 43.9884 190.76 44.5793 190.76 45.1958C190.76 45.8123 191.006 46.4032 191.442 46.8391C191.878 47.275 192.468 47.5202 193.085 47.521C193.701 47.5204 194.293 47.2753 194.729 46.8394C195.165 46.4034 195.41 45.8123 195.411 45.1958C195.41 44.5792 195.165 43.9882 194.729 43.5522C194.293 43.1163 193.701 42.8712 193.085 42.8706Z" fill="#FF1FA8"/>
</g></svg>