<svg width="208" height="57" viewBox="0 0 208 57" fill="none" xmlns="http://www.w3.org/2000/svg">
<path fill-rule="evenodd" clip-rule="evenodd" d="M84.4149 6.43449C84.0541 5.66686 83.28 5.20923 82.3446 5.20923H78.7303C77.6804 5.20923 76.8956 5.63202 76.4823 6.39316L71.1254 14.2201L75.815 20.6334L84.0027 8.88856C84.9015 7.79675 84.5903 6.80827 84.4149 6.43449Z" fill="#74BB11"/>
<path fill-rule="evenodd" clip-rule="evenodd" d="M56.1736 6.30385L56.1689 6.29677C55.3523 5.2085 54.2658 5.2085 53.9085 5.2085H50.3733C49.4674 5.2085 48.7258 5.62479 48.3384 6.34932C47.9399 7.09156 48.0243 7.9832 48.5758 8.80929L61.6723 26.9644L46.6124 47.9693C46.0863 48.7594 46.0125 49.6374 46.4099 50.3791C46.7996 51.1036 47.5419 51.5187 48.4459 51.5187H52.0597C52.9891 51.5187 53.8064 51.0363 54.215 50.2763L71.0716 27.0483L56.1736 6.30385Z" fill="#009CD9"/>
<path fill-rule="evenodd" clip-rule="evenodd" d="M86.2133 48.1534L75.7061 33.7336L71.0844 40.105L79.3937 51.195L79.6098 51.2895C79.9395 51.4376 80.2965 51.5157 80.6579 51.5186H84.192C85.0459 51.5186 85.7704 51.1395 86.1808 50.4769C86.6012 49.7979 86.613 48.9517 86.2133 48.1534Z" fill="#EB2084"/>
<path fill-rule="evenodd" clip-rule="evenodd" d="M184.974 4.72789C176.878 4.72789 172.305 6.29091 169.679 9.95371C166.936 13.7795 166.384 19.8184 166.384 28.3238C166.384 45.0204 168.968 52 184.974 52C186.897 52 193.468 51.9634 197.305 51.4952C198.797 51.2477 199.466 50.1046 199.466 49.0818V47.2377C199.466 45.8028 198.382 44.7199 196.943 44.7199H184.973C175.942 44.7199 174.314 42.5912 174.082 30.4885V26.5706C174.159 14.1857 175.788 12.008 184.974 12.008C193.445 12.008 195.069 13.9407 195.351 24.8441H181.891V32.2051H199.594C203.081 32.2051 203.081 29.7664 203.081 28.9657V26.6155C202.828 9.63721 198.766 4.72789 184.974 4.72789ZM161.664 5.37683L161.471 5.32605C159.823 4.97943 155.317 4.72789 153.083 4.72789C145.179 4.72789 141.001 8.03757 141.001 14.2991V49.1615C141.001 50.5964 142.005 51.5991 143.444 51.5991H146.256C147.695 51.5991 148.699 50.597 148.699 49.1615V14.9392C148.699 13.3939 149.09 12.008 153.807 12.008L160.791 12.0021C161.475 12.0836 162.127 11.8946 162.63 11.4689C163.178 11.0065 163.48 10.3316 163.48 9.57048V7.80669C163.48 6.64933 162.818 5.7636 161.664 5.37683ZM127.904 5.28944H125.093C123.654 5.28944 122.649 6.2915 122.649 7.72698V44.7205H110.955C103.722 44.7205 100.787 44.2605 100.787 32.7318V7.72698C100.787 6.29209 99.7819 5.28944 98.3434 5.28944H95.6112C94.1728 5.28944 93.0881 6.33697 93.0881 7.72698V32.7318C93.0881 49.1167 99.0308 52 111.517 52C116.009 52 122.161 52 128.027 51.1739L128.163 51.1468C129.612 50.7848 130.347 49.9552 130.347 48.6809V7.72698C130.347 6.29209 129.342 5.28944 127.904 5.28944Z" fill="#272727"/>
<path fill-rule="evenodd" clip-rule="evenodd" d="M32.713 31.8839V44.1294C29.1347 44.6786 23.6803 44.8002 21.8215 44.8002C13.5983 44.8002 12.6972 42.5534 12.6972 37.7817C12.6972 33.3164 14.3683 31.8833 19.5723 31.8833L32.713 31.8839ZM21.4199 4.72729C18.879 4.72729 15.4141 4.79343 11.1029 5.31188L10.908 5.35498C9.65208 5.71223 9.01612 6.53714 9.01612 7.80669V9.56989C9.01612 11.0733 9.95204 12.0074 11.459 12.0074H21.4205C29.4411 12.0074 32.713 14.1804 32.713 19.5072V24.684H19.5723C9.30192 24.684 4.91931 28.6007 4.91931 37.7811C4.91931 48.013 9.45544 52 21.0987 52C25.8149 52 34.4963 51.6333 37.705 50.6549C40.4106 49.9038 40.4106 47.8371 40.4106 47.158V19.0272C40.4106 9.40514 34.1987 4.72729 21.4205 4.72729H21.4199Z" fill="#272727"/>
</svg>
