<svg  viewBox="95 25 150 32" fill="none" xmlns="http://www.w3.org/2000/svg"><defs>
<radialGradient id="paint0_radial_0_2044" cx="0" cy="0" r="1" gradientUnits="userSpaceOnUse" gradientTransform="translate(49.6402 20.628) scale(36.3297 36.3297)">
<stop stop-color="#2440E6"/>
<stop offset="1" stop-color="#5661B3"/>
</radialGradient>
<radialGradient id="paint1_radial_0_2044" cx="0" cy="0" r="1" gradientUnits="userSpaceOnUse" gradientTransform="translate(6.668 60.8266) rotate(-53.345) scale(17.8396 28.3518)">
<stop stop-color="#6574CD" stop-opacity="0.5"/>
<stop offset="1" stop-color="#6574CD"/>
</radialGradient>
<radialGradient id="paint2_radial_0_2044" cx="0" cy="0" r="1" gradientUnits="userSpaceOnUse" gradientTransform="translate(106.377 30.4139) scale(18.8477 18.9493)">
<stop stop-color="#2440E6"/>
<stop offset="1" stop-color="#5661B3"/>
</radialGradient>
<radialGradient id="paint3_radial_0_2044" cx="0" cy="0" r="1" gradientUnits="userSpaceOnUse" gradientTransform="translate(84.0835 51.3812) rotate(-53.4927) scale(9.28724 14.7369)">
<stop stop-color="#6574CD" stop-opacity="0.5"/>
<stop offset="1" stop-color="#6574CD"/>
</radialGradient>
<clipPath id="clip0_0_2044">
<rect width="37.4624" height="50" fill="white" transform="translate(20 16)"/>
</clipPath>
<clipPath id="clip1_0_2044">
<rect width="100" height="26.0797" fill="white" transform="translate(91 28)"/>
</clipPath>
</defs><g clip-path="url(#clip0_0_2044)">
<path d="M38.7286 16.0001C49.0722 16.0001 57.4573 24.3852 57.4573 34.7288C57.4573 45.0723 49.0722 53.4574 38.7286 53.4574C28.3851 53.4574 20 45.0723 20 34.7288C20 24.3852 28.3851 16.0001 38.7286 16.0001Z" fill="url(#paint0_radial_0_2044)"/>
<path d="M35.518 16.2107C31.6478 16.8827 28.3875 18.5253 25.6871 21.1635C22.912 23.8764 21.1946 27.0372 20.3609 30.9821L20.0747 32.3261L20.0373 49.1507L20 65.9878H20.3484C20.5475 65.9878 21.1822 65.9256 21.7546 65.8634C26.6452 65.266 30.8017 62.3043 33.0665 57.8119C33.6389 56.667 34.0496 55.348 34.3358 53.7053C34.5723 52.3116 34.5847 51.8511 34.5473 44.5836L34.51 36.9304L34.8087 36.1838C35.2194 35.1633 36.3518 34.0309 37.3722 33.6202L38.1189 33.3216L45.0877 33.3092C48.9205 33.3092 52.2804 33.2594 52.5418 33.2096C53.7613 32.9732 55.068 31.9527 55.5906 30.8203C55.74 30.5092 55.9391 29.8994 56.0262 29.4887C56.1631 28.8043 56.1507 28.6176 55.9515 27.8461C55.3293 25.5564 53.1391 22.3831 50.8992 20.5289C48.3605 18.4258 45.5605 17.0196 42.5366 16.3103C40.9437 15.9494 37.3349 15.8871 35.518 16.2107Z" fill="url(#paint1_radial_0_2044)"/>
</g><g clip-path="url(#clip1_0_2044)">
<path d="M100.716 28C106.082 28 110.433 32.3736 110.433 37.7688C110.433 43.1639 106.082 47.5375 100.716 47.5375C95.3501 47.5375 91 43.1639 91 37.7688C91 32.3736 95.3501 28 100.716 28Z" fill="url(#paint2_radial_0_2044)"/>
<path d="M99.0506 28.1098C97.0428 28.4603 95.3514 29.3171 93.9504 30.6931C92.5107 32.1081 91.6198 33.7568 91.1872 35.8145L91.0387 36.5155L91.0194 45.291L91 54.0733H91.1808C91.2841 54.0733 91.6133 54.0409 91.9103 54.0083C94.4475 53.6968 96.6038 52.152 97.7788 49.8088C98.0758 49.2116 98.2888 48.5236 98.4373 47.6668C98.56 46.9399 98.5664 46.6997 98.5471 42.909L98.5277 38.9171L98.6826 38.5276C98.8957 37.9954 99.4832 37.4047 100.013 37.1905L100.4 37.0347L104.015 37.0282C106.004 37.0282 107.747 37.0023 107.882 36.9763C108.515 36.853 109.193 36.3207 109.464 35.7301C109.542 35.5678 109.645 35.2497 109.69 35.0355C109.761 34.6785 109.755 34.5812 109.651 34.1788C109.329 32.9844 108.192 31.3293 107.03 30.3621C105.713 29.2651 104.261 28.5317 102.692 28.1617C101.865 27.9735 99.9932 27.941 99.0506 28.1098Z" fill="url(#paint3_radial_0_2044)"/>
<mask id="mask0_0_2044" style="mask-type:alpha" maskUnits="userSpaceOnUse" x="115" y="34" width="76" height="14">
<path d="M190.999 34.8105H115.75V47.269H190.999V34.8105Z" fill="white"/>
<path fill-rule="evenodd" clip-rule="evenodd" d="M127.72 45.2342C127.696 45.0867 127.683 43.2627 127.682 40.0744L127.682 35.1428H129.82L129.831 39.9115C129.841 44.6335 129.841 44.6815 129.914 44.8056C130.045 45.0269 130.169 45.071 130.717 45.0895L131.201 45.1059V46.8338H130.51C129.693 46.8338 129.216 46.7871 128.881 46.674C128.237 46.4564 127.838 45.9626 127.72 45.2342ZM162.214 36.9312V34.9767H164.427V36.9312H162.214ZM166.786 46.6689V34.9767H168.925L168.944 39.1496L169.131 38.9905C169.511 38.6683 170.04 38.4205 170.631 38.2879C170.985 38.2086 172.279 38.1726 172.664 38.2315C173.516 38.3614 174.117 38.64 174.611 39.1336C175.009 39.5316 175.288 40.0603 175.466 40.7588C175.543 41.0611 175.547 41.142 175.546 42.5234C175.545 43.8945 175.54 43.9859 175.466 44.2494C175.279 44.9146 175.059 45.3199 174.66 45.7386C174.006 46.4232 173.244 46.72 172.028 46.7644C170.651 46.8146 169.739 46.5596 169.05 45.9325L168.819 45.7222L168.799 46.6496L166.786 46.6689ZM177.818 45.1865C177.77 44.9607 177.763 44.2569 177.763 39.9512V34.9767H179.902L179.912 39.7454C179.921 44.4678 179.922 44.5154 179.995 44.6395C180.126 44.8607 180.25 44.9049 180.798 44.9234L181.282 44.9398V46.6775L180.348 46.6576C179.638 46.6426 179.357 46.623 179.178 46.5764C178.426 46.3805 177.972 45.9164 177.818 45.1865ZM115.916 46.6677V35.5876L118.755 35.6028L118.852 35.6033C121.832 35.6193 122.517 35.6229 123.272 35.8243C124.01 36.0209 124.528 36.3143 124.976 36.79C125.458 37.3013 125.687 37.8848 125.767 38.8041C125.861 39.8843 125.654 40.9082 125.21 41.5544C124.692 42.3077 123.889 42.7622 122.657 42.9988C122.387 43.0508 121.366 43.0652 119.925 43.082L118.184 43.1025L118.165 46.6677H115.916ZM123.058 37.8893C122.84 37.6722 122.584 37.5415 122.167 37.4338C121.887 37.3614 121.13 37.3537 119.778 37.3398C119.746 37.3395 119.713 37.3391 119.68 37.3388L118.165 37.3232V41.347H119.558C120.631 41.347 121.685 41.3346 121.925 41.2928C122.55 41.1841 122.984 40.9468 123.218 40.5849C123.439 40.2433 123.482 40.0694 123.5 39.4236C123.523 38.6103 123.419 38.2477 123.058 37.8893ZM152.998 40.116C153.258 39.0846 154.119 38.4713 155.612 38.2537C155.8 38.2263 156.29 38.2043 156.757 38.2022C157.618 38.1985 158.151 38.244 158.825 38.3792C159.273 38.4689 160.069 38.6957 160.154 38.7581C160.208 38.7975 160.19 38.873 159.96 39.5585C159.722 40.269 159.702 40.3152 159.62 40.3116C159.572 40.3095 159.337 40.25 159.097 40.1794C158.4 39.9739 157.859 39.8937 157.029 39.8729C155.842 39.8432 155.324 39.987 155.106 40.4068C155.008 40.5961 155.045 40.9176 155.181 41.0608C155.418 41.3098 155.781 41.4089 156.957 41.5466C158.538 41.7316 159.091 41.8679 159.613 42.201C160.207 42.5801 160.463 43.1418 160.468 44.0798C160.473 44.8705 160.288 45.3631 159.808 45.8357C159.112 46.5219 157.995 46.8179 156.304 46.7646C155.123 46.7273 154.145 46.5431 153.072 46.1558L152.777 46.0493L153.03 45.2636C153.17 44.8315 153.29 44.4714 153.297 44.4633C153.304 44.4553 153.51 44.5162 153.755 44.5985C154.526 44.8582 155.155 44.9938 155.976 45.077C156.449 45.1252 157.164 45.1066 157.483 45.038C157.773 44.9757 158.12 44.8011 158.224 44.6657C158.415 44.416 158.435 44.0119 158.269 43.7657C158.089 43.4998 157.696 43.3938 156.422 43.2671C155.24 43.1496 154.635 43.0073 154.057 42.7104C153.552 42.4513 153.239 42.0985 153.051 41.5748C152.944 41.2777 152.914 40.4503 152.998 40.116ZM183.071 39.543C183.603 38.8942 184.529 38.4116 185.546 38.253C185.966 38.1874 187.106 38.1862 187.532 38.2507C188.966 38.4681 190.017 39.1945 190.496 40.3005C190.751 40.8871 190.833 41.3973 190.833 42.381V43.084L184.466 43.1025L184.477 43.2292C184.543 43.9794 184.976 44.5733 185.649 44.836C185.979 44.9649 186.118 44.9953 186.578 45.0383C187.051 45.0825 187.64 45.0406 188.185 44.9245C188.608 44.8342 189.388 44.5815 189.716 44.4286C189.85 44.3662 189.973 44.315 189.989 44.315C190.006 44.315 190.17 44.6529 190.354 45.0661L190.688 45.8172L190.268 46.0195C189.668 46.3092 188.926 46.5401 188.112 46.6913C187.631 46.7805 186.075 46.7825 185.572 46.6945C184.086 46.4347 183.091 45.7455 182.614 44.6463C182.332 43.9952 182.254 43.4296 182.281 42.2197C182.298 41.467 182.312 41.3177 182.395 40.967C182.509 40.4827 182.797 39.8777 183.071 39.543ZM142.882 44.2246L142.859 38.3066H145.003V40.8503C145.003 42.3983 145.017 43.514 145.041 43.7007C145.155 44.6278 145.755 45.0808 146.871 45.0833C147.897 45.0857 148.441 44.7694 148.689 44.0255C148.751 43.8409 148.756 43.6249 148.767 41.0665L148.779 38.3066H150.919L150.906 41.2475C150.895 43.8499 150.886 44.2167 150.832 44.4351C150.546 45.5956 149.667 46.372 148.328 46.6473C147.622 46.7926 146.363 46.8121 145.583 46.69C144.168 46.4684 143.305 45.7666 142.977 44.5712L142.882 44.2246ZM162.251 46.6677V38.3066H164.391V46.6677H162.251ZM188.601 41.1724C188.444 40.5054 188.007 40.0629 187.326 39.8789C187.21 39.8475 186.91 39.8148 186.661 39.8063C186.136 39.7884 185.718 39.8605 185.392 40.0254C185.11 40.1682 184.793 40.484 184.667 40.7476C184.562 40.9683 184.448 41.4303 184.448 41.6351V41.7452H188.656L188.656 41.5733C188.656 41.4787 188.631 41.2983 188.601 41.1724ZM173.304 41.2566C173.094 40.575 172.637 40.1496 171.948 39.9943C171.62 39.9203 170.753 39.9201 170.413 39.9939C169.674 40.1543 169.205 40.5945 169.009 41.3108C168.915 41.653 168.914 43.3542 169.007 43.6901C169.193 44.3625 169.596 44.7405 170.333 44.9358C170.559 44.9956 170.724 45.0097 171.194 45.0097C172.068 45.0097 172.504 44.8722 172.877 44.478C173.073 44.2711 173.199 44.046 173.302 43.7178C173.362 43.527 173.37 43.3775 173.37 42.4872C173.37 41.6062 173.361 41.4453 173.304 41.2566Z" fill="black"/>
<path fill-rule="evenodd" clip-rule="evenodd" d="M135.914 38.389C134.792 38.5343 133.93 38.9277 133.339 39.564L134.481 41.0397C134.505 41.0398 134.783 40.743 134.889 40.6423C135.1 40.44 135.535 40.2086 135.878 40.1156C136.213 40.0249 136.947 40.0077 137.315 40.082C137.882 40.1967 138.209 40.4153 138.383 40.7959C138.472 40.991 138.489 41.081 138.502 41.4111L138.516 41.7979L136.671 41.8122C134.947 41.8256 134.803 41.8316 134.481 41.904C133.624 42.0966 133.066 42.4777 132.763 43.0779C132.586 43.4264 132.523 43.7482 132.523 44.3001C132.523 44.859 132.586 45.1715 132.774 45.5489C133.16 46.3254 133.902 46.7668 135.062 46.909C135.473 46.9595 136.378 46.9308 136.752 46.8553C137.382 46.7281 137.98 46.456 138.397 46.1067L138.653 45.8922C138.839 46.5215 139.292 46.8876 139.587 46.9367C140.085 47.0198 141.331 46.9367 141.331 46.9367V45.0264C141.331 45.0264 140.75 44.9434 140.667 44.7773C140.584 44.6112 140.667 43.8477 140.667 43.8477C140.666 41.2233 140.66 40.8503 140.607 40.6257C140.304 39.3327 139.472 38.6506 137.916 38.4202C137.566 38.3683 136.235 38.3475 135.914 38.389ZM138.434 44.3875C138.495 44.2232 138.508 44.1044 138.508 43.7015V43.2142L137.084 43.2171C135.336 43.2207 135.158 43.2481 134.888 43.5553C134.747 43.7152 134.699 43.8836 134.699 44.2235C134.699 44.6021 134.755 44.7562 134.971 44.9731C135.284 45.2876 135.778 45.4125 136.549 45.3726C137.067 45.3457 137.354 45.2786 137.733 45.0959C138.084 44.9266 138.322 44.6867 138.434 44.3875Z" fill="black"/>
</mask>
<g mask="url(#mask0_0_2044)">
<path fill-rule="evenodd" clip-rule="evenodd" d="M127.72 45.2343C127.696 45.0868 127.682 43.2629 127.682 40.0745L127.682 35.1429H129.82L129.83 39.9116C129.84 44.6336 129.841 44.6816 129.914 44.8057C130.045 45.027 130.169 45.0712 130.717 45.0896L131.201 45.106V46.8339H130.51C129.693 46.8339 129.216 46.7873 128.881 46.6741C128.236 46.4565 127.838 45.9627 127.72 45.2343ZM162.214 36.9313V34.9768H164.427V36.9313H162.214ZM166.785 46.669V34.9768H168.925L168.944 39.1497L169.131 38.9906C169.511 38.6684 170.04 38.4206 170.631 38.2881C170.985 38.2087 172.279 38.1727 172.664 38.2316C173.516 38.3616 174.117 38.6401 174.611 39.1337C175.009 39.5318 175.287 40.0604 175.466 40.7589C175.543 41.0612 175.547 41.1421 175.546 42.5235C175.544 43.8946 175.54 43.986 175.466 44.2495C175.279 44.9147 175.059 45.32 174.66 45.7388C174.006 46.4233 173.244 46.7202 172.028 46.7645C170.651 46.8147 169.739 46.5597 169.05 45.9326L168.819 45.7223L168.799 46.6497L166.785 46.669ZM177.818 45.1866C177.77 44.9609 177.763 44.257 177.763 39.9513V34.9768H179.902L179.912 39.7455C179.921 44.468 179.922 44.5155 179.995 44.6396C180.126 44.8609 180.25 44.905 180.797 44.9235L181.282 44.9399V46.6776L180.348 46.6577C179.637 46.6428 179.357 46.6232 179.178 46.5765C178.426 46.3806 177.972 45.9165 177.818 45.1866ZM115.916 46.6678V35.5878L118.755 35.603L118.852 35.6035C121.831 35.6194 122.517 35.6231 123.272 35.8245C124.01 36.021 124.527 36.3145 124.976 36.7901C125.458 37.3014 125.687 37.8849 125.767 38.8043C125.861 39.8844 125.654 40.9083 125.21 41.5546C124.692 42.3078 123.889 42.7623 122.657 42.999C122.387 43.0509 121.366 43.0653 119.925 43.0822L118.183 43.1026L118.165 46.6678H115.916ZM123.058 37.8894C122.84 37.6724 122.584 37.5416 122.167 37.4339C121.886 37.3616 121.13 37.3538 119.778 37.3399C119.746 37.3396 119.713 37.3392 119.68 37.3389L118.165 37.3233V41.3472H119.557C120.631 41.3472 121.685 41.3347 121.925 41.293C122.55 41.1842 122.984 40.9469 123.218 40.585C123.439 40.2435 123.482 40.0695 123.5 39.4237C123.523 38.6104 123.419 38.2478 123.058 37.8894ZM152.998 40.1161C153.258 39.0847 154.119 38.4714 155.612 38.2538C155.8 38.2264 156.29 38.2044 156.757 38.2024C157.618 38.1986 158.151 38.2441 158.825 38.3793C159.273 38.469 160.069 38.6959 160.154 38.7582C160.208 38.7976 160.19 38.8731 159.96 39.5587C159.722 40.2691 159.701 40.3153 159.62 40.3117C159.572 40.3096 159.336 40.2501 159.097 40.1795C158.4 39.9741 157.859 39.8939 157.029 39.8731C155.842 39.8433 155.323 39.9872 155.106 40.4069C155.008 40.5962 155.045 40.9177 155.181 41.061C155.418 41.3099 155.781 41.409 156.957 41.5467C158.538 41.7317 159.091 41.868 159.613 42.2011C160.207 42.5803 160.463 43.1419 160.468 44.0799C160.472 44.8707 160.287 45.3632 159.808 45.8358C159.112 46.522 157.995 46.818 156.304 46.7647C155.123 46.7275 154.144 46.5433 153.071 46.1559L152.777 46.0494L153.03 45.2637C153.17 44.8316 153.289 44.4715 153.297 44.4635C153.304 44.4554 153.51 44.5163 153.754 44.5986C154.526 44.8584 155.155 44.9939 155.976 45.0771C156.449 45.1253 157.164 45.1067 157.483 45.0381C157.773 44.9758 158.12 44.8012 158.223 44.6658C158.415 44.4162 158.435 44.012 158.269 43.7658C158.089 43.4999 157.696 43.3939 156.422 43.2672C155.239 43.1497 154.635 43.0075 154.057 42.7105C153.552 42.4514 153.239 42.0986 153.051 41.5749C152.944 41.2779 152.914 40.4505 152.998 40.1161ZM183.071 39.5431C183.603 38.8944 184.529 38.4117 185.546 38.2531C185.966 38.1876 187.106 38.1863 187.531 38.2508C188.966 38.4682 190.017 39.1947 190.496 40.3006C190.75 40.8872 190.833 41.3975 190.833 42.3811V43.0841L184.466 43.1026L184.477 43.2293C184.543 43.9795 184.975 44.5734 185.649 44.8361C185.979 44.965 186.118 44.9954 186.578 45.0384C187.051 45.0826 187.64 45.0408 188.185 44.9246C188.608 44.8343 189.388 44.5816 189.716 44.4287C189.85 44.3663 189.973 44.3152 189.989 44.3152C190.006 44.3152 190.17 44.6531 190.353 45.0662L190.687 45.8173L190.268 46.0197C189.668 46.3094 188.926 46.5403 188.112 46.6914C187.631 46.7806 186.075 46.7826 185.572 46.6946C184.086 46.4348 183.09 45.7456 182.614 44.6464C182.332 43.9953 182.254 43.4297 182.281 42.2198C182.298 41.4672 182.312 41.3178 182.395 40.9671C182.509 40.4828 182.797 39.8779 183.071 39.5431ZM142.882 44.2247L142.859 38.3068H145.003V40.8504C145.003 42.3985 145.017 43.5141 145.04 43.7008C145.155 44.628 145.755 45.081 146.871 45.0835C147.897 45.0858 148.441 44.7695 148.689 44.0256C148.75 43.841 148.756 43.6251 148.767 41.0667L148.779 38.3068H150.919L150.906 41.2476C150.894 43.85 150.886 44.2169 150.832 44.4352C150.545 45.5957 149.667 46.3722 148.328 46.6474C147.622 46.7928 146.363 46.8122 145.583 46.6901C144.168 46.4685 143.305 45.7667 142.977 44.5714L142.882 44.2247ZM162.251 46.6678V38.3068H164.391V46.6678H162.251ZM188.601 41.1725C188.443 40.5055 188.007 40.0631 187.326 39.879C187.21 39.8476 186.91 39.8149 186.661 39.8064C186.136 39.7885 185.718 39.8606 185.392 40.0255C185.11 40.1683 184.793 40.4842 184.667 40.7478C184.562 40.9684 184.448 41.4304 184.448 41.6352V41.7453H188.656L188.656 41.5734C188.655 41.4788 188.631 41.2984 188.601 41.1725ZM173.303 41.2567C173.094 40.5751 172.637 40.1497 171.948 39.9944C171.62 39.9205 170.753 39.9202 170.413 39.994C169.674 40.1545 169.205 40.5947 169.009 41.311C168.915 41.6532 168.914 43.3543 169.007 43.6903C169.193 44.3627 169.596 44.7406 170.333 44.9359C170.559 44.9957 170.724 45.0099 171.193 45.0099C172.068 45.0099 172.503 44.8723 172.877 44.4782C173.073 44.2712 173.199 44.0461 173.302 43.718C173.362 43.5272 173.37 43.3776 173.37 42.4873C173.37 41.6064 173.361 41.4455 173.303 41.2567Z" fill="#191E38"/>
<path fill-rule="evenodd" clip-rule="evenodd" d="M135.916 38.3892C134.794 38.5345 133.932 38.9278 133.341 39.5641L134.483 41.0399C134.507 41.0399 134.785 40.7431 134.891 40.6424C135.102 40.4401 135.537 40.2088 135.88 40.1157C136.215 40.025 136.949 40.0078 137.317 40.0821C137.884 40.1968 138.211 40.4154 138.385 40.7961C138.474 40.9911 138.491 41.0811 138.504 41.4113L138.518 41.798L136.673 41.8123C134.949 41.8257 134.805 41.8317 134.483 41.9041C133.626 42.0967 133.068 42.4778 132.765 43.078C132.588 43.4265 132.525 43.7483 132.525 44.3002C132.525 44.8591 132.588 45.1716 132.776 45.549C133.162 46.3256 133.904 46.7669 135.064 46.9091C135.475 46.9596 136.38 46.9309 136.753 46.8555C137.384 46.7282 137.982 46.4561 138.399 46.1068L138.655 45.8923C138.841 46.5216 139.294 46.8877 139.589 46.9369C140.087 47.0199 141.333 46.9369 141.333 46.9369V45.0266C141.333 45.0266 140.751 44.9435 140.669 44.7774C140.586 44.6113 140.669 43.8478 140.669 43.8478C140.668 41.2235 140.662 40.8504 140.609 40.6258C140.306 39.3328 139.474 38.6507 137.918 38.4203C137.568 38.3684 136.237 38.3476 135.916 38.3892ZM138.436 44.3876C138.497 44.2233 138.51 44.1046 138.51 43.7016V43.2144L137.086 43.2172C135.338 43.2208 135.16 43.2482 134.89 43.5554C134.749 43.7153 134.701 43.8838 134.701 44.2236C134.701 44.6022 134.757 44.7563 134.973 44.9732C135.286 45.2877 135.78 45.4126 136.551 45.3727C137.069 45.3458 137.356 45.2787 137.735 45.096C138.086 44.9267 138.324 44.6869 138.436 44.3876Z" fill="#191E38"/>
<path d="M118.852 35.5203C118.82 35.5201 118.788 35.5199 118.755 35.5197L118.754 35.6859C118.787 35.686 118.819 35.6862 118.851 35.6864L118.852 35.5203ZM127.682 40.0744H127.849V40.0744L127.682 40.0744ZM127.72 45.2341L127.556 45.2609L127.72 45.2341ZM128.881 46.674L128.934 46.5165L128.881 46.674ZM131.201 46.8338V46.9999H131.367V46.8338H131.201ZM131.201 45.1059H131.367V44.9453L131.207 44.9399L131.201 45.1059ZM130.717 45.0894L130.711 45.2556L130.717 45.0894ZM129.914 44.8056L129.771 44.8899L129.914 44.8056ZM129.831 39.9115L129.997 39.9111L129.831 39.9115ZM129.82 35.1428L129.987 35.1424L129.986 34.9767H129.82V35.1428ZM127.682 35.1428V34.9767H127.516V35.1428L127.682 35.1428ZM162.214 36.9312H162.048V37.0973H162.214V36.9312ZM164.427 36.9312V37.0973H164.594V36.9312H164.427ZM164.427 34.9767H164.594V34.8105H164.427V34.9767ZM162.214 34.9767V34.8105H162.048V34.9767H162.214ZM166.786 46.6689H166.619V46.8366L166.787 46.835L166.786 46.6689ZM168.799 46.6496L168.801 46.8157L168.962 46.8142L168.965 46.6532L168.799 46.6496ZM168.819 45.7222L168.931 45.5994L168.661 45.3536L168.653 45.7185L168.819 45.7222ZM169.05 45.9325L168.938 46.0554H168.939L169.05 45.9325ZM172.028 46.7644L172.034 46.9303L172.028 46.7644ZM174.66 45.7386L174.78 45.8532L174.66 45.7386ZM175.466 44.2494L175.626 44.2944V44.2944L175.466 44.2494ZM175.546 42.5234L175.712 42.5235L175.546 42.5234ZM175.466 40.7587L175.305 40.7999L175.466 40.7587ZM174.611 39.1336L174.493 39.2511L174.611 39.1336ZM172.664 38.2314L172.639 38.3956L172.664 38.2314ZM170.631 38.2879L170.667 38.45L170.631 38.2879ZM169.131 38.9905L169.024 38.8639L169.131 38.9905ZM168.944 39.1495L168.778 39.1503L168.78 39.5072L169.052 39.2761L168.944 39.1495ZM168.925 34.9767L169.092 34.9759L169.091 34.8105H168.925V34.9767ZM166.786 34.9767V34.8105H166.619V34.9767H166.786ZM177.818 45.1865L177.98 45.1521L177.818 45.1865ZM179.178 46.5763L179.136 46.7371L179.178 46.5763ZM180.348 46.6576L180.351 46.4916L180.348 46.6576ZM181.282 46.6775L181.278 46.8436L181.448 46.8471V46.6775H181.282ZM181.282 44.9398H181.448V44.7792L181.288 44.7738L181.282 44.9398ZM180.798 44.9233L180.792 45.0894L180.798 44.9233ZM179.995 44.6395L179.852 44.7238L179.995 44.6395ZM179.912 39.7454L180.078 39.745L179.912 39.7454ZM179.902 34.9767L180.068 34.9763L180.068 34.8105H179.902V34.9767ZM177.763 34.9767V34.8105H177.597V34.9767H177.763ZM115.916 46.6677H115.75V46.8338H115.916V46.6677ZM118.165 46.6677V46.8338H118.33L118.331 46.6685L118.165 46.6677ZM118.184 43.1025L118.182 42.9364L118.018 42.9383L118.017 43.1016L118.184 43.1025ZM119.925 43.082L119.923 42.9159L119.925 43.082ZM122.657 42.9988L122.626 42.8357L122.657 42.9988ZM125.21 41.5544L125.347 41.6485L125.21 41.5544ZM125.767 38.8041L125.933 38.7897L125.767 38.8041ZM124.976 36.79L125.097 36.676L124.976 36.79ZM123.272 35.8243L123.315 35.6638L123.272 35.8243ZM118.755 35.6028L118.754 35.7689L118.755 35.6028ZM115.916 35.5876L115.917 35.4215L115.75 35.4206V35.5876H115.916ZM122.167 37.4338L122.125 37.5946L122.167 37.4338ZM123.058 37.8893L122.941 38.0071L123.058 37.8893ZM123.5 39.4236L123.666 39.4283V39.4283L123.5 39.4236ZM123.218 40.5848L123.358 40.6752L123.218 40.5848ZM121.925 41.2928L121.954 41.4565V41.4565L121.925 41.2928ZM118.165 41.347H117.999V41.5131H118.165V41.347ZM118.165 37.3232L118.167 37.1571L117.999 37.1554V37.3232H118.165ZM119.68 37.3388L119.682 37.1727L119.68 37.3388ZM135.915 38.3891L135.936 38.5538L135.915 38.3891ZM133.34 39.5641L133.218 39.4511L133.122 39.5543L133.208 39.6657L133.34 39.5641ZM134.481 41.0398L134.35 41.1414L134.4 41.2058L134.481 41.2059L134.481 41.0398ZM134.889 40.6424L135.004 40.7624L134.889 40.6424ZM135.878 40.1157L135.922 40.276L135.878 40.1157ZM137.315 40.082L137.282 40.2448L137.315 40.082ZM138.383 40.796L138.232 40.8649L138.383 40.796ZM138.502 41.4112L138.336 41.4174L138.502 41.4112ZM138.516 41.7979L138.518 41.964L138.689 41.9627L138.682 41.7917L138.516 41.7979ZM136.671 41.8122L136.67 41.6461L136.671 41.8122ZM134.481 41.9041L134.518 42.0661L134.481 41.9041ZM132.763 43.0779L132.911 43.1529V43.1529L132.763 43.0779ZM132.774 45.5489L132.923 45.475L132.774 45.5489ZM135.062 46.9091L135.042 47.074L135.062 46.9091ZM136.752 46.8554L136.719 46.6926L136.752 46.8554ZM138.398 46.1067L138.504 46.234H138.504L138.398 46.1067ZM138.654 45.8923L138.813 45.8451L138.741 45.6022L138.547 45.7649L138.654 45.8923ZM141.331 46.9368L141.343 47.1026L141.498 47.0923V46.9368H141.331ZM140.667 43.8477L140.832 43.8657L140.833 43.8567V43.8477L140.667 43.8477ZM140.607 40.6257L140.769 40.5878V40.5878L140.607 40.6257ZM137.917 38.4202L137.941 38.2559L137.917 38.4202ZM155.612 38.2537L155.636 38.4181L155.612 38.2537ZM152.998 40.1159L152.837 40.0754V40.0754L152.998 40.1159ZM153.051 41.5748L153.207 41.5185V41.5185L153.051 41.5748ZM154.057 42.7104L154.133 42.5626L154.057 42.7104ZM156.422 43.2671L156.405 43.4324L156.422 43.2671ZM158.269 43.7657L158.131 43.8586L158.269 43.7657ZM158.224 44.6657L158.356 44.7667L158.224 44.6657ZM157.483 45.038L157.448 44.8757L157.483 45.038ZM155.976 45.077L155.993 44.9119L155.976 45.077ZM153.754 44.5985L153.807 44.441L153.754 44.5985ZM153.03 45.2635L153.188 45.3145L153.03 45.2635ZM152.777 46.0493L152.619 45.9983L152.569 46.1511L152.72 46.2056L152.777 46.0493ZM153.072 46.1557L153.128 45.9994L153.072 46.1557ZM156.304 46.7645L156.298 46.9306L156.304 46.7645ZM159.808 45.8356L159.925 45.9539L159.808 45.8356ZM160.468 44.0797L160.302 44.0807L160.468 44.0797ZM159.613 42.2009L159.523 42.341L159.613 42.2009ZM156.957 41.5466L156.937 41.7115L156.957 41.5466ZM155.181 41.0608L155.061 41.1754V41.1754L155.181 41.0608ZM155.106 40.4068L154.958 40.3303V40.3303L155.106 40.4068ZM157.029 39.8729L157.025 40.039L157.029 39.8729ZM159.097 40.1794L159.144 40.0201V40.02L159.097 40.1794ZM159.62 40.3116L159.612 40.4775L159.62 40.3116ZM159.96 39.5585L160.118 39.6112V39.6112L159.96 39.5585ZM160.154 38.758L160.056 38.8922L160.056 38.8923L160.154 38.758ZM158.825 38.3792L158.792 38.542L158.825 38.3792ZM156.757 38.2022L156.756 38.0361L156.757 38.2022ZM185.546 38.2529L185.52 38.0888L185.546 38.2529ZM183.071 39.5429L182.943 39.4376L183.071 39.5429ZM182.395 40.967L182.556 41.0053V41.0052L182.395 40.967ZM182.281 42.2196L182.115 42.2159L182.281 42.2196ZM182.614 44.6463L182.462 44.7124L182.614 44.6463ZM185.572 46.6944L185.601 46.5308L185.572 46.6944ZM188.112 46.6913L188.142 46.8546L188.112 46.6913ZM190.268 46.0195L190.34 46.1692L190.268 46.0195ZM190.688 45.8172L190.76 45.9667L190.905 45.8968L190.839 45.7496L190.688 45.8172ZM190.353 45.066L190.505 44.9986L190.353 45.066ZM189.716 44.4286L189.646 44.278V44.278L189.716 44.4286ZM188.185 44.9245L188.219 45.087L188.185 44.9245ZM186.578 45.0383L186.563 45.2036L186.578 45.0383ZM185.649 44.836L185.709 44.6811L185.649 44.836ZM184.477 43.2292L184.312 43.2436L184.477 43.2292ZM184.466 43.1025L184.466 42.9364L184.285 42.9369L184.3 43.1169L184.466 43.1025ZM190.833 43.084L190.834 43.2501L190.999 43.2496V43.084H190.833ZM190.496 40.3005L190.344 40.3665V40.3666L190.496 40.3005ZM187.532 38.2507L187.507 38.4149L187.532 38.2507ZM142.882 44.2245L142.716 44.2252L142.716 44.2472L142.722 44.2684L142.882 44.2245ZM142.977 44.5712L142.817 44.6152L142.977 44.5712ZM145.583 46.6899L145.609 46.5258L145.583 46.6899ZM148.328 46.6473L148.362 46.81L148.328 46.6473ZM150.832 44.435L150.993 44.4749V44.4748L150.832 44.435ZM150.906 41.2475L150.74 41.2467L150.906 41.2475ZM150.919 38.3066L151.085 38.3074L151.086 38.1405H150.919V38.3066ZM148.779 38.3066V38.1405H148.614L148.613 38.3059L148.779 38.3066ZM148.767 41.0665L148.601 41.0658L148.767 41.0665ZM148.689 44.0255L148.847 44.078V44.078L148.689 44.0255ZM146.871 45.0833L146.871 44.9172L146.871 45.0833ZM145.041 43.7006L144.876 43.721V43.721L145.041 43.7006ZM145.003 38.3066H145.169V38.1405H145.003V38.3066ZM142.859 38.3066V38.1405H142.692L142.693 38.3073L142.859 38.3066ZM162.251 46.6677H162.085V46.8338H162.251V46.6677ZM164.391 46.6677V46.8338H164.557V46.6677H164.391ZM164.391 38.3066H164.557V38.1405H164.391V38.3066ZM162.251 38.3066V38.1405H162.085V38.3066H162.251ZM187.326 39.8789L187.283 40.0392L187.326 39.8789ZM188.601 41.1724L188.763 41.1342V41.1342L188.601 41.1724ZM188.656 41.5732L188.49 41.5737V41.5738L188.656 41.5732ZM188.656 41.7452V41.9113H188.823L188.822 41.7446L188.656 41.7452ZM184.448 41.7452H184.282V41.9113H184.448V41.7452ZM184.667 40.7476L184.817 40.8191V40.819L184.667 40.7476ZM185.392 40.0254L185.467 40.1736V40.1736L185.392 40.0254ZM186.661 39.8063L186.655 39.9723L186.661 39.8063ZM171.948 39.9943L171.912 40.1563L171.948 39.9943ZM173.303 41.2565L173.145 41.3053V41.3053L173.303 41.2565ZM173.302 43.7178L173.461 43.7675L173.302 43.7178ZM172.877 44.478L172.757 44.3637V44.3637L172.877 44.478ZM170.333 44.9358L170.376 44.7752L170.333 44.9358ZM169.007 43.6901L168.847 43.7345V43.7345L169.007 43.6901ZM169.009 41.3108L169.169 41.3547V41.3547L169.009 41.3108ZM170.413 39.9939L170.449 40.1562L170.413 39.9939ZM138.434 44.3875L138.59 44.4459V44.4458L138.434 44.3875ZM137.733 45.0959L137.661 44.9464L137.733 45.0959ZM136.55 45.3727L136.541 45.2067L136.55 45.3727ZM134.971 44.9732L135.089 44.8561L134.971 44.9732ZM134.7 44.2236L134.866 44.2237V44.2237L134.7 44.2236ZM134.888 43.5553L135.013 43.6651V43.6651L134.888 43.5553ZM137.085 43.2172L137.084 43.051L137.085 43.2172ZM138.509 43.2143H138.675V43.0479L138.508 43.0482L138.509 43.2143ZM141.331 45.0265H141.498V44.8825L141.355 44.862L141.331 45.0265ZM118.852 35.6033L118.851 35.7694L118.852 35.6033ZM119.778 37.3398L119.777 37.5059L119.778 37.3398ZM127.516 40.0744C127.516 41.6687 127.52 42.9222 127.526 43.7958C127.529 44.2325 127.533 44.5747 127.538 44.8172C127.54 44.9385 127.543 45.0355 127.545 45.1072C127.548 45.174 127.551 45.2301 127.556 45.2609L127.884 45.2076C127.884 45.2084 127.884 45.2064 127.883 45.2002C127.882 45.1944 127.882 45.1866 127.881 45.1765C127.88 45.1562 127.879 45.129 127.877 45.0946C127.875 45.026 127.872 44.9313 127.87 44.8109C127.865 44.5703 127.861 44.2296 127.858 43.7934C127.852 42.921 127.849 41.6684 127.849 40.0744L127.516 40.0744ZM127.556 45.2609C127.683 46.0436 128.119 46.5921 128.828 46.8313L128.934 46.5165C128.354 46.3207 127.993 45.8816 127.884 45.2076L127.556 45.2609ZM128.828 46.8313C129.191 46.9539 129.692 46.9999 130.51 46.9999V46.6677C129.693 46.6677 129.241 46.6202 128.934 46.5165L128.828 46.8313ZM130.51 46.9999H131.201V46.6677H130.51V46.9999ZM131.207 44.9399L130.722 44.9235L130.711 45.2556L131.196 45.2718L131.207 44.9399ZM130.722 44.9235C130.445 44.914 130.302 44.8981 130.215 44.867C130.147 44.8431 130.11 44.8104 130.058 44.7213L129.771 44.8899C129.849 45.0222 129.94 45.1222 130.104 45.1801C130.248 45.2311 130.441 45.2464 130.711 45.2556L130.722 44.9235ZM130.058 44.7213C130.051 44.7097 130.05 44.7081 130.049 44.7036C130.046 44.6958 130.042 44.6772 130.037 44.6345C130.028 44.5474 130.02 44.3897 130.015 44.0799C130.004 43.4637 130.002 42.273 129.997 39.9111L129.664 39.9118C129.669 42.2719 129.672 43.4662 129.683 44.0856C129.688 44.3935 129.695 44.5662 129.707 44.6707C129.713 44.7237 129.72 44.766 129.732 44.8031C129.745 44.8434 129.76 44.8705 129.771 44.8899L130.058 44.7213ZM129.997 39.9111L129.987 35.1424L129.654 35.1431L129.664 39.9118L129.997 39.9111ZM127.516 35.1428L127.516 40.0744L127.849 40.0744L127.848 35.1428L127.516 35.1428ZM168.707 45.8451L168.938 46.0554L169.162 45.8097L168.931 45.5994L168.707 45.8451ZM168.939 46.0554C169.672 46.723 170.635 46.9813 172.034 46.9303L172.022 46.5984C170.668 46.6478 169.806 46.3961 169.162 45.8097L168.939 46.0554ZM172.034 46.9303C173.281 46.885 174.088 46.5775 174.78 45.8532L174.54 45.6238C173.923 46.269 173.208 46.5552 172.022 46.5984L172.034 46.9303ZM174.78 45.8532C175.202 45.4115 175.433 44.9806 175.626 44.2944L175.306 44.2044C175.125 44.8484 174.917 45.2283 174.54 45.6238L174.78 45.8532ZM175.626 44.2944C175.708 44.0032 175.711 43.8826 175.712 42.5235L175.38 42.5232C175.378 43.9064 175.373 43.9686 175.306 44.2044L175.626 44.2944ZM175.712 42.5235C175.713 41.1515 175.711 41.0451 175.627 40.7176L175.305 40.7999C175.376 41.0769 175.381 41.1324 175.38 42.5232L175.712 42.5235ZM175.627 40.7176C175.443 39.9982 175.153 39.4403 174.728 39.016L174.493 39.2511C174.866 39.6229 175.132 40.1224 175.305 40.7999L175.627 40.7176ZM174.728 39.016C174.204 38.4921 173.567 38.2013 172.689 38.0672L172.639 38.3956C173.464 38.5216 174.03 38.7878 174.493 39.2511L174.728 39.016ZM172.689 38.0672C172.48 38.0352 172.046 38.0303 171.631 38.0418C171.218 38.0533 170.79 38.082 170.595 38.1258L170.667 38.45C170.826 38.4144 171.222 38.3855 171.641 38.3739C172.058 38.3623 172.463 38.3688 172.639 38.3956L172.689 38.0672ZM170.595 38.1258C169.983 38.263 169.428 38.5209 169.024 38.8639L169.239 39.1171C169.594 38.8157 170.097 38.578 170.667 38.45L170.595 38.1258ZM169.024 38.8639L168.837 39.0229L169.052 39.2761L169.239 39.1171L169.024 38.8639ZM177.597 39.9511C177.597 42.1037 177.599 43.3571 177.606 44.1005C177.614 44.8348 177.627 45.0876 177.655 45.2207L177.98 45.1521C177.961 45.0594 177.947 44.8474 177.939 44.097C177.931 43.3557 177.929 42.1043 177.929 39.9511H177.597ZM177.655 45.2207C177.738 45.6119 177.903 45.9403 178.155 46.1979C178.406 46.4551 178.737 46.6331 179.136 46.7371L179.22 46.4155C178.867 46.3238 178.594 46.1718 178.392 45.9655C178.191 45.7596 178.052 45.4909 177.98 45.1521L177.655 45.2207ZM179.136 46.7371C179.338 46.7898 179.641 46.8087 180.344 46.8237L180.351 46.4916C179.634 46.4763 179.376 46.4562 179.22 46.4155L179.136 46.7371ZM180.344 46.8237L181.278 46.8436L181.286 46.5114L180.351 46.4916L180.344 46.8237ZM181.288 44.7738L180.803 44.7574L180.792 45.0894L181.276 45.1057L181.288 44.7738ZM180.803 44.7574C180.526 44.7479 180.383 44.732 180.296 44.7009C180.228 44.677 180.191 44.6443 180.139 44.5552L179.852 44.7238C179.93 44.8561 180.021 44.9561 180.185 45.014C180.329 45.065 180.522 45.0803 180.792 45.0894L180.803 44.7574ZM180.139 44.5552C180.132 44.5435 180.131 44.542 180.13 44.5375C180.127 44.5297 180.123 44.5111 180.118 44.4684C180.108 44.3814 180.101 44.2237 180.096 43.914C180.085 43.2979 180.083 42.1072 180.078 39.745L179.746 39.7457C179.751 42.106 179.753 43.3003 179.764 43.9196C179.769 44.2275 179.776 44.4001 179.788 44.5046C179.794 44.5576 179.801 44.6 179.813 44.637C179.825 44.6773 179.841 44.7044 179.852 44.7238L180.139 44.5552ZM180.078 39.745L180.068 34.9763L179.736 34.977L179.746 39.7457L180.078 39.745ZM177.597 34.9767V39.9511H177.929V34.9767H177.597ZM118.186 43.2686L119.927 43.2481L119.923 42.9159L118.182 42.9364L118.186 43.2686ZM119.927 43.2481C120.647 43.2397 121.264 43.2319 121.734 43.2196C122.198 43.2076 122.537 43.1911 122.689 43.1619L122.626 42.8357C122.507 42.8585 122.201 42.8752 121.726 42.8875C121.258 42.8997 120.644 42.9075 119.923 42.9159L119.927 43.2481ZM122.689 43.1619C123.947 42.9202 124.796 42.4494 125.347 41.6485L125.073 41.4603C124.588 42.1659 123.831 42.6042 122.626 42.8357L122.689 43.1619ZM125.347 41.6485C125.82 40.9602 126.029 39.8937 125.933 38.7897L125.602 38.8185C125.694 39.8749 125.488 40.8561 125.073 41.4603L125.347 41.6485ZM125.933 38.7897C125.851 37.8448 125.612 37.222 125.097 36.676L124.855 36.9039C125.304 37.3806 125.524 37.9247 125.602 38.8185L125.933 38.7897ZM125.097 36.676C124.624 36.1744 124.077 35.8669 123.315 35.6638L123.229 35.9848C123.942 36.1748 124.431 36.4543 124.855 36.9039L125.097 36.676ZM118.756 35.4367L115.917 35.4215L115.915 35.7537L118.754 35.7689L118.756 35.4367ZM122.125 37.5946C122.525 37.6978 122.75 37.8175 122.941 38.0071L123.175 37.7714C122.929 37.5269 122.643 37.3852 122.208 37.273L122.125 37.5946ZM122.941 38.0071C123.105 38.1697 123.204 38.3261 123.263 38.5318C123.324 38.7439 123.346 39.0172 123.334 39.4189L123.666 39.4283C123.678 39.0167 123.658 38.7021 123.583 38.4399C123.505 38.1713 123.372 37.9672 123.175 37.7714L122.941 38.0071ZM123.334 39.4189C123.325 39.7422 123.31 39.9311 123.274 40.0791C123.239 40.2207 123.184 40.3317 123.079 40.4945L123.358 40.6752C123.473 40.4965 123.55 40.3497 123.597 40.1575C123.642 39.9717 123.657 39.7508 123.666 39.4283L123.334 39.4189ZM123.079 40.4945C122.879 40.8024 122.498 41.0246 121.897 41.1292L121.954 41.4565C122.603 41.3436 123.088 41.0911 123.358 40.6752L123.079 40.4945ZM121.897 41.1292C121.793 41.1473 121.484 41.1611 121.051 41.1695C120.624 41.1778 120.094 41.1809 119.557 41.1809V41.5131C120.095 41.5131 120.628 41.51 121.057 41.5017C121.479 41.4935 121.818 41.4801 121.954 41.4565L121.897 41.1292ZM119.557 41.1809H118.165V41.5131H119.557V41.1809ZM118.164 37.4893L119.678 37.5049L119.682 37.1727L118.167 37.1571L118.164 37.4893ZM135.893 38.2244C134.744 38.3731 133.842 38.7787 133.218 39.4511L133.461 39.677C134.018 39.0769 134.84 38.6957 135.936 38.5538L135.893 38.2244ZM134.481 41.2059C134.518 41.2059 134.545 41.1938 134.553 41.1903C134.564 41.1851 134.573 41.1795 134.579 41.176C134.59 41.1689 134.6 41.1611 134.607 41.1554C134.622 41.1433 134.638 41.1281 134.655 41.1126C134.688 41.0811 134.73 41.039 134.773 40.9955C134.862 40.9056 134.953 40.8106 135.004 40.7624L134.774 40.5224C134.719 40.5748 134.619 40.6785 134.537 40.7621C134.494 40.8054 134.455 40.8439 134.427 40.8711C134.412 40.885 134.402 40.8938 134.396 40.8983C134.393 40.9009 134.395 40.8996 134.399 40.8968C134.401 40.8955 134.407 40.8916 134.416 40.8876C134.421 40.8852 134.447 40.8736 134.482 40.8737L134.481 41.2059ZM135.004 40.7624C135.191 40.583 135.6 40.3633 135.922 40.276L135.835 39.9553C135.47 40.0541 135.009 40.2971 134.774 40.5224L135.004 40.7624ZM135.922 40.276C136.07 40.2359 136.321 40.2093 136.588 40.203C136.855 40.1968 137.116 40.2113 137.282 40.2448L137.348 39.9192C137.147 39.8785 136.857 39.8644 136.581 39.8709C136.305 39.8773 136.022 39.9047 135.835 39.9553L135.922 40.276ZM137.282 40.2448C137.819 40.3533 138.088 40.5497 138.232 40.8649L138.534 40.727C138.331 40.2809 137.946 40.0401 137.348 39.9192L137.282 40.2448ZM138.232 40.8649C138.274 40.9566 138.295 41.0144 138.308 41.0844C138.323 41.1587 138.33 41.2522 138.336 41.4174L138.668 41.405C138.662 41.24 138.654 41.1235 138.634 41.0215C138.614 40.9152 138.582 40.8305 138.534 40.727L138.232 40.8649ZM138.336 41.4174L138.35 41.8041L138.682 41.7917L138.668 41.405L138.336 41.4174ZM138.515 41.6318L136.67 41.6461L136.673 41.9784L138.518 41.964L138.515 41.6318ZM136.67 41.6461C134.956 41.6595 134.789 41.6647 134.445 41.742L134.518 42.0661C134.818 41.9987 134.939 41.9919 136.673 41.9784L136.67 41.6461ZM134.445 41.742C133.555 41.9419 132.947 42.3457 132.615 43.003L132.911 43.1529C133.186 42.6097 133.693 42.2514 134.518 42.0661L134.445 41.742ZM132.615 43.003C132.423 43.3823 132.358 43.7323 132.358 44.3002H132.69C132.69 43.7642 132.75 43.4706 132.911 43.1529L132.615 43.003ZM132.358 44.3002C132.358 44.8767 132.423 45.2162 132.625 45.6228L132.923 45.475C132.75 45.1268 132.69 44.8413 132.69 44.3002H132.358ZM132.625 45.6228C133.044 46.466 133.848 46.9277 135.042 47.074L135.082 46.7443C133.957 46.6062 133.276 46.1851 132.923 45.475L132.625 45.6228ZM135.042 47.074C135.26 47.1007 135.6 47.1057 135.926 47.0954C136.253 47.0851 136.584 47.0587 136.785 47.0182L136.719 46.6926C136.547 46.7273 136.239 46.7531 135.916 46.7634C135.594 46.7737 135.275 46.7679 135.082 46.7443L135.042 47.074ZM136.785 47.0182C137.438 46.8866 138.062 46.6042 138.504 46.234L138.291 45.9793C137.899 46.3079 137.327 46.5698 136.719 46.6926L136.785 47.0182ZM138.504 46.234L138.76 46.0195L138.547 45.7649L138.291 45.9793L138.504 46.234ZM138.494 45.9393C138.595 46.2806 138.769 46.5532 138.961 46.7486C139.15 46.9406 139.367 47.0685 139.56 47.1006L139.614 46.773C139.513 46.7561 139.356 46.6763 139.198 46.5157C139.044 46.3582 138.898 46.1331 138.813 45.8451L138.494 45.9393ZM139.56 47.1006C139.828 47.1453 140.28 47.1443 140.651 47.134C140.839 47.1288 141.012 47.1208 141.138 47.1144C141.2 47.111 141.251 47.1082 141.287 47.1061C141.305 47.1049 141.318 47.1041 141.328 47.1034C141.333 47.1032 141.336 47.1029 141.339 47.1027C141.34 47.1027 141.341 47.1026 141.341 47.1026C141.342 47.1026 141.342 47.1026 141.342 47.1026H141.342C141.342 47.1026 141.343 47.1026 141.331 46.9368C141.32 46.771 141.32 46.771 141.32 46.771C141.32 46.771 141.32 46.771 141.32 46.771C141.32 46.771 141.32 46.771 141.32 46.7712C141.319 46.7712 141.318 46.7712 141.317 46.7713C141.315 46.7713 141.311 46.7717 141.307 46.772C141.298 46.7725 141.284 46.7733 141.267 46.7743C141.232 46.7765 141.182 46.7793 141.12 46.7826C140.997 46.789 140.827 46.7968 140.642 46.8019C140.265 46.8124 139.845 46.8114 139.614 46.773L139.56 47.1006ZM140.833 43.8477C140.833 42.5361 140.831 41.785 140.823 41.3337C140.815 40.8863 140.8 40.7198 140.769 40.5878L140.446 40.6636C140.467 40.7563 140.482 40.8886 140.491 41.3399C140.499 41.7874 140.501 42.535 140.501 43.8477L140.833 43.8477ZM140.769 40.5878C140.611 39.9131 140.311 39.3845 139.837 38.996C139.365 38.6097 138.737 38.3738 137.941 38.2559L137.892 38.5846C138.652 38.6971 139.217 38.9175 139.626 39.253C140.033 39.5864 140.3 40.0454 140.446 40.6637L140.769 40.5878ZM137.941 38.2559C137.753 38.2281 137.322 38.21 136.907 38.2035C136.493 38.1971 136.068 38.2017 135.893 38.2244L135.936 38.5538C136.082 38.5349 136.482 38.5292 136.902 38.5357C137.32 38.5422 137.73 38.5605 137.892 38.5846L137.941 38.2559ZM155.588 38.0893C154.826 38.2004 154.209 38.4145 153.746 38.7443C153.28 39.0767 152.977 39.5215 152.837 40.0754L153.159 40.1565C153.28 39.679 153.537 39.3014 153.939 39.0149C154.345 38.7259 154.905 38.5246 155.636 38.4181L155.588 38.0893ZM152.837 40.0754C152.789 40.2665 152.777 40.5765 152.787 40.8653C152.797 41.1526 152.832 41.4563 152.895 41.6311L153.207 41.5185C153.163 41.3962 153.129 41.1377 153.119 40.8534C153.109 40.5706 153.123 40.2998 153.159 40.1565L152.837 40.0754ZM152.895 41.631C153.098 42.1952 153.439 42.5802 153.981 42.8582L154.133 42.5626C153.664 42.3222 153.381 42.0018 153.207 41.5185L152.895 41.631ZM153.981 42.8582C154.587 43.1695 155.217 43.3143 156.405 43.4324L156.438 43.1018C155.262 42.9849 154.683 42.8451 154.133 42.5626L153.981 42.8582ZM156.405 43.4324C157.043 43.4958 157.448 43.553 157.712 43.6246C157.974 43.6951 158.073 43.7726 158.131 43.8586L158.406 43.6727C158.285 43.4929 158.098 43.3844 157.799 43.3038C157.504 43.2242 157.075 43.165 156.438 43.1018L156.405 43.4324ZM158.131 43.8586C158.19 43.9456 158.221 44.0705 158.214 44.2061C158.207 44.3411 158.164 44.4709 158.092 44.5649L158.356 44.7667C158.475 44.6109 158.536 44.4137 158.546 44.2227C158.555 44.0322 158.514 43.8319 158.406 43.6727L158.131 43.8586ZM158.092 44.5649C158.064 44.6008 157.981 44.6644 157.849 44.7308C157.723 44.7939 157.577 44.8479 157.448 44.8757L157.518 45.2004C157.679 45.1659 157.851 45.1012 157.998 45.0277C158.138 44.9574 158.28 44.866 158.356 44.7667L158.092 44.5649ZM157.448 44.8757C157.152 44.9393 156.456 44.9589 155.993 44.9119L155.959 45.2423C156.442 45.2914 157.176 45.274 157.518 45.2004L157.448 44.8757ZM155.993 44.9119C155.184 44.8296 154.567 44.6968 153.807 44.441L153.701 44.7559C154.485 45.0197 155.126 45.1577 155.959 45.2423L155.993 44.9119ZM153.807 44.441C153.684 44.3994 153.569 44.3629 153.484 44.3377C153.441 44.3252 153.404 44.3148 153.376 44.308C153.363 44.3048 153.348 44.3014 153.334 44.2993C153.328 44.2983 153.316 44.2967 153.302 44.2965C153.296 44.2964 153.283 44.2965 153.266 44.2997C153.256 44.3016 153.21 44.3105 153.172 44.3532L153.421 44.5734C153.384 44.6157 153.338 44.6242 153.33 44.6258C153.314 44.6288 153.303 44.6288 153.298 44.6287C153.293 44.6287 153.289 44.6283 153.287 44.628C153.285 44.6278 153.283 44.6277 153.283 44.6277C153.283 44.6275 153.287 44.6283 153.298 44.6308C153.318 44.6358 153.349 44.6443 153.389 44.6564C153.47 44.6801 153.581 44.7152 153.701 44.7559L153.807 44.441ZM153.172 44.3532C153.16 44.3673 153.152 44.3805 153.151 44.3828C153.149 44.3877 153.147 44.3918 153.146 44.3941C153.143 44.3989 153.141 44.4033 153.14 44.406C153.138 44.4118 153.135 44.4184 153.133 44.4248C153.128 44.4378 153.122 44.4555 153.115 44.4766C153.1 44.5192 153.08 44.5792 153.055 44.6519C153.007 44.7976 152.942 44.9963 152.872 45.2125L153.188 45.3145C153.258 45.0989 153.323 44.9012 153.371 44.7569C153.395 44.6846 153.414 44.626 153.429 44.5853C153.436 44.5648 153.441 44.5497 153.445 44.5398C153.446 44.5374 153.446 44.5355 153.447 44.5341C153.447 44.5334 153.447 44.5328 153.448 44.5324C153.448 44.5322 153.448 44.532 153.448 44.5319C153.448 44.5318 153.448 44.5318 153.448 44.5318C153.448 44.5318 153.448 44.5318 153.448 44.532C153.448 44.5321 153.448 44.5323 153.447 44.5327C153.447 44.5332 153.447 44.5344 153.446 44.5361C153.445 44.5375 153.444 44.5408 153.441 44.545C153.44 44.5468 153.433 44.5595 153.421 44.5734L153.172 44.3532ZM152.872 45.2125L152.619 45.9983L152.935 46.1002L153.188 45.3145L152.872 45.2125ZM152.72 46.2056L153.015 46.3119L153.128 45.9994L152.833 45.8931L152.72 46.2056ZM153.015 46.3119C154.105 46.7054 155.101 46.8929 156.298 46.9306L156.309 46.5986C155.145 46.5619 154.184 46.3806 153.128 45.9994L153.015 46.3119ZM156.298 46.9306C158.004 46.9843 159.18 46.6888 159.925 45.9539L159.692 45.7174C159.045 46.3549 157.986 46.6514 156.309 46.5986L156.298 46.9306ZM159.925 45.9539C160.178 45.7039 160.359 45.4429 160.475 45.1355C160.59 44.8295 160.637 44.4869 160.634 44.0788L160.302 44.0807C160.304 44.4634 160.26 44.7625 160.164 45.0185C160.068 45.2732 159.917 45.4948 159.692 45.7174L159.925 45.9539ZM160.634 44.0788C160.631 43.5962 160.564 43.1958 160.412 42.862C160.259 42.5249 160.024 42.2661 159.702 42.0609L159.523 42.341C159.796 42.515 159.986 42.7265 160.11 42.9996C160.236 43.2759 160.299 43.6253 160.302 44.0807L160.634 44.0788ZM159.702 42.0609C159.144 41.7047 158.554 41.5663 156.976 41.3816L156.937 41.7115C158.521 41.8969 159.038 42.031 159.523 42.341L159.702 42.0609ZM156.976 41.3816C156.388 41.3127 156.014 41.2546 155.761 41.1852C155.513 41.1173 155.393 41.0424 155.302 40.9463L155.061 41.1754C155.206 41.3282 155.387 41.4273 155.673 41.5056C155.954 41.5825 156.35 41.6428 156.937 41.7115L156.976 41.3816ZM155.302 40.9463C155.267 40.91 155.232 40.8333 155.221 40.7321C155.209 40.6322 155.224 40.5401 155.253 40.4832L154.958 40.3303C154.89 40.4627 154.874 40.626 154.891 40.7701C154.907 40.9127 154.959 41.0683 155.061 41.1754L155.302 40.9463ZM155.253 40.4832C155.336 40.3237 155.476 40.2069 155.748 40.1313C156.029 40.0535 156.435 40.0242 157.025 40.039L157.033 39.7069C156.437 39.6919 155.99 39.7196 155.659 39.8112C155.321 39.9051 155.093 40.07 154.958 40.3303L155.253 40.4832ZM157.025 40.039C157.842 40.0595 158.369 40.1379 159.05 40.3387L159.144 40.02C158.431 39.8099 157.875 39.728 157.033 39.7069L157.025 40.039ZM159.05 40.3387C159.172 40.3746 159.292 40.4076 159.39 40.4322C159.438 40.4445 159.481 40.4548 159.517 40.4624C159.547 40.4689 159.584 40.4763 159.612 40.4775L159.627 40.1456C159.631 40.1458 159.621 40.145 159.586 40.1375C159.556 40.1311 159.517 40.1218 159.471 40.1101C159.379 40.0867 159.262 40.0548 159.144 40.0201L159.05 40.3387ZM159.612 40.4775C159.654 40.4794 159.72 40.475 159.783 40.4207C159.829 40.3803 159.859 40.3233 159.883 40.2713C159.932 40.1616 160 39.9618 160.118 39.6112L159.803 39.5058C159.682 39.8656 159.621 40.0442 159.58 40.1344C159.558 40.1823 159.553 40.1805 159.565 40.1699C159.575 40.1614 159.589 40.1531 159.606 40.1486C159.621 40.1449 159.63 40.1458 159.627 40.1456L159.612 40.4775ZM160.118 39.6112C160.231 39.2718 160.296 39.0732 160.325 38.955C160.339 38.8987 160.349 38.8405 160.344 38.787C160.341 38.7567 160.333 38.7235 160.314 38.6914C160.295 38.6592 160.271 38.6378 160.252 38.6238L160.056 38.8923C160.05 38.8881 160.038 38.8778 160.027 38.8599C160.017 38.8422 160.014 38.8267 160.013 38.8197C160.013 38.8129 160.015 38.8238 160.002 38.8769C159.978 38.9777 159.919 39.1597 159.803 39.5058L160.118 39.6112ZM160.252 38.6239C160.222 38.6021 160.181 38.5849 160.152 38.5734C160.118 38.5594 160.074 38.5439 160.026 38.5277C159.929 38.4952 159.805 38.4574 159.671 38.4191C159.403 38.3427 159.088 38.2623 158.858 38.2163L158.792 38.542C159.01 38.5857 159.317 38.6636 159.58 38.7386C159.711 38.7761 159.83 38.8123 159.92 38.8426C159.966 38.8579 160.002 38.871 160.029 38.8817C160.062 38.8948 160.065 38.8984 160.056 38.8922L160.252 38.6239ZM158.858 38.2163C158.17 38.0785 157.626 38.0323 156.756 38.0361L156.758 38.3683C157.61 38.3646 158.131 38.4096 158.792 38.542L158.858 38.2163ZM156.756 38.0361C156.29 38.0382 155.789 38.06 155.588 38.0893L155.636 38.4181C155.811 38.3925 156.291 38.3704 156.758 38.3683L156.756 38.0361ZM185.52 38.0888C184.472 38.2522 183.506 38.7505 182.943 39.4376L183.2 39.6482C183.7 39.0379 184.585 38.5709 185.571 38.4171L185.52 38.0888ZM182.943 39.4376C182.65 39.7947 182.353 40.4235 182.233 40.9287L182.556 41.0052C182.666 40.5418 182.944 39.9607 183.2 39.6482L182.943 39.4376ZM182.233 40.9287C182.146 41.2974 182.132 41.4614 182.115 42.2159L182.447 42.2234C182.464 41.4726 182.478 41.338 182.556 41.0053L182.233 40.9287ZM182.115 42.2159C182.088 43.4352 182.165 44.0289 182.462 44.7124L182.766 44.5802C182.498 43.9614 182.421 43.4239 182.447 42.2234L182.115 42.2159ZM182.462 44.7124C182.966 45.8763 184.018 46.5914 185.544 46.8581L185.601 46.5308C184.153 46.2778 183.215 45.6147 182.766 44.5802L182.462 44.7124ZM185.544 46.8581C185.811 46.9049 186.339 46.926 186.851 46.9253C187.361 46.9247 187.885 46.9022 188.142 46.8546L188.082 46.5278C187.858 46.5694 187.363 46.5924 186.85 46.5931C186.338 46.5938 185.836 46.572 185.601 46.5308L185.544 46.8581ZM188.142 46.8546C188.968 46.7014 189.724 46.4665 190.34 46.1692L190.196 45.87C189.612 46.1517 188.885 46.379 188.082 46.5278L188.142 46.8546ZM190.34 46.1692L190.76 45.9667L190.615 45.6675L190.196 45.87L190.34 46.1692ZM190.839 45.7496L190.505 44.9986L190.202 45.1336L190.536 45.8846L190.839 45.7496ZM190.505 44.9986C190.413 44.7908 190.325 44.6014 190.258 44.4632C190.225 44.3944 190.196 44.3367 190.174 44.2955C190.163 44.2753 190.152 44.2562 190.142 44.2409C190.138 44.2339 190.131 44.2231 190.122 44.2124C190.118 44.2075 190.109 44.1975 190.096 44.1873C190.091 44.1832 190.051 44.1489 189.989 44.1489V44.4811C189.928 44.4811 189.89 44.4475 189.886 44.4447C189.875 44.4358 189.869 44.4278 189.867 44.4254C189.862 44.4199 189.86 44.4167 189.862 44.4198C189.865 44.4246 189.871 44.4351 189.881 44.4531C189.9 44.4881 189.927 44.5408 189.959 44.6081C190.024 44.7421 190.11 44.9282 190.202 45.1336L190.505 44.9986ZM189.989 44.1489C189.96 44.1489 189.935 44.1571 189.932 44.1579C189.922 44.1608 189.912 44.1643 189.902 44.1678C189.883 44.1748 189.859 44.1842 189.833 44.195C189.781 44.2166 189.714 44.246 189.646 44.278L189.786 44.5791C189.851 44.5487 189.913 44.5213 189.96 44.5018C189.984 44.492 190.002 44.4847 190.015 44.4802C190.018 44.4791 190.02 44.4783 190.022 44.4777C190.023 44.4774 190.024 44.4772 190.024 44.477C190.025 44.4769 190.025 44.4768 190.025 44.4768C190.025 44.4768 190.024 44.4769 190.024 44.4771C190.023 44.4773 190.021 44.4777 190.019 44.4781C190.018 44.4785 190.006 44.4811 189.989 44.4811V44.1489ZM189.646 44.278C189.331 44.4247 188.563 44.6738 188.15 44.762L188.219 45.087C188.652 44.9944 189.445 44.7383 189.786 44.5791L189.646 44.278ZM188.15 44.762C187.619 44.8753 187.047 44.9152 186.594 44.8728L186.563 45.2036C187.055 45.2496 187.661 45.2061 188.219 45.087L188.15 44.762ZM186.594 44.8728C186.145 44.8308 186.022 44.8031 185.709 44.6811L185.588 44.9906C185.937 45.1267 186.092 45.1596 186.563 45.2036L186.594 44.8728ZM185.709 44.6811C185.098 44.4427 184.703 43.9054 184.643 43.2147L184.312 43.2436C184.382 44.0534 184.853 44.7037 185.588 44.9906L185.709 44.6811ZM184.643 43.2147L184.632 43.088L184.3 43.1169L184.312 43.2436L184.643 43.2147ZM190.999 43.084V42.381H190.667V43.084H190.999ZM190.999 42.381C190.999 41.3856 190.915 40.85 190.649 40.2345L190.344 40.3666C190.586 40.9241 190.667 41.4091 190.667 42.381H190.999ZM190.649 40.2345C190.142 39.0646 189.034 38.3103 187.556 38.0865L187.507 38.4149C188.898 38.6257 189.892 39.3244 190.344 40.3665L190.649 40.2345ZM187.556 38.0865C187.33 38.0521 186.928 38.0365 186.536 38.0369C186.145 38.0374 185.744 38.0539 185.52 38.0888L185.571 38.4171C185.768 38.3864 186.147 38.3696 186.537 38.3692C186.927 38.3687 187.307 38.3847 187.507 38.4149L187.556 38.0865ZM142.722 44.2684L142.817 44.6152L143.138 44.5273L143.043 44.1806L142.722 44.2684ZM142.817 44.6152C142.989 45.2423 143.304 45.7478 143.768 46.1247C144.23 46.5002 144.829 46.7399 145.557 46.8541L145.609 46.5258C144.922 46.4184 144.383 46.1964 143.977 45.8669C143.574 45.5386 143.293 45.0954 143.138 44.5273L142.817 44.6152ZM145.557 46.8541C146.355 46.979 147.634 46.9595 148.362 46.81L148.295 46.4846C147.61 46.6255 146.371 46.6453 145.609 46.5258L145.557 46.8541ZM148.362 46.81C149.752 46.524 150.689 45.7079 150.993 44.4749L150.671 44.3952C150.402 45.4833 149.582 46.2198 148.295 46.4846L148.362 46.81ZM150.993 44.4748C151.025 44.3453 151.041 44.1813 151.051 43.7391C151.061 43.2929 151.066 42.5488 151.072 41.2482L150.74 41.2467C150.734 42.5485 150.729 43.289 150.719 43.7314C150.708 44.1779 150.693 44.3064 150.671 44.3952L150.993 44.4748ZM151.072 41.2482L151.085 38.3074L150.753 38.3059L150.74 41.2467L151.072 41.2482ZM148.613 38.3059L148.601 41.0658L148.933 41.0672L148.945 38.3073L148.613 38.3059ZM148.601 41.0658C148.596 42.346 148.591 43.0372 148.581 43.4318C148.57 43.8303 148.553 43.9071 148.531 43.973L148.847 44.078C148.886 43.9593 148.903 43.8358 148.913 43.4406C148.924 43.0414 148.928 42.3455 148.933 41.0672L148.601 41.0658ZM148.531 43.9729C148.418 44.3144 148.242 44.543 147.988 44.6906C147.729 44.8414 147.37 44.9184 146.871 44.9172L146.871 45.2494C147.398 45.2506 147.824 45.1705 148.155 44.9778C148.492 44.7818 148.712 44.4804 148.847 44.078L148.531 43.9729ZM146.871 44.9172C146.333 44.9159 145.945 44.8057 145.68 44.6061C145.42 44.4099 145.258 44.1104 145.205 43.6803L144.876 43.721C144.937 44.218 145.132 44.6086 145.48 44.8712C145.823 45.1305 146.293 45.2481 146.871 45.2494L146.871 44.9172ZM145.205 43.6803C145.195 43.5985 145.186 43.2849 145.179 42.7838C145.172 42.289 145.169 41.6239 145.169 40.8503H144.837C144.837 41.6247 144.84 42.2914 144.847 42.7882C144.853 43.2786 144.863 43.6162 144.876 43.721L145.205 43.6803ZM145.169 40.8503V38.3066H144.837V40.8503H145.169ZM187.283 40.0392C187.907 40.208 188.296 40.6051 188.439 41.2106L188.763 41.1342C188.591 40.4057 188.107 39.9179 187.369 39.7185L187.283 40.0392ZM188.439 41.2106C188.467 41.3283 188.489 41.4955 188.49 41.5737L188.822 41.5727C188.822 41.4618 188.795 41.2683 188.763 41.1342L188.439 41.2106ZM188.49 41.5738L188.49 41.7457L188.822 41.7446L188.822 41.5727L188.49 41.5738ZM184.614 41.7452V41.635H184.282V41.7452H184.614ZM184.614 41.635C184.614 41.5537 184.638 41.4031 184.679 41.2371C184.72 41.073 184.771 40.9147 184.817 40.8191L184.517 40.6762C184.458 40.8012 184.4 40.9842 184.357 41.1575C184.314 41.3289 184.282 41.5117 184.282 41.635H184.614ZM184.817 40.819C184.869 40.7097 184.966 40.5801 185.088 40.4589C185.209 40.3381 185.345 40.2352 185.467 40.1736L185.317 39.8771C185.157 39.9583 184.993 40.0848 184.853 40.2235C184.715 40.3618 184.591 40.5219 184.517 40.6762L184.817 40.819ZM185.467 40.1736C185.76 40.0256 186.147 39.9549 186.655 39.9723L186.667 39.6402C186.125 39.6218 185.677 39.6953 185.317 39.8771L185.467 40.1736ZM186.655 39.9723C186.902 39.9807 187.186 40.0131 187.283 40.0392L187.369 39.7185C187.233 39.6818 186.918 39.6488 186.667 39.6402L186.655 39.9723ZM171.912 40.1563C172.542 40.2983 172.953 40.68 173.145 41.3053L173.462 41.2078C173.236 40.4699 172.733 40.0007 171.985 39.8322L171.912 40.1563ZM173.145 41.3053C173.194 41.4644 173.204 41.5948 173.204 42.4872H173.536C173.536 41.6176 173.529 41.4262 173.462 41.2077L173.145 41.3053ZM173.204 42.4872C173.204 43.3891 173.194 43.5075 173.144 43.6681L173.461 43.7675C173.53 43.5465 173.536 43.3658 173.536 42.4872H173.204ZM173.144 43.6681C173.047 43.977 172.932 44.1786 172.757 44.3637L172.998 44.5923C173.214 44.3636 173.352 44.1149 173.461 43.7675L173.144 43.6681ZM172.757 44.3637C172.588 44.5419 172.409 44.6587 172.173 44.7333C171.932 44.8094 171.624 44.8436 171.194 44.8436V45.1758C171.637 45.1758 171.984 45.1413 172.273 45.0501C172.567 44.9574 172.793 44.8082 172.998 44.5923L172.757 44.3637ZM171.194 44.8436C170.727 44.8436 170.58 44.8293 170.376 44.7752L170.291 45.0963C170.539 45.1619 170.721 45.1758 171.194 45.1758V44.8436ZM170.376 44.7752C170.025 44.6823 169.768 44.5496 169.577 44.3707C169.388 44.1928 169.254 43.959 169.167 43.6457L168.847 43.7345C168.946 44.0936 169.107 44.385 169.35 44.6129C169.592 44.8399 169.904 44.9939 170.291 45.0963L170.376 44.7752ZM169.167 43.6457C169.149 43.5819 169.132 43.4306 169.12 43.2157C169.109 43.0075 169.103 42.7558 169.104 42.5029C169.104 42.2501 169.11 41.998 169.122 41.7889C169.134 41.5736 169.151 41.4205 169.169 41.3547L168.848 41.2669C168.82 41.3722 168.801 41.5601 168.79 41.7705C168.778 41.9871 168.772 42.2454 168.771 42.5027C168.771 42.7599 168.777 43.0179 168.789 43.2338C168.8 43.4431 168.818 43.6303 168.847 43.7345L169.167 43.6457ZM169.169 41.3547C169.26 41.0214 169.412 40.7607 169.621 40.5651C169.83 40.3694 170.103 40.2312 170.449 40.1562L170.378 39.8315C169.985 39.917 169.654 40.0791 169.394 40.3227C169.134 40.5664 168.953 40.8839 168.848 41.267L169.169 41.3547ZM170.449 40.1562C170.6 40.1233 170.887 40.1047 171.185 40.1048C171.484 40.1048 171.767 40.1237 171.912 40.1563L171.985 39.8322C171.801 39.7909 171.487 39.7726 171.185 39.7726C170.883 39.7725 170.567 39.7906 170.378 39.8315L170.449 40.1562ZM138.343 43.7016C138.343 44.1037 138.329 44.1956 138.279 44.3292L138.59 44.4458C138.663 44.2509 138.675 44.1053 138.675 43.7016H138.343ZM138.279 44.3292C138.185 44.58 137.983 44.7913 137.661 44.9464L137.805 45.2456C138.186 45.062 138.459 44.7936 138.59 44.4459L138.279 44.3292ZM137.661 44.9464C137.306 45.1175 137.041 45.1808 136.541 45.2067L136.558 45.5386C137.093 45.5109 137.403 45.4398 137.805 45.2456L137.661 44.9464ZM136.541 45.2067C135.784 45.2459 135.351 45.1192 135.089 44.8561L134.853 45.0904C135.218 45.4561 135.773 45.5793 136.558 45.5386L136.541 45.2067ZM135.089 44.8561C134.99 44.7566 134.94 44.6838 134.91 44.6024C134.879 44.5172 134.865 44.4075 134.866 44.2237L134.533 44.2234C134.533 44.4182 134.547 44.5748 134.598 44.7155C134.65 44.86 134.736 44.9728 134.854 45.0904L135.089 44.8561ZM134.866 44.2237C134.866 43.9014 134.91 43.7812 135.013 43.6651L134.763 43.4456C134.584 43.6494 134.534 43.8659 134.533 44.2234L134.866 44.2237ZM135.013 43.6651C135.075 43.5941 135.122 43.5508 135.18 43.5184C135.239 43.4856 135.32 43.4577 135.457 43.4366C135.739 43.3932 136.205 43.3851 137.085 43.3833L137.084 43.051C136.216 43.0528 135.719 43.0601 135.407 43.1082C135.247 43.1328 135.124 43.1696 135.018 43.2284C134.912 43.2876 134.836 43.363 134.763 43.4456L135.013 43.6651ZM137.085 43.3833L138.509 43.3804L138.508 43.0482L137.084 43.051L137.085 43.3833ZM138.343 43.2143V43.7016H138.675V43.2143H138.343ZM133.208 39.6657L134.35 41.1414L134.613 40.9381L133.471 39.4624L133.208 39.6657ZM140.816 44.7031C140.817 44.7056 140.812 44.6958 140.807 44.6644C140.803 44.636 140.8 44.5992 140.798 44.5552C140.794 44.4674 140.797 44.362 140.802 44.2584C140.807 44.1553 140.814 44.0569 140.821 43.9841C140.824 43.9477 140.827 43.9179 140.829 43.8973C140.83 43.887 140.831 43.8789 140.831 43.8736C140.832 43.8709 140.832 43.8688 140.832 43.8675C140.832 43.8668 140.832 43.8664 140.832 43.866C140.832 43.8659 140.832 43.8658 140.832 43.8657C140.832 43.8657 140.832 43.8657 140.832 43.8656C140.832 43.8656 140.832 43.8657 140.667 43.8477C140.502 43.8298 140.502 43.8298 140.502 43.8298C140.502 43.8298 140.502 43.8298 140.502 43.8299C140.502 43.8299 140.502 43.8299 140.502 43.83C140.502 43.8301 140.502 43.8303 140.502 43.8305C140.502 43.8309 140.502 43.8315 140.502 43.8323C140.501 43.8339 140.501 43.8362 140.501 43.8391C140.5 43.845 140.499 43.8535 140.498 43.8644C140.496 43.8862 140.493 43.9173 140.49 43.9551C140.483 44.0307 140.475 44.1335 140.47 44.2421C140.465 44.3501 140.462 44.4667 140.466 44.5688C140.468 44.6197 140.472 44.6698 140.479 44.715C140.485 44.7571 140.496 44.8076 140.518 44.8516L140.816 44.7031ZM141.498 46.9368V45.0265H141.165V46.9368H141.498ZM141.331 45.0265C141.355 44.862 141.355 44.862 141.355 44.862H141.355C141.355 44.862 141.354 44.862 141.354 44.8619C141.353 44.8617 141.352 44.8615 141.35 44.8612C141.346 44.8607 141.34 44.8599 141.333 44.8586C141.318 44.8562 141.296 44.8526 141.27 44.8476C141.216 44.8378 141.146 44.823 141.073 44.8037C141 44.7841 140.93 44.761 140.876 44.736C140.814 44.7064 140.809 44.6901 140.816 44.7031L140.518 44.8516C140.566 44.9476 140.666 45.0039 140.735 45.0366C140.814 45.0738 140.905 45.1027 140.987 45.1247C141.071 45.1469 141.15 45.1634 141.209 45.1742C141.238 45.1797 141.263 45.1838 141.28 45.1866C141.288 45.188 141.295 45.189 141.3 45.1898C141.302 45.1901 141.304 45.1904 141.305 45.1906C141.306 45.1906 141.307 45.1908 141.307 45.1908C141.307 45.1908 141.307 45.1909 141.308 45.1909H141.308C141.308 45.1909 141.308 45.1909 141.331 45.0265ZM118.754 35.7689L118.851 35.7694L118.853 35.4372L118.756 35.4367L118.754 35.7689ZM118.851 35.7694C121.843 35.7854 122.5 35.7904 123.23 35.9848L123.315 35.6638C122.533 35.4554 121.82 35.4531 118.853 35.4372L118.851 35.7694ZM122.208 37.273C122.047 37.2313 121.769 37.2114 121.38 37.1988C120.984 37.186 120.455 37.1806 119.78 37.1737L119.777 37.5059C120.453 37.5128 120.978 37.5182 121.369 37.5309C121.766 37.5437 122.006 37.5639 122.125 37.5946L122.208 37.273ZM119.78 37.1737C119.748 37.1733 119.715 37.173 119.682 37.1727L119.678 37.5049C119.711 37.5052 119.744 37.5055 119.777 37.5059L119.78 37.1737ZM131.367 46.8338V45.1059H131.035V46.8338H131.367ZM129.82 34.9767H127.682V35.3089H129.82V34.9767ZM162.048 34.9767V36.9312H162.38V34.9767H162.048ZM162.214 37.0973H164.427V36.7651H162.214V37.0973ZM164.594 36.9312V34.9767H164.261V36.9312H164.594ZM164.427 34.8105H162.214V35.1428H164.427V34.8105ZM166.619 34.9767V46.6689H166.952V34.9767H166.619ZM166.787 46.835L168.801 46.8157L168.798 46.4835L166.784 46.5027L166.787 46.835ZM168.965 46.6532L168.986 45.7258L168.653 45.7185L168.633 46.6459L168.965 46.6532ZM169.11 39.1488L169.092 34.9759L168.759 34.9774L168.778 39.1503L169.11 39.1488ZM168.925 34.8105H166.786V35.1428H168.925V34.8105ZM181.448 46.6775V44.9398H181.116V46.6775H181.448ZM179.902 34.8105H177.763V35.1428H179.902V34.8105ZM115.75 35.5876V46.6677H116.082V35.5876H115.75ZM115.916 46.8338H118.165V46.5016H115.916V46.8338ZM118.331 46.6685L118.35 43.1034L118.017 43.1016L117.999 46.6669L118.331 46.6685ZM118.332 41.347V37.3232H117.999V41.347H118.332ZM184.466 43.2686L190.834 43.2501L190.833 42.9179L184.466 42.9364L184.466 43.2686ZM142.693 38.3073L142.716 44.2252L143.049 44.2239L143.025 38.3059L142.693 38.3073ZM150.919 38.1405H148.779V38.4727H150.919V38.1405ZM145.003 38.1405H142.859V38.4727H145.003V38.1405ZM162.085 38.3066V46.6677H162.417V38.3066H162.085ZM162.251 46.8338H164.391V46.5016H162.251V46.8338ZM164.557 46.6677V38.3066H164.225V46.6677H164.557ZM164.391 38.1405H162.251V38.4727H164.391V38.1405ZM188.656 41.5791H184.448V41.9113H188.656V41.5791Z" fill="#191E38"/>
</g></svg>