<svg width="250" height="79" viewBox="0 0 250 79" fill="none" xmlns="http://www.w3.org/2000/svg"><defs>
<clipPath id="clip0_0_1509">
<rect width="50" height="48" fill="white" transform="translate(20 16)"/>
</clipPath>
<clipPath id="clip1_0_1509">
<rect width="100" height="15.2866" fill="white" transform="translate(95 32)"/>
</clipPath>
</defs><g clip-path="url(#clip0_0_1509)">
<path d="M44.612 63.947C44.4156 63.9422 44.224 63.886 44.0562 63.784C43.8884 63.6818 43.7504 63.5372 43.656 63.365C43.496 62.993 43.496 62.623 43.762 62.305L55.086 46.781L35.2561 54.835C35.0961 54.887 34.9901 54.941 34.8321 54.941C34.6057 54.9448 34.3843 54.8744 34.2018 54.7404C34.0194 54.6064 33.886 54.4162 33.8221 54.199C33.6621 53.775 33.8741 53.299 34.2461 53.033L51.684 42.809L21.0101 41.059C20.7368 41.0486 20.4784 40.932 20.2898 40.734C20.1012 40.536 19.9973 40.2724 20.0001 39.999C20.0001 39.523 20.3181 38.993 21.0101 38.939L51.684 37.193L34.2461 26.9669C33.8741 26.7029 33.6621 26.2269 33.8221 25.8009C33.8932 25.5883 34.0285 25.4029 34.2094 25.2704C34.3903 25.1378 34.6078 25.0647 34.8321 25.0609C34.9901 25.0609 35.0961 25.1129 35.2561 25.1649L55.086 33.2189L43.762 17.6429C43.55 17.3229 43.496 16.9009 43.656 16.5829C43.7398 16.4021 43.8754 16.2503 44.0456 16.1467C44.2158 16.0431 44.413 15.9924 44.612 16.0009C44.878 16.0009 45.144 16.1069 45.356 16.3189L67.898 38.729C68.2078 39.0594 68.3788 39.496 68.376 39.949C68.376 40.371 68.216 40.795 67.898 41.165L45.356 63.629C45.2594 63.7288 45.1438 63.8086 45.0162 63.8636C44.8884 63.9184 44.751 63.9456 44.612 63.947Z" fill="#242424"/>
</g><g clip-path="url(#clip1_0_1509)">
<path d="M101.052 43.9107V42.4458H96.7205V35.3757H95.0645V43.9744H101.052V43.9107ZM105.192 43.6559C105.574 43.4012 105.829 43.019 106.02 42.5731V43.9107H107.612V39.7706C107.612 39.3247 107.485 38.9426 107.294 38.5604C107.103 38.2419 106.721 37.9235 106.338 37.7961C105.956 37.605 105.447 37.4776 104.873 37.4776C104.555 37.4776 104.236 37.5413 103.982 37.5413C103.663 37.605 103.408 37.6687 103.154 37.7961C102.899 37.9235 102.644 37.9871 102.453 38.1782L102.517 39.6432C102.899 39.3884 103.281 39.1973 103.663 39.07C104.045 38.9426 104.428 38.8789 104.873 38.8789C105.256 38.8789 105.51 38.9426 105.701 39.1337C105.892 39.3247 106.02 39.5158 106.02 39.7706V40.2165H104.619C103.791 40.2165 103.09 40.4075 102.644 40.726C102.135 41.1082 101.943 41.554 101.943 42.191C101.943 42.5731 102.007 42.8279 102.198 43.1464C102.389 43.4649 102.58 43.6559 102.899 43.7833C103.217 43.9744 103.536 44.0381 103.918 44.0381C104.428 44.0381 104.81 43.9107 105.192 43.6559ZM103.791 42.5731C103.599 42.4458 103.536 42.2547 103.536 41.9999C103.536 41.6814 103.663 41.4903 103.918 41.363C104.173 41.2356 104.555 41.1082 105.001 41.1082H106.02V41.363C106.02 41.554 105.956 41.7451 105.829 41.9999C105.701 42.191 105.51 42.3821 105.319 42.5731C105.064 42.7005 104.81 42.8279 104.491 42.8279C104.173 42.8279 103.918 42.7005 103.791 42.5731ZM112.58 43.6559C112.963 43.3375 113.217 42.8916 113.408 42.3821V43.9744H115.001V37.7324H113.408V40.6623C113.408 41.1082 113.345 41.4266 113.217 41.7451C113.09 42.0636 112.899 42.3184 112.644 42.5095C112.389 42.7005 112.071 42.7642 111.752 42.7642C111.37 42.7642 111.115 42.6368 110.924 42.4458C110.733 42.2547 110.606 41.9362 110.606 41.554V37.7324H109.013V41.6177C109.013 42.4458 109.205 43.019 109.587 43.4649C109.969 43.9107 110.478 44.1018 111.115 44.1018C111.752 44.1018 112.198 43.9744 112.58 43.6559ZM118.313 43.9107V40.9808C118.313 40.5349 118.377 40.2165 118.504 39.898C118.631 39.5795 118.822 39.3247 119.077 39.1337C119.332 38.9426 119.587 38.8789 119.905 38.8789C120.287 38.8789 120.542 39.0063 120.733 39.1973C120.924 39.3884 121.052 39.7069 121.052 40.0891V43.9744H122.644V40.0891C122.644 39.261 122.453 38.6878 122.071 38.2419C121.689 37.7961 121.179 37.605 120.542 37.605C119.969 37.605 119.523 37.7961 119.141 38.0508C118.759 38.3693 118.504 38.8152 118.313 39.3247V37.7324H116.721V43.9107H118.313ZM128.058 44.0381C128.249 43.9744 128.44 43.9744 128.631 43.9107C128.822 43.847 128.95 43.7833 129.141 43.7196V42.191C128.886 42.3184 128.631 42.3821 128.313 42.5095C127.994 42.5731 127.74 42.6368 127.421 42.6368C126.975 42.6368 126.657 42.5731 126.338 42.3821C126.02 42.2547 125.829 41.9999 125.701 41.7451C125.574 41.4903 125.51 41.1719 125.51 40.7897C125.51 40.4075 125.574 40.1528 125.701 39.8343C125.829 39.5795 126.084 39.3247 126.338 39.1973C126.657 39.0063 126.975 38.9426 127.357 38.9426C127.676 38.9426 127.994 39.0063 128.249 39.07C128.568 39.1337 128.822 39.261 129.013 39.3884V37.8598C128.822 37.7961 128.631 37.7324 128.504 37.6687C128.313 37.605 128.122 37.605 127.931 37.5413C127.74 37.4776 127.485 37.4776 127.294 37.4776C126.593 37.4776 125.956 37.605 125.447 37.9235C124.937 38.2419 124.491 38.6241 124.236 39.1337C123.918 39.6432 123.791 40.2165 123.791 40.8534C123.791 41.4903 123.918 42.0636 124.236 42.5095C124.555 42.9553 124.937 43.4012 125.447 43.6559C125.956 43.9107 126.593 44.1018 127.294 44.1018C127.612 44.1018 127.867 44.1018 128.058 44.0381ZM132.135 43.9107V40.9808C132.135 40.5349 132.198 40.2165 132.326 39.898C132.453 39.5795 132.644 39.3247 132.899 39.1337C133.154 38.9426 133.408 38.8789 133.727 38.8789C134.109 38.8789 134.364 39.0063 134.555 39.1973C134.746 39.3884 134.873 39.7069 134.873 40.0891V43.9744H136.466V40.0891C136.466 39.261 136.275 38.6878 135.892 38.2419C135.51 37.7961 135.001 37.605 134.364 37.605C133.791 37.605 133.345 37.7961 132.963 38.0508C132.58 38.3693 132.326 38.8152 132.135 39.3247V35.3757H130.542V43.9744H132.135V43.9107ZM141.625 43.9107C142.517 43.9107 143.345 43.7196 143.982 43.4012C144.619 43.019 145.128 42.5731 145.447 41.9362C145.765 41.2993 145.956 40.5349 145.956 39.7069C145.956 38.8789 145.765 38.1145 145.447 37.4776C145.128 36.8406 144.619 36.3311 143.982 35.9489C143.345 35.5668 142.58 35.4394 141.625 35.4394H138.313V44.0381L141.625 43.9107ZM139.969 42.5095V36.8406H141.625C142.453 36.8406 143.09 37.0954 143.536 37.605C143.982 38.1145 144.236 38.8152 144.236 39.7069C144.236 40.5986 143.982 41.2993 143.536 41.8088C143.09 42.3184 142.389 42.5731 141.625 42.5731H139.969V42.5095ZM150.096 43.6559C150.478 43.4012 150.733 43.019 150.924 42.5731V43.9107H152.517V39.7706C152.517 39.3247 152.389 38.9426 152.198 38.5604C152.007 38.2419 151.625 37.9235 151.243 37.7961C150.861 37.6687 150.351 37.4776 149.778 37.4776C149.459 37.4776 149.141 37.5413 148.886 37.5413C148.568 37.605 148.313 37.6687 148.058 37.7961C147.803 37.9235 147.549 37.9871 147.357 38.1782L147.421 39.6432C147.803 39.3884 148.185 39.1973 148.568 39.07C148.95 38.9426 149.332 38.8789 149.778 38.8789C150.16 38.8789 150.415 38.9426 150.606 39.1337C150.797 39.3247 150.924 39.5158 150.924 39.7706V40.2165H149.523C148.695 40.2165 147.994 40.4075 147.549 40.726C147.039 41.1082 146.848 41.554 146.848 42.191C146.848 42.5731 146.912 42.8279 147.103 43.1464C147.294 43.4649 147.485 43.6559 147.803 43.7833C148.122 43.9744 148.44 44.0381 148.822 44.0381C149.332 44.0381 149.778 43.9107 150.096 43.6559ZM148.695 42.5731C148.504 42.4458 148.44 42.2547 148.44 41.9999C148.44 41.6814 148.568 41.4903 148.822 41.363C149.077 41.2356 149.459 41.1082 149.905 41.1082H150.924V41.363C150.924 41.554 150.861 41.7451 150.733 41.9999C150.606 42.191 150.415 42.3821 150.224 42.5731C149.969 42.7005 149.714 42.7642 149.459 42.7642C149.141 42.8279 148.886 42.7005 148.695 42.5731ZM155.701 43.9107V41.2356C155.701 40.5349 155.829 40.0254 156.147 39.6432C156.466 39.261 156.848 39.1337 157.357 39.1337C157.612 39.1337 157.803 39.1973 157.994 39.261V37.7324C157.867 37.6687 157.803 37.6687 157.676 37.6687C157.549 37.6687 157.485 37.6687 157.357 37.6687C156.975 37.6687 156.657 37.7961 156.338 38.0508C156.084 38.3056 155.829 38.6878 155.701 39.1973V37.7324H154.109V43.9107H155.701ZM160.606 43.9107V41.8725L161.179 41.363L163.026 43.9107H164.937L162.262 40.2802L164.873 37.6687H162.899L160.606 39.8343V35.2483H159.013V43.847H160.606V43.9107ZM167.485 43.9107V35.3757H165.892V43.9744H167.485V43.9107ZM169.969 46.2674C170.542 46.2674 171.052 46.14 171.434 45.8852C171.816 45.6305 172.134 45.2483 172.389 44.6114L175.255 37.6687H173.599L171.943 41.9999L170.16 37.7324H168.504L171.052 43.9107L170.924 44.2292C170.861 44.4203 170.733 44.6114 170.606 44.6751C170.478 44.8024 170.224 44.8024 169.969 44.8024H168.631V46.2037H169.969V46.2674Z" fill="#1D1D1B"/>
<path d="M186.911 47.2866C186.784 47.2866 186.657 47.2229 186.593 47.0955C186.529 46.9682 186.529 46.8408 186.657 46.7771L190.287 41.8089L183.981 44.3567C183.918 44.3567 183.918 44.4204 183.854 44.4204C183.727 44.4204 183.536 44.293 183.536 44.1656C183.472 44.0382 183.536 43.8471 183.663 43.7834L189.204 40.535L179.459 39.9618C179.268 39.9618 179.141 39.7707 179.141 39.6433C179.141 39.5159 179.268 39.3248 179.459 39.3248L189.204 38.7516L183.663 35.5032C183.536 35.4395 183.472 35.2484 183.536 35.121C183.599 34.9936 183.727 34.8662 183.854 34.8662C183.918 34.8662 183.918 34.8662 183.981 34.9299L190.287 37.4777L186.657 32.5096C186.593 32.3822 186.593 32.2548 186.593 32.1911C186.657 32.0637 186.784 32 186.911 32C186.975 32 187.102 32.0637 187.166 32.1274L194.364 39.2611C194.491 39.3885 194.491 39.5159 194.491 39.6433C194.491 39.7707 194.427 39.8981 194.364 40.0255L187.166 47.1592C187.039 47.2229 186.975 47.2866 186.911 47.2866Z" fill="#1D1D1B"/>
</g></svg>