<svg width="213" height="56" viewBox="0 0 213 56" fill="none" xmlns="http://www.w3.org/2000/svg">
<path fill-rule="evenodd" clip-rule="evenodd" d="M124.503 4.63049L164.946 47.4697C164.946 47.4697 166.324 48.4415 167.378 47.3076C168.432 46.174 167.621 45.0405 167.621 45.0405L124.503 4.63049ZM137.308 8.67949L168.107 41.8819C168.107 41.8819 169.485 42.8537 170.539 41.7198C171.592 40.5863 170.782 39.4527 170.782 39.4527L137.308 8.67949ZM128.312 17.3444L159.111 50.5472C159.111 50.5472 160.488 51.519 161.542 50.3851C162.596 49.2512 161.785 48.1177 161.785 48.1177L128.312 17.3444ZM148.134 12.1619L169.651 35.3585C169.651 35.3585 170.614 36.037 171.35 35.2454C172.086 34.453 171.52 33.661 171.52 33.661L148.134 12.1619ZM131.276 27.386L152.793 50.583C152.793 50.583 153.756 51.2616 154.492 50.4699C155.228 49.6776 154.662 48.8856 154.662 48.8856L131.276 27.3864V27.386ZM159.192 17.1827L168.944 27.728C168.944 27.728 169.42 28.0461 169.784 27.6752C170.149 27.3039 169.869 26.9326 169.869 26.9326L159.192 17.1827H159.192ZM136.66 38.0761L146.412 48.6213C146.412 48.6213 146.889 48.9395 147.253 48.5685C147.617 48.1972 147.337 47.8259 147.337 47.8259L136.66 38.0761Z" fill="#DF4F4F"/>
<path fill-rule="evenodd" clip-rule="evenodd" d="M178.188 21.9766V50.4122H184.622V41.2399H189.447L195.65 50.4122H203.003L196.11 40.5519C196.11 40.5519 202.231 38.1326 202.231 31.5703C202.231 22.306 193.812 21.9773 193.812 21.9773L178.188 21.9766ZM184.622 27.481V35.7366H192.893C192.893 35.7366 196.055 35.7358 196.055 31.608C196.055 27.3238 192.204 27.481 192.204 27.481H184.622ZM106.959 21.9773V50.4122H128.558V44.9085H113.393V38.9472H126.49V33.4435H113.393V27.4765H128.558V21.9773H106.96H106.959ZM75.7108 21.9773V27.481H84.2122V50.4122H90.6458V27.481H99.1472V21.9773H75.7108ZM46.3003 21.9773V50.4122H67.8986V44.9085H52.7336V38.9472H65.8305V33.4435H52.7336V27.4765H67.8986V21.9773H46.3003ZM9.99658 21.9766V50.413L16.4257 50.4126V32.5252L24.238 43.991L32.0544 32.5252V50.413H38.4881V21.9766H32.0544L24.2384 33.6716L16.4257 21.9766H9.99658Z" fill="#26262C"/>
</svg>
