<svg  viewBox="20 16 50 50" fill="none" xmlns="http://www.w3.org/2000/svg"><defs>
<clipPath id="clip0_0_667">
<rect width="50" height="50.4854" fill="white" transform="translate(20 16)"/>
</clipPath>
</defs><g clip-path="url(#clip0_0_667)">
<path d="M45.1796 16C31.5097 16 20 27.0825 20 40.7573V66.3932L45.1748 66.3689C58.8447 66.3689 69.932 54.8592 69.932 41.1893C69.932 27.5194 58.8349 16 45.1796 16Z" fill="black"/>
<path d="M45.4232 25.5825C40.0164 25.5857 35.0101 28.4333 32.2438 33.0789C29.4776 37.7245 29.3595 43.4828 31.9329 48.2379L29.1562 57.1699L39.1271 54.9175C44.8368 57.4899 51.5369 56.3346 56.0552 51.9983C60.5736 47.6621 62.0035 41.0152 59.6679 35.2046C57.3325 29.3939 51.7003 25.5856 45.4378 25.5825H45.4232Z" fill="#FFF9AE"/>
<path d="M57.422 50.4243C53.0634 55.9226 45.5298 57.7629 39.1271 54.8933L29.1562 57.1748L39.3067 55.9758C46.0358 59.9176 54.6515 58.1833 59.3312 51.9448C64.011 45.7064 63.2653 36.9496 57.598 31.5923C61.853 37.1712 61.7806 44.9259 57.422 50.4243Z" fill="#00AEEF"/>
<path d="M56.5636 47.5092C52.803 53.4324 45.503 56.0493 38.8359 53.8641L29.1562 57.1748L39.1271 54.9175C46.2283 58.1253 54.6062 55.4995 58.6063 48.8125C62.6063 42.1255 60.9576 33.502 54.7728 28.7622C59.5867 33.8663 60.3242 41.586 56.5636 47.5092Z" fill="#00A94F"/>
<path d="M32.8504 48.5774C30.0714 41.8788 32.3616 34.1492 38.3412 30.0456C44.3207 25.942 52.3567 26.585 57.6077 31.5871C52.7445 25.205 43.7855 23.6472 37.0534 28.0131C30.3214 32.379 28.0895 41.1942 31.9329 48.2376L29.1562 57.1697L32.8504 48.5774Z" fill="#F15D22"/>
<path d="M31.9329 48.2378C28.4847 41.8686 29.9595 33.9556 35.4706 29.2562C40.9818 24.5569 49.0284 24.3509 54.7727 28.7621C49.2624 22.9599 40.2184 22.3661 33.9968 27.398C27.7751 32.43 26.4646 41.3981 30.9863 47.9999L29.1611 57.1747L31.9329 48.2378Z" fill="#D0232B"/>
</g><path d="M128.494 32.7714C128.922 32.7656 129.333 32.9389 129.629 33.2494C129.938 33.5554 130.109 33.975 130.101 34.4104C130.109 34.8409 129.94 35.2558 129.634 35.5584C129.343 35.8658 128.937 36.0381 128.514 36.0338C128.083 36.0398 127.668 35.8645 127.371 35.5506C127.061 35.2397 126.89 34.8159 126.899 34.3766C126.899 33.4936 127.613 32.7769 128.496 32.774L128.494 32.7714ZM127.236 38.239H129.751V48.7221H127.236V38.239ZM138.171 39.8987L136.613 41.4571C135.979 40.8234 135.403 40.5065 134.883 40.5065C134.649 40.4929 134.416 40.5558 134.221 40.6857C134.072 40.7857 133.982 40.9531 133.982 41.1325C133.983 41.2718 134.037 41.4055 134.132 41.5065C134.356 41.7026 134.61 41.8621 134.883 41.9792L135.805 42.439C136.775 42.9186 137.442 43.4069 137.805 43.9039C138.672 45.1535 138.486 46.8512 137.369 47.8831C136.714 48.4788 135.837 48.7766 134.738 48.7766C133.363 48.8146 132.058 48.1746 131.247 47.0649L132.805 45.3792C133.096 45.7197 133.449 46.0025 133.844 46.213C134.16 46.4011 134.516 46.5107 134.883 46.5325C135.17 46.5469 135.453 46.4625 135.686 46.2935C135.87 46.1685 135.983 45.9628 135.99 45.7403C135.99 45.3524 135.624 44.9749 134.894 44.6078L134.047 44.1844C132.426 43.3671 131.616 42.3446 131.616 41.1169C131.61 40.3383 131.944 39.5961 132.532 39.0857C133.174 38.5129 134.011 38.2104 134.87 38.2416C136.171 38.2344 137.398 38.8504 138.169 39.8987H138.171ZM149.886 40.5247L147.792 41.6753C147.466 41.3127 147.069 41.0209 146.626 40.8182C146.196 40.6505 145.737 40.5692 145.275 40.5792C144.432 40.5424 143.61 40.8456 142.992 41.4208C142.409 41.9831 142.091 42.7668 142.119 43.5766C142.094 44.3565 142.399 45.1109 142.958 45.6545C143.553 46.2148 144.348 46.5124 145.164 46.4805C146.289 46.4805 147.165 46.097 147.792 45.3299L149.777 46.6883C148.701 48.0857 147.184 48.7844 145.226 48.7844C143.463 48.7844 142.083 48.2649 141.086 47.226C139.921 46.0554 139.381 44.4019 139.629 42.7695C139.878 41.1371 140.885 39.7192 142.345 38.9481C143.246 38.4693 144.253 38.2254 145.273 38.239C146.201 38.224 147.119 38.4278 147.953 38.8338C148.731 39.2229 149.397 39.8051 149.886 40.5247ZM156.081 38.239C157.017 38.2363 157.937 38.4809 158.748 38.9481C160.391 39.8718 161.405 41.6135 161.397 43.4987C161.402 44.4294 161.159 45.3445 160.694 46.1507C160.243 46.9567 159.581 47.6247 158.779 48.0831C157.963 48.5483 157.038 48.7885 156.099 48.7792C154.712 48.8001 153.379 48.2441 152.418 47.2442C151.419 46.2641 150.868 44.9161 150.894 43.5169C150.881 40.6289 153.201 38.2718 156.088 38.239H156.081ZM156.122 40.6078C155.386 40.5908 154.677 40.8872 154.171 41.4234C153.646 41.9851 153.366 42.7327 153.392 43.5013C153.36 44.2832 153.641 45.0459 154.171 45.6208C154.676 46.1575 155.386 46.4525 156.122 46.4312C156.865 46.4514 157.581 46.1526 158.088 45.6104C158.618 45.0391 158.899 44.28 158.868 43.5013C158.898 42.7266 158.617 41.972 158.088 41.4052C157.576 40.8716 156.861 40.5816 156.122 40.6078ZM162.935 38.4987H165.478V43.3247C165.445 43.9834 165.51 44.6433 165.67 45.2831C165.783 45.6258 166.001 45.924 166.294 46.1351C166.605 46.3453 166.975 46.4517 167.351 46.439C167.729 46.4514 168.102 46.3471 168.418 46.1403C168.724 45.9238 168.952 45.6153 169.07 45.2597C169.174 44.9706 169.226 44.3532 169.226 43.4078V38.4987H171.74V42.7455C171.74 44.4961 171.602 45.6935 171.325 46.3377C171.025 47.0823 170.503 47.7169 169.831 48.1558C169.074 48.603 168.203 48.8221 167.325 48.787C166.225 48.787 165.336 48.5411 164.657 48.0494C163.967 47.5406 163.464 46.8185 163.226 45.9948C163.032 45.3818 162.935 44.2736 162.935 42.6701V38.4987ZM173.405 38.4987H175.561V39.761C175.76 39.3049 176.082 38.9129 176.491 38.6286C176.866 38.3745 177.308 38.2397 177.761 38.2416C178.117 38.249 178.468 38.3378 178.784 38.5013L178.005 40.6675C177.782 40.5409 177.534 40.4655 177.278 40.4468C176.89 40.4468 176.563 40.6866 176.296 41.1662C176.029 41.6459 175.896 42.5853 175.896 43.9844V48.5221H173.4L173.405 38.4987ZM185.904 39.8987L184.345 41.4571C183.714 40.8234 183.139 40.5065 182.623 40.5065C182.389 40.4929 182.157 40.5558 181.961 40.6857C181.812 40.7857 181.723 40.9531 181.722 41.1325C181.723 41.2718 181.777 41.4055 181.873 41.5065C182.097 41.6996 182.35 41.8565 182.623 41.9714L183.545 42.4312C184.515 42.9108 185.182 43.3991 185.545 43.8961C186.412 45.146 186.226 46.8429 185.109 47.8753C184.455 48.471 183.577 48.7688 182.478 48.7688C181.099 48.8096 179.79 48.1683 178.977 47.0545L180.535 45.3688C180.826 45.7094 181.178 45.9922 181.574 46.2026C181.895 46.3921 182.257 46.5009 182.629 46.5195C182.916 46.5339 183.199 46.4496 183.431 46.2805C183.604 46.1538 183.708 45.9544 183.714 45.7403C183.714 45.3524 183.349 44.9749 182.618 44.6078L181.771 44.1844C180.151 43.3671 179.34 42.3446 179.34 41.1169C179.334 40.3383 179.669 39.5961 180.257 39.0857C180.898 38.5132 181.736 38.2107 182.595 38.2416C183.896 38.2344 185.122 38.8504 185.894 39.8987H185.904ZM197.849 44.2364H189.771C189.861 44.8992 190.194 45.5049 190.706 45.9351C191.257 46.3707 191.945 46.5947 192.647 46.5662C193.555 46.58 194.429 46.2247 195.07 45.5818L197.19 46.5766C196.709 47.2839 196.056 47.8562 195.291 48.239C194.468 48.616 193.57 48.7999 192.665 48.7766C191.093 48.7766 189.812 48.2805 188.823 47.2883C187.842 46.3026 187.309 44.9566 187.351 43.5662C187.306 42.1483 187.84 40.7732 188.829 39.7558C189.797 38.7526 191.144 38.2031 192.538 38.2416C194.115 38.2416 195.399 38.7463 196.39 39.7558C197.38 40.7654 197.875 42.0996 197.873 43.7584L197.849 44.2364ZM195.335 42.2545C195.175 41.7036 194.833 41.2235 194.364 40.8935C193.866 40.5437 193.27 40.3617 192.662 40.374C191.999 40.3616 191.349 40.5689 190.816 40.9636C190.406 41.3144 190.09 41.7604 189.894 42.2623L195.335 42.2545ZM111.473 27C104.158 27 98 32.9299 98 40.2468V53.9636L111.47 53.9507C118.784 53.9507 124.717 47.7922 124.717 40.4779C124.717 33.1636 118.779 27 111.473 27Z" fill="black"/><path d="M111.602 32.1272C108.709 32.1289 106.031 33.6525 104.55 36.1382C103.07 38.6239 103.007 41.705 104.384 44.2493L102.898 49.0285L108.234 47.8233C111.289 49.1997 114.874 48.5815 117.291 46.2614C119.709 43.9412 120.474 40.3847 119.224 37.2756C117.975 34.1665 114.961 32.1288 111.61 32.1272H111.602Z" fill="#FFF9AE"/><path d="M118.022 45.4191C115.69 48.3611 111.659 49.3458 108.234 47.8103L102.898 49.0311L108.33 48.3895C111.93 50.4987 116.54 49.5707 119.044 46.2327C121.548 42.8947 121.149 38.2093 118.117 35.3428C120.393 38.3278 120.355 42.4771 118.022 45.4191Z" fill="#00AEEF"/><path d="M117.563 43.8595C115.551 47.0288 111.645 48.429 108.078 47.2598L102.898 49.0312L108.234 47.8234C112.033 49.5398 116.516 48.1348 118.656 44.5568C120.796 40.9788 119.914 36.3647 116.605 33.8286C119.181 36.5597 119.575 40.6902 117.563 43.8595Z" fill="#00A94F"/><path d="M104.875 44.431C103.388 40.8468 104.614 36.711 107.813 34.5153C111.012 32.3196 115.312 32.6636 118.122 35.3401C115.52 31.9253 110.726 31.0918 107.124 33.4278C103.522 35.7638 102.328 40.4806 104.384 44.2492L102.898 49.0285L104.875 44.431Z" fill="#F15D22"/><path d="M104.385 44.2492C102.54 40.8413 103.329 36.6074 106.278 34.0929C109.227 31.5784 113.532 31.4682 116.606 33.8285C113.657 30.7239 108.818 30.4062 105.489 33.0986C102.16 35.791 101.459 40.5896 103.878 44.122L102.902 49.0311L104.385 44.2492Z" fill="#D0232B"/></svg>