<svg width="172" height="69" viewBox="0 0 172 69" fill="none" xmlns="http://www.w3.org/2000/svg">
<path fill-rule="evenodd" clip-rule="evenodd" d="M35.6913 29.2533L34.7772 39.547H32.034L35.6913 29.2533ZM22.4846 47.191H29.3928L30.6122 43.7256H34.2696L34.0664 47.191H40.9746L41.0757 25.1762H31.8317L22.4846 47.191Z" fill="black"/>
<path fill-rule="evenodd" clip-rule="evenodd" d="M46.3589 25.1762H55.0954L56.0095 38.5275H56.1115L58.9559 25.1762H64.6447L59.9721 47.191H51.3369L50.2195 34.2474L47.4763 47.191H41.6854L46.3589 25.1762Z" fill="black"/>
<path fill-rule="evenodd" clip-rule="evenodd" d="M74.6015 31.2913C74.7026 30.5781 74.8047 29.9664 74.7026 29.5586C74.6015 29.1508 74.195 28.9469 73.4841 28.9469C72.7723 28.9469 72.1626 29.7625 71.9594 30.5781C71.0453 34.6552 81.0011 32.3099 79.2741 40.2602C78.0556 46.07 74.195 47.9041 69.928 47.9041C65.5597 47.9041 61.2927 47.191 62.9177 40.8719H69.5215C69.4203 41.6875 69.3182 42.4007 69.4203 42.9109C69.5215 43.4202 69.7247 43.7256 70.3344 43.7256C71.2485 43.7256 72.0615 42.9109 72.2647 41.8914C73.28 36.9987 63.3241 40.1587 65.0512 32.1069C66.1695 26.8064 69.3182 24.5645 74.3982 24.5645C80.7979 24.5645 81.5097 27.622 80.7979 31.2913H74.6015Z" fill="black"/>
<path fill-rule="evenodd" clip-rule="evenodd" d="M84.4552 25.1762H91.1602L86.4876 47.191H79.6805L84.4552 25.1762Z" fill="black"/>
<path fill-rule="evenodd" clip-rule="evenodd" d="M9.78553 41.6875C9.78553 23.1371 34.2696 8.05214 64.5435 8.05214C80.6967 8.05214 95.224 12.3331 105.282 19.1624C95.3251 10.2951 78.5632 4.38379 59.6668 4.38379C29.0884 4.38379 4.29999 19.5702 4.29999 38.3245C4.29999 48.8221 12.1223 58.1988 24.2117 64.4164C15.272 58.5051 9.78553 50.4524 9.78553 41.6875Z" fill="#006BA8"/>
<path fill-rule="evenodd" clip-rule="evenodd" d="M44.1233 55.1412V57.791H43.006L44.1233 55.1412ZM40.7713 60.0339H41.9907L42.5995 58.8105H44.1233V60.0339H45.4439L45.1395 54.0202H43.6157L40.7713 60.0339Z" fill="black"/>
<path fill-rule="evenodd" clip-rule="evenodd" d="M46.7645 55.549H47.8827L47.7807 55.9568C48.1871 55.549 48.5936 55.4466 49.0001 55.4466C49.6098 55.4466 49.9142 55.6505 49.9142 56.1607C50.2195 55.6505 50.7271 55.4466 51.2348 55.4466C51.9466 55.4466 52.2509 55.8544 52.0477 56.7724L51.3368 60.0339H50.2195L50.8292 56.8739C50.9304 56.5685 50.8292 56.2622 50.5239 56.2622C50.2195 56.2622 49.9142 56.5685 49.813 57.0778L49.2033 60.0339H47.9839L48.6957 56.8739C48.7968 56.5685 48.6957 56.2622 48.3904 56.2622C47.9839 56.2622 47.6795 56.5685 47.5774 57.0778L46.9686 60.0339H45.8504L46.7645 55.549Z" fill="black"/>
<path fill-rule="evenodd" clip-rule="evenodd" d="M53.6727 57.2817L53.7748 57.0778C53.8768 56.67 54.0801 56.2622 54.4856 56.2622C54.9942 56.2622 54.9942 56.5685 54.8921 57.2817H53.6727ZM55.8062 57.9949L55.9083 57.6895C56.2136 56.3646 56.1115 55.4466 54.6889 55.4466C53.165 55.4466 52.6574 56.5685 52.4542 57.791C52.2509 58.9119 52.0477 60.1354 53.6727 60.1354C54.791 60.1354 55.4007 59.6261 55.603 58.5051H54.5877C54.3845 59.1158 54.1812 59.4222 53.7748 59.4222C53.3683 59.4222 53.3683 58.8105 53.4704 58.3012L53.5715 57.9949H55.8062Z" fill="black"/>
<path fill-rule="evenodd" clip-rule="evenodd" d="M56.9245 55.549H58.0418L57.9397 56.1607C58.2451 55.7529 58.6515 55.4466 59.1592 55.4466C59.1592 55.4466 59.2612 55.4466 59.3624 55.4466L59.0571 56.5685C58.9559 56.5685 58.8548 56.5685 58.7527 56.5685C58.3462 56.5685 57.8386 56.7724 57.7365 57.3841L57.1277 60.0339H56.0094L56.9245 55.549Z" fill="black"/>
<path fill-rule="evenodd" clip-rule="evenodd" d="M59.7689 55.549H60.8862L59.9721 60.0339H58.8548L59.7689 55.549ZM60.0733 54.0202H61.2927L61.0894 55.0397H59.87L60.0733 54.0202Z" fill="black"/>
<path fill-rule="evenodd" clip-rule="evenodd" d="M63.5274 57.1802C63.6294 56.7724 63.6294 56.2622 63.223 56.2622C62.6133 56.2622 62.41 56.7724 62.2068 57.791C62.0035 58.9119 62.0035 59.4222 62.5121 59.4222C62.9176 59.4222 63.1209 59.0144 63.3241 58.3012H64.4415C64.1371 59.5246 63.5274 60.1354 62.3089 60.1354C61.1906 60.1354 60.683 59.6261 61.0894 57.791C61.4959 55.9568 62.3089 55.4466 63.4262 55.4466C64.4415 55.4466 64.8489 56.0583 64.6447 57.1802H63.5274Z" fill="black"/>
<path fill-rule="evenodd" clip-rule="evenodd" d="M66.9815 58.709C66.8803 59.2183 66.4738 59.4222 66.1694 59.4222C65.8641 59.4222 65.763 59.1158 65.8641 58.709C65.9662 58.3012 66.1694 58.0973 66.6771 57.9949C66.7782 57.9949 67.0835 57.8934 67.1847 57.791L66.9815 58.709ZM66.3717 56.8739V56.7724C66.4738 56.4661 66.6771 56.2622 66.9815 56.2622C67.3879 56.2622 67.49 56.4661 67.3879 56.7724C67.3879 57.0778 67.1847 57.1802 66.8803 57.2817L66.1694 57.4856C65.3565 57.6895 64.95 57.9949 64.7468 58.9119C64.6447 59.5246 64.7468 60.1354 65.5597 60.1354C66.0674 60.1354 66.4738 60.0339 66.7782 59.6261H66.8803C66.8803 59.7275 66.8803 59.9315 66.8803 60.0339H67.9977C67.8956 59.83 67.8956 59.6261 67.9977 59.2183L68.5053 56.7724C68.7085 55.9568 68.6074 55.4466 67.1847 55.4466C66.3717 55.4466 65.5597 55.7529 65.3565 56.7724L65.2544 56.8739H66.3717Z" fill="black"/>
<path fill-rule="evenodd" clip-rule="evenodd" d="M69.6235 55.549H70.7409L70.6388 56.0583C70.9441 55.6505 71.4517 55.4466 71.8582 55.4466C72.5691 55.4466 72.9756 55.8544 72.7723 56.67L72.0615 60.0339H70.9441L71.5529 56.9753C71.655 56.4661 71.5529 56.2622 71.2485 56.2622C70.842 56.2622 70.5377 56.5685 70.4356 57.0778L69.8258 60.0339H68.7085L69.6235 55.549Z" fill="black"/>
<path fill-rule="evenodd" clip-rule="evenodd" d="M77.547 54.0202L78.1567 58.1988L78.9697 54.0202H80.087L78.8685 60.0339H77.4459L76.8361 55.8544L76.0232 60.0339H74.9059L76.1253 54.0202H77.547Z" fill="black"/>
<path fill-rule="evenodd" clip-rule="evenodd" d="M82.0173 58.709C81.9152 59.2183 81.5097 59.4222 81.2044 59.4222C80.7979 59.4222 80.7979 59.1158 80.9 58.709C80.9 58.3012 81.2044 58.0973 81.6108 57.9949C81.8141 57.9949 82.0173 57.8934 82.2205 57.791L82.0173 58.709ZM81.3064 56.8739V56.7724C81.4076 56.4661 81.6108 56.2622 82.0173 56.2622C82.4238 56.2622 82.5259 56.4661 82.4238 56.7724C82.3217 57.0778 82.2205 57.1802 81.8141 57.2817L81.2044 57.4856C80.2902 57.6895 79.8838 57.9949 79.6805 58.9119C79.5794 59.5246 79.7817 60.1354 80.4935 60.1354C81.1032 60.1354 81.4076 60.0339 81.8141 59.6261C81.8141 59.7275 81.8141 59.9315 81.9152 60.0339H82.9314C82.9314 59.83 82.9314 59.6261 83.0335 59.2183L83.5411 56.7724C83.6432 55.9568 83.5411 55.4466 82.2205 55.4466C81.3064 55.4466 80.4935 55.7529 80.2902 56.7724V56.8739H81.3064Z" fill="black"/>
<path fill-rule="evenodd" clip-rule="evenodd" d="M85.1661 54.2241H86.2844L85.979 55.549H86.6899L86.4876 56.3646H85.8779L85.2682 58.8105C85.2682 59.1158 85.2682 59.2183 85.5725 59.2183C85.6746 59.2183 85.7767 59.2183 85.8779 59.2183L85.6746 60.0339C85.4714 60.0339 85.2682 60.1354 84.9638 60.1354C84.0487 60.1354 83.9476 59.83 84.1508 58.9119L84.6584 56.3646H84.0487L84.252 55.549H84.8617L85.1661 54.2241Z" fill="black"/>
<path fill-rule="evenodd" clip-rule="evenodd" d="M87.0964 55.549H88.2146L87.2996 60.0339H86.1823L87.0964 55.549ZM87.4017 54.0202H88.6211L88.4179 55.0397H87.1984L87.4017 54.0202Z" fill="black"/>
<path fill-rule="evenodd" clip-rule="evenodd" d="M89.6364 57.791C89.8396 56.8739 89.9417 56.2622 90.5514 56.2622C91.059 56.2622 91.059 56.67 90.8558 57.791C90.5514 58.9119 90.3482 59.4222 89.8396 59.4222C89.332 59.4222 89.4331 58.709 89.6364 57.791ZM88.4179 57.791C88.1125 59.3197 88.3158 60.2378 89.7384 60.1354C91.059 60.1354 91.6687 59.3197 91.9731 57.791C92.2785 56.2622 92.0743 55.4466 90.7537 55.4466C89.4331 55.4466 88.7223 56.2622 88.4179 57.791Z" fill="black"/>
<path fill-rule="evenodd" clip-rule="evenodd" d="M93.0905 55.549H94.2078L94.1067 56.0583C94.411 55.6505 94.9196 55.4466 95.3251 55.4466C96.0369 55.4466 96.4434 55.8544 96.2402 56.67L95.5293 60.0339H94.411L95.0208 56.9753C95.1228 56.4661 95.0208 56.2622 94.7164 56.2622C94.3099 56.2622 94.0055 56.5685 93.9034 57.0778L93.2937 60.0339H92.1764L93.0905 55.549Z" fill="black"/>
<path fill-rule="evenodd" clip-rule="evenodd" d="M98.6781 58.709C98.5769 59.2183 98.1705 59.4222 97.8651 59.4222C97.5608 59.4222 97.4587 59.1158 97.5608 58.709C97.6628 58.3012 97.8651 58.0973 98.3737 57.9949C98.4749 57.9949 98.6781 57.8934 98.8813 57.791L98.6781 58.709ZM97.9672 56.8739V56.7724C98.0693 56.4661 98.2716 56.2622 98.6781 56.2622C99.0846 56.2622 99.1867 56.4661 99.0846 56.7724C98.9825 57.0778 98.8813 57.1802 98.4749 57.2817L97.8651 57.4856C96.951 57.6895 96.5446 57.9949 96.4434 58.9119C96.2402 59.5246 96.4434 60.1354 97.2564 60.1354C97.764 60.1354 98.0693 60.0339 98.4749 59.6261C98.4749 59.7275 98.4749 59.9315 98.5769 60.0339H99.5922C99.5922 59.83 99.5922 59.6261 99.6943 59.2183L100.202 56.7724C100.405 55.9568 100.202 55.4466 98.8813 55.4466C97.9672 55.4466 97.1543 55.7529 96.951 56.7724V56.8739H97.9672Z" fill="black"/>
<path fill-rule="evenodd" clip-rule="evenodd" d="M101.625 54.0202H102.742L101.522 60.0339H100.405L101.625 54.0202Z" fill="black"/>
<path fill-rule="evenodd" clip-rule="evenodd" d="M105.688 58.1988V58.4027C105.586 58.9119 105.688 59.3197 106.297 59.3197C106.602 59.3197 107.009 59.0144 107.11 58.5051C107.313 57.9949 107.009 57.791 106.297 57.4856C105.282 57.1802 104.875 56.67 105.079 55.7529C105.383 54.5295 106.196 53.9187 107.313 53.9187C108.431 53.9187 109.04 54.428 108.837 55.549V55.7529H107.618C107.822 55.1412 107.618 54.8358 107.212 54.8358C106.602 54.8358 106.399 55.1412 106.399 55.549C106.297 55.8544 106.297 56.1607 106.806 56.3646L107.618 56.7724C108.431 57.1802 108.634 57.5871 108.431 58.3012C108.227 59.6261 107.313 60.1354 105.993 60.1354C104.672 60.1354 104.266 59.5246 104.469 58.4027V58.1988H105.688Z" fill="black"/>
<path fill-rule="evenodd" clip-rule="evenodd" d="M110.159 54.2241H111.276L110.971 55.549H111.682L111.478 56.3646H110.87L110.361 58.8105C110.26 59.1158 110.26 59.2183 110.666 59.2183C110.767 59.2183 110.767 59.2183 110.87 59.2183L110.767 60.0339C110.463 60.0339 110.26 60.1354 109.955 60.1354C109.04 60.1354 108.939 59.83 109.142 58.9119L109.65 56.3646H109.142L109.244 55.549H109.853L110.159 54.2241Z" fill="black"/>
<path fill-rule="evenodd" clip-rule="evenodd" d="M113.511 58.709C113.41 59.2183 113.002 59.4222 112.698 59.4222C112.393 59.4222 112.291 59.1158 112.393 58.709C112.393 58.3012 112.698 58.0973 113.206 57.9949C113.307 57.9949 113.511 57.8934 113.714 57.791L113.511 58.709ZM112.8 56.8739V56.7724C112.901 56.4661 113.104 56.2622 113.511 56.2622C113.917 56.2622 114.018 56.4661 113.917 56.7724C113.815 57.0778 113.714 57.1802 113.307 57.2817L112.698 57.4856C111.784 57.6895 111.377 57.9949 111.174 58.9119C111.073 59.5246 111.276 60.1354 111.987 60.1354C112.597 60.1354 112.901 60.0339 113.307 59.6261C113.307 59.7275 113.307 59.9315 113.41 60.0339H114.425C114.425 59.83 114.425 59.6261 114.527 59.2183L115.035 56.7724C115.136 55.9568 115.035 55.4466 113.714 55.4466C112.8 55.4466 111.987 55.7529 111.784 56.7724V56.8739H112.8Z" fill="black"/>
<path fill-rule="evenodd" clip-rule="evenodd" d="M116.051 55.549H117.168L117.066 56.0583C117.472 55.6505 117.879 55.4466 118.387 55.4466C119.098 55.4466 119.403 55.8544 119.302 56.67L118.59 60.0339H117.371L118.082 56.9753C118.183 56.4661 118.082 56.2622 117.676 56.2622C117.269 56.2622 117.066 56.5685 116.965 57.0778L116.254 60.0339H115.136L116.051 55.549Z" fill="black"/>
<path fill-rule="evenodd" clip-rule="evenodd" d="M120.825 57.791C121.029 56.7724 121.232 56.2622 121.739 56.2622C122.247 56.2622 122.247 56.7724 122.045 57.791C121.841 58.8105 121.637 59.3197 121.13 59.3197C120.622 59.3197 120.622 58.8105 120.825 57.791ZM121.637 60.0339H122.756L123.974 54.0202H122.857L122.45 55.9568C122.247 55.6505 122.045 55.4466 121.536 55.4466C120.622 55.4466 120.012 56.1607 119.708 57.791C119.302 59.4222 119.606 60.1354 120.52 60.1354C121.029 60.1354 121.333 60.0339 121.739 59.5246L121.637 60.0339Z" fill="black"/>
<path fill-rule="evenodd" clip-rule="evenodd" d="M125.904 58.709C125.803 59.2183 125.296 59.4222 124.99 59.4222C124.686 59.4222 124.686 59.1158 124.686 58.709C124.787 58.3012 124.99 58.0973 125.498 57.9949C125.702 57.9949 125.904 57.8934 126.108 57.791L125.904 58.709ZM125.194 56.8739V56.7724C125.296 56.4661 125.498 56.2622 125.904 56.2622C126.21 56.2622 126.311 56.4661 126.311 56.7724C126.21 57.0778 126.108 57.1802 125.702 57.2817L124.99 57.4856C124.178 57.6895 123.771 57.9949 123.569 58.9119C123.467 59.5246 123.569 60.1354 124.381 60.1354C124.99 60.1354 125.296 60.0339 125.702 59.6261C125.702 59.7275 125.702 59.9315 125.702 60.0339H126.819C126.717 59.83 126.819 59.6261 126.921 59.2183L127.327 56.7724C127.53 55.9568 127.429 55.4466 126.007 55.4466C125.194 55.4466 124.381 55.7529 124.178 56.7724V56.8739H125.194Z" fill="black"/>
<path fill-rule="evenodd" clip-rule="evenodd" d="M128.444 55.549H129.562L129.461 56.1607C129.765 55.7529 130.172 55.4466 130.68 55.4466C130.68 55.4466 130.781 55.4466 130.882 55.4466L130.578 56.5685C130.476 56.5685 130.375 56.5685 130.273 56.5685C129.867 56.5685 129.359 56.7724 129.257 57.3841L128.648 60.0339H127.53L128.444 55.549Z" fill="black"/>
<path fill-rule="evenodd" clip-rule="evenodd" d="M131.797 57.791C132.001 56.7724 132.204 56.2622 132.712 56.2622C133.219 56.2622 133.219 56.7724 133.016 57.791C132.814 58.8105 132.609 59.3197 132.102 59.3197C131.594 59.3197 131.594 58.8105 131.797 57.791ZM132.609 60.0339H133.727L134.946 54.0202H133.829L133.422 55.9568C133.219 55.6505 133.016 55.4466 132.508 55.4466C131.594 55.4466 130.984 56.1607 130.68 57.791C130.273 59.4222 130.578 60.1354 131.492 60.1354C132.001 60.1354 132.305 60.0339 132.712 59.5246L132.609 60.0339Z" fill="black"/>
<path fill-rule="evenodd" clip-rule="evenodd" d="M135.658 58.6066L135.556 58.709C135.455 59.1158 135.658 59.4222 136.064 59.4222C136.369 59.4222 136.673 59.2183 136.775 58.8105C136.775 58.5051 136.673 58.4027 136.471 58.3012L135.658 57.9949C135.048 57.791 134.845 57.3841 134.946 56.7724C135.149 56.0583 135.759 55.4466 136.979 55.4466C137.994 55.4466 138.4 55.8544 138.197 56.67V56.8739H137.08C137.182 56.4661 137.182 56.2622 136.775 56.2622C136.471 56.2622 136.166 56.3646 136.064 56.67C136.064 56.8739 136.166 57.0778 136.471 57.1802L137.182 57.4856C137.791 57.6895 137.994 58.0973 137.893 58.709C137.689 59.7276 136.876 60.1354 135.86 60.1354C134.642 60.1354 134.337 59.6261 134.54 58.709V58.6066H135.658Z" fill="black"/>
<path fill-rule="evenodd" clip-rule="evenodd" d="M140.229 60.0339L141.55 54.0202H142.768L141.449 60.0339H140.229Z" fill="black"/>
<path fill-rule="evenodd" clip-rule="evenodd" d="M143.277 55.549H144.394L144.293 56.0583C144.598 55.6505 145.105 55.4466 145.512 55.4466C146.325 55.4466 146.629 55.8544 146.426 56.67L145.715 60.0339H144.598L145.207 56.9753C145.308 56.4661 145.207 56.2622 144.902 56.2622C144.496 56.2622 144.191 56.5685 144.09 57.0778L143.48 60.0339H142.363L143.277 55.549Z" fill="black"/>
<path fill-rule="evenodd" clip-rule="evenodd" d="M147.645 58.6066V58.709C147.544 59.1158 147.645 59.4222 148.052 59.4222C148.458 59.4222 148.661 59.2183 148.763 58.8105C148.865 58.5051 148.661 58.4027 148.458 58.3012L147.747 57.9949C147.138 57.791 146.934 57.3841 147.036 56.7724C147.138 56.0583 147.747 55.4466 148.966 55.4466C149.982 55.4466 150.388 55.8544 150.185 56.67V56.8739H149.169C149.27 56.4661 149.169 56.2622 148.763 56.2622C148.458 56.2622 148.255 56.3646 148.153 56.67C148.052 56.8739 148.153 57.0778 148.559 57.1802L149.169 57.4856C149.881 57.6895 150.083 58.0973 149.881 58.709C149.677 59.7276 148.865 60.1354 147.951 60.1354C146.629 60.1354 146.426 59.6261 146.629 58.709V58.6066H147.645Z" fill="black"/>
<path fill-rule="evenodd" clip-rule="evenodd" d="M151.709 54.2241H152.826L152.522 55.549H153.233L153.03 56.3646H152.42L151.912 58.8105C151.81 59.1158 151.81 59.2183 152.217 59.2183C152.319 59.2183 152.319 59.2183 152.42 59.2183L152.319 60.0339C152.014 60.0339 151.81 60.1354 151.506 60.1354C150.592 60.1354 150.49 59.83 150.693 58.9119L151.201 56.3646H150.693L150.795 55.549H151.404L151.709 54.2241Z" fill="black"/>
<path fill-rule="evenodd" clip-rule="evenodd" d="M153.639 55.549H154.859L153.843 60.0339H152.725L153.639 55.549ZM154.046 54.0202H155.163L154.96 55.0397H153.741L154.046 54.0202Z" fill="black"/>
<path fill-rule="evenodd" clip-rule="evenodd" d="M156.179 54.2241H157.297L156.991 55.549H157.703L157.5 56.3646H156.89L156.383 58.8105C156.281 59.1158 156.281 59.2183 156.687 59.2183C156.788 59.2183 156.788 59.2183 156.89 59.2183L156.788 60.0339C156.484 60.0339 156.281 60.1354 155.976 60.1354C155.061 60.1354 154.96 59.83 155.163 58.9119L155.671 56.3646H155.163L155.265 55.549H155.874L156.179 54.2241Z" fill="black"/>
<path fill-rule="evenodd" clip-rule="evenodd" d="M159.531 59.5246C159.227 59.9314 158.719 60.1354 158.312 60.1354C157.5 60.1354 157.195 59.7275 157.398 58.9119L158.11 55.549H159.227L158.617 58.6066C158.516 59.1158 158.617 59.3197 158.922 59.3197C159.328 59.3197 159.633 59.0144 159.735 58.5051L160.344 55.549H161.462L160.548 60.0339H159.43L159.531 59.5246Z" fill="black"/>
<path fill-rule="evenodd" clip-rule="evenodd" d="M162.782 54.2241H163.9L163.696 55.549H164.306L164.205 56.3646H163.494L162.985 58.8105C162.884 59.1158 162.985 59.2183 163.291 59.2183C163.392 59.2183 163.494 59.2183 163.595 59.2183L163.392 60.0339C163.088 60.0339 162.884 60.1354 162.579 60.1354C161.767 60.1354 161.665 59.83 161.767 58.9119L162.376 56.3646H161.767L161.97 55.549H162.478L162.782 54.2241Z" fill="black"/>
<path fill-rule="evenodd" clip-rule="evenodd" d="M165.221 57.9949L165.119 58.3012C165.018 58.8105 165.018 59.4222 165.525 59.4222C165.83 59.4222 166.135 59.1158 166.236 58.5051H167.355C167.049 59.6261 166.44 60.1354 165.322 60.1354C163.696 60.1354 163.9 58.9119 164.104 57.791C164.408 56.5685 164.815 55.4466 166.44 55.4466C167.76 55.4466 167.862 56.3646 167.557 57.6895L167.456 57.9949H165.221ZM166.542 57.2817C166.643 56.5685 166.643 56.2622 166.135 56.2622C165.729 56.2622 165.525 56.67 165.423 57.0778L165.322 57.2817H166.542Z" fill="black"/>
</svg>
