<svg width="147" height="81" viewBox="0 0 147 81" fill="none" xmlns="http://www.w3.org/2000/svg">
<path d="M34.8005 65.1842C33.5495 49.4991 34.4851 40.4791 34.4851 40.4791C34.359 39.4909 32.0462 38.9863 29.3233 39.3437C26.6005 39.7011 24.498 40.7945 24.6346 41.7827C27.3962 50.4255 29.522 59.2588 30.9949 68.2118C32.3405 67.1501 33.6126 66.1513 34.8005 65.1842Z" fill="white"/>
<path d="M28.3982 32.3211C22.7213 33.0675 18.369 35.6327 18.5687 37.115L20.2298 41.6039H20.3244C20.2901 41.5157 20.2654 41.4241 20.2508 41.3306C20.009 39.4909 23.9198 37.4514 28.9869 36.7891C34.0541 36.1268 38.3538 37.0729 38.5956 38.8916C38.6113 38.9856 38.6113 39.0815 38.5956 39.1755L39.1003 34.4132C38.9426 32.9624 34.0751 31.5747 28.3982 32.3211Z" fill="white"/>
<path d="M45.429 28.0216C42.7029 26.7611 39.6223 26.4915 36.7187 27.2591C33.815 28.0268 31.2702 29.7836 29.5232 32.2267C34.3801 31.8062 38.4065 32.889 39.0583 34.1715C39.1052 34.2528 39.1372 34.3418 39.1529 34.4344L38.6483 39.1967C38.664 39.1027 38.664 39.0068 38.6483 38.9128C38.4065 37.0731 34.1067 36.1164 29.0396 36.8103C23.9724 37.5041 20.0616 39.5121 20.3034 41.3518C20.318 41.4453 20.3427 41.5369 20.377 41.6251H20.2824L18.5688 37.1677C18.3901 35.78 22.1537 33.4672 27.2629 32.5526C25.5467 30.0131 22.9823 28.1677 20.0291 27.3471C17.076 26.5265 13.9272 26.7842 11.1468 28.0741C4.25038 31.228 0.959869 39.4385 6.39499 49.0997C10.2637 55.9541 16.3296 61.1264 28.2826 70.3882L30.995 68.2856C29.5221 59.3326 27.3963 50.4993 24.6347 41.8564C24.498 40.8682 26.6006 39.7539 29.3234 39.4174C32.0462 39.081 34.3591 39.5646 34.4852 40.5528C34.4852 40.5528 34.4221 41.2257 34.3485 42.4767C33.9912 50.0722 34.1458 57.6832 34.8111 65.2579C42.6011 58.9502 47.1006 54.5769 50.1913 49.0997C50.6006 48.3692 50.9725 47.6183 51.3057 46.85C55.0588 38.1244 51.7788 30.9652 45.429 28.0216Z" fill="#C20E21"/>
<path d="M34.5692 18.949C33.3609 19.724 32.4241 20.8563 31.889 22.1883C31.3539 23.5204 31.2472 24.9861 31.5836 26.3816C34.4431 22.1765 43.1477 25.9716 46.0072 16.2893C44.3879 17.5633 42.368 18.2192 40.3092 18.1395C45.04 16.1737 47.7523 9.21418 43.4631 4.4729C44.7036 10.0762 37.5654 10.5703 31.9726 11.6111C21.4598 13.598 19.7252 23.3434 24.498 28.3159C23.9513 22.4183 28.7031 18.8544 34.5167 18.9595L34.5692 18.949Z" fill="#C20E21"/>
<path d="M39.0477 34.1506C39.0946 34.2319 39.1267 34.3209 39.1423 34.4135L38.6377 39.1758C38.5326 40.3322 36.8716 41.5306 34.4326 42.3927C34.0753 49.9882 34.2298 57.5992 34.8952 65.1739C42.6851 58.8662 47.1846 54.4929 50.2754 49.0157C50.6847 48.2852 51.0566 47.5343 51.3898 46.766L39.0477 34.1506Z" fill="url(#paint0_linear_0_6705)"/>
<path d="M64.0581 48.9422C63.5828 48.7615 63.1472 48.4902 62.7755 48.1432L63.5955 46.9868C63.8562 47.2576 64.1667 47.4753 64.5101 47.6281C64.8684 47.7981 65.2595 47.8878 65.656 47.8909C65.9773 47.9083 66.2963 47.8276 66.5706 47.6596C66.6761 47.5879 66.7615 47.4903 66.8185 47.3762C66.8756 47.2621 66.9024 47.1353 66.8965 47.0078C66.9005 46.9291 66.8885 46.8504 66.8614 46.7763C66.8343 46.7023 66.7926 46.6344 66.7388 46.5768C66.6028 46.4349 66.4379 46.3238 66.2553 46.2509C66.045 46.1563 65.7086 46.0196 65.2565 45.8619C64.872 45.7418 64.5018 45.5796 64.1527 45.3783C63.8565 45.2163 63.6068 44.981 63.4273 44.695C63.2371 44.3781 63.1422 44.0131 63.154 43.6437C63.146 43.2239 63.2638 42.8113 63.4924 42.459C63.721 42.1068 64.0498 41.831 64.4365 41.6673C64.8819 41.479 65.3618 41.3859 65.8453 41.394C66.3127 41.3903 66.7766 41.4759 67.2119 41.6463C67.6027 41.7855 67.9606 42.0038 68.2632 42.2876L67.4642 43.4019C67.2461 43.1848 66.9894 43.0101 66.7073 42.8868C66.4226 42.761 66.1145 42.6965 65.8032 42.6976C65.5049 42.6827 65.2088 42.7559 64.9517 42.9078C64.8509 42.9684 64.7684 43.0551 64.7128 43.1587C64.6573 43.2624 64.6309 43.3791 64.6363 43.4966C64.634 43.572 64.6468 43.647 64.6739 43.7174C64.7009 43.7878 64.7418 43.8521 64.794 43.9066C64.9262 44.053 65.0922 44.1649 65.2776 44.2325C65.6031 44.3771 65.9366 44.5035 66.2763 44.6109C66.6722 44.7455 67.0556 44.9144 67.4222 45.1155C67.7119 45.2741 67.9549 45.5061 68.1265 45.7883C68.3078 46.1085 68.3987 46.4719 68.3894 46.8396C68.4001 47.2752 68.2792 47.7039 68.0424 48.0696C67.7939 48.4253 67.4519 48.7055 67.0542 48.8791C66.5997 49.0748 66.1088 49.1715 65.614 49.163C65.0865 49.1797 64.5601 49.105 64.0581 48.9422Z" fill="#231F20"/>
<path d="M70.555 48.6373C70.3588 48.4169 70.21 48.1585 70.1178 47.8782C70.0256 47.5979 69.9919 47.3017 70.0188 47.0078V44.8422H68.915V43.6858H70.0504V42.0248H71.4276V43.6858H72.9834V44.8422H71.4276V46.8186C71.3958 47.1148 71.4786 47.412 71.6588 47.6491C71.7422 47.7366 71.8438 47.8046 71.9565 47.8482C72.0692 47.8918 72.1901 47.91 72.3106 47.9014H72.9834V49.1314H72.2476C71.6411 49.1878 71.0359 49.0111 70.555 48.6373Z" fill="#231F20"/>
<path d="M77.1675 43.6753V45.0209H76.6629C76.3869 45.0114 76.1127 45.0691 75.864 45.1891C75.6477 45.3203 75.4728 45.5098 75.3593 45.7358V49.0894H74.0032V43.6858H75.3593V44.5268C75.4726 44.2449 75.6759 44.0084 75.9375 43.854C76.1915 43.7143 76.4783 43.6453 76.7681 43.6543L77.1675 43.6753Z" fill="#231F20"/>
<path d="M78.8916 48.8371C78.4488 48.5932 78.0842 48.2287 77.8404 47.7858C77.5844 47.3496 77.4534 46.8513 77.4619 46.3455C77.4547 45.8366 77.5855 45.3353 77.8404 44.8948C78.0907 44.4702 78.4548 44.1242 78.8916 43.896C79.3656 43.6511 79.8931 43.5282 80.4265 43.5386C80.9566 43.5277 81.4809 43.6507 81.9509 43.896C82.3877 44.1242 82.7519 44.4702 83.0021 44.8948C83.2538 45.3361 83.381 45.8376 83.3701 46.3455C83.3823 46.8503 83.255 47.3487 83.0021 47.7858C82.7583 48.2287 82.3937 48.5932 81.9509 48.8371C81.4818 49.0861 80.9575 49.2127 80.4265 49.205C79.8923 49.2117 79.3648 49.0853 78.8916 48.8371ZM81.5304 47.5019C81.6696 47.3508 81.7775 47.1736 81.8479 46.9805C81.9183 46.7875 81.9497 46.5824 81.9404 46.3771C81.9494 46.1734 81.9179 45.97 81.8475 45.7786C81.7771 45.5873 81.6693 45.4119 81.5304 45.2627C81.3846 45.1212 81.2116 45.0109 81.0218 44.9386C80.832 44.8663 80.6294 44.8335 80.4265 44.8422C80.2321 44.8388 80.039 44.8743 79.8585 44.9465C79.678 45.0187 79.5137 45.1262 79.3752 45.2627C79.0975 45.5715 78.9438 45.9722 78.9438 46.3876C78.9438 46.803 79.0975 47.2036 79.3752 47.5125C79.6551 47.7891 80.033 47.944 80.4265 47.9435C80.6312 47.9514 80.8352 47.9161 81.0254 47.84C81.2155 47.764 81.3876 47.6488 81.5304 47.5019Z" fill="#231F20"/>
<path d="M89.4675 47.9224V49.1524H88.9419C88.6328 49.1635 88.3249 49.1098 88.0378 48.9948C87.8028 48.8919 87.5916 48.7416 87.4175 48.5532C87.2493 48.3535 87.0075 48.0486 86.7132 47.6386L86.2191 46.9448H85.9247V49.0473H84.5581V41.0576H85.9247V45.8724H86.0509L87.838 43.6858H89.478L87.3755 46.3035L87.796 46.8501C88.0056 47.1633 88.2648 47.4403 88.5634 47.6701C88.7968 47.8436 89.0823 47.9325 89.3729 47.9224H89.4675Z" fill="#231F20"/>
<path d="M95.3652 46.7345H91.3283C91.3408 46.9208 91.391 47.1026 91.476 47.2689C91.5609 47.4351 91.6788 47.5824 91.8224 47.7017C92.1414 47.945 92.536 48.0678 92.9368 48.0486C93.251 48.0492 93.5633 47.9996 93.8619 47.9014C94.1183 47.8178 94.3597 47.6936 94.5768 47.5335L95.0814 48.5112C94.4359 48.9832 93.6519 49.2272 92.8526 49.205C92.311 49.218 91.7752 49.0913 91.2967 48.8371C90.8495 48.5991 90.4834 48.2331 90.2455 47.7858C90.0089 47.3431 89.8895 46.8473 89.8986 46.3455C89.8895 45.8391 90.0127 45.339 90.256 44.8948C90.4865 44.4767 90.8286 44.1309 91.2442 43.896C91.6879 43.6514 92.1883 43.5281 92.6949 43.5386C93.1817 43.5269 93.6621 43.6507 94.0826 43.896C94.488 44.1475 94.8099 44.5133 95.0078 44.9473C95.2356 45.4299 95.3472 45.9592 95.3337 46.4927L95.3652 46.7345ZM93.967 45.7884C93.9318 45.469 93.7869 45.1717 93.557 44.9473C93.3287 44.7454 93.031 44.6399 92.7265 44.653C92.4032 44.6422 92.0865 44.7465 91.8329 44.9473C91.5825 45.1644 91.4153 45.4617 91.3598 45.7884H93.967Z" fill="#231F20"/>
<path d="M125.043 59.6863C124.906 59.8184 124.734 59.9074 124.548 59.9422C124.361 59.9771 124.168 59.9562 123.993 59.8822C123.818 59.8082 123.669 59.6844 123.564 59.5262C123.459 59.3679 123.403 59.1823 123.403 58.9924C123.4 58.86 123.426 58.7287 123.479 58.6071C123.531 58.4856 123.609 58.3768 123.708 58.2881C123.888 58.1203 124.124 58.0264 124.37 58.0252C124.496 58.0238 124.62 58.0483 124.736 58.0971C124.852 58.1459 124.956 58.2181 125.043 58.3091C125.225 58.4922 125.326 58.7397 125.326 58.9977C125.326 59.2556 125.225 59.5031 125.043 59.6863ZM123.802 58.4352C123.69 58.5467 123.613 58.6891 123.582 58.8442C123.55 58.9994 123.566 59.1604 123.626 59.3068C123.686 59.4532 123.789 59.5784 123.92 59.6666C124.052 59.7547 124.206 59.8017 124.365 59.8017C124.523 59.8017 124.678 59.7547 124.809 59.6666C124.941 59.5784 125.043 59.4532 125.104 59.3068C125.164 59.1604 125.179 58.9994 125.148 58.8442C125.116 58.6891 125.04 58.5467 124.927 58.4352C124.855 58.3596 124.769 58.2993 124.673 58.2577C124.577 58.2162 124.474 58.1943 124.37 58.1935C124.264 58.1923 124.159 58.2132 124.061 58.2548C123.963 58.2964 123.875 58.3579 123.802 58.4352ZM123.939 59.4865V58.4352H124.465C124.538 58.435 124.61 58.4531 124.675 58.4878C124.72 58.5121 124.756 58.5489 124.781 58.5937C124.805 58.6385 124.816 58.6893 124.812 58.7401C124.816 58.7769 124.812 58.8142 124.799 58.849C124.786 58.8837 124.765 58.9149 124.738 58.9399C124.685 58.9761 124.623 58.9979 124.559 59.0029L124.706 59.066C124.739 59.0969 124.764 59.1345 124.781 59.1763C124.797 59.2181 124.804 59.263 124.801 59.3078V59.434H124.528C124.528 59.434 124.528 59.3499 124.528 59.2868C124.53 59.2413 124.53 59.1956 124.528 59.1501C124.521 59.1333 124.512 59.1181 124.499 59.1054C124.486 59.0927 124.471 59.0829 124.454 59.0765H124.233V59.455L123.939 59.4865ZM124.454 58.6245H124.223V58.9399H124.328C124.379 58.9583 124.435 58.9583 124.486 58.9399C124.495 58.9202 124.5 58.8986 124.5 58.8768C124.5 58.855 124.495 58.8334 124.486 58.8137C124.486 58.7867 124.478 58.7603 124.463 58.7379C124.448 58.7154 124.426 58.6979 124.402 58.6876" fill="#231F20"/>
<path d="M67.7586 36.8525H64.8255L64.1632 38.7237H62.6073L65.4668 30.9968H67.1068L69.9663 38.7237H68.3683L67.7586 36.8525ZM67.3486 35.6435L66.2973 32.6158L65.246 35.6435H67.3486Z" fill="#231F20"/>
<path d="M79.0809 33.6881C79.4525 34.1871 79.635 34.8018 79.596 35.4227V38.7237H78.1873V35.5699C78.2109 35.2402 78.1179 34.9128 77.9245 34.6448C77.8332 34.5344 77.7169 34.4472 77.5853 34.3906C77.4537 34.3339 77.3105 34.3093 77.1676 34.3189C76.8983 34.3228 76.6347 34.3966 76.4025 34.533C76.1703 34.6693 75.9775 34.8636 75.8429 35.0968V38.6817H74.4552V35.4543C74.4689 35.1533 74.3717 34.8578 74.1819 34.6237C74.0901 34.518 73.9747 34.4353 73.845 34.3823C73.7154 34.3294 73.5751 34.3076 73.4355 34.3189C73.1639 34.3242 72.8983 34.3995 72.6643 34.5377C72.4304 34.6758 72.2362 34.872 72.1004 35.1073V38.6817H70.7127V33.173H72.0688V33.9089C72.2744 33.6361 72.5415 33.4158 72.8485 33.266C73.1554 33.1161 73.4935 33.0411 73.835 33.0468C74.2019 33.0448 74.5634 33.1352 74.8863 33.3096C75.1833 33.4912 75.418 33.7589 75.5591 34.0771C75.7864 33.7743 76.0725 33.5204 76.4001 33.3307C76.741 33.1324 77.1308 33.0341 77.525 33.0468C77.8167 33.0214 78.1103 33.0663 78.3811 33.1779C78.6518 33.2895 78.8918 33.4645 79.0809 33.6881Z" fill="#231F20"/>
<path d="M86.0193 36.3163H81.9088C81.9234 36.5062 81.9755 36.6913 82.0621 36.861C82.1488 37.0306 82.2682 37.1813 82.4134 37.3045C82.7397 37.5493 83.1414 37.672 83.5488 37.6514C83.8699 37.652 84.1892 37.6023 84.495 37.5043C84.7528 37.4162 84.997 37.2923 85.2204 37.1363L85.725 38.1245C85.0719 38.6062 84.2758 38.8543 83.4647 38.8289C82.9132 38.8404 82.3675 38.7139 81.8773 38.4609C81.433 38.219 81.0679 37.8539 80.826 37.4096C80.5891 36.9554 80.4664 36.4502 80.4686 35.9378C80.4616 35.4203 80.5883 34.9097 80.8365 34.4555C81.0765 34.0098 81.442 33.6442 81.8878 33.4043C82.3355 33.1482 82.8439 33.0174 83.3596 33.0258C83.859 33.0145 84.3513 33.1458 84.7788 33.4043C85.194 33.65 85.5242 34.0168 85.725 34.4555C85.9528 34.9493 86.0643 35.4888 86.0509 36.0325L86.0193 36.3163ZM84.6001 35.3596C84.5678 35.0312 84.4185 34.7253 84.1796 34.4976C83.9453 34.2906 83.6405 34.1814 83.3281 34.1927C82.9935 34.1817 82.6667 34.2948 82.4105 34.5102C82.1543 34.7256 81.9869 35.0282 81.9404 35.3596H84.6001Z" fill="#231F20"/>
<path d="M90.4557 33.2045V34.5712H89.9406C89.6566 34.561 89.3746 34.6224 89.1206 34.7499C88.9017 34.8825 88.7264 35.0762 88.616 35.3071V38.7237H87.2283V33.215H88.616V34.0981C88.7327 33.8097 88.9391 33.5664 89.2047 33.4043C89.462 33.2632 89.7525 33.1942 90.0457 33.2045H90.4557Z" fill="#231F20"/>
<path d="M91.4755 32.1427C91.3177 31.9793 91.2308 31.7601 91.2337 31.533C91.2319 31.306 91.3187 31.0873 91.4755 30.9232C91.555 30.8431 91.6502 30.7803 91.7551 30.7387C91.86 30.6971 91.9724 30.6776 92.0852 30.6814C92.1966 30.6765 92.3077 30.6955 92.4111 30.7372C92.5145 30.7789 92.6077 30.8423 92.6845 30.9232C92.7654 31.0026 92.8295 31.0976 92.8729 31.2023C92.9163 31.3071 92.938 31.4196 92.9368 31.533C92.9392 31.6465 92.9181 31.7594 92.8747 31.8643C92.8312 31.9693 92.7664 32.0641 92.6845 32.1427C92.6062 32.2215 92.5127 32.2836 92.4097 32.3251C92.3067 32.3667 92.1963 32.3869 92.0852 32.3845C91.858 32.3874 91.6389 32.3005 91.4755 32.1427ZM91.3809 33.194H92.7686V38.7027H91.3809V33.194Z" fill="#231F20"/>
<path d="M95.0603 38.4714C94.6205 38.2236 94.2569 37.86 94.009 37.4202C93.7529 36.9725 93.6222 36.4641 93.6306 35.9484C93.6196 35.4224 93.7504 34.9031 94.009 34.445C94.2538 34.0028 94.6181 33.6385 95.0603 33.3938C95.5262 33.1464 96.0467 33.0199 96.5742 33.0258C97.2599 33.0163 97.933 33.2102 98.5085 33.583L97.9303 34.6868C97.5683 34.4294 97.134 34.2932 96.6898 34.2979C96.4779 34.2877 96.2662 34.3206 96.0674 34.3947C95.8686 34.4688 95.6869 34.5825 95.5334 34.7289C95.2545 35.0516 95.101 35.464 95.101 35.8905C95.101 36.3171 95.2545 36.7294 95.5334 37.0522C95.6857 37.201 95.8669 37.317 96.0658 37.3929C96.2647 37.4689 96.4771 37.5032 96.6898 37.4937C97.1459 37.5012 97.5934 37.3691 97.9724 37.1153L98.5191 38.1666C98.2471 38.3522 97.9496 38.4974 97.636 38.5976C97.2944 38.6956 96.94 38.7417 96.5847 38.7343C96.0626 38.7746 95.5388 38.6842 95.0603 38.4714Z" fill="#231F20"/>
<path d="M105.163 37.3886C105.323 37.4904 105.511 37.5383 105.699 37.5253V38.7763H105.584C104.532 38.7763 103.954 38.4925 103.796 37.9353C103.574 38.2211 103.285 38.4484 102.955 38.5976C102.626 38.7507 102.267 38.8296 101.904 38.8289C101.403 38.8345 100.91 38.7075 100.474 38.4609C100.057 38.2089 99.7178 37.8447 99.4967 37.4096C99.2689 36.9506 99.1503 36.4451 99.1503 35.9326C99.1503 35.4201 99.2689 34.9146 99.4967 34.4555C99.7145 34.0182 100.054 33.6531 100.474 33.4043C100.91 33.1577 101.403 33.0307 101.904 33.0363C102.225 33.0262 102.544 33.0815 102.842 33.199C103.14 33.3165 103.411 33.4937 103.639 33.7197V33.1519H105.026V36.8945C105.003 36.9816 105.003 37.0733 105.027 37.1602C105.051 37.2471 105.098 37.326 105.163 37.3886ZM103.597 35.1809C103.455 34.9299 103.243 34.7254 102.987 34.5922C102.707 34.4514 102.396 34.3827 102.083 34.3925C101.879 34.3832 101.675 34.4168 101.485 34.4911C101.295 34.5653 101.123 34.6785 100.979 34.8235C100.707 35.1414 100.558 35.5459 100.558 35.9641C100.558 36.3824 100.707 36.7868 100.979 37.1048C101.115 37.2466 101.278 37.3589 101.459 37.4349C101.64 37.5108 101.834 37.5488 102.03 37.5463C102.345 37.547 102.655 37.4712 102.934 37.3255C103.196 37.1917 103.412 36.9831 103.555 36.7263L103.597 35.1809Z" fill="#231F20"/>
<path d="M111.555 33.6881C111.945 34.1788 112.136 34.7978 112.091 35.4227V38.7237H110.693V35.5699C110.715 35.2337 110.605 34.9022 110.388 34.6448C110.28 34.53 110.147 34.4411 109.999 34.3847C109.852 34.3283 109.694 34.3058 109.536 34.3189C109.248 34.3203 108.965 34.3931 108.712 34.5307C108.459 34.6682 108.244 34.8664 108.086 35.1073V38.6817H106.698V33.173H108.086V34.014C108.311 33.7333 108.598 33.5085 108.924 33.3572C109.251 33.2058 109.608 33.132 109.967 33.1414C110.256 33.1133 110.547 33.1476 110.821 33.2419C111.095 33.3362 111.345 33.4884 111.555 33.6881Z" fill="#231F20"/>
<path d="M67.5273 57.8781H64.5942L63.9424 59.7493H62.4181L65.2776 52.0224H66.9176L69.7876 59.7493H68.1791L67.5273 57.8781ZM67.1173 56.6691L66.066 53.6414L65.0147 56.6691H67.1173Z" fill="#231F20"/>
<path d="M71.1227 59.6442C70.743 59.4894 70.4047 59.2482 70.1345 58.9399L70.9124 58.0988C71.0973 58.3095 71.3225 58.4811 71.5747 58.6035C71.8292 58.7187 72.1049 58.7796 72.3842 58.7822C72.6065 58.7966 72.8284 58.7493 73.0255 58.6455C73.0971 58.6095 73.157 58.5537 73.1979 58.4848C73.2389 58.4159 73.2593 58.3367 73.2568 58.2565C73.2576 58.1714 73.2344 58.0877 73.1898 58.0152C73.1451 57.9426 73.0809 57.8842 73.0045 57.8465C72.7058 57.6927 72.3923 57.5695 72.0688 57.4786C71.6148 57.3545 71.1921 57.136 70.8283 56.8373C70.6826 56.6812 70.5706 56.4969 70.4992 56.2956C70.4278 56.0944 70.3986 55.8806 70.4134 55.6676C70.4282 55.4546 70.4866 55.2469 70.5851 55.0575C70.6837 54.8681 70.8201 54.701 70.986 54.5665C71.4311 54.2543 71.9673 54.0989 72.5104 54.125C72.912 54.116 73.3116 54.1838 73.6878 54.3247C74.0027 54.4455 74.284 54.6402 74.5078 54.8924L73.6247 55.7124C73.5161 55.5473 73.363 55.4161 73.1832 55.334C72.9676 55.2274 72.7298 55.1734 72.4893 55.1763C72.3022 55.1655 72.1159 55.2093 71.9532 55.3024C71.8943 55.3389 71.8459 55.39 71.8127 55.4509C71.7795 55.5117 71.7627 55.5801 71.764 55.6494C71.7638 55.7004 71.774 55.7509 71.7939 55.7978C71.8137 55.8448 71.8429 55.8873 71.8796 55.9227C71.9858 56.0208 72.111 56.096 72.2476 56.1435C72.4052 56.2171 72.6681 56.3011 73.0255 56.4168C73.4661 56.5349 73.8729 56.7545 74.2134 57.0581C74.3511 57.1952 74.4586 57.3595 74.5292 57.5405C74.5998 57.7215 74.6319 57.9152 74.6234 58.1094C74.6288 58.3518 74.5774 58.5921 74.4733 58.8111C74.3693 59.0302 74.2155 59.2218 74.0242 59.3709C73.5482 59.7134 72.9699 59.8839 72.3842 59.8545C71.954 59.8673 71.5255 59.7959 71.1227 59.6442Z" fill="#231F20"/>
<path d="M76.274 59.6442C75.8927 59.4869 75.5514 59.2462 75.2752 58.9399L76.0637 58.0988C76.2449 58.3125 76.4704 58.4843 76.7245 58.6023C76.9786 58.7203 77.2553 58.7817 77.5355 58.7822C77.7576 58.795 77.9791 58.7477 78.1768 58.6455C78.2476 58.6085 78.3067 58.5525 78.3476 58.4838C78.3884 58.4151 78.4094 58.3364 78.4081 58.2565C78.4089 58.1714 78.3857 58.0877 78.341 58.0152C78.2964 57.9426 78.2322 57.8842 78.1557 57.8465C77.857 57.6927 77.5436 57.5695 77.2201 57.4786C76.7651 57.357 76.3419 57.1382 75.9796 56.8373C75.8294 56.6835 75.7134 56.4997 75.6393 56.298C75.5651 56.0962 75.5345 55.881 75.5494 55.6666C75.5643 55.4521 75.6244 55.2432 75.7257 55.0537C75.827 54.8641 75.9673 54.6981 76.1373 54.5665C76.5823 54.2543 77.1186 54.0989 77.6617 54.125C78.0599 54.1155 78.4562 54.1833 78.8286 54.3247C79.1461 54.4462 79.4306 54.6406 79.6591 54.8924L78.776 55.7124C78.6673 55.5473 78.5143 55.4161 78.3345 55.334C78.1184 55.2289 77.8809 55.1749 77.6406 55.1763C77.4535 55.1655 77.2672 55.2093 77.1045 55.3024C77.0455 55.3389 76.9971 55.39 76.964 55.4509C76.9308 55.5117 76.914 55.5801 76.9152 55.6494C76.9131 55.7006 76.9224 55.7517 76.9423 55.799C76.9623 55.8463 76.9926 55.8885 77.0309 55.9227C77.134 56.0196 77.2555 56.0947 77.3883 56.1435C77.5565 56.2171 77.8193 56.3011 78.1768 56.4168C78.6153 56.5401 79.021 56.7591 79.3647 57.0581C79.5024 57.1952 79.6099 57.3595 79.6805 57.5405C79.7511 57.7215 79.7832 57.9152 79.7747 58.1094C79.7801 58.3518 79.7286 58.5921 79.6246 58.8111C79.5206 59.0302 79.3668 59.2218 79.1755 59.3709C78.6995 59.7134 78.1212 59.8839 77.5355 59.8545C77.1053 59.8673 76.6767 59.7959 76.274 59.6442Z" fill="#231F20"/>
<path d="M81.9824 59.4865C81.5399 59.2422 81.1754 58.8778 80.9311 58.4352C80.675 57.9876 80.5443 57.4792 80.5527 56.9635C80.5455 56.4446 80.6761 55.9331 80.9311 55.4812C81.1745 55.0379 81.5392 54.6732 81.9824 54.4299C82.463 54.1816 82.9974 54.0552 83.5383 54.0619C84.0795 54.0526 84.6145 54.1791 85.0942 54.4299C85.5374 54.6732 85.9021 55.0379 86.1455 55.4812C86.4005 55.9331 86.5311 56.4446 86.5239 56.9635C86.5323 57.4792 86.4016 57.9876 86.1455 58.4352C85.9012 58.8778 85.5367 59.2422 85.0942 59.4865C84.6168 59.7444 84.0809 59.8748 83.5383 59.865C82.9957 59.8748 82.4598 59.7444 81.9824 59.4865ZM84.6632 58.1304C84.8069 57.9776 84.9182 57.7973 84.9905 57.6004C85.0627 57.4035 85.0945 57.194 85.0837 56.9845C85.0991 56.7767 85.0698 56.5679 84.9979 56.3723C84.9259 56.1767 84.813 55.9988 84.6666 55.8504C84.5202 55.7021 84.3438 55.5867 84.1492 55.5122C83.9546 55.4376 83.7463 55.4055 83.5383 55.4181C83.3304 55.4092 83.1229 55.4439 82.9292 55.5199C82.7355 55.596 82.5598 55.7117 82.4134 55.8596C82.2694 56.0084 82.157 56.1847 82.0829 56.378C82.0089 56.5713 81.9747 56.7776 81.9824 56.9845C81.9729 57.1972 82.0073 57.4096 82.0832 57.6085C82.1592 57.8074 82.2751 57.9886 82.4239 58.1409C82.5696 58.2861 82.7439 58.3994 82.9358 58.4737C83.1276 58.5479 83.3328 58.5813 83.5383 58.5719C83.7497 58.5838 83.9612 58.5506 84.1587 58.4744C84.3563 58.3983 84.5354 58.281 84.6842 58.1304H84.6632Z" fill="#231F20"/>
<path d="M88.595 59.4971C88.1496 59.2566 87.7842 58.8912 87.5437 58.4458C87.2862 57.9948 87.1555 57.4826 87.1652 56.9635C87.1553 56.4376 87.2859 55.9186 87.5437 55.4601C87.7842 55.0147 88.1496 54.6493 88.595 54.4088C89.0568 54.1607 89.5741 54.0341 90.0983 54.0409C90.7872 54.0318 91.4636 54.2256 92.0432 54.5981L91.465 55.6494C91.1029 55.3919 90.6687 55.2557 90.2244 55.2604C90.0101 55.2501 89.7959 55.284 89.5951 55.36C89.3944 55.4359 89.2114 55.5523 89.0575 55.7019C88.9145 55.8573 88.8037 56.0395 88.7315 56.238C88.6593 56.4365 88.6272 56.6474 88.637 56.8583C88.6253 57.072 88.6576 57.2857 88.7317 57.4864C88.8058 57.6871 88.9203 57.8705 89.068 58.0253C89.2217 58.1721 89.4032 58.2867 89.6017 58.3625C89.8003 58.4384 90.012 58.4738 90.2244 58.4668C90.6813 58.4685 91.1281 58.333 91.507 58.0778L92.0537 59.1291C91.7745 59.3086 91.4744 59.4533 91.1601 59.5601C90.8178 59.6545 90.4639 59.7005 90.1088 59.6968C89.5954 59.7588 89.0747 59.6901 88.595 59.4971Z" fill="#231F20"/>
<path d="M93.3573 53.284C93.2785 53.2057 93.2164 53.1122 93.1749 53.0092C93.1333 52.9062 93.1131 52.7958 93.1155 52.6847C93.1126 52.4576 93.1995 52.2384 93.3573 52.075C93.4359 51.993 93.5307 51.9282 93.6356 51.8848C93.7406 51.8414 93.8534 51.8202 93.967 51.8227C94.079 51.8204 94.1902 51.8417 94.2934 51.8851C94.3967 51.9286 94.4896 51.9933 94.5662 52.075C94.6463 52.1545 94.7091 52.2497 94.7507 52.3546C94.7924 52.4596 94.8119 52.5719 94.808 52.6847C94.813 52.7961 94.794 52.9073 94.7523 53.0107C94.7106 53.114 94.6471 53.2073 94.5662 53.284C94.4896 53.3657 94.3967 53.4304 94.2934 53.4738C94.1902 53.5173 94.079 53.5386 93.967 53.5363C93.8534 53.5388 93.7406 53.5176 93.6356 53.4742C93.5307 53.4307 93.4359 53.366 93.3573 53.284ZM93.2521 54.3353H94.6503V59.844H93.2521V54.3353Z" fill="#231F20"/>
<path d="M101.568 58.4247C101.73 58.5196 101.917 58.5636 102.104 58.5509V59.8019H101.988C100.937 59.8019 100.348 59.5286 100.201 58.9714C99.973 59.2515 99.6858 59.4776 99.3601 59.6337C99.0289 59.7811 98.6713 59.8598 98.3088 59.865C97.8064 59.8737 97.3114 59.7427 96.8791 59.4865C96.4586 59.2377 96.1191 58.8726 95.9014 58.4352C95.6648 57.9813 95.5455 57.4753 95.5544 56.9635C95.5473 56.4484 95.6664 55.9395 95.9014 55.4812C96.1181 55.0431 96.4579 54.6778 96.8791 54.4299C97.3143 54.1818 97.8079 54.0548 98.3088 54.0619C98.6271 54.0487 98.9447 54.1017 99.2414 54.2175C99.5382 54.3333 99.8077 54.5094 100.033 54.7348V54.1671H101.431V57.9201C101.406 58.0087 101.405 58.1026 101.429 58.1915C101.453 58.2805 101.501 58.3611 101.568 58.4247ZM99.9908 56.217C99.8525 55.9668 99.6443 55.7622 99.3916 55.6283C99.1088 55.4838 98.7945 55.4116 98.477 55.4181C98.2811 55.4175 98.0871 55.4562 97.9065 55.5321C97.7259 55.6079 97.5624 55.7193 97.4257 55.8596C97.2817 56.0084 97.1693 56.1847 97.0952 56.378C97.0212 56.5713 96.987 56.7776 96.9947 56.9845C96.9784 57.4101 97.1293 57.8252 97.4152 58.1409C97.5524 58.2798 97.7163 58.3895 97.8969 58.4636C98.0775 58.5377 98.2713 58.5745 98.4665 58.5719C98.7814 58.5739 99.092 58.498 99.3706 58.3511C99.6334 58.2239 99.8501 58.0182 99.9908 57.7624V56.217Z" fill="#231F20"/>
<path d="M103.923 59.2447C103.72 59.0212 103.566 58.7583 103.47 58.4725C103.375 58.1866 103.339 57.884 103.365 57.5837V55.376H102.209V54.1986H103.365V52.5166H104.774V54.1986H106.362V55.376H104.774V57.3945C104.742 57.694 104.825 57.9946 105.005 58.2355C105.093 58.3229 105.199 58.3906 105.315 58.4341C105.431 58.4776 105.555 58.4959 105.678 58.4878H106.362V59.7493H105.605C105.001 59.7958 104.401 59.616 103.923 59.2447Z" fill="#231F20"/>
<path d="M107.707 53.347C107.625 53.2684 107.56 53.1736 107.517 53.0687C107.474 52.9637 107.452 52.8509 107.455 52.7373C107.454 52.6239 107.475 52.5114 107.519 52.4067C107.562 52.3019 107.626 52.2069 107.707 52.1276C107.784 52.0467 107.877 51.9832 107.981 51.9415C108.084 51.8998 108.195 51.8808 108.306 51.8858C108.419 51.8819 108.532 51.9014 108.637 51.943C108.741 51.9846 108.837 52.0475 108.916 52.1276C109.073 52.2916 109.16 52.5103 109.158 52.7373C109.161 52.8499 109.141 52.9619 109.099 53.0666C109.057 53.1712 108.995 53.2662 108.915 53.3459C108.835 53.4255 108.74 53.4881 108.636 53.5299C108.531 53.5717 108.419 53.5917 108.306 53.5888C108.195 53.5912 108.085 53.571 107.982 53.5295C107.879 53.4879 107.786 53.4258 107.707 53.347ZM107.602 54.3983H108.99V59.907H107.602V54.3983Z" fill="#231F20"/>
<path d="M111.471 59.4865C111.028 59.2422 110.664 58.8778 110.42 58.4353C110.163 57.9876 110.033 57.4792 110.041 56.9635C110.034 56.4446 110.164 55.9331 110.42 55.4812C110.663 55.0379 111.028 54.6732 111.471 54.4299C111.955 54.1803 112.493 54.0539 113.037 54.0619C113.575 54.0539 114.106 54.1804 114.583 54.4299C115.026 54.6732 115.391 55.0379 115.634 55.4812C115.889 55.9331 116.02 56.4446 116.012 56.9635C116.021 57.4792 115.89 57.9876 115.634 58.4353C115.39 58.8778 115.025 59.2422 114.583 59.4865C114.108 59.7427 113.576 59.873 113.037 59.865C112.491 59.8766 111.951 59.7462 111.471 59.4865ZM114.152 58.1304C114.297 57.9781 114.41 57.7982 114.484 57.6013C114.558 57.4044 114.591 57.1947 114.583 56.9845C114.592 56.7759 114.558 56.5676 114.484 56.3724C114.41 56.1771 114.297 55.9991 114.152 55.8491C114.005 55.7049 113.831 55.5923 113.639 55.5181C113.447 55.444 113.243 55.4099 113.037 55.4181C112.829 55.4075 112.62 55.4408 112.426 55.5158C112.231 55.5908 112.054 55.7058 111.906 55.8534C111.759 56.001 111.644 56.178 111.569 56.3728C111.494 56.5676 111.46 56.776 111.471 56.9845C111.461 57.1972 111.496 57.4096 111.572 57.6085C111.648 57.8074 111.764 57.9886 111.912 58.1409C112.06 58.2864 112.236 58.3998 112.43 58.474C112.623 58.5482 112.83 58.5815 113.037 58.5719C113.238 58.5762 113.438 58.5393 113.624 58.4633C113.811 58.3874 113.979 58.2741 114.12 58.1304H114.152Z" fill="#231F20"/>
<path d="M121.763 54.7137C122.151 55.2054 122.342 55.8236 122.299 56.4483V59.7493H120.89V56.5955C120.913 56.261 120.808 55.9304 120.596 55.6704C120.488 55.5556 120.355 55.4667 120.207 55.4103C120.06 55.3539 119.902 55.3314 119.744 55.3445C119.455 55.3461 119.171 55.4201 118.917 55.5596C118.664 55.6992 118.45 55.8999 118.294 56.1435V59.7073H116.895V54.1986H118.325V55.0396C118.55 54.7583 118.837 54.5331 119.163 54.3817C119.49 54.2302 119.847 54.1568 120.207 54.167C120.49 54.1486 120.773 54.1875 121.041 54.2815C121.308 54.3754 121.554 54.5224 121.763 54.7137Z" fill="#231F20"/>
<path d="M65.8345 67.5916H64.1209L63.406 68.9162H62.7963L65.1827 64.6375H65.7609L66.6229 68.9162H66.0552L65.8345 67.5916ZM65.7399 67.1185L65.3824 65.2682L64.3311 67.1185H65.7399Z" fill="#231F20"/>
<path d="M71.7742 68.4011C71.8486 68.4504 71.9377 68.4727 72.0265 68.4641L71.9319 68.9477C71.729 68.9593 71.5266 68.9195 71.3432 68.8321C71.2812 68.7904 71.2305 68.734 71.1957 68.668C71.1608 68.602 71.1429 68.5283 71.1434 68.4536C71.0247 68.6245 70.861 68.7592 70.6704 68.8426C70.4842 68.9349 70.2789 68.9817 70.0711 68.9793C69.8265 68.9842 69.5855 68.9185 69.3773 68.79C69.1767 68.6679 69.0132 68.4935 68.9042 68.2854C68.7919 68.0527 68.7344 67.7974 68.736 67.539C68.7315 67.2338 68.8077 66.9328 68.9568 66.6665C69.0888 66.4105 69.2889 66.1959 69.535 66.0462C69.7834 65.9 70.0667 65.8237 70.355 65.8254C70.5906 65.817 70.8238 65.8753 71.0278 65.9936C71.2192 66.0952 71.371 66.2581 71.4588 66.4562L71.8268 64.3536H72.3524L71.7111 68.0436C71.7081 68.0926 71.7081 68.1418 71.7111 68.1908C71.7 68.2282 71.7 68.268 71.7112 68.3054C71.7224 68.3428 71.7443 68.376 71.7742 68.4011ZM70.7755 68.3275C70.9503 68.2364 71.0961 68.0979 71.196 67.928L71.3642 67.0134C71.3068 66.8045 71.1794 66.6216 71.0034 66.4953C70.8274 66.369 70.6133 66.307 70.397 66.3195C70.1966 66.3169 69.9997 66.3716 69.8293 66.4772C69.654 66.5784 69.5116 66.7281 69.4193 66.9082C69.3259 67.0902 69.279 67.2925 69.2827 67.497C69.2749 67.7583 69.3649 68.0132 69.535 68.2118C69.6197 68.3017 69.7226 68.3725 69.8368 68.4196C69.9509 68.4667 70.0738 68.4891 70.1973 68.4852C70.4005 68.4838 70.5998 68.4295 70.7755 68.3275Z" fill="#231F20"/>
<path d="M73.1198 65.8885H73.656L73.1198 68.9162H72.5837L73.1198 65.8885ZM73.267 65.1631C73.2009 65.0956 73.1632 65.0053 73.1619 64.9108C73.1604 64.8621 73.169 64.8136 73.1869 64.7683C73.2049 64.723 73.232 64.6819 73.2664 64.6474C73.3009 64.6129 73.342 64.5859 73.3873 64.5679C73.4326 64.5499 73.4811 64.5414 73.5298 64.5429C73.577 64.5411 73.624 64.5496 73.6676 64.5677C73.7111 64.5859 73.7502 64.6132 73.7822 64.648C73.8177 64.6815 73.8456 64.7224 73.8637 64.7678C73.8819 64.8132 73.8899 64.862 73.8873 64.9108C73.8873 65.0056 73.8496 65.0965 73.7826 65.1636C73.7156 65.2306 73.6246 65.2682 73.5298 65.2682C73.4459 65.2612 73.3675 65.2238 73.3091 65.1631H73.267Z" fill="#231F20"/>
<path d="M77.1042 65.8885C76.9627 66.4855 76.7361 67.0591 76.4314 67.5916C76.1624 68.0752 75.8301 68.5206 75.4432 68.9162H74.907L74.2237 65.8885H74.7809L75.2855 68.4011C75.591 68.0703 75.8493 67.6988 76.0529 67.2972C76.2842 66.8547 76.4473 66.3798 76.5365 65.8885H77.1042Z" fill="#231F20"/>
<path d="M77.8506 65.8885H78.3762L77.8401 68.9162H77.325L77.8506 65.8885ZM78.0083 65.1631C77.9735 65.1312 77.9462 65.0921 77.928 65.0485C77.9099 65.005 77.9014 64.958 77.9032 64.9108C77.9005 64.862 77.9086 64.8132 77.9267 64.7678C77.9449 64.7224 77.9727 64.6815 78.0083 64.648C78.0398 64.6127 78.0788 64.5849 78.1225 64.5667C78.1661 64.5485 78.2134 64.5403 78.2606 64.5429C78.3093 64.5409 78.3579 64.5493 78.4032 64.5674C78.4485 64.5855 78.4895 64.613 78.5234 64.648C78.559 64.6815 78.5868 64.7224 78.605 64.7678C78.6231 64.8132 78.6312 64.862 78.6286 64.9108C78.6303 64.958 78.6219 65.005 78.6037 65.0485C78.5856 65.0921 78.5582 65.1312 78.5234 65.1631C78.4895 65.1981 78.4485 65.2256 78.4032 65.2437C78.3579 65.2618 78.3093 65.2702 78.2606 65.2683C78.2136 65.2687 78.167 65.2597 78.1237 65.2416C78.0803 65.2235 78.041 65.1968 78.0083 65.1631Z" fill="#231F20"/>
<path d="M78.7862 68.4957L79.1016 68.1488C79.2151 68.2684 79.3508 68.3648 79.5011 68.4326C79.658 68.509 79.8314 68.5451 80.0057 68.5377C80.1511 68.5424 80.2943 68.502 80.4157 68.4221C80.4655 68.3886 80.506 68.3431 80.5336 68.2898C80.5611 68.2366 80.5748 68.1772 80.5734 68.1172C80.5735 68.0571 80.5604 67.9977 80.5349 67.9431C80.5095 67.8886 80.4724 67.8404 80.4262 67.8018C80.2779 67.704 80.1193 67.623 79.9532 67.5601C79.7238 67.4783 79.5104 67.3574 79.3224 67.2026C79.2548 67.1378 79.202 67.0592 79.1675 66.9721C79.133 66.885 79.1177 66.7915 79.1227 66.698C79.1193 66.5735 79.1462 66.4501 79.2011 66.3384C79.2561 66.2267 79.3374 66.13 79.438 66.0567C79.7251 65.8792 80.0625 65.8006 80.3985 65.8328C80.7345 65.8651 81.0507 66.0065 81.2988 66.2354L80.9624 66.5929C80.8686 66.4894 80.7539 66.407 80.626 66.3511C80.502 66.289 80.3652 66.2566 80.2265 66.2565C80.0852 66.2524 79.9448 66.2812 79.8165 66.3406C79.7661 66.3682 79.7246 66.4095 79.6967 66.4597C79.6688 66.51 79.6557 66.5671 79.6588 66.6244C79.6608 66.6756 79.674 66.7257 79.6977 66.7711C79.7213 66.8166 79.7547 66.8562 79.7955 66.8872C79.958 67.0009 80.1347 67.0928 80.3211 67.1606C80.5394 67.2501 80.7418 67.3743 80.9203 67.5285C80.9864 67.6005 81.0372 67.6851 81.0697 67.7773C81.1022 67.8694 81.1158 67.9672 81.1096 68.0647C81.1129 68.1921 81.086 68.3185 81.0312 68.4336C80.9764 68.5487 80.8952 68.6492 80.7942 68.727C80.5551 68.905 80.2614 68.9942 79.9637 68.9793C79.7438 68.9912 79.5241 68.954 79.3204 68.8703C79.1167 68.7867 78.9343 68.6587 78.7862 68.4957Z" fill="#231F20"/>
<path d="M82.2449 65.8885H82.7811L82.2449 68.9162H81.7193L82.2449 65.8885ZM82.4027 65.1631C82.3679 65.1312 82.3405 65.0921 82.3223 65.0485C82.3042 65.005 82.2957 64.958 82.2975 64.9108C82.2949 64.862 82.3029 64.8132 82.3211 64.7678C82.3393 64.7224 82.3671 64.6815 82.4027 64.648C82.4341 64.6127 82.4731 64.5849 82.5168 64.5667C82.5605 64.5485 82.6077 64.5403 82.655 64.5429C82.7037 64.5414 82.7522 64.5499 82.7975 64.5679C82.8428 64.5859 82.8839 64.6129 82.9184 64.6474C82.9528 64.6819 82.9799 64.723 82.9979 64.7683C83.0158 64.8136 83.0244 64.8621 83.0229 64.9108C83.0247 64.958 83.0162 65.005 82.9981 65.0485C82.9799 65.0921 82.9525 65.1312 82.9178 65.1631C82.8842 65.1987 82.8433 65.2265 82.798 65.2447C82.7526 65.2628 82.7038 65.2709 82.655 65.2683C82.608 65.2687 82.5614 65.2597 82.518 65.2416C82.4746 65.2235 82.4354 65.1968 82.4027 65.1631Z" fill="#231F20"/>
<path d="M84.0111 68.7901C83.7908 68.6762 83.6082 68.5009 83.4855 68.2854C83.3555 68.0509 83.2902 67.7861 83.2962 67.518C83.2934 67.2289 83.362 66.9437 83.496 66.6875C83.6397 66.4296 83.8503 66.2153 84.1057 66.0672C84.393 65.9014 84.7203 65.8177 85.0519 65.8254C85.3219 65.8209 85.5889 65.8822 85.8298 66.0041C86.0473 66.1181 86.2265 66.2937 86.3449 66.5088C86.4737 66.7323 86.5392 66.9867 86.5342 67.2447C86.5346 67.5414 86.4624 67.8338 86.3239 68.0962C86.1849 68.3595 85.978 68.5809 85.7247 68.7375C85.4375 68.9033 85.1101 68.987 84.7785 68.9793C84.5105 68.9853 84.2456 68.92 84.0111 68.7901ZM85.4408 68.3065C85.6116 68.206 85.7474 68.0556 85.8298 67.8754C85.9232 67.6935 85.9702 67.4912 85.9665 67.2867C85.9827 67.0373 85.8995 66.7917 85.7352 66.6034C85.5432 66.4292 85.2898 66.3385 85.0308 66.3511C84.8081 66.3388 84.5872 66.3977 84.4001 66.5193C84.2325 66.6236 84.0977 66.773 84.0111 66.9503C83.9274 67.1241 83.8842 67.3146 83.885 67.5075C83.8801 67.7703 83.9739 68.0253 84.1478 68.2224C84.2424 68.3136 84.3545 68.3849 84.4773 68.4319C84.6002 68.4788 84.7312 68.5006 84.8626 68.4957C85.0691 68.4869 85.2692 68.4214 85.4408 68.3065Z" fill="#231F20"/>
<path d="M89.9403 66.0672C90.0288 66.1586 90.0971 66.2677 90.1405 66.3872C90.184 66.5068 90.2018 66.6342 90.1926 66.7611C90.204 66.8799 90.204 66.9996 90.1926 67.1185L89.8773 68.9162H89.3411L89.646 67.2026C89.6512 67.1186 89.6512 67.0343 89.646 66.9503C89.6527 66.8625 89.6412 66.7742 89.6122 66.691C89.5833 66.6078 89.5375 66.5314 89.4778 66.4667C89.3429 66.3539 89.1697 66.2974 88.9942 66.309C88.7908 66.3177 88.5916 66.3701 88.4102 66.4627C88.2288 66.5552 88.0694 66.6856 87.9429 66.8452L87.5855 68.9477H87.0493L87.5855 65.9201H88.1216L88.0375 66.3721C88.1882 66.2104 88.3704 66.0813 88.5729 65.9927C88.7754 65.9041 88.9939 65.8579 89.2149 65.857C89.4744 65.8348 89.7329 65.9097 89.9403 66.0672Z" fill="#231F20"/>
<path d="M93.0942 68.7901C92.8739 68.6762 92.6913 68.5009 92.5685 68.2854C92.4386 68.0509 92.3733 67.7861 92.3793 67.518C92.3802 67.2281 92.4524 66.9429 92.5896 66.6875C92.7291 66.43 92.9363 66.2156 93.1888 66.0672C93.476 65.9014 93.8033 65.8177 94.1349 65.8254C94.4049 65.8209 94.6719 65.8822 94.9129 66.0041C95.1323 66.1155 95.3122 66.2917 95.428 66.5088C95.5568 66.7323 95.6222 66.9867 95.6172 67.2447C95.6177 67.5414 95.5455 67.8338 95.407 68.0962C95.2679 68.3595 95.0611 68.5809 94.8078 68.7375C94.5205 68.9033 94.1932 68.987 93.8616 68.9793C93.5936 68.9843 93.3291 68.919 93.0942 68.7901ZM94.5239 68.3065C94.6977 68.2066 94.837 68.0563 94.9234 67.8754C95.0117 67.6916 95.0583 67.4906 95.0601 67.2867C95.0653 67.1568 95.0438 67.0273 94.9968 66.9061C94.9497 66.7849 94.8782 66.6747 94.7867 66.5824C94.692 66.4956 94.5809 66.4287 94.4599 66.3853C94.339 66.342 94.2106 66.3232 94.0824 66.3301C93.8668 66.3095 93.65 66.356 93.4619 66.4633C93.2737 66.5705 93.1232 66.7333 93.0311 66.9293C92.9473 67.103 92.9042 67.2936 92.9049 67.4865C92.9001 67.6179 92.9218 67.7489 92.9687 67.8718C93.0157 67.9946 93.087 68.1067 93.1783 68.2013C93.2702 68.2934 93.3804 68.3652 93.5016 68.4123C93.6229 68.4593 93.7527 68.4806 93.8826 68.4747C94.0978 68.4781 94.3094 68.4197 94.4924 68.3065H94.5239Z" fill="#231F20"/>
<path d="M98.5503 64.3957L98.4557 64.8898H98.1508C98.0562 64.884 97.9615 64.8978 97.8724 64.93C97.7833 64.9623 97.7017 65.0125 97.6328 65.0775C97.5638 65.1425 97.5089 65.221 97.4715 65.308C97.434 65.3951 97.4148 65.4889 97.4149 65.5836V65.8885H98.319L98.2349 66.3406H97.2993L96.8473 68.9057H96.3216L96.7631 66.3406H96.0798L96.1639 65.8885H96.8473L96.9103 65.5101C96.9208 65.3496 96.9635 65.193 97.0358 65.0494C97.1081 64.9058 97.2085 64.7782 97.3311 64.6743C97.4537 64.5703 97.596 64.492 97.7494 64.4442C97.9029 64.3963 98.0645 64.3798 98.2244 64.3957H98.5503Z" fill="#231F20"/>
<path d="M100.453 68.769C100.375 68.6933 100.315 68.6012 100.277 68.4994C100.239 68.3976 100.223 68.2886 100.232 68.1803C100.224 68.0578 100.224 67.9349 100.232 67.8123L100.495 66.3406H99.8434L99.9275 65.8885H100.569L100.737 64.9739H101.263L101.105 65.8885H102.062L101.977 66.3406H101.021L100.769 67.7703C100.769 67.8859 100.769 67.97 100.769 68.0121C100.759 68.0745 100.765 68.1382 100.785 68.198C100.805 68.2578 100.839 68.312 100.885 68.3561C100.93 68.4002 100.985 68.433 101.045 68.4518C101.105 68.4705 101.169 68.4748 101.231 68.4641H101.61L101.525 68.9583H101.126C100.887 68.9738 100.649 68.907 100.453 68.769Z" fill="#231F20"/>
<path d="M105.016 66.0882C105.181 66.2926 105.263 66.5514 105.247 66.8136C105.261 66.9534 105.261 67.0943 105.247 67.2342L104.953 68.9162H104.416L104.711 67.2867C104.72 67.1607 104.72 67.0342 104.711 66.9082C104.724 66.7457 104.676 66.584 104.574 66.4562C104.511 66.3981 104.436 66.354 104.354 66.3268C104.273 66.2996 104.187 66.29 104.101 66.2985C103.909 66.2967 103.72 66.3476 103.554 66.4457C103.378 66.5551 103.222 66.6938 103.092 66.8557L102.724 68.9583H102.188L102.987 64.4272H103.512L103.176 66.3511C103.319 66.1966 103.494 66.0737 103.687 65.9905C103.881 65.9072 104.09 65.8653 104.301 65.8675C104.429 65.8518 104.559 65.8634 104.682 65.9014C104.805 65.9395 104.919 66.0031 105.016 66.0882Z" fill="#231F20"/>
<path d="M106.435 67.4654V67.518C106.426 67.653 106.445 67.7884 106.493 67.9153C106.54 68.0421 106.613 68.1575 106.708 68.2539C106.91 68.4265 107.169 68.5166 107.434 68.5062C107.812 68.5189 108.184 68.4 108.485 68.1698L108.653 68.5693C108.291 68.8441 107.846 68.9886 107.392 68.9793C107.128 68.9825 106.869 68.9211 106.635 68.8005C106.423 68.6868 106.248 68.5155 106.13 68.3064C106.006 68.0815 105.944 67.8274 105.951 67.5705C105.946 67.2632 106.018 66.9595 106.162 66.6875C106.293 66.4283 106.493 66.2101 106.74 66.0567C106.995 65.8985 107.291 65.8181 107.591 65.8254C107.766 65.8172 107.94 65.8457 108.103 65.9091C108.266 65.9725 108.414 66.0693 108.537 66.1934C108.659 66.3248 108.752 66.4788 108.814 66.6466C108.875 66.8143 108.903 66.9926 108.895 67.1711C108.895 67.2446 108.895 67.3393 108.895 67.4654H106.435ZM106.887 66.4877C106.705 66.6419 106.573 66.8469 106.508 67.0764H108.317C108.316 66.8582 108.233 66.6481 108.085 66.4877C108.01 66.4117 107.92 66.3527 107.82 66.3146C107.721 66.2765 107.614 66.2603 107.507 66.267C107.281 66.2648 107.061 66.3431 106.887 66.4877Z" fill="#231F20"/>
<path d="M65.8134 75.2764H64.247L63.9001 76.2752H63.0906L64.615 72.1646H65.4876L67.0119 76.2752H66.1604L65.8134 75.2764ZM65.5927 74.6352L65.0355 73.0267L64.4678 74.6352H65.5927Z" fill="#231F20"/>
<path d="M71.9529 73.6049C72.1464 73.8689 72.2396 74.1931 72.2157 74.5195V76.2752H71.4693V74.6247C71.4835 74.449 71.4351 74.274 71.3327 74.1306C71.2843 74.0721 71.2231 74.0255 71.1538 73.9946C71.0845 73.9636 71.009 73.9489 70.9332 73.9518C70.7896 73.956 70.6496 73.9968 70.5263 74.0704C70.403 74.144 70.3006 74.248 70.2288 74.3723V76.2752H69.4929V74.5616C69.5009 74.4012 69.4484 74.2436 69.3458 74.12C69.2905 74.0629 69.223 74.019 69.1484 73.9917C69.0737 73.9644 68.9938 73.9543 68.9147 73.9623C68.7712 73.9665 68.6311 74.0073 68.5078 74.0809C68.3845 74.1545 68.2821 74.2585 68.2104 74.3829V76.2857H67.464V73.3631H68.2104V73.7521C68.3185 73.6071 68.46 73.4902 68.6229 73.4116C68.7857 73.3329 68.9652 73.2946 69.146 73.3C69.3479 73.289 69.5486 73.3365 69.7242 73.4367C69.8819 73.5296 70.0068 73.6692 70.0816 73.8362C70.2089 73.6816 70.3618 73.55 70.5337 73.4472C70.7142 73.3393 70.923 73.2881 71.1329 73.3C71.2839 73.2837 71.4366 73.3027 71.5789 73.3556C71.7213 73.4086 71.8493 73.4939 71.9529 73.6049Z" fill="#231F20"/>
<path d="M75.7585 75.0136H73.5719C73.5785 75.1154 73.6063 75.2147 73.6533 75.3052C73.7004 75.3957 73.7657 75.4754 73.8452 75.5393C74.0155 75.6728 74.2284 75.74 74.4444 75.7285C74.6161 75.7279 74.7865 75.6995 74.9491 75.6444C75.084 75.6007 75.2116 75.5369 75.3275 75.4552L75.6009 75.9808C75.2533 76.2331 74.8317 76.3626 74.4024 76.3488C74.1074 76.3557 73.8152 76.2907 73.5509 76.1595C73.3222 76.0305 73.1332 75.8415 73.0042 75.6129C72.8797 75.3706 72.8147 75.1021 72.8147 74.8296C72.8147 74.5572 72.8797 74.2887 73.0042 74.0464C73.1326 73.8237 73.3176 73.6387 73.5403 73.5103C73.78 73.373 74.0527 73.304 74.3288 73.3106C74.5918 73.3027 74.8513 73.3722 75.0752 73.5103C75.297 73.6394 75.4733 73.834 75.5798 74.0675C75.7028 74.3305 75.7639 74.6182 75.7585 74.9085V75.0136ZM75.0016 74.509C74.9809 74.3378 74.9032 74.1786 74.7809 74.057C74.7206 74.0002 74.6495 73.956 74.5719 73.9271C74.4942 73.8982 74.4116 73.8852 74.3288 73.8887C74.1524 73.8832 73.9801 73.9431 73.8452 74.057C73.7754 74.1119 73.7172 74.1802 73.6739 74.2577C73.6306 74.3353 73.603 74.4207 73.5929 74.509H75.0016Z" fill="#231F20"/>
<path d="M78.1134 73.3421V74.0675H77.8401C77.6906 74.0601 77.5418 74.0927 77.4091 74.1621C77.2905 74.2306 77.1953 74.3332 77.1357 74.4564V76.2752H76.3998V73.3526H77.1357V73.8152C77.1991 73.6653 77.3051 73.5373 77.4406 73.4472C77.5799 73.3743 77.7355 73.3382 77.8926 73.3421H78.1134Z" fill="#231F20"/>
<path d="M78.6601 72.7744C78.6174 72.7336 78.5833 72.6847 78.5598 72.6305C78.5363 72.5764 78.524 72.5181 78.5234 72.459C78.5262 72.337 78.5751 72.2206 78.6601 72.1331C78.7009 72.0904 78.7498 72.0563 78.8039 72.0328C78.8581 72.0094 78.9164 71.997 78.9755 71.9965C79.0979 71.9971 79.2151 72.0462 79.3014 72.1331C79.3835 72.2217 79.4286 72.3383 79.4275 72.459C79.429 72.5174 79.4185 72.5754 79.3968 72.6296C79.3751 72.6839 79.3427 72.7331 79.3014 72.7744C79.2602 72.8195 79.2098 72.855 79.1535 72.8786C79.0972 72.9022 79.0365 72.9133 78.9755 72.9111C78.9161 72.9132 78.8569 72.902 78.8023 72.8784C78.7478 72.8547 78.6992 72.8192 78.6601 72.7744ZM78.6075 73.3526H79.3434V76.2752H78.6075V73.3526Z" fill="#231F20"/>
<path d="M80.7416 76.1385C80.5105 76.0139 80.3178 75.8285 80.1844 75.6023C80.046 75.367 79.9767 75.0974 79.9847 74.8244C79.9767 74.5448 80.0458 74.2684 80.1844 74.0254C80.3147 73.7968 80.5082 73.6106 80.7416 73.4893C80.9852 73.3521 81.2612 73.2831 81.5406 73.2895C81.9129 73.2777 82.2799 73.3804 82.5919 73.5839L82.287 74.1726C82.093 74.0363 81.8618 73.9629 81.6247 73.9623C81.5109 73.9557 81.397 73.9728 81.2902 74.0126C81.1834 74.0524 81.0861 74.1141 81.0044 74.1936C80.8536 74.3642 80.7745 74.5864 80.7837 74.8139C80.7785 74.9259 80.7963 75.0379 80.8361 75.1427C80.8759 75.2476 80.9367 75.3432 81.0149 75.4236C81.0941 75.5042 81.1892 75.5674 81.2942 75.609C81.3993 75.6507 81.5118 75.6699 81.6247 75.6654C81.8686 75.6665 82.107 75.5931 82.308 75.4552L82.5919 76.0334C82.4478 76.1292 82.2924 76.2069 82.1293 76.2647C81.9401 76.3105 81.7458 76.3317 81.5511 76.3277C81.2697 76.3334 80.9914 76.2683 80.7416 76.1385Z" fill="#231F20"/>
<path d="M86.1137 75.5708C86.2003 75.6186 86.2988 75.6405 86.3975 75.6339V76.3067H86.3344C85.7773 76.3067 85.4619 76.1595 85.3883 75.8546C85.2677 76.0076 85.1129 76.1301 84.9362 76.2121C84.7546 76.2936 84.557 76.3331 84.358 76.3277C84.0935 76.3324 83.8324 76.2671 83.6011 76.1385C83.3785 76.0086 83.1965 75.8193 83.0755 75.5918C82.958 75.3474 82.897 75.0798 82.897 74.8086C82.897 74.5375 82.958 74.2698 83.0755 74.0254C83.1938 73.7986 83.3767 73.6121 83.6011 73.4893C83.8295 73.3525 84.0919 73.2832 84.358 73.2895C84.5268 73.2837 84.6949 73.3124 84.8522 73.3739C85.0095 73.4353 85.1525 73.5283 85.2726 73.6469V73.3526H86.0191V75.3395C86.0161 75.3827 86.0231 75.426 86.0395 75.4661C86.0559 75.5062 86.0813 75.542 86.1137 75.5708ZM85.2726 74.3934C85.2016 74.2589 85.0917 74.149 84.9573 74.078C84.8067 74.005 84.6409 73.9689 84.4737 73.9728C84.3649 73.9687 84.2564 73.9871 84.1551 74.0269C84.0538 74.0667 83.9618 74.127 83.885 74.2041C83.7354 74.3671 83.6561 74.5824 83.6642 74.8034C83.6551 75.0308 83.7342 75.2531 83.885 75.4236C83.9611 75.498 84.0517 75.556 84.1511 75.594C84.2506 75.6319 84.3568 75.6491 84.4632 75.6444C84.6317 75.6486 84.7984 75.6088 84.9467 75.5287C85.0881 75.4638 85.2031 75.3525 85.2726 75.2134V74.3934Z" fill="#231F20"/>
<path d="M89.5093 73.6049C89.7147 73.8637 89.8159 74.1899 89.7931 74.5195V76.2751H89.0467V74.6246C89.06 74.4458 89.0035 74.2687 88.8891 74.1305C88.8292 74.0695 88.7569 74.0219 88.6771 73.9911C88.5973 73.9603 88.5119 73.9469 88.4265 73.9518C88.2743 73.9558 88.1253 73.996 87.9919 74.0692C87.8584 74.1423 87.7443 74.2462 87.6591 74.3723V76.2751H86.9232V73.3526H87.6591V73.7521C87.7834 73.5953 87.9442 73.4712 88.1274 73.3906C88.3106 73.31 88.5107 73.2753 88.7103 73.2895C88.8582 73.2829 89.0058 73.3075 89.1435 73.3619C89.2812 73.4162 89.4058 73.499 89.5093 73.6049Z" fill="#231F20"/>
<path d="M95.3754 72.1646V76.2752H94.566V74.5721H92.7367V76.2752H91.9378V72.1646H92.7367V73.8677H94.566V72.1646H95.3754Z" fill="#231F20"/>
<path d="M99.0234 75.0136H96.8367C96.8434 75.1154 96.8711 75.2147 96.9182 75.3052C96.9652 75.3957 97.0306 75.4754 97.1101 75.5393C97.2803 75.6728 97.4932 75.74 97.7093 75.7285C97.8809 75.7279 98.0513 75.6995 98.2139 75.6444C98.3497 75.6029 98.4777 75.5389 98.5924 75.4552L98.8657 75.9808C98.5196 76.2361 98.0969 76.3659 97.6672 76.3488C97.3755 76.357 97.0863 76.2919 96.8262 76.1595C96.5924 76.0339 96.3991 75.8443 96.269 75.6129C96.1414 75.3736 96.0763 75.106 96.0798 74.8349C96.0732 74.5588 96.1423 74.2861 96.2795 74.0465C96.4017 73.8189 96.5882 73.6325 96.8157 73.5103C97.0517 73.3734 97.3209 73.3043 97.5936 73.3106C97.8598 73.3043 98.1222 73.3736 98.3506 73.5103C98.5668 73.6431 98.7387 73.837 98.8447 74.0675C98.9722 74.329 99.0336 74.6178 99.0234 74.9085V75.0136ZM98.2665 74.509C98.2552 74.3352 98.1759 74.1727 98.0457 74.057C97.9861 73.9991 97.9152 73.9543 97.8373 73.9254C97.7595 73.8964 97.6765 73.8839 97.5936 73.8888C97.4172 73.8832 97.245 73.9431 97.1101 74.057C96.9761 74.1739 96.887 74.3337 96.8578 74.509H98.2665Z" fill="#231F20"/>
<path d="M102.661 75.5708C102.747 75.6187 102.846 75.6405 102.945 75.6339V76.3067H102.882C102.335 76.3067 102.009 76.1595 101.935 75.8547C101.815 76.0076 101.66 76.1301 101.483 76.2121C101.302 76.2936 101.104 76.3331 100.905 76.3277C100.641 76.3324 100.38 76.2671 100.148 76.1385C99.928 76.0057 99.7467 75.8171 99.6226 75.5918C99.5052 75.3474 99.4442 75.0798 99.4442 74.8086C99.4442 74.5375 99.5052 74.2698 99.6226 74.0254C99.7439 73.8008 99.9261 73.615 100.148 73.4893C100.377 73.3525 100.639 73.2833 100.905 73.2895C101.074 73.2825 101.243 73.3106 101.4 73.3721C101.558 73.4337 101.7 73.5272 101.82 73.647V73.3526H102.556V75.3395C102.554 75.3836 102.563 75.4274 102.581 75.4676C102.599 75.5077 102.627 75.5431 102.661 75.5708ZM101.82 74.3934C101.749 74.259 101.639 74.1491 101.504 74.078C101.354 74.005 101.188 73.9689 101.021 73.9729C100.912 73.9687 100.804 73.9871 100.702 74.0269C100.601 74.0667 100.509 74.127 100.432 74.2041C100.283 74.3671 100.203 74.5824 100.211 74.8034C100.202 75.0309 100.281 75.2531 100.432 75.4236C100.509 75.4975 100.599 75.5552 100.699 75.5931C100.798 75.6311 100.904 75.6485 101.01 75.6444C101.179 75.6487 101.346 75.6088 101.494 75.5288C101.635 75.4638 101.75 75.3525 101.82 75.2134V74.3934Z" fill="#231F20"/>
<path d="M105.184 73.3421V74.0675H104.911C104.761 74.0601 104.612 74.0927 104.48 74.1621C104.363 74.2334 104.269 74.3352 104.206 74.4564V76.2752H103.47V73.3526H104.206V73.8152C104.273 73.6646 104.383 73.5367 104.522 73.4472C104.66 73.372 104.816 73.3357 104.974 73.3421H105.184Z" fill="#231F20"/>
<path d="M106.309 76.0649C106.201 75.9485 106.119 75.8105 106.068 75.6601C106.017 75.5097 105.999 75.3503 106.014 75.1923V73.9623H105.405V73.3421H106.014V72.438H106.761V73.3421H107.602V73.9623H106.761V75.0136C106.746 75.1747 106.791 75.3354 106.887 75.4657C106.935 75.5102 106.991 75.5444 107.052 75.5661C107.114 75.5878 107.179 75.5966 107.244 75.5918H107.602V76.2646H107.202C106.89 76.3134 106.571 76.242 106.309 76.0649Z" fill="#231F20"/>
<path d="M111.828 75.2764H110.272L109.925 76.2752H109.116L110.64 72.1646H111.513L113.068 76.2752H112.217L111.828 75.2764ZM111.618 74.6352L111.05 73.0267L110.493 74.6352H111.618Z" fill="#231F20"/>
<path d="M113.741 76.2121C113.541 76.1302 113.361 76.0045 113.216 75.8441L113.626 75.3921C113.728 75.5034 113.849 75.5959 113.983 75.6654C114.118 75.7271 114.265 75.7594 114.414 75.76C114.531 75.7683 114.648 75.7428 114.751 75.6864C114.788 75.6685 114.82 75.6402 114.843 75.6049C114.865 75.5695 114.877 75.5285 114.877 75.4867C114.879 75.439 114.868 75.3915 114.843 75.3503C114.819 75.3092 114.783 75.2761 114.74 75.2554C114.583 75.1745 114.417 75.1111 114.246 75.0662C114.004 75.002 113.778 74.8873 113.584 74.7298C113.508 74.6544 113.449 74.5639 113.411 74.4643C113.373 74.3646 113.357 74.2581 113.363 74.1516C113.357 74.0294 113.382 73.9077 113.435 73.7976C113.489 73.6875 113.569 73.5923 113.668 73.5208C113.904 73.3556 114.189 73.2742 114.477 73.2895C114.692 73.2842 114.906 73.3199 115.108 73.3947C115.273 73.4614 115.421 73.5657 115.539 73.6995L115.066 74.1306C115.015 74.0386 114.933 73.9677 114.835 73.9308C114.722 73.8708 114.595 73.8418 114.467 73.8467C114.368 73.8412 114.27 73.863 114.183 73.9098C114.151 73.9296 114.124 73.9575 114.106 73.9906C114.087 74.0238 114.078 74.0611 114.078 74.099C114.079 74.1545 114.101 74.2074 114.141 74.2462C114.203 74.292 114.27 74.3307 114.341 74.3618L114.751 74.509C114.985 74.568 115.202 74.6835 115.381 74.8454C115.456 74.9172 115.514 75.004 115.552 75.1001C115.59 75.1962 115.607 75.2994 115.602 75.4026C115.605 75.5315 115.579 75.6595 115.524 75.7762C115.469 75.893 115.388 75.9955 115.287 76.0754C115.033 76.2565 114.725 76.3456 114.414 76.3277C114.184 76.3359 113.955 76.2965 113.741 76.2121Z" fill="#231F20"/>
<path d="M116.464 76.2121C116.264 76.1302 116.084 76.0045 115.938 75.8441L116.359 75.3921C116.455 75.5054 116.573 75.5984 116.706 75.6654C116.841 75.7271 116.988 75.7593 117.137 75.76C117.254 75.7696 117.371 75.7439 117.473 75.6864C117.511 75.6685 117.543 75.6402 117.565 75.6049C117.588 75.5695 117.6 75.5285 117.6 75.4867C117.602 75.4389 117.591 75.3915 117.566 75.3503C117.542 75.3092 117.506 75.2761 117.463 75.2554C117.306 75.1745 117.14 75.1111 116.969 75.0662C116.727 75.002 116.501 74.8873 116.306 74.7298C116.229 74.6465 116.17 74.5483 116.132 74.4412C116.094 74.3341 116.079 74.2204 116.087 74.1071C116.094 73.9937 116.125 73.8833 116.178 73.7824C116.23 73.6816 116.302 73.5925 116.391 73.5208C116.628 73.357 116.912 73.2758 117.2 73.2895C117.415 73.2842 117.629 73.3198 117.831 73.3947C117.998 73.458 118.146 73.5629 118.262 73.6995L117.799 74.1305C117.741 74.0404 117.657 73.9706 117.557 73.9308C117.444 73.8708 117.317 73.8418 117.19 73.8467C117.091 73.8427 116.993 73.8645 116.906 73.9098C116.875 73.9301 116.849 73.9584 116.833 73.9916C116.816 74.0249 116.809 74.0619 116.811 74.099C116.809 74.1258 116.813 74.1527 116.822 74.1779C116.831 74.2032 116.845 74.2264 116.864 74.2462C116.926 74.2919 116.993 74.3307 117.063 74.3618L117.473 74.509C117.71 74.5706 117.929 74.6857 118.115 74.8454C118.186 74.9192 118.241 75.0067 118.277 75.1025C118.313 75.1982 118.329 75.3003 118.325 75.4026C118.328 75.5315 118.301 75.6594 118.247 75.7762C118.192 75.893 118.111 75.9954 118.01 76.0754C117.756 76.2565 117.448 76.3456 117.137 76.3277C116.907 76.3359 116.678 76.2965 116.464 76.2121Z" fill="#231F20"/>
<path d="M119.513 76.1385C119.275 76.0103 119.077 75.8186 118.942 75.5847C118.806 75.3509 118.738 75.084 118.745 74.8139C118.739 74.5378 118.808 74.2651 118.945 74.0254C119.08 73.7964 119.277 73.6104 119.513 73.4893C119.768 73.3583 120.051 73.29 120.338 73.29C120.625 73.29 120.908 73.3583 121.163 73.4893C121.4 73.6104 121.597 73.7964 121.731 74.0254C121.862 74.2658 121.93 74.535 121.93 74.8086C121.93 75.0822 121.862 75.3515 121.731 75.5918C121.594 75.8216 121.398 76.0104 121.163 76.1385C120.906 76.2632 120.624 76.3279 120.338 76.3279C120.052 76.3279 119.77 76.2632 119.513 76.1385ZM120.932 75.4131C121.01 75.3327 121.071 75.2371 121.111 75.1322C121.151 75.0273 121.169 74.9154 121.163 74.8034C121.17 74.6928 121.152 74.5821 121.112 74.4788C121.073 74.3754 121.011 74.2818 120.932 74.2041C120.856 74.126 120.764 74.0649 120.663 74.025C120.561 73.9851 120.452 73.9674 120.343 73.9728C120.233 73.9665 120.122 73.9839 120.019 74.0238C119.915 74.0636 119.822 74.1251 119.744 74.2041C119.667 74.2829 119.606 74.3768 119.567 74.4798C119.527 74.5829 119.508 74.693 119.513 74.8034C119.503 74.9153 119.518 75.0279 119.557 75.1335C119.595 75.2391 119.656 75.3351 119.735 75.415C119.813 75.4949 119.909 75.5568 120.014 75.5964C120.119 75.636 120.231 75.6524 120.343 75.6444C120.452 75.6499 120.561 75.6321 120.663 75.5922C120.764 75.5523 120.856 75.4913 120.932 75.4131Z" fill="#231F20"/>
<path d="M123.15 76.1385C122.915 76.0203 122.72 75.8333 122.593 75.6023C122.451 75.3679 122.379 75.0983 122.383 74.8244C122.38 74.5454 122.449 74.2704 122.583 74.0254C122.713 73.7968 122.906 73.6106 123.14 73.4893C123.384 73.3536 123.659 73.2847 123.939 73.2895C124.311 73.2777 124.678 73.3804 124.99 73.5839L124.685 74.1726C124.491 74.0363 124.26 73.9629 124.023 73.9623C123.911 73.9559 123.798 73.9731 123.693 74.0129C123.588 74.0528 123.493 74.1144 123.413 74.1936C123.335 74.276 123.274 74.3734 123.234 74.48C123.194 74.5867 123.176 74.7002 123.182 74.8139C123.176 74.9264 123.193 75.0389 123.233 75.1442C123.274 75.2495 123.335 75.3453 123.414 75.4254C123.493 75.5056 123.588 75.5683 123.693 75.6096C123.798 75.651 123.91 75.67 124.023 75.6654C124.267 75.6665 124.505 75.5931 124.706 75.4552L125.001 76.0334C124.852 76.1274 124.693 76.2049 124.527 76.2647C124.342 76.3099 124.151 76.3311 123.96 76.3277C123.678 76.3362 123.399 76.271 123.15 76.1385Z" fill="#231F20"/>
<path d="M125.61 72.7744C125.569 72.7331 125.537 72.6839 125.515 72.6296C125.493 72.5754 125.483 72.5174 125.484 72.459C125.483 72.3383 125.528 72.2217 125.61 72.1331C125.698 72.0481 125.814 71.9993 125.936 71.9965C126.057 71.9992 126.172 72.0491 126.256 72.1356C126.341 72.222 126.388 72.3381 126.388 72.459C126.386 72.5781 126.337 72.6915 126.253 72.7757C126.169 72.8599 126.055 72.9084 125.936 72.9111C125.875 72.912 125.815 72.9003 125.759 72.8767C125.703 72.8532 125.652 72.8184 125.61 72.7744ZM125.558 73.3526H126.304V76.2752H125.558V73.3526Z" fill="#231F20"/>
<path d="M130.162 75.5708C130.249 75.6186 130.347 75.6405 130.446 75.6339V76.3067H130.383C129.826 76.3067 129.511 76.1595 129.437 75.8546C129.316 76.0076 129.162 76.1301 128.985 76.2121C128.803 76.2936 128.606 76.3331 128.407 76.3277C128.142 76.3324 127.881 76.2671 127.65 76.1385C127.427 76.0086 127.245 75.8193 127.124 75.5918C127.007 75.3474 126.946 75.0798 126.946 74.8086C126.946 74.5375 127.007 74.2698 127.124 74.0254C127.242 73.7986 127.425 73.6121 127.65 73.4893C127.878 73.3525 128.141 73.2832 128.407 73.2895C128.575 73.2837 128.744 73.3124 128.901 73.3739C129.058 73.4353 129.201 73.5283 129.321 73.6469V73.3526H130.068V75.3395C130.065 75.3827 130.072 75.426 130.088 75.4661C130.105 75.5062 130.13 75.542 130.162 75.5708ZM129.321 74.3934C129.25 74.2589 129.14 74.149 129.006 74.078C128.855 74.005 128.69 73.9689 128.522 73.9728C128.414 73.9687 128.305 73.9871 128.204 74.0269C128.102 74.0667 128.01 74.127 127.934 74.2041C127.784 74.3671 127.705 74.5824 127.713 74.8034C127.704 75.0308 127.783 75.2531 127.934 75.4236C128.01 75.4975 128.101 75.5552 128.2 75.5931C128.3 75.631 128.406 75.6485 128.512 75.6444C128.68 75.6486 128.847 75.6088 128.995 75.5287C129.137 75.4638 129.252 75.3525 129.321 75.2134V74.3934Z" fill="#231F20"/>
<path d="M131.529 76.0649C131.423 75.947 131.343 75.8089 131.292 75.6589C131.241 75.5089 131.222 75.3501 131.235 75.1923V73.9623H130.625V73.3421H131.235V72.438H131.992V73.3421H132.843V73.9623H131.992V75.0136C131.977 75.1747 132.022 75.3354 132.118 75.4657C132.165 75.5102 132.222 75.5444 132.283 75.5661C132.345 75.5878 132.41 75.5966 132.475 75.5918H132.843V76.2646H132.444C132.124 76.3178 131.797 76.2463 131.529 76.0649Z" fill="#231F20"/>
<path d="M133.453 72.7744C133.41 72.7336 133.376 72.6847 133.353 72.6305C133.329 72.5764 133.317 72.5181 133.316 72.459C133.319 72.337 133.368 72.2206 133.453 72.1331C133.494 72.0904 133.542 72.0563 133.597 72.0328C133.651 72.0094 133.709 71.997 133.768 71.9965C133.891 71.9971 134.008 72.0462 134.094 72.1331C134.176 72.2217 134.221 72.3383 134.22 72.459C134.222 72.5174 134.211 72.5754 134.19 72.6296C134.168 72.6839 134.135 72.7331 134.094 72.7744C134.053 72.8195 134.002 72.855 133.946 72.8786C133.89 72.9022 133.829 72.9133 133.768 72.9111C133.709 72.9132 133.65 72.902 133.595 72.8784C133.54 72.8547 133.492 72.8192 133.453 72.7744ZM133.453 73.3526H134.189V76.2752H133.453V73.3526Z" fill="#231F20"/>
<path d="M135.545 76.1385C135.307 76.0103 135.109 75.8186 134.974 75.5847C134.838 75.3509 134.77 75.084 134.777 74.8139C134.771 74.5378 134.84 74.2651 134.977 74.0254C135.112 73.7964 135.309 73.6104 135.545 73.4893C135.8 73.3583 136.083 73.29 136.37 73.29C136.657 73.29 136.94 73.3583 137.195 73.4893C137.432 73.6104 137.629 73.7964 137.763 74.0254C137.894 74.2658 137.962 74.535 137.962 74.8086C137.962 75.0822 137.894 75.3515 137.763 75.5918C137.626 75.8216 137.43 76.0104 137.195 76.1385C136.938 76.2632 136.656 76.3279 136.37 76.3279C136.084 76.3279 135.802 76.2632 135.545 76.1385ZM136.964 75.4131C137.042 75.3327 137.103 75.2371 137.143 75.1322C137.183 75.0273 137.201 74.9154 137.195 74.8034C137.202 74.6928 137.184 74.5821 137.144 74.4788C137.105 74.3754 137.043 74.2818 136.964 74.2041C136.888 74.126 136.796 74.0649 136.695 74.025C136.593 73.9851 136.484 73.9674 136.375 73.9728C136.265 73.9665 136.154 73.9839 136.051 74.0238C135.947 74.0636 135.854 74.1251 135.776 74.2041C135.699 74.2829 135.638 74.3768 135.599 74.4798C135.559 74.5829 135.541 74.693 135.545 74.8034C135.535 74.9153 135.55 75.0279 135.589 75.1335C135.627 75.2391 135.688 75.3351 135.767 75.415C135.845 75.4949 135.941 75.5568 136.046 75.5964C136.151 75.636 136.263 75.6524 136.375 75.6444C136.484 75.6499 136.593 75.6321 136.695 75.5922C136.796 75.5523 136.888 75.4913 136.964 75.4131Z" fill="#231F20"/>
<path d="M141.19 73.6049C141.396 73.8637 141.497 74.1899 141.474 74.5195V76.2752H140.728V74.6246C140.741 74.4458 140.684 74.2687 140.57 74.1305C140.512 74.0697 140.442 74.0222 140.364 73.9914C140.286 73.9605 140.202 73.947 140.118 73.9518C139.966 73.955 139.816 73.9948 139.683 74.068C139.549 74.1412 139.435 74.2456 139.351 74.3723V76.2752H138.615V73.3526H139.351V73.7521C139.468 73.6015 139.621 73.481 139.794 73.4006C139.968 73.3201 140.158 73.2821 140.349 73.2895C140.504 73.2767 140.66 73.2983 140.805 73.3529C140.951 73.4074 141.082 73.4935 141.19 73.6049Z" fill="#231F20"/>
<path d="M143.177 76.2226C143.105 76.2961 143.013 76.3464 142.912 76.3669C142.811 76.3874 142.706 76.3772 142.611 76.3376C142.516 76.298 142.435 76.2308 142.378 76.1447C142.322 76.0587 142.293 75.9576 142.294 75.8546C142.292 75.783 142.307 75.7119 142.336 75.6465C142.365 75.581 142.408 75.5229 142.462 75.4762C142.507 75.4306 142.562 75.3949 142.621 75.3713C142.681 75.3478 142.745 75.337 142.809 75.3395C142.946 75.3387 143.078 75.3915 143.177 75.4867C143.226 75.5341 143.265 75.5915 143.29 75.6549C143.316 75.7183 143.327 75.7864 143.324 75.8546C143.328 75.923 143.317 75.9912 143.291 76.0548C143.266 76.1183 143.227 76.1755 143.177 76.2226ZM142.504 75.5498C142.43 75.634 142.389 75.7423 142.389 75.8546C142.388 75.9113 142.399 75.9676 142.421 76.02C142.442 76.0724 142.474 76.1198 142.515 76.1595C142.553 76.1997 142.598 76.2317 142.649 76.2534C142.7 76.2751 142.754 76.2861 142.809 76.2857C142.924 76.2857 143.033 76.2403 143.114 76.1594C143.195 76.0786 143.24 75.969 143.24 75.8546C143.239 75.7405 143.194 75.6313 143.114 75.5498C143.074 75.5097 143.027 75.478 142.974 75.4563C142.922 75.4346 142.866 75.4234 142.809 75.4234C142.753 75.4234 142.697 75.4346 142.644 75.4563C142.592 75.478 142.544 75.5097 142.504 75.5498ZM142.588 76.1385V75.5708H142.862C142.9 75.56 142.94 75.56 142.977 75.5708C143.002 75.5834 143.022 75.6032 143.036 75.6277C143.049 75.6521 143.054 75.6799 143.051 75.7075C143.059 75.724 143.062 75.7419 143.062 75.76C143.062 75.7782 143.059 75.7961 143.051 75.8126C143.021 75.8249 142.987 75.8249 142.956 75.8126H143.041C143.059 75.8563 143.059 75.9055 143.041 75.9493V76.0334H142.904C142.898 76.0092 142.898 75.9839 142.904 75.9598C142.906 75.9353 142.906 75.9106 142.904 75.8862H142.788V76.0859L142.588 76.1385ZM142.862 75.6759H142.736V75.8441H142.799C142.799 75.8441 142.862 75.8441 142.872 75.8441C142.878 75.8345 142.881 75.8237 142.881 75.8126C142.881 75.8015 142.878 75.7906 142.872 75.781C142.878 75.7696 142.881 75.757 142.881 75.7443C142.881 75.7315 142.878 75.7189 142.872 75.7075" fill="#231F20"/>
<defs>
<linearGradient id="paint0_linear_0_6705" x1="34.0962" y1="49.6675" x2="51.5895" y2="49.6675" gradientUnits="userSpaceOnUse">
<stop stop-color="#7B1418"/>
<stop offset="1" stop-color="#CE242A"/>
</linearGradient>
</defs>
</svg>
