<svg width="172" height="69" viewBox="0 0 172 69" fill="none" xmlns="http://www.w3.org/2000/svg">
<path fill-rule="evenodd" clip-rule="evenodd" d="M56.554 34.666C56.504 19.5959 44.9014 8.38697 30.4195 8.27295C15.4588 8.41068 4.5864 20.2754 4.30641 33.6015C3.98912 48.6894 15.5763 60.2449 29.7626 60.5214C45.3153 60.8244 56.5995 48.4802 56.554 34.666ZM25.7132 38.3515C25.4477 38.3514 25.1821 38.3512 24.9167 38.3512C24.6262 38.3506 24.3361 38.3514 24.0457 38.3519C23.5231 38.3528 23.0005 38.3536 22.478 38.348C21.3504 38.3358 20.9731 37.703 21.5478 36.6814C22.0999 35.6992 22.6841 34.7355 23.2684 33.7717C23.4956 33.397 23.7228 33.0223 23.9481 32.6465C26.6143 28.1967 29.2826 23.7481 31.953 19.3009C32.4386 18.6206 33.3009 18.3212 34.1036 18.5544C34.4189 18.6693 34.3708 18.8888 34.3262 19.0928C34.3176 19.132 34.3091 19.1706 34.3034 19.2078C34.0654 20.7545 33.8164 22.2994 33.5565 23.8424L33.5252 24.0283C33.2034 25.9374 32.8816 27.8463 32.5304 29.75C32.4087 30.4108 32.7518 30.4774 33.2567 30.4746C34.8827 30.463 36.5087 30.463 38.1347 30.4746C39.5478 30.485 39.9258 31.1367 39.2054 32.3421C35.7375 38.1371 32.2678 43.931 28.7964 49.724C28.5227 50.1811 27.1984 50.5109 26.7141 50.2519C26.4769 50.1248 26.5177 49.9396 26.5586 49.7537C26.5668 49.7166 26.5749 49.6794 26.5809 49.6427C26.9554 47.3254 27.3311 45.0083 27.7082 42.6915C27.7581 42.3852 27.8071 42.0788 27.8561 41.7723C28.0038 40.8489 28.1516 39.9254 28.3226 39.006C28.4261 38.4492 28.1479 38.3487 27.7037 38.3501C27.0402 38.3524 26.3767 38.3519 25.7132 38.3515Z" fill="#1D60E6"/>
<path d="M125.219 35.8731C124.749 37.0965 124.276 38.3292 123.798 39.5751C123.731 39.4356 123.672 39.3176 123.619 39.2121C123.523 39.0204 123.448 38.8715 123.388 38.717C120.977 32.5496 118.578 26.3775 116.191 20.2005C116.07 19.7106 115.605 19.3864 115.103 19.4429C112.664 19.4687 110.224 19.4648 107.784 19.446C107.163 19.4415 106.907 19.6454 106.908 20.302C106.923 29.6517 106.922 39.0012 106.907 48.3506C106.906 48.9524 107.14 49.0668 107.679 49.0591C109.596 49.0319 111.514 49.0148 113.43 49.0654C114.162 49.0849 114.357 48.8607 114.352 48.14C114.324 43.912 114.324 39.6837 114.325 35.4555C114.325 34.6025 114.325 33.7495 114.325 32.8966C114.325 32.8451 114.322 32.7926 114.318 32.7394C114.304 32.5074 114.289 32.2629 114.539 32.0388C114.629 32.2942 114.719 32.5468 114.808 32.7974C115.02 33.3942 115.228 33.9801 115.432 34.5678C115.728 35.4233 116.025 36.2788 116.321 37.1343C117.587 40.7845 118.853 44.4347 120.102 48.0905C120.334 48.7697 120.62 49.1198 121.437 49.0731C122.942 48.9866 124.457 49.0106 125.966 49.0654C126.644 49.0898 126.981 48.9057 127.207 48.2341C128.237 45.1751 129.295 42.126 130.353 39.0769C130.632 38.2745 130.91 37.4721 131.188 36.6696C131.553 35.6161 131.922 34.5641 132.291 33.5121C132.46 33.0297 132.629 32.5472 132.798 32.0646C132.931 32.3041 132.995 32.5761 132.981 32.8498C132.981 33.9597 132.982 35.0696 132.982 36.1795C132.984 40.1508 132.985 44.1222 132.958 48.0933C132.953 48.8673 133.18 49.0873 133.945 49.0657C135.832 49.0124 137.721 49.0235 139.608 49.0619C140.249 49.0748 140.457 48.8963 140.456 48.2345C140.437 38.943 140.437 29.6514 140.455 20.3599C140.456 19.689 140.272 19.4331 139.576 19.4415C137.137 19.4722 134.697 19.4659 132.257 19.445C131.786 19.3782 131.338 19.6733 131.214 20.1329C130.352 22.4655 129.465 24.7898 128.577 27.1134C127.467 30.0159 126.353 32.9174 125.219 35.8731Z" fill="#1D60E6"/>
<path fill-rule="evenodd" clip-rule="evenodd" d="M90.3587 19.4594C90.025 19.4565 89.6912 19.4537 89.3576 19.4537C89.0208 19.4537 88.6839 19.4554 88.3471 19.4571C87.5224 19.4612 86.6978 19.4654 85.8736 19.4446C85.4033 19.3669 84.9531 19.6666 84.8433 20.1305C83.4162 24.0567 81.9711 27.9766 80.526 31.8966C80.1414 32.9398 79.7568 33.983 79.3726 35.0263C79.0346 35.9437 78.6969 36.8613 78.3593 37.7788C77.0699 41.2822 75.7806 44.7855 74.4764 48.2833C74.2697 48.837 74.2868 49.0668 74.9646 49.0584C77.1134 49.0282 79.2618 49.0294 81.4099 49.0619C81.9339 49.0696 82.1065 48.8262 82.246 48.4018C82.439 47.8141 82.6397 47.2288 82.8404 46.6436C83.0993 45.8883 83.3582 45.1331 83.6006 44.3729C83.6795 43.9027 84.1164 43.5794 84.5891 43.6414C87.6958 43.6672 90.8024 43.6675 93.9089 43.6424C94.4099 43.5647 94.8804 43.9037 94.9654 44.4036C95.167 45.0597 95.3937 45.708 95.6204 46.3564C95.8423 46.9908 96.0641 47.6252 96.2625 48.2669C96.4427 48.8495 96.7011 49.0821 97.35 49.0664C98.7938 49.031 100.239 49.0371 101.684 49.0433C102.271 49.0457 102.859 49.0482 103.447 49.0479C104.442 49.0476 104.453 49.042 104.11 48.1145C103.405 46.2036 102.696 44.2937 101.988 42.3838C101.099 39.9851 100.209 37.5863 99.3245 35.1856C97.4877 30.1963 95.6577 25.2044 93.8346 20.21C93.7294 19.7113 93.2593 19.3768 92.7537 19.4408C91.9566 19.473 91.1577 19.4662 90.3587 19.4594ZM90.119 37.9831C89.8447 37.9848 89.5704 37.9865 89.2962 37.9865C89.0218 37.9864 88.7473 37.9851 88.4728 37.9838C87.7897 37.9805 87.1066 37.9771 86.4239 37.9928C85.9378 38.004 85.798 37.8582 85.9643 37.3791C86.9852 34.4314 87.9999 31.4817 89.0082 28.5301C89.0163 28.5066 89.024 28.4823 89.0318 28.4578C89.0802 28.3046 89.1308 28.1448 89.2907 28.134C89.5103 28.1193 89.5296 28.2759 89.5484 28.4284C89.5551 28.4827 89.5617 28.5364 89.5773 28.5817C89.9068 29.5418 90.2353 30.5022 90.5638 31.4626C91.2349 33.4247 91.906 35.3869 92.586 37.346C92.7719 37.8805 92.5979 38.0095 92.0822 37.9942C91.4281 37.9748 90.7735 37.9789 90.119 37.9831Z" fill="#1D60E6"/>
<path fill-rule="evenodd" clip-rule="evenodd" d="M145.114 30.7515C145.113 31.9045 145.112 33.0574 145.112 34.2104C145.112 35.3252 145.113 36.4399 145.114 37.5547C145.116 41.1124 145.118 44.67 145.099 48.2275C145.096 48.8583 145.24 49.0821 145.915 49.0654C147.832 49.0168 149.748 49.0166 151.662 49.0647C152.363 49.0825 152.551 48.859 152.543 48.1825C152.529 46.897 152.531 45.6112 152.533 44.3254C152.535 42.738 152.537 41.1506 152.51 39.5636C152.497 38.8335 152.739 38.7058 153.39 38.7233C154.869 38.7627 156.355 38.7979 157.83 38.7059C160.171 38.5594 162.425 38.0301 164.305 36.5196C167.113 34.263 167.96 31.2804 167.634 27.7721C167.147 22.5252 163.278 19.6629 158.515 19.4014C155.949 19.2605 153.38 19.277 150.811 19.2936C149.229 19.3037 147.647 19.3139 146.066 19.2874C145.286 19.2741 145.091 19.5266 145.096 20.28C145.12 23.7704 145.117 27.261 145.114 30.7515ZM152.534 29.9405C152.532 29.6375 152.53 29.3345 152.53 29.0315C152.53 28.6932 152.53 28.3549 152.53 28.0166C152.531 27.3103 152.531 26.6039 152.528 25.8976C152.528 25.8755 152.527 25.8533 152.527 25.8313C152.523 25.5554 152.519 25.2936 152.937 25.3146C153.482 25.3419 154.029 25.3291 154.576 25.3163C155.621 25.2919 156.667 25.2675 157.702 25.5227C159.02 25.8082 159.997 26.9209 160.109 28.2647C160.386 31.2292 159.188 32.6078 156.126 32.7871C155.585 32.8188 155.041 32.8132 154.497 32.8077C154.053 32.8031 153.61 32.7986 153.167 32.8143C152.667 32.832 152.507 32.6563 152.521 32.165C152.542 31.4239 152.538 30.6822 152.534 29.9405Z" fill="#1D60E6"/>
</svg>
