<svg width="231" height="52" viewBox="0 0 231 52" fill="none" xmlns="http://www.w3.org/2000/svg">
<path d="M52.5705 7.30185C54.9506 4.91964 56.4626 4.27778 59.7495 4.27778H74.564C75.7724 4.27778 76.0373 5.37411 75.3179 6.09136L50.5696 30.8418C50.1905 31.2209 50.0397 31.2941 49.8114 31.3717C49.736 31.4105 49.624 31.4105 49.5486 31.4105C49.4732 31.4105 49.3591 31.4105 49.2837 31.3717C49.0554 31.2963 48.9046 31.2209 48.5277 30.8418L39.7979 22.1142C39.421 21.7351 39.3456 21.5844 39.2702 21.3582C39.2314 21.2828 39.2314 21.1687 39.2314 21.0933C39.2314 21.0179 39.2314 20.9037 39.2702 20.8283C39.3456 20.6022 39.421 20.4514 39.7979 20.0745L52.5705 7.30185ZM30.9562 22.9069C28.5761 20.5268 27.0253 19.9216 23.7406 19.9216H8.96269C7.7522 19.9216 7.48727 21.0179 8.20667 21.7351L32.955 46.4878C33.3341 46.8647 33.4848 46.9401 33.7132 47.0155C33.7978 47.0468 33.888 47.06 33.9781 47.0542C34.0535 47.0542 34.1655 47.0542 34.2409 47.0155C34.467 46.9401 34.6199 46.8647 34.9969 46.4878L43.7266 37.7214C44.1036 37.3423 44.179 37.1915 44.2543 36.9654C44.2856 36.8807 44.2988 36.7905 44.2931 36.7004C44.2931 36.625 44.2931 36.5109 44.2543 36.4355C44.179 36.2093 44.1036 36.0586 43.7266 35.6795L30.954 22.9069H30.9562Z" fill="#08CF65"/>
<path d="M160.877 14.4442C162 14.4442 163.076 13.9983 163.87 13.2045C164.664 12.4108 165.11 11.3343 165.11 10.2118C165.11 9.08926 164.664 8.01272 163.87 7.21899C163.076 6.42526 162 5.97935 160.877 5.97935C159.755 5.97935 158.678 6.42526 157.885 7.21899C157.091 8.01272 156.645 9.08926 156.645 10.2118C156.645 11.3343 157.091 12.4108 157.885 13.2045C158.678 13.9983 159.755 14.4442 160.877 14.4442ZM164.278 17.843H157.476V41.6113H164.278V17.843ZM143.004 41.6113V30.9215C143.004 24.4598 148.71 24.5718 151.695 25.0629V17.7676C146.935 17.3519 144.101 18.6744 142.815 21.244H142.664L142.701 17.8818H136.088V41.6135H143.002L143.004 41.6113ZM94.143 41.6113H99.4717L107.635 26.3466L115.531 41.6113H120.935L133.066 17.843H125.017L117.573 32.9957L110.506 17.843H104.725L97.2812 33.0711L90.2143 17.843H82.1652L94.143 41.6113ZM171.798 41.6113H176.105L183.209 32.6554L189.218 41.6113H197.231L187.782 27.8565L196.057 17.843H188.085L178.638 29.7843H178.488L178.563 5.97935H171.8V41.6135L171.798 41.6113ZM211.059 36.5109C213.969 36.5109 215.707 34.9601 216.538 33.7151L221.753 37.3057C219.638 40.0627 216.349 42.2166 210.908 42.2166C203.615 42.2166 198.174 36.737 198.174 29.823C198.174 22.8702 203.729 17.4273 210.908 17.4273C218.238 17.4273 223.19 22.9456 223.19 29.823V31.712H204.709C205.239 34.5465 207.66 36.5109 211.059 36.5109ZM216.616 26.9885C215.858 24.4943 213.665 22.7561 210.531 22.7561C207.318 22.7561 205.164 24.4943 204.408 26.9885H216.614H216.616Z" fill="#181F38"/>
</svg>
