<svg  viewBox="20 16 50 50" fill="none" xmlns="http://www.w3.org/2000/svg"><defs>
<clipPath id="clip0_0_3268">
<rect width="100" height="25.8216" fill="white" transform="translate(20 28)"/>
</clipPath>
<clipPath id="clip1_0_3268">
<rect width="100" height="25.8216" fill="white" transform="translate(129 28)"/>
</clipPath>
</defs><g clip-path="url(#clip0_0_3268)">
<path d="M39.5906 29.0691C37.8461 29.0691 35.9773 30.4118 34.4762 33.5752L32.5471 28.9463H32.424C32.1042 29.6831 31.1183 30.0768 30.1831 30.0768H20.0371V30.273C20.8492 30.6174 21.5636 31.796 22.2285 33.3937L28.5336 48.627H28.7303L32.828 38.7113L36.9311 48.627H37.1278L40.6249 39.9286C41.9787 36.5129 42.8657 34.6216 42.8657 32.9265C42.8657 30.6654 41.6108 29.0691 39.5906 29.0691ZM30.1323 43.3588L26.0453 33.4176C25.3804 31.796 25.9958 30.6414 27.6707 30.6414C29.1477 30.6414 29.8875 31.6238 30.6259 33.3937L32.432 37.7556L30.1323 43.3588ZM39.9359 39.6336L38.5097 43.2506L34.721 34.1611C35.6495 32.8197 36.8508 32.3112 38.2354 32.3112C39.885 32.3112 40.871 33.4417 40.871 35.4812C40.871 36.6117 40.5753 38.0132 39.9359 39.6336Z" fill="black"/>
<path d="M92.9336 38.9219C92.9336 36.9077 90.8651 35.4329 88.2298 35.4329C84.2402 35.4329 81.5312 38.8725 81.5312 42.4843C81.5312 46.4151 84.5359 48.7749 87.5153 48.7749C89.9045 48.7749 92.219 47.3253 92.9336 44.7947L92.7608 44.6479C91.9486 45.8518 90.5444 46.5152 89.1406 46.5152C87.2932 46.5152 85.7909 45.4581 85.0777 43.5667C88.8946 42.9515 92.9336 41.9184 92.9336 38.9219ZM84.9054 42.9754C84.758 42.3856 84.6834 41.7476 84.6834 41.0842C84.6834 37.8901 86.0369 36.0962 87.712 36.0962C89.0176 36.0962 89.4111 37.2014 89.4111 38.3813C89.4111 40.8372 87.1956 42.4843 84.9054 42.9754Z" fill="black"/>
<path d="M117.24 35.0634C115.542 35.0634 113.915 36.6611 112.913 38.8166L111.231 35.2836H111.034C110.714 36.4875 109.212 37.1749 107.561 37.1509V37.3471C108.595 37.5927 109.038 38.575 109.678 39.8778L114.037 48.8458L113.741 49.3864C112.805 51.2297 112.166 51.893 111.5 51.893C110.294 51.893 110.195 50.1485 108.742 50.1485C107.88 50.1485 107.166 50.7385 107.166 51.7703C107.166 52.9248 108.446 53.6615 109.776 53.6615C111.721 53.6615 112.928 52.1386 114.234 49.6814L117.608 43.3908C118.962 40.8601 119.701 39.755 119.701 37.8623C119.703 36.342 118.816 35.0634 117.24 35.0634ZM117.018 43.0744L115.934 45.1633L113.153 39.3239C113.685 38.3802 114.622 37.6194 116.008 37.6194C117.314 37.6194 118.002 38.4296 118.002 39.7577C118.004 40.6666 117.683 41.7958 117.018 43.0744Z" fill="black"/>
<path d="M56.6071 45.8507V38.2587C56.6071 36.5635 55.5475 35.433 53.9716 35.433C52.0759 35.433 49.6866 37.1535 48.4062 38.4055V28.16H48.2337C47.4698 29.364 45.5005 30.1007 43.6035 30.0514V30.2476C44.6872 30.5425 45.0068 31.3047 45.0068 32.7782V45.8493C45.0068 46.9545 44.5145 47.8394 43.6276 48.2078V48.404H49.8337V48.2078C48.9227 47.6913 48.405 46.9545 48.405 45.8987V39.0435C49.8578 37.9864 50.9668 37.4712 51.7789 37.4712C52.69 37.4712 53.2078 38.1345 53.2078 39.4853V45.8987C53.2078 46.9558 52.7395 47.6672 51.7789 48.2078V48.404H57.9851V48.2078C57.0994 47.8407 56.6071 46.9558 56.6071 45.8507Z" fill="black"/>
<path d="M102.709 35.433C100.937 35.433 99.2361 36.7358 98.3009 37.7421V28.16H98.1539C97.2671 29.364 95.2229 30.1008 93.4004 30.0514V30.2476C94.4107 30.5425 94.8774 31.3287 94.8774 32.7782V48.6509H95.0995L96.7253 46.833C97.4394 47.9636 98.7934 48.6509 100.419 48.6509C104.507 48.6509 107.314 45.162 107.314 41.354C107.314 37.8649 105.122 35.433 102.709 35.433ZM100.32 47.9876C99.1131 47.9876 98.3009 47.0052 98.3009 45.6532V38.4295C99.1131 37.7168 100.026 37.0534 101.034 37.0788C102.759 37.1028 103.743 39.0448 103.768 42.0173C103.793 45.3835 102.414 47.9876 100.32 47.9876Z" fill="black"/>
<path d="M79.6086 35.4329C78.2546 35.4329 76.7767 36.8825 76.0875 38.2586V35.2861H75.8908C75.0532 36.4901 73.0828 37.2028 71.2363 37.1775V37.3737C72.2467 37.6687 72.7391 38.4789 72.7391 39.9044V45.7518C72.7391 46.8823 72.2467 47.7659 71.2621 48.209V48.4053H77.6152V48.209C76.6053 47.7673 76.1626 46.8823 76.1626 45.7518V38.8726C76.5316 38.4054 76.9504 37.9143 77.4429 37.9143C78.3537 37.9143 78.7232 39.0194 79.856 39.0194C80.6443 39.0194 81.4575 38.3801 81.4575 37.299C81.4546 36.2191 80.5931 35.4329 79.6086 35.4329Z" fill="black"/>
<path d="M70.1036 38.9219C70.1036 36.9077 68.035 35.4329 65.3997 35.4329C61.4102 35.4329 58.7012 38.8725 58.7012 42.4843C58.7012 46.4151 61.7059 48.7749 64.6853 48.7749C67.0745 48.7749 69.389 47.3253 70.1036 44.7947L69.9308 44.6479C69.1191 45.8518 67.7139 46.5152 66.3107 46.5152C64.4631 46.5152 62.9608 45.4581 62.2478 43.5667C66.0646 42.9515 70.1036 41.9184 70.1036 38.9219ZM62.0753 42.9754C61.928 42.3856 61.8531 41.7476 61.8531 41.0842C61.8531 37.8901 63.207 36.0962 64.882 36.0962C66.1877 36.0962 66.6064 37.2014 66.6064 38.3813C66.6064 40.8372 64.3656 42.4843 62.0753 42.9754Z" fill="black"/>
</g><g clip-path="url(#clip1_0_3268)">
<path d="M148.591 29.0691C146.846 29.0691 144.977 30.4118 143.476 33.5752L141.547 28.9463H141.424C141.104 29.6831 140.118 30.0768 139.183 30.0768H129.037V30.273C129.849 30.6174 130.564 31.796 131.228 33.3937L137.534 48.627H137.73L141.828 38.7113L145.931 48.627H146.128L149.625 39.9286C150.979 36.5129 151.866 34.6216 151.866 32.9265C151.866 30.6654 150.611 29.0691 148.591 29.0691ZM139.132 43.3588L135.045 33.4176C134.38 31.796 134.996 30.6414 136.671 30.6414C138.148 30.6414 138.887 31.6238 139.626 33.3937L141.432 37.7556L139.132 43.3588ZM148.936 39.6336L147.51 43.2506L143.721 34.1611C144.65 32.8197 145.851 32.3112 147.235 32.3112C148.885 32.3112 149.871 33.4417 149.871 35.4812C149.871 36.6117 149.575 38.0132 148.936 39.6336Z" fill="black"/>
<path d="M201.934 38.9219C201.934 36.9077 199.865 35.4329 197.23 35.4329C193.24 35.4329 190.531 38.8725 190.531 42.4843C190.531 46.4151 193.536 48.7749 196.515 48.7749C198.904 48.7749 201.219 47.3253 201.934 44.7947L201.761 44.6479C200.949 45.8518 199.544 46.5152 198.141 46.5152C196.293 46.5152 194.791 45.4581 194.078 43.5667C197.895 42.9515 201.934 41.9184 201.934 38.9219ZM193.905 42.9754C193.758 42.3856 193.683 41.7476 193.683 41.0842C193.683 37.8901 195.037 36.0962 196.712 36.0962C198.018 36.0962 198.411 37.2014 198.411 38.3813C198.411 40.8372 196.196 42.4843 193.905 42.9754Z" fill="black"/>
<path d="M226.24 35.0634C224.542 35.0634 222.915 36.6611 221.913 38.8166L220.231 35.2836H220.034C219.714 36.4875 218.212 37.1749 216.561 37.1509V37.3471C217.595 37.5927 218.038 38.575 218.678 39.8778L223.037 48.8458L222.741 49.3864C221.805 51.2297 221.166 51.893 220.5 51.893C219.294 51.893 219.195 50.1485 217.742 50.1485C216.88 50.1485 216.166 50.7385 216.166 51.7703C216.166 52.9248 217.446 53.6615 218.776 53.6615C220.721 53.6615 221.928 52.1386 223.234 49.6814L226.608 43.3908C227.962 40.8601 228.701 39.755 228.701 37.8623C228.703 36.342 227.816 35.0634 226.24 35.0634ZM226.018 43.0744L224.934 45.1633L222.153 39.3239C222.685 38.3802 223.622 37.6194 225.008 37.6194C226.314 37.6194 227.002 38.4296 227.002 39.7577C227.004 40.6666 226.683 41.7958 226.018 43.0744Z" fill="black"/>
<path d="M165.607 45.8507V38.2587C165.607 36.5635 164.548 35.433 162.972 35.433C161.076 35.433 158.687 37.1535 157.406 38.4055V28.16H157.234C156.47 29.364 154.501 30.1007 152.603 30.0514V30.2476C153.687 30.5425 154.007 31.3047 154.007 32.7782V45.8493C154.007 46.9545 153.514 47.8394 152.628 48.2078V48.404H158.834V48.2078C157.923 47.6913 157.405 46.9545 157.405 45.8987V39.0435C158.858 37.9864 159.967 37.4712 160.779 37.4712C161.69 37.4712 162.208 38.1345 162.208 39.4853V45.8987C162.208 46.9558 161.74 47.6672 160.779 48.2078V48.404H166.985V48.2078C166.099 47.8407 165.607 46.9558 165.607 45.8507Z" fill="black"/>
<path d="M211.709 35.433C209.937 35.433 208.236 36.7358 207.301 37.7421V28.16H207.154C206.267 29.364 204.223 30.1008 202.4 30.0514V30.2476C203.411 30.5425 203.877 31.3287 203.877 32.7782V48.6509H204.099L205.725 46.833C206.439 47.9636 207.793 48.6509 209.419 48.6509C213.507 48.6509 216.314 45.162 216.314 41.354C216.314 37.8649 214.122 35.433 211.709 35.433ZM209.32 47.9876C208.113 47.9876 207.301 47.0052 207.301 45.6532V38.4295C208.113 37.7168 209.026 37.0534 210.034 37.0788C211.759 37.1028 212.743 39.0448 212.768 42.0173C212.793 45.3835 211.414 47.9876 209.32 47.9876Z" fill="black"/>
<path d="M188.609 35.4329C187.255 35.4329 185.777 36.8825 185.088 38.2586V35.2861H184.891C184.053 36.4901 182.083 37.2028 180.236 37.1775V37.3737C181.247 37.6687 181.739 38.4789 181.739 39.9044V45.7518C181.739 46.8823 181.247 47.7659 180.262 48.209V48.4053H186.615V48.209C185.605 47.7673 185.163 46.8823 185.163 45.7518V38.8726C185.532 38.4054 185.95 37.9143 186.443 37.9143C187.354 37.9143 187.723 39.0194 188.856 39.0194C189.644 39.0194 190.457 38.3801 190.457 37.299C190.455 36.2191 189.593 35.4329 188.609 35.4329Z" fill="black"/>
<path d="M179.104 38.9219C179.104 36.9077 177.035 35.4329 174.4 35.4329C170.41 35.4329 167.701 38.8725 167.701 42.4843C167.701 46.4151 170.706 48.7749 173.685 48.7749C176.074 48.7749 178.389 47.3253 179.104 44.7947L178.931 44.6479C178.119 45.8518 176.714 46.5152 175.311 46.5152C173.463 46.5152 171.961 45.4581 171.248 43.5667C175.065 42.9515 179.104 41.9184 179.104 38.9219ZM171.075 42.9754C170.928 42.3856 170.853 41.7476 170.853 41.0842C170.853 37.8901 172.207 36.0962 173.882 36.0962C175.188 36.0962 175.606 37.2014 175.606 38.3813C175.606 40.8372 173.366 42.4843 171.075 42.9754Z" fill="black"/>
</g></svg>