<svg width="48" height="48" viewBox="0 0 48 48" fill="none" xmlns="http://www.w3.org/2000/svg">
<circle cx="24" cy="24" r="21" fill="#0769AD"/>
<path d="M33.986 20.1317C35.8714 20.1317 37.5978 19.5029 38.9325 18.46C37.5469 20.2857 35.2511 21.4795 32.6534 21.4795C28.4216 21.4795 24.991 18.3116 24.991 14.4038C24.991 12.2371 26.0457 10.2979 27.7068 9C26.8351 10.1485 26.3236 11.5472 26.3236 13.0561C26.3236 16.9639 29.7542 20.1317 33.986 20.1317Z" fill="#78CFF5"/>
<path d="M38.8595 24.9879C36.8268 26.5825 34.1953 27.5442 31.3208 27.5442C24.8811 27.5442 19.6607 22.717 19.6607 16.7624C19.6607 14.4528 20.446 12.3129 21.7832 10.5584C19.2619 12.5361 17.6618 15.4873 17.6618 18.784C17.6618 24.7386 22.8822 29.5658 29.3219 29.5658C33.2639 29.5658 36.7491 27.757 38.8595 24.9879Z" fill="#78CFF5"/>
<path d="M39 31.1551C36.1034 33.9193 32.0906 35.6307 27.6562 35.6307C18.8246 35.6307 11.6652 28.8424 11.6652 20.4686C11.6652 17.8152 12.384 15.321 13.6472 13.1515C10.7748 15.8925 9 19.6687 9 23.838C9 32.2117 16.1594 39 24.991 39C31.0241 39 36.2769 35.8322 39 31.1551Z" fill="#78CFF5"/>
</svg>
