<svg width="147" height="81" viewBox="0 0 147 81" fill="none" xmlns="http://www.w3.org/2000/svg">
<path d="M5.67736 8.05151L7.52498 6.20388C10.356 3.40264 14.9751 3.58144 17.5677 6.59129L43.1365 36.3917C45.3715 38.9843 45.3417 42.8286 43.0769 45.3914L17.5975 74.268C14.9751 77.2183 10.4156 77.3673 7.61439 74.566L5.76676 72.7184C3.26352 70.2152 3.08472 66.2219 5.34955 63.4803L20.6074 45.1828C22.6934 42.6796 22.7232 39.0737 20.6968 36.5109L5.20055 17.1406C2.99532 14.4586 3.20392 10.5249 5.67736 8.05151Z" fill="#92D13D"/>
<path d="M20.5766 45.2426L5.31883 63.5401C3.05399 66.2519 3.2328 70.275 5.73603 72.7782L7.58366 74.6259C10.3849 77.4271 14.9444 77.2781 17.5668 74.3279L23.0799 68.0698C25.1659 63.9573 26.3281 59.3084 26.3281 54.3914C26.3281 48.3121 24.5401 42.6798 21.5005 37.9415C22.6329 40.266 22.3349 43.1566 20.5766 45.2426Z" fill="#49691F"/>
<path d="M56.2482 62.6163H50.3179V28.1372H56.2482V31.7431C57.0826 29.3292 60.0924 27.6008 64.2049 27.6008C67.7213 27.6008 70.6716 28.8524 73.0556 31.3557C75.4694 33.8291 76.6614 36.8985 76.6614 40.5938C76.6614 44.289 75.4694 47.3585 73.0556 49.8915C70.6716 52.365 67.7213 53.5868 64.2049 53.5868C60.0924 53.5868 57.0826 51.8583 56.2482 49.4445V62.6163ZM57.9766 35.1701C56.5462 36.6005 55.8011 38.4482 55.8011 40.6236C55.8011 42.799 56.5462 44.6168 57.9766 46.0771C59.4666 47.5075 61.2844 48.2525 63.4301 48.2525C65.5757 48.2525 67.2743 47.5075 68.6749 46.0771C70.1053 44.6466 70.7908 42.799 70.7908 40.6236C70.7908 38.4482 70.1053 36.6303 68.6749 35.1701C67.3041 33.7397 65.5459 32.9947 63.4301 32.9947C61.3142 32.9947 59.4666 33.7397 57.9766 35.1701ZM78.7177 18.6011H84.648V44.9149C84.648 47.3287 85.4526 48.3717 87.628 48.3717C88.3134 48.3717 88.9094 48.3121 89.416 48.1631V53.4676C88.7306 53.6762 87.777 53.7656 86.585 53.7656C81.3401 53.7656 78.7177 51.0835 78.7177 45.6897V18.6011ZM109.502 31.7431V28.1372H115.432V45.5407C115.432 47.6565 115.938 48.4611 117.25 48.4611C117.607 48.4611 118.054 48.4015 118.501 48.3717V53.1696C117.846 53.408 116.862 53.557 115.581 53.557C114.15 53.557 113.018 53.3186 112.124 52.7524C111.021 52.0074 110.336 51.0239 110.098 49.7425C108.369 52.365 105.508 53.6464 101.545 53.6464C98.0283 53.6464 95.0781 52.4246 92.6345 49.8915C90.2504 47.3585 89.0584 44.289 89.0584 40.5938C89.0584 36.8985 90.2504 33.8291 92.6345 31.3557C95.0483 28.8226 98.0283 27.6008 101.545 27.6008C105.538 27.6008 108.548 29.3888 109.502 31.7431ZM107.713 46.0473C109.203 44.6168 109.949 42.7692 109.949 40.5938C109.949 38.4184 109.203 36.6005 107.713 35.1403C106.283 33.7099 104.435 32.9649 102.32 32.9649C100.204 32.9649 98.4753 33.7099 97.0151 35.1403C95.6443 36.5707 94.9291 38.4184 94.9291 40.5938C94.9291 42.7692 95.6145 44.587 97.0151 46.0473C98.4455 47.4777 100.174 48.2227 102.32 48.2227C104.465 48.2227 106.283 47.4777 107.713 46.0473ZM120.557 58.0568C121.302 58.2952 122.226 58.4442 123.329 58.4442C124.283 58.4442 124.968 58.2356 125.504 57.9078C126.041 57.58 126.547 56.8052 126.935 55.792L127.59 54.004L117.16 28.1372H123.12L130.451 46.9413L137.335 28.1372H143.325L132.15 57.133C131.405 59.0701 130.511 60.5601 129.468 61.5733C127.978 62.9441 126.011 63.6593 123.478 63.6593C122.375 63.6593 121.392 63.5103 120.557 63.2719V58.0568Z" fill="#49691F"/>
</svg>
