<svg width="130" height="91" viewBox="0 0 130 91" fill="none" xmlns="http://www.w3.org/2000/svg">
<path d="M126.499 19.4268C126.372 18.662 126.117 18.0248 125.862 17.3875C120.381 5.40654 92.0859 5.66146 59.5844 16.7502C63.5356 15.858 67.3593 15.2207 71.0555 14.7109C90.174 11.9068 104.322 14.3285 107.763 22.1034C113.499 35.104 87.2425 58.1736 49.133 73.8508C43.3974 76.2725 37.6619 78.3118 32.0538 79.9687C31.7988 80.0962 31.5439 80.0962 31.4165 80.2236C23.6416 82.6453 16.1217 84.4297 9.23901 85.5768C20.7101 85.8317 35.6225 83.1551 51.6821 77.9294C57.0353 76.145 62.3884 74.1057 67.9965 71.8115C104.322 56.1343 129.558 33.3196 126.499 19.4268Z" fill="#CE3D37"/>
<path d="M81.7631 58.0462C81.7631 59.9581 82.7827 60.9777 84.5671 60.9777C85.8417 60.9777 86.8613 60.4679 87.2437 59.4482L90.5576 60.7228C89.7928 62.6346 87.7535 63.6543 84.822 63.6543C80.361 63.6543 77.6844 60.8502 77.6844 57.154C77.6844 53.4578 80.4885 50.3988 84.5671 50.3988C88.6457 50.3988 91.1949 53.0754 91.1949 57.6638V57.9187L81.7631 58.0462ZM84.4397 53.2028C83.0376 53.2028 82.1454 53.9676 81.8905 55.4971H86.8613C86.7339 54.095 85.7142 53.2028 84.4397 53.2028ZM93.744 54.095H91.8321V51.0361H93.744V47.3398H98.0775V51.0361H99.9894V54.095H98.0775V63.3994H93.744V54.095Z" fill="white"/>
<path fill-rule="evenodd" clip-rule="evenodd" d="M93.2663 46.8618H98.5558V50.5581H100.468V54.5729H98.5558V63.8773H93.2663V54.5729H91.3545V50.5581H93.2663V46.8618ZM94.2223 47.8177V51.514H92.3104V53.617H94.2223V62.9214H97.5999V53.617H99.5117V51.514H97.5999V47.8177H94.2223ZM84.5674 50.8767C80.7586 50.8767 78.1627 53.7158 78.1627 57.1539C78.1627 58.8831 78.7864 60.3786 79.9095 61.4433C81.0334 62.5089 82.6933 63.1763 84.8223 63.1763C87.4019 63.1763 89.116 62.367 89.9034 60.9831L87.4824 60.052C86.9042 61.0203 85.7867 61.4556 84.5674 61.4556C83.5851 61.4556 82.7449 61.1731 82.1528 60.5612C81.5629 59.9517 81.2854 59.0835 81.2854 58.0461V57.5746L90.7152 57.4472C90.6764 55.345 90.0702 53.7297 89.0596 52.6348C88.0187 51.5071 86.4984 50.8767 84.5674 50.8767ZM77.2068 57.1539C77.2068 53.1996 80.219 49.9208 84.5674 49.9208C86.715 49.9208 88.5086 50.6286 89.762 51.9864C91.0111 53.3396 91.6731 55.2834 91.6731 57.6638V58.3902L82.2661 58.5173C82.335 59.1409 82.5436 59.5905 82.8397 59.8964C83.2035 60.2724 83.7653 60.4997 84.5674 60.4997C85.7274 60.4997 86.5097 60.0451 86.7965 59.2803L86.9657 58.829L91.1815 60.4505L91.0016 60.9002C90.132 63.0744 87.8445 64.1322 84.8223 64.1322C82.4903 64.1322 80.5814 63.3976 79.2518 62.137C77.9214 60.8757 77.2068 59.1211 77.2068 57.1539ZM82.4177 53.4191C82.9544 52.942 83.6502 52.7248 84.44 52.7248C85.9676 52.7248 87.1883 53.8115 87.3376 55.4537L87.385 55.975H81.3266L81.4194 55.4184C81.5593 54.579 81.8839 53.8936 82.4177 53.4191ZM82.4989 55.019H86.2822C86.0128 54.173 85.2979 53.6807 84.44 53.6807C83.8277 53.6807 83.3764 53.8459 83.0528 54.1336C82.8233 54.3375 82.6322 54.6261 82.4989 55.019Z" fill="white"/>
<path d="M5.67168 7.95587H3.25V5.40674H11.0249V7.95587H8.60318V16.2406H5.67168V7.95587ZM14.7211 15.0934L11.6621 8.72061H14.7211L15.7408 11.3972C15.8682 11.7796 15.9957 12.1619 16.1231 12.6718C16.2506 12.0345 16.378 11.6521 16.5055 11.5247L17.5251 8.84807H20.3292L15.6133 19.6819H12.6818L14.7211 15.0934ZM21.0939 8.72061H23.6431V9.99518C24.2804 8.97553 25.1725 8.4657 26.1922 8.4657C28.2315 8.4657 29.6335 9.99518 29.6335 12.4169C29.6335 14.8385 28.2315 16.368 26.3197 16.368C25.0451 16.368 24.4078 15.9856 23.7705 14.8385C23.7705 15.2209 23.898 15.7307 23.898 16.1131V19.2995H21.3488V8.72061H21.0939ZM25.1726 14.4562C26.1922 14.4562 26.9569 13.6914 26.9569 12.5443C26.9569 11.3972 26.3197 10.6325 25.1726 10.6325C24.1529 10.6325 23.5156 11.3972 23.5156 12.5443C23.5156 13.6914 24.1529 14.4562 25.1726 14.4562ZM33.2023 13.0541C33.2023 14.2012 33.8396 14.8385 34.8593 14.8385C35.624 14.8385 36.2613 14.5836 36.5162 13.9463L38.5555 14.7111C38.0457 15.8582 36.8986 16.4955 35.1142 16.4955C32.4376 16.4955 30.7806 14.8385 30.7806 12.5443C30.7806 10.2501 32.4376 8.4657 34.9867 8.4657C37.4084 8.4657 38.9379 10.1226 38.9379 12.7992V12.9267L33.2023 13.0541ZM34.8593 10.1226C33.9671 10.1226 33.4572 10.6325 33.3298 11.5247H36.3887C36.2613 10.6325 35.624 10.1226 34.8593 10.1226ZM43.9087 7.95587H41.487L42.7616 5.53419H46.5853V16.2406H43.9087V7.95587ZM4.52457 25.1625H8.09335C10.7699 25.1625 12.9367 25.1625 14.8486 26.5645C16.633 27.8391 17.6526 29.8784 17.6526 32.4276C17.6526 34.9767 16.633 37.016 14.8486 38.2906C13.0642 39.5651 11.0249 39.6926 8.60318 39.6926H4.52457V25.1625ZM9.11301 36.5062C12.172 36.5062 13.574 35.3591 13.574 32.4276C13.574 29.4961 12.0445 28.3489 9.11301 28.3489H8.47572V36.3787H9.11301V36.5062ZM21.2214 24.6527C22.241 24.6527 23.1332 25.5449 23.1332 26.5645C23.1332 27.7117 22.241 28.6039 21.2214 28.6039C20.0743 28.6039 19.3095 27.7117 19.3095 26.5645C19.3095 25.5449 20.2017 24.6527 21.2214 24.6527ZM19.437 29.751H23.0058V39.82H19.437V29.751ZM36.0064 39.82H32.6925V38.1631C31.8003 39.5651 30.6532 40.2024 29.1237 40.2024C26.4471 40.2024 24.6627 38.1631 24.6627 34.8492C24.6627 31.5354 26.4471 29.496 29.3786 29.496C30.9081 29.496 31.9278 30.1333 32.6925 31.5354V29.8784H36.0064V39.82ZM30.5257 32.1726C29.1237 32.1726 28.2315 33.1923 28.2315 34.7218C28.2315 36.2513 29.1237 37.2709 30.5257 37.2709C31.9278 37.2709 32.82 36.2513 32.82 34.7218C32.9474 33.1923 32.0552 32.1726 30.5257 32.1726ZM41.6145 24.3978V29.6235C41.6145 30.2608 41.6145 30.8981 41.487 31.4079C42.3792 29.8784 43.2714 29.3686 45.0558 29.3686C47.7324 29.3686 49.5168 31.4079 49.5168 34.7218C49.5168 38.0356 47.6049 40.075 44.9283 40.075C43.5263 40.075 42.3792 39.4377 41.487 38.0356V39.82H38.1731V24.3978H41.6145ZM43.6538 37.2709C45.0558 37.2709 45.948 36.2513 45.948 34.7218C45.948 33.1923 45.0558 32.1726 43.6538 32.1726C42.2517 32.1726 41.3595 33.1923 41.3595 34.7218C41.3595 36.3787 42.2517 37.2709 43.6538 37.2709ZM53.9778 35.4865C53.9778 37.016 54.87 37.9082 56.272 37.9082C57.2916 37.9082 58.0564 37.5258 58.4387 36.7611L61.1153 37.7807C60.4781 39.3102 58.8211 40.2024 56.3994 40.2024C52.7032 40.2024 50.5364 37.9082 50.5364 34.8492C50.5364 31.7903 52.8306 29.3686 56.1445 29.3686C59.4584 29.3686 61.4977 31.5354 61.4977 35.2316V35.3591H53.9778V35.4865ZM56.0171 31.5354C54.87 31.5354 54.1052 32.1726 53.9778 33.4472H58.0564C57.9289 32.3001 57.1642 31.5354 56.0171 31.5354ZM63.6645 32.3001H62.135V29.751H63.6645V26.692H67.1058V29.751H68.6353V32.3001H67.1058V39.82H63.6645V32.3001ZM72.5864 35.4865C72.5864 37.016 73.4786 37.9082 74.8807 37.9082C75.9003 37.9082 76.665 37.5258 77.0474 36.7611L79.724 37.7807C79.0867 39.3102 77.4298 40.2024 75.0081 40.2024C71.3119 40.2024 69.1451 37.9082 69.1451 34.8492C69.1451 31.7903 71.4393 29.3686 74.7532 29.3686C78.0671 29.3686 80.1064 31.5354 80.1064 35.2316V35.3591H72.5864V35.4865ZM74.7532 31.5354C73.6061 31.5354 72.8413 32.1726 72.7139 33.4472H76.7925C76.665 32.3001 75.7729 31.5354 74.7532 31.5354ZM81.5084 36.2513C82.5281 37.1435 83.9301 37.6533 85.0772 37.6533C85.9694 37.6533 86.4792 37.3984 86.4792 36.7611C86.4792 35.8689 85.7145 35.8689 84.3124 35.614C82.2731 35.1041 81.2535 34.0845 81.2535 32.555C81.2535 30.7706 82.6555 29.3686 85.3321 29.3686C86.6067 29.3686 88.0087 29.6235 89.4107 30.2608L88.646 32.8099C87.6263 32.1726 86.7341 31.7903 85.7145 31.7903C84.9497 31.7903 84.4399 32.0452 84.4399 32.555C84.4399 33.1923 85.3321 33.3198 86.7341 33.7021C88.646 34.2119 89.5382 35.1041 89.5382 36.7611C89.5382 38.8004 87.8812 40.2024 85.2047 40.2024C83.4202 40.2024 82.0182 39.82 80.6162 38.9278L81.5084 36.2513ZM7.45607 49.6342H3.50491V45.4281H16.378V49.6342H12.2994V63.3995H7.45607V49.6342ZM16.633 50.9088H20.7116V53.8403C21.4763 51.801 23.0058 50.6539 24.9176 50.6539C25.1725 50.6539 25.6824 50.6539 26.1922 50.7813L25.8098 54.7325C25.3 54.605 24.7902 54.4776 24.2804 54.4776C22.241 54.4776 20.9665 55.7521 20.9665 58.1738V63.2721H16.633V50.9088ZM29.5061 44.6634C30.7806 44.6634 31.9278 45.683 31.9278 47.0851C31.9278 48.4871 30.7806 49.5067 29.5061 49.5067C28.1041 49.5067 27.0844 48.3596 27.0844 47.0851C27.2119 45.8105 28.2315 44.6634 29.5061 44.6634ZM27.3393 50.9088H31.6728V63.2721H27.3393V50.9088ZM47.7324 63.2721H43.6538V61.2328C42.5067 63.0172 41.1046 63.7819 39.1928 63.7819C36.0064 63.7819 33.7121 61.2328 33.7121 57.1541C33.7121 53.0755 35.8789 50.5264 39.4477 50.5264C41.3595 50.5264 42.6341 51.2911 43.6538 52.9481V50.9088H47.7324V63.2721ZM40.9772 53.9677C39.1928 53.9677 38.1731 55.2423 38.1731 57.1541C38.1731 59.066 39.1928 60.2131 40.9772 60.2131C42.7616 60.2131 43.9087 59.066 43.9087 57.1541C43.9087 55.2423 42.7616 53.9677 40.9772 53.9677ZM50.5364 44.281H54.87V63.2721H50.5364V44.281ZM57.9289 45.4281H62.6448L69.4 54.7325C69.5275 54.9874 70.1648 56.007 71.057 57.9189C70.9295 56.5169 70.802 55.3698 70.802 54.3501V45.4281H75.5179V63.3995H70.802L64.0468 54.0952C63.9194 53.8403 63.2821 52.8206 62.3899 50.9088C62.5174 52.3108 62.6448 53.4579 62.6448 54.4776V63.3995H57.9289V45.4281ZM81.7633 58.0463C81.7633 59.9582 82.783 60.9778 84.5674 60.9778C85.8419 60.9778 86.8616 60.468 87.2439 59.4484L90.5578 60.7229C89.7931 62.6348 87.7538 63.6544 84.8223 63.6544C80.3613 63.6544 77.6847 60.8504 77.6847 57.1541C77.6847 53.4579 80.4887 50.3989 84.5674 50.3989C88.646 50.3989 91.1951 53.0755 91.1951 57.664V57.9189L81.7633 58.0463ZM84.4399 53.203C83.0379 53.203 82.1457 53.9677 81.8908 55.4972H86.8616C86.7341 54.0952 85.7145 53.203 84.4399 53.203ZM93.7442 54.0952H91.8324V51.0362H93.7442V47.34H98.0778V51.0362H99.9896V54.0952H98.0778V63.3995H93.7442V54.0952Z" fill="#1D4477"/>
</svg>
