<svg  viewBox="20 16 50 50" fill="none" xmlns="http://www.w3.org/2000/svg"><defs>
<clipPath id="clip0_0_1634">
<rect width="50" height="25" fill="white" transform="translate(20 29)"/>
</clipPath>
<clipPath id="clip1_0_1634">
<rect width="100" height="18.3206" fill="white" transform="translate(107 32)"/>
</clipPath>
</defs><g clip-path="url(#clip0_0_1634)">
<path fill-rule="evenodd" clip-rule="evenodd" d="M22.3451 50.973C19.2183 47.8727 19.2183 42.8461 22.3452 39.7458L30.8379 31.3252C33.4812 28.7044 37.5129 28.2991 40.5856 30.1093C41.5361 30.6692 41.5278 31.9536 40.746 32.7287C39.9644 33.5037 38.6882 33.437 37.6272 33.1293C36.2684 32.7353 34.7404 33.0696 33.6689 34.1321L25.1761 42.5526C23.6126 44.1028 23.6126 46.616 25.176 48.1662C26.7395 49.7165 29.2744 49.7165 30.8378 48.1662L47.8231 31.3254C50.9501 28.225 56.0197 28.225 59.1467 31.3253L67.6395 39.7458C70.7663 42.846 70.7663 47.8727 67.6395 50.973C64.5126 54.0733 59.4429 54.0733 56.3159 50.973L53.4851 48.1662L49.9465 51.6748C47.3031 54.2956 43.2715 54.7009 40.1986 52.8907C39.2482 52.3308 39.2566 51.0465 40.0383 50.2714C40.82 49.4962 42.096 49.5629 43.1572 49.8706C44.5159 50.2647 46.044 49.9304 47.1155 48.8679L50.7553 45.2592C52.2629 43.7644 54.7072 43.7644 56.2149 45.2592L59.1469 48.1662C60.7103 49.7164 63.2451 49.7164 64.8085 48.1662C66.372 46.616 66.372 44.1028 64.8085 42.5526L56.3157 34.1322C54.7523 32.582 52.2175 32.582 50.6541 34.1322L33.6687 50.9731C30.5418 54.0734 25.472 54.0734 22.3451 50.973Z" fill="black"/>
</g><g clip-path="url(#clip1_0_1634)">
<path fill-rule="evenodd" clip-rule="evenodd" d="M108.719 48.1024C106.427 45.8304 106.427 42.1468 108.719 39.8748L114.942 33.704C116.879 31.7834 119.834 31.4863 122.086 32.8129C122.782 33.2232 122.776 34.1645 122.203 34.7325C121.63 35.3005 120.695 35.2516 119.918 35.0261C118.922 34.7373 117.802 34.9823 117.017 35.7609L110.793 41.9317C109.647 43.0677 109.647 44.9095 110.793 46.0455C111.939 47.1815 113.796 47.1815 114.942 46.0455L127.389 33.7041C129.681 31.4321 133.396 31.4321 135.688 33.7041L141.911 39.8748C144.203 42.1467 144.203 45.8304 141.911 48.1024C139.62 50.3744 135.905 50.3744 133.613 48.1024L131.539 46.0455L128.945 48.6166C127.008 50.5373 124.054 50.8343 121.802 49.5077C121.106 49.0974 121.112 48.1562 121.685 47.5882C122.257 47.0202 123.193 47.069 123.97 47.2945C124.966 47.5833 126.086 47.3383 126.871 46.5597L129.538 43.9151C130.643 42.8197 132.434 42.8197 133.539 43.9151L135.688 46.0455C136.834 47.1814 138.691 47.1814 139.837 46.0455C140.983 44.9095 140.983 43.0677 139.837 41.9317L133.613 35.761C132.467 34.625 130.61 34.625 129.464 35.761L117.017 48.1024C114.725 50.3744 111.01 50.3744 108.719 48.1024Z" fill="black"/>
<path d="M167.067 35.2974C165.626 35.2974 164.533 35.8137 163.812 36.8463C163.179 35.8137 162.174 35.2974 160.841 35.2974C159.465 35.2974 158.46 35.7706 157.804 36.7387V35.5985H154.986V46.3549H157.804V40.3098C157.804 38.7394 158.613 37.8789 159.858 37.8789C161.016 37.8789 161.693 38.6319 161.693 39.9226V46.3549H164.511V40.3098C164.511 38.7394 165.254 37.8789 166.543 37.8789C167.701 37.8789 168.378 38.6319 168.378 39.9226V46.3549H171.196V39.729C171.196 37.0399 169.58 35.2974 167.067 35.2974Z" fill="black"/>
<path d="M181.672 36.8678C180.82 35.8137 179.641 35.2974 178.112 35.2974C176.648 35.2974 175.403 35.8567 174.354 36.9539C173.327 38.051 172.803 39.3848 172.803 40.9768C172.803 42.5687 173.327 43.924 174.354 45.0212C175.403 46.1183 176.648 46.6562 178.112 46.6562C179.641 46.6562 180.82 46.1398 181.672 45.0857V46.3549H184.491V35.5985H181.672V36.8678ZM176.473 43.171C175.905 42.5902 175.621 41.8588 175.621 40.9768C175.621 40.0947 175.905 39.3633 176.473 38.804C177.041 38.2231 177.762 37.9434 178.636 37.9434C179.51 37.9434 180.231 38.2231 180.799 38.804C181.389 39.3633 181.672 40.0947 181.672 40.9768C181.672 41.8588 181.389 42.5902 180.799 43.171C180.231 43.7304 179.51 44.01 178.636 44.01C177.762 44.01 177.041 43.7304 176.473 43.171Z" fill="black"/>
<path d="M194.89 37.4487V35.5986H186.698V38.2017H191.088L186.479 44.505V46.355H195.108V43.752H190.258L194.89 37.4487Z" fill="black"/>
<path d="M206.891 42.1169C206.956 41.7082 207 41.3425 207 40.9768C207 39.3633 206.476 38.0295 205.427 36.9323C204.4 35.8352 203.068 35.2974 201.473 35.2974C199.791 35.2974 198.393 35.8352 197.322 36.9323C196.252 38.008 195.705 39.3633 195.705 40.9768C195.705 42.6117 196.252 43.9671 197.344 45.0426C198.436 46.1183 199.878 46.6562 201.691 46.6562C203.788 46.6562 205.384 45.8817 206.454 44.3542L204.182 43.0635C203.636 43.7734 202.806 44.1391 201.735 44.1391C200.053 44.1391 199.026 43.4723 198.655 42.1169H206.891ZM198.611 39.9656C198.939 38.5888 199.965 37.7929 201.473 37.7929C202.762 37.7929 203.854 38.5028 204.182 39.9656H198.611Z" fill="black"/>
</g></svg>