<svg  viewBox="20 16 220 50" fill="none" xmlns="http://www.w3.org/2000/svg"><defs>
<clipPath id="clip0_0_3173">
<rect width="50" height="50" fill="white" transform="translate(20 16)"/>
</clipPath>
<clipPath id="clip1_0_3173">
<rect width="100" height="22.8" fill="white" transform="translate(102 30)"/>
</clipPath>
</defs><g clip-path="url(#clip0_0_3173)">
<path d="M20 16H45V66C31.1929 66 20 54.8071 20 41V16Z" fill="#FF2F5B"/>
<path d="M70 41H45V66C58.8071 66 70 54.8071 70 41Z" fill="#4E4AFF"/>
<path d="M57.5 41C64.4036 41 70 35.4036 70 28.5C70 21.5964 64.4036 16 57.5 16C50.5964 16 45 21.5964 45 28.5C45 35.4036 50.5964 41 57.5 41Z" fill="#FFBB25"/>
</g><g clip-path="url(#clip1_0_3173)">
<path fill-rule="evenodd" clip-rule="evenodd" d="M161.86 40.4V46H162.96H164.06V45.35C164.06 44.9925 164.093 44.7027 164.135 44.7061C164.176 44.7095 164.346 44.9007 164.513 45.1311C164.976 45.7699 165.649 46.0948 166.517 46.0977C167.463 46.1008 168.053 45.8829 168.701 45.2906C169.59 44.4778 169.96 43.4434 169.96 41.7661C169.96 40.301 169.62 39.2866 168.85 38.4514C168.155 37.6973 166.812 37.3195 165.816 37.5982C165.321 37.7369 164.635 38.2714 164.347 38.7439C164.161 39.0489 164.16 39.0422 164.16 36.925L164.16 34.8H163.01H161.86V40.4ZM145.883 37.6484C144.42 38.0607 143.732 38.8426 143.717 40.1077C143.701 41.5018 144.523 42.1705 146.839 42.6478C148.166 42.9213 148.528 43.0879 148.624 43.4696C148.771 44.0559 148.176 44.5003 147.245 44.4996C146.62 44.4992 146.136 44.2507 145.879 43.7985C145.726 43.5299 145.661 43.5012 145.199 43.5006C144.919 43.5003 144.413 43.5288 144.076 43.5641C143.477 43.6267 143.464 43.6341 143.526 43.8891C143.683 44.5468 144.201 45.2161 144.86 45.6154C145.906 46.2493 148.037 46.3172 149.304 45.757C150.459 45.2459 151.006 44.4237 150.942 43.2936C150.914 42.7985 150.844 42.5387 150.666 42.279C150.2 41.5997 149.611 41.3542 147.244 40.8528C146.03 40.5956 145.656 40.0886 146.245 39.4997C146.564 39.1804 147.085 39.0449 147.612 39.1438C148.005 39.2175 148.66 39.7369 148.66 39.9748C148.66 40.1047 148.766 40.1189 149.335 40.0652C149.706 40.0301 150.179 40.0011 150.385 40.0007C150.695 40.0001 150.76 39.9648 150.76 39.7968C150.76 39.13 150.027 38.2472 149.145 37.8514C148.625 37.6181 148.361 37.5686 147.469 37.5371C146.734 37.5112 146.249 37.5453 145.883 37.6484ZM174.162 37.6603C173.081 37.9509 172.166 38.7256 171.699 39.746C171.152 40.94 171.155 42.7654 171.705 43.9668C172.424 45.5387 174.127 46.3486 176.174 46.0916C177.656 45.9056 178.726 45.1256 179.135 43.9341L179.243 43.6181L178.205 43.5473L177.167 43.4766L176.901 43.7919C176.528 44.2357 176.155 44.4 175.521 44.4C174.89 44.4 174.51 44.2782 174.172 43.9683C173.875 43.6961 173.565 43.039 173.562 42.675L173.56 42.4H176.41H179.26V41.6894C179.26 40.4155 178.885 39.3593 178.173 38.6251C177.227 37.6504 175.629 37.2661 174.162 37.6603ZM184.363 37.6583C183.883 37.8663 183.681 38.0694 183.374 38.65L183.11 39.15L183.081 38.375L183.051 37.6H181.956H180.86V41.8V46H182.01H183.16V43.3901C183.16 40.4786 183.19 40.3156 183.831 39.827C184.223 39.5283 185.09 39.4022 185.445 39.5923C185.563 39.6554 185.66 39.6891 185.66 39.6671C185.66 39.6452 185.814 39.2124 186.002 38.7055L186.345 37.7837L186.006 37.6418C185.568 37.459 184.805 37.4667 184.363 37.6583ZM191.01 37.64C190.602 37.8199 190.167 38.2716 189.959 38.7312C189.798 39.0854 189.782 39.096 189.724 38.8812C189.69 38.754 189.662 38.4138 189.661 38.125L189.66 37.6H188.56H187.46V41.8V46H188.61H189.76V43.4316C189.76 41.0283 189.773 40.8353 189.969 40.4302C190.113 40.134 190.32 39.9142 190.627 39.7348C191.023 39.5026 191.146 39.4791 191.698 39.5307L192.322 39.5889L192.641 38.7074C192.816 38.2226 192.96 37.802 192.96 37.7727C192.96 37.7435 192.818 37.6702 192.645 37.6098C192.221 37.462 191.378 37.4776 191.01 37.64ZM134.22 38.775C134.186 39.4213 134.194 40.8745 134.237 42.0045C134.313 43.9773 134.327 44.082 134.599 44.6363C135.054 45.5664 135.96 46.1009 137.079 46.0994C138.031 46.0982 138.981 45.6026 139.384 44.8962C139.508 44.6791 139.643 44.5012 139.685 44.5008C139.726 44.5003 139.76 44.8375 139.76 45.25V46H140.86H141.96V41.8V37.6H140.81H139.66L139.657 40.025C139.655 42.5489 139.599 43.0653 139.285 43.4861C138.925 43.9681 138.589 44.1429 138.022 44.1429C137.41 44.1429 137.049 43.9509 136.755 43.4696C136.575 43.1731 136.56 42.9492 136.56 40.375L136.56 37.6H135.421H134.282L134.22 38.775ZM176.093 39.3364C176.272 39.4114 176.539 39.6153 176.686 39.7895C176.956 40.1107 177.195 40.7614 177.1 40.9156C177.071 40.962 176.257 41 175.291 41H173.534L173.592 40.6407C173.761 39.5978 175.076 38.9118 176.093 39.3364ZM166.838 39.6644C167.273 39.9965 167.55 40.6149 167.625 41.4229C167.779 43.0685 167.023 44.3 165.86 44.3C164.696 44.3 163.94 43.0685 164.094 41.4229C164.193 40.3667 164.651 39.6111 165.322 39.3983C165.78 39.2529 166.453 39.3711 166.838 39.6644Z" fill="black"/>
<path d="M201.961 37.6H200.728H199.496L198.616 40.7C198.132 42.405 197.708 43.8 197.673 43.8C197.639 43.8 197.223 42.4162 196.749 40.725L195.886 37.65L194.674 37.6219C194.007 37.6065 193.461 37.6065 193.461 37.6219C193.461 37.6374 194.136 39.5839 194.961 41.9476C196.626 46.7172 196.603 46.5941 195.933 47.158C195.653 47.3939 195.563 47.416 195.1 47.3616L194.58 47.3005L194.365 48.0253C194.246 48.4239 194.127 48.8252 194.101 48.917C194.062 49.0507 194.166 49.1077 194.621 49.2021C196.159 49.5214 197.726 48.845 198.369 47.5838C198.484 47.3578 199.291 45.1428 200.162 42.6615C201.033 40.1802 201.791 38.0375 201.847 37.9L201.961 37.6Z" fill="black"/>
<path fill-rule="evenodd" clip-rule="evenodd" d="M155.063 37.6001C153.982 37.8907 153.067 38.6654 152.599 39.6858C152.053 40.8798 152.055 42.7051 152.605 43.9064C153.325 45.4784 155.028 46.2884 157.074 46.0314C158.556 45.8454 159.627 45.0654 160.035 43.8739L160.144 43.5579L159.106 43.487L158.067 43.4163L157.802 43.7316C157.429 44.1754 157.056 44.3398 156.422 44.3398C155.791 44.3398 155.41 44.218 155.072 43.9081C154.775 43.6358 154.466 42.9788 154.463 42.6148L154.461 42.3398H157.311H160.161V41.6291C160.161 40.3553 159.786 39.2991 159.073 38.5649C158.127 37.5902 156.53 37.2059 155.063 37.6001ZM157.586 39.7293C157.44 39.5551 157.173 39.3512 156.993 39.2762C155.977 38.8516 154.662 39.5376 154.493 40.5805L154.434 40.9398H156.192C157.158 40.9398 157.972 40.9018 158.001 40.8554C158.096 40.7012 157.857 40.0505 157.586 39.7293Z" fill="black"/>
<path d="M102 30H113.4V52.8C107.104 52.8 102 47.696 102 41.4V30Z" fill="#FF2F5B"/>
<path d="M124.8 41.4H113.4V52.8C119.696 52.8 124.8 47.6961 124.8 41.4Z" fill="#4E4AFF"/>
<path d="M119.1 41.4C122.248 41.4 124.8 38.848 124.8 35.7C124.8 32.552 122.248 30 119.1 30C115.952 30 113.4 32.552 113.4 35.7C113.4 38.848 115.952 41.4 119.1 41.4Z" fill="#FFBB25"/>
</g></svg>