<svg width="109" height="109" viewBox="0 0 109 109" fill="none" xmlns="http://www.w3.org/2000/svg">
<path d="M92.384 35.6813L82.9789 33.9323C82.7501 33.8894 82.4995 33.6743 82.4222 33.4535L79.5393 26.7276C79.4318 26.52 79.4524 26.1938 79.5851 26.0005L85.0649 18.0137C85.1959 17.8215 85.1701 17.5291 85.0048 17.3638L78.1605 10.5195C77.9952 10.3542 77.7034 10.3273 77.5112 10.4594L69.3842 16.0365C69.192 16.1686 68.8625 16.1921 68.6536 16.0891L62.1338 13.4202C61.9124 13.3469 61.6967 13.0992 61.6532 12.8698L59.8424 3.14205C59.8001 2.91263 59.5741 2.72498 59.3407 2.72498H49.6605C49.4276 2.72498 49.2016 2.91263 49.1593 3.14205L47.3491 12.8698C47.3056 13.0992 47.0905 13.3469 46.8685 13.4202L40.3481 16.0891C40.1387 16.1921 39.8091 16.1686 39.6175 16.0365L31.4911 10.4594C31.2983 10.3273 31.006 10.3542 30.8412 10.5195L23.9964 17.3638C23.8316 17.5291 23.8041 17.8215 23.9363 18.0137L29.4166 26.0005C29.5482 26.1938 29.5688 26.52 29.4618 26.7276L26.5783 33.4535C26.5017 33.6743 26.2517 33.8894 26.0217 33.9323L16.6172 35.6813C16.3872 35.7248 16.2001 35.9502 16.2001 36.1836L16.2007 45.8633C16.2007 46.0967 16.3883 46.3238 16.6178 46.3656L25.7917 48.0728C26.0211 48.1146 26.2665 48.3325 26.3363 48.5551L29.2004 55.7094C29.3028 55.9194 29.2787 56.2478 29.146 56.44L23.9351 64.0338C23.8036 64.226 23.8305 64.5189 23.9952 64.6843L30.8406 71.5285C31.0054 71.6927 31.2977 71.7196 31.4905 71.5886L38.9498 66.4687C39.1421 66.3371 39.4642 66.3268 39.665 66.4441L42.9547 68.2005C43.1629 68.3069 43.4061 68.2171 43.4953 68.0014L50.2783 51.6119C50.3682 51.3962 50.2783 51.121 50.0792 50.9992L49.256 50.4952C49.1038 50.4025 48.8972 50.2428 48.7353 50.0964C45.7655 48.1947 43.7951 44.8678 43.7951 41.0792C43.7951 35.167 48.5883 30.3743 54.5 30.3743C60.4117 30.3743 65.2043 35.167 65.2043 41.0792C65.2043 44.8678 63.2345 48.1947 60.2641 50.0964C60.1033 50.2428 59.8962 50.4025 59.7446 50.4952L58.9213 50.9992C58.7234 51.121 58.633 51.3962 58.7222 51.6119L65.5047 68.002C65.5939 68.2177 65.8365 68.3069 66.0454 68.2011L69.335 66.4447C69.5364 66.3274 69.8579 66.3371 70.0502 66.4693L77.51 71.5892C77.7023 71.7202 77.9952 71.6933 78.1594 71.5291L85.0048 64.6848C85.1701 64.5195 85.197 64.2266 85.0649 64.0343L79.8534 56.4406C79.7218 56.2484 79.6972 55.92 79.7997 55.71L82.6637 48.5557C82.734 48.3331 82.9778 48.1151 83.2078 48.0734L92.3817 46.3662C92.6105 46.3244 92.7988 46.0973 92.7988 45.8638L92.7999 36.1842C92.8005 35.9502 92.6128 35.7248 92.384 35.6813Z" fill="#0099B0"/>
<path d="M31.3166 106.153H33.3837V99.1424C33.3837 96.6102 31.641 95.7589 29.1082 95.7589C27.5681 95.7589 26.4336 96.1634 25.6435 97.2584L27.2643 98.4942C27.6287 97.9066 28.1356 97.7029 29.2095 97.7029C30.6884 97.7029 31.3166 98.0485 31.3166 99.0205V100.094H28.4595C26.2511 100.094 25.1166 101.493 25.1166 103.134C25.1166 104.917 26.4536 106.275 28.7432 106.275C30.1415 106.275 30.8509 105.951 31.276 105.241H31.3166V106.153ZM31.3166 102.546C31.3166 104.147 30.7291 104.329 29.007 104.329C27.6087 104.329 27.0612 103.721 27.0612 103.033C27.0612 102.283 27.6287 101.796 28.8451 101.796H31.3166V102.546Z" fill="#0099B0"/>
<path d="M35.6539 106.153H37.7203V99.9725C37.7203 98.4742 38.7135 97.8248 39.7268 97.8248C40.2537 97.8248 40.5981 97.9667 41.0844 98.3323L42.5833 96.549C41.9552 96.0627 41.2669 95.7589 40.4356 95.7589C39.3417 95.7589 38.4092 96.1645 37.761 96.9746H37.7203V95.8807H35.6539V106.153Z" fill="#0099B0"/>
<path d="M48.7651 106.153H50.8316V91.726H48.7651V96.9746C47.995 96.2452 47.1643 95.7589 46.1105 95.7589C44.8541 95.7589 43.9427 96.3253 43.3551 97.0965C42.7876 97.8248 42.6257 98.493 42.6257 101.007C42.6257 103.54 42.7876 104.208 43.3551 104.937C43.9427 105.707 44.8541 106.275 46.1105 106.275C47.1643 106.275 48.1169 105.788 48.7651 105.079V106.153ZM46.7386 97.8248C48.6638 97.8248 48.7651 99.528 48.7651 101.007C48.7651 102.507 48.6638 104.208 46.7386 104.208C44.7934 104.208 44.6922 102.608 44.6922 101.007C44.6922 99.4262 44.7934 97.8248 46.7386 97.8248Z" fill="#0099B0"/>
<path d="M61.3792 106.153H63.2036L66.4853 95.8807H64.2964L62.3323 103.073H62.2905L59.9609 95.8807H58.4614L56.1317 103.073H56.0911L54.1253 95.8807H51.9375L55.2197 106.153H57.0431L59.1908 98.9599H59.2314L61.3792 106.153Z" fill="#0099B0"/>
<path d="M74.9132 106.153V99.1424C74.9132 96.6102 73.1699 95.7589 70.6377 95.7589C69.0982 95.7589 67.9625 96.1634 67.1724 97.2584L68.7938 98.4942C69.1582 97.9066 69.664 97.7029 70.7379 97.7029C72.2174 97.7029 72.8456 98.0485 72.8456 99.0205V100.094H69.9884C67.7806 100.094 66.6449 101.493 66.6449 103.134C66.6449 104.917 67.9825 106.275 70.2722 106.275C71.6698 106.275 72.3798 105.951 72.8055 105.241H72.8456V106.153H74.9132ZM72.8461 102.546C72.8461 104.147 72.2586 104.329 70.5365 104.329C69.1388 104.329 68.5913 103.721 68.5913 103.033C68.5913 102.283 69.1588 101.796 70.3746 101.796H72.8461V102.546Z" fill="#0099B0"/>
<path d="M77.1839 106.153H79.2498V99.9725C79.2498 98.4742 80.2419 97.8248 81.2557 97.8248C81.7832 97.8248 82.127 97.9667 82.6133 98.3323L84.1128 96.549C83.4847 96.0627 82.7953 95.7589 81.9651 95.7589C80.8712 95.7589 79.9392 96.1645 79.291 96.9746H79.2498V95.8807H77.1839V106.153Z" fill="#0099B0"/>
<path d="M92.6197 101.797V100.094C92.6197 97.4398 90.655 95.7583 88.386 95.7583C86.4002 95.7583 84.1512 97.0547 84.1512 101.046C84.1512 105.261 86.6027 106.274 88.7104 106.274C90.0881 106.274 91.4045 105.788 92.4177 104.613L90.9182 103.336C90.31 103.965 89.4587 104.329 88.6698 104.329C87.2509 104.329 86.2182 103.478 86.2182 101.797H92.6197ZM86.2182 100.094C86.2583 98.5342 87.1703 97.7029 88.386 97.7029C89.6018 97.7029 90.4937 98.5342 90.5538 100.094H86.2182Z" fill="#0099B0"/>
<path d="M5.22974 84.7811C5.22974 87.0095 5.55356 87.8608 6.34365 88.7321C6.91119 89.3603 7.86377 90.0486 9.46456 90.0486C11.0648 90.0486 12.0173 89.3603 12.5849 88.7321C13.375 87.8608 13.6994 87.0089 13.6994 84.7811C13.6994 82.5721 13.375 81.7214 12.5849 80.85C12.0173 80.2219 11.0648 79.5324 9.46456 79.5324C7.86377 79.5324 6.91119 80.2219 6.34365 80.85C5.55356 81.722 5.22974 82.5721 5.22974 84.7811ZM11.6323 84.8011C11.6323 86.2806 11.511 86.6851 11.126 87.2326C10.8216 87.6582 10.1734 87.9826 9.46456 87.9826C8.75513 87.9826 8.10692 87.6588 7.80312 87.2326C7.41809 86.6851 7.29623 86.2806 7.29623 84.7811C7.29623 83.3016 7.41809 82.8959 7.80312 82.3496C8.10692 81.9239 8.75513 81.5995 9.46456 81.5995C10.1734 81.5995 10.8216 81.9233 11.126 82.3496C11.511 82.8959 11.6323 83.3016 11.6323 84.8011Z" fill="#0099B0"/>
<path d="M33.5319 85.5712V83.8691C33.5319 81.2139 31.5666 79.5324 29.2976 79.5324C27.3112 79.5324 25.0628 80.83 25.0628 84.8211C25.0628 89.0348 27.5143 90.0486 29.6214 90.0486C30.9997 90.0486 32.3161 89.5623 33.3293 88.3871L31.8298 87.1113C31.2222 87.7395 30.3715 88.1045 29.5814 88.1045C28.1625 88.1045 27.1293 87.2532 27.1293 85.5712H33.5319ZM27.1293 83.8697C27.1699 82.3084 28.0819 81.4782 29.2976 81.4782C30.5134 81.4782 31.4047 82.3084 31.4654 83.8697H27.1293Z" fill="#0099B0"/>
<path d="M35.2957 89.9267H37.3622V83.809C37.3622 82.4102 38.2335 81.6001 39.4087 81.6001C40.5638 81.6001 41.4351 82.4102 41.4351 83.809V89.9267H43.5016V83.099C43.5016 80.7682 41.6783 79.5324 40.0775 79.5324C38.9836 79.5324 38.051 79.9381 37.4034 80.7482H37.3622V79.6543H35.2957V89.9267Z" fill="#0099B0"/>
<path d="M49.0895 88.2052C50.4065 89.441 51.9466 90.0491 53.6081 90.0491C55.999 90.0491 57.8629 88.8946 57.8629 86.8882C57.8629 85.2479 57.0127 83.9503 54.8845 83.8085L53.1824 83.6877C52.1492 83.6059 51.8254 83.1603 51.8254 82.7146C51.8254 82.0063 52.271 81.4788 53.5875 81.4788C54.7025 81.4788 55.5338 81.8644 56.3439 82.4308L57.6198 80.9324C56.6065 80.0811 55.3914 79.5336 53.5869 79.5336C51.4191 79.5336 49.7577 80.6075 49.7577 82.6945C49.7577 84.4567 51.0141 85.4705 52.7156 85.6124L54.5395 85.7743C55.2495 85.8343 55.7959 86.058 55.7959 86.7875C55.7959 87.6588 54.944 88.1039 53.7694 88.1039C52.3917 88.1039 51.4191 87.6594 50.5278 86.7875L49.0895 88.2052Z" fill="#0099B0"/>
<path d="M59.038 84.7811C59.038 87.0095 59.363 87.8608 60.1531 88.7321C60.7206 89.3603 61.6726 90.0486 63.2729 90.0486C64.8742 90.0486 65.8262 89.3603 66.3938 88.7321C67.1839 87.8608 67.5077 87.0089 67.5077 84.7811C67.5077 82.5721 67.1839 81.7214 66.3938 80.85C65.8262 80.2219 64.8742 79.5324 63.2729 79.5324C61.6726 79.5324 60.7206 80.2219 60.1531 80.85C59.363 81.722 59.038 82.5721 59.038 84.7811ZM65.4406 84.8011C65.4406 86.2806 65.3199 86.6851 64.9343 87.2326C64.6305 87.6582 63.9823 87.9826 63.2729 87.9826C62.5646 87.9826 61.9152 87.6588 61.6126 87.2326C61.227 86.6851 61.1051 86.2806 61.1051 84.7811C61.1051 83.3016 61.227 82.8959 61.6126 82.3496C61.9152 81.9239 62.5646 81.5995 63.2729 81.5995C63.9823 81.5995 64.6305 81.9233 64.9343 82.3496C65.3199 82.8959 65.4406 83.3016 65.4406 84.8011Z" fill="#0099B0"/>
<path d="M69.2721 86.4831C69.2721 88.8128 71.096 90.0486 72.7168 90.0486C73.7896 90.0486 74.7227 89.6429 75.3709 88.8328H75.4109V89.9278H77.4769V79.6543H75.4109V85.7731C75.4109 87.1708 74.5396 87.9821 73.3839 87.9821C72.2094 87.9821 71.338 87.1708 71.338 85.7731V79.6543H69.2721V86.4831Z" fill="#0099B0"/>
<path d="M79.7436 89.9267H81.8106V83.7473C81.8106 82.2477 82.8027 81.5995 83.8165 81.5995C84.344 81.5995 84.6878 81.7414 85.1741 82.1058L86.6737 80.3225C86.0443 79.8362 85.3572 79.5324 84.5259 79.5324C83.432 79.5324 82.4989 79.9381 81.8507 80.7482H81.8106V79.6543H79.7436V89.9267Z" fill="#0099B0"/>
<path d="M93.2553 86.9088C92.749 87.537 92.0195 87.9826 91.1694 87.9826C89.4879 87.9826 88.4941 87.0295 88.4941 84.7999C88.4941 82.5515 89.4873 81.5995 91.1694 81.5995C92.0195 81.5995 92.7495 82.0452 93.2553 82.6734L94.7748 81.3157C93.8841 80.2819 92.6471 79.5324 91.0875 79.5324C88.7173 79.5324 86.4276 81.032 86.4276 84.7999C86.4276 88.5502 88.7173 90.0486 91.0875 90.0486C92.6477 90.0486 93.8846 89.2985 94.7748 88.2664L93.2553 86.9088Z" fill="#0099B0"/>
<path d="M103.77 85.5712V83.8691C103.77 81.2139 101.803 79.5324 99.5354 79.5324C97.5485 79.5324 95.3006 80.83 95.3006 84.8211C95.3006 89.0348 97.7522 90.0486 99.8598 90.0486C101.238 90.0486 102.555 89.5623 103.567 88.3871L102.068 87.1113C101.459 87.7395 100.609 88.1045 99.8192 88.1045C98.4004 88.1045 97.3677 87.2532 97.3677 85.5712H103.77ZM97.3677 83.8697C97.4077 82.3084 98.3197 81.4782 99.5354 81.4782C100.751 81.4782 101.642 82.3084 101.703 83.8697H97.3677Z" fill="#0099B0"/>
<path d="M19.5562 87.9826C21.5014 87.9826 21.6026 86.3813 21.6026 84.8011C21.6026 83.1997 21.5014 81.5995 19.5562 81.5995C17.6315 81.5995 17.5297 83.3016 17.5297 84.8011C17.5297 86.2806 17.631 87.9826 19.5562 87.9826ZM15.4552 106.153V79.6549H17.5297V80.7288C18.1785 80.0193 19.1305 79.533 20.1843 79.533C21.4401 79.533 22.3527 80.1006 22.9402 80.8706C23.5072 81.6001 23.6691 82.2683 23.6691 84.8017C23.6691 87.3138 23.5072 87.9832 22.9402 88.7115C22.3527 89.4816 21.4401 90.0491 20.1843 90.0491C19.1305 90.0491 18.2998 89.5628 17.5297 88.8334L17.5223 96.9746C18.2111 96.1645 19.1431 95.7589 20.237 95.7589C21.8378 95.7589 23.6611 96.9947 23.6611 99.3243V106.153H21.5946V100.034C21.5946 98.6355 20.7233 97.8254 19.5682 97.8254C18.393 97.8254 17.5223 98.6355 17.5223 100.034V106.153H15.4552Z" fill="#0099B0"/>
</svg>
