<svg width="172" height="69" viewBox="0 0 172 69" fill="none" xmlns="http://www.w3.org/2000/svg">
<path d="M16.6605 45.4419L31.9701 48.7038V20.0727L16.6605 23.322V45.4419ZM36.528 54.6584L12.9904 48.2969V20.4572L36.493 14.1418L36.5266 54.6598L36.528 54.6584Z" fill="#00A86B"/>
<path d="M26.873 7.32031L4.30005 15.5078V53.291L26.873 61.4799V7.32031ZM8.32249 51.0722V17.7294L22.3654 13.3952V55.405L8.32249 51.0708V51.0722Z" fill="#00A86B"/>
<path d="M26.8729 21.1517L29.1002 20.6805V16.1282L26.8729 16.7252V21.1517ZM26.8729 52.0477L29.1002 52.6489V48.0924L26.8729 47.617V52.0477Z" fill="#038754"/>
<path d="M59.2045 21.438C64.1805 21.438 67.3221 23.4932 68.2169 27.5115L64.07 28.6314C63.5891 26.0658 62.0721 24.9613 59.2045 24.9613C56.3328 24.9613 54.8437 26.3357 54.8437 28.2735C54.8437 30.3162 55.6952 31.3382 60.091 31.9729C66.0456 32.7825 69.1299 34.4728 69.1299 39.5103C69.1299 43.8795 65.4081 47.2979 59.8071 47.2979C53.4834 47.2979 50.5193 44.4331 49.7881 40.3044L54.1573 39.1244H54.1712C54.4886 41.6606 55.5176 43.7746 59.8071 43.7746C62.6076 43.7746 64.5929 42.2241 64.5929 39.899C64.5929 37.5739 63.4227 36.6931 59.3094 36.0233C53.2485 35.2124 50.3781 33.3809 50.3781 28.6608C50.3781 24.5377 53.9224 21.438 59.2045 21.438ZM79.9081 28.1323C84.5164 28.1323 88.6633 30.8447 88.6633 37.4327V38.6658H75.0874C75.2286 42.1528 77.0014 44.1269 80.1906 44.1269C82.7799 44.1269 84.1263 43.1049 84.4465 41.3083H88.5934C87.9922 45.1825 84.8366 47.2979 80.0857 47.2979C74.6274 47.2979 70.6916 43.7397 70.6916 37.9262V37.6438C70.6916 31.9352 74.6274 28.1323 79.9081 28.1323ZM139.126 28.1323C144.55 28.1323 148.627 31.9016 148.627 37.5389V37.82C148.627 43.5621 144.55 47.2979 139.091 47.2979C133.632 47.2979 129.591 43.5285 129.591 37.9262V37.6438C129.591 31.9352 133.666 28.1323 139.126 28.1323ZM99.9029 28.1309C104.013 28.1309 107.879 29.9624 108.376 35.0349H104.227C103.874 32.57 102.242 31.5479 99.9728 31.5479C97.0311 31.5479 94.9395 33.8031 94.9395 37.6074V37.8913C94.9395 41.9067 96.9249 44.0207 100.08 44.0207C102.35 44.0193 104.299 42.6813 104.546 40.0737H108.482C108.163 44.3017 104.936 47.2965 99.9029 47.2965C94.5858 47.2965 90.5452 43.8431 90.5452 37.9584V37.6787C90.5452 31.8303 94.727 28.1309 99.9029 28.1309ZM115.268 22.597V28.5195H119.345V31.7255H115.268V41.4132C115.268 43.0336 116.049 43.7746 117.395 43.7746C118.245 43.7746 118.885 43.6684 119.487 43.4209V46.8044C118.813 47.0518 117.891 47.2616 116.58 47.2616C112.893 47.2616 110.979 45.2888 110.979 41.8018V23.7575L115.268 22.597ZM127.038 28.5195V46.9456H122.748V28.5195H127.038ZM161.355 28.1323C165.077 28.1323 167.7 30.2798 167.7 35.355V46.9456H163.41V35.7423C163.41 32.9572 162.277 31.6891 159.724 31.6891C157.313 31.6891 155.364 33.1712 155.364 36.0933V46.9456H151.075V28.5209H155.364V31.4431C156.251 29.6464 158.307 28.1323 161.355 28.1323ZM139.126 31.478C135.936 31.478 133.987 33.7696 133.987 37.5739V37.8549C133.987 41.6243 135.866 43.9857 139.126 43.9857C142.317 43.9857 144.232 41.6243 144.232 37.8549V37.6088C144.232 33.8045 142.317 31.478 139.126 31.478ZM79.9081 31.2319C77.3202 31.2319 75.5837 32.9572 75.1587 35.8122H84.4101C84.1976 32.6413 82.5674 31.2319 79.9081 31.2319ZM127.038 21.7288V25.9917H122.748V21.7288H127.038Z" fill="black"/>
</svg>
