<svg width="81" height="148" viewBox="0 0 81 148" fill="none" xmlns="http://www.w3.org/2000/svg">
<path d="M76.2636 39.4454L40.7679 76.8871L4.73636 39.4454L40.5 3.68176L76.2636 39.4454Z" fill="#86AD8A"/>
<path d="M34.3779 95.7261C36.502 89.4513 37.6274 70.1311 37.0289 60.516C36.9574 59.3626 36.8423 58.0237 36.6411 56.955C36.5782 56.6144 36.5042 56.3001 36.4218 56.029V18.4498C36.4218 15.2442 39.3611 13.7293 42.1222 20.7647C44.8835 27.7998 44.0816 52.8234 44.0816 54.6027C44.0816 54.9802 43.7391 55.4264 43.2015 55.8642C42.9866 56.0028 42.7922 56.1441 42.6122 56.2869C40.9584 57.6138 40.7173 59.1438 40.631 60.516C40.0328 70.1311 39.7598 89.4513 41.8838 95.7261C44.3722 103.078 39.6385 104.002 38.132 104.002C36.6229 104.001 31.8896 103.078 34.3779 95.7261ZM26.2018 28.3145C25.9369 28.3421 25.6061 33.5781 25.4968 37.3596C25.3633 41.9541 25.1565 46.0406 23.8662 46.0406C22.8972 46.0406 22.2963 44.4408 22.455 40.3808C22.6832 34.534 22.6762 28.3145 22.332 28.3145C21.8981 28.3145 19.8884 41.2106 19.8884 45.7473C19.8884 49.0012 21.2829 52.066 23.0302 53.6619L23.0487 53.677L23.2046 53.8153L23.2102 53.8201C24.4728 54.9712 24.7908 56.2215 24.876 57.3637C25.5971 66.9761 24.2437 90.7902 21.6925 97.0647C18.7037 104.414 24.3898 105.34 26.2018 105.34C28.0109 105.34 33.6973 104.414 30.708 97.0647C28.1567 90.7896 26.8055 66.9761 27.5244 57.3637C27.6102 56.2215 27.9273 54.9712 29.1903 53.8201L29.1958 53.8153L29.3517 53.677L29.3702 53.6619C31.1173 52.0665 32.602 49.0001 32.5124 45.7473C32.1564 32.8413 30.6828 28.3145 30.2489 28.3145C29.9047 28.3145 29.9052 35.2034 30.0033 40.103C30.0835 44.1167 29.7393 45.925 28.6071 45.925C27.5289 45.925 27.2031 42.0158 27.0662 37.3079C26.9564 33.5164 26.6153 28.3145 26.2026 28.3145H26.2018ZM54.8294 102.429C53.402 102.429 48.9242 101.553 51.279 94.5976C53.2894 88.6594 54.3536 66.1247 53.7878 57.0257C53.759 56.5624 53.6442 56.0925 53.5562 55.5957C53.3078 54.1917 51.5696 53.0417 50.5632 52.0319C48.6085 50.0705 47.3529 46.7724 47.3529 43.053C47.3529 37.0142 50.7004 29.3714 54.8294 29.3714C58.9587 29.3714 62.3063 37.0142 62.3063 43.053C62.3063 46.7724 61.0501 50.0705 59.0959 52.0319C58.0895 53.0417 56.3513 54.1917 56.103 55.5957C56.0149 56.0925 55.9007 56.5624 55.8713 57.0257C55.305 66.1242 56.3698 88.6589 58.3801 94.5976C60.7349 101.554 56.2572 102.429 54.8294 102.429Z" fill="white"/>
<path d="M76.0946 109.295L4.73636 39.4456L4.8836 109.387H76.0946" fill="#CECCAE"/>
<path d="M4.88354 109.295V143.591H76.0945V39.2631L4.88354 109.295Z" fill="#3F894A"/>
<path d="M75.6021 48.51L75.4049 48.3107L75.8041 47.9165L76.0014 48.1157L75.6021 48.51ZM6.29778 116.958L6.10053 116.759L6.9066 115.963L7.10386 116.162L6.29778 116.958ZM7.90938 115.367L7.7124 115.167L8.51848 114.371L8.71546 114.57L7.90938 115.367ZM9.52126 113.775L9.32428 113.575L10.1298 112.779L10.3271 112.979L9.52126 113.775ZM11.1331 112.183L10.9359 111.984L11.7417 111.188L11.9389 111.387L11.1331 112.183ZM12.7447 110.591L12.5478 110.392L13.3536 109.596L13.5505 109.795L12.7447 110.591ZM14.3563 108.999L14.1594 108.8L14.9654 108.004L15.1624 108.203L14.3563 108.999ZM15.9682 107.408L15.771 107.208L16.5768 106.412L16.774 106.612L15.9682 107.408ZM17.5798 105.815L17.3828 105.616L18.1886 104.82L18.3856 105.02L17.5798 105.815ZM19.1917 104.224L18.9947 104.024L19.8002 103.229L19.9975 103.428L19.1917 104.224ZM20.8033 102.632L20.606 102.432L21.4121 101.637L21.6094 101.836L20.8033 102.632ZM22.4149 101.04L22.2179 100.841L23.024 100.045L23.221 100.244L22.4149 101.04ZM24.0268 99.448L23.8298 99.2488L24.6356 98.453L24.8326 98.6525L24.0268 99.448ZM25.6386 97.8562L25.4414 97.657L26.2472 96.8613L26.4445 97.0608L25.6386 97.8562ZM27.2502 96.2645L27.053 96.0653L27.8591 95.2695L28.056 95.469L27.2502 96.2645ZM28.8618 94.6727L28.6649 94.4735L29.4709 93.6777L29.6679 93.877L28.8618 94.6727ZM30.4737 93.0809L30.2765 92.8815L31.0823 92.0854L31.2795 92.2846L30.4737 93.0809ZM32.0856 91.4892L31.8883 91.2897L32.6941 90.4937L32.8911 90.6929L32.0856 91.4892ZM33.6972 89.8974L33.5002 89.6979L34.306 88.9019L34.503 89.1011L33.6972 89.8974ZM35.3088 88.3054L35.1115 88.1062L35.9176 87.3102L36.1149 87.5094L35.3088 88.3054ZM36.9207 86.7136L36.7234 86.5144L37.5292 85.7181L37.7265 85.9176L36.9207 86.7136ZM38.5323 85.1219L38.3353 84.9226L39.1411 84.1263L39.3381 84.3258L38.5323 85.1219ZM40.1442 83.5301L39.9469 83.3309L40.7527 82.5346L40.95 82.7341L40.1442 83.5301ZM41.756 81.9383L41.5588 81.7391L42.3643 80.9428L42.5613 81.142L41.756 81.9383ZM43.3674 80.3466L43.1704 80.1471L43.9765 79.3511L44.1734 79.5503L43.3674 80.3466ZM44.979 78.7543L44.782 78.5548L45.5878 77.7593L45.785 77.9585L44.979 78.7543ZM46.5911 77.1625L46.3939 76.963L47.1999 76.1675L47.3972 76.3668L46.5911 77.1625ZM48.2024 75.5705L48.0055 75.3712L48.8115 74.5755L49.0085 74.775L48.2024 75.5705ZM49.8146 73.979L49.6176 73.7798L50.4229 72.9837L50.6201 73.1832L49.8146 73.979ZM51.4262 72.3872L51.2289 72.188L52.035 71.3917L52.2323 71.5912L51.4262 72.3872ZM53.0375 70.7952L52.8405 70.596L53.6466 69.7999L53.8436 69.9991L53.0375 70.7952ZM54.6497 69.2034L54.4524 69.0039L55.2579 68.2082L55.4552 68.4074L54.6497 69.2034ZM56.2613 67.6116L56.064 67.4122L56.8701 66.6164L57.0673 66.8156L56.2613 67.6116ZM57.8731 66.0199L57.6762 65.8204L58.4817 65.0247L58.6787 65.2239L57.8731 66.0199ZM59.4847 64.4278L59.2878 64.2286L60.0936 63.4326L60.2908 63.6321L59.4847 64.4278ZM61.0963 62.8361L60.8991 62.6369L61.7052 61.8409L61.9024 62.0403L61.0963 62.8361ZM62.7085 61.2443L62.5112 61.0451L63.3168 60.2491L63.5137 60.4486L62.7085 61.2443ZM64.3198 59.6526L64.1228 59.4533L64.9286 58.6573L65.1259 58.8565L64.3198 59.6526ZM65.9314 58.0608L65.7342 57.8613L66.5402 57.0656L66.7375 57.2648L65.9314 58.0608ZM67.5433 56.4688L67.3463 56.2693L68.1518 55.4735L68.3488 55.6727L67.5433 56.4688ZM69.1549 54.877L68.9579 54.6775L69.764 53.8818L69.961 54.081L69.1549 54.877ZM70.7671 53.285L70.5698 53.0857L71.3753 52.29L71.5726 52.4892L70.7671 53.285ZM72.3784 51.6932L72.1814 51.494L72.9875 50.698L73.1845 50.8975L72.3784 51.6932ZM73.99 50.1014L73.793 49.9022L74.5991 49.1062L74.7961 49.3057L73.99 50.1014ZM5.09356 118.148L4.89658 117.949L5.29501 117.555L5.49226 117.754L5.09356 118.148Z" fill="white"/>
<path d="M16.2959 120.106H19.844C20.3078 120.106 20.7775 120.144 21.253 120.219C21.7286 120.295 22.1547 120.451 22.5316 120.689C22.9082 120.926 23.2156 121.257 23.4533 121.68C23.6911 122.104 23.8099 122.663 23.8099 123.359C23.8099 123.985 23.6243 124.53 23.2533 124.994C22.882 125.458 22.3313 125.766 21.6006 125.916V125.951C22.0066 125.986 22.3774 126.081 22.7138 126.238C23.0502 126.395 23.3402 126.603 23.5835 126.864C23.8269 127.125 24.0152 127.436 24.1485 127.795C24.2821 128.155 24.3488 128.549 24.3488 128.977C24.3488 129.685 24.2125 130.262 23.9401 130.708C23.6676 131.155 23.3248 131.505 22.9138 131.761C22.5023 132.016 22.0555 132.19 21.5744 132.283C21.0932 132.376 20.6437 132.422 20.2265 132.422H16.2953V120.106H16.2959ZM17.4437 125.428H19.8267C20.4182 125.428 20.8993 125.356 21.2704 125.211C21.6417 125.066 21.9314 124.889 22.1401 124.68C22.3491 124.472 22.4883 124.248 22.5579 124.011C22.6274 123.774 22.6621 123.556 22.6621 123.359C22.6621 122.93 22.5897 122.573 22.4447 122.289C22.2994 122.005 22.1052 121.779 21.8621 121.611C21.6182 121.443 21.3343 121.323 21.0097 121.254C20.685 121.184 20.343 121.15 19.9831 121.15H17.4437V125.428ZM17.4437 131.378H20.07C20.7423 131.378 21.2846 131.296 21.6962 131.134C22.1077 130.972 22.4237 130.769 22.6442 130.525C22.8646 130.282 23.0122 130.023 23.0876 129.751C23.163 129.479 23.201 129.232 23.201 129.012C23.201 128.56 23.1141 128.172 22.9404 127.847C22.7666 127.522 22.5405 127.258 22.262 127.055C21.9837 126.853 21.6674 126.705 21.3142 126.612C20.9605 126.519 20.6037 126.472 20.2444 126.472H17.4437V131.378ZM26.6 126.646C26.6 126.495 26.5938 126.313 26.5827 126.098C26.5709 125.883 26.5625 125.666 26.557 125.446C26.5508 125.225 26.5424 125.02 26.5307 124.828C26.5187 124.637 26.5131 124.489 26.5131 124.384H27.5567C27.5684 124.686 27.5768 124.976 27.5824 125.254C27.588 125.533 27.6028 125.712 27.6262 125.794C27.8931 125.318 28.2351 124.93 28.6522 124.628C29.0699 124.327 29.5798 124.176 30.1831 124.176C30.2873 124.176 30.389 124.185 30.4876 124.202L30.7922 124.263L30.6703 125.289C30.5312 125.243 30.3979 125.219 30.2705 125.219C29.8182 125.219 29.4273 125.292 29.0965 125.437C28.7662 125.582 28.4938 125.782 28.2789 126.037C28.0641 126.292 27.9048 126.59 27.8006 126.933C27.6964 127.275 27.6441 127.643 27.6441 128.037V132.421H26.6005V126.646H26.6ZM39.0874 130.16C39.0874 130.311 39.0929 130.493 39.1047 130.708C39.1164 130.923 39.1248 131.14 39.1304 131.36C39.136 131.581 39.1449 131.787 39.1567 131.978C39.1681 132.17 39.1743 132.317 39.1743 132.422H38.1307C38.1189 132.121 38.1106 131.83 38.105 131.552C38.0988 131.273 38.0846 131.094 38.0611 131.013H38.0089C37.7999 131.453 37.4523 131.833 36.9656 132.152C36.4783 132.47 35.9103 132.63 35.2609 132.63C34.6345 132.63 34.1215 132.532 33.7211 132.335C33.3208 132.138 33.0078 131.879 32.7821 131.561C32.556 131.242 32.4018 130.874 32.321 130.456C32.2397 130.039 32.1995 129.61 32.1995 129.169V124.386H33.2428V129.117C33.2428 129.442 33.2716 129.758 33.3297 130.065C33.3881 130.372 33.489 130.648 33.6342 130.892C33.779 131.135 33.9824 131.329 34.2431 131.474C34.504 131.619 34.8432 131.692 35.2609 131.692C35.6434 131.692 36.0061 131.625 36.3475 131.492C36.6895 131.359 36.9851 131.156 37.2346 130.883C37.4841 130.611 37.6808 130.268 37.8261 129.857C37.9709 129.445 38.0438 128.961 38.0438 128.404V124.386H39.0874V130.16ZM41.6576 126.646C41.6576 126.495 41.652 126.313 41.6414 126.098C41.6297 125.883 41.6204 125.666 41.6148 125.446C41.6081 125.225 41.5998 125.02 41.5886 124.828C41.5768 124.637 41.5713 124.489 41.5713 124.384H42.6148C42.626 124.686 42.6344 124.976 42.6411 125.254C42.6467 125.533 42.6607 125.712 42.6836 125.794H42.7364C42.9456 125.353 43.2927 124.973 43.7799 124.654C44.2672 124.336 44.8358 124.176 45.4851 124.176C46.1102 124.176 46.6204 124.274 47.0152 124.471C47.41 124.668 47.7206 124.927 47.9461 125.246C48.1724 125.564 48.3295 125.933 48.4158 126.35C48.5021 126.768 48.546 127.197 48.546 127.637V132.421H47.5024V127.689C47.5024 127.365 47.4739 127.048 47.4161 126.741C47.3577 126.434 47.2563 126.158 47.1115 125.915C46.966 125.671 46.7634 125.477 46.5027 125.332C46.242 125.187 45.9028 125.115 45.4857 125.115C45.1021 125.115 44.7397 125.181 44.3983 125.315C44.0568 125.448 43.7609 125.651 43.5112 125.923C43.2616 126.196 43.0644 126.538 42.9197 126.95C42.7741 127.361 42.7017 127.846 42.7017 128.402V132.42H41.6582V126.646H41.6576ZM57.7479 131.239C57.3536 131.715 56.9069 132.065 56.4084 132.291C55.9094 132.517 55.3699 132.63 54.7907 132.63C54.1754 132.63 53.6077 132.525 53.0855 132.316C52.5635 132.108 52.1171 131.815 51.746 131.438C51.3747 131.061 51.0849 130.615 50.8762 130.099C50.6678 129.583 50.563 129.018 50.563 128.403C50.563 127.788 50.6678 127.223 50.8762 126.707C51.0849 126.192 51.3747 125.745 51.746 125.368C52.1171 124.991 52.5635 124.698 53.0855 124.49C53.6077 124.281 54.1754 124.176 54.7907 124.176C55.3822 124.176 55.9295 124.298 56.4341 124.542C56.9387 124.785 57.388 125.127 57.7822 125.567L56.9471 126.194C56.6462 125.857 56.3154 125.594 55.9558 125.402C55.5959 125.211 55.2078 125.115 54.7907 125.115C54.3034 125.115 53.8628 125.202 53.4685 125.376C53.0743 125.55 52.7379 125.785 52.4599 126.08C52.1816 126.376 51.9698 126.724 51.8245 127.124C51.6792 127.524 51.6069 127.951 51.6069 128.403C51.6069 128.854 51.6792 129.28 51.8245 129.681C51.9698 130.081 52.1816 130.429 52.4599 130.724C52.7379 131.02 53.0743 131.255 53.4685 131.429C53.8628 131.603 54.3034 131.69 54.7907 131.69C55.2307 131.69 55.6339 131.588 55.9991 131.385C56.364 131.183 56.6803 130.913 56.9466 130.577L57.7479 131.239ZM59.231 119.271H60.2745V125.794H60.3092C60.5179 125.354 60.8655 124.974 61.3527 124.655C61.8395 124.336 62.408 124.176 63.0574 124.176C63.683 124.176 64.1934 124.275 64.5874 124.472C64.9816 124.669 65.2923 124.927 65.5184 125.246C65.7441 125.565 65.9011 125.933 65.9875 126.351C66.0747 126.768 66.1182 127.198 66.1182 127.638V132.421H65.0747V127.69C65.0747 127.365 65.0456 127.049 64.9878 126.742C64.9297 126.435 64.828 126.159 64.6835 125.916C64.5382 125.672 64.3357 125.478 64.0744 125.332C63.8137 125.188 63.4745 125.115 63.0574 125.115C62.6743 125.115 62.3122 125.182 61.9702 125.315C61.6285 125.448 61.3326 125.652 61.0831 125.923C60.8342 126.196 60.6366 126.539 60.4916 126.95C60.3463 127.362 60.274 127.846 60.274 128.403V132.421H59.2304V119.271H59.231Z" fill="white"/>
</svg>
