<svg  viewBox="20 16 50 50" fill="none" xmlns="http://www.w3.org/2000/svg"><defs>
<clipPath id="clip0_0_265">
<rect width="50" height="43.2976" fill="white" transform="translate(20 19)"/>
</clipPath>
<clipPath id="clip1_0_265">
<rect width="100" height="15.8101" fill="white" transform="translate(105 33)"/>
</clipPath>
</defs><g clip-path="url(#clip0_0_265)">
<path fill-rule="evenodd" clip-rule="evenodd" d="M60.2079 52.3296L64.2224 53.102C68.2079 53.8692 71.2497 49.5968 69.2202 46.0823L54.9739 21.4096C52.9444 17.895 47.7232 18.3928 46.3948 22.2275L45.0563 26.0901C45.8239 26.646 46.5005 27.3795 47.029 28.2949L59.2846 49.5196C59.813 50.4347 60.1101 51.3873 60.2079 52.3296ZM57.7767 51.8619C57.6709 51.4613 57.5087 51.0627 57.2845 50.6745L45.0288 29.4495C44.8044 29.0609 44.5402 28.7209 44.2461 28.4292L41.6543 35.9102L46.3948 49.6716L57.7767 51.8619Z" fill="black"/>
<path d="M24.1243 59.9204C21.1447 59.4514 19.3565 56.3546 20.4399 53.5399L25.7116 39.8456C27.1424 36.1283 32.2437 35.7293 34.2354 39.1787L43.4609 55.1554C45.4525 58.6047 42.5562 62.8226 38.6212 62.203L24.1243 59.9204Z" fill="black"/>
<path fill-rule="evenodd" clip-rule="evenodd" d="M46.395 56.9169L52.556 57.7378C56.4529 58.2567 59.25 54.0783 57.2844 50.674L45.0285 29.4489C43.063 26.0449 38.0452 26.3776 36.5465 30.0114L34.1769 35.7567C34.979 36.3192 35.6863 37.0732 36.2353 38.0236L45.4607 54.0003C46.0095 54.9511 46.3087 55.9409 46.395 56.9169ZM44.0134 56.5997C43.9139 56.1133 43.7328 55.6269 43.4603 55.1549L34.2351 39.1783C33.9627 38.7066 33.6322 38.3067 33.2607 37.9777L28.8865 48.5832C27.7013 51.4571 29.559 54.674 32.6404 55.0846L44.0134 56.5997Z" fill="black"/>
</g></svg>