<svg  viewBox="20 16 50 50" fill="none" xmlns="http://www.w3.org/2000/svg"><defs>
<clipPath id="clip0_0_532">
<rect width="50" height="50" fill="white" transform="translate(20 16)"/>
</clipPath>
</defs><path fill-rule="evenodd" clip-rule="evenodd" d="M117.568 42.1027C117.568 41.7326 117.268 41.4326 116.898 41.4326H107.65C107.28 41.4326 106.978 41.7335 107.001 42.1028C107.333 47.4161 111.584 51.6671 116.897 51.999C117.267 52.022 117.568 51.7198 117.568 51.3498V42.1027Z" fill="#254078"/><path fill-rule="evenodd" clip-rule="evenodd" d="M117.568 38.8975C117.568 39.2676 117.268 39.5676 116.898 39.5676H107.65C107.28 39.5676 106.978 39.2667 107.001 38.8974C107.333 33.5841 111.584 29.3331 116.897 29.0012C117.267 28.9782 117.568 29.2804 117.568 29.6504V38.8975Z" fill="#FF62FD"/><path fill-rule="evenodd" clip-rule="evenodd" d="M119.432 29.6701C119.432 29.3 119.732 29 120.102 29H129.349C129.719 29 130.021 29.3009 129.998 29.6702C129.666 34.9835 125.415 39.2345 120.102 39.5664C119.733 39.5894 119.432 39.2872 119.432 38.9171V29.6701Z" fill="#0078FF"/></svg>