<svg width="48" height="48" viewBox="0 0 48 48" fill="none" xmlns="http://www.w3.org/2000/svg">
<g clip-path="url(#clip0_0_5423)">
<path d="M18.4457 19.4743L15.2914 20.7771L18.1028 0L29.2114 6.03429L18.4457 19.4743Z" fill="url(#paint0_linear_0_5423)"/>
<path d="M16.6629 28.8L18.3086 0L4.45714 8.70857L0 35.3143L16.6629 28.8Z" fill="url(#paint1_linear_0_5423)"/>
<path d="M47.04 14.4001L40.8686 1.85156L29.2114 6.03442L20.64 15.5658L0 35.3144L15.5657 46.6287L35.1086 29.0058L47.04 14.4001Z" fill="url(#paint2_linear_0_5423)"/>
<path d="M20.16 20.5029L17.4857 36.9601L28.4571 45.3944L40.4571 48.0001L48 30.8572L20.16 20.5029Z" fill="url(#paint3_linear_0_5423)"/>
<path d="M9.1886 9.18848H38.8115V38.8113H9.1886V9.18848Z" fill="black"/>
<path d="M12 33.2571H23.1086V35.1085H12V33.2571Z" fill="white"/>
<path d="M11.7943 19.2685C11.7943 15.7714 14.4 12.8914 18.1715 12.8914C20.5029 12.8914 21.8743 13.6456 23.04 14.8114L21.3257 16.7999C20.3657 15.9085 19.4057 15.4285 18.1715 15.4285C16.1143 15.4285 14.6057 17.1428 14.6057 19.2685V19.1999C14.6057 21.3256 16.0457 23.0399 18.1715 23.0399C19.5429 23.0399 20.4343 22.4914 21.3943 21.5999L23.1086 23.3142C21.8743 24.6856 20.4343 25.5085 18.1029 25.5085C14.4686 25.5771 11.7943 22.7656 11.7943 19.2685Z" fill="white"/>
<path d="M24.9601 13.0972H27.6344V23.1086H32.9829V25.3715H24.9601V13.0972Z" fill="white"/>
</g>
<defs>
<linearGradient id="paint0_linear_0_5423" x1="15.2598" y1="10.3797" x2="31.3056" y2="10.3797" gradientUnits="userSpaceOnUse">
<stop stop-color="#ED358C"/>
<stop offset="0.155" stop-color="#E9388C"/>
<stop offset="0.297" stop-color="#DE418C"/>
<stop offset="0.433" stop-color="#CC508C"/>
<stop offset="0.566" stop-color="#B2658D"/>
<stop offset="0.697" stop-color="#90808D"/>
<stop offset="0.826" stop-color="#67A18E"/>
<stop offset="0.951" stop-color="#37C78F"/>
<stop offset="1" stop-color="#22D88F"/>
</linearGradient>
<linearGradient id="paint1_linear_0_5423" x1="12.2057" y1="6.15909" x2="5.14628" y2="53.5303" gradientUnits="userSpaceOnUse">
<stop offset="0.091" stop-color="#22D88F"/>
<stop offset="0.903" stop-color="#029DE0"/>
</linearGradient>
<linearGradient id="paint2_linear_0_5423" x1="43.7733" y1="4.45179" x2="-4.51406" y2="55.4504" gradientUnits="userSpaceOnUse">
<stop offset="0.091" stop-color="#22D88F"/>
<stop offset="0.903" stop-color="#029DE0"/>
</linearGradient>
<linearGradient id="paint3_linear_0_5423" x1="27.5067" y1="33.851" x2="45.8571" y2="36.4602" gradientUnits="userSpaceOnUse">
<stop offset="0.091" stop-color="#22D88F"/>
<stop offset="0.903" stop-color="#029DE0"/>
</linearGradient>
<clipPath id="clip0_0_5423">
<rect width="48" height="48" fill="white"/>
</clipPath>
</defs>
</svg>
