<svg  viewBox="20 16 220 50" fill="none" xmlns="http://www.w3.org/2000/svg"><defs>
<clipPath id="clip0_0_716">
<rect width="50" height="50" fill="white" transform="translate(20 16)"/>
</clipPath>
<clipPath id="clip1_0_716">
<rect width="100" height="22.84" fill="white" transform="translate(92 30)"/>
</clipPath>
</defs><g clip-path="url(#clip0_0_716)">
<path d="M70 16H20V66H70V16Z" fill="#D6FB00"/>
<path d="M55.0441 37.9416L44.6606 48.713L34.2629 37.9416L37.4448 34.641L42.3311 39.7099V25.9768H46.9476V39.7099L51.834 34.641L55.0441 37.9416ZM29.6465 55.9036H59.6465V51.1147H29.6465V55.9036Z" fill="black"/>
</g><g clip-path="url(#clip1_0_716)">
<path d="M98.9152 45.178C102.287 45.178 103.602 43.1192 103.602 39.5968C103.602 36.0752 102.064 33.6197 99.014 33.6197H95.5959V45.178H98.9152ZM92 30.5446H99.4605C104.196 30.5446 107.246 34.3642 107.246 39.5968C107.246 42.4735 106.278 45.0041 104.419 46.5665C103.105 47.6571 101.394 48.2775 99.1626 48.2775H92V30.5446ZM117.516 41.929C117.516 39.4482 116.351 37.7617 114.293 37.7617C112.21 37.7617 111.069 39.4482 111.069 41.929C111.069 44.409 112.21 46.0702 114.293 46.0702C116.351 46.0702 117.516 44.409 117.516 41.929ZM107.647 41.929C107.647 38.1339 110.35 35.2074 114.293 35.2074C118.235 35.2074 120.938 38.1339 120.938 41.929C120.938 45.7225 118.235 48.6498 114.293 48.6498C110.349 48.6498 107.647 45.7233 107.647 41.929H107.647ZM121.495 41.929C121.495 38.1339 123.975 35.2074 127.843 35.2074C131.142 35.2074 133.174 37.1176 133.621 39.8702H130.323C130.1 38.7543 129.232 37.9103 127.992 37.9103C125.959 37.9103 124.918 39.4735 124.918 41.929C124.918 44.3347 125.884 45.9469 127.942 45.9469C129.306 45.9469 130.274 45.2277 130.497 43.7894H133.745C133.522 46.4922 131.413 48.6498 128.017 48.6498C124 48.6498 121.495 45.7233 121.495 41.929ZM142.525 48.2783V46.7902H142.451C141.583 47.9559 140.591 48.6253 138.806 48.6253C135.979 48.6253 134.392 46.8155 134.392 44.0367V35.5544H137.739V43.4661C137.739 44.9543 138.409 45.7731 139.847 45.7731C141.434 45.7731 142.401 44.5829 142.401 42.8963V35.5544H145.773V48.2783H142.525ZM162.203 48.2783H165.574V35.5544H162.203V48.2783ZM162.203 33.7762H165.574V30.6229H162.203V33.7762ZM175.875 41.3576C175.875 39.498 174.884 37.9111 172.85 37.9111C171.139 37.9111 169.999 39.2499 169.999 41.3829C169.999 43.5404 171.139 44.8057 172.875 44.8057C175.008 44.8057 175.875 43.2433 175.875 41.3584V41.3576ZM166.973 48.6498H170.319C170.593 49.4432 171.311 50.0636 172.874 50.0636C174.783 50.0636 175.701 49.1461 175.701 47.4098V46.0204H175.626C174.882 46.8637 173.915 47.5086 172.303 47.5086C169.477 47.5086 166.7 45.2767 166.7 41.4327C166.7 37.6376 168.981 35.2074 172.204 35.2074C173.791 35.2074 174.956 35.827 175.725 36.8939H175.775V35.5544H179.023V47.3102C179.023 49.0963 178.453 50.311 177.51 51.1795C176.444 52.1714 174.808 52.6179 172.924 52.6179C169.452 52.6179 167.319 51.1298 166.973 48.6498H166.973ZM183.768 37.2907H183.842C184.71 35.9266 185.876 35.2074 187.611 35.2074C190.24 35.2074 192 37.1911 192 39.969V48.2775H188.628V40.4653C188.628 39.1013 187.834 38.1339 186.421 38.1339C184.933 38.1339 183.842 39.3241 183.842 41.0604V48.2775H180.47V35.5544H183.768V37.2907ZM154.518 37.5878C151.89 37.0188 150.65 36.5968 150.65 35.1576C150.65 33.8931 151.914 33.0744 153.849 33.0744C155.613 33.0744 156.963 33.9026 157.239 35.5544H160.698C160.346 32.111 157.791 30.2222 153.873 30.2222C149.931 30.2222 147.079 32.0328 147.079 35.5299C147.079 39.2254 149.98 40.0686 153.154 40.7878C155.857 41.4082 157.543 41.7551 157.543 43.4906C157.543 45.1282 155.931 45.7731 154.097 45.7731C151.568 45.7731 150.352 44.9298 150.104 42.7968H146.583C146.707 46.542 149.435 48.6743 154.245 48.6743C158.237 48.6743 161.138 46.6661 161.138 43.0694C161.138 39.2499 158.163 38.3821 154.518 37.5878Z" fill="black"/>
</g></svg>