<svg width="109" height="109" viewBox="0 0 109 109" fill="none" xmlns="http://www.w3.org/2000/svg">
<path d="M106.275 2.72498H2.72498V106.275H106.275V2.72498Z" fill="#0081C6"/>
<path d="M56.1221 17.35C56.3155 17.3202 56.4345 17.1417 56.4048 16.9483C56.375 16.7549 56.1965 16.6359 56.0031 16.6656C55.8097 16.6954 55.6906 16.8739 55.7204 17.0673C55.7501 17.2458 55.9287 17.3797 56.1221 17.35Z" fill="#FEFEFE"/>
<path d="M54.8575 25.9494C54.4855 26.0089 54.2177 26.366 54.2921 26.7528C54.3516 27.1248 54.7087 27.3926 55.0955 27.3182C55.4823 27.2438 55.7353 26.9016 55.6609 26.5148C55.6014 26.1428 55.2443 25.875 54.8575 25.9494Z" fill="#FEFEFE"/>
<path d="M52.9977 26.6933C52.6258 26.7528 52.358 27.1099 52.4324 27.4967C52.4919 27.8686 52.8489 28.1364 53.2358 28.0621C53.6077 28.0025 53.8755 27.6455 53.8011 27.2587C53.7267 26.8867 53.3697 26.6189 52.9977 26.6933Z" fill="#FEFEFE"/>
<path d="M54.5302 23.7921C54.8575 23.7326 55.0806 23.4202 55.036 23.0928C54.9765 22.7655 54.6641 22.5424 54.3367 22.587C54.0094 22.6465 53.7863 22.9589 53.8309 23.2863C53.8755 23.6285 54.2028 23.8516 54.5302 23.7921Z" fill="#FEFEFE"/>
<path d="M54.307 16.5466C54.5004 16.5168 54.6194 16.3383 54.5897 16.1449C54.5599 15.9515 54.3814 15.8324 54.188 15.8622C53.9945 15.892 53.8755 16.0705 53.9053 16.2639C53.9499 16.4573 54.1284 16.5763 54.307 16.5466Z" fill="#FEFEFE"/>
<path d="M56.0923 25.4882C56.1518 25.8453 56.494 26.0982 56.8511 26.0387C57.2082 25.9792 57.4611 25.637 57.4016 25.2799C57.3421 24.9228 56.9999 24.6699 56.6428 24.7294C56.2709 24.774 56.0328 25.1162 56.0923 25.4882Z" fill="#FEFEFE"/>
<path d="M58.4579 21.6943C58.2496 21.7241 58.1008 21.9324 58.1306 22.1407C58.1604 22.349 58.3686 22.4977 58.5769 22.468C58.7852 22.4382 58.934 22.2299 58.9042 22.0216C58.8745 21.7985 58.6662 21.6497 58.4579 21.6943Z" fill="#FEFEFE"/>
<path d="M49.0105 27.0355C48.6385 27.095 48.3707 27.4521 48.4451 27.8389C48.5046 28.2108 48.8617 28.4786 49.2485 28.4043C49.6205 28.3447 49.8883 27.9877 49.8139 27.6008C49.7395 27.2289 49.3824 26.976 49.0105 27.0355Z" fill="#FEFEFE"/>
<path d="M51.0041 27.1248C50.6321 27.1843 50.3643 27.5413 50.4387 27.9282C50.4983 28.3001 50.8553 28.5679 51.2421 28.4935C51.6141 28.434 51.8819 28.0769 51.8075 27.6901C51.7331 27.3182 51.376 27.0652 51.0041 27.1248Z" fill="#FEFEFE"/>
<path d="M57.5355 18.689C57.7289 18.6592 57.8479 18.4807 57.8182 18.2873C57.7884 18.0939 57.6099 17.9749 57.4165 18.0046C57.223 18.0344 57.104 18.2129 57.1338 18.4063C57.1784 18.5997 57.3569 18.7188 57.5355 18.689Z" fill="#FEFEFE"/>
<path d="M57.476 23.9409C57.5206 24.2087 57.7735 24.3872 58.0413 24.3426C58.3091 24.298 58.4877 24.045 58.443 23.7772C58.3984 23.5094 58.1455 23.3309 57.8777 23.3755C57.6099 23.4053 57.4313 23.6582 57.476 23.9409Z" fill="#FEFEFE"/>
<path d="M58.4133 20.5339C58.6216 20.5041 58.7703 20.2958 58.7406 20.0875C58.7108 19.8792 58.5025 19.7305 58.2943 19.7602C58.086 19.79 57.9372 19.9983 57.9669 20.2065C57.9967 20.4297 58.205 20.5636 58.4133 20.5339Z" fill="#FEFEFE"/>
<path d="M46.4217 18.808C46.63 18.7783 46.7788 18.57 46.749 18.3617C46.7193 18.1534 46.511 18.0046 46.3027 18.0344C46.0944 18.0641 45.9456 18.2724 45.9754 18.4807C46.0051 18.7039 46.2134 18.8378 46.4217 18.808Z" fill="#FEFEFE"/>
<path d="M48.1475 17.0227C48.1178 16.8293 47.9393 16.7102 47.7458 16.74C47.5524 16.7698 47.4334 16.9483 47.4632 17.1417C47.4929 17.3351 47.6715 17.4541 47.8649 17.4244C48.0583 17.3946 48.1922 17.2161 48.1475 17.0227Z" fill="#FEFEFE"/>
<path d="M52.0753 16.2937C52.2687 16.2639 52.3877 16.0854 52.358 15.892C52.3282 15.6985 52.1497 15.5795 51.9563 15.6093C51.7629 15.639 51.6438 15.8176 51.6736 16.011C51.7182 16.2044 51.8968 16.3234 52.0753 16.2937Z" fill="#FEFEFE"/>
<path d="M50.8553 25.265C50.9148 25.2799 50.9892 25.2799 51.0636 25.265C51.4356 25.2055 51.7034 24.8484 51.629 24.4616C51.5695 24.1045 51.2421 23.8665 50.8851 23.8814C50.8702 23.8814 50.8404 23.8814 50.8256 23.8814C50.4536 23.9409 50.1858 24.298 50.2602 24.6848C50.3048 24.9972 50.5578 25.2204 50.8553 25.265Z" fill="#FEFEFE"/>
<path d="M52.1943 24.2236C52.1943 24.5955 52.4919 24.8782 52.8638 24.8782C53.206 24.8782 53.4738 24.6253 53.5185 24.298C53.5185 24.2682 53.5333 24.2384 53.5333 24.2087C53.5333 23.8367 53.2358 23.5392 52.8638 23.5392C52.4919 23.5392 52.1943 23.8516 52.1943 24.2236Z" fill="#FEFEFE"/>
<path d="M49.7692 16.5763C49.9626 16.5466 50.0817 16.3681 50.0519 16.1746C50.0222 15.9812 49.8436 15.8622 49.6502 15.892C49.4568 15.9217 49.3378 16.1002 49.3675 16.2937C49.4122 16.4871 49.5907 16.6061 49.7692 16.5763Z" fill="#FEFEFE"/>
<path fill-rule="evenodd" clip-rule="evenodd" d="M59.663 52.9676C59.6333 55.7944 58.9042 59.7966 55.1401 60.8678L60.8086 59.8858C61.2103 57.8178 61.3889 55.6903 61.2252 53.4883C61.0615 51.093 60.4813 49.0845 59.4696 46.1833C59.1125 45.1716 58.6513 44.1748 58.1901 43.2077L58.181 43.1884C57.5589 41.8702 56.909 40.4931 56.5833 39.0866C56.3006 37.9112 56.494 37.5393 56.5833 37.4351C56.6279 37.3905 56.7023 37.331 56.9106 37.3459C57.3323 37.3895 57.7823 37.6746 58.2191 37.9514L58.2496 37.9707L58.3126 38.0093C58.5552 38.1577 58.7755 38.2926 59.0084 38.4022C60.2135 38.9675 61.1657 39.0419 61.9096 38.6105C62.4901 38.2767 62.6318 37.6456 62.7626 37.0624L62.7725 37.0185C62.8469 36.6912 62.9213 36.3639 63.0552 36.1259C63.1147 36.0217 63.2337 35.9771 63.442 35.9325L63.4715 35.9244C63.6269 35.8823 63.794 35.837 63.9478 35.739C64.1115 35.6349 64.2156 35.4564 64.2454 35.2481C64.2603 35.1886 64.2603 35.1291 64.2603 35.0695C64.2603 34.8315 64.2008 34.5637 64.1115 34.3108C64.5578 34.2364 65.0042 34.1025 65.3612 33.8198C65.4356 33.7752 65.4654 33.7008 65.4654 33.6264C65.4654 33.5966 65.4654 33.5818 65.4505 33.552L65.4208 33.4627C65.3761 33.3437 65.3612 33.2098 65.3612 33.0759C65.3612 32.8676 65.4059 32.6593 65.4951 32.4808C65.6439 32.1684 65.9117 32.094 66.3432 31.9898C66.6854 31.9154 67.0722 31.8262 67.3549 31.5137C67.5037 31.3501 67.5632 31.1418 67.5632 30.9037C67.5632 30.264 67.1317 29.4308 66.8193 28.8952L66.6556 28.6274C66.2242 27.9133 65.8225 27.2438 65.4951 26.4999C65.4208 26.3213 65.3761 26.1131 65.3761 25.9048C65.3761 25.6965 65.4356 25.5031 65.5547 25.384C66.0903 24.8782 66.3581 24.2087 66.3581 23.4053V23.2268C66.3581 23.2268 66.2837 22.587 66.2093 21.9324C66.1944 21.739 66.1795 21.5456 66.1498 21.3521C66.1349 21.1141 66.1051 20.8612 66.0605 20.6678C66.0605 20.638 66.0456 20.6082 66.0308 20.5934C65.0637 16.13 60.7193 13.3925 53.9797 13.1396C47.9988 12.9164 42.1666 16.2937 41.4525 20.3702C41.4525 20.3776 41.4488 20.3888 41.4451 20.4C41.4413 20.4111 41.4376 20.4223 41.4376 20.4297V20.4595C41.4227 20.4743 41.4227 20.4892 41.4227 20.5041V20.5636C41.4079 20.5785 41.4079 20.5934 41.4079 20.6082V20.6678C41.393 20.6826 41.393 20.6975 41.393 20.7124V20.7719C41.3781 20.7868 41.3781 20.8017 41.3781 20.8165V20.8463C41.3632 20.8612 41.3632 20.876 41.3632 20.8909V20.9356C41.3484 20.9504 41.3484 20.9653 41.3484 20.9802V21.0397C41.3335 21.0546 41.3335 21.0695 41.3335 21.0843V21.129C41.3186 21.1438 41.3186 21.1587 41.3186 21.1736C41.3037 21.2034 41.3037 21.2182 41.3037 21.248C41.3037 21.2554 41.3 21.2666 41.2963 21.2777C41.2926 21.2889 41.2888 21.3001 41.2888 21.3075C41.2888 21.3298 41.2851 21.3559 41.2814 21.3819C41.2777 21.4079 41.274 21.434 41.274 21.4563C41.2591 21.4712 41.2591 21.4712 41.2591 21.486C41.021 22.7804 41.393 24.0897 42.3303 25.2501C43.342 26.5148 44.8893 27.4818 46.749 28.0621L46.7553 28.0632C46.9333 28.0957 47.7631 28.2471 47.9541 27.5711C48.1029 27.0355 47.7458 26.7677 47.5078 26.6487C45.5886 26.0982 43.9817 25.146 42.97 23.8814C42.9254 23.8367 42.8808 23.7772 42.8361 23.7177C42.1071 22.706 41.8244 21.6199 42.003 20.5339C42.3005 18.7634 43.7437 16.978 45.9754 15.6688C48.3261 14.2851 51.1826 13.5859 54.0243 13.69C57.4908 13.8239 60.4069 14.6571 62.4452 16.0854C64.2008 17.3351 65.272 18.9717 65.629 20.9802C65.6551 21.1364 65.6811 21.3724 65.7072 21.6084L65.7124 21.656C65.7144 21.6738 65.7163 21.6915 65.7183 21.7092C65.7332 21.8877 65.7332 22.0663 65.7332 22.2299C65.7332 22.4085 65.7332 22.5721 65.7183 22.706C65.6886 23.0185 65.4951 23.4797 65.3166 23.7624C65.2497 23.8628 65.1827 23.9381 65.1158 24.0134C65.0934 24.0385 65.0711 24.0636 65.0488 24.0897L65.0446 24.0944C64.9118 24.2419 64.7652 24.4048 64.6769 24.655C64.6322 24.8187 64.6025 24.9972 64.6025 25.1758C64.6025 26.0684 65.1381 27.1248 65.4059 27.6008L65.4505 27.6752C65.8671 28.4191 66.239 29.0589 66.6854 29.773C66.7151 29.8176 66.7598 29.9218 66.7895 30.0111C66.7895 30.0334 66.7932 30.052 66.797 30.0706C66.8007 30.0892 66.8044 30.1078 66.8044 30.1301C66.8044 30.2342 66.7746 30.3384 66.7151 30.4276C66.6259 30.5764 66.3432 30.6211 66.12 30.6508L65.9861 30.6806C65.4951 30.7698 65.0934 31.0376 64.8256 31.4542C64.6769 31.6923 64.6322 31.9601 64.6322 32.213C64.6322 32.4362 64.6769 32.6296 64.7066 32.7486C64.5281 32.8676 63.933 33.0164 63.3676 33.0908C63.3379 33.0908 63.3081 33.1057 63.2783 33.1205C63.2486 33.1404 63.2321 33.1602 63.2155 33.18C63.2073 33.19 63.199 33.1999 63.1891 33.2098C63.1891 33.2172 63.1854 33.221 63.1816 33.2247C63.1779 33.2284 63.1742 33.2321 63.1742 33.2396C63.1711 33.2489 63.168 33.2575 63.165 33.2658C63.1538 33.2973 63.1444 33.3233 63.1444 33.3586V33.3883C63.153 33.3969 63.1566 33.4005 63.1582 33.4049C63.1593 33.4081 63.1593 33.4118 63.1593 33.4181V33.4479C63.1593 33.4479 63.2783 33.7454 63.3527 33.9537L63.37 34.0026C63.4461 34.2184 63.4748 34.2999 63.5164 34.3554C63.5164 34.3554 63.5313 34.3703 63.5461 34.4C63.5164 34.5339 63.3081 34.6232 63.2635 34.6381C62.5642 34.8761 62.3559 35.0547 62.1179 35.8283L62.0137 36.1854C61.7757 37.0483 61.612 37.4946 60.8235 37.5988C59.826 37.7308 58.6548 37.0239 57.7951 36.5049L57.7586 36.4829L57.6991 36.4383C56.9552 35.9771 56.494 36.0664 56.2411 36.2151C56.0179 36.3639 55.765 36.6615 55.765 37.3607V37.5541C55.8362 38.693 56.2615 39.791 56.6761 40.8612L56.7321 41.0058L56.9255 41.5117C57.1338 42.0473 57.3718 42.5829 57.6099 43.1036C57.6339 43.1574 57.658 43.2113 57.6822 43.2653L57.683 43.2669C57.9726 43.9138 58.267 44.5714 58.4728 45.2163C58.8001 46.2131 59.053 47.2694 59.2613 48.4447C59.4398 49.4267 59.5589 50.4384 59.6184 51.4798C59.5589 50.6169 59.4547 50.0664 59.4547 50.0664L59.6333 51.8071C59.6481 52.1939 59.663 52.5809 59.663 52.9676ZM48.4302 27.8389C48.4897 28.2108 48.8617 28.4638 49.2336 28.4043C49.6056 28.3447 49.8734 27.9877 49.799 27.6008C49.7395 27.2289 49.3675 26.976 48.9956 27.0355C48.6236 27.095 48.3707 27.4669 48.4302 27.8389ZM50.4239 27.9282C50.4834 28.3001 50.8553 28.553 51.2273 28.4935C51.6141 28.434 51.867 28.0769 51.7926 27.6901C51.7331 27.3182 51.3612 27.0652 50.9892 27.1248C50.6173 27.1843 50.3643 27.5562 50.4239 27.9282ZM58.5769 22.4531C58.8001 22.4233 58.934 22.2151 58.9043 22.0068C58.8745 21.7985 58.6662 21.6497 58.4579 21.6795C58.2347 21.7092 58.1008 21.9175 58.1306 22.1258C58.1604 22.349 58.3686 22.4829 58.5769 22.4531ZM58.7406 20.0875C58.7108 19.8644 58.5025 19.7305 58.2943 19.7602C58.0711 19.8048 57.9372 19.9983 57.9669 20.2065C57.9967 20.4297 58.205 20.5636 58.4133 20.5339C58.6364 20.5041 58.7703 20.2958 58.7406 20.0875ZM58.0562 24.3426C58.324 24.298 58.5025 24.045 58.4579 23.7772C58.4133 23.4946 58.1455 23.316 57.8926 23.3755C57.6247 23.4202 57.4462 23.6731 57.4909 23.9409C57.5355 24.2087 57.7884 24.3872 58.0562 24.3426ZM57.833 18.3022C57.7884 18.1088 57.6248 17.9897 57.4313 18.0195C57.2379 18.0493 57.1189 18.2278 57.1487 18.4212C57.1933 18.6146 57.3569 18.7336 57.5504 18.7039C57.7438 18.6592 57.8628 18.4956 57.833 18.3022ZM56.8511 26.0238C57.223 25.9643 57.4611 25.6221 57.4016 25.265C57.3421 24.908 56.9999 24.655 56.6428 24.7145C56.2709 24.774 56.0328 25.1162 56.0923 25.4733C56.1518 25.8453 56.494 26.0833 56.8511 26.0238ZM56.4048 16.9483C56.3601 16.7549 56.1965 16.6359 56.0031 16.6656C55.8245 16.6954 55.6906 16.8739 55.7204 17.0673C55.765 17.2607 55.9287 17.3797 56.1221 17.35C56.3155 17.3054 56.4345 17.1417 56.4048 16.9483ZM54.2921 26.7528C54.3516 27.1248 54.7236 27.3777 55.0955 27.3182C55.4675 27.2587 55.7204 26.8867 55.6609 26.5148C55.6014 26.1428 55.2294 25.8899 54.8575 25.9494C54.4855 26.0089 54.2326 26.3809 54.2921 26.7528ZM55.155 22.0663C55.4228 22.0216 55.6014 21.7687 55.5567 21.5009C55.5121 21.2331 55.2592 21.0546 54.9914 21.0992C54.7236 21.1438 54.545 21.3968 54.5897 21.6646C54.6343 21.9324 54.8872 22.1109 55.155 22.0663ZM54.5153 20.3107C54.7384 20.2809 54.8723 20.0726 54.8426 19.8644C54.7979 19.6561 54.6045 19.5073 54.3962 19.537C54.1731 19.5668 54.0392 19.7751 54.0689 19.9834C54.0987 20.2065 54.307 20.3404 54.5153 20.3107ZM54.6045 16.1449C54.5599 15.9515 54.3963 15.8324 54.2028 15.8622C54.0094 15.9068 53.8904 16.0705 53.9202 16.2639C53.9648 16.4573 54.1284 16.5763 54.3219 16.5466C54.5153 16.502 54.6343 16.3383 54.6045 16.1449ZM55.0211 23.1077C54.9616 22.7655 54.6492 22.5424 54.3219 22.6019C53.9945 22.6465 53.7714 22.9589 53.816 23.3011C53.8755 23.6433 54.188 23.8665 54.5153 23.807C54.8575 23.7475 55.0806 23.435 55.0211 23.1077ZM53.2209 28.0621C53.5928 28.0025 53.8458 27.6306 53.7863 27.2587C53.7267 26.8867 53.3697 26.6189 52.9828 26.6933C52.6109 26.7528 52.358 27.1248 52.4175 27.4967C52.477 27.8686 52.8489 28.1216 53.2209 28.0621ZM53.206 19.1948C53.1763 18.9717 52.968 18.8378 52.7597 18.8675C52.5365 18.8973 52.4026 19.1056 52.4324 19.3139C52.4621 19.537 52.6704 19.6709 52.8787 19.6412C53.1019 19.6114 53.2358 19.4031 53.206 19.1948ZM53.5185 24.2236C53.5185 23.8516 53.2209 23.5541 52.8489 23.5541C52.4919 23.5541 52.1943 23.8516 52.1794 24.2384C52.1943 24.5955 52.477 24.8931 52.8489 24.8931C53.1911 24.8931 53.4589 24.6401 53.5036 24.3128C53.5185 24.2831 53.5185 24.2533 53.5185 24.2236ZM52.3729 15.9068C52.3282 15.7134 52.1646 15.5944 51.9712 15.6242C51.7777 15.6539 51.6587 15.8324 51.6885 16.0259C51.7331 16.2193 51.8968 16.3383 52.0902 16.3085C52.2836 16.2639 52.4026 16.1002 52.3729 15.9068ZM51.4802 19.2097C51.4356 19.0163 51.2719 18.8973 51.0785 18.927C50.8851 18.9568 50.766 19.1353 50.7958 19.3287C50.8404 19.5222 51.0041 19.6412 51.1975 19.6114C51.3909 19.5668 51.5099 19.4031 51.4802 19.2097ZM50.8851 23.8963H50.8256C50.4387 23.9558 50.1858 24.3128 50.2602 24.7145C50.3048 25.0121 50.5578 25.2353 50.8553 25.2799C50.9297 25.2948 50.9892 25.2948 51.0636 25.2799C51.4356 25.2204 51.6885 24.8484 51.629 24.4765C51.5695 24.1194 51.2421 23.8665 50.8851 23.8963ZM50.0668 16.1895C50.0222 15.9961 49.8585 15.8771 49.6651 15.9068C49.4717 15.9366 49.3527 16.1151 49.3824 16.3085C49.427 16.502 49.5907 16.621 49.7841 16.5912C49.9775 16.5466 50.0965 16.3829 50.0668 16.1895ZM50.29 20.2363C50.2602 20.0578 50.0965 19.9387 49.918 19.9685C49.7395 19.9983 49.6205 20.1768 49.6502 20.3404C49.68 20.519 49.8436 20.638 50.0222 20.6082C50.2007 20.5785 50.3197 20.4148 50.29 20.2363ZM49.5461 24.1343C49.4866 23.7624 49.1146 23.5094 48.7427 23.5689C48.3707 23.6433 48.1029 24.0004 48.1773 24.3723C48.2368 24.7443 48.6088 24.9972 48.9807 24.9377C49.3526 24.8782 49.6056 24.5062 49.5461 24.1343ZM46.749 18.3617C46.7193 18.1385 46.511 18.0046 46.3027 18.0344C46.0795 18.0641 45.9456 18.2724 45.9754 18.4807C46.0051 18.7039 46.2134 18.8378 46.4217 18.808C46.6449 18.7783 46.7788 18.57 46.749 18.3617ZM45.2761 20.1619C45.2464 19.9536 45.3803 19.7453 45.6034 19.7156C45.3951 19.7453 45.2464 19.9536 45.2761 20.1619ZM45.6034 19.7156C45.8117 19.6858 46.02 19.8197 46.0498 20.0429C46.02 19.8346 45.8117 19.6858 45.6034 19.7156ZM46.0498 20.0429C46.0795 20.2512 45.9456 20.4595 45.7225 20.4892C45.9307 20.4595 46.0795 20.2512 46.0498 20.0429ZM45.3207 21.9175C45.3803 22.2299 45.6629 22.4233 45.9605 22.3787C46.2729 22.3192 46.4663 22.0365 46.4217 21.739C46.3622 21.4265 46.0795 21.2331 45.782 21.2777C45.4695 21.3373 45.2761 21.6199 45.3207 21.9175ZM46.9276 22.7655C46.5556 22.825 46.3176 23.1672 46.3771 23.5243C46.4068 23.7624 46.5854 23.9558 46.8234 24.045C46.9276 24.0748 47.0317 24.0897 47.1507 24.0748C47.5227 24.0153 47.7607 23.6731 47.7012 23.316C47.6715 23.1077 47.5524 22.9589 47.3888 22.8548C47.2549 22.7804 47.0912 22.7358 46.9276 22.7655ZM47.4632 17.1417C47.5078 17.3351 47.6715 17.4541 47.8649 17.4244C48.0583 17.3946 48.1922 17.2161 48.1475 17.0227C48.1029 16.8293 47.9393 16.7102 47.7458 16.74C47.5524 16.7846 47.4334 16.9483 47.4632 17.1417Z" fill="white"/>
<path d="M45.2761 20.1619C45.3059 20.3702 45.5142 20.519 45.7225 20.4892C45.9307 20.4595 46.0795 20.2512 46.0498 20.0429C46.02 19.8346 45.8117 19.6858 45.6034 19.7156C45.3951 19.7453 45.2464 19.9536 45.2761 20.1619Z" fill="white"/>
<path d="M15.1186 77.2037C15.2822 76.7573 15.3417 76.6681 15.4161 76.6681C15.5054 76.6681 15.55 76.7425 15.7137 77.159C15.922 77.6798 18.0644 83.3185 18.8976 85.4014C19.3885 86.6214 19.7902 86.8297 20.0729 86.9189C20.2812 86.9933 20.4895 87.0082 20.6234 87.0082C20.7127 87.0082 20.7573 87.0231 20.7573 87.0975C20.7573 87.1718 20.6383 87.2016 20.4895 87.2016C20.2812 87.2016 19.2844 87.2016 18.3471 87.1718C18.0941 87.157 17.9305 87.157 17.9305 87.0826C17.9305 87.0231 17.9751 86.9933 18.0198 86.9933C18.109 86.9636 18.1834 86.8445 18.109 86.6214L16.8444 83.259C16.8146 83.1995 16.7849 83.1697 16.7254 83.1697H13.7796C13.7052 83.1697 13.6754 83.2143 13.6457 83.2738L12.8274 85.6989C12.7084 86.0411 12.634 86.3684 12.634 86.6214C12.634 86.8892 12.9166 87.0231 13.1547 87.0231H13.2886C13.3779 87.0231 13.4225 87.0528 13.4225 87.1123C13.4225 87.1867 13.3332 87.2165 13.2142 87.2165C12.8869 87.2165 12.2918 87.1718 12.143 87.1718C11.9942 87.1718 11.2354 87.2165 10.5957 87.2165C10.4172 87.2165 10.3428 87.1867 10.3428 87.1123C10.3428 87.0528 10.4023 87.0231 10.4618 87.0231C10.5511 87.0231 10.7445 87.0082 10.8635 86.9933C11.4884 86.904 11.771 86.3982 12.0091 85.7138L15.1186 77.2037ZM16.5468 82.6638C16.6212 82.6638 16.6212 82.6192 16.6064 82.5746L15.312 78.8849C15.2376 78.6766 15.1781 78.6766 15.1037 78.8849L13.8986 82.5746C13.8688 82.649 13.8986 82.6638 13.9432 82.6638H16.5468Z" fill="#FEFEFE"/>
<path d="M23.4948 83.8392C23.4948 85.5502 23.5246 86.2494 23.7477 86.4428C23.9412 86.6362 24.4024 86.7106 25.3397 86.7106C25.9645 86.7106 26.5001 86.6958 26.7828 86.3536C26.9316 86.175 27.0357 85.937 27.0655 85.6989C27.0804 85.6097 27.125 85.5502 27.1845 85.5502C27.244 85.5502 27.2738 85.6097 27.2738 85.7287C27.2738 85.8477 27.1845 86.547 27.0953 86.8892C27.006 87.157 26.9762 87.2016 26.3365 87.2016C25.4736 87.2016 24.8041 87.1867 24.2536 87.157C23.7031 87.1421 23.3014 87.1272 22.9443 87.1272C22.8848 87.1272 22.6914 87.1272 22.4534 87.1421C22.2004 87.157 21.9475 87.1718 21.7541 87.1718C21.6351 87.1718 21.5607 87.1421 21.5607 87.0826C21.5607 87.0379 21.5904 86.9933 21.65 86.9933C21.7541 86.9933 21.9029 86.9636 22.0219 86.9338C22.2599 86.8743 22.2748 86.666 22.3343 86.3238C22.4087 85.8477 22.4087 84.9253 22.4087 83.8094V81.7563C22.4087 79.9561 22.4087 79.6288 22.379 79.2568C22.3492 78.8551 22.2897 78.6766 21.888 78.6171C21.7987 78.6022 21.5904 78.5873 21.4714 78.5873C21.4268 78.5873 21.3822 78.5278 21.3822 78.498C21.3822 78.4237 21.4417 78.4088 21.5756 78.4088C22.126 78.4088 22.8699 78.4385 22.9443 78.4385C23.0038 78.4385 23.8965 78.4088 24.2685 78.4088C24.3875 78.4088 24.4619 78.4385 24.4619 78.498C24.4619 78.5427 24.4024 78.5873 24.3726 78.5873C24.2833 78.5873 24.1197 78.6022 23.9709 78.6171C23.6138 78.6915 23.5543 78.87 23.5246 79.2717C23.5097 79.6436 23.5097 79.9709 23.5097 81.7712V83.8392H23.4948Z" fill="#FEFEFE"/>
<path d="M33.1506 86.6511C34.4152 86.6511 34.7425 86.4428 35.0252 86.1155C35.1442 85.9667 35.2335 85.6543 35.2781 85.4906C35.3078 85.3865 35.3525 85.3121 35.412 85.3121C35.4864 85.3121 35.5013 85.3567 35.5013 85.565C35.5013 85.937 35.3376 86.6214 35.2483 86.904C35.1739 87.1867 35.1591 87.2016 34.8913 87.2016C32.8828 87.2016 30.8445 87.1421 28.7467 87.1421C28.6128 87.1421 28.5235 87.1272 28.5235 87.0528C28.5235 86.9933 28.5384 86.9189 28.6872 86.6958C30.4874 84.0921 32.2728 81.5034 33.9242 78.9146H31.3801C30.7701 78.9146 30.056 78.8997 29.6691 79.108C29.2526 79.3312 29.0294 79.7478 28.9848 80.0305C28.955 80.209 28.8955 80.2388 28.8211 80.2388C28.7616 80.2388 28.7467 80.1792 28.7467 80.09C28.7467 79.9561 28.9252 78.8997 28.9996 78.5427C29.0145 78.379 29.0443 78.3195 29.1038 78.3195C29.2079 78.3195 29.2972 78.3939 29.6096 78.4088C30.7552 78.4534 31.3355 78.4385 31.7074 78.4385H35.0698C35.2483 78.4385 35.3227 78.4683 35.3227 78.5278C35.3227 78.5873 35.3078 78.6617 35.2483 78.7361C33.4927 81.4141 31.752 84.0029 29.9369 86.6511H33.1506Z" fill="#FEFEFE"/>
<path d="M45.3802 83.8243C45.3802 84.9402 45.395 85.8626 45.4546 86.3387C45.4992 86.6809 45.5289 86.904 45.886 86.9487C46.0497 86.9784 46.3175 87.0082 46.4216 87.0082C46.5109 87.0082 46.5258 87.0677 46.5258 87.0975C46.5258 87.157 46.4514 87.1867 46.3175 87.1867C45.6628 87.1867 44.8892 87.1421 44.8297 87.1421C44.7702 87.1421 43.9965 87.1867 43.6395 87.1867C43.5056 87.1867 43.446 87.157 43.446 87.0975C43.446 87.0528 43.4758 87.0082 43.5353 87.0082C43.6395 87.0082 43.7882 86.9784 43.8924 86.9487C44.1453 86.8892 44.1751 86.666 44.2197 86.3238C44.2792 85.8477 44.2792 84.9699 44.2792 83.8541V82.6936C44.2792 82.6341 44.2494 82.6192 44.2048 82.6192H39.191C39.1463 82.6192 39.1166 82.6341 39.1166 82.6936V83.8541C39.1166 84.9699 39.1166 85.8626 39.1761 86.3387C39.2207 86.6809 39.2654 86.904 39.6076 86.9487C39.7861 86.9784 40.039 87.0082 40.158 87.0082C40.2324 87.0082 40.2473 87.0677 40.2473 87.0975C40.2473 87.157 40.1878 87.1867 40.0539 87.1867C39.3844 87.1867 38.6256 87.1421 38.5661 87.1421C38.4917 87.1421 37.7329 87.1867 37.361 87.1867C37.242 87.1867 37.1676 87.157 37.1676 87.0975C37.1676 87.0528 37.1973 87.0082 37.2569 87.0082C37.361 87.0082 37.5098 86.9784 37.6288 86.9487C37.8668 86.8892 37.8817 86.6809 37.9412 86.3387C38.0156 85.8626 38.0156 84.9402 38.0156 83.8243V81.7712C38.0156 79.9709 38.0156 79.6436 37.9859 79.2717C37.9561 78.87 37.8966 78.6915 37.4949 78.6319C37.4056 78.6171 37.1973 78.6022 37.0783 78.6022C37.0337 78.6022 36.989 78.5427 36.989 78.5129C36.989 78.4385 37.0486 78.4237 37.1825 78.4237C37.7329 78.4237 38.4917 78.4534 38.5661 78.4534C38.6256 78.4534 39.3844 78.4237 39.7563 78.4237C39.8902 78.4237 39.9497 78.4534 39.9497 78.5129C39.9497 78.5576 39.8902 78.6022 39.8605 78.6022C39.7712 78.6022 39.6968 78.6022 39.5629 78.6319C39.2356 78.7063 39.1612 78.87 39.1315 79.2717C39.1166 79.6436 39.1166 80.0007 39.1166 81.8009V82.0539C39.1166 82.1282 39.1463 82.1283 39.191 82.1283H44.2048C44.2494 82.1283 44.2792 82.1282 44.2792 82.0539V81.8009C44.2792 80.0007 44.2643 79.6436 44.2495 79.2717C44.2197 78.87 44.1602 78.6915 43.7734 78.6319C43.6841 78.6171 43.4758 78.6022 43.3568 78.6022C43.2973 78.6022 43.2675 78.5427 43.2675 78.5129C43.2675 78.4385 43.327 78.4237 43.4609 78.4237C43.9965 78.4237 44.7702 78.4534 44.8297 78.4534C44.9041 78.4534 45.6628 78.4237 46.0199 78.4237C46.1538 78.4237 46.2282 78.4534 46.2282 78.5129C46.2282 78.5576 46.1687 78.6022 46.1241 78.6022C46.0348 78.6022 45.9753 78.6022 45.8265 78.6319C45.5141 78.7063 45.4397 78.87 45.4099 79.2717C45.3802 79.6436 45.3802 79.9709 45.3802 81.7712V83.8243Z" fill="#FEFEFE"/>
<path d="M49.3377 81.7712C49.3377 79.9709 49.3377 79.6436 49.3079 79.2717C49.2782 78.87 49.2187 78.6915 48.817 78.6319C48.7277 78.6171 48.5194 78.6022 48.4004 78.6022C48.3557 78.6022 48.3111 78.5427 48.3111 78.5129C48.3111 78.4385 48.3706 78.4237 48.5045 78.4237C49.055 78.4237 49.8287 78.4534 49.903 78.4534C49.9923 78.4534 52.4918 78.4683 52.7745 78.4534C53.0125 78.4385 53.2208 78.3939 53.325 78.379C53.3845 78.3641 53.4291 78.3195 53.4886 78.3195C53.5332 78.3195 53.5481 78.379 53.5481 78.4237C53.5481 78.5129 53.4737 78.6468 53.4589 78.9741C53.444 79.0783 53.4142 79.599 53.3845 79.7329C53.3696 79.7924 53.3249 79.8519 53.2803 79.8519C53.2059 79.8519 53.1911 79.7924 53.1911 79.7032C53.1911 79.6139 53.1762 79.4353 53.1167 79.2866C53.0423 79.0932 52.9084 79.0188 52.2537 78.9295C52.0455 78.8997 50.6618 78.8849 50.513 78.8849C50.4535 78.8849 50.4386 78.9295 50.4386 79.0039V82.1729C50.4386 82.2621 50.4386 82.2919 50.513 82.2919C50.6618 82.2919 52.2537 82.2919 52.5215 82.2621C52.8042 82.2324 52.9828 82.2175 53.1018 82.0985C53.1911 82.0092 53.2357 81.9497 53.2803 81.9497C53.3249 81.9497 53.3547 81.9795 53.3547 82.039C53.3547 82.1134 53.2803 82.2919 53.2654 82.6787C53.2357 82.9168 53.2059 83.3482 53.2059 83.4375C53.2059 83.5268 53.1762 83.6607 53.1018 83.6607C53.0423 83.6607 53.0125 83.616 53.0125 83.5565C53.0125 83.4524 53.0125 83.3185 52.953 83.1697C52.9084 83.006 52.8042 82.8721 52.343 82.8126C52.0157 82.768 50.7362 82.7531 50.5279 82.7531C50.4535 82.7531 50.4386 82.7978 50.4386 82.8275V83.7946C50.4386 84.1963 50.4238 85.5502 50.4386 85.7733C50.4684 86.547 50.6916 86.6958 51.8669 86.6958C52.1794 86.6958 52.7596 86.6957 53.072 86.5767C53.3845 86.4428 53.5481 86.2345 53.6225 85.7733C53.6523 85.6394 53.682 85.5948 53.7415 85.5948C53.8159 85.5948 53.8308 85.6841 53.8308 85.7733C53.8308 85.8626 53.7415 86.6511 53.6671 86.8892C53.5928 87.1867 53.4589 87.1867 52.9976 87.1867C52.0901 87.1867 51.4057 87.157 50.9147 87.1421C50.4089 87.1123 50.0965 87.1123 49.9179 87.1123C49.8882 87.1123 49.665 87.1123 49.3972 87.1272C49.1591 87.1421 48.8913 87.157 48.6979 87.157C48.5789 87.157 48.5045 87.1272 48.5045 87.0677C48.5045 87.0231 48.5343 86.9784 48.5938 86.9784C48.6979 86.9784 48.8467 86.9338 48.9657 86.9189C49.2038 86.8743 49.2187 86.6511 49.2782 86.3089C49.3526 85.8328 49.3526 84.9104 49.3526 83.7946V81.7712H49.3377Z" fill="#FEFEFE"/>
<path d="M57.9668 83.8243C57.9668 84.9402 57.9669 85.8626 58.0264 86.3387C58.071 86.6809 58.1156 86.904 58.4578 86.9487C58.6364 86.9784 58.8893 87.0082 59.0083 87.0082C59.0827 87.0082 59.0976 87.0677 59.0976 87.0975C59.0976 87.157 59.0381 87.1867 58.9042 87.1867C58.2347 87.1867 57.461 87.1421 57.4015 87.1421C57.3271 87.1421 56.5832 87.1867 56.2113 87.1867C56.0922 87.1867 56.0178 87.157 56.0178 87.0975C56.0178 87.0528 56.0476 87.0082 56.1071 87.0082C56.2113 87.0082 56.36 86.9784 56.4791 86.9487C56.7171 86.8892 56.7469 86.6809 56.7915 86.3387C56.851 85.8626 56.8659 84.9402 56.8659 83.8243V81.7712C56.8659 79.9709 56.8659 79.6436 56.8361 79.2717C56.8064 78.87 56.7171 78.6915 56.4493 78.6468C56.3154 78.6171 56.1666 78.6022 56.0774 78.6022C56.0178 78.6022 55.9881 78.5427 55.9881 78.5129C55.9881 78.4385 56.0476 78.4237 56.1815 78.4237C56.5832 78.4237 57.3271 78.4534 57.4015 78.4534C57.461 78.4534 58.2347 78.4237 58.6066 78.4237C58.7405 78.4237 58.8 78.4534 58.8 78.5129C58.8 78.5576 58.7405 78.6022 58.7107 78.6022C58.6215 78.6022 58.5471 78.6022 58.4132 78.6319C58.0859 78.7063 58.0115 78.87 57.9966 79.2717C57.9817 79.6436 57.9817 79.9709 57.9817 81.7712V83.8243H57.9668Z" fill="#FEFEFE"/>
<path d="M71.1784 85.6841C71.223 86.1006 71.2974 86.7255 71.7884 86.8892C72.1306 86.9933 72.443 86.9933 72.562 86.9933C72.6216 86.9933 72.6513 87.0231 72.6513 87.0826C72.6513 87.157 72.5472 87.1867 72.3984 87.1867C72.1306 87.1867 70.7916 87.157 70.3452 87.1123C70.0626 87.0826 70.0031 87.0379 70.0031 86.9933C70.0031 86.9487 70.0328 86.904 70.0923 86.904C70.1667 86.8892 70.1667 86.7106 70.1518 86.4875L69.5716 80.6107H69.5418L66.6407 86.547C66.3877 87.0528 66.3282 87.157 66.2241 87.157C66.1199 87.157 66.0455 87.0528 65.8075 86.6214C65.495 86.0411 64.7065 84.5533 64.3941 83.9285C64.037 83.1846 63.07 81.2356 62.8617 80.7595H62.8022L62.3409 86.0114C62.3261 86.1899 62.3261 86.4131 62.3261 86.6065C62.3261 86.785 62.4302 86.8892 62.6087 86.9338C62.817 86.9933 62.9956 87.0082 63.07 87.0082C63.1146 87.0082 63.1592 87.0528 63.1592 87.0975C63.1592 87.1718 63.07 87.2016 62.9361 87.2016C62.4897 87.2016 61.9095 87.157 61.8202 87.157C61.7161 87.157 61.1358 87.2016 60.8085 87.2016C60.6895 87.2016 60.6002 87.1718 60.6002 87.0975C60.6002 87.0528 60.6597 87.0082 60.7193 87.0082C60.8085 87.0082 60.8978 86.9933 61.0763 86.9636C61.478 86.8892 61.4929 86.4726 61.5375 86.0411L62.4153 78.4534C62.4302 78.3344 62.4897 78.2451 62.5492 78.2451C62.6385 78.2451 62.7278 78.2898 62.8022 78.4237L66.4324 85.6394L69.9287 78.4385C69.9882 78.3344 70.0328 78.2451 70.1221 78.2451C70.1965 78.2451 70.2709 78.3344 70.3006 78.5576L71.1784 85.6841Z" fill="#FEFEFE"/>
<path d="M74.8086 81.7712C74.8086 79.9709 74.8086 79.6436 74.7788 79.2717C74.7491 78.87 74.6896 78.6915 74.2879 78.6319C74.1986 78.6171 73.9903 78.6022 73.8713 78.6022C73.8267 78.6022 73.782 78.5427 73.782 78.5129C73.782 78.4385 73.8415 78.4237 73.9754 78.4237C74.5259 78.4237 75.2996 78.4534 75.374 78.4534C75.4632 78.4534 77.9627 78.4683 78.2454 78.4534C78.4834 78.4385 78.6917 78.3939 78.7959 78.379C78.8554 78.3641 78.9 78.3195 78.9595 78.3195C79.0042 78.3195 79.019 78.379 79.019 78.4237C79.019 78.5129 78.9447 78.6468 78.9298 78.9741C78.9149 79.0783 78.8851 79.599 78.8554 79.7329C78.8405 79.7924 78.7959 79.8519 78.7512 79.8519C78.6768 79.8519 78.662 79.7924 78.662 79.7032C78.662 79.6139 78.6471 79.4353 78.5876 79.2866C78.4983 79.0932 78.3793 79.0188 77.7247 78.9295C77.5164 78.8997 76.1327 78.8849 75.984 78.8849C75.9244 78.8849 75.9096 78.9295 75.9096 79.0039V82.1729C75.9096 82.2621 75.9096 82.2919 75.984 82.2919C76.1327 82.2919 77.7247 82.2919 77.9925 82.2621C78.2751 82.2324 78.4537 82.2175 78.5727 82.0985C78.6471 82.0092 78.7066 81.9497 78.7512 81.9497C78.7959 81.9497 78.8256 81.9795 78.8256 82.039C78.8256 82.1134 78.7512 82.2919 78.7364 82.6787C78.7066 82.9168 78.6768 83.3482 78.6768 83.4375C78.6768 83.5268 78.6471 83.6607 78.5727 83.6607C78.5132 83.6607 78.4834 83.616 78.4834 83.5565C78.4834 83.4524 78.4834 83.3185 78.4239 83.1697C78.3793 83.006 78.2751 82.8721 77.8139 82.8126C77.4866 82.768 76.2071 82.7531 75.9988 82.7531C75.9244 82.7531 75.9096 82.7978 75.9096 82.8275V83.7946C75.9096 84.1963 75.8947 85.5502 75.9096 85.7733C75.9393 86.547 76.1625 86.6958 77.3378 86.6958C77.6503 86.6958 78.2305 86.6957 78.5429 86.5767C78.8554 86.4428 79.019 86.2345 79.0934 85.7733C79.1232 85.6394 79.1529 85.5948 79.2124 85.5948C79.2868 85.5948 79.3017 85.6841 79.3017 85.7733C79.3017 85.8626 79.2124 86.6511 79.1381 86.8892C79.0637 87.1867 78.9298 87.1867 78.4686 87.1867C77.561 87.1867 76.8766 87.157 76.3708 87.1421C75.8649 87.1123 75.5525 87.1123 75.374 87.1123C75.3442 87.1123 75.121 87.1123 74.8532 87.1272C74.6152 87.1421 74.3474 87.157 74.154 87.157C74.035 87.157 73.9606 87.1272 73.9606 87.0677C73.9606 87.0231 73.9903 86.9784 74.0498 86.9784C74.154 86.9784 74.3028 86.9338 74.4218 86.9189C74.6598 86.8743 74.6747 86.6511 74.7342 86.3089C74.8086 85.8328 74.8086 84.9104 74.8086 83.7946V81.7712Z" fill="#FEFEFE"/>
<path d="M82.3368 81.7712C82.3368 79.9709 82.3368 79.6436 82.3071 79.2717C82.2773 78.87 82.2178 78.6915 81.8161 78.6319C81.7268 78.6171 81.5185 78.6022 81.3995 78.6022C81.3549 78.6022 81.3102 78.5427 81.3102 78.5129C81.3102 78.4385 81.3697 78.4237 81.5036 78.4237C82.0541 78.4237 82.8575 78.4534 82.9319 78.4534C83.0509 78.4534 84.0626 78.4237 84.4346 78.4237C85.1934 78.4237 86.0414 78.498 86.6811 78.9295C86.9787 79.1527 87.5143 79.7032 87.5143 80.5214C87.5143 81.3844 87.1572 82.2175 86.0414 83.1697C87.0233 84.4046 87.8565 85.446 88.5558 86.175C89.1955 86.8297 89.5972 86.9338 89.8948 86.9784C90.1328 87.0231 90.2518 87.0231 90.3113 87.0231C90.3857 87.0231 90.4155 87.0826 90.4155 87.1123C90.4155 87.1867 90.3411 87.2016 90.1328 87.2016H89.374C88.6897 87.2016 88.3921 87.1272 88.0945 86.9636C87.5738 86.6958 87.1424 86.1304 86.458 85.2526C85.9521 84.6277 85.4165 83.8689 85.1636 83.5565C85.1041 83.497 85.0892 83.4821 84.9999 83.4821L83.4675 83.4524C83.408 83.4524 83.3783 83.4821 83.3783 83.5416V83.8094C83.3783 84.9253 83.3783 85.8328 83.4378 86.3089C83.4824 86.6511 83.5419 86.8743 83.9139 86.9189C84.0775 86.9487 84.3304 86.9784 84.4495 86.9784C84.5238 86.9784 84.5387 87.0379 84.5387 87.0677C84.5387 87.1272 84.4792 87.157 84.3453 87.157C83.6907 87.157 82.917 87.1123 82.8724 87.1123C82.8575 87.1123 82.0541 87.157 81.6822 87.157C81.5632 87.157 81.4888 87.1272 81.4888 87.0677C81.4888 87.0231 81.5185 86.9784 81.578 86.9784C81.6822 86.9784 81.831 86.9487 81.95 86.9189C82.188 86.8594 82.2029 86.6511 82.2624 86.3089C82.3368 85.8328 82.3368 84.9104 82.3368 83.7946V81.7712ZM83.3783 82.7531C83.3783 82.8275 83.408 82.8573 83.4675 82.9019C83.6461 82.9912 84.2561 83.0804 84.7917 83.0804C85.0743 83.0804 85.4016 83.0656 85.6992 82.8721C86.1158 82.6043 86.4282 81.9795 86.4282 81.1017C86.4282 79.6585 85.6397 78.8254 84.3453 78.8254C83.9882 78.8254 83.6014 78.87 83.4824 78.8997C83.4229 78.9295 83.3931 78.9741 83.3931 79.0337V82.7531H83.3783Z" fill="#FEFEFE"/>
<path d="M89.5972 78.8254C89.4931 78.7063 89.4782 78.6617 89.4782 78.5873C89.4782 78.5427 89.5526 78.5129 89.5972 78.498C89.8204 78.498 90.3411 78.6617 90.5494 78.751C90.7131 78.8402 90.7874 78.8997 90.7874 79.108C90.7874 80.0751 90.0882 81.2207 89.6121 81.8009C89.5526 81.8902 89.5079 81.9051 89.4336 81.9051C89.4038 81.9051 89.3592 81.8753 89.3592 81.8307C89.3592 81.7861 89.374 81.7414 89.4187 81.6522C89.627 81.2207 89.865 80.4768 89.865 79.7032C89.8799 79.2866 89.7014 78.9295 89.5972 78.8254Z" fill="#FEFEFE"/>
<path d="M92.5579 87.0231C92.3942 86.9487 92.3794 86.904 92.3794 86.5916C92.3794 86.0114 92.4389 85.5502 92.4538 85.3568C92.4538 85.2377 92.4835 85.1633 92.543 85.1633C92.6174 85.1633 92.6472 85.208 92.6472 85.2972C92.6472 85.3865 92.6472 85.5502 92.6918 85.7138C92.8852 86.5619 93.7779 86.8594 94.5962 86.8594C95.7864 86.8594 96.3964 86.1899 96.3964 85.3121C96.3964 84.4789 95.9501 84.0772 94.8789 83.2887L94.3284 82.8721C93.034 81.9051 92.6025 81.1909 92.6025 80.3875C92.6025 79.0188 93.6886 78.2005 95.2657 78.2005C95.7418 78.2005 96.2179 78.2749 96.5154 78.3344C96.7535 78.3939 96.8427 78.3939 96.932 78.3939C97.0213 78.3939 97.051 78.4088 97.051 78.4832C97.051 78.5427 96.9915 78.9146 96.9915 79.718C96.9915 79.8966 96.9766 79.971 96.9022 79.971C96.813 79.971 96.813 79.9114 96.7981 79.8222C96.7832 79.6883 96.6939 79.3758 96.6196 79.2419C96.5303 79.108 96.1435 78.6617 95.0574 78.6617C94.1796 78.6617 93.4655 79.0932 93.4655 79.9114C93.4655 80.6553 93.8374 81.0719 95.0276 81.8753L95.3698 82.1134C96.8279 83.1102 97.3337 83.9136 97.3337 84.9104C97.3337 85.5948 97.0808 86.3387 96.2179 86.8892C95.712 87.2165 94.9681 87.3057 94.2986 87.3057C93.7481 87.3355 93.0489 87.2611 92.5579 87.0231Z" fill="#FEFEFE"/>
<path d="M16.6062 91.9923C16.6062 91.0996 16.6062 90.9509 16.5914 90.7574C16.5765 90.564 16.5467 90.4748 16.3533 90.445C16.3087 90.445 16.2045 90.4301 16.145 90.4301C16.1302 90.4301 16.1004 90.4004 16.1004 90.3855C16.1004 90.3557 16.1302 90.3409 16.1897 90.3409C16.4575 90.3409 16.8592 90.3557 16.8889 90.3557C16.9484 90.3557 17.4394 90.3409 17.6328 90.3409C18.0048 90.3409 18.4213 90.3706 18.7338 90.5938C18.8826 90.6979 19.1504 90.9806 19.1504 91.3674C19.1504 91.784 18.9718 92.2006 18.4213 92.6767C18.8974 93.2867 19.314 93.7925 19.6562 94.1496C19.9686 94.4769 20.1621 94.5215 20.3108 94.5513C20.4299 94.5662 20.4894 94.5662 20.5191 94.5662C20.5489 94.5662 20.5786 94.5959 20.5786 94.6108C20.5786 94.6406 20.5489 94.6554 20.4447 94.6554H20.0728C19.7306 94.6554 19.5967 94.6257 19.4479 94.5364C19.195 94.4025 18.9718 94.1198 18.6445 93.7033C18.3916 93.3908 18.1387 93.0189 18.0048 92.8701C17.975 92.8403 17.9601 92.8403 17.9304 92.8403L17.1716 92.8255C17.1418 92.8255 17.127 92.8403 17.127 92.8701V93.004C17.127 93.5545 17.127 94.0008 17.1567 94.2389C17.1716 94.4025 17.2162 94.5067 17.3948 94.5364C17.4692 94.5513 17.6031 94.5662 17.6626 94.5662C17.7072 94.5662 17.7072 94.5959 17.7072 94.6108C17.7072 94.6406 17.6774 94.6554 17.6179 94.6554C17.2906 94.6554 16.9187 94.6406 16.8889 94.6406C16.8889 94.6406 16.4872 94.6554 16.3087 94.6554C16.2492 94.6554 16.2194 94.6406 16.2194 94.6108C16.2194 94.5959 16.2343 94.5662 16.2641 94.5662C16.3236 94.5662 16.398 94.5513 16.4426 94.5364C16.5616 94.5067 16.5765 94.4025 16.5914 94.2389C16.6211 94.0008 16.6211 93.5545 16.6211 93.004V91.9923H16.6062ZM17.1121 92.4684C17.1121 92.4982 17.127 92.5279 17.1567 92.5428C17.246 92.5874 17.5435 92.632 17.8114 92.632C17.9453 92.632 18.1089 92.632 18.2577 92.5279C18.466 92.394 18.6148 92.0965 18.6148 91.6501C18.6148 90.936 18.2279 90.5343 17.5882 90.5343C17.4096 90.5343 17.2311 90.5491 17.1716 90.564C17.1418 90.5789 17.127 90.5938 17.127 90.6384V92.4684H17.1121Z" fill="#FEFEFE"/>
<path d="M21.1142 91.9923C21.1142 91.0996 21.1142 90.9509 21.0994 90.7574C21.0845 90.564 21.0547 90.4748 20.8613 90.445C20.8167 90.445 20.7125 90.4301 20.653 90.4301C20.6381 90.4301 20.6084 90.4004 20.6084 90.3855C20.6084 90.3557 20.6381 90.3409 20.6977 90.3409C20.9655 90.3409 21.3523 90.3557 21.382 90.3557C21.4267 90.3557 22.6615 90.3557 22.7954 90.3557C22.9145 90.3557 23.0186 90.326 23.0632 90.326C23.093 90.326 23.1228 90.2962 23.1376 90.2962C23.1525 90.2962 23.1674 90.326 23.1674 90.3557C23.1674 90.4004 23.1376 90.4599 23.1228 90.6235C23.1228 90.683 23.1079 90.936 23.093 90.9955C23.093 91.0252 23.0632 91.055 23.0335 91.055C23.0037 91.055 22.9889 91.0252 22.9889 90.9806C22.9889 90.936 22.9889 90.8467 22.9591 90.7723C22.9145 90.683 22.8549 90.6384 22.5425 90.5938C22.4384 90.5789 21.754 90.5789 21.6945 90.5789C21.6647 90.5789 21.6647 90.5938 21.6647 90.6384V92.1857C21.6647 92.2303 21.6647 92.2452 21.6945 92.2452C21.7689 92.2452 22.5425 92.2452 22.6764 92.2303C22.8103 92.2155 22.8996 92.2155 22.9591 92.156C23.0037 92.1113 23.0335 92.0816 23.0484 92.0816C23.0632 92.0816 23.0781 92.0965 23.0781 92.1262C23.0781 92.156 23.0484 92.2601 23.0335 92.4386C23.0186 92.5577 23.0037 92.766 23.0037 92.8106C23.0037 92.8552 22.9889 92.9147 22.9442 92.9147C22.9145 92.9147 22.8996 92.8998 22.8996 92.8552C22.8996 92.7957 22.8996 92.7362 22.8698 92.6618C22.8549 92.5874 22.7954 92.513 22.5723 92.4833C22.4086 92.4684 21.7837 92.4535 21.6796 92.4535C21.6498 92.4535 21.635 92.4684 21.635 92.4982V92.9742C21.635 93.1676 21.635 93.8372 21.635 93.9413C21.6498 94.3281 21.754 94.4025 22.3342 94.4025C22.483 94.4025 22.7657 94.4025 22.9293 94.343C23.0781 94.2686 23.1674 94.1793 23.1971 93.9413C23.212 93.8818 23.2269 93.852 23.2567 93.852C23.2864 93.852 23.3013 93.8967 23.3013 93.9413C23.3013 93.9859 23.2567 94.3728 23.2269 94.4918C23.1823 94.6406 23.1228 94.6406 22.8996 94.6406C22.4532 94.6406 22.1111 94.6257 21.873 94.6257C21.6201 94.6108 21.4713 94.6108 21.382 94.6108C21.3672 94.6108 21.2481 94.6108 21.1291 94.6108C21.0101 94.6108 20.8762 94.6257 20.7869 94.6257C20.7274 94.6257 20.6977 94.6108 20.6977 94.5811C20.6977 94.5662 20.7125 94.5364 20.7423 94.5364C20.8018 94.5364 20.8762 94.5215 20.9208 94.5067C21.0398 94.4918 21.0547 94.3728 21.0696 94.2091C21.0994 93.9711 21.0994 93.5247 21.0994 92.9742V91.9923H21.1142Z" fill="#FEFEFE"/>
<path d="M24.313 94.5662C24.2386 94.5215 24.2237 94.5067 24.2237 94.3579C24.2237 94.0752 24.2535 93.852 24.2535 93.7479C24.2535 93.6884 24.2683 93.6586 24.2981 93.6586C24.3279 93.6586 24.3576 93.6735 24.3576 93.733C24.3576 93.7776 24.3576 93.8669 24.3725 93.9413C24.4618 94.3579 24.9081 94.5067 25.3098 94.5067C25.89 94.5067 26.2025 94.1793 26.2025 93.7479C26.2025 93.3313 25.9793 93.1379 25.4586 92.7511L25.1908 92.5577C24.551 92.0816 24.3427 91.7394 24.3427 91.3377C24.3427 90.6682 24.8783 90.2665 25.652 90.2665C25.89 90.2665 26.1281 90.2962 26.262 90.3409C26.381 90.3706 26.4256 90.3706 26.4703 90.3706C26.5149 90.3706 26.5298 90.3706 26.5298 90.4153C26.5298 90.445 26.5 90.6235 26.5 91.0252C26.5 91.1145 26.5 91.1591 26.4554 91.1591C26.4108 91.1591 26.4108 91.1294 26.3959 91.0848C26.3959 91.0104 26.3364 90.8616 26.3066 90.8021C26.262 90.7426 26.0686 90.5194 25.5478 90.5194C25.1164 90.5194 24.7593 90.7277 24.7593 91.1443C24.7593 91.5013 24.9379 91.7096 25.5181 92.1113L25.6817 92.2303C26.3959 92.7213 26.6488 93.123 26.6488 93.5991C26.6488 93.9413 26.5149 94.2984 26.0983 94.5662C25.8454 94.7298 25.4735 94.7745 25.161 94.7745C24.9081 94.7298 24.5659 94.6852 24.313 94.5662Z" fill="#FEFEFE"/>
<path d="M28.1961 91.9923C28.1961 91.0996 28.1961 90.9509 28.1812 90.7574C28.1664 90.564 28.1366 90.4748 27.9432 90.445C27.8985 90.445 27.7944 90.4301 27.7349 90.4301C27.72 90.4301 27.6903 90.4004 27.6903 90.3855C27.6903 90.3557 27.72 90.3409 27.7795 90.3409C28.0473 90.3409 28.4342 90.3557 28.4639 90.3557C28.5085 90.3557 29.7434 90.3557 29.8773 90.3557C29.9963 90.3557 30.1005 90.326 30.1451 90.326C30.1749 90.326 30.2046 90.2962 30.2195 90.2962C30.2344 90.2962 30.2493 90.326 30.2493 90.3557C30.2493 90.4004 30.2195 90.4599 30.2046 90.6235C30.2046 90.683 30.1897 90.936 30.1749 90.9955C30.1749 91.0252 30.1451 91.055 30.1154 91.055C30.0856 91.055 30.0707 91.0252 30.0707 90.9806C30.0707 90.936 30.0707 90.8467 30.041 90.7723C29.9963 90.683 29.9368 90.6384 29.6244 90.5938C29.5202 90.5789 28.8359 90.5789 28.7763 90.5789C28.7466 90.5789 28.7466 90.5938 28.7466 90.6384V92.1857C28.7466 92.2303 28.7466 92.2452 28.7763 92.2452C28.8507 92.2452 29.6244 92.2452 29.7583 92.2303C29.8922 92.2155 29.9815 92.2155 30.041 92.156C30.0856 92.1113 30.1154 92.0816 30.1302 92.0816C30.1451 92.0816 30.16 92.0965 30.16 92.1262C30.16 92.156 30.1302 92.2601 30.1154 92.4386C30.1005 92.5577 30.0856 92.766 30.0856 92.8106C30.0856 92.8552 30.0707 92.9147 30.0261 92.9147C29.9963 92.9147 29.9815 92.8998 29.9815 92.8552C29.9815 92.7957 29.9815 92.7362 29.9517 92.6618C29.9368 92.5874 29.8773 92.513 29.6541 92.4833C29.4905 92.4684 28.8656 92.4535 28.7615 92.4535C28.7317 92.4535 28.7168 92.4684 28.7168 92.4982V92.9742C28.7168 93.1676 28.7168 93.8372 28.7168 93.9413C28.7317 94.3281 28.8359 94.4025 29.4161 94.4025C29.5649 94.4025 29.8476 94.4025 30.0112 94.343C30.16 94.2686 30.2493 94.1793 30.279 93.9413C30.2939 93.8818 30.3088 93.852 30.3385 93.852C30.3683 93.852 30.3832 93.8967 30.3832 93.9413C30.3832 93.9859 30.3385 94.3728 30.3088 94.4918C30.2641 94.6406 30.2046 94.6406 29.9815 94.6406C29.5351 94.6406 29.1929 94.6257 28.9549 94.6257C28.702 94.6108 28.5532 94.6108 28.4639 94.6108C28.449 94.6108 28.33 94.6108 28.211 94.6108C28.092 94.6108 27.9581 94.6257 27.8688 94.6257C27.8093 94.6257 27.7795 94.6108 27.7795 94.5811C27.7795 94.5662 27.7944 94.5364 27.8242 94.5364C27.8837 94.5364 27.9581 94.5215 28.0027 94.5067C28.1217 94.4918 28.1366 94.3728 28.1515 94.2091C28.1812 93.9711 28.1812 93.5247 28.1812 92.9742V91.9923H28.1961Z" fill="#FEFEFE"/>
<path d="M32.7934 90.4599C32.8678 90.2665 32.8975 90.2367 32.9273 90.2367C32.9868 90.2367 33.0017 90.3111 33.0612 90.445C33.1653 90.683 34.1175 93.0486 34.4746 93.9116C34.6829 94.4174 34.8465 94.4918 34.9804 94.5364C35.0697 94.5662 35.159 94.5662 35.2185 94.5662C35.2482 94.5662 35.2929 94.581 35.2929 94.6108C35.2929 94.6406 35.2185 94.6554 35.159 94.6554C35.0697 94.6554 34.6382 94.6554 34.2216 94.6406C34.1026 94.6406 34.0134 94.6406 34.0134 94.5959C34.0134 94.5662 34.0282 94.5662 34.058 94.5513C34.0877 94.5364 34.1473 94.4918 34.1175 94.4025L33.5819 93.0933C33.567 93.0635 33.567 93.0635 33.5224 93.0635H32.1834C32.1536 93.0635 32.1387 93.0784 32.1239 93.1081L31.7817 94.0157C31.7222 94.1496 31.6924 94.2984 31.6924 94.4025C31.6924 94.5215 31.7966 94.5513 31.9007 94.5513H31.9602C32.0048 94.5513 32.0197 94.5662 32.0197 94.5959C32.0197 94.6257 31.99 94.6406 31.9305 94.6406C31.7966 94.6406 31.4692 94.6257 31.3948 94.6257C31.3353 94.6257 31.0378 94.6406 30.7997 94.6406C30.7253 94.6406 30.6807 94.6257 30.6807 94.5959C30.6807 94.5662 30.7105 94.5513 30.7402 94.5513C30.7849 94.5513 30.8741 94.5513 30.9188 94.5364C31.1866 94.5067 31.3056 94.2984 31.4097 94.0157L32.7934 90.4599ZM33.4629 92.8255C33.4926 92.8255 33.4926 92.8106 33.4778 92.7808L32.8975 91.2187C32.8678 91.1294 32.8231 91.1294 32.7934 91.2187L32.2429 92.7808C32.2429 92.8106 32.2429 92.8255 32.2578 92.8255H33.4629Z" fill="#FEFEFE"/>
<path d="M36.0814 91.9923C36.0814 91.0996 36.0814 90.9509 36.0665 90.7574C36.0516 90.564 36.0219 90.4748 35.8285 90.445C35.7838 90.445 35.6797 90.4301 35.6202 90.4301C35.6053 90.4301 35.5755 90.4004 35.5755 90.3855C35.5755 90.3557 35.6053 90.3409 35.6648 90.3409C35.9326 90.3409 36.3343 90.3557 36.3641 90.3557C36.4236 90.3557 36.9145 90.3409 37.108 90.3409C37.4799 90.3409 37.8965 90.3706 38.2089 90.5938C38.3577 90.6979 38.6255 90.9806 38.6255 91.3674C38.6255 91.784 38.447 92.2006 37.8965 92.6767C38.3874 93.2867 38.7892 93.7925 39.1313 94.1496C39.4438 94.4769 39.6372 94.5215 39.786 94.5513C39.905 94.5662 39.9645 94.5662 39.9943 94.5662C40.024 94.5662 40.0538 94.5959 40.0538 94.6108C40.0538 94.6406 40.024 94.6554 39.9199 94.6554H39.5479C39.2057 94.6554 39.0718 94.6257 38.9231 94.5364C38.6701 94.4025 38.447 94.1198 38.1196 93.7033C37.8667 93.3908 37.6138 93.0189 37.4799 92.8701C37.4501 92.8403 37.4353 92.8403 37.4055 92.8403L36.6467 92.8255C36.617 92.8255 36.6021 92.8403 36.6021 92.8701V93.004C36.6021 93.5545 36.6021 94.0008 36.6319 94.2389C36.6467 94.4025 36.6914 94.5067 36.8699 94.5364C36.9443 94.5513 37.0782 94.5662 37.1377 94.5662C37.1823 94.5662 37.1823 94.5959 37.1823 94.6108C37.1823 94.6406 37.1526 94.6554 37.0931 94.6554C36.7658 94.6554 36.3938 94.6406 36.3641 94.6406C36.3641 94.6406 35.9624 94.6554 35.7838 94.6554C35.7243 94.6554 35.6946 94.6406 35.6946 94.6108C35.6946 94.5959 35.7094 94.5662 35.7392 94.5662C35.7987 94.5662 35.8731 94.5513 35.9177 94.5364C36.0367 94.5067 36.0516 94.4025 36.0665 94.2389C36.0963 94.0008 36.0963 93.5545 36.0963 93.004L36.0814 91.9923ZM36.6021 92.4684C36.6021 92.4982 36.617 92.5279 36.6467 92.5428C36.736 92.5874 37.0336 92.632 37.3014 92.632C37.4353 92.632 37.5989 92.632 37.7477 92.5279C37.956 92.394 38.1048 92.0965 38.1048 91.6501C38.1048 90.936 37.7179 90.5343 37.0782 90.5343C36.8997 90.5343 36.7211 90.5491 36.6616 90.564C36.6319 90.5789 36.617 90.5938 36.617 90.6384V92.4684H36.6021Z" fill="#FEFEFE"/>
<path d="M40.7382 94.1198C40.1579 93.6289 40.024 92.9742 40.024 92.4238C40.024 92.0369 40.1579 91.3823 40.6935 90.8616C41.0506 90.5194 41.5862 90.2516 42.4937 90.2516C42.7318 90.2516 43.0591 90.2665 43.3567 90.3111C43.5798 90.3557 43.7732 90.3855 43.9667 90.4004C44.0262 90.4004 44.041 90.4301 44.041 90.4599C44.041 90.5045 44.0262 90.5789 44.0113 90.7872C44.0113 90.9806 44.0113 91.293 43.9964 91.3674C43.9964 91.4567 43.9667 91.4865 43.922 91.4865C43.8774 91.4865 43.8774 91.4418 43.8774 91.3674C43.8774 91.1443 43.7881 90.9211 43.6245 90.8021C43.4162 90.6235 42.9847 90.4896 42.464 90.4896C41.7052 90.4896 41.3481 90.6979 41.1399 90.8913C40.7084 91.293 40.6043 91.7989 40.6043 92.3791C40.6043 93.4652 41.4672 94.4472 42.7318 94.4472C43.1781 94.4472 43.4757 94.4174 43.6988 94.1794C43.8327 94.0454 43.9071 93.8074 43.922 93.7033C43.9369 93.6437 43.9369 93.6289 43.9815 93.6289C44.0113 93.6289 44.041 93.6735 44.041 93.7033C44.041 93.7479 43.9667 94.2389 43.9071 94.4323C43.8774 94.5364 43.8625 94.5662 43.7584 94.5959C43.5203 94.6852 43.074 94.7298 42.6872 94.7298C41.8094 94.7298 41.1994 94.5215 40.7382 94.1198Z" fill="#FEFEFE"/>
<path d="M49.0549 93.004C49.0549 93.5545 49.0549 94.0008 49.0846 94.2389C49.0995 94.4025 49.1144 94.5067 49.2929 94.5364C49.3673 94.5513 49.5012 94.5662 49.5607 94.5662C49.6054 94.5662 49.6202 94.5959 49.6202 94.6108C49.6202 94.6406 49.5905 94.6554 49.5161 94.6554C49.1888 94.6554 48.8168 94.6406 48.7871 94.6406C48.7573 94.6406 48.3705 94.6554 48.2068 94.6554C48.1325 94.6554 48.1176 94.6406 48.1176 94.6108C48.1176 94.5959 48.1325 94.5662 48.1622 94.5662C48.2217 94.5662 48.2812 94.5513 48.3408 94.5364C48.4598 94.5067 48.4747 94.4025 48.5044 94.224C48.5342 93.9859 48.5342 93.5545 48.5342 93.004V92.4386C48.5342 92.4089 48.5193 92.4089 48.5044 92.4089H46.0198C46.0049 92.4089 45.99 92.4089 45.99 92.4386V93.004C45.99 93.5545 45.99 93.9859 46.0198 94.224C46.0347 94.3876 46.0644 94.4918 46.2281 94.5215C46.3174 94.5364 46.4364 94.5513 46.4959 94.5513C46.5257 94.5513 46.5405 94.5811 46.5405 94.5959C46.5405 94.6257 46.5108 94.6406 46.4513 94.6406C46.1239 94.6406 45.752 94.6257 45.7222 94.6257C45.6925 94.6257 45.3057 94.6406 45.1271 94.6406C45.0676 94.6406 45.0379 94.6257 45.0379 94.5959C45.0379 94.5811 45.0527 94.5513 45.0825 94.5513C45.142 94.5513 45.2164 94.5364 45.261 94.5215C45.3801 94.4918 45.3949 94.3876 45.4098 94.224C45.4396 93.9859 45.4396 93.5396 45.4396 92.9891V91.9923C45.4396 91.0996 45.4396 90.9509 45.4247 90.7574C45.4098 90.564 45.3801 90.4748 45.1866 90.445C45.142 90.445 45.0379 90.4301 44.9783 90.4301C44.9635 90.4301 44.9337 90.4004 44.9337 90.3855C44.9337 90.3557 44.9635 90.3409 45.023 90.3409C45.2908 90.3409 45.6627 90.3557 45.7074 90.3557C45.7371 90.3557 46.1091 90.3409 46.2876 90.3409C46.362 90.3409 46.3769 90.3557 46.3769 90.3855C46.3769 90.4004 46.3471 90.4301 46.3322 90.4301C46.2876 90.4301 46.2578 90.4301 46.1835 90.445C46.0198 90.4748 45.99 90.564 45.9752 90.7574C45.9752 90.936 45.9752 91.1145 45.9752 91.9923V92.1113C45.9752 92.1411 45.99 92.1411 46.0049 92.1411H48.4746C48.4895 92.1411 48.5044 92.1411 48.5044 92.1113V91.9923C48.5044 91.0996 48.5044 90.936 48.4895 90.7574C48.4747 90.564 48.4449 90.4748 48.2515 90.445C48.2068 90.445 48.1027 90.4301 48.0432 90.4301C48.0134 90.4301 47.9986 90.4004 47.9986 90.3855C47.9986 90.3557 48.0283 90.3409 48.0878 90.3409C48.3556 90.3409 48.7276 90.3557 48.7573 90.3557C48.7871 90.3557 49.1739 90.3409 49.3376 90.3409C49.412 90.3409 49.4417 90.3557 49.4417 90.3855C49.4417 90.4004 49.412 90.4301 49.3822 90.4301C49.3376 90.4301 49.3078 90.4301 49.2334 90.445C49.0846 90.4748 49.04 90.564 49.0251 90.7574C49.0103 90.936 49.0103 91.0996 49.0103 91.9923V93.004H49.0549Z" fill="#FEFEFE"/>
<path d="M52.938 91.9923C52.938 91.0996 52.938 90.9509 52.9231 90.7574C52.9083 90.564 52.8785 90.4748 52.6851 90.445C52.6405 90.445 52.5363 90.4301 52.4768 90.4301C52.4619 90.4301 52.4322 90.4004 52.4322 90.3855C52.4322 90.3557 52.4619 90.3409 52.5214 90.3409C52.7892 90.3409 53.1612 90.3557 53.1909 90.3557C53.31 90.3557 54.5895 90.3557 54.7234 90.3557C54.8424 90.3557 54.9316 90.3557 54.9912 90.326C55.0209 90.326 55.0507 90.2962 55.0656 90.2962C55.0953 90.2962 55.1102 90.326 55.1102 90.3557C55.1102 90.4004 55.0804 90.4599 55.0656 90.6235C55.0656 90.683 55.0507 90.936 55.0358 90.9955C55.0358 91.0252 55.006 91.055 54.9763 91.055C54.9465 91.055 54.9316 91.0252 54.9316 90.9955C54.9316 90.9508 54.9168 90.8616 54.8721 90.7872C54.8275 90.7128 54.6936 90.6235 54.4704 90.6235L53.5034 90.6087C53.4736 90.6087 53.4587 90.6235 53.4587 90.6682V92.2303C53.4587 92.2601 53.4587 92.2899 53.5034 92.2899H54.3068C54.4109 92.2899 54.5002 92.2899 54.5746 92.2899C54.7085 92.275 54.7977 92.2601 54.8573 92.1857C54.887 92.156 54.9168 92.1262 54.9316 92.1262C54.9614 92.1262 54.9614 92.1411 54.9614 92.1708C54.9614 92.2006 54.9168 92.3047 54.9019 92.4833C54.887 92.6023 54.887 92.8255 54.887 92.8701C54.887 92.9296 54.8721 92.9891 54.8275 92.9891C54.7977 92.9891 54.7829 92.9594 54.7829 92.9296C54.7829 92.8701 54.768 92.7957 54.7382 92.7213C54.7085 92.6469 54.6192 92.5725 54.4407 92.5428C54.2919 92.5279 53.5926 92.5279 53.4885 92.5279C53.4587 92.5279 53.4439 92.5428 53.4439 92.5874V93.0486C53.4439 93.614 53.4439 94.0603 53.4736 94.2835C53.4885 94.4472 53.5331 94.5513 53.6819 94.5811C53.7712 94.5959 53.8902 94.6108 53.9497 94.6108C53.9795 94.6108 53.9943 94.6406 53.9943 94.6554C53.9943 94.6852 53.9646 94.7001 53.9051 94.7001C53.5778 94.7001 53.1909 94.6852 53.1612 94.6852C53.1314 94.6852 52.7595 94.7001 52.5809 94.7001C52.5214 94.7001 52.4917 94.6852 52.4917 94.6554C52.4917 94.6406 52.5065 94.6108 52.5363 94.6108C52.5958 94.6108 52.6702 94.5959 52.7148 94.5811C52.8339 94.5662 52.8487 94.4472 52.8636 94.2835C52.8934 94.0454 52.8934 93.5991 52.8934 93.0486V91.9923H52.938Z" fill="#FEFEFE"/>
<path d="M58.1899 90.2516C59.514 90.2516 60.5257 91.0699 60.5257 92.394C60.5257 93.6735 59.5735 94.715 58.1601 94.715C56.5385 94.715 55.8541 93.495 55.8541 92.4684C55.8541 91.5608 56.5682 90.2516 58.1899 90.2516ZM58.3238 94.4918C58.8594 94.4918 59.9157 94.2091 59.9157 92.5577C59.9157 91.1889 59.0826 90.4748 58.1453 90.4748C57.1633 90.4748 56.4492 91.0996 56.4492 92.3345C56.4641 93.6586 57.2526 94.4918 58.3238 94.4918Z" fill="#FEFEFE"/>
<path d="M61.6416 91.9923C61.6416 91.0996 61.6416 90.9509 61.6267 90.7574C61.6118 90.5789 61.5821 90.4748 61.3886 90.445C61.344 90.445 61.2399 90.4301 61.1804 90.4301C61.1655 90.4301 61.1357 90.4004 61.1357 90.3855C61.1357 90.3557 61.1655 90.3409 61.225 90.3409C61.4928 90.3409 61.8499 90.3557 61.9094 90.3557C61.9689 90.3557 62.3259 90.3409 62.5045 90.3409C62.5789 90.3409 62.6086 90.3557 62.6086 90.3855C62.6086 90.4004 62.5789 90.4301 62.5491 90.4301C62.5045 90.4301 62.4747 90.4301 62.4003 90.445C62.2516 90.4748 62.2069 90.5789 62.1921 90.7574C62.1772 90.936 62.1772 91.0996 62.1772 91.9923V92.7957C62.1772 93.614 62.3557 93.9562 62.6086 94.1942C62.8913 94.462 63.1591 94.5067 63.4864 94.5067C63.8435 94.5067 64.2006 94.343 64.394 94.105C64.6767 93.7776 64.7362 93.3016 64.7362 92.7213V91.9923C64.7362 91.0996 64.7362 90.9509 64.7213 90.7574C64.7213 90.5789 64.6767 90.4748 64.4832 90.445C64.4386 90.445 64.3345 90.4301 64.275 90.4301C64.2452 90.4301 64.2303 90.4004 64.2303 90.3855C64.2303 90.3557 64.2601 90.3409 64.3196 90.3409C64.5874 90.3409 64.9296 90.3557 64.9593 90.3557C65.004 90.3557 65.2867 90.3409 65.4503 90.3409C65.5247 90.3409 65.5396 90.3557 65.5396 90.3855C65.5396 90.4004 65.5247 90.4301 65.4949 90.4301C65.4503 90.4301 65.4205 90.4301 65.3462 90.445C65.1825 90.4748 65.1527 90.5789 65.1379 90.7574C65.123 90.936 65.1379 91.0996 65.1379 91.9923V92.6023C65.1379 93.2123 65.0635 93.9115 64.5874 94.3132C64.1559 94.6852 63.6947 94.7298 63.3525 94.7298C63.1591 94.7298 62.5342 94.715 62.1177 94.3281C61.835 94.0603 61.5969 93.6586 61.5969 92.8255V91.9923H61.6416Z" fill="#FEFEFE"/>
<path d="M67.1017 93.8818C67.1166 94.3579 67.1761 94.4918 67.3249 94.5364C67.4291 94.5662 67.563 94.5662 67.6225 94.5662C67.6522 94.5662 67.6671 94.581 67.6671 94.6108C67.6671 94.6406 67.6225 94.6554 67.563 94.6554C67.2208 94.6554 66.9976 94.6406 66.9381 94.6406C66.8786 94.6406 66.6405 94.6554 66.3727 94.6554C66.3132 94.6554 66.2835 94.6554 66.2835 94.6108C66.2835 94.581 66.2983 94.5662 66.3281 94.5662C66.3727 94.5662 66.4769 94.5662 66.5661 94.5364C66.7149 94.4918 66.7298 94.343 66.7298 93.8223V90.5491C66.7298 90.326 66.7596 90.2665 66.8042 90.2665C66.8786 90.2665 66.9679 90.3855 67.0274 90.445C67.1166 90.5343 67.9795 91.4567 68.8871 92.394C69.4673 93.004 70.1071 93.6735 70.2856 93.8669L70.2261 91.0104C70.2261 90.6384 70.1815 90.5194 70.0029 90.4748C69.8988 90.4599 69.7649 90.445 69.7203 90.445C69.6756 90.445 69.6756 90.4153 69.6756 90.3855C69.6756 90.3557 69.7203 90.3409 69.7946 90.3409C70.0624 90.3409 70.3451 90.3557 70.4195 90.3557C70.4939 90.3557 70.6873 90.3409 70.9254 90.3409C70.9849 90.3409 71.0295 90.3409 71.0295 90.3855C71.0295 90.4004 70.9998 90.445 70.9551 90.445C70.9254 90.445 70.8807 90.445 70.8212 90.4599C70.6278 90.5045 70.6129 90.6087 70.6129 90.9509L70.5981 94.2984C70.5981 94.6703 70.598 94.715 70.5534 94.715C70.4939 94.715 70.4344 94.6703 70.1071 94.3728C70.0476 94.3132 69.1995 93.4801 68.5747 92.8255C67.8903 92.1113 67.2208 91.4121 67.0422 91.2038L67.1017 93.8818Z" fill="#FEFEFE"/>
<path d="M72.3239 91.9923C72.3239 91.0996 72.3239 90.9509 72.309 90.7574C72.2941 90.564 72.2644 90.4748 72.071 90.445C72.0263 90.445 71.9222 90.4301 71.8627 90.4301C71.8478 90.4301 71.818 90.4004 71.818 90.3855C71.818 90.3557 71.8478 90.3409 71.9073 90.3409C72.1751 90.3409 72.5619 90.3557 72.5917 90.3557C72.6661 90.3557 73.038 90.3409 73.3802 90.3409C73.9753 90.3409 75.0465 90.2813 75.7458 90.9955C76.0434 91.293 76.326 91.7691 76.326 92.4386C76.326 93.1528 76.0136 93.7033 75.6863 94.0454C75.4334 94.3132 74.8978 94.7001 73.9009 94.7001C73.648 94.7001 73.3356 94.6852 73.0827 94.6703C72.8297 94.6554 72.6214 94.6406 72.6066 94.6406C72.5917 94.6406 72.4875 94.6406 72.3685 94.6406C72.2495 94.6406 72.1007 94.6554 72.0114 94.6554C71.9519 94.6554 71.9222 94.6406 71.9222 94.6108C71.9222 94.5959 71.9371 94.5662 71.9668 94.5662C72.0263 94.5662 72.1007 94.5513 72.1454 94.5364C72.2644 94.5067 72.2793 94.4025 72.2941 94.2389C72.3239 94.0008 72.3239 93.5545 72.3239 93.004V91.9923ZM72.8595 92.6023C72.8595 93.2123 72.8595 93.733 72.8595 93.8372C72.8595 93.9711 72.8744 94.1793 72.9339 94.2537C73.0083 94.3579 73.2166 94.4769 73.9158 94.4769C74.4663 94.4769 74.9424 94.2984 75.2995 93.9562C75.6119 93.6735 75.7607 93.123 75.7607 92.6023C75.7607 91.8733 75.4482 91.4121 75.2102 91.174C74.6597 90.6087 74.0051 90.5343 73.2909 90.5343C73.1719 90.5343 72.9934 90.5491 72.9339 90.5789C72.8744 90.5938 72.8595 90.6235 72.8595 90.6979V92.6023Z" fill="#FEFEFE"/>
<path d="M78.5875 90.4599C78.6619 90.2665 78.6916 90.2367 78.7214 90.2367C78.7809 90.2367 78.7958 90.3111 78.8553 90.445C78.9594 90.683 79.9116 93.0486 80.2687 93.9116C80.477 94.4174 80.6406 94.4918 80.7745 94.5364C80.8638 94.5662 80.953 94.5662 81.0126 94.5662C81.0423 94.5662 81.087 94.581 81.087 94.6108C81.087 94.6406 81.0274 94.6554 80.953 94.6554C80.8638 94.6554 80.4323 94.6554 80.0157 94.6406C79.8967 94.6406 79.8074 94.6406 79.8074 94.5959C79.8074 94.5662 79.8223 94.5662 79.8521 94.5513C79.8818 94.5364 79.9414 94.4918 79.9116 94.4025L79.376 93.0933C79.3611 93.0635 79.3611 93.0635 79.3165 93.0635H77.9477C77.918 93.0635 77.9031 93.0784 77.8882 93.1081L77.546 94.0157C77.4865 94.1496 77.4567 94.2984 77.4567 94.4025C77.4567 94.5215 77.5609 94.5513 77.665 94.5513H77.7245C77.7692 94.5513 77.7841 94.5662 77.7841 94.5959C77.7841 94.6257 77.7543 94.6406 77.6948 94.6406C77.5609 94.6406 77.2336 94.6257 77.1592 94.6257C77.0997 94.6257 76.8021 94.6406 76.5641 94.6406C76.4897 94.6406 76.4451 94.6257 76.4451 94.5959C76.4451 94.5662 76.4748 94.5513 76.5046 94.5513C76.5492 94.5513 76.6385 94.5513 76.6831 94.5364C76.9509 94.5067 77.0699 94.2984 77.1741 94.0157L78.5875 90.4599ZM79.2421 92.8255C79.2719 92.8255 79.2719 92.8106 79.257 92.7808L78.6767 91.2187C78.647 91.1294 78.6023 91.1294 78.5726 91.2187L78.0221 92.7808C78.0221 92.8106 78.0221 92.8255 78.037 92.8255H79.2421Z" fill="#FEFEFE"/>
<path d="M82.7384 93.004C82.7384 93.5545 82.7384 94.0008 82.7682 94.2389C82.783 94.4025 82.8128 94.5067 82.9913 94.5364C83.0657 94.5513 83.1996 94.5662 83.2591 94.5662C83.3037 94.5662 83.3037 94.5959 83.3037 94.6108C83.3037 94.6406 83.274 94.6554 83.2145 94.6554C82.8872 94.6554 82.5152 94.6406 82.4855 94.6406C82.4557 94.6406 82.054 94.6554 81.8755 94.6554C81.816 94.6554 81.7862 94.6406 81.7862 94.6108C81.7862 94.5959 81.8011 94.5662 81.8308 94.5662C81.8904 94.5662 81.9499 94.5513 82.0094 94.5364C82.1284 94.5067 82.1582 94.4025 82.1879 94.224C82.2177 93.9859 82.2177 93.5396 82.2177 92.9891V90.5938L81.3696 90.6087C80.9977 90.6087 80.8638 90.6533 80.7745 90.7872C80.7001 90.8913 80.7001 90.9211 80.6852 90.9657C80.6704 91.0104 80.6555 91.0252 80.6257 91.0252C80.6109 91.0252 80.5811 91.0104 80.5811 90.9806C80.5811 90.9211 80.7001 90.4153 80.715 90.3557C80.7299 90.326 80.7596 90.2516 80.7745 90.2516C80.8191 90.2516 80.8787 90.2962 81.0423 90.326C81.206 90.3409 81.444 90.3557 81.5035 90.3557H83.7352C83.9286 90.3557 84.0625 90.3409 84.1518 90.326C84.2411 90.3111 84.2857 90.2962 84.3155 90.2962C84.3452 90.2962 84.3452 90.326 84.3452 90.3557C84.3452 90.5343 84.3303 90.936 84.3303 91.0104C84.3303 91.055 84.3006 91.0848 84.2708 91.0848C84.2411 91.0848 84.2262 91.0699 84.2262 90.9806V90.9211C84.2113 90.7426 84.0774 90.6235 83.512 90.6087L82.7682 90.5938V93.004H82.7384Z" fill="#FEFEFE"/>
<path d="M86.071 93.004C86.071 93.5545 86.071 94.0008 86.1008 94.2389C86.1157 94.4025 86.1454 94.5067 86.3091 94.5364C86.3983 94.5513 86.5174 94.5662 86.5769 94.5662C86.6066 94.5662 86.6215 94.5959 86.6215 94.6108C86.6215 94.6406 86.5918 94.6554 86.5322 94.6554C86.2049 94.6554 85.8181 94.6406 85.7884 94.6406C85.7586 94.6406 85.3867 94.6554 85.2081 94.6554C85.1486 94.6554 85.1189 94.6406 85.1189 94.6108C85.1189 94.5959 85.1337 94.5662 85.1635 94.5662C85.223 94.5662 85.2974 94.5513 85.342 94.5364C85.461 94.5067 85.4759 94.4025 85.4908 94.2389C85.5206 94.0008 85.5206 93.5545 85.5206 93.004V91.9923C85.5206 91.0996 85.5206 90.9509 85.5057 90.7574C85.4908 90.564 85.4462 90.4748 85.3123 90.445C85.2528 90.4301 85.1784 90.4301 85.1337 90.4301C85.104 90.4301 85.0891 90.4004 85.0891 90.3855C85.0891 90.3557 85.1189 90.3409 85.1784 90.3409C85.3718 90.3409 85.7437 90.3557 85.7735 90.3557C85.8032 90.3557 86.1901 90.3409 86.3686 90.3409C86.443 90.3409 86.4579 90.3557 86.4579 90.3855C86.4579 90.4004 86.4281 90.4301 86.4132 90.4301C86.3686 90.4301 86.3388 90.4301 86.2645 90.445C86.1008 90.4748 86.071 90.564 86.0562 90.7574C86.0562 90.936 86.0562 91.0996 86.0562 91.9923V93.004H86.071Z" fill="#FEFEFE"/>
<path d="M89.731 90.2516C91.0551 90.2516 92.0668 91.0699 92.0668 92.394C92.0668 93.6735 91.1146 94.715 89.7012 94.715C88.0796 94.715 87.3952 93.495 87.3952 92.4684C87.3803 91.5608 88.0944 90.2516 89.731 90.2516ZM89.8649 94.4918C90.4005 94.4918 91.4568 94.2091 91.4568 92.5577C91.4568 91.1889 90.6237 90.4748 89.6864 90.4748C88.7044 90.4748 87.9903 91.0996 87.9903 92.3345C88.0052 93.6586 88.7937 94.4918 89.8649 94.4918Z" fill="#FEFEFE"/>
<path d="M93.5546 93.8818C93.5695 94.3579 93.6141 94.4918 93.7778 94.5364C93.8819 94.5662 94.0158 94.5662 94.0753 94.5662C94.1051 94.5662 94.12 94.581 94.12 94.6108C94.12 94.6406 94.0753 94.6554 94.0158 94.6554C93.6736 94.6554 93.4505 94.6406 93.391 94.6406C93.3314 94.6406 93.0934 94.6554 92.8256 94.6554C92.7661 94.6554 92.7363 94.6554 92.7363 94.6108C92.7363 94.581 92.7512 94.5662 92.781 94.5662C92.8256 94.5662 92.9297 94.5662 93.019 94.5364C93.1678 94.4918 93.1827 94.343 93.1827 93.8223V90.5491C93.1827 90.326 93.2124 90.2665 93.257 90.2665C93.3314 90.2665 93.4207 90.3855 93.4802 90.445C93.5695 90.5343 94.4324 91.4567 95.34 92.394C95.9202 93.004 96.5599 93.6735 96.7385 93.8669L96.679 91.0104C96.679 90.6384 96.6343 90.5194 96.4558 90.4748C96.3516 90.4599 96.2177 90.445 96.1731 90.445C96.1285 90.445 96.1285 90.4153 96.1285 90.3855C96.1285 90.3557 96.1731 90.3409 96.2475 90.3409C96.5153 90.3409 96.798 90.3557 96.8724 90.3557C96.9319 90.3557 97.1402 90.3409 97.3782 90.3409C97.4377 90.3409 97.4824 90.3409 97.4824 90.3855C97.4824 90.4004 97.4526 90.445 97.408 90.445C97.3782 90.445 97.3336 90.445 97.2741 90.4599C97.0807 90.5045 97.0658 90.6087 97.0658 90.9509L97.0509 94.2984C97.0509 94.6703 97.0509 94.715 97.0063 94.715C96.9468 94.715 96.8873 94.6703 96.5599 94.3728C96.5004 94.3132 95.6524 93.4801 95.0275 92.8255C94.3431 92.1113 93.6736 91.4121 93.4951 91.2038L93.5546 93.8818Z" fill="#FEFEFE"/>
<path d="M13.6305 70.821C13.6305 69.4672 13.6305 69.2142 13.6156 68.9464C13.6007 68.6489 13.5263 68.515 13.2437 68.4555C13.1693 68.4406 13.0205 68.4257 12.9461 68.4257C12.9164 68.4257 12.8717 68.4108 12.8717 68.3662C12.8717 68.3067 12.9164 68.2918 13.0056 68.2918C13.199 68.2918 13.4371 68.2918 13.6305 68.3067L13.9876 68.3216C14.1661 68.3364 15.9217 68.3216 16.13 68.3067C16.2936 68.2918 16.4275 68.2918 16.5168 68.2769C16.5763 68.2621 16.6061 68.2174 16.6358 68.2174C16.6656 68.2174 16.6953 68.2472 16.6953 68.2918C16.6953 68.3513 16.6507 68.4555 16.6209 68.6935C16.6061 68.7828 16.5912 69.1696 16.5763 69.2737C16.5614 69.3184 16.5466 69.363 16.5019 69.363C16.4573 69.363 16.4424 69.3184 16.4424 69.2589C16.4424 69.1845 16.4127 69.0357 16.368 68.9316C16.3085 68.8125 16.1151 68.6638 15.7729 68.6489L14.4339 68.6191C14.3744 68.6191 14.3595 68.6489 14.3595 68.7084V71.1037C14.3595 71.1484 14.3744 71.1781 14.419 71.1781L15.5349 71.1632C15.6836 71.1632 15.8027 71.1632 15.9217 71.1484C16.13 71.1335 16.249 71.1037 16.3234 70.9847C16.3531 70.9401 16.3829 70.8954 16.4127 70.8954C16.4424 70.8954 16.4573 70.9252 16.4573 70.9698C16.4573 71.0145 16.4127 71.1632 16.3829 71.4608C16.368 71.6393 16.3531 71.9815 16.3531 72.041C16.3531 72.1154 16.3531 72.2047 16.2936 72.2047C16.249 72.2047 16.2341 72.1749 16.2341 72.1303C16.2192 72.041 16.2192 71.922 16.1746 71.8179C16.13 71.6988 15.9961 71.5352 15.7283 71.5054C15.5051 71.4757 14.5678 71.4757 14.419 71.4757C14.3744 71.4757 14.3595 71.4906 14.3595 71.5501V72.294C14.3595 73.1271 14.3595 73.8115 14.4041 74.1834C14.4339 74.4364 14.4785 74.6298 14.7463 74.6595C14.8654 74.6744 15.0588 74.6893 15.1332 74.6893C15.1927 74.6893 15.2075 74.7191 15.2075 74.7488C15.2075 74.7934 15.1629 74.8232 15.0736 74.8232C14.5976 74.8232 14.0471 74.7934 14.0024 74.7934C13.9578 74.7934 13.4073 74.8232 13.1544 74.8232C13.0651 74.8232 13.0205 74.8083 13.0205 74.7488C13.0205 74.7191 13.0354 74.6893 13.0949 74.6893C13.1693 74.6893 13.2734 74.6744 13.3627 74.6595C13.5412 74.6298 13.5859 74.4364 13.6156 74.1834C13.6602 73.8115 13.6602 73.1271 13.6602 72.294V70.821H13.6305Z" fill="#FEFEFE"/>
<path d="M19.2692 72.7254C19.2692 73.4396 19.2692 74.0198 19.299 74.3322C19.3287 74.5554 19.3585 74.6893 19.5816 74.719C19.7007 74.7339 19.8643 74.7488 19.9238 74.7488C19.9685 74.7488 19.9833 74.7786 19.9833 74.8083C19.9833 74.8381 19.9536 74.8678 19.8643 74.8678C19.4329 74.8678 18.9419 74.8381 18.9121 74.8381C18.8675 74.8381 18.3914 74.8678 18.1534 74.8678C18.079 74.8678 18.0343 74.8529 18.0343 74.8083C18.0343 74.7786 18.0492 74.7488 18.0939 74.7488C18.1682 74.7488 18.2575 74.7339 18.3319 74.719C18.4807 74.6893 18.5104 74.5405 18.5253 74.3322C18.5551 74.0347 18.5699 73.4396 18.5699 72.7254V71.4162C18.5699 70.2706 18.5699 70.0623 18.5551 69.8242C18.5402 69.5713 18.4807 69.4523 18.317 69.4225C18.2278 69.4076 18.1385 69.3928 18.079 69.3928C18.0492 69.3928 18.0195 69.363 18.0195 69.3333C18.0195 69.2886 18.0492 69.2737 18.1385 69.2737C18.3914 69.2737 18.8675 69.2886 18.9121 69.2886C18.9419 69.2886 19.4477 69.2737 19.6709 69.2737C19.7602 69.2737 19.7899 69.2886 19.7899 69.3333C19.7899 69.363 19.7602 69.3928 19.7304 69.3928C19.6858 69.3928 19.6263 69.3928 19.537 69.4076C19.3287 69.4523 19.2841 69.5564 19.2692 69.8093C19.2543 70.0474 19.2543 70.2557 19.2543 71.4013V72.7254H19.2692Z" fill="#FEFEFE"/>
<path d="M21.3224 74.7786C21.2182 74.7339 21.2033 74.7042 21.2033 74.4959C21.2033 74.1239 21.2331 73.8413 21.248 73.7074C21.248 73.633 21.2628 73.5883 21.3075 73.5883C21.3521 73.5883 21.3819 73.6181 21.3819 73.6776C21.3819 73.7371 21.3819 73.8413 21.4116 73.9454C21.5306 74.481 22.1109 74.6744 22.6167 74.6744C23.3755 74.6744 23.7623 74.243 23.7623 73.6925C23.7623 73.1569 23.4796 72.9039 22.7953 72.413L22.4531 72.1452C21.6199 71.5352 21.3521 71.074 21.3521 70.5681C21.3521 69.7052 22.0365 69.1845 23.0482 69.1845C23.3457 69.1845 23.6582 69.2291 23.8367 69.2737C23.9855 69.3035 24.045 69.3035 24.1045 69.3035C24.164 69.3035 24.1789 69.3184 24.1789 69.3481C24.1789 69.3779 24.1492 69.6308 24.1492 70.1367C24.1492 70.2557 24.1343 70.3003 24.0896 70.3003C24.045 70.3003 24.0301 70.2706 24.0153 70.2111C24.0004 70.1218 23.9409 69.9284 23.8962 69.8391C23.8367 69.7498 23.5987 69.4672 22.8994 69.4672C22.3489 69.4672 21.8877 69.7498 21.8877 70.2706C21.8877 70.7467 22.1258 71.0145 22.8845 71.5203L23.1077 71.6691C24.045 72.3088 24.3574 72.8147 24.3574 73.4544C24.3574 73.8859 24.1938 74.362 23.6433 74.719C23.316 74.9273 22.8399 74.9869 22.4233 74.9869C22.0662 74.972 21.6348 74.9273 21.3224 74.7786Z" fill="#FEFEFE"/>
<path d="M31.0079 72.7254C31.0079 73.4396 31.0227 74.0198 31.0525 74.3322C31.0822 74.5554 31.0971 74.6893 31.3352 74.719C31.4393 74.7339 31.6178 74.7488 31.6774 74.7488C31.722 74.7488 31.7517 74.7786 31.7517 74.8083C31.7517 74.8381 31.7071 74.8678 31.6178 74.8678C31.2013 74.8678 30.7103 74.8381 30.6657 74.8381C30.6359 74.8381 30.1301 74.8678 29.9069 74.8678C29.8176 74.8678 29.7879 74.8529 29.7879 74.8083C29.7879 74.7786 29.8027 74.7488 29.8474 74.7488C29.9218 74.7488 30.011 74.7339 30.0705 74.719C30.2342 74.6893 30.2491 74.5405 30.2788 74.3174C30.3086 74.0198 30.3086 73.4544 30.3086 72.7403V71.9964C30.3086 71.9666 30.2937 71.9518 30.264 71.9518H27.0801C27.0503 71.9518 27.0355 71.9666 27.0355 71.9964V72.7403C27.0355 73.4544 27.0355 74.0198 27.0652 74.3174C27.095 74.5405 27.1247 74.6744 27.3479 74.7042C27.4669 74.719 27.6306 74.7339 27.6901 74.7339C27.7347 74.7339 27.7496 74.7637 27.7496 74.7934C27.7496 74.8232 27.7198 74.853 27.6306 74.853C27.1991 74.853 26.723 74.8232 26.6784 74.8232C26.6338 74.8232 26.1428 74.853 25.9196 74.853C25.8452 74.853 25.8006 74.8381 25.8006 74.7934C25.8006 74.7637 25.8155 74.7339 25.8601 74.7339C25.9345 74.7339 26.0238 74.719 26.0982 74.7042C26.2469 74.6744 26.2618 74.5256 26.2916 74.3174C26.3362 74.0198 26.3362 73.4247 26.3362 72.7105V71.4013C26.3362 70.2557 26.3362 70.0474 26.3213 69.8093C26.3064 69.5564 26.2618 69.4374 26.0089 69.4076C25.9494 69.3928 25.8155 69.3928 25.7411 69.3928C25.7113 69.3928 25.6816 69.363 25.6816 69.3333C25.6816 69.2886 25.7113 69.2737 25.8006 69.2737C26.1428 69.2737 26.6338 69.2886 26.6784 69.2886C26.7081 69.2886 27.1991 69.2737 27.4372 69.2737C27.5264 69.2737 27.5562 69.2886 27.5562 69.3333C27.5562 69.363 27.5264 69.3928 27.4967 69.3928C27.452 69.3928 27.3925 69.3928 27.3033 69.4076C27.095 69.4523 27.0503 69.5564 27.0355 69.8093C27.0206 70.0474 27.0206 70.2706 27.0206 71.4162V71.5798C27.0206 71.6244 27.0355 71.6245 27.0652 71.6245H30.2491C30.2788 71.6245 30.2937 71.6244 30.2937 71.5798V71.4162C30.2937 70.2706 30.2788 70.0474 30.2788 69.8093C30.264 69.5564 30.2193 69.4374 29.9813 69.4076C29.9218 69.3928 29.7879 69.3928 29.7135 69.3928C29.6837 69.3928 29.654 69.363 29.654 69.3333C29.654 69.2886 29.6837 69.2737 29.773 69.2737C30.1152 69.2737 30.6061 69.2886 30.6359 69.2886C30.6805 69.2886 31.1715 69.2737 31.3947 69.2737C31.4839 69.2737 31.5286 69.2886 31.5286 69.3333C31.5286 69.363 31.4988 69.3928 31.4542 69.3928C31.3947 69.3928 31.3649 69.3928 31.2608 69.4076C31.0674 69.4523 31.0227 69.5564 30.993 69.8093C30.9781 70.0474 30.9781 70.2557 30.9781 71.4013V72.7254H31.0079Z" fill="#FEFEFE"/>
<path d="M33.5371 71.431C33.5371 70.2854 33.5371 70.0772 33.5222 69.8391C33.5073 69.5862 33.4627 69.4672 33.2098 69.4374C33.1503 69.4225 33.0164 69.4225 32.942 69.4225C32.9122 69.4225 32.8825 69.3928 32.8825 69.363C32.8825 69.3184 32.9122 69.3035 33.0015 69.3035C33.3437 69.3035 33.8495 69.3184 33.8942 69.3184C33.9537 69.3184 35.5456 69.3333 35.7241 69.3184C35.8729 69.3035 36.0068 69.2886 36.0663 69.2737C36.0961 69.2589 36.1407 69.244 36.1705 69.244C36.2002 69.244 36.2002 69.2737 36.2002 69.3184C36.2002 69.363 36.1556 69.4523 36.1407 69.6606C36.1258 69.735 36.111 70.0623 36.0961 70.1515C36.0812 70.1813 36.0663 70.2259 36.0217 70.2259C35.9771 70.2259 35.9622 70.1962 35.9622 70.1367C35.9622 70.0772 35.9473 69.9581 35.9175 69.8689C35.858 69.7498 35.7836 69.6903 35.3671 69.6457C35.2332 69.6308 34.3554 69.6159 34.2661 69.6159C34.2363 69.6159 34.2215 69.6457 34.2215 69.6903V71.6988C34.2215 71.7584 34.2215 71.7732 34.2661 71.7732C34.3554 71.7732 35.3671 71.7732 35.5456 71.7584C35.7241 71.7435 35.8432 71.7286 35.9175 71.6542C35.9771 71.5947 36.0068 71.5649 36.0366 71.5649C36.0663 71.5649 36.0812 71.5798 36.0812 71.6245C36.0812 71.6691 36.0366 71.7881 36.0217 72.0262C36.0068 72.1749 35.9919 72.4576 35.9919 72.5022C35.9919 72.5618 35.9771 72.6362 35.9175 72.6362C35.8878 72.6362 35.858 72.6064 35.858 72.5618C35.858 72.4874 35.858 72.413 35.8283 72.3237C35.7985 72.2196 35.739 72.1303 35.4415 72.1005C35.2332 72.0708 34.4149 72.0708 34.281 72.0708C34.2363 72.0708 34.2364 72.1005 34.2364 72.1303V72.7403C34.2364 72.9932 34.2215 73.8561 34.2364 74.0049C34.2512 74.4959 34.4 74.6 35.1439 74.6C35.3373 74.6 35.7093 74.6 35.9027 74.5256C36.0961 74.4364 36.2002 74.3025 36.2449 74.0198C36.2597 73.9305 36.2746 73.9008 36.3193 73.9008C36.3639 73.9008 36.3788 73.9603 36.3788 74.0198C36.3788 74.0793 36.3192 74.5703 36.2746 74.7339C36.2151 74.9273 36.1407 74.9273 35.8432 74.9273C35.2629 74.9273 34.8315 74.9125 34.519 74.8976C34.1917 74.8827 33.9983 74.8827 33.8793 74.8827C33.8644 74.8827 33.7156 74.8827 33.552 74.8976C33.4032 74.9125 33.2247 74.9125 33.1056 74.9125C33.0312 74.9125 32.9866 74.8976 32.9866 74.853C32.9866 74.8232 33.0015 74.7934 33.0461 74.7934C33.1205 74.7934 33.2098 74.7637 33.2842 74.7637C33.4329 74.7339 33.4478 74.5851 33.4776 74.3769C33.5222 74.0793 33.5222 73.4842 33.5222 72.77V71.431H33.5371Z" fill="#FEFEFE"/>
<path d="M38.3278 71.431C38.3278 70.2854 38.3278 70.0772 38.3129 69.8391C38.298 69.5862 38.2534 69.4672 38.0005 69.4374C37.9409 69.4225 37.807 69.4225 37.7327 69.4225C37.7029 69.4225 37.6731 69.3928 37.6731 69.363C37.6731 69.3184 37.7029 69.3035 37.7922 69.3035C38.1344 69.3035 38.6551 69.3184 38.6997 69.3184C38.7741 69.3184 39.4287 69.3035 39.6519 69.3035C40.1429 69.3035 40.6785 69.3481 41.0802 69.6308C41.2736 69.7647 41.6158 70.1218 41.6158 70.6425C41.6158 71.193 41.3926 71.7137 40.6785 72.3237C41.3033 73.1122 41.8389 73.7817 42.2853 74.243C42.687 74.6595 42.9399 74.7339 43.1333 74.7488C43.2821 74.7786 43.3565 74.7786 43.4011 74.7786C43.4458 74.7786 43.4755 74.8083 43.4755 74.8381C43.4755 74.8827 43.4309 74.8976 43.297 74.8976H42.8209C42.3894 74.8976 42.196 74.853 42.0026 74.7488C41.6753 74.5703 41.3926 74.2132 40.9612 73.6627C40.6338 73.261 40.3065 72.7849 40.128 72.5915C40.0982 72.5618 40.0834 72.5469 40.0238 72.5469L39.027 72.5022C38.9973 72.5022 38.9675 72.5171 38.9675 72.5618V72.7403C38.9675 73.4544 38.9675 74.0198 38.9973 74.3322C39.027 74.5554 39.0717 74.6893 39.2948 74.719C39.399 74.7339 39.5626 74.7488 39.637 74.7488C39.6965 74.7488 39.6965 74.7786 39.6965 74.8083C39.6965 74.8381 39.6668 74.8678 39.5775 74.8678C39.1609 74.8678 38.67 74.8381 38.6402 74.8381C38.6253 74.8381 38.1195 74.8678 37.8814 74.8678C37.807 74.8678 37.7624 74.8529 37.7624 74.8083C37.7624 74.7786 37.7773 74.7488 37.8219 74.7488C37.8963 74.7488 37.9856 74.7339 38.06 74.719C38.2087 74.6893 38.2236 74.5405 38.2534 74.3322C38.298 74.0347 38.298 73.4396 38.298 72.7254V71.431H38.3278ZM38.9824 72.0559C38.9824 72.1005 38.9973 72.1303 39.0419 72.1452C39.1609 72.2047 39.5478 72.2642 39.8899 72.2642C40.0685 72.2642 40.2768 72.2493 40.4702 72.1303C40.738 71.9518 40.9314 71.5649 40.9314 70.9996C40.9314 70.0772 40.4255 69.5416 39.6073 69.5416C39.3841 69.5416 39.1312 69.5713 39.0568 69.5862C39.027 69.6011 38.9973 69.6308 38.9973 69.6755V72.0559H38.9824Z" fill="#FEFEFE"/>
<path d="M45.4989 74.0644C44.6509 73.3057 44.4426 72.3237 44.4426 71.4906C44.4426 70.9103 44.636 69.8837 45.4096 69.1101C45.9304 68.5894 46.7189 68.1728 48.0579 68.1728C48.4001 68.1728 48.8911 68.2025 49.3225 68.2769C49.6498 68.3364 49.9325 68.396 50.2152 68.4108C50.3045 68.4257 50.3342 68.4555 50.3342 68.5001C50.3342 68.5745 50.3045 68.6786 50.2896 68.9911C50.2747 69.2737 50.2747 69.7498 50.2598 69.8837C50.2449 70.0176 50.2301 70.0623 50.1854 70.0623C50.1259 70.0623 50.111 70.0028 50.111 69.8837C50.111 69.5415 49.9771 69.1845 49.7391 68.9911C49.4415 68.7233 48.772 68.5001 47.9984 68.5001C46.8379 68.5001 46.3023 68.8423 46.0047 69.1398C45.365 69.7498 45.2162 70.5235 45.2162 71.4162C45.2162 73.0825 46.4957 74.6 48.3555 74.6C49.0101 74.6 49.5159 74.5256 49.873 74.1686C50.0515 73.9752 50.1706 73.5883 50.2003 73.4396C50.2152 73.3503 50.2301 73.3057 50.2896 73.3057C50.3342 73.3057 50.3491 73.3652 50.3491 73.4396C50.3491 73.4991 50.2449 74.2578 50.1557 74.5554C50.0962 74.719 50.0813 74.7339 49.9325 74.8083C49.5903 74.9422 48.9208 75.0017 48.3703 75.0017C47.0611 75.0017 46.1833 74.6744 45.4989 74.0644Z" fill="#FEFEFE"/>
<path d="M52.2386 71.431C52.2386 70.2854 52.2386 70.0772 52.2237 69.8391C52.2088 69.5862 52.1642 69.4672 51.9113 69.4374C51.8518 69.4225 51.7179 69.4225 51.6435 69.4225C51.6137 69.4225 51.584 69.3928 51.584 69.363C51.584 69.3184 51.6137 69.3035 51.703 69.3035C52.0452 69.3035 52.551 69.3184 52.5956 69.3184C52.6552 69.3184 54.2471 69.3333 54.4256 69.3184C54.5744 69.3035 54.7083 69.2886 54.7678 69.2737C54.7976 69.2589 54.8422 69.244 54.872 69.244C54.9017 69.244 54.9017 69.2737 54.9017 69.3184C54.9017 69.3779 54.8571 69.4523 54.8422 69.6606C54.8273 69.735 54.8125 70.0623 54.7976 70.1515C54.7827 70.1813 54.7678 70.2259 54.7232 70.2259C54.6786 70.2259 54.6637 70.1962 54.6637 70.1367C54.6637 70.0772 54.6488 69.9581 54.619 69.8689C54.5595 69.7498 54.4851 69.6903 54.0686 69.6457C53.9347 69.6308 53.0569 69.6159 52.9676 69.6159C52.9378 69.6159 52.923 69.6457 52.923 69.6903V71.6988C52.923 71.7584 52.923 71.7732 52.9676 71.7732C53.0569 71.7732 54.0686 71.7732 54.2471 71.7584C54.4256 71.7435 54.5446 71.7286 54.619 71.6542C54.6785 71.5947 54.7083 71.5649 54.7381 71.5649C54.7678 71.5649 54.7827 71.5798 54.7827 71.6245C54.7827 71.6691 54.7381 71.7881 54.7232 72.0262C54.7083 72.1749 54.6934 72.4576 54.6934 72.5022C54.6934 72.5618 54.6785 72.6362 54.619 72.6362C54.5893 72.6362 54.5595 72.6064 54.5595 72.5618C54.5595 72.4874 54.5595 72.413 54.5298 72.3237C54.5 72.2196 54.4405 72.1303 54.1429 72.1005C53.9347 72.0708 53.1164 72.0708 52.9825 72.0708C52.9378 72.0708 52.923 72.1005 52.923 72.1303V72.7403C52.923 72.9932 52.9081 73.8561 52.923 74.0049C52.9378 74.4959 53.0866 74.6 53.8305 74.6C54.0239 74.6 54.3959 74.6 54.5893 74.5256C54.7827 74.4364 54.8868 74.3025 54.9315 74.0198C54.9464 73.9305 54.9612 73.9008 55.0059 73.9008C55.0505 73.9008 55.0505 73.9603 55.0505 74.0198C55.0505 74.0793 54.991 74.5703 54.9464 74.7339C54.8868 74.9273 54.8125 74.9273 54.5149 74.9273C53.9347 74.9273 53.5032 74.9125 53.1908 74.8976C52.8635 74.8827 52.67 74.8827 52.551 74.8827C52.5361 74.8827 52.3874 74.8827 52.2237 74.8976C52.0749 74.9125 51.8964 74.9125 51.7774 74.9125C51.703 74.9125 51.6583 74.8976 51.6583 74.853C51.6583 74.8232 51.6732 74.7934 51.7179 74.7934C51.7922 74.7934 51.8815 74.7637 51.9559 74.7637C52.1047 74.7339 52.1196 74.5851 52.1493 74.3769C52.1939 74.0793 52.1939 73.4842 52.1939 72.77V71.431H52.2386Z" fill="#FEFEFE"/>
<path d="M57.3417 73.871C57.3566 74.481 57.431 74.6595 57.6392 74.719C57.7731 74.7488 57.9517 74.7637 58.0261 74.7637C58.0558 74.7637 58.0856 74.7934 58.0856 74.8232C58.0856 74.8678 58.0261 74.8827 57.9517 74.8827C57.5202 74.8827 57.2078 74.853 57.1483 74.853C57.0888 74.853 56.7615 74.8827 56.4044 74.8827C56.33 74.8827 56.2854 74.8678 56.2854 74.8232C56.2854 74.7934 56.3151 74.7637 56.3449 74.7637C56.4044 74.7637 56.5383 74.7488 56.6573 74.719C56.8507 74.6595 56.8805 74.4661 56.8805 73.7966V69.5564C56.8805 69.2589 56.9251 69.1845 56.9846 69.1845C57.0739 69.1845 57.2078 69.3333 57.2822 69.4076C57.4012 69.5267 58.517 70.7169 59.6924 71.922C60.4512 72.7105 61.2694 73.5883 61.5075 73.8264L61.4331 70.1218C61.4182 69.6457 61.3885 69.482 61.1504 69.4374C61.0165 69.4076 60.838 69.4076 60.7785 69.4076C60.719 69.4076 60.719 69.363 60.719 69.3333C60.719 69.2886 60.7785 69.2737 60.8677 69.2737C61.2099 69.2737 61.5819 69.2886 61.6712 69.2886C61.7604 69.2886 62.0133 69.2737 62.3258 69.2737C62.4002 69.2737 62.4597 69.2886 62.4597 69.3333C62.4597 69.363 62.4299 69.4076 62.3704 69.4076C62.3407 69.4076 62.2811 69.4076 62.1919 69.4225C61.939 69.482 61.9241 69.6159 61.9241 70.0623L61.9092 74.3917C61.9092 74.8827 61.8943 74.9273 61.8497 74.9273C61.7753 74.9273 61.686 74.8678 61.2694 74.481C61.1951 74.4066 60.0941 73.3205 59.2758 72.4874C58.3831 71.5501 57.5351 70.6574 57.2971 70.3896L57.3417 73.871Z" fill="#FEFEFE"/>
<path d="M65.9262 72.7254C65.9262 73.4396 65.9262 74.0198 65.956 74.3322C65.9857 74.5554 66.0155 74.6893 66.2535 74.719C66.3577 74.7339 66.5362 74.7488 66.5957 74.7488C66.6404 74.7488 66.6552 74.7786 66.6552 74.8083C66.6552 74.8381 66.6255 74.8678 66.5362 74.8678C66.1196 74.8678 65.6287 74.8381 65.584 74.8381C65.5543 74.8381 65.0187 74.8678 64.7955 74.8678C64.7062 74.8678 64.6765 74.8529 64.6765 74.8083C64.6765 74.7786 64.6914 74.7488 64.736 74.7488C64.8104 74.7488 64.8996 74.7339 64.9592 74.719C65.1079 74.6893 65.1526 74.5405 65.1823 74.3174C65.2121 74.0198 65.2121 73.4247 65.2121 72.7105V69.6011L64.1111 69.6159C63.635 69.6308 63.4565 69.6755 63.3375 69.854C63.2482 69.9879 63.2482 70.0325 63.2185 70.092C63.2036 70.1515 63.1738 70.1664 63.1441 70.1664C63.1292 70.1664 63.0845 70.1515 63.0845 70.1069C63.0845 70.0325 63.2482 69.363 63.2482 69.3035C63.2631 69.2589 63.3077 69.1696 63.3226 69.1696C63.3821 69.1696 63.4565 69.2291 63.6648 69.2589C63.888 69.2886 64.1855 69.2886 64.2599 69.2886H67.1462C67.3991 69.2886 67.5777 69.2737 67.6967 69.2589C67.8157 69.244 67.8752 69.2291 67.9199 69.2291C67.9496 69.2291 67.9496 69.2737 67.9496 69.3184C67.9496 69.5415 67.9199 70.0772 67.9199 70.1664C67.9199 70.2259 67.8901 70.2557 67.8455 70.2557C67.8157 70.2557 67.786 70.2259 67.786 70.1218L67.7711 70.0474C67.7413 69.8242 67.5777 69.6606 66.8487 69.6457L65.8965 69.6308V72.7254H65.9262Z" fill="#FEFEFE"/>
<path d="M69.5713 71.431C69.5713 70.2854 69.5713 70.0772 69.5564 69.8391C69.5416 69.5862 69.4969 69.4672 69.244 69.4374C69.1845 69.4225 69.0506 69.4225 68.9762 69.4225C68.9464 69.4225 68.9167 69.3928 68.9167 69.363C68.9167 69.3184 68.9464 69.3035 69.0357 69.3035C69.3779 69.3035 69.8837 69.3184 69.9284 69.3184C69.973 69.3184 71.5798 69.3333 71.7584 69.3184C71.9071 69.3035 72.041 69.2886 72.1005 69.2737C72.1303 69.2589 72.1749 69.244 72.2047 69.244C72.2344 69.244 72.2344 69.2737 72.2344 69.3184C72.2344 69.3779 72.1898 69.4523 72.1749 69.6606C72.1601 69.735 72.1452 70.0623 72.1303 70.1515C72.1154 70.1813 72.1005 70.2259 72.0559 70.2259C72.0113 70.2259 71.9964 70.1962 71.9964 70.1367C71.9964 70.0772 71.9815 69.9581 71.9518 69.8689C71.9071 69.7498 71.8179 69.6903 71.4013 69.6457C71.2674 69.6308 70.3896 69.6159 70.3003 69.6159C70.2706 69.6159 70.2557 69.6457 70.2557 69.6903V71.6988C70.2557 71.7584 70.2557 71.7732 70.3003 71.7732C70.3896 71.7732 71.4013 71.7732 71.5798 71.7584C71.7584 71.7435 71.8774 71.7286 71.9518 71.6542C72.0113 71.5947 72.041 71.5649 72.0708 71.5649C72.1005 71.5649 72.1154 71.5798 72.1154 71.6245C72.1154 71.6691 72.0708 71.7881 72.0559 72.0262C72.041 72.1749 72.0261 72.4576 72.0261 72.5022C72.0261 72.5618 72.0113 72.6362 71.9518 72.6362C71.922 72.6362 71.8923 72.6064 71.8923 72.5618C71.8923 72.4874 71.8923 72.413 71.8625 72.3237C71.8327 72.2196 71.7732 72.1303 71.4757 72.1005C71.2674 72.0708 70.4491 72.0708 70.3152 72.0708C70.2706 72.0708 70.2706 72.1005 70.2706 72.1303V72.7403C70.2706 72.9932 70.2557 73.8561 70.2706 74.0049C70.2854 74.4959 70.4342 74.6 71.1781 74.6C71.3715 74.6 71.7435 74.6 71.9369 74.5256C72.1303 74.4364 72.2344 74.3025 72.2791 74.0198C72.294 73.9305 72.3088 73.9008 72.3535 73.9008C72.3981 73.9008 72.3981 73.9603 72.3981 74.0198C72.3981 74.0793 72.3386 74.5703 72.294 74.7339C72.2344 74.9273 72.1601 74.9273 71.8625 74.9273C71.2823 74.9273 70.8508 74.9125 70.5384 74.8976C70.2111 74.8827 70.0176 74.8827 69.8986 74.8827C69.8837 74.8827 69.735 74.8827 69.5713 74.8976C69.4225 74.9125 69.244 74.9125 69.125 74.9125C69.0506 74.9125 69.0059 74.8976 69.0059 74.853C69.0059 74.8232 69.0208 74.7934 69.0655 74.7934C69.1398 74.7934 69.2291 74.7637 69.3035 74.7637C69.4523 74.7339 69.4672 74.5851 69.4969 74.3769C69.5415 74.0793 69.5416 73.4842 69.5416 72.77V71.431H69.5713Z" fill="#FEFEFE"/>
<path d="M74.362 71.431C74.362 70.2854 74.362 70.0772 74.3471 69.8391C74.3322 69.5862 74.2876 69.4672 74.0347 69.4374C73.9752 69.4225 73.8413 69.4225 73.7669 69.4225C73.7371 69.4225 73.7074 69.3928 73.7074 69.363C73.7074 69.3184 73.7371 69.3035 73.8264 69.3035C74.1686 69.3035 74.6893 69.3184 74.7339 69.3184C74.8083 69.3184 75.4629 69.3035 75.6861 69.3035C76.1771 69.3035 76.7127 69.3481 77.1144 69.6308C77.3078 69.7647 77.65 70.1218 77.65 70.6425C77.65 71.193 77.4268 71.7137 76.7127 72.3237C77.3376 73.1122 77.8732 73.7817 78.3195 74.243C78.7212 74.6595 78.9741 74.7339 79.1675 74.7488C79.3163 74.7786 79.3907 74.7786 79.4353 74.7786C79.48 74.7786 79.5097 74.8083 79.5097 74.8381C79.5097 74.8827 79.4651 74.8976 79.3312 74.8976H78.8551C78.4236 74.8976 78.2302 74.853 78.0368 74.7488C77.7095 74.5703 77.4268 74.2132 76.9954 73.6627C76.6681 73.261 76.3407 72.7849 76.1771 72.5915C76.1473 72.5618 76.1176 72.5469 76.0729 72.5469L75.1059 72.532C75.0761 72.532 75.0464 72.5469 75.0464 72.5915V72.77C75.0464 73.4842 75.0464 74.0495 75.0761 74.362C75.1059 74.5852 75.1505 74.7191 75.3737 74.7488C75.4778 74.7637 75.6415 74.7786 75.7159 74.7786C75.7754 74.7786 75.7754 74.8083 75.7754 74.8381C75.7754 74.8678 75.7456 74.8976 75.6564 74.8976C75.2398 74.8976 74.7488 74.8678 74.7191 74.8678C74.7042 74.8678 74.1983 74.8976 73.9603 74.8976C73.8859 74.8976 73.8413 74.8827 73.8413 74.8381C73.8413 74.8083 73.8561 74.7786 73.9008 74.7786C73.9752 74.7786 74.0644 74.7637 74.1388 74.7488C74.2876 74.7191 74.3025 74.5703 74.3322 74.362C74.3769 74.0644 74.3769 73.4693 74.3769 72.7552V71.431H74.362ZM75.0166 72.0559C75.0166 72.1005 75.0315 72.1303 75.0761 72.1452C75.1951 72.2047 75.582 72.2642 75.9242 72.2642C76.1027 72.2642 76.311 72.2493 76.5044 72.1303C76.7722 71.9518 76.9656 71.5649 76.9656 70.9996C76.9656 70.0772 76.4598 69.5416 75.6415 69.5416C75.4183 69.5416 75.1654 69.5713 75.091 69.5862C75.0612 69.6011 75.0315 69.6308 75.0315 69.6755V72.0559H75.0166Z" fill="#FEFEFE"/>
<path d="M81.786 71.431C81.786 70.2706 81.786 70.0623 81.7712 69.8242C81.7563 69.5713 81.7116 69.4523 81.4587 69.4076C81.3992 69.3928 81.2653 69.3928 81.1909 69.3928C81.1612 69.3928 81.1314 69.363 81.1314 69.3333C81.1314 69.2886 81.1612 69.2737 81.2504 69.2737C81.6075 69.2737 82.0836 69.2886 82.1282 69.2886C82.277 69.2886 83.9582 69.3035 84.1367 69.2886C84.2855 69.2737 84.4194 69.2737 84.4938 69.2589C84.5384 69.244 84.5682 69.2142 84.598 69.2142C84.6277 69.2142 84.6575 69.244 84.6575 69.2886C84.6575 69.3481 84.6277 69.4225 84.598 69.6457C84.5831 69.7201 84.5831 70.0474 84.5682 70.1367C84.5533 70.1664 84.5384 70.2111 84.4938 70.2111C84.4641 70.2111 84.4343 70.1813 84.4343 70.1218C84.4343 70.0623 84.4045 69.9433 84.3599 69.8391C84.3153 69.7498 84.1367 69.6159 83.8392 69.6159L82.5746 69.6011C82.5299 69.6011 82.515 69.6159 82.515 69.6755V71.7137C82.515 71.7584 82.5151 71.7881 82.5746 71.7881L83.6309 71.7732C83.7648 71.7732 83.8838 71.7732 83.988 71.7584C84.1665 71.7435 84.2706 71.7137 84.345 71.6245C84.3748 71.5798 84.4194 71.5501 84.4492 71.5501C84.4789 71.5501 84.4938 71.5798 84.4938 71.6096C84.4938 71.6542 84.4343 71.7732 84.4194 72.0262C84.4045 72.1749 84.3897 72.4725 84.3897 72.532C84.3897 72.6064 84.3748 72.6808 84.3153 72.6808C84.2706 72.6808 84.2558 72.651 84.2558 72.6064C84.2409 72.532 84.2409 72.4279 84.1963 72.3386C84.1665 72.2344 84.0326 72.1303 83.7946 72.1005C83.6011 72.0708 82.6936 72.0857 82.5597 72.0857C82.515 72.0857 82.5002 72.1005 82.5002 72.1601V72.7552C82.5002 73.4991 82.5002 74.0793 82.5299 74.3769C82.5597 74.6 82.6043 74.7339 82.8126 74.7786C82.9316 74.7934 83.0953 74.8083 83.1697 74.8083C83.2143 74.8083 83.2292 74.8381 83.2292 74.8678C83.2292 74.8976 83.1994 74.9273 83.1102 74.9273C82.6787 74.9273 82.1729 74.8976 82.1431 74.8976C82.0985 74.8976 81.6224 74.9273 81.3843 74.9273C81.3099 74.9273 81.2653 74.9125 81.2653 74.8678C81.2653 74.8381 81.2802 74.8083 81.3248 74.8083C81.3992 74.8083 81.4885 74.7786 81.5629 74.7786C81.7117 74.7488 81.7265 74.6 81.7712 74.3769C81.8158 74.0644 81.8158 73.4842 81.8158 72.7552V71.431H81.786Z" fill="#FEFEFE"/>
<path d="M88.6596 69.1696C90.4003 69.1696 91.7096 70.2259 91.7096 71.9666C91.7096 73.633 90.4747 75.0166 88.615 75.0166C86.5023 75.0166 85.5948 73.4247 85.5948 72.0857C85.5948 70.8806 86.5321 69.1696 88.6596 69.1696ZM88.8381 74.7042C89.5374 74.7042 90.9211 74.3322 90.9211 72.1749C90.9211 70.3896 89.835 69.4374 88.615 69.4374C87.3206 69.4374 86.3982 70.2408 86.3982 71.8625C86.3982 73.6181 87.4396 74.7042 88.8381 74.7042Z" fill="#FEFEFE"/>
<path d="M93.3313 71.431C93.3313 70.2706 93.3313 70.0623 93.3164 69.8242C93.3015 69.5713 93.2569 69.4523 93.004 69.4076C92.9444 69.3928 92.8105 69.3928 92.7362 69.3928C92.7064 69.3928 92.6766 69.363 92.6766 69.3333C92.6766 69.2886 92.7064 69.2737 92.7957 69.2737C93.1527 69.2737 93.6586 69.2886 93.7032 69.2886C93.7776 69.2886 94.4322 69.2737 94.6703 69.2737C95.1612 69.2737 95.7117 69.3184 96.1134 69.6011C96.3068 69.735 96.649 70.1069 96.649 70.6128C96.649 71.1632 96.4259 71.6988 95.6969 72.3088C96.3217 73.0974 96.8573 73.7817 97.3185 74.243C97.7351 74.6595 97.988 74.7339 98.1814 74.7637C98.3302 74.7934 98.4046 74.7934 98.4493 74.7934C98.4939 74.7934 98.5236 74.8232 98.5236 74.853C98.5236 74.8976 98.479 74.9125 98.3451 74.9125H97.869C97.4376 74.9125 97.2441 74.8678 97.0507 74.7637C96.7234 74.5851 96.4408 74.2281 95.9944 73.6627C95.6671 73.261 95.3249 72.7701 95.1612 72.5766C95.1315 72.5469 95.1017 72.532 95.0571 72.532L94.0752 72.5171C94.0454 72.5171 94.0156 72.532 94.0156 72.5766V72.7552C94.0156 73.4693 94.0156 74.0495 94.0454 74.362C94.0752 74.5852 94.1198 74.719 94.3578 74.7637C94.462 74.7786 94.6256 74.7934 94.7 74.7934C94.7595 74.7934 94.7595 74.8232 94.7595 74.853C94.7595 74.8827 94.7298 74.9125 94.6405 74.9125C94.2239 74.9125 93.733 74.8827 93.6883 74.8827C93.6735 74.8827 93.1676 74.9125 92.9296 74.9125C92.8552 74.9125 92.8105 74.8976 92.8105 74.853C92.8105 74.8232 92.8254 74.7934 92.8701 74.7934C92.9444 74.7934 93.0337 74.7786 93.1081 74.7637C93.2569 74.7339 93.2718 74.5852 93.3164 74.362C93.361 74.0495 93.361 73.4693 93.361 72.7403V71.431H93.3313ZM94.0008 72.0559C94.0008 72.1005 94.0157 72.1303 94.0603 72.1452C94.1793 72.2047 94.5661 72.2642 94.9083 72.2642C95.0869 72.2642 95.31 72.2493 95.4886 72.1303C95.7564 71.9518 95.9498 71.5649 95.9498 70.9847C95.9498 70.0474 95.4439 69.5118 94.6108 69.5118C94.3876 69.5118 94.1347 69.5415 94.0603 69.5564C94.0305 69.5713 94.0008 69.6011 94.0008 69.6457V72.0559Z" fill="#FEFEFE"/>
</svg>
