<svg width="100" height="34" viewBox="0 0 100 34" fill="none" xmlns="http://www.w3.org/2000/svg">
<path d="M97.0748 19.0789V18.6216H91.9156C89.1719 18.6216 87.3816 19.8876 87.3816 21.9614C87.3816 23.7905 88.8797 24.9517 91.2195 24.9517C94.9166 24.9517 97.0739 22.7255 97.0739 19.0789H97.0748ZM99.9992 15.6313V27.0643H97.0748V24.0002C96.0855 26.041 93.635 27.341 90.7807 27.341C86.9059 27.341 84.3816 25.2352 84.3816 21.9973C84.3816 18.6196 87.271 16.4692 91.7341 16.4692H95.902C96.7147 16.4692 97.0748 16.0827 97.0748 15.5196C97.0748 13.0925 95.2816 11.4391 92.135 11.4391C89.4263 11.4391 87.3098 13.0585 87.1632 14.9925H84.3816C84.7117 11.5711 88.0758 9.04873 92.2079 9.04873C97.0011 9.05455 99.9992 11.6895 99.9992 15.6293V15.6313ZM77.5846 18.1983C77.5846 14.1886 75.169 11.5886 71.4749 11.5886C67.7807 11.5886 65.3302 14.1895 65.3302 18.1983C65.3302 22.208 67.7671 24.8138 71.4749 24.8138C75.1826 24.8138 77.5846 22.1992 77.5846 18.1983ZM62.3321 18.1983C62.3321 13.0284 65.4768 9.05649 71.2176 9.05649C73.8176 9.05649 76.2302 10.3225 77.3273 12.2148V0.155518H80.2545V27.0633H77.3273V24.1439C76.2438 26.0789 73.8069 27.342 71.2176 27.342C65.4768 27.342 62.3321 23.3672 62.3321 18.1973V18.1983ZM55.7059 19.0798V18.6226H50.5603C47.8166 18.6226 46.0244 19.8886 46.0244 21.9624C46.0244 23.7915 47.5244 24.9526 49.8671 24.9526C53.5389 24.9526 55.7059 22.7264 55.7059 19.0798ZM58.6331 15.6313V27.0643H55.7059V24.0002C54.7195 26.041 52.269 27.341 49.4147 27.341C45.5389 27.341 43.0156 25.2352 43.0156 21.9973C43.0156 18.6196 45.9049 16.4692 50.3651 16.4692H54.536C55.3486 16.4692 55.7059 16.0827 55.7059 15.5196C55.7059 13.0925 53.9156 11.4391 50.769 11.4391C48.0603 11.4391 45.9399 13.0585 45.7943 14.9925H43.0156C43.3428 11.5711 46.7088 9.04873 50.8418 9.04873C55.6321 9.05455 58.6331 11.6895 58.6331 15.6293V15.6313Z" fill="#171A1E"/>
<path d="M8.39903 27.4464C8.16503 27.4728 7.94645 27.5763 7.77767 27.7406C7.61154 27.9025 7.50629 28.1168 7.47961 28.3474C7.47961 28.3619 7.47961 28.3765 7.47767 28.392V28.3775C7.4752 28.4046 7.47391 28.4318 7.47379 28.459V31.5212C7.47395 31.656 7.44667 31.7895 7.39359 31.9136C7.34051 32.0376 7.26276 32.1495 7.16505 32.2425C6.96634 32.4355 6.6994 32.5423 6.42233 32.5396H1.05049C0.910617 32.5395 0.77211 32.5121 0.642718 32.4589C0.453822 32.3823 0.29149 32.252 0.175728 32.0843C0.0619182 31.9185 0.000682473 31.7222 0 31.5212V15.9435C0.00291262 11.0192 2.32233 6.62403 5.95728 3.72986L5.96019 3.72695C6.02718 3.67452 6.0932 3.62209 6.16019 3.57161L6.17184 3.5619C6.30583 3.45898 6.44175 3.35801 6.57961 3.26093L6.61456 3.23471L6.79903 3.10462L6.81845 3.09102C6.88641 3.04345 6.95437 2.99782 7.0233 2.95122L7.06019 2.92695L7.22913 2.81335L7.27961 2.78132C7.45049 2.67161 7.6233 2.56481 7.79806 2.46093L7.80583 2.45607C7.90874 2.39394 8.01456 2.33277 8.12233 2.27355L8.13107 2.26869C8.23786 2.2085 8.3466 2.14928 8.45534 2.09102L8.45922 2.08908C9.91563 1.31592 11.48 0.766394 13.1 0.458987H13.1049L13.2796 0.426948L13.301 0.423064L13.4641 0.393938L13.4981 0.389084L13.6534 0.364812L13.6981 0.358016L13.8437 0.336657L13.8981 0.32889C13.9443 0.322045 13.9906 0.315572 14.0369 0.309472L14.0971 0.301705L14.2311 0.2852L14.299 0.277433L14.4252 0.26287L14.501 0.255103L14.6204 0.243453L14.7019 0.235686L14.8184 0.225977L14.9058 0.219181L15.0184 0.209472L15.1107 0.203647L15.2184 0.196851L15.3175 0.191026L15.4204 0.186171L15.5262 0.181317L15.6233 0.177433L15.7398 0.17355L15.8272 0.171608L15.9602 0.167725H16.2369C25.2078 0.167725 32.4699 7.2318 32.4728 15.9464V31.5212C32.4731 31.6559 32.446 31.7894 32.3931 31.9134C32.3402 32.0375 32.2626 32.1494 32.1651 32.2425C31.9663 32.4355 31.6994 32.5423 31.4223 32.5396H26.0505C25.7728 32.5396 25.5058 32.4328 25.3087 32.2416C25.2117 32.1482 25.1345 32.0363 25.0814 31.9126C25.0283 31.7888 25.0007 31.6557 25 31.5212V28.4561C25 28.1862 24.8883 27.927 24.6913 27.7357C24.4921 27.5438 24.2261 27.4369 23.9495 27.4377H16.2369L8.39903 27.4454V27.4464ZM25.001 15.293C25.001 10.5911 21.0767 6.77937 16.2369 6.77937C15.4989 6.77959 14.7637 6.8699 14.0476 7.04831C12.7442 7.37344 11.5322 7.99172 10.5039 8.85607C9.55741 9.64868 8.79449 10.6375 8.26796 11.7542C7.74658 12.8613 7.4767 14.0701 7.47767 15.294C7.47767 19.9959 11.3971 23.8066 16.235 23.8066C21.0767 23.8066 25 19.9959 25 15.293H25.001Z" fill="#171A1E"/>
</svg>
