<svg width="184" height="65" viewBox="0 0 184 65" fill="none" xmlns="http://www.w3.org/2000/svg">
<path fill-rule="evenodd" clip-rule="evenodd" d="M58.9038 58.6454H47.1875L43.3705 47.604H20.131L16.3908 58.6454H4.59998L25.1746 5.00952H33.6744C36.5581 5.00952 38.4107 5.89628 39.1648 7.95839C39.9166 10.0135 49.2892 33.8721 49.2892 33.8721H38.3292L31.6751 15.7507L23.2498 38.5782H46.7825C49.9385 38.5782 51.6725 39.5976 52.508 42.1625L58.9038 58.6454Z" fill="#339933"/>
<path fill-rule="evenodd" clip-rule="evenodd" d="M161.665 58.6477H149.946L146.129 47.6063H122.892L119.15 58.6477H107.361L127.936 5.00952H136.436C139.319 5.00952 141.172 5.8986 141.924 7.96072C142.675 10.0158 152.048 33.8744 152.048 33.8744H141.09L134.436 15.753L126.011 38.5805H149.544C152.7 38.5805 154.431 39.5999 155.269 42.1648L162.142 59.1202L161.665 58.6477ZM82.5692 48.9469C92.9264 48.9469 97.3089 43.9476 97.3089 31.8635C97.3089 19.9284 93.1544 14.4077 83.9331 14.4077H73.576V48.9469H82.5692ZM62.6231 5.00952H83.9355C100.565 5.00952 108.727 13.7374 108.727 31.8635C108.727 41.8622 105.553 49.3985 99.8831 53.8718C94.5928 58.0496 88.6951 58.6454 80.9144 58.6454H62.6207L62.6231 5.00952Z" fill="#339933"/>
<path fill-rule="evenodd" clip-rule="evenodd" d="M169.641 50.8067H170.551C171.615 50.8067 172.474 50.4576 172.474 49.6081C172.474 48.8586 171.915 48.3606 170.705 48.3606C170.197 48.3606 169.844 48.4118 169.641 48.4606V50.8067ZM169.59 55.3964H167.67V47.262C168.428 47.1131 169.49 46.9641 170.856 46.9641C172.422 46.9641 173.13 47.2131 173.737 47.6111C174.191 47.9602 174.545 48.6119 174.545 49.3567C174.545 50.3063 173.837 51.0045 172.827 51.3048V51.4049C173.635 51.6539 174.091 52.3032 174.345 53.4018C174.596 54.6493 174.747 55.1474 174.95 55.3964H172.878C172.622 55.0985 172.474 54.3979 172.22 53.4507C172.069 52.5523 171.564 52.1543 170.5 52.1543H169.592L169.59 55.3964ZM170.856 44.618C167.214 44.618 164.486 47.5623 164.486 51.1558C164.486 54.7983 167.214 57.6936 170.956 57.6936C174.596 57.7425 177.275 54.7983 177.275 51.1535C177.275 47.5622 174.598 44.618 170.905 44.618H170.856ZM170.956 42.9702C175.709 42.9702 179.4 46.615 179.4 51.1558C179.4 55.7967 175.709 59.3903 170.905 59.3903C166.152 59.3903 162.361 55.7967 162.361 51.1558C162.361 46.615 166.155 42.9702 170.905 42.9702H170.956Z" fill="#339933"/>
</svg>
