<svg  viewBox="20 16 220 50" fill="none" xmlns="http://www.w3.org/2000/svg"><defs>
<clipPath id="clip0_0_60">
<rect width="50" height="50" fill="white" transform="translate(20 16)"/>
</clipPath>
</defs><g clip-path="url(#clip0_0_60)">
<path d="M32.7221 57.5738C32.3676 57.6139 32.0365 57.7705 31.7809 58.0193C31.5292 58.2648 31.3698 58.5893 31.3294 58.9385C31.3294 58.9605 31.3294 58.9826 31.3265 59.0061V58.9841C31.3227 59.0251 31.3208 59.0664 31.3206 59.1076V63.7458C31.3208 63.9501 31.2795 64.1524 31.1991 64.3402C31.1187 64.528 31.0009 64.6976 30.8529 64.8385C30.552 65.131 30.1476 65.2927 29.7279 65.2885H21.5912C21.3793 65.2883 21.1695 65.2469 20.9735 65.1664C20.6874 65.0502 20.4415 64.8529 20.2662 64.5988C20.0938 64.3476 20.001 64.0504 20 63.7458V40.1502C20.0044 32.6914 23.5176 26.0341 29.0235 21.6502L29.0279 21.6458C29.1294 21.5664 29.2294 21.487 29.3309 21.4105L29.3485 21.3958C29.5515 21.2399 29.7574 21.087 29.9662 20.9399L30.0191 20.9002L30.2985 20.7032L30.3279 20.6826C30.4309 20.6105 30.5338 20.5414 30.6382 20.4708L30.6941 20.4341L30.95 20.262L31.0265 20.2135C31.2853 20.0473 31.5471 19.8855 31.8118 19.7282L31.8235 19.7208C31.9794 19.6267 32.1397 19.5341 32.3029 19.4444L32.3162 19.437C32.4779 19.3458 32.6426 19.2561 32.8074 19.1679L32.8132 19.1649C35.0193 17.9938 37.3888 17.1614 39.8426 16.6958H39.85L40.1147 16.6473L40.1471 16.6414L40.3941 16.5973L40.4456 16.5899L40.6809 16.5532L40.7485 16.5429L40.9691 16.5105L41.0515 16.4988C41.1215 16.4884 41.1916 16.4786 41.2618 16.4693L41.3529 16.4576L41.5559 16.4326L41.6588 16.4208L41.85 16.3988L41.9647 16.387L42.1456 16.3693L42.2691 16.3576L42.4456 16.3429L42.5779 16.3326L42.7485 16.3179L42.8882 16.3091L43.0515 16.2988L43.2015 16.2899L43.3574 16.2826L43.5176 16.2752L43.6647 16.2693L43.8412 16.2635L43.9735 16.2605L44.175 16.2546H44.5941C58.1824 16.2546 69.1824 26.9546 69.1868 40.1546V63.7458C69.1872 63.9501 69.1462 64.1521 69.066 64.3401C68.9859 64.5279 68.8684 64.6974 68.7206 64.8385C68.4196 65.131 68.0153 65.2927 67.5956 65.2885H59.4588C59.0382 65.2885 58.6338 65.1267 58.3353 64.837C58.1884 64.6957 58.0713 64.5263 57.9909 64.3388C57.9106 64.1514 57.8687 63.9498 57.8676 63.7458V59.1032C57.8676 58.6944 57.6985 58.3017 57.4 58.012C57.0984 57.7213 56.6954 57.5594 56.2765 57.5605H44.5941L32.7221 57.5723V57.5738ZM57.8691 39.1649C57.8691 32.0429 51.925 26.2694 44.5941 26.2694C43.4763 26.2697 42.3626 26.4065 41.2779 26.6767C39.3037 27.1692 37.4679 28.1057 35.9103 29.4149C34.4767 30.6155 33.3211 32.1133 32.5235 33.8046C31.7338 35.4817 31.325 37.3127 31.3265 39.1664C31.3265 46.2885 37.2632 52.0605 44.5912 52.0605C51.925 52.0605 57.8676 46.2885 57.8676 39.1649H57.8691Z" fill="#171A1E"/>
</g><path d="M124.399 51.4464C124.165 51.4728 123.946 51.5763 123.778 51.7406C123.612 51.9025 123.506 52.1168 123.48 52.3474C123.48 52.3619 123.48 52.3765 123.478 52.392V52.3775C123.475 52.4046 123.474 52.4318 123.474 52.459V55.5212C123.474 55.656 123.447 55.7895 123.394 55.9136C123.341 56.0376 123.263 56.1495 123.165 56.2425C122.966 56.4355 122.699 56.5423 122.422 56.5396H117.05C116.911 56.5395 116.772 56.5121 116.643 56.4589C116.454 56.3823 116.291 56.252 116.176 56.0843C116.062 55.9185 116.001 55.7222 116 55.5212V39.9435C116.003 35.0192 118.322 30.624 121.957 27.7299L121.96 27.7269C122.027 27.6745 122.093 27.6221 122.16 27.5716L122.172 27.5619C122.306 27.459 122.442 27.358 122.58 27.2609L122.615 27.2347L122.799 27.1046L122.818 27.091C122.886 27.0435 122.954 26.9978 123.023 26.9512L123.06 26.9269L123.229 26.8134L123.28 26.7813C123.45 26.6716 123.623 26.5648 123.798 26.4609L123.806 26.4561C123.909 26.3939 124.015 26.3328 124.122 26.2735L124.131 26.2687C124.238 26.2085 124.347 26.1493 124.455 26.091L124.459 26.0891C125.916 25.3159 127.48 24.7664 129.1 24.459H129.105L129.28 24.4269L129.301 24.4231L129.464 24.3939L129.498 24.3891L129.653 24.3648L129.698 24.358L129.844 24.3367L129.898 24.3289C129.944 24.322 129.991 24.3156 130.037 24.3095L130.097 24.3017L130.231 24.2852L130.299 24.2774L130.425 24.2629L130.501 24.2551L130.62 24.2435L130.702 24.2357L130.818 24.226L130.906 24.2192L131.018 24.2095L131.111 24.2036L131.218 24.1969L131.317 24.191L131.42 24.1862L131.526 24.1813L131.623 24.1774L131.74 24.1735L131.827 24.1716L131.96 24.1677H132.237C141.208 24.1677 148.47 31.2318 148.473 39.9464V55.5212C148.473 55.6559 148.446 55.7894 148.393 55.9134C148.34 56.0375 148.263 56.1494 148.165 56.2425C147.966 56.4355 147.699 56.5423 147.422 56.5396H142.05C141.773 56.5396 141.506 56.4328 141.309 56.2416C141.212 56.1482 141.134 56.0363 141.081 55.9126C141.028 55.7888 141.001 55.6557 141 55.5212V52.4561C141 52.1862 140.888 51.927 140.691 51.7357C140.492 51.5438 140.226 51.4369 139.95 51.4377H132.237L124.399 51.4454V51.4464ZM141.001 39.293C141.001 34.5911 137.077 30.7794 132.237 30.7794C131.499 30.7796 130.764 30.8699 130.048 31.0483C128.744 31.3734 127.532 31.9917 126.504 32.8561C125.557 33.6487 124.794 34.6375 124.268 35.7542C123.747 36.8613 123.477 38.0701 123.478 39.294C123.478 43.9959 127.397 47.8066 132.235 47.8066C137.077 47.8066 141 43.9959 141 39.293H141.001Z" fill="#171A1E"/><path d="M213.075 43.0789V42.6216H207.916C205.172 42.6216 203.382 43.8876 203.382 45.9614C203.382 47.7905 204.88 48.9517 207.22 48.9517C210.917 48.9517 213.074 46.7255 213.074 43.0789H213.075ZM215.999 39.6313V51.0643H213.075V48.0002C212.086 50.041 209.635 51.341 206.781 51.341C202.906 51.341 200.382 49.2352 200.382 45.9973C200.382 42.6196 203.271 40.4692 207.734 40.4692H211.902C212.715 40.4692 213.075 40.0827 213.075 39.5196C213.075 37.0925 211.282 35.4391 208.135 35.4391C205.426 35.4391 203.31 37.0585 203.163 38.9925H200.382C200.712 35.5711 204.076 33.0487 208.208 33.0487C213.001 33.0546 215.999 35.6895 215.999 39.6293V39.6313ZM193.585 42.1983C193.585 38.1886 191.169 35.5886 187.475 35.5886C183.781 35.5886 181.33 38.1895 181.33 42.1983C181.33 46.208 183.767 48.8138 187.475 48.8138C191.183 48.8138 193.585 46.1992 193.585 42.1983ZM178.332 42.1983C178.332 37.0284 181.477 33.0565 187.218 33.0565C189.818 33.0565 192.23 34.3225 193.327 36.2148V24.1555H196.254V51.0633H193.327V48.1439C192.244 50.0789 189.807 51.342 187.218 51.342C181.477 51.342 178.332 47.3672 178.332 42.1973V42.1983ZM171.706 43.0798V42.6226H166.56C163.817 42.6226 162.024 43.8886 162.024 45.9624C162.024 47.7915 163.524 48.9526 165.867 48.9526C169.539 48.9526 171.706 46.7264 171.706 43.0798ZM174.633 39.6313V51.0643H171.706V48.0002C170.72 50.041 168.269 51.341 165.415 51.341C161.539 51.341 159.016 49.2352 159.016 45.9973C159.016 42.6196 161.905 40.4692 166.365 40.4692H170.536C171.349 40.4692 171.706 40.0827 171.706 39.5196C171.706 37.0925 169.916 35.4391 166.769 35.4391C164.06 35.4391 161.94 37.0585 161.794 38.9925H159.016C159.343 35.5711 162.709 33.0487 166.842 33.0487C171.632 33.0546 174.633 35.6895 174.633 39.6293V39.6313Z" fill="#171A1E"/></svg>