<svg width="243" height="49" viewBox="0 0 243 49" fill="none" xmlns="http://www.w3.org/2000/svg">
<path d="M43.842 19.3167C39.6255 14.5586 35.1259 10.059 30.3677 5.84245C28.9646 4.68382 27.2017 4.05005 25.382 4.05005C23.5623 4.05005 21.7994 4.68382 20.3962 5.84245C15.6414 10.0609 11.1452 14.5622 6.93205 19.3218C5.77342 20.7249 5.13965 22.4878 5.13965 24.3076C5.13965 26.1273 5.77342 27.8902 6.93205 29.2933C11.1489 34.048 15.6485 38.5442 20.4063 42.7575C21.7948 43.9381 23.5646 44.5748 25.387 44.5493C27.2172 44.5741 28.9942 43.9338 30.388 42.7473C32.8682 40.5101 35.1308 38.3437 37.3124 36.1317C37.6832 35.6923 37.8719 35.1277 37.8399 34.5537C37.8079 33.9796 37.5576 33.4395 37.1403 33.0441L30.4487 26.7928C31.3014 26.0348 31.9746 25.0964 32.4193 24.0458C32.8641 22.9951 33.0693 21.8586 33.0201 20.7188C32.9294 18.8033 32.1358 16.9885 30.7911 15.6214C29.4464 14.2543 27.6449 13.4308 25.7312 13.3085C24.68 13.2465 23.6273 13.4009 22.6383 13.7622C21.6492 14.1236 20.7448 14.6841 19.9811 15.4091C19.2041 16.1439 18.588 17.0318 18.1715 18.0168C17.7551 19.0018 17.5475 20.0624 17.5618 21.1317C17.576 22.201 17.8119 23.2558 18.2545 24.2293C18.697 25.2028 19.3367 26.074 20.133 26.7878L17.7135 28.9795C17.3269 29.3259 17.0937 29.8116 17.0652 30.3299C17.0367 30.8482 17.2153 31.3566 17.5616 31.7432C17.908 32.1298 18.3937 32.363 18.912 32.3915C19.4303 32.42 19.9387 32.2414 20.3253 31.895L23.008 29.4654L23.0738 29.3996C23.4316 29.04 23.7108 28.61 23.8937 28.1369C24.0767 27.6638 24.1595 27.1579 24.1368 26.6511C24.1195 26.1399 23.9968 25.6377 23.7765 25.1761C23.5561 24.7145 23.2428 24.3033 22.8562 23.9684C22.2547 23.4614 21.8235 22.7818 21.6212 22.0216C21.4188 21.2614 21.455 20.4574 21.7249 19.7185C21.9947 18.9796 22.4852 18.3414 23.1299 17.8906C23.7745 17.4397 24.5422 17.1979 25.3288 17.1979C26.1155 17.1979 26.8831 17.4397 27.5278 17.8906C28.1724 18.3414 28.6629 18.9796 28.9328 19.7185C29.2026 20.4574 29.2388 21.2614 29.0365 22.0216C28.8341 22.7818 28.403 23.4614 27.8015 23.9684C27.4061 24.3021 27.0841 24.7141 26.8558 25.1785C26.6276 25.6428 26.498 26.1494 26.4753 26.6663C26.455 27.1705 26.539 27.6735 26.7219 28.1438C26.9048 28.6141 27.1827 29.0416 27.5383 29.3996L27.5889 29.4502L33.2074 34.7144C31.4864 36.4151 29.6945 38.1058 27.7913 39.8369C27.0996 40.3548 26.2587 40.6347 25.3946 40.6347C24.5305 40.6347 23.6896 40.3548 22.9979 39.8369C18.3524 35.7166 13.9577 31.322 9.83747 26.6764C9.31954 25.9847 9.03962 25.1438 9.03962 24.2797C9.03962 23.4156 9.31954 22.5747 9.83747 21.883C13.9552 17.2351 18.35 12.8403 22.9979 8.72256C23.6887 8.20702 24.5276 7.9285 25.3896 7.9285C26.2515 7.9285 27.0904 8.20702 27.7812 8.72256C32.4291 12.8403 36.8239 17.2351 40.9417 21.883C41.4572 22.5738 41.7357 23.4127 41.7357 24.2747C41.7357 25.1366 41.4572 25.9755 40.9417 26.6663C40.2684 27.4256 39.5952 28.1848 38.917 28.8783C38.5666 29.2589 38.3817 29.763 38.4031 30.2799C38.4245 30.7968 38.6503 31.284 39.0309 31.6344C39.4114 31.9847 39.9156 32.1696 40.4325 32.1482C40.9494 32.1269 41.4366 31.9011 41.787 31.5205C42.4551 30.7967 43.1435 30.0374 43.8116 29.2579C44.968 27.8602 45.6033 26.1043 45.6088 24.2902C45.6143 22.4761 44.9899 20.7164 43.842 19.3116V19.3167Z" fill="url(#paint0_linear_0_10460)"/>
<path d="M43.842 19.3167C39.6255 14.5586 35.1259 10.059 30.3677 5.84245C28.9646 4.68382 27.2017 4.05005 25.382 4.05005C23.5623 4.05005 21.7994 4.68382 20.3962 5.84245C15.6414 10.0609 11.1452 14.5622 6.93205 19.3218C5.77342 20.7249 5.13965 22.4878 5.13965 24.3076C5.13965 26.1273 5.77342 27.8902 6.93205 29.2933C11.1489 34.048 15.6485 38.5442 20.4063 42.7575C21.7948 43.9381 23.5646 44.5748 25.387 44.5493C27.2172 44.5741 28.9942 43.9338 30.388 42.7473C32.8682 40.5101 35.1308 38.3437 37.3124 36.1317C37.6832 35.6923 37.8719 35.1277 37.8399 34.5537C37.8079 33.9796 37.5576 33.4395 37.1403 33.0441L30.4487 26.7928C31.3014 26.0348 31.9746 25.0964 32.4193 24.0458C32.8641 22.9951 33.0693 21.8586 33.0201 20.7188C32.9294 18.8033 32.1358 16.9885 30.7911 15.6214C29.4464 14.2543 27.6449 13.4308 25.7312 13.3085C24.68 13.2465 23.6273 13.4009 22.6383 13.7622C21.6492 14.1236 20.7448 14.6841 19.9811 15.4091C19.2041 16.1439 18.588 17.0318 18.1715 18.0168C17.7551 19.0018 17.5475 20.0624 17.5618 21.1317C17.576 22.201 17.8119 23.2558 18.2545 24.2293C18.697 25.2028 19.3367 26.074 20.133 26.7878L17.7135 28.9795C17.3269 29.3259 17.0937 29.8116 17.0652 30.3299C17.0367 30.8482 17.2153 31.3566 17.5616 31.7432C17.908 32.1298 18.3937 32.363 18.912 32.3915C19.4303 32.42 19.9387 32.2414 20.3253 31.895L23.008 29.4654L23.0738 29.3996C23.4316 29.04 23.7108 28.61 23.8937 28.1369C24.0767 27.6638 24.1595 27.1579 24.1368 26.6511C24.1195 26.1399 23.9968 25.6377 23.7765 25.1761C23.5561 24.7145 23.2428 24.3033 22.8562 23.9684C22.2547 23.4614 21.8235 22.7818 21.6212 22.0216C21.4188 21.2614 21.455 20.4574 21.7249 19.7185C21.9947 18.9796 22.4852 18.3414 23.1299 17.8906C23.7745 17.4397 24.5422 17.1979 25.3288 17.1979C26.1155 17.1979 26.8831 17.4397 27.5278 17.8906C28.1724 18.3414 28.6629 18.9796 28.9328 19.7185C29.2026 20.4574 29.2388 21.2614 29.0365 22.0216C28.8341 22.7818 28.403 23.4614 27.8015 23.9684C27.4061 24.3021 27.0841 24.7141 26.8558 25.1785C26.6276 25.6428 26.498 26.1494 26.4753 26.6663C26.455 27.1705 26.539 27.6735 26.7219 28.1438C26.9048 28.6141 27.1827 29.0416 27.5383 29.3996L27.5889 29.4502L33.2074 34.7144C31.4864 36.4151 29.6945 38.1058 27.7913 39.8369C27.0996 40.3548 26.2587 40.6347 25.3946 40.6347C24.5305 40.6347 23.6896 40.3548 22.9979 39.8369C18.3524 35.7166 13.9577 31.322 9.83747 26.6764C9.31954 25.9847 9.03962 25.1438 9.03962 24.2797C9.03962 23.4156 9.31954 22.5747 9.83747 21.883C13.9552 17.2351 18.35 12.8403 22.9979 8.72256C23.6887 8.20702 24.5276 7.9285 25.3896 7.9285C26.2515 7.9285 27.0904 8.20702 27.7812 8.72256C32.4291 12.8403 36.8239 17.2351 40.9417 21.883C41.4572 22.5738 41.7357 23.4127 41.7357 24.2747C41.7357 25.1366 41.4572 25.9755 40.9417 26.6663C40.2684 27.4256 39.5952 28.1848 38.917 28.8783C38.5666 29.2589 38.3817 29.763 38.4031 30.2799C38.4245 30.7968 38.6503 31.284 39.0309 31.6344C39.4114 31.9847 39.9156 32.1696 40.4325 32.1482C40.9494 32.1269 41.4366 31.9011 41.787 31.5205C42.4551 30.7967 43.1435 30.0374 43.8116 29.2579C44.968 27.8602 45.6033 26.1043 45.6088 24.2902C45.6143 22.4761 44.9899 20.7164 43.842 19.3116V19.3167Z" fill="url(#paint1_linear_0_10460)"/>
<path d="M40.9264 21.9086C41.442 22.5994 41.7205 23.4383 41.7205 24.3003C41.7205 25.1622 41.442 26.0011 40.9264 26.6919C40.2481 27.4512 39.5749 28.2104 38.9017 28.9039C38.7105 29.0885 38.559 29.3102 38.4566 29.5555C38.3542 29.8007 38.303 30.0643 38.3063 30.3301C38.3096 30.5959 38.3671 30.8582 38.4755 31.1008C38.5839 31.3435 38.7408 31.5615 38.9365 31.7413C39.1322 31.9211 39.3626 32.059 39.6136 32.1465C39.8646 32.2339 40.1308 32.2691 40.3959 32.2499C40.661 32.2307 40.9193 32.1574 41.1551 32.0346C41.3908 31.9119 41.5989 31.7422 41.7667 31.536C42.4348 30.8172 43.1232 30.058 43.7913 29.2785C46.2311 26.5806 40.9213 21.9036 40.9213 21.9036L40.9264 21.9086Z" fill="url(#paint2_linear_0_10460)"/>
<path d="M33.2074 34.7094C31.4864 36.4152 29.6946 38.1008 27.7914 39.8369C27.0997 40.3549 26.2588 40.6348 25.3947 40.6348C24.5305 40.6348 23.6897 40.3549 22.9979 39.8369C18.3524 35.7167 13.9577 31.322 9.83752 26.6765C9.31959 25.9848 9.03967 25.1439 9.03967 24.2798C9.03967 23.4156 9.31959 22.5748 9.83752 21.8831L8.95172 22.8954C7.88491 24.1072 7.30486 25.6713 7.32356 27.2856C7.34225 28.9 7.95837 30.4502 9.05295 31.637C12.647 35.5333 16.4364 39.2449 20.4064 42.7575C21.7949 43.9381 23.5646 44.5748 25.3871 44.5494C27.2173 44.5742 28.9943 43.9339 30.388 42.7474C31.8053 41.4719 33.3744 39.9989 34.7765 38.6474C34.943 38.4882 35.0754 38.2969 35.1659 38.085C35.2564 37.8732 35.3031 37.6452 35.3031 37.4149C35.3031 37.1845 35.2564 36.9566 35.1659 36.7447C35.0754 36.5329 34.943 36.3416 34.7765 36.1824L33.2074 34.7094Z" fill="url(#paint3_linear_0_10460)"/>
<path opacity="0.9" d="M9.07826 31.657C10.5563 33.2616 12.0292 34.7953 13.5326 36.2936L14.14 35.3065C14.6461 34.4967 15.1523 33.7121 15.6939 32.9275C13.7452 30.9433 11.8217 28.8984 9.84764 26.7016C9.32971 26.0099 9.04979 25.169 9.04979 24.3049C9.04979 23.4408 9.32971 22.5999 9.84764 21.9082L8.96691 22.9205C7.90579 24.1295 7.32827 25.6876 7.34508 27.2961C7.3619 28.9046 7.97186 30.4503 9.05802 31.6368L9.07826 31.657Z" fill="url(#paint4_linear_0_10460)"/>
<path d="M40.9264 21.9086C41.442 22.5994 41.7205 23.4383 41.7205 24.3003C41.7205 25.1622 41.442 26.0011 40.9264 26.6919C40.2481 27.4512 39.5749 28.2104 38.9017 28.9039C38.7105 29.0885 38.559 29.3102 38.4566 29.5555C38.3542 29.8007 38.303 30.0643 38.3063 30.3301C38.3096 30.5959 38.3671 30.8582 38.4755 31.1008C38.5839 31.3435 38.7408 31.5615 38.9365 31.7413C39.1322 31.9211 39.3626 32.059 39.6136 32.1465C39.8646 32.2339 40.1308 32.2691 40.3959 32.2499C40.661 32.2307 40.9193 32.1574 41.1551 32.0346C41.3908 31.9119 41.5989 31.7422 41.7667 31.536C42.4348 30.8172 43.1232 30.058 43.7913 29.2785C46.2311 26.5806 40.9213 21.9036 40.9213 21.9036L40.9264 21.9086Z" fill="url(#paint5_linear_0_10460)"/>
<path opacity="0.9" d="M34.7512 36.182L33.2073 34.7141C31.4864 36.4148 29.6945 38.1055 27.7812 39.8366C27.3495 40.1683 26.853 40.4059 26.3238 40.5341C25.7946 40.6622 25.2444 40.6781 24.7087 40.5806V44.5136C24.9315 44.5136 25.1542 44.5439 25.3819 44.5439C27.2104 44.5675 28.9854 43.9273 30.3778 42.742C31.7951 41.4664 33.3643 39.9935 34.7663 38.642C34.9325 38.4821 35.0643 38.2901 35.1539 38.0777C35.2435 37.8652 35.289 37.6368 35.2876 37.4062C35.2862 37.1757 35.2379 36.9478 35.1457 36.7365C35.0535 36.5251 34.9192 36.3348 34.7512 36.1769V36.182Z" fill="url(#paint6_linear_0_10460)"/>
<path d="M54.2388 32.4775H57.4023V25.8973H64.7114V22.9615H57.372V19.2159H64.6861V16.2295H54.2388V32.4775ZM68.5887 15.0754C68.3266 15.0704 68.0663 15.1189 67.8237 15.2182C67.5811 15.3174 67.3613 15.4651 67.1778 15.6524C66.9944 15.8396 66.8512 16.0624 66.7569 16.307C66.6627 16.5516 66.6194 16.8128 66.6298 17.0748C66.6298 17.5983 66.8378 18.1004 67.208 18.4706C67.5782 18.8408 68.0803 19.0488 68.6039 19.0488C69.1274 19.0488 69.6296 18.8408 69.9998 18.4706C70.37 18.1004 70.578 17.5983 70.578 17.0748C70.5911 16.8079 70.5481 16.5412 70.4516 16.292C70.3551 16.0427 70.2074 15.8166 70.0179 15.6281C69.8285 15.4396 69.6016 15.293 69.3519 15.1978C69.1022 15.1026 68.8353 15.0609 68.5685 15.0754H68.5887ZM67.0297 32.4775H70.168V20.456H67.0297V32.4775ZM75.6346 22.3035V20.461H72.5976V32.4826H75.6346V26.1352C75.6346 24.1105 76.6469 23.3108 78.2414 23.3108C78.8062 23.2877 79.3649 23.434 79.8459 23.7309L80.9595 20.6939C80.3309 20.3809 79.637 20.2213 78.9348 20.2282C77.4163 20.2535 76.2015 20.8862 75.6295 22.3035H75.6346ZM87.4891 20.213C86.6595 20.1994 85.8355 20.3523 85.0659 20.6624C84.2963 20.9726 83.5966 21.4338 83.0083 22.0189C82.4199 22.604 81.9547 23.301 81.6402 24.0689C81.3257 24.8367 81.1683 25.6598 81.1772 26.4895C81.1772 29.9821 83.6726 32.7255 87.5549 32.7255C88.6442 32.7808 89.7293 32.5535 90.7049 32.0657C91.6805 31.5779 92.5134 30.8462 93.1228 29.9416L90.5919 28.4737C90.2867 28.987 89.8474 29.4076 89.3213 29.6903C88.7952 29.9729 88.2021 30.1071 87.6055 30.0783C86.8232 30.1298 86.0477 29.9044 85.4147 29.4417C84.7818 28.9791 84.3317 28.3085 84.1433 27.5474H93.7201V26.3832C93.7443 25.5619 93.5994 24.7443 93.2943 23.9813C92.9892 23.2183 92.5304 22.5262 91.9465 21.9481C91.3626 21.3699 90.6661 20.9179 89.9002 20.6203C89.1342 20.3227 88.3153 20.1858 87.4942 20.2181L87.4891 20.213ZM84.2294 25.133C84.4505 24.4484 84.8867 23.8534 85.4731 23.4366C86.0595 23.0198 86.7648 22.8035 87.484 22.8198C88.1988 22.7709 88.9078 22.9762 89.4858 23.3995C90.0638 23.8228 90.4735 24.4368 90.6426 25.133H84.2294ZM96.5799 20.0359V20.461H94.5907V23.2247H96.5749V32.4876H99.6119V23.2247H102.507V20.456H99.6119V19.8789C99.6119 18.0567 99.865 17.7429 101.991 17.7429H102.497V14.9387H101.702C97.8049 14.9387 96.5749 16.1434 96.5749 20.0359H96.5799ZM109.589 20.213C108.358 20.2419 107.163 20.6332 106.154 21.338C105.144 22.0428 104.365 23.0297 103.914 24.1751C103.463 25.3205 103.36 26.5736 103.618 27.7773C103.875 28.9811 104.483 30.0821 105.363 30.9424C106.244 31.8027 107.358 32.3842 108.568 32.6139C109.777 32.8437 111.027 32.7115 112.162 32.234C113.297 31.7564 114.265 30.9548 114.947 29.9293C115.628 28.9039 115.991 27.7003 115.992 26.4693C115.996 25.6344 115.832 24.8073 115.511 24.0369C115.189 23.2666 114.715 22.5688 114.119 21.9851C113.522 21.4015 112.813 20.9438 112.036 20.6393C111.259 20.3349 110.428 20.1899 109.594 20.213H109.589ZM109.589 29.8303C108.921 29.8423 108.266 29.6555 107.705 29.2936C107.144 28.9317 106.704 28.4111 106.44 27.7981C106.177 27.1851 106.101 26.5075 106.224 25.8516C106.347 25.1957 106.662 24.5912 107.13 24.115C107.597 23.6389 108.196 23.3127 108.849 23.178C109.503 23.0433 110.182 23.1063 110.8 23.3588C111.417 23.6113 111.946 24.0419 112.318 24.5959C112.69 25.1498 112.889 25.802 112.889 26.4693C112.893 26.9042 112.812 27.3357 112.65 27.7392C112.487 28.1427 112.247 28.5101 111.942 28.8205C111.637 29.1308 111.275 29.378 110.874 29.5478C110.474 29.7176 110.044 29.8067 109.609 29.81L109.589 29.8303ZM128.646 20.4661H125.037L122.506 24.0093L119.975 20.4661H116.321L120.572 26.3276L116.078 32.4927H119.773L122.476 28.7319L125.239 32.4927H128.965L124.369 26.3276L128.646 20.4661ZM138.212 16.2295H136.34V32.4775H146.585V30.6806H138.212V16.2295ZM153.904 20.213C152.666 20.213 151.457 20.5799 150.428 21.2674C149.399 21.9548 148.597 22.9319 148.124 24.0751C147.65 25.2183 147.526 26.4762 147.768 27.6898C148.009 28.9034 148.605 30.0182 149.48 30.8931C150.355 31.7681 151.47 32.3639 152.683 32.6053C153.897 32.8467 155.155 32.7228 156.298 32.2493C157.441 31.7758 158.418 30.9739 159.106 29.9451C159.793 28.9162 160.16 27.7067 160.16 26.4693C160.171 25.6438 160.016 24.8245 159.705 24.0599C159.394 23.2953 158.933 22.6008 158.348 22.0175C157.764 21.4342 157.069 20.974 156.304 20.6641C155.539 20.3541 154.719 20.2008 153.894 20.213H153.904ZM153.904 30.9944C153.314 31.0004 152.729 30.8864 152.185 30.6594C151.64 30.4324 151.148 30.0971 150.737 29.6739C150.326 29.2507 150.005 28.7484 149.794 28.1976C149.584 27.6467 149.487 27.0587 149.51 26.4693C149.51 25.891 149.624 25.3183 149.845 24.7841C150.067 24.2498 150.391 23.7643 150.8 23.3554C151.209 22.9465 151.694 22.6221 152.229 22.4008C152.763 22.1795 153.336 22.0656 153.914 22.0656C154.492 22.0656 155.065 22.1795 155.599 22.4008C156.133 22.6221 156.619 22.9465 157.028 23.3554C157.437 23.7643 157.761 24.2498 157.982 24.7841C158.204 25.3183 158.318 25.891 158.318 26.4693C158.337 27.0599 158.236 27.6483 158.022 28.1991C157.807 28.7498 157.484 29.2514 157.071 29.6738C156.657 30.0961 156.163 30.4304 155.617 30.6565C155.071 30.8826 154.485 30.9958 153.894 30.9894L153.904 30.9944ZM168.249 30.9944C167.652 30.9958 167.062 30.8786 166.511 30.6495C165.961 30.4204 165.461 30.0841 165.042 29.6602C164.623 29.2362 164.292 28.733 164.069 28.18C163.846 27.627 163.736 27.0351 163.744 26.4389C163.728 25.8462 163.831 25.2564 164.048 24.7044C164.264 24.1523 164.588 23.6491 165.002 23.2245C165.416 22.7998 165.91 22.4624 166.457 22.2321C167.003 22.0017 167.59 21.8832 168.183 21.8834C169.049 21.8623 169.901 22.1065 170.625 22.5833C171.349 23.06 171.91 23.7466 172.232 24.5509L173.903 23.8119C173.424 22.7091 172.629 21.7731 171.618 21.1226C170.607 20.472 169.425 20.1361 168.223 20.1573C167.402 20.159 166.589 20.3225 165.83 20.6384C165.072 20.9544 164.383 21.4166 163.803 21.9987C163.223 22.5808 162.764 23.2714 162.451 24.0311C162.138 24.7908 161.978 25.6047 161.98 26.4263C161.981 27.2478 162.145 28.0611 162.461 28.8195C162.777 29.5779 163.239 30.2666 163.821 30.8464C164.403 31.4262 165.094 31.8856 165.853 32.1985C166.613 32.5114 167.427 32.6715 168.249 32.6699C169.474 32.6971 170.679 32.349 171.701 31.6723C172.724 30.9956 173.515 30.0226 173.968 28.8837L172.283 28.1751C171.982 29.004 171.434 29.7205 170.712 30.2275C169.99 30.7345 169.13 31.0076 168.249 31.0096V30.9944ZM187.007 20.4661H184.714L178.337 27.2488V14.9387H176.535V32.4775H178.347V29.3646L180.908 26.6515L185.094 32.5028H187.306L182.244 25.5177L187.007 20.4661ZM202.273 29.9214L198.68 20.456H196.979L193.304 29.9872L190.267 20.461H188.374L192.322 32.4826H194.094L197.799 22.9565L201.494 32.4826H203.144L207.315 20.4661H205.417L202.273 29.9214ZM210.372 15.3183C210.086 15.3183 209.806 15.4033 209.568 15.5623C209.33 15.7214 209.144 15.9475 209.035 16.212C208.925 16.4765 208.896 16.7676 208.952 17.0484C209.008 17.3292 209.146 17.5872 209.348 17.7896C209.551 17.9921 209.809 18.13 210.09 18.1858C210.371 18.2417 210.662 18.213 210.926 18.1034C211.191 17.9939 211.417 17.8083 211.576 17.5703C211.735 17.3322 211.82 17.0523 211.82 16.766C211.823 16.5743 211.788 16.3839 211.716 16.2063C211.643 16.0287 211.536 15.8676 211.4 15.7327C211.263 15.5978 211.101 15.492 210.923 15.4217C210.744 15.3513 210.554 15.3179 210.362 15.3234L210.372 15.3183ZM209.461 32.4775H211.309V20.456H209.461V32.4775ZM219.078 25.5329C217.205 25.1583 215.753 24.9103 215.753 23.66C215.753 22.5465 216.512 21.7518 218.354 21.7518C218.992 21.7266 219.626 21.8594 220.2 22.1385C220.774 22.4175 221.27 22.8342 221.645 23.3513L223.163 22.3389C222.585 21.6309 221.849 21.0687 221.013 20.6977C220.178 20.3267 219.267 20.1572 218.354 20.2029C215.5 20.2029 213.875 21.8226 213.875 23.6955C213.875 26.0998 216.077 26.6566 218.147 27.0564C219.908 27.4108 221.558 27.6841 221.558 29.0153C221.558 30.2301 220.577 31.1159 218.704 31.1159C217.944 31.1475 217.189 30.9841 216.51 30.6412C215.831 30.2983 215.252 29.7874 214.826 29.157L213.247 30.22C214.31 31.7385 216.031 32.7509 218.663 32.7509C221.801 32.7509 223.406 30.9084 223.406 29.0153C223.386 26.5199 221.113 25.9429 219.043 25.5379L219.078 25.5329ZM237.857 26.3276C237.884 25.516 237.744 24.7076 237.446 23.9524C237.147 23.1973 236.697 22.5114 236.123 21.9372C235.549 21.3631 234.863 20.9129 234.108 20.6146C233.352 20.3162 232.544 20.1761 231.733 20.2029C230.901 20.1877 230.076 20.3405 229.305 20.652C228.535 20.9635 227.835 21.4274 227.248 22.0158C226.661 22.6043 226.199 23.3052 225.889 24.0765C225.579 24.8478 225.429 25.6737 225.446 26.5047C225.446 30.0479 227.941 32.7154 231.798 32.7154C232.914 32.76 234.021 32.5011 235.002 31.9663C235.982 31.4315 236.8 30.6408 237.366 29.6784L235.797 28.7673C235.416 29.5013 234.831 30.1099 234.113 30.5201C233.395 30.9304 232.574 31.1249 231.748 31.0805C229.217 31.0805 227.445 29.4506 227.192 27.1577H237.822L237.857 26.3276ZM227.278 25.5481C227.457 24.4997 228.004 23.5495 228.82 22.8678C229.637 22.186 230.669 21.8173 231.733 21.8277C232.787 21.7716 233.822 22.1297 234.616 22.8257C235.41 23.5216 235.901 24.5003 235.984 25.5531L227.278 25.5481Z" fill="#220033"/>
<defs>
<linearGradient id="paint0_linear_0_10460" x1="34.3108" y1="8.84911" x2="15.9571" y2="40.6315" gradientUnits="userSpaceOnUse">
<stop stop-color="#FF980E"/>
<stop offset="0.11" stop-color="#FF851B"/>
<stop offset="0.57" stop-color="#FF3750"/>
<stop offset="0.8" stop-color="#F92261"/>
<stop offset="1" stop-color="#F5156C"/>
</linearGradient>
<linearGradient id="paint1_linear_0_10460" x1="34.1488" y1="3.65074" x2="19.151" y2="38.9966" gradientUnits="userSpaceOnUse">
<stop stop-color="#FFF261" stop-opacity="0.8"/>
<stop offset="0.06" stop-color="#FFF261" stop-opacity="0.68"/>
<stop offset="0.19" stop-color="#FFF261" stop-opacity="0.48"/>
<stop offset="0.31" stop-color="#FFF261" stop-opacity="0.31"/>
<stop offset="0.42" stop-color="#FFF261" stop-opacity="0.17"/>
<stop offset="0.53" stop-color="#FFF261" stop-opacity="0.08"/>
<stop offset="0.63" stop-color="#FFF261" stop-opacity="0.02"/>
<stop offset="0.72" stop-color="#FFF261" stop-opacity="0"/>
</linearGradient>
<linearGradient id="paint2_linear_0_10460" x1="41.4376" y1="42.449" x2="41.4376" y2="18.3756" gradientUnits="userSpaceOnUse">
<stop stop-color="#0090ED"/>
<stop offset="0.5" stop-color="#9059FF"/>
<stop offset="0.81" stop-color="#B833E1"/>
</linearGradient>
<linearGradient id="paint3_linear_0_10460" x1="14.1956" y1="43.78" x2="29.6895" y2="17.4136" gradientUnits="userSpaceOnUse">
<stop offset="0.02" stop-color="#0090ED"/>
<stop offset="0.49" stop-color="#9059FF"/>
<stop offset="1" stop-color="#B833E1"/>
</linearGradient>
<linearGradient id="paint4_linear_0_10460" x1="16.2102" y1="33.621" x2="7.17506" y2="24.5858" gradientUnits="userSpaceOnUse">
<stop offset="0.14" stop-color="#592ACB" stop-opacity="0"/>
<stop offset="0.33" stop-color="#542BC8" stop-opacity="0.03"/>
<stop offset="0.53" stop-color="#462FBF" stop-opacity="0.11"/>
<stop offset="0.74" stop-color="#2F35B1" stop-opacity="0.25"/>
<stop offset="0.95" stop-color="#0F3D9C" stop-opacity="0.44"/>
<stop offset="1" stop-color="#054096" stop-opacity="0.5"/>
</linearGradient>
<linearGradient id="paint5_linear_0_10460" x1="43.5382" y1="23.6499" x2="38.9878" y2="31.5259" gradientUnits="userSpaceOnUse">
<stop stop-color="#722291" stop-opacity="0.5"/>
<stop offset="0.5" stop-color="#B833E1" stop-opacity="0"/>
</linearGradient>
<linearGradient id="paint6_linear_0_10460" x1="33.9109" y1="34.9115" x2="28.6265" y2="40.8691" gradientUnits="userSpaceOnUse">
<stop stop-color="#054096" stop-opacity="0.5"/>
<stop offset="0.03" stop-color="#0F3D9C" stop-opacity="0.44"/>
<stop offset="0.17" stop-color="#2F35B1" stop-opacity="0.25"/>
<stop offset="0.3" stop-color="#462FBF" stop-opacity="0.11"/>
<stop offset="0.43" stop-color="#542BC8" stop-opacity="0.03"/>
<stop offset="0.56" stop-color="#592ACB" stop-opacity="0"/>
</linearGradient>
</defs>
</svg>
