<svg  viewBox="95 25 150 32" fill="none" xmlns="http://www.w3.org/2000/svg"><defs>
<clipPath id="clip0_0_2765">
<rect width="100" height="19.515" fill="white" transform="translate(90 31)"/>
</clipPath>
</defs><g clip-path="url(#clip0_0_2765)">
<path fill-rule="evenodd" clip-rule="evenodd" d="M157.598 32.0512C157.054 32.2765 156.675 32.9102 156.761 33.45C156.995 34.9232 159.07 34.9105 159.305 33.4343C159.372 33.0126 159.32 32.861 158.987 32.4989C158.549 32.024 158.051 31.8634 157.598 32.0512ZM152.391 39.0921V45.7093H153.366H154.34V39.0921V32.4748H153.366H152.391V39.0921ZM173.701 39.0921V45.7093H174.676H175.651V43.0117C175.651 41.5282 175.714 39.9765 175.791 39.5638C176.036 38.2556 176.731 37.6101 177.993 37.5188C179.013 37.445 179.795 37.8048 180.268 38.5653C180.584 39.0735 180.597 39.2082 180.639 42.4007L180.683 45.7093H181.733H182.782L182.72 42.2614C182.67 39.4876 182.612 38.6893 182.424 38.1787C181.863 36.6605 180.524 35.7703 178.805 35.7738C177.735 35.7759 176.586 36.159 176.126 36.6669C175.994 36.8132 175.833 36.9327 175.768 36.9327C175.704 36.9327 175.651 35.9297 175.651 34.7038V32.4748H174.676H173.701V39.0921ZM113.812 33.4439C112.878 33.7665 111.821 34.8031 111.595 35.6199C111.226 36.947 111.546 38.1782 112.469 38.9891C113.081 39.5259 113.601 39.7561 115.259 40.2223C117.396 40.8234 117.988 41.2636 117.988 42.2509C117.988 43.4403 117.214 44.1055 115.829 44.1057C114.764 44.1058 114.131 43.7563 113.744 42.9526L113.461 42.3658H112.451C111.464 42.3658 111.442 42.3735 111.442 42.7186C111.442 44.0626 112.827 45.3714 114.616 45.7176C117.325 46.2417 119.714 44.8493 120.013 42.5713C120.141 41.5902 119.888 40.7848 119.223 40.0631C118.631 39.4206 117.97 39.116 115.581 38.3858C114.047 37.9167 113.531 37.4858 113.531 36.6745C113.531 35.8601 113.773 35.4426 114.432 35.1238C115.654 34.532 117.112 34.9895 117.576 36.1107C117.74 36.5083 117.761 36.5148 118.84 36.5148C120.114 36.5148 120.142 36.4714 119.607 35.3229C119.198 34.4441 118.284 33.6467 117.377 33.3771C116.408 33.0895 114.749 33.1205 113.812 33.4439ZM122.723 34.6342V35.8183H122.166H121.609V36.6541V37.49H122.159H122.709L122.751 40.7289C122.798 44.3687 122.864 44.6587 123.789 45.2885C124.231 45.5893 124.483 45.641 125.739 45.6875L127.18 45.7409V44.8891V44.0376H126.306C124.773 44.0376 124.813 44.1298 124.813 40.5469V37.49H125.997H127.18V36.7238V35.9576H125.997H124.813V34.7038V33.45H123.768H122.723V34.6342ZM185.54 34.6342V35.8183H184.983H184.425V36.6541V37.49H184.973H185.522L185.566 40.7986C185.615 44.5166 185.663 44.7214 186.615 45.3104C187.055 45.5821 187.374 45.6438 188.569 45.6879L189.997 45.7409V44.8891V44.0376H189.123C187.59 44.0376 187.629 44.1298 187.629 40.5469V37.49H188.813H189.997V36.7238V35.9576H188.813H187.629V34.7038V33.45H186.584H185.54V34.6342ZM132.244 35.8159C131.382 35.9983 130.303 36.5931 129.691 37.224C127.798 39.1758 127.892 42.7411 129.886 44.5723C130.937 45.5379 131.602 45.777 133.239 45.7779C134.484 45.7788 134.725 45.7359 135.51 45.3737C136.503 44.9149 137.404 44.0119 137.918 42.9621C138.194 42.3958 138.244 42.0769 138.248 40.8309C138.253 39.4509 138.227 39.3117 137.796 38.4352C136.997 36.8118 135.61 35.9062 133.699 35.7606C133.216 35.724 132.562 35.7487 132.244 35.8159ZM144.856 35.8018C144.207 35.9379 143.227 36.4464 142.754 36.8936L142.379 37.2475L142.336 36.5678L142.293 35.8879H141.318H140.343L140.306 43.1669L140.27 50.4458H141.316H142.362V47.4389V44.4321L142.885 44.8426C143.801 45.563 144.315 45.7547 145.496 45.8169C146.928 45.8923 147.983 45.5283 148.852 44.6584C151.881 41.6286 150.224 36.0867 146.192 35.7639C145.733 35.7272 145.132 35.7442 144.856 35.8018ZM164.612 35.822C163.204 36.176 162.092 37.089 161.417 38.4462C161.135 39.0126 160.976 39.5974 160.965 40.7576C160.954 41.9179 161.122 42.487 161.488 43.2017C161.986 44.1746 162.716 44.9355 163.603 45.4072C164.216 45.7331 164.458 45.7777 165.622 45.7782C167.049 45.7789 167.4 45.6625 168.443 44.8426L168.965 44.4321V45.6189C168.965 46.9534 168.836 47.4115 168.295 47.9902C167.776 48.5455 167.165 48.7741 166.2 48.7741C165.146 48.7741 164.015 48.2266 163.685 47.5573C163.466 47.1132 163.453 47.1086 162.439 47.1056L161.414 47.1024L161.509 47.4855C161.697 48.2383 162.045 48.788 162.719 49.3936C163.666 50.2453 164.519 50.5159 166.249 50.5136C167.453 50.512 167.747 50.4629 168.415 50.1513C169.479 49.6544 170.287 49.0946 170.745 48.1622C170.745 48.1622 170.985 47.6557 170.985 47.3113C170.985 45.227 171.025 41.5585 171.025 41.5585L171.066 35.8059L170.051 35.8468L169.035 35.8879L168.965 36.5605L168.896 37.233L168.496 36.8143C167.705 35.985 165.85 35.511 164.612 35.822ZM156.987 40.7576V45.7093H158.033H159.08L159.043 40.7986L159.007 35.8879L157.997 35.847L156.987 35.806V40.7576ZM134.393 37.7063C135.609 38.2147 136.227 39.2424 136.229 40.7638C136.231 41.5049 136.15 41.9122 135.895 42.4614C134.918 44.5604 131.834 44.6674 130.799 42.6381C130.431 41.9182 130.304 40.6316 130.514 39.7572C130.932 38.0123 132.783 37.0339 134.393 37.7063ZM146.731 37.8358C148.848 38.8522 148.86 42.6245 146.75 43.7247C145.516 44.3674 144.288 44.1865 143.318 43.219C142.611 42.5138 142.364 41.8834 142.363 40.7799C142.361 39.3875 142.954 38.3417 144.065 37.777C144.783 37.4123 145.9 37.4369 146.731 37.8358ZM167.224 37.7541C168.363 38.2815 168.994 39.3499 169.008 40.7771C169.034 43.322 166.832 44.8412 164.705 43.7464C163.707 43.2327 163.204 42.3625 163.137 41.0328C163.077 39.8346 163.263 39.1808 163.86 38.501C164.704 37.539 166.094 37.2306 167.224 37.7541Z" fill="black"/>
<path d="M99 50.0923C103.971 50.0923 108 46.0628 108 41.0923C108 36.1217 103.971 32.0923 99 32.0923C94.0294 32.0923 90 36.1217 90 41.0923C90 46.0628 94.0294 50.0923 99 50.0923Z" fill="#139EF3"/>
<path fill-rule="evenodd" clip-rule="evenodd" d="M99.0004 35.3477C99.2337 35.3477 99.4228 35.5348 99.4228 35.7657V36.1002H102.386C103.153 36.1002 103.774 36.7151 103.774 37.4738V38.7263C103.774 38.8688 103.831 39.0055 103.933 39.1064L104.168 39.3384C104.427 39.5949 104.427 40.0109 104.168 40.2674L103.933 40.4995C103.831 40.6003 103.774 40.737 103.774 40.8796V42.0365C103.774 42.2674 103.585 42.4546 103.352 42.4546C103.118 42.4546 102.929 42.2674 102.929 42.0365V40.8796C102.929 40.5152 103.075 40.1659 103.336 39.9083L103.442 39.8029L103.336 39.6976C103.075 39.44 102.929 39.0906 102.929 38.7263V37.4738C102.929 37.1769 102.686 36.9363 102.386 36.9363H95.6147C95.3148 36.9363 95.0716 37.1769 95.0716 37.4738V38.7263C95.0716 39.0906 94.9253 39.44 94.665 39.6976L94.5586 39.8029L94.665 39.9083C94.9253 40.1659 95.0716 40.5152 95.0716 40.8796V41.9768C95.0716 42.2736 95.3148 42.5143 95.6147 42.5143H101.481C102.247 42.5143 102.869 43.1293 102.869 43.8879V46.0379C102.869 46.7965 102.247 47.4115 101.481 47.4115H96.701C95.9344 47.4115 95.313 46.7965 95.313 46.0379V45.0346C95.313 44.8037 95.5021 44.6165 95.7354 44.6165C95.9687 44.6165 96.1579 44.8037 96.1579 45.0346V46.0379C96.1579 46.3347 96.4011 46.5754 96.701 46.5754H101.481C101.781 46.5754 102.024 46.3347 102.024 46.0379V43.8879C102.024 43.591 101.781 43.3504 101.481 43.3504H95.6147C94.8481 43.3504 94.2267 42.7354 94.2267 41.9768V40.8796C94.2267 40.737 94.1694 40.6003 94.0676 40.4995L93.8331 40.2674C93.5739 40.0109 93.5739 39.5949 93.8331 39.3384L94.0676 39.1064C94.1694 39.0055 94.2267 38.8688 94.2267 38.7263V37.4738C94.2267 36.7151 94.8481 36.1002 95.6147 36.1002H98.5779V35.7657C98.5779 35.5348 98.7671 35.3477 99.0004 35.3477Z" fill="white"/>
<path d="M97.3714 39.9433C97.7415 39.9433 98.0416 39.6004 98.0416 39.1773C98.0416 38.7543 97.7415 38.4114 97.3714 38.4114C97.0012 38.4114 96.7012 38.7543 96.7012 39.1773C96.7012 39.6004 97.0012 39.9433 97.3714 39.9433Z" fill="white"/>
<path d="M100.627 39.9433C100.997 39.9433 101.297 39.6004 101.297 39.1773C101.297 38.7543 100.997 38.4114 100.627 38.4114C100.257 38.4114 99.957 38.7543 99.957 39.1773C99.957 39.6004 100.257 39.9433 100.627 39.9433Z" fill="white"/>
<path fill-rule="evenodd" clip-rule="evenodd" d="M99.0005 34.4954C98.8101 34.4954 98.6558 34.6626 98.6558 34.8688C98.6558 35.0751 98.8101 35.2422 99.0005 35.2422C99.1909 35.2422 99.3452 35.0751 99.3452 34.8688C99.3452 34.6626 99.1909 34.4954 99.0005 34.4954ZM97.8516 34.8688C97.8516 34.1814 98.366 33.6241 99.0005 33.6241C99.635 33.6241 100.149 34.1814 100.149 34.8688C100.149 35.5562 99.635 36.1135 99.0005 36.1135C98.366 36.1135 97.8516 35.5562 97.8516 34.8688Z" fill="white"/>
</g></svg>