<svg width="99" height="119" viewBox="0 0 99 119" fill="none" xmlns="http://www.w3.org/2000/svg">
<path d="M87.5239 43.326C87.5288 40.241 86.5802 37.2297 84.808 34.7044C83.0359 32.1791 80.5266 30.2631 77.6237 29.2185C77.889 27.8729 78.0224 26.5045 78.022 25.1329C78.0257 20.5896 76.5885 16.1623 73.9171 12.4874C71.2456 8.81254 67.4776 6.07951 63.1549 4.68133C58.8321 3.28314 54.1773 3.29183 49.8598 4.70614C45.5423 6.12045 41.7845 8.86752 39.1268 12.5523C37.1658 11.0346 34.7636 10.1972 32.284 10.167C29.8044 10.1367 27.3824 10.9153 25.3849 12.3847C23.3874 13.8541 21.9231 15.9345 21.2138 18.3106C20.5044 20.6868 20.5887 23.2294 21.4537 25.5534C18.5422 26.6126 16.0251 28.5384 14.2412 31.0716C12.4574 33.6047 11.4924 36.6235 11.4761 39.7217C11.4667 42.8201 12.4178 45.8452 14.1987 48.3805C15.9797 50.9159 18.5027 52.8369 21.4205 53.879C21.1624 55.2247 21.0309 56.5916 21.0278 57.9619C21.0249 62.499 22.4629 66.9198 25.1345 70.587C27.8061 74.2542 31.5732 76.9783 35.8927 78.3665C40.2122 79.7548 44.861 79.7355 49.1689 78.3114C53.4767 76.8874 57.2211 74.1321 59.8621 70.4429C61.8163 71.9694 64.2154 72.8163 66.6949 72.855C69.1744 72.8938 71.5987 72.1221 73.5996 70.6573C75.6006 69.1926 77.0687 67.1147 77.781 64.7394C78.4934 62.3642 78.4109 59.8213 77.5463 57.4972C80.458 56.4374 82.9752 54.5111 84.7591 51.9775C86.5429 49.4439 87.5078 46.4246 87.5239 43.326Z" fill="white"/>
<path d="M41.3758 36.2639L58.0144 43.8515L74.8051 29.1382C75.6528 24.8982 75.0106 20.4955 72.9869 16.6743C70.9632 12.8532 67.6821 9.84799 63.6984 8.16674C59.7147 6.4855 55.2726 6.23134 51.1232 7.44724C46.9737 8.66313 43.3713 11.2745 40.9249 14.8399L38.1311 29.3291L41.3758 36.2639Z" fill="#FFD00A"/>
<path d="M24.1509 53.8844C23.9022 55.1183 23.7762 56.3738 23.7747 57.6326C23.772 61.6572 25.0602 65.5766 27.4501 68.8148C29.84 72.0531 33.2055 74.4394 37.0521 75.6232C40.8987 76.8069 45.0236 76.7257 48.8206 75.3914C52.6176 74.0572 55.8866 71.5402 58.1472 68.2104L60.9133 53.771L57.215 46.7034L40.51 39.0881L24.1509 53.8844Z" fill="#20B9AF"/>
<path d="M24.0512 25.0886L35.4534 27.7801L37.943 14.815C36.3916 13.6448 34.5034 13.0075 32.5602 12.9983C30.6169 12.9891 28.7228 13.6085 27.1604 14.7639C25.598 15.9194 24.4511 17.5491 23.8907 19.4098C23.3304 21.2705 23.3867 23.2625 24.0512 25.0886Z" fill="#EE5096"/>
<path d="M23.0555 27.8049C20.5889 28.6178 18.4344 30.1742 16.8878 32.2606C15.3412 34.3469 14.4784 36.8609 14.4177 39.4572C14.3571 42.0536 15.1017 44.6051 16.5492 46.7614C17.9968 48.9176 20.0763 50.5729 22.5023 51.5L38.5019 37.0384L35.5697 30.762L23.0555 27.8049Z" fill="#12A5DF"/>
<path d="M61.082 68.2106C62.6305 69.3789 64.5152 70.0152 66.455 70.0245C68.3947 70.0338 70.2855 69.4157 71.8451 68.2624C73.4048 67.1091 74.5497 65.4823 75.1091 63.625C75.6684 61.7676 75.6122 59.7792 74.9489 57.9564L63.555 55.2898L61.082 68.2106Z" fill="#90C640"/>
<path d="M63.4001 52.3021L75.942 55.237C78.447 54.3933 80.6261 52.7885 82.1752 50.6468C83.7244 48.5051 84.5663 45.9331 84.5835 43.2899C84.5811 40.743 83.804 38.2571 82.3554 36.1622C80.9068 34.0673 78.8552 32.4627 76.4731 31.5613L60.0669 45.9455L63.4001 52.3021Z" fill="#05799F"/>
<path d="M15.8247 112.469L16.8924 112.359L16.9671 114.533C14.5859 114.893 12.183 115.089 9.77504 115.122C7.12135 115.119 5.24127 114.35 4.1348 112.818C3.02833 111.286 2.4751 108.895 2.4751 105.645C2.4751 99.1798 5.04395 95.9471 10.1817 95.9471C12.6657 95.9471 14.5218 96.6423 15.75 98.0328C16.9782 99.4233 17.5932 101.605 17.595 104.578L17.4456 106.68H5.27447C5.27447 108.719 5.64329 110.231 6.38094 111.214C7.11859 112.197 8.40301 112.689 10.2342 112.691C12.0691 112.691 13.9326 112.617 15.8247 112.469ZM14.8288 104.467C14.8288 102.204 14.4665 100.606 13.7417 99.6731C13.017 98.74 11.8368 98.2725 10.201 98.2707C8.5653 98.2707 7.33619 98.7621 6.51372 99.745C5.69124 100.728 5.26709 102.302 5.24127 104.467H14.8288Z" fill="white"/>
<path d="M21.4511 114.981V90.7107H24.2172V114.981H21.4511Z" fill="white"/>
<path d="M41.6331 101.886V111.186C41.6331 112.107 43.929 112.071 43.929 112.071L43.7879 114.514C41.8516 114.514 40.2362 114.674 39.2708 113.742C37.1811 114.669 34.918 115.14 32.632 115.125C30.9372 115.125 29.6463 114.646 28.7593 113.689C27.8723 112.732 27.4297 111.355 27.4315 109.557C27.4315 107.764 27.8861 106.443 28.7953 105.593C29.7044 104.743 31.1299 104.221 33.0718 104.027L38.8614 103.474V101.889C38.8614 100.633 38.5912 99.7358 38.0509 99.1974C37.7565 98.9188 37.4085 98.703 37.028 98.5632C36.6476 98.4234 36.2427 98.3624 35.838 98.3841H28.5712V95.9471H35.6692C37.7604 95.9471 39.2791 96.4266 40.2251 97.3855C41.1711 98.3444 41.6405 99.8446 41.6331 101.886ZM30.2752 109.407C30.2752 111.67 31.2092 112.801 33.0773 112.801C34.7612 112.8 36.4326 112.513 38.0205 111.952L38.8669 111.656V105.571L33.4093 106.085C32.3028 106.185 31.5043 106.505 31.0137 107.045C30.5232 107.585 30.277 108.373 30.2752 109.407Z" fill="white"/>
<path d="M52.4267 98.4201C49.7454 98.4201 48.4056 99.3541 48.4075 101.222C48.4075 102.083 48.7145 102.692 49.3286 103.048C49.9427 103.404 51.3442 103.773 53.5332 104.154C55.7203 104.534 57.2694 105.068 58.1804 105.756C59.0914 106.444 59.5459 107.735 59.5441 109.629C59.5441 111.523 58.9355 112.912 57.7184 113.797C56.5013 114.682 54.7254 115.122 52.3908 115.117C50.8666 115.117 45.7796 114.563 45.7796 114.563L45.9262 112.168C48.85 112.445 50.9634 112.658 52.3908 112.658C53.8181 112.658 54.9052 112.431 55.6548 111.977C56.4045 111.523 56.7779 110.76 56.7779 109.689C56.7779 108.619 56.4598 107.894 55.8208 107.515C55.1818 107.136 53.7794 106.771 51.6162 106.425C49.4531 106.08 47.9151 105.573 47.0105 104.91C46.106 104.246 45.644 103.017 45.644 101.222C45.644 99.4269 46.2775 98.0992 47.5444 97.2389C48.8113 96.3786 50.388 95.9471 52.2829 95.9471C53.7821 95.9471 58.9853 96.3288 58.9853 96.3288V98.7409C56.244 98.6164 54.0007 98.4201 52.4267 98.4201Z" fill="white"/>
<path d="M72.8826 98.7133H67.0211V107.526C67.0211 109.642 67.1741 111.031 67.4802 111.695C67.7873 112.359 68.5203 112.691 69.6738 112.691L72.9573 112.469L73.1426 114.754C71.9006 114.984 70.643 115.12 69.3806 115.161C67.4627 115.161 66.135 114.693 65.3973 113.759C64.6597 112.824 64.2908 111.041 64.2908 108.411V98.7133H61.6713V96.3067H64.2881V90.6637H67.0183V96.3067H72.8798L72.8826 98.7133Z" fill="white"/>
<path d="M76.7276 93.961V90.7522H79.4937V93.961H76.7276ZM76.7276 114.984V96.3067H79.4937V114.97L76.7276 114.984Z" fill="white"/>
<path d="M91.4741 95.9471C92.8588 96.0056 94.2383 96.1534 95.604 96.3897L96.4891 96.5003L96.3785 98.752C94.9346 98.5683 93.4823 98.4575 92.0273 98.4201C89.9361 98.4201 88.5161 98.917 87.7674 99.911C87.0187 100.905 86.6434 102.749 86.6415 105.443C86.6415 108.136 86.9919 110.01 87.6927 111.067C88.3935 112.124 89.8503 112.652 92.0633 112.652L96.4145 112.32L96.5251 114.608C94.83 114.893 93.1175 115.063 91.3994 115.117C88.5226 115.117 86.5374 114.379 85.4438 112.904C84.3502 111.428 83.8025 108.939 83.8007 105.435C83.8007 101.931 84.3908 99.473 85.571 98.0604C86.7513 96.6479 88.7189 95.9434 91.4741 95.9471Z" fill="white"/>
</svg>
