<svg  viewBox="20 16 220 50" fill="none" xmlns="http://www.w3.org/2000/svg"><defs>
<clipPath id="clip0_0_1438">
<rect width="50" height="22.7273" fill="white" transform="translate(157 31)"/>
</clipPath>
<clipPath id="clip1_0_1438">
<rect width="100" height="45.4545" fill="white" transform="translate(20 20)"/>
</clipPath>
</defs><g clip-path="url(#clip0_0_1438)">
<path d="M181.346 35.6254C182.557 35.6254 183.538 34.641 183.538 33.4267C183.538 32.2124 182.557 31.228 181.346 31.228C180.136 31.228 179.154 32.2124 179.154 33.4267C179.154 34.641 180.136 35.6254 181.346 35.6254Z" fill="#FF7E61"/>
<path d="M162.829 42.7116L168.452 37.0713C168.549 36.9742 168.48 36.8059 168.342 36.8059H163.799C163.758 36.8059 163.72 36.8232 163.689 36.8513L160.762 39.7879V32.0741C160.762 31.964 160.65 31.8885 160.549 31.9295L157.335 33.2349C157.277 33.2587 157.238 33.3148 157.238 33.3795V48.5719C157.238 48.7143 157.354 48.8308 157.496 48.8308H160.504C160.646 48.8308 160.762 48.7143 160.762 48.5719V45.6353L163.907 48.7877C163.935 48.8157 163.976 48.833 164.016 48.833L168.562 48.8308C168.699 48.8308 168.768 48.6625 168.671 48.5654L162.829 42.7116Z" fill="#3C4151"/>
<path d="M179.842 48.8308H182.849C182.991 48.8308 183.108 48.7144 183.108 48.5719V37.067C183.108 36.9246 182.991 36.8081 182.849 36.8081H179.842C179.7 36.8081 179.584 36.9246 179.584 37.067V48.5741C179.586 48.7165 179.7 48.8308 179.842 48.8308Z" fill="#3C4151"/>
<path fill-rule="evenodd" clip-rule="evenodd" d="M201.151 36.8213C204.107 37.0241 206.501 39.4257 206.708 42.3882C206.951 45.9052 204.18 48.8311 200.73 48.8332C199.848 48.8332 199.011 48.639 198.258 48.296V52.1906C198.258 52.2964 198.196 52.3913 198.097 52.4302L194.947 53.7097C194.846 53.7507 194.734 53.6773 194.734 53.5651V42.8197H194.737C194.737 39.3566 197.649 36.5796 201.151 36.8213ZM198.258 42.8197C198.258 44.1877 199.364 45.2989 200.73 45.2989C202.093 45.2989 203.199 44.1877 203.199 42.8197C203.199 41.4518 202.093 40.3405 200.73 40.3405C199.364 40.3405 198.258 41.4518 198.258 42.8197Z" fill="#3C4151"/>
<path d="M189.048 39.7037C189.059 39.7037 189.071 39.7037 189.082 39.7059C189.661 39.6822 190.181 40.0533 190.605 40.6337C190.674 40.7287 190.799 40.761 190.906 40.7179L193.329 39.7404C193.462 39.6865 193.526 39.5333 193.47 39.3995C192.862 37.9279 191.01 36.8081 189.046 36.8081C186.482 36.8081 184.399 38.4437 184.399 40.4611C184.399 41.5421 185.027 42.4807 185.89 43.0935C186.664 43.6437 187.589 43.9998 188.501 44.2371C188.516 44.2414 188.532 44.2452 188.547 44.249C188.562 44.2527 188.577 44.2565 188.592 44.2608C189.822 44.5349 189.999 44.8607 189.999 45.1822C189.999 45.6008 189.493 45.9395 188.871 45.9395C188.228 45.9805 187.658 45.5382 187.211 44.865C187.144 44.7636 187.013 44.7269 186.901 44.7722L184.507 45.7561C184.376 45.81 184.315 45.9568 184.365 46.0905C185.051 47.9548 186.901 48.8351 188.871 48.8351C191.435 48.8351 193.518 47.2018 193.518 45.1822C193.518 44.742 193.419 44.3212 193.236 43.9307C193.062 43.5574 192.608 42.7634 191.433 42.2132C191.141 42.0767 190.621 41.895 190.076 41.7042C189.371 41.4577 188.623 41.1957 188.263 40.9962C188.043 40.8754 187.918 40.6747 187.918 40.4611C187.918 40.0425 188.426 39.7037 189.048 39.7037Z" fill="#3C4151"/>
<path d="M178.343 37.0217C178.384 36.9203 178.308 36.8081 178.199 36.8081H175.929C172.627 36.8081 169.949 39.4945 169.949 42.8065V48.5719C169.949 48.7144 170.065 48.8308 170.207 48.8308H173.215C173.357 48.8308 173.471 48.7165 173.471 48.5741V42.8065C173.471 41.4429 174.572 40.3381 175.931 40.3381H176.882C176.945 40.3381 177.001 40.3015 177.024 40.2432L178.343 37.0217Z" fill="#3C4151"/>
</g><g clip-path="url(#clip1_0_1438)">
<path d="M68.6926 29.2509C71.1137 29.2509 73.0764 27.2821 73.0764 24.8535C73.0764 22.4248 71.1137 20.4561 68.6926 20.4561C66.2713 20.4561 64.3086 22.4248 64.3086 24.8535C64.3086 27.2821 66.2713 29.2509 68.6926 29.2509Z" fill="#FF7E61"/>
<path d="M31.658 43.4234L42.9039 32.1429C43.0976 31.9487 42.9599 31.6121 42.6846 31.6121H33.5982C33.5165 31.6121 33.4392 31.6467 33.3789 31.7028L27.5236 37.576V22.1484C27.5236 21.9283 27.2999 21.7773 27.0977 21.8593L20.6702 24.4701C20.554 24.5176 20.4766 24.6298 20.4766 24.7592V55.144C20.4766 55.4288 20.7089 55.6619 20.9928 55.6619H27.0073C27.2913 55.6619 27.5236 55.4288 27.5236 55.144V49.2707L33.8134 55.5756C33.8694 55.6317 33.9511 55.6662 34.0328 55.6662L43.1234 55.6619C43.3987 55.6619 43.5364 55.3253 43.3428 55.1311L31.658 43.4234Z" fill="#3C4151"/>
<path d="M65.6842 55.6619H71.6987C71.9826 55.6619 72.215 55.429 72.215 55.1441V32.1343C72.215 31.8495 71.9826 31.6165 71.6987 31.6165H65.6842C65.4002 31.6165 65.168 31.8495 65.168 32.1343V55.1484C65.1723 55.4333 65.4002 55.6619 65.6842 55.6619Z" fill="#3C4151"/>
<path fill-rule="evenodd" clip-rule="evenodd" d="M108.302 31.6424C114.214 32.048 119.002 36.8511 119.415 42.7761C119.901 49.8102 114.36 55.6619 107.459 55.6662C105.695 55.6662 104.022 55.2778 102.516 54.5917V62.381C102.516 62.5925 102.391 62.7824 102.193 62.8601L95.8949 65.4191C95.6926 65.5011 95.469 65.3543 95.469 65.13V43.6392H95.4733C95.4733 36.7129 101.298 31.159 108.302 31.6424ZM102.516 43.6392C102.516 46.3752 104.727 48.5976 107.459 48.5976C110.187 48.5976 112.398 46.3752 112.398 43.6392C112.398 40.9033 110.187 38.6808 107.459 38.6808C104.727 38.6808 102.516 40.9033 102.516 43.6392Z" fill="#3C4151"/>
<path d="M84.0936 37.4077C84.1152 37.4077 84.141 37.4077 84.1624 37.412C85.3197 37.3646 86.3609 38.1068 87.2085 39.2677C87.3461 39.4576 87.5956 39.5223 87.8107 39.436L92.6551 37.4811C92.9218 37.3733 93.0509 37.0668 92.939 36.7993C91.7214 33.8561 88.0172 31.6165 84.0894 31.6165C78.9611 31.6165 74.7965 34.8876 74.7965 38.9225C74.7965 41.0845 76.0528 42.9617 77.778 44.1873C79.3268 45.2877 81.1768 45.9998 83.0009 46.4744C83.031 46.483 83.0611 46.4907 83.0912 46.4982C83.1213 46.5057 83.1514 46.5133 83.1815 46.5219C85.6424 47.07 85.9952 47.7216 85.9952 48.3646C85.9952 49.2018 84.9842 49.8793 83.7409 49.8793C82.4545 49.9612 81.3144 49.0766 80.4195 47.7302C80.2862 47.5274 80.0237 47.4541 79.8001 47.5446L75.0117 49.5125C74.7493 49.6203 74.6288 49.9138 74.7278 50.1813C76.1002 53.9099 79.8001 55.6705 83.7409 55.6705C88.869 55.6705 93.0336 52.4038 93.0336 48.3646C93.0336 47.4842 92.8357 46.6427 92.4701 45.8617C92.1215 45.1151 91.2138 43.527 88.8648 42.4266C88.2793 42.1536 87.241 41.7903 86.1503 41.4087C84.7407 40.9155 83.2437 40.3917 82.5234 39.9927C82.0845 39.751 81.8349 39.3496 81.8349 38.9225C81.8349 38.0853 82.8503 37.4077 84.0936 37.4077Z" fill="#3C4151"/>
<path d="M62.6856 32.0437C62.7673 31.8409 62.6167 31.6165 62.3973 31.6165H57.8586C51.2547 31.6165 45.8984 36.9892 45.8984 43.6133V55.1441C45.8984 55.429 46.1307 55.6619 46.4147 55.6619H52.4291C52.7131 55.6619 52.9411 55.4333 52.9411 55.1484V43.6133C52.9411 40.886 55.1438 38.6765 57.8629 38.6765H59.7643C59.8891 38.6765 60.0011 38.6032 60.0483 38.4866L62.6856 32.0437Z" fill="#3C4151"/>
</g></svg>