<svg width="48" height="48" viewBox="0 0 48 48" fill="none" xmlns="http://www.w3.org/2000/svg">
<path d="M3 17.9333C3 12.7062 3 10.0926 4.01727 8.09609C4.91209 6.33991 6.33991 4.91209 8.09609 4.01727C10.0926 3 12.7062 3 17.9333 3H30.0667C35.2938 3 37.9074 3 39.9039 4.01727C41.6601 4.91209 43.0879 6.33991 43.9827 8.09609C45 10.0926 45 12.7062 45 17.9333V30.0667C45 35.2938 45 37.9074 43.9827 39.9039C43.0879 41.6601 41.6601 43.0879 39.9039 43.9827C37.9074 45 35.2938 45 30.0667 45H17.9333C12.7062 45 10.0926 45 8.09609 43.9827C6.33991 43.0879 4.91209 41.6601 4.01727 39.9039C3 37.9074 3 35.2938 3 30.0667V17.9333Z" fill="white"/>
<path d="M36.7388 9H31.8618V16.0669H38.998V10.9927C39 10.9927 38.6454 9.19272 36.7388 9Z" fill="#1967D2"/>
<path d="M31.8638 38.9672V38.9846V39L39 31.9331H38.936L31.8638 38.9672Z" fill="#1967D2"/>
<path d="M38.9994 31.9327V31.8694L38.936 31.9327H38.9994Z" fill="#FBBC05"/>
<path d="M39 16.067H31.8638V31.8697H39V16.067Z" fill="#FBBC05"/>
<path d="M38.936 31.9331H31.8638V38.9672L38.936 31.9331Z" fill="#EA4335"/>
<path d="M31.8638 31.9327H38.936L39 31.8694H31.8638V31.9327Z" fill="#EA4335"/>
<path d="M31.8463 38.9846H31.8636V38.9673L31.8463 38.9846Z" fill="#34A853"/>
<path d="M15.9753 31.8694V38.9844H31.8463L31.8637 31.8694H15.9753Z" fill="#34A853"/>
<path d="M31.8636 31.933V31.8694L31.8463 38.9844L31.8636 38.9671V31.933Z" fill="#34A853"/>
<path d="M9 31.8694V36.8164C9.06394 38.4217 10.8 38.9844 10.8 38.9844H15.9754V31.8694H9Z" fill="#188038"/>
<path d="M15.9754 16.067H31.8638V9.00012H11.0016C11.0016 9.00012 9.12788 9.19284 9 11.1836V31.8697H15.9754V16.067Z" fill="#4285F4"/>
<path d="M21.1734 28.6708C20.8099 28.6708 20.4594 28.6235 20.1218 28.5288C19.793 28.4341 19.4901 28.2921 19.2131 28.1027C18.9362 27.9047 18.6895 27.6594 18.4731 27.3667C18.2654 27.0741 18.1053 26.7341 17.9928 26.3467L19.5896 25.714C19.7021 26.1444 19.8925 26.4715 20.1608 26.6953C20.4291 26.9105 20.7666 27.0181 21.1734 27.0181C21.3551 27.0181 21.5282 26.9923 21.6927 26.9406C21.8571 26.8804 21.9999 26.7986 22.1211 26.6953C22.2422 26.592 22.3374 26.4715 22.4067 26.3338C22.4846 26.1874 22.5235 26.0239 22.5235 25.8431C22.5235 25.4644 22.3807 25.1674 22.0951 24.9522C21.8182 24.737 21.433 24.6294 20.9397 24.6294H20.1738V23.0929H20.8748C21.0479 23.0929 21.2167 23.0714 21.3811 23.0283C21.5455 22.9853 21.6883 22.9207 21.8095 22.8347C21.9393 22.74 22.0388 22.6238 22.1081 22.486C22.186 22.3397 22.2249 22.1718 22.2249 21.9825C22.2249 21.6898 22.1211 21.4531 21.9134 21.2723C21.7056 21.0829 21.4244 20.9882 21.0695 20.9882C20.6887 20.9882 20.3945 21.0915 20.1868 21.2981C19.9877 21.4961 19.8492 21.7199 19.7713 21.9696L18.2135 21.3369C18.2914 21.1217 18.4082 20.9022 18.564 20.6784C18.7198 20.4459 18.9145 20.2394 19.1482 20.0586C19.3905 19.8692 19.6718 19.7186 19.992 19.6067C20.3122 19.4862 20.6801 19.4259 21.0955 19.4259C21.5196 19.4259 21.9047 19.4862 22.2509 19.6067C22.6057 19.7272 22.9086 19.895 23.1596 20.1102C23.4106 20.3168 23.6053 20.5665 23.7438 20.8591C23.8823 21.1432 23.9515 21.4531 23.9515 21.7888C23.9515 22.047 23.9169 22.2794 23.8477 22.486C23.7871 22.6926 23.7049 22.8777 23.601 23.0412C23.4972 23.2048 23.376 23.3468 23.2375 23.4673C23.1077 23.5792 22.9736 23.6696 22.8351 23.7385V23.8418C23.2505 24.0053 23.5924 24.2679 23.8607 24.6294C24.1376 24.9909 24.2761 25.4472 24.2761 25.9981C24.2761 26.3854 24.2025 26.7427 24.0554 27.0698C23.9083 27.3883 23.6962 27.668 23.4193 27.909C23.151 28.1501 22.8264 28.3351 22.4456 28.4643C22.0648 28.602 21.6407 28.6708 21.1734 28.6708Z" fill="#4285F4"/>
<path d="M27.3762 28.4643V21.6209L25.8054 22.2794L25.1823 20.8462L27.7917 19.6325H29.0769V28.4643H27.3762Z" fill="#4285F4"/>
</svg>
