<svg width="162" height="73" viewBox="0 0 162 73" fill="none" xmlns="http://www.w3.org/2000/svg">
<path opacity="0.6" d="M153.873 20.2159C149.935 16.1047 143.573 14.1051 134.384 14.1051C128.306 14.1051 122.944 15.117 118.394 17.1196L121.12 4.32556H98.3224L95.4503 17.8285C92.0572 15.7078 87.6491 14.5717 82.5684 14.5717C80.4095 14.5689 78.2592 14.8428 76.1699 15.3867H64.618L66.5358 6.37358H14.4265L4.05005 57.165H45.2679L42.8442 68.5745H65.6481L68.0324 57.3649C70.4614 58.1132 72.9921 58.4791 75.5337 58.4495C79.5845 58.4688 83.5967 57.6616 87.3249 56.0774L87.0916 57.168H109.88L110.429 54.5838C114.47 57.1498 120.075 58.4495 127.131 58.4495C141.9 58.4495 151.486 52.9962 156.445 41.714C157.14 39.8943 157.562 37.9823 157.7 36.0395L157.927 32.0101C158.148 27.2294 156.782 23.2606 153.873 20.2159Z" fill="white"/>
<path d="M102.458 9.43958H114.797L113.213 16.8924H100.873L102.458 9.43958Z" fill="#CE1141"/>
<path fill-rule="evenodd" clip-rule="evenodd" d="M61.5006 63.4606H49.1579L51.5846 52.0511H10.3123L18.5922 11.4634H60.213L58.3073 20.428H30.541L29.2201 27.3658H53.6932L51.8755 35.982H27.3993L26.0844 43.0622H53.5024L58.3013 20.4765H70.2924L69.4018 24.6664H69.5199C72.8192 21.4641 77.5696 19.6615 82.5745 19.6615C91.6694 19.6615 97.3136 23.7545 97.8468 31.174L100.119 20.4826H112.459L110.014 31.9951C113.758 23.4485 122.647 19.2071 134.396 19.2071C145.751 19.2071 153.252 22.5215 152.834 31.7648H140.043C139.746 28.9533 137.541 27.3567 132.839 27.3567C127.076 27.3567 122.902 30.559 121.69 36.2638C120.478 41.9685 123.174 45.1708 129.112 45.1708C133.566 45.1708 136.971 43.35 138.716 39.666H151.768C147.932 48.3822 140.746 53.3205 127.146 53.3205C115.085 53.3205 108.226 49.279 108.166 40.684L105.742 52.039H93.4023L95.5715 41.8201C92.1147 48.5064 84.8861 53.3326 75.5276 53.3326C70.0561 53.3326 66.2479 51.527 64.6483 49.2002H64.5302L61.5006 63.4606ZM77.7635 28.302C71.9981 28.302 68.305 31.4437 67.2659 36.3335C66.2267 41.2233 68.5838 44.368 74.3491 44.368C79.9933 44.368 83.6712 41.5717 84.7861 36.3335C85.901 31.0953 83.4107 28.302 77.7635 28.302Z" fill="#CE1141"/>
</svg>
