<svg width="115" height="104" viewBox="0 0 115 104" fill="none" xmlns="http://www.w3.org/2000/svg">
<path d="M112.125 3.73975H2.875V99.7603H112.125V3.73975Z" fill="white"/>
<path d="M21.7973 71.8758C13.7729 63.3727 9.07784 51.6256 9.08974 37.6097C9.07865 25.2144 12.9732 14.5601 19.6686 6.45291L19.6578 6.45697H5.58508V71.8772H21.7873L21.7973 71.8758Z" fill="#A90533"/>
<path d="M95.9121 71.8812C99.3689 68.1789 102.466 63.8186 105.273 58.8321L89.6968 51.0439C84.2264 59.9373 76.2266 68.1232 65.1642 68.1778C49.0641 68.1232 42.7385 54.3561 42.7733 36.6359H102.937C103.017 34.6354 103.017 33.7051 102.937 32.7421C103.329 22.1998 100.535 13.3384 95.4527 6.4375L95.4264 6.45724H108.972V71.8774H95.8826L95.9121 71.8812Z" fill="#A90533"/>
<path d="M43.7471 21.4491C44.4132 13.4263 50.7386 8.03082 58.1552 8.01459C65.6223 8.03082 71.0174 13.4263 71.2002 21.4491H43.7471Z" fill="#A90533"/>
<path d="M14.1524 82.9747V80.2491H5.78015V96.4094H14.1524V93.6833H8.8954V89.4001H13.9574V86.6743H8.8954V82.9747H14.1524Z" fill="black"/>
<path d="M28.3657 89.5946C30.4528 89.2846 31.5988 87.2165 31.6756 85.1164C31.5988 81.6807 29.3717 80.2591 26.224 80.2488H21.9405V96.4092H25.0557V89.984L28.9498 96.4092H32.8439L28.3657 89.5946ZM25.0555 82.7802H25.4449C27.1445 82.844 28.42 83.2318 28.3654 85.3114C28.42 87.2167 27.1877 87.7338 25.4449 87.6478H25.0555V82.7802Z" fill="black"/>
<path d="M42.5787 80.2491H39.4638V96.4094H47.0569V93.6833H42.5787V80.2491Z" fill="black"/>
<path d="M63.0226 93.0992L64.3855 96.4092H67.6954L61.6596 79.8594H59.1285L52.7033 96.4092H56.013L57.3762 93.0992H63.0226ZM62.2437 90.5683H58.3497L60.102 84.5325L62.2437 90.5683Z" fill="black"/>
<path d="M73.5368 96.4094H76.8465V85.5061L85.4137 96.7986H87.7498V80.2491H84.4402V91.1524L75.873 79.8594H73.5368V96.4094Z" fill="black"/>
<path d="M101.379 87.8422V90.3734H104.884C104.811 92.4075 103.146 94.1309 101.185 94.0727C98.0867 94.1309 96.5515 91.137 96.5117 88.4263C96.5515 85.7519 98.065 82.6285 101.185 82.5852C102.822 82.6282 104.206 83.7483 104.884 85.1164L107.61 83.7535C106.411 81.2283 103.989 79.828 101.185 79.8594C96.3568 79.8283 93.2651 83.8132 93.2018 88.4263C93.2651 92.9245 96.2705 96.9311 100.99 96.9933C106.087 96.9311 108.444 92.8599 108.389 88.2316V87.8422H101.379Z" fill="black"/>
</svg>
