<svg width="199" height="60" viewBox="0 0 199 60" fill="none" xmlns="http://www.w3.org/2000/svg">
<path d="M105.093 17.1418C110.874 17.1418 116.551 21.7145 116.551 29.9663V30.0715C116.551 38.2707 110.927 42.896 105.093 42.896C100.993 42.896 98.4178 40.8462 96.6833 38.5335V47.2584C96.6833 48.8049 95.47 50.048 93.9357 50.0952L93.8451 50.0966C92.3209 50.0966 91.0595 48.8352 91.0595 47.311V20.0851C91.0069 18.5609 92.2683 17.2995 93.7926 17.2469H93.8451C95.3916 17.2469 96.6347 18.4603 96.682 19.9945L96.6833 20.0851V21.7671C98.5229 19.1916 101.098 17.1418 105.093 17.1418ZM179.938 17.0893C183.869 17.0893 186.425 19.0745 188.259 21.5923L188.347 21.7145V20.0326L188.349 19.942C188.395 18.4384 189.59 17.243 191.093 17.1958L191.185 17.1944H191.238C192.784 17.2459 194.028 18.4603 194.025 19.9945L194.024 20.0851V37.3247C194.024 41.4769 192.92 44.5779 190.87 46.6277C188.663 48.8878 185.194 49.939 180.726 49.939C177.415 49.939 174.156 49.2031 171.16 47.7315C170.214 47.4161 169.583 46.47 169.583 45.4714C169.636 44.1574 170.687 43.1588 172.001 43.1588C172.369 43.1588 172.684 43.2113 173 43.369C175.312 44.683 177.94 45.3137 180.568 45.3137C185.351 45.3137 188.084 43.0011 188.347 38.5335C186.613 40.7936 184.037 42.8434 179.938 42.8434C174.162 42.8434 168.592 38.3102 168.481 30.2638L168.48 30.0189V29.9138C168.48 21.6619 174.156 17.0893 179.938 17.0893ZM157.495 17.2469C163.066 17.2469 166.272 20.9787 166.272 26.7077V40.0052C166.325 41.5294 165.116 42.7383 163.592 42.7909H163.487C161.962 42.8434 160.701 41.582 160.648 40.0578V28.4421C160.648 24.6053 158.756 22.3978 155.34 22.3978C152.081 22.3978 149.768 24.7104 149.768 28.5472V40.0578C149.768 41.6346 148.507 42.896 146.93 42.896C145.353 42.896 144.092 41.6346 144.092 40.0578L144.145 20.1377C144.092 18.6135 145.353 17.3521 146.878 17.2995H146.93C148.477 17.2995 149.72 18.5129 149.767 20.0471L149.768 20.1377V21.294C151.45 18.666 154.394 17.1418 157.495 17.2469ZM79.2861 17.1944C82.0192 17.2469 84.6472 17.9302 87.0649 19.1916C87.9059 19.6121 88.4315 20.4005 88.4315 21.3466C88.4315 22.608 87.3803 23.6592 86.1189 23.6592H86.0663C85.6984 23.6592 85.3305 23.5541 84.9626 23.3964C83.1755 22.3978 81.2308 21.8196 79.181 21.7145C76.9735 21.7145 75.7121 22.7657 75.7121 24.1322V24.2374C75.7121 26.0769 78.3926 26.8128 81.2834 27.7588C81.3622 27.7828 81.4413 27.8071 81.5205 27.8317L81.7585 27.9063C82.0365 27.9944 82.3159 28.0864 82.5946 28.1832L82.8334 28.2674C85.9729 29.3925 88.9571 31.1684 88.9571 34.9595V35.0646C88.9571 40.268 84.91 42.8434 79.8117 42.8434C76.4479 42.7909 73.1367 41.7922 70.351 39.9001C69.6677 39.4796 69.2473 38.7438 69.2998 37.9554C69.2998 36.694 70.2985 35.6428 71.5599 35.6428H71.6124C72.0329 35.6428 72.4534 35.7479 72.8213 35.9581C74.9237 37.4298 77.394 38.2182 79.9169 38.3233C82.3346 38.3233 83.7537 37.2721 83.7537 35.6428V35.5377C83.7537 33.5929 81.1257 32.9622 78.235 32.0687C77.9327 31.9811 77.6272 31.8906 77.3211 31.7955L77.0914 31.7233C73.7987 30.6756 70.5087 29.0531 70.5087 24.8155V24.7104C70.5087 20.0326 74.3981 17.1944 79.2861 17.1944ZM138.416 17.2995C139.962 17.2995 141.205 18.5129 141.252 20.0471L141.254 20.1377V40.0578C141.254 41.6346 139.992 42.8434 138.416 42.8434C136.839 42.8434 135.63 41.582 135.63 40.0578V20.1377C135.577 18.6135 136.839 17.3521 138.363 17.2995H138.416ZM133.37 19.6121V20.0326C133.37 21.3991 132.424 22.5554 131.11 22.7657C127.063 23.449 124.33 26.9704 124.33 31.8585V40.0052C124.33 41.582 123.068 42.7909 121.491 42.7909C119.997 42.7909 118.755 41.6289 118.707 40.1471L118.706 40.0575V40.0052L118.758 20.0851C118.706 18.5609 119.967 17.2995 121.491 17.2469H121.544C123.09 17.2469 124.334 18.4603 124.381 19.9945L124.382 20.0851V21.4517C124.645 19.3493 128.114 17.2469 130.584 17.2469C132.003 17.1418 133.265 18.193 133.37 19.6121ZM103.831 22.0824C99.9946 22.0824 96.6308 25.2885 96.6308 29.9663V30.0715C96.6308 34.8018 99.9946 37.9554 103.831 37.9554C107.668 37.9554 110.874 34.9595 110.874 30.0715V29.9663C110.874 25.1834 107.668 22.0824 103.831 22.0824ZM181.252 22.0299C177.454 22.0299 174.275 25.0673 174.21 29.7664L174.209 29.9138V30.0189C174.209 34.9069 177.362 37.9554 181.252 37.9554C185.101 37.9554 188.436 34.8144 188.453 30.1632L188.452 30.0189V29.9138C188.452 25.236 185.088 22.0299 181.252 22.0299ZM141.306 10.3616V10.4668C141.306 12.0435 140.045 13.305 138.468 13.305C136.891 13.305 135.63 12.0435 135.63 10.4668C135.63 8.92029 136.843 7.67717 138.378 7.62993L138.468 7.62854C139.992 7.57598 141.254 8.83741 141.306 10.3616Z" fill="#6DB33F"/>
<path d="M12.745 11.5178C22.8364 1.74173 38.9722 2.00452 48.7483 12.1485C49.852 10.6768 50.7981 9.0475 51.4814 7.3656C54.6875 17.1417 56.6322 25.341 55.8964 31.7007C55.5285 37.0617 53.4261 42.2126 49.9571 46.3122C40.9169 57.0344 24.8337 58.4009 14.1115 49.3607L13.9054 49.1775L13.8698 49.1528C13.845 49.1351 13.8204 49.1167 13.7962 49.0979C13.6992 49.0224 13.611 48.9403 13.5316 48.8527L13.5029 48.8197L13.1655 48.5197C12.8501 48.2494 12.5348 47.9791 12.2525 47.6757L12.1143 47.5211C2.3382 37.4296 2.65356 21.2939 12.745 11.5178ZM16.5293 45.7341C15.5832 44.9982 14.2167 45.1033 13.4808 46.0494C12.8393 46.8742 12.837 48.0185 13.4738 48.786L13.5029 48.8197L13.9054 49.1775L13.9449 49.2044C14.8555 49.8041 16.0784 49.6871 16.7868 48.8536L16.8446 48.7825C17.5805 47.8364 17.4228 46.4699 16.5293 45.7341ZM51.2186 9.99357C48.5906 15.5123 42.0732 19.7171 36.4493 21.0311C34.2826 21.5459 32.2297 21.6755 30.2263 21.7773L29.6267 21.8073C26.9346 21.9419 24.321 22.0908 21.6276 23.1335C10.4849 27.3908 10.6952 40.6358 16.7921 43.6317L17.16 43.8419C17.16 43.8419 21.1946 43.0397 25.3591 41.957L25.7323 41.8593C25.7945 41.8429 25.8568 41.8264 25.919 41.8099L26.2921 41.7101C28.0315 41.2414 29.7427 40.7304 31.1408 40.2153C38.394 37.5348 46.3831 30.9123 49.0111 23.2386C47.6445 31.2276 40.7592 38.9539 33.8739 42.4754C30.1948 44.3675 27.3565 44.788 21.3122 46.8904C20.5764 47.1532 19.9982 47.416 19.9982 47.416C20.0328 47.4112 20.0675 47.4065 20.1021 47.4018L20.3095 47.3744L20.5156 47.3484C21.8492 47.1832 23.0467 47.1006 23.0467 47.1006C31.6139 46.6801 45.0691 49.5183 51.3237 41.1614C57.736 32.6467 54.1619 18.8761 51.2186 9.99357Z" fill="#6DB33F"/>
<path d="M16.5295 45.7346C17.423 46.4705 17.5807 47.837 16.8449 48.7831C16.109 49.7291 14.7425 49.8343 13.7964 49.0984C12.8504 48.3626 12.7452 46.9961 13.4811 46.05C14.2169 45.1039 15.5835 44.9988 16.5295 45.7346ZM51.2188 9.99414C54.1622 18.8767 57.7362 32.6473 51.3239 41.1619C45.0694 49.5189 31.6141 46.6807 23.0469 47.1012C23.0469 47.1012 21.5227 47.2063 19.9985 47.4165C19.9985 47.4165 20.5766 47.1537 21.3124 46.8909C27.3568 44.7886 30.195 44.3681 33.8742 42.4759C40.7595 38.9544 47.6448 31.2282 49.0113 23.2391C46.3833 30.9128 38.3943 37.5353 31.1411 40.2159C29.8429 40.6942 28.2746 41.1689 26.6645 41.6096L26.2923 41.7107C21.8195 42.9161 17.1602 43.8425 17.1602 43.8425L16.7923 43.6322C10.6954 40.6363 10.4852 27.3913 21.6278 23.134C26.5158 21.2419 31.1411 22.2931 36.4496 21.0316C42.0735 19.7177 48.5908 15.5129 51.2188 9.99414Z" fill="white"/>
</svg>
