<svg  viewBox="20 16 220 50" fill="none" xmlns="http://www.w3.org/2000/svg"><defs>
<clipPath id="clip0_0_3232">
<rect width="134" height="24" fill="white" transform="translate(101 29)"/>
</clipPath>
</defs><path d="M54.5593 31.7346C52.7368 31.7362 50.9884 31.0138 49.6984 29.7263C48.4084 28.4388 47.6826 26.6918 47.6805 24.8692C47.6811 23.9667 47.8593 23.073 48.2051 22.2393C48.5511 21.4056 49.0576 20.6482 49.6963 20.0104C50.3349 19.3725 51.0928 18.8667 51.9268 18.5217C52.7611 18.1768 53.6549 17.9995 54.5574 18C55.4601 17.999 56.3543 18.1758 57.1886 18.5204C58.023 18.865 58.7815 19.3706 59.4203 20.0083C60.0593 20.646 60.5665 21.4034 60.9126 22.2371C61.2588 23.0708 61.4374 23.9646 61.4382 24.8673C61.4374 25.7701 61.2588 26.6638 60.9126 27.4975C60.5665 28.3313 60.0593 29.0886 59.4203 29.7263C58.7815 30.364 58.023 30.8696 57.1886 31.2142C56.3543 31.5588 55.4601 31.7356 54.5574 31.7346H54.5593ZM33.8036 31.7346C32.901 31.7356 32.007 31.5588 31.1728 31.2144C30.3385 30.8699 29.5802 30.3645 28.9413 29.727C28.3024 29.0895 27.7953 28.3324 27.4489 27.4989C27.1026 26.6654 26.9238 25.7718 26.9228 24.8692C26.9233 23.9663 27.1017 23.0724 27.4478 22.2384C27.7939 21.4045 28.301 20.6469 28.94 20.009C29.5789 19.3711 30.3374 18.8653 31.1719 18.5206C32.0064 18.1759 32.9006 17.999 33.8036 18C34.7061 17.9992 35.6 18.1763 36.4342 18.521C37.2684 18.8657 38.0265 19.3713 38.6652 20.009C39.304 20.6467 39.8109 21.4039 40.157 22.2375C40.5032 23.0711 40.6816 23.9647 40.6824 24.8673C40.6816 25.7699 40.5032 26.6635 40.157 27.4971C39.8109 28.3307 39.304 29.0879 38.6652 29.7256C38.0265 30.3633 37.2684 30.8689 36.4342 31.2137C35.6 31.5583 34.7061 31.7354 33.8036 31.7346ZM22.6286 40.2865C21.0016 40.2865 19.7132 41.6865 20.0555 43.275C21.2556 48.7585 24.2949 53.6665 28.6689 57.1844C33.0429 60.7025 38.4884 62.6189 44.1016 62.6154C55.8978 62.6154 65.7555 54.3327 68.1497 43.275C68.492 41.6865 67.2036 40.2865 65.5766 40.2865H22.6286Z" fill="#EB4E53"/><g clip-path="url(#clip0_0_3232)">
<path d="M133.4 35.92H136.452L139.578 43.94L142.704 35.92H145.757L140.603 48.206H138.552L133.399 35.92H133.4ZM160.148 48.4C158.34 48.4 156.948 47.832 155.972 46.694C155.01 45.54 154.53 43.997 154.53 42.062C154.53 40.129 155.01 38.592 155.971 37.455C156.948 36.302 158.341 35.725 160.147 35.725C160.747 35.724 161.339 35.857 161.881 36.115C162.435 36.375 162.851 36.683 163.127 37.041V30.947H166.156V48.206H163.127V46.938C162.932 47.295 162.557 47.628 162.004 47.938C161.466 48.246 160.848 48.4 160.148 48.4ZM160.563 45.816C161.393 45.816 162.069 45.491 162.59 44.842C163.127 44.175 163.396 43.25 163.396 42.062C163.396 40.876 163.127 39.958 162.59 39.308C162.069 38.642 161.393 38.308 160.563 38.308C159.733 38.308 159.049 38.642 158.511 39.308C157.974 39.958 157.705 40.876 157.705 42.062C157.705 43.232 157.975 44.15 158.511 44.817C159.049 45.483 159.733 45.816 160.563 45.816ZM174.366 48.4C173.03 48.4 171.916 48.092 171.02 47.474C170.165 46.8693 169.49 46.044 169.066 45.086C168.663 44.1289 168.455 43.1006 168.456 42.062C168.456 41.022 168.659 40.022 169.066 39.064C169.48 38.1 170.157 37.2722 171.02 36.675C171.916 36.042 173.03 35.725 174.366 35.725C175.652 35.725 176.726 36.034 177.59 36.651C178.427 37.2208 179.087 38.0148 179.494 38.942C179.895 39.84 180.104 40.812 180.106 41.794V43.038H171.436C171.467 43.51 171.606 43.956 171.85 44.378C172.11 44.801 172.469 45.15 172.925 45.426C173.397 45.686 173.935 45.816 174.537 45.816C175.774 45.816 176.775 45.231 177.541 44.062L179.958 45.329C178.786 47.377 176.922 48.401 174.366 48.401V48.4ZM177.248 40.746C177.085 39.998 176.768 39.39 176.296 38.918C175.823 38.446 175.18 38.211 174.366 38.211C173.584 38.211 172.934 38.463 172.412 38.966C171.913 39.4428 171.58 40.0664 171.46 40.746H177.248ZM188.192 48.4C186.972 48.4 185.905 48.116 184.992 47.547C184.09 46.9888 183.357 46.1972 182.868 45.256C182.379 44.281 182.135 43.216 182.135 42.062C182.135 40.909 182.379 39.852 182.868 38.894C183.351 37.9422 184.086 37.1412 184.993 36.578C185.905 36.01 186.971 35.725 188.192 35.725C189.414 35.725 190.48 36.009 191.392 36.578C192.295 37.1378 193.023 37.9403 193.492 38.894C193.997 39.852 194.25 40.909 194.25 42.062C194.26 43.1724 194 44.2686 193.492 45.256C193.018 46.1993 192.291 46.9924 191.392 47.547C190.48 48.116 189.414 48.4 188.192 48.4ZM188.192 45.816C189.186 45.816 189.952 45.451 190.488 44.72C191.042 43.988 191.318 43.102 191.318 42.062C191.318 41.022 191.042 40.137 190.488 39.406C189.951 38.674 189.186 38.309 188.192 38.309C187.199 38.309 186.426 38.674 185.872 39.405C185.334 40.137 185.066 41.022 185.066 42.062C185.066 43.102 185.334 43.988 185.872 44.72C186.426 45.451 187.199 45.816 188.192 45.816ZM200.26 48.4C199.17 48.4 198.274 48.075 197.574 47.426C196.874 46.776 196.524 45.858 196.524 44.67C196.524 43.874 196.744 43.176 197.184 42.574C197.622 41.957 198.242 41.486 199.039 41.161C199.837 40.819 200.749 40.649 201.774 40.649H203.826V40.113C203.826 39.463 203.622 38.975 203.215 38.65C202.809 38.325 202.296 38.162 201.677 38.162C201.205 38.162 200.774 38.301 200.382 38.577C200.008 38.837 199.732 39.267 199.552 39.869L196.988 39.138C197.259 38.1452 197.863 37.2757 198.698 36.675C199.56 36.042 200.554 35.725 201.677 35.725C203.273 35.725 204.51 36.123 205.39 36.919C206.269 37.699 206.708 39.015 206.708 40.868V48.206H204.363L204.046 46.646C203.086 47.816 201.823 48.4 200.26 48.4ZM200.675 45.938C201.197 45.938 201.693 45.825 202.166 45.597C202.632 45.387 203.036 45.059 203.338 44.647C203.647 44.224 203.802 43.737 203.802 43.184V42.916H201.579C200.846 42.916 200.277 43.062 199.869 43.354C199.479 43.63 199.283 44.062 199.283 44.646C199.283 44.988 199.406 45.288 199.65 45.549C199.894 45.809 200.236 45.939 200.675 45.939V45.938ZM214.698 48.4C211.93 48.4 210.122 47.174 209.275 44.72L212.011 43.769C212.239 44.484 212.573 45.004 213.012 45.329C213.452 45.654 214.046 45.817 214.795 45.817C215.382 45.817 215.862 45.711 216.236 45.5C216.627 45.272 216.822 44.988 216.822 44.646C216.822 44.322 216.635 44.062 216.261 43.866C215.886 43.656 215.21 43.444 214.234 43.233C211.466 42.631 210.082 41.315 210.082 39.283C210.082 38.585 210.285 37.967 210.692 37.431C211.107 36.8721 211.663 36.4343 212.304 36.163C212.983 35.8718 213.714 35.7227 214.453 35.725C216.651 35.725 218.255 36.643 219.265 38.479L217.091 39.991C216.505 38.869 215.634 38.309 214.478 38.309C214.084 38.3014 213.695 38.4024 213.354 38.601C213.045 38.796 212.89 39.048 212.89 39.357C212.89 39.682 213.045 39.95 213.354 40.161C213.663 40.372 214.25 40.567 215.113 40.746C216.643 41.038 217.774 41.47 218.507 42.038C219.257 42.59 219.631 43.395 219.631 44.451C219.631 45.671 219.158 46.638 218.214 47.352C217.286 48.052 216.114 48.4 214.698 48.4ZM222.858 30.947H225.886V40.478L229.916 35.92H233.579L228.329 41.55L234.142 48.206H230.478L225.886 42.623V48.206H222.858V30.947ZM149.883 34.336C149.33 34.336 148.866 34.15 148.491 33.776C148.117 33.402 147.93 32.938 147.93 32.386C147.93 31.834 148.117 31.37 148.491 30.996C148.866 30.623 149.331 30.436 149.883 30.436C150.437 30.436 150.902 30.623 151.275 30.996C151.65 31.37 151.838 31.834 151.838 32.386C151.838 32.938 151.65 33.402 151.276 33.776C150.902 34.15 150.436 34.336 149.883 34.336ZM148.37 35.92H151.398V48.206H148.37V35.92ZM118.971 36.142C118.023 36.1428 117.114 35.7671 116.443 35.0977C115.773 34.4282 115.395 33.5197 115.394 32.572C115.394 32.1027 115.487 31.638 115.667 31.2044C115.847 30.7709 116.11 30.3771 116.442 30.0454C116.774 29.7137 117.168 29.4507 117.602 29.2713C118.036 29.0919 118.501 28.9997 118.97 29C119.44 28.9995 119.905 29.0914 120.338 29.2706C120.772 29.4498 121.167 29.7127 121.499 30.0443C121.831 30.3759 122.095 30.7698 122.275 31.2033C122.455 31.6368 122.548 32.1016 122.548 32.571C122.548 33.0404 122.455 33.5052 122.275 33.9387C122.095 34.3723 121.831 34.7661 121.499 35.0977C121.167 35.4293 120.772 35.6922 120.338 35.8714C119.905 36.0506 119.44 36.1425 118.97 36.142H118.971ZM108.178 36.142C107.709 36.1425 107.244 36.0506 106.81 35.8715C106.376 35.6923 105.982 35.4295 105.65 35.098C105.317 34.7665 105.054 34.3728 104.874 33.9394C104.694 33.506 104.601 33.0413 104.6 32.572C104.6 32.1025 104.693 31.6376 104.873 31.204C105.053 30.7703 105.317 30.3764 105.649 30.0447C105.981 29.713 106.376 29.45 106.81 29.2707C107.244 29.0915 107.709 28.9995 108.178 29C108.647 28.9996 109.112 29.0917 109.546 29.2709C109.98 29.4502 110.374 29.7131 110.706 30.0447C111.038 30.3763 111.302 30.7701 111.482 31.2035C111.662 31.637 111.755 32.1017 111.755 32.571C111.755 33.0403 111.662 33.505 111.482 33.9385C111.302 34.372 111.038 34.7657 110.706 35.0973C110.374 35.4289 109.98 35.6918 109.546 35.8711C109.112 36.0503 108.647 36.1424 108.178 36.142ZM102.367 40.589C101.521 40.589 100.851 41.317 101.029 42.143C101.653 44.9944 103.234 47.5466 105.508 49.3759C107.783 51.2053 110.614 52.2018 113.533 52.2C119.667 52.2 124.793 47.893 126.038 42.143C126.216 41.317 125.546 40.589 124.7 40.589H102.367Z" fill="black"/>
</g></svg>