<svg width="250" height="82" viewBox="0 0 250 82" fill="none" xmlns="http://www.w3.org/2000/svg">
<path d="M239.042 0V0.5H244C247.038 0.5 249.5 2.96243 249.5 6V10.667H250V15.333H249.5V24.667H250V29.333H249.5V38.667H250V43.333H249.5V52.667H250V57.333H249.5V66.667H250V71.333H249.5V76C249.5 79.0376 247.038 81.5 244 81.5H239.042V82H234.083V81.5H224.167V82H219.208V81.5H209.292V82H204.333V81.5H194.417V82H189.458V81.5H179.542V82H174.583V81.5H164.667V82H159.708V81.5H149.792V82H144.833V81.5H134.917V82H129.958V81.5H120.042V82H115.083V81.5H105.167V82H100.208V81.5H90.292V82H85.333V81.5H75.417V82H70.458V81.5H60.542V82H55.583V81.5H45.667V82H40.708V81.5H30.792V82H25.833V81.5H15.917V82H10.958V81.5H6C2.96243 81.5 0.5 79.0376 0.5 76V71.333H0V66.667H0.5V57.333H0V52.667H0.5V43.333H0V38.667H0.5V29.333H0V24.667H0.5V15.333H0V10.667H0.5V6C0.5 2.96243 2.96243 0.5 6 0.5H10.958V0H15.917V0.5H25.833V0H30.792V0.5H40.708V0H45.667V0.5H55.583V0H60.542V0.5H70.458V0H75.417V0.5H85.333V0H90.292V0.5H100.208V0H105.167V0.5H115.083V0H120.042V0.5H129.958V0H134.917V0.5H144.833V0H149.792V0.5H159.708V0H164.667V0.5H174.583V0H179.542V0.5H189.458V0H194.417V0.5H204.333V0H209.292V0.5H219.208V0H224.167V0.5H234.083V0H239.042Z" stroke="#722ED1" stroke-dasharray="10 5"/>
<g clip-path="url(#clip0_0_402)">
<path fill-rule="evenodd" clip-rule="evenodd" d="M20 41.3396V57.6791L23.028 57.6173L26.0558 57.5556L34.0836 46.0313L42.1111 34.5071L42.1687 46.0869L42.2262 57.6667H45.1976H48.1687L56.2511 46.0556L64.3333 34.4444L64.3909 46.0556L64.4484 57.6667H67.2242H70V41.3333V25H67.0333H64.0667L55.9778 36.5876L47.8889 48.1751L47.8313 36.5876L47.7738 25H44.8271H41.8802L33.8844 36.4678L25.8889 47.9356L25.8313 36.4678L25.7738 25H22.8869H20V41.3396Z" fill="#203448"/>
</g>
<g clip-path="url(#clip1_0_402)">
<path d="M192.85 40.5378C192.85 41.4084 192.633 42.0947 192.183 42.5802C191.733 43.0657 191.15 43.2833 190.433 43.2833C189.8 43.2833 189.267 43.0657 188.867 42.6137C188.45 42.1617 188.233 41.6093 188.233 40.9396V34.9464H185.933V40.9396C185.933 42.2956 186.317 43.4508 187.1 44.2543C187.883 45.0746 188.833 45.4764 190.05 45.4764C190.4 45.4764 190.767 45.4262 191.1 45.3425C191.45 45.242 191.733 45.1416 191.95 45.0244C192.167 44.9072 192.4 44.79 192.583 44.6393C192.633 44.6059 192.733 44.5222 192.767 44.4719L192.833 44.3715V45.2755H195.117V34.9296H192.85V40.5378ZM105.733 43.2499C103.267 43.2499 101.267 41.2242 101.267 38.7633C101.267 36.2857 103.283 34.2768 105.733 34.2768C107.217 34.2768 108.517 34.9966 109.333 36.135L111.317 34.9966C110.1 33.1886 108.05 32 105.733 32C102.017 32 99 35.0468 99 38.7633C99 42.4965 102.033 45.5266 105.733 45.5266C108.067 45.5266 110.117 44.338 111.333 42.5467L109.35 41.4084C108.533 42.5133 107.217 43.2499 105.733 43.2499ZM196.733 32.1172H199V45.3425H196.733V32.1172ZM158.867 32.1172L155.15 38.462L151.433 32.1172H148.517V45.3425H150.783V35.5156L154.333 41.5758H155.95L159.533 35.4486V45.3257H161.8L161.817 32.1004H158.867V32.1172ZM143.983 37.2399H147.033V34.9631H143.983V32.1507H141.7V41.4418C141.7 43.6851 142.717 45.3425 145.533 45.3425H147.017V43.0657H145.767C144.167 43.0657 143.983 42.2622 143.983 41.4753V37.2399ZM133.083 34.9631H130.817V35.9006C129.967 35.3147 128.933 34.9631 127.833 34.9631C124.933 34.9631 122.55 37.3403 122.55 40.27C122.55 43.1829 124.917 45.5768 127.833 45.5768C128.933 45.5768 129.983 45.2253 130.817 44.6393V45.3592H133.083V34.9631ZM127.817 43.2331C126.167 43.2331 124.85 41.8938 124.85 40.2532C124.85 38.6126 126.183 37.2734 127.817 37.2734C129.467 37.2734 130.783 38.6126 130.783 40.2532C130.783 41.8938 129.45 43.2331 127.817 43.2331ZM140.067 34.9464C139.617 34.9464 138.2 34.9799 136.933 35.7834V34.9464H134.667V45.309H136.933V39.6673C136.933 39.0144 137.083 38.5122 137.383 38.1606C138.167 37.2399 139.65 37.1729 139.75 37.1729C139.867 37.1729 140.017 37.1562 140.15 37.1562H140.733V34.9464H140.333C140.283 34.9464 140.083 34.9464 140.067 34.9464ZM168.05 45.5434C165.15 45.5434 162.783 43.1661 162.783 40.2532C162.783 37.3403 165.15 34.9631 168.05 34.9631C170.95 34.9631 173.317 37.3403 173.317 40.2532C173.317 43.1661 170.95 45.5434 168.05 45.5434ZM168.05 37.2901C166.433 37.2901 165.1 38.6294 165.1 40.2532C165.1 41.8771 166.433 43.2164 168.05 43.2164C169.667 43.2164 171 41.8771 171 40.2532C171.017 38.6126 169.683 37.2901 168.05 37.2901ZM182.217 34.9464V35.8839C181.367 35.298 180.35 34.9631 179.25 34.9631C176.35 34.9631 173.983 37.3403 173.983 40.2532C173.983 43.1661 176.35 45.5434 179.25 45.5434C180.35 45.5434 181.367 45.1918 182.217 44.6226V44.8235C182.217 44.9239 182.2 45.0244 182.2 45.0244C182.083 45.8112 181.717 46.5143 181.283 47.0166C180.717 47.569 180.017 47.8201 179.2 47.8369H179.15C177.983 47.8034 176.95 47.2677 176.3 46.4306L174.75 48.088C175.667 49.3603 177.35 50.1973 179.25 50.1638C180.717 50.1638 181.967 49.6281 182.983 48.5734C183.917 47.5857 184.417 46.3804 184.483 44.9742C184.483 44.9742 184.5 44.8068 184.5 44.6059V34.9799H182.217V34.9464ZM179.25 43.2331C177.633 43.2331 176.3 41.8938 176.3 40.27C176.3 38.6461 177.633 37.3069 179.25 37.3069C180.867 37.3069 182.2 38.6461 182.2 40.27C182.2 41.8938 180.867 43.2331 179.25 43.2331ZM116.667 37.2566H117.117C117.05 37.2566 116.967 37.2399 116.9 37.2399C116.8 37.2399 116.75 37.2399 116.667 37.2566Z" fill="black"/>
<path d="M121.477 39.388C121.477 36.6813 119.609 34.977 117.073 34.977C116.156 34.977 115.289 35.2778 114.571 35.7623V32.1533H112.303V45.3362H114.571V39.9895C114.571 39.1207 114.771 38.4524 115.188 37.9678C115.555 37.5501 116.056 37.2995 116.69 37.2661C116.756 37.2661 116.823 37.2494 116.89 37.2494C116.957 37.2494 117.04 37.2494 117.107 37.2661C117.724 37.2995 118.208 37.5501 118.591 37.9678C118.975 38.4357 119.175 39.0706 119.208 39.8726V45.3362H121.477V39.388Z" fill="black"/>
</g>
<defs>
<clipPath id="clip0_0_402">
<rect width="50" height="32.8889" fill="white" transform="translate(20 25)"/>
</clipPath>
<clipPath id="clip1_0_402">
<rect width="100" height="18.1648" fill="white" transform="translate(99 32)"/>
</clipPath>
</defs>
</svg>
