<svg width="154" height="77" viewBox="0 0 154 77" fill="none" xmlns="http://www.w3.org/2000/svg">
<path d="M10.17 58.5989L12.124 53.0483H13.0431L14.9971 58.5989H14.0391L13.5795 57.2791H11.5115L11.0511 58.5989H10.17ZM11.7793 56.464H13.3117L12.5835 54.2127L11.7793 56.464ZM16.7973 58.5989V53.0483H18.0239L19.4795 57.4344L20.897 53.0483H22.1228V58.5989H21.2417V54.4456C21.1648 54.8338 21.05 55.1831 20.9351 55.5713L19.8622 58.56H19.0579L17.9851 55.5713C17.8702 55.1831 17.7553 54.9502 17.6404 54.4068V58.56H16.7973V58.5989ZM24.4595 58.5989V53.0483H27.9839V53.9022H25.3786V55.2996H27.2946V56.1147H25.3786V57.7061H28.1369V58.56H24.4595V58.5989ZM30.0908 58.5989V53.0483H32.0448C33.3467 53.0483 34.1129 53.5917 34.1129 54.7173C34.1129 55.6101 33.6533 56.1147 32.8871 56.3088L34.1905 58.5989H33.1945L31.9687 56.4252H31.0108V58.5989H30.0908ZM31.01 55.5713H32.006C32.7722 55.5713 33.1937 55.3772 33.1937 54.7173C33.1937 54.0963 32.7722 53.9022 32.006 53.9022H31.01V55.5713ZM36.2966 58.5989V53.0483H37.2166V58.5989H36.2966ZM39.2847 55.8042C39.2847 53.941 40.3195 52.9318 41.699 52.9318C42.9628 52.9318 43.5753 53.6305 43.8051 54.6397L42.924 54.9114C42.733 54.1739 42.3883 53.7858 41.6602 53.7858C40.7402 53.7858 40.2046 54.5232 40.2046 55.7653C40.2046 57.0851 40.7402 57.8226 41.6982 57.8226C42.4264 57.8226 42.8091 57.4732 43.0009 56.6193L43.882 56.8134C43.6141 57.9002 42.924 58.6377 41.6602 58.6377C40.2807 58.7153 39.2847 57.7061 39.2847 55.8042ZM45.4524 58.5989L47.4064 53.0483H48.3256L50.2795 58.5989H49.3215L48.8628 57.2791H46.7939L46.3343 58.5989H45.4524ZM47.0617 56.464H48.5942L47.866 54.2127L47.0617 56.464ZM52.0798 58.5989V53.0483H53.0377L55.643 57.0074V53.0483H56.4853V58.5989H55.643L52.9609 54.5621V58.5989H52.0798ZM61.2356 58.5989L63.1895 53.0483H64.1087L66.0626 58.5989H65.1047L64.6451 57.2791H62.5762L62.1167 58.5989H61.2356ZM62.8068 56.464H64.3385L63.6111 54.2127L62.8068 56.464ZM67.5563 57.2791L68.2844 56.891C68.5911 57.5508 69.1275 57.8614 69.7788 57.8614C70.4302 57.8614 70.8889 57.6285 70.8889 57.1239C70.8889 56.6581 70.545 56.4252 69.6639 56.1535C68.5911 55.843 67.748 55.5324 67.748 54.4844C67.748 53.5529 68.5142 52.9318 69.6251 52.9318C70.698 52.9318 71.3493 53.4752 71.6559 54.1351L70.9658 54.6009C70.6599 54.0575 70.1615 53.7858 69.5871 53.7858C68.9738 53.7858 68.6291 54.0186 68.6291 54.4068C68.6291 54.9114 69.0126 55.1055 69.9318 55.3772C70.9658 55.6877 71.8089 56.037 71.8089 57.0851C71.8089 57.9778 71.0427 58.7153 69.74 58.7153C68.6679 58.7153 67.9009 58.1331 67.5563 57.2791ZM73.5711 57.2791L74.2993 56.891C74.6051 57.5508 75.1416 57.8614 75.7929 57.8614C76.445 57.8614 76.9038 57.6285 76.9038 57.1239C76.9038 56.6581 76.5591 56.4252 75.678 56.1535C74.6051 55.843 73.7629 55.5324 73.7629 54.4844C73.7629 53.5529 74.5291 52.9318 75.64 52.9318C76.7128 52.9318 77.3634 53.4752 77.67 54.1351L76.9806 54.6009C76.674 54.0575 76.1764 53.7858 75.6011 53.7858C74.9879 53.7858 74.644 54.0186 74.644 54.4068C74.644 54.9114 75.0267 55.1055 75.9466 55.3772C76.9806 55.6877 77.8237 56.037 77.8237 57.0851C77.8237 57.9778 77.0575 58.7153 75.7549 58.7153C74.682 58.7153 73.9158 58.1331 73.5711 57.2791ZM79.624 55.8042C79.624 53.941 80.6968 52.9318 82.1144 52.9318C83.4931 52.9318 84.566 53.941 84.566 55.8042C84.566 57.6673 83.4931 58.6765 82.1144 58.6765C80.6968 58.7153 79.624 57.6673 79.624 55.8042ZM83.646 55.8042C83.646 54.4844 83.0327 53.7858 82.1144 53.7858C81.1945 53.7858 80.5819 54.4844 80.5819 55.8042C80.5819 57.1239 81.1952 57.8226 82.1144 57.8226C83.0335 57.8614 83.646 57.1239 83.646 55.8042ZM86.3274 55.8042C86.3274 53.941 87.3622 52.9318 88.7417 52.9318C90.0055 52.9318 90.6188 53.6305 90.8486 54.6397L89.9675 54.9114C89.7758 54.1739 89.4311 53.7858 88.7029 53.7858C87.7838 53.7858 87.2473 54.5232 87.2473 55.7653C87.2473 57.0851 87.783 57.8226 88.7417 57.8226C89.4691 57.8226 89.8518 57.4732 90.0436 56.6193L90.9247 56.8134C90.6569 57.9002 89.9675 58.6377 88.7029 58.6377C87.3242 58.7153 86.3274 57.7061 86.3274 55.8042ZM92.9936 58.5989V53.0483H93.9127V58.5989H92.9936ZM95.8286 58.5989L97.7826 53.0483H98.7018L100.656 58.5989H99.6978L99.2374 57.2791H97.1685L96.709 58.5989H95.8286ZM97.3991 56.464H98.9315L98.2034 54.2127L97.3991 56.464ZM103.72 58.5989V53.941H102.035V53.0871H106.325V53.941H104.64V58.5989H103.72ZM108.24 58.5989V53.0483H109.16V58.5989H108.24ZM111.228 55.8042C111.228 53.941 112.301 52.9318 113.719 52.9318C115.098 52.9318 116.17 53.941 116.17 55.8042C116.17 57.6673 115.098 58.6765 113.719 58.6765C112.301 58.7153 111.228 57.6673 111.228 55.8042ZM115.251 55.8042C115.251 54.4844 114.638 53.7858 113.719 53.7858C112.8 53.7858 112.186 54.4844 112.186 55.8042C112.186 57.1239 112.8 57.8226 113.719 57.8226C114.638 57.8614 115.251 57.1239 115.251 55.8042ZM118.201 58.5989V53.0483H119.158L121.764 57.0074V53.0483H122.607V58.5989H121.764L119.082 54.5621V58.5989H118.201ZM127.74 58.5989V53.0483H131.187V53.9022H128.659V55.3772H130.499V56.1923H128.659V58.56H127.74V58.5989ZM132.796 55.8042C132.796 53.941 133.869 52.9318 135.287 52.9318C136.666 52.9318 137.738 53.941 137.738 55.8042C137.738 57.6673 136.666 58.6765 135.287 58.6765C133.907 58.7153 132.796 57.6673 132.796 55.8042ZM136.818 55.8042C136.818 54.4844 136.205 53.7858 135.287 53.7858C134.367 53.7858 133.754 54.4844 133.754 55.8042C133.754 57.1239 134.368 57.8226 135.287 57.8226C136.206 57.8614 136.818 57.1239 136.818 55.8042ZM139.768 58.5989V53.0483H141.722C143.025 53.0483 143.791 53.5917 143.791 54.7173C143.791 55.6101 143.331 56.1147 142.565 56.3088L143.867 58.5989H142.871L141.646 56.4252H140.688V58.5989H139.768ZM140.65 55.5713H141.646C142.412 55.5713 142.833 55.3772 142.833 54.7173C142.833 54.0963 142.412 53.9022 141.646 53.9022H140.65V55.5713Z" fill="#005699"/>
<path d="M5.53456 69.4285V64.7707H3.84998V63.8779H8.13986V64.7319H6.45449V69.3897H5.53456V69.4285ZM10.017 69.4285V63.8779H10.9361V66.0904H13.4265V63.8779H14.3457V69.4285H13.4265V66.9831H10.9361V69.4285H10.017ZM16.6443 69.4285V63.8779H20.1688V64.7319H17.5635V66.1292H19.4794V66.9443H17.5635V68.5358H20.3217V69.3897H16.6443V69.4285ZM24.7272 69.4285L26.6812 63.8779H27.6004L29.5543 69.4285H28.5964L28.1368 68.1088H26.0679L25.6083 69.4285H24.7272ZM26.2985 67.2937H27.8301L27.1027 65.0424L26.2985 67.2937ZM31.3546 69.4285V63.8779H32.9258C34.6492 63.8779 35.7601 64.693 35.7601 66.6338C35.7601 68.6134 34.6112 69.4285 32.9258 69.4285H31.3546ZM32.2745 68.6134H33.0019C34.2665 68.6134 34.841 68.07 34.841 66.6726C34.841 65.3529 34.2665 64.8095 33.0019 64.8095H32.3125V68.6134H32.2745ZM39.2465 69.4673L37.3314 63.9167H38.2886L39.7061 68.2252L41.1236 63.9167H42.0048L40.0896 69.4673H39.2465ZM43.4223 69.4285L45.3763 63.8779H46.2954L48.2494 69.4285H47.2914L46.8318 68.1088H44.763L44.3034 69.4285H43.4223ZM44.9928 67.2937H46.5252L45.7962 65.0424L44.9928 67.2937ZM50.0496 69.4285V63.8779H51.0076L53.6121 67.8371V63.8779H54.4552V69.4285H53.6121L50.9307 65.3917V69.4285H50.0496ZM56.4472 66.6338C56.4472 64.7707 57.4812 63.7615 58.8607 63.7615C60.1246 63.7615 60.7379 64.4601 60.9676 65.4693L60.0865 65.7411C59.8948 65.0036 59.5501 64.6154 58.8219 64.6154C57.9028 64.6154 57.3664 65.3529 57.3664 66.595C57.3664 67.9147 57.9028 68.6522 58.8607 68.6522C59.5881 68.6522 59.9709 68.3029 60.1634 67.4489L61.0445 67.643C60.7759 68.7298 60.0865 69.4673 58.8219 69.4673C57.4432 69.545 56.4472 68.5746 56.4472 66.6338ZM63.0745 69.4285V63.8779H66.599V64.7319H63.9929V66.1292H65.9088V66.9443H63.9929V68.5358H66.7511V69.3897H63.0738L63.0745 69.4285ZM68.6678 69.4285V63.8779H69.8936L71.3492 68.2641L72.7668 63.8779H73.9925V69.4285H73.1114V65.2753C73.0346 65.6634 72.9197 66.0128 72.7668 66.4009L71.6939 69.3897H70.8896L69.8168 66.4009C69.7019 66.0128 69.587 65.7799 69.4721 65.2365V69.3897H68.6678V69.4285ZM76.3292 69.4285V63.8779H79.8537V64.7319H77.2484V66.1292H79.1643V66.9443H77.2484V68.5358H80.0066V69.3897H76.3292V69.4285ZM81.9606 69.4285V63.8779H82.9185L85.5231 67.8371V63.8779H86.3661V69.4285H85.5231L82.8417 65.3917V69.4285H81.9606ZM89.8906 69.4285V64.7707H88.2052V63.8779H92.4959V64.7319H90.8097V69.3897H89.8906V69.4285ZM96.9783 66.6726C96.9783 64.8095 98.0503 63.8003 99.4679 63.8003C100.847 63.8003 101.919 64.8095 101.919 66.6726C101.919 68.5358 100.847 69.545 99.4679 69.545C98.0884 69.545 96.9783 68.5358 96.9783 66.6726ZM101 66.6726C101 65.3529 100.387 64.6542 99.4679 64.6542C98.5487 64.6542 97.9354 65.3529 97.9354 66.6726C97.9354 67.9923 98.5487 68.691 99.4679 68.691C100.387 68.691 101 67.9535 101 66.6726ZM103.95 69.4285V63.8779H107.398V64.7319H104.869V66.2068H106.708V67.022H104.869V69.3897H103.95V69.4285ZM111.841 68.1476L112.57 67.7595C112.875 68.4193 113.412 68.7298 114.063 68.7298C114.715 68.7298 115.174 68.4969 115.174 67.9923C115.174 67.5266 114.829 67.2937 113.948 67.022C112.876 66.7114 112.033 66.4009 112.033 65.3529C112.033 64.4213 112.799 63.8003 113.91 63.8003C114.982 63.8003 115.634 64.3437 115.94 65.0036L115.251 65.4693C114.944 64.9259 114.447 64.6542 113.872 64.6542C113.258 64.6542 112.914 64.8871 112.914 65.2753C112.914 65.7799 113.297 65.9739 114.217 66.2457C115.251 66.5562 116.094 66.9055 116.094 67.9535C116.094 68.8463 115.328 69.5838 114.025 69.5838C112.99 69.545 112.224 68.9627 111.841 68.1476ZM117.894 66.6338C117.894 64.7707 118.928 63.7615 120.308 63.7615C121.572 63.7615 122.185 64.4601 122.415 65.4693L121.534 65.7411C121.342 65.0036 120.997 64.6154 120.269 64.6154C119.35 64.6154 118.813 65.3529 118.813 66.595C118.813 67.9147 119.35 68.6522 120.308 68.6522C121.035 68.6522 121.418 68.3029 121.611 67.4489L122.492 67.643C122.223 68.7298 121.534 69.4673 120.269 69.4673C118.89 69.545 117.894 68.5746 117.894 66.6338ZM124.561 69.4285V63.8779H125.48V69.4285H124.561ZM127.816 69.4285V63.8779H131.341V64.7319H128.735V66.1292H130.651V66.9443H128.735V68.5358H131.494V69.3897H127.816V69.4285ZM133.448 69.4285V63.8779H134.406L137.01 67.8371V63.8779H137.853V69.4285H137.01L134.329 65.3917V69.4285H133.448ZM139.883 66.6338C139.883 64.7707 140.918 63.7615 142.298 63.7615C143.561 63.7615 144.174 64.4601 144.404 65.4693L143.523 65.7411C143.331 65.0036 142.987 64.6154 142.259 64.6154C141.339 64.6154 140.803 65.3529 140.803 66.595C140.803 67.9147 141.339 68.6522 142.297 68.6522C143.025 68.6522 143.408 68.3029 143.599 67.4489L144.481 67.643C144.212 68.7298 143.523 69.4673 142.259 69.4673C140.879 69.545 139.883 68.5746 139.883 66.6338ZM146.473 69.4285V63.8779H149.997V64.7319H147.392V66.1292H149.308V66.9443H147.392V68.5358H150.15V69.3897H146.473V69.4285Z" fill="#005699"/>
<path d="M28.352 7.41626C32.2095 11.0208 41.8515 39.858 44.0825 46.4288V7.41626H28.352ZM33.9112 46.4288C31.7177 39.7079 23.323 11.2088 18.8618 7.49207H3.84998V46.4296H4.19091L18.7476 8.46844L6.61116 46.4288H6.98963L20.2608 11.0208L9.21988 46.4296H9.74852L21.7739 14.1364L11.942 46.3917H12.3955L18.5967 33.1371H17.1226L23.1721 17.2164L18.635 33.1371H19.9965L14.4756 46.4288H33.9112Z" fill="#005699"/>
<path d="M133.243 44.9727C132.863 44.9727 132.292 44.935 131.72 44.7487C130.845 44.5247 129.817 43.8151 128.484 40.6027C126.772 36.4566 123.193 27.2302 121.023 21.7027L119.348 17.4812C118.891 16.3237 118.701 15.9874 118.32 15.9874C117.939 15.9874 117.75 16.3237 117.292 17.5936L108.422 41.4246C107.661 43.4788 106.899 44.7118 105.301 44.898H105.073C104.844 44.8603 104.615 44.8234 104.349 44.7487C103.474 44.5247 102.445 43.8151 101.113 40.6027C99.4002 36.4566 95.8219 27.1933 93.6514 21.665L92.0146 17.4443C91.558 16.2852 91.3675 15.9504 90.9872 15.9504C90.6061 15.9504 90.4164 16.286 89.959 17.5567L81.0886 41.3869C80.3273 43.4419 79.5659 44.6748 77.9669 44.8611H77.7386C77.5103 44.8234 77.282 44.7857 77.0159 44.7118C76.1396 44.4878 75.1122 43.7774 73.7801 40.5657C72.067 36.4189 68.4887 27.1933 66.3182 21.665L64.6436 17.4443C64.1862 16.2852 63.9957 15.9504 63.6154 15.9504C63.2343 15.9504 63.0446 16.286 62.5872 17.5567L53.7175 41.3862C52.9562 43.4411 52.1949 44.674 50.5959 44.8603L49.4921 44.935C49.1489 44.935 48.9591 45.0843 48.9591 45.346C48.9591 45.8316 49.6063 45.8316 49.911 45.8316L53.4514 45.7562L54.3269 45.7192L55.3165 45.7569L57.3722 45.8316C58.0193 45.8316 58.1335 45.5699 58.1335 45.346C58.1335 45.1966 58.0571 44.935 57.5627 44.935H57.1816C56.6872 44.935 55.8873 44.6733 55.8873 44.0014C55.8873 43.3287 56.0778 42.4329 56.4203 41.4978L58.7806 34.7003C58.857 34.551 58.9326 34.5133 59.0089 34.5133H67.422C67.5361 34.5133 67.5361 34.5133 67.6125 34.6257L71.2293 44.0383C71.2679 44.1877 71.3057 44.337 71.3057 44.4493C71.3057 44.524 71.3057 44.6363 71.2671 44.6733C71.2285 44.7857 71.1529 44.8226 71.1151 44.8226C70.7727 44.898 70.6963 45.122 70.6963 45.2713C70.6963 45.6446 71.1529 45.6823 71.8764 45.7192H72.067C73.551 45.7569 75.3027 45.7946 77.1678 45.7946H78.196C78.348 45.7946 78.4999 45.7946 78.6141 45.7569L80.8224 45.7192L81.6979 45.6815L82.6876 45.7192L84.7432 45.7946C85.3911 45.7946 85.5053 45.5322 85.5053 45.3082C85.5053 45.1589 85.4281 44.8973 84.9345 44.8973H84.5534C84.0582 44.8973 83.2591 44.6363 83.2591 43.9637C83.2591 43.291 83.4489 42.3952 83.7914 41.4608L86.1516 34.6626C86.2288 34.5133 86.3044 34.4764 86.3807 34.4764H94.7937C94.9079 34.4764 94.9079 34.4764 94.9843 34.588L98.6003 44.0014C98.6389 44.1507 98.6767 44.3 98.6767 44.4116C98.6767 44.487 98.6767 44.5986 98.6381 44.6363C98.6003 44.748 98.5247 44.7857 98.4862 44.7857C98.1437 44.8603 98.0673 45.0843 98.0673 45.2336C98.0673 45.6069 98.5247 45.6446 99.2475 45.6823H99.438C100.923 45.72 102.674 45.7569 104.54 45.7569H105.567C105.72 45.7569 105.872 45.7569 105.986 45.7192L108.194 45.6815L109.07 45.6446L110.059 45.6823L112.115 45.7569C112.762 45.7569 112.876 45.4953 112.876 45.2713C112.876 45.122 112.8 44.8603 112.305 44.8603H111.924C111.43 44.8603 110.63 44.5986 110.63 43.9267C110.63 43.2541 110.821 42.3582 111.163 41.4231L113.523 34.6257C113.6 34.4764 113.676 34.4387 113.752 34.4387H122.165C122.28 34.4387 122.28 34.4387 122.355 34.551L125.972 43.9637C126.011 44.113 126.048 44.2623 126.048 44.3747C126.048 44.4493 126.048 44.5617 126.01 44.5986C125.971 44.711 125.896 44.748 125.858 44.748C125.515 44.8234 125.439 45.0466 125.439 45.1966C125.439 45.5699 125.896 45.6069 126.619 45.6446H126.81C128.561 45.6823 130.731 45.72 132.977 45.72C133.624 45.72 133.966 45.5699 133.966 45.2336C133.852 45.122 133.662 44.9727 133.243 44.9727ZM121.556 32.8332H114.17L117.634 22.4492C117.672 22.2999 117.71 22.2253 117.748 22.1876C117.787 22.2253 117.825 22.3007 117.862 22.4492C117.824 22.4492 121.556 32.7955 121.556 32.8332ZM94.1466 32.8332H86.761L90.2251 22.4492C90.2637 22.2999 90.3022 22.2253 90.34 22.1876C90.3778 22.2253 90.4156 22.3007 90.4542 22.4492C90.4542 22.4492 94.1466 32.7955 94.1466 32.8332ZM66.7748 32.8332H59.39L62.8533 22.4492C62.8919 22.2999 62.9304 22.2253 62.9682 22.1876C63.0068 22.2253 63.0446 22.3007 63.0824 22.4492C63.0824 22.4492 66.7748 32.7955 66.7748 32.8332ZM144.436 29.0981L143.331 28.2385C139.562 25.2138 138.649 23.9808 138.649 21.9267C138.649 19.3869 140.514 17.6683 143.256 17.6683C146.529 17.6683 147.671 19.0128 147.976 19.6108C148.204 19.9841 148.433 20.9923 148.471 21.441C148.509 21.7396 148.547 22.1129 148.966 22.1129C149.422 22.1129 149.422 21.4041 149.422 21.03C149.422 18.9759 149.537 17.7799 149.574 17.2573V16.9587C149.574 16.5477 149.27 16.5107 149.004 16.5107C148.737 16.5107 148.433 16.473 147.671 16.3237C146.567 16.062 145.387 15.9504 143.978 15.9504C138.954 15.9504 135.679 18.7511 135.679 23.0465C135.679 25.624 136.555 28.0899 140.819 31.5263L142.57 32.9456C146.034 35.747 146.986 37.2039 146.986 39.706C146.986 42.1342 145.121 44.6371 141.58 44.6371C140.134 44.6371 136.669 44.2631 135.984 40.8643C135.87 40.341 135.87 39.8184 135.87 39.4821C135.87 39.2581 135.87 38.8848 135.413 38.8848C134.994 38.8848 134.918 39.4074 134.918 39.6691L134.88 40.117C134.804 40.9013 134.728 42.1712 134.728 43.7405C134.728 44.7487 134.766 45.0473 135.413 45.3844C136.897 46.0933 138.649 46.4296 140.743 46.4296C143.104 46.4296 145.197 45.8693 146.757 44.7857C149.27 43.0309 150.146 40.2663 150.146 38.2499C150.222 35.2983 149.27 32.8332 144.436 29.0981Z" fill="#005699"/>
</svg>
