<svg  viewBox="20 16 50 50" fill="none" xmlns="http://www.w3.org/2000/svg"><defs>
<clipPath id="clip0_0_1418">
<rect width="50" height="50" fill="white" transform="translate(20 16)"/>
</clipPath>
<clipPath id="clip1_0_1418">
<rect width="100" height="29.3333" fill="white" transform="translate(107 26)"/>
</clipPath>
</defs><g clip-path="url(#clip0_0_1418)">
<path d="M60.625 16H29.375C24.1973 16 20 20.1973 20 25.375V56.625C20 61.8027 24.1973 66 29.375 66H60.625C65.8027 66 70 61.8027 70 56.625V25.375C70 20.1973 65.8027 16 60.625 16Z" fill="black"/>
<path d="M45 56.625C53.6294 56.625 60.625 49.6294 60.625 41C60.625 32.3706 53.6294 25.375 45 25.375C36.3706 25.375 29.375 32.3706 29.375 41C29.375 49.6294 36.3706 56.625 45 56.625Z" fill="white"/>
</g><g clip-path="url(#clip1_0_1418)">
<path d="M144.468 34.7879V49.7878C144.468 50.7538 144.042 51.2178 142.773 51.2178C142.593 51.2178 142.432 51.2083 142.205 51.1894V54.6932C142.565 54.7311 142.811 54.7216 143.057 54.731C146.769 54.8447 149.099 53.4811 149.099 49.8826V34.7879H144.468ZM146.779 33.0928C148.095 33.0928 149.156 32.0984 149.156 30.8769C149.156 29.6553 148.095 28.6704 146.779 28.6704C145.472 28.6704 144.402 29.6553 144.402 30.8769C144.402 32.0984 145.472 33.0928 146.779 33.0928ZM152.046 49.3333H156.677V34.7879H152.046V49.3333ZM154.367 33.0928C155.683 33.0928 156.743 32.0984 156.743 30.8769C156.743 29.6553 155.683 28.6704 154.367 28.6704C153.06 28.6704 151.99 29.6553 151.99 30.8769C151.99 32.0984 153.06 33.0928 154.367 33.0928ZM167.835 34.7879H165.212V31.303H160.581V34.7879H158.659V38.197H160.581V45.2708C160.553 48.2159 162.465 49.6932 165.733 49.5416C166.85 49.4848 167.655 49.2576 168.1 49.125L167.399 45.7822C167.2 45.8295 166.736 45.9243 166.386 45.9243C165.638 45.9243 165.212 45.6212 165.212 44.7595V38.197H167.835V34.7879ZM178.408 34.7879H175.785V31.303H171.154V34.7879H169.232V38.197H171.154V45.2708C171.126 48.2159 173.038 49.6932 176.305 49.5416C177.423 49.4848 178.228 49.2576 178.673 49.125L177.972 45.7822C177.773 45.8295 177.309 45.9243 176.959 45.9243C176.211 45.9243 175.785 45.6212 175.785 44.7595V38.197H178.408V34.7879ZM187.413 49.6079C191.23 49.6079 193.739 47.7613 194.269 44.9015L190.018 44.7784C189.658 45.7443 188.711 46.2651 187.499 46.2651C185.719 46.2651 184.62 45.0815 184.62 43.3011V43.178H194.317V42.0227C194.317 37.2311 191.4 34.5985 187.271 34.5985C182.877 34.5985 180.055 37.6098 180.055 42.1174C180.055 46.7765 182.84 49.6079 187.413 49.6079ZM184.62 40.4887C184.686 39.0398 185.832 37.9413 187.366 37.9413C188.891 37.9413 189.989 39.0019 190.008 40.4887H184.62ZM196.682 49.3333H201.313V41.4356C201.313 39.7026 202.544 38.5379 204.201 38.5379C204.75 38.5379 205.574 38.6326 206.019 38.7841V34.7595C205.631 34.6553 205.148 34.589 204.722 34.589C203.131 34.589 201.862 35.5171 201.331 37.4394H201.18V34.7879H196.682V49.3333Z" fill="black"/>
<path d="M121.667 55.3333C129.767 55.3333 136.333 48.7669 136.333 40.6667C136.333 32.5665 129.767 26 121.667 26C113.566 26 107 32.5665 107 40.6667C107 48.7669 113.566 55.3333 121.667 55.3333Z" fill="black"/>
</g></svg>