<svg width="172" height="69" viewBox="0 0 172 69" fill="none" xmlns="http://www.w3.org/2000/svg">
<path d="M164.283 39.3061C161.751 43.7159 158.661 46.0278 155.576 46.4676C157.448 42.6105 158.441 38.4266 158.441 35.0093C158.441 27.7349 154.257 23.438 146.65 23.438C133.426 23.438 127.257 37.2082 127.257 45.5821C127.257 46.2418 127.257 46.9014 127.37 47.4542C125.165 49.9859 123.293 51.3112 121.861 51.3112C120.761 51.3112 119.656 50.5386 122.52 43.2702L125.605 35.8889C126.817 32.6915 127.477 30.5995 127.477 28.8344C127.477 25.637 125.385 23.438 121.415 23.438C116.019 23.438 111.169 27.2951 109.624 28.8344C109.511 25.637 107.532 23.438 103.562 23.438C98.3855 23.438 93.6429 27.622 93.423 27.8478L94.7424 24.8703H84.8233L76.7823 44.3697C75.2371 45.6891 73.5849 46.2418 72.0456 46.5746C73.9177 42.7175 74.9102 38.5335 74.9102 35.1162C74.9102 27.8419 70.7262 23.438 63.1191 23.438C56.8372 23.438 52.2134 27.7349 49.016 30.5995H45.8186L51.215 17.0492C53.0871 12.5324 56.2845 11.32 56.2845 11.32L54.5431 5.91772C51.6786 5.91772 48.7011 7.0172 46.6091 8.89523C39.6675 10.3275 31.0738 5.91772 22.8129 5.91772C12.8938 5.91772 8.48994 12.1996 8.48994 18.4755C8.48994 25.637 14.2191 29.601 19.9483 29.601C25.4575 29.601 28.8748 26.1837 28.8748 26.1837L25.0177 20.1218C25.0177 20.1218 23.2526 21.9939 20.608 21.9939C18.623 21.9939 16.6439 20.7815 16.6439 18.3567C16.6439 16.0448 18.409 13.62 23.0327 13.62C27.9893 13.62 34.9309 16.3717 41.4326 16.9244L35.9234 30.6946H30.4141L28.3221 36.3168H33.8314L31.8464 40.9583C28.3221 49.4451 24.2451 54.8414 18.623 54.8414C15.6455 54.8414 12.7809 52.5296 12.7809 48.9994C12.7809 46.7945 14.3261 43.1573 19.9423 43.603V35.3421C10.0292 34.5635 4.30005 41.2852 4.30005 48.9994C4.41297 55.828 9.14963 62.8825 19.6155 62.8825C25.3446 62.8825 33.8314 61.0104 39.8874 46.0219L43.8515 36.3286H46.1633C44.6181 40.6255 43.8515 43.0503 43.8515 45.9149C43.8515 53.0763 48.1483 57.5931 55.8625 57.5931C61.3718 57.5931 65.7816 54.9484 68.8661 51.3112C70.7381 51.4242 72.5032 52.3037 74.2624 51.751L71.8376 58.9125H81.7567L90.1305 36.9883C92.7752 34.0108 95.6398 32.0318 97.0721 32.0318C97.9516 32.0318 98.7243 32.2517 98.7243 33.0243C98.7243 34.0168 97.6248 37.541 96.5194 40.4056C94.4274 45.695 91.4499 53.2962 89.3579 58.9184H99.3839L107.758 36.9943C110.402 34.1297 113.267 32.0377 114.812 32.0377C115.692 32.0377 116.464 32.2576 116.464 33.1372C116.464 34.0168 115.472 36.3346 114.26 39.3061L113.38 41.511C108.863 52.6366 111.615 57.4861 118.117 57.4861C122.081 57.4861 125.718 55.5011 128.915 52.3097C130.787 55.5071 134.312 57.4861 139.274 57.4861C144.783 57.4861 149.193 54.9544 152.278 51.3172C158.667 51.8699 164.289 47.68 167.7 41.8439C167.26 40.6255 165.608 39.526 164.283 39.3061ZM64.1294 39.526C61.0449 39.4131 58.84 41.7309 58.84 44.4826C58.84 45.802 59.3927 47.0144 60.1594 48.0069C58.84 49.772 57.1819 51.0913 55.7496 51.0913C54.2044 51.0913 53.3248 49.772 53.3248 47.787C53.3248 43.1573 58.1744 30.0468 63.018 30.0468C64.3374 30.0468 65.4428 30.9264 65.4428 33.2442C65.4547 34.7834 65.0149 36.9883 64.1294 39.526ZM147.648 39.526C144.563 39.4131 142.359 41.7309 142.359 44.4826C142.359 45.802 142.911 47.0144 143.678 48.0069C142.359 49.772 140.7 51.0913 139.268 51.0913C137.723 51.0913 136.843 49.772 136.843 47.787C136.843 43.1573 141.693 30.0468 146.537 30.0468C147.856 30.0468 148.961 30.9264 148.961 33.2442C148.967 34.7834 148.528 36.9883 147.648 39.526Z" fill="#ECA16C"/>
</svg>
