<svg width="154" height="77" viewBox="0 0 154 77" fill="none" xmlns="http://www.w3.org/2000/svg">
<mask id="mask0_0_8696" style="mask-type:alpha" maskUnits="userSpaceOnUse" x="13" y="7" width="129" height="63">
<path d="M141.139 57.6433C141.139 64.2535 135.601 69.6616 128.833 69.6616H25.3944C18.6259 69.6616 13.088 64.2535 13.088 57.6433V19.3695C13.088 12.7598 18.6259 7.3512 25.3944 7.3512H128.833C135.601 7.3512 141.139 12.7598 141.139 19.3695V57.6433Z" fill="white"/>
</mask>
<g mask="url(#mask0_0_8696)">
<path d="M141.139 57.6434C141.139 64.2536 135.601 69.6617 128.832 69.6617H25.3941C18.6256 69.6617 13.0878 64.2536 13.0878 57.6434V19.3696C13.0878 12.76 18.6256 7.35132 25.3941 7.35132H128.832C135.601 7.35132 141.139 12.76 141.139 19.3696V57.6434Z" fill="url(#paint0_linear_0_8696)"/>
</g>
<mask id="mask1_0_8696" style="mask-type:alpha" maskUnits="userSpaceOnUse" x="3" y="7" width="148" height="63">
<path d="M3.84998 7.20276H150.15V69.7972H3.84998" fill="white"/>
</mask>
<g mask="url(#mask1_0_8696)">
<path fill-rule="evenodd" clip-rule="evenodd" d="M143.903 30.0298C143.903 25.3442 144.624 22.581 144.624 17.5353C144.624 9.72588 141.74 7.20276 135.372 7.20276H130.687V12.7292H132.129C135.372 12.7292 136.093 13.8107 136.093 17.7754C136.093 21.4995 135.733 25.2242 135.733 29.5496C135.733 35.076 137.535 37.2384 141.139 38.0793V38.44C137.535 39.2808 135.733 41.4438 135.733 46.9702C135.733 51.2951 136.093 54.7797 136.093 58.7444C136.093 62.8292 135.252 63.9102 132.129 63.9102V64.0302H130.687V69.7972H135.372C141.74 69.7972 144.624 67.2741 144.624 59.4653C144.624 54.299 143.903 51.6558 143.903 46.9702C143.903 44.4471 145.464 41.804 150.15 41.5639V35.3161C145.464 35.1961 143.903 32.5529 143.903 30.0298Z" fill="#FAF9F8"/>
<path fill-rule="evenodd" clip-rule="evenodd" d="M90.6794 37.3585C86.9547 35.9169 83.5907 35.076 83.5907 32.6729C83.5907 30.8712 85.0323 29.7897 87.6755 29.7897C90.3187 29.7897 92.7218 30.8712 95.3649 32.7935L100.171 26.4257C97.1667 24.1432 93.0819 21.7402 87.5555 21.7402C79.3859 21.7402 73.8589 26.4257 73.8589 33.0336C73.8589 38.9207 79.0252 41.924 83.3506 43.6063C87.0747 45.0479 90.6794 46.2494 90.6794 48.6519C90.6794 50.4543 89.2372 51.6558 85.9938 51.6558C82.99 51.6558 79.9867 50.4543 76.7427 47.9311L72.0572 54.8997C75.6612 57.903 81.1876 59.9454 85.7532 59.9454C95.3649 59.9454 100.531 54.8997 100.531 48.2918C100.531 41.6839 95.3649 38.9207 90.6794 37.3585Z" fill="#FAF9F8"/>
<path fill-rule="evenodd" clip-rule="evenodd" d="M119.754 37.3585C116.15 35.9169 112.786 35.076 112.786 32.6729C112.786 30.8712 114.227 29.7897 116.87 29.7897C119.514 29.7897 121.917 30.8712 124.56 32.7935L129.365 26.4257C126.361 24.1432 122.277 21.7402 116.75 21.7402C108.58 21.7402 103.054 26.4257 103.054 33.0336C103.054 38.9207 108.22 41.924 112.545 43.6063C116.27 45.0479 119.874 46.2494 119.874 48.6519C119.874 50.4543 118.432 51.6558 115.188 51.6558C112.185 51.6558 109.181 50.4543 105.938 47.9311L101.131 54.8997C104.736 57.903 110.262 59.9454 114.828 59.9454C124.439 59.9454 129.605 54.8997 129.605 48.2918C129.605 41.6839 124.439 38.9207 119.754 37.3585Z" fill="#FAF9F8"/>
<path fill-rule="evenodd" clip-rule="evenodd" d="M48.3888 36.7577C49.1096 31.9521 51.9928 29.6696 55.3568 29.6696C59.6822 29.6696 61.3645 32.6729 61.3645 36.7577H48.3888ZM70.4949 38.9207C70.615 29.1889 65.3287 21.6201 55.2367 21.6201C46.4664 21.6201 38.0568 28.9488 38.2968 40.4824C38.2968 52.3766 46.1063 59.3446 56.4383 59.3446C60.7637 59.3446 65.5693 57.783 69.2934 55.2599L65.6894 48.8926C63.0462 50.4543 60.5231 51.1751 57.8799 51.1751C53.0743 51.1751 49.3496 48.8926 48.3888 43.3656H70.1348C70.2549 42.5248 70.4949 40.8431 70.4949 38.9207Z" fill="#FAF9F8"/>
<path fill-rule="evenodd" clip-rule="evenodd" d="M37.6961 50.935C36.8552 50.935 35.7737 50.2142 35.7737 47.9311V7.20276H18.7132C12.2259 7.20276 9.34208 9.72588 9.34208 17.5353C9.34208 22.701 10.0629 25.5849 10.0629 30.0298C10.0629 32.5529 8.50123 35.1961 3.81567 35.4361V41.6839C8.50123 41.804 10.0629 44.4471 10.0629 46.9702C10.0629 51.4157 9.34208 54.0583 9.34208 59.2246C9.34208 67.034 12.2259 69.5572 18.5932 69.5572H23.2787V64.0302H21.8371C18.8338 64.0302 17.8723 62.8292 17.8723 58.8645C17.8723 54.8997 18.233 51.5358 18.233 47.0903C18.233 41.5639 16.4307 39.4009 12.8261 38.56V38.1999C16.4307 37.3585 18.233 35.1961 18.233 29.6696C18.233 25.3442 17.8723 21.8602 17.8723 17.8955C17.8723 13.9307 18.7132 12.8498 21.8371 12.8498H25.081V47.3304C25.081 54.6591 27.6041 59.4653 34.9329 59.4653C37.2153 59.4653 39.0176 59.1046 40.3392 58.6238L39.1377 50.8149C38.4169 50.935 38.0568 50.935 37.6961 50.935Z" fill="#FAF9F8"/>
</g>
<defs>
<linearGradient id="paint0_linear_0_8696" x1="77.1133" y1="7.35132" x2="77.1133" y2="69.6617" gradientUnits="userSpaceOnUse">
<stop stop-color="#2E4F82"/>
<stop offset="1" stop-color="#182E4D"/>
</linearGradient>
</defs>
</svg>
