<svg width="122" height="98" viewBox="0 0 122 98" fill="none" xmlns="http://www.w3.org/2000/svg">
<path d="M102.849 55.3069C98.8056 55.328 95.2914 56.3018 92.3488 57.7414C91.2692 55.6032 90.1896 53.698 89.999 52.3008C89.7873 50.6707 89.5333 49.6758 89.7873 47.7282C90.0414 45.7806 91.1845 43.0073 91.1634 42.7956C91.1422 42.584 90.9093 41.589 88.5807 41.5678C86.252 41.5466 84.2409 42.0124 84.008 42.6263C83.7752 43.2402 83.3306 44.6374 83.0342 46.0769C82.632 48.1939 78.3769 55.7514 75.9424 59.7101C75.1591 58.1648 74.4817 56.8099 74.3335 55.7303C74.1218 54.1002 73.8678 53.1052 74.1218 51.1576C74.3759 49.21 75.519 46.4368 75.4979 46.2251C75.4767 46.0134 75.2438 45.0185 72.9152 44.9973C70.5865 44.9761 68.5754 45.4418 68.3425 46.0558C68.1097 46.6697 67.8556 48.1092 67.3687 49.5064C66.8818 50.9036 61.2296 63.5207 59.7477 66.7808C58.9856 68.4532 58.3293 69.7869 57.8636 70.6972C57.8636 70.6972 57.8424 70.7607 57.7789 70.8665C57.3767 71.6498 57.1438 72.0732 57.1438 72.0732C57.1438 72.0732 57.1438 72.0732 57.1438 72.0943C56.8263 72.6659 56.4876 73.1952 56.3182 73.1952C56.1912 73.1952 55.9583 71.671 56.3606 69.5963C57.2073 65.2142 59.2184 58.3976 59.1973 58.1648C59.1973 58.0377 59.5783 56.8522 57.8848 56.2383C56.2335 55.6244 55.6408 56.6406 55.4926 56.6406C55.3444 56.6406 55.2386 57.0004 55.2386 57.0004C55.2386 57.0004 57.0803 49.337 51.7244 49.337C48.3796 49.337 43.7646 52.9994 41.4783 56.3018C40.0388 57.0851 36.9692 58.7575 33.6879 60.5569C32.4389 61.2555 31.1476 61.9541 29.9409 62.6104C29.8562 62.5257 29.7716 62.4199 29.6869 62.3352C23.209 55.4127 11.227 50.5225 11.7351 41.2291C11.9256 37.842 13.0899 28.9507 34.7464 18.1542C52.5712 9.36887 66.7548 11.8034 69.2105 17.2016C72.7246 24.9073 61.6106 39.218 43.1931 41.2926C36.1648 42.0759 32.4813 39.3662 31.5498 38.35C30.576 37.2916 30.4278 37.228 30.0679 37.4397C29.4752 37.7573 29.8562 38.7099 30.0679 39.2603C30.6183 40.6999 32.8835 43.2402 36.7152 44.4892C40.1023 45.59 48.3373 46.2039 58.3082 42.3511C69.4645 38.0325 78.1864 26.0293 75.6249 15.9738C73.0634 5.77004 56.1277 2.40408 40.1023 8.09869C30.576 11.4858 20.2452 16.8206 12.8147 23.7642C3.987 32.0203 2.58981 39.1968 3.16139 42.2029C5.21484 52.8724 19.9277 59.816 25.8128 64.9602C25.5165 65.1296 25.2413 65.2777 25.0084 65.4048C22.0658 66.8655 10.8459 72.7294 8.05156 78.9321C4.87612 85.9604 8.55963 90.9988 10.9941 91.6762C18.5517 93.772 26.3209 90.0038 30.4913 83.78C34.6617 77.5561 34.1537 69.4693 32.2272 65.7646C32.2061 65.7223 32.1849 65.68 32.1425 65.6376C32.9047 65.1931 33.6879 64.7273 34.45 64.2828C35.9531 63.3936 37.4349 62.568 38.7051 61.8906C37.9854 63.8594 37.4561 66.2092 37.2021 69.5963C36.8845 73.5762 38.5146 78.7416 40.6527 80.7739C41.6054 81.663 42.7273 81.6842 43.4471 81.6842C45.9451 81.6842 47.0671 79.6096 48.3161 77.1539C49.8403 74.1478 51.2163 70.6548 51.2163 70.6548C51.2163 70.6548 49.5016 80.0965 54.1589 80.0965C55.8525 80.0965 57.5672 77.8948 58.3293 76.7728V76.794C58.3293 76.794 58.3717 76.7305 58.4563 76.5823C58.6257 76.3071 58.7315 76.1377 58.7315 76.1377V76.0954C59.409 74.9099 60.9332 72.2214 63.1983 67.7546C66.1197 61.9965 68.9353 54.7988 68.9353 54.7988C68.9353 54.7988 69.1893 56.5559 70.0573 59.4773C70.5653 61.192 71.6238 63.0761 72.4706 64.8967C71.7932 65.8493 71.3698 66.3786 71.3698 66.3786C71.3698 66.3786 71.3698 66.3786 71.391 66.3997C70.8406 67.1195 70.2478 67.9028 69.5915 68.6649C67.2841 71.4169 64.532 74.5712 64.151 75.4815C63.7064 76.5611 63.8123 77.3444 64.659 77.9795C65.273 78.4452 66.3738 78.5087 67.4958 78.4452C69.5704 78.297 71.0311 77.789 71.7508 77.4714C72.8728 77.0692 74.1853 76.4553 75.4132 75.545C77.6783 73.8726 79.0544 71.4804 78.9273 68.3262C78.8638 66.5903 78.2922 64.8544 77.5937 63.2243C77.8053 62.9279 77.9959 62.6315 78.2076 62.3352C81.7852 57.1063 84.5584 51.3693 84.5584 51.3693C84.5584 51.3693 84.8125 53.1264 85.6804 56.0478C86.1038 57.5297 86.9718 59.1386 87.7339 60.7051C84.3679 63.436 82.2933 66.6114 81.5524 68.686C80.2187 72.5389 81.256 74.2748 83.2248 74.677C84.1139 74.8676 85.3841 74.4442 86.3155 74.0419C87.501 73.6609 88.8982 73.0046 90.2319 72.0308C92.497 70.3584 94.6775 68.0298 94.5505 64.8755C94.487 63.436 94.1059 62.0176 93.5767 60.6416C96.4346 59.4561 100.118 58.7999 104.818 59.3503C114.894 60.5358 116.884 66.8231 116.503 69.4693C116.122 72.1155 114.005 73.555 113.307 73.9996C112.608 74.4442 112.375 74.5924 112.439 74.9099C112.523 75.3756 112.862 75.3545 113.455 75.2698C114.281 75.1216 118.747 73.1317 118.938 68.2626C119.255 62.0388 113.328 55.2434 102.849 55.3069ZM25.1142 81.5148C21.7695 85.156 17.1121 86.532 15.101 85.3677C12.9417 84.1187 13.7885 78.7416 17.8954 74.8887C20.3934 72.5389 23.6112 70.3584 25.7493 69.0248C26.2362 68.7284 26.956 68.305 27.824 67.7757C27.9721 67.6911 28.0568 67.6487 28.0568 67.6487C28.2262 67.5429 28.3955 67.437 28.5649 67.3312C30.0679 72.8353 28.6284 77.6831 25.1142 81.5148ZM49.4593 64.9602C48.2949 67.7969 45.8604 75.0581 44.3786 74.6559C43.1084 74.3172 42.3251 68.8131 44.1245 63.3725C45.0348 60.6416 46.9613 57.3815 48.0832 56.1113C49.9038 54.079 51.9149 53.4016 52.4018 54.2272C53.0158 55.3069 50.179 63.182 49.4593 64.9602ZM69.5492 74.5712C69.0623 74.8252 68.5966 74.9946 68.3849 74.8676C68.2367 74.7829 68.5966 74.4442 68.5966 74.4442C68.5966 74.4442 71.1158 71.7345 72.1107 70.5066C72.6823 69.7869 73.3597 68.9401 74.0795 67.9874V68.2626C74.0795 71.5016 70.9464 73.6821 69.5492 74.5712ZM85.0453 71.0359C84.6855 70.7818 84.749 69.9351 85.9556 67.2888C86.4214 66.2515 87.5222 64.5156 89.4063 62.8432C89.618 63.5207 89.7662 64.1769 89.745 64.7908C89.7238 68.8766 86.8024 70.4008 85.0453 71.0359Z" fill="#CD6799"/>
</svg>
