<svg  viewBox="95 25 150 32" fill="none" xmlns="http://www.w3.org/2000/svg"><path d="M171.356 45.1142V35.4986H167.307V34.2571H176.999V35.4986H172.877V45.1142H171.356Z" fill="black"/><path d="M182.696 43.3796C182.686 43.4611 182.695 43.5437 182.723 43.6211C182.75 43.6986 182.796 43.769 182.855 43.827C182.915 43.8851 182.986 43.9292 183.066 43.9561C183.145 43.9831 183.23 43.9921 183.313 43.9826C183.554 43.9783 183.79 43.9171 184.001 43.8043V44.6005C183.845 44.7589 183.655 44.8823 183.446 44.9618C183.237 45.0414 183.012 45.0753 182.787 45.0612C181.972 45.0612 181.393 44.4582 181.302 43.5388C180.867 44.4412 179.745 45.1143 178.459 45.1143C176.919 45.1143 175.924 44.299 175.924 42.974C175.924 41.5068 177.209 40.9038 179.11 40.5344L181.247 40.1097V39.8082C181.247 38.7465 180.615 38.0926 179.507 38.0926C178.366 38.0926 177.751 38.7465 177.516 39.649L176.176 39.4833C176.485 38.0331 177.661 36.9714 179.527 36.9714C181.519 36.9714 182.696 37.9631 182.696 39.925V43.3796ZM181.247 41.0821L179.473 41.4537C178.223 41.7192 177.426 41.9485 177.426 42.8848C177.426 43.5388 177.879 44.0357 178.786 44.0357C180.179 44.0357 181.247 43.008 181.247 41.4537V41.0821Z" fill="black"/><path d="M186.155 34.2571V45.1142H184.539V34.2571H186.155Z" fill="black"/><path d="M194.737 42.3046C194.353 44.054 193.076 45.1143 191.167 45.1143C188.892 45.1143 187.231 43.56 187.231 41.1574C187.231 38.7209 188.892 36.9714 191.095 36.9714C193.528 36.9714 194.769 38.7209 194.769 40.8223V41.3991H188.678C188.747 42.9004 189.814 43.9586 191.179 43.9586C192.456 43.9586 193.208 43.3415 193.524 42.1583L194.737 42.3046ZM193.286 40.4512C193.234 39.215 192.551 38.0847 191.099 38.0847C189.718 38.0847 188.896 39.1789 188.722 40.4512H193.286Z" fill="black"/><path d="M197.343 45.1143H195.846V37.1892H197.343V38.6044C197.722 37.642 198.788 36.9714 199.96 36.9714C202.016 36.9714 202.846 38.3496 202.846 40.2003V45.1143H201.349V40.3244C201.349 39.0006 200.718 38.1668 199.472 38.1668C198.281 38.1668 197.343 39.1095 197.343 40.5617V45.1143Z" fill="black"/><path d="M204.509 38.4444H203.385V37.6726L203.862 37.5882C204.561 37.4503 204.714 37.1066 204.887 36.3883L205.108 35.3428H205.909V37.4153H208.009V38.4444H205.909V42.9867C205.909 43.6556 206.182 43.9644 206.831 43.9644C207.327 43.9346 207.808 43.7811 208.231 43.5178V44.4768C207.688 44.909 207.011 45.1344 206.319 45.1128C205.262 45.1128 204.509 44.6147 204.509 43.1575V38.4444Z" fill="black"/><path d="M138.716 42.3917C138.303 44.1048 136.935 45.1143 134.904 45.1143C132.457 45.1143 130.693 43.5917 130.693 41.1602C130.693 38.7286 132.475 36.9714 134.85 36.9714C137.435 36.9714 138.77 38.7223 138.77 40.8209V41.5728H132.826C132.851 42.1062 133.091 42.6086 133.494 42.9718C133.897 43.3348 134.43 43.5296 134.979 43.5142C136.041 43.5142 136.67 43.0765 136.976 42.2011L138.716 42.3917ZM136.666 40.2742C136.595 39.3821 136.037 38.5255 134.831 38.5255C133.625 38.5255 133.05 39.3129 132.854 40.2742H136.666Z" fill="black"/><path d="M145.12 34.2571V43.3253H148.999V45.1142H143.076V34.2571H145.12Z" fill="black"/><path d="M149.539 34.2571H151.693V36.2733H149.539V34.2571ZM151.676 37.5156V45.1142H149.579V37.5239L151.676 37.5156Z" fill="black"/><path d="M154.571 42.2714C154.693 43.1981 155.389 43.6719 156.444 43.6719C157.211 43.6719 157.835 43.4098 157.835 42.848C157.835 42.3239 157.488 42.0953 156.723 41.9737L155.505 41.7641C153.871 41.4999 152.967 40.8878 152.967 39.4579C152.967 37.9904 154.202 36.9714 156.149 36.9714C158.27 36.9714 159.54 37.9359 159.688 39.6508L157.966 39.72C157.827 38.8457 157.236 38.4075 156.141 38.4075C155.393 38.4075 154.905 38.7409 154.905 39.265C154.905 39.6843 155.185 39.9318 155.738 40.0177L157.196 40.263C158.814 40.5272 159.769 41.2085 159.769 42.6635C159.769 44.238 158.414 45.1143 156.438 45.1143C154.462 45.1143 152.909 44.238 152.769 42.3469L154.571 42.2714Z" fill="black"/><path d="M160.863 38.8411H159.77V37.6343L160.292 37.5488C161.038 37.4308 161.246 37.0563 161.419 36.3603L161.662 35.3428H162.931V37.4145H165.011V38.8391H162.931V42.545C162.931 43.1901 163.226 43.4791 163.852 43.4791C164.307 43.4518 164.751 43.3304 165.154 43.123V44.4641C164.546 44.9144 163.797 45.1433 163.035 45.1113C161.854 45.1113 160.863 44.6004 160.863 43.0029V38.8411Z" fill="black"/></svg>