<svg  viewBox="95 25 150 32" fill="none" xmlns="http://www.w3.org/2000/svg"><defs>
<clipPath id="clip0_0_2481">
<rect width="100" height="19.7767" fill="white" transform="translate(87 31)"/>
</clipPath>
</defs><g clip-path="url(#clip0_0_2481)">
<path opacity="0.7" d="M161.653 38.0105V50.4605H157.561V40.136L161.653 38.0105Z" fill="#E78376"/>
<path opacity="0.7" d="M106.889 50.7735L116.451 45.7736L115.272 42.72L108.977 45.6559L106.889 50.7735Z" fill="#E78376"/>
<path opacity="0.5" d="M157.561 40.1254L167.935 34.8163L166.182 31.8521L157.561 36.0653V40.1254Z" fill="#EEA69D"/>
<path opacity="0.7" d="M128.344 37.0246V50.4604H124.441V31.3258L128.344 37.0246Z" fill="#E78376"/>
<path opacity="0.5" d="M112.801 36.2818L106.889 50.7735L103.848 48.1557L110.893 31.3258L112.801 36.2818Z" fill="#EEA69D"/>
<path d="M110.893 31.3258H114.924L122.379 50.4604H118.253L110.893 31.3258Z" fill="#DD4E3B"/>
<path d="M128.947 31.3258L137.542 44.3986V50.4604L124.441 31.3258H128.947Z" fill="#DD4E3B"/>
<path d="M148.964 31.3258H144.902V50.4638H148.964V31.3258Z" fill="#DD4E3B"/>
<path d="M157.56 34.8163H151.309V31.3258H165.87L167.935 34.8163H161.652H157.56Z" fill="#DD4E3B"/>
<path opacity="0.5" d="M179.928 43.1997V50.4605H175.896V43.1997" fill="#EEA69D"/>
<path d="M175.896 43.1995L182.718 31.3258H187L179.928 43.1995H175.896Z" fill="#DD4E3B"/>
<path opacity="0.7" d="M175.896 43.1995L168.885 31.3258H173.296L178.045 39.4626L175.896 43.1995Z" fill="#E78376"/>
<path d="M88.7173 33.5341C88.7173 36.1986 90.3921 37.784 93.7451 38.62L97.2982 39.4293C100.471 40.1454 102.404 41.9239 102.404 44.8216C102.429 46.084 102.011 47.3164 101.221 48.3121C101.221 45.4212 99.6985 43.859 96.0268 42.9198L92.5381 42.1405C89.7445 41.5143 87.5883 40.0522 87.5883 36.9047C87.5736 35.6892 87.9708 34.5035 88.7173 33.5341Z" fill="#DD4E3B"/>
<path opacity="0.7" d="M137.541 43.4161V31.3258H141.443V50.4604H137.541V43.4161Z" fill="#E78376"/>
<path opacity="0.7" d="M99.0378 44.1122C100.553 45.0647 101.218 46.397 101.218 48.3088C99.9633 49.8875 97.7596 50.7735 95.1694 50.7735C90.8094 50.7735 87.7581 48.6652 87.0801 45.0014H91.2671C91.8062 46.6835 93.2335 47.4628 95.1389 47.4628C97.4647 47.4628 99.0106 46.2437 99.0411 44.1055" fill="#E78376"/>
<path opacity="0.7" d="M90.8935 37.4842C90.2014 37.0801 89.6337 36.4995 89.2505 35.8041C88.8672 35.1086 88.6829 34.3241 88.7169 33.534C89.9272 31.9686 92.0326 31.0127 94.5991 31.0127C99.0404 31.0127 101.61 33.3175 102.244 36.5616H98.2166C97.7724 35.2826 96.6604 34.2867 94.633 34.2867C92.4666 34.2867 90.9884 35.5257 90.9036 37.4842" fill="#E78376"/>
</g></svg>