<svg  viewBox="20 16 50 50" fill="none" xmlns="http://www.w3.org/2000/svg"><defs>
<clipPath id="clip0_0_2481">
<rect width="100" height="19.7767" fill="white" transform="translate(87 31)"/>
</clipPath>
</defs><path d="M24.3416 22.4067C24.3416 29.1433 28.576 33.1515 37.0531 35.2651L46.0361 37.3113C54.0589 39.1216 58.9448 43.6182 58.9448 50.9443C59.0072 54.1359 57.9509 57.2516 55.9533 59.769C55.9533 52.46 52.1048 48.5106 42.8218 46.1361L34.0017 44.1657C26.9388 42.5825 21.4873 38.886 21.4873 30.9284C21.4502 27.8555 22.4543 24.8576 24.3416 22.4067Z" fill="#DD4E3B"/><path opacity="0.7" d="M50.4329 49.1506C54.2642 51.5588 55.9442 54.9271 55.9442 59.7605C52.7729 63.7521 47.2014 65.992 40.6528 65.992C29.6298 65.992 21.9155 60.6617 20.2012 51.3989H30.787C32.1498 55.6514 35.7584 57.6218 40.5756 57.6218C46.4558 57.6218 50.3642 54.5397 50.4414 49.1337" fill="#E78376"/><path opacity="0.7" d="M29.845 32.3935C28.0954 31.372 26.66 29.9042 25.6911 28.1459C24.7223 26.3875 24.2561 24.4043 24.3421 22.4067C27.4021 18.449 32.725 16.0322 39.2136 16.0322C50.4423 16.0322 56.9394 21.8593 58.5423 30.061H48.3594C47.2366 26.8275 44.4251 24.3097 39.2994 24.3097C33.8222 24.3097 30.085 27.4422 29.8707 32.3935" fill="#E78376"/></svg>