<svg width="227" height="53" viewBox="0 0 227 53" fill="none" xmlns="http://www.w3.org/2000/svg">
<path d="M166.882 19.8202V47.3424H158.016V15.5103L166.882 19.8202Z" fill="#F37368"/>
<path d="M41.4014 42.2311L48.051 48.0188L76.0657 33.4265L73.1719 26.469L41.4014 42.2311ZM158.017 24.4987L180.551 12.8002L176.734 6.21216L158.017 15.5094V24.4987Z" fill="#F7A199"/>
<path d="M94.5986 17.6643V47.3414H86.1018V5.04224L94.5986 17.6643ZM41.4014 42.231L48.051 48.0187L60.8577 16.0018L56.7325 5.04224L41.4014 42.231Z" fill="#F37368"/>
<path d="M56.7314 5.04224H65.4745L81.6676 47.3414H72.6783L56.7314 5.04224ZM95.8905 5.04224L114.546 33.919V47.3414L86.1007 5.04224H95.8905ZM130.555 5.04224H139.36V47.3414H130.555V5.04224ZM158.015 12.8002H144.47V5.04224H176.056L180.55 12.8002H166.882H158.015Z" fill="#F04939"/>
<path d="M206.595 31.272V47.342H197.852V31.272" fill="#F7A199"/>
<path d="M212.629 5.04224L197.852 31.2714H206.595L221.926 5.04224H212.629Z" fill="#F04939"/>
<path d="M197.851 31.2714L182.582 5.04224H192.187L202.469 23.0209L197.851 31.2714Z" fill="#F37368"/>
<path d="M8.58539 9.96899C8.58539 15.8182 12.2181 19.3278 19.4834 21.1749L27.1798 22.9604C34.0757 24.5613 38.2625 28.5018 38.2625 34.9052C38.3241 37.6759 37.4005 40.385 35.7381 42.6015C35.7381 36.1982 32.4133 32.7502 24.4707 30.6568L16.8975 28.9328C10.8019 27.5783 6.12256 24.315 6.12256 17.3575C6.12256 14.7099 6.98455 12.0624 8.58539 9.96899Z" fill="#F04939"/>
<path d="M114.547 31.764V5.04224H123.044V47.3414H114.547V31.764Z" fill="#F37368"/>
<path d="M30.9951 33.3038C34.2583 35.3972 35.736 38.3526 35.736 42.601C32.9653 46.1105 28.2244 48.0192 22.6214 48.0192C13.2011 48.0192 6.48986 43.3398 5.07373 35.274H14.1246C15.2945 38.9683 18.373 40.6923 22.5598 40.6923C27.5471 40.7538 30.9335 38.0447 30.9951 33.3038ZM8.58327 9.90685C11.2308 6.45889 15.7871 4.36548 21.3284 4.36548C30.9951 4.36548 36.5364 9.47586 37.9526 16.6181H29.2095C28.2244 13.7858 25.8231 11.5693 21.4516 11.5693C16.7106 11.6308 13.5089 14.34 13.3242 18.6499C10.1515 16.9002 8.46013 13.478 8.58327 9.90685Z" fill="#F37368"/>
</svg>
