<svg width="204" height="59" viewBox="0 0 204 59" fill="none" xmlns="http://www.w3.org/2000/svg">
<path d="M32.314 18.7395H33.1905V25.1247H32.314V18.7395Z" fill="black"/>
<path d="M39.9312 18.7395V25.1247H39.0477L35.3975 20.1792V25.1212H34.521V18.7395H35.4045L39.0618 23.6921V18.7395H39.9312Z" fill="black"/>
<path d="M40.9449 18.7395H45.9327V19.5421H43.87V25.1247H42.9935V19.5421H40.9449V18.7395Z" fill="black"/>
<path d="M46.9358 18.7395H51.3674V19.5315H47.8088V21.5027H50.9908V22.2947H47.8088V24.3292H51.4766V25.1212H46.9358V18.7395Z" fill="black"/>
<path d="M56.6333 25.1247L55.3661 23.1183C55.2183 23.1289 55.1021 23.1359 55.0106 23.1359H53.3879V25.1247H52.5114V18.7395H55.0106C55.8202 18.7395 56.4432 18.9261 56.8832 19.2992C57.3232 19.6723 57.5449 20.2038 57.5449 20.8902C57.5449 21.4077 57.4253 21.8406 57.1859 22.1961C56.9465 22.5481 56.6016 22.8051 56.151 22.9635L57.6364 25.1247H56.6333ZM55.0071 22.3404C55.5562 22.3404 55.975 22.2208 56.2672 21.9814C56.5593 21.7421 56.7037 21.3865 56.7037 20.9184C56.7037 20.4608 56.5558 20.1158 56.2672 19.8835C55.9786 19.6512 55.5562 19.5315 55.0071 19.5315H53.3844V22.3404H55.0071Z" fill="black"/>
<path d="M64.1835 18.7395V25.1247H63.3L59.6498 20.1827V25.1247H58.7734V18.7395H59.6569L63.3141 23.6921V18.7395H64.1835Z" fill="black"/>
<path d="M70.7588 25.1247L70.0829 23.5759H66.7179L66.0526 25.1247H65.1304L67.9675 18.7395H68.8791L71.7056 25.1247H70.7588ZM67.0663 22.7804H69.7485L68.4004 19.6794L67.0663 22.7804Z" fill="black"/>
<path d="M76.1935 18.7395V19.5421H74.1309V25.1247H73.2544V19.5421H71.2023V18.7395H76.1935Z" fill="black"/>
<path d="M77.2002 18.7395H78.0767V25.1247H77.2002V18.7395Z" fill="black"/>
<path d="M84.219 19.1127C84.7329 19.3978 85.1377 19.7885 85.4369 20.2848C85.7361 20.7811 85.8839 21.3267 85.8839 21.9216C85.8839 22.5164 85.7361 23.0655 85.4369 23.5689C85.1377 24.0722 84.7329 24.4665 84.219 24.7551C83.7051 25.0437 83.1419 25.1881 82.5259 25.1881C81.9099 25.1881 81.3467 25.0437 80.8328 24.7551C80.3189 24.4665 79.9141 24.0722 79.6149 23.5689C79.3157 23.0691 79.1679 22.52 79.1679 21.9216C79.1679 21.3267 79.3157 20.7811 79.6149 20.2848C79.9141 19.7885 80.3154 19.3978 80.8293 19.1127C81.3432 18.8275 81.9064 18.6832 82.5259 18.6832C83.1384 18.6832 83.7051 18.8275 84.219 19.1127ZM81.2974 19.7955C80.9173 20.0138 80.6146 20.3094 80.3893 20.6861C80.164 21.0592 80.0514 21.471 80.0514 21.9216C80.0514 22.3721 80.164 22.7839 80.3893 23.1606C80.6146 23.5372 80.9173 23.8364 81.2974 24.0582C81.6776 24.2799 82.0894 24.3926 82.5329 24.3926C82.9764 24.3926 83.3848 24.2834 83.7579 24.0582C84.131 23.8364 84.4302 23.5372 84.6519 23.1606C84.8737 22.7839 84.9863 22.3686 84.9863 21.9216C84.9863 21.471 84.8772 21.0592 84.6519 20.6861C84.4302 20.313 84.131 20.0173 83.7579 19.7955C83.3848 19.5738 82.9764 19.4682 82.5329 19.4682C82.0894 19.4682 81.6776 19.5773 81.2974 19.7955Z" fill="black"/>
<path d="M92.3852 18.7395V25.1247H91.5017L87.8516 20.1827V25.1247H86.9751V18.7395H87.8586L91.5158 23.6921V18.7395H92.3852Z" fill="black"/>
<path d="M98.9077 25.1247L98.2318 23.5759H94.8668L94.2015 25.1247H93.2793L96.1164 18.7395H97.028L99.8545 25.1247H98.9077ZM95.2117 22.7804H97.8939L96.5458 19.6794L95.2117 22.7804Z" fill="black"/>
<path d="M100.622 18.7395H101.498V24.3292H104.29V25.1212H100.622V18.7395Z" fill="black"/>
<path d="M34.6372 28.5883L37.4567 34.2871L40.2656 28.5883H43.0322V38.3315H40.7795L40.7654 32.1611L38.2768 37.3565H36.6365L34.1338 32.1611V38.3315H31.867V28.5883H34.6372Z" fill="black"/>
<path d="M53.5498 28.5883L50.0334 35.2164V38.328H47.4885V35.2832L43.9052 28.5848H46.4466L48.7521 32.7665L51.0049 28.5848H53.5498V28.5883Z" fill="black"/>
<path d="M54.4263 28.5883H62.1103V30.6158H56.9677V32.4356H61.6104V34.449L56.9677 34.4631V36.297H62.2476V38.3245H54.4263V28.5883Z" fill="black"/>
<path d="M63.6379 28.5883H66.1828V36.1632H70.3117V38.3315H63.6414V28.5883H63.6379Z" fill="black"/>
<path d="M78.7912 29.0882C79.5938 29.5246 80.2239 30.1195 80.6814 30.8798C81.139 31.6401 81.3678 32.4919 81.3678 33.4353C81.3678 34.3892 81.139 35.2516 80.6814 36.0189C80.2239 36.7862 79.5938 37.3952 78.7912 37.8387C77.9887 38.2822 77.0946 38.5075 76.102 38.5075C75.1094 38.5075 74.2153 38.2857 73.4128 37.8457C72.6102 37.4058 71.9802 36.8003 71.5226 36.0259C71.065 35.2516 70.8362 34.3892 70.8362 33.4353C70.8362 32.4919 71.065 31.6401 71.5226 30.8798C71.9802 30.1195 72.6102 29.5246 73.4128 29.0882C74.2153 28.6517 75.1094 28.4334 76.102 28.4334C77.0946 28.437 77.9922 28.6517 78.7912 29.0882ZM74.7891 30.9643C74.3772 31.2142 74.0499 31.5591 73.8105 31.9991C73.5677 32.4391 73.448 32.9214 73.448 33.4493C73.448 33.9879 73.5712 34.4772 73.8141 34.9172C74.0604 35.3572 74.3878 35.7056 74.7926 35.9591C75.2009 36.216 75.6444 36.3427 76.1267 36.3427C76.6089 36.3427 77.0489 36.216 77.4537 35.9591C77.8549 35.7056 78.1753 35.3572 78.404 34.9172C78.6364 34.4772 78.7525 33.9879 78.7525 33.4493C78.7525 32.9214 78.6364 32.4356 78.404 31.9991C78.1717 31.5591 77.8549 31.2142 77.4537 30.9643C77.0524 30.7144 76.6089 30.5876 76.1267 30.5876C75.6479 30.5876 75.2044 30.7144 74.7891 30.9643Z" fill="black"/>
<path d="M85.4017 28.5883L88.2211 34.2871L91.0301 28.5883H93.7967V38.3315H91.544L91.5264 32.1611L89.0378 37.3565H87.3975L84.8948 32.1611V38.3315H82.628V28.5883H85.4017Z" fill="black"/>
<path d="M102.839 38.328L102.171 36.6032H97.9608L97.2814 38.328H94.6697L98.8513 28.5848H101.463L105.55 38.328H102.839ZM98.7246 34.6602H101.421L100.087 31.186L98.7246 34.6602Z" fill="black"/>
<path d="M108.397 28.5461H114.733L114.719 29.7569H109.731V32.953H114.219V34.1639H109.731V38.2787H108.397V28.5461Z" fill="black"/>
<path d="M123.121 29.1163C123.903 29.5528 124.522 30.1477 124.976 30.9009C125.43 31.6577 125.656 32.4884 125.656 33.393C125.656 34.3012 125.427 35.1389 124.976 35.9027C124.522 36.6666 123.903 37.2685 123.121 37.7085C122.34 38.1485 121.477 38.3667 120.545 38.3667C119.608 38.3667 118.75 38.1485 117.968 37.7085C117.183 37.2685 116.567 36.6666 116.113 35.9027C115.659 35.1389 115.434 34.3012 115.434 33.393C115.434 32.4849 115.659 31.6542 116.113 30.9009C116.567 30.1441 117.183 29.5493 117.961 29.1163C118.739 28.6798 119.601 28.4616 120.545 28.4616C121.477 28.4616 122.336 28.6798 123.121 29.1163ZM118.672 30.1582C118.095 30.4926 117.63 30.9432 117.289 31.5134C116.947 32.0836 116.775 32.7102 116.775 33.3966C116.775 34.0829 116.947 34.713 117.289 35.2868C117.63 35.8605 118.091 36.3181 118.672 36.656C119.249 36.9939 119.879 37.1629 120.555 37.1629C121.231 37.1629 121.854 36.9939 122.424 36.656C122.995 36.3181 123.449 35.8605 123.787 35.2868C124.124 34.713 124.293 34.0829 124.293 33.3966C124.293 32.7102 124.124 32.0836 123.787 31.5134C123.449 30.9432 122.995 30.4926 122.424 30.1582C121.854 29.8238 121.231 29.6584 120.555 29.6584C119.879 29.6584 119.253 29.8238 118.672 30.1582Z" fill="black"/>
<path d="M129.25 36.4061C129.746 36.9094 130.429 37.1629 131.298 37.1629C132.16 37.1629 132.836 36.9094 133.326 36.4061C133.815 35.9027 134.061 35.1988 134.061 34.3012V28.5461H135.395V34.2977C135.395 35.5683 135.033 36.5645 134.304 37.2861C133.575 38.0077 132.576 38.3702 131.295 38.3702C130.006 38.3702 128.996 38.0077 128.264 37.2861C127.532 36.5645 127.166 35.5683 127.166 34.2977V28.5461H128.5V34.2977C128.507 35.1988 128.757 35.8992 129.25 36.4061Z" fill="black"/>
<path d="M143.977 28.5461H145.297V38.2752H143.949L138.391 30.7425V38.2752H137.057V28.5461H138.405L143.977 36.0928V28.5461Z" fill="black"/>
<path d="M153.614 29.1797C154.378 29.6021 154.98 30.1828 155.413 30.9256C155.85 31.6683 156.068 32.4954 156.068 33.4141C156.068 34.3293 155.846 35.16 155.406 35.9027C154.966 36.6454 154.361 37.2262 153.593 37.6486C152.826 38.071 151.964 38.2822 151.01 38.2822H147.092V28.5461H151.052C151.995 28.5461 152.851 28.7573 153.614 29.1797ZM152.921 36.5926C153.474 36.2794 153.907 35.8429 154.227 35.2868C154.547 34.7306 154.706 34.1111 154.706 33.4247C154.706 32.7313 154.544 32.1047 154.22 31.5486C153.896 30.9924 153.453 30.556 152.893 30.2356C152.333 29.9153 151.71 29.7569 151.024 29.7569H148.426V37.0643H151.08C151.756 37.0643 152.368 36.9059 152.921 36.5926Z" fill="black"/>
<path d="M164.544 38.2752L163.516 35.9133H158.387L157.374 38.2752H155.969L160.292 28.5461H161.682L165.991 38.2752H164.544ZM158.915 34.7024H163.002L160.946 29.9787L158.915 34.7024Z" fill="black"/>
<path d="M164.727 28.5461H172.33V29.771H169.19V38.2752H167.856V29.771H164.73V28.5461H164.727Z" fill="black"/>
<path d="M173.608 28.5461H174.942V38.2752H173.608V28.5461Z" fill="black"/>
<path d="M184.051 29.1163C184.833 29.5528 185.452 30.1477 185.906 30.9009C186.36 31.6577 186.586 32.4884 186.586 33.393C186.586 34.3012 186.357 35.1389 185.906 35.9027C185.452 36.6666 184.833 37.2685 184.051 37.7085C183.27 38.1485 182.408 38.3667 181.475 38.3667C180.538 38.3667 179.68 38.1485 178.898 37.7085C178.113 37.2685 177.497 36.6666 177.043 35.9027C176.589 35.1389 176.364 34.3012 176.364 33.393C176.364 32.4849 176.589 31.6542 177.043 30.9009C177.497 30.1441 178.113 29.5493 178.891 29.1163C179.669 28.6798 180.531 28.4616 181.475 28.4616C182.408 28.4616 183.266 28.6798 184.051 29.1163ZM179.606 30.1582C179.028 30.4926 178.564 30.9432 178.222 31.5134C177.881 32.0836 177.708 32.7102 177.708 33.3966C177.708 34.0829 177.881 34.713 178.222 35.2868C178.564 35.8605 179.025 36.3181 179.606 36.656C180.183 36.9939 180.813 37.1629 181.489 37.1629C182.165 37.1629 182.788 36.9939 183.358 36.656C183.928 36.3181 184.382 35.8605 184.72 35.2868C185.058 34.713 185.227 34.0829 185.227 33.3966C185.227 32.7102 185.058 32.0836 184.72 31.5134C184.382 30.9432 183.928 30.4926 183.358 30.1582C182.788 29.8238 182.165 29.6584 181.489 29.6584C180.809 29.6584 180.183 29.8238 179.606 30.1582Z" fill="black"/>
<path d="M194.924 28.5461H196.244V38.2752H194.896L189.338 30.7425V38.2752H188.004V28.5461H189.352L194.924 36.0928V28.5461Z" fill="black"/>
<path d="M14.8099 21.3445C13.4512 21.3445 12.3424 20.2322 12.3424 18.877C12.3424 17.5183 13.4547 16.4095 14.8099 16.4095C16.1686 16.4095 17.2773 17.5218 17.2773 18.877C17.2773 20.2322 16.1686 21.3445 14.8099 21.3445Z" fill="black"/>
<path d="M16.9922 26.9412C17.0098 26.9588 17.0943 27.0468 17.2034 27.1559C17.3125 27.265 17.4533 27.4093 17.6047 27.5642C17.6821 27.6416 17.7596 27.7226 17.8405 27.8C17.9144 27.7261 18.0447 27.5924 18.1045 27.5325C18.7663 26.8637 19.4351 26.1914 20.0968 25.498C21.4625 24.0689 22.7684 22.5905 23.8103 21.0312C25.7252 18.1765 26.4855 15.4416 26.1335 12.6784C25.7181 9.39079 23.9019 6.60652 21.3569 4.85712C22.6171 6.10669 23.5111 7.72586 23.842 9.56679L23.93 10.1652C24.0426 11.2176 23.9406 12.2243 23.6731 13.1994L23.3774 14.0969C23.0148 15.0403 22.5044 15.9519 21.8955 16.8319L20.9803 18.0287L20.9381 18.0885C20.8642 18.1906 20.8184 18.2505 20.7269 18.3596L20.6952 18.4018H20.6917C20.1109 19.0988 19.4843 19.7852 18.8296 20.461L17.4005 21.8936L17.3407 21.957C17.0239 22.2667 16.7036 22.58 16.3868 22.8897C16.3094 22.9672 15.3414 23.9528 14.9225 24.3716C14.8556 24.4385 14.7923 24.5054 14.7289 24.5687C15.4787 25.3396 16.2038 26.1738 16.9922 26.9412Z" fill="black"/>
<path d="M18.1967 35.3855C18.0031 35.1954 17.806 35.0018 17.6019 34.8047C16.8768 34.0726 16.1798 33.3651 15.5181 32.6822C15.0675 32.2246 14.617 31.767 14.1699 31.3024C12.9415 30.0176 11.7623 28.6941 10.7662 27.3108C10.1994 26.554 9.74186 25.857 9.41098 25.2235C8.74572 23.812 8.6718 23.6078 8.36908 22.7313C8.19309 22.1435 7.96429 21.0981 7.92557 20.4188C7.85517 19.6584 7.86925 18.8981 7.96429 18.1343C7.97133 18.0639 7.97133 18.0674 7.99949 17.909C8.00301 17.8879 8.02413 17.7577 8.04877 17.5958C8.25644 16.4095 8.64364 15.2937 9.17515 14.2694C9.73834 13.0832 10.5268 12.0202 11.8644 10.8762C11.8996 10.8445 11.9383 10.8129 11.9735 10.7812C12.248 10.5524 12.5543 10.3201 12.8746 10.0842C12.2727 10.6826 11.7447 11.376 11.3258 12.1258L11.2378 12.2877C10.6606 13.393 10.1607 14.8854 10.21 16.6982C10.2593 17.5078 10.3719 18.1801 10.5268 18.7609C10.6817 19.2994 10.8823 19.8274 11.1287 20.3484C11.3927 20.8799 11.6849 21.3586 11.977 21.869C12.0193 21.9358 12.065 22.0062 12.1073 22.0731C13.2547 23.643 13.5047 24.1323 17.0281 27.6522C19.9532 30.5773 22.0194 32.6259 23.4274 34.3084C24.1243 35.125 24.7755 35.9557 25.3528 36.8146C26.6094 38.6907 27.3802 40.5141 27.6794 42.3268C27.6935 42.4007 27.7041 42.4782 27.7146 42.5521C27.8519 43.499 27.8625 44.4458 27.7393 45.3927C27.7006 45.6989 27.6478 45.9981 27.5844 46.2938C27.3662 47.4131 27.0142 48.4022 26.6094 49.0992C26.2187 49.8771 25.747 50.5987 25.2014 51.2569C24.6312 51.9996 23.9377 52.7212 23.1035 53.2351C23.0155 53.2985 22.9275 53.3653 22.8395 53.4287C22.8395 53.4287 27.514 49.1449 24.4446 43.0132C24.4165 42.9604 24.3848 42.9041 24.3566 42.8478C22.9064 40.5176 21.3752 38.5253 18.2707 35.4559L18.1967 35.3855Z" fill="#941E2F"/>
<path d="M14.1972 31.3942L14.2289 31.3555C14.2113 31.3343 14.1902 31.3168 14.1726 31.2992C13.1694 30.2502 12.2085 29.1766 11.3461 28.0643L11.3144 28.0995C10.9342 28.5853 10.5647 29.0746 10.2267 29.5779C8.26262 32.51 7.48119 35.3189 7.84022 38.1595C8.26966 41.5422 10.1282 44.3968 12.7365 46.1955C11.3426 44.8051 10.3851 42.9783 10.1211 40.898C9.79731 38.3355 10.7301 36.0053 12.2331 33.8476C12.8104 33.0098 14.1972 31.3942 14.1972 31.3942Z" fill="#898B8D"/>
<path d="M24.8837 44.0131H15.9818C16.3373 44.8403 17.1328 45.1008 17.6292 45.231C17.9248 45.3155 18.5232 45.2979 18.5232 45.2979H25.2745C25.1794 44.8826 25.0492 44.4531 24.8837 44.0131Z" fill="#898B8D"/>
<path d="M22.3635 39.9758H12.6133C12.9688 40.803 13.7643 41.0634 14.2606 41.1937C14.5563 41.2782 15.1546 41.2606 15.1546 41.2606H23.3103C23.0147 40.8346 22.7014 40.4087 22.3635 39.9758Z" fill="#898B8D"/>
<path d="M18.9914 36.1813H12.9969C13.3524 37.0085 14.1479 37.269 14.6443 37.3992C14.9399 37.4837 15.5383 37.4661 15.5383 37.4661H20.2198C19.8432 37.0578 19.4349 36.6318 18.9914 36.1813Z" fill="#898B8D"/>
</svg>
