<svg width="229" height="52" viewBox="0 0 229 52" fill="none" xmlns="http://www.w3.org/2000/svg">
<path d="M49.1148 33.1262L46.7881 35.5264H56.0939L65.3997 43.927H16.545L25.8508 35.5264H32.8288L30.5032 33.1262H23.5241L7.23914 47.5284H74.7034L58.4206 33.1262H49.1148Z" fill="#172535"/>
<path d="M69.809 10.1398L64.0225 4.3208L39.7182 28.7655L30.4599 19.4532L24.6733 25.2732L39.7182 40.4045L69.809 10.1398ZM101.235 16.4978H80.9047V20.9806H88.5373V42.2225H93.6391V20.9806H101.234V16.4978H101.235ZM113.888 27.0653C113.524 26.1677 112.952 25.3695 112.219 24.7364C111.525 24.1593 110.716 23.7366 109.846 23.4963C108.953 23.2456 108.03 23.1191 107.103 23.1204C104.283 23.1204 102.096 23.9467 100.538 25.6005C98.9806 27.2532 98.2018 29.7333 98.2018 33.0409C98.2018 36.1226 98.8942 38.5466 100.279 40.3127C101.663 42.0788 103.851 42.9613 106.842 42.9613C108.22 42.9699 109.591 42.7607 110.904 42.3413C111.995 42.0211 113.018 41.5054 113.925 40.8193L112.336 37.6252C111.008 38.5654 109.418 39.0649 107.791 39.0532C106.165 39.0532 104.989 38.6535 104.262 37.8509C103.458 36.8368 103.034 35.5744 103.06 34.2809H114.149C114.272 33.6296 114.365 33.003 114.425 32.4014C114.485 31.8397 114.516 31.2758 114.518 30.7109C114.556 29.4657 114.341 28.2257 113.888 27.0653ZM110.032 31.2369H103.171C103.23 30.1327 103.607 29.0692 104.257 28.1746C104.605 27.7749 105.037 27.4638 105.521 27.2651C106.003 27.0663 106.525 26.9853 107.043 27.0274C107.497 26.9907 107.95 27.0707 108.366 27.2618C108.782 27.452 109.144 27.7458 109.422 28.1184C109.972 29.059 110.186 30.1586 110.03 31.2369H110.032ZM128.239 32.4208C127.608 31.9769 126.923 31.6171 126.199 31.3504C125.457 31.0738 124.778 30.8178 124.159 30.5791C123.614 30.3781 123.092 30.1199 122.602 29.8089C122.411 29.7009 122.252 29.5434 122.142 29.3531C122.031 29.1603 121.972 28.9417 121.971 28.719C121.971 27.5924 122.689 27.0285 124.122 27.0285C125.012 27.0285 125.898 27.1549 126.755 27.4044C127.62 27.655 128.337 27.8927 128.906 28.1174L129.981 24.5851C129.139 24.1321 128.241 23.7911 127.311 23.5708C126.063 23.2569 124.779 23.1056 123.492 23.1204C121.795 23.0036 120.115 23.5261 118.783 24.5851C118.219 25.1279 117.782 25.7881 117.503 26.5187C117.22 27.2557 117.1 28.0448 117.15 28.8324C117.111 29.7929 117.329 30.7464 117.781 31.5945C118.177 32.2814 118.707 32.8819 119.339 33.3606C119.959 33.8257 120.647 34.1933 121.378 34.4505C122.119 34.713 122.8 34.969 123.418 35.2207C123.965 35.4335 124.488 35.7111 124.975 36.047C125.171 36.1756 125.332 36.3527 125.443 36.5634C125.553 36.774 125.609 37.0105 125.605 37.2493C125.629 37.5193 125.581 37.7926 125.467 38.0378C125.352 38.2819 125.176 38.4904 124.957 38.6406C124.433 38.9391 123.834 39.0823 123.232 39.0532C122.249 39.0544 121.272 38.8957 120.34 38.5833C119.557 38.3378 118.8 38.0169 118.078 37.6252L116.743 41.2708C117.621 41.7915 118.562 42.189 119.543 42.4547C120.743 42.8004 121.985 42.971 123.232 42.9624C125.63 42.9624 127.428 42.4169 128.627 41.327C129.234 40.7579 129.708 40.0624 130.017 39.2897C130.328 38.511 130.467 37.6743 130.426 36.8366C130.465 35.8942 130.246 34.959 129.795 34.1308C129.401 33.4586 128.871 32.8762 128.239 32.4208ZM142.384 38.4904C141.966 38.5984 141.536 38.6481 141.105 38.6406C140.805 38.6708 140.504 38.6058 140.244 38.4548C139.98 38.3018 139.769 38.0714 139.64 37.7948C139.327 36.8962 139.195 35.9447 139.251 34.9949V27.7793H143.775V23.6465H139.251V18.723L134.43 20.1132V23.6454H131.871V27.7803H134.43V37.2493C134.43 39.2789 134.832 40.7383 135.636 41.6273C136.135 42.1056 136.729 42.4726 137.38 42.7042C138.028 42.9343 138.716 43.0218 139.399 42.9613C140.311 42.9613 141.22 42.8479 142.106 42.6232C142.91 42.4288 143.692 42.1522 144.442 41.7969L143.589 38.0389C143.199 38.2195 142.796 38.3705 142.384 38.4904Z" fill="#1274CC"/>
<path d="M156.636 20.9826C155.634 21.9036 154.804 22.9954 154.185 24.207C153.407 25.7465 152.873 27.3971 152.6 29.1003C152.294 30.6025 152.241 32.1454 152.444 33.6651C152.6 34.8343 153.027 35.9511 153.689 36.9273C154.293 37.7833 155.118 38.4596 156.076 38.8846C157.12 39.3342 158.247 39.5566 159.384 39.537C160.382 39.5489 161.378 39.4398 162.349 39.2108C163.128 39.025 163.881 38.7453 164.591 38.3769L164.907 40.7328C163.988 41.319 162.96 41.7132 161.884 41.8919C160.668 42.113 159.434 42.2222 158.198 42.2181C156.75 42.2386 155.313 41.9739 153.969 41.4393C152.733 40.9415 151.653 40.1217 150.842 39.065C149.963 37.8615 149.389 36.4625 149.171 34.9884C148.882 33.0308 148.94 31.0377 149.342 29.1003C149.681 26.9852 150.381 24.9442 151.411 23.0663C152.268 21.5262 153.393 20.1515 154.734 19.007C155.922 17.9989 157.286 17.2189 158.757 16.7062C160.109 16.2347 161.529 15.9898 162.96 15.9814C164.16 15.9616 165.36 16.0403 166.546 16.2168C167.332 16.3393 168.102 16.5521 168.839 16.8509L167.616 19.533C166.068 18.8619 164.384 18.5641 162.7 18.6635C161.645 18.6709 160.598 18.8545 159.603 19.2068C158.506 19.5955 157.497 20.1992 156.636 20.9826Z" fill="#172535"/>
<path fill-rule="evenodd" clip-rule="evenodd" d="M181.549 23.8819C182.187 24.1518 182.725 24.614 183.087 25.204C183.398 25.7515 183.567 26.3689 183.579 26.9982C183.597 27.6537 183.547 28.3093 183.43 28.9544C183.169 30.404 182.877 31.818 182.555 33.1953C182.233 34.5714 181.961 35.8774 181.739 37.1088C181.577 38.0032 181.462 38.8479 181.393 39.6451C181.323 40.3806 181.326 41.1213 181.402 41.8562H179.218L178.897 39.3188H178.712C178.405 39.6807 178.067 40.0134 177.699 40.3159C177.282 40.6583 176.826 40.9499 176.339 41.1854C175.782 41.4551 175.198 41.6675 174.597 41.8195C173.892 41.9952 173.168 42.0805 172.441 42.0733C171.712 42.0835 170.987 41.9605 170.302 41.7104C169.704 41.4943 169.166 41.14 168.731 40.6777C168.31 40.2197 168.01 39.6656 167.855 39.0661C167.682 38.3651 167.668 37.6344 167.814 36.9273C167.965 35.9568 168.36 35.0404 168.961 34.2636C169.548 33.5391 170.292 32.9567 171.136 32.5601C172.104 32.1107 173.131 31.8061 174.188 31.6549C175.435 31.4668 176.696 31.3758 177.958 31.3827H178.976C179.312 31.3829 179.648 31.4071 179.981 31.4551C180.167 30.8108 180.321 30.158 180.444 29.4988C180.684 28.1702 180.579 27.2391 180.132 26.7076C179.685 26.1762 178.746 25.9105 177.315 25.9105C176.857 25.9137 176.4 25.9439 175.946 26.0044C175.433 26.0695 174.923 26.1564 174.418 26.2648C173.905 26.3728 173.398 26.511 172.9 26.6752C172.453 26.82 172.019 27.0015 171.6 27.2153L171.072 25.0042C172.172 24.4274 173.351 24.0126 174.571 23.7728C175.88 23.5057 177.213 23.3722 178.548 23.3742C179.573 23.3273 180.597 23.5004 181.549 23.8819ZM178.291 37.6521C178.579 37.3564 178.83 37.0279 179.041 36.6735L179.582 33.6662C178.884 33.6184 178.185 33.5942 177.486 33.5938C176.729 33.5933 175.973 33.6355 175.221 33.7202C174.535 33.7917 173.859 33.95 173.212 34.1912C172.652 34.3986 172.14 34.7194 171.71 35.1331C171.301 35.5405 171.031 36.0667 170.939 36.6367C170.85 37.0026 170.854 37.3849 170.95 37.7489C171.046 38.1129 171.232 38.4472 171.489 38.7215C171.783 39.0045 172.132 39.2233 172.515 39.3637C172.898 39.5041 173.306 39.5632 173.712 39.537C174.356 39.5438 174.996 39.452 175.611 39.2648C176.149 39.1009 176.664 38.8694 177.143 38.5757C177.563 38.3186 177.95 38.0086 178.291 37.6521Z" fill="#172535"/>
<path d="M192.939 23.156L192.847 23.6637H197.771L197.315 26.201H192.39L189.583 41.7828H186.621L189.428 26.201H186.54L186.998 23.6647H189.885L190.068 22.6494C190.234 21.6581 190.502 20.6866 190.867 19.7501C191.153 19.0026 191.585 18.3191 192.136 17.7388C192.653 17.2178 193.282 16.8214 193.975 16.5798C194.797 16.3088 195.659 16.1799 196.524 16.1985C197.215 16.1914 197.906 16.2398 198.589 16.3432C199.212 16.451 199.82 16.6338 200.399 16.8876L199.295 19.3159C198.812 19.0869 198.298 18.9281 197.768 18.8439C197.303 18.7737 196.833 18.7376 196.363 18.7358C195.831 18.7141 195.3 18.813 194.812 19.0253C194.425 19.2131 194.102 19.5092 193.881 19.8776C193.631 20.3068 193.448 20.7711 193.336 21.2548C193.201 21.7971 193.068 22.4323 192.939 23.156Z" fill="#172535"/>
<path fill-rule="evenodd" clip-rule="evenodd" d="M212.165 24.5332C212.783 25.1136 213.214 25.8644 213.405 26.6904C213.659 27.9041 213.648 29.1583 213.373 30.3673C213.202 31.265 212.969 32.1496 212.674 33.0138H200.788C200.605 33.9437 200.546 34.894 200.612 35.8396C200.66 36.5781 200.887 37.2939 201.275 37.9243C201.663 38.5102 202.22 38.9647 202.872 39.2281C203.725 39.5582 204.635 39.7125 205.549 39.6818C206.432 39.6747 207.308 39.5282 208.145 39.2475C208.888 39.0314 209.589 38.6879 210.215 38.2322L210.948 40.3342C210.014 40.9541 208.987 41.4188 207.905 41.7104C206.713 42.0497 205.48 42.2206 204.241 42.2181C203.024 42.2555 201.814 42.0265 200.696 41.5473C199.785 41.1406 199.016 40.472 198.487 39.6267C197.945 38.7161 197.623 37.6932 197.545 36.6378C197.44 35.3289 197.515 34.0117 197.768 32.7232C198.326 29.6317 199.453 27.2758 201.151 25.6577C202.018 24.8473 203.035 24.2156 204.146 23.7989C205.256 23.3823 206.438 23.1887 207.624 23.2294C208.454 23.2282 209.282 23.3192 210.092 23.5006C210.86 23.6623 211.573 24.0178 212.165 24.5332ZM201.238 30.7303H210.419C210.75 28.895 210.624 27.6085 210.041 26.8707C209.686 26.4791 209.245 26.1754 208.753 25.9837C208.26 25.7919 207.73 25.7173 207.204 25.7657C205.88 25.7248 204.58 26.1195 203.503 26.8891C202.341 27.8811 201.543 29.2331 201.238 30.7303Z" fill="#172535"/>
<path d="M213.091 15.6908L212.955 16.4523L208.379 21.0917H206.639L209.796 15.6908H213.091Z" fill="#172535"/>
<path fill-rule="evenodd" clip-rule="evenodd" d="M219.264 25.1144L219.541 25.2505L220.271 26.3026H219.669L218.958 25.298L218.484 25.1532V26.3036H217.971V23.8009C218.116 23.7618 218.265 23.7376 218.415 23.7285C218.606 23.7123 218.787 23.7036 218.958 23.7036C219.206 23.6969 219.451 23.7554 219.669 23.8732C219.768 23.9331 219.849 24.0196 219.901 24.123C219.953 24.2263 219.975 24.3422 219.965 24.4576C219.971 24.5468 219.955 24.636 219.92 24.7182C219.885 24.8004 219.831 24.8731 219.763 24.9307C219.62 25.0432 219.446 25.1075 219.264 25.1144ZM218.484 24.8638H218.82C218.973 24.8718 219.125 24.8411 219.264 24.7763C219.316 24.747 219.359 24.7032 219.387 24.6501C219.415 24.5969 219.427 24.5368 219.422 24.477C219.422 24.2513 219.231 24.139 218.849 24.139C218.78 24.1388 218.711 24.1402 218.642 24.1433C218.587 24.1442 218.534 24.156 218.484 24.1778V24.8638Z" fill="#172535"/>
<path fill-rule="evenodd" clip-rule="evenodd" d="M220.996 23.2047C221.24 23.4363 221.43 23.7179 221.555 24.0301C221.698 24.3916 221.768 24.7778 221.76 25.1665C221.768 25.5564 221.696 25.9431 221.55 26.3028C221.42 26.6193 221.223 26.9023 220.975 27.1335C220.729 27.3592 220.441 27.5321 220.129 27.6444C219.801 27.7622 219.455 27.8216 219.107 27.8194C218.753 27.8226 218.401 27.7632 218.067 27.6444C217.75 27.5346 217.461 27.358 217.218 27.1265C216.975 26.895 216.785 26.6141 216.661 26.3028C216.518 25.942 216.448 25.5553 216.456 25.1665C216.448 24.7774 216.519 24.3908 216.665 24.0301C216.793 23.7183 216.986 23.4374 217.231 23.2061C217.476 22.9747 217.768 22.7983 218.087 22.6885C218.414 22.5707 218.759 22.5114 219.107 22.5135C219.46 22.5111 219.811 22.5703 220.143 22.6885C220.461 22.797 220.752 22.9731 220.996 23.2047ZM220.549 26.723C220.736 26.5429 220.881 26.3243 220.975 26.0825C221.084 25.7901 221.137 25.4796 221.129 25.1675C221.136 24.8564 221.082 24.5486 220.97 24.2602C220.872 24.0171 220.723 23.7989 220.534 23.6196C220.349 23.449 220.13 23.3172 219.894 23.234C219.641 23.1465 219.375 23.1022 219.107 23.1044C218.832 23.1014 218.558 23.1452 218.297 23.234C218.059 23.3158 217.841 23.4472 217.657 23.6196C217.471 23.7989 217.327 24.0171 217.235 24.2613C217.131 24.5508 217.079 24.8575 217.085 25.1665C217.079 25.4762 217.134 25.7841 217.246 26.0727C217.343 26.3155 217.491 26.5341 217.682 26.7133C217.868 26.8854 218.088 27.0167 218.327 27.0989C218.578 27.1864 218.842 27.2296 219.107 27.2296C219.38 27.2318 219.65 27.1897 219.909 27.1043C220.147 27.0255 220.365 26.8958 220.549 26.723Z" fill="#172535"/>
</svg>
