<svg width="109" height="109" viewBox="0 0 109 109" fill="none" xmlns="http://www.w3.org/2000/svg">
<path d="M9.43893 106.162H2.72501V90.7064H9.43893C14.276 90.7064 16.6978 93.1424 16.6978 98.0131C16.6978 103.443 14.276 106.162 9.43893 106.162ZM5.59593 103.675H9.00531C12.2192 103.675 13.8243 101.787 13.8243 98.0105C13.8243 94.7953 12.2192 93.1877 9.00531 93.1877H5.59593V103.675ZM19.7059 106.162H16.7586L23.3328 90.7064H26.4185L33.1363 106.162H30.048L28.0986 101.947H23.1373L24.1236 99.4628H27.3414L24.8057 93.6562L19.7059 106.162ZM31.5132 90.7064H43.2661V93.1916H38.8251V106.162H35.9555V93.1916H31.5119L31.5132 90.7064ZM44.7417 106.162H41.7944L48.3699 90.7064H51.4556L58.1721 106.162H55.0838L53.1344 101.947H48.1731L49.1568 99.4628H52.3746L49.839 93.6562L44.7417 106.162ZM66.7901 106.162H60.0762V90.7064H66.7901C71.6298 90.7064 74.049 93.1424 74.049 98.0131C74.049 103.443 71.6298 106.162 66.7901 106.162ZM62.9458 103.675H66.3578C69.5691 103.675 71.178 101.787 71.178 98.0105C71.178 94.7953 69.5691 93.1877 66.3578 93.1877H62.9458V103.675ZM75.9918 98.4558C75.9918 93.2149 78.587 90.595 83.771 90.595C88.876 90.595 91.4272 93.2149 91.4272 98.4558C91.4272 103.666 88.876 106.274 83.771 106.274C78.8161 106.273 76.2261 103.666 75.9918 98.4558ZM83.771 103.782C86.8892 103.782 88.4489 101.986 88.4489 98.3898C88.4489 94.8497 86.8892 93.0777 83.771 93.0777C80.5713 93.0777 78.9728 94.8497 78.9728 98.3898C78.9741 101.986 80.5726 103.782 83.771 103.782ZM103.404 103.526C102.741 103.699 102.147 103.783 101.628 103.783C98.1166 103.783 96.364 101.929 96.364 98.2176C96.364 94.7914 98.2253 93.0789 101.941 93.0789C103.495 93.0789 104.938 93.3676 106.274 93.9449V91.3497C104.939 90.8462 103.424 90.5925 101.725 90.5925C96.1659 90.5925 93.3843 93.132 93.3843 98.2163C93.3843 103.583 96.118 106.271 101.584 106.271C103.465 106.271 105.027 105.997 106.275 105.448V97.362H101.64L100.67 99.9055H103.404V103.526Z" fill="#632CA6"/>
<path d="M80.403 61.0328L73.5713 56.5258L67.8722 66.0459L61.2437 64.1082L55.4074 73.0161L55.7064 75.8197L87.4406 69.9718L85.5974 50.1432L80.403 61.0328ZM50.8097 52.4848L55.9018 51.7845C56.725 52.1547 57.2984 52.2958 58.2861 52.5469C59.8251 52.9468 61.6048 53.3313 64.2415 52.0033C64.855 51.6991 66.1339 50.5303 66.6503 49.8636L87.5105 46.0802L89.6384 71.8357L53.8994 78.2765L50.8097 52.4848ZM89.5582 43.2041L87.4988 43.5963L83.5432 2.7251L16.1386 10.5405L24.4433 77.9283L32.3338 76.7828C31.7035 75.8832 30.7223 74.7946 29.0474 73.4019C26.724 71.4719 27.5446 68.192 28.9167 66.121C30.7301 62.6223 40.0742 58.1761 39.5448 52.5844C39.3545 50.551 39.0322 47.9053 37.1437 46.0905C37.0725 46.8439 37.2007 47.5674 37.2007 47.5674C37.2007 47.5674 36.4254 46.5785 36.0396 45.2311C35.6565 44.7133 35.3549 44.5489 34.9472 43.8577C34.6559 44.6564 34.6948 45.5831 34.6948 45.5831C34.6948 45.5831 34.0605 44.0856 33.9583 42.821C33.5829 43.3866 33.4884 44.4609 33.4884 44.4609C33.4884 44.4609 32.6652 42.1 32.8529 40.8276C32.4775 39.7209 31.3631 37.5244 31.6776 32.5333C33.7343 33.9739 38.2634 33.6322 40.0276 31.0318C40.6127 30.1697 41.0152 27.8191 39.7351 23.1853C38.9131 20.2147 36.8784 15.7905 36.0849 14.1117L35.9904 14.1803C36.4085 15.5329 37.2706 18.3663 37.6019 19.7422C38.6038 23.9101 38.8717 25.3624 38.4019 27.2846C38.0019 28.9556 37.0428 30.0481 34.6119 31.27C32.1811 32.4957 28.9542 29.5122 28.751 29.3478C26.3888 27.4658 24.5611 24.3968 24.3579 22.9044C24.1456 21.2722 25.2989 20.2924 25.8801 18.9579C25.0478 19.1947 24.121 19.618 24.121 19.618C24.121 19.618 25.2277 18.4725 26.592 17.4823C27.1576 17.1082 27.489 16.87 28.0844 16.3756C27.2223 16.3613 26.5221 16.3859 26.5221 16.3859C26.5221 16.3859 27.9601 15.6093 29.45 15.0437C28.3601 14.9958 27.3155 15.0359 27.3155 15.0359C27.3155 15.0359 30.5243 13.6004 33.0574 12.5481C34.7996 11.8336 36.5017 12.0446 37.4583 13.4283C38.7138 15.2404 40.0328 16.2241 42.8273 16.8338C44.5437 16.0727 45.064 15.6831 47.2204 15.0941C49.118 13.0063 50.6078 12.7371 50.6078 12.7371C50.6078 12.7371 49.8687 13.4153 49.6707 14.4806C50.7463 13.6328 51.9255 12.9248 51.9255 12.9248C51.9255 12.9248 51.4686 13.4878 51.0427 14.3835L51.1411 14.5311C52.3966 13.7778 53.8722 13.1849 53.8722 13.1849C53.8722 13.1849 53.4503 13.7182 52.9558 14.4081C53.9033 14.4004 55.8229 14.4483 56.5684 14.5324C60.968 14.6295 61.8805 9.8351 63.5684 9.23322C65.6821 8.47859 66.627 8.02168 70.2292 11.5605C73.3189 14.5997 75.7342 20.0361 74.5343 21.2541C73.5286 22.265 71.5456 20.8593 69.3478 18.1204C68.1867 16.6694 67.3078 14.9544 66.8962 12.7746C66.5493 10.9353 65.198 9.86875 65.198 9.86875C65.198 9.86875 65.9811 11.6162 65.9811 13.1552C65.9811 13.9965 66.086 17.1406 67.4347 18.9061C67.3014 19.1637 67.2392 20.1823 67.0917 20.3778C65.5229 18.4815 62.1536 17.125 61.6035 16.7251C63.4636 18.2485 67.7376 21.7485 69.3788 25.1048C70.9321 28.2774 70.017 31.1858 70.8027 31.9378C71.0266 32.1527 74.1422 36.0358 74.7414 37.9865C75.7873 41.3855 74.8036 44.9593 73.4354 47.1752L69.6131 47.7706C69.054 47.6153 68.6773 47.5377 68.1764 47.2477C68.4534 46.7584 69.0022 45.5391 69.0074 45.2867L68.7912 44.9088C67.6017 46.5941 65.6096 48.2301 63.9541 49.1699C61.7873 50.3982 59.2905 50.208 57.6648 49.7057C53.0516 48.2832 48.6883 45.1651 47.6359 44.3457C47.6359 44.3457 47.6036 44.9994 47.8016 45.1469C48.964 46.4594 51.6291 48.832 54.2062 50.4875L48.7141 51.092L51.3107 71.3063C50.16 71.4706 49.98 71.5522 48.7206 71.7308C47.6101 67.8076 45.486 65.246 43.1639 63.7536C41.1162 62.4372 38.2918 62.1408 35.5892 62.6767L35.4157 62.8786C37.2952 62.6831 39.5137 62.955 41.7931 64.3982C44.0298 65.8129 45.8329 69.467 46.4969 71.6661C47.3473 74.4775 47.9349 77.4856 45.6465 80.6737C44.0195 82.9401 39.2691 84.1918 35.43 81.4826C36.4551 83.1317 37.8401 84.4791 39.7066 84.7328C42.4766 85.1095 45.1054 84.628 46.915 82.7705C48.4592 81.1823 49.2798 77.861 49.0636 74.3636L51.5087 74.0089L52.3915 80.2866L92.8601 75.4133L89.5582 43.2041ZM64.9366 26.1559C64.8239 26.4135 64.6453 26.583 64.912 27.4218L64.9275 27.4697L64.9702 27.5784L65.0815 27.8295C65.5617 28.8119 66.0885 29.7374 66.9713 30.2112C67.1991 30.1723 67.436 30.1464 67.6806 30.1348C68.509 30.0985 69.032 30.2293 69.362 30.4079C69.3918 30.2422 69.3983 30.0015 69.3801 29.6455C69.3154 28.4016 69.6261 26.2866 67.2354 25.1734C66.3332 24.7554 65.0673 24.8835 64.6453 25.4064C64.7217 25.4168 64.7903 25.4323 64.8447 25.4504C65.4841 25.6718 65.0518 25.8918 64.9366 26.1559ZM71.6388 37.7612C71.3256 37.5878 69.8604 37.6564 68.83 37.7794C66.8678 38.0111 64.7489 38.6906 64.2855 39.053C63.4416 39.7054 63.8247 40.8419 64.4486 41.3091C66.1973 42.6151 67.7298 43.4914 69.3465 43.2779C70.3393 43.1471 71.2156 41.5745 71.8356 40.1481C72.2601 39.1656 72.2601 38.1055 71.6388 37.7612ZM54.267 27.6949C54.8197 27.1694 51.5113 26.4795 48.9433 28.2308C47.0496 29.5225 46.9887 32.2925 48.8022 33.8626C48.9834 34.0179 49.1335 34.1279 49.272 34.2185C49.8014 33.9687 50.4046 33.7176 51.0997 33.4924C52.2724 33.1118 53.2483 32.9151 54.0496 32.8103C54.4327 32.3818 54.8793 31.6272 54.7679 30.2603C54.6152 28.4055 53.2121 28.6993 54.267 27.6949Z" fill="#632CA6"/>
</svg>
