<svg  viewBox="95 25 150 32" fill="none" xmlns="http://www.w3.org/2000/svg"><defs>
<clipPath id="clip0_0_3322">
<rect width="41" height="53" fill="white" transform="translate(20 15)"/>
</clipPath>
<clipPath id="clip1_0_3322">
<rect width="100" height="40.0936" fill="white" transform="translate(101 21)"/>
</clipPath>
</defs><g clip-path="url(#clip0_0_3322)">
<path fill-rule="evenodd" clip-rule="evenodd" d="M20.1181 40.854C20.2151 40.6543 20.4049 40.4563 20.5902 40.3612C20.8658 40.22 21.1259 40.2051 22.9369 40.2276C25.2359 40.2562 25.4129 40.2991 25.7135 40.9006C25.8047 41.0833 26.0029 41.7538 26.154 42.3907C26.305 43.0276 27.0699 46.2143 27.8537 49.4722C30.0817 58.7332 30.4805 60.3357 30.689 61.9629C30.7498 62.4371 30.7944 62.9135 30.8634 63.5822C30.959 64.5084 31.05 65.2789 31.0656 65.2946C31.0811 65.3102 31.1856 64.7328 31.2978 64.0114C31.41 63.2902 31.6127 62.1388 31.7481 61.4529C32.1234 59.5518 37.0408 41.1108 37.2519 40.8125C37.3495 40.6747 37.5556 40.4924 37.7101 40.4075C37.9531 40.2737 38.3142 40.2493 40.3975 40.2255C41.9559 40.2077 42.9315 40.2325 43.1659 40.296C43.5907 40.4111 44.0837 40.8182 44.219 41.1655C44.2716 41.3004 44.5983 42.4731 44.9451 43.7714C45.292 45.0697 46.2677 48.6973 47.1134 51.8327C49.4717 60.5753 49.5135 60.7411 49.8031 62.4877C49.9524 63.3883 50.1008 64.3556 50.133 64.6374C50.165 64.9191 50.2171 65.1496 50.2487 65.1496C50.2803 65.1496 50.3786 64.5984 50.4671 63.9248C50.798 61.4056 51.173 59.5347 53.1232 50.6748C54.2232 45.6776 55.1636 41.4441 55.213 41.267C55.3537 40.7631 55.6182 40.4941 56.1208 40.3439C56.4608 40.2424 57.0164 40.2084 58.3327 40.2084C59.6515 40.2084 60.1657 40.24 60.3917 40.3349C60.6981 40.4638 60.9703 40.8587 60.9703 41.1746C60.9703 41.341 60.4539 43.2947 56.8934 56.5983C56.0083 59.9052 55.0129 63.6289 54.6813 64.8731C54.3454 66.1335 54.0024 67.2379 53.9066 67.3672C53.8121 67.4947 53.5995 67.6793 53.434 67.7773C53.1493 67.946 52.9742 67.9554 50.1226 67.9554C46.9196 67.9554 46.7324 67.9334 46.433 67.5213C46.3519 67.4097 46.0854 66.5798 45.8407 65.6772C44.5217 60.8103 41.3819 48.9518 41.2632 48.3889C41.1109 47.6662 40.7435 45.225 40.6449 44.2796C40.6101 43.9466 40.5705 43.6861 40.5569 43.7006C40.5432 43.715 40.4666 44.288 40.3866 44.9739C40.1586 46.9273 39.9273 48.1045 39.3191 50.4075C36.0562 62.7603 34.9127 67.0182 34.7947 67.2529C34.718 67.4054 34.4893 67.6259 34.2863 67.7428C33.9232 67.9521 33.8752 67.9559 31.2166 67.985C29.7311 68.0013 28.3061 67.9884 28.0499 67.9562C27.3888 67.8734 27.0992 67.6009 26.881 66.8565C26.6105 65.9338 20.1343 41.9932 20.0399 41.5666C19.9718 41.2595 19.9866 41.1248 20.1181 40.854Z" fill="#005CB9"/>
<path d="M38.39 15.06C38.2195 15.0773 37.5421 15.175 36.8846 15.2771C34.8989 15.5857 32.7445 16.2804 30.9137 17.2023C29.5801 17.8739 28.7772 18.3721 27.5866 19.2664C25.3563 20.9416 23.3126 23.2586 21.8037 25.8227C21.3865 26.5316 20.6254 28.0911 20.3235 28.8557C20.123 29.3634 20.0452 29.7075 20.043 30.0969C20.0413 30.3933 20.0991 30.7783 20.1715 30.9525C20.3819 31.4592 20.858 31.9327 21.4313 32.2055C21.8576 32.4083 22.0867 32.4589 22.5833 32.4592C23.3795 32.4599 23.9593 32.2504 24.491 31.77C24.8323 31.4617 24.9987 31.1912 25.4045 30.285C25.9884 28.9812 26.5907 27.9057 27.2974 26.9052C27.9394 25.9961 29.8984 23.9955 30.7745 23.3545C31.5526 22.7851 32.6943 22.1035 33.5536 21.6954C35.0439 20.9876 37.0367 20.4448 38.8328 20.2573C42.6824 19.8555 46.5966 20.8487 49.7956 23.0392C50.3229 23.4002 51.1905 24.1256 51.7868 24.7039C53.4718 26.338 54.6049 27.9902 55.6559 30.3456C56.0347 31.1944 56.2034 31.4664 56.5404 31.7708C56.7695 31.9778 57.1653 32.2223 57.4202 32.3141C58.0746 32.5499 59.0761 32.4853 59.695 32.1674C60.2011 31.9074 60.6624 31.4259 60.8591 30.9525C60.9314 30.7783 60.9892 30.3896 60.9876 30.0887C60.9851 29.6667 60.9102 29.3612 60.6595 28.7512C59.8291 26.7308 58.5833 24.6237 57.1901 22.8832C56.7979 22.3933 56.0237 21.5514 55.4697 21.0123C53.1504 18.7554 50.3894 17.0714 47.3844 16.0809C44.9648 15.2833 43.0746 14.9928 40.4443 15.0143C39.4849 15.0221 38.5605 15.0427 38.39 15.06Z" fill="#F18902"/>
</g><g clip-path="url(#clip1_0_3322)">
<path d="M152.161 21.0221C155.737 20.8988 159.337 21.4376 162.71 22.6364C167.784 24.4205 172.319 27.6901 175.638 31.9253C177.097 33.7834 178.32 35.8257 179.278 37.9866C179.448 38.3461 179.579 38.7502 179.488 39.1508C179.377 39.8234 178.788 40.3794 178.111 40.4466C177.408 40.5496 176.682 40.1101 176.431 39.4466C174.525 34.9555 171.273 31.0544 167.217 28.354C164.709 26.6756 161.896 25.4533 158.958 24.769C155.169 23.8813 151.18 23.8813 147.39 24.7663C141.978 26.0144 137.024 29.1233 133.529 33.443C132.048 35.2631 130.824 37.292 129.902 39.4505C129.702 39.9521 129.244 40.3454 128.709 40.4334C128.192 40.5332 127.631 40.3547 127.271 39.9697C126.847 39.5441 126.708 38.8638 126.927 38.305C129.465 32.2943 134.165 27.2449 139.944 24.2393C143.707 22.2663 147.917 21.1657 152.161 21.0221Z" fill="#F49813"/>
<path d="M147.437 39.5286C147.415 39.2164 147.71 38.9829 148.002 38.9754C148.382 38.9653 148.763 38.9684 149.143 38.9738C149.408 38.9829 149.716 39.1593 149.715 39.4567C149.729 42.9493 149.707 46.4431 149.727 49.9378C151.14 48.3642 152.565 46.7991 153.983 45.2303C154.262 44.9545 154.483 44.5366 154.917 44.5007C155.502 44.4763 156.089 44.4908 156.675 44.4916C156.901 44.4713 157.153 44.6785 157.074 44.92C156.981 45.1063 156.811 45.2342 156.672 45.3821C155.139 46.9166 153.6 48.4456 152.075 49.9866C153.548 51.6713 155.001 53.3732 156.468 55.0642C156.657 55.3049 156.893 55.5091 157.051 55.7743C157.167 55.9816 156.975 56.2341 156.753 56.2439C156.266 56.2712 155.778 56.2439 155.29 56.2556C155.036 56.2497 154.761 56.2869 154.531 56.1557C154.288 56.0161 154.14 55.7665 153.966 55.5564C152.551 53.772 151.146 51.9804 149.726 50.1991C149.711 51.9557 149.722 53.7117 149.72 55.4673C149.715 55.6699 149.756 55.9141 149.58 56.062C149.3 56.3331 148.882 56.238 148.532 56.2556C148.222 56.245 147.858 56.3131 147.606 56.0835C147.465 55.9738 147.429 55.7869 147.434 55.6206C147.438 50.2559 147.433 44.8918 147.437 39.5286Z" fill="#3069B5"/>
<path d="M140.99 44.4624C141.7 44.2338 142.499 44.1904 143.194 44.4917C143.438 44.6064 143.721 44.8508 143.611 45.1521C143.5 45.5304 143.405 45.9131 143.272 46.2847C143.174 46.5516 142.865 46.6507 142.605 46.5986C142.02 46.4979 141.445 46.3043 140.845 46.3238C140.426 46.314 140.04 46.539 139.754 46.8305C139.292 47.2833 139.052 47.9162 138.945 48.5443C138.86 48.9981 138.884 49.4617 138.88 49.9202C138.88 51.8471 138.881 53.7752 138.88 55.702C138.907 56.019 138.58 56.2341 138.294 56.245C137.902 56.2505 137.511 56.2557 137.119 56.2419C136.836 56.2271 136.517 56.0201 136.554 55.7009C136.552 52.1327 136.55 48.5658 136.554 44.9976C136.53 44.6427 136.923 44.4499 137.231 44.4831C137.617 44.5085 138.144 44.363 138.395 44.7522C138.586 45.2037 138.677 45.6912 138.856 46.1468C139.394 45.4064 140.108 44.7538 140.99 44.4624Z" fill="#3069B5"/>
<path d="M101 44.7348C101.109 44.6097 101.236 44.4743 101.418 44.4872C101.95 44.4821 102.484 44.4704 103.015 44.495C103.285 44.5028 103.471 44.7404 103.511 44.9919C104.034 47.1222 104.547 49.2557 105.068 51.3868C105.221 52.045 105.407 52.6963 105.506 53.3657C105.609 53.9671 105.629 54.5774 105.727 55.1799C105.861 54.32 105.982 53.4545 106.213 52.6145C106.894 50.071 107.575 47.528 108.256 44.9852C108.309 44.6953 108.582 44.4891 108.871 44.4891C109.463 44.4743 110.057 44.4844 110.649 44.4844C110.966 44.4696 111.306 44.6554 111.383 44.9813C111.891 46.8354 112.394 48.693 112.9 50.5489C113.208 51.7507 113.61 52.9322 113.784 54.1654C113.832 54.505 113.879 54.8454 113.949 55.1827C114.14 53.2453 114.638 51.3602 115.047 49.4631C115.385 47.9537 115.716 46.4426 116.057 44.9331C116.108 44.63 116.428 44.4774 116.71 44.486C117.189 44.4833 117.669 44.4696 118.147 44.4939C118.431 44.5021 118.594 44.8166 118.494 45.0702C117.533 48.6216 116.576 52.1752 115.614 55.7266C115.563 56.0113 115.315 56.2336 115.025 56.2383C114.283 56.2626 113.539 56.2442 112.797 56.2481C112.531 56.2645 112.25 56.1217 112.203 55.8412C111.538 53.3989 110.887 50.9526 110.229 48.5085C109.991 47.6582 109.894 46.7768 109.794 45.9024C109.672 46.681 109.611 47.4724 109.404 48.2373C108.73 50.7539 108.053 53.2715 107.377 55.7883C107.301 56.196 106.836 56.2774 106.49 56.2507C105.8 56.2383 105.109 56.2668 104.42 56.2383C104.174 56.239 103.985 56.0473 103.941 55.815C102.972 52.2777 102.006 48.7389 101.037 45.2024C101.003 45.0479 101.007 44.8902 101 44.7348Z" fill="#3069B5"/>
<path d="M188.045 44.494C188.549 44.4852 189.055 44.4834 189.559 44.494C189.865 44.4982 190.153 44.7083 190.25 45.0018C191.12 47.2795 191.985 49.5617 192.853 51.8408C193.035 52.3032 193.162 52.7855 193.243 53.2754C193.603 51.9236 194.081 50.6082 194.501 49.2742C194.969 47.8316 195.437 46.3887 195.906 44.9458C195.976 44.6946 196.215 44.5233 196.469 44.5021C196.88 44.4717 197.294 44.4982 197.706 44.4873C197.947 44.4901 198.234 44.4618 198.418 44.6554C198.537 44.7564 198.512 44.9242 198.462 45.0553C197.072 49.0284 195.685 53.0035 194.296 56.9777C194.055 57.6397 193.869 58.3327 193.481 58.9281C192.923 59.835 192.02 60.488 191.027 60.8412C190.68 60.9489 190.321 61.1876 189.948 61.0537C189.684 60.986 189.582 60.7102 189.441 60.5075C189.339 60.3236 189.152 60.1536 189.191 59.9245C189.209 59.6977 189.391 59.513 189.605 59.4523C190.023 59.3075 190.449 59.1479 190.788 58.8518C191.613 58.1534 192.122 57.1205 192.316 56.0693C192.185 55.6025 191.941 55.1734 191.765 54.7214C190.439 51.6345 189.113 48.5464 187.783 45.4606C187.703 45.2587 187.585 45.0662 187.562 44.8472C187.566 44.6066 187.841 44.501 188.045 44.494Z" fill="#3069B5"/>
<path d="M126.212 45.9871C125.489 46.1216 124.829 46.5727 124.462 47.2152C123.848 48.257 123.777 49.5141 123.805 50.6957C123.849 51.7652 124.02 52.9061 124.702 53.7709C125.21 54.4211 126.045 54.7478 126.857 54.7353C127.638 54.7603 128.455 54.4954 128.985 53.9007C129.661 53.1601 129.878 52.1323 129.971 51.1632C130.012 50.2113 130.031 49.2422 129.785 48.3127C129.589 47.5273 129.175 46.7422 128.458 46.3191C127.791 45.9096 126.968 45.8712 126.212 45.9871ZM126.518 44.2929C127.827 44.2124 129.198 44.4846 130.279 45.2612C131.245 45.9498 131.901 47.011 132.208 48.1487C132.572 49.5071 132.571 50.9567 132.24 52.322C131.929 53.5807 131.201 54.7673 130.102 55.4826C128.928 56.2627 127.454 56.4654 126.076 56.2991C124.902 56.1543 123.759 55.6386 122.941 54.7724C121.981 53.7646 121.504 52.376 121.405 51.0036C121.284 49.4816 121.517 47.8705 122.362 46.5707C122.987 45.5925 123.982 44.874 125.091 44.5461C125.553 44.4013 126.036 44.334 126.518 44.2929Z" fill="#3069B5"/>
<path d="M165.129 45.9248C164.411 45.9709 163.718 46.3845 163.398 47.0407C162.772 48.2539 162.759 49.6659 162.791 51.0001C162.841 51.8717 162.935 52.7716 163.341 53.5588C163.615 54.0889 164.113 54.5076 164.702 54.6358C165.603 54.853 166.664 54.6692 167.304 53.956C167.922 53.2521 168.125 52.2951 168.22 51.3893C168.285 50.3569 168.289 49.3032 168.033 48.2926C167.857 47.617 167.559 46.9421 167.025 46.4725C166.513 46.0207 165.798 45.8464 165.129 45.9248ZM168.216 39.3792C168.2 39.1054 168.479 38.9305 168.722 38.9095C169.111 38.8883 169.501 38.8984 169.89 38.9028C170.187 38.9 170.519 39.121 170.476 39.4513C170.476 44.8404 170.477 50.2285 170.475 55.6168C170.496 55.895 170.222 56.1109 169.966 56.1277C169.656 56.1441 169.345 56.1441 169.037 56.1226C168.819 56.109 168.608 55.9692 168.534 55.7608C168.418 55.4106 168.357 55.0468 168.268 54.6906C167.839 55.2744 167.285 55.7909 166.597 56.0471C165.615 56.409 164.522 56.4149 163.513 56.1684C162.5 55.9243 161.617 55.2266 161.128 54.3084C160.36 52.9065 160.269 51.2575 160.317 49.6937C160.344 48.3575 160.599 46.948 161.468 45.8876C162.124 44.9889 163.198 44.4733 164.283 44.3383C165.293 44.1904 166.388 44.3605 167.223 44.9733C167.619 45.2519 167.935 45.6255 168.218 46.016C168.21 43.8043 168.212 41.5918 168.216 39.3792Z" fill="#3069B5"/>
<path d="M179.083 45.9923C178.723 46.0658 178.374 46.2106 178.083 46.4363C177.501 46.8901 177.212 47.6113 177.058 48.3117C176.833 49.4227 176.836 50.5703 176.952 51.6939C177.061 52.5195 177.268 53.4006 177.872 54.0109C178.364 54.5285 179.107 54.7182 179.801 54.6842C180.548 54.7112 181.325 54.4326 181.807 53.8449C182.409 53.1152 182.579 52.1446 182.667 51.2302C182.723 50.1552 182.724 49.0542 182.422 48.0103C182.232 47.36 181.883 46.7134 181.295 46.3429C180.648 45.9173 179.828 45.878 179.083 45.9923ZM178.083 44.5165C179.12 44.229 180.229 44.2121 181.276 44.4519C182.248 44.6778 183.159 45.2246 183.757 46.0344C184.389 46.8647 184.708 47.8942 184.841 48.9199C184.956 49.711 184.923 50.5123 184.924 51.3093C184.924 52.7475 184.924 54.1861 184.92 55.624C184.936 55.7992 184.825 55.9546 184.683 56.0457C184.442 56.1943 184.143 56.1287 183.874 56.1455C183.573 56.1432 183.176 56.1697 183.012 55.8555C182.852 55.4862 182.819 55.0742 182.716 54.6858C182.312 55.178 181.893 55.6858 181.308 55.9702C180.416 56.4115 179.374 56.3858 178.42 56.199C177.253 55.9683 176.178 55.2769 175.518 54.2808C174.732 53.1207 174.446 51.6889 174.457 50.3049C174.448 48.956 174.711 47.5613 175.46 46.4199C176.059 45.4868 177.02 44.8112 178.083 44.5165Z" fill="#3069B5"/>
<path d="M198.957 53.3527C198.365 53.5707 197.992 54.2554 198.143 54.8735C198.297 55.5994 199.14 56.0947 199.843 55.8262C200.492 55.6279 200.901 54.8872 200.7 54.2343C200.523 53.4995 199.653 53.0652 198.957 53.3527ZM199.039 53.0426C199.391 52.9869 199.773 52.983 200.099 53.1462C200.655 53.3989 201.054 53.9964 200.994 54.6176C201.04 55.3587 200.418 56.0211 199.707 56.1404C198.908 56.3106 198.047 55.7304 197.884 54.9315C197.674 54.1275 198.232 53.2225 199.039 53.0426Z" fill="#3069B5"/>
<path d="M199.204 53.9454C199.203 54.1135 199.202 54.2819 199.204 54.4513C199.352 54.4422 199.503 54.4513 199.648 54.4109C199.785 54.3542 199.772 54.1801 199.734 54.0635C199.593 53.9249 199.383 53.961 199.204 53.9454ZM198.76 53.6714C199.185 53.6957 199.661 53.5756 200.044 53.8131C200.353 54.045 200.203 54.5499 199.855 54.6574C199.955 54.9235 200.095 55.1708 200.223 55.4243C200.062 55.4274 199.904 55.4301 199.745 55.4329C199.631 55.1981 199.519 54.9606 199.409 54.7238C199.34 54.722 199.272 54.7212 199.204 54.7199C199.203 54.9567 199.203 55.1934 199.203 55.4301C199.053 55.4282 198.906 55.4262 198.758 55.4251C198.759 54.8401 198.757 54.2552 198.76 53.6714Z" fill="#3069B5"/>
</g></svg>