<svg width="48" height="48" viewBox="0 0 48 48" fill="none" xmlns="http://www.w3.org/2000/svg">
<path d="M24 3C12.4172 3 3 12.4172 3 24C3 35.5828 12.4172 45 24 45C35.5828 45 45 35.5828 45 24C45 12.4172 35.5828 3 24 3Z" fill="white"/>
<path d="M24.4793 6.28112C24.2693 5.90629 23.7307 5.90629 23.5207 6.28112L17.9454 16.235C17.8671 16.3747 17.732 16.4734 17.5753 16.5052L6.44085 18.7659C6.02205 18.851 5.85612 19.3612 6.14459 19.677L13.8348 28.0949C13.9423 28.2125 13.9936 28.371 13.9754 28.5294L12.6711 39.8858C12.6221 40.3121 13.0574 40.628 13.4466 40.4488L23.7704 35.694C23.9161 35.6269 24.0839 35.6269 24.2296 35.694L34.5534 40.4488C34.9426 40.628 35.3779 40.3121 35.3289 39.8858L34.3747 31.5777C34.3747 31.5777 34.2873 30.8165 34.0246 28.5294C34.0064 28.371 34.0577 28.2125 34.1651 28.0949L41.8554 19.677C42.1439 19.3612 41.978 18.851 41.5591 18.7659L30.4247 16.5052C30.268 16.4734 30.1329 16.3747 30.0546 16.235L24.4793 6.28112Z" fill="#FECE48"/>
<path d="M22.9924 24.9199C22.2596 23.1952 16.8555 21.602 14.2451 21.021C16.2602 19.6632 23.7556 19.7519 27.2515 19.966C28.1501 20.0693 30.4279 20.315 32.3971 21.0741C32.5066 21.1163 32.5471 21.2477 32.4746 21.34C31.396 22.7135 27.5593 26.2691 25.6944 27.9473L24.9158 28.9105C27.9537 29.0787 34.6523 29.3142 37.1436 28.9105C36.3193 29.9655 35.0675 31.204 34.3958 31.8003C34.4416 32.1673 34.4874 32.7636 34.6248 33.7268C21.6917 34.8644 16.4434 32.4425 15.39 31.1123C15.558 30.9441 17.3135 29.4701 22.9924 24.9199Z" fill="#F6AD46"/>
<path d="M23.4503 18.4524C20.0108 18.4524 16.0847 19.8413 14.1529 20.7292C13.9777 20.8097 14.0394 21.0559 14.232 21.0531C21.581 20.9467 25.0444 21.684 25.8703 22.229C25.9574 22.2864 25.9484 22.4024 25.8657 22.4661C22.6512 24.9432 16.8506 29.7233 15.3864 30.9396C15.2639 31.0413 15.3243 31.2369 15.4823 31.256C25.0504 32.4179 33.6894 30.6082 37.0273 29.0424C37.2066 28.9584 37.1243 28.7217 36.9274 28.7419C31.8648 29.2603 26.224 27.9645 23.9676 27.14C23.8364 27.0921 23.8108 26.9227 23.919 26.8343C25.7873 25.3095 29.5633 22.2317 31.7737 20.4447C31.8703 20.3666 31.8625 20.2172 31.7575 20.1509C30.0722 19.0861 28.1533 18.4524 23.4503 18.4524Z" fill="white"/>
</svg>
