<svg width="250" height="82" viewBox="0 0 250 82" fill="none" xmlns="http://www.w3.org/2000/svg">
<path d="M239.042 0V0.5H244C247.038 0.5 249.5 2.96243 249.5 6V10.667H250V15.333H249.5V24.667H250V29.333H249.5V38.667H250V43.333H249.5V52.667H250V57.333H249.5V66.667H250V71.333H249.5V76C249.5 79.0376 247.038 81.5 244 81.5H239.042V82H234.083V81.5H224.167V82H219.208V81.5H209.292V82H204.333V81.5H194.417V82H189.458V81.5H179.542V82H174.583V81.5H164.667V82H159.708V81.5H149.792V82H144.833V81.5H134.917V82H129.958V81.5H120.042V82H115.083V81.5H105.167V82H100.208V81.5H90.292V82H85.333V81.5H75.417V82H70.458V81.5H60.542V82H55.583V81.5H45.667V82H40.708V81.5H30.792V82H25.833V81.5H15.917V82H10.958V81.5H6C2.96243 81.5 0.5 79.0376 0.5 76V71.333H0V66.667H0.5V57.333H0V52.667H0.5V43.333H0V38.667H0.5V29.333H0V24.667H0.5V15.333H0V10.667H0.5V6C0.5 2.96243 2.96243 0.5 6 0.5H10.958V0H15.917V0.5H25.833V0H30.792V0.5H40.708V0H45.667V0.5H55.583V0H60.542V0.5H70.458V0H75.417V0.5H85.333V0H90.292V0.5H100.208V0H105.167V0.5H115.083V0H120.042V0.5H129.958V0H134.917V0.5H144.833V0H149.792V0.5H159.708V0H164.667V0.5H174.583V0H179.542V0.5H189.458V0H194.417V0.5H204.333V0H209.292V0.5H219.208V0H224.167V0.5H234.083V0H239.042Z" stroke="#722ED1" stroke-dasharray="10 5"/>
<path fill-rule="evenodd" clip-rule="evenodd" d="M50.5714 20.5321L30.6283 55.1199C29.3037 57.401 30.1132 60.5653 32.4681 61.8899C34.7494 63.2147 37.9137 62.4053 39.2384 60.0503L49.1732 42.8301L59.1814 25.5363C60.5061 23.255 59.6966 20.0906 57.3416 18.766C55.0605 17.4413 51.8959 18.2508 50.5714 20.5321ZM30.6283 20.5321C31.9529 18.2508 35.1173 17.4413 37.3986 18.766C39.6799 20.0906 40.563 23.255 39.2384 25.5363L29.2301 42.8301C27.9054 45.1115 24.741 45.9947 22.4597 44.6699C20.1784 43.2717 19.2953 40.181 20.62 37.8259L30.6283 20.5321ZM60.5798 37.8259C61.9043 35.5446 65.0686 34.6615 67.35 35.9861C69.6314 37.3108 70.5143 40.4753 69.1898 42.7567L59.1814 60.124C57.8568 62.4053 54.6925 63.2881 52.4111 61.9635C50.1298 60.6392 49.2468 57.4744 50.5714 55.1931L60.5798 37.8259Z" fill="#251D63"/>
<g clip-path="url(#clip0_0_1139)">
<path fill-rule="evenodd" clip-rule="evenodd" d="M168.419 35.4296V50.9719H171.45V45.7652L171.605 45.8947C172.641 46.6978 173.885 47.1122 175.206 47.1122C178.47 47.1122 181.138 44.47 181.138 41.1802C181.138 37.9163 178.496 35.2482 175.206 35.2482C173.91 35.2482 172.641 35.6627 171.605 36.4657L171.45 36.5952V35.4296H168.419ZM171.346 41.1802C171.346 39.367 172.823 37.8904 174.636 37.8904C176.449 37.8904 177.926 39.367 177.926 41.1802C177.926 42.9935 176.449 44.47 174.636 44.47C172.823 44.47 171.346 42.9935 171.346 41.1802ZM163.186 46.9309H166.217V35.4296H163.186V36.5952L163.031 36.4657C161.995 35.6627 160.751 35.2482 159.43 35.2482C156.166 35.2482 153.498 37.8904 153.498 41.1802C153.498 44.4441 156.14 47.1122 159.43 47.1122C160.725 47.1122 161.995 46.6978 163.031 45.8947L163.186 45.7652V46.9309ZM160.026 37.8904C161.839 37.8904 163.316 39.367 163.316 41.1802C163.316 42.9935 161.839 44.47 160.026 44.47C158.213 44.47 156.736 42.9935 156.736 41.1802C156.736 39.367 158.213 37.8904 160.026 37.8904ZM118.761 32.2434L111.741 44.4182C111.275 45.2212 111.56 46.3351 112.389 46.8014C113.192 47.2677 114.306 46.9827 114.772 46.1538L118.269 40.0922L121.792 34.0048C122.258 33.2018 121.973 32.088 121.144 31.6217C120.341 31.1554 119.227 31.4404 118.761 32.2434ZM111.741 32.2434C112.207 31.4404 113.321 31.1554 114.124 31.6217C114.927 32.088 115.238 33.2018 114.772 34.0048L111.249 40.0922C110.783 40.8953 109.669 41.2062 108.866 40.7398C108.063 40.2477 107.752 39.1598 108.218 38.3308L111.741 32.2434ZM122.284 38.3308C122.75 37.5278 123.864 37.2169 124.667 37.6832C125.47 38.1495 125.781 39.2634 125.315 40.0664L121.792 46.1797C121.326 46.9827 120.212 47.2935 119.409 46.8273C118.606 46.361 118.295 45.2471 118.761 44.4441L122.284 38.3308ZM136.79 38.3826V41.491H140.702L140.65 41.6206C140.494 42.061 140.21 42.4754 139.873 42.7862C139.199 43.4598 138.267 43.8483 137.308 43.9519C137.101 43.9778 136.894 43.9778 136.687 43.9778C135.417 43.9778 134.2 43.4857 133.293 42.579C132.387 41.6724 131.894 40.4808 131.894 39.1856C131.894 37.8904 132.387 36.6989 133.293 35.7922C134.2 34.8856 135.391 34.3934 136.687 34.3934C137.308 34.3934 137.93 34.5229 138.526 34.7561C139.096 34.9892 139.64 35.3519 140.08 35.7922L142.282 33.5904C141.557 32.8651 140.676 32.2693 139.717 31.8807C138.759 31.4922 137.749 31.2849 136.712 31.2849C134.614 31.2849 132.62 32.1139 131.143 33.5904C129.667 35.0669 128.838 37.0615 128.838 39.1598C128.838 41.2579 129.667 43.2526 131.143 44.729C132.62 46.2056 134.614 47.0345 136.712 47.0345C137.049 47.0345 137.386 47.0086 137.723 46.9827C139.329 46.7754 140.883 46.102 142.075 44.9622C143.292 43.7706 143.992 42.2164 143.992 40.5067V39.7296C143.992 38.9525 143.37 38.3308 142.593 38.3308H136.79V38.3826ZM145.701 35.4296V46.9309H148.887V41.491C148.887 41.4134 148.887 41.3098 148.913 41.232V41.1284C148.913 39.4706 150.26 38.1236 151.918 38.1236H152.773V35.2741C152.643 35.2482 152.488 35.2482 152.358 35.2482C151.011 35.2482 149.742 35.8699 148.939 36.932L148.758 37.1651V35.4037H145.701V35.4296ZM182.718 31V46.9309H185.904V40.3772C185.904 38.9007 187.096 37.6832 188.598 37.6832C190.074 37.6832 191.292 38.8748 191.292 40.3772V46.905H194.478V40.0146C194.478 37.3465 192.328 35.1964 189.66 35.1964C188.313 35.1964 187.018 35.7663 186.111 36.7507L185.93 36.932V31H182.718ZM194.918 35.4296L199.944 47.1122L199.892 47.2677C199.71 47.6821 199.452 48.1484 199.089 48.4333C198.752 48.6923 198.312 48.796 197.898 48.796C197.535 48.796 197.198 48.7182 196.862 48.5887C196.55 48.4851 196.266 48.3038 196.033 48.1225L194.893 50.3502C195.282 50.687 195.774 50.8942 196.266 51.0496C196.835 51.231 197.431 51.3346 198.027 51.3346C199.038 51.3346 199.996 51.1014 200.825 50.5315C201.757 49.8839 202.379 48.7701 202.767 47.7339L208 35.4555H204.97L201.576 43.4338L198.208 35.4555H194.918V35.4296Z" fill="#251D63"/>
</g>
<defs>
<clipPath id="clip0_0_1139">
<rect width="100" height="20.8" fill="white" transform="translate(108 31)"/>
</clipPath>
</defs>
</svg>
