<svg  viewBox="20 16 220 50" fill="none" xmlns="http://www.w3.org/2000/svg"><defs>
<clipPath id="clip0_0_908">
<rect width="100" height="26.0163" fill="white" transform="translate(85 28)"/>
</clipPath>
</defs><path d="M45.8472 37.6068C46.0203 37.8468 46.2769 38.0133 46.5665 38.074C46.856 38.1347 47.1578 38.085 47.4126 37.9349C51.1197 35.7259 63.9113 28.4866 67.7528 21.2691C70.9991 15.1765 64.2003 15.6935 60.2947 16.434C58.5789 16.7681 56.9689 17.5114 55.6018 18.6009C51.9946 21.4691 46.3315 26.7822 45.6192 36.7226C45.591 37.0351 45.6723 37.3475 45.8472 37.6068ZM60.9071 32.9233C58.5488 34.3959 56.1209 35.754 53.6318 36.9929C54.2665 38.545 54.5241 40.2255 54.3834 41.8964C54.2428 43.5674 53.7079 45.1811 52.8226 46.6053C51.9427 48.0178 50.7347 49.1968 49.3013 50.0422C47.8778 50.8819 46.2703 51.3597 44.6193 51.4341C44.1408 54.3383 43.1529 57.135 41.7011 59.6952C42.5025 59.7998 43.3102 59.8529 44.1179 59.8545C46.5565 59.8701 48.9748 59.3952 51.2307 58.4548C53.4935 57.5094 55.5448 56.1216 57.264 54.3727C58.9943 52.6117 60.3608 50.5271 61.2851 48.2378C62.2147 45.9413 62.6865 43.4824 62.6755 41C62.6755 38.2083 62.0709 35.451 60.9071 32.9233ZM34.6445 44.9821C34.1252 43.7184 33.8598 42.3648 33.8634 40.9984C33.8634 38.2466 34.9282 35.6014 36.8348 33.6169C38.7212 31.6534 41.3096 30.5184 44.0319 30.4613C44.6125 27.5923 45.6702 24.8411 47.1611 22.3221C43.7329 21.7353 40.2084 22.1435 37.005 23.4984C34.7473 24.455 32.7027 25.8517 30.9905 27.6071C29.2662 29.3752 27.9063 31.465 26.9881 33.7575C26.0652 36.0599 25.5994 38.5198 25.6164 41C25.611 43.6928 26.168 46.357 27.2521 48.8221C29.6423 47.4004 32.1106 46.1179 34.6445 44.9821ZM42.4603 44.3213C42.2858 44.0831 42.0287 43.9182 41.7394 43.8593C41.4499 43.8004 41.1488 43.8515 40.895 44.0026C37.1878 46.2007 24.6947 53.5619 20.8516 60.7294C17.6053 66.8236 24.4119 66.3065 28.3159 65.566C30.0328 65.2393 31.6438 64.4982 33.0089 63.407C35.8448 61.2689 38.1777 58.5355 39.8436 55.399C41.521 52.2446 42.4963 48.7646 42.7025 45.1977C42.7278 44.8862 42.642 44.5756 42.4603 44.3213ZM44.1569 43.3574C45.4536 43.3574 46.5049 42.2873 46.5049 40.9672C46.5049 39.6487 45.4536 38.577 44.1569 38.577C42.8603 38.577 41.8105 39.6487 41.8105 40.9672C41.8105 42.2873 42.8618 43.3574 44.1569 43.3574Z" fill="#51B1CF"/><g clip-path="url(#clip0_0_908)">
<path d="M85 31.9464C84.9991 31.8092 85.0523 31.6772 85.148 31.5789C85.1951 31.531 85.2513 31.4931 85.3133 31.4672C85.3753 31.4414 85.4418 31.4282 85.509 31.4285H96.6114C96.6785 31.4285 96.7449 31.4418 96.8067 31.4678C96.8685 31.4938 96.9246 31.5318 96.9715 31.5797C97.0667 31.6773 97.1203 31.809 97.1203 31.9464V34.9228C97.1205 35.0595 97.0671 35.1908 96.9715 35.2886C96.9246 35.3367 96.8687 35.3749 96.8068 35.401C96.745 35.4271 96.6785 35.4406 96.6114 35.4407H89.1813V39.3756H95.2886C95.4226 39.3797 95.5499 39.4353 95.6439 39.5309C95.7389 39.6281 95.7938 39.7576 95.7976 39.8935V42.8691C95.7934 43.0049 95.7383 43.1341 95.6431 43.2309C95.5496 43.3269 95.4226 43.3832 95.2886 43.3878H89.1813V50.0203C89.1775 50.156 89.1226 50.2852 89.0276 50.3821C88.9338 50.4781 88.8065 50.534 88.6724 50.5382H85.509C85.4421 50.5389 85.3759 50.5259 85.3141 50.5004C85.2524 50.4749 85.1964 50.4371 85.1496 50.3894C85.1019 50.3415 85.0641 50.2845 85.0384 50.2219C85.0128 50.1592 84.9997 50.0921 85 50.0244V31.9464ZM99.9089 31.9464C99.9089 31.809 99.9626 31.6773 100.059 31.5805C100.105 31.5326 100.161 31.4944 100.223 31.4683C100.285 31.4422 100.351 31.4287 100.418 31.4285H111.521C111.588 31.4279 111.655 31.441 111.717 31.4668C111.78 31.4927 111.836 31.5308 111.883 31.5789C111.931 31.6273 111.969 31.6846 111.995 31.7477C112.02 31.8107 112.034 31.8782 112.033 31.9464V34.9228C112.033 35.0605 111.979 35.1927 111.883 35.2911C111.835 35.3388 111.779 35.3767 111.717 35.4023C111.654 35.428 111.588 35.4411 111.52 35.4407H104.094V38.8276H110.202C110.336 38.8321 110.464 38.888 110.559 38.9837C110.656 39.0806 110.713 39.2098 110.719 39.3463V42.322C110.719 42.4594 110.666 42.5915 110.57 42.6902C110.523 42.7385 110.467 42.7771 110.405 42.8036C110.343 42.8301 110.277 42.8441 110.21 42.8447H104.102V46.5301H111.521C111.588 46.5296 111.655 46.5426 111.717 46.5685C111.78 46.5943 111.836 46.6324 111.883 46.6805C111.931 46.7289 111.969 46.7862 111.995 46.8493C112.021 46.9124 112.034 46.9798 112.033 47.048V50.0244C112.033 50.1614 111.978 50.2927 111.882 50.3902C111.835 50.4376 111.778 50.475 111.716 50.5003C111.654 50.5257 111.588 50.5386 111.521 50.5382H100.417C100.35 50.5381 100.284 50.5247 100.222 50.4988C100.16 50.4728 100.105 50.4348 100.058 50.387C99.9617 50.2891 99.908 50.1575 99.9081 50.0203V31.9472L99.9089 31.9464ZM115.413 31.9464C115.412 31.8092 115.465 31.6771 115.561 31.5789C115.608 31.5311 115.664 31.4931 115.726 31.4673C115.788 31.4415 115.855 31.4283 115.922 31.4285H119.114C119.247 31.4334 119.374 31.4895 119.468 31.5854C119.563 31.6822 119.618 31.811 119.623 31.9464V46.5301H125.998C126.065 46.5301 126.132 46.5434 126.194 46.5694C126.256 46.5954 126.312 46.6334 126.359 46.6813C126.454 46.7789 126.507 46.9106 126.507 47.048V50.0244C126.506 50.1605 126.452 50.2908 126.357 50.3878C126.31 50.4353 126.255 50.473 126.193 50.4989C126.132 50.5246 126.066 50.5381 125.999 50.5382H115.921C115.854 50.5389 115.788 50.5259 115.726 50.5004C115.665 50.4749 115.609 50.4371 115.562 50.3894C115.514 50.3415 115.476 50.2845 115.451 50.2219C115.425 50.1592 115.412 50.0921 115.412 50.0244V31.9464H115.413ZM151.847 39.2382C151.937 39.3631 152.071 39.4498 152.221 39.4813C152.372 39.5129 152.529 39.4871 152.662 39.4089C154.591 38.2594 161.248 34.4919 163.247 30.7358C164.937 27.5651 161.398 27.8342 159.366 28.2195C158.473 28.3934 157.635 28.7802 156.924 29.3472C155.046 30.8399 152.099 33.6049 151.728 38.7781C151.714 38.9407 151.755 39.1033 151.846 39.2382H151.847ZM139.898 46.5797C139.831 46.5482 139.757 46.5313 139.682 46.5301H133.298V31.9464C133.295 31.8107 133.24 31.6815 133.145 31.5846C133.051 31.4887 132.924 31.4328 132.789 31.4285H129.598C129.53 31.4285 129.464 31.4418 129.402 31.4678C129.34 31.4938 129.284 31.5318 129.237 31.5797C129.142 31.6777 129.088 31.8094 129.089 31.9464V50.0244C129.09 50.1605 129.143 50.2909 129.239 50.3878C129.286 50.4353 129.341 50.473 129.403 50.4989C129.464 50.5246 129.53 50.5381 129.597 50.5382H135.659C136.891 49.0365 138.316 47.705 139.898 46.5789V46.5797ZM159.685 36.8008C158.457 37.5672 157.194 38.274 155.898 38.9187C156.229 39.7264 156.363 40.601 156.29 41.4706C156.216 42.3402 155.938 43.18 155.477 43.9211C155.019 44.6563 154.391 45.2698 153.645 45.7098C152.904 46.1468 152.067 46.3955 151.208 46.4342C150.959 47.9455 150.445 49.401 149.689 50.7333C150.106 50.7878 150.527 50.8155 150.947 50.8163C152.216 50.8244 153.475 50.5772 154.649 50.0878C155.826 49.5959 156.894 48.8736 157.789 47.9634C158.689 47.047 159.4 45.9621 159.881 44.7707C160.365 43.5756 160.611 42.2959 160.605 41.0041C160.605 39.5512 160.29 38.1163 159.685 36.8008ZM146.017 43.0764C145.747 42.4188 145.609 41.7143 145.611 41.0033C145.611 39.5711 146.165 38.1946 147.157 37.1618C148.139 36.1399 149.486 35.5493 150.902 35.5195C151.205 34.0265 151.755 32.5947 152.531 31.2838C150.747 30.9784 148.913 31.1908 147.246 31.896C146.071 32.3938 145.006 33.1206 144.115 34.0342C143.218 34.9543 142.51 36.0419 142.033 37.235C141.552 38.4332 141.31 39.7133 141.319 41.0041C141.316 42.4054 141.606 43.792 142.17 45.0748C143.414 44.335 144.698 43.6675 146.017 43.0764ZM150.085 42.7325C149.994 42.6085 149.86 42.5228 149.709 42.4921C149.559 42.4615 149.402 42.4881 149.27 42.5667C147.341 43.7106 140.839 47.5415 138.839 51.2715C137.15 54.4431 140.692 54.174 142.724 53.7886C143.617 53.6186 144.455 53.2329 145.166 52.665C146.642 51.5524 147.856 50.1298 148.723 48.4976C149.596 46.8559 150.103 45.0449 150.211 43.1886C150.224 43.0265 150.179 42.8649 150.085 42.7325ZM184.389 31.4285H181.25C181.142 31.4367 181.039 31.4772 180.954 31.5447C180.867 31.6132 180.804 31.7054 180.77 31.8098L178.462 41.0659H178.356L174.199 31.4699C174.166 31.3766 174.102 31.2966 174.02 31.2415C173.938 31.187 173.841 31.1607 173.743 31.1667H173.259C173.164 31.1713 173.073 31.2021 172.996 31.2555C172.918 31.3089 172.857 31.3829 172.819 31.4691L168.646 41.0659H168.54L166.236 31.8098C165.212 32.9081 164.092 33.9124 162.889 34.8106L167.204 50.435C167.234 50.5417 167.297 50.6364 167.383 50.7057C167.469 50.7742 167.575 50.8131 167.685 50.8163H168.116C168.211 50.8098 168.303 50.779 168.384 50.7268C168.463 50.6746 168.528 50.6026 168.572 50.5179L173.458 39.3455H173.535L178.437 50.5382C178.481 50.6233 178.546 50.6956 178.626 50.748C178.706 50.8002 178.798 50.8308 178.893 50.8366H179.333C179.444 50.8348 179.551 50.7966 179.639 50.7277C179.727 50.6588 179.789 50.5631 179.817 50.4553L184.886 32.1041C184.914 32.0456 184.929 31.9821 184.932 31.9174C184.934 31.8527 184.924 31.7882 184.901 31.7278C184.877 31.6673 184.842 31.6121 184.798 31.5656C184.753 31.5191 184.698 31.4821 184.639 31.4569C184.56 31.4244 184.474 31.4146 184.389 31.4285ZM150.967 42.2309C151.642 42.2309 152.189 41.674 152.189 40.987C152.189 40.3008 151.642 39.7431 150.967 39.7431C150.293 39.7431 149.746 40.3008 149.746 40.987C149.746 41.674 150.293 42.2309 150.967 42.2309Z" fill="black"/>
</g></svg>