<svg  viewBox="20 16 50 50" fill="none" xmlns="http://www.w3.org/2000/svg"><defs>
<clipPath id="clip0_0_908">
<rect width="100" height="26.0163" fill="white" transform="translate(85 28)"/>
</clipPath>
</defs><path d="M45.8472 37.6068C46.0203 37.8468 46.2769 38.0133 46.5665 38.074C46.856 38.1347 47.1578 38.085 47.4126 37.9349C51.1197 35.7259 63.9113 28.4866 67.7528 21.2691C70.9991 15.1765 64.2003 15.6935 60.2947 16.434C58.5789 16.7681 56.9689 17.5114 55.6018 18.6009C51.9946 21.4691 46.3315 26.7822 45.6192 36.7226C45.591 37.0351 45.6723 37.3475 45.8472 37.6068ZM60.9071 32.9233C58.5488 34.3959 56.1209 35.754 53.6318 36.9929C54.2665 38.545 54.5241 40.2255 54.3834 41.8964C54.2428 43.5674 53.7079 45.1811 52.8226 46.6053C51.9427 48.0178 50.7347 49.1968 49.3013 50.0422C47.8778 50.8819 46.2703 51.3597 44.6193 51.4341C44.1408 54.3383 43.1529 57.135 41.7011 59.6952C42.5025 59.7998 43.3102 59.8529 44.1179 59.8545C46.5565 59.8701 48.9748 59.3952 51.2307 58.4548C53.4935 57.5094 55.5448 56.1216 57.264 54.3727C58.9943 52.6117 60.3608 50.5271 61.2851 48.2378C62.2147 45.9413 62.6865 43.4824 62.6755 41C62.6755 38.2083 62.0709 35.451 60.9071 32.9233ZM34.6445 44.9821C34.1252 43.7184 33.8598 42.3648 33.8634 40.9984C33.8634 38.2466 34.9282 35.6014 36.8348 33.6169C38.7212 31.6534 41.3096 30.5184 44.0319 30.4613C44.6125 27.5923 45.6702 24.8411 47.1611 22.3221C43.7329 21.7353 40.2084 22.1435 37.005 23.4984C34.7473 24.455 32.7027 25.8517 30.9905 27.6071C29.2662 29.3752 27.9063 31.465 26.9881 33.7575C26.0652 36.0599 25.5994 38.5198 25.6164 41C25.611 43.6928 26.168 46.357 27.2521 48.8221C29.6423 47.4004 32.1106 46.1179 34.6445 44.9821ZM42.4603 44.3213C42.2858 44.0831 42.0287 43.9182 41.7394 43.8593C41.4499 43.8004 41.1488 43.8515 40.895 44.0026C37.1878 46.2007 24.6947 53.5619 20.8516 60.7294C17.6053 66.8236 24.4119 66.3065 28.3159 65.566C30.0328 65.2393 31.6438 64.4982 33.0089 63.407C35.8448 61.2689 38.1777 58.5355 39.8436 55.399C41.521 52.2446 42.4963 48.7646 42.7025 45.1977C42.7278 44.8862 42.642 44.5756 42.4603 44.3213ZM44.1569 43.3574C45.4536 43.3574 46.5049 42.2873 46.5049 40.9672C46.5049 39.6487 45.4536 38.577 44.1569 38.577C42.8603 38.577 41.8105 39.6487 41.8105 40.9672C41.8105 42.2873 42.8618 43.3574 44.1569 43.3574Z" fill="#51B1CF"/></svg>