<svg  viewBox="95 25 150 32" fill="none" xmlns="http://www.w3.org/2000/svg"><path d="M186.723 36.1416V32.8143C187.163 32.6088 187.535 32.2826 187.796 31.8738C188.058 31.4649 188.198 30.9902 188.2 30.5049V30.4284C188.2 29.0134 187.053 27.8662 185.638 27.8662H185.562C184.882 27.8662 184.23 28.1361 183.75 28.6166C183.269 29.0972 182.999 29.7489 182.999 30.4284V30.5049C183.002 30.9902 183.142 31.4649 183.403 31.8738C183.665 32.2826 184.037 32.6088 184.477 32.8143V36.1416C183.213 36.3352 182.023 36.8592 181.027 37.6605L171.901 30.553C171.966 30.3181 172 30.0766 172.004 29.8341C172.005 29.2631 171.837 28.7045 171.521 28.2291C171.204 27.7537 170.754 27.3829 170.227 27.1634C169.7 26.9439 169.119 26.8857 168.559 26.9962C167.999 27.1066 167.484 27.3807 167.079 27.7838C166.675 28.187 166.399 28.701 166.287 29.2609C166.175 29.8207 166.231 30.4014 166.449 30.9292C166.666 31.4571 167.036 31.9086 167.51 32.2265C167.984 32.5444 168.542 32.7145 169.114 32.7152C169.613 32.7129 170.103 32.5795 170.535 32.3284L179.521 39.3209C178.714 40.5404 178.293 41.9748 178.313 43.4371C178.332 44.8994 178.792 46.3219 179.632 47.519L176.899 50.2529C176.678 50.1824 176.448 50.1448 176.216 50.1416C175.748 50.142 175.289 50.2813 174.9 50.542C174.51 50.8026 174.207 51.1729 174.028 51.606C173.848 52.0392 173.802 52.5157 173.893 52.9754C173.985 53.4351 174.21 53.8574 174.542 54.1888C174.873 54.5202 175.295 54.7459 175.755 54.8375C176.215 54.9291 176.691 54.8823 177.125 54.703C177.558 54.5239 177.928 54.2203 178.189 53.8307C178.449 53.4411 178.589 52.983 178.589 52.5142C178.586 52.2824 178.548 52.0522 178.478 51.8312L181.181 49.1265C182.063 49.8054 183.088 50.2733 184.179 50.4946C185.269 50.7159 186.396 50.6846 187.473 50.4032C188.549 50.1219 189.547 49.5977 190.39 48.8711C191.232 48.1445 191.898 47.2347 192.334 46.2113C192.771 45.1879 192.968 44.0781 192.909 42.967C192.851 41.8558 192.539 40.7727 191.997 39.8008C191.456 38.8288 190.699 37.9937 189.785 37.3594C188.87 36.7252 187.823 36.3086 186.723 36.1416ZM185.602 47.085C185.102 47.0988 184.605 47.0123 184.139 46.8305C183.674 46.6488 183.249 46.3756 182.891 46.027C182.533 45.6784 182.248 45.2616 182.053 44.801C181.859 44.3406 181.759 43.8458 181.759 43.3458C181.759 42.846 181.859 42.3512 182.053 41.8908C182.248 41.4302 182.533 41.0134 182.891 40.6648C183.249 40.3162 183.674 40.043 184.139 39.8612C184.605 39.6795 185.102 39.593 185.602 39.6067C186.571 39.6407 187.488 40.0491 188.161 40.746C188.835 41.443 189.211 42.3741 189.212 43.3431C189.212 44.3122 188.837 45.2436 188.164 45.9412C187.492 46.6389 186.574 47.0483 185.606 47.0831" fill="#FF7A59"/></svg>