<svg width="208" height="57" viewBox="0 0 208 57" fill="none" xmlns="http://www.w3.org/2000/svg">
<path fill-rule="evenodd" clip-rule="evenodd" d="M32.2565 7.64279C35.0964 7.64279 37.3987 8.38924 37.3987 9.31028C37.3987 10.231 35.0964 10.9771 32.2565 10.9771C29.4162 10.9771 27.1139 10.231 27.1139 9.31028C27.1139 8.38924 29.4159 7.64279 32.2565 7.64279Z" fill="#0078C1"/>
<path fill-rule="evenodd" clip-rule="evenodd" d="M54.0078 28.2575C54.011 29.2996 53.9462 30.3258 53.8187 31.3327C53.8442 30.8828 53.8581 30.4304 53.8564 29.9734C53.8174 17.631 43.7792 7.65634 31.4368 7.69539C19.094 7.73509 9.11971 17.7726 9.15908 30.1154C9.18941 39.593 15.1155 47.6743 23.4536 50.8973C13.8366 47.9383 6.83259 38.9979 6.79871 28.4069C6.7574 15.371 17.2919 4.76865 30.3282 4.72766C43.3645 4.68635 53.9662 15.2212 54.0078 28.2575Z" fill="#0078C1"/>
<path fill-rule="evenodd" clip-rule="evenodd" d="M15.5131 14.2059C14.7951 14.9614 14.3378 15.766 14.1938 16.6015C13.4458 20.9392 21.3921 24.4559 31.9431 24.4559C39.1333 24.4559 45.6765 22.8226 49.3526 20.4089C46.1693 23.7055 38.818 26.0524 30.5783 26.0524C19.9702 26.0524 11.9083 22.1623 12.5722 17.3644C12.7261 16.2501 13.338 15.1851 14.3181 14.2059H15.5131Z" fill="#0078C1"/>
<path fill-rule="evenodd" clip-rule="evenodd" d="M31.7698 7.49079C36.1036 7.49079 39.7526 8.24531 41.6254 9.37289C39.71 8.65613 36.5503 8.19529 32.8622 8.19529C26.5043 8.19529 20.9845 9.56491 20.534 11.2537C20.0835 12.9428 24.8717 14.3118 31.2293 14.3118C35.9355 14.3118 40.1812 13.5618 42.253 12.4868C40.4858 14.0985 35.6905 15.2751 30.2782 15.2751C23.6899 15.2751 18.6835 13.5324 19.096 11.3828C19.5071 9.2338 25.1818 7.49079 31.7698 7.49079Z" fill="#0078C1"/>
<path fill-rule="evenodd" clip-rule="evenodd" d="M11.9755 43.0845C18.6083 33.3326 32.5288 30.8218 40.1389 28.4427C41.4824 29.7133 40.2235 31.5722 38.3478 32.9318C36.8823 33.9945 34.3583 34.4327 32.5314 35.2241C27.7768 37.2824 31.8534 39.9367 35.9536 40.1875C45.1669 40.75 47.9968 37.5489 50.3927 36.4652C51.9879 35.7436 53.1626 35.773 53.1729 36.8183C53.1836 37.9243 52.1815 38.8608 51.0704 39.5856C50.7215 40.4311 50.0603 41.5316 49.5933 42.2413C51.4464 37.7616 50.1419 37.4721 49.1667 37.9546C47.0496 39.0018 47.8364 42.4556 44.8203 47.0243C45.2682 46.0006 48.3802 38.5929 44.7293 40.4586C42.6571 41.5174 43.905 45.7806 38.0244 50.7575C42.8223 45.2 41.1597 43.9185 39.4499 44.114C37.4852 44.3386 36.1068 52.8978 27.5206 51.8154C21.3992 51.0441 15.799 47.8889 11.9755 43.0845Z" fill="#0078C1"/>
<path fill-rule="evenodd" clip-rule="evenodd" d="M46.6285 34.13C47.9326 20.5929 41.5963 10.8945 33.9378 9.11827C43.7863 13.3959 46.6469 26.6939 46.6285 34.13Z" fill="#0078C1"/>
<path fill-rule="evenodd" clip-rule="evenodd" d="M32.3242 37.7087C31.0185 25.091 31.0185 20.2611 32.3242 7.64279C33.6296 20.2611 33.6296 25.0913 32.3242 37.7087Z" fill="#0078C1"/>
<path fill-rule="evenodd" clip-rule="evenodd" d="M30.3056 9.11827C18.2814 13.8374 15.4315 34.9988 18.7655 44.4548C12.7561 33.0325 17.6169 12.0615 30.3056 9.11827Z" fill="#0078C1"/>
<path fill-rule="evenodd" clip-rule="evenodd" d="M101.79 45.4846L87.44 6.81625H81.9382L66.1676 49.5073C65.8009 50.2402 65.7277 50.8265 64.774 51.4142H70.9354L74.1629 42.685C77.9036 37.3304 87.1456 34.616 92.06 34.2491L98.4428 51.4139H98.9104H104.897H105.072L108.299 42.6846C112.04 37.3301 121.282 34.6157 126.196 34.2487L132.579 51.4136H135.496H139.034H141.364V29.9217H164.029V51.4142H170.191C169.531 50.7536 169.531 50.2398 169.531 49.4334V8.94362C169.531 8.21008 169.604 7.55011 170.191 7.03666H164.029V26.7678H141.364V7.03666H135.496C135.936 7.40295 135.936 8.20975 135.936 8.94362V45.5097L121.577 6.81625H116.075L101.79 45.4846ZM178.683 14.6651C178.683 12.6846 180.37 8.28333 186.018 8.28333C192.986 8.28333 196.14 16.0586 196.14 16.0586L198.781 11.071C198.781 11.071 194.38 5.56958 186.018 5.56958C179.343 5.56958 172.667 9.0172 172.667 16.5717C172.667 32.4157 195.186 30.2157 195.186 40.9981C195.186 44.3715 193.5 49.2865 186.018 49.2865C178.096 49.2865 173.401 41.5109 173.401 41.5109L170.688 46.5728C170.688 46.5728 177.069 52.0006 186.018 52.0006C194.599 52.0006 201.201 46.8664 201.201 39.8976C201.201 23.6138 178.683 29.7752 178.683 14.6651ZM111.014 35.2766L118.496 14.2246L125.244 31.7554C121.502 32.0488 115.121 33.3693 111.014 35.2766ZM76.877 35.2766L84.3586 14.2246L91.1077 31.7554C87.3661 32.0488 80.9846 33.3693 76.877 35.2766Z" fill="#0078C1"/>
</svg>
