<svg  viewBox="95 25 150 32" fill="none" xmlns="http://www.w3.org/2000/svg"><defs>
<clipPath id="clip0_0_91">
<rect width="50" height="41.8605" fill="white" transform="translate(20 20)"/>
</clipPath>
</defs><path d="M147.811 41.1691L146.083 36.5699C146.067 36.5285 146.039 36.4928 146.002 36.4677C145.966 36.4426 145.922 36.4291 145.878 36.4291C145.833 36.4291 145.79 36.4426 145.753 36.4677C145.717 36.4928 145.689 36.5285 145.673 36.5699L143.945 41.1699C143.933 41.2025 143.929 41.2376 143.934 41.272C143.938 41.3065 143.951 41.3393 143.972 41.3675C143.992 41.3958 144.019 41.4187 144.05 41.4343C144.081 41.4498 144.115 41.4575 144.15 41.4566H147.62C147.672 41.4572 147.722 41.4382 147.76 41.4034C147.798 41.3686 147.822 41.3206 147.826 41.2691C147.83 41.2353 147.824 41.2012 147.811 41.1699V41.1691ZM148.616 43.75H143.14C143.095 43.7503 143.051 43.7642 143.015 43.7898C142.978 43.8154 142.95 43.8516 142.934 43.8934L141.851 46.7625C141.835 46.8043 141.807 46.8403 141.771 46.8659C141.734 46.8916 141.691 46.9055 141.646 46.9059H139.272C139.236 46.9064 139.2 46.8979 139.168 46.8811C139.136 46.8643 139.108 46.8398 139.088 46.8097C139.068 46.7797 139.055 46.745 139.052 46.7089C139.048 46.6728 139.053 46.6364 139.068 46.603L144.529 33.1964C144.546 33.1558 144.574 33.1214 144.611 33.098C144.648 33.0747 144.692 33.0635 144.735 33.0662H147.004C147.047 33.0665 147.09 33.0788 147.126 33.1018C147.162 33.1248 147.192 33.1576 147.21 33.1964L152.671 46.603C152.685 46.6365 152.691 46.673 152.687 46.7092C152.684 46.7454 152.671 46.7801 152.651 46.8102C152.63 46.8403 152.603 46.865 152.571 46.8818C152.538 46.8986 152.502 46.9072 152.466 46.9066H150.095C150.051 46.9063 150.007 46.8923 149.97 46.8666C149.934 46.8408 149.906 46.8046 149.89 46.7625L148.807 43.8934C148.796 43.8511 148.772 43.8137 148.737 43.7875C148.702 43.7612 148.66 43.7477 148.616 43.7493V43.75ZM153.8 37.7662H155.836C155.893 37.7673 155.948 37.7905 155.989 37.8308C156.03 37.8711 156.054 37.9257 156.056 37.9831V46.6912C156.054 46.7486 156.03 46.8029 155.989 46.843C155.948 46.8831 155.893 46.9059 155.836 46.9066H153.801C153.743 46.9061 153.688 46.8834 153.647 46.8433C153.606 46.8031 153.582 46.7486 153.58 46.6912V37.9831C153.58 37.9542 153.585 37.9256 153.596 37.8989C153.607 37.8722 153.624 37.848 153.644 37.8277C153.665 37.8075 153.689 37.7916 153.716 37.7811C153.743 37.7705 153.772 37.7654 153.801 37.7662H153.8ZM163.466 39.8853C163.464 39.9429 163.441 39.9976 163.4 40.0381C163.359 40.0786 163.304 40.1019 163.246 40.103H163.187C162.177 40.103 161.445 40.3324 160.976 40.8089C160.508 41.2853 160.273 42.0633 160.273 43.1574V46.6758C160.272 46.7331 160.248 46.7875 160.207 46.8279C160.166 46.8682 160.112 46.8914 160.054 46.8927H158.047C157.99 46.8914 157.935 46.8682 157.894 46.8279C157.853 46.7875 157.83 46.7331 157.828 46.6758V37.9831C157.83 37.9257 157.854 37.8711 157.895 37.8308C157.935 37.7905 157.99 37.7673 158.048 37.7662H160.039C160.097 37.7672 160.152 37.7902 160.193 37.8305C160.234 37.8709 160.258 37.9255 160.259 37.9831V39.6986H160.303C160.506 39.0469 160.905 38.4736 161.445 38.0559C162.009 37.6578 162.688 37.4553 163.379 37.4794H163.481V39.8861H163.466V39.8853ZM169.016 39.8C168.959 39.801 168.904 39.8237 168.864 39.8637C168.823 39.9036 168.799 39.9577 168.797 40.0147V43.6339C168.77 43.9169 168.848 44.1993 169.016 44.428C169.163 44.5853 169.412 44.6574 169.778 44.6574H169.983C170.04 44.6587 170.095 44.6819 170.136 44.7222C170.177 44.7626 170.2 44.817 170.202 44.8743V46.6905C170.2 46.7477 170.176 46.8019 170.136 46.842C170.095 46.8822 170.04 46.905 169.983 46.9059H169.12C168.226 46.9059 167.538 46.675 167.055 46.228C166.571 45.7677 166.337 45.1037 166.337 44.1964V40.0147C166.335 39.9575 166.311 39.9032 166.27 39.8632C166.229 39.8232 166.174 39.8005 166.117 39.8H164.843C164.786 39.7988 164.731 39.7755 164.69 39.735C164.65 39.6944 164.626 39.6398 164.624 39.5824V37.9831C164.626 37.9258 164.65 37.8712 164.69 37.8308C164.731 37.7905 164.786 37.7673 164.843 37.7662H166.118C166.175 37.7655 166.23 37.7427 166.271 37.7026C166.312 37.6625 166.336 37.6081 166.337 37.5508V34.3206C166.339 34.2633 166.363 34.209 166.404 34.1688C166.445 34.1287 166.5 34.1059 166.557 34.1052H168.593C168.65 34.1059 168.705 34.1287 168.746 34.1688C168.787 34.209 168.811 34.2633 168.812 34.3206V37.5508C168.814 37.6081 168.838 37.6625 168.879 37.7026C168.92 37.7427 168.975 37.7655 169.032 37.7662H170.496C170.554 37.7673 170.609 37.7905 170.649 37.8308C170.69 37.8711 170.714 37.9257 170.716 37.9831V39.5824C170.714 39.64 170.691 39.6947 170.65 39.7352C170.609 39.7757 170.554 39.7989 170.496 39.8H169.016ZM178.315 44.1824C178.55 43.9347 178.731 43.6422 178.849 43.3225C178.968 43.0028 179.02 42.6625 179.004 42.3221C179.017 41.982 178.963 41.6427 178.845 41.3235C178.726 41.0043 178.547 40.7115 178.315 40.4618C177.82 40.0079 177.172 39.7561 176.5 39.7561C175.827 39.7561 175.18 40.0079 174.684 40.4618C174.45 40.7095 174.268 41.002 174.15 41.3216C174.031 41.6414 173.979 41.9816 173.995 42.3221C173.982 42.6622 174.037 43.0015 174.155 43.3207C174.273 43.6399 174.452 43.9327 174.684 44.1824C174.921 44.419 175.205 44.6039 175.518 44.7253C175.831 44.8468 176.165 44.9023 176.5 44.8883C176.835 44.9069 177.171 44.8536 177.484 44.7319C177.798 44.6102 178.081 44.4228 178.316 44.1824H178.315ZM173.629 46.6191C172.941 46.2293 172.381 45.6478 172.018 44.9456C171.633 44.1247 171.432 43.2288 171.432 42.3217C171.432 41.4147 171.633 40.5188 172.018 39.6978C172.386 38.999 172.944 38.4189 173.629 38.025C174.316 37.638 175.094 37.4392 175.883 37.4486C176.528 37.4327 177.167 37.5767 177.743 37.8677C178.252 38.1373 178.678 38.5414 178.973 39.0361H179.018V37.9669C179.02 37.9098 179.043 37.8557 179.084 37.8156C179.125 37.7755 179.18 37.7526 179.237 37.7515H181.243C181.301 37.7525 181.355 37.7752 181.396 37.8154C181.437 37.8555 181.461 37.9097 181.463 37.9669V46.6743C181.461 46.732 181.438 46.7868 181.397 46.8274C181.355 46.8679 181.3 46.8911 181.243 46.8919H179.238C179.181 46.8908 179.126 46.8676 179.085 46.8271C179.044 46.7866 179.02 46.7319 179.018 46.6743V45.6081H178.974C178.679 46.1033 178.253 46.5077 177.743 46.7772C177.167 47.0671 176.528 47.2108 175.883 47.1956C175.094 47.205 174.316 47.0062 173.629 46.6191ZM189.826 44.1824C190.06 43.9347 190.241 43.6422 190.36 43.3225C190.478 43.0028 190.53 42.6625 190.514 42.3221C190.527 41.982 190.473 41.6427 190.355 41.3235C190.237 41.0043 190.057 40.7115 189.826 40.4618C189.33 40.0077 188.682 39.7558 188.01 39.7558C187.337 39.7558 186.689 40.0077 186.193 40.4618C185.96 40.7097 185.778 41.0022 185.66 41.3218C185.542 41.6415 185.489 41.9817 185.506 42.3221C185.493 42.6622 185.547 43.0015 185.665 43.3207C185.783 43.6399 185.962 43.9327 186.194 44.1824C186.432 44.419 186.715 44.6039 187.029 44.7253C187.341 44.8468 187.675 44.9023 188.01 44.8883C188.346 44.9069 188.682 44.8535 188.995 44.7318C189.308 44.61 189.591 44.4227 189.826 44.1824H189.826ZM186.78 46.7765C186.271 46.5068 185.845 46.1024 185.549 45.6074H185.505V46.675C185.503 46.7324 185.479 46.7868 185.439 46.8272C185.398 46.8675 185.343 46.8907 185.286 46.8919H183.25C183.193 46.8907 183.138 46.8675 183.097 46.8272C183.057 46.7868 183.032 46.7324 183.031 46.675V33.2677C183.032 33.2104 183.057 33.1561 183.097 33.1159C183.138 33.0757 183.193 33.0526 183.25 33.0515H185.286C185.343 33.0524 185.398 33.0753 185.439 33.1154C185.48 33.1555 185.504 33.2097 185.506 33.267V39.0493H185.55C185.846 38.5549 186.271 38.1506 186.78 37.8802C187.357 37.5905 187.995 37.4468 188.64 37.4618C189.429 37.4523 190.207 37.6519 190.894 38.0405C191.582 38.4296 192.141 39.0103 192.504 39.7118C192.916 40.5235 193.118 41.4255 193.091 42.3353C193.11 43.2445 192.909 44.1447 192.505 44.9596C192.137 45.6589 191.579 46.239 190.895 46.6324C190.207 47.0194 189.429 47.2183 188.64 47.2089C187.994 47.2141 187.356 47.0655 186.779 46.775L186.78 46.7765ZM196.518 46.8934H194.484C194.426 46.8925 194.371 46.8694 194.33 46.8288C194.289 46.7882 194.265 46.7334 194.264 46.6758V33.2684C194.266 33.2109 194.29 33.1564 194.331 33.1161C194.372 33.0759 194.427 33.053 194.485 33.0522H196.519C196.576 33.0535 196.631 33.0765 196.671 33.1165C196.712 33.1566 196.736 33.2106 196.738 33.2677V46.675C196.739 46.7173 196.727 46.7588 196.704 46.7943C196.682 46.8298 196.648 46.8577 196.61 46.8743C196.581 46.8867 196.55 46.8927 196.519 46.8919V46.8934H196.518ZM201.307 39.8721C200.953 40.155 200.71 40.5531 200.619 40.9971C200.612 41.0291 200.614 41.0622 200.622 41.0939C200.63 41.1255 200.646 41.1549 200.667 41.1798C200.687 41.2047 200.714 41.2246 200.744 41.2379C200.773 41.2512 200.807 41.2576 200.839 41.2566H204.705C204.736 41.2568 204.767 41.2502 204.796 41.2376C204.824 41.225 204.849 41.2064 204.87 41.1832C204.891 41.16 204.907 41.1327 204.916 41.103C204.926 41.0733 204.929 41.042 204.925 41.0111C204.866 40.5801 204.652 40.1853 204.323 39.9008C203.9 39.564 203.371 39.3897 202.83 39.4096C202.286 39.3949 201.751 39.5566 201.307 39.8714L201.307 39.8721H201.307ZM206.257 38.7478C207.048 39.5971 207.443 40.7978 207.443 42.3508V42.6118C207.44 42.6691 207.417 42.7233 207.376 42.7634C207.335 42.8035 207.28 42.8264 207.223 42.8272H200.766C200.734 42.8279 200.702 42.8353 200.673 42.8491C200.644 42.8628 200.618 42.8826 200.598 42.907C200.576 42.9315 200.561 42.9601 200.552 42.991C200.543 43.0219 200.541 43.0542 200.546 43.0861C200.629 43.6261 200.905 44.1177 201.323 44.4706C201.835 44.8716 202.474 45.0758 203.124 45.0464C204.095 45.0328 205.023 44.6457 205.716 43.9655C205.739 43.9446 205.766 43.929 205.796 43.9198C205.826 43.9106 205.857 43.908 205.887 43.9122C205.918 43.9164 205.948 43.9273 205.973 43.9441C206 43.961 206.022 43.9833 206.038 44.0096L207.019 45.4074C207.047 45.452 207.06 45.5046 207.054 45.5569C207.048 45.6092 207.026 45.6583 206.99 45.6964C206.503 46.1114 205.967 46.465 205.394 46.7493C204.68 47.0676 203.905 47.225 203.123 47.2103C202.208 47.2311 201.301 47.0226 200.487 46.6037C199.754 46.2182 199.148 45.6272 198.745 44.903C198.318 44.1264 198.101 43.2521 198.115 42.3662C198.099 41.4789 198.306 40.6016 198.716 39.8147C199.101 39.0929 199.685 38.4974 200.4 38.1C201.176 37.6766 202.049 37.4627 202.934 37.4794C204.368 37.4625 205.467 37.8956 206.257 38.7471V38.7478ZM156.319 34.539C156.323 34.8344 156.24 35.1245 156.079 35.3725C155.918 35.6205 155.688 35.8152 155.417 35.9322C155.145 36.0492 154.845 36.0831 154.555 36.0296C154.264 35.9762 153.996 35.8378 153.784 35.6319C153.572 35.426 153.426 35.1619 153.364 34.873C153.302 34.5841 153.327 34.2833 153.436 34.0087C153.545 33.7341 153.733 33.498 153.977 33.3303C154.22 33.1625 154.507 33.0706 154.803 33.0662H154.81C155.204 33.0644 155.583 33.2176 155.866 33.4926C156.148 33.7677 156.311 34.1428 156.319 34.5368V34.5383V34.539Z" fill="#181D26"/></svg>