<svg width="259" height="46" viewBox="0 0 259 46" fill="none" xmlns="http://www.w3.org/2000/svg">
<path d="M53.4679 3.80884C53.9947 3.80884 54.4404 5.22702 54.4404 6.92883V7.73922C54.5214 7.6987 54.6024 7.6987 54.724 7.6987H71.9853C73.6871 7.6987 75.1053 9.11688 75.1053 10.8592V27.067C75.1053 28.7688 73.6871 30.187 71.9853 30.187H63.5977C61.8959 30.187 60.4778 28.7688 60.4778 27.067V20.7054C59.7079 21.2727 59.2217 22.1641 59.2217 23.1771V28.4852C59.2217 30.187 60.6398 31.6051 62.3416 31.6051H67.8118V39.9927C67.8118 41.0462 66.9609 41.8971 65.9074 41.8971H55.6154C54.5619 41.8971 53.711 41.0462 53.711 39.9927V32.294C53.711 31.2405 52.8601 30.3896 51.8066 30.3896H26.1578C25.1043 30.3896 24.2534 31.2405 24.2534 32.294V39.9927C24.2534 41.0462 23.4025 41.8971 22.349 41.8971H12.0571C11.0036 41.8971 10.1527 41.0462 10.1527 39.9927V17.788L5.53346 21.4348C5.33086 21.5969 5.04722 21.5563 4.88515 21.3537L3.54801 19.7735C3.38593 19.6114 3.38593 19.3683 3.50749 19.2062L10.3147 8.79272C10.6389 8.10389 11.2872 7.65818 12.0571 7.65818H48.2004C49.3754 7.65818 50.2669 8.71169 50.0643 9.88675L49.3349 14.3034C49.1323 15.4784 50.0238 16.5319 51.1988 16.5319H58.4923C59.4243 16.5319 60.1941 15.8836 60.3562 14.9922C59.951 15.1543 59.4243 15.2353 58.8975 15.2353H53.711C52.0092 15.2353 50.8341 13.8576 51.1178 12.1558L52.0092 6.88831C52.2928 5.1865 52.9411 3.80884 53.4679 3.80884ZM82.0746 3.80884C82.6013 3.80884 83.2497 5.1865 83.5333 6.88831L84.4247 12.1558C84.7084 13.8576 83.5333 15.2353 81.791 15.2353H76.3208V11.4265H77.9821C79.684 11.4265 81.1021 10.0083 81.1021 8.30649V6.92883C81.1021 5.22702 81.5478 3.80884 82.0746 3.80884Z" fill="#0075A8"/>
<path d="M175.108 8.30676C183.293 8.30676 186.575 12.8044 185.683 18.8823L179.2 19.4496C179.889 14.9925 178.147 13.2096 174.986 13.2096C171.947 13.2096 169.475 15.4382 169.475 22.6911C169.475 30.3493 172.15 32.2942 175.189 32.2942C178.066 32.2942 180.375 30.5114 179.889 26.8241L185.967 27.4319C186.413 33.1452 182.32 37.3189 174.824 37.3189C167.206 37.3592 162.304 32.8615 162.304 22.6506C162.304 12.4803 167.328 8.30676 175.108 8.30676ZM102.902 8.75248C108.413 8.75248 112.1 11.4268 112.1 16.5727C112.1 20.7867 109.223 23.2989 106.427 24.1904C107.278 24.8792 107.886 25.8517 108.372 26.8646C108.481 27.086 108.586 27.3091 108.69 27.5317L108.813 27.7985C109.775 29.884 110.638 31.8485 112.789 31.8485C113.211 31.8485 113.594 31.7509 113.788 31.6912L121.5 8.75248H128.551L138.032 36.8324H130.982L129.24 31.5244H119.839L118.137 36.8324L112.321 36.8326C111.803 36.9165 111.16 36.9945 110.56 36.9945C107.238 36.9945 105.333 35.6979 103.348 31.2407C103.127 30.726 102.888 30.1078 102.627 29.4743L102.514 29.2021C101.789 27.4758 100.906 25.7301 99.8226 25.7301H98.2423V36.8324H91.273V8.75248H102.902ZM244.558 8.75248C250.069 8.75248 253.756 11.4268 253.756 16.5727C253.756 20.7867 250.879 23.2989 248.083 24.1904C248.934 24.8792 249.542 25.8517 250.028 26.8646C250.137 27.086 250.242 27.3091 250.346 27.5317L250.469 27.7985C251.431 29.884 252.293 31.8485 254.445 31.8485C255.052 31.8485 255.579 31.6459 255.579 31.6459L255.012 36.6298C255.012 36.6298 253.513 36.9945 252.216 36.9945C248.893 36.9945 246.989 35.6979 245.004 31.2407C244.783 30.726 244.543 30.1078 244.282 29.4743L244.169 29.2021C243.445 27.4758 242.562 25.7301 241.478 25.7301H239.898V36.8324H232.929V8.75248H244.558ZM194.354 8.75248V19.3686H202.863V8.75248H209.833V36.8729H202.863V24.9602H194.354V36.8729H187.385V8.75248H194.354ZM231.227 8.75248V13.939H219.557V19.9763H229.323V25.1223H219.557V31.6865H231.632V36.8729H212.629V8.75248H231.227ZM145.731 8.75248L153.106 22.6911C153.713 23.9067 154.564 26.0137 155.213 27.675H155.375C155.294 26.0948 155.091 23.8662 155.091 22.2049V8.75248H160.804V36.8324H153.511L145.853 22.9343C145.164 21.6782 144.394 19.8548 143.827 18.3556H143.665C143.786 19.9358 143.989 21.7997 143.989 23.3395V36.8324H138.276V8.75248H145.731ZM124.661 15.6408H124.499C124.499 15.6408 124.094 18.5177 123.445 20.4221L121.5 26.3784H127.538L125.633 20.4626C125.012 18.5582 124.688 15.8709 124.663 15.6547L124.661 15.6408ZM101.646 13.8174H98.2829V20.7057H100.795C102.781 20.7057 105.131 20.0979 105.131 17.0995C105.131 14.6278 103.55 13.8174 101.646 13.8174ZM243.261 13.8174H239.898V20.7057H242.41C244.396 20.7057 246.746 20.0979 246.746 17.0995C246.746 14.6278 245.166 13.8174 243.261 13.8174Z" fill="#59595B"/>
</svg>
