<svg  viewBox="20 16 50 50" fill="none" xmlns="http://www.w3.org/2000/svg"><defs>
<clipPath id="clip0_0_408">
<rect width="50" height="50" fill="white" transform="translate(20 16)"/>
</clipPath>
<clipPath id="clip1_0_408">
<rect width="100" height="27.7228" fill="white" transform="translate(98 27)"/>
</clipPath>
</defs><g clip-path="url(#clip0_0_408)">
<path d="M45 66C58.8071 66 70 54.8071 70 41C70 27.1929 58.8071 16 45 16C31.1929 16 20 27.1929 20 41C20 54.8071 31.1929 66 45 66Z" fill="#4661EE"/>
<path d="M45.9236 52.7648C49.4845 52.7648 51.8479 51.6314 53.9278 49.8054C54.2744 49.4905 54.558 49.0183 54.558 48.42C54.558 47.4441 53.7072 46.6256 52.7303 46.6256C52.2576 46.6256 51.8479 46.8145 51.5643 47.0663C49.9572 48.42 48.3815 49.1757 46.0496 49.1757C41.8269 49.1757 38.7702 45.6811 38.7702 41.3678V41.3048C38.7702 36.9915 41.8585 33.5284 46.0496 33.5284C48.161 33.5284 49.7996 34.2839 51.3122 35.5118C51.5643 35.7007 51.9424 35.8896 52.4782 35.8896C53.5496 35.8896 54.4005 35.0711 54.4005 34.0006C54.4005 33.308 54.0538 32.7728 53.6441 32.4579C51.7219 30.9782 49.4845 29.9707 46.0811 29.9707C39.4004 29.9707 34.7051 35.1025 34.7051 41.3678V41.4307C34.7051 47.7589 39.495 52.7648 45.9236 52.7648Z" fill="white"/>
</g></svg>