<svg width="172" height="69" viewBox="0 0 172 69" fill="none" xmlns="http://www.w3.org/2000/svg">
<path d="M65.3781 3.86096H4.30005V64.939H65.3781V3.86096Z" fill="#DD4B39"/>
<path d="M85.7616 59.5664L84.16 55.429H74.0499L72.4149 59.5664H66.142L76.1853 36.1764H82.4583L92.2681 59.5664H85.7616ZM75.885 50.7576H82.3582L79.155 42.4159L75.885 50.7576ZM111.517 43.3836C109.048 41.9822 105.912 40.8811 103.976 40.8811C102.508 40.8811 101.541 41.4149 101.541 42.4827C101.541 46.3532 113.853 44.151 113.853 52.5594C113.853 57.3309 109.649 59.7666 104.444 59.7666C100.54 59.7666 96.4689 58.3319 93.6661 56.0296L96.0351 51.2581C98.4375 53.3268 102.075 54.795 104.51 54.795C106.312 54.795 107.447 54.1277 107.447 52.8931C107.447 48.9224 95.1343 51.3248 95.1343 43.0499C95.1343 38.6789 98.838 35.9094 104.477 35.9094C107.914 35.9094 111.384 36.9772 113.82 38.5454L111.517 43.3836ZM129.232 36.0095C136.472 36.0095 141.878 41.0813 141.878 47.8547C141.878 54.6949 136.472 59.8334 129.232 59.8334C121.991 59.8334 116.586 54.6949 116.586 47.8547C116.586 41.0479 121.991 36.0095 129.232 36.0095ZM129.298 41.2147C125.795 41.2147 122.859 44.0843 122.859 47.8881C122.859 51.6919 125.828 54.6282 129.298 54.6282C132.802 54.6282 135.605 51.6919 135.605 47.8881C135.605 44.0843 132.802 41.2147 129.298 41.2147ZM146.045 36.1764H151.417L162.028 50.2571V36.1764H167.7V59.5664H162.361L151.751 45.5524V59.5664H146.045V36.1764Z" fill="#333333"/>
<path d="M40.5311 59.5661H33.6242L30.2208 53.0929H25.6829V59.5661H19.5768V36.176H30.0873C36.2935 36.176 39.8304 39.179 39.8304 44.3842C39.8304 47.9211 38.3622 50.5237 35.6595 51.9251L40.5311 59.5661ZM25.6829 41.0476V48.2214H30.1207C32.5898 48.2214 34.0246 46.9535 34.0246 44.5844C34.0246 42.2821 32.5898 41.0476 30.1207 41.0476H25.6829ZM43.7343 36.176H62.1861V41.0476H49.8404V45.4186H60.9849V50.2568L49.8404 50.2901V54.6945H62.5197V59.5661H43.7343V36.176Z" fill="white"/>
</svg>
