<svg width="227" height="53" viewBox="0 0 227 53" fill="none" xmlns="http://www.w3.org/2000/svg">
<path d="M17.2492 6.44721C16.7634 5.1981 15.5837 4.36536 14.1958 4.36536C14.1958 4.36536 14.1958 4.36536 14.1264 4.36536H6.56237C5.03567 4.36536 3.85596 5.61447 3.85596 7.07176C3.85596 8.52906 5.10507 9.77817 6.56237 9.77817H12.6691L15.7919 17.2728L19.1229 25.5308H25.0214L17.2492 6.44721Z" fill="#1E88E5"/>
<path d="M48.3985 4.36536C47.3576 4.36536 46.6116 4.98124 46.0565 6.23035L31.6136 42.2507L27.1029 30.8005H24.956H21.3345L27.168 45.0265C28.0007 46.9002 29.3192 47.8674 30.9847 47.8674H32.3076C33.973 47.8674 35.2916 46.9002 36.1243 45.0265L51.2611 8.24714C51.3999 7.96956 51.4563 7.54885 51.4563 6.9243C51.4563 6.29974 51.183 5.74458 50.6972 5.18942C50.2115 4.63426 49.4395 4.36536 48.3985 4.36536ZM64.2293 4.36536C63.4659 4.36536 62.8327 4.63426 62.2775 5.18942C61.7224 5.74458 61.4535 6.44287 61.4535 7.20622V31.0825C61.4535 36.4259 63.3185 40.6503 67.1352 43.7037C70.3968 46.3407 74.4347 47.7372 79.0842 47.7372C83.6642 47.7372 87.6154 46.4101 90.9464 43.7037C94.7631 40.6503 96.7148 36.4259 96.7148 31.0825V7.20622C96.7148 6.44287 96.4242 5.74458 95.8691 5.18942C95.3139 4.63426 94.6156 4.36536 93.8523 4.36536C93.0195 4.36536 92.3993 4.63426 92.0524 5.18942C91.4972 5.74458 91.2283 6.44287 91.2283 7.20622V31.2993C91.2283 34.9772 89.9748 37.8051 87.4766 39.8869C85.1866 41.7606 82.4108 42.7495 79.1492 42.7495C75.8876 42.7495 73.1118 41.7606 70.8218 39.8869C68.3236 37.8051 67.0701 34.9772 67.0701 31.2993V7.20622C67.0701 6.44287 66.8012 5.74458 66.2461 5.18942C65.6909 4.63426 64.9926 4.36536 64.2293 4.36536ZM146.679 4.36536C145.916 4.36536 145.278 4.6386 144.793 5.12436C144.307 5.61013 144.034 6.24769 144.034 7.01104C144.034 7.77439 144.307 8.39027 144.793 8.87603C145.348 9.3618 145.916 9.63504 146.679 9.63504H159.235V45.2434C159.235 46.0067 159.504 46.6183 160.059 47.1734C160.545 47.7286 161.248 48.0192 162.011 48.0192C162.775 48.0192 163.473 47.7286 164.028 47.1734C164.583 46.6877 164.852 46.0067 164.852 45.2434V9.63504H177.343C178.107 9.63504 178.722 9.3618 179.208 8.87603C179.694 8.32087 179.989 7.77439 179.989 7.01104C179.989 6.24769 179.694 5.61013 179.208 5.12436C178.722 4.6386 178.107 4.36536 177.343 4.36536H146.679ZM113.912 4.43038C113.148 4.43038 112.537 4.72097 111.982 5.27613C111.427 5.83129 111.136 6.50789 111.136 7.27124V44.0506C111.136 45.0915 111.479 45.998 112.242 46.7613C113.005 47.5247 113.912 47.8674 114.953 47.8674H136.747C137.51 47.8674 138.209 47.6635 138.764 47.1083C139.319 46.6226 139.588 45.9416 139.588 45.1783C139.588 44.4149 139.319 43.7166 138.764 43.1615C138.209 42.6063 137.51 42.3157 136.747 42.3157V42.4025H116.753V7.27124C116.753 6.50789 116.484 5.83129 115.929 5.27613C115.373 4.72097 114.675 4.43038 113.912 4.43038ZM191.634 4.43038C190.871 4.43038 190.173 4.72097 189.617 5.27613C189.062 5.83129 188.793 6.50789 188.793 7.27124V44.8963C188.793 46.6312 190.181 47.9541 191.916 47.9541C193.651 47.9541 195.039 46.5662 195.039 44.8313V31.4294H207.313C209.673 31.4294 211.616 31.3513 212.865 32.2534C214.183 33.1556 215.159 34.4784 215.923 36.0051C216.686 37.6012 217.028 40.043 217.028 43.4434V45.0915C217.028 45.9243 217.323 46.6226 217.809 47.1083C218.295 47.5941 218.972 47.8674 219.804 47.8674C220.637 47.8674 221.331 47.5984 221.886 47.0433C222.441 46.4881 222.732 45.8592 222.732 45.0265V42.4025C222.732 39.6267 222.311 37.0417 221.409 34.6823C220.16 31.1431 217.931 29.0049 214.947 28.2416C217.722 27.27 219.739 25.7476 221.127 23.6658C222.446 21.584 223.144 19.3503 223.144 16.9215C223.144 13.1742 221.817 10.1902 219.11 7.90013C216.196 5.4713 211.898 4.43038 206.207 4.43038H191.634ZM195.104 10.4808H205.513C209.608 10.4808 212.592 11.0923 214.535 12.4108C216.131 13.5905 216.898 15.2603 216.898 17.5504C216.898 19.9792 215.853 21.8529 213.841 23.102C211.828 24.4205 209.126 25.0537 205.795 25.0537H195.104V10.4808Z" fill="#2B2A29"/>
</svg>
