<svg  viewBox="20 16 50 50" fill="none" xmlns="http://www.w3.org/2000/svg"><defs>
<clipPath id="clip0_0_1538">
<rect width="50" height="49.2424" fill="white" transform="translate(20 16)"/>
</clipPath>
<clipPath id="clip1_0_1538">
<rect width="100" height="25.3906" fill="white" transform="translate(105 28)"/>
</clipPath>
</defs><g clip-path="url(#clip0_0_1538)">
<path d="M62.4879 57.821H55.2151V46.4316C55.2151 43.7157 55.1666 40.2195 51.4326 40.2195C47.6447 40.2195 47.0651 43.1786 47.0651 46.2339V57.8203H39.7924V34.399H46.7742V37.5998H46.872C47.5707 36.4052 48.5804 35.4224 49.7934 34.7562C51.0065 34.0899 52.3776 33.7652 53.7606 33.8165C61.1318 33.8165 62.4909 38.665 62.4909 44.9725L62.4879 57.821ZM31.5863 31.1975C30.7516 31.1977 29.9356 30.9503 29.2415 30.4867C28.5473 30.0231 28.0063 29.364 27.6867 28.5929C27.3671 27.8218 27.2834 26.9732 27.4461 26.1545C27.6088 25.3358 28.0106 24.5837 28.6007 23.9933C29.1909 23.403 29.9428 23.0009 30.7615 22.8379C31.5801 22.6749 32.4288 22.7583 33.2 23.0776C33.9713 23.3969 34.6305 23.9378 35.0944 24.6317C35.5582 25.3256 35.8059 26.1416 35.806 26.9763C35.8061 27.5306 35.6971 28.0794 35.4851 28.5915C35.2731 29.1036 34.9623 29.5689 34.5704 29.9609C34.1786 30.3528 33.7134 30.6638 33.2014 30.876C32.6894 31.0882 32.1406 31.1975 31.5863 31.1975ZM35.2227 57.821H27.9424V34.399H35.2227V57.821ZM66.1136 16.0029H24.2879C23.3385 15.9921 22.4238 16.3588 21.7446 17.0221C21.0655 17.6855 20.6775 18.5914 20.6659 19.5407V61.54C20.6771 62.4897 21.0648 63.3962 21.744 64.0603C22.4231 64.7244 23.3381 65.0918 24.2879 65.0816H66.1136C67.0653 65.0936 67.9828 64.7273 68.6646 64.0632C69.3464 63.3992 69.7368 62.4916 69.75 61.54V19.5377C69.7364 18.5865 69.3458 17.6796 68.664 17.0162C67.9821 16.3529 67.0648 15.9873 66.1136 15.9998V16.0029Z" fill="#0A66C2"/>
</g><g clip-path="url(#clip1_0_1538)">
<path d="M201.127 49.564H197.377V43.6913C197.377 42.2909 197.352 40.4882 195.426 40.4882C193.473 40.4882 193.174 42.014 193.174 43.5894V49.5636H189.424V37.487H193.024V39.1374H193.075C193.435 38.5214 193.955 38.0147 194.581 37.6712C195.207 37.3276 195.913 37.1602 196.627 37.1866C200.427 37.1866 201.128 39.6866 201.128 42.939L201.127 49.564ZM185.193 35.8362C184.763 35.8363 184.342 35.7088 183.984 35.4697C183.626 35.2306 183.347 34.8908 183.182 34.4932C183.018 34.0956 182.974 33.6581 183.058 33.2359C183.142 32.8138 183.349 32.426 183.654 32.1215C183.958 31.8172 184.346 31.6098 184.768 31.5258C185.19 31.4417 185.627 31.4848 186.025 31.6494C186.423 31.814 186.763 32.0929 187.002 32.4507C187.241 32.8085 187.369 33.2293 187.369 33.6597C187.369 33.9455 187.312 34.2285 187.203 34.4925C187.094 34.7565 186.934 34.9965 186.732 35.1986C186.53 35.4007 186.29 35.561 186.026 35.6705C185.762 35.7799 185.479 35.8362 185.193 35.8362ZM187.068 49.564H183.314V37.487H187.068V49.564ZM202.996 28.0015H181.43C180.94 27.996 180.468 28.185 180.118 28.5271C179.768 28.8691 179.568 29.3362 179.562 29.8257V51.4815C179.568 51.9713 179.768 52.4387 180.118 52.7811C180.468 53.1235 180.94 53.313 181.43 53.3077H202.996C203.487 53.3139 203.96 53.125 204.311 52.7826C204.663 52.4402 204.864 51.9723 204.871 51.4815V29.8241C204.864 29.3337 204.662 28.866 204.311 28.524C203.959 28.1819 203.487 27.9934 202.996 27.9999V28.0015ZM169.355 40.4019C167.48 40.4019 166.355 41.6538 166.355 43.478C166.355 45.3023 167.48 46.5554 169.355 46.5554C171.231 46.5554 172.358 45.3054 172.358 43.478C172.358 41.6507 171.233 40.4019 169.355 40.4019ZM175.811 49.5569H172.358V47.9554H172.307C171.874 48.5379 171.312 49.0126 170.666 49.3424C170.019 49.6723 169.305 49.8483 168.579 49.8569C164.976 49.8569 162.602 47.2565 162.602 43.5792C162.602 40.2019 164.703 37.1007 168.155 37.1007C169.707 37.1007 171.157 37.5253 172.007 38.7023H172.057V31.7409H175.81L175.811 49.5569ZM157.788 42.1163C157.795 41.8121 157.74 41.5096 157.627 41.2271C157.514 40.9446 157.344 40.688 157.129 40.4729C156.914 40.2578 156.657 40.0886 156.375 39.9756C156.092 39.8626 155.789 39.8081 155.485 39.8155C154.83 39.7748 154.185 39.9931 153.689 40.4235C153.193 40.8539 152.887 41.4619 152.835 42.1163H157.788ZM160.964 47.4679C160.341 48.2235 159.557 48.8312 158.671 49.2467C157.784 49.6623 156.815 49.8754 155.836 49.8706C152.086 49.8706 149.084 47.3675 149.084 43.4913C149.084 39.6151 152.086 37.1132 155.836 37.1132C159.341 37.1132 161.539 39.6132 161.539 43.4913V44.6671H152.835C152.943 45.3339 153.289 45.9391 153.809 46.3712C154.328 46.8032 154.986 47.0331 155.661 47.0183C156.195 47.015 156.72 46.8782 157.187 46.6205C157.654 46.3627 158.05 45.9921 158.338 45.5425L160.964 47.4679ZM123.685 37.4839H127.286V39.1343H127.337C127.697 38.518 128.218 38.011 128.843 37.6675C129.468 37.3239 130.175 37.1566 130.888 37.1835C134.691 37.1835 135.391 39.6855 135.391 42.9358V49.5585H131.641V43.687C131.641 42.2855 131.615 40.4839 129.688 40.4839C127.739 40.4839 127.438 42.0101 127.438 43.5851V49.5569H123.688L123.685 37.4839ZM137.293 31.7421H141.043V42.3925L145.293 37.4773H149.89L144.968 43.0683L149.787 49.5644H145.073L141.093 43.5948H141.043V49.5636H137.293L137.293 31.7421ZM117.856 37.4827H121.606V49.5593H117.856V37.4827ZM119.731 31.4788C120.161 31.4789 120.582 31.6066 120.939 31.8456C121.297 32.0847 121.576 32.4245 121.74 32.822C121.905 33.2195 121.948 33.6569 121.864 34.0789C121.78 34.5008 121.573 34.8884 121.269 35.1926C120.964 35.4968 120.577 35.7039 120.155 35.7878C119.733 35.8717 119.295 35.8286 118.898 35.664C118.5 35.4993 118.161 35.2205 117.922 34.8628C117.683 34.505 117.555 34.0844 117.555 33.6542C117.555 33.3685 117.611 33.0856 117.721 32.8216C117.83 32.5577 117.99 32.3178 118.192 32.1158C118.394 31.9139 118.634 31.7536 118.898 31.6443C119.162 31.535 119.445 31.4788 119.731 31.4788ZM105 31.7448H108.904V45.9636H116.13V49.5659H105V31.7448Z" fill="#0A66C2"/>
</g></svg>