<svg width="184" height="65" viewBox="0 0 184 65" fill="none" xmlns="http://www.w3.org/2000/svg">
<path d="M18.3113 4.88311L49.8822 59.5169H36.1007L27.2411 44.1182L18.3113 59.5169H4.6001L20.3504 32.2352L4.6001 4.88311H18.3113ZM49.8118 4.88311L35.96 28.9304C31.7834 21.4821 31.8105 12.4487 35.9733 5.10512L36.1007 4.88311H49.8118Z" fill="black"/>
<path d="M67.32 17.5396C70.7653 17.6099 73.7888 18.5943 76.3904 20.4928L73.9998 24.0788C71.8904 22.6725 69.57 21.899 67.109 21.8287C65.7731 21.8287 64.7184 22.1803 63.8746 22.8131C62.9605 23.5163 62.4683 24.571 62.4683 25.9069C62.4683 26.7507 62.7496 27.5241 63.3824 28.157C64.0152 28.8601 64.9996 29.3523 66.4059 29.5632C67.1793 29.7039 68.234 29.8445 69.57 29.9851C72.1716 30.3367 74.1404 31.3211 75.4061 32.868C76.6717 34.4149 77.2342 36.1727 77.2342 38.2821C77.0233 43.9776 73.7888 46.7198 67.3903 46.7901C63.2418 46.7901 59.7261 45.4541 56.7026 42.8525L59.5151 39.6181C61.7652 41.5166 64.3668 42.4307 67.4606 42.501C71.1169 42.4307 72.9451 41.0947 73.0154 38.4931C73.0154 36.3134 71.82 35.0477 69.3591 34.6258C68.234 34.4852 66.9684 34.2743 65.6324 34.0633C63.2418 33.6414 61.4136 32.7274 60.148 31.3211C58.8823 29.8445 58.1792 28.0867 58.1792 25.9772C58.1792 23.4459 59.0229 21.4068 60.6402 19.8599C62.1871 18.313 64.4371 17.5396 67.32 17.5396ZM104.024 17.7505V21.6178H96.3596V46.5792H92.1407V21.6178H84.4765V17.7505H104.024ZM120.407 17.7505L130.532 46.5792H126.243L124.063 40.1103H113.446L111.266 46.5792H106.766L116.891 17.7505H120.407ZM153.173 17.7505V21.6178H145.509V46.5792H141.29V21.6178H133.626V17.7505H153.173ZM179.4 17.7505V21.8287H165.759V30.0554H177.361V33.9227H165.759V42.4307H179.4V46.5089H161.54V17.7505H179.4ZM118.86 23.6569H118.79L114.711 36.243H122.868L118.86 23.6569Z" fill="black"/>
</svg>
