<svg width="213" height="56" viewBox="0 0 213 56" fill="none" xmlns="http://www.w3.org/2000/svg">
<path d="M77.7907 33.4966L77.7531 33.0056H73.6884L73.7106 33.5565C73.9604 39.698 78.073 43.7644 85.3864 43.7644C92.3627 43.7644 97.1049 40.1154 97.1049 34.5949C97.1049 31.608 96.0767 29.4952 94.1145 28.0513C92.6074 26.9428 90.8026 26.3166 87.8122 25.6631C87.3765 25.5675 86.9403 25.4745 86.5035 25.3843C81.0719 24.2381 79.3492 23.2425 79.3492 20.2777C79.3492 17.2121 81.84 15.2584 86.0176 15.2584C90.0823 15.2584 92.6519 17.7561 92.7716 21.6908L92.787 22.204H96.8226L96.8107 21.6634C96.6704 15.5305 92.5817 11.4042 85.9749 11.4042C79.4997 11.4042 75.2246 15.3269 75.2246 20.4043C75.2246 23.381 76.2527 25.4561 78.2184 26.8418C79.7136 27.8957 81.4465 28.4551 84.5036 29.0778C84.8165 29.1416 85.1295 29.2043 85.4428 29.266C88.334 29.8408 89.6119 30.1966 90.7769 30.8792C92.2225 31.7243 92.9393 32.9321 92.9393 34.8053C92.9393 38.0557 90.2243 39.9102 85.4702 39.9102C80.9196 39.9102 78.0969 37.6126 77.789 33.4949L77.7907 33.4966ZM105.624 10.8721V10.3435H101.587V43.1725H105.624V36.978L109.876 32.8089L117.47 42.9604L117.627 43.1708H122.653L122.012 42.3223L112.739 30.0255L121.29 21.4582L122.193 20.5515H116.703L116.549 20.7089L105.624 31.7842V10.8738V10.8721ZM143.368 33.2588H143.864L143.894 32.7627C143.916 32.3707 143.931 31.9783 143.936 31.5857C143.936 24.9395 139.564 20.0434 133.102 20.0434C126.653 20.0434 122.058 25.256 122.058 31.8389C122.058 38.6134 126.444 43.6772 133.143 43.6772C138.21 43.6772 142.125 40.6526 143.534 36.0627L143.746 35.3767H139.547L139.423 35.7291C138.537 38.2405 136.139 39.9084 133.186 39.9084C129.325 39.9084 126.634 37.2397 126.148 33.2588H143.368ZM126.271 29.7432C126.952 26.1781 129.556 23.8121 133.102 23.8121C136.756 23.8121 139.278 26.1011 139.831 29.7432H126.271ZM157.191 24.1509H157.718V20.5515H152.794V14.4099H148.755V20.5515H144.674V24.1543H148.755V36.8394C148.755 40.9999 150.899 43.2546 154.835 43.2546C155.521 43.2546 156.115 43.2153 156.611 43.1452C156.919 43.1024 157.131 43.0579 157.248 43.0254L157.632 42.9176V39.1472L156.996 39.2857C156.809 39.3239 156.621 39.357 156.432 39.385C156.028 39.4473 155.621 39.4816 155.213 39.4876C153.489 39.4876 152.794 38.6716 152.794 36.6273V24.1526H157.191V24.1509ZM169.751 43.6772C175.342 43.6772 179.29 40.1154 180.283 35.0756L180.406 34.4426H176.332L176.228 34.8361C175.378 38.0523 173.074 39.9084 169.751 39.9084C165.606 39.9084 162.746 36.6153 162.746 31.8817C162.746 27.1104 165.601 23.8121 169.751 23.8121C173.074 23.8121 175.38 25.6666 176.228 28.8827L176.331 29.2762H180.406L180.283 28.6432C179.29 23.6051 175.342 20.0434 169.751 20.0434C163.257 20.0434 158.664 25.2919 158.664 31.8817C158.664 38.4338 163.262 43.6772 169.751 43.6772ZM187.844 10.8738V10.3452H183.805V43.1725H187.844V29.8921C187.844 26.0087 190.193 23.73 193.756 23.73C197.161 23.73 198.87 25.7145 198.87 29.4695V43.1725H202.909V28.8742C202.909 23.5692 199.645 20.0434 194.261 20.0434C191.491 20.0434 189.266 21.0647 187.846 22.5308V10.8738H187.844Z" fill="black"/>
<path d="M21.2538 6.15509L35.6725 4.63037L50.0912 6.15509L61.2537 21.1675L35.6725 50.9343L10.0912 21.1675L21.2538 6.15509Z" fill="#FDB300"/>
<path d="M20.4534 21.168L35.6725 50.9348L10.0912 21.168H20.4534Z" fill="#EA6C00"/>
<path d="M50.8917 21.168L35.6709 50.9348L61.2522 21.168H50.8917Z" fill="#EA6C00"/>
<path d="M20.4537 21.168H50.8919L35.6728 50.9348L20.4537 21.168Z" fill="#FDAD00"/>
<path d="M35.6728 4.63037L21.2541 6.15509L20.4537 21.1675L35.6728 4.63037Z" fill="#FDD231"/>
<path d="M35.6709 4.63037L50.0897 6.15509L50.89 21.1675L35.6709 4.63037Z" fill="#FDD231"/>
<path d="M61.2521 21.1677L50.0895 6.15527L50.8916 21.1677H61.2521ZM10.0912 21.1677L21.2538 6.15527L20.4534 21.1677H10.0912Z" fill="#FDAD00"/>
<path d="M35.6728 4.63037L20.4537 21.1675H50.8919L35.6728 4.63037Z" fill="#FEEEB7"/>
</svg>
