<svg width="172" height="69" viewBox="0 0 172 69" fill="none" xmlns="http://www.w3.org/2000/svg">
<path d="M6.3771 39.3705C6.73828 38.8022 7.2055 38.7492 7.72242 39.0093C8.70657 39.5262 11.9688 41.0273 15.1781 41.0273C17.3004 41.0273 18.4917 40.0962 18.4917 38.9563C18.4917 37.2995 16.6791 36.7825 13.2098 35.747C8.13497 34.193 4.97709 31.8635 4.92573 27.6171C4.92573 23.1636 8.29237 19.7456 15.0753 19.7456C19.2174 19.7456 21.7556 21.0926 23.9293 22.3865C24.4993 22.698 24.655 23.1122 24.4479 23.5264L22.1698 27.1515C21.8583 27.6171 21.3927 27.6684 20.9272 27.4613C19.6316 26.6843 17.2507 25.8045 14.9196 25.8045C12.2273 25.8045 11.606 26.9958 11.606 27.8242C11.606 29.3253 13.5743 29.8952 16.0081 30.5679C22.2725 32.2777 25.5861 34.5044 25.5861 38.9563C25.5861 44.3426 20.8228 46.9305 15.024 46.9305C11.3256 46.9344 7.70713 45.8544 4.61591 43.824C4.30111 43.5721 4.20171 43.2027 4.40881 42.7437L6.3771 39.3705ZM53.5961 46.5163H48.3076C47.065 46.5163 46.3923 45.6365 46.3923 44.4453V31.2935C46.3923 28.3411 44.6311 26.2701 41.4733 26.2701C38.8323 26.2701 36.864 27.7728 35.7258 29.7908V45.6365C35.7258 46.1021 35.4657 46.4136 35.1045 46.4649C35.0436 46.5058 34.9703 46.5239 34.8974 46.5163H29.0455C28.8757 46.5297 28.7076 46.4735 28.58 46.3606C28.3658 46.1833 28.2499 45.9139 28.2685 45.6365V11.672C28.2685 9.03101 27.7516 8.04686 27.7516 7.01136C27.7516 6.49443 28.01 6.13159 28.58 6.13159H33.3947C34.9488 6.13159 35.7258 6.85562 35.7258 8.46106V24.0997C37.5383 21.8199 40.282 19.7489 44.3213 19.7489C49.6032 19.7489 53.848 23.1155 53.848 29.587V41.7049C53.8624 42.9515 53.9487 44.1961 54.1064 45.4327C54.2622 45.9994 54.0551 46.5163 53.5895 46.5163H53.5961ZM138.221 20.9882V45.6879C138.235 45.9027 138.16 46.1138 138.012 46.2709C137.865 46.4279 137.659 46.5168 137.444 46.5163H131.592C131.367 46.5369 131.144 46.4563 130.984 46.2962C130.824 46.1362 130.743 45.9133 130.764 45.6879V42.53C128.951 44.8081 126.259 46.8858 122.168 46.8858C116.886 46.8858 112.641 43.5208 112.641 37.0476V24.9248C112.638 23.6784 112.532 22.4343 112.325 21.2052C112.222 20.6353 112.429 20.1167 112.895 20.1167H118.124C119.419 20.1167 120.092 20.9965 120.092 22.1877V35.3411C120.092 38.2919 121.853 40.3629 125.011 40.3629C127.652 40.3629 129.567 38.8618 130.759 36.8422V20.9882C130.749 20.5183 131.117 20.1273 131.587 20.1084H137.386C137.909 20.1084 138.221 20.4713 138.221 20.9882ZM167.155 46.5163H161.874C160.631 46.5163 159.958 45.6365 159.958 44.4453V31.2935C159.958 28.3411 158.197 26.2701 154.988 26.2701C152.398 26.2701 150.43 27.7728 149.239 29.7908V45.6365C149.239 46.1021 148.929 46.5163 148.463 46.5163H142.611C142.095 46.5163 141.783 46.1535 141.783 45.6365V20.9368C141.772 20.4946 142.118 20.1255 142.56 20.1084H148.463C148.98 20.1084 149.239 20.4199 149.239 20.9368V24.0964C151.051 21.8166 153.797 19.7456 157.887 19.7456C163.116 19.7456 167.414 23.1122 167.414 29.5837V41.7016C167.402 42.9491 167.489 44.1957 167.674 45.4294C167.777 45.9994 167.57 46.5163 167.155 46.5163ZM86.502 50.7461C86.0281 50.6091 85.5171 50.7354 85.1616 51.0775C84.2272 52.0037 83.6026 53.2595 83.6026 54.9495C83.6026 60.0243 89.5058 62.6138 96.7543 62.6652C104.314 62.7696 111.202 60.18 111.202 53.2926C111.202 48.5807 107.784 46.8725 101.622 45.9414L93.6992 44.8015C91.214 44.4387 89.5572 44.2316 89.5572 43.0403C89.5572 42.2119 90.2828 41.4349 92.3538 42.0048C93.6478 42.472 95.2019 43.1961 97.6871 43.1961C104.263 43.2474 109.596 38.9497 109.596 32.3738C109.596 29.2673 108.405 26.6263 106.127 24.9181C107.732 24.8668 109.286 24.711 109.803 24.1925L110.005 21.0926C110.035 20.865 109.958 20.6366 109.795 20.4744C109.633 20.3121 109.405 20.2345 109.177 20.2642C103.067 20.7811 101.047 19.7986 97.6308 19.7986C90.0708 19.7986 85.1517 24.8734 85.2544 31.4493C85.3588 35.8498 87.6883 38.1809 88.8282 39.2678C86.0828 38.9563 83.4949 40.8202 83.4949 43.824C83.4949 46.1153 84.986 47.469 87.1631 48.2974C87.6427 48.475 88.1323 48.6243 88.6293 48.7447C90.3806 49.1274 93.6959 49.8299 96.703 50.3485L97.3359 50.4562H97.3475L100.689 51.0278C102.813 51.3906 103.33 52.3234 103.33 53.3059C103.33 55.5326 100.482 56.5168 97.5314 56.5168C93.5451 56.5168 90.5413 55.6884 90.5413 52.9961V52.9845C90.5561 52.3426 90.1384 51.7706 89.5224 51.5894L86.502 50.7461ZM97.3756 26.0597C100.379 26.0597 102.76 28.1837 102.76 31.4973C102.76 34.5525 100.689 36.8306 97.48 36.8306C94.3205 36.8306 91.991 34.6038 91.991 31.393C91.991 28.0826 94.4762 26.063 97.3756 26.063V26.0597ZM55.6241 33.1657C55.6241 25.0026 61.8122 19.4904 69.6639 19.4904C77.4625 19.4904 83.6506 25.0026 83.6506 33.1657C83.6506 41.2841 77.4625 46.788 69.6639 46.788C61.804 46.7913 55.6158 41.2808 55.6158 33.169L55.6241 33.1657ZM76.7865 33.1657C76.7865 28.9541 73.8224 25.8344 69.6622 25.8344C65.4489 25.8344 62.4866 28.9541 62.4866 33.1657C62.4866 37.3773 65.4489 40.4458 69.6622 40.4458C73.8142 40.4491 76.7782 37.3807 76.7782 33.169L76.7865 33.1657ZM80.052 15.1645C81.6362 14.8444 82.6733 13.316 82.3855 11.7257C82.0978 10.1354 80.5909 9.06732 78.995 9.3226C69.6556 11.0125 60.4388 9.35574 60.2731 9.3226C58.6803 9.06092 57.1702 10.1197 56.8734 11.7063C56.5765 13.2929 57.6016 14.826 59.1812 15.1579C59.4579 15.2092 63.8915 16.0211 69.8908 16.0211C73.2966 16.0369 76.697 15.7503 80.052 15.1645Z" fill="#5D50C6"/>
</svg>
