<svg width="184" height="65" viewBox="0 0 184 65" fill="none" xmlns="http://www.w3.org/2000/svg">
<path d="M27.5501 56.7043C39.8795 56.7043 49.8744 45.7876 49.8744 32.3211C49.8744 18.8546 39.8795 7.93793 27.5501 7.93793C15.2207 7.93793 5.22576 18.8546 5.22576 32.3211C5.22576 45.7876 15.2207 56.7043 27.5501 56.7043Z" fill="white"/>
<path d="M27.5703 57.0676C15.0759 57.0676 4.94317 45.9055 4.94317 32.2C4.94317 18.4744 15.0961 7.3324 27.5703 7.3324C40.0646 7.3324 50.2378 18.4744 50.2378 32.2C50.2378 45.9055 40.0646 57.0676 27.5703 57.0676ZM27.5703 8.13979C15.5402 8.13979 5.75056 18.9386 5.75056 32.2C5.75056 45.4614 15.5402 56.2602 27.5703 56.2602C39.6206 56.2602 49.4304 45.4614 49.4304 32.2C49.4102 18.9386 39.6206 8.13979 27.5703 8.13979Z" fill="#004785"/>
<path d="M27.5905 56.2603C15.5402 56.2603 5.73038 45.4614 5.73038 32.1597C5.73038 18.8983 15.5402 8.09943 27.5905 8.09943C39.6408 8.09943 49.4304 18.8983 49.4304 32.1798C49.4304 45.4614 39.6408 56.2603 27.5905 56.2603ZM27.5905 8.46275C15.7218 8.46275 6.07352 19.0799 6.07352 32.1597C6.07352 45.2596 15.7218 55.9171 27.5905 55.9171C39.4389 55.9171 49.0872 45.2797 49.0872 32.2C49.0872 19.1001 39.4389 8.46275 27.5905 8.46275Z" fill="#FFD100"/>
<path d="M43.3951 31.978C43.3951 42.2117 36.2699 50.5076 27.4895 50.5076C18.7092 50.5076 11.584 42.2117 11.584 31.978C11.584 21.7443 18.7092 13.4484 27.4895 13.4484C36.2699 13.4484 43.3951 21.7443 43.3951 31.978Z" fill="#004785"/>
<path d="M27.4895 50.6489C18.6486 50.6489 11.4427 42.2722 11.4427 31.978C11.4427 21.6838 18.6486 13.3071 27.4895 13.3071C36.3305 13.3071 43.5364 21.6838 43.5364 31.978C43.5364 42.2722 36.3305 50.6489 27.4895 50.6489ZM27.4895 13.6099C18.8101 13.6099 11.7252 21.8453 11.7252 31.978C11.7252 42.1107 18.7899 50.3461 27.4895 50.3461C36.169 50.3461 43.2538 42.1107 43.2538 31.978C43.2336 21.8453 36.169 13.6099 27.4895 13.6099Z" fill="#004785"/>
<path d="M9.48474 31.11C9.46455 31.4936 9.16178 31.7963 8.77827 31.7761C8.41494 31.756 8.11217 31.433 8.13236 31.0495C8.15254 30.666 8.45531 30.3632 8.83882 30.3834C9.22233 30.4036 9.50492 30.7265 9.48474 31.11Z" fill="#004785"/>
<path d="M7.86996 35.0057C7.60755 35.0461 7.50663 35.1066 7.46626 35.3085C7.42589 35.4699 7.48645 35.6314 7.36534 35.6516C7.30478 35.6516 7.2846 35.6314 7.26441 35.5507C7.24423 35.4699 7.24423 35.2883 7.20386 34.9653C7.14331 34.5616 7.10294 34.3598 7.10294 34.2992C7.10294 34.2387 7.12312 34.1983 7.16349 34.1983C7.26441 34.1781 7.24423 34.3396 7.36534 34.4405C7.48645 34.5415 7.60755 34.5213 7.78922 34.5011L9.72695 34.2589C9.96917 34.2185 10.1105 34.1983 10.1508 33.9965C10.1912 33.835 10.1306 33.6735 10.2316 33.6735C10.2719 33.6735 10.3123 33.7139 10.3325 33.7744C10.3527 33.8955 10.3527 34.0772 10.3729 34.3194C10.4132 34.5616 10.4738 34.824 10.5142 35.1268C10.6151 35.8736 10.3123 36.3379 9.78751 36.3984C9.28289 36.459 8.81864 36.0957 8.7379 35.4901C8.69753 35.2277 8.7379 35.0864 8.81864 35.0663C8.85901 35.0663 8.89938 35.1066 8.89938 35.147C8.89938 35.2075 8.89938 35.2883 8.91956 35.3892C8.95993 35.7525 9.22233 35.9544 9.62603 35.8938C10.1306 35.8333 10.4132 35.4901 10.3527 35.0057C10.3123 34.7433 10.2114 34.6827 9.94899 34.7029L7.86996 35.0057Z" fill="#004785"/>
<path d="M9.56548 37.7912L9.96917 39.2041C9.98936 39.3051 10.0499 39.3051 10.1508 39.2849L10.7564 39.1234C10.9986 39.0628 11.1197 39.0023 11.1399 38.8004C11.1399 38.639 11.0793 38.4977 11.1803 38.4775C11.2206 38.4573 11.261 38.4977 11.2812 38.5582C11.3014 38.639 11.3215 38.8206 11.4023 39.1032C11.483 39.4262 11.584 39.6078 11.6041 39.6886C11.6243 39.7491 11.6041 39.7895 11.5638 39.8097C11.4628 39.8299 11.4628 39.6684 11.3417 39.5876C11.2206 39.5069 11.0995 39.5271 10.9179 39.5876L9.0003 40.1326C8.7379 40.2134 8.65716 40.2941 8.63698 40.496C8.61679 40.6574 8.69753 40.8189 8.59661 40.8593C8.53605 40.8795 8.51587 40.8391 8.49568 40.7785C8.4755 40.6978 8.43513 40.5161 8.35439 40.1932C8.25347 39.8097 8.17273 39.6078 8.15254 39.5473C8.13236 39.4867 8.15254 39.4665 8.2131 39.4463C8.31402 39.4262 8.31402 39.5675 8.45531 39.6482C8.57642 39.7289 8.71772 39.7087 8.87919 39.6482L9.64621 39.4262C9.76732 39.3858 9.78751 39.3656 9.76732 39.2647L9.36363 37.8517C9.32326 37.7306 9.30307 37.7306 9.18197 37.7508L8.41494 37.9729C8.15254 38.0536 8.0718 38.1343 8.05162 38.3362C8.03143 38.4977 8.11217 38.6591 8.01125 38.6995C7.9507 38.7197 7.93051 38.6793 7.91033 38.6188C7.89014 38.538 7.84977 38.3564 7.76903 38.0334C7.66811 37.6499 7.58737 37.4481 7.56719 37.3875C7.547 37.3269 7.56719 37.3068 7.62774 37.2866C7.72866 37.2664 7.72866 37.4077 7.86996 37.4884C7.99106 37.5692 8.13236 37.549 8.29384 37.4884L10.1912 36.9636C10.4334 36.9031 10.5545 36.8425 10.5747 36.6407C10.5747 36.4792 10.5142 36.3379 10.6151 36.2975C10.6555 36.2773 10.6958 36.3177 10.716 36.3783C10.7362 36.459 10.7564 36.6407 10.8371 36.9233C10.9179 37.2462 11.0188 37.4279 11.039 37.5086C11.0591 37.5692 11.039 37.6095 10.9986 37.6297C10.8977 37.6499 10.8977 37.4884 10.7766 37.4077C10.6555 37.3269 10.5343 37.3471 10.3527 37.4077L9.72695 37.5893C9.56548 37.6499 9.54529 37.6701 9.56548 37.7912Z" fill="#004785"/>
<path d="M10.3729 41.7474C10.4536 41.707 10.5142 41.6667 10.5747 41.5859L11.3619 40.4354C11.483 40.2739 11.5436 40.1528 11.5234 40.0317C11.5032 39.8904 11.483 39.8097 11.5436 39.7895C11.584 39.7693 11.6243 39.7895 11.6445 39.85C11.6849 39.951 11.7454 40.1326 11.8464 40.3547C11.9473 40.5767 12.0482 40.718 12.0684 40.7785C12.0886 40.8189 12.0886 40.8795 12.0482 40.8795C11.9876 40.8996 11.9675 40.8593 11.8867 40.7785C11.8464 40.7382 11.7858 40.7382 11.7454 40.7584C11.7051 40.7785 11.6445 40.8189 11.6041 40.8996L10.9582 41.8281C10.938 41.8685 10.9179 41.8887 10.938 41.9089C10.938 41.9291 10.9784 41.9291 11.0188 41.9291L11.9473 42.03C12.0684 42.0502 12.1491 42.0502 12.25 42.0098C12.3308 41.9694 12.3712 41.8887 12.351 41.7878C12.3308 41.6667 12.25 41.5657 12.3308 41.5254C12.3712 41.5052 12.4115 41.5254 12.4519 41.6061C12.5124 41.7272 12.5528 41.8685 12.6134 42.0098C12.6941 42.2117 12.7749 42.3328 12.8152 42.3933C12.8556 42.4741 12.8354 42.5144 12.795 42.5346C12.7345 42.5548 12.6941 42.4942 12.6336 42.4337C12.5124 42.3328 12.3712 42.3126 12.1693 42.2924L10.9179 42.1511C10.8371 42.1511 10.7766 42.1309 10.6756 42.1915L10.1306 42.4337C9.86825 42.5548 9.70677 42.6355 9.6664 42.8172C9.64621 42.9181 9.68658 43.019 9.72695 43.12C9.74714 43.1603 9.72695 43.2209 9.68658 43.2209C9.62603 43.2411 9.60584 43.2209 9.56548 43.1402C9.52511 43.0392 9.46455 42.8172 9.30307 42.4942C9.16178 42.1915 9.06086 42.0098 9.02049 41.9493C8.98012 41.8887 9.0003 41.8281 9.04067 41.808C9.08104 41.7878 9.12141 41.808 9.1416 41.8281C9.22233 41.9291 9.28289 42.03 9.38381 42.0704C9.52511 42.1309 9.68658 42.0704 9.9288 41.9493L10.3729 41.7474Z" fill="#004785"/>
<path d="M10.4334 44.3714C10.494 44.3109 10.5747 44.2705 10.6151 44.2099C10.7766 44.0283 10.8977 43.9072 10.9986 43.8466C11.0591 43.8063 11.1197 43.8264 11.1399 43.8668C11.1803 43.9475 11.039 44.0081 10.938 44.1696C10.6958 44.5531 10.6756 44.9164 10.8573 45.199C11.0793 45.5623 11.4628 45.6431 11.7656 45.4614C12.0684 45.2596 12.0886 44.977 11.9876 44.4724C11.9473 44.2705 11.8867 44.0283 11.8867 43.7861C11.8867 43.5035 12.0482 43.2411 12.2702 43.0998C12.7345 42.8172 13.2189 42.9383 13.5419 43.4227C13.7437 43.7457 13.7639 44.0283 13.8043 44.1292C13.8648 44.2099 13.9658 44.1696 13.9859 44.2301C14.0061 44.2503 13.9859 44.2907 13.9456 44.3311C13.885 44.3714 13.8245 44.3916 13.7639 44.432C13.6024 44.5329 13.5015 44.654 13.3804 44.7146C13.3198 44.7549 13.2795 44.7549 13.2391 44.7146C13.1785 44.6338 13.34 44.5531 13.4208 44.3311C13.5217 44.0485 13.5015 43.7457 13.34 43.4833C13.1584 43.2007 12.8556 43.12 12.5932 43.2814C12.4923 43.342 12.4115 43.4429 12.3913 43.564C12.3308 43.8063 12.4317 44.0888 12.5124 44.4522C12.6336 45.0173 12.5124 45.3807 12.0684 45.6632C11.5638 45.9862 10.9784 45.8449 10.6151 45.2394C10.4132 44.8559 10.3729 44.4522 10.4334 44.3714Z" fill="#004785"/>
<path d="M12.5326 47.3991C12.573 47.5404 12.7143 47.6817 12.6336 47.7423C12.5932 47.7826 12.5528 47.7625 12.5124 47.7019C12.4721 47.6414 12.351 47.4799 12.1693 47.2175C11.9271 46.8945 11.7656 46.733 11.7454 46.7129C11.7051 46.6725 11.7051 46.6321 11.7454 46.5918C11.8262 46.5312 11.8867 46.6725 12.0482 46.6927C12.1895 46.7129 12.3106 46.6523 12.4519 46.5312L14.0061 45.3201C14.208 45.1586 14.3089 45.0779 14.2282 44.876C14.1676 44.7146 14.0465 44.6136 14.1272 44.5531C14.1676 44.5329 14.208 44.5329 14.2685 44.5935C14.3089 44.654 14.4098 44.8155 14.5915 45.0577C14.7933 45.3201 14.9548 45.4816 14.9952 45.522C15.0355 45.5825 15.0355 45.6229 15.0154 45.6431C14.9346 45.7036 14.8741 45.5623 14.7126 45.522C14.5915 45.4816 14.4906 45.5623 14.3694 45.6632C14.3493 45.6632 14.3493 45.6834 14.3291 45.6834L12.7547 46.8945C12.5326 47.0964 12.4721 47.1973 12.5326 47.3991Z" fill="#004785"/>
<path d="M15.1163 49.6598C15.3787 49.68 15.52 49.6195 15.5805 49.6598C15.6007 49.68 15.6007 49.7204 15.5603 49.7608C15.4998 49.8213 15.3585 49.8617 15.1365 49.8617C14.6722 49.8617 14.2685 49.68 13.9254 49.3369C13.2391 48.6506 13.2391 47.7423 13.9456 47.0358C14.3291 46.6523 14.8135 46.4505 15.3181 46.4706C15.7016 46.4908 16.065 46.6523 16.3879 46.9551C16.5292 47.0964 16.6503 47.278 16.7512 47.4799C16.8118 47.6212 16.832 47.7423 16.8925 47.8028C16.9733 47.8836 17.0944 47.7625 17.1549 47.823C17.2357 47.9038 17.1348 47.9643 16.9935 48.146C16.832 48.368 16.7512 48.5295 16.6705 48.6102C16.6301 48.6506 16.5696 48.6506 16.5494 48.6304C16.509 48.59 16.5494 48.5093 16.5898 48.4084C16.7109 47.8836 16.5898 47.4193 16.2466 47.056C15.8026 46.6119 15.0961 46.6523 14.5107 47.2377C13.8245 47.9239 13.7841 48.7717 14.3089 49.2965C14.4906 49.5185 14.753 49.6396 15.1163 49.6598Z" fill="#004785"/>
<path d="M16.5494 51.2141C16.6301 51.3554 16.7916 51.4361 16.7311 51.5168C16.6907 51.5572 16.6503 51.5572 16.5898 51.5168C16.5292 51.4765 16.3879 51.3352 16.1255 51.1333C15.8026 50.8911 15.6209 50.77 15.5805 50.7498C15.5402 50.7094 15.52 50.6691 15.5603 50.6287C15.6209 50.548 15.7218 50.6691 15.8833 50.6489C16.0448 50.6287 16.1255 50.548 16.2264 50.3865L17.4173 48.8323C17.5788 48.6304 17.6394 48.5295 17.5183 48.3478C17.4173 48.2065 17.2761 48.146 17.3568 48.0652C17.377 48.0249 17.4375 48.0249 17.4981 48.0652C17.5586 48.1056 17.6797 48.2469 17.922 48.4286C18.1844 48.6304 18.366 48.7313 18.4266 48.7717C18.4871 48.8121 18.4871 48.8524 18.467 48.8928C18.4064 48.9736 18.3055 48.8524 18.1642 48.8524C18.0229 48.8524 17.9623 48.9332 17.8614 49.0745C17.8614 49.0947 17.8412 49.0947 17.8412 49.1148L16.6301 50.6893C16.4687 50.9113 16.4283 51.0324 16.5494 51.2141Z" fill="#004785"/>
<path d="M19.9001 52.849C19.8799 53.0711 19.9001 53.2123 20.001 53.3133C20.0817 53.4142 20.2028 53.4546 20.1625 53.5151C20.1423 53.5555 20.0817 53.5757 20.0212 53.5353C19.9606 53.4949 19.7991 53.3738 19.5569 53.2527C19.234 53.0711 19.0523 53.0105 19.0119 52.9903C18.9716 52.9701 18.9514 52.9298 18.9716 52.8894C18.9918 52.8692 19.0321 52.849 19.0725 52.849C19.234 52.8692 19.3349 52.8692 19.3954 52.7481C19.4156 52.7077 19.4358 52.6472 19.4358 52.5664L19.4964 52.082C19.5166 51.9003 19.4762 51.86 19.3147 51.7792L18.5881 51.3755C18.4266 51.2948 18.366 51.2948 18.2247 51.3957L17.9623 51.6178C17.8816 51.6783 17.821 51.7389 17.7807 51.7994C17.7201 51.9003 17.7403 52.0013 17.821 52.1022C17.922 52.2233 18.0633 52.2637 18.0027 52.3444C17.9825 52.3848 17.9421 52.3848 17.8614 52.3444C17.7807 52.304 17.6596 52.2031 17.4375 52.082C17.1953 51.9407 17.0338 51.9003 17.0136 51.8802C16.9733 51.86 16.9531 51.8196 16.9733 51.7792C17.0136 51.7187 17.0944 51.759 17.2155 51.7389C17.3366 51.7187 17.4779 51.6379 17.6394 51.5168L20.0414 49.7608C20.0817 49.7406 20.1019 49.7204 20.1423 49.7406C20.1827 49.7608 20.1827 49.7809 20.1827 49.8415L19.9001 52.849ZM19.6579 50.3865C19.6377 50.3663 19.5973 50.3865 19.5569 50.4067L18.7294 51.0122C18.689 51.0324 18.6688 51.0526 18.6486 51.0929C18.6284 51.1333 18.6688 51.1737 18.7697 51.2342L19.3954 51.5774C19.456 51.6178 19.5166 51.6178 19.5367 51.5774C19.5569 51.5572 19.5569 51.5168 19.5569 51.4765L19.6579 50.4874C19.678 50.4269 19.678 50.4067 19.6579 50.3865Z" fill="#004785"/>
<path d="M22.0397 51.6178C21.9993 51.6178 21.9791 51.6379 21.9589 51.7187L21.5552 53.0105C21.535 53.0509 21.535 53.1114 21.5148 53.1518C21.4341 53.4546 21.3937 53.6564 21.4947 53.8179C21.5956 53.939 21.8176 53.9592 21.7974 54.0601C21.7773 54.1005 21.7369 54.1207 21.6561 54.1005C21.5149 54.0601 21.3534 53.9794 21.1515 53.9188C20.9497 53.8583 20.8286 53.8583 20.7882 53.8381C20.7276 53.8179 20.7075 53.7977 20.7075 53.7372C20.7276 53.6362 20.8689 53.6968 20.99 53.616C21.1515 53.5353 21.2524 53.2931 21.3736 52.8894L21.7167 51.759C21.7167 51.7389 21.7369 51.7187 21.7369 51.6985C21.858 51.315 21.8782 51.0929 21.7369 50.9315C21.6158 50.7902 21.3736 50.77 21.3937 50.6691C21.4139 50.6287 21.4543 50.6085 21.5148 50.6287C21.5956 50.6489 21.7167 50.7094 21.8782 50.7498C21.9791 50.7902 22.08 50.7902 22.1406 50.8104C22.2213 50.8305 22.2415 50.8911 22.2819 50.9718L23.5131 53.616C23.5535 53.6968 23.5737 53.7372 23.5939 53.7372C23.6342 53.7573 23.6544 53.717 23.6948 53.616L23.8361 53.1518C23.8765 52.9903 23.9168 52.849 23.9572 52.7077C24.1187 52.1224 24.1994 51.7994 24.0783 51.6178C23.9976 51.4966 23.7554 51.4765 23.7755 51.3755C23.7957 51.3352 23.8361 51.315 23.9168 51.3352C24.0581 51.3755 24.2196 51.4563 24.4215 51.5168C24.6233 51.5774 24.7444 51.5774 24.805 51.5976C24.8655 51.6178 24.8857 51.6581 24.8857 51.6985C24.8655 51.7792 24.7646 51.759 24.6637 51.7792C24.482 51.8196 24.4013 51.9811 24.3205 52.2435C24.2802 52.405 24.1389 52.9298 23.8563 53.8381L23.6544 54.5244C23.6141 54.6253 23.5939 54.6858 23.5333 54.6657C23.493 54.6455 23.4526 54.5849 23.4122 54.484L22.1002 51.6783C22.08 51.6379 22.0598 51.6178 22.0397 51.6178Z" fill="#004785"/>
<path d="M27.7721 54.8473C27.7519 54.7666 27.7519 54.6858 27.7318 54.6051C27.651 54.3831 27.6106 54.2014 27.5905 54.1005C27.5905 54.0399 27.6308 53.9996 27.6712 53.9794C27.7519 53.9794 27.7519 54.1207 27.8327 54.3023C28.0547 54.6858 28.3575 54.8877 28.7006 54.8675C29.1245 54.8473 29.3869 54.5445 29.3667 54.2014C29.3465 53.8381 29.1043 53.6968 28.5997 53.5353C28.3979 53.4748 28.1758 53.4142 27.9538 53.2931C27.6914 53.1518 27.5501 52.8894 27.5299 52.627C27.4895 52.082 27.8327 51.6985 28.418 51.6783C28.8015 51.6581 29.0639 51.7792 29.1649 51.7792C29.2658 51.7792 29.286 51.6581 29.3465 51.6581C29.3667 51.6581 29.4071 51.6985 29.4071 51.7389C29.4071 51.7994 29.4071 51.8802 29.4071 51.9407C29.4273 52.1224 29.4676 52.2839 29.4676 52.405C29.4676 52.4655 29.4475 52.5261 29.4071 52.5261C29.3062 52.5261 29.3062 52.3646 29.1649 52.1829C28.963 51.9407 28.6804 51.8398 28.3777 51.8398C28.0547 51.86 27.8125 52.1022 27.8327 52.3848C27.8327 52.5059 27.8932 52.6068 27.974 52.6875C28.1758 52.849 28.4584 52.9096 28.8217 53.0105C29.3667 53.172 29.6291 53.4546 29.6695 53.9794C29.7099 54.5849 29.3062 55.029 28.5997 55.0693C28.1758 55.0895 27.7923 54.9482 27.7721 54.8473Z" fill="#004785"/>
<path d="M31.2035 53.9794C31.2641 54.2418 31.3448 54.3225 31.5467 54.3629C31.7082 54.3831 31.8696 54.3225 31.8898 54.4234C31.91 54.484 31.8696 54.5042 31.8091 54.5244C31.7283 54.5445 31.5467 54.5647 31.2237 54.6455C30.8402 54.7464 30.6182 54.8069 30.5778 54.8069C30.5173 54.8271 30.4769 54.8069 30.4769 54.7464C30.4567 54.6455 30.598 54.6455 30.6989 54.5244C30.7797 54.4033 30.7595 54.2821 30.7191 54.1005L30.275 52.2031C30.2145 51.9609 30.1741 51.8398 29.9723 51.8196C29.8108 51.7994 29.6493 51.86 29.6291 51.759C29.6089 51.7187 29.6493 51.6783 29.73 51.6581C29.8512 51.6379 30.0328 51.6178 30.2548 51.5572C30.4971 51.4966 30.7595 51.4159 31.0421 51.3554C31.7687 51.1939 32.2531 51.4361 32.3742 51.9609C32.4954 52.4655 32.1724 52.95 31.5669 53.0912C31.3045 53.1518 31.1632 53.1316 31.143 53.0509C31.143 53.0105 31.1632 52.9701 31.2237 52.95C31.2843 52.9298 31.365 52.9298 31.4457 52.9096C31.8091 52.8288 31.9706 52.5463 31.8898 52.1627C31.7687 51.6581 31.4054 51.4159 30.9411 51.5168C30.6989 51.5774 30.6182 51.6985 30.6787 51.9609L31.2035 53.9794Z" fill="#004785"/>
<path d="M32.9192 51.4765C32.8183 51.2544 32.7578 51.1333 32.5559 51.1333C32.3944 51.1535 32.2531 51.2342 32.2128 51.1333C32.1926 51.0929 32.233 51.0526 32.2935 51.0324C32.3339 51.0122 32.5357 50.9517 32.8587 50.8305C33.545 50.548 34.0294 50.3057 34.3322 50.1846C34.3927 50.1645 34.4129 50.1644 34.4533 50.2452C34.4735 50.2654 34.4735 50.3057 34.4936 50.3259C34.5542 50.4874 34.6551 50.6085 34.6955 50.6893C34.7359 50.77 34.7157 50.8104 34.6753 50.8305C34.5946 50.8709 34.5744 50.7498 34.4533 50.6287C34.2514 50.4269 34.0294 50.4874 33.6257 50.6691C33.3229 50.7902 33.222 50.8709 33.3027 51.0526L33.6257 51.8196C33.6863 51.9811 33.7266 51.9811 33.8679 51.9205L34.1101 51.8196C34.3322 51.7187 34.4533 51.6379 34.4735 51.4765C34.4936 51.3352 34.4533 51.2141 34.5138 51.1939C34.5542 51.1737 34.5744 51.2141 34.6148 51.2746C34.6349 51.3352 34.6753 51.4765 34.756 51.6581C34.857 51.8802 34.9377 52.0013 34.9579 52.0618C34.9781 52.1426 34.9781 52.1829 34.9377 52.2031C34.857 52.2435 34.857 52.1426 34.7359 52.0214C34.5946 51.86 34.4735 51.9003 34.2312 52.0013L33.9487 52.1224C33.8074 52.1829 33.8074 52.2435 33.8679 52.3848L34.1505 53.0912C34.2918 53.4344 34.3725 53.4748 34.6955 53.3335C35.1597 53.1518 35.4221 52.8692 35.5029 52.5664C35.5433 52.405 35.5231 52.304 35.5836 52.2637C35.6038 52.2637 35.6442 52.2637 35.6644 52.304C35.7047 52.405 35.7249 52.6068 35.7047 52.8288C35.6644 53.0912 35.5231 53.2325 35.2405 53.3335C35.0588 53.4142 34.756 53.4949 34.3725 53.6564C33.9487 53.8381 33.7468 53.9592 33.7064 53.9592C33.6459 53.9794 33.6055 53.9794 33.5853 53.9188C33.545 53.8179 33.6863 53.7977 33.767 53.6564C33.8275 53.5151 33.7872 53.394 33.7266 53.2325L32.9192 51.4765Z" fill="#004785"/>
<path d="M38.4095 50.8911C38.4902 50.6287 38.4499 50.4874 38.5104 50.447C38.5306 50.4269 38.571 50.447 38.5912 50.4874C38.6315 50.548 38.6517 50.7094 38.5912 50.9315C38.4902 51.3755 38.2278 51.7389 37.8241 52.0013C37.0167 52.5261 36.1286 52.3242 35.5836 51.4967C35.2809 51.0324 35.2001 50.5278 35.3212 50.0433C35.4221 49.68 35.6644 49.3571 36.0277 49.1148C36.1892 49.0139 36.391 48.913 36.613 48.8726C36.7543 48.8524 36.8754 48.8524 36.9562 48.7919C37.0369 48.7313 36.9562 48.59 37.0369 48.5497C37.1378 48.4891 37.158 48.6102 37.3195 48.7717C37.5012 48.9736 37.6425 49.0947 37.703 49.1754C37.7434 49.236 37.7232 49.2763 37.6828 49.2965C37.6223 49.3369 37.5617 49.2763 37.4608 49.2158C36.9764 48.9736 36.4919 48.9937 36.0681 49.2763C35.5433 49.6195 35.4221 50.3259 35.8662 51.0122C36.391 51.8196 37.2186 52.0618 37.8443 51.6581C38.1471 51.4765 38.3287 51.2141 38.4095 50.8911Z" fill="#004785"/>
<path d="M40.2059 49.8213C40.3472 49.7608 40.4885 49.6195 40.5491 49.7002C40.5894 49.7406 40.5693 49.7809 40.5087 49.8213C40.4481 49.8819 40.2867 49.9828 40.0445 50.2048C39.7417 50.4672 39.5802 50.6287 39.56 50.6489C39.5196 50.6893 39.4793 50.6893 39.4389 50.6489C39.3784 50.5681 39.4995 50.5076 39.5196 50.3461C39.5398 50.1846 39.4591 50.0837 39.338 49.9424L38.0663 48.4487C37.9049 48.2671 37.8039 48.1662 37.6223 48.2469C37.4608 48.3075 37.3801 48.4286 37.2993 48.3478C37.259 48.3075 37.2791 48.2671 37.3397 48.2065C37.4002 48.1662 37.5617 48.0652 37.7838 47.8634C38.0462 47.6414 38.1875 47.4799 38.2278 47.4395C38.2884 47.3991 38.3287 47.3991 38.3489 47.4193C38.4095 47.5001 38.2682 47.5808 38.248 47.7221C38.2278 47.8634 38.2884 47.9441 38.4095 48.0652C38.4095 48.0652 38.4297 48.0854 38.4297 48.1056L39.7215 49.6195C39.9032 49.8415 40.0243 49.8819 40.2059 49.8213Z" fill="#004785"/>
<path d="M42.507 46.9349C42.7088 46.9954 42.8703 47.0156 42.9914 46.9349C43.0924 46.8743 43.1731 46.7734 43.2336 46.834C43.274 46.8743 43.274 46.9147 43.2135 46.9753C43.1529 47.0358 43.0116 47.1569 42.8299 47.3588C42.5877 47.6212 42.4868 47.8028 42.4666 47.823C42.4263 47.8634 42.3859 47.8634 42.3657 47.8432C42.3455 47.823 42.3253 47.7826 42.3455 47.7423C42.4061 47.5808 42.4263 47.5001 42.3253 47.3991C42.285 47.3588 42.2244 47.3386 42.1437 47.2982L41.6794 47.1367C41.5179 47.0762 41.4574 47.1166 41.3565 47.2377L40.8115 47.8432C40.6904 47.9643 40.6702 48.0451 40.7509 48.2065L40.8922 48.5295C40.9326 48.6102 40.9729 48.691 41.0335 48.7515C41.1142 48.8323 41.2152 48.8323 41.3363 48.7717C41.4574 48.691 41.5381 48.5699 41.6189 48.6304C41.6592 48.6708 41.6592 48.7112 41.5987 48.7717C41.5381 48.8323 41.3968 48.9332 41.2555 49.1148C41.0739 49.3167 40.9931 49.458 40.9729 49.4782C40.9326 49.5185 40.8922 49.5185 40.872 49.4984C40.8115 49.4378 40.872 49.3772 40.8922 49.2561C40.9124 49.135 40.8518 48.9937 40.7711 48.7919L39.6004 46.0669C39.5802 46.0266 39.5802 45.9862 39.6004 45.966C39.6206 45.9458 39.6609 45.9458 39.7215 45.9458L42.507 46.9349ZM40.0646 46.6321C40.0445 46.6523 40.0445 46.6927 40.0646 46.733L40.4683 47.6615C40.4885 47.7019 40.5087 47.7221 40.5289 47.7423C40.5693 47.7826 40.6096 47.7423 40.6904 47.6615L41.1546 47.1367C41.2152 47.0762 41.2152 47.0358 41.195 46.9954C41.1748 46.9753 41.1344 46.9551 41.0941 46.9551L40.1454 46.6321C40.105 46.6119 40.0646 46.6119 40.0646 46.6321Z" fill="#004785"/>
<path d="M44.041 45.2394C44.2832 44.8559 44.3438 44.4724 44.2429 44.2099C44.1823 44.0485 44.1016 43.9677 44.142 43.9274C44.1621 43.9072 44.1823 43.9072 44.2227 43.9274C44.3034 43.9879 44.4447 44.1292 44.5457 44.3311C44.6668 44.5733 44.6062 44.7549 44.4447 45.0173C44.3438 45.1788 44.142 45.421 43.9199 45.7642C43.6777 46.1477 43.5566 46.3697 43.5364 46.4101C43.496 46.4505 43.4759 46.4706 43.4153 46.4505C43.3346 46.3899 43.4355 46.289 43.4153 46.1275C43.3951 45.966 43.2942 45.9055 43.1327 45.8045L41.4776 44.7348C41.2555 44.5935 41.1546 44.5329 40.9931 44.654C40.872 44.7549 40.8115 44.9164 40.7105 44.8559C40.6702 44.8357 40.6702 44.7751 40.7105 44.7146C40.7509 44.654 40.872 44.5127 41.0335 44.2705C41.2152 43.9879 41.2959 43.8063 41.3363 43.7457C41.3766 43.6851 41.417 43.665 41.4574 43.6851C41.5381 43.7457 41.417 43.8466 41.4372 44.0081C41.4574 44.1494 41.5583 44.2099 41.7198 44.3109L43.3951 45.3807C43.7383 45.5825 43.8392 45.5825 44.041 45.2394Z" fill="#004785"/>
<path d="M42.8905 41.9694C42.7694 41.9089 42.7088 41.9493 42.6483 42.0905C42.6483 42.0905 42.6483 42.1107 42.6281 42.1107L42.4868 42.4337C42.3455 42.7365 42.3657 42.8576 42.5272 43.0392C42.6281 43.1603 42.7492 43.2007 42.7088 43.3016C42.6887 43.3218 42.6483 43.342 42.6079 43.3218C42.5474 43.2815 42.4868 43.2411 42.4061 43.1805L42.1033 42.9787C42.0226 42.9181 42.0024 42.8979 42.0427 42.7768C42.0831 42.6961 42.2042 42.5144 42.3657 42.1713L42.9309 41.0006C43.0924 40.6776 43.1731 40.4354 43.2336 40.3143C43.274 40.2336 43.2942 40.2134 43.3951 40.2537C43.7181 40.3748 43.8796 40.4354 43.8796 40.4354C43.9401 40.4556 43.9401 40.496 43.9199 40.5363C43.8796 40.6171 43.7383 40.5363 43.6172 40.5565C43.4557 40.5767 43.3548 40.6978 43.2538 40.94L43.0722 41.3033C43.0116 41.4245 43.0318 41.485 43.1529 41.5254L45.131 42.4741C45.353 42.575 45.4741 42.5952 45.6356 42.4539C45.7769 42.3328 45.7971 42.1309 45.9182 42.1915C45.9788 42.2117 45.9788 42.2722 45.9384 42.353C45.898 42.4539 45.7769 42.6154 45.6558 42.8778C45.4742 43.2613 45.3732 43.5438 45.3329 43.6448C45.2925 43.7053 45.2723 43.7255 45.2118 43.7053C45.1108 43.6448 45.1916 43.5237 45.2319 43.3622C45.2723 43.1805 45.1714 43.0594 44.9292 42.9383L42.8905 41.9694Z" fill="#004785"/>
<path d="M46.5439 39.9913C46.6449 39.8702 46.6852 39.6886 46.7862 39.7289C46.8467 39.7491 46.8467 39.7895 46.8265 39.85C46.8063 39.9308 46.7256 40.0923 46.6045 40.395C46.4632 40.7785 46.4228 40.9804 46.4026 41.0208C46.3825 41.0813 46.3421 41.1015 46.3017 41.0813C46.2008 41.0409 46.2815 40.9198 46.221 40.7785C46.1604 40.6372 46.0393 40.5767 45.8778 40.5161L44.0209 39.8702C43.7786 39.7895 43.6575 39.7491 43.5364 39.9106C43.4355 40.0519 43.4153 40.1932 43.3144 40.1528C43.274 40.1326 43.2538 40.0923 43.274 40.0115C43.2942 39.9308 43.3951 39.7693 43.496 39.5069C43.6172 39.1839 43.6575 38.9821 43.6777 38.9215C43.6979 38.861 43.7383 38.8408 43.7786 38.8408C43.8796 38.8812 43.7786 39.0023 43.8392 39.1436C43.8796 39.2647 43.9805 39.3051 44.142 39.3656C44.1621 39.3656 44.1621 39.3656 44.1823 39.3858L46.0595 40.0519C46.3017 40.1528 46.4228 40.1326 46.5439 39.9913Z" fill="#004785"/>
<path d="M44.5255 38.3967C44.2833 38.3362 44.1621 38.316 44.041 38.4775C43.9603 38.6188 43.9401 38.7802 43.8392 38.7601C43.7988 38.7399 43.7786 38.6995 43.7988 38.6188C43.819 38.5582 43.8796 38.3766 43.9603 38.0536C44.142 37.3269 44.2429 36.8021 44.3236 36.4792C44.3438 36.4186 44.364 36.4186 44.4447 36.4388C44.4649 36.4388 44.5053 36.459 44.5255 36.459C44.6869 36.4994 44.8282 36.4994 44.9292 36.5196C45.0099 36.5397 45.0301 36.5801 45.0301 36.6205C45.0099 36.7012 44.909 36.6608 44.7475 36.681C44.4649 36.7214 44.3842 36.9434 44.2832 37.3673C44.2025 37.6903 44.1823 37.8114 44.4044 37.8719L45.2118 38.0738C45.3732 38.1142 45.3934 38.094 45.4338 37.9325L45.4943 37.6903C45.5549 37.4682 45.5549 37.3068 45.4338 37.1857C45.3329 37.0847 45.2118 37.0444 45.2319 36.9636C45.2319 36.9233 45.2925 36.9233 45.3732 36.9434C45.454 36.9636 45.5751 37.004 45.7567 37.0645C45.9788 37.1251 46.1402 37.1251 46.2008 37.1453C46.2815 37.1655 46.3017 37.2058 46.3017 37.2462C46.2815 37.3269 46.2008 37.2866 46.0393 37.3068C45.8173 37.3269 45.7769 37.4279 45.7164 37.7105L45.6356 37.993C45.5953 38.1545 45.6558 38.1747 45.7971 38.2151L46.5238 38.3967C46.8669 38.4775 46.9678 38.4371 47.0486 38.1142C47.1697 37.6297 47.1091 37.2462 46.9275 37.0242C46.8265 36.8829 46.7256 36.8425 46.7256 36.782C46.7256 36.7618 46.766 36.7416 46.8063 36.7618C46.9073 36.782 47.0889 36.8829 47.2504 37.0444C47.4523 37.2462 47.4523 37.4279 47.3917 37.7105C47.3513 37.8921 47.2302 38.1949 47.1293 38.5986C47.0082 39.0427 46.988 39.2849 46.9678 39.3252C46.9476 39.3858 46.9275 39.406 46.8669 39.3858C46.766 39.3656 46.8265 39.2243 46.766 39.083C46.6852 38.9417 46.5641 38.9215 46.3825 38.861L44.5255 38.3967Z" fill="#004785"/>
<path d="M47.4926 36.2168C47.4119 36.237 47.3312 36.2168 47.2504 36.2168C47.0082 36.2572 46.8265 36.2773 46.7256 36.2572C46.6651 36.2572 46.6247 36.1966 46.6247 36.1562C46.6449 36.0755 46.7862 36.1159 46.9678 36.0553C47.3917 35.914 47.6541 35.6516 47.6945 35.3085C47.755 34.8846 47.5128 34.5616 47.1697 34.5213C46.8063 34.4809 46.6247 34.6827 46.3623 35.147C46.2614 35.3287 46.1604 35.5507 45.999 35.7525C45.8173 35.9746 45.5347 36.0755 45.2723 36.0351C44.7273 35.9746 44.4245 35.5709 44.5053 34.9855C44.5457 34.602 44.7273 34.38 44.7475 34.279C44.7677 34.1781 44.6466 34.1378 44.6668 34.0772C44.6668 34.057 44.7071 34.0166 44.7677 34.0368C44.8282 34.0368 44.8888 34.0772 44.9695 34.0772C45.1512 34.0974 45.3127 34.0772 45.4338 34.0974C45.5145 34.1176 45.5347 34.1378 45.5347 34.1781C45.5145 34.279 45.353 34.2387 45.1512 34.3598C44.8888 34.5213 44.7071 34.7635 44.6668 35.0663C44.6264 35.3892 44.8081 35.6718 45.1108 35.692C45.2319 35.7122 45.353 35.6718 45.4338 35.6112C45.6356 35.4498 45.7366 35.1672 45.9182 34.8442C46.1806 34.3396 46.5238 34.1378 47.0284 34.1983C47.6339 34.279 47.9771 34.7635 47.8963 35.4498C47.8156 35.8736 47.5936 36.2168 47.4926 36.2168Z" fill="#004785"/>
<path d="M45.5751 31.1302C45.5549 30.7467 45.8375 30.4238 46.221 30.4238C46.5843 30.4036 46.9073 30.7063 46.9275 31.0899C46.9476 31.4734 46.6449 31.7963 46.2815 31.7963C45.9182 31.7963 45.5953 31.5137 45.5751 31.1302Z" fill="#004785"/>
<path d="M10.7564 25.539C10.9784 25.4987 11.0995 25.4381 11.1803 25.317C11.2408 25.2161 11.261 25.095 11.3417 25.1152C11.4023 25.1354 11.4225 25.1757 11.4023 25.2565C11.3821 25.3372 11.3014 25.4987 11.2408 25.7611C11.1601 26.1042 11.1399 26.2859 11.1399 26.3263C11.1197 26.3666 11.0995 26.407 11.0592 26.3868C11.0188 26.3868 10.9986 26.3464 10.9986 26.3061C10.9784 26.1446 10.9582 26.0639 10.8169 26.0235C10.7766 26.0033 10.6958 26.0033 10.6151 26.0235L10.1307 26.084C9.94899 26.1042 9.9288 26.1648 9.88843 26.3263L9.68659 27.1135C9.64622 27.2749 9.6664 27.3557 9.8077 27.4566L10.0903 27.6584C10.171 27.719 10.2316 27.7796 10.3325 27.7997C10.4536 27.8199 10.5343 27.7997 10.6151 27.6786C10.6958 27.5575 10.6958 27.4162 10.7967 27.4364C10.8371 27.4566 10.8573 27.497 10.8371 27.5575C10.8169 27.6383 10.7564 27.7796 10.6958 28.0218C10.6353 28.2842 10.6353 28.4457 10.6151 28.4658C10.5949 28.5062 10.5747 28.5264 10.5142 28.5264C10.4334 28.5062 10.4536 28.4053 10.4132 28.3044C10.3729 28.1833 10.2518 28.0823 10.0903 27.9612L7.74885 26.1446C7.70848 26.1244 7.6883 26.084 7.70848 26.0639C7.70848 26.0235 7.74885 26.0235 7.78922 26.0033L10.7564 25.539ZM8.45532 26.3666C8.45532 26.3868 8.4755 26.4272 8.49569 26.4474L9.30308 27.0731C9.34345 27.0933 9.36363 27.1135 9.38382 27.1336C9.44437 27.1538 9.46456 27.0933 9.48474 26.9924L9.64622 26.3263C9.6664 26.2455 9.64622 26.2051 9.60585 26.185C9.58566 26.185 9.54529 26.185 9.48474 26.185L8.49569 26.3263C8.4755 26.3263 8.45532 26.3464 8.45532 26.3666Z" fill="#004785"/>
<path d="M9.8077 24.005C9.70677 23.9646 9.60585 23.9041 9.52511 23.8637C9.26271 23.7628 9.10123 23.6821 9.00031 23.6821C8.85901 23.6417 8.77827 23.6619 8.65716 23.7426C8.51587 23.8435 8.4755 24.0454 8.37458 24.005C8.33421 23.9848 8.31402 23.9445 8.35439 23.8637C8.39476 23.783 8.4755 23.6417 8.57643 23.4197C8.63698 23.2985 8.65716 23.1976 8.67735 23.1572C8.69753 23.1169 8.7379 23.1169 8.81864 23.1169H11.3821C11.4225 23.1169 11.4628 23.1169 11.4628 23.0967C11.4628 23.0765 11.4628 23.0361 11.4225 23.016L9.70677 20.9975C9.6664 20.9571 9.6664 20.9167 9.68659 20.8562C9.70677 20.8158 9.72696 20.7754 9.74714 20.7351C9.82788 20.5534 9.84807 20.4323 9.88843 20.3718C9.90862 20.3112 9.94899 20.291 9.98936 20.3112C10.0903 20.3516 9.96917 20.513 10.0095 20.6543C10.0297 20.7553 10.1307 20.836 10.2921 20.8966C10.3123 20.8966 10.3123 20.9167 10.3325 20.9167L12.2097 21.6434C12.4519 21.7443 12.573 21.7645 12.7143 21.603C12.8152 21.5021 12.8758 21.3204 12.9767 21.3608C13.0373 21.381 13.0373 21.4214 13.0171 21.4819C12.9969 21.5425 12.896 21.7241 12.7749 21.9865C12.6336 22.3297 12.573 22.5113 12.5528 22.5517C12.5326 22.6123 12.4923 22.6324 12.4519 22.5921C12.3712 22.5517 12.4115 22.4104 12.3913 22.3297C12.351 22.2287 12.2702 22.148 12.1289 22.0875C12.1088 22.0673 12.0886 22.0673 12.0482 22.0471L10.6756 21.5021C10.5747 21.4617 10.5142 21.4415 10.5142 21.4819C10.5142 21.5021 10.5343 21.5425 10.5949 21.6232L12.0482 23.3187C12.1088 23.3793 12.1289 23.4196 12.1088 23.46C12.0886 23.5004 12.0482 23.5004 11.9675 23.5004L9.68659 23.5206C9.62603 23.5206 9.60585 23.5408 9.60585 23.5609C9.60585 23.5811 9.62603 23.6215 9.70677 23.6619L10.7766 24.1665C10.8573 24.2069 10.9179 24.227 10.9986 24.2674C11.2408 24.3683 11.4023 24.4087 11.5436 24.3481C11.6849 24.2674 11.7252 24.0857 11.8262 24.1463C11.8665 24.1665 11.8665 24.2069 11.8464 24.2674C11.806 24.3481 11.7252 24.4693 11.6445 24.6913C11.5638 24.8528 11.5234 24.9941 11.5032 25.0748C11.483 25.1354 11.4427 25.1555 11.4023 25.1354C11.3014 25.095 11.3821 24.9537 11.3417 24.8326C11.2812 24.6913 11.0592 24.55 10.6353 24.3481L9.8077 24.005Z" fill="#004785"/>
<path d="M11.0592 19.7057C10.8371 19.5644 10.7362 19.5038 10.5747 19.6249C10.4536 19.7258 10.3931 19.8671 10.3123 19.8066C10.2719 19.7864 10.2719 19.7258 10.3123 19.6653C10.3325 19.6249 10.4536 19.4836 10.6353 19.201C11.0188 18.5955 11.2812 18.1312 11.4628 17.8688C11.5032 17.8083 11.5234 17.8083 11.584 17.8688C11.6041 17.889 11.6243 17.9092 11.6647 17.9294C11.806 18.0303 11.9473 18.0707 12.028 18.1312C12.1088 18.1716 12.1088 18.212 12.0886 18.2524C12.0482 18.3331 11.9473 18.2322 11.806 18.212C11.5234 18.1514 11.3821 18.3331 11.1601 18.6964C10.9784 18.9588 10.938 19.0799 11.1197 19.201L11.8262 19.6451C11.9675 19.746 11.9876 19.7258 12.0886 19.5845L12.2299 19.3827C12.351 19.1809 12.4115 19.0597 12.3308 18.8983C12.2702 18.7772 12.1491 18.6964 12.2097 18.6359C12.2299 18.6157 12.2702 18.6157 12.351 18.656C12.4115 18.6964 12.5125 18.7772 12.6941 18.8983C12.896 19.0194 13.0373 19.1001 13.0776 19.1203C13.1382 19.1607 13.1584 19.201 13.1382 19.2414C13.0978 19.302 13.0373 19.2414 12.8556 19.201C12.6537 19.1405 12.573 19.2414 12.4317 19.4634L12.2702 19.7057C12.1895 19.8268 12.2299 19.8873 12.351 19.9681L12.9969 20.3718C13.2997 20.5736 13.4006 20.5736 13.5822 20.291C13.8446 19.8873 13.9052 19.524 13.8043 19.2414C13.7437 19.0799 13.663 19.0194 13.7034 18.9588C13.7235 18.9386 13.7437 18.9386 13.7841 18.9588C13.8648 19.0194 14.0263 19.1607 14.107 19.3625C14.2282 19.6047 14.1878 19.7864 14.0263 20.0286C13.9254 20.1901 13.7235 20.4121 13.5217 20.7553C13.2795 21.1186 13.1785 21.3406 13.1584 21.381C13.118 21.4415 13.0978 21.4415 13.0373 21.4214C12.9565 21.3608 13.0574 21.2599 13.0373 21.1186C13.0171 20.9773 12.9161 20.8966 12.7547 20.7956L11.0592 19.7057Z" fill="#004785"/>
<path d="M14.5107 18.2322C14.7126 18.4138 14.8337 18.434 15.0154 18.3533C15.1567 18.2725 15.2374 18.1312 15.3181 18.1918C15.3585 18.2322 15.3585 18.2725 15.3181 18.3331C15.2778 18.3936 15.1365 18.5148 14.9346 18.757C14.6924 19.0396 14.5511 19.2212 14.5309 19.2616C14.4906 19.302 14.4502 19.3221 14.4098 19.2818C14.3291 19.2212 14.4502 19.1203 14.4502 18.9588C14.4502 18.7973 14.3493 18.7166 14.208 18.5955L12.7143 17.2835C12.5326 17.122 12.4115 17.0413 12.2501 17.1422C12.1088 17.2229 12.028 17.3642 11.9473 17.2835C11.9069 17.2431 11.9069 17.2027 11.9675 17.1422C12.0482 17.0413 12.1693 16.9202 12.3106 16.7587C12.4923 16.5568 12.6336 16.3348 12.8354 16.1128C13.2997 15.588 13.7841 15.5072 14.1676 15.8504C14.4502 16.0926 14.5107 16.4155 14.3694 16.8394C14.6319 16.7991 14.9952 16.9202 15.4998 17.0211C15.8631 17.1018 16.0852 17.122 16.1861 16.9807C16.2264 16.9202 16.2264 16.8596 16.2668 16.8394C16.287 16.8192 16.3274 16.8192 16.3476 16.8394C16.4081 16.9 16.4081 17.1018 16.2466 17.2835C16.065 17.4853 15.8026 17.5459 15.4191 17.4853C14.8741 17.4046 14.5107 17.2431 14.2685 17.2633C14.1676 17.2633 14.0869 17.344 13.9859 17.4651C13.885 17.5863 13.8648 17.6468 13.9658 17.7477L14.5107 18.2322ZM13.9254 17.2633C14.2685 16.8798 14.2887 16.5972 13.9456 16.3146C13.5822 15.9917 13.1584 16.0118 12.8556 16.3752C12.6941 16.5568 12.6941 16.6578 12.8556 16.7991L13.5621 17.4248C13.7034 17.5257 13.7639 17.445 13.9254 17.2633Z" fill="#004785"/>
<path d="M17.1751 16.1531C17.3164 16.0926 17.4375 15.9513 17.4981 16.032C17.5385 16.0724 17.5183 16.1128 17.4779 16.1531C17.4173 16.1935 17.2761 16.3146 17.0338 16.5165C16.7513 16.7789 16.61 16.9403 16.5696 16.9605C16.5292 17.0009 16.4888 17.0009 16.4485 16.9605C16.3879 16.8798 16.509 16.8192 16.5292 16.6578C16.5494 16.5165 16.4687 16.4155 16.3476 16.2742L15.0154 14.8008C14.8539 14.6191 14.753 14.5182 14.5713 14.5989C14.43 14.6595 14.3291 14.7806 14.2685 14.6998C14.2282 14.6595 14.2483 14.6191 14.2887 14.5585C14.3493 14.5182 14.4906 14.4172 14.7126 14.2154C14.9346 14.0337 15.0759 13.8924 15.1365 13.8319C15.1768 13.7915 15.2172 13.7915 15.2576 13.8117C15.3181 13.8924 15.197 13.9732 15.1768 14.1145C15.1567 14.2558 15.2172 14.3365 15.3383 14.4576C15.3383 14.4778 15.3585 14.4778 15.3585 14.498L16.7109 15.9917C16.8724 16.1733 16.9733 16.2339 17.1751 16.1531Z" fill="#004785"/>
<path d="M19.3753 14.1347C19.4358 13.8723 19.3955 13.731 19.456 13.6906C19.4762 13.6704 19.5166 13.6906 19.5367 13.731C19.5771 13.7915 19.5973 13.953 19.5569 14.1548C19.4762 14.5989 19.234 14.9622 18.8505 15.2246C18.0834 15.7494 17.1953 15.5678 16.6301 14.7402C16.3274 14.2961 16.2063 13.7713 16.3072 13.2869C16.3879 12.9236 16.61 12.6006 16.9531 12.3584C17.1146 12.2575 17.3164 12.1566 17.5183 12.1162C17.6596 12.0758 17.7807 12.096 17.8412 12.0354C17.922 11.9749 17.8412 11.8336 17.9018 11.7932C17.9825 11.7327 18.0229 11.8538 18.1844 12.0153C18.366 12.2171 18.5275 12.3382 18.5679 12.419C18.6082 12.4593 18.5881 12.5199 18.5679 12.5401C18.5073 12.5804 18.4468 12.5199 18.3458 12.4593C17.8614 12.2171 17.3972 12.2575 16.9935 12.5199C16.4888 12.863 16.4081 13.5695 16.8724 14.2356C17.4173 15.043 18.2449 15.265 18.8303 14.8613C19.1331 14.72 19.2945 14.4576 19.3753 14.1347Z" fill="#004785"/>
<path d="M22.4433 12.7015C22.6048 12.863 22.7259 12.9236 22.8672 12.9034C22.9883 12.8832 23.0893 12.8428 23.1094 12.9034C23.1296 12.9639 23.1094 13.0043 23.0287 13.0245C22.9682 13.0447 22.7865 13.1052 22.5241 13.2062C22.2011 13.3475 22.0397 13.4484 21.9993 13.4686C21.9589 13.4888 21.9185 13.4686 21.8984 13.4282C21.8782 13.408 21.8984 13.3676 21.9185 13.3273C22.0397 13.2062 22.1002 13.1456 22.0397 13.0245C22.0195 12.9841 21.9791 12.9236 21.9185 12.863L21.5956 12.5199C21.4745 12.3988 21.4139 12.3988 21.2524 12.4795L20.5258 12.7823C20.3643 12.8428 20.324 12.9034 20.324 13.0851V13.4282C20.324 13.5291 20.324 13.6099 20.3643 13.6906C20.4047 13.8117 20.4854 13.8521 20.6267 13.8521C20.768 13.8521 20.8891 13.7713 20.9295 13.8521C20.9497 13.8924 20.9295 13.9328 20.8488 13.9732C20.768 14.0136 20.6065 14.0337 20.4047 14.1347C20.1625 14.2356 20.0212 14.3365 20.001 14.3365C19.9606 14.3567 19.9203 14.3365 19.9001 14.2961C19.8597 14.2154 19.9606 14.175 20.0212 14.0741C20.0817 13.9732 20.1019 13.8117 20.1019 13.6099L20.1423 10.6427C20.1423 10.6023 20.1625 10.562 20.1827 10.562C20.223 10.5418 20.2432 10.562 20.2836 10.6023L22.4433 12.7015ZM20.3845 11.3492C20.3643 11.3492 20.3441 11.3895 20.3441 11.4299L20.324 12.4593C20.324 12.4997 20.324 12.5401 20.3441 12.5603C20.3643 12.6208 20.4249 12.6006 20.5258 12.5603L21.1515 12.2978C21.2121 12.2777 21.2524 12.2373 21.2323 12.1969C21.2323 12.1767 21.1919 12.1364 21.1717 12.1162L20.4652 11.4097C20.4249 11.3492 20.4047 11.3492 20.3845 11.3492Z" fill="#004785"/>
<path d="M23.2507 10.4409C23.2104 10.4409 23.2104 10.4812 23.2306 10.562L23.4728 11.8942C23.4728 11.9547 23.493 11.9951 23.493 12.0354C23.5535 12.3584 23.6141 12.5603 23.7755 12.641C23.9168 12.7015 24.1187 12.6208 24.1389 12.7419C24.1389 12.7823 24.1187 12.8227 24.0379 12.8428C23.8967 12.863 23.715 12.8832 23.5333 12.9236C23.3315 12.9639 23.2306 13.0043 23.17 13.0245C23.1094 13.0447 23.0691 13.0245 23.0691 12.9639C23.0489 12.863 23.1902 12.863 23.2709 12.7419C23.3719 12.5804 23.3517 12.318 23.2709 11.9143L23.0691 10.7436C23.0691 10.7234 23.0691 10.7033 23.0489 10.6629C22.9682 10.2592 22.8874 10.0573 22.7058 9.9766C22.5241 9.89586 22.3222 9.99679 22.3021 9.87568C22.3021 9.81512 22.3222 9.79494 22.403 9.77476C22.4837 9.75457 22.625 9.75457 22.7663 9.7142C22.8672 9.69402 22.948 9.67383 23.0085 9.65365C23.0893 9.63346 23.1296 9.69402 23.1902 9.73439L25.4307 11.551C25.4912 11.6116 25.5316 11.6318 25.572 11.6318C25.6124 11.6318 25.6124 11.5712 25.5922 11.4703L25.4912 10.9858C25.4509 10.8244 25.4307 10.6629 25.4105 10.5418C25.2894 9.93623 25.2087 9.61328 25.027 9.51235C24.9059 9.4518 24.6839 9.53254 24.6637 9.41143C24.6435 9.37106 24.6839 9.33069 24.7646 9.31051C24.9059 9.29032 25.0876 9.27014 25.2692 9.22977C25.4711 9.1894 25.5922 9.14903 25.6325 9.12884C25.6931 9.10866 25.7335 9.14903 25.7335 9.1894C25.7537 9.27014 25.6527 9.29032 25.572 9.37106C25.4307 9.49217 25.4307 9.67383 25.4912 9.95642C25.5316 10.1179 25.6325 10.6629 25.8142 11.6116L25.9555 12.318C25.9757 12.419 25.9555 12.4795 25.9151 12.4997C25.8748 12.4997 25.8142 12.4593 25.7133 12.3988L23.3315 10.461C23.2911 10.4409 23.2709 10.4207 23.2507 10.4409Z" fill="#004785"/>
<path d="M29.5686 9.95642C29.6089 9.69402 29.6089 9.53254 29.4878 9.4518C29.3264 9.35088 29.1447 9.37106 29.1447 9.27014C29.1447 9.20958 29.2052 9.1894 29.3062 9.20958C29.3869 9.22977 29.5484 9.27014 29.8108 9.31051C30.0732 9.35088 30.3558 9.37106 30.6384 9.43161C31.2843 9.55272 31.6072 9.93623 31.5467 10.3803C31.4861 10.7234 31.3045 10.9051 30.9613 10.9455V10.9657C31.4256 11.1473 31.6072 11.4703 31.5467 11.9143C31.4458 12.5199 30.9411 12.8428 30.1943 12.7217C29.9319 12.6814 29.6291 12.6006 29.3062 12.5401C29.0841 12.4997 28.9227 12.4997 28.8419 12.4795C28.7814 12.4795 28.7612 12.4391 28.7612 12.3786C28.7814 12.2777 28.9227 12.3382 29.0438 12.2575C29.1649 12.1767 29.2052 12.0556 29.2254 11.874L29.5686 9.95642ZM29.6897 12.0153C29.6291 12.3382 29.73 12.4593 30.1539 12.5199C30.6384 12.6006 30.9411 12.3786 31.0219 11.9345C31.1026 11.4299 30.82 11.0868 30.1741 10.9858C29.9117 10.9455 29.8713 10.9657 29.831 11.1877L29.6897 12.0153ZM29.9521 10.5418C29.9117 10.7436 29.9924 10.7638 30.3558 10.8244C30.7797 10.9051 31.0219 10.8042 31.0824 10.461C31.1632 9.99679 30.9209 9.63346 30.4365 9.55272C30.1943 9.51235 30.1337 9.59309 30.0934 9.85549L29.9521 10.5418Z" fill="#004785"/>
<path d="M35.3414 11.3088C35.5029 11.6923 35.5029 12.1364 35.3212 12.5804C35.1597 13.0043 34.857 13.3273 34.4936 13.5291C34.0496 13.7512 33.5651 13.7713 33.1009 13.5897C32.6367 13.408 32.2935 13.0649 32.132 12.6814C31.9706 12.2978 31.9706 11.8336 32.1522 11.3895C32.2733 11.0666 32.4954 10.784 32.7779 10.5821C33.2624 10.239 33.8074 10.1785 34.3725 10.4005C34.8368 10.6023 35.1799 10.8849 35.3414 11.3088ZM34.7762 12.6006C34.9579 12.1364 34.9983 11.6721 34.8772 11.2684C34.7762 10.9253 34.5744 10.6629 34.2312 10.5418C33.6055 10.2996 33.0202 10.5821 32.6972 11.3492C32.4954 11.8336 32.455 12.2978 32.5761 12.7621C32.6568 13.0649 32.8789 13.3273 33.2018 13.4484C33.8477 13.7108 34.4735 13.3878 34.7762 12.6006Z" fill="#004785"/>
<path d="M37.4003 15.3054C37.3599 15.5274 37.3801 15.6687 37.4608 15.7696C37.5415 15.8706 37.6425 15.9109 37.5819 15.9917C37.5415 16.032 37.5012 16.032 37.4406 15.9917C37.3801 15.9513 37.2388 15.8302 37.0167 15.6687C36.7342 15.487 36.5525 15.4063 36.5121 15.3861C36.4718 15.3659 36.4516 15.3256 36.4919 15.2852C36.5121 15.265 36.5525 15.2448 36.5929 15.2448C36.7543 15.2852 36.8351 15.2852 36.9158 15.1641C36.936 15.1237 36.9764 15.0632 36.9764 14.9824L37.0773 14.498C37.1177 14.3163 37.0773 14.276 36.936 14.1952L36.2699 13.7512C36.1286 13.6502 36.0681 13.6502 35.9066 13.7512L35.624 13.953C35.5433 14.0136 35.4625 14.0539 35.4221 14.1347C35.3616 14.2356 35.3616 14.3365 35.4423 14.4374C35.5231 14.5585 35.6644 14.6191 35.6038 14.6998C35.5836 14.7402 35.5231 14.7402 35.4625 14.6998C35.402 14.6595 35.2809 14.5384 35.079 14.4172C34.857 14.2558 34.7157 14.2154 34.6753 14.1952C34.6349 14.175 34.6148 14.1347 34.6551 14.0943C34.6955 14.0337 34.7762 14.0741 34.8973 14.0741C35.0185 14.0741 35.1597 13.9934 35.3414 13.8924L37.8443 12.2978C37.8847 12.2777 37.9251 12.2575 37.9452 12.2777C37.9856 12.2978 37.9856 12.3382 37.9654 12.3786L37.4003 15.3054ZM37.4003 12.8428C37.3801 12.8227 37.3397 12.8428 37.2993 12.863L36.4314 13.408C36.391 13.4282 36.3708 13.4484 36.3506 13.4686C36.3103 13.5089 36.3506 13.5493 36.4516 13.63L37.0167 14.0136C37.0773 14.0539 37.1379 14.0539 37.158 14.0337C37.1782 14.0136 37.1782 13.9732 37.1984 13.9328L37.4003 12.9639C37.4204 12.9034 37.4204 12.863 37.4003 12.8428Z" fill="#004785"/>
<path d="M38.571 16.1733C38.3893 16.3752 38.3489 16.4761 38.4297 16.6578C38.4902 16.7991 38.6315 16.9 38.571 16.9807C38.5306 17.0211 38.4902 17.0211 38.4297 16.9605C38.3893 16.9202 38.248 16.7587 38.026 16.5568C37.7434 16.2944 37.5819 16.1531 37.5617 16.133C37.5214 16.0926 37.5214 16.0522 37.5415 16.0118C37.6223 15.9311 37.703 16.0724 37.8645 16.0724C38.026 16.0724 38.1067 15.9917 38.248 15.8504L39.6206 14.4374C39.8022 14.2558 39.883 14.1548 39.7821 13.9732C39.7013 13.8319 39.5802 13.7512 39.6408 13.6704C39.6811 13.63 39.7215 13.6502 39.7821 13.6906C39.883 13.7915 39.9839 13.9126 40.1454 14.0539C40.327 14.2356 40.5491 14.3971 40.7711 14.5989C41.2757 15.0833 41.3161 15.5678 40.9528 15.9513C40.6904 16.2137 40.3876 16.2742 39.9637 16.0926C39.9839 16.355 39.8628 16.7183 39.7215 17.2027C39.6206 17.5661 39.6004 17.7881 39.7215 17.889C39.7619 17.9294 39.8426 17.9496 39.8628 17.9698C39.883 17.99 39.883 18.0303 39.8628 18.0505C39.8022 18.1111 39.6004 18.0909 39.4187 17.9294C39.2169 17.7477 39.1765 17.4853 39.2573 17.1018C39.3784 16.577 39.5398 16.2137 39.5398 15.9513C39.5398 15.8504 39.4793 15.7696 39.3582 15.6687C39.2371 15.5476 39.1765 15.5274 39.0756 15.6283L38.571 16.1733ZM39.56 15.6485C39.9233 16.0118 40.2059 16.0522 40.5087 15.7293C40.8518 15.3659 40.8518 14.9622 40.5087 14.6393C40.3472 14.4778 40.2261 14.4778 40.0848 14.6191L39.4187 15.3054C39.3178 15.4063 39.3784 15.4669 39.56 15.6485Z" fill="#004785"/>
<path d="M42.0226 16.8798C42.2244 16.7385 42.3253 16.6376 42.2648 16.4559C42.2042 16.2742 42.0831 16.1935 42.184 16.133C42.2244 16.0926 42.2648 16.1128 42.3051 16.1733C42.3657 16.2541 42.4464 16.3954 42.5877 16.5972C42.7896 16.8798 43.0116 17.122 43.1933 17.3642C43.8594 18.2725 43.7584 19.1607 42.9712 19.7662C42.5675 20.069 42.1235 20.1901 41.6794 20.1295C41.2354 20.069 40.9124 19.8268 40.5894 19.3827C40.3876 19.1203 40.2463 18.8579 40.0848 18.6359C39.9032 18.3936 39.7821 18.2725 39.7417 18.2322C39.7013 18.1918 39.7013 18.1514 39.7619 18.1111C39.8426 18.0505 39.9032 18.1918 40.0646 18.212C40.2059 18.2322 40.327 18.1716 40.4683 18.0505L42.0226 16.8798ZM40.6904 19.2818C41.1546 19.9075 41.8005 19.9681 42.4868 19.4836C43.3144 18.8781 43.4759 18.0303 42.9511 17.3037C42.7492 17.0413 42.6685 17.0009 42.4666 17.1422L40.7509 18.3936C40.3876 18.6762 40.3674 18.8579 40.6904 19.2818Z" fill="#004785"/>
<path d="M46.4632 24.7518C46.2815 25.1354 45.9384 25.4179 45.4943 25.5794C45.0705 25.7409 44.6264 25.7207 44.2429 25.5794C43.7786 25.3978 43.4355 25.0546 43.274 24.5904C43.0924 24.1059 43.1125 23.6417 43.3144 23.2582C43.496 22.8948 43.8392 22.5719 44.2833 22.4104C44.6264 22.2893 44.9695 22.2691 45.3127 22.3499C45.8778 22.4912 46.3017 22.8545 46.5036 23.4197C46.6651 23.8839 46.6651 24.328 46.4632 24.7518ZM45.1108 25.1757C45.5751 25.0142 45.9384 24.7317 46.1806 24.3683C46.3825 24.0656 46.4228 23.7426 46.3017 23.3995C46.0595 22.7536 45.454 22.5315 44.6869 22.7939C44.1823 22.9756 43.819 23.2582 43.5566 23.6619C43.3951 23.9243 43.3548 24.2674 43.4557 24.5904C43.6777 25.2161 44.3236 25.4583 45.1108 25.1757Z" fill="#004785"/>
<path d="M44.364 27.3557C44.3438 27.5172 44.4044 27.6786 44.3034 27.6988C44.2429 27.719 44.2227 27.6786 44.2025 27.6181C44.1823 27.5373 44.1621 27.3557 44.1016 27.0529C44.0209 26.6694 43.9603 26.4675 43.9401 26.4272C43.9199 26.3666 43.9401 26.3263 44.0007 26.3263C44.1016 26.3061 44.1016 26.4474 44.2227 26.5483C44.3438 26.629 44.4649 26.6088 44.6466 26.5685L46.5843 26.1446C46.8265 26.084 46.9678 26.0639 46.988 25.862C47.0082 25.7005 46.9476 25.5592 47.0486 25.539C47.1091 25.5189 47.1293 25.5592 47.1495 25.64C47.1697 25.6803 47.1697 25.8822 47.2504 26.2051C47.4119 26.9116 47.533 27.4162 47.6137 27.719C47.6339 27.7796 47.6137 27.7997 47.533 27.8199C47.5128 27.8199 47.4724 27.8199 47.4321 27.8401C47.2706 27.8805 47.1293 27.941 47.0284 27.9612C46.9476 27.9814 46.9073 27.9612 46.8871 27.9209C46.8669 27.8401 46.988 27.8401 47.1091 27.7392C47.3513 27.5777 47.311 27.3557 47.2302 26.9318C47.1697 26.629 47.1293 26.5079 46.9073 26.5483L46.0797 26.7299C45.9182 26.7703 45.898 26.7905 45.9384 26.952L45.999 27.1942C46.0393 27.4162 46.0999 27.5575 46.2614 27.5979C46.4027 27.6383 46.5238 27.6181 46.5439 27.6988C46.5439 27.7392 46.5238 27.7594 46.443 27.7796C46.3623 27.7997 46.2412 27.7997 46.0393 27.8401C45.7971 27.8805 45.6558 27.941 45.6154 27.9612C45.5347 27.9814 45.4943 27.9612 45.4742 27.9209C45.454 27.8401 45.5549 27.8401 45.6962 27.7594C45.8778 27.6383 45.8778 27.5575 45.8173 27.2749L45.7567 26.9924C45.7164 26.8511 45.6558 26.8309 45.5145 26.8712L44.7677 27.0327C44.4851 27.0731 44.3842 27.174 44.364 27.3557Z" fill="#004785"/>
<path d="M27.5905 57.4108C14.9144 57.4108 4.60003 46.1073 4.60003 32.2C4.57984 18.2927 14.8943 6.98926 27.5905 6.98926C40.2665 6.98926 50.5809 18.2927 50.5809 32.2C50.5809 46.1073 40.2665 57.4108 27.5905 57.4108ZM27.5905 7.3324C15.0961 7.3324 4.94317 18.4946 4.94317 32.2C4.94317 45.9055 15.0961 57.0676 27.5905 57.0676C40.0848 57.0676 50.2378 45.9055 50.2378 32.2C50.2378 18.4946 40.0646 7.3324 27.5905 7.3324Z" fill="#FFD100"/>
<path d="M30.1943 17.5257C30.1943 18.3936 29.1043 19.1001 27.7318 19.1001C26.3794 19.1001 25.2692 18.3936 25.2692 17.5257C25.2692 16.6578 26.3592 15.9513 27.7318 15.9513C29.1043 15.9513 30.1943 16.6578 30.1943 17.5257Z" fill="#FFD100"/>
<path d="M27.7519 19.1808C26.3592 19.1808 25.2288 18.4542 25.2288 17.5459C25.2288 16.6376 26.3592 15.9109 27.7519 15.9109C29.1447 15.9109 30.275 16.6376 30.275 17.5459C30.2548 18.434 29.1245 19.1808 27.7519 19.1808ZM27.7519 16.032C26.4399 16.032 25.3701 16.6981 25.3701 17.5459C25.3701 18.3735 26.4399 19.0597 27.7519 19.0597C29.0639 19.0597 30.1337 18.3735 30.1337 17.5459C30.1337 16.6981 29.0639 16.032 27.7519 16.032Z" fill="#004785"/>
<path d="M30.3962 19.8671C30.3962 20.1497 30.1741 20.3718 29.8915 20.3718H25.6124C25.3298 20.3718 25.1078 20.1497 25.1078 19.8671C25.1078 19.5846 25.3298 19.3625 25.6124 19.3625H29.8915C30.1539 19.3625 30.3962 19.5846 30.3962 19.8671Z" fill="#FFD100"/>
<path d="M29.8915 20.4323H25.6124C25.2894 20.4323 25.0472 20.1699 25.0472 19.8671C25.0472 19.5442 25.3096 19.302 25.6124 19.302H29.8915C30.2145 19.302 30.4567 19.5644 30.4567 19.8671C30.4567 20.1699 30.1943 20.4323 29.8915 20.4323ZM25.6124 19.4231C25.3701 19.4231 25.1683 19.6249 25.1683 19.8671C25.1683 20.1094 25.3701 20.3112 25.6124 20.3112H29.8915C30.1337 20.3112 30.3356 20.1094 30.3356 19.8671C30.3356 19.6249 30.1337 19.4231 29.8915 19.4231H25.6124Z" fill="#004785"/>
<path d="M29.2658 20.614H26.3794C27.2675 47.7221 27.2675 47.7221 27.2675 48.1056C27.2675 48.7515 28.1556 48.7919 28.196 48.2873C28.7208 36.4388 28.6401 36.459 29.2658 20.614Z" fill="#FFD100"/>
<path d="M27.7721 48.691C27.4895 48.691 27.1868 48.4891 27.1868 48.1056C27.1868 47.7423 27.1868 47.7423 26.4399 25.2565L26.2785 20.5332H29.3062V20.5938C29.064 26.8712 28.9227 30.6458 28.8217 33.6735C28.6603 38.316 28.5593 41.1015 28.2364 48.2469C28.2364 48.5295 28.0345 48.691 27.7721 48.691ZM26.4399 20.6745L26.5812 25.2565C27.3281 47.7423 27.3281 47.7423 27.3281 48.1056C27.3281 48.4286 27.5703 48.5699 27.7721 48.5699C27.9336 48.5699 28.1153 48.4891 28.1153 48.2671C28.4382 41.1217 28.5391 38.316 28.7006 33.6937C28.8016 30.666 28.9428 26.9116 29.1851 20.6745H26.4399Z" fill="#004785"/>
<path d="M28.1355 22.8747C27.0253 23.5004 24.9664 25.4179 24.9664 27.6383C24.9664 29.4347 25.6124 30.2421 26.5812 31.2513L26.561 27.9007C26.561 27.9007 26.6418 26.1648 27.2675 25.3372C28.418 23.8233 29.7502 23.5206 29.7502 23.5206C30.6585 23.2985 30.7998 23.8637 31.7889 23.5811C32.7779 23.2985 33.0807 22.8141 33.1816 22.693C33.8276 21.7443 32.7174 21.7039 32.677 21.7039C32.2128 21.6636 31.4256 21.2397 30.7595 21.381C29.3465 21.6636 29.4475 22.1278 28.1355 22.8747Z" fill="#FFD100"/>
<path d="M26.7629 31.6954L26.4601 31.3926C25.4913 30.3834 24.7848 29.5356 24.7848 27.6584C24.7848 25.317 26.9849 23.3389 28.0345 22.7334C28.5392 22.4508 28.8217 22.2086 29.0841 22.0067C29.4878 21.6636 29.8108 21.4012 30.7191 21.2195C31.1834 21.1186 31.6678 21.2801 32.1119 21.4012C32.3339 21.4617 32.5357 21.5223 32.677 21.5425C32.8587 21.5626 33.3229 21.6232 33.4844 21.9462C33.6055 22.1682 33.545 22.471 33.3229 22.8141C33.2018 22.9958 32.8587 23.5004 31.8293 23.783C31.2843 23.9243 30.9613 23.8435 30.6787 23.7628C30.4163 23.682 30.1943 23.6215 29.8108 23.7224C29.7906 23.7224 28.519 24.0454 27.429 25.4785C26.8436 26.2657 26.7427 27.941 26.7427 27.9612L26.7629 31.6954ZM31.0421 21.5223C30.9613 21.5223 30.8806 21.5223 30.7998 21.5425C29.9723 21.7039 29.7099 21.926 29.3062 22.2691C29.0438 22.471 28.741 22.7334 28.196 23.0361C27.1868 23.6013 25.1279 25.4583 25.1279 27.6584C25.1279 29.2127 25.6124 29.9999 26.3996 30.8275L26.3794 27.9208C26.3794 27.8401 26.4803 26.1042 27.1262 25.2363C28.2969 23.682 29.6493 23.3591 29.7099 23.3389C30.1943 23.2178 30.4971 23.2985 30.7595 23.3793C31.0219 23.46 31.2641 23.5206 31.7283 23.3995C32.6367 23.1572 32.9192 22.7334 33 22.5921C33.1615 22.3499 33.2018 22.1682 33.1615 22.0673C33.1009 21.926 32.8385 21.8654 32.6568 21.8452C32.455 21.825 32.233 21.7645 32.0109 21.7039C31.7082 21.6232 31.365 21.5223 31.0421 21.5223Z" fill="#004785"/>
<path d="M26.7427 38.3362C26.7831 39.406 26.8032 39.2647 26.8032 39.2647L26.9445 41.3437C26.9445 41.3437 25.1077 40.2537 25.0068 38.4977C24.8453 35.9342 27.328 34.8442 27.328 34.8442C27.8932 34.4809 29.1043 33.9157 29.1043 32.9468C29.1043 32.4019 29.0639 32.3413 29.0438 32.2L29.1447 29.3741C29.7098 29.8586 31.1833 30.4036 31.1833 32.9267C31.1833 34.602 28.8419 35.8938 28.5795 36.136C28.5391 36.1562 26.6821 37.004 26.7427 38.3362Z" fill="#FFD100"/>
<path d="M27.1262 41.6667L26.8436 41.485C26.7629 41.4446 24.9463 40.3143 24.8252 38.4977C24.6435 35.8333 27.2271 34.6827 27.2473 34.6827C27.3079 34.6424 27.3886 34.602 27.4694 34.5414C28.0345 34.1983 28.9025 33.6937 28.9025 32.9468C28.9025 32.5431 28.8823 32.422 28.8621 32.3211C28.8621 32.2807 28.8419 32.2606 28.8419 32.2202L28.9428 28.9906L29.2254 29.2328C29.3062 29.3136 29.4273 29.3943 29.5484 29.4751C30.2145 29.9393 31.3246 30.7265 31.3246 32.9065C31.3246 34.4203 29.6089 35.591 28.8823 36.0957C28.7612 36.1764 28.6804 36.2168 28.6603 36.2571L28.6199 36.2773C28.4382 36.3581 26.884 37.1655 26.9244 38.2958C26.9446 39.0628 26.9647 39.1839 26.9647 39.2041L26.8436 39.2647H26.9849L27.1262 41.6667ZM29.2658 29.7173L29.1851 32.2L29.2052 32.2606C29.2254 32.3615 29.2456 32.5028 29.2456 32.9468C29.2456 33.8753 28.2768 34.4607 27.651 34.8442C27.5703 34.9048 27.4694 34.9451 27.4088 34.9855C27.2877 35.0461 25.027 36.0755 25.1683 38.4775C25.249 39.7087 26.2381 40.5969 26.7427 40.9804L26.6216 39.2849C26.6014 39.1436 26.5812 38.861 26.561 38.316C26.5207 36.9838 28.1355 36.1159 28.4584 35.9544C28.4786 35.9342 28.5593 35.8736 28.7006 35.7929C29.3264 35.369 30.9815 34.2387 30.9815 32.9065C30.9815 30.9082 29.9925 30.2219 29.3465 29.7577C29.3264 29.7577 29.3062 29.7375 29.2658 29.7173Z" fill="#004785"/>
<path d="M28.7006 40.0923C29.4475 40.4354 29.6897 40.8593 29.6493 41.7878C29.6291 42.7566 28.1153 43.6246 27.1464 44.2907C26.0363 45.0577 25.8546 46.9954 25.8546 46.9954C25.8546 46.9954 25.6124 45.2595 26.1977 44.3512C26.8235 43.3824 28.5997 42.0704 28.6199 41.9291C28.7006 41.4446 28.7006 40.0923 28.7006 40.0923Z" fill="#FFD100"/>
<path d="M25.8546 47.1973C25.7738 47.1973 25.6931 47.1367 25.6729 47.056C25.6527 46.9753 25.4307 45.2394 26.0362 44.3109C26.4601 43.665 27.3684 42.8777 27.9538 42.3529C28.1556 42.1713 28.3777 41.9896 28.4382 41.9291C28.4988 41.4043 28.519 40.1528 28.519 40.1326C28.519 40.0721 28.5593 40.0115 28.5997 39.9913C28.6401 39.951 28.7208 39.951 28.7612 39.9711C29.5686 40.3345 29.8512 40.8189 29.831 41.8281C29.8108 42.7768 28.5997 43.5842 27.6107 44.2301C27.4895 44.3109 27.3684 44.3916 27.2473 44.4723C26.2179 45.1788 26.0362 47.0358 26.0161 47.056C26.0362 47.1165 25.9555 47.1973 25.8546 47.1973ZM28.8823 40.395C28.8823 40.8189 28.8621 41.6061 28.8016 41.9896C28.7814 42.0905 28.7208 42.1511 28.2162 42.5952C27.6308 43.0998 26.7427 43.8668 26.3592 44.4723C26.1573 44.7953 26.0564 45.2192 26.0161 45.6431C26.2179 45.0981 26.5409 44.5127 27.0657 44.1696C27.1868 44.0888 27.3079 44.0081 27.429 43.9274C28.3373 43.3218 29.4676 42.575 29.4878 41.808C29.508 41.0409 29.3667 40.6776 28.8823 40.395Z" fill="#004785"/>
<path d="M31.6072 22.0471C31.6072 22.1682 31.5063 22.2893 31.3852 22.2893C31.2641 22.2893 31.1833 22.1884 31.1833 22.0471C31.1833 21.926 31.2843 21.8049 31.3852 21.8049C31.5063 21.8049 31.6072 21.9058 31.6072 22.0471Z" fill="#002D74"/>
<path d="M14.9346 31.9578C14.7933 31.9578 14.6117 31.9982 14.4098 32.6239C14.3493 32.8257 14.2281 33.1487 14.2281 33.3909C14.2281 34.0772 15.1566 33.9359 15.1566 34.1983C15.1566 34.4001 14.8942 34.3396 14.7126 34.3396C14.43 34.3396 14.1676 34.2992 13.9052 34.2992C13.6428 34.2992 13.4006 34.3396 13.1382 34.3396C13.0171 34.3396 12.8758 34.3598 12.8758 34.2387C12.8758 34.0166 13.3198 34.0772 13.5419 33.5322L15.8833 27.719C15.9439 27.5575 15.9842 27.3759 16.1053 27.3759C16.1861 27.3759 16.2063 27.396 16.3072 27.6786L18.6486 33.5524C18.9312 34.2387 19.3954 33.8552 19.3954 34.1781C19.3954 34.3396 19.3147 34.3194 19.0927 34.3194C18.7899 34.3194 18.5477 34.279 17.9825 34.279C17.599 34.279 17.276 34.3194 17.0338 34.3194C16.8724 34.3194 16.7714 34.3396 16.7714 34.1983C16.7714 33.9157 17.377 34.0166 17.377 33.4313C17.377 33.2294 17.3164 33.0478 17.2155 32.7854C16.9329 32.0385 16.8925 31.9376 16.6705 31.9376L14.9346 31.9578ZM16.3677 31.433C16.5292 31.433 16.6503 31.433 16.6503 31.3523C16.6503 31.211 16.5898 31.11 16.5494 30.9889L15.8429 29.253C15.7824 29.1723 15.8227 29.1723 15.7824 29.1723C15.7622 29.1723 15.7218 29.1723 15.6815 29.2934L15.0154 30.9889C14.975 31.11 14.9144 31.211 14.9144 31.3523C14.9144 31.4532 15.0355 31.433 15.197 31.433H16.3677Z" fill="#FFD100"/>
<path d="M20.4249 28.9301C20.4249 27.5979 19.5166 28.1227 19.5166 27.6584C19.5166 27.497 19.6175 27.5171 19.6578 27.5171C19.7184 27.5171 19.779 27.5575 20.1827 27.5575C20.9093 27.5575 21.6561 27.5171 22.3828 27.5171C24.5022 27.5171 24.5022 28.9301 24.5022 29.1723C24.5022 29.7778 24.1792 30.3026 23.5535 30.5247V30.5449C24.6031 30.8476 24.9463 31.3523 24.9463 32.2202C24.9463 33.4918 24.159 34.3194 22.7461 34.3194C21.4543 34.3194 21.0304 34.279 20.5863 34.279C20.3845 34.279 20.1625 34.3194 19.9808 34.3194C19.779 34.3194 19.6982 34.2992 19.6982 34.1579C19.6982 33.835 20.4451 34.0974 20.4451 33.1689L20.4249 28.9301ZM21.4947 29.9595C21.4947 30.4238 21.5754 30.4641 22.08 30.5045H22.6048C23.2507 30.5045 23.5131 30.1412 23.5131 29.4347C23.5131 28.5466 22.8672 27.941 22.1002 27.941C21.5148 27.941 21.4947 28.3044 21.4947 28.8493V29.9595ZM21.4947 32.7652C21.4947 33.6735 21.7167 33.9561 22.5645 33.9561C23.4122 33.9561 23.8563 33.3304 23.8563 32.4019C23.8563 31.8165 23.6141 30.9687 22.0396 30.9687C21.535 30.9687 21.5148 31.211 21.5148 31.7156V32.7652H21.4947Z" fill="#FFD100"/>
<path d="M33.1211 33.0074C33.1211 34.2185 34.0899 33.835 34.0899 34.1781C34.0899 34.3396 33.989 34.3194 33.8679 34.3194C33.2018 34.3194 32.7779 34.279 32.5559 34.279C32.1724 34.279 31.4256 34.3194 31.365 34.3194C31.3448 34.3194 31.1632 34.3396 31.1632 34.1781C31.1632 33.8955 31.9302 34.1176 31.9302 32.9065V28.6879C31.9302 27.6786 30.9209 28.0621 30.9209 27.6988C30.9209 27.6383 30.9613 27.5171 31.1833 27.5171C31.2439 27.5171 31.7889 27.5575 32.5155 27.5575C32.6568 27.5575 33.3229 27.5373 34.0092 27.5171C35.2405 27.497 36.4314 27.9814 36.4314 29.3741C36.4314 30.5852 35.5432 31.3119 34.3927 31.3119C33.444 31.3119 33.4037 31.0697 33.4037 31.0293C33.4037 30.9687 33.4239 30.8476 33.545 30.8476C33.6257 30.8476 33.7872 30.9082 33.989 30.9082C35.1597 30.9082 35.2405 29.8182 35.2405 29.576C35.2405 29.3338 35.1597 27.9208 33.6661 27.9208C33.2422 27.9208 33.0807 28.1227 33.0807 28.5466V33.0074H33.1211Z" fill="#FFD100"/>
<path d="M37.0571 32.3211C37.0369 32.1798 36.936 31.9174 37.1782 31.9174C37.3397 31.9174 37.3599 31.9982 37.3801 32.1193C37.6828 33.0478 38.2884 33.9157 39.3582 33.9157C40.105 33.9157 40.6904 33.4515 40.6904 32.6844C40.6904 31.8771 40.0848 31.7358 38.5306 31.0697C37.703 30.7063 37.1378 30.3228 37.1378 29.3136C37.1378 28.2034 37.9049 27.396 39.0352 27.396C39.8224 27.396 40.2261 27.7795 40.5087 27.7795C40.6298 27.7795 40.872 27.6181 40.9931 27.6181C41.1344 27.6181 41.1142 27.7594 41.1344 27.9814L41.2353 29.2732C41.2555 29.4953 41.2353 29.5962 41.0133 29.5962C40.7913 29.5962 40.65 27.7997 38.9948 27.7997C38.3691 27.7997 37.925 28.1631 37.925 28.809C37.925 29.4549 38.4499 29.576 39.7417 30.1412C40.7711 30.5852 41.3968 31.0091 41.3968 32.2202C41.3968 33.4717 40.5087 34.3396 39.2572 34.3396C38.6719 34.3396 38.1875 34.1176 37.6223 33.9763C37.3801 33.9157 37.4002 33.835 37.3397 33.6129L37.0571 32.3211Z" fill="#FFD100"/>
<path d="M62.2881 27.3557H59.0989L58.5741 28.8695H56.8987L59.7852 20.8965H61.6421L64.5084 28.8897H62.8129L62.2881 27.3557ZM60.7136 22.7334L59.5429 26.084H61.844L60.7136 22.7334Z" fill="#004785"/>
<path d="M74.1567 25.3776C74.1567 24.3683 73.5915 23.8435 72.7438 23.8435C71.8758 23.8435 71.3308 24.3683 71.3308 25.3776V28.8695H69.7362V25.3776C69.7362 24.3683 69.1711 23.8435 68.3233 23.8435C67.4554 23.8435 66.8902 24.3683 66.8902 25.3776V28.8695H65.2956V22.5517H66.8902V23.3187C67.2939 22.7939 67.96 22.4508 68.7472 22.4508C69.7362 22.4508 70.5436 22.8746 70.9877 23.6619C71.3914 22.9352 72.2391 22.4508 73.1676 22.4508C74.6815 22.4508 75.7715 23.4196 75.7715 25.1555V28.8695H74.1769V25.3776H74.1567Z" fill="#004785"/>
<path d="M79.9093 28.9906C78.0725 28.9906 76.7202 27.719 76.7202 25.7207C76.7202 23.7224 78.0322 22.4508 79.9093 22.4508C81.7462 22.4508 83.038 23.7022 83.038 25.5794C83.038 25.7813 83.0178 25.9831 82.9976 26.2051H78.3551C78.4359 27.1336 79.0818 27.6786 79.869 27.6786C80.5553 27.6786 80.9388 27.3355 81.1406 26.9116H82.8765C82.5132 28.0621 81.4636 28.9906 79.9093 28.9906ZM78.3551 25.1152H81.3626C81.3425 24.2876 80.6764 23.7628 79.8488 23.7628C79.0818 23.7628 78.4762 24.2472 78.3551 25.1152Z" fill="#004785"/>
<path d="M85.6216 28.8897H84.027V22.5517H85.6216V23.5206C86.0253 22.8746 86.6914 22.4508 87.5594 22.4508V24.1261H87.1355C86.1868 24.1261 85.6216 24.4894 85.6216 25.7207V28.8897Z" fill="#004785"/>
<path d="M88.1649 20.8562C88.1649 20.3314 88.5686 19.9277 89.154 19.9277C89.7191 19.9277 90.143 20.3314 90.143 20.8562C90.143 21.381 89.7191 21.7847 89.154 21.7847C88.5686 21.7847 88.1649 21.381 88.1649 20.8562ZM88.3466 22.5517H89.9412V28.8897H88.3466V22.5517Z" fill="#004785"/>
<path d="M94.0387 22.4508C95.6131 22.4508 96.6829 23.2783 97.026 24.6913H95.2901C95.1085 24.1463 94.6846 23.8031 94.0185 23.8031C93.1304 23.8031 92.5248 24.4692 92.5248 25.7207C92.5248 26.952 93.1102 27.6181 94.0185 27.6181C94.6846 27.6181 95.0883 27.3153 95.2901 26.7501H97.026C96.6829 28.1025 95.6131 28.9906 94.0387 28.9906C92.2019 28.9906 90.91 27.719 90.91 25.7207C90.91 23.7224 92.2019 22.4508 94.0387 22.4508Z" fill="#004785"/>
<path d="M100.518 22.4508C101.527 22.4508 102.234 22.9352 102.617 23.46V22.5517H104.232V28.8897H102.617V27.9612C102.234 28.5062 101.527 28.9906 100.518 28.9906C98.9234 28.9906 97.6316 27.6786 97.6316 25.7005C97.6114 23.7224 98.9032 22.4508 100.518 22.4508ZM100.922 23.8435C100.054 23.8435 99.2463 24.4894 99.2463 25.6803C99.2463 26.8914 100.054 27.5777 100.922 27.5777C101.81 27.5777 102.597 26.9116 102.597 25.7207C102.597 24.5096 101.81 23.8435 100.922 23.8435Z" fill="#004785"/>
<path d="M110.045 25.3776C110.045 24.3683 109.48 23.8031 108.632 23.8031C107.764 23.8031 107.199 24.3481 107.199 25.3776V28.8695H105.605V22.5517H107.199V23.3389C107.603 22.7939 108.289 22.4508 109.117 22.4508C110.59 22.4508 111.64 23.4196 111.64 25.1555V28.8695H110.045V25.3776Z" fill="#004785"/>
<path d="M119.33 28.8897H115.879V20.8965H119.169C120.844 20.8965 121.773 21.7645 121.773 22.9554C121.773 23.9243 121.187 24.5298 120.42 24.7922C121.328 24.9537 121.974 25.7813 121.974 26.7299C121.954 27.9814 120.985 28.8897 119.33 28.8897ZM118.947 22.1884H117.473V24.1867H118.947C119.693 24.1867 120.138 23.8435 120.138 23.1976C120.138 22.5517 119.714 22.1884 118.947 22.1884ZM119.068 25.4381H117.493V27.5979H119.108C119.895 27.5979 120.339 27.2144 120.339 26.5483C120.339 25.8418 119.855 25.4381 119.068 25.4381Z" fill="#004785"/>
<path d="M125.91 28.9906C124.074 28.9906 122.701 27.719 122.701 25.7207C122.701 23.7224 124.134 22.4508 125.971 22.4508C127.808 22.4508 129.241 23.7224 129.241 25.7207C129.201 27.6988 127.747 28.9906 125.91 28.9906ZM125.91 27.5979C126.758 27.5979 127.566 26.9722 127.566 25.7207C127.566 24.4491 126.778 23.8435 125.931 23.8435C125.083 23.8435 124.316 24.4491 124.316 25.7207C124.316 26.9722 125.042 27.5979 125.91 27.5979Z" fill="#004785"/>
<path d="M132.733 22.4508C133.742 22.4508 134.449 22.9352 134.832 23.46V22.5517H136.447V28.8897H134.832V27.9612C134.449 28.5062 133.742 28.9906 132.733 28.9906C131.138 28.9906 129.846 27.6786 129.846 25.7005C129.846 23.7224 131.118 22.4508 132.733 22.4508ZM133.137 23.8435C132.269 23.8435 131.461 24.4894 131.461 25.6803C131.461 26.8914 132.269 27.5777 133.137 27.5777C134.025 27.5777 134.812 26.9116 134.812 25.7207C134.832 24.5096 134.025 23.8435 133.137 23.8435Z" fill="#004785"/>
<path d="M139.434 28.8897H137.84V22.5517H139.434V23.5206C139.838 22.8746 140.504 22.4508 141.372 22.4508V24.1261H140.948C139.999 24.1261 139.434 24.4894 139.434 25.7207V28.8897Z" fill="#004785"/>
<path d="M144.723 22.4508C145.55 22.4508 146.358 22.8343 146.802 23.4398V20.4121H148.416V28.8695H146.802V27.941C146.418 28.5264 145.712 28.9906 144.723 28.9906C143.108 28.9906 141.836 27.6786 141.836 25.7005C141.816 23.7224 143.108 22.4508 144.723 22.4508ZM145.126 23.8435C144.258 23.8435 143.451 24.4894 143.451 25.6803C143.451 26.8914 144.258 27.5777 145.126 27.5777C146.014 27.5777 146.802 26.9116 146.802 25.7207C146.802 24.5096 146.014 23.8435 145.126 23.8435Z" fill="#004785"/>
<path d="M155.521 28.9906C153.685 28.9906 152.312 27.719 152.312 25.7207C152.312 23.7224 153.745 22.4508 155.582 22.4508C157.419 22.4508 158.852 23.7224 158.852 25.7207C158.832 27.6988 157.358 28.9906 155.521 28.9906ZM155.521 27.5979C156.369 27.5979 157.177 26.9722 157.177 25.7207C157.177 24.4491 156.389 23.8435 155.542 23.8435C154.694 23.8435 153.927 24.4491 153.927 25.7207C153.927 26.9722 154.674 27.5979 155.521 27.5979Z" fill="#004785"/>
<path d="M159.942 23.8637H159.215V22.5517H159.942V22.2287C159.942 20.6745 160.83 19.9479 162.606 19.9882V21.3406C161.819 21.3204 161.557 21.5626 161.557 22.2691V22.5315H162.667V23.8435H161.557V28.8695H159.942V23.8637Z" fill="#004785"/>
<path d="M60.3301 38.3967H58.9979V41.4648H57.4033V33.4716H60.3503C62.2679 33.4716 63.2367 34.5616 63.2367 35.9342C63.2166 37.1655 62.389 38.3967 60.3301 38.3967ZM60.2696 37.1049C61.1779 37.1049 61.5816 36.6608 61.5816 35.9544C61.5816 35.2277 61.1779 34.7837 60.2696 34.7837H58.9979V37.1049H60.2696Z" fill="#004785"/>
<path d="M64.0239 33.0074H65.6185V35.9342C66.0222 35.3892 66.7489 35.0461 67.5765 35.0461C69.0096 35.0461 70.039 36.0149 70.039 37.7508V41.4648H68.4444V37.9728C68.4444 36.9636 67.8792 36.3984 67.0315 36.3984C66.1635 36.3984 65.5984 36.9434 65.5984 37.9728V41.4648H64.0038L64.0239 33.0074Z" fill="#004785"/>
<path d="M75.4687 35.1268H77.1642L73.2484 44.4521H71.5529L72.9254 41.3033L70.3821 35.1268H72.1786L73.8136 39.5473L75.4687 35.1268Z" fill="#004785"/>
<path d="M80.091 41.5657C78.4964 41.5657 77.3863 40.6372 77.3257 39.4665H78.9405C79.001 39.951 79.4451 40.3143 80.091 40.3143C80.7167 40.3143 81.0599 40.0317 81.0599 39.6684C81.0599 38.538 77.4872 39.2647 77.4872 36.9434C77.4872 35.8938 78.4157 35.0461 79.9901 35.0461C81.5241 35.0461 82.4526 35.8736 82.5334 37.1453H80.9993C80.959 36.6608 80.5553 36.3177 79.9295 36.3177C79.3442 36.3177 79.0212 36.5599 79.0212 36.9232C79.0212 38.0738 82.5334 37.3673 82.5737 39.6885C82.5939 40.7382 81.6452 41.5657 80.091 41.5657Z" fill="#004785"/>
<path d="M83.5022 33.4313C83.5022 32.9065 83.9059 32.5028 84.4913 32.5028C85.0565 32.5028 85.4803 32.9065 85.4803 33.4313C85.4803 33.9561 85.0565 34.3598 84.4913 34.3598C83.9261 34.38 83.5022 33.9561 83.5022 33.4313ZM83.6839 35.1268H85.2785V41.4648H83.6839V35.1268Z" fill="#004785"/>
<path d="M89.376 35.0259C90.9504 35.0259 92.0202 35.8534 92.3633 37.2664H90.6274C90.4458 36.7214 90.0219 36.3782 89.3558 36.3782C88.4677 36.3782 87.8621 37.0443 87.8621 38.2958C87.8621 39.5271 88.4475 40.1932 89.3558 40.1932C90.0219 40.1932 90.4256 39.8904 90.6274 39.3252H92.3633C92.0202 40.6776 90.9504 41.5657 89.376 41.5657C87.5392 41.5657 86.2474 40.2941 86.2474 38.2958C86.2474 36.2975 87.5392 35.0259 89.376 35.0259Z" fill="#004785"/>
<path d="M93.1707 33.4313C93.1707 32.9065 93.5744 32.5028 94.1598 32.5028C94.725 32.5028 95.1488 32.9065 95.1488 33.4313C95.1488 33.9561 94.725 34.3598 94.1598 34.3598C93.5744 34.38 93.1707 33.9561 93.1707 33.4313ZM93.3322 35.1268H94.9268V41.4648H93.3322V35.1268Z" fill="#004785"/>
<path d="M98.8225 35.0259C99.8317 35.0259 100.538 35.5103 100.922 36.0351V35.1268H102.536V41.4648H100.922V40.5363C100.538 41.0813 99.8317 41.5657 98.8225 41.5657C97.2279 41.5657 95.936 40.2537 95.936 38.2756C95.936 36.2975 97.2077 35.0259 98.8225 35.0259ZM99.2262 36.4388C98.3582 36.4388 97.5508 37.0847 97.5508 38.2756C97.5508 39.4867 98.3582 40.173 99.2262 40.173C100.114 40.173 100.901 39.5069 100.901 38.316C100.922 37.1049 100.114 36.4388 99.2262 36.4388Z" fill="#004785"/>
<path d="M108.35 37.9728C108.35 36.9636 107.784 36.3984 106.937 36.3984C106.069 36.3984 105.504 36.9434 105.504 37.9728V41.4648H103.909V35.1268H105.504V35.914C105.907 35.369 106.594 35.0259 107.421 35.0259C108.895 35.0259 109.944 35.9947 109.944 37.7306V41.4446H108.35V37.9728Z" fill="#004785"/>
<path d="M116.948 41.5455C115.293 41.5455 114.001 40.6776 113.981 39.1637H115.697C115.737 39.8097 116.161 40.2335 116.908 40.2335C117.655 40.2335 118.119 39.8298 118.119 39.2647C118.119 37.5288 114.001 38.5784 114.022 35.692C114.022 34.2589 115.192 33.3909 116.827 33.3909C118.462 33.3909 119.593 34.2185 119.693 35.6718H117.937C117.897 35.147 117.473 34.7433 116.787 34.7231C116.161 34.7029 115.697 35.0057 115.697 35.6516C115.697 37.2462 119.794 36.3581 119.794 39.1839C119.774 40.4152 118.765 41.5455 116.948 41.5455Z" fill="#004785"/>
<path d="M124.659 35.0259C126.274 35.0259 127.545 36.2975 127.545 38.2756C127.545 40.2537 126.274 41.5657 124.659 41.5657C123.67 41.5657 122.963 41.0813 122.56 40.5565V44.4723H120.965V35.1066H122.56V36.0149C122.943 35.5103 123.67 35.0259 124.659 35.0259ZM124.235 36.4388C123.367 36.4388 122.56 37.1049 122.56 38.2958C122.56 39.5069 123.367 40.1528 124.235 40.1528C125.103 40.1528 125.91 39.4665 125.91 38.2554C125.91 37.0645 125.103 36.4388 124.235 36.4388Z" fill="#004785"/>
<path d="M131.401 41.5657C129.564 41.5657 128.211 40.2941 128.211 38.2958C128.211 36.2975 129.523 35.0259 131.401 35.0259C133.237 35.0259 134.529 36.2773 134.529 38.1545C134.529 38.3564 134.509 38.5582 134.489 38.7802H129.846C129.927 39.7087 130.573 40.2537 131.36 40.2537C132.047 40.2537 132.43 39.9106 132.632 39.4867H134.368C134.004 40.6372 132.955 41.5657 131.401 41.5657ZM129.846 37.7104H132.854C132.834 36.8829 132.168 36.3581 131.34 36.3581C130.573 36.3379 129.968 36.8425 129.846 37.7104Z" fill="#004785"/>
<path d="M138.284 35.0259C139.858 35.0259 140.928 35.8534 141.271 37.2664H139.535C139.353 36.7214 138.93 36.3782 138.263 36.3782C137.375 36.3782 136.77 37.0443 136.77 38.2958C136.77 39.5271 137.355 40.1932 138.263 40.1932C138.93 40.1932 139.333 39.8904 139.535 39.3252H141.271C140.928 40.6776 139.858 41.5657 138.284 41.5657C136.447 41.5657 135.155 40.2941 135.155 38.2958C135.135 36.2975 136.447 35.0259 138.284 35.0259Z" fill="#004785"/>
<path d="M142.058 33.4313C142.058 32.9065 142.462 32.5028 143.047 32.5028C143.612 32.5028 144.036 32.9065 144.036 33.4313C144.036 33.9561 143.612 34.3598 143.047 34.3598C142.482 34.38 142.058 33.9561 142.058 33.4313ZM142.24 35.1268H143.834V41.4648H142.24V35.1268Z" fill="#004785"/>
<path d="M147.73 35.0259C148.739 35.0259 149.446 35.5103 149.829 36.0351V35.1268H151.444V41.4648H149.829V40.5363C149.446 41.0813 148.739 41.5657 147.73 41.5657C146.136 41.5657 144.844 40.2537 144.844 38.2756C144.824 36.2975 146.115 35.0259 147.73 35.0259ZM148.134 36.4388C147.266 36.4388 146.458 37.0847 146.458 38.2756C146.458 39.4867 147.266 40.173 148.134 40.173C149.022 40.173 149.809 39.5069 149.809 38.316C149.809 37.1049 149.022 36.4388 148.134 36.4388Z" fill="#004785"/>
<path d="M152.817 33.0074H154.411V41.4648H152.817V33.0074Z" fill="#004785"/>
<path d="M156.066 36.4388H155.32V35.1268H156.066V33.5524H157.681V35.1268H159.094V36.4388H157.681V39.5069C157.681 39.9308 157.863 40.1124 158.347 40.1124H159.094V41.4648H158.085C156.874 41.4648 156.066 40.9602 156.066 39.5069V36.4388Z" fill="#004785"/>
<path d="M159.861 33.4313C159.861 32.9065 160.265 32.5028 160.85 32.5028C161.415 32.5028 161.839 32.9065 161.839 33.4313C161.839 33.9561 161.415 34.3598 160.85 34.3598C160.285 34.38 159.861 33.9561 159.861 33.4313ZM160.043 35.1268H161.637V41.4648H160.043V35.1268Z" fill="#004785"/>
<path d="M165.795 41.5657C163.959 41.5657 162.606 40.2941 162.606 38.2958C162.606 36.2975 163.918 35.0259 165.795 35.0259C167.632 35.0259 168.924 36.2773 168.924 38.1545C168.924 38.3564 168.904 38.5582 168.884 38.7802H164.241C164.322 39.7087 164.968 40.2537 165.755 40.2537C166.441 40.2537 166.825 39.9106 167.027 39.4867H168.763C168.399 40.6372 167.35 41.5657 165.795 41.5657ZM164.241 37.7104H167.249C167.229 36.8829 166.562 36.3581 165.735 36.3581C164.968 36.3379 164.362 36.8425 164.241 37.7104Z" fill="#004785"/>
<path d="M172.295 41.5657C170.7 41.5657 169.59 40.6372 169.53 39.4665H171.144C171.205 39.951 171.649 40.3143 172.295 40.3143C172.921 40.3143 173.264 40.0317 173.264 39.6684C173.264 38.538 169.691 39.2647 169.691 36.9434C169.691 35.8938 170.62 35.0461 172.194 35.0461C173.728 35.0461 174.657 35.8736 174.737 37.1453H173.203C173.163 36.6608 172.759 36.3177 172.133 36.3177C171.548 36.3177 171.225 36.5599 171.225 36.9232C171.225 38.0738 174.737 37.3673 174.778 39.6885C174.798 40.7382 173.849 41.5657 172.295 41.5657Z" fill="#004785"/>
<path d="M175.504 34.6424C175.504 33.4918 176.312 32.6844 177.462 32.6844C178.613 32.6844 179.4 33.4918 179.4 34.6424C179.4 35.7727 178.593 36.5801 177.462 36.5801C176.332 36.5801 175.504 35.7727 175.504 34.6424ZM176.009 34.6424C176.009 35.5305 176.574 36.1158 177.462 36.1158C178.35 36.1158 178.916 35.5305 178.916 34.6424C178.916 33.7542 178.35 33.1689 177.462 33.1689C176.574 33.1689 176.009 33.7542 176.009 34.6424ZM177.947 34.8442L178.431 35.591H177.725L177.341 34.9048H177.281V35.591H176.675V33.6331H177.644C178.068 33.6331 178.35 33.8955 178.35 34.279C178.31 34.5414 178.189 34.7433 177.947 34.8442ZM177.26 34.1579V34.4405H177.563C177.644 34.4405 177.725 34.4001 177.725 34.2992C177.725 34.1983 177.644 34.1579 177.563 34.1579H177.26Z" fill="#004785"/>
</svg>
