<svg width="141" height="85" viewBox="0 0 141 85" fill="none" xmlns="http://www.w3.org/2000/svg">
<path d="M10.2362 6.34711V54.0925L31.3286 30.3157H32.2873L16.6598 47.9566L37.2728 78.2529H30.5616L12.8248 52.1751L10.2362 55.1472V78.2529H3.52502V6.34711H10.2362ZM43.5557 54.6763C43.5557 39.1221 53.5919 30.4601 66.6579 30.4601C78.6824 30.4601 89.0026 36.6073 89.0026 53.5586C89.0026 69.1128 78.9664 77.7748 65.9004 77.7748C53.8759 77.7748 43.5557 71.6276 43.5557 54.6763ZM49.7813 54.6793C49.7813 71.0658 56.9751 77.1522 65.8955 77.1522C75.2954 77.1522 82.777 68.5376 82.777 53.5556C82.777 37.1691 75.5832 31.0827 66.6628 31.0827C57.2629 31.0827 49.7813 39.6973 49.7813 54.6793ZM134.595 77.4968C123.259 77.4968 123.817 70.884 123.817 70.884V69.58C121.958 72.933 118.428 77.8694 109.229 77.8694C98.358 77.8694 96.4997 70.9771 95.9422 67.2515C95.0131 61.0112 97.243 56.3543 113.782 55.2366C117.963 54.864 122.702 55.0503 123.817 55.1435V39.6824C123.817 39.6824 124.839 31.2999 114.061 31.2999C108.3 31.2999 101.145 33.7215 98.8226 35.0254L98.4509 34.3735C99.6588 33.8146 105.327 30.5548 115.268 30.5548C128.741 30.5548 130.321 36.5157 130.321 39.6824V70.884C130.321 76.938 134.595 76.7517 134.595 76.7517H137.475V77.4968H134.595ZM110.855 77.2468C117.821 77.2468 123.504 70.9058 123.779 67.1202V55.6685C122.679 55.5739 118.371 55.1953 113.788 55.7632C104.072 56.8989 102.147 60.306 102.697 67.2148C103.064 71.8522 104.439 77.2468 110.855 77.2468Z" fill="black"/>
</svg>
