<svg width="162" height="73" viewBox="0 0 162 73" fill="none" xmlns="http://www.w3.org/2000/svg">
<path d="M12.7518 64.2935C11.8719 64.9213 10.8191 65.2622 9.73759 65.2694C8.58278 65.3582 7.47755 64.7851 6.88636 63.7907C6.34116 62.6883 6.19968 61.4302 6.48645 60.2345C6.69266 58.8412 7.3326 57.5479 8.31568 56.5378C9.23858 55.5886 10.5084 55.0548 11.8334 55.0591C12.6901 55.0225 13.5329 55.2838 14.2181 55.7984L13.7515 57.425C13.0429 57.1503 12.2899 57.0075 11.5298 57.0036C10.7564 56.9373 9.98859 57.1822 9.39693 57.6838C8.85965 58.2631 8.52226 58.9989 8.43417 59.7835C8.21312 60.6557 8.29941 61.5772 8.67856 62.3934C9.11122 63.0595 9.87912 63.4299 10.6707 63.3545C11.4466 63.3341 12.2072 63.1342 12.8925 62.7704L12.7518 64.1974" fill="#1E4899"/>
<path d="M20.1502 62.5708C20.5867 61.9034 20.863 61.1443 20.9574 60.3528C21.187 59.5165 21.1349 58.6281 20.8093 57.8242C20.4805 57.307 19.8865 57.0205 19.2763 57.0849C18.6065 57.0375 17.9544 57.3122 17.5211 57.8242C17.0687 58.4526 16.7834 59.1852 16.6916 59.9535C16.4817 60.8205 16.528 61.7296 16.8249 62.5708C17.101 63.1512 17.7094 63.4992 18.3505 63.4432C19.0589 63.4714 19.7343 63.1439 20.1502 62.5708ZM15.1586 63.8277C14.6567 62.7274 14.5393 61.4907 14.8254 60.3158C15.028 58.9738 15.591 57.7116 16.4547 56.6635C17.3054 55.6749 18.5485 55.1098 19.8539 55.1182C20.8973 55.0502 21.8993 55.5363 22.4904 56.3973C23.0341 57.4797 23.1657 58.7224 22.8607 59.8944C22.6593 61.2515 22.0938 62.5289 21.224 63.5911C20.3887 64.6287 19.1357 65.2433 17.8025 65.2694C16.7061 65.324 15.6744 64.7502 15.1438 63.7907L15.1586 63.8277Z" fill="#1E4899"/>
<path d="M27.8892 65.2694C26.7932 65.2694 25.5416 65.2694 24.3863 65.2694L26.1859 55.1478H28.104L27.1264 60.6116C26.9265 61.7501 26.7561 62.6817 26.608 63.4211C27.1116 63.4211 28.0225 63.4211 28.7483 63.4211H30.8515L30.5183 65.2694H27.8892Z" fill="#1E4899"/>
<path d="M37.7093 62.5708C38.1459 61.9034 38.4222 61.1443 38.5165 60.3528C38.7461 59.5165 38.6941 58.6281 38.3684 57.8242C38.0409 57.3056 37.446 57.0187 36.8354 57.0849C36.1657 57.0375 35.5136 57.3122 35.0803 57.8242C34.6279 58.4526 34.3425 59.1852 34.2508 59.9535C34.046 60.8304 34.1026 61.7479 34.4137 62.593C34.6853 63.1561 35.2699 63.5004 35.8949 63.4654C36.6128 63.495 37.2965 63.1579 37.7093 62.5708ZM32.703 63.8277C32.2049 62.7263 32.0877 61.491 32.3697 60.3158C32.5759 58.9748 33.1385 57.7136 33.999 56.6635C34.8447 55.6808 36.0784 55.1163 37.3761 55.1182C38.4322 55.0367 39.4516 55.5244 40.0495 56.3973C40.5964 57.4786 40.7306 58.7216 40.4272 59.8944C40.2196 61.2497 39.6547 62.5255 38.7906 63.5911C37.9523 64.629 36.6969 65.2435 35.3617 65.2694C34.2653 65.324 33.2335 64.7502 32.703 63.7907V63.8277Z" fill="#1E4899"/>
<path d="M46.026 57.1367C45.6557 57.1367 45.1744 57.1367 44.8041 57.1367C44.7374 57.5803 44.656 58.046 44.5671 58.534L44.2931 60.0718C44.7596 60.0718 45.1077 60.0718 45.715 60.0718C46.2613 60.131 46.8107 59.9919 47.2628 59.68C47.5462 59.3766 47.7162 58.9849 47.7442 58.571C47.8479 57.9721 47.7442 57.6098 47.5146 57.388C47.1344 57.1744 46.6963 57.0864 46.263 57.1367H46.026ZM48.8699 65.2694H46.4778L45.7372 62.8813C45.6113 62.5043 45.478 62.0533 45.3743 61.6762C44.9152 61.6762 44.4634 61.6762 44.0265 61.6762L43.3674 65.2694H41.4789L43.3007 55.1478C44.2264 55.1478 45.1892 55.1478 46.0705 55.1478H46.6703C47.9367 55.1478 48.744 55.3622 49.2624 55.8872C49.7869 56.5215 49.9717 57.3698 49.7586 58.1643C49.5558 59.6102 48.5746 60.8282 47.2036 61.3361C47.3739 61.7132 47.559 62.1346 47.722 62.5412L48.8699 65.2694Z" fill="#1E4899"/>
<path d="M54.202 65.2694C53.1652 65.2694 51.9136 65.2694 50.7213 65.2694L52.5061 55.1774C53.6688 55.1774 54.9945 55.1774 55.9868 55.1774H58.5789L58.2234 57.1367H56.1201C55.3796 57.1367 54.4909 57.1367 54.0021 57.1367C53.9354 57.6024 53.8688 57.9795 53.7725 58.497L53.6244 59.3547C54.1798 59.3547 54.913 59.3547 55.698 59.3029H57.3717L56.9866 61.2178H55.3573L53.3207 61.1661L53.143 62.142C53.0541 62.6595 52.9875 63.0514 52.8912 63.5098C53.3874 63.5098 54.2539 63.5098 55.0241 63.5098H57.2458L56.8829 65.2694H54.202Z" fill="#1E4899"/>
<path d="M65.4366 64.2935C64.5541 64.9215 63.4989 65.2623 62.4151 65.2694C61.2698 65.3502 60.1773 64.7776 59.5935 63.7907C59.0446 62.6894 58.9029 61.4299 59.1936 60.2345C59.3972 58.8419 60.0346 57.5486 61.0154 56.5378C61.9415 55.5889 63.2135 55.0554 64.5405 55.0591C65.3953 55.0192 66.2369 55.281 66.9178 55.7984L66.4512 57.425C65.7428 57.1497 64.9897 57.0068 64.2295 57.0036C63.4582 56.936 62.6922 57.1811 62.104 57.6838C61.5185 58.276 61.155 59.0514 61.0746 59.8796C60.8461 60.7512 60.9326 61.6753 61.319 62.4895C61.748 63.1519 62.5095 63.522 63.2964 63.4506C64.0724 63.4313 64.8332 63.2313 65.5181 62.8666L65.3848 64.2935" fill="#1E4899"/>
<path d="M68.6285 55.1182H75.6789L75.3382 57.1367H74.4051C73.7978 57.1367 73.1609 57.1367 72.7462 57.1367L71.3539 65.2694H69.532L70.9095 57.1367C70.4874 57.1367 69.8357 57.1367 69.2358 57.1367H68.2879L68.6285 55.0961" fill="#1E4899"/>
<path d="M80.0483 61.2326L79.8706 59.5543C79.7817 58.7114 79.6854 57.7651 79.6114 56.9222C79.2411 57.8021 78.8708 58.6745 78.4783 59.5247L77.7377 61.2326H80.0483ZM80.4408 65.2694L80.226 62.9775C79.7965 62.9775 79.0263 62.9775 78.5301 62.9775C78.0339 62.9775 77.3526 62.9775 76.9008 62.9775L75.8862 65.2694H73.8274L78.893 55.1182H81.0703L82.6107 65.2694H80.4408Z" fill="#1E4899"/>
<path d="M87.5059 65.2694C86.4025 65.2694 85.1583 65.2694 83.9956 65.2694L85.8026 55.1478H87.7355L86.7579 60.6411C86.558 61.7797 86.3951 62.7113 86.2469 63.4506C86.7431 63.4506 87.6615 63.4506 88.3872 63.4506H90.4905L90.135 65.2694H87.5059Z" fill="#1E4899"/>
<path d="M101.94 64.2935C101.06 64.9213 100.007 65.2622 98.9257 65.2694C97.7709 65.3582 96.6656 64.7851 96.0744 63.7907C95.5293 62.6883 95.3878 61.4302 95.6745 60.2345C95.8841 58.8423 96.5236 57.55 97.5038 56.5378C98.4277 55.59 99.6968 55.0565 101.022 55.0591C101.878 55.0225 102.721 55.2838 103.406 55.7984L102.94 57.425C102.219 57.1459 101.453 57.003 100.681 57.0036C99.9075 56.9373 99.1396 57.1822 98.548 57.6838C98.0107 58.2631 97.6733 58.9989 97.5852 59.7835C97.3642 60.6557 97.4505 61.5772 97.8296 62.3934C98.2634 63.0582 99.0305 63.4282 99.8218 63.3545C100.61 63.3399 101.384 63.1398 102.081 62.7704L101.94 64.1974" fill="#1E4899"/>
<path d="M109.16 61.2326L108.983 59.5543C108.894 58.7114 108.798 57.7651 108.724 56.9222C108.353 57.8021 107.983 58.6745 107.59 59.5247L106.85 61.2326H109.16ZM109.553 65.2694L109.338 62.9775C108.909 62.9775 108.139 62.9775 107.65 62.9775C107.161 62.9775 106.465 62.9775 106.013 62.9775L105.006 65.2694H102.947L108.005 55.1182H110.16L111.723 65.2694H109.553Z" fill="#1E4899"/>
<path d="M113.574 65.2694L115.337 55.1182H117.559C118.536 57.9277 119.388 60.6263 119.877 62.2751C119.973 61.6466 120.188 60.2936 120.343 59.3695L121.084 55.1182H122.839L121.062 65.2694H119.181C117.959 62.179 117.188 60.094 116.537 58.1274C116.448 58.7262 116.218 60.1827 116.085 61.0847L115.344 65.3064H113.597" fill="#1E4899"/>
<path d="M130.134 64.2935C129.251 64.9215 128.196 65.2623 127.112 65.2694C125.959 65.3589 124.856 64.7852 124.268 63.7907C123.719 62.6894 123.578 61.4299 123.868 60.2345C124.072 58.8419 124.709 57.5486 125.69 56.5378C126.616 55.5889 127.888 55.0554 129.215 55.0591C130.07 55.0192 130.912 55.281 131.593 55.7984L131.126 57.425C130.406 57.1452 129.64 57.0023 128.867 57.0036C128.096 56.936 127.33 57.1811 126.742 57.6838C126.2 58.2601 125.862 58.9975 125.779 59.7835C125.551 60.6551 125.637 61.5792 126.024 62.3934C126.454 63.0582 127.219 63.4288 128.008 63.3545C128.797 63.341 129.571 63.1408 130.267 62.7704L130.134 64.1974" fill="#1E4899"/>
<path d="M135.533 65.2694C134.496 65.2694 133.252 65.2694 132.059 65.2694L133.837 55.1774C134.999 55.1774 136.325 55.1774 137.325 55.1774H139.917L139.576 57.1367H137.48C136.74 57.1367 135.844 57.1367 135.355 57.1367C135.288 57.6024 135.222 57.9795 135.133 58.497L134.985 59.3325C135.533 59.3325 136.266 59.3325 137.051 59.2807H138.732L138.339 61.1956H136.71L134.674 61.1439L134.503 62.1198C134.407 62.6374 134.34 63.0292 134.244 63.4876C134.74 63.4876 135.607 63.4876 136.377 63.4876H138.599L138.213 65.2694H135.533Z" fill="#1E4899"/>
<path d="M144.923 57.1367C144.545 57.1367 144.064 57.1367 143.694 57.1367C143.627 57.5803 143.546 58.046 143.464 58.534L143.19 60.0718C143.657 60.0718 144.005 60.0718 144.605 60.0718C145.153 60.1308 145.705 59.9918 146.16 59.68C146.443 59.3976 146.62 59.0271 146.663 58.6301C146.775 58.0313 146.663 57.669 146.434 57.4472C146.046 57.2107 145.589 57.1117 145.138 57.1662L144.923 57.1367ZM147.76 65.2694H145.367L144.627 62.8813C144.508 62.5043 144.375 62.0533 144.264 61.6762C143.812 61.6762 143.361 61.6762 142.924 61.6762L142.257 65.2694H140.376L142.168 55.1478C143.094 55.1478 144.057 55.1478 144.938 55.1478H145.538C146.812 55.1478 147.611 55.3622 148.137 55.8872C148.663 56.5211 148.845 57.3711 148.626 58.1643C148.426 59.6115 147.444 60.831 146.071 61.3361C146.249 61.7132 146.427 62.1346 146.597 62.5412L147.76 65.2694Z" fill="#1E4899"/>
<path d="M41.0567 33.4333L42.1158 38.4387L47.4924 38.5496L42.7379 41.7436L43.5747 46.8154L39.583 43.7915L34.7248 46.8154L37.0058 41.7436L33.1622 38.5496L38.5684 38.4387L41.0567 33.4333Z" fill="#1E4899"/>
<path d="M4.04999 46.7857L9.97463 8.16991C12.026 8.11815 35.4728 8.05901 35.4728 8.05901L33.9324 17.9514H25.3713C22.8163 17.9514 19.8392 17.8996 18.1951 17.8479C18.084 18.9125 17.8766 20.3543 17.7137 21.3672L17.2916 23.9844C18.8838 23.9327 20.9574 23.8735 23.8827 23.8218L31.059 23.7183L29.4149 32.7752L23.194 32.6717C20.3428 32.6199 18.121 32.5608 15.8993 32.4573L13.5664 46.7857H4.04999Z" fill="#DC4405"/>
<path d="M80.7001 43.2443C76.4969 45.8159 71.6768 47.208 66.7475 47.2737C58.4456 47.2737 52.1137 42.6085 52.1137 32.9526C52.2382 26.3755 54.5607 20.0286 58.7122 14.9201C62.9187 9.93693 68.4805 7.60061 74.8939 7.60061C78.5534 7.50637 82.1722 8.38407 85.3805 10.1439L83.2921 18.5798C79.7439 17.9171 76.1477 17.5437 72.5389 17.4634C68.836 17.4634 66.4143 18.1584 64.7109 20.2803C62.741 22.7202 61.9412 27.0157 61.9412 30.3576C61.9412 36.0283 64.074 38.579 69.7172 38.579C70.5907 38.582 71.4629 38.5103 72.3241 38.3646L72.6425 36.2427C72.8055 35.2372 73.1239 33.5885 73.2276 33.0635C71.6872 33.1153 70.406 33.1153 67.3696 33.1153L69.5913 24.5241C76.2566 24.5241 81.7295 24.5241 83.6624 24.6277C83.2921 27.3336 82.8625 30.0914 82.4404 32.7604L80.7889 43.2591" fill="#DC4405"/>
<path d="M92.2531 8.05901H102.118L99.8366 22.1065C101.377 22.0547 103.658 22.003 105.569 22.003C107.479 22.003 109.175 22.0547 110.753 22.1065L112.915 8.05901H122.787L116.552 46.7857H106.991L109.323 31.681C107.783 31.7327 105.924 31.7845 104.014 31.7845C102.103 31.7845 99.8737 31.7327 98.2888 31.681L95.8819 46.7857H86.3285L92.2531 8.02943" fill="#DC4405"/>
<path d="M131.867 46.7857L136.31 17.7444C134.614 17.8553 132.452 17.907 130.756 17.907H126.053L127.586 8.05901H157.95L156.298 17.9514H151.648C149.796 17.9514 147.73 17.8996 146.041 17.7887L141.383 46.7857H131.867Z" fill="#DC4405"/>
<path d="M38.25 32.5164L41.2123 8.05901H52.5728C52.5728 8.05901 46.6482 27.4815 44.9078 32.5164H38.2426" fill="#DC4405"/>
</svg>
