<svg width="213" height="56" viewBox="0 0 213 56" fill="none" xmlns="http://www.w3.org/2000/svg">
<path d="M199.704 46.4508C199.154 48.9215 196.592 50.9347 194.122 50.9347H8.26325C5.70102 50.9347 4.14522 48.9215 4.69421 46.4508L13.2965 9.11426C13.9371 6.6436 16.4077 4.63037 18.97 4.63037H204.737C207.299 4.63037 208.855 6.6436 208.306 9.11426L199.704 46.4508Z" fill="#FF6600"/>
<path d="M88.1519 21.9258L84.0339 41.4176H64.9083C62.8035 41.4176 61.1562 40.5943 59.9666 38.8553C58.7771 37.1168 58.5024 35.1036 58.9602 32.9072C59.4176 30.6193 60.6072 28.6976 62.4373 26.9591C64.3594 25.2201 66.3726 24.3968 68.4774 24.3968H80.9226L81.3801 22.292C81.4716 21.743 81.3801 21.1937 81.1058 20.8278C80.8311 20.3704 80.3736 20.1872 79.8247 20.1872H63.3525L64.8168 13.1407H81.6548C83.9427 13.1407 85.7728 13.9644 87.0539 15.7945C88.2435 17.4419 88.7013 19.5467 88.1519 21.9258ZM68.2943 30.0703C67.7453 30.0703 67.1959 30.2534 66.7384 30.7108C66.281 31.1687 65.9148 31.6261 65.8236 32.1751C65.732 32.4498 65.732 32.7241 65.8236 32.9988C65.9148 33.2731 66.0063 33.4562 66.0979 33.6393C66.281 33.8224 66.4641 34.0052 66.6469 34.0967C66.83 34.1883 67.1047 34.2799 67.379 34.2799H78.8178L79.7331 30.0703H68.2943ZM104.807 27.2334L110.938 41.4176H102.336L99.2249 33.1819L92.6362 41.4176H84.1254L96.2964 27.2334L90.0736 13.1407H98.6759L101.787 21.3768L108.376 13.1407H116.978L104.807 27.2334Z" fill="white"/>
<path d="M135.738 20.1872H123.018C122.377 20.1872 121.736 20.4619 121.187 20.9194C120.638 21.3768 120.272 22.0173 120.089 22.6579L118.076 31.8092C117.893 32.5413 117.985 33.0903 118.35 33.5477C118.717 34.0052 119.266 34.2799 119.906 34.2799H134.365L132.809 41.3264H117.71C115.422 41.3264 113.592 40.5027 112.311 38.7638C111.03 37.0252 110.664 34.9204 111.121 32.5413L113.409 21.9258C113.958 19.5467 115.148 17.4419 117.161 15.703C119.174 13.9644 121.37 13.0496 123.658 13.0496H137.11L135.738 20.1872ZM165.387 27.1422C166.119 23.5732 165.387 20.0041 163.191 17.3503C161.086 14.6965 157.7 13.1407 154.04 13.1407H141.137L135.097 41.4175H150.471C157.243 40.9601 163.465 35.6525 164.929 28.9723L165.387 27.1422ZM158.341 25.5864L157.974 27.4165C157.243 30.9855 153.307 34.1883 149.556 34.1883H144.065L146.993 20.2788H154.04C155.504 20.2788 156.785 20.8278 157.609 21.743C158.432 22.7495 158.615 24.1221 158.341 25.5864ZM194.579 21.9258L190.461 41.4175H183.781L187.807 22.6579C187.899 22.292 187.899 22.0173 187.807 21.743C187.716 21.4684 187.624 21.1937 187.441 20.9194C187.258 20.7362 187.075 20.5531 186.801 20.3704C186.526 20.2788 186.252 20.1872 185.977 20.1872H174.813L170.237 41.4175H163.557L169.596 13.1407H188.082C190.369 13.1407 192.2 13.9644 193.481 15.7945C194.67 17.4419 195.036 19.5467 194.579 21.9258ZM57.1297 16.5266C55.3912 14.3307 52.6458 13.1407 49.7173 13.1407H21.4405L24.8264 20.3704L20.3425 41.4175H27.7549L32.2388 20.3704H38.5532L34.0693 41.4175H41.4817L45.9656 20.3704H49.7173C50.541 20.3704 51.1816 20.6447 51.5478 21.1025C51.9137 21.5599 52.0968 22.292 51.9137 23.0242L47.9788 41.4175H55.3912L58.9602 24.5796C59.5092 21.6515 58.8687 18.723 57.1297 16.5266Z" fill="white"/>
</svg>
