<svg width="122" height="98" viewBox="0 0 122 98" fill="none" xmlns="http://www.w3.org/2000/svg">
<path d="M3.04999 4.91742H118.95V92.6826H3.04999V4.91742Z" fill="white"/>
<path d="M13.1317 6.87122H4.92566V74.3949H8.67698L10.9603 39.7848C10.6406 38.2912 10.4745 36.6955 10.4745 35.0061C10.4745 32.3908 10.924 29.9545 11.754 27.7538L13.1317 6.87122Z" fill="#0033A1"/>
<path d="M11.5263 41.867L9.38035 74.3949H12.1938L15.8696 48.7834C13.9175 46.9291 12.4378 44.6026 11.5263 41.867Z" fill="#0033A1"/>
<path d="M20.2772 18.0721C16.9542 19.8396 14.2888 22.5239 12.581 25.8791L13.835 6.87122H21.8847L20.2772 18.0721Z" fill="#0033A1"/>
<path d="M16.4923 49.3452L12.8972 74.3949H16.0233L20.9983 52.1232C19.3217 51.4068 17.8112 50.4752 16.4923 49.3452Z" fill="#0033A1"/>
<path d="M21.6432 52.385L16.7267 74.3949H20.1654L26.7929 53.6477C24.9512 53.4205 23.228 52.9952 21.6432 52.385Z" fill="#0033A1"/>
<path d="M27.8104 50.4627C25.7744 49.8952 24.1126 48.754 22.8124 47.1512L29.2157 18.4853C29.5518 18.4538 29.8956 18.4378 30.247 18.4378C33.5235 18.4378 35.7271 19.7183 37.2033 21.0588L27.8104 50.4627Z" fill="#0033A1"/>
<path d="M27.5252 53.727L20.9469 74.3949H24.1512L32.6241 53.7152C31.8284 53.7959 30.9603 53.8408 30.0126 53.8408C29.1629 53.8408 28.3333 53.8025 27.5252 53.727Z" fill="#0033A1"/>
<path d="M33.9689 50.4329C32.9512 50.7074 31.9099 50.871 30.9504 50.871C30.0878 50.871 29.2747 50.7896 28.5103 50.6319L37.7532 21.5925C38.2303 22.0865 38.614 22.5665 38.922 22.9706V17.9206L42.4388 6.87122H51.8171L47.9426 16.3277H44.7052V24.229L33.9689 50.4329Z" fill="#0033A1"/>
<path d="M33.3634 53.6274C37.0136 53.1288 39.0042 51.8548 40.1724 50.871L38.8438 47.9794C37.955 48.8237 36.4345 49.6428 34.7709 50.1923L44.7052 25.9457V43.0774L28.684 74.3949H24.8545L33.3634 53.6274Z" fill="#0033A1"/>
<path d="M44.7052 44.605L29.4655 74.3949H35.7177L49.8155 53.1374H44.7052V44.605Z" fill="#0033A1"/>
<path d="M52.4423 49.1766V29.481L57.5699 19.4578C61.5557 20.0837 65.2993 21.9077 67.0744 27.1135L52.4423 49.1766Z" fill="#0033A1"/>
<path d="M50.597 53.1374L36.4992 74.3949H41.9699L59.0946 53.1366C59.0392 53.1372 58.9839 53.1374 58.929 53.1374H50.597Z" fill="#0033A1"/>
<path d="M64.2548 46.7308C61.0752 49.7932 56.4843 50.1602 52.5667 50.1675L67.3243 27.9152C67.8536 29.779 68.1509 32.0369 68.1509 34.7716C68.1509 39.2727 67.278 42.4645 65.8702 44.7256L64.2548 46.7308Z" fill="#0033A1"/>
<path d="M60.005 53.1043C67.0163 52.678 76.8259 48.0574 76.8259 34.6153C76.8259 33.8322 76.7964 33.081 76.7394 32.3603L97.3018 6.87122H116.684L107.143 16.5345C105.132 15.9708 102.899 15.7024 100.819 15.7024C89.5647 15.7024 81.1242 23.674 81.1242 35.0061C81.1242 37.4946 81.4847 39.7797 82.1653 41.8346L50.0196 74.3949H42.8296L60.005 53.1043Z" fill="#0033A1"/>
<path d="M82.4115 42.5313L50.9574 74.3949H62.9929L91.2476 51.9465C87.1112 50.064 84.0318 46.837 82.4115 42.5313Z" fill="#0033A1"/>
<path d="M95.1731 48.8277C91.7421 46.1903 90.0225 41.1909 89.8861 34.9594L105.292 19.3527C107.445 20.3407 108.767 21.9145 109.572 22.9706V17.4218C109.034 17.1696 108.46 16.9464 107.86 16.7513L116.996 7.49644V31.4892L95.1731 48.8277Z" fill="#0033A1"/>
<path d="M92.0118 52.2742C94.556 53.2998 97.468 53.8408 100.662 53.8408C106.446 53.8408 109.259 52.1215 110.822 50.871L109.494 47.9794C107.931 49.4643 104.414 50.871 101.6 50.871C99.3254 50.871 97.3943 50.3046 95.7959 49.2681L116.996 32.4271V50.1676L78.2326 74.3949H64.1652L92.0118 52.2742Z" fill="#0033A1"/>
<path d="M104.631 19.0788L89.8775 34.0229C89.9127 24.7896 93.8943 18.4378 100.897 18.4378C102.34 18.4378 103.575 18.6862 104.631 19.0788Z" fill="#0033A1"/>
<path d="M76.64 31.3562C76.0785 26.6575 74.2888 23.3466 71.8757 21.0524L81.2805 6.87122H96.364L76.64 31.3562Z" fill="#0033A1"/>
<path d="M71.3878 20.6095L80.499 6.87122H64.0089L59.1606 16.3484C63.2755 16.5058 67.902 17.588 71.3878 20.6095Z" fill="#0033A1"/>
<path d="M58.3888 16.3294L63.2273 6.87122H52.5205L48.646 16.3277H58.0693C58.1753 16.3277 58.2818 16.3282 58.3888 16.3294Z" fill="#0033A1"/>
<path d="M56.8403 19.3563L52.4423 27.9533V19.1411C53.8695 19.1411 55.3642 19.1765 56.8403 19.3563Z" fill="#0033A1"/>
<path d="M38.4343 17.2052L41.7354 6.87122H31.8101L29.8369 15.7048C29.9473 15.7032 30.0579 15.7024 30.1689 15.7024C32.9493 15.7024 36.0038 16.182 38.4343 17.2052Z" fill="#0033A1"/>
<path d="M29.1289 15.7254L31.1067 6.87122H22.5881L21.0354 17.6903C23.4514 16.5397 26.1845 15.8558 29.1289 15.7254Z" fill="#0033A1"/>
<path d="M28.4914 18.5793C22.5538 19.5677 19.2275 25.6505 19.2275 34.1464C19.2275 39.1728 20.2207 43.4544 22.2708 46.427L28.4914 18.5793Z" fill="#0033A1"/>
<path d="M116.996 51.0273L79.5612 74.3949H102.772L116.996 67.7519V51.0273Z" fill="#0033A1"/>
<path d="M104.414 74.3949L116.996 68.5335V74.3949H104.414Z" fill="#0033A1"/>
<path d="M9.22402 79.8656L9.14587 79.7874V79.7093C9.14587 79.553 8.52065 79.3185 7.89543 79.3185C7.27021 79.3185 6.41053 79.6311 6.41053 80.4126C6.41053 81.1942 7.27021 81.5068 7.89543 81.5068C8.20804 81.5068 9.22402 81.2723 9.22402 81.0379C9.22402 80.9597 9.22402 80.9597 9.14587 80.8815L9.22402 80.8034L10.0055 82.0538L9.92739 82.132C9.92739 82.0538 9.84924 82.0538 9.84924 82.0538C9.69293 82.0538 8.98956 82.4446 7.81728 82.4446C6.56684 82.4446 5.23825 81.7412 5.23825 80.3345C5.23825 78.9277 6.56684 78.2244 7.81728 78.2244C8.4425 78.2244 8.91141 78.3025 9.22402 78.3807C9.53663 78.4588 9.69293 78.537 9.77109 78.537C9.84924 78.537 9.84924 78.537 9.92739 78.4588H10.0055L9.22402 79.8656ZM15.5544 81.7412C15.6325 81.7412 15.7107 81.6631 15.7888 81.5068H15.867V82.5227H15.7888C15.7107 82.3664 15.7107 82.3664 15.5544 82.3664H12.0375V82.2883C12.1157 82.2883 12.272 82.2883 12.272 82.132V79.1622C12.272 79.084 12.1938 79.0059 12.0375 79.0059V78.9277H15.6325C15.7107 78.9277 15.7888 78.9277 15.7888 78.7714H15.867V79.7874H15.7888C15.7888 79.6311 15.7107 79.6311 15.6325 79.6311H13.3661V80.2563H14.851C14.9291 80.2563 15.0073 80.2563 15.0073 80.1H15.0854V81.116H15.0073C15.0073 80.9597 14.9291 80.9597 14.851 80.9597H13.3661V81.7412H15.5544ZM22.1192 82.2101C22.1192 82.2883 22.1973 82.3664 22.3536 82.3664V82.4446H20.8687V82.3664C20.9469 82.3664 21.1032 82.3664 21.1032 82.2883C21.1032 82.132 20.0872 81.1942 19.2275 80.1782V82.2101C19.2275 82.2883 19.3057 82.3664 19.462 82.3664V82.4446H18.1334V82.3664C18.2115 82.3664 18.3679 82.3664 18.3679 82.2101V79.2403C18.3679 79.1622 18.2897 79.084 18.1334 79.084V79.0059H20.0091V79.084C19.9309 79.084 19.8527 79.084 19.8527 79.2403C19.8527 79.3185 20.6343 80.1 21.2595 80.8034V79.2403C21.2595 79.1622 21.1813 79.084 21.025 79.084V79.0059H22.4318V79.084C22.2755 79.084 22.1973 79.084 22.1973 79.2403V82.2101H22.1192ZM27.8243 79.0059C27.9024 79.0059 27.9806 79.0059 27.9806 78.8496H28.0587V80.0219H27.9806C27.9806 79.8656 27.9024 79.8656 27.8243 79.8656H26.7302V82.2883C26.7302 82.3664 26.8083 82.4446 26.8865 82.4446V82.5227H25.4797V82.4446C25.5579 82.4446 25.636 82.4446 25.636 82.2883V79.8656H24.5419C24.4637 79.8656 24.3856 79.8656 24.3856 80.0219H24.3074V78.8496H24.3856C24.3856 79.0059 24.4637 79.0059 24.5419 79.0059H27.8243ZM33.4513 81.7412C33.5294 81.7412 33.6076 81.6631 33.6857 81.5068H33.7639V82.5227H33.6857C33.6076 82.3664 33.6076 82.3664 33.4513 82.3664H29.9344V82.2883C30.0126 82.2883 30.1689 82.2883 30.1689 82.132V79.1622C30.1689 79.084 30.0907 79.0059 29.9344 79.0059V78.9277H33.5294C33.6076 78.9277 33.6857 78.9277 33.6857 78.7714H33.7639V79.7874H33.6857C33.6857 79.6311 33.6076 79.6311 33.5294 79.6311H31.263V80.2563H32.7479C32.826 80.2563 32.9042 80.2563 32.9042 80.1H32.9823V81.116H32.9042C32.9042 80.9597 32.826 80.9597 32.7479 80.9597H31.263V81.7412H33.4513ZM37.2026 79.6311H38.2967C38.7656 79.6311 38.9219 79.7874 38.9219 80.0219C38.9219 80.3345 38.6875 80.4126 38.3749 80.4126H37.2807V79.6311H37.2026ZM36.1866 82.2101C36.1866 82.2883 36.1084 82.3664 36.0303 82.3664V82.4446H37.3589V82.3664C37.2807 82.3664 37.1244 82.3664 37.1244 82.2101V81.1942H37.9059C37.9841 81.3505 38.5312 82.2101 38.5312 82.2883C38.5312 82.3664 38.3749 82.3664 38.3749 82.3664V82.4446H39.9379V82.3664C39.8598 82.3664 39.7035 82.2883 39.6253 82.2101L38.9219 81.1942C39.3908 81.0378 39.7816 80.7252 39.7816 80.1C39.7816 79.3966 39.2345 79.0059 38.5312 79.0059H36.0303V79.084C36.1084 79.084 36.1866 79.084 36.1866 79.2403V82.2101ZM42.048 81.2723L42.1262 81.3505V81.4286C42.1262 81.6631 43.064 81.8194 43.6892 81.8194C43.8455 81.8194 44.3926 81.8194 44.3926 81.5068C44.3926 80.8815 41.8136 81.5068 41.8136 80.1782C41.8136 79.7093 42.2825 79.0059 43.5329 79.0059C44.3144 79.0059 44.9397 79.2403 45.096 79.2403C45.1741 79.2403 45.2523 79.1622 45.2523 79.1622H45.3304L44.8615 80.1782L44.7834 80.1V80.0219C44.7834 79.9437 44.2363 79.7093 43.6892 79.7093C43.4548 79.7093 42.8295 79.7093 42.8295 80.0219C42.8295 80.5689 45.4086 80.0219 45.4086 81.3505C45.4086 81.9757 44.8615 82.5227 43.6892 82.5227C42.9077 82.5227 42.048 82.2101 41.9699 82.2101C41.8917 82.2101 41.8136 82.2883 41.8136 82.2883H41.7354L42.048 81.2723ZM54.7869 79.2403C54.7869 79.1622 54.7087 79.084 54.5524 79.084V79.0059H57.9911C58.0693 79.0059 58.1474 79.0059 58.1474 78.8496H58.2256V79.9437H58.1474C58.1474 79.7874 58.0693 79.7874 57.9911 79.7874H55.881V80.4908H57.2877C57.3659 80.4908 57.444 80.4908 57.444 80.3345H57.5222V81.3505H57.444C57.444 81.1942 57.3659 81.1942 57.2877 81.1942H55.881V82.2883C55.881 82.3664 55.9591 82.4446 56.1155 82.4446V82.5227H54.5524V82.4446C54.7087 82.4446 54.7869 82.4446 54.7869 82.2883V79.2403ZM61.9769 79.7874C62.6021 79.7874 63.071 80.1782 63.071 80.7252C63.071 81.2723 62.6021 81.6631 61.9769 81.6631C61.3517 81.6631 60.8827 81.2723 60.8827 80.7252C60.9609 80.1782 61.4298 79.7874 61.9769 79.7874ZM61.9769 78.9277C60.9609 78.9277 59.8668 79.4748 59.8668 80.7252C59.8668 81.9757 60.9609 82.5227 61.9769 82.5227C62.9929 82.5227 64.087 81.9757 64.087 80.7252C64.087 79.4748 62.9929 78.9277 61.9769 78.9277ZM67.2912 79.6311H68.3854C68.8543 79.6311 69.0106 79.7874 69.0106 80.0219C69.0106 80.3345 68.7761 80.4126 68.4635 80.4126H67.3694V79.6311H67.2912ZM66.2753 82.2101C66.2753 82.2883 66.1971 82.3664 66.119 82.3664V82.4446H67.4475V82.3664C67.3694 82.3664 67.2131 82.3664 67.2131 82.2101V81.1942H67.9946C68.0728 81.3505 68.6198 82.2101 68.6198 82.2883C68.6198 82.3664 68.4635 82.3664 68.4635 82.3664V82.4446H70.0266V82.3664C69.9484 82.3664 69.7921 82.2883 69.714 82.2101L69.0106 81.1942C69.4795 81.0378 69.8703 80.7252 69.8703 80.1C69.8703 79.3966 69.3232 79.0059 68.5417 79.0059H66.0408V79.084C66.119 79.084 66.1971 79.084 66.1971 79.2403V82.2101H66.2753ZM80.7335 79.2403H81.7494C82.6091 79.2403 82.9217 79.7093 82.9217 80.4126C82.9217 81.116 82.6091 81.5849 81.7494 81.5849H80.7335V79.2403ZM79.5612 82.2101C79.5612 82.2883 79.5612 82.3664 79.3267 82.3664V82.4446H81.8276C83.3125 82.4446 84.0159 81.4286 84.0159 80.4126C84.0159 79.2403 83.3125 78.3807 81.9057 78.3807H79.3267V78.4588C79.5612 78.4588 79.5612 78.537 79.5612 78.6151V82.2101ZM87.6109 79.0059V79.084C87.4546 79.084 87.3764 79.084 87.3764 79.2403V82.2101C87.3764 82.2883 87.4546 82.3664 87.6109 82.3664V82.4446H86.0478V82.3664C86.2041 82.3664 86.2823 82.3664 86.2823 82.2101V79.2403C86.2823 79.1622 86.2041 79.084 86.0478 79.084V79.0059H87.6109ZM89.8773 81.2723L89.9554 81.3505V81.4286C89.9554 81.6631 90.8933 81.8194 91.5185 81.8194C91.7529 81.8194 92.2219 81.8194 92.2219 81.5068C92.2219 80.8815 89.6428 81.5068 89.6428 80.1782C89.6428 79.7093 90.1117 79.0059 91.3622 79.0059C92.1437 79.0059 92.7689 79.2403 92.9252 79.2403C93.0034 79.2403 93.0815 79.1622 93.0815 79.1622H93.1597L92.6908 80.1782L92.6126 80.1V80.0219C92.6126 79.9437 92.0656 79.7093 91.5185 79.7093C91.284 79.7093 90.6588 79.7093 90.6588 80.0219C90.6588 80.5689 93.2378 80.0219 93.2378 81.3505C93.2378 81.9757 92.6908 82.5227 91.5185 82.5227C90.737 82.5227 89.8773 82.2101 89.7991 82.2101C89.721 82.2101 89.6428 82.2883 89.6428 82.2883H89.5647L89.8773 81.2723ZM98.7867 81.7412C98.8648 81.7412 98.943 81.6631 99.0211 81.5068H99.0993V82.5227H99.0211C98.943 82.3664 98.943 82.3664 98.7867 82.3664H95.2698V82.2883C95.348 82.2883 95.5043 82.2883 95.5043 82.132V79.1622C95.5043 79.084 95.4261 79.0059 95.2698 79.0059V78.9277H98.8648C98.943 78.9277 99.0211 78.9277 99.0211 78.7714H99.0993V79.7874H99.0211C99.0211 79.6311 98.943 79.6311 98.8648 79.6311H96.5984V80.2563H98.0833C98.1614 80.2563 98.2396 80.2563 98.2396 80.1H98.3177V81.116H98.2396C98.2396 80.9597 98.1614 80.9597 98.0833 80.9597H96.5984V81.7412H98.7867ZM102.694 81.1942L103.319 79.7874L103.945 81.1942H102.694ZM105.664 82.4446V82.3664C105.586 82.3664 105.508 82.3664 105.508 82.2883C105.195 81.5068 104.023 79.2403 104.023 79.1622C104.023 79.084 104.023 79.084 104.101 79.084V79.0059H102.46V79.084C102.538 79.084 102.538 79.084 102.538 79.1622C102.538 79.2403 101.835 80.8034 101.209 82.2883C101.209 82.3664 101.131 82.3664 101.053 82.3664V82.4446H102.225V82.3664C102.225 82.3664 102.147 82.3664 102.147 82.2883C102.147 82.2101 102.304 81.8975 102.382 81.7412H104.179C104.257 81.8975 104.414 82.2101 104.414 82.2883C104.414 82.3664 104.335 82.3664 104.335 82.3664V82.4446H105.664ZM107.852 81.2723L107.93 81.3505V81.4286C107.93 81.6631 108.868 81.8194 109.494 81.8194C109.728 81.8194 110.197 81.8194 110.197 81.5068C110.197 80.8815 107.618 81.5068 107.618 80.1782C107.618 79.7093 108.087 79.0059 109.337 79.0059C110.119 79.0059 110.744 79.2403 110.9 79.2403C110.978 79.2403 111.057 79.1622 111.057 79.1622H111.135L110.666 80.1782L110.588 80.1V80.0219C110.588 79.9437 110.041 79.7093 109.494 79.7093C109.259 79.7093 108.634 79.7093 108.634 80.0219C108.634 80.5689 111.213 80.0219 111.213 81.3505C111.213 81.9757 110.666 82.5227 109.494 82.5227C108.712 82.5227 107.852 82.2101 107.774 82.2101C107.696 82.2101 107.618 82.2883 107.618 82.2883H107.54L107.852 81.2723ZM116.684 81.7412C116.762 81.7412 116.84 81.6631 116.918 81.5068H116.996V82.5227H116.918C116.84 82.3664 116.84 82.3664 116.684 82.3664H113.167V82.2883C113.245 82.2883 113.401 82.2883 113.401 82.132V79.1622C113.401 79.084 113.323 79.0059 113.167 79.0059V78.9277H116.762C116.84 78.9277 116.918 78.9277 116.918 78.7714H116.996V79.7874H116.918C116.918 79.6311 116.84 79.6311 116.762 79.6311H114.495V80.2563H115.98C116.058 80.2563 116.136 80.2563 116.136 80.1H116.215V81.116H116.136C116.136 80.9597 116.058 80.9597 115.98 80.9597H114.495V81.7412H116.684ZM9.14587 87.6808L9.06771 87.6027V87.4463C9.06771 87.29 8.4425 87.0556 7.81728 87.0556C7.19206 87.0556 6.33238 87.3682 6.33238 88.1497C6.33238 88.9312 7.19206 89.2439 7.81728 89.2439C8.12989 89.2439 9.14587 89.0094 9.14587 88.7749C9.14587 88.6968 9.14587 88.6968 9.06771 88.6186L9.14587 88.5405L9.92739 89.7909L9.84924 89.8691C9.84924 89.7909 9.77109 89.7909 9.77109 89.7909C9.61478 89.7909 8.91141 90.1817 7.73912 90.1817C6.48869 90.1817 5.1601 89.4783 5.1601 88.0716C5.1601 86.6648 6.48869 85.9614 7.73912 85.9614C8.36434 85.9614 8.83326 86.0396 9.14587 86.1178C9.45848 86.1959 9.61478 86.2741 9.69293 86.2741C9.77109 86.2741 9.77109 86.2741 9.84924 86.1959H9.92739L9.14587 87.6808ZM13.2879 87.6808C13.9132 87.6808 14.3821 88.0716 14.3821 88.6186C14.3821 89.1657 13.9132 89.5565 13.2879 89.5565C12.6627 89.5565 12.1938 89.1657 12.1938 88.6186C12.1938 87.9934 12.7409 87.6808 13.2879 87.6808ZM13.2879 86.8211C12.272 86.8211 11.1778 87.3682 11.1778 88.6186C11.1778 89.8691 12.272 90.4161 13.2879 90.4161C14.3039 90.4161 15.3981 89.8691 15.3981 88.6186C15.3981 87.3682 14.3039 86.8211 13.2879 86.8211ZM20.8687 90.1035C20.8687 90.1817 20.9469 90.2598 21.1032 90.2598V90.338H19.6183V90.2598C19.6964 90.2598 19.8527 90.2598 19.8527 90.1817C19.8527 90.0254 18.8368 89.0875 17.9771 88.0716V90.1035C17.9771 90.1817 18.0552 90.2598 18.2115 90.2598V90.338H16.883V90.2598C16.9611 90.2598 17.1174 90.2598 17.1174 90.1035V87.1337C17.1174 87.0556 17.0393 86.9774 16.883 86.9774V86.8993H18.7586V86.9774C18.6805 86.9774 18.6023 86.9774 18.6023 87.1337C18.6023 87.2119 19.3838 87.9934 20.0091 88.6968V87.1337C20.0091 87.0556 19.9309 86.9774 19.7746 86.9774V86.8993H21.1813V86.9774C21.025 86.9774 20.9469 86.9774 20.9469 87.1337V90.1035H20.8687ZM25.9486 86.8211C26.0268 86.8211 26.1049 86.8211 26.1049 86.6648H26.1831V87.8371H26.1049C26.1049 87.6808 26.0268 87.6808 25.9486 87.6808H24.8545V90.1035C24.8545 90.1817 24.9327 90.2598 25.0108 90.2598V90.338H23.6041V90.2598C23.6822 90.2598 23.7604 90.2598 23.7604 90.1035V87.6808H22.6662C22.5881 87.6808 22.5099 87.6808 22.5099 87.8371H22.4318V86.6648H22.5099C22.5099 86.8211 22.5881 86.8211 22.6662 86.8211H25.9486ZM28.8403 87.5245H29.9344C30.4033 87.5245 30.5596 87.6808 30.5596 87.9153C30.5596 88.2279 30.3252 88.306 30.0126 88.306H28.9184V87.5245H28.8403ZM27.8243 90.1035C27.8243 90.1817 27.7461 90.2598 27.668 90.2598V90.338H28.9966V90.2598C28.9184 90.2598 28.7621 90.2598 28.7621 90.1035V89.0875H29.5436C29.6218 89.2438 30.1689 90.1035 30.1689 90.1817C30.1689 90.2598 30.0126 90.2598 30.0126 90.2598V90.338H31.5756V90.2598C31.4974 90.2598 31.3411 90.1817 31.263 90.1035L30.5596 89.0875C31.0285 88.9312 31.4193 88.6186 31.4193 87.9934C31.4193 87.29 30.8722 86.8993 30.1689 86.8993H27.668V86.9774C27.7461 86.9774 27.8243 86.9774 27.8243 87.1337V90.1035ZM34.9362 87.6808C35.5614 87.6808 36.0303 88.0716 36.0303 88.6186C36.0303 89.1657 35.5614 89.5565 34.9362 89.5565C34.3109 89.5565 33.842 89.1657 33.842 88.6186C33.842 87.9934 34.3109 87.6808 34.9362 87.6808ZM34.9362 86.8211C33.9202 86.8211 32.826 87.3682 32.826 88.6186C32.826 89.8691 33.9202 90.4161 34.9362 90.4161C35.9521 90.4161 37.0463 89.8691 37.0463 88.6186C37.0463 87.3682 35.874 86.8211 34.9362 86.8211ZM38.6093 87.1337C38.6093 87.0556 38.5312 86.9774 38.3749 86.9774V86.8993H39.8598V86.9774C39.7816 86.9774 39.6253 86.9774 39.6253 87.1337V89.5565H41.8136C41.8917 89.5565 41.9699 89.5565 41.9699 89.322H42.048V90.4943H41.9699C41.9699 90.338 41.8917 90.338 41.8136 90.338H38.3749V90.2598C38.5312 90.2598 38.6093 90.2598 38.6093 90.1035V87.1337ZM47.7532 89.0875L48.3784 87.6808L49.0036 89.0875H47.7532ZM50.7229 90.338V90.2598C50.6448 90.2598 50.5666 90.2598 50.5666 90.1817C50.254 89.4002 49.0817 87.1337 49.0817 87.0556C49.0817 86.9774 49.0817 86.9774 49.1599 86.9774V86.8993H47.5187V86.9774C47.5968 86.9774 47.5968 86.9774 47.5968 87.0556C47.5968 87.1337 46.8935 88.6968 46.2683 90.1817C46.2683 90.2598 46.1901 90.2598 46.1119 90.2598V90.338H47.2842V90.2598C47.2842 90.2598 47.2061 90.2598 47.2061 90.1817C47.2061 90.1035 47.3624 89.7909 47.4405 89.6346H49.238C49.3162 89.7909 49.4725 90.1035 49.4725 90.1817C49.4725 90.2598 49.3944 90.2598 49.3944 90.2598V90.338H50.7229ZM56.2718 90.1035C56.2718 90.1817 56.3499 90.2598 56.5062 90.2598V90.338H55.0213V90.2598C55.0995 90.2598 55.2558 90.2598 55.2558 90.1817C55.2558 90.0254 54.2398 89.0875 53.3801 88.0716V90.1035C53.3801 90.1817 53.4583 90.2598 53.6146 90.2598V90.338H52.2078V90.2598C52.286 90.2598 52.4423 90.2598 52.4423 90.1035V87.1337C52.4423 87.0556 52.3641 86.9774 52.2078 86.9774V86.8993H54.0835V86.9774C54.0053 86.9774 53.9272 86.9774 53.9272 87.1337C53.9272 87.2119 54.7087 87.9934 55.3339 88.6968V87.1337C55.3339 87.0556 55.2558 86.9774 55.0995 86.9774V86.8993H56.5062V86.9774C56.3499 86.9774 56.2718 86.9774 56.2718 87.1337V90.1035ZM59.3197 87.6027H59.8668C60.6483 87.6027 61.0391 87.8371 61.0391 88.5405C61.0391 89.2438 60.7264 89.4783 59.8668 89.4783H59.3197V87.6027ZM58.2256 90.1035C58.2256 90.1817 58.1474 90.2598 57.9911 90.2598V90.338H60.3357C61.508 90.338 61.9769 89.5565 61.9769 88.6186C61.9769 87.6808 61.508 86.8993 60.3357 86.8993H57.9911V86.9774C58.0693 86.9774 58.2256 86.9774 58.2256 87.1337V90.1035ZM67.9946 87.0556H69.1669C69.5577 87.0556 69.7921 87.2119 69.7921 87.5245C69.7921 87.8371 69.5577 87.9934 69.1669 87.9934H67.9946V87.0556ZM67.9946 88.7749H69.4014C70.4173 88.7749 70.8863 88.1497 70.8863 87.4463C70.8863 86.743 70.3392 86.1178 69.4014 86.1178H66.5879V86.1959C66.8223 86.1959 66.8223 86.2741 66.8223 86.3522V90.0254C66.8223 90.1035 66.8223 90.1817 66.5879 90.1817V90.2598H68.2291V90.1817C67.9946 90.1817 67.9946 90.1035 67.9946 90.0254V88.7749ZM73.5434 87.5245H74.6376C75.1065 87.5245 75.2628 87.6808 75.2628 87.9153C75.2628 88.2279 75.0283 88.306 74.7157 88.306H73.6216V87.5245H73.5434ZM72.5275 90.1035C72.5275 90.1817 72.4493 90.2598 72.3712 90.2598V90.338H73.6997V90.2598C73.6216 90.2598 73.4653 90.2598 73.4653 90.1035V89.0875H74.2468C74.325 89.2438 74.872 90.1035 74.872 90.1817C74.872 90.2598 74.7157 90.2598 74.7157 90.2598V90.338H76.2788V90.2598C76.2006 90.2598 76.0443 90.1817 75.9662 90.1035L75.2628 89.0875C75.7317 88.9312 76.1225 88.6186 76.1225 87.9934C76.1225 87.29 75.5754 86.8993 74.872 86.8993H72.3712V86.9774C72.4493 86.9774 72.5275 86.9774 72.5275 87.1337V90.1035ZM81.2024 89.6346C81.2805 89.6346 81.3587 89.5565 81.4368 89.4783H81.515V90.4943H81.4368C81.3587 90.338 81.3587 90.338 81.2024 90.338H77.6855V90.2598C77.7637 90.2598 77.92 90.2598 77.92 90.1035V87.1337C77.92 87.0556 77.8418 86.9774 77.6855 86.9774V86.8993H81.2805C81.3587 86.8993 81.4368 86.8993 81.4368 86.743H81.515V87.759H81.4368C81.4368 87.6026 81.3587 87.6027 81.2805 87.6027H79.0141V88.2279H80.499C80.5771 88.2279 80.6553 88.2279 80.6553 88.0716H80.7335V89.0875H80.6553C80.6553 88.9312 80.5771 88.9312 80.499 88.9312H79.0141V89.7128H81.2024V89.6346ZM82.7654 86.8211H84.2503V86.8993C84.1722 86.8993 84.0159 86.8993 84.0159 86.9774C84.0159 87.0556 84.6411 88.7749 84.7192 89.0094C85.0318 88.306 85.5008 87.0556 85.5008 86.9774C85.5008 86.8993 85.3444 86.8993 85.3444 86.8993V86.8211H86.673V86.8993C86.5949 86.8993 86.5167 86.8993 86.5167 86.9774C86.4386 87.29 85.2663 89.9472 85.2663 90.0254C85.2663 90.1035 85.3444 90.1817 85.4226 90.1817V90.2598H83.7814V90.1817C83.8596 90.1817 83.9377 90.1035 83.9377 90.0254C83.9377 90.0254 82.9217 86.9774 82.8436 86.8993H82.6873V86.8211H82.7654ZM91.5185 89.6346C91.5966 89.6346 91.6748 89.5565 91.7529 89.4783H91.8311V90.4943H91.7529C91.6748 90.338 91.6748 90.338 91.5185 90.338H88.0016V90.2598C88.0798 90.2598 88.2361 90.2598 88.2361 90.1035V87.1337C88.2361 87.0556 88.1579 86.9774 88.0016 86.9774V86.8993H91.5966C91.6748 86.8993 91.7529 86.8993 91.7529 86.743H91.8311V87.759H91.7529C91.7529 87.6026 91.6748 87.6027 91.5966 87.6027H89.3302V88.2279H90.8151C90.8933 88.2279 90.9714 88.2279 90.9714 88.0716H91.0496V89.0875H90.9714C90.9714 88.9312 90.8933 88.9312 90.8151 88.9312H89.3302V89.7128H91.5185V89.6346ZM97.5362 90.1035C97.5362 90.1817 97.6144 90.2598 97.7707 90.2598V90.338H96.2858V90.2598C96.3639 90.2598 96.5202 90.2598 96.5202 90.1817C96.5202 90.0254 95.5043 89.0875 94.6446 88.0716V90.1035C94.6446 90.1817 94.7227 90.2598 94.879 90.2598V90.338H93.5504V90.2598C93.6286 90.2598 93.7849 90.2598 93.7849 90.1035V87.1337C93.7849 87.0556 93.7068 86.9774 93.5504 86.9774V86.8993H95.4261V86.9774C95.348 86.9774 95.2698 86.9774 95.2698 87.1337C95.2698 87.2119 96.0513 87.9934 96.6765 88.6968V87.1337C96.6765 87.0556 96.5984 86.9774 96.4421 86.9774V86.8993H97.8488V86.9774C97.6925 86.9774 97.6144 86.9774 97.6144 87.1337V90.1035H97.5362ZM102.616 86.8211C102.694 86.8211 102.772 86.8211 102.772 86.6648H102.851V87.8371H102.772C102.772 87.6808 102.694 87.6808 102.616 87.6808H101.522V90.1035C101.522 90.1817 101.6 90.2598 101.678 90.2598V90.338H100.272V90.2598C100.35 90.2598 100.428 90.2598 100.428 90.1035V87.6808H99.3337C99.2556 87.6808 99.1774 87.6808 99.1774 87.8371H99.0993V86.6648H99.1774C99.1774 86.8211 99.2556 86.8211 99.3337 86.8211H102.616ZM105.899 86.8211V86.8993C105.742 86.8993 105.664 86.8993 105.664 87.0556V90.0254C105.664 90.1035 105.742 90.1817 105.899 90.1817V90.2598H104.335V90.1817C104.492 90.1817 104.57 90.1817 104.57 90.0254V87.0556C104.57 86.9774 104.492 86.8993 104.335 86.8993V86.8211H105.899ZM109.415 87.6808C110.041 87.6808 110.51 88.0716 110.51 88.6186C110.51 89.1657 110.041 89.5565 109.415 89.5565C108.79 89.5565 108.321 89.1657 108.321 88.6186C108.321 87.9934 108.79 87.6808 109.415 87.6808ZM109.415 86.8211C108.399 86.8211 107.305 87.3682 107.305 88.6186C107.305 89.8691 108.399 90.4161 109.415 90.4161C110.431 90.4161 111.525 89.8691 111.525 88.6186C111.525 87.3682 110.353 86.8211 109.415 86.8211ZM116.918 90.1035C116.918 90.1817 116.996 90.2598 117.152 90.2598V90.338H115.668V90.2598C115.746 90.2598 115.902 90.2598 115.902 90.1817C115.902 90.0254 114.886 89.0875 114.026 88.0716V90.1035C114.026 90.1817 114.105 90.2598 114.261 90.2598V90.338H112.932V90.2598C113.01 90.2598 113.167 90.2598 113.167 90.1035V87.1337C113.167 87.0556 113.089 86.9774 112.932 86.9774V86.8993H114.808V86.9774C114.73 86.9774 114.652 86.9774 114.652 87.1337C114.652 87.2119 115.433 87.9934 116.058 88.6968V87.1337C116.058 87.0556 115.98 86.9774 115.824 86.9774V86.8993H117.231V86.9774C117.074 86.9774 116.996 86.9774 116.996 87.1337V90.1035H116.918Z" fill="#0033A1"/>
</svg>
