<svg width="184" height="65" viewBox="0 0 184 65" fill="none" xmlns="http://www.w3.org/2000/svg">
<path d="M33.272 50.4721C33.2023 49.9978 33.3376 49.5258 33.1947 49.0809C33.0725 48.6925 32.792 48.6569 32.6078 48.3411C32.1225 47.5128 31.6209 46.4396 31.5747 45.4254C31.5324 44.5145 31.1973 43.6915 31.1517 42.7886C31.1297 42.3529 31.181 41.9036 31.1653 41.4723C31.157 41.2624 31.145 41.0806 31.1034 40.8528C31.093 40.7965 31.0557 40.5647 31.0384 40.4717L31.1517 40.1893C31.1017 40.0924 32.1182 40.1247 32.4213 40.1267C32.9359 40.133 33.4198 40.1597 33.9331 40.1843C34.9816 40.2363 35.9368 40.2233 36.958 40.0657C39.2335 39.7143 40.2797 38.7851 40.8149 38.3987C42.9042 36.8923 43.8611 34.4292 43.8611 34.4292C44.2059 33.6599 44.2045 32.2873 44.9436 31.6728C45.8146 30.947 47.2771 30.9993 48.2769 30.554C48.8618 30.2952 49.2838 30.1527 49.8817 30.2766C50.3253 30.3692 51.124 30.8831 51.3075 30.1617C51.1593 30.0661 51.1014 29.8912 51.0221 29.7943C51.8464 29.7127 51.0377 27.8006 50.7117 27.4185C50.2081 26.829 49.3677 26.5589 48.4738 26.3217C47.412 26.0403 46.4487 25.7156 45.4489 25.9117C43.7029 26.2535 43.8335 25.2543 42.8047 25.2543C41.57 25.2543 39.3731 25.3149 38.9934 26.5153C38.8165 27.0758 38.6343 27.0991 38.3279 27.5291C38.0658 27.8975 38.3735 28.2226 38.242 28.6429C38.1061 29.0749 37.9066 30.5963 37.6984 31.1272C37.3464 32.0255 36.9267 33.1473 36.152 33.1473C35.0659 33.2772 34.2122 33.3188 33.3312 32.9991C32.801 32.8065 31.9124 32.5051 31.4727 32.3199C29.445 31.4663 29.112 30.5324 29.112 30.5324C28.8945 30.1727 28.3213 29.5928 28.1068 28.8361C27.8709 28.0027 27.4729 27.3076 27.3117 26.874C27.1449 26.4247 26.7458 25.7049 26.4324 24.9269C26.0311 23.9307 25.4665 23.1872 25.0532 22.8182C24.4217 22.2553 23.8388 21.384 22.5569 21.6372C22.3277 21.6825 21.4951 21.7201 20.8569 22.2553C20.4242 22.6184 20.2877 23.3674 19.887 23.9993C19.6555 24.3643 19.2485 25.4115 18.8752 26.2851C18.6164 26.8906 18.4958 27.3446 18.216 27.5674C17.9972 27.7419 17.7261 27.9674 17.398 27.8445C17.1945 27.7682 16.977 27.639 16.7575 27.4675C16.4611 27.236 15.7873 26.0893 15.3733 25.2423C15.0146 24.5079 14.2489 23.4097 13.8059 22.8152C13.1684 21.9599 12.7947 21.7431 11.8528 21.7431C9.83206 21.7431 9.67918 22.8745 8.79023 24.5198C8.39987 25.2426 8.25765 26.3897 7.47395 27.2886C7.02597 27.8029 5.59645 29.9175 4.60258 30.2769V30.2666L4.59991 30.2769V45.3505L4.60258 45.3715V45.2769C4.66686 45.0804 4.73514 44.8919 4.81274 44.7233C5.1971 43.9043 6.08906 43.1443 6.58466 42.3033C6.85411 41.845 7.16153 41.396 7.34005 40.9151C7.4936 40.5007 7.5692 39.8829 7.79103 39.5235C8.06281 39.0829 8.48847 38.933 8.92545 38.8617C9.6099 38.7488 10.1914 39.8456 11.0671 40.2493C11.4404 40.4208 13.1591 41.0293 13.675 41.1542C14.5246 41.3574 15.4672 41.5269 16.3299 41.7011C16.7918 41.7944 17.2335 41.8486 17.7091 41.8969C18.1357 41.9396 19.7341 41.9925 19.8331 42.1081C19.0207 42.5224 18.5444 43.6855 18.2393 44.5085C17.9212 45.3662 17.6994 46.3207 17.3151 47.1597C16.8891 48.0866 15.9958 48.4723 16.1024 49.5525C16.1433 49.9835 16.2219 50.4354 16.15 50.9097C16.0734 51.409 15.8716 51.7987 15.7247 52.2876C15.5362 52.9254 15.3117 54.9855 15.0209 55.591L16.7985 55.3682L16.8015 55.3672C16.9957 54.9055 17.1745 52.9568 17.2375 52.7712C17.5699 51.794 18.0108 50.99 18.6893 50.2343C19.3508 49.4979 19.3165 48.5486 19.7028 47.6906C20.1212 46.758 20.6837 46.0123 21.2146 45.1357C22.1742 43.5506 22.807 41.5495 24.847 41.1425C25.0649 41.0976 26.3139 41.9982 26.8681 42.5338C27.5029 43.1439 28.1964 43.8507 28.6134 44.692C29.4207 46.3227 30.1055 48.6848 30.3646 49.9875C30.5135 50.7355 30.6321 50.7802 31.138 51.3727C31.3708 51.6441 31.8354 52.4925 31.9883 52.8182C32.1489 53.1659 32.393 53.9573 32.5875 54.3613C32.7021 54.6018 32.9992 55.3405 33.2153 55.9787L34.8763 55.9267C34.8823 55.9407 34.9126 55.9227 34.9196 55.9357C34.9203 55.9357 34.9213 55.9354 34.922 55.935C34.915 55.9224 34.9086 55.9077 34.9027 55.8941C34.075 54.2331 33.5454 52.3113 33.272 50.4721Z" fill="white"/>
<path d="M32.587 54.3608C32.3925 53.9568 32.1487 53.1654 31.9878 52.8177C31.835 52.4919 31.3703 51.644 31.1375 51.3722C30.6313 50.7797 30.513 50.735 30.3641 49.987C30.1053 48.6843 29.4202 46.3219 28.6129 44.6915C28.1959 43.8502 27.5024 43.1434 26.8676 42.5333C26.3134 41.998 25.0644 41.0971 24.8466 41.142C22.8065 41.5494 22.1737 43.5501 21.2141 45.1352C20.6832 46.0118 20.1207 46.7575 19.7023 47.6901C19.316 48.5478 19.3503 49.4973 18.6888 50.2338C18.0104 50.9898 17.5694 51.7938 17.237 52.7707C17.174 52.9562 16.9952 54.905 16.801 55.3666C16.801 55.367 16.8007 55.3673 16.8007 55.3676L19.8329 55.1541C22.658 55.3467 21.8423 56.4295 26.2521 56.1936L33.2152 55.9782C32.9987 55.34 32.7016 54.6013 32.587 54.3608Z" fill="url(#paint0_linear_0_9313)"/>
<path d="M52.7919 8.17285H11.5483C7.71202 8.17285 4.60217 11.2834 4.60217 15.1196V30.2662V30.2765C5.59604 29.9171 7.02557 27.8025 7.47354 27.2882C8.25725 26.3889 8.39947 25.2419 8.78982 24.5194C9.67878 22.8741 9.83165 21.7427 11.8524 21.7427C12.7943 21.7427 13.1683 21.9598 13.8055 22.8148C14.2488 23.4093 15.0145 24.5078 15.3729 25.2419C15.7866 26.0892 16.4607 27.2356 16.7571 27.4671C16.9766 27.6389 17.1941 27.7678 17.3976 27.8441C17.7253 27.967 17.9964 27.7415 18.2156 27.567C18.4954 27.3442 18.616 26.8902 18.8747 26.2847C19.2484 25.411 19.6551 24.3642 19.8866 23.9988C20.2873 23.3674 20.4238 22.618 20.8565 22.2549C21.4946 21.7197 22.3273 21.682 22.5565 21.6367C23.8384 21.3836 24.4213 22.2549 25.0528 22.8178C25.4661 23.1868 26.031 23.9302 26.432 24.9264C26.7454 25.7045 27.1445 26.4242 27.3113 26.8735C27.4725 27.3072 27.8705 28.0023 28.1064 28.8356C28.3205 29.5924 28.8937 30.1722 29.1116 30.532C29.1116 30.532 29.445 31.4659 31.4723 32.3195C31.912 32.5047 32.8006 32.8058 33.3308 32.9986C34.2118 33.3187 35.0651 33.2771 36.1516 33.1469C36.9263 33.1469 37.346 32.0251 37.698 31.1268C37.9062 30.5959 38.1057 29.0745 38.2416 28.6425C38.3731 28.2221 38.0654 27.8971 38.3275 27.5287C38.6339 27.0987 38.8161 27.0754 38.993 26.5148C39.373 25.3145 41.5696 25.2538 42.8043 25.2538C43.8334 25.2538 43.7025 26.253 45.4485 25.9113C46.4483 25.7151 47.4119 26.0402 48.4734 26.3213C49.3673 26.5585 50.2077 26.8286 50.7113 27.4181C51.0373 27.7998 51.8457 29.7123 51.0217 29.7939C51.1009 29.8908 51.1589 30.0657 51.3071 30.1612C51.1236 30.8827 50.3249 30.3687 49.8813 30.2762C49.2834 30.1523 48.8614 30.2948 48.2765 30.5536C47.2767 30.9989 45.8142 30.947 44.9432 31.6724C44.2041 32.2872 44.2055 33.6598 43.8607 34.4288C43.8607 34.4288 42.9038 36.8915 40.8145 38.3983C40.2793 38.7847 39.2331 39.7139 36.9576 40.0653C35.9364 40.2232 34.9812 40.2362 33.9327 40.1839C33.4194 40.1592 32.9355 40.1329 32.4209 40.1263C32.1178 40.1239 31.101 40.0916 31.1513 40.1889L31.038 40.4713C31.0557 40.5643 31.0926 40.7964 31.103 40.8524C31.1446 41.0805 31.1562 41.2624 31.1649 41.4719C31.1806 41.9032 31.1293 42.3528 31.1513 42.7881C31.1969 43.6911 31.5319 44.5141 31.5742 45.425C31.6205 46.4392 32.1221 47.5124 32.6074 48.3407C32.7916 48.6561 33.072 48.6921 33.1943 49.0804C33.3375 49.5254 33.2019 49.9974 33.2716 50.4717C33.5447 52.3105 34.0742 54.2326 34.9023 55.8923C34.9079 55.906 34.9146 55.921 34.9216 55.9333C34.9216 55.9333 34.9216 55.9336 34.9219 55.9339C35.9444 55.7621 36.9689 55.3944 38.2975 55.1979C40.7336 54.8365 44.1215 55.0227 46.2978 54.8188C51.8044 54.3013 54.793 57.0774 59.7387 55.9396V15.12C59.738 11.2834 56.6292 8.17285 52.7919 8.17285ZM32.2164 40.7804C32.2087 40.6971 32.2124 40.7088 32.2241 40.7601L32.2164 40.7804Z" fill="url(#paint1_linear_0_9313)"/>
<path d="M17.3147 47.1595C17.699 46.3208 17.9208 45.3659 18.2389 44.5082C18.544 43.6852 19.0203 42.5222 19.8326 42.1078C19.7337 41.9923 18.1353 41.9393 17.7087 41.8967C17.2331 41.8484 16.7914 41.7941 16.3295 41.7008C15.4668 41.5266 14.5242 41.3574 13.6746 41.1539C13.1587 41.029 11.44 40.4205 11.0667 40.249C10.191 39.8453 9.6095 38.7485 8.92505 38.8614C8.48806 38.9327 8.0624 39.0826 7.79062 39.5232C7.5688 39.8826 7.49319 40.5001 7.33965 40.9148C7.16146 41.3957 6.8537 41.8447 6.58425 42.303C6.08865 43.1437 5.1967 43.9041 4.81234 44.7231C4.73507 44.8916 4.66645 45.0801 4.60217 45.2766V45.3712V48.4188V53.8548V54.6401C5.05048 54.7167 5.51944 54.811 6.04435 54.9512C9.91825 55.9851 10.8635 56.0723 14.6631 55.638L15.0195 55.5907V55.5904C15.3103 54.9849 15.5348 52.9248 15.7233 52.287C15.8702 51.7981 16.072 51.4084 16.1486 50.9091C16.2209 50.4348 16.1419 49.9829 16.101 49.5519C15.9954 48.4721 16.8887 48.0864 17.3147 47.1595Z" fill="url(#paint2_linear_0_9313)"/>
<path d="M77.3258 50.0742C75.4919 50.0742 73.8176 49.7475 72.3031 49.0946C70.788 48.4422 69.4897 47.5046 68.4059 46.2812C67.3221 45.0589 66.4818 43.5721 65.8846 41.8215C65.2867 40.0709 64.9883 38.0845 64.9883 35.8609C64.9883 33.638 65.2867 31.6583 65.8846 29.9217C66.4818 28.1854 67.3221 26.7266 68.4059 25.5452C69.4897 24.3644 70.788 23.4612 72.3031 22.836C73.8176 22.2108 75.4919 21.8981 77.3258 21.8981C79.1596 21.8981 80.8333 22.2108 82.3484 22.836C83.8622 23.4612 85.1612 24.3718 86.245 25.5661C87.3288 26.7612 88.1691 28.2274 88.7669 29.9636C89.3641 31.7006 89.6626 33.6667 89.6626 35.8612C89.6626 38.0848 89.3641 40.0712 88.7669 41.8218C88.1691 43.5724 87.3288 45.0592 86.245 46.2816C85.1612 47.5049 83.8622 48.4425 82.3484 49.095C80.8336 49.7471 79.1596 50.0742 77.3258 50.0742ZM77.3258 44.7804C79.1869 44.7804 80.6604 43.9821 81.7442 42.384C82.8274 40.7863 83.3693 38.612 83.3693 35.8609C83.3693 33.1381 82.8274 31.0121 81.7442 29.484C80.6604 27.9562 79.1869 27.1915 77.3258 27.1915C75.4639 27.1915 73.9911 27.9559 72.9073 29.484C71.8235 31.0125 71.2816 33.1384 71.2816 35.8609C71.2816 38.612 71.8235 40.7863 72.9073 42.384C73.9914 43.9821 75.4643 44.7804 77.3258 44.7804Z" fill="#484444"/>
<path d="M91.8298 36.1527C91.8298 33.9018 92.1772 31.8947 92.872 30.1298C93.5668 28.3656 94.504 26.8721 95.6854 25.6491C96.8661 24.4267 98.242 23.4961 99.8118 22.8563C101.382 22.2175 103.042 21.8974 104.793 21.8974C106.487 21.8974 108.023 22.2518 109.398 22.9602C110.774 23.669 111.92 24.496 112.837 25.4402L109.461 29.2332C108.766 28.5944 108.064 28.0941 107.356 27.7327C106.647 27.372 105.821 27.1908 104.876 27.1908C103.931 27.1908 103.049 27.3927 102.229 27.795C101.409 28.198 100.694 28.7746 100.083 29.5246C99.4717 30.2747 98.9924 31.1916 98.645 32.2754C98.2976 33.3589 98.1241 34.5823 98.1241 35.9432C98.1241 38.7503 98.722 40.9242 99.917 42.4663C101.111 44.0087 102.709 44.7794 104.71 44.7794C105.821 44.7794 106.794 44.5573 107.628 44.1126C108.461 43.6683 109.211 43.0848 109.879 42.362L113.255 46.0717C112.115 47.4053 110.816 48.4059 109.358 49.0727C107.899 49.7398 106.321 50.0732 104.627 50.0732C102.876 50.0732 101.223 49.7744 99.6669 49.1772C98.1101 48.5801 96.7492 47.6974 95.5822 46.5304C94.4151 45.3633 93.4978 43.9118 92.831 42.1749C92.1636 40.4392 91.8298 38.4315 91.8298 36.1527Z" fill="#484444"/>
<path d="M115.296 43.8219C115.296 41.6543 116.213 39.9596 118.047 38.7369C119.881 37.5146 122.84 36.6946 126.925 36.2779C126.869 35.3606 126.591 34.6316 126.091 34.0897C125.591 33.5478 124.784 33.277 123.673 33.277C122.784 33.277 121.895 33.4438 121.006 33.7772C120.116 34.1106 119.172 34.5693 118.172 35.1528L116.004 31.1097C117.338 30.304 118.734 29.6509 120.193 29.1506C121.652 28.6507 123.2 28.4005 124.84 28.4005C127.508 28.4005 129.543 29.1579 130.947 30.6721C132.349 32.1868 133.051 34.5416 133.051 37.7371V49.5743H128.05L127.592 47.4486H127.467C126.577 48.2267 125.639 48.8592 124.653 49.3448C123.666 49.8307 122.59 50.0742 121.423 50.0742C120.478 50.0742 119.631 49.914 118.88 49.5949C118.13 49.2758 117.491 48.8309 116.963 48.261C116.435 47.6918 116.025 47.0316 115.733 46.2812C115.442 45.5308 115.296 44.7115 115.296 43.8219ZM121.131 43.3632C121.131 44.0304 121.346 44.5236 121.777 44.8427C122.208 45.1628 122.784 45.322 123.507 45.322C124.229 45.322 124.84 45.1698 125.341 44.8637C125.841 44.5579 126.369 44.1276 126.925 43.5714V39.945C124.729 40.2511 123.215 40.6954 122.381 41.2789C121.548 41.8631 121.131 42.5575 121.131 43.3632Z" fill="#484444"/>
<path d="M136.636 28.9001H141.638L142.055 31.5677H142.221C143.083 30.7067 143.999 29.963 144.973 29.3378C145.945 28.7126 147.112 28.3999 148.474 28.3999C149.947 28.3999 151.134 28.6986 152.037 29.2958C152.94 29.8937 153.656 30.748 154.184 31.8591C155.101 30.9149 156.066 30.1022 157.081 29.4207C158.095 28.7403 159.296 28.3995 160.686 28.3995C162.909 28.3995 164.541 29.1433 165.583 30.6294C166.626 32.1162 167.147 34.1513 167.147 36.7355V49.5733H161.019V37.5276C161.019 36.0271 160.818 34.9993 160.415 34.443C160.012 33.8875 159.366 33.6094 158.477 33.6094C157.449 33.6094 156.268 34.2765 154.934 35.6101V49.5733H148.808V37.5276C148.808 36.0271 148.605 34.9993 148.203 34.443C147.8 33.8875 147.154 33.6094 146.265 33.6094C145.208 33.6094 144.041 34.2765 142.763 35.6101V49.5733H136.636V28.9001Z" fill="#484444"/>
<path d="M170.689 20.3557H176.817V43.4049C176.817 44.0447 176.934 44.4887 177.17 44.7388C177.407 44.9889 177.65 45.1138 177.9 45.1138H178.254C178.351 45.1138 178.483 45.0865 178.65 45.0306L179.4 49.5739C179.067 49.7125 178.643 49.8307 178.129 49.928C177.614 50.0252 177.01 50.0742 176.316 50.0742C175.26 50.0742 174.37 49.9073 173.648 49.5739C172.926 49.2405 172.349 48.7756 171.919 48.1777C171.487 47.5805 171.175 46.8584 170.981 46.0104C170.786 45.1631 170.689 44.2116 170.689 43.1554V20.3557Z" fill="#484444"/>
<defs>
<linearGradient id="paint0_linear_0_9313" x1="25.0079" y1="41.1404" x2="25.0079" y2="56.227" gradientUnits="userSpaceOnUse">
<stop stop-color="#F29100"/>
<stop offset="1" stop-color="#EC670F"/>
</linearGradient>
<linearGradient id="paint1_linear_0_9313" x1="32.1704" y1="8.17278" x2="32.1704" y2="56.2159" gradientUnits="userSpaceOnUse">
<stop stop-color="#F29100"/>
<stop offset="1" stop-color="#EC670F"/>
</linearGradient>
<linearGradient id="paint2_linear_0_9313" x1="12.2174" y1="38.8532" x2="12.2174" y2="55.8844" gradientUnits="userSpaceOnUse">
<stop stop-color="#F29100"/>
<stop offset="1" stop-color="#EC670F"/>
</linearGradient>
</defs>
</svg>
