<svg  viewBox="95 25 150 32" fill="none" xmlns="http://www.w3.org/2000/svg"><defs>
<clipPath id="clip0_0_824">
<rect width="50" height="20.054" fill="white" transform="translate(141 31)"/>
</clipPath>
<clipPath id="clip1_0_824">
<rect width="100" height="40.108" fill="white" transform="translate(20 21)"/>
</clipPath>
</defs><g clip-path="url(#clip0_0_824)">
<path d="M147.479 35.3848C143.954 35.3848 141.018 36.8799 141.018 41.3908C141.018 44.9645 142.992 47.2149 147.57 47.2149C152.957 47.2149 153.303 43.6659 153.303 43.6659H150.692C150.692 43.6659 150.132 45.5769 147.41 45.5769C145.193 45.5769 143.599 44.0792 143.599 41.9801H153.576V40.6628C153.576 38.5861 152.257 35.3848 147.479 35.3848ZM147.388 37.0683C149.498 37.0683 150.937 38.3611 150.937 40.2988H143.657C143.657 38.2417 145.534 37.0683 147.388 37.0683Z" fill="#E53238"/>
<path d="M153.572 31.0166V44.9494C153.572 45.7403 153.516 46.8508 153.516 46.8508H156.006C156.006 46.8508 156.095 46.0532 156.095 45.3243C156.095 45.3243 157.325 47.2489 160.67 47.2489C164.193 47.2489 166.585 44.8034 166.585 41.2997C166.585 38.0403 164.387 35.4188 160.676 35.4188C157.2 35.4188 156.12 37.2957 156.12 37.2957V31.0166H153.572ZM160.033 37.1421C162.425 37.1421 163.946 38.9174 163.946 41.2997C163.946 43.8543 162.189 45.5256 160.05 45.5256C157.497 45.5256 156.12 43.5322 156.12 41.3225C156.12 39.2634 157.356 37.1421 160.033 37.1421Z" fill="#0064D2"/>
<path d="M172.774 35.3848C167.472 35.3848 167.132 38.2879 167.132 38.7518H169.771C169.771 38.7518 169.909 37.0569 172.592 37.0569C174.335 37.0569 175.686 37.8548 175.686 39.3888V39.9348H172.592C168.484 39.9348 166.312 41.1364 166.312 43.5749C166.312 45.9746 168.319 47.2803 171.03 47.2803C174.726 47.2803 175.916 45.2385 175.916 45.2385C175.916 46.0506 175.979 46.8509 175.979 46.8509H178.325C178.325 46.8509 178.234 45.8589 178.234 45.2243V39.7386C178.234 36.1417 175.332 35.3848 172.774 35.3848ZM175.686 41.5728V42.3008C175.686 43.2504 175.1 45.611 171.65 45.611C169.761 45.611 168.952 44.6683 168.952 43.5749C168.952 41.5856 171.679 41.5728 175.686 41.5728Z" fill="#F5AF02"/>
<path d="M176.812 35.8401H179.781L184.042 44.3763L188.293 35.8401H190.983L183.239 51.0373H180.418L182.653 46.8008L176.812 35.8401Z" fill="#86B817"/>
</g><g clip-path="url(#clip1_0_824)">
<path d="M32.9556 29.7695C25.907 29.7695 20.0334 32.7599 20.0334 41.7817C20.0334 48.9289 23.983 53.4298 33.1376 53.4298C43.913 53.4298 44.6037 46.3317 44.6037 46.3317H39.3825C39.3825 46.3317 38.2631 50.1538 32.8191 50.1538C28.3851 50.1538 25.196 47.1585 25.196 42.9602H45.1497V40.3257C45.1497 36.1722 42.5131 29.7695 32.9556 29.7695ZM32.7736 33.1366C36.9943 33.1366 39.8717 35.7223 39.8717 39.5976H25.3115C25.3115 35.4834 29.0672 33.1366 32.7736 33.1366Z" fill="#E53238"/>
<path d="M45.1459 21.0334V48.8991C45.1459 50.4809 45.033 52.7018 45.033 52.7018H50.0129C50.0129 52.7018 50.1916 51.1067 50.1916 49.6489C50.1916 49.6489 52.652 53.4981 59.342 53.4981C66.3869 53.4981 71.1722 48.6071 71.1722 41.5997C71.1722 35.0808 66.7767 29.8378 59.3534 29.8378C52.402 29.8378 50.2419 33.5916 50.2419 33.5916V21.0334H45.1459ZM58.068 33.2845C62.852 33.2845 65.8941 36.835 65.8941 41.5997C65.8941 46.7089 62.3806 50.0514 58.1021 50.0514C52.9962 50.0514 50.2419 46.0647 50.2419 41.6452C50.2419 37.5271 52.7134 33.2845 58.068 33.2845Z" fill="#0064D2"/>
<path d="M83.5491 29.7695C72.9451 29.7695 72.265 35.5758 72.265 36.5036H77.543C77.543 36.5036 77.8198 33.1138 83.1851 33.1138C86.6715 33.1138 89.3732 34.7096 89.3732 37.7776V38.8696H83.1851C74.97 38.8696 70.627 41.2729 70.627 46.1497C70.627 50.9492 74.6398 53.5606 80.0626 53.5606C87.4531 53.5606 89.8339 49.4769 89.8339 49.4769C89.8339 51.1012 89.9591 52.7018 89.9591 52.7018H94.6512C94.6512 52.7018 94.4692 50.7178 94.4692 49.4485V38.4772C94.4692 31.2835 88.6667 29.7695 83.5491 29.7695ZM89.3732 42.1457V43.6017C89.3732 45.5007 88.2013 50.222 81.3025 50.222C77.5247 50.222 75.905 48.3366 75.905 46.1497C75.905 42.1713 81.3596 42.1457 89.3732 42.1457Z" fill="#F5AF02"/>
<path d="M91.627 30.6804H97.5648L106.086 47.7529L114.588 30.6804H119.967L104.481 61.0748H98.8388L103.308 52.6019L91.627 30.6804Z" fill="#86B817"/>
</g></svg>