<svg width="243" height="49" viewBox="0 0 243 49" fill="none" xmlns="http://www.w3.org/2000/svg">
<path d="M29.636 17.2925C28.9931 16.6068 28.3931 16.0497 27.7502 15.664C27.1502 15.2782 26.2931 15.1068 25.2217 15.1068C23.8931 15.1068 22.736 15.4497 21.7931 16.0925C20.8502 16.7354 20.036 17.5497 19.3931 18.5782C18.7502 19.564 18.236 20.6354 17.8502 21.8354C17.4645 22.9925 17.2074 24.1068 17.036 25.1354C16.9502 25.6497 16.9074 26.1211 16.8645 26.6354C16.8217 27.1497 16.7788 27.664 16.7788 28.1782C16.7788 29.0782 16.8645 29.9354 17.036 30.7497C17.2074 31.564 17.4645 32.3354 17.8502 32.9782C18.236 33.6211 18.7502 34.1354 19.3931 34.5211C20.036 34.9068 20.8502 35.0782 21.8788 35.0782C23.036 35.0782 24.0645 34.864 24.9217 34.4354C25.7788 34.0068 26.6788 33.4497 27.6645 32.6782L25.436 43.1782C24.3217 43.6497 23.2931 43.9925 22.2645 44.2068C21.236 44.4211 20.1645 44.5497 19.0502 44.5497C17.2502 44.5497 15.5788 44.2497 14.036 43.6497C12.4931 43.0497 11.1217 42.1497 9.96452 40.9497C8.80738 39.7497 7.90738 38.2497 7.26452 36.4497C6.62167 34.6497 6.27881 32.5068 6.27881 30.1068C6.27881 29.3354 6.32167 28.564 6.36452 27.8354C6.45024 27.064 6.53595 26.2497 6.66452 25.3925C7.09309 22.6068 7.77881 20.164 8.67881 18.1068C9.57881 16.0497 10.6074 14.2497 11.8074 12.7925C12.9645 11.3354 14.2074 10.1354 15.5788 9.23539C16.9074 8.33539 18.236 7.60682 19.5217 7.09253C20.8074 6.57824 22.0502 6.23539 23.2074 6.0211C24.3645 5.80681 25.3502 5.7211 26.2074 5.7211C27.1074 5.7211 27.9645 5.80681 28.8645 5.93539C29.7217 6.06396 30.5359 6.3211 31.3074 6.6211L29.636 17.2925Z" fill="#DCE1E2"/>
<path d="M31.9074 25.0497C32.2931 22.7782 32.8931 20.464 33.7931 18.1497C34.6931 15.8354 35.8502 13.7782 37.2645 11.8925C38.7217 10.0497 40.436 8.50682 42.4074 7.34967C44.3788 6.19253 46.6931 5.59253 49.2645 5.59253C51.4074 5.59253 53.2074 5.97824 54.7074 6.79253C56.2074 7.60682 57.4074 8.67824 58.3502 10.0497C59.2931 11.4211 59.9359 12.964 60.3645 14.764C60.7931 16.5211 61.0074 18.364 61.0074 20.2497C61.0074 21.064 60.9645 21.8354 60.9217 22.6497C60.8359 23.464 60.7502 24.2354 60.6217 25.0068C60.2359 27.2782 59.6359 29.5925 58.7359 31.9068C57.8359 34.2211 56.6788 36.2782 55.2645 38.164C53.8074 40.0068 52.0931 41.5497 50.1217 42.7068C48.1502 43.864 45.8359 44.464 43.2645 44.464C41.1217 44.464 39.2788 44.0354 37.8217 43.264C36.3645 42.4497 35.1645 41.3782 34.2217 40.0068C33.3217 38.6354 32.636 37.0925 32.2502 35.2925C31.8217 33.5354 31.6074 31.6497 31.6074 29.7211C31.6074 28.9497 31.6502 28.1782 31.6931 27.364C31.6931 26.5925 31.7788 25.8211 31.9074 25.0497ZM42.2788 25.0497C42.1931 25.5211 42.1502 26.164 42.0217 26.9782C41.936 27.7925 41.8931 28.6925 41.8931 29.6354C41.8931 30.3211 41.936 30.964 42.0217 31.6068C42.1074 32.2497 42.236 32.8068 42.4502 33.3211C42.6645 33.8354 42.9645 34.2211 43.3074 34.5211C43.6931 34.8211 44.1217 34.9925 44.7217 34.9925C45.3645 34.9925 45.9217 34.8211 46.436 34.4354C46.9502 34.0497 47.3788 33.5354 47.7645 32.9354C48.1502 32.3354 48.4931 31.6497 48.7502 30.8782C49.0502 30.1497 49.2645 29.3782 49.4788 28.6497C49.6931 27.9211 49.8217 27.2354 49.9502 26.5925C50.0788 25.9497 50.1645 25.4354 50.2074 25.0068C50.2931 24.5354 50.3788 23.8925 50.4645 23.0354C50.5931 22.1782 50.6359 21.3211 50.6359 20.3782C50.6359 19.7354 50.5931 19.0497 50.5074 18.4497C50.4217 17.8068 50.2931 17.2497 50.0788 16.7354C49.8645 16.2211 49.5645 15.8354 49.2217 15.5354C48.8359 15.2354 48.4074 15.064 47.8074 15.064C47.1645 15.064 46.6074 15.2354 46.0931 15.6211C45.5788 16.0068 45.1502 16.5211 44.7645 17.1211C44.3788 17.7211 44.0359 18.4068 43.7788 19.1782C43.4788 19.9068 43.2645 20.6782 43.0502 21.4068C42.8359 22.1354 42.6645 22.8211 42.5359 23.464C42.4074 24.1497 42.3217 24.664 42.2788 25.0497Z" fill="#DCE1E2"/>
<path d="M66.4074 43.8211L63.6217 6.27824H74.2931V21.7068C74.2502 23.2497 74.2074 24.7497 74.1645 26.2497C74.0788 27.7497 74.0359 29.2497 73.9502 30.7925H74.0359C74.5074 29.2497 74.936 27.7497 75.2788 26.2497C75.6645 24.7497 76.0931 23.2497 76.6074 21.7068L81.7931 6.27824H92.8074L76.7788 43.8211H66.4074Z" fill="#DCE1E2"/>
<path d="M95.0359 6.27824H113.893L112.565 15.1497H103.865L103.007 20.3782H110.85L109.436 29.2497H101.636L100.736 34.9925H109.436L108.107 43.864H89.2502L95.0359 6.27824Z" fill="#DCE1E2"/>
<path d="M129.236 43.8211L126.065 28.1782L125.936 28.264C125.85 29.2068 125.722 30.1068 125.636 31.0068C125.55 31.9068 125.422 32.8497 125.25 33.7497L123.707 43.7782H113.55L119.379 6.23539H129.193C131.165 6.23539 132.965 6.36396 134.636 6.66396C136.307 6.96396 137.722 7.47824 138.922 8.16396C140.122 8.89253 141.065 9.83539 141.707 11.0782C142.35 12.3211 142.693 13.864 142.693 15.7497C142.693 16.2211 142.65 16.6925 142.607 17.164C142.565 17.6354 142.479 18.1497 142.436 18.664C142.093 20.764 141.365 22.6497 140.165 24.3211C138.965 26.0354 137.336 27.2782 135.15 28.0497L140.293 43.6925H129.236V43.8211ZM127.436 23.6782C128.079 23.6782 128.722 23.5497 129.279 23.2925C129.836 23.0354 130.35 22.6497 130.736 22.2211C131.165 21.7925 131.507 21.2782 131.765 20.6782C132.022 20.0782 132.193 19.5211 132.322 18.9211C132.365 18.7068 132.365 18.5354 132.407 18.364C132.407 18.1925 132.45 18.0211 132.45 17.8497C132.45 16.6497 132.107 15.7925 131.422 15.1925C130.736 14.6354 129.836 14.3354 128.679 14.3354H128.293L126.793 23.6354L127.436 23.6782Z" fill="#DCE1E2"/>
<path d="M160.265 39.0211H153.45L151.865 43.864H141.407L156.236 6.3211H168.622L170.765 43.864H160.265V39.0211ZM160.307 31.0497L160.564 22.3497C160.607 21.1925 160.65 19.9925 160.693 18.8354C160.779 17.6354 160.822 16.4782 160.907 15.3211H160.822C160.479 16.4782 160.136 17.6782 159.836 18.8354C159.493 20.0354 159.15 21.1925 158.807 22.3497L156.064 31.0497H160.307Z" fill="#DCE1E2"/>
<path d="M173.422 43.8211L179.25 6.27824H189.407L184.907 34.9497H192.536L191.207 43.8211H173.422Z" fill="#DCE1E2"/>
<path d="M193.993 43.8211L199.822 6.27824H209.979L205.479 34.9497H213.107L211.779 43.8211H193.993Z" fill="#DCE1E2"/>
<path d="M216.15 31.1782C216.407 31.6925 216.75 32.2068 217.136 32.7211C217.522 33.2354 217.993 33.664 218.465 34.0497C218.979 34.4354 219.493 34.7782 220.05 34.9925C220.607 35.2068 221.207 35.3354 221.893 35.3354C222.579 35.3354 223.307 35.1211 223.993 34.6925C224.722 34.264 225.15 33.664 225.279 32.8068C225.322 32.6782 225.322 32.5068 225.322 32.2497C225.322 31.6925 225.15 31.1782 224.764 30.7068C224.593 30.4497 224.379 30.1925 224.122 29.9782C223.865 29.764 223.607 29.5068 223.307 29.2925C222.45 28.5211 221.636 27.7497 220.907 27.0211C220.179 26.2497 219.536 25.4354 219.022 24.5354C218.636 23.8925 218.379 23.164 218.164 22.3925C217.95 21.6211 217.865 20.8068 217.865 19.9068C217.865 19.3068 217.907 18.664 217.993 17.9782C218.164 16.864 218.55 15.6211 219.15 14.2068C219.75 12.7925 220.564 11.4211 221.679 10.1782C222.75 8.93539 224.122 7.86396 225.707 6.96396C227.336 6.06396 229.222 5.63539 231.365 5.63539C232.607 5.63539 233.807 5.80682 235.007 6.14967C236.207 6.49253 237.322 6.96396 238.307 7.5211L236.593 18.9211C236.379 18.4497 236.079 17.9782 235.693 17.5068C235.307 17.0354 234.922 16.6068 234.45 16.2211C233.979 15.8354 233.464 15.5354 232.95 15.2782C232.393 15.0211 231.836 14.8925 231.236 14.8925C230.636 14.8925 230.036 15.1068 229.393 15.4925C228.75 15.8782 228.365 16.4354 228.236 17.2068V17.5068C228.236 18.1497 228.45 18.7497 228.922 19.3068C229.136 19.6068 229.393 19.864 229.693 20.1211C229.993 20.3782 230.25 20.5925 230.507 20.8497C231.45 21.6211 232.307 22.3497 233.036 23.0782C233.765 23.8068 234.322 24.5782 234.75 25.4354C235.093 26.0354 235.35 26.6782 235.522 27.364C235.693 28.0497 235.779 28.8211 235.779 29.6782C235.779 30.4497 235.693 31.2211 235.564 31.9497C235.307 33.7068 234.75 35.3354 233.936 36.8354C233.122 38.3354 232.093 39.664 230.85 40.8211C229.607 41.9782 228.236 42.8782 226.65 43.5211C225.064 44.164 223.393 44.5068 221.636 44.5068C219.064 44.5068 216.579 43.9925 214.264 42.964L216.15 31.1782Z" fill="#DCE1E2"/>
<path d="M28.0072 15.75C27.3643 15.0643 26.7643 14.5072 26.1214 14.1215C25.5214 13.7358 24.6643 13.5643 23.5929 13.5643C22.2643 13.5643 21.1072 13.9072 20.1643 14.55C19.2214 15.1929 18.4072 16.0072 17.7643 17.0358C17.1214 18.0215 16.6072 19.0929 16.2214 20.2929C15.8357 21.4501 15.5786 22.5643 15.4072 23.5929C15.3214 24.1072 15.2786 24.5786 15.2357 25.0929C15.1929 25.6072 15.15 26.1215 15.15 26.6358C15.15 27.5358 15.2357 28.3929 15.4072 29.2072C15.5786 30.0215 15.8357 30.7929 16.2214 31.4358C16.6072 32.0786 17.1214 32.5929 17.7643 32.9786C18.4072 33.3643 19.2214 33.5358 20.25 33.5358C21.4072 33.5358 22.4357 33.3215 23.2929 32.8929C24.15 32.4643 25.05 31.9072 26.0357 31.1358L23.8072 41.6358C22.6929 42.1072 21.6643 42.4501 20.6357 42.6643C19.6072 42.8786 18.5357 43.0072 17.4214 43.0072C15.6214 43.0072 13.95 42.7072 12.4072 42.1072C10.8643 41.5072 9.49287 40.6072 8.33573 39.4072C7.17859 38.2072 6.27859 36.7072 5.63573 34.9072C5.03573 33.0643 4.69287 30.9215 4.69287 28.5215C4.69287 27.7501 4.73573 26.9786 4.77859 26.2501C4.8643 25.4786 4.95001 24.6643 5.07859 23.8072C5.50716 21.0215 6.19287 18.5786 7.09287 16.5215C7.99287 14.4643 9.02144 12.6643 10.2214 11.2072C11.3786 9.75005 12.6214 8.55005 13.9929 7.65005C15.3214 6.75005 16.65 6.02148 17.9357 5.50719C19.2214 4.99291 20.4643 4.65005 21.6214 4.43576C22.7786 4.22148 23.7643 4.13576 24.6214 4.13576C25.5214 4.13576 26.3786 4.22148 27.2786 4.35005C28.1357 4.47862 28.95 4.73576 29.7214 5.03576L28.0072 15.75Z" fill="#394A56"/>
<path d="M30.2786 23.5072C30.6643 21.2358 31.2643 18.9215 32.1643 16.6072C33.0643 14.2929 34.2214 12.2358 35.6357 10.35C37.0929 8.50719 38.8072 6.96433 40.7786 5.80719C42.75 4.65005 45.0643 4.05005 47.6357 4.05005C49.7786 4.05005 51.5786 4.43576 53.0786 5.25005C54.5786 6.06433 55.7786 7.13576 56.7214 8.50719C57.6643 9.87862 58.3072 11.4215 58.7357 13.2215C59.1643 14.9786 59.3786 16.8215 59.3786 18.7072C59.3786 19.5215 59.3357 20.2929 59.2929 21.1072C59.2071 21.9215 59.1214 22.6929 58.9929 23.4643C58.6072 25.7358 58.0072 28.0501 57.1072 30.3643C56.2072 32.6786 55.05 34.7358 53.6357 36.6215C52.1786 38.4643 50.4643 40.0072 48.4929 41.1643C46.5214 42.3215 44.2072 42.9215 41.6357 42.9215C39.4929 42.9215 37.65 42.4929 36.1929 41.7215C34.7357 40.9072 33.5357 39.8358 32.5929 38.4643C31.6929 37.0929 31.0072 35.5501 30.6214 33.7501C30.1929 31.9929 29.9786 30.1072 29.9786 28.1786C29.9786 27.4072 30.0214 26.6358 30.0643 25.8215C30.0643 25.0501 30.15 24.2786 30.2786 23.5072ZM40.65 23.5072C40.5643 23.9786 40.5214 24.6215 40.3929 25.4358C40.3072 26.2501 40.2643 27.1501 40.2643 28.0929C40.2643 28.7786 40.3072 29.4215 40.3929 30.0643C40.4786 30.7072 40.6072 31.2643 40.8214 31.7786C41.0357 32.2929 41.3357 32.6786 41.6786 32.9786C42.0643 33.2786 42.4929 33.4501 43.0929 33.4501C43.7357 33.4501 44.2929 33.2786 44.8072 32.8929C45.3214 32.5072 45.75 31.9929 46.1357 31.3929C46.5214 30.7929 46.8643 30.1072 47.1214 29.3358C47.4214 28.6072 47.6357 27.8358 47.85 27.1072C48.0643 26.3786 48.1929 25.6929 48.3214 25.0501C48.45 24.4072 48.5357 23.8929 48.5786 23.4643C48.6643 22.9929 48.75 22.35 48.8357 21.4929C48.9643 20.6358 49.0072 19.7786 49.0072 18.8358C49.0072 18.1929 48.9643 17.5072 48.8786 16.9072C48.7929 16.2643 48.6643 15.7072 48.45 15.1929C48.2357 14.6786 47.9357 14.2929 47.5929 13.9929C47.2072 13.6929 46.7786 13.5215 46.1786 13.5215C45.5357 13.5215 44.9786 13.6929 44.4643 14.0786C43.95 14.4643 43.5214 14.9786 43.1357 15.5786C42.75 16.1786 42.4072 16.8643 42.15 17.6358C41.85 18.3643 41.6357 19.1358 41.4214 19.8643C41.2072 20.5929 41.0357 21.2786 40.9072 21.9215C40.7786 22.6072 40.6929 23.1215 40.65 23.5072Z" fill="#394A56"/>
<path d="M64.7786 42.2786L61.9929 4.73576H72.6643V20.1643C72.6214 21.7072 72.5786 23.2072 72.5357 24.7072C72.45 26.2072 72.4072 27.7072 72.3214 29.2501H72.4072C72.8786 27.7072 73.3072 26.2072 73.65 24.7072C74.0357 23.2072 74.4643 21.7072 74.9786 20.1643L80.1643 4.73576H91.1357L75.1072 42.2786H64.7786Z" fill="#394A56"/>
<path d="M93.4071 4.73576H112.264L110.936 13.6072H102.236L101.379 18.8358H109.179L107.764 27.7072H99.9643L99.0643 33.4501H107.764L106.436 42.3215H87.5786L93.4071 4.73576Z" fill="#394A56"/>
<path d="M127.607 42.2786L124.436 26.6358L124.307 26.7215C124.221 27.6643 124.093 28.5643 124.007 29.4643C123.921 30.3643 123.793 31.3072 123.621 32.2072L122.079 42.2358H111.921L117.707 4.73576H127.521C129.493 4.73576 131.293 4.86433 132.964 5.16433C134.636 5.46433 136.05 5.97862 137.25 6.66433C138.45 7.39291 139.393 8.33576 140.036 9.57862C140.679 10.8215 141.021 12.3643 141.021 14.25C141.021 14.7215 140.979 15.1929 140.936 15.6643C140.893 16.1358 140.807 16.6501 140.764 17.1643C140.421 19.2643 139.693 21.1501 138.493 22.8215C137.293 24.5358 135.664 25.7786 133.479 26.5501L138.621 42.1929H127.607V42.2786ZM125.807 22.1358C126.45 22.1358 127.093 22.0072 127.65 21.7501C128.207 21.4929 128.721 21.1072 129.107 20.6786C129.536 20.2501 129.879 19.7358 130.136 19.1358C130.393 18.5358 130.564 17.9786 130.693 17.3786C130.736 17.1643 130.736 16.9929 130.779 16.8215C130.779 16.6501 130.821 16.4786 130.821 16.3072C130.821 15.1072 130.479 14.25 129.793 13.6501C129.107 13.0929 128.207 12.7929 127.05 12.7929H126.664L125.207 22.0501L125.807 22.1358Z" fill="#394A56"/>
<path d="M158.636 37.4786H151.821L150.236 42.3215H139.779L154.607 4.77862H166.993L169.136 42.3215H158.636V37.4786ZM158.679 29.5072L158.936 20.8072C158.979 19.6501 159.021 18.45 159.064 17.2929C159.15 16.0929 159.193 14.9358 159.279 13.7786H159.193C158.85 14.9358 158.507 16.1358 158.207 17.2929C157.864 18.4929 157.521 19.6501 157.179 20.8072L154.436 29.5072H158.679Z" fill="#394A56"/>
<path d="M171.793 42.2786L177.621 4.73576H187.779L183.279 33.4072H190.907L189.579 42.2786H171.793Z" fill="#394A56"/>
<path d="M192.364 42.2786L198.193 4.73576H208.35L203.85 33.4072H211.479L210.15 42.2786H192.364Z" fill="#394A56"/>
<path d="M214.521 29.6358C214.779 30.1501 215.121 30.6643 215.507 31.1786C215.893 31.6929 216.364 32.1215 216.836 32.5072C217.35 32.8929 217.864 33.2358 218.421 33.4501C218.979 33.6643 219.579 33.7929 220.264 33.7929C220.95 33.7929 221.679 33.5786 222.364 33.1501C223.093 32.7215 223.521 32.1215 223.65 31.2643C223.693 31.1358 223.693 30.9643 223.693 30.7072C223.693 30.1501 223.521 29.6358 223.136 29.1643C222.964 28.9072 222.75 28.6501 222.493 28.4358C222.236 28.2215 221.979 27.9643 221.679 27.7501C220.821 26.9786 220.007 26.2072 219.279 25.4786C218.55 24.7072 217.907 23.8929 217.393 22.9929C217.007 22.35 216.75 21.6215 216.536 20.85C216.321 20.0786 216.236 19.2643 216.236 18.3643C216.236 17.7643 216.279 17.1215 216.364 16.4358C216.536 15.3215 216.921 14.0786 217.521 12.6643C218.121 11.25 218.936 9.87862 220.05 8.63576C221.121 7.39291 222.493 6.32148 224.079 5.42148C225.707 4.52148 227.593 4.09291 229.736 4.09291C230.979 4.09291 232.179 4.26433 233.379 4.60719C234.579 4.95005 235.693 5.42148 236.679 5.97862L234.879 17.3786C234.664 16.9072 234.364 16.4358 233.979 15.9643C233.593 15.4929 233.207 15.0643 232.736 14.6786C232.264 14.2929 231.75 13.9929 231.236 13.7358C230.679 13.4786 230.121 13.35 229.521 13.35C228.921 13.35 228.321 13.5643 227.679 13.95C227.036 14.3358 226.65 14.8929 226.521 15.6643V15.9643C226.521 16.6072 226.736 17.2072 227.207 17.7643C227.421 18.0643 227.679 18.3215 227.979 18.5786C228.279 18.8358 228.536 19.0501 228.793 19.3072C229.736 20.0786 230.593 20.8072 231.321 21.5358C232.05 22.2643 232.607 23.0358 233.036 23.8929C233.379 24.4929 233.636 25.1358 233.807 25.8215C233.979 26.5072 234.064 27.2786 234.064 28.1358C234.064 28.9072 233.979 29.6786 233.85 30.4072C233.593 32.1643 233.036 33.7929 232.221 35.2929C231.407 36.7929 230.379 38.1215 229.136 39.2786C227.893 40.4358 226.521 41.3358 224.936 41.9786C223.35 42.6215 221.679 42.9643 219.921 42.9643C217.35 42.9643 214.864 42.4501 212.55 41.4215L214.521 29.6358Z" fill="#394A56"/>
</svg>
