<svg  viewBox="95 25 150 32" fill="none" xmlns="http://www.w3.org/2000/svg"><defs>
<clipPath id="clip0_0_171">
<rect width="100" height="26.4957" fill="white" transform="translate(109 28)"/>
</clipPath>
</defs><g clip-path="url(#clip0_0_171)">
<path fill-rule="evenodd" clip-rule="evenodd" d="M206.282 44.8932C205.122 44.8932 204.798 44.0496 204.798 43.206V35.1479H208.653V31.0974H204.798V28H200.221V31.0974H197.812V35.1487H200.221V43.2393C200.221 47.9641 202.509 48.8752 205.204 48.8752C206.842 48.8752 207.931 48.6385 208.653 48.2675V44.488C207.93 44.7581 207.238 44.8932 206.282 44.8932ZM174.947 33.3487C171.029 33.3487 169.868 35.1393 169.868 35.1393V28.2393H164.808V44.5838L164.805 48.859L168.862 48.8094C169.021 48.8083 169.174 48.7451 169.287 48.6333C169.4 48.5216 169.465 48.3701 169.467 48.2111L169.488 46.7667C169.541 47.3077 170.582 48.041 171.002 48.3051C173.891 50.1239 178.157 48.7376 179.808 45.9085C179.861 45.8197 179.911 45.7291 179.959 45.6376C180.491 44.6291 180.779 43.5043 180.931 42.3752C181.184 40.4932 181.08 38.5145 180.249 36.8026C179.241 34.7291 177.291 33.3496 174.947 33.3496V33.3487ZM176.406 41.7128C176.309 42.6821 175.961 43.6786 175.201 44.2966C174.657 44.7385 173.937 44.9487 173.238 45.0376C171.149 45.3026 169.627 43.9436 169.627 43.9436V38.4991C169.627 38.4991 170.826 37.5385 172.693 37.5479C173.587 37.5521 174.531 37.6855 175.223 38.2453C175.561 38.5188 175.824 38.8624 176.014 39.2453C176.379 39.9872 176.489 40.8795 176.406 41.7128ZM125.302 44.5094V33.4803H120.82C120.53 33.4803 120.243 33.8026 120.243 34.0906V35.0658C120.243 35.0658 119.053 33.2752 115.135 33.2752C112.792 33.2752 110.827 34.6556 109.819 36.7282C108.988 38.4402 108.864 40.4188 109.117 42.3009C109.268 43.4308 109.561 44.5547 110.091 45.5632C110.14 45.6547 110.191 45.7453 110.244 45.835C111.896 48.6632 116.162 50.0496 119.052 48.2308C119.471 47.9667 120.514 47.2333 120.567 46.6923C120.567 46.6923 120.381 48.3863 122.406 48.7521C124.713 49.1692 127.47 48.3846 127.47 48.3846V45.0171C127.47 45.0171 127.142 45.1966 126.2 45.1966C125.257 45.1966 125.302 44.5094 125.302 44.5094ZM120.484 43.8701C120.484 44.2821 119.332 44.7128 119.033 44.8103C118.334 45.0385 117.546 45.0615 116.821 44.9641C116.124 44.8701 115.408 44.665 114.864 44.2231C114.103 43.606 113.75 42.6085 113.654 41.6402C113.571 40.806 113.673 39.9137 114.039 39.1718C114.229 38.7889 114.486 38.4453 114.825 38.1718C115.516 37.6128 116.498 37.4171 117.391 37.4744C117.758 37.4983 120.484 37.9179 120.484 38.4265V43.8701ZM144.127 36.7632C144.079 36.6715 144.028 36.5809 143.976 36.4915C142.325 33.6624 138.06 32.2769 135.169 34.094C134.75 34.359 133.708 35.0923 133.655 35.6325C133.655 35.6325 133.838 33.9385 131.813 33.5726C129.507 33.1556 126.747 33.9402 126.747 33.9402V37.3077C126.747 37.3077 127.195 37.1291 128.138 37.1291C129.08 37.1291 129.156 37.8162 129.156 37.8162V54.2094H133.974V47.259C133.974 47.259 135.166 49.0496 139.085 49.0496C141.426 49.0496 143.394 47.6701 144.401 45.5966C145.233 43.8855 145.357 41.9068 145.104 40.0239C144.953 38.8949 144.658 37.7701 144.127 36.7624V36.7632ZM140.185 43.1538C139.996 43.5376 139.738 43.8803 139.399 44.1538C138.707 44.7137 137.842 44.9094 136.95 44.8513C136.583 44.8282 133.974 44.4085 133.974 43.9V38.4564C133.974 38.0436 135.008 37.6128 135.307 37.5162C136.006 37.288 136.734 37.265 137.459 37.3624C138.157 37.4564 138.844 37.6615 139.387 38.1026C140.148 38.7205 140.486 39.7179 140.583 40.6863C140.666 41.5197 140.551 42.4128 140.185 43.1538ZM162.63 36.7632C162.582 36.6715 162.532 36.5809 162.479 36.4915C160.827 33.6624 156.562 32.2769 153.672 34.0949C153.253 34.3598 152.21 35.0932 152.158 35.6333C152.158 35.6333 152.363 33.9393 150.339 33.5735C148.032 33.1564 145.296 33.941 145.296 33.941V37.3085C145.296 37.3085 145.624 37.1299 146.567 37.1299C147.508 37.1299 147.464 37.8171 147.464 37.8171V54.2103H152.524V47.2598C152.524 47.2598 153.692 49.0504 157.61 49.0504C159.953 49.0504 161.908 47.6709 162.916 45.5974C163.748 43.8863 163.866 41.9077 163.613 40.0248C163.461 38.8957 163.161 37.7709 162.63 36.7632ZM158.688 43.1538C158.499 43.5376 158.24 43.8803 157.902 44.1538C157.21 44.7137 156.248 44.9094 155.356 44.8513C154.988 44.8282 152.282 44.4085 152.282 43.9V38.4564C152.282 38.0436 153.414 37.6128 153.712 37.5162C154.411 37.288 155.188 37.265 155.914 37.3624C156.611 37.4564 157.321 37.6615 157.866 38.1026C158.626 38.7205 158.977 39.7179 159.073 40.6863C159.156 41.5197 159.055 42.4128 158.689 43.1538H158.688ZM190.513 32.953C185.957 32.953 182.264 36.5564 182.264 41.0017C182.264 45.447 185.956 49.0504 190.512 49.0504C195.068 49.0504 198.762 45.447 198.762 41.0017C198.762 36.5573 195.069 32.953 190.513 32.953ZM190.465 44.5855C188.569 44.5855 187.032 42.953 187.032 40.9393C187.032 38.9248 188.569 37.2915 190.465 37.2915C192.361 37.2915 193.898 38.9239 193.898 40.9393C193.898 42.953 192.361 44.5863 190.465 44.5863V44.5855Z" fill="black"/>
</g></svg>