<svg width="135" height="88" viewBox="0 0 135 88" fill="none" xmlns="http://www.w3.org/2000/svg">
<path d="M33.6366 25.3689H57.8257V27.2915H35.8539V41.7614H56.5155V43.684H35.8539V59.5706H58.0777V61.4932H33.6366V25.3689ZM59.9927 25.3689H62.5628L73.9518 41.2555L85.5928 25.3689L101.427 5.18921L75.4132 42.9251L88.818 61.4932H86.1472L73.9518 44.5947L61.7061 61.4932H59.0856L72.5912 42.9251L59.9927 25.3689ZM89.7755 27.2915V25.3689H117.341V27.2915H104.642V61.4932H102.424V27.2915H89.7755ZM3.375 25.3689H6.14667L44.3664 82.561L28.572 61.4932L5.69312 28.101L5.59234 61.4932H3.375V25.3689ZM117.118 58.9905C116.665 58.9905 116.325 58.6394 116.325 58.1858C116.325 57.7322 116.665 57.3812 117.118 57.3812C117.576 57.3812 117.91 57.7322 117.91 58.1858C117.91 58.6394 117.576 58.9905 117.118 58.9905ZM119.296 56.8736H120.483C120.499 57.5162 120.968 57.9482 121.659 57.9482C122.43 57.9482 122.867 57.4838 122.867 56.6144V51.1063H124.075V56.6198C124.075 58.1858 123.169 59.0877 121.669 59.0877C120.262 59.0877 119.296 58.2128 119.296 56.8736ZM125.655 56.8034H126.852C126.955 57.5432 127.677 58.013 128.718 58.013C129.689 58.013 130.401 57.5108 130.401 56.8196C130.401 56.2256 129.948 55.8692 128.918 55.6262L127.915 55.3832C126.507 55.0538 125.865 54.3734 125.865 53.2285C125.865 51.8407 126.998 50.9173 128.697 50.9173C130.277 50.9173 131.431 51.8407 131.501 53.1529H130.325C130.212 52.4347 129.586 51.9865 128.68 51.9865C127.726 51.9865 127.089 52.4455 127.089 53.1475C127.089 53.7038 127.499 54.0224 128.513 54.26L129.371 54.4706C130.967 54.8432 131.625 55.4912 131.625 56.663C131.625 58.1534 130.471 59.0877 128.626 59.0877C126.901 59.0877 125.741 58.1966 125.655 56.8034Z" fill="black"/>
</svg>
