<svg width="231" height="52" viewBox="0 0 231 52" fill="none" xmlns="http://www.w3.org/2000/svg">
<path d="M27.2896 26.5783C27.2896 29.8652 26.3123 32.6338 24.3508 34.875C22.3038 37.2233 19.644 38.4021 16.388 38.4021C13.1235 38.4021 10.4722 37.2233 8.42522 34.875C6.46288 32.6338 5.47827 29.8652 5.47827 26.5783C5.47827 23.2823 6.46288 20.5146 8.42522 18.2815C10.495 15.9552 13.1549 14.7926 16.388 14.7926C19.644 14.7926 22.3038 15.9552 24.3508 18.2815C26.3123 20.5146 27.2896 23.2823 27.2896 26.5783ZM20.8069 26.5783C20.8069 25.0895 20.4507 23.8329 19.7372 22.8169C18.9392 21.6621 17.8222 21.0884 16.388 21.0884C14.9535 21.0884 13.8369 21.6621 13.038 22.8169C12.3172 23.8329 11.9605 25.0895 11.9605 26.5783C11.9605 28.0588 12.3172 29.3305 13.038 30.377C13.8369 31.5318 14.9535 32.1064 16.388 32.1064C17.8222 32.1064 18.9392 31.5318 19.7372 30.377C20.4507 29.3305 20.8069 28.0588 20.8069 26.5783ZM50.729 26.5783C50.729 29.6486 49.8449 32.3312 48.0691 34.6262C46.1695 37.1382 43.7194 38.4021 40.7419 38.4021C38.6403 38.4021 36.8576 37.7897 35.3999 36.5803C35.3999 36.8588 35.4308 37.5336 35.4931 38.6123C35.555 39.6966 35.5855 40.5807 35.5855 41.2786C35.5855 45.1332 34.438 47.0556 32.1435 47.0556C31.2048 47.0556 30.4377 46.7221 29.8249 46.0628C29.2202 45.3967 28.9176 44.5965 28.9176 43.6518V18.5841C28.9176 17.6691 29.2279 16.8779 29.8481 16.2117C30.4682 15.5525 31.2362 15.2198 32.1512 15.2198C33.5308 15.2198 34.539 15.9083 35.1751 17.2819C36.5319 15.6225 38.385 14.7926 40.7342 14.7926C43.7194 14.7926 46.1618 16.0325 48.0691 18.5222C49.8372 20.8253 50.729 23.508 50.729 26.5783ZM44.2463 26.5783C44.2463 25.0895 43.8827 23.8329 43.1693 22.8169C42.3699 21.6621 41.2538 21.0884 39.8192 21.0884C38.385 21.0884 37.2685 21.6621 36.4696 22.8169C35.7561 23.8329 35.3999 25.0895 35.3999 26.5783C35.3999 28.0588 35.7561 29.3305 36.4696 30.377C37.2685 31.5318 38.385 32.1064 39.8192 32.1064C41.2538 32.1064 42.3699 31.5318 43.1693 30.377C43.8827 29.3305 44.2463 28.0588 44.2463 26.5783ZM74.3153 25.8812C74.3153 26.9655 74.0591 27.7099 73.5473 28.1293C73.0358 28.5397 72.2373 28.749 71.1595 28.749H59.4589C59.4589 29.9898 60.0408 30.943 61.2038 31.6092C62.142 32.1296 63.2895 32.3939 64.6463 32.3939C65.7014 32.3939 66.9649 32.0437 68.4459 31.3547C69.9269 30.6564 70.8801 30.3147 71.2918 30.3147C72.0435 30.3147 72.6791 30.5863 73.2065 31.1446C73.7256 31.6956 73.9899 32.3621 73.9899 33.1301C73.9899 34.9047 72.6641 36.2864 70.0115 37.2783C67.9882 38.0222 65.9334 38.4021 63.8327 38.4021C60.4521 38.4021 57.7226 37.2783 55.637 35.0379C53.5508 32.7966 52.5048 29.9821 52.5048 26.5783C52.5048 23.3365 53.5899 20.5688 55.7607 18.2592C57.9238 15.9474 60.615 14.7926 63.8245 14.7926C66.8097 14.7926 69.3063 15.886 71.3073 18.0722C73.307 20.2593 74.3153 22.8642 74.3153 25.8812ZM67.8335 24.2519C67.8021 23.2591 67.3448 22.3601 66.4608 21.5452C65.5767 20.7316 64.639 20.329 63.6462 20.329C62.6229 20.329 61.6688 20.7316 60.7852 21.5452C59.9016 22.3601 59.4589 23.2591 59.4589 24.2519H67.8335ZM96.0952 34.5712C96.0952 35.518 95.7927 36.316 95.1884 36.983C94.5756 37.6427 93.808 37.9762 92.8698 37.9762C90.6058 37.9762 89.4733 36.1772 89.4733 32.5873C89.4733 31.8971 89.5202 30.8119 89.613 29.3155C89.714 27.8263 89.7608 26.7334 89.7608 26.0432C89.7608 22.2354 88.5278 20.329 86.07 20.329C83.6117 20.329 82.3868 22.2354 82.3868 26.0432C82.3868 26.7334 82.4255 27.8263 82.4951 29.3155C82.5729 30.8119 82.6116 31.8971 82.6116 32.5873C82.6116 36.1772 81.495 37.9762 79.2624 37.9762C78.3238 37.9762 77.5566 37.6427 76.9515 36.983C76.3391 36.316 76.0365 35.518 76.0365 34.5712V18.5772C76.0365 17.6373 76.3391 16.8401 76.9515 16.1963C77.5566 15.5447 78.3319 15.2198 79.2701 15.2198C80.8207 15.2198 81.8982 15.9083 82.5029 17.2819C83.5498 15.6225 85.4025 14.7926 88.0546 14.7926C90.5125 14.7926 92.4667 15.4433 93.9008 16.7382C95.3664 18.1272 96.0952 20.0337 96.0952 22.4611V34.5712ZM116.432 33.8822C116.432 35.3473 115.481 36.5099 113.572 37.3638C112.053 38.0532 110.448 38.4021 108.757 38.4021C105.492 38.4021 102.841 37.2233 100.794 34.875C98.8325 32.6338 97.8479 29.8652 97.8479 26.5783C97.8479 23.2823 98.8479 20.4996 100.856 18.2196C102.864 15.9328 105.492 14.7926 108.757 14.7926C110.641 14.7926 112.262 15.0716 113.611 15.6225C115.494 16.3669 116.432 17.5294 116.432 19.1114C116.432 19.9095 116.185 20.6152 115.688 21.228C115.193 21.8327 114.556 22.143 113.781 22.143C113.253 22.143 112.494 21.9647 111.501 21.6165C110.509 21.259 109.719 21.0884 109.138 21.0884C107.594 21.0884 106.392 21.6389 105.532 22.7395C104.732 23.7323 104.33 25.004 104.33 26.5783C104.33 28.0588 104.686 29.3155 105.408 30.331C106.206 31.5176 107.33 32.1064 108.764 32.1064C109.401 32.1064 110.269 31.9203 111.377 31.5396C112.487 31.1687 113.286 30.9748 113.781 30.9748C114.503 30.9748 115.122 31.2843 115.65 31.8894C116.17 32.5018 116.432 33.1602 116.432 33.8822ZM139.996 34.5712C139.996 35.518 139.694 36.316 139.089 36.983C138.477 37.6427 137.702 37.9762 136.762 37.9762C135.351 37.9762 134.344 37.2856 133.739 35.9133C132.383 37.5731 130.529 38.4021 128.18 38.4021C125.172 38.4021 122.706 37.1382 120.798 34.6262C119.061 32.3312 118.186 29.6486 118.186 26.5783C118.186 23.508 119.061 20.8253 120.798 18.5222C122.737 16.0325 125.195 14.7926 128.18 14.7926C130.529 14.7926 132.383 15.6225 133.739 17.2819C134.344 15.9083 135.351 15.2198 136.762 15.2198C137.678 15.2198 138.446 15.5525 139.067 16.2117C139.686 16.8779 139.996 17.6614 139.996 18.5772V34.5712ZM133.514 26.5783C133.514 25.0895 133.158 23.8329 132.444 22.8169C131.615 21.6621 130.498 21.0884 129.095 21.0884C127.66 21.0884 126.544 21.6621 125.745 22.8169C125.025 23.8329 124.668 25.0895 124.668 26.5783C124.668 28.0588 125.016 29.3305 125.706 30.377C126.529 31.5318 127.66 32.1064 129.095 32.1064C130.529 32.1064 131.645 31.5318 132.444 30.377C133.158 29.3305 133.514 28.0588 133.514 26.5783ZM156.535 18.1496C156.535 19.5373 155.861 20.491 154.511 21.0101C153.263 21.4296 152.021 21.8568 150.782 22.2973C149.424 23.0735 148.75 24.5154 148.75 26.6092V34.5712C148.75 35.518 148.439 36.316 147.836 36.983C147.222 37.6427 146.447 37.9762 145.509 37.9762C144.564 37.9762 143.787 37.6427 143.184 36.983C142.57 36.316 142.268 35.518 142.268 34.5712V18.5772C142.268 17.6373 142.57 16.8401 143.175 16.1963C143.787 15.5447 144.564 15.2198 145.502 15.2198C147.052 15.2198 148.129 15.9083 148.735 17.2819C150.123 15.6225 151.612 14.7926 153.217 14.7926C154.131 14.7926 154.914 15.1253 155.566 15.7845C156.209 16.4516 156.535 17.2423 156.535 18.1496ZM173.446 18.4444C173.446 19.8863 172.88 20.7935 171.757 21.1821C171.204 21.3754 170.049 21.476 168.289 21.476V34.5712C168.289 35.518 167.979 36.316 167.375 36.983C166.761 37.6427 165.986 37.9762 165.048 37.9762C164.135 37.9762 163.358 37.6427 162.737 36.983C162.118 36.316 161.807 35.518 161.807 34.5712V21.476C160.473 21.476 159.505 21.3054 158.893 20.9728C158.056 20.5073 157.642 19.6619 157.642 18.4444C157.642 17.2277 158.07 16.3978 158.93 15.9552C159.512 15.6294 160.473 15.4596 161.807 15.4596V12.6837C161.807 9.41962 162.884 7.79165 165.048 7.79165C167.204 7.79165 168.289 9.41962 168.289 12.6837V15.4596C170.049 15.4596 171.204 15.5602 171.757 15.7536C172.88 16.1413 173.446 17.0416 173.446 18.4444ZM225.521 14.5071C225.504 12.5169 221.826 11.6136 212.306 11.6136C189.969 11.6136 184.302 10.6595 178.237 4.27783C180.788 8.10968 182.184 15.2968 205.794 14.9392C230.428 14.5597 215.4 21.2908 211.027 28.8956C218.912 21.8578 225.498 17.2189 225.521 14.536V14.5071V14.5071ZM194.132 34.9442C194.132 36.8055 192.622 38.3166 190.759 38.3166C188.89 38.3166 187.379 36.8055 187.379 34.9442C187.379 33.0751 188.89 31.5636 190.759 31.5636C192.622 31.5636 194.132 33.0751 194.132 34.9442ZM209.515 34.9442C209.515 36.8055 208.004 38.3166 206.142 38.3166C204.275 38.3166 202.762 36.8055 202.762 34.9442C202.762 33.0751 204.275 31.5636 206.142 31.5636C208.004 31.5636 209.515 33.0751 209.515 34.9442Z" fill="url(#paint0_linear_0_9331)"/>
<defs>
<linearGradient id="paint0_linear_0_9331" x1="115.5" y1="38.1169" x2="115.5" y2="4.27783" gradientUnits="userSpaceOnUse">
<stop stop-color="#04B6F0"/>
<stop offset="1" stop-color="#3ECAF0"/>
</linearGradient>
</defs>
</svg>
