<svg width="48" height="48" viewBox="0 0 48 48" fill="none" xmlns="http://www.w3.org/2000/svg">
<path d="M3 17.9333C3 12.7062 3 10.0926 4.01727 8.09609C4.91209 6.33991 6.33991 4.91209 8.09609 4.01727C10.0926 3 12.7062 3 17.9333 3H30.0667C35.2938 3 37.9074 3 39.9039 4.01727C41.6601 4.91209 43.0879 6.33991 43.9827 8.09609C45 10.0926 45 12.7062 45 17.9333V30.0667C45 35.2938 45 37.9074 43.9827 39.9039C43.0879 41.6601 41.6601 43.0879 39.9039 43.9827C37.9074 45 35.2938 45 30.0667 45H17.9333C12.7062 45 10.0926 45 8.09609 43.9827C6.33991 43.0879 4.91209 41.6601 4.01727 39.9039C3 37.9074 3 35.2938 3 30.0667V17.9333Z" fill="white"/>
<path fill-rule="evenodd" clip-rule="evenodd" d="M36 19.2174L35.9998 19.2811C35.9997 19.308 35.9994 19.3349 35.9991 19.3617C35.9997 19.3931 36 19.4246 36 19.4565C36 24.4609 32.1011 28.8907 29.4921 31.855C28.735 32.7151 28.0866 33.4519 27.6735 34.0435C26.2041 36.1478 25.4286 38.4276 25.2245 39.3043C25.2245 39.9647 24.6763 40.5 24 40.5C23.3237 40.5 22.7755 39.9647 22.7755 39.3043C22.5714 38.4276 21.7959 36.1478 20.3265 34.0435C19.9134 33.4519 19.265 32.7151 18.5079 31.855C15.8989 28.8907 12 24.4609 12 19.4565C12 19.4246 12.0003 19.3931 12.0009 19.3617C12.0003 19.3137 12 19.2656 12 19.2174C12 12.746 17.3726 7.5 24 7.5C30.6274 7.5 36 12.746 36 19.2174ZM24 23.5217C26.5698 23.5217 28.6531 21.4876 28.6531 18.9783C28.6531 16.469 26.5698 14.4348 24 14.4348C21.4302 14.4348 19.3469 16.469 19.3469 18.9783C19.3469 21.4876 21.4302 23.5217 24 23.5217Z" fill="#34A851"/>
<path d="M34.6579 13.8278C33.1885 11.0632 30.624 8.94266 27.5254 8.01416L20.6335 15.8422C21.4809 14.9753 22.6759 14.4352 24 14.4352C26.5698 14.4352 28.6531 16.4694 28.6531 18.9787C28.6531 20.0023 28.3064 20.9469 27.7214 21.7066L34.6579 13.8278Z" fill="#4285F5"/>
<path d="M18.6471 32.0133C18.6011 31.9611 18.5547 31.9084 18.5079 31.8552C16.7881 29.9012 14.5079 27.3106 13.1533 24.3383L20.3163 16.2023C19.7086 16.97 19.3469 17.933 19.3469 18.9785C19.3469 21.4878 21.4302 23.522 24 23.522C25.3017 23.522 26.4786 23 27.3232 22.1587L18.6471 32.0133Z" fill="#F9BB0E"/>
<path d="M14.8393 11.6484C13.0681 13.6903 12 16.3321 12 19.2175C12 19.2657 12.0003 19.3138 12.0009 19.3619C12.0003 19.3932 12 19.4248 12 19.4567C12 21.1623 12.4529 22.8013 13.1533 24.3382L20.3043 16.2159L14.8393 11.6484Z" fill="#E74335"/>
<path d="M27.5253 8.01382C26.4106 7.67981 25.2268 7.5 24 7.5C20.3276 7.5 17.0405 9.1108 14.8394 11.6483L20.3043 16.2157L20.3162 16.2022C20.4156 16.0766 20.5216 15.9563 20.6336 15.8416L27.5253 8.01382Z" fill="#1A73E6"/>
</svg>
