<svg  viewBox="20 16 220 50" fill="none" xmlns="http://www.w3.org/2000/svg"><defs>
<clipPath id="clip0_0_1084">
<rect width="50" height="57.5758" fill="white" transform="translate(20 12)"/>
</clipPath>
<clipPath id="clip1_0_1084">
<rect width="100" height="15.8784" fill="white" transform="translate(102 33)"/>
</clipPath>
</defs><g clip-path="url(#clip0_0_1084)">
<path d="M55.9648 18.866V62.0235C55.9648 66.8564 59.2956 69.5436 62.8308 69.5436C66.1005 69.5436 69.6967 67.2549 69.6967 62.0235V19.1929C69.6967 14.7689 66.4274 12 62.8308 12C59.2342 12 55.9648 15.055 55.9648 18.866Z" fill="#F8AB00"/>
<path d="M37.9824 40.7717V62.0235C37.9824 66.8564 41.3133 69.5435 44.8484 69.5435C48.118 69.5435 51.7144 67.2549 51.7144 62.0235V41.0987C51.7144 36.6746 48.4449 33.9058 44.8484 33.9058C41.252 33.9058 37.9824 36.9607 37.9824 40.7717Z" fill="#E37300"/>
<path d="M33.732 62.6777C33.732 66.4682 30.6566 69.5436 26.866 69.5436C23.0754 69.5436 20 66.4682 20 62.6777C20 58.8871 23.0754 55.8118 26.866 55.8118C30.6566 55.8118 33.732 58.8871 33.732 62.6777Z" fill="#E37300"/>
</g><g clip-path="url(#clip1_0_1084)">
<path d="M162.169 38.5609L163.56 42.2116H160.865L162.169 38.5609ZM161.648 37.344L158.605 45.3406H159.736L160.518 43.1676H163.908L164.69 45.3406H165.82L162.778 37.344H161.648H161.648ZM178.075 45.3406H179.118V37.344H178.075V45.3406ZM167.38 40.6467C167.728 40.1251 168.423 39.6906 169.119 39.6906C170.51 39.6906 171.205 40.6467 171.205 42.0376V45.4274H170.162V42.2112C170.162 41.0812 169.554 40.647 168.772 40.647C167.902 40.647 167.294 41.5163 167.294 42.2984V45.3406H166.251V39.7778H167.294L167.381 40.647L167.38 40.6467ZM172.075 43.6893C172.075 42.4724 173.205 41.7771 174.509 41.7771C175.291 41.7771 175.813 41.9511 175.986 42.1251V41.9511C175.986 41.0818 175.291 40.647 174.596 40.647C173.988 40.647 173.466 40.9078 173.292 41.4295L172.338 40.9943C172.512 40.4727 173.207 39.6903 174.602 39.6903C175.906 39.6903 177.036 40.4727 177.036 42.0372V45.3403H176.079V44.5541H175.993C175.732 44.9886 175.123 45.5102 174.167 45.5102C173.037 45.5102 172.081 44.8149 172.081 43.6849L172.075 43.6893ZM175.993 42.9896C175.993 42.9896 175.558 42.6416 174.689 42.6416C173.646 42.6416 173.211 43.2497 173.211 43.6845C173.211 44.2926 173.819 44.5538 174.341 44.5538C175.123 44.5538 175.992 43.8585 175.992 42.9896" fill="#757575"/>
<path fill-rule="evenodd" clip-rule="evenodd" d="M180.593 47.7737L181.81 44.9021L179.637 39.8609H180.68L182.331 43.6852L183.982 39.8609H185.025L181.636 47.7737H180.593H180.593ZM195.89 41.6899C195.629 40.994 195.021 40.5598 194.413 40.5598C193.543 40.5598 192.761 41.3423 192.761 42.472C192.761 43.6017 193.544 44.3842 194.413 44.3842C195.021 44.3842 195.63 43.9497 195.89 43.3413L196.76 43.8629C196.325 44.819 195.456 45.4271 194.413 45.4271C192.935 45.4271 191.718 44.123 191.718 42.472C191.718 40.7335 192.935 39.5166 194.413 39.5166C195.456 39.5166 196.325 40.1247 196.76 41.0808L195.89 41.6889L195.89 41.6899Z" fill="#757575"/>
<path d="M199.628 45.5143C201.018 45.5143 201.714 44.7319 201.714 43.7758C201.714 41.6896 198.671 42.4717 198.671 41.2555C198.671 40.821 199.019 40.5602 199.628 40.5602C200.236 40.5602 200.844 40.821 201.105 41.2555L201.713 40.6474C201.365 40.2129 200.409 39.6045 199.54 39.6045C198.236 39.6045 197.541 40.3869 197.541 41.343C197.541 43.342 200.67 42.6471 200.67 43.69C200.67 44.2116 200.322 44.5592 199.628 44.5592C198.933 44.5592 198.585 44.1248 198.237 43.69L197.455 44.2981C197.976 44.8197 198.759 45.515 199.628 45.515V45.5143ZM189.719 45.3403H190.762V39.7778H189.719V45.3406V45.3403Z" fill="#757575"/>
<path fill-rule="evenodd" clip-rule="evenodd" d="M190.153 37.0833C190.587 37.0833 190.848 37.4312 190.848 37.7785C190.848 38.213 190.5 38.4738 190.153 38.4738C189.805 38.4738 189.458 38.1258 189.458 37.7785C189.458 37.4312 189.805 37.0833 190.153 37.0833ZM188.675 44.4718L188.849 45.2542H187.806C186.85 45.2542 186.416 44.5589 186.416 43.5157V40.8211H185.373V39.7782H186.416V38.1268H187.459V39.7782H188.676V40.8211H187.459V43.6927C187.459 44.4751 188.067 44.4751 188.676 44.4751L188.675 44.4718Z" fill="#757575"/>
<path d="M124.616 40.5597V41.8638H127.658C127.571 42.5591 127.31 43.0807 126.963 43.428C126.528 43.8624 125.833 44.3841 124.616 44.3841C122.79 44.3841 121.313 42.9064 121.313 40.9942C121.313 39.1689 122.79 37.6043 124.616 37.6043C125.659 37.6043 126.354 38.0388 126.879 38.4736L127.748 37.6043C126.966 36.9091 126.01 36.3003 124.619 36.3003C122.099 36.3003 119.926 38.3864 119.926 40.907C119.926 43.4276 122.095 45.5135 124.616 45.5135C126.007 45.5135 127.05 45.079 127.832 44.2094C128.701 43.3401 128.962 42.2104 128.962 41.254C128.962 40.9932 128.962 40.6459 128.875 40.4716H124.619L124.616 40.5597ZM132.351 39.5202C130.7 39.5202 129.396 40.7371 129.396 42.4756C129.396 44.2141 130.7 45.4307 132.351 45.4307C134.003 45.4307 135.307 44.1266 135.307 42.4756C135.307 40.7371 134.003 39.5202 132.351 39.5202ZM132.351 44.3006C131.482 44.3006 130.7 43.5182 130.7 42.4753C130.7 41.4324 131.483 40.6499 132.351 40.6499C133.22 40.6499 134.003 41.3452 134.003 42.4753C134.003 43.6053 133.22 44.3006 132.351 44.3006ZM146.606 40.1283C146.258 39.7803 145.737 39.433 144.955 39.433C143.477 39.433 142.173 40.7371 142.173 42.3885C142.173 44.0398 143.477 45.3435 144.955 45.3435C145.65 45.3435 146.259 44.9955 146.519 44.6483H146.606V45.0827C146.606 46.2128 145.998 46.8212 145.042 46.8212C144.259 46.8212 143.738 46.2131 143.564 45.7783L142.434 46.2128C142.782 46.9952 143.651 47.9513 145.041 47.9513C146.606 47.9513 147.913 47.082 147.913 44.8222V39.4337H146.696V40.129L146.606 40.1283ZM145.128 44.3006C144.259 44.3006 143.564 43.5182 143.564 42.4753C143.564 41.4324 144.26 40.6499 145.128 40.6499C145.997 40.6499 146.693 41.4324 146.693 42.4753C146.693 43.5182 145.997 44.3006 145.128 44.3006ZM138.783 39.5202C137.132 39.5202 135.828 40.7371 135.828 42.4756C135.828 44.2141 137.132 45.4307 138.783 45.4307C140.435 45.4307 141.739 44.1266 141.739 42.4756C141.825 40.7371 140.435 39.5202 138.783 39.5202ZM138.783 44.3006C137.914 44.3006 137.132 43.5182 137.132 42.4753C137.132 41.4324 137.914 40.6499 138.783 40.6499C139.652 40.6499 140.435 41.3452 140.435 42.4753C140.435 43.6053 139.652 44.3006 138.783 44.3006ZM148.866 36.3878H150.17V45.4273H148.866V36.3878ZM153.734 44.2972C153.038 44.2972 152.603 43.9493 152.256 43.428L156.254 41.7766L156.08 41.4287C155.819 40.7334 155.037 39.5165 153.56 39.5165C151.996 39.5165 150.778 40.7334 150.778 42.4719C150.778 44.1233 152.083 45.427 153.734 45.427C155.124 45.427 155.907 44.5577 156.254 44.1229L155.211 43.4276C154.863 43.9493 154.429 44.2969 153.734 44.2969V44.2972ZM153.647 40.6466C154.168 40.6466 154.603 40.9074 154.777 41.3418L152.082 42.4719C152.082 41.1678 152.951 40.6466 153.646 40.6466H153.647Z" fill="#757575"/>
<path d="M112.133 34.903V46.7173C112.133 48.0392 113.046 48.7759 114.012 48.7759C114.907 48.7759 115.892 48.1493 115.892 46.7173V34.9925C115.892 33.7806 114.997 33.0234 114.012 33.0234C113.028 33.0234 112.133 33.8585 112.133 34.903Z" fill="#F9AB00"/>
<path d="M107.209 40.8998V46.7175C107.209 48.0394 108.122 48.776 109.089 48.776C109.984 48.776 110.968 48.1495 110.968 46.7175V40.9893C110.968 39.7775 110.073 39.0203 109.089 39.0203C108.104 39.0203 107.209 39.8553 107.209 40.8998Z" fill="#E37400"/>
<path d="M104.167 48.776C105.205 48.776 106.046 47.9344 106.046 46.8964C106.046 45.8584 105.205 45.0168 104.167 45.0168C103.129 45.0168 102.287 45.8584 102.287 46.8964C102.287 47.9344 103.129 48.776 104.167 48.776Z" fill="#E37400"/>
</g></svg>