<svg width="172" height="69" viewBox="0 0 172 69" fill="none" xmlns="http://www.w3.org/2000/svg">
<path d="M151.811 7.19125C157.932 7.19125 162.403 8.45451 165.609 9.91213L162.937 19.7753C160.751 18.7064 156.912 17.2002 151.616 17.2002C146.32 17.2002 143.745 19.581 143.745 22.399C143.745 25.8487 146.757 27.4035 153.754 30.0272C163.277 33.5741 167.796 38.5299 167.699 46.1581C167.699 55.2439 160.702 62.9207 145.883 62.9207C139.712 62.9207 133.639 61.3173 130.578 59.6168L133.056 49.5106C136.36 51.1626 141.413 52.8631 146.612 52.8631C152.248 52.8631 155.212 50.5795 155.212 47.0327C155.212 43.6316 152.685 41.7367 146.174 39.4045C138.4 36.6836 133.007 32.6509 131.647 26.5289V42.2226C131.647 57.5761 124.262 62.9693 112.406 62.9693C109.588 62.9693 105.944 62.4834 103.515 61.706L104.875 51.8428C106.576 52.4259 108.714 52.8146 111.143 52.8146C116.293 52.8146 119.5 50.4824 119.5 42.0768V8.06582H131.695V20.2612C133.299 12.6816 140.587 7.19125 151.811 7.19125ZM20.8197 7.67712C28.3507 7.67712 33.7438 9.13473 37.3393 12.0014C40.4003 14.4307 42.5867 18.3177 43.024 22.8849H65.2769L69.1153 29.3956C70.2328 31.3876 71.3017 33.3797 72.322 35.226H72.4678C73.5367 33.1368 74.5084 31.1447 75.5288 29.2012L78.9784 22.8849H102.154V62.1433H78.5897L74.6542 55.0981C73.5367 53.1547 72.5649 51.1626 71.5932 49.1705H71.3503C70.3785 51.2598 69.3582 53.1547 68.3865 55.0981L64.6938 62.1433H41.6635V32.0679C40.8376 34.1085 39.6715 35.9062 38.1167 37.3638C33.9868 41.2994 27.8162 43.0485 20.5767 43.0485C18.9734 43.0485 17.5157 42.9514 16.3982 42.8056V62.0947H4.30005V8.79462C8.08984 8.16299 13.3858 7.67712 20.8197 7.67712ZM89.9591 26.1888L79.3186 41.5909L89.9591 58.3535V26.1888ZM53.8589 26.1888V58.3049L64.6452 42.174L53.8589 26.1888ZM21.4513 16.9087C18.9734 16.9087 17.2728 17.1516 16.3982 17.3945V33.2825C17.4186 33.5255 18.7304 33.6226 20.4796 33.6226C26.9902 33.6226 30.9744 30.3673 30.9744 24.8284C30.9744 19.8725 27.5247 16.9087 21.4513 16.9087ZM47.7855 5.83081C51.7211 5.83081 54.199 8.45451 54.2476 12.0014C54.2476 15.3539 51.7211 18.0748 47.6883 18.0748C43.85 18.0748 41.2748 15.3539 41.372 12.0014C41.2748 8.45451 43.85 5.83081 47.7855 5.83081ZM96.0811 5.83081C100.017 5.83081 102.495 8.45451 102.543 12.0014C102.543 15.3539 100.017 18.0748 95.9839 18.0748C92.1456 18.0748 89.5704 15.3539 89.6676 12.0014C89.5704 8.45451 92.1455 5.83081 96.0811 5.83081Z" fill="#EA1E63"/>
</svg>
