<svg width="184" height="65" viewBox="0 0 184 65" fill="none" xmlns="http://www.w3.org/2000/svg">
<path d="M114.757 18.4538C109.185 18.6198 104.815 23.3385 104.815 28.917V41.6537C104.815 41.9554 105.06 42.2 105.361 42.2H108.449C108.75 42.2 108.995 41.9554 108.995 41.6537V28.8711C108.995 25.5935 111.501 22.79 114.764 22.6283C118.117 22.4632 120.969 25.0472 121.134 28.4002C121.134 28.5018 121.142 28.6023 121.142 28.7028V41.6603C121.142 41.962 121.386 42.2065 121.688 42.2065H124.774C125.076 42.2065 125.321 41.962 125.321 41.6603V28.7061C125.313 23.0351 120.71 18.4438 115.039 18.4505C114.946 18.4494 114.85 18.4505 114.757 18.4538ZM140.815 18.5696C135.502 18.3302 130.68 21.6567 129.017 26.708C127.353 31.7593 129.256 37.3002 133.672 40.264C138.087 43.2278 143.936 42.8898 147.981 39.437V41.6461C147.981 41.9478 148.226 42.1923 148.527 42.1923H151.617C151.919 42.1923 152.163 41.9478 152.163 41.6461V30.6606C152.157 24.2693 147.199 18.8427 140.815 18.5696ZM140.299 38.1019C137.191 38.1032 134.388 36.2319 133.197 33.3607C132.007 30.4894 132.663 27.1836 134.86 24.9849C137.057 22.7862 140.363 22.1276 143.235 23.3162C146.107 24.5048 147.98 27.3065 147.981 30.4148C147.978 34.6569 144.541 38.0959 140.299 38.1019ZM168.05 18.5707C162.737 18.3313 157.915 21.6578 156.251 26.7091C154.588 31.7604 156.491 37.3013 160.907 40.2651C165.322 43.2289 171.171 42.8909 175.216 39.4381V44.1272C175.216 48.4351 171.691 52.0951 167.383 52.0164C164.944 51.9784 162.67 50.7765 161.265 48.7825C161.098 48.5543 160.784 48.4933 160.544 48.6427L157.922 50.2684C157.798 50.3452 157.71 50.4682 157.678 50.6102C157.645 50.7521 157.67 50.9013 157.748 51.0244C157.752 51.0321 157.757 51.0394 157.762 51.0462C159.919 54.2118 163.479 56.1311 167.309 56.1921C173.957 56.3188 179.4 50.7447 179.4 44.0944V30.6727C179.397 24.2693 174.439 18.8427 168.055 18.5696L168.05 18.5707ZM167.537 38.1019C164.429 38.1023 161.626 36.2303 160.437 33.3586C159.247 30.487 159.904 27.1814 162.102 24.9834C164.3 22.7853 167.605 22.1276 170.477 23.317C173.349 24.5064 175.221 27.3087 175.221 30.417C175.216 34.6588 171.779 38.0965 167.537 38.1019ZM68.5035 18.5696C63.1911 18.3316 58.3697 21.6589 56.7075 26.7102C55.0453 31.7614 56.9487 37.3016 61.3644 40.2648C65.78 43.228 71.6283 42.8896 75.6727 39.437V44.1261C75.6727 48.434 72.1482 52.0962 67.8393 52.0153C65.4003 51.9768 63.1266 50.775 61.7211 48.7814C61.5547 48.5527 61.2398 48.4917 61 48.6416L58.3779 50.2673C58.254 50.3439 58.1658 50.4669 58.1329 50.6088C58.1001 50.7508 58.1254 50.9 58.2031 51.0233C58.2086 51.0309 58.2129 51.0386 58.2184 51.0451C60.3698 54.2083 63.9237 56.1293 67.7486 56.1964C74.3977 56.3232 79.8407 50.7491 79.8407 44.0988V30.6727C79.8484 24.2693 74.8905 18.8427 68.5035 18.5696ZM67.9878 38.1019C63.7436 38.1019 60.303 34.6612 60.303 30.417C60.303 26.1728 63.7436 22.7321 67.9878 22.7321C72.2321 22.7321 75.6727 26.1728 75.6727 30.417C75.6673 34.659 72.2298 38.0965 67.9878 38.1019ZM51.7091 18.7236L48.6194 18.7717C48.3245 18.777 48.087 19.0154 48.083 19.3103V31.633C48.0793 34.99 45.3556 37.7088 41.9986 37.7064C41.9003 37.7064 41.8031 37.7064 41.7047 37.6987C38.4424 37.5392 35.9373 34.7227 35.9373 31.456V19.3289C35.9373 19.0272 35.6927 18.7826 35.391 18.7826H32.3035C32.0018 18.7826 31.7572 19.0272 31.7572 19.3289V31.421C31.7572 36.993 36.1274 41.7193 41.6993 41.8853C47.3687 42.0457 52.0947 37.5799 52.2553 31.9105C52.2553 31.8198 52.2553 31.7302 52.2553 31.6396V19.2666C52.2553 18.9649 52.0108 18.7203 51.7091 18.7203V18.7236ZM93.127 28.4264C90.1007 27.5852 88.2631 26.958 88.2631 25.3192C88.2631 22.9484 90.8568 22.0886 92.6004 22.0886C94.5889 22.0886 95.7928 22.5464 97.3573 23.5089C97.6093 23.6599 97.9356 23.5846 98.0959 23.3385L99.5293 21.1152C99.6912 20.8622 99.6185 20.5259 99.3665 20.3624L99.3501 20.3526C97.2703 19.0953 94.8855 18.4325 92.4551 18.4363C88.522 18.4363 84.4731 21.0256 84.4731 25.3575C84.4731 29.7801 88.4062 30.842 91.8652 31.7794C95.1428 32.6643 97.1268 33.3505 97.1268 35.4153C97.1268 37.312 95.1777 38.7432 92.595 38.7432C90.1084 38.7432 88.0741 37.6201 86.6953 36.5581C86.4634 36.3768 86.129 36.4147 85.9436 36.6434L84.2415 38.7192C84.0535 38.9525 84.0886 39.2937 84.3201 39.4839C86.5576 41.3609 89.5381 42.3879 92.7807 42.3879C97.4895 42.3879 100.905 39.3965 100.905 35.2733C100.916 30.5907 96.5915 29.3889 93.1238 28.4253L93.127 28.4264ZM17.8514 18.6384C14.5764 18.2516 11.2887 19.2514 8.78341 21.396V8.74768C8.78341 8.44599 8.53884 8.20142 8.23714 8.20142C8.13847 8.20142 8.04172 8.22873 7.95746 8.28008L4.86012 10.1636C4.69849 10.263 4.6001 10.4393 4.6001 10.629V30.1756C4.6001 36.5723 9.55802 41.9946 15.9417 42.2677C22.3064 42.5296 27.7417 37.7179 28.2537 31.3684C28.7657 25.019 24.1715 19.3986 17.8471 18.6373L17.8514 18.6384ZM16.4596 38.1019C12.2153 38.1019 8.77467 34.6612 8.77467 30.417C8.77467 26.1728 12.2153 22.7321 16.4596 22.7321C20.7038 22.7321 24.1444 26.1728 24.1444 30.417C24.1447 32.4553 23.3352 34.4101 21.8939 35.8514C20.4527 37.2926 18.4978 38.1022 16.4596 38.1019Z" fill="#000D47"/>
</svg>
