<svg width="48" height="48" viewBox="0 0 48 48" fill="none" xmlns="http://www.w3.org/2000/svg">
<g filter="url(#filter0_d_0_5938)">
<rect x="3" y="6" width="42" height="36" rx="1" fill="#283544"/>
</g>
<path fill-rule="evenodd" clip-rule="evenodd" d="M25.8227 6H43.7321C44.3661 6 44.8416 6.43374 45.0001 7.15663V40.8434C45.0001 41.4217 44.3661 42 43.7321 42H29.151C28.517 39.9759 28.2001 37.9518 27.8831 35.9278C31.6869 35.2049 35.1736 33.4699 37.551 30.7229C38.3435 29.5663 36.917 28.8434 36.2831 29.5663C34.5397 32.1687 31.2114 33.759 27.7246 34.3373C27.2491 28.5542 27.7246 23.9277 27.7246 23.9277H21.5435C21.5435 23.9277 21.5435 14.6747 25.8227 6ZM33.7472 19.5904C34.5397 19.5904 35.0152 19.012 35.0152 18.4337V16.1205C35.0152 15.3976 34.3812 14.9639 33.7472 14.9639C32.9548 14.9639 32.4793 15.5422 32.4793 16.1205V18.4337C32.4793 19.1566 33.1133 19.5904 33.7472 19.5904Z" fill="url(#paint0_linear_0_5938)"/>
<path fill-rule="evenodd" clip-rule="evenodd" d="M23.9208 36.2169C18.6906 36.2169 13.4604 34.3373 10.2906 30.7229C9.49812 29.5663 10.9245 28.8434 11.5585 29.5663C14.0943 32.8916 19.0076 34.6265 23.9208 34.6265C25.0547 34.6265 26.4566 34.4819 26.4566 34.4819C25.9811 30.4337 26.1396 26.8193 26.2981 25.0843H20.2755V23.9277C20.2755 23.9277 20.2755 14.6747 24.5547 6H4.26792C3.47547 6 3 6.57831 3 7.15663V40.8434C3 41.4217 3.63396 42 4.26792 42H27.75C27.6749 41.6844 27.5996 41.3777 27.5255 41.0753C27.1384 39.4964 26.7808 38.0377 26.6151 36.0723C26.6151 36.0723 24.7734 36.2169 23.9208 36.2169ZM14.0943 14.9639C13.3019 14.9639 12.8264 15.5422 12.8264 16.1205V18.4337C12.8264 19.0121 13.4604 19.4458 14.0943 19.4458C14.7283 19.4458 15.3623 19.0121 15.3623 18.4337V16.1205C15.3623 15.5422 14.8868 14.9639 14.0943 14.9639Z" fill="url(#paint1_linear_0_5938)"/>
<defs>
<filter id="filter0_d_0_5938" x="2" y="5.5" width="44" height="38" filterUnits="userSpaceOnUse" color-interpolation-filters="sRGB">
<feFlood flood-opacity="0" result="BackgroundImageFix"/>
<feColorMatrix in="SourceAlpha" type="matrix" values="0 0 0 0 0 0 0 0 0 0 0 0 0 0 0 0 0 0 127 0" result="hardAlpha"/>
<feOffset dy="0.5"/>
<feGaussianBlur stdDeviation="0.5"/>
<feColorMatrix type="matrix" values="0 0 0 0 0 0 0 0 0 0 0 0 0 0 0 0 0 0 0.25 0"/>
<feBlend mode="normal" in2="BackgroundImageFix" result="effect1_dropShadow_0_5938"/>
<feBlend mode="normal" in="SourceGraphic" in2="effect1_dropShadow_0_5938" result="shape"/>
</filter>
<linearGradient id="paint0_linear_0_5938" x1="33.2718" y1="6" x2="33.2718" y2="42" gradientUnits="userSpaceOnUse">
<stop stop-color="#F7F6F7"/>
<stop offset="1" stop-color="#D9E4F0"/>
</linearGradient>
<linearGradient id="paint1_linear_0_5938" x1="15.375" y1="6" x2="15.375" y2="42" gradientUnits="userSpaceOnUse">
<stop stop-color="#2FD4FB"/>
<stop offset="1" stop-color="#2777EE"/>
</linearGradient>
</defs>
</svg>
