<svg  viewBox="95 25 150 32" fill="none" xmlns="http://www.w3.org/2000/svg"><defs>
<clipPath id="clip0_0_1727">
<rect width="50" height="30.7692" fill="white" transform="translate(20 26)"/>
</clipPath>
<clipPath id="clip1_0_1727">
<rect width="100" height="18.1624" fill="white" transform="translate(98 32)"/>
</clipPath>
</defs><g clip-path="url(#clip0_0_1727)">
<path d="M26.2066 56.2457C25.1036 56.2481 24.0198 55.9577 23.0659 55.4042C22.1119 54.8506 21.322 54.0537 20.7768 53.0949C20.24 52.143 19.9722 51.0628 20.0023 49.9703C20.0323 48.8778 20.359 47.814 20.9474 46.8929L32.1291 29.3338C32.7014 28.3901 33.5139 27.6152 34.4837 27.0883C35.4535 26.5614 36.5457 26.3013 37.6488 26.3346C38.7512 26.361 39.8267 26.6799 40.7654 27.2585C41.704 27.837 42.4721 28.6546 42.991 29.6276C44.0333 31.5986 43.9031 33.9699 42.6546 35.8201L31.48 53.3792C30.9133 54.2622 30.1329 54.988 29.211 55.489C28.2892 55.9901 27.2558 56.2504 26.2066 56.2457Z" fill="#F62B54"/>
<path d="M45.3866 56.2457C43.1314 56.2457 41.0561 55.0399 39.9664 53.102C39.4307 52.1526 39.1636 51.0753 39.1937 49.9856C39.2237 48.8959 39.5498 47.835 40.137 46.9165L51.2973 29.3977C51.8612 28.4408 52.6708 27.6521 53.6422 27.1135C54.6137 26.5748 55.7115 26.3059 56.8218 26.3346C59.0961 26.3843 61.1572 27.6565 62.1995 29.6465C63.2348 31.6364 63.0831 34.022 61.7968 35.8675L50.6388 53.3863C50.0738 54.2656 49.2966 54.9884 48.3786 55.4881C47.4607 55.9879 46.4318 56.2484 45.3866 56.2457Z" fill="#FFCC00"/>
<path d="M64.1375 56.3923C67.3169 56.3923 69.8943 53.8691 69.8943 50.7565C69.8943 47.6439 67.3169 45.1206 64.1375 45.1206C60.9582 45.1206 58.3809 47.6439 58.3809 50.7565C58.3809 53.8691 60.9582 56.3923 64.1375 56.3923Z" fill="#00CA72"/>
</g><g clip-path="url(#clip1_0_1727)">
<path d="M100.069 46.3553C99.7012 46.3562 99.3399 46.2593 99.022 46.0748C98.704 45.8903 98.4407 45.6247 98.2589 45.3051C98.08 44.9878 97.9907 44.6277 98.0008 44.2635C98.0108 43.8994 98.1197 43.5448 98.3158 43.2377L102.043 37.3847C102.234 37.0701 102.505 36.8118 102.828 36.6362C103.151 36.4606 103.515 36.3739 103.883 36.385C104.25 36.3938 104.609 36.5001 104.922 36.6929C105.235 36.8858 105.491 37.1583 105.664 37.4826C106.011 38.1396 105.968 38.9301 105.552 39.5468L101.827 45.3999C101.638 45.6942 101.378 45.9361 101.07 46.1031C100.763 46.2702 100.419 46.3569 100.069 46.3553Z" fill="#F62B54"/>
<path d="M106.462 46.3553C105.71 46.3553 105.018 45.9534 104.655 45.3074C104.476 44.991 104.387 44.6319 104.397 44.2686C104.407 43.9054 104.516 43.5518 104.712 43.2456L108.432 37.406C108.62 37.087 108.89 36.8241 109.213 36.6446C109.537 36.4651 109.903 36.3754 110.273 36.385C111.031 36.4015 111.718 36.8256 112.066 37.4889C112.411 38.1523 112.36 38.9474 111.932 39.5626L108.212 45.4022C108.024 45.6953 107.765 45.9363 107.459 46.1028C107.153 46.2694 106.81 46.3562 106.462 46.3553Z" fill="#FFCC00"/>
<path d="M112.712 46.4045C113.772 46.4045 114.631 45.5634 114.631 44.5258C114.631 43.4883 113.772 42.6472 112.712 42.6472C111.652 42.6472 110.793 43.4883 110.793 44.5258C110.793 45.5634 111.652 46.4045 112.712 46.4045Z" fill="#00CA72"/>
<path d="M196.074 42.7562C196.654 42.7562 197 43.1684 197 43.8436V46.1573H197.788V43.7907C197.788 42.6425 197.247 41.9768 196.23 41.9768C195.832 41.9768 195.2 42.0858 194.823 42.8178C194.736 42.6019 194.591 42.4137 194.405 42.2733C194.219 42.1329 193.999 42.0454 193.767 42.0202C193.622 41.9935 193.473 41.9848 193.325 41.9942C193.001 42.0202 192.425 42.2216 192.209 42.678V42.0645H191.421V46.1573H192.209V43.9486C192.209 43.0895 192.772 42.7562 193.335 42.7562C193.862 42.7562 194.209 43.1597 194.209 43.8349V46.1573H194.992V43.9486C194.992 43.2648 195.403 42.7483 196.074 42.7562ZM188.529 45.4735C188.889 45.4814 189.236 45.3376 189.488 45.077C189.741 44.8165 189.875 44.4619 189.862 44.0979C189.862 43.2734 189.255 42.7562 188.529 42.7562C187.801 42.7562 187.196 43.2734 187.196 44.0979C187.182 44.4611 187.316 44.8149 187.567 45.0747C187.818 45.3353 188.164 45.4798 188.522 45.4735H188.529ZM188.529 46.241C187.377 46.241 186.416 45.3906 186.416 44.0931C186.416 42.7957 187.377 41.9721 188.529 41.9721C189.68 41.9721 190.649 42.7957 190.649 44.0931C190.649 45.3906 189.674 46.245 188.523 46.245L188.529 46.241ZM182.361 44.0931L182.354 44.0979C182.354 42.8004 183.34 41.9768 184.499 41.9721C184.79 41.9664 185.079 42.022 185.348 42.1352C185.616 42.2484 185.858 42.4166 186.057 42.6291L185.46 43.1376C185.333 43.0131 185.183 42.915 185.018 42.8488C184.853 42.7827 184.677 42.7498 184.499 42.7523C183.773 42.7523 183.141 43.2695 183.141 44.0931C183.141 44.6498 183.472 45.1513 183.979 45.3645C184.487 45.5777 185.072 45.4592 185.46 45.066L186.066 45.5745C185.866 45.7892 185.623 45.9594 185.353 46.0742C185.083 46.1891 184.792 46.2459 184.499 46.241C183.348 46.241 182.361 45.3906 182.361 44.0931ZM179.84 45.3716C179.839 45.3 179.852 45.229 179.879 45.1626C179.906 45.0962 179.945 45.0356 179.995 44.9845C180.045 44.9333 180.105 44.8924 180.17 44.8643C180.236 44.8362 180.307 44.8212 180.379 44.8204C180.45 44.8212 180.521 44.8362 180.586 44.8643C180.652 44.8924 180.712 44.9333 180.762 44.9845C180.812 45.0356 180.851 45.0962 180.878 45.1626C180.905 45.229 180.918 45.3 180.917 45.3716C180.91 45.5102 180.85 45.6409 180.75 45.737C180.65 45.8331 180.517 45.8874 180.379 45.8888C180.24 45.8874 180.107 45.8331 180.007 45.737C179.907 45.6409 179.847 45.5102 179.84 45.3716Z" fill="#333333"/>
<path fill-rule="evenodd" clip-rule="evenodd" d="M181.995 36.8612H179.191L177.226 41.9285L175.271 36.8612H172.467L175.875 44.8684L173.755 50.1624H176.539L181.995 36.8612ZM164.942 41.3149C164.942 42.5942 166.06 43.436 167.158 43.436C168.238 43.436 169.298 42.6526 169.298 41.3141C169.298 39.9757 168.238 39.1915 167.158 39.1915C166.06 39.1915 164.942 40.0341 164.942 41.3141V41.3149ZM169.298 45.786V44.7729C168.73 45.6336 167.403 45.959 166.722 45.959C164.469 45.959 162.214 44.1822 162.214 41.3141C162.214 38.4469 164.468 36.6701 166.722 36.6701C167.29 36.6701 168.617 36.8596 169.298 37.8546V36.8644H171.912V45.7876L169.298 45.7868V45.786ZM161.47 45.786H158.856V44.6774C158.42 45.4986 157.361 45.9771 156.262 45.9771C153.988 45.9771 151.98 44.1617 151.98 41.3505C151.98 38.4863 153.988 36.6685 156.262 36.6685C157.359 36.6685 158.421 37.1265 158.856 37.9486V32H161.47V45.786ZM158.8 41.2944C158.8 39.9567 157.834 39.1726 156.754 39.1726C155.636 39.1726 154.708 40.0136 154.708 41.2944C154.708 42.6163 155.636 43.4534 156.753 43.4534C157.854 43.4549 158.8 42.5753 158.8 41.2944ZM145.517 41.0638C145.517 39.7072 146.219 39.2484 147.146 39.2484C148.036 39.2484 148.681 39.8406 148.681 41.0251V45.7845H151.314V40.4526C151.314 37.9115 150.063 36.6685 148.074 36.6685C147.032 36.6685 145.99 37.2608 145.517 38.1594V36.8612H142.885V45.7845H145.517V41.0638ZM137.539 45.9377C135.039 45.9377 132.954 44.1033 132.954 41.2936C132.954 38.4824 135.037 36.6662 137.539 36.6662C140.042 36.6662 142.143 38.4824 142.143 41.2936C142.143 44.1048 140.039 45.9385 137.539 45.9385V45.9377ZM137.539 43.3397C138.637 43.3397 139.547 42.5358 139.547 41.2944C139.547 40.0902 138.638 39.2681 137.539 39.2681C137.275 39.264 137.012 39.3137 136.768 39.4143C136.523 39.5149 136.301 39.6643 136.116 39.8533C135.93 40.0433 135.784 40.2688 135.687 40.5163C135.59 40.7639 135.543 41.0285 135.55 41.2944C135.551 42.5374 136.46 43.3397 137.539 43.3397ZM128.234 39.2492C129.01 39.2492 129.692 39.8612 129.692 41.0259V45.786H132.306V40.7179C132.306 38.0236 130.996 36.6669 128.896 36.6669C128.272 36.6669 127.097 36.8565 126.245 38.2526C125.752 37.2205 124.805 36.6851 123.406 36.6851C122.92 36.6826 122.444 36.8201 122.034 37.0812C121.624 37.3422 121.298 37.7157 121.095 38.1571V36.862H118.461V45.7853H121.093V41.0638C121.093 39.7072 121.832 39.2484 122.627 39.2484C123.385 39.2484 124.066 39.8406 124.086 40.9683V45.7853H126.718V41.0638C126.718 39.7664 127.401 39.25 128.234 39.25V39.2492Z" fill="#333333"/>
</g></svg>