<svg width="263" height="46" viewBox="0 0 263 46" fill="none" xmlns="http://www.w3.org/2000/svg">
<path d="M71.8898 15.5008C75.1699 15.5008 77.5611 16.6274 79.1782 18.4821V16.1829H86.5202V40.6462H79.1782V38.347C77.5611 40.2093 75.1699 41.3283 71.8898 41.3283C65.4827 41.3283 60.1946 35.7029 60.1946 28.4145C60.1946 21.1261 65.4751 15.5008 71.8898 15.5008ZM192.336 6.39603V40.6385H184.994V38.3393C183.377 40.2017 180.986 41.3206 177.706 41.3206C171.299 41.3206 166.011 35.6953 166.011 28.4069C166.011 21.1185 171.291 15.4931 177.706 15.4931C180.986 15.4931 183.377 16.6197 184.994 18.4744V6.39603H192.336ZM139.992 15.4165C147.065 15.4165 152.752 20.9499 152.752 28.1233C152.752 35.2967 147.073 40.8301 139.992 40.8301C132.918 40.8301 127.239 35.2967 127.239 28.1233C127.239 20.9499 132.918 15.4165 139.992 15.4165ZM18.0583 5.07017C23.6836 5.07017 28.0904 7.76021 30.5811 12.8031L23.9748 16.6657C22.8022 14.2209 21.1852 12.7035 18.0583 12.7035C15.6135 12.7035 14.3872 13.9297 14.3872 15.2939C14.3872 16.8573 15.2226 17.9379 20.549 19.5473L20.8611 19.6415C21.1737 19.736 21.4882 19.8318 21.8031 19.9299L22.118 20.0289C22.1705 20.0456 22.223 20.0623 22.2755 20.0791L22.5903 20.1809C27.1516 21.6729 31.5545 23.861 31.5545 30.1619C31.5545 36.7682 26.274 40.6768 18.8323 40.6768C11.6512 40.6845 7.05285 37.2587 5.14453 32.2235L11.8965 28.3072C13.1227 31.1429 15.2226 33.0512 19.0852 33.0512C22.8022 33.0512 23.7296 31.5874 23.7296 30.2615C23.7296 28.1616 21.7753 27.3262 16.6328 25.9084C11.5516 24.4906 6.56236 22.0458 6.56236 15.4931C6.56236 8.88681 12.1417 5.07017 18.0583 5.07017ZM208.507 14.8494C215.65 14.8494 220.93 20.3751 220.93 27.7631C220.93 28.7901 220.831 29.771 220.639 30.6984H203.273C204.208 33.2505 206.453 34.1318 209.143 34.1318C211.151 34.1318 212.86 33.3501 213.841 32.2695L219.712 35.6416C217.313 38.9678 213.696 40.6768 209.044 40.6768C200.675 40.6768 195.494 35.0515 195.494 27.7631C195.494 20.4747 200.774 14.8494 208.507 14.8494ZM106.584 3.79796V11.232C103.695 10.9714 101.787 11.8528 101.787 14.8417H106.584V22.2757H101.787V40.6462H94.0462V22.2757H90.5898V14.8417H94.0462C94.0462 7.6146 98.0161 3.28447 106.584 3.79796ZM126.081 3.79796V11.232C123.192 10.9714 121.284 11.8528 121.284 14.8417H126.081V22.2757H121.284V40.6462H113.543V22.2757H110.087V14.8417H113.543C113.543 7.6146 117.513 3.28447 126.081 3.79796ZM239.071 15.6924V24.0078C236.036 23.5173 231.729 24.7435 231.729 29.5871V40.6462H224.387V16.1829H231.729V20.536C232.71 17.2558 235.99 15.6924 239.071 15.6924ZM42.4219 6.09714V40.6385H35.0186V6.09714H42.4219ZM163.022 6.20443L163.075 40.4699L163.022 40.4469H155.68V6.20443H163.022ZM73.3613 22.4443C69.9891 22.4443 67.5367 24.7435 67.5367 28.4145C67.5367 32.0856 69.9815 34.3847 73.3613 34.3847C76.7411 34.3771 79.1858 32.0779 79.1858 28.4145C79.1858 24.7435 76.7411 22.4443 73.3613 22.4443ZM179.177 22.4443C175.805 22.4443 173.353 24.7435 173.353 28.4145C173.353 32.0856 175.797 34.3847 179.177 34.3847C182.557 34.3771 185.002 32.0779 185.002 28.4145C185.002 24.7435 182.557 22.4443 179.177 22.4443ZM139.992 22.4443C136.865 22.4443 134.458 24.7052 134.458 28.1233C134.458 31.5414 136.865 33.8023 139.992 33.8023C143.118 33.8023 145.525 31.5414 145.525 28.1233C145.525 24.7052 143.118 22.4443 139.992 22.4443ZM208.461 21.3637C205.671 21.3637 203.817 22.7355 203.127 25.2263H213.65C212.868 22.3907 210.668 21.3637 208.461 21.3637Z" fill="#0A0A0A"/>
<path d="M60.509 15.9676L51.5269 28.3066L60.7543 40.6455H52.3623L44.4684 29.7397L43.4185 28.3066L51.8718 15.9676H60.509ZM249.402 15.96L257.855 28.2989L256.805 29.7321L248.912 40.6378H240.52L249.747 28.2989L240.765 15.96H249.402Z" fill="#FF6B35"/>
</svg>
