<svg  viewBox="20 16 220 50" fill="none" xmlns="http://www.w3.org/2000/svg"><defs>
<clipPath id="clip0_0_1386">
<rect width="50" height="50" fill="white" transform="translate(20 16)"/>
</clipPath>
<clipPath id="clip1_0_1386">
<rect width="100" height="35" fill="white" transform="translate(95 24)"/>
</clipPath>
</defs><g clip-path="url(#clip0_0_1386)">
<path d="M65.4832 16H24.5363C22.0363 16 20.0098 18.0265 20.0098 20.5265V61.4545C20.0098 63.9735 22.0363 66 24.5363 66H65.4643C67.9643 66 69.9908 63.9735 69.9908 61.4735V20.5265C70.0098 18.0265 67.9832 16 65.4832 16Z" fill="#FF3366"/>
<path d="M36.7133 31.7385C38.38 31.7385 39.7625 30.4317 39.7625 28.7272C39.7625 27.0226 38.361 25.7158 36.7133 25.7158C35.0466 25.7158 33.6641 27.0226 33.6641 28.7272C33.6641 30.4317 35.0656 31.7385 36.7133 31.7385Z" fill="white"/>
<path d="M30.3881 47.8561C30.2176 48.6136 30.1229 49.447 30.1229 50.1099C30.1229 52.7614 31.5623 54.5227 34.6116 54.5227C37.1494 54.5227 39.1949 53.0265 40.6722 50.5833L39.7631 54.2008H44.801L47.6797 42.6667C48.3994 39.75 49.782 38.2348 51.9032 38.2348C53.5699 38.2348 54.5926 39.2765 54.5926 40.9811C54.5926 41.4735 54.5547 42.0227 54.3654 42.5909L52.8881 47.8939C52.6608 48.6515 52.5661 49.428 52.5661 50.1477C52.5661 52.6667 54.0434 54.5038 57.1494 54.5038C59.801 54.5038 61.9032 52.7992 63.0775 48.7083L61.1078 47.9508C60.1229 50.697 59.2707 51.1894 58.5888 51.1894C57.907 51.1894 57.5472 50.7348 57.5472 49.8447C57.5472 49.447 57.6419 48.9924 57.7744 48.4432L59.2138 43.2727C59.5737 42.0606 59.7063 40.9811 59.7063 39.9962C59.7063 36.1326 57.3767 34.125 54.5358 34.125C51.8843 34.125 49.1949 36.5114 47.8502 39.0303L48.8351 34.5227H41.1457L40.0661 38.5H43.6646L41.4487 47.3636C39.7063 51.2273 36.5244 51.2841 36.1267 51.2083C35.4638 51.0568 35.0472 50.8106 35.0472 49.9583C35.0472 49.4659 35.1419 48.7652 35.3691 47.8939L38.7404 34.5227H30.1987L29.1191 38.5H32.6608L30.3881 47.8561Z" fill="white"/>
</g><g clip-path="url(#clip1_0_1386)">
<path d="M137.5 36.4H141.3L135.9 50H132.5L127 36.4H130.9L134.2 45.5L137.5 36.4ZM142.5 49.9H146.2V36.4H142.5V49.9ZM147.9 45.5H151.6C151.7 46.4 152.3 47.3 153.9 47.3C155.3 47.3 156 46.8 156 46.1C156 43.8 148.5 46 148.5 40.6C148.5 38.1 150.6 36.1 153.9 36.1C158 36.1 159.4 38.7 159.5 40.7H156C155.9 39.8 155.3 39.1 154 39.1C152.8 39.1 152.1 39.7 152.1 40.4C152.1 42.7 159.6 40.4 159.6 46C159.6 48.4 157.5 50.3 153.9 50.3C149.6 50.2 148.1 48.1 147.9 45.5ZM161.4 49.9H165.1V36.4H161.4V49.9ZM173.8 47C175.7 47 177.2 45.6 177.2 43.1C177.2 40.7 175.7 39.2 173.8 39.2C171.9 39.2 170.4 40.6 170.4 43.1C170.4 45.6 171.9 47 173.8 47ZM166.7 43.1C166.7 39.2 169.5 36 173.8 36C178.1 36 180.9 39.2 180.9 43.1C180.9 47 178.1 50.2 173.8 50.2C169.5 50.2 166.7 47 166.7 43.1ZM186 38C186.6 36.8 188 36 190 36C193.3 36 195 38.2 195 41.4V49.9H191.3V41.8C191.3 40.2 190.6 39.1 189 39.1C187.2 39.1 186.2 40.2 186.2 42.1V49.9H182.5V36.4H186V38Z" fill="#FF3366"/>
<path d="M95 58.1H129.1V24H95V58.1Z" fill="#FF3366"/>
<path d="M107 34.7C108.1 34.7 109 33.9 109 32.7C109 31.6 108.1 30.7 107 30.7C105.9 30.7 105 31.5 105 32.7C105 33.9 105.9 34.7 107 34.7ZM102.8 45.3C102.7 45.8 102.6 46.2999 102.6 46.7999C102.6 48.4999 103.5 49.7 105.5 49.7C107.2 49.7 108.5 48.7 109.5 47.1L108.9 49.5H112.2L114.1 42C114.6 40.1 115.5 39.1 116.9 39.1C118 39.1 118.7 39.8 118.7 40.9C118.7 41.2 118.7 41.6 118.6 42L117.6 45.5C117.5 46 117.4 46.5 117.4 47C117.4 48.6 118.4 49.7999 120.4 49.7999C122.1 49.7999 123.5 48.7 124.3 46L123 45.5C122.4 47.3 121.8 47.6 121.4 47.6C121 47.6 120.7 47.3 120.7 46.7C120.7 46.4 120.8 46.1 120.8 45.8L121.7 42.4C121.9 41.6 122 40.9 122 40.3C122 37.8 120.5 36.5 118.6 36.5C116.9 36.5 115.1 38.1 114.2 39.7L114.8 36.8H109.8L109.1 39.4H111.4L110 44.9C108.9 47.4 106.8 47.5 106.5 47.4C106.1 47.3 105.8 47.1 105.8 46.6C105.8 46.3 105.9 45.8 106 45.3L108.2 36.6H102.7L102 39.2H104.3L102.8 45.3Z" fill="white"/>
</g></svg>