<svg width="109" height="109" viewBox="0 0 109 109" fill="none" xmlns="http://www.w3.org/2000/svg">
<path d="M89.5844 57.1394C89.5844 56.9647 89.5364 56.8399 89.4379 56.7582C89.3288 56.6704 89.14 56.6235 88.8772 56.6235H88.4993V57.662H88.9553C89.3764 57.662 89.5844 57.4873 89.5844 57.1394ZM90.1734 59.3045H89.6542L89.3231 58.5739C89.155 58.2078 88.9753 58.0247 88.7789 58.0247H88.4993V59.3045H88.0716V56.259H88.9287C89.3098 56.259 89.5959 56.3416 89.7924 56.5137C89.9588 56.6618 90.042 56.8516 90.042 57.0879C90.042 57.2976 89.9741 57.474 89.8373 57.6203C89.7042 57.7685 89.5127 57.8683 89.2682 57.92V57.9332C89.4379 57.9731 89.6076 58.1595 89.7723 58.4956L90.1734 59.3062V59.3045ZM91.122 57.8117C91.122 57.2126 90.9174 56.7068 90.5096 56.3056C90.1002 55.9046 89.601 55.7033 89.0119 55.7033C88.4044 55.7033 87.8987 55.9046 87.4975 56.3091C87.0964 56.7151 86.8968 57.2175 86.8968 57.8117C86.8968 58.4192 87.1048 58.9267 87.5175 59.3311C87.9253 59.7355 88.4245 59.9352 89.0119 59.9352C89.5959 59.9352 90.0952 59.7338 90.5063 59.3244C90.9174 58.9216 91.122 58.4159 91.122 57.8117ZM91.4098 57.7985C91.4098 58.471 91.1786 59.035 90.7143 59.4893C90.25 59.947 89.6809 60.1749 89.0002 60.1749C88.3147 60.1749 87.7456 59.9503 87.2928 59.5093C86.8403 59.0617 86.6155 58.4992 86.6155 57.8169C86.6155 57.1495 86.8452 56.5888 87.3045 56.1279C87.7638 55.6686 88.3362 55.4389 89.0203 55.4389C89.6908 55.4389 90.2533 55.6586 90.7093 56.0962C91.1768 56.5455 91.4098 57.1113 91.4098 57.7985Z" fill="black"/>
<path d="M26.3215 66.2905H24.8455V57.8434C24.8455 57.1761 24.8895 56.364 24.968 55.4055H24.9347C24.7965 55.9663 24.67 56.3723 24.5586 56.6237L20.2685 66.2905H19.5496L15.2511 56.6936C15.1299 56.4256 15.0032 55.9945 14.875 55.4055H14.8431C14.8883 55.9097 14.9136 56.7268 14.9136 57.86V66.2905H13.4907V53.7114H15.4378L19.2969 62.483C19.5881 63.1437 19.7762 63.6463 19.8677 63.9891H19.9289C20.1801 63.3018 20.3798 62.7859 20.5313 62.4464L24.4736 53.7114H26.3207V66.2905H26.3215Z" fill="black"/>
<path d="M30.862 66.2901H29.4276V57.3071H30.862V66.2901ZM31.11 54.087C31.11 54.3517 31.0168 54.5729 30.832 54.7544C30.6507 54.9357 30.4261 55.0273 30.163 55.0273C29.9068 55.0273 29.6838 54.9394 29.5008 54.7644C29.3178 54.588 29.2278 54.3633 29.2278 54.087C29.2278 53.8274 29.3183 53.6062 29.5008 53.4264C29.6838 53.2467 29.9068 53.1602 30.163 53.1602C30.426 53.1602 30.6507 53.2467 30.832 53.4264C31.0168 53.6062 31.11 53.8274 31.11 54.087Z" fill="black"/>
<path d="M39.8264 65.8745C39.1375 66.2972 38.3154 66.5069 37.3651 66.5069C36.0772 66.5069 35.0404 66.0792 34.2483 65.2255C33.4794 64.3967 33.0918 63.3268 33.0918 62.0154C33.0918 60.5442 33.5127 59.3528 34.3614 58.4475C35.2052 57.5405 36.3401 57.0879 37.768 57.0879C38.5484 57.0879 39.2406 57.241 39.8464 57.5439V59.02C39.1758 58.549 38.4669 58.316 37.7063 58.316C36.791 58.316 36.0472 58.6355 35.4697 59.273C34.8689 59.9253 34.5644 60.7973 34.5644 61.8856C34.5644 62.9307 34.8424 63.7577 35.3949 64.3685C35.949 64.9759 36.6863 65.2805 37.6165 65.2805C38.4019 65.2805 39.1375 65.0224 39.8264 64.5083V65.8745Z" fill="black"/>
<path d="M46.6877 58.7645C46.4347 58.5699 46.0704 58.475 45.5894 58.475C45.0053 58.475 44.5143 58.7363 44.1167 59.2638C43.6656 59.8529 43.441 60.6683 43.441 61.71V66.2897H42.0032V57.3067H43.441V59.159H43.4756C43.687 58.5033 44.0132 57.999 44.4492 57.6413C44.8569 57.3152 45.3179 57.1503 45.8254 57.1503C46.2082 57.1503 46.4928 57.1916 46.6874 57.2728V58.7639L46.6877 58.7645Z" fill="black"/>
<path d="M54.7012 61.8149C54.7012 60.6651 54.4416 59.7865 53.9224 59.184C53.4182 58.6049 52.7142 58.3154 51.8074 58.3154C50.9136 58.3154 50.1965 58.6082 49.6605 59.194C49.0931 59.8197 48.8102 60.7033 48.8102 61.85C48.8102 62.925 49.0798 63.7686 49.624 64.3711C50.1648 64.9768 50.8937 65.2797 51.8074 65.2797C52.7526 65.2797 53.4764 64.9719 53.9723 64.3595C54.4582 63.7604 54.7012 62.9133 54.7012 61.8149ZM56.1756 61.7644C56.1756 63.1955 55.7713 64.3455 54.9658 65.2075C54.1571 66.0728 53.0688 66.5055 51.7008 66.5055C50.3529 66.5055 49.2795 66.0728 48.4924 65.2075C47.7219 64.3737 47.3342 63.2721 47.3342 61.9026C47.3342 60.3399 47.7718 59.135 48.6504 58.2797C49.4625 57.4859 50.5491 57.0865 51.9105 57.0865C53.2501 57.0865 54.2969 57.5042 55.0507 58.3313C55.7979 59.1634 56.1756 60.3083 56.1756 61.7644Z" fill="black"/>
<path d="M63.3062 63.8869C63.3062 64.6224 63.0317 65.2315 62.4808 65.7174C61.8801 66.2433 61.0547 66.5062 60.0163 66.5062C59.1659 66.5062 58.4203 66.3282 57.788 65.9654V64.4194C58.492 64.9919 59.269 65.2798 60.1228 65.2798C61.2611 65.2798 61.8318 64.8605 61.8318 64.025C61.8318 63.6738 61.7067 63.3827 61.4541 63.158C61.2011 62.9283 60.7102 62.6538 59.9797 62.3326C59.2275 62.0031 58.6916 61.6653 58.3755 61.3141C57.996 60.8981 57.8046 60.3573 57.8046 59.6916C57.8046 58.9461 58.1026 58.3253 58.6916 57.8312C59.2823 57.3352 60.0412 57.0872 60.9731 57.0872C61.6871 57.0872 62.3261 57.227 62.8935 57.5083V58.9561C62.3011 58.5284 61.6239 58.3154 60.855 58.3154C60.3791 58.3154 59.9963 58.4338 59.7117 58.6648C59.4239 58.9011 59.279 59.2024 59.279 59.5701C59.279 59.9679 59.4002 60.2774 59.6402 60.4987C59.8532 60.7034 60.3058 60.9531 60.9882 61.2442C61.7553 61.5655 62.3095 61.8983 62.6472 62.2394C63.0849 62.6704 63.3062 63.2196 63.3062 63.8869Z" fill="black"/>
<path d="M72.0934 61.8149C72.0934 60.6651 71.8338 59.7865 71.3129 59.184C70.8104 58.6049 70.1048 58.3154 69.1995 58.3154C68.3058 58.3154 67.5886 58.6082 67.0494 59.194C66.4836 59.8197 66.2023 60.7033 66.2023 61.85C66.2023 62.925 66.4719 63.7686 67.0111 64.3711C67.5587 64.9768 68.2876 65.2797 69.1995 65.2797C70.1463 65.2797 70.8685 64.9719 71.3645 64.3595C71.8504 63.7604 72.0934 62.9133 72.0934 61.8149ZM73.5711 61.7644C73.5711 63.1955 73.1634 64.3455 72.3563 65.2075C71.5508 66.0728 70.4625 66.5055 69.0946 66.5055C67.7451 66.5055 66.6716 66.0728 65.8845 65.2075C65.114 64.3737 64.7263 63.2721 64.7263 61.9026C64.7263 60.3399 65.1672 59.135 66.041 58.2797C66.8531 57.4859 67.9414 57.0865 69.3043 57.0865C70.6439 57.0865 71.689 57.5042 72.4412 58.3313C73.1901 59.1634 73.5711 60.3083 73.5711 61.7644Z" fill="black"/>
<path d="M79.9069 54.2549C79.624 54.0985 79.3096 54.0186 78.9517 54.0186C77.9448 54.0186 77.4456 54.6525 77.4456 55.9223V57.3069H79.5508V58.525H77.4456V66.2899H76.0062V58.525H74.4785V57.3069H76.0062V55.8508C76.0062 54.8622 76.309 54.0867 76.9248 53.5276C77.4524 53.0417 78.0979 52.8004 78.8652 52.8004C79.3096 52.8004 79.6557 52.8537 79.9069 52.9569V54.2549Z" fill="black"/>
<path d="M85.5818 66.1996C85.2424 66.3944 84.7897 66.4909 84.2306 66.4909C82.663 66.4909 81.8792 65.6072 81.8792 63.8399V58.5264H80.3382V57.3065H81.8792V55.1149C82.3385 54.97 82.8161 54.812 83.3204 54.6489V57.3065H85.5818V58.5264H83.3204V63.5953C83.3204 64.1977 83.4189 64.6287 83.6248 64.8783C83.8329 65.1363 84.1724 65.2628 84.6516 65.2628C85.0094 65.2628 85.3189 65.1669 85.5818 64.9732V66.1996Z" fill="black"/>
<path d="M7.85394 101.35C7.85394 102.054 7.60273 102.663 7.0951 103.177C6.5892 103.69 5.97508 103.948 5.25457 103.948C4.55058 103.948 3.95149 103.69 3.46064 103.177C2.96966 102.663 2.7251 102.054 2.7251 101.35C2.7251 100.626 2.96966 100.015 3.46064 99.5093C3.95149 99.0017 4.55058 98.7505 5.25457 98.7505C5.97508 98.7505 6.5892 99.0052 7.0951 99.5193C7.60273 100.034 7.85394 100.644 7.85394 101.35Z" fill="black"/>
<path d="M35.3581 103.419L18.3358 77.1304C17.938 76.498 17.5952 75.8107 17.3041 75.0602H17.1641C17.2853 75.7641 17.3473 77.2751 17.3473 79.59V103.419H13.4815V70.4373H18.4989L35.012 96.3111C35.6694 97.3378 36.1186 98.0734 36.3466 98.516H36.4385C36.2854 97.5675 36.2056 95.9499 36.2056 93.6668V70.4373H40.0481V103.419H35.3581Z" fill="black"/>
<path d="M64.8307 103.419H47.3506V70.4373H64.0718V73.9319H51.2132V84.9034H63.1283V88.3999H51.2132V99.9223H64.8307V103.419Z" fill="black"/>
<path d="M91.3447 73.9323H81.8443V103.419H77.9802V73.9323H68.4614V70.4361H91.3447V73.9323Z" fill="black"/>
<path d="M38.7366 13.4708C42.4659 24.875 43.8787 45.219 54.7837 45.219C55.6141 45.219 56.4529 45.1378 57.2949 44.9776C47.3817 42.6662 46.2068 22.5435 40.1577 12.1227C39.6834 12.5537 39.2125 13.0031 38.7366 13.4708Z" fill="url(#paint0_linear_0_8771)"/>
<path d="M40.158 12.1227C46.2071 22.5435 47.3819 42.6662 57.2952 44.9776C58.074 44.8345 58.8544 44.6182 59.6366 44.3453C50.7385 39.9853 48.2789 20.445 41.4094 11.0377C40.9933 11.3839 40.5757 11.7467 40.158 12.1227Z" fill="url(#paint1_linear_0_8771)"/>
<path d="M48.8737 5.92556C48.045 5.92556 47.2045 6.00675 46.3609 6.16693C44.1542 6.58295 41.9127 7.5331 39.6528 8.97091C40.2702 9.57997 40.8575 10.2772 41.41 11.0378C43.7082 9.13066 45.9914 7.7212 48.2664 6.8741C49.12 6.55793 49.9704 6.32002 50.8241 6.1636C50.2083 6.00701 49.5593 5.92556 48.8737 5.92556Z" fill="#14559A"/>
<path d="M66.5826 40.3264C67.4928 39.6026 68.4048 38.8021 69.3184 37.9285C65.5292 26.5774 64.1729 5.94219 53.1913 5.94219C52.4058 5.94219 51.6137 6.0154 50.8232 6.16184C60.8263 8.64978 62.1077 30.4132 66.5826 40.3264Z" fill="url(#paint2_linear_0_8771)"/>
<path d="M50.8236 6.16277C50.2079 6.00635 49.5589 5.92489 48.8733 5.92489L53.1917 5.94072C52.4062 5.94072 51.6141 6.01393 50.8236 6.16211" fill="#3092C4"/>
<path d="M66.3909 42.7378C65.9615 42.3284 65.5539 41.8791 65.1527 41.3998C63.3055 42.7078 61.465 43.6996 59.6362 44.3453C60.2868 44.6632 60.9691 44.8996 61.6931 45.046C62.2538 45.1605 62.8347 45.2191 63.4454 45.2191C65.4973 45.2191 67.1197 44.9761 68.501 44.3138C67.7405 43.9027 67.0432 43.3701 66.3909 42.7378Z" fill="#1969BC"/>
<path d="M48.2654 6.87572C57.2251 11.5619 58.0039 32.7829 65.153 41.3997C65.6322 41.062 66.1065 40.7041 66.5808 40.3263C62.106 30.4131 60.8262 8.64793 50.8248 6.16173C49.9711 6.32148 49.1191 6.55794 48.2654 6.87572Z" fill="url(#paint3_linear_0_8771)"/>
<path d="M41.4092 11.0375C48.2787 20.4449 50.7383 39.9851 59.6364 44.3451C61.4652 43.6994 63.3058 42.7076 65.153 41.3996C58.0039 32.7827 57.2251 11.5617 48.2654 6.87558C45.9905 7.72094 43.7073 9.1304 41.4092 11.0375Z" fill="url(#paint4_linear_0_8771)"/>
<path d="M34.3415 13.196C33.2648 15.6307 32.1649 18.8308 30.8352 23.0077C33.4795 19.2817 36.1155 16.0716 38.7365 13.4707C38.3754 12.3606 37.9877 11.3372 37.57 10.4252C36.4983 11.2457 35.4182 12.1693 34.3415 13.196Z" fill="url(#paint5_linear_0_8771)"/>
<path d="M38.5248 9.72334C38.2086 9.94964 37.8908 10.181 37.5713 10.4256C37.9889 11.3375 38.375 12.361 38.7362 13.4709C39.212 13.005 39.6846 12.5541 40.1572 12.123C39.6497 11.251 39.1105 10.4455 38.5248 9.72334Z" fill="#2B74B1"/>
<path d="M39.6527 8.97056C39.2766 9.2086 38.9022 9.45979 38.5244 9.72272C39.1102 10.445 39.6493 11.2504 40.1586 12.1241C40.5763 11.7463 40.994 11.3819 41.41 11.0374C40.8575 10.277 40.2701 9.57962 39.6527 8.97056Z" fill="#125A9E"/>
<path d="M100.765 5.05695C95.6981 24.5988 85.1142 40.2948 76.2411 44.2521H76.2243C76.0629 44.3253 75.9031 44.3919 75.745 44.4567C75.7232 44.4699 75.7035 44.4716 75.6867 44.4795C75.6401 44.4983 75.5968 44.5128 75.5502 44.5314C75.5285 44.5446 75.5087 44.5489 75.4887 44.5568C75.4139 44.5835 75.3406 44.6061 75.2674 44.6353C75.2358 44.6485 75.2059 44.6568 75.1758 44.6673C75.1425 44.6805 75.1042 44.6927 75.066 44.7033C75.0327 44.7165 74.9978 44.726 74.9594 44.7405C74.9278 44.7537 74.8945 44.7593 74.8647 44.7725C74.7997 44.7913 74.7399 44.8071 74.675 44.8297C74.6483 44.8297 74.6234 44.8442 74.5951 44.8512C74.5551 44.8644 74.5101 44.8739 74.4669 44.8858C74.4369 44.899 74.412 44.9033 74.3803 44.9098C74.3353 44.923 74.2854 44.9352 74.2405 44.9458C74.1806 44.959 74.1274 44.9712 74.0708 44.9831C74.4719 45.1312 74.8896 45.2061 75.3406 45.2061C83.7544 45.2061 92.238 30.1275 106.275 5.05237H100.763L100.765 5.05695Z" fill="url(#paint6_linear_0_8771)"/>
<path d="M29.008 6.71829C29.0133 6.71829 29.0199 6.70511 29.0231 6.70511C29.0297 6.70511 29.04 6.70511 29.0433 6.69192H29.0538C29.1004 6.6761 29.1437 6.65731 29.1902 6.64C29.2021 6.64 29.2084 6.64 29.217 6.62681C29.2288 6.62681 29.2404 6.61363 29.252 6.61198C29.3019 6.59616 29.3518 6.57737 29.3984 6.56006H29.4063C29.5179 6.5268 29.621 6.48552 29.7292 6.44692C29.7443 6.44692 29.7592 6.43374 29.7774 6.43374C29.8224 6.41923 29.869 6.40308 29.9155 6.39246C29.9372 6.37928 29.9588 6.37928 29.9787 6.37235C30.0269 6.35785 30.0736 6.3417 30.1185 6.33108C30.1386 6.33108 30.1569 6.3179 30.1718 6.31658C30.3265 6.27399 30.4796 6.23403 30.6344 6.19675C30.6561 6.19675 30.6743 6.18356 30.6976 6.18224C30.7425 6.16906 30.7842 6.16214 30.8324 6.15554C30.8525 6.14236 30.8757 6.14236 30.899 6.13543C30.9439 6.12225 30.9871 6.12093 31.0354 6.11005H31.0671C31.1603 6.09126 31.2552 6.07544 31.3483 6.05813H31.4049C31.4498 6.04494 31.4897 6.04363 31.5347 6.03538C31.5595 6.03538 31.5846 6.0222 31.6079 6.0222C31.6495 6.0222 31.6912 6.00901 31.7327 6.00341C31.7544 6.00341 31.7759 6.00341 31.801 5.99022C31.8991 5.97704 32.0007 5.97176 32.1038 5.96352C31.8126 5.9355 31.5131 5.91691 31.2085 5.91691C21.733 5.91691 8.67791 23.4984 2.79688 46.267H3.93015C5.81228 42.9105 7.50303 39.7353 9.04901 36.7548C13.1677 20.6278 21.5566 9.62951 29.0086 6.71569" fill="url(#paint7_linear_0_8771)"/>
<path d="M34.3416 13.1961C35.4183 12.1694 36.4983 11.2458 37.57 10.4254C37.3254 9.8896 37.0725 9.39367 36.8011 8.93931C35.9342 9.99103 35.142 11.3789 34.3416 13.1961Z" fill="#0D82CA"/>
<path d="M35.1201 6.85161C35.7391 7.37081 36.2932 8.08477 36.8008 8.94015C36.9606 8.74378 37.1221 8.56234 37.2901 8.3926C36.5862 7.73531 35.8257 7.19613 35.0002 6.7901C35.0335 6.80856 35.0668 6.82339 35.1014 6.83803C35.1014 6.83803 35.1146 6.85122 35.1202 6.85122" fill="#0D82CA"/>
<path d="M9.04858 36.7568C17.6887 20.1072 21.7825 9.56989 29.0081 6.71758C21.5578 9.63325 13.1673 20.6314 9.04858 36.7568Z" fill="url(#paint8_linear_0_8771)"/>
<path d="M37.2895 8.39243C37.1215 8.56391 36.9618 8.74364 36.8003 8.94001C37.0716 9.39424 37.3244 9.88855 37.5709 10.426C37.8904 10.1814 38.2081 9.95006 38.5243 9.72376C38.1333 9.24115 37.7206 8.79355 37.2895 8.39243Z" fill="#127BCA"/>
<path d="M12.9709 46.1943C12.9177 46.2075 12.8644 46.2075 12.8145 46.2131H12.7845C12.7395 46.2131 12.6929 46.2263 12.6514 46.2263H12.6297C12.5216 46.2394 12.415 46.2394 12.3118 46.2477H12.2786C21.0236 46.003 25.0208 41.6246 27.0044 35.2743C28.5121 30.46 29.7503 26.4045 30.8353 23.0014C27.1725 28.1569 23.4931 34.3024 19.7938 41.187C18.0098 44.5052 15.2973 45.8914 12.9708 46.1877" fill="url(#paint9_linear_0_8771)"/>
<path d="M12.9709 46.1909C15.2974 45.8946 18.0099 44.51 19.7939 41.1901C23.4932 34.3073 27.1743 28.16 30.8337 23.0045C32.165 18.8258 33.2633 15.6275 34.3417 13.1928C27.0478 20.1356 19.7256 31.6797 12.9709 46.1876" fill="url(#paint10_linear_0_8771)"/>
<path d="M9.04831 36.7571C7.50239 39.7376 5.81164 42.9128 3.92944 46.2693H7.22615C7.66215 42.9359 8.28121 39.7575 9.04831 36.7587" fill="#05A1E6"/>
<path d="M31.8005 5.99868C31.7738 5.99868 31.7538 6.01186 31.7306 6.01186C31.6906 6.02505 31.649 6.02505 31.6074 6.02934C31.5827 6.02934 31.5592 6.02934 31.5342 6.04252C31.4892 6.05571 31.4477 6.05703 31.4044 6.06527C31.3843 6.06527 31.3645 6.06527 31.3478 6.07845C31.2529 6.09428 31.1597 6.11175 31.0666 6.1277H31.0349C30.9867 6.14089 30.9433 6.14781 30.8985 6.15441C30.8751 6.16759 30.8519 6.16759 30.8302 6.17287C30.7853 6.18605 30.7403 6.19166 30.6971 6.19957C30.6736 6.21275 30.6555 6.21275 30.6338 6.21407C30.4791 6.25136 30.3259 6.29131 30.1712 6.3339C30.1547 6.3339 30.1379 6.34709 30.1179 6.34972C30.0713 6.36291 30.0263 6.37643 29.9781 6.391C29.958 6.40418 29.9349 6.40418 29.9149 6.40946C29.8683 6.42264 29.8217 6.43616 29.7768 6.45073C29.7586 6.45073 29.7435 6.46392 29.7269 6.46392C29.6203 6.50384 29.5155 6.54379 29.4057 6.57708C29.3591 6.59159 29.3092 6.61035 29.2592 6.62765C29.2391 6.64084 29.2209 6.64381 29.1977 6.65304C29.1511 6.66754 29.1045 6.68633 29.0613 6.70364C29.0448 6.71682 29.028 6.71814 29.0164 6.72507C21.7908 9.57738 17.697 20.1147 9.05684 36.7643C8.28968 39.7631 7.66895 42.9416 7.23462 46.2748H7.69725C9.00026 46.2748 9.36803 46.2616 10.8674 46.2616H10.944H11.167H11.2435H11.2652H11.3417H11.385H11.415H11.4749H11.6613H11.8477H12.0041H12.0456H12.3202C12.4234 46.2484 12.5299 46.2484 12.638 46.2402H12.658C12.703 46.2402 12.7479 46.227 12.7912 46.227H12.8227C12.8709 46.227 12.9259 46.2138 12.9791 46.2082C19.7338 31.7003 27.056 20.1562 34.3499 13.2134C35.152 11.3962 35.9424 10.0083 36.8078 8.95832C36.3019 8.10298 35.7477 7.3874 35.1287 6.86807C35.1287 6.86807 35.1119 6.86807 35.1106 6.85488C35.0755 6.84038 35.0424 6.82291 35.0074 6.80563C34.9724 6.78684 34.9424 6.77234 34.9059 6.75371C34.8743 6.74053 34.8377 6.72305 34.8061 6.70578C34.7628 6.69259 34.7278 6.6738 34.6896 6.6565C34.658 6.64331 34.6297 6.6298 34.598 6.61658C34.533 6.59119 34.4682 6.56466 34.4067 6.5367C34.3783 6.52352 34.3518 6.51659 34.325 6.50604C34.2802 6.48989 34.2285 6.46876 34.1819 6.44878C34.1585 6.4356 34.132 6.43296 34.1054 6.4234C34.0372 6.40066 33.9706 6.37682 33.9073 6.35549H33.8908C33.8143 6.33011 33.7394 6.31158 33.6612 6.29026C33.643 6.27707 33.6279 6.27707 33.6097 6.27443C33.5414 6.25564 33.4815 6.23715 33.4166 6.21984C33.4001 6.21984 33.385 6.20666 33.3717 6.20666C33.2153 6.16538 33.0539 6.13212 32.8908 6.1015C32.874 6.1015 32.8576 6.08831 32.8409 6.08831C32.771 6.07512 32.7028 6.06293 32.6329 6.05502C32.6161 6.04183 32.6062 6.04183 32.5914 6.04183C32.5082 6.02864 32.4266 6.01908 32.345 6.00985H32.3018C32.2352 5.99667 32.1737 5.99535 32.1121 5.98843C32.0072 6.00161 31.9074 6.00722 31.8092 6.01645" fill="url(#paint11_linear_0_8771)"/>
<path d="M80.9723 15.8753C79.3098 21.2005 77.9635 25.5938 76.792 29.2083C81.3533 22.9312 85.8465 15.0349 90.125 5.92223C85.1343 7.48969 82.4717 11.0777 80.9723 15.8753Z" fill="url(#paint12_linear_0_8771)"/>
<path d="M76.9368 43.9194C76.7038 44.0379 76.4709 44.1506 76.2412 44.2522C85.1143 40.2949 95.6982 24.5988 100.766 5.05703H99.7387C88.0965 25.8536 84.3522 39.7757 76.9368 43.9194Z" fill="url(#paint13_linear_0_8771)"/>
<path d="M71.1428 42.172C73.0731 39.8157 74.6457 35.8102 76.7925 29.2085C74.3162 32.61 71.8235 35.5339 69.3289 37.9185C69.3289 37.9317 69.3289 37.9317 69.3157 37.94C69.8599 39.5708 70.4573 41.0102 71.138 42.1718" fill="#079AE1"/>
<path d="M71.1427 42.1721C70.4853 42.9743 69.7898 43.585 69.0159 44.0377C68.8461 44.1362 68.6748 44.229 68.5 44.3139C69.3172 44.7549 70.209 45.0495 71.2075 45.1676C71.3538 45.1821 71.4986 45.1956 71.6502 45.2062H71.6769C71.7448 45.2062 71.8167 45.2062 71.8899 45.2193H71.9192H72.1373H72.372H72.4452H72.6116C72.6384 45.2193 72.6662 45.2193 72.6928 45.2062C72.7448 45.2062 72.7994 45.2062 72.8526 45.193H72.8714H72.9313C72.9859 45.193 73.0458 45.1798 73.1043 45.1742H73.1175C73.135 45.1742 73.1535 45.161 73.1708 45.161C73.232 45.1478 73.2959 45.1422 73.3556 45.133H73.4102C73.478 45.1198 73.5482 45.1115 73.6181 45.0984H73.6313H73.6514C73.7912 45.0717 73.9276 45.0451 74.0657 45.0105C72.9208 44.5911 71.9623 43.6026 71.1369 42.1948" fill="#1969BC"/>
<path d="M54.7839 45.2194C55.6144 45.2194 56.4531 45.1382 57.2952 44.9764C58.074 44.8351 58.8544 44.6186 59.6365 44.3457C60.2873 44.6636 60.9695 44.8999 61.6918 45.0463C62.2526 45.1608 62.835 45.2194 63.4458 45.2194H54.7839Z" fill="#1E5CB3"/>
<path d="M63.4461 45.2193C65.4963 45.2193 67.1204 44.9764 68.5001 44.3141C69.3171 44.755 70.2091 45.0496 71.2075 45.1678C71.354 45.1823 71.4988 45.1958 71.6502 45.2064H71.6769C71.7448 45.2064 71.8167 45.2064 71.8899 45.2196H71.9206H72.1387H63.4402L63.4461 45.2193Z" fill="#1E5CB3"/>
<path d="M72.1438 45.2193H72.3801H72.4533H72.6182C72.6462 45.2193 72.6727 45.2193 72.6994 45.2062C72.7513 45.2062 72.8059 45.2061 72.8609 45.193H72.8783H72.9396C72.9941 45.193 73.0541 45.1798 73.111 45.1745H73.1255C73.143 45.1745 73.1601 45.1613 73.1774 45.1613C73.2387 45.1481 73.3026 45.1429 73.3621 45.1333C73.3822 45.1333 73.3981 45.1333 73.4194 45.1201C73.4873 45.1069 73.5575 45.1 73.6275 45.0868H73.6406H73.6608C73.8006 45.0601 73.937 45.0336 74.0751 44.999C74.476 45.147 74.8938 45.222 75.3447 45.222L72.1463 45.2352L72.1438 45.2193Z" fill="#1D60B5"/>
<path d="M69.321 37.9402V37.927C68.4074 38.8006 67.4955 39.6011 66.5852 40.325C66.1092 40.7028 65.635 41.0605 65.1558 41.3984C65.5567 41.8776 65.9645 42.327 66.3939 42.7364C67.0462 43.3686 67.7434 43.9012 68.504 44.3122C68.677 44.227 68.8501 44.1341 69.0181 44.036C69.7936 43.5833 70.4892 42.9726 71.1466 42.1705C70.4659 41.009 69.8686 39.5694 69.3243 37.9386" fill="#175FAB"/>
<path d="M96.487 5.05703H92.1703H91.7409H91.3349H91.319C91.0394 5.07022 90.7683 5.07978 90.5003 5.09698C90.3738 5.36832 90.244 5.63962 90.1191 5.91254C85.8407 15.0252 81.3476 22.9215 76.7862 29.1986C74.6411 35.8002 73.0669 39.8058 71.1365 42.1622C71.9619 43.5701 72.9221 44.5601 74.0637 44.9795C74.097 44.9663 74.1236 44.9663 74.1535 44.9594H74.172C74.1921 44.9594 74.2135 44.9462 74.2353 44.9462C74.2818 44.933 74.3318 44.9248 74.3784 44.9103C74.4084 44.8971 74.4332 44.8958 74.4633 44.8862C74.5066 44.873 74.5514 44.8635 74.5914 44.8529C74.6181 44.8397 74.6446 44.8355 74.6713 44.8302C74.7378 44.8088 74.7977 44.7929 74.861 44.7729C74.891 44.7597 74.9226 44.7489 74.9559 44.7409C74.9925 44.7278 75.0291 44.7182 75.0624 44.7023C75.1007 44.6892 75.1389 44.6822 75.1722 44.6677C75.2022 44.6545 75.2337 44.6463 75.2621 44.6344C75.3369 44.6077 75.4102 44.5852 75.4851 44.5559C75.5052 44.5559 75.525 44.5374 75.5467 44.5331C75.5916 44.5143 75.6382 44.4998 75.6832 44.4799C75.6997 44.4667 75.7198 44.4654 75.7413 44.4584C75.8978 44.3932 76.0592 44.3266 76.2206 44.2538H76.2374C76.4671 44.1526 76.7001 44.0391 76.9314 43.921C84.3484 39.7773 88.0928 25.8552 99.735 5.05865H96.4833L96.487 5.05703Z" fill="url(#paint14_linear_0_8771)"/>
<path d="M32.1038 5.97093C32.1222 5.97093 32.1388 5.97093 32.157 5.98412C32.2019 5.98412 32.2469 5.98412 32.2918 5.99862H32.3368C32.4183 6.01181 32.4999 6.01873 32.5831 6.0306C32.5982 6.0306 32.6114 6.0306 32.6246 6.04379C32.6928 6.05697 32.7627 6.06785 32.8326 6.0784C32.8478 6.0784 32.8677 6.09159 32.8843 6.09159C33.0441 6.12356 33.2071 6.15682 33.3636 6.1981C33.3784 6.1981 33.3936 6.21128 33.4068 6.21128C33.4734 6.22711 33.5333 6.24721 33.5999 6.26584C33.62 6.26584 33.6347 6.27903 33.6531 6.28199C33.7314 6.3021 33.8046 6.32195 33.8811 6.34723C33.8844 6.34723 33.889 6.34723 33.8979 6.36042C33.9627 6.3802 34.0293 6.40568 34.0976 6.42829C34.1243 6.44148 34.1491 6.44708 34.1741 6.45368C34.2208 6.47378 34.2724 6.4936 34.3173 6.51225C34.344 6.51225 34.3705 6.53071 34.3987 6.54027C34.4602 6.5683 34.5252 6.59351 34.5884 6.62015C34.6217 6.63334 34.65 6.64817 34.6816 6.66007C34.7183 6.67886 34.7565 6.69604 34.7964 6.70935C34.8297 6.72518 34.8663 6.74261 34.8979 6.75725C34.9329 6.77604 34.966 6.79055 34.9994 6.80917C35.8248 7.21524 36.5853 7.75613 37.2893 8.41181C37.5489 8.13889 37.8201 7.89419 38.1014 7.67454C36.562 6.58287 34.818 5.96048 32.8061 5.96048C32.5731 5.96048 32.3402 5.97367 32.1039 5.99114" fill="#7DCBEC"/>
<path d="M37.2896 8.39226C37.7206 8.79324 38.1333 9.24098 38.5243 9.72359C38.9021 9.46066 39.2765 9.20768 39.6526 8.97139C39.16 8.47879 38.6408 8.03613 38.1 7.65499C37.8187 7.87306 37.5492 8.11934 37.2896 8.39226Z" fill="#5EC5ED"/>
<path d="M32.1033 5.9705C32.3396 5.95053 32.5726 5.94221 32.8056 5.94221C34.8175 5.94221 36.5615 6.56459 38.1008 7.65459C39.725 6.37322 41.6887 5.92556 44.4162 5.92556H31.208C31.5125 5.92556 31.8104 5.94387 32.1033 5.9705Z" fill="url(#paint15_linear_0_8771)"/>
<path d="M44.4162 5.92555C41.6887 5.92555 39.725 6.3732 38.1008 7.65458C38.64 8.03566 39.1592 8.47832 39.6518 8.9709C41.9133 7.53309 44.1533 6.58121 46.3616 6.16518C47.2036 6.00709 48.044 5.92555 48.8727 5.92555H44.4162Z" fill="url(#paint16_linear_0_8771)"/>
<path d="M76.792 29.2119C77.9652 25.5941 79.3082 21.2025 80.974 15.8756C82.475 11.0762 85.1327 7.48836 90.1233 5.92248C90.2552 5.65448 90.3797 5.37823 90.5079 5.10693C82.3719 5.59458 78.5693 9.73319 76.6556 15.8623C73.309 26.5626 71.2821 33.4987 69.3301 37.9186C71.8229 35.5356 74.3158 32.6101 76.792 29.2119Z" fill="url(#paint17_linear_0_8771)"/>
<path d="M88.7281 42.3687H87.8062V45.2344H87.4301V42.3687H86.5049V42.0277H88.7281V42.3687Z" fill="black"/>
<path d="M92.1288 45.2338V43.0804C92.1288 42.9107 92.142 42.7028 92.1595 42.4581C92.1209 42.6045 92.0889 42.7061 92.0596 42.7709L90.968 45.2338H90.7849L89.6899 42.7893C89.6579 42.7214 89.626 42.6112 89.5914 42.4581H89.5782C89.5914 42.5872 89.5957 42.796 89.5957 43.0855V45.2338H89.2362V42.0271H89.7321L90.7156 44.2653C90.7901 44.4335 90.8367 44.5633 90.8604 44.6498H90.8749C90.9402 44.4734 90.9934 44.3419 91.0298 44.2553L92.0332 42.0271H92.5058V45.2338H92.1288Z" fill="black"/>
<defs>
<linearGradient id="paint0_linear_0_8771" x1="48.0152" y1="5.6636" x2="48.0152" y2="55.0238" gradientUnits="userSpaceOnUse">
<stop stop-color="#0994DC"/>
<stop offset="0.350006" stop-color="#66CEF5"/>
<stop offset="0.846161" stop-color="#127BCA"/>
<stop offset="1" stop-color="#127BCA"/>
</linearGradient>
<linearGradient id="paint1_linear_0_8771" x1="49.8974" y1="4.41387" x2="49.8974" y2="55.0321" gradientUnits="userSpaceOnUse">
<stop stop-color="#0E76BC"/>
<stop offset="0.360001" stop-color="#36AEE8"/>
<stop offset="0.846161" stop-color="#00ADEF"/>
<stop offset="1" stop-color="#00ADEF"/>
</linearGradient>
<linearGradient id="paint2_linear_0_8771" x1="60.0707" y1="44.0817" x2="60.0707" y2="3.80557" gradientUnits="userSpaceOnUse">
<stop stop-color="#1C63B7"/>
<stop offset="0.5" stop-color="#33BDF2"/>
<stop offset="1" stop-color="#33BDF2" stop-opacity="0.419608"/>
</linearGradient>
<linearGradient id="paint3_linear_0_8771" x1="57.4233" y1="-0.714964" x2="57.4233" y2="51.8398" gradientUnits="userSpaceOnUse">
<stop stop-color="#166AB8"/>
<stop offset="0.399994" stop-color="#36AEE8"/>
<stop offset="0.846161" stop-color="#0798DD"/>
<stop offset="1" stop-color="#0798DD"/>
</linearGradient>
<linearGradient id="paint4_linear_0_8771" x1="53.2807" y1="-0.438894" x2="53.2807" y2="55.4461" gradientUnits="userSpaceOnUse">
<stop stop-color="#124379"/>
<stop offset="0.389999" stop-color="#1487CB"/>
<stop offset="0.780228" stop-color="#165197"/>
<stop offset="1" stop-color="#165197"/>
</linearGradient>
<linearGradient id="paint5_linear_0_8771" x1="30.8352" y1="16.7165" x2="38.7365" y2="16.7165" gradientUnits="userSpaceOnUse">
<stop stop-color="#33BDF2" stop-opacity="0.698039"/>
<stop offset="1" stop-color="#1DACD8"/>
</linearGradient>
<linearGradient id="paint6_linear_0_8771" x1="90.176" y1="43.0725" x2="90.176" y2="3.83789" gradientUnits="userSpaceOnUse">
<stop stop-color="#136AB4"/>
<stop offset="0.6" stop-color="#59CAF5" stop-opacity="0.54902"/>
<stop offset="1" stop-color="#59CAF5" stop-opacity="0.235294"/>
</linearGradient>
<linearGradient id="paint7_linear_0_8771" x1="2.79665" y1="26.0918" x2="32.1036" y2="26.0918" gradientUnits="userSpaceOnUse">
<stop stop-color="#05A1E6" stop-opacity="0.247059"/>
<stop offset="1" stop-color="#05A1E6"/>
</linearGradient>
<linearGradient id="paint8_linear_0_8771" x1="19.028" y1="44.0605" x2="19.028" y2="3.88747" gradientUnits="userSpaceOnUse">
<stop stop-color="#318ED5"/>
<stop offset="1" stop-color="#38A7E4"/>
</linearGradient>
<linearGradient id="paint9_linear_0_8771" x1="21.5567" y1="44.202" x2="21.5567" y2="5.15162" gradientUnits="userSpaceOnUse">
<stop stop-color="#05A1E6"/>
<stop offset="1" stop-color="#05A1E6" stop-opacity="0.54902"/>
</linearGradient>
<linearGradient id="paint10_linear_0_8771" x1="23.6563" y1="46.1944" x2="23.6563" y2="13.1962" gradientUnits="userSpaceOnUse">
<stop stop-color="#1959A6"/>
<stop offset="0.5" stop-color="#05A1E6"/>
<stop offset="0.917587" stop-color="#7EC5EA"/>
<stop offset="1" stop-color="#7EC5EA"/>
</linearGradient>
<linearGradient id="paint11_linear_0_8771" x1="24.9206" y1="44.0863" x2="13.7351" y2="9.9027" gradientUnits="userSpaceOnUse">
<stop stop-color="#165096"/>
<stop offset="1" stop-color="#0D82CA"/>
</linearGradient>
<linearGradient id="paint12_linear_0_8771" x1="83.4578" y1="23.8521" x2="83.4578" y2="5.15404" gradientUnits="userSpaceOnUse">
<stop stop-color="#05A1E6"/>
<stop offset="0.873627" stop-color="#0495D6"/>
<stop offset="1" stop-color="#0495D6"/>
</linearGradient>
<linearGradient id="paint13_linear_0_8771" x1="92.2466" y1="3.42595" x2="74.82" y2="42.118" gradientUnits="userSpaceOnUse">
<stop stop-color="#38A7E4" stop-opacity="0.329412"/>
<stop offset="0.961533" stop-color="#0E88D3"/>
<stop offset="1" stop-color="#0E88D3"/>
</linearGradient>
<linearGradient id="paint14_linear_0_8771" x1="85.4405" y1="4.93895" x2="85.4405" y2="45.7308" gradientUnits="userSpaceOnUse">
<stop stop-color="#168CD4"/>
<stop offset="0.5" stop-color="#1C87CC"/>
<stop offset="1" stop-color="#154B8D"/>
</linearGradient>
<linearGradient id="paint15_linear_0_8771" x1="33.4103" y1="4.10031" x2="33.5871" y2="8.37847" gradientUnits="userSpaceOnUse">
<stop stop-color="#97D6EE"/>
<stop offset="0.703293" stop-color="#55C1EA"/>
<stop offset="1" stop-color="#55C1EA"/>
</linearGradient>
<linearGradient id="paint16_linear_0_8771" x1="38.843" y1="8.77903" x2="39.642" y2="4.24729" gradientUnits="userSpaceOnUse">
<stop stop-color="#7ACCEC"/>
<stop offset="1" stop-color="#3FB7ED"/>
</linearGradient>
<linearGradient id="paint17_linear_0_8771" x1="79.9183" y1="7.19467" x2="79.9183" y2="47.0932" gradientUnits="userSpaceOnUse">
<stop stop-color="#1DA7E7"/>
<stop offset="1" stop-color="#37ABE7" stop-opacity="0"/>
</linearGradient>
</defs>
</svg>
