<svg width="109" height="109" viewBox="0 0 109 109" fill="none" xmlns="http://www.w3.org/2000/svg">
<g opacity="0.3">
<path opacity="0.3" d="M54.5 106.27C83.0931 106.27 106.272 83.0906 106.272 54.4974C106.272 25.9043 83.0931 2.72498 54.5 2.72498C25.9069 2.72498 2.72754 25.9043 2.72754 54.4974C2.72754 83.0906 25.9069 106.27 54.5 106.27Z" fill="white"/>
<path opacity="0.3" d="M54.5 105.708C82.7829 105.708 105.711 82.7804 105.711 54.4974C105.711 26.2145 82.7829 3.28662 54.5 3.28662C26.217 3.28662 3.28918 26.2145 3.28918 54.4974C3.28918 82.7804 26.217 105.708 54.5 105.708Z" stroke="#0E0D0D"/>
</g>
<path d="M54.5 106.275C44.8766 106.29 35.4439 103.612 27.2648 98.5421L61.9469 3.25653C68.085 4.13913 74.0175 6.12498 79.4485 9.11879C96.0072 18.2106 106.293 35.6068 106.272 54.4974C106.272 58.0027 105.921 61.498 105.219 64.9332C103.865 71.5577 101.218 77.8462 97.4314 83.4477C91.8099 91.7722 83.9016 98.2864 74.6543 102.203C71.5201 103.527 68.2655 104.54 64.9357 105.222C61.5006 105.924 58.0053 106.275 54.5 106.275Z" fill="#6E7BF2"/>
<path d="M36.9382 54.2718C36.9532 53.3993 36.863 52.5317 36.6724 51.6842H24.7573V56.3931H31.7529C31.4871 58.063 30.5494 59.5474 29.1653 60.5102L29.1402 60.6657L32.9063 63.5843L33.1671 63.6093C35.6895 61.1721 37.0636 57.7822 36.9482 54.2768" fill="#4285F4"/>
<path d="M24.7573 66.6834C27.8464 66.7686 30.8553 65.6704 33.1621 63.6093L29.1553 60.5052C27.8565 61.3778 26.3169 61.8191 24.7573 61.7739C21.4676 61.7539 18.5591 59.6326 17.5361 56.4984L17.3856 56.5084L13.4691 59.5424L13.4189 59.6828C15.5703 63.9754 19.9582 66.6834 24.7573 66.6834Z" fill="#34A853"/>
<path d="M17.536 56.4983C17.2602 55.691 17.1148 54.8435 17.1148 53.991C17.1198 53.1384 17.2602 52.291 17.526 51.4836L17.521 51.3181L13.5543 48.234L13.4239 48.2942C11.6186 51.8797 11.6186 56.1022 13.4239 59.6877L17.536 56.4983Z" fill="#FBBC05"/>
<path d="M24.7573 46.208C26.5777 46.178 28.3329 46.8549 29.6668 48.0986L33.2473 44.6033C30.9506 42.447 27.9066 41.2635 24.7573 41.3036C19.9582 41.3036 15.5703 44.0066 13.4189 48.2992L17.521 51.4886C18.5541 48.3544 21.4626 46.2331 24.7573 46.208Z" fill="#EB4335"/>
<path d="M56.9121 55.4001V64.6222H53.9634V41.8401H61.7814C63.667 41.8 65.4873 42.5071 66.8463 43.8109C69.5092 46.2631 69.6797 50.4154 67.2224 53.0782C67.1021 53.2086 66.9767 53.334 66.8463 53.4543C65.4823 54.7481 63.6619 55.4452 61.7814 55.395H56.9121V55.4001ZM56.9121 44.6484V52.6018H61.8566C62.9498 52.6369 64.008 52.2056 64.7702 51.4233C66.3097 49.944 66.3549 47.5018 64.8755 45.9623C64.8655 45.9522 64.8555 45.9422 64.8454 45.9322C64.8203 45.9071 64.7953 45.877 64.7702 45.8569C64.013 45.0596 62.9549 44.6183 61.8566 44.6484H56.9121ZM75.7525 48.5298C77.6331 48.4245 79.4785 49.0463 80.9127 50.2599C82.2066 51.4935 82.8936 53.2287 82.8033 55.0139V64.6222H79.99V62.4558H79.8647C78.8216 64.1408 76.9711 65.1538 74.9903 65.1287C73.4056 65.1789 71.8561 64.6322 70.6525 63.5992C69.5242 62.6564 68.8823 61.2523 68.9074 59.783C68.8572 58.2785 69.5443 56.8393 70.7478 55.9366C72.177 54.9186 73.9071 54.4121 75.6623 54.5024C77.1617 54.4472 78.6511 54.7732 79.985 55.4552V54.7782C79.99 53.7753 79.5437 52.8225 78.7664 52.1906C77.9841 51.4935 76.9711 51.1124 75.918 51.1225C74.3434 51.0873 72.864 51.8697 72.0115 53.1885L69.4239 51.5638C70.8682 49.5177 73.2602 48.3643 75.7576 48.5148L75.7525 48.5298ZM71.9363 59.8532C71.9313 60.6104 72.2974 61.3275 72.9142 61.7688C73.5661 62.2803 74.3785 62.5461 75.2059 62.5311C76.4496 62.5311 77.6381 62.0396 78.5257 61.162C79.4534 60.3546 79.99 59.1812 79.99 57.9476C78.8667 57.1602 77.5127 56.7741 76.1437 56.8543C75.0806 56.8142 74.0275 57.1151 73.1499 57.7169C72.4027 58.1782 71.9514 58.9856 71.9363 59.8532ZM98.986 49.0363L89.147 71.4975H86.108L89.7588 63.6393L83.2847 49.0363H86.4892L91.1679 60.2343H91.2331L95.7815 49.0363H98.986Z" fill="white"/>
</svg>
