<svg width="154" height="77" viewBox="0 0 154 77" fill="none" xmlns="http://www.w3.org/2000/svg">
<path fill-rule="evenodd" clip-rule="evenodd" d="M86.0757 29.4294V29.5669C86.0278 29.8053 85.9575 30.0375 85.8302 30.2076C85.6917 30.39 85.4584 30.5804 85.2812 30.7383C84.7148 31.2334 84.1577 31.7722 83.6046 32.2754C82.9435 31.7304 82.2824 31.1142 81.603 30.5356C81.3779 30.3462 81.1518 30.1119 81.0907 29.8053C81.0713 29.7197 81.0958 29.6484 81.053 29.5863V29.5771C81.0907 29.5242 81.0611 29.4712 81.0713 29.3836C81.1375 28.8346 81.5572 28.4831 82.0237 28.3416C82.4668 28.204 82.9567 28.3171 83.2481 28.4964C83.3295 28.5463 83.4579 28.6909 83.5598 28.6879C83.6494 28.6858 83.7533 28.5636 83.8429 28.5056C84.1302 28.3161 84.5162 28.1959 84.9868 28.2866C85.5786 28.3986 86.0013 28.8325 86.0665 29.4294H86.0757Z" fill="#E71D29"/>
<path d="M10.808 56.845L8.65573 52.0118L6.48917 56.845H10.808ZM8.16782 50.766H9.17012L13.488 60.3103H12.338L11.2277 57.8056H6.0695L4.94599 60.3103H3.84998L8.16782 50.766Z" fill="black"/>
<path d="M14.385 55.5997V55.5732C14.385 52.8922 16.3886 50.6717 19.1776 50.6717C20.897 50.6717 21.9257 51.2818 22.873 52.1751L22.1417 52.9595C21.3431 52.2016 20.4498 51.6608 19.1633 51.6608C17.065 51.6608 15.4953 53.3659 15.4953 55.5457V55.5732C15.4953 57.7652 17.0792 59.4846 19.1633 59.4846C20.463 59.4846 21.3166 58.9835 22.2232 58.1177L22.927 58.8072C21.939 59.8095 20.8562 60.4727 19.1368 60.4727C16.4019 60.4727 14.385 58.3204 14.385 55.5997Z" fill="black"/>
<path d="M32.7039 55.5997V55.5732C32.7039 53.4199 31.1333 51.6608 28.9677 51.6608C26.8022 51.6608 25.258 53.3934 25.258 55.5457V55.5732C25.258 57.7255 26.8287 59.4846 28.9942 59.4846C31.1608 59.4846 32.7039 57.752 32.7039 55.5997ZM24.1487 55.5997V55.5732C24.1487 52.9595 26.1116 50.6717 28.9942 50.6717C31.8779 50.6717 33.8142 52.933 33.8142 55.5457V55.5732C33.8142 58.1849 31.8514 60.4727 28.9677 60.4727C26.0841 60.4727 24.1487 58.2124 24.1487 55.5997Z" fill="black"/>
<path d="M35.983 56.3438V50.8342H37.0525V56.2765C37.0525 58.3198 38.1353 59.4709 39.9494 59.4709C41.6963 59.4709 42.8056 58.4156 42.8056 56.3438V50.8342H43.8761V56.2633C43.8761 59.0247 42.2912 60.4599 39.923 60.4599C37.5802 60.4599 35.983 59.0247 35.983 56.3438Z" fill="black"/>
<path d="M45.7741 58.93L46.4372 58.1446C47.4253 59.038 48.3736 59.4851 49.6865 59.4851C50.9588 59.4851 51.7981 58.8078 51.7981 57.8737V57.8472C51.7981 56.9661 51.3245 56.466 49.3341 56.0463C47.1543 55.5727 46.153 54.8688 46.153 53.3114V53.2849C46.153 51.7957 47.466 50.6987 49.2669 50.6987C50.6471 50.6987 51.6351 51.0919 52.5967 51.864L51.9743 52.689C51.0942 51.9719 50.2142 51.6602 49.2394 51.6602C48.0079 51.6602 47.2226 52.3366 47.2226 53.1892V53.2177C47.2226 54.111 47.7094 54.6111 49.7945 55.0583C51.9071 55.5177 52.8809 56.2898 52.8809 57.7382V57.7647C52.8809 59.3904 51.5272 60.4457 49.6458 60.4457C48.1434 60.4457 46.9109 59.9455 45.7741 58.93Z" fill="black"/>
<path d="M57.5676 51.8227H54.3865V50.8337H61.8324V51.8227H58.6503V60.3107H57.5676V51.8227Z" fill="black"/>
<path d="M64.8535 50.8342H63.784V60.3112H64.8535V50.8342Z" fill="black"/>
<path d="M67.2099 55.5997V55.5732C67.2099 52.8922 69.2135 50.6717 72.0024 50.6717C73.7218 50.6717 74.7506 51.2818 75.6979 52.1751L74.9665 52.9595C74.168 52.2016 73.2747 51.6608 71.9882 51.6608C69.8898 51.6608 68.3202 53.3659 68.3202 55.5457V55.5732C68.3202 57.7652 69.9041 59.4846 71.9882 59.4846C73.2879 59.4846 74.1415 58.9835 75.048 58.1177L75.7519 58.8072C74.7638 59.8095 73.6811 60.4727 71.9617 60.4727C69.2267 60.4727 67.2099 58.3204 67.2099 55.5997Z" fill="black"/>
<path d="M77.5025 50.834H79.4246L83.8656 56.6695V50.834H85.9232V60.311H84.1498L79.56 54.287V60.311H77.5025V50.834Z" fill="black"/>
<path d="M88.321 50.834H95.4695V52.6888H90.3918V54.6109H94.8604V56.4658H90.3918V58.4561H95.5368V60.311H88.321V50.834Z" fill="black"/>
<path d="M97.3539 56.2492V50.8344H99.439V56.1953C99.439 57.7384 100.211 58.537 101.483 58.537C102.757 58.537 103.528 57.7649 103.528 56.2635V50.8344H105.612V56.182C105.612 59.0514 104.001 60.4601 101.456 60.4601C98.9114 60.4601 97.3539 59.0382 97.3539 56.2492Z" fill="black"/>
<path d="M112.099 55.4375C113.115 55.4375 113.696 54.8956 113.696 54.097V54.0695C113.696 53.1762 113.074 52.7158 112.058 52.7158H109.988V55.4375H112.099ZM107.903 50.8334H112.235C113.439 50.8334 114.373 51.1726 114.996 51.796C115.524 52.3226 115.809 53.0683 115.809 53.9616V53.988C115.809 55.518 114.983 56.4795 113.778 56.9267L116.093 60.3105H113.656L111.626 57.2791H109.988V60.3105H107.903V50.8334Z" fill="black"/>
<path d="M125.113 55.5997V55.5732C125.113 53.9485 123.921 52.5948 122.242 52.5948C120.564 52.5948 119.4 53.921 119.4 55.5457V55.5732C119.4 57.1968 120.591 58.5506 122.27 58.5506C123.948 58.5506 125.113 57.2243 125.113 55.5997ZM117.22 55.5997V55.5732C117.22 52.878 119.346 50.6717 122.27 50.6717C125.193 50.6717 127.293 52.8515 127.293 55.5457V55.5732C127.293 58.2664 125.167 60.4727 122.242 60.4727C119.319 60.4727 117.22 58.2939 117.22 55.5997Z" fill="black"/>
<path d="M129.19 50.834H131.437L133.928 54.8421L136.42 50.834H138.667V60.311H136.596V54.124L133.928 58.1719H133.875L131.235 54.1648V60.311H129.19V50.834Z" fill="black"/>
<path d="M146.359 56.3438L145.1 53.2706L143.841 56.3438H146.359ZM144.166 50.7659H146.088L150.15 60.3112H147.97L147.103 58.1854H143.096L142.229 60.3112H140.105L144.166 50.7659Z" fill="black"/>
<path d="M45.5304 70.3445L44.4599 67.9427L43.3832 70.3445H45.5304ZM44.2175 67.3223H44.7156L46.8628 72.067H46.2913L45.7393 70.8222H43.1744L42.6162 72.067H42.0713L44.2175 67.3223Z" fill="black"/>
<path d="M49.654 71.3809L49.9841 70.9898C50.475 71.4349 50.9467 71.657 51.5996 71.657C52.2321 71.657 52.6487 71.3198 52.6487 70.8553V70.8431C52.6487 70.4051 52.4134 70.1566 51.4244 69.9478C50.3406 69.7115 49.8425 69.3621 49.8425 68.5879V68.5747C49.8425 67.8342 50.4954 67.2882 51.3908 67.2882C52.0763 67.2882 52.5683 67.4848 53.046 67.8678L52.7363 68.2783C52.2993 67.9218 51.8614 67.767 51.3765 67.767C50.7643 67.767 50.3742 68.1031 50.3742 68.5268V68.5411C50.3742 68.9842 50.6166 69.2348 51.6525 69.4558C52.7027 69.685 53.1876 70.069 53.1876 70.7891V70.8024C53.1876 71.6101 52.5143 72.1347 51.5792 72.1347C50.8315 72.1347 50.2194 71.8851 49.654 71.3809Z" fill="black"/>
<path d="M56.1402 71.3809L56.4702 70.9898C56.9612 71.4349 57.4328 71.657 58.0857 71.657C58.7183 71.657 59.1349 71.3198 59.1349 70.8553V70.8431C59.1349 70.4051 58.8996 70.1566 57.9105 69.9478C56.8267 69.7115 56.3286 69.3621 56.3286 68.5879V68.5747C56.3286 67.8342 56.9815 67.2882 57.8769 67.2882C58.5624 67.2882 59.0544 67.4848 59.5321 67.8678L59.2225 68.2783C58.7855 67.9218 58.3475 67.767 57.8626 67.767C57.2505 67.767 56.8603 68.1031 56.8603 68.5268V68.5411C56.8603 68.9842 57.1028 69.2348 58.1387 69.4558C59.1889 69.685 59.6737 70.069 59.6737 70.7891V70.8024C59.6737 71.6101 59.0004 72.1347 58.0653 72.1347C57.3177 72.1347 56.7055 71.8851 56.1402 71.3809Z" fill="black"/>
<path d="M66.9205 69.7257V69.7115C66.9205 68.6419 66.1393 67.767 65.0626 67.767C63.9859 67.767 63.2189 68.6287 63.2189 69.6992V69.7115C63.2189 70.782 63.9992 71.657 65.0758 71.657C66.1535 71.657 66.9205 70.7953 66.9205 69.7257ZM62.6669 69.7257V69.7115C62.6669 68.4127 63.6427 67.276 65.0758 67.276C66.51 67.276 67.4726 68.3995 67.4726 69.6992V69.7115C67.4726 71.0112 66.4958 72.148 65.0626 72.148C63.6294 72.148 62.6669 71.0234 62.6669 69.7257Z" fill="black"/>
<path d="M70.5464 69.7257V69.7115C70.5464 68.3791 71.5426 67.276 72.9289 67.276C73.7835 67.276 74.2949 67.5785 74.7665 68.0226L74.4029 68.4127C74.0056 68.0359 73.5615 67.767 72.9228 67.767C71.8788 67.767 71.0985 68.6144 71.0985 69.6992V69.7115C71.0985 70.8024 71.8859 71.657 72.9228 71.657C73.5686 71.657 73.9924 71.4074 74.4436 70.9776L74.793 71.3198C74.302 71.8189 73.7632 72.148 72.9086 72.148C71.5487 72.148 70.5464 71.0774 70.5464 69.7257Z" fill="black"/>
<path d="M78.4589 67.3558H77.9272V72.0669H78.4589V67.3558Z" fill="black"/>
<path d="M85.0065 70.3445L83.9369 67.9427L82.8603 70.3445H85.0065ZM83.6945 67.3223H84.1926L86.3398 72.067H85.7674L85.2153 70.8222H82.6505L82.0933 72.067H81.5473L83.6945 67.3223Z" fill="black"/>
<path d="M90.072 67.8477H88.4911V67.3568H92.1927V67.8477H90.6108V72.0678H90.072V67.8477Z" fill="black"/>
<path d="M95.8586 67.3558H95.3269V72.0669H95.8586V67.3558Z" fill="black"/>
<path d="M103.442 69.7257V69.7115C103.442 68.6419 102.661 67.767 101.585 67.767C100.508 67.767 99.7405 68.6287 99.7405 69.6992V69.7115C99.7405 70.782 100.522 71.657 101.597 71.657C102.675 71.657 103.442 70.7953 103.442 69.7257ZM99.1884 69.7257V69.7115C99.1884 68.4127 100.164 67.276 101.597 67.276C103.032 67.276 103.994 68.3995 103.994 69.6992V69.7115C103.994 71.0112 103.018 72.148 101.585 72.148C100.152 72.148 99.1884 71.0234 99.1884 69.7257Z" fill="black"/>
<path d="M107.318 67.3563H107.815L110.783 71.1323V67.3563H111.302V72.0674H110.878L107.836 68.2048V72.0674H107.318V67.3563Z" fill="black"/>
<path d="M83.5996 32.233C83.673 32.1638 83.7392 32.1037 83.8044 32.0446C84.4043 31.4945 85.0032 30.9455 85.6042 30.3955C85.8436 30.1724 85.9862 29.9004 85.9974 29.5704C86.0066 29.219 85.8752 28.9216 85.6175 28.6852C85.2396 28.346 84.7955 28.2503 84.3055 28.3501C84.0672 28.4 83.8573 28.5121 83.673 28.674C83.5782 28.7525 83.5191 28.7525 83.4275 28.6751C83.1158 28.4204 82.7583 28.3134 82.3569 28.3481C81.9515 28.3807 81.6113 28.5487 81.3628 28.8737C81.0939 29.222 81.048 29.603 81.211 30.0104C81.2905 30.206 81.4259 30.3568 81.5848 30.4932C82.2255 31.0464 82.8662 31.6015 83.5069 32.1566C83.5354 32.18 83.5629 32.2025 83.5996 32.233ZM84.6152 33.1375C84.6315 33.1599 84.6376 33.1722 84.6457 33.1854C84.8382 33.3932 85.0236 33.6051 85.2222 33.8057C85.702 34.2957 86.1879 34.7785 86.6707 35.2603C86.7247 35.3143 86.7848 35.3652 86.8408 35.4172C86.8999 35.4691 86.9651 35.463 87.0282 35.4294C87.0476 35.4202 87.0639 35.408 87.0842 35.3978C87.2768 35.2898 87.4285 35.133 87.6058 35.0046C87.6842 34.9486 87.7575 34.8804 87.8268 34.8131C88.0865 34.5564 88.333 34.2865 88.5643 34.0033C88.8994 33.5918 89.1887 33.1559 89.423 32.6781C89.5625 32.3878 89.6796 32.0874 89.7713 31.7787C89.8416 31.5475 89.8905 31.3091 89.9353 31.0728C89.9669 30.9007 89.9699 30.7255 89.9873 30.5513C89.9934 30.4932 89.9974 30.4342 90.0086 30.3782C90.0249 30.2946 90.0331 30.2172 90.0117 30.1337C89.972 29.9982 89.9771 29.8597 90.0168 29.7252C90.0311 29.6763 90.0311 29.6274 90.0086 29.5806C89.9608 29.4808 89.9475 29.3758 89.9485 29.2658C89.9547 29.0438 89.9424 28.8207 89.8905 28.6017C89.8732 28.5365 89.8752 28.4652 89.8548 28.4031C89.7805 28.1719 89.7173 27.9396 89.6053 27.7227C89.5065 27.5301 89.4026 27.3427 89.2824 27.1645C89.1408 26.9536 88.9625 26.7764 88.7843 26.5981C88.6254 26.4382 88.44 26.3038 88.2495 26.1805C88.1609 26.1204 88.0713 26.0593 87.9735 26.0155C87.8136 25.9401 87.6567 25.8566 87.4856 25.8057C87.2554 25.7384 87.0354 25.6406 86.7899 25.6406C86.7705 25.6406 86.7542 25.6386 86.7349 25.6335C86.5627 25.5938 86.3875 25.5979 86.2133 25.5999C86.1746 25.5999 86.1339 25.5948 86.0952 25.5917C86.0117 25.5836 85.9302 25.5734 85.8497 25.5663C85.7387 25.5581 85.6287 25.5581 85.5197 25.5459C85.4341 25.5337 85.3506 25.5052 85.266 25.494C85.1387 25.4777 85.0155 25.4522 84.8892 25.4186C84.5928 25.3442 84.3065 25.2301 84.0223 25.1171C83.7229 24.9979 83.455 24.8247 83.1922 24.6455C82.7664 24.3552 82.3926 24.0058 82.0636 23.6085C81.7335 23.2154 81.4789 22.7763 81.2691 22.3119C81.2354 22.2446 81.2069 22.1774 81.1815 22.1081C81.1356 21.9727 81.0928 21.8362 81.049 21.6987C81.0287 21.6243 81.0236 21.5459 80.994 21.4766C80.9013 21.2505 80.9085 21.007 80.8535 20.7738C80.8178 20.6037 80.8443 20.4315 80.8362 20.2604C80.829 20.1178 80.8341 19.9793 80.9085 19.8519C80.9085 19.8479 80.9105 19.8458 80.9126 19.8438C80.9777 19.6441 81.2884 19.3783 81.539 19.3793C81.7478 19.3793 81.9536 19.3661 82.1359 19.5005C82.3376 19.6492 82.473 19.8285 82.4781 20.0872C82.4781 20.1025 82.4781 20.1178 82.4802 20.1331C82.5128 20.3399 82.5179 20.5476 82.5525 20.7534C82.581 20.9418 82.6075 21.1303 82.6747 21.3075C82.742 21.498 82.8051 21.6895 82.9019 21.8698C83.0486 22.1397 83.2034 22.4025 83.4203 22.6256C83.5395 22.7468 83.6587 22.865 83.7779 22.9852C83.9816 23.1858 84.223 23.3376 84.4736 23.4761C84.6264 23.5607 84.7883 23.6279 84.9503 23.69C85.1978 23.7837 85.4565 23.8398 85.7132 23.8907C85.923 23.9325 86.1359 23.9141 86.3468 23.9192C86.5271 23.9253 86.7114 23.9304 86.8887 23.9488C87.0079 23.96 87.124 23.9936 87.2401 24.019C87.3786 24.0465 87.5202 24.0649 87.6526 24.1077C87.8961 24.184 88.1416 24.2492 88.3697 24.3623C88.5775 24.4631 88.7843 24.564 88.985 24.677C89.1255 24.7555 89.2549 24.8573 89.3893 24.948C89.6226 25.1038 89.8324 25.2862 90.0331 25.4807C90.3224 25.7619 90.5617 26.0797 90.7777 26.4138C90.9427 26.6694 91.0904 26.9312 91.2024 27.2154C91.2177 27.248 91.2422 27.2541 91.2697 27.2378C91.286 27.2276 91.3002 27.2154 91.3104 27.2011C91.4326 27.0504 91.5549 26.9007 91.6741 26.7499C91.8676 26.5085 92.0662 26.2681 92.2547 26.0236C92.3738 25.8678 92.491 25.7119 92.5959 25.5459C92.6967 25.384 92.7864 25.2139 92.8607 25.0407C92.9402 24.8635 93.0074 24.6781 93.0685 24.4917C93.1683 24.1912 93.205 23.8754 93.2427 23.5627C93.2753 23.2632 93.2671 22.9617 93.2376 22.6623C93.2274 22.538 93.203 22.4147 93.1836 22.2905C93.1694 22.1947 93.1582 22.0959 93.1327 22.0032C93.0879 21.824 93.0441 21.6437 92.9789 21.4736C92.8933 21.2607 92.7894 21.0559 92.6865 20.8512C92.6234 20.73 92.545 20.621 92.4757 20.5038C92.3535 20.3001 92.2567 20.0872 92.1691 19.8672C92.1508 19.8102 92.1416 19.747 92.1171 19.692C92.0061 19.4476 91.9572 19.1837 91.8737 18.9321C91.8706 18.9209 91.8676 18.9067 91.8666 18.8955C91.8431 18.7376 91.7739 18.5899 91.778 18.4279C91.778 18.4188 91.7739 18.4096 91.7718 18.4015C91.6904 18.157 91.6924 17.8993 91.6435 17.6497C91.6241 17.5448 91.6241 17.4368 91.618 17.3299C91.6048 17.1313 91.5946 16.9316 91.5946 16.734C91.5946 16.404 91.6038 16.076 91.6048 15.748C91.6068 15.6329 91.6038 15.5127 91.5844 15.4017C91.5416 15.145 91.4887 14.8893 91.4388 14.6337C91.4357 14.6194 91.4296 14.6051 91.4255 14.5899C91.341 14.322 91.2361 14.0592 91.1189 13.8004C91.0996 13.7566 91.0843 13.7108 91.0629 13.667C91.013 13.5784 90.9631 13.4908 90.9091 13.4042C90.8398 13.2891 90.7706 13.174 90.6911 13.064C90.6269 12.9713 90.5505 12.8857 90.4843 12.7951C90.3224 12.5771 90.137 12.3815 89.9119 12.2237C89.8752 12.1992 89.8375 12.1707 89.8029 12.1411C89.5574 11.9374 89.2763 11.7887 88.9829 11.6746C88.8179 11.6105 88.6468 11.5656 88.4746 11.5178C88.2302 11.4475 87.9888 11.368 87.7606 11.255C87.729 11.2397 87.6893 11.2295 87.6526 11.2315C87.5182 11.2458 87.3817 11.2692 87.2442 11.2835C87.0822 11.2998 86.9376 11.365 86.7939 11.4312C86.5974 11.5188 86.4374 11.6593 86.2887 11.8132C86.197 11.9099 86.1135 12.0138 86.0422 12.132C85.9312 12.3204 85.8711 12.5252 85.8263 12.733C85.8028 12.8379 85.7825 12.9479 85.7866 13.0518C85.8028 13.23 85.7428 13.3787 85.6429 13.5142C85.481 13.7302 85.265 13.8544 84.989 13.8504C84.8403 13.8483 84.6865 13.8483 84.5581 13.7485C84.498 13.7006 84.4277 13.6548 84.3748 13.5998C84.2474 13.4694 84.1436 13.3186 84.1395 13.1343C84.1344 12.8796 84.1334 12.627 84.1884 12.3734C84.2271 12.2124 84.279 12.0556 84.3238 11.8967C84.3554 11.7836 84.4074 11.6726 84.4603 11.5656C84.5164 11.4516 84.5795 11.3375 84.6498 11.2315C84.7486 11.0838 84.8464 10.9311 84.9645 10.7997C85.1917 10.5491 85.4372 10.3107 85.7326 10.1315C85.9373 10.0082 86.1451 9.89514 86.3722 9.81365C86.4548 9.78207 86.467 9.75864 86.4232 9.68632C86.3427 9.55492 86.2643 9.42352 86.1706 9.29926C86.0035 9.07313 85.8039 8.88265 85.536 8.77468C85.318 8.68911 85.0919 8.62392 84.8566 8.62189C84.5754 8.61883 84.2923 8.61985 84.0111 8.62189C83.9246 8.62291 83.84 8.63411 83.7524 8.63309C83.5884 8.63207 83.4203 8.63818 83.2594 8.61476C83.1331 8.59438 83.0139 8.53938 82.8927 8.49253C82.7358 8.43039 82.6055 8.32955 82.473 8.23176C82.3518 8.14314 82.2276 8.05453 82.1257 7.94248C81.9699 7.77543 81.7967 7.62264 81.6531 7.44337C81.5044 7.259 81.319 7.11742 81.1366 6.96972C80.937 6.80776 80.7119 6.70386 80.4471 6.70896C80.388 6.70998 80.3299 6.70285 80.2719 6.70081C80.2118 6.69979 80.1486 6.69979 80.0895 6.69979C79.9031 6.70386 79.7208 6.7334 79.5425 6.77618C79.3857 6.81489 79.2258 6.84952 79.075 6.90758C78.9018 6.97379 78.7327 7.05936 78.5688 7.15001C78.3874 7.25187 78.2153 7.37614 78.0931 7.54828C78.0187 7.65014 77.9505 7.75506 77.9525 7.89155C77.9545 8.08101 77.9545 8.27149 77.9545 8.46095C77.9525 9.2687 77.9505 10.0754 77.9505 10.8822C77.9505 11.4047 77.9545 11.9252 77.9545 12.4488C77.9545 12.8949 77.9505 13.3441 77.9505 13.7913C77.9505 14.5501 77.9525 15.307 77.9525 16.0658C77.9525 16.8267 77.9505 17.5876 77.9505 18.3475C77.9505 18.7081 77.9545 19.0666 77.9525 19.4241C77.9525 19.8418 77.9505 20.2584 77.9505 20.677C77.9505 21.2902 77.9545 21.9044 77.9545 22.5176C77.9545 23.1807 77.9505 23.8438 77.9505 24.5059V36.8503C77.9505 37.1539 77.9505 37.4533 77.9545 37.7569C77.9576 37.9229 77.9719 38.091 77.98 38.2591C77.982 38.2703 77.9841 38.2825 77.9892 38.2947C78.032 38.4169 78.0401 38.5463 78.0483 38.6746C78.0533 38.7307 78.0544 38.7846 78.0686 38.8386C78.1196 39.0322 78.1481 39.2298 78.2235 39.4141C78.2988 39.6056 78.3589 39.8022 78.4414 39.9917C78.5025 40.1373 78.58 40.2759 78.6594 40.4154C78.8326 40.7149 79.0343 40.993 79.2696 41.2425C79.4773 41.4625 79.7025 41.6591 79.9541 41.8252C80.1741 41.9708 80.3961 42.1043 80.6457 42.1908C80.7567 42.2234 80.8647 42.2683 80.9777 42.2927C81.2416 42.3487 81.5054 42.362 81.7712 42.2876C82.0738 42.2071 82.2938 42.0156 82.47 41.7681C82.5657 41.6337 82.6157 41.4788 82.6819 41.3281C82.7511 41.1682 82.7878 40.995 82.8051 40.8198C82.8265 40.6049 82.8846 40.3981 82.9355 40.1934C82.9936 39.9734 83.0934 39.7686 83.2085 39.572C83.4489 39.1615 83.8156 38.9028 84.2291 38.7021C84.4471 38.5972 84.6763 38.5178 84.9014 38.4292C84.9829 38.3955 85.0684 38.3629 85.1479 38.3273C85.3353 38.2448 85.5085 38.1368 85.6439 37.9871C85.7947 37.8221 85.9037 37.6296 85.9862 37.4228C86.0259 37.3219 86.0575 37.2211 86.0616 37.1121C86.0656 37.0398 86.0504 36.9868 85.9974 36.9328C84.7099 35.5608 83.4244 34.1867 82.1389 32.8136C81.9831 32.6486 81.8395 32.4714 81.6775 32.3165C81.2354 31.8898 80.7822 31.4752 80.3411 31.0463C79.7004 30.4281 79.457 29.6784 79.68 28.8075C79.8603 28.0985 80.3085 27.5862 80.9727 27.2887C81.8385 26.9047 82.6757 26.9883 83.4601 27.5291C83.4876 27.5485 83.5151 27.5658 83.5385 27.5811C83.5538 27.575 83.5589 27.575 83.565 27.5709C83.5742 27.5658 83.5782 27.5607 83.5854 27.5536C83.9205 27.2887 84.2953 27.1146 84.7201 27.0565C85.6796 26.9231 86.4782 27.2246 87.0751 27.9967C87.4306 28.4561 87.5609 28.9898 87.5019 29.5663C87.4499 30.1041 87.2126 30.5656 86.8306 30.9455C86.1268 31.6422 85.4188 32.3359 84.714 33.0306C84.6814 33.0632 84.6518 33.0988 84.6152 33.1375ZM76.3085 23.0045H76.3105V20.6933C76.3105 18.5359 76.3095 16.3795 76.3085 14.2201C76.3085 13.3166 76.3105 12.4152 76.3105 11.5147C76.3126 10.9667 76.3105 10.4207 76.3105 9.87578V7.85896C76.3095 7.82331 76.3044 7.78256 76.2901 7.752C76.2504 7.68172 76.2107 7.61246 76.1588 7.55338C75.9112 7.26919 75.6342 7.02269 75.3031 6.83323C75.0597 6.69368 74.803 6.58978 74.527 6.53274C74.4954 6.52663 74.4587 6.52255 74.4271 6.52968C74.2122 6.57858 73.9983 6.62747 73.7936 6.71303C73.5155 6.83017 73.2568 6.97074 73.0306 7.17038C72.8493 7.32928 72.6711 7.49532 72.4989 7.66338C72.2565 7.90174 72.0151 8.135 71.7309 8.32038C71.3856 8.54549 71.0107 8.66059 70.5992 8.63818C70.4577 8.63207 70.3161 8.62698 70.1745 8.62189C70.1205 8.61985 70.0655 8.62392 70.0095 8.62291C69.6917 8.61679 69.3739 8.60457 69.0581 8.67384C68.8625 8.7156 68.6833 8.78996 68.5172 8.89691C68.2249 9.08739 68.0466 9.37565 67.8704 9.66391C67.847 9.70058 67.8572 9.73623 67.8969 9.75763C67.9366 9.778 67.9784 9.79531 68.0222 9.81365C68.2412 9.89819 68.4622 9.98172 68.671 10.0978C68.9318 10.2404 69.1793 10.4095 69.4003 10.6092C69.7742 10.9473 70.1042 11.3232 70.3303 11.7846C70.4271 11.9822 70.5228 12.1819 70.5972 12.3876C70.6288 12.4752 70.6339 12.569 70.6665 12.6545C70.7673 12.9265 70.7805 13.2097 70.805 13.4949C70.8101 13.559 70.803 13.6242 70.806 13.6864C70.8152 13.8137 70.7785 13.9349 70.7225 14.0408C70.6461 14.1845 70.5371 14.3097 70.3914 14.3902C70.1714 14.5135 69.9453 14.5695 69.6957 14.4686C69.4604 14.3739 69.2903 14.214 69.1946 13.9838C69.1457 13.8707 69.1284 13.7403 69.1121 13.6171C69.0948 13.503 69.1019 13.3849 69.0897 13.2687C69.0815 13.1811 69.0591 13.0946 69.0398 13.009C69.0102 12.8929 68.9776 12.7798 68.9155 12.6749C68.8422 12.5476 68.7902 12.406 68.7026 12.2888C68.4398 11.9405 68.124 11.6461 67.7176 11.4679C67.6249 11.4291 67.5292 11.3976 67.4344 11.364C67.2267 11.2916 67.0138 11.255 66.7948 11.2499C66.751 11.2478 66.7092 11.2376 66.6654 11.2376C66.6236 11.2356 66.5798 11.2295 66.5432 11.2458C66.3894 11.3232 66.2315 11.3904 66.0654 11.4383C65.9035 11.4831 65.7426 11.53 65.5826 11.583C65.4105 11.64 65.2353 11.6909 65.0723 11.7683C64.8829 11.859 64.7015 11.97 64.5314 12.0984C64.178 12.3632 63.8816 12.6841 63.6147 13.0345C63.4487 13.2535 63.3193 13.4928 63.1981 13.7383C63.1319 13.8738 63.0585 14.0062 63.0107 14.1488C62.9384 14.3617 62.8416 14.5695 62.8161 14.7977C62.8131 14.8129 62.812 14.8282 62.8049 14.8425C62.7632 14.9382 62.756 15.037 62.7489 15.1389C62.7458 15.1908 62.7377 15.2428 62.7265 15.2937C62.7102 15.3772 62.6766 15.4597 62.6705 15.5453C62.6582 15.7093 62.6511 15.8743 62.6582 16.0414C62.6654 16.2573 62.6827 16.4743 62.6725 16.6933C62.6552 17.0905 62.6572 17.4878 62.6063 17.886C62.5717 18.1407 62.4942 18.3872 62.4739 18.6449C62.4698 18.6795 62.4535 18.7142 62.4433 18.7519C62.4341 18.7804 62.4219 18.8089 62.4189 18.8384C62.4117 19.0269 62.3048 19.1868 62.2844 19.3722C62.2844 19.3752 62.2834 19.3783 62.2824 19.3803C62.2111 19.5728 62.1398 19.7664 62.0705 19.9558C61.9839 20.1922 61.8668 20.4112 61.7344 20.621C61.5296 20.95 61.3524 21.2902 61.2465 21.6651C61.1782 21.9034 61.0947 22.1367 61.0825 22.3883C61.0825 22.3984 61.0794 22.4076 61.0784 22.4158C61.0407 22.6093 61.0234 22.8049 61.0152 23.0015C61 23.2928 61.0356 23.5821 61.0784 23.8713C61.0967 23.9956 61.112 24.1189 61.1446 24.2411C61.2057 24.4723 61.2791 24.6984 61.3616 24.9235C61.3921 25.003 61.4247 25.0825 61.4665 25.1588C61.5612 25.3442 61.657 25.5276 61.7843 25.6936C61.9411 25.8953 62.0919 26.1 62.2488 26.3007C62.3649 26.4514 62.4881 26.5961 62.6083 26.7428C62.7214 26.8823 62.8314 27.0198 62.9475 27.1573C62.9638 27.1767 62.9964 27.194 63.0239 27.194C63.0606 27.196 63.0769 27.1614 63.084 27.1258C63.0932 27.0921 63.0973 27.0565 63.1125 27.028C63.1899 26.8752 63.2663 26.7214 63.3499 26.5727C63.4711 26.3577 63.6025 26.151 63.7542 25.9564C63.9814 25.661 64.2442 25.4003 64.5162 25.1466C64.7912 24.891 65.0998 24.6883 65.4227 24.5059C65.601 24.4041 65.7914 24.3267 65.9768 24.2391C66.1296 24.1667 66.2834 24.0975 66.4505 24.0659C66.4719 24.0618 66.4912 24.0526 66.5116 24.0465C66.6593 24.0048 66.805 23.9508 66.9547 23.9263C67.081 23.906 67.2083 23.8958 67.3346 23.8662C67.5333 23.8214 67.7349 23.8092 67.9387 23.8143C68.1882 23.8174 68.4347 23.797 68.6812 23.7634C68.9481 23.7287 69.2038 23.6462 69.4472 23.5454C69.7222 23.4344 69.9871 23.2968 70.2285 23.1155C70.5371 22.8833 70.807 22.6144 71.0444 22.3108C71.1697 22.1519 71.2715 21.9788 71.3581 21.7934C71.4681 21.553 71.5914 21.3228 71.6464 21.06C71.683 20.8807 71.7319 20.7035 71.7584 20.5212C71.7818 20.3602 71.7767 20.1972 71.7879 20.0363C71.79 19.9691 71.789 19.8978 71.8114 19.8356C71.8796 19.6482 72.009 19.5077 72.1699 19.3905C72.2596 19.3243 72.3655 19.2948 72.4724 19.2673C72.5519 19.2428 72.6313 19.2326 72.7088 19.251C72.8992 19.2948 73.0754 19.3712 73.215 19.5158C73.3515 19.6584 73.4401 19.8183 73.433 20.0241C73.4258 20.2146 73.4289 20.405 73.4218 20.5945C73.4187 20.6841 73.4014 20.7717 73.3933 20.8593C73.3739 21.0661 73.3301 21.2647 73.2659 21.4613C73.2639 21.4695 73.2649 21.4797 73.2619 21.4888C73.2445 21.5459 73.2293 21.605 73.2119 21.664C73.2028 21.6895 73.1967 21.715 73.1865 21.7425C73.1671 21.7995 73.1468 21.8576 73.1264 21.9146C73.1152 21.9462 73.1009 21.9778 73.0907 22.0083C73.049 22.1183 73.0113 22.2263 72.9665 22.3322C72.9339 22.4066 72.8911 22.4738 72.8575 22.5461C72.7128 22.8558 72.5142 23.1339 72.3084 23.4048C72.1159 23.6646 71.8837 23.8907 71.6464 24.1077C71.2073 24.511 70.7082 24.8278 70.1572 25.058C70.0472 25.1038 69.9361 25.1487 69.8241 25.1884C69.7151 25.2301 69.6051 25.2689 69.492 25.2984C69.3372 25.3371 69.1824 25.3697 69.0255 25.4003C68.8778 25.4267 68.7301 25.4563 68.5814 25.4705C68.4266 25.4817 68.2687 25.4828 68.1128 25.4787C67.6932 25.4705 67.2888 25.5561 66.8915 25.6671C66.7316 25.7119 66.5798 25.7832 66.4311 25.8545C66.1561 25.9788 65.9065 26.1489 65.6743 26.3404C65.274 26.6725 64.9552 27.0677 64.725 27.5342C64.616 27.7542 64.5172 27.9773 64.4591 28.2177C64.451 28.2452 64.4377 28.2737 64.4296 28.3033C64.4133 28.3695 64.399 28.4336 64.3848 28.4978C64.3797 28.5345 64.3807 28.5681 64.3746 28.6007C64.343 28.8095 64.3196 29.0183 64.3196 29.2312C64.3196 29.3096 64.3063 29.3921 64.2788 29.4645C64.2523 29.5378 64.2299 29.603 64.2707 29.6763C64.2778 29.6875 64.2809 29.7038 64.2809 29.7191C64.2819 29.8322 64.2819 29.9463 64.2839 30.0593C64.2849 30.259 64.2656 30.4566 64.2972 30.6552C64.3359 30.8946 64.3603 31.135 64.3929 31.3754C64.397 31.41 64.4133 31.4456 64.4245 31.4803C64.4693 31.631 64.5151 31.7808 64.5651 31.9274C64.6302 32.1149 64.6924 32.3033 64.7749 32.4867C64.8615 32.6853 64.9664 32.8768 65.0703 33.0683C65.1935 33.2934 65.3351 33.5093 65.495 33.713C65.6743 33.9432 65.8841 34.1439 66.0899 34.3527C66.2814 34.5463 66.5034 34.699 66.7357 34.8345C66.7846 34.863 66.8151 34.8539 66.8396 34.8029C66.8661 34.7439 66.8844 34.6838 66.9129 34.6257C67.0107 34.4312 67.0983 34.2315 67.2093 34.0451C67.3234 33.8567 67.4609 33.6825 67.5913 33.5052C67.7258 33.3209 67.8745 33.1477 68.0487 33.0031C68.179 32.891 68.3145 32.7841 68.45 32.6781C68.7352 32.4571 69.0438 32.2758 69.3759 32.1342C69.4543 32.1006 69.5338 32.0731 69.6153 32.0436C69.7701 31.9875 69.9158 31.903 70.0879 31.8999C70.1052 31.8999 70.1246 31.8959 70.1429 31.8877C70.3303 31.8052 70.5361 31.8001 70.7337 31.7665C70.9018 31.737 71.077 31.7471 71.2471 31.7359C71.3724 31.7278 71.4875 31.7512 71.6015 31.8083C71.7655 31.8898 71.9092 31.9875 71.9937 32.1566C72.0202 32.2137 72.0365 32.2758 72.0681 32.3339C72.1363 32.4551 72.1343 32.5865 72.1047 32.7097C72.011 33.0988 71.7085 33.3881 71.2868 33.4146C71.1126 33.4258 70.9394 33.438 70.7663 33.4543C70.5738 33.4767 70.3914 33.5277 70.2142 33.5939C70.0553 33.656 69.9015 33.7355 69.7507 33.818C69.2964 34.0645 68.9369 34.4159 68.6619 34.8518C68.5661 35.0016 68.4918 35.1645 68.4143 35.3224C68.3787 35.3998 68.3512 35.4834 68.3267 35.5649C68.2931 35.682 68.2646 35.8012 68.2361 35.9214C68.2269 35.9601 68.2198 35.9988 68.2188 36.0385C68.2096 36.2168 68.2035 36.392 68.1933 36.5712C68.1923 36.6059 68.1821 36.6374 68.1719 36.67C68.1505 36.7464 68.1322 36.8238 68.1495 36.9053C68.1719 37.0215 68.2004 37.1366 68.229 37.2547C68.233 37.27 68.2442 37.2853 68.2514 37.3026C68.2687 37.3454 68.285 37.3892 68.3043 37.4299C68.341 37.5124 68.3705 37.597 68.4164 37.6713C68.5855 37.9453 68.8024 38.1715 69.0978 38.31C69.1538 38.3375 69.2119 38.3568 69.2679 38.3823C69.3728 38.4251 69.4767 38.4699 69.5817 38.5117C69.7008 38.5585 69.8241 38.6003 69.9412 38.6512C70.038 38.694 70.1358 38.7429 70.2285 38.7959C70.3619 38.8773 70.4984 38.9568 70.6196 39.0546C70.9048 39.2848 71.1116 39.5812 71.2542 39.9204C71.2858 39.9937 71.3112 40.0701 71.3347 40.1465C71.353 40.2005 71.3561 40.2586 71.3764 40.3136C71.4243 40.4501 71.4477 40.5865 71.4549 40.7302C71.4579 40.7903 71.4742 40.8483 71.4864 40.9094C71.4936 40.939 71.5078 40.9675 71.5119 40.9981C71.5282 41.1814 71.6056 41.3454 71.6759 41.5125C71.7767 41.7488 71.9336 41.9433 72.1332 42.1012C72.2952 42.2316 72.4867 42.31 72.6894 42.3243C72.9206 42.3426 73.1518 42.3487 73.382 42.2744C73.5572 42.2183 73.7335 42.1705 73.8975 42.0839C74.035 42.0095 74.1776 41.9403 74.308 41.8567C74.6196 41.654 74.8774 41.3933 75.1289 41.1234C75.1972 41.0531 75.2634 40.9777 75.3204 40.8972C75.5944 40.5112 75.8348 40.1078 75.9785 39.6525C76.0161 39.5282 76.0661 39.4111 76.1058 39.2909C76.1241 39.2359 76.1374 39.1819 76.1475 39.13C76.1812 38.9456 76.2107 38.7602 76.2443 38.5769C76.2769 38.4027 76.3126 38.2275 76.3126 38.0492C76.3105 37.6245 76.3105 37.2007 76.3105 36.779V24.6526C76.3105 24.3969 76.3085 24.1433 76.3085 23.8876V23.0045ZM74.2275 4.85205H74.6512C74.6685 4.86326 74.6869 4.87955 74.7042 4.88261C74.913 4.91928 75.1177 4.96206 75.3204 5.03336C75.4875 5.09244 75.6545 5.15254 75.8114 5.23301C76.0131 5.33283 76.2158 5.43062 76.3961 5.56609C76.6253 5.73823 76.8514 5.91954 77.0775 6.0978C77.1437 6.14873 77.1468 6.14873 77.2079 6.0978C77.4106 5.92769 77.6215 5.77083 77.8547 5.64554C77.9861 5.57831 78.1185 5.51516 78.252 5.45506C78.3691 5.40311 78.4893 5.35218 78.6115 5.31042C78.7603 5.25949 78.913 5.21569 79.0669 5.16985C79.1015 5.15763 79.1382 5.15152 79.1738 5.14541C79.2696 5.12605 79.3673 5.11078 79.4621 5.0904C79.5201 5.0792 79.5762 5.06392 79.6332 5.05679C79.9001 5.02521 80.1649 5.02521 80.4348 5.02216C80.6172 5.0191 80.7995 5.03744 80.9777 5.08938C81.1529 5.14133 81.3332 5.18004 81.5023 5.25644C81.9118 5.43775 82.2683 5.69341 82.5871 6.00409C82.8469 6.2567 83.0934 6.52459 83.345 6.7823C83.403 6.83934 83.4713 6.89231 83.5395 6.93814C83.5752 6.96157 83.6292 6.97583 83.674 6.97583C83.8013 6.97583 83.9256 6.96768 84.0498 6.96055C84.1761 6.95444 84.3014 6.94629 84.4277 6.93916C84.4664 6.93814 84.5011 6.93814 84.5377 6.9412C84.6213 6.94629 84.7028 6.95648 84.7853 6.96055C84.8637 6.96463 84.9432 6.96157 85.0226 6.96768C85.3506 6.99518 85.6725 7.04815 85.9862 7.15714C86.192 7.22946 86.3957 7.30688 86.578 7.42605C86.9274 7.64709 87.2279 7.92007 87.4744 8.2501C87.6496 8.48336 87.8085 8.72884 87.948 8.98145C88.0193 9.11183 88.0855 9.24425 88.1466 9.37667C88.2332 9.55391 88.3483 9.70058 88.5378 9.77596C88.6407 9.81874 88.7456 9.8605 88.8546 9.8931C89.0186 9.94505 89.1856 9.98375 89.3486 10.0377C89.5951 10.1182 89.8284 10.2191 90.0606 10.3362C90.3326 10.4757 90.5923 10.6326 90.8307 10.818C91.0629 10.9942 91.286 11.1837 91.4805 11.4016C91.6394 11.5738 91.7973 11.7459 91.9369 11.9323C92.1569 12.2298 92.3596 12.5415 92.5287 12.8735C92.6071 13.0283 92.6814 13.1872 92.7497 13.3462C92.7986 13.4562 92.8373 13.5702 92.878 13.6823C92.9188 13.7903 92.9616 13.8982 92.9942 14.0123C93.039 14.1661 93.0665 14.3271 93.1093 14.4829C93.152 14.6286 93.1836 14.7732 93.1928 14.926C93.1928 14.9464 93.1938 14.9688 93.2009 14.9902C93.2559 15.2041 93.2671 15.4261 93.2712 15.6461C93.2773 15.9273 93.2773 16.2094 93.26 16.4926C93.2427 16.7167 93.2671 16.9449 93.2753 17.17C93.2753 17.1812 93.2773 17.1903 93.2804 17.1985C93.2977 17.3177 93.3222 17.4338 93.3272 17.553C93.3405 17.7832 93.3853 18.0093 93.4301 18.2344C93.476 18.4585 93.5381 18.6795 93.5992 18.9016C93.6613 19.1196 93.7428 19.3325 93.8518 19.5311C93.9863 19.7817 94.1309 20.0292 94.2644 20.2808C94.352 20.4438 94.4334 20.6128 94.4946 20.7891C94.5282 20.8879 94.572 20.9836 94.5995 21.0834C94.6402 21.2311 94.7013 21.3737 94.7319 21.5224C94.7706 21.7058 94.8215 21.8851 94.8378 22.0725C94.849 22.1876 94.8826 22.3017 94.9051 22.4158C94.9112 22.4545 94.9183 22.4922 94.9264 22.5319V23.6727C94.8989 23.8296 94.8663 23.9844 94.8429 24.1433C94.8042 24.4204 94.7462 24.6913 94.6636 24.9592C94.6423 25.0407 94.5974 25.1201 94.5822 25.2016C94.5526 25.3503 94.4905 25.4868 94.4283 25.6233C94.3703 25.7476 94.3031 25.8678 94.2491 25.9941C94.1248 26.2712 93.9628 26.5258 93.7856 26.7662C93.5809 27.0463 93.3588 27.3122 93.1429 27.5851C92.9901 27.7777 92.8261 27.9681 92.6774 28.1658C92.4726 28.4347 92.2648 28.7005 92.0856 28.9847C91.946 29.1996 91.8146 29.4176 91.724 29.656C91.6842 29.7527 91.672 29.8556 91.672 29.9626C91.6781 30.204 91.6741 30.4474 91.6741 30.6878C91.6741 30.7082 91.67 30.7306 91.6679 30.752C91.6496 30.8813 91.6323 31.0127 91.614 31.1421C91.6007 31.247 91.5936 31.3509 91.5712 31.4528C91.5396 31.6076 91.4876 31.7614 91.4612 31.9162C91.4408 32.0395 91.4001 32.1536 91.3613 32.2687C91.3552 32.2911 91.3512 32.3125 91.345 32.3308C91.3063 32.4479 91.2717 32.5671 91.2299 32.6802C91.1882 32.7892 91.1444 32.8971 91.0985 33.0041C91.013 33.1966 90.9244 33.3881 90.8357 33.5796C90.8195 33.6193 90.7879 33.6499 90.7675 33.6886C90.687 33.8322 90.6167 33.982 90.5261 34.1225C90.4222 34.2885 90.3051 34.4464 90.1971 34.6104C90.0076 34.8905 89.7774 35.1401 89.5472 35.3846C89.427 35.5139 89.2824 35.6239 89.15 35.7411C89.0878 35.7971 89.0247 35.8572 88.9534 35.9051C88.7201 36.0619 88.492 36.228 88.2363 36.3553C88.1028 36.4205 87.9918 36.5213 87.9439 36.6711C87.8961 36.8198 87.8482 36.9675 87.8024 37.1162C87.7922 37.1467 87.7891 37.1773 87.782 37.2058C87.7677 37.2812 87.7535 37.3566 87.7361 37.4299C87.7188 37.4982 87.6944 37.5644 87.674 37.6336C87.6506 37.7131 87.6353 37.7966 87.6058 37.871C87.5019 38.1205 87.3939 38.366 87.2554 38.6003C87.0241 38.9965 86.7176 39.3204 86.3335 39.573C86.0656 39.7523 85.7672 39.8796 85.4718 40.0029C85.4209 40.0243 85.371 40.0528 85.318 40.064C85.152 40.1037 85.0022 40.1781 84.8545 40.2616C84.7354 40.3278 84.6406 40.4277 84.5795 40.5519C84.5276 40.6609 84.4878 40.778 84.4939 40.9054C84.495 40.9339 84.4939 40.9675 84.4878 40.995C84.4491 41.1763 84.4145 41.3566 84.3666 41.5339C84.3279 41.6785 84.2678 41.818 84.223 41.9596C84.1517 42.1786 84.0498 42.3783 83.9317 42.5738C83.6933 42.9629 83.3877 43.2909 82.9976 43.5323C82.8184 43.6474 82.6319 43.7381 82.4323 43.8196C82.2276 43.9051 82.0096 43.9418 81.7926 43.9805C81.7641 43.9856 81.7325 43.9968 81.706 44.005H81.0236C80.9502 43.9907 80.8789 43.9775 80.8066 43.9632C80.6457 43.9245 80.4868 43.8858 80.3279 43.842C80.1944 43.8023 80.063 43.7636 79.9378 43.7045C79.732 43.6108 79.5324 43.5018 79.3307 43.3989C79.075 43.2685 78.8479 43.0974 78.6258 42.913C78.3569 42.693 78.1124 42.4435 77.8802 42.1817C77.6082 41.8761 77.3831 41.542 77.1916 41.1875C77.1824 41.1682 77.1641 41.1509 77.1437 41.1284C77.1254 41.1529 77.1122 41.1733 77.0999 41.1896C76.9787 41.376 76.8728 41.5756 76.7383 41.7569C76.557 41.9983 76.3584 42.2265 76.1618 42.4608C76.0131 42.635 75.8277 42.7715 75.6495 42.9191C75.2237 43.2736 74.7561 43.5558 74.2356 43.7462C74.039 43.8216 73.8425 43.8888 73.6367 43.9214C73.5247 43.9388 73.4136 43.9612 73.3026 43.9805C73.2782 43.9856 73.2568 43.9968 73.2323 44.005H72.5336C72.4011 43.9744 72.2708 43.9418 72.1404 43.9102C72.0844 43.9001 72.0273 43.8858 71.9713 43.8654C71.7828 43.7992 71.6015 43.7187 71.4274 43.622C71.0861 43.4244 70.7887 43.1799 70.5503 42.8601C70.3629 42.6125 70.2132 42.3426 70.094 42.0564C70.0604 41.979 70.0278 41.8985 70.0023 41.818C69.9606 41.6877 69.9198 41.5542 69.8862 41.4228C69.8546 41.3006 69.8302 41.1763 69.8057 41.0531C69.7976 41.0123 69.7874 40.9675 69.7864 40.9288C69.7823 40.8035 69.765 40.6864 69.7151 40.5713C69.658 40.4409 69.5776 40.34 69.4625 40.2738C69.3372 40.2036 69.2017 40.1486 69.0683 40.0946C68.8931 40.0243 68.7128 39.9642 68.5376 39.8908C68.2901 39.791 68.0629 39.6525 67.8439 39.4977C67.4793 39.2379 67.2012 38.9028 66.9812 38.5178C66.9414 38.4455 66.9058 38.3701 66.8691 38.2967C66.7805 38.1246 66.7011 37.9494 66.6471 37.762C66.6094 37.6275 66.5717 37.491 66.533 37.3545C66.5167 37.3005 66.4841 37.2466 66.48 37.1895C66.4698 37.0663 66.4301 36.9501 66.3985 36.834C66.3486 36.6507 66.2732 36.4796 66.093 36.3828C66.0339 36.3492 65.9789 36.3084 65.9188 36.2819C65.6886 36.1679 65.4818 36.0161 65.2811 35.8623C64.9409 35.6025 64.6353 35.3051 64.3674 34.972C64.2085 34.7775 64.0659 34.5687 63.9162 34.367C63.7329 34.1205 63.5913 33.8485 63.4527 33.5755C63.3651 33.4064 63.2847 33.2353 63.2073 33.0622C63.1339 32.8931 63.0636 32.724 63.0015 32.5508C62.9557 32.4245 62.9221 32.2952 62.8833 32.1668C62.8681 32.1138 62.8457 32.0619 62.8314 32.0089C62.81 31.9264 62.7917 31.8429 62.7723 31.7594C62.7642 31.7237 62.7591 31.687 62.7519 31.6524C62.7336 31.5587 62.7153 31.466 62.6969 31.3733C62.6837 31.3132 62.6643 31.2541 62.6582 31.194C62.645 31.0351 62.645 30.8742 62.6226 30.7184C62.6042 30.591 62.6012 30.4668 62.6002 30.3405C62.6002 30.1877 62.6032 30.0339 62.6002 29.8821C62.5981 29.823 62.5971 29.7639 62.5778 29.7099C62.5391 29.603 62.4973 29.496 62.4413 29.3983C62.3465 29.2281 62.2477 29.058 62.1337 28.8971C61.9208 28.5915 61.7048 28.291 61.4787 27.9987C61.1884 27.6259 60.8879 27.2612 60.5935 26.8935C60.4428 26.7051 60.3083 26.5085 60.1892 26.2997C60.1219 26.1805 60.0588 26.0572 59.9966 25.934C59.905 25.7527 59.8174 25.5724 59.7542 25.3789C59.7247 25.2892 59.6941 25.1996 59.6656 25.11C59.6198 24.9735 59.5586 24.839 59.5311 24.6995C59.5097 24.5752 59.4843 24.4489 59.4588 24.3236C59.4374 24.2217 59.4313 24.1168 59.416 24.0139C59.3875 23.8469 59.3519 23.6819 59.3519 23.5128C59.3519 23.252 59.3498 22.9923 59.3529 22.7295C59.3559 22.6266 59.3682 22.5217 59.3824 22.4188C59.4008 22.2925 59.4242 22.1652 59.4466 22.0379C59.4721 21.8881 59.4975 21.7394 59.5271 21.5876C59.5291 21.5734 59.5342 21.5581 59.5383 21.5428C59.5658 21.4461 59.5963 21.3503 59.6248 21.2525C59.6554 21.1537 59.6809 21.0519 59.7196 20.9551C59.7919 20.7768 59.8734 20.6016 59.9467 20.4234C60.0374 20.2044 60.1535 19.9996 60.2778 19.8C60.4 19.6065 60.4988 19.4058 60.5803 19.1939C60.6781 18.9393 60.7341 18.6755 60.8105 18.4178C60.8299 18.3597 60.8309 18.2965 60.8441 18.2364C60.8553 18.1825 60.8665 18.1295 60.8777 18.0755C60.8879 18.0276 60.8991 17.9787 60.9062 17.9309C60.9256 17.7893 60.9429 17.6477 60.9623 17.5041C60.9755 17.4114 61.001 17.3217 61.003 17.2301C61.0101 16.8837 61.0071 16.5374 61.0112 16.1911C61.0152 15.8937 61.0203 15.5973 61.0305 15.2988C61.0356 15.1959 61.0672 15.0941 61.0774 14.9922C61.0967 14.8211 61.1069 14.65 61.1711 14.487C61.1843 14.4523 61.1843 14.4147 61.1945 14.379C61.2291 14.2425 61.2577 14.107 61.3035 13.9746C61.3646 13.7903 61.442 13.613 61.5031 13.4317C61.5887 13.1771 61.7211 12.9448 61.8444 12.7095C61.931 12.5455 62.0379 12.3897 62.1398 12.2328C62.3465 11.9109 62.5859 11.6176 62.8579 11.3497C62.9934 11.2163 63.137 11.091 63.2786 10.9647C63.4792 10.7803 63.7054 10.6336 63.9356 10.4951C64.0883 10.4034 64.2473 10.3219 64.4082 10.2476C64.5579 10.1773 64.7138 10.1213 64.8686 10.0632C64.9521 10.0337 65.0387 10.0123 65.1243 9.98681C65.2964 9.93282 65.4675 9.87884 65.6407 9.82282C65.8149 9.76679 65.9656 9.67614 66.0573 9.51011C66.1378 9.3675 66.2142 9.2198 66.2895 9.07313C66.4719 8.72273 66.6756 8.38863 66.9435 8.09629C67.1105 7.91192 67.2806 7.72959 67.4813 7.5819C67.6962 7.423 67.9234 7.28956 68.179 7.20196C68.398 7.12658 68.614 7.05121 68.8442 7.02574C68.8564 7.0237 68.8676 7.02269 68.8798 7.02065C69.0632 6.96768 69.2486 6.96157 69.437 6.95953C69.547 6.9575 69.656 6.94425 69.765 6.93814C69.8088 6.93712 69.8516 6.93814 69.8944 6.9412C69.9962 6.94629 70.095 6.95648 70.1969 6.96055C70.3405 6.96564 70.4862 6.96463 70.6298 6.96972C70.696 6.97379 70.7592 6.96463 70.8121 6.92286C70.9191 6.84239 71.0332 6.76702 71.1309 6.67636C71.3581 6.46449 71.5771 6.24448 71.8012 6.03159C71.9071 5.93177 72.0151 5.83602 72.1282 5.74944C72.4378 5.51618 72.7699 5.32876 73.1325 5.19634C73.1875 5.17698 73.2425 5.1505 73.2985 5.14337C73.4421 5.12402 73.5766 5.07003 73.709 5.01503C73.8537 4.95493 74.0034 4.91113 74.1572 4.88566C74.1816 4.88057 74.2051 4.86326 74.2275 4.85205Z" fill="black"/>
<path d="M75.9713 13.7202C75.9774 14.0451 75.8073 14.2682 75.5608 14.4485C75.4549 14.5259 75.3337 14.5524 75.2043 14.5493C74.9599 14.5432 74.7123 14.533 74.4668 14.5249C74.4353 14.5228 74.4006 14.5259 74.368 14.5249C74.0706 14.5086 73.7905 14.5819 73.5124 14.6766C73.1508 14.7979 72.8361 14.9955 72.5509 15.2399C72.3207 15.4335 72.1393 15.6667 71.9794 15.9214C71.8735 16.0884 71.79 16.2657 71.7207 16.449C71.6708 16.5855 71.6484 16.7322 71.6127 16.8758C71.5903 16.9654 71.5689 17.0571 71.5465 17.1508C71.5404 17.1804 71.5363 17.2109 71.5272 17.2405C71.5129 17.3026 71.4956 17.3647 71.4793 17.4269L71.4518 17.5338C71.4426 17.5654 71.4386 17.6 71.4253 17.6306C71.3377 17.8374 71.2562 18.0462 71.1564 18.2458C71.0831 18.3966 70.9873 18.5361 70.8977 18.6797C70.6318 19.1086 70.2651 19.4447 69.8872 19.7676C69.6499 19.9693 69.3769 20.1211 69.0968 20.2535C69.0021 20.2983 68.9104 20.3472 68.8146 20.3849C68.7077 20.4317 68.5987 20.4745 68.4867 20.5091C68.343 20.5519 68.1964 20.5794 68.0517 20.6212C67.8022 20.6935 67.5434 20.6996 67.2878 20.7231C67.0993 20.7414 66.9088 20.7444 66.7184 20.7057C66.6868 20.6996 66.6522 20.6996 66.6175 20.6996C66.4515 20.7017 66.2865 20.6752 66.1317 20.6151C65.9442 20.5458 65.8088 20.4144 65.6977 20.2484C65.6101 20.118 65.6101 19.9723 65.5786 19.8297C65.6061 19.5496 65.7079 19.3143 65.9503 19.1463C66.0817 19.0546 66.2305 19.0281 66.3792 18.9935C66.4097 18.9863 66.4454 18.9925 66.479 19.0006C66.6348 19.0403 66.7937 19.0495 66.9526 19.0495C67.0107 19.0495 67.0708 19.0464 67.1289 19.0505C67.4049 19.0699 67.6697 19.0057 67.9325 18.9293C68.4092 18.7908 68.8136 18.5331 69.161 18.1837C69.3942 17.9504 69.5766 17.6846 69.7141 17.3871C69.7599 17.2894 69.8098 17.1926 69.8414 17.0917C69.8811 16.9654 69.9127 16.832 69.9382 16.6996C69.9575 16.5977 69.9677 16.4959 70.0054 16.396C70.0308 16.3207 70.041 16.2402 70.0614 16.1628C70.0879 16.0701 70.1164 15.9743 70.15 15.8847C70.2427 15.6301 70.3629 15.3897 70.4913 15.1513C70.6115 14.9293 70.7673 14.7316 70.9262 14.5351C71.1819 14.2162 71.4834 13.9473 71.8073 13.7018C72.012 13.548 72.2382 13.4227 72.4714 13.3127C72.5763 13.2628 72.6812 13.2099 72.7872 13.163C72.8534 13.1335 72.9237 13.108 72.9929 13.0856C73.16 13.0367 73.324 12.9715 73.4992 12.9511C73.5929 12.9399 73.6825 12.9084 73.7773 12.8931C74.0961 12.8401 74.419 12.8208 74.7398 12.8472C74.97 12.8656 75.2074 12.8656 75.4274 12.9552C75.627 13.0336 75.788 13.1589 75.8776 13.3627C75.8847 13.3779 75.8939 13.3963 75.9 13.4126C75.9754 13.5501 75.9683 13.5654 75.9713 13.7202Z" fill="black"/>
<path d="M80.7995 14.516C80.6172 14.5272 80.4389 14.5425 80.2576 14.5456C80.1333 14.5476 80.008 14.5333 79.8827 14.5252C79.8705 14.5242 79.8573 14.5201 79.8471 14.515C79.6749 14.4142 79.5273 14.2991 79.4234 14.1177C79.3337 13.9548 79.3174 13.7908 79.3296 13.6135C79.3388 13.4872 79.403 13.3874 79.461 13.2825C79.5588 13.1114 79.7086 13.0115 79.8939 12.9453C80.0243 12.8985 80.1567 12.8913 80.2892 12.8689C80.5367 12.8282 80.7842 12.8312 81.0327 12.8465C81.2762 12.8608 81.5217 12.8761 81.761 12.9433C81.8955 12.98 82.035 13.0064 82.1705 13.0492C82.3172 13.0961 82.4679 13.148 82.6055 13.2132C82.8153 13.311 83.0231 13.4129 83.2217 13.527C83.4906 13.6838 83.7341 13.8743 83.9531 14.0953C84.0794 14.2216 84.2036 14.35 84.3269 14.4783C84.4899 14.6494 84.6202 14.846 84.7404 15.0498C84.7954 15.1394 84.8464 15.228 84.8973 15.3197C84.9808 15.4684 85.043 15.6242 85.0919 15.7862C85.097 15.7933 85.098 15.8035 85.1031 15.8107C85.207 16.0123 85.2457 16.2344 85.3007 16.4503C85.3272 16.5532 85.3373 16.6602 85.3598 16.7661C85.3689 16.814 85.3801 16.8618 85.3974 16.9077C85.4433 17.0411 85.4891 17.1725 85.538 17.3049C85.5553 17.3477 85.5737 17.3885 85.5961 17.4292C85.7662 17.7592 85.9699 18.0638 86.2551 18.3042C86.4568 18.4753 86.6707 18.6352 86.907 18.7544C87.1474 18.8726 87.402 18.9469 87.6628 19.0091C87.7891 19.0396 87.9154 19.0478 88.0448 19.0498C88.1945 19.0508 88.3412 19.0508 88.4879 19.0437C88.5877 19.0376 88.6875 19.0162 88.7894 19.007C88.8434 19.0019 88.9024 18.9968 88.9595 19.0029C89.2172 19.0284 89.4138 19.1659 89.5635 19.3686C89.644 19.4766 89.7071 19.5978 89.7031 19.7404C89.7031 19.8199 89.7071 19.9003 89.702 19.9798C89.6939 20.0918 89.6297 20.1804 89.5768 20.2742C89.4484 20.5054 89.2345 20.6144 88.9829 20.6643C88.9065 20.6775 88.825 20.6836 88.7456 20.6938C88.5093 20.7213 88.2699 20.7397 88.0315 20.7295C87.9928 20.7295 87.9511 20.7254 87.9124 20.7213C87.8472 20.7132 87.781 20.7081 87.7127 20.6979C87.5854 20.6775 87.4581 20.6592 87.3307 20.6378C87.3053 20.6337 87.2768 20.6225 87.2513 20.6215C87.0527 20.6052 86.8795 20.5186 86.6941 20.4646C86.4792 20.3994 86.2836 20.2955 86.0819 20.1947C85.8507 20.0776 85.6388 19.936 85.43 19.7822C85.1907 19.607 84.9829 19.3992 84.7842 19.1822C84.6029 18.9846 84.44 18.7738 84.3065 18.5415C84.223 18.3999 84.1354 18.2624 84.0671 18.1178C84.005 17.9915 83.9622 17.856 83.9093 17.7256C83.8013 17.4465 83.732 17.1593 83.678 16.8669C83.6587 16.7366 83.619 16.6092 83.5762 16.486C83.5354 16.3617 83.4876 16.2374 83.4315 16.1183C83.3796 16.0144 83.3175 15.9156 83.2513 15.8188C83.0536 15.5183 82.8092 15.2626 82.5148 15.0538C82.3457 14.9326 82.1644 14.8297 81.9709 14.7493C81.8588 14.7024 81.7417 14.6647 81.6245 14.626C81.5482 14.6026 81.4707 14.5873 81.3954 14.5618C81.2854 14.5282 81.1713 14.5272 81.0582 14.5242H80.8015C80.8015 14.5211 80.8015 14.5191 80.7995 14.516Z" fill="black"/>
<path d="M90.414 41.8714C90.5607 41.8714 90.6422 41.7981 90.6422 41.6911C90.6422 41.5781 90.5607 41.5118 90.414 41.5118H90.1451V41.8714H90.414ZM89.7214 41.1543H90.4385C90.8052 41.1543 91.066 41.3091 91.066 41.6595C91.066 41.8948 90.9437 42.0588 90.7563 42.1322L91.1138 42.6537H90.6259L90.3244 42.2045H90.1451V42.6537H89.7214V41.1543ZM91.5946 41.9285V41.9203C91.5946 41.2277 91.0578 40.6583 90.3407 40.6583C89.6318 40.6583 89.0858 41.2358 89.0858 41.9285V41.9356C89.0858 42.6282 89.6246 43.1986 90.3407 43.1986C91.0497 43.1986 91.5946 42.6201 91.5946 41.9285ZM88.9238 41.9356V41.9285C88.9238 41.1543 89.5503 40.5024 90.3407 40.5024C91.1393 40.5024 91.7576 41.1462 91.7576 41.9203V41.9285C91.7576 42.7016 91.1301 43.3535 90.3407 43.3535C89.5431 43.3535 88.9238 42.7097 88.9238 41.9356Z" fill="black"/>
</svg>
