<svg width="48" height="48" viewBox="0 0 48 48" fill="none" xmlns="http://www.w3.org/2000/svg">
<path d="M22.0323 9.16886C15.8751 6.60061 0 19.0976 0 29.6353C0 35.8043 7.801 41.9998 20.6938 41.9998C36.4886 41.9998 44.0915 31.2503 41.4679 25.9815C39.7951 22.6219 35.5516 22.3277 35.2839 21.4275C35.1107 20.845 37.2381 17.3501 34.9359 15.4703C31.0092 12.2641 24.3346 16.8736 23.5851 16.0528C23.1171 15.5404 25.3519 10.5535 22.0323 9.16886Z" fill="#E31C34"/>
<path d="M33.8028 28.417C34.3073 33.5744 28.2567 38.3734 20.2884 39.1359C12.32 39.8983 5.45141 36.3356 4.94687 31.1783C4.44234 26.0209 10.4929 21.2219 18.4613 20.4595C26.4296 19.697 33.2982 23.2597 33.8028 28.417Z" fill="white"/>
<path fill-rule="evenodd" clip-rule="evenodd" d="M25.7031 28.6825C26.6784 32.1295 24.1445 35.844 20.0434 36.9791C15.9423 38.1142 11.8271 36.2401 10.8517 32.7931C9.87631 29.3461 12.4102 25.6316 16.5113 24.4965C20.6124 23.3614 24.7277 25.2355 25.7031 28.6825ZM18.4083 30.9033C18.9506 32.0569 18.2817 33.5016 16.9144 34.1303C15.5471 34.7589 13.9992 34.3335 13.457 33.1799C12.9147 32.0264 13.5836 30.5817 14.9509 29.953C16.3181 29.3244 17.8661 29.7498 18.4083 30.9033ZM20.2016 30.3034C20.7343 30.0585 20.995 29.4955 20.7837 29.0461C20.5724 28.5966 19.9692 28.4308 19.4365 28.6758C18.9037 28.9207 18.6431 29.4837 18.8544 29.9331C19.0657 30.3826 19.6688 30.5484 20.2016 30.3034Z" fill="black"/>
<path d="M32.7572 6.71599C33.4875 6.53724 34.2528 6.44196 35.043 6.44196C40.2769 6.44196 44.5198 10.6383 44.5198 15.8147C44.5198 16.958 44.3136 18.0498 43.9375 19.0582C43.605 19.9499 44.0663 20.9395 44.9679 21.2684C45.8696 21.5973 46.8701 21.1411 47.2027 20.2494C47.7189 18.8652 48 17.3705 48 15.8147C48 8.73732 42.199 3 35.043 3C33.9688 3 32.9228 3.12966 31.9211 3.37484C30.9882 3.60318 30.4191 4.53624 30.65 5.45887C30.8809 6.3815 31.8243 6.94433 32.7572 6.71599Z" fill="#FD9940"/>
<path d="M34.2948 12.7237C34.5332 12.6676 34.7834 12.6375 35.043 12.6375C36.8172 12.6375 38.2555 14.06 38.2555 15.8147C38.2555 16.1977 38.1877 16.5612 38.0649 16.8967C37.7376 17.7904 38.2049 18.7772 39.1085 19.1008C40.0121 19.4245 41.0099 18.9624 41.3371 18.0687C41.5956 17.3629 41.7357 16.6031 41.7357 15.8147C41.7357 12.159 38.7393 9.19552 35.043 9.19552C34.51 9.19552 33.9893 9.25749 33.4889 9.3753C32.554 9.5954 31.9765 10.5234 32.199 11.448C32.4216 12.3727 33.3599 12.9438 34.2948 12.7237Z" fill="#FD9940"/>
</svg>
