<svg width="250" height="82" viewBox="0 0 250 82" fill="none" xmlns="http://www.w3.org/2000/svg">
<path d="M239.042 0V0.5H244C247.038 0.5 249.5 2.96243 249.5 6V10.667H250V15.333H249.5V24.667H250V29.333H249.5V38.667H250V43.333H249.5V52.667H250V57.333H249.5V66.667H250V71.333H249.5V76C249.5 79.0376 247.038 81.5 244 81.5H239.042V82H234.083V81.5H224.167V82H219.208V81.5H209.292V82H204.333V81.5H194.417V82H189.458V81.5H179.542V82H174.583V81.5H164.667V82H159.708V81.5H149.792V82H144.833V81.5H134.917V82H129.958V81.5H120.042V82H115.083V81.5H105.167V82H100.208V81.5H90.292V82H85.333V81.5H75.417V82H70.458V81.5H60.542V82H55.583V81.5H45.667V82H40.708V81.5H30.792V82H25.833V81.5H15.917V82H10.958V81.5H6C2.96243 81.5 0.5 79.0376 0.5 76V71.333H0V66.667H0.5V57.333H0V52.667H0.5V43.333H0V38.667H0.5V29.333H0V24.667H0.5V15.333H0V10.667H0.5V6C0.5 2.96243 2.96243 0.5 6 0.5H10.958V0H15.917V0.5H25.833V0H30.792V0.5H40.708V0H45.667V0.5H55.583V0H60.542V0.5H70.458V0H75.417V0.5H85.333V0H90.292V0.5H100.208V0H105.167V0.5H115.083V0H120.042V0.5H129.958V0H134.917V0.5H144.833V0H149.792V0.5H159.708V0H164.667V0.5H174.583V0H179.542V0.5H189.458V0H194.417V0.5H204.333V0H209.292V0.5H219.208V0H224.167V0.5H234.083V0H239.042Z" stroke="#722ED1" stroke-dasharray="10 5"/>
<g clip-path="url(#clip0_0_988)">
<path fill-rule="evenodd" clip-rule="evenodd" d="M20 34.5L32.5 22H57.5L70 34.5L57.5 47L45 59.5L20 34.5ZM57.5 47L45 34.5L57.5 22V47Z" fill="#0D61FF"/>
</g>
<g clip-path="url(#clip1_0_988)">
<path fill-rule="evenodd" clip-rule="evenodd" d="M94 36.4488L103.449 27H122.346L131.795 36.4488L122.346 45.8976L112.898 55.3465L94 36.4488ZM122.346 45.8976L112.898 36.4488L122.346 27V45.8976Z" fill="#0D61FF"/>
<path d="M172.643 50.6214H176.516V42.3682C176.516 40.4717 177.717 39.5101 179.213 39.5101C180.575 39.5101 181.403 40.3115 181.403 42.1011V50.6214H185.25V42.3682C185.25 40.4717 186.451 39.5101 187.947 39.5101C189.336 39.5101 190.137 40.3115 190.137 42.1011V50.6214H193.984V41.6737C193.984 37.9611 191.98 36.3318 189.39 36.3318C187.627 36.3318 185.81 37.0796 184.689 38.7624C184.021 37.1063 182.632 36.3318 180.789 36.3318C178.706 36.3318 177.21 37.4802 176.516 38.789V36.6523H172.643V50.6214Z" fill="#17181A"/>
<path d="M164.1 50.9182C167.92 50.9182 170.324 49.2355 170.778 46.2173H167.119C166.878 47.3925 165.997 48.1671 164.207 48.1671C162.097 48.1671 160.842 46.8316 160.735 44.5078H170.805V43.4395C170.805 38.4448 167.599 36.3347 163.994 36.3347C159.934 36.3347 156.809 39.1926 156.809 43.5997V43.8135C156.809 48.274 159.88 50.9182 164.1 50.9182ZM160.788 42.1307C161.082 40.1542 162.257 39.0057 163.994 39.0057C165.837 39.0057 166.905 40.0207 167.039 42.1307H160.788Z" fill="#17181A"/>
<path d="M146.242 50.9172C151.958 50.9172 155.216 47.5251 155.216 42.4235V40.3936H146.643V43.5453H150.943C150.863 45.7356 149.554 47.5785 146.349 47.5785C142.609 47.5785 141.034 44.9343 141.034 41.2483V41.0347C141.034 37.1351 142.983 34.6511 146.295 34.6511C148.592 34.6511 150.062 35.666 150.435 37.9096H154.736C154.282 33.182 150.489 31.2322 146.242 31.2322C140.606 31.2322 136.52 35.2386 136.52 40.9813V41.1949C136.52 46.8574 139.992 50.9172 146.242 50.9172Z" fill="#17181A"/>
</g>
<defs>
<clipPath id="clip0_0_988">
<rect width="50" height="37.5" fill="white" transform="translate(20 22)"/>
</clipPath>
<clipPath id="clip1_0_988">
<rect width="100" height="28.3465" fill="white" transform="translate(94 27)"/>
</clipPath>
</defs>
</svg>
