<svg  viewBox="95 25 150 32" fill="none" xmlns="http://www.w3.org/2000/svg"><defs>
<clipPath id="clip0_0_545">
<rect width="50" height="40.5462" fill="white" transform="translate(20 21)"/>
</clipPath>
<clipPath id="clip1_0_545">
<rect width="100" height="27.8736" fill="white" transform="translate(108 27)"/>
</clipPath>
</defs><g clip-path="url(#clip0_0_545)">
<path fill-rule="evenodd" clip-rule="evenodd" d="M39.4608 53.0382L47.3328 61.3932L53.4877 51.476L69.8097 49.6928L67.1742 21.0615L20.0273 26.2579L22.6797 54.8892L39.4608 53.0382Z" fill="#1972F5"/>
</g><g clip-path="url(#clip1_0_545)">
<path fill-rule="evenodd" clip-rule="evenodd" d="M160.012 47.5684C160.978 47.619 161.942 47.4328 162.819 47.0259C163.697 46.619 164.462 46.0037 165.046 45.2339L163.163 43.4685C162.832 43.9632 162.381 44.3662 161.853 44.6402C161.324 44.9144 160.735 45.0507 160.139 45.0365C157.779 45.0365 156.174 43.2247 156.174 40.658C156.174 38.103 157.779 36.3144 160.139 36.3144C160.73 36.2895 161.318 36.415 161.846 36.6792C162.375 36.9432 162.828 37.3373 163.163 37.8242L165.046 36.117C164.464 35.3447 163.7 34.7284 162.822 34.323C161.943 33.9177 160.978 33.736 160.012 33.7942C156.035 33.7942 153.232 36.6977 153.232 40.658C153.232 44.63 156.023 47.5684 160.012 47.5684ZM170.058 47.2431V38.3004C170.639 37.348 172.232 36.5351 173.465 36.5351C173.814 36.5351 174.093 36.5583 174.337 36.6164V33.7826C173.504 33.8188 172.689 34.0373 171.95 34.4226C171.21 34.8079 170.564 35.3506 170.058 36.0124V34.1077H167.198V47.2431H170.058ZM177.709 32.505C178.178 32.505 178.628 32.319 178.959 31.988C179.29 31.6569 179.477 31.2079 179.477 30.7397C179.477 30.2715 179.29 29.8225 178.959 29.4914C178.628 29.1603 178.178 28.9744 177.709 28.9744C177.24 28.9744 176.791 29.1603 176.459 29.4914C176.128 29.8225 175.942 30.2715 175.942 30.7397C175.942 31.2079 176.128 31.6569 176.459 31.988C176.791 32.319 177.24 32.505 177.709 32.505ZM179.128 47.2548V34.0961H176.256V47.2315L179.128 47.2548ZM186.977 47.5684C190.512 47.5684 192.442 45.803 192.442 43.4685C192.442 38.2423 184.488 39.9844 184.488 37.6616C184.488 36.7441 185.418 36.0357 186.918 36.0357C188.581 36.0357 190.023 36.7441 190.814 37.6152L192.012 35.6059C190.6 34.3874 188.784 33.7374 186.918 33.7826C183.593 33.7826 181.744 35.6059 181.744 37.7545C181.744 42.8066 189.698 40.96 189.698 43.5499C189.698 44.5835 188.791 45.292 187.081 45.292C185.427 45.2492 183.846 44.6002 182.639 43.4685L181.337 45.501C182.875 46.8989 184.899 47.6408 186.977 47.5684ZM202 47.5684C200.337 47.5684 198.872 46.8134 197.779 45.4197V52.2487H194.93V34.1077H197.779V35.9079C198.267 35.2484 198.903 34.7124 199.636 34.3433C200.369 33.9741 201.179 33.7821 202 33.7826C205.407 33.7826 207.826 36.3376 207.826 40.658C207.826 44.9901 205.407 47.5684 202.012 47.5684H202ZM201.163 45.0365C203.418 45.0365 204.884 43.2247 204.884 40.658C204.884 38.103 203.418 36.3144 201.163 36.3144C199.826 36.3144 198.442 37.0693 197.791 38.0565V43.248C198.176 43.7858 198.681 44.2272 199.266 44.5375C199.852 44.8479 200.501 45.0185 201.163 45.0365Z" fill="#1972F5"/>
<path fill-rule="evenodd" clip-rule="evenodd" d="M121.453 49.0549L126.837 54.7689L131.046 47.9865L142.209 46.7669L140.406 27.1858L108.162 30.7397L109.976 50.3208L121.453 49.0549Z" fill="#1972F5"/>
</g></svg>