<svg  viewBox="20 16 50 50" fill="none" xmlns="http://www.w3.org/2000/svg"><defs>
<clipPath id="clip0_0_605">
<rect width="50" height="52.0408" fill="white" transform="translate(20 15)"/>
</clipPath>
<clipPath id="clip1_0_605">
<rect width="100" height="19.4656" fill="white" transform="translate(97 31)"/>
</clipPath>
</defs><g clip-path="url(#clip0_0_605)">
<path d="M31.9197 15H23.2115C22.4354 15 21.691 15.3083 21.1423 15.8571C20.5935 16.4059 20.2852 17.1501 20.2852 17.9262V35.3426C20.2852 35.7268 20.3608 36.1074 20.5079 36.4624C20.655 36.8174 20.8705 37.14 21.1423 37.4117C21.414 37.6835 21.7366 37.8991 22.0916 38.0461C22.4467 38.1932 22.8272 38.2689 23.2115 38.2689H31.9197C35.0053 38.2689 37.9646 37.0431 40.1464 34.8612C42.3283 32.6793 43.554 29.7201 43.554 26.6345C43.554 23.5488 42.3283 20.5894 40.1464 18.4076C37.9646 16.2257 35.0053 15 31.9197 15Z" fill="#F4C345"/>
<path d="M39.6774 20.8174H30.9692C30.585 20.8174 30.2045 20.8931 29.8494 21.0401C29.4944 21.1872 29.1718 21.4027 28.9001 21.6745C28.6283 21.9462 28.4128 22.2688 28.2657 22.6238C28.1187 22.9789 28.043 23.3594 28.043 23.7437V41.16C28.043 41.936 28.3513 42.6804 28.9001 43.2292C29.4488 43.778 30.1932 44.0863 30.9692 44.0863H39.6774C41.2053 44.0863 42.7182 43.7854 44.1298 43.2007C45.5413 42.616 46.8238 41.7589 47.9042 40.6785C48.9846 39.5982 49.8416 38.3157 50.4263 36.9041C51.011 35.4926 51.3119 33.9797 51.3119 32.4518C51.3119 29.3662 50.0861 26.407 47.9042 24.2251C45.7223 22.0432 42.7631 20.8174 39.6774 20.8174Z" fill="#FF7E69"/>
<path d="M47.4333 26.6345H38.7252C38.3409 26.6345 37.9604 26.7101 37.6054 26.8572C37.2503 27.0043 36.9277 27.2198 36.656 27.4916C36.3842 27.7633 36.1686 28.0858 36.0216 28.4409C35.8745 28.7959 35.7988 29.1764 35.7988 29.5606V46.977C35.7988 47.7531 36.1072 48.4975 36.656 49.0463C37.2047 49.5951 37.949 49.9034 38.7252 49.9034H47.4333C50.5189 49.9034 53.4782 48.6776 55.6602 46.4956C57.842 44.3138 59.0677 41.3545 59.0677 38.2689C59.0677 35.1833 57.842 32.2239 55.6602 30.0421C53.4782 27.8601 50.5189 26.6345 47.4333 26.6345Z" fill="#391145"/>
<path d="M55.1891 32.4519H46.4809C45.7048 32.4519 44.9605 32.7602 44.4117 33.3089C43.8628 33.8577 43.5546 34.6021 43.5546 35.3782V52.7945C43.5546 53.5706 43.8628 54.315 44.4116 54.8637C44.9605 55.4125 45.7048 55.7208 46.4809 55.7208H55.1891C58.2747 55.7208 61.234 54.495 63.4158 52.313C65.5977 50.1312 66.8234 47.172 66.8234 44.0863C66.8234 41.0007 65.5977 38.0415 63.4158 35.8596C61.234 33.6777 58.2747 32.4519 55.1891 32.4519Z" fill="#52A8CE"/>
<path d="M55.8273 66.7831L59.9017 62.8447C60.2555 62.5029 60.6832 62.2472 61.1517 62.0971C61.62 61.947 62.1167 61.9066 62.6032 61.9789L68.1134 62.7962C68.2912 62.8233 68.4733 62.7972 68.6363 62.7211C68.7995 62.6449 68.9363 62.5222 69.0298 62.3684C69.1232 62.2146 69.169 62.0364 69.1613 61.8566C69.1537 61.6768 69.093 61.5032 68.9869 61.3578L55.9289 43.549C55.815 43.3935 55.6549 43.2781 55.4717 43.219C55.2883 43.1599 55.091 43.1601 54.9079 43.2197C54.7246 43.2792 54.5649 43.3949 54.4513 43.5505C54.3378 43.7061 54.2762 43.8935 54.2753 44.0862V66.1294C54.2761 66.3088 54.3295 66.4842 54.4291 66.6334C54.5287 66.7827 54.6699 66.8994 54.8352 66.9691C55.0006 67.0387 55.1828 67.0583 55.3592 67.0253C55.5355 66.9922 55.6983 66.9079 55.8273 66.7831Z" fill="#391145"/>
</g></svg>