<svg width="208" height="57" viewBox="0 0 208 57" fill="none" xmlns="http://www.w3.org/2000/svg">
<path d="M73.3562 25.4552L72.1889 22.2372H67.4305L66.2632 25.4552H65.0045L69.2188 14.415H70.4174L74.615 25.4552H73.3562ZM71.8158 21.2119L70.184 16.6847C69.9962 16.1672 69.8783 15.8086 69.8254 15.6112H69.7941C69.7002 15.9626 69.5823 16.3212 69.4354 16.6847L67.8036 21.2095H71.8158V21.2119Z" fill="#8A84D6"/>
<path d="M76.6824 17.6811V19.1902C76.8798 18.6294 77.1734 18.2034 77.5681 17.9073C77.9629 17.6113 78.4346 17.4645 78.9834 17.4645C79.5442 17.4645 80.0159 17.6089 80.3986 17.9001C80.7813 18.1913 81.0556 18.6101 81.2217 19.1589C81.4504 18.5981 81.7681 18.1769 82.1772 17.8905C82.5864 17.6065 83.0654 17.4621 83.6165 17.4621C84.3723 17.4621 84.9619 17.7172 85.3807 18.225C85.7995 18.7329 86.0113 19.4477 86.0113 20.3719V25.4576H84.9234V20.4634C84.9234 19.7991 84.7862 19.2937 84.5119 18.9471C84.2375 18.6005 83.8307 18.4272 83.2916 18.4272C82.6995 18.4272 82.235 18.6318 81.8932 19.041C81.5515 19.4501 81.3806 20.0133 81.3806 20.7281V25.4552H80.3071V20.4008C80.3071 19.7678 80.1675 19.2816 79.8883 18.9399C79.6091 18.5981 79.2096 18.4272 78.6921 18.4272C78.1001 18.4272 77.6283 18.6535 77.2769 19.1035C76.9255 19.5536 76.7474 20.1577 76.7474 20.9159V25.4576H75.674V17.6835H76.6824V17.6811Z" fill="#8A84D6"/>
<path d="M93.9587 21.8473H88.3147C88.3243 22.7186 88.5529 23.407 88.9982 23.9148C89.4435 24.4226 90.0452 24.6778 90.8009 24.6778C91.3401 24.6778 91.7998 24.5334 92.1776 24.2421C92.5555 23.9509 92.8275 23.5417 92.9936 23.0146L93.9106 23.3877C93.6723 24.1146 93.2776 24.6705 92.7288 25.0604C92.1801 25.4504 91.5109 25.6429 90.7239 25.6429C89.6144 25.6429 88.7551 25.2963 88.1414 24.6007C87.53 23.9052 87.2244 22.9111 87.2244 21.6163C87.2244 20.3406 87.5325 19.3346 88.1486 18.6005C88.7648 17.864 89.6071 17.4958 90.6758 17.4958C91.7228 17.4958 92.5314 17.8038 93.1019 18.42C93.6723 19.0361 93.9563 19.9315 93.9563 21.1036V21.8473H93.9587ZM92.854 20.822C92.854 20.0229 92.6614 19.414 92.2787 18.9952C91.896 18.5764 91.3569 18.3646 90.6613 18.3646C89.9465 18.3646 89.3809 18.5957 88.9669 19.0578C88.5529 19.5199 88.3339 20.1553 88.3147 20.9616H92.8564V20.822H92.854Z" fill="#8A84D6"/>
<path d="M97.4029 18.0686C97.8217 17.6859 98.3223 17.4934 98.9023 17.4934C99.0275 17.4934 99.1262 17.4982 99.1984 17.5078V18.5644H99.0732C98.3777 18.5644 97.8241 18.7618 97.4101 19.1565C97.078 19.4886 96.8517 19.8858 96.7338 20.3455C96.6134 20.8076 96.5557 21.3226 96.5557 21.8931V25.4552H95.4822V17.6811H96.4931V19.5777C96.6808 18.9567 96.9841 18.4537 97.4029 18.0686Z" fill="#8A84D6"/>
<path d="M100.164 14.5715H101.391V16.2827H100.164V14.5715ZM100.241 25.4552V17.6811H101.314V25.4552H100.241Z" fill="#8A84D6"/>
<path d="M104.416 25.1447C103.882 24.8125 103.473 24.3408 103.189 23.7295C102.903 23.1181 102.761 22.3985 102.761 21.5681C102.761 20.3045 103.076 19.3081 103.709 18.5837C104.342 17.8592 105.201 17.4958 106.289 17.4958C107.179 17.4958 107.904 17.7437 108.457 18.2419C109.011 18.7401 109.336 19.4285 109.43 20.3094L108.325 20.4345C108.253 19.7919 108.034 19.2985 107.673 18.9567C107.312 18.6149 106.833 18.4441 106.243 18.4441C105.516 18.4441 104.948 18.7184 104.532 19.2672C104.118 19.816 103.911 20.5789 103.911 21.5537C103.911 22.5501 104.12 23.3203 104.542 23.8715C104.96 24.4202 105.545 24.6946 106.291 24.6946C106.871 24.6946 107.341 24.5237 107.699 24.182C108.058 23.8402 108.287 23.3468 108.393 22.7042L109.435 22.8606C109.29 23.7415 108.941 24.425 108.393 24.9136C107.844 25.3998 107.143 25.6453 106.294 25.6453C105.574 25.6429 104.951 25.4768 104.416 25.1447Z" fill="#8A84D6"/>
<path d="M110.838 25.0292C110.366 24.62 110.13 24.0785 110.13 23.4045C110.13 23.0315 110.21 22.6969 110.371 22.4009C110.532 22.1049 110.768 21.8594 111.079 21.662C111.627 21.3419 112.477 21.1084 113.63 20.9616L115.355 20.7594V20.6343C115.355 19.8352 115.209 19.2624 114.913 18.9158C114.617 18.5692 114.138 18.3959 113.473 18.3959C112.881 18.3959 112.419 18.5427 112.082 18.8388C111.745 19.1348 111.562 19.556 111.531 20.1072H110.364C110.405 19.3081 110.708 18.6751 111.273 18.2034C111.839 17.7316 112.566 17.4958 113.459 17.4958C114.506 17.4958 115.264 17.7509 115.736 18.2587C116.208 18.7666 116.443 19.5849 116.443 20.7161V22.7379C116.443 23.9292 116.525 24.8366 116.691 25.46H115.555C115.483 25.046 115.435 24.5261 115.416 23.9052C115.228 24.4539 114.898 24.8823 114.422 25.188C113.945 25.4937 113.375 25.6477 112.71 25.6477C111.935 25.6429 111.31 25.4383 110.838 25.0292ZM114.71 24.0014C115.151 23.5104 115.372 22.863 115.372 22.0663V21.5681L113.165 21.8786C112.501 21.9725 112.02 22.1385 111.719 22.3768C111.418 22.6151 111.269 22.9472 111.269 23.3709C111.269 23.7969 111.42 24.1314 111.728 24.3745C112.034 24.6176 112.446 24.7403 112.965 24.7403C113.685 24.7403 114.27 24.4948 114.71 24.0014Z" fill="#8A84D6"/>
<path d="M118.419 17.6811H119.445V19.3923C119.912 18.1071 120.797 17.4645 122.104 17.4645C122.976 17.4645 123.633 17.734 124.08 18.2732C124.526 18.8123 124.749 19.6066 124.749 20.6535V25.4576H123.661V20.7137C123.661 19.958 123.5 19.3875 123.18 19.0024C122.858 18.6198 122.393 18.4272 121.779 18.4272C121.074 18.4272 120.518 18.6896 120.107 19.2118C119.697 19.7365 119.493 20.4538 119.493 21.366V25.4552H118.419V17.6811Z" fill="#8A84D6"/>
<path d="M130.352 24.7403C129.611 24.0881 129.2 23.2216 129.115 22.1434L130.328 21.9725C130.422 22.7812 130.73 23.4431 131.253 23.9557C131.775 24.4684 132.531 24.7259 133.515 24.7259C134.283 24.7259 134.916 24.5502 135.419 24.1964C135.922 23.845 136.172 23.3251 136.172 22.6416C136.172 21.9677 135.987 21.4791 135.621 21.171C135.253 20.8653 134.69 20.6391 133.934 20.4947L132.302 20.1673C130.487 19.816 129.58 18.8291 129.58 17.2118C129.58 16.6004 129.732 16.0637 130.04 15.6016C130.345 15.1395 130.781 14.7833 131.347 14.5281C131.912 14.2754 132.572 14.1479 133.33 14.1479C134.471 14.1479 135.397 14.4126 136.112 14.9421C136.827 15.4716 137.231 16.2731 137.325 17.3514L136.112 17.5848C135.956 15.9361 135.019 15.113 133.298 15.113C132.552 15.113 131.953 15.2911 131.503 15.6497C131.053 16.0083 130.827 16.4921 130.827 17.1034C130.827 17.6522 130.985 18.0903 131.301 18.4176C131.616 18.7449 132.112 18.9808 132.786 19.1252L134.418 19.4525C135.361 19.6378 136.098 19.9652 136.625 20.4321C137.154 20.899 137.419 21.5922 137.419 22.5164C137.419 23.1278 137.27 23.6741 136.969 24.1579C136.668 24.6393 136.22 25.0219 135.623 25.3011C135.027 25.5803 134.309 25.7199 133.469 25.7199C132.134 25.7199 131.094 25.395 130.352 24.7403Z" fill="#8A84D6"/>
<path d="M139.816 25.1519C139.277 24.8246 138.861 24.3528 138.565 23.7367C138.269 23.1205 138.122 22.3961 138.122 21.5681C138.122 20.7378 138.269 20.0157 138.565 19.3996C138.861 18.7834 139.277 18.3117 139.816 17.9843C140.355 17.657 140.983 17.4934 141.698 17.4934C142.413 17.4934 143.039 17.657 143.573 17.9843C144.108 18.3117 144.522 18.7834 144.818 19.3996C145.114 20.0157 145.26 20.7402 145.26 21.5681C145.26 22.3985 145.114 23.1205 144.818 23.7367C144.522 24.3528 144.108 24.8246 143.573 25.1519C143.039 25.4792 142.416 25.6429 141.698 25.6429C140.981 25.6429 140.355 25.4792 139.816 25.1519ZM143.47 23.8859C143.896 23.3468 144.108 22.5742 144.108 21.5681C144.108 20.5621 143.896 19.7895 143.47 19.2503C143.044 18.7112 142.454 18.4416 141.696 18.4416C140.94 18.4416 140.346 18.7112 139.915 19.2503C139.484 19.7895 139.27 20.5621 139.27 21.5681C139.27 22.5742 139.484 23.3468 139.915 23.8859C140.346 24.425 140.938 24.6946 141.696 24.6946C142.454 24.6946 143.044 24.425 143.47 23.8859Z" fill="#8A84D6"/>
<path d="M147.629 25.1447C147.094 24.8125 146.685 24.3408 146.401 23.7295C146.115 23.1181 145.973 22.3985 145.973 21.5681C145.973 20.3045 146.288 19.3081 146.921 18.5837C147.554 17.8592 148.413 17.4958 149.504 17.4958C150.394 17.4958 151.119 17.7437 151.672 18.2419C152.226 18.7401 152.551 19.4285 152.645 20.3094L151.54 20.4345C151.468 19.7919 151.249 19.2985 150.888 18.9567C150.524 18.6149 150.048 18.4441 149.458 18.4441C148.731 18.4441 148.163 18.7184 147.747 19.2672C147.333 19.816 147.126 20.5789 147.126 21.5537C147.126 22.5501 147.335 23.3203 147.756 23.8715C148.175 24.4202 148.76 24.6946 149.506 24.6946C150.086 24.6946 150.555 24.5237 150.914 24.182C151.273 23.8402 151.501 23.3468 151.607 22.7042L152.649 22.8606C152.505 23.7415 152.156 24.425 151.607 24.9136C151.058 25.3998 150.358 25.6453 149.508 25.6453C148.786 25.6429 148.163 25.4768 147.629 25.1447Z" fill="#8A84D6"/>
<path d="M154.029 14.5715H155.256V16.2827H154.029V14.5715ZM154.106 25.4552V17.6811H155.179V25.4552H154.106Z" fill="#8A84D6"/>
<path d="M163.357 21.8473H157.713C157.723 22.7186 157.952 23.407 158.397 23.9148C158.842 24.4226 159.444 24.6778 160.2 24.6778C160.739 24.6778 161.198 24.5334 161.576 24.2421C161.954 23.9509 162.226 23.5417 162.392 23.0146L163.309 23.3877C163.071 24.1146 162.676 24.6705 162.128 25.0604C161.579 25.4504 160.91 25.6429 160.123 25.6429C159.013 25.6429 158.154 25.2963 157.543 24.6007C156.931 23.9052 156.626 22.9111 156.626 21.6163C156.626 20.3406 156.934 19.3346 157.55 18.6005C158.166 17.864 159.008 17.4958 160.077 17.4958C161.124 17.4958 161.933 17.8038 162.503 18.42C163.073 19.0361 163.357 19.9315 163.357 21.1036V21.8473ZM162.253 20.822C162.253 20.0229 162.06 19.414 161.677 18.9952C161.295 18.5764 160.756 18.3646 160.06 18.3646C159.345 18.3646 158.78 18.5957 158.366 19.0578C157.952 19.5199 157.733 20.1553 157.713 20.9616H162.255V20.822H162.253Z" fill="#8A84D6"/>
<path d="M164.944 17.6811V15.6281L166.031 15.1611V17.6811H168.036V18.5837H166.031V23.2481C166.031 23.7054 166.133 24.0375 166.335 24.2518C166.537 24.4636 166.84 24.5695 167.244 24.5695C167.464 24.5695 167.726 24.5334 168.036 24.4611V25.4552C167.716 25.549 167.358 25.5948 166.963 25.5948C166.248 25.5948 165.731 25.395 165.415 24.9955C165.1 24.5959 164.941 24.0279 164.941 23.2938V18.5837H163.511V17.6811H164.944Z" fill="#8A84D6"/>
<path d="M168.816 28.5191V27.5539C169.004 27.5852 169.184 27.5997 169.36 27.5997C169.846 27.5997 170.231 27.4673 170.511 27.2025C170.79 26.9378 171.028 26.5262 171.225 25.9654L171.428 25.3902L168.318 17.6763H169.531L171.615 23.2288C171.75 23.5802 171.863 23.934 171.957 24.2854H171.988C172.061 23.9942 172.169 23.638 172.316 23.212L174.212 17.6763H175.38L172.347 25.9486C172.005 26.8921 171.608 27.566 171.158 27.9703C170.708 28.3747 170.154 28.5768 169.502 28.5768C169.252 28.5817 169.023 28.56 168.816 28.5191Z" fill="#8A84D6"/>
<path d="M180.463 25.1519C179.924 24.8246 179.507 24.3528 179.211 23.7367C178.915 23.1205 178.768 22.3961 178.768 21.5681C178.768 20.7378 178.915 20.0157 179.211 19.3996C179.507 18.7834 179.924 18.3117 180.463 17.9843C181.002 17.657 181.63 17.4934 182.345 17.4934C183.06 17.4934 183.686 17.657 184.22 17.9843C184.754 18.3117 185.168 18.7834 185.464 19.3996C185.76 20.0157 185.907 20.7402 185.907 21.5681C185.907 22.3985 185.76 23.1205 185.464 23.7367C185.168 24.3528 184.754 24.8246 184.22 25.1519C183.686 25.4792 183.062 25.6429 182.345 25.6429C181.628 25.6429 181.002 25.4792 180.463 25.1519ZM184.116 23.8859C184.542 23.3468 184.754 22.5742 184.754 21.5681C184.754 20.5621 184.542 19.7895 184.116 19.2503C183.69 18.7112 183.101 18.4416 182.343 18.4416C181.587 18.4416 180.992 18.7112 180.561 19.2503C180.131 19.7895 179.916 20.5621 179.916 21.5681C179.916 22.5742 180.131 23.3468 180.561 23.8859C180.992 24.425 181.584 24.6946 182.343 24.6946C183.101 24.6946 183.69 24.425 184.116 23.8859Z" fill="#8A84D6"/>
<path d="M190.586 18.5837H188.564V25.4576H187.491V18.5837H186.03V17.6811H187.491V16.391C187.491 15.6858 187.686 15.1274 188.073 14.7111C188.461 14.2971 188.993 14.0901 189.667 14.0901C190.03 14.0901 190.336 14.1262 190.584 14.1984V15.1322C190.292 15.0817 190.035 15.0552 189.806 15.0552C189.371 15.0552 189.055 15.1756 188.858 15.4138C188.661 15.6521 188.562 16.0252 188.562 16.533V17.6835H190.584V18.5837H190.586Z" fill="#8A84D6"/>
<path d="M13.6304 12.7952C10.6146 16.2369 8.58326 20.5596 7.97192 25.3276L28.3217 18.0493L13.6304 12.7952Z" fill="#B6B8DD"/>
<path d="M54.8571 25.3276C54.2458 20.5596 52.2144 16.2345 49.1986 12.7952L34.5073 18.0493L54.8571 25.3276Z" fill="#B6B8DD"/>
<path d="M47.6126 11.1487C43.3814 7.16783 37.682 4.72729 31.4146 4.72729C25.1472 4.72729 19.4478 7.16783 15.2166 11.1511L31.4146 16.9444L47.6126 11.1487Z" fill="#8A84D6"/>
<path d="M7.79151 27.6068C7.78429 27.8571 7.77948 28.1098 7.77948 28.3625C7.77948 37.3689 12.8194 45.2007 20.23 49.1889L25.1231 21.4067L7.79151 27.6068Z" fill="#8A84D6"/>
<path d="M42.5992 49.1889C50.0122 45.2007 55.0498 37.3689 55.0498 28.3625C55.0498 28.1098 55.0449 27.8571 55.0377 27.6068L37.7061 21.4067L42.5992 49.1889Z" fill="#8A84D6"/>
<path d="M31.4146 19.156L27.3808 20.5977L22.182 50.1272C25.0197 51.333 28.1389 51.9997 31.4146 51.9997C34.6903 51.9997 37.812 51.333 40.6473 50.1272L35.4461 20.5977L31.4146 19.156Z" fill="#1226AA"/>
<path d="M73.2454 42.2573L72.4054 39.6748H68.3307L67.4907 42.2573H64.8648L68.877 31.2171H71.8783L75.8905 42.2573H73.2454ZM71.8013 37.8263L70.7904 34.748C70.7062 34.5097 70.6316 34.2642 70.5642 34.0091C70.4968 33.7539 70.4366 33.482 70.3861 33.1931H70.3548C70.3019 33.4844 70.2441 33.7563 70.1767 34.0091C70.1093 34.2642 70.0347 34.5097 69.9505 34.748L68.9396 37.8263H71.8013Z" fill="#1226AA"/>
<path d="M77.1349 34.4832H79.5297V35.9755C80.0688 34.8466 80.928 34.281 82.1122 34.281C82.9522 34.281 83.5852 34.5458 84.0088 35.0729C84.4348 35.6024 84.6466 36.3894 84.6466 37.4364V42.2573H82.1579V37.7782C82.1579 37.239 82.0617 36.8395 81.8691 36.5796C81.6766 36.3196 81.3853 36.1897 80.9906 36.1897C80.555 36.1897 80.2204 36.3509 79.987 36.671C79.7535 36.9935 79.638 37.4533 79.638 38.055V42.2525H77.1349V34.4832Z" fill="#1226AA"/>
<path d="M93.7733 38.9286H88.3772C88.3868 39.4581 88.5553 39.8769 88.8826 40.1874C89.21 40.4979 89.636 40.6543 90.1655 40.6543C90.9333 40.6543 91.4965 40.2909 91.8599 39.5665L93.6939 40.4064C93.3834 41.0491 92.9141 41.5497 92.2859 41.9059C91.6577 42.2645 90.9405 42.4426 90.1318 42.4426C88.8465 42.4426 87.8381 42.0912 87.1064 41.386C86.3747 40.6808 86.0089 39.7012 86.0089 38.4473C86.0089 37.6073 86.1701 36.8732 86.4902 36.2474C86.8103 35.6192 87.2701 35.1379 87.8669 34.8009C88.4638 34.464 89.1594 34.2955 89.9585 34.2955C91.1812 34.2955 92.1222 34.6348 92.7817 35.3136C93.4388 35.9923 93.7685 36.9478 93.7685 38.1825V38.9286H93.7733ZM91.3617 37.4677C91.3617 36.9189 91.2365 36.4977 90.9886 36.2089C90.7407 35.9177 90.3821 35.7733 89.9152 35.7733C89.4386 35.7733 89.068 35.9273 88.8032 36.233C88.5385 36.5387 88.3964 36.9719 88.3748 37.5327H91.3593V37.4677H91.3617Z" fill="#1226AA"/>
<path d="M96.0358 41.9685C95.3667 41.6532 94.8468 41.1887 94.4737 40.5773L95.9202 39.4894C96.469 40.3294 97.2897 40.7482 98.3776 40.7482C98.782 40.7482 99.0852 40.688 99.2874 40.5701C99.4896 40.4522 99.5906 40.2813 99.5906 40.0647C99.5906 39.836 99.5136 39.6675 99.3572 39.5592C99.2007 39.4509 98.9119 39.3643 98.4859 39.3017L97.3667 39.1453C95.7181 38.8974 94.8949 38.0983 94.8949 36.7505C94.8949 35.9947 95.1982 35.3954 95.8047 34.955C96.4112 34.5145 97.2488 34.2931 98.315 34.2931C99.1021 34.2931 99.8073 34.4303 100.431 34.7046C101.052 34.979 101.523 35.3545 101.846 35.831L100.556 36.9984C99.9445 36.3028 99.1719 35.9562 98.238 35.9562C97.8649 35.9562 97.5906 36.0091 97.4149 36.1126C97.2392 36.2161 97.1501 36.3774 97.1501 36.594C97.1501 36.7793 97.2199 36.9286 97.3595 37.0369C97.4991 37.1452 97.735 37.2222 98.0671 37.2631L99.4511 37.4797C100.26 37.5928 100.847 37.8504 101.215 38.2499C101.584 38.6494 101.766 39.191 101.766 39.8745C101.766 40.6736 101.463 41.2994 100.857 41.7567C100.25 42.214 99.4077 42.4402 98.3295 42.4402C97.4678 42.445 96.7024 42.2862 96.0358 41.9685Z" fill="#1226AA"/>
<path d="M102.387 34.4832H103.74V32.6179L106.229 31.6528V34.4832H108.08V36.1463H106.229V39.179C106.229 39.966 106.607 40.3607 107.365 40.3607C107.581 40.3607 107.82 40.3342 108.08 40.2837V42.2597C107.531 42.3632 107.059 42.4161 106.664 42.4161C105.658 42.4161 104.919 42.1923 104.448 41.747C103.976 41.3018 103.74 40.6423 103.74 39.771V36.1487H102.387V34.4832Z" fill="#1226AA"/>
<path d="M126.225 38.9286H120.829C120.838 39.4581 121.007 39.8769 121.334 40.1874C121.661 40.4979 122.087 40.6543 122.617 40.6543C123.385 40.6543 123.948 40.2909 124.311 39.5665L126.145 40.4064C125.835 41.0491 125.365 41.5497 124.737 41.9059C124.109 42.2645 123.392 42.4426 122.583 42.4426C121.298 42.4426 120.289 42.0912 119.558 41.386C118.826 40.6808 118.463 39.7012 118.463 38.4473C118.463 37.6073 118.624 36.8732 118.944 36.2474C119.264 35.6192 119.724 35.1379 120.321 34.8009C120.918 34.464 121.613 34.2955 122.412 34.2955C123.635 34.2955 124.576 34.6348 125.235 35.3136C125.893 35.9923 126.222 36.9478 126.222 38.1825V38.9286H126.225ZM123.815 37.4677C123.815 36.9189 123.69 36.4977 123.442 36.2089C123.194 35.9177 122.836 35.7733 122.369 35.7733C121.892 35.7733 121.522 35.9273 121.257 36.233C120.992 36.5387 120.85 36.9719 120.829 37.5327H123.813V37.4677H123.815Z" fill="#1226AA"/>
<path d="M128.487 41.9685C127.818 41.6532 127.298 41.1887 126.925 40.5773L128.372 39.4894C128.92 40.3294 129.741 40.7482 130.829 40.7482C131.233 40.7482 131.537 40.688 131.739 40.5701C131.941 40.4522 132.042 40.2813 132.042 40.0647C132.042 39.836 131.965 39.6675 131.809 39.5592C131.652 39.4509 131.363 39.3643 130.937 39.3017L129.818 39.1453C128.169 38.8974 127.346 38.0983 127.346 36.7505C127.346 35.9947 127.65 35.3954 128.256 34.955C128.863 34.5145 129.7 34.2931 130.766 34.2931C131.553 34.2931 132.259 34.4303 132.882 34.7046C133.503 34.979 133.975 35.3545 134.297 35.831L133.007 36.9984C132.396 36.3028 131.623 35.9562 130.689 35.9562C130.316 35.9562 130.042 36.0091 129.866 36.1126C129.691 36.2161 129.601 36.3774 129.601 36.594C129.601 36.7793 129.671 36.9286 129.811 37.0369C129.95 37.1452 130.186 37.2222 130.519 37.2631L131.902 37.4797C132.711 37.5928 133.298 37.8504 133.667 38.2499C134.035 38.6494 134.218 39.191 134.218 39.8745C134.218 40.6736 133.915 41.2994 133.308 41.7567C132.702 42.214 131.859 42.4402 130.781 42.4402C129.922 42.445 129.156 42.2862 128.487 41.9685Z" fill="#1226AA"/>
<path d="M141.58 41.9685C140.974 41.6532 140.497 41.1887 140.151 40.5773C139.804 39.966 139.631 39.2247 139.631 38.3534C139.631 37.4821 139.804 36.7432 140.151 36.1367C140.497 35.5302 140.974 35.0705 141.58 34.76C142.187 34.4495 142.878 34.2931 143.655 34.2931C144.432 34.2931 145.128 34.4495 145.739 34.76C146.351 35.0705 146.83 35.5302 147.179 36.1367C147.525 36.7432 147.699 37.4821 147.699 38.3534C147.699 39.2247 147.525 39.966 147.179 40.5773C146.832 41.1887 146.351 41.6532 145.739 41.9685C145.128 42.2838 144.432 42.4426 143.655 42.4426C142.878 42.4426 142.187 42.2862 141.58 41.9685ZM144.808 40.12C145.077 39.7205 145.212 39.1332 145.212 38.3558C145.212 37.5688 145.077 36.9815 144.808 36.5988C144.538 36.2161 144.156 36.0236 143.657 36.0236C143.159 36.0236 142.779 36.2161 142.514 36.5988C142.249 36.9815 142.117 37.5688 142.117 38.3558C142.117 39.1332 142.252 39.7229 142.521 40.12C142.791 40.5196 143.169 40.7193 143.657 40.7193C144.153 40.7169 144.538 40.5172 144.808 40.12Z" fill="#1226AA"/>
<path d="M155.297 41.9685C154.69 41.6532 154.214 41.1887 153.867 40.5773C153.521 39.966 153.347 39.2247 153.347 38.3534C153.347 37.4821 153.521 36.7432 153.867 36.1367C154.214 35.5302 154.69 35.0705 155.297 34.76C155.903 34.4495 156.594 34.2931 157.372 34.2931C158.149 34.2931 158.845 34.4495 159.456 34.76C160.067 35.0705 160.546 35.5302 160.895 36.1367C161.242 36.7432 161.415 37.4821 161.415 38.3534C161.415 39.2247 161.242 39.966 160.895 40.5773C160.549 41.1887 160.067 41.6532 159.456 41.9685C158.845 42.2838 158.149 42.4426 157.372 42.4426C156.594 42.4426 155.901 42.2862 155.297 41.9685ZM158.522 40.12C158.792 39.7205 158.926 39.1332 158.926 38.3558C158.926 37.5688 158.792 36.9815 158.522 36.5988C158.252 36.2161 157.87 36.0236 157.372 36.0236C156.873 36.0236 156.493 36.2161 156.228 36.5988C155.964 36.9815 155.831 37.5688 155.831 38.3558C155.831 39.1332 155.966 39.7229 156.236 40.12C156.505 40.5196 156.883 40.7193 157.372 40.7193C157.87 40.7169 158.252 40.5172 158.522 40.12Z" fill="#1226AA"/>
<path d="M169.75 34.7624C169.324 34.7624 168.987 34.8563 168.739 35.0416C169.341 35.5085 169.642 36.1247 169.642 36.8925C169.642 37.6915 169.324 38.3317 168.686 38.8131C168.048 39.2945 167.184 39.5352 166.096 39.5352C165.495 39.5352 164.96 39.4581 164.496 39.3017C164.339 39.4052 164.262 39.5448 164.262 39.7205C164.262 40.1465 164.621 40.3583 165.336 40.3583H167.514C168.457 40.3583 169.17 40.5508 169.651 40.9335C170.133 41.3162 170.373 41.8818 170.373 42.6279C170.373 43.5305 169.986 44.2285 169.216 44.7267C168.443 45.2249 167.336 45.4728 165.897 45.4728C164.643 45.4728 163.692 45.3044 163.042 44.9674C162.395 44.6304 162.07 44.178 162.07 43.6075C162.07 43.297 162.183 43.0179 162.411 42.7748C162.64 42.5317 162.972 42.3415 163.406 42.2068C162.7 41.9276 162.349 41.439 162.349 40.7458C162.349 40.3318 162.472 39.9732 162.715 39.6724C162.958 39.3715 163.302 39.138 163.75 38.972C163.355 38.7337 163.054 38.4376 162.847 38.0862C162.64 37.7348 162.537 37.3353 162.537 36.89C162.537 36.103 162.857 35.4724 163.502 35.0007C164.144 34.5289 165.011 34.2931 166.099 34.2931C166.773 34.2931 167.37 34.3869 167.887 34.5723C168.022 34.127 168.282 33.7804 168.664 33.5301C169.047 33.2798 169.541 33.157 170.142 33.157C170.277 33.157 170.385 33.1619 170.47 33.1715V34.8346C170.174 34.7889 169.935 34.7624 169.75 34.7624ZM164.789 42.4282C164.645 42.4282 164.457 42.4186 164.229 42.3969C164.022 42.5943 163.918 42.8373 163.918 43.1286C163.918 43.7808 164.611 44.1082 166.002 44.1082C167.526 44.1082 168.289 43.8025 168.289 43.1911C168.289 42.6929 167.942 42.445 167.247 42.445L164.789 42.4282ZM166.958 37.8793C167.182 37.6241 167.293 37.2968 167.293 36.8925C167.293 36.4977 167.184 36.18 166.965 35.9369C166.749 35.6939 166.457 35.5711 166.094 35.5711C165.731 35.5711 165.439 35.6939 165.215 35.9369C164.992 36.18 164.881 36.5001 164.881 36.8925C164.881 37.2968 164.992 37.6265 165.215 37.8793C165.439 38.1344 165.731 38.2595 166.094 38.2595C166.448 38.2619 166.734 38.1344 166.958 37.8793Z" fill="#1226AA"/>
<path d="M177.004 41.9685C176.335 41.6532 175.815 41.1887 175.442 40.5773L176.889 39.4894C177.437 40.3294 178.258 40.7482 179.346 40.7482C179.75 40.7482 180.054 40.688 180.256 40.5701C180.458 40.4522 180.559 40.2813 180.559 40.0647C180.559 39.836 180.482 39.6675 180.326 39.5592C180.169 39.4509 179.88 39.3643 179.454 39.3017L178.335 39.1453C176.686 38.8974 175.863 38.0983 175.863 36.7505C175.863 35.9947 176.167 35.3954 176.773 34.955C177.38 34.5145 178.217 34.2931 179.283 34.2931C180.07 34.2931 180.776 34.4303 181.399 34.7046C182.02 34.979 182.492 35.3545 182.814 35.831L181.524 36.9984C180.913 36.3028 180.14 35.9562 179.206 35.9562C178.833 35.9562 178.559 36.0091 178.383 36.1126C178.208 36.2161 178.119 36.3774 178.119 36.594C178.119 36.7793 178.188 36.9286 178.328 37.0369C178.468 37.1452 178.703 37.2222 179.036 37.2631L180.419 37.4797C181.228 37.5928 181.815 37.8504 182.184 38.2499C182.552 38.6494 182.735 39.191 182.735 39.8745C182.735 40.6736 182.432 41.2994 181.825 41.7567C181.219 42.214 180.376 42.4402 179.298 42.4402C178.436 42.445 177.673 42.2862 177.004 41.9685Z" fill="#1226AA"/>
<path d="M183.356 34.4832H184.708V32.6179L187.197 31.6528V34.4832H189.048V36.1463H187.197V39.179C187.197 39.966 187.575 40.3607 188.333 40.3607C188.55 40.3607 188.788 40.3342 189.048 40.2837V42.2597C188.499 42.3632 188.027 42.4161 187.633 42.4161C186.627 42.4161 185.888 42.1923 185.416 41.747C184.944 41.3018 184.708 40.6423 184.708 39.771V36.1487H183.356V34.4832Z" fill="#1226AA"/>
<path d="M191.294 41.9685C190.624 41.6532 190.105 41.1887 189.732 40.5773L191.178 39.4894C191.727 40.3294 192.548 40.7482 193.635 40.7482C194.04 40.7482 194.343 40.688 194.545 40.5701C194.747 40.4522 194.848 40.2813 194.848 40.0647C194.848 39.836 194.771 39.6675 194.615 39.5592C194.459 39.4509 194.17 39.3643 193.744 39.3017L192.625 39.1453C190.976 38.8974 190.153 38.0983 190.153 36.7505C190.153 35.9947 190.456 35.3954 191.062 34.955C191.669 34.5145 192.507 34.2931 193.573 34.2931C194.36 34.2931 195.065 34.4303 195.688 34.7046C196.309 34.979 196.781 35.3545 197.104 35.831L195.814 36.9984C195.202 36.3028 194.43 35.9562 193.496 35.9562C193.123 35.9562 192.848 36.0091 192.673 36.1126C192.497 36.2161 192.408 36.3774 192.408 36.594C192.408 36.7793 192.478 36.9286 192.617 37.0369C192.757 37.1452 192.993 37.2222 193.325 37.2631L194.709 37.4797C195.518 37.5928 196.105 37.8504 196.473 38.2499C196.841 38.6494 197.024 39.191 197.024 39.8745C197.024 40.6736 196.721 41.2994 196.114 41.7567C195.508 42.214 194.665 42.4402 193.587 42.4402C192.726 42.445 191.963 42.2862 191.294 41.9685Z" fill="#1226AA"/>
<path d="M109.586 31.2244H112.089V35.8671C112.566 34.7985 113.391 34.2666 114.561 34.2666C115.401 34.2666 116.034 34.5313 116.458 35.0584C116.884 35.588 117.096 36.375 117.096 37.422V42.2573H114.607V37.6699C114.607 36.6758 114.224 36.1776 113.456 36.1776C113.011 36.1776 112.672 36.3413 112.438 36.6686C112.205 36.9959 112.089 37.4653 112.089 38.0766V42.2597H109.586V31.2244Z" fill="#1226AA"/>
<path d="M135.602 33.3616V31.2219H138.199V33.3616H135.602ZM135.633 42.2573V34.4832H138.136V42.2573H135.633Z" fill="#1226AA"/>
<path d="M151.773 31.2244V42.2573H149.27V31.2244H151.773Z" fill="#1226AA"/>
<path d="M171.647 33.3616V31.2219H174.243V33.3616H171.647ZM171.678 42.2573V34.4832H174.181V42.2573H171.678Z" fill="#1226AA"/>
<path d="M200.22 32.4591C200.22 33.3448 199.563 33.8984 198.786 33.8984C198.006 33.8984 197.347 33.3448 197.347 32.4591C197.347 31.5709 198.004 31.0198 198.786 31.0198C199.563 31.0222 200.22 31.5709 200.22 32.4591ZM199.958 32.4591C199.958 31.7081 199.421 31.2484 198.786 31.2484C198.148 31.2484 197.611 31.7081 197.611 32.4591C197.611 33.2052 198.148 33.6697 198.786 33.6697C199.421 33.6697 199.958 33.2052 199.958 32.4591ZM199.149 32.5866L199.508 33.2317H199.075L198.762 32.6324H198.589V33.2317H198.194V31.6576H198.877C199.253 31.6576 199.46 31.8381 199.46 32.1558C199.462 32.358 199.347 32.5168 199.149 32.5866ZM198.589 32.3628H198.805C198.964 32.3628 199.056 32.2906 199.056 32.1582C199.056 32.0186 198.971 31.9488 198.805 31.9488H198.589V32.3628Z" fill="#1226AA"/>
</svg>
