<svg width="250" height="82" viewBox="0 0 250 82" fill="none" xmlns="http://www.w3.org/2000/svg">
<path d="M239.042 0V0.5H244C247.038 0.5 249.5 2.96243 249.5 6V10.667H250V15.333H249.5V24.667H250V29.333H249.5V38.667H250V43.333H249.5V52.667H250V57.333H249.5V66.667H250V71.333H249.5V76C249.5 79.0376 247.038 81.5 244 81.5H239.042V82H234.083V81.5H224.167V82H219.208V81.5H209.292V82H204.333V81.5H194.417V82H189.458V81.5H179.542V82H174.583V81.5H164.667V82H159.708V81.5H149.792V82H144.833V81.5H134.917V82H129.958V81.5H120.042V82H115.083V81.5H105.167V82H100.208V81.5H90.292V82H85.333V81.5H75.417V82H70.458V81.5H60.542V82H55.583V81.5H45.667V82H40.708V81.5H30.792V82H25.833V81.5H15.917V82H10.958V81.5H6C2.96243 81.5 0.5 79.0376 0.5 76V71.333H0V66.667H0.5V57.333H0V52.667H0.5V43.333H0V38.667H0.5V29.333H0V24.667H0.5V15.333H0V10.667H0.5V6C0.5 2.96243 2.96243 0.5 6 0.5H10.958V0H15.917V0.5H25.833V0H30.792V0.5H40.708V0H45.667V0.5H55.583V0H60.542V0.5H70.458V0H75.417V0.5H85.333V0H90.292V0.5H100.208V0H105.167V0.5H115.083V0H120.042V0.5H129.958V0H134.917V0.5H144.833V0H149.792V0.5H159.708V0H164.667V0.5H174.583V0H179.542V0.5H189.458V0H194.417V0.5H204.333V0H209.292V0.5H219.208V0H224.167V0.5H234.083V0H239.042Z" stroke="#722ED1" stroke-dasharray="10 5"/>
<path d="M34.543 60.8409C30.3021 59.1741 26.6108 56.046 24.2998 51.7095C19.1466 42.0396 22.8081 30.0231 32.478 24.8699C41.8954 19.8512 53.5386 23.193 58.9001 32.303C56.3609 38.1894 52.3089 44.4091 46.9567 50.1983C43.0082 54.4694 38.7705 58.0532 34.543 60.8409Z" fill="black"/>
<path d="M20.917 65.5302C18.7088 63.8696 20.8395 58.3587 23.5966 54.6183L24.4499 55.8231C23.4251 58.2427 21.6385 63.162 28.9746 57.4893C36.3105 51.8166 48.6041 36.0081 53.8819 26.4731C58.1041 18.8451 53.5377 20.6569 50.7987 22.4104L49.5976 21.7645C52.3804 19.0679 57.2285 15.8201 59.5486 16.841C64.5816 19.0557 60.8336 33.4585 49.5159 47.4243C38.1981 61.3901 24.0324 67.873 20.917 65.5302Z" fill="black"/>
<path d="M61.5364 40.2219C62.3894 48.0457 58.5097 55.9603 51.1395 59.8879C48.6321 61.2241 45.9671 61.9677 43.3047 62.1675C45.8703 57.3848 49.3293 52.4773 53.5766 47.811C56.1414 44.9932 58.8207 42.4533 61.5364 40.2219Z" fill="black"/>
<g clip-path="url(#clip0_0_1354)">
<path d="M118.403 38.1634L117.16 48.2767H120.413L121.656 38.1634H118.403ZM118.561 33.855C118.561 34.9207 119.397 35.7597 120.458 35.7597C121.52 35.7597 122.356 34.9207 122.356 33.855C122.356 32.7892 121.52 31.9502 120.458 31.9502C119.397 31.9502 118.561 32.7892 118.561 33.855Z" fill="black"/>
<path d="M124.444 38.1632L123.201 48.2766H126.455L127.042 43.288C127.11 42.7437 127.245 41.7687 127.833 41.1564C128.239 40.7483 128.736 40.6122 129.301 40.6122C129.64 40.6122 130.137 40.6802 130.499 41.043C130.838 41.4059 130.905 41.882 130.905 42.2675C130.905 42.4263 130.905 42.8571 130.77 43.9002L130.228 48.2766H133.481L134.091 43.0838C134.227 41.9954 134.249 41.4966 134.249 41.1564C134.249 40.5442 134.181 39.5238 133.39 38.7528C132.622 38.0045 131.606 37.8911 130.77 37.8911C130.069 37.8911 129.505 37.9365 128.782 38.322C128.352 38.5487 127.923 38.8662 127.539 39.2743L127.697 38.1632H124.444Z" fill="black"/>
<path d="M144.424 38.8434C143.046 37.891 141.849 37.823 141.103 37.823C140.38 37.823 138.821 37.891 137.782 38.9114C137.24 39.4557 136.833 40.2946 136.833 41.2697C136.833 42.2448 137.263 42.8117 137.511 43.0837C137.985 43.5599 138.663 43.8321 139.205 43.9908L139.928 44.2175C140.199 44.3082 140.516 44.3763 140.719 44.5123C140.877 44.6257 141.035 44.8071 141.035 45.1473C141.035 45.4647 140.9 45.6461 140.629 45.8048C140.358 45.9636 140.041 46.0316 139.635 46.0316C138.934 46.0316 138.347 45.7595 138.234 45.7141C137.827 45.5328 137.353 45.2153 136.991 44.8751L135.613 47.0747C136.087 47.5055 136.607 47.8684 137.172 48.1178C138.076 48.5259 138.934 48.6167 139.793 48.6167C140.674 48.6167 142.255 48.4806 143.34 47.3468C143.769 46.916 144.289 46.0996 144.289 44.8525C144.289 44.0588 144.063 43.4466 143.543 42.925C142.979 42.3354 142.301 42.1087 141.804 41.9726L141.058 41.7686C140.493 41.6098 140.335 41.5418 140.267 41.4965C140.019 41.3377 139.951 41.1336 139.951 40.9523C139.951 40.7708 140.041 40.5668 140.177 40.4534C140.403 40.2493 140.832 40.1813 141.148 40.1813C141.939 40.1813 142.594 40.5214 143.046 40.8615L144.424 38.8434Z" fill="black"/>
<path d="M152.096 40.7936L152.412 38.1633H150.424L150.831 34.8979H147.578L147.171 38.1633H145.996L145.68 40.7936H146.855L145.928 48.2766H149.181L150.108 40.7936H152.096Z" fill="black"/>
<path d="M161.332 39.3876C160.88 38.7527 160.338 38.3899 159.954 38.2085C159.298 37.891 158.575 37.823 157.988 37.823C156.587 37.823 155.322 38.2312 154.283 39.2969C153.312 40.2946 152.656 41.7912 152.656 43.6507C152.656 45.3967 153.266 46.5758 154.012 47.3695C154.893 48.2992 155.887 48.6167 157.13 48.6167C157.514 48.6167 158.304 48.5713 159.005 48.2538C159.547 48.0044 160.067 47.5509 160.428 47.1201L160.18 48.2765H163.433L164.676 38.1631H161.422L161.332 39.3876ZM158.689 40.6348C159.57 40.6348 160.089 40.9296 160.383 41.2017C160.812 41.5871 161.083 42.2221 161.083 42.9477C161.083 43.696 160.812 44.5577 160.225 45.1246C159.886 45.442 159.298 45.8048 158.372 45.8048C157.717 45.8048 157.13 45.6234 156.655 45.1246C156.339 44.7845 156 44.2402 156 43.4012C156 42.5622 156.316 41.8366 156.768 41.3831C157.265 40.8842 157.875 40.6348 158.689 40.6348Z" fill="black"/>
<path d="M172.35 40.7936L172.666 38.1633H170.678L171.085 34.8979H167.831L167.425 38.1633H166.25L165.934 40.7936H167.108L166.182 48.2766H169.435L170.362 40.7936H172.35Z" fill="black"/>
<path d="M181.112 38.1633L180.479 43.4694C180.344 44.6712 179.96 45.1474 179.824 45.2835C179.463 45.669 178.853 45.8504 178.333 45.8504C177.858 45.8504 177.294 45.6917 177 45.4195C176.774 45.2155 176.571 44.8527 176.571 44.3084C176.571 44.059 176.616 43.8323 176.684 43.1973L177.271 38.1633H174.018L173.408 43.3107C173.363 43.6282 173.295 44.3311 173.295 44.7393C173.295 45.805 173.701 46.8255 174.379 47.4604C175.509 48.5488 177.294 48.6168 178.311 48.6168C179.463 48.6168 181.067 48.4808 182.264 47.3243C183.394 46.2359 183.597 44.83 183.733 43.6282L184.365 38.1633H181.112Z" fill="black"/>
<path d="M194.11 38.8434C192.732 37.891 191.535 37.823 190.789 37.823C190.066 37.823 188.508 37.891 187.468 38.9114C186.926 39.4557 186.519 40.2946 186.519 41.2697C186.519 42.2448 186.948 42.8117 187.197 43.0837C187.671 43.5599 188.349 43.8321 188.892 43.9908L189.614 44.2175C189.886 44.3082 190.202 44.3763 190.405 44.5123C190.563 44.6257 190.721 44.8071 190.721 45.1473C190.721 45.4647 190.586 45.6461 190.315 45.8048C190.044 45.9636 189.727 46.0316 189.321 46.0316C188.62 46.0316 188.033 45.7595 187.92 45.7141C187.513 45.5328 187.039 45.2153 186.677 44.8751L185.299 47.0747C185.774 47.5055 186.293 47.8684 186.858 48.1178C187.762 48.5259 188.62 48.6167 189.479 48.6167C190.36 48.6167 191.942 48.4806 193.026 47.3468C193.455 46.916 193.975 46.0996 193.975 44.8525C193.975 44.0588 193.749 43.4466 193.229 42.925C192.664 42.3354 191.987 42.1087 191.489 41.9726L190.744 41.7686C190.179 41.6098 190.021 41.5418 189.953 41.4965C189.705 41.3377 189.637 41.1336 189.637 40.9523C189.637 40.7708 189.727 40.5668 189.863 40.4534C190.089 40.2493 190.518 40.1813 190.835 40.1813C191.625 40.1813 192.28 40.5214 192.732 40.8615L194.11 38.8434Z" fill="black"/>
<path d="M100.499 50.3898C98.6041 49.6451 96.9548 48.2475 95.9222 46.3099C93.6197 41.9893 95.2557 36.6202 99.5763 34.3177C103.784 32.0753 108.986 33.5684 111.382 37.6389C110.247 40.269 108.437 43.048 106.045 45.6347C104.281 47.543 102.388 49.1443 100.499 50.3898Z" fill="black"/>
<path d="M94.4097 52.4852C93.4231 51.7432 94.3751 49.2809 95.607 47.6097L95.9882 48.148C95.5303 49.2291 94.7321 51.4271 98.0099 48.8924C101.288 46.3578 106.781 39.2945 109.139 35.0342C111.025 31.6259 108.985 32.4354 107.761 33.2189L107.224 32.9303C108.468 31.7254 110.634 30.2743 111.671 30.7305C113.919 31.72 112.245 38.1553 107.188 44.3953C102.131 50.6354 95.8017 53.532 94.4097 52.4852Z" fill="black"/>
<path d="M112.558 41.1772C112.939 44.673 111.206 48.2093 107.913 49.9642C106.792 50.5612 105.602 50.8935 104.412 50.9827C105.558 48.8458 107.104 46.6531 109.002 44.5681C110.148 43.3091 111.345 42.1742 112.558 41.1772Z" fill="black"/>
</g>
<defs>
<clipPath id="clip0_0_1354">
<rect width="100" height="22.695" fill="white" transform="translate(94 30)"/>
</clipPath>
</defs>
</svg>
