<svg width="184" height="65" viewBox="0 0 184 65" fill="none" xmlns="http://www.w3.org/2000/svg">
<path opacity="0.54" d="M56.8632 45.2723H53.5879V19.9784H68.4629V23.086H56.8636V31.3903H67.3261V34.4262H56.8636V45.2723L56.8632 45.2723ZM74.6215 23.6186C73.8407 24.397 72.6146 24.5193 71.6934 23.9107C70.7723 23.3021 70.4127 22.1321 70.8348 21.1168C71.2569 20.1014 72.3429 19.5235 73.4284 19.7366C74.5139 19.9498 75.2964 20.8947 75.2972 21.993C75.3077 22.6048 75.0621 23.1935 74.6188 23.6186H74.6215H74.6215ZM74.6215 45.2723H71.3462V27.9626H74.6215V45.2724V45.2723ZM81.8087 45.2723H78.5334V27.9626H81.6642V30.7887H81.806C82.1842 29.7928 82.9104 28.9651 83.8523 28.4567C84.7518 27.8835 85.7922 27.5657 86.8607 27.5376C87.6996 27.514 88.5345 27.6585 89.3158 27.9626L88.0702 30.9984C87.5084 30.8129 86.9181 30.7288 86.3269 30.7501C85.1259 30.7561 83.9828 31.2629 83.1767 32.1465C82.2629 33.0775 81.806 34.2965 81.806 35.8033L81.8088 45.2723L81.8087 45.2723ZM98.2909 45.8242C95.6569 45.8242 93.516 44.953 91.8682 43.2109C90.2204 41.4688 89.3955 39.2708 89.3936 36.6177C89.3453 34.2289 90.2026 31.9092 91.7959 30.1183C93.3219 28.3356 95.5792 27.3351 97.9349 27.3967C100.521 27.3967 102.591 28.233 104.146 29.9054C105.701 31.5778 106.478 33.8152 106.476 36.6173L106.44 37.219H92.663C92.7575 38.9613 93.345 40.3413 94.4257 41.3587C95.4363 42.3434 96.7993 42.8894 98.215 42.8767C100.564 42.8767 102.153 41.8874 102.983 39.9098L105.903 41.1104C105.311 42.479 104.335 43.6498 103.092 44.4829C101.785 45.3771 100.185 45.8242 98.2901 45.8242L98.2909 45.8242ZM102.99 34.5089C102.919 33.5191 102.462 32.5771 101.619 31.6828C100.776 30.7886 99.5216 30.3508 97.8571 30.3691C96.7027 30.3491 95.5812 30.7519 94.707 31.5007C93.7911 32.2973 93.1503 33.3591 92.8747 34.5365L102.99 34.5089L102.99 34.5089ZM118.31 45.8242C117.07 45.8486 115.845 45.564 114.745 44.9963C113.779 44.5129 112.962 43.7808 112.379 42.8768H112.237V45.2723H109.104V19.9784H112.379V27.9626L112.237 30.3637H112.379C112.962 29.4596 113.779 28.7276 114.745 28.2442C115.843 27.6699 117.069 27.3786 118.31 27.3969C120.564 27.3969 122.51 28.28 124.148 30.0463C125.787 31.8126 126.605 34.003 126.604 36.6175C126.602 39.232 125.785 41.4224 124.148 43.1887C122.512 44.9549 120.565 45.8335 118.31 45.8243L118.31 45.8242ZM117.776 42.8574C119.268 42.8692 120.693 42.2451 121.69 41.1436C122.782 40.001 123.328 38.4877 123.328 36.6036C123.328 34.7195 122.782 33.2063 121.69 32.0637C120.682 30.9752 119.261 30.3545 117.771 30.3514C116.281 30.3482 114.858 30.963 113.844 32.047C112.765 33.1767 112.226 34.6956 112.226 36.6035C112.226 38.5115 112.771 40.0349 113.861 41.1738C114.864 42.2713 116.294 42.8892 117.787 42.8711L117.776 42.8573L117.776 42.8574ZM134.942 45.8242C133.088 45.8242 131.54 45.2943 130.299 44.2346C129.057 43.1749 128.434 41.7738 128.43 40.0314C128.43 38.1473 129.166 36.6699 130.638 35.599C132.11 34.5282 133.924 33.9928 136.082 33.9928C138.004 33.9928 139.58 34.3461 140.808 35.0526V34.5586C140.855 33.3951 140.371 32.2727 139.491 31.5035C138.594 30.7369 137.44 30.3321 136.257 30.3692C135.352 30.358 134.46 30.5894 133.677 31.0398C132.943 31.4433 132.38 32.0959 132.092 32.8779L129.103 31.6056C129.507 30.566 130.302 29.6019 131.492 28.7133C132.682 27.8246 134.245 27.383 136.191 27.3886C138.416 27.3886 140.269 28.0326 141.752 29.3204C143.235 30.6083 143.971 32.4335 143.96 34.7959V45.2723H140.818V42.8712H140.676C139.369 44.8399 137.459 45.8206 134.946 45.8206L134.942 45.8242ZM135.476 42.8574C136.852 42.8526 138.173 42.3196 139.162 41.3698C140.217 40.4875 140.827 39.1896 140.831 37.8207C139.904 37.0663 138.514 36.6891 136.66 36.6891C135.07 36.6891 133.871 37.0304 133.065 37.713C132.313 38.2872 131.867 39.172 131.856 40.1141C131.84 40.9338 132.263 41.7007 132.968 42.1287C133.709 42.623 134.584 42.882 135.476 42.8711V42.8573L135.476 42.8574ZM153.59 45.8242C151.644 45.8242 150.036 45.3532 148.769 44.4112C147.535 43.5069 146.574 42.2855 145.988 40.8786L148.908 39.6781C149.835 41.8455 151.41 42.9292 153.634 42.9292C154.518 42.9651 155.391 42.731 156.137 42.2585C156.751 41.8798 157.122 41.2102 157.115 40.4922C157.115 39.3625 156.32 38.5971 154.726 38.196L151.203 37.3488C150.044 37.0444 148.964 36.4966 148.037 35.7426C147.049 34.9781 146.492 33.7888 146.541 32.5467C146.541 31.016 147.223 29.7739 148.587 28.8208C150.014 27.8485 151.714 27.3482 153.444 27.3912C154.889 27.3683 156.314 27.7295 157.57 28.4372C158.757 29.1059 159.674 30.1607 160.167 31.4234L157.323 32.577C156.683 31.0463 155.354 30.2808 153.336 30.2808C152.477 30.2524 151.628 30.4607 150.881 30.8824C150.269 31.197 149.885 31.824 149.885 32.508C149.885 33.4978 150.657 34.1694 152.199 34.5227L155.649 35.3368C157.286 35.7048 158.496 36.3488 159.28 37.2687C160.04 38.1281 160.457 39.2331 160.454 40.3763C160.469 41.9004 159.756 43.3416 158.532 44.2621C157.252 45.3035 155.603 45.8242 153.586 45.8242L153.59 45.8242ZM171.206 45.8242C168.572 45.8242 166.431 44.953 164.784 43.2109C163.136 41.4688 162.311 39.2659 162.309 36.6036C162.261 34.2149 163.118 31.8952 164.711 30.1042C166.243 28.3261 168.503 27.3309 170.859 27.3968C173.453 27.3968 175.524 28.2331 177.07 29.9055C178.616 31.578 179.393 33.8153 179.4 36.6175L179.364 37.2191H165.576C165.67 38.9614 166.258 40.3414 167.338 41.3589C168.352 42.3435 169.718 42.8876 171.136 42.8712C173.485 42.8712 175.074 41.8819 175.905 39.9044L178.824 41.1049C178.233 42.4736 177.257 43.6443 176.013 44.4774C174.707 45.3752 173.104 45.8242 171.206 45.8242L171.206 45.8242ZM175.905 34.5089C175.835 33.5191 175.378 32.5771 174.534 31.6828C173.691 30.7886 172.439 30.3508 170.778 30.3691C169.624 30.3494 168.502 30.7522 167.628 31.5007C166.712 32.2973 166.071 33.3591 165.796 34.5365L175.905 34.5089V34.5089Z" fill="black"/>
<path d="M4.61963 47.214L10.6423 8.67587C10.7159 8.20324 11.0835 7.83065 11.555 7.75054C12.0266 7.67042 12.4966 7.90091 12.7221 8.32274L18.9505 19.9398L21.4332 15.2128C21.6254 14.8473 22.0045 14.6185 22.4175 14.6185C22.8305 14.6185 23.2095 14.8473 23.4018 15.2128L40.2101 47.2139H4.61963V47.214Z" fill="#FFA000"/>
<path d="M25.4263 32.2018L18.9476 19.9341L4.61963 47.2139L25.4263 32.2018Z" fill="#F57C00"/>
<path d="M40.2103 47.2139L35.5975 18.669C35.5278 18.2591 35.2352 17.9223 34.8391 17.7954C34.4429 17.6685 34.0093 17.7741 33.7151 18.068L4.61963 47.2135L20.7189 56.2418C21.7299 56.8063 22.9611 56.8063 23.9721 56.2418L40.2103 47.2135V47.2139Z" fill="#FFCA28"/>
<path d="M35.5974 18.6691C35.5277 18.2591 35.2351 17.9224 34.8389 17.7955C34.4428 17.6685 34.0092 17.7742 33.715 18.0681L27.9402 23.8575L23.3992 15.2126C23.2069 14.8471 22.8279 14.6183 22.4149 14.6183C22.0019 14.6183 21.6228 14.8471 21.4305 15.2126L18.9479 19.9395L12.7192 8.32272C12.4933 7.90078 12.0228 7.67066 11.5506 7.75137C11.0785 7.83209 10.7121 8.2056 10.6393 8.67861L4.61951 47.214H4.6001L4.61951 47.2362L4.77799 47.314L33.7066 18.3521C34.0006 18.0566 34.4353 17.9504 34.8325 18.0769C35.2297 18.2035 35.5228 18.5415 35.5918 18.9526L40.1658 47.2417L40.2103 47.2139L35.5974 18.669L35.5974 18.6691ZM4.67234 47.1611L10.6421 8.95114C10.7149 8.47813 11.0821 8.10462 11.5538 8.0239C12.0256 7.94319 12.4961 8.17323 12.7223 8.59525L18.9504 20.2123L21.4331 15.4853C21.6253 15.1199 22.0044 14.891 22.4174 14.891C22.8304 14.891 23.2094 15.1199 23.4017 15.4853L27.8505 23.9465L4.67208 47.1611H4.67234Z" fill="white" fill-opacity="0.2"/>
<path opacity="0.2" d="M23.9721 55.97C22.9611 56.5344 21.7299 56.5344 20.7189 55.97L4.65857 46.9667L4.61963 47.2142L20.7189 56.2398C21.7299 56.8043 22.9611 56.8043 23.9721 56.2398L40.2103 47.2142L40.1686 46.9584L23.9721 55.9701V55.97Z" fill="#A52714"/>
<path d="M35.5514 18.6749C35.482 18.2651 35.1904 17.9283 34.7956 17.8021C34.4009 17.6759 33.9688 17.7808 33.6756 18.0746L27.9207 23.8611L23.3959 15.2202C23.2043 14.8549 22.8266 14.6261 22.415 14.6261C22.0035 14.6261 21.6258 14.8549 21.4342 15.2202L18.9599 19.9451L12.7533 8.33309C12.5282 7.91134 12.0593 7.68126 11.5892 7.76201C11.1191 7.84276 10.7532 8.21598 10.6807 8.68887L4.68188 47.2073L20.7249 56.229C21.7323 56.7932 22.9592 56.7932 23.9667 56.229L40.1482 47.2073L35.5514 18.6748V18.6749Z" fill="url(#paint0_linear_0_7892)"/>
<defs>
<linearGradient id="paint0_linear_0_7892" x1="3.44411" y1="16.0698" x2="47.7029" y2="39.4158" gradientUnits="userSpaceOnUse">
<stop stop-color="white" stop-opacity="0.1"/>
<stop offset="0.14" stop-color="white" stop-opacity="0.08"/>
<stop offset="0.61" stop-color="white" stop-opacity="0.02"/>
<stop offset="1" stop-color="white" stop-opacity="0"/>
</linearGradient>
</defs>
</svg>
