<svg width="172" height="69" viewBox="0 0 172 69" fill="none" xmlns="http://www.w3.org/2000/svg">
<path d="M167.492 54.4353L167.166 55.3495H167.046L166.721 54.4376V55.3495H166.512V54.1034H166.772L167.106 55.0293L167.441 54.1034H167.7V55.3495H167.492V54.4353ZM166.329 54.2914H165.988V55.3495H165.777V54.2914H165.433V54.1034H166.329V54.2914Z" fill="#262A38"/>
<path d="M108.931 13.2971V55.0059H100.478V50.7521C99.5942 52.2437 98.3241 53.459 96.7769 54.2324C95.1198 55.0611 93.2413 55.503 91.3635 55.503C89.0431 55.5583 86.7227 54.8954 84.7892 53.5695C82.8008 52.2437 81.2536 50.4207 80.2591 48.2662C79.1546 45.7802 78.6019 43.1285 78.6569 40.4216C78.6019 37.7147 79.1546 35.063 80.2591 32.6323C81.2536 30.533 82.8008 28.71 84.7343 27.4395C86.7227 26.1689 89.0431 25.5611 91.3635 25.6164C93.1863 25.6164 95.0091 26.0031 96.6112 26.8317C98.1584 27.6052 99.4286 28.7653 100.312 30.2016V16.1145L108.931 13.2971ZM98.766 46.7746C99.8705 45.3382 100.478 43.239 100.478 40.5321C100.478 37.8251 99.9262 35.7812 98.766 34.3449C97.6058 32.9085 95.7823 32.0799 93.9046 32.1351C92.0261 32.0246 90.2033 32.8532 88.9874 34.2896C87.8279 35.7259 87.2196 37.77 87.2196 40.4216C87.2196 43.1285 87.8279 45.2278 88.9874 46.7193C90.1476 48.2109 92.0261 49.0395 93.9046 48.9843C96.0036 48.9843 97.6608 48.2109 98.766 46.7746Z" fill="#262A38"/>
<path d="M139.149 27.3842C141.138 28.6548 142.685 30.4778 143.624 32.5771C144.728 35.0078 145.281 37.6594 145.226 40.3664C145.281 43.0733 144.728 45.7802 143.624 48.2109C142.629 50.3654 141.083 52.1885 139.093 53.5143C137.16 54.7849 134.84 55.4478 132.52 55.3926C130.641 55.4478 128.763 55.0059 127.106 54.122C125.559 53.3485 124.288 52.1332 123.46 50.6416V54.9506H114.953V16.1145L123.515 13.2971V30.3121C124.343 28.8205 125.614 27.6052 127.161 26.8317C128.819 25.9479 130.641 25.5059 132.52 25.5611C134.84 25.5059 137.16 26.1689 139.149 27.3842ZM134.95 46.7193C136.11 45.2278 136.663 43.1285 136.663 40.3664C136.663 37.7147 136.11 35.6707 134.95 34.2344C133.79 32.798 132.188 32.0799 130.089 32.0799C128.211 31.9694 126.388 32.798 125.172 34.2896C124.012 35.7812 123.46 37.8251 123.46 40.4768C123.46 43.1838 124.012 45.283 125.172 46.7193C126.333 48.2109 128.155 49.0395 130.089 48.9291C131.967 49.0395 133.79 48.2109 134.95 46.7193Z" fill="#262A38"/>
<path d="M157.048 32.6875V43.8467C157.048 45.4488 157.49 46.6089 158.264 47.327C159.148 48.1005 160.307 48.4871 161.523 48.4319C162.462 48.4319 163.456 48.2662 164.34 48.0452V54.6744C162.738 55.2268 161.081 55.503 159.423 55.4478C155.888 55.4478 153.181 54.4534 151.302 52.4646C149.425 50.4759 148.485 47.6585 148.485 44.0124V19.5396L157.048 16.7775V26.2793H164.34V32.6875H157.048Z" fill="#262A38"/>
<path d="M62.8027 6.39166C64.239 7.77274 65.1782 9.59577 65.3992 11.5845C65.3992 12.4132 65.1782 12.9656 64.681 14.0153C64.1838 15.0649 58.0518 25.6716 56.2288 28.5995C55.1792 30.312 54.6267 32.356 54.6267 34.3448C54.6267 36.3888 55.1792 38.3776 56.2288 40.0901C58.0518 43.018 64.1838 53.6799 64.681 54.7295C65.1782 55.7792 65.3992 56.2763 65.3992 57.105C65.1782 59.0938 64.2943 60.9168 62.858 62.2427C61.4769 63.679 59.6539 64.6181 57.7204 64.7838C56.8917 64.7838 56.3392 64.5629 55.3449 64.0657C54.3505 63.5685 43.5228 57.6022 40.5949 55.7792C40.3739 55.6687 40.1529 55.503 39.8768 55.3924L25.403 46.8297C25.7344 49.5919 26.9498 52.2436 28.9385 54.1771C29.3253 54.5638 29.712 54.8953 30.1539 55.2267C29.8224 55.3924 29.4357 55.5582 29.1043 55.7792C26.1764 57.6022 15.5145 63.7342 14.4648 64.2314C13.4152 64.7286 12.918 64.9496 12.0341 64.9496C10.0454 64.7286 8.22233 63.8447 6.89648 62.4084C5.46016 61.0273 4.52102 59.2043 4.30005 57.2155C4.35529 56.3869 4.57627 55.5582 5.01821 54.84C5.51541 53.7904 11.6474 43.1284 13.4704 40.2006C14.52 38.488 15.0725 36.4992 15.0725 34.4553C15.0725 32.4112 14.52 30.4225 13.4704 28.7099C11.6474 25.6716 5.46016 15.0096 5.01821 13.96C4.57627 13.2418 4.35529 12.4132 4.30005 11.5845C4.52102 9.59577 5.40492 7.77274 6.84124 6.39166C8.22233 4.95533 10.0454 4.07144 12.0341 3.85046C12.8627 3.90571 13.6914 4.12668 14.4648 4.56863C15.3487 4.95533 23.138 9.48528 27.2813 11.916L28.2204 12.4684C28.5518 12.6894 28.8281 12.8551 29.0491 12.9656L29.491 13.2418L44.2409 21.9703C43.9095 18.6557 42.197 15.6173 39.5453 13.5733C39.8768 13.4076 40.2635 13.2418 40.5949 13.0208C43.5228 11.1978 54.1847 5.01057 55.2344 4.56863C55.9525 4.12668 56.7812 3.90571 57.6651 3.85046C59.5986 4.07144 61.4217 4.95533 62.8027 6.39166ZM35.623 38.3223L38.7719 35.1734C39.2138 34.7314 39.2138 34.0686 38.7719 33.6266L35.623 30.4777C35.181 30.0358 34.5182 30.0358 34.0762 30.4777L30.9273 33.6266C30.4854 34.0686 30.4854 34.7314 30.9273 35.1734L34.0762 38.3223C34.4629 38.709 35.181 38.709 35.623 38.3223Z" fill="#FF694A"/>
</svg>
