<svg width="250" height="79" viewBox="0 0 250 79" fill="none" xmlns="http://www.w3.org/2000/svg"><defs>
<clipPath id="clip0_0_1526">
<rect width="50" height="50" fill="white" transform="translate(20 15)"/>
</clipPath>
<clipPath id="clip1_0_1526">
<rect width="100" height="21.6867" fill="white" transform="translate(113 29)"/>
</clipPath>
</defs><g clip-path="url(#clip0_0_1526)">
<path d="M20.3145 44.2183L40.7816 64.6854C30.3297 62.9187 22.0812 54.6701 20.3145 44.2183Z" fill="#5E6AD2"/>
<path d="M20 38.6617L46.3384 65.0001C47.9048 64.9164 49.433 64.6886 50.9098 64.3298L20.6703 34.0903C20.3115 35.5672 20.0837 37.0953 20 38.6617Z" fill="#5E6AD2"/>
<path d="M21.9805 30.1595L54.8397 63.0188C56.0365 62.5051 57.1852 61.9008 58.2771 61.2145L23.7848 26.7222C23.0984 27.814 22.4941 28.9627 21.9805 30.1595Z" fill="#5E6AD2"/>
<path d="M26.0117 23.7068C30.5998 18.3757 37.3966 15 44.9819 15C58.7991 15 70 26.2009 70 40.018C70 47.6034 66.6243 54.4002 61.2932 58.9883L26.0117 23.7068Z" fill="#5E6AD2"/>
</g><g clip-path="url(#clip1_0_1526)">
<path d="M151.555 46.8567H161.094V44.2905H154.706V32.1357H151.555V46.8567ZM163.123 46.8567H166.223V35.8159H163.123V46.8567ZM164.68 34.5077C165.582 34.5077 166.361 33.832 166.361 32.9551C166.361 32.0853 165.582 31.4097 164.68 31.4097C163.785 31.4097 163.006 32.0853 163.006 32.9551C163.006 33.832 163.785 34.5077 164.68 34.5077ZM171.806 40.4737C171.813 39.0505 172.672 38.2167 173.923 38.2167C175.167 38.2167 175.917 39.0217 175.91 40.3731V46.8567H179.01V39.8268C179.01 37.2535 177.481 35.6721 175.153 35.6721C173.494 35.6721 172.293 36.4772 171.791 37.7638H171.66V35.8159H168.706V46.8567H171.806V40.4737ZM186.575 47.0723C189.348 47.0723 191.203 45.7424 191.64 43.6939L188.78 43.507C188.467 44.3481 187.66 44.7865 186.633 44.7865C185.084 44.7865 184.101 43.7729 184.101 42.1269V42.1198H191.713V41.2787C191.713 37.5266 189.413 35.6721 186.459 35.6721C183.17 35.6721 181.038 37.9795 181.038 41.3865C181.038 44.8871 183.141 47.0723 186.575 47.0723ZM184.101 40.2221C184.16 38.9642 185.135 37.9579 186.51 37.9579C187.849 37.9579 188.78 38.9067 188.795 40.2221H184.101ZM196.966 47.0651C198.618 47.0651 199.688 46.3535 200.234 45.3256H200.321V46.8567H203.261V39.4099C203.261 36.7791 200.983 35.6721 198.567 35.6721C195.817 35.6721 194.078 36.9372 193.648 38.9499L196.515 39.1799C196.726 38.4467 197.388 37.9076 198.502 37.9076C199.571 37.9076 200.154 38.4251 200.161 39.3524C200.168 40.0784 199.397 40.1862 197.454 40.3731C195.242 40.5743 193.255 41.3075 193.255 43.7729C193.255 45.9581 194.834 47.0651 196.966 47.0651ZM197.854 44.9518C196.901 44.9518 196.217 44.5134 196.217 43.6723C196.217 42.8098 196.937 42.3857 198.029 42.2347C198.705 42.1414 199.812 41.9832 200.183 41.7388V42.9105C200.183 44.0677 199.215 44.9518 197.854 44.9518ZM205.666 46.8567H208.766V40.6103C208.773 39.2589 209.762 38.3317 211.014 38.3317C211.436 38.3317 211.778 38.4467 212.069 38.5905L213 36.0603C212.593 35.8159 212.069 35.6578 211.472 35.6578C210.214 35.6578 209.195 36.3766 208.787 37.7423H208.671V35.8159H205.666V46.8567Z" fill="black"/>
<path d="M113.136 41.6729L122.014 50.5502C117.48 49.7838 113.903 46.2062 113.136 41.6729Z" fill="#5E6AD2"/>
<path d="M113 39.2628L124.424 50.6867C125.103 50.6504 125.766 50.5516 126.407 50.3959L113.291 37.28C113.135 37.9206 113.036 38.5834 113 39.2628Z" fill="#5E6AD2"/>
<path d="M113.859 35.5751L128.111 49.8274C128.631 49.6046 129.129 49.3424 129.602 49.0447L114.642 34.0842C114.344 34.5578 114.082 35.056 113.859 35.5751Z" fill="#5E6AD2"/>
<path d="M115.608 32.7764C117.598 30.4642 120.546 29 123.836 29C129.828 29 134.687 33.8582 134.687 39.8512C134.687 43.1412 133.223 46.0893 130.91 48.0793L115.608 32.7764Z" fill="#5E6AD2"/>
</g></svg>