<svg width="208" height="57" viewBox="0 0 208 57" fill="none" xmlns="http://www.w3.org/2000/svg">
<path fill-rule="evenodd" clip-rule="evenodd" d="M23.9969 16.1881C23.6297 16.1885 23.265 16.1293 22.9168 16.0129C22.3096 15.7827 21.7684 15.4066 21.3408 14.9179C20.9132 14.4292 20.6123 13.8429 20.4647 13.2105C20.0983 11.8341 20.1559 10.3792 20.6301 9.03607C21.0649 7.67934 21.8992 6.48552 23.0238 5.61088C23.5253 5.20592 24.1176 4.92881 24.7498 4.80338C25.382 4.67795 26.0353 4.70795 26.6533 4.89081C27.2566 5.1191 27.7952 5.49093 28.2224 5.97413C28.6497 6.45734 28.9528 7.03737 29.1055 7.66405C29.4687 9.04143 29.4077 10.4964 28.9303 11.8385C28.4994 13.1971 27.6643 14.392 26.5366 15.2637C25.8066 15.8323 24.9123 16.1497 23.9871 16.1686L23.9969 16.1881ZM50.1918 23.6807C48.3624 23.6807 46.679 21.9389 46.2411 19.4576C45.7546 16.7525 46.9709 14.3587 48.9949 13.9987C49.5303 13.9236 50.0758 13.98 50.5845 14.1631C51.0931 14.3463 51.5495 14.6505 51.9141 15.0496C52.7306 15.9165 53.2693 17.0076 53.4613 18.1829C53.6873 19.3494 53.555 20.557 53.0818 21.647C52.8763 22.1463 52.553 22.5885 52.1396 22.9359C51.7261 23.2833 51.2348 23.5254 50.7075 23.6418C50.5392 23.6564 50.3699 23.6564 50.2015 23.6418L50.1918 23.6807ZM39.0015 47.4235C39.282 47.4383 39.5619 47.384 39.8164 47.2652C40.0709 47.1464 40.2924 46.9669 40.4611 46.7423C40.899 46.1877 40.4611 45.7693 40.1595 45.38C38.1992 42.4404 36.5398 39.3108 35.2066 36.0386C34.1103 33.567 32.9912 31.1052 31.8495 28.6531C31.4531 27.6873 30.7749 26.8633 29.9034 26.2885C29.4266 26.0063 28.9303 25.6657 28.3465 26.1036C27.7626 26.5415 28.1324 27.0767 28.2784 27.5146C29.4363 31.2803 30.7889 34.978 32.2874 38.6172C33.0981 40.829 34.1523 42.9439 35.4304 44.9227C35.8193 45.5608 36.3353 46.1121 36.9463 46.5423C37.5573 46.9725 38.2502 47.2724 38.9821 47.4235H39.0015ZM53.7143 35.8537C53.752 34.1599 53.5322 32.4702 53.0623 30.8424C52.9261 30.3559 52.7412 29.811 52.1768 29.6845C51.6125 29.558 51.2719 30.0543 50.9702 30.4629C50.205 31.4939 49.6315 32.6541 49.2771 33.8881C48.1094 37.6442 46.9807 41.4197 45.8033 45.1757C45.2778 46.8494 45.8033 47.6473 47.5256 47.803C49.4717 47.9781 50.8632 47.0829 51.8363 44.7962C53.0509 41.97 53.6894 38.9298 53.7143 35.8537ZM10.1404 43.0252C10.1404 43.4826 10.1404 43.9399 10.1404 44.3875C10.1364 44.7566 10.2025 45.1231 10.335 45.4676C10.4632 45.7034 10.6511 45.9013 10.88 46.0414C11.1089 46.1815 11.3707 46.2588 11.639 46.2655C12.7385 46.3531 13.3613 45.38 13.9646 44.5043C14.7501 43.29 15.381 41.9825 15.8426 40.612C17.8666 35.3672 19.6181 29.9959 22.8292 25.2862C22.9561 25.0974 23.0318 24.8789 23.0488 24.652C23.0659 24.4251 23.0237 24.1977 22.9265 23.9921C22.1091 21.6762 20.2117 21.1702 18.392 22.8633C16.9991 24.3334 15.8582 26.0233 15.0155 27.8649C13.6247 30.4654 12.4938 33.1967 11.639 36.0192C10.8599 38.2992 10.3568 40.6644 10.1404 43.0641V43.0252ZM25.2132 28.8379C23.5895 31.1868 22.281 33.7386 21.3209 36.4278C19.9003 40.2033 18.8883 44.154 16.7865 47.6667C16.3645 48.5457 15.7696 49.3305 15.0372 49.9742C14.3049 50.6179 13.4503 51.1073 12.5244 51.413C9.60525 52.1818 7.59101 50.8389 7.02663 47.91C6.57901 44.8063 6.79122 41.6431 7.64939 38.627C9.18683 31.942 11.4638 25.549 15.8037 20.1387C18.9467 16.1881 23.2476 16.5189 25.6705 20.9561C25.8446 21.4704 26.2012 21.903 26.6729 22.172C27.1445 22.441 27.6984 22.5277 28.2297 22.4157C30.8862 22.1335 32.7934 23.6223 34.2627 25.6949C36.1115 28.3125 37.0359 31.3874 38.408 34.2384C39.634 36.7781 40.6752 39.4054 42.0862 41.8478C42.2516 42.1397 42.3586 42.6068 42.777 42.5776C43.1954 42.5484 43.2246 42.0716 43.3122 41.731C43.9155 39.4638 44.548 37.1966 45.0929 34.9196C45.6376 32.355 46.6255 29.9051 48.0121 27.68C48.4023 26.9212 49 26.2888 49.7356 25.8565C50.4711 25.4241 51.3143 25.2095 52.1671 25.2376C54.3078 25.3641 55.4269 26.7556 56.108 28.5947C57.6844 32.8372 57.3827 37.1479 56.4486 41.4586C55.8244 44.3772 54.5209 47.1075 52.6439 49.428C50.2794 52.3472 47.4964 52.7948 44.4118 50.7027C44.2659 50.5538 44.0918 50.4356 43.8997 50.3548C43.7075 50.2741 43.5012 50.2325 43.2928 50.2325C43.0843 50.2325 42.878 50.2741 42.6858 50.3548C42.4937 50.4356 42.3196 50.5538 42.1737 50.7027C39.4686 52.7948 36.3937 52.2693 34.0876 49.3988C30.857 45.3703 29.0763 40.6412 27.4026 35.7759C26.6436 33.606 26.0306 31.3874 25.2619 28.8671L25.2132 28.8379ZM201.163 51.7731V39.1232H199.1V44.2902H195.509V39.1232H193.378V51.7731H195.48V46.1682H199.071V51.7731H201.163ZM189.428 51.7731V41.0694H192.035V39.1232H184.747V41.0694H187.345V51.7731H189.428ZM185.214 51.7731V49.8269H180.981V39.1232H178.889V51.7731H185.214ZM173.177 41.1667H173.236L174.365 46.6839H172.068L173.177 41.1667ZM177.556 51.7731L174.637 39.1232H171.835L168.915 51.7731H171.027L171.679 48.5328H174.715L175.377 51.7731H177.556ZM168.302 51.7731V49.8269H163.7V46.1585H166.96V44.3194H163.7V41.0304H168.079V39.0843H161.617V51.7341L168.302 51.7731ZM159.37 51.7731V39.1232H157.307V44.2902H153.706V39.1232H151.614V51.7731H153.706V46.1682H157.307V51.7731H159.37ZM146.447 42.1203C146.097 40.1741 145.114 38.9675 142.905 38.9675C142.466 38.9206 142.022 38.9693 141.604 39.1105C141.185 39.2516 140.802 39.4818 140.482 39.7852C140.161 40.0885 139.909 40.4578 139.745 40.8677C139.58 41.2775 139.507 41.7181 139.529 42.1592C139.529 46.2071 144.657 45.8763 144.657 48.6593C144.668 48.8691 144.633 49.0789 144.555 49.2741C144.477 49.4693 144.358 49.6451 144.205 49.7895C144.052 49.9339 143.87 50.0434 143.671 50.1103C143.472 50.1773 143.26 50.2001 143.051 50.1772C141.923 50.1772 141.446 49.5253 141.203 48.2311L139.256 48.5717C139.655 50.8389 140.716 51.9385 142.973 51.9385C145.231 51.9385 146.671 50.7027 146.671 48.5036C146.671 44.3583 141.485 44.6794 141.485 42.0327C141.477 41.8485 141.511 41.6648 141.582 41.4947C141.653 41.3246 141.76 41.1721 141.897 41.0479C142.033 40.9237 142.195 40.8308 142.371 40.7757C142.546 40.7205 142.732 40.7045 142.915 40.7288C143.888 40.7288 144.365 41.4002 144.628 42.4706L146.438 42.1203H146.447ZM136.775 44.0664L137.943 41.4294V39.1232H135.792V41.4878H136.571L135.598 44.0177L136.775 44.0664ZM133.69 51.8509V39.2011H131.793V46.8883L128.319 39.2011H125.916V51.8509H127.774V43.0933L131.812 51.8509H133.69ZM124.349 51.8509V49.9048H119.756V46.1585H123.016V44.3194H119.756V41.0304H124.125V39.0843H117.664V51.7341L124.349 51.8509ZM110.483 44.8546V40.9429H111.641C112.614 40.9429 113.587 41.0402 113.587 42.8209C113.626 43.0855 113.603 43.3558 113.519 43.6099C113.435 43.8639 113.293 44.0949 113.104 44.2841C112.915 44.4733 112.684 44.6155 112.43 44.6994C112.176 44.7832 111.905 44.8064 111.641 44.767L110.483 44.8546ZM116.175 51.8509L113.976 45.7985C114.555 45.5304 115.036 45.0902 115.355 44.538C115.674 43.9859 115.814 43.3488 115.757 42.7138C115.757 40.2422 114.453 39.2011 111.738 39.2011H108.391V51.8509H110.483V46.5574H112.088L113.908 51.7731L116.175 51.8509ZM100.811 49.9048V41.1472H101.784C103.632 41.1472 104.567 42.2078 104.567 45.419C104.567 48.6301 103.72 49.9242 101.735 49.9242L100.811 49.9048ZM101.55 51.8509C105.277 51.8509 106.678 49.5448 106.678 45.3898C106.678 40.9623 105.082 39.2011 101.589 39.2011H98.6699V51.8509H101.55ZM97.4341 51.8509V49.9048H93.2012V39.2011H91.1092V51.8509H97.4341ZM86.7887 51.8509H88.8808V39.2011H86.7887V51.8509ZM84.5507 51.8509V39.2011H82.4489V44.368H78.8972V39.1232H76.7954V51.7731H78.8972V46.1682H82.4489V51.7731L84.5507 51.8509ZM73.2339 47.4624C72.9712 49.1847 72.3777 50.0897 71.3754 50.0897C70.0131 50.0897 69.4293 48.9025 69.4293 45.3995C69.4293 42.1884 70.1007 40.8358 71.3754 40.8358C72.3485 40.8358 72.8545 41.624 73.1172 43.2296L75.0633 43.0544C74.7422 40.4758 73.7789 38.9675 71.3462 38.9675C68.3492 38.9675 67.2885 41.7505 67.2885 45.3995C67.2885 49.4669 68.2616 51.9385 71.3073 51.9385C73.6134 51.9385 74.8006 50.4692 75.1995 47.657L73.2339 47.4624Z" fill="#309C88"/>
<path fill-rule="evenodd" clip-rule="evenodd" d="M67.9308 16.1881C67.9308 15.672 68.1358 15.177 68.5008 14.812C68.8658 14.447 69.3608 14.242 69.8769 14.242H70.2856C70.7003 14.2464 71.1073 14.3547 71.4694 14.557C71.8315 14.7593 72.137 15.0491 72.3582 15.3999L80.0162 25.4711V16.0713C80.0162 15.5552 80.2213 15.0602 80.5863 14.6952C80.9512 14.3302 81.4462 14.1252 81.9624 14.1252C82.4785 14.1252 82.9735 14.3302 83.3385 14.6952C83.7035 15.0602 83.9085 15.5552 83.9085 16.0713V30.4435C83.915 30.7031 83.8695 30.9614 83.7746 31.2032C83.6797 31.445 83.5374 31.6653 83.356 31.8512C83.1746 32.0371 82.9579 32.1848 82.7185 32.2856C82.4792 32.3865 82.2221 32.4384 81.9624 32.4383H81.8651C81.4506 32.4339 81.0439 32.3245 80.6832 32.1203C80.3224 31.9161 80.0193 31.6237 79.8022 31.2706L71.8522 20.8491V30.5797C71.8522 31.0959 71.6472 31.5909 71.2822 31.9559C70.9173 32.3208 70.4223 32.5259 69.9061 32.5259C69.39 32.5259 68.895 32.3208 68.53 31.9559C68.165 31.5909 67.96 31.0959 67.96 30.5797V16.1881H67.9308ZM88.2873 30.3462V16.2562C88.2873 15.7401 88.4923 15.2451 88.8573 14.8801C89.2223 14.5151 89.7173 14.3101 90.2334 14.3101H100.314C100.557 14.292 100.801 14.3243 101.031 14.4049C101.261 14.4855 101.472 14.6126 101.651 14.7784C101.829 14.9441 101.972 15.145 102.069 15.3683C102.166 15.5916 102.217 15.8326 102.217 16.0762C102.217 16.3198 102.166 16.5608 102.069 16.7841C101.972 17.0074 101.829 17.2083 101.651 17.374C101.472 17.5398 101.261 17.6669 101.031 17.7475C100.801 17.8281 100.557 17.8604 100.314 17.8423H92.2671V21.5108H99.1564C99.3994 21.4927 99.6434 21.525 99.8734 21.6056C100.103 21.6861 100.314 21.8133 100.493 21.9791C100.671 22.1448 100.814 22.3456 100.911 22.5689C101.008 22.7923 101.059 23.0333 101.059 23.2769C101.059 23.5205 101.008 23.7615 100.911 23.9848C100.814 24.2081 100.671 24.4089 100.493 24.5747C100.314 24.7405 100.103 24.8676 99.8734 24.9482C99.6434 25.0288 99.3994 25.061 99.1564 25.043H92.2671V28.8379H100.441C100.913 28.8379 101.366 29.0256 101.7 29.3595C102.034 29.6935 102.222 30.1464 102.222 30.6187C102.22 30.8508 102.173 31.0803 102.083 31.2942C101.993 31.508 101.861 31.7019 101.695 31.8647C101.53 32.0274 101.334 32.1559 101.119 32.2427C100.903 32.3294 100.673 32.3727 100.441 32.3702H90.3015C89.7854 32.3702 89.2904 32.1651 88.9254 31.8002C88.5604 31.4352 88.3554 30.9402 88.3554 30.424L88.2873 30.3462ZM105.608 16.1881C105.608 15.672 105.813 15.177 106.178 14.812C106.543 14.447 107.038 14.242 107.554 14.242H107.992C108.359 14.2249 108.724 14.3061 109.049 14.4771C109.374 14.6482 109.647 14.9029 109.841 15.215L114.638 22.9996L119.425 15.215C119.604 14.9047 119.865 14.6497 120.179 14.478C120.493 14.3064 120.848 14.2247 121.206 14.242H121.644C122.16 14.242 122.655 14.447 123.02 14.812C123.385 15.177 123.59 15.672 123.59 16.1881V30.5019C123.59 31.018 123.385 31.513 123.02 31.878C122.655 32.243 122.16 32.448 121.644 32.448C121.128 32.448 120.633 32.243 120.268 31.878C119.903 31.513 119.698 31.018 119.698 30.5019V21.4913L116.234 26.8918C116.077 27.1938 115.84 27.4469 115.549 27.6236C115.258 27.8003 114.925 27.8937 114.584 27.8937C114.244 27.8937 113.91 27.8003 113.619 27.6236C113.329 27.4469 113.092 27.1938 112.935 26.8918L109.5 21.5983V30.5797C109.5 31.0959 109.295 31.5909 108.93 31.9559C108.565 32.3208 108.07 32.5259 107.554 32.5259C107.038 32.5259 106.543 32.3208 106.178 31.9559C105.813 31.5909 105.608 31.0959 105.608 30.5797V16.1881ZM142.253 23.3401C142.278 22.6044 142.155 21.8711 141.891 21.1839C141.627 20.4967 141.228 19.8695 140.717 19.3395C140.206 18.8095 139.594 18.3875 138.917 18.0986C138.24 17.8096 137.511 17.6596 136.775 17.6574C136.044 17.6541 135.32 17.7992 134.647 18.0839C133.974 18.3686 133.365 18.787 132.859 19.3138C132.352 19.8406 131.957 20.4647 131.699 21.1484C131.44 21.8322 131.324 22.5612 131.355 23.2915C131.33 24.0268 131.454 24.7595 131.718 25.4462C131.982 26.1329 132.381 26.7595 132.892 27.2887C133.403 27.8179 134.016 28.239 134.693 28.5269C135.37 28.8148 136.098 28.9636 136.833 28.9644C137.564 28.9677 138.287 28.8229 138.959 28.5388C139.632 28.2547 140.24 27.8371 140.746 27.3114C141.253 26.7857 141.648 26.1628 141.907 25.4802C142.166 24.7976 142.284 24.0696 142.253 23.3401ZM127.2 23.3401V23.2915C127.28 20.7985 128.326 18.4342 130.117 16.6988C131.909 14.9634 134.305 13.993 136.799 13.993C139.294 13.993 141.69 14.9634 143.482 16.6988C145.273 18.4342 146.319 20.7985 146.399 23.2915C146.326 25.7848 145.286 28.152 143.499 29.8922C141.712 31.6323 139.317 32.6089 136.823 32.6152C134.329 32.6215 131.93 31.6571 130.134 29.9261C128.338 28.195 127.286 25.8331 127.2 23.3401ZM149.649 24.5857V16.1005C149.649 15.5728 149.858 15.0666 150.232 14.6934C150.605 14.3203 151.111 14.1106 151.639 14.1106C152.166 14.1106 152.673 14.3203 153.046 14.6934C153.419 15.0666 153.629 15.5728 153.629 16.1005V24.4883C153.629 27.4075 155.098 28.9547 157.521 28.9547C159.944 28.9547 161.413 27.4757 161.413 24.6148V16.1005C161.413 15.5741 161.622 15.0692 161.995 14.6969C162.367 14.3246 162.872 14.1155 163.398 14.1155C163.925 14.1155 164.43 14.3246 164.802 14.6969C165.174 15.0692 165.383 15.5741 165.383 16.1005V24.4592C165.383 29.9278 162.318 32.6134 157.462 32.6134C152.607 32.6134 149.678 29.9083 149.678 24.5954" fill="#309C88"/>
<path fill-rule="evenodd" clip-rule="evenodd" d="M177.449 22.9996C179.395 22.9996 180.495 21.9681 180.495 20.4501V20.3917C180.495 18.6889 179.308 17.8131 177.371 17.8131H173.421V22.9996H177.449ZM169.441 16.1881C169.441 15.672 169.646 15.177 170.011 14.812C170.376 14.447 170.871 14.242 171.387 14.242H177.654C178.609 14.1818 179.566 14.3126 180.47 14.6267C181.374 14.9408 182.206 15.4319 182.918 16.0713C183.44 16.6198 183.846 17.2678 184.111 17.9767C184.377 18.6856 184.498 19.4408 184.465 20.1971V20.2458C184.534 21.4296 184.22 22.6042 183.57 23.5959C182.92 24.5877 181.968 25.344 180.855 25.7533L183.648 29.1299C184.043 29.5425 184.272 30.0866 184.29 30.6576C184.289 30.9016 184.239 31.1429 184.143 31.3675C184.048 31.592 183.909 31.7954 183.734 31.9656C183.559 32.1359 183.352 32.2697 183.125 32.3592C182.898 32.4487 182.656 32.4921 182.412 32.4869C182.028 32.4842 181.651 32.389 181.313 32.2094C180.974 32.0299 180.683 31.7712 180.466 31.4555L176.573 26.5902H173.401V30.5408C173.401 31.0686 173.192 31.5747 172.818 31.9479C172.445 32.3211 171.939 32.5307 171.411 32.5307C170.884 32.5307 170.377 32.3211 170.004 31.9479C169.631 31.5747 169.421 31.0686 169.421 30.5408L169.441 16.1881ZM187.744 30.3559C187.511 30.1822 187.321 29.9562 187.191 29.6959C187.061 29.4356 186.994 29.1484 186.995 28.8574C186.995 28.6147 187.043 28.3744 187.137 28.1505C187.231 27.9267 187.368 27.7237 187.541 27.5534C187.714 27.3832 187.919 27.249 188.145 27.1588C188.37 27.0686 188.611 27.0242 188.854 27.028C189.259 27.021 189.656 27.1475 189.982 27.3881C191.304 28.4206 192.927 28.9915 194.604 29.0131C196.229 29.0131 197.212 28.3709 197.212 27.3102V27.2519C197.212 26.2788 196.589 25.7339 193.573 24.9554C189.934 24.031 187.589 23.0093 187.589 19.4381V19.3895C187.589 16.1103 190.216 13.9403 193.913 13.9403C195.935 13.9088 197.922 14.463 199.635 15.5362C199.982 15.7444 200.25 16.061 200.399 16.4371C200.547 16.8132 200.568 17.2277 200.457 17.6166C200.346 18.0055 200.11 18.347 199.786 18.5883C199.461 18.8297 199.066 18.9573 198.662 18.9516C198.318 18.9422 197.982 18.8414 197.689 18.6597C196.555 17.9243 195.244 17.5075 193.894 17.4531C192.376 17.4531 191.578 18.144 191.578 19.0295C191.578 20.2166 192.347 20.6058 195.47 21.4037C199.139 22.3768 201.202 23.671 201.202 26.8237V26.8724C201.202 30.463 198.467 32.4772 194.565 32.4772C192.124 32.4838 189.742 31.7249 187.754 30.3073" fill="#309C88"/>
</svg>
