<svg  viewBox="20 16 50 50" fill="none" xmlns="http://www.w3.org/2000/svg"><defs>
<clipPath id="clip0_0_3312">
<rect width="75" height="30" fill="white" transform="translate(20 26)"/>
</clipPath>
<clipPath id="clip1_0_3312">
<rect width="75" height="30" fill="white" transform="translate(126 26)"/>
</clipPath>
</defs><g clip-path="url(#clip0_0_3312)">
<path fill-rule="evenodd" clip-rule="evenodd" d="M20 26.0343C20 26.0343 22.9535 25.6529 24.9225 27.4379C26.1373 28.5393 26.4912 30.2943 26.4912 30.2943L30.5127 46.3143L33.856 33.2011C34.1824 31.8071 34.7687 30.0843 35.6972 28.9186C36.8813 27.4346 39.2866 27.3414 39.5433 27.3414C39.7989 27.3414 42.2042 27.4346 43.3873 28.9186C44.3169 30.0843 44.9032 31.8071 45.2296 33.2011L48.5729 46.3143L52.5933 30.2932C52.5933 30.2932 52.9482 28.5382 54.163 27.4368C56.132 25.6529 59.0845 26.0343 59.0845 26.0343L51.3849 55.9754C51.3849 55.9754 48.8454 56.1639 47.5746 55.4975C45.9056 54.6232 45.1113 53.9471 44.1004 49.8736L43.9958 49.4504C43.6271 47.9514 43.063 45.6039 42.4916 43.2221L42.3204 42.5075L42.1493 41.7961C41.3264 38.3696 40.568 35.2143 40.4465 34.8136C40.3324 34.4375 40.1972 33.5418 39.5433 33.5418C38.9021 33.5418 38.7553 34.4386 38.638 34.8136C38.5007 35.255 37.5923 39.0511 36.6775 42.8643L36.5063 43.5789C36.0389 45.5372 35.5667 47.4944 35.0898 49.4504L34.9842 49.8736C33.9743 53.9471 33.1799 54.6232 31.5109 55.4975C30.2391 56.1639 27.6996 55.9754 27.6996 55.9754L20 26.0343ZM66.4768 31.3571V32.4232L66.4789 32.4221V50.2379C66.4641 53.8946 66.0849 54.7057 64.437 55.5479C63.1556 56.2014 61.1972 55.9539 61.1972 55.9539V35.9986C61.1972 34.9968 61.5299 34.34 62.7574 33.7507C63.4894 33.3982 64.1729 33.1293 64.8827 32.7296C65.993 32.1104 66.4768 31.3571 66.4768 31.3571ZM68.5916 26.1339C68.5916 26.1339 72.687 25.4129 74.7151 27.32C76.0123 28.5414 77.4637 30.7379 77.4637 30.7379L81.0342 36.0575C81.2074 36.3339 81.4335 36.6361 81.7947 36.6361C82.157 36.6361 82.3842 36.3339 82.5574 36.0575L86.1278 30.7379C86.1278 30.7379 87.5792 28.5414 88.8764 27.32C90.9046 25.4129 95 26.1339 95 26.1339L85.2965 41.0514L94.9736 55.9239L94.9398 55.9282C94.5384 55.9764 90.6764 56.3814 88.7549 54.5718C87.4567 53.3525 86.1278 51.3661 86.1278 51.3661L82.5574 46.0475C82.3842 45.7689 82.157 45.4689 81.7958 45.4689C81.4335 45.4689 81.2074 45.7689 81.0342 46.0475L77.4637 51.3661C77.4637 51.3661 76.2067 53.3525 74.9095 54.5718C72.8813 56.4821 68.6169 55.9239 68.6169 55.9239L78.294 41.0525L68.5916 26.1339ZM66.4366 26H66.4789C66.4789 28.0464 66.2824 29.2593 65.0137 30.2032C64.4215 30.645 63.7725 31.0025 63.0849 31.2661C61.9567 31.6829 61.1972 32.4286 61.1972 32.4286C61.1972 28.7043 61.757 27.3564 63.257 26.5571C64.1708 26.0729 65.657 26.0064 66.2359 26H66.4366Z" fill="black"/>
</g><g clip-path="url(#clip1_0_3312)">
<path fill-rule="evenodd" clip-rule="evenodd" d="M126 26.0343C126 26.0343 128.954 25.6529 130.923 27.4379C132.137 28.5393 132.491 30.2943 132.491 30.2943L136.513 46.3143L139.856 33.2011C140.182 31.8071 140.769 30.0843 141.697 28.9186C142.881 27.4346 145.287 27.3414 145.543 27.3414C145.799 27.3414 148.204 27.4346 149.387 28.9186C150.317 30.0843 150.903 31.8071 151.23 33.2011L154.573 46.3143L158.593 30.2932C158.593 30.2932 158.948 28.5382 160.163 27.4368C162.132 25.6529 165.085 26.0343 165.085 26.0343L157.385 55.9754C157.385 55.9754 154.845 56.1639 153.575 55.4975C151.906 54.6232 151.111 53.9471 150.1 49.8736L149.996 49.4504C149.627 47.9514 149.063 45.6039 148.492 43.2221L148.32 42.5075L148.149 41.7961C147.326 38.3696 146.568 35.2143 146.446 34.8136C146.332 34.4375 146.197 33.5418 145.543 33.5418C144.902 33.5418 144.755 34.4386 144.638 34.8136C144.501 35.255 143.592 39.0511 142.677 42.8643L142.506 43.5789C142.039 45.5372 141.567 47.4944 141.09 49.4504L140.984 49.8736C139.974 53.9471 139.18 54.6232 137.511 55.4975C136.239 56.1639 133.7 55.9754 133.7 55.9754L126 26.0343ZM172.477 31.3571V32.4232L172.479 32.4221V50.2379C172.464 53.8946 172.085 54.7057 170.437 55.5479C169.156 56.2014 167.197 55.9539 167.197 55.9539V35.9986C167.197 34.9968 167.53 34.34 168.757 33.7507C169.489 33.3982 170.173 33.1293 170.883 32.7296C171.993 32.1104 172.477 31.3571 172.477 31.3571ZM174.592 26.1339C174.592 26.1339 178.687 25.4129 180.715 27.32C182.012 28.5414 183.464 30.7379 183.464 30.7379L187.034 36.0575C187.207 36.3339 187.433 36.6361 187.795 36.6361C188.157 36.6361 188.384 36.3339 188.557 36.0575L192.128 30.7379C192.128 30.7379 193.579 28.5414 194.876 27.32C196.905 25.4129 201 26.1339 201 26.1339L191.296 41.0514L200.974 55.9239L200.94 55.9282C200.538 55.9764 196.676 56.3814 194.755 54.5718C193.457 53.3525 192.128 51.3661 192.128 51.3661L188.557 46.0475C188.384 45.7689 188.157 45.4689 187.796 45.4689C187.433 45.4689 187.207 45.7689 187.034 46.0475L183.464 51.3661C183.464 51.3661 182.207 53.3525 180.91 54.5718C178.881 56.4821 174.617 55.9239 174.617 55.9239L184.294 41.0525L174.592 26.1339ZM172.437 26H172.479C172.479 28.0464 172.282 29.2593 171.014 30.2032C170.422 30.645 169.773 31.0025 169.085 31.2661C167.957 31.6829 167.197 32.4286 167.197 32.4286C167.197 28.7043 167.757 27.3564 169.257 26.5571C170.171 26.0729 171.657 26.0064 172.236 26H172.437Z" fill="black"/>
</g></svg>