<svg  viewBox="20 16 50 50" fill="none" xmlns="http://www.w3.org/2000/svg"><defs>
<clipPath id="clip0_0_1226">
<rect width="50" height="55.5556" fill="white" transform="translate(20 13)"/>
</clipPath>
<clipPath id="clip1_0_1226">
<rect width="100" height="27.972" fill="white" transform="translate(106 27)"/>
</clipPath>
</defs><g clip-path="url(#clip0_0_1226)">
<path d="M64.8611 13H25C22.2222 13 20 15.2222 20 18V63.5556C20 66.3333 22.2222 68.5556 25 68.5556H64.8611C67.6389 68.5556 69.8611 66.3333 69.8611 63.5556V18C69.8611 15.2222 67.6389 13 64.8611 13ZM67.0833 63.5556C67.0833 64.8056 66.1111 65.7778 64.8611 65.7778H25C23.75 65.7778 22.7778 64.8056 22.7778 63.5556V18C22.7778 16.75 23.75 15.7778 25 15.7778H64.8611C66.1111 15.7778 67.0833 16.75 67.0833 18V63.5556ZM32.5 60.2222L38.75 54.6667L32.5 49.1111V60.2222ZM55 37.7222C53.8889 36.6111 51.8056 35.2222 48.3333 35.2222C44.5833 35.2222 40.6944 36.1944 37.9167 37.1667V21.3333H32.3611V45.3611L36.25 43.5556C36.25 43.5556 42.6389 40.6389 48.1944 40.6389C50.9722 40.6389 51.6667 42.1667 51.6667 43.5556V60.2222H57.2222V43.5556C57.3611 43.1389 57.3611 40.0833 55 37.7222ZM47.6389 30.3611H53.1944C55.6944 27.4444 56.9444 24.5278 57.3611 21.3333H51.8056C51.25 24.5278 49.8611 27.4444 47.6389 30.3611Z" fill="#430098"/>
</g><g clip-path="url(#clip1_0_1226)">
<path d="M128.587 27H108.517C107.119 27 106 28.1189 106 29.5175V52.4545C106 53.8531 107.119 54.972 108.517 54.972H128.587C129.986 54.972 131.105 53.8531 131.105 52.4545V29.5175C131.105 28.1189 129.986 27 128.587 27ZM129.706 52.4545C129.706 53.0839 129.217 53.5734 128.587 53.5734H108.517C107.888 53.5734 107.399 53.0839 107.399 52.4545V29.5175C107.399 28.8881 107.888 28.3986 108.517 28.3986H128.587C129.217 28.3986 129.706 28.8881 129.706 29.5175V52.4545ZM112.294 50.7762L115.441 47.979L112.294 45.1818V50.7762ZM123.622 39.4476C123.063 38.8881 122.014 38.1888 120.266 38.1888C118.378 38.1888 116.42 38.6783 115.021 39.1678V31.1958H112.224V43.2937L114.182 42.3846C114.182 42.3846 117.399 40.9161 120.196 40.9161C121.594 40.9161 121.944 41.6853 121.944 42.3846V50.7762H124.741V42.3846C124.811 42.1748 124.811 40.6364 123.622 39.4476ZM119.916 35.7413H122.713C123.972 34.2727 124.601 32.8042 124.811 31.1958H122.014C121.734 32.8042 121.035 34.2727 119.916 35.7413ZM197.189 42.3147V36.1608H199.986V42.3147C199.986 43.7133 200.476 44.4126 201.594 44.4126C202.713 44.4126 203.133 43.7832 203.133 42.3147V36.1608H205.86V42.3846C205.86 45.1119 204.531 46.7203 201.524 46.7203C198.517 46.6504 197.189 45.042 197.189 42.3147ZM185.441 36.1608H188.238V39.9371L191.105 36.1608H194.322L190.825 40.2168L194.601 46.5105H191.455L189.007 42.3846L188.238 43.2937V46.5105H185.441V36.1608ZM172.154 41.2657C172.154 37.4895 174.741 35.8811 177.259 35.8811C179.776 35.8811 182.364 37.4895 182.364 41.2657C182.364 45.042 179.776 46.6504 177.259 46.6504C174.741 46.6504 172.154 45.1119 172.154 41.2657ZM179.497 41.2657C179.497 39.3776 178.657 38.1888 177.189 38.1888C175.72 38.1888 174.881 39.3776 174.881 41.2657C174.881 43.1538 175.72 44.4126 177.189 44.4126C178.657 44.4126 179.497 43.2238 179.497 41.2657ZM160.895 36.1608H164.951C167.608 36.1608 169.217 37.0699 169.217 39.5175C169.217 41.1259 168.517 42.1049 167.189 42.5245L169.357 46.5105H166.42L164.392 42.9441H163.622V46.5105H160.895V36.1608ZM164.881 40.7762C166 40.7762 166.559 40.4266 166.559 39.5874C166.559 38.7483 166.07 38.3986 164.881 38.3986H163.692V40.7762H164.881ZM150.196 36.1608H157.608V38.4685H152.993V40.1469H156.28V42.3147H152.993V44.2028H157.818V46.4406H150.196V36.1608ZM137.538 36.1608H140.336V40.007H143.762V36.1608H146.559V46.5105H143.762V42.3147H140.336V46.5105H137.538V36.1608Z" fill="#430098"/>
</g></svg>