<svg width="184" height="65" viewBox="0 0 184 65" fill="none" xmlns="http://www.w3.org/2000/svg">
<path d="M44.372 7.64941C46.777 7.64941 48.7337 9.57065 48.7899 11.9627L48.7911 12.0685V52.3314C48.7911 54.7364 46.8693 56.6931 44.4778 56.7493L44.372 56.7505H9.0192C6.61424 56.7505 4.65755 54.8287 4.60134 52.4372L4.6001 52.3314V12.0685C4.6001 9.66295 6.52193 7.70685 8.91339 7.65066L9.0192 7.64941H44.372ZM44.372 10.1045H9.0192C7.9617 10.1045 7.09626 10.9453 7.05658 11.9933L7.05515 12.0685V52.3314C7.05515 53.3889 7.896 54.2544 8.944 54.2941L9.0192 54.2955H44.372C45.4301 54.2955 46.295 53.4546 46.3346 52.4066L46.3361 52.3314V12.0685C46.3361 10.9858 45.4553 10.1045 44.372 10.1045ZM15.6479 39.5651L21.1717 44.4753L15.6479 49.3854V39.5651ZM20.558 15.0146V28.9538C23.0093 28.1559 26.436 27.2899 29.7644 27.2899C32.7995 27.2899 34.6162 28.483 35.6056 29.4841C37.6855 31.5881 37.7451 34.2597 37.7429 34.6394L37.7427 34.655L37.7434 49.3854H32.8332V34.7225C32.8093 33.5766 32.2569 32.2 29.7644 32.2C24.822 32.2 19.284 34.6609 19.1196 34.7346L19.1162 34.736L15.6479 36.3073V15.0146H20.558ZM37.7434 15.0146C37.4119 17.8035 36.2814 20.4771 34.0608 22.9935H29.1507C31.0803 20.4617 32.2919 17.7974 32.8332 15.0146H37.7434Z" fill="#430098"/>
<path d="M129.246 23.293C133.602 23.293 138.13 26.0599 138.13 32.691C138.13 39.3233 133.602 42.0889 129.246 42.0889C124.865 42.0889 120.338 39.3233 120.338 32.691C120.338 26.0599 124.865 23.293 129.246 23.293ZM169.096 23.6361V34.4543C169.096 36.9493 169.904 38.0755 171.862 38.0755C173.82 38.0755 174.603 36.9493 174.603 34.4543V23.6361H179.4V34.4783C179.4 39.2761 177.1 42.0159 171.813 42.0159C166.526 42.0159 164.201 39.2761 164.201 34.4783V23.6361H169.096ZM64.7336 23.6361V30.366H70.754V23.6361H75.6494V41.7471H70.754V34.4292H64.7336V41.7471H59.8389V23.6361H64.7336ZM94.8762 23.6361V27.6992H86.8488V30.6361H92.5758V34.4543H86.8488V37.8067H95.2929V41.7471H81.954V23.6361H94.8762ZM107.742 23.6361C112.392 23.6361 115.231 25.1785 115.231 29.5344C115.231 32.3731 114.031 34.0136 111.658 34.8201L115.5 41.7471H110.312L106.811 35.4578H105.465V41.7471H100.669V23.6361H107.742ZM148.473 23.6361V30.196L153.467 23.6361H159.144L153.05 30.7828L159.682 41.7471H154.151L149.869 34.5022L148.473 36.1176V41.7471H143.579V23.6361H148.473ZM129.246 27.3316C126.676 27.3316 125.232 29.3625 125.232 32.691C125.232 36.0207 126.676 38.1737 129.246 38.1737C131.791 38.1737 133.235 36.0207 133.235 32.691C133.235 29.3625 131.791 27.3316 129.246 27.3316ZM107.57 27.6004H105.465V31.7366H107.57C109.577 31.7366 110.458 31.1738 110.458 29.6565C110.458 28.1399 109.577 27.6004 107.57 27.6004Z" fill="#430098"/>
</svg>
