<svg width="218" height="55" viewBox="0 0 218 55" fill="none" xmlns="http://www.w3.org/2000/svg">
<path fill-rule="evenodd" clip-rule="evenodd" d="M74.0104 4.54169C79.7905 4.54169 85.5694 6.80309 89.9672 11.2004C98.7615 20.0578 98.7615 34.3804 89.9036 43.1749C81.1092 51.9695 66.7868 51.9695 57.9925 43.1749C49.1982 34.3175 49.1982 20.0578 57.9925 11.2004C62.389 6.74033 68.1691 4.54169 73.948 4.54169H74.0104ZM64.4001 36.7674C69.6763 42.0442 78.2822 42.0442 83.5595 36.7674C88.8992 31.4907 88.8992 22.8846 83.5595 17.6079C78.2822 12.3312 69.6763 12.3312 64.4001 17.6079C59.1228 22.8846 59.1228 31.4907 64.4001 36.7674Z" fill="#2D8CFF"/>
<path fill-rule="evenodd" clip-rule="evenodd" d="M121.439 4.54169C127.218 4.60444 132.998 6.80309 137.395 11.2004C146.19 20.0578 146.19 34.3804 137.395 43.1749C128.6 51.9695 114.278 51.9695 105.484 43.1749C96.6892 34.3175 96.6892 20.0578 105.484 11.2004C109.88 6.74033 115.66 4.54169 121.439 4.54169ZM111.828 36.7674C117.105 42.0442 125.711 42.0442 130.988 36.7674C136.327 31.4907 136.327 22.8846 130.988 17.6079C125.711 12.3312 117.105 12.3312 111.828 17.6079C106.551 22.8846 106.551 31.4907 111.828 36.7674Z" fill="#2D8CFF"/>
<path d="M17.5363 49.7089L19.7978 49.8345H53.6572L53.5312 47.573C53.2168 43.8668 50.5782 41.1656 46.8728 40.9143L44.6109 40.7887H24.2578L51.3953 13.7141L51.2693 11.4526C51.081 7.68344 48.3175 4.98227 44.6109 4.79388L42.349 4.66824H8.49043L8.61606 6.92964C8.93021 10.6359 11.5685 13.3999 15.2749 13.5884L17.5363 13.7141H37.8889L10.7519 40.8515L10.8776 43.113C11.066 46.7565 13.7673 49.4576 17.5363 49.7089Z" fill="#2D8CFF"/>
<path d="M173.201 22.6952C173.138 20.9992 172.888 19.4915 172.133 18.1723C170.563 15.4711 167.673 13.6494 164.344 13.775C161.014 13.775 158.125 15.5968 156.554 18.2979C155.738 19.6171 155.486 21.1249 155.424 22.8209L155.298 25.0824V40.9125L155.173 43.174C155.047 46.9432 152.282 49.5814 148.513 49.8327L146.253 49.9584V4.72918C148.513 4.72918 152.408 5.86 154.167 7.80737C157.057 5.86 160.511 4.72918 164.28 4.72918C169.684 4.72918 174.583 7.05345 177.849 10.8226C181.179 7.11633 186.016 4.72918 191.418 4.72918C201.406 4.72918 209.51 12.8328 209.51 22.8209V49.8956L207.249 49.77C203.542 49.5814 200.841 46.8175 200.59 43.1112L200.464 40.8498V25.0195L200.338 22.7581C200.276 21.1249 200.024 19.5544 199.271 18.2352C197.7 15.534 194.748 13.7123 191.418 13.7123C188.09 13.7123 185.199 15.4711 183.629 18.1723C182.812 19.4915 182.561 20.9992 182.498 22.6952L182.373 24.9567V49.8327L180.111 49.7071C176.405 49.4558 173.703 46.7547 173.453 43.0484L173.327 40.7869V24.9567L173.201 22.6952Z" fill="#2D8CFF"/>
</svg>
