<svg  viewBox="20 16 220 50" fill="none" xmlns="http://www.w3.org/2000/svg"><defs>
<clipPath id="clip0_0_3404">
<rect width="100" height="22.4723" fill="white" transform="translate(95 30)"/>
</clipPath>
<clipPath id="clip1_0_3404">
<rect width="50" height="50" fill="white" transform="translate(23 16)"/>
</clipPath>
</defs><g clip-path="url(#clip0_0_3404)">
<path fill-rule="evenodd" clip-rule="evenodd" d="M176.419 36.7389C176.801 37.3984 176.926 38.1487 176.967 38.9922L177.021 40.1166V47.9786L177.077 49.1041C177.188 50.9422 178.543 52.3013 180.396 52.4169L181.515 52.4723V40.1166L181.571 38.9922C181.617 38.1581 181.741 37.3936 182.129 36.7294C182.524 36.0482 183.092 35.4829 183.775 35.0905C184.458 34.698 185.232 34.4922 186.02 34.4936C186.808 34.4951 187.581 34.7037 188.263 35.0986C188.945 35.4936 189.51 36.0609 189.903 36.7436C190.286 37.4031 190.405 38.1676 190.451 38.9922L190.506 40.113V47.9786L190.562 49.1041C190.677 50.9516 192.022 52.3107 193.88 52.4169L195 52.4723V38.9922C195 36.6086 194.053 34.3225 192.368 32.6367C190.683 30.9509 188.397 30.0033 186.014 30.0024C184.738 30.001 183.476 30.2719 182.314 30.7971C181.151 31.3222 180.114 32.0893 179.271 33.0474C178.428 32.0897 177.391 31.3227 176.228 30.7975C175.066 30.2722 173.805 30.0007 172.529 30.0012C170.662 30.0012 168.931 30.5675 167.496 31.5455C166.621 30.5687 164.662 30.0012 163.538 30.0012V52.4723L164.662 52.4169C166.543 52.293 167.902 50.9705 167.975 49.1041L168.035 47.9786V40.1166L168.091 38.9922C168.138 38.144 168.256 37.3984 168.639 36.7342C169.035 36.0533 169.603 35.4882 170.285 35.0953C170.968 34.7023 171.741 34.4953 172.529 34.4949C173.317 34.4951 174.091 34.7025 174.774 35.0964C175.457 35.4902 176.024 36.0567 176.419 36.7389ZM99.4938 52.4181L100.618 52.4723H117.471L117.416 51.3516C117.264 49.504 115.955 48.1544 114.102 48.034L112.977 47.9786H102.867L116.347 34.4938L116.291 33.3742C116.204 31.5078 114.84 30.1593 112.977 30.0566L111.853 30.0059L95 30.0012L95.0554 31.1255C95.2029 32.9553 96.5302 34.3333 98.3683 34.4395L99.4938 34.4949H109.604L96.1243 47.9798L96.1798 49.1041C96.2907 50.9563 97.6274 52.2977 99.4938 52.4169V52.4181ZM159.127 33.2904C160.17 34.3337 160.998 35.5723 161.563 36.9356C162.127 38.2988 162.418 39.76 162.418 41.2356C162.418 42.7112 162.127 44.1723 161.563 45.5356C160.998 46.8988 160.17 48.1375 159.127 49.1808C157.018 51.2873 154.16 52.4706 151.18 52.4706C148.199 52.4706 145.341 51.2873 143.233 49.1808C138.845 44.7932 138.845 37.678 143.233 33.2904C144.275 32.2474 145.513 31.4201 146.875 30.8555C148.238 30.2909 149.698 30.0002 151.173 30C152.65 29.999 154.112 30.2892 155.477 30.854C156.842 31.4188 158.082 32.2471 159.127 33.2916V33.2904ZM155.947 36.4722C157.211 37.737 157.921 39.4518 157.921 41.2397C157.921 43.0276 157.211 44.7424 155.947 46.0072C154.682 47.271 152.968 47.9809 151.18 47.9809C149.392 47.9809 147.677 47.271 146.412 46.0072C145.148 44.7424 144.438 43.0276 144.438 41.2397C144.438 39.4518 145.148 37.737 146.412 36.4722C147.677 35.2085 149.392 34.4985 151.18 34.4985C152.968 34.4985 154.682 35.2085 155.947 36.4722ZM127.591 30C129.066 30.0004 130.526 30.2913 131.889 30.856C133.251 31.4208 134.489 32.2484 135.531 33.2916C139.92 37.678 139.92 44.7944 135.531 49.1808C133.423 51.2873 130.564 52.4706 127.584 52.4706C124.604 52.4706 121.745 51.2873 119.637 49.1808C115.25 44.7932 115.25 37.678 119.637 33.2904C120.68 32.2474 121.918 31.4201 123.28 30.8555C124.642 30.2909 126.102 30.0002 127.577 30H127.591ZM132.352 36.4699C133.616 37.7347 134.326 39.4497 134.326 41.2379C134.326 43.0262 133.616 44.7412 132.352 46.006C131.087 47.2698 129.372 47.9797 127.584 47.9797C125.796 47.9797 124.081 47.2698 122.817 46.006C121.553 44.7413 120.843 43.0265 120.843 41.2385C120.843 39.4506 121.553 37.7358 122.817 36.4711C124.081 35.2073 125.796 34.4974 127.584 34.4974C129.372 34.4974 131.087 35.2073 132.352 36.4711V36.4699Z" fill="#2D8CFF"/>
</g><g clip-path="url(#clip1_0_3404)">
<path d="M47.9994 66C61.8073 66 73 54.8063 73 40.9994C73 27.1927 61.8073 16 47.9994 16C34.1917 16 23 27.1927 23 40.9994C23 54.8063 34.1927 66 47.9994 66Z" fill="#2196F3"/>
<path fill-rule="evenodd" clip-rule="evenodd" d="M37.6704 48.1452H54.2048V36.0209C54.2048 34.1942 52.7244 32.7141 50.8979 32.7141H34.3634V44.8383C34.3634 46.6649 35.8437 48.1452 37.6704 48.1452ZM56.4083 43.7369L63.0221 48.1452V32.7141L56.4093 37.1232L56.4083 43.7369Z" fill="white"/>
</g></svg>