<svg width="213" height="56" viewBox="0 0 213 56" fill="none" xmlns="http://www.w3.org/2000/svg">
<path fill-rule="evenodd" clip-rule="evenodd" d="M162.122 36.562C167.277 36.562 171.471 32.4519 171.471 27.4001C171.471 22.348 167.277 18.238 162.122 18.238C156.967 18.238 152.773 22.348 152.773 27.4001C152.773 32.4519 156.967 36.562 162.122 36.562ZM171.471 4.63086H171.724H175.9V40.9335H171.471V37.3088C168.915 39.6306 165.619 40.9024 162.122 40.9024C154.525 40.9024 148.344 34.8452 148.344 27.4001C148.344 19.9545 154.525 13.8975 162.122 13.8975C165.619 13.8975 168.915 15.1692 171.471 17.4912V4.63086ZM70.2695 36.402C75.4244 36.402 79.6183 32.2921 79.6183 27.2401C79.6183 22.1883 75.4244 18.0783 70.2695 18.0783C65.1143 18.0783 60.9205 22.1883 60.9205 27.2401C60.9205 32.2921 65.1143 36.402 70.2695 36.402ZM60.9205 17.3317C63.4767 15.0097 66.7733 13.7378 70.2695 13.7378C77.8665 13.7378 84.0473 19.795 84.0473 27.2401C84.0473 34.6853 77.8665 40.7425 70.2695 40.7425C66.7733 40.7425 63.4767 39.4709 60.9205 37.1486V50.0091H56.4915V13.7065H60.9205V17.3317ZM92.498 25.1319C93.4948 21.029 97.209 18.0829 101.446 18.0829C105.627 18.0829 109.129 20.9661 110.063 25.1319H92.498ZM101.446 13.7065C93.9623 13.7065 87.8745 19.8138 87.8745 27.32C87.8745 34.8265 93.9623 40.9335 101.446 40.9335C105.636 40.9335 109.482 39.3597 111.999 36.6157L113.307 35.1893L113.475 35.0053L113.292 34.8356L110.449 32.2122L110.266 32.0427L110.096 32.2268L108.789 33.6533C107.121 35.4716 104.376 36.5573 101.446 36.5573C97.209 36.5573 93.495 33.6113 92.498 29.5081H114.665V27.32C114.665 19.6863 108.858 13.7065 101.446 13.7065ZM202.088 27.3201C202.088 32.4135 197.895 36.5572 192.739 36.5572C187.585 36.5572 183.39 32.4135 183.39 27.3201C183.39 22.2265 187.585 18.0827 192.739 18.0827C197.895 18.0827 202.088 22.2265 202.088 27.3201ZM192.739 13.7065C185.143 13.7065 178.962 19.8135 178.962 27.3201C178.962 34.8265 185.143 40.9335 192.739 40.9335C200.337 40.9335 206.518 34.8265 206.518 27.3201C206.518 19.8135 200.337 13.7065 192.739 13.7065ZM131.121 13.7065C128.044 13.7065 125.112 14.8785 122.804 17.0189V13.7065H118.492V40.9335H122.804V27.0391C122.804 22.0819 126.535 18.0487 131.121 18.0487C135.708 18.0487 139.44 22.0819 139.44 27.0391V40.9335H143.751V27.0391C143.751 19.6876 138.085 13.7065 131.121 13.7065Z" fill="#1A2022"/>
<path fill-rule="evenodd" clip-rule="evenodd" d="M6.48267 30.5613H27.3195V50.9353L48.1566 30.5613V10.1875H27.3195L6.48267 30.5613Z" fill="#FF4876"/>
</svg>
