<svg width="235" height="51" viewBox="0 0 235 51" fill="none" xmlns="http://www.w3.org/2000/svg">
<path d="M35.173 8.42481C34.0586 7.80623 30.8639 8.18871 27.0269 9.37644C20.3117 13.9666 14.6442 20.729 14.2487 31.5883C14.1767 31.848 13.5144 31.553 13.3834 31.4727C11.57 27.997 10.8516 24.3372 12.3657 19.0576C12.6479 18.5877 11.7252 18.0093 11.5593 18.1745C11.227 18.5074 9.8415 19.9833 8.92131 21.5794C4.36012 29.4918 7.34294 39.63 15.323 44.0669C23.3014 48.5106 33.3764 45.6441 37.8188 37.6634C42.9581 28.4521 38.186 10.1076 35.1732 8.42509L35.173 8.42481Z" fill="#82B541"/>
<path d="M63.7315 12.8457C54.2715 12.8457 47.4049 19.8785 47.4049 29.5684C47.4049 39.3377 54.2537 46.1608 64.0611 46.1608C69.0149 46.1608 72.9369 44.6118 76.0559 41.4231C76.9875 40.4172 77.0877 39.4478 77.0877 39.0772C77.0877 37.4976 75.913 36.3502 74.2945 36.3502C73.4787 36.3502 72.7963 36.6583 72.0136 37.382C70.2475 39.0277 67.9216 40.7088 64.0611 40.7088C58.6929 40.7088 54.3271 36.6784 54.052 31.5026H75.4178C77.7412 31.5026 78.8698 30.4164 78.8698 28.1828C78.8698 27.5251 78.8698 27.0506 78.7376 26.1143C77.5865 17.8064 71.9775 12.8468 63.7321 12.8468L63.7315 12.8457ZM63.7315 18.0333C68.8612 18.0333 72.1528 21.3023 72.3558 26.5785H54.0587C54.5391 21.6955 58.6679 18.0333 63.7315 18.0333Z" fill="black"/>
<path d="M99.2719 12.8457C94.9746 12.8457 90.7197 15.3167 89.0574 18.7487V16.6277C89.0574 13.342 86.5109 13.1756 86.0009 13.1756C84.492 13.1756 82.8795 14.0824 82.8795 16.6277V42.2448C82.8795 45.6568 85.59 45.8292 86.1331 45.8292C86.6762 45.8292 89.3881 45.6568 89.3881 42.2448V28.5122C89.3881 22.5371 92.774 18.3638 97.6216 18.3638C102.317 18.3638 104.6 21.4451 104.6 27.7849V42.2448C104.6 45.6568 107.312 45.8292 107.855 45.8292C108.398 45.8292 111.109 45.6568 111.109 42.2448V25.741C111.109 19.5074 107.999 12.8477 99.2719 12.8477V12.8457Z" fill="black"/>
<path d="M140.558 13.1761C139.054 13.1761 137.963 14.0534 137.314 15.7794L128.409 38.1713L119.572 15.7794C118.88 14.0275 117.798 13.1761 116.262 13.1761C114.467 13.1761 113.007 14.5763 113.007 16.2977C113.007 16.7238 113.055 17.2764 113.415 18.1393L123.649 42.3024C124.868 45.2174 126.874 45.829 128.343 45.829C129.81 45.829 131.817 45.2174 133.039 42.3038L143.339 18.0064C143.691 17.1541 143.745 16.5283 143.745 16.2321C143.745 14.4907 142.374 13.1761 140.558 13.1761Z" fill="black"/>
<path d="M159.477 12.8457C155.314 12.8457 151.437 14.0051 148.561 16.1077C147.586 16.7806 147.111 17.6201 147.111 18.6755C147.111 20.1289 148.221 21.2681 149.64 21.2681C150.254 21.2681 150.941 21.0237 151.571 20.5821C154.044 18.9341 156.367 18.1655 158.882 18.1655C163.694 18.1655 166.456 20.6128 166.456 24.8807V25.5879C155.654 25.5997 144.667 26.9043 144.667 36.3019C144.667 43.0654 150.447 46.0937 156.175 46.0937C160.737 46.0937 164.38 44.2861 166.718 40.8635V42.5093C166.718 44.9602 168.364 45.8293 169.776 45.8293C170.073 45.8293 172.699 45.736 172.699 42.5093V25.2757C172.699 17.4909 167.755 12.8441 159.476 12.8441L159.477 12.8457ZM165.087 30.3798H166.456V31.8792C166.456 37.363 162.964 40.906 157.562 40.906C156.096 40.906 151.31 40.5648 151.31 36.1695C151.309 30.9796 159.172 30.3798 165.087 30.3798Z" fill="black"/>
<path d="M189.651 19.0899C192.499 19.0899 192.643 16.8739 192.643 16.43C192.643 15.1124 191.857 13.7039 189.651 13.7039H183.795V7.7809C183.795 5.13514 182.079 4.19653 180.608 4.19653C180.065 4.19653 177.354 4.36894 177.354 7.7809V35.9072C177.354 42.3981 180.556 45.8289 186.615 45.8289C188.182 45.8289 189.71 45.5514 190.709 45.0862C191.854 44.5149 192.511 43.5752 192.511 42.509C192.511 41.005 191.42 39.9142 189.916 39.9142C189.625 39.9142 189.212 39.9862 188.756 40.1172C188.199 40.2567 187.821 40.3108 187.408 40.3108C184.943 40.3108 183.795 38.7017 183.795 35.2461V19.0871H189.651V19.0899Z" fill="black"/>
<path d="M211.171 12.8457C201.327 12.8457 194.185 19.8231 194.185 29.4354C194.185 34.1154 195.916 38.3808 199.056 41.4455C202.173 44.4855 206.475 46.1597 211.171 46.1597C220.892 46.1597 228.223 38.9699 228.223 29.4357C228.223 19.8232 221.05 12.846 211.171 12.846L211.171 12.8457ZM211.171 40.6411C204.42 40.6411 200.89 35.0036 200.89 29.4347C200.89 21.7822 206.219 18.2971 211.171 18.2971C216.122 18.2971 221.451 21.7822 221.451 29.4347C221.451 37.1347 216.122 40.6411 211.171 40.6411Z" fill="black"/>
</svg>
