<svg width="109" height="109" viewBox="0 0 109 109" fill="none" xmlns="http://www.w3.org/2000/svg">
<path fill-rule="evenodd" clip-rule="evenodd" d="M57.6861 51.7279C50.1953 52.0196 42.1217 50.6094 35.3128 47.2043L36.7231 44.9672C43.3377 48.08 50.9254 49.1504 57.6861 48.8581C57.6861 49.1011 57.9767 44.2859 58.4145 41.6596H48.2498C49.1736 31.0566 52.4325 21.6209 57.2965 13.5959H26.8983V59.899H58.8523C58.1228 57.126 57.6861 51.6305 57.6861 51.7279Z" fill="#D0E9FB"/>
<path fill-rule="evenodd" clip-rule="evenodd" d="M60.7496 48.6633C66.2944 48.1281 71.1578 46.6691 74.125 44.7724L75.8762 47.0095C71.7899 49.3934 66.4887 50.9492 60.7496 51.5331C60.8958 54.4029 61.3336 57.126 62.063 59.899H83.9493V13.5959H60.6522C55.6914 21.1836 52.8703 29.6463 51.8004 38.5955H62.2579C61.3817 42 60.847 45.3563 60.7496 48.6633ZM40.7109 20.5997H43.6781V27.4578H40.7109V20.5997Z" fill="#00ACEC"/>
<path fill-rule="evenodd" clip-rule="evenodd" d="M57.6861 48.8581V51.7279C50.1953 52.0196 42.1217 50.6094 35.3128 47.2043L36.7231 44.9672C43.3372 48.08 50.9248 49.1498 57.6861 48.8581Z" fill="#00ACEC"/>
<path fill-rule="evenodd" clip-rule="evenodd" d="M65.4182 20.5996H68.386V27.4577H65.4182V20.5996Z" fill="black"/>
<path fill-rule="evenodd" clip-rule="evenodd" d="M60.7496 48.6632C66.2944 48.128 71.1578 46.669 74.125 44.7722L75.8762 47.0094C71.7899 49.3932 66.4886 50.9491 60.7496 51.533C60.9926 56.6881 62.2578 61.7951 64.7861 66.7078L62.2578 68.0688C57.6374 60.7739 56.8105 50.9491 58.415 41.6595H48.2498C49.5145 27.2142 55.0587 14.9574 63.1329 5.4248L65.3208 7.32158C57.4426 16.4656 53.1138 27.1173 51.8004 38.5954H62.2578C61.3817 41.9999 60.847 45.3562 60.7496 48.6632Z" fill="black"/>
<path fill-rule="evenodd" clip-rule="evenodd" d="M9.87486 75.4622C8.5133 75.5596 7.83252 75.6083 6.95691 75.6083C6.4217 75.6083 5.88648 75.6083 5.25441 75.5596H4.28194C3.79544 75.5596 3.55246 75.7544 3.55246 76.2404C3.55246 76.6782 3.79544 76.9211 4.37936 76.9698L5.40053 77.0672C7.05433 77.2134 7.19989 77.3589 7.19989 78.7698C7.19989 78.9646 7.15174 79.4505 7.15174 79.9858L6.22743 96.3759C6.0326 99.683 5.98445 99.9747 5.69221 100.364C5.54609 100.607 5.10884 100.85 4.42751 100.948L3.79544 101.045C2.87112 101.24 2.72501 101.385 2.72501 101.921C2.72501 102.31 2.96798 102.553 3.35763 102.553H3.60061L4.18453 102.505C4.91402 102.456 6.0326 102.407 6.8595 102.407C7.6864 102.407 9.38835 102.456 9.87486 102.505L10.5556 102.553L10.7986 102.602C11.1877 102.651 11.5281 102.31 11.5281 101.873C11.5281 101.386 11.2851 101.192 10.7012 101.094L9.92301 100.997C8.12365 100.802 7.92882 100.51 7.92882 98.5644C7.92882 97.9329 7.92882 97.0573 7.97753 96.4739L8.51219 80.5215L15.4672 101.532C15.662 102.116 15.7589 102.213 16.0024 102.213C16.2941 102.213 16.3428 102.116 16.5864 101.483L23.7357 80.5691L23.8331 96.7174V98.2738C23.8331 100.364 23.6382 100.753 22.3254 100.948L21.6928 101.046C21.012 101.143 20.769 101.337 20.769 101.873C20.769 102.31 21.012 102.505 21.4985 102.553H21.6933L22.2285 102.456C22.8612 102.407 24.7087 102.31 25.5843 102.31C26.3625 102.31 26.849 102.31 27.4811 102.407C28.1131 102.456 28.5996 102.456 28.7458 102.456H29.3297C29.8156 102.456 30.0592 102.261 30.0592 101.775C30.0592 101.337 29.8162 101.143 29.038 101.046L28.3572 100.948C27.336 100.851 26.9957 100.51 26.8495 99.8297C26.7521 99.1494 26.7521 98.3225 26.7034 95.404L26.606 81.2992L26.5573 79.3055C26.5573 77.3595 26.6547 77.2139 28.2105 77.0191L29.1348 76.9217C29.8156 76.8243 30.0105 76.63 30.0105 76.1435C30.0105 75.7057 29.8643 75.5596 29.281 75.5109H29.1348L28.5509 75.5596C27.8214 75.5596 27.2375 75.6083 26.5567 75.6083C25.8273 75.6083 25.1946 75.5596 23.9299 75.5109L16.7806 96.2791L9.87486 75.4622ZM63.036 81.7851V79.0133H62.5008L61.82 81.3473H61.7713L61.0419 79.0133H60.5066V81.7851H60.847V80.1811V79.5003L61.6252 81.7857H61.9169L62.6951 79.4516V81.7851H63.036ZM36.8205 100.17C37.5987 99.8297 38.4256 99.1981 39.0095 98.5174C39.3986 97.9334 39.5441 97.5443 39.5441 96.8149L39.6416 92.4379C38.28 93.1182 37.5013 93.556 36.8205 94.0419C36.5775 94.188 36.3827 94.3823 36.1884 94.5284C34.7289 95.7444 33.9994 97.1065 33.9994 98.3712C33.9994 99.6348 34.6802 100.462 35.6532 100.462C35.9936 100.462 36.3827 100.364 36.8205 100.17ZM36.8205 92.3887C37.6474 91.9022 38.6198 91.4157 39.6416 90.9779V87.4754C39.6416 85.0927 39.1063 84.0715 37.7935 84.0715C37.4531 84.0715 37.1127 84.1202 36.821 84.2177C35.5076 84.7042 34.5352 86.0663 34.1942 88.0594L34.0481 88.7888C33.8533 89.6645 33.659 89.8593 32.9782 89.8593H32.2974C31.7622 89.8593 31.4705 89.5676 31.4705 89.0811C31.4705 88.2542 32.2974 86.2605 33.2217 85.142C34.1942 83.9747 35.4589 83.1472 36.821 82.7581C37.3557 82.612 37.9396 82.5152 38.5235 82.5152C39.9825 82.5152 40.712 82.71 41.3446 83.2446C42.2684 84.0228 42.5119 84.7529 42.5119 87.135V87.4267L42.4145 96.2791C42.4145 99.1494 42.4145 99.1494 42.5119 99.5374C42.5606 99.9265 42.8523 100.316 43.2414 100.364C43.9709 100.462 44.2631 100.169 44.5548 99.6348C44.7978 99.0033 45.5765 99.0033 45.4791 99.6835C45.4304 100.413 45.2361 100.997 44.6035 101.726C43.8253 102.602 42.7554 102.845 41.6856 102.845C40.226 102.845 39.5453 101.921 39.5453 99.9747C38.8158 100.899 37.8428 101.677 36.8216 102.212C35.8978 102.65 34.8761 102.942 33.9518 102.942C32.055 102.942 30.7903 101.58 30.7903 99.4882C30.7892 97.0578 32.929 94.5279 36.8205 92.3887ZM57.9767 79.3537H58.901V81.7851H59.2414V79.3537H60.1657V79.0133H57.9767V79.3537ZM58.7549 99.3913C57.8793 100.607 56.6157 101.629 54.5722 101.58C50.5844 101.434 48.9793 97.106 48.9793 92.2913C48.9793 87.5729 51.0709 84.1197 53.8914 83.9741C54.8639 83.9254 55.594 84.2658 56.226 84.8984C56.8587 85.4824 57.3446 86.2606 57.5881 86.8921C58.0735 88.3029 59.4357 89.3246 59.2408 85.0933C59.1434 83.5369 57.2472 82.4177 55.1069 82.4664C49.7082 82.6126 45.9629 86.8434 45.9629 93.458C45.9629 99.2469 48.8326 103.089 53.1122 103.089C54.7654 103.089 56.7601 102.991 58.1211 101.921C59.1916 101.143 59.4833 100.754 59.6775 99.9265C59.9227 98.8572 59.0471 99.0033 58.7549 99.3913Z" fill="black"/>
<path fill-rule="evenodd" clip-rule="evenodd" d="M78.4532 74.4404C71.5464 74.5865 66.5861 80.5686 66.5861 88.935C66.5861 97.593 71.4008 103.575 78.2589 103.575H78.4538C81.9562 103.526 84.6793 102.116 87.0144 99.1007C89.2511 96.2791 90.2241 93.1658 90.2241 88.8862C90.2241 84.9471 89.3972 81.8825 87.7445 79.3537C85.6529 76.1916 82.4422 74.4404 78.6486 74.4404H78.4532ZM78.4532 102.116C75.9249 102.116 74.2219 101.143 72.5681 98.7105C70.8169 96.1335 70.0398 93.1176 70.0398 88.9837C70.0398 81.3473 73.4437 76.0461 78.4532 75.9H78.648C80.9345 75.9 82.782 76.9217 84.2897 79.0133C86.0409 81.3473 86.8678 84.6062 86.8678 88.8862C86.8678 92.8265 86.187 95.8413 84.6301 98.2738C82.9763 100.948 81.1287 102.116 78.4532 102.116ZM104.815 76.0948C103.307 75.1218 101.898 74.7327 99.9515 74.7327C95.5735 74.7327 92.3151 77.9921 92.3151 82.5151C92.3151 85.6285 93.7259 87.5247 97.276 89.3246L99.5624 90.395C102.334 91.8059 103.502 93.3611 103.502 95.8911C103.502 99.3448 101.41 101.776 98.5407 101.776C97.0324 101.776 95.719 101.192 94.8932 100.074C94.1637 99.1505 93.5798 97.691 93.3368 96.475L93.2394 95.5507C93.0933 94.7238 92.9478 94.4803 92.4612 94.4803C92.0234 94.4803 91.7805 94.8694 91.7805 95.6476L91.9266 101.678C93.8239 102.797 95.7201 103.332 98.006 103.332C100.876 103.332 103.016 102.359 104.475 100.365C105.642 98.8085 106.275 96.8636 106.275 94.772C106.275 91.1732 104.864 88.9842 101.557 87.2817L100.049 86.5035C97.3252 85.1425 96.7413 84.7534 96.0605 83.9752C95.3803 83.197 95.0399 82.1753 95.0399 80.9106C95.0399 78.1875 96.79 76.2415 99.1251 76.2415C101.41 76.2415 103.162 77.944 103.551 80.4734L103.648 81.1536C103.697 81.6888 103.891 81.9318 104.281 81.9318C104.767 81.9318 104.865 81.8831 104.962 81.0562V80.9588L104.815 76.0948Z" fill="#00ACEC"/>
</svg>
