<svg width="208" height="57" viewBox="0 0 208 57" fill="none" xmlns="http://www.w3.org/2000/svg">
<path d="M74.1158 33.5332C70.909 33.5332 69.1398 31.4875 69.5821 28.5572C70.0797 25.5715 72.5124 23.5811 75.664 23.5811C77.3226 23.5811 78.8155 24.3552 79.7001 25.5162L82.7963 22.9729C81.1376 21.0931 78.7602 20.1531 76.2169 20.1531C71.0196 20.1531 66.4859 23.6364 65.7118 28.5572C64.9377 33.5332 68.2551 36.9612 73.5077 36.9612C76.1616 36.9612 78.8155 35.8554 81.1376 34.0309L78.9261 31.4875C77.3226 32.9251 75.664 33.5332 74.1158 33.5332ZM94.9048 20.319C94.9048 20.319 94.2413 20.2084 94.186 20.2084C93.4673 20.0978 92.6932 20.1531 91.9744 20.2084C91.311 20.2637 90.6475 20.3743 89.984 20.5954C89.4311 20.7613 88.8229 20.9825 88.3253 21.3142L88.4359 20.5402H84.6762L82.1329 36.5742H85.8926L87.3854 27.2302C87.4407 26.6773 87.6618 26.1797 87.9383 25.7374C88.2147 25.2951 88.6018 24.9081 89.0441 24.6316C89.4864 24.2999 89.9287 24.0787 90.4263 23.9128C90.9239 23.747 91.4215 23.6364 91.9744 23.5811C92.6932 23.5258 93.4673 23.5811 94.186 23.747H94.2413C94.3519 23.747 94.9048 20.319 94.9048 20.319ZM108.064 21.5354C107.013 20.6507 105.41 20.1531 103.53 20.1531C98.8304 20.1531 94.573 23.5258 93.7437 28.5019C92.9696 33.478 96.2317 36.8506 100.765 36.8506C102.811 36.8506 104.525 36.5742 105.963 35.579L105.852 36.4636H109.28L111.768 20.5402H108.23L108.064 21.5354ZM107.29 28.5019C106.792 31.5428 104.525 33.6438 101.595 33.6438C98.6092 33.6438 96.8952 31.4322 97.3928 28.4466C97.8904 25.4609 100.268 23.3599 103.198 23.3599C106.129 23.4152 107.732 25.4609 107.29 28.5019ZM129.129 20.5402L129.848 16.0064L125.535 19.1026L125.314 20.5954H120.449L120.946 17.5545C121.223 16.117 122.771 16.1723 122.771 16.1723H124.595L125.148 12.8549H123.047H122.55C117.408 12.8549 117.242 16.8357 117.242 16.8357L116.91 18.7156L116.634 20.5954H116.302L112.1 23.9128H116.081L113.537 40.1127H117.408L119.951 23.8575H124.817L122.826 36.5742H126.641L128.632 23.8575H133.386L133.939 20.5402H129.129ZM139.358 28.5572C140.132 23.6364 144.61 20.1531 149.863 20.1531C152.406 20.1531 154.784 21.1483 156.442 22.9729L153.346 25.5162C152.461 24.3552 150.969 23.5811 149.31 23.5811C146.158 23.5811 143.726 25.6268 143.228 28.5572C142.786 31.4875 144.555 33.5332 147.762 33.5332C149.31 33.5332 150.969 32.9251 152.572 31.4875L154.784 34.0309C152.461 35.9107 149.807 36.9612 147.154 36.9612C141.901 36.9612 138.584 33.5332 139.358 28.5572ZM184.142 26.8432L182.65 36.5742H178.89L180.383 27.1196C180.77 24.9081 179.553 23.5811 177.397 23.5811C175.13 23.5811 172.863 24.9633 172.532 27.2302L171.039 36.5742H167.279L168.772 27.1196C169.104 24.9633 167.832 23.6364 165.786 23.5811C163.685 23.6917 161.252 25.0186 160.921 27.2302L159.428 36.5742H155.668L158.212 20.5402H161.971L161.861 21.3142C163.132 20.5402 164.57 20.2084 166.394 20.1531H166.726C169.048 20.1531 170.928 21.0931 171.923 22.6965C173.472 21.0931 175.849 20.1531 178.226 20.1531C182.318 20.1531 184.806 22.8623 184.142 26.8432ZM183.977 34.639L186.299 31.764C187.57 32.7592 190.003 33.5332 192.049 33.5332C193.929 33.5332 195.809 33.1462 196.03 31.8746C196.196 30.8793 194.371 30.5476 192.325 30.2159C188.068 29.4971 185.912 28.6125 186.354 25.4057C187.018 21.3695 191.164 20.2084 194.592 20.2084C197.025 20.2084 199.568 21.0378 201.282 22.1989L198.96 25.0739C197.633 24.2446 195.919 23.6364 193.984 23.6364C191.717 23.6364 190.39 24.2999 190.224 25.3504C190.114 26.0691 190.722 26.3456 193.376 26.7879C197.246 27.4514 200.453 28.0596 199.845 31.764C199.347 35.1367 195.919 37.0165 191.441 37.0165C188.953 36.9612 185.746 36.0766 183.977 34.639ZM49.0143 4.72729H11.6937C8.92924 4.72729 6.71765 6.93888 6.71765 9.70337V47.0239C6.71765 49.7884 8.92924 52 11.6937 52H49.0143C51.7235 52 53.9904 49.7884 53.9904 47.0239V9.70337C53.9904 6.93888 51.7788 4.72729 49.0143 4.72729ZM30.2711 33.5332C31.8192 33.5332 33.4779 32.9251 35.0813 31.4875L37.2929 34.0309C34.9707 35.9107 32.3168 36.9612 29.6629 36.9612C24.4104 36.9612 21.093 33.478 21.867 28.5572C22.6411 23.6364 27.1196 20.1531 32.3721 20.1531C34.9154 20.1531 37.2929 21.1483 38.9516 22.9729L35.8553 25.5162C34.9707 24.3552 33.4779 23.5811 31.8192 23.5811C28.6677 23.5811 26.2349 25.6268 25.7373 28.5572C25.295 31.4875 27.0643 33.5332 30.2711 33.5332Z" fill="#E5422B"/>
</svg>
