<svg width="239" height="50" viewBox="0 0 239 50" fill="none" xmlns="http://www.w3.org/2000/svg">
<path d="M50.8013 14.0132H56.8399C59.5605 14.0133 61.5583 14.4751 62.8333 15.3987C64.1083 16.3223 64.7458 17.7177 64.7458 19.585C64.7458 20.86 64.3567 21.9217 63.5787 22.77C62.8007 23.6183 61.6637 24.1629 60.1679 24.4039V24.4942C61.9247 24.7552 63.2173 25.3099 64.0455 26.1582C64.8738 27.0065 65.2879 28.1887 65.2879 29.7046C65.2879 31.7325 64.6153 33.2936 63.27 34.3879C61.9247 35.4822 60.0173 36.0293 57.5476 36.0293H50.8013V14.0132ZM52.3373 23.8166H57.1862C59.2543 23.8166 60.7577 23.4727 61.6964 22.785C62.635 22.0974 63.1043 21.0207 63.1044 19.5549C63.1043 18.0892 62.5748 17.025 61.5157 16.3624C60.4565 15.6999 58.8778 15.3686 56.7796 15.3685H52.3373V23.8166ZM52.3373 25.1719V34.674H57.5175C61.5934 34.674 63.6314 33.0175 63.6314 29.7046C63.6314 26.6828 61.483 25.1719 57.1862 25.1719H52.3373Z" fill="#002A41"/>
<path d="M80.7383 28.2589H71.7933L68.7213 36.0293H67.0197L75.8743 13.9229H76.8531L85.527 36.0293H83.7952L80.7383 28.2589ZM72.3505 26.8735H80.2263L77.2296 18.9375C76.9786 18.3151 76.6774 17.4517 76.326 16.3474C76.055 17.3112 75.7588 18.1846 75.4376 18.9676L72.3505 26.8735Z" fill="#002A41"/>
<path d="M98.0259 15.0824C95.2651 15.0824 93.0916 15.9659 91.5054 17.7328C89.9192 19.4997 89.1261 21.9192 89.1261 24.9912C89.1261 28.1334 89.874 30.573 91.3699 32.3098C92.8657 34.0466 95.0041 34.9149 97.7849 34.9149C99.6321 34.9149 101.329 34.679 102.875 34.2072V35.5625C101.419 36.0745 99.602 36.3305 97.4235 36.3305C94.3314 36.3305 91.8969 35.3316 90.12 33.3338C88.343 31.336 87.4545 28.5451 87.4545 24.961C87.4545 22.7223 87.8787 20.7496 88.727 19.0429C89.5753 17.3362 90.7951 16.0186 92.3863 15.0899C93.9775 14.1614 95.8273 13.697 97.9355 13.697C100.084 13.697 102.006 14.0986 103.703 14.9017L103.086 16.2871C101.479 15.484 99.7928 15.0824 98.0259 15.0824Z" fill="#002A41"/>
<path d="M122.587 36.0293H120.705L112.256 24.4039L109.32 26.994V36.0293H107.784V14.0132H109.32V25.458L111.76 23.0184L120.388 14.0132H122.346L113.326 23.3196L122.587 36.0293Z" fill="#002A41"/>
<path d="M125.734 14.0132H131.773C134.493 14.0133 136.491 14.4751 137.766 15.3987C139.041 16.3223 139.679 17.7177 139.679 19.585C139.679 20.86 139.29 21.9217 138.512 22.77C137.734 23.6183 136.597 24.1629 135.101 24.4039V24.4942C136.858 24.7552 138.15 25.3099 138.978 26.1582C139.807 27.0065 140.221 28.1887 140.221 29.7046C140.221 31.7325 139.548 33.2936 138.203 34.3879C136.858 35.4822 134.95 36.0293 132.481 36.0293H125.734V14.0132ZM127.27 23.8166H132.119C134.187 23.8166 135.691 23.4727 136.629 22.785C137.568 22.0974 138.037 21.0207 138.037 19.5549C138.037 18.0892 137.508 17.025 136.449 16.3624C135.389 15.6999 133.811 15.3686 131.713 15.3685H127.27V23.8166ZM127.27 25.1719V34.674H132.45C136.526 34.674 138.564 33.0175 138.564 29.7046C138.564 26.6828 136.416 25.1719 132.119 25.1719H127.27Z" fill="#002A41"/>
<path d="M163.577 24.9912C163.577 28.4848 162.704 31.2481 160.957 33.2811C159.21 35.314 156.801 36.3305 153.729 36.3305C150.667 36.3305 148.262 35.314 146.515 33.2811C144.769 31.2481 143.895 28.4748 143.895 24.961C143.895 21.4574 144.776 18.6991 146.538 16.6862C148.3 14.6733 150.707 13.6669 153.759 13.6669C156.831 13.6669 159.235 14.6784 160.972 16.7013C162.709 18.7242 163.577 21.4875 163.577 24.9912ZM145.567 24.9912C145.567 28.1435 146.269 30.5805 147.675 32.3022C149.08 34.024 151.098 34.8848 153.729 34.8848C156.379 34.8848 158.404 34.0315 159.805 32.3248C161.205 30.6182 161.906 28.1736 161.906 24.9912C161.906 21.8188 161.205 19.3868 159.805 17.6951C158.404 16.0035 156.389 15.1577 153.759 15.1577C151.138 15.1577 149.118 16.0111 147.698 17.7177C146.277 19.4244 145.567 21.8489 145.567 24.9912Z" fill="#002A41"/>
<path d="M184.629 36.0293H183.078L170.037 16.4829H169.917C170.037 18.812 170.098 20.5689 170.098 21.7535V36.0293H168.622V14.0132H170.158L183.184 33.5295H183.274C183.184 31.7225 183.139 30.0058 183.139 28.3794V14.0132H184.629V36.0293Z" fill="#002A41"/>
<path d="M202.881 36.0293H190.849V14.0132H202.881V15.4288H192.385V23.7563H202.293V25.1719H192.385V34.6138H202.881V36.0293Z" fill="#002A41"/>
<path d="M207.218 34.8547C207.218 33.8709 207.619 33.379 208.422 33.379C209.246 33.379 209.657 33.8709 209.657 34.8547C209.657 35.8386 209.246 36.3305 208.422 36.3305C207.619 36.3305 207.218 35.8386 207.218 34.8547Z" fill="#002A41"/>
<path d="M211.63 41.586C210.706 41.586 209.948 41.4505 209.356 41.1794V39.8543C210.139 40.055 210.887 40.1554 211.6 40.1554C214.029 40.1554 215.244 38.8302 215.244 36.1799V14.0132H216.78V36.0293C216.78 39.7338 215.063 41.586 211.63 41.586Z" fill="#002A41"/>
<path d="M235.047 30.3521C235.046 32.1893 234.371 33.645 233.021 34.7192C231.671 35.7934 229.876 36.3305 227.638 36.3305C224.947 36.3305 222.884 36.0343 221.448 35.442V33.906C223.035 34.5786 225.057 34.9149 227.517 34.9149C229.324 34.9149 230.757 34.5008 231.816 33.6726C232.876 32.8443 233.405 31.7576 233.405 30.4124C233.405 29.5791 233.229 28.8889 232.878 28.3418C232.527 27.7946 231.954 27.2952 231.161 26.8434C230.368 26.3916 229.204 25.9047 227.668 25.3827C225.419 24.6097 223.865 23.7739 223.007 22.8754C222.149 21.9769 221.719 20.7797 221.719 19.2838C221.719 17.6374 222.364 16.2947 223.654 15.2556C224.944 14.2166 226.603 13.697 228.631 13.697C230.699 13.697 232.642 14.0886 234.459 14.8716L233.902 16.1968C232.075 15.4338 230.328 15.0523 228.662 15.0523C227.035 15.0523 225.74 15.4288 224.776 16.1817C223.813 16.9347 223.331 17.9587 223.331 19.2537C223.331 20.0669 223.479 20.7345 223.775 21.2565C224.071 21.7786 224.555 22.2479 225.228 22.6646C225.901 23.0812 227.055 23.5807 228.692 24.1629C230.408 24.7552 231.698 25.33 232.562 25.8872C233.425 26.4443 234.055 27.0768 234.452 27.7846C234.848 28.4923 235.046 29.3482 235.047 30.3521Z" fill="#002A41"/>
<path d="M3.95337 4.12069V26.4062L20.5412 35.862V29.4344L9.44417 23.1087V13.1728L20.5412 19.4985V13.5764L3.95337 4.12069Z" fill="#002A41"/>
<path d="M37.1291 4.12069V26.4062L20.5413 35.862V29.4344L31.6383 23.1087V13.1728L20.5413 19.4985V13.5764L37.1291 4.12069Z" fill="#0071B5"/>
<path d="M3.95337 45.3276V23.0421L20.5412 13.5863V20.0139L9.44417 26.3396V35.7701L20.5412 29.4443V35.8719L3.95337 45.3276Z" fill="#0071B5"/>
<path d="M37.1291 45.3276V23.0421L20.5413 13.5863V20.0139L31.6383 26.3396V35.7701L20.5413 29.4443V35.8719L37.1291 45.3276Z" fill="#002A41"/>
</svg>
