<svg width="184" height="65" viewBox="0 0 184 65" fill="none" xmlns="http://www.w3.org/2000/svg">
<path fill-rule="evenodd" clip-rule="evenodd" d="M74.7631 16.7778H83.0551L94.7715 48.4541H86.2582L84.3276 42.7745H73.4023L71.428 48.4541H63.0476L74.7631 16.7778ZM75.2901 36.6523H82.398L78.9319 25.5612H78.8446L75.2901 36.6523ZM100.569 40.0569C100.569 40.0569 101.523 42.446 103.541 42.446C105.427 42.446 106.484 40.9571 106.484 37.895V16.7778H114.646V38.428C114.646 45.526 111.048 49.0765 103.677 49.1201C99.0456 49.1469 96.456 46.2198 95.9229 44.7567L100.569 40.0569ZM126.179 16.7778H134.472L146.187 48.4541H137.675L135.744 42.7745H124.82L122.845 48.4541H114.464L126.179 16.7778ZM126.706 36.6523H133.813L130.347 25.5612H130.259L126.706 36.6523ZM158.953 31.8164L148.729 16.7778H158.338L163.604 26.6272L169.175 16.7778H178.479L168.342 31.8164L179.4 48.4541H169.484L163.604 37.895L157.199 48.4541H147.808L158.953 31.8164Z" fill="#236BB3"/>
<path fill-rule="evenodd" clip-rule="evenodd" d="M18.6415 7.4729H47.7996L61.8422 32.28L47.3396 56.9273H19.1025L4.60001 32.28L18.6415 7.4729ZM19.0009 8.08929L5.31167 32.274L19.455 56.3109H46.9871L61.1305 32.274L47.4403 8.08929H19.0009Z" fill="#236BB3"/>
<path fill-rule="evenodd" clip-rule="evenodd" d="M41.0679 43.8326H50.5153L33.6772 14.5604L16.5363 43.8326H25.9837L33.6772 38.7486L41.0679 43.8326Z" fill="#236BB3"/>
</svg>
