<svg width="184" height="65" viewBox="0 0 184 65" fill="none" xmlns="http://www.w3.org/2000/svg">
<path d="M178.512 32.6589C177.595 32.0651 176.407 32.281 175.759 33.1988C175.651 33.3607 173.276 36.8157 169.119 36.8157C167.5 36.8157 166.258 36.3299 165.448 35.3041C165.394 35.2502 165.34 35.1422 165.286 35.0882C165.286 35.0882 165.34 35.0882 165.34 35.0342C175.165 29.4199 175.057 24.6152 174.625 22.8338C174.032 20.6744 172.142 19.2708 169.713 19.2708C164.099 19.2708 160.374 25.533 160.374 31.3633C160.374 32.1191 160.428 32.8209 160.536 33.5227C158.538 34.9802 155.461 36.8157 152.762 36.8157C151.196 36.8157 150.009 36.3299 149.253 35.4121C148.983 35.0882 148.767 34.7103 148.605 34.3324C156.109 32.1731 158.97 27.3685 158.43 23.5356C158.106 21.0523 156.217 19.2708 153.895 19.2708C148.659 19.2708 144.88 24.7772 144.286 30.1756C143.261 30.0677 142.397 29.7977 141.587 29.2579C141.695 28.3942 141.803 27.5304 141.803 26.7206C141.803 24.9392 141.479 23.4276 140.831 22.2399C139.968 20.6744 138.51 19.8106 136.836 19.8106C135.919 19.8106 135.109 20.2965 134.623 21.1602C133.651 22.9417 134.299 26.3967 136.081 29.1499C136.405 29.6898 136.782 30.1756 137.214 30.6615C136.243 33.7926 134.191 36.7617 131.6 36.7617C130.412 36.7617 129.549 36.3838 128.793 35.6281C127.767 34.4944 127.065 32.497 126.849 29.9597C134.191 20.7824 137.808 11.767 135.757 7.50221C135.055 6.04463 133.759 5.23486 132.194 5.23486C127.119 5.23486 124.096 11.821 122.908 25.371C122.854 26.1808 122.8 27.2065 122.8 28.2862C120.101 31.9571 115.621 36.7617 111.626 36.7617C110.492 36.7617 109.628 36.3838 109.088 35.5741C109.034 35.5201 108.981 35.4121 108.927 35.3581C108.981 35.3581 109.034 35.3041 109.088 35.2502C118.968 28.88 118.806 24.0754 118.32 22.3479C117.78 20.4585 116.052 19.2168 113.839 19.2168C108.117 19.2168 104.23 25.8029 104.23 31.9571C104.23 32.497 104.284 33.0368 104.338 33.5767C102.502 34.8723 101.045 36.0599 99.5872 37.1936C99.8032 35.5201 100.127 33.3607 100.505 30.1756C100.613 29.5278 100.667 28.988 100.721 28.7181C101.045 26.3967 97.2119 25.9109 96.78 28.5021C96.3482 31.2013 95.2145 36.7617 92.0294 36.7617C90.14 36.7617 89.1143 34.6563 89.3302 31.5792C89.6001 26.7206 92.2454 22.7798 95.4844 22.7798C96.6181 22.7798 97.1579 23.9674 97.1579 23.9674C98.1836 25.8029 101.369 24.2374 100.667 22.2939C100.343 21.4302 99.3173 19.2168 95.5924 19.2168C88.0346 19.2168 85.6593 26.8826 85.3354 31.9571C85.2814 32.7669 85.2814 33.5767 85.3893 34.3864C84.3097 35.682 83.068 36.7617 81.8264 36.7617C80.6387 36.7617 79.8829 35.4121 80.3148 32.335C80.7467 29.3659 81.0706 26.9366 81.2326 25.533C82.1503 19.1088 74.1066 19.2708 74.1066 19.2708C74.1066 19.2708 73.9986 15.4919 70.9215 15.4919C69.356 15.4919 67.8984 16.7335 67.8984 19.0549C67.8984 21.2142 69.6799 22.2939 69.6799 22.2939C69.302 25.6409 67.7365 36.7617 64.2275 36.7617C62.6619 36.7617 62.554 35.0882 62.7159 33.9006C62.9319 32.281 63.2018 29.4738 63.3097 28.772C63.6336 26.4507 59.8008 25.9649 59.3689 28.5561C58.937 31.2553 57.8033 36.8157 54.6183 36.8157C52.7288 36.8157 51.7031 34.4404 51.8651 31.5252C52.135 26.6127 54.7802 22.8338 58.0193 22.8338C59.1529 22.8338 59.6928 24.0214 59.6928 24.0214C60.5565 25.8569 63.8496 24.5613 63.2018 22.3479C62.9319 21.3762 61.8522 19.2708 58.1272 19.2708C50.5694 19.2708 48.1941 26.9366 47.8702 32.0111C47.8162 32.8209 47.8162 33.5767 47.8702 34.2784C46.7905 35.736 45.4949 36.8157 44.2533 36.8157C43.1196 36.8157 42.2558 36.2219 42.4718 33.6846C42.5798 32.497 43.9294 24.3453 43.8754 22.8877C43.7134 20.4045 42.5798 19.3248 39.8265 19.3248C36.9114 19.3248 34.752 20.8363 33.8343 21.7541C33.8343 21.7541 35.1839 11.497 35.4538 9.49963C35.7237 7.44822 31.7289 7.39424 31.513 9.49963C31.405 10.4174 30.3253 18.515 29.3536 26.0728C27.0862 31.0394 22.6055 38.5972 15.9655 38.5972C3.38711 38.5972 9.16343 11.1731 20.986 11.1731C23.7392 11.1731 22.4976 15.5999 20.6621 18.2451C19.3665 20.1885 22.6595 22.3479 24.495 19.2708C29.5695 10.6873 25.3048 7.50221 21.2559 7.50221C3.765 7.50221 -2.71313 42.3761 15.4796 42.3761C21.4719 42.3761 25.5207 39.0291 28.1119 35.3581C27.842 37.4095 27.6801 38.8131 27.6261 39.0831C27.3022 41.2424 31.351 41.0805 31.5669 39.245C31.7289 38.1113 32.3227 33.3067 32.8086 29.5818C33.0785 27.4764 35.6698 23.5895 38.5849 23.5895C39.2867 23.5895 39.7186 24.2913 39.6646 24.8852C39.5566 25.587 38.315 34.7103 38.369 36.0599C38.5849 39.8928 41.3381 40.7566 43.9294 40.7566C45.9808 40.7566 47.6543 39.7849 49.0039 38.2733C49.9216 39.7849 51.3252 40.7566 53.2687 40.7566C57.6414 40.7566 59.1529 37.6255 59.1529 37.6255C59.1529 37.6255 59.6928 40.7566 63.4717 40.7566C71.1375 40.7566 72.919 27.4224 73.2969 22.9417C73.7287 22.9417 76.4279 23.1037 76.9138 24.6152C77.3457 26.0728 75.9961 30.7155 75.8881 35.5201C75.8341 38.0574 76.7518 40.7566 80.7467 40.7566C83.176 40.7566 85.1194 39.6229 86.469 38.3813C87.3868 39.8388 88.7904 40.7566 90.6798 40.7566C92.8392 40.7566 94.2968 40.0548 95.2145 39.353C95.1605 39.7849 95.1065 40.1627 95.0525 40.5946V40.6486C95.0525 40.5946 84.9575 47.8825 84.9575 54.7385C84.9575 57.4377 86.1991 59.1652 89.3842 59.1652C95.7004 59.1652 97.6978 50.6897 98.6155 43.7257C98.6695 43.4018 98.7235 43.0779 98.7235 42.808C99.6952 42.0522 100.613 41.3504 101.531 40.6486C102.826 39.6229 104.122 38.6512 105.579 37.5715C105.633 37.6795 105.741 37.7874 105.795 37.8954C107.145 39.7309 109.142 40.7026 111.572 40.7026C116.16 40.7026 120.425 37.1936 123.448 33.7386C123.934 35.4121 124.636 37.0316 125.824 38.3273C127.281 39.8928 129.279 40.7566 131.546 40.7566C135.919 40.7566 138.942 37.2476 140.561 33.1988C141.749 33.7386 143.099 34.0625 144.502 34.1705C144.826 35.5741 145.366 36.8697 146.23 37.8954C147.309 39.191 149.307 40.7566 152.816 40.7566C156.325 40.7566 159.78 38.8671 162.101 37.3016C162.209 37.4635 162.317 37.6255 162.425 37.7874C163.505 39.137 165.61 40.7566 169.173 40.7566C175.489 40.7566 178.998 35.5741 179.16 35.3581C179.646 34.4944 179.376 33.2527 178.512 32.6589ZM89.87 55.3323C89.2762 55.3323 88.8443 54.9545 88.8443 54.1987C88.8443 50.7437 94.1888 46.047 94.2428 46.047C93.595 50.6897 91.7055 55.3323 89.87 55.3323ZM113.731 22.9417C114.217 22.9417 114.325 23.3196 114.433 23.5356C114.649 24.2913 113.893 27.1525 108.117 31.1474C108.441 27.3684 110.762 22.9417 113.731 22.9417ZM132.086 9.28369C133.759 9.28369 132.41 15.006 127.065 22.9957C128.307 12.3608 130.034 9.28369 132.086 9.28369ZM153.464 22.9417C154.327 22.9417 154.381 23.8055 154.435 24.1294C154.651 25.7489 153.14 28.6641 148.173 30.3376C148.713 26.8286 151.034 22.9417 153.464 22.9417ZM169.659 22.9417C170.253 22.9417 170.577 23.3736 170.739 23.9135C171.063 25.0471 169.551 27.9083 164.26 31.1474C164.368 27.3684 166.636 22.9417 169.659 22.9417Z" fill="#222222"/>
</svg>
