<svg width="250" height="82" viewBox="0 0 250 82" fill="none" xmlns="http://www.w3.org/2000/svg">
<path d="M239.042 0V0.5H244C247.038 0.5 249.5 2.96243 249.5 6V10.667H250V15.333H249.5V24.667H250V29.333H249.5V38.667H250V43.333H249.5V52.667H250V57.333H249.5V66.667H250V71.333H249.5V76C249.5 79.0376 247.038 81.5 244 81.5H239.042V82H234.083V81.5H224.167V82H219.208V81.5H209.292V82H204.333V81.5H194.417V82H189.458V81.5H179.542V82H174.583V81.5H164.667V82H159.708V81.5H149.792V82H144.833V81.5H134.917V82H129.958V81.5H120.042V82H115.083V81.5H105.167V82H100.208V81.5H90.292V82H85.333V81.5H75.417V82H70.458V81.5H60.542V82H55.583V81.5H45.667V82H40.708V81.5H30.792V82H25.833V81.5H15.917V82H10.958V81.5H6C2.96243 81.5 0.5 79.0376 0.5 76V71.333H0V66.667H0.5V57.333H0V52.667H0.5V43.333H0V38.667H0.5V29.333H0V24.667H0.5V15.333H0V10.667H0.5V6C0.5 2.96243 2.96243 0.5 6 0.5H10.958V0H15.917V0.5H25.833V0H30.792V0.5H40.708V0H45.667V0.5H55.583V0H60.542V0.5H70.458V0H75.417V0.5H85.333V0H90.292V0.5H100.208V0H105.167V0.5H115.083V0H120.042V0.5H129.958V0H134.917V0.5H144.833V0H149.792V0.5H159.708V0H164.667V0.5H174.583V0H179.542V0.5H189.458V0H194.417V0.5H204.333V0H209.292V0.5H219.208V0H224.167V0.5H234.083V0H239.042Z" stroke="#722ED1" stroke-dasharray="10 5"/>
<path d="M41.9068 26.6451C41.8578 26.5628 41.7897 26.4934 41.7083 26.443C41.6269 26.3927 41.5346 26.3626 41.4391 26.3555C41.3097 26.3616 41.1849 26.4051 41.0797 26.4805C39.7568 27.5607 37.9453 32.144 36.4609 38.1826L37.7745 38.1992C40.3703 38.2284 43.0495 38.2607 45.6995 38.3034C44.9995 35.5367 44.3453 33.1659 43.7349 31.2534C43.2992 29.6539 42.6859 28.1082 41.9068 26.6451Z" fill="#1C56EE"/>
<path d="M44.8552 15C31.1281 15 20 26.5792 20 40.8625C20 55.1458 31.1281 66.7229 44.8552 66.7229C58.5823 66.7229 69.7104 55.1448 69.7104 40.8625C69.7104 26.5802 58.5813 15 44.8552 15ZM62.7229 41.3302L62.7167 41.3365C62.6906 41.3573 62.6635 41.3802 62.6344 41.4L62.6073 41.4208L62.549 41.4562C62.5312 41.4679 62.5127 41.4788 62.4938 41.4885C62.3068 41.5917 62.0968 41.6457 61.8833 41.6458H50.1042C50.2 42.051 50.3031 42.5125 50.4167 43.0146C51.0615 45.9156 52.775 53.6219 54.5958 53.6219H54.6896C56.1135 53.6219 56.8385 51.4823 58.4292 46.7948L58.449 46.7365C58.7052 45.9833 58.9927 45.1344 59.3063 44.2365L59.3854 44.0063C59.4304 43.8819 59.5176 43.7773 59.6319 43.7107C59.746 43.6441 59.88 43.6196 60.0104 43.6417C60.1423 43.669 60.2608 43.7407 60.3459 43.8451C60.4311 43.9495 60.4778 44.0799 60.4781 44.2146C60.4782 44.272 60.4701 44.3292 60.4542 44.3844L60.3875 44.6146C60.2219 45.1729 60.0458 45.9333 59.8417 46.8125C58.8938 50.9021 57.4604 57.0792 53.7854 57.0792H53.7583C51.3844 57.0594 49.9667 53.1094 49.3563 51.4219C48.2208 48.2687 47.3594 44.9062 46.5344 41.6521H35.701L33.451 49.1396L33.4167 49.1125C33.2895 49.327 33.0946 49.4931 32.8626 49.5846C32.6306 49.676 32.3748 49.6877 32.1354 49.6177C31.8941 49.5409 31.6836 49.3891 31.5347 49.1843C31.3856 48.9795 31.306 48.7324 31.3073 48.4792V48.4385L31.4438 47.5917C31.7563 45.6677 32.126 43.6677 32.5521 41.6479H27.9844L27.9677 41.6302C27.5596 41.5519 27.1909 41.3354 26.9235 41.0173C26.6562 40.6991 26.5065 40.2985 26.4997 39.8831C26.4928 39.4676 26.6292 39.0624 26.8859 38.7355C27.1427 38.4087 27.5041 38.1803 27.9094 38.0885C28.0868 38.0688 28.2653 38.0611 28.4438 38.0656H28.6667C30.1177 38.0917 31.6615 38.1146 33.3438 38.1365C35.7292 28.0385 38.5 22.9062 41.5708 22.8958C44.8635 22.8958 47.3063 30.699 49.2604 38.3312L49.2688 38.3625C53.2875 38.4469 57.5698 38.5708 61.7323 38.8833L61.9073 38.9C61.974 38.9018 62.0403 38.9077 62.1063 38.9177H62.1625C62.4125 38.973 62.6415 39.0985 62.8225 39.2796C63.0035 39.4606 63.1291 39.6896 63.1844 39.9396C63.2431 40.1914 63.2312 40.4546 63.1498 40.7C63.0683 40.9454 62.9206 41.1635 62.7229 41.3302Z" fill="#1C56EE"/>
<g clip-path="url(#clip0_0_119)">
<path d="M115.183 34.8817C115.163 34.8472 115.134 34.8181 115.1 34.797C115.066 34.7758 115.027 34.7632 114.987 34.7603C114.933 34.7629 114.881 34.781 114.837 34.8127C114.282 35.2655 113.523 37.1869 112.9 39.7183L113.451 39.7253C114.539 39.7375 115.662 39.7511 116.773 39.769C116.48 38.6092 116.206 37.6153 115.95 36.8135C115.767 36.143 115.51 35.495 115.183 34.8817Z" fill="#3260E7"/>
<path d="M116.42 30C110.665 30 106 34.8541 106 40.8419C106 46.8297 110.665 51.683 116.42 51.683C122.174 51.683 126.839 46.8293 126.839 40.8419C126.839 34.8546 122.174 30 116.42 30ZM123.91 41.038L123.907 41.0406C123.897 41.0493 123.885 41.059 123.873 41.0672L123.862 41.076L123.837 41.0908C123.83 41.0957 123.822 41.1003 123.814 41.1044C123.736 41.1476 123.648 41.1703 123.558 41.1703H118.62C118.66 41.3402 118.703 41.5336 118.751 41.7441C119.021 42.9603 119.74 46.1908 120.503 46.1908H120.542C121.139 46.1908 121.443 45.2939 122.11 43.3288L122.118 43.3044C122.226 42.9886 122.346 42.6328 122.478 42.2563L122.511 42.1598C122.53 42.1077 122.566 42.0638 122.614 42.0359C122.662 42.008 122.718 41.9977 122.773 42.007C122.828 42.0184 122.878 42.0485 122.914 42.0923C122.949 42.136 122.969 42.1907 122.969 42.2472C122.969 42.2712 122.966 42.2952 122.959 42.3183L122.931 42.4148C122.862 42.6489 122.788 42.9677 122.702 43.3362C122.305 45.0507 121.704 47.6402 120.163 47.6402H120.152C119.157 47.6319 118.562 45.976 118.307 45.2686C117.831 43.9467 117.469 42.5371 117.124 41.1729H112.582L111.639 44.3118L111.624 44.3004C111.571 44.3903 111.489 44.46 111.392 44.4983C111.295 44.5367 111.188 44.5416 111.087 44.5122C110.986 44.48 110.898 44.4164 110.836 44.3305C110.773 44.2447 110.74 44.1411 110.74 44.0349V44.0179L110.797 43.6629C110.928 42.8563 111.083 42.0179 111.262 41.1712H109.347L109.34 41.1638C109.169 41.1309 109.015 41.0402 108.902 40.9068C108.79 40.7734 108.728 40.6055 108.725 40.4314C108.722 40.2572 108.779 40.0873 108.887 39.9503C108.994 39.8133 109.146 39.7175 109.316 39.679C109.39 39.6707 109.465 39.6676 109.54 39.6694H109.633C110.241 39.6803 110.889 39.69 111.594 39.6991C112.594 35.4659 113.755 33.3144 115.043 33.31C116.423 33.31 117.447 36.5812 118.266 39.7808L118.27 39.7939C119.955 39.8293 121.75 39.8812 123.495 40.0122L123.568 40.0192C123.596 40.02 123.624 40.0224 123.652 40.0266H123.675C123.78 40.0498 123.876 40.1024 123.952 40.1783C124.028 40.2542 124.08 40.3502 124.103 40.455C124.128 40.5606 124.123 40.6709 124.089 40.7738C124.055 40.8767 123.993 40.9681 123.91 41.038Z" fill="#3260E7"/>
<path d="M132.622 43.5541L131.796 45.6781H129.396L133.962 34.5864H136.081L140.632 45.6781H138.246L137.42 43.5541H132.622ZM135.005 37.3925L133.447 41.4305H136.594L135.005 37.3925Z" fill="#3260E7"/>
<path d="M154.156 41.4143V45.6781H151.99V41.6082C151.99 40.3759 151.414 39.7113 150.4 39.7113C150.113 39.7242 149.833 39.8099 149.588 39.9602C149.343 40.1105 149.14 40.3205 148.998 40.5707C149.034 40.8503 149.055 41.1319 149.059 41.4139V45.6777H146.895V41.6078C146.895 40.3755 146.317 39.7108 145.29 39.7108C145.015 39.7395 144.751 39.8339 144.52 39.9859C144.29 40.1378 144.099 40.3431 143.965 40.5842V45.6759H141.799V37.9117H143.965V38.3825C144.202 38.1378 144.489 37.9472 144.807 37.8236C145.125 37.7001 145.465 37.6466 145.806 37.6667C146.26 37.6601 146.711 37.7557 147.124 37.9465C147.536 38.1374 147.901 38.4186 148.19 38.7694C148.537 38.4023 148.959 38.114 149.427 37.9238C149.894 37.7336 150.398 37.6459 150.902 37.6667C152.723 37.6667 154.156 39.144 154.156 41.4143Z" fill="#3260E7"/>
<path d="M163.677 41.803C163.677 44.0567 162.026 45.8401 159.969 45.8401C159.216 45.8551 158.477 45.6403 157.85 45.2244V49.424H155.684V37.9113H157.85V38.3655C158.477 37.9496 159.216 37.7348 159.969 37.7498C162.027 37.7498 163.677 39.517 163.677 41.803ZM161.543 41.803C161.575 41.3583 161.459 40.9155 161.212 40.5441C160.965 40.1728 160.602 39.8938 160.18 39.751C159.757 39.6082 159.299 39.6096 158.878 39.755C158.456 39.9005 158.095 40.1817 157.85 40.5546V43.0362C158.047 43.3194 158.311 43.5492 158.618 43.7049C158.926 43.8607 159.267 43.9374 159.611 43.9284C159.878 43.9166 160.139 43.8521 160.381 43.7387C160.623 43.6253 160.84 43.4653 161.019 43.2677C161.199 43.0702 161.338 42.8391 161.428 42.5877C161.517 42.3363 161.557 42.0696 161.543 41.803Z" fill="#3260E7"/>
<path d="M167.059 45.6783H164.893V34.1665H167.059V45.6783Z" fill="#3260E7"/>
<path d="M169.008 35.1716C169.004 34.9979 169.034 34.8251 169.097 34.6632C169.161 34.5014 169.256 34.3539 169.377 34.2295C169.499 34.105 169.644 34.0061 169.803 33.9385C169.964 33.871 170.136 33.8362 170.31 33.8362C170.483 33.8362 170.655 33.871 170.816 33.9385C170.975 34.0061 171.12 34.105 171.242 34.2295C171.363 34.3539 171.458 34.5014 171.522 34.6632C171.585 34.8251 171.615 34.9979 171.611 35.1716C171.611 35.5168 171.474 35.8478 171.23 36.0918C170.986 36.3358 170.655 36.473 170.31 36.473C169.965 36.473 169.634 36.3358 169.389 36.0918C169.145 35.8478 169.008 35.5168 169.008 35.1716ZM171.408 37.9114V45.6782H169.242V37.9114H171.408Z" fill="#3260E7"/>
<path d="M179.276 45.5649C178.634 45.8077 177.953 45.9285 177.267 45.9213C175.459 45.9213 174.275 44.592 174.275 42.5815V39.8086H172.703V37.9112H174.275V35.1392H176.425V37.9112H179.121V39.8082H176.425V42.5649C176.407 42.7402 176.428 42.9174 176.488 43.0832C176.548 43.249 176.644 43.3992 176.77 43.5224C176.897 43.6456 177.049 43.7386 177.216 43.7945C177.383 43.8505 177.561 43.8678 177.735 43.8453C178.163 43.8293 178.587 43.7586 178.997 43.6348L179.276 45.5649Z" fill="#3260E7"/>
<path d="M187.969 45.6781H185.803V45.1266C185.211 45.6409 184.453 45.9226 183.669 45.9192C181.704 45.9192 180.396 44.4436 180.396 42.1904V37.9109H182.562V41.9808C182.562 43.2131 183.155 43.8786 184.168 43.8786C184.496 43.8484 184.813 43.7453 185.096 43.577C185.379 43.4087 185.621 43.1794 185.804 42.9056V37.9113H187.97L187.969 45.6781Z" fill="#3260E7"/>
<path d="M197.165 45.6787H194.999V45.225C194.372 45.6407 193.633 45.8555 192.88 45.8407C190.823 45.8407 189.156 44.0735 189.156 41.7875C189.156 39.5338 190.823 37.7503 192.88 37.7503C193.633 37.7355 194.372 37.9503 194.999 38.3661V34.1665H197.165L197.165 45.6787ZM194.999 43.0364V40.5543C194.803 40.271 194.539 40.0411 194.231 39.8854C193.924 39.7296 193.582 39.6529 193.238 39.6621C192.971 39.6724 192.709 39.7358 192.466 39.8486C192.224 39.9614 192.006 40.1214 191.827 40.3191C191.647 40.5168 191.508 40.7483 191.419 41.0003C191.329 41.2521 191.291 41.5193 191.306 41.7862C191.306 42.9377 192.101 43.9434 193.238 43.9434C193.584 43.953 193.927 43.8749 194.235 43.7162C194.543 43.5576 194.806 43.324 194.999 43.0364Z" fill="#3260E7"/>
<path d="M205.953 42.3711H200.451C200.502 42.8384 200.731 43.2678 201.092 43.5698C201.452 43.8719 201.915 44.0233 202.384 43.9925C202.628 44.0189 202.873 43.9785 203.096 43.8756C203.318 43.7728 203.508 43.6113 203.645 43.4087H205.905C205.5 44.9004 204.098 45.9218 202.337 45.9218C199.937 45.9218 198.317 44.1226 198.317 41.8039C198.317 39.4021 199.922 37.6667 202.275 37.6667C204.409 37.6667 205.999 39.2388 205.999 41.6405C206.003 41.8854 205.987 42.1301 205.952 42.3724L205.953 42.3711ZM200.467 41.041H203.849C203.724 40.0685 203.163 39.5336 202.29 39.5336C201.854 39.515 201.426 39.6588 201.09 39.9372C200.753 40.2156 200.531 40.6088 200.467 41.041Z" fill="#3260E7"/>
</g>
<defs>
<clipPath id="clip0_0_119">
<rect width="100" height="21.8341" fill="white" transform="translate(106 30)"/>
</clipPath>
</defs>
</svg>
