<svg width="204" height="59" viewBox="0 0 204 59" fill="none" xmlns="http://www.w3.org/2000/svg">
<path d="M65.1742 4.85715C51.7592 4.85715 40.8841 15.7302 40.8841 29.1429C40.8841 42.5555 51.7592 53.4286 65.1742 53.4286C78.5892 53.4286 89.4642 42.5555 89.4642 29.1429C89.3455 15.7797 78.5397 4.97582 65.1742 4.85715ZM65.1742 48.3286C54.6437 48.3954 46.0528 39.9146 45.9858 29.386C45.9188 18.8574 54.4011 10.2679 64.9315 10.2008C75.462 10.1336 84.0531 18.6143 84.1204 29.1429C84.1212 39.6447 75.6771 48.1956 65.1742 48.3286ZM117.373 4.85715C103.958 4.85715 93.0834 15.7302 93.0834 29.1429C93.0834 42.5555 103.958 53.4286 117.373 53.4286C130.788 53.4286 141.663 42.5555 141.663 29.1429C141.663 22.7019 139.104 16.5247 134.549 11.9703C129.994 7.41581 123.816 4.85715 117.373 4.85715ZM117.373 48.3286C106.843 48.3954 98.2521 39.9146 98.1851 29.386C98.1181 18.8574 106.6 10.2679 117.131 10.2008C127.661 10.1336 136.252 18.6143 136.32 29.1429C136.405 34.2146 134.444 39.107 130.879 42.7166C127.315 46.3261 122.447 48.3489 117.373 48.3286ZM23.3953 19.4286C18.8161 18.6872 14.1373 19.9229 10.5216 22.8286V9.95715H32.3826C33.1113 9.95715 33.5971 9.71429 33.5971 7.52858C33.5971 5.34286 32.6255 5.34286 32.1397 5.34286H8.09261C6.88526 5.34286 5.90651 6.32144 5.90651 7.52858V28.9C5.90651 30.1143 6.63521 30.3571 7.84971 30.6C8.60464 30.949 9.49975 30.7501 10.0358 30.1143C12.799 26.1968 17.3954 23.9909 22.1808 24.2857C27.8114 24.9885 32.2821 29.3591 33.1113 34.9714C33.8828 41.6683 29.1142 47.7364 22.4237 48.5714H20.9663C15.8752 48.4996 11.3465 45.3204 9.55001 40.5571C9.30711 39.8286 8.82131 39.3429 6.87811 40.0714C4.93491 40.8 4.69201 41.2857 4.93491 42.0143C8.22507 50.8017 17.9465 55.3375 26.7959 52.2143C35.5849 48.9247 40.1216 39.205 36.9977 30.3571C34.8215 24.4884 29.5959 20.29 23.3953 19.4286ZM158.181 5.1C151.522 5.86658 146.502 11.5128 146.521 18.2143V39.8286C146.521 41.0429 147.493 41.2857 148.95 41.2857C150.408 41.2857 151.38 41.0429 151.38 39.8286V18.2143C151.291 14.0734 154.32 10.5232 158.424 9.95715C160.63 9.73443 162.829 10.4381 164.496 11.9C166.187 13.3659 167.161 15.4911 167.168 17.7286C167.006 19.387 166.421 20.976 165.468 22.3429C163.907 24.5099 161.329 25.7066 158.667 25.5C157.695 25.5 156.966 25.5 156.723 27.6857C156.723 29.1429 156.723 29.8714 157.938 30.1143C160.38 30.3634 162.839 29.8546 164.982 28.6571C168.899 26.6614 171.547 22.8268 172.026 18.4571C172.307 15.0947 171.225 11.7604 169.024 9.20313C166.822 6.64583 163.686 5.07993 160.318 4.85715C159.623 5.0522 158.902 5.1342 158.181 5.1ZM190.001 17.7286L198.745 8.98572C198.988 8.74286 199.717 8.01429 198.259 6.31429C197.854 5.76628 197.237 5.41377 196.559 5.34286C196.178 5.35014 195.821 5.52859 195.587 5.82858L186.843 14.5714L178.099 5.58572C177.37 4.85715 176.641 5.1 175.427 6.07143C174.212 7.04286 174.212 8.01429 174.941 8.74286L183.685 17.4857L174.892 26.4714C174.637 26.7392 174.467 27.0777 174.406 27.4429C174.419 28.138 174.786 28.7788 175.378 29.1429C175.853 29.6056 176.438 29.9399 177.078 30.1143C177.518 30.0596 177.937 29.8923 178.293 29.6286L187.037 20.8857L195.782 29.6286C196.016 29.9286 196.373 30.107 196.753 30.1143C197.431 30.0434 198.048 29.6909 198.454 29.1429C199.182 28.1714 199.425 27.2 198.696 26.7143L190.001 17.7286Z" fill="black"/>
</svg>
