<svg width="162" height="73" viewBox="0 0 162 73" fill="none" xmlns="http://www.w3.org/2000/svg">
<path d="M46.5454 32.4498L49.3007 38.6757H43.8166L46.5454 32.4498ZM61.0108 7.8374V36.5562C61.0108 37.404 60.9843 38.2518 60.9049 39.0996C59.6332 53.7769 47.4197 65.2751 32.5304 65.2751H4.05005V36.5297C4.05005 21.0841 16.2105 8.47324 31.3912 7.8639C31.7621 7.8374 32.1595 7.8374 32.5304 7.8374H61.0108ZM24.3175 29.456H14.7004C14.2235 29.456 13.8261 29.8269 13.8261 30.3303V45.617H15.5482V38.4108H21.8801V36.6887H15.5747V31.1781H24.3175V29.456ZM38.6239 40.8482H36.6899L36.425 41.2985C35.7361 42.5702 33.8551 43.8949 31.7356 43.8949C28.6889 43.8949 26.225 41.0336 26.225 37.5365C26.225 34.0394 28.6889 31.1781 31.7356 31.1781C33.8021 31.1781 35.7096 32.5027 36.3985 33.8274L36.6634 34.2513H38.5179L37.9351 32.9796C36.9283 30.9661 34.2525 29.456 31.7621 29.456C27.7881 29.456 24.5294 33.0856 24.5294 37.5365C24.5294 41.9874 27.7616 45.617 31.7621 45.617C34.5174 45.617 36.9548 43.8684 37.9616 42.1198L38.6239 40.8482ZM54.202 45.5905L47.3402 29.9594C47.2078 29.668 46.9428 29.4825 46.6514 29.456C46.6514 29.456 46.5984 29.456 46.5454 29.456C46.4925 29.456 46.466 29.456 46.466 29.456C46.148 29.4825 45.8831 29.668 45.7771 29.9594L39.4452 44.3983L38.9418 45.5905H40.7964L43.0748 40.3978H50.0956L52.374 45.5905H54.202Z" fill="#EC6B00"/>
<path d="M116.594 61.6982V65.1954H115.004V61.6982V58.9429C115.004 57.2474 113.733 55.8697 112.169 55.8697C110.606 55.8697 109.335 57.2474 109.335 58.9429V65.1954H107.745V54.2801H109.335V55.3663C110.129 54.6775 111.11 54.2801 112.169 54.2801C114.607 54.2801 116.62 56.3731 116.62 58.9429L116.594 61.6982ZM83.8215 65.1954H82.0995L79.98 60.4001H73.5156L71.3961 65.1954H69.6741L70.151 64.0826L76.0325 50.73C76.1385 50.465 76.3769 50.3061 76.6683 50.2796H76.7478H76.8273C77.1187 50.3061 77.3572 50.4915 77.4631 50.73L83.8215 65.1954ZM79.2912 58.784L76.7478 53.0084L74.2044 58.784H79.2912ZM84.7488 65.1954H86.3384V50.0412H84.7488V65.1954ZM92.9618 51.6308H94.5779V50.0412H92.9618V51.6308ZM88.7493 65.1954H90.3389V50.0412H88.7493V65.1954ZM92.9618 65.1954H94.5514V54.2801H92.9618V65.1954ZM110.05 7.62524H108.434V9.21485H110.05V7.62524ZM116.382 24.74H115.587V26.3296H116.382C118.342 26.3296 119.376 25.4553 120.568 22.7795L120.621 22.647L124.409 12.9769L124.886 11.8642H123.111L120.064 19.7857L117.15 12.3941L116.965 11.8642H115.19L119.19 21.9582C118.157 24.3161 117.548 24.74 116.382 24.74ZM77.1717 43.9742C79.7151 43.9742 81.9935 42.3581 82.9208 40.742L83.5566 39.5763H81.7551L81.5166 39.9737C80.8808 41.1394 79.1322 42.3846 77.1717 42.3846C74.3634 42.3846 72.085 39.7352 72.085 36.503C72.085 33.2708 74.3634 30.6215 77.1717 30.6215C79.0792 30.6215 80.8543 31.8402 81.4901 33.0589L81.7286 33.4563H83.4506L82.8943 32.2906C81.9405 30.436 79.5031 29.0319 77.1717 29.0319C73.4891 29.0319 70.4954 32.3966 70.4954 36.503C70.4954 40.636 73.4891 43.9742 77.1717 43.9742ZM110.023 11.8642H108.434V22.7795H110.023V11.8642ZM96.5649 33.0854V44.0007H98.1545V38.4635C98.181 36.1056 99.6116 34.7015 101.97 34.7015H102.764V33.1119H101.97C100.406 33.1119 99.1082 33.5888 98.1545 34.463V33.1119H96.5649V33.0854ZM73.3037 16.1031H79.1852V14.5135H73.3037V9.42679H81.3841V7.83719H72.4824C72.032 7.83719 71.6876 8.18161 71.6876 8.63199V22.7795H73.2772V16.1031H73.3037ZM137.683 33.4828L134.556 41.0864L131.457 33.6153L131.271 33.0854H129.496L133.815 43.4708L134.053 44.0007H135.113L135.272 43.6033L139.113 34.2246L139.59 33.1119H137.815L137.683 33.4828ZM157.155 33.0854C155.592 33.0854 154.294 33.5623 153.34 34.4366V33.0854H151.751V44.0007H153.34V38.4635C153.367 36.1056 154.797 34.7015 157.155 34.7015H157.95V33.1119H157.155V33.0854ZM112.381 22.7795H113.971V7.62524H112.381V22.7795ZM98.2869 16.2091L98.3134 22.7795H99.903L99.8765 16.2091C99.8765 14.6725 100.883 13.4538 102.181 13.4538C103.48 13.4538 104.486 14.646 104.486 16.2091L104.513 22.7795H106.102L106.076 16.2091C106.076 13.7717 104.354 11.8642 102.181 11.8642C100.936 11.8642 99.797 12.5 99.0817 13.5598C98.3664 12.5 97.2272 11.8642 95.982 11.8642C95.1342 11.8642 94.3394 12.1556 93.6771 12.6855V11.8642H92.0875V22.7795H93.6771V16.2091C93.6771 14.6725 94.6838 13.4538 95.982 13.4538C97.2802 13.4803 98.2869 14.6725 98.2869 16.2091ZM122.926 55.8697C124.515 55.8697 125.337 56.6115 125.761 57.2209L126.105 57.7507L127.377 56.797L127.059 56.3201C126.423 55.3928 125.178 54.2801 122.926 54.2801C120.17 54.2801 117.919 56.7175 117.919 59.7377C117.919 62.7315 120.17 65.1954 122.926 65.1954C124.701 65.1954 126.078 64.48 127.059 63.0229L127.377 62.546L126.105 61.5923L125.761 62.0956C125.045 63.1024 124.118 63.5793 122.926 63.5793C121.045 63.5793 119.508 61.8572 119.508 59.7112C119.508 57.6183 121.045 55.8697 122.926 55.8697ZM80.5099 17.3218C80.5099 14.3281 82.6558 11.8642 85.3052 11.8642C86.4444 11.8642 87.5306 12.3676 88.3519 13.1889V11.8642H89.9415V22.7795H88.3519V21.4548C87.5306 22.3026 86.4444 22.7795 85.3052 22.7795C82.6558 22.7795 80.5099 20.3421 80.5099 17.3218ZM82.0995 17.3218C82.0995 19.4413 83.5301 21.1899 85.3052 21.1899C86.9742 21.1899 88.3519 19.4678 88.3519 17.3218C88.3519 15.2024 86.9742 13.4538 85.3052 13.4538C83.5301 13.4803 82.0995 15.2024 82.0995 17.3218ZM84.9608 38.543C84.9608 35.5493 87.1067 33.0854 89.7561 33.0854C90.8953 33.0854 91.9815 33.5888 92.8028 34.4101V33.0854H94.3924V44.0007H92.8028V42.676C91.9815 43.5238 90.8953 44.0007 89.7561 44.0007C87.1067 43.9742 84.9608 41.5368 84.9608 38.543ZM86.5504 38.543C86.5504 40.6625 87.981 42.4111 89.7561 42.4111C91.4251 42.4111 92.8028 40.689 92.8028 38.543C92.8028 36.4236 91.4251 34.675 89.7561 34.675C87.981 34.675 86.5504 36.3971 86.5504 38.543ZM96.1145 59.7377C96.1145 56.744 98.2604 54.2801 100.91 54.2801C102.049 54.2801 103.135 54.7835 103.957 55.6048V54.2801H105.546V65.1954H103.957V63.8707C103.135 64.7185 102.049 65.1954 100.91 65.1954C98.2604 65.1954 96.1145 62.7315 96.1145 59.7377ZM97.7041 59.7377C97.7041 61.8572 99.1347 63.6058 100.91 63.6058C102.579 63.6058 103.957 61.8837 103.957 59.7377C103.957 57.6183 102.579 55.8697 100.91 55.8697C99.1347 55.8697 97.7041 57.6183 97.7041 59.7377ZM138.742 59.7377V60.5325H130.317C130.635 62.2811 132.04 63.6058 133.709 63.6058C135.404 63.6323 136.278 62.7315 136.782 62.0427L137.126 61.5658L138.398 62.5195L138.053 62.9964C136.994 64.4536 135.537 65.1954 133.735 65.1954C133.709 65.1954 133.682 65.1954 133.682 65.1954C130.847 65.1954 128.648 62.811 128.648 59.7377C128.648 56.691 130.874 54.2801 133.682 54.2801C136.464 54.2801 138.742 56.744 138.742 59.7377ZM137.1 58.9429C136.835 57.2209 135.378 55.8697 133.682 55.8697C132.013 55.8697 130.635 57.1679 130.291 58.9429H137.1ZM149.817 38.543V39.3378H141.392C141.71 41.0864 143.114 42.4111 144.783 42.4111C146.478 42.4375 147.353 41.5368 147.856 40.8479L148.2 40.3711L149.472 41.3248L149.128 41.8017C148.068 43.2588 146.611 44.0007 144.809 44.0007C144.783 44.0007 144.756 44.0007 144.756 44.0007C141.922 44.0007 139.723 41.6163 139.723 38.543C139.723 35.4963 141.948 33.0854 144.756 33.0854C147.538 33.0854 149.817 35.5228 149.817 38.543ZM148.174 37.7482C147.909 36.0262 146.452 34.675 144.756 34.675C143.087 34.675 141.71 35.9732 141.365 37.7482H148.174ZM112.779 38.543V39.3378H104.354C104.672 41.0864 106.076 42.4111 107.745 42.4111C109.441 42.4375 110.315 41.5368 110.818 40.8479L111.163 40.3711L112.434 41.3248L112.09 41.8017C111.03 43.2588 109.573 44.0007 107.772 44.0007C107.745 44.0007 107.719 44.0007 107.719 44.0007C104.884 44.0007 102.685 41.6163 102.685 38.543C102.685 35.4963 104.91 33.0854 107.719 33.0854C110.5 33.0854 112.779 35.5228 112.779 38.543ZM111.136 37.7482C110.871 36.0262 109.414 34.675 107.719 34.675C106.049 34.675 104.672 35.9732 104.327 37.7482H111.136ZM114.209 38.543C114.209 35.5493 116.461 33.0854 119.243 33.0854C120.541 33.0854 121.787 33.6418 122.687 34.569V33.0854H124.303L124.277 43.2059C124.277 44.8484 122.369 47.1534 119.243 47.1799H119.031H118.475V45.5903H119.27C121.336 45.5638 122.714 44.1331 122.714 43.2059V42.5435C121.787 43.4708 120.568 44.0272 119.27 44.0272C116.488 43.9742 114.209 41.5368 114.209 38.543ZM115.799 38.543C115.799 40.6625 117.336 42.4111 119.243 42.4111C121.151 42.4111 122.687 40.689 122.687 38.543C122.687 36.4236 121.151 34.675 119.243 34.675C117.336 34.675 115.799 36.3971 115.799 38.543ZM144.147 56.5055C144.147 57.1149 143.935 57.6448 143.511 58.0686C143.087 58.4925 142.557 58.7045 141.948 58.7045C141.339 58.7045 140.809 58.4925 140.385 58.0422C139.961 57.6183 139.749 57.0884 139.749 56.479C139.749 56.1346 139.829 55.8167 139.961 55.5518C140.093 55.2603 140.305 54.9954 140.544 54.7835C140.968 54.4391 141.418 54.2801 141.922 54.2801C142.266 54.2801 142.557 54.3331 142.849 54.4655C143.246 54.6245 143.564 54.9159 143.803 55.2868C144.015 55.6577 144.147 56.0552 144.147 56.5055ZM143.776 56.5055C143.776 56.2141 143.697 55.9227 143.564 55.6313C143.432 55.3398 143.246 55.1279 143.008 54.9689C142.69 54.7305 142.319 54.6245 141.922 54.6245C141.418 54.6245 140.994 54.81 140.623 55.1809C140.252 55.5518 140.093 56.0022 140.093 56.5055C140.093 57.0354 140.279 57.4858 140.623 57.8567C140.994 58.2276 141.418 58.4131 141.948 58.4131C142.451 58.4131 142.902 58.2276 143.246 57.8567C143.591 57.4593 143.776 57.0089 143.776 56.5055ZM142.16 56.7175L142.981 57.7772H142.398L141.63 56.7705V57.7772H141.153V55.2339H141.657C142.001 55.2339 142.266 55.2868 142.425 55.4193C142.61 55.5783 142.69 55.7637 142.69 56.0022C142.69 56.1611 142.637 56.3201 142.531 56.4525C142.425 56.585 142.319 56.6645 142.16 56.7175ZM142.239 56.0022C142.239 55.7902 142.08 55.6577 141.736 55.6577H141.63V56.3466H141.71C142.054 56.3466 142.239 56.2406 142.239 56.0022ZM126.661 30.436H128.277V28.8464H126.661V30.436ZM126.661 43.9742H128.251V33.0854H126.661V43.9742Z" fill="#595959"/>
</svg>
