<svg width="109" height="109" viewBox="0 0 109 109" fill="none" xmlns="http://www.w3.org/2000/svg">
<path d="M54.5 106.275C83.0945 106.275 106.275 83.0946 106.275 54.5001C106.275 25.9056 83.0945 2.7251 54.5 2.7251C25.9054 2.7251 2.72498 25.9056 2.72498 54.5001C2.72498 83.0946 25.9054 106.275 54.5 106.275Z" fill="white"/>
<path d="M28.0816 74.6302C28.1892 74.752 28.2713 74.8596 28.3648 74.9615C28.4582 75.0634 28.5884 75.1682 28.696 75.2644C28.3619 75.9269 27.991 76.7084 27.6739 77.4841L29.1773 79.0158C29.9219 78.7129 30.6722 78.4128 31.4112 78.0305C31.4876 78.1211 31.5414 78.1976 31.6122 78.2712C31.6833 78.3404 31.759 78.4047 31.8387 78.4637L25.726 80.6834L25.5901 80.5447L28.0816 74.6302ZM26.6122 79.9926L28.8177 79.1432L27.5154 77.8154L26.6122 79.9926Z" fill="#B50C00"/>
<path d="M19.3274 72.0028C20.9837 70.7061 22.6258 69.3981 23.8744 68.3448C23.948 68.4779 23.999 68.5855 24.0669 68.6931C24.1349 68.8007 24.2255 68.9111 24.3019 69.013C22.9344 70.0408 21.4707 71.1563 20.8251 71.6999C22.841 71.5951 24.3812 71.4847 25.6383 71.2922L25.6864 71.3686L25.1201 72.269C24.4633 73.3194 23.8461 74.4037 23.2232 75.4711C24.7238 74.752 26.2696 74.0555 27.153 73.4892C27.2039 73.5855 27.2407 73.6733 27.2889 73.7497C27.3468 73.8341 27.4092 73.9154 27.4757 73.9932C26.1988 74.534 22.9231 75.9892 22.1247 76.3913L22.0058 76.2072C22.7844 74.9218 23.7045 73.376 24.4831 71.8329C22.824 71.9264 21.1536 72.0566 19.4095 72.1444L19.3274 72.0028Z" fill="#B50C00"/>
<path d="M20.0211 67.4247L19.5341 66.2101C19.4407 65.9751 19.3189 65.7628 19.217 65.5306C19.2899 65.5153 19.3618 65.4955 19.4322 65.4711C19.4945 65.4485 19.5596 65.4032 19.6445 65.3635C19.7295 65.6014 19.7889 65.8392 19.8823 66.0742L20.3665 67.2888L22.6768 66.3828C22.5012 65.8987 22.2804 65.44 22.0766 64.9672C21.973 64.7284 21.8538 64.4967 21.7198 64.2735C21.8076 64.248 21.8869 64.2367 21.9661 64.2056C22.0436 64.1699 22.1192 64.1302 22.1926 64.0867L23.3251 66.9179L17.9458 69.03L16.8331 66.2497C16.9163 66.2303 16.9985 66.2067 17.0794 66.1789C17.1578 66.1442 17.2343 66.1055 17.3087 66.0629C17.3561 66.3135 17.4214 66.5605 17.5041 66.8018L17.8014 67.5917L18.042 68.1948L20.0211 67.4247Z" fill="#B50C00"/>
<path d="M16.0828 63.9196L15.6808 62.1727C15.3976 60.9072 15.6808 60.2531 16.5301 60.0635C17.4928 59.8483 18.1524 60.5957 18.495 61.3913L20.2674 59.2113L20.6411 58.713L20.8138 58.5091C20.845 58.6818 20.8619 58.8347 20.8959 58.9904C20.9299 59.1461 20.9865 59.3075 21.029 59.4519C20.8138 59.6926 20.6213 59.9077 20.4288 60.1342L19.384 61.3885L18.7555 62.2209L18.8263 62.5351L21.5952 61.9066C21.6179 62.0397 21.6292 62.1586 21.6547 62.2747C21.6802 62.3907 21.7283 62.5181 21.7623 62.6314L16.0828 63.9196ZM18.5007 62.6144C18.4496 62.254 18.3545 61.9013 18.2176 61.564C18.1146 61.2854 17.9151 61.0531 17.6553 60.9091C17.3955 60.7652 17.0927 60.7193 16.8019 60.7798C16.6724 60.7984 16.5478 60.8426 16.4354 60.9098C16.323 60.9771 16.2252 61.0659 16.1475 61.1713C16.0697 61.2767 16.0137 61.3964 15.9827 61.5236C15.9517 61.6508 15.9463 61.7829 15.9667 61.9123C16.0228 62.322 16.1127 62.7264 16.2357 63.1212L18.5007 62.6144Z" fill="#B50C00"/>
<path d="M14.9305 57.8013C14.9305 57.6824 14.9305 57.555 14.9163 57.4304C14.9022 57.3058 14.8767 57.1982 14.854 57.0652L20.6383 56.4819C20.6383 56.6178 20.6383 56.7367 20.6524 56.8528C20.6666 56.9689 20.6949 57.102 20.7147 57.2209L14.9305 57.8013Z" fill="#B50C00"/>
<path d="M20.1994 50.1966C20.5223 50.7662 20.6728 51.4173 20.6326 52.0709C20.5817 53.9225 19.3699 55.0012 17.5182 54.9531C15.6072 54.8993 14.5568 53.4723 14.6077 51.6971C14.631 51.0734 14.7803 50.4609 15.0466 49.8965C15.2569 49.9821 15.475 50.0475 15.6978 50.0918V50.1513C15.4686 50.3505 15.2818 50.5938 15.1485 50.8666C15.0153 51.1395 14.9382 51.4364 14.922 51.7396C14.8795 53.2883 16.1253 54.0895 17.5692 54.1263C19.2028 54.1716 20.2731 53.277 20.3099 51.9434C20.3051 51.2875 20.0797 50.6522 19.67 50.1399L20.1994 50.1966Z" fill="#B50C00"/>
<path d="M21.7679 44.0273C21.7255 44.183 21.6802 44.3104 21.6519 44.452C21.6236 44.5935 21.6066 44.7521 21.5839 44.8936C20.8421 44.9899 19.9814 45.1201 19.1547 45.2928L18.713 47.388C19.384 47.8268 20.0522 48.277 20.7855 48.6677C20.7544 48.7838 20.7176 48.8687 20.6977 48.9678C20.6779 49.0669 20.6723 49.1688 20.6609 49.2509L15.3863 45.4854L15.4288 45.2957L21.7679 44.0273ZM16.4565 45.8166L18.3959 47.1586L18.7782 45.3438L16.4565 45.8166Z" fill="#B50C00"/>
<path d="M24.1179 38.277L24.016 38.5092C23.8716 38.5488 23.6168 38.6253 23.3676 38.713L18.1893 40.4882L18.1581 40.5647L22.3767 42.3399C22.3334 42.4066 22.2937 42.4756 22.2578 42.5465C22.2266 42.623 22.2125 42.6994 22.1898 42.773L16.8359 40.508L16.9662 40.2051L22.5749 38.2232L22.6088 38.1439L18.5771 36.4452C18.6204 36.378 18.6591 36.308 18.6932 36.2357C18.7214 36.1617 18.745 36.0861 18.764 36.0092L24.1179 38.277Z" fill="#B50C00"/>
<path d="M25.5873 33.7895C26.2215 33.8574 26.7198 33.764 27.1275 33.2431C27.2228 33.1164 27.2918 32.9719 27.3302 32.8182C27.3686 32.6644 27.3758 32.5045 27.3512 32.3479C27.3267 32.1913 27.2709 32.0412 27.1872 31.9066C27.1036 31.7719 26.9937 31.6555 26.8642 31.5641C25.61 30.61 24.5426 33.1213 23.0165 31.9633C22.1473 31.3008 22.2521 30.2957 22.8721 29.4945C23.1352 29.1433 23.5111 28.8934 23.9367 28.7867C24.0595 28.9967 24.1976 29.1973 24.35 29.3869L24.2991 29.4549C24.0802 29.3799 23.8432 29.3766 23.6223 29.4453C23.4014 29.514 23.2081 29.6512 23.0703 29.8371C22.9796 29.9383 22.9107 30.0572 22.8681 30.1863C22.8256 30.3155 22.8102 30.452 22.8229 30.5874C22.8357 30.7227 22.8764 30.854 22.9423 30.9729C23.0083 31.0918 23.0981 31.1957 23.2062 31.2782C24.4463 32.221 25.5788 29.738 27.0142 30.8308C27.9797 31.5641 27.9769 32.7419 27.2719 33.6621C27.0199 33.9877 26.4622 34.4152 26.0375 34.452C25.8898 34.2417 25.722 34.0464 25.5363 33.8688L25.5873 33.7895Z" fill="#B50C00"/>
<path d="M27.1586 28.9311C25.9044 27.5636 26.1422 25.7827 27.4418 24.6106C28.6252 23.546 30.4117 23.0987 31.7821 24.5964C33.059 25.9866 32.8976 27.7901 31.4989 29.0528C30.1003 30.3155 28.3817 30.2646 27.1586 28.9311ZM29.5595 24.1859C29.2264 24.1358 28.8864 24.1607 28.5641 24.2586C28.2418 24.3566 27.9455 24.5252 27.6966 24.7521C26.5896 25.7487 26.683 27.1785 27.8438 28.4328C29.0046 29.687 30.3919 29.6559 31.3262 28.8122C32.6569 27.6202 31.8925 25.8309 31.2158 25.1825C30.7977 24.6663 30.2114 24.3135 29.5595 24.1859Z" fill="#B50C00"/>
<path d="M38.6846 23.4724C38.369 24.049 37.8944 24.5227 37.3172 24.8371C35.7118 25.7856 34.1433 25.3467 33.1892 23.764C32.2096 22.1361 32.8664 20.494 34.4066 19.5851C34.951 19.271 35.5526 19.0688 36.1762 18.9906C36.2159 19.2123 36.2775 19.4294 36.3602 19.6389L36.3121 19.6757C36.0186 19.5895 35.7109 19.5629 35.407 19.5975C35.1031 19.632 34.8092 19.7269 34.5425 19.8767C33.1977 20.6695 33.1807 22.1417 33.9225 23.3705C34.7719 24.7578 36.0969 25.174 37.252 24.503C37.8052 24.1486 38.2253 23.6209 38.4468 23.0024L38.6846 23.4724Z" fill="#B50C00"/>
<path d="M38.0929 17.8892C38.2062 17.8496 38.3307 17.8156 38.4468 17.7646C38.5629 17.7137 38.6592 17.657 38.7809 17.5976L41.0827 22.8864C40.9525 22.9317 40.8364 22.9628 40.7288 23.0109C40.6144 23.0613 40.5028 23.118 40.3947 23.1808L38.0929 17.8892Z" fill="#B50C00"/>
<path d="M42.5946 18.8547L43.8545 18.4724C44.098 18.3988 44.3245 18.2969 44.5651 18.2148C44.5747 18.2871 44.588 18.359 44.6048 18.43C44.6246 18.4951 44.6642 18.563 44.701 18.648C44.4547 18.7159 44.2084 18.7556 43.9649 18.8292L42.705 19.2086L43.4298 21.5613C43.9309 21.4283 44.4094 21.2471 44.8907 21.0829C45.1391 20.9987 45.3821 20.8994 45.6184 20.7856C45.6354 20.8762 45.6438 20.9526 45.6665 21.0319C45.6891 21.1112 45.7345 21.1904 45.7656 21.2669L42.8324 22.1559L41.1337 16.6718L44.0215 15.7969C44.0414 15.8904 44.047 15.9668 44.0725 16.0461C44.0997 16.1267 44.1328 16.2053 44.1716 16.2811C43.9152 16.3093 43.6608 16.3538 43.41 16.4141L42.5946 16.6435L41.9661 16.836L42.5946 18.8547Z" fill="#B50C00"/>
<path d="M49.265 20.6808C49.1291 20.695 49.0102 20.695 48.8913 20.712C48.7724 20.729 48.6421 20.7686 48.5261 20.7941L47.7192 15.4827C47.1036 15.5734 46.4938 15.7001 45.893 15.862C45.8939 15.7769 45.8892 15.6918 45.8788 15.6072C45.8624 15.5241 45.8416 15.4419 45.8166 15.3609L50.154 14.7069C50.154 14.7975 50.154 14.8768 50.154 14.9589C50.154 15.041 50.1965 15.1231 50.2191 15.2052C49.6256 15.226 49.0338 15.2818 48.4468 15.3722L49.265 20.6808Z" fill="#B50C00"/>
<path d="M54.5368 20.3524C54.4009 20.3524 54.282 20.3241 54.1631 20.3213C54.0442 20.3184 53.9083 20.3354 53.7893 20.3411L53.829 17.9147L51.8018 14.5483C51.9547 14.5483 52.1132 14.5795 52.2775 14.5823C52.4417 14.5851 52.5606 14.5823 52.7446 14.5625C53.0645 15.2165 54.047 17.0002 54.3131 17.4107C54.5963 17.0766 55.7287 15.058 55.9836 14.6163C56.0855 14.6163 56.2044 14.6446 56.3148 14.6474C56.4252 14.6503 56.5272 14.6474 56.6461 14.6248C56.4309 14.8909 56.2214 15.174 56.0289 15.4572L55.0804 16.9351C54.8981 17.2009 54.7344 17.479 54.5906 17.7675L54.5368 20.3524Z" fill="#B50C00"/>
<path d="M60.7599 17.9572C61.2667 16.182 62.9173 15.4374 64.6132 15.9102C66.1506 16.3377 67.4784 17.6089 66.9263 19.5483C66.411 21.3547 64.7802 22.1757 62.9626 21.6661C61.1449 21.1565 60.2672 19.704 60.7599 17.9572ZM66.0968 17.4617C65.9606 17.154 65.7572 16.8809 65.5014 16.6623C65.2456 16.4438 64.944 16.2854 64.6189 16.199C63.1778 15.7969 62.0028 16.6321 61.5356 18.2799C61.0685 19.9277 61.8386 21.0659 63.056 21.3943C64.7831 21.8784 65.9071 20.2844 66.1053 19.3756C66.3318 18.7572 66.3288 18.078 66.0968 17.4617Z" fill="#B50C00"/>
<path d="M69.9643 17.9373L72.6766 19.251C72.6275 19.3203 72.5822 19.3922 72.5407 19.4662C72.5039 19.5427 72.4812 19.6248 72.4501 19.704C72.2441 19.5516 72.0285 19.4126 71.8046 19.2878L71.0486 18.9028L70.4597 18.6197L69.5197 20.5166L70.7032 21.0829C70.9325 21.1961 71.1675 21.2726 71.3997 21.366C71.3565 21.425 71.3168 21.4864 71.2808 21.55C71.2496 21.6095 71.2327 21.6859 71.1987 21.7737C70.975 21.6548 70.7683 21.516 70.539 21.4056L69.3555 20.8394L68.0758 23.4271C67.9569 23.3592 67.8578 23.2912 67.7502 23.2403C67.6426 23.1893 67.5152 23.144 67.4048 23.1015L69.9643 17.9373Z" fill="#B50C00"/>
<path d="M80.8447 25.0834C80.9297 25.1655 81.0146 25.2618 81.1109 25.3439C81.2071 25.426 81.3034 25.4854 81.4138 25.5647L77.6284 29.939C77.5294 29.8456 77.4501 29.755 77.3595 29.6785C77.2689 29.6021 77.1556 29.5285 77.0594 29.4577L78.962 27.2578C78.5146 26.8558 78.0871 26.4594 77.6341 26.0743C77.1811 25.6893 76.7224 25.3326 76.2468 24.9418L74.3329 27.153C74.2366 27.0596 74.1573 26.969 74.0667 26.8926C73.9761 26.8161 73.86 26.7397 73.7638 26.6689L77.5492 22.2975C77.6341 22.3796 77.719 22.4758 77.8181 22.5579C77.9172 22.64 78.0107 22.6967 78.1182 22.7788L76.5299 24.6134C76.9829 25.0211 77.4189 25.4232 77.8634 25.8025C78.3079 26.1819 78.7779 26.5443 79.2479 26.9209L80.8447 25.0834Z" fill="#B50C00"/>
<path d="M81.8668 29.8342L82.7162 30.8393C82.8804 31.0347 83.0644 31.2017 83.2315 31.3914C83.1671 31.4276 83.1047 31.4673 83.0446 31.5103C82.9937 31.5556 82.9455 31.6151 82.8776 31.6802C82.7219 31.482 82.5945 31.2725 82.4302 31.0772L81.5809 30.0721L79.6669 31.6377C79.984 32.0426 80.3351 32.4107 80.6749 32.7901C80.8514 32.9853 81.0406 33.1688 81.2411 33.3393C81.1618 33.3931 81.0911 33.4271 81.0259 33.4809C80.963 33.5377 80.9034 33.5982 80.8476 33.6621L78.8799 31.3122L83.3419 27.6598L85.2671 29.9645C85.1927 30.0074 85.1208 30.0547 85.052 30.106C84.989 30.1619 84.9295 30.2215 84.8736 30.2844C84.7485 30.0616 84.6095 29.847 84.4574 29.6417L83.928 28.982L83.5118 28.4809L81.8668 29.8342Z" fill="#B50C00"/>
<path d="M89.6216 37.0086C87.8889 38.2062 86.1731 39.4123 84.8623 40.3891C84.7972 40.2532 84.7547 40.1428 84.6924 40.0324C84.6301 39.922 84.5452 39.8031 84.4772 39.6955C85.8928 38.7527 87.4274 37.7278 88.1069 37.221C86.091 37.2068 84.5452 37.221 83.2711 37.3455L83.2258 37.2634L83.843 36.3971C84.5622 35.3891 85.2417 34.3444 85.9297 33.3138C84.3866 33.9452 82.8153 34.5511 81.8866 35.0522C81.8413 34.9531 81.8102 34.8625 81.7649 34.7833C81.7196 34.704 81.6516 34.6134 81.595 34.5284C82.9002 34.0641 86.2581 32.807 87.082 32.4531L87.1896 32.6457C86.3402 33.8801 85.3294 35.3552 84.4517 36.8642C86.1137 36.8642 87.7869 36.8387 89.548 36.8642L89.6216 37.0086Z" fill="#B50C00"/>
<path d="M86.7281 46.3687C86.6884 46.213 86.6658 46.0856 86.6233 45.944C86.5808 45.8025 86.5186 45.6609 86.4676 45.5222C87.0706 45.0862 87.7643 44.5596 88.4042 44.016L87.7756 41.969C86.9744 41.9038 86.1675 41.8274 85.3351 41.8331C85.3068 41.717 85.2955 41.6235 85.2671 41.5273C85.2388 41.431 85.1907 41.3404 85.1567 41.2442L91.6035 42.0539L91.6601 42.2379L86.7281 46.3687ZM90.5163 42.2691L88.1635 42.0199L88.7071 43.7923L90.5163 42.2691Z" fill="#B50C00"/>
<path d="M87.0735 48.9536C87.0735 48.8206 87.0735 48.7017 87.0423 48.5828C87.0112 48.4638 86.9885 48.3364 86.9631 48.2204L92.3283 47.4304C92.2396 46.8203 92.1139 46.2161 91.9517 45.6213C92.0378 45.6209 92.1238 45.6161 92.2094 45.6071C92.2934 45.5907 92.3766 45.5699 92.4585 45.5448L93.104 49.8427C93.0189 49.8428 92.9338 49.8475 92.8492 49.8568C92.7649 49.8719 92.6816 49.8927 92.6001 49.9191C92.5818 49.3313 92.5279 48.7451 92.4387 48.1637L87.0735 48.9536Z" fill="#B50C00"/>
<path d="M90.3662 51.3262C92.2263 51.3772 93.3617 52.7815 93.3135 54.5255C93.2682 56.1082 92.3566 57.6909 90.3181 57.6399C88.4212 57.5861 87.2179 56.2243 87.2717 54.3443C87.3255 52.4644 88.5486 51.2781 90.3662 51.3262ZM92.1697 56.329C92.4368 56.1262 92.6544 55.8654 92.8059 55.5662C92.9575 55.267 93.0391 54.9373 93.0446 54.602C93.087 53.1212 91.98 52.1954 90.2558 52.1501C88.5316 52.1048 87.6001 53.1212 87.5661 54.3755C87.5152 56.1507 89.3498 56.8415 90.2869 56.8075C90.9513 56.8751 91.6182 56.7056 92.1697 56.329Z" fill="#B50C00"/>
<path d="M87.2179 59.7747C87.0933 60.2758 87.0225 60.7769 86.9348 61.2752C86.8866 61.5414 86.8668 61.8018 86.8441 62.0736C86.7535 62.0453 86.6828 62.0142 86.6007 61.9972C86.5186 61.9802 86.4308 61.9774 86.3458 61.9689L86.98 58.9706L92.6425 60.1456C92.6114 60.2588 92.5689 60.3806 92.5406 60.5023C92.5123 60.624 92.5095 60.7373 92.4897 60.8704L87.2179 59.7747Z" fill="#B50C00"/>
<path d="M88.8119 64.1546C90.5361 64.8511 91.0995 66.5612 90.4342 68.175C89.8311 69.6416 88.4155 70.8052 86.5242 70.0408C84.7688 69.333 84.1262 67.637 84.8453 65.8987C85.5644 64.1603 87.1273 63.461 88.8119 64.1546ZM88.7099 69.4604C89.0319 69.3636 89.3279 69.1955 89.5759 68.9685C89.8239 68.7416 90.0176 68.4616 90.1425 68.1495C90.7088 66.7763 90.001 65.5278 88.4042 64.8794C86.8073 64.2311 85.5729 64.8652 85.0944 66.0261C84.4178 67.671 85.8872 68.9564 86.7762 69.2537C87.3779 69.544 88.0628 69.6122 88.7099 69.4462V69.4604Z" fill="#B50C00"/>
<path d="M84.0808 76.8952C84.436 76.8479 84.777 76.7254 85.0812 76.536C85.3853 76.3466 85.6456 76.0946 85.8447 75.7967C86.6658 74.6189 86.4506 73.2656 85.035 72.3001C83.6194 71.3346 82.2943 71.4762 81.3544 72.8437C81.0863 73.2112 80.9096 73.6373 80.8391 74.0866L82.6397 75.3125C82.5661 75.406 82.4784 75.5022 82.4076 75.5957C82.3368 75.6891 82.2858 75.7995 82.2151 75.9156L80.2332 74.5651C80.4432 73.8129 80.7772 73.101 81.2213 72.4586C82.4416 70.7033 84.0525 70.6183 85.4823 71.5895C87.1188 72.705 87.1811 74.4575 86.1024 75.9977C85.702 76.634 85.1364 77.1497 84.4659 77.4898C84.3328 77.3086 84.1828 77.1359 84.0384 76.9632L84.0808 76.8952Z" fill="#B50C00"/>
<path d="M77.2321 77.235C77.334 77.1472 77.4303 77.0764 77.5152 76.9943C77.6001 76.9122 77.6851 76.8018 77.7615 76.7112L79.4886 78.4298L83.3419 79.3414C83.2258 79.4433 83.0984 79.5424 82.9852 79.6557C82.8719 79.7689 82.787 79.8765 82.6709 80.0011C81.9744 79.7718 79.9982 79.2253 79.5169 79.1291C79.5509 79.5679 80.2304 81.7735 80.3663 82.2633C80.287 82.3284 80.1907 82.3992 80.1114 82.4756C80.0322 82.552 79.9727 82.637 79.8934 82.7248C79.8538 82.385 79.7943 82.0396 79.7236 81.7055L79.3272 80.0068C79.2622 79.6912 79.1742 79.3808 79.0639 79.0781L77.2321 77.235Z" fill="#B50C00"/>
<path d="M35.8279 82.3284C35.8279 82.3284 35.6609 81.7621 35.2617 81.7621C35.2617 81.7621 34.7266 81.8527 35.0465 82.351C35.2434 82.4877 35.4813 82.5526 35.7203 82.5351C35.7093 82.6258 35.7211 82.7178 35.7547 82.8029C35.7882 82.8879 35.8425 82.9632 35.9125 83.022C35.9825 83.0807 36.066 83.1211 36.1556 83.1394C36.2452 83.1577 36.3379 83.1534 36.4253 83.1268L36.5471 83.3844C36.5471 83.3844 36.901 83.7327 37.068 83.7468C37.068 83.7468 37.3285 84.1574 37.4191 84.2621C37.4191 84.2621 37.957 84.3074 38.0335 84.0668C38.0335 84.0668 38.3534 83.5656 37.6031 83.5798L37.5408 83.5458C37.5408 83.5458 37.2294 82.6964 36.7764 82.8097C36.7772 82.7417 36.7626 82.6744 36.7337 82.6129C36.7048 82.5513 36.6623 82.4971 36.6094 82.4544C36.5566 82.4116 36.4947 82.3813 36.4285 82.3659C36.3623 82.3505 36.2934 82.3502 36.2271 82.3652L35.8279 82.3284Z" fill="#B50C00"/>
<path d="M33.645 84.2763C33.645 84.2763 33.9281 83.3929 32.9231 83.5486C32.9231 83.5486 32.4248 83.9648 33.0278 84.398L33.7101 84.4122C33.7101 84.4122 33.5403 84.9784 34.6954 85.0747C34.6954 85.0747 34.8511 85.0747 34.8908 85.1653C34.8908 85.1653 34.8115 85.6721 36.0233 85.5815C36.0685 85.6095 36.1087 85.6449 36.1422 85.6862C36.3451 85.7869 36.5739 85.8232 36.7981 85.7903C37.0222 85.7574 37.231 85.6569 37.3964 85.5022C37.428 85.4715 37.4677 85.4504 37.5108 85.4414C37.5539 85.4323 37.5987 85.4358 37.6399 85.4512C37.7164 85.5031 37.8035 85.5371 37.8949 85.5508C37.9863 85.5645 38.0796 85.5575 38.1679 85.5304C38.2562 85.5032 38.3373 85.4565 38.4052 85.3938C38.473 85.3311 38.526 85.254 38.5601 85.1681C38.5601 85.1681 38.5884 85.103 38.6903 85.1341C38.6903 85.1341 39.2566 85.4739 39.4406 85.0492C39.4632 85.0492 39.5878 85.0152 39.6501 85.0945C39.6501 85.0945 40.1909 85.5079 40.4287 85.0209C40.4287 85.0209 40.5476 84.9331 40.6014 85.0209C40.6314 85.089 40.6767 85.1492 40.7337 85.1969C40.7908 85.2447 40.8581 85.2786 40.9304 85.2961C41.0026 85.3137 41.078 85.3143 41.1506 85.298C41.2232 85.2817 41.291 85.2489 41.3488 85.2021C41.3488 85.2021 41.4876 85.1596 41.5215 85.2559C41.6088 85.3564 41.7255 85.4269 41.8551 85.4574C41.9847 85.4879 42.1206 85.4768 42.2435 85.4258C42.2435 85.4258 42.3426 85.4116 42.3568 85.4937C42.385 85.6378 42.4681 85.7653 42.5885 85.8493C42.709 85.9333 42.8573 85.9672 43.0023 85.9439C43.0023 85.9439 43.1212 85.9439 43.1042 86.0458C43.0872 86.1477 43.4157 86.6347 43.5714 86.5951C43.5714 86.5951 43.9961 86.2553 44.0215 86.0854C44.0215 86.0854 43.9762 85.7344 43.3364 85.6692C43.3364 85.6692 43.2967 85.7202 43.2911 85.5588C43.2854 85.3974 43.3647 84.7349 42.5776 85.1879C42.5776 85.1879 42.3426 85.2417 42.3285 85.12C42.3285 85.12 42.0453 84.2904 41.6744 84.7831C41.6744 84.7831 41.4763 84.7831 41.4763 84.7151C41.4763 84.7151 41.0148 84.1489 40.6835 84.6189C40.6835 84.6189 40.5108 84.7208 40.4372 84.5594C40.4372 84.5594 39.9842 84.0922 39.6303 84.6019C39.6303 84.6019 39.4491 84.6613 39.4491 84.5792C39.4491 84.5792 39.0414 83.9592 38.6167 84.8029C38.6167 84.8029 38.4157 84.8991 38.3817 84.8029C38.3817 84.8029 37.8636 84.2961 37.47 85.0181C37.47 85.0181 37.2747 85.1058 37.2492 85.0181C37.2237 84.9303 36.5697 84.8085 36.2611 85.1256C36.2611 85.1256 36.1195 85.2078 36.0488 85.1256C36.0488 85.1256 35.6269 84.3584 34.9672 84.8425C34.9672 84.8425 34.786 84.9105 34.769 84.7944C34.769 84.7944 34.9219 83.7355 33.8659 84.2678C33.8744 84.2819 33.662 84.3839 33.645 84.2763Z" fill="#B50C00"/>
<path d="M39.2254 86.9858C39.2254 86.9858 39.4349 86.077 38.376 86.3374C38.376 86.3374 37.8834 86.8018 38.5742 87.1868L39.3047 87.1302C39.3047 87.1302 39.1801 87.7162 40.4372 87.6964C40.4372 87.6964 40.6071 87.6794 40.658 87.7672C40.658 87.7672 40.6212 88.2797 41.9179 88.0503C41.9685 88.0733 42.0153 88.1039 42.0567 88.1409C42.2839 88.2211 42.5295 88.2341 42.764 88.1784C42.9985 88.1227 43.212 88.0005 43.3789 87.8267C43.4108 87.7927 43.4514 87.7679 43.4962 87.755C43.541 87.742 43.5885 87.7414 43.6337 87.7531C43.7213 87.7993 43.8179 87.8261 43.9168 87.8316C44.0158 87.8371 44.1148 87.8212 44.207 87.7849C44.2992 87.7486 44.3825 87.6928 44.4511 87.6214C44.5198 87.5499 44.5722 87.4644 44.6048 87.3708C44.6048 87.3708 44.6303 87.3057 44.7463 87.3227C44.7463 87.3227 45.3749 87.6058 45.5363 87.1641C45.5617 87.1641 45.692 87.1132 45.7684 87.184C45.7684 87.184 46.3885 87.5407 46.5923 87.0311C46.5923 87.0311 46.7084 86.932 46.7764 87.0311C46.8193 87.0967 46.8761 87.1522 46.9426 87.1937C47.0092 87.2352 47.084 87.2617 47.1619 87.2714C47.2397 87.2811 47.3187 87.2738 47.3935 87.2498C47.4682 87.226 47.5368 87.1861 47.5946 87.133C47.5946 87.133 47.739 87.0764 47.7843 87.167C47.8911 87.2604 48.0236 87.3195 48.1644 87.3366C48.3053 87.3538 48.448 87.3282 48.5742 87.2632C48.5742 87.2632 48.6789 87.2378 48.7016 87.3199C48.7544 87.4639 48.8593 87.5829 48.9957 87.6531C49.132 87.7234 49.2898 87.7399 49.4377 87.6993C49.4377 87.6993 49.5623 87.6851 49.5566 87.7899C49.551 87.8946 49.9473 88.3561 50.1229 88.2882C50.1229 88.2882 50.5419 87.9059 50.5504 87.7219C50.5504 87.7219 50.4683 87.3765 49.7803 87.3793C49.7803 87.3793 49.7407 87.4331 49.7208 87.2746C49.701 87.116 49.7208 86.445 48.9196 86.9914C48.9196 86.9914 48.6733 87.0679 48.6365 86.949C48.6365 86.949 48.2656 86.1534 47.9032 86.6828C47.9032 86.6828 47.6937 86.7083 47.688 86.6347C47.688 86.6347 47.1359 86.1138 46.8386 86.6205C46.8386 86.6205 46.6631 86.7395 46.5697 86.5866C46.5697 86.5866 46.0374 86.1704 45.7203 86.714C45.7203 86.714 45.5334 86.7933 45.5249 86.714C45.5249 86.714 45.0266 86.1477 44.6557 87.0254C44.6557 87.0254 44.4519 87.1443 44.4066 87.0594C44.4066 87.0594 43.8035 86.6092 43.4525 87.368C43.4525 87.368 43.2514 87.4756 43.2146 87.3907C43.1778 87.3057 42.47 87.2519 42.1699 87.6002C42.1699 87.6002 42.0227 87.6964 41.9406 87.6002C41.9406 87.6002 41.414 86.8839 40.7543 87.4275C40.7543 87.4275 40.5674 87.5152 40.5391 87.3991C40.5391 87.3991 40.5986 86.3318 39.5199 86.9688C39.4831 86.966 39.2679 87.0877 39.2254 86.9858Z" fill="#B50C00"/>
<path d="M45.8222 88.7383C45.8222 88.7383 45.91 87.7162 44.8596 87.9824C44.8596 87.9824 44.3924 88.4948 45.1682 88.945C45.423 88.945 45.6778 88.9139 45.9298 88.8912C45.9298 88.8912 45.8873 89.5707 47.2039 89.5198C47.2039 89.5198 47.3794 89.4999 47.4502 89.5962C47.4502 89.5962 47.5181 90.1936 48.846 89.8793C48.9053 89.903 48.9606 89.9354 49.0102 89.9756C49.2489 90.0552 49.5074 90.0531 49.7447 89.9696C49.9821 89.886 50.1849 89.7257 50.3211 89.5141C50.3451 89.4727 50.3816 89.4401 50.4253 89.4208C50.4691 89.4014 50.5178 89.3964 50.5646 89.4065C50.5646 89.4065 51.3432 89.6896 51.4422 88.8714C51.4422 88.8714 51.4422 88.7921 51.5725 88.7978C51.5725 88.7978 52.2973 89.0328 52.3228 88.5146C52.3511 88.5146 52.4643 88.4354 52.5634 88.5146C52.5634 88.5146 53.3024 88.8148 53.3363 88.2061C53.3363 88.2061 53.4185 88.0758 53.5176 88.1664C53.5695 88.2309 53.636 88.2823 53.7115 88.3163C53.787 88.3504 53.8695 88.3661 53.9523 88.3622C54.0351 88.3584 54.1157 88.335 54.1878 88.2941C54.2598 88.2532 54.3212 88.1959 54.3669 88.1268C54.3669 88.1268 54.4887 88.0305 54.5679 88.1268C54.6919 88.2062 54.8385 88.2428 54.9852 88.231C55.1319 88.2193 55.2708 88.1598 55.3805 88.0617C55.4048 88.0475 55.4335 88.0432 55.4608 88.0495C55.4882 88.0558 55.5121 88.0723 55.5277 88.0956C55.5815 88.1806 55.9921 88.6166 56.4026 88.3419C56.4174 88.3357 56.4333 88.3325 56.4494 88.3327C56.4655 88.3329 56.4814 88.3365 56.496 88.3431C56.5106 88.3498 56.5237 88.3594 56.5345 88.3714C56.5452 88.3834 56.5533 88.3974 56.5583 88.4127C56.5951 88.5288 57.1812 88.9223 57.3227 88.8148C57.3227 88.8148 57.5662 88.2825 57.4983 88.09C57.4983 88.09 57.2661 87.7417 56.5979 87.9201C56.5979 87.9201 56.5979 87.988 56.496 87.8182C56.3941 87.6483 56.1591 86.9093 55.6013 87.6851C55.6013 87.6851 55.3918 87.8267 55.3182 87.6851C55.3182 87.6851 54.6614 86.8839 54.5057 87.5464C54.5057 87.5464 54.3103 87.6171 54.2763 87.5464C54.2763 87.5464 53.5629 87.0736 53.4269 87.6908C53.411 87.7135 53.3899 87.7321 53.3652 87.745C53.3406 87.7578 53.3132 87.7645 53.2854 87.7645C53.2576 87.7645 53.2302 87.7578 53.2056 87.745C53.1809 87.7321 53.1597 87.7135 53.1438 87.6908C53.1438 87.6908 52.4955 87.3085 52.3369 87.9739C52.3369 87.9739 52.1727 88.09 52.1387 87.9965C52.1387 87.9965 51.4819 87.4303 51.3601 88.4637C51.3601 88.4637 51.1846 88.6222 51.1167 88.5316C51.1167 88.5316 50.389 88.0928 50.2276 88.9846C50.2276 88.9846 50.0464 89.1234 49.9898 89.0328C49.8052 88.9751 49.6076 88.9745 49.4227 89.0311C49.2378 89.0877 49.0743 89.1988 48.9536 89.3499C48.9536 89.3499 48.8233 89.4688 48.7186 89.3782C48.7186 89.3782 48.0221 88.5939 47.4389 89.231C47.4389 89.231 47.2577 89.3357 47.2095 89.2026C47.2095 89.2026 47.0878 87.9965 46.077 88.7242C46.077 88.7185 45.8703 88.8572 45.8222 88.7383Z" fill="#B50C00"/>
<path d="M52.9796 89.9897C52.9796 89.9897 52.6965 88.9535 51.7339 89.4631C51.7339 89.4631 51.4649 90.0832 52.4105 90.3521C52.6568 90.2757 52.9032 90.1992 53.1467 90.1171C53.1467 90.1171 53.3675 90.8051 54.6387 90.4342C54.6808 90.4143 54.7267 90.404 54.7732 90.404C54.8197 90.404 54.8656 90.4143 54.9077 90.4342C54.9077 90.4342 55.2106 91.0005 56.3828 90.3663C56.4499 90.3743 56.5156 90.3914 56.5781 90.4172C56.5781 90.4172 57.5068 90.488 57.6795 89.6358C57.6863 89.5888 57.7097 89.5458 57.7456 89.5146C57.7814 89.4834 57.8273 89.4661 57.8748 89.466C57.8748 89.466 58.7242 89.5452 58.5317 88.7185C58.5317 88.7185 58.509 88.6421 58.6279 88.6166C58.6279 88.6166 59.4065 88.659 59.2508 88.1409C59.2735 88.1409 59.3584 88.0277 59.4773 88.0701C59.4773 88.0701 60.2899 88.1749 60.1143 87.5718C60.1143 87.5718 60.1483 87.4218 60.2729 87.4841C60.338 87.5331 60.4141 87.5658 60.4945 87.5792C60.575 87.5926 60.6575 87.5864 60.735 87.5611C60.8125 87.5358 60.8828 87.4922 60.9399 87.4339C60.997 87.3757 61.0391 87.3045 61.0628 87.2264C61.0628 87.2264 61.1449 87.1047 61.2525 87.1783C61.3907 87.224 61.5404 87.2209 61.6764 87.1693C61.8125 87.1178 61.9268 87.021 62 86.8952C62.02 86.8756 62.047 86.8647 62.075 86.8647C62.103 86.8647 62.1299 86.8756 62.15 86.8952C62.2293 86.966 62.7644 87.2831 63.0532 86.8952C63.0661 86.885 63.081 86.8777 63.097 86.8736C63.1129 86.8695 63.1295 86.8688 63.1457 86.8714C63.162 86.8741 63.1775 86.8801 63.1913 86.8891C63.2051 86.898 63.2168 86.9097 63.2259 86.9235C63.2967 87.0283 63.9818 87.2547 64.0753 87.116C64.0753 87.116 64.1177 86.5356 63.9903 86.3686C63.9903 86.3686 63.6591 86.0854 63.0956 86.4365C63.0956 86.4365 63.0956 86.5045 62.9682 86.3629C62.8408 86.2213 62.3567 85.5673 62.0821 86.4677C62.0821 86.4677 61.932 86.6573 61.8216 86.5554C61.8216 86.5554 60.9411 85.9439 61.0062 86.629C61.0062 86.629 60.8448 86.7479 60.7882 86.6772C60.7882 86.6772 59.9388 86.394 60.0322 87.0339C60.0241 87.0594 60.01 87.0826 59.991 87.1015C59.9721 87.1204 59.9488 87.1345 59.9233 87.1425C59.8978 87.1506 59.8707 87.1524 59.8443 87.1477C59.8179 87.1431 59.7931 87.1322 59.7718 87.116C59.7718 87.116 59.0215 86.9093 59.0894 87.5973C59.0894 87.5973 58.9705 87.7502 58.9054 87.6681C58.9054 87.6681 58.0759 87.2717 58.3137 88.3221C58.3137 88.3221 58.2004 88.5231 58.1013 88.4524C58.1013 88.4524 57.252 88.206 57.3992 89.1177C57.3992 89.1177 57.2746 89.3017 57.1868 89.2253C57.0991 89.1488 56.3686 89.3357 56.2922 89.7915C56.2736 89.8309 56.2407 89.8617 56.2001 89.8775C56.1595 89.8933 56.1145 89.8929 56.0742 89.8765C56.0742 89.8765 55.1002 89.2791 54.7661 90.0492C54.7661 90.0492 54.6274 90.1936 54.5311 90.0775C54.5311 90.0775 53.9649 88.911 53.2231 89.8765C53.2231 89.9189 53.0702 90.0973 52.9796 89.9897Z" fill="#B50C00"/>
<path d="M60.9835 89.3697C60.9835 89.3697 61.2667 88.9931 61.6149 89.2281C61.6719 89.2608 61.7159 89.3122 61.7391 89.3737C61.7623 89.4352 61.7635 89.5028 61.7423 89.565C61.6885 89.8114 61.2299 90.1879 60.876 89.8227C60.876 89.8227 60.7146 89.7009 60.6155 89.8227C60.6155 89.8227 60.2276 90.1738 60.0351 89.7887C60.0351 89.7887 59.7888 89.4037 59.6613 89.5877C59.6613 89.5877 59.2423 89.8057 59.1687 89.5481C59.1687 89.5481 58.9082 89.4603 59.0215 89.2508C59.0215 89.2508 59.282 88.7978 59.65 88.8855C59.7371 88.9276 59.8056 89.0001 59.8426 89.0894H60.355C60.5011 89.1582 60.6328 89.2543 60.7429 89.3725C60.7429 89.3725 60.9439 89.4235 60.9835 89.3697Z" fill="#B50C00"/>
<path d="M62.7559 89.1885C62.7559 89.1885 62.6823 88.979 62.4105 89.0752C62.4105 89.0752 61.949 89.2564 61.9801 89.5509C61.9968 89.6294 62.0373 89.7009 62.0961 89.7556C62.1548 89.8103 62.229 89.8456 62.3086 89.8567C62.4173 89.887 62.5326 89.8849 62.6402 89.8507C62.7478 89.8165 62.8431 89.7517 62.9145 89.6641C62.9145 89.6641 63.09 89.4178 63.2712 89.4292C63.2712 89.4292 63.8629 89.5254 63.8629 88.9422C63.8629 88.9422 63.8997 88.6845 64.1007 88.7327C64.1007 88.7327 64.8595 88.8346 64.6217 88.073C64.6217 88.073 64.6047 87.8465 64.7859 87.8578C64.7859 87.8578 65.7004 87.8153 65.1483 87.1557C65.1483 87.1557 65.0888 86.915 65.2531 86.898C65.2531 86.898 65.774 87.0367 65.6409 86.2128C65.6409 86.2128 65.6098 86.0515 65.7655 86.0458C65.7655 86.0458 66.4563 86.1109 66.4875 85.6777C66.4875 85.6777 66.5668 84.9275 65.9779 85.2163C65.8752 85.2352 65.7812 85.2863 65.7095 85.3621C65.6377 85.4379 65.5919 85.5346 65.5786 85.6381C65.5786 85.6381 65.5786 85.9722 65.5617 86.0033C65.5578 86.0193 65.5507 86.0343 65.5407 86.0474C65.5308 86.0605 65.5182 86.0713 65.5038 86.0793C65.4895 86.0873 65.4736 86.0922 65.4572 86.0938C65.4409 86.0953 65.4244 86.0934 65.4088 86.0883C65.4088 86.0883 64.7604 86.0203 64.902 86.8555C64.902 86.8555 64.9926 87.0537 64.8397 87.082C64.8397 87.082 64.3187 86.9858 64.415 87.7021C64.415 87.7021 64.4773 87.8748 64.3499 87.9286C64.2089 87.9598 64.0808 88.0335 63.9831 88.1399C63.8854 88.2462 63.8227 88.38 63.8035 88.5231C63.8035 88.5231 63.761 88.6364 63.7015 88.5826C63.6214 88.5604 63.5376 88.5553 63.4554 88.5676C63.3731 88.5798 63.2944 88.6092 63.2243 88.6537C63.1541 88.6983 63.0941 88.757 63.048 88.8262C63.002 88.8954 62.9709 88.9735 62.9569 89.0554C62.9388 89.0939 62.9105 89.1266 62.875 89.1501C62.8396 89.1736 62.7984 89.1868 62.7559 89.1885Z" fill="#B50C00"/>
<path d="M66.7989 87.5435C66.7989 87.5435 66.3318 87.2604 66.06 87.6398C66.06 87.6398 65.8986 88.2429 66.445 88.257C66.9915 88.2712 66.8612 87.9569 66.7989 87.5435Z" fill="#B50C00"/>
<path d="M67.6794 87.4473C67.6794 87.4473 67.2321 87.7814 67.6171 88.1154C67.6171 88.1154 68.0985 88.274 68.2259 88.0192C68.2259 88.0192 68.4524 87.5266 68.0673 87.368L67.6794 87.4473Z" fill="#B50C00"/>
<path d="M68.2429 84.6189C68.1897 84.5519 68.1204 84.4996 68.0414 84.4668C67.9624 84.4341 67.8764 84.4219 67.7915 84.4316C67.7065 84.4412 67.6254 84.4723 67.5558 84.5219C67.4862 84.5715 67.4303 84.638 67.3935 84.7151C67.3935 84.7151 67.1868 85.2814 67.8606 85.2077C67.8606 85.2077 68.2627 85.0634 68.3108 84.8878C68.3108 84.8878 68.4863 84.8567 68.5515 84.936C68.5515 84.936 69.2394 85.3805 69.2876 84.7774C69.2876 84.7774 69.3357 84.2112 68.5996 84.5084C68.5968 84.5084 68.291 84.6811 68.2429 84.6189Z" fill="#B50C00"/>
<path d="M70.4399 85.1908C70.407 85.1463 70.3857 85.0943 70.3779 85.0395C70.3701 84.9848 70.376 84.9289 70.3951 84.877C70.4141 84.8251 70.4458 84.7787 70.4873 84.7421C70.5287 84.7054 70.5786 84.6796 70.6324 84.667C70.6324 84.667 71.3232 84.5226 71.1987 85.1285C71.1987 85.1285 70.8787 85.6693 70.7513 85.6947C70.7513 85.6947 70.9439 86.3941 70.7825 86.5215C70.7825 86.5215 70.4144 86.7281 70.2842 86.6319C70.2605 86.6575 70.2426 86.688 70.2318 86.7213C70.2211 86.7545 70.2177 86.7897 70.2219 86.8244C70.2219 86.8244 70.27 87.4756 69.7066 87.4275C69.6105 87.4035 69.5252 87.3481 69.4642 87.2702C69.4032 87.1922 69.3699 87.0961 69.3697 86.9971C69.3936 86.8821 69.456 86.7788 69.5466 86.7041C69.6372 86.6295 69.7506 86.588 69.868 86.5866C69.868 86.5866 70.0435 86.6658 70.0775 86.3629C70.0563 86.3036 70.0485 86.2404 70.0546 86.1778C70.0607 86.1151 70.0805 86.0546 70.1127 86.0005C70.1449 85.9464 70.1886 85.9001 70.2408 85.8648C70.2929 85.8296 70.3522 85.8063 70.4144 85.7967C70.4144 85.7967 70.5107 85.7825 70.5107 85.5447C70.5227 85.4223 70.4981 85.2991 70.4399 85.1908Z" fill="#B50C00"/>
<path d="M72.8804 85.0011C72.8097 85.0011 72.3142 84.5877 72.0933 85.2219C72.0933 85.2219 72.3991 86.0713 72.8974 85.3352C72.8974 85.3352 73.1381 85.2531 73.2004 85.3352C73.2627 85.4173 73.6987 85.7938 73.8742 85.1908C74.0497 84.5877 73.7779 84.7944 73.4099 84.7293C73.0418 84.6642 73.4099 84.9841 72.8804 85.0011Z" fill="#B50C00"/>
<path d="M71.6602 82.7757C71.6602 82.7757 70.9863 82.4586 70.9382 83.1098C70.9382 83.1098 71.0033 83.6506 71.4195 83.3929C71.8357 83.1353 71.7564 83.0305 71.6602 82.7757Z" fill="#B50C00"/>
<path d="M72.753 81.5838C72.753 81.5838 71.8527 81.4082 72.351 82.2831C72.351 82.2831 72.8153 82.4728 72.9767 81.8839C72.9767 81.8839 73.0248 81.7423 73.2004 81.8074C73.2004 81.8074 73.8119 81.8697 73.8119 81.4252C73.8119 81.4252 73.7638 80.9326 73.4099 80.9949C73.4099 80.9949 73.039 80.8675 72.9767 81.4734C72.9767 81.4734 72.8012 81.7083 72.753 81.5838Z" fill="#B50C00"/>
<path d="M75.4654 83.5713C75.4654 83.5713 75.8986 83.2683 76.0316 83.6166C76.0316 83.6166 76.2723 84.2055 75.6296 84.1432C74.9869 84.0809 75.4314 83.6024 75.4654 83.5713Z" fill="#B50C00"/>
<path d="M77.0509 41.0545C77.0643 43.0127 76.4959 44.9308 75.4178 46.5656C74.3396 48.2004 72.8003 49.4782 70.9949 50.2369C69.1896 50.9956 67.1996 51.2011 65.2773 50.8274C63.355 50.4536 61.5871 49.5174 60.1976 48.1374C58.8081 46.7575 57.8597 44.996 57.4727 43.0763C57.0857 41.1567 57.2774 39.1653 58.0237 37.3548C58.77 35.5443 60.0371 33.9962 61.6644 32.9068C63.2917 31.8174 65.2059 31.2358 67.1641 31.2357C68.458 31.2312 69.7401 31.4817 70.9372 31.9727C72.1343 32.4637 73.223 33.1857 74.141 34.0975C75.0591 35.0092 75.7886 36.0929 76.2879 37.2866C76.7871 38.4802 77.0464 39.7606 77.0509 41.0545Z" fill="#B50C00"/>
<path d="M81.6545 56.649C81.6623 57.8781 81.305 59.0818 80.6279 60.1076C79.9507 61.1334 78.9842 61.935 77.8509 62.4108C76.7176 62.8866 75.4686 63.0152 74.2621 62.7802C73.0557 62.5453 71.9461 61.9573 71.0742 61.091C70.2023 60.2247 69.6073 59.1189 69.3646 57.914C69.1219 56.7091 69.2425 55.4592 69.711 54.3229C70.1795 53.1866 70.9749 52.2149 71.9964 51.5312C73.0178 50.8475 74.2192 50.4825 75.4484 50.4825C76.2609 50.4795 77.066 50.6367 77.8177 50.9451C78.5694 51.2534 79.253 51.7069 79.8294 52.2796C80.4057 52.8523 80.8636 53.5329 81.1768 54.2826C81.4899 55.0324 81.6522 55.8365 81.6545 56.649Z" fill="#B50C00"/>
<path d="M77.6539 67.5521C77.659 68.3069 77.4398 69.0462 77.0241 69.6762C76.6084 70.3062 76.015 70.7986 75.3192 71.091C74.6233 71.3833 73.8562 71.4624 73.1153 71.3183C72.3744 71.1741 71.693 70.8132 71.1575 70.2813C70.622 69.7494 70.2565 69.0704 70.1074 68.3305C69.9583 67.5905 70.0322 66.823 70.3199 66.1252C70.6076 65.4273 71.096 64.8307 71.7232 64.4108C72.3505 63.9909 73.0883 63.7667 73.8431 63.7667C74.8503 63.7637 75.8175 64.1608 76.5321 64.8706C77.2467 65.5804 77.6502 66.5449 77.6539 67.5521Z" fill="#B50C00"/>
<path d="M64.6274 28.8376C60.9593 27.1447 56.9582 26.2962 52.9187 26.3547C48.8792 26.4131 44.9044 27.3771 41.2868 29.1755C37.6693 30.9739 34.5014 33.561 32.0163 36.7462C29.5313 39.9314 27.7925 43.6335 26.928 47.5798C26.0635 51.5261 26.0953 55.6161 27.0211 59.5484C27.947 63.4808 29.7432 67.1554 32.2776 70.3015C34.8119 73.4476 38.0197 75.985 41.6648 77.7269C45.3099 79.4688 49.2993 80.3708 53.3392 80.3663C53.9224 80.3663 54.4972 80.3493 55.0719 80.3125C55.0719 80.3125 71.3091 79.0838 68.0249 62.7418C68.0249 62.7418 67.2491 58.8064 59.8142 52.7305C59.8142 52.7305 53.1608 46.9973 54.4575 40.0692C54.4575 40.0692 55.9269 30.7431 64.3046 29.0273L64.7378 28.9622L64.8708 28.9396L64.6274 28.8376Z" fill="#B50C00"/>
<path d="M82.6581 87.3041C82.6581 86.9759 82.7336 86.6713 82.8847 86.3902C83.0375 86.1091 83.2479 85.8881 83.516 85.7272C83.7857 85.5648 84.0766 85.4835 84.3885 85.4835C84.7005 85.4835 84.9905 85.5648 85.2586 85.7272C85.5267 85.8881 85.7363 86.1091 85.8874 86.3902C86.0402 86.6713 86.1165 86.9759 86.1165 87.3041C86.1165 87.6242 86.0434 87.924 85.8972 88.2035C85.7509 88.483 85.543 88.708 85.2732 88.8786C85.0051 89.0476 84.7102 89.1321 84.3885 89.1321C84.0684 89.1321 83.7735 89.0484 83.5038 88.8811C83.2357 88.7121 83.0277 88.4878 82.8799 88.2084C82.732 87.9289 82.6581 87.6275 82.6581 87.3041ZM82.9384 87.3041C82.9384 87.5836 83.0033 87.8428 83.1333 88.0816C83.2633 88.3189 83.4396 88.5049 83.6622 88.6398C83.8864 88.7746 84.1285 88.8421 84.3885 88.8421C84.6501 88.8421 84.893 88.7738 85.1173 88.6373C85.3415 88.4992 85.517 88.3124 85.6437 88.0768C85.7721 87.8412 85.8363 87.5836 85.8363 87.3041C85.8363 87.0263 85.7721 86.7704 85.6437 86.5364C85.517 86.3008 85.3415 86.1156 85.1173 85.9807C84.893 85.8442 84.6501 85.776 84.3885 85.776C84.1285 85.776 83.8864 85.8434 83.6622 85.9783C83.438 86.1115 83.2609 86.2968 83.1309 86.534C83.0025 86.7712 82.9384 87.0279 82.9384 87.3041ZM84.0302 87.4869V88.3107H83.6866V86.2415H84.3593C84.6079 86.2415 84.8004 86.2951 84.9369 86.4024C85.075 86.508 85.1441 86.6623 85.1441 86.8654C85.1441 87.0653 85.0401 87.218 84.8321 87.3236C85.0303 87.4049 85.1303 87.5706 85.1319 87.8208V87.9695C85.1319 88.1093 85.1457 88.21 85.1733 88.2717V88.3107H84.8199C84.7972 88.2522 84.7858 88.1482 84.7858 87.9988C84.7858 87.8477 84.7834 87.7583 84.7785 87.7307C84.7525 87.5747 84.6461 87.4934 84.4592 87.4869H84.0302ZM84.0302 87.175H84.4105C84.5274 87.1717 84.6217 87.1433 84.6932 87.0897C84.7647 87.036 84.8004 86.9654 84.8004 86.8776C84.8004 86.759 84.7687 86.6753 84.7054 86.6266C84.642 86.5762 84.5291 86.551 84.3666 86.551H84.0302V87.175Z" fill="#B50C00"/>
</svg>
