<svg width="48" height="48" viewBox="0 0 48 48" fill="none" xmlns="http://www.w3.org/2000/svg">
<path d="M3 17.9333C3 12.7062 3 10.0926 4.01727 8.09609C4.91209 6.33991 6.33991 4.91209 8.09609 4.01727C10.0926 3 12.7062 3 17.9333 3H30.0667C35.2938 3 37.9074 3 39.9039 4.01727C41.6601 4.91209 43.0879 6.33991 43.9827 8.09609C45 10.0926 45 12.7062 45 17.9333V30.0667C45 35.2938 45 37.9074 43.9827 39.9039C43.0879 41.6601 41.6601 43.0879 39.9039 43.9827C37.9074 45 35.2938 45 30.0667 45H17.9333C12.7062 45 10.0926 45 8.09609 43.9827C6.33991 43.0879 4.91209 41.6601 4.01727 39.9039C3 37.9074 3 35.2938 3 30.0667V17.9333Z" fill="url(#paint0_linear_0_5368)"/>
<path d="M9.46711 17.268C9 18.1566 9 19.3198 9 21.6462V26.3538C9 28.6802 9 29.8434 9.46711 30.732C9.878 31.5136 10.5336 32.149 11.34 32.5473C12.2568 33 13.4569 33 15.8571 33H23.0952C25.4955 33 26.6956 33 27.6123 32.5473C28.4187 32.149 29.0744 31.5136 29.4853 30.732C29.9524 29.8434 29.9524 28.6802 29.9524 26.3538V21.6462C29.9524 19.3198 29.9524 18.1566 29.4853 17.268C29.0744 16.4864 28.4187 15.851 27.6123 15.4527C26.6956 15 25.4955 15 23.0952 15H15.8571C13.4569 15 12.2568 15 11.34 15.4527C10.5336 15.851 9.878 16.4864 9.46711 17.268Z" fill="white"/>
<path d="M31.5859 20.1004L36.2627 16.3008C37.3473 15.4196 39 16.1671 39 17.5388V30.5001C39 31.8653 37.3611 32.6149 36.2738 31.7471L31.5987 28.0154C31.1593 27.6647 30.9048 27.1419 30.9048 26.5903V21.5153C30.9048 20.9692 31.1542 20.4512 31.5859 20.1004Z" fill="white"/>
<defs>
<linearGradient id="paint0_linear_0_5368" x1="24" y1="3" x2="24" y2="45" gradientUnits="userSpaceOnUse">
<stop stop-color="#61F677"/>
<stop offset="1" stop-color="#10BC2B"/>
</linearGradient>
</defs>
</svg>
