<svg width="184" height="65" viewBox="0 0 184 65" fill="none" xmlns="http://www.w3.org/2000/svg">
<path d="M51.0186 40.7531C50.9337 40.7531 50.8046 40.745 50.6721 40.7008C50.5581 40.6671 50.2929 40.5915 49.9359 39.7146C49.5173 38.6668 48.6253 36.3386 48.0915 34.9466C47.8787 34.3907 47.7252 33.9871 47.6833 33.8825C47.5717 33.5906 47.5042 33.4394 47.3309 33.4394C47.1507 33.4394 47.0867 33.6185 46.9797 33.9139L44.7818 39.9216C44.6097 40.4019 44.4399 40.6892 44.0922 40.7345C44.0201 40.7438 43.8921 40.7531 43.8293 40.7531C43.6735 40.7531 43.5921 40.8566 43.5921 40.9601C43.5921 41.1101 43.7049 41.1869 43.9259 41.1869C44.234 41.1869 44.5771 41.1729 44.8016 41.1648C44.9062 41.1613 44.9853 41.1567 45.019 41.1567C45.0609 41.1567 45.1516 41.1636 45.2598 41.1671C45.4272 41.1764 45.6342 41.1869 45.7738 41.1869C46.0471 41.1869 46.068 41.0125 46.068 40.9601C46.068 40.8648 46.004 40.7531 45.8226 40.7531H45.7261C45.654 40.7531 45.5075 40.7206 45.5075 40.6205C45.5075 40.4647 45.5528 40.2484 45.6342 40.0205L46.2075 38.3319H48.2124L49.0974 40.6729C49.1126 40.7124 49.1137 40.7368 49.1126 40.7473C49.0195 40.781 48.9614 40.8566 48.9614 40.9508C48.9614 41.145 49.1672 41.1555 49.3475 41.166L49.3975 41.1671C50.0673 41.1869 50.7756 41.1869 50.9209 41.1869C51.2314 41.1869 51.264 41.0287 51.264 40.9601C51.264 40.9252 51.2535 40.7531 51.0186 40.7531ZM47.9775 37.6864H46.432L47.1739 35.4048L47.9775 37.6864ZM61.2222 40.7531C61.1327 40.7531 60.8966 40.7531 60.6396 40.6729C60.3314 40.5729 60.2617 40.1554 60.2186 39.7728L59.5709 33.8325C59.5581 33.7057 59.5302 33.4382 59.3057 33.4382C59.1324 33.4382 59.0603 33.6022 59.0255 33.679L56.3135 39.4716L53.4922 33.6708C53.4608 33.5999 53.3864 33.4382 53.2108 33.4382C53.1003 33.4382 52.9758 33.5185 52.9549 33.7441L52.2595 40.0542L52.2548 40.0926C52.2153 40.4647 52.1792 40.6915 51.9908 40.7275C51.8606 40.7531 51.8024 40.7531 51.7303 40.7531C51.5873 40.7531 51.4838 40.8357 51.4838 40.9508C51.4838 41.0218 51.514 41.1857 51.7978 41.1857C51.9653 41.1857 52.2153 41.1741 52.399 41.166C52.5002 41.1613 52.5793 41.1567 52.6095 41.1567C52.6339 41.1567 52.6956 41.1601 52.7793 41.1648C52.9665 41.1729 53.2631 41.1857 53.5108 41.1857C53.7771 41.1857 53.8341 41.0578 53.8341 40.9508C53.8341 40.8392 53.7341 40.7531 53.6073 40.7531C53.5585 40.7531 53.4247 40.7426 53.2689 40.7089C53.1922 40.6915 53.1375 40.6275 53.1375 40.5531C53.1375 40.3914 53.1375 40.2217 53.1468 40.074L53.4899 36.0851C53.8387 36.8468 54.5005 38.2598 54.5667 38.3958L54.6691 38.5994C54.9168 39.0959 55.4959 40.2565 55.7006 40.6426L55.7204 40.681C55.9227 41.0648 55.9774 41.1671 56.1321 41.1671C56.303 41.1671 56.3565 41.0543 56.5182 40.7124L58.7487 35.9793L59.1673 40.4822C59.179 40.581 59.1778 40.6543 59.1731 40.6938C59.0696 40.7473 59.0603 40.8473 59.0603 40.8834C59.0603 41.0927 59.3057 41.1148 59.4674 41.1276C59.8407 41.1578 60.8931 41.1857 61.0966 41.1857C61.4223 41.1857 61.449 41.0055 61.449 40.9508C61.449 40.9299 61.442 40.7531 61.2222 40.7531ZM66.3287 39.582C66.145 39.582 66.1101 39.7681 66.0938 39.8518C66.0275 40.2461 65.917 40.3647 65.7472 40.4356C65.524 40.531 65.1041 40.531 64.8774 40.531C63.9621 40.531 63.9284 40.4275 63.904 39.8797C63.897 39.7367 63.9005 39.1134 63.9028 38.6587L63.904 37.462C64.1959 37.4667 64.9716 37.4864 65.1914 37.5085C65.5088 37.5422 65.5449 37.6655 65.567 37.7446C65.5995 37.8481 65.5995 37.9272 65.5995 38.019C65.5995 38.1586 65.6891 38.2551 65.8158 38.2551C66.0333 38.2551 66.0333 38.0039 66.0333 37.9225C66.0333 37.8597 66.0519 37.5039 66.0717 37.3166C66.0891 37.1236 66.1124 36.9898 66.1287 36.9015C66.1426 36.834 66.1496 36.7887 66.1496 36.7607C66.1496 36.6049 66.0508 36.5351 65.9519 36.5351C65.8472 36.5351 65.7833 36.6084 65.6961 36.7084C65.6472 36.7631 65.546 36.7782 65.339 36.7956C65.1879 36.8096 64.5157 36.8142 63.904 36.8154L63.9051 34.25C64.2063 34.2523 64.9937 34.2628 65.1227 34.2779C65.6077 34.3302 65.6484 34.4256 65.6879 34.5151C65.7228 34.5977 65.7344 34.7349 65.7344 34.8058C65.7344 35.0675 65.924 35.0815 65.9612 35.0815C66.0124 35.0815 66.1345 35.0594 66.1752 34.8489C66.1892 34.7721 66.2031 34.5593 66.2124 34.393C66.2182 34.3081 66.2229 34.2348 66.2252 34.2034C66.2415 34.0511 66.2647 33.9499 66.281 33.8802C66.2938 33.8197 66.3043 33.7766 66.3043 33.7313C66.3043 33.501 66.1345 33.4964 66.1159 33.4964C66.0519 33.4964 66.0042 33.5208 65.9449 33.5499C65.8903 33.5627 65.7542 33.5824 65.5577 33.5929C65.3856 33.601 64.0877 33.6034 63.3574 33.6034L62.9573 33.5836C62.7434 33.5743 62.4805 33.5743 62.2549 33.5743C61.9909 33.5743 61.9514 33.7162 61.9514 33.7999C61.9514 33.9174 62.0514 34.0069 62.177 34.0069C62.2712 34.0069 62.4166 34.0174 62.4747 34.0325C62.7038 34.0813 62.7573 34.1546 62.7748 34.4477C62.7922 34.7535 62.7922 35.0245 62.7922 36.5282V38.2319C62.7922 39.1343 62.7922 39.9158 62.7469 40.3112C62.7073 40.595 62.6643 40.7008 62.5782 40.7171C62.4875 40.7392 62.3875 40.7531 62.3235 40.7531C62.1747 40.7531 62.0968 40.8566 62.0968 40.9601C62.0968 41.045 62.1351 41.1869 62.4003 41.1869C62.4701 41.1869 62.5561 41.1834 62.6492 41.1776C62.7515 41.1729 62.8608 41.1671 62.969 41.1671C63.169 41.1567 63.3295 41.1567 63.3493 41.1567C63.4923 41.1567 63.7226 41.1671 64.0993 41.1869L64.2784 41.1927C64.6401 41.202 65.1193 41.216 65.7391 41.216C66.1182 41.216 66.3078 41.216 66.4055 40.8496C66.4566 40.6426 66.5357 39.9739 66.5357 39.8763C66.5357 39.6332 66.4229 39.582 66.3287 39.582ZM77.815 40.7531C77.7406 40.7531 77.5359 40.7368 77.3987 40.7136C77.2336 40.6938 77.1801 40.6077 77.1498 40.3135C77.1033 39.9158 77.1033 39.1343 77.1033 38.2307V36.5282C77.1033 35.0245 77.1033 34.7535 77.1219 34.4477C77.1417 34.0988 77.2243 34.0581 77.3545 34.0337C77.4592 34.0162 77.5115 34.0069 77.5732 34.0069C77.6999 34.0069 77.7999 33.9162 77.7999 33.7999C77.7999 33.715 77.7604 33.5743 77.4952 33.5743C77.2871 33.5743 76.9173 33.5894 76.7033 33.5976C76.6195 33.601 76.5614 33.6034 76.5474 33.6034C76.5335 33.6034 76.4777 33.601 76.3974 33.5976C76.1834 33.5894 75.8008 33.5743 75.5694 33.5743C75.3054 33.5743 75.2659 33.715 75.2659 33.7999C75.2659 33.9162 75.3659 34.0069 75.4927 34.0069C75.545 34.0069 75.659 34.0139 75.7601 34.0418C75.852 34.0627 75.9532 34.1127 75.973 34.4477C75.9904 34.7535 75.9904 35.0245 75.9904 36.5282V38.2307C75.9904 39.1343 75.9904 39.9158 75.945 40.31C75.9055 40.595 75.8625 40.7008 75.7764 40.7171C75.6857 40.7392 75.5857 40.7531 75.5217 40.7531H75.1868C75.1321 40.7531 75.0054 40.7531 74.8333 40.7252C74.5902 40.6868 74.2134 40.5752 73.7378 40.074C73.2517 39.5541 72.683 38.8238 72.0248 37.9807L71.8178 37.7155C72.5807 36.9805 72.9365 36.263 72.9365 35.4641C72.9365 34.743 72.4772 34.2209 72.2074 34.0278C71.6503 33.6278 70.9549 33.5743 70.349 33.5743C70.1594 33.5743 69.7989 33.5848 69.5291 33.5941C69.3721 33.5987 69.2465 33.6034 69.207 33.6034C69.1953 33.6034 69.15 33.601 69.0814 33.5987C68.8686 33.5906 68.4418 33.5743 68.1138 33.5743C67.8487 33.5743 67.8103 33.715 67.8103 33.7999C67.8103 33.9162 67.9091 34.0069 68.0359 34.0069C68.1301 34.0069 68.2743 34.0174 68.3336 34.0313C68.5627 34.0813 68.615 34.1546 68.6325 34.4477C68.6511 34.7535 68.6511 35.0245 68.6511 36.5282V38.2307C68.6511 39.1343 68.6511 39.9158 68.6046 40.31C68.5662 40.595 68.5243 40.7008 68.4383 40.7171C68.3464 40.7392 68.2452 40.7531 68.1801 40.7531C68.0324 40.7531 67.9545 40.8566 67.9545 40.9601C67.9545 41.045 67.994 41.1857 68.258 41.1857C68.5057 41.1857 68.979 41.166 69.1291 41.1601L69.1686 41.1567C69.1791 41.1567 69.2186 41.159 69.2779 41.1613C69.4896 41.1694 69.9466 41.1857 70.3583 41.1857C70.6479 41.1857 70.663 40.9985 70.663 40.9601C70.663 40.8566 70.5851 40.7531 70.4362 40.7531C70.3629 40.7531 70.1559 40.7368 70.0199 40.7136C69.8547 40.6938 69.8012 40.6077 69.771 40.3135C69.7245 39.9158 69.7245 39.1343 69.7245 38.2307V38.0725L70.8397 38.09C70.9223 38.1993 71.056 38.3807 71.213 38.5982C71.4177 38.8808 71.6643 39.2204 71.8945 39.5216L72.0143 39.6809C72.5086 40.3333 72.8353 40.7647 73.2482 40.9845C73.5319 41.138 73.8006 41.1857 74.3541 41.1857H75.0414H75.5985C75.8067 41.1857 76.1753 41.1718 76.3893 41.1625C76.4742 41.1601 76.5323 41.1567 76.5474 41.1567C76.5579 41.1567 76.5974 41.159 76.6568 41.1613C76.8684 41.1694 77.3266 41.1857 77.7371 41.1857C78.0267 41.1857 78.0418 40.9985 78.0418 40.9601C78.0418 40.8566 77.9639 40.7531 77.815 40.7531ZM69.7245 34.2255C69.8187 34.2058 70.0373 34.1802 70.3001 34.1802C71.2549 34.1802 71.8248 34.8489 71.8248 35.9665C71.8248 36.5979 71.6282 37.1096 71.2991 37.3352C71.0968 37.4748 70.8363 37.4922 70.6583 37.4922C70.2292 37.4922 69.8268 37.4225 69.7245 37.3701V34.2255ZM85.3195 39.1366C85.1241 39.1366 85.0892 39.332 85.0764 39.4064C85.0508 39.5576 84.9346 39.9542 84.7566 40.1391C84.4043 40.5019 83.8728 40.5775 83.182 40.5775C81.0887 40.5775 79.8374 38.8529 79.8374 37.1852C79.8374 36.3816 79.9351 35.4664 80.6642 34.7675C81.1236 34.3209 81.8167 34.1023 82.7854 34.1023C83.6356 34.1023 84.3333 34.3709 84.624 34.6198C84.8357 34.7989 84.9776 35.1501 84.9776 35.4931C84.9776 35.5978 84.9776 35.8432 85.2044 35.8432C85.416 35.8432 85.4335 35.6048 85.4404 35.5013C85.4439 35.442 85.4463 35.3164 85.4486 35.1675C85.4532 34.9547 85.4567 34.693 85.4683 34.5058C85.48 34.2976 85.4963 34.1755 85.5056 34.0941C85.5137 34.0313 85.5172 33.9883 85.5172 33.9534C85.5172 33.8674 85.4846 33.7208 85.252 33.6987C84.9555 33.6801 84.6496 33.6231 84.2821 33.5545C83.6983 33.4487 83.0878 33.4382 82.8529 33.4382C81.5213 33.4382 80.5212 33.7906 79.7967 34.5163C78.9652 35.3466 78.6686 36.4793 78.6686 37.2631C78.6686 38.5098 79.0792 39.5111 79.8886 40.2379C80.7108 40.9764 81.7586 41.3206 83.182 41.3206C83.7681 41.3206 84.5485 41.2602 84.9834 41.0869C85.1997 40.9904 85.2462 40.938 85.3183 40.7112C85.4172 40.374 85.537 39.5239 85.537 39.4309C85.5358 39.1494 85.3544 39.1366 85.3195 39.1366ZM93.1647 40.7531C93.0774 40.7531 92.9507 40.745 92.8193 40.7008C92.7041 40.6671 92.439 40.5915 92.0831 39.7146C91.6703 38.6854 90.7911 36.3921 90.2666 35.021C90.0375 34.4267 89.8712 33.9918 89.8282 33.8825C89.7177 33.5906 89.6491 33.4394 89.4758 33.4394C89.2967 33.4394 89.2328 33.6162 89.1235 33.9139L86.9267 39.9216C86.7546 40.4019 86.5848 40.6892 86.2382 40.7345C86.1649 40.7438 86.037 40.7531 85.9742 40.7531C85.8195 40.7531 85.7393 40.8566 85.7393 40.9601C85.7393 41.1101 85.8498 41.1869 86.0707 41.1869C86.3789 41.1869 86.7232 41.1729 86.9488 41.1648C87.0523 41.1613 87.1313 41.1567 87.1651 41.1567C87.2058 41.1567 87.2976 41.1636 87.4046 41.1671C87.5721 41.1764 87.7791 41.1869 87.9198 41.1869C88.1931 41.1869 88.214 41.0125 88.214 40.9601C88.214 40.8648 88.1501 40.7531 87.9675 40.7531H87.871C87.8 40.7531 87.6523 40.7206 87.6523 40.6205C87.6523 40.4635 87.6989 40.2461 87.7814 40.0205L88.3524 38.3319H90.3585L91.2447 40.6717C91.2586 40.7113 91.2586 40.7368 91.2586 40.7473C91.1656 40.781 91.1074 40.8566 91.1074 40.9508C91.1074 41.145 91.3133 41.1555 91.4924 41.166L91.5424 41.1671C92.2134 41.1869 92.9228 41.1869 93.0681 41.1869C93.3763 41.1869 93.41 41.0287 93.41 40.9601C93.41 40.9252 93.3984 40.7531 93.1647 40.7531ZM90.1224 37.6864H88.5769L89.3212 35.4048L90.1224 37.6864ZM101.446 33.5743C101.182 33.5743 100.951 33.5859 100.794 33.5952C100.716 33.5987 100.657 33.6034 100.623 33.6034C100.589 33.6034 100.517 33.5987 100.42 33.5964C100.218 33.5871 99.912 33.5743 99.6178 33.5743C99.5236 33.5743 99.2748 33.5743 99.2748 33.7894C99.2748 33.922 99.3643 34.0069 99.5004 34.0069C99.569 34.0069 99.7806 34.0162 99.9365 34.0511C100.114 34.0976 100.192 34.1837 100.203 34.8291L100.3 39.3529C100.145 39.1843 99.9446 38.9668 99.7213 38.7191C99.2852 38.2412 98.7514 37.6562 98.2467 37.1131C96.7837 35.5478 95.3173 33.9616 95.1638 33.7918C95.1393 33.7662 95.1126 33.7359 95.0824 33.7034C94.9347 33.5394 94.8381 33.4394 94.7195 33.4394C94.4648 33.4394 94.4648 33.7592 94.4648 34.0709L94.4544 39.6158C94.4544 40.4077 94.4125 40.6612 94.2671 40.7019C94.1532 40.7392 94.0066 40.7531 93.9159 40.7531C93.7601 40.7531 93.6903 40.8601 93.6903 40.9601C93.6903 41.0636 93.7427 41.1857 93.995 41.1857C94.2974 41.1857 94.5858 41.1729 94.7649 41.1648C94.9091 41.1555 94.9184 41.1567 95.0591 41.1625C95.2394 41.1718 95.5522 41.1857 95.9499 41.1857C96.2162 41.1857 96.272 41.0636 96.272 40.9601C96.272 40.8601 96.2023 40.7531 96.0464 40.7531C95.9557 40.7531 95.7603 40.7415 95.6045 40.7008C95.4684 40.6601 95.3556 40.5601 95.3336 39.7169L95.2196 35.4908C95.6859 36.0107 96.5604 36.9794 97.4757 37.9656C98.4735 39.0389 99.8899 40.4868 100.005 40.5903C100.583 41.1706 100.677 41.2532 100.817 41.2532C101.053 41.2532 101.053 41.059 101.053 40.4182L101.071 34.7489C101.071 34.1162 101.134 34.0697 101.316 34.0313C101.416 34.0069 101.469 34.0069 101.513 34.0069C101.681 34.0069 101.768 33.8976 101.768 33.7894C101.768 33.5743 101.526 33.5743 101.446 33.5743ZM112.575 40.7531C112.49 40.7531 112.362 40.745 112.23 40.7008C112.117 40.6671 111.852 40.5915 111.496 39.7146C111.086 38.6889 110.209 36.4026 109.685 35.0373C109.454 34.4337 109.284 33.9918 109.241 33.8825C109.129 33.5906 109.063 33.4394 108.889 33.4394C108.709 33.4394 108.643 33.6162 108.536 33.9139L106.341 39.9216C106.166 40.4019 105.998 40.6892 105.65 40.7345C105.578 40.7438 105.451 40.7531 105.386 40.7531C105.231 40.7531 105.152 40.8566 105.152 40.9601C105.152 41.1101 105.263 41.1869 105.485 41.1869C105.793 41.1869 106.136 41.1729 106.359 41.1648C106.464 41.1613 106.543 41.1567 106.577 41.1567C106.62 41.1567 106.709 41.1636 106.816 41.1671C106.985 41.1764 107.192 41.1869 107.33 41.1869C107.606 41.1869 107.626 41.0125 107.626 40.9601C107.626 40.8648 107.562 40.7531 107.379 40.7531H107.283C107.213 40.7531 107.064 40.7206 107.064 40.6205C107.064 40.4635 107.111 40.2461 107.193 40.0205L107.765 38.3319H109.77L110.656 40.6717C110.672 40.7113 110.672 40.7368 110.669 40.7473C110.577 40.781 110.522 40.8566 110.522 40.9508C110.522 41.145 110.725 41.1555 110.905 41.166L110.955 41.1671C111.626 41.1869 112.333 41.1869 112.479 41.1869C112.788 41.1869 112.822 41.0287 112.822 40.9601C112.822 40.9252 112.81 40.7531 112.575 40.7531ZM109.534 37.6864H107.99L108.734 35.4048L109.534 37.6864ZM119.188 39.1366C118.991 39.1366 118.956 39.332 118.944 39.4064C118.918 39.5576 118.802 39.9542 118.625 40.1391C118.271 40.5019 117.74 40.5775 117.049 40.5775C114.957 40.5775 113.704 38.8529 113.704 37.1852C113.704 36.3816 113.804 35.4664 114.53 34.7675C114.992 34.3209 115.685 34.1023 116.653 34.1023C117.501 34.1023 118.202 34.3709 118.492 34.6198C118.703 34.7989 118.846 35.1501 118.846 35.4931C118.846 35.5978 118.846 35.8432 119.071 35.8432C119.284 35.8432 119.299 35.6048 119.308 35.5013C119.312 35.4431 119.313 35.3234 119.316 35.1803C119.32 34.9663 119.325 34.6965 119.337 34.5058C119.348 34.2965 119.363 34.172 119.374 34.0906C119.381 34.0302 119.384 33.9883 119.384 33.9534C119.384 33.8674 119.352 33.7208 119.118 33.6987C118.823 33.6801 118.517 33.6231 118.149 33.5545C117.564 33.4487 116.955 33.4382 116.72 33.4382C115.39 33.4382 114.389 33.7906 113.664 34.5163C112.832 35.3466 112.536 36.4816 112.536 37.2631C112.536 38.5121 112.947 39.5123 113.758 40.2379C114.58 40.9764 115.626 41.3206 117.049 41.3206C117.635 41.3206 118.417 41.2602 118.849 41.0869C119.067 40.9904 119.113 40.938 119.185 40.7112C119.284 40.374 119.404 39.5239 119.404 39.4309C119.404 39.1494 119.224 39.1366 119.188 39.1366ZM127.167 40.7531C127.082 40.7531 126.955 40.745 126.821 40.7008C126.708 40.6671 126.442 40.5915 126.087 39.7146C125.677 38.6889 124.799 36.4026 124.277 35.0373C124.046 34.4337 123.876 33.9918 123.833 33.8825C123.721 33.5906 123.653 33.4394 123.48 33.4394C123.301 33.4394 123.236 33.6162 123.128 33.9139L120.932 39.9216C120.758 40.4019 120.589 40.6892 120.241 40.7345C120.17 40.7438 120.042 40.7531 119.979 40.7531C119.823 40.7531 119.742 40.8566 119.742 40.9601C119.742 41.1101 119.854 41.1869 120.075 41.1869C120.384 41.1869 120.729 41.1729 120.952 41.1648C121.055 41.1613 121.136 41.1567 121.169 41.1567C121.211 41.1567 121.301 41.1636 121.409 41.1671C121.576 41.1764 121.783 41.1869 121.923 41.1869C122.197 41.1869 122.217 41.0125 122.217 40.9601C122.217 40.8648 122.153 40.7531 121.971 40.7531H121.875C121.804 40.7531 121.657 40.7206 121.657 40.6205C121.657 40.4635 121.703 40.2461 121.785 40.0205L122.358 38.3319H124.362L125.248 40.6717C125.263 40.7113 125.263 40.7368 125.262 40.7473C125.169 40.781 125.113 40.8566 125.113 40.9508C125.113 41.145 125.318 41.1555 125.498 41.166L125.547 41.1671C126.218 41.1869 126.925 41.1869 127.071 41.1869C127.379 41.1869 127.414 41.0287 127.414 40.9601C127.414 40.9252 127.402 40.7531 127.167 40.7531ZM124.127 37.6864H122.581L123.325 35.4048L124.127 37.6864ZM134.362 34.7221C133.381 33.7092 132.001 33.5731 130.779 33.5731L130.374 33.5743C129.972 33.5743 129.555 33.5871 129.297 33.5976C129.184 33.601 129.103 33.6034 129.068 33.6034C129.058 33.6034 129.011 33.601 128.945 33.5987C128.73 33.5906 128.304 33.5743 127.975 33.5743C127.711 33.5743 127.671 33.7162 127.671 33.7999C127.671 33.9174 127.77 34.0069 127.897 34.0069C127.99 34.0069 128.135 34.0174 128.196 34.0325C128.423 34.0813 128.476 34.1546 128.494 34.4477C128.513 34.7535 128.513 35.0245 128.513 36.5282V38.2319C128.513 39.1343 128.513 39.9158 128.467 40.3112C128.426 40.5973 128.385 40.7008 128.299 40.7171C128.205 40.7392 128.106 40.7531 128.044 40.7531C127.894 40.7531 127.817 40.8566 127.817 40.9601C127.817 41.045 127.856 41.1869 128.119 41.1869C128.19 41.1869 128.276 41.1834 128.369 41.1776C128.47 41.1729 128.578 41.1671 128.689 41.1671C128.888 41.1567 129.049 41.1567 129.068 41.1567C129.092 41.159 129.183 41.1648 129.316 41.1764C129.459 41.1869 129.648 41.2008 129.861 41.216C130.418 41.2543 130.874 41.2741 131.216 41.2741C132.482 41.2741 133.533 40.8729 134.256 40.1135C134.946 39.3867 135.341 38.3551 135.341 37.2829C135.341 36.0095 134.809 35.1873 134.362 34.7221ZM131.245 40.6473C130.114 40.6473 129.805 40.4449 129.722 40.3205C129.697 40.2833 129.662 40.1368 129.643 39.6646C129.633 39.4995 129.624 38.6715 129.624 37.5748V36.3747C129.624 35.6432 129.624 34.643 129.632 34.3128C129.632 34.2767 129.639 34.2674 129.665 34.2546C129.722 34.2325 130.016 34.2 130.23 34.2C131.467 34.2 132.46 34.3791 133.285 35.2489C133.617 35.5943 134.173 36.3595 134.173 37.5829C134.173 38.4889 133.887 39.3553 133.444 39.7902C132.899 40.3345 132.098 40.6473 131.245 40.6473ZM140.542 39.582C140.36 39.582 140.324 39.7681 140.308 39.8518C140.24 40.2449 140.13 40.3647 139.962 40.4356C139.737 40.531 139.317 40.531 139.091 40.531C138.176 40.531 138.142 40.4275 138.118 39.8797C138.11 39.7367 138.115 39.1134 138.116 38.6587L138.118 37.462C138.41 37.4667 139.186 37.4864 139.404 37.5085C139.724 37.5422 139.758 37.6655 139.781 37.7446C139.814 37.8481 139.814 37.9272 139.814 38.019C139.814 38.1586 139.903 38.2551 140.03 38.2551C140.246 38.2551 140.246 38.0039 140.246 37.9225C140.246 37.8621 140.266 37.5074 140.285 37.3166C140.301 37.1236 140.326 36.9898 140.343 36.9015C140.356 36.834 140.361 36.7887 140.361 36.7607C140.361 36.6049 140.263 36.5351 140.166 36.5351C140.061 36.5351 139.999 36.6072 139.91 36.7084C139.861 36.7631 139.761 36.7782 139.552 36.7956C139.402 36.8096 138.729 36.8142 138.118 36.8154L138.119 34.25C138.419 34.2523 139.208 34.2628 139.336 34.2779C139.819 34.3302 139.861 34.4256 139.902 34.5151C139.936 34.5977 139.95 34.7349 139.95 34.8058C139.95 35.0675 140.137 35.0815 140.174 35.0815C140.216 35.0815 140.351 35.0652 140.389 34.8535C140.403 34.7756 140.414 34.6093 140.426 34.3977C140.431 34.3104 140.436 34.236 140.44 34.2034C140.457 34.0511 140.479 33.9499 140.494 33.8802C140.509 33.8197 140.517 33.7766 140.517 33.7313C140.517 33.501 140.35 33.4964 140.33 33.4964C140.266 33.4964 140.218 33.5208 140.16 33.5499C140.103 33.5627 139.971 33.5824 139.772 33.5929C139.598 33.601 138.302 33.6034 137.57 33.6034L137.171 33.5836C136.957 33.5743 136.692 33.5743 136.47 33.5743C136.205 33.5743 136.165 33.7162 136.165 33.7999C136.165 33.9174 136.264 34.0069 136.391 34.0069C136.484 34.0069 136.629 34.0174 136.69 34.0325C136.917 34.0813 136.969 34.1546 136.989 34.4477C137.007 34.7535 137.007 35.0245 137.007 36.5282V38.2319C137.007 39.1343 137.007 39.9158 136.961 40.3112C136.92 40.5973 136.88 40.7008 136.793 40.7171C136.698 40.7392 136.6 40.7531 136.536 40.7531C136.389 40.7531 136.311 40.8566 136.311 40.9601C136.311 41.045 136.35 41.1869 136.614 41.1869C136.684 41.1869 136.771 41.1834 136.864 41.1776C136.966 41.1729 137.075 41.1671 137.182 41.1671C137.382 41.1567 137.544 41.1567 137.562 41.1567C137.706 41.1567 137.935 41.1671 138.313 41.1869L138.493 41.1927C138.855 41.202 139.333 41.216 139.952 41.216C140.331 41.216 140.521 41.216 140.621 40.8496C140.668 40.6426 140.749 39.9739 140.749 39.8763C140.749 39.6332 140.637 39.582 140.542 39.582ZM151.407 40.7531C151.317 40.7531 151.081 40.7531 150.823 40.6729C150.516 40.5729 150.444 40.1554 150.404 39.7728L149.756 33.8325C149.739 33.6941 149.711 33.4382 149.492 33.4382C149.317 33.4382 149.244 33.6022 149.209 33.679L146.498 39.4716L143.675 33.6708C143.645 33.5999 143.571 33.4382 143.394 33.4382C143.284 33.4382 143.161 33.5185 143.14 33.7441L142.44 40.0879C142.402 40.4612 142.364 40.6915 142.176 40.7275C142.044 40.7531 141.989 40.7531 141.913 40.7531C141.771 40.7531 141.669 40.8357 141.669 40.9508C141.669 41.0218 141.7 41.1857 141.981 41.1857C142.15 41.1857 142.4 41.1741 142.583 41.166C142.685 41.1613 142.765 41.1567 142.794 41.1567C142.819 41.1567 142.88 41.1601 142.963 41.1648C143.151 41.1729 143.448 41.1857 143.694 41.1857C143.962 41.1857 144.019 41.0578 144.019 40.9508C144.019 40.8392 143.919 40.7531 143.792 40.7531C143.742 40.7531 143.608 40.7426 143.452 40.7089C143.377 40.6915 143.321 40.6275 143.321 40.5531C143.321 40.3914 143.321 40.2193 143.33 40.074L143.673 36.0828C144.021 36.8433 144.681 38.254 144.75 38.3958L144.785 38.4645C145.506 39.91 145.781 40.4473 145.885 40.6426L145.909 40.6892C146.103 41.0566 146.161 41.1671 146.318 41.1671C146.489 41.1671 146.542 41.052 146.704 40.7089L148.933 35.9793L149.352 40.4822C149.365 40.581 149.361 40.6531 149.358 40.6938C149.257 40.745 149.245 40.8392 149.245 40.8834C149.245 41.0927 149.492 41.1148 149.653 41.1276C150.024 41.1578 151.077 41.1857 151.281 41.1857C151.616 41.1857 151.633 40.9892 151.633 40.9508C151.633 40.9299 151.627 40.7531 151.407 40.7531ZM157.796 33.5743C157.679 33.5743 157.347 33.5859 157.11 33.5952C156.98 33.5987 156.879 33.6034 156.858 33.6034C156.831 33.6034 156.779 33.5987 156.709 33.5952C156.575 33.5859 156.387 33.5743 156.219 33.5743C155.946 33.5743 155.916 33.7173 155.916 33.7801C155.916 33.936 156.061 33.9848 156.173 34.022C156.183 34.0244 156.216 34.0337 156.216 34.1488C156.216 34.2697 156.167 34.4128 156.073 34.564C155.899 34.8477 154.955 36.477 154.584 37.1782C154.17 36.4793 153.073 34.5895 152.944 34.3581C152.879 34.2372 152.836 34.1383 152.836 34.0511C152.836 34.0348 152.859 34.0197 152.873 34.0127L152.929 33.9906C152.992 33.9662 153.106 33.9209 153.106 33.7894C153.106 33.7243 153.082 33.5743 152.834 33.5743C152.565 33.5743 152.299 33.5894 152.144 33.5976C152.083 33.601 152.04 33.6034 152.02 33.6034C152.002 33.6034 151.913 33.5987 151.791 33.5952C151.545 33.5859 151.185 33.5743 151.06 33.5743C150.844 33.5743 150.788 33.7092 150.788 33.7894C150.788 33.9162 150.891 34.0069 151.034 34.0069C151.084 34.0069 151.237 34.0511 151.365 34.1372C151.549 34.2593 151.781 34.5116 151.983 34.8117C152.336 35.3373 153.606 37.4259 153.674 37.5771C153.794 37.8469 153.884 38.04 153.884 38.5319V39.3634C153.884 39.5146 153.884 39.9181 153.854 40.3205C153.846 40.4577 153.81 40.6892 153.668 40.7171C153.578 40.7392 153.478 40.7531 153.412 40.7531C153.264 40.7531 153.187 40.8566 153.187 40.9601C153.187 41.045 153.226 41.1857 153.49 41.1857C153.698 41.1857 154.069 41.1718 154.282 41.1625C154.365 41.1601 154.424 41.1567 154.439 41.1567C154.45 41.1567 154.49 41.159 154.548 41.1613C154.761 41.1706 155.218 41.1857 155.63 41.1857C155.918 41.1857 155.932 40.9985 155.932 40.9601C155.932 40.8566 155.855 40.7531 155.707 40.7531C155.634 40.7531 155.428 40.7357 155.289 40.7136C155.142 40.695 155.043 40.6217 155.024 40.3205C154.993 39.9181 154.993 39.5146 154.993 39.3634V38.5319C154.993 38.2156 154.993 37.9423 155.13 37.6202C155.292 37.2271 156.631 34.9745 156.953 34.5814C157.168 34.3186 157.262 34.2209 157.432 34.1209C157.554 34.043 157.705 34.0069 157.796 34.0069C157.986 34.0069 158.071 33.8895 158.071 33.7801C158.071 33.6848 158.001 33.5743 157.796 33.5743ZM165.196 33.4394C162.311 33.4394 161.236 35.8502 161.236 37.3701C161.236 39.2727 162.458 41.3218 165.141 41.3218C167.462 41.3218 169.149 39.5948 169.149 37.2155C169.149 34.9559 167.561 33.4394 165.196 33.4394ZM165.131 34.0639C166.475 34.0639 167.923 35.135 167.923 37.4864C167.923 40.5042 165.822 40.6578 165.401 40.6578C163.665 40.6578 162.453 39.1948 162.453 37.0992C162.453 35.2001 163.454 34.0639 165.131 34.0639ZM174.204 33.4952C174.142 33.4952 174.097 33.522 174.062 33.5406C174.047 33.5487 174.035 33.5569 174.024 33.5603C173.974 33.5766 173.866 33.5824 173.75 33.5883L173.637 33.5929C173.483 33.5999 172.464 33.6057 171.787 33.6057C171.525 33.6057 171.325 33.6045 171.269 33.6034L170.872 33.5824C170.657 33.5743 170.392 33.5743 170.171 33.5743C169.906 33.5743 169.865 33.715 169.865 33.7999C169.865 33.9162 169.965 34.0069 170.091 34.0069C170.186 34.0069 170.329 34.0174 170.388 34.0313C170.619 34.0813 170.67 34.1534 170.691 34.4465C170.707 34.7524 170.707 35.0245 170.707 36.527V38.2307C170.707 39.1343 170.707 39.9146 170.661 40.31C170.62 40.5973 170.58 40.7008 170.494 40.7171C170.399 40.738 170.302 40.7531 170.236 40.7531C170.087 40.7531 170.009 40.8566 170.009 40.9601C170.009 41.045 170.051 41.1857 170.315 41.1857C170.521 41.1857 170.893 41.1706 171.106 41.1625C171.189 41.159 171.248 41.1567 171.263 41.1567C171.273 41.1567 171.312 41.1578 171.373 41.1613C171.583 41.1694 172.041 41.1857 172.453 41.1857C172.742 41.1857 172.756 40.9973 172.756 40.9601C172.756 40.8566 172.679 40.7531 172.532 40.7531C172.458 40.7531 172.253 40.7357 172.113 40.7136C171.948 40.6926 171.896 40.6077 171.867 40.3124C171.817 39.9146 171.817 39.1343 171.817 38.2307L171.82 37.4701C172.533 37.4713 173.039 37.4818 173.179 37.4992C173.406 37.5271 173.525 37.6504 173.557 37.7469C173.591 37.8388 173.602 37.9504 173.612 38.047C173.612 38.1842 173.699 38.283 173.828 38.283C174.045 38.283 174.045 38.033 174.045 37.9504C174.045 37.8911 174.061 37.505 174.083 37.3155C174.099 37.1236 174.124 36.9898 174.141 36.9003C174.155 36.834 174.159 36.7887 174.159 36.7607C174.159 36.541 173.984 36.5351 173.963 36.5351C173.855 36.5351 173.795 36.6131 173.735 36.6933C173.688 36.7596 173.631 36.7852 173.399 36.8061C173.271 36.8142 173.143 36.8142 172.988 36.8142H172.975L171.817 36.8235L171.82 34.2581L173.24 34.286C173.566 34.2953 173.737 34.4407 173.77 34.5105C173.818 34.6128 173.842 34.7558 173.842 34.8152C173.842 34.9989 173.951 35.0803 174.059 35.0803C174.101 35.0803 174.242 35.064 174.283 34.8489C174.297 34.7686 174.311 34.543 174.321 34.3721C174.325 34.2953 174.33 34.2302 174.334 34.2023C174.348 34.0488 174.371 33.9499 174.388 33.8802C174.403 33.8185 174.411 33.7766 174.411 33.7313C174.411 33.5941 174.325 33.4952 174.204 33.4952ZM46.0064 56.5144C46.0459 58.1297 46.2436 58.6414 46.7751 58.7996C47.1484 58.8984 47.581 58.917 47.7589 58.917C47.8566 58.917 47.9171 58.9566 47.9171 59.0357C47.9171 59.1543 47.7984 59.1938 47.5624 59.1938C46.4401 59.1938 45.6528 59.1345 45.4749 59.1345C45.297 59.1345 44.4701 59.1938 43.5851 59.1938C43.3863 59.1938 43.2688 59.1741 43.2688 59.0357C43.2688 58.9566 43.3281 58.917 43.427 58.917C43.5851 58.917 43.9387 58.8984 44.234 58.7996C44.726 58.6624 44.8248 58.0914 44.8248 56.2993L44.8446 45.0141C44.8446 44.2454 44.9039 44.0303 45.0609 44.0303C45.2179 44.0303 45.554 44.4629 45.7493 44.6594C46.0459 44.9944 48.98 48.1657 52.0129 51.4149C53.962 53.5024 56.1088 55.9039 56.7391 56.554L56.5228 46.5504C56.503 45.27 56.3658 44.8374 55.7553 44.6804C55.4006 44.6001 54.9482 44.5815 54.79 44.5815C54.6516 44.5815 54.6319 44.521 54.6319 44.442C54.6319 44.3245 54.79 44.3059 55.0261 44.3059C55.9111 44.3059 56.8577 44.364 57.074 44.364C57.2903 44.364 57.9404 44.3059 58.7487 44.3059C58.9638 44.3059 59.1022 44.3245 59.1022 44.442C59.1022 44.521 59.0243 44.5815 58.8859 44.5815C58.7882 44.5815 58.6498 44.5815 58.4137 44.6408C57.7637 44.778 57.6846 45.2107 57.6846 46.3922L57.645 57.9332C57.645 59.2334 57.6067 59.3311 57.4683 59.3311C57.3101 59.3311 57.074 59.1136 56.0297 58.0704C55.8146 57.8739 52.9782 54.9782 50.8907 52.7337C48.6067 50.2718 46.3808 47.7912 45.7493 47.0818L46.0064 56.5144ZM62.5503 50.0159C62.5503 46.9446 62.5503 46.3922 62.5108 45.7631C62.4712 45.092 62.3142 44.778 61.6642 44.6408C61.5072 44.6001 61.1722 44.5815 60.9943 44.5815C60.9164 44.5815 60.8373 44.542 60.8373 44.4629C60.8373 44.3454 60.9362 44.3059 61.1525 44.3059C61.6049 44.3059 62.1363 44.3059 62.5712 44.3245L63.3783 44.364C63.5156 44.364 67.4347 44.364 67.8882 44.3454C68.2627 44.3245 68.5767 44.285 68.7348 44.2454C68.8337 44.2268 68.9116 44.1477 69.0093 44.1477C69.0697 44.1477 69.0895 44.2268 69.0895 44.3245C69.0895 44.4629 68.9907 44.699 68.9314 45.2502C68.9116 45.4479 68.8732 46.3131 68.8337 46.5515C68.8127 46.6492 68.7732 46.7667 68.6953 46.7667C68.5767 46.7667 68.5371 46.669 68.5371 46.5097C68.5371 46.3736 68.5174 46.0375 68.4197 45.8026C68.2824 45.4874 68.0847 45.2502 67.0218 45.1316C66.6857 45.092 64.5389 45.0734 64.3226 45.0734C64.2436 45.0734 64.2052 45.1316 64.2052 45.27V50.7055C64.2052 50.8439 64.2249 50.9021 64.3226 50.9021C64.5796 50.9021 67.002 50.9021 67.4533 50.8625C67.9266 50.823 68.2034 50.7835 68.3801 50.5869C68.5174 50.4299 68.5964 50.3322 68.6755 50.3322C68.7348 50.3322 68.7732 50.3718 68.7732 50.4892C68.7732 50.6079 68.6755 50.9416 68.6162 51.5929C68.5767 51.9859 68.5371 52.7139 68.5371 52.8535C68.5371 53.0105 68.5371 53.2256 68.3987 53.2256C68.301 53.2256 68.2627 53.1477 68.2627 53.05C68.2627 52.8535 68.2627 52.6546 68.1836 52.3999C68.1033 52.1232 67.9266 51.7894 67.159 51.7103C66.6276 51.651 64.6773 51.6115 64.3424 51.6115C64.2436 51.6115 64.2052 51.6708 64.2052 51.7499V53.4826C64.2052 54.1525 64.1854 56.4365 64.2052 56.8493C64.2645 58.2088 64.5599 58.4647 66.4892 58.4647C67.002 58.4647 67.8673 58.4647 68.3801 58.2484C68.8918 58.0309 69.1279 57.6378 69.2663 56.8307C69.3058 56.6133 69.3454 56.5354 69.4442 56.5354C69.5617 56.5354 69.5617 56.6924 69.5617 56.8307C69.5617 56.9877 69.4035 58.3274 69.3058 58.7414C69.1674 59.252 69.0093 59.252 68.2417 59.252C66.7648 59.252 65.6821 59.2136 64.9134 59.1938C64.1459 59.1543 63.6726 59.1345 63.3783 59.1345C63.3388 59.1345 63.0039 59.1345 62.5899 59.1543C62.1968 59.1543 61.7432 59.1938 61.4479 59.1938C61.2304 59.1938 61.1327 59.1543 61.1327 59.0357C61.1327 58.9775 61.1722 58.917 61.2909 58.917C61.4676 58.917 61.7037 58.8775 61.8816 58.8391C62.2747 58.7601 62.3735 58.3274 62.4515 57.7564C62.5503 56.9284 62.5503 55.3736 62.5503 53.4826V50.0159ZM73.1272 50.0159C73.1272 46.9446 73.1272 46.3922 73.0877 45.7631C73.0482 45.092 72.89 44.778 72.2411 44.6408C72.0829 44.6001 71.7492 44.5815 71.5712 44.5815C71.4922 44.5815 71.4142 44.542 71.4142 44.4629C71.4142 44.3454 71.5119 44.3059 71.7294 44.3059C72.6155 44.3059 73.8169 44.364 73.9936 44.364C74.1704 44.364 75.3519 44.3059 75.9427 44.3059C76.1602 44.3059 76.259 44.3454 76.259 44.4629C76.259 44.542 76.18 44.5815 76.1009 44.5815C75.9625 44.5815 75.845 44.6001 75.609 44.6408C75.0775 44.7199 74.9193 45.0734 74.8798 45.7631C74.8402 46.3922 74.8402 46.9446 74.8402 50.0159V52.7732C74.8402 55.6097 75.4706 56.8307 76.3172 57.6378C77.2824 58.5449 78.1686 58.7205 79.292 58.7205C80.4921 58.7205 81.6737 58.1495 82.3831 57.3029C83.289 56.1807 83.5251 54.5072 83.5251 52.4779V50.0159C83.5251 46.9446 83.5251 46.3922 83.4855 45.7631C83.446 45.092 83.289 44.778 82.6389 44.6408C82.4819 44.6001 82.147 44.5815 81.9691 44.5815C81.8911 44.5815 81.8121 44.542 81.8121 44.4629C81.8121 44.3454 81.9109 44.3059 82.1272 44.3059C83.0134 44.3059 84.0961 44.364 84.2147 44.364C84.3531 44.364 85.2776 44.3059 85.8684 44.3059C86.0847 44.3059 86.1836 44.3454 86.1836 44.4629C86.1836 44.542 86.1045 44.5815 86.0266 44.5815C85.8882 44.5815 85.7707 44.6001 85.5335 44.6408C85.002 44.7583 84.845 45.0734 84.8055 45.7631C84.7659 46.3922 84.7659 46.9446 84.7659 50.0159V52.1232C84.7659 54.2502 84.5299 56.6133 82.9541 58.0123C81.5364 59.2729 80.0595 59.4694 78.8977 59.4694C78.2279 59.4694 76.2393 59.3915 74.8402 58.0704C73.875 57.1459 73.1272 55.7666 73.1272 52.8919V50.0159ZM89.2758 50.0148C89.2758 46.9434 89.2758 46.391 89.2374 45.7619C89.1979 45.092 89.0397 44.7769 88.3908 44.6397C88.2327 44.599 87.8977 44.5803 87.7198 44.5803C87.6419 44.5803 87.5628 44.542 87.5628 44.4629C87.5628 44.3443 87.6616 44.3047 87.878 44.3047C88.7653 44.3047 90.005 44.3629 90.1038 44.3629C90.3213 44.3629 91.8168 44.3047 92.4285 44.3047C93.6671 44.3047 94.987 44.4233 96.0302 45.1711C96.5221 45.5258 97.3908 46.4911 97.3908 47.8505C97.3908 49.3077 96.7791 50.7649 95.0079 52.3988C96.6221 54.4665 97.963 56.2202 99.1038 57.4413C100.166 58.5624 101.013 58.7798 101.506 58.8589C101.88 58.917 102.157 58.917 102.275 58.917C102.37 58.917 102.451 58.9764 102.451 59.0345C102.451 59.1543 102.334 59.1938 101.977 59.1938H100.58C99.4771 59.1938 98.9852 59.095 98.4723 58.8194C97.6269 58.3658 96.9372 57.4017 95.815 55.9236C94.987 54.8409 94.0625 53.521 93.6671 53.0093C93.588 52.9314 93.5298 52.8919 93.4124 52.8919L90.99 52.8523C90.8923 52.8523 90.8527 52.9105 90.8527 53.0093V53.4815C90.8527 55.3736 90.8527 56.9284 90.9504 57.7553C91.0097 58.3263 91.1284 58.7589 91.718 58.838C91.9948 58.8775 92.4285 58.917 92.603 58.917C92.7216 58.917 92.7635 58.9764 92.7635 59.0345C92.7635 59.1334 92.6646 59.1938 92.4448 59.1938C91.3644 59.1938 90.1236 59.1334 90.0247 59.1334C90.005 59.1334 88.7653 59.1938 88.1733 59.1938C87.9559 59.1938 87.8582 59.1543 87.8582 59.0345C87.8582 58.9764 87.8977 58.917 88.0163 58.917C88.1931 58.917 88.4292 58.8775 88.6071 58.838C89.0014 58.7589 89.099 58.3263 89.1781 57.7553C89.2758 56.9284 89.2758 55.3736 89.2758 53.4815V50.0148ZM90.8527 51.7289C90.8527 51.8278 90.8923 51.9069 90.99 51.965C91.2854 52.1429 92.1925 52.2813 93.0577 52.2813C93.5298 52.2813 94.0811 52.222 94.5358 51.9069C95.2231 51.4335 95.7359 50.3706 95.7359 48.8727C95.7359 46.412 94.4358 44.935 92.3285 44.935C91.7389 44.935 91.2063 44.9944 91.0097 45.0525C90.9109 45.092 90.8527 45.1711 90.8527 45.2897V51.7289ZM108.989 44.0303C113.422 44.0303 116.729 46.826 116.729 51.4149C116.729 55.8248 113.616 59.4694 108.872 59.4694C103.476 59.4694 101.232 55.2747 101.232 51.7289C101.232 48.5402 103.554 44.0303 108.989 44.0303ZM109.403 58.7205C111.175 58.7205 114.838 57.696 114.838 51.965C114.838 47.24 111.965 44.699 108.853 44.699C105.563 44.699 103.103 46.8655 103.103 51.1789C103.103 55.7666 105.859 58.7205 109.403 58.7205ZM121.774 53.521C121.774 56.4167 121.853 57.6762 122.206 58.0309C122.523 58.346 123.032 58.4833 124.569 58.4833C125.615 58.4833 126.479 58.4635 126.953 57.8937C127.21 57.5773 127.407 57.0854 127.466 56.7121C127.485 56.5528 127.523 56.4551 127.643 56.4551C127.74 56.4551 127.76 56.5342 127.76 56.7517C127.76 56.9668 127.623 58.1483 127.466 58.7194C127.326 59.1729 127.267 59.252 126.224 59.252C124.805 59.252 123.783 59.2124 122.955 59.1938C122.126 59.1543 121.517 59.1334 120.946 59.1334C120.868 59.1334 120.532 59.1543 120.139 59.1543C119.745 59.1729 119.312 59.1938 119.018 59.1938C118.798 59.1938 118.702 59.1543 118.702 59.0345C118.702 58.9764 118.74 58.917 118.86 58.917C119.035 58.917 119.274 58.8775 119.448 58.838C119.845 58.7589 119.941 58.3263 120.019 57.7553C120.118 56.9273 120.118 55.3736 120.118 53.4815V50.0148C120.118 46.9434 120.118 46.391 120.081 45.7619C120.04 45.092 119.882 44.7769 119.232 44.6397C119.075 44.599 118.74 44.5803 118.563 44.5803C118.484 44.5803 118.405 44.5408 118.405 44.4629C118.405 44.3443 118.504 44.3047 118.72 44.3047C119.605 44.3047 120.847 44.3629 120.946 44.3629C121.046 44.3629 122.482 44.3047 123.073 44.3047C123.289 44.3047 123.388 44.3443 123.388 44.4629C123.388 44.5408 123.309 44.5803 123.231 44.5803C123.094 44.5803 122.817 44.599 122.581 44.6397C122.009 44.7373 121.853 45.0723 121.812 45.7619C121.774 46.391 121.774 46.9434 121.774 50.0148V53.521ZM136.05 44.0303C140.482 44.0303 143.791 46.826 143.791 51.4149C143.791 55.8248 140.678 59.4694 135.934 59.4694C130.538 59.4694 128.294 55.2747 128.294 51.7289C128.294 48.5402 130.616 44.0303 136.05 44.0303ZM136.464 58.7205C138.237 58.7205 141.9 57.696 141.9 51.965C141.9 47.24 139.026 44.699 135.913 44.699C132.623 44.699 130.165 46.8655 130.165 51.1789C130.165 55.7666 132.921 58.7205 136.464 58.7205ZM157.262 54.1711C157.262 52.5755 157.163 52.3604 156.377 52.1429C156.219 52.1034 155.885 52.0836 155.707 52.0836C155.628 52.0836 155.549 52.0441 155.549 51.965C155.549 51.8475 155.648 51.808 155.864 51.808C156.751 51.808 157.992 51.8673 158.09 51.8673C158.19 51.8673 159.429 51.808 160.02 51.808C160.239 51.808 160.335 51.8475 160.335 51.965C160.335 52.0441 160.256 52.0836 160.178 52.0836C160.041 52.0836 159.921 52.1034 159.686 52.1429C159.154 52.2418 158.997 52.5755 158.956 53.2652C158.918 53.8955 158.918 54.4863 158.918 55.3131V57.5192C158.918 58.4054 158.897 58.4449 158.661 58.5833C157.4 59.252 155.628 59.4694 154.485 59.4694C152.991 59.4694 150.193 59.2729 148.008 57.3622C146.808 56.3179 145.664 54.2106 145.664 51.7499C145.664 48.5983 147.199 46.3724 148.952 45.27C150.727 44.1663 152.676 44.0303 154.192 44.0303C155.433 44.0303 156.829 44.285 157.204 44.3629C157.619 44.4629 158.307 44.5408 158.799 44.5606C158.997 44.5803 159.035 44.6594 159.035 44.7373C159.035 45.013 158.897 45.5654 158.897 47.5342C158.897 47.8505 158.858 47.9482 158.72 47.9482C158.622 47.9482 158.603 47.8296 158.582 47.6517C158.564 47.3772 158.464 46.826 158.169 46.3527C157.678 45.6049 156.082 44.7583 153.541 44.7583C152.3 44.7583 150.823 44.8769 149.328 46.0584C148.186 46.9632 147.377 48.7553 147.377 51.0602C147.377 53.8362 148.774 55.8457 149.465 56.5144C151.021 58.0309 152.813 58.6228 154.626 58.6228C155.334 58.6228 156.356 58.503 156.87 58.2088C157.126 58.0716 157.262 57.853 157.262 57.5192V54.1711ZM166.441 54.0932C166.441 53.0291 166.245 52.5965 165.988 52.0255C165.852 51.7103 163.211 47.3772 162.52 46.3527C162.03 45.6247 161.538 45.1316 161.181 44.8955C160.888 44.699 160.512 44.5815 160.335 44.5815C160.239 44.5815 160.139 44.542 160.139 44.4431C160.139 44.364 160.219 44.3059 160.395 44.3059C160.769 44.3059 162.246 44.364 162.346 44.364C162.484 44.364 163.231 44.3059 163.999 44.3059C164.218 44.3059 164.254 44.364 164.254 44.4431C164.254 44.521 164.138 44.542 163.962 44.621C163.802 44.699 163.704 44.8176 163.704 44.9746C163.704 45.2107 163.802 45.4479 163.962 45.7421C164.276 46.3131 167.229 51.3952 167.583 51.9662C167.959 51.1393 170.459 46.8271 170.852 46.1771C171.111 45.7631 171.187 45.4281 171.187 45.1711C171.187 44.8955 171.111 44.6804 170.873 44.621C170.694 44.5606 170.575 44.521 170.575 44.4233C170.575 44.3454 170.694 44.3059 170.893 44.3059C171.403 44.3059 172.032 44.364 172.193 44.364C172.308 44.364 173.728 44.3059 174.102 44.3059C174.239 44.3059 174.359 44.3454 174.359 44.4233C174.359 44.521 174.259 44.5815 174.102 44.5815C173.885 44.5815 173.51 44.6594 173.195 44.8571C172.802 45.092 172.585 45.3304 172.151 45.8607C171.501 46.6492 168.745 51.2765 168.39 52.1232C168.095 52.8326 168.095 53.4431 168.095 54.0932V55.7864C168.095 56.1027 168.095 56.9284 168.153 57.7564C168.195 58.3274 168.372 58.7601 168.96 58.8391C169.237 58.8787 169.672 58.917 169.848 58.917C169.967 58.917 170.006 58.9775 170.006 59.0357C170.006 59.1345 169.909 59.1938 169.691 59.1938C168.609 59.1938 167.368 59.1345 167.268 59.1345C167.168 59.1345 165.93 59.1938 165.339 59.1938C165.119 59.1938 165.024 59.1555 165.024 59.0357C165.024 58.9775 165.061 58.917 165.181 58.917C165.36 58.917 165.594 58.8787 165.77 58.8391C166.167 58.7601 166.34 58.3274 166.383 57.7564C166.441 56.9284 166.441 56.1027 166.441 55.7864V54.0932ZM174.171 57.1831C174.171 55.705 175.374 54.6119 176.794 54.6119C178.199 54.6119 179.4 55.705 179.4 57.1831C179.4 58.6798 178.199 59.7706 176.794 59.7706C175.374 59.7706 174.171 58.6798 174.171 57.1831ZM176.794 59.3404C177.961 59.3404 178.884 58.4263 178.884 57.1831C178.884 55.9609 177.961 55.041 176.794 55.041C175.612 55.041 174.69 55.9609 174.69 57.1831C174.69 58.4263 175.612 59.3404 176.794 59.3404ZM176.25 58.6798H175.797V55.705H176.929C177.632 55.705 177.98 55.9609 177.98 56.5493C177.98 57.0819 177.647 57.3134 177.21 57.3669L178.058 58.6798H177.552L176.767 57.3889H176.25V58.6798ZM176.787 57.0087C177.167 57.0087 177.51 56.9808 177.51 56.5202C177.51 56.1527 177.177 56.083 176.861 56.083H176.25V57.0087H176.787Z" fill="#231F20"/>
<path d="M39.7022 16.7128C39.579 16.8524 38.3474 18.0351 36.6437 20.0597C34.94 22.0833 33.9852 23.723 34.4341 24.3347C34.7574 24.7801 35.5459 24.4975 36.8763 24.0277C37.0344 23.9719 37.1914 23.9835 37.2763 24.1324C37.3577 24.2835 37.3089 24.4557 37.1217 24.544C35.6843 25.2185 35.5808 25.5442 35.932 25.9035C37.2822 27.2862 48.0114 27.7654 75.4986 27.713C79.0386 27.7072 82.7868 27.7282 82.96 27.7282C83.131 27.7282 83.2752 27.8386 83.2752 28.0142C83.2752 28.1875 83.131 28.298 82.96 28.298C82.7868 28.298 79.0386 28.2852 75.4986 28.291C47.9033 28.3294 37.3903 28.6294 35.932 30.1215C35.5808 30.4843 35.6843 30.8053 37.1217 31.4821C37.3089 31.5705 37.3577 31.7426 37.2763 31.8938C37.1914 32.0427 37.0344 32.0543 36.8763 31.9973C35.5459 31.5286 34.7574 31.246 34.4341 31.6903C33.9852 32.3032 34.94 33.9429 36.6437 35.9664C38.3474 37.9888 39.579 39.1738 39.7022 39.3134C39.8255 39.4517 39.8429 39.6297 39.7267 39.7553C39.6069 39.8774 39.4231 39.8541 39.2836 39.732C39.144 39.6087 37.9601 38.3783 35.9366 36.6712C33.9131 34.9698 32.2734 34.015 31.6605 34.4639C31.2163 34.786 31.4989 35.5757 31.9687 36.9072C32.0245 37.0654 32.0129 37.2201 31.864 37.3061C31.7128 37.3887 31.5407 37.341 31.4523 37.1526C30.7755 35.7129 30.4534 35.6094 30.0929 35.9606C28.9951 37.0352 28.6008 41.8869 28.4089 45.413C28.217 48.9355 28.2671 50.9113 28.2671 51.0823C28.2671 51.2556 28.1577 51.3974 27.9845 51.3974C27.8089 51.3974 27.6995 51.2556 27.6995 51.0823C27.6995 50.9113 27.7495 48.9355 27.5588 45.413C27.3669 41.8869 26.9727 37.0352 25.8749 35.9606C25.5132 35.6094 25.1911 35.7129 24.5143 37.1526C24.4259 37.341 24.2538 37.3887 24.1026 37.3061C23.9549 37.2201 23.9421 37.0654 23.9991 36.9072C24.4677 35.5757 24.7503 34.786 24.3061 34.4639C23.6932 34.015 22.0535 34.9698 20.03 36.6712C18.0065 38.3783 16.8226 39.6087 16.683 39.732C16.5435 39.8541 16.3574 39.8774 16.2411 39.7553C16.1213 39.6297 16.1423 39.4517 16.2655 39.3134C16.3865 39.1738 17.6192 37.9888 19.3229 35.9664C21.0278 33.9429 21.9802 32.3032 21.5325 31.6903C21.2069 31.246 20.4184 31.5286 19.0903 31.9973C18.931 32.0543 18.774 32.0427 18.6926 31.8938C18.6089 31.7426 18.6577 31.5705 18.8461 31.4821C20.2812 30.8053 20.387 30.4843 20.0335 30.1215C18.9635 29.0248 14.1083 28.6294 10.5834 28.4387C7.05855 28.2468 5.08621 28.298 4.91409 28.298C4.74198 28.298 4.6001 28.1875 4.6001 28.0142C4.6001 27.8386 4.74198 27.7282 4.91409 27.7282C5.08621 27.7282 7.05855 27.7793 10.5834 27.5886C14.1083 27.3967 18.9635 27.0013 20.0335 25.9035C20.387 25.5442 20.2812 25.2185 18.8461 24.544C18.6577 24.4557 18.6089 24.2835 18.6926 24.1324C18.774 23.9835 18.931 23.9719 19.0903 24.0277C20.4184 24.4975 21.2069 24.7801 21.5325 24.3347C21.9802 23.723 21.0278 22.0833 19.3229 20.0597C17.6192 18.0351 16.3865 16.8524 16.2655 16.7128C16.1423 16.5721 16.1213 16.393 16.2411 16.2709C16.3574 16.1476 16.5435 16.1709 16.683 16.2942C16.8226 16.4186 18.0065 17.649 20.03 19.3538C22.0535 21.0575 23.6932 22.01 24.3061 21.5623C24.7503 21.2366 24.4677 20.4493 23.9991 19.1201C23.9421 18.9608 23.9549 18.8049 24.1026 18.7212C24.2538 18.6386 24.4259 18.6863 24.5143 18.8759C25.1911 20.3121 25.5132 20.4168 25.8749 20.0632C26.9727 18.9922 27.3669 14.1392 27.5588 10.6132C27.7495 7.08717 27.6995 5.11599 27.6995 4.94388C27.6995 4.77176 27.8089 4.62988 27.9845 4.62988C28.1577 4.62988 28.2671 4.77176 28.2671 4.94388C28.2671 5.11599 28.217 7.08717 28.4089 10.6132C28.6008 14.1392 28.9951 18.9922 30.0929 20.0632C30.4534 20.4168 30.7755 20.3121 31.4523 18.8759C31.5407 18.6863 31.7128 18.6386 31.864 18.7212C32.0129 18.8049 32.0245 18.9608 31.9687 19.1201C31.4989 20.4493 31.2163 21.2366 31.6605 21.5623C32.2734 22.01 33.9131 21.0575 35.9366 19.3538C37.9601 17.649 39.144 16.4186 39.2836 16.2942C39.4231 16.1709 39.6069 16.1476 39.7267 16.2709C39.8429 16.393 39.8255 16.5721 39.7022 16.7128ZM30.8383 27.9933C30.8383 26.4152 29.5602 25.1371 27.9845 25.1371C26.4075 25.1371 25.1283 26.4152 25.1283 27.9933C25.1283 29.5679 26.4075 30.846 27.9845 30.846C29.5602 30.846 30.8383 29.5679 30.8383 27.9933Z" fill="#B69025"/>
</svg>
