<svg width="48" height="48" viewBox="0 0 48 48" fill="none" xmlns="http://www.w3.org/2000/svg">
<circle cx="24" cy="24" r="21" fill="#0678BE"/>
<path d="M24 7.5C14.9112 7.5 7.5 14.9112 7.5 24C7.5 33.0888 14.9112 40.5 24 40.5C33.0888 40.5 40.5 33.0888 40.5 24C40.5 15.0276 32.9724 7.5 24 7.5ZM24 34.5C19.024 34.5 15 30.476 15 25.5C15 21.2833 17.7926 18.6314 20.2814 16.1426C21.9314 14.4926 23.5294 12.2799 24 10.5C24.4721 12.2814 26.0426 14.4926 27.7186 16.1426C30.2074 18.6314 33 21.2833 33 25.5C33 30.476 28.976 34.5 24 34.5Z" fill="white"/>
</svg>
