<svg width="250" height="79" viewBox="0 0 250 79" fill="none" xmlns="http://www.w3.org/2000/svg"><defs>
<clipPath id="clip0_0_1515">
<rect width="50" height="50" fill="white" transform="translate(20 15)"/>
</clipPath>
<clipPath id="clip1_0_1515">
<rect width="100" height="28.4024" fill="white" transform="translate(113 25)"/>
</clipPath>
</defs><g clip-path="url(#clip0_0_1515)">
<path d="M69.5289 62.3687L60.1164 52.9547C59.8191 52.6632 59.4194 52.5 59.0032 52.5C58.5868 52.5 58.1871 52.6632 57.8898 52.9547L48.4773 62.3687C48.2528 62.5827 48.0989 62.86 48.0358 63.1638C47.9727 63.4674 48.0037 63.783 48.1245 64.0687C48.2452 64.3544 48.4501 64.5966 48.7119 64.7629C48.9737 64.9293 49.2799 65.012 49.5898 65H68.4164C68.7245 65.0077 69.0278 64.9225 69.2868 64.7554C69.5459 64.5883 69.7486 64.3471 69.8686 64.0632C69.9887 63.7793 70.0205 63.4658 69.9598 63.1636C69.8992 62.8615 69.7491 62.5845 69.5289 62.3687Z" fill="#C3C6CC"/>
<path d="M69.8418 28.5562L66.8934 19.8031C66.7604 19.4072 66.5482 19.0426 66.27 18.7312L20.3574 64.6421C20.6269 64.8833 20.9788 65.0114 21.3402 64.9999H34.3809C34.7454 65.0017 35.1065 64.9316 35.4439 64.7935C35.7812 64.6554 36.0879 64.4521 36.3465 64.1952L69.2168 31.3249C69.574 30.9711 69.8227 30.5223 69.9334 30.0318C70.0441 29.5413 70.0124 29.0293 69.8418 28.5562Z" fill="#E1E3E6"/>
<path d="M65.1976 18.1042L56.4445 15.1574C55.9714 14.9868 55.4594 14.955 54.9689 15.0657C54.4783 15.1765 54.0296 15.4251 53.6758 15.7824L20.8038 48.6526C20.2867 49.1759 19.998 49.8826 20.0007 50.6183V63.6588C19.9892 64.0203 20.1174 64.3722 20.3585 64.6417L66.2711 18.7308C65.9592 18.4516 65.5941 18.2384 65.1976 18.1042Z" fill="#C3C6CC"/>
</g><g clip-path="url(#clip1_0_1515)">
<path d="M141.135 51.9077L135.789 46.56C135.62 46.3945 135.393 46.3018 135.156 46.3018C134.92 46.3018 134.693 46.3945 134.524 46.56L129.177 51.9077C129.05 52.0292 128.962 52.1867 128.926 52.3593C128.891 52.5318 128.908 52.711 128.977 52.8734C129.045 53.0356 129.162 53.1732 129.31 53.2677C129.459 53.3622 129.633 53.4092 129.809 53.4023H140.503C140.678 53.4067 140.851 53.3583 140.998 53.2634C141.145 53.1685 141.26 53.0315 141.328 52.8702C141.397 52.7089 141.415 52.5309 141.38 52.3592C141.346 52.1876 141.261 52.0302 141.135 51.9077Z" fill="#C3C6CC"/>
<path d="M141.313 32.7004L139.638 27.7283C139.562 27.5034 139.442 27.2962 139.284 27.1194L113.203 53.199C113.356 53.3359 113.556 53.4087 113.762 53.4022H121.169C121.376 53.4032 121.581 53.3634 121.773 53.2849C121.965 53.2065 122.139 53.091 122.286 52.9451L140.958 34.2732C141.161 34.0722 141.302 33.8173 141.365 33.5387C141.428 33.26 141.41 32.9692 141.313 32.7004Z" fill="#E1E3E6"/>
<path d="M138.674 26.7633L133.702 25.0893C133.433 24.9924 133.143 24.9744 132.864 25.0373C132.585 25.1002 132.33 25.2414 132.129 25.4443L113.457 44.1162C113.163 44.4135 112.999 44.8149 113 45.2328V52.6404C112.994 52.8458 113.067 53.0457 113.204 53.1988L139.284 27.1192C139.107 26.9606 138.9 26.8395 138.674 26.7633Z" fill="#C3C6CC"/>
<path d="M209.99 38.8008C210.007 39.0896 209.938 39.3769 209.793 39.6271C209.665 39.8218 209.485 39.9758 209.273 40.0709C209.039 40.1734 208.789 40.2332 208.535 40.2475C208.258 40.2679 207.983 40.278 207.708 40.2777H206.744V37.3443H207.807C208.063 37.3444 208.319 37.3574 208.574 37.3833C208.819 37.4049 209.058 37.4682 209.282 37.5706C209.49 37.6673 209.667 37.8205 209.793 38.0126C209.935 38.2502 210.004 38.5244 209.99 38.8008ZM210.344 46.3017H213L211.544 44.1555C211.295 43.788 211.043 43.4339 210.787 43.0931C210.531 42.7514 210.317 42.4691 210.148 42.2463C210.025 42.0466 209.864 41.8726 209.675 41.7342C210.394 41.6756 211.065 41.3489 211.554 40.8191C212.058 40.2552 212.322 39.5173 212.291 38.7617C212.301 38.3098 212.207 37.8618 212.016 37.4521C211.825 37.0424 211.542 36.6821 211.19 36.399C210.824 36.1115 210.396 35.9125 209.941 35.8176C209.349 35.6968 208.745 35.6409 208.142 35.6508H204.561V46.3017H206.744V41.8718C206.959 41.8622 207.171 41.9173 207.354 42.0298C207.513 42.136 207.659 42.2615 207.787 42.4034C207.98 42.6402 208.161 42.8866 208.328 43.1419C208.545 43.4632 208.862 43.9454 209.282 44.5886L210.344 46.3017ZM191.845 46.3017H198.691V44.4511H194.069V41.6162H197.53V39.8641H194.049V37.4028H198.219L198.533 35.6508H191.845V46.3017ZM183.258 46.3008L187.407 35.6508H185.106L183.001 41.183C182.9 41.4341 182.812 41.6904 182.736 41.9508C182.651 42.2392 182.576 42.5114 182.51 42.7673C182.445 43.0238 182.392 43.2372 182.352 43.4073L182.294 43.6638L182.215 43.4073C182.175 43.2236 182.123 43.004 182.058 42.7487C181.992 42.4922 181.916 42.2197 181.831 41.9312C181.746 41.6419 181.664 41.386 181.586 41.1635L179.638 35.6508H177.199L181.271 46.3008H183.258ZM165.959 46.3017H172.803V44.4511H168.181V41.6162H171.644V39.8641H168.162V37.4028H172.331L172.646 35.6508H165.959V46.3017ZM159.965 46.3017L160.378 44.4901H156.051V35.6508H153.828V46.3017H159.965Z" fill="#262933"/>
</g></svg>