<svg width="227" height="53" viewBox="0 0 227 53" fill="none" xmlns="http://www.w3.org/2000/svg">
<path d="M140.643 22.0587L140.163 21.5454L139.242 22.3057L138.257 21.4807V11.9829L136.098 9.75236C136.081 9.75236 134.393 10.966 133.323 11.58C132.733 11.9205 131.495 12.4266 130.608 12.1652L130.56 12.146C130.663 12.0492 130.74 11.9284 130.785 11.7944C130.83 11.6605 130.84 11.5175 130.816 11.3784C130.792 11.2392 130.734 11.1082 130.647 10.9971C130.559 10.886 130.446 10.7983 130.317 10.7418C130.187 10.6853 130.046 10.6617 129.905 10.6733C129.764 10.6849 129.629 10.7311 129.51 10.808C129.392 10.8849 129.294 10.99 129.226 11.1138C129.158 11.2376 129.122 11.3764 129.121 11.5176C129.122 11.6554 129.156 11.791 129.219 11.9133C129.34 12.1431 129.507 12.3454 129.71 12.5076C129.912 12.6697 130.146 12.7883 130.397 12.8559C130.638 12.9243 130.888 12.9574 131.138 12.9543C132.033 12.9154 132.904 12.6577 133.676 12.2036C133.839 12.11 134.014 12.0045 134.194 11.8918L135.429 13.1725V15.0409C134.852 15.0618 134.279 15.1422 133.719 15.2807C133.291 15.3852 132.873 15.5289 132.472 15.7101C132.002 15.9394 131.571 16.2413 131.196 16.6047C130.806 16.972 130.465 17.3889 130.184 17.8447C129.906 18.2819 129.701 18.7615 129.577 19.2645C129.521 19.5004 129.492 19.7417 129.49 19.9841C129.49 22.1067 131.081 23.3587 132.987 24.1549H133.467L135.626 22.3561L137.923 24.2749L140.643 22.0587ZM135.451 21.615L135.232 21.7949H135.199C133.479 21.8117 132.081 20.5357 132.081 18.9791C132.093 18.55 132.202 18.1291 132.398 17.7473C132.594 17.3655 132.873 17.0325 133.215 16.7726C133.456 16.5825 133.724 16.4282 134.009 16.3145C134.468 16.1389 134.957 16.0573 135.448 16.0746L135.451 21.615Z" fill="#231F20"/>
<path d="M162.538 12.8559C162.779 12.9243 163.029 12.9574 163.279 12.9543C164.174 12.9154 165.045 12.6577 165.817 12.2036C165.98 12.11 166.155 12.0045 166.335 11.8918L167.57 13.1725V15.0409C166.994 15.0618 166.42 15.1422 165.86 15.2807C165.432 15.3848 165.014 15.5285 164.613 15.7101C164.143 15.9394 163.713 16.2413 163.337 16.6047C162.947 16.972 162.607 17.3889 162.325 17.8447C162.047 18.2819 161.842 18.7615 161.718 19.2645C161.662 19.5004 161.633 19.7417 161.632 19.9841C161.632 22.1067 163.22 23.3587 165.129 24.1549H165.608L167.767 22.3561L170.067 24.2749L172.753 22.0587L172.274 21.5454L171.353 22.3057L170.367 21.4807V11.9829L168.208 9.75236C168.191 9.75236 166.503 10.966 165.433 11.58C164.843 11.9205 163.606 12.4266 162.716 12.1652L162.67 12.146C162.773 12.0492 162.85 11.9284 162.895 11.7944C162.94 11.6605 162.95 11.5175 162.926 11.3784C162.902 11.2392 162.844 11.1082 162.757 10.9971C162.67 10.886 162.556 10.7983 162.427 10.7418C162.297 10.6853 162.156 10.6617 162.015 10.6733C161.874 10.6849 161.739 10.7311 161.62 10.808C161.502 10.8849 161.404 10.99 161.336 11.1138C161.268 11.2376 161.232 11.3764 161.231 11.5176C161.233 11.6551 161.266 11.7904 161.327 11.9133C161.448 12.1431 161.616 12.3454 161.819 12.5076C162.022 12.6698 162.256 12.7884 162.507 12.8559H162.538ZM167.544 21.615L167.326 21.7949H167.292C165.572 21.8117 164.174 20.5357 164.174 18.9791C164.187 18.55 164.295 18.1291 164.491 17.7473C164.688 17.3655 164.967 17.0325 165.309 16.7726C165.549 16.582 165.817 16.4277 166.102 16.3145C166.561 16.1389 167.051 16.0573 167.542 16.0746L167.544 21.615Z" fill="#231F20"/>
<path d="M55.6163 8.21256C56.3384 7.69719 57.1914 7.39623 58.0771 7.34433C59.9119 7.20762 64.4377 8.33009 65.6705 8.52196V21.6246C65.5962 21.6246 65.5098 21.6414 65.4307 21.6462C65.3515 21.651 65.1908 21.6462 64.9942 21.6462C64.1855 21.6555 63.3809 21.5315 62.6125 21.2792C61.9311 21.0596 61.3046 20.6965 60.7753 20.2143L60.1805 19.7874L64.0372 17.8543V10.3975L57.9236 13.4555C57.9897 12.5122 58.205 11.5852 58.5616 10.7093C58.7843 10.1837 59.0574 9.68087 59.3771 9.20791L59.214 8.96807C58.006 9.4533 56.9844 10.3111 56.2975 11.4169C55.4709 12.8097 55.0412 14.4022 55.0551 16.0219C55.043 17.11 55.2333 18.1908 55.6163 19.2094C55.9941 20.1779 56.5654 21.0593 57.2952 21.7997C58.1155 22.6208 59.0949 23.2656 60.1733 23.6944C61.2991 24.1324 62.4983 24.3506 63.7062 24.3372C65.7001 24.3372 67.3598 23.7616 68.6854 22.6103C70.0109 21.4591 70.9175 19.8138 71.4052 17.6744L71.1246 17.5592C70.5887 18.5496 69.8758 19.4332 69.0211 20.1663C68.2436 20.8046 67.3331 21.261 66.3565 21.5023V8.56753C66.4521 8.57723 66.5482 8.58203 66.6443 8.58192H67.1C68.4191 8.58192 69.4585 8.21816 70.218 7.49063C70.9775 6.76311 71.4004 5.74058 71.4867 4.42304L71.2637 4.36548C71.0353 4.83524 70.7012 5.24571 70.2875 5.56469C69.9101 5.80764 69.4673 5.92902 69.0187 5.91247C68.3552 5.91247 67.3087 5.73818 65.8792 5.38961C65.1405 5.20493 64.5697 5.07541 64.1691 4.99627C63.2793 4.81398 62.567 4.68687 62.0297 4.61971C61.5582 4.55641 61.0832 4.52197 60.6075 4.51658C58.6439 4.51658 57.0778 4.99627 55.9089 5.95564C54.7401 6.91501 54.0302 8.29811 53.7791 10.1049H54.031C54.4347 9.38132 54.9776 8.74472 55.6283 8.23175L55.6163 8.21256ZM59.6625 19.2933C59.1595 18.7288 58.7542 18.0844 58.4633 17.3866C58.0708 16.4204 57.8751 15.3857 57.8876 14.343C57.8876 14.3142 57.8876 14.2854 57.8876 14.259L61.0583 12.6641V18.5666L59.6625 19.2933Z" fill="#231F20"/>
<path d="M86.1963 11.3065C85.8078 11.5464 85.4336 11.7598 85.0738 11.9397C84.6525 12.1481 84.2092 12.309 83.7523 12.4194V12.6185C83.9557 12.8146 84.1123 13.0539 84.2104 13.3188C84.353 13.7641 84.4171 14.2307 84.3999 14.6979L84.3807 21.6366L87.5586 24.3036L91.4585 21.0466L90.9956 20.5477L88.837 22.3249L87.1461 20.9075V17.8615C88.0863 17.0476 88.9465 16.3281 89.7268 15.7029C90.5071 15.0777 91.2754 14.4813 92.0317 13.9136L88.3093 9.8363C87.5346 10.4359 86.8271 10.9372 86.1939 11.3329L86.1963 11.3065ZM86.9998 17.0484V12.0117L89.6381 14.861L86.9998 17.0484Z" fill="#231F20"/>
<path d="M116.134 22.2074L118.628 24.2916L121.331 22.0587L120.851 21.5454L119.921 22.3129L118.944 21.4975V12.2755H120.228L121.293 11.3473H118.952V6.10194H118.777L115.085 8.98006V9.2199C115.613 9.2199 116.136 9.31344 116.136 10.6781V11.3497H115.085V12.2779H116.136L116.134 22.2074Z" fill="#231F20"/>
<path d="M159.262 22.3129L158.286 21.4975V12.2755H160.305V11.3449H158.286V6.10194H158.108L154.417 8.98006V9.2199C154.945 9.2199 155.468 9.31344 155.468 10.6781V11.3473H154.177L153.033 12.2779H155.468V22.2098L157.962 24.294L160.668 22.0611L160.188 21.5478L159.262 22.3129Z" fill="#231F20"/>
<path d="M166.968 34.1876L168.096 33.2594H165.481V28.014H165.318L161.627 30.8921V31.132C162.155 31.132 162.677 31.2255 162.677 32.5878V33.2594H161.627V34.1876H162.677V44.1195L165.172 46.2037L167.875 43.9708L167.395 43.4575L166.467 44.225L165.488 43.4095V34.1876H166.968Z" fill="#231F20"/>
<path d="M152.671 34.1876L153.798 33.2594H151.187V28.014H151.009L147.33 30.8921V31.132C147.858 31.132 148.38 31.2255 148.38 32.5878V33.2594H147.33V34.1876H148.38V44.1195L150.877 46.2037L153.566 43.9708L153.086 43.4575L152.156 44.225L151.179 43.4095V34.1876H152.671Z" fill="#231F20"/>
<path d="M187.326 34.1876L188.453 33.2594H185.839V28.014H185.664L181.973 30.8921V31.132C182.501 31.132 183.023 31.2255 183.023 32.5878V33.2594H181.973V34.1876H183.023V44.1195L185.518 46.2037L188.221 43.9708L187.741 43.4575L186.813 44.225L185.834 43.4095V34.1876H187.326Z" fill="#231F20"/>
<path d="M84.5966 44.2202L83.6132 43.3975V27.0546H83.4381L79.7469 29.9328V30.1726C80.2746 30.1726 80.7974 30.2637 80.7974 31.6284V44.1003L83.2918 46.1941L85.9948 43.9612L85.5152 43.4479L84.5966 44.2202Z" fill="#231F20"/>
<path d="M31.7255 41.8649V33.9022C31.0123 33.791 30.3215 33.5659 29.6797 33.2354C28.8179 32.8031 27.9953 32.2968 27.2213 31.722C26.2005 32.8696 24.8667 33.694 23.3838 34.094C23.1752 34.1377 22.9635 34.165 22.7506 34.1756V34.4514C22.9401 34.6337 23.1104 34.5953 23.1368 35.7825V44.0835C23.8506 44.1971 24.5419 44.4229 25.185 44.7527C26.046 45.1855 26.8684 45.691 27.6434 46.2637C28.5715 45.2215 29.7602 44.445 31.0876 44.0139C31.4231 43.902 31.7727 43.8374 32.1261 43.8221V43.5462C31.9198 43.3472 31.7351 43.4143 31.7351 41.8673L31.7255 41.8649ZM27.334 43.0666C26.8399 42.8507 26.3746 42.6636 25.9093 42.5005V34.166C26.4882 34.4458 27.031 34.6976 27.5379 34.9215C28.0447 35.1453 28.5196 35.3332 28.9625 35.4851V43.8149C28.3869 43.5343 27.8425 43.2824 27.334 43.0594" fill="#231F20"/>
<path d="M121.026 41.8649V33.9022C120.312 33.791 119.621 33.5659 118.978 33.2354C118.116 32.8031 117.294 32.2968 116.52 31.722C115.981 32.319 115.358 32.8337 114.67 33.2498C114.044 33.6172 113.373 33.901 112.673 34.094C112.464 34.1377 112.252 34.165 112.039 34.1756V34.4514C112.229 34.6337 112.399 34.5953 112.426 35.7825V44.0835C113.139 44.1967 113.831 44.4226 114.474 44.7527C115.335 45.1849 116.158 45.6904 116.932 46.2637C117.473 45.665 118.098 45.1486 118.789 44.7311C119.293 44.4341 119.829 44.1928 120.386 44.0115C120.721 43.8993 121.069 43.8347 121.422 43.8197V43.5438C121.216 43.3448 121.034 43.4119 121.034 41.8649H121.026ZM116.63 43.0642C116.138 42.8483 115.671 42.6612 115.205 42.4981V34.166C115.784 34.4458 116.328 34.6976 116.836 34.9215C117.345 35.1453 117.819 35.3332 118.259 35.4851V43.8149C117.683 43.5343 117.138 43.2824 116.63 43.0594" fill="#231F20"/>
<path d="M205.674 33.9022C204.96 33.791 204.269 33.5659 203.626 33.2354C202.764 32.8031 201.942 32.2968 201.167 31.722C200.629 32.319 200.006 32.8337 199.318 33.2498C198.692 33.6172 198.02 33.901 197.32 34.094C197.112 34.1377 196.9 34.165 196.687 34.1756V34.4514C196.877 34.6337 197.047 34.5953 197.073 35.7825V44.0835C197.787 44.1967 198.479 44.4226 199.122 44.7527C199.983 45.1849 200.805 45.6904 201.58 46.2637C202.119 45.6681 202.742 45.1542 203.429 44.7383C203.934 44.4413 204.47 44.2 205.027 44.0187C205.361 43.9065 205.71 43.8419 206.063 43.8269V43.551C205.856 43.352 205.674 43.4191 205.674 41.8721V33.9022ZM201.271 43.0714C200.791 42.8555 200.311 42.6684 199.846 42.5053V34.166C200.425 34.4458 200.968 34.6976 201.477 34.9215C201.985 35.1453 202.46 35.3332 202.902 35.4851V43.8149C202.323 43.5351 201.779 43.2832 201.271 43.0594" fill="#231F20"/>
<path d="M107.866 42.9826C106.966 43.4057 105.983 43.6252 104.988 43.6254C104.767 43.6254 104.554 43.6254 104.35 43.6038C104.146 43.5822 103.95 43.5678 103.767 43.5391L103.753 29.609C104.594 29.892 105.345 30.1598 106.007 30.4124C106.667 30.6643 107.25 30.9041 107.758 31.132L110.37 28.2539H110.226C109.281 28.2477 108.343 28.1005 107.442 27.8173C106.443 27.5096 105.484 27.0854 104.585 26.5534L98.8336 31.4414V38.7926C98.8421 39.1692 98.8156 39.5457 98.7545 39.9174C98.7136 40.1529 98.6228 40.377 98.4883 40.5746C97.9243 39.8965 97.5026 39.1118 97.2483 38.2673C96.9621 37.3015 96.8238 36.298 96.8382 35.2908C96.8145 33.996 97.1024 32.7144 97.6776 31.5541C98.3305 30.3515 99.2393 29.3068 100.34 28.4937L100.282 28.3786C98.4873 29.0245 96.9561 30.2454 95.9268 31.8515C94.8428 33.5348 94.285 35.5029 94.3246 37.5046C94.3246 40.0933 95.1329 42.2183 96.7494 43.8796C98.366 45.5409 100.428 46.3724 102.935 46.374C104.82 46.374 106.409 45.9463 107.701 45.0908C108.993 44.2354 110.078 42.8907 110.958 41.0567L110.756 40.9392C109.912 41.7689 108.94 42.4587 107.878 42.9826H107.866ZM103.081 43.4215C102.282 43.2549 101.514 42.9644 100.805 42.5605C100.116 42.1647 99.4986 41.6564 98.9776 41.0567C100.047 40.1501 100.798 39.2954 101.23 38.4928C101.674 37.6348 101.896 36.679 101.875 35.713V30.151L103.074 29.1293L103.081 43.4215Z" fill="#231F20"/>
<path d="M86.6208 39.1955H91.5928L91.9214 37.3847H86.9494L86.6208 39.1955Z" fill="#231F20"/>
<path d="M50.9921 33.7103C51.3594 34.124 51.8508 34.4076 52.3928 34.5186C53.8918 34.8399 54.9567 33.6263 55.2925 32.1081L55.0767 32.077C54.6596 32.2621 54.2024 32.338 53.7479 32.2976C53.2477 32.2024 52.7907 31.9504 52.4432 31.5781L50.2846 33.3721L48.1452 31.5853L45.4422 33.8206L45.9219 34.3315L46.8524 33.564L47.8286 34.3818V44.3066L50.323 46.2013L52.1674 44.6783L53.026 43.9588L52.5463 43.4455L51.6181 44.213L50.6396 43.3975V33.9909L50.9921 33.7103Z" fill="#231F20"/>
<path d="M158.742 30.849L156.969 28.652L154.727 30.506L156.497 32.7029L158.742 30.849Z" fill="#231F20"/>
<path d="M159.128 44.225L158.152 43.4095V33.9909L159.809 32.6238L159.32 32.0961L155.333 35.382V44.1195L157.828 46.2037L160.533 43.9708L160.058 43.4599L159.128 44.225Z" fill="#231F20"/>
<path d="M193.639 30.849L191.869 28.652L189.624 30.506L191.396 32.7029L193.639 30.849Z" fill="#231F20"/>
<path d="M194.025 44.225L193.049 43.4095V33.9909L194.706 32.6238L194.217 32.0961L190.231 35.382V44.1195L192.727 46.2037L195.43 43.9708L194.956 43.4599L194.025 44.225Z" fill="#231F20"/>
<path d="M77.9265 44.2178L76.9408 43.3927V33.895L74.7822 31.6644C74.7654 31.6764 73.0769 32.878 72.0096 33.492C71.4172 33.8326 70.1796 34.3387 69.2922 34.0772L69.2466 34.0581C69.3507 33.9613 69.4291 33.8402 69.4747 33.7057C69.5203 33.5711 69.5317 33.4273 69.5079 33.2872C69.4841 33.1471 69.4258 33.0152 69.3382 32.9033C69.2507 32.7913 69.1367 32.703 69.0064 32.6461C68.8762 32.5892 68.7339 32.5657 68.5923 32.5775C68.4507 32.5894 68.3143 32.6363 68.1953 32.7141C68.0764 32.7918 67.9787 32.8979 67.911 33.0228C67.8433 33.1478 67.8077 33.2876 67.8075 33.4297C67.8088 33.5675 67.8425 33.703 67.9059 33.8254C68.0267 34.0551 68.1937 34.2574 68.3963 34.4196C68.599 34.5818 68.8329 34.7004 69.0835 34.768C69.3245 34.8362 69.5741 34.8693 69.8246 34.8663C70.7192 34.8278 71.5906 34.57 72.3622 34.1156C72.5253 34.0221 72.7003 33.9165 72.8802 33.8038L74.1154 35.087V36.953C73.5387 36.9742 72.9656 37.0545 72.4053 37.1928C71.9773 37.2972 71.5598 37.441 71.1581 37.6221C70.6892 37.8515 70.2594 38.1534 69.8846 38.5167C69.4945 38.8847 69.1535 39.3015 68.87 39.7567C68.5919 40.1936 68.3876 40.6733 68.2656 41.1766C68.2091 41.4123 68.1793 41.6537 68.1769 41.8961C68.1769 44.0187 69.7671 45.2707 71.6738 46.067H72.1535L74.3121 44.2682L76.6098 46.1869L79.3152 43.954L78.8355 43.4407L77.9265 44.2178ZM74.1298 43.5271L73.9139 43.7069H73.878C72.1607 43.7237 70.76 42.4478 70.76 40.8912C70.7726 40.4621 70.881 40.0412 71.0773 39.6594C71.2736 39.2776 71.5528 38.9445 71.8945 38.6846C72.1357 38.4946 72.4031 38.3403 72.6884 38.2265C73.1472 38.0511 73.6365 37.9696 74.1274 37.9867L74.1298 43.5271Z" fill="#231F20"/>
<path d="M113.541 21.5382L112.51 22.3897L111.634 21.6582V5.14257H111.433L108.998 6.22666C108.739 6.06518 108.472 5.91709 108.197 5.78295C107.308 5.35692 106.352 5.08832 105.372 4.98907C104.174 4.86281 102.963 5.01212 101.832 5.42559C100.705 5.82506 99.6877 6.48209 98.86 7.34433C98.3411 7.87429 97.9118 8.48506 97.5889 9.15275C97.282 9.7975 97.0889 10.4905 97.018 11.201C96.9103 12.2462 97.0755 13.3016 97.4977 14.2638C98.0124 15.3844 98.7112 16.4107 99.5652 17.3002L100.033 16.763C99.3638 16.1278 98.8211 15.3718 98.4331 14.5348C98.0658 13.7577 97.9126 12.8966 97.9894 12.0405C98.0501 11.3378 98.2618 10.6564 98.6099 10.043C98.958 9.42957 99.4344 8.89848 100.006 8.48598C101.203 7.58633 102.705 7.19192 104.189 7.3875C104.711 7.44219 105.225 7.55894 105.72 7.73527C105.949 7.81502 106.175 7.90627 106.396 8.0087L98.8816 21.7901C97.5364 22.2157 96.3499 23.0354 95.4758 24.1429L96.0491 24.6394C96.8409 23.7791 97.8736 23.1773 99.0124 22.9125C100.151 22.6477 101.344 22.7321 102.434 23.1548C102.669 23.2467 102.899 23.3516 103.122 23.469L105.76 21.272L105.216 20.8355L103.777 22.0347C102.905 21.6612 101.967 21.4686 101.019 21.4687C100.683 21.469 100.348 21.4938 100.016 21.543L102.067 17.8255H108.42V22.2482L107.187 23.2627L107.667 23.788L108.986 22.6871L111.118 24.4763L114.037 22.0659L113.541 21.5382ZM108.389 15.7101H103.199L107.209 8.44521H107.226C107.556 8.62804 107.835 8.89062 108.038 9.209C108.241 9.52738 108.361 9.89145 108.387 10.268L108.389 15.7101Z" fill="#231F20"/>
<path d="M44.7346 44.2178L43.7513 43.3927V33.895L41.655 31.722L38.705 34.1468L39.1511 34.6864L39.933 34.0413L40.9307 35.0774V43.8149C40.3519 43.5351 39.8091 43.2832 39.3022 43.0594C38.7961 42.8363 38.3068 42.6444 37.8391 42.4789V34.8735C37.8636 34.226 37.7155 33.5837 37.4098 33.0123C37.2129 32.6792 36.9531 32.3875 36.6447 32.1537C36.529 32.0621 36.408 31.9772 36.2826 31.8995L33.2366 34.4106L33.7162 34.9287L34.5389 34.2475C34.7226 34.39 34.8698 34.5742 34.9682 34.7848C35.0664 35.02 35.1131 35.2735 35.1049 35.5283V44.0835C35.818 44.1968 36.5086 44.4226 37.1508 44.7527C38.0121 45.1849 38.8346 45.6904 39.6092 46.2637C40.1487 45.6686 40.7716 45.1548 41.4584 44.7383L41.5831 44.6711L43.4275 46.2109L44.0871 45.6665L46.1329 43.9876L45.6532 43.4743L44.7346 44.2178Z" fill="#231F20"/>
<path d="M180.152 44.2178L179.167 43.3927V33.895L177.07 31.722L174.12 34.1468L174.569 34.6864L175.351 34.0413L176.349 35.0774V43.8149C175.77 43.5351 175.227 43.2832 174.72 43.0594C174.214 42.8363 173.725 42.6444 173.257 42.4789V34.8735C173.28 34.2262 173.132 33.5841 172.828 33.0123C172.631 32.6792 172.371 32.3875 172.063 32.1537C171.947 32.0621 171.826 31.9772 171.7 31.8995L168.654 34.4106L169.134 34.9287L169.957 34.2475C170.14 34.3907 170.287 34.5747 170.386 34.7848C170.484 35.02 170.531 35.2735 170.523 35.5283V44.0835C171.236 44.1968 171.926 44.4226 172.569 44.7527C173.43 45.1849 174.252 45.6904 175.027 46.2637C175.567 45.6686 176.189 45.1548 176.876 44.7383L177.001 44.6711L178.845 46.2109L179.505 45.6665L181.548 43.9876L181.069 43.4743L180.152 44.2178Z" fill="#231F20"/>
<path d="M66.2749 44.2178L65.2892 43.3927V33.895L63.1954 31.722L59.389 34.8591C59.4113 34.2164 59.2632 33.5793 58.9597 33.0123C58.763 32.6798 58.5041 32.3883 58.197 32.1537C58.08 32.0627 57.9583 31.9778 57.8325 31.8995L54.7865 34.4106L55.2661 34.9287L56.0888 34.2475C56.2725 34.39 56.4197 34.5742 56.5181 34.7848C56.616 35.0201 56.6634 35.2735 56.6572 35.5283V43.2776L55.813 44.1938L58.0243 46.2565L60.1613 44.1938L59.389 43.1889V35.7705L61.4757 34.0461L62.4782 35.087V44.1243L64.9678 46.2037L67.6708 43.9708L67.1911 43.4575L66.2749 44.2178Z" fill="#231F20"/>
<path d="M134.206 44.2178L133.222 43.3927V33.895L131.126 31.722L127.322 34.8591C127.343 34.2166 127.195 33.5797 126.893 33.0123C126.695 32.6797 126.436 32.3882 126.128 32.1537C126.012 32.0627 125.891 31.9778 125.766 31.8995L122.72 34.4106L123.199 34.9287L124.022 34.2475C124.204 34.3908 124.351 34.5748 124.449 34.7848C124.548 35.0198 124.595 35.2734 124.588 35.5283V43.2776L123.746 44.1938L125.955 46.2565L128.092 44.1938L127.322 43.1889V35.7705L129.409 34.0461L130.411 35.087V44.1243L132.899 46.2037L135.604 43.9708L135.124 43.4575L134.206 44.2178Z" fill="#231F20"/>
<path d="M219.87 43.4575L218.949 44.2178L217.964 43.3927V33.895L215.87 31.722L212.064 34.8591C212.085 34.2168 211.938 33.58 211.637 33.0123C211.439 32.6797 211.179 32.3882 210.872 32.1537C210.759 32.065 210.632 31.981 210.509 31.8995L207.463 34.4106L207.943 34.9287L208.763 34.2475C208.947 34.39 209.094 34.5742 209.193 34.7848C209.292 35.0198 209.339 35.2734 209.332 35.5283V43.2776L208.49 44.1938L210.701 46.2565L212.838 44.1938L212.068 43.1889V35.7705L214.153 34.0461L215.155 35.087V44.1243L217.645 46.2037L220.348 43.9708L219.87 43.4575Z" fill="#231F20"/>
<path d="M73.2712 9.71638V20.9362L72.614 21.5934L75.0724 23.6489L76.7513 21.97L76.015 21.3536V13.9664L78.152 12.2371L79.1114 13.2301V20.8187C79.1114 23.2747 78.8067 23.8911 78.152 24.5986C77.4972 25.3062 76.629 25.9418 74.2257 26.5702L74.2833 26.8891C76.4419 26.8891 78.6005 26.5606 79.8812 25.4501C81.162 24.3396 81.8168 23.4738 81.8168 21.1329V12.1148L79.7997 10.0234L76.015 13.1222V5.14257H75.8423L72.259 8.01829V8.25813C72.7699 8.25813 73.2784 8.35167 73.2784 9.71638" fill="#231F20"/>
<path d="M145.215 13.8633L147.299 12.1388L148.301 13.1773V22.217L150.791 24.2964L153.494 22.0635L153.014 21.5502L152.093 22.3105L151.107 21.4855V11.9877L149.009 9.80992L145.203 12.9471C145.224 12.3047 145.077 11.6679 144.776 11.1003C144.577 10.7682 144.318 10.4768 144.01 10.2416C143.893 10.1506 143.772 10.0657 143.646 9.9874L140.614 12.4986L141.094 13.0142L141.914 12.3355C142.098 12.478 142.245 12.6621 142.344 12.8727C142.443 13.1077 142.49 13.3613 142.483 13.6162V21.3656L141.638 22.2818L143.85 24.3444L145.987 22.2818L145.217 21.2768V13.8633H145.215Z" fill="#231F20"/>
<path d="M123.705 9.71638V22.1882L126.2 24.2821L128.905 22.0491L128.425 21.5358L127.502 22.2985L126.519 21.4759V5.14257H126.341L122.65 8.02069V8.26053C123.178 8.26053 123.701 8.35407 123.701 9.71878" fill="#231F20"/>
<path d="M144.864 31.7124C144.666 31.7125 144.474 31.7813 144.321 31.9071C144.168 32.033 144.063 32.208 144.025 32.4024C143.986 32.5967 144.017 32.7984 144.11 32.9731C144.204 33.1477 144.355 33.2845 144.538 33.3601C144.418 33.4249 144.298 33.4872 144.174 33.54C143.637 33.7802 143.038 33.8473 142.461 33.7319C141.928 33.6095 141.438 33.3432 141.046 32.962C140.639 32.5784 140.301 32.1282 140.046 31.6308L136.47 34.8184V39.2579L138.698 41.1214L141.01 39.1907L142.228 40.21V43.364C142.07 43.292 141.912 43.2249 141.749 43.1673C140.988 42.8866 140.174 42.7832 139.367 42.8651C138.598 42.9488 137.863 43.2288 137.233 43.6782C136.956 43.876 136.701 44.1027 136.472 44.3545C136.41 44.4217 136.232 44.6184 136.172 44.6879L136.47 44.9277C136.906 44.6122 137.402 44.39 137.928 44.2753C138.454 44.1605 138.998 44.1557 139.525 44.261C140.649 44.5338 141.62 45.2366 142.231 46.2181L145.236 43.5391V38.6055L143.013 36.7443L140.701 38.663L139.482 37.6437V34.413C139.648 34.509 139.818 34.5977 139.991 34.6769C140.75 35.0432 141.595 35.1981 142.435 35.1254C143.136 35.0516 143.804 34.7915 144.37 34.3723C144.658 34.1585 144.925 33.9175 145.167 33.6527C145.399 33.4177 145.578 33.1344 145.689 32.8229C145.727 32.6953 145.735 32.5606 145.712 32.4295C145.689 32.2984 145.636 32.1745 145.556 32.0676C145.477 31.9607 145.374 31.8738 145.255 31.8139C145.136 31.7539 145.005 31.7224 144.872 31.722" fill="#231F20"/>
<path d="M21.4794 28.2179L19.1026 29.9543C17.7787 30.8897 16.685 32.1369 16.685 33.9357V43.695C16.296 44.1505 15.8639 44.5674 15.3946 44.9397V30.2326C15.505 30.2326 15.6944 30.2326 15.7928 30.2326C16.1702 30.2512 16.5471 30.1855 16.896 30.0403C17.2449 29.8951 17.5571 29.674 17.8098 29.3931C18.3023 28.8335 18.5757 28.0476 18.6301 27.0354L18.4838 26.9899C18.3441 27.3377 18.1296 27.6505 17.8554 27.9061C17.6224 28.0898 17.3317 28.185 17.0352 28.1747C16.3446 28.1262 15.6628 27.9908 15.0061 27.7718C13.9148 27.4504 12.7444 27.1002 11.6003 27.1002C10.3307 27.1002 9.3186 27.4664 8.56389 28.1987C7.80919 28.931 7.35029 29.9951 7.18719 31.391H7.35029C7.63107 30.7643 8.05201 30.2104 8.58068 29.7721C9.05781 29.4506 9.62201 29.2832 10.1972 29.2924C10.8108 29.3088 11.4207 29.3941 12.0152 29.5466C12.8595 29.7313 13.8596 29.9423 14.7135 30.1534V35.2477C13.2744 35.5835 12.092 36.526 11.9889 38.6055L12.2647 38.6558C13.224 37.6269 13.7709 37.3895 14.7135 37.3655V45.4122C13.332 46.2589 11.5691 46.35 10.0413 45.8919C8.88288 45.5345 7.77961 44.8414 7.12483 43.8005C7.04307 43.6649 6.97248 43.523 6.91377 43.376L6.65234 43.4455C6.92816 44.9613 8.17055 46.1629 9.45131 46.9113C10.6383 47.6352 12.0016 48.0185 13.3919 48.0193C15.1044 47.9809 16.589 47.247 17.8986 46.1893C18.6181 45.6113 19.3376 44.8846 19.9972 44.237V32.4007C19.9972 30.5539 20.1675 29.4723 21.6953 28.4649L21.4794 28.2179Z" fill="#231F20"/>
</svg>
