<svg width="141" height="85" viewBox="0 0 141 85" fill="none" xmlns="http://www.w3.org/2000/svg">
<path d="M33.9727 7.29285C35.6006 8.30611 36.7467 9.55193 37.4278 10.9971C38.4411 13.3226 39.5706 15.8474 40.7998 18.5882C42.029 21.329 43.2748 24.103 44.504 26.9103C45.7332 29.7175 46.9292 32.4583 48.0587 35.116C49.1883 37.7738 50.2182 40.2156 51.1151 42.4248C52.0121 44.6341 52.7264 46.5111 53.2579 48.0559C53.7895 49.6007 54.0553 50.6306 54.0553 51.1123C54.0553 51.9429 53.939 52.7402 53.7231 53.5375C53.5071 54.3348 53.1084 55.0657 52.5271 55.7135C51.9457 56.3613 51.1318 56.8929 50.1019 57.2749C49.0554 57.657 47.7099 57.8563 46.0654 57.8563C44.3213 57.8563 42.9094 57.6238 41.8131 57.1587C40.7167 56.6936 39.8198 56.1122 39.0889 55.3813C38.358 54.6504 37.76 53.8863 37.2783 53.089C36.7966 52.2917 36.2983 51.5276 35.7833 50.7967C35.2684 50.0658 34.687 49.4844 34.0392 49.0193C33.3914 48.5542 32.4944 48.3217 31.3814 48.3217H26.7304C25.3683 48.3217 24.3052 48.5542 23.4913 49.0193C22.694 49.4844 22.0461 50.0658 21.5312 50.7967C21.0163 51.5276 20.5512 52.2917 20.1193 53.089C19.6874 53.8863 19.1226 54.6504 18.4416 55.3813C17.7605 56.1122 16.8802 56.6936 15.7838 57.1587C14.6875 57.6238 13.2258 57.8563 11.382 57.8563C8.67439 57.8563 6.68109 57.2583 5.41866 56.0457C4.15624 54.8331 3.52502 53.4046 3.52502 51.7601C3.52502 51.1289 3.77419 50.0326 4.28912 48.4546C4.80406 46.8765 5.48511 44.9995 6.36548 42.8235C7.27908 40.6309 8.27573 38.2223 9.38866 35.5479C10.5016 32.8902 11.681 30.1328 12.9434 27.3089C14.2058 24.4685 15.4682 21.6446 16.7141 18.8042C17.9765 15.9637 19.1891 13.2395 20.3518 10.6316C21.0329 9.13665 22.1624 7.94067 23.7238 7.07691C25.3019 6.21314 27.046 5.76465 28.9895 5.76465C30.6838 5.76465 32.3449 6.27959 33.9727 7.29285ZM92.7254 7.54201C93.9878 8.68816 94.619 10.1499 94.619 11.9439C94.619 12.9572 94.3698 14.286 93.8549 15.9471C93.34 17.5916 92.6921 19.452 91.8948 21.545C91.0975 23.6213 90.1673 25.8804 89.1374 28.3056C88.0909 30.7308 87.0444 33.1892 85.9814 35.714C84.5362 39.1525 83.2738 42.2421 82.2439 44.9829C81.1974 47.7237 80.1343 50.0492 79.0546 51.9595C77.9583 53.8697 76.7789 55.3481 75.4999 56.3946C74.2209 57.441 72.6262 57.956 70.7492 57.956C68.8057 57.956 67.1945 57.5407 65.9154 56.6769C64.6364 55.8298 63.4736 54.5508 62.4271 52.8232C61.3807 51.1123 60.3674 48.9363 59.3707 46.3284C58.3741 43.7205 57.2113 40.6142 55.8492 37.0263C54.836 34.3187 53.7895 31.661 52.7264 29.0697C51.6633 26.4784 50.6999 24.0864 49.8195 21.9104C48.9557 19.7344 48.2415 17.7743 47.6767 16.0634C47.1285 14.3525 46.8462 13.007 46.8462 12.0269C46.8462 9.80109 47.5936 8.20645 49.1052 7.2264C50.6002 6.26297 52.4772 5.78126 54.7031 5.78126C56.7296 5.78126 58.3243 6.03042 59.4538 6.54536C60.5833 7.0603 61.58 7.72473 62.3939 8.53866C62.9753 9.12004 63.5567 9.9672 64.1381 11.0801C64.7194 12.1931 65.2676 13.4223 65.7659 14.7511C66.2809 16.08 66.7792 17.4255 67.2941 18.7876C67.8091 20.1497 68.2742 21.3955 68.706 22.525C69.1379 23.6712 69.5698 24.5848 69.9851 25.2824C70.4004 25.9801 70.7658 26.3289 71.1146 26.3289C71.4967 26.3289 71.8953 25.9801 72.3106 25.2824C72.7259 24.5848 73.1412 23.6712 73.5896 22.5582C74.0215 21.4453 74.47 20.2161 74.9351 18.8872C75.4002 17.5584 75.8819 16.2295 76.3803 14.9338C76.8786 13.6382 77.4268 12.4256 77.9749 11.3459C78.5231 10.2496 79.1044 9.41904 79.6858 8.83766C80.2174 8.30611 80.7323 7.85762 81.2473 7.49218C81.7622 7.12674 82.3103 6.82774 82.9249 6.57858C83.5229 6.32942 84.2206 6.16331 85.0013 6.03042C85.782 5.91415 86.7122 5.8477 87.8418 5.8477C89.8185 5.8477 91.4629 6.41247 92.7254 7.54201ZM117.392 7.29285C119.02 8.30611 120.167 9.55193 120.848 10.9971C121.861 13.3226 122.99 15.8474 124.22 18.5882C125.449 21.329 126.695 24.103 127.924 26.9103C129.153 29.7175 130.349 32.4583 131.479 35.116C132.608 37.7738 133.638 40.2156 134.535 42.4248C135.432 44.6341 136.146 46.5111 136.678 48.0559C137.209 49.6007 137.475 50.6306 137.475 51.1123C137.475 51.9429 137.359 52.7402 137.143 53.5375C136.927 54.3348 136.528 55.0657 135.947 55.7135C135.365 56.3613 134.552 56.8929 133.522 57.2749C132.475 57.657 131.13 57.8563 129.485 57.8563C127.741 57.8563 126.329 57.6238 125.233 57.1587C124.137 56.6936 123.24 56.1122 122.509 55.3813C121.778 54.6504 121.18 53.8863 120.698 53.089C120.216 52.2917 119.718 51.5276 119.203 50.7967C118.688 50.0658 118.107 49.4844 117.459 49.0193C116.811 48.5542 115.914 48.3217 114.801 48.3217H110.15C108.788 48.3217 107.725 48.5542 106.911 49.0193C106.114 49.4844 105.466 50.0658 104.951 50.7967C104.436 51.5276 103.971 52.2917 103.539 53.089C103.107 53.8863 102.542 54.6504 101.861 55.3813C101.18 56.1122 100.3 56.6936 99.2036 57.1587C98.1073 57.6238 96.6455 57.8563 94.8017 57.8563C92.0941 57.8563 90.1008 57.2583 88.8384 56.0457C87.576 54.8331 86.9448 53.4046 86.9448 51.7601C86.9448 51.1289 87.1939 50.0326 87.7089 48.4546C88.2238 46.8765 88.9049 44.9995 89.7852 42.8235C90.649 40.6475 91.6457 38.2223 92.7586 35.5645C93.8715 32.9068 95.0509 30.1494 96.3133 27.3255C97.5757 24.4851 98.8382 21.6612 100.084 18.8208C101.346 15.9803 102.559 13.2561 103.722 10.6482C104.403 9.15326 105.532 7.95728 107.094 7.09352C108.672 6.22975 110.416 5.78126 112.359 5.78126C114.104 5.76465 115.765 6.27959 117.392 7.29285Z" fill="#4B4B77"/>
<path d="M28.8233 78.8353C29.222 78.8353 29.604 78.6194 29.7868 78.2539C29.7868 78.2373 31.3648 75.3304 32.9262 71.892C33.7069 70.1644 34.5042 68.3206 35.1022 66.6097C35.4012 65.7459 35.6504 64.932 35.8331 64.1845C36.0158 63.4204 36.1321 62.7228 36.1321 62.0915C36.1321 59.6165 35.2185 57.4073 33.6903 55.8791C32.4113 54.6 30.6837 53.8193 28.8067 53.8193C26.9297 53.8193 25.2022 54.6 23.9231 55.8791C22.4115 57.3907 21.4813 59.5999 21.4813 62.0915C21.4813 62.7394 21.5976 63.437 21.7803 64.1845C22.0959 65.5134 22.6441 67.025 23.2587 68.5864C25.1357 73.254 27.8267 78.2373 27.8267 78.2705C28.0426 78.6027 28.4081 78.8353 28.8233 78.8353ZM112.243 78.8353C112.642 78.8353 113.024 78.6194 113.207 78.2539C113.207 78.2373 114.785 75.3304 116.346 71.892C117.127 70.1644 117.924 68.3206 118.522 66.6097C118.821 65.7459 119.07 64.932 119.253 64.1845C119.436 63.4204 119.552 62.7228 119.552 62.0915C119.552 59.6165 118.638 57.4073 117.11 55.8791C115.831 54.6 114.103 53.8193 112.226 53.8193C110.349 53.8193 108.622 54.6 107.343 55.8791C105.831 57.3907 104.901 59.5999 104.901 62.0915C104.901 62.7394 105.017 63.437 105.2 64.1845C105.516 65.5134 106.064 67.025 106.678 68.5864C108.555 73.254 111.246 78.2373 111.246 78.2705C111.462 78.6027 111.828 78.8353 112.243 78.8353Z" fill="#E0C7C1"/>
</svg>
