<svg width="162" height="73" viewBox="0 0 162 73" fill="none" xmlns="http://www.w3.org/2000/svg">
<path d="M4.99583 65.5535L33.0879 36.7579C33.1746 36.6722 33.2284 36.5588 33.2398 36.4374C33.2513 36.316 33.2198 36.1945 33.1507 36.0941C31.4424 33.7091 28.29 33.2956 27.122 31.693C23.6617 26.946 22.7837 24.2591 21.2967 24.4255C21.1929 24.4404 21.0975 24.4908 21.0266 24.568L10.8789 34.9709C5.04064 40.9507 4.20154 54.1311 4.05005 65.1688C4.04956 65.2787 4.0819 65.3861 4.143 65.4774C4.20411 65.5686 4.29116 65.6395 4.39289 65.6809C4.49462 65.7223 4.60637 65.7323 4.71383 65.7096C4.82128 65.6869 4.91953 65.6325 4.99583 65.5535Z" fill="#017CEE"/>
<path d="M62.4885 64.8427L33.6929 36.7487C33.6072 36.6617 33.4935 36.6078 33.372 36.5963C33.2504 36.5848 33.1287 36.6165 33.0282 36.6859C30.6432 38.3951 30.2296 41.5465 28.627 42.7145C23.8801 46.1748 21.1932 47.0528 21.3596 48.5398C21.3747 48.6432 21.425 48.7383 21.5021 48.8089L31.9049 58.9566C37.8847 64.7949 51.0652 65.634 62.1029 65.7855C62.2121 65.7856 62.3189 65.7532 62.4097 65.6923C62.5004 65.6314 62.571 65.5448 62.6124 65.4437C62.6537 65.3425 62.6641 65.2314 62.6421 65.1243C62.62 65.0173 62.5665 64.9193 62.4885 64.8427Z" fill="#00AD46"/>
<path d="M31.9051 58.9596C28.6361 55.7703 27.1212 49.4617 33.386 36.4526C23.2015 41.0043 19.6325 46.987 21.3875 48.7002L31.9051 58.9596Z" fill="#04D659"/>
<path d="M61.7768 7.35083L33.6859 36.1465C33.599 36.2321 33.545 36.3455 33.5336 36.467C33.5221 36.5884 33.5538 36.7099 33.6231 36.8103C35.3323 39.1952 38.4826 39.6088 39.6517 41.2113C43.112 45.9583 43.991 48.6452 45.4769 48.4788C45.5808 48.464 45.6762 48.4136 45.747 48.3363L55.8947 37.9334C61.733 31.9536 62.5722 18.7732 62.7237 7.73552C62.7239 7.6257 62.6913 7.51833 62.63 7.42717C62.5688 7.33601 62.4818 7.26522 62.38 7.22388C62.2783 7.18254 62.1665 7.17255 62.0591 7.19517C61.9516 7.21778 61.8533 7.27199 61.7768 7.35083Z" fill="#00C7D4"/>
<path d="M55.8997 37.9337C52.7105 41.2026 46.4019 42.7175 33.3918 36.4526C37.9435 46.6372 43.9262 50.2061 45.6394 48.4511L55.8997 37.9337Z" fill="#11E1EE"/>
<path d="M4.28323 8.06157L33.0788 36.1526C33.1645 36.2393 33.2781 36.2931 33.3994 36.3046C33.5208 36.3161 33.6422 36.2845 33.7426 36.2154C36.1276 34.5062 36.5412 31.3548 38.1438 30.1868C42.8907 26.7265 45.5776 25.8484 45.4112 24.3615C45.396 24.2578 45.3458 24.1624 45.2687 24.0914L34.8659 13.9437C28.8861 8.1054 15.7056 7.26625 4.66792 7.11476C4.55788 7.11406 4.45014 7.14637 4.35866 7.20752C4.26718 7.26867 4.19618 7.35583 4.15476 7.45778C4.11334 7.55972 4.10339 7.67175 4.12629 7.77938C4.1492 7.88701 4.20389 7.98532 4.28323 8.06157Z" fill="#E43921"/>
<path fill-rule="evenodd" clip-rule="evenodd" d="M34.871 13.9446C38.1399 17.1338 39.6547 23.4425 33.3899 36.4525C43.5745 31.9009 47.1435 25.9171 45.3884 24.2049L34.871 13.9446Z" fill="#FF7557"/>
<path d="M10.8789 34.9714C14.0681 31.7024 20.3768 30.1876 33.3868 36.4524C28.8352 26.2678 22.8525 22.6989 21.1393 24.4539L10.8789 34.9714Z" fill="#0CB6FF"/>
<path d="M33.3908 37.7034C34.0843 37.7034 34.6465 37.1412 34.6465 36.4476C34.6465 35.7541 34.0843 35.1919 33.3908 35.1919C32.6972 35.1919 32.135 35.7541 32.135 36.4476C32.135 37.1412 32.6972 37.7034 33.3908 37.7034Z" fill="#4A4848"/>
<path d="M70.5492 26.2543C70.4907 26.2528 70.435 26.2289 70.3937 26.1876C70.3523 26.1462 70.3284 26.0906 70.3269 26.0321C70.325 25.9909 70.3287 25.9497 70.3378 25.9095L73.0946 18.7198C73.1173 18.6447 73.1649 18.5796 73.2296 18.5352C73.2943 18.4908 73.3721 18.4698 73.4504 18.4756H74.2059C74.284 18.4701 74.3617 18.4913 74.4263 18.5357C74.4909 18.58 74.5386 18.6449 74.5616 18.7198L77.3064 25.9095L77.3283 26.0321C77.327 26.0907 77.3032 26.1464 77.2618 26.1878C77.2204 26.2292 77.1645 26.253 77.106 26.2543H76.5399C76.4722 26.2587 76.4051 26.2389 76.3506 26.1985C76.3111 26.1615 76.2808 26.1157 76.2619 26.065L75.6509 24.4873H72.0063L71.3953 26.065C71.3746 26.1176 71.3402 26.1637 71.2957 26.1985C71.2451 26.2377 71.1822 26.2575 71.1183 26.2543H70.5492ZM75.3281 23.5315L73.8281 19.5869L72.3282 23.5315H75.3281ZM78.6389 28.3652C78.6039 28.3658 78.569 28.3591 78.5366 28.3458C78.5042 28.3324 78.4749 28.3126 78.4504 28.2875C78.4279 28.264 78.4103 28.2361 78.3989 28.2056C78.3874 28.1751 78.3822 28.1426 78.3837 28.11V20.735C78.3822 20.7025 78.3874 20.6699 78.3989 20.6394C78.4103 20.609 78.4279 20.5811 78.4504 20.5576C78.4749 20.5325 78.5042 20.5126 78.5366 20.4992C78.569 20.4859 78.6039 20.4793 78.6389 20.4798H79.1501C79.2168 20.4828 79.28 20.5106 79.3272 20.5578C79.3745 20.605 79.4023 20.6683 79.4052 20.735V21.2234C79.6137 20.9404 79.8895 20.714 80.2077 20.5647C80.5258 20.4154 80.8762 20.3478 81.2271 20.3682C81.5552 20.3441 81.8844 20.398 82.1877 20.5255C82.491 20.653 82.7598 20.8505 82.9721 21.1018C83.3849 21.6466 83.6076 22.3118 83.6061 22.9954C83.6134 23.0764 83.6171 23.2023 83.6171 23.3731C83.6171 23.5438 83.6134 23.6698 83.6061 23.7508C83.6052 24.434 83.3827 25.0984 82.9721 25.6444C82.7588 25.8945 82.4899 26.0911 82.1868 26.2185C81.8838 26.3459 81.555 26.4005 81.2271 26.3779C80.8822 26.394 80.5385 26.3267 80.2252 26.1816C79.9119 26.0366 79.638 25.8181 79.4271 25.5447V28.123C79.4286 28.1556 79.4235 28.1881 79.412 28.2186C79.4006 28.2491 79.383 28.2769 79.3605 28.3004C79.3386 28.3261 79.3111 28.3464 79.2802 28.3599C79.2493 28.3733 79.2157 28.3796 79.182 28.3782L78.6389 28.3652ZM80.9948 25.465C81.2112 25.484 81.429 25.4493 81.6288 25.3639C81.8286 25.2785 82.0042 25.1452 82.14 24.9757C82.4011 24.5968 82.5402 24.1471 82.5387 23.687C82.546 23.6133 82.5496 23.506 82.5496 23.3651C82.5496 21.9652 82.0307 21.2652 80.9929 21.2652C80.7733 21.2507 80.5535 21.2896 80.3523 21.3786C80.1512 21.4677 79.9747 21.6042 79.8378 21.7765C79.5816 22.1236 79.4381 22.5411 79.4271 22.9724L79.4152 23.395L79.4271 23.8286C79.4348 24.247 79.5838 24.6505 79.8498 24.9737C79.9894 25.1386 80.1655 25.2688 80.364 25.354C80.5626 25.4393 80.7781 25.4773 80.9938 25.465H80.9948ZM86.6039 26.362C86.2543 26.365 85.9085 26.289 85.5923 26.1397C85.2981 26.0058 85.0421 25.8002 84.8479 25.5418C84.6726 25.2908 84.5792 24.9918 84.5807 24.6856C84.5774 24.453 84.6301 24.2229 84.7341 24.0148C84.8382 23.8067 84.9907 23.6266 85.1788 23.4897C85.6627 23.1413 86.2298 22.9268 86.8231 22.8678L88.4786 22.6346V22.3127C88.4786 21.5572 88.0468 21.1795 87.183 21.1795C86.902 21.168 86.6241 21.2416 86.3857 21.3908C86.1931 21.5093 86.0329 21.6737 85.9192 21.8692C85.904 21.9248 85.8732 21.9749 85.8305 22.0136C85.8124 22.0297 85.7913 22.042 85.7684 22.0497C85.7454 22.0574 85.7211 22.0605 85.6969 22.0585H85.2186C85.1859 22.0607 85.1532 22.0559 85.1226 22.0444C85.092 22.0329 85.0642 22.015 85.0411 21.9919C85.018 21.9687 85 21.941 84.9885 21.9104C84.977 21.8797 84.9722 21.847 84.9744 21.8144C84.9979 21.596 85.0825 21.3887 85.2186 21.2164C85.4137 20.9609 85.6697 20.7584 85.9631 20.6273C86.3484 20.4459 86.7712 20.3584 87.1969 20.3722C87.5204 20.3406 87.847 20.3766 88.1558 20.478C88.4646 20.5794 88.7491 20.744 88.9909 20.9612C89.3564 21.352 89.5523 21.8716 89.536 22.4064V26.0072C89.5368 26.0424 89.5303 26.0774 89.5169 26.11C89.5035 26.1426 89.4836 26.172 89.4583 26.1965C89.4348 26.2192 89.407 26.2368 89.3765 26.2482C89.346 26.2597 89.3135 26.2649 89.2809 26.2633H88.7696C88.7351 26.2671 88.7002 26.2631 88.6675 26.2516C88.6348 26.2401 88.6051 26.2214 88.5805 26.197C88.5559 26.1725 88.5372 26.1428 88.5256 26.1102C88.514 26.0775 88.5098 26.0426 88.5135 26.0081V25.5308C88.3289 25.7854 88.0846 25.9909 87.8019 26.1288C87.4273 26.3036 87.0158 26.3846 86.6029 26.365L86.6039 26.362ZM86.8371 25.5288C87.0552 25.5368 87.2724 25.4994 87.4752 25.4189C87.678 25.3384 87.8619 25.2167 88.0152 25.0614C88.1794 24.8758 88.3051 24.6594 88.3851 24.4249C88.4652 24.1903 88.498 23.9423 88.4816 23.695V23.384L87.193 23.5734C86.774 23.6118 86.3682 23.7407 86.0039 23.9511C85.8851 24.0151 85.7856 24.1096 85.7156 24.2249C85.6455 24.3401 85.6075 24.472 85.6053 24.6069C85.6008 24.7437 85.6322 24.8795 85.6966 25.0003C85.7609 25.1212 85.8559 25.223 85.972 25.2956C86.2312 25.456 86.5314 25.5381 86.8362 25.5318L86.8371 25.5288ZM93.4577 26.362C93.1178 26.3812 92.7776 26.3321 92.4569 26.2176C92.1363 26.1031 91.8419 25.9255 91.5911 25.6952C91.12 25.1785 90.8653 24.5007 90.8795 23.8016L90.8686 23.3571L90.8795 22.9126C90.8653 22.2181 91.1203 21.5449 91.5911 21.034C91.8402 20.8006 92.134 20.6202 92.4549 20.5037C92.7757 20.3872 93.1169 20.3371 93.4577 20.3563C93.9262 20.342 94.3913 20.4411 94.8132 20.6453C95.1458 20.805 95.4296 21.0506 95.6354 21.3569C95.8091 21.6066 95.9125 21.8986 95.9344 22.202C95.9389 22.2348 95.9351 22.2682 95.9235 22.2992C95.9118 22.3302 95.8926 22.3577 95.8676 22.3794C95.8149 22.4243 95.7474 22.4481 95.6782 22.4462H95.1451C95.0858 22.4505 95.0268 22.4347 94.9776 22.4014C94.9275 22.3516 94.8897 22.2908 94.867 22.2239C94.7783 21.9198 94.5906 21.6539 94.3338 21.4685C94.0751 21.3047 93.7727 21.2234 93.4667 21.2353C93.2638 21.2264 93.0613 21.2605 92.8724 21.3352C92.6835 21.4099 92.5124 21.5236 92.3704 21.6688C92.074 22.0341 91.92 22.4944 91.9368 22.9645L91.9259 23.3631L91.9368 23.7408C91.9176 24.2161 92.0717 24.6822 92.3704 25.0524C92.5132 25.1959 92.6847 25.3077 92.8736 25.3805C93.0625 25.4533 93.2645 25.4855 93.4667 25.475C93.7712 25.4865 94.0724 25.4093 94.3338 25.2527C94.5891 25.0611 94.7761 24.7924 94.867 24.4863C94.8897 24.4194 94.9275 24.3587 94.9776 24.3089C95.0004 24.2889 95.0269 24.2737 95.0557 24.2641C95.0844 24.2545 95.1149 24.2508 95.1451 24.2531H95.6782C95.7134 24.2524 95.7485 24.2589 95.781 24.2723C95.8136 24.2857 95.8431 24.3056 95.8676 24.3308C95.8926 24.3525 95.9118 24.3801 95.9235 24.4111C95.9351 24.442 95.9389 24.4754 95.9344 24.5082C95.9099 24.8108 95.8068 25.1018 95.6354 25.3524C95.4296 25.6586 95.1458 25.9043 94.8132 26.064C94.3926 26.274 93.9267 26.3774 93.4567 26.365L93.4577 26.362ZM97.522 26.2504C97.4875 26.2541 97.4527 26.2501 97.42 26.2386C97.3873 26.2271 97.3575 26.2085 97.3329 26.184C97.3083 26.1595 97.2896 26.1299 97.278 26.0972C97.2664 26.0645 97.2622 26.0297 97.2659 25.9952V18.6202C97.2644 18.5876 97.2696 18.5551 97.2811 18.5246C97.2926 18.4941 97.3101 18.4662 97.3327 18.4427C97.3573 18.4175 97.3867 18.3977 97.4193 18.3843C97.4518 18.3709 97.4868 18.3644 97.522 18.365H98.0771C98.1441 18.3675 98.2077 18.3951 98.2552 18.4424C98.3027 18.4897 98.3306 18.5532 98.3333 18.6202V21.2114C98.5342 20.949 98.7926 20.7363 99.0887 20.5895C99.4254 20.4309 99.7951 20.3547 100.167 20.3672C100.477 20.3499 100.787 20.4028 101.074 20.522C101.36 20.6413 101.616 20.8238 101.822 21.0559C102.241 21.5639 102.455 22.2103 102.42 22.8678V26.0012C102.421 26.0364 102.415 26.0714 102.401 26.1039C102.388 26.1365 102.368 26.166 102.343 26.1906C102.319 26.2132 102.291 26.2308 102.261 26.2423C102.23 26.2538 102.198 26.2588 102.165 26.2573H101.61C101.576 26.2609 101.541 26.2568 101.508 26.2453C101.476 26.2337 101.446 26.215 101.422 26.1906C101.397 26.1661 101.379 26.1365 101.367 26.1039C101.356 26.0714 101.351 26.0366 101.355 26.0022V22.9186C101.383 22.4767 101.244 22.0404 100.966 21.6958C100.827 21.5471 100.656 21.4312 100.467 21.3563C100.277 21.2813 100.074 21.2492 99.8701 21.2622C99.6623 21.2531 99.4548 21.2879 99.2614 21.3645C99.0681 21.4411 98.8931 21.5577 98.7479 21.7067C98.4582 22.0412 98.3107 22.4759 98.3372 22.9176V25.9952C98.338 26.0304 98.3315 26.0654 98.3181 26.098C98.3047 26.1306 98.2849 26.16 98.2596 26.1845C98.2361 26.2072 98.2082 26.2248 98.1777 26.2363C98.1472 26.2477 98.1146 26.2529 98.0821 26.2513L97.522 26.2504ZM106.338 26.362C106.001 26.3779 105.664 26.3241 105.349 26.2041C105.033 26.084 104.746 25.9003 104.504 25.6643C104.029 25.1321 103.764 24.4445 103.76 23.7309L103.749 23.3531L103.76 22.9864C103.774 22.2791 104.042 21.6005 104.515 21.0749C105.026 20.6055 105.699 20.3515 106.392 20.366C107.086 20.3805 107.747 20.6623 108.238 21.1526C108.716 21.7491 108.957 22.501 108.915 23.2644V23.4538C108.916 23.4888 108.909 23.5236 108.896 23.556C108.883 23.5884 108.863 23.6178 108.838 23.6422C108.814 23.6648 108.786 23.6823 108.756 23.6938C108.725 23.7053 108.693 23.7105 108.66 23.709H104.815V23.8086C104.825 24.2555 104.977 24.6877 105.249 25.0424C105.377 25.2034 105.542 25.3322 105.729 25.4187C105.916 25.5052 106.12 25.547 106.326 25.5407C106.617 25.5535 106.906 25.4845 107.159 25.3415C107.349 25.2301 107.515 25.0828 107.649 24.9079C107.687 24.8478 107.736 24.7952 107.793 24.7524C107.853 24.7258 107.918 24.7145 107.983 24.7195H108.528C108.588 24.7175 108.647 24.7373 108.694 24.7753C108.717 24.7944 108.734 24.8183 108.746 24.8453C108.757 24.8722 108.763 24.9015 108.761 24.9308C108.73 25.1576 108.62 25.3662 108.45 25.5198C108.21 25.7771 107.918 25.9809 107.594 26.1178C107.198 26.2884 106.77 26.3727 106.338 26.365V26.362ZM107.86 22.9395V22.9066C107.88 22.4534 107.729 22.0092 107.438 21.6619C107.296 21.5077 107.125 21.3846 106.933 21.3004C106.742 21.2162 106.535 21.1727 106.326 21.1727C106.117 21.1727 105.911 21.2162 105.719 21.3004C105.528 21.3846 105.356 21.5077 105.215 21.6619C104.937 22.0156 104.796 22.4573 104.816 22.9066V22.9395H107.86Z" fill="#51504F"/>
<path d="M70.3898 26.1873L70.3291 26.2481L70.3898 26.1873ZM70.3341 25.9092L70.2543 25.8783L70.3341 25.9092ZM73.0907 18.7195L73.1704 18.7504L73.0907 18.7195ZM74.5577 18.7195L74.4771 18.7484L74.5577 18.7195ZM77.3025 25.9092L77.3862 25.8943C77.3867 25.8893 77.3867 25.8843 77.3862 25.8793L77.3025 25.9092ZM77.3244 26.0318H77.4101V26.0168L77.3244 26.0318ZM77.2576 26.1873L77.3174 26.2481L77.2576 26.1873ZM76.3467 26.1982L76.2859 26.2591L76.2918 26.264L76.3467 26.1982ZM76.258 26.0647L76.3387 26.0378L76.258 26.0647ZM75.647 24.487L75.7269 24.4561C75.7206 24.44 75.7097 24.4262 75.6955 24.4164C75.6812 24.4066 75.6643 24.4014 75.647 24.4013V24.487ZM72.0024 24.487V24.4013C71.9851 24.4014 71.9683 24.4066 71.9541 24.4164C71.9399 24.4262 71.9289 24.44 71.9227 24.4561L72.0024 24.487ZM71.3914 26.0647L71.3117 26.0338L71.3914 26.0647ZM71.2918 26.1982L71.3466 26.264L71.2918 26.1982ZM75.3251 23.5313V23.617C75.3389 23.6169 75.3525 23.6135 75.3647 23.607C75.3769 23.6006 75.3873 23.5913 75.3951 23.5799C75.4029 23.5686 75.4079 23.5555 75.4096 23.5419C75.4113 23.5282 75.4098 23.5143 75.4049 23.5014L75.3251 23.5313ZM73.8252 19.5866L73.905 19.5567C73.8987 19.5407 73.8877 19.527 73.8735 19.5173C73.8593 19.5076 73.8424 19.5024 73.8252 19.5024C73.808 19.5024 73.7912 19.5076 73.777 19.5173C73.7628 19.527 73.7518 19.5407 73.7455 19.5567L73.8252 19.5866ZM72.3253 23.5313L72.2456 23.5014C72.2408 23.5143 72.2391 23.5282 72.2408 23.5419C72.2425 23.5555 72.2475 23.5686 72.2553 23.5799C72.2631 23.5913 72.2735 23.6006 72.2857 23.607C72.2979 23.6135 72.3115 23.6169 72.3253 23.617V23.5313ZM70.5473 26.1684C70.5287 26.1691 70.5101 26.1657 70.4928 26.1585C70.4756 26.1513 70.4602 26.1404 70.4477 26.1265L70.326 26.2471C70.354 26.2762 70.3877 26.2993 70.4248 26.3151C70.462 26.3308 70.502 26.3389 70.5424 26.3387L70.5473 26.1684ZM70.4477 26.1265C70.4339 26.1139 70.4229 26.0985 70.4157 26.0813C70.4085 26.064 70.4051 26.0455 70.4057 26.0268H70.2354C70.2353 26.0672 70.2434 26.1072 70.2591 26.1443C70.2749 26.1815 70.2979 26.2151 70.327 26.2431L70.4477 26.1265ZM70.4057 26.0268C70.4036 25.9934 70.4061 25.9599 70.4128 25.9272L70.2504 25.8733C70.2377 25.9221 70.2322 25.9725 70.2343 26.0229L70.4057 26.0268ZM70.4107 25.9351L73.1664 18.7455L73.007 18.6846L70.2513 25.8744L70.4107 25.9351ZM73.1675 18.7434C73.1849 18.6866 73.2197 18.6367 73.2672 18.6009C73.3189 18.5683 73.3794 18.5522 73.4405 18.5551V18.3836C73.3449 18.3807 73.2506 18.4072 73.1704 18.4594C73.0929 18.5151 73.0349 18.5939 73.005 18.6846L73.1675 18.7434ZM73.4425 18.5551H74.198V18.3836H73.4425V18.5551ZM74.198 18.5551C74.2594 18.552 74.3204 18.5681 74.3724 18.6009C74.4198 18.6367 74.4547 18.6866 74.4721 18.7434L74.6325 18.6846C74.6027 18.5939 74.5448 18.515 74.4671 18.4594C74.3866 18.407 74.292 18.3805 74.196 18.3836L74.198 18.5551ZM74.474 18.7444L77.2188 25.9342L77.3783 25.8733L74.6335 18.6837L74.474 18.7444ZM77.2147 25.9202L77.2366 26.0427L77.4051 26.0119L77.3832 25.8893L77.2147 25.9202ZM77.2357 26.0268C77.2363 26.0455 77.2329 26.0641 77.2257 26.0813C77.2185 26.0985 77.2076 26.1139 77.1938 26.1265L77.3144 26.2471C77.3435 26.2191 77.3666 26.1855 77.3824 26.1483C77.3981 26.1112 77.4062 26.0712 77.4061 26.0308L77.2357 26.0268ZM77.1938 26.1265C77.1812 26.1403 77.1658 26.1511 77.1486 26.1583C77.1314 26.1655 77.1128 26.169 77.0942 26.1684V26.3387C77.1346 26.3389 77.1745 26.3308 77.2117 26.3151C77.2489 26.2993 77.2825 26.2762 77.3105 26.2471L77.1938 26.1265ZM77.0942 26.1684H76.5281V26.3387H77.0942V26.1684ZM76.5281 26.1684C76.4804 26.1724 76.4328 26.1597 76.3935 26.1325L76.2839 26.264C76.3538 26.3174 76.4403 26.3442 76.5281 26.3398V26.1684ZM76.3995 26.1375C76.3691 26.1101 76.3456 26.076 76.3308 26.0378L76.1693 26.0916C76.1923 26.1549 76.2299 26.2119 76.2789 26.258L76.3995 26.1375ZM76.3298 26.0378L75.7188 24.4591L75.5593 24.5209L76.1703 26.0986L76.3298 26.0378ZM75.6391 24.4053H71.9945V24.5757H75.6391V24.4053ZM71.9147 24.4601L71.3027 26.0388L71.4622 26.1006L72.0732 24.5229L71.9147 24.4601ZM71.3017 26.0418C71.2863 26.0811 71.2605 26.1156 71.227 26.1414L71.3376 26.271C71.3942 26.2263 71.4376 26.167 71.4632 26.0996L71.3017 26.0418ZM71.228 26.1414C71.1925 26.1678 71.1486 26.1806 71.1044 26.1773V26.3477C71.1884 26.351 71.2707 26.3241 71.3367 26.272L71.228 26.1414ZM71.1044 26.1773H70.5374V26.3477H71.1044V26.1773ZM75.3959 23.5093L73.896 19.5646L73.7365 19.6255L75.2364 23.5701L75.3959 23.5093ZM73.7355 19.5646L72.2356 23.5093L72.3951 23.5701L73.895 19.6255L73.7355 19.5646ZM72.3153 23.6259H75.3152V23.4555H72.3153V23.6259ZM78.4377 28.2972L78.3778 28.3579L78.4377 28.2972ZM78.4377 20.5623L78.4985 20.6231L78.4377 20.5623ZM79.3157 20.5623L79.2508 20.6181L79.2608 20.6271L79.3157 20.5623ZM79.3934 21.2291H79.3076C79.3077 21.2471 79.3135 21.2646 79.3241 21.2791C79.3346 21.2937 79.3496 21.3045 79.3667 21.3101C79.3837 21.3158 79.4022 21.3159 79.4193 21.3105C79.4365 21.305 79.4514 21.2943 79.4622 21.2799L79.3934 21.2291ZM82.9603 21.1064L82.8935 21.1593L82.9603 21.1064ZM83.5942 23.0001H83.5085H83.5942ZM83.5942 23.7555L83.5095 23.7485L83.5942 23.7555ZM82.9603 25.6491L83.0271 25.7029L82.9603 25.6491ZM79.4153 25.5494L79.4831 25.4976C79.4722 25.4835 79.4572 25.4732 79.4401 25.468C79.4231 25.4629 79.4048 25.4632 79.3879 25.4689C79.3711 25.4746 79.3563 25.4854 79.3458 25.4998C79.3354 25.5143 79.3298 25.5316 79.3297 25.5494H79.4153ZM79.3485 28.3051L79.2878 28.2453L79.3485 28.3051ZM82.1261 24.9933L82.0574 24.9425L82.1261 24.9933ZM82.5248 23.7047L82.4401 23.6967V23.7017L82.5248 23.7047ZM79.8249 21.7931L79.7572 21.7413L79.8249 21.7931ZM79.4134 22.9891H79.3276H79.4134ZM79.4024 23.4107H79.3176H79.4024ZM79.4134 23.8442H79.3276H79.4134ZM79.8359 24.9894L79.9017 24.9355L79.8359 24.9894ZM78.624 28.2931C78.6001 28.2937 78.5763 28.2894 78.5542 28.2803C78.5321 28.2712 78.512 28.2576 78.4955 28.2403L78.3749 28.361C78.4075 28.3936 78.4464 28.4192 78.4892 28.4363C78.5321 28.4535 78.5779 28.4617 78.624 28.4606V28.2931ZM78.4955 28.2403C78.4808 28.2247 78.4694 28.2061 78.4622 28.1859C78.455 28.1657 78.4521 28.1442 78.4536 28.1228H78.2822C78.2805 28.1666 78.2878 28.2103 78.3036 28.2512C78.3194 28.2922 78.3433 28.3295 78.3739 28.361L78.4955 28.2403ZM78.4536 28.1228V20.7477H78.2822V28.1228H78.4536ZM78.4536 20.7477C78.4521 20.7262 78.455 20.7047 78.4622 20.6845C78.4694 20.6643 78.4808 20.6458 78.4955 20.6301L78.3749 20.5094C78.3442 20.5408 78.3202 20.5782 78.3044 20.6191C78.2887 20.6601 78.2815 20.7038 78.2832 20.7477H78.4536ZM78.4955 20.6301C78.512 20.6128 78.5321 20.5992 78.5542 20.5901C78.5763 20.581 78.6001 20.5767 78.624 20.5773V20.4059C78.5779 20.4047 78.5321 20.413 78.4892 20.4301C78.4464 20.4473 78.4075 20.4729 78.3749 20.5055L78.4955 20.6301ZM78.624 20.5773H79.1353V20.4059H78.624V20.5773ZM79.1353 20.5773C79.1565 20.5759 79.1778 20.5796 79.1973 20.5879C79.2169 20.5962 79.2342 20.6089 79.2479 20.6251L79.3775 20.5144C79.3476 20.4795 79.3102 20.4517 79.2681 20.433C79.226 20.4144 79.1803 20.4055 79.1343 20.4068L79.1353 20.5773ZM79.2579 20.6351C79.2741 20.6488 79.2868 20.6662 79.2951 20.6857C79.3034 20.7053 79.307 20.7265 79.3057 20.7477H79.4761C79.4774 20.7018 79.4684 20.6563 79.4497 20.6144C79.4311 20.5725 79.4033 20.5353 79.3685 20.5055L79.2579 20.6351ZM79.3057 20.7477V21.236H79.4761V20.7477H79.3057ZM79.4602 21.2869C79.6608 21.0147 79.9263 20.7971 80.2325 20.6539C80.5387 20.5106 80.8759 20.4462 81.2133 20.4666V20.2962C80.8484 20.2751 80.484 20.3456 80.1533 20.5012C79.8226 20.6568 79.5361 20.8926 79.3197 21.1872L79.4602 21.2869ZM81.2133 20.4666C81.5281 20.4423 81.8442 20.4928 82.1357 20.614C82.4273 20.7353 82.686 20.9239 82.8906 21.1643L83.0252 21.0586C82.8048 20.7973 82.5258 20.5918 82.2109 20.4588C81.8961 20.3258 81.5543 20.269 81.2133 20.2932V20.4666ZM82.8906 21.1643C83.2912 21.6935 83.5071 22.3394 83.5055 23.003L83.6759 22.9961C83.6762 22.2958 83.4473 21.6146 83.0241 21.0566L82.8906 21.1643ZM83.5055 23.008C83.5125 23.0858 83.5164 23.2074 83.5164 23.3788H83.6869C83.6869 23.2084 83.6869 23.0798 83.675 22.9931L83.5055 23.008ZM83.5164 23.3788C83.5164 23.5492 83.5165 23.6718 83.5055 23.7495L83.675 23.7645C83.6829 23.6788 83.6869 23.5492 83.6869 23.3788H83.5164ZM83.5055 23.7535C83.5048 24.4171 83.2891 25.0626 82.8906 25.5933L83.0241 25.6989C83.445 25.1401 83.6737 24.4601 83.6759 23.7605L83.5055 23.7535ZM82.8906 25.5923C82.685 25.8316 82.4262 26.0193 82.1349 26.1405C81.8436 26.2617 81.528 26.3129 81.2133 26.29V26.4603C81.5539 26.4825 81.895 26.4248 82.2093 26.292C82.5237 26.1591 82.8026 25.9546 83.0241 25.6949L82.8906 25.5923ZM81.2133 26.29C80.8816 26.3066 80.5507 26.2427 80.2489 26.1039C79.9472 25.9651 79.6834 25.7553 79.4802 25.4926L79.3446 25.5923C79.5634 25.8762 79.8473 26.1032 80.1724 26.2541C80.4975 26.4051 80.8542 26.4755 81.2122 26.4594L81.2133 26.29ZM79.3276 25.5425V28.1207H79.499V25.5425H79.3276ZM79.3276 28.1207C79.3291 28.1422 79.3262 28.1637 79.319 28.1839C79.3118 28.2042 79.3005 28.2227 79.2857 28.2383L79.4063 28.359C79.4369 28.3275 79.4609 28.2902 79.4766 28.2493C79.4924 28.2083 79.4997 28.1646 79.498 28.1207H79.3276ZM79.2817 28.2433C79.2678 28.2596 79.2504 28.2724 79.2306 28.2807C79.2109 28.289 79.1896 28.2926 79.1682 28.2912V28.4626C79.2142 28.464 79.26 28.4551 79.3021 28.4365C79.3441 28.4178 79.3814 28.39 79.4113 28.3549L79.2817 28.2433ZM79.1682 28.2912H78.624V28.4626H79.1682V28.2912ZM80.979 25.5614C81.2088 25.5805 81.4399 25.5427 81.6517 25.4512C81.8634 25.3598 82.0492 25.2176 82.1929 25.0372L82.0554 24.9375C81.9274 25.0959 81.7622 25.2201 81.5746 25.2992C81.387 25.3783 81.1828 25.4098 80.9801 25.391L80.979 25.5614ZM82.1919 25.0381C82.4639 24.6455 82.6096 24.1793 82.6096 23.7017L82.4392 23.6947C82.4408 24.1381 82.3069 24.5714 82.0554 24.9365L82.1919 25.0381ZM82.6085 23.7067C82.6165 23.6279 82.6205 23.5173 82.6205 23.3758H82.4491C82.4491 23.5153 82.449 23.62 82.4381 23.6897L82.6085 23.7067ZM82.6205 23.3758C82.6602 22.8044 82.5181 22.2351 82.2148 21.7493C82.0705 21.5618 81.8824 21.4126 81.6669 21.315C81.4514 21.2173 81.2151 21.1741 80.979 21.1892V21.3596C81.188 21.3449 81.3974 21.3819 81.5886 21.4675C81.7799 21.553 81.9471 21.6844 82.0754 21.85C82.3565 22.3066 82.4868 22.84 82.448 23.3748L82.6205 23.3758ZM80.979 21.1902C80.7462 21.1757 80.5134 21.2177 80.3003 21.3126C80.0872 21.4075 79.9002 21.5526 79.7552 21.7353L79.8908 21.835C80.0198 21.6733 80.1862 21.5454 80.3756 21.4623C80.565 21.3791 80.7717 21.3432 80.978 21.3576L80.979 21.1902ZM79.7552 21.7353C79.4877 22.0974 79.338 22.5331 79.3266 22.9831L79.498 22.9911C79.509 22.5749 79.6482 22.1721 79.8967 21.838L79.7552 21.7353ZM79.3266 22.9851L79.3157 23.4077H79.4861L79.4971 22.9851H79.3266ZM79.3157 23.4117L79.3266 23.8452H79.498L79.4871 23.4117H79.3157ZM79.3266 23.8462C79.3351 24.2831 79.4907 24.7045 79.7681 25.0422L79.9007 24.9335C79.6478 24.6236 79.5072 24.2372 79.5021 23.8373L79.3266 23.8462ZM79.7681 25.0422C79.9159 25.2165 80.102 25.3541 80.3119 25.4444C80.5219 25.5346 80.7499 25.575 80.978 25.5624V25.392C80.7751 25.4047 80.572 25.3699 80.3848 25.2905C80.1976 25.2111 80.0315 25.0892 79.8996 24.9345L79.7681 25.0422ZM85.5765 26.1554L85.6134 26.0786L85.5765 26.1554ZM84.8321 25.5574L84.7622 25.6062L84.8321 25.5574ZM85.1659 23.5014L85.2177 23.5691L85.1659 23.5014ZM86.8104 22.8795L86.8223 22.9642L86.8104 22.8795ZM88.4658 22.6463L88.4777 22.7309C88.4981 22.7281 88.5168 22.7179 88.5304 22.7024C88.5439 22.6868 88.5514 22.6669 88.5514 22.6463H88.4658ZM86.3658 21.4015L86.4117 21.4732L86.3658 21.4015ZM85.8994 21.8798L85.8247 21.838C85.8222 21.8427 85.8202 21.8478 85.8187 21.8529L85.8994 21.8798ZM85.8107 22.0243L85.7569 21.9576L85.75 21.9636L85.8107 22.0243ZM85.0214 22.0024L84.9566 22.0582L84.9655 22.0672L85.0214 22.0024ZM84.9546 21.825H84.8689H84.9546ZM85.1987 21.2271L85.129 21.1782L85.1987 21.2271ZM85.9433 20.638L85.9811 20.7148L85.9433 20.638ZM88.966 20.9709L88.9033 21.0288L88.966 20.9709ZM89.4325 26.2052L89.4922 26.266L89.4325 26.2052ZM88.5545 26.2052L88.4896 26.2611C88.4922 26.2645 88.4952 26.2675 88.4986 26.27L88.5545 26.2052ZM88.4877 25.5385H88.5733C88.5729 25.5205 88.5669 25.5031 88.556 25.4887C88.5452 25.4744 88.5301 25.4638 88.5129 25.4585C88.4957 25.4532 88.4772 25.4534 88.4602 25.4592C88.4431 25.465 88.4283 25.476 88.4178 25.4907L88.4877 25.5385ZM87.7761 26.1365L87.7362 26.0607L87.7761 26.1365ZM87.9984 25.081L87.9366 25.0212L87.9984 25.081ZM88.4648 23.4027H88.5505C88.5505 23.3902 88.5478 23.3779 88.5425 23.3666C88.5373 23.3553 88.5298 23.3453 88.5203 23.3372C88.5108 23.3292 88.4997 23.3233 88.4877 23.32C88.4757 23.3166 88.4631 23.316 88.4508 23.318L88.4648 23.4027ZM87.1761 23.5911L87.1881 23.6757L87.1761 23.5911ZM85.9871 23.9688L86.033 24.0405L85.9871 23.9688ZM85.9542 25.3132L85.9074 25.384L85.9542 25.3132ZM86.5871 26.2949C86.2502 26.298 85.917 26.2247 85.6124 26.0806L85.5387 26.2352C85.866 26.3898 86.2241 26.4684 86.5861 26.4653L86.5871 26.2949ZM85.6124 26.0806C85.3306 25.9519 85.0856 25.7545 84.8998 25.5066L84.7622 25.6062C84.9644 25.8769 85.2315 26.0925 85.5387 26.2331L85.6124 26.0806ZM84.9018 25.5096C84.7362 25.2731 84.6482 24.991 84.6497 24.7023H84.4783C84.4767 25.0255 84.5752 25.3413 84.7603 25.6062L84.9018 25.5096ZM84.6497 24.7023C84.6461 24.4819 84.6957 24.2639 84.7945 24.0668C84.8932 23.8697 85.0381 23.6993 85.2168 23.5701L85.1121 23.4356C84.9128 23.5807 84.7512 23.7716 84.6411 23.9922C84.5309 24.2129 84.4755 24.4567 84.4793 24.7033L84.6497 24.7023ZM85.2168 23.5691C85.6888 23.23 86.2419 23.0213 86.8203 22.9642L86.7964 22.7948C86.188 22.8558 85.6066 23.0765 85.111 23.4346L85.2168 23.5691ZM86.8203 22.9642L88.4758 22.7309L88.4518 22.5615L86.7954 22.7948L86.8203 22.9642ZM88.5495 22.6463V22.3244H88.379V22.6463H88.5495ZM88.5495 22.3244C88.5613 22.1554 88.5357 21.9858 88.4745 21.8279C88.4134 21.6699 88.3182 21.5274 88.1957 21.4105C87.9001 21.1874 87.5336 21.079 87.1641 21.1055V21.2769C87.492 21.2507 87.8183 21.3438 88.083 21.539C88.1878 21.6396 88.2691 21.7623 88.3208 21.8981C88.3725 22.0339 88.3934 22.1795 88.3821 22.3244H88.5495ZM87.1641 21.1055C86.8651 21.0934 86.5694 21.1723 86.3161 21.3317L86.4157 21.4732C86.6406 21.3322 86.903 21.2627 87.1682 21.2739L87.1641 21.1055ZM86.318 21.3307C86.1122 21.456 85.9409 21.6307 85.8197 21.839L85.9692 21.9227C86.0761 21.7396 86.2267 21.5858 86.4077 21.4752L86.318 21.3307ZM85.8197 21.8529C85.8091 21.8928 85.7877 21.929 85.7579 21.9576L85.8646 22.0911C85.9202 22.042 85.9606 21.9781 85.9811 21.9068L85.8197 21.8529ZM85.7519 21.9646C85.7311 21.9801 85.705 21.9869 85.6792 21.9835V22.1539C85.7144 22.1557 85.7496 22.1505 85.7828 22.1385C85.816 22.1265 85.8465 22.1081 85.8725 22.0841L85.7519 21.9646ZM85.6792 21.9835H85.2008V22.1539H85.6792V21.9835ZM85.2008 21.9835C85.156 21.9839 85.1125 21.9676 85.0792 21.9377L84.9676 22.0672C85.0321 22.1237 85.1151 22.1545 85.2008 22.1539V21.9835ZM85.0882 21.9466C85.0576 21.9131 85.0409 21.8693 85.0413 21.824H84.8709C84.8703 21.9098 84.9012 21.9927 84.9576 22.0573L85.0882 21.9466ZM85.0413 21.828C85.0646 21.6252 85.1439 21.433 85.2705 21.2729L85.131 21.1732C84.9848 21.3595 84.8946 21.5835 84.8709 21.819L85.0413 21.828ZM85.2705 21.2739C85.4573 21.0299 85.7023 20.8366 85.9831 20.7118L85.9084 20.5583C85.6019 20.6955 85.3346 20.9073 85.131 21.1743L85.2705 21.2739ZM85.9842 20.7118C86.3577 20.536 86.7675 20.4517 87.1801 20.4657V20.2952C86.7408 20.2814 86.3046 20.3723 85.9074 20.5603L85.9842 20.7118ZM87.1801 20.4657C87.491 20.4348 87.8049 20.4687 88.102 20.5653C88.3991 20.6619 88.673 20.819 88.9063 21.0267L89.0319 20.9111C88.7826 20.6859 88.4894 20.5149 88.1706 20.4088C87.8519 20.3028 87.5146 20.2641 87.1801 20.2952V20.4657ZM88.9073 21.0277C89.2577 21.4026 89.4451 21.9011 89.4285 22.414H89.5989C89.6152 21.8577 89.411 21.3176 89.0309 20.9111L88.9073 21.0277ZM89.4285 22.414V26.0149H89.5989V22.414H89.4285ZM89.4285 26.0149C89.4291 26.0388 89.4248 26.0626 89.4157 26.0847C89.4066 26.1069 89.393 26.1269 89.3757 26.1434L89.4962 26.264C89.5287 26.2314 89.5544 26.1924 89.5715 26.1496C89.5887 26.1068 89.5969 26.061 89.5959 26.0149H89.4285ZM89.3757 26.1434C89.36 26.1581 89.3414 26.1694 89.3212 26.1766C89.3009 26.1838 89.2794 26.1867 89.258 26.1853V26.3557C89.3019 26.3573 89.3456 26.35 89.3865 26.3342C89.4274 26.3185 89.4648 26.2946 89.4962 26.264L89.3757 26.1434ZM89.258 26.1853H88.7468V26.3557H89.258V26.1853ZM88.7468 26.1853C88.6982 26.1868 88.6507 26.1705 88.6132 26.1395L88.5026 26.269C88.5706 26.3271 88.6574 26.3583 88.7468 26.3567V26.1853ZM88.6232 26.1484C88.5913 26.1114 88.5745 26.0637 88.5764 26.0149H88.4059C88.404 26.1041 88.4349 26.191 88.4927 26.2591L88.6232 26.1484ZM88.5764 26.0149V25.5375H88.4059V26.0149H88.5764ZM88.4209 25.4887C88.2443 25.7325 88.0106 25.9293 87.7402 26.0617L87.8189 26.2132C88.1141 26.0683 88.369 25.853 88.5614 25.5863L88.4209 25.4887ZM87.7402 26.0617C87.3816 26.2313 86.9875 26.312 86.5911 26.2969V26.4673C87.0152 26.4828 87.4367 26.3956 87.8199 26.2132L87.7402 26.0617ZM86.8242 25.6342C87.0537 25.6423 87.2824 25.6027 87.4958 25.518C87.7092 25.4332 87.9027 25.3051 88.0641 25.1418L87.9415 25.0222C87.7962 25.1692 87.6217 25.2843 87.4294 25.3602C87.237 25.436 87.0308 25.471 86.8242 25.4627V25.6342ZM88.0641 25.1418C88.2358 24.9482 88.3676 24.7225 88.4518 24.4777C88.5359 24.233 88.5708 23.974 88.5545 23.7157H88.384C88.4003 23.952 88.3696 24.1892 88.2936 24.4137C88.2177 24.6381 88.098 24.8453 87.9415 25.0232L88.0641 25.1418ZM88.5545 23.7157V23.4047H88.384V23.7157H88.5545ZM88.4548 23.317L87.1661 23.5054L87.191 23.6748L88.4796 23.4864L88.4548 23.317ZM87.1661 23.5054C86.7346 23.5457 86.3171 23.6793 85.9423 23.897L86.037 24.0396C86.3909 23.8364 86.7846 23.7123 87.191 23.6757L87.1661 23.5054ZM85.9433 23.896C85.8121 23.9674 85.7023 24.0724 85.625 24.2003C85.5478 24.3281 85.5059 24.4742 85.5037 24.6236H85.6752C85.6774 24.5028 85.7122 24.3849 85.7757 24.2822C85.8391 24.1794 85.929 24.0956 86.036 24.0396L85.9433 23.896ZM85.5037 24.6236C85.4992 24.7745 85.5341 24.9239 85.6051 25.0571C85.6761 25.1903 85.7806 25.3026 85.9084 25.383L86.003 25.2415C85.8986 25.1766 85.8132 25.0853 85.7555 24.9768C85.6977 24.8683 85.6697 24.7464 85.6742 24.6236H85.5037ZM85.9103 25.385C86.1845 25.5534 86.5016 25.6389 86.8233 25.6312V25.4607C86.5343 25.4682 86.2494 25.3916 86.003 25.2405L85.9103 25.385ZM91.5772 25.7129L91.5164 25.7727L91.5772 25.7129ZM90.8656 23.8193H90.7809H90.8656ZM90.8547 23.3748H90.77H90.8547ZM90.8656 22.9303H90.7809H90.8656ZM91.5772 21.0516L91.638 21.1125L91.5772 21.0516ZM94.8003 20.663L94.7604 20.7387L94.8003 20.663ZM95.6225 21.3735L95.5497 21.4194L95.6225 21.3735ZM95.9215 22.2187H95.8359H95.9215ZM95.8547 22.3961L95.9106 22.4609L95.8547 22.3961ZM94.9658 22.418L95.0196 22.3512L94.9658 22.418ZM94.8541 22.2406L94.7734 22.2696L94.8541 22.2406ZM94.321 21.4852L94.2731 21.556L94.321 21.4852ZM92.3536 21.6845L92.2918 21.6257L92.3536 21.6845ZM91.92 22.9801H91.8344H91.92ZM91.9091 23.3788H91.8234H91.9091ZM91.92 23.7565H91.8344H91.92ZM92.3536 25.0681L92.2918 25.1269L92.3536 25.0681ZM94.321 25.2674L94.3669 25.3391L94.321 25.2674ZM94.8541 24.501L94.7754 24.4681L94.8541 24.501ZM94.9658 24.3236L95.0196 24.3904L95.0266 24.3844L94.9658 24.3236ZM95.8547 24.3455L95.7939 24.4053L95.8547 24.3455ZM95.9215 24.5229L95.8369 24.5139L95.9215 24.5229ZM95.6225 25.3671L95.5508 25.3212L95.6225 25.3671ZM94.8003 26.0786L94.7604 26.0029L94.8003 26.0786ZM93.4449 26.278C93.116 26.2974 92.7864 26.2506 92.4759 26.1403C92.1654 26.0301 91.8801 25.8587 91.6371 25.6362L91.5175 25.7578C91.7761 25.9959 92.0798 26.1798 92.4107 26.2986C92.7416 26.4174 93.0929 26.4687 93.4439 26.4494L93.4449 26.278ZM91.638 25.6371C91.1831 25.1365 90.9374 24.4806 90.9514 23.8043L90.7809 23.8103C90.7685 24.5289 91.0316 25.2251 91.5164 25.7558L91.638 25.6371ZM90.9514 23.8053L90.9403 23.3608H90.77L90.7809 23.8053H90.9514ZM90.9403 23.3648L90.9514 22.9203H90.7809L90.77 23.3648H90.9403ZM90.9514 22.9213C90.9362 22.2484 91.1823 21.5958 91.638 21.1005L91.5164 20.9799C91.0303 21.5058 90.7668 22.1994 90.7809 22.9153L90.9514 22.9213ZM91.638 21.1005C91.8793 20.875 92.1638 20.7009 92.4744 20.5886C92.785 20.4764 93.1152 20.4285 93.4449 20.4477V20.2773C93.0928 20.258 92.7405 20.3103 92.4092 20.4311C92.0779 20.5519 91.7746 20.7386 91.5175 20.9799L91.638 21.1005ZM93.4449 20.4477C93.8995 20.4335 94.3507 20.5292 94.7604 20.7267L94.8393 20.5753C94.4051 20.3645 93.9264 20.2619 93.4439 20.2763L93.4449 20.4477ZM94.7604 20.7267C95.0795 20.8792 95.352 21.1142 95.5497 21.4074L95.6943 21.3167C95.4806 20.9976 95.1854 20.7417 94.8393 20.5753L94.7604 20.7267ZM95.5508 21.4094C95.7156 21.6449 95.8143 21.9202 95.8369 22.2067L96.0073 22.1978C95.984 21.8793 95.8755 21.573 95.6933 21.3108L95.5508 21.4094ZM95.8369 22.2157C95.8397 22.2341 95.8377 22.2528 95.8313 22.2703C95.8248 22.2877 95.8141 22.3032 95.8 22.3154L95.9116 22.4449C95.948 22.4149 95.9763 22.3761 95.9937 22.3321C96.0111 22.2882 96.0171 22.2406 96.0112 22.1938L95.8369 22.2157ZM95.8 22.3154C95.7626 22.3464 95.715 22.3627 95.6664 22.3612V22.5317C95.7561 22.5333 95.8433 22.5021 95.9116 22.444L95.8 22.3154ZM95.6664 22.3612H95.1332V22.5317H95.6664V22.3612ZM95.1332 22.3612C95.0935 22.3652 95.0536 22.3561 95.0196 22.3353L94.913 22.4688C94.9769 22.5147 95.0546 22.5372 95.1332 22.5326V22.3612ZM95.0196 22.3353C94.9809 22.2943 94.9517 22.2453 94.9339 22.1918L94.7764 22.2576C94.8043 22.3379 94.8512 22.4103 94.913 22.4688L95.0196 22.3353ZM94.9359 22.1958C94.8404 21.8742 94.6405 21.5937 94.3678 21.3985L94.2751 21.542C94.5159 21.7174 94.6913 21.9682 94.7734 22.2546L94.9359 22.1958ZM94.3698 21.3985C94.097 21.2249 93.778 21.1384 93.4549 21.1503V21.3207C93.7438 21.309 94.0294 21.3851 94.2741 21.539L94.3698 21.3985ZM93.4549 21.1503C93.2397 21.1409 93.025 21.1771 92.8247 21.2564C92.6244 21.3358 92.4432 21.4565 92.2928 21.6108L92.4164 21.7284C92.5509 21.591 92.713 21.4837 92.892 21.4136C93.071 21.3435 93.2629 21.3122 93.4549 21.3217V21.1503ZM92.2928 21.6108C91.9812 21.9922 91.819 22.4739 91.8363 22.9662L92.0068 22.9721C91.9883 22.5213 92.1338 22.0791 92.4164 21.7274L92.2928 21.6108ZM91.8363 22.9671L91.8254 23.3658H91.9958L92.0068 22.9671H91.8363ZM91.8254 23.3718L91.8363 23.7495L92.0068 23.7445L91.9958 23.3668L91.8254 23.3718ZM91.8363 23.7505C91.8177 24.2463 91.98 24.7319 92.2928 25.1169L92.4164 24.9993C92.1327 24.6439 91.9872 24.1979 92.0068 23.7436L91.8363 23.7505ZM92.2928 25.1169C92.4441 25.2693 92.6257 25.388 92.8259 25.4655C93.0261 25.5429 93.2405 25.5773 93.4549 25.5664V25.395C93.2635 25.4056 93.0719 25.3755 92.893 25.3068C92.714 25.2381 92.5516 25.1323 92.4164 24.9963L92.2928 25.1169ZM93.4549 25.5664C93.7757 25.5778 94.0929 25.4958 94.3678 25.3302L94.2751 25.1867C94.0277 25.3342 93.7427 25.4065 93.4549 25.395V25.5664ZM94.3698 25.3292C94.6406 25.1273 94.8391 24.8435 94.9359 24.5199L94.7744 24.4631C94.6902 24.7518 94.5155 25.0057 94.2761 25.1877L94.3698 25.3292ZM94.9339 24.5249C94.9517 24.4714 94.9809 24.4224 95.0196 24.3814L94.913 24.2479C94.8511 24.3066 94.8042 24.3794 94.7764 24.4601L94.9339 24.5249ZM95.0266 24.3744C95.0414 24.3625 95.0584 24.3535 95.0767 24.3482C95.095 24.3429 95.1142 24.3413 95.1332 24.3435V24.1731C95.0918 24.1706 95.0504 24.1765 95.0114 24.1904C94.9724 24.2042 94.9365 24.2258 94.9059 24.2538L95.0266 24.3744ZM95.1332 24.3435H95.6664V24.1731H95.1332V24.3435ZM95.6664 24.3435C95.6903 24.3429 95.7141 24.3473 95.7362 24.3564C95.7584 24.3655 95.7784 24.3791 95.795 24.3963L95.9156 24.2758C95.8829 24.2433 95.8439 24.2176 95.8011 24.2005C95.7583 24.1834 95.7125 24.1751 95.6664 24.1761V24.3435ZM95.8 24.4004C95.8141 24.4125 95.8248 24.4279 95.8313 24.4454C95.8377 24.4628 95.8397 24.4816 95.8369 24.5L96.0062 24.517C96.0121 24.4701 96.0061 24.4224 95.9887 24.3785C95.9713 24.3346 95.943 24.2959 95.9066 24.2658L95.8 24.4004ZM95.8369 24.5089C95.8129 24.7971 95.7138 25.0741 95.5497 25.3122L95.6933 25.4039C95.8732 25.1409 95.9815 24.8355 96.0073 24.5179L95.8369 24.5089ZM95.5497 25.3122C95.3521 25.6055 95.0795 25.8405 94.7604 25.9929L94.8393 26.1445C95.1853 25.9779 95.4804 25.7219 95.6943 25.4029L95.5497 25.3122ZM94.7594 25.994C94.3502 26.1928 93.8987 26.2886 93.4439 26.273V26.4434C93.9265 26.4595 94.4056 26.3568 94.8393 26.1445L94.7594 25.994ZM97.3188 26.1803L97.2541 26.2361L97.264 26.2451L97.3188 26.1803ZM97.3188 18.4345L97.3796 18.4943L97.3188 18.4345ZM98.2417 18.4345L98.177 18.4903L98.1859 18.4993L98.2417 18.4345ZM98.3194 21.2011H98.2348C98.2349 21.2188 98.2405 21.236 98.2508 21.2503C98.2611 21.2646 98.2757 21.2754 98.2924 21.2812C98.3091 21.287 98.3272 21.2875 98.3441 21.2826C98.3611 21.2777 98.3761 21.2677 98.3872 21.2539L98.3194 21.2011ZM99.0749 20.5792L99.1128 20.656L99.0749 20.5792ZM101.809 21.0457L101.744 21.1015L101.809 21.0457ZM102.331 26.1793L102.27 26.1195L102.331 26.1793ZM101.409 26.1793L101.344 26.2352L101.353 26.2441L101.409 26.1793ZM100.953 21.6945L100.889 21.7503L100.953 21.6945ZM98.731 21.7054L98.6692 21.6467L98.731 21.7054ZM98.2427 26.1833L98.182 26.1235L98.2427 26.1833ZM97.5092 26.1643C97.4606 26.1659 97.413 26.1496 97.3756 26.1185L97.264 26.2481C97.332 26.3062 97.4188 26.3373 97.5082 26.3358L97.5092 26.1643ZM97.3856 26.1275C97.3545 26.0901 97.3382 26.0426 97.3397 25.994H97.1683C97.1664 26.0832 97.1973 26.17 97.255 26.2381L97.3856 26.1275ZM97.3397 25.994V18.6189H97.1683V25.994H97.3397ZM97.3397 18.6189C97.3382 18.5974 97.3411 18.5759 97.3484 18.5557C97.3556 18.5354 97.3668 18.5169 97.3816 18.5013L97.261 18.3807C97.2304 18.4121 97.2066 18.4495 97.1908 18.4904C97.175 18.5313 97.1677 18.575 97.1693 18.6189H97.3397ZM97.3816 18.5013C97.3981 18.484 97.4182 18.4704 97.4403 18.4613C97.4625 18.4522 97.4862 18.4478 97.5102 18.4484V18.278C97.4641 18.277 97.4182 18.2852 97.3754 18.3024C97.3325 18.3195 97.2937 18.3451 97.261 18.3777L97.3816 18.5013ZM97.5102 18.4484H98.0653V18.278H97.5102V18.4484ZM98.0653 18.4484C98.0865 18.4471 98.1077 18.4508 98.1272 18.4591C98.1468 18.4674 98.1642 18.4801 98.1779 18.4963L98.3075 18.3847C98.2776 18.3496 98.2402 18.3218 98.1981 18.3032C98.156 18.2845 98.1103 18.2756 98.0643 18.277L98.0653 18.4484ZM98.1868 18.5052C98.203 18.519 98.2159 18.5364 98.2242 18.5559C98.2325 18.5755 98.2361 18.5967 98.2348 18.6179H98.4062C98.4074 18.5721 98.3983 18.5265 98.3797 18.4846C98.361 18.4427 98.3333 18.4055 98.2985 18.3757L98.1868 18.5052ZM98.2348 18.6179V21.2091H98.4062V18.6179H98.2348ZM98.3872 21.26C98.58 21.0076 98.8282 20.803 99.1128 20.6619L99.038 20.5085C98.73 20.661 98.4614 20.8823 98.2526 21.1553L98.3872 21.26ZM99.1147 20.6619C99.4394 20.5095 99.7957 20.4364 100.154 20.4487V20.2782C99.7687 20.2655 99.3858 20.3448 99.037 20.5094L99.1147 20.6619ZM100.154 20.4487C100.452 20.4307 100.751 20.4807 101.027 20.5948C101.304 20.7089 101.55 20.8842 101.749 21.1075L101.878 20.9958C101.664 20.7542 101.398 20.5641 101.1 20.4397C100.802 20.3153 100.48 20.2597 100.157 20.2773L100.154 20.4487ZM101.749 21.1095C102.155 21.6014 102.361 22.2277 102.328 22.8645H102.498C102.532 22.1861 102.31 21.5198 101.876 20.9968L101.749 21.1095ZM102.328 22.8645V25.9979H102.498V22.8645H102.328ZM102.328 25.9979C102.328 26.0218 102.324 26.0456 102.315 26.0677C102.306 26.0899 102.292 26.1099 102.275 26.1265L102.396 26.2471C102.428 26.2143 102.454 26.1755 102.471 26.1327C102.488 26.0899 102.496 26.044 102.495 25.9979H102.328ZM102.275 26.1265C102.259 26.1412 102.241 26.1525 102.221 26.1597C102.2 26.1669 102.179 26.1699 102.157 26.1684V26.3387C102.201 26.3403 102.245 26.333 102.286 26.3172C102.327 26.3015 102.364 26.2776 102.396 26.2471L102.275 26.1265ZM102.157 26.1684H101.602V26.3387H102.157V26.1684ZM101.602 26.1684C101.554 26.1699 101.506 26.1536 101.469 26.1225L101.357 26.2521C101.425 26.3102 101.512 26.3414 101.601 26.3398L101.602 26.1684ZM101.479 26.1315C101.448 26.0941 101.431 26.0465 101.433 25.9979H101.262C101.26 26.0871 101.29 26.174 101.348 26.2421L101.479 26.1315ZM101.433 25.9979V22.9173H101.262V25.9949L101.433 25.9979ZM101.433 22.9203C101.461 22.4574 101.315 22.0008 101.022 21.6406L100.895 21.7543C101.158 22.0831 101.289 22.4988 101.262 22.9193L101.433 22.9203ZM101.023 21.6417C100.875 21.4833 100.694 21.3596 100.493 21.2796C100.291 21.1996 100.074 21.1654 99.8582 21.1792V21.3496C100.05 21.336 100.242 21.3652 100.422 21.4352C100.601 21.5052 100.762 21.6142 100.894 21.7543L101.023 21.6417ZM99.8582 21.1792C99.6388 21.1701 99.42 21.2073 99.2159 21.2886C99.0119 21.3698 98.8273 21.4932 98.6742 21.6506L98.7978 21.7682C98.9352 21.6279 99.1007 21.5182 99.2835 21.4462C99.4662 21.3743 99.662 21.3417 99.8582 21.3507V21.1792ZM98.6742 21.6506C98.3683 22.0008 98.2124 22.4572 98.2397 22.9213H98.4112C98.3842 22.5013 98.5233 22.0875 98.7988 21.7692L98.6742 21.6506ZM98.2397 22.9213V25.999H98.4112V22.9173L98.2397 22.9213ZM98.2397 25.999C98.2404 26.0229 98.2359 26.0466 98.2269 26.0688C98.2178 26.0909 98.2041 26.1109 98.1868 26.1275L98.3075 26.2481C98.34 26.2154 98.3656 26.1764 98.3827 26.1336C98.3998 26.0908 98.4081 26.045 98.4072 25.999H98.2397ZM98.1868 26.1275C98.1712 26.1422 98.1527 26.1536 98.1324 26.1608C98.1122 26.168 98.0907 26.1709 98.0693 26.1693V26.3398C98.1131 26.3413 98.1568 26.3339 98.1978 26.3182C98.2387 26.3024 98.276 26.2786 98.3075 26.2481L98.1868 26.1275ZM98.0693 26.1693H97.5142V26.3398H98.0693V26.1693ZM104.497 25.666L104.435 25.7249L104.497 25.666ZM103.752 23.7326H103.666H103.752ZM103.74 23.3549H103.655V23.3599L103.74 23.3549ZM103.752 22.9881L103.666 22.9821L103.752 22.9881ZM104.508 21.0766L104.447 21.0168L104.508 21.0766ZM108.23 21.1543L108.165 21.2101L108.23 21.1543ZM108.828 23.6459L108.889 23.7067L108.828 23.6459ZM104.806 23.7127V23.627C104.783 23.627 104.761 23.636 104.745 23.652C104.729 23.6681 104.72 23.6899 104.72 23.7127H104.806ZM104.806 23.8123H104.72H104.806ZM105.239 25.0461L105.171 25.099L105.239 25.0461ZM107.151 25.3452L107.195 25.4179L107.151 25.3452ZM107.64 24.9116L107.571 24.8608L107.64 24.9116ZM107.784 24.7561L107.823 24.8328H107.829L107.784 24.7561ZM108.681 24.778L108.627 24.8438L108.681 24.778ZM108.437 25.5225L108.373 25.4657L108.437 25.5225ZM107.582 26.1205L107.617 26.1982L107.582 26.1205ZM107.848 22.9423V23.028C107.871 23.028 107.893 23.0189 107.909 23.0029C107.925 22.9868 107.934 22.965 107.934 22.9423H107.848ZM107.426 21.6646L107.36 21.7194L107.426 21.6646ZM105.203 21.6646L105.138 21.6097L105.203 21.6646ZM104.804 22.9423H104.719C104.719 22.965 104.728 22.9868 104.744 23.0029C104.76 23.0189 104.782 23.028 104.804 23.028V22.9423ZM106.327 26.28C106.001 26.2956 105.676 26.2437 105.37 26.1276C105.065 26.0115 104.788 25.8337 104.554 25.6053L104.433 25.7249C104.682 25.9693 104.978 26.1598 105.304 26.2847C105.63 26.4095 105.978 26.4659 106.326 26.4504L106.327 26.28ZM104.555 25.6062C104.094 25.0883 103.838 24.4201 103.834 23.7266L103.663 23.7355C103.669 24.4697 103.942 25.1767 104.432 25.7239L104.555 25.6062ZM103.835 23.7286L103.824 23.3509H103.653L103.664 23.7286H103.835ZM103.824 23.3558L103.835 22.9891L103.663 22.9841L103.652 23.3509L103.824 23.3558ZM103.835 22.9921C103.848 22.305 104.108 21.6455 104.567 21.1344L104.444 21.0168C103.957 21.5569 103.68 22.2541 103.664 22.9811L103.835 22.9921ZM104.566 21.1344C104.794 20.9046 105.068 20.725 105.369 20.6071C105.67 20.4892 105.993 20.4356 106.316 20.4497V20.2793C105.97 20.2652 105.625 20.3235 105.302 20.4505C104.98 20.5775 104.687 20.7704 104.444 21.0168L104.566 21.1344ZM106.316 20.4497C106.662 20.4293 107.007 20.487 107.327 20.6185C107.646 20.7499 107.932 20.9518 108.163 21.2091L108.293 21.0975C108.046 20.8216 107.74 20.6049 107.398 20.4632C107.056 20.3216 106.686 20.2587 106.316 20.2793V20.4497ZM108.164 21.2091C108.629 21.7899 108.863 22.5217 108.821 23.2642H108.992C109.034 22.4804 108.786 21.7086 108.295 21.0965L108.164 21.2091ZM108.821 23.2642V23.4535H108.992V23.2642H108.821ZM108.821 23.4535C108.822 23.4775 108.817 23.5013 108.808 23.5234C108.799 23.5456 108.785 23.5655 108.768 23.5821L108.889 23.7027C108.921 23.67 108.947 23.631 108.964 23.5882C108.981 23.5454 108.989 23.4996 108.988 23.4535H108.821ZM108.768 23.5821C108.752 23.5968 108.734 23.6081 108.714 23.6153C108.694 23.6225 108.672 23.6254 108.65 23.6239V23.7944C108.694 23.7959 108.738 23.7886 108.779 23.7728C108.82 23.7571 108.857 23.7332 108.889 23.7027L108.768 23.5821ZM108.65 23.6239H104.806V23.7944H108.65V23.6239ZM104.72 23.7096V23.8093H104.891V23.7096H104.72ZM104.72 23.8093C104.731 24.2739 104.889 24.7231 105.171 25.092L105.306 24.9863C105.045 24.6455 104.899 24.2305 104.89 23.8014L104.72 23.8093ZM105.172 25.093C105.309 25.2641 105.483 25.4012 105.682 25.4933C105.88 25.5855 106.098 25.6303 106.316 25.6242V25.4537C106.123 25.4598 105.931 25.4206 105.755 25.3393C105.579 25.258 105.425 25.1368 105.305 24.9853L105.172 25.093ZM106.316 25.6242C106.624 25.6368 106.928 25.5629 107.195 25.4109L107.106 25.2654C106.866 25.4002 106.593 25.4651 106.317 25.4528L106.316 25.6242ZM107.195 25.4109C107.395 25.2937 107.569 25.1386 107.709 24.9544L107.569 24.8548C107.442 25.0205 107.285 25.16 107.105 25.2654L107.195 25.4109ZM107.707 24.9565C107.732 24.9219 107.759 24.8886 107.787 24.8568C107.796 24.8479 107.804 24.8396 107.813 24.8319L107.821 24.8259L107.745 24.6734C107.713 24.6913 107.686 24.7142 107.662 24.7412C107.63 24.7773 107.599 24.8148 107.57 24.8538L107.707 24.9565ZM107.826 24.8229C107.873 24.8049 107.922 24.7978 107.972 24.8019V24.6316C107.891 24.6265 107.811 24.6422 107.739 24.6774L107.826 24.8229ZM107.972 24.8019H108.517V24.6316H107.972V24.8019ZM108.517 24.8019C108.557 24.7999 108.597 24.8127 108.629 24.8378L108.738 24.7063C108.676 24.6553 108.597 24.6285 108.517 24.6305V24.8019ZM108.629 24.8378C108.641 24.8489 108.651 24.8628 108.657 24.8784C108.664 24.894 108.666 24.9108 108.664 24.9276H108.835C108.836 24.8855 108.828 24.8437 108.811 24.8054C108.793 24.767 108.768 24.7331 108.735 24.7063L108.629 24.8378ZM108.664 24.9276C108.632 25.1332 108.53 25.3214 108.374 25.4598L108.502 25.5744C108.686 25.4052 108.804 25.1759 108.835 24.9276H108.664ZM108.374 25.4607C108.143 25.7099 107.861 25.9073 107.547 26.0398L107.619 26.1952C107.955 26.0525 108.256 25.8406 108.504 25.5734L108.374 25.4607ZM107.548 26.0388C107.163 26.2035 106.747 26.2843 106.328 26.276V26.4464C106.772 26.4549 107.212 26.369 107.619 26.1943L107.548 26.0388ZM107.936 22.9383V22.9054H107.766V22.9383H107.936ZM107.936 22.9054C107.956 22.4313 107.798 21.9667 107.492 21.6038L107.364 21.7174C107.641 22.0494 107.783 22.4734 107.762 22.9054H107.936ZM107.493 21.6097C107.35 21.4391 107.169 21.3036 106.965 21.2136C106.761 21.1236 106.539 21.0815 106.316 21.0905V21.2619C106.514 21.2534 106.711 21.2904 106.892 21.3698C107.074 21.4493 107.234 21.5692 107.362 21.7204L107.493 21.6097ZM106.316 21.0905C106.094 21.0816 105.872 21.1239 105.668 21.2139C105.464 21.3039 105.284 21.4392 105.14 21.6097L105.271 21.7194C105.399 21.5682 105.559 21.4483 105.741 21.3688C105.922 21.2893 106.119 21.2524 106.316 21.2609V21.0905ZM105.139 21.6097C104.849 21.9774 104.699 22.4371 104.719 22.9054H104.89C104.87 22.4759 105.005 22.0534 105.271 21.7154L105.139 21.6097ZM104.719 22.9054V22.9383H104.89V22.9054H104.719ZM104.804 23.024H107.849V22.8536H104.804V23.024Z" fill="#51504F"/>
<path d="M68.2392 52.3537C68.0905 52.3501 67.9487 52.2895 67.8435 52.1842C67.7383 52.079 67.6777 51.9373 67.6741 51.7885C67.6692 51.6841 67.6786 51.5795 67.702 51.4776L74.7043 33.2114C74.7621 33.0208 74.883 32.8556 75.047 32.7428C75.2111 32.6299 75.4087 32.5763 75.6073 32.5905H77.5268C77.7255 32.5762 77.9232 32.6299 78.0874 32.7427C78.2516 32.8555 78.3727 33.0208 78.4307 33.2114L85.4071 51.4776L85.464 51.7885C85.4599 51.9371 85.3991 52.0786 85.294 52.1837C85.1889 52.2888 85.0475 52.3496 84.8989 52.3537H83.4588C83.287 52.3644 83.1169 52.3143 82.9783 52.2122C82.8783 52.118 82.8013 52.002 82.7532 51.8733L81.2004 47.8638H71.9397L70.3869 51.8733C70.3343 52.0071 70.2464 52.1242 70.1327 52.2122C70.0038 52.3114 69.8438 52.3615 69.6813 52.3537H68.2392ZM80.3791 45.437L76.568 35.4149L72.7579 45.4361L80.3791 45.437ZM88.5356 34.9346C88.4481 34.944 88.3595 34.9337 88.2765 34.9044C88.1934 34.8751 88.118 34.8277 88.0557 34.7655C87.9934 34.7032 87.9458 34.6278 87.9164 34.5448C87.887 34.4618 87.8766 34.3733 87.8858 34.2858V32.7609C87.8811 32.5853 87.9414 32.4142 88.0552 32.2805C88.1174 32.2162 88.1921 32.1653 88.2748 32.1311C88.3574 32.0968 88.4462 32.0798 88.5356 32.0812H90.3145C90.4036 32.0808 90.492 32.098 90.5744 32.132C90.6568 32.1659 90.7317 32.2158 90.7947 32.2788C90.8577 32.3418 90.9076 32.4167 90.9415 32.4991C90.9755 32.5815 90.9927 32.6698 90.9923 32.7589V34.2838C90.9936 34.373 90.9766 34.4616 90.9423 34.5441C90.908 34.6266 90.8572 34.7011 90.793 34.7631C90.6596 34.8768 90.4888 34.9371 90.3135 34.9326L88.5356 34.9346ZM88.7618 52.3547C88.6742 52.3639 88.5857 52.3535 88.5026 52.3241C88.4196 52.2947 88.3441 52.2471 88.2818 52.1849C88.2195 52.1226 88.172 52.0471 88.1427 51.9641C88.1133 51.8811 88.1027 51.7924 88.112 51.7048V38.3221C88.108 38.2393 88.1209 38.1565 88.1501 38.0788C88.1792 38.0012 88.224 37.9304 88.2815 37.8706C88.3436 37.8063 88.4183 37.7554 88.5009 37.7211C88.5836 37.6868 88.6723 37.6699 88.7618 37.6713H90.1162C90.2863 37.6779 90.4476 37.7484 90.568 37.8686C90.6885 37.9889 90.7591 38.1501 90.766 38.3201V51.7019C90.7675 51.7913 90.7505 51.8801 90.7162 51.9628C90.6819 52.0454 90.6311 52.1201 90.5667 52.1822C90.5069 52.2396 90.436 52.2843 90.3584 52.3134C90.2808 52.3425 90.198 52.3555 90.1152 52.3516L88.7618 52.3547ZM95.5997 52.3547C95.5122 52.364 95.4236 52.3535 95.3406 52.3241C95.2576 52.2947 95.1823 52.2471 95.12 52.1848C95.0578 52.1225 95.0103 52.047 94.981 51.964C94.9517 51.8809 94.9415 51.7924 94.9509 51.7048V38.35C94.9465 38.1748 95.0068 38.0041 95.1203 37.8706C95.1825 37.8063 95.2573 37.7554 95.3399 37.7211C95.4225 37.6868 95.5113 37.6699 95.6007 37.6713H96.8963C96.9854 37.6709 97.0737 37.6882 97.1561 37.7221C97.2385 37.756 97.3134 37.8059 97.3765 37.8689C97.4395 37.9319 97.4894 38.0068 97.5233 38.0892C97.5572 38.1716 97.5744 38.2599 97.574 38.349V39.5908C97.9947 38.9404 98.5856 38.4175 99.2824 38.0791C99.9792 37.7408 100.755 37.5997 101.527 37.6713H102.623C102.793 37.6782 102.954 37.7487 103.074 37.8689C103.194 37.9891 103.265 38.1502 103.272 38.3201V39.4772C103.275 39.5626 103.259 39.6477 103.224 39.7259C103.19 39.8041 103.138 39.8734 103.072 39.9287C103.013 39.9861 102.942 40.0307 102.864 40.0599C102.787 40.089 102.704 40.102 102.621 40.0981H100.927C100.486 40.0745 100.045 40.1426 99.6319 40.2982C99.2188 40.4538 98.8425 40.6934 98.5269 41.002C98.2259 41.3218 97.993 41.6995 97.8424 42.112C97.6918 42.5246 97.6267 42.9634 97.6508 43.4019V51.7019C97.6522 51.7913 97.6352 51.8801 97.6009 51.9627C97.5666 52.0453 97.5157 52.1201 97.4514 52.1822C97.3176 52.2959 97.1466 52.3562 96.9711 52.3516L95.5997 52.3547ZM107.793 52.3547C107.705 52.3638 107.617 52.3532 107.534 52.3237C107.451 52.2943 107.375 52.2467 107.313 52.1844C107.251 52.1222 107.204 52.0468 107.174 51.9638C107.145 51.8808 107.135 51.7924 107.144 51.7048V39.9307H104.744C104.656 39.9399 104.568 39.9295 104.485 39.9001C104.402 39.8708 104.327 39.8233 104.265 39.7611C104.202 39.6989 104.155 39.6236 104.125 39.5407C104.096 39.4578 104.086 39.3693 104.095 39.2819V38.3221C104.091 38.2393 104.104 38.1565 104.133 38.0788C104.162 38.0012 104.207 37.9304 104.264 37.8706C104.326 37.8063 104.401 37.7555 104.483 37.7212C104.566 37.6869 104.654 37.6699 104.744 37.6713H107.144V36.2591C107.144 33.0592 108.762 31.4596 111.999 31.4603H113.58C113.75 31.4669 113.911 31.5374 114.032 31.6576C114.152 31.7779 114.223 31.9391 114.23 32.1091V33.0689C114.231 33.1581 114.214 33.2467 114.18 33.3292C114.145 33.4116 114.095 33.4862 114.03 33.5483C113.971 33.6057 113.9 33.6502 113.822 33.6793C113.744 33.7085 113.662 33.7215 113.579 33.7177H112.055C111.726 33.6819 111.393 33.7247 111.084 33.8426C110.775 33.9604 110.498 34.1498 110.276 34.3954C109.892 34.9899 109.714 35.6939 109.768 36.3996V37.6703H115.809V32.1111C115.806 32.0283 115.819 31.9455 115.848 31.8679C115.877 31.7903 115.921 31.7194 115.979 31.6596C116.041 31.5953 116.116 31.5444 116.198 31.5101C116.281 31.4758 116.37 31.4589 116.459 31.4603H117.755C117.925 31.4669 118.086 31.5374 118.207 31.6576C118.327 31.7779 118.398 31.9391 118.405 32.1091V51.7019C118.406 51.7913 118.389 51.8801 118.355 51.9628C118.321 52.0454 118.27 52.1201 118.205 52.1822C118.145 52.2398 118.074 52.2844 117.997 52.3136C117.919 52.3427 117.836 52.3557 117.753 52.3516H116.457C116.37 52.3611 116.281 52.3508 116.198 52.3215C116.115 52.2922 116.039 52.2446 115.977 52.1822C115.914 52.1199 115.867 52.0444 115.838 51.9613C115.808 51.8782 115.798 51.7895 115.807 51.7019V39.9307H109.766V51.7039C109.767 51.7933 109.75 51.8821 109.716 51.9647C109.682 52.0473 109.631 52.122 109.566 52.1842C109.506 52.2417 109.435 52.2864 109.358 52.3155C109.28 52.3446 109.197 52.3576 109.114 52.3537L107.793 52.3547ZM128.622 52.6367C127.74 52.6901 126.857 52.5622 126.027 52.2611C125.197 51.9599 124.437 51.4918 123.794 50.8857C122.624 49.6177 121.978 47.9529 121.987 46.2274L121.959 45.0135L121.987 43.7996C121.982 42.0779 122.639 40.4201 123.822 39.1692C125.158 38.0216 126.861 37.3906 128.622 37.3906C130.383 37.3906 132.085 38.0216 133.421 39.1692C134.604 40.4203 135.26 42.0779 135.256 43.7996C135.274 44.0062 135.284 44.4108 135.284 45.0135C135.284 45.6161 135.274 46.0208 135.256 46.2274C135.264 47.9579 134.607 49.6256 133.421 50.8857C132.784 51.4934 132.029 51.9626 131.202 52.2638C130.376 52.565 129.495 52.6917 128.617 52.6357L128.622 52.6367ZM128.622 50.4631C129.141 50.4894 129.66 50.402 130.142 50.207C130.624 50.0119 131.058 49.714 131.413 49.3339C132.168 48.4228 132.569 47.2699 132.542 46.0869C132.56 45.8988 132.57 45.5413 132.57 45.0144C132.57 44.4876 132.56 44.1301 132.542 43.9421C132.569 42.7591 132.168 41.6062 131.413 40.6951C131.058 40.315 130.624 40.017 130.142 39.822C129.66 39.6269 129.141 39.5395 128.622 39.5659C128.098 39.5406 127.575 39.6284 127.087 39.8233C126.6 40.0181 126.161 40.3154 125.799 40.6951C125.047 41.6063 124.657 42.7619 124.702 43.9421L124.674 45.0144L124.702 46.0869C124.657 47.2671 125.047 48.4227 125.799 49.3339C126.16 49.7127 126.599 50.0095 127.085 50.2041C127.572 50.3988 128.094 50.4867 128.617 50.462L128.622 50.4631ZM142.331 52.3566C142.128 52.3698 141.928 52.3097 141.767 52.1872C141.612 52.0388 141.495 51.8547 141.428 51.6511L137.418 38.5513L137.363 38.2693C137.36 38.1909 137.374 38.1128 137.403 38.0399C137.432 37.9671 137.476 37.9009 137.532 37.8457C137.648 37.739 137.798 37.6787 137.955 37.6763H139.197C139.28 37.6723 139.363 37.6853 139.441 37.7145C139.518 37.7436 139.589 37.7882 139.649 37.8457C139.765 37.9196 139.854 38.0286 139.903 38.1566L143.037 48.7997L146.397 38.2693C146.437 38.1127 146.526 37.973 146.651 37.8706C146.722 37.8027 146.807 37.75 146.899 37.7157C146.991 37.6814 147.089 37.6663 147.187 37.6713H148.147C148.245 37.6663 148.344 37.6814 148.436 37.7157C148.529 37.75 148.613 37.8027 148.684 37.8706C148.809 37.973 148.898 38.1127 148.938 38.2693L152.298 48.7997L155.431 38.1566C155.467 38.036 155.536 37.928 155.631 37.8457C155.765 37.7319 155.936 37.6715 156.111 37.6763H157.382C157.456 37.6755 157.53 37.6901 157.599 37.7193C157.668 37.7484 157.729 37.7915 157.781 37.8457C157.836 37.901 157.88 37.9671 157.909 38.0399C157.938 38.1128 157.952 38.1909 157.95 38.2693L157.893 38.5513L153.913 51.6511C153.845 51.8547 153.729 52.0387 153.574 52.1872C153.401 52.3132 153.189 52.3732 152.976 52.3566H151.879C151.664 52.3788 151.448 52.3183 151.275 52.1873C151.102 52.0564 150.985 51.8648 150.948 51.6511L147.673 41.5442L144.398 51.6511C144.347 51.8629 144.222 52.0499 144.047 52.1789C143.871 52.308 143.656 52.371 143.438 52.3566H142.331Z" fill="#51504F"/>
</svg>
