<svg width="184" height="65" viewBox="0 0 184 65" fill="none" xmlns="http://www.w3.org/2000/svg">
<path fill-rule="evenodd" clip-rule="evenodd" d="M137.387 18.7363C135.529 18.7089 134.379 16.5717 135.373 13.6954C135.469 13.417 136.341 12.3924 136.361 12.4077C136.404 12.4406 135.626 14.0479 135.992 13.9999C136.026 13.9953 136.522 12.6421 136.823 12.2504C137.067 11.932 138.657 9.05472 138.402 8.85894C138.318 8.79429 138.313 10.5199 138.33 10.5085C138.545 10.3628 139.565 8.1684 139.498 7.65353C139.469 7.43884 139.49 6.88571 139.575 6.7751C139.593 6.75143 139.509 6.3979 139.525 6.39579C139.59 6.38722 139.627 7.9024 139.63 7.92553C139.781 9.07322 139.718 10.8093 139.011 11.287C138.72 11.484 138.382 12.3706 138.352 12.1455C138.327 11.9533 138.791 12.1297 138.909 11.9758C138.99 11.8699 139.722 11.097 139.757 11.0923C139.857 11.0792 139.687 11.2894 139.7 11.3893C139.789 12.0659 138.013 13.962 138.071 14.4015C138.081 14.4848 139.512 13.6233 139.513 13.6328C139.564 14.0238 139.057 14.7828 138.834 15.0728C138.71 15.2347 138.544 15.7992 138.517 15.5968C138.514 15.5722 139.058 15.5589 139.086 15.5219C139.127 15.4683 139.671 14.9475 139.795 15.0427C140.068 15.252 139.801 16.3686 139.615 16.6099C139.51 16.7477 139.245 16.7589 139.166 16.862C139.139 16.8978 139.09 17.014 139.084 16.9693C139.057 16.7668 140.733 16.5975 140.189 17.3062C139.637 18.0265 138.394 18.3934 137.387 18.7363Z" fill="#5A8CE6"/>
<path fill-rule="evenodd" clip-rule="evenodd" d="M136.757 18.1029C136.666 18.0856 136.466 18.1423 136.483 18.0509C136.501 17.9596 136.827 18.1648 136.757 18.1029C136.695 18.0477 136.406 18.0465 136.344 17.9912C136.228 17.8871 136.124 17.7304 135.984 17.6055C135.915 17.5444 136.008 17.2831 135.96 17.2003C135.696 16.7402 135.106 15.4272 135.558 14.9201C135.659 14.8071 135.569 14.3098 135.658 14.3047C135.719 14.3012 135.915 14.9178 135.967 14.9644C135.974 14.9707 136.163 14.9599 136.17 14.9527C136.255 14.8576 136.239 14.5154 136.341 14.4009C136.68 14.0215 136.855 13.3929 137.209 12.9962C137.622 12.5325 137.62 11.9598 137.942 11.5992C137.972 11.5655 137.889 11.4667 137.934 11.4641C137.966 11.4622 137.77 11.999 137.762 12.0159C137.62 12.3474 137.229 13.3484 137.24 13.5363C137.244 13.6118 137.173 13.7326 137.184 13.7428C137.329 13.8717 137.869 12.9582 138.019 12.9496C138.035 12.9486 137.741 13.4437 137.713 13.5092C137.641 13.6759 136.888 15.5287 137.094 15.7125C137.129 15.7433 138.06 14.8343 138.064 14.9116C138.073 15.0652 137.372 16.537 137.558 16.7021C137.622 16.7594 138.834 15.9176 138.941 16.0129C139.016 16.0798 138.137 16.8979 138.252 17.0009C138.406 17.1377 138.818 16.9284 139.003 17.0932C139.415 17.461 137.784 18.1794 137.44 18.1992C137.325 18.2058 136.862 18.1176 136.757 18.1029V18.1029Z" fill="#C8DCEB"/>
<path fill-rule="evenodd" clip-rule="evenodd" d="M9.07159 33.88C8.99956 33.8947 8.80662 34.0544 8.76073 34.0773C8.51227 34.2015 8.17799 34.2775 7.99556 34.4599C7.78904 34.6664 7.51159 34.7526 7.2782 34.9859C7.11879 35.1454 7.0072 35.3526 6.84779 35.512C6.78707 35.5727 7.03732 36.0824 7.08691 36.1815C7.1823 36.3723 7.18135 36.6095 7.2782 36.8032C7.36765 36.9821 7.41168 37.6541 7.51732 37.7597C7.61739 37.8598 7.56564 37.7591 7.61297 37.7119C7.63591 37.6889 7.70171 37.8144 7.75644 37.7597C7.87476 37.6414 8.14409 37.7094 8.33032 37.6162C8.65864 37.4521 9.41211 37.6492 9.76503 37.4728C9.93482 37.3879 10.1626 37.3312 10.3987 37.2934C10.4139 37.3076 10.4254 37.3212 10.4405 37.3353C10.4388 37.3392 10.4363 37.3433 10.4346 37.3472C10.4697 37.3722 10.5023 37.3995 10.5362 37.4249C10.6279 37.5072 10.7184 37.584 10.7693 37.6103C10.7705 37.6112 10.7742 37.6093 10.7753 37.6103C10.9763 37.7799 11.1681 37.9672 11.397 38.1961C11.7291 38.5282 12.2601 40.8885 12.3415 40.9699C12.6841 41.3124 12.7091 42.4195 13.017 42.7274C13.1935 42.9039 13.2733 43.1211 13.4235 43.2714C13.6102 43.4581 13.9408 43.5196 14.099 43.6779C14.2991 43.8779 15.3643 42.6158 15.5218 42.4584C15.5898 42.3904 15.6823 42.1493 15.725 42.1236C15.8291 42.0611 16.0055 42.0947 16.0598 41.9861C16.0734 41.9589 16.0469 41.9422 16.006 41.9323L14.3023 40.1569C13.981 40.1569 13.6592 38.7007 13.3578 38.3994C12.4465 37.4881 11.7924 36.7287 11.0204 35.9364C10.8803 35.6833 10.7659 35.4129 10.5302 35.1772C10.3086 34.9557 9.97462 34.7356 9.81285 34.4121C9.77561 34.3376 9.35391 33.8912 9.21506 33.9219C9.2058 33.9239 9.19769 33.9273 9.19115 33.9338C9.18237 33.9426 9.17557 33.9542 9.16723 33.9637C9.14784 33.94 9.12319 33.9137 9.0955 33.886C9.09099 33.8815 9.08188 33.8779 9.07159 33.88Z" fill="#E6B35A"/>
<path fill-rule="evenodd" clip-rule="evenodd" d="M24.0882 19.2938C24.0542 19.3411 23.9543 19.46 23.9387 19.4911C23.9185 19.5316 23.8886 19.5774 23.861 19.6226C23.8974 19.5785 23.9345 19.5312 23.9746 19.4911C24.0097 19.456 24.0586 19.3506 24.0882 19.2938ZM23.861 19.6226C23.5142 20.0431 23.317 20.621 22.9584 20.9796C22.6842 21.2538 22.4678 21.6313 22.6236 21.7926L22.8567 21.6252C22.7963 21.5043 22.8986 21.3681 22.9584 21.2486C22.9947 21.1759 23.0958 20.9641 23.0958 21.0454C23.0958 21.175 23.5302 21.3224 23.7056 21.147C23.9377 20.9149 23.4629 20.6102 23.6339 20.2682C23.6782 20.1796 23.7355 20.035 23.7355 19.9335C23.7355 19.8358 23.7987 19.725 23.861 19.6226ZM21.709 22.4083C21.2122 22.496 20.7227 22.6538 20.2922 22.8388C19.8608 22.879 19.4305 22.9196 19.0308 23.0599C17.8664 23.4687 16.7671 23.9477 15.6629 24.3895C15.2098 24.5708 14.7559 24.7458 14.2963 24.9071C13.9377 25.033 13.5435 25.3306 13.1861 25.6012C12.9466 25.7824 12.7236 25.9516 12.5388 26.0489C11.6031 26.5416 10.7188 27.052 9.84872 27.5673C9.75151 27.7938 9.73004 28.0294 9.86068 28.2906C9.97342 28.5161 10.1015 28.6567 10.2373 28.745C11.0727 28.2626 11.9444 27.8552 12.9453 27.3282C13.4204 27.078 15.4429 25.7275 15.9223 25.475C16.5619 25.1383 17.5351 24.9576 18.4928 24.7637C18.7772 24.4642 19.1928 24.3477 19.6705 24.3512C19.8161 24.3521 19.97 24.365 20.1248 24.387C20.2443 24.357 20.3417 24.3448 20.3819 24.387C20.4027 24.409 20.4231 24.4348 20.4476 24.4528C20.6611 24.4993 20.8771 24.5533 21.0932 24.6262C21.5832 24.67 22.162 24.6495 22.4861 24.9908C23.0415 25.5757 24.3077 26.0059 24.9729 26.7065C25.393 27.1489 25.3732 28.0523 25.6425 28.6194C25.7529 28.852 26.1603 30.6882 26.1326 30.9987C26.1285 30.9473 26.1228 30.8975 26.1028 30.8552C26.0154 30.6711 25.8523 30.2031 25.762 30.1079L25.4571 29.7911C25.4032 29.7343 25.2975 29.755 25.23 29.7373C25.2296 29.7372 25.2304 29.7314 25.23 29.7313C25.2253 29.7181 25.2205 29.7104 25.2121 29.7015C25.099 29.5824 24.9713 29.638 24.8534 29.5759C24.8027 29.5493 24.734 29.5773 24.686 29.552C24.1998 29.296 23.7534 30.0928 23.7534 30.5324C23.7534 30.7865 24.1647 31.3138 24.4827 31.3932C24.5503 31.3256 24.8288 31.3427 24.9191 31.2976C25.0433 31.2355 25.2056 31.0943 25.2957 31.0943C25.3174 31.0943 25.1192 31.235 24.9909 31.3633C24.9325 31.4217 24.8083 31.4993 24.6979 31.5905C24.7165 31.6601 24.737 31.7287 24.7816 31.7758C24.7985 31.7936 24.7647 31.8656 24.7816 31.8834C24.8657 31.972 24.8932 32.1005 24.8952 32.2421C25.0642 32.2379 25.2543 32.2062 25.3615 32.2062C25.5378 32.2062 25.7321 32.0998 25.7321 32.1405C25.7321 32.1882 25.2961 32.2539 25.224 32.2779C25.1075 32.3168 24.9972 32.3488 24.8892 32.3855C24.8791 32.5229 24.8571 32.6635 24.8474 32.792C24.8435 32.7924 24.8393 32.7917 24.8354 32.792C24.8053 33.2357 24.7302 33.6723 24.6262 34.0952C24.6279 34.1472 24.6292 34.1989 24.6322 34.2507C24.5728 34.4123 24.5052 34.5656 24.4409 34.7169C23.4891 37.5938 21.0792 39.801 19.7064 40.1509C19.7255 40.163 19.7467 40.1696 19.7661 40.1808C19.1345 40.3415 18.5415 40.5214 18.2178 40.8623C18.1553 40.9281 17.899 40.8193 17.8173 40.8623C16.1517 41.7393 13.8313 41.499 12.6763 42.7154C11.9642 43.4654 17.3566 42.0041 17.4108 42.0041C17.8759 42.0041 18.8885 41.7902 19.2999 41.5737C19.5002 41.4681 20.0213 41.5737 20.2503 41.5737C21.2175 41.5737 21.9166 41.7934 22.6654 42.1475C22.839 42.0374 22.9817 41.9682 23.06 41.9682C23.1913 41.9682 24.3016 41.6462 24.7637 41.5796C24.6168 41.5295 24.447 41.423 24.423 41.2927C23.8513 41.156 23.368 41.0117 23.0899 40.7188C23.0841 40.7127 23.0809 40.7081 23.0779 40.7009C23.037 40.6748 22.9996 40.6424 22.9643 40.6052C22.9503 40.5904 22.6774 40.6171 22.6774 40.6052C22.6774 40.5327 24.0854 39.424 24.3034 39.1944C24.6482 38.8313 25.0006 38.7612 25.3555 38.3874C25.9523 37.7589 26.863 36.8997 27.4597 36.2712C27.4772 36.2896 28.712 35.2567 28.7988 35.1653C29.0351 34.9165 29.2853 34.7305 29.5281 34.5496C29.5287 34.5471 29.5335 34.5461 29.5341 34.5436C29.6294 34.1823 29.9979 33.6996 30.0422 33.6529C30.1208 33.5701 30.1849 33.4492 30.2455 33.3122C30.2413 33.2592 30.2335 33.1756 30.2335 33.1507C30.2335 32.3176 30.2624 31.5272 30.2873 30.7476C30.3635 29.9902 30.3837 29.1871 30.3351 28.4341C30.346 27.9592 30.4281 25.8004 30.3292 25.6962C30.1857 25.5451 29.9944 25.4468 29.8509 25.2957C29.7998 25.2418 29.7199 25.2197 29.6238 25.212C29.4563 25.2601 29.3001 25.3025 29.2771 25.3256C29.153 25.4496 28.9457 25.5135 28.7988 25.6603C28.6891 25.77 28.572 25.9828 28.4162 26.1386C28.2657 26.2891 28.1747 26.428 28.0336 26.569C28.0316 26.5711 27.8902 26.8131 27.8902 26.7603C27.8902 26.7412 28.0126 26.59 28.0336 26.569C28.1419 26.4608 28.1257 26.19 28.2249 26.0908C28.5221 25.7936 28.962 25.4938 29.1216 25.0267C29.11 25.0159 29.094 24.9995 29.0858 24.9908C28.9385 24.8357 28.669 24.6801 28.3385 24.5245C28.3386 24.5762 28.3355 24.6263 28.3206 24.6561C28.2096 24.8781 27.874 25.4853 27.7467 25.6125C27.7126 25.6466 27.6839 25.7391 27.657 25.8277C27.6557 25.8529 27.6511 25.882 27.6511 25.8995C27.6511 25.9192 27.6306 25.9434 27.6092 25.9652C27.5916 26.0105 27.5755 26.0429 27.5554 26.0429C27.5177 26.0429 27.5684 26.0069 27.6092 25.9652C27.6247 25.9255 27.6415 25.879 27.657 25.8277C27.6643 25.6936 27.6913 25.4766 27.7946 25.3734C27.8249 25.3431 27.7746 25.2219 27.7946 25.1821C27.8619 25.0475 28.0408 24.5268 27.9858 24.4169C27.9788 24.4028 27.9746 24.3798 27.9679 24.3572C27.9656 24.3562 27.9642 24.3521 27.962 24.3512C26.8488 23.89 25.2915 23.4471 24.5904 23.0779C24.2915 22.9205 23.916 22.9694 23.7296 22.773C23.3545 22.3781 22.1758 23.0048 21.709 22.4083Z" fill="#E6B35A"/>
<path fill-rule="evenodd" clip-rule="evenodd" d="M50.2716 22.223C50.6176 22.8174 51.8844 23.2331 51.8318 23.6518C50.9143 24.3286 49.6215 24.6873 49.1776 25.8756C48.7857 26.4222 48.4384 26.9892 48.1315 27.5852C48.0253 27.7164 47.9181 27.8405 47.8147 27.9439C47.7255 28.033 47.6327 28.2361 47.5755 28.3504C47.5201 28.4612 47.3724 28.6253 47.3065 28.6912C47.1399 28.8578 46.9717 29.3309 46.7984 29.5042C46.7947 29.5079 46.7858 29.5327 46.7805 29.54C46.6231 29.6119 46.4419 29.6824 46.2604 29.7732C46.0936 29.8566 45.9138 29.794 45.7523 29.8748C45.7376 29.8821 45.7161 29.8803 45.6925 29.8748C45.77 29.9104 46.435 30.0781 46.4935 30.0781C46.6592 30.0781 46.8791 30.1464 47.0973 30.2395C47.0993 30.2414 47.1013 30.2435 47.1033 30.2454C47.1098 30.252 47.1488 30.2705 47.1989 30.2873C47.2726 30.3209 47.3379 30.3536 47.4082 30.3889C47.2954 30.3704 47.0885 30.3303 46.8582 30.2813C46.8507 30.3151 46.8408 30.3488 46.8343 30.3829C46.9487 30.4973 47.1085 30.5914 47.2049 30.6878C47.2133 30.6962 47.3424 30.6986 47.3424 30.7177C47.3424 30.7628 47.25 30.7177 47.2049 30.7177C47.1487 30.7177 46.9723 30.6992 46.7924 30.6758C46.7615 30.9499 46.7559 31.2296 46.7865 31.5187C46.7823 32.3865 46.7644 33.255 46.7566 34.1251C46.756 34.127 46.7571 34.1292 46.7566 34.1311C46.7112 34.2966 46.7344 34.4962 46.7506 34.693C46.7502 34.8104 46.7502 34.9283 46.7506 35.0457C46.7496 35.0517 46.7517 35.0578 46.7506 35.0636C46.7408 35.1169 46.7204 35.1718 46.6968 35.2191C46.6652 35.2822 46.7284 35.3891 46.6968 35.4522C46.5515 35.7427 46.4447 35.9922 46.3262 36.2293C46.2799 36.3218 46.0628 36.7849 46.1887 36.9108C46.243 36.9651 46.3119 37.0938 46.362 37.144C46.3996 37.1816 46.5347 37.1798 46.5952 37.1798C46.675 37.1798 46.7444 37.1594 46.8104 37.138C46.8335 37.5556 46.8625 37.9713 46.906 38.3874C47.4408 39.4144 48.4594 40.1054 49.2793 40.8802C50.2465 41.7859 51.4502 42.3466 52.4177 43.2355C53.0197 43.95 53.7242 45.6968 54.761 44.5745C56.2366 43.4735 57.9044 42.6227 59.1489 41.203C59.8643 41.105 60.4202 40.2439 61.0618 39.8161C61.5077 39.1838 60.8365 38.3046 61.289 37.6401C61.5386 36.8917 61.3094 36.035 61.3727 35.2489C61.3389 32.9766 61.315 30.7043 61.2112 28.4341C61.836 28.6479 61.8572 28.8775 61.6656 29.4623C61.7047 30.7481 63.2814 30.8024 63.3753 29.4922C63.5228 28.4352 62.6001 27.9438 62.0063 27.3222C61.1712 26.7679 60.3523 26.251 59.4179 25.8994C58.6701 25.5831 57.8011 25.4805 57.2 24.8593C56.3658 24.5031 55.5327 24.1836 54.6594 23.9566C53.9176 23.5211 53.1963 23.1101 52.3699 22.8746C51.6947 22.5794 50.974 22.4264 50.2716 22.223ZM54.3306 25.218C54.9865 25.489 55.6023 25.9651 56.2555 26.288C56.9149 26.8555 58.0707 26.868 58.2761 27.8782C58.3463 28.0737 58.4098 28.2702 58.4614 28.47C58.441 28.4905 58.4124 28.519 58.4016 28.5298C58.2749 28.6565 58.5929 29.008 58.5929 29.1993C58.5929 29.3946 58.4051 29.4349 58.306 29.5341C58.1731 29.6669 58.2641 31.2438 58.1147 31.5427C58.0466 31.6787 58.1072 32.1718 58.019 32.26C57.7512 32.5278 57.8973 34.4642 57.6364 34.9859C57.5007 35.2575 57.6842 35.8147 57.6842 36.0859V36.5641C57.6842 36.6176 57.6288 36.6999 57.6364 36.7076C57.717 36.7882 57.9862 36.7226 58.0668 36.8032C58.3122 37.0486 57.6487 37.3415 57.6842 37.3771C57.6942 37.3871 58.1147 37.6385 58.1147 37.6641C58.1147 37.6882 57.6708 37.7732 57.6364 37.8075C57.5575 37.8864 57.4517 40.1097 57.5408 40.1987C57.6606 40.3185 57.8251 40.3611 57.9891 40.3661C57.0015 40.9684 56.0575 41.6898 55.0001 42.1356C54.9931 42.1405 54.9835 42.1427 54.9762 42.1475C54.7735 42.2811 54.4868 42.3623 54.3067 42.4524C54.2068 42.5024 53.9257 42.7274 53.8643 42.7274C53.8531 42.7274 54.0216 42.6358 54.1035 42.554C54.1484 42.5091 54.395 42.3217 54.5697 42.1296C54.5397 41.9918 54.5156 41.8508 54.492 41.7052C54.2423 41.7282 53.9002 41.8719 53.9002 41.8128C53.9002 41.7554 54.2527 41.524 54.4382 41.3883C54.3841 41.0703 54.3158 40.7568 54.1871 40.4857C54.0897 40.5293 53.985 40.5742 53.9002 40.659C53.9572 40.5859 54.0303 40.4991 54.1035 40.4259C54.1171 40.4123 54.1267 40.4032 54.1393 40.39C54.0131 40.1626 53.8344 39.9682 53.5714 39.84C52.6765 39.3074 51.7463 38.8726 50.7259 38.7042C49.5458 38.8419 49.1527 37.6176 49.3629 36.5701C49.5358 35.1555 49.5809 33.7333 49.5363 32.3078C49.5794 31.7975 49.4964 31.2454 49.5124 30.7237C49.5465 30.7487 49.6434 30.7591 49.6738 30.7894C49.6847 30.8003 49.7339 30.8911 49.7396 30.8911C49.743 30.8911 50.0419 30.3855 50.0803 30.3471C50.5458 29.8816 50.6477 29.1759 51.0965 28.727C51.1785 28.6451 51.182 28.5041 51.2639 28.4222C51.3955 28.2906 51.7721 27.9791 51.7721 27.8483C51.7721 27.7345 51.5567 27.4273 51.4193 27.2684C51.4521 27.2118 51.489 27.1582 51.521 27.101C51.5249 27.1014 51.5291 27.101 51.5329 27.101C51.687 27.101 51.8093 27.1018 51.9394 27.1668C51.9918 27.193 52.4979 26.362 52.6149 26.1864C52.6526 26.13 52.8097 25.9224 52.9557 25.7201C53.3521 25.5482 53.7741 25.4177 54.1573 25.2538L54.3306 25.218ZM45.4892 29.815C45.4591 29.813 45.4318 29.8187 45.4115 29.8389C45.3775 29.873 45.6021 29.8493 45.6745 29.8748C45.6181 29.8584 45.5479 29.819 45.4892 29.815ZM53.8942 40.665C53.8802 40.6847 53.8274 40.7965 53.7986 40.7965C53.7974 40.7965 53.8367 40.7392 53.8942 40.665Z" fill="#E6B35A"/>
<path fill-rule="evenodd" clip-rule="evenodd" d="M64.5828 20.4655C64.5588 20.499 64.5339 20.5281 64.5051 20.5552C64.5286 20.5858 64.5519 20.6199 64.5708 20.6389C64.6166 20.6847 64.7621 20.7865 64.7621 20.878C64.7621 20.9305 65.2054 21.6082 65.2882 21.691C65.6925 22.0953 66.0217 23.0233 66.0593 23.8132C65.9907 23.7534 65.918 23.6971 65.8441 23.6398C65.8345 23.6285 65.8241 23.6138 65.8143 23.6039C65.201 22.9907 64.571 22.2172 63.9491 21.5953C63.8403 21.4866 63.654 21.3959 63.5187 21.2606C63.4493 21.1912 62.9546 20.8204 62.9448 20.8302C62.8321 20.9429 63.2318 21.0533 63.2318 21.2128C63.2318 21.2928 64.1625 22.5776 64.1404 22.5996C64.0804 22.6597 64.0044 22.5593 63.997 22.5518C63.9902 22.5451 63.9048 22.5403 63.7877 22.5399C63.7594 22.5338 63.735 22.5303 63.722 22.5399C63.6857 22.54 63.6499 22.5454 63.6084 22.5458C63.546 22.5256 63.486 22.504 63.4231 22.504C63.223 22.504 63.0253 22.5364 62.8193 22.5638C62.7574 22.5659 62.6915 22.5674 62.634 22.5697C62.6564 22.5719 62.6772 22.5787 62.6997 22.5817C62.5939 22.5935 62.4874 22.5996 62.3709 22.5996C62.3594 22.5996 62.3251 22.604 62.3052 22.6056C62.3104 22.6031 62.3181 22.6021 62.3231 22.5996C62.34 22.5912 62.3628 22.5869 62.3829 22.5817C62.2536 22.5886 62.137 22.5945 62.1318 22.5996C62.1197 22.6118 62.1064 22.6256 62.09 22.6355C61.9192 22.6626 61.7353 22.6987 61.6715 22.7431C61.6087 22.756 61.5513 22.7703 61.5101 22.7909C61.3936 22.8491 61.2232 22.9352 61.2232 22.9344C61.2232 22.9236 61.4585 22.8682 61.7253 22.7969C61.921 22.8039 62.4687 22.766 62.6101 22.6953C62.8888 22.5559 63.356 22.995 63.6622 22.7909C63.6855 22.7754 63.7076 22.7503 63.7279 22.7251C63.7777 22.7359 63.8264 22.7481 63.8774 22.761C63.8642 22.7898 63.8535 22.8152 63.8535 22.8387C63.8535 22.9184 64.0129 22.8387 64.0926 22.8387C64.145 22.8387 64.2697 22.9121 64.3198 22.8925C64.5566 22.9803 64.7823 23.09 64.9654 23.2153C64.9496 23.2226 64.9337 23.2253 64.9175 23.2333C64.9117 23.2311 64.9053 23.2296 64.8996 23.2273C64.899 23.2312 64.9002 23.2354 64.8996 23.2393C64.514 23.4333 64.0709 23.7631 63.7399 24.0941C63.5795 24.2545 63.5973 24.6432 63.4709 24.7696C63.2457 24.9949 63.4713 25.808 63.4769 25.9592C63.5219 25.8416 63.7826 25.3658 63.8116 25.3076C63.9367 25.0575 64.3396 24.8417 64.7741 24.7397C64.7537 25.8966 64.8544 27.0801 64.7561 28.2189C64.6121 29.8873 64.618 31.6586 64.8219 33.3121C64.8703 33.7048 64.7328 38.1353 64.8936 38.3216C65.0668 38.5221 65.3073 38.8581 65.4974 39.1884C66.3243 40.625 67.4673 41.7797 68.1397 43.3371L68.6777 44.5865C68.6985 44.6348 68.8678 44.9541 68.8869 45.0408C68.9392 44.9509 69.2578 44.607 69.3532 44.2756C69.6124 43.3751 70.1521 42.755 70.6385 42.004C71.3026 40.9784 72.2689 39.9672 72.8742 39.2661C73.0018 39.1183 73.0349 38.9209 73.0775 38.7281C73.7602 39.5385 74.4782 40.346 75.1458 41.209C75.1468 41.2101 75.1449 41.2137 75.1458 41.2149C75.2213 41.3321 75.3257 41.4636 75.4387 41.5975C75.4428 41.6024 75.4466 41.6046 75.4507 41.6095C75.6578 41.8901 75.8571 42.1807 76.0485 42.4763C76.2816 42.8363 76.4102 43.3606 76.6582 43.648C76.7611 43.7671 77.0321 44.6702 77.1305 44.6702C77.1445 44.6702 77.9212 42.9531 78.2842 42.3926C78.7603 41.6574 79.3984 41.0469 79.8385 40.2824C80.2153 39.6278 80.4863 38.8881 80.7711 38.3993C80.9878 38.5011 81.2618 38.4765 81.4526 38.2857C81.5778 38.1605 81.5834 37.5909 81.5004 37.4249C81.4136 37.2514 81.543 37.0318 81.4526 36.851C81.2872 36.5203 81.5265 36.0424 81.3569 35.7033C81.2518 35.493 81.4569 34.7989 81.3091 34.6511C81.1262 34.4682 81.2442 33.3499 81.1058 32.8817C81.1006 32.7395 81.0952 32.599 81.0879 32.4572C81.0889 32.4389 81.0844 32.4201 81.0819 32.4034C81.043 31.6789 80.9759 30.9587 80.8548 30.2574C80.7745 29.7924 80.8819 29.3044 80.783 28.8466C80.7172 28.5415 80.643 24.6393 80.7173 24.381C80.7249 24.3545 80.7416 24.2722 80.7591 24.1778C81.3707 23.6465 82.1589 23.1013 82.6123 22.8746C82.7108 22.8254 83.1503 22.672 83.1503 22.6056C83.1503 22.5267 82.4692 22.8088 81.9368 22.8088C81.3661 22.8088 77.1646 23.2471 77.0648 23.3468C77.0339 23.3474 77.007 23.3495 76.999 23.3588C76.9713 23.3909 77.268 25.1621 77.268 25.3973C77.268 26.0378 77.5726 27.6781 77.806 28.2189C78.008 28.6867 77.9843 29.6153 78.1468 30.1796C78.1631 30.2364 78.1481 30.3468 78.1348 30.4606C77.9958 30.7959 77.8564 31.0738 77.6267 31.3035C77.6077 31.3225 77.8063 31.4831 77.818 31.4948C77.9534 31.6302 77.9533 32.0524 78.0571 32.26C78.1518 32.4494 78.0271 32.8517 78.1527 32.9773C78.2292 33.0538 78.1737 33.9069 78.2962 34.0294C78.4429 34.1761 78.1571 35.6641 78.2962 35.9424C78.3542 36.0583 78.5992 35.9744 78.6788 36.1337C78.73 36.236 78.5716 36.3134 78.631 36.3728C78.5634 36.3693 78.4955 36.3648 78.4875 36.3728C78.4737 36.3866 78.2521 36.4722 78.2962 36.5163C78.3871 36.6071 79.2527 37.0298 79.2527 37.0901C79.2527 37.1583 78.4299 37.1097 78.344 37.2814C78.3251 37.3193 78.4367 37.8523 78.4875 37.9031C78.5662 37.9818 78.7455 37.9748 78.9538 38.0227C78.8899 38.1457 78.911 38.5934 78.8701 38.7161C78.8228 38.8582 78.7723 39.0293 78.7266 39.2063C78.554 39.3211 78.3833 39.4361 78.2066 39.4873C77.8336 39.5953 77.3009 39.6493 77.0588 39.9297C77.0277 39.9656 76.4018 39.55 76.2936 39.4873C75.5556 39.0599 74.7261 38.8077 74.01 38.4053C74.0085 38.4045 74.0056 38.4061 74.0041 38.4053C73.994 38.3958 73.9841 38.3906 73.9742 38.3814C73.8705 37.8286 73.7472 36.6527 73.6753 35.7929C73.718 35.517 73.7658 35.2417 73.8187 34.968C73.7596 34.9733 73.6785 34.9799 73.6514 34.9799C73.6342 34.9799 73.3316 34.9415 73.2688 34.9441C73.2547 34.9543 73.2449 34.9567 73.2449 34.9441C73.2449 34.9427 73.2618 34.9443 73.2688 34.9441C73.2829 34.9339 73.2993 34.9198 73.3106 34.9142C73.4214 34.8588 73.5678 34.8693 73.6813 34.8125C73.7273 34.7895 73.7966 34.7988 73.8546 34.7946C73.8652 34.7428 73.8733 34.6909 73.8845 34.6392C73.9343 34.4083 73.9348 34.1594 73.9443 33.9159C73.9195 33.8509 73.9035 33.7785 73.8905 33.7007C73.7455 33.7273 73.5946 33.7694 73.5139 33.7963C73.4708 33.8107 73.4033 33.7969 73.3465 33.7903C73.3027 33.8281 73.2449 33.8725 73.2449 33.8322C73.2449 33.7867 73.2896 33.7838 73.3465 33.7903C73.3574 33.7809 73.3693 33.7676 73.3764 33.7604C73.453 33.6838 73.712 33.6015 73.8726 33.5751C73.8353 33.1753 73.9082 32.6655 73.9801 32.1823C73.9645 32.18 73.9192 32.1775 73.9204 32.1763C73.9351 32.1616 73.9571 32.1386 73.9861 32.1225C74.0049 31.9968 74.024 31.8697 74.0399 31.7519C73.8339 31.7783 73.5781 31.7698 73.4122 31.7698C73.4025 31.7698 73.3891 31.7608 73.3764 31.7578C73.3888 31.7483 73.4028 31.7386 73.4122 31.7339C73.4995 31.6903 73.6288 31.7123 73.7171 31.6682C73.7735 31.64 73.9182 31.611 74.0579 31.5845C74.0739 31.448 74.0854 31.3199 74.0878 31.2079C73.9172 31.2263 73.7225 31.2547 73.5557 31.2856C73.413 31.3456 73.2588 31.3792 73.2747 31.3633C73.2972 31.3409 73.4155 31.3115 73.5557 31.2856C73.5761 31.277 73.596 31.2714 73.6155 31.2617C73.7674 31.1857 73.9896 31.1346 74.1296 31.0405C74.1675 30.9537 74.2149 30.8645 74.1595 30.7535C73.8528 30.1403 74.3966 29.1294 74.0937 28.5238C73.9543 28.2449 73.753 26.2963 73.753 25.8815C73.753 25.4817 73.4521 24.1558 73.484 24.124C73.6019 24.0061 74.8409 23.1693 75.4447 22.779C75.4945 22.6624 75.5342 22.5494 75.5105 22.5219C75.4881 22.496 75.456 22.489 75.4148 22.492C75.2913 22.501 75.108 22.6056 75.0382 22.6056C74.2196 22.6056 73.3732 22.6774 72.5335 22.6774C72.4366 22.6774 71.9854 22.6059 71.9237 22.6774C71.9218 22.6796 71.9313 22.7594 71.9357 22.7909C71.0002 22.5682 70.4843 22.7819 70.3694 23.048C70.2995 23.21 70.6379 25.3075 70.7102 25.5587C70.8116 25.9112 70.6087 26.3839 70.7102 26.7364C70.7936 27.0262 70.724 27.5578 70.8417 27.8303C71.1928 28.6436 70.6224 30.1981 70.8417 31.2139C70.9869 31.8866 70.7993 32.4481 70.9792 33.073C70.9854 33.0947 70.9911 33.1169 70.9971 33.1388C71.0391 33.6431 71.0748 34.3753 71.0748 34.6034V34.9859C71.0748 35.0352 70.9914 35.046 71.027 35.0816C71.1337 35.1883 71.3049 35.23 71.4335 35.3147C71.4497 35.385 71.4692 35.455 71.4873 35.524C71.378 35.6657 71.0963 35.8204 71.1227 35.8468C71.2123 35.9364 71.3973 35.9412 71.5411 35.9723C71.5464 36.012 71.5535 36.0514 71.559 36.0919C71.3762 36.1483 71.0748 36.2384 71.0748 36.325C71.0748 36.4629 71.2026 37.5363 71.1705 37.5684C71.1238 37.6151 71.027 38.2039 71.027 38.2379C71.027 38.3655 71.2821 38.2379 71.4096 38.2379C71.4563 38.2379 71.5583 38.2446 71.6427 38.2499C71.5423 38.3258 71.4442 38.4004 71.3677 38.489C70.7938 39.1538 70.0269 39.5984 69.3113 40.1509C69.2365 40.2087 68.9484 40.5025 68.9287 40.4797C68.6451 40.1512 68.3062 39.8975 67.8766 39.6487C67.7427 39.5712 67.6758 39.3437 67.5419 39.2662C66.976 38.9385 66.5155 38.3629 65.9876 37.9391C65.9627 37.8929 65.9425 37.8475 65.9278 37.8075C65.979 37.7948 66.0251 37.7849 66.0773 37.7717C66.3945 37.7628 67.2482 37.617 67.2968 37.5684C67.4502 37.415 67.2319 36.8374 67.3446 36.6119C67.4211 36.4589 67.2681 36.1911 67.3446 36.0381C67.3676 35.992 67.4033 35.7511 67.3446 35.7511C67.2488 35.7511 66.8628 35.652 66.8185 35.6077C66.7975 35.5866 67.407 35.3207 67.3446 35.3207C67.3083 35.3207 67.2809 34.2845 67.3924 34.1729C67.4835 34.0819 67.2788 33.6289 67.2489 33.5991C67.1296 33.4797 67.4602 33.1965 67.4881 33.1686C67.536 33.1207 67.3876 32.5517 67.5359 32.4035C67.5925 32.3469 67.4881 31.8274 67.4881 31.6861C67.4881 30.7638 67.3446 29.84 67.3446 29.008C67.3446 28.9446 67.3483 28.7157 67.3506 28.5118C67.35 28.5101 67.3511 28.5075 67.3506 28.5059C67.2851 28.3234 67.3924 27.9841 67.3924 27.8602C67.3924 27.6766 67.3667 27.3121 67.4402 27.2385C67.466 27.2127 67.5068 27.2036 67.5538 27.2027C67.6788 27.4967 67.8709 27.7649 67.9663 27.8602C68.0021 27.8961 68.3913 28.296 68.588 28.0994C68.7029 27.9844 68.8257 27.9095 68.9228 27.8124C69.0029 27.7323 69.0339 27.4621 69.114 27.382C69.1429 27.3531 69.114 27.1404 69.114 27.0951C69.114 26.2891 69.0281 25.2396 68.5402 24.7517C68.5355 24.747 68.527 24.7444 68.5222 24.7398C68.52 24.736 68.5185 24.7315 68.5163 24.7278C68.2763 24.3338 67.8973 24.0028 67.6973 23.6697C67.6784 23.6383 67.6598 23.6117 67.6375 23.586C67.629 23.6318 67.6129 23.6809 67.6315 23.6996C68.0284 24.0965 68.6213 25.5937 68.3011 26.2342C68.1041 26.6282 68.2891 26.7125 67.8228 26.7125C67.7654 26.7125 67.6995 26.7805 67.6315 26.7125C67.3482 26.4291 67.2255 25.9941 67.0397 25.5826C67.0462 25.577 67.0516 25.5708 67.0577 25.5647C67.1626 25.4598 67.1366 24.8618 67.0577 24.7039C66.8852 24.359 67.14 24.0078 66.962 23.6518C66.5993 22.9264 66.3177 21.9554 65.7186 21.3562C65.4424 21.0801 65.1209 20.7226 64.7621 20.5432C64.7409 20.5326 64.6494 20.493 64.5828 20.4655ZM62.3829 22.5817C62.4531 22.578 62.5242 22.5735 62.616 22.5698C62.5824 22.5669 62.5462 22.5636 62.5144 22.5638C62.4644 22.564 62.4238 22.5711 62.3829 22.5817ZM73.3524 31.7579C73.357 31.7567 73.3633 31.7565 73.3704 31.7579C73.3547 31.7696 73.3465 31.7834 73.3465 31.7698C73.3465 31.7642 73.3478 31.7589 73.3524 31.7579ZM68.8809 45.0468C68.875 45.0584 68.8734 45.0588 68.8809 45.0588C68.8863 45.0588 68.889 45.0582 68.8869 45.0468C68.8865 45.0474 68.8813 45.0463 68.8809 45.0468Z" fill="#E6B35A"/>
<path fill-rule="evenodd" clip-rule="evenodd" d="M94.8603 26.351C94.8529 26.4629 94.7263 26.6796 94.8383 26.6869C94.9503 26.6942 94.8318 26.2424 94.8603 26.351C94.9544 26.7097 94.8905 26.8858 94.9463 27.0987C94.9823 27.236 95.2243 27.3193 95.2603 27.4566C95.2818 27.5388 95.537 27.5725 95.5852 27.6465C95.7324 27.8719 96.2812 28.2021 96.3431 28.4382C96.3574 28.4924 96.4068 28.6275 96.4351 28.5791C96.5242 28.4267 96.7231 26.7525 96.7457 26.4067C96.7837 25.8252 97.5039 24.0527 97.4252 23.7524C97.3895 23.6163 97.2543 23.4906 97.1492 23.3296C96.7762 22.7581 95.0444 22.6475 95.2798 23.5447C95.3729 23.8999 95.2776 24.4037 95.5659 24.8453C95.7964 25.1986 96.5222 24.9683 96.4056 24.9002C96.3371 24.8602 96.3365 25.0564 96.3567 25.1331C96.3785 25.2165 96.1011 25.5704 96.0528 25.653C95.851 25.9983 95.7278 26.4279 95.662 26.4708C95.578 26.5257 95.4235 26.6801 95.5101 26.7308C95.7267 26.8574 95.0769 26.4776 94.8603 26.351Z" fill="#E6B35A"/>
<path fill-rule="evenodd" clip-rule="evenodd" d="M104.976 22.9045C104.881 22.9143 104.469 23.3512 104.312 23.5083C103.593 24.2278 102.786 24.828 102.059 25.5408C101.631 25.6498 101.144 25.8157 100.941 26.019C100.748 26.2121 100.546 26.4494 100.331 26.6646C100.183 26.8124 100.046 27.6607 99.9603 27.7467C99.8267 27.8803 99.6819 28.1864 99.5179 28.3504C99.4238 28.4445 99.3173 28.5466 99.219 28.6433C99.195 28.6524 99.1715 28.6652 99.1473 28.6732C98.8519 28.7717 98.5086 28.9602 98.2147 28.9602C98.1592 28.9602 97.6647 29.0008 97.6647 29.008C97.6647 29.0269 97.895 29.0394 97.9278 29.0558C98.0344 29.1091 98.4404 29.0723 98.7348 29.1216C98.3961 29.451 98.0585 29.7859 97.7305 30.1139C97.7029 30.1415 97.6548 30.2515 97.6109 30.377C97.473 30.4395 97.3532 30.4905 97.3061 30.4905C97.3061 30.4905 96.4931 30.7416 96.4692 30.7536C96.4567 30.7598 96.4397 30.7614 96.4213 30.7595C96.3147 30.8026 96.2298 30.8493 96.1344 30.897C96.105 30.9117 96.0387 30.8881 96.0387 30.9209C96.0387 30.9529 96.465 30.9448 96.517 30.9448C96.686 30.9448 96.8781 30.946 97.0191 31.0166C97.033 31.0235 97.2198 30.9952 97.4256 30.9628C97.4038 31.0833 97.3946 31.2655 97.4256 31.3274C97.4931 31.4623 97.5893 31.5039 97.6946 31.5008C97.6734 31.5332 97.6554 31.5641 97.6468 31.5845C97.6483 31.5945 97.6453 31.6044 97.6468 31.6144C97.6797 31.6348 97.8431 31.6144 97.88 31.6144H98.0713C98.0872 31.6144 98.1191 31.5984 98.1191 31.6144C98.1191 31.6328 98.0581 31.6275 98.0473 31.6383C97.9539 31.7317 97.8217 31.8205 97.7006 31.9193C97.8362 32.5974 97.6491 33.3474 97.7843 34.0235C98.0624 35.4138 98.2374 37.6916 97.7843 39.0509C97.7264 39.2247 97.7528 39.8296 97.6289 39.9536C97.6258 39.9567 97.4112 40.1903 97.4734 40.2525C97.6089 40.1061 98.1778 39.8193 98.3462 39.8819C98.2409 39.9577 98.18 40.0576 98.2386 40.1748C98.2458 40.1892 98.2276 40.2355 98.2386 40.2465C98.3458 40.3537 98.4051 40.4733 98.5734 40.5574C98.672 40.6067 99.1586 40.6883 99.219 40.7487C99.3373 40.867 99.5023 40.9124 99.6494 41.0595C99.678 41.0881 99.7165 41.1744 99.7451 41.203C99.8316 41.2896 100.016 41.3388 100.08 41.466C100.134 41.5743 100.242 41.7184 100.319 41.8725C100.426 42.0862 100.52 42.719 100.678 42.8768C100.879 43.0784 101.043 43.3615 101.204 43.5224C101.288 43.6067 101.459 43.6338 101.538 43.7137C101.603 43.7782 101.95 43.767 102.226 43.7735C102.353 43.8905 102.601 44.0075 102.734 44.0963C102.877 44.1917 102.993 44.3151 103.141 44.4132C103.32 44.5325 103.539 44.9942 103.631 45.1783C103.652 45.2207 104.078 45.7486 104.085 45.7522C104.193 45.8062 104.304 45.8871 104.39 45.9734C104.466 46.0497 104.795 46.2997 104.946 46.2245C105.002 46.1965 105.115 46.193 105.149 46.1587C105.28 46.0281 105.388 45.8593 105.49 45.6924C105.687 45.5124 106.026 45.2993 106.261 45.1425C107.014 44.6405 107.658 43.9395 108.365 43.4089C109.003 42.9305 109.728 42.5783 110.392 42.1356C110.956 41.7597 111.525 41.0399 112.048 40.7786C112.081 40.762 112.123 40.7474 112.167 40.7307C112.212 40.7696 112.252 40.8127 112.287 40.8563C112.467 41.2981 112.538 42.1354 112.538 42.5182C112.538 42.6037 112.559 42.76 112.514 42.8051C112.47 42.8489 112.534 43.0004 112.49 43.0442C112.454 43.0801 112.502 43.1996 112.466 43.2355C112.438 43.2636 112.462 43.6941 112.418 43.7377C112.359 43.7969 112.091 43.0846 111.701 43.4746C111.404 43.7715 111.388 44.4047 111.701 44.718C111.802 44.819 111.889 44.7659 112.012 44.7659C112.351 44.7659 112.511 44.3865 112.657 44.2398C112.701 44.196 112.638 44.0445 112.681 44.0007C112.729 43.9529 112.634 43.7616 112.681 43.7137C112.763 43.6318 112.777 43.33 112.777 43.1877C112.777 43.0047 112.825 42.375 112.897 42.2312C112.92 42.1834 112.918 42.126 112.914 42.0638C112.916 42.0642 112.919 42.0638 112.92 42.0638C112.932 42.0638 112.992 41.7072 112.992 41.6573C112.992 41.2741 113.031 40.8622 113.04 40.4558C113.164 40.2157 113.1 38.7653 113.1 38.6026C113.1 38.0388 113.387 36.8633 113.172 36.6478C112.694 36.1705 108.388 36.6924 107.289 36.7255C107.31 36.7433 107.341 36.7714 107.379 36.8032H107.917C107.95 36.8032 108.024 36.8101 108.12 36.8271C108.123 36.8292 108.123 36.8311 108.126 36.8331C108.45 37.0741 109.534 37.5293 109.716 37.7119C110.005 38.001 110.226 38.3175 110.481 38.5727C110.504 38.5956 110.518 38.6213 110.529 38.6504C110.525 38.6534 110.522 38.6592 110.517 38.6624C110.17 38.7163 109.733 38.8361 109.662 38.8716C109.318 39.044 108.759 39.1203 108.311 39.3438C108.018 39.4904 107.698 39.8433 107.409 40.103C107.615 40.6415 108.072 41.4421 108.09 41.4421C108.093 41.4421 107.845 41.1972 107.612 40.9639C107.483 40.8353 107.324 40.5092 107.182 40.4378C107.157 40.4256 107.094 40.4049 107.02 40.384C106.916 40.4396 106.788 40.5221 106.644 40.6231C106.665 40.6587 106.697 40.7122 106.703 40.7248C106.877 41.0718 107.185 41.3063 107.373 41.6812C107.715 42.3652 107.814 42.534 107.277 41.729C107.179 41.5813 107.13 41.4859 106.99 41.3465C106.873 41.2293 106.778 41.086 106.656 40.9639C106.588 40.896 106.52 40.8285 106.452 40.7606C106.085 41.0387 105.702 41.3877 105.574 41.6454C105.466 41.8599 105.294 42.1578 105.131 42.3209C104.886 42.5662 104.685 42.7836 104.527 43.098C104.501 43.1517 104.485 43.2238 104.486 43.3072C104.458 43.3348 104.428 43.3632 104.402 43.3909C104.316 43.3252 104.232 43.2691 104.145 43.1996C104.141 43.1759 104.133 43.1518 104.151 43.1159C104.233 42.9521 104.118 42.5872 104.019 42.4882C104.005 42.4738 103.951 42.4358 103.936 42.4046C103.838 42.2095 103.505 42.1478 103.374 42.016C103.356 41.9982 103.481 41.856 103.493 41.8307C103.504 41.8087 103.531 41.7581 103.547 41.741C103.512 41.7366 103.341 41.653 103.326 41.6454C103.299 41.632 103.253 41.6371 103.224 41.6274C103.128 41.5953 103.087 41.5142 103.003 41.472C102.873 41.4071 102.729 41.3531 102.597 41.2867C102.201 41.0891 101.715 40.8114 101.413 40.5096C101.369 40.4653 101.251 40.4491 101.21 40.4079C101.179 40.3773 101.059 40.3345 100.929 40.2944C100.602 40.0299 100.317 39.7901 100.122 39.589C100.135 39.5531 100.157 39.488 100.163 39.4754C100.326 39.15 100.633 38.9489 100.773 38.6684C100.842 38.5313 100.478 38.1804 100.367 37.957C100.324 37.8709 100.367 37.6488 100.367 37.5505C100.367 37.3288 100.469 35.7254 100.522 35.4163C100.426 35.4025 100.291 35.2453 100.229 35.1832C100.116 35.0695 99.9574 35.013 99.8227 34.8783C99.7489 34.8045 99.7191 34.6352 99.6554 34.5077C99.2213 33.6396 99.2497 32.4902 99.7331 32.0747C99.7455 32.0486 99.7643 32.0062 99.7689 31.997C99.8872 31.7604 100.21 31.6517 100.367 31.4948C100.399 31.4627 100.498 31.4588 100.534 31.4231C100.601 31.3566 100.876 31.3992 100.869 31.3992C100.619 31.3992 100.343 31.0403 100.343 30.7775C100.343 30.5043 100.421 30.3474 100.582 30.1797C100.71 30.1898 100.833 30.2033 100.875 30.2454C100.884 30.2542 101.044 30.4166 101.078 30.3829C101.12 30.3415 101.094 30.1937 101.144 30.1438C101.273 30.0144 101.42 29.7363 101.55 29.6058L103.242 27.914C103.421 27.7355 104.554 27.6484 104.629 27.5733C104.782 27.4201 104.38 26.6389 104.659 26.3598C104.965 26.0538 105.592 25.7613 106.01 25.3435C106.018 25.3354 106.03 25.327 106.04 25.3196C106.217 25.4313 106.368 25.5642 106.416 25.6125C107.225 26.4211 109.109 26.9484 110.021 27.8602C110.18 28.0189 110.587 27.9834 110.768 28.1651C110.849 28.2457 110.406 28.8966 110.32 29.0678C110.292 29.1242 110.273 29.9079 110.26 30.6101C110.243 30.6112 110.224 30.6147 110.206 30.616C110.159 30.833 110.104 31.0757 110.147 31.16C110.252 31.3717 110.242 31.6329 110.242 31.8774C110.197 31.7999 110.147 31.7206 110.147 31.6383C110.147 31.3952 110.053 30.8754 109.925 30.634C109.805 30.6397 109.698 30.638 109.633 30.6161C109.565 30.5936 109.397 30.5754 109.184 30.5563C109.143 30.6596 109.17 31.5278 109.112 32.0388C109.126 32.1396 109.13 32.2367 109.095 32.3078C109.092 32.3131 108.991 32.4676 109.047 32.3556C109.077 32.2951 109.097 32.1763 109.112 32.0388C109.092 31.8897 109.047 31.7324 109.047 31.6383C109.047 31.3081 108.928 30.8395 108.79 30.5264C108.082 30.4845 107.181 30.4728 107.026 30.5503C106.705 30.7109 106.508 31.0128 106.213 31.1601C106.087 31.223 105.68 31.0943 105.508 31.0943C105.095 31.0943 103.575 31.3317 103.063 31.6024C102.654 31.5405 102.203 31.8303 101.885 31.9013C101.646 31.81 101.394 31.7176 101.144 31.722C101.034 31.7239 100.927 31.7444 100.821 31.7937C100.633 31.8 100.467 31.8254 100.391 31.9013C100.342 31.95 100.215 32.0293 100.175 32.0687C100.156 32.0886 100.141 32.1238 100.128 32.1584L100.146 32.1763C99.9912 32.3112 99.8515 32.4726 99.7929 32.6486C99.7228 32.8587 99.7212 33.0833 99.7212 33.3241C99.7212 33.7411 100.055 34.0252 100.265 34.3403C100.475 34.6548 100.683 34.8839 101.006 35.0457C101.233 35.159 101.716 34.9986 101.885 34.9142C102.091 34.8111 102.33 34.7249 102.561 34.6093C102.867 34.4562 102.96 34.1214 103.051 33.8202C103.157 33.6605 103.22 33.3101 103.242 33.2882C103.299 33.2316 103.341 33.1663 103.392 33.0969C103.699 33.0639 103.951 33.0422 104.043 33.0371C103.934 33.383 103.761 33.7416 103.78 33.7605C103.824 33.8046 104.216 33.4976 104.252 33.4616C104.398 33.3161 104.929 33.208 105.197 33.061C105.24 33.0537 105.28 33.0433 105.316 33.0252C105.401 32.9831 105.527 33.0013 105.627 33.0013C105.689 33.0013 105.742 33.0035 105.795 33.0072C105.797 33.0074 105.799 33.0071 105.801 33.0072C105.972 33.0478 106.155 33.0999 106.321 33.1387C106.464 33.2034 106.601 33.2839 106.787 33.3779C107.654 33.2921 108.508 33.1985 109.19 33.1985C110.163 33.1985 111.064 32.9714 112.048 32.9714H113.327C113.406 32.9714 113.554 33.1282 113.554 33.0491V30.4845C113.48 30.4109 113.412 30.342 113.375 30.3231C113.276 30.2736 113.303 30.2958 113.303 30.1557C113.303 29.8849 113.413 29.7197 113.554 29.5699V29.4563C113.573 29.441 113.594 29.4245 113.614 29.4145C113.677 29.3831 113.792 29.3796 113.829 29.3427C113.851 29.321 113.71 29.1878 113.71 29.1514C113.71 29.0935 113.639 29.0091 113.614 28.9841C113.606 28.9762 113.464 28.2308 113.47 28.2189C113.579 28.0021 113.62 27.3522 113.757 27.2146C113.842 27.13 113.871 26.9336 113.949 26.8559C114.061 26.7438 114.15 26.6068 114.259 26.4972C114.27 26.4867 114.355 26.4352 114.355 26.4255C114.355 26.3826 113.99 26.62 113.949 26.6407C113.74 26.7452 113.547 26.9074 113.399 27.0831C113.398 27.084 113.394 27.0821 113.393 27.0831C113.321 27.1187 113.257 27.159 113.213 27.2026C113.208 27.2079 112.991 27.4827 112.98 27.4716C112.962 27.4534 113.058 27.0113 112.98 26.9336C112.691 26.6448 112.285 26.6646 111.826 26.6646C111.796 26.6646 111.877 26.4429 111.892 26.1685C111.819 26.1353 111.743 26.1027 111.671 26.0668C110.637 25.5496 109.632 24.9877 108.521 24.7098C107.844 24.5407 107.124 23.9622 106.56 23.586C106.078 23.2648 105.363 23.2855 104.988 22.9105C104.984 22.9071 104.982 22.9038 104.976 22.9045ZM103.547 41.741C103.551 41.7414 103.559 41.7427 103.559 41.741C103.559 41.7295 103.555 41.733 103.547 41.741ZM110.248 31.8953C110.263 31.9211 110.278 31.9494 110.29 31.9731C110.292 31.9756 110.29 31.9974 110.29 32.0149C110.315 32.0699 110.334 32.1165 110.29 32.1165C110.288 32.1165 110.29 32.0574 110.29 32.0149C110.272 31.9744 110.254 31.9311 110.248 31.8953ZM101.526 32.3855C102.139 32.3604 102.414 33.5724 102.088 33.898C101.985 34.0016 101.514 34.4238 101.347 34.3403C101.233 34.2831 101.072 34.262 100.977 34.167C100.713 33.903 100.343 33.4364 100.57 32.9833C100.787 32.5502 101.031 32.4656 101.246 32.4812C101.346 32.4209 101.439 32.3891 101.526 32.3855Z" fill="#E6B35A"/>
<path fill-rule="evenodd" clip-rule="evenodd" d="M137.328 19.6764C136.835 19.9282 136.314 20.2443 136.163 20.4416C135.846 20.854 135.029 21.2408 134.812 21.8703C133.572 25.4578 132.715 27.7842 129.42 30.0123C128.915 30.3535 128.139 30.0842 127.626 30.3411C128.108 30.3991 129.909 30.5962 130.215 30.1976C130.437 29.9083 131.457 29.2489 132.265 28.733C132.171 29.1625 132.228 29.6106 132.594 29.9764C132.628 30.0102 132.763 29.9426 132.797 29.9764C132.843 30.0224 132.896 30.0489 132.959 30.0601C132.892 30.4293 132.833 30.7622 132.791 30.8911C131.78 34.0015 133.993 31.5609 133.532 32.8937C133.408 33.2531 133.615 33.7162 133.497 34.0594C133.002 35.6194 133.41 37.3254 133.449 39.0928C133.174 39.451 133.087 42.1388 132.869 42.4225C132.768 42.5541 132.566 42.7066 132.444 42.8649C132.22 43.1578 131.821 43.4694 131.392 43.6779C131.088 43.8261 129.192 46.2146 128.804 46.7207C128.716 46.8358 128.262 47.4178 128.32 47.4619C128.411 47.5318 129.235 46.6232 129.438 46.4457C129.809 46.1208 130.552 45.7215 131.201 45.3099C131.394 45.2591 131.587 45.1469 131.631 45.0887C131.69 45.0128 131.896 45.057 131.954 44.9811C132.082 44.8143 132.41 44.774 132.522 44.6284C132.712 44.3816 132.89 44.1027 132.97 43.7436C133.02 43.7131 133.08 43.6838 133.132 43.654C133.293 43.3796 133.671 43.0585 133.742 42.9665C133.834 42.8456 134.217 42.8064 134.31 42.6855C134.49 42.451 135.001 42.3453 135.194 42.0937C135.208 42.076 135.672 41.9257 136.258 41.753C136.435 41.7802 136.632 41.7205 136.856 41.5856C137.002 41.5445 137.141 41.5056 137.287 41.466C137.425 41.478 137.557 41.512 137.633 41.5019C137.703 41.4927 138.748 41.6738 138.751 41.6992C138.755 41.7248 138.537 41.4763 138.518 41.4481C138.338 41.1813 138.068 40.8942 137.86 40.5873C137.733 40.3983 137.571 40.2168 137.442 40.0254C137.381 39.9357 137.362 39.8238 137.34 39.7085C137.377 39.3865 137.42 39.0049 137.484 38.4771C137.497 38.3717 137.504 38.2857 137.514 38.1901C136.92 38.1772 135.906 38.201 135.906 38.0945C135.906 38.0494 135.998 38.0945 136.043 38.0945C136.228 38.0945 136.966 38.0633 137.532 38.0108C137.585 37.4204 137.586 37.0083 137.579 36.6418C136.878 36.6383 135.84 36.6488 135.84 36.5342C135.84 36.4706 136.858 36.4971 137.579 36.4984C137.576 36.3179 137.57 36.1391 137.574 35.9484C137.075 35.9325 136.451 35.9305 136.312 35.9305C135.84 35.9305 136.846 35.7051 137.591 35.5658C137.599 35.4518 137.612 35.3326 137.627 35.2012C137.667 34.8533 137.562 34.4937 137.585 34.1431C137.633 33.4269 137.831 32.6992 137.878 31.985C137.947 30.9531 137.866 29.9164 137.92 28.8705C138.01 28.8862 138.106 28.8862 138.225 28.8705C138.309 28.8595 138.45 28.972 138.5 28.9064C138.646 28.7167 138.833 28.5521 138.978 28.3624C138.994 28.3417 138.965 26.7858 138.901 26.7364C138.671 26.5604 138.31 25.4855 138.47 25.0207C138.59 24.6735 138.73 22.3557 138.673 21.9241C138.638 21.6545 138.659 20.9423 138.458 20.7883C138.436 20.7714 138.414 20.7653 138.393 20.7525C138.392 20.7517 138.393 20.7471 138.393 20.7465C138.384 20.6333 138.379 20.5152 138.381 20.4117C138.38 20.4102 138.382 20.4073 138.381 20.4058C138.345 20.3552 138.304 20.3119 138.255 20.2742C137.983 20.0654 137.818 19.8346 137.43 19.7004C137.397 19.6889 137.359 19.6813 137.328 19.6764Z" fill="#E6B35A"/>
<path fill-rule="evenodd" clip-rule="evenodd" d="M152.004 6.98525C151.397 6.99292 150.754 7.15142 149.942 7.4037C149.937 7.40523 149.929 7.40217 149.924 7.4037C148.74 7.54757 147.414 7.85364 146.54 8.408C146.183 8.46894 145.593 8.83673 145.136 9.221C145.126 9.22941 145.116 9.23647 145.106 9.24491C144.992 9.32556 144.851 9.44255 144.628 9.59163C144.519 9.66404 144.489 9.8118 144.388 9.87857C143.236 10.6471 142.831 12.0443 142.523 13.274C142.468 13.4958 142.547 13.777 142.475 13.9914C142.394 14.2361 142.388 14.7344 142.475 14.9957C142.55 15.2194 142.641 15.4458 142.715 15.6652C142.819 15.9777 142.872 16.2197 143.001 16.4782C143.019 16.5129 143.242 16.7652 143.193 16.7652C143.153 16.7652 143.377 16.7376 143.432 16.7652C143.489 16.7937 143.578 16.8103 143.623 16.7652C143.757 16.631 143.639 16.3655 143.575 16.2391C143.501 16.0906 143.2 16.2945 143.145 16.2391C143.106 16.1997 142.524 14.23 142.762 13.9914C142.882 13.8718 142.738 13.4893 142.858 13.3697C143.058 13.1698 143.169 12.0542 143.432 11.7915C143.724 11.4999 143.879 11.1536 144.149 10.8829C144.32 10.7125 144.473 10.5967 144.622 10.4823C144.654 10.621 144.659 10.7708 144.771 10.8829C145.071 11.183 145.852 10.8661 146.319 10.6378C146.345 10.6372 146.372 10.6385 146.397 10.6378C146.329 10.7569 146.258 10.8789 146.158 10.9785C146.069 11.0675 146.037 11.4821 145.919 11.6002C145.871 11.6482 145.786 12.3068 145.632 12.461C145.616 12.4772 145.58 12.6277 145.536 12.7839C145.68 12.9131 145.96 13.1536 146.146 13.274C146.227 13.2686 146.301 13.2718 146.301 13.3219C146.301 13.3638 146.237 13.3328 146.146 13.274C146.076 13.2787 146 13.2908 145.967 13.274C145.897 13.2393 145.466 13.1052 145.393 13.1784L145.381 13.1904C145.358 13.2695 145.277 13.6304 145.213 13.8838C145.404 14.0608 145.661 14.2449 145.727 14.2783C145.753 14.2909 145.847 14.3449 145.937 14.3919C146.034 14.4173 146.11 14.4429 146.11 14.4696C146.11 14.4789 146.026 14.4389 145.937 14.3919C145.696 14.3293 145.252 14.2501 144.986 14.0093C144.984 14.0074 144.982 14.0052 144.98 14.0034C144.869 13.9491 144.74 13.8842 144.508 13.7702C144.379 14.3458 144.328 14.9318 144.436 15.4739C144.697 16.7765 144.215 18.2536 144.628 19.4911C144.84 20.1295 144.94 20.8378 145.106 21.4997C145.381 22.6007 145.912 23.6309 146.254 24.6561C146.459 25.2733 146.518 26.1775 146.481 27.0054C146.173 27.3041 145.897 27.653 145.715 28.0157C145.695 28.056 145.682 28.0986 145.668 28.1412C144.646 28.1392 143.622 28.1074 142.601 28.0157L142.332 28.3504C142.309 28.3504 142.282 28.3345 142.266 28.3504C142.093 28.5241 142.109 29.4787 142.266 29.6357C142.44 29.8091 143.564 29.5699 143.82 29.5699C144.436 29.5699 145.154 29.5907 145.781 29.4803C145.947 29.8996 146.165 30.1957 146.457 30.4427C146.479 30.823 146.465 31.1958 146.349 31.5427C146.027 32.5096 146.194 33.6344 145.871 34.6034C145.616 35.3684 145.276 36.1001 145.01 36.8989C144.757 37.6574 144.519 38.6881 144.054 39.3857C143.526 40.1765 142.865 40.9986 142.428 41.8726C142.124 42.4798 141.465 42.9344 141.089 43.4986C140.511 44.3648 140.131 45.0299 139.463 45.6984C139.084 46.0771 137.967 47.5408 137.741 47.994C137.582 48.3112 137.29 48.5831 137.269 48.9146C137.53 48.6624 138.238 48.1575 138.41 47.8983C139.159 46.7762 140.09 46.2188 140.993 45.3158C141.302 45.0066 141.919 44.8683 142.236 44.5507C142.873 43.9137 143.666 43.0857 144.723 42.7334C145.324 42.5332 145.975 42.4421 146.54 42.1595C146.86 41.9998 148.168 42.0628 148.358 41.8726C148.434 41.796 148.092 41.4687 147.718 41.0655C147.559 41.0772 147.412 41.1021 147.306 41.1552C147.09 41.263 146.456 41.4534 146.445 41.4421C146.336 41.3335 147.085 41.001 147.491 40.8085C147.242 40.5205 147.018 40.2169 146.929 39.9417C146.555 40.0668 146.051 40.3532 146.014 40.39C145.916 40.4884 145.775 40.5633 145.644 40.6531C145.582 40.7357 145.505 40.8204 145.441 40.8204C145.418 40.8204 145.472 40.7886 145.488 40.7726C145.534 40.7272 145.59 40.6898 145.644 40.6531C145.681 40.6026 145.718 40.5425 145.727 40.5335C145.982 40.2792 146.332 40.1678 146.588 39.9118L146.893 39.6069C146.894 39.605 146.893 39.6028 146.893 39.6009C146.911 39.5217 146.954 39.4508 147.019 39.3857C147.327 39.0772 147.081 38.0797 147.401 37.7597C147.728 37.4331 147.75 36.7415 148.071 36.4207C148.955 35.5366 149.222 34.1176 149.888 32.7861C150.076 32.4107 149.891 31.8231 150.079 31.447C150.198 31.2093 150.176 30.9031 150.181 30.6161C150.36 30.5315 150.6 30.4306 150.719 30.3112C151.071 29.9593 151.229 29.5344 151.239 29.0917C152.265 29.0262 153.637 29.1634 154.372 29.1634C154.537 29.1634 154.883 29.1302 155.268 29.0798C155.286 29.5934 155.336 30.0495 155.436 30.3471C155.536 30.6491 155.579 31.0364 155.579 31.3514C155.579 31.5096 155.659 31.6885 155.681 31.7758C155.694 31.6887 155.77 31.2487 155.77 31.2079C155.77 30.7376 155.914 30.1483 155.914 29.6297C155.914 29.4225 155.923 29.2046 155.932 28.9841C155.931 28.9826 155.933 28.9797 155.932 28.9781C155.91 28.9392 155.886 28.9036 155.866 28.8646C155.792 28.7175 155.616 28.6443 155.477 28.5716C155.601 28.556 155.714 28.5388 155.723 28.5298C155.784 28.4688 155.884 28.482 156.01 28.482C156.063 28.482 156.145 28.4265 156.153 28.4341C156.251 28.5326 156.284 28.8998 156.344 28.9602C156.418 29.0341 157.037 28.7333 157.157 28.6733C157.395 28.5546 158.38 28.5983 158.496 28.482C158.569 28.4098 158.269 28.446 158.257 28.4341C158.137 28.3139 157.817 28.3335 157.635 28.2429C157.459 28.1546 156.659 27.8124 156.583 27.8124C156.424 27.8124 156.219 28.1295 156.153 28.195C156.141 28.2067 155.882 28.1456 155.663 28.0994C155.719 28.0463 155.795 27.9789 155.818 27.9559C155.877 27.897 155.943 27.8468 156.01 27.7945C155.995 27.7953 155.983 27.7937 155.968 27.7945C155.976 26.9626 155.908 26.1453 155.531 25.5169C155.449 25.7473 155.327 26.7488 155.28 27.8124C153.862 27.8178 152.423 27.8877 150.976 27.9619C150.804 27.5991 150.558 27.2556 150.265 26.9695C149.971 25.5383 149.458 24.0833 149.123 23.4127C148.924 23.0143 148.942 22.4773 148.74 22.0736C147.678 19.9489 146.012 17.6786 147.306 15.0914C147.482 14.738 147.422 14.1137 147.688 13.848C148.231 13.3051 148.609 12.5743 149.506 12.1263C150.095 11.8314 150.713 11.1698 151.323 11.1698C151.686 11.1698 152.422 10.8587 152.853 11.0742C153.736 11.5154 154.612 11.9717 155.149 12.5089C155.345 12.7051 155.384 13.2673 155.531 13.561C155.845 14.1894 155.341 16.2412 155.723 17.0043C155.772 17.1034 155.799 17.2165 155.812 17.3331C155.759 17.339 155.706 17.3417 155.651 17.3451C155.829 17.4681 155.974 17.5902 156.057 17.6738C156.072 17.6881 156.116 17.679 156.153 17.6738C156.137 17.6819 156.121 17.6992 156.105 17.7097C155.975 17.738 155.874 17.7789 155.866 17.8173C155.658 17.6091 155.47 17.5246 155.292 17.5244C154.996 17.5242 154.733 17.7544 154.479 18.0086C154.132 18.3562 153.905 19.299 153.905 19.8737C153.905 20.036 153.905 21.0695 153.857 21.1171C153.778 21.1968 153.724 22.1116 153.618 22.2171C153.553 22.2821 153.331 22.8156 153.331 22.8388C153.331 22.8871 153.554 22.5123 153.857 22.3606C154.066 22.2564 154.26 22.0872 154.449 21.9002C154.607 21.7671 154.74 21.621 154.766 21.5954C155.304 21.0575 156.208 20.4407 156.775 19.8737C157.13 19.5187 157.086 19.0592 157.301 18.6303C157.345 18.541 157.256 18.3848 157.301 18.2955C157.551 17.7953 157.221 17.5907 156.828 17.5603C157.193 16.8128 157.28 15.7192 157.444 14.9001C157.502 14.7649 157.431 13.1399 157.062 12.0307C156.651 10.7982 156.594 9.13656 155.34 8.30042C153.911 7.34763 153.003 6.9726 152.004 6.98525ZM155.681 31.7758C155.679 31.7845 155.675 31.8296 155.675 31.8296C155.692 31.8296 155.689 31.8094 155.681 31.7758ZM137.269 48.9146C137.208 48.9728 137.167 49.0215 137.167 49.0461C137.167 49.1098 137.263 49.0142 137.263 48.9504C137.263 48.9379 137.268 48.9269 137.269 48.9146ZM148.382 26.9337C148.401 26.9294 148.412 26.9283 148.417 26.9337C148.53 27.0466 149.054 27.3536 149.23 27.4418C149.44 27.5467 149.727 27.8309 149.84 27.9439C149.849 27.9529 149.84 28.0316 149.84 28.0456V28.996C149.84 29.0843 149.951 29.4893 149.87 29.5699C149.694 29.7465 149.179 30.0651 148.89 30.2096C148.821 30.244 148.064 30.7053 148.011 30.6519C147.831 30.4719 147.609 30.2472 147.371 29.9764C147.262 29.8521 146.839 29.4801 146.762 29.4025C146.701 29.3423 146.779 28.0433 146.797 27.8782C147.095 27.5065 147.515 27.4342 147.778 27.2385C147.817 27.1991 148.246 26.9636 148.382 26.9337Z" fill="#E6B35A"/>
<path fill-rule="evenodd" clip-rule="evenodd" d="M142.469 26.2402C141.721 26.5383 141.285 27.2779 141.118 28.1173C140.978 28.1238 140.841 28.1415 140.706 28.201C140.667 28.4666 140.627 28.6393 140.706 28.7749C140.717 28.794 140.856 28.783 141.041 28.7569C141.034 28.9123 141.043 29.0694 141.053 29.2232C140.906 29.2395 140.76 29.2707 140.61 29.3488C140.61 29.5476 140.635 29.8509 140.754 29.8509C140.759 29.8509 140.962 29.7881 141.112 29.7433C141.205 30.2321 141.386 30.6749 141.639 30.9987C141.773 31.1713 142.197 31.7684 142.434 31.5845C142.162 31.1418 141.909 30.8148 141.722 30.2873C141.674 30.1515 141.652 29.8888 141.645 29.5819C141.759 29.547 141.948 29.4935 141.949 29.4922C142.073 29.3996 142.858 29.6155 142.858 29.4205C142.858 29.298 142.906 28.9746 142.906 28.9183C142.906 28.8196 142.78 28.9901 142.715 28.9901C142.631 28.9901 142.242 28.9099 142.188 28.9901C142.089 29.139 141.863 29.1856 141.645 29.1993C141.649 29.0179 141.664 28.8364 141.68 28.6553C142.037 28.5939 142.385 28.5298 142.475 28.5298C142.544 28.5298 142.862 28.6045 142.906 28.5298C142.973 28.4142 142.815 28.5154 142.858 28.3684C142.884 28.2802 142.954 28.2218 142.954 28.1233C142.954 28.0368 142.861 28.201 142.81 28.201H142.093C141.977 28.201 141.851 28.1652 141.74 28.1412C141.785 27.8863 141.845 27.6787 141.919 27.5673C141.967 27.4961 141.908 27.3516 141.955 27.2804C142.196 26.9193 142.284 26.5983 142.469 26.2402Z" fill="#E6B35A"/>
<path fill-rule="evenodd" clip-rule="evenodd" d="M147.153 28.6957C147.191 28.5093 147.53 27.7136 147.617 27.7271C147.71 27.7414 147.867 27.7307 147.983 27.7111C148.187 27.6765 148.361 27.576 148.579 27.6098C148.59 27.6113 149.314 28.6139 149.318 28.6195C149.321 28.623 149.105 29.066 149.069 29.1374C148.969 29.3303 148.928 29.5757 148.899 29.7644C148.895 29.789 148.61 29.7196 148.568 29.7132C148.268 29.6668 148.024 29.8468 147.756 29.8052C147.745 29.8035 147.338 28.949 147.153 28.6957Z" fill="#E6B35A"/>
<path fill-rule="evenodd" clip-rule="evenodd" d="M160.057 13.7463C160.05 13.7463 160.053 13.8063 160.057 13.8778C160.071 13.8005 160.075 13.7463 160.057 13.7463ZM160.057 13.8778C160.037 13.9788 159.998 14.1286 159.967 14.3023C159.993 14.2391 160.025 14.1783 160.057 14.1468C160.071 14.1325 160.062 13.9912 160.057 13.8778ZM159.967 14.3023C159.848 14.5866 159.782 15.1216 159.782 15.3663C159.782 15.8929 158.85 19.0161 158.508 19.4074C158.506 19.3894 158.497 19.2879 158.496 19.2879C158.431 19.2879 158.456 19.3891 158.454 19.4732C158.234 19.7049 157.99 20.0468 157.797 20.328C157.427 20.6848 157.039 21.02 156.607 21.4519C156.536 21.5228 156.307 21.5494 156.201 21.6551C156.108 21.748 156.629 23.0336 156.673 23.0779C156.677 23.0816 156.685 23.0821 156.691 23.0838C157.242 22.8064 158.022 22.3288 158.024 22.3306C158.055 22.3617 157.722 22.7039 157.689 22.7371C157.484 22.9425 157.412 23.4154 157.211 23.6159C157.185 23.6415 157.201 23.9533 157.223 24.3033C157.755 25.5309 158.515 27.0237 159.13 28.1591C159.607 28.2501 160.098 28.3142 160.224 28.2966C160.153 28.3429 159.991 28.4815 159.985 28.4879C159.938 28.5348 159.697 28.5068 159.65 28.5537C159.625 28.5788 159.535 28.6501 159.435 28.721C159.8 29.373 160.076 29.8203 160.146 29.8569C161.647 30.6409 158.648 32.5281 159.405 32.9235C160.059 33.2654 163.707 33.9728 163.912 34.6273C164.085 35.1768 158.159 42.7446 157.319 44.3534C156.968 45.0242 153.793 50.2868 153.953 50.7976C153.962 50.827 154.955 49.4952 155.179 49.2792C156.5 48.0034 157.659 47.3854 158.998 46.093C159.785 45.3334 160.977 44.7471 161.539 44.4909C160.99 44.7906 160.458 45.3635 160.29 45.6865C159.87 46.4893 158.78 47.1477 158.114 47.7907C156.114 49.7203 154.851 52.3926 153.72 54.5577C153.586 54.8143 152.297 57.0502 153.236 57.5407C155.657 58.8056 157.605 57.3921 158.771 54.3904C158.385 55.1298 157.683 55.229 157.462 55.6517C157.048 56.4441 154.208 56.8179 154.378 55.7653C154.981 52.0158 161.838 45.709 165.664 42.016C166.066 41.6279 168.309 40.2596 168.438 40.0134C168.492 39.9091 168.45 39.7445 168.444 39.6129C167.952 39.9345 166.88 40.5048 166.369 40.665C165.845 40.8294 161.254 43.3379 161.192 43.1399C161.095 42.8296 161.568 42.6065 161.802 42.3807C163.39 40.8481 164.755 37.6826 166.8 35.7093C169.444 33.1573 171.607 27.7628 173.591 24.2615C173.234 24.1775 172.859 24.1144 172.939 24.0343C172.993 23.9802 173.396 23.959 173.812 23.8849C173.908 23.7207 174.009 23.5544 174.105 23.4007C173.962 23.4059 173.837 23.4126 173.8 23.4126H173.375C173.515 23.3873 173.749 23.317 173.752 23.317C173.825 23.317 174.004 23.3045 174.17 23.2931C174.344 23.0178 174.519 22.7623 174.691 22.5279C174.351 22.29 173.871 22.5996 173.417 22.5996C173.408 22.5996 173.394 22.5968 173.381 22.5937C173.342 22.6126 173.322 22.6186 173.322 22.5996C173.322 22.5773 173.352 22.5863 173.381 22.5937C173.499 22.5371 173.771 22.3605 174.039 22.3605C174.192 22.3605 174.605 22.2933 174.936 22.2051C174.952 22.1854 174.968 22.1646 174.983 22.1453C175.501 21.8811 176.435 21.3991 176.478 21.3562C176.633 21.2015 177.224 20.2669 177.291 20.065C177.36 19.8585 177.644 19.6786 177.769 19.4911C178.012 19.1277 178.297 18.7705 178.487 18.3912C178.643 18.0778 178.98 16.8458 179.108 16.7174C179.134 16.6913 179.442 15.9508 179.395 15.9044C179.25 15.7589 177.308 15.5611 177.004 15.7131C176.857 15.7866 176.092 16.0478 176 16.0478C175.952 16.0478 175.474 16.2844 175.474 16.3348C175.474 16.3579 175.708 16.2443 175.713 16.2391C175.807 16.1453 176.065 16.2217 176.143 16.1435C176.318 15.9691 177.606 16.0761 177.721 16.1913C177.769 16.2391 177.865 16.2391 177.913 16.2869C178.095 16.469 177.824 16.8837 177.614 17.1418C177.341 17.1572 177.076 17.1715 176.884 17.2315C174.835 17.8746 172.064 17.7832 171.11 19.6107C169.923 21.8825 170.172 25.9474 169.52 27.1967C169.034 28.1267 167.965 27.5734 167.649 27.3402C167.71 27.7328 167.131 29.2831 167.081 29.3786C166.802 29.9125 165.79 32.9043 165.652 32.9475C165.146 33.1063 161.903 27.1519 160.977 26.1924C160.653 25.8561 160.905 23.9952 160.511 23.7893C159.873 23.4562 160.747 20.5962 160.134 20.7883C159.824 20.8858 159.341 20.9892 158.831 21.1171C158.789 20.9853 158.741 20.8594 158.7 20.7764C158.677 20.7322 158.63 20.3603 158.586 19.9992C158.659 19.856 158.728 19.7373 158.771 19.6944C158.802 19.6637 158.849 19.6417 158.879 19.6107C158.877 19.6424 158.882 19.6739 158.903 19.6944C158.959 19.7507 159.05 19.7755 159.106 19.8319C159.402 20.1278 160.335 19.4816 160.391 19.4254C160.581 19.2357 160.104 18.6603 160.057 18.6124C160.011 18.5673 160.102 18.3884 160.057 18.3434C159.653 17.9395 159.853 17.003 159.853 16.3168C159.853 15.7297 159.919 15.236 159.919 14.7566C159.919 14.6021 159.941 14.4492 159.967 14.3023ZM167.649 27.3402C167.638 27.2708 167.604 27.2326 167.547 27.2505C167.534 27.2544 167.583 27.2916 167.649 27.3402ZM168.444 39.6129C168.715 39.4349 168.816 39.3269 168.533 39.4156C168.453 39.4408 168.439 39.5188 168.444 39.6129ZM158.771 54.3904C158.943 54.0608 157.621 54.653 157.815 54.9702C158.009 55.2874 158.454 54.5844 158.771 54.3904ZM173.286 23.4007C173.305 23.3962 173.346 23.4126 173.369 23.4126C173.314 23.4225 173.274 23.4261 173.274 23.4126C173.274 23.4047 173.279 23.4022 173.286 23.4007ZM160.248 28.2847C160.255 28.2814 160.26 28.2809 160.26 28.2847C160.26 28.2905 160.25 28.2938 160.236 28.2966C160.241 28.2938 160.244 28.2862 160.248 28.2847Z" fill="#E6B35A"/>
<path fill-rule="evenodd" clip-rule="evenodd" d="M19.5091 6.75211C19.7523 6.67104 20.0091 6.62867 20.2683 6.59668C20.1628 6.83543 20.0595 7.07343 19.9569 7.31203C20.0941 7.25688 20.2208 7.21432 20.3041 7.21839C20.3362 7.21995 20.3646 7.23108 20.3818 7.24829C20.4645 7.33096 19.6021 8.21935 19.521 8.30041C19.1411 8.68029 18.8209 9.21033 18.4965 9.74711C18.1638 10.2977 17.8268 10.8555 17.4168 11.2655C16.9122 11.7701 16.3142 11.002 16.6516 10.7872C16.5878 10.7872 16.5178 10.7722 16.4479 10.7572C16.3079 10.7271 16.1679 10.6971 16.0777 10.7872C15.9475 10.9175 15.8939 11.1384 15.8506 11.3492C15.8506 11.3499 15.8506 11.3506 15.8506 11.3514L15.8506 11.3522C15.8505 11.3532 15.8505 11.3543 15.8506 11.3551C15.9342 12.1715 16.076 13.9543 16.1255 15.2886C16.464 15.9584 16.7285 16.6591 16.556 17.0043C16.5429 17.0304 16.5284 17.0712 16.5117 17.1184C16.4479 17.2983 16.3511 17.5714 16.1734 17.4825C16.1317 17.4617 16.0738 17.3984 16.0128 17.3316C16.0041 17.3221 15.9953 17.3125 15.9865 17.3029C15.981 17.297 15.9756 17.2911 15.9701 17.2853C15.9299 17.5124 15.9143 17.7873 15.9103 18.0743C15.9505 18.2339 15.9821 18.3913 15.9821 18.5346C15.9821 18.5464 15.9801 18.5693 15.9778 18.5974C15.971 18.6778 15.9607 18.8002 15.9821 18.8216C16.1727 19.0122 16.8167 20.6173 16.4603 20.9736C16.3767 21.0572 16.2466 21.0038 16.1076 20.89L16.1057 20.9101C16.091 21.0643 16.0777 21.2041 16.0777 21.3084C16.0777 21.319 16.0918 21.346 16.111 21.3826C16.1685 21.4924 16.2712 21.6888 16.1734 21.7866C16.166 21.7941 16.094 21.7868 16 21.7747L15.9985 21.7746L15.997 21.7747C15.9961 21.7747 15.9951 21.7748 15.994 21.7747C15.9704 21.7668 15.9513 21.7559 15.9343 21.7388C15.9116 21.7162 15.8674 21.6596 15.8143 21.5916C15.6906 21.4332 15.5184 21.2128 15.456 21.2128C15.4264 21.2128 15.5263 21.3779 15.575 21.4584C15.5877 21.4794 15.597 21.4947 15.5995 21.4997C15.7074 21.7156 15.8447 21.984 16.0299 22.1692C16.0389 22.1782 16.0653 22.2396 16.1043 22.3302C16.1211 22.3693 16.1403 22.4139 16.1614 22.4622C16.1788 22.6046 16.195 22.7724 16.2114 22.9421C16.2531 23.3759 16.2961 23.8224 16.3647 23.8909C16.4072 23.9334 16.5698 23.8982 16.7353 23.849C16.7337 23.9571 16.7316 24.0651 16.7291 24.173C17.2767 24.0507 17.8135 23.8988 18.2956 23.6577C18.3334 23.6388 18.4086 23.6508 18.4847 23.663C18.573 23.677 18.6625 23.6913 18.6961 23.6577C19.0197 23.3341 19.6127 23.1647 20.2444 23.0121C20.2359 23.0075 20.2271 23.0034 20.2183 22.9994C20.2069 22.9941 20.1954 22.9887 20.1846 22.9822C20.9061 22.8076 21.9126 22.1438 22.8448 21.159C24.3159 21.9621 23.8923 22.3866 23.497 22.7826C23.3236 22.9563 23.1556 23.1246 23.1556 23.317C23.1556 23.3474 23.1618 23.3723 23.1735 23.3947C23.1729 23.3956 23.1718 23.3968 23.1705 23.398C23.1687 23.3998 23.1664 23.4018 23.1642 23.4038C23.1598 23.4077 23.1556 23.4113 23.1556 23.4126C23.1556 23.4129 23.1573 23.4131 23.1599 23.4131C23.1631 23.4131 23.1676 23.413 23.172 23.4128C23.1776 23.4127 23.1832 23.4125 23.1855 23.4126C23.2481 23.5007 23.4009 23.5325 23.5577 23.5652C23.5811 23.57 23.6046 23.5749 23.6279 23.58C23.9645 23.8642 24.5381 23.9894 25.1958 24.133C26.333 24.3812 27.7217 24.6843 28.5716 25.9592C29.323 27.0863 29.6029 28.5026 29.8674 29.8412C29.8878 29.9446 29.9082 30.0475 29.9286 30.1498C30.8845 34.9289 28.4251 37.3128 25.5062 40.1421L25.5054 40.1428C25.1866 40.4518 24.8624 40.7661 24.5365 41.0894C24.5574 41.2146 24.5951 41.3154 24.6501 41.3704C24.7747 41.495 25.0762 41.585 25.2757 41.6446C25.3744 41.6741 25.4481 41.6961 25.4631 41.7111C25.4793 41.7274 25.5913 41.779 25.7142 41.8247C25.6403 41.8218 25.5652 41.82 25.5033 41.8186C25.424 41.8167 25.3666 41.8153 25.3615 41.8128C25.0005 41.6323 23.9343 41.6297 23.5681 41.8128C23.5634 41.8151 23.5558 41.819 23.5458 41.8242C23.4549 41.8711 23.1698 42.0182 23.1317 41.9801C23.0961 41.9445 23.0786 41.891 23.0719 41.8247C21.3708 42.6598 19.6991 43.0469 17.8891 43.4089C17.3469 43.5173 16.7817 43.5197 16.2171 43.5222C15.6414 43.5246 15.0664 43.5271 14.5175 43.642C14.6257 43.8667 14.8824 44.0525 15.0687 44.1873C15.1908 44.2756 15.2827 44.3421 15.2827 44.3833C15.2827 44.3888 15.2327 44.3563 15.1866 44.3264C15.1557 44.3062 15.1264 44.2872 15.1153 44.2817C15.072 44.26 15.0263 44.2454 14.9806 44.2308C14.935 44.2162 14.8893 44.2015 14.8463 44.18C14.776 44.1449 14.6925 44.1284 14.6087 44.1118C14.5243 44.0951 14.4397 44.0784 14.368 44.0425C14.27 43.9935 14.1854 43.9304 14.1027 43.8686C13.9436 43.7499 13.7911 43.636 13.561 43.636C13.1994 43.636 13.0905 44.078 13.0189 44.3684C12.9839 44.5106 12.9578 44.6164 12.9154 44.6164C12.8887 44.6164 12.9132 44.5773 12.9338 44.5443C12.9408 44.5332 12.9473 44.5228 12.9513 44.5148C12.9735 44.4704 12.9785 44.4175 12.9836 44.3643C12.9888 44.3104 12.9939 44.2561 13.017 44.2099C13.069 44.106 13.0828 43.6018 13.0828 43.4687V43.1279C13.0828 43.1201 13.0951 43.1022 13.1054 43.087C13.1146 43.0735 13.1224 43.0622 13.1187 43.0622C12.8296 43.0622 12.4236 43.1834 12.2399 43.367C12.2114 43.3956 12.1884 43.4571 12.1629 43.5255C12.1146 43.6552 12.0572 43.8094 11.935 43.8094C11.5313 43.8094 11.147 43.2046 11.4269 42.9247L11.7318 42.6258C11.773 42.5846 11.846 42.5572 11.9158 42.531C11.9797 42.507 12.0409 42.484 12.0725 42.4524C12.1133 42.4116 12.3423 42.4889 12.5322 42.553C12.6473 42.5918 12.748 42.6258 12.7839 42.6258C12.932 42.6258 13.0666 42.5175 13.1839 42.4232C13.233 42.3836 13.2791 42.3466 13.3219 42.3209C13.604 42.1516 13.4873 42.2349 13.4054 42.2933C13.3408 42.3394 13.2979 42.37 13.4893 42.2491L13.5337 42.2588C13.2745 41.3005 12.9692 40.1987 12.9214 40.1509C12.8255 40.055 12.7544 39.9368 12.683 39.8181C12.6461 39.7568 12.6091 39.6953 12.5687 39.6368C12.8984 39.1759 12.8078 37.781 12.72 36.429C12.6419 35.2269 12.566 34.0586 12.7899 33.611C12.8798 33.4312 13.0495 33.0423 12.9274 32.798C12.7116 32.3666 12.7524 30.2966 12.7778 29.0013C12.7843 28.6707 12.7899 28.3905 12.7899 28.201C12.7899 27.6959 12.8392 26.8509 12.8967 25.8662C12.9972 24.1443 13.1226 21.9952 13.0529 20.4894C13.0345 20.3101 13.0186 20.1128 13.011 19.8976C13.0083 19.8699 13.0057 19.842 13.003 19.8141C12.9948 19.7267 12.9866 19.6397 12.9752 19.5628C12.9744 19.5575 12.9733 19.5527 12.9722 19.5479C12.9711 19.543 12.97 19.5382 12.9692 19.533C12.7409 18.5841 11.7976 16.6559 11.4927 16.3407C11.1014 16.3659 11.1949 16.5024 11.2859 16.6352C11.3808 16.7739 11.4731 16.9086 11.0084 16.9086C10.9365 16.9086 10.8523 16.7811 10.7781 16.6688C10.7395 16.6103 10.7036 16.556 10.6737 16.526C10.6354 16.4878 10.5685 16.475 10.5043 16.4626C10.4606 16.4543 10.4182 16.4461 10.3867 16.4304C10.3728 16.4234 10.1173 16.3633 10.034 16.3706C10.0739 16.3566 10.212 16.3025 10.3389 16.2391C10.3981 16.2095 10.5154 16.1857 10.6248 16.1635C10.7371 16.1407 10.8411 16.1195 10.865 16.0956C10.9244 16.0362 11.0233 15.9779 11.13 15.9149C11.2551 15.8411 11.391 15.7609 11.4867 15.6652C11.5146 15.6373 11.5216 15.5759 11.529 15.5117C11.537 15.4412 11.5454 15.3674 11.5823 15.3305C11.7173 15.1955 11.8173 14.9111 11.9274 14.5981C11.9781 14.4538 12.031 14.3033 12.0904 14.1588C12.125 14.03 12.159 13.9 12.193 13.7705C12.4257 12.8818 12.6536 12.0115 13.017 11.648C13.0825 11.5826 13.137 11.3605 13.1978 11.1124C13.2158 11.0393 13.2343 10.9639 13.2537 10.8896C12.951 11.0394 12.6601 11.1796 12.3784 11.3153C11.0467 11.9569 9.91749 12.5009 8.689 13.5132C8.65374 13.5422 8.38428 13.6697 8.02545 13.836C8.02144 13.8281 8.01744 13.8215 8.01346 13.815C8.00948 13.8085 8.0055 13.8019 8.00153 13.7941C7.16888 14.1201 5.96018 14.1679 5.30548 13.5132C5.10949 13.3172 5.01992 13.0794 4.93427 12.8521C4.85581 12.6438 4.78064 12.4443 4.62997 12.2937C4.57991 12.2436 4.60412 11.9544 4.61996 11.7652C4.62547 11.6993 4.62997 11.6455 4.62997 11.6181L4.6299 11.5372C4.62922 10.9955 4.62846 10.4002 4.89898 10.1296C5.19811 9.8305 7.34182 8.11078 8.01349 9.45413C8.18771 9.80257 7.83543 10.1419 7.44615 10.5169C6.86831 11.0735 6.20894 11.7086 7.06897 12.5686C7.15651 12.6562 7.38022 12.6244 7.62492 12.5627C8.16732 12.2615 8.7027 11.9566 9.23901 11.6511C10.462 10.9546 11.6899 10.2552 13.017 9.59163C13.2002 9.50004 13.4208 9.34184 13.6578 9.17192C14.017 8.91437 14.4137 8.6299 14.7745 8.50962C15.5566 8.24892 16.3224 7.94972 17.0955 7.6476C17.8839 7.33955 18.68 7.02847 19.5091 6.75211ZM10.034 16.3706C10.0327 16.3711 10.0306 16.3719 10.028 16.3729C10.0247 16.3743 10.0206 16.376 10.0168 16.3775C10.0101 16.3803 10.0041 16.3828 10.0041 16.3826C10.0041 16.3753 10.0181 16.372 10.034 16.3706ZM26.0729 41.8785C26.1054 41.846 25.9115 41.8325 25.7142 41.8247C25.8621 41.8797 26.0278 41.9235 26.0729 41.8785ZM19.556 41.3485C19.2909 41.282 18.9768 41.1869 18.7384 41.1147C18.5429 41.0555 18.3983 41.0117 18.3733 41.0117C18.1825 41.0117 17.9588 40.959 17.7217 40.8742C17.7344 40.8714 17.7468 40.8682 17.7592 40.8649C17.7705 40.8619 17.7819 40.8589 17.7934 40.8563C16.9703 40.3049 16.3546 38.9245 16.5739 37.8673C16.285 36.2606 16.3603 33.9937 16.4222 32.1296C16.4452 31.438 16.4663 30.8018 16.4663 30.2753C16.4663 29.1779 16.5326 28.0544 16.5999 26.9159C16.6369 26.2885 16.6742 25.6565 16.7008 25.0219C17.0719 24.9355 17.3905 24.8585 17.6042 24.8068C17.7775 24.765 17.8817 24.7397 17.8891 24.7397C18.3542 24.7397 19.3668 24.5389 19.7781 24.3332C19.9186 24.263 20.2166 24.2912 20.4612 24.3144C20.5655 24.3243 20.6601 24.3332 20.7286 24.3332C22.0995 24.3332 22.9288 24.7526 24.1302 25.3601C24.2534 25.4224 24.3806 25.4867 24.5126 25.5527C24.7909 25.6919 24.9429 25.9366 25.0822 26.1607C25.1606 26.2869 25.235 26.4066 25.3256 26.4973C25.4205 26.5922 25.5191 26.6862 25.6192 26.7817C26.0436 27.1865 26.4956 27.6177 26.8141 28.2548C26.8657 28.3579 26.861 28.5953 26.856 28.8454C26.8497 29.164 26.843 29.5032 26.9516 29.6118C28.1755 30.8357 25.8665 36.6449 25.0566 37.4548C24.5704 37.941 24.0515 38.4233 23.549 38.8905C23.0771 39.3291 22.6195 39.7544 22.2171 40.1569C22.0354 40.3385 21.7988 40.4442 21.5591 40.5513C21.3127 40.6614 21.063 40.7729 20.8661 40.9699C20.7581 41.0778 20.5405 41.1023 20.313 41.128C20.1221 41.1495 19.9242 41.1718 19.7781 41.2449C19.704 41.2819 19.63 41.3163 19.556 41.3485ZM13.1545 25.4153C13.7587 24.8111 14.6816 24.586 15.6629 24.3895C15.2098 24.5708 14.7559 24.7458 14.2963 24.9071C13.9377 25.033 13.5435 25.3306 13.1861 25.6012C13.0752 25.5746 13.0539 25.5159 13.1545 25.4153Z" fill="#E6B35A"/>
<path d="M15.6629 24.3895C14.6816 24.586 13.7587 24.8111 13.1545 25.4153C13.0539 25.5159 13.0752 25.5746 13.1861 25.6012C13.5435 25.3306 13.9377 25.033 14.2963 24.9071C14.7559 24.7458 15.2098 24.5708 15.6629 24.3895Z" fill="#E6B35A"/>
<path fill-rule="evenodd" clip-rule="evenodd" d="M35.7452 20.7106C35.7753 20.6805 35.8073 20.6589 35.8408 20.6508C36.0588 20.5983 36.3192 20.9731 36.2414 21.2546C36.2674 21.2398 36.2944 21.2243 36.3221 21.2084L36.3576 21.188L36.3579 21.1878C36.7029 20.9899 37.1423 20.7377 37.2995 20.7166C37.3345 20.7119 37.357 20.7183 37.3592 20.7405C37.3632 20.7801 37.2815 20.9149 37.2145 21.0256C37.1755 21.0901 37.1415 21.1463 37.1321 21.1709C37.0463 21.3953 37.0836 21.6841 37.1206 21.9715C37.1524 22.2177 37.184 22.4628 37.138 22.6654C37.1146 22.7686 37.0903 22.8749 37.0662 22.9792C36.6408 23.2194 36.3207 23.4983 36.003 23.7752C35.7682 23.9798 35.5347 24.1833 35.261 24.3691C35.3413 24.1246 35.4225 23.8858 35.5039 23.6461L35.5061 23.6398C35.4833 23.6667 35.4608 23.6939 35.4383 23.721C35.3696 23.8039 35.301 23.8867 35.2251 23.9626C35.1271 24.0607 35.08 24.2231 35.0637 24.4169C35.0474 24.6108 35.0571 24.8325 35.0697 25.0566C35.0713 25.085 35.0729 25.1135 35.0746 25.142C35.086 25.3376 35.0974 25.5315 35.0876 25.6962C35.0792 25.8376 35.0336 25.9297 34.986 26.019C35.5635 25.7446 36.2132 25.4616 36.8317 25.2533C36.8203 25.3256 36.798 25.3854 36.7734 25.4452C36.7462 25.4616 36.716 25.4787 36.6858 25.4959C36.6518 25.5152 36.6178 25.5345 36.5881 25.5528C36.5406 26.0932 36.5333 26.638 36.5402 27.1847C36.4736 27.2084 36.4219 27.229 36.4028 27.2385C36.3287 27.2756 36.1644 27.2949 35.9944 27.3148C35.7807 27.3399 35.5579 27.366 35.4941 27.4298C35.4226 27.5014 36.0978 27.4496 36.5462 27.4119C36.5482 27.517 36.5509 27.6217 36.5537 27.7266L36.5537 27.7287C36.5553 27.7864 36.5568 27.8442 36.5582 27.9021C36.2992 27.9328 35.9913 27.9703 35.9245 28.0037C35.8724 28.0298 35.8221 28.0562 35.7794 28.0787C35.7283 28.1056 35.6877 28.1269 35.6675 28.1352C35.7837 28.1204 36.189 28.1381 36.3433 28.1448C36.3766 28.1463 36.3982 28.1472 36.4028 28.1472C36.4538 28.1472 36.4996 28.1497 36.5417 28.152L36.5642 28.1532C36.5854 29.0714 36.5944 29.9898 36.4625 30.8851C36.4407 31.0332 36.4395 31.1865 36.4506 31.3454C36.7396 31.9625 36.994 32.8404 36.7076 33.1268C36.6925 33.1419 36.6812 33.1599 36.6718 33.1806C36.5844 33.2225 36.4719 33.2834 36.3432 33.3532L36.3428 33.3534C36.203 33.4292 36.0437 33.5156 35.8767 33.5991C35.8386 33.6181 35.7871 33.636 35.7352 33.654C35.6553 33.6818 35.5746 33.7098 35.5419 33.7426C35.5382 33.7462 35.5339 33.7506 35.5292 33.7555L35.5257 33.759C35.5112 33.7739 35.4932 33.7922 35.4762 33.8083C35.6079 33.7684 35.8798 33.7006 36.1767 33.6265C36.3304 33.5881 36.4909 33.5481 36.6419 33.5094L36.6427 33.5291C36.6492 33.6945 36.6558 33.8602 36.5761 33.9398C36.4908 34.0252 36.489 34.2003 36.4872 34.3743C36.4858 34.5152 36.4843 34.6554 36.4386 34.7468C36.3074 35.0093 36.1575 35.403 36.062 35.7691C36.0617 35.77 36.0619 35.771 36.062 35.772L36.0621 35.7725L36.0622 35.7735C36.0622 35.7738 36.0622 35.7742 36.0621 35.7745C36.0621 35.7747 36.0621 35.7749 36.062 35.775C36.0022 36.3938 35.9712 36.9327 35.9963 37.1858C36.0707 37.938 35.9965 39.2249 35.7272 39.9297C35.5774 40.3218 35.729 40.5201 35.8103 40.6264L35.8169 40.6351C35.8547 40.6474 35.8983 40.6541 35.9418 40.6608C36.0209 40.673 36.1002 40.6853 36.1457 40.7308C36.1469 40.732 36.1483 40.7332 36.1497 40.7343C36.1523 40.7362 36.155 40.7381 36.1578 40.7399L36.1626 40.7431C36.1651 40.7448 36.1675 40.7467 36.1696 40.7487C36.2368 40.894 36.4426 41.0373 36.5915 41.141C36.6564 41.1862 36.7105 41.2239 36.7375 41.2508C36.8727 41.386 36.9121 41.5692 36.9498 41.744C36.9842 41.9037 37.0171 42.0565 37.1201 42.1595C37.14 42.1794 37.1301 42.2292 37.1201 42.279C37.1101 42.3289 37.1002 42.3787 37.1201 42.3986C37.3612 42.6397 37.2264 43.1587 37.0902 43.5464C36.9589 43.7268 36.7936 43.8057 36.6239 43.636C36.2918 43.3039 36.4047 42.6915 37.0245 42.6915C37.0942 42.6915 36.7371 41.5851 36.6239 41.472C36.0403 40.8883 35.5816 41.0892 35.2567 41.2315C35.0918 41.3038 34.9613 41.3609 34.8664 41.2927C34.4801 41.5614 34.0136 41.9032 33.5268 42.2599C32.41 43.0782 31.1866 43.9747 30.5802 44.2458C30.202 44.4149 29.811 44.7895 29.5042 45.0947C29.8495 44.6542 30.1903 44.1684 30.5157 43.7044C30.8595 43.2143 31.1863 42.7484 31.4829 42.3866C31.6257 42.2124 31.7931 42.0035 31.9483 41.8099L31.9488 41.8093L31.9491 41.8088C32.2179 41.4734 32.4495 41.1844 32.4513 41.203C32.4535 41.2253 32.6178 40.0878 32.4992 38.8895C32.4425 38.3171 32.309 36.3808 32.2959 34.9979C32.3708 35.0511 32.4427 35.1058 32.5042 35.1525C32.5821 35.2118 32.6434 35.2583 32.6725 35.2729C32.6853 35.2793 32.7068 35.2906 32.7334 35.3047L32.7338 35.3049C32.8796 35.3819 33.1787 35.5399 33.0551 35.4164C32.884 35.2453 32.7519 35.0013 32.6247 34.7468C32.5703 34.638 32.4615 34.5272 32.3516 34.4153C32.333 34.3963 32.3143 34.3773 32.2959 34.3583C32.3034 34.1128 32.3193 33.9045 32.3437 33.7605C32.4848 33.8956 32.6659 34.1165 32.7876 34.265C32.8469 34.3374 32.8921 34.3926 32.9116 34.4121C32.9135 34.4139 32.9161 34.4166 32.9193 34.4199C32.9219 34.4225 32.9249 34.4256 32.9282 34.4291C32.9409 34.4422 32.959 34.4611 32.9805 34.4835C33.104 34.6124 33.342 34.861 33.342 34.8425C33.342 34.7297 33.2541 34.6082 33.1707 34.4932C33.1261 34.4317 33.0829 34.372 33.0551 34.3164C33.0383 34.2828 33.0142 34.2264 32.984 34.1559C32.8607 33.8679 32.6359 33.3429 32.3916 33.1567C32.3609 32.9616 32.3013 32.7393 32.2414 32.5162C32.1089 32.0228 31.9754 31.5254 32.1524 31.3095C32.4857 30.903 32.3308 29.7011 32.1804 28.5342C32.0658 27.6444 31.9537 26.7749 32.0628 26.294C32.1172 26.0541 32.4028 24.714 32.1644 24.5186C31.7482 24.1774 31.1621 23.8804 30.5324 23.6697C30.4471 23.6714 30.361 23.6732 30.2751 23.675C29.9768 23.6813 29.6802 23.6876 29.4205 23.6876C29.3108 23.6876 29.1944 23.6703 29.0762 23.6526C28.9541 23.6344 28.83 23.6159 28.7091 23.6159C28.703 23.6159 28.6914 23.6155 28.6758 23.615C28.6646 23.6146 28.6514 23.6141 28.6367 23.6136C28.5413 23.61 28.3848 23.6042 28.3265 23.6099C28.3694 23.6042 28.5982 23.5369 28.6434 23.5143C28.7451 23.4634 28.9958 23.4533 29.2406 23.4435C29.3597 23.4387 29.4775 23.434 29.5759 23.4246C29.4315 23.3991 29.2866 23.3788 29.1455 23.3648C31.0258 23.1442 32.5788 22.6326 34.2447 22.0317C34.4096 21.8637 34.5633 21.6965 34.7157 21.5308C34.8866 21.3449 35.0559 21.1607 35.2371 20.9796C35.302 20.9147 35.3815 20.8726 35.4575 20.8324C35.5271 20.7956 35.5938 20.7604 35.6436 20.7106C35.652 20.7022 35.6732 20.7064 35.6944 20.7106C35.7155 20.7148 35.7367 20.7191 35.7452 20.7106ZM36.8317 25.2533C37.8293 24.9172 38.7457 24.7752 39.1466 25.1761C39.4126 25.4422 39.6064 25.7363 39.8029 26.0345C40.0046 26.3407 40.2092 26.6512 40.4976 26.9396C40.573 27.015 40.7266 27.0556 40.8918 27.0992C40.9235 27.1076 40.9557 27.1161 40.9878 27.1249C41.102 27.1248 41.2079 27.1046 41.2867 27.0652C41.308 27.0545 41.3431 27.0549 41.3788 27.0553C41.4234 27.0557 41.469 27.0562 41.49 27.0353C41.5499 26.9754 41.5912 26.9185 41.6336 26.8601C41.6784 26.7984 41.7245 26.735 41.7948 26.6646C41.8977 26.5618 41.9981 26.2816 41.9981 26.1207C41.9981 25.9524 41.8753 25.6272 41.759 25.5109C41.7464 25.4983 41.7128 25.4715 41.6725 25.4393C41.5829 25.3679 41.4601 25.2698 41.4601 25.2419C41.4601 25.0405 42.1491 25.5304 42.1655 25.5468C42.188 25.5693 42.1857 25.6163 42.1834 25.6633C42.1811 25.7104 42.1788 25.7574 42.2013 25.7799C42.2361 25.8146 42.2309 25.8634 42.2253 25.9156C42.2204 25.9619 42.2151 26.0108 42.2372 26.0549C42.3936 26.3676 42.1171 26.8804 41.9622 27.0353C41.7773 27.2202 42.1945 27.1078 42.2671 27.0353C42.3028 26.9995 42.339 26.9445 42.3741 26.891C42.4074 26.8402 42.4399 26.7908 42.4703 26.7603C42.473 26.7576 42.4717 26.7306 42.4705 26.7059C42.4694 26.6844 42.4685 26.6646 42.4703 26.6646C42.5314 26.6646 42.5292 27.1796 42.4703 27.2385C42.2859 27.423 42.1121 27.5787 41.8128 27.645C42.104 27.8603 42.4449 28.0604 42.7807 28.2574C43.2526 28.5343 43.7142 28.8052 44.0127 29.1036C44.1577 29.2487 45.0042 29.0567 45.0947 28.9662C45.4003 28.6606 45.6658 28.2426 45.9447 27.8037C46.2528 27.3187 46.5772 26.8081 46.9897 26.3956C47.233 26.1523 46.7939 24.9804 46.7207 24.9071C46.5837 24.7701 46.5214 24.54 46.4535 24.2889C46.372 23.9874 46.2823 23.6557 46.0452 23.4186C45.2638 22.6372 43.2854 21.8912 41.6693 21.9062C41.1306 21.9112 40.6274 22.0057 40.2286 22.2051C39.7819 22.4285 39.2603 22.4858 38.739 22.5432C38.218 22.6005 37.6973 22.6578 37.2516 22.8806C37.1875 22.9126 37.1258 22.9456 37.0662 22.9792L37.0544 23.0301C37.0327 23.0615 37.0116 23.0929 36.9906 23.1243C36.9328 23.2105 36.8755 23.296 36.8093 23.3768C36.7214 23.484 36.6868 23.6485 36.6897 23.8431C36.6925 24.0376 36.7268 24.261 36.7614 24.4827L36.7648 24.504C36.7983 24.7187 36.8319 24.9335 36.8391 25.1164C36.8412 25.1675 36.8382 25.2124 36.8317 25.2533ZM35.3985 33.8382C35.3985 33.8719 35.4327 33.8487 35.4702 33.8143C35.4566 33.8185 35.4442 33.8221 35.4338 33.825C35.412 33.8313 35.3985 33.8352 35.3985 33.8382Z" fill="#E6B35A"/>
<path d="M35.2251 23.9626C35.1271 24.0607 35.08 24.2231 35.0637 24.4169C35.0474 24.6108 35.0571 24.8325 35.0697 25.0566C35.0713 25.085 35.0729 25.1135 35.0746 25.142C35.086 25.3376 35.0974 25.5315 35.0876 25.6962C35.0792 25.8376 35.0336 25.9297 34.986 26.019C35.5635 25.7446 36.2132 25.4616 36.8317 25.2533C36.8382 25.2124 36.8412 25.1675 36.8391 25.1164C36.8319 24.9335 36.7983 24.7187 36.7648 24.504L36.7614 24.4827C36.7268 24.261 36.6925 24.0376 36.6897 23.8431C36.6868 23.6485 36.7214 23.484 36.8093 23.3768C36.8755 23.296 36.9328 23.2105 36.9906 23.1243C37.0116 23.0929 37.0327 23.0615 37.0544 23.0301L37.0662 22.9792C36.6408 23.2194 36.3207 23.4983 36.003 23.7752C35.7682 23.9798 35.5347 24.1833 35.261 24.3691C35.3413 24.1246 35.4225 23.8858 35.5039 23.6461L35.5061 23.6398C35.4833 23.6667 35.4608 23.6939 35.4383 23.721C35.3696 23.8039 35.301 23.8867 35.2251 23.9626Z" fill="#E6B35A"/>
<path d="M87.689 24.3034L87.5574 25.2778C87.312 25.4063 87.0925 25.3935 86.8745 25.3807C86.7994 25.3764 86.7245 25.372 86.6488 25.3734C86.6273 25.3738 86.8125 25.5186 86.9725 25.6439C87.0729 25.7224 87.1634 25.7932 87.1868 25.8158C87.3099 25.9344 87.481 26.0423 87.6718 26.1414C87.8248 25.566 88.0063 25.0302 88.1545 24.5925L88.1547 24.592L88.1553 24.5903C88.4164 23.8193 88.5927 23.5246 89.154 22.5862L89.2377 22.4462C88.8123 22.6037 87.8739 23.9957 87.689 24.3034Z" fill="#E6B35A"/>
<path d="M85.2505 38.6585C85.2333 38.6587 85.2192 38.6647 85.2052 38.6715C84.9335 38.8041 84.6866 39.0424 84.4397 39.2808C84.2216 39.4913 84.0036 39.7018 83.7684 39.8395C83.8412 39.8447 83.9036 39.8632 83.9508 39.8989C83.9514 39.8994 83.9522 39.9002 83.9533 39.9011C83.9539 39.9017 83.9546 39.9023 83.9553 39.903C83.9572 39.9047 83.9596 39.907 83.9624 39.9096C83.9747 39.9212 83.995 39.9403 84.02 39.9607C84.1205 39.9627 84.2236 39.965 84.3057 39.9721C84.4921 39.8203 85.101 39.6485 85.5973 39.5084C85.9578 39.4066 86.259 39.3216 86.2956 39.2733C86.3325 39.2246 86.0584 38.9421 85.8042 38.7124C85.7487 38.7131 85.6998 38.7231 85.6584 38.7433C85.6025 38.7706 85.5162 38.7382 85.4301 38.7059C85.3658 38.6818 85.3017 38.6577 85.2505 38.6585Z" fill="#E6B35A"/>
<path fill-rule="evenodd" clip-rule="evenodd" d="M89.3389 22.2768C87.8461 22.725 84.3886 27.0928 83.337 30.1976C83.3208 30.2454 83.2943 30.3149 83.2616 30.4005C83.0443 30.9695 82.5551 32.2499 83.0262 32.6067C83.2465 32.7737 83.4764 33.0356 83.7153 33.3078C83.9735 33.602 84.2422 33.9082 84.5207 34.1191C84.9555 34.4486 85.5413 34.5234 86.1945 34.4659C86.155 34.1171 86.1122 33.6947 86.1885 33.6947C86.2259 33.6947 86.2967 33.9065 86.3805 34.1571L86.3806 34.1575C86.4109 34.248 86.4428 34.3435 86.4754 34.436L86.4808 34.4352C86.558 34.4246 86.6359 34.4138 86.7146 34.4001C86.6444 34.2044 86.5885 34.012 86.6667 33.9338C86.6905 33.9101 86.8289 34.1237 86.9656 34.3463C87.5968 34.2167 88.2476 34.0215 88.878 33.8324L88.8786 33.8322C88.8575 33.5493 88.8419 33.2643 88.9623 33.2643C89.0194 33.2643 89.051 33.4813 89.0752 33.6472C89.0818 33.6926 89.0879 33.7342 89.0938 33.7664C89.1288 33.7561 89.1645 33.7454 89.2003 33.7347L89.268 33.7147L89.3162 33.7005L89.3568 33.6887C89.3767 33.593 89.4087 33.3541 89.4268 33.2186L89.4275 33.2136C89.4315 33.1841 89.4347 33.1599 89.437 33.1436C89.439 33.1291 89.4402 33.1208 89.4405 33.1208C89.4578 33.1208 89.4521 33.1407 89.4456 33.1633C89.4401 33.1824 89.434 33.2035 89.4405 33.2165C89.4909 33.3173 89.5091 33.4675 89.5276 33.62L89.5302 33.6409C90.4884 33.3735 91.3183 33.2212 91.754 33.5512C92.0235 33.7554 92.2287 34.1979 92.3894 34.5443C92.4659 34.7094 92.5324 34.8527 92.5909 34.9381C93.4487 36.19 91.5408 41.7031 90.8945 42.6538C90.6936 42.4255 90.4481 42.1951 90.2212 41.9822C90.0835 41.8529 89.9526 41.7301 89.8428 41.6181C89.4364 41.2039 86.7212 38.6999 85.8042 38.7124C85.6313 38.5561 85.4675 38.4242 85.4173 38.4072C85.4149 38.4064 85.4106 38.4047 85.4047 38.4025C85.3594 38.3851 85.219 38.3313 85.1193 38.3408C85.0817 38.3444 85.051 38.3531 85.0307 38.3799C84.8213 38.6562 84.2409 38.9482 83.655 39.243C83.3677 39.3875 83.0791 39.5327 82.8322 39.6771L82.8311 39.6776C82.829 39.6786 82.827 39.6797 82.825 39.6808C82.822 39.6825 82.8191 39.6843 82.8163 39.6861C82.8113 39.6893 82.8063 39.6924 82.801 39.6949C82.1476 39.9993 81.4494 40.6208 81.3795 41.6103C81.3695 41.7516 81.4873 41.8768 81.5717 41.9663C81.6093 42.0063 81.6402 42.0391 81.6502 42.0632C81.8147 42.4598 82.1059 42.6737 82.4836 42.7004C83.9437 42.8036 84.2029 40.5737 83.2571 39.9342C83.4436 39.8703 83.626 39.8293 83.7684 39.8395C83.7473 39.8518 83.7261 39.8636 83.7047 39.8747C83.6946 39.88 83.6844 39.8851 83.6742 39.8901C83.5478 39.9518 83.7608 39.9558 83.9981 39.9603L84.02 39.9607C84.0933 40.0208 84.2062 40.0915 84.2682 40.0096C84.2719 40.0047 84.2762 39.9998 84.2809 39.9949C84.288 39.9873 84.2964 39.9797 84.3057 39.9721C84.3598 39.9767 84.4048 39.9835 84.4339 39.9935C84.6869 40.0805 85.9252 40.7527 86.0614 41.0316C86.123 41.1579 86.2536 41.2707 86.3836 41.383C86.5127 41.4945 86.6413 41.6056 86.7016 41.7291L87.2159 42.7797C87.3614 43.0779 87.7335 43.8868 87.7936 44.3387C87.8011 44.3951 87.8052 44.4559 87.8092 44.5162C87.8173 44.6385 87.8253 44.7583 87.8618 44.833C87.8736 44.8573 87.8902 44.8721 87.9086 44.8803C87.6597 45.386 87.3425 46.1941 88.4449 46.0421C89.2869 45.9259 89.8176 45.415 90.254 44.8449C91.0145 44.2881 91.8167 43.4395 92.3697 42.7094C93.9033 40.6851 94.8706 38.2988 95.7173 35.7989C95.8341 35.4543 95.8606 35.0782 95.8872 34.7018C95.9138 34.3244 95.9404 33.9465 96.0581 33.5991C96.1487 33.3316 96.0258 32.8127 95.9246 32.3853C95.8812 32.2021 95.8419 32.0358 95.825 31.9133C95.4206 28.9823 92.8798 29.7202 90.8185 30.3189C89.7258 30.6363 88.7679 30.9145 88.3346 30.5862C87.0448 29.6091 87.2508 27.7245 87.6718 26.1414C87.6932 26.1525 87.7149 26.1635 87.7368 26.1745C87.7637 26.0531 87.8336 25.9282 87.958 25.8038C87.9769 25.7849 87.9908 25.736 88.0056 25.6838C88.0283 25.6042 88.053 25.5169 88.1014 25.5169C88.1109 25.5169 88.0921 25.5569 88.0618 25.6209C87.9933 25.7661 87.8666 26.0346 87.8803 26.2402C87.9924 26.292 88.1091 26.3409 88.227 26.3897C88.2774 26.3396 88.3273 26.2738 88.377 26.2084C88.4765 26.0772 88.5751 25.9473 88.6753 25.9473C88.7029 25.9473 88.6757 26.0225 88.6376 26.1273C88.5957 26.243 88.5406 26.3947 88.5318 26.5212C88.5709 26.537 88.61 26.5526 88.6487 26.5682C88.8035 26.6302 88.954 26.6905 89.0878 26.7543L89.0896 26.7552L89.0918 26.7564C89.0937 26.7574 89.0956 26.7584 89.0975 26.7593L89.0998 26.7603C89.1068 26.772 89.1143 26.7809 89.1237 26.7902C89.2196 26.8861 89.379 26.9019 89.5313 26.917C89.6704 26.9309 89.8036 26.9441 89.8769 27.0173C89.9256 27.066 90.0355 27.0681 90.1478 27.0702L90.168 27.0705L90.1937 27.0711C90.2065 26.9939 90.2215 26.92 90.2535 26.8559C90.3233 26.7163 90.397 26.5558 90.397 26.4255C90.397 26.4199 90.4039 26.4082 90.4109 26.3964L90.4149 26.3897C90.417 26.4156 90.4247 26.4479 90.4327 26.4817C90.4487 26.5486 90.4662 26.6218 90.4448 26.6646C90.4047 26.7447 90.3774 26.9142 90.373 27.0891C90.4009 27.0976 90.4275 27.1137 90.4448 27.1309C90.473 27.1591 90.5232 27.1645 90.5733 27.1698C90.6235 27.1751 90.6736 27.1804 90.7018 27.2086C90.7442 27.251 90.8082 27.2792 90.8872 27.2983L90.89 27.2884C90.9843 26.9636 91.1127 26.5212 91.21 26.5212C91.2542 26.5212 91.2174 26.7093 91.1703 26.9495L91.1701 26.9503C91.1472 27.0672 91.1219 27.1964 91.1024 27.3222C91.4378 27.3373 91.91 27.2647 92.3802 27.1926C92.4768 27.1777 92.5733 27.1629 92.6686 27.1488C92.8226 27.1845 92.984 27.1981 93.1432 27.2115C93.3885 27.2321 93.6286 27.2522 93.8283 27.3521C93.8785 27.3772 93.9461 27.3646 94.0136 27.3521C94.0812 27.3396 94.1488 27.327 94.1989 27.3521C94.2535 27.3794 94.3525 27.4041 94.4679 27.4238C94.4691 27.424 94.47 27.4239 94.4709 27.4238L94.4715 27.4238C94.4722 27.4237 94.473 27.4237 94.4739 27.4238C95.022 27.7172 95.5204 28.028 95.9385 28.4461C95.946 28.4536 95.9732 28.491 96.0113 28.5434L96.0115 28.5437C96.1347 28.7135 96.3715 29.0396 96.4227 29.014C96.6211 28.9148 96.5653 28.5358 96.5228 28.247C96.5078 28.1453 96.4945 28.0549 96.4945 27.9917C96.4945 27.9549 96.4956 27.917 96.4967 27.8788C96.5021 27.6971 96.5077 27.5088 96.3928 27.3939C96.3362 27.3373 96.2507 27.281 96.1537 27.2325L96.1555 27.2079C96.1618 27.1175 96.1674 27.0377 96.1956 26.9815C96.2552 26.8622 96.4695 26.1195 96.4646 26.1147C96.4426 26.0927 96.4073 26.0843 96.3719 26.0758C96.3366 26.0674 96.3012 26.0589 96.2793 26.037C96.1052 25.8629 95.8415 25.7438 95.566 25.6195C95.4633 25.5731 95.3589 25.526 95.257 25.475C95.1459 25.4195 94.9841 25.4053 94.8225 25.3911C94.6181 25.3732 94.4139 25.3553 94.3125 25.2538C94.2757 25.217 94.1533 25.2073 94.0136 25.206C93.8031 25.1194 93.6225 25.0625 93.5294 25.0625C93.3378 25.0625 92.548 24.8344 92.4354 24.7218C92.3732 24.6596 92.1581 24.6181 91.9939 24.5865C91.8925 24.5669 91.8104 24.5511 91.7958 24.5365C91.7636 24.5043 91.7396 24.4553 91.7152 24.4054L91.7061 24.387C91.0084 24.0491 90.3356 23.6772 89.7693 23.1317C89.685 23.0505 89.6259 22.9146 89.5681 22.7819C89.5132 22.6556 89.4595 22.5323 89.3867 22.4621C89.3686 22.4448 89.3456 22.4345 89.3209 22.4323C89.2962 22.43 89.2683 22.4349 89.2377 22.4462C89.2702 22.3919 89.3039 22.3355 89.3389 22.2768ZM90.4149 26.3897C90.4123 26.3567 90.4182 26.3299 90.4448 26.3299C90.4508 26.3299 90.4389 26.3495 90.4255 26.3719C90.422 26.3777 90.4183 26.3838 90.4149 26.3897ZM89.2377 22.4462L89.154 22.5862C88.5927 23.5246 88.4164 23.8193 88.1553 24.5903L88.1547 24.592L88.1545 24.5925C88.0063 25.0302 87.8248 25.566 87.6718 26.1414C87.481 26.0423 87.3099 25.9344 87.1868 25.8158C87.1634 25.7932 87.0729 25.7224 86.9725 25.6439C86.8125 25.5186 86.6273 25.3738 86.6488 25.3734C86.7245 25.372 86.7994 25.3764 86.8745 25.3807C87.0925 25.3935 87.312 25.4063 87.5574 25.2778L87.689 24.3034C87.8739 23.9957 88.8123 22.6037 89.2377 22.4462ZM90.254 44.8449C90.2038 44.8816 90.1538 44.9171 90.1041 44.9512C90.0059 45.0184 89.8466 45.0392 89.6947 45.059C89.577 45.0744 89.4637 45.0892 89.3867 45.1245C89.4769 44.9812 89.6719 44.654 89.8926 44.2837L89.8933 44.2826L89.8936 44.2821C90.2804 43.6332 90.7456 42.8527 90.8633 42.6975C90.8733 42.6842 90.8837 42.6696 90.8945 42.6538C91.038 42.8168 91.1587 42.9786 91.2337 43.1322C91.3219 43.313 91.0091 43.4548 90.7612 43.5533L90.7615 43.5538C90.7883 43.5922 90.8136 43.6284 90.8491 43.6553C90.8498 43.6558 90.8509 43.6565 90.8523 43.6575L90.8556 43.6596C90.8893 43.6818 91.0265 43.7718 90.9525 43.8694C90.8436 44.0132 90.7369 44.1669 90.628 44.3238C90.6278 44.3241 90.6275 44.3244 90.6273 44.3248C90.5074 44.4974 90.385 44.6738 90.254 44.8449ZM84.3057 39.9721C84.2236 39.965 84.1205 39.9627 84.02 39.9607C83.995 39.9403 83.9747 39.9212 83.9624 39.9096L83.9553 39.903L83.9533 39.9011C83.9522 39.9002 83.9514 39.8994 83.9508 39.8989C83.9036 39.8632 83.8412 39.8447 83.7684 39.8395C84.0036 39.7018 84.2216 39.4913 84.4397 39.2808C84.6866 39.0424 84.9335 38.8041 85.2052 38.6715C85.2192 38.6647 85.2333 38.6587 85.2505 38.6585C85.3017 38.6577 85.3658 38.6818 85.4301 38.7059C85.5162 38.7382 85.6025 38.7706 85.6584 38.7433C85.6998 38.7231 85.7487 38.7131 85.8042 38.7124C86.0584 38.9421 86.3325 39.2246 86.2956 39.2733C86.259 39.3216 85.9578 39.4066 85.5973 39.5084C85.101 39.6485 84.4921 39.8203 84.3057 39.9721Z" fill="#E6B35A"/>
<path d="M90.7612 43.5533C91.0091 43.4548 91.3219 43.313 91.2337 43.1322C91.1587 42.9786 91.038 42.8168 90.8945 42.6538C90.8837 42.6696 90.8733 42.6842 90.8633 42.6975C90.7456 42.8527 90.2804 43.6332 89.8936 44.2821L89.8933 44.2826L89.8926 44.2837C89.6719 44.654 89.4769 44.9812 89.3867 45.1245C89.4637 45.0892 89.577 45.0744 89.6947 45.059C89.8466 45.0392 90.0059 45.0184 90.1041 44.9512C90.1538 44.9171 90.2038 44.8816 90.254 44.8449C90.385 44.6738 90.5074 44.4974 90.6273 44.3248L90.628 44.3238C90.7369 44.1669 90.8436 44.0132 90.9525 43.8694C91.0265 43.7718 90.8893 43.6818 90.8556 43.6596L90.8523 43.6575C90.8509 43.6565 90.8498 43.6558 90.8491 43.6553C90.8136 43.6284 90.7883 43.5922 90.7615 43.5538L90.7612 43.5533Z" fill="#E6B35A"/>
<path fill-rule="evenodd" clip-rule="evenodd" d="M120.148 21.0454C120.299 20.8945 121.488 20.4968 121.499 20.5074C121.596 20.6045 121.53 20.7448 121.461 20.8909C121.415 20.9893 121.367 21.0904 121.367 21.1828C121.367 21.569 121.269 22.005 121.177 22.4153L121.177 22.4162C121.147 22.5507 121.118 22.6825 121.092 22.8088C121.09 22.8181 121.089 22.8274 121.087 22.8367C120.722 23.065 120.425 23.3344 120.22 23.6458C120.219 23.6834 120.215 23.7262 120.214 23.7653L120.823 23.8909C120.748 23.8757 120.664 23.8743 120.581 23.8729C120.446 23.8706 120.311 23.8683 120.208 23.8072C120.198 24.082 120.178 24.3861 120.159 24.6718L120.159 24.6725C120.123 25.2334 120.091 25.723 120.148 25.7799C120.246 25.8782 120.344 25.7953 120.429 25.7238C120.476 25.6844 120.518 25.6484 120.554 25.6484C120.672 25.6484 120.817 25.6181 120.973 25.5729C120.958 25.9629 120.918 26.3499 120.823 26.7304C120.774 26.9288 120.802 27.1538 120.831 27.3788C120.862 27.6244 120.894 27.87 120.823 28.0814C120.62 28.6916 120.517 29.4412 120.465 30.2095C120.104 30.3089 119.68 30.4427 119.951 30.4427C120.143 30.4427 120.251 30.497 120.402 30.5729L120.429 30.5861C120.432 30.588 120.437 30.5904 120.441 30.5921C120.438 30.6478 120.438 30.7027 120.437 30.7576C120.437 30.8019 120.436 30.8462 120.435 30.891C120.146 30.936 119.793 31.0955 119.568 31.2078C119.555 31.2143 119.517 31.219 119.471 31.2246C119.371 31.2369 119.233 31.2538 119.233 31.3035C119.233 31.3041 119.244 31.3023 119.265 31.2989C119.338 31.2869 119.526 31.2557 119.711 31.2557C119.805 31.2557 119.928 31.2491 120.064 31.2419L120.064 31.2419C120.178 31.2359 120.301 31.2294 120.423 31.2258C120.412 31.7222 120.414 32.207 120.416 32.647C120.416 32.7988 120.417 32.9452 120.417 33.0849C120.417 33.1197 120.41 33.2012 120.403 33.293L120.403 33.2933C120.401 33.3173 120.399 33.3419 120.397 33.3666C120.395 33.3823 120.394 33.3981 120.393 33.4137C120.368 33.4128 120.335 33.4101 120.333 33.4077C120.131 33.2057 119.766 33.0255 119.427 32.8585L119.427 32.8582C119.377 32.8339 119.329 32.8098 119.281 32.786C119.173 32.732 119.063 32.6544 118.989 32.6019C118.934 32.5626 118.898 32.5374 118.898 32.5469C118.898 32.5586 119.079 32.6989 119.319 32.8855L119.32 32.8863C119.674 33.1611 120.156 33.536 120.381 33.7485C120.385 33.8211 120.396 33.877 120.417 33.8979C120.467 33.9484 121.125 34.816 120.823 35.1174C120.024 35.9171 119.73 37.5032 119.468 38.9139C119.259 40.0438 119.07 41.0612 118.659 41.472C118.604 41.527 118.542 41.5877 118.474 41.6453C118.554 41.6908 118.658 41.7521 118.707 41.7769C118.839 41.8429 119.008 41.9098 119.191 41.9801C119.369 41.9817 119.914 42.011 119.879 42.0459C119.853 42.0714 119.667 42.0764 119.477 42.0815L119.466 42.0817C120.075 42.296 120.797 42.5009 121.242 42.5899C121.626 42.6668 122.041 42.7984 122.39 42.9725C122.403 42.9791 122.517 43.0165 122.617 43.0442C122.176 43.0001 120.861 42.9246 120.764 42.9246C120.455 42.9246 120.106 42.8888 119.807 42.829C119.462 42.7601 119.059 42.7841 118.673 42.807C118.486 42.8181 118.303 42.829 118.133 42.829C117.859 42.829 117.583 42.8235 117.308 42.817C116.681 43.1579 116.036 43.5331 115.599 43.9229C115.135 43.9855 114.881 44.2803 114.642 44.5583C114.573 44.6389 114.505 44.718 114.433 44.7897C114.375 44.8479 114.348 44.9194 114.323 44.9883C114.299 45.0522 114.276 45.1139 114.23 45.1604C114.174 45.2163 114.164 45.3061 114.155 45.3927C114.146 45.4735 114.137 45.5515 114.092 45.5968C113.968 45.7213 113.757 46.3772 113.757 46.5473C113.757 46.59 113.748 46.6948 113.736 46.8224C113.711 47.103 113.676 47.4935 113.71 47.5755C113.704 47.5715 113.7 47.5664 113.696 47.5622C113.694 47.5604 113.693 47.5588 113.692 47.5575C113.65 47.5158 113.62 47.3253 113.62 47.2587C113.62 47.2123 113.62 47.1659 113.619 47.1197C113.618 46.7682 113.616 46.4223 113.722 46.1049C113.743 46.0414 113.746 45.9655 113.749 45.8892C113.753 45.7969 113.757 45.7041 113.793 45.6326C113.866 45.488 113.911 45.3422 113.954 45.2018C113.974 45.1389 113.993 45.077 114.014 45.0169C113.983 45.0591 113.952 45.0972 113.925 45.1245C113.924 45.1254 113.987 45.0052 114.092 44.8196C114.092 44.819 114.092 44.8178 114.092 44.8165C114.092 44.8155 114.092 44.8143 114.092 44.8137C114.095 44.8035 114.092 44.7872 114.09 44.7707C114.087 44.7488 114.084 44.7265 114.092 44.718C114.131 44.6792 114.154 44.6275 114.179 44.5723C114.207 44.5091 114.237 44.4414 114.295 44.3833C114.312 44.3668 114.332 44.3471 114.353 44.3258C114.402 44.2773 114.46 44.2204 114.505 44.174C114.713 43.8754 114.966 43.5391 115.276 43.2295C115.411 43.0939 115.532 42.9419 115.646 42.7812L115.603 42.7811L115.551 42.7811L115.503 42.7812C115.408 42.7812 114.675 42.8187 114.493 42.8589C114.508 42.8431 114.529 42.8202 114.553 42.7926C114.659 42.6732 114.844 42.4649 115.073 42.3508C115.635 42.0695 116.271 41.242 116.459 40.6769C116.478 40.622 116.502 40.5704 116.525 40.5215L116.525 40.5207C116.525 40.52 116.525 40.5193 116.525 40.5185C116.525 40.5175 116.525 40.5165 116.525 40.5155C116.668 39.6533 116.654 38.7503 116.495 37.957C116.278 36.8722 115.491 28.339 115.957 27.4059C116.102 27.1166 116.358 24.7972 116.358 24.4289C116.358 24.4166 116.359 24.3973 116.361 24.3731C116.362 24.3556 116.364 24.3354 116.366 24.3136C116.378 24.1629 116.397 23.9301 116.358 23.8909C116.302 23.8348 115.75 23.7717 115.093 23.6966C114.114 23.5847 112.9 23.4459 112.735 23.2632C112.734 23.263 112.733 23.2631 112.732 23.2632L112.731 23.2634C112.73 23.2634 112.73 23.2634 112.729 23.2632C112.695 23.2537 112.663 23.2384 112.64 23.2154C112.549 23.1251 112.362 22.9899 112.203 22.9105C111.919 22.7687 111.648 22.5949 111.456 22.4024C111.418 22.3648 111.369 22.3229 111.316 22.2775C111.106 22.0968 110.83 21.8605 110.948 21.6252C111.019 21.4823 111.251 21.5814 111.324 21.6551C111.396 21.7271 111.475 21.7901 111.552 21.8517C111.625 21.9107 111.697 21.9685 111.761 22.0317C111.812 22.0833 111.822 22.1672 111.832 22.2559C111.843 22.3555 111.855 22.4611 111.928 22.5339C111.977 22.5829 112.046 22.5967 112.113 22.61C112.173 22.6221 112.231 22.6337 112.269 22.6714C112.437 22.8394 112.688 22.9364 112.935 23.0317C113.056 23.0786 113.176 23.1251 113.285 23.1795C113.33 23.202 113.378 23.2056 113.427 23.2092C113.479 23.2132 113.534 23.2173 113.59 23.2453C113.696 23.2983 113.858 23.2684 114.006 23.241C114.148 23.2146 114.277 23.1907 114.331 23.2453C114.332 23.2451 114.333 23.245 114.334 23.245C114.335 23.245 114.336 23.245 114.337 23.245C114.339 23.2451 114.341 23.2453 114.343 23.2455C114.345 23.2456 114.347 23.2456 114.349 23.2453C116.27 22.9213 119.318 21.8753 120.148 21.0454ZM122.772 43.0681C122.772 43.0629 122.705 43.053 122.617 43.0442C122.699 43.067 122.772 43.0835 122.772 43.0681ZM126.263 24.8115C126.09 24.9542 125.742 25.4258 125.797 25.481C125.807 25.4908 125.886 25.4709 125.97 25.4496C126.048 25.43 126.13 25.4093 126.168 25.4093C126.199 25.4093 126.227 25.4133 126.257 25.4152C126.324 25.3985 126.387 25.3893 126.407 25.4093C126.408 25.4102 126.408 25.4113 126.409 25.4125L126.41 25.4136C126.411 25.416 126.412 25.4187 126.413 25.4212C126.421 25.4202 126.43 25.419 126.439 25.4178C126.469 25.4136 126.501 25.4093 126.538 25.4093C126.68 25.4093 126.789 25.4257 126.873 25.5049C126.875 25.5064 126.876 25.5079 126.877 25.5094L126.879 25.5109C126.901 25.5122 126.922 25.5109 126.945 25.5109C126.991 25.5109 127.057 25.5321 127.124 25.5587C127.201 25.562 127.273 25.5701 127.315 25.6125C127.329 25.6266 127.348 25.636 127.366 25.6454C127.385 25.6548 127.403 25.6642 127.417 25.6783C127.425 25.6867 127.405 25.7155 127.393 25.7201C127.411 25.7339 127.479 25.8516 127.453 25.8516C127.415 25.8516 127.327 25.7914 127.315 25.7799C127.185 25.65 126.545 25.8807 126.508 25.9174C126.488 25.9375 126.471 25.9576 126.455 25.9772C126.467 26.0002 126.475 26.03 126.483 26.0609C126.495 26.1073 126.508 26.1559 126.538 26.1864L126.542 26.1899L126.55 26.1979C126.553 26.2008 126.555 26.2034 126.556 26.2043C126.393 26.2583 126.26 26.3484 126.203 26.4614C126.158 26.5525 126.132 27.0294 126.203 27.101C126.207 27.1043 126.742 27.2237 126.819 27.2325C126.809 27.2772 126.797 27.3202 126.777 27.3401C126.759 27.3583 126.636 27.6053 126.676 27.645C126.726 27.6956 126.767 27.751 126.81 27.8095C126.858 27.875 126.909 27.9445 126.981 28.0156C127.17 28.2046 127.693 28.1883 128.021 28.177C128.021 28.1773 128.021 28.1778 128.022 28.1783L128.024 28.18C128.025 28.1813 128.027 28.1825 128.027 28.183C128.027 28.3169 127.346 28.264 127.183 28.2512C127.163 28.2497 127.151 28.2488 127.148 28.2488C127.143 28.2488 127.134 28.2475 127.121 28.2455C127.105 28.2428 127.082 28.2388 127.057 28.2342C126.94 28.2128 126.758 28.1795 126.777 28.2189C126.887 28.4383 127.065 28.5756 127.291 28.7031L127.31 28.7026C127.49 28.698 127.659 28.6936 127.722 28.7569C127.869 28.9037 128.097 28.9002 128.381 28.8959C128.43 28.8952 128.482 28.8944 128.535 28.8944C129.979 28.8944 130.53 28.0134 131.105 26.8619C131.361 26.3505 130.996 25.5617 130.836 25.2419C130.791 25.1503 130.746 25.0608 130.703 24.9733L130.702 24.9717C130.34 24.2389 130.045 23.644 129.479 23.0778C128.654 22.2521 126.843 21.8412 125.014 21.8763C123.547 21.9045 122.072 22.2203 121.087 22.8367C120.969 23.4431 120.974 24.061 120.98 24.6775C120.982 24.9768 120.984 25.2758 120.973 25.5729C121.169 25.5161 121.381 25.4358 121.574 25.363C121.695 25.3171 121.809 25.2741 121.905 25.2419C122.525 25.0353 125.02 25.091 125.522 25.487C125.629 25.2835 125.771 25.0695 125.964 24.9729C125.986 24.9619 126.016 24.9434 126.049 24.9226C126.116 24.8804 126.198 24.8286 126.263 24.8115ZM126.263 24.8115C126.268 24.8102 126.274 24.8082 126.279 24.8063C126.288 24.8029 126.297 24.7995 126.305 24.7995C126.328 24.7995 126.358 24.7696 126.335 24.7696C126.319 24.7696 126.294 24.7858 126.263 24.8115ZM114.481 42.8649C114.467 42.869 114.451 42.8728 114.451 42.8768C114.451 42.89 114.463 42.8812 114.481 42.8649ZM113.718 47.5863C113.717 47.5845 113.717 47.5827 113.716 47.5815C113.725 47.5885 113.729 47.5934 113.722 47.5934C113.719 47.5934 113.718 47.5898 113.718 47.5863Z" fill="#E6B35A"/>
<path d="M120.22 23.6458C120.219 23.6834 120.215 23.7262 120.214 23.7653L120.823 23.8909C120.748 23.8757 120.664 23.8743 120.581 23.8729C120.446 23.8706 120.311 23.8683 120.208 23.8072C120.198 24.082 120.178 24.3861 120.159 24.6718L120.159 24.6725C120.123 25.2334 120.091 25.723 120.148 25.7799C120.246 25.8782 120.344 25.7953 120.429 25.7238C120.476 25.6844 120.518 25.6484 120.554 25.6484C120.672 25.6484 120.817 25.6181 120.973 25.5729C120.984 25.2758 120.982 24.9768 120.98 24.6775C120.974 24.061 120.969 23.4431 121.087 22.8367C120.722 23.065 120.425 23.3344 120.22 23.6458Z" fill="#E6B35A"/>
</svg>
