<svg width="122" height="98" viewBox="0 0 122 98" fill="none" xmlns="http://www.w3.org/2000/svg">
<path d="M77.9632 45.153C77.9632 52.0226 72.4447 54.9732 67.5671 54.9732C64.2043 54.9732 61.4548 53.0561 61.1255 50.1213C61.1018 49.924 61.0919 49.7228 61.0919 49.5197C61.0919 49.1292 61.1235 48.7465 61.1886 48.3757C61.8059 44.79 65.3936 42.155 71.6123 40.4667L77.9652 38.735V45.153H77.9632ZM105.834 21.9367C102.594 22.124 99.7023 22.8498 97.223 24.3843L97.0652 21.5954L86.6454 22.2798V25.0569L88.9353 25.1279C90.3337 25.1969 91.2015 25.55 91.5408 26.1811C91.878 26.8142 92.0831 27.9621 92.1522 29.6248L92.2548 32.1198L92.2804 33.0448C92.2745 33.2223 92.2666 33.3998 92.2666 33.5813L92.2922 33.9205V47.6282C92.2922 52.4328 91.5585 55.2927 88.3377 55.2927C84.969 55.2927 84.0656 52.7385 84.0656 47.6282L84.0577 47.6263C84.0577 47.6144 84.0577 47.6026 84.0577 47.5908V33.534C84.0577 25.5125 77.4485 22.3055 70.3244 22.3055C64.9025 22.3055 60.3858 24.6703 58.092 27.5677C57.9875 27.6998 57.8869 27.832 57.7942 27.9661C57.6049 28.2343 57.4333 28.5045 57.2814 28.7767C57.2064 28.9148 57.1354 29.0528 57.0704 29.1889C56.9402 29.465 56.8278 29.7412 56.739 30.0173C56.5615 30.5715 56.4668 31.1277 56.4668 31.6721C56.4668 34.1769 58.1354 36.0349 60.5081 36.0349C60.6738 36.0349 60.8355 36.027 60.9933 36.0112C63.366 35.7942 65.0031 33.9896 65.0031 32.1869C65.0031 30.5025 63.5337 29.5499 63.3522 28.4335C63.3404 28.3586 63.3325 28.2836 63.3325 28.2087C63.3325 28.1081 63.3443 28.0055 63.368 27.903C63.6974 26.3566 66.4409 24.55 69.8096 24.55C76.1625 24.55 78.0224 29.9404 78.0224 34.1769C78.0224 36.6147 75.2 36.8711 66.5356 39.3089C58.9204 41.4647 55.7647 43.8552 54.7489 46.9419C54.4649 47.8038 54.3485 48.7229 54.3485 49.7051C54.3485 50.2297 54.3979 50.7267 54.4925 51.2001C54.6207 51.8313 54.8258 52.419 55.1 52.9634C55.3722 53.5077 55.7114 54.0087 56.1039 54.4643C58.1689 56.8587 61.7132 58.048 64.8709 58.048H64.8729C71.6045 58.048 75.6359 54.7759 78.267 52.5946C78.267 52.5946 78.2788 52.5965 78.3005 52.6005L78.2749 52.6301C78.2749 52.6301 81.6456 58.0934 88.176 58.0934C88.4067 58.0934 88.6316 58.1171 88.8564 58.0974C89.1404 58.0697 89.4244 58.0342 89.7045 57.9889C89.815 57.9691 89.9254 57.9514 90.0339 57.9258C90.172 57.9041 90.31 57.8745 90.4461 57.8469C92.1206 57.4761 93.7083 56.7207 95.1915 55.4603C96.9686 53.9476 97.7694 51.7839 98.1047 50.3638C98.1165 50.2751 98.1303 50.1844 98.1421 50.0976C98.2467 49.5808 98.2822 49.2554 98.2822 49.2554L98.296 48.5809C98.3039 48.4605 98.3118 48.3481 98.3197 48.2436V47.4625L98.3275 47.0306L98.3414 43.8532L98.3433 43.6855L98.3197 43.7092V33.3762C98.5682 29.2757 100.045 24.7354 106.615 24.195C109.199 23.982 112.077 25.122 112.077 26.7274C112.077 27.9463 110.408 28.9088 110.408 30.7056C110.408 32.6306 112.27 34.5556 114.901 34.5556C117.276 34.5556 118.942 32.6957 118.942 30.1948C118.95 25.834 113.12 21.5185 105.834 21.9367Z" fill="#F7A700"/>
<path d="M27.5268 45.1529C27.5268 52.0226 22.0083 54.9732 17.1307 54.9732C13.5371 54.9732 10.6516 52.7918 10.6516 49.5197C10.6516 45.3462 14.3083 42.3305 21.174 40.4667L27.5268 38.735V45.1529ZM55.6187 3.17191C55.2893 3.17783 54.9639 3.166 54.6365 3.18966C47.8872 3.46579 41.8479 6.77141 41.8479 14.4359V21.9386H36.3096V25.2068H41.8479V47.5967C41.8479 53.0462 40.9722 55.3381 37.6981 55.2966C34.5207 55.2572 33.6233 52.9831 33.6233 47.5967V33.5399C33.6233 25.5164 27.014 22.3114 19.89 22.3114C11.9967 22.3114 6.02844 27.3152 6.02844 31.68C6.02844 34.1848 7.69703 36.0428 10.0697 36.0428C12.7008 36.0428 14.5627 34.1178 14.5627 32.1928C14.5627 30.396 12.8941 29.4335 12.8941 28.2126C12.8941 26.6091 15.7816 24.5559 19.3752 24.5559C25.7281 24.5559 27.588 29.9483 27.588 34.1829C27.588 36.6206 24.7656 36.8771 16.1011 39.3148C6.34598 42.0741 3.91016 45.2161 3.91016 49.711C3.91016 55.2927 9.62005 58.052 14.4325 58.052C21.17 58.052 25.164 54.7799 27.7951 52.5965C27.7951 52.5965 31.1934 58.1348 37.7317 58.1348C37.9605 58.1348 38.1873 58.121 38.4141 58.1033C38.7001 58.0756 38.9821 58.0401 39.2622 57.9948C39.3726 57.9751 39.4831 57.9553 39.5935 57.9297C39.7316 57.908 39.8677 57.8784 40.0058 57.8508C41.6822 57.482 43.268 56.764 44.7512 55.5018C46.5282 53.989 47.329 51.7524 47.6623 50.3323C47.6761 50.2416 47.69 50.1528 47.6998 50.066C47.8063 49.5493 47.8418 49.2219 47.8418 49.2219L47.8556 48.5473C47.8635 48.429 47.8714 48.3146 47.8793 48.2081V47.427L47.8872 46.9971L47.8793 43.796V25.2028H54.6207V21.9347H47.8793V15.0729C47.8793 14.0907 47.974 13.0375 48.1988 11.9961C49.0371 8.60962 50.7628 5.73791 56.1276 5.41445C58.4155 5.27836 61.5101 5.97854 61.5909 7.83844C61.6422 9.05734 59.9223 10.0198 59.9223 11.8166C59.9223 13.7416 61.7842 15.6666 64.4133 15.6666C66.7821 15.6666 68.4507 13.8067 68.4507 11.3038C68.4527 6.94498 62.8039 3.08316 55.6187 3.17191Z" fill="#F7A700"/>
<path d="M6.84678 77.9034C6.6673 78.1874 6.43654 78.3945 6.16041 78.5227C5.88232 78.6509 5.57858 78.714 5.24525 78.714C5.01646 78.714 4.79162 78.6844 4.57466 78.6213C4.35771 78.5582 4.16244 78.4655 3.99282 78.3413C3.8232 78.217 3.68514 78.0612 3.58258 77.8738C3.47805 77.6864 3.42677 77.4675 3.42677 77.219C3.42677 76.9488 3.4741 76.718 3.57272 76.5267C3.66936 76.3354 3.79954 76.1756 3.96324 76.0474C4.12694 75.9192 4.31629 75.8167 4.53127 75.7397C4.74626 75.6628 4.96913 75.6056 5.20186 75.5682C5.4346 75.5307 5.66733 75.507 5.90401 75.4952C6.14069 75.4853 6.36159 75.4794 6.57066 75.4794H6.88229V75.3433C6.88229 75.0317 6.77381 74.797 6.55883 74.6412C6.34384 74.4853 6.06969 74.4064 5.73637 74.4064C5.47207 74.4064 5.22553 74.4538 4.99871 74.5465C4.76992 74.6412 4.57269 74.7674 4.40504 74.9271L3.75023 74.2704C4.02833 73.9863 4.35179 73.7812 4.72259 73.657C5.09339 73.5327 5.47602 73.4696 5.87245 73.4696C6.2255 73.4696 6.52332 73.511 6.76789 73.5899C7.01049 73.6688 7.21167 73.7714 7.37143 73.8956C7.53118 74.0219 7.65347 74.1639 7.74025 74.3276C7.82703 74.4913 7.89015 74.655 7.92762 74.8226C7.9651 74.9883 7.98876 75.15 7.99468 75.3058C8.0006 75.4616 8.00454 75.5997 8.00454 75.7181V78.5878H6.88031V77.9034H6.84678ZM6.80537 76.3531H6.54502C6.37145 76.3531 6.17817 76.3591 5.96121 76.3748C5.74623 76.3886 5.54308 76.4222 5.35373 76.4735C5.16242 76.5267 5.00069 76.6017 4.87051 76.7022C4.73837 76.8028 4.67328 76.9429 4.67328 77.1224C4.67328 77.2407 4.69892 77.3393 4.7502 77.4202C4.80148 77.501 4.87051 77.5681 4.95335 77.6233C5.03619 77.6785 5.13086 77.72 5.23342 77.7436C5.33795 77.7673 5.44052 77.7791 5.54505 77.7791C5.97502 77.7791 6.29256 77.6766 6.49768 77.4715C6.70281 77.2683 6.80537 76.9882 6.80537 76.6352V76.3531Z" fill="#8D837F"/>
<path d="M9.2905 73.5978H10.4759V74.3769H10.4976C10.608 74.1422 10.7875 73.9311 11.034 73.7477C11.2806 73.5643 11.6119 73.4716 12.0281 73.4716C12.8111 73.4716 13.3318 73.7812 13.5882 74.3986C13.7677 74.079 13.9945 73.8463 14.2647 73.6964C14.5349 73.5465 14.8564 73.4735 15.2312 73.4735C15.5645 73.4735 15.8446 73.5288 16.0733 73.6412C16.3021 73.7536 16.4875 73.9035 16.6295 74.0988C16.7715 74.2921 16.8741 74.5189 16.9372 74.7792C17.0003 75.0396 17.0299 75.3196 17.0299 75.6175V78.5917H15.7814V75.7634C15.7814 75.6115 15.7676 75.4636 15.74 75.3216C15.7124 75.1796 15.6631 75.0554 15.5941 74.9469C15.525 74.8384 15.4304 74.7556 15.314 74.6924C15.1957 74.6293 15.0438 74.5978 14.8564 74.5978C14.6631 74.5978 14.4975 74.6333 14.3633 74.7062C14.2292 74.7792 14.1168 74.8759 14.03 74.9981C13.9432 75.1204 13.8801 75.2585 13.8426 75.4143C13.8052 75.5701 13.7854 75.7279 13.7854 75.8877V78.5917H12.537V75.6175C12.537 75.3058 12.4719 75.0573 12.3397 74.8739C12.2076 74.6905 11.9906 74.5978 11.6849 74.5978C11.4758 74.5978 11.3023 74.6333 11.1603 74.7023C11.0183 74.7713 10.8999 74.866 10.8072 74.9824C10.7145 75.1007 10.6455 75.2348 10.6041 75.3887C10.5627 75.5425 10.541 75.7003 10.541 75.8679V78.5937H9.29248V73.5978H9.2905Z" fill="#8D837F"/>
<path d="M19.3908 76.5306C19.4322 76.9054 19.5782 77.1953 19.8287 77.4044C20.0772 77.6135 20.3789 77.716 20.734 77.716C21.0456 77.716 21.3079 77.6509 21.5189 77.5227C21.73 77.3945 21.9154 77.2348 22.0751 77.0395L22.9706 77.716C22.6787 78.077 22.3532 78.3334 21.9923 78.4852C21.6314 78.6371 21.2547 78.714 20.8582 78.714C20.4835 78.714 20.1304 78.6529 19.7971 78.5266C19.4638 78.4024 19.1758 78.2249 18.9332 77.9961C18.6906 77.7673 18.4973 77.4912 18.3553 77.1697C18.2133 76.8482 18.1423 76.4873 18.1423 76.0928C18.1423 75.6983 18.2133 75.3394 18.3553 75.0159C18.4973 74.6924 18.6906 74.4183 18.9332 74.1895C19.1758 73.9607 19.4638 73.7832 19.7971 73.6589C20.1304 73.5347 20.4835 73.4716 20.8582 73.4716C21.2053 73.4716 21.5209 73.5327 21.8089 73.653C22.0968 73.7753 22.3434 73.9508 22.5465 74.1796C22.7516 74.4084 22.9114 74.6905 23.0258 75.0277C23.1402 75.365 23.1974 75.7516 23.1974 76.1875V76.5306H19.3908ZM21.9509 75.5938C21.945 75.2269 21.8286 74.937 21.6077 74.726C21.3868 74.5149 21.0771 74.4084 20.6827 74.4084C20.3079 74.4084 20.0121 74.5169 19.7932 74.7319C19.5742 74.9469 19.4401 75.2348 19.3928 75.5958H21.9509V75.5938Z" fill="#8D837F"/>
<path d="M24.363 73.5978H25.6115V74.3887H25.6332C25.7713 74.0968 25.9705 73.872 26.2269 73.7122C26.4833 73.5524 26.7791 73.4735 27.1105 73.4735C27.1874 73.4735 27.2624 73.4814 27.3353 73.4952C27.4083 73.509 27.4833 73.5268 27.5582 73.5465V74.7536C27.4537 74.726 27.3511 74.7023 27.2505 74.6865C27.1499 74.6688 27.0513 74.6609 26.9547 74.6609C26.6628 74.6609 26.43 74.7141 26.2525 74.8226C26.075 74.9311 25.9409 75.0534 25.8462 75.1914C25.7535 75.3295 25.6904 75.4695 25.6589 75.6076C25.6273 75.7457 25.6115 75.8502 25.6115 75.9192V78.5917H24.363V73.5978Z" fill="#8D837F"/>
<path d="M28.2545 71.9016C28.2545 71.7004 28.3294 71.5249 28.4773 71.375C28.6272 71.2251 28.8146 71.1521 29.0434 71.1521C29.2722 71.1521 29.4655 71.2231 29.6213 71.3651C29.7771 71.5071 29.856 71.6866 29.856 71.9016C29.856 72.1166 29.7791 72.2961 29.6213 72.4381C29.4655 72.5801 29.2722 72.6511 29.0434 72.6511C28.8146 72.6511 28.6253 72.5761 28.4773 72.4262C28.3294 72.2783 28.2545 72.1028 28.2545 71.9016ZM28.43 73.5978H29.6785V78.5898H28.43V73.5978Z" fill="#8D837F"/>
<path d="M34.5265 75.0948C34.3805 74.9429 34.2286 74.8206 34.0689 74.7299C33.9091 74.6412 33.7454 74.5938 33.5797 74.5938C33.351 74.5938 33.1458 74.6352 32.9663 74.7201C32.7849 74.8029 32.6311 74.9133 32.5029 75.0534C32.3747 75.1914 32.278 75.3512 32.2109 75.5307C32.1459 75.7102 32.1123 75.8995 32.1123 76.0928C32.1123 76.2861 32.1459 76.4754 32.2109 76.6549C32.276 76.8364 32.3747 76.9961 32.5029 77.1342C32.6311 77.2722 32.7849 77.3847 32.9663 77.4675C33.1458 77.5503 33.351 77.5918 33.5797 77.5918C33.773 77.5918 33.9545 77.5523 34.1202 77.4715C34.2858 77.3926 34.4278 77.2762 34.5462 77.1224L35.3785 78.0178C35.2542 78.144 35.1103 78.2505 34.9466 78.3413C34.7829 78.432 34.6192 78.505 34.4535 78.5602C34.2878 78.6154 34.1281 78.6549 33.9762 78.6805C33.8243 78.7042 33.6922 78.716 33.5817 78.716C33.207 78.716 32.8539 78.6549 32.5206 78.5286C32.1873 78.4044 31.8993 78.2269 31.6567 77.9981C31.4141 77.7693 31.2208 77.4932 31.0788 77.1717C30.9368 76.8482 30.8658 76.4892 30.8658 76.0948C30.8658 75.7003 30.9368 75.3413 31.0788 75.0179C31.2208 74.6944 31.4141 74.4203 31.6567 74.1915C31.8993 73.9627 32.1873 73.7852 32.5206 73.6609C32.8539 73.5367 33.207 73.4735 33.5817 73.4735C33.9012 73.4735 34.2207 73.5347 34.5442 73.655C34.8677 73.7773 35.1497 73.9686 35.3923 74.2329L34.5265 75.0948Z" fill="#8D837F"/>
<path d="M39.2167 77.9034C39.0372 78.1874 38.8064 78.3945 38.5303 78.5227C38.2522 78.6509 37.9485 78.714 37.6151 78.714C37.3863 78.714 37.1615 78.6844 36.9445 78.6213C36.7256 78.5582 36.5323 78.4655 36.3627 78.3413C36.1931 78.217 36.055 78.0612 35.9525 77.8738C35.8479 77.6864 35.7966 77.4675 35.7966 77.219C35.7966 76.9488 35.844 76.718 35.9426 76.5267C36.0392 76.3354 36.1694 76.1756 36.3331 76.0474C36.4968 75.9192 36.6862 75.8167 36.9011 75.7397C37.1161 75.6628 37.339 75.6056 37.5717 75.5682C37.8045 75.5307 38.0372 75.507 38.2739 75.4952C38.5106 75.4853 38.7315 75.4794 38.9405 75.4794H39.2522V75.3433C39.2522 75.0317 39.1437 74.797 38.9287 74.6412C38.7137 74.4853 38.4396 74.4064 38.1062 74.4064C37.8419 74.4064 37.5954 74.4538 37.3686 74.5465C37.1398 74.6412 36.9426 74.7674 36.7749 74.9271L36.1201 74.2704C36.3982 73.9863 36.7217 73.7812 37.0925 73.657C37.4633 73.5327 37.8459 73.4696 38.2423 73.4696C38.5954 73.4696 38.8932 73.511 39.1378 73.5899C39.3804 73.6688 39.5815 73.7714 39.7413 73.8956C39.9011 74.0219 40.0233 74.1639 40.1101 74.3276C40.1969 74.4913 40.26 74.655 40.2975 74.8226C40.335 74.9883 40.3586 75.15 40.3646 75.3058C40.3705 75.4616 40.3744 75.5997 40.3744 75.7181V78.5878H39.2502V77.9034H39.2167ZM39.1772 76.3531H38.9169C38.7433 76.3531 38.55 76.3591 38.3331 76.3748C38.1181 76.3886 37.9149 76.4222 37.7256 76.4735C37.5343 76.5267 37.3725 76.6017 37.2424 76.7022C37.1102 76.8028 37.0451 76.9429 37.0451 77.1224C37.0451 77.2407 37.0708 77.3393 37.122 77.4202C37.1733 77.4991 37.2424 77.5681 37.3252 77.6233C37.408 77.6785 37.5027 77.72 37.6053 77.7436C37.7098 77.7673 37.8124 77.7791 37.9169 77.7791C38.3469 77.7791 38.6644 77.6766 38.8695 77.4715C39.0747 77.2683 39.1772 76.9882 39.1772 76.6352V76.3531Z" fill="#8D837F"/>
<path d="M42.899 73.5978V74.3986H42.9207C43.039 74.1481 43.2185 73.9331 43.4611 73.7477C43.7037 73.5643 44.0331 73.4716 44.4492 73.4716C44.7826 73.4716 45.0646 73.5268 45.2974 73.6392C45.5301 73.7497 45.7194 73.8956 45.8634 74.0751C46.0094 74.2546 46.1139 74.4637 46.175 74.6984C46.2381 74.935 46.2677 75.1816 46.2677 75.438V78.5898H45.0192V76.0612C45.0192 75.9232 45.0133 75.7674 44.9976 75.5977C44.9837 75.4281 44.9463 75.2684 44.8891 75.1185C44.8299 74.9686 44.7392 74.8443 44.6129 74.7437C44.4887 74.6431 44.3171 74.5918 44.1041 74.5918C43.895 74.5918 43.7215 74.6274 43.5794 74.6964C43.4374 74.7654 43.3191 74.8601 43.2264 74.9765C43.1337 75.0948 43.0647 75.2289 43.0233 75.3828C42.9818 75.5366 42.9601 75.6944 42.9601 75.862V78.5878H41.7117V73.5978H42.899Z" fill="#8D837F"/>
<path d="M50.7015 74.6589V73.5978H51.7311V72.8897C51.7311 72.5426 51.7548 72.229 51.8041 71.9489C51.8514 71.6689 51.9441 71.4282 52.0802 71.2251C52.2163 71.0239 52.4037 70.8701 52.6482 70.7616C52.8908 70.6531 53.2064 70.5999 53.5949 70.5999C53.879 70.5999 54.1432 70.6235 54.3858 70.6728L54.303 71.7339C54.2123 71.7142 54.1255 71.6965 54.0427 71.6827C53.9598 71.6689 53.873 71.661 53.7823 71.661C53.6087 71.661 53.4707 71.6886 53.3662 71.7438C53.2616 71.799 53.1808 71.874 53.1216 71.9687C53.0624 72.0614 53.0249 72.1718 53.0072 72.2961C52.9894 72.4203 52.9815 72.5525 52.9815 72.6905V73.5958H54.1354V74.6569H52.9815V78.5898H51.7331V74.6589H50.7015Z" fill="#8D837F"/>
<path d="M55.944 76.5306C55.9854 76.9054 56.1314 77.1953 56.3818 77.4044C56.6304 77.6135 56.9321 77.716 57.2871 77.716C57.5988 77.716 57.8611 77.6509 58.0721 77.5227C58.2832 77.3945 58.4686 77.2348 58.6283 77.0395L59.5238 77.716C59.2319 78.077 58.9064 78.3334 58.5455 78.4852C58.1846 78.6371 57.8078 78.714 57.4114 78.714C57.0367 78.714 56.6836 78.6529 56.3503 78.5266C56.017 78.4024 55.729 78.2249 55.4864 77.9961C55.2438 77.7673 55.0505 77.4912 54.9085 77.1697C54.7665 76.8462 54.6955 76.4873 54.6955 76.0928C54.6955 75.6983 54.7665 75.3394 54.9085 75.0159C55.0505 74.6924 55.2438 74.4183 55.4864 74.1895C55.729 73.9607 56.017 73.7832 56.3503 73.6589C56.6836 73.5347 57.0367 73.4716 57.4114 73.4716C57.7585 73.4716 58.0741 73.5327 58.3621 73.653C58.65 73.7753 58.8966 73.9508 59.0997 74.1796C59.3048 74.4084 59.4646 74.6905 59.579 75.0277C59.6934 75.365 59.7506 75.7516 59.7506 76.1875V76.5306H55.944ZM58.5041 75.5938C58.4981 75.2269 58.3818 74.937 58.1609 74.726C57.94 74.5149 57.6303 74.4084 57.2359 74.4084C56.8611 74.4084 56.5653 74.5169 56.3463 74.7319C56.1274 74.9469 55.9933 75.2348 55.946 75.5958H58.5041V75.5938Z" fill="#8D837F"/>
<path d="M64.8491 77.8403C64.6696 78.146 64.425 78.3669 64.1213 78.5069C63.8156 78.645 63.4862 78.714 63.1331 78.714C62.7446 78.714 62.3994 78.647 62.0996 78.5109C61.7979 78.3748 61.5395 78.1894 61.3245 77.9547C61.1095 77.72 60.9458 77.4419 60.8354 77.1224C60.7249 76.8048 60.6677 76.4597 60.6677 76.0928C60.6677 75.7259 60.7269 75.3808 60.8452 75.0632C60.9636 74.7457 61.1273 74.4676 61.3383 74.2309C61.5493 73.9962 61.8038 73.8108 62.1036 73.6747C62.4014 73.5386 62.7268 73.4716 63.0818 73.4716C63.3165 73.4716 63.5256 73.4952 63.7051 73.5445C63.8846 73.5939 64.0443 73.655 64.1844 73.7319C64.3224 73.8088 64.4408 73.8897 64.5374 73.9765C64.6341 74.0633 64.7149 74.1481 64.7761 74.2309H64.8076V70.7261H66.0561V78.5898H64.8707V77.8403H64.8491ZM61.9162 76.0948C61.9162 76.2881 61.9497 76.4774 62.0148 76.6569C62.0799 76.8383 62.1785 76.9981 62.3047 77.1362C62.4329 77.2742 62.5868 77.3866 62.7682 77.4695C62.9477 77.5523 63.1528 77.5937 63.3816 77.5937C63.6104 77.5937 63.8155 77.5523 63.995 77.4695C64.1745 77.3866 64.3303 77.2762 64.4585 77.1362C64.5867 76.9981 64.6834 76.8383 64.7504 76.6569C64.8155 76.4774 64.8491 76.29 64.8491 76.0948C64.8491 75.9015 64.8155 75.7121 64.7504 75.5327C64.6853 75.3532 64.5867 75.1934 64.4585 75.0554C64.3303 74.9173 64.1765 74.8049 63.995 74.722C63.8155 74.6392 63.6104 74.5958 63.3816 74.5958C63.1528 74.5958 62.9477 74.6372 62.7682 74.722C62.5888 74.8049 62.4329 74.9153 62.3047 75.0554C62.1765 75.1934 62.0799 75.3532 62.0148 75.5327C61.9478 75.7121 61.9162 75.8995 61.9162 76.0948Z" fill="#8D837F"/>
<path d="M68.4683 76.5306C68.5097 76.9054 68.6557 77.1953 68.9042 77.4044C69.1527 77.6135 69.4545 77.716 69.8095 77.716C70.1211 77.716 70.3834 77.6509 70.5945 77.5227C70.8055 77.3945 70.9909 77.2348 71.1507 77.0395L72.0461 77.716C71.7542 78.077 71.4287 78.3334 71.0678 78.4852C70.7069 78.6371 70.3302 78.714 69.9337 78.714C69.559 78.714 69.204 78.6529 68.8726 78.5266C68.5393 78.4024 68.2513 78.2249 68.0087 77.9961C67.7661 77.7673 67.5728 77.4912 67.4308 77.1697C67.2888 76.8462 67.2178 76.4873 67.2178 76.0928C67.2178 75.6983 67.2888 75.3394 67.4308 75.0159C67.5728 74.6924 67.7661 74.4183 68.0087 74.1895C68.2513 73.9607 68.5393 73.7832 68.8726 73.6589C69.2059 73.5347 69.559 73.4716 69.9337 73.4716C70.2809 73.4716 70.5964 73.5327 70.8844 73.653C71.1723 73.7753 71.4189 73.9508 71.622 74.1796C71.8272 74.4084 71.9869 74.6905 72.1013 75.0277C72.2157 75.365 72.2729 75.7516 72.2729 76.1875V76.5306H68.4683ZM71.0284 75.5938C71.0225 75.2269 70.9061 74.937 70.6852 74.726C70.4643 74.5149 70.1546 74.4084 69.7602 74.4084C69.3854 74.4084 69.0896 74.5169 68.8706 74.7319C68.6517 74.9469 68.5176 75.2348 68.4703 75.5958H71.0284V75.5938Z" fill="#8D837F"/>
<path d="M74.689 73.5978V74.3887H74.7087C74.8468 74.0968 75.046 73.872 75.3024 73.7122C75.5588 73.5524 75.8527 73.4735 76.186 73.4735C76.2629 73.4735 76.3379 73.4814 76.4109 73.4952C76.4838 73.509 76.5588 73.5268 76.6337 73.5465V74.7536C76.5292 74.726 76.4266 74.7023 76.326 74.6865C76.2255 74.6688 76.1268 74.6609 76.0302 74.6609C75.7383 74.6609 75.5056 74.7141 75.328 74.8226C75.1505 74.9311 75.0164 75.0534 74.9218 75.1914C74.829 75.3295 74.7659 75.4695 74.7344 75.6076C74.7028 75.7457 74.687 75.8502 74.687 75.9192V78.5917H73.4386V73.5978H74.689Z" fill="#8D837F"/>
<path d="M80.608 77.9034H80.5764C80.3969 78.1874 80.1662 78.3945 79.89 78.5227C79.6119 78.6509 79.3082 78.714 78.9749 78.714C78.7461 78.714 78.5212 78.6844 78.3043 78.6213C78.0854 78.5582 77.8921 78.4655 77.7224 78.3413C77.5528 78.217 77.4148 78.0612 77.3102 77.8738C77.2077 77.6864 77.1544 77.4675 77.1544 77.219C77.1544 76.9488 77.2018 76.718 77.3004 76.5267C77.397 76.3354 77.5272 76.1756 77.6909 76.0474C77.8526 75.9192 78.0439 75.8167 78.2589 75.7397C78.4739 75.6628 78.6968 75.6056 78.9295 75.5682C79.1623 75.5307 79.395 75.507 79.6317 75.4952C79.8664 75.4853 80.0892 75.4794 80.2963 75.4794H80.608V75.3433C80.608 75.0317 80.4995 74.797 80.2845 74.6412C80.0695 74.4853 79.7954 74.4064 79.462 74.4064C79.1997 74.4064 78.9532 74.4538 78.7244 74.5465C78.4956 74.6412 78.2984 74.7674 78.1307 74.9271L77.4759 74.2704C77.754 73.9863 78.0775 73.7812 78.4483 73.657C78.8191 73.5327 79.2017 73.4696 79.5981 73.4696C79.9512 73.4696 80.249 73.511 80.4936 73.5899C80.7362 73.6688 80.9373 73.7714 81.0971 73.8956C81.2569 74.0219 81.3792 74.1639 81.4659 74.3276C81.5527 74.4913 81.6158 74.655 81.6533 74.8226C81.6908 74.9883 81.7125 75.15 81.7204 75.3058C81.7263 75.4616 81.7302 75.5997 81.7302 75.7181V78.5878H80.606V77.9034H80.608ZM80.535 76.3531H80.2746C80.1011 76.3531 79.9058 76.3591 79.6908 76.3748C79.4758 76.3886 79.2727 76.4222 79.0834 76.4735C78.892 76.5267 78.7303 76.6017 78.5982 76.7022C78.466 76.8028 78.4009 76.9429 78.4009 77.1224C78.4009 77.2407 78.4266 77.3393 78.4778 77.4202C78.5291 77.4991 78.5982 77.5681 78.681 77.6233C78.7638 77.6785 78.8585 77.72 78.9611 77.7436C79.0656 77.7673 79.1701 77.7791 79.2727 77.7791C79.7027 77.7791 80.0202 77.6766 80.2234 77.4715C80.4285 77.2683 80.5311 76.9882 80.5311 76.6352V76.3531H80.535Z" fill="#8D837F"/>
<path d="M82.4915 74.6589V73.5978H83.5211V72.1521H84.7696V73.5978H86.1423V74.6589H84.7696V76.8443C84.7696 77.0947 84.8169 77.292 84.9096 77.436C85.0023 77.5819 85.1877 77.6549 85.4658 77.6549C85.5763 77.6549 85.6986 77.643 85.8307 77.6194C85.9629 77.5957 86.0674 77.5543 86.1423 77.4991V78.5503C86.0102 78.6134 85.8484 78.6568 85.6571 78.6805C85.4658 78.7042 85.2982 78.716 85.1522 78.716C84.8189 78.716 84.5487 78.6805 84.3357 78.6075C84.1246 78.5345 83.957 78.4241 83.8367 78.2742C83.7164 78.1243 83.6316 77.9389 83.5862 77.718C83.5408 77.4971 83.5191 77.2407 83.5191 76.9468V74.6589H82.4915Z" fill="#8D837F"/>
<path d="M86.9746 71.9016C86.9746 71.7004 87.0476 71.5249 87.1975 71.375C87.3474 71.2251 87.5348 71.1521 87.7636 71.1521C87.9924 71.1521 88.1857 71.2231 88.3415 71.3651C88.4973 71.5071 88.5762 71.6866 88.5762 71.9016C88.5762 72.1166 88.4993 72.2961 88.3415 72.4381C88.1857 72.5801 87.9943 72.6511 87.7636 72.6511C87.5348 72.6511 87.3455 72.5761 87.1975 72.4262C87.0476 72.2783 86.9746 72.1028 86.9746 71.9016ZM87.1502 73.5978H88.3987V78.5898H87.1502V73.5978Z" fill="#8D837F"/>
<path d="M89.584 76.0948C89.584 75.7003 89.655 75.3413 89.7971 75.0179C89.9391 74.6944 90.1323 74.4203 90.3749 74.1915C90.6175 73.9627 90.9055 73.7852 91.2388 73.6609C91.5722 73.5367 91.9252 73.4735 92.2999 73.4735C92.6747 73.4735 93.0277 73.5367 93.3611 73.6609C93.6944 73.7871 93.9823 73.9627 94.2249 74.1915C94.4675 74.4203 94.6608 74.6964 94.8028 75.0179C94.9448 75.3413 95.0158 75.7003 95.0158 76.0948C95.0158 76.4892 94.9448 76.8482 94.8028 77.1717C94.6608 77.4951 94.4675 77.7693 94.2249 77.9981C93.9823 78.2269 93.6944 78.4044 93.3611 78.5286C93.0277 78.6549 92.6747 78.716 92.2999 78.716C91.9252 78.716 91.5722 78.6549 91.2388 78.5286C90.9055 78.4044 90.6175 78.2269 90.3749 77.9981C90.1323 77.7693 89.9391 77.4932 89.7971 77.1717C89.655 76.8502 89.584 76.4892 89.584 76.0948ZM90.8325 76.0948C90.8325 76.2881 90.8661 76.4774 90.9311 76.6569C90.9962 76.8383 91.0948 76.9981 91.223 77.1362C91.3512 77.2742 91.5051 77.3866 91.6866 77.4695C91.866 77.5523 92.0712 77.5937 92.2999 77.5937C92.5287 77.5937 92.7339 77.5523 92.9133 77.4695C93.0928 77.3866 93.2486 77.2762 93.3768 77.1362C93.505 76.9981 93.6017 76.8383 93.6687 76.6569C93.7338 76.4774 93.7673 76.29 93.7673 76.0948C93.7673 75.9015 93.7338 75.7121 93.6687 75.5327C93.6037 75.3532 93.505 75.1934 93.3768 75.0554C93.2486 74.9173 93.0948 74.8049 92.9133 74.722C92.7339 74.6392 92.5287 74.5958 92.2999 74.5958C92.0712 74.5958 91.866 74.6372 91.6866 74.722C91.5071 74.8049 91.3512 74.9153 91.223 75.0554C91.0948 75.1934 90.9982 75.3532 90.9311 75.5327C90.8641 75.7121 90.8325 75.8995 90.8325 76.0948Z" fill="#8D837F"/>
<path d="M97.3649 73.5978V74.3986H97.3866C97.5049 74.1481 97.6844 73.9331 97.927 73.7477C98.1696 73.5643 98.499 73.4716 98.9151 73.4716C99.2485 73.4716 99.5305 73.5268 99.7632 73.6392C99.996 73.7497 100.183 73.8956 100.329 74.0751C100.475 74.2546 100.58 74.4637 100.641 74.6984C100.704 74.935 100.734 75.1816 100.734 75.438V78.5898H99.4851V76.0612C99.4851 75.9232 99.4792 75.7674 99.4634 75.5977C99.4496 75.4281 99.4141 75.2684 99.355 75.1185C99.2958 74.9686 99.2051 74.8443 99.0808 74.7437C98.9546 74.6431 98.785 74.5918 98.5719 74.5918C98.3629 74.5918 98.1893 74.6274 98.0453 74.6964C97.9033 74.7654 97.785 74.8601 97.6923 74.9765C97.5996 75.0948 97.5306 75.2289 97.4891 75.3828C97.4477 75.5366 97.426 75.6944 97.426 75.862V78.5878H96.1775V73.5978H97.3649Z" fill="#8D837F"/>
<path d="M105.167 74.6589V73.5978H106.197V72.8897C106.197 72.5426 106.221 72.229 106.27 71.9489C106.317 71.6689 106.41 71.4282 106.546 71.2251C106.682 71.0239 106.87 70.8701 107.114 70.7616C107.357 70.6531 107.672 70.5999 108.061 70.5999C108.345 70.5999 108.609 70.6235 108.852 70.6728L108.769 71.7339C108.68 71.7142 108.591 71.6965 108.509 71.6827C108.426 71.6689 108.339 71.661 108.248 71.661C108.075 71.661 107.937 71.6886 107.832 71.7438C107.729 71.799 107.647 71.874 107.587 71.9687C107.528 72.0614 107.491 72.1718 107.473 72.2961C107.455 72.4203 107.447 72.5525 107.447 72.6905V73.5958H108.601V74.6569H107.447V78.5898H106.199V74.6589H105.167Z" fill="#8D837F"/>
<path d="M109.161 76.0948C109.161 75.7003 109.232 75.3413 109.374 75.0179C109.516 74.6944 109.71 74.4203 109.952 74.1915C110.195 73.9627 110.483 73.7852 110.816 73.6609C111.149 73.5367 111.503 73.4735 111.877 73.4735C112.252 73.4735 112.605 73.5367 112.938 73.6609C113.272 73.7871 113.56 73.9627 113.802 74.1915C114.045 74.4203 114.238 74.6964 114.38 75.0179C114.522 75.3394 114.593 75.7003 114.593 76.0948C114.593 76.4892 114.522 76.8482 114.38 77.1717C114.238 77.4951 114.045 77.7693 113.802 77.9981C113.56 78.2269 113.272 78.4044 112.938 78.5286C112.605 78.6549 112.252 78.716 111.877 78.716C111.503 78.716 111.148 78.6549 110.816 78.5286C110.483 78.4044 110.195 78.2269 109.952 77.9981C109.71 77.7693 109.516 77.4932 109.374 77.1717C109.232 76.8502 109.161 76.4892 109.161 76.0948ZM110.41 76.0948C110.41 76.2881 110.443 76.4774 110.508 76.6569C110.574 76.8383 110.67 76.9981 110.8 77.1362C110.929 77.2742 111.082 77.3866 111.264 77.4695C111.443 77.5523 111.648 77.5937 111.877 77.5937C112.106 77.5937 112.309 77.5523 112.491 77.4695C112.67 77.3866 112.826 77.2762 112.952 77.1362C113.08 76.9981 113.179 76.8383 113.244 76.6569C113.309 76.4774 113.343 76.29 113.343 76.0948C113.343 75.9015 113.309 75.7121 113.244 75.5327C113.179 75.3532 113.082 75.1934 112.952 75.0554C112.824 74.9173 112.67 74.8049 112.491 74.722C112.309 74.6392 112.106 74.5958 111.877 74.5958C111.648 74.5958 111.443 74.6372 111.264 74.722C111.082 74.8049 110.929 74.9153 110.8 75.0554C110.672 75.1934 110.574 75.3532 110.508 75.5327C110.443 75.7121 110.41 75.8995 110.41 76.0948Z" fill="#8D837F"/>
<path d="M115.757 73.5978H117.005V74.3887H117.027C117.165 74.0968 117.362 73.872 117.619 73.7122C117.875 73.5524 118.171 73.4735 118.504 73.4735C118.581 73.4735 118.654 73.4814 118.727 73.4952C118.8 73.509 118.875 73.5268 118.95 73.5465V74.7536C118.846 74.726 118.743 74.7023 118.644 74.6865C118.544 74.6688 118.445 74.6609 118.348 74.6609C118.057 74.6609 117.822 74.7141 117.646 74.8226C117.469 74.9311 117.335 75.0534 117.24 75.1914C117.145 75.3295 117.084 75.4695 117.053 75.6076C117.021 75.7457 117.005 75.8502 117.005 75.9192V78.5917H115.757V73.5978Z" fill="#8D837F"/>
<path d="M7.05585 84.988H8.47198L12.4383 94.1948H10.5666L9.70864 92.0884H5.71664L4.88432 94.1948H3.05005L7.05585 84.988ZM9.13469 90.6821L7.71658 86.9367L6.27284 90.6821H9.13469Z" fill="#8D837F"/>
<path d="M21.6432 93.5164C20.5071 94.1238 19.237 94.4256 17.8327 94.4256C17.1207 94.4256 16.4698 94.3112 15.8761 94.0804C15.2824 93.8517 14.7716 93.5262 14.3416 93.1061C13.9136 92.686 13.5764 92.1811 13.3338 91.5914C13.0912 91.0016 12.9689 90.3488 12.9689 89.6289C12.9689 88.8913 13.0892 88.2226 13.3338 87.6211C13.5764 87.0175 13.9117 86.5047 14.3416 86.0787C14.7716 85.6547 15.2824 85.3272 15.8761 85.0985C16.4698 84.8677 17.1226 84.7533 17.8327 84.7533C18.5348 84.7533 19.1936 84.8361 19.8089 85.0058C20.4243 85.1754 20.9746 85.4771 21.4598 85.9091L20.2507 87.1319C19.9549 86.8459 19.5979 86.6231 19.1778 86.4692C18.7577 86.3154 18.3139 86.2365 17.8445 86.2365C17.3672 86.2365 16.9353 86.3213 16.5506 86.4889C16.1641 86.6586 15.8327 86.8913 15.5566 87.1911C15.2785 87.4909 15.0635 87.838 14.9136 88.2364C14.7637 88.6348 14.6868 89.0648 14.6868 89.5244C14.6868 90.0174 14.7617 90.4731 14.9136 90.8892C15.0655 91.3054 15.2805 91.6643 15.5566 91.9681C15.8347 92.2718 16.166 92.5105 16.5506 92.684C16.9372 92.8576 17.3672 92.9444 17.8445 92.9444C18.2607 92.9444 18.6532 92.9049 19.022 92.828C19.3908 92.7511 19.7182 92.6288 20.0042 92.4631V90.2936H18.1187V88.8104H21.6432V93.5164Z" fill="#8D837F"/>
<path d="M23.5426 84.988H25.1816V94.1948H23.5426V84.988Z" fill="#8D837F"/>
<path d="M27.1953 84.988H29.3668L33.8263 91.828H33.8519V84.988H35.4909V94.1948H33.4101L28.86 87.1339H28.8343V94.1948H27.1953V84.988Z" fill="#8D837F"/>
<path d="M45.7253 93.5164C44.5893 94.1238 43.3191 94.4256 41.9148 94.4256C41.2028 94.4256 40.5519 94.3112 39.9583 94.0804C39.3646 93.8517 38.8537 93.5262 38.4238 93.1061C37.9958 92.686 37.6585 92.1811 37.4159 91.5914C37.1733 91.0016 37.051 90.3488 37.051 89.6289C37.051 88.8913 37.1713 88.2226 37.4159 87.6211C37.6585 87.0175 37.9938 86.5047 38.4238 86.0787C38.8537 85.6547 39.3646 85.3272 39.9583 85.0985C40.5519 84.8677 41.2048 84.7533 41.9148 84.7533C42.617 84.7533 43.2757 84.8361 43.8911 85.0058C44.5064 85.1754 45.0567 85.4771 45.5419 85.9091L44.3329 87.1319C44.037 86.8459 43.68 86.6231 43.2599 86.4692C42.8398 86.3134 42.3961 86.2365 41.9266 86.2365C41.4493 86.2365 41.0174 86.3213 40.6328 86.4889C40.2462 86.6586 39.9149 86.8913 39.6387 87.1911C39.3606 87.4909 39.1457 87.838 38.9958 88.2364C38.8459 88.6348 38.7689 89.0648 38.7689 89.5244C38.7689 90.0174 38.8439 90.4731 38.9958 90.8892C39.1476 91.3054 39.3626 91.6643 39.6387 91.9681C39.9168 92.2718 40.2482 92.5105 40.6328 92.684C41.0194 92.8576 41.4493 92.9444 41.9266 92.9444C42.3428 92.9444 42.7353 92.9049 43.1041 92.828C43.4729 92.7511 43.8004 92.6288 44.0863 92.4631V90.2936H42.2008V88.8104H45.7253V93.5164Z" fill="#8D837F"/>
<path d="M52.4589 84.988H55.658C56.0998 84.988 56.5278 85.0294 56.938 85.1123C57.3503 85.1951 57.7151 85.3351 58.0366 85.5343C58.3561 85.7335 58.6125 86.0018 58.8039 86.341C58.9952 86.6783 59.0899 87.1083 59.0899 87.627C59.0899 88.2956 58.9064 88.8538 58.5376 89.3054C58.1688 89.7551 57.6422 90.0293 56.9578 90.1239L59.4015 94.1948H57.4252L55.2931 90.2936H54.0979V94.1948H52.4589V84.988ZM55.37 88.8893C55.6047 88.8893 55.8375 88.8774 56.0722 88.8577C56.3069 88.836 56.5199 88.7847 56.7152 88.7019C56.9104 88.6191 57.0682 88.4948 57.1905 88.3252C57.3128 88.1556 57.372 87.9189 57.372 87.6171C57.372 87.3489 57.3148 87.1319 57.2023 86.9662C57.0899 86.8006 56.942 86.6783 56.7605 86.5955C56.5791 86.5126 56.3779 86.4594 56.157 86.4337C55.9361 86.4081 55.7211 86.3943 55.514 86.3943H54.0979V88.8912H55.37V88.8893Z" fill="#8D837F"/>
<path d="M60.65 84.988H66.7484V86.4712H62.289V88.7334H66.5157V90.2166H62.289V92.7136H66.9831V94.1968H60.65V84.988Z" fill="#8D837F"/>
<path d="M73.1052 86.9643C72.9317 86.7138 72.6989 86.5284 72.409 86.412C72.1191 86.2957 71.8133 86.2365 71.4919 86.2365C71.3005 86.2365 71.1171 86.2582 70.9396 86.3016C70.7621 86.345 70.6004 86.416 70.4584 86.5106C70.3144 86.6073 70.202 86.7296 70.1132 86.8814C70.0264 87.0333 69.983 87.2128 69.983 87.4199C69.983 87.7315 70.0915 87.9702 70.3085 88.1358C70.5254 88.3015 70.7937 88.4435 71.1151 88.5658C71.4366 88.6881 71.7857 88.8045 72.1684 88.9169C72.551 89.0293 72.9001 89.1851 73.2216 89.3843C73.5431 89.5835 73.8113 89.8478 74.0283 90.1772C74.2452 90.5066 74.3537 90.9444 74.3537 91.4908C74.3537 91.9858 74.263 92.4158 74.0796 92.7846C73.8981 93.1535 73.6535 93.4592 73.3439 93.7018C73.0362 93.9443 72.6792 94.1258 72.2709 94.2481C71.8646 94.3704 71.4347 94.4295 70.983 94.4295C70.411 94.4295 69.8607 94.3349 69.3322 94.1436C68.8036 93.9522 68.348 93.6307 67.9673 93.1811L69.202 91.9858C69.4012 92.2896 69.6635 92.5243 69.9889 92.6939C70.3144 92.8635 70.6576 92.9463 71.0224 92.9463C71.2138 92.9463 71.4031 92.9207 71.5944 92.8694C71.7857 92.8182 71.9593 92.7393 72.1151 92.6367C72.2709 92.5322 72.3952 92.4 72.4918 92.2403C72.5865 92.0805 72.6358 91.8951 72.6358 91.688C72.6358 91.3488 72.5273 91.0904 72.3104 90.907C72.0934 90.7235 71.8252 90.5717 71.5037 90.4454C71.1822 90.3192 70.8311 90.2009 70.4505 90.0865C70.0678 89.974 69.7168 89.8202 69.3972 89.625C69.0758 89.4297 68.8075 89.1693 68.5906 88.8439C68.3736 88.5185 68.2651 88.0846 68.2651 87.5382C68.2651 87.0609 68.3618 86.6487 68.559 86.3016C68.7543 85.9544 69.0087 85.6665 69.3262 85.4377C69.6438 85.2089 70.0047 85.0373 70.413 84.9229C70.8193 84.8105 71.2355 84.7553 71.6615 84.7553C72.1467 84.7553 72.6181 84.8282 73.0717 84.9762C73.5253 85.1241 73.9356 85.3667 74.3005 85.704L73.1052 86.9643Z" fill="#8D837F"/>
<path d="M76.0578 84.988H82.1562V86.4712H77.6968V88.7334H81.9235V90.2166H77.6968V92.7136H82.391V94.1968H76.0598V84.988H76.0578Z" fill="#8D837F"/>
<path d="M86.9806 84.988H88.3967L92.3631 94.1948H90.4913L89.6333 92.0884H85.6414L84.809 94.1948H82.9748L86.9806 84.988ZM89.0614 90.6821L87.6433 86.9367L86.2015 90.6821H89.0614Z" fill="#8D837F"/>
<path d="M93.3906 84.988H96.5897C97.0315 84.988 97.4576 85.0294 97.8698 85.1123C98.282 85.1951 98.6469 85.3351 98.9684 85.5343C99.2879 85.7335 99.5443 86.0018 99.7356 86.341C99.9269 86.6783 100.022 87.1083 100.022 87.627C100.022 88.2956 99.8362 88.8538 99.4693 89.3054C99.1005 89.7551 98.5739 90.0293 97.8895 90.1239L100.333 94.1948H98.357L96.2249 90.2936H95.0296V94.1948H93.3906V84.988ZM96.3038 88.8893C96.5365 88.8893 96.7712 88.8774 97.0059 88.8577C97.2406 88.836 97.4536 88.7847 97.6509 88.7019C97.8461 88.6191 98.0039 88.4948 98.1242 88.3252C98.2465 88.1556 98.3057 87.9189 98.3057 87.6171C98.3057 87.3489 98.2504 87.1319 98.138 86.9662C98.0236 86.8006 97.8777 86.6783 97.6962 86.5955C97.5148 86.5126 97.3136 86.4594 97.0927 86.4337C96.8718 86.4081 96.6568 86.3943 96.4497 86.3943H95.0336V88.8912H96.3038V88.8893Z" fill="#8D837F"/>
<path d="M107.901 87.1457C107.562 86.7809 107.236 86.5383 106.919 86.4179C106.601 86.2957 106.284 86.2365 105.962 86.2365C105.485 86.2365 105.053 86.3213 104.668 86.4889C104.282 86.6586 103.95 86.8913 103.674 87.1911C103.396 87.4909 103.181 87.838 103.029 88.2364C102.878 88.6348 102.803 89.0648 102.803 89.5244C102.803 90.0174 102.878 90.4731 103.029 90.8892C103.181 91.3054 103.396 91.6643 103.674 91.9681C103.95 92.2718 104.284 92.5105 104.668 92.684C105.053 92.8576 105.485 92.9444 105.962 92.9444C106.335 92.9444 106.698 92.8556 107.049 92.6781C107.4 92.5006 107.727 92.2166 108.029 91.8261L109.382 92.7886C108.966 93.3605 108.459 93.7767 107.862 94.0371C107.264 94.2974 106.625 94.4256 105.95 94.4256C105.238 94.4256 104.588 94.3112 103.994 94.0804C103.4 93.8517 102.887 93.5262 102.459 93.1061C102.031 92.686 101.694 92.1811 101.452 91.5914C101.209 91.0016 101.087 90.3488 101.087 89.6289C101.087 88.8913 101.207 88.2226 101.452 87.6211C101.694 87.0175 102.031 86.5047 102.459 86.0787C102.889 85.6547 103.4 85.3272 103.994 85.0985C104.588 84.8677 105.24 84.7533 105.95 84.7533C106.574 84.7533 107.152 84.8637 107.686 85.0846C108.221 85.3055 108.716 85.6803 109.175 86.2089L107.901 87.1457Z" fill="#8D837F"/>
<path d="M110.489 84.988H112.128V88.6546H116.431V84.988H118.07V94.1948H116.431V90.1377H112.128V94.1948H110.489V84.988Z" fill="#8D837F"/>
</svg>
