<svg width="251" height="48" viewBox="0 0 251 48" fill="none" xmlns="http://www.w3.org/2000/svg">
<rect width="251" height="47.0625" fill="#08088C"/>
<path d="M56.5434 4.05299H64.7173V42.8356H56.5434V4.05299ZM51.6739 14.3139V15.8791C51.6739 20.7486 49.9347 23.0095 45.413 23.5312V24.2269C49.9347 24.7486 51.6739 26.8356 51.6739 31.8791V43.0095H43.4999V31.5312C43.4999 28.4008 42.6304 27.5312 40.1956 27.5312H37.413V43.0095H29.2391V4.05299H41.7608C49.0652 4.05299 51.6739 7.18342 51.6739 14.3139ZM43.4999 14.8356C43.4999 11.7052 42.6304 10.8356 40.1956 10.8356H37.413V20.9226H39.6739C42.4565 20.9226 43.4999 19.8791 43.4999 16.7486V14.8356ZM24.8913 30.8356V32.7486C24.8913 39.8791 22.2826 43.0095 14.9782 43.0095H2.10864V4.05299H14.8043C22.1086 4.05299 24.7173 7.00951 24.7173 14.3139V14.8356C24.7173 19.7052 22.9782 21.966 18.4565 22.4878V23.1834C23.1521 23.7052 24.8913 25.7921 24.8913 30.8356ZM10.2826 19.8791H12.8913C15.6739 19.8791 16.7173 18.8356 16.7173 15.7052V14.8356C16.7173 11.7052 15.8478 10.8356 13.413 10.8356H10.2826V19.8791ZM16.7173 30.4878C16.7173 27.3573 15.8478 26.4878 13.413 26.4878H10.2826V36.2269H13.2391C15.6739 36.2269 16.5434 35.3573 16.5434 32.2269V30.4878H16.7173ZM80.8913 3.53125C73.5869 3.53125 69.7608 7.53125 69.7608 15.1834V33.0965C69.7608 40.2269 72.7173 43.5312 79.1521 43.5312C84.5434 43.5312 86.6304 41.2704 86.9782 35.8791H87.326L88.3695 43.0095H92.0217V21.4443H80.8913V27.3573H84.1956V33.0965C84.1956 35.8791 83.1521 36.9226 81.0652 36.9226C78.9782 36.9226 77.9347 35.7052 77.9347 33.0965V13.966C77.9347 11.1834 78.9782 10.1399 80.8913 10.1399C82.8043 10.1399 83.8478 11.1834 83.8478 13.966V18.1399H91.8478V14.8356C92.0217 7.35734 88.1956 3.53125 80.8913 3.53125ZM206.109 36.2269H205.413L202.456 4.05299H194.109L198.63 42.8356H212.196L216.543 4.05299H209.065L206.109 36.2269ZM191.326 15.1834V31.8791C191.326 39.5312 187.5 43.5312 180.022 43.5312C172.717 43.5312 168.717 39.5312 168.717 31.8791V15.1834C168.717 7.53125 172.543 3.53125 180.022 3.53125C187.5 3.53125 191.326 7.53125 191.326 15.1834ZM183.152 13.966C183.152 11.1834 182.109 10.1399 180.022 10.1399C177.935 10.1399 176.891 11.3573 176.891 13.966V33.0965C176.891 35.8791 177.935 36.9226 180.022 36.9226C182.109 36.9226 183.152 35.7052 183.152 33.0965V13.966ZM238.283 10.8356V4.05299H219.848V42.8356H238.283V36.053H228.022V26.4878H237.587V20.053H228.022V10.8356H238.283ZM121.935 10.8356H127.674V43.0095H135.848V10.8356H141.587V4.05299H121.935V10.8356ZM154.283 3.53125C147.152 3.53125 143.326 7.53125 143.326 15.1834V31.8791C143.326 39.5312 147.152 43.5312 154.283 43.5312C161.587 43.5312 165.239 39.7052 165.239 32.2269V27.5312H157.239V33.0965C157.239 35.8791 156.196 36.9226 154.283 36.9226C152.37 36.9226 151.326 35.7052 151.326 33.0965V13.966C151.326 11.1834 152.37 10.1399 154.283 10.1399C156.196 10.1399 157.239 11.3573 157.239 13.966V19.1834H165.239V14.8356C165.239 7.35734 161.413 3.53125 154.283 3.53125ZM110.978 20.053H105.239V4.05299H97.0652V42.8356H105.239V26.4878H110.978V42.8356H119.152V4.05299H110.978V20.053ZM244.891 4.2269C242.63 4.2269 240.891 5.96603 240.891 8.2269C240.891 10.4878 242.63 12.2269 244.891 12.2269C247.152 12.2269 248.891 10.4878 248.891 8.2269C248.891 5.96603 247.152 4.2269 244.891 4.2269ZM244.891 11.7052C242.978 11.7052 241.413 10.3139 241.413 8.2269C241.413 6.13995 242.804 4.74864 244.891 4.74864C246.804 4.74864 248.37 6.13995 248.37 8.2269C248.37 10.3139 246.804 11.7052 244.891 11.7052ZM246.63 7.53125C246.63 6.66168 246.109 6.13995 245.065 6.13995H243.326V9.96603H244.196V8.92255H245.065L245.761 10.3139H246.63L245.761 8.74864C246.283 8.40082 246.63 8.05299 246.63 7.53125ZM245.761 7.53125C245.761 7.87908 245.587 8.05299 245.065 8.05299H244.196V7.00951H245.065C245.587 7.00951 245.761 7.18342 245.761 7.53125Z" fill="#05EAE4"/>
</svg>
