<svg  viewBox="20 16 220 50" fill="none" xmlns="http://www.w3.org/2000/svg"><defs>
<clipPath id="clip0_0_1833">
<rect width="50" height="50" fill="white" transform="translate(20 16)"/>
</clipPath>
<clipPath id="clip1_0_1833">
<rect width="100" height="18.625" fill="white" transform="translate(99 32)"/>
</clipPath>
</defs><g clip-path="url(#clip0_0_1833)">
<path d="M48.7915 36.5898L58.2915 20.1348C63.4357 23.4602 67.1619 28.5771 68.748 34.4935C70.334 40.41 69.6669 46.7046 66.8758 52.1572L50.4207 42.6685C49.9146 42.3764 49.471 41.9874 49.1151 41.5238C48.7593 41.0603 48.4983 40.5311 48.347 39.9666C48.1957 39.4022 48.1571 38.8134 48.2334 38.234C48.3097 37.6546 48.4993 37.0959 48.7915 36.5898Z" fill="#F8B228"/>
<path d="M49.2139 44.8092L65.669 54.3092C62.3427 59.4523 57.2254 63.1774 51.309 64.7624C45.3926 66.3474 39.0985 65.6793 33.6465 62.8878L43.1465 46.4384C43.7364 45.4192 44.7063 44.6754 45.8436 44.37C46.9809 44.0646 48.1928 44.2225 49.2139 44.8092Z" fill="#2D1D2F"/>
<path d="M31.4661 61.6517L44.4549 39.1798C44.5809 39.0059 44.6372 38.791 44.6128 38.5777C44.5884 38.3643 44.4849 38.1678 44.3229 38.0269C44.1608 37.8859 43.9518 37.8107 43.7371 37.8162C43.5224 37.8216 43.3175 37.9073 43.1628 38.0562C36.8419 43.2722 29.6014 47.2602 21.8145 49.8146C23.692 54.6857 27.0727 58.8319 31.4661 61.6517Z" fill="#6AB3E3"/>
<path d="M21.051 47.4608C35.8628 42.5846 48.3589 32.4225 56.1521 18.9158C51.8835 16.7308 47.0716 15.8346 42.3025 16.3364C37.5335 16.8382 33.0134 18.7162 29.293 21.7417C25.5726 24.7672 22.8125 28.8096 21.3491 33.3761C19.8857 37.9427 19.7821 42.8364 21.051 47.4608Z" fill="#E41E26"/>
</g><g clip-path="url(#clip1_0_1833)">
<path d="M99 41.72C98.9976 41.0522 99.1157 40.3895 99.3488 39.7638C99.5708 39.161 99.9108 38.6086 100.349 38.1388C101.295 37.1296 102.525 36.625 104.036 36.625C105.548 36.625 106.744 37.1 107.625 38.05C108.473 38.9542 108.897 40.1279 108.896 41.5712C108.895 43.0146 108.459 44.2104 107.586 45.1587C106.664 46.1587 105.44 46.6587 103.916 46.6587C102.343 46.6587 101.11 46.1662 100.218 45.1812C99.4059 44.2862 99 43.1325 99 41.72ZM101.259 41.665C101.258 42.0509 101.324 42.434 101.454 42.7975C101.573 43.1456 101.763 43.4653 102.011 43.7362C102.525 44.3004 103.2 44.5825 104.036 44.5825C104.811 44.5825 105.422 44.3067 105.868 43.755C106.301 43.2225 106.518 42.5287 106.518 41.6737C106.518 40.8187 106.295 40.1188 105.849 39.5738C105.371 39.0038 104.718 38.7188 103.888 38.7188C103.046 38.7188 102.386 39.0208 101.909 39.625C101.465 40.2108 101.236 40.9307 101.259 41.665Z" fill="black"/>
<path d="M112.672 37.1663C113.326 36.8175 114.055 36.6326 114.797 36.6275C115.438 36.6116 116.077 36.7273 116.672 36.9675C117.192 37.1927 117.66 37.5229 118.047 37.9375C118.908 38.8742 119.339 40.0575 119.339 41.4875C119.339 43.055 118.871 44.3188 117.936 45.2788C117.037 46.2021 115.919 46.6638 114.581 46.6638C113.405 46.6638 112.435 46.3571 111.672 45.7438C110.817 45.0496 110.39 44.0913 110.391 42.8688V32.6975H112.667L112.672 37.1663ZM112.672 42.845C112.672 43.935 113.35 44.48 114.707 44.48C115.373 44.48 115.931 44.1883 116.379 43.605C116.828 43.0217 117.057 42.2813 117.067 41.3838C117.067 40.4929 116.825 39.8208 116.342 39.3675C115.908 38.965 115.325 38.7638 114.592 38.7638C114.152 38.7638 113.666 38.9125 113.133 39.21C112.97 39.2997 112.815 39.4021 112.668 39.5163L112.672 42.845Z" fill="black"/>
<path d="M119.809 36.8137H122.434L124.701 43.2075L126.894 36.8137H129.467L125.63 46.525H123.72L119.809 36.8137Z" fill="black"/>
<path d="M130.918 34.045C131.375 33.32 131.894 32.6358 132.469 32L134.469 33.57C134.202 33.8983 133.954 34.2208 133.725 34.5375L133.009 35.55L130.918 34.045ZM133.362 45.4838C133.354 45.8313 133.366 46.1789 133.398 46.525H131.038V36.8137H133.362V45.4838Z" fill="black"/>
<path d="M152.86 45.6789C152.067 46.3355 151.203 46.6639 150.267 46.6639C149.267 46.6639 148.48 46.3264 147.907 45.6514C147.362 44.9939 147.089 44.0922 147.088 42.9464V39.2576C147.088 38.0189 147.063 37.3076 147.01 37.1251C146.979 37.0066 146.94 36.8901 146.895 36.7764C147.178 36.8014 147.475 36.8139 147.786 36.8139H148.557C148.762 36.8139 149.031 36.8039 149.366 36.7864V42.1614C149.366 43.438 149.713 44.1784 150.407 44.3826C150.63 44.4459 150.861 44.477 151.093 44.4751C151.429 44.4864 151.763 44.4202 152.07 44.2817C152.376 44.1432 152.646 43.9361 152.86 43.6764V36.8139H155.165V45.3351C155.154 45.7332 155.179 46.1314 155.238 46.5251H152.863L152.86 45.6789Z" fill="black"/>
<path d="M161.032 46.6637C159.282 46.6637 157.965 46.3446 157.082 45.7062C157.095 45.5212 157.113 45.31 157.138 45.075L157.222 44.4062C157.271 43.9662 157.302 43.6912 157.315 43.5837C157.318 43.5239 157.328 43.4644 157.342 43.4062C157.342 43.3975 157.398 43.4475 157.491 43.555C157.647 43.712 157.826 43.8451 158.021 43.95C158.306 44.1168 158.608 44.2537 158.922 44.3587C159.664 44.6119 160.443 44.7387 161.227 44.7337C162.298 44.7337 162.834 44.3775 162.835 43.665C162.838 43.5593 162.811 43.4549 162.757 43.3642C162.703 43.2735 162.623 43.2004 162.528 43.1537C162.162 42.9687 161.625 42.8279 160.916 42.7312C160.32 42.6638 159.734 42.5218 159.173 42.3087C158.768 42.1518 158.394 41.9255 158.067 41.64C157.541 41.15 157.278 40.5087 157.277 39.7162C157.277 38.7496 157.649 37.9904 158.392 37.4387C159.135 36.8871 160.155 36.6158 161.45 36.625C162.738 36.625 163.837 36.9904 164.748 37.7212C164.704 37.8821 164.658 38.0371 164.61 38.1862C164.467 38.595 164.36 38.89 164.293 39.0687L164.08 39.625C164.067 39.675 164.057 39.6987 164.052 39.6987C163.992 39.6407 163.942 39.5736 163.903 39.5C163.512 39.0491 162.905 38.7521 162.082 38.6087C161.825 38.5585 161.563 38.5334 161.301 38.5337C160.173 38.5337 159.61 38.8746 159.61 39.5562C159.609 39.6708 159.642 39.783 159.705 39.8788C159.768 39.9747 159.858 40.0498 159.963 40.095C160.402 40.3316 161.004 40.505 161.771 40.615C162.537 40.725 163.118 40.8754 163.512 41.0662C163.873 41.2291 164.198 41.4614 164.47 41.75C164.916 42.2333 165.139 42.8746 165.138 43.6737C165.146 44.0861 165.055 44.4945 164.872 44.8642C164.69 45.2341 164.421 45.5546 164.088 45.7987C163.357 46.3762 162.339 46.6646 161.032 46.6637Z" fill="black"/>
<path d="M169.202 45.4837C169.194 45.8312 169.207 46.179 169.24 46.525H166.875V32.6787H169.199L169.202 45.4837Z" fill="black"/>
<path d="M171.226 49.7587L171.839 49.2662C172.763 48.5162 173.528 47.4103 174.135 45.9487L174.562 44.9162L171 36.8137H173.603L175.832 42.4262L177.905 36.8137H180.581C180.259 37.2596 179.865 38.0896 179.401 39.3037L178.01 42.75C176.145 47.1366 174.683 49.7516 173.625 50.595L171.226 49.7587Z" fill="black"/>
<path d="M180.148 46.525C180.201 46.1941 180.229 45.8598 180.232 45.525C180.232 45.2341 180.232 45.0341 180.232 44.925C180.232 44.8162 180.223 44.71 180.217 44.605C180.211 44.5 180.206 44.4 180.2 44.3075L180.171 44.075H182.866C182.847 44.31 182.838 44.5025 182.838 44.6512L182.82 45.0412V45.7062C182.817 45.9811 182.832 46.256 182.866 46.5287L180.148 46.525Z" fill="black"/>
<path d="M191.386 45.9488C190.506 46.4254 189.709 46.6638 188.997 46.6638C188.381 46.675 187.766 46.6078 187.167 46.4638C186.703 46.3515 186.264 46.1516 185.874 45.875C185.156 45.3491 184.797 44.5871 184.797 43.5888C184.797 42.6971 185.236 41.9538 186.116 41.3588C187.071 40.7146 188.366 40.3925 190.001 40.3925L190.376 40.4013C190.451 40.4079 190.534 40.4129 190.626 40.4163C190.709 40.4181 190.793 40.4256 190.876 40.4388C190.826 39.4479 190.398 38.8688 189.593 38.7013C189.313 38.6439 189.029 38.6158 188.743 38.6175C188.447 38.6171 188.152 38.6434 187.861 38.6963C187.576 38.7478 187.295 38.818 187.019 38.9063C186.418 39.0979 185.988 39.3175 185.727 39.565L185.699 39.5475L185.421 37.4938C186.529 36.913 187.764 36.6146 189.016 36.625C191.036 36.625 192.327 37.3529 192.891 38.8088C193.077 39.3113 193.168 39.8441 193.159 40.38V43.75C193.159 44.4692 193.413 44.9584 193.922 45.2175L192.241 46.76C191.886 46.5735 191.59 46.2928 191.386 45.9488ZM190.886 42.11C190.714 42.0792 190.54 42.0637 190.366 42.0638H189.991C188.621 42.0638 187.75 42.3675 187.379 42.975C187.271 43.1439 187.213 43.3404 187.212 43.5413C187.208 43.722 187.244 43.9013 187.318 44.0663C187.396 44.2248 187.521 44.3557 187.676 44.4413C187.998 44.6271 188.477 44.72 189.112 44.72C189.734 44.7234 190.347 44.5666 190.892 44.265C190.892 44.1975 190.882 44.1263 190.882 44.0513L190.886 42.11Z" fill="black"/>
<path d="M195.449 34.045C195.907 33.3203 196.425 32.6362 196.999 32L198.999 33.57C198.733 33.8983 198.483 34.2208 198.249 34.5375L197.534 35.55L195.449 34.045ZM197.894 45.4838C197.886 45.8313 197.898 46.1789 197.93 46.525H195.57V36.8137H197.894V45.4838Z" fill="black"/>
<path d="M141.156 40.9562L143.27 37.2949C144.414 38.0348 145.244 39.1733 145.596 40.4897C145.949 41.8062 145.801 43.2067 145.18 44.4199L141.519 42.3087C141.406 42.2437 141.307 42.1571 141.228 42.054C141.149 41.9508 141.091 41.8331 141.057 41.7075C141.024 41.5819 141.015 41.4509 141.032 41.322C141.049 41.1931 141.091 41.0688 141.156 40.9562Z" fill="#F8B228"/>
<path d="M141.251 42.7849L144.912 44.8987C144.172 46.043 143.033 46.8718 141.717 47.2245C140.401 47.5772 139 47.4285 137.787 46.8074L139.901 43.1474C140.032 42.9206 140.248 42.7551 140.501 42.6872C140.754 42.6192 141.024 42.6544 141.251 42.7849Z" fill="#2D1D2F"/>
<path d="M137.302 46.5325L140.192 41.5325C140.22 41.4938 140.232 41.446 140.227 41.3985C140.222 41.351 140.198 41.3073 140.162 41.2759C140.126 41.2446 140.08 41.2279 140.032 41.2291C139.984 41.2303 139.939 41.2493 139.904 41.2825C138.498 42.443 136.887 43.3304 135.154 43.8987C135.572 44.9826 136.324 45.9051 137.302 46.5325Z" fill="#6AB3E3"/>
<path d="M134.983 43.375C138.279 42.2901 141.059 40.029 142.793 37.0238C141.843 36.5376 140.773 36.3382 139.712 36.4499C138.651 36.5615 137.645 36.9794 136.817 37.6526C135.989 38.3257 135.375 39.2252 135.05 40.2412C134.724 41.2573 134.701 42.3461 134.983 43.375Z" fill="#E41E26"/>
</g></svg>