<svg width="243" height="49" viewBox="0 0 243 49" fill="none" xmlns="http://www.w3.org/2000/svg">
<path d="M41.429 27.5431L47.3122 12.6831H48.8764L54.8045 27.5431H53.3449L51.7557 23.533H44.3681L42.8039 27.5431H41.429ZM51.2825 22.2976L48.0694 13.9186L44.8015 22.2976H51.2825Z" fill="#0065A4"/>
<path d="M57.0113 18.7307L57.0561 18.7706C57.7735 17.4953 58.9491 16.8975 60.2842 16.8975C61.9132 16.8975 63.1835 17.7992 63.6368 19.1592C64.399 17.9437 65.5896 16.8975 67.1936 16.8975C70.5661 16.8975 70.8351 19.8815 70.8351 21.0771V27.5382H69.5997V20.8778C69.5997 19.0844 68.5685 18.0333 66.8848 18.0333C64.8473 18.0333 63.9207 19.742 63.9207 21.5951V27.5431H62.6903V20.8778C62.6903 19.0844 61.6591 18.0333 59.9753 18.0333C57.9379 18.0333 57.0113 19.742 57.0113 21.5951V27.5431H55.7808V19.5378C55.7808 18.7357 55.7161 17.9088 55.6762 17.2114H56.9515L57.0113 18.7307Z" fill="#0065A4"/>
<path d="M73.6995 22.6662C73.7394 24.868 74.7506 26.7162 77.2813 26.7162C78.7409 26.7162 79.9564 25.6651 80.2603 24.2503H81.5555C80.9228 26.7162 79.3736 27.847 76.8828 27.847C73.7942 27.847 72.3595 25.1968 72.3595 22.3723C72.3595 19.5726 73.9038 16.8975 76.9724 16.8975C80.4296 16.8975 81.68 19.4282 81.68 22.6612H73.6995V22.6662ZM80.3499 21.5304C80.2005 19.5328 79.1344 18.0333 76.9973 18.0333C74.9798 18.0333 73.9088 19.7221 73.7444 21.5304H80.3499Z" fill="#0065A4"/>
<path d="M83.6129 27.5431V19.5378C83.6328 18.7357 83.5531 17.9088 83.5082 17.2114H84.7835L84.8433 18.7307H84.8881C85.2568 17.6846 86.1833 16.9374 87.2145 16.8975C87.628 16.8776 88.0365 16.8975 88.45 16.9175V18.1081C88.2059 18.0881 87.9369 18.0283 87.6928 18.0283C85.8595 18.0283 84.8931 19.3435 84.8533 21.3212V27.5431H83.6129Z" fill="#0065A4"/>
<path d="M91.0005 14.2274H89.5609V12.6831H91.0005V14.2274ZM90.9009 17.2114V27.5431H89.6655V17.2114H90.9009Z" fill="#0065A4"/>
<path d="M99.9225 20.3796C99.8179 18.7955 98.8066 18.0333 97.098 18.0333C95.205 18.0333 94.0343 20.006 94.0343 22.3573C94.0343 24.7236 95.205 26.7212 97.098 26.7212C98.702 26.7212 99.8179 25.7348 99.9225 24.3151H101.258C100.929 26.6813 99.5688 27.852 97.2275 27.852C94.1389 27.852 92.6992 25.2018 92.6992 22.3773C92.6992 19.5776 94.2435 16.9025 97.3072 16.9025C99.4244 16.9025 101.158 18.1778 101.258 20.3846H99.9225V20.3796Z" fill="#0065A4"/>
<path d="M109.004 20.2551C108.879 18.5713 108.023 18.0333 106.558 18.0333C105.263 18.0333 104.192 18.4269 104.027 19.8267H102.707C103.016 17.7045 104.605 16.9025 106.578 16.9025C108.859 16.9025 110.279 17.9536 110.239 20.3199V25.2167C110.219 26.0238 110.299 26.8407 110.339 27.5431H109.064L109.024 26.0238H108.979L108.914 26.1682C108.461 27.035 107.086 27.852 105.686 27.852C103.773 27.852 102.254 26.6813 102.254 24.6688C102.254 23.264 103.096 22.1929 104.331 21.6798C105.706 21.087 107.499 21.2913 108.994 21.2066V20.2551H109.004ZM105.925 26.7162C108.62 26.7162 109.128 24.4944 109.009 22.3324C107.265 22.3922 103.604 22.0634 103.604 24.6588C103.599 26.0586 104.665 26.7162 105.925 26.7162Z" fill="#0065A4"/>
<path d="M113.871 27.5431H112.635V19.5378C112.635 18.7357 112.576 17.9088 112.531 17.2114H113.806L113.871 18.7307L113.911 18.7706C114.623 17.4953 115.809 16.8975 117.139 16.8975C120.516 16.8975 120.78 19.8815 120.78 21.0771V27.5382H119.54V20.8778C119.54 19.0844 118.514 18.0333 116.83 18.0333C114.797 18.0333 113.866 19.742 113.866 21.5951V27.5431H113.871Z" fill="#0065A4"/>
<path d="M127.735 27.5431V12.6831H129.05L129.07 19.2239L135.715 12.6831H137.399L130.549 19.3883L138.017 27.5382H136.188L129.07 19.7769L129.05 27.5382H127.735V27.5431Z" fill="#0065A4"/>
<path d="M140.617 12.6831H139.177V14.2274H140.617V12.6831ZM139.272 17.2114V27.5431H140.507V17.2114H139.272Z" fill="#0065A4"/>
<path d="M150.127 26.0188L150.087 25.9341C149.24 27.1645 147.985 27.847 146.55 27.847C143.476 27.847 142.311 24.9228 142.311 22.3324C142.311 19.6573 143.476 16.8975 146.55 16.8975C147.925 16.8975 149.37 17.5601 150.087 18.7706L150.127 18.7307V12.6831H151.362V25.2167C151.362 26.0238 151.427 26.8407 151.467 27.5431H150.187L150.127 26.0188ZM146.749 18.0333C144.408 18.0333 143.646 20.2153 143.646 22.188C143.646 24.1059 144.199 26.7162 146.565 26.7162C149.26 26.7162 150.087 24.4745 150.087 22.1282C150.087 20.0309 149.16 18.0333 146.749 18.0333Z" fill="#0065A4"/>
<path d="M153.634 27.5431V19.5378C153.634 18.7357 153.574 17.9088 153.534 17.2114H154.809L154.874 18.7307L154.914 18.7706C155.631 17.4953 156.807 16.8975 158.142 16.8975C161.52 16.8975 161.789 19.8815 161.789 21.0771V27.5382H160.553V20.8778C160.553 19.0844 159.522 18.0333 157.838 18.0333C155.801 18.0333 154.874 19.742 154.874 21.5951V27.5431H153.634Z" fill="#0065A4"/>
<path d="M164.683 22.6662C164.723 24.868 165.734 26.7162 168.265 26.7162C169.729 26.7162 170.94 25.6651 171.249 24.2503H172.549C171.906 26.7162 170.367 27.847 167.876 27.847C164.792 27.847 163.348 25.1968 163.348 22.3723C163.348 19.5726 164.892 16.8975 167.951 16.8975C171.408 16.8975 172.663 19.4282 172.663 22.6612H164.683V22.6662ZM171.333 21.5304C171.189 19.5328 170.123 18.0333 167.976 18.0333C165.958 18.0333 164.897 19.7221 164.723 21.5304H171.333Z" fill="#0065A4"/>
<path d="M174.611 17.2114L178.088 25.8544L181.55 17.2114H182.886L177.182 31.4885H175.827L177.386 27.5382L173.107 17.2064H174.611V17.2114Z" fill="#0065A4"/>
<path d="M189.496 27.5431V12.6831H197.895V13.9186H190.826V19.1691H197.641V20.4046H190.826V27.5431H189.496Z" fill="#0065A4"/>
<path d="M206.134 17.2114H207.37V25.2167C207.37 26.0238 207.43 26.8407 207.475 27.5431H206.199L206.134 26.0238L206.095 25.9789C205.372 27.2542 204.202 27.852 202.862 27.852C199.494 27.852 199.22 24.868 199.22 23.6774V17.2114H200.456V23.8767C200.456 25.6651 201.492 26.7162 203.175 26.7162C205.213 26.7162 206.134 25.0125 206.134 23.1544V17.2114Z" fill="#0065A4"/>
<path d="M210.787 27.5431H209.557V19.5378C209.557 18.7357 209.492 17.9088 209.452 17.2114H210.727L210.787 18.7307L210.832 18.7706C211.549 17.4953 212.725 16.8975 214.055 16.8975C217.438 16.8975 217.702 19.8815 217.702 21.0771V27.5382H216.466V20.8778C216.466 19.0844 215.435 18.0333 213.751 18.0333C211.714 18.0333 210.782 19.742 210.782 21.5951V27.5431H210.787Z" fill="#0065A4"/>
<path d="M227.012 26.0188L226.972 25.9341C226.126 27.1645 224.875 27.847 223.43 27.847C220.372 27.847 219.191 24.9228 219.191 22.3324C219.191 19.6573 220.372 16.8975 223.43 16.8975C224.815 16.8975 226.255 17.5601 226.972 18.7706L227.012 18.7307V12.6831H228.248V25.2167C228.248 26.0238 228.307 26.8407 228.347 27.5431H227.072L227.012 26.0188ZM223.635 18.0333C221.293 18.0333 220.531 20.2153 220.531 22.188C220.531 24.1059 221.084 26.7162 223.455 26.7162C226.15 26.7162 226.972 24.4745 226.972 22.1282C226.967 20.0309 226.041 18.0333 223.635 18.0333Z" fill="#0065A4"/>
<path d="M234.669 8.68293C236.069 8.69289 237.15 9.78884 237.14 11.1438C237.13 12.5287 236.039 13.5948 234.619 13.5848C233.219 13.5748 232.108 12.4938 232.118 11.109C232.128 9.75397 233.254 8.67297 234.654 8.68293H234.669ZM234.639 9.17112C233.568 9.16116 232.756 10.0379 232.746 11.109C232.736 12.1949 233.533 13.0667 234.639 13.0717C235.71 13.0916 236.507 12.2198 236.517 11.1339C236.522 10.0578 235.74 9.1761 234.649 9.16614L234.639 9.17112ZM234.24 12.3892L233.673 12.3842L233.688 9.95323C233.912 9.91338 234.226 9.86854 234.629 9.87352C235.087 9.87851 235.297 9.95323 235.476 10.0728C235.61 10.1774 235.71 10.3717 235.71 10.5959C235.71 10.8798 235.501 11.084 235.202 11.1737V11.2036C235.441 11.2783 235.576 11.4726 235.645 11.8014C235.72 12.175 235.765 12.3245 235.82 12.3992L235.207 12.3942C235.132 12.3045 235.092 12.0953 235.018 11.8114C234.978 11.5423 234.828 11.4228 234.514 11.4178L234.245 11.4128L234.24 12.3892ZM234.265 11.0193H234.534C234.848 11.0193 235.102 10.9197 235.102 10.6656C235.107 10.4414 234.943 10.292 234.584 10.287C234.435 10.287 234.335 10.297 234.27 10.3169L234.265 11.0193Z" fill="#0065A4"/>
<path d="M26.6189 32.3303C24.3922 32.2605 23.0272 31.0401 22.9675 31.0002C22.0807 30.2032 21.2837 29.3015 20.6012 28.3251L20.5763 28.2853C20.5763 28.2853 20.5663 28.2753 20.5663 28.2703L20.4019 28.0212L20.4069 28.0163C18.7331 25.4806 17.8414 22.5465 17.8414 19.4978C17.8414 16.4491 18.7281 13.5149 20.4019 10.9843C20.397 10.9793 20.397 10.9743 20.392 10.9693C20.2326 10.7501 20.0682 10.5359 19.8988 10.3217C19.8938 10.3167 19.8888 10.3068 19.8789 10.3018C19.7145 10.0976 19.5401 9.89331 19.3608 9.69903C19.306 9.63926 19.2462 9.57948 19.1914 9.5197C19.0569 9.38021 18.9274 9.23575 18.7879 9.10125C18.5887 8.90198 18.3794 8.71268 18.1652 8.52837C17.7667 8.23943 16.7305 7.61176 15.3008 7.72633C15.0966 7.74128 14.8874 7.77117 14.6731 7.816C14.5038 7.84589 14.3294 7.90069 14.16 7.95549C14.1202 7.97043 14.0803 7.97541 14.0405 7.99036C13.8711 8.05014 13.6968 8.12984 13.5224 8.20456C13.4826 8.22449 13.4377 8.23944 13.3979 8.25438C13.2235 8.33907 13.0442 8.4387 12.8698 8.54331C12.83 8.56324 12.7951 8.58316 12.7552 8.60807C12.5809 8.71268 12.4065 8.83722 12.2372 8.96176C12.1923 8.99165 12.1525 9.01656 12.1076 9.04645C11.9432 9.17099 11.7739 9.31047 11.6095 9.44996C11.5597 9.48981 11.5099 9.52966 11.46 9.56951C11.2956 9.709 11.1362 9.86343 10.9718 10.0228C10.917 10.0727 10.8622 10.1175 10.8075 10.1723C10.658 10.3167 10.5135 10.4762 10.3691 10.6356C10.3043 10.7103 10.2346 10.7751 10.1698 10.8498C8.32663 13.3605 7.35522 16.3444 7.35522 19.4878C7.35522 25.1419 10.6082 30.2928 15.6396 32.5993C17.1988 33.3166 18.8477 33.7251 20.5414 33.8148L20.6909 33.8198H20.8005H20.8752L21.2289 33.8297C22.3846 33.8248 23.5403 33.6703 24.6612 33.3714C25.4034 33.1722 26.1308 32.9082 26.8232 32.5943C27.0225 32.5046 27.2167 32.3951 27.416 32.2954C27.3064 32.3054 27.1918 32.3153 27.0822 32.3153C26.9178 32.3353 26.7684 32.3353 26.6189 32.3303Z" fill="#74CBC8"/>
<path d="M36.5964 19.4879C36.5964 13.4652 33.0694 7.9556 27.6146 5.44987C25.6021 4.52828 23.455 4.05503 21.2282 4.05005C21.2233 4.05005 20.765 4.06001 20.765 4.06001H20.7251C20.7301 4.06001 20.6454 4.06001 20.6454 4.06001L20.4262 4.06499C19.6192 4.11481 18.7972 4.22939 17.9952 4.39876C16.9092 4.63289 15.8481 4.98658 14.8419 5.44987C12.4956 6.52589 10.4382 8.19471 8.89388 10.282L8.88392 10.292L8.87396 10.3119C6.90125 12.987 5.86011 16.1553 5.86011 19.4879C5.86011 25.5106 9.38706 31.0203 14.8469 33.521C16.6103 34.333 18.4934 34.7963 20.4312 34.9009L20.6404 34.9109H20.7301L20.8048 34.9158L21.2233 34.9258C22.5633 34.9208 23.8884 34.7465 25.1736 34.4027C26.0155 34.1786 26.8375 33.8847 27.6146 33.526C28.3668 33.1823 29.1041 32.7688 29.8065 32.2955C31.2163 31.3191 32.4766 30.1136 33.4729 28.7885C33.4779 28.7885 33.4829 28.7885 33.4829 28.7885L33.6274 28.5843L33.6174 28.5793C34.2102 27.6428 36.5964 23.6276 36.5964 19.4879ZM20.8745 33.8249H20.7998H20.6902L20.5408 33.8199C18.8471 33.7302 17.1982 33.3217 15.6389 32.6044C10.6075 30.2929 7.35458 25.147 7.35458 19.4879C7.35458 16.3446 8.33096 13.3556 10.1692 10.8499C10.2339 10.7752 10.3037 10.7054 10.3684 10.6357C10.5129 10.4763 10.6574 10.3169 10.8068 10.1724C10.8616 10.1176 10.9164 10.0728 10.9712 10.0229C11.1306 9.86852 11.295 9.70911 11.4594 9.56962C11.5042 9.52977 11.559 9.48992 11.6088 9.45007C11.7732 9.31058 11.9426 9.1711 12.107 9.04656C12.1468 9.01667 12.1917 8.99176 12.2365 8.96187C12.4109 8.83733 12.5852 8.71778 12.7546 8.60818C12.7944 8.58327 12.8293 8.56833 12.8692 8.54342C13.0435 8.43881 13.2229 8.33918 13.3972 8.25449C13.4371 8.23457 13.4819 8.2246 13.5218 8.20468C13.6961 8.12497 13.8655 8.05025 14.0398 7.99047C14.0797 7.97552 14.1195 7.97054 14.1594 7.9556C14.3288 7.9008 14.5031 7.846 14.6725 7.80615C14.8817 7.76132 15.091 7.73143 15.3002 7.71648C16.7299 7.60191 17.7661 8.22958 18.1646 8.51851C18.3788 8.70283 18.583 8.89213 18.7873 9.09139C18.9268 9.2259 19.0563 9.36538 19.1908 9.50985C19.2456 9.56962 19.3054 9.6294 19.3602 9.68918C19.5395 9.88845 19.7089 10.0877 19.8782 10.292C19.8832 10.2969 19.8932 10.3069 19.8982 10.3119C20.0675 10.5261 20.2319 10.7353 20.3913 10.9595C20.3963 10.9645 20.3963 10.9694 20.4013 10.9744C18.7275 13.5051 17.8408 16.4392 17.8408 19.4879C17.8408 22.5366 18.7325 25.4708 20.4063 28.0064L20.4013 28.0114L20.5657 28.2605L20.5757 28.2754L20.6006 28.3153C21.283 29.2917 22.0801 30.1933 22.9668 30.9904C23.0266 31.0352 24.3915 32.2507 26.6183 32.3204C26.7677 32.3254 26.9172 32.3254 27.0766 32.3204C27.1862 32.3155 27.3008 32.3055 27.4104 32.3005C27.2161 32.4051 27.0168 32.5097 26.8176 32.5994C26.1301 32.9182 25.4028 33.1773 24.6556 33.3765C23.5347 33.6754 22.379 33.8299 21.2233 33.8348L20.8745 33.8249ZM23.1262 19.4879C23.1262 22.0435 22.4687 24.5093 21.2282 26.6963C19.9878 24.5093 19.3303 22.0435 19.3303 19.4879C19.3303 16.9324 19.9878 14.4665 21.2282 12.2746C22.4736 14.4665 23.1262 16.9324 23.1262 19.4879Z" fill="#0065A4"/>
<path d="M43.4162 44.3409H42.5693V36.7589H46.0863V37.551H43.4112V39.8525H46.0863V40.6445H43.4162V44.3409Z" fill="#0065A4"/>
<path d="M50.3904 44.3409V36.7589H51.2373V44.3409H50.3904Z" fill="#0065A4"/>
<path d="M59.2825 44.4903C57.0906 44.4903 55.4417 42.8514 55.4417 40.5499C55.4417 38.2882 57.0806 36.6095 59.2426 36.6095C60.6524 36.6095 61.7185 37.1425 62.4109 38.1587L61.7783 38.6619C61.2452 37.8648 60.3685 37.4065 59.2875 37.4065C57.5389 37.4065 56.2935 38.7764 56.2935 40.6047C56.2935 42.3333 57.5788 43.7032 59.2875 43.7032C60.8367 43.7032 61.9426 42.6272 62.0423 41.2921H59.6611V40.51H62.9589C62.9589 42.7816 61.6836 44.4903 59.2825 44.4903Z" fill="#0065A4"/>
<path d="M71.8809 44.3409V40.6595H67.9604V44.3409H67.1135V36.7589H67.9604V39.8674H71.8809V36.7589H72.7277V44.3409H71.8809Z" fill="#0065A4"/>
<path d="M79.3084 37.5261V44.3409H78.4665V37.5261H76.6781V36.7639H81.1017V37.5261H79.3084Z" fill="#0065A4"/>
<path d="M84.8429 44.3409V36.7589H85.6898V44.3409H84.8429Z" fill="#0065A4"/>
<path d="M91.1546 38.5822V44.3409H90.3077V36.5497L96.181 42.5126V36.7589H97.0278V44.5501L91.1546 38.5822Z" fill="#0065A4"/>
<path d="M105.073 44.4903C102.881 44.4903 101.232 42.8514 101.232 40.5499C101.232 38.2882 102.871 36.6095 105.033 36.6095C106.438 36.6095 107.504 37.1425 108.201 38.1587L107.569 38.6619C107.036 37.8648 106.164 37.4065 105.078 37.4065C103.33 37.4065 102.079 38.7764 102.079 40.6047C102.079 42.3333 103.364 43.7032 105.078 43.7032C106.627 43.7032 107.733 42.6272 107.833 41.2921H105.462V40.51H108.759C108.754 42.7816 107.479 44.4903 105.073 44.4903Z" fill="#0065A4"/>
<path d="M122.568 44.4903C120.327 44.4903 118.598 42.7617 118.598 40.5499C118.598 38.3082 120.307 36.6095 122.568 36.6095C124.83 36.6095 126.539 38.3082 126.539 40.5499C126.544 42.7717 124.8 44.4903 122.568 44.4903ZM122.568 37.4065C120.337 37.4065 119.45 39.2248 119.45 40.5549C119.45 42.2934 120.75 43.7032 122.568 43.7032C124.367 43.7032 125.697 42.2984 125.697 40.5549C125.697 38.8014 124.372 37.4065 122.568 37.4065Z" fill="#0065A4"/>
<path d="M131.595 38.5822V44.3409H130.753V36.5497L136.626 42.5126V36.7589H137.468V44.5501L131.595 38.5822Z" fill="#0065A4"/>
<path d="M153.041 44.3409L152.054 42.0493H148.906L147.929 44.3409H146.993L150.48 36.5497L153.967 44.3409H153.041ZM150.485 38.3978L149.23 41.322H151.745L150.485 38.3978Z" fill="#0065A4"/>
<path d="M157.843 44.3409V36.7589H158.69V43.5687H160.712V44.3409H157.843Z" fill="#0065A4"/>
<path d="M164.623 44.3409V36.7589H165.465V43.5687H167.487V44.3409H164.623Z" fill="#0065A4"/>
<path d="M177.859 44.3409H177.017V36.7589H180.534V37.551H177.859V39.8525H180.534V40.6445H177.859V44.3409Z" fill="#0065A4"/>
<path d="M188.255 44.3409L185.934 40.7591H185.685V44.3409H184.838V36.7589H186.417C188.235 36.7589 188.898 37.6656 188.898 38.8013C188.898 39.9571 188.156 40.6993 186.85 40.7342L189.281 44.3409H188.255ZM186.332 37.556H185.68V40.0368H186.332C187.568 40.0368 188.051 39.6532 188.051 38.8312C188.051 37.9794 187.548 37.556 186.332 37.556Z" fill="#0065A4"/>
<path d="M196.654 44.4903C194.412 44.4903 192.684 42.7617 192.684 40.5499C192.684 38.3082 194.393 36.6095 196.654 36.6095C198.916 36.6095 200.624 38.3082 200.624 40.5499C200.624 42.7717 198.886 44.4903 196.654 44.4903ZM196.654 37.4065C194.422 37.4065 193.536 39.2248 193.536 40.5549C193.536 42.2934 194.836 43.7032 196.654 43.7032C198.453 43.7032 199.783 42.2984 199.783 40.5549C199.783 38.8014 198.453 37.4065 196.654 37.4065Z" fill="#0065A4"/>
<path d="M205.676 38.5822V44.3409H204.834V36.5497L210.707 42.5126V36.7589H211.549V44.5501L205.676 38.5822Z" fill="#0065A4"/>
<path d="M218.18 37.5261V44.3409H217.338V37.5261H215.549V36.7639H219.973V37.5261H218.18Z" fill="#0065A4"/>
<path d="M225.393 44.4903C224.397 44.4903 223.604 44.017 223.261 43.1951L223.863 42.682C224.108 43.3445 224.73 43.6982 225.423 43.6982C226.309 43.6982 226.892 43.2349 226.892 42.3532C226.892 41.7305 226.568 41.2573 225.323 40.6445C223.933 39.9621 223.525 39.4191 223.525 38.4825C223.525 37.3866 224.327 36.6144 225.607 36.6144C226.369 36.6144 226.942 36.9183 227.336 37.5111L226.763 38.0442C226.529 37.6307 226.08 37.4115 225.567 37.4115C224.805 37.4115 224.372 37.8349 224.372 38.4477C224.372 39.0903 224.735 39.4041 225.577 39.8574C226.773 40.5001 227.739 41.0032 227.739 42.3283C227.734 43.6584 226.847 44.4903 225.393 44.4903Z" fill="#0065A4"/>
</svg>
