<svg width="263" height="46" viewBox="0 0 263 46" fill="none" xmlns="http://www.w3.org/2000/svg">
<path d="M72.932 7.49048C76.7621 7.49048 79.7526 8.69885 81.9034 11.1156C84.0542 13.5323 85.1296 16.8686 85.1296 21.1244C85.1296 24.517 84.4426 27.3379 83.0685 29.5869C81.763 31.7782 79.6894 33.4057 77.2507 34.1532L83.5971 40.7137H79.0956L73.8987 34.7328L72.8947 34.7701C68.965 34.7701 65.9346 33.5768 63.8034 31.1902C61.6722 28.8036 60.6053 25.4359 60.6027 21.0871C60.6027 16.7736 61.6729 13.4302 63.8132 11.0566C65.9536 8.68313 68.9932 7.49441 72.932 7.49048ZM256.378 8.95624L255.413 11.6382C253.21 10.7213 251.07 10.2628 248.992 10.2628C247.351 10.2628 246.069 10.6132 245.145 11.314C244.222 12.0148 243.759 12.9874 243.758 14.2318C243.758 15.1487 243.928 15.9006 244.269 16.4874C244.609 17.0743 245.184 17.612 245.992 18.1005C246.802 18.5891 248.039 19.1301 249.704 19.7235C252.501 20.7138 254.426 21.7767 255.476 22.9124C256.527 24.0481 257.052 25.5296 257.052 27.3568C257.052 29.6884 256.201 31.5066 254.498 32.8112C252.795 34.1159 250.484 34.7708 247.566 34.776C244.405 34.776 241.973 34.3713 240.27 33.5618V30.5831C241.424 31.0606 242.622 31.4245 243.846 31.6696C245.106 31.9313 246.389 32.063 247.676 32.0626C249.743 32.0626 251.299 31.6696 252.344 30.8837C253.39 30.0978 253.914 29.0139 253.916 27.6319C253.916 26.715 253.731 25.9631 253.36 25.3763C252.989 24.7895 252.37 24.2485 251.501 23.7534C250.63 23.2582 249.308 22.6963 247.534 22.0675C245.053 21.1873 243.281 20.1394 242.218 18.9238C241.154 17.7082 240.622 16.1318 240.622 14.1945C240.622 12.1537 241.394 10.5288 242.939 9.31973C244.483 8.11071 246.525 7.50707 249.065 7.50816C251.577 7.48062 254.067 7.97367 256.378 8.95624ZM98.3883 7.91292V25.2034C98.3883 27.4145 98.9961 29.1114 100.212 30.2943C101.427 31.4771 103.215 32.0665 105.574 32.0626C107.821 32.0626 109.554 31.4679 110.771 30.2785C111.988 29.0892 112.595 27.3876 112.594 25.1739V7.91292H115.694V25.056C115.694 28.0753 114.778 30.4495 112.944 32.1785C111.11 33.9076 108.584 34.7715 105.367 34.7701C102.157 34.7701 99.6733 33.8997 97.9167 32.1589C96.1602 30.418 95.2839 28.0242 95.2878 24.9774V7.91292H98.3883ZM213.158 7.91292V25.2034C213.158 27.4145 213.766 29.1114 214.981 30.2943C216.197 31.4771 217.984 32.0665 220.343 32.0626C222.592 32.0626 224.325 31.4679 225.542 30.2785C226.759 29.0892 227.367 27.3824 227.365 25.1582V7.91292H230.466V25.056C230.466 28.0753 229.549 30.4495 227.715 32.1785C225.881 33.9076 223.359 34.7715 220.147 34.7701C216.937 34.7701 214.454 33.8997 212.696 32.1589C210.938 30.418 210.059 28.0242 210.057 24.9774V7.91292H213.158ZM136.718 7.80485L147.204 34.4086H143.996L140.675 25.9795H129.989L126.705 34.4086H123.562L134.111 7.80485H136.718ZM162.668 7.91292C165.942 7.91292 168.358 8.53511 169.916 9.7795C171.473 11.0239 172.255 12.8964 172.26 15.3969C172.26 18.8996 170.473 21.2678 166.898 22.5018L174.136 34.4086H170.472L164.015 23.3918L158.455 23.3899V34.4086H155.353V7.91292H162.668ZM201.783 7.90899L191.059 19.4209L202.184 34.4086H198.536L188.816 21.5586L186.025 24.0225V34.4086H182.925V7.91292H186.025V21.0478L198.117 7.90899H201.783ZM72.932 10.2511C69.9769 10.2511 67.7304 11.1785 66.1926 13.0333C64.6548 14.8881 63.8859 17.5851 63.8859 21.1244H63.882C63.882 24.7122 64.6509 27.4335 66.1887 29.2883C67.7265 31.1431 69.9605 32.0698 72.8907 32.0685C75.8458 32.0685 78.0772 31.1444 79.5849 29.2961C81.0926 27.4479 81.8464 24.724 81.8464 21.1244C81.8464 17.5602 81.0952 14.8573 79.5927 13.0156C78.0903 11.1739 75.8701 10.2524 72.932 10.2511ZM135.366 11.1745C135.059 12.4705 134.675 13.7473 134.217 14.9981L131.073 23.2071L139.709 23.2091L136.608 14.9981C136.206 13.9607 135.792 12.6861 135.366 11.1745ZM162.485 10.6126H158.455V20.7432H162.703C164.892 20.7432 166.497 20.311 167.519 19.4465C168.54 18.5819 169.051 17.2865 169.049 15.56C169.049 13.8087 168.53 12.5466 167.491 11.7738C166.453 11.001 164.784 10.6139 162.485 10.6126Z" fill="#091313"/>
<path d="M37.287 3.75714C40.7235 3.76901 43.5058 6.55306 43.5155 9.98957V35.0961C43.5058 38.5342 40.7211 41.3189 37.2831 41.3286H33.5499L31.8385 37.173H37.287C38.4278 37.1581 39.349 36.2369 39.3638 35.0961V9.98957C39.349 8.84877 38.4278 7.92757 37.287 7.91275H12.1804C11.0396 7.92757 10.1184 8.84877 10.1036 9.98957V35.0961C10.1184 36.2369 11.0396 37.1581 12.1804 37.173H21.368L24.7337 30.0564L29.3746 41.3286H12.1804C8.74238 41.3189 5.95771 38.5342 5.948 35.0961V9.98957C5.95771 6.55153 8.74238 3.76685 12.1804 3.75714H37.287ZM30.8325 24.2621V30.9405L25.0481 27.6023L30.8325 24.2621ZM18.6349 17.5836V24.2621L12.8504 20.9219L18.6349 17.5836ZM30.5182 10.359V17.0374L24.7337 13.6972L30.5182 10.359Z" fill="#4695EB"/>
<path d="M18.6357 24.2619L24.4201 27.6021L18.6357 30.9403V24.2619ZM30.8333 17.5834L36.6178 20.9217L30.8333 24.2619V17.5834ZM18.9501 10.3588L24.7345 13.697L18.9501 17.0372V10.3588Z" fill="#FF004A"/>
<path d="M18.6357 17.5836L24.4201 20.9218V27.6022L18.6357 24.262V17.5836ZM30.8333 17.5836V24.262L25.0489 27.6022V20.9218L30.8333 17.5836ZM24.7345 13.6971L30.519 17.0374L24.7345 20.3776L18.9501 17.0374L24.7345 13.6971Z" fill="#091313"/>
</svg>
