<svg  viewBox="95 25 150 32" fill="none" xmlns="http://www.w3.org/2000/svg"><defs>
<linearGradient id="paint0_linear_0_304" x1="70.904" y1="38.0998" x2="46.884" y2="56.8543" gradientUnits="userSpaceOnUse">
<stop offset="0.18" stop-color="#0052CC"/>
<stop offset="1" stop-color="#2684FF"/>
</linearGradient>
<linearGradient id="paint1_linear_0_304" x1="109.726" y1="40.0726" x2="102.777" y2="45.4985" gradientUnits="userSpaceOnUse">
<stop offset="0.18" stop-color="#0052CC"/>
<stop offset="1" stop-color="#2684FF"/>
</linearGradient>
</defs><path d="M136.384 45.6149C136.743 45.6042 137.099 45.5577 137.448 45.476V47.1114C137.077 47.2175 136.692 47.2704 136.306 47.2682C134.196 47.2682 133.17 46.0271 133.17 44.1924V38.9883H131.572V37.4201H133.17V35.3232H134.816V37.4134H137.437V38.9816H134.816V44.1543C134.816 45.0212 135.329 45.6149 136.384 45.6149Z" fill="#253858"/><path d="M144.438 47.4654C142.999 47.4654 141.895 46.8158 141.301 45.5344V47.2683H139.605V33.2937H141.313V39.1855C141.944 37.8839 143.127 37.2141 144.644 37.2141C147.265 37.2141 148.587 39.4409 148.587 42.3398C148.578 45.1199 147.198 47.4654 144.438 47.4654ZM144.18 38.7912C142.657 38.7912 141.313 39.759 141.313 41.9455V42.7341C141.313 44.9228 142.554 45.8883 144.001 45.8883C145.914 45.8883 146.9 44.6271 146.9 42.3398C146.882 39.9741 145.936 38.7912 144.18 38.7912Z" fill="#253858"/><path d="M150.352 37.4114H152.047V43.3749C152.047 45.1492 152.758 45.9377 154.373 45.9377C155.941 45.9377 157.034 44.8938 157.034 42.9022V37.4114H158.73V47.2684H157.034V45.6532C156.732 46.2128 156.282 46.6783 155.732 46.9985C155.183 47.3186 154.556 47.481 153.92 47.4678C151.653 47.4678 150.352 45.8997 150.352 43.189V37.4114Z" fill="#253858"/><path d="M168.252 47.013C167.661 47.3289 166.753 47.4611 165.846 47.4611C162.338 47.4611 160.693 45.3328 160.693 42.3085C160.693 39.3313 162.329 37.203 165.846 37.203C166.656 37.18 167.461 37.3465 168.196 37.6892V39.2573C167.496 38.9298 166.729 38.7703 165.956 38.7914C163.393 38.7914 162.349 40.4088 162.349 42.3197C162.349 44.2306 163.422 45.8391 166.005 45.8391C166.767 45.8593 167.527 45.7393 168.246 45.4852L168.252 47.013Z" fill="#253858"/><path d="M170.184 47.2683V33.2937H171.879V42.0307L176.118 37.418H178.327L173.692 42.2547L178.522 47.2683H176.214L171.877 42.6556V47.2683H170.184Z" fill="#253858"/><path d="M184.14 47.4653C180.453 47.4653 178.838 45.3371 178.838 42.3127C178.838 39.3355 180.493 37.2073 183.491 37.2073C186.526 37.2073 187.747 39.3176 187.747 42.3127V43.0812H180.552C180.789 44.7569 181.873 45.8412 184.199 45.8412C185.222 45.8402 186.236 45.6597 187.196 45.308V46.8761C186.388 47.3085 185.146 47.4653 184.14 47.4653ZM180.533 41.6407H186.033C185.935 39.8082 185.106 38.762 183.412 38.762C181.616 38.753 180.711 39.9157 180.533 41.6317V41.6407Z" fill="#253858"/><path d="M193.662 45.6149C194.02 45.6042 194.377 45.5577 194.726 45.476V47.1114C194.354 47.2175 193.969 47.2704 193.583 47.2682C191.473 47.2682 190.446 46.0271 190.446 44.1924V38.9883H188.85V37.4201H190.446V35.3232H192.102V37.4134H194.723V38.9816H192.102V44.1543C192.104 45.0212 192.613 45.6149 193.662 45.6149Z" fill="#253858"/></svg>