<svg width="250" height="82" viewBox="0 0 250 82" fill="none" xmlns="http://www.w3.org/2000/svg">
<path d="M239.042 0V0.5H244C247.038 0.5 249.5 2.96243 249.5 6V10.667H250V15.333H249.5V24.667H250V29.333H249.5V38.667H250V43.333H249.5V52.667H250V57.333H249.5V66.667H250V71.333H249.5V76C249.5 79.0376 247.038 81.5 244 81.5H239.042V82H234.083V81.5H224.167V82H219.208V81.5H209.292V82H204.333V81.5H194.417V82H189.458V81.5H179.542V82H174.583V81.5H164.667V82H159.708V81.5H149.792V82H144.833V81.5H134.917V82H129.958V81.5H120.042V82H115.083V81.5H105.167V82H100.208V81.5H90.292V82H85.333V81.5H75.417V82H70.458V81.5H60.542V82H55.583V81.5H45.667V82H40.708V81.5H30.792V82H25.833V81.5H15.917V82H10.958V81.5H6C2.96243 81.5 0.5 79.0376 0.5 76V71.333H0V66.667H0.5V57.333H0V52.667H0.5V43.333H0V38.667H0.5V29.333H0V24.667H0.5V15.333H0V10.667H0.5V6C0.5 2.96243 2.96243 0.5 6 0.5H10.958V0H15.917V0.5H25.833V0H30.792V0.5H40.708V0H45.667V0.5H55.583V0H60.542V0.5H70.458V0H75.417V0.5H85.333V0H90.292V0.5H100.208V0H105.167V0.5H115.083V0H120.042V0.5H129.958V0H134.917V0.5H144.833V0H149.792V0.5H159.708V0H164.667V0.5H174.583V0H179.542V0.5H189.458V0H194.417V0.5H204.333V0H209.292V0.5H219.208V0H224.167V0.5H234.083V0H239.042Z" stroke="#722ED1" stroke-dasharray="10 5"/>
<path d="M22.887 19.5075C22.661 19.5045 22.4371 19.5511 22.231 19.644C22.0249 19.7368 21.8416 19.8736 21.6941 20.0448C21.5465 20.216 21.4381 20.4174 21.3767 20.635C21.3152 20.8525 21.3021 21.0808 21.3383 21.3039L27.9125 61.2135C27.9944 61.702 28.2458 62.1459 28.6225 62.4674C28.9992 62.7887 29.4771 62.9672 29.9723 62.9713H61.5113C61.8824 62.9761 62.243 62.8474 62.5274 62.6087C62.8115 62.3698 63.0007 62.037 63.06 61.6705L69.6496 21.3194C69.6859 21.0963 69.6726 20.868 69.6113 20.6505C69.5498 20.4329 69.4415 20.2315 69.2939 20.0603C69.1463 19.8891 68.963 19.7523 68.757 19.6595C68.5509 19.5666 68.327 19.52 68.1009 19.5229L22.887 19.5075ZM50.5698 48.3518H40.5033L37.7776 34.1193H53.0089L50.5698 48.3518Z" fill="#2684FF"/>
<path d="M67.5433 34.1196H53.009L50.5699 48.3521H40.5033L28.6172 62.4682C28.9939 62.7941 29.4743 62.9752 29.9723 62.9793H61.519C61.8903 62.9841 62.2507 62.8554 62.5351 62.6167C62.8192 62.3778 63.0083 62.045 63.0677 61.6785L67.5433 34.1196Z" fill="url(#paint0_linear_0_304)"/>
<path d="M95.8347 34.6939C95.7693 34.693 95.7045 34.7065 95.6449 34.7334C95.5853 34.7602 95.5322 34.7998 95.4896 34.8494C95.4469 34.8989 95.4155 34.9572 95.3977 35.0201C95.38 35.083 95.3762 35.1491 95.3866 35.2136L97.2886 46.7598C97.3123 46.9011 97.385 47.0295 97.494 47.1225C97.603 47.2155 97.7412 47.2672 97.8845 47.2684H107.009C107.116 47.2698 107.221 47.2325 107.303 47.1634C107.385 47.0943 107.44 46.998 107.457 46.892L109.363 35.2181C109.374 35.1536 109.37 35.0875 109.352 35.0246C109.335 34.9616 109.303 34.9034 109.261 34.8538C109.218 34.8043 109.165 34.7647 109.105 34.7379C109.046 34.711 108.981 34.6975 108.915 34.6984L95.8347 34.6939ZM103.844 43.0387H100.931L100.143 38.9212H104.549L103.844 43.0387Z" fill="#2684FF"/>
<path d="M108.754 38.9211H104.549L103.843 43.0387H100.931L97.4922 47.1227C97.6012 47.2169 97.7401 47.2693 97.8842 47.2705H107.011C107.118 47.2719 107.223 47.2346 107.305 47.1656C107.387 47.0965 107.442 47.0002 107.459 46.8941L108.754 38.9211Z" fill="url(#paint1_linear_0_304)"/>
<path d="M121.568 34.3176C124.209 34.3176 125.491 35.6192 125.491 37.7094C125.491 39.2775 124.781 40.2319 123.322 40.588C125.235 40.9039 126.181 41.9479 126.181 43.7826C126.181 45.8526 124.781 47.2729 121.884 47.2729H116.541V34.3176H121.568ZM118.315 36.0135V39.8756H121.331C123.006 39.8756 123.696 39.1073 123.696 37.8594C123.696 36.6116 122.948 36.0068 121.331 36.0068L118.315 36.0135ZM118.315 41.455V45.4875H121.942C123.638 45.4875 124.406 44.8759 124.406 43.5743C124.406 42.1943 123.676 41.4461 121.904 41.4461L118.315 41.455Z" fill="#253858"/>
<path d="M129.08 33.6276C129.238 33.6163 129.397 33.6391 129.546 33.6945C129.695 33.75 129.83 33.8367 129.942 33.9489C130.054 34.0611 130.141 34.1961 130.196 34.3447C130.252 34.4934 130.274 34.6522 130.263 34.8104C130.263 35.1241 130.138 35.425 129.917 35.6468C129.695 35.8687 129.394 35.9933 129.08 35.9933C128.766 35.9933 128.466 35.8687 128.244 35.6468C128.022 35.425 127.897 35.1241 127.897 34.8104C127.886 34.6522 127.909 34.4934 127.964 34.3447C128.02 34.1961 128.106 34.0611 128.219 33.9489C128.331 33.8367 128.466 33.75 128.615 33.6945C128.763 33.6391 128.922 33.6163 129.08 33.6276ZM128.213 37.4113H129.909V47.2684H128.213V37.4113Z" fill="#253858"/>
<path d="M136.384 45.6149C136.743 45.6042 137.099 45.5577 137.448 45.476V47.1114C137.077 47.2175 136.692 47.2704 136.306 47.2682C134.196 47.2682 133.17 46.0271 133.17 44.1924V38.9883H131.572V37.4201H133.17V35.3232H134.816V37.4134H137.437V38.9816H134.816V44.1543C134.816 45.0212 135.329 45.6149 136.384 45.6149Z" fill="#253858"/>
<path d="M144.438 47.4654C142.999 47.4654 141.895 46.8158 141.301 45.5344V47.2683H139.605V33.2937H141.313V39.1855C141.944 37.8839 143.127 37.2141 144.644 37.2141C147.265 37.2141 148.587 39.4409 148.587 42.3398C148.578 45.1199 147.198 47.4654 144.438 47.4654ZM144.18 38.7912C142.657 38.7912 141.313 39.759 141.313 41.9455V42.7341C141.313 44.9228 142.554 45.8883 144.001 45.8883C145.914 45.8883 146.9 44.6271 146.9 42.3398C146.882 39.9741 145.936 38.7912 144.18 38.7912Z" fill="#253858"/>
<path d="M150.352 37.4114H152.047V43.3749C152.047 45.1492 152.758 45.9377 154.373 45.9377C155.941 45.9377 157.034 44.8938 157.034 42.9022V37.4114H158.73V47.2684H157.034V45.6532C156.732 46.2128 156.282 46.6783 155.732 46.9985C155.183 47.3186 154.556 47.481 153.92 47.4678C151.653 47.4678 150.352 45.8997 150.352 43.189V37.4114Z" fill="#253858"/>
<path d="M168.252 47.013C167.661 47.3289 166.753 47.4611 165.846 47.4611C162.338 47.4611 160.693 45.3328 160.693 42.3085C160.693 39.3313 162.329 37.203 165.846 37.203C166.656 37.18 167.461 37.3465 168.196 37.6892V39.2573C167.496 38.9298 166.729 38.7703 165.956 38.7914C163.393 38.7914 162.349 40.4088 162.349 42.3197C162.349 44.2306 163.422 45.8391 166.005 45.8391C166.767 45.8593 167.527 45.7393 168.246 45.4852L168.252 47.013Z" fill="#253858"/>
<path d="M170.184 47.2683V33.2937H171.879V42.0307L176.118 37.418H178.327L173.692 42.2547L178.522 47.2683H176.214L171.877 42.6556V47.2683H170.184Z" fill="#253858"/>
<path d="M184.14 47.4653C180.453 47.4653 178.838 45.3371 178.838 42.3127C178.838 39.3355 180.493 37.2073 183.491 37.2073C186.526 37.2073 187.747 39.3176 187.747 42.3127V43.0812H180.552C180.789 44.7569 181.873 45.8412 184.199 45.8412C185.222 45.8402 186.236 45.6597 187.196 45.308V46.8761C186.388 47.3085 185.146 47.4653 184.14 47.4653ZM180.533 41.6407H186.033C185.935 39.8082 185.106 38.762 183.412 38.762C181.616 38.753 180.711 39.9157 180.533 41.6317V41.6407Z" fill="#253858"/>
<path d="M193.662 45.6149C194.02 45.6042 194.377 45.5577 194.726 45.476V47.1114C194.354 47.2175 193.969 47.2704 193.583 47.2682C191.473 47.2682 190.446 46.0271 190.446 44.1924V38.9883H188.85V37.4201H190.446V35.3232H192.102V37.4134H194.723V38.9816H192.102V44.1543C192.104 45.0212 192.613 45.6149 193.662 45.6149Z" fill="#253858"/>
<defs>
<linearGradient id="paint0_linear_0_304" x1="70.904" y1="38.0998" x2="46.884" y2="56.8543" gradientUnits="userSpaceOnUse">
<stop offset="0.18" stop-color="#0052CC"/>
<stop offset="1" stop-color="#2684FF"/>
</linearGradient>
<linearGradient id="paint1_linear_0_304" x1="109.726" y1="40.0726" x2="102.777" y2="45.4985" gradientUnits="userSpaceOnUse">
<stop offset="0.18" stop-color="#0052CC"/>
<stop offset="1" stop-color="#2684FF"/>
</linearGradient>
</defs>
</svg>
