<svg  viewBox="20 16 220 50" fill="none" xmlns="http://www.w3.org/2000/svg"><defs>
<clipPath id="clip0_0_2991">
<rect width="100" height="21.5569" fill="white" transform="translate(115 30)"/>
</clipPath>
</defs><path d="M46.4909 28.6406C46.6941 28.4384 46.9898 28.3466 47.267 28.3466C47.5442 28.3466 47.8398 28.4384 48.0431 28.6406C48.2463 28.8426 48.3387 29.1366 48.3387 29.4122C48.3387 29.7062 48.2463 29.9817 48.0431 30.1839C47.8398 30.3859 47.5442 30.4778 47.267 30.4778C46.9898 30.4778 46.6941 30.3859 46.4909 30.1839C46.2876 29.9817 46.1952 29.6877 46.1952 29.4122C46.1952 29.1366 46.2876 28.8426 46.4909 28.6406ZM52.6996 38.1758C52.6627 37.349 52.4225 36.4672 51.7942 35.8792C51.092 35.2363 50.0757 34.9239 49.1333 34.9239H44.9202C44.4952 34.9239 44.1441 34.6115 44.1441 34.2258C44.1441 33.895 44.3659 33.6378 44.6615 33.546C44.6615 33.546 44.7354 33.5276 44.8093 33.5092C45.567 33.8767 46.417 34.0237 47.267 34.0237C48.5604 34.0237 49.8724 33.6378 50.8333 32.7559C51.7572 31.8924 52.2007 30.6799 52.2007 29.4489C52.2007 28.218 51.7572 27.0054 50.8333 26.1419C50.5561 25.8847 50.2605 25.6826 49.9279 25.4989C50.8148 25.701 51.7387 25.4438 52.3855 24.3598L50.5931 23.0737L49.0963 25.1498C48.505 24.9661 47.8952 24.8742 47.267 24.8742C45.9735 24.8742 44.6615 25.26 43.7006 26.1419C42.7767 27.0054 42.3332 28.218 42.3332 29.4489C42.3332 30.6799 42.7582 31.8924 43.7006 32.7559C43.7745 32.8294 43.8669 32.9029 43.9593 32.9764C43.8669 33.0315 43.793 33.0683 43.793 33.0683C43.4419 33.252 43.0354 33.5643 42.6104 34.0052C42.0191 34.6299 41.4278 35.5669 41.4278 36.7979C41.4278 36.7979 41.3539 39.4435 44.4028 39.4435H46.6202C47.1376 39.4435 47.655 39.7742 47.655 40.2702C47.655 40.454 47.5996 40.6193 47.5072 40.7663H51.7572C52.367 40.0865 52.7181 39.076 52.6996 38.1758Z" fill="#A876F5"/><path d="M57.2639 28.6409C57.4672 28.4387 57.7628 28.3469 58.04 28.3469C58.3172 28.3469 58.6129 28.4387 58.8161 28.6409C59.0193 28.8429 59.1117 29.1369 59.1117 29.4125C59.1117 29.7064 59.0193 29.982 58.8161 30.1842C58.6129 30.3862 58.3172 30.4781 58.04 30.4781C57.7628 30.4781 57.4672 30.3862 57.2639 30.1842C57.0606 29.982 56.9682 29.6881 56.9682 29.4125C56.9498 29.1369 57.0606 28.8429 57.2639 28.6409ZM64.7663 38.1761C64.7293 37.3493 64.4888 36.4675 63.8607 35.8795C63.1583 35.2366 62.1423 34.9242 61.1998 34.9242L56.303 34.8875C55.9889 34.8875 55.7672 34.7037 55.7672 34.4097C55.7672 34.1709 55.878 33.8219 56.1737 33.7667C56.7465 33.9505 57.3748 34.0423 57.9846 34.0423C59.2781 34.0423 60.5901 33.6565 61.5507 32.7746C62.4748 31.9111 62.9182 30.6985 62.9182 29.4676C62.9182 28.2367 62.4748 27.0241 61.5507 26.1606C61.2737 25.9034 60.9781 25.7013 60.6456 25.5176C61.5323 25.7197 62.4564 25.4624 63.1029 24.3785L61.3106 23.0924L59.8139 25.1685C59.2226 24.9848 58.6129 24.8929 57.9846 24.8929C56.691 24.8929 55.3791 25.2787 54.4182 26.1606C53.4943 27.0241 53.0508 28.2367 53.0508 29.4676C53.0508 30.6985 53.4943 31.9111 54.4182 32.7746C54.6954 33.0318 54.991 33.2523 55.3237 33.4177C55.1019 33.583 54.8802 33.7851 54.6584 34.0239C54.0671 34.6486 53.4758 35.5856 53.4758 36.8166C53.4758 36.8166 53.4019 39.4621 56.4508 39.4621H58.6683C59.1857 39.4621 59.703 39.7928 59.703 40.2889C59.703 40.4726 59.6476 40.638 59.5552 40.785H63.8053C64.4518 40.0868 64.8033 39.0763 64.7663 38.1761Z" fill="#A876F5"/><path d="M69.9039 36.8162V32.8478C68.9987 32.958 68.6658 32.315 68.6658 31.6903V22.0265H64.1387V32.4069C64.1387 33.6929 64.3234 34.7769 64.8041 35.4566C65.5246 36.4855 66.504 37.1653 68.4257 37.1653C68.7952 37.1469 69.3867 37.0735 69.9039 36.8162Z" fill="#A876F5"/><path d="M36.4936 32.003C36.2165 32.2786 35.8468 32.3888 35.4773 32.3888C35.1077 32.3888 34.7382 32.2786 34.461 32.003C34.2023 31.7458 34.0729 31.3784 34.0729 30.9926C34.0729 30.6068 34.2023 30.2577 34.461 29.9821C34.7382 29.7065 35.1077 29.5963 35.4773 29.5963C35.8468 29.5963 36.2165 29.7065 36.4936 29.9821C36.7523 30.2393 36.8816 30.6068 36.8816 30.9926C36.8816 31.3784 36.7523 31.7274 36.4936 32.003ZM39.8752 26.6199C38.711 25.4257 37.1034 24.9297 35.5142 24.9297C33.9251 24.9297 32.3175 25.4441 31.1533 26.6199C30.0077 27.7774 29.4902 29.3942 29.4902 31.0477C29.4902 32.7012 30.0261 34.3179 31.1533 35.4754C32.3175 36.6696 33.9251 37.1656 35.5142 37.1656C37.1034 37.1656 38.711 36.6512 39.8752 35.4754C41.0208 34.3179 41.5382 32.7012 41.5382 31.0477C41.5382 29.3942 41.0024 27.7774 39.8752 26.6199Z" fill="#A876F5"/><path d="M27.8267 32.8662C27.0691 32.8662 26.755 32.6273 26.4778 32.2782C26.293 32.0394 26.2006 31.7087 26.2006 31.2678V29.2285H28.7322V25.554H26.2191V22.0265H22.9854V23.3493C22.9854 24.8191 21.8582 25.9949 20.4723 25.9949C20.3615 25.9949 20.2691 25.9949 20.1582 25.9766V29.2285H21.8582V32.4987C21.8582 33.7848 22.0984 34.7769 22.5604 35.4566C23.2811 36.4855 24.0756 37.1653 26.0344 37.1653C27.1615 37.1653 28.1224 36.908 28.7322 36.559V32.7191C28.5105 32.8111 28.1963 32.8662 27.8267 32.8662Z" fill="#A876F5"/><path d="M26.4862 53.7155C26.9479 53.5134 27.3356 53.2194 27.6686 52.852C27.983 52.4845 28.2415 52.062 28.4074 51.566C28.5739 51.0883 28.6665 50.5555 28.6665 49.9676C28.6665 49.398 28.5739 48.8836 28.4074 48.3875C28.2415 47.8915 27.983 47.4689 27.6686 47.1015C27.3543 46.734 26.9479 46.4584 26.4862 46.238C26.0239 46.0359 25.5064 45.9257 24.8968 45.9257C24.3239 45.9257 23.7883 46.0175 23.3447 46.2196C22.8824 46.4217 22.4947 46.6973 22.1622 47.0464C21.8479 47.3955 21.5888 47.818 21.4043 48.314C21.2197 48.8101 21.1457 49.3612 21.1457 49.9492C21.1457 50.5555 21.2378 51.1066 21.4043 51.5843C21.5888 52.0803 21.8292 52.503 22.1622 52.852C22.4761 53.2011 22.8824 53.4767 23.3447 53.6787C23.8064 53.8809 24.3239 53.9727 24.8968 53.9727C25.5064 54.0095 26.0239 53.9176 26.4862 53.7155ZM20.0181 45.0805H21.2197V47.2301C21.367 46.9361 21.5521 46.6422 21.7739 46.3482C21.9957 46.0542 22.2729 45.797 22.6053 45.5766C22.9191 45.3561 23.2894 45.1724 23.7144 45.0437C24.1207 44.9152 24.6011 44.8417 25.1 44.8417C25.8207 44.8417 26.4862 44.9703 27.0771 45.2275C27.6686 45.4847 28.1676 45.8522 28.5926 46.3115C28.9989 46.7708 29.3319 47.3219 29.5532 47.9466C29.775 48.5712 29.8856 49.251 29.8856 49.9859C29.8856 50.7208 29.775 51.4006 29.5532 52.0252C29.3319 52.6499 29.0176 53.2011 28.5926 53.6604C28.1862 54.1197 27.6686 54.4872 27.0771 54.7444C26.4862 55.0016 25.8207 55.1302 25.1 55.1302C24.5824 55.1302 24.1207 55.0567 23.7144 54.9281C23.308 54.7995 22.9378 54.6158 22.6239 54.3953C22.3096 54.1748 22.0324 53.9176 21.7926 53.6236C21.5521 53.3297 21.3489 53.0357 21.2011 52.7418V58.8047H20V45.0805H20.0181Z" fill="#A876F5"/><path d="M38.496 50.2799C37.7385 50.3534 37.2024 50.5739 36.8885 50.9229C36.5742 51.272 36.4082 51.6761 36.4082 52.1355C36.4082 52.705 36.5928 53.146 36.9625 53.4767C37.3316 53.8074 37.8864 53.9727 38.6066 53.9727C39.1614 53.9727 39.6603 53.8809 40.0853 53.6971C40.5103 53.5134 40.88 53.2562 41.1752 52.9439C41.471 52.6315 41.6928 52.2825 41.8407 51.8966C41.9885 51.5108 42.0625 51.1066 42.0625 50.7025V49.8941L38.496 50.2799ZM35.9274 46.2747C36.1119 45.9808 36.371 45.7419 36.6853 45.5215C36.9992 45.301 37.3875 45.1356 37.8311 45.0254C38.2742 44.9152 38.8103 44.8417 39.4385 44.8417C40.7508 44.8417 41.7295 45.1356 42.3582 45.7419C42.9864 46.3482 43.3002 47.2485 43.3002 48.461V54.9097H42.0997V52.7969C41.8034 53.5501 41.3231 54.1197 40.6949 54.5055C40.0481 54.8914 39.3279 55.0934 38.496 55.0934C37.9603 55.0934 37.4795 55.02 37.0545 54.873C36.6481 54.726 36.297 54.5239 36.0199 54.2483C35.7428 53.9911 35.5396 53.6787 35.3917 53.3113C35.2439 52.9439 35.1699 52.5581 35.1699 52.1355C35.1699 51.2168 35.4657 50.5187 36.0752 50.041C36.6667 49.5634 37.4242 49.2694 38.33 49.1775L41.6189 48.8652C41.9513 48.8285 42.1178 48.6815 42.1178 48.461V48.1119C42.1178 47.4506 41.9146 46.9177 41.5082 46.5319C41.1018 46.1461 40.4359 45.944 39.5125 45.944C37.8311 45.944 36.8699 46.5687 36.6114 47.7997L35.5396 47.2301C35.6135 46.8626 35.7428 46.5503 35.9274 46.2747Z" fill="#A876F5"/><path d="M47.8473 45.5031C48.4569 45.0622 49.1957 44.8417 50.0829 44.8417C51.3393 44.8417 52.2819 45.2459 52.8914 46.0359C53.501 46.8259 53.8154 47.8731 53.8154 49.1775V54.9097H52.5776V49.0857C52.5776 48.1119 52.3372 47.3403 51.8569 46.7892C51.3765 46.238 50.7111 45.9624 49.8425 45.9624C49.2143 45.9624 48.6787 46.0726 48.2537 46.3115C47.8287 46.5503 47.4771 46.8626 47.2186 47.2668C46.9601 47.671 46.7755 48.1487 46.6643 48.6631C46.5537 49.1959 46.4984 49.7471 46.4984 50.335V54.873H45.2968V45.0805H46.4611V47.2668C46.7755 46.5319 47.2372 45.944 47.8473 45.5031Z" fill="#A876F5"/><path d="M33.2124 41.1489H31.9746V54.9098H33.2124V41.1489Z" fill="#A876F5"/><g clip-path="url(#clip0_0_2991)">
<path d="M144.823 37.4756C145.052 37.2481 145.385 37.1446 145.697 37.1446C146.009 37.1446 146.342 37.2481 146.57 37.4756C146.799 37.7031 146.903 38.034 146.903 38.3442C146.903 38.6752 146.799 38.9854 146.57 39.213C146.342 39.4404 146.009 39.5439 145.697 39.5439C145.385 39.5439 145.052 39.4404 144.823 39.213C144.594 38.9854 144.49 38.6545 144.49 38.3442C144.49 38.034 144.594 37.7031 144.823 37.4756ZM151.813 48.2098C151.771 47.2791 151.5 46.2864 150.793 45.6245C150.003 44.9007 148.859 44.549 147.798 44.549H143.055C142.576 44.549 142.181 44.1974 142.181 43.7631C142.181 43.3908 142.431 43.1012 142.764 42.9979C142.764 42.9979 142.847 42.9772 142.93 42.9565C143.783 43.3701 144.74 43.5356 145.697 43.5356C147.153 43.5356 148.63 43.1012 149.711 42.1085C150.752 41.1364 151.251 39.7713 151.251 38.3856C151.251 36.9999 150.752 35.6348 149.711 34.6628C149.399 34.3732 149.067 34.1457 148.692 33.9389C149.691 34.1664 150.731 33.8768 151.459 32.6565L149.441 31.2087L147.756 33.5459C147.09 33.3391 146.404 33.2356 145.697 33.2356C144.241 33.2356 142.764 33.67 141.682 34.6628C140.642 35.6348 140.143 36.9999 140.143 38.3856C140.143 39.7713 140.621 41.1364 141.682 42.1085C141.765 42.1912 141.869 42.2739 141.973 42.3567C141.869 42.4187 141.786 42.4601 141.786 42.4601C141.391 42.6669 140.933 43.0185 140.455 43.5149C139.789 44.2181 139.123 45.2729 139.123 46.6587C139.123 46.6587 139.04 49.637 142.472 49.637H144.969C145.551 49.637 146.134 50.0093 146.134 50.5676C146.134 50.7745 146.071 50.9606 145.967 51.1261H150.752C151.438 50.3609 151.833 49.2233 151.813 48.2098Z" fill="#A876F5"/>
<path d="M156.95 37.4759C157.179 37.2484 157.511 37.145 157.823 37.145C158.135 37.145 158.468 37.2484 158.697 37.4759C158.926 37.7034 159.03 38.0343 159.03 38.3445C159.03 38.6755 158.926 38.9857 158.697 39.2133C158.468 39.4407 158.135 39.5442 157.823 39.5442C157.511 39.5442 157.179 39.4407 156.95 39.2133C156.721 38.9857 156.617 38.6548 156.617 38.3445C156.596 38.0343 156.721 37.7034 156.95 37.4759ZM165.396 48.2101C165.354 47.2794 165.083 46.2867 164.376 45.6248C163.585 44.901 162.442 44.5493 161.38 44.5493L155.868 44.508C155.514 44.508 155.265 44.3012 155.265 43.9702C155.265 43.7013 155.39 43.3084 155.722 43.2463C156.367 43.4532 157.075 43.5566 157.761 43.5566C159.217 43.5566 160.694 43.1222 161.776 42.1295C162.816 41.1574 163.315 39.7923 163.315 38.4066C163.315 37.0209 162.816 35.6558 161.776 34.6837C161.464 34.3942 161.131 34.1667 160.757 33.9598C161.755 34.1874 162.795 33.8978 163.523 32.6775L161.505 31.2297L159.82 33.5669C159.155 33.36 158.468 33.2566 157.761 33.2566C156.305 33.2566 154.828 33.691 153.746 34.6837C152.706 35.6558 152.207 37.0209 152.207 38.4066C152.207 39.7923 152.706 41.1574 153.746 42.1295C154.058 42.419 154.391 42.6672 154.765 42.8534C154.516 43.0395 154.266 43.267 154.017 43.5359C153.351 44.2391 152.685 45.2939 152.685 46.6797C152.685 46.6797 152.602 49.6579 156.034 49.6579H158.531C159.113 49.6579 159.696 50.0302 159.696 50.5887C159.696 50.7955 159.633 50.9816 159.529 51.1471H164.314C165.042 50.3612 165.437 49.2236 165.396 48.2101Z" fill="#A876F5"/>
<path d="M171.178 46.6793V42.2118C170.159 42.3359 169.784 41.6121 169.784 40.9088V30.0298H164.688V41.7155C164.688 43.1633 164.895 44.3836 165.437 45.1488C166.248 46.307 167.35 47.0722 169.514 47.0722C169.93 47.0516 170.595 46.9689 171.178 46.6793Z" fill="#A876F5"/>
<path d="M133.568 41.2609C133.256 41.5711 132.84 41.6952 132.424 41.6952C132.007 41.6952 131.591 41.5711 131.279 41.2609C130.988 40.9713 130.843 40.5577 130.843 40.1234C130.843 39.689 130.988 39.2961 131.279 38.9858C131.591 38.6756 132.007 38.5515 132.424 38.5515C132.84 38.5515 133.256 38.6756 133.568 38.9858C133.859 39.2754 134.004 39.689 134.004 40.1234C134.004 40.5577 133.859 40.9507 133.568 41.2609ZM137.374 35.2009C136.064 33.8565 134.254 33.2981 132.465 33.2981C130.676 33.2981 128.866 33.8772 127.556 35.2009C126.266 36.5039 125.684 38.324 125.684 40.1855C125.684 42.0468 126.287 43.8669 127.556 45.1699C128.866 46.5143 130.676 47.0727 132.465 47.0727C134.254 47.0727 136.064 46.4936 137.374 45.1699C138.664 43.8669 139.247 42.0468 139.247 40.1855C139.247 38.324 138.643 36.5039 137.374 35.2009Z" fill="#A876F5"/>
<path d="M183.827 45.0871C184.347 44.8596 184.783 44.5287 185.158 44.1151C185.512 43.7014 185.803 43.2257 185.99 42.6673C186.177 42.1295 186.282 41.5297 186.282 40.8679C186.282 40.2267 186.177 39.6476 185.99 39.0891C185.803 38.5307 185.512 38.055 185.158 37.6414C184.804 37.2277 184.347 36.9175 183.827 36.6693C183.307 36.4418 182.724 36.3177 182.038 36.3177C181.393 36.3177 180.79 36.4211 180.291 36.6486C179.77 36.8761 179.334 37.1863 178.96 37.5793C178.606 37.9723 178.314 38.448 178.106 39.0064C177.898 39.5649 177.815 40.1853 177.815 40.8472C177.815 41.5297 177.919 42.1502 178.106 42.688C178.314 43.2463 178.585 43.7221 178.96 44.1151C179.313 44.508 179.77 44.8183 180.291 45.0457C180.81 45.2733 181.393 45.3766 182.038 45.3766C182.724 45.4181 183.307 45.3146 183.827 45.0871ZM176.546 35.3663H177.898V37.7862C178.064 37.4553 178.273 37.1244 178.522 36.7933C178.772 36.4624 179.084 36.1729 179.458 35.9247C179.812 35.6765 180.228 35.4697 180.707 35.3249C181.164 35.1802 181.705 35.0974 182.267 35.0974C183.078 35.0974 183.827 35.2422 184.492 35.5318C185.158 35.8213 185.72 36.235 186.198 36.752C186.656 37.2691 187.031 37.8896 187.28 38.5928C187.53 39.296 187.654 40.0612 187.654 40.8886C187.654 41.7159 187.53 42.4811 187.28 43.1843C187.031 43.8875 186.677 44.508 186.198 45.0251C185.741 45.5421 185.158 45.9558 184.492 46.2454C183.827 46.5349 183.078 46.6797 182.267 46.6797C181.684 46.6797 181.164 46.5969 180.707 46.4521C180.249 46.3074 179.833 46.1006 179.479 45.8524C179.125 45.6042 178.813 45.3146 178.543 44.9837C178.273 44.6528 178.044 44.3218 177.877 43.9909V50.8162H176.525V35.3663H176.546Z" fill="#A876F5"/>
<path d="M191.397 30.9403H190.004V46.4316H191.397V30.9403Z" fill="#A876F5"/>
<path d="M197.348 41.2194C196.495 41.3022 195.892 41.5504 195.538 41.9433C195.184 42.3363 194.998 42.7913 194.998 43.3084C194.998 43.9496 195.205 44.446 195.621 44.8182C196.037 45.1905 196.662 45.3766 197.472 45.3766C198.097 45.3766 198.659 45.2733 199.137 45.0664C199.615 44.8596 200.032 44.57 200.364 44.2184C200.697 43.8668 200.947 43.4739 201.113 43.0395C201.28 42.6052 201.363 42.1502 201.363 41.6952V40.7851L197.348 41.2194ZM194.456 36.7106C194.664 36.3797 194.956 36.1108 195.31 35.8627C195.663 35.6145 196.1 35.4283 196.599 35.3042C197.098 35.1802 197.702 35.0974 198.409 35.0974C199.886 35.0974 200.988 35.4283 201.696 36.1108C202.403 36.7933 202.756 37.8069 202.756 39.1719V46.4315H201.405V44.053C201.071 44.9009 200.53 45.5421 199.823 45.9765C199.095 46.4108 198.284 46.6383 197.348 46.6383C196.745 46.6383 196.204 46.5556 195.725 46.3901C195.268 46.2247 194.872 45.9971 194.56 45.6869C194.248 45.3974 194.02 45.0457 193.853 44.6321C193.687 44.2184 193.604 43.7841 193.604 43.3084C193.604 42.2742 193.936 41.4883 194.623 40.9506C195.289 40.4129 196.141 40.0819 197.161 39.9785L200.863 39.6269C201.238 39.5856 201.425 39.4201 201.425 39.1719V38.7789C201.425 38.0344 201.196 37.4345 200.739 37.0002C200.281 36.5659 199.532 36.3384 198.492 36.3384C196.599 36.3384 195.517 37.0416 195.226 38.4274L194.02 37.7862C194.103 37.3725 194.248 37.0209 194.456 36.7106Z" fill="#A876F5"/>
<path d="M207.873 35.842C208.559 35.3456 209.391 35.0974 210.39 35.0974C211.804 35.0974 212.865 35.5524 213.552 36.4418C214.238 37.3311 214.592 38.51 214.592 39.9785V46.4315H213.198V39.8751C213.198 38.7789 212.928 37.9102 212.387 37.2898C211.846 36.6693 211.097 36.3591 210.119 36.3591C209.412 36.3591 208.809 36.4832 208.331 36.752C207.852 37.0209 207.456 37.3725 207.165 37.8275C206.874 38.2826 206.667 38.8203 206.541 39.3994C206.417 39.9992 206.355 40.6197 206.355 41.2815V46.3902H205.002V35.3663H206.313V37.8275C206.667 37.0002 207.186 36.3384 207.873 35.842Z" fill="#A876F5"/>
<path d="M123.813 42.2325C122.96 42.2325 122.606 41.9637 122.294 41.5707C122.086 41.3018 121.982 40.9295 121.982 40.4331V38.1374H124.832V34.0008H122.003V30.0298H118.362V31.5189C118.362 33.1735 117.093 34.4972 115.533 34.4972C115.409 34.4972 115.305 34.4972 115.18 34.4766V38.1374H117.093V41.8189C117.093 43.2667 117.364 44.3836 117.884 45.1488C118.695 46.307 119.59 47.0722 121.795 47.0722C123.064 47.0722 124.145 46.7827 124.832 46.3897V42.067C124.582 42.1705 124.229 42.2325 123.813 42.2325Z" fill="#A876F5"/>
</g></svg>