<svg  viewBox="20 16 50 50" fill="none" xmlns="http://www.w3.org/2000/svg"><defs>
<clipPath id="clip0_0_2991">
<rect width="100" height="21.5569" fill="white" transform="translate(115 30)"/>
</clipPath>
</defs><path d="M46.4909 28.6406C46.6941 28.4384 46.9898 28.3466 47.267 28.3466C47.5442 28.3466 47.8398 28.4384 48.0431 28.6406C48.2463 28.8426 48.3387 29.1366 48.3387 29.4122C48.3387 29.7062 48.2463 29.9817 48.0431 30.1839C47.8398 30.3859 47.5442 30.4778 47.267 30.4778C46.9898 30.4778 46.6941 30.3859 46.4909 30.1839C46.2876 29.9817 46.1952 29.6877 46.1952 29.4122C46.1952 29.1366 46.2876 28.8426 46.4909 28.6406ZM52.6996 38.1758C52.6627 37.349 52.4225 36.4672 51.7942 35.8792C51.092 35.2363 50.0757 34.9239 49.1333 34.9239H44.9202C44.4952 34.9239 44.1441 34.6115 44.1441 34.2258C44.1441 33.895 44.3659 33.6378 44.6615 33.546C44.6615 33.546 44.7354 33.5276 44.8093 33.5092C45.567 33.8767 46.417 34.0237 47.267 34.0237C48.5604 34.0237 49.8724 33.6378 50.8333 32.7559C51.7572 31.8924 52.2007 30.6799 52.2007 29.4489C52.2007 28.218 51.7572 27.0054 50.8333 26.1419C50.5561 25.8847 50.2605 25.6826 49.9279 25.4989C50.8148 25.701 51.7387 25.4438 52.3855 24.3598L50.5931 23.0737L49.0963 25.1498C48.505 24.9661 47.8952 24.8742 47.267 24.8742C45.9735 24.8742 44.6615 25.26 43.7006 26.1419C42.7767 27.0054 42.3332 28.218 42.3332 29.4489C42.3332 30.6799 42.7582 31.8924 43.7006 32.7559C43.7745 32.8294 43.8669 32.9029 43.9593 32.9764C43.8669 33.0315 43.793 33.0683 43.793 33.0683C43.4419 33.252 43.0354 33.5643 42.6104 34.0052C42.0191 34.6299 41.4278 35.5669 41.4278 36.7979C41.4278 36.7979 41.3539 39.4435 44.4028 39.4435H46.6202C47.1376 39.4435 47.655 39.7742 47.655 40.2702C47.655 40.454 47.5996 40.6193 47.5072 40.7663H51.7572C52.367 40.0865 52.7181 39.076 52.6996 38.1758Z" fill="#A876F5"/><path d="M57.2639 28.6409C57.4672 28.4387 57.7628 28.3469 58.04 28.3469C58.3172 28.3469 58.6129 28.4387 58.8161 28.6409C59.0193 28.8429 59.1117 29.1369 59.1117 29.4125C59.1117 29.7064 59.0193 29.982 58.8161 30.1842C58.6129 30.3862 58.3172 30.4781 58.04 30.4781C57.7628 30.4781 57.4672 30.3862 57.2639 30.1842C57.0606 29.982 56.9682 29.6881 56.9682 29.4125C56.9498 29.1369 57.0606 28.8429 57.2639 28.6409ZM64.7663 38.1761C64.7293 37.3493 64.4888 36.4675 63.8607 35.8795C63.1583 35.2366 62.1423 34.9242 61.1998 34.9242L56.303 34.8875C55.9889 34.8875 55.7672 34.7037 55.7672 34.4097C55.7672 34.1709 55.878 33.8219 56.1737 33.7667C56.7465 33.9505 57.3748 34.0423 57.9846 34.0423C59.2781 34.0423 60.5901 33.6565 61.5507 32.7746C62.4748 31.9111 62.9182 30.6985 62.9182 29.4676C62.9182 28.2367 62.4748 27.0241 61.5507 26.1606C61.2737 25.9034 60.9781 25.7013 60.6456 25.5176C61.5323 25.7197 62.4564 25.4624 63.1029 24.3785L61.3106 23.0924L59.8139 25.1685C59.2226 24.9848 58.6129 24.8929 57.9846 24.8929C56.691 24.8929 55.3791 25.2787 54.4182 26.1606C53.4943 27.0241 53.0508 28.2367 53.0508 29.4676C53.0508 30.6985 53.4943 31.9111 54.4182 32.7746C54.6954 33.0318 54.991 33.2523 55.3237 33.4177C55.1019 33.583 54.8802 33.7851 54.6584 34.0239C54.0671 34.6486 53.4758 35.5856 53.4758 36.8166C53.4758 36.8166 53.4019 39.4621 56.4508 39.4621H58.6683C59.1857 39.4621 59.703 39.7928 59.703 40.2889C59.703 40.4726 59.6476 40.638 59.5552 40.785H63.8053C64.4518 40.0868 64.8033 39.0763 64.7663 38.1761Z" fill="#A876F5"/><path d="M69.9039 36.8162V32.8478C68.9987 32.958 68.6658 32.315 68.6658 31.6903V22.0265H64.1387V32.4069C64.1387 33.6929 64.3234 34.7769 64.8041 35.4566C65.5246 36.4855 66.504 37.1653 68.4257 37.1653C68.7952 37.1469 69.3867 37.0735 69.9039 36.8162Z" fill="#A876F5"/><path d="M36.4936 32.003C36.2165 32.2786 35.8468 32.3888 35.4773 32.3888C35.1077 32.3888 34.7382 32.2786 34.461 32.003C34.2023 31.7458 34.0729 31.3784 34.0729 30.9926C34.0729 30.6068 34.2023 30.2577 34.461 29.9821C34.7382 29.7065 35.1077 29.5963 35.4773 29.5963C35.8468 29.5963 36.2165 29.7065 36.4936 29.9821C36.7523 30.2393 36.8816 30.6068 36.8816 30.9926C36.8816 31.3784 36.7523 31.7274 36.4936 32.003ZM39.8752 26.6199C38.711 25.4257 37.1034 24.9297 35.5142 24.9297C33.9251 24.9297 32.3175 25.4441 31.1533 26.6199C30.0077 27.7774 29.4902 29.3942 29.4902 31.0477C29.4902 32.7012 30.0261 34.3179 31.1533 35.4754C32.3175 36.6696 33.9251 37.1656 35.5142 37.1656C37.1034 37.1656 38.711 36.6512 39.8752 35.4754C41.0208 34.3179 41.5382 32.7012 41.5382 31.0477C41.5382 29.3942 41.0024 27.7774 39.8752 26.6199Z" fill="#A876F5"/><path d="M27.8267 32.8662C27.0691 32.8662 26.755 32.6273 26.4778 32.2782C26.293 32.0394 26.2006 31.7087 26.2006 31.2678V29.2285H28.7322V25.554H26.2191V22.0265H22.9854V23.3493C22.9854 24.8191 21.8582 25.9949 20.4723 25.9949C20.3615 25.9949 20.2691 25.9949 20.1582 25.9766V29.2285H21.8582V32.4987C21.8582 33.7848 22.0984 34.7769 22.5604 35.4566C23.2811 36.4855 24.0756 37.1653 26.0344 37.1653C27.1615 37.1653 28.1224 36.908 28.7322 36.559V32.7191C28.5105 32.8111 28.1963 32.8662 27.8267 32.8662Z" fill="#A876F5"/><path d="M26.4862 53.7155C26.9479 53.5134 27.3356 53.2194 27.6686 52.852C27.983 52.4845 28.2415 52.062 28.4074 51.566C28.5739 51.0883 28.6665 50.5555 28.6665 49.9676C28.6665 49.398 28.5739 48.8836 28.4074 48.3875C28.2415 47.8915 27.983 47.4689 27.6686 47.1015C27.3543 46.734 26.9479 46.4584 26.4862 46.238C26.0239 46.0359 25.5064 45.9257 24.8968 45.9257C24.3239 45.9257 23.7883 46.0175 23.3447 46.2196C22.8824 46.4217 22.4947 46.6973 22.1622 47.0464C21.8479 47.3955 21.5888 47.818 21.4043 48.314C21.2197 48.8101 21.1457 49.3612 21.1457 49.9492C21.1457 50.5555 21.2378 51.1066 21.4043 51.5843C21.5888 52.0803 21.8292 52.503 22.1622 52.852C22.4761 53.2011 22.8824 53.4767 23.3447 53.6787C23.8064 53.8809 24.3239 53.9727 24.8968 53.9727C25.5064 54.0095 26.0239 53.9176 26.4862 53.7155ZM20.0181 45.0805H21.2197V47.2301C21.367 46.9361 21.5521 46.6422 21.7739 46.3482C21.9957 46.0542 22.2729 45.797 22.6053 45.5766C22.9191 45.3561 23.2894 45.1724 23.7144 45.0437C24.1207 44.9152 24.6011 44.8417 25.1 44.8417C25.8207 44.8417 26.4862 44.9703 27.0771 45.2275C27.6686 45.4847 28.1676 45.8522 28.5926 46.3115C28.9989 46.7708 29.3319 47.3219 29.5532 47.9466C29.775 48.5712 29.8856 49.251 29.8856 49.9859C29.8856 50.7208 29.775 51.4006 29.5532 52.0252C29.3319 52.6499 29.0176 53.2011 28.5926 53.6604C28.1862 54.1197 27.6686 54.4872 27.0771 54.7444C26.4862 55.0016 25.8207 55.1302 25.1 55.1302C24.5824 55.1302 24.1207 55.0567 23.7144 54.9281C23.308 54.7995 22.9378 54.6158 22.6239 54.3953C22.3096 54.1748 22.0324 53.9176 21.7926 53.6236C21.5521 53.3297 21.3489 53.0357 21.2011 52.7418V58.8047H20V45.0805H20.0181Z" fill="#A876F5"/><path d="M38.496 50.2799C37.7385 50.3534 37.2024 50.5739 36.8885 50.9229C36.5742 51.272 36.4082 51.6761 36.4082 52.1355C36.4082 52.705 36.5928 53.146 36.9625 53.4767C37.3316 53.8074 37.8864 53.9727 38.6066 53.9727C39.1614 53.9727 39.6603 53.8809 40.0853 53.6971C40.5103 53.5134 40.88 53.2562 41.1752 52.9439C41.471 52.6315 41.6928 52.2825 41.8407 51.8966C41.9885 51.5108 42.0625 51.1066 42.0625 50.7025V49.8941L38.496 50.2799ZM35.9274 46.2747C36.1119 45.9808 36.371 45.7419 36.6853 45.5215C36.9992 45.301 37.3875 45.1356 37.8311 45.0254C38.2742 44.9152 38.8103 44.8417 39.4385 44.8417C40.7508 44.8417 41.7295 45.1356 42.3582 45.7419C42.9864 46.3482 43.3002 47.2485 43.3002 48.461V54.9097H42.0997V52.7969C41.8034 53.5501 41.3231 54.1197 40.6949 54.5055C40.0481 54.8914 39.3279 55.0934 38.496 55.0934C37.9603 55.0934 37.4795 55.02 37.0545 54.873C36.6481 54.726 36.297 54.5239 36.0199 54.2483C35.7428 53.9911 35.5396 53.6787 35.3917 53.3113C35.2439 52.9439 35.1699 52.5581 35.1699 52.1355C35.1699 51.2168 35.4657 50.5187 36.0752 50.041C36.6667 49.5634 37.4242 49.2694 38.33 49.1775L41.6189 48.8652C41.9513 48.8285 42.1178 48.6815 42.1178 48.461V48.1119C42.1178 47.4506 41.9146 46.9177 41.5082 46.5319C41.1018 46.1461 40.4359 45.944 39.5125 45.944C37.8311 45.944 36.8699 46.5687 36.6114 47.7997L35.5396 47.2301C35.6135 46.8626 35.7428 46.5503 35.9274 46.2747Z" fill="#A876F5"/><path d="M47.8473 45.5031C48.4569 45.0622 49.1957 44.8417 50.0829 44.8417C51.3393 44.8417 52.2819 45.2459 52.8914 46.0359C53.501 46.8259 53.8154 47.8731 53.8154 49.1775V54.9097H52.5776V49.0857C52.5776 48.1119 52.3372 47.3403 51.8569 46.7892C51.3765 46.238 50.7111 45.9624 49.8425 45.9624C49.2143 45.9624 48.6787 46.0726 48.2537 46.3115C47.8287 46.5503 47.4771 46.8626 47.2186 47.2668C46.9601 47.671 46.7755 48.1487 46.6643 48.6631C46.5537 49.1959 46.4984 49.7471 46.4984 50.335V54.873H45.2968V45.0805H46.4611V47.2668C46.7755 46.5319 47.2372 45.944 47.8473 45.5031Z" fill="#A876F5"/></svg>