<svg width="218" height="55" viewBox="0 0 218 55" fill="none" xmlns="http://www.w3.org/2000/svg">
<path d="M41.6035 34.2453C46.9936 31.2857 51.08 29.0304 51.4323 28.8552C52.559 28.2559 53.7225 26.6701 51.4323 25.4382C50.6928 25.0509 46.7115 22.8658 41.6035 20.0481L34.5225 27.1993L41.6035 34.2453Z" fill="#FFD900"/>
<path d="M34.5224 27.1993L11.9755 49.9233C12.5047 49.9934 13.1022 49.8532 13.8066 49.4659C15.2856 48.6564 30.9635 40.0946 41.6035 34.2471L34.5224 27.1993Z" fill="#F43249"/>
<path d="M34.5224 27.1993L41.6035 20.0832C41.6035 20.0832 15.3925 5.77905 13.8066 4.93444C13.2091 4.58047 12.5397 4.47533 11.9404 4.58047L34.5224 27.1993Z" fill="#00EE76"/>
<path d="M34.5224 27.1993L11.9404 4.58044C11.024 4.79247 10.2494 5.60204 10.2494 7.25797C10.2494 9.90046 10.2494 45.0606 10.2494 47.2457C10.2494 48.7614 10.8487 49.8531 11.9755 49.9583L34.5224 27.1993Z" fill="#00D3FF"/>
<path d="M108.049 22.6888C103.998 22.6888 100.651 25.8237 100.651 30.1221C100.651 34.3855 103.963 37.5554 108.049 37.5554C112.136 37.5554 115.448 34.4205 115.448 30.1221C115.448 25.8237 112.136 22.6888 108.049 22.6888ZM108.049 34.5975C105.829 34.5975 103.893 32.7295 103.893 30.0888C103.893 27.4113 105.831 25.5801 108.049 25.5801C110.268 25.5801 112.206 27.4113 112.206 30.0888C112.206 32.7295 110.268 34.5975 108.049 34.5975ZM91.9491 22.6888C87.8628 22.6888 84.5509 25.8237 84.5509 30.1221C84.5509 34.3855 87.8628 37.5554 91.9491 37.5554C96.0355 37.5554 99.3474 34.4205 99.3474 30.1221C99.3474 25.8237 96.0355 22.6888 91.9491 22.6888ZM91.9491 34.5975C89.729 34.5975 87.7927 32.7295 87.7927 30.0888C87.7927 27.4113 89.7307 25.5801 91.9491 25.5801C94.1693 25.5801 96.1056 27.4113 96.1056 30.0888C96.1056 32.7295 94.2026 34.5975 91.9491 34.5975ZM72.8192 24.9791V28.1139H80.2875C80.0755 29.875 79.478 31.1787 78.5965 32.0601C77.5049 33.1518 75.8139 34.3504 72.8192 34.3504C68.2036 34.3504 64.6464 30.6162 64.6464 26.0007C64.6464 21.3851 68.2053 17.5808 72.8192 17.5808C75.3197 17.5808 77.1176 18.5674 78.4564 19.836L80.6748 17.6159C78.8068 15.8197 76.3063 14.4459 72.8192 14.4459C66.5126 14.4459 61.2276 19.624 61.2276 25.9306C61.2276 32.2371 66.5126 37.4152 72.8192 37.4152C76.2362 37.4152 78.7735 36.2885 80.8167 34.1734C82.895 32.0952 83.5293 29.1706 83.5293 26.8102C83.5293 26.0707 83.4592 25.4014 83.3523 24.8371L72.8192 24.9791ZM151.1 27.4095C150.501 25.7536 148.6 22.6888 144.794 22.6888C140.988 22.6888 137.853 25.6835 137.853 30.1221C137.853 34.2786 140.988 37.5554 145.146 37.5554C148.528 37.5554 150.466 35.4771 151.275 34.2786L148.775 32.5876C147.928 33.8212 146.802 34.6308 145.146 34.6308C143.49 34.6308 142.328 33.8913 141.587 32.3756L151.416 28.2541L151.1 27.4095ZM141.094 29.9118C141.024 27.0573 143.315 25.5783 144.934 25.5783C146.237 25.5783 147.294 26.2127 147.681 27.1642L141.094 29.9118ZM133.097 37.063H136.339V15.2905H133.097V37.063ZM127.814 24.3447H127.709C126.969 23.4633 125.595 22.6888 123.832 22.6888C120.133 22.6888 116.786 25.9656 116.786 30.1221C116.786 34.2786 120.168 37.5203 123.832 37.5203C125.593 37.5203 126.967 36.7458 127.709 35.8294H127.814V36.886C127.814 39.7405 126.298 41.2545 123.867 41.2545C121.894 41.2545 120.661 39.8106 120.168 38.612L117.351 39.8106C118.16 41.7837 120.31 44.2142 123.867 44.2142C127.672 44.2142 130.878 41.9589 130.878 36.4987V23.1461H127.814V24.3447ZM124.115 34.5975C121.894 34.5975 120.028 32.7295 120.028 30.1238C120.028 27.5182 121.896 25.6151 124.115 25.6151C126.3 25.6151 128.061 27.5182 128.061 30.1238C128.059 32.6945 126.298 34.5975 124.115 34.5975ZM166.214 15.2905H158.463V37.063H161.705V28.8184H166.214C169.808 28.8184 173.33 26.2109 173.33 22.0545C173.33 17.898 169.808 15.2905 166.214 15.2905ZM166.319 25.7904H161.738V18.3203H166.319C168.714 18.3203 170.123 20.3284 170.123 22.0545C170.09 23.7454 168.716 25.7904 166.319 25.7904ZM186.26 22.6537C183.935 22.6537 181.504 23.6753 180.518 26.0007L183.372 27.1992C184.007 26.0007 185.133 25.6134 186.332 25.6134C188.023 25.6134 189.714 26.635 189.749 28.4311V28.6431C189.15 28.2909 187.918 27.7968 186.367 27.7968C183.267 27.7968 180.131 29.5228 180.131 32.6945C180.131 35.6191 182.668 37.4853 185.486 37.4853C187.671 37.4853 188.868 36.4987 189.607 35.337H189.712V37.0279H192.847V28.6782C192.812 24.8389 189.959 22.6537 186.26 22.6537ZM185.873 34.5624C184.816 34.5624 183.336 34.0332 183.336 32.7313C183.336 31.0403 185.167 30.406 186.753 30.406C188.161 30.406 188.831 30.7231 189.712 31.1454C189.465 33.1536 187.739 34.5624 185.873 34.5624ZM204.157 23.1479L200.457 32.5543H200.352L196.513 23.1479H193.026L198.803 36.3235L195.526 43.6867H198.908L207.751 23.1479H204.157ZM175.128 37.063H178.37V15.2905H175.128V37.063Z" fill="#808285"/>
</svg>
