<svg width="172" height="69" viewBox="0 0 172 69" fill="none" xmlns="http://www.w3.org/2000/svg">
<path d="M14.2824 49.212C14.7379 49.4839 15.2572 49.6307 15.7877 49.6374C16.7366 49.6374 17.2929 49.1138 17.2929 48.3612C17.2929 47.6086 16.8675 47.2486 15.984 46.856C15.1005 46.4633 14.1843 45.7761 14.1843 44.7617C14.1843 43.7474 15.1005 42.733 16.4748 42.733C16.985 42.7208 17.4904 42.8331 17.9473 43.0602L17.6856 43.8455C17.3069 43.6293 16.8781 43.5165 16.4421 43.5183C15.4932 43.5183 15.1332 44.1073 15.1332 44.6309C15.1332 45.1544 15.5586 45.678 16.5076 46.1034C17.4565 46.5288 18.2091 47.2814 18.2091 48.2958C18.2091 49.3102 17.3583 50.4227 15.7549 50.4227C15.1506 50.4261 14.5548 50.2799 14.0207 49.9973L14.2824 49.212Z" fill="#1E384B"/>
<path d="M23.3138 48.852C23.3138 49.441 23.3465 49.8992 23.3793 50.3246H22.5285V49.5392H22.4958C22.3335 49.8202 22.0996 50.0531 21.8179 50.2141C21.5362 50.3751 21.2168 50.4583 20.8924 50.4554C20.0416 50.4554 19.1908 49.8992 19.1908 48.1649V44.9581H20.1397V48.0013C20.1397 48.9829 20.4015 49.6701 21.2196 49.6701C21.4646 49.6545 21.6991 49.5648 21.892 49.4128C22.0848 49.2609 22.2269 49.0539 22.2994 48.8193C22.366 48.6643 22.3994 48.4972 22.3976 48.3285V44.9581H23.3138V48.852Z" fill="#1E384B"/>
<path d="M24.5573 50.3246C24.59 49.9973 24.59 49.4083 24.59 48.9829V42.5039H25.5389V45.7434C25.6982 45.4526 25.9361 45.2124 26.2254 45.0504C26.5148 44.8883 26.8438 44.811 27.1751 44.8272C28.3531 44.8272 29.2038 45.907 29.2038 47.5759C29.2038 49.2447 28.124 50.4554 27.0114 50.4554C26.6871 50.46 26.368 50.3735 26.0903 50.2057C25.8127 50.038 25.5876 49.7957 25.4408 49.5065H25.408V50.3246H24.5573ZM25.5389 48.263C25.5336 48.3731 25.5446 48.4834 25.5717 48.5903C25.6251 48.8908 25.7819 49.1633 26.0149 49.3605C26.2479 49.5577 26.5426 49.6672 26.8478 49.6701C27.7641 49.6701 28.2549 48.8193 28.2549 47.6086C28.2549 46.3979 27.7968 45.6125 26.8478 45.6125C26.5414 45.6289 26.2494 45.7473 26.0181 45.949C25.7868 46.1506 25.6297 46.4238 25.5717 46.7251C25.5446 46.8541 25.5337 46.986 25.5389 47.1178V48.263Z" fill="#1E384B"/>
<path d="M29.9892 49.3756C30.3436 49.5965 30.7498 49.7206 31.1672 49.7355C31.8216 49.7355 32.1488 49.3756 32.1488 48.9175C32.1488 48.4594 31.8871 48.2303 31.2326 47.9031C30.5782 47.5759 29.891 47.0196 29.891 46.3979C29.891 45.7761 30.5782 44.8272 31.658 44.8272C32.0827 44.8325 32.4992 44.945 32.8687 45.1544L32.6397 45.8416C32.3348 45.6526 31.984 45.5507 31.6253 45.5471C31.5229 45.533 31.4186 45.5411 31.3196 45.5709C31.2206 45.6007 31.1291 45.6515 31.0515 45.7198C30.9739 45.7881 30.9119 45.8724 30.8697 45.9668C30.8276 46.0612 30.8063 46.1636 30.8072 46.267C30.8072 46.6924 31.069 46.8887 31.7235 47.1832C32.3779 47.4777 33.0324 48.034 33.0324 48.8193C33.0324 49.6047 32.3125 50.4227 31.1345 50.4227C30.6517 50.4334 30.1756 50.3088 29.7601 50.0628L29.9892 49.3756Z" fill="#1E384B"/>
<path d="M35.0939 43.4529V44.9581H36.4028V45.678H35.0939V48.6557C35.0939 49.3429 35.3229 49.6701 35.781 49.6701L36.3046 49.6047V50.3246C36.0387 50.3997 35.7627 50.4328 35.4865 50.4227C35.1247 50.4368 34.7719 50.3074 34.5049 50.0628C34.2431 49.7683 34.1449 49.3102 34.1449 48.6557V45.678H33.3923V44.9581H34.1776V43.6819L35.0939 43.4529Z" fill="#1E384B"/>
<path d="M39.9041 50.3246L39.8059 49.6701C39.6369 49.9127 39.4118 50.1109 39.1497 50.2476C38.8876 50.3844 38.5963 50.4557 38.3007 50.4554C38.0989 50.4601 37.8984 50.4233 37.7114 50.3472C37.5245 50.2712 37.3553 50.1575 37.2141 50.0133C37.073 49.8691 36.963 49.6974 36.8909 49.5089C36.8189 49.3204 36.7864 49.1191 36.7954 48.9175C36.7954 47.5759 37.908 46.9214 39.7404 46.9214V46.7905C39.7404 46.267 39.6095 45.5471 38.6279 45.5471C38.1869 45.5412 37.7541 45.6665 37.3844 45.907L37.1554 45.2853C37.6454 44.9787 38.2134 44.8196 38.7915 44.8272C40.264 44.8272 40.6894 45.8416 40.6894 46.9541V49.0811C40.6768 49.4967 40.6987 49.9126 40.7548 50.3246H39.9041ZM39.7404 47.5759C38.8897 47.5431 37.7116 47.7068 37.7116 48.7866C37.6977 48.9063 37.7094 49.0276 37.7459 49.1424C37.7824 49.2572 37.8428 49.363 37.9233 49.4527C38.0037 49.5424 38.1023 49.614 38.2125 49.6628C38.3227 49.7116 38.4419 49.7364 38.5624 49.7355C38.8244 49.7366 39.0792 49.6503 39.2866 49.4903C39.4941 49.3303 39.6422 49.1057 39.7077 48.852C39.7345 48.7563 39.7456 48.6568 39.7404 48.5575V47.5759Z" fill="#1E384B"/>
<path d="M41.9328 46.3979C41.9328 45.8089 41.9001 45.3835 41.8674 44.9581H42.7182V45.7761H42.7509C42.9061 45.4867 43.1376 45.2453 43.4202 45.078C43.7029 44.9108 44.0259 44.824 44.3543 44.8272C45.1069 44.8272 46.0886 45.318 46.0886 46.9869V50.3246H45.1396V47.1178C45.1396 46.3324 44.8778 45.6125 44.0598 45.6125C43.7836 45.6264 43.5194 45.7297 43.3069 45.9067C43.0944 46.0838 42.9453 46.325 42.8818 46.5942C42.8392 46.7432 42.8172 46.8973 42.8163 47.0523V50.3246H41.9328V46.3979Z" fill="#1E384B"/>
<path d="M50.8333 50.1609C50.4125 50.3511 49.9532 50.4407 49.4917 50.4227C48.0192 50.4227 47.0375 49.3756 47.0375 47.7068C47.0375 46.0379 48.0519 44.8599 49.688 44.8599C50.093 44.8464 50.4957 44.9247 50.866 45.089L50.6697 45.8416C50.371 45.6733 50.0304 45.5938 49.688 45.6125C48.5755 45.6125 47.9865 46.5615 47.9865 47.6413C47.9865 48.7212 48.6736 49.6701 49.688 49.6701C50.0395 49.675 50.3871 49.5965 50.7024 49.441L50.8333 50.1609Z" fill="#1E384B"/>
<path d="M52.1422 47.8049C52.1749 49.212 52.9275 49.7028 53.8111 49.7028C54.261 49.7093 54.7071 49.6201 55.1199 49.441L55.2836 50.1282C54.777 50.3424 54.2297 50.4429 53.6802 50.4227C52.1422 50.4227 51.226 49.3429 51.226 47.7395C51.226 46.1361 52.1422 44.8272 53.5493 44.8272C54.9563 44.8272 55.5781 46.267 55.5781 47.3141C55.5781 47.5432 55.5453 47.674 55.5453 47.8049H52.1422ZM54.6618 47.1178C54.6618 46.3651 54.3673 45.5471 53.4838 45.5471C52.6003 45.5471 52.2077 46.3979 52.1422 47.1178H54.6618Z" fill="#1E384B"/>
<path d="M59.6029 48.0013L58.9157 50.3246H57.9668L60.2574 42.8311H61.3372L63.6278 50.3246H62.6788L61.9589 48.0013H59.6029ZM61.7953 47.2814L61.1409 45.1871C61.01 44.6963 60.8791 44.2055 60.7809 43.7146H60.7482C60.6592 44.2125 60.5389 44.7043 60.3882 45.1871L59.7665 47.2814H61.7953Z" fill="#1E384B"/>
<path d="M64.3476 50.3246C64.3804 49.9973 64.3804 49.4083 64.3804 48.9829V42.5039H65.3293V45.7434H65.362C65.5159 45.4552 65.748 45.2162 66.0317 45.0541C66.3153 44.892 66.639 44.8134 66.9654 44.8272C68.1762 44.8272 69.0269 45.907 68.9942 47.5759C68.9615 49.2447 67.9144 50.4554 66.8346 50.4554C66.5047 50.4662 66.1786 50.3827 65.8946 50.2146C65.6106 50.0465 65.3804 49.8008 65.2312 49.5065H65.1984V50.3246H64.3476ZM65.3293 48.263C65.324 48.3731 65.335 48.4834 65.362 48.5903C65.4212 48.8881 65.5796 49.1571 65.8114 49.3532C66.0432 49.5494 66.3347 49.6611 66.6382 49.6701C67.5544 49.6701 68.0453 48.8193 68.0453 47.6086C68.0453 46.3979 67.5872 45.6125 66.6382 45.6125C66.3336 45.6343 66.0443 45.7547 65.8141 45.9554C65.5839 46.1561 65.4252 46.4263 65.362 46.7251C65.362 46.856 65.3293 46.9869 65.3293 47.1178V48.263Z" fill="#1E384B"/>
<path d="M74.0662 48.852C74.0662 49.441 74.0662 49.8992 74.0989 50.3246H73.2809L73.2154 49.5392H73.1827C73.0232 49.8154 72.7945 50.0452 72.519 50.2059C72.2435 50.3666 71.9309 50.4526 71.612 50.4554C70.7285 50.4554 69.9104 49.8992 69.9104 48.1649V44.9581H70.8594V48.0013C70.8594 48.9829 71.1212 49.6701 71.9065 49.6701C72.1617 49.663 72.4084 49.5775 72.6133 49.4253C72.8182 49.2731 72.9713 49.0615 73.0518 48.8193C73.0918 48.6587 73.1138 48.494 73.1172 48.3285V44.9581H74.0662V48.852Z" fill="#1E384B"/>
<path d="M75.1788 49.3756C75.5356 49.5912 75.9404 49.7149 76.3568 49.7355C77.0112 49.7355 77.3384 49.3756 77.3384 48.9175C77.3384 48.4594 77.0766 48.2303 76.4222 47.9031C75.7677 47.5759 75.0806 47.0196 75.1133 46.3979C75.146 45.7761 75.8005 44.8272 76.8476 44.8272C77.2735 44.8232 77.6924 44.9364 78.0583 45.1544L77.8293 45.8416C77.5244 45.6526 77.1736 45.5507 76.8149 45.5471C76.7124 45.533 76.6082 45.5411 76.5092 45.5709C76.4101 45.6007 76.3187 45.6515 76.2411 45.7198C76.1635 45.7881 76.1015 45.8724 76.0593 45.9668C76.0172 46.0612 75.9958 46.1636 75.9968 46.267C75.9968 46.6924 76.2586 46.8887 76.913 47.1832C77.5675 47.4777 78.2219 48.034 78.2219 48.8193C78.2219 49.6047 77.502 50.4227 76.324 50.4227C75.8413 50.4334 75.3652 50.3088 74.9497 50.0628L75.1788 49.3756Z" fill="#1E384B"/>
<path d="M79.7272 47.8049C79.7272 49.212 80.5125 49.7028 81.396 49.7028C81.8457 49.7064 82.2912 49.6173 82.7049 49.441L82.8685 50.1282C82.362 50.3424 81.8147 50.4429 81.2651 50.4227C79.7272 50.4227 78.8109 49.3429 78.8109 47.7395C78.8109 46.1361 79.6944 44.8272 81.1342 44.8272C82.574 44.8272 83.1303 46.267 83.1303 47.3141V47.8049H79.7272ZM82.2468 47.1178C82.2468 46.3651 81.9523 45.5471 81.0361 45.5471C80.1198 45.5471 79.7926 46.3979 79.7272 47.1178H82.2468Z" fill="#1E384B"/>
<path d="M88.7258 50.3246L88.6604 49.6701H88.6276C88.4703 49.9165 88.2522 50.1181 87.9943 50.2557C87.7364 50.3932 87.4474 50.462 87.1551 50.4554C86.9507 50.4647 86.7466 50.4313 86.5557 50.3573C86.3649 50.2833 86.1917 50.1704 86.0469 50.0257C85.9022 49.881 85.7893 49.7077 85.7153 49.5169C85.6413 49.3261 85.6079 49.1219 85.6172 48.9175C85.6172 47.5759 86.7625 46.9214 88.5622 46.9214V46.7905C88.5622 46.267 88.4313 45.5471 87.4496 45.5471C87.0099 45.5503 86.5796 45.6749 86.2062 45.907L86.0098 45.2853C86.4882 44.9796 87.0456 44.8203 87.6132 44.8272C89.0858 44.8272 89.5111 45.8416 89.5111 46.9541V49.0811C89.5111 49.5065 89.5439 49.9646 89.5766 50.3246H88.7258ZM88.5949 47.5759C87.7114 47.5431 86.5661 47.7068 86.5661 48.7866C86.5661 49.8664 86.9588 49.7355 87.3842 49.7355C87.6517 49.744 87.9141 49.6611 88.1282 49.5005C88.3424 49.3399 88.4954 49.1112 88.5622 48.852C88.589 48.7563 88.6001 48.6568 88.5949 48.5575V47.5759Z" fill="#1E384B"/>
<path d="M90.7546 46.3979C90.7546 45.8089 90.7546 45.3835 90.7219 44.9581H91.5399L91.6054 45.7761H91.6381C91.7904 45.4843 92.0213 45.2408 92.3046 45.0732C92.5879 44.9055 92.9124 44.8203 93.2415 44.8272C93.9941 44.8272 94.9431 45.318 94.9431 46.9869V50.3246H94.0268V47.1178C94.0268 46.3324 93.765 45.6125 92.9143 45.6125C92.6422 45.628 92.3827 45.7325 92.1758 45.9099C91.9688 46.0872 91.8259 46.3277 91.769 46.5942C91.7264 46.7432 91.7044 46.8973 91.7035 47.0523V50.3246H90.7546V46.3979Z" fill="#1E384B"/>
<path d="M100.44 42.5039V48.9829C100.44 49.4083 100.473 49.9646 100.473 50.3246H99.6551L99.5896 49.4738H99.5569C99.4157 49.7768 99.1883 50.0316 98.9031 50.2062C98.6179 50.3807 98.2877 50.4674 97.9535 50.4554C96.7755 50.4554 95.8593 49.3756 95.8593 47.7068C95.8593 46.0379 96.8737 44.8272 98.0517 44.8272C98.3413 44.8089 98.6302 44.873 98.885 45.0119C99.1398 45.1509 99.35 45.3591 99.4915 45.6125V42.5039H100.44ZM99.4915 47.085C99.4955 46.9533 99.4845 46.8216 99.4587 46.6924C99.4134 46.3999 99.2679 46.1323 99.047 45.9353C98.8262 45.7383 98.5437 45.6242 98.248 45.6125C97.3318 45.6125 96.8082 46.5288 96.8082 47.674C96.8082 48.8193 97.2991 49.6701 98.2153 49.6701C98.5167 49.666 98.8069 49.5553 99.0345 49.3576C99.2621 49.16 99.4124 48.8881 99.4587 48.5903C99.4857 48.4612 99.4967 48.3293 99.4915 48.1976V47.085Z" fill="#1E384B"/>
<path d="M109.504 47.0523C109.439 46.0379 109.374 44.8272 109.406 43.911H109.374C109.145 44.7617 108.85 45.7107 108.523 46.6924L107.312 50.2918H106.625L105.512 46.7905C105.185 45.7434 104.923 44.7945 104.727 43.911H104.694C104.694 44.8272 104.629 46.0379 104.563 47.1178L104.4 50.3246H103.516L104.007 42.8311H105.152L106.33 46.3979C106.604 47.236 106.833 48.088 107.018 48.9502H107.05C107.247 48.1649 107.476 47.3795 107.77 46.3979L108.981 42.8311H110.126L110.584 50.3246H109.668L109.504 47.0523Z" fill="#1E384B"/>
<path d="M112.351 47.8049C112.351 49.212 113.137 49.7028 114.02 49.7028C114.47 49.7064 114.915 49.6173 115.329 49.441L115.493 50.1282C114.986 50.3424 114.439 50.4429 113.889 50.4227C112.319 50.4227 111.435 49.3429 111.435 47.7395C111.435 46.1361 112.319 44.8272 113.758 44.8272C115.198 44.8272 115.754 46.267 115.754 47.3141C115.764 47.4784 115.753 47.6433 115.722 47.8049H112.351ZM114.871 47.1178C114.871 46.3651 114.576 45.5471 113.66 45.5471C112.744 45.5471 112.417 46.3979 112.351 47.1178H114.871Z" fill="#1E384B"/>
<path d="M116.703 46.3979C116.703 45.8089 116.671 45.3835 116.671 44.9581H117.489L117.554 45.7761C117.718 45.4865 117.955 45.2457 118.243 45.0789C118.531 44.9121 118.858 44.8252 119.19 44.8272C119.91 44.8272 120.892 45.318 120.892 46.9869V50.3246H119.976V47.1178C119.976 46.3324 119.714 45.6125 118.863 45.6125C118.589 45.6224 118.327 45.7249 118.119 45.9032C117.911 46.0815 117.769 46.3251 117.718 46.5942C117.66 46.7395 117.637 46.8966 117.652 47.0523V50.3246H116.703V46.3979Z" fill="#1E384B"/>
<path d="M123.281 43.4529V44.9581H124.59V45.678H123.281V48.6557C123.281 49.3429 123.51 49.6701 123.968 49.6701L124.459 49.6047L124.524 50.3246C124.258 50.3997 123.982 50.4328 123.706 50.4227C123.527 50.4315 123.347 50.4041 123.179 50.3423C123.01 50.2805 122.856 50.1854 122.724 50.0628C122.463 49.7683 122.364 49.3102 122.364 48.6557V45.678H121.579V44.9581H122.364V43.6819L123.281 43.4529Z" fill="#1E384B"/>
<path d="M128.124 50.3246L128.025 49.6701H127.993C127.835 49.9165 127.617 50.1181 127.359 50.2557C127.101 50.3932 126.812 50.462 126.52 50.4554C126.316 50.4647 126.112 50.4313 125.921 50.3573C125.73 50.2833 125.557 50.1704 125.412 50.0257C125.267 49.881 125.154 49.7077 125.08 49.5169C125.006 49.3261 124.973 49.1219 124.982 48.9175C124.982 47.5759 126.127 46.9214 127.96 46.9214V46.7905C127.96 46.267 127.796 45.5471 126.847 45.5471C126.397 45.546 125.955 45.6706 125.571 45.907L125.375 45.2853C125.865 44.9787 126.433 44.8196 127.011 44.8272C128.483 44.8272 128.876 45.8416 128.876 46.9541V49.0811C128.874 49.4976 128.906 49.9136 128.974 50.3246H128.124ZM127.96 47.5759C127.109 47.5431 125.931 47.7068 125.931 48.7866C125.931 49.8664 126.324 49.7355 126.782 49.7355C127.044 49.7366 127.299 49.6503 127.506 49.4903C127.714 49.3303 127.862 49.1057 127.927 48.852C127.954 48.7563 127.965 48.6568 127.96 48.5575V47.5759Z" fill="#1E384B"/>
<path d="M130.185 42.5039H131.101V50.3246H130.185V42.5039Z" fill="#1E384B"/>
<path d="M135.421 42.8311V46.0052H138.595V42.8311H139.511V50.3246H138.595V46.8233H135.421V50.3246H134.472V42.8311H135.421Z" fill="#1E384B"/>
<path d="M141.442 47.8049C141.442 49.212 142.227 49.7028 143.11 49.7028C143.56 49.7064 144.006 49.6173 144.419 49.441L144.583 50.1282C144.066 50.345 143.507 50.4456 142.947 50.4227C141.409 50.4227 140.525 49.3429 140.525 47.7395C140.525 46.1361 141.409 44.8272 142.849 44.8272C144.288 44.8272 144.845 46.267 144.845 47.3141C144.854 47.4784 144.843 47.6433 144.812 47.8049H141.442ZM143.928 47.1178C143.961 46.3651 143.634 45.5471 142.75 45.5471C141.867 45.5471 141.507 46.3979 141.442 47.1178H143.928Z" fill="#1E384B"/>
<path d="M148.51 50.3246L148.444 49.6701H148.411C148.25 49.9122 148.031 50.1105 147.774 50.2476C147.517 50.3846 147.23 50.456 146.939 50.4554C146.734 50.4647 146.53 50.4313 146.339 50.3573C146.149 50.2833 145.975 50.1704 145.831 50.0257C145.686 49.881 145.573 49.7077 145.499 49.5169C145.425 49.3261 145.392 49.1219 145.401 48.9175C145.401 47.5759 146.546 46.9214 148.346 46.9214V46.7905C148.346 46.267 148.215 45.5471 147.233 45.5471C146.792 45.5412 146.36 45.6665 145.99 45.907L145.794 45.2853C146.272 44.9796 146.829 44.8203 147.397 44.8272C148.869 44.8272 149.295 45.8416 149.295 46.9541V49.0811C149.282 49.4967 149.304 49.9126 149.36 50.3246H148.51ZM148.379 47.5759C147.495 47.5431 146.35 47.7068 146.35 48.7866C146.35 49.8664 146.743 49.7355 147.168 49.7355C147.434 49.7383 147.694 49.6532 147.907 49.4935C148.12 49.3338 148.274 49.1083 148.346 48.852C148.346 48.7539 148.379 48.6557 148.379 48.5575V47.5759Z" fill="#1E384B"/>
<path d="M150.571 42.5039H151.52V50.3246H150.571V42.5039Z" fill="#1E384B"/>
<path d="M154.007 43.4529V44.9581H155.283V45.678H154.007V48.6557C154.007 49.3429 154.203 49.6701 154.661 49.6701L155.185 49.6047V50.3246C154.93 50.4001 154.665 50.4333 154.4 50.4227C154.027 50.4419 153.662 50.3125 153.385 50.0628C153.123 49.7683 153.025 49.3102 153.025 48.6557V45.678H152.24V44.9581H153.025V43.6819L154.007 43.4529Z" fill="#1E384B"/>
<path d="M156.101 42.5039H157.017V45.7107H157.05C157.206 45.4576 157.419 45.2447 157.672 45.089C157.947 44.9195 158.264 44.8289 158.588 44.8272C159.308 44.8272 160.29 45.318 160.29 47.0196V50.3246H159.341V47.1178C159.341 46.3324 159.079 45.6125 158.261 45.6125C157.989 45.6244 157.728 45.7229 157.516 45.8937C157.304 46.0644 157.152 46.2984 157.083 46.5615C157.043 46.711 157.021 46.8648 157.017 47.0196V50.3246H156.101V42.5039Z" fill="#1E384B"/>
<path d="M39.7077 60.6648C40.1632 60.9368 40.6825 61.0835 41.2129 61.0902C42.1619 61.0902 42.7182 60.5667 42.7182 59.814C42.7182 59.0614 42.2928 58.7015 41.4093 58.3088C40.5258 57.9161 39.6095 57.229 39.6095 56.2146C39.6095 55.2002 40.5258 54.1858 41.9001 54.1858C42.4106 54.1696 42.917 54.2821 43.3726 54.513L43.1108 55.2983C42.7322 55.0822 42.3034 54.9693 41.8674 54.9711C40.9184 54.9711 40.5585 55.5601 40.5585 56.0837C40.5585 56.6072 40.9839 57.1308 41.9328 57.5562C42.8818 57.9816 43.6344 58.7342 43.6344 59.7486C43.6344 60.763 42.7836 61.8755 41.1802 61.8755C40.5759 61.8789 39.9801 61.7328 39.4459 61.4502L39.7077 60.6648Z" fill="#1E384B"/>
<path d="M45.2705 59.2578C45.3032 60.6648 46.0559 61.1557 46.9394 61.1557C47.3897 61.1663 47.8367 61.0769 48.2483 60.8939L48.4119 61.581C47.9053 61.7952 47.358 61.8957 46.8085 61.8755C45.2705 61.8755 44.3543 60.7957 44.3543 59.1923C44.3543 57.5889 45.2705 56.28 46.6776 56.28C48.0846 56.28 48.7064 57.7198 48.7064 58.7669C48.7064 58.996 48.6736 59.1269 48.6736 59.2578H45.2705ZM47.7901 58.5706C47.7901 57.818 47.4956 56.9999 46.6121 56.9999C45.7286 56.9999 45.336 57.8507 45.2705 58.5706H47.7901Z" fill="#1E384B"/>
<path d="M49.6226 57.9816C49.6226 57.4253 49.6226 56.869 49.5899 56.4109H50.4079L50.4734 57.3926H50.5061C50.5885 57.0859 50.7658 56.8131 51.0127 56.6132C51.2595 56.4134 51.5633 56.2968 51.8804 56.28H52.1095V57.1962H51.8477C51.1933 57.1962 50.7351 57.7198 50.6043 58.407C50.5758 58.5579 50.5648 58.7116 50.5715 58.8651V61.7774H49.6226V57.9816Z" fill="#1E384B"/>
<path d="M53.4838 56.4109L54.4328 59.4214C54.5964 59.8795 54.6946 60.3376 54.8254 60.7957H54.8582C54.9563 60.3376 55.0872 59.8795 55.2181 59.4214L56.1671 56.4109H57.1487L55.2181 61.7774H54.3346L52.5022 56.4109H53.4838Z" fill="#1E384B"/>
<path d="M58.8503 54.9384C58.8551 55.017 58.8431 55.0957 58.8152 55.1693C58.7873 55.243 58.7441 55.3098 58.6884 55.3655C58.6327 55.4212 58.5658 55.4644 58.4922 55.4923C58.4186 55.5202 58.3399 55.5322 58.2613 55.5274C58.1854 55.5275 58.1103 55.5121 58.0406 55.4822C57.9709 55.4522 57.908 55.4083 57.8559 55.3531C57.8038 55.2979 57.7635 55.2327 57.7376 55.1613C57.7116 55.09 57.7005 55.0142 57.705 54.9384C57.7006 54.8583 57.7125 54.7782 57.7401 54.7029C57.7677 54.6277 57.8104 54.5588 57.8655 54.5006C57.9207 54.4424 57.9871 54.3961 58.0608 54.3644C58.1345 54.3328 58.2138 54.3166 58.294 54.3167C58.3729 54.3161 58.451 54.3324 58.5232 54.3643C58.5953 54.3963 58.6598 54.4432 58.7124 54.502C58.7651 54.5608 58.8046 54.6301 58.8283 54.7054C58.8521 54.7806 58.8596 54.86 58.8503 54.9384ZM57.8032 61.7774V56.4109H58.7521V61.7774H57.8032Z" fill="#1E384B"/>
<path d="M63.5296 61.6138C63.1087 61.8039 62.6494 61.8935 62.188 61.8755C60.7155 61.8755 59.7011 60.8284 59.7011 59.1596C59.7011 57.4908 60.7482 56.3127 62.3843 56.3127C62.7892 56.2992 63.192 56.3775 63.5623 56.5418L63.366 57.2944C63.0673 57.1261 62.7267 57.0466 62.3843 57.0654C61.239 57.0654 60.6827 58.0143 60.6827 59.0941C60.6827 60.174 61.3699 61.1229 62.3516 61.1229C62.7139 61.1317 63.0731 61.0532 63.3987 60.8939L63.5296 61.6138Z" fill="#1E384B"/>
<path d="M64.8712 59.2578C64.8712 60.6648 65.6565 61.1557 66.54 61.1557C66.9897 61.1593 67.4353 61.0701 67.8489 60.8939L68.0126 61.581C67.506 61.7952 66.9587 61.8957 66.4092 61.8755C64.8385 61.8755 63.955 60.7957 63.955 59.1923C63.955 57.5889 64.8385 56.28 66.2783 56.28C67.7181 56.28 68.2743 57.7198 68.2743 58.7669C68.2834 58.9313 68.2724 59.0961 68.2416 59.2578H64.8712ZM67.3908 58.5706C67.3908 57.818 67.0963 56.9999 66.1801 56.9999C65.2639 56.9999 64.9367 57.8507 64.8712 58.5706H67.3908Z" fill="#1E384B"/>
<path d="M69.0924 60.8284C69.4468 61.0493 69.853 61.1734 70.2704 61.1884C70.8921 61.1884 71.2193 60.8284 71.2193 60.3703C71.2193 59.9122 70.9903 59.6831 70.3358 59.3559C69.6814 59.0287 68.9942 58.4724 68.9942 57.8507C68.9942 57.229 69.6814 56.28 70.7285 56.28C71.1545 56.276 71.5733 56.3892 71.9392 56.6072L71.7102 57.2944C71.4176 57.1049 71.0771 57.0027 70.7285 56.9999C70.6261 56.9858 70.5218 56.9939 70.4228 57.0237C70.3238 57.0535 70.2324 57.1043 70.1547 57.1726C70.0771 57.241 70.0151 57.3252 69.973 57.4196C69.9308 57.514 69.9095 57.6164 69.9104 57.7198C69.9104 58.1452 70.1722 58.3415 70.8267 58.636C71.4811 58.9305 72.1356 59.4868 72.1356 60.2722C72.1356 61.0575 71.383 61.8755 70.2377 61.8755C69.7545 61.8899 69.2774 61.7649 68.8633 61.5156L69.0924 60.8284Z" fill="#1E384B"/>
<path d="M76.2586 59.4541L75.5387 61.7774H74.5897L76.913 54.284H77.9929L80.2834 61.7774H79.3018L78.6146 59.4541H76.2586ZM78.4183 58.7342L77.7965 56.64C77.6458 56.1572 77.5256 55.6653 77.4366 55.1675H77.4039C77.3057 55.6583 77.1748 56.1491 77.0439 56.64L76.4222 58.7342H78.4183Z" fill="#1E384B"/>
<path d="M85.2245 53.9567V60.4358C85.2245 60.8612 85.2245 61.4174 85.2572 61.7774H84.4392L84.3737 60.9266H84.341C84.1998 61.2297 83.9724 61.4844 83.6872 61.659C83.402 61.8336 83.0718 61.9203 82.7376 61.9083C81.5596 61.9083 80.6434 60.8284 80.6434 59.1596C80.6434 57.4908 81.6578 56.28 82.8358 56.28C83.1206 56.2641 83.4041 56.3295 83.6532 56.4685C83.9024 56.6076 84.1068 56.8146 84.2428 57.0654H84.2756V53.9567H85.2245ZM84.2756 58.5379C84.2796 58.4062 84.2686 58.2744 84.2428 58.1452C84.1906 57.85 84.0386 57.5818 83.8122 57.3852C83.5859 57.1887 83.299 57.0758 82.9994 57.0654C82.0832 57.0654 81.5923 57.9816 81.5923 59.1269C81.5923 60.2721 82.0504 61.1229 82.9994 61.1229C83.3008 61.1188 83.591 61.0081 83.8186 60.8104C84.0462 60.6128 84.1965 60.3409 84.2428 60.0431C84.2699 59.914 84.2808 59.7822 84.2756 59.6504V58.5379Z" fill="#1E384B"/>
<path d="M86.5334 57.8507C86.5334 57.2617 86.5007 56.8363 86.468 56.4109H87.286L87.3515 57.1962H87.3842C87.527 56.9132 87.7475 56.6767 88.0199 56.5145C88.2923 56.3522 88.6052 56.2709 88.9221 56.28C89.2339 56.2784 89.538 56.3758 89.7909 56.558C90.0437 56.7403 90.2322 56.9982 90.3292 57.2944C90.4819 57.0313 90.6815 56.7983 90.9182 56.6072C91.2247 56.3919 91.5907 56.2775 91.9653 56.28C92.6852 56.28 93.6014 56.7709 93.6014 58.5051V61.7774H92.6852V58.636C92.6852 57.7198 92.3907 57.0654 91.6381 57.0654C91.3974 57.0829 91.168 57.1738 90.9807 57.326C90.7934 57.4782 90.6574 57.6842 90.591 57.9161C90.5531 58.0772 90.5312 58.2416 90.5255 58.407V61.7774H89.6093V58.4724C89.6093 57.6871 89.3148 57.0654 88.5949 57.0654C88.3354 57.0822 88.0888 57.1844 87.8935 57.356C87.6981 57.5277 87.5651 57.7591 87.5151 58.0143C87.4567 58.1709 87.4343 58.3387 87.4496 58.5051V61.7774H86.5334V57.8507Z" fill="#1E384B"/>
<path d="M95.9247 54.9384C95.9355 55.0183 95.9277 55.0996 95.902 55.176C95.8762 55.2524 95.8331 55.3218 95.7761 55.3788C95.7191 55.4358 95.6497 55.4789 95.5733 55.5046C95.4969 55.5304 95.4156 55.5382 95.3357 55.5274C95.2598 55.5275 95.1847 55.5121 95.115 55.4822C95.0453 55.4522 94.9824 55.4083 94.9303 55.3531C94.8782 55.2979 94.838 55.2327 94.812 55.1613C94.7861 55.09 94.775 55.0142 94.7794 54.9384C94.775 54.8583 94.7869 54.7782 94.8145 54.7029C94.8421 54.6277 94.8848 54.5588 94.94 54.5006C94.9951 54.4424 95.0615 54.3961 95.1352 54.3644C95.2089 54.3328 95.2883 54.3166 95.3684 54.3167C95.4473 54.3161 95.5255 54.3324 95.5976 54.3643C95.6698 54.3963 95.7343 54.4432 95.7869 54.502C95.8395 54.5608 95.879 54.6301 95.9028 54.7054C95.9265 54.7806 95.934 54.86 95.9247 54.9384ZM94.9103 61.7774V56.4109H95.8266V61.7774H94.9103Z" fill="#1E384B"/>
<path d="M97.1355 57.8507C97.1355 57.2617 97.1355 56.8363 97.1027 56.4109H97.9208L97.9862 57.229H98.0189C98.1713 56.9371 98.4021 56.6937 98.6854 56.526C98.9687 56.3583 99.2932 56.2731 99.6223 56.28C100.375 56.28 101.324 56.7709 101.324 58.4397V61.7774H100.408V58.5706C100.408 57.7853 100.146 57.0654 99.2951 57.0654C99.0213 57.0753 98.759 57.1777 98.5509 57.356C98.3429 57.5344 98.2015 57.778 98.1498 58.047C98.1073 58.196 98.0852 58.3502 98.0844 58.5051V61.7774H97.1355V57.8507Z" fill="#1E384B"/>
<path d="M103.68 54.9384C103.685 55.017 103.673 55.0957 103.645 55.1693C103.617 55.243 103.574 55.3098 103.518 55.3655C103.462 55.4212 103.395 55.4644 103.322 55.4923C103.248 55.5202 103.17 55.5322 103.091 55.5274C103.015 55.5275 102.94 55.5121 102.87 55.4822C102.8 55.4522 102.738 55.4083 102.686 55.3531C102.633 55.2979 102.593 55.2327 102.567 55.1613C102.541 55.09 102.53 55.0142 102.535 54.9384C102.525 54.86 102.533 54.7806 102.557 54.7054C102.58 54.6301 102.62 54.5608 102.672 54.502C102.725 54.4432 102.79 54.3963 102.862 54.3643C102.934 54.3324 103.012 54.3161 103.091 54.3167C103.171 54.3166 103.25 54.3328 103.324 54.3644C103.398 54.3961 103.464 54.4424 103.519 54.5006C103.575 54.5588 103.617 54.6277 103.645 54.7029C103.672 54.7782 103.684 54.8583 103.68 54.9384ZM102.633 61.7774V56.4109H103.582V61.7774H102.633Z" fill="#1E384B"/>
<path d="M104.727 60.8284C105.081 61.0493 105.488 61.1734 105.905 61.1884C106.559 61.1884 106.887 60.8284 106.887 60.3703C106.887 59.9122 106.625 59.6831 105.97 59.3559C105.316 59.0287 104.629 58.4724 104.629 57.8507C104.629 57.229 105.316 56.28 106.396 56.28C106.821 56.2853 107.237 56.3979 107.607 56.6072L107.345 57.2944C107.055 57.0996 106.713 56.9969 106.363 56.9999C106.261 56.9858 106.156 56.9939 106.057 57.0237C105.958 57.0535 105.867 57.1043 105.789 57.1726C105.712 57.241 105.65 57.3252 105.608 57.4196C105.565 57.514 105.544 57.6164 105.545 57.7198C105.545 58.1452 105.807 58.3415 106.461 58.636C107.116 58.9305 107.77 59.4868 107.77 60.2721C107.77 61.0575 107.05 61.8755 105.872 61.8755C105.389 61.8899 104.912 61.7649 104.498 61.5156L104.727 60.8284Z" fill="#1E384B"/>
<path d="M109.864 54.9057V56.4109H111.173V57.1308H109.864V60.1085C109.864 60.7957 110.094 61.1229 110.552 61.1229L111.075 61.0575V61.7774C110.809 61.8525 110.533 61.8857 110.257 61.8755C109.895 61.8896 109.542 61.7602 109.275 61.5156C109.014 61.2211 108.916 60.763 108.916 60.1085V57.1308H108.13V56.4109H108.916V55.1347L109.864 54.9057Z" fill="#1E384B"/>
<path d="M111.959 57.9816C111.959 57.4253 111.959 56.869 111.926 56.4109H112.744L112.809 57.3926H112.842C112.925 57.0859 113.102 56.8131 113.349 56.6132C113.596 56.4134 113.899 56.2968 114.217 56.28H114.446V57.1962H114.184C113.529 57.1962 113.071 57.7198 112.94 58.407C112.912 58.5579 112.901 58.7116 112.908 58.8651V61.7774H111.959V57.9816Z" fill="#1E384B"/>
<path d="M117.816 61.7774L117.751 61.1229H117.718C117.56 61.3693 117.342 61.571 117.084 61.7085C116.827 61.8461 116.538 61.9149 116.245 61.9083C116.041 61.9176 115.837 61.8842 115.646 61.8102C115.455 61.7362 115.282 61.6232 115.137 61.4785C114.992 61.3338 114.879 61.1605 114.805 60.9697C114.731 60.7789 114.698 60.5748 114.707 60.3703C114.707 59.0287 115.853 58.3743 117.652 58.3743V58.2434C117.652 57.7198 117.521 56.9999 116.54 56.9999C116.099 56.994 115.666 57.1193 115.296 57.3599L115.1 56.7381C115.578 56.4324 116.136 56.2732 116.703 56.28C118.176 56.28 118.601 57.2944 118.601 58.407V60.5339C118.601 60.9593 118.634 61.4174 118.667 61.7774H117.816ZM117.685 59.0287C116.802 58.996 115.656 59.1596 115.656 60.2394C115.656 61.3193 116.049 61.1884 116.474 61.1884C116.741 61.1911 117 61.106 117.213 60.9463C117.426 60.7866 117.58 60.5612 117.652 60.3049C117.679 60.2091 117.69 60.1097 117.685 60.0104V59.0287Z" fill="#1E384B"/>
<path d="M120.957 54.9057V56.4109H122.233V57.1308H120.957V60.1085C120.957 60.7957 121.154 61.1229 121.644 61.1229L122.135 61.0575V61.7774C121.881 61.8554 121.615 61.8886 121.35 61.8755C121.17 61.8883 120.99 61.8628 120.821 61.8007C120.651 61.7387 120.497 61.6415 120.368 61.5156C120.107 61.2211 120.008 60.763 120.008 60.1085V57.1308H119.223V56.4109H120.008V55.1347L120.957 54.9057Z" fill="#1E384B"/>
<path d="M124.099 54.9384C124.103 55.017 124.091 55.0957 124.064 55.1693C124.036 55.243 123.992 55.3098 123.937 55.3655C123.881 55.4212 123.814 55.4644 123.741 55.4923C123.667 55.5202 123.588 55.5322 123.51 55.5274C123.434 55.5275 123.359 55.5121 123.289 55.4822C123.219 55.4522 123.156 55.4083 123.104 55.3531C123.052 55.2979 123.012 55.2327 122.986 55.1613C122.96 55.09 122.949 55.0142 122.953 54.9384C122.944 54.86 122.952 54.7806 122.975 54.7054C122.999 54.6301 123.039 54.5608 123.091 54.502C123.144 54.4432 123.208 54.3963 123.281 54.3643C123.353 54.3324 123.431 54.3161 123.51 54.3167C123.59 54.3166 123.669 54.3328 123.743 54.3644C123.817 54.3961 123.883 54.4424 123.938 54.5006C123.993 54.5588 124.036 54.6277 124.064 54.7029C124.091 54.7782 124.103 54.8583 124.099 54.9384ZM123.052 61.7774V56.4109H124V61.7774H123.052Z" fill="#1E384B"/>
<path d="M129.694 59.0614C129.694 61.0902 128.451 61.9083 127.305 61.9083C126.16 61.9083 124.949 60.8939 124.949 59.1269C124.949 57.3599 126.062 56.28 127.371 56.28C128.68 56.28 129.694 57.3599 129.694 59.0614ZM125.898 59.0941C125.898 60.2067 126.422 61.1884 127.338 61.1884C128.254 61.1884 128.745 60.174 128.745 59.0941C128.745 58.0143 128.385 56.9999 127.338 56.9999C126.291 56.9999 125.898 58.1452 125.898 59.0941Z" fill="#1E384B"/>
<path d="M130.676 57.8507C130.676 57.2617 130.643 56.8363 130.61 56.4109H131.461V57.229H131.494C131.649 56.9396 131.881 56.6981 132.163 56.5309C132.446 56.3636 132.769 56.2768 133.097 56.28C133.85 56.28 134.832 56.7709 134.832 58.4397V61.7774H133.883V58.5706C133.883 57.7853 133.621 57.0654 132.803 57.0654C132.527 57.0792 132.262 57.1825 132.05 57.3595C131.837 57.5366 131.688 57.7779 131.625 58.047C131.582 58.196 131.56 58.3502 131.559 58.5051V61.7774H130.643L130.676 57.8507Z" fill="#1E384B"/>
<path d="M83.7843 7.22973C84.0675 7.1081 84.364 7.02024 84.6678 6.96795H91.834C92.7502 6.96795 93.1102 7.39334 93.012 8.30957L90.4597 27.5176C90.0997 30.0699 89.7725 32.6223 89.4453 35.1419C89.3144 35.9272 89.2162 36.7126 90.1651 37.1707L90.0997 37.3343C89.8904 37.4195 89.6701 37.4746 89.4453 37.4979H83.7843C82.6063 37.4979 82.2463 36.9744 82.4427 35.7964L85.4859 17.1773C85.513 16.9756 85.4788 16.7704 85.3877 16.5883L84.0461 18.8462L73.5749 36.8435C73.4826 37.0725 73.3168 37.2643 73.1035 37.3887C72.8903 37.5131 72.6417 37.5631 72.3969 37.5306C71.1207 37.4652 69.8118 37.4979 68.3721 37.4979L69.8446 16.6538L69.7137 16.5883C69.5636 16.8173 69.4322 17.0581 69.321 17.3082L60.486 35.011C59.9297 36.0909 59.9951 36.4508 61.0422 37.3016C60.8029 37.4051 60.5491 37.4713 60.2896 37.4979H55.0868C53.6143 37.4979 53.2871 36.9416 53.9742 35.6327L59.2752 25.5215L67.4558 10.0439C67.7122 9.5861 67.8893 9.08822 67.9794 8.57135C68.0448 8.27685 67.7831 7.9169 67.6522 7.58968L67.4231 7.19701C67.5653 7.08139 67.734 7.0027 67.9139 6.96795H74.622C75.7673 7.00068 76.0618 7.26245 75.9964 8.44046C75.8 12.8253 75.5382 17.2428 75.3092 21.6276C75.2325 22.7931 75.2216 23.9621 75.2765 25.1289C75.8328 24.1145 76.4218 23.1001 77.0108 22.0857C79.3013 18.0936 81.5919 14.1014 83.8497 10.1093C84.0461 9.78208 84.177 9.48758 84.3406 9.16035C84.5042 8.83313 84.8314 7.78601 83.7843 7.22973Z" fill="#1E384B"/>
<path d="M112.973 23.0674H109.799C107.868 23.0674 105.937 23.1001 104.007 23.0674C103.812 23.0371 103.614 23.0809 103.45 23.1899C103.287 23.299 103.17 23.4654 103.123 23.6564C101.651 27.5176 100.113 31.3461 98.6402 35.1746C98.2476 36.189 98.3457 36.549 99.3928 37.3016C99.1067 37.4003 98.8103 37.4662 98.5093 37.4979H92.4884C90.9178 37.4979 90.656 37.138 91.2123 35.6982L99.1638 15.7375C99.9491 13.8069 100.702 11.909 101.454 9.97841C101.665 9.52379 101.797 9.03712 101.847 8.53863C101.821 8.20846 101.732 7.88631 101.585 7.58968C101.553 7.42607 101.422 7.22973 101.454 7.16429C101.508 7.1042 101.574 7.05577 101.647 7.022C101.72 6.98823 101.799 6.96984 101.88 6.96795H108.326C109.144 6.96795 109.439 7.45879 109.111 8.30957C108.293 10.4692 107.443 12.6289 106.592 14.7886L105.283 18.2244H114.151C114.674 18.2244 114.969 18.0936 115.165 17.57C116.147 15.0177 117.194 12.498 118.175 9.94569C118.47 9.09491 119.092 8.2114 118.143 7.36062C118.11 7.36062 118.274 7.00068 118.405 6.96795C118.592 6.8963 118.795 6.87377 118.994 6.90251H124.425C126.029 6.93523 126.258 7.22973 125.669 8.70224L117.717 29.0883C116.932 31.1498 116.114 33.1786 115.329 35.2074C115.067 35.8945 115.001 36.549 115.721 37.0071C115.819 37.0725 115.819 37.2034 115.885 37.3016C115.734 37.3949 115.568 37.4613 115.394 37.4979H109.177C107.639 37.4979 107.377 37.1052 107.933 35.6982L110.388 29.5464C111.238 27.4194 112.056 25.3252 112.973 23.0674Z" fill="#1E384B"/>
<path d="M165.623 37.2361C165.351 37.3565 165.065 37.4443 164.772 37.4979H159.275C158.162 37.4979 157.77 37.0725 157.868 35.96L158.359 30.4626C158.375 30.3213 158.375 30.1786 158.359 30.0372L158.228 29.9391H148.771C148.644 29.9655 148.524 30.0167 148.418 30.0897C148.311 30.1627 148.22 30.2561 148.149 30.3644C146.906 32.0006 145.662 33.6694 144.452 35.3382C143.863 36.1236 143.961 36.5162 144.811 37.0071C144.91 37.0725 144.942 37.1707 145.041 37.2689C145.139 37.367 144.811 37.4979 144.713 37.4979H138.234C137.253 37.4979 136.925 36.9744 137.416 36.1236C137.899 35.3645 138.424 34.6326 138.987 33.9312L157.115 10.2729C157.367 9.92819 157.597 9.56749 157.802 9.19307C158.326 8.27685 158.293 8.01507 157.442 7.19701C157.683 7.08942 157.935 7.01247 158.195 6.96795H166.441C167.423 6.96795 167.783 7.3279 167.684 8.30957C167.455 10.731 167.161 13.1525 166.899 15.5739C166.31 20.8095 165.688 26.0124 165.099 31.2479C164.968 32.6223 164.805 33.9966 164.641 35.371C164.576 36.0909 164.576 36.8107 165.623 37.2361ZM160.322 13.6433L160.158 13.5779C157.344 17.4718 154.563 21.3658 151.716 25.3579H159.046L160.322 13.6433Z" fill="#1E384B"/>
<path d="M53.0253 37.3997C52.7988 37.4484 52.5692 37.4812 52.3381 37.4979H47.1352C45.7609 37.4652 45.401 37.0398 45.5319 35.6655C45.6627 34.2911 45.8918 32.1315 46.0554 30.3317C46.0574 30.1892 46.0464 30.0468 46.0227 29.9063H36.795C36.5734 29.8931 36.3524 29.941 36.1561 30.0449C35.9599 30.1487 35.796 30.3046 35.6824 30.4953C34.5371 32.0987 33.3264 33.6694 32.1484 35.2728C31.494 36.189 31.6576 36.6799 32.8683 37.2034C32.5738 37.3343 32.4102 37.4979 32.2139 37.4979H25.7348C24.9822 37.4979 24.6877 37.0398 24.9822 36.3199C25.1487 35.9311 25.369 35.5676 25.6367 35.2401L44.7465 10.3056C45.0788 9.8614 45.3742 9.39082 45.63 8.89857C45.9245 8.30957 45.9572 7.72057 44.9756 7.29518C45.2315 7.14821 45.5069 7.03805 45.7936 6.96795H54.1706C55.0868 6.96795 55.4467 7.3279 55.3486 8.30957C55.0868 10.8619 54.7923 13.4143 54.4978 15.9666C53.876 21.5948 53.2216 27.2231 52.5999 32.8186L52.3054 35.2401C52.2399 35.9927 52.2072 36.7453 53.0907 37.1707L53.0253 37.3997ZM39.38 25.3579H46.7099C47.1353 21.3985 47.5606 17.5046 48.0188 13.5779L47.8224 13.5124L39.38 25.3579Z" fill="#1E384B"/>
<path d="M34.4717 7.00068C33.9481 8.30957 33.49 9.58574 32.9337 10.7637C32.764 11.1217 32.4948 11.4232 32.1582 11.6321C31.8216 11.841 31.4319 11.9485 31.0358 11.9418L26.062 12.0399H24.2296C23.7096 12.0224 23.1912 12.1076 22.7041 12.2906C22.217 12.4736 21.7708 12.7508 21.3909 13.1064C21.011 13.462 20.705 13.8889 20.4902 14.3628C20.2755 14.8368 20.1562 15.3484 20.1393 15.8684C20.0411 16.8174 20.3356 17.6027 21.2519 17.9627L25.5058 19.6642C26.0948 19.8933 26.6838 20.0896 27.2728 20.3514C29.3997 21.3658 30.2178 22.8056 29.7597 25.0961C29.138 28.3684 27.8945 31.4116 25.7021 33.9639C24.8189 35.0596 23.703 35.9452 22.4352 36.5564C21.1675 37.1677 19.7797 37.4893 18.3723 37.4979C14.1184 37.5634 9.86448 37.5306 5.61058 37.4979C4.30168 37.4979 4.0399 37.0398 4.53074 35.8291C5.02157 34.6184 5.77419 32.655 6.42864 31.0843C6.59972 30.8057 6.80899 30.5523 7.05036 30.3317C7.31214 32.0987 7.47575 32.3932 9.40637 32.4587C11.8605 32.5241 14.3147 32.4914 16.8016 32.4587C19.2885 32.426 21.6773 29.8736 21.6118 27.4522C21.5791 26.405 21.121 25.6197 20.172 25.227C19.2231 24.8344 18.0123 24.409 16.9325 24.049C15.8527 23.6891 15.3946 23.5909 14.6419 23.2637C12.4495 22.3475 11.3697 20.2532 12.0242 17.9954C12.8565 15.0838 14.32 12.3912 16.3108 10.1093C18.0778 8.04779 20.5647 7.13156 23.1825 7.0334C26.8801 6.86979 30.5777 7.00068 34.4717 7.00068Z" fill="#1E384B"/>
<path d="M119.255 30.3317C119.484 32.3932 120.204 32.426 121.546 32.4587C124.066 32.5241 126.585 32.4914 129.072 32.4587C131.559 32.426 133.915 29.8082 133.784 27.354C133.751 26.5032 133.424 25.7506 132.639 25.3579C131.853 24.9653 130.937 24.638 130.054 24.3108C129.17 23.9836 128.189 23.7872 127.272 23.4273C124.622 22.4784 123.509 20.286 124.327 17.6027C125.192 14.9098 126.57 12.4097 128.385 10.2402C130.217 8.04779 132.802 7.13156 135.551 7.00068C139.183 6.86979 142.848 6.96795 146.742 6.96795C146.088 8.44046 145.63 9.84752 144.877 11.1237C144.124 12.3999 143.077 12.0399 142.03 12.0399H136.467C134.177 12.0399 132.573 13.5124 132.344 15.803C132.246 16.8174 132.541 17.6027 133.49 18.0281L136.369 19.2061C137.449 19.6315 138.594 19.926 139.674 20.4496C141.67 21.464 142.423 22.9037 141.965 25.0961C141.31 28.4993 140.034 31.6079 137.711 34.2257C136.852 35.2201 135.793 36.0225 134.603 36.5807C133.414 37.1388 132.12 37.4402 130.806 37.4652C126.487 37.5634 122.135 37.5306 117.816 37.4979C116.539 37.4979 116.245 37.0398 116.736 35.8291C117.227 34.6184 117.979 32.655 118.634 31.0843C118.732 30.8226 118.994 30.6589 119.255 30.3317Z" fill="#1E384B"/>
</svg>
