<svg width="147" height="81" viewBox="0 0 147 81" fill="none" xmlns="http://www.w3.org/2000/svg">
<path d="M21.6726 26.8591C18.0121 26.8609 14.4454 28.0167 11.4795 30.1623C8.51372 32.3078 6.29983 35.3337 5.15271 38.8098H38.1994C37.0528 35.3321 34.838 32.3047 31.8708 30.1589C28.9033 28.0132 25.3345 26.8584 21.6726 26.8591Z" fill="#00679B"/>
<path d="M80.3365 32.8646C80.3429 30.3187 79.791 27.8024 78.7195 25.493C77.648 23.1835 76.0832 21.137 74.1352 19.4978C72.1872 17.8587 69.9033 16.6667 67.4448 16.0057C64.9861 15.3449 62.4125 15.2311 59.9051 15.6726C57.3978 16.1141 55.0178 17.1001 52.9329 18.5611C50.8478 20.022 49.1085 21.9224 47.8375 24.1283C46.5666 26.3343 45.7949 28.7921 45.5767 31.3286C45.3585 33.8653 45.6992 36.4187 46.5748 38.8093H79.2606C79.9634 36.9057 80.3276 34.8938 80.3365 32.8646Z" fill="#0099D7"/>
<path d="M120.888 21.459C120.891 18.067 119.904 14.7479 118.047 11.9093C116.19 9.07074 113.544 6.83636 110.435 5.48064C107.326 4.12492 103.888 3.7069 100.544 4.27793C97.2009 4.84895 94.0969 6.38416 91.6138 8.69496C89.1306 11.0058 87.3766 13.9915 86.567 17.2855C85.7573 20.5794 85.9276 24.0382 87.0565 27.2368C88.1855 30.4353 90.2241 33.2346 92.922 35.2905C95.6199 37.3464 98.8597 38.5695 102.243 38.8097H104.708C109.1 38.5012 113.211 36.5394 116.214 33.3197C119.216 30.0998 120.887 25.8614 120.888 21.459Z" fill="#FBC303"/>
<path d="M9.98061 60.1374C10.8026 60.1616 11.6184 59.9888 12.36 59.6334C13.1015 59.278 13.7473 58.7504 14.2434 58.0945L14.3864 57.8902L11.9145 56.0448L11.7647 56.2695C11.5362 56.6141 11.2238 56.8949 10.8569 57.0855C10.49 57.2761 10.0807 57.3702 9.66737 57.3591C8.00585 57.3591 6.75289 55.9223 6.75289 54.0088C6.75289 52.0953 8.01266 50.638 9.71504 50.638C10.0776 50.6211 10.4394 50.6862 10.7731 50.829C11.1069 50.9717 11.404 51.1881 11.6421 51.4621L11.8056 51.6595L14.0936 49.7869L13.9642 49.6098C13.4673 49.0466 12.8533 48.5988 12.1652 48.2976C11.4771 47.9965 10.7315 47.8494 9.98061 47.8666C6.26942 47.8666 3.67499 50.393 3.67499 53.9952C3.67499 57.5974 6.26942 60.1374 9.98061 60.1374Z" fill="#00679B"/>
<path d="M19.0304 59.858H22.013V54.8939L26.446 48.132H22.8982L20.5285 52.0815L18.2949 48.132H14.6042L19.0304 54.8939V59.858Z" fill="#00679B"/>
<path d="M30.1436 55.1459C31.308 55.5137 32.0162 55.7724 32.0162 56.433C32.0162 57.0935 31.2672 57.3454 30.5658 57.3454C30.1938 57.3457 29.8263 57.2627 29.4904 57.1025C29.1546 56.9422 28.8589 56.7088 28.6251 56.4194L28.4413 56.1742L26.3098 58.4622L26.4937 58.6324C27.5624 59.6244 28.979 60.1553 30.4364 60.1101C33.2147 60.1101 35.0124 58.5643 35.0124 56.1673C35.0124 53.7705 33.0581 53.1167 31.6077 52.7014C30.5046 52.3745 29.8304 52.1429 29.8304 51.5096C29.8304 50.8764 30.6747 50.6108 31.2399 50.6108C31.5346 50.6042 31.8275 50.6583 32.1005 50.7695C32.3734 50.8808 32.6205 51.047 32.8266 51.2577L33.0105 51.496L35.0534 49.2285L34.9103 49.0787C33.905 48.2334 32.6204 47.7937 31.308 47.8461C29.1222 47.8461 26.7729 49.0651 26.7729 51.7412C26.7729 54.0769 28.6524 54.6693 30.1436 55.1459Z" fill="#00679B"/>
<path d="M42.3531 59.858V50.8285H45.5467V48.132H36.17V50.8285H39.3704V59.858H42.3531Z" fill="#00679B"/>
<path d="M50.3679 48.132H47.3853V59.8512H50.3679V48.132Z" fill="#00679B"/>
<path d="M62.7818 58.0809L62.9248 57.8766L60.4529 56.0312L60.3031 56.2559C60.0731 56.6006 59.7593 56.8813 59.3914 57.0719C59.0234 57.2624 58.6132 57.3565 58.199 57.3454C56.5442 57.3454 55.2912 55.9086 55.2912 53.9952C55.2912 52.0817 56.551 50.638 58.2806 50.638C58.6432 50.6211 59.005 50.6862 59.3388 50.829C59.6725 50.9717 59.9696 51.1881 60.2077 51.4621L60.3712 51.6595L62.6591 49.7869L62.5026 49.6098C62.0056 49.0466 61.3917 48.5988 60.7036 48.2976C60.0155 47.9965 59.2699 47.8494 58.519 47.8666C54.8078 47.8666 52.2134 50.393 52.2134 53.9952C52.2134 57.5974 54.8078 60.1238 58.519 60.1238C59.341 60.148 60.1567 59.9752 60.8984 59.6198C61.6399 59.2644 62.2857 58.7368 62.7818 58.0809Z" fill="#00679B"/>
<path d="M71.845 55.4863H76.5164V52.6944H71.845V50.924H76.8977V48.132H68.8624V59.858H71.845V55.4863Z" fill="#00679B"/>
<path d="M82.0253 48.132H79.0428V59.8512H82.0253V48.132Z" fill="#00679B"/>
<path d="M93.7309 56.4806C93.7394 55.8707 93.5559 55.2736 93.2064 54.7738C92.8569 54.274 92.3591 53.8967 91.7834 53.6954C92.2226 53.4637 92.5885 53.1141 92.84 52.6859C93.0913 52.2577 93.2183 51.7678 93.2065 51.2712C93.2065 48.1661 89.9312 48.1661 88.8485 48.1661H84.4155V59.824H89.2638C91.4293 59.824 93.7309 58.966 93.7309 56.4806ZM88.9643 52.7762H87.1598V50.5698H88.8349C89.5907 50.5698 90.4895 50.7537 90.4895 51.6458C90.4759 52.6672 89.3865 52.7762 88.9507 52.7762H88.9643ZM89.4137 57.4134H87.1461V55.0574H89.0119C89.9312 55.0574 91.0547 55.2549 91.0547 56.1946C91.0139 57.325 89.7814 57.4134 89.3865 57.4134H89.4137Z" fill="#00679B"/>
<path d="M104.769 51.7887C104.769 49.3986 103.223 48.132 100.289 48.132H95.6922V59.824H98.6747V55.3705H99.4851L101.827 59.824H105.396L102.495 55.0573C103.192 54.8572 103.799 54.423 104.213 53.8275C104.628 53.2321 104.824 52.5121 104.769 51.7887ZM98.6407 50.6174H100.152C101.446 50.6174 102.005 50.9648 102.005 51.7751C102.005 52.708 101.29 52.885 99.9618 52.885H98.5998L98.6407 50.6174Z" fill="#00679B"/>
<path d="M112.382 47.8462C108.664 47.8462 106.077 50.3725 106.077 53.9748C106.077 57.577 108.664 60.1034 112.382 60.1034C116.1 60.1034 118.681 57.577 118.681 53.9748C118.681 50.3725 116.094 47.8462 112.382 47.8462ZM112.382 57.3795C111.713 57.4054 111.052 57.2305 110.483 56.8773C109.914 56.5241 109.463 56.0089 109.189 55.3978C108.916 54.7867 108.831 54.1076 108.946 53.4479C109.061 52.7882 109.371 52.1781 109.835 51.6957C110.3 51.2135 110.898 50.8811 111.553 50.7416C112.208 50.602 112.89 50.6614 113.511 50.9123C114.132 51.1632 114.663 51.5941 115.037 52.1496C115.412 52.705 115.611 53.3596 115.61 54.0293C115.638 54.4645 115.574 54.9006 115.423 55.3097C115.272 55.7188 115.037 56.0916 114.733 56.4041C114.428 56.7166 114.062 56.9619 113.657 57.124C113.253 57.2862 112.818 57.3616 112.382 57.3454V57.3795Z" fill="#00679B"/>
<path d="M124.387 50.638C124.683 50.6314 124.975 50.6855 125.248 50.7968C125.521 50.908 125.768 51.0742 125.974 51.2849L126.158 51.5233L128.235 49.2557L128.038 49.0787C127.032 48.2334 125.747 47.7937 124.435 47.8461C122.249 47.8461 119.907 49.0651 119.907 51.7412C119.907 54.0769 121.779 54.6693 123.312 55.1459C124.47 55.5137 125.184 55.7724 125.184 56.433C125.184 57.0935 124.435 57.3454 123.727 57.3454C123.349 57.3494 122.976 57.2682 122.633 57.1078C122.292 56.9475 121.991 56.7122 121.752 56.4194L121.569 56.1742L119.437 58.4622L119.621 58.6324C120.69 59.6244 122.106 60.1553 123.563 60.1101C126.342 60.1101 128.14 58.5643 128.14 56.1673C128.14 53.7705 126.185 53.1167 124.735 52.7014C123.632 52.3745 122.958 52.1429 122.958 51.5096C122.958 50.8764 123.823 50.638 124.387 50.638Z" fill="#00679B"/>
<path d="M133.05 48.132H130.067V59.8512H133.05V48.132Z" fill="#00679B"/>
<path d="M139.846 52.7286C138.742 52.4017 138.067 52.1702 138.067 51.5369C138.067 50.9036 138.905 50.638 139.478 50.638C139.772 50.6314 140.065 50.6855 140.338 50.7968C140.611 50.908 140.858 51.0742 141.064 51.2849L141.248 51.5233L143.325 49.2557L143.127 49.0787C142.122 48.2334 140.837 47.7937 139.526 47.8461C137.339 47.8461 134.989 49.0651 134.989 51.7412C134.989 54.0769 136.87 54.6693 138.394 55.1459C139.559 55.5137 140.268 55.7724 140.268 56.433C140.268 57.0935 139.519 57.3454 138.817 57.3454C138.439 57.3509 138.065 57.2703 137.723 57.1099C137.381 56.9494 137.079 56.7133 136.842 56.4194L136.658 56.1742L134.527 58.4622L134.711 58.6324C135.778 59.6257 137.196 60.1568 138.654 60.1101C141.432 60.1101 143.23 58.5643 143.23 56.1673C143.23 53.7705 141.276 53.1439 139.846 52.7286Z" fill="#00679B"/>
<path d="M4.53298 76.5415H7.50875V72.1697H12.1801V69.3779H7.50875V67.6073H12.5614V64.8155H4.53298V76.5415Z" fill="#00679B"/>
<path d="M20.0041 64.5294C16.2929 64.5294 13.6985 67.0558 13.6985 70.658C13.6985 74.2602 16.2929 76.7865 20.0041 76.7865C23.7153 76.7865 26.3097 74.2602 26.3097 70.658C26.3097 67.0558 23.7153 64.5294 20.0041 64.5294ZM20.0041 74.0627C19.1408 74.0238 18.3258 73.6534 17.7285 73.0288C17.1315 72.4041 16.7982 71.5732 16.7982 70.7091C16.7982 69.8449 17.1315 69.0139 17.7285 68.3892C18.3258 67.7646 19.1408 67.3943 20.0041 67.3553C20.8674 67.3943 21.6824 67.7646 22.2796 68.3892C22.8768 69.0139 23.21 69.8449 23.21 70.7091C23.21 71.5732 22.8768 72.4041 22.2796 73.0288C21.6824 73.6534 20.8674 74.0238 20.0041 74.0627Z" fill="#00679B"/>
<path d="M34.9102 71.8633C34.933 72.1402 34.8982 72.4186 34.808 72.6813C34.7177 72.9439 34.574 73.185 34.3859 73.3894C34.1978 73.5937 33.9694 73.7568 33.715 73.8682C33.4606 73.9798 33.1859 74.0374 32.9082 74.0374C32.6304 74.0374 32.3558 73.9798 32.1014 73.8682C31.847 73.7568 31.6186 73.5937 31.4304 73.3894C31.2424 73.185 31.0987 72.9439 31.0084 72.6813C30.9182 72.4186 30.8834 72.1402 30.9062 71.8633V64.8155H27.944V71.9586C27.944 74.9549 29.8575 76.8206 32.9354 76.8206C36.0133 76.8206 37.9132 74.9549 37.9132 71.9586V64.8155H34.9102V71.8633Z" fill="#00679B"/>
<path d="M48.4339 72.0063L44.0351 64.8155H40.2761V76.5415H43.2588V69.1599L47.7871 76.5415H51.4166V64.8155H48.4339V72.0063Z" fill="#00679B"/>
<path d="M57.7834 64.8155H53.8203V76.5347H58.1171C61.2699 76.5347 64.6747 74.7097 64.6747 70.7057C64.6747 66.9605 62.1483 64.8155 57.7834 64.8155ZM61.5968 70.5831C61.5968 72.7077 60.3642 73.7428 57.8311 73.7428H56.8029V67.6142H58.0014C59.7378 67.6073 61.5968 68.3905 61.5968 70.5831Z" fill="#00679B"/>
<path d="M69.741 64.8155L64.6748 76.5347H67.957L68.8967 74.1581H72.9007L73.8676 76.5347H77.2179L72.1176 64.8155H69.741ZM72.1721 71.5637H69.5572L70.8578 68.2339L72.1721 71.5637Z" fill="#00679B"/>
<path d="M76.2372 67.512H79.431V76.5415H82.4135V67.512H85.614V64.8155H76.2372V67.512Z" fill="#00679B"/>
<path d="M90.1561 64.8155H87.1736V76.5347H90.1561V64.8155Z" fill="#00679B"/>
<path d="M98.2388 64.5294C94.5275 64.5294 91.9332 67.0558 91.9332 70.658C91.9332 74.2602 94.5275 76.7865 98.2388 76.7865C101.95 76.7865 104.544 74.2602 104.544 70.658C104.544 67.0558 101.923 64.5294 98.2388 64.5294ZM98.2388 74.0627C97.5697 74.0885 96.908 73.9136 96.3391 73.5604C95.77 73.2073 95.3197 72.6921 95.0459 72.0809C94.772 71.4699 94.6872 70.7909 94.8023 70.131C94.9174 69.4713 95.2271 68.8612 95.6918 68.379C96.1564 67.8966 96.7546 67.5644 97.4095 67.4248C98.0646 67.2851 98.7463 67.3447 99.3671 67.5956C99.9881 67.8465 100.52 68.2773 100.894 68.8327C101.268 69.3881 101.467 70.0427 101.467 70.7124C101.495 71.1479 101.433 71.5846 101.282 71.9941C101.131 72.4036 100.896 72.7769 100.591 73.0896C100.287 73.4024 99.9203 73.6476 99.515 73.8094C99.1097 73.9711 98.6748 74.0458 98.2388 74.0287V74.0627Z" fill="#00679B"/>
<path d="M114.48 72.0063L110.081 64.8155H106.329V76.5415H109.311V69.1532L113.833 76.5415H117.462V64.8155H114.48V72.0063Z" fill="#00679B"/>
<path d="M119.062 66.763C119.059 66.4916 119.112 66.2223 119.219 65.9731C119.323 65.7344 119.471 65.5174 119.655 65.3329C119.851 65.1438 120.083 64.9956 120.336 64.8971C120.582 64.7877 120.849 64.732 121.119 64.7337C121.391 64.7319 121.661 64.7875 121.908 64.8971C122.149 64.9987 122.367 65.1468 122.548 65.3329C122.732 65.5174 122.88 65.7344 122.985 65.9731C123.094 66.2219 123.15 66.491 123.148 66.763C123.15 67.0326 123.094 67.2995 122.985 67.546C122.885 67.7988 122.737 68.03 122.548 68.227C122.365 68.4109 122.147 68.5587 121.908 68.6628C121.658 68.7668 121.391 68.8201 121.119 68.8195C120.851 68.8192 120.584 68.766 120.336 68.6628C119.848 68.4559 119.46 68.0677 119.253 67.5801C119.129 67.3254 119.064 67.0462 119.062 66.763ZM119.417 66.763C119.412 66.9971 119.459 67.2294 119.553 67.4438C119.633 67.6432 119.754 67.8239 119.907 67.9751C120.059 68.1258 120.24 68.246 120.437 68.3292C120.653 68.4211 120.886 68.4652 121.119 68.4585C121.342 68.4618 121.562 68.4177 121.766 68.3292C121.964 68.246 122.145 68.1258 122.297 67.9751C122.452 67.8241 122.575 67.6435 122.658 67.4438C122.83 67.0275 122.83 66.5597 122.658 66.1433C122.572 65.9455 122.45 65.7655 122.297 65.6121C122.145 65.4614 121.964 65.3413 121.766 65.2581C121.562 65.1695 121.342 65.1253 121.119 65.1287C120.886 65.1219 120.653 65.1662 120.437 65.2581C120.24 65.3413 120.059 65.4614 119.907 65.6121C119.757 65.7657 119.637 65.9458 119.553 66.1433C119.467 66.3389 119.421 66.5494 119.417 66.763ZM120.308 65.5917H121.201C121.422 65.5721 121.643 65.6351 121.82 65.7687C121.887 65.8363 121.94 65.9173 121.974 66.0066C122.008 66.0957 122.024 66.191 122.018 66.2863C122.024 66.3689 122.013 66.4519 121.985 66.5302C121.958 66.6087 121.917 66.6808 121.861 66.7425C121.754 66.8454 121.614 66.9099 121.466 66.9264L122.065 67.907H121.623L121.044 66.9536H120.711V67.907H120.289L120.308 65.5917ZM120.711 66.6336H121.221C121.282 66.6339 121.343 66.62 121.399 66.5927C121.448 66.5728 121.489 66.5399 121.521 66.4974C121.559 66.4466 121.578 66.3838 121.576 66.3203C121.578 66.2547 121.559 66.1899 121.521 66.1364C121.489 66.094 121.448 66.061 121.399 66.0411C121.341 66.0204 121.281 66.0067 121.221 66.0003H120.711V66.6336Z" fill="#00679B"/>
</svg>
