<svg width="106" height="112" viewBox="0 0 106 112" fill="none" xmlns="http://www.w3.org/2000/svg">
<path d="M34.7541 31.1507C36.5069 31.1507 47.889 36.1745 47.889 54.2204C47.889 62.8446 44.9867 70.0334 43.273 70.0334C42.5177 70.0334 42.2304 69.2781 42.2304 67.8277C42.2304 64.635 43.3558 61.8064 43.3558 54.9907C43.3558 41.8317 37.9363 36.522 35.5094 33.534C34.7932 32.6493 34.2501 32.073 34.2501 31.5539C34.2501 31.3418 34.4005 31.1507 34.7541 31.1507ZM63.4418 31.5539C63.4418 32.073 62.8987 32.6493 62.1825 33.534C59.7571 36.522 54.3391 41.8317 54.3391 54.9907C54.3391 61.8064 55.46 64.635 55.46 67.8277C55.46 69.2781 55.1757 70.0334 54.4204 70.0334C52.7067 70.0334 49.8028 62.8446 49.8028 54.2204C49.8028 36.1745 61.1865 31.1507 62.9423 31.1507C63.2929 31.1507 63.4418 31.3418 63.4418 31.5539Z" fill="#0982C6"/>
<path d="M44.6901 34.763C44.6901 37.1192 46.5497 39.027 48.8442 39.027C51.1447 39.027 53.0058 37.1192 53.0058 34.763C53.0058 32.4038 51.1447 30.4975 48.8442 30.4975C46.5497 30.4975 44.6901 32.4038 44.6901 34.763Z" fill="#F8971F"/>
<path d="M27.2563 28.0212C25.0837 27.0387 23.4573 25.0692 23.1925 23.1599C24.8054 22.0977 27.3526 22.0164 29.5282 22.9989C31.8016 24.028 32.3342 25.7688 32.3478 27.2975C31.1908 28.301 29.5342 29.0518 27.2563 28.0212ZM33.4898 16.5368C32.092 14.3882 31.7655 11.668 32.6307 9.78874C34.7025 9.76166 37.0541 11.1669 38.4503 13.314C39.9113 15.5633 39.3832 17.444 38.5076 18.8342C36.8781 19.069 34.9477 18.7876 33.4898 16.5368ZM36.7246 27.9143C35.0003 26.4534 34.0329 24.2372 34.2887 22.4272C36.0325 21.8795 38.3782 22.4693 40.1024 23.9287C41.9079 25.4619 41.9364 27.1831 41.5498 28.5824C40.2333 29.1902 38.5301 29.443 36.7246 27.9143ZM41.9982 22.4151C41.2564 20.0183 41.6747 17.3643 42.9942 15.8191C44.9546 16.3472 46.7963 18.3061 47.538 20.7044C48.3144 23.2156 47.3138 24.8465 46.1162 25.9238C44.5214 25.7101 42.7715 24.9278 41.9982 22.4151ZM32.9165 39.9239C31.1998 40.2579 29.3883 39.7659 28.4164 38.7353C28.9279 37.4127 30.428 36.2798 32.1492 35.9458C33.9472 35.5967 35.0049 36.4137 35.6639 37.3255C35.3946 38.4208 34.722 39.5718 32.9165 39.9239ZM28.3787 34.8384C26.4243 34.6263 24.6414 33.5023 23.9418 32.0715C24.9288 30.8227 26.9133 30.102 28.8707 30.3141C30.9199 30.5368 31.7851 31.7646 32.1898 32.9622C31.5353 34.0485 30.4295 35.0611 28.3787 34.8384ZM28.2042 20.3132C26.6695 19.0118 25.8089 17.0438 26.0361 15.4339C27.5873 14.9449 29.6711 15.4715 31.2058 16.7685C32.8082 18.1316 32.8383 19.6618 32.4938 20.906C31.3217 21.4492 29.8081 21.6719 28.2042 20.3132ZM38.6625 9.99036C38.0426 7.99228 38.3947 5.77904 39.4915 4.49263C41.1285 4.93497 42.6647 6.56744 43.2831 8.56251C43.9301 10.6569 43.092 12.014 42.096 12.9168C40.7644 12.7362 39.311 12.0847 38.6625 9.99036ZM12.9644 61.838C12.9644 61.8922 12.999 61.9358 13.0682 61.9358C13.1314 61.9358 13.2472 61.8831 13.3721 61.838C19.5138 59.6353 28.5803 56.9346 41.306 56.1086C41.3211 55.9942 41.3978 55.427 41.3978 54.9907C41.3978 54.0699 41.288 53.1085 41.2594 52.949C28.2192 54.1451 19.2204 57.9261 13.3074 61.5596C13.0682 61.7086 12.9644 61.7432 12.9644 61.838ZM65.3462 27.2975C65.3597 25.7688 65.8908 24.028 68.1657 22.9989C70.3368 22.0164 72.8886 22.0977 74.5 23.1599C74.2337 25.0692 72.6087 27.0387 70.4376 28.0212C68.1582 29.0518 66.5047 28.301 65.3462 27.2975ZM59.1864 18.8342C58.3122 17.444 57.7841 15.5633 59.245 13.314C60.6398 11.1669 62.9914 9.76166 65.0632 9.78874C65.9269 11.668 65.5989 14.3882 64.2056 16.5368C62.7477 18.7876 60.8128 19.069 59.1864 18.8342ZM56.1411 28.5824C55.7575 27.1831 55.786 25.4619 57.5915 23.9287C59.3173 22.4693 61.66 21.8795 63.4068 22.4272C63.6595 24.2372 62.6921 26.4534 60.9678 27.9143C59.1653 29.443 57.4576 29.1902 56.1411 28.5824ZM51.5748 25.9238C50.3786 24.8465 49.3796 23.2156 50.1544 20.7044C50.8932 18.3061 52.7408 16.3472 54.6997 15.8191C56.0192 17.3643 56.4376 20.0183 55.6958 22.4151C54.9195 24.9278 53.1741 25.7101 51.5748 25.9238ZM62.03 37.3255C62.6905 36.4137 63.7438 35.5967 65.5463 35.9458C67.2675 36.2798 68.7645 37.4127 69.2776 38.7353C68.3071 39.7659 66.4957 40.2579 64.7744 39.9239C62.972 39.5718 62.2963 38.4208 62.03 37.3255ZM65.5026 32.9622C65.9088 31.7646 66.774 30.5368 68.8232 30.3141C70.7807 30.102 72.7622 30.8227 73.7507 32.0715C73.0511 33.5023 71.2697 34.6263 69.3153 34.8384C67.263 35.0611 66.154 34.0485 65.5026 32.9622ZM65.1987 20.906C64.8541 19.6618 64.8812 18.1316 66.4881 16.7685C68.0228 15.4715 70.1066 14.9449 71.6563 15.4339C71.8835 17.0438 71.0214 19.0118 69.4883 20.3132C67.8844 21.6719 66.3693 21.4492 65.1987 20.906ZM55.5965 12.9168C54.5989 12.014 53.764 10.6569 54.4109 8.56251C55.0293 6.56744 56.5654 4.93497 58.1949 4.49263C59.3007 5.77904 59.6468 7.99228 59.0314 9.99036C58.383 12.0847 56.928 12.7362 55.5965 12.9168ZM84.3835 61.5596C78.4735 57.9261 69.4732 54.1451 56.4331 52.949C56.4075 53.1085 56.2961 54.0699 56.2961 54.9907C56.2961 55.427 56.3714 55.9942 56.3864 56.1086C69.1106 56.9346 78.1756 59.6353 84.3203 61.838C84.4467 61.8831 84.5655 61.9358 84.6227 61.9358C84.6949 61.9358 84.7296 61.8922 84.7296 61.838C84.7296 61.7432 84.6227 61.7086 84.3835 61.5596ZM48.847 15.0171C47.1574 14.2302 45.4933 12.7693 45.4933 9.73156C45.4933 6.83074 46.8625 4.04126 48.847 2.78946C50.8315 4.04126 52.2007 6.83074 52.2007 9.73156C52.2007 12.7693 50.5397 14.2302 48.847 15.0171Z" fill="#56B948"/>
<path d="M26.0656 77.5048C26.0656 78.9898 27.2889 80.1935 28.8025 80.1935C30.3146 80.1935 31.5393 78.9898 31.5393 77.5048C31.5393 76.0213 30.3146 74.8191 28.8025 74.8191C27.2889 74.8191 26.0656 76.0213 26.0656 77.5048ZM47.4336 91.6553C47.4336 95.8982 45.774 97.6661 43.3742 97.6661C40.9534 97.6661 39.5963 95.6124 39.5963 92.0104C39.5963 88.3332 41.7012 85.2925 45.5966 85.2925C46.4 85.2925 46.9611 85.3722 47.4336 85.4866V91.6553ZM47.6668 98.6155V99.9937C47.6668 103.776 45.3377 105.245 42.4475 105.245C39.8491 105.245 37.9322 104.464 37.3274 104.252V107.994C37.8209 108.126 39.9303 108.789 42.941 108.789C48.2867 108.789 51.8586 106.584 51.8586 99.0217V82.7046C51.1725 82.5301 48.6629 81.8651 45.7741 81.8651C38.2753 81.8651 35.0525 86.8903 35.0525 92.3279C35.0525 97.3261 37.5681 101.245 42.3843 101.245C45.5604 101.245 47.0876 99.3272 47.5841 98.6155H47.6668ZM22.1688 96.3075C20.9651 96.8717 19.0393 97.2433 17.1751 97.2433C12.0912 97.2433 8.34777 93.6068 8.34777 88.0669C8.34777 82.5617 12.0656 78.8815 17.1751 78.8815C19.7073 78.8815 21.5098 79.5014 22.1688 79.8143V75.8543C21.0584 75.442 19.2544 75.0253 16.7057 75.0253C8.81568 75.0253 3.51355 80.4793 3.51355 88.0669C3.51355 95.2377 8.39289 101.101 16.7057 101.101C19.1431 101.101 20.9787 100.714 22.1688 100.269V96.3075ZM89.1178 91.6553C89.1178 95.8982 87.4568 97.6661 85.0585 97.6661C82.6346 97.6661 81.273 95.6124 81.273 92.0104C81.273 88.3332 83.3869 85.2925 87.2793 85.2925C88.0752 85.2925 88.6394 85.3722 89.1178 85.4866V91.6553ZM94.0995 100.832C93.9566 99.7981 93.5413 97.0703 93.5413 94.7247V82.7046C92.8507 82.5301 90.3395 81.8651 87.4568 81.8651C79.955 81.8651 76.7367 86.8903 76.7367 92.3279C76.7367 97.3261 79.2433 101.245 84.064 101.245C87.5832 101.245 89.1615 98.9691 89.7573 97.7549H89.8732C89.9168 98.3311 90.0763 100.29 90.1274 100.832H94.0995ZM31.0172 82.339H26.5937V100.832H31.0172V82.339ZM56.8673 100.832V88.0353C56.8673 86.3201 56.7108 83.0296 56.6657 82.2833H60.6407L60.8273 84.8847H60.9101C61.372 84.1565 62.86 81.8651 66.3281 81.8651C70.5153 81.8651 72.8414 84.9419 72.8414 88.7771V100.832H68.4209V89.6512C68.4209 87.2966 67.1105 85.5167 64.8581 85.5167C62.5336 85.5167 61.2952 87.3944 61.2952 89.6512V100.832H56.8673ZM100.592 97.6532C100.479 97.5885 100.294 97.5584 100.046 97.5584H99.6593V98.4837H100.067C100.257 98.4837 100.403 98.4686 100.499 98.4295C100.675 98.3588 100.764 98.2264 100.764 98.0278C100.764 97.8412 100.706 97.7164 100.592 97.6532ZM100.105 97.2514C100.422 97.2514 100.657 97.2815 100.804 97.3417C101.071 97.4546 101.202 97.6682 101.202 97.9902C101.202 98.2204 101.117 98.3919 100.952 98.4972C100.863 98.5544 100.74 98.5965 100.582 98.6206C100.782 98.6522 100.926 98.7365 101.022 98.8734C101.114 99.0073 101.161 99.1397 101.161 99.2691V99.4571C101.161 99.5158 101.162 99.5805 101.165 99.6467C101.171 99.7144 101.177 99.7611 101.19 99.7806L101.203 99.8122H100.782C100.779 99.8032 100.779 99.7942 100.776 99.7867C100.774 99.7791 100.77 99.7686 100.77 99.7581L100.761 99.6768V99.4737C100.761 99.1788 100.678 98.9817 100.519 98.8869C100.422 98.8343 100.254 98.8027 100.016 98.8027H99.6593V99.8122H99.2095V97.2514H100.105ZM98.7295 97.1205C98.3398 97.5117 98.1472 97.9842 98.1472 98.5409C98.1472 99.0991 98.3399 99.579 98.7281 99.9717C99.1177 100.366 99.5917 100.565 100.15 100.565C100.707 100.565 101.182 100.366 101.573 99.9717C101.96 99.579 102.155 99.0991 102.155 98.5409C102.155 97.9842 101.96 97.5117 101.573 97.1205C101.177 96.7248 100.704 96.5292 100.15 96.5292C99.5962 96.5292 99.1222 96.7248 98.7295 97.1205ZM101.802 100.194C101.347 100.652 100.797 100.88 100.15 100.88C99.5029 100.88 98.9522 100.652 98.4993 100.194C98.0479 99.7385 97.8208 99.1863 97.8208 98.5379C97.8208 97.8954 98.051 97.3462 98.5039 96.8903C98.9583 96.436 99.5089 96.2088 100.15 96.2088C100.797 96.2088 101.347 96.436 101.802 96.8903C102.259 97.3432 102.486 97.8939 102.486 98.5379C102.486 99.1848 102.259 99.737 101.802 100.194Z" fill="#0982C6"/>
</svg>
