<svg  viewBox="20 16 220 50" fill="none" xmlns="http://www.w3.org/2000/svg"><defs>
<clipPath id="clip0_0_338">
<rect width="46.5087" height="50" fill="white" transform="translate(20 16)"/>
</clipPath>
<clipPath id="clip1_0_338">
<rect width="100" height="22.6426" fill="white" transform="translate(96 30)"/>
</clipPath>
</defs><g clip-path="url(#clip0_0_338)">
<path d="M48.4409 29.0422C43.9646 29.0422 39.5381 30.9624 36.1716 34.753V16.0996H29.4883V47.5086C29.4883 57.7081 37.7551 65.9749 47.9546 65.9749C58.1541 65.9749 66.4209 57.7081 66.4209 47.5086C66.4209 37.3091 58.6279 29.0422 48.4409 29.0422ZM47.9546 58.8552C41.6828 58.8552 36.608 53.7679 36.608 47.5086C36.608 41.2492 41.6953 36.1619 47.9546 36.1619C54.2264 36.1619 59.3012 41.2492 59.3012 47.5086C59.3012 53.7679 54.2264 58.8552 47.9546 58.8552Z" fill="black"/>
<path d="M24.6378 65.9626C27.1582 65.9626 29.2014 63.9195 29.2014 61.399C29.2014 58.8786 27.1582 56.8354 24.6378 56.8354C22.1174 56.8354 20.0742 58.8786 20.0742 61.399C20.0742 63.9195 22.1174 65.9626 24.6378 65.9626Z" fill="#0000FF"/>
</g><g clip-path="url(#clip1_0_338)">
<path d="M144.759 35.9063C142.732 35.9063 140.727 36.7758 139.203 38.4924V30.0452H136.182V44.2688C136.182 48.8876 139.925 52.6313 144.544 52.6313C149.163 52.6313 152.907 48.8876 152.907 44.2688C152.907 39.6499 149.378 35.9063 144.759 35.9063ZM144.539 49.4071C141.698 49.4071 139.4 47.1033 139.4 44.2688C139.4 41.4342 141.704 39.1304 144.539 39.1304C147.379 39.1304 149.677 41.4342 149.677 44.2688C149.677 47.1033 147.379 49.4071 144.539 49.4071Z" fill="black"/>
<path d="M163.487 35.9063C161.46 35.9063 159.456 36.7758 157.931 38.4924V30.0452H154.91V44.2688C154.91 48.8876 158.654 52.6313 163.273 52.6313C167.892 52.6313 171.635 48.8876 171.635 44.2688C171.635 39.6499 168.101 35.9063 163.487 35.9063ZM163.267 49.4071C160.427 49.4071 158.129 47.1033 158.129 44.2688C158.129 41.4342 160.433 39.1304 163.267 39.1304C166.107 39.1304 168.405 41.4342 168.405 44.2688C168.405 47.1033 166.107 49.4071 163.267 49.4071Z" fill="black"/>
<path d="M119.174 45.7311V36.3579H122.415V45.7029C122.415 48.0914 123.798 49.6216 126.13 49.6216C128.491 49.6216 129.846 48.1479 129.846 45.7029V36.3579H133.115V45.7311C133.115 50.062 130.489 52.6256 126.13 52.6256C121.884 52.6312 119.174 49.9773 119.174 45.7311Z" fill="black"/>
<path d="M177.479 52.2473H174.238V30.0452H177.479V52.2473Z" fill="black"/>
<path d="M195.832 45.5563H183.426C183.9 48.0295 185.634 49.7121 188.7 49.7121C190.496 49.7121 192.681 49.0345 194.092 48.0012L195.448 50.3897C193.827 51.5981 191.263 52.5975 188.581 52.5975C182.63 52.5975 180.066 48.4417 180.066 44.2576C180.066 41.8691 180.8 39.8985 182.308 38.3344C183.81 36.7703 185.786 35.9741 188.175 35.9741C190.445 35.9741 192.331 36.6799 193.776 38.1254C195.222 39.571 195.956 41.5134 195.956 43.9922C195.944 44.4383 195.916 44.969 195.832 45.5563ZM183.42 42.9024H192.675C192.41 40.3954 190.552 38.7748 188.164 38.7748C185.719 38.7748 183.895 40.4292 183.42 42.9024Z" fill="black"/>
<path d="M108.88 35.9063C106.853 35.9063 104.848 36.7758 103.324 38.4924V30.0452H100.297V44.2688C100.297 48.8876 104.041 52.6313 108.66 52.6313C113.278 52.6313 117.022 48.8876 117.022 44.2688C117.022 39.6499 113.493 35.9063 108.88 35.9063ZM108.66 49.4071C105.819 49.4071 103.521 47.1033 103.521 44.2688C103.521 41.4342 105.825 39.1304 108.66 39.1304C111.5 39.1304 113.798 41.4342 113.798 44.2688C113.798 47.1033 111.5 49.4071 108.66 49.4071Z" fill="black"/>
<path d="M98.0998 52.6257C99.2412 52.6257 100.166 51.7005 100.166 50.5591C100.166 49.4177 99.2412 48.4924 98.0998 48.4924C96.9585 48.4924 96.0332 49.4177 96.0332 50.5591C96.0332 51.7005 96.9585 52.6257 98.0998 52.6257Z" fill="#0000FF"/>
</g></svg>