<svg  viewBox="20 16 50 50" fill="none" xmlns="http://www.w3.org/2000/svg"><defs>
<clipPath id="clip0_0_482">
<rect width="50" height="50" fill="white" transform="translate(20 16)"/>
</clipPath>
<clipPath id="clip1_0_482">
<rect width="100" height="17.8273" fill="white" transform="translate(96 32)"/>
</clipPath>
</defs><g clip-path="url(#clip0_0_482)">
<path d="M45 16C58.8086 16 70 27.1914 70 41C70 54.8086 58.8086 66 45 66C31.1914 66 20 54.8086 20 41C20 27.1914 31.1914 16 45 16Z" fill="#0052FF"/>
<path d="M45.0049 49.7891C40.1514 49.7891 36.2158 45.8584 36.2158 41C36.2158 36.1416 40.1514 32.2109 45.0049 32.2109C49.3555 32.2109 52.9688 35.3848 53.6621 39.5352H62.5146C61.7676 30.5117 54.2139 23.4219 45 23.4219C35.293 23.4219 27.4219 31.293 27.4219 41C27.4219 50.707 35.293 58.5781 45 58.5781C54.2139 58.5781 61.7676 51.4883 62.5146 42.4648H53.6572C52.959 46.6152 49.3555 49.7891 45.0049 49.7891Z" fill="white"/>
</g></svg>