<svg  viewBox="95 25 150 32" fill="none" xmlns="http://www.w3.org/2000/svg"><defs>
<clipPath id="clip0_0_482">
<rect width="50" height="50" fill="white" transform="translate(20 16)"/>
</clipPath>
<clipPath id="clip1_0_482">
<rect width="100" height="17.8273" fill="white" transform="translate(96 32)"/>
</clipPath>
</defs><g clip-path="url(#clip1_0_482)">
<path d="M116.142 36.977C112.516 36.977 109.684 39.7292 109.684 43.4135C109.684 47.0978 112.445 49.8264 116.142 49.8264C119.839 49.8264 122.648 47.0507 122.648 43.3899C122.648 39.7527 119.887 36.977 116.142 36.977ZM116.166 47.1712C114.102 47.1712 112.589 45.5677 112.589 43.4144C112.589 41.2366 114.077 39.6341 116.142 39.6341C118.231 39.6341 119.743 41.2611 119.743 43.4144C119.743 45.5677 118.231 47.1712 116.166 47.1712ZM123.44 39.7772H125.241V49.5881H128.121V37.2162H123.44V39.7772ZM102.434 39.6331C103.947 39.6331 105.147 40.5662 105.603 41.9541H108.652C108.099 38.9872 105.651 36.977 102.458 36.977C98.8328 36.977 96 39.7292 96 43.4144C96 47.0996 98.7612 49.8273 102.458 49.8273C105.579 49.8273 108.076 47.8171 108.628 44.8258H105.603C105.17 46.2136 103.97 47.1712 102.457 47.1712C100.368 47.1712 98.9043 45.5677 98.9043 43.4144C98.9052 41.2366 100.346 39.6331 102.434 39.6331ZM178.176 42.2177L176.064 41.907C175.056 41.7638 174.335 41.4287 174.335 40.6387C174.335 39.7772 175.272 39.3469 176.544 39.3469C177.937 39.3469 178.825 39.9448 179.017 40.9259H181.802C181.489 38.4374 179.569 36.9779 176.616 36.9779C173.567 36.9779 171.551 38.5334 171.551 40.7347C171.551 42.8401 172.871 44.0612 175.536 44.4435L177.648 44.7542C178.681 44.8974 179.257 45.305 179.257 46.0705C179.257 47.0516 178.249 47.4584 176.857 47.4584C175.152 47.4584 174.191 46.7644 174.047 45.7118H171.214C171.479 48.1287 173.375 49.8273 176.832 49.8273C179.977 49.8273 182.065 48.3914 182.065 45.9265C182.065 43.7251 180.553 42.5764 178.176 42.2177ZM126.681 32.1196C125.625 32.1196 124.832 32.8851 124.832 33.9377C124.832 34.9904 125.624 35.7559 126.681 35.7559C127.737 35.7559 128.53 34.9904 128.53 33.9377C128.53 32.8851 127.737 32.1196 126.681 32.1196ZM168.958 41.4522C168.958 38.7725 167.326 36.9779 163.869 36.9779C160.604 36.9779 158.779 38.6294 158.419 41.1659H161.276C161.42 40.1848 162.188 39.3713 163.821 39.3713C165.286 39.3713 166.006 40.0172 166.006 40.8072C166.006 41.8363 164.685 42.099 163.052 42.2666C160.844 42.5058 158.107 43.2713 158.107 46.143C158.107 48.3688 159.764 49.8037 162.405 49.8037C164.469 49.8037 165.765 48.9422 166.414 47.5779C166.51 48.7982 167.423 49.5881 168.695 49.5881H170.376V47.028H168.959V41.4522H168.958ZM166.125 44.5631C166.125 46.2145 164.685 47.4348 162.932 47.4348C161.851 47.4348 160.939 46.98 160.939 46.0234C160.939 44.8031 162.404 44.468 163.748 44.3248C165.045 44.2053 165.765 43.9181 166.125 43.3673V44.5631ZM150.833 36.977C149.224 36.977 147.879 37.6474 146.919 38.7716V32H144.038V49.5881H146.871V47.9611C147.831 49.1334 149.2 49.8273 150.833 49.8273C154.289 49.8273 156.907 47.0996 156.907 43.4144C156.907 39.7292 154.242 36.977 150.833 36.977ZM150.401 47.1712C148.336 47.1712 146.823 45.5677 146.823 43.4144C146.823 41.2611 148.36 39.6341 150.424 39.6341C152.513 39.6341 153.977 41.2375 153.977 43.4144C153.977 45.5677 152.465 47.1712 150.401 47.1712ZM137.148 36.977C135.275 36.977 134.051 37.7425 133.331 38.8196V37.2162H130.473V49.5872H133.354V42.8636C133.354 40.973 134.554 39.6331 136.331 39.6331C137.988 39.6331 139.02 40.8054 139.02 42.5049V49.5881H141.9V42.2902C141.901 39.1784 140.293 36.977 137.148 36.977ZM195.798 43.0077C195.798 39.4665 193.205 36.9779 189.724 36.9779C186.027 36.9779 183.314 39.7536 183.314 43.4144C183.314 47.2672 186.219 49.8273 189.772 49.8273C192.773 49.8273 195.126 48.0563 195.726 45.5442H192.724C192.292 46.6448 191.236 47.2672 189.819 47.2672C187.97 47.2672 186.578 46.1185 186.266 44.1083H195.797V43.0077H195.798ZM186.435 42.0501C186.891 40.3271 188.187 39.49 189.676 39.49C191.308 39.49 192.557 40.4231 192.845 42.0501H186.435Z" fill="#0052FF"/>
</g></svg>