<svg width="184" height="65" viewBox="0 0 184 65" fill="none" xmlns="http://www.w3.org/2000/svg">
<path d="M79.1118 27.3636C78.7514 27.3697 78.3926 27.321 78.0474 27.2116C77.7726 27.1292 77.5169 26.9928 77.2956 26.8102C77.1002 26.6438 76.9466 26.4339 76.847 26.1974C76.7448 25.9504 76.6904 25.6862 76.6866 25.4189C76.2708 25.3657 75.8709 25.2274 75.5121 25.0099C75.1533 24.7925 74.8279 24.4983 74.5869 24.1554C74.3162 23.7753 74.1117 23.3542 73.9825 22.9064C73.8328 22.3918 73.7598 21.858 73.7658 21.3221C73.758 20.7328 73.849 20.1464 74.035 19.5872C74.1948 19.1079 74.4439 18.6632 74.7693 18.2766C75.0712 17.9269 75.4535 17.6456 75.8679 17.4556C76.2949 17.2647 76.7579 17.1675 77.2256 17.1705C77.6914 17.1674 78.1524 17.2647 78.5773 17.4556C78.9967 17.6468 79.3695 17.9269 79.6698 18.2766C79.9953 18.6622 80.2429 19.1073 80.3988 19.5872C80.7371 20.6744 80.75 21.8375 80.4345 22.9322C80.3004 23.3834 80.089 23.8078 79.8096 24.1866C79.5538 24.5309 79.2298 24.8187 78.8578 25.0323C78.4858 25.2459 78.0739 25.3806 77.6476 25.4281C77.6631 25.6258 77.7234 25.8174 77.8239 25.9883C77.9132 26.1297 78.0376 26.2455 78.185 26.3244C78.3508 26.411 78.5309 26.4673 78.7172 26.4901C78.9437 26.5205 79.1733 26.5334 79.4014 26.5319H79.9503V27.3568L79.1118 27.3636ZM77.2226 24.6389C77.5665 24.6439 77.9067 24.5675 78.2155 24.416C78.5242 24.2644 78.7928 24.0421 78.9992 23.767C79.233 23.4542 79.4075 23.1012 79.5139 22.7255C79.7603 21.813 79.7603 20.8516 79.5139 19.9392C79.408 19.5663 79.2335 19.2165 78.9992 18.9076C78.7911 18.6349 78.522 18.4148 78.2135 18.2649C77.9049 18.1149 77.5656 18.0392 77.2226 18.044C76.8731 18.0406 76.5274 18.1165 76.2115 18.266C75.9074 18.4165 75.6261 18.6362 75.4133 18.9084C75.1757 19.2155 75.0001 19.5659 74.8963 19.94C74.6542 20.853 74.6542 21.8132 74.8963 22.7262C75.0016 23.1028 75.177 23.4562 75.4133 23.7677C75.6246 24.0437 75.8975 24.2664 76.2115 24.417C76.5255 24.5675 76.8729 24.6427 77.2226 24.6389ZM83.6176 25.4357C83.389 25.4518 83.1596 25.421 82.9433 25.3452C82.7271 25.2694 82.5286 25.1501 82.3602 24.9947C82.2081 24.8251 82.0913 24.6267 82.0169 24.4113C81.9425 24.1959 81.9119 23.9678 81.9269 23.7404V19.6222H82.862V23.545C82.8364 23.8473 82.9248 24.1483 83.1098 24.3888C83.3257 24.5865 83.6146 24.6929 83.9065 24.6587C84.241 24.661 84.5709 24.5827 84.8629 24.4109C85.186 24.2223 85.4863 23.9973 85.7561 23.7396V19.6222H86.6988V25.33H85.7539V24.4755C85.627 24.6046 85.4911 24.7245 85.3471 24.8343C85.191 24.9529 85.0237 25.056 84.8477 25.1422C84.6623 25.2339 84.4676 25.3052 84.2669 25.3551C84.054 25.4083 83.8358 25.4357 83.6169 25.4349L83.6176 25.4357ZM89.6044 25.4151C89.1794 25.4388 88.7605 25.3061 88.4268 25.0419C88.2792 24.9085 88.1636 24.7435 88.0885 24.5592C88.0135 24.3749 87.981 24.1761 87.9935 23.9775C87.9912 23.6978 88.0604 23.4226 88.1949 23.177C88.3547 22.9052 88.577 22.6753 88.8434 22.5065C89.2084 22.2736 89.605 22.0944 90.021 21.9744C90.6064 21.8018 91.207 21.6741 91.8121 21.5942V21.3358C91.8501 21.0408 91.7475 20.7451 91.5346 20.5375C91.3218 20.33 91.023 20.2334 90.7288 20.279C90.3327 20.2711 89.9403 20.3563 89.5831 20.5276C89.2524 20.6926 88.9445 20.8986 88.6648 21.1404L88.1782 20.558C88.5188 20.2474 88.9052 19.991 89.3239 19.7978C89.7969 19.5862 90.311 19.4823 90.8291 19.4937C91.1241 19.4861 91.4175 19.5317 91.6981 19.623C92.1512 19.7697 92.4986 20.1369 92.621 20.5961C92.697 20.8568 92.7327 21.1282 92.7289 21.3989V23.9175C92.7267 24.2026 92.7388 24.4877 92.7669 24.7705C92.7835 24.9594 92.8262 25.1452 92.8939 25.3224H91.9436L91.8486 24.9605C91.8225 24.8189 91.8106 24.675 91.8129 24.531C91.2218 25.1045 90.4287 25.4221 89.6052 25.4151H89.6044ZM89.8735 24.6808C90.2377 24.6846 90.5984 24.6088 90.9302 24.4588C91.2569 24.3062 91.5551 24.0989 91.8121 23.846V22.2496C91.3504 22.3198 90.8935 22.4181 90.4437 22.5438C90.131 22.6277 89.8296 22.7489 89.5459 22.9049C89.3505 23.0083 89.1832 23.1557 89.057 23.3382C88.9613 23.488 88.9111 23.6621 88.905 23.8399C88.8898 24.0779 88.9825 24.3098 89.1589 24.4694C89.3616 24.6225 89.6124 24.698 89.8659 24.6823L89.8735 24.6808ZM94.3893 25.33V17.3248H95.3183V25.33H94.3893ZM99.0312 25.4045C98.5852 25.4526 98.138 25.3244 97.7852 25.0472C97.5289 24.7403 97.4038 24.3448 97.437 23.9464V20.3885H96.435V19.6222H97.4233V17.5863H98.3584V19.6192H99.8371V20.3847H98.3584V23.7449C98.34 23.9871 98.4043 24.2283 98.5409 24.4291C98.7309 24.6063 98.9879 24.6899 99.2448 24.6572C99.3466 24.6568 99.4481 24.6496 99.5489 24.6359C99.6413 24.6247 99.7328 24.6069 99.8226 24.5827V25.3414C99.7466 25.3543 99.6272 25.3695 99.4653 25.3832L99.0152 25.406L99.0312 25.4045ZM101.107 25.3315V19.6298H102.037V20.685H102.058C102.274 20.3475 102.56 20.0616 102.9 19.8488C103.314 19.6062 103.789 19.4882 104.268 19.5089H104.385L104.322 20.3756C104.277 20.3651 104.23 20.3612 104.184 20.3642H104.052C103.631 20.3553 103.216 20.4721 102.862 20.6995C102.508 20.9388 102.224 21.2681 102.04 21.6535V25.3384L101.107 25.3315ZM105.474 18.3982V17.486H106.446V18.3982H105.474ZM105.495 25.3315V19.6298H106.424V25.3376L105.495 25.3315ZM110.349 25.4516C110.021 25.4523 109.696 25.3879 109.392 25.2623C109.085 25.1352 108.809 24.9433 108.583 24.6998C108.335 24.4307 108.144 24.1148 108.02 23.7708C107.872 23.355 107.8 22.9159 107.809 22.4746C107.798 22.0181 107.876 21.5638 108.037 21.1366C108.17 20.7892 108.375 20.4752 108.639 20.2121C108.88 19.9841 109.167 19.794 109.475 19.6754C109.777 19.5614 110.097 19.5027 110.42 19.5021C110.706 19.496 110.99 19.5401 111.262 19.6313C111.489 19.712 111.702 19.8305 111.89 19.9818C112.07 20.1267 112.225 20.301 112.347 20.4972C112.467 20.69 112.572 20.8918 112.661 21.1009L111.87 21.4277C111.758 21.1051 111.564 20.817 111.307 20.5915C111.051 20.3889 110.729 20.2855 110.403 20.3003C110.195 20.2996 109.988 20.3383 109.794 20.4144C109.591 20.496 109.409 20.6238 109.262 20.7876C109.09 20.9837 108.96 21.2136 108.882 21.4627C108.78 21.7926 108.732 22.1369 108.74 22.4822C108.702 23.0611 108.863 23.6356 109.196 24.1106C109.335 24.2919 109.514 24.4379 109.719 24.5366C109.925 24.6353 110.151 24.6839 110.379 24.6785C110.699 24.6921 111.015 24.6016 111.279 24.4208C111.561 24.1831 111.779 23.8775 111.91 23.5328L112.682 23.8369C112.577 24.068 112.45 24.2885 112.302 24.4945C112.162 24.6884 111.995 24.8617 111.805 25.0069C111.616 25.1521 111.398 25.2654 111.169 25.3414C110.901 25.4174 110.622 25.4653 110.333 25.4592L110.349 25.4516ZM115.762 25.4364C115.286 25.445 114.814 25.3517 114.378 25.1627C114.011 25.0079 113.686 24.7691 113.428 24.4656L113.986 23.9061C114.208 24.1368 114.467 24.3278 114.753 24.4709C115.07 24.625 115.419 24.7014 115.771 24.6937C116.126 24.715 116.48 24.6359 116.792 24.4656C116.905 24.3952 116.997 24.2959 117.059 24.178C117.12 24.0601 117.149 23.9279 117.142 23.7951C117.148 23.6647 117.117 23.5352 117.052 23.4219C116.987 23.3086 116.891 23.2162 116.776 23.1557C116.427 22.9824 116.057 22.8555 115.675 22.7802L114.839 22.5407C114.609 22.4665 114.392 22.359 114.195 22.2214C114.023 22.0984 113.881 21.9377 113.78 21.7516C113.673 21.537 113.621 21.2989 113.628 21.059C113.627 20.8488 113.673 20.6409 113.763 20.4509C113.855 20.2593 113.99 20.091 114.156 19.9582C114.344 19.8085 114.559 19.6944 114.79 19.6222C115.06 19.5371 115.343 19.4955 115.626 19.4991C116.061 19.4862 116.493 19.5617 116.897 19.721C117.236 19.8645 117.545 20.0686 117.81 20.3231L117.323 20.9404C117.105 20.7344 116.853 20.5668 116.579 20.4448C116.293 20.3171 115.984 20.2524 115.671 20.2547C115.355 20.2243 115.038 20.3079 114.778 20.4828C114.697 20.5467 114.632 20.6275 114.587 20.7195C114.541 20.8114 114.516 20.9123 114.514 21.0149C114.507 21.1348 114.535 21.254 114.595 21.3582C114.654 21.4625 114.743 21.5473 114.849 21.6026C115.171 21.7619 115.513 21.8768 115.866 21.9439C116.19 22.025 116.485 22.1087 116.751 22.1948C116.993 22.2706 117.223 22.3806 117.435 22.5217C117.62 22.6472 117.772 22.816 117.878 23.0136C117.988 23.2431 118.04 23.496 118.03 23.7502C118.036 24.0032 117.977 24.2534 117.858 24.477C117.743 24.6878 117.578 24.8678 117.379 25.0016C117.157 25.1493 116.911 25.2567 116.653 25.3186C116.36 25.3923 116.06 25.4298 115.759 25.4303L115.762 25.4364ZM74.2402 47.4845V30.2601H81.1256C81.8892 30.2587 82.6518 30.3171 83.4063 30.4349C84.0944 30.5368 84.7594 30.758 85.3715 31.0887C85.9346 31.3982 86.4081 31.8482 86.746 32.3948C87.1156 33.0414 87.2951 33.7793 87.2637 34.5234C87.2742 35.068 87.1816 35.6097 86.9907 36.1199C86.8262 36.5501 86.5814 36.945 86.2693 37.2838C85.9707 37.6011 85.6164 37.8608 85.224 38.0501C84.8287 38.2424 84.4105 38.3861 83.9802 38.4758V38.5328C84.4818 38.6172 84.9716 38.7601 85.4399 38.9586C85.8811 39.1458 86.2836 39.4137 86.6266 39.7484C86.9781 40.098 87.2512 40.5184 87.4279 40.9815C87.6333 41.5431 87.7315 42.1383 87.7175 42.7361C87.7415 43.5078 87.5611 44.272 87.1945 44.9514C86.8568 45.5459 86.3793 46.049 85.8033 46.4172C85.1888 46.8027 84.5116 47.0777 83.8024 47.2298C83.0363 47.4014 82.2535 47.4873 81.4685 47.486L74.2402 47.4845ZM77.9562 37.3613H80.75C81.5172 37.4215 82.2835 37.2351 82.9372 36.8292C83.1686 36.649 83.3529 36.4155 83.4744 36.1486C83.596 35.8817 83.6511 35.5894 83.6351 35.2966C83.6542 35.0042 83.6051 34.7114 83.4918 34.4412C83.3785 34.1711 83.204 33.9309 82.9821 33.7396C82.3316 33.326 81.5627 33.1389 80.7949 33.2075H77.9554L77.9562 37.3613ZM77.9562 44.5987H81.0123C81.8235 44.6747 82.6346 44.458 83.3128 44.008C83.8092 43.5823 84.076 42.9467 84.035 42.2937C84.035 40.7935 82.9707 40.0434 80.842 40.0434H77.9577L77.9562 44.5987ZM89.5451 47.4845V35.0776H93.2945V37.1576H93.3173C93.4998 36.8718 93.6975 36.6026 93.9316 36.3518C94.1865 36.0678 94.4767 35.8176 94.7952 35.6075C95.1563 35.3703 95.5555 35.1833 95.9584 35.051C96.4561 34.8951 96.9756 34.8202 97.4971 34.829H97.6225L97.5655 38.1588C97.4169 38.136 97.2672 38.121 97.117 38.114L96.5894 38.0912C95.9082 38.0747 95.2365 38.2522 94.6523 38.6028C94.1352 38.9153 93.6759 39.3147 93.2945 39.7834V47.4845H89.5451ZM100.816 47.667C100.351 47.6696 99.8884 47.5946 99.4478 47.445C99.0329 47.3049 98.6492 47.0854 98.3181 46.7988C97.9871 46.5074 97.7248 46.1463 97.5503 45.7413C97.3587 45.2912 97.2639 44.8058 97.272 44.3166C97.2587 43.6415 97.4266 42.9751 97.7581 42.3868C98.0897 41.7985 98.5729 41.3098 99.1574 40.9717C100.416 40.1638 102.408 39.6504 105.134 39.4314V39.1365C105.155 38.7388 105.018 38.349 104.754 38.0509C104.578 37.9003 104.373 37.787 104.151 37.7179C103.93 37.6488 103.696 37.6253 103.466 37.6487C102.711 37.6409 101.963 37.7857 101.266 38.0744C100.595 38.3547 99.9663 38.7276 99.3984 39.1821L97.8072 37.0352C98.1437 36.743 98.4992 36.4735 98.8716 36.2286C99.2949 35.9502 99.7437 35.7124 100.212 35.5185C100.756 35.2966 101.322 35.1293 101.9 35.0191C102.592 34.8879 103.296 34.825 104.001 34.8313C105.705 34.8313 106.931 35.2423 107.677 36.0644C108.491 37.0918 108.891 38.387 108.796 39.6945V44.4649C108.789 45.0776 108.815 45.6904 108.872 46.3008C108.908 46.7071 109 47.1064 109.145 47.4876H105.42L105.222 46.646C105.163 46.3244 105.134 45.9975 105.137 45.6698C104.612 46.2869 103.969 46.7928 103.246 47.1576C102.486 47.5126 101.656 47.6875 100.817 47.667H100.816ZM102.304 44.8541C102.878 44.8693 103.449 44.7659 103.98 44.55C104.41 44.369 104.802 44.1067 105.133 43.7776V41.4833C104.022 41.5386 102.932 41.8003 101.917 42.2549C101.636 42.3724 101.394 42.5672 101.219 42.8166C101.044 43.0661 100.943 43.36 100.929 43.6644C100.916 43.8334 100.944 44.0029 101.01 44.159C101.076 44.315 101.179 44.453 101.309 44.5614C101.598 44.769 101.949 44.8716 102.297 44.8534L102.304 44.8541ZM110.609 47.4769V35.0776H114.359V37.0314C114.563 36.7653 114.787 36.5144 115.029 36.2818C115.312 36.0105 115.625 35.7723 115.961 35.5718C116.338 35.347 116.741 35.1683 117.16 35.0396C117.64 34.8937 118.14 34.8226 118.642 34.829C119.133 34.8243 119.622 34.8953 120.091 35.0396C120.513 35.1682 120.902 35.3869 121.231 35.6805C121.563 35.9887 121.817 36.3701 121.975 36.7942C122.165 37.3264 122.256 37.8737 122.242 38.431V47.4777H118.517V39.6222C118.548 39.1726 118.431 38.7253 118.183 38.3489C118.041 38.1936 117.865 38.0737 117.669 37.9987C117.473 37.9237 117.261 37.8958 117.052 37.9171C116.563 37.9164 116.08 38.0373 115.649 38.269C115.187 38.5161 114.754 38.8131 114.357 39.1547V47.483L110.609 47.4769ZM128.136 47.6578C127.475 47.6652 126.82 47.5358 126.211 47.2777C125.622 47.0231 125.103 46.6298 124.7 46.1313C124.245 45.5526 123.913 44.8876 123.723 44.1768C123.476 43.2645 123.359 42.3219 123.376 41.3769C123.361 40.4242 123.478 39.474 123.723 38.5534C123.919 37.8126 124.255 37.1159 124.712 36.5008C125.112 35.9673 125.633 35.5368 126.232 35.2449C126.842 34.9599 127.508 34.8162 128.181 34.8245C128.941 34.8062 129.68 34.9613 130.362 35.2806C130.995 35.6003 131.541 36.0679 131.954 36.6437V30.2578H135.702V44.4588C135.694 45.0717 135.72 45.6845 135.778 46.2948C135.812 46.7034 135.912 47.104 136.072 47.4815H132.233C132.179 47.3797 132.139 47.2707 132.115 47.1576C132.077 47.0002 132.048 46.8408 132.028 46.6802L131.972 46.1351L131.949 45.6182C131.537 46.1902 131.021 46.6801 130.429 47.0626C129.74 47.4818 128.942 47.6889 128.136 47.6578ZM129.535 44.845C130.009 44.8487 130.473 44.7185 130.876 44.4695C131.268 44.2414 131.63 43.9502 131.955 43.6286V39.0506C131.615 38.7032 131.224 38.4101 130.795 38.1816C130.387 37.9879 129.94 37.8923 129.489 37.9026C127.906 37.9026 127.114 39.0501 127.114 41.3449C127.074 42.2268 127.277 43.1033 127.699 43.878C128.081 44.5189 128.789 44.8921 129.533 44.845H129.535ZM136.957 47.4693L142.468 38.3694L137.446 30.2464H141.764L144.843 35.4159L147.752 30.2464H151.659L146.751 38.3922L152.33 47.4693H148.126L144.468 41.4483L140.934 47.4693H136.957ZM153.92 47.4693V30.2601H158.919L162.756 42.9308H162.801L166.38 30.2631H171.504V47.4868H167.85V35.736H167.804C167.698 36.4095 167.556 37.077 167.379 37.7354C167.215 38.3263 167.038 38.9396 166.846 39.5751L164.267 47.4815H160.916L158.362 39.5751C158.27 39.2497 158.182 38.9507 158.095 38.678C158.009 38.4054 157.928 38.1175 157.851 37.8144C157.775 37.5103 157.697 37.1809 157.618 36.8261C157.539 36.4714 157.454 36.0406 157.362 35.5338H157.316V47.4693H153.92ZM174.564 33.3762V30.5892H173.57V30.2471H175.932V30.5892H174.944V33.3762H174.564ZM176.453 33.3762V30.2456H176.94L177.928 32.9064H177.936L178.904 30.2456H179.4V33.3762H179.032V30.8584H179.025L178.939 31.129L178.833 31.4331L178.086 33.3907H177.751L177.005 31.4331C176.983 31.3824 176.966 31.3317 176.951 31.281L176.906 31.1457L176.859 31.0043L176.809 30.8371H176.802V33.3823L176.453 33.3762Z" fill="black"/>
<path d="M29.6268 58.8954H17.1134C10.206 58.8878 4.6077 53.2895 4.6001 46.3821V18.0257C4.6077 11.1106 10.206 5.51233 17.1134 5.50473H29.6268V58.8954ZM57.9908 46.3821C57.9832 53.2895 52.3849 58.8878 45.4775 58.8954H32.9642V18.8528H45.4775C48.795 18.8568 51.9755 20.1765 54.3213 22.5223C56.6671 24.8681 57.9868 28.0486 57.9908 31.3661V46.3821Z" fill="#5F1AE5"/>
</svg>
