<svg width="204" height="59" viewBox="0 0 204 59" fill="none" xmlns="http://www.w3.org/2000/svg">
<path d="M92.2608 19.9623C97.3013 19.9623 99.6747 23.3991 99.6747 28.6853C99.6747 33.7911 97.3013 37.3267 92.2608 37.3267C87.2037 37.3267 84.8307 33.7911 84.8307 28.6853C84.8307 23.3991 87.2037 19.9623 92.2608 19.9623ZM106.859 20.1589V29.7491C106.859 33.5458 107.612 35.0349 110.034 35.0349C111.409 35.0349 112.57 34.6575 113.405 34.266C113.835 34.0648 114.227 33.8397 114.57 33.5893L114.714 33.4804V20.1589H117.742V37.0318L115.549 37.2117L115.14 35.1008C114.714 35.5093 114.204 35.8809 113.618 36.2133C112.617 36.781 111.18 37.3263 109.33 37.3263C105.574 37.3263 103.884 35.0363 103.848 30.028L103.847 29.8637V20.1589H106.859ZM129.198 19.9614C130.638 19.9614 131.83 20.1828 132.684 20.4191C133.126 20.5418 133.521 20.6632 133.876 20.8121L134.026 20.8777L134.271 23.087C133.846 22.9396 133.387 22.7943 132.88 22.678C132.029 22.4832 130.884 22.2685 129.64 22.2685C126.711 22.2685 125.13 24.1346 125.139 28.7006C125.147 33.103 126.71 35.08 129.64 35.034C130.883 35.0146 132.045 34.8365 132.897 34.6412C133.331 34.5419 133.73 34.4326 134.103 34.3105L134.288 34.2484L134.026 36.4252C133.633 36.6056 133.189 36.745 132.7 36.8834C131.863 37.1211 130.671 37.3069 129.28 37.3254C125.68 37.3727 122.046 35.1648 122.046 28.7498C122.046 21.9907 125.663 19.9618 129.198 19.9614ZM141.227 13.8084V22.1878C143.011 20.797 144.664 20.2568 146.873 20.2568C150.648 20.2568 152.13 22.3576 152.159 27.732L152.16 27.8993V37.3263H149.132V28.1288C149.132 23.6773 148.068 22.5644 146.104 22.5644C144.121 22.5644 142.107 23.987 141.283 24.2958L141.228 24.3155V37.3263H138.199V14.1033L141.227 13.8084ZM164.384 13.8084C167.167 13.8084 169.808 14.1444 171.864 15.7237C173.899 17.2867 175.252 19.9623 175.252 25.0848C175.252 32.408 173.343 37.2291 165.365 37.3248L165.121 37.3263H157.642V13.8084H164.384ZM180.243 13.8084H186.707C192.795 13.8084 195.004 15.527 195.004 19.9785C195.004 23.432 192.059 24.5608 190.815 24.692C191.814 24.7736 192.695 25.0217 193.467 25.4609C194.791 26.2163 196.118 27.6053 196.118 30.5338C196.118 35.1836 193.456 37.2837 188.116 37.3256L187.951 37.3263H180.243V13.8084H186.707H180.243ZM75.2242 12.9741C76.9916 12.9741 78.5469 13.2176 79.659 13.4657C80.3143 13.6109 80.9032 13.7602 81.4268 13.9401L81.6888 16.4768C81.1486 16.2806 80.5456 16.0889 79.8886 15.9365C78.7783 15.6799 77.2536 15.4152 75.5679 15.4292C71.345 15.4648 68.7348 17.7368 68.7596 25.0036C68.784 32.0567 70.9035 34.8784 75.2567 34.8554C77.0736 34.846 78.6417 34.6006 79.8227 34.266C80.4915 34.0771 81.1157 33.8899 81.6888 33.6766L81.4106 36.2295C80.8703 36.4424 80.2651 36.6246 79.5936 36.786C78.4324 37.0661 76.8116 37.3263 74.8968 37.3263C72.2618 37.3263 69.938 36.6715 68.2523 34.7734C66.5666 32.8748 65.5249 29.7325 65.5194 25.0356C65.5086 15.9527 69.6435 12.9741 75.2242 12.9741ZM92.2608 22.2861C88.9877 22.2861 87.891 24.5775 87.891 28.6524C87.891 32.4157 88.9877 35.0349 92.2608 35.0349C95.5339 35.0349 96.6302 32.4162 96.6302 28.6524C96.6302 24.5775 95.4848 22.2861 92.2608 22.2861ZM165.236 16.1814H160.784V34.9695H164.09C170.473 34.9695 172.166 32.7602 172.175 25.2156C172.182 19.1275 170.653 16.1814 165.236 16.1814ZM187.117 25.9029H183.205V34.9695H187.166C191.159 34.9695 193.205 34.2822 193.205 30.5018C193.205 26.8851 191.307 25.9029 187.117 25.9029ZM186.298 16.1818H183.204V23.8248H187.018C190.766 23.8248 192.05 22.4169 192.059 19.8477C192.067 16.8691 190.406 16.1818 186.298 16.1818Z" fill="#444444"/>
<path d="M181.967 43.4581C184.943 43.4581 185.68 44.5271 185.7 47.4515L185.7 47.5727V51.3437C185.7 51.7906 185.747 52.0219 185.905 52.0877C186.064 52.1539 186.359 52.1309 186.607 52.125L186.688 52.1238L186.566 53.2603L186.269 53.3441C186.084 53.3964 185.822 53.4285 185.524 53.4285C185.012 53.4285 184.667 53.2233 184.444 52.9716C184.221 52.7209 184.118 52.3204 184.118 52.1716C183.95 52.4039 183.717 52.6167 183.42 52.8048C182.907 53.129 182.107 53.4163 180.869 53.4285C179.175 53.4442 178.03 52.3854 178.03 50.7006C178.03 48.4755 180.134 47.9727 182.294 47.9727C182.682 47.9727 183.058 47.9873 183.365 48.0235L183.476 48.0381L183.988 48.1125V47.0608C183.988 45.0775 183.429 44.7708 181.837 44.7708C181.065 44.7708 180.329 44.9088 179.742 45.05C179.466 45.116 179.209 45.1895 178.964 45.2736L178.783 45.3386L178.969 44.0443C179.202 43.942 179.473 43.8418 179.779 43.7557C180.302 43.6091 181.037 43.4581 181.967 43.4581ZM168.161 43.3836C170.507 43.3697 171.667 44.9941 171.708 46.6978C171.714 46.9585 171.685 47.3954 171.652 47.731C171.622 48.029 171.6 48.3047 171.568 48.442L171.559 48.476H165.778V48.8106C165.778 51.157 166.922 51.9773 168.645 51.9574C169.352 51.9488 170.013 51.8623 170.507 51.7617C170.738 51.7152 170.957 51.6657 171.164 51.6097L171.317 51.5664L171.14 52.8138C170.916 52.8977 170.665 52.973 170.395 53.037C169.921 53.1498 169.278 53.2607 168.524 53.2607C165.517 53.2607 164 51.6408 164 48.4291C164 44.8822 165.797 43.3972 168.161 43.3836ZM175.795 39.8828V53.2607H174.082V40.051L175.795 39.8828ZM189.619 43.6628L191.965 47.5168L194.293 43.6628H196.117L192.916 48.4854L196.117 53.2607H194.191L191.965 49.5186L189.722 53.2607H187.813L190.998 48.4854L187.813 43.6628H189.619ZM161.738 43.3837C161.989 43.3837 162.231 43.4396 162.417 43.486C162.491 43.505 162.562 43.5277 162.628 43.5517L162.724 43.5884L162.52 44.9196L162.389 44.8547C162.287 44.8263 162.11 44.7889 161.812 44.7889C161.105 44.7889 160.501 45.0134 160.062 45.2268C159.861 45.3242 159.672 45.4383 159.495 45.5611L159.364 45.6547V53.093H157.641V43.477L158.842 43.3837L159.168 44.5566C159.885 43.8112 160.797 43.3837 161.738 43.3837ZM179.603 50.7664C179.603 51.7252 180.245 52.1721 181.372 52.1721C182.153 52.1721 182.804 51.9827 183.261 51.7716C183.485 51.6683 183.691 51.5627 183.878 51.4388L183.987 51.3621H183.988V49.1001L183.531 49.0726L182.573 49.0442C181.474 49.0122 179.603 49.1371 179.603 50.7664ZM168.198 44.6585C167.612 44.6585 167.063 44.8263 166.626 45.2457C166.205 45.6479 165.905 46.2641 165.816 47.3015L165.806 47.4333H170.209C170.209 47.331 170.212 47.257 170.219 47.2006C170.231 47.0978 170.23 46.9959 170.228 46.9116C170.184 45.3287 169.344 44.6585 168.198 44.6585Z" fill="#777777"/>
<path d="M48.0828 26.5035C48.0828 28.5541 47.0027 29.5588 44.9905 29.5944V29.5958H20.2519V29.5944C18.2397 29.5588 17.1596 28.5541 17.1596 26.5035C17.1596 24.4534 18.2397 23.4482 20.2519 23.4131V23.4113H44.9905V23.4131C47.0027 23.4482 48.0828 24.4534 48.0828 26.5035ZM44.9905 31.144V31.1422H20.2519V31.144C18.2397 31.1791 17.1596 32.1843 17.1596 34.2349C17.1596 36.2854 18.2397 37.2897 20.2519 37.3254V37.3267H44.9905V37.3249C47.0027 37.2897 48.0828 36.285 48.0828 34.2344C48.0828 32.1839 47.0027 31.1791 44.9905 31.144ZM52.7214 14.1376V14.1358C50.7092 14.1714 49.6291 15.1762 49.6291 17.2267V34.2344C49.6291 36.285 50.7092 37.2893 52.7214 37.3249V37.3218C55.7397 37.2158 57.36 34.2011 57.36 28.0499V20.319C57.36 16.2184 55.7397 14.2089 52.7214 14.1376ZM12.521 14.1358V14.1376C9.50264 14.2089 7.88232 16.2184 7.88232 20.319V28.0499C7.88232 34.2011 9.50264 37.2153 12.521 37.3218V37.3249C14.5332 37.2897 15.6132 36.285 15.6132 34.2344V17.2267C15.6132 15.1762 14.5332 14.1714 12.521 14.1358ZM52.7214 12.5881C52.7214 7.46196 50.021 4.95008 44.9905 4.86124V4.85718H20.2519V4.86124C15.2218 4.95008 12.521 7.46196 12.521 12.5881V12.5908C15.5393 12.644 17.1596 14.1511 17.1596 17.2267C17.1596 20.3023 18.7799 21.8094 21.7982 21.8626V21.8649H43.4446V21.8626C46.4624 21.8094 48.0828 20.3023 48.0828 17.2267C48.0828 14.1511 49.7031 12.644 52.7214 12.5908V12.5881Z" fill="#E42528"/>
</svg>
