<svg width="184" height="65" viewBox="0 0 184 65" fill="none" xmlns="http://www.w3.org/2000/svg">
<path d="M105.467 41.8224C108.765 41.4311 115.979 40.5753 117.265 42.2247C118.566 43.89 115.823 50.7386 114.597 53.8L114.595 53.8055C114.222 54.7338 115.021 55.1066 115.858 54.4066C121.313 49.8488 122.713 40.2996 121.603 38.9224C120.492 37.5528 110.965 36.3734 105.16 40.4594C104.262 41.0833 104.414 41.9508 105.411 41.829L105.467 41.8224Z" fill="#FF9900"/>
<path d="M75.4847 58.5382C88.1612 58.5382 102.884 54.5435 113.042 47.0563C114.724 45.8085 113.286 43.9519 111.566 44.6824C100.183 49.514 87.8035 51.8424 76.5499 51.8424C59.8635 51.8424 43.7098 47.2694 30.6452 39.6681C29.5039 38.9985 28.6517 40.1703 29.6028 41.0301C41.7086 51.9641 57.7102 58.5382 75.4847 58.5382Z" fill="#FF9900"/>
<path fill-rule="evenodd" clip-rule="evenodd" d="M96.9192 36.3201C96.5616 36.6397 96.0442 36.6625 95.6409 36.4495C94.1126 35.1802 93.648 34.4897 92.9385 33.435C92.8143 33.2505 92.6826 33.0548 92.5364 32.8428C89.569 35.8712 87.4613 36.7767 83.6188 36.7767C79.061 36.7767 75.5229 33.969 75.5229 28.346C75.5229 23.9556 77.8969 20.9653 81.2904 19.5044C83.753 18.4199 87.0339 18.0842 89.8774 17.7932C90.4254 17.7372 90.9571 17.6828 91.4636 17.625V16.925C91.4636 16.794 91.4646 16.6607 91.4656 16.5255C91.4748 15.3334 91.485 14.0042 90.8016 13.0064C90.1472 12.0096 88.8841 11.5987 87.7656 11.5987C85.7036 11.5987 83.8699 12.6563 83.4209 14.8477C83.3296 15.3347 82.972 15.8141 82.4774 15.8369L77.2349 15.2738C76.7935 15.1749 76.299 14.8173 76.4283 14.1401C77.6305 7.77903 83.3829 5.86157 88.5265 5.86157C91.1592 5.86157 94.5985 6.5616 96.6757 8.55513C99.0959 10.8145 99.079 13.7683 99.0605 17.0028C99.0589 17.2868 99.0573 17.5729 99.0573 17.8609V26.2916C99.0573 28.5537 99.8943 29.6817 100.778 30.8722C100.884 31.0152 100.99 31.159 101.096 31.3058C101.439 31.7928 101.515 32.3787 101.074 32.7439C99.9703 33.6646 98.0072 35.3766 96.9268 36.3353L96.9192 36.3201ZM91.4636 23.1338C91.4636 23.2303 91.4637 23.3261 91.4638 23.4212C91.4661 25.4027 91.4681 27.0849 90.4516 28.871C89.5918 30.3928 88.2222 31.3287 86.708 31.3287C84.6308 31.3287 83.4133 29.746 83.4133 27.4101C83.4133 22.7991 87.545 21.9621 91.4636 21.9621V23.1338Z" fill="black"/>
<path d="M35.3629 36.3962H40.7728C41.3511 36.3962 41.8153 35.9473 41.8153 35.3918V20.6762C41.8153 20.5609 41.8151 20.4441 41.8149 20.326C41.8095 17.152 41.8026 13.0216 45.5512 13.0216C49.0016 13.0216 48.9427 16.6965 48.8947 19.6887C48.8893 20.0287 48.884 20.3602 48.884 20.6762L48.8916 35.3918C48.8916 35.9245 49.3177 36.3582 49.8655 36.3962H55.2678C55.8461 36.3962 56.3103 35.9473 56.3103 35.3918V20.6762C56.3103 20.5533 56.3099 20.4257 56.3096 20.2943C56.3057 18.7411 56.3003 16.6483 56.8125 15.3575C57.3679 13.9575 58.7375 13.0825 60.0462 13.0825C61.6137 13.0825 62.8235 13.6075 63.2268 15.4717C63.435 16.3659 63.4066 18.4334 63.3876 19.8171C63.383 20.1524 63.379 20.4476 63.379 20.6762V35.3918C63.379 35.9245 63.8127 36.3582 64.3529 36.3962H69.7553C70.3335 36.3962 70.7977 35.9473 70.7977 35.3918L70.8053 17.8685C70.8053 17.4412 70.8125 17.0053 70.8198 16.5651L70.8198 16.5644C70.8633 13.94 70.9093 11.1641 69.4433 9.16386C67.9291 7.06379 65.4486 6.12789 63.1811 6.12789C59.993 6.12789 57.0179 7.76381 55.7092 11.2715C54.1874 7.76381 52.0721 6.12789 48.6861 6.12789C45.3534 6.12789 42.8805 7.76381 41.5642 11.2715H41.4652V7.64207C41.4272 7.13988 41.0087 6.73659 40.4837 6.71378H35.439C34.8607 6.71378 34.3965 7.1551 34.3965 7.71055V35.4755C34.4346 35.9701 34.8455 36.3582 35.3629 36.3962Z" fill="black"/>
<path d="M105.639 7.64205V11.6139C105.639 12.2074 106.095 12.6107 106.666 12.6107H115.957L105.281 27.9198C104.635 28.9014 104.627 30.0047 104.627 30.6515V34.6766C104.627 35.2549 105.274 35.9244 105.89 35.5897C111.939 32.3787 119.206 32.6906 124.676 35.5592C125.346 35.9092 125.985 35.232 125.985 34.6538V30.4156C125.932 29.8449 125.742 29.2666 125.042 28.871C121.937 27.1209 118.323 26.6111 114.899 26.6948L124.113 13.539C124.966 12.3596 125.445 11.6139 125.453 11.0432V7.64205C125.453 7.04855 124.996 6.63767 124.425 6.63767H106.643C106.095 6.63767 105.639 7.04094 105.639 7.64205Z" fill="black"/>
<path fill-rule="evenodd" clip-rule="evenodd" d="M140.762 6.12789C148.789 6.12789 153.134 13.0216 153.134 21.7871C153.134 30.2558 148.333 36.9745 140.762 36.9745C132.879 36.9745 128.588 30.0808 128.588 21.4903C128.588 12.8466 132.932 6.12789 140.762 6.12789ZM140.807 11.7965C136.82 11.7965 136.569 17.2293 136.569 20.6153L136.569 20.7399C136.569 24.1828 136.567 31.2526 140.762 31.2526C144.954 31.2526 145.152 25.4089 145.152 21.8479C145.152 19.5044 145.053 16.7043 144.346 14.4825C143.737 12.5498 142.527 11.7965 140.807 11.7965Z" fill="black"/>
<path d="M158.156 36.3962H163.543C164.121 36.3962 164.593 35.9473 164.601 35.3918V20.4403C164.601 18.5685 164.7 16.8793 165.46 15.1825C166.062 13.8434 167.271 12.9607 168.588 12.9607C172.036 12.9607 172.003 16.7459 171.978 19.7161C171.976 19.9641 171.974 20.2064 171.974 20.4403V35.5212C172.027 35.993 172.438 36.3582 172.932 36.3962H178.358C178.89 36.3962 179.339 36.0082 179.4 35.5212V18.0435C179.4 15.3575 179.4 11.6215 177.985 9.39973C176.463 7.00292 174.097 6.12789 171.669 6.12789C167.933 6.12789 165.81 7.93882 164.296 11.7357H164.197V7.48989C164.091 7.05618 163.703 6.73659 163.231 6.71378H158.217C157.669 6.71378 157.22 7.10944 157.174 7.61924L157.182 35.3918C157.182 35.9245 157.616 36.3582 158.156 36.3962Z" fill="black"/>
<path fill-rule="evenodd" clip-rule="evenodd" d="M24.718 36.4495C25.1213 36.6626 25.6387 36.6397 25.9963 36.3202L26.0115 36.3354C27.092 35.3767 29.0551 33.6647 30.1584 32.744C30.5997 32.3787 30.5236 31.7929 30.1736 31.3059C30.0676 31.1591 29.9608 31.0152 29.8548 30.8723C28.9714 29.6817 28.1344 28.5538 28.1344 26.2916V17.8609C28.1344 17.5729 28.136 17.2868 28.1377 17.0028C28.1561 13.7683 28.173 10.8145 25.7528 8.55518C23.6756 6.56164 20.2363 5.86162 17.6036 5.86162C12.46 5.86162 6.71526 7.77907 5.50544 14.1401C5.38369 14.8173 5.87067 15.175 6.31199 15.2739L11.5621 15.8369C12.0491 15.8141 12.4067 15.3347 12.498 14.8478C12.947 12.6564 14.7883 11.5988 16.8504 11.5988C17.9613 11.5988 19.2243 12.0096 19.8863 13.0064C20.5623 14.0033 20.552 15.3311 20.5428 16.5224C20.5417 16.6586 20.5407 16.793 20.5407 16.925V17.625C20.0342 17.6828 19.5025 17.7372 18.9545 17.7933C16.111 18.0842 12.8301 18.4199 10.3675 19.5044C6.98157 20.9653 4.59998 23.9557 4.59998 28.346C4.59998 33.969 8.14573 36.7767 12.6959 36.7767C16.546 36.7767 18.6461 35.8712 21.6135 32.8429C21.7701 33.0681 21.9099 33.275 22.0414 33.4697C22.7409 34.505 23.2065 35.1942 24.718 36.4495ZM20.5409 23.4212C20.5408 23.3261 20.5407 23.2304 20.5407 23.1339V21.9621C16.6297 21.9621 12.498 22.7991 12.498 27.4101C12.498 29.746 13.7079 31.3287 15.7851 31.3287C17.3069 31.3287 18.6689 30.3928 19.5287 28.871C20.5452 27.0849 20.5432 25.4027 20.5409 23.4212Z" fill="black"/>
</svg>
