<svg width="250" height="82" viewBox="0 0 250 82" fill="none" xmlns="http://www.w3.org/2000/svg">
<path d="M239.042 0V0.5H244C247.038 0.5 249.5 2.96243 249.5 6V10.667H250V15.333H249.5V24.667H250V29.333H249.5V38.667H250V43.333H249.5V52.667H250V57.333H249.5V66.667H250V71.333H249.5V76C249.5 79.0376 247.038 81.5 244 81.5H239.042V82H234.083V81.5H224.167V82H219.208V81.5H209.292V82H204.333V81.5H194.417V82H189.458V81.5H179.542V82H174.583V81.5H164.667V82H159.708V81.5H149.792V82H144.833V81.5H134.917V82H129.958V81.5H120.042V82H115.083V81.5H105.167V82H100.208V81.5H90.292V82H85.333V81.5H75.417V82H70.458V81.5H60.542V82H55.583V81.5H45.667V82H40.708V81.5H30.792V82H25.833V81.5H15.917V82H10.958V81.5H6C2.96243 81.5 0.5 79.0376 0.5 76V71.333H0V66.667H0.5V57.333H0V52.667H0.5V43.333H0V38.667H0.5V29.333H0V24.667H0.5V15.333H0V10.667H0.5V6C0.5 2.96243 2.96243 0.5 6 0.5H10.958V0H15.917V0.5H25.833V0H30.792V0.5H40.708V0H45.667V0.5H55.583V0H60.542V0.5H70.458V0H75.417V0.5H85.333V0H90.292V0.5H100.208V0H105.167V0.5H115.083V0H120.042V0.5H129.958V0H134.917V0.5H144.833V0H149.792V0.5H159.708V0H164.667V0.5H174.583V0H179.542V0.5H189.458V0H194.417V0.5H204.333V0H209.292V0.5H219.208V0H224.167V0.5H234.083V0H239.042Z" stroke="#722ED1" stroke-dasharray="10 5"/>
<path d="M63.0432 60.3675C42.8032 70 30.2421 61.9408 22.2014 57.0458C21.7038 56.7373 20.8581 57.1179 21.5919 57.9607C24.2706 61.2088 33.0496 69.0376 44.5086 69.0376C55.9756 69.0376 62.7974 62.7807 63.6507 61.6892C64.4983 60.607 63.8996 60.01 63.043 60.3675H63.0432ZM68.7275 57.2283C68.184 56.5205 65.4225 56.3886 63.6846 56.6021C61.944 56.8094 59.3314 57.8732 59.5585 58.5119C59.6751 58.7512 59.913 58.6438 61.1087 58.5363C62.3077 58.4167 65.6665 57.9928 66.3664 58.9077C67.0696 59.829 65.2951 64.2176 64.9711 64.9254C64.658 65.6331 65.0907 65.8157 65.6788 65.3443C66.2589 64.8731 67.309 63.6527 68.0137 61.9258C68.7136 60.1894 69.1404 57.7672 68.7273 57.2283H68.7275Z" fill="#FF9900"/>
<path fill-rule="evenodd" clip-rule="evenodd" d="M49.434 40.7125C49.434 43.2399 49.4979 45.3476 48.2204 47.5921C47.1893 49.4172 45.5561 50.5394 43.7312 50.5394C41.2402 50.5394 39.7894 48.6415 39.7894 45.8404C39.7894 40.3109 44.7439 39.3073 49.434 39.3073V40.7125ZM55.9762 56.5251C55.5473 56.9082 54.9268 56.9357 54.4433 56.6801C52.29 54.8918 51.9066 54.0616 50.7205 52.3552C47.162 55.9868 44.6437 57.0725 40.0268 57.0725C34.5703 57.0725 30.3183 53.7056 30.3183 46.9626C30.3183 41.698 33.1744 38.112 37.2345 36.3602C40.7567 34.8089 45.6747 34.5352 49.434 34.1065V33.267C49.434 31.7249 49.5525 29.9 48.6493 28.5679C47.8554 27.3726 46.3408 26.8799 45.0085 26.8799C42.5359 26.8799 40.3278 28.1481 39.7894 30.7759C39.6798 31.36 39.2511 31.9349 38.6672 31.9622L32.3712 31.2871C31.8421 31.1683 31.2582 30.7396 31.4042 29.9273C32.8549 22.2995 39.7437 20 45.9117 20C49.0688 20 53.1929 20.8395 55.684 23.2302C58.8411 26.1773 58.5399 30.1099 58.5399 34.3892V44.4991C58.5399 47.5375 59.7991 48.8696 60.9852 50.5121C61.4049 51.096 61.4962 51.7988 60.9669 52.2365C59.6439 53.3405 57.2898 55.3936 55.9942 56.5434L55.976 56.5251" fill="black"/>
<path d="M63.0432 60.3675C42.8032 70 30.2421 61.9408 22.2014 57.0458C21.7038 56.7373 20.8581 57.1179 21.5919 57.9607C24.2706 61.2088 33.0496 69.0376 44.5086 69.0376C55.9756 69.0376 62.7974 62.7807 63.6507 61.6892C64.4983 60.607 63.8996 60.01 63.043 60.3675H63.0432ZM68.7275 57.2283C68.184 56.5205 65.4225 56.3886 63.6846 56.6021C61.944 56.8094 59.3314 57.8732 59.5585 58.5119C59.6751 58.7512 59.913 58.6438 61.1087 58.5363C62.3077 58.4167 65.6665 57.9928 66.3664 58.9077C67.0696 59.829 65.2951 64.2176 64.9711 64.9254C64.658 65.6331 65.0907 65.8157 65.6788 65.3443C66.2589 64.8731 67.309 63.6527 68.0137 61.9258C68.7136 60.1894 69.1404 57.7672 68.7273 57.2283H68.7275Z" fill="#FF9900"/>
<path fill-rule="evenodd" clip-rule="evenodd" d="M49.434 40.7125C49.434 43.2399 49.4979 45.3476 48.2204 47.5921C47.1893 49.4172 45.5561 50.5394 43.7312 50.5394C41.2402 50.5394 39.7894 48.6415 39.7894 45.8404C39.7894 40.3109 44.7439 39.3073 49.434 39.3073V40.7125ZM55.9762 56.5251C55.5473 56.9082 54.9268 56.9357 54.4433 56.6801C52.29 54.8918 51.9066 54.0616 50.7205 52.3552C47.162 55.9868 44.6437 57.0725 40.0268 57.0725C34.5703 57.0725 30.3183 53.7056 30.3183 46.9626C30.3183 41.698 33.1744 38.112 37.2345 36.3602C40.7567 34.8089 45.6747 34.5352 49.434 34.1065V33.267C49.434 31.7249 49.5525 29.9 48.6493 28.5679C47.8554 27.3726 46.3408 26.8799 45.0085 26.8799C42.5359 26.8799 40.3278 28.1481 39.7894 30.7759C39.6798 31.36 39.2511 31.9349 38.6672 31.9622L32.3712 31.2871C31.8421 31.1683 31.2582 30.7396 31.4042 29.9273C32.8549 22.2995 39.7437 20 45.9117 20C49.0688 20 53.1929 20.8395 55.684 23.2302C58.8411 26.1773 58.5399 30.1099 58.5399 34.3892V44.4991C58.5399 47.5375 59.7991 48.8696 60.9852 50.5121C61.4049 51.096 61.4962 51.7988 60.9669 52.2365C59.6439 53.3405 57.2898 55.3936 55.9942 56.5434L55.976 56.5251" fill="black"/>
<g clip-path="url(#clip0_0_103)">
<path d="M168.025 53.5796C162.221 57.8577 153.808 60.1403 146.564 60.1403C136.408 60.1403 127.265 56.3839 120.348 50.1361C119.804 49.6449 120.291 48.9753 120.943 49.3579C128.408 53.7013 137.639 56.3143 147.173 56.3143C153.603 56.3143 160.677 54.9839 167.181 52.223C168.164 51.8056 168.986 52.8665 168.025 53.5796Z" fill="#FF9900"/>
<path d="M170.438 50.8187C169.699 49.8709 165.533 50.3709 163.664 50.5926C163.094 50.6623 163.007 50.1666 163.52 49.8101C166.838 47.4754 172.281 48.1492 172.916 48.9318C173.551 49.7188 172.751 55.1752 169.633 57.7795C169.155 58.1795 168.699 57.9664 168.912 57.4359C169.612 55.6882 171.181 51.7709 170.438 50.8187Z" fill="#FF9900"/>
<path d="M163.793 33.3278V31.0583C163.793 30.7148 164.054 30.4844 164.367 30.4844H174.528C174.854 30.4844 175.115 30.7192 175.115 31.0583V33.0017C175.11 33.3278 174.836 33.7539 174.35 34.4278L169.084 41.945C171.041 41.8972 173.106 42.1885 174.88 43.1885C175.28 43.4145 175.389 43.745 175.419 44.071V46.4927C175.419 46.8232 175.054 47.2101 174.671 47.01C171.545 45.371 167.393 45.1928 163.937 47.0275C163.584 47.2188 163.215 46.8363 163.215 46.5058V44.2058C163.215 43.8363 163.219 43.2058 163.589 42.645L169.689 33.8973H164.38C164.054 33.8973 163.793 33.6669 163.793 33.3278Z" fill="#221F1F"/>
<path d="M126.73 47.4881H123.638C123.343 47.4664 123.108 47.2447 123.086 46.9621V31.0972C123.086 30.7798 123.351 30.5276 123.682 30.5276H126.564C126.864 30.5407 127.103 30.7711 127.125 31.0581V33.1319H127.182C127.934 31.1276 129.347 30.1929 131.251 30.1929C133.186 30.1929 134.395 31.1276 135.264 33.1319C136.012 31.1276 137.712 30.1929 139.533 30.1929C140.829 30.1929 142.247 30.7276 143.112 31.9276C144.09 33.2624 143.89 35.2015 143.89 36.9014L143.886 46.9143C143.886 47.2316 143.62 47.4881 143.29 47.4881H140.203C139.894 47.4664 139.647 47.2186 139.647 46.9143V38.5057C139.647 37.8362 139.707 36.1667 139.56 35.5319C139.329 34.4667 138.638 34.1667 137.742 34.1667C136.995 34.1667 136.212 34.6667 135.895 35.4667C135.577 36.2667 135.608 37.6058 135.608 38.5057V46.9143C135.608 47.2316 135.342 47.4881 135.012 47.4881H131.925C131.612 47.4664 131.368 47.2186 131.368 46.9143L131.364 38.5057C131.364 36.7362 131.655 34.1319 129.46 34.1319C127.238 34.1319 127.325 36.671 127.325 38.5057V46.9143C127.325 47.2316 127.06 47.4881 126.73 47.4881Z" fill="#221F1F"/>
<path d="M183.863 30.1929C188.45 30.1929 190.932 34.1319 190.932 39.1405C190.932 43.9795 188.189 47.8186 183.863 47.8186C179.358 47.8186 176.906 43.8795 176.906 38.971C176.906 34.0319 179.389 30.1929 183.863 30.1929ZM183.889 33.4319C181.611 33.4319 181.467 36.5362 181.467 38.471C181.467 40.4101 181.437 44.5491 183.863 44.5491C186.258 44.5491 186.371 41.21 186.371 39.1753C186.371 37.8362 186.315 36.2362 185.91 34.9667C185.563 33.8624 184.871 33.4319 183.889 33.4319Z" fill="#221F1F"/>
<path d="M196.879 47.4881H193.801C193.492 47.4664 193.245 47.2186 193.245 46.9143L193.24 31.045C193.266 30.7537 193.523 30.5276 193.836 30.5276H196.701C196.971 30.5407 197.192 30.7233 197.253 30.9711V33.3972H197.31C198.175 31.2276 199.388 30.1929 201.523 30.1929C202.91 30.1929 204.262 30.6929 205.131 32.0624C205.94 33.3319 205.94 35.4667 205.94 37.0014V46.9881C205.905 47.2664 205.649 47.4881 205.344 47.4881H202.244C201.962 47.4664 201.727 47.2578 201.697 46.9881V38.371C201.697 36.6362 201.897 34.0971 199.762 34.0971C199.01 34.0971 198.318 34.6015 197.975 35.3667C197.54 36.3362 197.484 37.3014 197.484 38.371V46.9143C197.479 47.2316 197.21 47.4881 196.879 47.4881Z" fill="#221F1F"/>
<path d="M115.169 39.9101V39.2406C112.934 39.2406 110.573 39.7188 110.573 42.3536C110.573 43.6883 111.265 44.5926 112.452 44.5926C113.321 44.5926 114.099 44.0579 114.591 43.1883C115.199 42.1188 115.169 41.1145 115.169 39.9101ZM118.286 47.4447C118.082 47.6273 117.786 47.6404 117.556 47.5187C116.53 46.6665 116.347 46.2709 115.782 45.4578C114.086 47.1882 112.886 47.7056 110.686 47.7056C108.086 47.7056 106.06 46.1013 106.06 42.8883C106.06 40.3797 107.421 38.671 109.356 37.8363C111.034 37.0971 113.378 36.9667 115.169 36.7624V36.3624C115.169 35.6276 115.225 34.7581 114.795 34.1233C114.417 33.5537 113.695 33.319 113.06 33.319C111.882 33.319 110.83 33.9233 110.573 35.1754C110.521 35.4537 110.317 35.7276 110.039 35.7407L107.039 35.4189C106.786 35.3624 106.508 35.1581 106.578 34.7711C107.269 31.1364 110.552 30.0408 113.491 30.0408C114.995 30.0408 116.96 30.4408 118.147 31.5799C119.651 32.9842 119.508 34.8581 119.508 36.8972V41.7144C119.508 43.1622 120.108 43.797 120.673 44.5796C120.873 44.8579 120.917 45.1926 120.664 45.4013C120.034 45.9274 118.912 46.9056 118.295 47.4535L118.286 47.4447Z" fill="#221F1F"/>
<path d="M155.241 39.9101V39.2406C153.006 39.2406 150.646 39.7188 150.646 42.3536C150.646 43.6883 151.337 44.5926 152.524 44.5926C153.393 44.5926 154.172 44.0579 154.663 43.1883C155.272 42.1188 155.241 41.1145 155.241 39.9101ZM158.359 47.4447C158.154 47.6273 157.859 47.6404 157.628 47.5187C156.602 46.6665 156.419 46.2709 155.854 45.4578C154.159 47.1882 152.959 47.7056 150.759 47.7056C148.159 47.7056 146.133 46.1013 146.133 42.8883C146.133 40.3797 147.494 38.671 149.428 37.8363C151.106 37.0971 153.45 36.9667 155.241 36.7624V36.3624C155.241 35.6276 155.298 34.7581 154.867 34.1233C154.489 33.5537 153.767 33.319 153.133 33.319C151.954 33.319 150.902 33.9233 150.646 35.1754C150.593 35.4537 150.389 35.7276 150.111 35.7407L147.111 35.4189C146.859 35.3624 146.58 35.1581 146.65 34.7711C147.341 31.1364 150.624 30.0408 153.563 30.0408C155.067 30.0408 157.033 30.4408 158.219 31.5799C159.724 32.9842 159.58 34.8581 159.58 36.8972V41.7144C159.58 43.1622 160.18 43.797 160.745 44.5796C160.945 44.8579 160.989 45.1926 160.737 45.4013C160.106 45.9274 158.985 46.9056 158.367 47.4535L158.359 47.4447Z" fill="#221F1F"/>
</g>
<defs>
<clipPath id="clip0_0_103">
<rect width="100" height="30.1824" fill="white" transform="translate(106 30)"/>
</clipPath>
</defs>
</svg>
