<svg width="135" height="88" viewBox="0 0 135 88" fill="none" xmlns="http://www.w3.org/2000/svg">
<path d="M7.57534 5.72202V9.78234H12.3357V5.72202H13.5958V15.3828H12.3357V10.7624H7.57534V15.3828H6.31523V5.72202H7.57534Z" fill="#606164"/>
<path d="M20.0363 11.1825C20.0363 10.3424 19.7563 9.08228 18.2162 9.08228C17.0961 9.2223 16.5361 10.3424 16.396 11.1825H20.0363ZM16.396 12.1625C16.396 13.8427 17.5161 14.5427 18.7762 14.5427C19.6163 14.5427 20.1763 14.4027 20.7364 14.1227L21.0164 14.9628C20.5964 15.1028 19.7563 15.3828 18.6362 15.3828C16.5361 15.3828 15.2759 13.9827 15.2759 11.8825C15.2759 9.78234 16.5361 8.10221 18.4962 8.10221C20.7364 8.10221 21.4364 10.0624 21.4364 11.3225C21.4364 11.6025 21.4364 11.7425 21.4364 11.8825H16.396V12.1625Z" fill="#606164"/>
<path d="M24.0967 5.16197H22.8366V15.3828H24.0967V5.16197Z" fill="#606164"/>
<path d="M27.4569 12.5826C27.4569 12.7226 27.4569 13.0026 27.4569 13.1426C27.7369 13.9827 28.437 14.6827 29.4171 14.6827C30.8172 14.6827 31.5172 13.5626 31.5172 12.0225C31.5172 10.6224 30.8172 9.50232 29.4171 9.50232C28.577 9.50232 27.7369 10.0624 27.4569 11.0424C27.4569 11.1825 27.3169 11.3225 27.3169 11.6025V12.5826H27.4569ZM26.1968 10.6224C26.1968 9.78234 26.1968 9.08228 26.1968 8.38223H27.3169L27.4569 9.64233C28.017 8.80226 28.857 8.24222 29.9771 8.24222C31.6573 8.24222 32.9174 9.64233 32.9174 11.7425C32.9174 14.2627 31.3772 15.5228 29.6971 15.5228C28.717 15.5228 28.017 15.1028 27.5969 14.4027L27.3169 18.183H26.0568L26.1968 10.6224Z" fill="#606164"/>
<path d="M38.7978 5.72202V11.4625C38.7978 13.5626 39.7779 14.5427 41.038 14.5427C42.4381 14.5427 43.4182 13.5626 43.4182 11.4625V5.72202H44.6783V11.3225C44.6783 14.2627 43.1382 15.5228 41.038 15.5228C39.0779 15.5228 37.5377 14.4027 37.5377 11.3225V5.72202H38.7978Z" fill="#606164"/>
<path d="M46.4984 14.1227C46.9185 14.4027 47.4785 14.5427 48.1786 14.5427C49.0186 14.5427 49.5787 14.1227 49.5787 13.5626C49.5787 13.0026 49.1587 12.5826 48.3186 12.3025C47.0585 11.8825 46.4984 11.1825 46.4984 10.3424C46.4984 9.2223 47.4785 8.24222 48.8786 8.24222C49.5787 8.24222 50.1387 8.38223 50.5588 8.66225L50.2787 9.64233C49.9987 9.50232 49.4387 9.2223 48.8786 9.2223C48.1786 9.2223 47.7585 9.64233 47.7585 10.2024C47.7585 10.7624 48.1786 11.0424 49.0186 11.4625C50.1387 11.7425 50.6988 12.4426 50.6988 13.4226C50.6988 14.6827 49.7187 15.5228 48.1786 15.5228C47.4785 15.5228 46.7785 15.3828 46.2184 15.1028L46.4984 14.1227Z" fill="#606164"/>
<path d="M55.3191 13.8427C55.8792 14.2627 56.7193 14.5427 57.5593 14.5427C58.8194 14.5427 59.5195 13.8427 59.5195 12.8626C59.5195 12.0225 58.9594 11.4625 57.6993 10.9024C56.1592 10.3424 55.1791 9.50232 55.1791 8.10221C55.1791 6.56208 56.4392 5.44199 58.2594 5.44199C59.2395 5.44199 59.9395 5.72202 60.3596 5.86203L60.0795 6.98212C59.7995 6.84211 59.0994 6.56208 58.2594 6.56208C56.9993 6.56208 56.4392 7.40215 56.4392 7.9622C56.4392 8.80226 56.9993 9.36231 58.3994 9.78234C60.0795 10.4824 60.9196 11.1825 60.9196 12.5826C60.9196 14.1227 59.7995 15.3828 57.5593 15.3828C56.5793 15.3828 55.5992 15.1028 55.0391 14.6827L55.3191 13.8427Z" fill="#606164"/>
<path d="M63.2998 11.8825C63.2998 13.4226 64.1399 14.5427 65.4 14.5427C66.6601 14.5427 67.5001 13.4226 67.5001 11.8825C67.5001 10.7624 66.9401 9.2223 65.4 9.2223C63.9998 9.2223 63.2998 10.6224 63.2998 11.8825ZM68.9002 11.8825C68.9002 14.4027 67.0801 15.5228 65.4 15.5228C63.5798 15.5228 62.0397 14.1227 62.0397 11.8825C62.0397 9.64233 63.5798 8.24222 65.54 8.24222C67.5001 8.24222 68.9002 9.78234 68.9002 11.8825Z" fill="#606164"/>
<path d="M71.7005 5.16197H70.4404V15.3828H71.7005V5.16197Z" fill="#606164"/>
<path d="M74.3607 8.38223L75.7608 12.3025C76.0408 13.0026 76.1808 13.5626 76.3208 14.1227C76.4608 13.5626 76.7409 13.0026 76.8809 12.3025L78.281 8.38223H79.5411L76.8809 15.3828H75.6208L72.9606 8.38223H74.3607Z" fill="#606164"/>
<path d="M85.0015 11.1825C85.0015 10.3424 84.7215 9.08228 83.3214 9.08228C82.0613 9.08228 81.5012 10.2024 81.3612 11.1825H85.0015ZM81.3612 12.1625C81.3612 13.8427 82.4813 14.5427 83.7414 14.5427C84.5815 14.5427 85.1415 14.4027 85.7016 14.1227L85.9816 14.9628C85.5616 15.1028 84.7215 15.3828 83.6014 15.3828C81.5012 15.3828 80.2411 13.9827 80.2411 11.8825C80.2411 9.78234 81.5012 8.10221 83.4614 8.10221C85.7016 8.10221 86.4016 10.0624 86.4016 11.3225C86.4016 11.6025 86.4016 11.7425 86.4016 11.8825H81.3612V12.1625Z" fill="#606164"/>
<path d="M6.31523 21.1232H3.375V20.0032H10.5156V21.1232H7.57534V29.6639H6.31523V21.1232Z" fill="#606164"/>
<path d="M11.4956 19.5831H12.7557V23.9235C12.8958 23.5034 13.3158 23.2234 13.5958 23.0834C14.0158 22.8034 14.4359 22.8034 14.8559 22.8034C15.836 22.8034 17.2361 23.3634 17.2361 25.7436V29.9439H16.116V25.8836C16.116 24.7635 15.696 23.7835 14.5759 23.7835C13.7358 23.7835 13.1758 24.3435 12.8958 25.0436C12.7557 25.1836 12.7557 25.4636 12.7557 25.6036V29.8039H11.4956V19.5831Z" fill="#606164"/>
<path d="M23.9566 25.6036C23.9566 24.7635 23.6766 23.5034 22.1365 23.5034C20.8764 23.5034 20.3164 24.6235 20.1763 25.6036H23.9566ZM20.1763 26.4437C20.1763 28.1238 21.2964 28.8239 22.5565 28.8239C23.3966 28.8239 23.9566 28.6838 24.5167 28.4038L24.7967 29.2439C24.3767 29.3839 23.5366 29.6639 22.4165 29.6639C20.3164 29.6639 19.0563 28.2638 19.0563 26.1636C19.0563 24.0635 20.3164 22.3833 22.2765 22.3833C24.5167 22.3833 25.2167 24.3435 25.2167 25.6036C25.2167 25.8836 25.2167 26.0236 25.2167 26.1636H20.1763V26.4437Z" fill="#606164"/>
<path d="M36.5577 29.3839C36.1376 29.6639 35.1575 29.8039 34.0374 29.8039C31.3772 29.8039 29.2771 28.1238 29.2771 24.9035C29.2771 21.8233 31.3772 19.8631 34.3175 19.8631C35.5776 19.8631 36.2776 20.1432 36.5577 20.2832L36.2776 21.2633C35.8576 20.9832 35.1575 20.8432 34.3175 20.8432C32.0773 20.8432 30.5372 22.2433 30.5372 24.9035C30.5372 27.2837 31.9373 28.8239 34.1775 28.8239C35.0175 28.8239 35.7176 28.6838 36.2776 28.4038L36.5577 29.3839Z" fill="#606164"/>
<path d="M37.9578 24.9035C37.9578 24.0635 37.9578 23.3634 37.9578 22.8034H39.0779V24.2035C39.3579 23.2234 40.1979 22.6634 41.038 22.6634C41.178 22.6634 41.318 22.6634 41.318 22.6634V23.9235C41.178 23.9235 41.038 23.9235 40.898 23.9235C40.0579 23.9235 39.3579 24.6235 39.2179 25.6036C39.2179 25.7436 39.2179 26.0236 39.2179 26.1636V29.8039H37.9578V24.9035Z" fill="#606164"/>
<path d="M48.4586 27.8438C48.4586 28.5438 48.4586 29.2439 48.4586 29.8039H47.3385L47.1985 28.6838C46.9185 29.2439 46.0784 29.9439 44.9583 29.9439C43.8382 29.9439 42.5781 29.3839 42.5781 26.8637V22.8034H43.8382V26.5837C43.8382 27.8438 44.2583 28.8239 45.3784 28.8239C46.2184 28.8239 46.7785 28.2638 47.0585 27.7038C47.0585 27.5638 47.1985 27.2837 47.1985 27.0037V22.8034H48.4586V27.8438Z" fill="#606164"/>
<path d="M55.0391 25.6036C55.0391 24.7635 54.7591 23.5034 53.359 23.5034C52.0989 23.5034 51.5388 24.6235 51.3988 25.6036H55.0391ZM51.2588 26.4437C51.2588 28.1238 52.3789 28.8239 53.639 28.8239C54.4791 28.8239 55.0391 28.6838 55.5992 28.4038L55.8792 29.2439C55.4592 29.3839 54.6191 29.6639 53.499 29.6639C51.3988 29.6639 50.1387 28.2638 50.1387 26.1636C50.1387 24.0635 51.3988 22.3833 53.359 22.3833C55.5992 22.3833 56.2992 24.3435 56.2992 25.6036C56.2992 25.8836 56.2992 26.0236 56.2992 26.1636H51.2588V26.4437Z" fill="#606164"/>
<path d="M59.0994 19.5831H57.8393V29.8039H59.0994V19.5831Z" fill="#606164"/>
<path d="M72.4005 25.4636C72.2605 24.0635 72.2605 22.5234 72.2605 21.2633C71.9805 22.3833 71.5604 23.6434 71.0004 24.9035L69.3203 29.6639H68.3402L66.8001 25.0436C66.38 23.6434 65.96 22.3833 65.68 21.2633C65.68 22.5234 65.54 24.0635 65.54 25.6036L65.2599 29.8039H63.9998L64.6999 20.1432H66.24L67.9202 24.7635C68.3402 26.0236 68.6202 27.0037 68.9002 27.9838C69.1803 27.0037 69.4603 25.8836 69.8803 24.7635L71.5604 20.1432H73.1006L73.6606 29.8039H72.4005V25.4636Z" fill="#606164"/>
<path d="M76.3208 22.8034L77.8609 26.8637C78.001 27.2837 78.141 27.8438 78.281 28.2638C78.421 27.8438 78.561 27.2837 78.701 26.8637L80.1011 22.8034H81.5012L79.5411 27.7038C78.701 30.084 78.001 31.3441 77.1609 32.0441C76.4608 32.6042 75.9008 32.7442 75.6208 32.8842L75.3407 31.9041C75.6208 31.7641 76.0408 31.6241 76.4608 31.3441C76.7409 31.064 77.1609 30.644 77.5809 29.9439C77.5809 29.8039 77.7209 29.6639 77.7209 29.6639C77.7209 29.5239 77.7209 29.5239 77.5809 29.3839L75.0607 22.9434H76.3208V22.8034Z" fill="#606164"/>
<path d="M82.3413 28.4038C82.7613 28.6838 83.3214 28.8239 84.0214 28.8239C84.8615 28.8239 85.4216 28.4038 85.4216 27.8438C85.4216 27.2837 85.0015 26.8637 84.1615 26.5837C82.9014 26.1636 82.3413 25.4636 82.3413 24.6235C82.3413 23.5034 83.3214 22.5234 84.7215 22.5234C85.4216 22.5234 85.9816 22.6634 86.4016 22.9434L86.1216 23.9235C85.8416 23.7835 85.2815 23.5034 84.7215 23.5034C84.0214 23.5034 83.6014 23.9235 83.6014 24.4835C83.6014 25.0436 84.0214 25.3236 84.8615 25.7436C86.1216 26.1636 86.6817 26.7237 86.6817 27.8438C86.6817 29.1039 85.7016 29.9439 84.1615 29.9439C83.4614 29.9439 82.7613 29.8039 82.2013 29.5239L82.3413 28.4038Z" fill="#606164"/>
<path d="M89.7619 21.1232V22.8034H91.582V23.7835H89.7619V27.5638C89.7619 28.4038 90.0419 28.9639 90.742 28.9639C91.022 28.9639 91.302 28.9639 91.442 28.8239V29.8039C91.162 29.9439 90.742 29.9439 90.3219 29.9439C89.7619 29.9439 89.2019 29.8039 88.9218 29.3839C88.6418 28.9639 88.5018 28.4038 88.5018 27.5638V23.7835H87.3817V22.8034H88.5018V21.5433L89.7619 21.1232Z" fill="#606164"/>
<path d="M97.3225 25.6036C97.3225 24.7635 97.0425 23.5034 95.5024 23.5034C94.2423 23.5034 93.6822 24.6235 93.5422 25.6036H97.3225ZM93.6822 26.4437C93.6822 28.1238 94.8023 28.8239 96.0624 28.8239C96.9025 28.8239 97.4625 28.6838 98.0226 28.4038L98.3026 29.2439C97.8826 29.3839 97.0425 29.6639 95.9224 29.6639C93.8222 29.6639 92.5621 28.2638 92.5621 26.1636C92.5621 24.0635 93.8222 22.3833 95.7824 22.3833C98.0226 22.3833 98.7226 24.3435 98.7226 25.6036C98.7226 25.8836 98.7226 26.0236 98.7226 26.1636H93.6822V26.4437Z" fill="#606164"/>
<path d="M100.123 24.9035C100.123 24.0635 100.123 23.3634 100.123 22.8034H101.243V24.2035C101.523 23.2234 102.363 22.6634 103.203 22.6634C103.343 22.6634 103.483 22.6634 103.483 22.6634V23.9235C103.343 23.9235 103.203 23.9235 103.063 23.9235C102.223 23.9235 101.523 24.6235 101.383 25.6036C101.383 25.7436 101.383 26.0236 101.383 26.1636V29.8039H100.123V24.9035Z" fill="#606164"/>
<path d="M105.583 22.8034L107.123 26.8637C107.263 27.2837 107.403 27.8438 107.543 28.2638C107.683 27.8438 107.823 27.2837 107.963 26.8637L109.363 22.8034H110.764L108.803 27.7038C107.963 30.084 107.263 31.3441 106.423 32.0441C105.723 32.6042 105.163 32.7442 104.883 32.8842L104.603 31.9041C104.883 31.7641 105.303 31.6241 105.723 31.3441C106.003 31.064 106.423 30.644 106.843 29.9439C106.843 29.8039 106.983 29.6639 106.983 29.6639C106.983 29.5239 106.983 29.5239 106.843 29.3839L104.323 22.9434H105.583V22.8034Z" fill="#606164"/>
<path d="M6.31494 76.5675H9.67521V77.5476H7.43503V79.0877H9.5352V79.9278H7.43503V82.448H6.31494V76.5675Z" fill="#606164"/>
<path d="M12.4754 79.5078C12.4754 80.6279 13.0355 81.6079 14.0156 81.6079C14.9956 81.6079 15.5557 80.6279 15.5557 79.5078C15.5557 78.3877 14.9956 77.4076 14.0156 77.4076C13.0355 77.4076 12.4754 78.3877 12.4754 79.5078ZM16.8158 79.5078C16.8158 81.4679 15.6957 82.588 14.0156 82.588C12.3354 82.588 11.3553 81.3279 11.3553 79.6478C11.3553 77.8276 12.4754 76.5675 14.1556 76.5675C15.8357 76.5675 16.8158 77.8276 16.8158 79.5078Z" fill="#606164"/>
<path d="M19.756 79.9278C19.756 81.0479 20.176 81.6079 20.8761 81.6079C21.5762 81.6079 22.1362 81.0479 22.1362 79.9278V76.5675H23.2563V79.7878C23.2563 81.6079 22.2762 82.308 21.0161 82.308C19.616 82.308 18.7759 81.6079 18.7759 79.7878V76.4275H19.756V79.9278Z" fill="#606164"/>
<path d="M25.3565 82.448V76.7075H26.6166L28.1567 79.2277C28.5767 79.9278 28.8567 80.4879 29.1368 81.1879C28.9968 80.4879 28.9967 79.6478 28.9967 78.8077V76.8476H29.9768V82.588H28.8567L27.3166 79.7878C26.8966 79.0877 26.6166 78.3877 26.3365 77.8276C26.3365 78.5277 26.3365 79.3678 26.3365 80.3478V82.448H25.3565Z" fill="#606164"/>
<path d="M33.0571 81.6079C33.1971 81.6079 33.4771 81.6079 33.6171 81.6079C35.0172 81.6079 35.8573 80.9079 35.8573 79.3678C35.8573 78.1077 35.1572 77.4076 33.7571 77.4076C33.4771 77.4076 33.1971 77.4076 33.0571 77.4076V81.6079ZM32.077 76.7075C32.497 76.7075 33.1971 76.5675 33.7571 76.5675C34.8772 76.5675 35.5773 76.8476 36.1373 77.2676C36.6974 77.6876 36.9774 78.3877 36.9774 79.3678C36.9774 80.3478 36.6974 81.1879 36.1373 81.6079C35.5773 82.168 34.5972 82.448 33.4771 82.448C32.9171 82.448 32.357 82.448 32.077 82.308V76.7075Z" fill="#606164"/>
<path d="M41.5978 79.9278L41.1777 78.5277C41.0377 78.2477 41.0377 77.8276 40.8977 77.4076C40.7577 77.6876 40.7577 78.1077 40.6177 78.5277L40.1976 79.9278H41.5978ZM39.9176 80.7679L39.3576 82.448H38.2375L40.0576 76.7075H41.4577L43.2779 82.448H42.2978L41.7378 80.7679H39.9176Z" fill="#606164"/>
<path d="M45.5181 77.5476H43.9779V76.5675H48.3183V77.5476H46.6382V82.448H45.5181V77.5476Z" fill="#606164"/>
<path d="M51.1185 76.5675H49.9984V82.308H51.1185V76.5675Z" fill="#606164"/>
<path d="M54.0588 79.5078C54.0588 80.6279 54.6188 81.6079 55.5989 81.6079C56.579 81.6079 57.139 80.6279 57.139 79.5078C57.139 78.3877 56.579 77.4076 55.5989 77.4076C54.4788 77.4076 54.0588 78.3877 54.0588 79.5078ZM58.2591 79.5078C58.2591 81.4679 57.139 82.588 55.4589 82.588C53.7787 82.588 52.7986 81.3279 52.7986 79.6478C52.7986 77.8276 53.9187 76.5675 55.5989 76.5675C57.279 76.5675 58.2591 77.8276 58.2591 79.5078Z" fill="#606164"/>
<path d="M60.2192 82.448V76.7075H61.4793L63.0195 79.2277C63.4395 79.9278 63.7195 80.4879 63.9995 81.1879C63.8595 80.4879 63.8595 79.6478 63.8595 78.8077V76.8476H64.6996V82.588H63.5795L62.1794 79.7878C61.7594 79.0877 61.4793 78.3877 61.1993 77.8276C61.1993 78.5277 61.1993 79.3678 61.1993 80.3478V82.448H60.2192Z" fill="#606164"/>
<path d="M70.4401 79.5078C70.4401 80.6279 71.0001 81.6079 71.9802 81.6079C72.9603 81.6079 73.5203 80.6279 73.5203 79.5078C73.5203 78.3877 72.9603 77.4076 71.9802 77.4076C71.0001 77.4076 70.4401 78.3877 70.4401 79.5078ZM74.7804 79.5078C74.7804 81.4679 73.6603 82.588 71.9802 82.588C70.3001 82.588 69.32 81.3279 69.32 79.6478C69.32 77.8276 70.4401 76.5675 72.1202 76.5675C73.8003 76.5675 74.7804 77.8276 74.7804 79.5078Z" fill="#606164"/>
<path d="M76.6006 76.5675H79.9608V77.5476H77.7206V79.0877H79.8208V79.9278H77.7206V82.448H76.6006V76.5675Z" fill="#606164"/>
<path d="M87.5214 79.9278L87.1014 78.5277C86.9614 78.2477 86.9614 77.8276 86.8214 77.4076C86.6814 77.6876 86.6814 78.1077 86.5413 78.5277L86.1213 79.9278H87.5214ZM85.8413 80.7679L85.2812 82.448H84.3012L86.1213 76.7075H87.5214L89.3416 82.448H88.2215L87.6614 80.7679H85.8413Z" fill="#606164"/>
<path d="M96.0621 80.0678C96.0621 79.3678 95.9221 78.3877 96.0621 77.6876C95.6421 78.3877 95.5021 79.0877 95.222 79.7878L94.382 82.308H93.5419L92.8419 79.7878C92.5618 79.0877 92.4218 78.2477 92.2818 77.5476C92.2818 78.2477 92.2818 79.2278 92.1418 80.0678L92.0018 82.448H91.0217L91.4417 76.7075H92.8419L93.5419 79.0877C93.6819 79.7878 93.9619 80.4879 94.102 81.0479C94.242 80.4879 94.382 79.6478 94.662 79.0877L95.5021 76.8476H96.9022L97.1822 82.588H96.2021L96.0621 80.0678Z" fill="#606164"/>
<path d="M102.363 79.7878H100.262V81.4679H102.643V82.448H99.1423V76.5675H102.503V77.5476H100.262V78.9477H102.363V79.7878Z" fill="#606164"/>
<path d="M106.143 79.2277C106.843 79.2277 107.263 78.8077 107.263 78.2477C107.263 77.6876 106.843 77.2676 106.143 77.2676C105.863 77.2676 105.583 77.2676 105.443 77.2676V79.2277H106.143ZM104.603 76.7075C105.023 76.5675 105.583 76.5675 106.143 76.5675C106.983 76.5675 107.543 76.7075 107.963 76.9876C108.243 77.2676 108.523 77.6876 108.523 78.1077C108.523 78.8077 107.963 79.3678 107.403 79.5078C107.823 79.6478 108.103 80.0678 108.243 80.6279C108.383 81.3279 108.523 82.028 108.663 82.168H107.543C107.403 82.028 107.263 81.4679 107.123 80.7679C106.983 80.0678 106.703 79.7878 106.143 79.7878H105.583V82.168H104.603V76.7075Z" fill="#606164"/>
<path d="M111.463 76.5675H110.343V82.308H111.463V76.5675Z" fill="#606164"/>
<path d="M117.764 82.168C117.484 82.308 116.924 82.448 116.224 82.448C114.404 82.448 113.283 81.3279 113.283 79.5078C113.283 77.5476 114.544 76.4275 116.364 76.4275C117.064 76.4275 117.484 76.5675 117.764 76.7075L117.484 77.5476C117.204 77.4076 116.784 77.2676 116.364 77.2676C115.244 77.2676 114.404 77.9676 114.404 79.3678C114.404 80.6279 115.104 81.4679 116.364 81.4679C116.784 81.4679 117.204 81.3279 117.484 81.3279L117.764 82.168Z" fill="#606164"/>
<path d="M122.524 79.9278L122.104 78.5277C121.964 78.2477 121.964 77.8276 121.824 77.4076C121.684 77.6876 121.684 78.1077 121.544 78.5277L121.124 79.9278H122.524ZM120.844 80.7679L120.284 82.448H119.304L121.124 76.7075H122.524L124.344 82.448H123.224L122.664 80.7679H120.844Z" fill="#606164"/>
<path d="M6.31494 38.2047H12.8955V61.3066H24.6564V67.6071H6.31494V38.2047Z" fill="#7A2A82"/>
<path d="M33.1971 38.2047V55.1461C33.1971 60.1865 35.1572 62.8467 38.5175 62.8467C42.0178 62.8467 43.9779 60.4665 43.9779 55.1461V38.2047H50.5585V54.7261C50.5585 63.8268 45.9381 68.1671 38.3775 68.1671C30.9569 68.1671 26.6166 63.9668 26.6166 54.7261V38.2047H33.1971Z" fill="#7A2A82"/>
<path d="M83.7411 38.2047V55.1461C83.7411 60.1865 85.7013 62.8467 89.0615 62.8467C92.5618 62.8467 94.522 60.4665 94.522 55.1461V38.2047H101.103V54.7261C101.103 63.8268 96.4821 68.1671 88.7815 68.1671C81.3609 68.1671 77.0206 63.9668 77.0206 54.7261V38.2047H83.7411Z" fill="#7A2A82"/>
<path d="M54.6188 38.2047V43.9452C63.9995 41.705 67.2198 43.8052 67.2198 47.3055C67.2198 50.3857 64.8396 52.9059 54.6188 51.2258V59.6265H60.9193V56.6862C70.8601 57.8063 74.0804 52.2059 74.0804 47.7255C73.9403 40.865 70.4401 35.9646 54.6188 38.2047Z" fill="#7A2A82"/>
<path d="M54.6188 67.4671H60.7793V61.3066H54.6188V67.4671Z" fill="#7A2A82"/>
<path d="M126.025 38.4848H124.904V38.2047H127.425V38.4848H126.305V41.705H126.025V38.4848Z" fill="#7A2A82"/>
<path d="M131.205 40.0249C131.205 39.4648 131.065 38.9048 131.065 38.4848C130.925 38.9048 130.785 39.3248 130.645 39.7449L129.945 41.705H129.805L129.105 39.8849C128.965 39.3248 128.825 38.9048 128.685 38.4848C128.685 38.9048 128.685 39.4648 128.545 40.0249L128.405 41.705H128.125L128.405 38.2047H128.685L129.385 40.1649C129.525 40.5849 129.665 41.005 129.805 41.285C129.945 41.005 130.085 40.5849 130.225 40.1649L131.065 38.2047H131.345L131.625 41.705H131.345L131.205 40.0249Z" fill="#7A2A82"/>
<path d="M115.524 49.8257C112.023 48.5656 110.903 48.0055 110.903 46.3254C110.903 44.2252 112.443 43.3852 115.524 43.3852C118.324 43.3852 122.244 44.5052 123.924 45.7653V39.1848C122.244 38.2047 119.304 37.6447 115.944 37.6447C107.823 37.6447 104.183 41.565 104.183 46.7454C104.183 50.9458 105.863 53.466 111.883 55.2861C115.664 56.4062 117.764 57.2463 117.624 59.6265C117.624 61.0266 116.224 62.4267 113.143 62.4267C110.343 62.4267 106.143 61.0266 104.323 60.1865V66.347C106.003 67.3271 109.223 68.1671 112.583 68.1671C120.704 68.1671 124.204 63.9668 124.344 59.0664C124.624 54.026 121.964 51.7858 115.524 49.8257Z" fill="#7A2A82"/>
</svg>
