<svg width="154" height="77" viewBox="0 0 154 77" fill="none" xmlns="http://www.w3.org/2000/svg">
<path d="M18.0755 11.0637C17.3371 10.3225 16.3128 9.86585 15.1709 9.86585C14.0318 9.86585 13.0154 10.3225 12.2864 11.0637H12.2677C11.5315 11.7999 11.0749 12.8271 11.0749 13.9618C11.0749 15.103 11.5315 16.1238 12.2677 16.8528L12.2864 16.8729C13.0154 17.6076 14.0318 18.0578 15.1709 18.0578C16.3128 18.0578 17.3371 17.6076 18.0755 16.8729L18.0841 16.8528C18.8231 16.1238 19.274 15.103 19.274 13.9618C19.274 12.8271 18.8231 11.7999 18.0841 11.0637H18.0755ZM15.1709 67.1341C16.3128 67.1341 17.3371 66.6689 18.0755 65.9413L18.0841 65.9198C18.8231 65.1937 19.274 64.1665 19.274 63.0374C19.274 61.8962 18.8231 60.8741 18.0841 60.1343H18.0755C17.3371 59.3859 16.3128 58.9336 15.1709 58.9336C14.0318 58.9336 13.0154 59.3859 12.2864 60.1343H12.2677C11.5315 60.8741 11.0749 61.8962 11.0749 63.0374C11.0749 64.1665 11.5315 65.1937 12.2677 65.9198L12.2864 65.9413C13.0154 66.6689 14.0318 67.1341 15.1709 67.1341ZM37.4879 54.7236C38.5023 54.457 39.4205 53.8061 39.9818 52.8212L40.0571 52.6771C40.556 51.7445 40.647 50.6664 40.3804 49.7094C40.1115 48.6879 39.4535 47.7819 38.4707 47.2177L38.4127 47.179C37.455 46.6529 36.3654 46.5382 35.3633 46.8113C34.3446 47.0658 33.4293 47.7439 32.8716 48.7202C32.3067 49.6908 32.1891 50.8062 32.4594 51.8327C32.7382 52.8427 33.3913 53.7552 34.3683 54.3258H34.374C35.3532 54.8885 36.46 54.9896 37.4879 54.7236ZM19.3722 34.3026C18.297 33.2302 16.8131 32.5578 15.1709 32.5578C13.5308 32.5578 12.0512 33.2302 10.9781 34.3026C9.90862 35.3735 9.24914 36.8509 9.24914 38.4932C9.24914 40.1354 9.90862 41.6193 10.9781 42.7024C12.0512 43.7683 13.5308 44.4343 15.1709 44.4343C16.8131 44.4343 18.297 43.7683 19.3722 42.7024C20.4446 41.6193 21.1041 40.1354 21.1041 38.4932C21.1041 36.8509 20.4446 35.3735 19.3722 34.3026ZM17.0095 27.3214C19.3937 27.7142 21.5342 28.8561 23.1707 30.5041H23.1829C23.4431 30.7636 23.6961 31.0496 23.932 31.3349L28.0215 28.9694C27.4717 27.3078 27.4459 25.5709 27.8882 23.9415C28.4709 21.7602 29.8852 19.8076 32.0056 18.5839L32.0744 18.5402C34.1719 17.3539 36.5554 17.1066 38.7066 17.6893C40.8857 18.2736 42.8513 19.6943 44.0749 21.8111V21.8176C45.2928 23.9229 45.5394 26.3386 44.9588 28.5135C44.3788 30.6941 42.9595 32.6603 40.8413 33.8768L40.2829 34.2065H40.2262C38.2671 35.1391 36.1131 35.2854 34.1346 34.7642C32.5103 34.3341 31.0207 33.4266 29.8537 32.1399L25.7699 34.499C26.2395 35.7406 26.4989 37.0789 26.4989 38.4932C26.4989 39.9003 26.2395 41.258 25.7699 42.506L29.8537 44.8586C31.0207 43.5519 32.5103 42.6651 34.1346 42.2336C36.3145 41.6379 38.7302 41.891 40.8413 43.1218L40.9768 43.1848V43.1913C43.0161 44.4278 44.3853 46.336 44.9588 48.4915C45.5394 50.6535 45.2928 53.0706 44.0749 55.1803L44.0011 55.3272L43.9925 55.315C42.7696 57.3487 40.8413 58.7264 38.713 59.3092C36.5303 59.8848 34.1138 59.639 32.0056 58.4261V58.4096C29.8852 57.1838 28.4709 55.2269 27.8882 53.0499C27.4459 51.4277 27.4717 49.6908 28.0215 48.0299L23.932 45.6701C23.6961 45.9554 23.4431 46.2285 23.1829 46.488L23.1707 46.5009C21.5342 48.1432 19.3937 49.2843 17.0095 49.6643V54.3896C18.7084 54.7444 20.2295 55.5939 21.4209 56.786L21.4274 56.7982C23.0245 58.3881 24.0137 60.6031 24.0137 63.0374C24.0137 65.4646 23.0245 67.6667 21.4274 69.2645L21.4209 69.2896C19.8123 70.8867 17.6059 71.876 15.1709 71.876C12.7487 71.876 10.5366 70.8867 8.93158 69.2896H8.92513V69.2645C7.3266 67.6667 6.33523 65.4646 6.33523 63.0374C6.33523 60.6031 7.3266 58.3881 8.92513 56.7982V56.786H8.93158C10.1222 55.5939 11.6462 54.7444 13.3387 54.3896V49.6643C10.9552 49.2843 8.81833 48.1432 7.18467 46.5009L7.16747 46.488C5.12737 44.4407 3.84998 41.6193 3.84998 38.4932C3.84998 35.3735 5.12737 32.5521 7.16747 30.5041H7.18467C8.81833 28.8561 10.9552 27.7142 13.3387 27.3214V22.6161C11.6462 22.2491 10.1222 21.3997 8.93158 20.214H8.92513V20.2011C7.3266 18.5968 6.33523 16.3969 6.33523 13.9618C6.33523 11.5397 7.3266 9.32035 8.92513 7.72253L8.93158 7.71608C10.5366 6.11253 12.7487 5.12402 15.1709 5.12402C17.6059 5.12402 19.8123 6.11253 21.4209 7.71608V7.72253H21.4274C23.0245 9.32035 24.0137 11.5397 24.0137 13.9618C24.0137 16.3969 23.0245 18.5968 21.4274 20.2011L21.4209 20.214C20.2295 21.3997 18.7084 22.2491 17.0095 22.6161V27.3214ZM39.9818 24.1831L39.9467 24.1315C39.3832 23.181 38.4829 22.5473 37.4879 22.2742C36.46 22.0011 35.3532 22.1158 34.3683 22.6806H34.374C33.3913 23.2383 32.7339 24.1501 32.4594 25.1723C32.1891 26.1866 32.3067 27.3078 32.8716 28.2848L32.8909 28.3099C33.4565 29.274 34.3575 29.9206 35.3633 30.1808C36.374 30.4668 37.5001 30.3457 38.4707 29.7808L38.5231 29.7557C39.4786 29.1851 40.1151 28.2848 40.3804 27.2956C40.6513 26.2748 40.5431 25.1594 39.9818 24.1831Z" fill="#1A1919"/>
<path d="M58.1276 25.5652H62.691V39.4946L69.2715 32.2159H74.743L66.7984 40.6487L74.776 51.3381H69.551L62.691 41.7899V51.3381H58.1276V25.5652ZM80.044 41.8594C80.044 44.2314 81.7501 47.6801 85.8604 47.6801C88.4037 47.6801 90.0775 46.3547 90.9456 44.6178C91.4 43.7748 91.6093 42.8737 91.6796 41.9361C91.7111 41.0286 91.5398 40.0853 91.1541 39.2473C90.3542 37.4409 88.5786 35.8746 85.8267 35.8746C82.1364 35.8746 80.044 38.8666 80.044 41.8279V41.8594ZM96.2064 51.3381H91.6409V48.5869C90.4258 50.8119 87.8818 51.9287 85.1987 51.9287C79.0677 51.9287 75.4814 47.1539 75.4814 41.7583C75.4814 35.7348 79.8347 31.6259 85.1987 31.6259C88.6818 31.6259 90.8058 33.4718 91.6409 35.0058V32.2159H96.2064V51.3381ZM101.373 35.7348H99.0085V32.2159H101.373V31.1385C101.373 25.4569 105.694 25.1143 108.97 25.0763V28.5887C107.818 28.5887 105.939 28.5887 105.939 31.2769V32.2159H108.97V35.7348H105.939V51.3381H101.373V35.7348ZM112.073 25.5652H116.635V39.4946L123.217 32.2159H128.688L120.743 40.6487L128.72 51.3381H123.495L116.635 41.7899V51.3381H112.073V25.5652ZM133.989 41.8594C133.989 44.2314 135.694 47.6801 139.805 47.6801C142.345 47.6801 144.019 46.3547 144.888 44.6178C145.344 43.7748 145.554 42.8737 145.623 41.9361C145.655 41.0286 145.483 40.0853 145.097 39.2473C144.299 37.4409 142.523 35.8746 139.772 35.8746C136.081 35.8746 133.989 38.8666 133.989 41.8279V41.8594ZM150.15 51.3381H145.586V48.5869C144.367 50.8119 141.825 51.9287 139.144 51.9287C133.013 51.9287 129.429 47.1539 129.429 41.7583C129.429 35.7348 133.781 31.6259 139.144 31.6259C142.625 31.6259 144.751 33.4718 145.586 35.0058V32.2159H150.15V51.3381Z" fill="#1A1919"/>
</svg>
