<svg width="250" height="82" viewBox="0 0 250 82" fill="none" xmlns="http://www.w3.org/2000/svg">
<path d="M239.042 0V0.5H244C247.038 0.5 249.5 2.96243 249.5 6V10.667H250V15.333H249.5V24.667H250V29.333H249.5V38.667H250V43.333H249.5V52.667H250V57.333H249.5V66.667H250V71.333H249.5V76C249.5 79.0376 247.038 81.5 244 81.5H239.042V82H234.083V81.5H224.167V82H219.208V81.5H209.292V82H204.333V81.5H194.417V82H189.458V81.5H179.542V82H174.583V81.5H164.667V82H159.708V81.5H149.792V82H144.833V81.5H134.917V82H129.958V81.5H120.042V82H115.083V81.5H105.167V82H100.208V81.5H90.292V82H85.333V81.5H75.417V82H70.458V81.5H60.542V82H55.583V81.5H45.667V82H40.708V81.5H30.792V82H25.833V81.5H15.917V82H10.958V81.5H6C2.96243 81.5 0.5 79.0376 0.5 76V71.333H0V66.667H0.5V57.333H0V52.667H0.5V43.333H0V38.667H0.5V29.333H0V24.667H0.5V15.333H0V10.667H0.5V6C0.5 2.96243 2.96243 0.5 6 0.5H10.958V0H15.917V0.5H25.833V0H30.792V0.5H40.708V0H45.667V0.5H55.583V0H60.542V0.5H70.458V0H75.417V0.5H85.333V0H90.292V0.5H100.208V0H105.167V0.5H115.083V0H120.042V0.5H129.958V0H134.917V0.5H144.833V0H149.792V0.5H159.708V0H164.667V0.5H174.583V0H179.542V0.5H189.458V0H194.417V0.5H204.333V0H209.292V0.5H219.208V0H224.167V0.5H234.083V0H239.042Z" stroke="#722ED1" stroke-dasharray="10 5"/>
<path fill-rule="evenodd" clip-rule="evenodd" d="M45.5809 36.053C48.1496 36.053 50.232 38.1354 50.232 40.704C50.232 43.2727 48.1496 45.3552 45.5809 45.3552C43.0118 45.3552 40.9297 43.2727 40.9297 40.704C40.9297 38.1354 43.0118 36.053 45.5809 36.053Z" fill="#131313"/>
<path fill-rule="evenodd" clip-rule="evenodd" d="M45.5809 33.7275C41.7338 33.7275 38.6042 36.8578 38.6042 40.7047C38.6042 44.5511 41.7334 47.6808 45.5809 47.6808C49.4272 47.6808 52.5577 44.5511 52.5577 40.7047C52.5577 36.8574 49.4272 33.7275 45.5809 33.7275ZM45.5812 48.8434C41.0933 48.8434 37.4414 45.1921 37.4414 40.7043C37.4414 36.2157 41.0928 32.5645 45.5812 32.5645C50.0691 32.5645 53.7205 36.2157 53.7205 40.7043C53.7205 45.1921 50.0695 48.8434 45.5812 48.8434Z" fill="#676767"/>
<path fill-rule="evenodd" clip-rule="evenodd" d="M45.0007 23.2622C46.6063 23.2622 47.9077 24.5636 47.9077 26.1692C47.9077 27.7748 46.6063 29.0762 45.0007 29.0762C43.3951 29.0762 42.0938 27.7748 42.0938 26.1692C42.0938 24.5636 43.3951 23.2622 45.0007 23.2622Z" fill="#00933F"/>
<path fill-rule="evenodd" clip-rule="evenodd" d="M45.0007 15.1226C46.6063 15.1226 47.9077 16.4239 47.9077 18.0295C47.9077 19.6351 46.6063 20.9365 45.0007 20.9365C43.3951 20.9365 42.0938 19.6351 42.0938 18.0295C42.0938 16.4239 43.3951 15.1226 45.0007 15.1226Z" fill="#D7E100"/>
<path fill-rule="evenodd" clip-rule="evenodd" d="M45.0007 51.1687C46.6063 51.1687 47.9077 52.4703 47.9077 54.0754C47.9077 55.6809 46.6063 56.9825 45.0007 56.9825C43.3951 56.9825 42.0938 55.6809 42.0938 54.0754C42.0938 52.4703 43.3951 51.1687 45.0007 51.1687Z" fill="#FF3684"/>
<path fill-rule="evenodd" clip-rule="evenodd" d="M38.0232 26.75C38.9868 26.75 39.7674 27.5307 39.7674 28.4942C39.7674 29.4573 38.9868 30.2384 38.0232 30.2384C37.0601 30.2384 36.2791 29.4573 36.2791 28.4942C36.2791 27.5307 37.0601 26.75 38.0232 26.75Z" fill="#00B73E"/>
<path fill-rule="evenodd" clip-rule="evenodd" d="M53.1387 51.1687C54.1019 51.1687 54.8829 51.9494 54.8829 52.9127C54.8829 53.8763 54.1019 54.6571 53.1387 54.6571C52.1756 54.6571 51.3945 53.8763 51.3945 52.9127C51.3945 51.9494 52.1756 51.1687 53.1387 51.1687Z" fill="#FF7CAD"/>
<path fill-rule="evenodd" clip-rule="evenodd" d="M57.7898 30.2383C59.3953 30.2383 60.6968 31.5398 60.6968 33.1453C60.6968 34.7506 59.3953 36.0521 57.7898 36.0521C56.1843 36.0521 54.8828 34.7506 54.8828 33.1453C54.8828 31.5398 56.1843 30.2383 57.7898 30.2383Z" fill="#00ACE5"/>
<path fill-rule="evenodd" clip-rule="evenodd" d="M33.3718 44.1924C34.9774 44.1924 36.2788 45.4938 36.2788 47.099C36.2788 48.7049 34.9774 50.0063 33.3718 50.0063C31.7662 50.0063 30.4648 48.7049 30.4648 47.099C30.4648 45.4938 31.7662 44.1924 33.3718 44.1924Z" fill="#FF1E7D"/>
<path fill-rule="evenodd" clip-rule="evenodd" d="M60.1172 39.5408C61.0804 39.5408 61.8614 40.3214 61.8614 41.285C61.8614 42.2481 61.0804 43.0291 60.1172 43.0291C59.1541 43.0291 58.373 42.2481 58.373 41.285C58.373 40.3214 59.1541 39.5408 60.1172 39.5408Z" fill="#B81961"/>
<path fill-rule="evenodd" clip-rule="evenodd" d="M31.0469 39.5408C32.0101 39.5408 32.7911 40.3214 32.7911 41.285C32.7911 42.2481 32.0101 43.0291 31.0469 43.0291C30.0838 43.0291 29.3027 42.2481 29.3027 41.285C29.3027 40.3214 30.0838 39.5408 31.0469 39.5408Z" fill="#B81961"/>
<path fill-rule="evenodd" clip-rule="evenodd" d="M53.1387 26.75C54.1019 26.75 54.8829 27.5307 54.8829 28.4942C54.8829 29.4573 54.1019 30.2384 53.1387 30.2384C52.1756 30.2384 51.3945 29.4573 51.3945 28.4942C51.3945 27.5307 52.1756 26.75 53.1387 26.75Z" fill="#00B73E"/>
<path fill-rule="evenodd" clip-rule="evenodd" d="M38.0232 51.1687C38.9868 51.1687 39.7674 51.9494 39.7674 52.9127C39.7674 53.8763 38.9868 54.6571 38.0232 54.6571C37.0601 54.6571 36.2791 53.8763 36.2791 52.9127C36.2791 51.9494 37.0601 51.1687 38.0232 51.1687Z" fill="#FF7CAD"/>
<path fill-rule="evenodd" clip-rule="evenodd" d="M57.7898 44.1924C59.3954 44.1924 60.6968 45.4938 60.6968 47.099C60.6968 48.7049 59.3954 50.0063 57.7898 50.0063C56.1842 50.0063 54.8828 48.7049 54.8828 47.099C54.8828 45.4938 56.1842 44.1924 57.7898 44.1924Z" fill="#FF1E7D"/>
<path fill-rule="evenodd" clip-rule="evenodd" d="M33.3718 30.2383C34.9774 30.2383 36.2788 31.5397 36.2788 33.1453C36.2788 34.7508 34.9774 36.0521 33.3718 36.0521C31.7662 36.0521 30.4648 34.7508 30.4648 33.1453C30.4648 31.5397 31.7662 30.2383 33.3718 30.2383Z" fill="#00ACE5"/>
<path fill-rule="evenodd" clip-rule="evenodd" d="M45.6915 59.3179C47.5082 59.3179 48.9807 60.6175 48.9807 62.2201C48.9807 63.823 47.5082 65.1225 45.6915 65.1225C43.8749 65.1225 42.4023 63.823 42.4023 62.2201C42.4023 60.6175 43.8749 59.3179 45.6915 59.3179Z" fill="#FFD000"/>
<path fill-rule="evenodd" clip-rule="evenodd" d="M25.2331 26.75C26.8387 26.75 28.1401 28.0514 28.1401 29.657C28.1401 31.2626 26.8387 32.564 25.2331 32.564C23.6276 32.564 22.3262 31.2626 22.3262 29.657C22.3262 28.0514 23.6276 26.75 25.2331 26.75Z" fill="#00CEF4"/>
<path fill-rule="evenodd" clip-rule="evenodd" d="M64.7683 48.843C66.3739 48.843 67.6753 50.1444 67.6753 51.7496C67.6753 53.3556 66.3739 54.657 64.7683 54.657C63.1627 54.657 61.8613 53.3556 61.8613 51.7496C61.8613 50.1444 63.1627 48.843 64.7683 48.843Z" fill="#FF72AB"/>
<path fill-rule="evenodd" clip-rule="evenodd" d="M64.7683 26.75C66.3739 26.75 67.6753 28.0514 67.6753 29.657C67.6753 31.2626 66.3739 32.564 64.7683 32.564C63.1627 32.564 61.8613 31.2626 61.8613 29.657C61.8613 28.0514 63.1627 26.75 64.7683 26.75Z" fill="#00CEF4"/>
<path fill-rule="evenodd" clip-rule="evenodd" d="M25.2331 48.843C26.8387 48.843 28.1401 50.1444 28.1401 51.7496C28.1401 53.3556 26.8387 54.657 25.2331 54.657C23.6276 54.657 22.3262 53.3556 22.3262 51.7496C22.3262 50.1444 23.6276 48.843 25.2331 48.843Z" fill="#FF72AB"/>
<path fill-rule="evenodd" clip-rule="evenodd" d="M34.5339 17.4478C36.1395 17.4478 37.4409 18.7491 37.4409 20.3547C37.4409 21.96 36.1395 23.2617 34.5339 23.2617C32.9283 23.2617 31.627 21.96 31.627 20.3547C31.627 18.7491 32.9283 17.4478 34.5339 17.4478Z" fill="#6DC72E"/>
<path fill-rule="evenodd" clip-rule="evenodd" d="M55.4656 56.9832C57.0712 56.9832 58.3725 58.2845 58.3725 59.8901C58.3725 61.4956 57.0712 62.797 55.4656 62.797C53.86 62.797 52.5586 61.4956 52.5586 59.8901C52.5586 58.2845 53.86 56.9832 55.4656 56.9832Z" fill="#FF9500"/>
<path fill-rule="evenodd" clip-rule="evenodd" d="M55.4656 17.4478C57.0712 17.4478 58.3725 18.7491 58.3725 20.3547C58.3725 21.96 57.0712 23.2617 55.4656 23.2617C53.86 23.2617 52.5586 21.96 52.5586 20.3547C52.5586 18.7491 53.86 17.4478 55.4656 17.4478Z" fill="#6DC72E"/>
<path fill-rule="evenodd" clip-rule="evenodd" d="M34.5339 56.9832C36.1395 56.9832 37.4409 58.2845 37.4409 59.8901C37.4409 61.4956 36.1395 62.797 34.5339 62.797C32.9283 62.797 31.627 61.4956 31.627 59.8901C31.627 58.2845 32.9283 56.9832 34.5339 56.9832Z" fill="#FF9500"/>
<path fill-rule="evenodd" clip-rule="evenodd" d="M67.0925 37.2151C68.6981 37.2151 69.9995 38.5165 69.9995 40.1221C69.9995 41.7276 68.6981 43.029 67.0925 43.029C65.4869 43.029 64.1855 41.7276 64.1855 40.1221C64.1855 38.5165 65.4869 37.2151 67.0925 37.2151Z" fill="#AB2692"/>
<path fill-rule="evenodd" clip-rule="evenodd" d="M22.907 37.29C24.5126 37.29 25.814 38.5914 25.814 40.197C25.814 41.8026 24.5126 43.104 22.907 43.104C21.3014 43.104 20 41.8026 20 40.197C20 38.5914 21.3014 37.29 22.907 37.29Z" fill="#AB2692"/>
<g clip-path="url(#clip0_0_1289)">
<path d="M141.605 36.0045H144.221V46.0318H141.605V36.0045ZM148.185 41.0182V46.0318H145.72V35.9212L146.402 36.4876L151.882 41.0182V35.9879H154.314L154.298 46.0984L148.185 41.0182ZM167.24 35.738C164.708 35.738 163.575 37.1871 162.476 39.7689V39.7856C162.376 40.0021 162.26 40.2353 162.16 40.4685L161.826 41.218C161.227 42.6005 160.86 43.4334 159.811 43.4334C158.945 43.4334 158.312 42.6339 158.312 41.3846C158.312 39.8855 159.095 39.0527 160.144 38.4031L158.712 35.9379C156.996 36.804 155.664 38.6196 155.664 41.4346C155.664 44.3162 157.163 46.4482 159.878 46.4482C162.409 46.4482 163.542 44.9991 164.642 42.4173L164.708 42.2507C164.791 42.0842 164.875 41.9009 164.941 41.7177L165.275 40.9682C165.874 39.5857 166.241 38.7529 167.29 38.7529C168.156 38.7529 168.789 39.5524 168.789 40.8016C168.789 42.3007 168.006 43.1336 166.957 43.7832L168.389 46.2483C170.138 45.3655 171.487 43.5499 171.487 40.735C171.454 37.8867 169.972 35.738 167.24 35.738ZM172.886 36.0045H175.502V46.0318H172.886V36.0045ZM177.101 36.0045H180.715C183.68 36.0045 185.945 37.92 185.945 41.0182C185.945 44.0663 183.697 46.0318 180.715 46.0318H177.101V36.0045ZM180.565 43.7665C182.431 43.7665 183.264 42.7171 183.264 41.0182C183.264 39.3525 182.431 38.2698 180.565 38.2698H179.699V43.7665H180.565ZM187.428 36.0045H194.557V38.2532H190.043V39.9521H194.44V42.0842H190.043V43.7832H194.757V46.0318H187.428V36.0045ZM196.156 36.0045H199.77C202.735 36.0045 205 37.92 205 41.0182C205 44.0663 202.752 46.0318 199.77 46.0318H196.156V36.0045ZM199.637 43.7665C201.502 43.7665 202.335 42.7171 202.335 41.0182C202.335 39.3525 201.502 38.2698 199.637 38.2698H198.771V43.7665H199.637Z" fill="#1A1A1A"/>
<path d="M119.952 43.7664C121.469 43.7664 122.7 42.536 122.7 41.0181C122.7 39.5003 121.469 38.2698 119.952 38.2698C118.434 38.2698 117.203 39.5003 117.203 41.0181C117.203 42.536 118.434 43.7664 119.952 43.7664Z" fill="#1A1A1A"/>
<path d="M119.952 45.2322C117.637 45.2322 115.738 43.35 115.738 41.0181C115.738 38.7028 117.62 36.804 119.952 36.804C122.268 36.804 124.166 38.6861 124.166 41.0181C124.166 43.35 122.284 45.2322 119.952 45.2322ZM119.952 37.4869C118.004 37.4869 116.421 39.0693 116.421 41.0181C116.421 42.9669 118.004 44.5493 119.952 44.5493C121.901 44.5493 123.484 42.9669 123.484 41.0181C123.484 39.0693 121.901 37.4869 119.952 37.4869Z" fill="#676767"/>
<path d="M119.952 34.6218C120.973 34.6218 121.801 33.7941 121.801 32.773C121.801 31.7518 120.973 30.9241 119.952 30.9241C118.931 30.9241 118.104 31.7518 118.104 32.773C118.104 33.7941 118.931 34.6218 119.952 34.6218Z" fill="#079247"/>
<path d="M119.952 29.8249C120.973 29.8249 121.801 28.9972 121.801 27.9761C121.801 26.955 120.973 26.1272 119.952 26.1272C118.931 26.1272 118.104 26.955 118.104 27.9761C118.104 28.9972 118.931 29.8249 119.952 29.8249Z" fill="#D9E028"/>
<path d="M119.952 51.1121C120.973 51.1121 121.801 50.2843 121.801 49.2632C121.801 48.2421 120.973 47.4143 119.952 47.4143C118.931 47.4143 118.104 48.2421 118.104 49.2632C118.104 50.2843 118.931 51.1121 119.952 51.1121Z" fill="#EA3981"/>
<path d="M115.821 34.8052C116.337 34.8052 116.754 34.3876 116.754 33.8725C116.754 33.3573 116.337 32.9397 115.821 32.9397C115.306 32.9397 114.889 33.3573 114.889 33.8725C114.889 34.3876 115.306 34.8052 115.821 34.8052Z" fill="#3DB54A"/>
<path d="M124.066 49.0799C124.581 49.0799 124.999 48.6623 124.999 48.1471C124.999 47.632 124.581 47.2144 124.066 47.2144C123.551 47.2144 123.133 47.632 123.133 48.1471C123.133 48.6623 123.551 49.0799 124.066 49.0799Z" fill="#F27BAA"/>
<path d="M127.081 38.7361C128.102 38.7361 128.93 37.9083 128.93 36.8872C128.93 35.8661 128.102 35.0383 127.081 35.0383C126.06 35.0383 125.232 35.8661 125.232 36.8872C125.232 37.9083 126.06 38.7361 127.081 38.7361Z" fill="#2AAAE2"/>
<path d="M112.806 46.9812C113.827 46.9812 114.655 46.1534 114.655 45.1323C114.655 44.1112 113.827 43.2834 112.806 43.2834C111.785 43.2834 110.957 44.1112 110.957 45.1323C110.957 46.1534 111.785 46.9812 112.806 46.9812Z" fill="#ED237A"/>
<path d="M128.181 41.9508C128.696 41.9508 129.114 41.5331 129.114 41.018C129.114 40.5028 128.696 40.0852 128.181 40.0852C127.666 40.0852 127.248 40.5028 127.248 41.018C127.248 41.5331 127.666 41.9508 128.181 41.9508Z" fill="#9D1F60"/>
<path d="M111.706 41.9508C112.221 41.9508 112.639 41.5331 112.639 41.018C112.639 40.5028 112.221 40.0852 111.706 40.0852C111.191 40.0852 110.773 40.5028 110.773 41.018C110.773 41.5331 111.191 41.9508 111.706 41.9508Z" fill="#9D1F60"/>
<path d="M124.066 34.8052C124.581 34.8052 124.999 34.3876 124.999 33.8725C124.999 33.3573 124.581 32.9397 124.066 32.9397C123.551 32.9397 123.133 33.3573 123.133 33.8725C123.133 34.3876 123.551 34.8052 124.066 34.8052Z" fill="#3DB54A"/>
<path d="M115.821 49.0799C116.337 49.0799 116.754 48.6623 116.754 48.1471C116.754 47.632 116.337 47.2144 115.821 47.2144C115.306 47.2144 114.889 47.632 114.889 48.1471C114.889 48.6623 115.306 49.0799 115.821 49.0799Z" fill="#F27BAA"/>
<path d="M127.081 46.9812C128.102 46.9812 128.93 46.1534 128.93 45.1323C128.93 44.1112 128.102 43.2834 127.081 43.2834C126.06 43.2834 125.232 44.1112 125.232 45.1323C125.232 46.1534 126.06 46.9812 127.081 46.9812Z" fill="#ED237A"/>
<path d="M112.806 38.7361C113.827 38.7361 114.655 37.9083 114.655 36.8872C114.655 35.8661 113.827 35.0383 112.806 35.0383C111.785 35.0383 110.957 35.8661 110.957 36.8872C110.957 37.9083 111.785 38.7361 112.806 38.7361Z" fill="#2AAAE2"/>
<path d="M119.952 55.9089C120.973 55.9089 121.801 55.0812 121.801 54.0601C121.801 53.0389 120.973 52.2112 119.952 52.2112C118.931 52.2112 118.104 53.0389 118.104 54.0601C118.104 55.0812 118.931 55.9089 119.952 55.9089Z" fill="#FECF0A"/>
<path d="M108.657 36.3377C109.679 36.3377 110.506 35.5099 110.506 34.4888C110.506 33.4677 109.679 32.6399 108.657 32.6399C107.636 32.6399 106.809 33.4677 106.809 34.4888C106.809 35.5099 107.636 36.3377 108.657 36.3377Z" fill="#64CDF2"/>
<path d="M131.228 49.3796C132.249 49.3796 133.077 48.5519 133.077 47.5308C133.077 46.5096 132.249 45.6819 131.228 45.6819C130.207 45.6819 129.379 46.5096 129.379 47.5308C129.379 48.5519 130.207 49.3796 131.228 49.3796Z" fill="#E571A8"/>
<path d="M131.228 36.3377C132.249 36.3377 133.077 35.5099 133.077 34.4888C133.077 33.4677 132.249 32.6399 131.228 32.6399C130.207 32.6399 129.379 33.4677 129.379 34.4888C129.379 35.5099 130.207 36.3377 131.228 36.3377Z" fill="#64CDF2"/>
<path d="M108.657 49.3796C109.679 49.3796 110.506 48.5519 110.506 47.5308C110.506 46.5096 109.679 45.6819 108.657 45.6819C107.636 45.6819 106.809 46.5096 106.809 47.5308C106.809 48.5519 107.636 49.3796 108.657 49.3796Z" fill="#E571A8"/>
<path d="M113.423 31.5737C114.444 31.5737 115.272 30.746 115.272 29.7248C115.272 28.7037 114.444 27.876 113.423 27.876C112.402 27.876 111.574 28.7037 111.574 29.7248C111.574 30.746 112.402 31.5737 113.423 31.5737Z" fill="#8DC641"/>
<path d="M126.464 54.1602C127.485 54.1602 128.313 53.3324 128.313 52.3113C128.313 51.2902 127.485 50.4624 126.464 50.4624C125.443 50.4624 124.615 51.2902 124.615 52.3113C124.615 53.3324 125.443 54.1602 126.464 54.1602Z" fill="#F79421"/>
<path d="M126.464 31.5737C127.485 31.5737 128.313 30.746 128.313 29.7248C128.313 28.7037 127.485 27.876 126.464 27.876C125.443 27.876 124.615 28.7037 124.615 29.7248C124.615 30.746 125.443 31.5737 126.464 31.5737Z" fill="#8DC641"/>
<path d="M113.423 54.1602C114.444 54.1602 115.272 53.3324 115.272 52.3113C115.272 51.2902 114.444 50.4624 113.423 50.4624C112.402 50.4624 111.574 51.2902 111.574 52.3113C111.574 53.3324 112.402 54.1602 113.423 54.1602Z" fill="#F79421"/>
<path d="M132.978 42.8669C133.999 42.8669 134.827 42.0392 134.827 41.0181C134.827 39.9969 133.999 39.1692 132.978 39.1692C131.957 39.1692 131.129 39.9969 131.129 41.0181C131.129 42.0392 131.957 42.8669 132.978 42.8669Z" fill="#932A8E"/>
<path d="M106.909 42.8669C107.931 42.8669 108.758 42.0392 108.758 41.0181C108.758 39.9969 107.931 39.1692 106.909 39.1692C105.888 39.1692 105.061 39.9969 105.061 41.0181C105.061 42.0392 105.888 42.8669 106.909 42.8669Z" fill="#932A8E"/>
</g>
<defs>
<clipPath id="clip0_0_1289">
<rect width="100" height="30" fill="white" transform="translate(105 26)"/>
</clipPath>
</defs>
</svg>
