<svg  viewBox="95 25 150 32" fill="none" xmlns="http://www.w3.org/2000/svg"><defs>
<clipPath id="clip0_0_1289">
<rect width="100" height="30" fill="white" transform="translate(105 26)"/>
</clipPath>
</defs><g clip-path="url(#clip0_0_1289)">
<path d="M141.605 36.0045H144.221V46.0318H141.605V36.0045ZM148.185 41.0182V46.0318H145.72V35.9212L146.402 36.4876L151.882 41.0182V35.9879H154.314L154.298 46.0984L148.185 41.0182ZM167.24 35.738C164.708 35.738 163.575 37.1871 162.476 39.7689V39.7856C162.376 40.0021 162.26 40.2353 162.16 40.4685L161.826 41.218C161.227 42.6005 160.86 43.4334 159.811 43.4334C158.945 43.4334 158.312 42.6339 158.312 41.3846C158.312 39.8855 159.095 39.0527 160.144 38.4031L158.712 35.9379C156.996 36.804 155.664 38.6196 155.664 41.4346C155.664 44.3162 157.163 46.4482 159.878 46.4482C162.409 46.4482 163.542 44.9991 164.642 42.4173L164.708 42.2507C164.791 42.0842 164.875 41.9009 164.941 41.7177L165.275 40.9682C165.874 39.5857 166.241 38.7529 167.29 38.7529C168.156 38.7529 168.789 39.5524 168.789 40.8016C168.789 42.3007 168.006 43.1336 166.957 43.7832L168.389 46.2483C170.138 45.3655 171.487 43.5499 171.487 40.735C171.454 37.8867 169.972 35.738 167.24 35.738ZM172.886 36.0045H175.502V46.0318H172.886V36.0045ZM177.101 36.0045H180.715C183.68 36.0045 185.945 37.92 185.945 41.0182C185.945 44.0663 183.697 46.0318 180.715 46.0318H177.101V36.0045ZM180.565 43.7665C182.431 43.7665 183.264 42.7171 183.264 41.0182C183.264 39.3525 182.431 38.2698 180.565 38.2698H179.699V43.7665H180.565ZM187.428 36.0045H194.557V38.2532H190.043V39.9521H194.44V42.0842H190.043V43.7832H194.757V46.0318H187.428V36.0045ZM196.156 36.0045H199.77C202.735 36.0045 205 37.92 205 41.0182C205 44.0663 202.752 46.0318 199.77 46.0318H196.156V36.0045ZM199.637 43.7665C201.502 43.7665 202.335 42.7171 202.335 41.0182C202.335 39.3525 201.502 38.2698 199.637 38.2698H198.771V43.7665H199.637Z" fill="#1A1A1A"/>
<path d="M119.952 43.7664C121.469 43.7664 122.7 42.536 122.7 41.0181C122.7 39.5003 121.469 38.2698 119.952 38.2698C118.434 38.2698 117.203 39.5003 117.203 41.0181C117.203 42.536 118.434 43.7664 119.952 43.7664Z" fill="#1A1A1A"/>
<path d="M119.952 45.2322C117.637 45.2322 115.738 43.35 115.738 41.0181C115.738 38.7028 117.62 36.804 119.952 36.804C122.268 36.804 124.166 38.6861 124.166 41.0181C124.166 43.35 122.284 45.2322 119.952 45.2322ZM119.952 37.4869C118.004 37.4869 116.421 39.0693 116.421 41.0181C116.421 42.9669 118.004 44.5493 119.952 44.5493C121.901 44.5493 123.484 42.9669 123.484 41.0181C123.484 39.0693 121.901 37.4869 119.952 37.4869Z" fill="#676767"/>
<path d="M119.952 34.6218C120.973 34.6218 121.801 33.7941 121.801 32.773C121.801 31.7518 120.973 30.9241 119.952 30.9241C118.931 30.9241 118.104 31.7518 118.104 32.773C118.104 33.7941 118.931 34.6218 119.952 34.6218Z" fill="#079247"/>
<path d="M119.952 29.8249C120.973 29.8249 121.801 28.9972 121.801 27.9761C121.801 26.955 120.973 26.1272 119.952 26.1272C118.931 26.1272 118.104 26.955 118.104 27.9761C118.104 28.9972 118.931 29.8249 119.952 29.8249Z" fill="#D9E028"/>
<path d="M119.952 51.1121C120.973 51.1121 121.801 50.2843 121.801 49.2632C121.801 48.2421 120.973 47.4143 119.952 47.4143C118.931 47.4143 118.104 48.2421 118.104 49.2632C118.104 50.2843 118.931 51.1121 119.952 51.1121Z" fill="#EA3981"/>
<path d="M115.821 34.8052C116.337 34.8052 116.754 34.3876 116.754 33.8725C116.754 33.3573 116.337 32.9397 115.821 32.9397C115.306 32.9397 114.889 33.3573 114.889 33.8725C114.889 34.3876 115.306 34.8052 115.821 34.8052Z" fill="#3DB54A"/>
<path d="M124.066 49.0799C124.581 49.0799 124.999 48.6623 124.999 48.1471C124.999 47.632 124.581 47.2144 124.066 47.2144C123.551 47.2144 123.133 47.632 123.133 48.1471C123.133 48.6623 123.551 49.0799 124.066 49.0799Z" fill="#F27BAA"/>
<path d="M127.081 38.7361C128.102 38.7361 128.93 37.9083 128.93 36.8872C128.93 35.8661 128.102 35.0383 127.081 35.0383C126.06 35.0383 125.232 35.8661 125.232 36.8872C125.232 37.9083 126.06 38.7361 127.081 38.7361Z" fill="#2AAAE2"/>
<path d="M112.806 46.9812C113.827 46.9812 114.655 46.1534 114.655 45.1323C114.655 44.1112 113.827 43.2834 112.806 43.2834C111.785 43.2834 110.957 44.1112 110.957 45.1323C110.957 46.1534 111.785 46.9812 112.806 46.9812Z" fill="#ED237A"/>
<path d="M128.181 41.9508C128.696 41.9508 129.114 41.5331 129.114 41.018C129.114 40.5028 128.696 40.0852 128.181 40.0852C127.666 40.0852 127.248 40.5028 127.248 41.018C127.248 41.5331 127.666 41.9508 128.181 41.9508Z" fill="#9D1F60"/>
<path d="M111.706 41.9508C112.221 41.9508 112.639 41.5331 112.639 41.018C112.639 40.5028 112.221 40.0852 111.706 40.0852C111.191 40.0852 110.773 40.5028 110.773 41.018C110.773 41.5331 111.191 41.9508 111.706 41.9508Z" fill="#9D1F60"/>
<path d="M124.066 34.8052C124.581 34.8052 124.999 34.3876 124.999 33.8725C124.999 33.3573 124.581 32.9397 124.066 32.9397C123.551 32.9397 123.133 33.3573 123.133 33.8725C123.133 34.3876 123.551 34.8052 124.066 34.8052Z" fill="#3DB54A"/>
<path d="M115.821 49.0799C116.337 49.0799 116.754 48.6623 116.754 48.1471C116.754 47.632 116.337 47.2144 115.821 47.2144C115.306 47.2144 114.889 47.632 114.889 48.1471C114.889 48.6623 115.306 49.0799 115.821 49.0799Z" fill="#F27BAA"/>
<path d="M127.081 46.9812C128.102 46.9812 128.93 46.1534 128.93 45.1323C128.93 44.1112 128.102 43.2834 127.081 43.2834C126.06 43.2834 125.232 44.1112 125.232 45.1323C125.232 46.1534 126.06 46.9812 127.081 46.9812Z" fill="#ED237A"/>
<path d="M112.806 38.7361C113.827 38.7361 114.655 37.9083 114.655 36.8872C114.655 35.8661 113.827 35.0383 112.806 35.0383C111.785 35.0383 110.957 35.8661 110.957 36.8872C110.957 37.9083 111.785 38.7361 112.806 38.7361Z" fill="#2AAAE2"/>
<path d="M119.952 55.9089C120.973 55.9089 121.801 55.0812 121.801 54.0601C121.801 53.0389 120.973 52.2112 119.952 52.2112C118.931 52.2112 118.104 53.0389 118.104 54.0601C118.104 55.0812 118.931 55.9089 119.952 55.9089Z" fill="#FECF0A"/>
<path d="M108.657 36.3377C109.679 36.3377 110.506 35.5099 110.506 34.4888C110.506 33.4677 109.679 32.6399 108.657 32.6399C107.636 32.6399 106.809 33.4677 106.809 34.4888C106.809 35.5099 107.636 36.3377 108.657 36.3377Z" fill="#64CDF2"/>
<path d="M131.228 49.3796C132.249 49.3796 133.077 48.5519 133.077 47.5308C133.077 46.5096 132.249 45.6819 131.228 45.6819C130.207 45.6819 129.379 46.5096 129.379 47.5308C129.379 48.5519 130.207 49.3796 131.228 49.3796Z" fill="#E571A8"/>
<path d="M131.228 36.3377C132.249 36.3377 133.077 35.5099 133.077 34.4888C133.077 33.4677 132.249 32.6399 131.228 32.6399C130.207 32.6399 129.379 33.4677 129.379 34.4888C129.379 35.5099 130.207 36.3377 131.228 36.3377Z" fill="#64CDF2"/>
<path d="M108.657 49.3796C109.679 49.3796 110.506 48.5519 110.506 47.5308C110.506 46.5096 109.679 45.6819 108.657 45.6819C107.636 45.6819 106.809 46.5096 106.809 47.5308C106.809 48.5519 107.636 49.3796 108.657 49.3796Z" fill="#E571A8"/>
<path d="M113.423 31.5737C114.444 31.5737 115.272 30.746 115.272 29.7248C115.272 28.7037 114.444 27.876 113.423 27.876C112.402 27.876 111.574 28.7037 111.574 29.7248C111.574 30.746 112.402 31.5737 113.423 31.5737Z" fill="#8DC641"/>
<path d="M126.464 54.1602C127.485 54.1602 128.313 53.3324 128.313 52.3113C128.313 51.2902 127.485 50.4624 126.464 50.4624C125.443 50.4624 124.615 51.2902 124.615 52.3113C124.615 53.3324 125.443 54.1602 126.464 54.1602Z" fill="#F79421"/>
<path d="M126.464 31.5737C127.485 31.5737 128.313 30.746 128.313 29.7248C128.313 28.7037 127.485 27.876 126.464 27.876C125.443 27.876 124.615 28.7037 124.615 29.7248C124.615 30.746 125.443 31.5737 126.464 31.5737Z" fill="#8DC641"/>
<path d="M113.423 54.1602C114.444 54.1602 115.272 53.3324 115.272 52.3113C115.272 51.2902 114.444 50.4624 113.423 50.4624C112.402 50.4624 111.574 51.2902 111.574 52.3113C111.574 53.3324 112.402 54.1602 113.423 54.1602Z" fill="#F79421"/>
<path d="M132.978 42.8669C133.999 42.8669 134.827 42.0392 134.827 41.0181C134.827 39.9969 133.999 39.1692 132.978 39.1692C131.957 39.1692 131.129 39.9969 131.129 41.0181C131.129 42.0392 131.957 42.8669 132.978 42.8669Z" fill="#932A8E"/>
<path d="M106.909 42.8669C107.931 42.8669 108.758 42.0392 108.758 41.0181C108.758 39.9969 107.931 39.1692 106.909 39.1692C105.888 39.1692 105.061 39.9969 105.061 41.0181C105.061 42.0392 105.888 42.8669 106.909 42.8669Z" fill="#932A8E"/>
</g></svg>