<svg width="48" height="48" viewBox="0 0 48 48" fill="none" xmlns="http://www.w3.org/2000/svg">
<path fill-rule="evenodd" clip-rule="evenodd" d="M28.3124 41.3086C26.7021 41.7591 25.0042 42 23.25 42C12.8947 42 4.5 33.6053 4.5 23.25C4.5 12.8947 12.8947 4.5 23.25 4.5C33.6053 4.5 42 12.8947 42 23.25C42 29.1661 39.26 34.4423 34.9798 37.8787C36.1588 39.3672 37.5269 40.5198 39.0223 40.5198C41.4887 40.5198 42.2308 38.5347 42.2936 37.5421H45C45 42.7964 41.8582 46.3188 36.693 46.4864C34.8724 46.5454 31.8219 46.6444 28.3124 41.3086ZM26.6621 38.4386C25.6728 38.8046 24.5413 39 23.25 39C15.4935 39 13.5 31.9485 13.5 23.25C13.5 14.5515 15.4953 7.5 23.25 7.5C31.0047 7.5 33 14.5515 33 23.25C33 26.7804 32.6716 30.0395 31.7628 32.6659C30.2935 30.0814 27.9751 27 23.7015 27C20.1431 27 17.4178 28.4568 16.5 29.1853L17.6296 31.4426C17.9434 31.3385 18.7358 31.1304 19.3947 31.1304C20.2184 31.1304 23.1367 30.8662 25.9608 36.9898C26.1958 37.4994 26.4296 37.9819 26.6621 38.4386Z" fill="#B72D2C"/>
</svg>
