<svg width="162" height="73" viewBox="0 0 162 73" fill="none" xmlns="http://www.w3.org/2000/svg">
<path d="M4.21619 45.5979V7.68115H13.2448V12.9796C16.3924 9.08855 21.0309 6.85327 26.3322 6.85327C35.1121 6.85327 40.1649 12.6484 40.1649 21.7551V45.5979H31.0535V23.4936C31.0535 18.0296 28.3201 14.9665 23.5987 14.9665C17.3035 14.9665 13.1619 20.596 13.1619 29.1232V45.5979H4.21619Z" fill="#2C2C2C"/>
<path d="M62.6949 46.4259C51.4299 46.4259 43.6438 38.4782 43.6438 26.6395C43.5609 14.9665 51.2642 6.85327 62.5292 6.85327C70.978 6.85327 77.1903 11.3238 79.8409 18.8575L71.3921 22.3346C70.3983 17.5329 67.3335 14.8837 62.6949 14.8837C56.6481 14.8837 52.7552 19.437 52.7552 26.6395C52.7552 33.8422 56.6481 38.3955 62.7777 38.3955C67.3335 38.3955 70.3983 35.8291 71.3921 30.9446L79.7581 34.4217C76.9418 42.2036 70.978 46.4259 62.6949 46.4259Z" fill="#2C2C2C"/>
<path d="M101.046 46.4257C89.6151 46.4257 81.9945 38.4782 81.9945 26.7223C81.9945 14.8836 89.6151 6.93601 101.046 6.93601C112.476 6.93601 120.097 14.8836 120.097 26.7223C120.18 38.4782 112.476 46.4257 101.046 46.4257ZM101.046 38.3953C106.844 38.3953 110.82 33.5937 110.82 26.6395C110.82 19.6025 106.761 14.8836 101.046 14.8836C95.2475 14.8836 91.2716 19.6853 91.2716 26.6395C91.2716 33.5937 95.2475 38.3953 101.046 38.3953Z" fill="#2C2C2C"/>
<path d="M157.619 28.5437V28.0469L151.159 29.1231C144.201 30.2821 141.716 31.6895 141.716 34.5871C141.716 37.1535 143.87 38.7265 147.348 38.7265C152.401 38.8092 157.619 35.4978 157.619 28.5437Z" fill="#04A299"/>
<path d="M132.522 35.0839C132.522 28.1297 137.657 23.9075 148.342 22.2517L157.619 20.7615V20.182C157.619 16.7049 154.969 14.8836 150.496 14.8836C145.526 14.8836 142.296 17.2017 141.219 21.5894L133.847 16.291C136.415 10.9926 140.888 7.92944 147.183 7.10156C145.858 6.8532 144.532 6.68762 143.207 6.68762C132.273 6.68762 123.41 15.5459 123.41 26.4739C123.41 37.2363 131.942 45.9289 142.627 46.1774C136.498 45.1839 132.522 41.0446 132.522 35.0839Z" fill="#04A299"/>
<path d="M4.05005 63.1494V56.1124H5.70667V57.1059C6.28649 56.3607 7.11479 55.9469 8.10876 55.9469C9.76539 55.9469 10.6765 57.0231 10.6765 58.6788V63.0666H9.01992V59.01C9.01992 58.0166 8.52292 57.4371 7.61178 57.4371C6.45216 57.4371 5.70667 58.5133 5.70667 60.0863V63.1494H4.05005Z" fill="#2C2C2C"/>
<path d="M18.2142 63.1494H16.5576C16.4748 62.9011 16.4748 62.6526 16.4748 62.2387C15.8949 62.9839 15.1495 63.3149 14.2383 63.3149C12.8302 63.3149 11.8362 62.4871 11.8362 61.2452C11.8362 59.9207 12.8302 59.1756 14.7353 58.8443L16.4748 58.5961V58.5133C16.4748 57.8509 15.9778 57.5199 15.1495 57.5199C14.2383 57.5199 13.6585 57.9338 13.41 58.7616L12.0847 57.7681C12.6645 56.6092 13.7413 56.0297 15.2323 56.0297C17.0546 56.0297 18.1314 56.8574 18.1314 58.4306V61.742C18.0486 62.2387 18.1314 62.7354 18.2142 63.1494ZM14.5697 61.9077C15.4808 61.9077 16.4748 61.328 16.4748 60.0035V59.9208L15.2323 60.0863C13.907 60.3345 13.4929 60.583 13.4929 61.0797C13.4929 61.5764 13.907 61.9077 14.5697 61.9077Z" fill="#2C2C2C"/>
<path d="M22.0244 63.3149C20.7819 63.3149 20.0365 62.4871 20.0365 61.1625V57.5199H18.9597V56.1124H20.0365V55.2845L21.6931 53.96V56.0297H23.0184V57.4371H21.6931V60.9142C21.6931 61.4109 21.8587 61.6592 22.2729 61.6592C22.5214 61.6592 22.8527 61.4937 23.0184 61.328L23.3497 62.7354C23.0184 63.1494 22.6042 63.3149 22.0244 63.3149Z" fill="#2C2C2C"/>
<path d="M24.3437 55.3674V53.7115H26.0002V55.3674H24.3437ZM24.3437 63.1494V56.1124H26.0002V63.1494H24.3437Z" fill="#2C2C2C"/>
<path d="M30.7217 63.3149C28.6508 63.3149 27.2428 61.8247 27.2428 59.6723C27.2428 57.5199 28.6508 56.0297 30.7217 56.0297C32.7924 56.0297 34.2835 57.5199 34.2835 59.6723C34.2835 61.8247 32.8752 63.3149 30.7217 63.3149ZM30.7217 61.8247C31.7986 61.8247 32.544 60.9142 32.544 59.6723C32.544 58.3476 31.7986 57.5199 30.7217 57.5199C29.6449 57.5199 28.8993 58.3476 28.8993 59.6723C28.8993 60.9142 29.6449 61.8247 30.7217 61.8247Z" fill="#2C2C2C"/>
<path d="M35.443 63.1494V56.1124H37.0998V57.1059C37.6795 56.3607 38.5078 55.9469 39.5017 55.9469C41.1584 55.9469 42.0695 57.0231 42.0695 58.6788V63.0666H40.413V59.01C40.413 58.0166 39.9159 57.4371 39.0048 57.4371C37.8452 57.4371 37.0998 58.5133 37.0998 60.0863V63.1494H35.443Z" fill="#2C2C2C"/>
<path d="M49.6072 63.1494H47.9506C47.8677 62.9011 47.8677 62.6526 47.8677 62.2387C47.288 62.9839 46.5424 63.3149 45.6313 63.3149C44.2232 63.3149 43.2291 62.4871 43.2291 61.2452C43.2291 59.9207 44.2232 59.1756 46.1282 58.8443L47.8677 58.5961V58.5133C47.8677 57.8509 47.3707 57.5199 46.5424 57.5199C45.6313 57.5199 45.0516 57.9338 44.8029 58.7616L43.4776 57.7681C44.0575 56.6092 45.1343 56.0297 46.6253 56.0297C48.4476 56.0297 49.5244 56.8574 49.5244 58.4306V61.742C49.4414 62.2387 49.5244 62.7354 49.6072 63.1494ZM45.9627 61.9077C46.8738 61.9077 47.8677 61.328 47.8677 60.0035V59.9208L46.6253 60.0863C45.3 60.3345 44.8859 60.583 44.8859 61.0797C44.8859 61.5764 45.3 61.9077 45.9627 61.9077Z" fill="#2C2C2C"/>
<path d="M51.098 63.1494V54.0428H52.7547V63.1494H51.098Z" fill="#2C2C2C"/>
<path d="M60.2923 63.3149C58.2216 63.3149 56.7306 61.8247 56.7306 59.6723C56.7306 57.5199 58.1386 56.0297 60.2095 56.0297C61.7833 56.0297 62.9429 56.8574 63.4398 58.2649L61.8661 58.8443C61.7004 57.9338 61.1207 57.4371 60.2923 57.4371C59.2155 57.4371 58.4701 58.2649 58.4701 59.5895C58.4701 60.9142 59.2155 61.742 60.2923 61.742C61.1207 61.742 61.7004 61.2452 61.8661 60.3345L63.4398 60.997C62.9429 62.5699 61.7833 63.3149 60.2923 63.3149Z" fill="#2C2C2C"/>
<path d="M67.7472 63.3149C65.6765 63.3149 64.2682 61.8247 64.2682 59.6723C64.2682 57.5199 65.6765 56.0297 67.7472 56.0297C69.8179 56.0297 71.3089 57.5199 71.3089 59.6723C71.3089 61.8247 69.9008 63.3149 67.7472 63.3149ZM67.7472 61.8247C68.824 61.8247 69.5694 60.9142 69.5694 59.6723C69.5694 58.3476 68.824 57.5199 67.7472 57.5199C66.6703 57.5199 65.9249 58.4306 65.9249 59.6723C66.0077 60.9142 66.7531 61.8247 67.7472 61.8247Z" fill="#2C2C2C"/>
<path d="M77.4384 62.1559C76.8585 62.9011 76.0302 63.3149 75.0363 63.3149C73.4625 63.3149 72.4685 62.2387 72.4685 60.8312V56.1952H74.1252V60.3345C74.1252 61.328 74.6221 61.9077 75.5332 61.9077C76.7758 61.9077 77.4384 60.8312 77.4384 59.3411V56.2779H79.095V63.3149H77.4384V62.1559Z" fill="#2C2C2C"/>
<path d="M80.586 63.1494V56.1124H82.2425V57.1059C82.8224 56.3607 83.6507 55.9469 84.6446 55.9469C86.3013 55.9469 87.2125 57.0231 87.2125 58.6788V63.0666H85.5557V59.01C85.5557 58.0166 85.0588 57.4371 84.1477 57.4371C82.9881 57.4371 82.2425 58.5133 82.2425 60.0863V63.1494H80.586Z" fill="#2C2C2C"/>
<path d="M91.934 63.3149C89.8631 63.3149 88.372 61.8247 88.372 59.6723C88.372 57.5199 89.7803 56.0297 91.851 56.0297C93.4248 56.0297 94.5846 56.8574 95.0815 58.2649L93.5077 58.8443C93.342 57.9338 92.7621 57.4371 91.934 57.4371C90.8571 57.4371 90.1115 58.2649 90.1115 59.5895C90.1115 60.9142 90.8571 61.742 91.934 61.742C92.7621 61.742 93.342 61.2452 93.5077 60.3345L95.0815 60.997C94.5846 62.5699 93.4248 63.3149 91.934 63.3149Z" fill="#2C2C2C"/>
<path d="M96.2411 55.3674V53.7115H97.8978V55.3674H96.2411ZM96.2411 63.1494V56.1124H97.8978V63.1494H96.2411Z" fill="#2C2C2C"/>
<path d="M99.4716 63.1494V54.0428H101.128V63.1494H99.4716Z" fill="#2C2C2C"/>
<path d="M108.666 63.3149C106.595 63.3149 105.187 61.8247 105.187 59.6723C105.187 57.5199 106.595 56.0297 108.666 56.0297C110.736 56.0297 112.227 57.5199 112.227 59.6723C112.145 61.8247 110.736 63.3149 108.666 63.3149ZM108.666 61.8247C109.743 61.8247 110.488 60.9142 110.488 59.6723C110.488 58.3476 109.743 57.5199 108.666 57.5199C107.589 57.5199 106.843 58.4306 106.843 59.6723C106.843 60.9142 107.589 61.8247 108.666 61.8247Z" fill="#2C2C2C"/>
<path d="M113.304 63.1494V56.1124H114.961V57.1059C115.541 56.3607 116.369 55.9469 117.363 55.9469C119.02 55.9469 119.931 57.0231 119.931 58.6788V63.0666H118.274V59.01C118.274 58.0166 117.777 57.4371 116.866 57.4371C115.706 57.4371 114.961 58.5133 114.961 60.0863V63.1494H113.304Z" fill="#2C2C2C"/>
<path d="M130.285 63.1494H128.628C128.545 62.9011 128.545 62.6526 128.545 62.2387C127.965 62.9839 127.22 63.3149 126.309 63.3149C124.901 63.3149 123.907 62.4871 123.907 61.2452C123.907 59.9207 124.901 59.1756 126.806 58.8443L128.545 58.5961V58.5133C128.545 57.8509 128.048 57.5199 127.22 57.5199C126.309 57.5199 125.729 57.9338 125.48 58.7616L124.155 57.7681C124.735 56.6092 125.812 56.0297 127.303 56.0297C129.125 56.0297 130.202 56.8574 130.202 58.4306V61.742C130.119 62.2387 130.202 62.7354 130.285 63.1494ZM126.64 61.9077C127.551 61.9077 128.545 61.328 128.545 60.0035V59.9208L127.303 60.0863C125.977 60.3345 125.563 60.583 125.563 61.0797C125.563 61.5764 125.977 61.9077 126.64 61.9077Z" fill="#2C2C2C"/>
<path d="M134.84 66.2125C133.267 66.2125 132.024 65.5503 131.444 64.2256L132.852 63.2321C133.018 64.1428 133.763 64.7223 134.84 64.7223C136.083 64.7223 136.828 63.8116 136.828 62.6527V62.0732C136.331 62.7354 135.503 63.1494 134.675 63.1494C132.852 63.1494 131.527 61.6592 131.527 59.5895C131.527 57.2714 133.101 56.0297 134.675 56.0297C135.503 56.0297 136.331 56.3607 136.828 57.0231V56.1952H138.485V62.4871C138.402 64.888 137.077 66.2125 134.84 66.2125ZM134.923 61.6592C136 61.6592 136.745 60.8312 136.745 59.5895C136.745 58.3476 136 57.5199 134.923 57.5199C133.846 57.5199 133.101 58.3476 133.101 59.5895C133.101 60.8312 133.846 61.6592 134.923 61.6592Z" fill="#2C2C2C"/>
<path d="M139.893 55.3674V53.7115H141.55V55.3674H139.893ZM139.893 63.1494V56.1124H141.55V63.1494H139.893Z" fill="#2C2C2C"/>
<path d="M143.123 63.1494V56.1124H144.78V57.1059C145.36 56.3607 146.188 55.9469 147.182 55.9469C148.839 55.9469 149.75 57.0231 149.75 58.6788V63.0666H148.093V59.01C148.093 58.0166 147.596 57.4371 146.685 57.4371C145.526 57.4371 144.78 58.5133 144.78 60.0863V63.1494H143.123Z" fill="#2C2C2C"/>
<path d="M154.306 66.2125C152.732 66.2125 151.489 65.5503 150.91 64.2256L152.318 63.2321C152.483 64.1428 153.229 64.7223 154.306 64.7223C155.548 64.7223 156.294 63.8116 156.294 62.6527V62.0732C155.797 62.7354 154.968 63.1494 154.14 63.1494C152.318 63.1494 150.992 61.6592 150.992 59.5895C150.992 57.2714 152.566 56.0297 154.14 56.0297C154.968 56.0297 155.797 56.3607 156.294 57.0231V56.1952H157.95V62.4871C157.95 64.888 156.625 66.2125 154.306 66.2125ZM154.388 61.6592C155.465 61.6592 156.211 60.8312 156.211 59.5895C156.211 58.3476 155.465 57.5199 154.388 57.5199C153.311 57.5199 152.566 58.3476 152.566 59.5895C152.649 60.8312 153.394 61.6592 154.388 61.6592Z" fill="#2C2C2C"/>
</svg>
