<svg width="48" height="48" viewBox="0 0 48 48" fill="none" xmlns="http://www.w3.org/2000/svg">
<path d="M3 17.4C3 12.3595 3 9.83929 3.98094 7.91409C4.8438 6.22063 6.22063 4.8438 7.91409 3.98094C9.83929 3 12.3595 3 17.4 3H30.6C35.6405 3 38.1607 3 40.0859 3.98094C41.7794 4.8438 43.1562 6.22063 44.0191 7.91409C45 9.83929 45 12.3595 45 17.4V30.6C45 35.6405 45 38.1607 44.0191 40.0859C43.1562 41.7794 41.7794 43.1562 40.0859 44.0191C38.1607 45 35.6405 45 30.6 45H17.4C12.3595 45 9.83929 45 7.91409 44.0191C6.22063 43.1562 4.8438 41.7794 3.98094 40.0859C3 38.1607 3 35.6405 3 30.6V17.4Z" fill="url(#paint0_linear_0_5356)"/>
<path d="M24 34.5C31.4558 34.5 37.5 29.4632 37.5 23.25C37.5 17.0368 31.4558 12 24 12C16.5442 12 10.5 17.0368 10.5 23.25C10.5 27.1882 12.9283 30.6538 16.6053 32.6637C16.4822 33.664 16.1122 34.999 15 36C17.1032 35.6214 18.7817 34.8607 20.0356 34.0071C21.2892 34.3276 22.6204 34.5 24 34.5Z" fill="white"/>
<defs>
<linearGradient id="paint0_linear_0_5356" x1="24" y1="3" x2="24" y2="45" gradientUnits="userSpaceOnUse">
<stop stop-color="#5AF575"/>
<stop offset="1" stop-color="#13BD2C"/>
</linearGradient>
</defs>
</svg>
