<svg  viewBox="20 16 50 50" fill="none" xmlns="http://www.w3.org/2000/svg"><defs>
<clipPath id="clip0_0_1191">
<rect width="31.8182" height="50" fill="white" transform="translate(20 16)"/>
</clipPath>
<clipPath id="clip1_0_1191">
<rect width="100" height="38.8235" fill="white" transform="translate(100 22)"/>
</clipPath>
</defs><g clip-path="url(#clip0_0_1191)">
<path d="M26.7436 26.8369H21.0469V54.7508H26.7436V26.8369Z" fill="black"/>
<path d="M39.0913 16.2012H33.3945V37.4689H39.0913V16.2012Z" fill="black"/>
<path d="M39.0913 44.1191H33.3945V65.3869H39.0913V44.1191Z" fill="#31D891"/>
<path d="M51.431 26.8369H45.7344V54.7508H51.431V26.8369Z" fill="#31D891"/>
</g><g clip-path="url(#clip1_0_1191)">
<path d="M105.236 30.4146H100.812V52.0889H105.236V30.4146Z" fill="black"/>
<path d="M114.824 22.1562H110.4V38.67H114.824V22.1562Z" fill="black"/>
<path d="M114.824 43.8337H110.4V60.3475H114.824V43.8337Z" fill="#31D891"/>
<path d="M124.406 30.4146H119.982V52.0889H124.406V30.4146Z" fill="#31D891"/>
<path d="M149.382 52.0752V42.45H138.321V52.0752H135.326V30.4099H138.321V39.6693H149.382V30.4099H152.378V52.0752H149.382Z" fill="black"/>
<path d="M168.52 47.8876C167.696 50.4851 165.342 52.5319 161.922 52.5319C157.981 52.5319 154.527 49.6603 154.527 44.6795C154.527 40.0652 157.858 36.9172 161.555 36.9172C166.078 36.9172 168.614 40.0337 168.614 44.6186C168.616 44.9252 168.595 45.2315 168.553 45.535H157.488C157.549 48.1625 159.444 49.9997 161.918 49.9997C164.301 49.9997 165.493 48.6861 166.043 47.035L168.52 47.8876ZM165.615 43.2125C165.554 41.1041 164.18 39.4545 161.583 39.4545C159.169 39.4545 157.702 41.3182 157.579 43.2125H165.615Z" fill="black"/>
<path d="M174.493 43.6718L178.465 43.0918C179.352 42.9687 179.596 42.5105 179.596 41.9921C179.596 40.5567 178.649 39.3646 176.419 39.3646C174.402 39.3646 173.271 40.6175 173.087 42.3294L170.338 41.6872C170.643 38.8756 173.179 36.9219 176.357 36.9219C180.756 36.9219 182.469 39.4276 182.469 42.3V49.6613C182.459 50.4695 182.52 51.2772 182.651 52.0747H179.841C179.729 51.4187 179.677 50.7535 179.688 50.088C179.047 51.1282 177.579 52.5329 174.952 52.5329C171.957 52.5329 170.031 50.4553 170.031 48.1342C170.031 45.5053 171.957 44.0382 174.493 43.6718ZM179.596 45.7801V45.1086L175.104 45.7801C173.882 45.9642 172.965 46.6658 172.965 47.9795C172.965 49.0792 173.882 50.118 175.349 50.118C177.701 50.1195 179.596 48.9883 179.596 45.7801Z" fill="black"/>
<path d="M185.18 57.8819V37.3773H187.961V39.6697C188.755 38.2035 190.497 37.0415 192.88 37.0415C197.279 37.0415 199.634 40.4336 199.634 44.7114C199.634 49.0815 197.097 52.4729 192.789 52.4729C190.527 52.4729 188.817 51.404 188.024 50.0888V57.8819H185.18ZM192.361 39.5781C189.733 39.5781 187.991 41.7774 187.991 44.7099C187.991 47.7348 189.733 49.9048 192.361 49.9048C195.02 49.9048 196.7 47.7348 196.7 44.7099C196.7 41.7774 195.051 39.5781 192.361 39.5781Z" fill="black"/>
</g></svg>