<svg width="158" height="76" viewBox="0 0 158 76" fill="none" xmlns="http://www.w3.org/2000/svg">
<path d="M90.0723 28.5613C86.3814 24.8703 78.8236 23.4642 69.8598 29.6159C69.8598 29.6159 69.8598 15.7307 69.6841 10.2821C69.6841 9.40332 68.981 9.40332 68.981 9.40332C67.8062 9.63255 66.8089 9.82909 65.935 10.0013L65.932 10.0019C61.4493 10.8853 60.2142 11.1287 54.9201 11.864C54.9201 11.864 54.2171 11.864 54.7444 12.2155C55.7989 19.949 56.1504 27.5067 55.7989 64.2408C55.7989 64.2408 55.7989 64.4166 55.9747 64.5923C55.9747 64.7681 56.1504 64.7681 56.3262 64.7681L70.3871 64.5923C70.3871 64.5923 70.5629 64.5923 70.7386 64.4166C70.9144 64.4166 70.9144 64.2408 70.9144 64.065C70.3871 53.8709 70.2113 50.1799 70.2113 37.5251C70.5299 37.4056 70.8395 37.2771 71.1462 37.1498C72.193 36.7153 73.2062 36.2948 74.4296 36.2948C78.6775 36.2948 78.6545 39.4158 78.4895 61.8551L78.4721 64.2408C78.4721 64.4166 78.4721 64.5923 78.6479 64.7681C78.8236 64.9438 78.9994 64.9438 79.1752 64.9438C80.0139 64.9438 81.4531 64.9038 82.9579 64.862C84.6062 64.8161 86.3334 64.7681 87.4359 64.7681C88.0306 64.7681 88.9537 64.8091 89.9075 64.8516C90.9273 64.8969 91.9823 64.9438 92.7088 64.9438C92.8845 64.9438 93.0603 64.9438 93.236 64.7681C93.4118 64.5923 93.4118 64.4166 93.4118 64.2408C92.9061 55.2015 92.9006 48.6402 92.8964 43.7311C92.889 34.9905 92.8861 31.4876 90.0723 28.5613Z" fill="#0073CF"/>
<path fill-rule="evenodd" clip-rule="evenodd" d="M18.0109 64.2408L20.6473 52.4648L34.5324 52.6405L37.1688 64.5923C37.1688 64.9438 37.5204 65.1196 37.8719 65.1196C38.5191 65.1196 39.6876 65.0823 40.9489 65.0422C42.4278 64.995 44.0347 64.9438 45.0781 64.9438H52.4601C52.6358 64.9438 52.8116 64.9438 52.9874 64.7681C53.1631 64.5923 53.1631 64.4165 53.1631 64.2408L36.8173 10.4579C36.8173 10.4579 36.4658 9.57907 35.587 9.75483C33.9811 10.0341 32.0979 10.3411 30.1797 10.6538C27.2692 11.1283 24.2781 11.616 22.0534 12.0397C20.9988 12.3912 20.6473 13.27 20.6473 13.27L3.95 63.8893C3.95 64.065 3.95 64.2408 4.12576 64.4165C4.12576 64.5923 4.47728 64.7681 4.65304 64.7681H17.3078C17.6594 64.7681 18.0109 64.5923 18.0109 64.2408ZM30.5799 34.115C31.2781 37.2254 31.9126 40.0519 32.4233 42.0949H23.4595C24.6898 37.7008 27.1505 28.3855 28.205 23.8157C29.0207 27.1692 29.8365 30.8032 30.5799 34.115Z" fill="#0073CF"/>
<path fill-rule="evenodd" clip-rule="evenodd" d="M118.018 61.0769C115.382 63.0103 110.285 65.6467 106.067 65.6467C99.5634 65.6467 95.5209 60.9012 95.5209 53.8707C95.5209 42.9735 108.351 39.8098 117.491 38.5795C117.667 36.8219 117.667 34.8885 113.097 34.8885C108.527 34.8885 104.66 36.2946 100.618 37.8765C100.495 37.999 100.287 37.9507 100.113 37.9102C100.037 37.8926 99.9681 37.8765 99.9149 37.8765C99.7391 37.7007 99.5634 37.5249 99.5634 37.1734L99.9149 28.7369C99.9149 28.3854 100.091 28.2096 100.442 28.0338C108.703 25.5732 122.764 23.6398 128.564 29.0884C132.188 32.3675 132.084 36.4938 131.913 43.2979L131.903 43.6766C131.728 53.8707 131.903 56.6829 132.431 64.2406C132.431 64.4164 132.431 64.5921 132.255 64.7679C132.079 64.9437 131.903 64.9437 131.728 64.9437L118.721 65.1194C118.546 65.1194 118.37 65.1194 118.194 64.9437C118.018 64.7679 118.018 64.5921 118.018 64.4164V61.0769ZM117.667 46.4887C117.539 46.5022 117.409 46.5156 117.277 46.5292C113.945 46.873 109.23 47.3596 109.23 51.5858C109.23 55.4526 113.448 56.6829 117.667 54.0465V46.4887Z" fill="#0073CF"/>
<path d="M141.219 46.6644C140.868 46.6644 140.516 46.3129 140.516 45.9614C139.638 26.8034 139.462 24.6943 138.407 12.7425C138.407 12.391 138.583 12.0395 139.11 11.8637L153.171 9.57882C153.347 9.57882 153.698 9.57882 153.874 9.75459C154.05 9.93035 154.05 10.1061 154.05 10.4576C153.171 19.0699 152.292 35.4157 152.117 45.7856C152.117 46.1371 151.765 46.4887 151.414 46.4887L141.219 46.6644Z" fill="#0073CF"/>
<path d="M138.766 62.982C138.759 62.9233 138.759 62.8645 138.759 62.8057C138.759 61.3839 138.781 59.9406 138.801 58.5579L138.801 58.5535C138.815 57.6192 138.829 56.7126 138.835 55.859C138.828 54.9703 138.806 54.176 138.759 53.5193C138.759 53.3984 138.759 53.2776 138.816 53.1568C138.804 52.7197 138.785 52.3149 138.759 51.9486C138.759 51.7706 138.759 51.5926 138.937 51.4146C139.115 51.2366 139.293 51.2366 139.471 51.2366C143.031 51.5926 149.26 51.4146 152.108 51.0586C152.286 51.0586 152.464 51.0586 152.642 51.2366C152.82 51.4146 152.82 51.5926 152.82 51.7706C152.82 52.2419 152.818 52.7086 152.814 53.17C152.82 53.2278 152.82 53.2857 152.82 53.3435V64.2407C152.82 64.4165 152.82 64.5922 152.644 64.768C152.469 64.9437 152.293 64.9437 152.117 64.9437C147.02 64.768 143.856 64.768 139.462 65.1195C139.286 65.1195 139.111 65.1195 138.935 64.9437C138.759 64.768 138.759 64.5922 138.759 64.4165C138.759 63.9419 138.762 63.4626 138.766 62.982Z" fill="#0073CF"/>
</svg>
