<svg width="100" height="118" viewBox="0 0 100 118" fill="none" xmlns="http://www.w3.org/2000/svg">
<path d="M7.65549 108.827C5.73759 108.827 5.17983 107.71 5.17983 106.037C5.17983 105.479 5.25011 104.85 5.3364 104.188C5.75627 101.294 6.78194 99.6385 9.25759 99.6385C10.9317 99.6385 11.7484 100.387 11.7484 101.748V102.41H13.4092C13.4279 102.41 13.4279 101.8 13.4279 101.661C13.4279 99.674 12.2243 97.789 9.26026 97.789C5.23232 97.789 3.57595 99.9774 2.96571 104.267C2.87853 104.842 2.82605 105.38 2.82605 105.953C2.82605 108.482 3.82058 110.781 7.37705 110.781C10.0795 110.781 11.6843 109.464 12.6255 107.842L11.0385 106.774C10.0102 108.395 8.89376 108.827 7.65549 108.827ZM18.5535 100.841C15.3271 100.841 13.9331 102.497 13.4626 105.792C13.4092 106.177 13.3745 106.577 13.3745 106.943C13.3745 109.07 14.3681 110.762 17.1222 110.762C20.3487 110.762 21.7613 109.035 22.2319 105.792C22.2844 105.373 22.319 104.99 22.319 104.607C22.3199 102.445 21.2916 100.841 18.5535 100.841ZM19.8959 105.792C19.5472 108.182 18.7982 108.914 17.3846 108.914C16.2522 108.914 15.6945 108.443 15.6945 107.031C15.6945 106.682 15.7301 106.264 15.7994 105.792C16.1481 103.422 16.8456 102.69 18.2751 102.69C19.4262 102.69 20.0008 103.16 20.0008 104.59C20.0008 104.938 19.9653 105.34 19.8959 105.792ZM30.4292 97.9625L29.8892 101.163C29.8545 101.442 29.8723 101.349 29.9773 101.611C29.472 101.227 28.5647 100.974 27.9544 100.974C25.0598 100.974 23.439 102.284 22.9159 105.945C22.8466 106.381 22.8288 106.749 22.8288 107.114C22.8288 109.783 24.398 110.778 26.5071 110.778C27.3976 110.778 28.2684 110.796 28.9481 110.222L29.1215 111.306H30.7957L32.7483 97.9625H30.4292ZM28.7728 108.408C27.9891 108.877 27.2223 108.983 26.7517 108.983C25.4788 108.983 25.1301 108.321 25.1301 107.258C25.1301 106.856 25.1826 106.387 25.2528 105.88C25.6531 103.108 26.5427 102.618 27.6938 102.618C28.4428 102.618 29.0175 102.741 29.5592 103.038L28.7728 108.408ZM37.8401 100.841C34.6484 100.841 33.1504 102.357 32.6442 105.792C32.5908 106.211 32.5561 106.612 32.5561 106.995C32.5561 109.349 33.7597 110.762 36.4088 110.762C38.4664 110.762 40.0018 109.907 40.8211 108.337L39.0597 107.622C38.5545 108.389 37.8748 108.912 36.6713 108.912C35.3814 108.912 34.8583 108.565 34.8583 107.414C34.8583 107.187 34.8761 106.857 34.9108 106.857H41.2045C41.2925 105.968 41.3957 105.339 41.3957 104.817C41.3957 103.075 40.7339 100.841 37.8401 100.841ZM39.0428 105.079H35.207C35.5913 104.189 36.2354 102.812 37.5608 102.812C38.5892 102.812 39.0953 103.414 39.0953 104.442C39.0944 104.616 39.0784 105.079 39.0428 105.079ZM48.1057 100.631L48.3148 98.8521H43.3972L43.1891 100.631H44.479L43.085 109.527H41.7934L41.5852 111.306H46.5018L46.7118 109.527H45.421L46.8149 100.631H48.1057ZM58.0973 103.3L58.7253 101.521H57.0342L55.8147 101.773C55.1341 101.338 54.2099 101.011 53.339 101.011C50.8447 101.011 48.7186 102.216 48.7186 104.954C48.7186 105.721 48.997 106.341 49.328 106.76C48.8058 107.039 48.3521 107.505 48.3521 108.134C48.3521 108.412 48.4562 108.698 48.6661 108.958C47.6191 109.587 46.976 110.629 46.976 111.849C46.976 114.203 49.4338 114.706 51.317 114.706C53.6877 114.706 56.513 114.164 56.513 111.148C56.513 110.119 55.868 109.316 54.0026 108.967L50.6374 108.338C50.254 108.268 50.1668 108.146 50.1668 107.972C50.1668 107.71 50.3252 107.572 50.5858 107.572L50.8126 107.606C51.2663 107.71 51.7894 107.764 52.3293 107.764C54.7534 107.764 56.915 106.717 56.915 103.997C56.915 103.613 56.8457 103.353 56.6713 102.934C56.9675 103.074 57.3518 103.301 57.5075 103.301H58.0973V103.3ZM53.3034 110.517C53.9653 110.64 54.1912 110.883 54.1912 111.319C54.1912 112.732 52.6745 112.906 51.5768 112.906C49.9026 112.906 49.2755 112.506 49.2755 111.616C49.2755 110.831 49.5014 110.465 50.0254 109.907L53.3034 110.517ZM52.5873 105.95C51.5759 105.95 51.0181 105.584 51.0181 104.712C51.0181 103.422 51.768 102.672 53.0757 102.672C54.1218 102.672 54.628 103.108 54.628 103.961C54.628 105.252 53.895 105.95 52.5873 105.95ZM64.2913 100.841C63.3146 100.841 62.4437 101.321 61.362 102.174L61.2054 101.521H59.2866L57.9443 111.306H60.2634L61.2748 103.885C61.9553 103.467 62.7915 102.86 63.5067 102.86C64.3776 102.86 64.6925 103.28 64.6925 104.082C64.6925 104.274 64.6738 104.842 64.6391 105.051L63.786 111.306H66.1051L66.9582 105.001C66.9938 104.705 67.0285 104.22 67.0285 103.941C67.0294 102.283 66.2439 100.841 64.2913 100.841ZM71.4336 108.854L71.4514 108.615L72.4619 101.521H68.6084L68.3655 103.3H70.0557C69.916 103.3 69.8288 103.456 69.8119 103.596L69.1145 108.321C69.0798 108.548 69.0629 109.022 69.0629 109.212C69.0629 110.432 69.7248 111.306 71.084 111.306H72.2698L72.5313 109.527H71.7823C71.5199 109.527 71.4336 109.063 71.4336 108.854ZM72.9325 97.9625H70.6659C70.5262 97.9625 70.5263 97.4492 70.5094 97.6236L70.1944 100.13C70.1767 100.288 70.1767 100.631 70.3163 100.631H72.5838C72.7235 100.631 72.7235 100.022 72.7404 99.8635L73.0553 97.9287C73.0731 97.7543 73.0731 97.9625 72.9325 97.9625ZM77.6614 108.914C77.0868 108.914 76.8075 108.669 76.8075 108.147L76.8252 108.112L77.5574 103.3H80.2074L81.0089 101.521H77.8011L78.3411 97.6058L75.901 98.3859L75.4642 101.521H74.0525L73.8087 103.3H75.4473C75.2908 104.189 75.1333 103.612 75.1164 103.787L74.4884 108.007C74.4537 108.199 74.4537 108.338 74.4537 108.512C74.4537 110.168 75.6742 110.788 77.1402 110.788C78.4994 110.788 79.598 110.391 80.4529 109.675L79.3712 108.345C78.8294 108.676 78.4638 108.914 77.6614 108.914ZM86.1701 100.841C82.9792 100.841 81.4803 102.357 80.9742 105.792C80.9217 106.211 80.887 106.612 80.887 106.995C80.887 109.349 82.0897 110.762 84.7397 110.762C86.7972 110.762 88.3326 109.907 89.151 108.337L87.3906 107.622C86.8853 108.389 86.2048 108.912 85.0012 108.912C83.7122 108.912 83.1883 108.565 83.1883 107.414C83.1883 107.187 83.207 106.857 83.2417 106.857H89.5353C89.6225 105.968 89.7275 105.339 89.7275 104.817C89.7275 103.075 89.0648 100.841 86.1701 100.841ZM87.3737 105.079H83.5379C83.9213 104.189 84.5653 102.812 85.8917 102.812C86.92 102.812 87.4262 103.414 87.4262 104.442C87.4253 104.616 87.4084 105.079 87.3737 105.079ZM96.1439 100.841C95.3068 100.841 94.5222 101.321 93.7376 102.069L93.598 101.521H91.681L90.3377 111.306H92.6746L93.7029 103.729C94.3132 103.363 95.0106 103.051 95.6733 103.051C96.0923 103.051 96.4926 102.984 96.876 103.037L97.174 101.015C96.8235 100.945 96.4748 100.841 96.1439 100.841ZM36.9319 90.9536C31.6541 88.6728 26.7153 82.8746 26.7037 76.9421C26.6895 70.4741 30.7886 64.9828 35.8867 61.3739C35.2738 63.6894 34.9393 65.8075 36.4578 67.8784C37.8695 69.8043 40.3416 70.7401 42.6758 70.2322C48.1306 69.0384 48.3806 63.0418 45.147 59.5485C41.9499 56.089 38.8569 52.1811 40.0738 47.164C40.6832 44.6492 42.2275 42.2937 44.1836 40.6097C42.6803 44.5611 46.9528 48.4583 49.7683 50.3993C54.652 53.7672 60.0098 56.3123 64.5004 60.2602C69.2239 64.4091 72.7119 70.0196 72.0074 76.5258C71.2441 83.5783 65.6399 88.4833 59.3542 90.9599C72.6372 88.0279 86.3623 77.7187 86.6434 62.9867C86.8764 50.8673 78.5626 41.5402 68.2632 36.2001L67.725 35.9066C68.0079 36.5924 68.1004 37.176 68.0897 37.6982C68.1823 37.313 68.2445 36.9171 68.2623 36.5088C68.2579 37.0168 68.1929 37.4962 68.0737 37.9464L68.0897 37.6982C67.935 38.352 67.6752 38.9596 67.3274 39.5155L67.4786 39.3528C65.4237 42.7607 59.8613 43.5008 57.1134 39.9719C52.6958 34.2956 57.2059 28.1754 57.8366 22.1646C58.6266 14.6309 53.9021 7.31781 48.0443 2.94116C51.2708 8.16023 47.0204 15.065 43.6196 18.9248C40.322 22.6672 36.3119 25.7914 32.6718 29.1913C28.7613 32.8429 25.002 36.6894 21.788 40.9753C15.36 49.5534 11.4246 60.342 14.3165 71.0443C17.2067 81.7387 26.4706 88.5465 36.9319 90.9536Z" fill="#EE4323"/>
</svg>
