<svg width="154" height="77" viewBox="0 0 154 77" fill="none" xmlns="http://www.w3.org/2000/svg">
<path d="M48.6616 10.7754V71.161L37.1296 59.6322H3.85004V10.7754H48.5362" fill="#963398"/>
<path d="M53.8453 5.83887V66.2245L42.3133 54.6924H9.03372V5.83887H53.8453Z" fill="#1EBDBF"/>
<path d="M9.03381 10.7754V54.7225H42.3233L48.6519 61.061V10.8942L9.03381 10.7754Z" fill="#492670"/>
<path d="M16.1311 29.8164C17.5731 29.8164 18.7444 31.0702 18.7444 32.621C18.7444 34.1719 17.5764 35.429 16.1311 35.429C14.6859 35.429 13.5212 34.1719 13.5212 32.621C13.5212 31.0702 14.6892 29.8164 16.1311 29.8164ZM28.5343 29.8164C29.2778 29.8216 29.9888 30.1223 30.5105 30.652C31.0322 31.1818 31.322 31.8973 31.3158 32.6408C31.2922 34.1712 30.0366 35.395 28.5061 35.3794C26.9756 35.3637 25.7453 34.1144 25.753 32.5839C25.7608 31.0533 27.0037 29.8166 28.5343 29.8164ZM41.1255 29.8164C41.8684 29.8225 42.5785 30.1235 43.0996 30.6532C43.6206 31.1829 43.9098 31.8979 43.9037 32.6408C43.8783 34.169 42.6234 35.3896 41.0952 35.3727C39.5669 35.3559 38.3393 34.1078 38.3475 32.5795C38.356 31.0512 39.5971 29.8166 41.1255 29.8164Z" fill="white"/>
<path d="M143.848 31.6818C145.783 32.7056 147.391 34.254 148.487 36.1494C150.704 40.1781 150.704 45.0616 148.487 49.0904C147.39 50.985 145.782 52.5331 143.848 53.558C141.757 54.6581 139.422 55.212 137.061 55.1682C134.714 55.2157 132.394 54.6614 130.323 53.558C128.412 52.5258 126.83 50.9778 125.756 49.0904C123.566 45.0525 123.575 40.1794 125.779 36.1494H125.776C126.87 34.259 128.469 32.7116 130.395 31.6818C134.621 29.5302 139.622 29.5302 143.848 31.6818ZM102.917 20.351C103.103 20.7648 103.187 21.2176 103.161 21.6709V53.4128C103.229 53.7397 103.128 54.079 102.892 54.3151C102.656 54.5513 102.316 54.6524 101.989 54.5842H97.558C97.2258 54.6143 96.8946 54.5177 96.6308 54.3136C96.4111 54.0677 96.3046 53.7409 96.3371 53.4128V35.0012L88.0882 44.8174C87.7727 45.1999 87.4214 45.5512 87.0389 45.8667C86.8215 46.0354 86.5552 46.1292 86.28 46.1339C86.0145 46.1206 85.7592 46.0275 85.5475 45.8667C85.161 45.5634 84.816 45.2106 84.5213 44.8174L76.2724 35.0012V53.4128C76.3066 53.7411 76.1998 54.0685 75.9787 54.3136C75.715 54.5177 75.3837 54.6143 75.0516 54.5842H70.5938C70.2669 54.6524 69.9276 54.5513 69.6915 54.3151C69.4554 54.079 69.3542 53.7397 69.4225 53.4128V21.6775C69.4225 20.4962 69.7821 19.9122 70.5014 19.9122C70.8218 19.9252 71.1295 20.0409 71.3791 20.2421C71.7978 20.5795 72.1755 20.9649 72.5043 21.3904L86.3625 37.1129L100.085 21.3904C100.452 20.9839 100.843 20.6005 101.257 20.2421C101.466 20.0548 101.73 19.9409 102.009 19.9166L102.085 19.9122C102.424 19.8835 102.749 20.0549 102.917 20.351ZM112.495 30.649H116.742C117.079 30.6179 117.415 30.7132 117.685 30.9163C117.903 31.1644 118.008 31.4918 117.976 31.8204V53.4062C118.009 53.7338 117.904 54.0605 117.685 54.307C117.42 54.5095 117.088 54.606 116.755 54.5775H112.495C112.168 54.6458 111.829 54.5447 111.593 54.3085C111.357 54.0724 111.256 53.7331 111.324 53.4062V31.827C111.291 31.5002 111.387 31.1734 111.591 30.9163C111.846 30.7127 112.17 30.6167 112.495 30.649ZM133.909 36.905C132.977 37.4283 132.214 38.2081 131.712 39.152C130.636 41.3365 130.636 43.8967 131.712 46.0811C132.213 47.0248 132.976 47.8038 133.909 48.3248C134.827 48.83 135.855 49.0986 136.9 49.1075L137.057 49.1068C138.172 49.123 139.274 48.8562 140.258 48.3314C141.218 47.8101 142.007 47.0216 142.528 46.0613C143.632 43.8987 143.632 41.3378 142.528 39.1751C142.005 38.2163 141.217 37.4282 140.258 36.905C139.323 36.4062 138.283 36.1386 137.224 36.1233L137.057 36.123C135.958 36.1066 134.873 36.376 133.909 36.905ZM116.719 19.0807C117.306 19.4249 117.788 19.9237 118.111 20.5226C118.763 21.7618 118.763 23.2429 118.111 24.4821C117.79 25.0762 117.307 25.5671 116.719 25.8976C116.123 26.2244 115.457 26.3998 114.779 26.4094L114.643 26.409C113.935 26.4189 113.236 26.2426 112.617 25.8976C112.027 25.5688 111.544 25.0775 111.225 24.4821C110.572 23.2429 110.572 21.7618 111.225 20.5226C111.546 19.9222 112.028 19.423 112.617 19.0807C113.192 18.7424 113.844 18.5578 114.51 18.5435L114.643 18.5429C115.371 18.5301 116.089 18.716 116.719 19.0807Z" fill="#3E1B67"/>
</svg>
