<svg width="158" height="76" viewBox="0 0 158 76" fill="none" xmlns="http://www.w3.org/2000/svg">
<path d="M36.1697 9.04429C35.9696 10.245 36.7701 11.0455 37.9708 11.0455H57.983C58.8836 10.9455 59.4839 10.245 59.4839 9.44454C59.584 8.54399 58.9836 8.04368 58.2832 7.64343H37.3704C36.7701 7.94362 36.2697 8.34386 36.1697 9.04429Z" fill="#83BC57"/>
<path d="M57.5827 40.7637H37.8707C36.8701 40.7637 36.2697 41.4641 36.1696 42.3647C36.0696 43.3653 36.67 44.0657 37.6706 44.1658C37.9707 44.2658 38.1709 44.2658 38.4711 44.2658H57.2825C57.5827 44.2658 57.7828 44.2658 58.083 44.1658C59.1837 43.9656 59.7841 43.1651 59.5839 42.1645C59.2838 41.264 58.5833 40.7637 57.5827 40.7637Z" fill="#624DC5"/>
<path d="M37.9708 27.5556H57.5828C57.983 27.5556 58.2832 27.5556 58.6835 27.3555C59.3839 26.9552 59.6841 26.1547 59.4839 25.4543C59.2838 24.6538 58.5834 24.1535 57.6828 24.1535H37.9708C36.7701 24.1535 36.0696 24.8539 36.0696 25.8545C36.0696 26.9552 36.7701 27.5556 37.9708 27.5556Z" fill="#415494"/>
<path d="M99.0831 9.44458V42.3647C99.0831 42.7649 99.1832 43.1652 99.3833 43.4654C99.8836 44.1658 100.584 44.1658 101.284 44.1658H120.296C120.596 44.1658 120.796 44.1658 121.097 44.0657C121.797 43.9657 122.397 43.3653 122.497 42.6649C122.698 41.4641 121.897 40.6636 120.596 40.6636H103.086C102.585 40.6636 102.485 40.5636 102.485 40.0633V28.0559C102.485 27.5556 102.585 27.4556 103.086 27.4556H120.796C121.697 27.4556 122.397 26.8552 122.497 25.9547C122.597 24.854 121.797 24.0535 120.696 24.0535H103.086C102.585 24.0535 102.485 23.8534 102.485 23.4531V11.5459C102.485 11.0456 102.585 10.8454 103.186 10.8454C108.889 10.9455 114.693 10.8454 120.396 10.8454H121.097C121.797 10.7454 122.397 10.2451 122.497 9.44458C122.698 8.44397 122.097 7.8436 121.397 7.44336H100.384C99.5834 8.04373 99.0831 8.54403 99.0831 9.44458ZM67.9891 10.0449C71.091 20.9516 74.1929 31.8583 77.3949 42.7649C77.6951 43.6655 78.2954 44.1658 79.0959 44.1658C79.9965 44.1658 80.4968 43.7655 80.797 42.865C84.199 31.9583 87.6011 21.1517 91.0032 10.2451C91.5035 8.84421 91.3034 8.34391 90.0026 7.64348H88.9019C88.3015 8.04372 87.9013 8.54403 87.7012 9.24446C85.1996 17.2493 82.6981 25.1542 80.0965 33.1591C79.6963 34.2597 79.3961 35.2603 78.9958 36.4611C78.8958 36.261 78.8958 36.261 78.8958 36.1609C76.4943 27.3555 73.9928 18.4501 71.3912 9.6447C71.091 8.84421 70.8909 8.04372 70.0904 7.64348H68.9897C67.8891 8.34391 67.6889 8.94427 67.9891 10.0449ZM4.95062 9.94489C5.05068 20.6514 4.95062 31.358 4.95062 42.0645V42.7649C5.05068 43.5654 5.65105 44.0657 6.35148 44.1658C6.65166 44.2658 6.85179 44.2658 7.15197 44.2658H26.0635C26.3637 44.2658 26.5638 44.2658 26.864 44.1658C27.9647 43.9657 28.565 42.9651 28.2649 41.9644C27.9647 41.164 27.3643 40.7637 26.3637 40.7637H9.05313C8.45276 40.7637 8.3527 40.5636 8.3527 40.0633C8.3527 30.1572 8.3527 20.1511 8.45276 10.2451C8.45276 9.1444 8.3527 8.24385 7.35209 7.64348H6.15136C5.25081 8.14378 4.95062 8.94428 4.95062 9.94489ZM130.502 9.94489V42.6649C130.602 43.2652 130.802 43.6655 131.303 43.9657C131.803 44.2658 132.303 44.2658 132.804 44.2658H151.715C152.015 44.2658 152.316 44.2658 152.616 44.1658C153.416 44.0657 154.017 43.3653 154.017 42.6649C154.117 41.5642 153.316 40.7637 152.116 40.7637H134.705C134.205 40.7637 134.004 40.6636 134.004 40.0633C134.004 29.9571 134.004 19.8509 134.105 9.84482C134.105 8.84421 133.804 8.14378 132.904 7.64348H131.803C130.702 8.14378 130.502 8.94428 130.502 9.94489ZM4.15014 64.6783C4.95062 67.48 8.95307 68.2805 11.0544 66.3794C11.5547 65.9791 11.9549 65.3787 12.3551 64.8784V66.3794C12.3551 66.6795 12.4552 66.8797 12.6553 66.9797C13.1556 67.2799 13.756 67.2799 14.2563 67.0798C14.7566 66.8797 14.7566 66.4794 14.7566 66.0792V62.1768C14.7566 60.6759 14.8567 59.275 14.6566 57.7741C14.3564 55.8729 13.1556 54.372 11.3545 53.9718C9.35331 53.4715 7.45215 53.8717 5.75111 54.8723C4.95062 55.1725 4.95062 55.4727 5.25081 56.1731C5.65105 56.8735 5.95124 56.9736 6.5516 56.6734C7.15197 56.3732 7.65227 56.1731 8.25264 55.973C10.454 55.3726 11.8548 56.3732 12.055 58.4745C12.155 58.8748 11.9549 59.0749 11.5547 59.0749C10.9543 59.0749 10.454 59.0749 9.85362 59.1749C7.35209 59.3751 4.95062 59.7753 3.95001 62.577V64.4782L4.15014 64.6783ZM7.35209 61.5764C8.15258 60.9761 9.05313 60.876 10.0537 60.7759C10.3539 60.6759 10.6541 60.6759 10.9543 60.6759C12.4552 60.6759 12.3551 60.3757 12.155 61.9767C11.9549 62.9773 11.5547 63.8778 10.7542 64.5783C10.0537 65.2787 9.15319 65.4788 8.25264 65.3787C7.35209 65.1786 6.75172 64.5782 6.5516 63.7778C6.25142 62.8772 6.5516 62.0767 7.35209 61.5764ZM98.9831 54.5721C96.9818 53.1713 93.7799 53.3714 91.7787 55.1725C89.4773 57.2738 89.077 59.9754 89.8775 62.8772C91.3784 67.6801 97.0819 68.5807 100.484 65.9791C100.984 65.5789 100.984 65.0786 100.384 64.3781C99.9837 63.8778 99.6835 63.8778 99.1832 64.178C99.0831 64.2781 98.883 64.3781 98.7829 64.4782C95.8812 66.2793 92.379 64.7784 91.8787 61.4764C91.7787 60.9761 91.8787 60.7759 92.4791 60.7759C93.1795 60.7759 93.7799 60.876 94.3802 60.7759H100.184C100.684 60.7759 101.084 60.4757 101.084 60.0755C101.284 57.9742 100.784 55.973 98.9831 54.5721ZM98.4827 59.1749H92.4791C92.279 59.1749 92.0788 59.275 92.0788 58.8748C92.279 56.9736 94.3802 55.3726 96.2814 55.7729C97.8824 56.1731 98.5828 57.4739 98.6829 58.8748C98.883 59.275 98.6829 59.1749 98.4827 59.1749ZM70.7908 64.2781C69.8903 64.9785 68.7896 65.3787 67.6889 65.2787C65.7878 65.1786 64.2869 63.9779 63.6865 62.1768C63.0861 60.1756 63.6865 57.9742 65.2875 56.7735C66.7884 55.6728 68.7896 55.6728 70.3906 56.7735C71.1911 57.2738 71.3912 57.2738 71.7915 56.6734C72.3918 55.7729 72.3918 55.4727 71.5913 54.9724C69.9903 53.8717 68.1893 53.4715 66.3882 53.8717C63.1862 54.4721 61.285 56.7735 60.9848 60.0755C60.5846 64.178 63.5864 67.38 67.6889 67.38C69.2899 67.38 70.6908 66.8797 71.9916 65.879C72.692 65.3787 72.692 64.8784 72.1917 64.0779C71.7915 63.6777 71.4913 63.6777 70.7908 64.2781ZM42.3735 64.2781C41.2728 65.0786 40.0721 65.4788 38.7713 65.2787C36.4699 64.8784 34.8689 62.8772 34.969 60.5758C35.069 58.1743 36.3698 56.5734 38.4711 56.1731C39.7719 55.8729 40.9726 56.2732 41.9732 56.9736C42.2734 57.1737 42.6737 57.3738 43.0739 57.1737C43.9745 56.4733 43.9745 55.6728 43.0739 55.0724C40.7725 53.5715 38.371 53.4715 35.9696 54.6722C33.5681 55.973 32.5675 58.0743 32.5675 59.9754C32.5675 63.4776 33.9683 65.879 36.1697 66.8797C38.7713 68.0804 41.2728 67.7802 43.6743 66.0792C44.3747 65.5789 44.3747 65.0786 43.7743 64.2781C43.3741 63.6777 42.9739 63.6777 42.3735 64.2781ZM151.915 60.2756C151.115 59.8754 150.314 59.5752 149.614 59.275C149.014 58.9748 148.513 58.7747 148.013 58.3745C147.213 57.674 147.413 56.5734 148.313 56.0731C148.713 55.8729 149.114 55.7729 149.514 55.7729C150.515 55.6728 151.415 56.0731 152.216 56.4733C152.816 56.8735 153.116 56.6734 153.516 55.973C153.917 55.2726 153.817 54.9724 153.216 54.5721C151.615 53.5715 149.914 53.3714 148.113 53.7716C146.412 54.1719 145.411 55.3726 145.211 56.8735C145.011 58.5746 145.712 59.7753 147.313 60.5758C147.913 60.876 148.513 61.0761 149.114 61.3763C149.714 61.6765 150.314 61.8766 150.815 62.1768C151.415 62.577 151.915 62.9773 151.715 63.7778C151.615 64.5782 151.115 64.9785 150.214 65.1786C148.814 65.4788 147.713 64.9785 146.612 64.178C146.012 63.7778 145.612 63.8778 145.211 64.5783C144.811 65.1786 144.811 65.5789 145.411 65.9791C146.612 66.8797 148.013 67.2799 149.614 67.2799C149.914 67.2799 150.414 67.1798 150.815 67.0798C152.516 66.6795 153.817 65.4788 154.017 63.9779C154.217 62.477 153.516 61.1762 151.915 60.2756ZM126.4 60.876C125.799 60.3757 125.099 60.0755 124.299 59.7753C123.498 59.4751 122.698 59.1749 121.997 58.7747C121.397 58.3745 120.997 57.9742 121.097 57.2738C121.197 56.4733 121.697 56.0731 122.397 55.973C123.598 55.6728 124.699 56.0731 125.699 56.5734C126.3 56.9736 126.6 56.7735 127 56.0731C127.4 55.3726 127.4 55.0724 126.7 54.6722C125.299 53.7716 123.898 53.5715 122.297 53.7716C120.396 54.0718 118.995 55.2726 118.695 56.8735C118.395 58.6746 119.195 59.9754 121.097 60.876L123.198 61.7765C123.798 61.9767 124.299 62.2768 124.699 62.577C125.499 63.2775 125.399 64.4782 124.399 64.9785C123.798 65.3787 123.198 65.3787 122.597 65.3787C121.697 65.2787 120.796 64.8784 120.096 64.3781C119.396 63.8778 119.095 63.9779 118.595 64.6783C118.095 65.3787 118.195 65.6789 118.895 66.1792C120.096 67.0798 121.497 67.48 123.098 67.48C123.598 67.5801 124.198 67.38 124.799 67.1798C126.2 66.6795 127.2 65.779 127.5 64.2781C127.801 62.8772 127.4 61.7765 126.4 60.876Z" fill="#050505"/>
</svg>
