<svg width="247" height="48" viewBox="0 0 247 48" fill="none" xmlns="http://www.w3.org/2000/svg">
<path d="M18.0961 5.66705C19.4941 6.44231 20.8141 7.42327 21.9431 8.51394C23.7628 8.18517 25.6374 8.0192 27.5401 8.0192C33.2349 8.0192 38.6343 9.51156 42.7436 12.2206C44.8705 13.6249 46.5623 15.2899 47.7694 17.1706C49.1125 19.267 49.795 21.5196 49.7934 23.9366C49.7934 26.2871 49.1125 28.5429 47.7677 30.6378C46.5606 32.5201 44.8688 34.1835 42.742 35.5877C38.6343 38.2968 33.2349 39.7875 27.5384 39.7875C25.6356 39.7875 23.7612 39.6214 21.9414 39.2928C20.8125 40.3833 19.4925 41.3644 18.0944 42.1397C12.9059 44.7341 8.33509 43.7663 6.02561 42.933C5.2669 42.6592 5.03437 41.6963 5.59388 41.1171C7.22267 39.4306 9.91741 36.0957 9.25493 33.0647C6.67982 30.427 5.28345 27.2465 5.28345 23.8718C5.28345 20.5602 6.67982 17.3797 9.25658 14.7404C9.91907 11.7093 7.22432 8.37609 5.59554 6.68962C5.03437 6.11024 5.26855 5.14583 6.02727 4.87192C8.33674 4.04027 12.9094 3.07255 18.0961 5.66705ZM27.3076 12.458C17.3158 12.458 9.21509 17.7001 9.21509 24.1656C9.21509 26.9825 10.7525 29.5688 13.316 31.589C14.0383 33.8913 13.615 36.4875 12.0476 39.3758C11.9728 39.5152 11.9031 39.6546 11.8267 39.7925C13.1717 39.6812 14.5314 39.3111 15.9078 38.6355C16.8605 38.0998 17.777 37.4317 18.578 36.6925L18.7935 36.4891L20.3575 34.9802C22.4977 35.5562 24.8453 35.8749 27.3076 35.8749C37.2994 35.8749 45.4001 30.6345 45.4017 24.1656C45.4017 17.7001 37.2994 12.458 27.3076 12.458ZM83.0312 14.249C85.8803 14.249 88.2862 15.2101 90.2469 17.0975C92.2078 18.9848 93.2073 21.3519 93.2073 24.1274C93.2073 26.9012 92.2078 29.2699 90.2469 31.1556C88.2862 33.043 85.8803 34.0041 83.0312 34.0041C80.1821 34.0041 77.7763 33.043 75.8155 31.1556C73.8547 29.2699 72.8551 26.9012 72.8551 24.1274C72.8551 21.3519 73.8547 18.9848 75.8155 17.0975C77.7763 15.2101 80.1821 14.249 83.0312 14.249ZM141.053 14.3602C143.754 14.3602 145.937 15.2483 147.603 17.061C149.304 18.8371 150.157 21.0565 150.157 23.6825C150.157 24.237 150.12 24.793 150.082 25.2728H135.798C135.946 28.2324 138.129 30.1198 141.423 30.1198C144.347 30.1198 146.566 29.4177 148.121 27.9735V32.1168C146.307 33.375 144.013 34.0041 141.238 34.0041C138.315 34.0041 135.91 33.1161 134.098 31.3781C132.285 29.6019 131.397 27.2348 131.397 24.3117V24.1274H131.394C131.394 21.2042 132.283 18.8371 134.096 17.061C135.909 15.2483 138.24 14.3602 141.053 14.3602ZM237.608 8.67648V14.8051H241.716V18.8371H237.608V29.7878H241.494V33.7469C240.865 33.8945 240.087 33.9692 239.2 33.9692C235.166 33.9692 233.167 31.8611 233.167 27.6431V8.67648H237.608ZM157.943 8.67648V14.8051H162.05V18.8371H157.943V29.7878H161.828V33.7469C161.199 33.8945 160.422 33.9692 159.533 33.9692C155.501 33.9692 153.502 31.8611 153.502 27.6431V8.67648H157.943ZM105.678 14.2091C108.082 14.2124 110.081 14.8416 111.672 16.0999V20.5386C110.081 19.0214 108.157 18.2444 105.936 18.2444C104.199 18.2444 102.754 18.7989 101.609 19.9094C100.461 21.0199 99.9067 22.4259 99.9067 24.0892C99.9067 25.7541 100.461 27.1601 101.609 28.269C102.756 29.3795 104.199 29.9339 105.936 29.9339C108.196 29.9339 110.118 29.157 111.672 27.6398V32.0786C110.118 33.3368 108.12 33.9659 105.678 33.9659C102.792 33.9659 100.387 33.0414 98.4257 31.1539C96.465 29.2666 95.502 26.9361 95.502 24.0875C95.502 21.2391 96.4632 18.9085 98.4257 17.0211C100.387 15.1337 102.792 14.2091 105.678 14.2091ZM180.527 14.2091C182.931 14.2124 184.93 14.8416 186.521 16.0999V20.5386C184.93 19.0214 183.005 18.2444 180.786 18.2444C179.047 18.2444 177.603 18.7989 176.457 19.9094C175.311 21.0199 174.756 22.4259 174.756 24.0892C174.756 25.7541 175.311 27.1601 176.457 28.269C177.605 29.3795 179.047 29.9339 180.786 29.9339C183.042 29.9339 184.967 29.157 186.521 27.6398V32.0786C184.967 33.3368 182.969 33.9659 180.527 33.9659C177.642 33.9659 175.235 33.0414 173.275 31.1539C171.314 29.2666 170.35 26.9361 170.35 24.0875C170.35 21.2391 171.313 18.9085 173.275 17.0211C175.235 15.1337 177.642 14.2091 180.527 14.2091ZM166.442 28.5579C167.915 28.5579 169.109 29.7463 169.109 31.2121C169.109 32.6778 167.915 33.8664 166.442 33.8664C164.97 33.8664 163.776 32.6778 163.776 31.2121C163.776 29.7463 164.97 28.5579 166.442 28.5579ZM218.825 14.3967C221.895 14.3984 224.153 15.6932 224.783 17.5058V14.8051H229.222V33.4497H224.783V30.7489C224.153 32.5616 221.897 33.8563 218.825 33.8563C216.199 33.8563 213.977 32.9318 212.165 31.0826C210.388 29.1952 209.5 26.9029 209.5 24.1274C209.5 21.352 210.388 19.0596 212.165 17.2088C213.977 15.3213 216.197 14.3967 218.825 14.3967ZM70.4128 14.4349C70.9308 14.4349 71.3758 14.4715 71.7444 14.5462V18.8371C71.1898 18.7258 70.5606 18.6529 69.8948 18.6529C66.8231 18.6529 64.8624 20.5767 64.8624 23.6476V33.4513H60.4592V14.8051H64.8624V17.5789C65.7507 15.6184 67.7861 14.4349 70.4128 14.4349ZM194.218 8.67648V17.3946C195.069 15.6185 197.104 14.4349 199.657 14.4349C203.949 14.4349 206.467 17.2833 206.467 21.908V33.4497H202.063V22.5355C202.063 19.9825 200.693 18.3922 198.325 18.3922C195.919 18.3922 194.218 20.1684 194.218 22.7198V33.448H189.815V8.67648H194.218ZM119.369 8.67648V22.7579L125.66 14.8034H130.692L123.624 23.7191L131.283 33.448H126.103L119.369 24.8279V33.448H114.966V8.67648H119.369ZM83.0312 18.2826C81.3659 18.2826 79.9978 18.8371 78.887 19.9841C77.8144 21.0946 77.2582 22.4624 77.2582 24.1274C77.2582 25.7923 77.8128 27.1601 78.887 28.3071C79.9978 29.4177 81.3659 29.9721 83.0312 29.9721C84.66 29.9721 86.0281 29.4177 87.1389 28.3071C88.2496 27.1601 88.8042 25.7907 88.8042 24.1274C88.8042 22.4624 88.2496 21.093 87.1389 19.9841C86.0281 18.8371 84.66 18.2826 83.0312 18.2826ZM219.416 18.4304C217.826 18.4304 216.53 18.9848 215.457 20.0588C214.42 21.1312 213.902 22.5006 213.902 24.129C213.902 25.7575 214.42 27.1252 215.457 28.1976C216.529 29.2699 217.825 29.826 219.416 29.826C221.008 29.826 222.377 29.2699 223.45 28.1976C224.561 27.1252 225.115 25.7558 225.115 24.129C225.115 22.5022 224.561 21.1328 223.45 20.0588C222.377 18.9865 221.007 18.4304 219.416 18.4304ZM35.8184 21.4748C37.2894 21.4748 38.4848 22.6633 38.4848 24.129C38.4848 25.5948 37.291 26.7833 35.8184 26.7833C34.3457 26.7833 33.1519 25.5948 33.1519 24.129C33.1519 22.6633 34.3457 21.4748 35.8184 21.4748ZM18.6507 21.4748C20.1234 21.4748 21.3171 22.6633 21.3171 24.129C21.3171 25.5948 20.1234 26.7833 18.6507 26.7833C17.178 26.7833 15.9843 25.5948 15.9843 24.129C15.9843 22.6633 17.178 21.4748 18.6507 21.4748ZM27.2346 21.4748C28.7072 21.4748 29.9011 22.6633 29.9011 24.129C29.9011 25.5948 28.7072 26.7833 27.2346 26.7833C25.7618 26.7833 24.5681 25.5948 24.5681 24.129C24.5681 22.6633 25.7618 21.4748 27.2346 21.4748ZM141.053 18.135C139.683 18.135 138.499 18.5416 137.501 19.3184C136.501 20.0954 135.984 21.0199 135.91 22.1305H145.641C145.641 21.0581 145.197 20.0954 144.308 19.3184C143.421 18.5416 142.348 18.135 141.053 18.135Z" fill="#F5455C"/>
</svg>
