<svg width="184" height="65" viewBox="0 0 184 65" fill="none" xmlns="http://www.w3.org/2000/svg">
<path d="M107.009 33.7039C106.236 32.4422 107.254 31.3838 107.254 31.3838L116.208 22.1443C117.226 21.0858 115.761 21.0858 115.761 21.0858H107.417C105.952 21.0858 104.934 22.1443 104.934 22.1443L96.6709 30.9362C95.6536 31.9946 95.6536 30.5286 95.6536 30.5286V11.3165C95.6536 9.85156 94.1887 9.85156 94.1887 9.85156H87.879C86.454 9.85156 86.454 11.2765 86.454 11.2765V51.4499C86.454 52.916 87.9201 52.916 87.9201 52.916H94.1887C95.6125 52.916 95.6125 51.491 95.6125 51.491V44.4495C95.6125 42.9846 96.6709 41.9661 96.6709 41.9661L99.6419 39.1983L107.05 51.6543C107.783 52.916 109.248 52.916 109.248 52.916H117.186C118.651 52.916 117.878 51.6543 117.878 51.6543L107.009 33.7039ZM79.8612 51.4499V22.5108C79.8612 21.0447 78.3963 21.0447 78.3963 21.0447H72.0467C70.5818 21.0447 70.5818 22.5108 70.5818 22.5108V51.4499C70.5818 52.916 72.0467 52.916 72.0467 52.916H78.3963C79.8612 52.916 79.8612 51.4499 79.8612 51.4499ZM79.6169 15.387V11.2354C79.6169 11.2354 79.6169 9.81046 78.1919 9.81046H72.0045C72.0045 9.81046 70.5806 9.81046 70.5806 11.2354V15.387C70.5806 15.387 70.5806 16.812 72.0045 16.812H78.2319C78.2319 16.812 79.6169 16.812 79.6169 15.387ZM63.7823 51.4499V11.3576C63.7823 9.89267 62.3174 9.89267 62.3174 9.89267H55.8456C54.3807 9.89267 54.3807 11.3576 54.3807 11.3576V51.4499C54.3807 52.916 55.8456 52.916 55.8456 52.916H62.3174C63.7823 52.916 63.7823 51.4499 63.7823 51.4499ZM49.2517 49.7418C49.2517 49.7418 50.0658 48.8055 49.1295 47.9914L43.9605 43.4732C46.2807 40.0136 47.6645 35.9031 47.6645 31.4249C47.6645 19.5398 38.0174 9.89381 26.1323 9.89381C14.2461 9.89267 4.6001 19.5387 4.6001 31.4237C4.6001 43.31 14.2472 52.956 26.1323 52.956C30.4872 52.956 34.5166 51.6543 37.9363 49.4152L43.634 54.3398C43.634 54.3398 44.5702 55.1539 45.3843 54.2177L49.2517 49.7418ZM38.5472 31.3849C38.5472 38.2632 32.9706 43.8398 26.0912 43.8398C19.213 43.8398 13.6364 38.2632 13.6364 31.3849C13.6364 24.5055 19.213 18.9301 26.0912 18.9301C32.9706 18.97 38.5472 24.5055 38.5472 31.3849Z" fill="#54565B"/>
<path d="M178.851 50.1879L171.931 44.3681C174.333 40.5419 175.756 36.0238 175.756 31.1802C175.756 17.5436 164.685 6.47266 151.05 6.47266C137.414 6.47266 126.344 17.5436 126.344 31.1802C126.344 44.8157 137.414 55.8867 151.05 55.8867C156.341 55.8867 161.267 54.2174 165.296 51.3686L172.663 57.556C172.663 57.556 173.763 58.4923 174.699 57.3927L179.095 52.1827C179.054 52.1827 179.949 51.0842 178.851 50.1879ZM166.233 31.1802C166.233 39.5645 159.435 46.3617 151.05 46.3617C142.666 46.3617 135.867 39.5645 135.867 31.1802C135.867 22.7948 142.666 15.9976 151.05 15.9976C159.435 15.9976 166.233 22.7948 166.233 31.1802Z" fill="#009848"/>
<path d="M141.282 31.1801C141.282 25.8074 145.638 21.4519 151.011 21.4519C156.383 21.4519 160.739 25.8074 160.739 31.1801C160.739 36.5529 156.383 40.9083 151.011 40.9083C145.638 40.9083 141.282 36.5529 141.282 31.1801Z" fill="#54565B"/>
</svg>
