<svg width="162" height="73" viewBox="0 0 162 73" fill="none" xmlns="http://www.w3.org/2000/svg">
<path d="M157.901 48.4967C157.527 44.8242 154.86 43.1868 152.358 43.1868C151.211 43.1868 150.299 43.5143 149.948 43.6546L149.457 43.8651L149.036 44.1692C148.451 44.6137 147.422 45.2219 146.51 45.5493C146.463 44.8008 146.486 43.8417 146.603 43.0464L146.627 42.9061C147.305 36.45 145.948 32.6839 142.603 31.7249C142.042 31.5611 141.457 31.4909 140.872 31.4909C138.837 31.4909 137.036 32.4734 135.866 33.3155C134.884 32.0757 133.247 31.374 131.188 31.374C128.124 31.374 125.668 32.8009 124.779 35.0933C124.685 35.3272 124.568 35.678 124.428 36.1459C122.627 32.1693 118.954 30.6488 115.539 30.6488C112.311 30.6488 109.176 31.912 108.007 32.8009C107.96 32.8477 107.89 32.871 107.82 32.9412C104.755 35.1166 102.37 37.8535 100.685 41.1517C99.8666 38.2979 98.0655 35.6313 94.8374 33.6196L94.7906 33.5728C94.697 33.526 94.6269 33.4792 94.5333 33.4324C97.6912 27.8184 100.498 20.3799 98.814 13.2922C97.0362 5.73669 92.5918 4.61389 90.0889 4.61389C89.0597 4.61389 88.007 4.80103 86.931 5.17529L86.8608 5.19868L86.7907 5.22208C82.0889 7.07002 80.0305 9.85363 79.586 10.5086C79.1182 11.2103 73.972 19.0232 72.7323 30.4617C72.5919 31.7249 72.4516 33.0348 72.3112 34.3447C71.5861 33.3155 70.3931 32.3798 68.4984 31.795C67.9136 31.6079 67.3054 31.5377 66.6972 31.5377C64.1007 31.5377 61.9955 33.1284 60.8727 34.181L60.8493 34.1576C59.8668 32.7073 58.2996 31.8418 56.5686 31.7716H56.1476C53.3873 31.7716 51.1885 32.988 49.5745 34.3681C48.5453 32.567 46.6505 31.4442 44.4283 31.4442C44.2412 31.4442 44.0775 31.4442 43.9137 31.4675H43.5394C40.4751 31.4675 38.0658 32.9178 37.0833 35.3272C37.0132 35.5143 36.9196 35.7482 36.826 36.0523C34.4167 33.0582 31.3524 31.6547 27.2354 31.6547H26.8378C24.2647 31.7015 17.8554 32.7775 13.9256 41.6195C13.3174 42.9762 12.8496 44.3564 12.4987 45.7131C11.6332 45.3154 10.8379 45.2219 10.2531 45.2219C8.19461 45.2219 6.65076 46.3914 5.90223 47.4908C5.29404 48.3797 3.35253 51.5376 4.31159 54.6253C4.82621 56.2861 6.01919 57.5493 7.70339 58.2042C9.17706 58.789 11.0484 59.3504 12.4519 59.7481C13.3174 61.713 14.8612 63.982 17.5981 66.0638C19.5396 67.5375 22.0191 68.286 24.9431 68.286C29.8553 68.286 34.6038 66.1574 35.1184 65.9235L35.3056 65.8299L35.3524 65.7831C36.288 66.7656 37.5278 67.4673 39.095 67.7714C39.5629 67.865 40.171 67.9352 40.8728 67.9352C43.5394 67.9352 45.3874 66.5785 47.095 64.0288C48.4985 66.2276 51.0482 67.4673 54.0657 67.4673H54.0891C54.2528 67.4673 54.4166 67.5843 54.6037 67.5843C56.1943 67.5843 58.1826 67.0229 59.8434 64.3562C61.2236 66.8358 63.7499 68.2627 66.744 68.2627C69.4106 68.2627 71.7264 67.1632 72.1475 66.9527L72.241 66.9059C73.1299 66.4381 73.8785 66.0171 74.4632 65.6896C76.4515 66.7422 79.4691 67.9118 83.1649 67.9118C83.7965 67.9118 84.4281 67.8884 85.0597 67.8182L85.2234 67.7948L85.3872 67.7714C93.2234 66.2276 98.3228 64.3562 101.364 62.9294C103.492 65.3153 106.884 67.6077 111.726 67.9586C112.264 68.0053 112.826 68.0287 113.364 68.0287C117.34 68.0287 120.521 66.9059 122.861 65.6662C123.609 66.4615 124.545 67.1866 125.761 67.6779C126.486 67.982 127.235 68.1223 128.007 68.1223C132.872 68.1223 135.141 62.3212 135.773 60.3563L136.942 57.2218C137.972 58.3212 139.282 59.2101 140.942 59.6779C141.855 59.9352 142.837 60.0756 143.843 60.0756C149.2 60.0756 154.346 56.2861 155.165 55.6545C156.638 54.4382 158.252 51.9353 157.901 48.4967Z" fill="white"/>
<path d="M108.828 50.082C108.828 50.082 108.15 47.6961 110.676 43.0879C113.179 38.5032 115.144 41.0061 115.144 41.0061C115.144 41.0061 117.296 43.3452 114.84 46.8306C112.384 50.3394 108.828 50.082 108.828 50.082ZM89.53 53.4037C86.6529 60.9358 79.6587 57.8715 79.6587 57.8715C79.6587 57.8715 78.8634 55.1814 81.1324 47.6259C83.4014 40.0938 88.7347 43.0411 88.7347 43.0411C88.7347 43.0411 92.4072 45.8715 89.53 53.4037ZM84.3137 21.8483C84.3137 21.8483 88.6645 10.5033 89.7172 16.0238C90.7698 21.5442 80.5944 37.9652 80.5944 37.9652C80.688 34.2693 84.3137 21.8483 84.3137 21.8483ZM22.0918 50.082C22.279 42.7838 27.0509 39.6026 28.7117 41.1932C30.3725 42.7838 29.7643 46.2224 26.6298 48.3745C23.5187 50.5265 22.0918 50.082 22.0918 50.082ZM153.927 48.8891C153.693 46.4329 151.471 47.3452 151.471 47.3452C151.471 47.3452 147.916 50.1054 144.781 49.8013C141.67 49.4739 142.653 42.5031 142.653 42.5031C142.653 42.5031 143.331 36.0938 141.483 35.5558C139.635 35.0178 137.366 37.2166 137.366 37.2166C137.366 37.2166 134.536 40.3511 133.202 44.3277L132.828 44.4447C132.828 44.4447 133.249 37.4505 132.758 35.8599C132.384 35.0646 129.015 35.1348 128.477 36.5383C127.916 37.9418 125.226 47.7429 125.039 51.8598C125.039 51.8598 119.775 56.3276 115.167 57.0762C110.559 57.8013 109.46 54.9241 109.46 54.9241C109.46 54.9241 121.974 51.4388 121.53 41.4505C121.109 31.4623 111.448 35.1582 110.349 35.9769C109.296 36.7722 103.659 40.164 101.998 49.5908C101.951 49.9183 101.834 51.3218 101.834 51.3218C101.834 51.3218 96.992 54.5732 94.3019 55.4387C94.3019 55.4387 101.834 42.7604 92.6411 36.9827C88.4774 34.4798 85.1558 39.7429 85.1558 39.7429C85.1558 39.7429 97.6002 25.895 94.84 14.1758C93.53 8.60859 90.7464 8.00041 88.1733 8.91269C84.2903 10.4565 82.8166 12.7021 82.8166 12.7021C82.8166 12.7021 77.7874 20.0003 76.6178 30.8541C75.4482 41.7078 73.7407 54.8072 73.7407 54.8072C73.7407 54.8072 71.3547 57.1463 69.1559 57.2633C66.9571 57.3803 67.9395 50.7136 67.9395 50.7136C67.9395 50.7136 69.6471 40.5382 69.5302 38.8306C69.4132 37.1231 69.2962 36.1874 67.2612 35.5792C65.2495 34.971 63.0273 37.5441 63.0273 37.5441C63.0273 37.5441 57.2027 46.3628 56.7115 47.7195L56.4074 48.2809L56.1033 47.9066C56.1033 47.9066 60.2203 35.8833 56.2905 35.7196C52.3607 35.5324 49.7876 40.0002 49.7876 40.0002C49.7876 40.0002 45.3198 47.4856 45.1326 48.3277L44.8285 47.9534C44.8285 47.9534 46.6765 39.2517 46.3022 37.0997C45.9279 34.9476 43.9163 35.3921 43.9163 35.3921C43.9163 35.3921 41.3432 35.088 40.6648 36.7488C39.9865 38.4096 37.5303 49.3803 37.2262 52.8657C37.2262 52.8657 30.7935 57.4738 26.5596 57.5206C22.3257 57.5908 22.7702 54.8306 22.7702 54.8306C22.7702 54.8306 38.2789 49.5206 34.045 39.0412C32.1502 36.3511 29.928 35.509 26.8169 35.5558C23.6825 35.626 20.01 37.5207 17.4837 43.1581C16.2907 45.8482 15.7995 48.3978 15.7995 50.3394C15.7995 50.3394 12.8989 50.9008 11.4252 49.661C9.95154 48.4446 9.10944 49.661 9.10944 49.661C9.10944 49.661 6.53635 53.3335 9.03926 54.3159C11.5422 55.2984 15.4252 56.2107 15.4252 56.2107C15.7761 57.8013 16.8287 60.3978 19.893 62.7136C24.4778 66.1989 33.3198 62.1755 33.3198 62.1755L36.9455 60.0235C36.9455 60.0235 37.0625 63.275 39.7058 63.7662C42.349 64.2574 43.4484 63.7194 48.0332 52.585C50.7232 46.8774 50.9104 47.1815 50.9104 47.1815L51.2145 47.1113C51.2145 47.1113 49.1326 58.0118 49.9279 60.9592C50.7232 63.9065 54.2086 63.6024 54.2086 63.6024C54.2086 63.6024 56.1033 64.2808 57.6472 58.8773C59.191 53.4738 62.115 47.8364 62.115 47.8364H62.4893C62.4893 47.8364 61.2027 58.6902 63.1676 62.2457C65.1325 65.8013 70.2085 63.2984 70.2085 63.2984C70.2085 63.2984 73.764 61.427 74.3254 60.8656C74.3254 60.8656 78.5359 64.4212 84.5008 63.7662C97.8107 61.1463 102.536 57.5908 102.536 57.5908C102.536 57.5908 104.828 63.3685 111.892 63.9065C119.986 64.5147 124.407 59.4153 124.407 59.4153C124.407 59.4153 124.337 62.7136 127.167 63.8831C129.998 65.0527 131.892 58.8773 131.892 58.8773L136.617 46.2224H137.039C137.039 46.2224 137.272 54.3159 141.951 55.6727C146.653 57.006 152.711 52.3276 152.711 52.3276C152.711 52.3276 154.185 51.3452 153.927 48.8891Z" fill="#E24B31"/>
</svg>
