<svg width="109" height="109" viewBox="0 0 109 109" fill="none" xmlns="http://www.w3.org/2000/svg">
<path d="M54.5 5.45C27.4107 5.45 5.44995 27.4108 5.44995 54.5C5.44995 81.5892 27.4107 103.55 54.5 103.55C81.5892 103.55 103.55 81.5892 103.55 54.5C103.55 27.4108 81.5892 5.45 54.5 5.45ZM54.5 99.626C29.5771 99.626 9.37395 79.4229 9.37395 54.5C9.37395 29.5771 29.5771 9.374 54.5 9.374C79.4228 9.374 99.626 29.5771 99.626 54.5C99.626 79.4229 79.4228 99.626 54.5 99.626Z" fill="black"/>
<path d="M55.9715 59.8955H64.8004V77.5535H68.7245V59.8955H77.5535V55.9715H55.9715V59.8955Z" fill="black"/>
<path d="M50.7435 55.481L42.2375 63.9871L33.73 55.481L30.956 58.2564L39.462 66.7625L30.956 75.2686L33.73 78.044L42.2375 69.5379L50.7435 78.044L53.519 75.2686L45.0129 66.7625L53.519 58.2564L50.7435 55.481Z" fill="black"/>
<path d="M66.5172 53.0285C67.9665 53.0285 69.4016 52.743 70.7406 52.1884C72.0796 51.6338 73.2962 50.8209 74.321 49.7961C75.3458 48.7712 76.1587 47.5546 76.7134 46.2156C77.268 44.8767 77.5535 43.4416 77.5535 41.9922H73.6295C73.6292 43.1992 73.3219 44.3862 72.7365 45.4416C72.151 46.497 71.3066 47.3861 70.2828 48.0252C69.259 48.6643 68.0894 49.0325 66.8841 49.0949C65.6788 49.1574 64.4774 48.9122 63.393 48.3824L75.7795 35.9945C74.74 34.3879 73.3006 33.0791 71.6026 32.1967C69.9046 31.3143 68.0063 30.8885 66.094 30.9612C64.1818 31.034 62.3213 31.6027 60.6952 32.6115C59.0692 33.6204 57.7333 35.0347 56.8189 36.7157C55.9044 38.3966 55.4428 40.2865 55.4792 42.1998C55.5157 44.1131 56.049 45.984 57.0268 47.6289C58.0047 49.2738 59.3934 50.6362 61.0567 51.5824C62.7201 52.5285 64.6009 53.0259 66.5145 53.0258L66.5172 53.0285ZM66.5172 34.88C67.8449 34.8783 69.1462 35.2504 70.2723 35.9536L60.4772 45.7473C59.8077 44.6703 59.4383 43.434 59.4073 42.1662C59.3763 40.8985 59.6848 39.6455 60.3008 38.5371C60.9169 37.4287 61.8181 36.5051 62.9111 35.8621C64.0041 35.2191 65.2491 34.88 66.5172 34.88Z" fill="black"/>
<path d="M42.2375 40.8178L33.9616 30.956L30.956 33.478L40.2755 44.5851V53.0285H44.1995V44.5851L53.519 33.478L50.5133 30.956L42.2375 40.8178Z" fill="black"/>
<path d="M93.74 91.778C92.5758 91.778 91.4378 92.1232 90.4699 92.77C89.5019 93.4167 88.7475 94.336 88.302 95.4115C87.8565 96.4871 87.7399 97.6705 87.967 98.8123C88.1942 99.9541 88.7548 101.003 89.5779 101.826C90.4011 102.649 91.4499 103.21 92.5917 103.437C93.7334 103.664 94.9169 103.547 95.9924 103.102C97.068 102.656 97.9872 101.902 98.634 100.934C99.2807 99.9661 99.626 98.8281 99.626 97.664C99.626 96.1029 99.0058 94.6058 97.902 93.502C96.7981 92.3981 95.301 91.778 93.74 91.778ZM93.74 103.079C92.6691 103.079 91.6222 102.761 90.7318 102.166C89.8414 101.571 89.1474 100.725 88.7375 99.7361C88.3277 98.7467 88.2205 97.658 88.4294 96.6077C88.6383 95.5573 89.154 94.5926 89.9113 93.8353C90.6685 93.0781 91.6333 92.5624 92.6836 92.3535C93.7339 92.1445 94.8226 92.2518 95.812 92.6616C96.8014 93.0714 97.647 93.7654 98.242 94.6558C98.837 95.5462 99.1545 96.5931 99.1545 97.664C99.1545 99.1 98.5841 100.477 97.5686 101.493C96.5532 102.508 95.176 103.079 93.74 103.079Z" fill="black"/>
<path d="M96.0467 100.607H95.5017L94.0983 98.2104H92.2685V100.607H91.7998V94.721H94.116C94.5388 94.7184 94.9481 94.8699 95.2673 95.1471C95.5866 95.4244 95.794 95.8083 95.8507 96.2273C95.9075 96.6463 95.8097 97.0716 95.5757 97.4238C95.3417 97.776 94.9875 98.0309 94.5792 98.1409L96.0467 100.607ZM92.2685 97.7607H94.1228C94.4483 97.7348 94.7522 97.5872 94.9737 97.3474C95.1953 97.1075 95.3183 96.7929 95.3183 96.4664C95.3183 96.1398 95.1953 95.8252 94.9737 95.5854C94.7522 95.3455 94.4483 95.1979 94.1228 95.172H92.2685V97.7607Z" fill="black"/>
</svg>
