<svg  viewBox="20 16 220 50" fill="none" xmlns="http://www.w3.org/2000/svg"><defs>
<clipPath id="clip0_0_1891">
<rect width="100" height="23.4568" fill="white" transform="translate(95 29)"/>
</clipPath>
</defs><path d="M36.457 43.225V48.975C40.8443 48.9698 45.0505 47.2782 48.1528 44.271C51.2551 41.2638 53.0002 37.1868 53.0056 32.9341H47.0736C47.0701 35.6623 45.9504 38.2779 43.9602 40.207C41.97 42.1363 39.2716 43.2215 36.457 43.225Z" fill="#3BE081"/><path d="M36.4546 59.0639C33.6603 59.0639 30.9804 57.9879 29.0045 56.0726C27.0286 54.1574 25.9186 51.5597 25.9186 48.8511C25.9186 46.1424 27.0286 43.5448 29.0045 41.6294C30.9804 39.7142 33.6603 38.6381 36.4546 38.6381V32.9304C34.2968 32.9275 32.1596 33.3365 30.1649 34.1342C28.1702 34.9317 26.3571 36.1025 24.8292 37.5793C23.3012 39.0561 22.0883 40.8103 21.2597 42.7415C20.4312 44.6727 20.0031 46.7433 20 48.8348C19.9969 50.9263 20.4189 52.998 21.2418 54.9316C22.0647 56.8651 23.2724 58.6225 24.796 60.1036C26.3196 61.5847 28.1292 62.7604 30.1215 63.5635C32.1139 64.3667 34.2499 64.7817 36.4077 64.7847H36.4546V59.0639Z" fill="#0037FF"/><path d="M36.457 59.0641V64.7718C40.8149 64.7718 44.9942 63.0938 48.0756 60.1069C51.157 57.12 52.8882 53.0688 52.8882 48.8447H46.9932C46.9914 51.5533 45.881 54.1508 43.9056 56.0667C41.9304 57.9825 39.2515 59.0606 36.457 59.0641Z" fill="#00CCFF"/><path d="M36.457 27.2194V32.9271C40.8149 32.9271 44.9942 31.2491 48.0756 28.2622C51.157 25.2753 52.8882 21.2241 52.8882 17H46.9932C46.9914 19.7087 45.881 22.306 43.9056 24.222C41.9304 26.1379 39.2515 27.2159 36.457 27.2194Z" fill="#861DFF"/><path d="M52.9824 27.2194V32.9271C57.3402 32.9271 61.5195 31.2491 64.6009 28.2622C67.6824 25.2753 69.4134 21.2241 69.4134 17H63.5218C63.52 19.7092 62.4091 22.3071 60.4331 24.2231C58.457 26.1392 55.7774 27.2168 52.9824 27.2194Z" fill="#FF8110"/><g clip-path="url(#clip0_0_1891)">
<path d="M102.924 41.627V44.3955C105.036 44.393 107.061 43.5785 108.555 42.1306C110.049 40.6827 110.889 38.7197 110.892 36.6721H108.035C108.034 37.9857 107.495 39.2451 106.536 40.1739C105.578 41.1028 104.279 41.6253 102.924 41.627Z" fill="#3BE081"/>
<path d="M102.923 49.253C101.577 49.253 100.287 48.7349 99.3355 47.8127C98.3841 46.8905 97.8497 45.6398 97.8497 44.3357C97.8497 43.0315 98.3841 41.7808 99.3355 40.8586C100.287 39.9364 101.577 39.4183 102.923 39.4183V36.6702C101.884 36.6688 100.855 36.8657 99.8942 37.2497C98.9338 37.6338 98.0608 38.1975 97.3252 38.9085C96.5895 39.6196 96.0055 40.4642 95.6065 41.394C95.2076 42.3239 95.0015 43.3208 95 44.3278C94.9985 45.3349 95.2017 46.3323 95.5979 47.2633C95.9941 48.1942 96.5756 49.0404 97.3092 49.7536C98.0428 50.4667 98.9141 51.0328 99.8733 51.4194C100.833 51.8062 101.861 52.006 102.9 52.0074H102.923V49.253Z" fill="#0037FF"/>
<path d="M102.924 49.253V52.0011C105.022 52.0011 107.034 51.1932 108.518 49.7551C110.002 48.3169 110.835 46.3663 110.835 44.3325H107.997C107.996 45.6367 107.461 46.8873 106.51 47.8097C105.559 48.7322 104.269 49.2513 102.924 49.253Z" fill="#00CCFF"/>
<path d="M102.924 33.9204V36.6686C105.022 36.6686 107.034 35.8607 108.518 34.4225C110.002 32.9844 110.835 31.0338 110.835 29H107.997C107.996 30.3042 107.461 31.5548 106.51 32.4772C105.559 33.3997 104.269 33.9188 102.924 33.9204Z" fill="#861DFF"/>
<path d="M110.881 33.9204V36.6686C112.979 36.6686 114.991 35.8607 116.475 34.4225C117.958 32.9844 118.792 31.0338 118.792 29H115.955C115.954 30.3045 115.419 31.5553 114.468 32.4778C113.517 33.4003 112.226 33.9192 110.881 33.9204Z" fill="#FF8110"/>
<path d="M132.004 40.4824H133.465L133.809 41.2305C133.992 41.0685 134.194 40.9288 134.411 40.8142C134.638 40.7018 134.873 40.6071 135.115 40.5309C135.415 40.4392 135.729 40.3942 136.044 40.3979C136.53 40.3952 137.011 40.494 137.455 40.6874C137.9 40.8798 138.3 41.1571 138.632 41.5028C138.977 41.8653 139.25 42.2859 139.439 42.7439C139.838 43.7513 139.838 44.8665 139.439 45.8739C139.251 46.3321 138.977 46.7528 138.632 47.115C138.3 47.461 137.899 47.7388 137.455 47.9319C137.011 48.125 136.531 48.2242 136.045 48.223C135.751 48.2284 135.458 48.1893 135.176 48.1072C134.955 48.0389 134.739 47.9552 134.531 47.8568C134.332 47.7504 134.147 47.6217 133.98 47.4734V50.8053H132.004V40.4824ZM135.785 46.3966C136.048 46.4026 136.309 46.3553 136.552 46.2577C136.794 46.1602 137.013 46.0145 137.195 45.8301C137.575 45.4524 137.764 44.9469 137.763 44.3136C137.777 44.0369 137.734 43.7604 137.636 43.5C137.538 43.2396 137.388 43.0008 137.195 42.7971C137.01 42.6179 136.79 42.4756 136.549 42.3787C136.307 42.2816 136.048 42.2317 135.787 42.2317C135.525 42.2317 135.266 42.2816 135.025 42.3787C134.783 42.4756 134.564 42.6179 134.379 42.7971C134.001 43.1758 133.812 43.6813 133.812 44.3136C133.812 44.9459 134.001 45.4514 134.379 45.8301C134.56 46.0145 134.779 46.1602 135.022 46.2577C135.265 46.3553 135.526 46.4026 135.788 46.3966H135.785Z" fill="black"/>
<path d="M144.466 48.2299C144.098 48.2342 143.733 48.1694 143.391 48.039C143.071 47.915 142.783 47.7242 142.548 47.4803C142.309 47.2285 142.122 46.9341 141.999 46.6133C141.861 46.2506 141.794 45.8665 141.8 45.4802V42.2312H140.598V40.6489H141.113C141.743 40.6489 142.059 40.3433 142.059 39.7318V38.6536H143.778V40.4878H145.496V42.2359H143.778V45.4019C143.767 45.5336 143.784 45.6662 143.826 45.7919C143.868 45.9176 143.935 46.0341 144.023 46.1347C144.112 46.2352 144.22 46.3179 144.341 46.378C144.463 46.4381 144.595 46.4744 144.731 46.4849C144.785 46.4894 144.839 46.4894 144.892 46.4849C144.967 46.4886 145.041 46.4886 145.115 46.4849C145.17 46.4807 145.224 46.4723 145.277 46.4599C145.324 46.4479 145.37 46.4311 145.414 46.4098V48.0765C145.325 48.1126 145.233 48.1404 145.139 48.1595C144.92 48.2136 144.693 48.2373 144.466 48.2299Z" fill="black"/>
<path d="M148.16 39.5655C147.894 39.5721 147.634 39.4885 147.425 39.3295C147.215 39.1703 147.07 38.9455 147.013 38.6936C146.956 38.4417 146.991 38.1785 147.113 37.9491C147.234 37.7198 147.435 37.5387 147.679 37.4368C147.923 37.335 148.197 37.3189 148.452 37.3912C148.708 37.4636 148.929 37.6198 149.078 37.8332C149.228 38.0466 149.296 38.3037 149.271 38.5604C149.246 38.8172 149.129 39.0575 148.941 39.24C148.841 39.3432 148.72 39.4253 148.585 39.4812C148.451 39.5372 148.306 39.5659 148.16 39.5655ZM147.128 40.4826H149.104V48.1512H147.128V40.4826Z" fill="black"/>
<path d="M150.994 40.4826H152.456L152.799 41.2307C152.961 41.0741 153.14 40.9346 153.332 40.8144C153.519 40.7028 153.716 40.6079 153.92 40.5312C154.167 40.44 154.429 40.3949 154.693 40.3981C155.044 40.3895 155.394 40.4425 155.725 40.5546C155.973 40.642 156.209 40.757 156.429 40.8973C156.626 41.0318 156.796 41.2012 156.928 41.3966C157.117 41.2041 157.33 41.0363 157.564 40.8973C157.799 40.7615 158.047 40.6468 158.304 40.5546C158.606 40.4474 158.926 40.3943 159.248 40.3981C160.109 40.3981 160.794 40.6657 161.311 41.1978C161.828 41.7299 162.085 42.5203 162.085 43.5641V48.1465H160.106V43.7316C160.127 43.3316 159.988 42.9391 159.718 42.6361C159.615 42.521 159.491 42.4267 159.351 42.3585C159.211 42.2902 159.059 42.2494 158.902 42.2384C158.746 42.2273 158.589 42.2463 158.44 42.2941C158.291 42.342 158.154 42.4177 158.035 42.5171C157.992 42.5544 157.951 42.5941 157.913 42.6361C157.643 42.9389 157.504 43.3317 157.527 43.7316V48.1465H155.549V43.7316C155.572 43.3317 155.434 42.9389 155.163 42.6361C155.061 42.521 154.936 42.4266 154.796 42.3584C154.656 42.2901 154.503 42.2493 154.347 42.2383C154.19 42.2272 154.033 42.2462 153.884 42.294C153.735 42.3418 153.598 42.4177 153.479 42.5171C153.436 42.554 153.396 42.5937 153.358 42.6361C153.088 42.9391 152.949 43.3316 152.971 43.7316V48.1465H150.994V40.4826Z" fill="black"/>
<path d="M164.919 39.5649C164.652 39.5717 164.391 39.4883 164.181 39.3288C163.97 39.1693 163.824 38.9439 163.767 38.6912C163.71 38.4385 163.745 38.1744 163.867 37.9443C163.989 37.7141 164.19 37.5324 164.435 37.4302C164.68 37.3281 164.954 37.312 165.211 37.3846C165.467 37.4573 165.689 37.6141 165.838 37.8283C165.988 38.0424 166.056 38.3004 166.031 38.558C166.006 38.8155 165.889 39.0565 165.7 39.2394C165.599 39.3425 165.478 39.4246 165.344 39.4806C165.21 39.5366 165.065 39.5653 164.919 39.5649ZM163.887 40.482H165.868V48.1506H163.887V40.482Z" fill="black"/>
<path d="M167.32 46.5625L170.758 42.315H167.32V40.4824H173.251V42.0646L169.817 46.3215H173.425V48.1542H167.32V46.5625Z" fill="black"/>
<path d="M178.414 48.2294C177.89 48.2313 177.372 48.1246 176.893 47.9165C176.423 47.716 175.997 47.4302 175.639 47.0744C175.275 46.7158 174.983 46.295 174.778 45.8334C174.568 45.3508 174.461 44.8326 174.461 44.3091C174.461 43.7855 174.568 43.2673 174.778 42.7847C174.983 42.3231 175.275 41.9023 175.639 41.5437C175.998 41.1884 176.423 40.9027 176.893 40.7017C177.363 40.5029 177.869 40.3983 178.381 40.3939C178.894 40.3897 179.402 40.4858 179.875 40.6767C180.327 40.8627 180.736 41.1346 181.078 41.4764C181.431 41.8349 181.708 42.2564 181.895 42.7175C182.1 43.2243 182.202 43.7647 182.195 44.3091C182.196 44.3954 182.19 44.4817 182.179 44.5673C182.166 44.6502 182.155 44.7317 182.144 44.8099C182.132 44.8881 182.121 44.982 182.11 45.0587H176.609C176.694 45.4276 176.899 45.7603 177.193 46.0087C177.537 46.2795 177.972 46.4162 178.414 46.3921C178.638 46.3967 178.861 46.3687 179.076 46.3092C179.236 46.2608 179.389 46.1935 179.531 46.1088C179.661 46.0262 179.777 45.9248 179.875 45.8084H181.939C181.824 46.1175 181.665 46.4094 181.465 46.6754C181.249 46.9719 180.988 47.2356 180.692 47.4579C180.378 47.6909 180.03 47.8791 179.66 48.0166C179.262 48.1613 178.839 48.2334 178.414 48.2294ZM180.305 43.7316C180.223 43.3036 179.989 42.9168 179.643 42.6385C179.298 42.3602 178.863 42.2078 178.414 42.2078C177.965 42.2078 177.53 42.3602 177.185 42.6385C176.839 42.9168 176.605 43.3036 176.523 43.7316H180.305Z" fill="black"/>
<path d="M183.654 37.6494H185.631V48.146H183.654V37.6494Z" fill="black"/>
<path d="M188.633 50.8961C188.542 50.8961 188.453 50.8929 188.366 50.8867C188.294 50.883 188.222 50.8746 188.151 50.8616C188.082 50.8535 188.012 50.8366 187.946 50.8116V49.2293C188.305 49.2522 188.661 49.1519 188.951 48.9461C189.19 48.7538 189.375 48.5076 189.493 48.2293L189.664 47.813L186.656 40.4824H188.72L190.696 45.4795L192.507 40.4824H194.571C194.009 41.8816 193.499 43.1476 193.04 44.2807C192.845 44.769 192.653 45.2479 192.464 45.7127C192.275 46.1775 192.107 46.6048 191.957 46.9882C191.807 47.3716 191.683 47.6909 191.579 47.946C191.476 48.2011 191.418 48.3513 191.39 48.3967C191.224 48.794 191.032 49.1803 190.814 49.5533C190.651 49.8389 190.445 50.0999 190.204 50.328C190.003 50.5183 189.763 50.666 189.499 50.7614C189.221 50.8553 188.928 50.9009 188.633 50.8961Z" fill="black"/>
<path d="M124.684 36.6702C123.505 36.6702 122.352 37.0091 121.372 37.6439C120.392 38.2788 119.628 39.1812 119.176 40.237C118.725 41.2928 118.607 42.4546 118.837 43.5755C119.067 44.6963 119.635 45.7258 120.469 46.5339C121.302 47.342 122.364 47.8923 123.521 48.1152C124.677 48.3382 125.876 48.2238 126.965 47.7865C128.054 47.3491 128.985 46.6086 129.64 45.6583C130.295 44.7081 130.644 43.591 130.644 42.4482C130.645 41.6894 130.491 40.9379 130.191 40.2368C129.892 39.5357 129.453 38.8986 128.899 38.3621C128.346 37.8255 127.688 37.3999 126.965 37.1095C126.242 36.8192 125.466 36.6699 124.684 36.6702ZM124.684 46.2168C123.913 46.2257 123.157 46.0128 122.511 45.605C121.865 45.1971 121.359 44.6127 121.056 43.9257C120.753 43.2387 120.667 42.48 120.809 41.7458C120.952 41.0115 121.315 40.3346 121.855 39.8008C122.394 39.2671 123.085 38.9005 123.839 38.7475C124.593 38.5944 125.378 38.6618 126.093 38.941C126.808 39.2204 127.421 39.6989 127.855 40.3163C128.289 40.9337 128.524 41.662 128.531 42.4091V42.4529C128.534 43.4466 128.132 44.4012 127.41 45.1076C126.689 45.8139 125.709 46.2144 124.684 46.2215V46.2168Z" fill="black"/>
</g></svg>