<svg width="227" height="53" viewBox="0 0 227 53" fill="none" xmlns="http://www.w3.org/2000/svg">
<path fill-rule="evenodd" clip-rule="evenodd" d="M47.2492 7.34568C48.4847 5.55105 50.3906 4.36536 52.3667 4.36536C54.4805 4.37707 55.634 5.90529 55.634 8.81536C55.634 19.7793 43.6834 35.1465 32.7458 35.1465C30.064 35.1465 28.3075 34.1657 27.2184 32.8044C24.6772 34.2682 22.0365 35.1465 19.4924 35.1465C15.0102 35.1465 12.9433 32.3828 12.9052 28.5534C12.8466 22.7011 17.1298 15.7831 21.3719 10.8793C18.8051 12.3087 16.4934 11.9831 14.2575 11.6682C12.1887 11.3768 10.1848 11.0946 8.10388 12.2202C10.1687 5.54328 13.7729 5.7784 18.4418 6.08299C21.0548 6.25345 24.0012 6.44567 27.1979 5.46029C27.3919 6.4576 26.2045 8.36264 24.683 10.8036C22.3009 14.6253 19.1001 19.7607 19.1001 24.7827C19.1001 28.7232 21.2929 30.6848 25.7077 29.1155C24.3405 20.8274 31.724 9.34233 38.7269 9.33647C41.1393 9.33647 42.1698 10.6744 42.1698 12.7823C42.1698 16.9073 38.0448 23.8985 32.3388 29.0394C33.0502 29.7918 34.1276 30.1578 35.3923 30.1578C45.9347 30.1578 53.084 11.1516 47.2492 7.34568ZM37.7257 13.3444C35.6031 13.3444 31.4195 19.5715 31.3259 25.4941C35.4743 21.6296 38.4839 16.2106 38.4839 14.1846C38.4839 13.7513 38.3522 13.3444 37.7257 13.3444Z" fill="#E42B25"/>
<path fill-rule="evenodd" clip-rule="evenodd" d="M209.901 22.475C210.01 25.0094 210.131 27.8002 208.298 30.0962L208.301 30.1109C208.607 30.1378 208.914 30.1656 209.22 30.1933C212.912 30.5278 216.563 30.8585 218.896 29.6366C218.797 33.302 215.693 35.5153 211.284 35.5153C208.366 35.5153 205.855 34.7887 203.431 34.0875C203.345 34.0627 203.26 34.038 203.175 34.0134C201.782 34.7332 200.243 35.1257 198.675 35.1611C197.144 35.1611 196.058 34.4555 196.058 33.1644C196.055 31.0565 198.555 29.7801 203.026 29.8855C205.32 27.8811 204.82 25.6392 204.33 23.4394C204.188 22.802 204.046 22.1681 203.974 21.5446C197.729 28.8139 190.475 35.1611 184.3 35.1611C182.272 35.1611 181.036 34.1276 181.036 32.131C181.036 29.9762 182.5 26.6504 186.013 22.2795C181.736 24.8441 177.459 28.7408 174.162 34.76C173.322 35.022 172.448 35.1572 171.568 35.1611C166.919 35.1611 170.224 30.067 172.446 26.6885C167.525 31.0624 161.69 35.1611 155.25 35.1611C152.079 35.1611 150.103 33.9109 149.28 32.1544C145.571 33.6972 140.79 35.1611 136.469 35.1611C133.57 35.1611 131.316 34.3091 130.236 32.6521C126.538 34.2828 123.412 35.1611 120.923 35.1611C118.072 35.1611 116.456 33.99 116.456 31.8675C116.456 29.2999 118.227 26.6621 122.065 22.5839C120.873 22.9125 119.642 23.077 118.405 23.0729C113.92 29.1389 108.103 33.3781 103.106 35.6207C99.0683 41.7424 92.6275 48.0192 87.3578 48.0192C85.206 48.0192 83.4962 46.7837 83.4962 44.7344C83.4962 39.8804 90.7304 37.2016 97.7392 34.7248C98.4127 33.3556 99.0099 31.9502 99.528 30.5149C96.2666 33.5918 93.3067 35.1611 91.3306 35.1611C89.574 35.1581 88.403 33.9607 88.403 31.7591C88.4044 31.0698 88.481 30.3826 88.6313 29.7098C85.7242 32.775 82.0061 35.1493 78.9906 35.1493C76.0864 35.1493 74.608 33.6621 74.0371 31.9055C70.6118 33.8758 67.3679 35.1493 64.8385 35.1493C61.7264 35.1493 60.8452 33.4191 61.5859 29.6132C57.7477 33.5772 54.1058 35.1493 51.8369 35.1493C49.8549 35.1464 48.918 33.6094 48.877 31.7445C48.7277 25.4472 57.4433 15.6015 68.0296 15.6015C75.3282 15.6015 72.6201 20.034 68.7059 22.0423C66.0066 25.9507 65.0083 33.3811 73.8146 28.6646C74.8685 18.0051 87.1646 6.00185 92.4343 6.00185C94.6622 6.00185 95.6108 7.08214 95.6401 8.67477C95.725 13.075 87.9989 21.9106 79.6903 28.1582C80.7794 32.6228 86.904 29.338 91.9366 23.4564C95.7894 18.9478 101.961 15.5986 107.523 15.5986C114.324 15.5986 112.612 19.6534 109.236 21.6442C107.84 25.737 106.832 28.6383 105.535 31.3317C109.504 29.0568 112.95 25.9738 115.65 22.2824C115.317 22.0216 115.052 21.6836 114.878 21.2975C114.704 20.9114 114.626 20.4889 114.652 20.0662C114.652 17.7212 116.608 14.8404 119.175 14.8404C120.917 14.8404 121.517 16.2339 120.949 18.0081C123.169 18.0081 126.219 17.1327 128.269 16.0758C128.578 16.2616 128.832 16.5274 129.004 16.8453C129.175 17.1631 129.258 17.5213 129.243 17.8822C129.243 19.166 127.943 20.5847 126.511 22.1471C124.756 24.062 122.803 26.1929 122.803 28.5563C122.803 31.159 126.38 30.7345 129.536 29.7625C129.814 22.7303 138.181 15.6455 144.783 15.6455C147.333 15.6455 149.151 16.6116 149.151 18.781C149.151 22.2824 143.36 27.0252 136.419 29.862C137.868 31.4342 142.567 31.8382 148.873 29.5693C149.268 22.5986 157.551 15.6338 164.097 15.6338C166.644 15.6338 168.465 16.5999 168.465 18.7663C168.465 22.2678 162.659 27.0135 155.709 29.8533C156.303 30.5471 157.246 31.0243 158.66 31.0243C164.117 31.0243 172.622 24.5162 179.247 15.7069C180.96 15.6747 182.447 16.0875 182.447 17.5133C182.447 18.4274 181.602 19.8656 180.541 21.6717C180.032 22.5381 179.473 23.489 178.934 24.5074C183.574 20.1335 189.86 15.3439 192.884 15.3439C194.09 15.3439 195.071 15.9148 195.071 16.7697C195.048 17.1901 194.867 17.5864 194.565 17.8792C191.81 20.8069 188.229 24.9817 188.229 27.8332C188.229 28.7583 188.642 29.297 189.813 29.297C193.332 29.297 199.483 23.4095 205.409 15.7655C205.899 15.1198 206.526 14.591 207.246 14.2174C207.965 13.8438 208.759 13.6346 209.569 13.6049C211.246 13.6049 212.561 14.4422 212.69 15.8416C209.66 16.9061 209.773 19.5158 209.901 22.475ZM89.8577 10.8486C89.7625 10.8172 89.6614 10.8087 89.5623 10.8237C87.0885 10.8237 81.1337 20.1364 79.8045 24.7943C85.0625 20.517 90.2884 13.7396 90.2884 11.5526C90.3037 11.4536 90.2956 11.3524 90.2646 11.2572C90.2336 11.1619 90.1806 11.0753 90.1099 11.0043C90.0392 10.9334 89.9528 10.88 89.8577 10.8486ZM64.1036 19.6329C59.5102 19.6329 53.7749 23.998 53.7749 27.6868C53.7749 31.7328 61.094 28.8608 66.6565 20.1189C65.8486 19.7812 64.9791 19.6156 64.1036 19.6329ZM87.4486 44.4914C87.4486 45.0359 87.7794 45.2936 88.2917 45.2936H88.3005C90.2884 45.2936 93.3272 42.2635 95.9387 37.995C89.7907 40.2083 87.4486 43.3028 87.4486 44.4914ZM103.597 19.6475C99.1064 19.6475 93.298 23.8809 93.298 27.6868C93.298 31.885 100.91 28.53 106.174 20.1189C105.353 19.7986 104.478 19.6386 103.597 19.6475ZM143.996 20.1628C143.996 19.4894 143.562 19.1967 142.892 19.1967C140.459 19.1967 135.591 24.1444 135.591 27.3472C140.245 25.0988 143.996 21.9369 143.996 20.1628ZM162.197 19.1879C159.761 19.1879 154.895 24.1356 154.895 27.3384C159.55 25.09 163.301 21.9282 163.301 20.154C163.301 19.4807 162.864 19.1879 162.197 19.1879Z" fill="#E42B25"/>
</svg>
