<svg width="162" height="73" viewBox="0 0 162 73" fill="none" xmlns="http://www.w3.org/2000/svg">
<path d="M124.127 15.2284C120.63 15.2284 118.606 13.2029 118.606 9.7052C118.606 6.21242 120.63 4.30957 124.127 4.30957C127.684 4.30957 129.708 6.21242 129.708 9.7052C129.708 13.2029 127.684 15.2284 124.127 15.2284Z" fill="#2F2707"/>
<path d="M116.213 52.088V47.2449L119.342 46.8171C120.201 46.693 120.323 46.5098 120.323 45.588V27.5553C120.323 26.8823 120.14 26.451 119.525 26.2684L116.213 25.1021L116.887 20.1356H129.585V45.588C129.585 46.5711 129.644 46.693 130.567 46.8171L133.695 47.2449V52.088H116.213Z" fill="#2F2707"/>
<path fill-rule="evenodd" clip-rule="evenodd" d="M107.692 26.3741C108.795 27.7851 109.962 29.7485 109.962 32.5697C109.962 39.3776 104.625 43.3637 96.899 43.3637C94.9341 43.3637 93.1553 43.1192 92.0524 42.8126L90.0276 46.063L96.0378 46.4301L96.387 46.4524C106.787 47.1144 112.904 47.5038 112.904 55.568C112.904 62.6234 106.711 66.6081 96.0378 66.6081C84.9364 66.6081 80.7043 63.7869 80.7043 58.9417C80.7043 56.1812 81.9313 54.7125 84.078 52.6849C82.0533 51.8293 81.3795 50.2964 81.3795 48.6396C81.3795 47.2892 82.0533 46.063 83.159 44.8966C84.2627 43.733 85.489 42.566 86.9612 41.217C83.9561 39.7448 81.6861 36.5551 81.6861 32.0157C81.6861 24.9632 86.3481 20.1194 95.7305 20.1194C98.3684 20.1194 99.964 20.3618 101.375 20.7325H113.336V25.9442L107.692 26.3741ZM96.2837 26.1888C92.9094 26.1888 90.3962 27.8457 90.3962 31.8332C90.3962 34.8376 92.0524 36.9237 96.1019 36.9237C99.5341 36.9237 101.865 34.901 101.865 31.7092C101.865 28.0916 99.7793 26.1888 96.2837 26.1888ZM89.5371 54.3453C88.7386 55.3249 87.9429 56.3665 87.9429 57.5949C87.9429 60.0468 91.0692 60.7847 95.364 60.7847C98.9216 60.7847 103.768 60.5352 103.768 57.2277C103.768 55.2858 101.494 55.1435 98.5995 54.9624L98.4903 54.9556L89.5371 54.3453Z" fill="#2F2707"/>
<path d="M147.95 52.1627C151.448 52.1627 155.311 50.997 157.95 49.7101L156.292 44.3117C154.82 44.8635 153.044 45.292 151.324 45.292C148.014 45.292 147.154 43.8825 147.154 40.2635V25.6053H156.292V19.4725H147.645C147.154 19.4725 147.154 19.2871 147.154 18.8593V10.1471H141.326C140.652 16.8324 138.507 19.5317 133.107 20.1462V25.6053H137.4C137.893 25.6053 137.893 25.8512 137.893 26.2184V42.2876C137.893 49.2217 140.652 52.1627 147.95 52.1627Z" fill="#2F2707"/>
<path d="M67.0701 33.614L39.0256 5.57171C37.4117 3.9564 34.7921 3.9564 33.1761 5.57171L27.3527 11.3951L34.74 18.7824C36.4568 18.2024 38.4252 18.5914 39.7938 19.9601C41.1688 21.3372 41.555 23.3225 40.9609 25.0449L48.0803 32.1644C49.8028 31.5709 51.7902 31.955 53.1659 33.3328C55.0885 35.2547 55.0885 38.3698 53.1659 40.293C51.2426 42.2163 48.1276 42.2163 46.2036 40.293C44.7574 38.8455 44.4001 36.7213 45.1323 34.9397L38.4928 28.3002L38.4921 45.7725C38.9608 46.0051 39.4034 46.3145 39.7938 46.7035C41.7164 48.6254 41.7164 51.7404 39.7938 53.6651C37.8705 55.5877 34.7541 55.5877 32.8336 53.6651C30.911 51.7404 30.911 48.6254 32.8336 46.7035C33.3086 46.2292 33.8583 45.8705 34.4447 45.6295V27.9943C33.8583 27.7547 33.3093 27.3981 32.8336 26.9202C31.3769 25.4656 31.0266 23.3281 31.7729 21.5394L24.4914 14.2564L5.26206 33.4844C3.64605 35.1011 3.64605 37.7207 5.26206 39.336L33.3065 67.379C34.9211 68.9943 37.54 68.9943 39.1567 67.379L67.0701 39.4664C68.6854 37.8503 68.6854 35.2293 67.0701 33.614Z" fill="#DE4C36"/>
</svg>
