<svg  viewBox="20 16 220 50" fill="none" xmlns="http://www.w3.org/2000/svg"><defs>
<clipPath id="clip0_0_900">
<rect width="50" height="44.8276" fill="white" transform="translate(20 19)"/>
</clipPath>
<clipPath id="clip1_0_900">
<rect width="100" height="29.1228" fill="white" transform="translate(97 26)"/>
</clipPath>
</defs><g clip-path="url(#clip0_0_900)">
<path fill-rule="evenodd" clip-rule="evenodd" d="M41.0093 20.6257C43.1353 18.4581 46.6123 18.4581 48.7371 20.6257L68.1644 40.4313C70.288 42.5965 70.288 46.1441 68.1644 48.3118L54.5768 62.1632C53.583 63.1765 52.2094 63.8025 50.6939 63.8025H39.0549C37.6742 63.8025 36.4143 63.2838 35.4476 62.4274L21.5927 48.3009C19.4691 46.1345 19.4691 42.5893 21.5927 40.4216L41.0093 20.6257ZM48.1964 56.7821L46.2586 58.7579C46.1166 58.9027 45.9202 58.992 45.7037 58.992H44.0438C43.8463 58.992 43.6676 58.9184 43.528 58.7953L41.5523 56.7797C41.2506 56.4721 41.2506 55.9667 41.5523 55.6567L44.3219 52.8328C44.6259 52.5228 45.1228 52.5228 45.4245 52.8328L48.1964 55.6579C48.5005 55.9667 48.5005 56.4721 48.1964 56.7821ZM48.1964 44.933L40.4474 52.834C40.3042 52.9788 40.109 53.068 39.8937 53.068H38.2326C38.0362 53.068 37.8552 52.9944 37.718 52.8714L35.7411 50.857C35.4382 50.547 35.4382 50.0403 35.7411 49.7327L44.3219 40.9837C44.6259 40.6749 45.1228 40.6749 45.4257 40.9837L48.1964 43.8088C48.5005 44.1176 48.5005 44.6243 48.1964 44.933ZM48.1964 33.084L34.6372 46.9089C34.4929 47.0536 34.2977 47.1429 34.0824 47.1429H32.4225C32.2261 47.1429 32.0452 47.0693 31.9079 46.9463L29.9298 44.9306C29.627 44.623 29.627 44.1164 29.9298 43.8064L44.3219 29.1334C44.6259 28.8234 45.1205 28.8234 45.4245 29.1334L48.1964 31.9597C48.5005 32.2685 48.5005 32.7752 48.1964 33.084Z" fill="#26A943"/>
</g><g clip-path="url(#clip1_0_900)">
<path fill-rule="evenodd" clip-rule="evenodd" d="M109.827 26.9926C111.125 25.6691 113.248 25.6691 114.545 26.9926L126.406 39.0844C127.702 40.4063 127.702 42.5722 126.406 43.8956L118.11 52.3523C117.503 52.9709 116.665 53.3531 115.739 53.3531H108.634C107.791 53.3531 107.021 53.0364 106.431 52.5135L97.9724 43.889C96.6759 42.5663 96.6759 40.4019 97.9724 39.0785L109.827 26.9926ZM114.215 49.0669L113.032 50.2733C112.945 50.3616 112.825 50.4161 112.693 50.4161H111.679C111.559 50.4161 111.45 50.3712 111.364 50.2961L110.158 49.0655C109.974 48.8777 109.974 48.5691 110.158 48.3799L111.849 46.6558C112.035 46.4666 112.338 46.4666 112.522 46.6558L114.215 48.3806C114.4 48.5691 114.4 48.8777 114.215 49.0669ZM114.215 41.8328L109.484 46.6566C109.396 46.7449 109.277 46.7994 109.146 46.7994H108.132C108.012 46.7994 107.901 46.7545 107.817 46.6794L106.61 45.4495C106.425 45.2602 106.425 44.9509 106.61 44.7631L111.849 39.4216C112.035 39.2331 112.338 39.2331 112.523 39.4216L114.215 41.1464C114.4 41.3349 114.4 41.6443 114.215 41.8328ZM114.215 34.5986L105.936 43.0391C105.848 43.1275 105.729 43.182 105.598 43.182H104.584C104.464 43.182 104.354 43.1371 104.27 43.0619L103.062 41.8313C102.878 41.6435 102.878 41.3342 103.062 41.1449L111.849 32.1867C112.035 31.9975 112.337 31.9975 112.522 32.1867L114.215 33.9122C114.4 34.1008 114.4 34.4101 114.215 34.5986Z" fill="#26A943"/>
<path d="M183.777 37.1108V32.0337H180.188V50.4332H183.777V37.6491L188.178 49.6084C188.28 49.8654 188.329 50.1489 188.329 50.4332C188.329 51.258 187.875 52.004 186.94 52.1072C186.232 52.1337 185.525 52.0556 184.843 51.9783V54.9948C185.575 55.0721 186.307 55.1229 187.042 55.1229C189.491 55.1229 190.756 54.2465 191.54 52.1072L196.999 37.1108H193.284L190.427 46.2332H190.378L187.419 37.1108H183.777Z" fill="#2E2E2E"/>
<path d="M141.717 32.1368C141.111 32.111 140.454 32.0337 139.822 32.0337C136.89 32.0337 135.45 33.7091 135.45 36.079V37.1108H133.301V39.558H135.45V50.4332H139.038V39.558H141.516V37.1108H139.038V36.311C139.038 35.2034 139.417 34.7902 140.402 34.7902C140.833 34.7902 141.287 34.8175 141.717 34.869V32.1368Z" fill="#2E2E2E"/>
<path fill-rule="evenodd" clip-rule="evenodd" d="M179.404 32.0337V50.4332H175.991V48.7313H175.941C175.106 50.1754 173.666 50.7933 171.972 50.7933C168.389 50.7933 166.476 47.9624 166.157 44.6609H156.757C156.859 47.0058 157.945 48.036 159.968 48.036C161.407 48.036 162.571 47.1332 162.798 46.3105H165.958C164.945 49.4802 162.798 50.7933 159.841 50.7933C156.02 50.7933 153.548 48.3115 153.21 44.6609H143.967C144.069 47.0058 145.155 48.036 147.177 48.036C148.617 48.036 149.78 47.1332 150.007 46.3105H153.166C152.156 49.4802 150.007 50.7933 147.051 50.7933C142.93 50.7933 140.377 47.9072 140.377 43.7838C140.377 39.79 143.082 36.7499 147.051 36.7499C150.651 36.7499 152.761 39.248 153.287 42.3727C153.846 39.0955 156.357 36.7499 159.841 36.7499C163.619 36.7499 165.756 39.5006 166.143 42.8397C166.418 39.5845 168.35 36.7499 171.897 36.7499C173.438 36.7499 174.955 37.4193 175.763 38.7332H175.815V32.0337H179.404ZM146.95 39.5065C144.624 39.5065 144.044 41.3108 143.967 42.3418H149.805C149.477 40.4852 148.694 39.5065 146.95 39.5065ZM156.757 42.3418C156.834 41.3108 157.414 39.5065 159.74 39.5065C161.483 39.5065 162.268 40.4852 162.596 42.3418H156.757ZM175.941 43.733C175.941 41.5685 175.183 39.5065 172.857 39.5065C170.508 39.5065 169.698 41.5943 169.698 43.7587C169.698 45.8466 170.633 48.036 172.857 48.036C175.209 48.036 175.941 45.9232 175.941 43.733Z" fill="#2E2E2E"/>
</g></svg>