<svg width="250" height="82" viewBox="0 0 250 82" fill="none" xmlns="http://www.w3.org/2000/svg">
<path d="M239.042 0V0.5H244C247.038 0.5 249.5 2.96243 249.5 6V10.667H250V15.333H249.5V24.667H250V29.333H249.5V38.667H250V43.333H249.5V52.667H250V57.333H249.5V66.667H250V71.333H249.5V76C249.5 79.0376 247.038 81.5 244 81.5H239.042V82H234.083V81.5H224.167V82H219.208V81.5H209.292V82H204.333V81.5H194.417V82H189.458V81.5H179.542V82H174.583V81.5H164.667V82H159.708V81.5H149.792V82H144.833V81.5H134.917V82H129.958V81.5H120.042V82H115.083V81.5H105.167V82H100.208V81.5H90.292V82H85.333V81.5H75.417V82H70.458V81.5H60.542V82H55.583V81.5H45.667V82H40.708V81.5H30.792V82H25.833V81.5H15.917V82H10.958V81.5H6C2.96243 81.5 0.5 79.0376 0.5 76V71.333H0V66.667H0.5V57.333H0V52.667H0.5V43.333H0V38.667H0.5V29.333H0V24.667H0.5V15.333H0V10.667H0.5V6C0.5 2.96243 2.96243 0.5 6 0.5H10.958V0H15.917V0.5H25.833V0H30.792V0.5H40.708V0H45.667V0.5H55.583V0H60.542V0.5H70.458V0H75.417V0.5H85.333V0H90.292V0.5H100.208V0H105.167V0.5H115.083V0H120.042V0.5H129.958V0H134.917V0.5H144.833V0H149.792V0.5H159.708V0H164.667V0.5H174.583V0H179.542V0.5H189.458V0H194.417V0.5H204.333V0H209.292V0.5H219.208V0H224.167V0.5H234.083V0H239.042Z" stroke="#722ED1" stroke-dasharray="10 5"/>
<g clip-path="url(#clip0_0_327)">
<path fill-rule="evenodd" clip-rule="evenodd" d="M111.613 30.2108C109.586 30.7596 107.944 31.9737 106.886 33.7064L106.556 34.2463L105.584 34.4301C103.863 34.7554 102.405 35.6243 101.438 36.9001C100.496 38.1439 100.062 39.4198 100.062 40.9454C100.062 42.104 100.232 42.8097 100.783 43.9418C101.547 45.5131 103.007 46.7407 104.829 47.343C105.372 47.5226 106.011 47.5409 112.893 47.5726C119.376 47.6027 120.462 47.585 121.09 47.4395C124.497 46.6491 126.267 42.9061 124.699 39.8063C124.089 38.6001 122.889 37.5398 121.681 37.1385C121.172 36.9695 121.164 36.9593 121.093 36.4237C121.053 36.1249 120.881 35.498 120.71 35.0306C119.906 32.8274 118.105 31.1099 115.773 30.3219C114.748 29.9755 112.685 29.9204 111.613 30.2108ZM131.391 30.2397C131.243 30.4506 131.224 31.4439 131.224 38.8234C131.224 47.0255 131.228 47.1722 131.438 47.3832C131.556 47.5012 131.75 47.5977 131.868 47.5977C131.986 47.5977 132.179 47.5012 132.297 47.3832C132.481 47.1988 132.511 47.0255 132.511 46.1527V45.1368L133.347 45.9852C134.325 46.9769 135.291 47.5043 136.507 47.7094C139.488 48.2122 142.461 46.1454 143.187 43.0649C143.393 42.1925 143.392 40.5188 143.186 39.7072C142.473 36.9014 140.147 35.0405 137.361 35.0454C135.678 35.0484 134.18 35.8056 133.005 37.2475L132.511 37.8535V34.1658C132.511 31.0019 132.488 30.4442 132.344 30.2397C132.121 29.9201 131.615 29.9201 131.391 30.2397ZM114.754 31.5574C116.855 31.9986 118.691 33.594 119.381 35.578C119.518 35.9722 119.675 36.6923 119.729 37.1784C119.784 37.6643 119.853 38.0867 119.883 38.117C119.914 38.1473 120.28 38.26 120.698 38.3674C122.051 38.7155 122.926 39.42 123.484 40.6107C123.727 41.1295 123.767 41.3558 123.767 42.2329C123.767 43.1421 123.733 43.3212 123.454 43.8902C123.055 44.7027 122.367 45.3906 121.588 45.7555L120.977 46.042L113.413 46.071C106.065 46.0992 105.828 46.0938 105.128 45.8814C103.693 45.4457 102.374 44.2209 101.813 42.8042C101.606 42.2795 101.566 41.9813 101.566 40.9454C101.566 39.9095 101.606 39.6113 101.813 39.0866C102.371 37.6776 103.683 36.4544 105.11 36.0138C106.06 35.7202 107.694 35.7121 108.323 35.998C110.294 36.8934 110.72 39.4978 109.12 40.8677C108.38 41.5006 107.813 41.5878 106.214 41.3138C105.75 41.2343 105.473 41.4545 105.473 41.902C105.473 42.2987 105.72 42.4986 106.485 42.7194C108.225 43.2221 110.193 42.2333 111.029 40.4361C111.282 39.8918 111.316 39.6858 111.318 38.6922C111.32 37.6965 111.288 37.4955 111.038 36.9626C110.536 35.8932 109.75 35.1671 108.668 34.7756L108.037 34.5468L108.525 33.8825C109.909 32.003 112.417 31.0668 114.754 31.5574ZM155.609 35.2096C154.134 35.6066 152.661 36.8554 151.989 38.2769C151.402 39.5207 151.256 40.2579 151.312 41.6937C151.386 43.6048 151.967 44.9804 153.199 46.1667C155.456 48.3398 159.309 48.3304 161.562 46.1462C161.931 45.7887 162.232 45.438 162.232 45.3667C162.232 45.1724 161.83 44.808 161.615 44.808C161.511 44.808 161.166 45.0215 160.848 45.2824C159.713 46.2137 158.608 46.6321 157.286 46.6321C154.941 46.6321 152.937 44.8394 152.621 42.4607L152.548 41.9111H157.39C162.179 41.9111 162.235 41.9086 162.46 41.6838C162.664 41.4794 162.68 41.3821 162.614 40.7143C162.333 37.867 160.775 35.8221 158.419 35.2084C157.644 35.0066 156.36 35.0071 155.609 35.2096ZM168.53 35.2052C167.569 35.4694 166.817 35.9215 166.042 36.7008C164.08 38.676 163.602 41.8181 164.861 44.4692C165.352 45.5024 166.489 46.6627 167.49 47.1514C169.498 48.1321 171.904 47.9716 173.755 46.7334C175.004 45.8981 175.347 45.3796 174.912 44.9856C174.61 44.7126 174.404 44.7674 173.759 45.2924C170.65 47.825 166.494 46.5869 165.617 42.8667C165.527 42.4886 165.454 42.119 165.453 42.0452C165.452 41.9398 166.495 41.9111 170.317 41.9111C174.894 41.9111 175.193 41.8995 175.36 41.7148C175.753 41.2798 175.466 39.4619 174.786 38.082C174.06 36.6079 172.86 35.6048 171.339 35.2C170.631 35.0117 169.224 35.0143 168.53 35.2052ZM149.517 35.4025C148.361 35.8324 147.308 36.7101 146.55 37.8773L146.138 38.5109V37.1233C146.138 35.5617 146.035 35.2587 145.505 35.2587C144.83 35.2587 144.85 35.0696 144.85 41.3859C144.85 46.4028 144.871 47.1506 145.018 47.3592C145.208 47.6315 145.572 47.6681 145.876 47.4456C146.072 47.3025 146.088 47.1015 146.141 44.0389C146.195 40.8813 146.205 40.7618 146.473 40.0225C147.174 38.0906 148.523 36.9059 150.44 36.5395C150.818 36.4673 151.211 36.3655 151.314 36.3132C151.592 36.1713 151.663 35.7317 151.459 35.4189C151.308 35.1888 151.205 35.1522 150.722 35.157C150.414 35.1601 149.871 35.2705 149.517 35.4025ZM176.956 35.4258C176.667 35.6283 176.647 36.02 176.914 36.2614C177.089 36.42 177.538 36.439 181.098 36.439C183.292 36.439 185.087 36.4619 185.087 36.4901C185.087 36.5182 183.155 38.8393 180.795 41.6482C178.434 44.4571 176.503 46.8408 176.503 46.9453C176.503 47.0498 176.591 47.2152 176.699 47.3129C176.876 47.4727 177.389 47.4904 181.833 47.4904C186.48 47.4904 186.78 47.4789 186.948 47.2942C187.178 47.0396 187.172 46.8154 186.93 46.5963C186.758 46.4401 186.255 46.4168 182.523 46.392L178.311 46.3638L180.654 43.5741C186.718 36.3531 186.911 36.1157 186.911 35.8536C186.911 35.2667 186.842 35.2587 181.814 35.2587C177.806 35.2587 177.163 35.2808 176.956 35.4258ZM188.649 35.3875C188.578 35.4583 188.52 35.6454 188.52 35.8033C188.52 35.9611 189.752 38.6373 191.258 41.7503L193.995 47.4104L193.726 47.9985C192.902 49.7994 191.84 50.458 190.231 50.1661C188.85 49.9153 188.765 49.9157 188.628 50.1724C188.558 50.3017 188.529 50.5175 188.563 50.6521C188.724 51.2946 191.09 51.5929 192.334 51.1276C193.083 50.8472 193.932 50.0281 194.456 49.0797C194.905 48.2663 200.001 36.1125 200.001 35.8544C200.001 35.4773 199.788 35.2587 199.42 35.2587C199.223 35.2587 199.015 35.3191 198.958 35.3928C198.902 35.4667 197.899 37.906 196.73 40.8137C195.561 43.7215 194.592 46.0873 194.576 46.0712C194.56 46.0551 193.452 43.6761 192.113 40.7844C190.775 37.8928 189.63 35.4667 189.57 35.3928C189.429 35.222 188.818 35.2184 188.649 35.3875ZM157.855 36.2377C159.483 36.5832 160.629 37.7544 161.111 39.5646C161.195 39.8815 161.265 40.2977 161.266 40.4894L161.267 40.8381H156.907H152.547L152.612 40.3604C152.888 38.346 154.266 36.712 156.063 36.2679C156.757 36.0963 157.157 36.0896 157.855 36.2377ZM170.717 36.226C172.414 36.5478 173.626 37.8523 174.075 39.8399C174.171 40.2647 174.25 40.663 174.25 40.7251C174.25 40.8024 172.858 40.8381 169.85 40.8381C166.402 40.8381 165.452 40.8091 165.453 40.704C165.458 40.2908 165.824 39.1091 166.119 38.5558C166.735 37.401 167.704 36.607 168.887 36.2891C169.603 36.0969 169.97 36.0842 170.717 36.226ZM138.635 36.3948C140.823 37.0347 142.173 39.1886 142.026 41.8038C141.878 44.4492 140.48 46.1373 138.1 46.5454C135.588 46.9762 133.066 45.1819 132.523 42.5764C131.841 39.3057 134.135 36.2542 137.293 36.2302C137.711 36.227 138.314 36.3011 138.635 36.3948Z" fill="#071124"/>
</g>
<path fill-rule="evenodd" clip-rule="evenodd" d="M42.9051 24.3714C38.8855 25.4597 35.6295 27.8675 33.5313 31.3035L32.8775 32.3741L30.9501 32.7386C27.5372 33.3838 24.6449 35.1068 22.7286 37.637C20.8605 40.1035 20 42.6336 20 45.659C20 47.9566 20.3362 49.356 21.4282 51.6013C22.9433 54.7172 25.8397 57.1516 29.4524 58.3461C30.5299 58.7023 31.7972 58.7385 45.4435 58.8014C58.2999 58.861 60.4543 58.8259 61.699 58.5374C68.4564 56.9701 71.966 49.5473 68.856 43.4001C67.6459 41.0082 65.2675 38.9056 62.8712 38.1097C61.8618 37.7744 61.8452 37.7542 61.7043 36.6923C61.6256 36.0997 61.2845 34.8564 60.9462 33.9296C59.3517 29.5604 55.7806 26.1544 51.1557 24.5918C49.1226 23.9048 45.0315 23.7956 42.9051 24.3714ZM58.3106 35.0151C56.9424 31.0807 53.3011 27.9169 49.1343 27.0419C44.4998 26.0689 39.5266 27.9256 36.7826 31.6528L35.8132 32.9701L37.066 33.4238C39.2104 34.2002 40.7705 35.6401 41.7648 37.7608C42.2603 38.8177 42.325 39.2162 42.3212 41.1908C42.3174 43.1611 42.2495 43.5696 41.7473 44.6491C40.0896 48.213 36.1868 50.174 32.7358 49.1771C31.2199 48.7392 30.7291 48.3428 30.7291 47.5562C30.7291 46.6687 31.2797 46.2321 32.1998 46.3897C35.37 46.9329 36.4951 46.7602 37.9616 45.505C41.1356 42.7883 40.2904 37.6236 36.3815 35.8479C35.1333 35.2811 31.894 35.297 30.0088 35.8792C27.1799 36.7531 24.5779 39.1788 23.4723 41.973C23.0606 43.0134 22.9819 43.6047 22.9819 45.659C22.9819 47.7134 23.0606 48.3047 23.4723 49.3452C24.5839 52.1547 27.2004 54.5836 30.0461 55.4476C31.4329 55.8687 31.9036 55.8796 46.4746 55.8236L61.4754 55.766L62.6874 55.1978C64.2311 54.4742 65.5954 53.1101 66.3865 51.4989C66.9404 50.3706 67.0076 50.0152 67.0076 48.2124C67.0076 46.4729 66.9293 46.0242 66.4469 44.9952C65.3399 42.6341 63.6042 41.237 60.9213 40.5467C60.0932 40.3337 59.3663 40.1103 59.3063 40.0501C59.2461 39.9901 59.1087 39.1524 59.001 38.1887C58.8931 37.2248 58.5825 35.7969 58.3106 35.0151Z" fill="#1E8FC6"/>
<defs>
<clipPath id="clip0_0_327">
<rect width="100" height="21.4592" fill="white" transform="translate(100 30)"/>
</clipPath>
</defs>
</svg>
