<svg width="247" height="48" viewBox="0 0 247 48" fill="none" xmlns="http://www.w3.org/2000/svg">
<path fill-rule="evenodd" clip-rule="evenodd" d="M12.667 4.18491H12.9657L13.4653 4.28267L14.0626 4.38313L15.6551 4.78226L17.8463 5.17868L19.0423 5.48006L20.3374 5.77738L21.7317 5.97695L23.1246 6.37608L24.6193 6.57429L26.1127 6.97342L30.8928 7.86808L32.3875 8.26721L33.9813 8.56589L35.3728 8.86456L36.8689 9.16323L38.2618 9.4619L39.6574 9.66147L40.8521 9.9615L42.0481 10.1597L43.0433 10.457L43.9393 10.6579L44.7348 10.7557L45.4326 10.8561L45.9322 10.9566L46.2295 11.0557H46.4278L47.7243 11.3544L48.9189 11.554L49.9154 11.8526L50.711 12.0508L51.5092 12.3509L52.1066 12.5504L52.9021 12.9482L53.2008 13.1478L53.6991 13.6447V13.7451L53.8009 13.8442V13.9433H58.08L58.4805 14.0438H58.8783L59.177 14.1429H59.4756L59.7743 14.2434L60.5712 14.6398L60.6703 14.8407L61.3681 15.9349L61.5677 17.2287L61.3681 18.8239L60.8712 20.3173L60.2725 21.8106L59.6738 23.0067L59.177 23.8036L58.9787 24.1022L58.7792 24.2041L58.2809 24.3996L57.5831 24.6996L56.5867 25.0974L55.4911 25.4978L54.0982 26.0938L52.6035 26.6912L50.9105 27.2899L49.0181 28.0854L47.0251 28.7832L45.0362 29.5788L40.6539 31.3735L38.3623 32.2695L36.0706 33.0678L33.7817 34.0589L31.3924 34.9576L29.1007 35.7531L26.9082 36.751L24.6193 37.5492L22.5272 38.3448L18.5427 39.9373L16.7507 40.6351L15.0577 41.2324L13.5644 41.8284L12.2706 42.3266L11.1737 42.8249L10.279 43.1249L9.58119 43.4249L9.18206 43.5227L9.0816 43.6204H60.5712L68.9367 3.98535H12.667V4.18491Z" fill="#284E80"/>
<path fill-rule="evenodd" clip-rule="evenodd" d="M51.2106 17.0319L50.9105 17.1323L48.919 17.5287H48.4207L48.0216 17.6278H47.6252L47.0251 17.7297L46.7278 17.8288L46.5282 17.9279L46.4278 18.1288V18.3257L46.6287 18.5252H47.0251L47.4242 18.6243H48.4207L49.0181 18.5252H49.6154L51.011 18.3257H51.7088L52.5044 18.2252L53.2008 18.1288L53.8009 18.027L54.496 17.9279H57.1854L57.4827 18.027L57.6836 18.1288L57.8818 18.4261V18.8239L57.7827 19.2217L57.6836 19.7199L57.4827 20.3173L57.1854 21.0151L56.9858 21.7129L56.8867 22.1106L57.0849 22.3102L57.2845 22.2097L57.6836 21.8106L57.8818 21.5133L58.1805 21.0151L58.4805 20.4177L58.7792 19.7199L59.0765 19.1239L59.2761 18.5252L59.3752 18.027V17.4296L59.177 16.9314L58.8783 16.6327L58.4805 16.3341L57.9823 16.1345L57.3836 16.0354L56.6885 15.9349H52.5044L52.4053 16.0354H52.3048L52.1066 16.1345L51.9057 16.5336L51.7088 16.6327L51.5092 16.8323L51.2106 17.0319Z" fill="#284E80"/>
<path fill-rule="evenodd" clip-rule="evenodd" d="M10.7759 13.1478L4.20239 43.6204L4.50242 43.5227L5.09977 43.1249L6.09488 42.7271L7.39139 42.0293L8.88339 41.3329L10.5777 40.4369L12.5693 39.5395L14.4618 38.543L16.4534 37.647L18.3445 36.6505L20.237 35.7531L22.029 34.8571L23.5237 34.0589L24.8175 33.4629L25.814 32.9674L26.5118 32.6673L27.5069 32.1691L28.4043 31.6708L29.4985 31.1713L30.5941 30.5753L31.5906 30.077L32.7853 29.5788L33.8808 28.9814L35.0755 28.4859L36.2716 27.8859L42.2464 25.3974L44.9358 24.5L45.3335 24.3996L45.7313 24.2041L46.2295 24.1022L48.0216 23.5049L50.115 22.9075L50.8114 22.8071L52.9021 22.2097L54.0982 22.0115L54.496 21.9111L54.7946 21.8106H55.0947L55.392 21.7129L55.5915 21.5133H55.692V21.4115L55.4911 21.0151L55.1924 20.916L54.7946 20.8155H54.3969L53.8009 20.7177H53.2008L52.5044 20.8155L51.3097 20.916L50.0145 21.1142L48.6203 21.4115L47.1256 21.7129L45.6336 22.1106L44.0397 22.6089L42.545 23.1071L40.9526 23.604L39.4592 24.2041L37.9631 24.6996L36.5702 25.1978L35.2764 25.6961L34.079 26.2934L33.0839 26.6912L32.1879 27.0917L31.4901 27.4894L27.7065 15.7367H51.8079L51.9057 15.2398L51.5092 14.7402L50.9105 14.4416L50.0145 14.1429L49.0181 13.8442L46.4278 13.4465L42.2464 13.1478H10.7759Z" fill="#284E80"/>
<path fill-rule="evenodd" clip-rule="evenodd" d="M242.553 24.728H73.8173L74.0589 22.1934H242.797L242.553 24.728Z" fill="#CA4256"/>
<path fill-rule="evenodd" clip-rule="evenodd" d="M81.485 19.1238L80.1898 19.0233L78.896 18.7247L77.8996 18.426L77.0036 17.8287L76.4076 17.1322L76.0084 16.2335L75.908 15.2397L76.0084 14.0437L76.5067 11.8525L76.9044 9.86093L77.3036 8.16665L77.6022 6.77375L77.8018 5.57906L78 4.68305L78.1005 4.18617L78.1982 3.9866H81.485L81.3845 4.38302L81.1863 5.3795L80.7872 6.87285L80.4885 8.56714L80.0907 10.2614L79.5938 12.7499L79.4934 13.0486L79.3956 13.8455V15.2411L79.5938 15.738L79.9916 16.1357L80.4885 16.4344L81.1863 16.6326L81.9832 16.7317L82.8792 16.6326L83.577 16.5335L84.2735 16.2335L84.7717 15.7366L85.1709 15.2397L85.57 14.6397L86.1673 13.0472L86.2651 12.2503L86.5637 11.0556L86.8651 9.56226L87.1638 7.96843L87.5602 6.47236L87.7612 5.17857L87.9594 4.2812L88.0598 3.98389H91.3466L90.7492 6.8715L90.4506 8.36756L90.251 8.86445V9.06266L90.1505 9.66136L89.8519 11.1547L89.1568 14.0437L89.0563 14.6397L88.7576 15.2397L88.5567 15.7366L88.258 16.2335L87.8616 16.7317L87.0647 17.5273L86.5651 17.8273L85.9691 18.1273L85.4709 18.426L84.8749 18.6242L84.2762 18.7247L83.6775 18.9229L82.2846 19.1238H81.485ZM234.655 6.37598H229.975L229.179 6.57418L228.583 6.97331L228.483 7.17153L228.382 7.47156V7.86933L228.483 8.26846L228.78 8.66759L229.08 9.16448L229.976 10.0605L230.572 10.4583L231.071 10.8574L231.669 11.3556L232.663 12.3521L233.063 12.8504L233.659 14.045L233.757 14.641L233.659 15.3388L233.461 16.038L233.161 16.7344L232.663 17.3318L231.965 17.83L231.17 18.2264L230.173 18.5251L228.879 18.7247L227.485 18.8238H222.408L223.004 16.4344H228.381L228.879 16.334L229.277 16.2335L229.577 16.0353L229.877 15.6361L230.074 15.2397L229.976 14.4415L229.38 13.6445L228.384 12.849L227.387 11.953L226.294 10.9579L225.396 9.86093L224.8 8.76398L224.702 7.4702L224.899 6.77375L225.299 5.9782L225.697 5.38085L226.395 4.88261L227.291 4.48483L228.187 4.18617L229.383 3.9866H235.158L234.655 6.37598ZM223.101 6.37598H215.635L214.736 10.2601H221.312L220.814 12.3508H214.24L213.442 16.4344H220.912L220.413 18.8238H209.658L212.846 3.98524H223.604L223.101 6.37598ZM210.154 6.37598H205.575L202.887 18.8238H199.601L202.289 6.37598H197.607L198.206 3.98524H210.655L210.154 6.37598ZM187.25 18.8238L188.547 16.4344H193.226L191.932 6.97331L185.359 18.8238H182.071L190.636 3.98524H194.52L196.812 18.8238H187.25ZM186.653 6.37598H182.071L179.383 18.8238H176.095L178.783 6.37598H174.106L174.702 3.98524H187.148L186.653 6.37598ZM172.411 6.37598H167.83L167.331 6.47372L166.934 6.57418L166.634 6.77375L166.236 7.17017V7.86797L166.336 8.26711L166.534 8.66624L166.932 9.16313L167.828 10.0591L168.326 10.4569L168.925 10.856L170.416 12.3508L170.816 12.849L171.214 13.4463L171.412 14.0437L171.513 14.6397V15.3375L171.312 16.0366L171.014 16.7331L170.416 17.3304L169.82 17.8287L168.927 18.2251L167.93 18.5238L166.734 18.7233L165.241 18.8224H160.261L160.756 16.4331H166.234L166.733 16.334L167.13 16.2335L167.43 16.0353L167.728 15.6361L167.828 15.2397L167.728 14.4415L167.132 13.6445L166.236 12.849L165.242 11.953L164.144 10.9579L163.248 9.86093L162.652 8.76398L162.551 7.4702L162.752 6.77375L163.049 5.9782L163.548 5.38085L164.245 4.88261L165.044 4.48483L166.038 4.18617L167.234 3.9866H173.009L172.411 6.37598ZM142.335 11.3543L140.839 18.8238H147.513L148.309 18.7247H149.107L150.498 18.3255L151.297 18.0269L151.995 17.6277L153.191 16.8322L154.384 15.6361L155.38 14.2433L155.778 13.4463L156.078 12.6508L156.276 11.7534L156.377 11.3556L156.475 10.7583L156.673 9.3654L156.575 8.07026L156.275 6.97467L155.777 5.97956L154.981 5.08218L153.987 4.48483L152.691 4.08706L151.198 3.9866H143.928L142.335 11.3543ZM153.191 11.3543L153.09 11.8525L152.79 12.4499L152.592 12.9481L152.395 13.5454L152.095 13.9419L151.697 14.4415L150.899 15.2397L149.902 15.8357L149.407 16.0353L148.811 16.2335L147.612 16.4331H144.627L145.621 11.3529L146.719 6.37462H151.001L151.796 6.67328L152.395 7.07107L152.891 7.66705L153.191 8.26439L153.389 9.05994V10.6538L153.191 11.2511V11.3543ZM141.041 6.37598H133.67L132.774 10.2601H139.249L138.849 12.3508H132.278L131.48 16.4344H138.849L138.451 18.8238H127.696L130.884 3.98524H141.538L141.041 6.37598ZM128.194 6.37598H123.513L120.824 18.8238H117.638L120.326 6.37598H115.646L116.143 3.98524H128.594L128.194 6.37598ZM110.766 18.8238H107.578L110.665 3.98524H113.951L110.766 18.8238ZM104.392 18.8238H100.308L96.6236 7.77023H96.5245L94.2342 18.8238H91.3466L94.5329 3.98524H98.7156L102.302 15.1406L104.594 3.98524H107.581L104.392 18.8238ZM77.104 37.9442H76.7062L76.5067 37.8464H75.9093L75.7111 37.7487H75.5129L75.3133 35.6566H76.1102L76.2094 35.7544H76.8081L77.6036 35.6566L78.7983 35.2589L79.1974 34.8584L79.7934 34.0601L79.993 33.665V33.2646L80.0921 32.7663V32.2708L79.993 31.8703L79.7934 31.573L79.1974 31.1725H78.7983L78.4019 31.0748H75.7125L73.0231 43.5239H69.7363L72.9253 28.6827H79.9957L81.0913 28.7831L81.8882 29.1836L82.5846 29.6791L82.9838 30.3769L83.182 31.0748L83.2824 31.8703V32.6686L83.182 33.3664L82.8833 34.3628L82.3851 35.2589L81.7877 36.0544L80.9922 36.7522L80.1939 37.2505L78.201 37.8464L77.104 37.9442ZM241.029 31.0734H233.461L232.663 34.9575H239.236L238.738 37.1473H232.167L231.369 41.2309H238.839L238.34 43.5226H227.586L230.773 28.6813H241.528L241.029 31.0734ZM227.784 31.273L227.383 31.1725H227.086L226.29 30.9756L225.789 30.8752H225.294L224.893 30.7747H224.297L223.202 30.8752L222.205 31.1725L221.212 31.573L220.316 32.2708L219.618 32.9686L218.92 33.8646L218.522 34.9602L218.124 36.1535L217.924 37.3496L218.024 38.4451L218.321 39.3412L218.722 40.039L219.318 40.6377L220.116 41.1359L221.012 41.4332L222.006 41.531H222.602L223.201 41.4332H223.699L224.695 41.235H225.09L225.591 41.1373L225.989 41.0368L225.191 43.5266L224.793 43.6244H224.295L223.897 43.7248H223.399L223.001 43.8226H220.709L219.116 43.6244L218.418 43.4275L217.72 43.1275L217.124 42.8275L216.528 42.4297L216.03 42.0319L215.531 41.531L215.231 40.935L214.934 40.2372L214.634 39.6412L214.534 38.8456V38.0474L214.634 37.1514L214.732 36.1549L215.032 35.2616L215.332 34.2651L216.127 32.6713L216.626 31.9735L217.822 30.7774L218.52 30.2792L219.911 29.4836L221.505 28.8849L222.303 28.6867L223.099 28.589L223.995 28.4912H226.087L226.485 28.589H226.885L227.283 28.6867H227.681L228.078 28.7872L227.784 31.273ZM211.353 43.5226H208.065L211.252 28.6813H214.538L211.353 43.5226ZM200.793 43.5226H196.909L194.719 28.6813H198.008L199.501 40.635L206.074 28.6813H209.262L200.793 43.5226ZM188.743 37.1486L191.135 43.5226H187.547L184.859 35.4571H186.754L187.35 35.3566L187.946 35.1584L188.445 34.8584L188.842 34.5611L189.24 34.1606L189.438 33.665L189.639 33.0691L189.737 32.6686V32.2708L189.539 31.6721L189.341 31.4739L188.943 31.2757L187.946 31.0775H184.958L182.27 43.5266H178.985L182.173 28.6854H189.043L190.037 28.7858L190.936 28.984L191.634 29.2841L192.132 29.6819L192.53 30.1801L192.83 30.8779L192.927 31.6734V32.469L192.83 33.4655L192.53 34.3642L192.132 35.1598L191.634 35.7557L191.035 36.3517L190.239 36.7522L189.542 37.0523L188.743 37.1486ZM179.285 31.0734H171.813L171.017 34.9575H177.49L177.092 37.1473H170.519L169.723 41.2309H177.193L176.695 43.5226H165.839L169.027 28.6813H179.782L179.285 31.0734ZM165.737 31.0734H161.556L160.56 31.2716L160.162 31.3721L159.964 31.5703L159.664 31.7685L159.465 32.1663V32.6645L159.566 33.065L159.764 33.46L160.162 33.8605L160.56 34.3588L161.058 34.7538L161.556 35.2548L162.152 35.6526L162.65 36.1481L163.246 36.5486L163.647 37.1446L164.045 37.6428L164.442 38.2388L164.643 38.737L164.738 39.4348V40.0308L164.541 40.8291L164.241 41.4251L163.045 42.6211L162.25 43.0189L161.152 43.3189L159.958 43.5171H153.485L153.983 41.2255H159.459L159.957 41.1278L160.355 40.9268L160.655 40.7286L160.952 40.4313L161.15 40.0308L160.952 39.2353L160.356 38.437L159.46 37.5437L158.466 36.645L157.368 35.749L156.472 34.6534L155.876 33.4573L155.775 32.264L155.974 31.4657L156.274 30.7679L156.772 30.1719L157.47 29.6737L158.265 29.2759L159.262 28.9759L160.458 28.7777L161.849 28.6772H166.233L165.737 31.0734ZM148.013 43.5226H137.953L141.041 28.6813H144.427L141.737 41.2309H148.508L148.013 43.5226ZM126.698 43.5226L127.992 41.2309H132.672L131.28 31.6694L124.807 43.5212H121.521L129.987 28.6799H133.97L136.261 43.5212H126.698V43.5226ZM126.102 31.0734H121.421L118.732 43.5226H115.445L118.136 31.0734H113.554L114.054 28.6813H126.502L126.102 31.0734ZM111.861 31.0734H107.677L106.682 31.2716L106.383 31.3721L106.085 31.5703L105.688 31.968L105.588 32.1663V32.6645L105.688 33.065L106.284 33.8605L106.681 34.3588L107.179 34.7538L107.676 35.2548L108.274 35.6526L108.872 36.1481L109.369 36.5486L109.768 37.1446L110.266 37.6428L110.565 38.2388L110.764 38.737L110.962 39.4348L110.863 40.0308L110.664 40.8291L110.365 41.4251L109.868 42.0238L109.27 42.6198L108.374 43.0175L107.279 43.3176L106.083 43.5158H99.7107L100.109 41.2241H105.687L106.083 41.1264L106.88 40.7259L107.078 40.4286L107.278 40.0281L107.178 39.2325L106.58 38.4343L105.686 37.541L104.589 36.6423L103.592 35.7462L102.696 34.6507L102.099 33.4546L101.899 32.2613L102.099 31.463L102.495 30.7652L102.997 30.1774L103.593 29.6791L104.39 29.2814L105.485 28.9813L106.679 28.7831L107.973 28.6827H112.357L111.861 31.0734ZM84.1744 36.1508L83.9735 37.7473L84.2735 39.8367L84.8722 41.0327L85.2686 41.6287L86.166 42.5247L86.762 42.9225L87.3593 43.2225L88.0571 43.5226L88.8527 43.7208L89.6496 43.8185H91.3439L92.9363 43.6203L93.7319 43.4235L94.5288 43.1234L95.2266 42.8234L95.8239 42.4256L96.5217 42.0278L97.1191 41.5269L97.616 40.9309L98.2147 40.3349L98.6111 39.6371L99.408 38.0433L99.7067 37.1473L99.9049 36.1508L100.104 35.3553V33.8619L100.004 33.0663L99.9049 32.3685L99.3075 31.1698L98.516 30.1774L98.0165 29.7796L97.4191 29.3818L96.8218 29.0818L96.0249 28.7818L95.327 28.5836L94.5315 28.4858H92.8372L91.2448 28.6827L90.4492 28.8809L89.6523 29.1836L88.9545 29.4809L88.3585 29.8787L87.6607 30.3769L87.0634 30.7747L86.466 31.3734L85.9678 32.0712L85.4695 32.6672L85.0717 33.4628L84.7731 34.261L84.4744 35.2575L84.1744 36.1508ZM96.6222 36.1508L96.3235 37.3468L95.8266 38.4424L95.327 39.3384L94.632 40.0363L93.835 40.635L92.9377 41.1332L92.0417 41.4305L90.9447 41.5282L89.8478 41.4305L89.0522 41.0327L88.3544 40.5345L87.8575 39.8367L87.5575 39.1389L87.3593 38.1451V37.1486L87.5575 36.1522L87.8575 34.9588L88.3544 33.8632L88.8527 32.9672L89.5505 32.2694L90.346 31.5716L91.2434 31.1711L92.1394 30.8738L93.235 30.7734L94.2315 30.9743L95.1275 31.1711L95.8253 31.7698L96.3222 32.3685L96.6208 33.1641L96.8204 34.0574V35.0539L96.6222 36.1508Z" fill="black"/>
</svg>
