<svg width="122" height="98" viewBox="0 0 122 98" fill="none" xmlns="http://www.w3.org/2000/svg">
<path d="M39.97 64.1643H36.447V56.8218H29.9257V64.1643H26.4028V46.2574H29.9257V53.7499H36.447V46.2574H39.97V64.1643Z" fill="#086B92"/>
<path d="M24.0304 64.3631H20.5075V46.4561H24.0304V64.3631Z" fill="#086B92"/>
<path d="M3.05005 46.3756H6.48671L14.6886 59.1583V46.3755L17.9423 46.3756V64.5052H14.6886L6.48671 51.9017V64.5052H3.05005V46.3756Z" fill="#086B92"/>
<path d="M117.333 79.755C113.254 78.5256 110.39 74.0469 108.046 69.8318C106.05 66.2314 104.4 62.1041 103.012 57.4498C109.348 48.317 113.862 38.306 116.553 27.6804C117.681 23.2017 118.722 18.4597 118.722 13.8933C118.722 11.0832 118.115 6.25334 114.296 4.9361C114.209 4.9361 114.122 4.9361 114.122 4.9361C113.341 4.9361 112.126 5.98988 111.085 6.95586C110.911 7.13148 110.824 7.2193 110.737 7.30712C110.737 7.30712 107.786 10.1172 107.872 10.5563V10.7319L108.046 10.8197C113.949 12.8395 112.039 22.4992 110.997 27.6804L110.824 28.5585C109.175 36.901 106.223 45.2434 101.883 53.1469C101.796 52.7956 101.71 52.3565 101.623 52.0053C101.015 49.4586 100.147 42.0486 100.579 35.6716C100.873 31.3404 101.013 27.6804 101.881 24.6946C103.183 19.4257 108.131 19.5134 107.089 18.1085C105.787 16.3521 101.447 17.6693 99.7114 19.4257C97.9754 21.182 96.6734 24.6946 96.2394 26.89C95.8054 29.0854 95.7067 31.4049 95.8054 36.1106C95.9392 42.4938 96.7854 47.5961 96.9355 48.4048C97.4563 51.5662 98.2376 54.6397 99.1924 57.5377C94.9392 64.3873 89.9048 70.71 84.1759 76.418C81.7455 78.789 79.0546 80.8966 76.2769 82.7408C74.8013 83.7067 73.1521 84.6727 70.982 85.7265C69.1592 86.6924 67.6836 87.3072 65.8608 86.429C65.2532 86.1656 64.1247 87.0437 62.5624 88.4488C62.3888 88.5365 62.302 88.7122 62.2152 88.7122C62.2152 88.7122 59.2639 91.4345 59.3506 91.8736V92.0492L59.5242 92.137C60.3055 92.4883 60.9999 92.6639 61.7811 92.6639C62.9096 92.6639 63.9511 92.3126 65.0796 91.698C67.1628 90.6441 68.9856 89.6781 70.6349 88.6244C74.2806 86.429 78.1866 83.5311 82.7002 79.6672C89.2104 74.1348 95.1128 67.8121 100.321 60.9625C101.015 62.9822 101.796 64.9141 102.664 66.7583C105.442 72.8176 108.48 76.8571 112.039 79.4916C113.428 80.4576 114.99 81.2479 116.553 81.7748C116.553 81.7748 117.16 81.9504 117.768 81.9504C118.028 81.9504 118.289 81.9504 118.462 81.7748C118.636 81.6869 118.81 81.5113 118.896 81.2478C119.069 80.8966 118.896 80.2819 117.333 79.755Z" fill="#ED403F"/>
<path d="M79.4543 42.4907C80.5275 42.4907 81.3977 41.621 81.3977 40.5482C81.3977 39.4754 80.5275 38.6058 79.4543 38.6058C78.381 38.6058 77.511 39.4754 77.511 40.5482C77.511 41.621 78.381 42.4907 79.4543 42.4907Z" fill="#2C2C2C"/>
<path d="M17.8281 42.2153H14.4796V34.8726H6.61809V42.2153H3.09509V24.3083H6.61809V31.8007H14.4796V24.3083H17.8281V42.2153Z" fill="#2C2C2C"/>
<path d="M24.0139 42.2153H20.5069V24.3083H24.0139V42.2153Z" fill="#2C2C2C"/>
<path d="M40.2774 24.3573L34.6556 41.1404C34.3557 41.9646 33.831 42.2642 33.0814 42.2642C32.2569 42.2642 31.7322 41.8895 31.4324 41.1404L25.8856 24.3573H29.4835L33.0065 35.9706L36.5295 24.3573H40.2774Z" fill="#2C2C2C"/>
<path d="M44.2589 33.1275V43.2192H41.497V33.1275H44.2589ZM41.1606 30.1442C41.1606 29.8492 41.2433 29.5748 41.4085 29.321C41.5738 29.0672 41.7921 28.8665 42.0636 28.719C42.335 28.5655 42.6212 28.4888 42.9222 28.4888C43.4061 28.4888 43.7927 28.6304 44.0819 28.9138C44.3711 29.1911 44.5156 29.5511 44.5156 29.9937C44.5156 30.2888 44.433 30.5662 44.2678 30.8259C44.1084 31.0797 43.8931 31.2833 43.6216 31.4367C43.356 31.5842 43.0697 31.6579 42.7629 31.6579C42.4619 31.6579 42.1905 31.593 41.9485 31.4632C41.7066 31.3334 41.5148 31.1534 41.373 30.9232C41.2314 30.6931 41.1606 30.4334 41.1606 30.1442ZM49.8448 33.1275L49.8979 34.2074C50.3051 33.9005 50.8126 33.6202 51.4205 33.3665C52.0284 33.1127 52.6155 32.9769 53.1821 32.9593C53.908 32.9357 54.5011 33.0507 54.9614 33.3045C55.4218 33.5524 55.764 33.9684 55.9884 34.5527C56.2185 35.131 56.3336 35.9101 56.3336 36.8897V43.2192H53.5716V37.4828C53.5716 36.9104 53.5273 36.4677 53.4389 36.155C53.3504 35.8363 53.1998 35.609 52.9874 35.4733C52.7749 35.3376 52.4739 35.2756 52.0844 35.2875C51.7894 35.2934 51.4559 35.3613 51.0841 35.4911C50.7124 35.6209 50.3848 35.8097 50.1015 36.0576V43.2192H47.3395V33.1275H49.8448ZM58.4936 35.0396V33.4284L59.8657 33.1275V32.1626C59.8657 31.236 60.0487 30.4865 60.4145 29.9141C60.7804 29.3416 61.2467 28.9344 61.8131 28.6924C62.3856 28.4445 62.9935 28.3207 63.6368 28.3207C63.9849 28.3207 64.3361 28.3443 64.6902 28.3915C65.0502 28.4327 65.2951 28.4741 65.4249 28.5154V30.4806C65.1299 30.3389 64.6696 30.2681 64.044 30.2681C63.6132 30.2681 63.2679 30.4246 63.0083 30.7373C62.7545 31.0501 62.6276 31.5045 62.6276 32.1006V33.1275H64.9824V35.0396H62.6276V43.2192H59.8657V35.0396H58.4936ZM66.2128 38.076C66.2128 36.9959 66.4253 36.0753 66.8502 35.314C67.2751 34.5468 67.8652 33.9684 68.6207 33.579C69.376 33.1836 70.2436 32.9858 71.2232 32.9858C72.3386 32.9858 73.2563 33.2219 73.9763 33.694C74.6963 34.1602 75.2186 34.7888 75.5432 35.5796C75.8737 36.3645 76.039 37.2526 76.039 38.2441C76.039 39.33 75.8264 40.2566 75.4016 41.0238C74.9767 41.7909 74.3865 42.3723 73.6311 42.7677C72.8757 43.1631 72.0111 43.3608 71.0374 43.3608C69.9161 43.3608 68.9955 43.1248 68.2755 42.6527C67.5555 42.1805 67.0302 41.549 66.6997 40.7582C66.3751 39.9615 66.2128 39.0674 66.2128 38.076ZM73.1796 38.253C73.1796 37.3087 73.0115 36.5238 72.6751 35.8983C72.3386 35.2668 71.8282 34.951 71.1436 34.951C69.7626 34.951 69.0722 35.9779 69.0722 38.0317C69.0722 38.6514 69.143 39.2179 69.2846 39.7313C69.4321 40.2389 69.6594 40.6461 69.9662 40.953C70.279 41.2598 70.6685 41.4133 71.1347 41.4133C72.498 41.4133 73.1796 40.3599 73.1796 38.253Z" fill="#2C2C2C"/>
<path d="M53.3218 62.6534L53.4508 63.9217C53.4508 63.9217 52.9352 63.9273 52.7345 63.9556C52.0449 64.0533 51.8066 64.1618 51.3212 64.4509C50.8224 64.7481 50.3114 65.3541 50.3114 65.3541C49.8739 65.638 49.0553 65.8374 49.1264 65.2654C49.1264 65.2654 49.4651 64.2852 50.6643 63.4605C51.8634 62.6357 53.3218 62.6534 53.3218 62.6534Z" fill="#2C2C2C"/>
<path d="M66.4352 50.5814C69.4336 50.5814 71.9821 52.9041 71.9821 56.95C71.9821 60.921 69.4336 63.2436 66.4352 63.2436C63.437 63.2436 60.9633 60.921 60.9633 56.95C60.9633 52.9041 63.5119 50.5814 66.4352 50.5814ZM66.4352 62.2696C68.9089 62.2696 70.7828 60.1717 70.7828 57.0249C70.7828 53.8032 68.9089 51.7052 66.4352 51.7052C63.9617 51.7052 62.0878 53.8781 62.0878 57.0249C62.0878 60.1717 63.9617 62.2696 66.4352 62.2696Z" fill="#2C2C2C"/>
<path d="M72.5065 50.8808H73.7058L76.4043 58.1485C76.7791 59.2723 77.1539 60.3962 77.6037 61.4451H77.6786C78.0534 60.3962 78.4281 59.2723 78.8779 58.1485L81.5764 50.8808H82.7008L78.3532 62.4191C77.6786 63.8427 77.0789 62.4191 77.0789 62.4191L72.5065 50.8808Z" fill="#2C2C2C"/>
<path d="M43.8428 64.5046C44.9161 64.5046 45.7861 63.6349 45.7861 62.5621C45.7861 61.4893 44.9161 60.6196 43.8428 60.6196C42.7696 60.6196 41.8995 61.4893 41.8995 62.5621C41.8995 63.6349 42.7696 64.5046 43.8428 64.5046Z" fill="#2C2C2C"/>
<path d="M56.3223 62.6398H53.4722C53.3972 62.6398 53.3222 62.6398 53.3222 62.6398C53.3222 62.6398 53.0222 63.4639 52.7971 63.8385C53.0972 63.8385 53.3222 63.9134 53.4722 63.9134H56.3223C58.3474 63.9134 59.3975 64.3629 59.3975 65.8613C59.3975 67.5095 57.4474 69.1578 54.4473 69.1578C51.5971 69.1578 50.0221 68.034 50.0221 66.4607C50.0221 66.086 50.0971 65.7115 50.3221 65.3369C49.947 65.4118 49.497 65.3369 49.122 65.262C48.972 65.6366 48.8221 66.0111 48.8221 66.3858C48.8221 68.5584 50.9221 69.9819 54.2972 69.9819C58.1224 69.9819 60.5975 67.8842 60.5975 65.6366C60.7475 63.5389 59.3225 62.6398 56.3223 62.6398Z" fill="#2C2C2C"/>
<path fill-rule="evenodd" clip-rule="evenodd" d="M52.6297 59.5092C53.1355 59.6484 53.6387 59.7179 54.0723 59.7179C56.6974 59.7179 58.7224 57.8448 58.7224 55.1477C58.7224 53.7242 58.1225 52.6005 57.2974 51.8513H60.3725V50.9522H55.7974C55.3474 50.8024 54.7473 50.6525 54.0723 50.6525C51.4472 50.6525 49.4221 52.5255 49.4221 55.2226C49.4221 56.5712 50.0222 57.695 50.7721 58.4443C51.053 58.7247 51.3821 58.9519 51.7001 59.1261C50.4436 60.0488 49.3076 61.842 51.9794 63.7041C51.9794 63.7041 53.6799 62.9941 53.7323 63.001C52.5108 62.5708 50.5043 61.4467 52.6297 59.5092ZM52.6297 59.5092C52.7416 59.4071 52.865 59.3028 53.0006 59.1962L51.9067 58.9827C51.8379 59.0278 51.7688 59.0756 51.7001 59.1261C52.0231 59.303 52.3346 59.4252 52.5722 59.4931L52.6297 59.5092ZM53.9972 51.6265C52.1222 51.6265 50.5472 53.05 50.5472 55.2226C50.5472 57.3954 52.1222 58.8937 53.9972 58.8937C55.8723 58.8937 57.4474 57.3954 57.4474 55.2226C57.4474 53.05 55.8723 51.6265 53.9972 51.6265Z" fill="#2C2C2C"/>
<path d="M53.0006 59.1962L51.9067 58.9827C51.8379 59.0278 51.7688 59.0756 51.7001 59.1261C52.0231 59.303 52.3346 59.4252 52.5722 59.4931L52.6297 59.5092C52.7416 59.4071 52.865 59.3028 53.0006 59.1962Z" fill="#2C2C2C"/>
</svg>
