<svg width="213" height="56" viewBox="0 0 213 56" fill="none" xmlns="http://www.w3.org/2000/svg">
<path d="M106.268 16.2065C98.281 16.2065 92.5219 21.4158 92.5219 29.2296C92.5219 37.0435 99.0045 42.2527 106.992 42.2527C111.818 42.2527 116.072 40.3427 118.706 37.1231L113.171 33.9252C111.709 35.5241 109.488 36.4574 106.992 36.4574C103.526 36.4574 100.582 34.6487 99.4892 31.7547H119.762C119.921 30.9443 120.015 30.1051 120.015 29.2224C120.015 21.4158 114.256 16.2065 106.268 16.2065ZM99.4241 26.6973C100.328 23.8106 102.803 21.9946 106.261 21.9946C109.727 21.9946 112.201 23.8106 113.098 26.6973H99.4241ZM184.176 16.2065C176.188 16.2065 170.429 21.4158 170.429 29.2296C170.429 37.0435 176.912 42.2527 184.899 42.2527C189.725 42.2527 193.979 40.3427 196.613 37.1231L191.078 33.9252C189.616 35.5241 187.395 36.4574 184.899 36.4574C181.433 36.4574 178.489 34.6487 177.396 31.7547H197.669C197.828 30.9443 197.922 30.1051 197.922 29.2224C197.922 21.4158 192.163 16.2065 184.176 16.2065ZM177.338 26.6973C178.243 23.8106 180.717 21.9946 184.176 21.9946C187.641 21.9946 190.116 23.8106 191.013 26.6973H177.338ZM149.1 29.2296C149.1 33.5707 151.936 36.4647 156.335 36.4647C159.316 36.4647 161.552 35.1117 162.702 32.905L168.258 36.1102C165.958 39.9447 161.646 42.2527 156.335 42.2527C148.34 42.2527 142.588 37.0435 142.588 29.2296C142.588 21.4158 148.348 16.2065 156.335 16.2065C161.646 16.2065 165.95 18.5145 168.258 22.3491L162.702 25.5542C161.552 23.3475 159.316 21.9946 156.335 21.9946C151.943 21.9946 149.1 24.8886 149.1 29.2296ZM208.775 8.24796V41.5292H202.263V8.24796H208.775ZM30.9588 4.63043L57.6923 50.9348H4.22525L30.9588 4.63043ZM97.7962 8.24796L77.7479 42.9762L57.6995 8.24796H65.2168L77.7479 29.9531L90.279 8.24796H97.7962ZM140.418 16.93V23.9408C139.694 23.731 138.928 23.5863 138.103 23.5863C133.899 23.5863 130.868 26.4803 130.868 30.8213V41.5292H124.356V16.93H130.868V23.5863C130.868 19.9109 135.144 16.93 140.418 16.93Z" fill="black"/>
</svg>
