<svg width="204" height="59" viewBox="0 0 204 59" fill="none" xmlns="http://www.w3.org/2000/svg">
<path d="M72.5309 24.4906C71.3909 24.4906 70.3386 24.5783 69.2863 24.8414C68.4094 25.0168 67.5324 25.2799 66.7432 25.7183L67.0063 28.8753C67.7955 28.6122 68.6724 28.4368 69.5494 28.3491C70.3386 28.2614 71.0401 28.1737 71.8294 28.1737C74.7233 28.1737 76.1263 29.3138 76.1263 31.5061V32.2076C75.1617 32.0322 74.2848 31.9445 73.3202 32.0322C71.2155 31.9445 69.1109 32.4707 67.357 33.6984C65.9539 34.7507 65.077 36.5046 65.1647 38.3461C65.1647 42.38 67.9709 44.3969 73.4955 44.3969C75.8633 44.3969 78.231 44.0462 80.511 43.3446V31.6815C80.511 26.946 77.7925 24.4906 72.5309 24.4906ZM76.1263 40.7138C75.2494 40.9769 74.2848 41.0646 73.3202 41.0646C70.6894 41.0646 69.374 40.1 69.374 38.2584C69.374 36.4169 70.7771 35.2769 73.6709 35.2769C74.4602 35.2769 75.2494 35.2769 76.0386 35.4523L76.1263 40.7138Z" fill="#FF5800"/>
<path d="M82.4402 25.0168H87.2633L91.9111 39.5738L96.6465 25.0168H101.207L94.0157 43.8708H89.6311L82.4402 25.0168Z" fill="#FF5800"/>
<path d="M109.537 24.4906C108.397 24.4906 107.345 24.5783 106.293 24.8414C105.416 25.0168 104.539 25.2799 103.75 25.7183L104.1 28.8753C104.89 28.6122 105.767 28.4368 106.643 28.3491C107.433 28.2614 108.134 28.1737 108.924 28.1737C111.817 28.1737 113.22 29.2261 113.22 31.5061V32.2076C112.256 32.0322 111.291 32.0322 110.414 32.0322C108.31 31.9445 106.205 32.4707 104.451 33.6984C103.048 34.7507 102.171 36.5046 102.259 38.3461C102.259 42.38 105.065 44.3969 110.59 44.3969C112.957 44.3969 115.325 44.0462 117.605 43.3446V31.6815C117.517 26.946 114.887 24.4906 109.537 24.4906ZM113.22 40.7138C112.344 40.9769 111.379 41.0646 110.414 41.0646C107.784 41.0646 106.468 40.1 106.468 38.2584C106.468 36.4169 107.871 35.2769 110.765 35.2769C111.554 35.2769 112.344 35.2769 113.133 35.4523L113.22 40.7138Z" fill="#FF5800"/>
<path d="M134.267 32.7338C134.267 30.9799 133.916 29.8399 133.302 29.2261C132.688 28.6122 131.461 28.2614 129.794 28.2614C129.268 28.2614 128.83 28.3491 128.391 28.4368C127.865 28.5245 127.339 28.6122 126.813 28.7876V43.9585H122.428V25.8937C123.656 25.4553 124.971 25.0168 126.287 24.8414C127.69 24.5783 129.093 24.4906 130.496 24.4906C136.021 24.4906 138.739 26.946 138.739 31.9445V43.8708H134.354L134.267 32.7338Z" fill="#FF5800"/>
<path d="M149.438 24.4906C148.298 24.4906 147.245 24.5783 146.193 24.8414C145.316 25.0168 144.439 25.2799 143.65 25.7183L144.001 28.8753C144.79 28.6122 145.667 28.4368 146.544 28.3491C147.333 28.2614 148.035 28.1737 148.824 28.1737C151.718 28.1737 153.121 29.2261 153.121 31.5061V32.2076C152.156 32.0322 151.279 32.0322 150.315 32.0322C148.21 31.9445 146.105 32.4707 144.351 33.6984C142.948 34.8384 142.071 36.5046 142.159 38.3461C142.159 42.38 144.965 44.3969 150.49 44.3969C152.858 44.3969 155.225 44.0462 157.505 43.3446V31.6815C157.418 26.946 154.699 24.4906 149.438 24.4906ZM153.033 40.7138C152.156 40.9769 151.192 41.0646 150.315 41.0646C147.684 41.0646 146.368 40.1 146.368 38.2584C146.368 36.4169 147.771 35.2769 150.665 35.2769C151.455 35.2769 152.244 35.2769 153.033 35.4523V40.7138Z" fill="#FF5800"/>
<path d="M173.729 17.7383V24.9291C172.676 24.666 171.624 24.4906 170.572 24.5783C167.941 24.4906 165.398 25.4553 163.556 27.3845C161.715 29.4014 160.75 32.0322 160.838 34.7507C160.838 37.9077 161.715 40.2754 163.469 41.9415C165.222 43.6077 167.765 44.3969 171.186 44.3969C173.553 44.3969 175.833 44.0462 178.113 43.3446V17.7383H173.729ZM173.729 40.4508C172.852 40.7138 171.975 40.8015 171.01 40.7138C167.239 40.7138 165.398 38.6969 165.398 34.5753C165.31 32.8215 165.836 31.1553 166.801 29.7522C167.853 28.6122 169.344 27.9984 170.922 28.0861C171.887 28.0861 172.852 28.2614 173.729 28.5245V40.4508Z" fill="#FF5800"/>
<path d="M198.458 33.4353C198.546 31.0676 197.844 28.6999 196.266 26.946C194.775 25.2799 192.583 24.4029 190.39 24.5783C187.935 24.4906 185.567 25.4553 183.901 27.2968C182.323 29.1384 181.533 31.5938 181.533 34.663C181.533 37.7323 182.41 40.1877 184.076 41.8538C185.743 43.52 188.198 44.3969 191.355 44.3969C193.372 44.3969 195.389 44.0462 197.23 43.3446L196.792 40.0123C195.126 40.5385 193.46 40.8015 191.706 40.8015C188.023 40.8015 186.093 39.1354 186.006 35.803H198.37L198.458 33.4353ZM186.093 32.4707C186.181 31.243 186.619 30.0153 187.409 29.0507C188.11 28.2614 189.163 27.823 190.303 27.823C191.355 27.823 192.407 28.2614 193.109 29.0507C193.898 30.0153 194.249 31.243 194.161 32.4707H186.093Z" fill="#FF5800"/>
<path d="M18.2506 16.9486C16.7599 19.8424 15.5322 22.2102 14.6552 23.8763C13.866 25.3671 13.0768 26.7702 12.1121 28.0856C11.4106 29.0502 10.6213 29.9271 9.65673 30.7164C8.60441 31.5056 7.4644 32.2948 6.32439 32.9964L5.53516 31.8564C6.32439 31.2425 7.11363 30.6287 7.81517 30.0148C8.60441 29.2256 9.39365 28.3487 10.0075 27.4717C10.9721 26.0686 11.8491 24.5779 12.726 23.0871C13.7783 21.3332 15.006 18.8778 16.4968 15.8086C17.3737 13.8793 18.426 12.1255 19.566 10.3716C20.3553 9.1439 21.3199 8.00389 22.3722 7.03927C23.1614 6.33772 24.0384 5.72387 25.003 5.3731C26.5815 4.67156 28.3353 4.67156 29.9138 5.46079C30.9661 5.98695 31.843 6.77619 32.5446 7.65312C33.7723 9.1439 34.8246 10.7224 35.7892 12.3885C37.0169 14.4055 38.42 17.124 39.9985 20.544C40.8754 22.3855 41.84 24.2271 42.9801 25.9809C43.7693 27.2963 44.7339 28.524 45.7862 29.5764C46.7509 30.541 47.8032 31.2425 48.9432 31.8564C50.2586 32.4702 51.574 32.9964 52.8894 33.4349L53.854 35.0133C52.1878 34.8379 50.6093 34.4872 49.0309 33.961C47.6278 33.4349 46.2247 32.6456 45.0847 31.681C43.7693 30.4533 42.5416 29.1379 41.577 27.6471C40.2616 25.6302 39.1216 23.6132 38.0692 21.4209C36.5785 18.4394 35.2631 15.984 34.2985 14.0547C33.5092 12.5639 32.5446 11.0731 31.4923 9.67006C30.8784 8.79313 30.1769 8.09158 29.2999 7.56543C28.6861 7.21465 28.0722 7.03927 27.3707 6.95158C26.6692 6.95158 25.9676 7.03927 25.3538 7.39004C24.5645 7.82851 23.863 8.35466 23.2491 8.96851C22.3722 9.93314 21.583 10.9855 20.9691 12.0378C20.0922 13.3532 19.2153 15.0193 18.2506 16.9486Z" fill="url(#paint0_linear_0_7027)"/>
<path d="M40.437 35.9779C42.6293 36.0656 44.8216 35.9779 46.9262 35.6272C48.8555 35.3641 50.7847 34.9256 52.6263 34.3118L52.8894 35.4518C49.8201 37.381 45.6985 38.1703 40.3493 37.9949C38.2446 37.9072 36.14 37.6441 34.0354 37.118C32.4569 36.6795 30.8784 36.1533 29.3876 35.4518C28.3353 35.0133 27.3707 34.5749 26.4061 34.0487C25.5292 33.5225 24.5645 33.0841 23.5999 32.6456C22.6353 32.2072 21.6707 31.8564 20.6183 31.5933C19.566 31.3302 18.5137 31.1548 17.4614 31.0671C15.7075 30.9794 14.0414 31.1548 12.3752 31.4179C10.6213 31.7687 8.95518 32.2071 7.28902 32.821L6.58747 31.9441L7.99056 31.2425C9.39365 30.4533 10.9721 29.8394 12.5506 29.4887C14.2168 29.0502 15.8829 28.8748 17.6368 28.9625C18.8645 28.9625 20.0922 29.1379 21.2322 29.4887C22.2845 29.7517 23.3368 30.1902 24.3015 30.6287C25.2661 31.0671 26.2307 31.5933 27.283 32.1195C28.3353 32.6456 29.3 33.1718 30.3523 33.6102C31.7554 34.2241 33.2461 34.7502 34.7369 35.1887C36.4908 35.6272 38.42 35.8903 40.437 35.9779Z" fill="url(#paint1_linear_0_7027)"/>
<path d="M43.5062 20.0178C42.717 20.0178 41.9277 20.1932 41.3139 20.544C40.3493 21.1578 39.56 21.8594 38.8585 22.7363C37.7185 24.1394 36.5785 25.6302 35.6138 27.121C34.3861 28.9625 32.8077 31.3302 31.0538 34.3118C28.5984 38.258 26.2307 41.1518 24.1261 42.9057C22.2845 44.5719 19.9168 45.4488 17.4614 45.4488C15.006 45.3611 12.6383 44.1334 10.5337 41.7657C8.07825 38.8718 6.41209 35.5395 5.53516 31.8564L7.55209 32.2072C8.42902 35.101 9.9198 37.8195 11.8491 40.1872C13.6029 42.2041 15.4445 43.1688 17.3737 43.2565C19.3906 43.2565 21.4076 42.3795 22.8984 40.9764C25.3538 38.6964 27.3707 36.0656 29.0369 33.1718C31.0538 29.9271 32.72 27.2963 34.1231 25.2794C35.1754 23.6132 36.4031 22.0348 37.7185 20.544C38.5077 19.5794 39.4723 18.8778 40.6123 18.264C41.4893 17.9132 42.5416 17.7378 43.5062 17.7378C45.8739 17.8255 47.8909 19.2286 49.7324 21.9471C51.574 24.6656 53.1524 28.7871 54.5555 34.3995L52.4509 33.6102C51.4863 30.0148 50.0832 26.5948 48.2416 23.4379C46.7509 21.2455 45.1724 20.1055 43.5062 20.0178Z" fill="url(#paint2_linear_0_7027)"/>
<path d="M35.6138 51.4119C36.7539 51.4119 37.8939 51.0611 38.8585 50.3596C40.437 49.0442 41.7523 47.6411 42.8924 45.9749C44.1201 44.3088 45.1724 42.9934 46.0493 41.8534C46.8385 40.8011 47.6278 39.8364 48.417 38.9595C49.2063 38.0826 49.9078 37.381 50.6093 36.5918C51.3109 35.8026 52.2755 34.9256 53.4155 33.7856L54.7309 34.4872C53.6786 35.6272 52.8017 36.6795 52.1001 37.4687C51.3986 38.258 50.697 39.1349 49.9955 40.0118C49.2939 40.8888 48.5924 41.8534 47.7155 42.9057L44.5585 47.0273C43.2431 48.8688 41.6647 50.535 39.9108 52.0258C38.5954 52.9904 37.1046 53.4288 35.4385 53.4288C34.6492 53.4288 33.86 53.2535 33.0707 52.9904C32.1938 52.6396 31.3169 52.1135 30.6153 51.4996C29.4753 50.535 28.3353 49.4827 27.3707 48.3427C26.143 46.9396 24.5645 45.1857 22.6353 42.9934C21.1445 41.3272 19.8291 39.9241 18.6891 38.7841C17.6368 37.7318 16.4091 36.8549 15.1814 36.0656C14.0414 35.3641 12.8137 34.8379 11.4983 34.4872C10.0075 34.0487 8.51672 33.7856 7.02594 33.6102L7.55209 32.0318C9.13057 32.1195 10.709 32.3825 12.2875 32.7333C13.6906 32.9964 15.006 33.5225 16.2337 34.2241C17.5491 35.0133 18.8645 35.8903 20.0045 37.0303C21.4953 38.4334 22.8984 39.9241 24.2138 41.4149C26.143 43.6072 27.7215 45.3611 28.9492 46.6765C30.1769 47.9919 31.1415 48.9565 31.9307 49.6581C32.5446 50.1842 33.2461 50.7104 33.9477 51.0611C34.4738 51.3242 35 51.4119 35.6138 51.4119Z" fill="url(#paint3_linear_0_7027)"/>
<defs>
<linearGradient id="paint0_linear_0_7027" x1="4.86793" y1="44.404" x2="51.855" y2="36.4467" gradientUnits="userSpaceOnUse">
<stop offset="0.2" stop-color="#FF5800"/>
<stop offset="0.24" stop-color="#FF7000"/>
<stop offset="0.32" stop-color="#FF9500"/>
<stop offset="0.4" stop-color="#FFB200"/>
<stop offset="0.47" stop-color="#FFC600"/>
<stop offset="0.55" stop-color="#FFD300"/>
<stop offset="0.62" stop-color="#FFD700"/>
<stop offset="0.66" stop-color="#FFCE00"/>
<stop offset="0.72" stop-color="#FFB600"/>
<stop offset="0.81" stop-color="#FF8E00"/>
<stop offset="0.9" stop-color="#FF5800"/>
</linearGradient>
<linearGradient id="paint1_linear_0_7027" x1="5.40471" y1="29.1433" x2="54.7123" y2="29.1433" gradientUnits="userSpaceOnUse">
<stop offset="0.09" stop-color="#FF5800"/>
<stop offset="0.19" stop-color="#FF7907"/>
<stop offset="0.31" stop-color="#FF990E"/>
<stop offset="0.4" stop-color="#FFAD12"/>
<stop offset="0.47" stop-color="#FFB414"/>
<stop offset="0.53" stop-color="#FFAD12"/>
<stop offset="0.62" stop-color="#FF980E"/>
<stop offset="0.73" stop-color="#FF7707"/>
<stop offset="0.82" stop-color="#FF5800"/>
</linearGradient>
<linearGradient id="paint2_linear_0_7027" x1="6.66815" y1="20.2941" x2="55.7689" y2="26.2694" gradientUnits="userSpaceOnUse">
<stop offset="0.5" stop-color="#FF5800"/>
<stop offset="0.64" stop-color="#CE056A" stop-opacity="0.99"/>
<stop offset="0.76" stop-color="#CF0768" stop-opacity="0.99"/>
<stop offset="0.81" stop-color="#D20D60" stop-opacity="0.99"/>
<stop offset="0.85" stop-color="#D81753" stop-opacity="0.99"/>
<stop offset="0.88" stop-color="#E12541" stop-opacity="0.99"/>
<stop offset="0.91" stop-color="#EC3829"/>
<stop offset="0.94" stop-color="#F94E0C"/>
<stop offset="0.95" stop-color="#FF5800"/>
</linearGradient>
<linearGradient id="paint3_linear_0_7027" x1="7.12588" y1="33.3649" x2="55.8966" y2="30.2522" gradientUnits="userSpaceOnUse">
<stop stop-color="#FF5800"/>
<stop offset="0.06" stop-color="#FC5400"/>
<stop offset="0.13" stop-color="#F54700"/>
<stop offset="0.19" stop-color="#E83300"/>
<stop offset="0.26" stop-color="#D61600"/>
<stop offset="0.3" stop-color="#C80000"/>
<stop offset="0.48" stop-color="#C80000"/>
<stop offset="0.91" stop-color="#FF5800"/>
</linearGradient>
</defs>
</svg>
