<svg width="255" height="47" viewBox="0 0 255 47" fill="none" xmlns="http://www.w3.org/2000/svg">
<path d="M23.1482 21.3926C24.4222 19.8639 26.5242 18.1441 30.2951 18.1441C32.9703 18.1441 34.7284 18.9339 35.8238 20.1569C37.136 21.6474 37.6712 23.0998 37.6712 27.6985V39.5462H32.6645V28.9725C32.6645 25.2017 32.3971 22.5646 28.6262 22.5646C25.5051 22.5646 24.1036 24.9724 24.1036 28.3611V39.5462H19.0971V28.9725C19.0971 25.2017 18.8296 22.5646 15.0587 22.5646C11.9885 22.5646 10.5363 24.9724 10.5363 28.3611V39.5462H5.55518V18.6536H10.5617V21.3289C11.5682 19.5709 13.8103 18.1313 17.097 18.1313C19.25 18.1313 21.0462 18.7938 22.2692 20.1441C22.6259 20.5518 22.8807 20.9467 23.1482 21.3926ZM61.01 34.8198C60.0928 36.2722 57.2773 40.0812 51.1752 40.0812C44.9838 40.0812 40.7799 35.6862 40.7799 28.9342C40.7799 22.488 45.2131 18.1822 51.0478 18.1822C57.7104 18.1822 60.9206 22.7939 60.9206 29.2018C60.9206 29.5585 60.8698 30.119 60.8698 30.4757H45.659C46.0157 33.3294 47.761 35.7881 51.4553 35.7881C55.2262 35.7881 56.8951 33.24 57.5575 32.1954L61.01 34.8198ZM45.7864 26.7431H55.9652C55.8377 24.0168 53.8632 22.1824 51.0478 22.1824C48.1941 22.1824 45.9138 24.2461 45.7864 26.7431ZM81.7238 21.3926C82.9977 19.8639 85.0997 18.1441 88.8706 18.1441C91.5458 18.1441 93.3039 18.9339 94.3995 20.1569C95.7115 21.6474 96.2467 23.0998 96.2467 27.6985V39.5462H91.24V28.9725C91.24 25.2017 90.9726 22.5646 87.2017 22.5646C84.0806 22.5646 82.6793 24.9724 82.6793 28.3611V39.5462H77.6726V28.9725C77.6726 25.2017 77.4052 22.5646 73.6343 22.5646C70.5641 22.5646 69.1119 24.9724 69.1119 28.3611V39.5462H64.1052V18.6536H69.1246V21.3289C70.131 19.5709 72.3731 18.1313 75.6599 18.1313C77.8127 18.1313 79.6091 18.7938 80.8319 20.1441C81.1886 20.5518 81.4562 20.9467 81.7238 21.3926ZM120.77 16.8829C118.617 14.8192 115.815 13.4815 112.681 13.4815C109.789 13.4815 107.764 14.679 107.764 16.6536C107.764 18.6792 109.19 19.5073 112.031 20.055L117.089 21.0615C122.872 22.2081 126.503 24.5138 126.503 30.0172C126.503 36.4889 120.757 40.0813 113.356 40.0813C106.145 40.0813 101.177 36.2213 99.2535 33.5588L104.082 29.4185C106.005 31.9918 109.228 34.2848 113.547 34.2848C117.178 34.2848 119.293 32.8582 119.293 30.565C119.293 28.3994 117.458 27.8006 114.604 27.3037L110.566 26.5267C104.872 25.4183 100.553 23.3546 100.553 17.2397C100.553 11.6343 105.751 7.73608 112.592 7.73608C118.108 7.73608 122.516 9.79987 125.178 12.6535L120.77 16.8829ZM171.613 8.29634V33.2781H184.11V39.5205H164.67V8.29634H171.613ZM159.078 35.9282C158.365 35.2148 157.307 34.6035 155.804 34.1574C157.766 31.4441 158.811 27.877 158.811 23.7749C158.811 14.2586 152.989 7.74881 143.829 7.74881C134.682 7.74881 128.848 14.2586 128.848 23.7749C128.848 33.1766 134.325 39.801 143.956 39.801C152.161 39.801 156.836 39.4698 160.199 41.5208C160.76 39.5717 160.53 37.3806 159.078 35.9282ZM143.816 33.8645C138.593 33.8645 135.803 30.1319 135.803 23.7366C135.803 17.3415 138.682 13.4688 143.816 13.4688C148.95 13.4688 151.829 17.3415 151.829 23.7366C151.829 30.1319 149.039 33.8645 143.816 33.8645Z" fill="black"/>
<path d="M210.879 6.81547C209.587 5.14099 208.099 4.07758 206.314 3.86694C206.1 3.87187 205.888 3.88854 205.676 3.92188C199.209 4.94513 195.681 14.0638 195.516 23.1826C195.681 32.3013 199.209 41.42 205.678 42.4432C205.888 42.4766 206.1 42.4933 206.314 42.4982C208.099 42.2876 209.587 41.2237 210.879 39.5496C207.491 35.8082 205.851 29.1989 205.741 23.1826C205.851 17.1662 207.489 10.5569 210.879 6.81547Z" fill="url(#paint0_linear_0_8933)"/>
<path d="M239.283 3.92122C239.072 3.88788 238.86 3.87121 238.646 3.86629C238.605 3.86553 238.564 3.86401 238.522 3.86401C237.232 3.86401 230.324 3.86477 228.754 3.86401C228.703 3.86401 228.651 3.86553 228.599 3.86705C229.805 3.98411 230.914 4.37242 231.92 4.99145C232.707 5.47523 233.426 6.09161 234.082 6.81482C237.471 10.5563 239.11 17.1655 239.22 23.1818C239.11 29.1983 237.471 35.8076 234.082 39.549C233.426 40.2718 232.707 40.8885 231.92 41.3725C230.914 41.9914 229.805 42.3797 228.599 42.4969C228.651 42.4983 228.703 42.4998 228.754 42.4998C230.324 42.499 237.232 42.4998 238.522 42.4998C238.564 42.4998 238.605 42.4987 238.646 42.4976C238.86 42.4926 239.072 42.476 239.283 42.4426C245.752 41.419 249.281 32.3007 249.445 23.1818C249.281 14.0632 245.752 4.94447 239.283 3.92122Z" fill="url(#paint1_linear_0_8933)"/>
<path d="M225.575 36.9012C225.111 37.8884 224.638 38.7716 224.15 39.5617C224.067 39.6944 224.081 39.8645 224.182 39.983C225.267 41.2587 226.5 42.1274 227.922 42.4197C228.144 42.4656 228.373 42.4895 228.599 42.497C229.805 42.38 230.914 41.9917 231.92 41.3726C232.707 40.8889 233.426 40.2725 234.082 39.5493C232.066 36.9372 230.527 32.8392 229.081 28.1765C229.027 28.0075 228.788 28.0079 228.737 28.1775C227.808 31.2643 226.8 34.2884 225.575 36.9012Z" fill="url(#paint2_linear_0_8933)"/>
<path d="M210.879 6.8147C212.895 9.42681 214.433 13.5247 215.88 18.1875C215.932 18.3565 216.173 18.3561 216.223 18.1864C217.152 15.0996 218.16 12.0757 219.386 9.46281C219.85 8.47555 220.322 7.59247 220.813 6.80219C220.894 6.66999 220.881 6.4995 220.779 6.38131C219.693 5.10537 218.462 4.23668 217.039 3.94422C216.814 3.898 216.586 3.87413 216.356 3.86656C216.306 3.86504 216.255 3.8639 216.205 3.8639C214.636 3.86428 207.729 3.8639 206.438 3.86353C206.397 3.86353 206.356 3.86466 206.314 3.8658C208.099 4.07681 209.587 5.14022 210.879 6.8147Z" fill="url(#paint3_linear_0_8933)"/>
<path d="M231.92 4.99135C230.914 4.37232 229.805 3.98401 228.599 3.86694C228.373 3.87414 228.145 3.89801 227.922 3.94423C222.47 5.06446 219.83 14.6488 217.361 23.1819C215.44 29.832 213.591 36.0352 210.879 39.5489C209.587 41.223 208.099 42.2868 206.314 42.4975C206.356 42.4982 206.397 42.4998 206.438 42.4998C207.729 42.4998 214.636 42.4989 216.205 42.4998C216.257 42.4998 216.309 42.4982 216.36 42.4967C216.588 42.4896 216.814 42.4657 217.039 42.4195C222.491 41.2988 225.131 31.7146 227.598 23.1815C229.519 16.5312 231.369 10.3281 234.082 6.81434C233.426 6.0915 232.707 5.47512 231.92 4.99135Z" fill="url(#paint4_linear_0_8933)"/>
<defs>
<linearGradient id="paint0_linear_0_8933" x1="203.196" y1="3.7646" x2="203.196" y2="42.5194" gradientUnits="userSpaceOnUse">
<stop stop-color="#FF7BFF"/>
<stop offset="0.072" stop-color="#F46BFF"/>
<stop offset="0.266" stop-color="#D945FF"/>
<stop offset="0.458" stop-color="#C527FF"/>
<stop offset="0.646" stop-color="#B611FF"/>
<stop offset="0.829" stop-color="#AD04FF"/>
<stop offset="1" stop-color="#AA00FF"/>
</linearGradient>
<linearGradient id="paint1_linear_0_8933" x1="239.026" y1="3.86178" x2="239.026" y2="42.6094" gradientUnits="userSpaceOnUse">
<stop stop-color="#FF7BFF"/>
<stop offset="0.072" stop-color="#F46BFF"/>
<stop offset="0.266" stop-color="#D945FF"/>
<stop offset="0.458" stop-color="#C527FF"/>
<stop offset="0.646" stop-color="#B611FF"/>
<stop offset="0.829" stop-color="#AD04FF"/>
<stop offset="1" stop-color="#AA00FF"/>
</linearGradient>
<linearGradient id="paint2_linear_0_8933" x1="229.086" y1="42.3432" x2="229.086" y2="3.88671" gradientUnits="userSpaceOnUse">
<stop stop-color="#FF7BFF"/>
<stop offset="0.072" stop-color="#F46BFF"/>
<stop offset="0.266" stop-color="#D945FF"/>
<stop offset="0.458" stop-color="#C527FF"/>
<stop offset="0.646" stop-color="#B611FF"/>
<stop offset="0.829" stop-color="#AD04FF"/>
<stop offset="1" stop-color="#AA00FF"/>
</linearGradient>
<linearGradient id="paint3_linear_0_8933" x1="213.585" y1="42.4763" x2="213.585" y2="3.84196" gradientUnits="userSpaceOnUse">
<stop stop-color="#FF7BFF"/>
<stop offset="0.072" stop-color="#F46BFF"/>
<stop offset="0.266" stop-color="#D945FF"/>
<stop offset="0.458" stop-color="#C527FF"/>
<stop offset="0.646" stop-color="#B611FF"/>
<stop offset="0.829" stop-color="#AD04FF"/>
<stop offset="1" stop-color="#AA00FF"/>
</linearGradient>
<linearGradient id="paint4_linear_0_8933" x1="220.195" y1="42.505" x2="220.195" y2="3.82929" gradientUnits="userSpaceOnUse">
<stop stop-color="#FF7BFF"/>
<stop offset="0.072" stop-color="#F46BFF"/>
<stop offset="0.266" stop-color="#D945FF"/>
<stop offset="0.458" stop-color="#C527FF"/>
<stop offset="0.646" stop-color="#B611FF"/>
<stop offset="0.829" stop-color="#AD04FF"/>
<stop offset="1" stop-color="#AA00FF"/>
</linearGradient>
</defs>
</svg>
