<svg width="199" height="60" viewBox="0 0 199 60" fill="none" xmlns="http://www.w3.org/2000/svg">
<path d="M53.9002 9.37793H29.3636L25.964 14.6991L43.7013 25.6371L53.9002 9.37793Z" fill="#00B5DE"/>
<path d="M25.9643 14.6989L9.55725 4.5V29.0366L15.3219 32.2884L43.7016 25.6369L25.9643 14.6989Z" fill="#00DECC"/>
<path d="M49.0225 30.6627L43.7013 27.4109L32.7633 45.0004L49.0225 55.1993V30.6627Z" fill="#FF5529"/>
<path d="M43.7015 27.4109L15.174 34.2102L4.9751 50.1738H29.5117L32.7635 45.0004L43.7015 27.4109Z" fill="#FF9640"/>
<path d="M119.528 17.5068C127.658 17.5068 133.718 23.1236 133.718 30.9576C133.718 38.7916 127.658 44.4084 119.528 44.4084C111.399 44.4084 105.339 38.6438 105.339 30.9576C105.339 23.2715 111.399 17.5068 119.528 17.5068ZM75.1852 17.9503L84.7929 34.0616L94.4006 17.9503H99.2784L99.4262 43.8172H93.6616V28.4448L85.9754 41.3044H83.3148L75.7765 28.8883V44.1128H70.1597V17.9503H75.1852ZM175.105 18.0981L181.018 26.5233L186.93 18.0981H193.434L184.417 30.662L194.025 44.1128H187.226V43.965L181.018 34.9485L174.81 43.965H167.863L177.47 30.8098L168.306 18.0981H175.105ZM151.603 17.9503C160.029 17.9503 165.941 23.1236 165.941 30.9576C165.941 38.7916 160.176 43.965 151.603 43.965H139.779V17.9503H151.603ZM119.528 22.6802C114.946 22.6802 111.399 26.0799 111.399 30.9576C111.399 35.8354 114.946 39.235 119.528 39.235C124.111 39.235 127.658 35.8354 127.658 30.9576C127.658 26.0799 124.111 22.6802 119.528 22.6802ZM151.308 22.9758H145.839V39.0872H151.308V38.9394C156.481 38.9394 159.881 35.8354 159.881 30.9576C159.881 25.9321 156.481 22.9758 151.308 22.9758Z" fill="#102C53"/>
</svg>
