<svg width="222" height="54" viewBox="0 0 222 54" fill="none" xmlns="http://www.w3.org/2000/svg">
<path d="M53.5396 4.44044C52.7585 4.44251 51.7423 4.67917 50.4058 5.14092C44.7649 7.08894 39.7306 10.3497 35.1287 15.0332L31.9216 18.8181L33.158 20.5877C35.2772 23.579 37.4943 28.6476 38.532 32.9131C39.1689 35.3617 39.4188 36.8752 39.5233 39.4016C39.541 39.8262 39.5621 40.2741 39.5724 40.7656C39.5838 41.2532 39.5923 41.779 39.5972 42.3508C39.6201 45.3787 39.6571 48.8394 39.3401 48.8394H54.4581L55.3151 47.9667C55.8483 47.2026 55.9274 44.5041 55.9274 26.4733C55.9274 7.83341 55.8645 5.7778 55.279 5.12791C54.866 4.67153 54.321 4.43858 53.5396 4.44044Z" fill="#A4CE4E"/>
<path d="M10.2302 4.4405C9.47148 4.4277 8.91948 4.63318 8.45483 5.05487C7.7783 5.66945 7.74506 6.85275 7.74506 26.4002C7.74506 44.4926 7.82374 47.2026 8.35736 47.9671L8.96966 48.8396H24.002C35.607 48.8396 39.1051 48.7275 39.3401 48.3481C39.5074 48.078 39.6206 45.3791 39.597 42.3511C39.5619 37.7754 39.3823 36.182 38.5321 32.9135C36.6716 25.7621 33.1669 19.3152 28.1204 14.5102C23.7312 10.3308 18.6796 7.01073 13.2661 5.14078C11.9579 4.68976 10.9883 4.45372 10.23 4.44092L10.2302 4.4405Z" fill="#0192D5"/>
<path d="M31.9224 18.8171L30.9671 19.9734C29.2704 22.0492 26.175 28.932 25.1402 32.9257C24.2941 36.1907 24.1174 37.7808 24.0876 42.3756C24.0676 45.4128 24.0139 48.8398 24.3199 48.8398H39.3401C39.6569 48.8398 39.6205 45.3793 39.597 42.3513C39.5619 37.7756 39.3302 36.1956 38.532 32.9137C37.4943 28.6479 35.2821 23.5828 33.1629 20.5915L31.9224 18.8171Z" fill="#0065A5"/>
<path d="M189.43 11.4946C187.317 11.4981 185.257 12.2381 183.787 13.5343C182.035 15.0782 181.393 16.3495 181.057 18.8923L180.787 20.9198H177.752V26.0319H180.885V33.6388C180.885 37.82 180.999 41.3591 181.142 41.5035C181.286 41.6478 182.696 41.7616 184.276 41.7616H187.153V26.0317H191.854V20.9198H187.153V19.6173C187.153 17.7023 188.601 16.4612 190.556 16.6925C191.378 16.7896 192.329 16.9934 192.674 17.147C193.138 17.354 193.615 16.9331 194.522 15.5371L195.758 13.6444L194.877 12.9807C193.848 12.1962 191.255 11.4915 189.43 11.4946H189.43ZM171.032 11.5312C167.969 11.6908 166.441 16.3216 169.465 17.9706C170.992 18.8035 172.057 18.681 173.406 17.5402C174.374 16.7227 174.618 16.219 174.618 14.9843C174.618 13.2485 173.688 12.0613 172.023 11.6417C171.676 11.5549 171.349 11.5151 171.032 11.5312ZM99.7996 12.2443L96.6169 12.3545L93.4463 12.4652L89.9334 18.9536C88.0017 22.5221 86.2951 25.5661 86.1507 25.7127C86.0062 25.8589 84.2188 22.8963 82.1721 19.1258L78.4508 12.2688L75.317 12.3671L72.1832 12.4654L71.7303 22.4932C71.4835 28.0082 71.1686 34.6003 71.0327 37.1414L70.788 41.7618H76.9575L77.2144 36.748C77.3548 33.9902 77.4942 30.2301 77.5204 28.3917C77.6117 22.043 77.647 22.0465 81.1806 28.3426L84.3022 33.8971H87.5951L90.6679 28.0968L93.7284 22.2966L94.0221 29.1781C94.1831 32.9631 94.4217 37.3431 94.5487 38.911L94.769 41.7623H100.975L100.963 39.8944C100.959 38.8672 100.702 32.8063 100.388 26.4258C100.074 20.0456 99.8176 14.247 99.8124 13.5352L99.7996 12.2441V12.2443ZM146.023 12.2691V26.757C146.023 34.7233 146.136 41.3594 146.28 41.5035C146.423 41.6478 150.742 41.7616 155.877 41.7616H165.217V36.2561H152.681V12.2684H146.023V12.2691ZM129.57 15.39V20.8832L127.905 20.9937L126.241 21.1168V25.8358L127.905 25.9588L129.57 26.0819L129.583 31.2678C129.605 38.15 130.287 40.0775 133.218 41.5287C135.246 42.5325 139.396 42.3572 141.726 41.172L143.66 40.1891L142.485 38.2718L141.31 36.3548L139.608 36.9817C138.028 37.5523 137.817 37.5451 136.866 36.9204C135.844 36.2474 135.838 36.2187 135.838 31.1443V26.0324H140.93V20.9202H135.875L135.752 18.2659L135.641 15.6114L132.606 15.5009L129.57 15.39H129.57ZM114.269 20.4407C110.007 20.4675 106.643 22.6235 104.929 26.4253C103.75 29.0402 103.798 33.8153 105.039 36.4896C106.087 38.7501 108.231 40.6985 110.56 41.5285C114.046 42.7709 120.2 42.0733 122.997 40.1149L124.062 39.3777L122.874 37.4485L121.699 35.5314L119.668 36.4774C117.502 37.4893 114.71 37.7324 112.935 37.0553C111.614 36.551 109.985 34.7799 109.985 33.8479C109.985 33.164 110.436 33.1107 117.232 33.1107H124.478V31.218C124.478 24.7768 120.329 20.4027 114.269 20.4409V20.4407ZM114.318 25.221C115.526 25.2014 116.658 25.6041 117.451 26.4008C118.081 27.0331 118.602 27.9178 118.602 28.367C118.602 29.1445 118.394 29.1781 114.293 29.1781C111.546 29.1781 109.984 29.0358 109.984 28.7728C109.984 27.8439 111.165 26.1651 112.127 25.7253C112.84 25.3988 113.593 25.2327 114.318 25.221H114.318ZM204.107 20.4652C197.999 20.4652 193.948 24.2306 193.519 30.321C193.163 35.3662 194.997 38.9506 198.966 40.9629C201.338 42.1658 201.626 42.2143 205.185 42.0811C208.304 41.9644 209.288 41.7583 211.158 40.84C212.39 40.2349 213.399 39.6096 213.399 39.4516C213.399 39.2936 212.875 38.3379 212.236 37.3258L211.073 35.4827L209.677 36.3182C207.811 37.4231 203.783 37.7617 202.21 36.9448C200.817 36.2216 199.877 35.1839 199.516 33.9954L199.247 33.1107H214.255L213.985 31.0456C213.064 23.8307 209.924 20.4655 204.108 20.4655L204.107 20.4652ZM203.802 25.246C205.171 25.246 205.802 25.481 206.703 26.3273C207.336 26.9222 207.971 27.8067 208.11 28.2932C208.363 29.1746 208.342 29.1781 203.802 29.1781C199.261 29.1781 199.241 29.1746 199.493 28.2934C199.632 27.8069 200.267 26.9222 200.9 26.3273C201.801 25.481 202.432 25.2458 203.802 25.2458V25.246ZM174.227 20.8954L171.191 21.0059L168.155 21.1164L168.045 30.9473C167.987 36.3504 168.026 40.9955 168.131 41.2699C168.261 41.6117 169.255 41.7614 171.277 41.7614H174.227V20.8954Z" fill="black"/>
</svg>
