<svg width="172" height="69" viewBox="0 0 172 69" fill="none" xmlns="http://www.w3.org/2000/svg">
<path d="M31.4397 28.842C20.8675 13.9542 20.8675 7.78989 20.8675 7.78989C20.8675 7.78989 20.8675 13.9871 10.2823 28.8749C-2.21747 46.5193 6.59812 60.8479 20.8675 60.8479C35.137 60.8479 43.9789 46.4864 31.4397 28.842Z" fill="#CC0000"/>
<path d="M167.279 14.6912C166.796 14.8727 166.281 14.9511 165.766 14.9215H162.529C161.871 14.9215 161.615 15.1451 161.615 15.7372V16.8754L161.983 16.6714C162.269 16.4958 162.595 16.3983 162.93 16.3885C163.131 16.3651 163.334 16.3883 163.525 16.4561C163.715 16.5239 163.887 16.6346 164.028 16.7797C164.168 16.9247 164.274 17.1002 164.335 17.2925C164.397 17.4848 164.414 17.6887 164.384 17.8885C164.384 19.8621 162.707 21.3029 160.391 21.3029C158.075 21.3029 156.582 19.9477 156.582 17.8425C156.582 15.9478 157.819 14.7833 159.871 14.7175H159.977L160.634 13.1715L160.207 13.2505C159.854 13.3359 159.487 13.3473 159.129 13.2839C158.771 13.2205 158.43 13.0837 158.128 12.882C157.967 12.7467 157.84 12.5757 157.757 12.3828C157.673 12.1898 157.636 11.9801 157.648 11.7702C157.648 10.6189 158.602 9.84921 160.036 9.84921C160.61 9.81413 161.177 9.99217 161.628 10.3492L161.917 10.5926L162.305 9.40844C162.343 9.30972 162.363 9.205 162.365 9.09923C162.365 8.59924 161.246 8.29004 160.213 8.29004C157.733 8.29004 155.937 9.79001 155.937 11.8623C155.921 12.2935 156.019 12.7212 156.221 13.1023C156.424 13.4835 156.723 13.8046 157.088 14.0333C156.381 14.3811 155.786 14.9221 155.372 15.5938C154.959 16.2656 154.744 17.0406 154.753 17.8293C154.753 20.7371 157.069 22.8555 160.259 22.8555C163.615 22.8555 166.055 20.77 166.055 17.8951C166.068 17.3862 165.936 16.8843 165.674 16.4478H166.042C166.7 16.4478 167.174 16.4478 167.358 15.7504L167.7 14.5333L167.279 14.6912Z" fill="#5E5F61"/>
<path d="M47.7357 22.7371V8.61898H49.4988V21.1713H56.0776V22.7371H47.7357Z" fill="#5E5F61"/>
<path d="M56.1302 22.8094H47.6633V8.54661H49.5712V21.1187H56.15L56.1302 22.8094ZM47.808 22.6647H55.9986V21.2437H49.4198V8.69135H47.808V22.6647Z" fill="#5E5F61"/>
<path d="M59.4657 22.7371V8.61898H68.7155V10.1847H61.2222V14.7373H68.5641V16.303H61.2222V21.1713H68.7155V22.7371H59.4657Z" fill="#5E5F61"/>
<path d="M68.7878 22.8094H59.3933V8.54661H68.7878V10.2571H61.2946V14.6649H68.6431V16.3754H61.2946V21.1187H68.7878V22.8094ZM59.538 22.6647H68.6431V21.2437H61.1498V16.2306H68.4984V14.8096H61.1498V10.1124H68.6431V8.69135H59.538V22.6647Z" fill="#5E5F61"/>
<path d="M71.8272 17.2569V8.61898H73.6035V17.2109C73.6035 19.7964 74.9785 21.4279 77.5508 21.4279C80.1231 21.4279 81.5507 19.7964 81.5507 17.2109V8.61898H83.327V17.2372C83.327 20.7503 81.3533 22.9937 77.5508 22.9937C73.7482 22.9937 71.8272 20.7305 71.8272 17.2569Z" fill="#5E5F61"/>
<path d="M77.5837 23.0923C73.8798 23.0923 71.7549 20.974 71.7549 17.2833V8.54661H73.6759V17.2109C73.6759 19.8424 75.1035 21.3555 77.5837 21.3555C80.0639 21.3555 81.531 19.8424 81.531 17.2109V8.54661H83.452V17.2372C83.4322 20.9411 81.3007 23.0923 77.5837 23.0923ZM71.8996 8.71766V17.2701C71.8996 20.8687 73.9719 22.9344 77.5837 22.9344C81.1954 22.9344 83.2875 20.8621 83.2875 17.2504V8.69792H81.656V17.2504C81.656 19.9345 80.1362 21.5397 77.5837 21.5397C75.0311 21.5397 73.5311 19.974 73.5311 17.2504V8.69792L71.8996 8.71766Z" fill="#5E5F61"/>
<path d="M95.3004 22.7371L89.9452 16.3885L88.5242 18.0003V22.7371H86.7677V8.61898H88.5242V15.9017L94.7675 8.61898H96.9714L91.09 15.3096L97.4977 22.7371H95.3004Z" fill="#5E5F61"/>
<path d="M97.6622 22.8094H95.2675L89.9452 16.5135L88.6295 18.0398V22.8226H86.7282V8.54661H88.6295V15.7043L94.7675 8.54661H97.1622L91.2413 15.3096L97.6622 22.8094ZM95.3333 22.6647H97.3398L90.9913 15.3096L91.0307 15.2636L96.8135 8.68477H94.8136L88.465 16.0925V8.69135H86.8532V22.6647H88.465V17.9675L89.9387 16.2964L89.9913 16.3622L95.3333 22.6647Z" fill="#5E5F61"/>
<path d="M100.123 22.7371V8.61898H109.372V10.1847H101.879V14.7373H109.228V16.303H101.879V21.1713H109.372V22.7371H100.123Z" fill="#5E5F61"/>
<path d="M109.445 22.8094H100.077V8.54661H109.471V10.2571H101.952V14.6649H109.287V16.3754H101.952V21.1187H109.445V22.8094ZM100.195 22.6647H109.287V21.2437H101.807V16.2306H109.155V14.8096H101.807V10.1124H109.287V8.69135H100.195V22.6647Z" fill="#5E5F61"/>
<path d="M124.971 22.7371V10.8623L120.188 22.7371H119.471L114.662 10.8623V22.7371H112.905V8.61898H115.425L119.813 19.5003L124.214 8.61898H126.734V22.7371H124.971Z" fill="#5E5F61"/>
<path d="M126.806 22.8094H124.898V11.2505L120.241 22.8226H119.418V22.7766L114.734 11.2505V22.8094H112.833V8.54661H115.464V8.59266L119.813 19.3029L124.148 8.54661H126.78L126.806 22.8094ZM125.076 22.6647H126.688V8.69135H124.287L119.813 19.6977L115.366 8.69135H112.964V22.6647H114.576V10.4874L119.504 22.6647H120.129L125.076 10.4874V22.6647Z" fill="#5E5F61"/>
<path d="M130.135 22.7371V8.61898H131.892V22.7371H130.135Z" fill="#5E5F61"/>
<path d="M131.964 22.8094H130.063V8.54661H131.964V22.8094ZM130.207 22.6647H131.819V8.69135H130.207V22.6647Z" fill="#5E5F61"/>
<path d="M146.01 22.7371L144.766 19.5858H137.734L136.484 22.7371H134.477L140.168 8.61898H142.352L148.023 22.7371H146.01ZM141.247 10.415L138.267 18.0398H144.253L141.247 10.415Z" fill="#5E5F61"/>
<path d="M148.135 22.8094H145.964V22.7634L144.733 19.6582H137.786L136.536 22.8094H134.365L134.405 22.7108L140.122 8.54661H142.398V8.59266L148.135 22.8094ZM146.062 22.6647H147.918L142.299 8.69135H140.207L134.569 22.6647H136.424L137.674 19.5135H144.812V19.5595L146.062 22.6647ZM144.358 18.1122H138.155L138.194 18.0135L141.247 10.2176L144.358 18.1122ZM138.372 17.9675H144.155L141.247 10.5926L138.372 17.9675Z" fill="#5E5F61"/>
<path d="M47.7357 41.7103V27.5922H49.4988V40.1446H56.0776V41.7103H47.7357Z" fill="#5E5F61"/>
<path d="M56.1302 41.7827H47.6633V27.5199H49.5712V40.0722H56.15L56.1302 41.7827ZM47.808 41.638H55.9986V40.1972H49.4198V27.6975H47.808V41.638Z" fill="#5E5F61"/>
<path d="M60.9656 41.7103V35.7368L55.4 27.5922H57.4526L61.834 34.171L66.2155 27.5922H68.2681L62.7222 35.7368V41.7103H60.9656Z" fill="#5E5F61"/>
<path d="M62.7945 41.7827H60.8933V35.7631L55.2618 27.5199H57.492L61.8143 33.9934L66.1563 27.4936H68.3865L62.7748 35.7368L62.7945 41.7827ZM61.038 41.638H62.6498V35.7171L68.1365 27.6975H66.255L61.834 34.2763L61.7748 34.1842L57.4131 27.6975H55.5381L61.038 35.7499V41.638Z" fill="#5E5F61"/>
<path d="M83.2349 41.7103V29.8685L78.4521 41.7103H77.7087L72.9062 29.8685V41.7103H71.1496V27.5922H73.6693L78.0705 38.4736L82.452 27.5922H84.9717V41.7103H83.2349Z" fill="#5E5F61"/>
<path d="M85.0638 41.7827H83.1625V30.2106L78.4981 41.7827H77.7087V41.7366L73.0443 30.2106V41.7827H71.1299V27.5199H73.7614V27.5593L78.0968 38.2762L82.4322 27.5199H85.0638V41.7827ZM83.3072 41.638H84.9454V27.6975H82.5507L78.1166 38.6972L78.0508 38.5328L73.6364 27.6975H71.2417V41.638H72.8535V29.4606L77.781 41.638H78.3995L83.3072 29.4606V41.638Z" fill="#5E5F61"/>
<path d="M89.3466 41.7103V27.5922H95.0241C97.8595 27.5922 99.4516 29.5659 99.4516 31.8421C99.4676 32.4201 99.3626 32.9951 99.1435 33.5301C98.9243 34.0652 98.5958 34.5486 98.1789 34.9493C97.7621 35.35 97.2662 35.6593 96.7229 35.8572C96.1796 36.0551 95.601 36.1373 95.0241 36.0986H91.1097V41.7103H89.3466ZM97.6293 31.8421C97.6375 31.4761 97.5693 31.1124 97.4289 30.7742C97.2885 30.4361 97.0792 30.1309 96.8142 29.8783C96.5491 29.6256 96.2343 29.4311 95.8899 29.3071C95.5454 29.183 95.1788 29.1323 94.8136 29.158H91.1097V34.5329H94.8136C95.1794 34.5587 95.5465 34.5077 95.8914 34.3833C96.2364 34.2589 96.5515 34.0637 96.8166 33.8104C97.0818 33.557 97.291 33.2511 97.4309 32.9121C97.5709 32.5732 97.6384 32.2087 97.6293 31.8421Z" fill="#5E5F61"/>
<path d="M91.1821 41.7827H89.2742V27.5199H95.0241C97.6556 27.5199 99.524 29.2961 99.524 31.8421C99.524 34.3881 97.6688 36.171 95.0241 36.171H91.1821V41.7827ZM89.4255 41.638H91.0373V36.0263H95.0241C97.5832 36.0263 99.3727 34.3092 99.3727 31.8421C99.3727 29.3751 97.5832 27.6975 95.0241 27.6975H89.4255V41.638ZM94.8136 34.6052H91.0373V29.0856H94.8136C95.1873 29.0674 95.5609 29.1252 95.9116 29.2557C96.2623 29.3861 96.5829 29.5865 96.8539 29.8445C97.1249 30.1026 97.3406 30.413 97.488 30.757C97.6354 31.1009 97.7114 31.4712 97.7114 31.8454C97.7114 32.2196 97.6354 32.5899 97.488 32.9339C97.3406 33.2778 97.1249 33.5882 96.8539 33.8463C96.5829 34.1044 96.2623 34.3047 95.9116 34.4352C95.5609 34.5656 95.1873 34.6235 94.8136 34.6052ZM91.1821 34.4605H94.8136C95.5115 34.4605 96.1808 34.1833 96.6743 33.6897C97.1678 33.1962 97.4451 32.5269 97.4451 31.829C97.4451 31.1311 97.1678 30.4617 96.6743 29.9682C96.1808 29.4747 95.5115 29.1975 94.8136 29.1975H91.1821V34.4605Z" fill="#5E5F61"/>
<path d="M112.846 41.7103V35.2302H104.59V41.7103H102.833V27.5922H104.59V33.6645H112.846V27.5922H114.603V41.7103H112.846Z" fill="#5E5F61"/>
<path d="M114.675 41.7827H112.774V35.3026H104.682V41.7827H102.78V27.5199H104.682V33.6184H112.774V27.5199H114.675V41.7827ZM112.918 41.638H114.55V27.6975H112.938V33.7697H104.517V27.6975H102.905V41.638H104.517V35.1579H112.918V41.638Z" fill="#5E5F61"/>
<path d="M118.392 34.6579C118.392 30.4935 121.227 27.3554 125.398 27.3554C129.569 27.3554 132.425 30.4935 132.425 34.6579C132.425 38.8222 129.569 41.9669 125.398 41.9669C121.227 41.9669 118.392 38.8288 118.392 34.6579ZM130.602 34.6579C130.602 31.3685 128.55 28.9212 125.398 28.9212C122.247 28.9212 120.208 31.3553 120.208 34.6579C120.208 37.9604 122.221 40.3946 125.398 40.3946C128.576 40.3946 130.602 37.9407 130.602 34.6579Z" fill="#5E5F61"/>
<path d="M125.398 42.0393C121.293 42.0393 118.32 38.9341 118.32 34.6579C118.32 30.3816 121.293 27.283 125.398 27.283C129.504 27.283 132.497 30.3882 132.497 34.6579C132.497 38.9275 129.51 42.0393 125.398 42.0393ZM125.398 27.4278C121.379 27.4278 118.464 30.4737 118.464 34.6644C118.464 38.8551 121.379 41.9011 125.398 41.9011C129.418 41.9011 132.352 38.8551 132.352 34.6644C132.352 30.4737 129.425 27.4278 125.398 27.4278ZM125.398 40.4735C122.3 40.4735 120.135 38.0788 120.135 34.6579C120.135 31.2369 122.254 28.8488 125.398 28.8488C128.543 28.8488 130.661 31.2369 130.661 34.6579C130.661 38.0788 128.504 40.4735 125.398 40.4735ZM125.398 28.9935C122.339 28.9935 120.287 31.2698 120.287 34.6579C120.287 38.0459 122.385 40.3222 125.398 40.3222C128.411 40.3222 130.53 37.9933 130.53 34.6579C130.53 31.3224 128.418 29.0133 125.398 29.0133V28.9935Z" fill="#5E5F61"/>
<path d="M147.852 41.7103V29.8685L143.069 41.7103H142.352L137.543 29.8685V41.7103H135.786V27.5922H138.306L142.707 38.4736L147.095 27.5922H149.615V41.7103H147.852Z" fill="#5E5F61"/>
<path d="M149.687 41.7827H147.779V30.2106L143.122 41.7827H142.299V41.7366L137.635 30.2106V41.7827H135.734V27.5199H138.365V27.5593L142.701 38.2762L147.036 27.5199H149.668L149.687 41.7827ZM147.924 41.638H149.536V27.6975H147.141L142.707 38.6644L138.234 27.6975H135.832V41.638H137.444V29.4606L142.372 41.638H142.997L147.898 29.4606L147.924 41.638Z" fill="#5E5F61"/>
<path d="M164.154 41.7103L162.904 38.5525H155.878L154.628 41.7103H152.615L158.312 27.5922H160.49L166.161 41.7103H164.154ZM159.391 29.3882L156.404 37.0131H162.398L159.391 29.3882Z" fill="#5E5F61"/>
<path d="M166.272 41.7827H164.101V41.7366L162.871 38.6315H155.924L154.681 41.7827H152.51L152.549 41.684L158.259 27.5199H160.536V27.5593L166.272 41.7827ZM164.2 41.638H166.055L160.437 27.6975H158.358L152.707 41.638H154.562L155.812 38.4801H162.937V38.5262L164.2 41.638ZM162.503 37.0854H156.299L156.338 36.9802L159.391 29.1909L162.503 37.0854ZM156.51 36.9078H162.286L159.391 29.5593L156.51 36.9078Z" fill="#5E5F61"/>
<path d="M47.1238 58.6902L48.183 57.335C48.7294 57.973 49.4075 58.4851 50.1707 58.836C50.9339 59.1869 51.764 59.3684 52.604 59.3678C55.1237 59.3678 55.9329 58.0126 55.9329 56.9139C55.9329 53.2693 47.5712 55.3021 47.5712 50.2694C47.5712 47.9405 49.6435 46.3221 52.4395 46.3221C53.3635 46.2843 54.2851 46.4404 55.1451 46.7804C56.0051 47.1203 56.7844 47.6365 57.4328 48.2957L56.3736 49.6115C55.8537 49.0528 55.2199 48.6122 54.5151 48.3194C53.8103 48.0266 53.0509 47.8884 52.2882 47.9141C50.6172 47.9141 49.3869 48.8286 49.3869 50.1575C49.3869 53.3351 57.7486 51.5127 57.7486 56.7889C57.7486 58.8218 56.3539 60.9336 52.5448 60.9336C51.5328 60.9728 50.5244 60.7926 49.5887 60.4054C48.653 60.0182 47.8121 59.433 47.1238 58.6902Z" fill="#5E5F61"/>
<path d="M52.5448 61.006C51.5238 61.0408 50.5072 60.8569 49.5632 60.4665C48.6191 60.0762 47.7695 59.4885 47.0712 58.7429L47.0317 58.6968L48.183 57.2231L48.2357 57.2889C48.7803 57.9111 49.4521 58.4092 50.2057 58.7497C50.9593 59.0902 51.7771 59.2651 52.604 59.2626C55.0052 59.2626 55.8934 58.0323 55.8934 56.881C55.8934 55.2627 54.1303 54.789 52.2685 54.289C50.0514 53.6903 47.5317 53.0127 47.5317 50.2365C47.5317 47.9076 49.6106 46.2234 52.4724 46.2234C53.4071 46.1911 54.3382 46.3533 55.2068 46.6999C56.0755 47.0464 56.8626 47.5697 57.5183 48.2365L57.5644 48.2826L56.4131 49.6904L56.3539 49.6246C55.8404 49.0738 55.2146 48.6396 54.5189 48.3513C53.8232 48.063 53.0737 47.9274 52.3211 47.9536C50.6567 47.9536 49.4922 48.8483 49.4922 50.1246C49.4922 51.4009 51.0448 51.8812 52.8342 52.368C55.1894 53.0259 57.8539 53.7298 57.8539 56.7561C57.821 58.8284 56.4394 61.006 52.5448 61.006ZM47.2159 58.6902C47.9014 59.4067 48.7304 59.9704 49.6486 60.3445C50.5669 60.7186 51.5538 60.8947 52.5448 60.8612C56.3276 60.8612 57.6762 58.756 57.6762 56.7889C57.6762 53.8745 55.0447 53.164 52.7684 52.539C50.9132 52.0391 49.3146 51.6049 49.3146 50.1575C49.3146 48.7102 50.5382 47.8418 52.2882 47.8418C53.0477 47.8132 53.8047 47.9461 54.509 48.2319C55.2133 48.5177 55.8488 48.9498 56.3736 49.4996L57.3144 48.322C56.6731 47.6844 55.9079 47.185 55.066 46.8546C54.2242 46.5242 53.3236 46.3698 52.4198 46.401C49.6369 46.401 47.6238 48.026 47.6238 50.2694C47.6238 52.9009 49.979 53.5588 52.229 54.2166C54.15 54.7298 55.9592 55.2166 55.9592 56.9468C55.9592 58.8152 54.1303 59.4731 52.5579 59.4731C51.7239 59.4721 50.8994 59.2959 50.1378 58.9559C49.3762 58.6159 48.6945 58.1197 48.137 57.4995L47.2159 58.6902Z" fill="#5E5F61"/>
<path d="M60.8604 53.6311C60.8604 49.4602 63.6958 46.3287 67.8668 46.3287C72.0378 46.3287 74.8995 49.4602 74.8995 53.6311C74.8995 57.8021 72.0378 60.9336 67.8668 60.9336C63.6958 60.9336 60.8604 57.8021 60.8604 53.6311ZM73.0772 53.6311C73.0772 50.3417 71.0246 47.8944 67.8668 47.8944C64.709 47.8944 62.6827 50.3286 62.6827 53.6311C62.6827 56.9337 64.6958 59.3678 67.8668 59.3678C71.0378 59.3678 73.1035 56.9139 73.1035 53.6311H73.0772Z" fill="#5E5F61"/>
<path d="M67.8405 61.006C63.7419 61.006 60.7617 57.9073 60.7617 53.6311C60.7617 49.3549 63.7682 46.2563 67.8405 46.2563C71.9128 46.2563 74.9456 49.3615 74.9456 53.6311C74.9456 57.9008 71.9851 61.006 67.8405 61.006ZM67.8405 46.401C63.8208 46.401 60.9064 49.4404 60.9064 53.6377C60.9064 57.835 63.8208 60.8744 67.8405 60.8744C71.8601 60.8744 74.7943 57.835 74.7943 53.6377C74.7943 49.4404 71.8996 46.401 67.8405 46.401ZM67.8405 59.4402C64.7419 59.4402 62.5774 57.0521 62.5774 53.6311C62.5774 50.2101 64.6892 47.822 67.8405 47.822C70.9917 47.822 73.1035 50.2101 73.1035 53.6311C73.1035 57.0521 70.9786 59.4402 67.8405 59.4402ZM67.8405 47.9668C64.7813 47.9668 62.7288 50.243 62.7288 53.6311C62.7288 57.0192 64.8603 59.2757 67.8405 59.2757C70.8207 59.2757 72.9785 56.9468 72.9785 53.6114C72.9785 50.2759 70.893 47.9668 67.8405 47.9668Z" fill="#5E5F61"/>
<path d="M78.11 53.6311C78.0765 52.6687 78.2402 51.7096 78.5912 50.8128C78.9421 49.916 79.4729 49.1005 80.1507 48.4165C80.8286 47.7325 81.6392 47.1944 82.5328 46.8353C83.4264 46.4763 84.384 46.3038 85.3467 46.3287C86.4026 46.3053 87.4473 46.5495 88.3836 47.0383C89.3199 47.5272 90.1174 48.2448 90.7018 49.1246L89.2413 49.947C88.806 49.316 88.2244 48.7997 87.5462 48.4422C86.8679 48.0848 86.1133 47.8968 85.3467 47.8944C82.2546 47.8944 79.906 50.243 79.906 53.6311C79.906 57.0192 82.2546 59.3678 85.3467 59.3678C86.1126 59.3616 86.8658 59.1719 87.5434 58.8148C88.221 58.4577 88.8032 57.9435 89.2413 57.3152L90.7215 58.1179C90.1323 58.999 89.3316 59.7184 88.3927 60.2102C87.4538 60.7021 86.4065 60.9508 85.3467 60.9336C84.384 60.9584 83.4264 60.786 82.5328 60.4269C81.6392 60.0679 80.8286 59.5298 80.1507 58.8457C79.4729 58.1617 78.9421 57.3462 78.5912 56.4494C78.2402 55.5527 78.0765 54.5935 78.11 53.6311Z" fill="#5E5F61"/>
<path d="M85.373 61.006C83.417 61.006 81.5412 60.229 80.1582 58.8459C78.7751 57.4629 77.9981 55.587 77.9981 53.6311C77.9981 51.6752 78.7751 49.7994 80.1582 48.4163C81.5412 47.0333 83.417 46.2563 85.373 46.2563C86.4396 46.2355 87.4944 46.4831 88.4405 46.9762C89.3865 47.4694 90.1935 48.1923 90.7873 49.0786L90.8334 49.1444L90.7676 49.1839L89.2413 50.0654L89.2084 50.0062C88.7803 49.3843 88.2076 48.8755 87.5396 48.5238C86.8715 48.172 86.128 47.9876 85.373 47.9865C82.2612 47.9865 80.0047 50.368 80.0047 53.6509C80.0047 56.9337 82.2612 59.3152 85.373 59.3152C86.1267 59.307 86.8676 59.1196 87.5345 58.7684C88.2014 58.4172 88.7752 57.9123 89.2084 57.2955L89.2413 57.2429H89.3005L90.8597 58.0915L90.8071 58.1573C90.2101 59.0471 89.4004 59.7736 88.4514 60.2711C87.5025 60.7685 86.4443 61.0211 85.373 61.006ZM85.373 46.401C83.4537 46.401 81.613 47.1635 80.2559 48.5206C78.8987 49.8777 78.1363 51.7184 78.1363 53.6377C78.1363 55.557 78.8987 57.3977 80.2559 58.7548C81.613 60.1119 83.4537 60.8744 85.373 60.8744C86.4057 60.8874 87.4258 60.6464 88.3436 60.1726C89.2613 59.6989 90.0485 59.0068 90.636 58.1573L89.2808 57.4271C88.8319 58.047 88.244 58.5532 87.5642 58.9051C86.8845 59.257 86.1318 59.4447 85.3664 59.4534C82.1691 59.4534 79.8534 57.0126 79.8534 53.6443C79.8534 50.2759 82.1691 47.8352 85.3664 47.8352C86.1341 47.835 86.8906 48.0196 87.5719 48.3735C88.2532 48.7273 88.8394 49.2399 89.2808 49.868L90.5965 49.1115C90.0179 48.263 89.2378 47.5713 88.3262 47.0983C87.4146 46.6252 86.3999 46.3857 85.373 46.401Z" fill="#5E5F61"/>
<path d="M94.0504 60.6836V46.5589H95.807V60.6836H94.0504Z" fill="#5E5F61"/>
<path d="M95.8793 60.756H93.978V46.4865H95.8793V60.756ZM94.1557 60.5915H95.7675V46.6379H94.1557V60.5915Z" fill="#5E5F61"/>
<path d="M100.169 60.6836V46.5589H109.418V48.1312H101.925V52.6969H109.287V54.2693H101.925V59.1376H109.418V60.7033L100.169 60.6836Z" fill="#5E5F61"/>
<path d="M109.491 60.756H100.077V46.4865H109.471V48.2036H101.998V52.6048H109.34V54.3219H101.998V59.0455H109.491V60.756ZM100.241 60.5915H109.346V59.1705H101.853V54.1508H109.195V52.7298H101.853V48.0523H109.346V46.6379H100.241V60.5915Z" fill="#5E5F61"/>
<path d="M116.76 60.6836V48.1312H112.293V46.5589H123.004V48.1312H118.497V60.6836H116.76Z" fill="#5E5F61"/>
<path d="M118.589 60.756H116.688V48.2036H112.221V46.4865H123.102V48.2036H118.616L118.589 60.756ZM116.833 60.6112H118.445V48.0523H122.931V46.6379H112.366V48.0523H116.833V60.6112Z" fill="#5E5F61"/>
<path d="M130.918 60.6836V54.71L125.352 46.5589H127.405L131.786 53.1377L136.168 46.5589H138.234L132.681 54.71V60.6836H130.918Z" fill="#5E5F61"/>
<path d="M132.753 60.756H130.846V54.7364L125.214 46.4865H127.444L131.767 52.9601L136.109 46.4537H138.345L138.267 46.5721L132.734 54.7035L132.753 60.756ZM130.997 60.5915H132.609V54.6706L138.095 46.6181H136.214L131.793 53.2364L127.372 46.6181H125.497L130.997 54.6706V60.5915Z" fill="#5E5F61"/>
<path d="M141.753 50.2759C141.363 50.2759 140.981 50.1602 140.657 49.9433C140.332 49.7264 140.079 49.4182 139.93 49.0576C139.78 48.6969 139.741 48.3001 139.818 47.9173C139.894 47.5344 140.082 47.1827 140.358 46.9067C140.634 46.6307 140.985 46.4427 141.368 46.3666C141.751 46.2904 142.148 46.3295 142.509 46.4789C142.869 46.6283 143.177 46.8812 143.394 47.2058C143.611 47.5304 143.727 47.9119 143.727 48.3023C143.727 48.8257 143.519 49.3277 143.149 49.6979C142.779 50.068 142.277 50.2759 141.753 50.2759ZM141.753 46.6247C141.417 46.6234 141.089 46.7218 140.809 46.9075C140.529 47.0933 140.31 47.3579 140.18 47.6679C140.051 47.9779 140.016 48.3194 140.081 48.6491C140.146 48.9788 140.307 49.2818 140.544 49.5199C140.781 49.7579 141.084 49.9202 141.413 49.9862C141.743 50.0523 142.084 50.0191 142.395 49.8908C142.705 49.7625 142.971 49.545 143.158 49.2657C143.344 48.9864 143.444 48.658 143.444 48.322C143.446 48.0992 143.403 47.8782 143.319 47.672C143.235 47.4657 143.11 47.2782 142.953 47.1203C142.796 46.9624 142.609 46.8373 142.403 46.7522C142.197 46.6672 141.976 46.6238 141.753 46.6247ZM142.293 49.447L141.707 48.5589H141.299V49.447H141.003V47.2036H141.918C142.009 47.1954 142.101 47.2063 142.188 47.2356C142.275 47.265 142.354 47.3121 142.422 47.3741C142.489 47.436 142.543 47.5113 142.58 47.5953C142.616 47.6792 142.635 47.7699 142.635 47.8615C142.636 48.0231 142.578 48.1795 142.471 48.3009C142.364 48.4222 142.216 48.5 142.056 48.5194L142.661 49.4141L142.293 49.447ZM141.918 47.4734H141.299V48.2891H141.918C142.024 48.2875 142.126 48.2449 142.202 48.1702C142.278 48.0954 142.322 47.9943 142.326 47.8878C142.329 47.8311 142.321 47.7743 142.303 47.7206C142.284 47.667 142.255 47.6175 142.217 47.5753C142.179 47.533 142.133 47.4988 142.082 47.4745C142.03 47.4502 141.975 47.4364 141.918 47.4339V47.4734Z" fill="#5E5F61"/>
<path d="M141.753 50.3549C141.214 50.3549 140.697 50.1407 140.316 49.7595C139.935 49.3782 139.72 48.8612 139.72 48.322C139.72 47.7829 139.935 47.2658 140.316 46.8846C140.697 46.5034 141.214 46.2892 141.753 46.2892C142.021 46.2856 142.287 46.3358 142.535 46.4367C142.784 46.5376 143.009 46.6872 143.199 46.8767C143.388 47.0662 143.538 47.2917 143.639 47.5399C143.74 47.7882 143.79 48.0541 143.786 48.322C143.784 48.8606 143.57 49.3767 143.189 49.7576C142.808 50.1384 142.292 50.3531 141.753 50.3549ZM141.753 46.4076C141.38 46.4076 141.015 46.5183 140.704 46.7258C140.394 46.9333 140.152 47.2282 140.009 47.5732C139.866 47.9182 139.829 48.2978 139.901 48.6641C139.974 49.0303 140.154 49.3668 140.418 49.6308C140.682 49.8949 141.019 50.0747 141.385 50.1476C141.751 50.2204 142.131 50.183 142.476 50.0401C142.821 49.8972 143.116 49.6552 143.323 49.3447C143.531 49.0342 143.641 48.6691 143.641 48.2957C143.641 48.0492 143.591 47.8054 143.495 47.5782C143.4 47.3509 143.26 47.1449 143.085 46.9718C142.909 46.7988 142.701 46.6621 142.473 46.5698C142.244 46.4775 142 46.4313 141.753 46.4339V46.4076ZM141.753 50.0588C141.286 50.0571 140.839 49.8708 140.508 49.5405C140.178 49.2102 139.992 48.7628 139.99 48.2957C139.99 47.8281 140.176 47.3797 140.507 47.049C140.837 46.7184 141.286 46.5326 141.753 46.5326C142.221 46.5326 142.669 46.7184 143 47.049C143.331 47.3797 143.516 47.8281 143.516 48.2957C143.516 48.7639 143.331 49.2131 143 49.5448C142.67 49.8765 142.222 50.0637 141.753 50.0654V50.0588ZM141.753 46.6773C141.54 46.6747 141.328 46.7147 141.131 46.7951C140.933 46.8755 140.754 46.9946 140.603 47.1454C140.452 47.2963 140.333 47.4757 140.253 47.6733C140.172 47.8708 140.132 48.0825 140.135 48.2957C140.135 48.7249 140.305 49.1366 140.609 49.4401C140.912 49.7436 141.324 49.9141 141.753 49.9141C142.183 49.9141 142.594 49.7436 142.898 49.4401C143.201 49.1366 143.372 48.7249 143.372 48.2957C143.371 48.0847 143.328 47.8759 143.246 47.6814C143.164 47.4869 143.045 47.3105 142.894 47.1625C142.744 47.0145 142.565 46.8978 142.37 46.819C142.174 46.7402 141.964 46.701 141.753 46.7036V46.6773ZM142.793 49.4931H142.253L141.668 48.6049H141.372V49.4931H140.931V47.1313H141.918C142.02 47.1268 142.122 47.1431 142.217 47.1791C142.313 47.2152 142.4 47.2702 142.474 47.3409C142.548 47.4116 142.607 47.4965 142.647 47.5905C142.687 47.6845 142.707 47.7856 142.707 47.8878C142.709 48.0481 142.658 48.2045 142.563 48.3338C142.468 48.463 142.334 48.5581 142.181 48.6049L142.793 49.4931ZM142.332 49.3483H142.523L141.924 48.4536H142.056C142.198 48.4343 142.329 48.3632 142.422 48.2541C142.515 48.1449 142.565 48.0052 142.562 47.8615C142.563 47.7771 142.546 47.6936 142.512 47.6162C142.478 47.5388 142.429 47.4692 142.367 47.4118C142.306 47.3543 142.233 47.3102 142.153 47.2823C142.073 47.2545 141.989 47.2433 141.905 47.2497H141.063V49.4075H141.214V48.4865H141.734L142.332 49.3483ZM141.918 48.3352H141.26V47.3878H141.918C142.047 47.3929 142.169 47.4479 142.259 47.5411C142.348 47.6343 142.398 47.7586 142.398 47.8878C142.393 48.013 142.341 48.1316 142.251 48.2196C142.162 48.3075 142.043 48.3583 141.918 48.3615V48.3352ZM141.372 48.1905H141.918C142.005 48.1873 142.087 48.1518 142.149 48.091C142.211 48.0301 142.248 47.9483 142.253 47.8615C142.253 47.7706 142.219 47.6831 142.156 47.617C142.094 47.551 142.009 47.5113 141.918 47.5063H141.372V48.1905Z" fill="#5E5F61"/>
</svg>
