<svg width="227" height="53" viewBox="0 0 227 53" fill="none" xmlns="http://www.w3.org/2000/svg">
<path d="M115.666 30.646C115.666 33.0753 114.856 35.1365 113.237 36.7561C111.102 38.8909 107.642 40.0688 103.446 39.9951C100.428 39.9215 97.4095 39.1854 95.7163 38.1548L96.8206 32.1183C98.6609 33.1489 101.826 34.1795 104.182 34.1795C106.17 34.1795 107.421 33.2962 107.421 31.8238C107.421 30.4988 106.464 29.6154 104.108 28.4375C100.354 26.5972 98.5137 24.2415 98.5137 21.4441C98.5137 15.9966 103.225 12.2422 110.219 12.2422C113.899 12.2422 116.329 13.1256 117.654 14.009L116.549 19.9718C115.519 19.162 112.795 18.0578 109.85 18.0578C107.789 18.0578 106.464 18.9412 106.464 20.3399C106.464 21.3705 107.495 22.2539 109.63 23.3581C112.501 24.8304 115.666 26.9652 115.666 30.646ZM222.629 36.2408C222.776 34.4004 221.451 32.9281 219.611 32.9281C217.77 32.9281 216.151 34.4004 216.004 36.2408C215.856 37.9339 217.034 39.5535 219.022 39.5535C220.862 39.5535 222.482 38.0811 222.629 36.2408ZM222.187 36.2408C222.04 37.7867 220.641 39.1118 219.022 39.1118C217.476 39.1118 216.372 37.8603 216.519 36.3144C216.666 34.7685 218.065 33.4434 219.684 33.4434C221.157 33.4434 222.261 34.6948 222.187 36.2408ZM219.905 36.6825L220.421 38.2284H219.905L219.39 36.7561H218.654L218.359 38.2284H217.844L218.58 34.3268H219.832C220.421 34.3268 220.862 34.7685 220.862 35.2838C220.936 35.7991 220.568 36.4616 219.905 36.6825ZM219.905 34.7685H219.022L218.727 36.2408H219.537C219.979 36.2408 220.347 35.8727 220.421 35.431C220.494 35.1365 220.273 34.7685 219.905 34.7685ZM205.55 33.8851C208.863 33.8851 211.734 33.0753 214.826 31.3085L213.574 37.9339C209.82 39.8479 205.403 40.0688 203.71 40.0688C196.348 40.0688 192.226 36.0199 192.226 28.8792C192.226 24.7568 193.772 20.6343 196.348 17.6161C199.146 14.3034 203.342 12.3894 207.685 12.3894C213.206 12.3894 216.961 15.6285 216.961 20.4135C216.961 22.6219 216.225 24.4623 214.826 25.861C212.176 28.4375 205.624 29.9099 199.735 28.732C199.367 31.9711 201.87 33.8851 205.55 33.8851ZM200.471 23.5053C205.109 23.5789 207.685 23.0636 208.863 21.9594C210.114 20.7079 209.673 18.1314 206.655 18.1314C203.268 18.1314 201.06 20.9288 200.471 23.5053ZM169.552 24.6096L166.681 39.4798H159.173L160.13 34.3268C159.099 37.4922 156.523 40.0688 152.179 40.0688C146.953 40.0688 144.597 35.431 144.597 30.7932C144.597 25.4929 146.658 20.2663 150.118 16.8063C153.063 13.8617 156.817 12.3158 161.013 12.3158C168.448 12.3894 170.878 17.3953 169.552 24.6096ZM162.265 21.2233C162.191 19.3829 161.16 18.3523 159.467 18.3523C155.786 18.3523 152.547 24.7568 152.547 29.1737C152.547 31.9711 153.578 33.6642 155.345 33.6642C158.216 33.6642 160.719 30.646 161.528 26.3027C161.896 24.8304 162.338 22.4011 162.265 21.2233ZM48.4553 24.6096L45.5843 39.4798H38.0756L39.0326 34.3268C38.002 37.4922 35.4254 40.0688 31.0821 40.0688C25.8555 40.0688 23.4998 35.431 23.4998 30.7932C23.4998 25.4929 25.561 20.2663 29.0209 16.8063C31.9655 13.8617 35.7199 12.3158 39.916 12.3158C47.3511 12.3894 49.854 17.3953 48.4553 24.6096ZM41.241 21.2233C41.1674 19.3829 40.1368 18.3523 38.4437 18.3523C34.7629 18.3523 31.5238 24.7568 31.5238 29.1737C31.5238 31.9711 32.5544 33.6642 34.3212 33.6642C37.1922 33.6642 39.6951 30.646 40.5049 26.3027C40.7994 24.8304 41.241 22.4011 41.241 21.2233ZM144.082 22.4747C144.082 28.9529 140.99 35.5782 135.395 38.5228C133.334 39.6271 131.346 40.0688 129.653 40.0688C126.856 40.0688 125.31 39.0381 124.426 37.4186L122.439 48.0192H114.562L121.261 12.8311H128.181L127.371 17.1008C129.359 14.2298 132.229 12.3158 135.542 12.3158C140.695 12.3158 144.082 16.291 144.082 22.4747ZM135.91 23.0636C135.91 21.8122 135.616 18.7939 132.745 18.7939C129.8 18.7939 127.297 22.1066 126.34 27.1861C125.972 28.9529 125.089 34.1059 128.696 34.1059C132.818 34.1059 135.91 28.2167 135.91 23.0636ZM15.3285 18.7203L16.4327 12.8311H9.51287L4.3598 39.9951H12.2366L14.3715 28.8056C15.6229 22.1802 19.3773 19.5301 24.8248 20.4135L26.3708 12.3158C21.6594 11.8005 17.2425 14.4506 15.3285 18.7203ZM78.564 39.4798L81.2877 25.1985L86.8825 39.4798H95.3483L89.5327 25.1249L100.06 12.8311H91.4466L81.2877 24.9776L85.1894 4.36536H77.3861L70.6871 39.5535H78.564V39.4798ZM188.177 12.3894C178.313 12.3894 170.878 19.6037 170.878 29.1737C170.878 35.7991 175.294 40.0688 182.067 40.0688C185.012 40.0688 187.809 39.5535 189.649 38.6701L190.901 32.0447C188.472 33.2225 186.558 33.7378 184.275 33.7378C181.773 33.7378 179.122 32.3392 179.122 28.2903C179.122 23.5789 182.435 18.7203 188.103 18.7203C189.797 18.7203 191.195 19.0884 192.447 19.7509L193.698 13.3464C192.226 12.7575 190.165 12.3894 188.177 12.3894ZM67.08 12.3894C57.2156 12.3894 49.7804 19.6037 49.7804 29.1737C49.7804 35.7991 54.1973 40.0688 60.9699 40.0688C63.9145 40.0688 66.7119 39.5535 68.5523 38.6701L69.8038 32.0447C67.3745 33.2225 65.4605 33.7378 63.1784 33.7378C60.6755 33.7378 58.0253 32.3392 58.0253 28.2903C58.0253 23.5789 61.338 18.7203 67.0064 18.7203C68.6995 18.7203 70.0982 19.0884 71.3497 19.7509L72.6011 13.3464C71.1288 12.7575 69.0676 12.3894 67.08 12.3894Z" fill="black"/>
</svg>
