<svg width="184" height="65" viewBox="0 0 184 65" fill="none" xmlns="http://www.w3.org/2000/svg">
<path d="M161.548 12.7969C161.176 13.2318 160.99 13.7482 160.99 14.3473C160.99 14.7528 161.075 15.1221 161.244 15.4553C161.413 15.7884 161.643 16.0512 161.935 16.2448C162.226 16.438 162.549 16.5342 162.904 16.5342C163.427 16.5342 163.879 16.323 164.259 15.8973C164.639 15.472 164.829 14.9552 164.829 14.3473C164.829 13.7482 164.639 13.2318 164.259 12.7969C163.879 12.3624 163.428 12.1453 162.904 12.1453C162.371 12.1453 161.92 12.3624 161.548 12.7969ZM62.2206 12.9307C61.2652 13.4529 60.5549 14.1527 60.0907 15.0286C59.6258 15.9045 59.3933 16.8851 59.3933 17.9692C59.3933 19.0923 59.623 20.0647 60.0831 20.8881C60.5433 21.7107 61.1355 22.3958 61.8609 22.9423C62.5866 23.4891 63.43 23.995 64.3923 24.4595C65.2705 24.8568 65.9392 25.2409 66.3997 25.6129C66.8595 25.9857 67.0899 26.4427 67.0899 26.9844C67.0899 27.2848 66.9557 27.607 66.6891 27.9501C66.4229 28.2938 65.8361 28.4652 64.9302 28.4652C63.9482 28.4652 63.0265 28.2573 62.167 27.8402C61.3072 27.4237 60.4334 26.9001 59.5445 26.2703V31.2198C60.4911 31.696 61.4014 32.0561 62.2766 32.2991C63.1515 32.5418 63.8526 32.6896 64.3806 32.7432C64.909 32.7958 65.3552 32.8231 65.7184 32.8231C67.0202 32.8231 68.174 32.5777 69.1799 32.0885C70.1852 31.598 70.9689 30.8921 71.5314 29.9702C72.0936 29.0485 72.3749 27.9566 72.3749 26.6943C72.3749 25.5624 72.1455 24.6176 71.6857 23.8584C71.2259 23.0986 70.5907 22.4285 69.7807 21.8476C68.9703 21.2673 67.89 20.6146 66.54 19.8883C65.773 19.4725 65.2401 19.1192 64.9415 18.8284C64.6435 18.5383 64.494 18.1949 64.494 17.7979C64.494 17.3722 64.6414 17.0142 64.9381 16.7237C65.234 16.4335 65.7119 16.2881 66.3727 16.2881C67.38 16.2881 68.3259 16.5209 69.2106 16.9862C70.0947 17.4507 70.8969 17.9788 71.6164 18.57V13.8469C71.4137 13.6912 71.0416 13.4782 70.5006 13.2072C69.9592 12.9362 69.2728 12.6914 68.4399 12.4733C67.607 12.2555 66.7007 12.1463 65.7204 12.1463C64.3421 12.1463 63.1761 12.4084 62.2206 12.9307ZM153.164 13.3505L147.04 20.4754V21.3868H149.11V27.294C149.11 30.9802 150.753 32.8231 154.04 32.8231C154.8 32.8231 155.598 32.7016 156.431 32.4585C157.265 32.2158 157.919 31.9629 158.393 31.7001V27.6043C157.208 28.302 156.252 28.6509 155.524 28.6509C154.966 28.6509 154.55 28.5375 154.274 28.3099C153.999 28.0822 153.832 27.7992 153.773 27.4599C153.714 27.1213 153.684 26.6759 153.684 26.1232V21.3874H158.05V17.7706H153.684V13.3505H153.164ZM106.379 18.2515C105.588 18.7373 104.826 19.4551 104.091 20.4068C103.905 19.8924 103.655 19.4411 103.341 19.0527C103.027 18.6642 102.678 18.3584 102.292 18.1351C101.907 17.9122 101.515 17.7542 101.116 17.662C100.718 17.5702 100.299 17.5235 99.858 17.5235C98.9258 17.5235 98.1035 17.7122 97.3915 18.0911C96.6801 18.47 95.9807 19.0772 95.2943 19.9118V17.7706H90.7196V32.5766H95.2943V23.8953C95.3622 23.7983 95.5233 23.5618 95.778 23.1839C96.0323 22.8067 96.2487 22.5214 96.4269 22.3275C96.6044 22.1343 96.8358 21.9595 97.1198 21.8046C97.4041 21.6499 97.7151 21.5725 98.0544 21.5725C98.7664 21.5725 99.2624 21.8435 99.5423 22.3859C99.8225 22.9279 99.9625 23.697 99.9625 24.6933V32.5766H104.537V23.8953C104.941 23.228 105.345 22.674 105.75 22.2336C106.154 21.793 106.672 21.5728 107.304 21.5728C107.952 21.5728 108.426 21.8315 108.725 22.3493C109.023 22.8668 109.173 23.6485 109.173 24.6933V32.576H113.748H113.747V23.5522C113.747 22.2739 113.58 21.1871 113.246 20.2904C112.912 19.395 112.397 18.7096 111.7 18.2345C111.003 17.7603 110.139 17.5231 109.109 17.5231C108.079 17.5231 107.168 17.7665 106.379 18.2515ZM171.428 18.3365C170.454 18.8786 169.71 19.551 169.196 20.3542C168.681 21.1581 168.322 21.9903 168.115 22.8511C167.908 23.7127 167.805 24.4725 167.805 25.1303C167.805 25.7884 167.906 26.5479 168.108 27.4091C168.31 28.2706 168.675 29.1147 169.202 29.9418C169.729 30.7699 170.479 31.4567 171.453 32.0032C172.426 32.55 173.62 32.8231 175.033 32.8231C175.659 32.8231 176.237 32.7773 176.765 32.6848C177.295 32.5923 177.771 32.4756 178.194 32.3346C178.617 32.1937 179.018 32.0404 179.399 31.8745H179.4V27.7494C178.561 28.0399 177.851 28.2631 177.267 28.4181C176.684 28.5737 176.163 28.6509 175.706 28.6509C175.223 28.6509 174.741 28.5256 174.259 28.2754C173.777 28.0248 173.379 27.6333 173.066 27.0995C172.753 26.5656 172.596 25.9095 172.596 25.1303C172.596 23.9571 172.911 23.0914 173.542 22.5333C174.172 21.9756 174.893 21.6964 175.706 21.6964C176.544 21.6964 177.707 21.9681 179.197 22.5105V18.3843C178.579 18.1218 177.97 17.9133 177.369 17.7576C176.768 17.6016 175.99 17.5235 175.034 17.5235C173.603 17.5235 172.402 17.7945 171.428 18.3365ZM138.391 18.0553C137.667 18.4096 136.944 19.0291 136.225 19.9118V17.7706H131.65V32.576H136.225V23.8946C136.385 23.6342 136.542 23.3874 136.695 23.1549C136.848 22.9225 137.036 22.6804 137.261 22.4289C137.485 22.1773 137.74 21.9715 138.024 21.8117C138.308 21.6527 138.637 21.5725 139.01 21.5725C139.798 21.5725 140.309 21.8749 140.543 22.4797C140.775 23.0846 140.892 23.7932 140.892 24.6063V24.9111V32.576H145.466H145.466V23.8871C145.466 19.6449 143.915 17.5235 140.814 17.5235C139.924 17.5235 139.116 17.7006 138.391 18.0553ZM78.0149 18.5031C76.8963 19.1564 76.0593 20.0569 75.5046 21.2035C74.9493 22.35 74.6718 23.6492 74.6718 25.1009C74.6718 26.5717 74.9493 27.8876 75.5046 29.0489C76.0593 30.2101 76.8963 31.13 78.0149 31.8069C79.1338 32.4845 80.4889 32.8231 82.0827 32.8231C83.5562 32.8231 84.7704 32.6603 85.7237 32.335C86.6775 32.0097 87.4885 31.6482 88.1579 31.2492V28.0207C86.2931 28.9977 84.5898 29.4851 83.0476 29.4851C82.1659 29.4851 81.3778 29.2032 80.6828 28.6379C79.9882 28.0737 79.5516 27.3459 79.3738 26.4557H88.4886H88.4883V25.4085C88.4883 23.5458 88.1729 22.0251 87.5414 20.8474C86.9096 19.6695 86.1054 18.8206 85.1264 18.3017C84.1478 17.7832 83.1333 17.5235 82.0827 17.5235C80.4889 17.5235 79.1338 17.8501 78.0149 18.5031ZM79.9527 21.6015C80.4227 21.026 81.0388 20.7375 81.8021 20.7375C82.5738 20.7375 83.1647 21.0208 83.5757 21.5871C83.9867 22.1538 84.1921 22.9112 84.1921 23.8591H79.2468C79.2468 22.9303 79.4823 22.1777 79.9527 21.6015ZM120.261 17.7436C119.542 17.8897 118.853 18.1102 118.194 18.4065C117.534 18.7031 116.921 19.0844 116.355 19.5507V23.5659C117.064 22.7716 117.845 22.123 118.698 21.6182C119.55 21.1151 120.474 20.8628 121.471 20.8628C122.315 20.8628 122.864 21.0659 123.117 21.4714C123.371 21.8773 123.498 22.4384 123.498 23.1535C123.32 23.2597 123.152 23.3474 122.991 23.4143C122.831 23.4816 122.588 23.5765 122.263 23.697C121.938 23.8178 121.459 23.9943 120.826 24.226C119.711 24.6316 118.816 25.0234 118.141 25.3999C117.465 25.7771 116.927 26.2625 116.526 26.8575C116.125 27.4524 115.925 28.2037 115.925 29.1124C115.925 29.7114 116.041 30.2937 116.273 30.859C116.505 31.4246 116.91 31.8936 117.489 32.2653C118.067 32.6374 118.825 32.8238 119.763 32.8238C120.733 32.8238 121.518 32.6756 122.118 32.3814C122.717 32.0875 123.262 31.7124 123.752 31.258C123.879 31.6932 124.09 32.0633 124.387 32.3674C124.684 32.6709 125.208 32.8238 125.963 32.8238C126.759 32.8238 127.441 32.7309 128.007 32.5483C128.575 32.365 129.193 32.1227 129.863 31.8233H129.862V29.082C129.371 29.3636 128.982 29.5039 128.695 29.5039C128.457 29.5039 128.295 29.3708 128.206 29.1042C128.117 28.8383 128.072 28.4341 128.072 27.8921V22.1862C128.072 20.7345 127.601 19.5947 126.659 18.7666C125.716 17.9389 124.31 17.5248 122.442 17.5248C121.707 17.5248 120.98 17.5979 120.261 17.7436ZM120.751 29.6193C120.501 29.3585 120.376 28.9806 120.376 28.487C120.376 27.8002 120.626 27.2565 121.125 26.8544C121.624 26.4536 122.416 26.0017 123.498 25.4982V28.9953C123.176 29.2762 122.861 29.5158 122.553 29.7135C122.244 29.9118 121.933 30.0108 121.62 30.0108C121.29 30.0108 121 29.8804 120.751 29.6193ZM160.622 32.576H165.197V17.7706H160.622V32.576ZM104.962 36.7192V56.872H109.537V55.5203C109.832 55.8115 110.118 56.061 110.393 56.2692C110.668 56.4781 111.052 56.672 111.548 56.8509C112.042 57.0297 112.628 57.1198 113.305 57.1198C114.244 57.1198 115.167 56.8536 116.072 56.3214C116.977 55.7886 117.721 54.9574 118.305 53.8296C118.889 52.7015 119.181 51.2805 119.181 49.5663C119.181 48.5607 119.058 47.6001 118.812 46.6864C118.566 45.7722 118.192 44.9482 117.689 44.2133C117.186 43.4784 116.536 42.8958 115.741 42.4657C114.946 42.0352 114.028 41.8195 112.988 41.8195C112.21 41.8195 111.524 41.9332 110.933 42.1602C110.34 42.3872 109.875 42.6507 109.537 42.95V36.7192H104.962ZM109.537 52.1499V46.5034C110.395 45.875 111.168 45.5599 111.856 45.5599C112.543 45.5599 113.137 45.8921 113.639 46.5549C114.139 47.2171 114.39 48.1825 114.39 49.4499C114.39 50.892 114.11 51.8758 113.55 52.4035C112.989 52.9309 112.425 53.1944 111.856 53.1944C110.955 53.1944 110.183 52.8466 109.537 52.1499ZM83.149 36.7202L79.3284 47.879L75.2166 36.7202H71.4212L67.2326 47.879L63.5764 36.7202H58.0812L65.5443 57.1202H68.642L73.3252 45.2514L77.8947 57.1202H80.9665L88.5815 36.7202H83.149ZM91.9205 42.7998C90.8019 43.4528 89.9653 44.3533 89.4102 45.4999C88.8549 46.6464 88.5774 47.9456 88.5774 49.3973C88.5774 50.8685 88.8549 52.184 89.4102 53.3453C89.9653 54.5065 90.8019 55.4264 91.9205 56.1033C93.0394 56.7809 94.3949 57.1198 95.9882 57.1198C97.4618 57.1198 98.676 56.9574 99.6293 56.6317C100.583 56.3064 101.394 55.9449 102.064 55.5456V52.3178C100.199 53.2944 98.4954 53.7822 96.9529 53.7822C96.0719 53.7822 95.2837 53.5002 94.5887 52.935C93.8938 52.3707 93.4572 51.643 93.2797 50.7531H102.395H102.394V49.7052C102.394 47.8428 102.078 46.3221 101.447 45.1438C100.816 43.9659 100.011 43.1173 99.032 42.5984C98.0534 42.0796 97.0386 41.8198 95.9882 41.8198C94.3949 41.8198 93.0394 42.1472 91.9205 42.7998ZM93.8579 45.8985C94.3283 45.323 94.9448 45.0346 95.7077 45.0346C96.4791 45.0346 97.0703 45.3179 97.4813 45.8842C97.8923 46.4508 98.0977 47.2076 98.0977 48.1562H93.1524C93.1524 47.2274 93.3879 46.4747 93.8579 45.8985Z" fill="#015A9C"/>
<path d="M30.2896 11.3238C28.5774 10.5519 28.1672 10.3309 28.0965 10.2725L5.68396 19.464L28.1283 30.4042C28.1283 30.4042 29.862 29.6774 32.6531 28.3204C46.3541 21.6666 49.3239 5.38013 49.3239 5.38013C49.3239 5.38013 45.9166 18.3649 30.2896 11.3238ZM28.0965 10.2725L28.1283 10.2595C28.1283 10.2595 28.1064 10.2534 28.0934 10.2534C28.0829 10.2534 28.0781 10.2575 28.0965 10.2725Z" fill="#86BA0C"/>
<path d="M4.59998 47.6959L25.5128 59.019V34.9749L4.59998 24.3438V47.6959Z" fill="#EF7C00"/>
<path d="M30.2177 34.9761V59.0199L51.1308 47.6971V24.345L30.2177 34.9761Z" fill="#BD1789"/>
</svg>
