<svg width="243" height="49" viewBox="0 0 243 49" fill="none" xmlns="http://www.w3.org/2000/svg">
<path d="M85.942 29.876C86.9017 27.7276 88.913 26.265 91.5647 26.265C94.2164 26.265 96.182 27.499 97.0049 29.876H85.942ZM103.313 32.6189C103.313 26.036 98.5129 20.7792 91.5191 20.7792C84.9361 20.7792 79.6334 26.0816 79.6334 32.6649C79.6334 39.2475 84.5709 44.5503 91.7022 44.5503C96.641 44.5503 100.193 42.1678 102.192 38.7527L97.2244 35.7906C96.1707 37.8125 94.1478 39.0648 91.7478 39.0648C88.4563 39.0648 86.3994 37.4187 85.6678 34.9045H103.313V32.6189ZM230.814 32.6189C230.814 29.2362 228.345 26.4933 224.963 26.4933C221.488 26.4933 218.837 29.0991 218.837 32.6189C218.837 36.1388 221.488 38.7905 224.963 38.7905C228.345 38.7905 230.814 36.002 230.814 32.6189ZM212.711 32.6649C212.711 24.5739 218.654 20.7792 223.82 20.7792C226.791 20.7792 229.122 21.8763 230.631 23.4761V10.7223H236.894V44.0929H230.631V41.5334C229.122 43.3163 226.7 44.5503 223.728 44.5503C218.882 44.5503 212.711 40.7102 212.711 32.6649ZM208.11 17.7576C210.18 17.7576 211.857 16.0804 211.857 14.0112C211.857 11.9421 210.18 10.2649 208.11 10.2649C206.042 10.2649 204.365 11.9421 204.365 14.0112C204.365 16.0804 206.042 17.7576 208.11 17.7576ZM204.979 21.2365H211.242V44.0929H204.979V27.3165L202.706 27.3162L204.979 21.2365ZM188.296 21.2365H194.513V24.985C195.656 22.608 197.713 21.2365 200.821 21.2365H203.336L201.065 27.3162H199.358C196.022 27.3162 194.559 29.0535 194.559 33.3047V44.0929H188.296V21.2365ZM153.064 27.4077C153.064 17.8991 160.241 10.2649 170.115 10.2649C175.054 10.2649 179.207 12.0434 182.214 14.8775C183.438 16.0307 184.472 17.359 185.292 18.8135L179.715 22.1962C177.658 18.4018 174.503 16.4361 170.161 16.4361C164.081 16.4361 159.372 21.4193 159.372 27.4077C159.372 33.5333 163.989 38.3787 170.389 38.3787C175.235 38.3787 178.663 35.6361 179.852 31.3846H169.383V25.3049H186.709V27.8648C186.709 36.8248 180.309 44.5503 170.389 44.5503C159.967 44.5503 153.064 36.6421 153.064 27.4077ZM145.514 32.6189C145.514 29.2362 143.046 26.4933 139.663 26.4933C136.189 26.4933 133.537 29.0991 133.537 32.6189C133.537 36.1388 136.189 38.7905 139.663 38.7905C143.046 38.7905 145.514 36.002 145.514 32.6189ZM127.412 32.6649C127.412 24.5739 133.354 20.7792 138.52 20.7792C141.492 20.7792 143.823 21.8763 145.332 23.4761V10.7223H151.594V44.0929H145.332V41.5334C143.823 43.3163 141.4 44.5503 138.429 44.5503C133.583 44.5503 127.412 40.7102 127.412 32.6649ZM104.777 21.2365H110.995V23.7963C112.457 21.9219 114.698 20.7792 117.303 20.7792C122.697 20.7792 125.943 24.2534 125.943 30.1503V44.0929H119.589V30.9732C119.589 27.9104 118.172 26.1275 115.383 26.1275C113.006 26.1275 111.04 27.7732 111.04 31.613V44.0929H104.777V21.2365ZM53.6425 38.5618L59.4485 33.9901C61.0939 36.8248 63.6997 38.4703 66.6706 38.4703C69.9168 38.4703 71.6541 36.3678 71.6541 34.0816C71.6541 31.339 68.3164 30.4709 64.7509 29.3731C60.2713 28.0019 55.2882 26.265 55.2882 19.8647C55.2882 14.5164 59.9515 10.2649 66.3966 10.2649C71.8368 10.2649 74.9453 12.3221 77.6426 15.1109L72.3851 19.0878C71.014 17.0309 69.0483 15.9335 66.4423 15.9335C63.471 15.9335 61.8715 17.5336 61.8715 19.6364C61.8715 22.1962 65.0711 23.0653 68.6366 24.2534C73.1627 25.7161 78.2824 27.7276 78.2824 34.1279C78.2824 39.4303 74.0765 44.5503 66.7166 44.5503C60.6828 44.5503 56.66 41.9907 53.6425 38.5618Z" fill="#212F38"/>
<path d="M46.1496 4.05005V30.7456H32.8018V44.0927H6.10664L6.10632 17.3975H19.4541V4.05005H46.1496Z" fill="#9DD6E3"/>
<path d="M6.10632 44.0931H19.4541V30.7454H6.10632V44.0931Z" fill="#3F72AB"/>
<path d="M32.8011 30.7458H46.1489V17.3977H32.8011V30.7458Z" fill="#00A9D1"/>
<path d="M19.4547 17.3978H32.8025V4.05005H19.4547V17.3978Z" fill="#00A9D1"/>
<path d="M19.4547 30.7455H32.8025V17.3977H19.4547V30.7455Z" fill="#2191C4"/>
<path d="M32.8011 17.3978H46.1489V4.05005H32.8011V17.3978Z" fill="#3F72AB"/>
</svg>
