<svg  viewBox="20 16 220 50" fill="none" xmlns="http://www.w3.org/2000/svg"><defs>
<clipPath id="clip0_0_238">
<rect width="76" height="26" fill="white" transform="translate(20 28)"/>
</clipPath>
<clipPath id="clip1_0_238">
<rect width="74" height="26" fill="white" transform="translate(132 28)"/>
</clipPath>
</defs><g clip-path="url(#clip0_0_238)">
<path fill-rule="evenodd" clip-rule="evenodd" d="M22.7131 40.9878C22.7131 35.3 27.4117 30.6726 33.1862 30.6726C38.9615 30.6726 43.6597 35.3 43.6597 40.9878C43.6597 46.6757 38.9615 51.3034 33.1862 51.3034C27.4117 51.3034 22.7131 46.6757 22.7131 40.9878ZM20 40.9877C20 48.1493 25.9154 53.9755 33.1862 53.9755C40.4578 53.9755 46.3732 48.1493 46.3732 40.9877C46.3732 33.8262 40.4578 28 33.1862 28C25.9154 28 20 33.8262 20 40.9877ZM70.9192 28.0164H68.0236L59.5879 49.7558L51.1338 28.0164H48.2195L58.3206 53.9746H59.5879H60.8551L70.9192 28.0164ZM82.8135 30.6951C77.0389 30.6951 72.3403 35.3228 72.3403 41.0103C72.3403 46.6982 77.0389 51.3259 82.8135 51.3259C88.5883 51.3259 93.2866 46.6982 93.2866 41.0103C93.2866 35.3228 88.5883 30.6951 82.8135 30.6951ZM82.8135 53.9985C75.5426 53.9985 69.6269 48.1719 69.6269 41.0104C69.6269 33.8491 75.5426 28.0226 82.8135 28.0226C90.0846 28.0226 96 33.8491 96 41.0104C96 48.1719 90.0846 53.9985 82.8135 53.9985Z" fill="black"/>
<path fill-rule="evenodd" clip-rule="evenodd" d="M42.8828 54H46.9529V28H42.8828V54Z" fill="#EC008C"/>
</g><g clip-path="url(#clip1_0_238)">
<path fill-rule="evenodd" clip-rule="evenodd" d="M134.642 40.9878C134.642 35.3 139.217 30.6726 144.839 30.6726C150.462 30.6726 155.037 35.3 155.037 40.9878C155.037 46.6757 150.462 51.3034 144.839 51.3034C139.217 51.3034 134.642 46.6757 134.642 40.9878ZM132 40.9877C132 48.1493 137.76 53.9755 144.839 53.9755C151.919 53.9755 157.679 48.1493 157.679 40.9877C157.679 33.8262 151.919 28 144.839 28C137.76 28 132 33.8262 132 40.9877ZM181.579 28.0164H178.76L170.546 49.7558L162.315 28.0164H159.477L169.312 53.9746H170.546H171.78L181.579 28.0164ZM193.16 30.6951C187.538 30.6951 182.963 35.3228 182.963 41.0103C182.963 46.6982 187.538 51.3259 193.16 51.3259C198.783 51.3259 203.358 46.6982 203.358 41.0103C203.358 35.3228 198.783 30.6951 193.16 30.6951ZM193.16 53.9985C186.081 53.9985 180.321 48.1719 180.321 41.0104C180.321 33.8491 186.081 28.0226 193.16 28.0226C200.24 28.0226 206 33.8491 206 41.0104C206 48.1719 200.24 53.9985 193.16 53.9985Z" fill="black"/>
<path fill-rule="evenodd" clip-rule="evenodd" d="M154.281 54H158.244V28H154.281V54Z" fill="#EC008C"/>
</g></svg>