<svg width="247" height="48" viewBox="0 0 247 48" fill="none" xmlns="http://www.w3.org/2000/svg">
<path fill-rule="evenodd" clip-rule="evenodd" d="M10.0895 17.0343C6.51077 20.613 6.51077 26.4146 10.0895 29.9931L20.4561 40.36C24.0348 43.9384 29.8365 43.9384 33.4149 40.36L43.7818 29.9931C47.3602 26.4143 47.3602 20.6127 43.7818 17.0343L33.4149 6.6677C29.8361 3.08928 24.0345 3.08928 20.4561 6.6677L10.0895 17.0343ZM31.4709 28.0494C33.976 25.5443 33.976 21.4831 31.4709 18.9783C28.9661 16.4731 24.9049 16.4731 22.4001 18.9783C19.895 21.4834 19.895 25.5443 22.4001 28.0494C24.9052 30.5542 28.9661 30.5542 31.4712 28.0494H31.4709Z" fill="#2962FF"/>
<path d="M61.9095 30.4401C61.924 27.5538 63.6881 25.8626 66.2246 25.8626C68.7466 25.8626 70.2335 27.4808 70.2189 30.2361V43.3854H76.4291V29.1281C76.4436 23.8801 73.3531 20.7021 68.6882 20.7021C65.2917 20.7021 63.0176 22.3058 61.9969 24.9443H61.7346V13.5301H55.6993V43.3854H61.9095V30.4401ZM86.0593 43.8081C89.3683 43.8081 91.5112 42.3647 92.6047 40.2803H92.7796V43.3854H98.669V28.2827C98.669 22.9473 94.15 20.7021 89.1644 20.7021C83.7996 20.7021 80.2719 23.268 79.4116 27.3498L85.1555 27.8161C85.5782 26.3292 86.9047 25.236 89.135 25.236C91.2488 25.236 92.4589 26.3002 92.4589 28.1368V28.2246C92.4589 29.6676 90.9281 29.857 87.0361 30.2361C82.6041 30.6443 78.6246 32.1312 78.6246 37.1313C78.6246 41.5629 81.7878 43.8081 86.0593 43.8081ZM87.8376 39.522C85.928 39.522 84.5576 38.633 84.5576 36.9274C84.5576 35.1779 86.0009 34.3176 88.1877 34.0117C89.5432 33.8223 91.759 33.5016 92.5024 33.0056V35.3821C92.5024 37.7289 90.5638 39.522 87.8376 39.522ZM120.475 27.3789C119.921 23.2532 116.598 20.7021 110.941 20.7021C105.212 20.7021 101.437 23.3555 101.451 27.6706C101.437 31.0231 103.551 33.1954 107.924 34.0701L111.801 34.8426C113.755 35.2363 114.644 35.9507 114.673 37.0729C114.644 38.3998 113.201 39.3471 111.029 39.3471C108.813 39.3471 107.341 38.3998 106.962 36.5773L100.854 36.898C101.437 41.1841 105.081 43.8226 111.014 43.8226C116.816 43.8226 120.971 40.8634 120.986 36.4463C120.971 33.2099 118.857 31.2709 114.513 30.382L110.46 29.5656C108.376 29.1136 107.603 28.3992 107.618 27.3205C107.603 25.9795 109.119 25.1047 111.043 25.1047C113.201 25.1047 114.484 26.2857 114.79 27.7287L120.475 27.3789ZM129.464 30.4401C129.479 27.5538 131.242 25.8626 133.779 25.8626C136.301 25.8626 137.788 27.4808 137.773 30.2361V43.3854H143.983V29.1281C143.998 23.8801 140.907 20.7021 136.243 20.7021C132.846 20.7021 130.572 22.3058 129.552 24.9443H129.289V13.5301H123.254V43.3854H129.464V30.4401ZM153.439 30.4401C153.453 27.5538 155.173 25.8626 157.681 25.8626C160.174 25.8626 161.675 27.4954 161.66 30.2361V43.3854H167.871V29.1281C167.871 23.9095 164.809 20.7021 160.145 20.7021C156.821 20.7021 154.416 22.3349 153.41 24.9443H153.147V20.9938H147.229V43.3854H153.439V30.4401ZM181.24 43.8226C188.034 43.8226 192.261 39.1722 192.261 32.277C192.261 25.338 188.034 20.7021 181.24 20.7021C174.447 20.7021 170.219 25.338 170.219 32.277C170.219 39.1722 174.447 43.8226 181.24 43.8226ZM181.269 39.0119C178.135 39.0119 176.532 36.1401 176.532 32.2332C176.532 28.3262 178.135 25.4403 181.269 25.4403C184.345 25.4403 185.949 28.3266 185.949 32.2332C185.949 36.1401 184.345 39.0119 181.269 39.0119ZM202.908 43.7497C206.523 43.7497 208.404 41.6652 209.264 39.7992H209.526V43.3854H215.649V13.5298H209.453V24.7549H209.264C208.433 22.9328 206.64 20.7021 202.893 20.7021C197.981 20.7021 193.826 24.5216 193.826 32.2186C193.826 39.7117 197.806 43.7497 202.908 43.7497ZM204.876 38.8079C201.829 38.8079 200.167 36.0962 200.167 32.1896C200.167 28.3117 201.8 25.6442 204.876 25.6442C207.894 25.6442 209.585 28.1952 209.585 32.1896C209.585 36.1836 207.864 38.8079 204.876 38.8079ZM229.317 43.8226C234.857 43.8226 238.588 41.1257 239.463 36.971L233.72 36.5921C233.093 38.2975 231.489 39.1867 229.419 39.1867C226.314 39.1867 224.346 37.1313 224.346 33.793V33.7784H239.595V32.0728C239.595 24.4632 234.988 20.7021 229.069 20.7021C222.48 20.7021 218.209 25.3815 218.209 32.2916C218.209 39.391 222.422 43.8226 229.317 43.8226ZM224.346 29.9299C224.477 27.3789 226.416 25.338 229.171 25.338C231.868 25.338 233.734 27.2624 233.749 29.9299H224.346Z" fill="#333333"/>
</svg>
