<svg  viewBox="20 16 220 50" fill="none" xmlns="http://www.w3.org/2000/svg"><defs>
<clipPath id="clip0_0_1624">
<rect width="50" height="50" fill="white" transform="translate(20 16)"/>
</clipPath>
<clipPath id="clip1_0_1624">
<rect width="100" height="24" fill="white" transform="translate(98 29)"/>
</clipPath>
</defs><g clip-path="url(#clip0_0_1624)">
<path d="M44.7515 16.5144C31.0815 16.5144 20 27.4769 20 41C20 54.523 31.0815 65.4856 44.7515 65.4856C58.4214 65.4856 69.5029 54.523 69.5029 41C69.5029 27.4769 58.4231 16.5144 44.7515 16.5144ZM56.501 47.0043C48.036 55.3766 32.9179 52.7059 32.9179 52.7059C32.9179 52.7059 30.1895 37.7784 38.6807 29.3764C43.3855 24.7223 51.1824 24.9147 56.111 29.7611C61.0396 34.6075 61.2057 42.3484 56.501 47.0025V47.0043ZM47.5918 30.8647L45.1694 35.7951L40.1867 38.1912L45.1694 40.5872L47.5918 45.5176L50.0141 40.5872L54.9987 38.1912L50.0141 35.7951L47.5918 30.8647Z" fill="black"/>
</g><g clip-path="url(#clip1_0_1624)">
<path d="M172.492 35.9754C171.872 35.9766 171.258 36.1022 170.687 36.3449C170.117 36.5875 169.6 36.9423 169.169 37.3881V32.6262C169.168 32.5531 169.139 32.4833 169.087 32.4318C169.035 32.3804 168.964 32.3516 168.891 32.3516H167.198C167.125 32.3516 167.055 32.3804 167.003 32.4318C166.951 32.4833 166.922 32.5531 166.921 32.6262V45.5C166.922 45.5731 166.951 45.643 167.003 45.6944C167.055 45.7458 167.125 45.7746 167.198 45.7746H168.891C168.964 45.7746 169.035 45.7458 169.087 45.6944C169.139 45.643 169.168 45.5731 169.169 45.5V44.6127C169.599 45.0595 170.116 45.4148 170.687 45.6574C171.258 45.9 171.872 46.0249 172.492 46.0246C175.133 46.0246 177.268 43.7746 177.268 41C177.268 38.2254 175.133 35.9754 172.492 35.9754ZM172.101 44.0119C170.496 44.0119 169.195 42.6873 169.183 41.0373V40.9619C169.208 39.3119 170.497 37.9873 172.101 37.9873C173.718 37.9873 175.019 39.3373 175.019 40.9992C175.019 42.6611 173.705 44.0111 172.101 44.0111V44.0119ZM183.497 35.9754C180.641 35.9754 178.329 38.2254 178.329 41C178.329 43.7746 180.641 46.0246 183.497 46.0246C186.352 46.0246 188.664 43.7746 188.664 41C188.664 38.2254 186.352 35.9754 183.497 35.9754ZM183.484 44.0119C181.867 44.0119 180.566 42.6619 180.566 41C180.566 39.3381 181.879 37.9881 183.484 37.9881C185.089 37.9881 186.402 39.3381 186.402 41C186.402 42.6619 185.089 44.0119 183.484 44.0119ZM151.898 36.2254H150.206C150.132 36.2254 150.062 36.2542 150.01 36.3057C149.958 36.3571 149.929 36.4269 149.928 36.5V37.3873C149.497 36.9404 148.981 36.5849 148.41 36.3422C147.839 36.0994 147.225 35.9744 146.605 35.9746C143.964 35.9746 141.829 38.2246 141.829 40.9992C141.829 43.7738 143.964 46.0238 146.605 46.0238C147.225 46.0227 147.839 45.8971 148.41 45.6544C148.98 45.4117 149.497 45.057 149.928 44.6111V45.4984C149.929 45.5716 149.958 45.6414 150.01 45.6928C150.062 45.7442 150.132 45.7731 150.206 45.773H151.898C151.972 45.7731 152.042 45.7442 152.094 45.6928C152.146 45.6414 152.175 45.5716 152.176 45.4984V36.5008C152.175 36.4277 152.146 36.3579 152.094 36.3064C152.042 36.255 151.972 36.2262 151.898 36.2262V36.2254ZM146.996 44.0119C145.379 44.0119 144.078 42.6619 144.078 41C144.078 39.3381 145.392 37.9881 146.996 37.9881C148.6 37.9881 149.902 39.3127 149.914 40.9627V41.0381C149.902 42.6881 148.6 44.0127 146.996 44.0127V44.0119ZM160.351 35.9754C159.731 35.9766 159.117 36.1022 158.546 36.3449C157.975 36.5875 157.459 36.9423 157.028 37.3881V36.5008C157.027 36.4277 156.997 36.3579 156.945 36.3064C156.893 36.255 156.823 36.2262 156.75 36.2262H155.057C154.984 36.2262 154.914 36.255 154.862 36.3064C154.81 36.3579 154.78 36.4277 154.779 36.5008V49.3738C154.78 49.447 154.81 49.5168 154.862 49.5682C154.914 49.6196 154.984 49.6484 155.057 49.6484H156.75C156.823 49.6484 156.893 49.6196 156.945 49.5682C156.997 49.5168 157.027 49.447 157.028 49.3738V44.6119C157.458 45.0589 157.974 45.4143 158.545 45.6571C159.116 45.8998 159.73 46.0248 160.351 46.0246C162.991 46.0246 165.126 43.7746 165.126 41C165.126 38.2254 162.991 35.9754 160.351 35.9754ZM159.959 44.0119C158.355 44.0119 157.053 42.6873 157.041 41.0373V40.9619C157.067 39.3119 158.356 37.9873 159.959 37.9873C161.577 37.9873 162.878 39.3373 162.878 40.9992C162.878 42.6611 161.576 44.0111 159.959 44.0111V44.0119ZM136.763 35.9754C136.144 35.9803 135.539 36.1585 135.016 36.4899C134.494 36.8212 134.075 37.2924 133.806 37.85C133.187 36.6873 131.949 35.9627 130.622 35.9754C130.113 35.9762 129.611 36.0965 129.157 36.3266C128.703 36.5566 128.309 36.89 128.007 37.3V36.5008C128.006 36.4277 127.977 36.3579 127.925 36.3064C127.873 36.255 127.802 36.2262 127.729 36.2262H126.037C125.963 36.2262 125.893 36.255 125.841 36.3064C125.789 36.3579 125.76 36.4277 125.759 36.5008V45.5C125.76 45.5731 125.789 45.643 125.841 45.6944C125.893 45.7458 125.963 45.7746 126.037 45.7746H127.729C127.802 45.7746 127.873 45.7458 127.925 45.6944C127.977 45.643 128.006 45.5731 128.007 45.5V40.1135C128.071 38.9135 128.917 37.9516 129.953 37.9516C131.027 37.9516 131.924 38.8389 131.924 40.0016V45.5008C131.925 45.5739 131.954 45.6438 132.006 45.6952C132.058 45.7466 132.128 45.7754 132.202 45.7754H133.907C133.98 45.7754 134.05 45.7466 134.102 45.6952C134.155 45.6438 134.184 45.5739 134.185 45.5008L134.172 39.9016C134.324 38.8016 135.12 37.9516 136.093 37.9516C137.167 37.9516 138.063 38.8389 138.063 40.0016V45.5008C138.064 45.5739 138.094 45.6438 138.146 45.6952C138.198 45.7466 138.268 45.7754 138.341 45.7754H140.047C140.12 45.7754 140.19 45.7466 140.242 45.6952C140.294 45.6438 140.324 45.5739 140.325 45.5008L140.312 39.3143C140.312 37.4643 138.72 35.977 136.762 35.977L136.763 35.9754ZM197.773 45.3865L194.842 40.9746L197.748 36.6C197.824 36.4873 197.786 36.3254 197.672 36.25C197.634 36.2246 197.584 36.2127 197.533 36.2127H195.575C195.423 36.2127 195.284 36.2873 195.209 36.4127L193.503 39.25L191.797 36.4254C191.721 36.3008 191.582 36.2254 191.431 36.2254H189.472C189.333 36.2254 189.22 36.3381 189.22 36.4754C189.22 36.5254 189.232 36.5754 189.258 36.6127L192.163 40.9873L189.233 45.3992C189.156 45.5119 189.194 45.6738 189.308 45.7492C189.35 45.7744 189.398 45.7873 189.447 45.7865H191.406C191.557 45.7865 191.696 45.7111 191.772 45.5865L193.515 42.7119L195.259 45.5865C195.335 45.7119 195.474 45.7865 195.625 45.7865H197.559C197.698 45.7865 197.811 45.6738 197.811 45.5365C197.811 45.4865 197.798 45.4365 197.773 45.3865ZM109.232 29.8889C103.029 29.8889 98 34.8635 98 41C98 47.1365 103.029 52.1111 109.232 52.1111C115.435 52.1111 120.463 47.1365 120.463 41C120.463 34.8635 115.436 29.8889 109.232 29.8889ZM114.563 43.7246C110.722 47.5238 103.862 46.3119 103.862 46.3119C103.862 46.3119 102.624 39.5381 106.477 35.7254C108.612 33.6135 112.15 33.7008 114.386 35.9C116.623 38.0992 116.698 41.6119 114.563 43.7238V43.7246ZM110.521 36.4008L109.421 38.6381L107.16 39.7254L109.421 40.8127L110.521 43.05L111.62 40.8127L113.882 39.7254L111.62 38.6381L110.521 36.4008Z" fill="black"/>
</g></svg>