<svg width="184" height="65" viewBox="0 0 184 65" fill="none" xmlns="http://www.w3.org/2000/svg">
<path d="M111.055 35.3167C111.055 35.3167 110.704 34.0287 110.704 33.0754V18.1589H116.681V46.892L97.5524 31.0539C96.5289 30.1823 95.9257 29.2105 95.9257 29.2105C95.9257 29.2105 96.2265 30.281 96.2265 31.2089L96.2204 46.2433H90.2453V17.6221L109.197 33.1448C110.211 34.0055 111.055 35.3167 111.055 35.3167Z" fill="black"/>
<path d="M165.156 18.1589C174.62 18.1589 177.046 21.8927 177.046 27.2592C177.046 31.151 174.182 34.9573 168.407 35.4108L167.775 35.4393C167.775 35.4393 168.332 35.5396 168.916 36.1026L179.4 46.2433H171.298L156.665 31.384H163.954C170.479 31.384 170.666 27.9448 170.715 27.0741C170.836 24.8474 170.122 23.0604 165.143 23.0604H156.813V46.2433H150.601V18.1589H165.156Z" fill="black"/>
<path d="M119.367 32.6026C119.367 20.836 129.217 17.7478 137.494 17.7478C140.808 17.7478 143.745 18.0432 146.829 18.6973L146.84 24.6623C145.063 24.1193 141.494 22.9215 137.494 22.9215C129.648 22.9215 125.837 25.9696 125.837 32.6026C125.837 38.0354 129.942 41.4977 137.494 41.4977C141.494 41.4977 145.506 40.5451 147.444 39.8279L147.434 45.6163C144.349 46.2688 140.808 46.6714 137.494 46.6714C128.652 46.6714 119.367 42.3738 119.367 32.6026Z" fill="black"/>
<path d="M52.1337 18.8817L57.961 24.3701C57.8044 24.4403 57.6215 24.5282 57.4046 24.6369C57.0701 24.8105 56.6665 25.0465 56.1835 25.3789C55.2248 26.043 53.97 27.0942 52.3687 28.8257L40.9834 40.8746C39.0296 42.9369 37.0456 44.5713 35.2009 45.4343L29.3736 39.9459C29.5317 39.8734 29.7171 39.7886 29.9279 39.6752C30.2644 39.5063 30.6676 39.268 31.1481 38.9348C32.1068 38.2723 33.3631 37.2226 34.9623 35.4926L46.3477 23.46C48.3021 21.3999 50.2889 19.7455 52.1337 18.8817Z" fill="url(#paint0_linear_0_9128)"/>
<path d="M29.5785 48.015C32.1559 48.015 34.5216 47.5029 36.1283 46.6707C36.8618 46.2874 37.9088 45.6256 38.8126 44.9268C39.7111 44.225 40.9804 43.1352 42.0589 41.9898L53.4593 29.9741C56.3326 26.9453 58.0614 26.0113 59.1083 25.6434L64.956 31.1804C63.7359 32.4862 49.1842 47.9849 49.1842 47.9849C48.1891 49.0555 47.1451 50.0882 46.4356 50.7407C45.7547 51.3716 44.5851 52.3064 43.9817 52.7491C40.5601 55.258 35.9873 57.2911 29.8306 57.2911C15.8838 57.2911 4.59998 45.9364 4.59998 32.8633C4.59998 16.6434 17.2718 7.2339 28.8153 7.2339C32.3508 7.12977 35.1912 7.72288 37.4328 8.48567C39.5086 9.19216 41.0752 10.0444 42.2102 10.6244C40.8689 11.4859 39.5695 12.6575 37.4243 14.9482L35.0879 17.4587C34.5486 17.2527 32.161 16.4221 29.0925 16.5131C21.6901 16.7321 13.5902 22.7373 13.8818 32.5818C14.1536 41.7901 21.7443 48.015 29.5785 48.015Z" fill="url(#paint1_linear_0_9128)"/>
<path d="M51.1335 17.7309C50.3968 18.1127 49.349 18.7729 48.4461 19.4748C47.5473 20.1736 46.2783 21.2649 45.1988 22.4087L33.8015 34.4259C30.9266 37.4539 29.1979 38.3872 28.151 38.7559L22.3026 33.2204C23.5249 31.9139 38.0751 16.4159 38.0751 16.4159C39.0702 15.3462 40.1141 14.315 40.8237 13.6578C41.5052 13.0285 42.6751 12.0937 43.2791 11.6502C46.6977 9.1428 51.2766 7.10895 57.4322 7.10895C71.3815 7.10895 82.6591 18.4613 82.6591 31.5336C82.6591 47.7559 69.9886 57.1631 58.444 57.1631C54.9085 57.2695 52.068 56.6741 49.8259 55.9105C47.7471 55.2041 46.1759 54.3487 45.0406 53.7687C46.4597 52.8131 47.6748 51.7603 49.835 49.4542L52.1719 46.9414C52.7107 47.145 55.0989 47.978 58.1653 47.8885C65.5692 47.6687 73.6707 41.6613 73.3783 31.8152C73.1045 22.61 65.5106 16.3851 57.6778 16.3851C55.0989 16.3851 52.7393 16.8956 51.1335 17.7309Z" fill="url(#paint2_linear_0_9128)"/>
<defs>
<linearGradient id="paint0_linear_0_9128" x1="4.71719" y1="57.1407" x2="82.8087" y2="7.39352" gradientUnits="userSpaceOnUse">
<stop stop-color="#2664AD"/>
<stop offset="0.524954" stop-color="#40A756"/>
<stop offset="1" stop-color="#2664AD"/>
</linearGradient>
<linearGradient id="paint1_linear_0_9128" x1="4.71719" y1="57.1407" x2="82.8087" y2="7.39352" gradientUnits="userSpaceOnUse">
<stop stop-color="#2664AD"/>
<stop offset="0.524954" stop-color="#40A756"/>
<stop offset="1" stop-color="#2664AD"/>
</linearGradient>
<linearGradient id="paint2_linear_0_9128" x1="4.71719" y1="57.1407" x2="82.8087" y2="7.39352" gradientUnits="userSpaceOnUse">
<stop stop-color="#2664AD"/>
<stop offset="0.524954" stop-color="#40A756"/>
<stop offset="1" stop-color="#2664AD"/>
</linearGradient>
</defs>
</svg>
