<svg width="162" height="73" viewBox="0 0 162 73" fill="none" xmlns="http://www.w3.org/2000/svg">
<path d="M8.51289 45.2053L12.597 53.9619H11.6515L10.2739 51.0803H6.50131L5.13751 53.9619H4.16077L8.29866 45.2053H8.51289ZM8.4025 47.0659L6.90217 50.235H9.89557L8.4025 47.0659Z" fill="#AB2430"/>
<path d="M12.9266 52.3308L13.671 51.8842C14.1945 52.8486 14.8002 53.3308 15.4865 53.3308C15.7798 53.3308 16.0558 53.2625 16.3143 53.1253C16.7977 52.88 17.1033 52.3849 17.1059 51.8428C17.1059 51.5494 17.0064 51.2611 16.8081 50.9801C16.5344 50.5909 16.034 50.1225 15.3078 49.5749C14.578 49.023 14.1234 48.6243 13.9447 48.3781C13.6354 47.9664 13.4807 47.519 13.4807 47.039C13.4766 46.6733 13.5712 46.3133 13.7545 45.9969C13.9376 45.6829 14.2047 45.4261 14.5257 45.2555C14.857 45.0747 15.2289 44.9815 15.6063 44.9845C16.0188 44.9845 16.4044 45.087 16.7638 45.291C17.1233 45.4958 17.5031 45.872 17.904 46.4196L17.1894 46.9613C16.8597 46.5249 16.5794 46.2373 16.347 46.0986C16.1181 45.9605 15.8555 45.8884 15.5881 45.8902C15.2352 45.8902 14.9462 45.9969 14.7225 46.2119C14.5027 46.4154 14.3804 46.7032 14.3863 47.0027C14.3863 47.1937 14.4262 47.3781 14.5054 47.5568C14.5845 47.7354 14.7298 47.9301 14.9404 48.1407C15.0551 48.2518 15.432 48.5437 16.0711 49.0157C16.8292 49.5756 17.3484 50.0731 17.6302 50.5095C17.912 50.9467 18.0529 51.3853 18.0529 51.8254C18.0529 52.4608 17.8118 53.0127 17.3296 53.4804C16.8474 53.9488 16.2606 54.1826 15.5707 54.1826C15.0569 54.188 14.5532 54.0398 14.1241 53.7571C13.6898 53.4731 13.2912 52.9975 12.9266 52.3308Z" fill="#AB2430"/>
<path d="M19.6564 45.2053H20.5314V53.9619H19.6564V45.2053Z" fill="#AB2430"/>
<path d="M25.9931 45.2053L30.0765 53.9619H29.1317L27.7548 51.0803H23.983L22.6191 53.9619H21.6431L25.7803 45.2053H25.9931ZM25.882 47.0659L24.3824 50.235H27.3758L25.882 47.0659Z" fill="#AB2430"/>
<path d="M31.3178 53.9619V45.2053H31.5088L37.3358 51.9176V45.2053H38.1992V53.9619H38.0024L32.2219 47.3309V53.9619H31.3178Z" fill="#AB2430"/>
<path d="M50.0865 50.7235L50.6798 51.3509C50.2993 51.6886 49.9376 51.9798 49.5949 52.2245C49.9112 52.5199 50.2221 52.8211 50.5273 53.1279C50.8302 53.4286 51.0894 53.7067 51.3073 53.9609H50.0865L48.9253 52.7641C48.1962 53.3523 47.6029 53.735 47.1469 53.9137C46.6858 54.0929 46.195 54.1836 45.7003 54.181C45.0256 54.181 44.4839 53.987 44.0758 53.6007C43.6669 53.2136 43.4621 52.73 43.4621 52.1504C43.4621 51.714 43.6001 51.2761 43.8753 50.8375C44.1506 50.3989 44.7134 49.844 45.5616 49.173C45.0823 48.5935 44.7744 48.1665 44.6371 47.8906C44.4999 47.6146 44.4323 47.3524 44.4323 47.1019C44.4323 46.6655 44.6008 46.3045 44.9385 46.0191C45.327 45.6865 45.8114 45.5195 46.3909 45.5195C46.7554 45.5195 47.0895 45.5929 47.3909 45.7396C47.6922 45.8862 47.9224 46.0845 48.0815 46.3314C48.2405 46.5798 48.3197 46.8426 48.3197 47.1201C48.3197 47.4142 48.2166 47.7264 48.0096 48.0583C47.8026 48.3895 47.3952 48.8128 46.7874 49.3292L48.1149 50.722L48.9841 51.6036C49.4511 51.2623 49.8186 50.9682 50.0865 50.7235ZM46.1382 49.8339C45.3945 50.3938 44.9073 50.8397 44.6763 51.1715C44.4461 51.5034 44.3307 51.8099 44.3307 52.0924C44.3307 52.4257 44.4715 52.7205 44.754 52.9761C45.0365 53.2332 45.3822 53.3603 45.7918 53.3603C46.1056 53.3593 46.4159 53.2946 46.7039 53.17C47.173 52.9674 47.7111 52.6239 48.3175 52.1381L46.9363 50.7155C46.6639 50.4274 46.3978 50.1334 46.1382 49.8339ZM46.2449 48.6749C46.6698 48.3459 46.99 48.0227 47.205 47.7046C47.356 47.4781 47.4315 47.2776 47.4315 47.1034C47.4315 46.9015 47.3335 46.7265 47.136 46.5798C46.9384 46.4331 46.6777 46.3597 46.3509 46.3597C46.0401 46.3597 45.7881 46.4353 45.5928 46.5863C45.3974 46.7374 45.3001 46.916 45.3001 47.1215C45.3001 47.2805 45.3401 47.4301 45.42 47.5681C45.6153 47.9058 45.8905 48.2747 46.2449 48.6749Z" fill="#AB2430"/>
<path d="M55.8132 45.2053H57.5575C58.5575 45.2053 59.2322 45.2489 59.5815 45.3361C60.0811 45.4595 60.4899 45.713 60.8073 46.0957C61.1246 46.4784 61.2829 46.9591 61.2829 47.5386C61.2829 48.1218 61.1283 48.6032 60.8189 48.9823C60.5095 49.3607 60.0825 49.6163 59.5393 49.747C59.1421 49.8421 58.4007 49.8901 57.3128 49.8901H56.6883V53.9611H55.8132V45.2053ZM56.6883 46.0623V49.0331L58.1704 49.0506C58.7696 49.0506 59.2082 48.9961 59.4863 48.8872C59.7555 48.7854 59.9849 48.5998 60.1406 48.3578C60.2997 48.1145 60.3788 47.8422 60.3788 47.5408C60.3788 47.2481 60.2997 46.9802 60.1406 46.7362C59.9914 46.5008 59.7715 46.3188 59.5125 46.2162C59.2532 46.1131 58.8269 46.0615 58.2358 46.0615L56.6883 46.0623Z" fill="#AB2430"/>
<path d="M65.5841 45.2053L69.6676 53.9619H68.722L67.3452 51.0803H63.5733L62.2095 53.9619H61.2335L65.3699 45.2053H65.5841ZM65.4737 47.0659L63.9734 50.235H66.9675L65.4737 47.0659Z" fill="#AB2430"/>
<path d="M79.0583 46.8297L78.3677 47.3591C77.9864 46.8631 77.5296 46.4877 76.9951 46.2313C76.4606 45.975 75.8753 45.8472 75.2355 45.8472C74.5562 45.8425 73.8875 46.0158 73.2959 46.3497C72.7004 46.6852 72.2393 47.1362 71.9117 47.7012C71.5842 48.2661 71.4208 48.9023 71.4208 49.6089C71.4208 50.6771 71.7868 51.5667 72.5188 52.282C73.2508 52.9959 74.1746 53.3539 75.29 53.3539C76.5158 53.3539 77.5427 52.8739 78.3677 51.9138L79.0583 52.4374C78.624 52.9911 78.0638 53.433 77.4243 53.7264C76.7715 54.0293 76.0424 54.181 75.2363 54.181C73.7055 54.181 72.497 53.6712 71.6118 52.6517C70.8696 51.7904 70.4985 50.7512 70.4985 49.5326C70.4985 48.2509 70.9481 47.1725 71.8471 46.2974C72.7461 45.4223 73.8725 44.9844 75.2247 44.9844C76.0424 44.9844 76.7809 45.1464 77.4388 45.4695C78.0831 45.7817 78.6396 46.2491 79.0583 46.8297Z" fill="#AB2430"/>
<path d="M80.5671 45.2053H81.4422V53.9619H80.5671V45.2053Z" fill="#AB2430"/>
<path d="M83.3262 45.2053H87.7139V46.0623H84.2013V48.8066H87.7139V49.6642H84.2013V53.9619H83.3262V45.2053Z" fill="#AB2430"/>
<path d="M88.9911 45.2053H89.8655V53.9619H88.9911V45.2053Z" fill="#AB2430"/>
<path d="M99.9043 46.8297L99.2137 47.3591C98.8528 46.8793 98.3824 46.4926 97.8419 46.2313C97.292 45.9716 96.6904 45.8402 96.0823 45.8472C95.4027 45.8424 94.7337 46.0157 94.1419 46.3497C93.5664 46.6663 93.088 47.1334 92.7577 47.7012C92.4309 48.2661 92.2668 48.9023 92.2668 49.6089C92.2668 50.6771 92.6328 51.5667 93.3648 52.282C94.0976 52.9959 95.0206 53.3539 96.136 53.3539C97.3618 53.3539 98.388 52.8739 99.2129 51.9138L99.9035 52.4374C99.4691 52.9909 98.909 53.4328 98.2696 53.7264C97.6167 54.0293 96.8876 54.181 96.0816 54.181C94.55 54.181 93.3416 53.6712 92.4571 52.6517C91.7149 51.7904 91.3438 50.7512 91.3438 49.5326C91.3438 48.2509 91.7934 47.1725 92.6917 46.2974C93.5907 45.4223 94.7163 44.9844 96.0699 44.9844C96.8869 44.9844 97.6255 45.1464 98.2841 45.4695C98.9288 45.7813 99.4856 46.2487 99.9043 46.8297Z" fill="#AB2430"/>
<path d="M104.668 45.2053H105.543V53.9619H104.668V45.2053Z" fill="#AB2430"/>
<path d="M106.521 52.3307L107.265 51.8841C107.788 52.8485 108.394 53.3307 109.08 53.3307C109.374 53.3307 109.649 53.2624 109.908 53.1251C110.166 52.9886 110.363 52.8056 110.498 52.5747C110.633 52.3452 110.7 52.1005 110.7 51.8427C110.7 51.5493 110.6 51.261 110.402 50.9799C110.129 50.5907 109.629 50.1223 108.902 49.5747C108.172 49.0228 107.718 48.6242 107.539 48.378C107.23 47.9662 107.075 47.5189 107.075 47.0389C107.071 46.6732 107.166 46.3132 107.349 45.9968C107.531 45.683 107.788 45.4369 108.12 45.2553C108.452 45.0738 108.811 44.9844 109.2 44.9844C109.612 44.9844 109.999 45.0868 110.358 45.2909C110.717 45.4957 111.098 45.8719 111.498 46.4194L110.783 46.9612C110.454 46.5247 110.173 46.2371 109.941 46.0984C109.712 45.9604 109.45 45.8883 109.183 45.89C108.83 45.89 108.541 45.9968 108.317 46.2117C108.092 46.4259 107.98 46.6896 107.98 47.0025C107.98 47.1935 108.02 47.378 108.099 47.5566C108.178 47.7353 108.323 47.9299 108.534 48.1405C108.649 48.2516 109.026 48.5435 109.665 49.0156C110.424 49.5755 110.943 50.0729 111.225 50.5094C111.506 50.9465 111.647 51.3852 111.647 51.8252C111.647 52.4607 111.406 53.0126 110.924 53.4803C110.442 53.9479 109.855 54.1825 109.165 54.1825C108.651 54.1878 108.148 54.0397 107.718 53.7569C107.285 53.473 106.886 52.9973 106.521 52.3307Z" fill="#AB2430"/>
<path d="M113.376 45.2053H114.251V53.1166H117.62V53.9619H113.376V45.2053Z" fill="#AB2430"/>
<path d="M122.463 45.2053L126.546 53.9619H125.6L124.224 51.0803H120.452L119.087 53.9619H118.111L122.248 45.2053H122.463ZM122.351 47.0659L120.852 50.235H123.845L122.351 47.0659Z" fill="#AB2430"/>
<path d="M127.788 53.9619V45.2053H127.977L133.806 51.9176V45.2053H134.668V53.9619H134.472L128.692 47.3309V53.9619H127.788Z" fill="#AB2430"/>
<path d="M136.678 53.9619V45.2053H138.493C139.803 45.2053 140.753 45.3106 141.344 45.5212C142.194 45.819 142.858 46.3346 143.336 47.0688C143.814 47.803 144.053 48.678 144.053 49.694C144.053 50.5705 143.864 51.3432 143.484 52.0091C143.106 52.6758 142.614 53.1681 142.009 53.4848C141.403 53.8028 140.555 53.9611 139.464 53.9611L136.678 53.9619ZM137.517 53.134H138.529C139.739 53.134 140.579 53.0585 141.047 52.9074C141.706 52.6932 142.224 52.3083 142.601 51.7506C142.978 51.1936 143.167 50.5131 143.167 49.7085C143.167 48.8639 142.962 48.1421 142.553 47.5437C142.145 46.9453 141.575 46.5343 140.845 46.3128C140.296 46.1465 139.394 46.0623 138.136 46.0623H137.517V53.134Z" fill="#AB2430"/>
<path d="M145.633 45.2053H150.651V46.0623H146.508V48.8066H150.616V49.6642H146.508V53.1042H150.616V53.9619H145.633V45.2053Z" fill="#AB2430"/>
<path d="M152.089 45.2053H153.833C154.805 45.2053 155.464 45.2453 155.81 45.3244C156.307 45.4297 156.753 45.6996 157.078 46.0906C157.402 46.482 157.566 46.9635 157.566 47.5357C157.566 48.0121 157.454 48.4319 157.229 48.7928C157.004 49.1544 156.684 49.4275 156.268 49.6127C155.851 49.7971 155.276 49.8922 154.541 49.8959L157.691 53.9619H156.608L153.459 49.8959H152.964V53.9619H152.089V45.2053ZM152.965 46.0623V49.039L154.473 49.0513C155.057 49.0513 155.489 48.9961 155.77 48.885C156.05 48.7746 156.269 48.5967 156.426 48.3527C156.582 48.1087 156.661 47.8356 156.661 47.5335C156.661 47.2409 156.582 46.9736 156.422 46.7333C156.272 46.5007 156.054 46.3207 155.797 46.2184C155.538 46.1153 155.109 46.063 154.509 46.063H152.965V46.0623Z" fill="#AB2430"/>
<path d="M8.51289 59.8347L12.597 68.5912H11.6515L10.2746 65.7104H6.50131L5.13751 68.5912H4.16077L8.29793 59.8347H8.51289ZM8.4025 61.6952L6.90217 64.8643H9.89557L8.4025 61.6952Z" fill="#AB2430"/>
<path d="M13.4322 68.5905L14.6857 59.8347H14.8287L18.3886 67.019L21.9135 59.8347H22.0537L23.3137 68.5905H22.456L21.5911 62.3284L18.4946 68.5905H18.2709L15.1381 62.2812L14.2775 68.5905H13.4322Z" fill="#AB2430"/>
<path d="M24.9178 59.8347H29.9358V60.6916H25.7928V63.4359H29.9002V64.2928H25.7928V67.7343H29.9002V68.5905H24.9178V59.8347Z" fill="#AB2430"/>
<path d="M31.3738 59.8347H33.1181C34.0898 59.8347 34.7492 59.8746 35.0941 59.9538C35.591 60.059 36.0378 60.329 36.3621 60.7199C36.6874 61.1113 36.8501 61.5928 36.8501 62.165C36.8501 62.6414 36.7382 63.0612 36.5138 63.4228C36.2894 63.7845 35.9692 64.0575 35.5524 64.242C35.1355 64.4264 34.5596 64.5216 33.8262 64.5259L36.975 68.5912H35.8922L32.7434 64.5259H32.2489V68.5912H31.3738V59.8347ZM32.2496 60.6916V63.6683L33.7579 63.6806C34.3425 63.6806 34.7746 63.6254 35.0549 63.5136C35.325 63.4113 35.555 63.2246 35.7107 62.9813C35.8678 62.7375 35.9498 62.4529 35.9467 62.1629C35.9467 61.8695 35.8668 61.6022 35.7078 61.3619C35.5577 61.1293 35.3389 60.9493 35.0818 60.847C34.8232 60.7439 34.3941 60.6923 33.7942 60.6923H32.2496V60.6916Z" fill="#AB2430"/>
<path d="M38.4787 59.8347H39.3538V68.5912H38.4787V59.8347Z" fill="#AB2430"/>
<path d="M49.3929 61.4601L48.7023 61.9895C48.3211 61.4935 47.8636 61.1181 47.3298 60.8617C46.796 60.6054 46.21 60.4783 45.5709 60.4783C44.8723 60.4783 44.2253 60.6453 43.6298 60.9808C43.0545 61.2969 42.5762 61.7639 42.2464 62.3315C41.9189 62.8972 41.7555 63.5327 41.7555 64.2393C41.7555 65.3075 42.1215 66.1978 42.8535 66.9124C43.5855 67.627 44.5092 67.9843 45.624 67.9843C46.8505 67.9843 47.8766 67.5043 48.7016 66.5442L49.3922 67.0685C48.9558 67.6241 48.4111 68.0533 47.7583 68.3568C47.1054 68.6604 46.3763 68.8121 45.5709 68.8121C44.0394 68.8121 42.8303 68.3016 41.9457 67.2828C41.2036 66.4208 40.8325 65.3816 40.8325 64.163C40.8325 62.8813 41.282 61.8029 42.1803 60.9285C43.0793 60.0527 44.205 59.6148 45.5579 59.6148C46.3756 59.6148 47.1134 59.7775 47.7728 60.1006C48.4179 60.4113 48.9749 60.8787 49.3929 61.4601Z" fill="#AB2430"/>
<path d="M54.6049 59.8347L58.6884 68.5912H57.7436L56.3667 65.7104H52.5948L51.231 68.5912H50.255L54.3922 59.8347H54.6049ZM54.4938 61.6952L52.9942 64.8643H55.9876L54.4938 61.6952Z" fill="#AB2430"/>
<path d="M59.9293 68.5905V59.8347H60.1195L65.9473 66.5462V59.8347H66.81V68.5905H66.614L60.8334 61.9595V68.5905H59.9293Z" fill="#AB2430"/>
<path d="M72.0615 59.8347H72.9359V63.5071H77.3955V59.8347H78.2698V68.5905H77.3955V64.3647H72.9359V68.5905H72.0615V59.8347Z" fill="#1A1919"/>
<path d="M80.2852 59.8347H85.3032V60.6916H81.1602V63.4359H85.2676V64.2928H81.1602V67.7343H85.2676V68.5905H80.2852V59.8347Z" fill="#1A1919"/>
<path d="M90.271 59.8347L94.3544 68.5912H93.4089L92.032 65.7104H88.2602L86.8963 68.5912H85.9196L90.0568 59.8347H90.271ZM90.1599 61.6952L88.6603 64.8643H91.653L90.1599 61.6952Z" fill="#1A1919"/>
<path d="M95.5889 59.8347H96.464V67.7452H99.8328V68.5905H95.5889V59.8347Z" fill="#1A1919"/>
<path d="M99.6703 60.6916V59.8347H104.467V60.6916H102.515V68.5905H101.622V60.6916H99.6703Z" fill="#1A1919"/>
<path d="M105.596 59.8347H106.471V63.5071H110.929V59.8347H111.804V68.5905H110.929V64.3647H106.471V68.5905H105.596V59.8347Z" fill="#1A1919"/>
<path d="M117.066 59.8347H121.454V60.6916H117.942V63.4359H121.454V64.2928H117.942V68.5905H117.066V59.8347Z" fill="#1A1919"/>
<path d="M127.026 59.6138C128.352 59.6138 129.461 60.0568 130.356 60.9413C131.248 61.8265 131.696 62.9165 131.696 64.2092C131.696 65.4916 131.25 66.5788 130.359 67.4713C129.467 68.3638 128.38 68.8111 127.097 68.8111C125.799 68.8111 124.703 68.3667 123.81 67.4778C122.917 66.5882 122.469 65.5134 122.469 64.2513C122.469 63.4103 122.673 62.6304 123.08 61.9122C123.487 61.194 124.042 60.6312 124.745 60.2245C125.447 59.8178 126.207 59.6138 127.026 59.6138ZM127.065 60.4649C126.416 60.4649 125.803 60.6341 125.222 60.9718C124.655 61.2961 124.185 61.7672 123.863 62.3356C123.537 62.9078 123.374 63.5454 123.374 64.2484C123.374 65.289 123.734 66.1677 124.455 66.8845C125.177 67.602 126.047 67.9593 127.065 67.9593C127.744 67.9593 128.373 67.7944 128.951 67.4647C129.518 67.1472 129.987 66.6793 130.305 66.1125C130.629 65.541 130.792 64.9056 130.792 64.2063C130.792 63.5113 130.629 62.8831 130.305 62.321C129.979 61.7563 129.506 61.2902 128.937 60.9718C128.369 60.6396 127.723 60.4646 127.065 60.4649Z" fill="#1A1919"/>
<path d="M133.377 59.8347H135.121C136.094 59.8347 136.752 59.8746 137.098 59.9538C137.595 60.059 138.042 60.329 138.366 60.7199C138.69 61.1113 138.854 61.5928 138.854 62.1651C138.854 62.6414 138.742 63.0612 138.518 63.4228C138.293 63.7845 137.972 64.0575 137.556 64.242C137.139 64.4264 136.564 64.5216 135.829 64.5259L138.979 68.5912H137.896L134.747 64.5259H134.253V68.5912H133.377V59.8347ZM134.253 60.6916V63.6683L135.761 63.6806C136.345 63.6806 136.777 63.6254 137.057 63.5136C137.338 63.4032 137.557 63.2253 137.713 62.9813C137.87 62.7376 137.952 62.4529 137.948 62.1629C137.948 61.8695 137.869 61.6023 137.71 61.3619C137.56 61.1293 137.341 60.9493 137.084 60.847C136.826 60.7439 136.396 60.6923 135.797 60.6923H134.253V60.6916Z" fill="#1A1919"/>
<path d="M140.636 59.8347H141.511V65.1207C141.511 65.7474 141.523 66.1381 141.547 66.2928C141.591 66.6385 141.692 66.9268 141.851 67.1584C142.009 67.3908 142.254 67.5854 142.583 67.7423C142.912 67.8992 143.243 67.9776 143.577 67.9776C143.866 67.9776 144.144 67.9159 144.41 67.7924C144.676 67.6697 144.898 67.4997 145.076 67.2812C145.255 67.0626 145.387 66.7982 145.469 66.4889C145.529 66.2667 145.559 65.8106 145.559 65.12V59.834H146.434V65.12C146.434 65.9014 146.357 66.5332 146.205 67.0154C146.052 67.4976 145.747 67.9166 145.288 68.2739C144.83 68.6312 144.274 68.8098 143.624 68.8098C142.917 68.8098 142.312 68.6413 141.809 68.3036C141.305 67.966 140.967 67.5201 140.796 66.9645C140.689 66.6232 140.635 66.0081 140.635 65.1193V59.8347" fill="#1A1919"/>
<path d="M148.068 68.5905L149.323 59.8347H149.464L153.025 67.019L156.55 59.8347H156.689L157.95 68.5905H157.092L156.227 62.3285L153.13 68.5905H152.907L149.774 62.2812L148.913 68.5905H148.068Z" fill="#1A1919"/>
<path d="M121.114 17.0563H110.693V4.10237H100.854V40.8641H110.693V25.6974H121.114V40.8641H130.953V4.10237H121.114V17.0563Z" fill="#1A1919"/>
<path d="M157.709 12.8553V4.09955L132.63 4.15111V40.8642H142.469V26.6197H157.521V17.9322H142.469V12.9004L157.709 12.8553Z" fill="#1A1919"/>
<path d="M22.3256 4.08783L39.4763 40.8641H35.5069L29.7227 28.7641H13.8792L8.15018 40.8641H4.05005L21.4258 4.08783H22.3256ZM21.8616 11.9017L15.5596 25.2137H28.133L21.8616 11.9017Z" fill="#AB2430"/>
<path d="M39.519 4.08783H46.8449C51.0452 4.08783 53.8789 4.27083 55.3451 4.63756C57.4452 5.15462 59.1613 6.21705 60.4953 7.82558C61.8293 9.43412 62.4952 11.4551 62.4952 13.8886C62.4952 16.3388 61.8453 18.3598 60.5454 19.9517C59.2448 21.5435 57.4532 22.6139 55.1701 23.1637C53.5034 23.5638 50.3858 23.7642 45.8195 23.7642H43.1943V40.8641H39.519V4.08783ZM43.1943 7.68833V20.1637L49.4193 20.2385C51.9356 20.2385 53.7779 20.0105 54.9442 19.553C56.1105 19.0955 57.0277 18.3555 57.6943 17.3323C58.3603 16.3098 58.6943 15.166 58.6943 13.901C58.703 12.7 58.3549 11.5235 57.6943 10.5205C57.0277 9.4973 56.1482 8.76964 55.0568 8.33755C53.9653 7.90474 52.1774 7.68833 49.6938 7.68833H43.1943Z" fill="#AB2430"/>
<path d="M63.6885 4.08783H67.3638V40.8641H63.6885V4.08783Z" fill="#AB2430"/>
<path d="M85.1827 4.08783L102.333 40.8641H98.3633L92.5791 28.7641H76.7363L71.0066 40.8641H66.9065L84.2822 4.08783H85.1827ZM84.718 11.9017L78.4167 25.2137H90.9902L84.718 11.9017Z" fill="#AB2430"/>
</svg>
