<svg width="184" height="65" viewBox="0 0 184 65" fill="none" xmlns="http://www.w3.org/2000/svg">
<path d="M94.6277 24.5058C102.658 24.5058 108.374 30.6161 108.374 38.3757C108.374 46.2604 102.597 52.2316 94.6277 52.2316C86.6549 52.2316 80.8815 46.3182 80.8815 38.3757C80.8815 30.5599 86.6363 24.5058 94.6277 24.5058ZM123.491 24.5058C131.521 24.5058 137.237 30.6161 137.237 38.3757C137.237 46.2604 131.457 52.2316 123.491 52.2316C115.518 52.2316 109.745 46.3182 109.745 38.3757C109.745 30.5599 115.499 24.5058 123.491 24.5058ZM169.929 24.5326C174.77 24.5326 179.4 27.4612 179.4 34.4882V51.4727H172.536V35.9269C172.536 33.1044 171.151 30.9755 167.905 30.9755C164.871 30.9755 163.061 33.3184 163.061 36.1409V51.4743H156.039V35.9269C156.039 33.1044 154.602 30.9755 151.408 30.9755C148.321 30.9755 146.511 33.2653 146.511 36.1409V51.4743H139.436V25.2776H146.194V28.4733C147.63 25.918 150.984 24.5326 153.857 24.5326C157.424 24.5326 160.296 26.0773 161.626 28.8982C163.7 25.7025 166.47 24.5326 169.929 24.5326ZM78.6342 12.9258V51.4727H71.5571V12.9258H78.6342ZM123.491 30.8285C119.332 30.8285 115.948 34.2147 115.948 38.3741C115.948 42.5337 119.332 45.9199 123.491 45.9199C127.65 45.9199 131.034 42.5337 131.034 38.3741C131.032 34.2147 127.648 30.8285 123.491 30.8285ZM94.6277 30.9175C90.5156 30.9175 87.1707 34.2631 87.1707 38.3774C87.1707 42.4915 90.5156 45.8371 94.6277 45.8371C98.7398 45.8371 102.083 42.4915 102.083 38.3774C102.083 34.2631 98.7398 30.9175 94.6277 30.9175Z" fill="#222222"/>
<path d="M57.2931 29.27H41.8849L55.2291 21.5656L52.2987 16.4885L38.9544 24.1927L46.657 10.8495L41.5797 7.9173L33.8771 21.2605V5.85339H28.0159V21.262L20.3103 7.9173L15.2347 10.8481L22.9388 24.1913L9.5945 16.4885L6.66383 21.5642L20.0081 29.2685H4.59998V35.13H20.0066L6.66383 42.8343L9.5945 47.9115L22.9373 40.2086L15.2333 53.5518L20.3103 56.4825L28.0144 43.138V58.5465H33.8758V43.1394L41.5783 56.4825L46.6553 53.5518L38.9513 40.2073L52.2956 47.9115L55.2263 42.8343L41.8835 35.1314H57.29V29.27H57.2931ZM30.9465 40.1717C26.527 40.1717 22.9447 36.5895 22.9447 32.1697C22.9447 27.75 26.527 24.1677 30.9465 24.1677C35.3661 24.1677 38.9483 27.75 38.9483 32.1697C38.9483 36.5895 35.3661 40.1717 30.9465 40.1717Z" fill="#625DF5"/>
</svg>
