<svg width="250" height="82" viewBox="0 0 250 82" fill="none" xmlns="http://www.w3.org/2000/svg">
<path d="M239.042 0V0.5H244C247.038 0.5 249.5 2.96243 249.5 6V10.667H250V15.333H249.5V24.667H250V29.333H249.5V38.667H250V43.333H249.5V52.667H250V57.333H249.5V66.667H250V71.333H249.5V76C249.5 79.0376 247.038 81.5 244 81.5H239.042V82H234.083V81.5H224.167V82H219.208V81.5H209.292V82H204.333V81.5H194.417V82H189.458V81.5H179.542V82H174.583V81.5H164.667V82H159.708V81.5H149.792V82H144.833V81.5H134.917V82H129.958V81.5H120.042V82H115.083V81.5H105.167V82H100.208V81.5H90.292V82H85.333V81.5H75.417V82H70.458V81.5H60.542V82H55.583V81.5H45.667V82H40.708V81.5H30.792V82H25.833V81.5H15.917V82H10.958V81.5H6C2.96243 81.5 0.5 79.0376 0.5 76V71.333H0V66.667H0.5V57.333H0V52.667H0.5V43.333H0V38.667H0.5V29.333H0V24.667H0.5V15.333H0V10.667H0.5V6C0.5 2.96243 2.96243 0.5 6 0.5H10.958V0H15.917V0.5H25.833V0H30.792V0.5H40.708V0H45.667V0.5H55.583V0H60.542V0.5H70.458V0H75.417V0.5H85.333V0H90.292V0.5H100.208V0H105.167V0.5H115.083V0H120.042V0.5H129.958V0H134.917V0.5H144.833V0H149.792V0.5H159.708V0H164.667V0.5H174.583V0H179.542V0.5H189.458V0H194.417V0.5H204.333V0H209.292V0.5H219.208V0H224.167V0.5H234.083V0H239.042Z" stroke="#722ED1" stroke-dasharray="10 5"/>
<g clip-path="url(#clip0_0_1497)">
<path d="M70.0287 38.3834H54.7884L67.9866 30.7667L65.3692 26.2333L52.1694 33.85L59.7879 20.6583L55.2535 18.0417L47.6334 31.23V16H42.3953V31.2317L34.7752 18.0417L30.2391 20.6583L37.8576 33.8467L24.6611 26.2333L22.0422 30.7667L35.2403 38.3834H20V43.6183H35.2387L22.0422 51.2351L24.6595 55.7683L37.8593 48.1517L30.2391 61.3433L34.7736 63.9601L42.3953 50.77V66H47.6334V50.4433L55.3935 63.8767L59.6463 61.4233L51.8843 47.9868L65.3659 55.7666L67.9849 51.2334L54.7884 43.6166H70.0271V38.3834H70.0287ZM45.0144 48.1166C44.0793 48.1168 43.1534 47.9328 42.2896 47.5752C41.4257 47.2175 40.6407 46.6933 39.9795 46.0323C39.3183 45.3715 38.7937 44.5868 38.4358 43.7231C38.0779 42.8595 37.8936 41.934 37.8935 40.9993C37.8933 40.0644 38.0774 39.1386 38.4351 38.275C38.7929 37.4114 39.3172 36.6265 39.9784 35.9655C40.6394 35.3045 41.4241 34.78 42.2881 34.4222C43.1519 34.0643 44.0776 33.8802 45.0127 33.88C46.9009 33.8798 48.7121 34.6295 50.0476 35.9644C51.383 37.2993 52.1334 39.1097 52.1336 40.9976C52.1338 42.8853 51.384 44.6961 50.0487 46.0312C48.7136 47.3664 46.9026 48.1164 45.0144 48.1166Z" fill="#5753F3"/>
</g>
<g clip-path="url(#clip1_0_1497)">
<path d="M128.01 39.43H118.868L126.785 34.86L125.215 32.14L117.297 36.71L121.867 28.795L119.147 27.225L114.576 35.138V26H111.434V35.139L106.863 27.225L104.142 28.795L108.712 36.708L100.796 32.14L99.225 34.86L107.142 39.43H98V42.571H107.141L99.225 47.141L100.795 49.861L108.713 45.291L104.142 53.206L106.862 54.776L111.434 46.862V56H114.576V46.666L119.231 54.726L121.782 53.254L117.126 45.192L125.213 49.86L126.784 47.14L118.868 42.57H128.009V39.43H128.01ZM113.005 45.27C112.444 45.2701 111.889 45.1597 111.37 44.9451C110.852 44.7305 110.381 44.416 109.985 44.0194C109.588 43.6229 109.273 43.1521 109.059 42.6339C108.844 42.1157 108.734 41.5604 108.733 40.9995C108.733 40.4386 108.844 39.8832 109.058 39.365C109.273 38.8468 109.588 38.3759 109.984 37.9793C110.381 37.5827 110.851 37.268 111.37 37.0533C111.888 36.8386 112.443 36.7281 113.004 36.728C114.137 36.7279 115.223 37.1777 116.024 37.9786C116.825 38.7795 117.275 39.8658 117.275 40.9985C117.276 42.1312 116.826 43.2176 116.025 44.0187C115.224 44.8198 114.138 45.2699 113.005 45.27Z" fill="#5753F3"/>
<path d="M136.109 51.9731V30.0271H140.137V51.9731H136.109ZM174.742 37.0591H178.588V38.8791C179.406 37.4241 181.315 36.6351 182.95 36.6351C184.98 36.6351 186.615 37.5151 187.372 39.1201C188.552 37.3001 190.128 36.6351 192.097 36.6351C194.853 36.6351 197.487 38.3021 197.487 42.3031V51.9731H193.581V43.1221C193.581 41.5151 192.793 40.3021 190.945 40.3021C189.218 40.3021 188.188 41.6371 188.188 43.2441V51.9741H184.192V43.1221C184.192 41.5151 183.374 40.3021 181.556 40.3021C179.799 40.3021 178.769 41.6071 178.769 43.2441V51.9741H174.742V37.0591ZM149.24 52.4051C144.702 52.4051 141.416 49.0381 141.416 44.5161C141.416 40.0661 144.692 36.6201 149.24 36.6201C153.81 36.6201 157.064 40.0981 157.064 44.5161C157.064 49.0061 153.776 52.4051 149.24 52.4051ZM149.24 40.2701C148.115 40.2717 147.036 40.7197 146.24 41.516C145.444 42.3122 144.997 43.3915 144.996 44.5171C144.997 45.6427 145.444 46.722 146.24 47.5182C147.036 48.3145 148.115 48.7625 149.24 48.7641C150.366 48.7622 151.445 48.3141 152.24 47.5179C153.035 46.7217 153.483 45.6425 153.483 44.5171C153.483 43.3917 153.035 42.3125 152.24 41.5163C151.445 40.7201 150.366 40.272 149.24 40.2701ZM165.667 52.4051C161.129 52.4051 157.843 49.0381 157.843 44.5161C157.843 40.0661 161.119 36.6201 165.667 36.6201C170.237 36.6201 173.491 40.0981 173.491 44.5161C173.491 49.0061 170.201 52.4051 165.667 52.4051ZM165.667 40.2191C164.529 40.221 163.437 40.6743 162.633 41.4796C161.828 42.2849 161.375 43.3766 161.374 44.5151C161.375 45.6536 161.828 46.7453 162.633 47.5506C163.437 48.3559 164.529 48.8092 165.667 48.8111C166.806 48.8092 167.897 48.3559 168.702 47.5506C169.507 46.7453 169.959 45.6536 169.96 44.5151C169.959 43.3766 169.507 42.2849 168.702 41.4796C167.897 40.6743 166.806 40.221 165.667 40.2191Z" fill="#1E1E1E"/>
</g>
<defs>
<clipPath id="clip0_0_1497">
<rect width="50" height="50" fill="white" transform="translate(20 16)"/>
</clipPath>
<clipPath id="clip1_0_1497">
<rect width="100" height="30" fill="white" transform="translate(98 26)"/>
</clipPath>
</defs>
</svg>
