<svg  viewBox="20 16 50 50" fill="none" xmlns="http://www.w3.org/2000/svg"><defs>
<clipPath id="clip0_0_2400">
<rect width="50" height="50" fill="white" transform="translate(20 16)"/>
</clipPath>
<clipPath id="clip1_0_2400">
<rect width="100" height="34.4969" fill="white" transform="translate(106 24)"/>
</clipPath>
</defs><g clip-path="url(#clip0_0_2400)">
<path d="M45 66C58.8071 66 70 54.8071 70 41C70 27.1929 58.8071 16 45 16C31.1929 16 20 27.1929 20 41C20 54.8071 31.1929 66 45 66Z" fill="#FF4500"/>
<path d="M61.6744 41C61.6794 41.3425 61.6369 41.6844 61.5469 42.015C61.4569 42.3456 61.3206 42.6625 61.1419 42.955C60.9638 43.2475 60.745 43.5138 60.4925 43.7456C60.24 43.9775 59.9563 44.1725 59.6494 44.325C59.6563 44.4163 59.6619 44.5081 59.665 44.6C59.6725 44.7833 59.6725 44.9667 59.665 45.15C59.6619 45.2419 59.6563 45.3337 59.6494 45.425C59.6494 51.025 53.1244 55.575 45.0744 55.575C37.0244 55.575 30.4994 51.025 30.4994 45.425C30.4925 45.3337 30.4869 45.2419 30.4838 45.15C30.4762 44.9667 30.4762 44.7833 30.4838 44.6C30.4869 44.5081 30.4925 44.4163 30.4994 44.325C30.0186 44.104 29.5916 43.7812 29.2479 43.3789C28.9042 42.9766 28.652 42.5044 28.5088 41.995C28.3658 41.4854 28.3353 40.9508 28.4195 40.4282C28.5037 39.9057 28.7005 39.4077 28.9963 38.9688C29.2918 38.5299 29.6793 38.1606 30.1318 37.8865C30.5843 37.6123 31.0911 37.4399 31.6169 37.3813C32.1428 37.3223 32.6752 37.3784 33.1772 37.5457C33.6793 37.713 34.139 37.9874 34.5244 38.35C35.2399 37.865 35.9896 37.4324 36.7675 37.0556C37.5456 36.6794 38.35 36.3594 39.1744 36.0994C39.9988 35.8394 40.8413 35.64 41.6944 35.5019C42.5475 35.3637 43.41 35.2881 44.2744 35.275L46.1244 26.6C46.145 26.4994 46.1856 26.4044 46.2438 26.3194C46.3013 26.235 46.3756 26.1625 46.4613 26.1069C46.5475 26.0513 46.6438 26.0131 46.745 25.9944C46.8456 25.9763 46.9494 25.9781 47.0494 26L53.1744 27.225C53.7925 26.1631 55.09 25.7081 56.2356 26.1506C57.3813 26.5931 58.0363 27.8025 57.78 29.0037C57.5244 30.205 56.4331 31.0425 55.2069 30.9794C53.98 30.9162 52.9806 29.9712 52.8494 28.75L47.4994 27.625L45.8744 35.425C46.7281 35.4431 47.58 35.5231 48.4225 35.6637C50.1097 35.945 51.7474 36.4683 53.285 37.2175C54.053 37.5912 54.793 38.0199 55.4994 38.5C56.0073 38.0124 56.6455 37.6822 57.3369 37.5494C58.0283 37.4161 58.7436 37.4857 59.3963 37.75C60.049 38.0141 60.6115 38.4615 61.0156 39.0381C61.42 39.6148 61.6487 40.2962 61.6744 41ZM36.8644 44.4569C36.9906 44.76 37.1744 45.0356 37.4069 45.2675C37.6388 45.5 37.9144 45.6838 38.2175 45.81C38.5209 45.9355 38.8461 46 39.1744 46C40.1856 46 41.0969 45.3906 41.4844 44.4569C41.8713 43.5225 41.6569 42.4475 40.9419 41.7325C40.2269 41.0175 39.1519 40.8031 38.2175 41.19C37.2838 41.5775 36.6744 42.4888 36.6744 43.5C36.6744 43.8281 36.7388 44.1531 36.8644 44.4569ZM51.1831 50.4581C51.3113 50.3331 51.3844 50.1625 51.3869 49.9837C51.3894 49.8044 51.32 49.6319 51.195 49.5037C51.07 49.3756 50.8994 49.3025 50.7206 49.3C50.5413 49.2975 50.3688 49.3669 50.2244 49.475C49.8485 49.7446 49.4504 49.9819 49.0344 50.1844C48.6184 50.3869 48.186 50.554 47.7419 50.6838C47.2981 50.8131 46.8438 50.905 46.3844 50.9581C45.9244 51.0113 45.4613 51.025 44.9994 51C44.5381 51.0206 44.0756 51.0019 43.6175 50.9444C43.1593 50.8874 42.7068 50.7913 42.265 50.6569C41.8225 50.5231 41.3931 50.3519 40.98 50.1456C40.5669 49.9394 40.1719 49.6981 39.7994 49.425C39.67 49.3187 39.5056 49.2644 39.3381 49.2725C39.1706 49.2806 39.0125 49.3512 38.8938 49.4694C38.7756 49.5881 38.705 49.7463 38.6969 49.9137C38.6888 50.0812 38.7431 50.2456 38.8494 50.375C39.2888 50.7062 39.7556 50.9988 40.245 51.25C40.7344 51.5012 41.245 51.7094 41.77 51.8731C42.295 52.0369 42.8331 52.155 43.3788 52.2269C43.9244 52.2981 44.475 52.3225 45.0244 52.3C45.5738 52.3225 46.1244 52.2981 46.67 52.2269C47.7628 52.0831 48.8228 51.7527 49.8038 51.25C50.2931 50.9988 50.76 50.7062 51.1994 50.375L51.1831 50.4581ZM50.7244 46.2C51.0631 46.2038 51.3994 46.1381 51.7125 46.0081C52.0256 45.8775 52.3088 45.685 52.545 45.4419C52.7813 45.1987 52.965 44.91 53.0863 44.5931C53.2076 44.2766 53.2631 43.9387 53.2494 43.6C53.2494 42.5888 52.64 41.6775 51.7063 41.29C50.7719 40.9031 49.6969 41.1175 48.9819 41.8325C48.2669 42.5475 48.0525 43.6225 48.4394 44.5569C48.8269 45.4906 49.7381 46.1 50.7494 46.1L50.7244 46.2Z" fill="white"/>
</g><g clip-path="url(#clip1_0_2400)">
<path d="M196.225 38.0246C197.427 38.0246 198.402 37.0501 198.402 35.848C198.402 34.6459 197.427 33.6714 196.225 33.6714C195.023 33.6714 194.049 34.6459 194.049 35.848C194.049 37.0501 195.023 38.0246 196.225 38.0246Z" fill="#FF4500"/>
<path d="M165.138 45.1294C166.205 45.1294 166.821 44.3286 166.78 43.5483C166.76 43.1376 166.719 42.8707 166.678 42.6653C166.021 39.8316 163.721 37.7372 160.99 37.7372C157.745 37.7372 155.117 40.6735 155.117 44.2875C155.117 47.9015 157.745 50.8378 160.99 50.8378C163.023 50.8378 164.481 50.0986 165.528 48.9282C166.041 48.3532 165.938 47.4703 165.322 47.0391C164.809 46.69 164.173 46.8132 163.7 47.2033C163.248 47.5935 162.386 48.3738 160.99 48.3738C159.347 48.3738 157.951 46.9569 157.643 45.0883H165.138V45.1294ZM160.969 40.2218C162.448 40.2218 163.721 41.3717 164.193 42.9528H157.745C158.218 41.3511 159.491 40.2218 160.969 40.2218Z" fill="#222222"/>
<path d="M155.241 39.0308C155.241 38.4147 154.789 37.9219 154.214 37.8193C152.427 37.5523 150.744 38.2094 149.779 39.4209V39.2566C149.779 38.4969 149.163 38.0246 148.546 38.0246C147.869 38.0246 147.314 38.579 147.314 39.2566V49.3183C147.314 49.9754 147.807 50.5503 148.464 50.5914C149.183 50.6324 149.779 50.078 149.779 49.3593V44.1642C149.779 41.8644 151.503 39.9753 153.885 40.2423C153.967 40.2423 154.05 40.2423 154.132 40.2423C154.748 40.2012 155.241 39.6673 155.241 39.0308Z" fill="#222222"/>
<path d="M197.458 40.3449C197.458 39.6673 196.904 39.1129 196.226 39.1129C195.549 39.1129 194.994 39.6673 194.994 40.3449C194.994 40.386 194.994 48.9692 194.994 49.3593C194.994 50.037 195.549 50.5914 196.226 50.5914C196.904 50.5914 197.458 50.037 197.458 49.3593C197.458 48.9897 197.458 40.4065 197.458 40.3449Z" fill="#222222"/>
<path d="M179.143 33.5277C179.143 32.8501 178.588 32.2957 177.91 32.2957C177.233 32.2957 176.678 32.8501 176.678 33.5277V39.0102C175.837 38.1683 174.789 37.7577 173.537 37.7577C170.292 37.7577 167.664 40.694 167.664 44.308C167.664 47.922 170.292 50.8583 173.537 50.8583C174.789 50.8583 175.857 50.4271 176.699 49.5852C176.802 50.1602 177.315 50.5914 177.91 50.5914C178.588 50.5914 179.143 50.0369 179.143 49.3593V33.5277ZM173.557 48.4148C171.668 48.4148 170.149 46.5873 170.149 44.308C170.149 42.0492 171.668 40.2012 173.557 40.2012C175.446 40.2012 176.966 42.0287 176.966 44.308C176.966 46.5873 175.426 48.4148 173.557 48.4148Z" fill="#222222"/>
<path d="M191.996 33.5277C191.996 32.8501 191.441 32.2957 190.764 32.2957C190.086 32.2957 189.532 32.8501 189.532 33.5277V39.0102C188.69 38.1683 187.643 37.7577 186.39 37.7577C183.146 37.7577 180.517 40.694 180.517 44.308C180.517 47.922 183.146 50.8583 186.39 50.8583C187.643 50.8583 188.71 50.4271 189.552 49.5852C189.655 50.1602 190.168 50.5914 190.764 50.5914C191.441 50.5914 191.996 50.0369 191.996 49.3593V33.5277ZM186.39 48.4148C184.501 48.4148 182.982 46.5873 182.982 44.308C182.982 42.0492 184.501 40.2012 186.39 40.2012C188.279 40.2012 189.799 42.0287 189.799 44.308C189.799 46.5873 188.279 48.4148 186.39 48.4148Z" fill="#222222"/>
<path d="M203.701 49.3799V40.2218H204.789C205.364 40.2218 205.877 39.7905 205.918 39.1951C205.959 38.5585 205.446 38.0246 204.83 38.0246H203.701V36.2998C203.701 35.6427 203.208 35.0677 202.551 35.0267C201.832 34.9856 201.236 35.54 201.236 36.2587V38.0452H200.21C199.635 38.0452 199.121 38.4764 199.08 39.0719C199.039 39.7084 199.553 40.2423 200.169 40.2423H201.216V49.4004C201.216 50.078 201.77 50.6324 202.448 50.6324C203.167 50.5914 203.701 50.0575 203.701 49.3799Z" fill="#222222"/>
<path d="M123.207 58.4148C132.711 58.4148 140.415 50.7107 140.415 41.2074C140.415 31.704 132.711 24 123.207 24C113.704 24 106 31.704 106 41.2074C106 50.7107 113.704 58.4148 123.207 58.4148Z" fill="#FF4500"/>
<path d="M134.685 41.2074C134.685 39.8111 133.556 38.7023 132.18 38.7023C131.503 38.7023 130.887 38.9692 130.435 39.4004C128.71 38.1684 126.349 37.3676 123.72 37.2649L124.87 31.885L128.607 32.6858C128.648 33.6304 129.429 34.3902 130.394 34.3902C131.379 34.3902 132.18 33.5893 132.18 32.6037C132.18 31.6181 131.379 30.8173 130.394 30.8173C129.696 30.8173 129.08 31.2279 128.792 31.8234L124.624 30.9405C124.501 30.9199 124.377 30.9405 124.295 31.0021C124.193 31.0637 124.131 31.1663 124.11 31.2895L122.837 37.2854C120.168 37.3676 117.765 38.1684 116.02 39.421C115.568 38.9897 114.952 38.7228 114.275 38.7228C112.878 38.7228 111.77 39.8521 111.77 41.2279C111.77 42.2546 112.386 43.1171 113.248 43.5072C113.207 43.7536 113.186 44 113.186 44.267C113.186 48.1273 117.683 51.269 123.227 51.269C128.772 51.269 133.268 48.1479 133.268 44.267C133.268 44.0205 133.248 43.7536 133.207 43.5072C134.069 43.1171 134.685 42.2341 134.685 41.2074ZM117.478 42.9939C117.478 42.0082 118.279 41.2074 119.264 41.2074C120.25 41.2074 121.051 42.0082 121.051 42.9939C121.051 43.9795 120.25 44.7803 119.264 44.7803C118.279 44.8008 117.478 43.9795 117.478 42.9939ZM127.478 47.7372C126.246 48.9692 123.905 49.0513 123.227 49.0513C122.529 49.0513 120.188 48.9487 118.977 47.7372C118.792 47.5524 118.792 47.2649 118.977 47.0801C119.162 46.8953 119.449 46.8953 119.634 47.0801C120.414 47.8604 122.057 48.1273 123.227 48.1273C124.398 48.1273 126.061 47.8604 126.821 47.0801C127.006 46.8953 127.293 46.8953 127.478 47.0801C127.642 47.2649 127.642 47.5524 127.478 47.7372ZM127.149 44.8008C126.164 44.8008 125.363 44 125.363 43.0144C125.363 42.0288 126.164 41.2279 127.149 41.2279C128.135 41.2279 128.936 42.0288 128.936 43.0144C128.936 43.9795 128.135 44.8008 127.149 44.8008Z" fill="white"/>
</g></svg>