<svg width="199" height="60" viewBox="0 0 199 60" fill="none" xmlns="http://www.w3.org/2000/svg">
<path d="M67.3459 46.0808V30.7353H71.4417C71.9566 30.7353 72.409 30.8055 72.8069 30.9459C73.197 31.0863 73.5168 31.2736 73.7587 31.5154C74.0005 31.7495 74.1956 32.0381 74.3438 32.3892C74.492 32.7403 74.5935 33.0991 74.6559 33.4658C74.7105 33.8403 74.7417 34.2537 74.7417 34.6984C74.7417 36.6566 74.0317 37.897 72.6041 38.4197L74.9757 46.0808H73.5324L71.2934 38.5914H68.7189V46.0808H67.3459ZM68.7033 37.4992H71.4339C71.8239 37.4992 72.1516 37.4211 72.4168 37.2651C72.6821 37.1091 72.8849 36.8906 73.0176 36.6098C73.1502 36.3211 73.2438 36.0325 73.2984 35.7204C73.353 35.4084 73.3764 35.0573 73.3764 34.6594C73.3764 34.3318 73.3608 34.0431 73.3296 33.7779C73.2984 33.5126 73.236 33.263 73.1502 33.0133C73.0644 32.7637 72.9473 32.553 72.8069 32.3814C72.6665 32.2098 72.4793 32.0771 72.2452 31.9757C72.0112 31.8743 71.7381 31.8275 71.4339 31.8275H68.7033V37.4992Z" fill="#8B0053"/>
<path d="M76.5204 41.1581V39.668C76.5282 38.9268 76.575 38.2793 76.6842 37.741C76.7857 37.1949 76.9183 36.7658 77.0821 36.4304C77.246 36.1027 77.4566 35.8452 77.714 35.6502C77.9715 35.4552 78.2367 35.3225 78.5098 35.2601C78.7828 35.1899 79.1027 35.1587 79.4694 35.1587C80.429 35.1587 81.1155 35.4942 81.529 36.1729C81.9502 36.8516 82.1609 37.9204 82.1609 39.3793C82.1609 39.824 82.1531 40.1907 82.1453 40.4715H77.8701V42.102C77.8701 42.8042 77.9013 43.3815 77.9715 43.8262C78.0417 44.2708 78.1509 44.6141 78.2991 44.8403C78.4474 45.0666 78.6112 45.2148 78.7906 45.2928C78.9701 45.3708 79.1963 45.4099 79.4694 45.4099C79.8672 45.4099 80.2027 45.207 80.4758 44.8091C80.7488 44.4113 80.8814 43.7403 80.8892 42.7964H82.1375C82.0985 43.202 82.0517 43.5609 81.9971 43.873C81.9424 44.185 81.841 44.5049 81.7162 44.8169C81.5914 45.129 81.4275 45.3943 81.2403 45.6049C81.0531 45.8155 80.8112 45.9794 80.5148 46.112C80.2183 46.2446 79.875 46.307 79.485 46.307C78.7282 46.307 78.1431 46.1588 77.7218 45.8545C77.3006 45.5581 76.9963 45.0354 76.8013 44.2864C76.6062 43.5531 76.5126 42.5077 76.5204 41.1581ZM77.8779 39.824H80.8424C80.8346 39.59 80.8346 39.3481 80.8424 39.0985C80.8502 38.8566 80.8424 38.607 80.8346 38.3651C80.8268 38.1155 80.8034 37.8814 80.7878 37.6552C80.7644 37.4289 80.7254 37.2183 80.6708 37.0233C80.6162 36.8282 80.5382 36.6644 80.4446 36.5162C80.3587 36.3757 80.2339 36.2587 80.0779 36.1807C79.9219 36.0949 79.7424 36.0559 79.5474 36.0559C79.2197 36.0559 78.9545 36.1105 78.7438 36.2353C78.5332 36.3523 78.3694 36.4928 78.2523 36.6566C78.1353 36.8204 78.0495 37.0857 78.0027 37.468C77.9481 37.8502 77.9169 38.1857 77.9091 38.4743C77.8779 38.7552 77.8779 39.2077 77.8779 39.824Z" fill="#8B0053"/>
<path d="M83.4559 43.4049L84.4857 43.0538C84.5715 43.3191 84.673 43.5687 84.7978 43.8105C84.9226 44.0524 85.0708 44.2942 85.2425 44.5439C85.4141 44.7857 85.6169 44.9808 85.851 45.1368C86.085 45.285 86.3347 45.363 86.5843 45.363C87.0524 45.363 87.4035 45.2226 87.6375 44.934C87.8716 44.6453 87.9886 44.263 87.9886 43.7715C87.9886 43.085 87.3801 42.2112 86.163 41.1424L85.3907 40.4637C84.7978 39.9488 84.3609 39.4885 84.0566 39.0751C83.7602 38.6694 83.6042 38.2169 83.6042 37.7098C83.6042 36.9062 83.846 36.2899 84.3375 35.8374C84.8212 35.3928 85.4765 35.1743 86.2879 35.1743C86.6779 35.1743 87.0212 35.2523 87.3411 35.4006C87.6531 35.5488 87.9184 35.7594 88.1368 36.0169C88.3474 36.2821 88.5347 36.5708 88.6751 36.875C88.8233 37.1793 88.9404 37.5148 89.0262 37.8892L87.8404 38.2559C87.7857 37.9204 87.6999 37.6084 87.5907 37.3119C87.4737 37.0155 87.2943 36.7424 87.0602 36.5084C86.8184 36.2665 86.5453 36.1495 86.2333 36.1495C85.8354 36.1495 85.5155 36.2821 85.2815 36.5552C85.0474 36.8282 84.9304 37.1715 84.9304 37.6006C84.9304 37.9594 85.0474 38.2949 85.2737 38.6148C85.4999 38.9346 85.8354 39.2779 86.2723 39.6524L87.1226 40.3857C87.3957 40.6275 87.6063 40.807 87.7545 40.9396C87.9028 41.0722 88.0822 41.2673 88.3084 41.5091C88.5347 41.7588 88.6985 41.9772 88.8155 42.18C88.9326 42.3829 89.0262 42.6169 89.1276 42.8978C89.2212 43.1786 89.268 43.4595 89.2758 43.7559C89.2758 44.5517 89.0262 45.1758 88.5191 45.6439C88.012 46.1042 87.3645 46.3382 86.5531 46.3382C85.7652 46.3382 85.1098 46.0652 84.5871 45.5113C84.0332 44.9418 83.6666 44.2474 83.4559 43.4049Z" fill="#8B0053"/>
<path d="M90.5943 41.1581V39.668C90.6021 38.9268 90.6489 38.2793 90.7581 37.741C90.8595 37.1949 90.9921 36.7658 91.156 36.4304C91.3198 36.1027 91.5304 35.8452 91.7879 35.6502C92.0453 35.4552 92.3106 35.3225 92.5836 35.2601C92.8567 35.1899 93.1766 35.1587 93.5432 35.1587C94.5028 35.1587 95.1893 35.4942 95.6028 36.1729C96.0241 36.8516 96.2347 37.9204 96.2347 39.3793C96.2347 39.824 96.2269 40.1907 96.2191 40.4715H91.9361V42.102C91.9361 42.8042 91.9673 43.3815 92.0375 43.8262C92.1078 44.2708 92.217 44.6141 92.3652 44.8403C92.5134 45.0666 92.6773 45.2148 92.8567 45.2928C93.0361 45.3708 93.2624 45.4099 93.5354 45.4099C93.9333 45.4099 94.2688 45.207 94.5418 44.8091C94.8149 44.4113 94.9475 43.7403 94.9553 42.7964H96.2035C96.1645 43.202 96.1177 43.5609 96.0631 43.873C96.0085 44.185 95.9071 44.5049 95.7823 44.8169C95.6574 45.129 95.4936 45.3943 95.3064 45.6049C95.1191 45.8155 94.8773 45.9794 94.5808 46.112C94.2844 46.2446 93.9411 46.307 93.551 46.307C92.7943 46.307 92.2092 46.1588 91.7879 45.8545C91.3666 45.5581 91.0624 45.0354 90.8673 44.2864C90.6723 43.5531 90.5787 42.5077 90.5943 41.1581ZM91.9439 39.824H94.9007C94.8929 39.59 94.8929 39.3481 94.9007 39.0985C94.9085 38.8566 94.9007 38.607 94.8929 38.3651C94.8851 38.1155 94.8617 37.8814 94.8461 37.6552C94.8227 37.4289 94.7837 37.2183 94.7291 37.0233C94.6744 36.8282 94.5964 36.6644 94.5028 36.5162C94.417 36.3757 94.2922 36.2587 94.1361 36.1807C93.9801 36.0949 93.8007 36.0559 93.6056 36.0559C93.278 36.0559 93.0127 36.1105 92.8021 36.2353C92.5915 36.3523 92.4276 36.4928 92.3106 36.6566C92.1936 36.8204 92.1078 37.0857 92.0609 37.468C92.0063 37.8502 91.9751 38.1857 91.9673 38.4743C91.9595 38.763 91.9439 39.2077 91.9439 39.824Z" fill="#8B0053"/>
<path d="M102.226 46.0808L102.055 44.7857C101.766 45.285 101.415 45.6673 101.001 45.9248C100.58 46.19 100.182 46.3148 99.8 46.3148C99.2461 46.3148 98.7546 46.0964 98.3255 45.6595C97.8965 45.2226 97.6858 44.6531 97.6858 43.9432C97.6858 43.7559 97.6858 43.5999 97.6936 43.4829C97.7014 43.3659 97.717 43.2176 97.7404 43.0304C97.7716 42.8432 97.8028 42.6949 97.8574 42.5623C97.9042 42.4375 97.9823 42.2815 98.0837 42.102C98.1773 41.9226 98.3021 41.7588 98.4426 41.6183C98.583 41.4779 98.7624 41.3219 98.9731 41.1346C99.1837 40.9552 99.4333 40.7836 99.7142 40.6197C99.995 40.4559 100.323 40.2843 100.697 40.0971C101.072 39.9098 101.493 39.7226 101.945 39.5275V39.4417C101.945 38.8332 101.914 38.3183 101.867 37.8892C101.813 37.4602 101.75 37.1247 101.672 36.8906C101.594 36.6566 101.493 36.4772 101.376 36.3445C101.251 36.2119 101.142 36.1339 101.033 36.1027C100.923 36.0715 100.791 36.0559 100.643 36.0559C100.479 36.0559 100.338 36.0793 100.213 36.1261C100.089 36.1729 99.956 36.2587 99.8156 36.3835C99.6752 36.5084 99.5504 36.719 99.4567 37.0077C99.3631 37.2963 99.3007 37.6552 99.2773 38.0921V38.1545H97.8886C97.9589 37.2183 98.2397 36.4928 98.7156 35.9545C99.1915 35.424 99.8234 35.1587 100.604 35.1587C101.04 35.1587 101.423 35.2289 101.758 35.3694C102.094 35.5098 102.351 35.6892 102.546 35.8999C102.741 36.1183 102.897 36.3757 103.014 36.68C103.131 36.9843 103.217 37.2807 103.256 37.5616C103.295 37.8502 103.318 38.1545 103.318 38.4821V43.6155C103.318 43.99 103.334 44.3801 103.357 44.7935C103.389 45.207 103.412 45.5191 103.443 45.7375L103.482 46.073L102.226 46.0808ZM101.961 43.9042V40.1439C101.524 40.4481 101.189 40.69 100.931 40.8772C100.682 41.0644 100.416 41.2751 100.143 41.5247C99.8702 41.7744 99.6596 41.9928 99.5192 42.1956C99.3787 42.3985 99.2617 42.6247 99.1681 42.8822C99.0745 43.1396 99.0277 43.4127 99.0277 43.6935C99.0277 44.2084 99.1369 44.5829 99.3475 44.8325C99.5582 45.0822 99.8156 45.1992 100.104 45.1992C100.44 45.1992 100.783 45.0744 101.134 44.8325C101.485 44.5985 101.758 44.2864 101.961 43.9042Z" fill="#8B0053"/>
<path d="M105.292 46.0808V35.4006H106.626V36.9062C106.79 36.3523 107.094 35.9389 107.523 35.6658C107.953 35.3928 108.405 35.2445 108.873 35.2367V36.5864C108.803 36.563 108.741 36.5474 108.67 36.5474C107.305 36.5474 106.626 37.0701 106.626 38.1155V46.0886L105.292 46.0808Z" fill="#8B0053"/>
<path d="M109.716 41.0176V40.4637C109.716 39.9878 109.716 39.6212 109.723 39.3715C109.731 39.1219 109.755 38.7708 109.786 38.3339C109.825 37.897 109.872 37.5616 109.942 37.3119C110.012 37.0701 110.114 36.7892 110.262 36.4772C110.402 36.1651 110.574 35.9233 110.777 35.7594C110.98 35.5956 111.237 35.4552 111.549 35.3382C111.861 35.2211 112.228 35.1587 112.626 35.1587C113.031 35.1587 113.398 35.2289 113.71 35.3616C114.022 35.4942 114.272 35.6736 114.467 35.8843C114.662 36.0949 114.818 36.3679 114.943 36.6956C115.067 37.0233 115.153 37.3509 115.208 37.6786C115.263 38.0063 115.302 38.3807 115.325 38.802C115.325 38.8098 115.325 38.8332 115.333 38.8488C115.333 38.8644 115.341 38.8878 115.341 38.8956H113.999V38.8176C113.96 37.8112 113.843 37.1013 113.648 36.6878C113.445 36.2743 113.109 36.0637 112.626 36.0637C112.392 36.0637 112.189 36.0949 112.025 36.1573C111.853 36.2275 111.713 36.3367 111.596 36.5084C111.479 36.6722 111.385 36.8672 111.315 37.0779C111.245 37.2885 111.19 37.5772 111.143 37.936C111.104 38.2949 111.073 38.6616 111.065 39.0438C111.058 39.4261 111.05 39.902 111.05 40.4715V41.0254C111.05 42.6949 111.151 43.8496 111.362 44.4815C111.572 45.1134 111.994 45.4333 112.626 45.4333C113.094 45.4333 113.429 45.2226 113.632 44.7935C113.835 44.3645 113.952 43.6311 113.999 42.5935V42.5077H115.348V42.5701C115.333 43.0226 115.294 43.4205 115.247 43.7637C115.2 44.107 115.114 44.4425 114.989 44.7857C114.865 45.1212 114.709 45.4021 114.514 45.6205C114.319 45.8389 114.069 46.0106 113.749 46.1432C113.429 46.2758 113.063 46.346 112.633 46.346C112.275 46.346 111.955 46.307 111.674 46.2368C111.385 46.1666 111.143 46.0496 110.948 45.8779C110.745 45.7141 110.574 45.5503 110.433 45.3864C110.285 45.2226 110.168 44.9886 110.082 44.6843C109.997 44.3801 109.926 44.1226 109.88 43.912C109.833 43.7013 109.794 43.3893 109.77 42.9914C109.747 42.5935 109.731 42.2815 109.731 42.0552C109.716 41.7978 109.716 41.4623 109.716 41.0176Z" fill="#8B0053"/>
<path d="M117.111 46.0808V30.7353H118.446V36.407C118.711 35.9935 119.046 35.6814 119.452 35.4708C119.858 35.2601 120.271 35.1587 120.692 35.1587C121.238 35.1587 121.714 35.3772 122.112 35.814C122.51 36.2509 122.713 36.875 122.713 37.6786V46.073H121.355V37.7488C121.355 36.68 120.981 36.1417 120.232 36.1417C119.943 36.1417 119.631 36.2431 119.296 36.4538C118.96 36.6644 118.68 36.9218 118.446 37.2339V46.0808H117.111Z" fill="#8B0053"/>
<path d="M128.634 46.0808V30.7353H134.025V31.8197H129.984V37.6318H133.159V38.6616H129.984V46.0808H128.634Z" fill="#8B0053"/>
<path d="M134.712 41.0176V40.4637C134.712 39.9878 134.712 39.6212 134.719 39.3715C134.727 39.1219 134.743 38.7708 134.774 38.3339C134.805 37.897 134.86 37.5616 134.922 37.3119C134.992 37.0701 135.094 36.7892 135.234 36.4772C135.367 36.1651 135.539 35.9233 135.741 35.7594C135.944 35.5956 136.194 35.4552 136.498 35.3382C136.802 35.2211 137.146 35.1587 137.544 35.1587C137.941 35.1587 138.285 35.2133 138.589 35.3382C138.893 35.4552 139.143 35.6034 139.346 35.7594C139.549 35.9233 139.712 36.1651 139.853 36.4772C139.985 36.7892 140.095 37.0701 140.165 37.3119C140.235 37.5538 140.282 37.897 140.313 38.3339C140.344 38.7708 140.368 39.1141 140.368 39.3715C140.375 39.6212 140.375 39.9878 140.375 40.4637V41.0176C140.375 41.4155 140.375 41.712 140.368 41.9148C140.368 42.1176 140.36 42.3985 140.336 42.7574C140.321 43.1162 140.297 43.3971 140.266 43.5921C140.235 43.7871 140.188 44.029 140.118 44.3254C140.048 44.6141 139.97 44.8403 139.884 45.0042C139.79 45.168 139.673 45.3396 139.533 45.5347C139.392 45.7297 139.229 45.8701 139.041 45.9716C138.854 46.0652 138.636 46.151 138.386 46.2212C138.136 46.2914 137.856 46.3226 137.544 46.3226C137.231 46.3226 136.951 46.2914 136.701 46.2212C136.451 46.151 136.233 46.073 136.046 45.9716C135.858 45.8779 135.695 45.7297 135.554 45.5347C135.414 45.3396 135.289 45.168 135.203 45.0042C135.109 44.8403 135.031 44.6141 134.969 44.3254C134.899 44.0368 134.852 43.7949 134.821 43.5921C134.79 43.3971 134.766 43.1162 134.751 42.7574C134.735 42.3985 134.727 42.1176 134.719 41.9148C134.712 41.712 134.712 41.4155 134.712 41.0176ZM136.053 40.4637V41.0176C136.053 42.6949 136.147 43.8496 136.35 44.4737C136.545 45.1056 136.943 45.4177 137.544 45.4177C138.144 45.4177 138.542 45.1056 138.737 44.4737C138.932 43.8418 139.034 42.6949 139.034 41.0176V40.4637C139.034 39.902 139.026 39.4261 139.018 39.036C139.01 38.646 138.979 38.2793 138.94 37.9282C138.901 37.5772 138.846 37.2885 138.776 37.0779C138.706 36.8672 138.62 36.6722 138.511 36.5084C138.402 36.3445 138.269 36.2275 138.113 36.1573C137.957 36.0871 137.762 36.0559 137.544 36.0559C137.325 36.0559 137.138 36.0871 136.974 36.1573C136.81 36.2275 136.685 36.3445 136.568 36.5084C136.451 36.6722 136.366 36.8594 136.303 37.0701C136.233 37.2807 136.186 37.5694 136.147 37.9282C136.108 38.2871 136.085 38.6538 136.069 39.036C136.053 39.4183 136.053 39.8942 136.053 40.4637Z" fill="#8B0053"/>
<path d="M142.31 43.7871V35.4006H143.668V43.8184C143.668 44.3489 143.769 44.7311 143.98 44.973C144.19 45.2148 144.463 45.3318 144.799 45.3318C145.08 45.3318 145.376 45.2382 145.696 45.0432C146.016 44.8481 146.305 44.5907 146.578 44.2552V35.4006H147.912V46.0808H146.578V45.0744C146.289 45.4879 145.954 45.7999 145.548 46.0106C145.15 46.2212 144.736 46.3226 144.307 46.3226C143.777 46.3226 143.309 46.0964 142.911 45.6595C142.513 45.2148 142.31 44.5907 142.31 43.7871Z" fill="#8B0053"/>
<path d="M150.33 46.0808V35.4006H151.672V36.407C151.961 35.9935 152.296 35.6814 152.702 35.4708C153.1 35.2601 153.513 35.1587 153.942 35.1587C154.473 35.1587 154.941 35.385 155.339 35.8218C155.737 36.2665 155.939 36.8906 155.939 37.6942V46.0808H154.582V37.663C154.582 37.1325 154.481 36.7502 154.27 36.5084C154.059 36.2665 153.786 36.1495 153.451 36.1495C153.17 36.1495 152.873 36.2431 152.554 36.4382C152.234 36.6332 151.945 36.8906 151.672 37.2261V46.0808H150.33Z" fill="#8B0053"/>
<path d="M162.243 46.0808V45.0744C161.713 45.9091 160.987 46.3226 160.082 46.3226C159.918 46.3226 159.778 46.307 159.645 46.2836C159.512 46.2524 159.372 46.1978 159.208 46.112C159.044 46.0262 158.904 45.9091 158.779 45.7609C158.654 45.6127 158.53 45.4099 158.405 45.1524C158.28 44.895 158.178 44.5907 158.093 44.2396C158.015 43.8886 157.944 43.4595 157.898 42.9446C157.851 42.4297 157.82 41.8524 157.82 41.2049V40.3545C157.82 39.4339 157.866 38.6382 157.968 37.9829C158.061 37.3197 158.186 36.8126 158.327 36.4538C158.467 36.0949 158.654 35.814 158.881 35.6112C159.107 35.4084 159.317 35.2757 159.505 35.2289C159.692 35.1821 159.918 35.1509 160.176 35.1509C160.55 35.1509 160.917 35.2601 161.276 35.4708C161.634 35.6814 161.954 35.9935 162.235 36.3991V30.7275H163.569V46.073L162.243 46.0808ZM162.243 44.2552V37.2105C161.603 36.5006 161.01 36.1495 160.449 36.1495C160.316 36.1495 160.207 36.1573 160.121 36.1885C160.035 36.2119 159.934 36.2665 159.825 36.3523C159.715 36.4382 159.622 36.5708 159.559 36.758C159.489 36.9453 159.427 37.1871 159.356 37.4914C159.286 37.7878 159.239 38.1857 159.208 38.6694C159.177 39.1531 159.161 39.7226 159.161 40.3857V41.2361C159.161 41.7978 159.177 42.2893 159.2 42.7261C159.232 43.163 159.263 43.5219 159.302 43.8027C159.341 44.0914 159.395 44.3333 159.473 44.5283C159.544 44.7311 159.614 44.8794 159.676 44.9886C159.747 45.0978 159.825 45.1758 159.926 45.2304C160.027 45.285 160.121 45.3162 160.191 45.324C160.261 45.3318 160.363 45.3396 160.48 45.3396C160.745 45.3396 161.042 45.2382 161.354 45.0432C161.681 44.8325 161.978 44.5751 162.243 44.2552Z" fill="#8B0053"/>
<path d="M169.857 46.0808L169.686 44.7857C169.397 45.285 169.046 45.6673 168.632 45.9248C168.219 46.1822 167.813 46.3148 167.431 46.3148C166.877 46.3148 166.386 46.0964 165.957 45.6595C165.527 45.2226 165.317 44.6531 165.317 43.9432C165.317 43.7559 165.317 43.5999 165.325 43.4829C165.332 43.3659 165.348 43.2176 165.371 43.0304C165.403 42.8432 165.434 42.6949 165.488 42.5623C165.535 42.4375 165.613 42.2815 165.715 42.102C165.808 41.9226 165.933 41.7588 166.074 41.6183C166.214 41.4779 166.393 41.3219 166.604 41.1346C166.815 40.9552 167.064 40.7836 167.345 40.6197C167.626 40.4559 167.954 40.2843 168.328 40.0971C168.703 39.9098 169.124 39.7226 169.576 39.5275V39.4417C169.576 38.8332 169.545 38.3183 169.498 37.8892C169.444 37.4602 169.381 37.1247 169.303 36.8906C169.225 36.6566 169.124 36.4772 169.007 36.3445C168.882 36.2119 168.773 36.1339 168.664 36.1027C168.554 36.0715 168.422 36.0559 168.274 36.0559C168.11 36.0559 167.969 36.0793 167.844 36.1261C167.72 36.1729 167.587 36.2587 167.447 36.3835C167.306 36.5084 167.181 36.719 167.088 37.0077C166.994 37.2963 166.932 37.6552 166.908 38.0921V38.1545H165.52C165.59 37.2183 165.863 36.4928 166.347 35.9545C166.822 35.424 167.454 35.1587 168.235 35.1587C168.671 35.1587 169.054 35.2289 169.389 35.3694C169.725 35.5098 169.982 35.6892 170.177 35.8999C170.372 36.1183 170.528 36.3757 170.645 36.68C170.762 36.9843 170.848 37.2807 170.887 37.5616C170.926 37.8502 170.949 38.1545 170.949 38.4821V43.6155C170.949 43.99 170.965 44.3801 170.988 44.7935C171.02 45.207 171.043 45.5191 171.074 45.7375L171.113 46.073L169.857 46.0808ZM169.592 43.9042V40.1439C169.155 40.4481 168.82 40.69 168.562 40.8772C168.313 41.0644 168.047 41.2751 167.774 41.5247C167.501 41.7744 167.291 41.9928 167.15 42.1956C167.01 42.3985 166.893 42.6247 166.799 42.8822C166.705 43.1396 166.659 43.4127 166.659 43.6935C166.659 44.2084 166.768 44.5829 166.978 44.8325C167.189 45.0822 167.447 45.1992 167.735 45.1992C168.071 45.1992 168.414 45.0744 168.765 44.8325C169.124 44.5985 169.389 44.2864 169.592 43.9042Z" fill="#8B0053"/>
<path d="M173.345 43.5609V36.1573H171.893V35.4006H173.345V31.609H174.679V35.4006H176.395V36.1495H174.679V43.4985C174.679 43.7559 174.679 43.951 174.686 44.0992C174.694 44.2474 174.71 44.4035 174.741 44.5751C174.772 44.7467 174.819 44.8716 174.881 44.9496C174.944 45.0354 175.03 45.1056 175.147 45.1602C175.264 45.2148 175.404 45.246 175.576 45.246C175.864 45.246 176.13 45.2226 176.364 45.1758V46.0964C175.966 46.1978 175.576 46.2446 175.201 46.2446C174.866 46.2446 174.585 46.19 174.343 46.0886C174.101 45.9794 173.922 45.8545 173.797 45.6985C173.672 45.5425 173.571 45.3396 173.493 45.0822C173.415 44.8247 173.376 44.5907 173.352 44.3645C173.352 44.1382 173.345 43.873 173.345 43.5609Z" fill="#8B0053"/>
<path d="M177.932 32.9587V31.3594H179.266V32.9587H177.932ZM177.932 46.0808V35.4006H179.266V46.0808H177.932Z" fill="#8B0053"/>
<path d="M181.31 41.0176V40.4637C181.31 39.9878 181.31 39.6212 181.318 39.3715C181.325 39.1219 181.341 38.7708 181.372 38.3339C181.403 37.897 181.458 37.5616 181.52 37.3119C181.591 37.0701 181.692 36.7892 181.833 36.4772C181.965 36.1651 182.137 35.9233 182.34 35.7594C182.542 35.5956 182.792 35.4552 183.096 35.3382C183.401 35.2211 183.744 35.1587 184.142 35.1587C184.532 35.1587 184.883 35.2133 185.187 35.3382C185.491 35.4552 185.741 35.6034 185.944 35.7594C186.147 35.9233 186.311 36.1651 186.451 36.4772C186.584 36.7892 186.693 37.0701 186.763 37.3119C186.833 37.5538 186.88 37.897 186.911 38.3339C186.942 38.7708 186.966 39.1141 186.966 39.3715C186.974 39.6212 186.974 39.9878 186.974 40.4637V41.0176C186.974 41.4155 186.974 41.712 186.966 41.9148C186.966 42.1176 186.958 42.3985 186.935 42.7574C186.919 43.1162 186.896 43.3971 186.864 43.5921C186.833 43.7871 186.786 44.029 186.716 44.3254C186.646 44.6141 186.568 44.8403 186.482 45.0042C186.389 45.168 186.272 45.3396 186.131 45.5347C185.991 45.7297 185.827 45.8701 185.64 45.9716C185.452 46.0652 185.234 46.151 184.984 46.2212C184.719 46.2914 184.438 46.3226 184.134 46.3226C183.822 46.3226 183.541 46.2914 183.291 46.2212C183.042 46.151 182.823 46.073 182.636 45.9716C182.449 45.8779 182.285 45.7297 182.145 45.5347C182.004 45.3396 181.879 45.168 181.794 45.0042C181.7 44.8403 181.622 44.6141 181.559 44.3254C181.489 44.0368 181.442 43.7949 181.411 43.5921C181.38 43.3971 181.357 43.1162 181.341 42.7574C181.325 42.3985 181.318 42.1176 181.31 41.9148C181.318 41.712 181.31 41.4155 181.31 41.0176ZM182.652 40.4637V41.0176C182.652 42.6949 182.745 43.8496 182.948 44.4737C183.143 45.1056 183.541 45.4177 184.142 45.4177C184.742 45.4177 185.14 45.1056 185.335 44.4737C185.53 43.8418 185.632 42.6949 185.632 41.0176V40.4637C185.632 39.902 185.624 39.4261 185.616 39.036C185.608 38.646 185.577 38.2793 185.538 37.9282C185.499 37.5772 185.445 37.2885 185.374 37.0779C185.304 36.8672 185.218 36.6722 185.109 36.5084C185 36.3445 184.867 36.2275 184.711 36.1573C184.555 36.0871 184.36 36.0559 184.142 36.0559C183.923 36.0559 183.736 36.0871 183.572 36.1573C183.408 36.2275 183.284 36.3445 183.167 36.5084C183.05 36.6722 182.964 36.8594 182.901 37.0701C182.831 37.2807 182.784 37.5694 182.745 37.9282C182.706 38.2871 182.683 38.6538 182.667 39.036C182.652 39.4183 182.652 39.8942 182.652 40.4637Z" fill="#8B0053"/>
<path d="M188.979 46.0808V35.4006H190.313V36.407C190.601 35.9935 190.937 35.6814 191.342 35.4708C191.74 35.2601 192.154 35.1587 192.583 35.1587C193.113 35.1587 193.582 35.385 193.979 35.8218C194.377 36.2665 194.58 36.8906 194.58 37.6942V46.0808H193.223V37.663C193.223 37.1325 193.121 36.7502 192.911 36.5084C192.7 36.2665 192.427 36.1495 192.091 36.1495C191.811 36.1495 191.514 36.2431 191.194 36.4382C190.874 36.6332 190.586 36.8906 190.313 37.2261V46.0808H188.979Z" fill="#8B0053"/>
<path d="M67.3459 26.889V16.2478H68.5005L70.5523 25.4301C70.8019 24.2287 71.1374 22.7542 71.5509 21.0145C71.9644 19.2748 72.3154 17.6833 72.6041 16.2478H73.7587V26.889H72.9239V18.3776L70.958 26.889H70.1466L68.1806 18.3854V26.889H67.3459Z" fill="black"/>
<path d="M75.4126 24.2677V16.2478H76.3488V24.4861C76.3488 25.0947 76.4892 25.5549 76.7623 25.8514C77.0353 26.1479 77.5034 26.2961 78.1587 26.2961C78.775 26.2961 79.2197 26.1479 79.485 25.8436C79.7502 25.5393 79.8829 25.0869 79.8829 24.4861V16.2478H80.819V24.2677C80.819 26.1245 79.9375 27.045 78.1665 27.045C77.7374 27.045 77.3708 26.9982 77.0431 26.8968C76.7233 26.7954 76.458 26.6628 76.2552 26.4989C76.0523 26.3351 75.8885 26.1323 75.7559 25.8904C75.631 25.6486 75.5374 25.3989 75.4906 25.1337C75.436 24.884 75.4126 24.5876 75.4126 24.2677Z" fill="black"/>
<path d="M82.5666 26.889V16.2478H83.5027V26.1323H86.4751V26.889H82.5666Z" fill="black"/>
<path d="M87.9184 26.889V17.0045H85.8432V16.2478H90.9453V17.0045H88.8545V26.889H87.9184Z" fill="black"/>
<path d="M91.6241 26.889V16.2478H92.5603V26.889H91.6241Z" fill="black"/>
<path d="M94.3702 26.889V16.2478H96.9759C97.3425 16.2478 97.678 16.2946 97.9667 16.396C98.2553 16.4974 98.4972 16.6379 98.6844 16.8095C98.8716 16.9811 99.0355 17.1918 99.1525 17.4414C99.2773 17.6911 99.3631 17.9485 99.4177 18.2216C99.4723 18.4946 99.4958 18.7911 99.4958 19.1109C99.4958 19.4386 99.4724 19.735 99.4333 20.0159C99.3865 20.289 99.3085 20.5698 99.1915 20.8351C99.0745 21.1081 98.9262 21.3343 98.739 21.5216C98.5518 21.7088 98.3099 21.857 98.0135 21.9819C97.717 22.0989 97.3659 22.1535 96.9759 22.1535H95.322V26.8812L94.3702 26.889ZM95.3142 21.4046L97.0851 21.4124C97.6156 21.4124 97.9901 21.2329 98.2163 20.8663C98.4426 20.4996 98.5518 19.9223 98.5518 19.1343C98.5518 18.401 98.427 17.8627 98.1851 17.5194C97.9433 17.1762 97.5766 17.0045 97.0773 17.0045H95.3064V21.4046H95.3142Z" fill="black"/>
<path d="M100.58 26.889V16.2478H101.516V26.1323H104.489V26.889H100.58Z" fill="black"/>
<path d="M105.347 26.889V16.2478H109.053V17.0045H106.283V21.0301H108.257V21.74H106.283V26.1245H109.053V26.8812L105.347 26.889Z" fill="black"/>
<path d="M112.774 26.889V16.2478H113.928L115.98 25.4301C116.23 24.2287 116.565 22.7542 116.979 21.0145C117.392 19.2748 117.743 17.6833 118.032 16.2478H119.187V26.889H118.352V18.3776L116.386 26.889H115.575L113.609 18.3854V26.889H112.774Z" fill="black"/>
<path d="M122.401 23.589L120.076 16.2478H121.028C121.114 16.5442 121.231 16.9655 121.387 17.5038C121.543 18.0421 121.707 18.5882 121.87 19.1499C122.034 19.7116 122.198 20.2421 122.346 20.757C122.502 21.2719 122.627 21.6932 122.729 22.0209L122.877 22.5124C123.142 21.545 123.446 20.4762 123.79 19.2982C124.141 18.1279 124.429 17.1138 124.671 16.2556H125.592L123.345 23.5968V26.8968H122.401V23.589Z" fill="black"/>
<path d="M126.489 26.889V16.2478H130.195V17.0045H127.425V21.0301H129.399V21.74H127.425V26.1245H130.195V26.8812L126.489 26.889Z" fill="black"/>
<path d="M131.396 26.889V16.2478H132.332V26.1323H135.305V26.889H131.396Z" fill="black"/>
<path d="M135.975 23.7996V19.345C135.975 18.9705 136.007 18.6272 136.061 18.3152C136.116 18.0031 136.21 17.7067 136.342 17.4258C136.475 17.145 136.639 16.9109 136.841 16.7237C137.044 16.5286 137.302 16.3804 137.614 16.2712C137.926 16.162 138.285 16.1074 138.69 16.1074C139.096 16.1074 139.455 16.162 139.767 16.2712C140.079 16.3804 140.336 16.5364 140.539 16.7237C140.742 16.9187 140.906 17.1528 141.039 17.4258C141.171 17.7067 141.265 17.9953 141.319 18.3152C141.374 18.6272 141.405 18.9705 141.405 19.345V23.7996C141.405 25.9684 140.5 27.0528 138.69 27.0528C136.873 27.0528 135.975 25.9684 135.975 23.7996ZM140.461 24.0103V19.1343C140.461 17.613 139.868 16.8563 138.69 16.8563C137.512 16.8563 136.919 17.613 136.919 19.1343V24.0103C136.919 25.5315 137.512 26.2961 138.69 26.2961C139.868 26.3039 140.461 25.5393 140.461 24.0103Z" fill="black"/>
<path d="M143.005 26.889V16.2478H144.159L146.211 25.4301C146.461 24.2287 146.796 22.7542 147.21 21.0145C147.623 19.2748 147.974 17.6833 148.263 16.2478H149.417V26.889H148.583V18.3776L146.617 26.889H145.805L143.839 18.3854V26.889H143.005Z" fill="black"/>
<path d="M151.563 26.889H150.619L152.717 16.2478H153.942L156.041 26.889H155.089L154.559 24.1195H152.101L151.563 26.889ZM152.218 23.4954H154.442L153.326 17.2308L152.218 23.4954Z" fill="black"/>
<path d="M39.3935 29.4872V16.8644L41.6793 29.4872H43.3957L45.6815 16.8644V29.4872H47.9673V13.4942H44.8077L42.5453 25.7425L40.2829 13.4942H37.1233V29.4872H39.3935ZM26.4353 29.4872V16.8644L28.7211 29.4872H30.4374L32.7232 16.8644V29.4872H35.0091V13.4942H31.8417L29.5793 25.7425L27.3168 13.4942H24.1572V29.4872H26.4353Z" fill="#010101"/>
<path d="M52.999 28.0754V42.6096L58.5927 33.5754V19.1973L52.999 28.0754Z" fill="#F2F1EA"/>
<path d="M25.6634 46.1042V38.607H28.2456L30.4847 46.1042H31.9279L29.5563 38.4353C30.984 37.9126 31.6939 36.6722 31.6939 34.714C31.6939 34.2616 31.6627 33.8481 31.6081 33.4736C31.5535 33.0991 31.452 32.7403 31.296 32.3892C31.1478 32.0381 30.9528 31.7495 30.7109 31.5154C30.4691 31.2814 30.1492 31.0942 29.7591 30.9459C29.3691 30.8055 28.9088 30.7353 28.3939 30.7353H24.2981V46.0964L25.6634 46.1042ZM25.6634 31.8353H28.3939C28.7059 31.8353 28.9712 31.8821 29.2052 31.9913C29.4393 32.0927 29.6265 32.2254 29.7669 32.397C29.9074 32.5686 30.0244 32.7715 30.1102 33.0289C30.196 33.2786 30.2584 33.536 30.2896 33.7935C30.3208 34.0587 30.3364 34.3474 30.3364 34.675C30.3364 35.0729 30.3052 35.4318 30.2584 35.736C30.2038 36.0481 30.1102 36.3445 29.9776 36.6254C29.8449 36.9141 29.6421 37.1325 29.3769 37.2885C29.1116 37.4446 28.7839 37.5226 28.3939 37.5226H25.6634V31.8353Z" fill="#8B0053"/>
<path d="M34.4556 46.1042V38.6772H37.6386V37.6552H34.4556V31.8353H38.5046V30.7431H33.0982V46.1042H34.4556Z" fill="#8B0053"/>
<path d="M42.5613 43.4984V49.1233H22.4257L19.2817 54.7247H48.155V54.7013V43.4984H42.5613Z" fill="url(#paint0_linear_0_8812)"/>
<path d="M58.5944 19.3453V4.97498H36.4694L33.7233 10.5686H53.0008V28.0673L58.5944 19.3453Z" fill="url(#paint1_linear_0_8812)"/>
<path d="M14.9759 4.97498V16.1935H20.5696V10.5686H33.8165L36.5704 4.97498H14.9759Z" fill="black"/>
<path d="M52.9997 42.6561V49.1157H58.5934V33.5752L52.9997 42.6561Z" fill="black"/>
<path d="M4.41992 10.5842V54.7172H19.3363L22.4101 49.1235H10.0214V10.5842H4.41992Z" fill="black"/>
<path d="M53.3664 52.2909C53.3664 52.0647 53.3976 51.854 53.4522 51.6434C53.5068 51.4328 53.5926 51.2377 53.7018 51.0583C53.8111 50.8788 53.9359 50.715 54.0841 50.5668C54.2323 50.4186 54.3962 50.2937 54.5756 50.1845C54.755 50.0753 54.9501 49.9973 55.1529 49.9349C55.3557 49.8803 55.5742 49.8491 55.8004 49.8491C56.0267 49.8491 56.2373 49.8803 56.448 49.9349C56.6586 49.9895 56.8458 50.0753 57.0253 50.1845C57.2047 50.2937 57.3685 50.4186 57.5168 50.5668C57.665 50.715 57.7898 50.8788 57.899 51.0583C58.0082 51.2377 58.0863 51.4328 58.1409 51.6434C58.1955 51.854 58.2267 52.0647 58.2267 52.2909C58.2267 52.5172 58.1955 52.7278 58.1409 52.9384C58.0863 53.1491 58.0004 53.3363 57.899 53.5157C57.7898 53.6952 57.665 53.859 57.5168 54.0072C57.3685 54.1555 57.2047 54.2803 57.0253 54.3895C56.8458 54.4987 56.6508 54.5767 56.448 54.6392C56.2373 54.6938 56.0267 54.725 55.8004 54.725C55.5742 54.725 55.3635 54.6938 55.1529 54.6392C54.9501 54.5845 54.755 54.4987 54.5756 54.3895C54.3962 54.2803 54.2323 54.1555 54.0841 54.0072C53.9359 53.859 53.8111 53.6952 53.7018 53.5157C53.5926 53.3363 53.5146 53.1413 53.4522 52.9384C53.3976 52.7356 53.3664 52.5172 53.3664 52.2909ZM53.7018 52.2909C53.7018 52.486 53.7252 52.681 53.772 52.8604C53.8189 53.0399 53.8891 53.2115 53.9827 53.3753C54.0685 53.5313 54.1777 53.6796 54.3103 53.8044C54.4352 53.9292 54.5834 54.0462 54.7316 54.1321C54.8877 54.2257 55.0515 54.2959 55.2309 54.3427C55.4104 54.3895 55.5976 54.4207 55.7926 54.4207C55.9877 54.4207 56.1749 54.3973 56.3543 54.3427C56.5338 54.2959 56.7054 54.2179 56.8614 54.1321C57.0175 54.0384 57.1579 53.9292 57.2905 53.8044C57.4231 53.6796 57.5246 53.5313 57.6182 53.3753C57.7118 53.2193 57.782 53.0477 57.8288 52.8604C57.8756 52.681 57.9068 52.486 57.9068 52.2909C57.9068 51.9945 57.8522 51.7136 57.743 51.4562C57.6338 51.1909 57.4855 50.9647 57.2905 50.7696C57.1033 50.5746 56.877 50.4186 56.6196 50.3093C56.3621 50.2001 56.0891 50.1455 55.7926 50.1455C55.5976 50.1455 55.4104 50.1689 55.2309 50.2235C55.0515 50.2703 54.8799 50.3483 54.7316 50.4342C54.5756 50.5278 54.4352 50.637 54.3103 50.7696C54.1855 50.9023 54.0763 51.0427 53.9827 51.2065C53.8969 51.3625 53.8267 51.5342 53.772 51.7214C53.7252 51.9008 53.7018 52.0959 53.7018 52.2909ZM55.3167 52.5952V53.7732H54.794V50.8008H55.7536C56.1359 50.8008 56.4245 50.871 56.604 51.0115C56.7912 51.1519 56.877 51.3547 56.877 51.6278C56.877 51.8384 56.8224 52.0179 56.7054 52.1583C56.5884 52.3065 56.4089 52.4079 56.1749 52.4625C56.2139 52.486 56.2451 52.5094 56.2685 52.5484C56.2997 52.5796 56.3231 52.6186 56.3465 52.6654L57.1033 53.781H56.6118C56.5416 53.781 56.487 53.7498 56.4558 53.6952L55.7848 52.6888C55.7692 52.6576 55.738 52.642 55.7146 52.6186C55.6834 52.603 55.6444 52.5952 55.5898 52.5952H55.3167ZM55.3167 52.2129H55.699C55.9487 52.2129 56.1203 52.1661 56.2217 52.0803C56.3231 51.9945 56.3699 51.8618 56.3699 51.6902C56.3699 51.6044 56.3621 51.5342 56.3387 51.4718C56.3153 51.4093 56.2841 51.3547 56.2373 51.3157C56.1905 51.2767 56.1281 51.2455 56.0501 51.2299C55.9721 51.2143 55.8784 51.1987 55.7614 51.1987H55.3245L55.3167 52.2129Z" fill="black"/>
<defs>
<linearGradient id="paint0_linear_0_8812" x1="50.4802" y1="46.9187" x2="19.8906" y2="57.0018" gradientUnits="userSpaceOnUse">
<stop stop-color="#E95423"/>
<stop offset="0.4" stop-color="#E95423"/>
<stop offset="0.8013" stop-color="#8B0052"/>
<stop offset="1" stop-color="#8B0052"/>
</linearGradient>
<linearGradient id="paint1_linear_0_8812" x1="60.417" y1="10.0115" x2="31.7535" y2="21.9074" gradientUnits="userSpaceOnUse">
<stop stop-color="#E95423"/>
<stop offset="0.4" stop-color="#E95423"/>
<stop offset="0.8013" stop-color="#8B0052"/>
<stop offset="1" stop-color="#8B0052"/>
</linearGradient>
</defs>
</svg>
