<svg width="208" height="57" viewBox="0 0 208 57" fill="none" xmlns="http://www.w3.org/2000/svg">
<path d="M74.8409 24.1888C74.522 24.1943 74.2042 24.1509 73.8985 24.0602C73.6548 23.9875 73.4273 23.8664 73.2254 23.7048C73.0524 23.5567 72.9158 23.3723 72.8215 23.163C72.73 22.9442 72.6815 22.71 72.6782 22.473C72.31 22.4264 71.9557 22.303 71.6382 22.1109C71.3181 21.9154 71.0401 21.6582 70.8204 21.3543C70.579 21.0191 70.3969 20.6451 70.2819 20.2484C70.1498 19.7927 70.0854 19.32 70.0907 18.8456C70.0834 18.3239 70.164 17.8046 70.329 17.3096C70.4701 16.8851 70.6905 16.4913 70.9785 16.1491C71.2455 15.8387 71.5776 15.591 71.9512 15.4235C72.3291 15.2539 72.7391 15.1676 73.1534 15.1704C73.5659 15.1673 73.9742 15.2536 74.3502 15.4235C74.7219 15.5918 75.0523 15.8395 75.3181 16.1491C75.6059 16.4907 75.8249 16.8848 75.9629 17.3096C76.2626 18.2725 76.274 19.3019 75.9959 20.2713C75.8768 20.6711 75.689 21.0467 75.442 21.3819C74.9842 21.9978 74.2977 22.3956 73.5276 22.4811C73.5424 22.6557 73.5963 22.8248 73.6851 22.9758C73.7641 23.101 73.8743 23.2035 74.0049 23.2733C74.1516 23.3501 74.3111 23.3999 74.476 23.4201C74.6766 23.447 74.8799 23.4591 75.0818 23.4571H75.5685V24.1874L74.8409 24.1888ZM73.1675 21.7763C73.4719 21.7808 73.7731 21.7133 74.0465 21.5792C74.3199 21.4452 74.5577 21.2484 74.7406 21.005C74.9478 20.7274 75.1023 20.4142 75.1963 20.0808C75.4144 19.2729 75.4144 18.4217 75.1963 17.6138C75.102 17.2773 74.9486 16.9744 74.7406 16.7004C74.367 16.2104 73.7834 15.9263 73.1675 15.9357C72.8581 15.9327 72.552 15.9999 72.2723 16.1323C72.003 16.2656 71.7553 16.4601 71.5655 16.7011C71.3555 16.973 71.2 17.2833 71.1078 17.6145C70.8922 18.4227 70.8922 19.2733 71.1078 20.0814C71.2005 20.4157 71.3558 20.7293 71.5655 21.0056C71.7527 21.2499 71.9948 21.4466 72.2723 21.5798C72.5503 21.7131 72.8579 21.7797 73.1675 21.7763ZM78.8284 22.4831C78.626 22.497 78.423 22.4696 78.2316 22.4024C78.0402 22.3353 77.8644 22.2299 77.7151 22.0927C77.5808 21.9422 77.4778 21.7665 77.412 21.5759C77.3463 21.3852 77.3191 21.1833 77.3321 20.9821V17.3345H78.16V20.8091C78.1374 21.0768 78.2156 21.3433 78.3794 21.5562C78.5706 21.7312 78.827 21.8255 79.0862 21.7952C79.3824 21.7972 79.6745 21.7279 79.933 21.5758C80.2184 21.4088 80.4836 21.2096 80.7225 20.9814V17.3345H81.5592V22.3882H80.7245V21.6316C80.6122 21.7459 80.4919 21.8521 80.3644 21.9493C80.2263 22.0541 80.0784 22.1454 79.9229 22.2219C79.7586 22.3027 79.5863 22.3667 79.4086 22.4118C79.2192 22.4596 79.0245 22.4836 78.8291 22.4831H78.8284ZM84.1305 22.4643C83.7544 22.4848 83.3837 22.3676 83.0878 22.1344C82.9576 22.016 82.8557 21.8698 82.7894 21.7067C82.7231 21.5437 82.6942 21.3678 82.7048 21.1921C82.7028 20.9444 82.7641 20.7007 82.8825 20.4833C83.024 20.2424 83.2211 20.0388 83.4574 19.8896C83.7805 19.683 84.1318 19.5248 84.5007 19.4184C85.0193 19.265 85.5491 19.1524 86.0852 19.0819V18.8517C86.1189 18.5905 86.028 18.3287 85.8395 18.1449C85.6511 17.9611 85.3865 17.8757 85.126 17.916C84.7753 17.9088 84.4278 17.9842 84.1116 18.1362C83.8187 18.2822 83.5453 18.4645 83.2979 18.6787L82.8671 18.1644C83.1684 17.889 83.5106 17.6619 83.8814 17.4913C84.3003 17.3041 84.7555 17.2122 85.2142 17.2221C85.4753 17.216 85.7355 17.2547 85.9836 17.3365C86.1815 17.4038 86.3605 17.5162 86.5052 17.673C86.6446 17.8252 86.7462 18.0076 86.8014 18.2062C86.8682 18.4371 86.9006 18.6766 86.8977 18.917V21.147C86.8956 21.3994 86.9064 21.6518 86.93 21.9022C86.9448 22.0696 86.9829 22.234 87.0431 22.3909H86.1976L86.1135 22.0705C86.0895 21.9452 86.0784 21.8178 86.0805 21.6902C85.5575 22.1964 84.8568 22.4764 84.1285 22.471L84.1305 22.4643ZM84.3688 21.814C84.6913 21.8176 85.0106 21.7506 85.3044 21.6175C85.5934 21.4822 85.8574 21.299 86.0852 21.0756V19.6567C85.6765 19.7191 85.2719 19.8061 84.8736 19.9172C84.6044 19.9845 84.3297 20.0989 84.0793 20.2369C83.9064 20.3285 83.7583 20.4604 83.6465 20.6206C83.5625 20.7533 83.5179 20.9071 83.518 21.0642C83.5113 21.1679 83.5281 21.2718 83.567 21.3681C83.6059 21.4645 83.666 21.5509 83.7428 21.6209C83.9218 21.7575 84.1446 21.8255 84.3688 21.8107V21.814ZM88.3671 22.3889V15.301H89.1896V22.3889H88.3671ZM92.4758 22.4548C92.0808 22.4975 91.6849 22.3839 91.3725 22.1385C91.1456 21.8668 91.0348 21.5166 91.0642 21.1638V18.0136H90.1845V17.3345H91.0642V15.5346H91.8922V17.3345H93.2007V18.0123H91.8922V20.974C91.8758 21.1884 91.9328 21.402 92.0537 21.5798C92.1367 21.6572 92.2356 21.7154 92.3436 21.7503C92.4515 21.7852 92.5658 21.7959 92.6784 21.7817C92.7684 21.7818 92.8584 21.7755 92.9476 21.7629C93.0298 21.753 93.1113 21.7372 93.1913 21.7158V22.3943C93.0863 22.4107 92.9808 22.4231 92.8749 22.4313L92.4764 22.4468L92.4758 22.4548ZM94.3133 22.3902V17.3419H95.1366V18.2762H95.1541C95.345 17.9771 95.6 17.7242 95.9005 17.5357C96.2667 17.3203 96.6881 17.216 97.1122 17.2349H97.2145L97.1586 18.0022C97.1182 17.9935 97.0778 17.9908 97.0374 17.9935H96.921C96.5478 17.9849 96.1806 18.0878 95.8662 18.2889C95.5533 18.5012 95.3025 18.7927 95.1393 19.1337V22.3963L94.3133 22.3902ZM98.1784 16.2501V15.4464H99.0399V16.2501H98.1784ZM98.1986 22.3889V17.3345H99.0211V22.3828L98.1986 22.3889ZM102.497 22.4966C102.208 22.4973 101.92 22.44 101.652 22.3283C101.379 22.2158 101.135 22.0459 100.934 21.8302C100.715 21.5915 100.546 21.312 100.436 21.0077C100.305 20.6395 100.242 20.2504 100.25 19.86C100.24 19.4561 100.309 19.0523 100.451 18.6753C100.569 18.3684 100.751 18.0897 100.985 17.8575C101.198 17.6487 101.453 17.4868 101.732 17.3823C102 17.2815 102.283 17.2295 102.569 17.2288C102.823 17.2234 103.075 17.2621 103.316 17.3432C103.517 17.4146 103.705 17.5197 103.872 17.6542C104.031 17.7824 104.167 17.9364 104.275 18.1099C104.383 18.2829 104.475 18.4599 104.553 18.6444L103.853 18.9351C103.753 18.648 103.582 18.3908 103.355 18.1873C103.127 18.0081 102.843 17.917 102.553 17.9309C102.369 17.9304 102.186 17.9642 102.014 18.0305C101.835 18.1032 101.676 18.2163 101.547 18.367C101.395 18.5406 101.28 18.7442 101.211 18.9648C101.12 19.2566 101.077 19.5612 101.085 19.8667C101.052 20.3792 101.194 20.8877 101.489 21.3085C101.611 21.4692 101.77 21.5985 101.952 21.6859C102.134 21.7733 102.335 21.8163 102.537 21.8113C102.819 21.8228 103.099 21.744 103.334 21.5825C103.583 21.372 103.775 21.1014 103.892 20.7963L104.575 21.0655C104.483 21.2702 104.37 21.465 104.238 21.6471C104.115 21.8191 103.967 21.9719 103.799 22.1008C103.629 22.2298 103.438 22.3298 103.235 22.397C102.997 22.4722 102.748 22.5072 102.498 22.5006L102.497 22.4966ZM107.288 22.4845C106.867 22.4916 106.449 22.4085 106.063 22.2408C105.738 22.1034 105.45 21.8921 105.222 21.6235L105.717 21.1281C105.919 21.3328 106.141 21.5024 106.395 21.6283C106.676 21.7647 106.985 21.8323 107.297 21.8255C107.612 21.8453 107.925 21.7753 108.202 21.6235C108.302 21.5614 108.384 21.4736 108.438 21.3691C108.493 21.2647 108.519 21.1476 108.513 21.0299C108.518 20.9143 108.49 20.7996 108.433 20.6993C108.375 20.599 108.29 20.5172 108.188 20.4638C107.879 20.3099 107.551 20.198 107.213 20.1313L106.472 19.9192C106.27 19.8536 106.077 19.7583 105.902 19.6365C105.75 19.5279 105.624 19.3856 105.535 19.2205C105.44 19.0305 105.394 18.8197 105.401 18.6073C105.4 18.4224 105.441 18.2396 105.521 18.0729C105.602 17.9029 105.721 17.7536 105.869 17.636C106.036 17.5033 106.226 17.4024 106.429 17.3385C106.669 17.2631 106.919 17.2262 107.17 17.2295C107.554 17.2179 107.936 17.2848 108.294 17.426C108.593 17.5529 108.867 17.7336 109.102 17.9591L108.671 18.5057C108.478 18.3231 108.255 18.1747 108.012 18.0668C107.759 17.9538 107.485 17.8961 107.208 17.8979C106.929 17.871 106.649 17.9451 106.419 18.1065C106.347 18.1631 106.29 18.2347 106.249 18.3161C106.209 18.3975 106.187 18.4868 106.185 18.5777C106.173 18.7945 106.289 18.9984 106.481 19.0994C106.766 19.2399 107.069 19.3411 107.382 19.4003C107.668 19.4721 107.929 19.5461 108.165 19.6224C108.38 19.6897 108.583 19.7873 108.77 19.9118C108.935 20.0231 109.069 20.1725 109.163 20.3473C109.26 20.5506 109.306 20.7745 109.298 20.9996C109.304 21.2182 109.254 21.4349 109.153 21.6289C109.052 21.8228 108.903 21.9876 108.72 22.1075C108.518 22.2381 108.307 22.3337 108.077 22.3882C107.819 22.4527 107.553 22.4853 107.287 22.4851L107.288 22.4845ZM76.7229 42.2928C75.7854 42.3014 74.8544 42.1359 73.9773 41.8048C73.1439 41.4885 72.3934 40.9877 71.7795 40.3408C71.1242 39.6311 70.6284 38.7892 70.3256 37.8718C69.9559 36.7372 69.7791 35.5486 69.8026 34.3555C69.7804 33.1814 69.961 32.0123 70.3364 30.8997C70.6493 29.9811 71.1512 29.1382 71.8098 28.4254C72.4244 27.7724 73.1796 27.2689 74.0176 26.9445C74.8822 26.619 75.7991 26.4552 76.7229 26.4612C77.567 26.4441 78.4082 26.5648 79.2134 26.8186C79.8726 27.0334 80.4827 27.3765 81.0086 27.8283C81.5 28.2591 81.9065 28.7707 82.2067 29.3583C82.5154 29.9609 82.7485 30.5994 82.9007 31.2592L79.7317 32.184C79.62 31.7802 79.4773 31.3709 79.3043 30.9818C79.1562 30.6398 78.9514 30.3253 78.6985 30.0516C78.4629 29.7972 78.1802 29.5939 77.8638 29.4458C77.4936 29.2923 77.0965 29.2183 76.6973 29.2291C75.6324 29.1752 74.6214 29.7002 74.052 30.6022C73.3993 31.7355 73.0884 33.0333 73.1567 34.3393C73.087 35.6761 73.4084 37.0043 74.0816 38.1613C74.3604 38.6098 74.753 38.9765 75.2196 39.224C75.6862 39.4715 76.21 39.5909 76.7377 39.5701C77.1238 39.5949 77.5105 39.5343 77.8705 39.3926C78.2305 39.2509 78.5548 39.0316 78.8203 38.7502C79.3775 38.0518 79.7663 37.2344 79.9565 36.3614L83.1053 37.0648C82.9241 37.793 82.6643 38.4994 82.3306 39.1716C82.021 39.7976 81.5942 40.3563 81.0739 40.8221C80.5332 41.2953 79.906 41.6592 79.2269 41.8937C78.4184 42.1646 77.5694 42.2948 76.7168 42.2787L76.7229 42.2928ZM87.5176 42.2356C87.0851 42.2396 86.6543 42.1806 86.2387 42.0606C85.8527 41.9516 85.4982 41.7524 85.2044 41.4795C84.9105 41.2066 84.6857 40.8678 84.5485 40.4909C84.3805 40.0251 84.3006 39.532 84.3129 39.037V31.0189H87.6226V38.0704C87.5955 38.4705 87.7016 38.8683 87.9242 39.2019C88.0482 39.3399 88.2029 39.4468 88.3758 39.514C88.5487 39.5812 88.735 39.6069 88.9197 39.5889C89.3571 39.5911 89.7878 39.4823 90.1717 39.2726C90.5805 39.0514 90.9641 38.7867 91.316 38.483V31.0189H94.6358V42.0041H91.316V40.2944C91.1275 40.5246 90.9283 40.744 90.7102 40.954C90.4642 41.1964 90.189 41.4074 89.891 41.582C89.5565 41.7795 89.2003 41.9376 88.8295 42.0532C88.4019 42.1813 87.9572 42.2431 87.5109 42.2363L87.5176 42.2356ZM100.645 42.2356C99.6072 42.2639 98.5736 42.0984 97.5968 41.7476C96.8416 41.4631 96.1381 41.0567 95.5142 40.5448L96.8315 38.6843C97.3526 39.1412 97.9552 39.4956 98.6078 39.7289C99.2584 39.9773 99.9483 40.107 100.645 40.1119C101.082 40.1321 101.52 40.0392 101.912 39.8427C102.061 39.768 102.186 39.6523 102.271 39.5092C102.357 39.3661 102.4 39.2016 102.395 39.035C102.414 38.6863 102.231 38.3578 101.924 38.1902C101.415 37.9499 100.872 37.7911 100.308 37.719C99.7849 37.6293 99.267 37.5202 98.7546 37.3919C98.2687 37.2789 97.8035 37.0903 97.376 36.8332C96.974 36.5878 96.6347 36.252 96.3852 35.8525C96.1117 35.374 95.9792 34.828 96.0029 34.2774C95.9941 33.7679 96.1043 33.2634 96.3246 32.804C96.5357 32.3766 96.8419 32.0033 97.2199 31.7128C97.6237 31.4066 98.0801 31.1764 98.5661 31.0397C99.1178 30.8775 99.6906 30.7981 100.266 30.8041C101.217 30.7769 102.165 30.9168 103.068 31.2174C103.796 31.484 104.478 31.8641 105.087 32.3435L103.789 34.2242C103.276 33.8688 102.725 33.5727 102.145 33.3398C101.641 33.1377 101.104 33.032 100.561 33.0281C100.175 33.0039 99.7905 33.0928 99.4546 33.2839C99.3342 33.3582 99.2355 33.4629 99.1682 33.5874C99.101 33.7119 99.0677 33.8519 99.0716 33.9933C99.0688 34.1499 99.1119 34.3039 99.1956 34.4362C99.2794 34.5685 99.4001 34.6734 99.5428 34.7378C100.017 34.9546 100.52 35.0999 101.037 35.1706C101.576 35.264 102.114 35.373 102.653 35.4978C103.154 35.6081 103.636 35.7928 104.082 36.0457C104.491 36.2815 104.839 36.6106 105.097 37.0062C105.375 37.4649 105.511 37.9951 105.49 38.5308C105.505 39.1228 105.366 39.7085 105.086 40.2304C104.827 40.6969 104.46 41.0933 104.014 41.3868C103.542 41.6937 103.02 41.9137 102.471 42.0364C101.873 42.1748 101.261 42.2437 100.647 42.2417L100.645 42.2356ZM110.916 42.1461C110.255 42.1643 109.596 42.0909 108.955 41.9294C108.528 41.8251 108.137 41.6082 107.822 41.3013C107.561 41.0204 107.383 40.6721 107.309 40.2957C107.22 39.842 107.177 39.3803 107.183 38.9172V33.4353H105.352V31.0209H107.183V27.2562H110.482V31.0256H113.298V33.44H110.482V38.199C110.436 38.6281 110.544 39.0595 110.788 39.4159C111.132 39.6818 111.568 39.8009 111.999 39.7471L112.609 39.7175C112.775 39.7064 112.939 39.6727 113.096 39.6172V41.9906C113.029 42.0041 112.911 42.0209 112.743 42.0411L112.176 42.0909L111.516 42.1313L110.916 42.1542L110.916 42.1461ZM119.236 42.2356C118.559 42.2337 117.885 42.1356 117.235 41.9442C116.546 41.7508 115.908 41.4063 115.368 40.9357C114.829 40.4651 114.401 39.8801 114.116 39.2234C113.756 38.3695 113.585 37.4482 113.614 36.5222C113.586 35.5932 113.757 34.669 114.116 33.8116C114.686 32.4788 115.829 31.4759 117.225 31.0855C118.531 30.7029 119.918 30.7029 121.224 31.0855C121.885 31.2734 122.498 31.5989 123.024 32.0406C123.586 32.5267 124.033 33.1319 124.332 33.8123C124.695 34.6687 124.868 35.5934 124.84 36.5229C124.868 37.4494 124.695 38.3711 124.332 39.2241C124.031 39.9003 123.585 40.5016 123.024 40.985C122.498 41.4273 121.884 41.7545 121.224 41.9455C120.579 42.1362 119.909 42.2339 119.237 42.2356H119.236ZM119.236 39.9019C119.581 39.922 119.925 39.8461 120.229 39.6828C120.534 39.5194 120.787 39.2749 120.961 38.9764C121.365 38.2308 121.558 37.3894 121.52 36.5424C121.522 36.1116 121.48 35.6808 121.394 35.2595C121.322 34.8849 121.185 34.5258 120.99 34.198C120.816 33.9067 120.573 33.6633 120.281 33.4899C119.962 33.3108 119.6 33.2222 119.235 33.2334C118.886 33.2104 118.538 33.2835 118.229 33.4449C117.919 33.6062 117.66 33.8495 117.479 34.1482C117.077 34.8799 116.884 35.7083 116.921 36.5424C116.919 36.9799 116.962 37.4161 117.046 37.8456C117.118 38.223 117.255 38.5851 117.45 38.9158C117.626 39.2089 117.87 39.4557 118.16 39.6354C118.487 39.8239 118.86 39.9154 119.236 39.9019ZM125.927 42.0047V31.0189H129.245V32.7488C129.426 32.5124 129.624 32.2905 129.839 32.0851C130.086 31.8483 130.357 31.6377 130.647 31.4564C130.96 31.2544 131.296 31.1023 131.648 30.9852C132.035 30.8506 132.442 30.794 132.85 30.7988C133.582 30.7483 134.311 30.9314 134.932 31.3218C135.402 31.6716 135.731 32.1785 135.858 32.7501C136.025 32.5495 136.227 32.3319 136.464 32.0972C136.706 31.8525 136.978 31.6379 137.271 31.4577C137.589 31.2628 137.928 31.1048 138.281 30.9866C139.143 30.7184 140.069 30.7397 140.917 31.0471C141.304 31.1983 141.649 31.4378 141.927 31.7465C142.198 32.0532 142.399 32.4152 142.516 32.8073C142.644 33.2467 142.707 33.7026 142.701 34.1603V42.0068H139.383V35.0427C139.407 34.6526 139.326 34.2632 139.147 33.9153C138.917 33.6272 138.552 33.4825 138.187 33.5329C137.786 33.5305 137.393 33.6383 137.05 33.8446C136.672 34.0734 136.315 34.336 135.983 34.6288V42.0027H132.674V35.0427C132.698 34.6526 132.617 34.2632 132.438 33.9153C132.325 33.7736 132.177 33.6638 132.009 33.5968C131.84 33.5297 131.657 33.5077 131.478 33.5329C131.075 33.5302 130.679 33.638 130.334 33.8446C129.953 34.0753 129.593 34.3376 129.257 34.6288V42.0027L125.927 42.0047ZM149.315 42.2356C148.608 42.2372 147.905 42.1359 147.228 41.9347C146.568 41.7416 145.959 41.4111 145.438 40.9641C144.891 40.4805 144.463 39.8781 144.185 39.2032C143.848 38.3508 143.687 37.4386 143.714 36.5222C143.684 35.5921 143.87 34.6678 144.258 33.8217C144.581 33.1429 145.048 32.5422 145.625 32.0608C146.154 31.6265 146.762 31.2989 147.415 31.0963C148.001 30.9075 148.611 30.8073 149.226 30.7988C149.817 30.8025 150.404 30.8888 150.971 31.0552C151.581 31.2322 152.14 31.5533 152.6 31.9976C153.134 32.5225 153.545 33.1596 153.803 33.8628C154.148 34.8443 154.308 35.8815 154.274 36.9214V37.4141H147.005C147.013 38.1424 147.308 38.8377 147.824 39.3507C148.314 39.7466 148.93 39.952 149.559 39.9289C150.195 39.9325 150.824 39.7946 151.401 39.525C151.916 39.2916 152.394 38.9829 152.818 38.6089L154.097 40.5905C152.759 41.7079 151.057 42.2949 149.315 42.2423L149.315 42.2356ZM151.307 35.456C151.146 33.9272 150.445 33.1625 149.204 33.1621C148.695 33.1593 148.203 33.352 147.831 33.7005C147.375 34.1783 147.097 34.7979 147.042 35.456H151.307ZM155.371 42.0054V31.0189H158.691V32.8605H158.711C158.872 32.6075 159.054 32.3686 159.255 32.1463C159.48 31.8949 159.737 31.6734 160.019 31.4873C160.728 31.0194 161.563 30.779 162.412 30.7981H162.523L162.473 33.7463C162.341 33.7261 162.209 33.7129 162.076 33.7066L161.608 33.6864C161.005 33.6719 160.411 33.829 159.893 34.1394C159.436 34.4161 159.029 34.7698 158.691 35.1848V42.0034L155.371 42.0054ZM162.664 42.0054L167.537 33.9402L163.091 26.748H166.914L169.64 31.3251L172.215 26.748H175.675L171.33 33.9604L176.269 41.9973H172.547L169.308 36.6663L166.18 41.9973L162.664 42.0054ZM177.683 42.0054V26.754H182.109L185.509 37.9701H185.549L188.718 26.754H193.255V42.0041H190.016V31.6024H189.975C189.881 32.1988 189.755 32.7898 189.599 33.3727C189.454 33.896 189.298 34.4389 189.131 35.0017L186.848 42.002H183.886L181.624 35.0017C181.543 34.7145 181.465 34.4497 181.389 34.2074C181.312 33.9651 181.24 33.7102 181.172 33.4427C181.105 33.1735 181.036 32.8818 180.966 32.5677C180.895 32.2536 180.82 31.8748 180.739 31.4315H180.699V42.0041L177.683 42.0054ZM196.046 29.5272V27.0596H195.166V26.7567H197.257V27.0596H196.373V29.5272H196.046ZM197.718 29.5272V26.7554H198.149L199.024 29.1113H199.031L199.888 26.7554H200.327V29.5272H200.002V27.2764H199.995L199.919 27.5173L199.825 27.7866L199.164 29.5198H198.868L198.206 27.7866C198.187 27.7417 198.172 27.6968 198.159 27.6519L198.119 27.5321L198.078 27.4069L198.035 27.2589H198.027V29.5124L197.718 29.5272Z" fill="black"/>
<path d="M29.8315 52H18.752C12.6361 51.9933 7.67934 47.0371 7.67261 40.9206V15.8134C7.67934 9.69014 12.6361 4.73401 18.752 4.72728H29.8315V52ZM54.9453 40.9206V52H32.7865V29.8411H43.8659C49.9825 29.8479 54.9386 34.804 54.9453 40.9206ZM43.8659 26.8862H32.7865V4.72728H54.9453V15.8067C54.9386 21.9233 49.9818 26.8794 43.8659 26.8862Z" fill="#21DBAA"/>
</svg>
