<svg  viewBox="20 16 50 50" fill="none" xmlns="http://www.w3.org/2000/svg"><defs>
<clipPath id="clip0_0_2589">
<rect width="50" height="50" fill="white" transform="translate(20 16)"/>
</clipPath>
<clipPath id="clip1_0_2589">
<rect width="100" height="23.3918" fill="white" transform="translate(98 29)"/>
</clipPath>
</defs><g clip-path="url(#clip0_0_2589)">
<path d="M69.7102 28.4223C69.7102 21.5619 64.1489 16 57.2885 16H32.445C30.8134 15.9978 29.1975 16.318 27.69 16.9423C26.1826 17.5666 24.8134 18.4827 23.6611 19.6379C18.8105 24.4894 18.8105 32.3573 23.6611 37.2062L28.085 41.6304C23.3746 43.396 20.0215 47.9393 20.0215 53.2665C20.0215 60.1268 25.583 65.6888 32.4434 65.6888H57.2885C58.92 65.6909 60.5359 65.3706 62.0432 64.7461C63.5505 64.1217 64.9196 63.2056 66.0719 62.0502C70.923 57.1989 70.923 49.331 66.0717 44.4819L61.6479 40.0579C66.3574 38.2926 69.7102 33.7489 69.7102 28.4223ZM27.069 58.6432C26.0252 57.5991 25.3081 56.2736 25.0051 54.8288C24.702 53.3838 24.8263 51.8819 25.3626 50.5064C25.8989 49.1309 26.8241 47.9412 28.0251 47.083C29.2262 46.2245 30.6512 45.7344 32.1262 45.6724L47.3232 60.8709H32.443C31.4444 60.8733 30.4554 60.6775 29.5329 60.2952C28.6105 59.9128 27.7731 59.3514 27.069 58.6432ZM62.6639 47.8915C64.0896 49.3172 64.8906 51.251 64.8906 53.2675C64.8906 55.2837 64.0896 57.2175 62.6639 58.6432C61.2382 60.069 59.3046 60.87 57.2885 60.87C55.2722 60.87 53.3386 60.069 51.913 58.6432L27.069 33.7983C25.6521 32.3705 24.8587 30.4395 24.8625 28.428C24.8663 26.4165 25.667 24.4885 27.0892 23.0662C28.5114 21.6438 30.4393 20.8431 32.4506 20.8393C34.462 20.8355 36.3929 21.629 37.8204 23.046L62.6639 47.8915ZM62.6639 33.7983C61.3191 35.1499 59.5125 35.9425 57.6071 36.0167L42.4096 20.8193H57.29C58.7934 20.8197 60.2629 21.2659 61.5127 22.1015C62.7627 22.937 63.7369 24.1244 64.312 25.5135C64.8871 26.9026 65.0376 28.4312 64.7442 29.9058C64.4509 31.3805 63.727 32.7349 62.6639 33.7983Z" fill="#58B1E4"/>
</g><g clip-path="url(#clip1_0_2589)">
<path d="M136.335 37.1033C135.925 35.3138 133.968 33.8414 131.489 33.8414C129.159 33.8041 126.997 35.6307 127.053 37.8488C127.053 39.8432 128.153 41.1107 130.072 41.5395L130.576 41.6326C131.675 41.8563 132.365 42.0054 132.645 42.0986C133.446 42.3409 133.912 42.9933 133.912 43.6084C133.912 44.6522 132.943 45.3605 131.545 45.3605C130.892 45.3605 130.277 45.2114 129.718 44.8945C129.178 44.5776 128.861 44.1489 128.768 43.6084L126.568 43.9439C126.717 46.2365 129.029 47.5413 131.452 47.5413C133.949 47.5413 136.205 46.106 136.205 43.5897C136.205 41.5208 134.9 40.0855 132.645 39.6941L132.197 39.6196C131.899 39.5637 131.209 39.4519 130.706 39.3213C129.793 39.1536 129.308 38.5571 129.308 37.8675C129.307 37.7423 129.32 37.6172 129.345 37.4947C129.588 36.6 130.482 36.0221 131.545 36.0221C132.738 36.0221 133.856 36.6559 134.136 37.6811L136.335 37.1033Z" fill="black"/>
<path d="M146.728 42.6947C146.728 40.9799 146.318 39.7497 145.498 39.0041C144.696 38.2586 143.885 37.8858 142.618 37.8858C141.574 37.8858 140.968 38.3751 140.316 39.1392V34.1019H138.098V47.3359H140.316V42.9379C140.372 41.9873 140.633 41.279 141.136 40.8131C141.639 40.3471 141.984 40.1234 142.618 40.1234C143.811 40.1234 144.528 41.0368 144.528 42.8075V47.3368H146.728V42.6947Z" fill="black"/>
<path d="M152.911 47.5785C155.39 47.6345 157.478 45.435 157.441 42.8815C157.441 40.2533 155.428 38.1098 152.911 38.1098C150.432 38.0538 148.289 40.3278 148.345 42.8815C148.289 45.3614 150.47 47.6345 152.911 47.5785ZM152.911 40.1974C154.328 40.1974 155.26 41.353 155.26 42.9001C155.26 44.4471 154.347 45.5282 152.911 45.5282C151.476 45.5282 150.507 44.3166 150.507 42.9001C150.507 41.3903 151.477 40.1974 152.911 40.1974Z" fill="black"/>
<path d="M163.88 38.3894C162.631 38.3894 161.773 38.7249 161.288 39.4519V38.3894H159.107L159.126 47.3362H161.288V42.7883C161.381 41.3158 162.316 40.216 163.64 40.216H164.307V38.3894H163.88Z" fill="black"/>
<path d="M170.952 40.2161V38.3895H169.157V35.5796L166.939 35.9524V38.3895H165.695V40.2161H166.939V44.6802C166.939 46.4044 168.039 47.3177 169.363 47.3177L170.929 47.3364V45.3419L170.248 45.3233C169.651 45.3233 169.157 44.9971 169.157 44.3447V40.2161H170.952Z" fill="black"/>
<path d="M180.977 40.8881C180.697 40.0494 180.175 39.3784 179.411 38.8751C178.647 38.3718 177.789 38.1109 176.82 38.1109C174.341 38.0549 172.123 40.3289 172.179 42.8825C172.123 45.4734 174.341 47.6169 176.82 47.561C178.684 47.561 180.194 46.6291 180.809 45.1193L178.926 44.355C178.647 45.0447 177.957 45.6598 176.82 45.6598C175.273 45.6598 174.341 44.4668 174.341 42.8825C174.341 41.2982 175.273 40.068 176.82 40.068C178.013 40.068 178.684 40.7018 179.038 41.5964L180.977 40.8881Z" fill="black"/>
<path d="M197.451 40.2161V38.3895H195.657V35.5796L193.439 35.9524V38.3895H192.195V40.2161H193.439V44.6802C193.439 46.4044 194.539 47.3177 195.862 47.3177L197.427 47.3364V45.3419L196.747 45.3233C196.151 45.3233 195.657 44.9971 195.657 44.3447V40.2161H197.451Z" fill="black"/>
<path fill-rule="evenodd" clip-rule="evenodd" d="M182.494 38.3964L184.637 38.392L184.649 43.6299C184.651 44.9838 185.415 45.6413 186.601 45.6388C187.788 45.6361 188.548 44.9577 188.546 43.6036L188.534 38.3846L190.678 38.3799L190.689 43.7426C190.692 44.9899 190.304 45.9526 189.526 46.6136C188.748 47.2746 187.774 47.5961 186.588 47.5982C185.402 47.6002 184.426 47.282 183.663 46.6247C182.9 45.9675 182.509 45.0404 182.506 43.812L182.494 38.3964Z" fill="black"/>
<path d="M121.256 34.8116C121.256 31.602 118.654 29 115.445 29H103.822C103.059 28.999 102.303 29.1488 101.597 29.4409C100.892 29.7329 100.252 30.1615 99.7125 30.7019C97.4431 32.9716 97.4431 36.6525 99.7125 38.9211L101.782 40.9908C99.5784 41.8168 98.0097 43.9423 98.0097 46.4346C98.0097 49.6441 100.612 52.2462 103.821 52.2462H115.445C116.208 52.2472 116.964 52.0974 117.669 51.8052C118.374 51.5131 119.015 51.0845 119.554 50.544C121.823 48.2743 121.823 44.5934 119.554 42.3249L117.484 40.2551C119.687 39.4293 121.256 37.3036 121.256 34.8116ZM101.307 48.9501C100.818 48.4616 100.483 47.8415 100.341 47.1655C100.199 46.4895 100.258 45.7868 100.508 45.1433C100.759 44.4998 101.192 43.9433 101.754 43.5418C102.316 43.1401 102.983 42.9108 103.673 42.8818L110.782 49.9922H103.821C103.354 49.9933 102.891 49.9018 102.46 49.7229C102.028 49.544 101.636 49.2813 101.307 48.9501ZM117.959 43.92C118.626 44.587 119.001 45.4917 119.001 46.4351C119.001 47.3784 118.626 48.283 117.959 48.9501C117.292 49.6171 116.388 49.9918 115.445 49.9918C114.501 49.9918 113.597 49.6171 112.93 48.9501L101.307 37.3267C100.644 36.6587 100.273 35.7553 100.274 34.8143C100.276 33.8732 100.651 32.9712 101.316 32.3058C101.982 31.6404 102.884 31.2658 103.825 31.264C104.765 31.2622 105.669 31.6335 106.337 32.2964L117.959 43.92ZM117.959 37.3267C117.33 37.959 116.485 38.3298 115.594 38.3646L108.484 31.2547H115.445C116.149 31.2548 116.836 31.4636 117.421 31.8545C118.006 32.2454 118.461 32.8009 118.73 33.4508C118.999 34.1007 119.07 34.8158 118.933 35.5056C118.795 36.1956 118.457 36.8292 117.959 37.3267Z" fill="#58B1E4"/>
</g></svg>