<svg width="255" height="47" viewBox="0 0 255 47" fill="none" xmlns="http://www.w3.org/2000/svg">
<path d="M6.74862 41.1238V38.6262C6.74862 38.1165 7.00348 37.8616 7.51319 37.8616H10.1637V11.3565H7.51319C7.00348 11.3565 6.74862 11.1016 6.74862 10.5919V8.04331C6.74862 7.53359 7.00348 7.27874 7.51319 7.27874C11.8628 7.07485 15.4817 6.97291 18.3701 6.97291C27.2052 6.97291 31.6227 10.1331 31.6227 16.4536C31.6227 18.6624 31.062 20.6078 29.9406 22.2898C28.8193 23.9719 27.3241 25.2547 25.4551 26.1382L31.4188 37.8616H34.579C35.0888 37.8616 35.3436 38.1165 35.3436 38.6262V41.1238C35.3436 41.6335 35.0888 41.8884 34.579 41.8884H27.8508C27.3411 41.8884 26.9673 41.6675 26.7294 41.2257L19.7973 27.5144H18.7779C17.6905 27.5144 16.722 27.4634 15.8725 27.3615V37.8616H19.0837C19.5934 37.8616 19.8483 38.1165 19.8483 38.6262V41.1238C19.8483 41.6335 19.5934 41.8884 19.0837 41.8884H7.51319C7.00348 41.8884 6.74862 41.6335 6.74862 41.1238ZM15.8725 11.2035V23.4877C16.1444 23.5216 16.5351 23.5386 17.0449 23.5386C19.7973 23.5386 21.9381 22.9949 23.4673 21.9075C24.9964 20.8201 25.761 19.1891 25.761 17.0143C25.761 13.1404 23.0765 11.2035 17.7075 11.2035H15.8725ZM49.6156 42.5C45.5719 42.5 42.6071 41.3192 40.7211 38.9575C38.8351 36.5958 37.8922 33.4696 37.8922 29.5787C37.8922 25.6879 38.8946 22.4682 40.8995 19.9197C42.9044 17.3711 45.7927 16.0968 49.5646 16.0968C51.4336 16.0968 53.0392 16.4451 54.3815 17.1417C55.7237 17.8383 56.7516 18.7813 57.4652 19.9706C58.8245 22.2813 59.5041 24.9488 59.5041 27.9731C59.5041 29.4004 59.4361 30.1819 59.3002 30.3178C59.1643 30.4538 58.9094 30.5217 58.5356 30.5217H43.55C43.7199 32.9684 44.3231 34.8628 45.3595 36.205C46.3959 37.5473 48.1884 38.2184 50.737 38.2184C52.606 38.2184 54.5259 37.7767 56.4968 36.8932C56.9725 36.6553 57.3123 36.7912 57.5162 37.3009L58.4846 39.6456C58.6546 40.0534 58.5016 40.3932 58.0259 40.665C55.7832 41.8884 52.9798 42.5 49.6156 42.5ZM43.55 26.7498H54.1521C54.22 22.5022 52.555 20.3784 49.1569 20.3784C47.152 20.3784 45.7333 21.0155 44.9008 22.2898C44.0682 23.5641 43.618 25.0508 43.55 26.7498ZM71.1765 20.8371V33.6819C71.1765 35.2791 71.3804 36.4344 71.7882 37.148C72.196 37.8616 72.9605 38.2184 74.0819 38.2184C75.2033 38.2184 76.2907 37.9805 77.3441 37.5048C77.7179 37.3689 77.9897 37.5048 78.1596 37.9126L79.0771 40.2573C79.1111 40.3592 79.1281 40.5036 79.1281 40.6905C79.1281 40.8774 78.9582 41.0728 78.6184 41.2767C76.9873 42.0922 75.0504 42.5 72.8076 42.5C69.7833 42.5 67.7954 41.7185 66.844 40.1553C66.1643 39.1359 65.7736 38.1505 65.6716 37.199C65.5357 35.9077 65.4677 34.5485 65.4677 33.1213V20.8371H62.5624C62.0527 20.8371 61.7978 20.5823 61.7978 20.0726V17.4221C61.7978 16.9123 62.0527 16.6575 62.5624 16.6575H65.4677V9.77634C65.4677 9.26662 65.7226 9.01176 66.2323 9.01176H70.412C70.9217 9.01176 71.1765 9.26662 71.1765 9.77634V16.6575H76.3247C76.8344 16.6575 77.0892 16.9123 77.0892 17.4221V20.0726C77.0892 20.5823 76.8344 20.8371 76.3247 20.8371H71.1765ZM80.8611 7.27874V4.62822C80.8611 4.1185 81.116 3.86365 81.6257 3.86365H89.3224C89.8321 3.86365 90.087 4.1185 90.087 4.62822V20.3274C91.9899 17.507 94.6234 16.0968 97.9875 16.0968C103.255 16.0968 105.888 18.9852 105.888 24.7619V37.8616H108.895C109.405 37.8616 109.66 38.1165 109.66 38.6262V41.1238C109.66 41.6335 109.405 41.8884 108.895 41.8884H97.7327C97.2229 41.8884 96.9681 41.6335 96.9681 41.1238V38.6262C96.9681 38.1165 97.2229 37.8616 97.7327 37.8616H100.179V27.3105C100.179 25.1697 99.9075 23.6066 99.3638 22.6211C98.8201 21.6357 97.6987 21.143 95.9996 21.143C94.3006 21.143 92.8904 21.6527 91.769 22.6721C90.6476 23.6915 90.087 24.8469 90.087 26.1382V37.8616H93.1962C93.7059 37.8616 93.9608 38.1165 93.9608 38.6262V41.1238C93.9608 41.6335 93.7059 41.8884 93.1962 41.8884H81.6257C81.116 41.8884 80.8611 41.6335 80.8611 41.1238V38.6262C80.8611 38.1165 81.116 37.8616 81.6257 37.8616H84.3782V8.04331H81.6257C81.116 8.04331 80.8611 7.78845 80.8611 7.27874ZM120.874 37.8616H124.085C124.595 37.8616 124.849 38.1165 124.849 38.6262V41.1238C124.849 41.6335 124.595 41.8884 124.085 41.8884H111.954C111.444 41.8884 111.189 41.6335 111.189 41.1238V38.6262C111.189 38.1165 111.444 37.8616 111.954 37.8616H115.165V20.8371H112.412C111.903 20.8371 111.648 20.5823 111.648 20.0726V17.4221C111.648 16.9123 111.903 16.6575 112.412 16.6575H120.109C120.619 16.6575 120.874 16.9123 120.874 17.4221V37.8616ZM113.738 9.52148C113.738 8.46806 114.069 7.59306 114.732 6.89645C115.394 6.19984 116.278 5.85153 117.382 5.85153C118.487 5.85153 119.37 6.19984 120.033 6.89645C120.695 7.59306 121.027 8.46806 121.027 9.52148C121.027 10.5749 120.687 11.4414 120.007 12.121C119.328 12.8006 118.436 13.1405 117.331 13.1405C116.227 13.1405 115.352 12.8006 114.706 12.121C114.061 11.4414 113.738 10.5749 113.738 9.52148ZM126.633 20.1235V17.4221C126.633 16.9123 126.888 16.6575 127.398 16.6575H134.33C134.772 16.6575 135.044 16.9123 135.146 17.4221L135.604 20.3784C137.507 17.524 140.226 16.0968 143.76 16.0968C149.027 16.0968 151.66 18.9852 151.66 24.7619V37.8616H154.617C155.127 37.8616 155.381 38.1165 155.381 38.6262V41.1238C155.381 41.6335 155.127 41.8884 154.617 41.8884H143.505C142.995 41.8884 142.74 41.6335 142.74 41.1238V38.6262C142.74 38.1165 142.995 37.8616 143.505 37.8616H145.952V27.3105C145.952 25.1697 145.68 23.6066 145.136 22.6211C144.592 21.6357 143.471 21.143 141.772 21.143C140.073 21.143 138.663 21.6527 137.541 22.6721C136.42 23.6915 135.859 24.8469 135.859 26.1382V37.8616H139.02C139.529 37.8616 139.784 38.1165 139.784 38.6262V41.1238C139.784 41.6335 139.529 41.8884 139.02 41.8884H127.449C126.939 41.8884 126.684 41.6335 126.684 41.1238V38.6262C126.684 38.1165 126.939 37.8616 127.449 37.8616H130.151V20.8371H127.398C126.888 20.8371 126.633 20.5993 126.633 20.1235ZM166.646 4.62822V24.9658H169.246L177.146 17.2182C177.52 16.8444 177.962 16.6575 178.471 16.6575H182.447C182.957 16.6575 183.212 16.9123 183.212 17.4221V20.0726C183.212 20.5823 182.957 20.8371 182.447 20.8371H179.338L173.731 26.2911L180.714 37.8616H183.722C184.231 37.8616 184.486 38.1165 184.486 38.6262V41.1238C184.486 41.6335 184.231 41.8884 183.722 41.8884H177.146C176.67 41.8884 176.28 41.6675 175.974 41.2257L168.328 28.8906H166.646V37.8616H169.348C169.857 37.8616 170.112 38.1165 170.112 38.6262V41.1238C170.112 41.6335 169.857 41.8884 169.348 41.8884H158.236C157.726 41.8884 157.471 41.6335 157.471 41.1238V38.6262C157.471 38.1165 157.726 37.8616 158.236 37.8616H160.937V7.99234H158.185C157.675 7.99234 157.42 7.73748 157.42 7.22776V4.62822C157.42 4.1185 157.675 3.86365 158.185 3.86365H165.882C166.391 3.86365 166.646 4.1185 166.646 4.62822ZM187.799 7.27874C192.149 7.07485 195.377 6.97291 197.484 6.97291C199.591 6.97291 201.162 7.01538 202.199 7.10033C203.235 7.18529 204.416 7.36369 205.741 7.63554C207.066 7.90738 208.247 8.27268 209.284 8.73142C210.32 9.19017 211.365 9.84429 212.418 10.6938C213.472 11.5434 214.355 12.5288 215.069 13.6502C216.632 16.2327 217.414 19.5628 217.414 23.6406C217.414 29.7912 215.715 34.3701 212.317 37.3774C208.918 40.3847 204.28 41.8884 198.401 41.8884H187.799C187.29 41.8884 187.035 41.6335 187.035 41.1238V38.6262C187.035 38.1165 187.29 37.8616 187.799 37.8616H190.45V11.4074H187.799C187.29 11.4074 187.035 11.1526 187.035 10.6429V8.04331C187.035 7.53359 187.29 7.27874 187.799 7.27874ZM208.213 34.2426C210.269 31.796 211.297 28.4489 211.297 24.2013C211.297 19.9536 210.337 16.7255 208.417 14.5167C206.497 12.3079 203.498 11.2035 199.421 11.2035H196.159V37.9126H199.523C203.261 37.9126 206.157 36.6893 208.213 34.2426ZM221.593 41.1238V38.6262C221.593 38.1165 221.848 37.8616 222.358 37.8616H225.059V11.4074H222.409C221.899 11.4074 221.644 11.1526 221.644 10.6429V8.04331C221.644 7.49961 221.899 7.22776 222.409 7.22776C226.487 7.05786 230.36 6.97291 234.03 6.97291C237.7 6.97291 240.631 7.678 242.823 9.08822C245.015 10.4984 246.111 12.5118 246.111 15.1283C246.111 17.0313 245.524 18.6878 244.352 20.0981C243.18 21.5083 241.795 22.5362 240.198 23.1818C242.814 23.5896 244.811 24.5581 246.187 26.0872C247.563 27.6164 248.251 29.4853 248.251 31.6941C248.251 34.5825 247.181 36.9186 245.04 38.7026C242.899 40.4866 240.062 41.4976 236.528 41.7354C235.067 41.8374 232.722 41.8884 229.494 41.8884H222.358C221.848 41.8884 221.593 41.6335 221.593 41.1238ZM230.768 25.8323V37.9636H233.062C236.052 37.9636 238.371 37.4878 240.019 36.5364C241.668 35.5849 242.492 33.9368 242.492 31.5921C242.492 27.7523 239.807 25.8323 234.438 25.8323H230.768ZM230.768 11.1016V21.6017H232.705C237.734 21.6017 240.249 19.8517 240.249 16.3517C240.249 14.3807 239.637 13.013 238.414 12.2485C237.191 11.4839 235.441 11.1016 233.164 11.1016H230.768Z" fill="#204956"/>
</svg>
