<svg  viewBox="20 16 220 50" fill="none" xmlns="http://www.w3.org/2000/svg"><defs>
<clipPath id="clip0_0_2455">
<rect width="50" height="50" fill="white" transform="translate(20 16)"/>
</clipPath>
<clipPath id="clip1_0_2455">
<rect width="100" height="21.4286" fill="white" transform="translate(109 30)"/>
</clipPath>
</defs><g clip-path="url(#clip0_0_2455)">
<path d="M20 20.5814C20 18.0512 22.0512 16 24.5814 16H42.5019C45.0321 16 47.0833 18.0512 47.0833 20.5814V24.126C47.0833 25.3911 46.0577 26.4167 44.7927 26.4167H22.2907C21.0256 26.4167 20 25.3911 20 24.126V20.5814Z" fill="black"/>
<path d="M20 34.9573C20 33.6922 21.0256 32.6666 22.2907 32.6666H65.4185C67.9487 32.6666 70 34.7178 70 37.2481V49.126C70 50.391 68.9744 51.4166 67.7094 51.4166H24.5814C22.0512 51.4166 20 49.3654 20 46.8352V34.9573Z" fill="black"/>
<path d="M42.916 59.9573C42.916 58.6923 43.9416 57.6666 45.2066 57.6666H67.7087C68.9737 57.6666 69.9994 58.6923 69.9994 59.9573V61.4185C69.9994 63.9487 67.9481 66 65.4179 66H47.4975C44.9673 66 42.916 63.9487 42.916 61.4185V59.9573Z" fill="black"/>
</g><g clip-path="url(#clip1_0_2455)">
<path d="M109 31.9634C109 30.8791 109.879 30 110.963 30H118.644C119.728 30 120.607 30.8791 120.607 31.9635V33.4826C120.607 34.0248 120.168 34.4643 119.625 34.4643H109.982C109.44 34.4643 109 34.0248 109 33.4826V31.9634Z" fill="black"/>
<path d="M109 38.1245C109 37.5824 109.44 37.1428 109.982 37.1428H128.465C129.549 37.1428 130.429 38.0219 130.429 39.1063V44.1968C130.429 44.739 129.989 45.1785 129.447 45.1785H110.963C109.879 45.1785 109 44.2994 109 43.2151V38.1245Z" fill="black"/>
<path d="M118.822 48.8389C118.822 48.2967 119.262 47.8572 119.804 47.8572H129.448C129.99 47.8572 130.429 48.2967 130.429 48.8389V49.4651C130.429 50.5495 129.55 51.4286 128.466 51.4286H120.786C119.701 51.4286 118.822 50.5495 118.822 49.4651V48.8389Z" fill="black"/>
<path d="M142.568 43.1617H144.632L148.465 49.4269H153.158L148.907 42.7193C151.266 41.9085 152.642 40.0904 152.642 37.4614C152.642 33.7759 150.062 31.7858 145.909 31.7858H138.465V49.4269H142.568V43.1617ZM142.568 39.8201V35.2501H145.688C147.629 35.2501 148.612 36.0855 148.612 37.5351C148.612 38.9601 147.629 39.8201 145.688 39.8201H142.568Z" fill="black"/>
<path d="M160.216 49.6971C162.796 49.6971 165.155 48.395 166.113 45.9134L162.821 44.8568C162.452 45.9871 161.494 46.5768 160.266 46.5768C158.767 46.5768 157.71 45.5694 157.44 43.8003H166.212V42.7684C166.212 39.1075 164.074 36.2083 160.143 36.2083C156.408 36.2083 153.656 39.1075 153.656 42.9404C153.656 46.9699 156.31 49.6971 160.216 49.6971ZM160.094 39.255C161.543 39.255 162.305 40.2377 162.329 41.3925H157.563C157.956 39.9675 158.89 39.255 160.094 39.255Z" fill="black"/>
<path d="M168.441 45.9625C168.441 48.6161 169.842 49.5497 172.643 49.5497C173.576 49.5497 174.313 49.4761 175.001 49.3778V46.1591C174.559 46.2082 174.338 46.2328 173.871 46.2328C172.888 46.2328 172.323 46.0363 172.323 44.9552V39.7218H174.854V36.4786H172.323V32.8914H168.441V36.4786H166.795V39.7218H168.441V45.9625Z" fill="black"/>
<path d="M189.065 42.965C189.065 38.9355 186.387 36.2083 182.578 36.2083C178.745 36.2083 176.092 38.9355 176.092 42.965C176.092 46.9944 178.745 49.6971 182.578 49.6971C186.387 49.6971 189.065 46.9944 189.065 42.965ZM179.998 42.965C179.998 40.7045 181.006 39.4269 182.578 39.4269C184.151 39.4269 185.158 40.7045 185.158 42.965C185.158 45.2254 184.151 46.503 182.578 46.503C181.006 46.503 179.998 45.2254 179.998 42.965Z" fill="black"/>
<path d="M203.221 42.965C203.221 38.9355 200.543 36.2083 196.734 36.2083C192.901 36.2083 190.248 38.9355 190.248 42.965C190.248 46.9944 192.901 49.6971 196.734 49.6971C200.543 49.6971 203.221 46.9944 203.221 42.965ZM194.155 42.965C194.155 40.7045 195.162 39.4269 196.734 39.4269C198.307 39.4269 199.314 40.7045 199.314 42.965C199.314 45.2254 198.307 46.503 196.734 46.503C195.162 46.503 194.155 45.2254 194.155 42.965Z" fill="black"/>
<path d="M209 31.7858H205.068V49.4269H209V31.7858Z" fill="black"/>
</g></svg>