<svg width="48" height="48" viewBox="0 0 48 48" fill="none" xmlns="http://www.w3.org/2000/svg">
<path d="M24 24C29.799 24 34.5 19.299 34.5 13.5C34.5 7.70101 29.799 3 24 3C18.201 3 13.5 7.70101 13.5 13.5C13.5 19.299 18.201 24 24 24Z" fill="url(#paint0_linear_0_5798)"/>
<path fill-rule="evenodd" clip-rule="evenodd" d="M23.1641 44.7441C16.761 40.378 11.4358 34.4278 7.63878 27.3967C7.492 27.1149 7.46009 26.7809 7.55051 26.4732C7.64093 26.1654 7.84574 25.911 8.1169 25.7695L15.5416 21.8747C16.0609 21.604 16.6877 21.8093 16.9759 22.3446C20.7297 29.0698 26.2803 34.4403 32.9134 37.7652C30.4671 40.3999 27.758 42.7402 24.8347 44.7441C24.3236 45.0852 23.6752 45.0852 23.1641 44.7441Z" fill="url(#paint1_linear_0_5798)"/>
<path fill-rule="evenodd" clip-rule="evenodd" d="M24.8348 44.7441C31.2387 40.379 36.5641 34.4286 40.3601 27.3967C40.5072 27.1156 40.5399 26.7822 40.4506 26.4746C40.3612 26.167 40.1576 25.912 39.8874 25.7695L32.4573 21.8747C31.9379 21.604 31.3111 21.8093 31.0229 22.3446C27.2699 29.0705 21.7191 34.4412 15.0854 37.7652C17.5303 40.4017 20.2395 42.7421 23.1641 44.7441C23.6753 45.0852 24.3236 45.0852 24.8348 44.7441Z" fill="#2684FF"/>
<defs>
<linearGradient id="paint0_linear_0_5798" x1="24" y1="6.49019" x2="24" y2="28.0493" gradientUnits="userSpaceOnUse">
<stop stop-color="#2684FF"/>
<stop offset="0.82" stop-color="#0052CC"/>
</linearGradient>
<linearGradient id="paint1_linear_0_5798" x1="17.9652" y1="27.3967" x2="23.7416" y2="42.8439" gradientUnits="userSpaceOnUse">
<stop stop-color="#2684FF"/>
<stop offset="0.62" stop-color="#0052CC"/>
</linearGradient>
</defs>
</svg>
