<svg width="48" height="48" viewBox="0 0 48 48" fill="none" xmlns="http://www.w3.org/2000/svg">
<g clip-path="url(#clip0_0_5443)">
<path d="M34.1486 10.4229L24.6858 25.1657L40.0458 48L48.0001 15.84L34.1486 10.4229Z" fill="url(#paint0_linear_0_5443)"/>
<path d="M35.04 10.7657L33.6 0L12.8915 23.04L18.9258 29.0057L14.2629 48H40.0458L35.04 10.7657Z" fill="url(#paint1_linear_0_5443)"/>
<path d="M33.6 0H7.95429L0 32.2971H38.1257L33.6 0Z" fill="url(#paint2_linear_0_5443)"/>
<path d="M37.92 32.2971L35.04 10.7657L33.6 0L28.5942 15.7714L37.92 32.2971Z" fill="url(#paint3_linear_0_5443)"/>
<path d="M38.8074 38.822L9.18451 38.8984L9.10809 9.27559L38.7309 9.19916L38.8074 38.822Z" fill="black"/>
<path d="M12.0662 33.3398L23.1747 33.3111L23.1795 35.1626L12.0709 35.1913L12.0662 33.3398Z" fill="white"/>
<path d="M11.9315 13.0972H17.5543C19.1315 13.0972 20.2972 13.5086 21.1201 14.3315C21.8058 15.0172 22.1486 15.9772 22.1486 17.1429V17.2115C22.1486 18.24 21.9429 18.9943 21.3943 19.6115C20.9143 20.2286 20.2972 20.7086 19.4743 20.9829L22.4915 25.3715H19.3372L16.8001 21.6H14.5372V25.3715H11.8629L11.9315 13.0972ZM17.3486 19.0629C18.0343 19.0629 18.5143 18.9257 18.8572 18.5829C19.2001 18.24 19.4058 17.8286 19.4058 17.3486V17.28C19.4058 16.6629 19.2001 16.2515 18.8572 15.9772C18.5143 15.7029 17.9658 15.5657 17.2801 15.5657H14.6058V19.0629H17.3486Z" fill="white"/>
<path d="M24.6858 22.7657H23.3829V20.5029H25.0972L25.5087 17.8972H23.9315V15.6343H25.8515L26.2629 13.0972H28.5944L28.1829 15.6343H30.7201L31.1315 13.0972H33.4629L33.0515 15.6343H34.3544V17.8972H32.6401L32.2286 20.5029H33.8058V22.7657H31.8858L31.4058 25.3715H29.0744L29.5544 22.7657H27.0172L26.5372 25.3715H24.2058L24.6858 22.7657ZM29.9658 20.5029L30.3772 17.8972H27.8401L27.4286 20.5029H29.9658Z" fill="white"/>
</g>
<defs>
<linearGradient id="paint0_linear_0_5443" x1="15.7338" y1="51.9682" x2="51.2826" y2="14.1545" gradientUnits="userSpaceOnUse">
<stop offset="0.016" stop-color="#B35BA3"/>
<stop offset="0.404" stop-color="#C41E57"/>
<stop offset="0.468" stop-color="#C41E57"/>
<stop offset="0.65" stop-color="#EB8523"/>
<stop offset="0.952" stop-color="#FEBD11"/>
</linearGradient>
<linearGradient id="paint1_linear_0_5443" x1="12.1502" y1="50.2574" x2="47.6956" y2="12.4471" gradientUnits="userSpaceOnUse">
<stop offset="0.016" stop-color="#B35BA3"/>
<stop offset="0.404" stop-color="#C41E57"/>
<stop offset="0.468" stop-color="#C41E57"/>
<stop offset="0.704" stop-color="#EB8523"/>
</linearGradient>
<linearGradient id="paint2_linear_0_5443" x1="1.25349" y1="36.6363" x2="33.48" y2="6.3264" gradientUnits="userSpaceOnUse">
<stop offset="0.016" stop-color="#B35BA3"/>
<stop offset="0.661" stop-color="#C41E57"/>
</linearGradient>
<linearGradient id="paint3_linear_0_5443" x1="34.213" y1="-7.9248" x2="33.5033" y2="16.4811" gradientUnits="userSpaceOnUse">
<stop offset="0.5" stop-color="#C41E57"/>
<stop offset="0.667" stop-color="#D13F48"/>
<stop offset="0.795" stop-color="#D94F39"/>
<stop offset="0.866" stop-color="#DD5433"/>
</linearGradient>
<clipPath id="clip0_0_5443">
<rect width="48" height="48" fill="white"/>
</clipPath>
</defs>
</svg>
