<svg width="218" height="55" viewBox="0 0 218 55" fill="none" xmlns="http://www.w3.org/2000/svg">
<path d="M154.497 21.1762C158.366 21.1762 161.001 22.5404 161.001 26.5957V33.6598C161.001 34.7624 161.057 36.7247 161.225 37.902H157.45C157.319 37.4348 157.226 36.407 157.188 35.9024C156.515 37.2293 154.964 38.1824 152.591 38.1824C148.536 38.1824 147.115 35.6408 147.115 33.1739C147.115 30.2212 149.134 27.7918 154.852 27.7918H156.777V26.5957C156.777 25.2689 156.366 24.2224 154.441 24.2224C152.535 24.2224 152.068 25.2128 151.899 26.4089H147.751C147.919 23.8112 149.47 21.1762 154.497 21.1762ZM189.201 21.1575C194.564 21.1575 196.022 25.0259 196.116 27.3059H191.799C191.649 25.8108 190.976 24.4466 189.107 24.4466C186.865 24.4466 185.931 26.5397 185.931 29.5485C185.931 33.3795 187.07 34.9119 189.033 34.9119C190.864 34.9119 191.481 33.7159 191.817 32.1461H196.097V32.1648C195.63 35.4539 193.537 38.1824 188.939 38.1824C183.894 38.1824 181.558 35.0801 181.558 29.7167C181.558 24.5214 184.435 21.1575 189.201 21.1575ZM205.497 21.1575C211.01 21.1575 212.654 25.082 212.654 29.3242C212.654 29.5485 212.617 30.4081 212.598 30.6511H202.227V30.6697C202.227 32.6694 202.993 34.8185 205.422 34.8185C207.384 34.8185 207.982 33.5851 208.244 32.8562H212.468C211.683 35.5847 209.739 38.1824 205.31 38.1824C200.077 38.1824 197.891 34.5942 197.891 29.7167C197.891 25.6613 199.928 21.1575 205.497 21.1575ZM75.3905 16.1865V19.8307H69.5037V37.902H65.0373V19.8307H59.1692V16.1865H75.3905ZM128.39 14.8596V37.902H124.073V14.8596H128.39ZM136.444 14.8596V37.902H132.127V14.8596H136.444ZM86.3977 16.1865C91.1445 16.1865 93.275 18.6907 93.275 21.6995C93.275 24.4279 91.7799 25.6053 90.6212 26.0725C92.2284 26.7452 94.0412 28.315 94.0412 31.3238C94.0412 35.51 90.8642 37.8833 86.2482 37.8833H77.9694V16.1865H86.3977ZM114.991 16.1865L121.961 37.8833H117.327L115.682 32.7254H108.487L106.973 37.8833H102.638C102.918 37.0237 108.936 17.1209 109.253 16.1865H114.991ZM144.48 21.4752V37.8833H140.163V21.4752H144.48ZM173.578 21.1575C177.035 21.1575 178.773 23.3814 178.773 27.1377V37.8833H174.456V27.96C174.456 26.0912 173.989 24.6896 171.952 24.6896C169.99 24.6896 169.036 25.8295 169.036 28.7075V37.8647H164.72V26.6144H164.738C164.738 23.2319 164.701 22.204 164.682 21.4752H168.868C168.924 21.7929 169.018 22.8394 169.018 23.6056C169.691 22.3349 171.242 21.1575 173.578 21.1575ZM156.927 30.5389H154.908C151.956 30.5389 151.432 31.735 151.432 32.8189C151.432 33.9588 152.105 34.9119 153.75 34.9119C156.31 34.9119 156.927 33.1926 156.927 30.894V30.5389ZM85.5941 28.0721H82.305V34.5756H85.9118C87.9489 34.5756 89.5 33.5851 89.5 31.3425C89.5 29.2121 88.2665 28.0721 85.5941 28.0721ZM112 19.5503H111.963C111.458 21.9611 110.468 25.3436 109.328 29.0813H114.785C113.458 24.6709 112.505 21.5686 112 19.5503ZM205.422 24.3905C202.974 24.3905 202.376 26.3902 202.283 27.8478H208.468C208.412 26.0164 207.646 24.3905 205.422 24.3905ZM85.8558 19.5503H82.305V24.7082H85.6315C87.9115 24.7082 88.958 23.9794 88.958 22.148C88.958 20.3726 87.762 19.5503 85.8558 19.5503ZM144.48 14.8596V18.8215H140.163V14.8596H144.48Z" fill="#51195D"/>
<path d="M31.1 4.74962C18.6724 3.06769 7.23526 11.7763 5.55333 24.2039C3.8714 36.6315 12.5801 48.0686 25.0076 49.7505C37.4352 51.4325 48.8723 42.7238 50.5543 30.2962C52.2362 17.8687 43.5275 6.43155 31.1 4.74962Z" fill="#51195D"/>
<path d="M40.6679 21.2509C40.6679 23.7364 38.7057 26.2219 36.2202 26.2219H32.2583V16.1304H36.2202C38.7057 16.1491 40.6679 18.7654 40.6679 21.2509Z" fill="#00C0F3"/>
<path d="M44.0318 33.3234C44.0318 35.8089 41.92 38.3692 39.3411 38.3692H32.2583V28.2776H39.3411C41.92 28.2776 44.0318 30.8379 44.0318 33.3234Z" fill="#00C0F3"/>
<path d="M12.0737 21.2696C12.0737 18.7841 14.335 16.1304 17.1382 16.1304H28.893V26.2406H17.1382C14.335 26.2406 12.0737 24.0167 12.0737 21.2696Z" fill="white"/>
<path d="M23.8659 38.3692C21.3804 38.3692 18.8201 36.2574 18.8201 33.6785V28.2589H28.9117V33.6785C28.9117 36.2761 26.3514 38.3692 23.8659 38.3692Z" fill="white"/>
</svg>
