<svg width="48" height="48" viewBox="0 0 48 48" fill="none" xmlns="http://www.w3.org/2000/svg">
<path d="M24 3C12.4172 3 3 12.4172 3 24C3 35.5828 12.4172 45 24 45C35.5828 45 45 35.5828 45 24C45 12.4172 35.5828 3 24 3Z" fill="url(#paint0_radial_0_5757)"/>
<path d="M30.7805 23.9117C27.8976 23.9117 25.5609 26.2818 25.5609 29.2057C25.5609 32.1297 27.8976 34.5 30.7805 34.5C33.6631 34.5 36 32.1297 36 29.2057C36 26.2818 33.6631 23.9117 30.7805 23.9117ZM17.2196 23.912C14.337 23.912 12 26.2818 12 29.2059C12 32.1297 14.337 34.5 17.2196 34.5C20.1023 34.5 22.4394 32.1297 22.4394 29.2059C22.4394 26.2818 20.1023 23.912 17.2196 23.912ZM29.2194 17.294C29.2194 20.2178 26.8827 22.5885 24.0001 22.5885C21.1173 22.5885 18.7805 20.2178 18.7805 17.294C18.7805 14.3703 21.1173 12 24.0001 12C26.8827 12 29.2194 14.3703 29.2194 17.294Z" fill="white"/>
<defs>
<radialGradient id="paint0_radial_0_5757" cx="0" cy="0" r="1" gradientUnits="userSpaceOnUse" gradientTransform="translate(24 25.9539) scale(27.8306)">
<stop stop-color="#FFB900"/>
<stop offset="0.6" stop-color="#F95D8F"/>
<stop offset="0.9991" stop-color="#F95353"/>
</radialGradient>
</defs>
</svg>
