<svg  viewBox="95 25 150 32" fill="none" xmlns="http://www.w3.org/2000/svg"><defs>
<clipPath id="clip0_0_193">
<rect width="50" height="46.3158" fill="white" transform="translate(20 18)"/>
</clipPath>
<clipPath id="clip1_0_193">
<rect width="100" height="19.6429" fill="white" transform="translate(101 31)"/>
</clipPath>
</defs><g clip-path="url(#clip1_0_193)">
<path fill-rule="evenodd" clip-rule="evenodd" d="M197.608 45.9129C197.668 46.5961 198.214 47.4658 199.162 47.4658H199.715C199.93 47.4658 200.106 47.2898 200.106 47.0749V34.8918H200.104C200.093 34.6866 199.923 34.5222 199.715 34.5222H197.999C197.791 34.5222 197.622 34.6866 197.611 34.8918H197.608V35.8818C196.556 34.5854 194.898 34.0474 193.236 34.0474C189.456 34.0474 186.393 37.1136 186.393 40.8961C186.393 44.679 189.456 47.7452 193.236 47.7452V47.7456C194.898 47.7456 196.711 47.1 197.608 45.9114V45.9129ZM193.242 45.3483C190.838 45.3483 188.89 43.3551 188.89 40.8961C188.89 38.4376 190.838 36.4444 193.242 36.4444C195.647 36.4444 197.595 38.4376 197.595 40.8961C197.595 43.3551 195.647 45.3483 193.242 45.3483Z" fill="#0D0E10"/>
<path fill-rule="evenodd" clip-rule="evenodd" d="M184.223 46.3321L184.223 40.0279H184.223C184.223 36.4743 181.983 34.0769 178.41 34.0769C176.705 34.0769 175.307 35.0637 174.813 35.9114C174.707 35.2486 174.355 34.5519 173.265 34.5519H172.709C172.494 34.5519 172.318 34.728 172.318 34.9429V45.9437C172.318 45.944 172.318 45.9448 172.318 45.9454V47.127H172.32C172.332 47.332 172.501 47.4965 172.709 47.4965H174.426C174.452 47.4965 174.478 47.4934 174.503 47.4886C174.514 47.4863 174.524 47.4819 174.536 47.4787C174.548 47.4748 174.562 47.4718 174.574 47.4668C174.589 47.4604 174.603 47.452 174.617 47.444C174.624 47.4397 174.631 47.4368 174.638 47.4323C174.655 47.4212 174.671 47.4079 174.686 47.3944C174.689 47.3919 174.691 47.3902 174.694 47.3878C174.711 47.3713 174.727 47.3531 174.74 47.3342C174.741 47.3339 174.741 47.3339 174.741 47.3339C174.784 47.2749 174.81 47.2037 174.814 47.127H174.816V39.9302C174.816 38.0216 176.362 36.4743 178.27 36.4743C180.177 36.4743 181.723 38.0216 181.723 39.9302L181.724 45.9458L181.725 45.9437C181.725 45.949 181.726 45.9545 181.726 45.9602V47.127H181.728C181.739 47.332 181.909 47.4965 182.116 47.4965H183.833C183.859 47.4965 183.885 47.4934 183.91 47.4886C183.92 47.4867 183.929 47.4826 183.939 47.4798C183.953 47.4757 183.968 47.4722 183.981 47.4668C183.995 47.461 184.008 47.4528 184.021 47.4453C184.03 47.4408 184.038 47.4375 184.046 47.4323C184.062 47.4219 184.076 47.4093 184.091 47.3969C184.094 47.3935 184.098 47.391 184.102 47.3876C184.118 47.3719 184.132 47.3549 184.146 47.3371C184.147 47.3358 184.148 47.3347 184.149 47.3334C184.191 47.2749 184.217 47.2043 184.221 47.128C184.221 47.1275 184.221 47.127 184.221 47.127H184.224V46.3323L184.223 46.3321Z" fill="#0D0E10"/>
<path fill-rule="evenodd" clip-rule="evenodd" d="M166.347 45.9129C166.407 46.5961 166.953 47.4658 167.9 47.4658H168.454C168.669 47.4658 168.845 47.2898 168.845 47.0749V34.8918H168.842C168.831 34.6866 168.661 34.5222 168.454 34.5222H166.737C166.53 34.5222 166.36 34.6866 166.349 34.8918H166.347V35.8818C165.295 34.5854 163.637 34.0474 161.974 34.0474C158.195 34.0474 155.131 37.1136 155.131 40.8962C155.131 44.679 158.195 47.7453 161.974 47.7453V47.7456C163.637 47.7456 165.449 47.1001 166.347 45.9114L166.347 45.9129ZM161.981 45.3483C159.577 45.3483 157.628 43.3552 157.628 40.8962C157.628 38.4376 159.577 36.4444 161.981 36.4444C164.385 36.4444 166.333 38.4376 166.333 40.8962C166.333 43.3552 164.385 45.3483 161.981 45.3483Z" fill="#0D0E10"/>
<path fill-rule="evenodd" clip-rule="evenodd" d="M144.98 44.168C146.126 44.9624 147.376 45.3483 148.578 45.3483C149.724 45.3483 150.907 44.7542 150.907 43.7201C150.907 42.3396 148.328 42.1248 146.707 41.5735C145.086 41.0223 143.69 39.8827 143.69 38.0373C143.69 35.2134 146.204 34.0471 148.551 34.0471C150.037 34.0471 151.571 34.5378 152.566 35.2406C152.909 35.5004 152.7 35.7986 152.7 35.7986L151.751 37.1555C151.644 37.3084 151.457 37.4404 151.189 37.275C150.922 37.1097 149.982 36.4443 148.551 36.4443C147.119 36.4443 146.256 37.1059 146.256 37.9261C146.256 38.9096 147.377 39.2189 148.69 39.5541C150.978 40.1713 153.474 40.9132 153.474 43.7201C153.474 46.2082 151.149 47.7457 148.578 47.7457C146.631 47.7457 144.973 47.1901 143.582 46.1688C143.292 45.8786 143.494 45.6091 143.494 45.6091L144.439 44.259C144.631 44.0066 144.874 44.0947 144.98 44.168Z" fill="#0D0E10"/>
<path fill-rule="evenodd" clip-rule="evenodd" d="M138.38 45.9129C138.44 46.5961 138.987 47.4658 139.933 47.4658H140.487C140.702 47.4658 140.878 47.2898 140.878 47.0749V34.8918H140.876C140.864 34.6866 140.695 34.5222 140.487 34.5222H138.771C138.563 34.5222 138.394 34.6866 138.382 34.8918H138.38V35.8818C137.328 34.5854 135.67 34.0474 134.007 34.0474C130.228 34.0474 127.164 37.1136 127.164 40.8962C127.164 44.679 130.228 47.7453 134.007 47.7453V47.7456C135.67 47.7456 137.482 47.1001 138.38 45.9114L138.38 45.9129ZM134.014 45.3483C131.61 45.3483 129.662 43.3552 129.662 40.8962C129.662 38.4376 131.61 36.4444 134.014 36.4444C136.418 36.4444 138.366 38.4376 138.366 40.8962C138.366 43.3552 136.418 45.3483 134.014 45.3483Z" fill="#0D0E10"/>
<path fill-rule="evenodd" clip-rule="evenodd" d="M117.57 41.3621C115.027 41.3621 112.965 43.4239 112.965 45.9676C112.965 48.5111 115.027 50.5729 117.57 50.5729C120.114 50.5729 122.176 48.5111 122.176 45.9676C122.176 43.4239 120.114 41.3621 117.57 41.3621ZM105.605 41.3625C103.062 41.3625 101 43.4239 101 45.9676C101 48.5111 103.062 50.5729 105.605 50.5729C108.149 50.5729 110.211 48.5111 110.211 45.9676C110.211 43.4239 108.149 41.3625 105.605 41.3625ZM116.193 35.6052C116.193 38.1489 114.131 40.211 111.588 40.211C109.044 40.211 106.983 38.1489 106.983 35.6052C106.983 33.0621 109.044 31 111.588 31C114.131 31 116.193 33.0621 116.193 35.6052Z" fill="#F06A6A"/>
</g></svg>