<svg width="184" height="65" viewBox="0 0 184 65" fill="none" xmlns="http://www.w3.org/2000/svg">
<path d="M37.8404 8.08868C42.817 10.3039 47.2276 13.7148 47.402 13.8503L47.4074 13.8545C46.7047 11.0755 46.1958 9.58807 46.1958 9.58807C47.7592 10.4386 49.6268 11.5336 51.4643 12.6767L51.872 12.9315C54.7882 14.7616 57.5649 16.6769 58.8506 17.8839C60.0997 17.8256 61.099 17.5117 61.7398 17.2435C62.8319 16.7862 63.7499 17.9094 64.0974 19.0521C64.4429 20.1886 64.8587 21.9429 64.8777 23.8456C64.8992 25.9669 64.4283 27.7997 63.4784 29.2935C61.6795 32.1227 58.1862 34.0388 54.4158 36.0046L53.9958 36.2233L53.7851 36.3328C49.6028 38.5074 46.1142 40.7141 43.3872 44.7731C41.9788 46.8696 40.8778 49.2071 40.1488 51.6335C39.3709 54.2171 38.7565 56.3114 37.0085 56.3114C35.4267 56.3114 34.483 54.2736 33.7696 53.1228C32.3975 50.9096 30.6909 48.1569 27.9279 47.9241C25.4739 47.5605 23.4596 48.4689 22.004 49.6691C21.2847 50.2622 20.6888 50.937 20.232 51.5834C19.8228 52.0728 19.4374 52.5748 19.0627 53.0631C17.9178 54.5558 16.9287 55.8452 15.622 56.219C15.4084 56.2804 15.1983 56.3114 14.9971 56.3114C14.8539 56.3114 14.6919 56.2948 14.5216 56.2498L14.4357 56.2249L14.4323 56.2302C10.3143 55.0238 10.1018 47.4933 10.1018 47.4933C8.12191 47.9648 6.07746 49.2668 6.07746 49.2668C7.9211 42.9509 11.4549 38.8234 11.4549 38.8234C10.6842 38.763 9.81605 38.7785 8.96315 38.8325L8.71997 38.849C6.57731 39.0032 4.6001 39.3806 4.6001 39.3806C10.1018 32.3006 13.8144 29.7058 13.8144 29.7058C10.8996 28.4326 7.17648 27.7815 7.17648 27.7815C13.8781 23.9118 20.5284 22.0182 20.5284 22.0182C19.0799 20.6507 13.8661 18.812 13.8661 18.812C14.884 18.5192 16.0744 18.2505 17.312 18.0095L17.6506 17.9445C17.877 17.9016 18.1046 17.8597 18.3326 17.8186L18.6748 17.7578C18.8606 17.7252 19.0465 17.6932 19.2319 17.6619L19.5098 17.6154C19.5561 17.6077 19.6023 17.6001 19.6485 17.5925L19.9249 17.5475C23.4654 16.9759 26.6821 16.6492 26.6821 16.6492C24.9494 15.1886 21.0281 13.5985 21.0281 13.5985C23.2361 13.5232 25.2106 13.496 26.875 13.494L27.3348 13.494C30.5961 13.499 32.5482 13.5985 32.5482 13.5985C31.3301 11.9246 28.1906 9.7342 28.1906 9.7342C34.7277 10.3491 39.3875 11.9713 39.3875 11.9713C39.338 11.5742 39.0593 10.8302 38.7518 10.099L38.6711 9.90871C38.2654 8.9613 37.8404 8.08868 37.8404 8.08868ZM27.3211 49.2589C27.1268 49.778 26.9088 50.3398 26.6764 50.902C26.6439 50.9807 26.6112 51.0595 26.5782 51.1383L26.4786 51.3746C25.6261 53.3813 24.6283 55.3176 23.5581 55.4866C23.4897 55.4974 23.4198 55.5029 23.351 55.5029C22.5016 55.5029 21.74 54.7191 21.0281 53.1093C22.2802 51.344 24.7647 49.288 27.3211 49.2589ZM47.1723 42.9509C46.4715 45.5783 46.3779 48.2172 46.3033 50.3371L46.3032 50.3392C46.2549 51.7098 46.2131 52.8934 46.0175 53.7548C45.7554 54.9087 45.1813 55.4939 44.3105 55.4939L44.2809 55.4936C43.4407 55.48 42.548 54.7603 41.5697 53.3014C42.1462 49.9988 44.4279 45.7801 47.1723 42.9509ZM86.1634 17.1585C88.9606 17.1585 91.6956 18.39 93.5293 20.3804C95.3603 22.3683 96.4931 25.1139 96.4931 28.1443C96.4931 31.1747 95.3603 33.9198 93.5293 35.9076C91.6956 37.8975 88.9606 39.1295 86.1634 39.1295C84.1146 39.1295 81.965 38.495 80.4672 37.0809L80.4714 43.8196C80.4753 49.4856 76.0527 48.6266 75.0284 48.569C74.6801 48.5493 74.4076 48.4747 74.2185 48.2884C74.0293 48.1022 73.9342 47.8349 73.9342 47.491L73.9202 18.2852C73.9202 17.9338 74.0175 17.657 74.2126 17.4654C74.4072 17.2733 74.6866 17.1775 75.045 17.1775H78.8914C79.2499 17.1775 79.5294 17.2733 79.7238 17.4654C79.919 17.657 80.0119 17.9312 80.0163 18.2852L80.0308 19.4014C80.8933 18.6896 81.851 18.1365 82.8635 17.7576C83.918 17.3638 85.0331 17.1585 86.1634 17.1585ZM162.1 17.1304C162.392 17.1304 162.64 17.2093 162.831 17.3564C163.021 17.5041 163.161 17.7295 163.279 18.0074L168.773 30.8582L172.714 18.0434C172.798 17.7364 172.947 17.5261 173.149 17.3716C173.346 17.2202 173.598 17.1304 173.893 17.1304H178.439C178.826 17.1304 179.1 17.2426 179.261 17.4469C179.422 17.6591 179.444 17.9555 179.324 18.3503L173.21 37.5413L170.85 44.9876L169.948 47.8502C169.848 48.1684 169.684 48.3916 169.46 48.5171L169.395 48.5493C169.15 48.6489 168.89 48.6346 168.584 48.5595C167.593 48.315 162.997 47.7984 164.836 42.4314L165.926 39.2475L165.678 38.629L164.484 35.789L156.999 18.4022C156.836 18.0412 156.895 17.7126 157.042 17.4887C157.195 17.2553 157.464 17.1373 157.842 17.1304H162.1ZM18.7671 35.0337L13.6419 42.7487L18.4715 38.3329L18.7671 35.0337ZM133.416 17.1611C133.643 17.1638 133.826 17.249 133.96 17.3866C134.158 17.5882 134.252 17.8608 134.252 18.2133V23.3003C134.252 23.6453 134.179 23.904 134.026 24.0766C133.879 24.2486 133.661 24.3354 133.376 24.3354C132.757 24.3137 132.165 24.3783 131.589 24.5291C131.02 24.6795 130.501 24.9388 130.049 25.2907C129.597 25.6501 129.234 26.1327 128.969 26.7206C128.701 27.3176 128.565 28.0426 128.561 28.9053L128.531 34.3305C128.5 39.9964 124.113 39.1381 123.088 39.0798C122.739 39.0602 122.467 38.9867 122.278 38.7999C122.089 38.613 121.993 38.3469 121.993 38.0023V18.2556C121.993 17.9111 122.089 17.6449 122.278 17.458C122.468 17.2712 122.738 17.1781 123.088 17.1781H127.465C127.816 17.1781 128.086 17.2712 128.276 17.458C128.466 17.6449 128.561 17.9105 128.561 18.2556V19.34C129.087 18.4223 130.287 17.1193 133.416 17.1611ZM146.469 17.1304C151.414 17.1304 155.555 20.1269 156.866 24.4556C157.12 25.1631 156.697 25.6215 155.978 25.6215H151.33C150.78 25.6215 150.399 25.3717 150.061 24.9138C149.301 23.8734 147.99 23.2902 146.469 23.2902C143.721 23.2902 141.608 25.2468 141.608 28.1183C141.608 30.9905 143.721 32.9465 146.469 32.9465C147.99 32.9465 149.301 32.3639 150.061 31.3652C150.399 30.8656 150.737 30.6158 151.33 30.6158H155.978C156.697 30.6158 157.12 31.0735 156.866 31.7812C155.555 36.1098 151.414 39.1068 146.469 39.1068C140.044 39.1068 135.268 34.3199 135.268 28.1183C135.268 21.9168 140.044 17.1304 146.469 17.1304ZM109.593 17.1405C111.138 17.1474 112.556 17.4236 113.849 17.9703C115.14 18.5165 116.257 19.2839 117.213 20.2661C118.16 21.2553 118.897 22.4095 119.417 23.7374C119.937 25.0652 120.204 26.5175 120.211 28.094C120.211 28.3639 120.204 28.6265 120.182 28.8757C120.168 29.1313 120.147 29.3806 120.126 29.6293C120.085 29.9612 119.958 30.203 119.762 30.3554C119.565 30.5079 119.305 30.5835 118.989 30.5835H104.916C105.183 31.3997 105.555 32.0633 106.046 32.5751C106.538 33.08 107.114 33.4467 107.76 33.6817C108.413 33.9166 109.108 34.0272 109.846 34.0272C110.443 34.0203 111.018 33.9304 111.566 33.7441C112.107 33.5573 112.577 33.3081 112.964 32.9899C113.167 32.8243 113.371 32.6925 113.568 32.5957C113.771 32.4994 114.003 32.4507 114.27 32.4507L118.315 32.4094C118.701 32.4163 118.982 32.5269 119.15 32.7412C119.312 32.9556 119.319 33.2324 119.157 33.571C118.603 34.7745 117.865 35.7838 116.945 36.593C116.025 37.409 114.958 38.0171 113.743 38.4326C112.528 38.8401 111.201 39.048 109.762 39.048C108.006 39.0407 106.426 38.7575 105.022 38.204C103.61 37.6509 102.409 36.8835 101.412 35.8875C100.408 34.8989 99.6424 33.7366 99.1089 32.4163C98.5751 31.0884 98.308 29.65 98.301 28.094C98.308 26.5381 98.5821 25.0996 99.1297 23.7723C99.6774 22.4513 100.45 21.2896 101.454 20.3006C102.452 19.3051 103.645 18.5371 105.022 17.9841C106.398 17.431 107.922 17.1474 109.593 17.1405ZM33.4476 29.1229L21.8373 34.6678L31.514 32.3006L33.4476 29.1229ZM23.0613 27.7817L13.8661 34.377L21.3577 31.0793L23.0613 27.7817ZM86.0827 23.2468C83.3858 23.2468 81.2002 25.4134 81.2002 28.086C81.2002 30.7593 83.3858 32.9259 86.0827 32.9259C88.779 32.9259 90.9646 30.7593 90.9646 28.086C90.9646 25.4134 88.779 23.2468 86.0827 23.2468ZM43.8624 25.8478L33.5487 26.9585L41.0884 27.3999L43.8624 25.8478ZM109.551 22.6588C108.364 22.6657 107.367 22.9356 106.581 23.4817C105.787 24.0211 105.225 24.8165 104.895 25.8538H113.919C113.694 25.0721 113.357 24.4428 112.907 23.9729C112.465 23.5093 111.946 23.1706 111.363 22.9631C110.78 22.7556 110.176 22.6519 109.551 22.6588ZM32.5482 22.821L22.2344 23.9314L29.8135 24.6534L32.5482 22.821ZM47.0755 21.5281L39.3875 23.1583L45.3694 22.821L47.0755 21.5281ZM29.6063 18.812L37.6018 20.8578L41.0883 19.7003L29.6063 18.812ZM37.8404 14.87L44.3105 17.8839L47.4074 17.2435L37.8404 14.87Z" fill="#5C007B"/>
</svg>
