<svg width="222" height="54" viewBox="0 0 222 54" fill="none" xmlns="http://www.w3.org/2000/svg">
<path d="M28.7251 29.809L31.1699 34.0426L25.0705 44.6302H56.8206L59.2512 48.8403H17.7063L28.7251 29.809Z" fill="#F35757"/>
<path d="M28.7465 12.8679L39.7185 31.927H34.8307L28.7302 21.3608L12.8197 48.8399H7.97803L28.7465 12.8679Z" fill="#49C5B1"/>
<path d="M54.3792 40.4019H32.3856L34.8324 36.1554H47.0313L31.1892 8.63713L33.6121 4.43994L54.3792 40.4019Z" fill="#00AFD7"/>
<path d="M93.351 37.1027L83.0037 24.3411L92.6135 14.8076C93.0294 14.3931 93.2317 13.9491 93.2317 13.4513C93.2317 12.4433 92.3659 11.5598 91.379 11.5598C90.7307 11.5598 90.294 11.8675 89.9006 12.2175L74.6763 27.8255V13.4912C74.6763 12.4263 73.8098 11.5598 72.7449 11.5598C71.7181 11.5598 70.8506 12.444 70.8506 13.4912V38.4697C70.8506 39.5173 71.7181 40.4018 72.7449 40.4018C73.8098 40.4018 74.6763 39.5353 74.6763 38.4697V32.587L80.2891 26.9753L90.3807 39.5429C90.7796 40.1128 91.3016 40.4021 91.9326 40.4021C92.9805 40.4021 93.8657 39.5173 93.8657 38.47C93.8657 37.8443 93.6202 37.4454 93.351 37.1027ZM115.236 29.3115C115.236 23.9769 111.848 18.5764 105.373 18.5764C99.6645 18.5764 95.1925 23.4122 95.1925 29.5873V29.6671C95.1925 35.9455 99.7394 40.6796 105.769 40.6796C108.983 40.6796 111.441 39.6959 113.73 37.5016C114.112 37.1661 114.324 36.7218 114.324 36.2497C114.324 35.3371 113.563 34.5948 112.629 34.5948C112.12 34.5948 111.76 34.8442 111.52 35.0433C109.825 36.6042 108.023 37.3313 105.847 37.3313C102.248 37.3313 99.5458 34.8379 99.0227 31.0854H113.462C114.44 31.0851 115.236 30.289 115.236 29.3115ZM105.294 21.8468C109.283 21.8468 111.075 25.0248 111.451 28.1311H99.0224C99.5378 24.4109 102.073 21.8468 105.294 21.8468ZM137.716 29.3115C137.716 23.9769 134.328 18.5764 127.853 18.5764C122.145 18.5764 117.674 23.4122 117.674 29.5873V29.6671C117.674 35.9455 122.22 40.6796 128.249 40.6796C131.462 40.6796 133.92 39.6959 136.209 37.5009C136.592 37.1661 136.803 36.7218 136.803 36.2497C136.803 35.3371 136.042 34.5948 135.107 34.5948C134.599 34.5948 134.239 34.8442 133.999 35.0433C132.304 36.6042 130.502 37.3313 128.327 37.3313C124.729 37.3313 122.027 34.8376 121.502 31.0854H135.941C136.92 31.0851 137.716 30.289 137.716 29.3115ZM127.774 21.8468C131.762 21.8468 133.553 25.0248 133.93 28.1311H121.502C122.017 24.4109 124.553 21.8468 127.774 21.8468ZM151.839 18.5764C149.051 18.5764 146.812 19.6611 145.168 21.8055V20.7083C145.168 19.6462 144.336 18.814 143.275 18.814C142.254 18.814 141.422 19.6635 141.422 20.7083V38.5096C141.422 39.5707 142.253 40.4018 143.315 40.4018C144.371 40.4018 145.168 39.588 145.168 38.5096V28.1214C145.168 24.5444 147.552 22.0462 150.966 22.0462C154.298 22.0462 156.288 24.2284 156.288 27.8827V38.5092C156.288 39.5703 157.12 40.4014 158.182 40.4014C159.223 40.4014 160.037 39.5703 160.037 38.5092V27.1304C160.037 21.9342 156.819 18.5764 151.839 18.5764ZM178.441 11.5595C177.415 11.5595 176.548 12.4437 176.548 13.4909V38.4694C176.548 39.5169 177.415 40.4014 178.441 40.4014C179.506 40.4014 180.374 39.535 180.374 38.4694V13.4909C180.374 12.426 179.506 11.5595 178.441 11.5595ZM199.56 11.282C191.407 11.282 185.02 17.7384 185.02 25.9801V26.0596C185.02 34.395 191.237 40.68 199.481 40.68C207.635 40.68 214.022 34.2236 214.022 25.9805V25.9017C214.022 17.567 207.804 11.282 199.56 11.282ZM210.077 25.9801V26.0596C210.077 32.3494 205.555 37.0926 199.56 37.0926C193.52 37.0926 188.966 32.3151 188.966 25.9801V25.9014C188.966 19.6122 193.486 14.8697 199.481 14.8697C205.422 14.8697 210.077 19.7499 210.077 25.9801Z" fill="#546A7E"/>
</svg>
