<svg width="154" height="77" viewBox="0 0 154 77" fill="none" xmlns="http://www.w3.org/2000/svg">
<path d="M41.0334 4.4187H47.9063V59.6967H41.0334V54.5947C37.0052 58.5768 31.5341 60.9436 25.747 60.9436C18.1863 60.9436 8.20644 56.3235 4.76982 44.9844C4.43951 43.9351 4.1409 42.515 4.08261 41.8092C3.68858 37.0485 3.86916 36.7239 4.08261 35.0625C5.82707 21.4872 16.8116 15.9281 25.747 15.9281C30.0223 15.9281 33.9121 17.1045 37.1976 19.1027L36.2349 25.4239C33.486 23.1005 29.9123 21.5978 25.747 21.5978C16.8116 21.5978 9.58115 29.0531 9.58115 38.266C9.58115 46.7697 16.1241 55.2742 25.747 55.2742C32.0979 55.2742 38.4488 51.2784 41.0334 44.7283V4.4187Z" fill="#353535"/>
<path d="M71.5166 16.0564C62.5349 16.0564 50.9612 21.4369 49.7402 34.7831C49.5899 36.4272 49.4447 38.1928 49.7402 41.3857C49.8042 42.0767 50.0991 43.4665 50.4311 44.4935C53.8857 55.5905 63.9167 60.1124 71.5166 60.1124C83.2615 60.1124 93.625 50.7355 93.625 37.9183C93.625 26.1271 84.2844 16.0564 71.5166 16.0564ZM71.5166 54.5639C61.8439 54.5639 55.2673 46.2405 55.2673 37.9183C55.2673 28.9014 62.5349 21.6052 71.5166 21.6052C81.5207 21.6052 88.0979 29.9283 88.0979 37.9183C88.0979 47.9615 79.8074 54.5639 71.5166 54.5639Z" fill="#353535"/>
<path d="M97.5554 6.24402H103.072V14.5314H97.5554V6.24402Z" fill="#353535"/>
<path d="M103.072 56.8921C103.457 63.4945 94.9632 72.5813 94.9632 72.5813L91.3637 67.5557C96.039 64.2405 97.5006 58.9903 97.6109 56.5466L97.5554 17.2937H103.072V56.8921Z" fill="#353535"/>
<path d="M128.041 16.0564C119.06 16.0564 107.486 21.4366 106.265 34.7831C106.115 36.427 105.97 38.1926 106.265 41.3857C106.329 42.0767 106.624 43.4665 106.956 44.4932C110.41 55.5905 120.442 60.1127 128.041 60.1127C139.787 60.1127 150.15 50.7355 150.15 37.918C150.15 26.1268 140.809 16.0564 128.041 16.0564ZM128.041 54.5633C118.369 54.5633 111.793 46.2408 111.793 37.918C111.793 28.9011 119.06 21.6047 128.041 21.6047C138.046 21.6047 144.623 29.928 144.623 37.918C144.623 47.9615 136.332 54.5633 128.041 54.5633Z" fill="#353535"/>
<path d="M81.9878 9.29286C81.9878 9.99207 81.6106 9.99207 81.2623 10.2375H62.4142C62.4142 9.99207 62.0376 9.99207 62.0376 9.29286C62.0376 8.82053 62.4142 8.82053 62.7628 8.57507H81.6106C81.6106 8.82053 81.9878 8.82053 81.9878 9.29286Z" fill="#8C8C8C"/>
<path d="M137.682 9.29286C137.682 9.99207 137.305 9.99207 136.957 10.2375H118.108C118.108 9.99207 117.732 9.99207 117.732 9.29286C117.732 8.82053 118.108 8.82053 118.457 8.57507H137.305C137.305 8.82053 137.682 8.82053 137.682 9.29286Z" fill="#8C8C8C"/>
</svg>
