<svg width="208" height="57" viewBox="0 0 208 57" fill="none" xmlns="http://www.w3.org/2000/svg">
<path d="M51.2822 33.0669C50.6338 36.4017 45.4769 40.0509 39.5536 40.7582C36.4648 41.1271 33.424 41.4655 30.1813 41.3169C24.878 41.074 20.6935 40.0509 20.6935 40.0509C20.6935 40.5673 20.7254 41.0589 20.7889 41.5185C21.4784 46.752 25.9787 47.0658 30.2415 47.212C34.5439 47.3592 38.3746 46.1509 38.3746 46.1509L38.5517 50.0411C38.5517 50.0411 35.5422 51.6569 30.1813 51.9539C27.2249 52.1165 23.5545 51.8797 19.2789 50.7484C10.0068 48.2939 8.41215 38.4102 8.16822 28.3814C8.09363 25.4038 8.13966 22.5959 8.13966 20.248C8.13966 9.99269 14.8586 6.98687 14.8586 6.98687C18.2464 5.43087 24.0598 4.77669 30.1034 4.72729H30.2519C36.2955 4.77669 42.1126 5.43087 45.5004 6.98687C45.5004 6.98687 52.2193 9.99269 52.2193 20.248C52.2193 20.248 52.3033 27.8139 51.2822 33.0669Z" fill="#3088D4"/>
<path d="M17.4417 17.7634C17.4417 16.2706 18.6519 15.0607 20.1444 15.0607C21.6372 15.0607 22.8472 16.2706 22.8472 17.7634C22.8472 19.2559 21.6372 20.4662 20.1444 20.4662C18.6519 20.4662 17.4417 19.2559 17.4417 17.7634ZM56.2041 21.0443V33.4614H51.2848V21.4092C51.2848 18.8684 50.2157 17.5792 48.0774 17.5792C45.7136 17.5792 44.5286 19.109 44.5286 22.1336V28.7302H39.6382V22.1336C39.6382 19.109 38.4531 17.5792 36.0894 17.5792C33.9511 17.5792 32.882 18.8684 32.882 21.4092V33.4614H27.9626V21.0443C27.9626 18.5065 28.6088 16.4899 29.9067 14.9977C31.2453 13.5059 32.9982 12.7412 35.1738 12.7412C37.6914 12.7412 39.5978 13.7085 40.8578 15.6438L42.0835 17.6981L43.3089 15.6438C44.5692 13.7085 46.4754 12.7412 48.9933 12.7412C51.1689 12.7412 52.9214 13.5059 54.26 14.9977C55.558 16.4899 56.2041 18.5065 56.2041 21.0443ZM73.1512 27.2169C74.1663 26.1444 74.6552 24.7937 74.6552 23.1648C74.6552 21.5359 74.1663 20.1852 73.1512 19.1523C72.1738 18.0795 70.9327 17.5634 69.4287 17.5634C67.9245 17.5634 66.6836 18.0795 65.7062 19.1523C64.7285 20.1852 64.2396 21.5359 64.2396 23.1648C64.2396 24.7937 64.7285 26.1444 65.7062 27.2169C66.6836 28.2498 67.9245 28.7662 69.4287 28.7662C70.9327 28.7662 72.1738 28.2498 73.1512 27.2169ZM74.6552 13.2327H79.5059V33.0968H74.6552V30.7526C73.1889 32.6994 71.1581 33.6529 68.5262 33.6529C66.007 33.6529 63.8636 32.6597 62.0587 30.6333C60.2916 28.6073 59.3892 26.1044 59.3892 23.1648C59.3892 20.2648 60.2916 17.7616 62.0587 15.7356C63.8636 13.7095 66.007 12.6767 68.5262 12.6767C71.1581 12.6767 73.1889 13.6302 74.6552 15.5767V13.2327ZM95.8261 22.8073C97.2547 23.8798 97.9694 25.3894 97.9318 27.2962C97.9318 29.3226 97.2171 30.9115 95.7508 32.024C94.2842 33.0968 92.5172 33.6529 90.3739 33.6529C86.5008 33.6529 83.8686 32.0637 82.4773 28.9251L86.689 26.4226C87.2528 28.1305 88.4936 29.0047 90.3739 29.0047C92.1032 29.0047 92.9684 28.4483 92.9684 27.2962C92.9684 26.4619 91.8401 25.7073 89.5466 25.1116C88.6814 24.873 87.9671 24.6348 87.4033 24.4359C86.6137 24.1184 85.937 23.7605 85.3729 23.3237C83.9815 22.2512 83.2672 20.8205 83.2672 18.9934C83.2672 17.0466 83.9439 15.4974 85.2976 14.3849C86.689 13.2327 88.3807 12.6767 90.4115 12.6767C93.6451 12.6767 96.0142 14.067 97.5554 16.8877L93.4197 19.2713C92.8179 17.9209 91.8029 17.2455 90.4115 17.2455C88.9449 17.2455 88.2305 17.8016 88.2305 18.8741C88.2305 19.7084 89.3585 20.463 91.6523 21.0591C93.4197 21.4563 94.8107 22.0523 95.8261 22.8073ZM111.243 18.1591H106.994V26.4226C106.994 27.4158 107.371 28.0115 108.085 28.2894C108.612 28.4883 109.664 28.528 111.243 28.4483V33.0968C107.973 33.494 105.603 33.1761 104.212 32.1033C102.821 31.0704 102.144 29.1637 102.144 26.4226V18.1591H98.8728V13.2327H102.144V9.22028L106.994 7.671V13.2327H111.243V18.1591ZM126.699 27.0978C127.677 26.0646 128.165 24.7536 128.165 23.1646C128.165 21.5757 127.677 20.2646 126.699 19.2318C125.721 18.1986 124.518 17.6825 123.051 17.6825C121.585 17.6825 120.382 18.1986 119.404 19.2318C118.464 20.3043 117.975 21.6153 117.975 23.1646C117.975 24.7142 118.464 26.0253 119.404 27.0978C120.382 28.1306 121.585 28.6471 123.051 28.6471C124.518 28.6471 125.721 28.1306 126.699 27.0978ZM115.982 30.6335C114.065 28.6074 113.125 26.1442 113.125 23.1646C113.125 20.2247 114.065 17.7618 115.982 15.7358C117.9 13.7097 120.269 12.6768 123.051 12.6768C125.834 12.6768 128.203 13.7097 130.121 15.7358C132.038 17.7618 133.016 20.2646 133.016 23.1646C133.016 26.1046 132.038 28.6074 130.121 30.6335C128.203 32.6599 125.872 33.6527 123.051 33.6527C120.231 33.6527 117.9 32.6599 115.982 30.6335ZM149.223 27.2169C150.201 26.1444 150.689 24.7937 150.689 23.1648C150.689 21.5359 150.201 20.1852 149.223 19.1523C148.246 18.0795 147.004 17.5634 145.501 17.5634C143.996 17.5634 142.755 18.0795 141.74 19.1523C140.763 20.1852 140.274 21.5359 140.274 23.1648C140.274 24.7937 140.763 26.1444 141.74 27.2169C142.755 28.2498 144.034 28.7662 145.501 28.7662C147.004 28.7662 148.246 28.2498 149.223 27.2169ZM150.689 5.28711H155.54V33.0968H150.689V30.7526C149.261 32.6994 147.23 33.6529 144.598 33.6529C142.079 33.6529 139.898 32.6597 138.093 30.6333C136.326 28.6073 135.423 26.1044 135.423 23.1648C135.423 20.2648 136.326 17.7616 138.093 15.7356C139.898 13.7095 142.079 12.6767 144.598 12.6767C147.23 12.6767 149.261 13.6302 150.689 15.5767V5.28711ZM172.575 27.0978C173.552 26.0646 174.041 24.7536 174.041 23.1646C174.041 21.5757 173.552 20.2646 172.575 19.2318C171.597 18.1986 170.394 17.6825 168.927 17.6825C167.461 17.6825 166.257 18.1986 165.28 19.2318C164.34 20.3043 163.851 21.6153 163.851 23.1646C163.851 24.7142 164.34 26.0253 165.28 27.0978C166.257 28.1306 167.461 28.6471 168.927 28.6471C170.394 28.6471 171.597 28.1306 172.575 27.0978ZM161.858 30.6335C159.94 28.6074 159.001 26.1442 159.001 23.1646C159.001 20.2247 159.94 17.7618 161.858 15.7358C163.776 13.7097 166.145 12.6768 168.927 12.6768C171.71 12.6768 174.079 13.7097 175.997 15.7358C177.914 17.7618 178.892 20.2646 178.892 23.1646C178.892 26.1046 177.914 28.6074 175.997 30.6335C174.079 32.6599 171.748 33.6527 168.927 33.6527C166.107 33.6527 163.776 32.6599 161.858 30.6335ZM199.874 20.9002V33.0966H195.024V21.536C195.024 20.2249 194.685 19.2317 194.009 18.477C193.369 17.8017 192.467 17.4439 191.301 17.4439C188.556 17.4439 187.165 19.0728 187.165 22.3702V33.0966H182.314V13.2328H187.165V15.4574C188.331 13.5903 190.173 12.6767 192.768 12.6767C194.836 12.6767 196.528 13.3917 197.844 14.8617C199.197 16.3317 199.874 18.3181 199.874 20.9002Z" fill="white"/>
</svg>
