<svg  viewBox="20 16 220 50" fill="none" xmlns="http://www.w3.org/2000/svg"><defs>
<clipPath id="clip0_0_1943">
<rect width="39.8936" height="50" fill="white" transform="translate(20 16)"/>
</clipPath>
<clipPath id="clip1_0_1943">
<rect width="100" height="30.7692" fill="white" transform="translate(89 26)"/>
</clipPath>
</defs><g clip-path="url(#clip0_0_1943)">
<path fill-rule="evenodd" clip-rule="evenodd" d="M27.9787 18.6048V21.2096L36.6223 21.3973C44.9511 21.5782 45.3574 21.6388 47.7782 23.0622C55.8915 27.8314 55.1016 40.8346 46.4798 44.4303C44.9819 45.0553 42.4995 45.2553 36.2404 45.2553H27.9787V55.6277V66H30.9043H33.8298V58.342V50.684L40.3457 50.4702C45.8723 50.2888 47.2654 50.0617 49.5213 48.9723C53.2755 47.159 56.9053 43.2649 58.3096 39.5436C60.667 33.2957 58.9665 25.6984 54.2213 21.2809C49.5734 16.9537 46.2064 16 35.5798 16H27.9787V18.6048ZM27.9787 25.1404C27.9787 25.4872 27.5 26.7596 26.9149 27.9681C25.8617 30.1441 22.7202 32.4894 20.8585 32.4894C20.3548 32.4894 20 32.9287 20 33.5532C20 34.2707 20.3548 34.617 21.0904 34.617C23.8862 34.617 26.9676 37.5351 27.6888 40.867C28.2277 43.3543 29.1521 42.991 30.3723 39.8122C31.5197 36.8229 34.0378 34.617 36.3021 34.617C37.1984 34.617 37.5532 34.3154 37.5532 33.5532C37.5532 32.9287 37.1984 32.4894 36.6947 32.4894C34.833 32.4894 31.6915 30.1441 30.6383 27.9681C30.0532 26.7596 29.5745 25.4872 29.5745 25.1404C29.5745 24.7941 29.2154 24.5106 28.7766 24.5106C28.3378 24.5106 27.9787 24.7941 27.9787 25.1404Z" fill="#FDD82F"/>
</g><g clip-path="url(#clip1_0_1943)">
<path d="M89 41.8154V40.9823C90.0257 40.9825 91.01 40.5775 91.7385 39.8554C92.0977 39.4995 92.383 39.0759 92.5779 38.6092C92.7728 38.1425 92.8733 37.6419 92.8738 37.1362H93.6485C93.6476 37.6425 93.7473 38.1439 93.9418 38.6114C94.1363 39.0788 94.4218 39.503 94.7815 39.8592C95.5095 40.5838 96.4952 40.99 97.5223 40.9885V41.8208C96.4966 41.8205 95.5123 42.2255 94.7838 42.9477C94.4246 43.3036 94.1393 43.7272 93.9444 44.1938C93.7495 44.6605 93.649 45.1612 93.6485 45.6669H92.8738C92.8747 45.1606 92.775 44.6592 92.5805 44.1917C92.386 43.7242 92.1005 43.3001 91.7408 42.9438C91.0115 42.2214 90.0266 41.8158 89 41.8154ZM92.8738 35.6923H99.5354C102.789 35.6923 105.115 38 105.115 41.3846C105.115 44.77 102.791 47.0769 99.5362 47.0769H92.8738V56.7692H95.6615V49.5385H99.5354C104.215 49.5385 107.903 45.8769 107.903 41.3846C107.903 36.8931 104.215 33.2308 99.5354 33.2308H92.8738V35.6923ZM117.913 33.2C120.361 33.2 122.53 34.4308 123.893 36.3692V33.6923H126.682V49.0769H123.893V46.4C122.495 48.3423 120.33 49.5692 117.913 49.5692C113.325 49.5692 109.452 45.9692 109.452 41.3846C109.452 36.8008 113.326 33.2 117.913 33.2ZM117.913 47.1077C121.507 47.1077 123.893 44.6462 123.893 41.3846C123.893 38.0923 121.539 35.6615 117.913 35.6615C114.69 35.6615 112.241 37.9692 112.241 41.3846C112.241 44.8008 114.69 47.1077 117.913 47.1077ZM137.002 33.2C139.45 33.2 141.619 34.4308 142.982 36.3692V26H145.772V49.0769H142.982V46.4C141.619 48.3423 139.45 49.5692 137.002 49.5692C132.415 49.5692 128.542 45.9692 128.542 41.3846C128.542 36.8008 132.415 33.2 137.002 33.2ZM137.002 47.1077C140.627 47.1077 142.982 44.6769 142.982 41.3846C142.982 38.0931 140.627 35.6615 137.002 35.6615C133.778 35.6615 131.33 37.9692 131.33 41.3846C131.33 44.8008 133.779 47.1077 137.002 47.1077ZM156.402 33.2C158.85 33.2 161.019 34.4308 162.383 36.3692V26H165.172V49.0769H162.383V46.4C161.019 48.3423 158.85 49.5692 156.402 49.5692C151.815 49.5692 147.942 45.9692 147.942 41.3846C147.942 36.8008 151.815 33.2 156.402 33.2ZM156.402 47.1077C160.028 47.1077 162.383 44.6769 162.383 41.3846C162.383 38.0931 160.028 35.6615 156.402 35.6615C153.178 35.6615 150.731 37.9692 150.731 41.3846C150.731 44.8008 153.178 47.1077 156.402 47.1077ZM167.958 49.0769V26H170.748V49.0769H167.958ZM181.068 33.2308C186.429 33.2308 189.001 37.3846 189.001 42.4623H175.615C176.048 45.4469 178.28 47.3854 181.068 47.3854C182.99 47.3854 184.477 46.5238 185.592 44.8315H188.598C187.545 47.2008 184.788 49.5392 181.068 49.5392C176.389 49.5392 172.763 45.8162 172.763 41.3854C172.763 36.9562 176.389 33.2315 181.068 33.2315V33.2308ZM186.212 40.3092C186.212 37.7846 184.043 35.3846 181.068 35.3846C178.28 35.3846 176.048 37.3277 175.615 40.3092H186.212Z" fill="#FDDD35"/>
</g></svg>