<svg width="118" height="101" viewBox="0 0 118 101" fill="none" xmlns="http://www.w3.org/2000/svg">
<path d="M25.2371 56.8652C31.7969 56.8652 35.0497 53.3959 35.0497 49.1669C35.0497 39.0831 18.5688 43.095 18.5688 36.5351C18.5688 33.8244 21.0084 31.7643 25.0744 31.7643C28.5441 31.7643 31.3632 33.1739 32.8812 35.234L34.4534 33.2281C32.5559 31.1137 29.5741 29.3789 25.0744 29.3789C19.1651 29.3789 15.7497 32.6317 15.7497 36.6435C15.7497 46.0767 32.2848 42.0107 32.2848 49.1669C32.2848 52.2028 29.6826 54.4798 25.2913 54.4798C21.6047 54.4798 18.5146 52.745 16.8339 50.6306L15.1533 52.6908C17.7556 55.6183 21.0084 56.8652 25.2371 56.8652ZM61.777 56.2146V37.782C61.777 31.9269 57.5484 29.3789 52.2354 29.3789C47.8983 29.3789 44.8624 30.8427 42.1517 33.7702L43.7239 35.7219C46.1093 33.0112 48.6573 31.8727 51.9644 31.8727C55.8135 31.8727 58.9579 33.9871 58.9579 37.8904V43.2034C56.681 40.6553 53.6992 39.4626 50.0669 39.4626C45.5129 39.4626 40.9048 42.4444 40.9048 48.1368C40.9048 53.7754 45.5672 56.8652 50.0669 56.8652C53.6992 56.8652 56.6267 55.6722 58.9579 53.1241V56.2146H61.777ZM51.0427 54.6428C46.7599 54.6428 43.8865 51.8776 43.8865 48.1914C43.8865 44.4506 46.7599 41.6857 51.0427 41.6857C54.1871 41.6857 57.1147 42.8784 58.9579 45.3181V51.0647C57.1147 53.4498 54.1871 54.6428 51.0427 54.6428ZM78.3664 56.8652C84.9262 56.8652 88.1787 53.3959 88.1787 49.1669C88.1787 39.0831 71.6978 43.095 71.6978 36.5351C71.6978 33.8244 74.1374 31.7643 78.2034 31.7643C81.6731 31.7643 84.4925 33.1739 86.0102 35.234L87.5824 33.2281C85.6849 31.1137 82.7031 29.3789 78.2034 29.3789C72.2941 29.3789 68.8787 32.6317 68.8787 36.6435C68.8787 46.0767 85.4138 42.0107 85.4138 49.1669C85.4138 52.2028 82.8116 54.4798 78.4203 54.4798C74.7341 54.4798 71.6436 52.745 69.9629 50.6306L68.2823 52.6908C70.8849 55.6183 74.1377 56.8652 78.3664 56.8652ZM103.25 56.8652C109.81 56.8652 113.063 53.3959 113.063 49.1669C113.063 39.0831 96.5822 43.095 96.5822 36.5351C96.5822 33.8244 99.0218 31.7643 103.088 31.7643C106.557 31.7643 109.377 33.1739 110.895 35.234L112.466 33.2281C110.569 31.1137 107.588 29.3789 103.088 29.3789C97.1785 29.3789 93.7631 32.6317 93.7631 36.6435C93.7631 46.0767 110.298 42.0107 110.298 49.1669C110.298 52.2028 107.696 54.4798 103.305 54.4798C99.6181 54.4798 96.528 52.745 94.8473 50.6306L93.1667 52.6908C95.769 55.6183 99.0218 56.8652 103.25 56.8652ZM28.9834 96.8749C38.8141 96.8749 45.6673 90.6361 45.6673 81.089C45.6673 71.6363 38.8141 65.3503 28.9361 65.3503H16.5059V96.8749H28.9834ZM28.9361 90.967H23.2172V71.2582H28.9834C35.4111 71.2582 38.8141 75.5592 38.8141 81.089C38.8141 86.477 35.1748 90.967 28.9361 90.967ZM65.4232 97.442C74.9231 97.442 81.8708 90.6361 81.8708 81.1362C81.8708 71.6363 74.9231 64.8304 65.4232 64.8304C55.8761 64.8304 48.9284 71.6363 48.9284 81.1362C48.9284 90.6361 55.8761 97.442 65.4232 97.442ZM65.4232 91.4869C59.5626 91.4869 55.8288 86.9969 55.8288 81.1362C55.8288 75.2283 59.5626 70.7856 65.4232 70.7856C71.2366 70.7856 74.9704 75.2283 74.9704 81.1362C74.9704 86.9969 71.2366 91.4869 65.4232 91.4869ZM101.911 97.442C108.811 97.442 112.829 93.6137 115.05 89.6909L109.284 86.9023C107.96 89.4549 105.124 91.4869 101.911 91.4869C96.1443 91.4869 91.9851 87.0914 91.9851 81.1362C91.9851 75.1811 96.1443 70.7856 101.911 70.7856C105.124 70.7856 107.96 72.8179 109.284 75.3701L115.05 72.5343C112.828 68.5642 108.811 64.8304 101.911 64.8304C92.4105 64.8304 85.0851 71.3997 85.0851 81.1362C85.0847 90.8252 92.4105 97.442 101.911 97.442Z" fill="#5C4863"/>
<path d="M6.26813 29.3877C6.13364 29.7908 5.98247 30.1939 5.81461 30.597C5.64676 31.0002 5.45319 31.3529 5.23495 31.6553C5.0167 31.9576 4.77274 32.1842 4.50445 32.3354C4.23582 32.4869 3.95015 32.5119 3.64781 32.4111C3.24468 32.344 3.01809 32.0497 2.96736 31.5291C2.91697 31.0085 2.97604 30.4963 3.1439 29.9924C3.37917 29.1861 3.72322 28.1192 4.17674 26.7924C4.6306 25.4655 5.15119 24.0122 5.73885 22.4337C6.32686 20.8549 6.94824 19.2171 7.60332 17.5204C8.25875 15.8245 8.88846 14.2033 9.49315 12.6579C10.0978 11.1125 10.6521 9.71021 11.156 8.45009C11.66 7.19031 12.0464 6.20787 12.315 5.50239C12.4158 5.30083 12.567 5.13298 12.7686 4.99849C12.9701 4.86399 13.18 4.79692 13.3986 4.79692C13.6169 4.79692 13.8351 4.86399 14.0537 4.99849C14.2719 5.13298 14.4481 5.35122 14.5826 5.65357C14.8513 6.35904 14.8683 7.04783 14.633 7.71959C14.3977 8.25721 14.062 9.08883 13.6252 10.2138C13.1884 11.3397 12.6931 12.6075 12.1388 14.0185C11.5842 15.4294 11.0049 16.9244 10.4002 18.5032C9.79549 20.082 9.22451 21.5858 8.68689 23.013C8.14928 24.4414 7.6624 25.7258 7.22556 26.8681C6.78872 28.0104 6.4697 28.85 6.26813 29.3877ZM33.1265 16.7396C32.4547 16.2357 31.7239 15.698 30.9343 15.1271C30.1454 14.5561 29.3134 13.9681 28.4401 13.3634C29.0111 15.4127 29.6158 17.3609 30.2542 19.2087C30.355 19.6118 30.3133 19.9646 30.128 20.2669C29.9438 20.5693 29.7166 20.7204 29.4479 20.7204C29.0111 20.6534 28.5663 20.4518 28.1124 20.1157C27.6589 19.7797 27.3478 19.3766 27.1803 18.9064C27.0459 18.604 26.878 18.1168 26.6764 17.445C26.4749 16.7733 26.2396 15.9837 25.971 15.0767C25.4 15.9166 24.8707 16.7396 24.3835 17.5458C23.8969 18.3521 23.4347 19.1246 22.9979 19.8638C22.7293 20.2332 22.4269 20.4431 22.0909 20.4935C21.7548 20.5442 21.5029 20.4685 21.335 20.2669C21.0997 19.8975 20.9572 19.419 20.9065 18.8306C20.8561 18.2433 20.9482 17.7474 21.1838 17.3442C21.3517 17.0756 21.654 16.5884 22.0909 15.8829C22.5277 15.1774 23.065 14.3545 23.7034 13.4138C22.9979 13.5816 22.3091 13.7578 21.6373 13.9427C20.9656 14.1276 20.2935 14.3041 19.6217 14.472C19.2186 14.539 18.8658 14.472 18.5635 14.2704C18.2612 14.0688 18.1267 13.8336 18.1604 13.5649C18.2612 13.1281 18.4877 12.7337 18.8405 12.3809C19.1936 12.0278 19.605 11.7846 20.0752 11.6501C20.4113 11.5493 20.9569 11.4068 21.7128 11.2219C22.469 11.0371 23.334 10.8271 24.3081 10.5919C23.6363 10.1887 22.9729 9.77728 22.3174 9.35747C21.6624 8.93697 20.9989 8.54253 20.3272 8.17311C19.9578 7.93784 19.7479 7.63549 19.6971 7.26607C19.6467 6.89666 19.7225 6.62767 19.9241 6.45982C20.2935 6.22455 20.7387 6.11577 21.2592 6.13245C21.7805 6.14914 22.242 6.29231 22.6452 6.5606C22.9812 6.72846 23.4514 7.01412 24.0561 7.41725C23.9553 6.84627 23.8712 6.30031 23.8042 5.77972C23.7371 5.25843 23.6867 4.76321 23.653 4.29301C23.6193 3.9236 23.7034 3.60422 23.9049 3.33559C24.1065 3.06695 24.3418 2.91578 24.6104 2.88207C24.8457 2.815 25.131 2.89041 25.4671 3.109C25.8031 3.32725 26.0551 3.73871 26.2229 4.3434C26.3574 4.9818 26.5086 5.63689 26.6764 6.30865C26.8443 6.98041 27.0125 7.70291 27.1803 8.47546C27.8521 7.56842 28.5072 6.71178 29.1456 5.90552C29.784 5.09927 30.3887 4.41048 30.9597 3.8395C31.2283 3.57086 31.5306 3.41969 31.8667 3.38598C32.2027 3.35227 32.4714 3.43637 32.6729 3.63793C32.8408 3.77242 32.967 4.04106 33.0507 4.44419C33.1348 4.84731 32.9916 5.30083 32.6226 5.80474C32.2531 6.30865 31.833 6.87164 31.3628 7.49301C30.8926 8.11438 30.4054 8.7778 29.9014 9.48327C30.7748 9.31542 31.6314 9.18927 32.4714 9.10552C33.3113 9.02141 34.1006 8.96303 34.8398 8.92897C35.2092 8.92897 35.5285 8.99605 35.7972 9.13054C36.0658 9.26503 36.217 9.46659 36.2507 9.73523C36.2844 9.9705 36.1836 10.2558 35.9484 10.5919C35.7131 10.9279 35.2933 11.1462 34.6886 11.247C34.1176 11.3477 33.5046 11.4485 32.8491 11.5493C32.1941 11.6501 31.5306 11.7675 30.8589 11.902C31.6314 12.473 32.3539 13.0357 33.0257 13.5903C33.6974 14.1446 34.3192 14.6735 34.8901 15.1774C35.1588 15.4461 35.335 15.7231 35.4191 16.0091C35.5032 16.294 35.4608 16.5547 35.2933 16.7899C35.1254 16.9578 34.8398 17.0756 34.4366 17.1427C34.0335 17.2098 33.5967 17.0756 33.1265 16.7396ZM53.5852 16.7396C52.9134 16.2357 52.1826 15.698 51.393 15.1271C50.6041 14.5561 49.7721 13.9681 48.8988 13.3634C49.4698 15.4127 50.0745 17.3609 50.7129 19.2087C50.8137 19.6118 50.772 19.9646 50.5867 20.2669C50.4025 20.5693 50.1753 20.7204 49.9066 20.7204C49.4698 20.6534 49.025 20.4518 48.5711 20.1157C48.1176 19.7797 47.8065 19.3766 47.639 18.9064C47.5045 18.604 47.3367 18.1168 47.1351 17.445C46.9336 16.7733 46.6983 15.9837 46.4297 15.0767C45.8587 15.9166 45.3294 16.7396 44.8422 17.5458C44.3556 18.3521 43.8934 19.1246 43.4566 19.8638C43.188 20.2332 42.8856 20.4431 42.5496 20.4935C42.2135 20.5442 41.9615 20.4685 41.7937 20.2669C41.5584 19.8975 41.4159 19.419 41.3652 18.8306C41.3148 18.2433 41.4069 17.7474 41.6425 17.3442C41.8104 17.0756 42.1127 16.5884 42.5496 15.8829C42.9864 15.1774 43.5237 14.3545 44.1621 13.4138C43.4566 13.5816 42.7678 13.7578 42.096 13.9427C41.4243 14.1276 40.7522 14.3041 40.0804 14.472C39.6773 14.539 39.3245 14.472 39.0222 14.2704C38.7198 14.0688 38.5854 13.8336 38.6191 13.5649C38.7199 13.1281 38.9464 12.7337 39.2992 12.3809C39.6523 12.0278 40.0637 11.7846 40.5339 11.6501C40.87 11.5493 41.4156 11.4068 42.1715 11.2219C42.9277 11.0371 43.7926 10.8271 44.7668 10.5919C44.095 10.1887 43.4316 9.77728 42.7761 9.35747C42.1211 8.93697 41.4576 8.54253 40.7859 8.17311C40.4165 7.93784 40.2066 7.63549 40.1558 7.26607C40.1054 6.89666 40.1812 6.62767 40.3828 6.45982C40.7522 6.22455 41.1973 6.11577 41.7179 6.13245C42.2392 6.14914 42.7007 6.29231 43.1039 6.5606C43.4399 6.72846 43.9101 7.01412 44.5148 7.41725C44.414 6.84627 44.3299 6.30031 44.2628 5.77972C44.1958 5.25843 44.1454 4.76321 44.1117 4.29301C44.078 3.9236 44.1621 3.60422 44.3636 3.33559C44.5652 3.06695 44.8005 2.91578 45.0691 2.88207C45.3044 2.815 45.5897 2.89041 45.9257 3.109C46.2618 3.32725 46.5138 3.73871 46.6816 4.3434C46.8161 4.9818 46.9673 5.63689 47.1351 6.30865C47.303 6.98041 47.4712 7.70291 47.639 8.47546C48.3108 7.56842 48.9659 6.71178 49.6043 5.90552C50.2427 5.09927 50.8474 4.41048 51.4184 3.8395C51.687 3.57086 51.9893 3.41969 52.3254 3.38598C52.6614 3.35227 52.9301 3.43637 53.1316 3.63793C53.2995 3.77242 53.4256 4.04106 53.5094 4.44419C53.5935 4.84731 53.4503 5.30083 53.0812 5.80474C52.7118 6.30865 52.2917 6.87164 51.8215 7.49301C51.3513 8.11438 50.864 8.7778 50.3601 9.48327C51.2335 9.31542 52.0901 9.18927 52.9301 9.10552C53.77 9.02141 54.5593 8.96303 55.2984 8.92897C55.6679 8.92897 55.9872 8.99605 56.2559 9.13054C56.5245 9.26503 56.6757 9.46659 56.7094 9.73523C56.7431 9.9705 56.6423 10.2558 56.407 10.5919C56.1718 10.9279 55.752 11.1462 55.1473 11.247C54.5763 11.3477 53.9633 11.4485 53.3078 11.5493C52.6528 11.6501 51.9893 11.7675 51.3176 11.902C52.0901 12.473 52.8126 13.0357 53.4844 13.5903C54.1561 14.1446 54.7779 14.6735 55.3488 15.1774C55.6175 15.4461 55.7937 15.7231 55.8778 16.0091C55.9619 16.294 55.9195 16.5547 55.752 16.7899C55.5841 16.9578 55.2984 17.0756 54.8953 17.1427C54.4922 17.2098 54.0554 17.0756 53.5852 16.7396Z" fill="#DD5A6F"/>
</svg>
