<svg width="285" height="42" viewBox="0 0 285 42" fill="none" xmlns="http://www.w3.org/2000/svg">
<path d="M97.2341 19.0333L96.5721 20.9366C96.5721 21.0193 96.5721 21.1021 96.5721 21.2676H95.9101C95.9928 21.1848 95.9928 21.1021 96.0756 20.9366L98.3926 14.3991C98.3926 14.3164 98.4754 14.2336 98.4754 14.1509H99.4684C99.4684 14.2336 99.4684 14.3164 99.5512 14.3991L101.951 20.9366C102.034 21.0193 102.034 21.1021 102.117 21.2676H100.71C100.71 21.1848 100.71 21.1021 100.627 20.9366L99.9649 19.0333H97.2341ZM97.3996 18.5368H99.6339L98.4754 15.3922L97.3996 18.5368Z" fill="#005581"/>
<path d="M103.689 16.3852C104.103 15.8887 104.682 15.6404 105.261 15.6404C105.592 15.6404 105.84 15.7232 106.171 15.8059C106.42 15.9714 106.585 16.1369 106.751 16.3852C106.999 16.1369 107.247 15.9714 107.578 15.8059C107.826 15.7232 108.157 15.6404 108.488 15.6404C109.233 15.5577 109.895 16.1369 109.978 16.8817C109.978 16.9645 109.978 17.0472 109.978 17.2127V20.9366C109.978 21.0193 109.978 21.1848 109.978 21.2676H108.819C108.819 21.1848 108.819 21.0193 108.819 20.9366V17.3782C108.819 17.13 108.819 16.9645 108.654 16.7162C108.488 16.4679 108.157 16.3852 107.826 16.3852C107.495 16.3852 107.247 16.4679 106.999 16.6334C106.751 16.8817 106.668 17.13 106.668 17.461V20.9366C106.668 21.0193 106.668 21.1848 106.668 21.2676H105.509C105.509 21.1848 105.509 21.0193 105.509 20.9366V17.3782C105.509 17.13 105.509 16.9645 105.344 16.7162C105.178 16.4679 104.847 16.3852 104.599 16.3852C104.268 16.3852 104.02 16.4679 103.772 16.6334C103.523 16.7989 103.441 17.0472 103.441 17.3782V20.9366C103.441 21.0193 103.441 21.1848 103.441 21.2676H102.282C102.282 21.1848 102.365 21.0193 102.282 20.9366V16.1369C102.282 16.0542 102.282 15.8887 102.282 15.8059H103.358L103.689 16.3852Z" fill="#005581"/>
<path d="M115.771 20.9366C115.44 21.1021 115.109 21.1848 114.86 21.2676C114.529 21.3503 114.198 21.3503 113.95 21.3503C113.123 21.4331 112.378 21.1021 111.799 20.5228C111.302 19.9436 111.137 19.2815 111.137 18.5368C111.054 17.7092 111.385 16.9645 111.881 16.3852C112.378 15.8887 113.04 15.6404 113.702 15.6404C114.364 15.6404 114.943 15.8887 115.44 16.3024C115.853 16.8817 116.102 17.5437 116.102 18.2885H112.295C112.295 18.785 112.378 19.2815 112.461 19.6953C112.709 20.3573 113.371 20.8538 114.116 20.7711C114.695 20.7711 115.274 20.5228 115.688 20.1091L115.771 20.9366ZM112.295 17.8747H114.943C114.943 17.6265 114.86 17.3782 114.778 17.13C114.695 16.8817 114.529 16.6334 114.281 16.3852C114.116 16.2197 113.867 16.1369 113.619 16.1369C113.288 16.1369 112.957 16.3024 112.709 16.5507C112.461 16.9645 112.295 17.3782 112.295 17.8747Z" fill="#005581"/>
<path d="M117.095 15.8059H118.171V16.4679C118.253 16.2197 118.419 15.9714 118.667 15.8887C118.915 15.7232 119.246 15.6404 119.577 15.6404V16.4679H119.412C118.584 16.4679 118.253 16.8817 118.253 17.792V20.9366C118.253 21.0193 118.253 21.1848 118.253 21.2676H117.095C117.095 21.1848 117.095 21.0193 117.095 20.9366V16.1369C117.095 15.9714 117.095 15.8887 117.095 15.8059Z" fill="#005581"/>
<path d="M120.984 14.3164C121.15 14.3164 121.315 14.3164 121.481 14.4819C121.563 14.5646 121.646 14.7301 121.646 14.8129C121.646 14.9784 121.563 15.0611 121.481 15.2266C121.315 15.3094 121.15 15.3922 120.984 15.3922C120.488 15.3922 120.322 15.2266 120.322 14.8956C120.322 14.7301 120.405 14.6474 120.488 14.5646C120.653 14.3164 120.819 14.3164 120.984 14.3164ZM120.405 15.8059H121.563C121.563 15.8887 121.563 16.0542 121.563 16.1369V20.9366C121.563 21.0193 121.563 21.1848 121.563 21.2676H120.405C120.405 21.1848 120.405 21.0193 120.405 20.9366V16.1369C120.405 15.9714 120.405 15.8887 120.405 15.8059Z" fill="#005581"/>
<path d="M126.777 20.9366C126.529 21.1021 126.198 21.1848 125.867 21.2676C125.618 21.3503 125.37 21.3503 125.205 21.3503C124.542 21.3503 123.88 21.1021 123.384 20.6056C122.887 20.0263 122.639 19.2815 122.722 18.5368C122.639 17.7092 122.97 16.8817 123.549 16.2197C124.046 15.8059 124.708 15.5577 125.37 15.5577C125.784 15.5577 126.28 15.6404 126.694 15.8059V16.6334C126.529 16.4679 126.28 16.3024 126.032 16.2197C125.867 16.1369 125.618 16.1369 125.453 16.1369C124.956 16.1369 124.542 16.3852 124.294 16.7162C123.963 17.2127 123.798 17.8747 123.798 18.454C123.798 19.0333 123.88 19.5298 124.129 20.0263C124.377 20.5228 124.874 20.7711 125.37 20.7711C125.618 20.7711 125.784 20.6883 126.032 20.6056C126.28 20.5228 126.529 20.3573 126.694 20.1091L126.777 20.9366Z" fill="#005581"/>
<path d="M130.501 20.5228C130.335 20.7711 130.087 20.9366 129.921 21.1021C129.59 21.2676 129.177 21.4331 128.846 21.3503C128.432 21.3503 128.101 21.2676 127.853 21.0193C127.522 20.6883 127.356 20.2746 127.356 19.778C127.356 19.2815 127.604 18.7023 128.018 18.454C128.184 18.3713 128.349 18.2057 128.597 18.123C128.763 18.0402 129.177 17.9575 129.839 17.7092C130.087 17.6265 130.252 17.5437 130.418 17.3782C130.501 17.2127 130.583 17.0472 130.583 16.8817C130.583 16.6334 130.501 16.4679 130.335 16.3024C130.087 16.1369 129.839 16.0542 129.59 16.0542C129.342 16.0542 129.094 16.0542 128.928 16.1369C128.68 16.2197 128.432 16.3852 128.184 16.6334L128.018 15.9714C128.349 15.8059 128.68 15.7232 129.011 15.6404C129.342 15.5577 129.673 15.5577 129.921 15.5577C130.418 15.5577 130.832 15.6404 131.245 15.8887C131.576 16.1369 131.742 16.4679 131.742 16.799V20.0263C131.742 20.3573 131.825 20.5228 132.073 20.5228C132.238 20.5228 132.321 20.4401 132.404 20.3573V20.9366C132.156 21.1021 131.907 21.1848 131.576 21.1848C131.328 21.1848 131.163 21.1021 130.997 21.0193C130.666 21.0193 130.583 20.7711 130.501 20.5228ZM130.501 17.9575L130.17 18.123L129.342 18.454C129.011 18.5368 128.763 18.7023 128.515 18.9505C128.349 19.116 128.266 19.3643 128.266 19.6953C128.266 19.9436 128.349 20.1918 128.515 20.3573C128.68 20.5228 128.928 20.6056 129.177 20.6056C129.59 20.6056 129.921 20.4401 130.17 20.1091C130.335 19.8608 130.418 19.6125 130.418 19.3643L130.501 17.9575Z" fill="#005581"/>
<path d="M132.983 15.8059H134.059V16.5507C134.225 16.3024 134.39 16.1369 134.556 15.9714C134.887 15.7232 135.3 15.6404 135.797 15.6404C136.293 15.6404 136.873 15.8059 137.204 16.2197C137.452 16.5507 137.535 16.8817 137.535 17.2127V20.9366C137.535 21.0193 137.535 21.1848 137.535 21.2676H136.376C136.376 21.1848 136.376 21.0193 136.376 20.9366V17.3782C136.376 17.13 136.293 16.8817 136.128 16.6334C135.88 16.4679 135.631 16.3852 135.3 16.3852C134.969 16.3852 134.638 16.4679 134.39 16.7162C134.142 16.9645 134.059 17.2955 134.059 17.6265V20.8538C134.059 20.9366 134.059 21.1021 134.059 21.1848H132.901C132.901 21.1021 132.983 20.9366 132.901 20.8538V16.0542C132.901 15.9714 132.983 15.8887 132.983 15.8059Z" fill="#005581"/>
<path d="M142.417 19.0333L141.755 20.9366C141.755 21.0193 141.672 21.1021 141.672 21.1848H141.01C141.093 21.1021 141.093 21.0193 141.176 20.8538L143.493 14.3164C143.493 14.2336 143.576 14.1509 143.576 14.0681H144.569C144.569 14.1509 144.569 14.2336 144.651 14.3164L147.051 20.8538C147.134 20.9366 147.134 21.0193 147.217 21.1848H145.81C145.81 21.1021 145.81 21.0193 145.727 20.8538L145.065 18.9505L142.417 19.0333ZM142.665 18.5368H144.9L143.741 15.3922L142.665 18.5368Z" fill="#005581"/>
<path d="M151.437 20.9366C151.189 21.1021 150.858 21.1848 150.527 21.2676C150.279 21.3503 150.113 21.3503 149.865 21.3503C149.203 21.4331 148.541 21.1021 148.044 20.6056C147.051 19.2815 147.134 17.461 148.21 16.2197C148.706 15.8059 149.368 15.5577 150.03 15.5577C150.444 15.5577 150.941 15.6404 151.354 15.8059V16.6334C151.189 16.4679 150.941 16.3024 150.692 16.2197C150.527 16.1369 150.279 16.1369 150.113 16.1369C149.617 16.1369 149.203 16.3852 148.955 16.7162C148.624 17.2127 148.458 17.8747 148.541 18.454C148.541 19.0333 148.624 19.5298 148.872 20.0263C149.12 20.5228 149.534 20.7711 150.113 20.7711C150.361 20.7711 150.527 20.6883 150.775 20.6056C151.023 20.5228 151.272 20.3573 151.437 20.1091V20.9366Z" fill="#005581"/>
<path d="M155.244 20.5228C155.078 20.7711 154.83 20.9366 154.664 21.1021C154.333 21.2676 153.92 21.4331 153.589 21.3503C153.175 21.3503 152.844 21.2676 152.596 21.0193C152.265 20.6883 152.099 20.2746 152.099 19.778C152.099 19.2815 152.347 18.7023 152.761 18.454C152.927 18.3713 153.092 18.2057 153.34 18.123C153.506 18.0402 153.92 17.9575 154.582 17.7092C154.83 17.6265 154.995 17.5437 155.161 17.3782C155.244 17.2127 155.326 17.0472 155.326 16.8817C155.326 16.6334 155.244 16.4679 155.078 16.3024C154.83 16.1369 154.582 16.0542 154.333 16.0542C154.085 16.0542 153.837 16.0542 153.671 16.1369C153.423 16.2197 153.175 16.3852 152.927 16.6334L152.761 15.9714C153.092 15.8059 153.423 15.7232 153.754 15.6404C154.085 15.5577 154.416 15.5577 154.664 15.5577C155.161 15.5577 155.575 15.6404 155.989 15.8887C156.32 16.1369 156.485 16.4679 156.485 16.799V20.0263C156.485 20.3573 156.568 20.5228 156.816 20.5228C156.982 20.5228 157.064 20.4401 157.147 20.3573V20.9366C156.899 21.1021 156.651 21.1848 156.32 21.1848C156.071 21.1848 155.906 21.1021 155.74 21.0193C155.326 21.0193 155.244 20.7711 155.244 20.5228ZM155.161 17.9575L154.83 18.123L154.002 18.454C153.671 18.5368 153.423 18.7023 153.175 18.9505C153.009 19.1988 152.927 19.3643 152.927 19.6953C152.927 19.9436 153.009 20.1918 153.175 20.3573C153.34 20.5228 153.589 20.6056 153.837 20.6056C154.251 20.6056 154.582 20.4401 154.83 20.1091C154.995 19.8608 155.078 19.6125 155.078 19.3643L155.161 17.9575Z" fill="#005581"/>
<path d="M161.036 20.4401C160.871 20.6883 160.705 20.8538 160.54 21.0193C160.209 21.2676 159.795 21.3503 159.464 21.3503C158.885 21.3503 158.306 21.1021 157.975 20.6056C157.561 19.9436 157.395 19.2815 157.478 18.5368C157.478 17.792 157.644 17.0472 158.057 16.3852C158.388 15.8887 158.968 15.6404 159.63 15.6404C159.878 15.6404 160.209 15.7232 160.457 15.8059C160.705 15.9714 160.954 16.1369 161.036 16.3852V14.0681C161.036 13.9854 161.036 13.8199 161.036 13.7371H162.195C162.195 13.8199 162.112 13.9854 162.195 14.0681V21.0193C162.195 21.1021 162.195 21.2676 162.195 21.3503H161.119L161.036 20.4401ZM159.795 16.2197C159.547 16.2197 159.216 16.3024 159.05 16.5507C158.637 17.13 158.471 17.792 158.554 18.5368C158.554 20.0263 158.968 20.6883 159.795 20.6883C160.209 20.6883 160.54 20.4401 160.788 20.1091C161.036 19.6125 161.119 19.0333 161.119 18.454C161.036 16.9645 160.623 16.2197 159.795 16.2197Z" fill="#005581"/>
<path d="M167.822 20.9366C167.491 21.1021 167.16 21.1848 166.829 21.2676C166.498 21.3503 166.167 21.3503 165.919 21.3503C165.091 21.4331 164.347 21.1021 163.767 20.5228C163.271 19.9436 163.105 19.2815 163.105 18.5368C163.022 17.7092 163.354 16.9645 163.85 16.3852C164.347 15.8887 165.009 15.6404 165.671 15.6404C166.333 15.6404 166.912 15.8887 167.408 16.3024C167.822 16.8817 168.07 17.5437 168.07 18.2885H164.264C164.264 18.785 164.347 19.2815 164.429 19.6953C164.678 20.3573 165.34 20.8538 166.084 20.7711C166.664 20.7711 167.243 20.5228 167.657 20.1091L167.822 20.9366ZM164.347 17.8747H166.995C166.995 17.6265 166.912 17.3782 166.829 17.13C166.746 16.8817 166.581 16.6334 166.333 16.3852C166.167 16.2197 165.919 16.1369 165.671 16.1369C165.34 16.1369 165.009 16.3024 164.76 16.5507C164.512 16.9645 164.347 17.3782 164.347 17.8747Z" fill="#005581"/>
<path d="M170.222 16.3852C170.553 15.8887 171.215 15.6404 171.794 15.6404C172.125 15.6404 172.374 15.7232 172.705 15.8059C172.953 15.9714 173.118 16.1369 173.284 16.3852C173.532 16.1369 173.78 15.9714 174.111 15.8059C174.36 15.7232 174.691 15.6404 175.022 15.6404C175.766 15.4749 176.511 15.9714 176.677 16.7162C176.677 16.8817 176.677 17.0472 176.677 17.13V20.8538C176.677 20.9366 176.677 21.1021 176.677 21.1848H175.518C175.518 21.1021 175.601 20.9366 175.518 20.8538V17.2955C175.518 17.0472 175.518 16.8817 175.353 16.6334C175.187 16.3852 174.856 16.3024 174.525 16.3024C174.194 16.3024 173.946 16.3852 173.698 16.5507C173.449 16.7989 173.367 17.0472 173.367 17.3782V20.8538C173.367 20.9366 173.367 21.0193 173.367 21.1848H172.291C172.291 21.1021 172.291 20.9366 172.291 20.8538V17.2955C172.291 17.0472 172.291 16.8817 172.125 16.6334C171.96 16.3852 171.629 16.3024 171.381 16.3024C171.05 16.3024 170.801 16.3852 170.553 16.5507C170.305 16.7162 170.222 16.9645 170.222 17.2955V20.8538C170.222 20.9366 170.222 21.1021 170.305 21.1848H169.146C169.146 21.1021 169.146 20.9366 169.146 20.8538V16.0542C169.146 15.9714 169.146 15.8059 169.146 15.7232H170.222V16.3852Z" fill="#005581"/>
<path d="M179.077 21.2676L177.173 16.0542C177.173 15.9714 177.09 15.8059 177.008 15.7232H178.249C178.249 15.8059 178.332 15.9714 178.332 16.0542L179.656 19.778L181.145 16.0542C181.145 15.9714 181.228 15.8887 181.228 15.7232H181.89C181.807 15.8059 181.807 15.8887 181.725 16.0542L178.994 22.5916C178.911 22.6744 178.911 22.7571 178.911 22.9227H178.249C178.332 22.8399 178.332 22.7571 178.414 22.5916L179.077 21.2676Z" fill="#005581"/>
<path d="M187.683 15.6404C188.428 15.5577 189.09 15.8887 189.586 16.4679C190 17.0472 190.248 17.792 190.248 18.5368C190.331 19.2815 190 20.1091 189.503 20.6883C189.007 21.1848 188.345 21.4331 187.683 21.4331C186.938 21.4331 186.276 21.1848 185.779 20.6056C185.283 20.0263 185.035 19.1988 185.117 18.454C185.117 17.7092 185.283 17.0472 185.779 16.4679C186.276 15.8887 186.938 15.6404 187.683 15.6404ZM187.683 16.1369C187.517 16.1369 187.269 16.2197 187.104 16.3024C186.938 16.3852 186.773 16.5507 186.69 16.7162C186.359 17.2955 186.193 17.8747 186.276 18.5368C186.276 19.1988 186.359 19.8608 186.69 20.3573C186.773 20.5228 186.938 20.6883 187.104 20.7711C187.269 20.8538 187.435 20.9366 187.683 20.9366C187.848 20.9366 188.097 20.8538 188.262 20.7711C188.428 20.6883 188.593 20.5228 188.676 20.3573C189.255 19.1988 189.255 17.8747 188.676 16.7162C188.428 16.3024 188.097 16.1369 187.683 16.1369Z" fill="#005581"/>
<path d="M191.407 16.3024H190.827V15.8059H191.407V14.8956C191.407 14.5646 191.489 14.2336 191.738 13.9854C192.069 13.7371 192.565 13.5716 192.979 13.5716C193.393 13.5716 193.889 13.6543 194.303 13.7371L194.055 14.3164C193.807 14.1509 193.475 14.0681 193.144 14.0681C192.979 14.0681 192.731 14.1509 192.565 14.2336C192.4 14.3991 192.4 14.5646 192.4 14.8129V15.7232H193.972V16.2197H192.4V20.8538C192.4 20.9366 192.4 21.1021 192.4 21.1848H191.324C191.324 21.1021 191.407 20.9366 191.324 20.8538L191.407 16.3024Z" fill="#005581"/>
<path d="M97.7306 32.6875L96.8203 35.3356C96.7376 35.5011 96.7376 35.5838 96.7376 35.7493H95.8273C95.9101 35.5838 95.9928 35.5011 95.9928 35.3356L99.1374 26.481C99.1374 26.3983 99.2202 26.2328 99.2202 26.15H100.627C100.627 26.2328 100.627 26.3983 100.71 26.481L103.937 35.4183C104.02 35.5838 104.103 35.6666 104.185 35.8321H102.282C102.282 35.6666 102.282 35.5838 102.199 35.4183L101.289 32.7702L97.7306 32.6875ZM97.9789 32.0254H101.041L99.4684 27.6396L97.9789 32.0254Z" fill="#005581"/>
<path d="M106.668 25.3225C106.668 25.488 106.585 25.6535 106.585 25.819V35.3356C106.585 35.5011 106.585 35.6666 106.668 35.8321H105.013C105.013 35.6666 105.096 35.5011 105.096 35.3356V25.819C105.096 25.6535 105.096 25.488 105.096 25.3225H106.668Z" fill="#005581"/>
<path d="M109.978 25.3225C109.978 25.488 109.895 25.6535 109.895 25.819V35.3356C109.895 35.5011 109.895 35.6666 109.978 35.8321H108.323C108.323 35.6666 108.406 35.5011 108.406 35.3356V25.819C108.406 25.6535 108.406 25.488 108.323 25.3225H109.978Z" fill="#005581"/>
<path d="M117.84 35.2528C117.426 35.5011 117.012 35.6666 116.598 35.7493C116.184 35.8321 115.771 35.9148 115.274 35.9148C114.198 35.9976 113.123 35.5838 112.378 34.7563C111.716 34.0115 111.468 33.0185 111.468 32.0254C111.385 30.9497 111.799 29.8739 112.461 29.0464C113.123 28.3843 114.033 27.9706 114.943 28.0533C115.853 27.9706 116.681 28.3843 117.26 28.9636C117.84 29.7084 118.171 30.7014 118.171 31.6944H112.957C112.957 32.3565 113.04 33.0185 113.205 33.6805C113.536 34.5908 114.447 35.2528 115.44 35.17C116.267 35.17 117.012 34.839 117.591 34.2598L117.84 35.2528ZM113.04 31.0324H116.598C116.598 30.7014 116.515 30.2876 116.433 29.9566C116.35 29.5429 116.102 29.2119 115.771 28.9636C115.522 28.7153 115.191 28.6326 114.86 28.6326C114.364 28.6326 113.95 28.8808 113.619 29.2119C113.288 29.7911 113.123 30.3704 113.04 31.0324Z" fill="#005581"/>
<path d="M119.577 28.2188H121.067V29.1291C121.15 28.7981 121.398 28.5498 121.646 28.3016C122.06 28.1361 122.474 27.9706 122.887 27.9706V29.1291H122.639C121.563 29.1291 120.984 29.7084 120.984 30.8669V35.17C120.984 35.3356 120.984 35.5011 121.067 35.6666H119.412C119.412 35.5011 119.495 35.3356 119.495 35.17V28.5498C119.66 28.5498 119.66 28.3843 119.577 28.2188Z" fill="#005581"/>
<path d="M124.129 36.4113L123.798 35.3356L125.453 34.177C125.039 33.9288 124.708 33.6805 124.46 33.3495C124.046 32.7702 123.798 32.0254 123.88 31.3634C123.715 29.7084 124.956 28.2188 126.694 28.0533C126.86 28.0533 127.025 28.0533 127.191 28.0533C127.356 28.0533 127.604 28.0533 127.935 28.0533C128.184 27.9706 128.349 27.8051 128.432 27.5568C128.597 27.3085 128.68 27.0603 128.68 26.7293H130.087C130.087 27.0603 129.921 27.3085 129.756 27.5568C129.508 27.8051 129.259 28.0533 128.928 28.2188C129.342 28.3843 129.673 28.7153 129.921 29.0464C130.418 29.7084 130.666 30.4531 130.666 31.2807C130.666 32.1082 130.418 32.9357 129.839 33.515C129.342 34.0115 128.763 34.2598 128.101 34.4253L127.191 34.508C126.942 34.508 126.694 34.5908 126.446 34.7563L125.039 35.5838C126.032 35.3356 127.025 35.17 128.018 35.0873C128.68 35.0873 129.425 35.17 130.004 35.4183C130.252 35.5011 130.501 35.6666 130.666 35.9148C130.832 36.0803 130.914 36.3286 130.914 36.6596C130.914 37.1561 130.583 37.6526 130.087 37.8181C129.342 38.1491 128.597 38.2319 127.77 38.2319C126.529 38.1491 125.287 37.9836 124.129 37.5699V37.3216C125.039 37.5699 126.032 37.7354 127.025 37.7354C127.522 37.7354 128.018 37.6526 128.432 37.4871C128.763 37.3216 129.011 37.0734 129.011 36.8251C129.011 36.5768 128.846 36.3286 128.432 36.1631C127.935 35.9976 127.356 35.9148 126.86 35.9148C125.867 35.9976 124.956 36.1631 124.129 36.4113ZM127.108 28.7981C126.529 28.7981 126.032 29.0464 125.701 29.4601C125.37 29.9566 125.287 30.6187 125.287 31.1979C125.287 31.8599 125.37 32.522 125.784 33.1012C126.28 33.846 127.273 34.0115 128.018 33.515C128.184 33.4322 128.349 33.2667 128.432 33.1012C128.763 32.522 128.928 31.9427 128.846 31.2807C128.846 30.6187 128.763 30.0394 128.349 29.4601C128.184 29.0464 127.687 28.7981 127.108 28.7981Z" fill="#005581"/>
<path d="M133.645 35.7493L131.08 28.6326C130.997 28.4671 130.997 28.3843 130.914 28.2188H132.652C132.652 28.3843 132.735 28.4671 132.735 28.6326L134.473 33.6805L136.542 28.6326C136.624 28.4671 136.624 28.3843 136.624 28.2188H137.535C137.452 28.3843 137.369 28.5498 137.286 28.6326L133.563 37.5699C133.48 37.7354 133.48 37.8181 133.397 37.9836H132.57C132.652 37.8181 132.735 37.7354 132.818 37.5699L133.645 35.7493Z" fill="#005581"/>
<path d="M143.162 32.6875L142.252 35.3356C142.252 35.5011 142.169 35.5838 142.169 35.7493H141.259C141.341 35.5838 141.424 35.5011 141.424 35.3356L144.569 26.481C144.651 26.3983 144.651 26.2328 144.651 26.15H146.058C146.058 26.2328 146.058 26.3983 146.141 26.481L149.368 35.4183C149.451 35.5838 149.534 35.6666 149.617 35.8321H147.713C147.713 35.6666 147.713 35.5838 147.63 35.4183L146.72 32.7702L143.162 32.6875ZM143.41 32.0254H146.472L144.9 27.6396L143.41 32.0254Z" fill="#005581"/>
<path d="M149.948 35.17L150.196 34.177C150.527 34.508 150.941 34.6735 151.354 34.9218C151.685 35.0873 152.016 35.17 152.43 35.17C152.844 35.17 153.258 35.0873 153.506 34.7563C153.754 34.508 153.837 34.177 153.837 33.9288C153.837 33.5977 153.754 33.3495 153.506 33.184C153.009 32.853 152.513 32.6047 152.016 32.4392C151.437 32.2737 150.941 31.9427 150.527 31.4462C150.279 31.1152 150.196 30.7014 150.196 30.2876C150.196 29.5429 150.527 28.8808 151.189 28.4671C151.685 28.1361 152.265 28.0533 152.844 28.0533C153.589 28.0533 154.416 28.2188 155.078 28.5498L154.83 29.4601C154.333 29.0464 153.671 28.7981 153.009 28.7153C152.678 28.7153 152.265 28.7981 152.016 29.0464C151.768 29.2119 151.603 29.5429 151.603 29.8739C151.603 30.1221 151.685 30.3704 151.934 30.5359C152.347 30.7842 152.761 31.0324 153.258 31.1979C153.837 31.3634 154.416 31.6944 154.913 32.1082C155.244 32.4392 155.409 32.9357 155.409 33.4322C155.409 34.177 155.078 34.839 154.499 35.2528C153.92 35.6666 153.175 35.8321 152.513 35.8321C151.52 35.8321 150.692 35.5838 149.948 35.17Z" fill="#005581"/>
<path d="M157.064 28.8808H155.989V28.2188H157.064V26.7293L158.554 26.5638C158.554 26.812 158.554 27.0603 158.554 27.143V28.2188H159.795V28.8808H158.554V34.3425C158.554 34.7563 158.719 35.0045 159.133 35.0045C159.381 35.0045 159.63 34.9218 159.795 34.7563V35.5838C159.381 35.7493 158.968 35.9148 158.554 35.9148C158.14 35.9148 157.726 35.8321 157.478 35.5838C157.23 35.2528 157.064 34.839 157.147 34.508L157.064 28.8808Z" fill="#005581"/>
<path d="M160.954 35.7493C160.954 35.5838 161.036 35.4183 161.036 35.2528V25.819C161.036 25.6535 161.036 25.488 160.954 25.3225H162.609C162.609 25.488 162.526 25.6535 162.526 25.819V29.2119C162.774 28.8808 163.105 28.5498 163.519 28.3016C163.933 28.1361 164.347 28.0533 164.76 28.0533C165.422 28.0533 166.002 28.2188 166.498 28.6326C166.912 29.0464 167.16 29.6256 167.16 30.2876V35.3356C167.16 35.5011 167.16 35.6666 167.243 35.8321H165.588C165.671 35.6666 165.671 35.5011 165.671 35.3356V30.7842C165.671 30.3704 165.588 29.8739 165.34 29.5429C165.009 29.2946 164.678 29.1291 164.264 29.1291C163.767 29.0463 163.271 29.2946 162.94 29.6256C162.609 29.9566 162.526 30.4531 162.526 30.8669V35.3356C162.526 35.5011 162.526 35.6666 162.609 35.8321H160.954V35.7493Z" fill="#005581"/>
<path d="M170.553 29.0464C171.381 28.0533 172.787 27.7223 173.946 28.2188C174.277 28.3843 174.608 28.7153 174.773 29.0464C175.104 28.7153 175.435 28.4671 175.849 28.2188C176.263 28.0533 176.677 27.9706 177.09 27.9706C178.497 27.9706 179.242 28.7153 179.242 30.1221V35.2528C179.242 35.4183 179.242 35.5838 179.325 35.7493H177.752C177.752 35.5838 177.835 35.4183 177.835 35.2528V30.3704C177.835 30.0394 177.752 29.7911 177.67 29.4601C177.421 29.1291 177.008 28.9636 176.594 29.0464C176.18 29.0464 175.766 29.1291 175.435 29.4601C175.187 29.7084 175.022 30.1221 175.022 30.5359V35.2528C175.022 35.4183 175.022 35.5838 175.104 35.7493H173.449C173.532 35.5838 173.532 35.4183 173.532 35.2528V30.3704C173.532 30.0394 173.449 29.7911 173.284 29.4601C173.036 29.1291 172.622 28.9636 172.208 29.0464C171.794 29.0464 171.381 29.1291 171.05 29.4601C170.801 29.7084 170.636 30.0394 170.636 30.4531V35.2528C170.636 35.4183 170.636 35.5838 170.719 35.7493H168.981C168.981 35.5838 169.063 35.4183 169.063 35.2528V28.7153C169.063 28.5498 169.063 28.3843 168.981 28.2188H170.47L170.553 29.0464Z" fill="#005581"/>
<path d="M184.786 34.6735C184.538 35.0045 184.29 35.2528 183.959 35.4183C183.462 35.6666 182.966 35.8321 182.469 35.8321C181.973 35.8321 181.476 35.6666 181.063 35.3356C180.649 34.9218 180.401 34.3425 180.401 33.6805C180.318 32.9357 180.732 32.2737 181.311 31.8599C181.559 31.6944 181.807 31.5289 182.138 31.4462C182.387 31.3634 182.966 31.1979 183.793 30.9497C184.042 30.8669 184.373 30.7014 184.538 30.5359C184.704 30.3704 184.786 30.1221 184.786 29.8739C184.786 29.5429 184.621 29.2119 184.373 29.0464C184.124 28.8808 183.711 28.7153 183.38 28.7153C183.049 28.7153 182.718 28.7981 182.469 28.8808C182.138 29.0464 181.807 29.2946 181.476 29.5429L181.228 28.6326C181.642 28.3843 182.056 28.2188 182.552 28.1361C182.966 28.0533 183.38 27.9706 183.876 27.9706C184.538 27.9706 185.117 28.0533 185.697 28.4671C186.111 28.7981 186.359 29.2119 186.359 29.7911V34.2598C186.359 34.6735 186.524 34.9218 186.773 34.9218C186.938 34.9218 187.104 34.839 187.269 34.6735V35.5011C186.938 35.7493 186.524 35.8321 186.193 35.9148C185.862 35.9148 185.614 35.8321 185.366 35.6666C185.035 35.3356 184.869 35.0873 184.786 34.6735ZM184.786 31.1979C184.621 31.2807 184.455 31.3634 184.373 31.4462L183.297 31.8599C182.883 32.0254 182.469 32.2737 182.221 32.6047C182.056 32.853 181.89 33.184 181.89 33.5977C181.89 33.9288 181.973 34.2598 182.221 34.5908C182.469 34.839 182.8 35.0045 183.131 34.9218C183.711 34.9218 184.207 34.6735 184.538 34.177C184.704 33.9288 184.869 33.515 184.869 33.184V31.1979H184.786Z" fill="#005581"/>
<path d="M196.951 34.839C196.703 35.0045 196.455 35.17 196.289 35.3356C195.71 35.7493 195.048 35.9148 194.303 35.9148C193.641 35.9148 192.979 35.7493 192.482 35.2528C191.903 34.7563 191.655 34.0115 191.655 33.3495C191.655 32.7702 191.82 32.191 192.151 31.6944C192.317 31.4462 192.565 31.2807 192.813 31.1152C193.227 30.8669 193.724 30.6187 194.138 30.4531C193.889 30.1221 193.724 29.7084 193.558 29.3774C193.475 29.1291 193.393 28.8808 193.393 28.6326C193.393 27.9706 193.724 27.3913 194.22 27.0603C194.634 26.812 195.131 26.6465 195.627 26.6465C196.124 26.6465 196.62 26.812 196.951 27.143C197.282 27.474 197.448 27.8878 197.448 28.3843C197.448 28.8808 197.282 29.4601 196.951 29.7911C196.62 30.0394 196.289 30.2876 195.875 30.4531L197.696 33.184C198.11 32.6875 198.523 32.0254 198.772 31.3634L199.434 32.191C199.103 32.7702 198.606 33.3495 198.192 33.846L199.185 35.3356C199.268 35.5011 199.351 35.6666 199.516 35.7493H197.613L196.951 34.839ZM194.634 31.0324C194.303 31.1979 193.972 31.3634 193.724 31.6117C193.393 31.9427 193.144 32.4392 193.227 33.0185C193.227 33.515 193.393 34.0115 193.724 34.3425C194.055 34.6735 194.469 34.9218 194.965 34.839C195.296 34.839 195.544 34.7563 195.793 34.6735C196.124 34.508 196.372 34.3425 196.62 34.0943L194.634 31.0324ZM195.544 29.7911L195.627 29.7084C195.875 29.5429 196.124 29.3774 196.372 29.1291C196.537 28.8808 196.62 28.5498 196.62 28.2188C196.62 27.9706 196.537 27.7223 196.372 27.5568C196.206 27.3913 195.958 27.3085 195.793 27.3085C195.544 27.3085 195.296 27.3913 195.131 27.5568C194.965 27.7223 194.882 27.9706 194.882 28.2188C194.882 28.4671 194.965 28.6326 195.048 28.8808C195.213 29.2946 195.379 29.5429 195.544 29.7911Z" fill="#005581"/>
<path d="M204.647 26.15H206.385C206.302 26.3155 206.302 26.481 206.302 26.6465V35.3356C206.302 35.5011 206.302 35.6666 206.385 35.8321H204.647C204.73 35.6666 204.73 35.5011 204.73 35.3356V26.5638C204.73 26.3983 204.647 26.2328 204.647 26.15Z" fill="#005581"/>
<path d="M209.861 29.0464C210.688 28.0533 212.095 27.7223 213.253 28.2188C213.584 28.3843 213.915 28.7153 214.081 29.0464C214.412 28.7153 214.743 28.4671 215.157 28.2188C215.57 28.0533 215.984 27.9706 216.398 27.9706C217.805 27.9706 218.55 28.7153 218.55 30.1221V35.2528C218.55 35.4183 218.55 35.5838 218.632 35.7493H216.977C216.977 35.5838 217.06 35.4183 217.06 35.2528V30.3704C217.06 30.0394 216.977 29.7911 216.895 29.4601C216.646 29.1291 216.232 28.9636 215.819 29.0464C215.405 29.0464 214.991 29.1291 214.66 29.4601C214.412 29.7084 214.246 30.1221 214.246 30.5359V35.2528C214.246 35.4183 214.246 35.5838 214.329 35.7493H212.757C212.84 35.5838 212.84 35.4183 212.84 35.2528V30.3704C212.84 30.0394 212.757 29.7911 212.591 29.4601C212.343 29.1291 211.929 28.9636 211.516 29.0464C211.102 29.0464 210.688 29.1291 210.357 29.4601C210.109 29.7084 209.943 30.0394 209.943 30.4531V35.2528C209.943 35.4183 209.943 35.5838 210.026 35.7493H208.454C208.454 35.5838 208.536 35.4183 208.536 35.2528V28.7153C208.536 28.5498 208.536 28.3843 208.454 28.2188H209.943L209.861 29.0464Z" fill="#005581"/>
<path d="M221.86 29.0464C222.687 28.0533 224.094 27.7223 225.253 28.2188C225.584 28.3843 225.915 28.7153 226.08 29.0464C226.411 28.7153 226.742 28.4671 227.156 28.2188C227.57 28.0533 227.983 27.9706 228.397 27.9706C229.804 27.9706 230.549 28.7153 230.549 30.1221V35.2528C230.549 35.4183 230.549 35.5838 230.631 35.7493H229.059C229.059 35.5838 229.142 35.4183 229.142 35.2528V30.3704C229.142 30.0394 229.059 29.7911 228.976 29.4601C228.728 29.1291 228.314 28.9636 227.901 29.0464C227.487 29.0464 227.073 29.1291 226.742 29.4601C226.494 29.7084 226.328 30.1221 226.328 30.5359V35.2528C226.328 35.4183 226.328 35.5838 226.411 35.7493H224.756C224.839 35.5838 224.839 35.4183 224.839 35.2528V30.3704C224.839 30.0394 224.756 29.7911 224.591 29.4601C224.342 29.1291 223.928 28.9636 223.515 29.0464C223.101 29.0464 222.687 29.1291 222.356 29.4601C222.108 29.7084 221.942 30.0394 221.942 30.4531V35.2528C221.942 35.4183 221.942 35.5838 222.025 35.7493H220.37C220.37 35.5838 220.453 35.4183 220.453 35.2528V28.7153C220.453 28.5498 220.453 28.3843 220.37 28.2188H221.86V29.0464Z" fill="#005581"/>
<path d="M237.086 34.7563C236.921 35.0873 236.59 35.3356 236.341 35.5838C235.928 35.8321 235.348 35.9976 234.852 35.9976C234.19 36.0803 233.445 35.8321 232.949 35.3356C232.535 34.9218 232.369 34.2598 232.452 33.6805V28.7981C232.452 28.6326 232.452 28.4671 232.369 28.3016H233.942C233.859 28.4671 233.859 28.6326 233.859 28.7981V33.515C233.859 33.846 233.942 34.177 234.107 34.508C234.438 34.839 234.852 35.0045 235.266 35.0045C235.762 35.0045 236.176 34.839 236.507 34.5908C236.838 34.2598 237.003 33.846 237.003 33.4322V28.7981C237.003 28.6326 237.003 28.4671 236.921 28.3016H238.493C238.41 28.4671 238.41 28.6326 238.41 28.7981V35.4183C238.41 35.5838 238.41 35.7493 238.493 35.9148H237.086V34.7563Z" fill="#005581"/>
<path d="M240.396 28.2188H241.886V29.2946C242.382 28.4671 243.293 27.9706 244.203 28.0533C244.948 27.9706 245.692 28.3016 246.106 28.8808C246.354 29.2946 246.52 29.7084 246.52 30.2049V35.2528C246.52 35.4183 246.52 35.5838 246.603 35.7493H244.948C244.948 35.5838 245.03 35.4183 245.03 35.2528V30.4531C245.03 30.1221 244.948 29.7084 244.617 29.4601C244.286 29.2119 243.955 29.0464 243.541 29.1291C243.044 29.0464 242.548 29.2946 242.217 29.6256C241.886 29.9566 241.72 30.4531 241.72 30.9497V35.3356C241.72 35.5011 241.72 35.6666 241.803 35.8321H240.231C240.231 35.6666 240.314 35.5011 240.314 35.3356V28.7153C240.479 28.4671 240.479 28.3843 240.396 28.2188Z" fill="#005581"/>
<path d="M251.651 28.0533C252.644 27.9706 253.637 28.3843 254.216 29.2119C254.795 30.0394 255.126 31.0324 255.126 32.0254C255.209 33.1012 254.795 34.0943 254.133 34.9218C253.471 35.5838 252.644 35.9148 251.733 35.9148C250.74 35.9976 249.83 35.5838 249.168 34.839C248.506 34.0115 248.175 32.9357 248.175 31.8599C248.175 30.8669 248.423 29.9566 249.085 29.1291C249.665 28.3843 250.658 27.9706 251.651 28.0533ZM251.651 28.6326C251.402 28.6326 251.154 28.7153 250.906 28.8808C250.658 29.0464 250.492 29.2119 250.327 29.4601C249.913 30.2049 249.747 31.0324 249.747 31.8599C249.665 32.7702 249.913 33.5977 250.327 34.4253C250.492 34.6735 250.658 34.839 250.906 35.0045C251.154 35.17 251.402 35.2528 251.651 35.2528C251.899 35.2528 252.147 35.17 252.395 35.0045C252.644 34.839 252.809 34.6735 252.975 34.4253C253.719 32.853 253.719 30.9497 252.975 29.3774C252.644 28.9636 252.147 28.6326 251.651 28.6326Z" fill="#005581"/>
<path d="M258.105 25.3225C258.105 25.488 258.023 25.6535 258.023 25.819V35.3356C258.023 35.5011 258.023 35.6666 258.105 35.8321H256.533C256.533 35.6666 256.616 35.5011 256.616 35.3356V25.819C256.616 25.6535 256.616 25.488 256.533 25.3225H258.105Z" fill="#005581"/>
<path d="M263.071 28.0533C264.064 27.9706 265.057 28.3843 265.636 29.2119C266.215 30.0394 266.546 31.0324 266.546 32.0254C266.629 33.1012 266.215 34.177 265.553 34.9218C264.891 35.5838 264.064 35.9148 263.153 35.9148C262.16 35.9976 261.25 35.5838 260.588 34.839C259.926 34.0115 259.595 32.9357 259.678 31.8599C259.678 30.8669 259.926 29.8739 260.588 29.1291C261.167 28.3843 262.077 27.9706 263.071 28.0533ZM263.071 28.6326C262.822 28.6326 262.574 28.7153 262.326 28.8808C262.077 29.0464 261.912 29.2119 261.746 29.4601C261.333 30.2049 261.167 31.0324 261.167 31.8599C261.084 32.7702 261.333 33.5977 261.746 34.4253C261.912 34.6735 262.077 34.839 262.326 35.0045C262.574 35.17 262.822 35.2528 263.071 35.2528C263.319 35.2528 263.567 35.17 263.815 35.0045C264.064 34.839 264.229 34.6735 264.395 34.4253C265.139 32.853 265.139 30.9497 264.395 29.3774C264.146 28.9636 263.65 28.6326 263.071 28.6326Z" fill="#005581"/>
<path d="M268.118 36.4113L267.787 35.3356L269.442 34.177C269.029 33.9288 268.698 33.6805 268.449 33.3495C268.036 32.7702 267.787 32.0254 267.87 31.3634C267.705 29.7084 268.946 28.2188 270.601 28.0533C270.767 28.0533 270.932 28.0533 271.098 28.0533C271.263 28.0533 271.511 28.0533 271.842 28.0533C272.091 27.9706 272.256 27.8051 272.339 27.5568C272.504 27.3085 272.587 27.0603 272.587 26.7293H273.994C273.994 27.0603 273.828 27.3085 273.663 27.5568C273.415 27.8051 273.166 28.0533 272.835 28.2188C273.249 28.3843 273.58 28.7153 273.828 29.0464C274.325 29.7084 274.573 30.4531 274.573 31.2807C274.573 32.1082 274.325 32.9357 273.746 33.515C273.249 34.0115 272.67 34.2598 272.008 34.4253L271.098 34.508C270.849 34.508 270.601 34.5908 270.353 34.7563L268.946 35.5838C269.939 35.3356 270.932 35.17 271.925 35.0873C272.587 35.0873 273.332 35.17 273.911 35.4183C274.159 35.5011 274.408 35.6666 274.573 35.9148C274.739 36.0803 274.821 36.3286 274.821 36.6596C274.821 37.1561 274.49 37.6526 273.994 37.8181C273.249 38.1491 272.504 38.2319 271.76 38.2319C270.518 38.2319 269.277 37.9836 268.118 37.5699V37.3216C269.029 37.5699 270.022 37.7354 271.015 37.7354C271.511 37.7354 272.008 37.6526 272.422 37.4871C272.835 37.3216 273.001 37.0734 273.001 36.8251C273.001 36.5768 272.835 36.3286 272.422 36.1631C271.925 35.9976 271.429 35.9148 270.849 35.9148C269.856 35.9976 268.946 36.1631 268.118 36.4113ZM271.098 28.7981C270.518 28.7981 270.022 29.0464 269.691 29.4601C269.36 29.9566 269.277 30.6187 269.277 31.1979C269.277 31.8599 269.36 32.522 269.773 33.1012C270.104 33.515 270.601 33.7633 271.098 33.7633C271.677 33.7633 272.173 33.515 272.422 33.1012C272.753 32.522 272.918 31.9427 272.835 31.2807C272.835 30.6187 272.67 30.0394 272.339 29.4601C272.091 29.0464 271.594 28.7981 271.098 28.7981Z" fill="#005581"/>
<path d="M277.635 35.7493L275.07 28.6326C274.987 28.4671 274.987 28.3843 274.904 28.2188H276.642C276.642 28.3843 276.725 28.4671 276.725 28.6326L278.463 33.6805L280.531 28.6326C280.614 28.4671 280.614 28.3843 280.614 28.2188H281.524C281.442 28.3843 281.359 28.4671 281.276 28.6326L277.552 37.5699C277.469 37.7354 277.469 37.8181 277.387 37.9836H276.476C276.559 37.8181 276.642 37.7354 276.725 37.5699L277.635 35.7493Z" fill="#005581"/>
<path d="M9.76482 25.5706L6.70297 34.3423C6.53747 34.7561 6.45471 35.2526 6.53747 35.6664H3.47562C3.72387 35.2526 3.97213 34.7561 4.13764 34.3423L14.6472 4.63412C14.8127 4.30311 14.8127 3.88935 14.8127 3.47559H19.5296C19.5296 3.8066 19.6124 4.22036 19.7779 4.55137L30.7013 34.3423C30.9495 34.8389 31.1978 35.2526 31.5288 35.6664H25.1568C25.1568 35.1699 25.0741 34.7561 24.9086 34.3423L21.8467 25.5706H9.76482ZM10.5923 23.2535H20.9364L15.6403 8.68901L10.5923 23.2535Z" fill="#005581"/>
<path d="M24.3293 25.6533L21.1847 34.4251C21.0192 34.8389 20.9364 35.3354 21.0192 35.7491H17.9573C18.2056 35.3354 18.4539 34.8389 18.6194 34.4251L29.2117 4.63412C29.3772 4.30311 29.46 3.88935 29.46 3.47559H34.0941C34.0941 3.8066 34.1769 4.22036 34.3424 4.55137L45.183 34.3423C45.4312 34.8389 45.6795 35.2526 46.0105 35.6664H39.6385C39.6385 35.1699 39.5558 34.7561 39.3903 34.3423L36.3284 25.5706H24.3293V25.6533ZM25.1568 23.2535H35.5009L30.2875 8.68901L25.1568 23.2535Z" fill="#005581"/>
<path d="M53.4583 25.6533L50.3136 34.4251C50.1481 34.8389 50.0654 35.3354 50.1481 35.7491H47.0863C47.3345 35.3354 47.5828 34.8389 47.7483 34.4251L58.3407 4.63412C58.5062 4.30311 58.5889 3.88935 58.5889 3.47559H63.3058C63.3058 3.8066 63.3886 4.22036 63.5541 4.55137L74.3947 34.3423C74.6429 34.8389 74.8912 35.2526 75.2222 35.6664H68.8503C68.8503 35.1699 68.7675 34.7561 68.602 34.3423L65.5401 25.5706H53.4583V25.6533ZM54.2858 23.2535H64.5471L59.3337 8.68901L54.2858 23.2535Z" fill="#005581"/>
<path d="M38.8938 25.6533L35.7492 34.3423C35.5837 34.7561 35.5009 35.2526 35.5837 35.6664H32.5218C32.7701 35.2526 33.0183 34.7561 33.1838 34.3423L43.7762 4.63412C43.9417 4.30311 43.9417 3.88935 44.0244 3.47559H48.7413C48.7413 3.8066 48.8241 4.22036 48.9896 4.55137L59.8302 34.3423C60.0785 34.8389 60.3267 35.2526 60.6577 35.6664H54.2858C54.2858 35.1699 54.203 34.7561 54.0375 34.3423L50.9757 25.5706H38.8938V25.6533ZM39.7213 23.2535H50.0654L44.7692 8.68901L39.7213 23.2535Z" fill="#005581"/>
<path d="M83.4975 3.47559H89.2902C89.1247 3.9721 89.0419 4.46862 89.0419 5.04789V34.1768C89.0419 34.6734 89.1247 35.2526 89.2902 35.7491H83.4975C83.663 35.2526 83.7457 34.7561 83.7457 34.1768V5.04789C83.663 4.46862 83.663 3.9721 83.4975 3.47559Z" fill="#005581"/>
<path d="M76.7948 10.6752C75.057 11.751 74.5604 14.0681 75.719 15.8059C75.8845 16.0542 76.05 16.3024 76.2982 16.4679C77.5395 17.3782 78.6981 17.7092 78.6981 19.5298C78.6153 20.3573 77.8705 22.5916 76.7948 22.4261L76.712 22.3434C76.7948 20.8538 76.1327 19.447 74.9742 18.5367C73.8157 17.2127 73.4019 16.3852 74.0639 14.7301C73.8984 14.6474 73.5674 14.9784 73.4847 15.0611C71.4986 16.3852 70.0918 19.778 71.6641 21.8468C72.7399 23.3364 74.6432 23.9157 76.2982 23.2536C77.705 23.2536 78.4498 23.5019 79.8566 22.9226C82.5875 21.3503 82.753 18.8677 81.4289 16.2197C80.6014 14.7301 79.0291 13.9853 77.705 12.9096C77.2085 12.3303 76.9603 11.5855 77.043 10.8407L76.7948 10.6752Z" fill="#C41230" stroke="#C41230" stroke-width="0.09"/>
</svg>
