<svg  viewBox="20 16 220 50" fill="none" xmlns="http://www.w3.org/2000/svg"><defs>
<clipPath id="clip0_0_2796">
<rect width="50" height="20.8333" fill="white" transform="translate(154 31)"/>
</clipPath>
<clipPath id="clip1_0_2796">
<rect width="100" height="41.6667" fill="white" transform="translate(20 20)"/>
</clipPath>
</defs><g clip-path="url(#clip0_0_2796)">
<path fill-rule="evenodd" clip-rule="evenodd" d="M203.999 41.75C203.999 38.1945 202.277 35.3889 198.985 35.3889C195.68 35.3889 193.68 38.1945 193.68 41.7223C193.68 45.9028 196.041 48.0139 199.43 48.0139C201.082 48.0139 202.332 47.6389 203.277 47.1111V44.3334C202.332 44.8056 201.249 45.0972 199.874 45.0972C198.527 45.0972 197.332 44.625 197.18 42.9861H203.971C203.971 42.8056 203.999 42.0834 203.999 41.75ZM197.138 40.4306C197.138 38.8611 198.096 38.2084 198.971 38.2084C199.819 38.2084 200.721 38.8611 200.721 40.4306H197.138Z" fill="#635BFF"/>
<path fill-rule="evenodd" clip-rule="evenodd" d="M188.319 35.3889C186.958 35.3889 186.083 36.0278 185.597 36.4722L185.417 35.6111H182.361V51.8056L185.833 51.0695L185.847 47.1389C186.347 47.5 187.083 48.0139 188.306 48.0139C190.792 48.0139 193.056 46.0139 193.056 41.6111C193.042 37.5834 190.75 35.3889 188.319 35.3889ZM187.486 44.9583C186.667 44.9583 186.181 44.6667 185.847 44.3056L185.833 39.1528C186.194 38.75 186.694 38.4722 187.486 38.4722C188.75 38.4722 189.625 39.8889 189.625 41.7084C189.625 43.5695 188.764 44.9583 187.486 44.9583Z" fill="#635BFF"/>
<path fill-rule="evenodd" clip-rule="evenodd" d="M177.584 34.5694L181.07 33.8194V31L177.584 31.7361V34.5694Z" fill="#635BFF"/>
<path d="M181.07 35.625H177.584V47.7778H181.07V35.625Z" fill="#635BFF"/>
<path fill-rule="evenodd" clip-rule="evenodd" d="M173.847 36.6528L173.625 35.625H170.625V47.7778H174.097V39.5417C174.917 38.4722 176.306 38.6667 176.736 38.8195V35.625C176.292 35.4583 174.667 35.1528 173.847 36.6528Z" fill="#635BFF"/>
<path fill-rule="evenodd" clip-rule="evenodd" d="M166.903 32.6111L163.514 33.3333L163.5 44.4583C163.5 46.5138 165.042 48.0277 167.097 48.0277C168.236 48.0277 169.069 47.8194 169.528 47.5694V44.75C169.083 44.9305 166.889 45.5694 166.889 43.5139V38.5833H169.528V35.625H166.889L166.903 32.6111Z" fill="#635BFF"/>
<path fill-rule="evenodd" clip-rule="evenodd" d="M157.514 39.1528C157.514 38.6111 157.958 38.4028 158.694 38.4028C159.75 38.4028 161.083 38.7222 162.139 39.2917V36.0278C160.986 35.5695 159.847 35.3889 158.694 35.3889C155.875 35.3889 154 36.8611 154 39.3195C154 43.1528 159.278 42.5417 159.278 44.1945C159.278 44.8334 158.722 45.0417 157.944 45.0417C156.792 45.0417 155.319 44.5695 154.153 43.9306V47.2361C155.444 47.7917 156.75 48.0278 157.944 48.0278C160.833 48.0278 162.819 46.5972 162.819 44.1111C162.806 39.9722 157.514 40.7084 157.514 39.1528Z" fill="#635BFF"/>
</g><g clip-path="url(#clip1_0_2796)">
<path fill-rule="evenodd" clip-rule="evenodd" d="M120 41.5001C120 34.3889 116.556 28.7778 109.972 28.7778C103.361 28.7778 99.3611 34.3889 99.3611 41.4445C99.3611 49.8056 104.083 54.0278 110.861 54.0278C114.167 54.0278 116.667 53.2778 118.556 52.2222V46.6667C116.667 47.6112 114.5 48.1945 111.75 48.1945C109.056 48.1945 106.667 47.2501 106.361 43.9723H119.944C119.944 43.6112 120 42.1667 120 41.5001ZM106.278 38.8612C106.278 35.7223 108.194 34.4167 109.944 34.4167C111.639 34.4167 113.444 35.7223 113.444 38.8612H106.278Z" fill="#635BFF"/>
<path fill-rule="evenodd" clip-rule="evenodd" d="M88.6393 28.7778C85.9171 28.7778 84.1671 30.0556 83.1949 30.9445L82.8338 29.2223H76.7227V61.6111L83.6671 60.1389L83.6949 52.2778C84.6949 53 86.1671 54.0278 88.6115 54.0278C93.5838 54.0278 98.1116 50.0278 98.1116 41.2223C98.0838 33.1667 93.5004 28.7778 88.6393 28.7778ZM86.9727 47.9167C85.3338 47.9167 84.3615 47.3334 83.6949 46.6112L83.6671 36.3056C84.3893 35.5001 85.3893 34.9445 86.9727 34.9445C89.5004 34.9445 91.2504 37.7778 91.2504 41.4167C91.2504 45.1389 89.5282 47.9167 86.9727 47.9167Z" fill="#635BFF"/>
<path fill-rule="evenodd" clip-rule="evenodd" d="M67.166 27.1389L74.1382 25.6389V20L67.166 21.4722V27.1389Z" fill="#635BFF"/>
<path d="M74.1382 29.25H67.166V53.5556H74.1382V29.25Z" fill="#635BFF"/>
<path fill-rule="evenodd" clip-rule="evenodd" d="M59.6944 31.3055L59.25 29.2499H53.25V53.5555H60.1944V37.0832C61.8333 34.9443 64.6111 35.3332 65.4722 35.6388V29.2499C64.5833 28.9166 61.3333 28.3055 59.6944 31.3055Z" fill="#635BFF"/>
<path fill-rule="evenodd" clip-rule="evenodd" d="M45.8056 23.2223L39.0278 24.6667L39 46.9167C39 51.0278 42.0833 54.0556 46.1944 54.0556C48.4722 54.0556 50.1389 53.6389 51.0556 53.1389V47.5001C50.1667 47.8612 45.7778 49.1389 45.7778 45.0278V35.1667H51.0556V29.2501H45.7778L45.8056 23.2223Z" fill="#635BFF"/>
<path fill-rule="evenodd" clip-rule="evenodd" d="M27.0278 36.3056C27.0278 35.2223 27.9167 34.8056 29.3889 34.8056C31.5 34.8056 34.1667 35.4445 36.2778 36.5834V30.0556C33.9722 29.1389 31.6944 28.7778 29.3889 28.7778C23.75 28.7778 20 31.7223 20 36.6389C20 44.3056 30.5556 43.0834 30.5556 46.3889C30.5556 47.6667 29.4444 48.0834 27.8889 48.0834C25.5833 48.0834 22.6389 47.1389 20.3056 45.8612V52.4722C22.8889 53.5834 25.5 54.0556 27.8889 54.0556C33.6667 54.0556 37.6389 51.1945 37.6389 46.2223C37.6111 37.9445 27.0278 39.4167 27.0278 36.3056Z" fill="#635BFF"/>
</g></svg>