<svg width="218" height="55" viewBox="0 0 218 55" fill="none" xmlns="http://www.w3.org/2000/svg">
<path d="M46.0283 11.0084C37.3439 2.38359 23.2233 2.38878 14.5437 11.0084L7.29725 18.2052C6.64392 18.8541 6.64392 19.9176 7.29725 20.5668C7.95178 21.2168 9.02313 21.2168 9.67646 20.5672L16.9233 13.3708C24.2942 6.05079 36.2834 6.05557 43.6491 13.3708C51.0201 20.6905 51.0152 32.5965 43.6491 39.9121L36.4023 47.1089C35.7486 47.7577 35.7486 48.8217 36.4039 49.4721C37.0568 50.1205 38.1282 50.1205 38.7815 49.4721L46.0283 42.2749C54.7079 33.656 54.7128 19.6333 46.0283 11.0084ZM37.5908 19.5072C32.712 14.6898 24.7801 14.6938 19.9049 19.5092L10.1233 29.1684C9.46612 29.8185 9.46612 30.8792 10.122 31.5265C10.7788 32.1755 11.8537 32.1755 12.5105 31.5265L22.2921 21.8674C25.8534 18.3502 31.6427 18.3494 35.2032 21.8662C38.7645 25.3826 38.7628 31.0992 35.202 34.616L25.4203 44.2759C24.7636 44.9245 24.7636 45.9856 25.4203 46.6345C26.0758 47.2819 27.1504 47.2819 27.8075 46.6333L37.5892 36.9738C42.4647 32.1584 42.4696 24.3255 37.5908 19.5072ZM27.771 29.4447C27.1195 28.7896 26.0537 28.7896 25.4034 29.4431L16.8933 38.0012C16.2426 38.6555 16.2426 39.7269 16.8945 40.3823C17.5459 41.0389 18.6114 41.0389 19.262 40.3847L27.773 31.8262C28.428 31.1667 28.4228 30.1001 27.771 29.4447Z" fill="#373AAF"/>
<path d="M120.816 20.4377C126.443 20.4377 131.02 25.0594 131.02 30.7405C131.02 36.4431 126.443 41.0827 120.816 41.0827C118.224 41.0827 115.733 40.0488 113.887 38.2571V47.8363C113.887 48.6938 113.162 49.3908 112.271 49.3908C111.416 49.3908 110.694 48.6787 110.694 47.8363V21.9922C110.694 21.1493 111.416 20.4377 112.271 20.4377C113.162 20.4377 113.887 21.135 113.887 21.9922V23.2419C115.741 21.4641 118.233 20.4377 120.816 20.4377ZM73.9145 12.4897C74.7787 12.4897 75.5659 13.2294 75.5659 14.042V20.7067H77.506C78.3281 20.7067 79.0764 21.4464 79.0764 22.259C79.0764 23.0717 78.3277 23.8117 77.5056 23.8117H75.5655V37.4566C75.5655 38.0355 76.2182 38.2974 76.4161 38.2974C77.229 38.2974 78.027 39.0867 78.027 39.8906C78.027 40.6886 77.2443 41.4429 76.4161 41.4429C74.0947 41.4429 72.3437 39.7295 72.3437 37.457V23.8117H70.4843C68.9834 23.8117 68.9167 22.7817 68.9137 22.3197V22.1984C68.9167 21.7364 68.9834 20.7067 70.4843 20.7067H72.3437V14.042C72.3437 13.2294 73.0924 12.4897 73.9145 12.4897ZM101.797 20.4377C102.67 20.4377 103.354 21.1282 103.354 22.0101V39.8704C103.354 40.7226 102.641 41.4429 101.797 41.4429C100.952 41.4429 100.239 40.7226 100.239 39.8704V38.5508C98.4128 40.3841 95.9796 41.4429 93.4735 41.4429C88.0254 41.4429 83.5932 36.7316 83.5932 30.9399C83.5932 25.1489 88.0254 20.4377 93.4735 20.4377C95.9911 20.4377 98.4236 21.4827 100.239 23.2935V22.0101C100.239 21.1282 100.923 20.4377 101.797 20.4377ZM146.9 20.4377C149.188 20.4377 151.433 21.1701 153.266 22.5074L153.585 22.7497C153.882 22.9559 154.099 23.316 154.154 23.7172C154.213 24.1461 154.084 24.591 153.8 24.9379C153.228 25.581 152.307 25.688 151.642 25.2044C150.272 24.1115 148.64 23.5423 146.901 23.5423C142.683 23.5423 139.251 26.8428 139.251 30.8993C139.251 35.0474 142.611 38.2968 146.901 38.2968C148.6 38.2968 150.279 37.7244 151.63 36.6846C152.308 36.1914 153.228 36.2979 153.784 36.9233C154.077 37.2807 154.202 37.6975 154.151 38.1163C154.099 38.5488 153.865 38.9411 153.492 39.2201C151.658 40.6514 149.313 41.4429 146.901 41.4429C140.845 41.4421 136.101 36.8108 136.101 30.8993C136.101 25.0328 140.844 20.4377 146.9 20.4377ZM176.324 20.4377C177.197 20.4377 177.881 21.1282 177.881 22.0101V39.8704C177.881 40.7226 177.168 41.4429 176.324 41.4429C175.48 41.4429 174.767 40.7226 174.767 39.8704V38.5504C172.94 40.3841 170.507 41.4429 168.001 41.4429C162.552 41.4429 158.12 36.7316 158.12 30.9399C158.12 25.1489 162.552 20.4377 168.001 20.4377C170.518 20.4377 172.951 21.4831 174.767 23.2939V22.0101C174.767 21.1282 175.451 20.4377 176.324 20.4377ZM196.057 20.4377C196.946 20.4377 197.642 21.1296 197.642 22.0132C197.642 22.8674 196.916 23.5891 196.057 23.5891C194.032 23.5891 192.346 24.5436 190.752 26.5935C189.841 27.8014 189.189 29.153 188.775 30.1619L188.589 30.6355L188.441 31.0385L188.391 31.1541L188.394 39.8674C188.394 40.7361 187.701 41.4429 186.849 41.4429C185.936 41.4429 185.221 40.751 185.221 39.8674V22.0136C185.221 21.13 185.936 20.4381 186.849 20.4381C187.701 20.4381 188.394 21.1449 188.394 22.0136V24.4115C189.86 22.5806 192.364 20.4377 196.057 20.4377ZM206.031 12.4897C206.894 12.4897 207.681 13.2298 207.681 14.042V20.7066H209.621C210.444 20.7066 211.193 21.4467 211.193 22.2589C211.193 23.0715 210.444 23.8116 209.622 23.8116H207.682V37.4566C207.682 37.9873 208.23 38.2516 208.474 38.292L208.533 38.2975C209.345 38.2975 210.143 39.0863 210.143 39.8902C210.143 40.6882 209.36 41.4429 208.533 41.4429C206.211 41.4429 204.46 39.7291 204.46 37.457V23.8116H202.6C201.427 23.8116 201.13 23.1822 201.055 22.6867L201.038 22.5275L201.031 22.3845V22.1335L201.038 21.9906L201.055 21.8315C201.13 21.3362 201.427 20.7066 202.6 20.7066H204.46V14.042C204.46 13.2298 205.209 12.4897 206.031 12.4897ZM93.756 23.2762C90.0202 23.2762 86.9808 26.5957 86.9808 30.6759C86.9808 34.7345 90.0202 38.0366 93.756 38.0366C97.4917 38.0358 100.531 34.7341 100.531 30.6759C100.531 26.5957 97.4917 23.2762 93.756 23.2762ZM121.099 23.8439C117.316 23.8439 114.233 26.815 114.082 30.6078L114.082 30.9007C114.082 34.7974 117.23 37.9979 121.102 38.0366L121.359 38.0298C125.147 37.8603 128.197 34.7138 128.197 30.9007C128.197 27.0095 125.013 23.8439 121.099 23.8439ZM168.283 23.2762C164.547 23.2762 161.508 26.5957 161.508 30.6759C161.508 34.7345 164.547 38.0366 168.283 38.0366C172.019 38.0358 175.058 34.7341 175.058 30.6759C175.058 26.5957 172.019 23.2762 168.283 23.2762Z" fill="black"/>
</svg>
