<svg width="208" height="57" viewBox="0 0 208 57" fill="none" xmlns="http://www.w3.org/2000/svg">
<path d="M163.756 16.1436C163.143 16.1437 162.563 16.0239 162.017 15.7844C161.471 15.5449 160.992 15.2192 160.58 14.8073C160.168 14.3954 159.842 13.9164 159.603 13.3703C159.363 12.8243 159.244 12.2447 159.244 11.6316C159.244 11.0185 159.363 10.4342 159.603 9.8785C159.842 9.32293 160.168 8.83916 160.58 8.42719C160.992 8.0153 161.471 7.6896 162.017 7.45007C162.563 7.21061 163.143 7.09087 163.756 7.09082C164.369 7.09087 164.953 7.21056 165.509 7.45007C166.064 7.6896 166.548 8.0153 166.96 8.42719C167.372 8.83916 167.698 9.32293 167.937 9.8785C168.177 10.4342 168.297 11.0185 168.297 11.6316C168.297 12.2447 168.177 12.8243 167.937 13.3703C167.698 13.9164 167.372 14.3954 166.96 14.8073C166.548 15.2192 166.064 15.5449 165.509 15.7844C164.953 16.0239 164.369 16.1437 163.756 16.1436Z" fill="#78C257"/>
<path fill-rule="evenodd" clip-rule="evenodd" d="M73.7432 33.7865C73.7432 31.562 74.1156 29.4864 74.8604 27.5598C75.6053 25.6332 76.648 23.9549 77.9887 22.5248C79.3293 21.0948 80.9332 19.9726 82.8002 19.1582C84.6672 18.3439 86.713 17.9368 88.9375 17.9367C90.6258 17.9368 92.1651 18.185 93.5554 18.6815C94.9457 19.1781 96.2765 19.9825 97.5477 21.0948V9.38619H105.115V49.0404H97.5477V46.4782C96.2765 47.6104 94.9457 48.4197 93.5554 48.9064C92.1651 49.393 90.6258 49.6363 88.9375 49.6363C86.713 49.6363 84.6672 49.2291 82.8002 48.4148C80.9332 47.6004 79.3293 46.4782 77.9887 45.0482C76.648 43.6181 75.6053 41.9398 74.8604 40.0132C74.1156 38.0866 73.7432 36.0111 73.7432 33.7865ZM89.9207 42.5158C90.5165 42.5158 91.1422 42.4513 91.7977 42.3221C92.4531 42.1931 93.1135 41.9746 93.7789 41.6667C94.4442 41.3588 95.0947 40.9467 95.7303 40.4303C96.3659 39.9139 96.9716 39.2783 97.5477 38.5236V29.0495C96.9716 28.2947 96.3659 27.6641 95.7303 27.1576C95.0947 26.6512 94.4442 26.239 93.7789 25.9212C93.1135 25.6034 92.4531 25.38 91.7977 25.2509C91.1422 25.1218 90.5165 25.0572 89.9207 25.0572C88.7488 25.0572 87.6515 25.2757 86.6286 25.7127C85.6057 26.1496 84.7169 26.7604 83.9621 27.5449C83.2074 28.3295 82.6165 29.253 82.1895 30.3156C81.7624 31.3783 81.5489 32.5352 81.5489 33.7865C81.5489 35.0378 81.7624 36.1948 82.1895 37.2574C82.6165 38.32 83.2074 39.2436 83.9621 40.0281C84.7169 40.8126 85.6057 41.4234 86.6286 41.8603C87.6515 42.2973 88.7488 42.5158 89.9207 42.5158Z" fill="#78C257"/>
<path fill-rule="evenodd" clip-rule="evenodd" d="M6.72685 27.5597C5.98203 29.4864 5.60962 31.5619 5.60962 33.7865C5.60962 36.011 5.98203 38.0866 6.72685 40.0132C7.47166 41.9398 8.51441 43.6181 9.85509 45.0481C11.1958 46.4782 12.7996 47.6004 14.6666 48.4147C16.5336 49.2291 18.5794 49.6362 20.8039 49.6362C22.4922 49.6362 24.0265 49.3879 25.4069 48.8914C26.7873 48.3949 28.123 47.5805 29.4141 46.4484V49.0404H36.9814V18.5325H29.4141V21.1245C28.123 19.9924 26.7873 19.1781 25.4069 18.6815C24.0265 18.185 22.4922 17.9367 20.8039 17.9367C18.5794 17.9367 16.5336 18.3439 14.6666 19.1582C12.7996 19.9726 11.1958 21.0947 9.85509 22.5248C8.51441 23.9548 7.47166 25.6332 6.72685 27.5597ZM23.664 42.3221C23.0086 42.4512 22.3829 42.5158 21.7871 42.5157C20.6152 42.5158 19.5179 42.2973 18.495 41.8603C17.4721 41.4233 16.5833 40.8126 15.8286 40.028C15.0738 39.2435 14.4829 38.3199 14.0559 37.2573C13.6288 36.1947 13.4153 35.0378 13.4153 33.7865C13.4153 32.5352 13.6288 31.3782 14.0559 30.3156C14.4829 29.253 15.0738 28.3294 15.8286 27.5449C16.5833 26.7603 17.4721 26.1496 18.495 25.7126C19.5179 25.2757 20.6152 25.0572 21.7871 25.0572C22.3829 25.0572 23.0086 25.1218 23.664 25.2508C24.3195 25.3799 24.9799 25.6034 25.6453 25.9212C26.3106 26.239 26.9611 26.6511 27.5967 27.1575C28.2323 27.6641 28.838 28.2947 29.4141 29.0494V38.5235C28.838 39.2783 28.2323 39.9138 27.5967 40.4302C26.9611 40.9467 26.3106 41.3588 25.6453 41.6666C24.9799 41.9745 24.3195 42.193 23.664 42.3221Z" fill="#78C257"/>
<path d="M49.1977 31.701C49.1977 27.9938 52.3109 25.4954 55.8956 25.4679C59.4803 25.4954 62.5935 27.9938 62.5935 31.701V49.0404H70.1608V31.9095C70.1186 24.7661 63.9324 18.0329 56.0013 17.9367H55.7899C47.8587 18.0329 41.6725 24.7661 41.6303 31.9095V49.0404H49.1977V31.701Z" fill="#78C257"/>
<path fill-rule="evenodd" clip-rule="evenodd" d="M134.326 48.4445C136.273 49.239 138.348 49.6362 140.553 49.6362C142.758 49.6362 144.828 49.239 146.765 48.4445C148.701 47.65 150.399 46.5427 151.859 45.1226C153.319 43.7025 154.471 42.0242 155.315 40.0876C156.159 38.1511 156.581 36.0507 156.581 33.7865C156.581 31.5818 156.159 29.5162 155.315 27.5896C154.471 25.663 153.324 23.9846 151.874 22.5546C150.424 21.1245 148.726 19.9974 146.78 19.1731C144.833 18.3488 142.758 17.9367 140.553 17.9367C138.348 17.9367 136.268 18.3488 134.311 19.1731C132.355 19.9974 130.652 21.1245 129.202 22.5546C127.752 23.9846 126.605 25.663 125.761 27.5896C124.917 29.5162 124.495 31.5818 124.495 33.7865C124.495 36.0507 124.917 38.1511 125.761 40.0876C126.605 42.0242 127.757 43.7025 129.217 45.1226C130.677 46.5427 132.38 47.65 134.326 48.4445ZM143.756 41.8752C142.753 42.3022 141.685 42.5158 140.553 42.5157C139.401 42.5158 138.323 42.3022 137.32 41.8752C136.317 41.4482 135.443 40.8474 134.699 40.0727C133.954 39.2981 133.368 38.3795 132.941 37.3169C132.514 36.2543 132.3 35.0775 132.3 33.7865C132.3 32.5153 132.519 31.3484 132.956 30.2858C133.393 29.2232 133.984 28.3046 134.728 27.53C135.473 26.7554 136.347 26.1496 137.35 25.7126C138.353 25.2757 139.421 25.0572 140.553 25.0572C141.665 25.0572 142.718 25.2757 143.711 25.7126C144.704 26.1496 145.578 26.7554 146.333 27.53C147.087 28.3046 147.683 29.2232 148.12 30.2858C148.557 31.3484 148.776 32.5153 148.776 33.7865C148.776 35.0775 148.562 36.2543 148.135 37.3169C147.708 38.3795 147.122 39.2981 146.377 40.0727C145.633 40.8474 144.759 41.4482 143.756 41.8752Z" fill="#78C257"/>
<path d="M167.539 18.5325H159.972V49.0404H167.539V18.5325Z" fill="#78C257"/>
<path fill-rule="evenodd" clip-rule="evenodd" d="M171.018 33.7865C171.018 31.562 171.391 29.4864 172.136 27.5598C172.881 25.6332 173.923 23.9549 175.264 22.5248C176.605 21.0948 178.208 19.9726 180.075 19.1582C181.942 18.3439 183.988 17.9368 186.213 17.9367C187.901 17.9368 189.44 18.185 190.831 18.6815C192.221 19.1781 193.552 19.9825 194.823 21.0948V9.38619H202.39V49.0404H194.823V46.4782C193.552 47.6104 192.221 48.4197 190.831 48.9064C189.44 49.393 187.901 49.6363 186.213 49.6363C183.988 49.6363 181.942 49.2291 180.075 48.4148C178.208 47.6004 176.605 46.4782 175.264 45.0482C173.923 43.6181 172.881 41.9398 172.136 40.0132C171.391 38.0866 171.018 36.0111 171.018 33.7865ZM187.196 42.5158C187.792 42.5158 188.417 42.4513 189.073 42.3221C189.728 42.1931 190.389 41.9746 191.054 41.6667C191.719 41.3588 192.37 40.9467 193.006 40.4303C193.641 39.9139 194.247 39.2783 194.823 38.5236V29.0495C194.247 28.2947 193.641 27.6641 193.006 27.1576C192.37 26.6512 191.719 26.239 191.054 25.9212C190.389 25.6034 189.728 25.38 189.073 25.2509C188.417 25.1218 187.792 25.0572 187.196 25.0572C186.024 25.0572 184.927 25.2757 183.904 25.7127C182.881 26.1496 181.992 26.7604 181.237 27.5449C180.483 28.3295 179.892 29.253 179.465 30.3156C179.038 31.3783 178.824 32.5352 178.824 33.7865C178.824 35.0378 179.038 36.1948 179.465 37.2574C179.892 38.32 180.483 39.2436 181.237 40.0281C181.992 40.8126 182.881 41.4234 183.904 41.8603C184.927 42.2973 186.024 42.5158 187.196 42.5158Z" fill="#78C257"/>
<path d="M116.466 31.7009C116.466 27.9928 118.702 25.3764 123.773 25.3764V17.7434C113.067 17.7434 108.941 24.7661 108.898 31.9095V49.0403H116.466V31.7009Z" fill="#78C257"/>
</svg>
