<svg  viewBox="95 25 150 32" fill="none" xmlns="http://www.w3.org/2000/svg"><defs>
<linearGradient id="paint0_linear_0_2813" x1="44.7578" y1="38.2175" x2="63.1935" y2="45.9494" gradientUnits="userSpaceOnUse">
<stop stop-color="#249361"/>
<stop offset="1" stop-color="#3ECF8E"/>
</linearGradient>
<linearGradient id="paint1_linear_0_2813" x1="36.5844" y1="27.0267" x2="44.992" y2="42.8535" gradientUnits="userSpaceOnUse">
<stop/>
<stop offset="1" stop-opacity="0"/>
</linearGradient>
<linearGradient id="paint2_linear_0_2813" x1="120.289" y1="38.462" x2="127.206" y2="41.3631" gradientUnits="userSpaceOnUse">
<stop stop-color="#249361"/>
<stop offset="1" stop-color="#3ECF8E"/>
</linearGradient>
<linearGradient id="paint3_linear_0_2813" x1="117.222" y1="34.263" x2="120.377" y2="40.2015" gradientUnits="userSpaceOnUse">
<stop/>
<stop offset="1" stop-opacity="0"/>
</linearGradient>
<clipPath id="clip0_0_2813">
<rect width="50" height="51.8349" fill="white" transform="translate(20 13)"/>
</clipPath>
<clipPath id="clip1_0_2813">
<rect width="100" height="19.4492" fill="white" transform="translate(111 29)"/>
</clipPath>
</defs><g clip-path="url(#clip0_0_2813)">
<path d="M49.2229 63.589C47.9112 65.2409 45.2516 64.3358 45.22 62.2267L44.7578 31.3774H65.5008C69.2579 31.3774 71.3533 35.7169 69.017 38.6594L49.2229 63.589Z" fill="url(#paint0_linear_0_2813)"/>
<path d="M49.2229 63.589C47.9112 65.2409 45.2516 64.3358 45.22 62.2267L44.7578 31.3774H65.5008C69.2579 31.3774 71.3533 35.7169 69.017 38.6594L49.2229 63.589Z" fill="url(#paint1_linear_0_2813)" fill-opacity="0.2"/>
<path d="M40.788 13.9501C42.0997 12.298 44.7594 13.2032 44.791 15.3124L44.9935 46.1616H24.5101C20.7529 46.1616 18.6574 41.8221 20.9938 38.8796L40.788 13.9501Z" fill="#3ECF8E"/>
</g><g clip-path="url(#clip1_0_2813)">
<path d="M137.059 40.4907C137.162 41.4548 138.039 43.1075 140.584 43.1075C142.802 43.1075 143.868 41.6958 143.868 40.3186C143.868 39.079 143.025 38.0633 141.357 37.719L140.154 37.4608C139.689 37.3747 139.38 37.1165 139.38 36.7033C139.38 36.2212 139.861 35.8597 140.463 35.8597C141.426 35.8597 141.787 36.4967 141.856 36.996L143.765 36.5656C143.662 35.6531 142.853 34.121 140.446 34.121C138.623 34.121 137.282 35.3777 137.282 36.8926C137.282 38.0805 138.021 39.0618 139.655 39.4233L140.773 39.6816C141.426 39.8193 141.684 40.1292 141.684 40.5079C141.684 40.9555 141.323 41.3515 140.566 41.3515C139.569 41.3515 139.07 40.7317 139.019 40.0603L137.059 40.4907Z" fill="#1C1C1C"/>
<path d="M151.176 42.8492H153.359C153.325 42.5565 153.273 41.9712 153.273 41.317V34.3792H150.986V39.3028C150.986 40.2841 150.402 40.9727 149.387 40.9727C148.321 40.9727 147.84 40.2152 147.84 39.2684V34.3792H145.553V39.7332C145.553 41.5752 146.722 43.073 148.768 43.073C149.662 43.073 150.643 42.7287 151.107 41.9368C151.107 42.2811 151.141 42.677 151.176 42.8492Z" fill="#1C1C1C"/>
<path d="M158.002 46.1202V42.0229C158.414 42.591 159.274 43.0558 160.443 43.0558C162.833 43.0558 164.432 41.1621 164.432 38.597C164.432 36.0835 163.005 34.1898 160.529 34.1898C159.257 34.1898 158.311 34.7579 157.933 35.4121V34.3792H155.715V46.1202H158.002ZM162.18 38.6142C162.18 40.1292 161.252 41.0072 160.082 41.0072C158.913 41.0072 157.967 40.112 157.967 38.6142C157.967 37.1165 158.913 36.2385 160.082 36.2385C161.252 36.2385 162.18 37.1165 162.18 38.6142Z" fill="#1C1C1C"/>
<path d="M165.727 40.5423C165.727 41.868 166.827 43.0903 168.633 43.0903C169.887 43.0903 170.696 42.5049 171.126 41.8335C171.126 42.1606 171.16 42.6254 171.212 42.8492H173.309C173.258 42.5566 173.206 41.954 173.206 41.5064V37.3402C173.206 35.6359 172.209 34.121 169.527 34.121C167.257 34.121 166.036 35.5843 165.899 36.9099L167.927 37.3402C167.996 36.6 168.547 35.963 169.544 35.963C170.507 35.963 170.971 36.4623 170.971 37.0648C170.971 37.3575 170.816 37.5985 170.335 37.6674L168.254 37.9772C166.844 38.1838 165.727 39.0274 165.727 40.5423ZM169.114 41.3859C168.375 41.3859 168.013 40.9039 168.013 40.4046C168.013 39.7504 168.478 39.4233 169.062 39.3373L170.971 39.0446V39.4233C170.971 40.9211 170.077 41.3859 169.114 41.3859Z" fill="#1C1C1C"/>
<path d="M177.73 42.8492V41.8163C178.177 42.5393 179.071 43.0558 180.24 43.0558C182.648 43.0558 184.23 41.1448 184.23 38.5797C184.23 36.0663 182.802 34.1553 180.326 34.1553C179.071 34.1553 178.143 34.7062 177.764 35.3088V30.3851H175.512V42.8492H177.73ZM181.943 38.5969C181.943 40.1463 181.014 41.0071 179.845 41.0071C178.693 41.0071 177.73 40.1292 177.73 38.5969C177.73 37.0475 178.693 36.204 179.845 36.204C181.014 36.204 181.943 37.0475 181.943 38.5969Z" fill="#1C1C1C"/>
<path d="M185.525 40.5423C185.525 41.868 186.626 43.0903 188.431 43.0903C189.686 43.0903 190.495 42.5049 190.924 41.8335C190.924 42.1606 190.959 42.6254 191.01 42.8492H193.108C193.057 42.5566 193.005 41.954 193.005 41.5064V37.3402C193.005 35.6359 192.008 34.121 189.325 34.121C187.056 34.121 185.835 35.5843 185.697 36.9099L187.726 37.3402C187.795 36.6 188.345 35.963 189.342 35.963C190.306 35.963 190.77 36.4623 190.77 37.0648C190.77 37.3575 190.615 37.5985 190.133 37.6674L188.053 37.9772C186.643 38.1838 185.525 39.0274 185.525 40.5423ZM188.913 41.3859C188.173 41.3859 187.812 40.9039 187.812 40.4046C187.812 39.7504 188.276 39.4233 188.861 39.3373L190.77 39.0446V39.4233C190.77 40.9211 189.876 41.3859 188.913 41.3859Z" fill="#1C1C1C"/>
<path d="M194.588 40.4907C194.691 41.4548 195.568 43.1075 198.113 43.1075C200.331 43.1075 201.397 41.6958 201.397 40.3186C201.397 39.079 200.555 38.0633 198.887 37.719L197.683 37.4608C197.219 37.3747 196.909 37.1165 196.909 36.7033C196.909 36.2212 197.39 35.8597 197.992 35.8597C198.956 35.8597 199.316 36.4967 199.385 36.996L201.294 36.5656C201.191 35.6531 200.383 34.121 197.975 34.121C196.152 34.121 194.811 35.3777 194.811 36.8926C194.811 38.0805 195.551 39.0618 197.184 39.4233L198.302 39.6816C198.956 39.8193 199.213 40.1292 199.213 40.5079C199.213 40.9555 198.852 41.3515 198.096 41.3515C197.098 41.3515 196.6 40.7317 196.548 40.0603L194.588 40.4907Z" fill="#1C1C1C"/>
<path d="M204.871 37.6501C204.922 36.8754 205.576 35.9802 206.762 35.9802C208.069 35.9802 208.619 36.8066 208.654 37.6501H204.871ZM208.877 39.8537C208.602 40.6112 208.017 41.1449 206.951 41.1449C205.816 41.1449 204.871 40.3358 204.819 39.2168H210.872C210.872 39.1823 210.906 38.838 210.906 38.5109C210.906 35.7909 209.341 34.121 206.728 34.121C204.561 34.121 202.566 35.8769 202.566 38.5798C202.566 41.4375 204.613 43.1075 206.934 43.1075C209.015 43.1075 210.356 41.8852 210.786 40.4218L208.877 39.8537Z" fill="#1C1C1C"/>
<path d="M121.964 47.9818C121.472 48.6016 120.474 48.262 120.462 47.4706L120.289 35.8955H128.072C129.482 35.8955 130.268 37.5238 129.391 38.6278L121.964 47.9818Z" fill="url(#paint2_linear_0_2813)"/>
<path d="M121.964 47.9818C121.472 48.6016 120.474 48.262 120.462 47.4706L120.289 35.8955H128.072C129.482 35.8955 130.268 37.5238 129.391 38.6278L121.964 47.9818Z" fill="url(#paint3_linear_0_2813)" fill-opacity="0.2"/>
<path d="M118.799 29.3565C119.292 28.7366 120.29 29.0763 120.301 29.8677L120.377 41.4427H112.692C111.282 41.4427 110.496 39.8145 111.372 38.7104L118.799 29.3565Z" fill="#3ECF8E"/>
</g></svg>