<svg  viewBox="20 16 220 50" fill="none" xmlns="http://www.w3.org/2000/svg"><defs>
<linearGradient id="paint0_linear_0_203" x1="41.7313" y1="42.9039" x2="29.1328" y2="64.7256" gradientUnits="userSpaceOnUse">
<stop stop-color="#0052CC"/>
<stop offset="0.923" stop-color="#2684FF"/>
</linearGradient>
<linearGradient id="paint1_linear_0_203" x1="100.276" y1="41.576" x2="97.109" y2="47.0622" gradientUnits="userSpaceOnUse">
<stop stop-color="#0052CC"/>
<stop offset="0.923" stop-color="#2684FF"/>
</linearGradient>
<clipPath id="clip0_0_203">
<rect width="50" height="50" fill="white" transform="translate(20 16)"/>
</clipPath>
<clipPath id="clip1_0_203">
<rect width="100" height="12.5704" fill="white" transform="translate(95 35)"/>
</clipPath>
</defs><g clip-path="url(#clip0_0_203)">
<path d="M35.1888 39.2203C35.0441 39.031 34.853 38.8822 34.634 38.7883C34.4151 38.6945 34.1755 38.6586 33.9386 38.6844C33.7018 38.7101 33.4756 38.7965 33.2819 38.9353C33.0881 39.074 32.9335 39.2603 32.8328 39.4763L20.8948 63.345C20.786 63.5625 20.7347 63.8042 20.7456 64.0471C20.7565 64.2901 20.8294 64.5262 20.9572 64.7331C21.0851 64.94 21.2637 65.1108 21.4761 65.2292C21.6885 65.3477 21.9277 65.4099 22.1709 65.4099H38.794C39.0603 65.4161 39.3225 65.3448 39.5491 65.2048C39.7756 65.0648 39.9566 64.862 40.0701 64.6211C43.656 57.2114 41.4828 45.945 35.1888 39.2203Z" fill="url(#paint0_linear_0_203)"/>
<path d="M43.9447 17.5103C40.97 22.0873 39.2365 27.3591 38.9143 32.8083C38.592 38.2574 39.6921 43.6968 42.1066 48.5924L50.1208 64.6208C50.2392 64.8578 50.4214 65.0571 50.6467 65.1965C50.8722 65.3358 51.1319 65.4096 51.3969 65.4096H68.017C68.2603 65.4096 68.4994 65.3474 68.7118 65.2289C68.9242 65.1105 69.1028 64.9397 69.2307 64.7329C69.3585 64.5259 69.4314 64.2898 69.4423 64.0469C69.4532 63.8039 69.4019 63.5622 69.2932 63.3447C69.2932 63.3447 46.9335 18.62 46.3715 17.5014C46.2604 17.2737 46.0873 17.0819 45.8723 16.9481C45.6571 16.8142 45.4086 16.7437 45.1553 16.7446C44.9019 16.7456 44.6539 16.8179 44.4398 16.9533C44.2257 17.0888 44.0541 17.2818 43.9447 17.5103Z" fill="#2684FF"/>
</g><g clip-path="url(#clip1_0_203)">
<path d="M98.6315 40.65C98.5951 40.6024 98.5471 40.565 98.492 40.5414C98.437 40.5177 98.3768 40.5088 98.3172 40.5152C98.2576 40.5217 98.2008 40.5434 98.1521 40.5783C98.1034 40.6132 98.0645 40.66 98.0392 40.7143L95.0379 46.7151C95.0105 46.7698 94.9976 46.8305 95.0004 46.8916C95.0031 46.9527 95.0214 47.0121 95.0536 47.0641C95.0857 47.1161 95.1306 47.159 95.184 47.1888C95.2374 47.2186 95.2975 47.2342 95.3587 47.2342H99.5379C99.6048 47.2358 99.6708 47.2179 99.7277 47.1826C99.7847 47.1474 99.8302 47.0965 99.8587 47.0359C100.76 45.173 100.214 42.3406 98.6315 40.65Z" fill="url(#paint1_linear_0_203)"/>
<path d="M100.833 35.192C100.085 36.3427 99.6495 37.6681 99.5685 39.038C99.4875 40.408 99.764 41.7755 100.371 43.0063L102.386 47.0359C102.416 47.0955 102.461 47.1456 102.518 47.1806C102.575 47.2157 102.64 47.2342 102.707 47.2342H106.885C106.946 47.2342 107.006 47.2186 107.06 47.1888C107.113 47.159 107.158 47.1161 107.19 47.0641C107.222 47.0121 107.241 46.9527 107.243 46.8916C107.246 46.8306 107.233 46.7698 107.206 46.7151C107.206 46.7151 101.585 35.471 101.443 35.1898C101.415 35.1325 101.372 35.0843 101.318 35.0507C101.264 35.017 101.201 34.9993 101.138 34.9995C101.074 34.9997 101.011 35.0179 100.958 35.052C100.904 35.086 100.861 35.1346 100.833 35.192Z" fill="#2684FF"/>
<path d="M149.843 40.0034C149.843 41.4893 150.532 42.6691 153.228 43.1899C154.837 43.5276 155.174 43.7873 155.174 44.3235C155.174 44.8443 154.836 45.1815 153.703 45.1815C152.334 45.1568 150.992 44.7937 149.797 44.1244V46.5447C150.609 46.943 151.681 47.3873 153.673 47.3873C156.491 47.3873 157.61 46.1302 157.61 44.2621L149.843 40.0034ZM157.61 44.2621C157.61 42.5004 156.675 41.673 154.04 41.1064C152.585 40.7847 152.233 40.4631 152.233 40.0034C152.233 39.4218 152.754 39.1762 153.719 39.1762C154.883 39.1762 156.032 39.5286 157.12 40.0188V37.7055C156.077 37.2308 154.941 36.9953 153.795 37.0162C151.191 37.0162 149.843 38.1498 149.843 40.0034" fill="#0052CC"/>
<path d="M186.057 37.1694V47.2343H188.201V39.5593L189.105 41.5966L192.138 47.2343H194.835V37.1694H192.69V43.6649L191.878 41.7805L189.442 37.1694H186.057Z" fill="#0052CC"/>
<path d="M172.416 37.1692H170.072V47.2341H172.416V37.1692Z" fill="#0052CC"/>
<path d="M167.368 44.2621C167.368 42.5004 166.433 41.673 163.798 41.1064C162.343 40.7847 161.991 40.4631 161.991 40.0034C161.991 39.4218 162.511 39.1762 163.476 39.1762C164.641 39.1762 165.79 39.5286 166.877 40.0188V37.7055C165.835 37.2308 164.699 36.9953 163.553 37.0162C160.949 37.0162 159.601 38.1498 159.601 40.0034C159.601 41.4893 160.29 42.6691 162.986 43.1899C164.595 43.5276 164.932 43.7873 164.932 44.3235C164.932 44.8443 164.594 45.1815 163.461 45.1815C162.092 45.1568 160.75 44.7937 159.555 44.1244V46.5447C160.367 46.943 161.439 47.3873 163.43 47.3873C166.249 47.3873 167.368 46.1302 167.368 44.2621Z" fill="#0052CC"/>
<path d="M131.635 37.1694V47.2343H136.452L137.211 45.0589H133.994V37.1694H131.635Z" fill="#0052CC"/>
<path d="M122.117 37.1692V39.3444H124.722V47.2341H127.081V39.3444H129.869V37.1692H122.117Z" fill="#0052CC"/>
<path d="M118.697 37.1694H115.605L112.096 47.2343H114.776L115.274 45.5392C116.499 45.899 117.802 45.899 119.027 45.5392L119.525 47.2343H122.206L118.697 37.1694ZM117.151 43.7242C116.715 43.7242 116.28 43.6617 115.861 43.5387L117.151 39.1464L118.441 43.5402C118.022 43.6627 117.588 43.7247 117.151 43.7242Z" fill="#0052CC"/>
<path d="M144.758 37.1694H141.666L138.156 47.2343H140.837L141.335 45.5392C142.56 45.899 143.863 45.899 145.089 45.5392L145.586 47.2343H148.267L144.758 37.1694ZM143.212 43.7242C142.775 43.7242 142.341 43.6617 141.922 43.5387L143.212 39.1464L144.502 43.5402C144.083 43.6627 143.648 43.7247 143.212 43.7242Z" fill="#0052CC"/>
<path d="M180.863 37.1694H177.771L174.262 47.2343H176.943L177.44 45.5392C178.665 45.899 179.969 45.899 181.194 45.5392L181.692 47.2343H184.373L180.863 37.1694ZM179.316 43.7242C178.88 43.7242 178.445 43.6617 178.026 43.5387L179.316 39.1464L180.606 43.5402C180.187 43.6627 179.753 43.7247 179.316 43.7242Z" fill="#0052CC"/>
</g></svg>