<svg width="48" height="48" viewBox="0 0 48 48" fill="none" xmlns="http://www.w3.org/2000/svg">
<path fill-rule="evenodd" clip-rule="evenodd" d="M16.6778 21.1261C16.4603 20.8413 16.1098 20.6909 15.7537 20.7296C15.3976 20.7684 15.0875 20.9905 14.9362 21.3155L6.11134 38.9722C5.94788 39.2994 5.96535 39.6879 6.15752 39.9991C6.34968 40.3103 6.68914 40.4997 7.05467 40.4997H19.3429C19.745 40.5091 20.1148 40.2803 20.2862 39.9162C22.937 34.4349 21.3305 26.1006 16.6778 21.1261Z" fill="url(#paint0_linear_0_5767)"/>
<path fill-rule="evenodd" clip-rule="evenodd" d="M23.1504 5.06643C18.677 11.9545 18.1607 20.6916 21.7917 28.0593L27.716 39.9162C27.8946 40.2738 28.2598 40.4997 28.6593 40.4997H40.9453C41.3108 40.4997 41.6503 40.3103 41.8425 39.9991C42.0346 39.6879 42.0521 39.2994 41.8886 38.9722C41.8886 38.9722 25.3598 5.88733 24.9444 5.05981C24.7768 4.71609 24.4275 4.4986 24.0453 4.50001C23.6632 4.50142 23.3155 4.72148 23.1504 5.06643Z" fill="#2684FF"/>
<defs>
<linearGradient id="paint0_linear_0_5767" x1="21.5142" y1="23.851" x2="9.13619" y2="37.1383" gradientUnits="userSpaceOnUse">
<stop stop-color="#0052CC"/>
<stop offset="0.923" stop-color="#2684FF"/>
</linearGradient>
</defs>
</svg>
