<svg width="255" height="47" viewBox="0 0 255 47" fill="none" xmlns="http://www.w3.org/2000/svg">
<path d="M45.0967 36.1603C47.5051 38.071 61.0022 37.808 70.5921 37.4339C73.1901 37.3329 70.7708 36.8629 70.903 35.4128C71.0345 33.9634 75.4444 23.4944 75.9719 22.8354C76.4993 22.1765 82.958 22.5717 83.4854 22.5717C84.0129 22.5717 78.3098 33.7701 78.9469 35.4462C80.1253 38.544 83.1367 38.0398 85.1688 36.8956C86.4968 36.1494 91.6579 22.5717 92.1854 22.4402C92.7128 22.3087 96.11 22.2092 96.2749 22.6051C96.4841 23.1064 89.2496 36.7546 90.6038 37.4935C91.1995 37.8189 107.659 37.819 107.999 37.5988C108.877 37.0321 107.513 29.4365 113.309 25.105C118.691 21.0838 130.705 22.757 131.141 22.8819C132.063 23.1456 130.294 25.5388 129.372 25.934C128.449 26.3299 121.88 25.4276 119.761 26.6365C115.506 29.0631 114.273 36.9682 116.487 37.5334C118.123 37.9504 139.115 37.7528 139.291 37.5334C139.917 36.751 143.476 24.2528 145.805 23.3738C148.37 22.4061 158.591 21.7922 159.426 23.5932C160.265 25.4036 158.497 31.0406 156.263 32.6339C155.076 33.4795 146.805 32.7305 146.376 35.7535C146.168 37.2254 147.156 37.3576 149.298 37.6206C150.658 37.7884 170.484 37.7855 170.847 37.5334C172.656 36.2722 175.044 25.02 177.624 23.4174C179.022 22.5499 193.069 21.3214 195.032 24.5493C197.178 28.075 191.012 35.9162 192.837 37.3881C193.453 37.8843 209.835 37.7855 210.077 37.5334C210.834 36.7415 214.15 24.3182 216.423 23.3956C218.471 22.5652 228.65 21.814 229.869 23.2641C231.227 24.8784 229.037 31.2964 226.936 32.9855C225.774 33.919 217.478 32.9898 217.05 36.1494C216.855 37.5879 219.162 37.7194 221.073 37.7528C222.27 37.7732 232.904 37.7419 249.546 37.7419C249.546 37.7419 249.326 40.3893 245.657 42.0254H192.468C189.561 42.0254 187.247 39.0598 188.646 35.7535C190.022 32.5002 191.964 28.0343 191.158 26.8007C190.411 25.6586 183.962 26.2631 183.468 26.7898C181.986 28.3722 179.161 42.0545 176.366 42.0421L42.6222 42.0283L42.6549 42.0167C38.9643 42.0538 32.8739 40.5477 34.8144 34.8199C36.6162 29.5033 37.8469 26.4491 37.8469 26.4491C24.1377 26.8886 13.3722 26.8886 11.0547 25.9885C7.79775 24.7222 6.38614 20.0783 7.62774 20.7816C8.70951 21.394 11.0649 22.7475 12.6363 22.9299C14.9103 23.1936 36.0284 21.0831 39.0936 20.8855C40.7595 20.778 41.1089 18.7713 41.1089 18.7713C28.4982 19.2545 16.6721 19.3257 14.68 18.3645C12.4939 17.3103 10.8346 15.1243 10.8244 13.6633C10.8149 12.4696 12.7387 15.7549 16.064 15.8994C21.6334 16.1414 38.6213 14.097 42.004 13.8551C43.7636 13.7294 43.9539 11.7954 43.9539 11.7954C29.4978 12.3672 19.3892 12.1725 18.0299 11.5324C15.745 10.4557 14.1634 7.92892 14.0864 6.31462C14.0283 5.10062 15.506 8.84577 19.3594 9.0492C23.8412 9.28677 49.2669 6.18312 50.5891 6.10538C54.3241 5.88598 53.1813 9.66455 52.215 11.8615C50.3007 16.2118 41.5884 33.3771 45.0967 36.1603Z" fill="#C1DA94"/>
<path d="M44.8123 36.519C46.9614 38.224 56.0481 38.4595 70.61 37.8913C71.7461 37.8472 72.1244 37.7677 72.2415 37.3011C72.3065 37.0418 72.2174 36.8666 72.0272 36.6402C71.981 36.5852 71.7567 36.3414 71.6985 36.2727C71.4445 35.9731 71.334 35.728 71.3589 35.4544C71.4675 34.2578 75.7502 23.845 76.3293 23.1215C76.4165 23.0126 77.8515 22.8966 79.7245 22.9142C80.4172 22.9207 81.149 22.9403 81.9544 22.9704C82.1981 22.9795 83.3879 23.0295 83.4855 23.0295C83.2624 23.0295 83.1093 22.8743 83.0707 22.7051C83.0601 22.6584 83.0606 22.6386 83.0622 22.6279C83.0551 22.6749 83.0289 22.7704 82.9846 22.9027C82.8931 23.1757 82.7339 23.5808 82.4988 24.1431C82.2431 24.7546 81.0314 27.5502 80.7876 28.1224C80.6669 28.4057 80.5528 28.6756 80.4434 28.9366C78.874 32.6829 78.1975 34.7626 78.5192 35.6089C79.6595 38.6066 82.5397 38.9014 85.3934 37.2945C86.0586 36.9208 87.1025 34.8528 88.9629 30.6148C89.0683 30.3747 89.1768 30.1263 89.2901 29.8661C89.4684 29.4566 91.054 25.778 91.431 24.927C91.7515 24.2035 91.9971 23.671 92.1825 23.3009C92.2798 23.1069 92.359 22.9606 92.4182 22.8655C92.4425 22.8264 92.4612 22.7998 92.4705 22.7887C92.439 22.8261 92.3994 22.8587 92.2962 22.8844C92.5203 22.8285 93.4967 22.7751 94.3622 22.7826C94.8492 22.7869 95.2741 22.8089 95.5831 22.848C95.7388 22.8677 95.8592 22.8911 95.9348 22.9152C95.9288 22.9133 95.9002 22.8956 95.8525 22.7812C95.816 22.6938 95.8162 22.6485 95.8235 22.6054C95.8213 22.618 95.8142 22.6458 95.8021 22.6848C95.7726 22.78 95.721 22.9187 95.6481 23.0979C95.5101 23.4371 95.3011 23.9098 95.0017 24.5632C94.7842 25.0379 93.3746 28.06 92.941 29.0072C92.8046 29.305 92.6743 29.5915 92.5488 29.8695C90.1961 35.0811 89.4063 37.3616 90.3847 37.8953C91.0747 38.2723 107.721 38.3241 108.248 37.9831C108.617 37.7449 108.708 37.3469 108.828 36.1812C109.174 32.8194 109.329 31.8848 110.079 30.0561C110.831 28.2204 111.965 26.6808 113.583 25.4718C115.85 23.7779 119.559 22.9798 124.088 22.8964C125.722 22.8663 127.361 22.9331 128.888 23.0671C129.908 23.1567 130.884 23.2844 131.015 23.322C130.971 23.3096 130.948 23.2535 130.934 23.3297C130.898 23.517 130.767 23.7974 130.565 24.1093C130.151 24.7461 129.538 25.3648 129.192 25.5133C128.996 25.5972 128.368 25.6031 126.431 25.5524C125.482 25.5275 124.912 25.5173 124.291 25.5189C122 25.5246 120.451 25.7161 119.535 26.2391C115.372 28.6125 113.314 37.196 116.374 37.977C117.17 38.1799 121.93 38.2592 128.439 38.2299C135.795 38.1967 139.407 38.12 139.648 37.8197C139.903 37.5008 142.143 31.1672 142.353 30.6105C142.923 29.1049 143.446 27.837 143.94 26.7894C144.765 25.0408 145.489 23.9825 145.967 23.8021C148.935 22.682 158.426 22.525 159.011 23.7857C159.788 25.4629 157.979 30.8483 155.997 32.2613C155.793 32.407 155.111 32.5198 153.679 32.6504C153.624 32.6554 152.794 32.7294 152.54 32.7532C152.082 32.796 151.697 32.8357 151.328 32.8796C147.992 33.2762 146.161 34.0106 145.923 35.6893C145.796 36.5889 146.059 37.1958 146.748 37.548C147.235 37.7973 147.734 37.8898 149.243 38.075C150.904 38.28 170.637 38.237 171.108 37.9093C171.981 37.3004 172.201 36.7648 174.436 30.594C175.934 26.4604 176.921 24.3932 177.866 23.8063C178.52 23.4001 182.52 22.9164 186.118 22.9053C190.622 22.8915 193.888 23.5493 194.641 24.7872C195.306 25.88 195.115 27.5704 194.208 30.0734C194.031 30.5612 193.835 31.0633 193.569 31.7185C193.483 31.9306 193.179 32.6728 193.189 32.6489C193.039 33.0157 192.93 33.2868 192.828 33.546C192.568 34.2091 192.384 34.7304 192.255 35.1914C191.909 36.4189 191.942 37.2539 192.55 37.7445C193.267 38.3215 209.934 38.3445 210.408 37.8504C210.651 37.5963 210.928 36.9046 211.508 35.2497C211.665 34.804 212.314 32.9229 212.265 33.0655C212.599 32.1008 212.865 31.3471 213.132 30.614C213.702 29.0508 214.211 27.7682 214.692 26.7134C215.463 25.0256 216.141 24.0042 216.596 23.8198C218.98 22.8528 228.622 22.4925 229.519 23.5587C230.622 24.8706 228.677 30.9985 226.649 32.6288C226.446 32.7922 225.73 32.9096 224.17 33.0411C224.049 33.0513 223.915 33.0624 223.653 33.0842C223.436 33.1022 223.275 33.1159 223.114 33.1299C222.696 33.1665 222.341 33.2009 222.001 33.2388C218.658 33.6116 216.832 34.3499 216.596 36.0881C216.469 37.0283 217.076 37.6249 218.151 37.9195C218.873 38.1175 219.721 38.1871 221.065 38.2105C221.677 38.2209 220.857 38.2214 233.463 38.2086C239.221 38.2028 244.142 38.1997 249.546 38.1997L249.09 37.7041C249.079 37.8336 249.022 38.092 248.882 38.4365C248.643 39.0277 248.249 39.6228 247.661 40.183C247.091 40.7266 246.367 41.2076 245.47 41.6075L245.657 41.5678H192.468C189.716 41.5678 187.863 38.7781 189.068 35.9319C189.103 35.8486 189.355 35.2537 189.431 35.0747C189.574 34.7351 189.693 34.4526 189.807 34.1789C189.97 33.7855 190.118 33.4255 190.256 33.081C191.666 29.5665 192.18 27.5274 191.541 26.5504C190.72 25.2954 183.977 25.5785 183.135 26.4768C182.753 26.8835 182.355 27.7935 181.789 29.4166C181.492 30.2699 180.358 33.737 180.204 34.1959C178.632 38.8728 177.417 41.3796 176.457 41.5755C176.426 41.5817 176.397 41.5847 176.368 41.5845L42.6224 41.5707L42.6223 42.0284L42.7757 42.4597L42.8083 42.448L45.3857 41.5317L42.6504 41.5591C40.5416 41.5803 38.3368 41.1111 36.8656 40.192C35.068 39.0691 34.4316 37.3766 35.248 34.9669C36.0348 32.6454 36.7707 30.5818 37.4352 28.8009C37.6676 28.178 37.8745 27.6351 38.0532 27.1752C38.1601 26.9 38.2338 26.7139 38.2715 26.6202L38.5338 25.9692L37.8323 25.9917C22.7549 26.4751 13.2722 26.3588 11.2205 25.5619C9.89595 25.0469 8.74876 23.8364 8.06517 22.4447C7.79899 21.9028 7.64614 21.4019 7.63906 21.1094C7.63771 21.0539 7.63805 21.0527 7.5797 21.1018C7.4812 21.1847 7.39975 21.1785 7.40226 21.1799C8.24339 21.6561 8.57765 21.8408 9.13126 22.1238C9.58687 22.3567 10.0199 22.5621 10.4332 22.7383C11.2591 23.0904 11.9782 23.3144 12.5836 23.3846C13.644 23.5076 18.1981 23.1865 25.991 22.5032C26.4874 22.4597 26.9979 22.4146 27.5264 22.3677C28.6927 22.264 29.8787 22.1574 31.3753 22.0218C31.375 22.0218 34.1071 21.774 34.7974 21.7117C37.2342 21.4918 38.5164 21.3814 39.1231 21.3423C40.0023 21.2856 40.6539 20.8042 41.0943 20.065C41.3644 19.6117 41.5051 19.165 41.5599 18.8499L41.657 18.2924L41.0915 18.3141C26.7902 18.8619 16.5785 18.7723 14.879 17.9523C12.9104 17.0031 11.2914 14.9811 11.2822 13.6601C11.2825 13.6985 11.2151 13.8414 10.9787 13.8595C10.9043 13.8651 10.9538 13.89 11.0356 13.9491C11.048 13.9581 12.0257 14.7409 12.4433 15.0299C13.5947 15.8267 14.7524 16.3006 16.0442 16.3568C18.3288 16.456 22.5422 16.1944 28.4852 15.6468C29.531 15.5504 30.6236 15.4458 31.7873 15.3311C32.4095 15.2698 41.0774 14.3803 42.0367 14.3117C42.9489 14.2465 43.6018 13.7751 44.0096 13.0538C44.2654 12.6014 44.3784 12.1564 44.4095 11.8403L44.461 11.3174L43.9359 11.3381C30.2595 11.8791 19.5516 11.743 18.225 11.1184C16.2553 10.1902 14.6203 7.8984 14.5437 6.29289C14.5418 6.25422 14.5428 6.2383 14.5348 6.26357C14.4855 6.41885 14.3162 6.55457 14.1041 6.52768C14.0213 6.51718 13.9967 6.50271 13.9834 6.49155C14.0118 6.51535 14.0552 6.55786 14.1169 6.62268C14.1352 6.64196 14.4932 7.03 14.6333 7.17514C14.8949 7.44608 15.15 7.68721 15.4269 7.91742C16.5505 8.85151 17.8234 9.42652 19.3354 9.50634C21.2093 9.60567 26.5865 9.16227 34.7129 8.30901C35.5362 8.22257 36.3835 8.13234 37.2568 8.03818C40.6416 7.67322 50.3183 6.57988 50.6161 6.56237C52.0646 6.47729 52.6522 6.99891 52.708 8.10055C52.7555 9.03787 52.4028 10.2979 51.7962 11.6773C51.8018 11.6646 49.0441 17.6143 48.0053 20.0145C47.4733 21.2437 46.9869 22.4134 46.5451 23.5335C43.7826 30.5361 42.9242 35.0211 44.8123 36.519L44.8123 36.519ZM45.3813 35.8018C44.0023 34.7078 44.8328 30.3684 47.3966 23.8694C47.8345 22.7592 48.3171 21.5986 48.8454 20.3781C49.8784 17.9915 52.6344 12.0452 52.6341 12.0459C53.2939 10.5458 53.6788 9.17039 53.6223 8.05423C53.5406 6.44281 52.5165 5.53376 50.5624 5.64855C50.2358 5.66775 40.4977 6.76802 37.1587 7.12805C36.2862 7.22212 35.4397 7.31227 34.6174 7.39862C26.5648 8.24411 21.1852 8.68771 19.3837 8.59222C18.0872 8.52377 16.9944 8.0301 16.0121 7.2135C15.7633 7.00663 15.5318 6.78781 15.2918 6.5393C15.1607 6.40349 14.8059 6.01883 14.7801 5.99171C14.5351 5.73421 14.4304 5.64632 14.2193 5.61955C13.713 5.55535 13.6078 5.88632 13.6293 6.33658C13.7226 8.29164 15.5679 10.8783 17.8349 11.9465C19.3717 12.6702 30.0052 12.8052 43.9721 12.2528L43.4985 11.7506C43.4943 11.7936 43.4793 11.8842 43.4485 12.0056C43.3964 12.2108 43.3188 12.4156 43.2127 12.6033C42.9469 13.0736 42.5543 13.357 41.9715 13.3986C40.9956 13.4684 32.2995 14.3608 31.6975 14.4201C30.5356 14.5347 29.4449 14.6391 28.4012 14.7353C22.5023 15.2788 18.3115 15.539 16.0839 15.4423C14.9887 15.3946 13.9856 14.984 12.9642 14.2772C12.5795 14.011 11.6116 13.236 11.5717 13.2071C11.3092 13.0175 11.1342 12.9295 10.909 12.9467C10.5084 12.9773 10.3638 13.2842 10.3668 13.667C10.3787 15.3823 12.226 17.6893 14.4813 18.7768C16.3965 19.7009 26.4905 19.7895 41.1265 19.2288L40.6581 18.6929C40.6498 18.7403 40.6272 18.8367 40.5868 18.965C40.5187 19.1816 40.4263 19.3978 40.308 19.5964C40.0097 20.0971 39.6081 20.3937 39.0642 20.4288C38.446 20.4687 37.1626 20.5791 34.7151 20.8C34.0246 20.8623 31.2923 21.1102 31.2928 21.1101C29.7966 21.2456 28.611 21.3523 27.4453 21.4559C26.9172 21.5028 26.4071 21.5478 25.911 21.5913C18.2806 22.2603 13.6505 22.5868 12.6891 22.4753C12.1871 22.417 11.5443 22.2169 10.7921 21.8962C10.4 21.7291 9.98578 21.5326 9.54792 21.3088C9.00988 21.0337 8.68289 20.853 7.85334 20.3834C7.20656 20.017 6.70711 20.4373 6.72392 21.1316C6.73472 21.5774 6.92403 22.1978 7.24354 22.8483C8.02044 24.43 9.32584 25.8074 10.8889 26.4152C13.1214 27.2823 22.5421 27.3978 37.8616 26.9066L37.4224 26.2781C37.3833 26.3753 37.3082 26.5649 37.1999 26.8437C37.0197 27.3074 36.8114 27.8541 36.5776 28.4809C35.9099 30.2703 35.1708 32.3426 34.381 34.6731C33.4263 37.4912 34.2282 39.6238 36.3806 40.9684C38.0205 41.9929 40.3908 42.4973 42.6596 42.4745L42.655 42.0168L42.5017 41.5855L42.469 41.5972L39.9696 42.4858L42.6223 42.4861L176.366 42.4999C176.456 42.5003 176.548 42.491 176.64 42.4724C178.119 42.1706 179.327 39.6778 181.071 34.4876C181.228 34.0211 182.359 30.5612 182.653 29.7181C183.169 28.2415 183.548 27.3745 183.802 27.1029C183.923 26.9742 185.621 26.6947 187.237 26.6268C189.107 26.5484 190.574 26.7441 190.775 27.0513C191.156 27.6352 190.654 29.631 189.407 32.7401C189.27 33.0807 189.124 33.4371 188.962 33.8271C188.848 34.0991 188.73 34.3802 188.587 34.7184C188.512 34.897 188.26 35.4917 188.225 35.5753C186.765 39.0254 189.061 42.4832 192.468 42.4832H245.657H245.754L245.843 42.4435C246.835 42.0015 247.646 41.4621 248.293 40.8455C249.472 39.7208 249.936 38.5766 250.002 37.7799L250.043 37.2843H249.546C244.141 37.2843 239.22 37.2874 233.462 37.2932C220.908 37.3059 221.683 37.3055 221.081 37.2953C219.813 37.2731 219.018 37.2079 218.393 37.0367C217.707 36.8487 217.451 36.5973 217.503 36.2109C217.655 35.0936 219.188 34.4735 222.102 34.1486C222.435 34.1116 222.783 34.0778 223.194 34.0418C223.353 34.0279 223.513 34.0144 223.728 33.9965C223.991 33.9747 224.125 33.9635 224.247 33.9533C226.1 33.7971 226.8 33.6823 227.223 33.3423C229.602 31.4296 231.721 24.7545 230.219 22.9695C228.98 21.4951 218.969 21.8692 216.252 22.9715C215.488 23.2813 214.736 24.4147 213.86 26.3332C213.366 27.4137 212.849 28.7168 212.272 30.3006C212.003 31.039 211.736 31.7969 211.4 32.7657C211.449 32.6252 210.8 34.5035 210.644 34.9468C210.154 36.3442 209.846 37.1131 209.747 37.2172C209.849 37.1105 209.758 37.1285 209.802 37.1238C209.679 37.1371 209.499 37.1503 209.268 37.163C208.809 37.1881 208.157 37.2106 207.358 37.2294C205.763 37.2667 203.672 37.2866 201.598 37.2838C197.135 37.2776 193.263 37.1429 193.125 37.0318C192.664 36.6605 192.922 35.7426 194.417 32.063C194.687 31.3979 194.887 30.886 195.069 30.3852C196.065 27.6346 196.282 25.7221 195.423 24.3114C194.425 22.6704 190.972 21.975 186.115 21.9899C182.333 22.0016 178.24 22.4965 177.383 23.0285C176.171 23.7812 175.175 25.8676 173.576 30.2822C171.549 35.8772 171.2 36.7296 170.585 37.1581C170.39 37.2938 150.734 37.3366 149.355 37.1664C147.981 36.9979 147.512 36.911 147.164 36.733C146.848 36.5714 146.754 36.3532 146.83 35.8178C146.98 34.7565 148.533 34.1338 151.436 33.7886C151.796 33.7458 152.174 33.7068 152.625 33.6646C152.877 33.641 153.705 33.5671 153.762 33.562C155.445 33.4086 156.122 33.2965 156.528 33.0066C158.85 31.3513 160.815 25.5023 159.841 23.4008C158.961 21.5009 149.037 21.6651 145.644 22.9456C144.848 23.246 144.047 24.4163 143.112 26.3989C142.606 27.4716 142.075 28.7602 141.497 30.2865C141.145 31.2165 139.076 37.0699 138.934 37.2475C139.053 37.0978 138.84 37.13 138.986 37.1181C138.832 37.1307 138.603 37.1436 138.308 37.1563C137.728 37.1813 136.898 37.2054 135.874 37.2271C133.834 37.2704 131.138 37.3023 128.435 37.3145C122.132 37.3429 117.275 37.2619 116.6 37.09C115.881 36.9063 115.61 35.1124 116.143 32.8897C116.753 30.3436 118.168 28.0721 119.988 27.0342C120.716 26.6187 122.165 26.4396 124.294 26.4343C124.903 26.4328 125.466 26.4428 126.407 26.4674C128.696 26.5274 129.16 26.523 129.552 26.3547C130.098 26.1208 130.829 25.383 131.332 24.6081C131.594 24.2049 131.772 23.8249 131.833 23.4995C131.926 23.0065 131.748 22.5796 131.267 22.4419C130.554 22.2377 127.013 21.9269 124.071 21.9811C119.366 22.0678 115.494 22.901 113.035 24.7385C111.278 26.0516 110.045 27.7261 109.232 29.7088C108.776 30.8214 108.465 31.9924 108.253 33.2722C108.17 33.7672 108.105 34.2624 108.044 34.8184C108.011 35.1293 107.92 36.0589 107.917 36.0875C107.84 36.8309 107.754 37.2128 107.751 37.2144C107.519 37.3649 91.2302 37.3142 90.8233 37.0919C90.8843 37.1252 90.9015 37.1563 90.8994 37.1428C90.8864 37.0597 90.8912 36.9228 90.9182 36.7419C90.9761 36.3537 91.128 35.8051 91.3674 35.1138C91.7895 33.8951 92.4588 32.2938 93.3831 30.2462C93.508 29.9697 93.6376 29.6847 93.7733 29.3882C94.2051 28.4449 95.6147 25.423 95.8339 24.9445C96.6813 23.0949 96.8265 22.7381 96.6974 22.4289C96.423 21.7701 93.098 21.7411 92.0748 21.9962C91.7127 22.0864 91.5009 22.5092 90.594 24.5562C90.2148 25.4123 88.6275 29.0949 88.4508 29.5007C88.3379 29.7601 88.2297 30.0077 88.1247 30.2468C86.4694 34.0178 85.3262 36.2822 84.9447 36.4966C82.513 37.8659 80.2698 37.6362 79.3748 35.2835C79.1872 34.79 79.8939 32.6174 81.2877 29.2903C81.3963 29.0311 81.5097 28.7629 81.6297 28.4812C81.8714 27.9139 83.0849 25.1143 83.3433 24.4962C83.5864 23.9148 83.7521 23.4931 83.8525 23.1936C83.9125 23.0148 83.9507 22.8755 83.9674 22.7637C83.9813 22.6713 83.9833 22.5898 83.9633 22.5018C83.9151 22.2904 83.7411 22.1141 83.4855 22.1141C83.4103 22.1141 82.2641 22.0659 81.9886 22.0556C81.1754 22.0252 80.4355 22.0055 79.7331 21.9989C77.2791 21.9758 75.9905 22.0799 75.6147 22.5495C74.9247 23.4114 70.5723 33.9938 70.4473 35.3715C70.3958 35.9368 70.6028 36.3958 71.0002 36.8646C71.0749 36.9528 71.2974 37.1946 71.3263 37.229C71.3312 37.2348 71.3199 37.2126 71.3536 37.0783C71.3787 36.9781 71.4363 36.913 71.4909 36.8822C71.4903 36.8826 71.4625 36.8918 71.4108 36.9027C71.2522 36.936 70.9803 36.9608 70.5744 36.9766C56.5189 37.525 47.2505 37.2848 45.3813 35.8018L45.3813 35.8018Z" fill="#CBCBCB"/>
<path d="M150.014 24.0248C149.219 24.0248 146.947 27.7418 147.551 28.3474C148.038 28.8346 149.182 28.6985 150.74 28.3099C151.678 28.075 153.498 24.9248 152.908 24.2362C152.624 23.9054 152.119 23.8553 151.259 23.909C151.071 23.9207 150.877 23.9378 150.65 23.9613C150.551 23.9715 150.262 24.003 150.227 24.0067C150.109 24.019 150.039 24.0248 150.014 24.0248ZM150.014 24.9402C150.083 24.9402 150.17 24.933 150.323 24.9171C150.361 24.9131 150.649 24.8817 150.744 24.8718C150.96 24.8495 151.142 24.8334 151.316 24.8226C151.827 24.7907 152.21 24.8287 152.213 24.8322C152.149 24.7568 152.144 24.7231 152.144 24.7238C152.135 24.7952 152.106 24.9034 152.058 25.0366C151.956 25.3189 151.779 25.6823 151.566 26.0524C151.146 26.7785 150.647 27.3896 150.518 27.4218C149.475 27.682 148.318 27.8196 148.199 27.7005C148.317 27.819 148.318 27.8699 148.312 27.8963C148.332 27.8145 148.378 27.6899 148.447 27.5354C148.588 27.2205 148.812 26.8076 149.071 26.3833C149.328 25.9637 149.599 25.5655 149.825 25.2775C149.937 25.1347 150.033 25.0242 150.107 24.9545C150.121 24.9409 150.122 24.9402 150.014 24.9402ZM220.699 24.0248C219.922 24.0248 217.803 27.4473 218.141 28.2098C218.387 28.7631 219.022 28.7877 220.115 28.5995C220.314 28.5652 220.522 28.5231 220.743 28.4737C220.962 28.4248 221.055 28.4021 221.424 28.3099C222.362 28.075 224.182 24.9248 223.592 24.2362C223.308 23.9054 222.803 23.8553 221.943 23.9089C221.756 23.9206 221.561 23.9378 221.334 23.9613C221.236 23.9715 220.947 24.003 220.912 24.0067C220.794 24.019 220.724 24.0248 220.699 24.0248ZM220.699 24.9402C220.768 24.9402 220.855 24.933 221.007 24.9171C221.045 24.9131 221.333 24.8817 221.428 24.8718C221.644 24.8495 221.827 24.8334 222 24.8226C222.511 24.7907 222.895 24.8287 222.897 24.8322C222.833 24.7568 222.828 24.7231 222.828 24.7238C222.819 24.7952 222.79 24.9034 222.742 25.0366C222.64 25.3189 222.464 25.6823 222.25 26.0524C221.83 26.7785 221.331 27.3896 221.202 27.4218C220.841 27.512 220.752 27.5337 220.543 27.5804C220.336 27.6267 220.142 27.6659 219.959 27.6974C219.609 27.7577 219.318 27.7863 219.109 27.7782C218.978 27.7731 218.943 27.7603 218.978 27.8386C219.004 27.8981 219.005 27.8869 219.016 27.8442C219.041 27.746 219.09 27.6113 219.162 27.4504C219.305 27.1286 219.526 26.723 219.782 26.3106C220.031 25.9082 220.295 25.5284 220.516 25.2543C220.624 25.1205 220.717 25.0171 220.788 24.9524C220.802 24.9395 220.801 24.9402 220.699 24.9402ZM43.0454 34.7709C45.1941 36.4763 54.2702 36.7115 68.8438 36.144C69.9802 36.0999 70.3585 36.0204 70.4753 35.5535C70.5402 35.2942 70.4511 35.1191 70.2608 34.8927C70.2146 34.8378 69.9902 34.594 69.9319 34.5252C69.6779 34.2256 69.5672 33.9805 69.592 33.7069C69.7006 32.5101 73.9838 22.098 74.5631 21.3742C74.6502 21.2653 76.0855 21.1493 77.9583 21.1669C78.651 21.1734 79.3827 21.193 80.1881 21.2231C80.4319 21.2322 81.6217 21.2822 81.7194 21.2822C81.4962 21.2822 81.3431 21.127 81.3045 20.9577C81.2939 20.9111 81.2944 20.8912 81.296 20.8805C81.2889 20.9275 81.2627 21.023 81.2184 21.1553C81.1269 21.4283 80.9677 21.8333 80.7326 22.3956C80.477 23.0069 79.2653 25.8019 79.0214 26.3745C78.9006 26.6578 78.7865 26.9278 78.6771 27.1888C77.1074 30.9354 76.4309 33.0149 76.7531 33.8611C77.8933 36.8584 80.7721 37.1533 83.6271 35.5472C84.2924 35.1731 85.3365 33.1048 87.1967 28.8671C87.3021 28.6271 87.4107 28.3786 87.5239 28.1185C87.7029 27.7074 89.2879 24.0301 89.6648 23.1793C89.9853 22.4557 90.2309 21.9232 90.4163 21.5531C90.5136 21.359 90.5929 21.2127 90.652 21.1176C90.6764 21.0784 90.6951 21.0518 90.7044 21.0406C90.673 21.0779 90.6336 21.1104 90.5306 21.1362C90.7536 21.0805 91.7297 21.0272 92.5953 21.0349C93.0822 21.0392 93.5073 21.0612 93.8163 21.1003C93.9719 21.12 94.0924 21.1434 94.168 21.1674C94.1621 21.1655 94.1335 21.1479 94.0857 21.0334C94.0491 20.9457 94.0493 20.9005 94.0565 20.8575C94.0544 20.8701 94.0473 20.8979 94.0352 20.9369C94.0057 21.0322 93.9541 21.1709 93.8812 21.3501C93.7432 21.6894 93.5342 22.1621 93.2348 22.8156C93.0168 23.2915 91.6073 26.3134 91.1741 27.2598C91.0378 27.5575 90.9075 27.8439 90.782 28.1219C88.4292 33.3339 87.6394 35.6143 88.6177 36.148C89.3087 36.5242 105.955 36.576 106.481 36.2359C106.85 35.9973 106.941 35.5992 107.061 34.4335C107.407 31.0722 107.562 30.1378 108.311 28.3094C109.064 26.4733 110.198 24.9335 111.816 23.7245C114.084 22.0306 117.792 21.2325 122.321 21.149C123.955 21.1188 125.594 21.1856 127.121 21.3195C128.141 21.409 129.116 21.5365 129.249 21.5742C129.205 21.5616 129.181 21.5055 129.167 21.5818C129.132 21.7691 129.001 22.0495 128.798 22.3615C128.384 22.9983 127.772 23.6173 127.425 23.7662C127.23 23.8497 126.602 23.8554 124.666 23.8047C123.716 23.7798 123.146 23.7697 122.524 23.7712C120.234 23.7769 118.685 23.9684 117.768 24.491C113.605 26.865 111.548 35.4489 114.607 36.229C115.403 36.4322 120.164 36.5117 126.672 36.4824C134.031 36.4492 137.642 36.3723 137.882 36.0711C138.137 35.7528 140.377 29.4182 140.587 28.8629C141.156 27.3581 141.679 26.0909 142.173 25.0437C142.998 23.294 143.722 22.2351 144.2 22.0548C147.169 20.934 156.66 20.7769 157.245 22.0384C158.022 23.7151 156.213 29.1005 154.23 30.514C154.026 30.6597 153.344 30.7724 151.912 30.9029C151.857 30.9079 151.028 30.9819 150.773 31.0057C150.315 31.0484 149.93 31.0882 149.561 31.132C146.226 31.5284 144.395 32.263 144.157 33.9421C144.029 34.8414 144.292 35.4483 144.981 35.8004C145.468 36.0496 145.965 36.1417 147.476 36.3277C149.143 36.5323 168.871 36.4894 169.342 36.1609C170.215 35.5527 170.434 35.0185 172.67 28.8464C174.167 24.713 175.154 22.6457 176.1 22.059C176.754 21.6528 180.754 21.1691 184.352 21.1579C188.856 21.144 192.122 21.8016 192.875 23.0392C193.54 24.1321 193.349 25.8225 192.442 28.3253C192.265 28.8132 192.069 29.3153 191.803 29.9705C191.717 30.1826 191.413 30.9243 191.422 30.901C191.273 31.2678 191.163 31.5389 191.062 31.7981C190.802 32.4612 190.618 32.9826 190.488 33.4437C190.143 34.6713 190.175 35.5064 190.784 35.9972C191.501 36.5744 208.167 36.5971 208.641 36.1019C208.884 35.8485 209.161 35.1569 209.742 33.502C209.898 33.056 210.55 31.1694 210.498 31.3178C210.833 30.353 211.099 29.5994 211.366 28.8663C211.935 27.3052 212.443 26.0239 212.924 24.9699C213.695 23.2798 214.374 22.2571 214.829 22.0724C217.212 21.1052 226.855 20.7449 227.752 21.8107C228.856 23.1234 226.911 29.2514 224.883 30.8815C224.679 31.0449 223.963 31.1623 222.403 31.2937C222.282 31.3039 222.148 31.315 221.885 31.3367C221.669 31.3548 221.508 31.3684 221.347 31.3824C220.929 31.419 220.574 31.4533 220.234 31.4912C216.891 31.8637 215.065 32.6019 214.829 34.3401C214.702 35.2806 215.309 35.8773 216.384 36.1721C217.107 36.3702 217.955 36.4397 219.298 36.4632C219.907 36.4736 218.94 36.4742 231.623 36.4609C237.393 36.4549 242.343 36.4517 247.779 36.4517L247.323 35.9562C247.312 36.0857 247.255 36.3443 247.115 36.6889C246.876 37.2803 246.482 37.8756 245.894 38.4361C245.324 38.9794 244.601 39.4603 243.704 39.8602L243.891 39.8205H190.702C187.95 39.8205 186.097 37.0308 187.301 34.1846C187.333 34.1095 187.587 33.5098 187.663 33.3286C187.807 32.9899 187.925 32.7075 188.039 32.434C188.203 32.0398 188.351 31.679 188.49 31.3337C189.9 27.8199 190.413 25.78 189.774 24.8029C188.953 23.5473 182.211 23.8304 181.368 24.7295C180.986 25.1361 180.588 26.046 180.022 27.6692C179.725 28.5226 178.591 31.9905 178.437 32.4487C176.864 37.1294 175.648 39.6371 174.688 39.8286C174.658 39.8345 174.63 39.8373 174.602 39.8372L40.8555 39.8227L40.8554 40.2804L40.9973 40.7155L41.0307 40.7046L43.8585 39.7825L40.8843 39.8118C38.775 39.8326 36.5705 39.3634 35.0994 38.4444C33.3018 37.3214 32.6655 35.6289 33.4819 33.2188C34.2686 30.8977 35.0044 28.8343 35.6687 27.0534C35.901 26.4306 36.1078 25.8877 36.2864 25.4278C36.3933 25.1526 36.4669 24.9665 36.5046 24.8728L36.7668 24.2219L36.0654 24.2444C20.9864 24.7278 11.5059 24.6114 9.45366 23.8139C8.12906 23.2992 6.98206 22.0889 6.29856 20.697C6.03241 20.1551 5.87957 19.654 5.87246 19.3614C5.8711 19.3059 5.87147 19.3045 5.81317 19.3536C5.71458 19.4367 5.63291 19.4305 5.63526 19.4318C6.4713 19.9054 6.80999 20.0926 7.36364 20.3757C7.81944 20.6088 8.25268 20.8143 8.66615 20.9906C9.49241 21.3429 10.2118 21.567 10.8175 21.6373C11.8779 21.7599 16.4318 21.4388 24.2243 20.7557C24.7202 20.7122 25.2301 20.6672 25.758 20.6203C26.9245 20.5167 28.1107 20.41 29.6075 20.2744C29.6099 20.2742 32.3399 20.0266 33.0301 19.9644C35.4673 19.7445 36.7496 19.6341 37.3562 19.595C38.2357 19.5383 38.8875 19.0567 39.3281 18.3173C39.5983 17.8639 39.7389 17.417 39.7937 17.1019L39.8908 16.5443L39.3253 16.566C25.0278 17.1146 14.8118 17.0252 13.1121 16.205C11.1438 15.2552 9.52512 13.2333 9.51526 11.9119C9.51554 11.9507 9.44809 12.0935 9.21191 12.1115C9.13757 12.1171 9.18712 12.1421 9.26894 12.2012C9.28154 12.2103 10.2589 12.9932 10.6764 13.2822C11.8277 14.0793 12.9854 14.5533 14.2773 14.6095C16.5619 14.7084 20.7754 14.4467 26.7187 13.8992C27.7639 13.8029 28.8558 13.6984 30.0187 13.5838C30.6379 13.5227 39.3107 12.633 40.2705 12.5644C41.1827 12.4992 41.8356 12.0278 42.2434 11.3064C42.4992 10.8541 42.6122 10.4091 42.6433 10.093L42.6948 9.57009L42.1698 9.59083C28.4874 10.1313 17.7846 9.99536 16.459 9.37045C14.4887 8.44263 12.8534 6.15065 12.7775 4.54507C12.7757 4.50617 12.7767 4.49022 12.7686 4.51548C12.7193 4.67082 12.5499 4.8066 12.3378 4.77964C12.255 4.76911 12.2304 4.75464 12.2171 4.74347C12.2454 4.76729 12.2889 4.80982 12.3506 4.87467C12.3686 4.89367 12.7267 5.28203 12.8669 5.42729C13.1285 5.69829 13.3837 5.93949 13.6606 6.16975C14.7839 7.10383 16.0565 7.67894 17.5684 7.75903C19.4424 7.85837 24.8196 7.41496 32.946 6.56171C33.7693 6.47527 34.6166 6.38503 35.4899 6.29087C38.8747 5.92592 48.5514 4.83258 48.8492 4.81507C50.2977 4.7297 50.8855 5.25129 50.9414 6.35292C50.989 7.29043 50.636 8.55133 50.0293 9.92913C50.0334 9.91982 47.2769 15.8676 46.2384 18.2669C45.7065 19.4959 45.2202 20.6654 44.7785 21.7851C42.0158 28.7884 41.1572 33.2734 43.0455 34.771L43.0454 34.7709ZM43.6143 34.0538C42.2353 32.9601 43.066 28.6206 45.63 22.1211C46.0679 21.0112 46.5503 19.8508 47.0785 18.6305C48.1111 16.2447 50.8661 10.3003 50.8672 10.2979C51.5269 8.79948 51.9123 7.42298 51.8556 6.30653C51.7738 4.69509 50.7495 3.78608 48.7954 3.90125C48.4689 3.92044 38.7308 5.02072 35.3917 5.38075C34.5193 5.47482 33.6728 5.56497 32.8505 5.65131C24.7979 6.49681 19.4183 6.94041 17.6168 6.84491C16.3205 6.77624 15.2279 6.28248 14.2459 5.4659C13.997 5.25898 13.7655 5.04011 13.5256 4.79155C13.3944 4.65563 13.0394 4.27068 13.0139 4.24384C12.7689 3.98624 12.6643 3.89837 12.4532 3.87154C11.9467 3.80717 11.8416 4.13817 11.8631 4.58856C11.9555 6.54377 13.8013 9.13077 16.0688 10.1985C17.6046 10.9225 28.2323 11.0575 42.2059 10.5055L41.7323 10.0033C41.7281 10.0463 41.7131 10.1369 41.6823 10.2583C41.6302 10.4635 41.5526 10.6683 41.4466 10.856C41.1807 11.3263 40.7882 11.6097 40.2053 11.6513C39.2289 11.7211 30.528 12.6137 29.9289 12.6728C28.7679 12.7872 27.6779 12.8915 26.6348 12.9876C20.7355 13.5311 16.5447 13.7914 14.317 13.695C13.2218 13.6473 12.2188 13.2366 11.1975 12.5296C10.8129 12.2633 9.84525 11.4882 9.8051 11.4592C9.54266 11.2696 9.36767 11.1816 9.14247 11.1987C8.74196 11.2292 8.59709 11.5359 8.59988 11.9186C8.61268 13.6346 10.4594 15.9414 12.7142 17.0295C14.6298 17.9538 24.7283 18.0422 39.3604 17.4808L38.8919 16.9449C38.8837 16.9923 38.861 17.0888 38.8206 17.2172C38.7525 17.4337 38.6601 17.6501 38.5417 17.8488C38.2433 18.3496 37.8416 18.6464 37.2973 18.6815C36.6792 18.7214 35.3958 18.8318 32.9478 19.0527C32.2574 19.115 29.5272 19.3626 29.5249 19.3628C28.0286 19.4983 26.8429 19.6049 25.677 19.7085C25.1495 19.7554 24.6399 19.8003 24.1444 19.8438C16.5142 20.5127 11.8842 20.8392 10.9228 20.728C10.4207 20.6697 9.77765 20.4694 9.02518 20.1486C8.6329 19.9813 8.21843 19.7847 7.78039 19.5607C7.24232 19.2856 6.91099 19.1024 6.08652 18.6354C5.43975 18.2688 4.94045 18.6894 4.95732 19.3837C4.96816 19.8295 5.15745 20.45 5.47689 21.1005C6.25372 22.6824 7.55898 24.0598 9.1221 24.6672C11.355 25.5349 20.7735 25.6505 36.0947 25.1593L35.6555 24.5309C35.6164 24.6281 35.5414 24.8176 35.4331 25.0964C35.253 25.5601 35.0448 26.1068 34.811 26.7335C34.1436 28.5228 33.4046 30.5949 32.6149 32.925C31.6601 35.7435 32.462 37.8761 34.6144 39.2207C36.2541 40.2451 38.6241 40.7495 40.8933 40.7272L40.8888 40.2695L40.7469 39.8343L40.7135 39.8452L37.9764 40.7378L40.8554 40.7381L174.6 40.7526C174.688 40.753 174.778 40.7441 174.867 40.7263C176.349 40.4307 177.558 37.9374 179.305 32.7403C179.461 32.2746 180.592 28.8139 180.887 27.9707C181.402 26.4941 181.781 25.6271 182.035 25.3556C182.156 25.2266 183.854 24.9469 185.471 24.879C187.34 24.8005 188.807 24.9964 189.008 25.3039C189.39 25.8881 188.888 27.8843 187.64 30.9928C187.503 31.3341 187.357 31.6913 187.194 32.0821C187.081 32.3539 186.963 32.6348 186.82 32.9721C186.744 33.153 186.49 33.7525 186.458 33.8279C184.998 37.2782 187.295 40.7359 190.702 40.7359H243.891H243.988L244.077 40.6962C245.068 40.2542 245.879 39.715 246.526 39.0986C247.706 37.9734 248.169 36.8288 248.235 36.0318L248.276 35.5363H247.779C242.343 35.5363 237.392 35.5394 231.622 35.5455C218.992 35.5587 219.913 35.5582 219.314 35.548C218.046 35.5258 217.251 35.4606 216.626 35.2893C215.94 35.1012 215.684 34.8496 215.736 34.4628C215.888 33.3456 217.421 32.7257 220.335 32.401C220.667 32.364 221.016 32.3303 221.427 32.2943C221.586 32.2804 221.746 32.2669 221.961 32.249C222.224 32.2273 222.358 32.2161 222.48 32.2058C224.333 32.0498 225.033 31.9351 225.456 31.5949C227.836 29.6826 229.954 23.0074 228.452 21.2216C227.213 19.7475 217.202 20.1215 214.485 21.2242C213.721 21.5342 212.968 22.6689 212.091 24.5898C211.599 25.6694 211.082 26.9711 210.506 28.5529C210.237 29.2913 209.969 30.049 209.633 31.018C209.684 30.8717 209.033 32.7554 208.878 33.199C208.388 34.5962 208.079 35.3652 207.98 35.4691C208.082 35.3626 207.991 35.3807 208.034 35.3759C207.912 35.3892 207.732 35.4025 207.501 35.4152C207.042 35.4404 206.391 35.463 205.591 35.4818C203.996 35.5192 201.905 35.5392 199.832 35.5364C195.37 35.5303 191.496 35.3956 191.358 35.2844C190.898 34.9129 191.156 33.9949 192.651 30.315C192.921 29.6499 193.121 29.1379 193.302 28.6371C194.299 25.8867 194.515 23.9744 193.657 22.5635C192.659 20.9227 189.206 20.2275 184.349 20.2426C180.567 20.2543 176.474 20.7492 175.617 21.2812C174.405 22.0335 173.408 24.1201 171.809 28.5346C169.782 34.1304 169.433 34.9818 168.819 35.41C168.624 35.5461 148.97 35.5889 147.587 35.4191C146.213 35.2498 145.746 35.1632 145.398 34.9853C145.082 34.8239 144.987 34.6059 145.063 34.0707C145.214 33.0088 146.766 32.3861 149.669 32.041C150.03 31.9982 150.407 31.9592 150.858 31.9171C151.111 31.8935 151.939 31.8197 151.995 31.8146C153.678 31.6612 154.355 31.5492 154.762 31.2593C157.084 29.6034 159.049 23.7543 158.075 21.6534C157.195 19.7529 147.271 19.9171 143.877 21.1983C143.081 21.4985 142.28 22.6694 141.345 24.6532C140.839 25.7256 140.308 27.0135 139.731 28.5389C139.379 29.4678 137.309 35.3219 137.167 35.4995C137.287 35.3499 137.074 35.3822 137.22 35.3702C137.065 35.3829 136.837 35.3958 136.542 35.4085C135.962 35.4336 135.132 35.4577 134.108 35.4795C132.068 35.5229 129.372 35.5548 126.668 35.567C120.366 35.5954 115.508 35.5142 114.833 35.342C114.114 35.1585 113.844 33.3647 114.376 31.1422C114.987 28.596 116.401 26.3243 118.221 25.2862C118.95 24.8709 120.398 24.6919 122.527 24.6866C123.137 24.6851 123.701 24.6951 124.642 24.7198C126.929 24.7797 127.393 24.7754 127.786 24.6075C128.332 24.373 129.062 23.6349 129.566 22.8601C129.828 22.4569 130.005 22.0767 130.066 21.7513C130.159 21.2584 129.981 20.8315 129.5 20.6939C128.783 20.4897 125.245 20.1795 122.305 20.2337C117.6 20.3205 113.728 21.1537 111.269 22.9912C109.511 24.3044 108.277 25.9791 107.464 27.9622C107.008 29.0746 106.698 30.2453 106.486 31.5249C106.403 32.0198 106.338 32.515 106.278 33.0708C106.244 33.3817 106.153 34.3113 106.15 34.3398C106.073 35.0835 105.987 35.4655 105.984 35.4672C105.752 35.6169 89.4635 35.5663 89.0558 35.3443C89.1174 35.3779 89.1346 35.409 89.1325 35.3955C89.1194 35.3124 89.1243 35.1755 89.1513 34.9945C89.2092 34.6063 89.3611 34.0578 89.6005 33.3663C90.0226 32.1476 90.6919 30.5463 91.6164 28.4985C91.7411 28.2221 91.8707 27.9372 92.0064 27.6408C92.4379 26.6983 93.8472 23.6766 94.067 23.1969C94.9139 21.3482 95.0595 20.9904 94.9306 20.6811C94.6558 20.0227 91.3294 19.9933 90.3084 20.2482C89.9464 20.3389 89.7343 20.7624 88.8278 22.8085C88.4487 23.6644 86.8619 27.3458 86.6846 27.7531C86.5717 28.0124 86.4635 28.26 86.3585 28.4992C84.7031 32.2702 83.56 34.5347 83.1783 34.7494C80.7457 36.1179 78.5036 35.8881 77.6087 33.5355C77.4208 33.0421 78.1275 30.8695 79.5214 27.5425C79.63 27.2833 79.7435 27.015 79.8635 26.7333C80.1053 26.1657 81.3187 23.3666 81.5771 22.7487C81.8202 22.1674 81.9859 21.7457 82.0863 21.4463C82.1463 21.2675 82.1845 21.1282 82.2013 21.0164C82.2151 20.924 82.2171 20.8425 82.1971 20.7545C82.1489 20.5431 81.9749 20.3668 81.7194 20.3668C81.6441 20.3668 80.4979 20.3186 80.2223 20.3083C79.4091 20.2779 78.6693 20.2582 77.9669 20.2516C75.5122 20.2284 74.2238 20.3326 73.8483 20.8024C73.1583 21.6644 68.8054 32.2461 68.6804 33.6242C68.6291 34.1896 68.8363 34.6485 69.2337 35.1172C69.3085 35.2054 69.5312 35.4473 69.5601 35.4817C69.565 35.4876 69.5537 35.4654 69.5873 35.3312C69.6124 35.2309 69.67 35.1658 69.7247 35.1349C69.7241 35.1353 69.6963 35.1445 69.6446 35.1553C69.4861 35.1887 69.2142 35.2135 68.8082 35.2293C54.7419 35.7771 45.4833 35.5371 43.6144 34.0539L43.6143 34.0538Z" fill="black"/>
</svg>
