<svg width="213" height="56" viewBox="0 0 213 56" fill="none" xmlns="http://www.w3.org/2000/svg">
<path d="M112.414 35.0726H96.4417L93.4736 42.4113H82.5732L99.2479 4.63791H109.771L126.499 42.4113H115.383L112.414 35.0726ZM109.285 27.1933L104.428 15.1058L99.5721 27.1933H109.285Z" fill="#191D1E"/>
<path d="M126.503 4.63791H144.365C156.885 4.63791 165.465 11.9226 165.465 23.5245C165.465 35.1263 156.885 42.411 144.365 42.411H126.503V4.63791ZM143.934 33.8853C150.355 33.8853 154.673 30.0535 154.673 23.5245C154.673 16.9947 150.355 13.1636 143.934 13.1636H137.189V33.8851L143.934 33.8853Z" fill="#191D1E"/>
<path d="M198.252 34.1546V42.411H168.618V4.63791H198.244V12.8936H179.195V19.2611H195.978V27.2473H179.195V34.1546H198.252Z" fill="#191D1E"/>
<path d="M68.3164 49.0792L68.4249 49.8229L68.5837 49.1528L69.699 45.2177H70.3264L71.4147 49.1528L71.5696 49.8344L71.6897 49.0754L72.565 45.2177H73.3127L71.9454 50.8571H71.2675L70.1057 46.7477L70.0168 46.318L69.9276 46.7477L68.7231 50.8571H68.0452L66.6819 45.2177H67.4256L68.3164 49.0792Z" fill="#191D1E"/>
<path d="M78.0394 48.2195C78.0394 48.772 77.9465 49.2542 77.7606 49.6661C77.5747 50.078 77.3113 50.3925 76.9705 50.6092C76.6297 50.826 76.2321 50.9345 75.7775 50.9345C75.3332 50.9345 74.9396 50.8252 74.5961 50.6072C74.2525 50.3892 73.986 50.078 73.7961 49.6737C73.6065 49.2696 73.5088 48.8017 73.5038 48.2697V47.8628C73.5038 47.3206 73.598 46.8417 73.7863 46.426C73.9747 46.0103 74.2414 45.6921 74.5863 45.4714C74.9311 45.2506 75.3254 45.1401 75.7695 45.1401C76.2213 45.1401 76.6196 45.2493 76.9642 45.4673C77.309 45.6856 77.5742 46.0018 77.7601 46.4162C77.946 46.8306 78.0389 47.3128 78.0389 47.8628V48.2195H78.0394ZM77.2995 47.8553C77.2995 47.1865 77.1651 46.6734 76.8966 46.3157C76.6279 45.9581 76.2524 45.7793 75.7695 45.7793C75.2993 45.7793 74.9296 45.9581 74.6599 46.3157C74.3901 46.6734 74.2512 47.1697 74.2434 47.8051V48.2195C74.2434 48.8677 74.3796 49.3768 74.6521 49.7473C74.9243 50.118 75.2995 50.3031 75.7772 50.3031C76.2574 50.3031 76.6294 50.128 76.8926 49.7782C77.1558 49.4283 77.2914 48.9267 77.2992 48.2735L77.2995 47.8553Z" fill="#191D1E"/>
<path d="M80.7868 48.5759H79.4622V50.8571H78.7147V45.2177H80.5816C81.2167 45.2177 81.7055 45.3624 82.0476 45.6514C82.3896 45.9408 82.5607 46.3617 82.5607 46.914C82.5607 47.2651 82.4657 47.5713 82.2761 47.832C82.0862 48.0929 81.8223 48.2876 81.484 48.4169L82.8086 50.8104V50.8569H82.0106L80.7868 48.5759ZM79.4622 47.9676H80.6047C80.9739 47.9676 81.2677 47.8719 81.486 47.6805C81.7042 47.4891 81.8132 47.233 81.8132 46.9122C81.8132 46.5629 81.7093 46.2954 81.5015 46.109C81.2938 45.9227 80.9935 45.8282 80.6012 45.8257H79.4624L79.4622 47.9676Z" fill="#191D1E"/>
<path d="M85.0752 48.2348L84.3858 48.9514V50.8569H83.6424V45.2177H84.3858V48.0065L86.8918 45.2177H87.7905L85.5713 47.7081L87.9648 50.8571H87.0739L85.0752 48.2348Z" fill="#191D1E"/>
<path d="M89.3986 48.6495V50.8571H88.6552V45.2177H90.735C91.3521 45.2177 91.8356 45.3752 92.1854 45.6901C92.5353 46.0051 92.7103 46.4222 92.7103 46.9411C92.7103 47.4886 92.5393 47.9101 92.1972 48.2057C91.8551 48.5015 91.3651 48.6492 90.7272 48.6492L89.3986 48.6495ZM89.3986 48.0412H90.735C91.1326 48.0412 91.4372 47.9475 91.6489 47.7599C91.8607 47.5725 91.9667 47.3015 91.9667 46.9471C91.9667 46.6108 91.8607 46.3419 91.6489 46.1402C91.4372 45.9385 91.1466 45.8338 90.7774 45.826H89.3986V48.0412Z" fill="#191D1E"/>
<path d="M94.4463 50.2488H97.1188V50.8569H93.6989V45.2177H94.4463V50.2488Z" fill="#191D1E"/>
<path d="M101.351 49.3813H98.9879L98.4572 50.8569H97.6902L99.8436 45.2174H100.494L102.652 50.8569H101.889L101.351 49.3813ZM99.2125 48.7733H101.13L100.169 46.1357L99.2125 48.7733Z" fill="#191D1E"/>
<path d="M107.083 49.0676C107.014 49.6641 106.793 50.1245 106.423 50.4485C106.052 50.7727 105.56 50.9347 104.945 50.9347C104.279 50.9347 103.745 50.6959 103.344 50.2182C102.942 49.7405 102.742 49.1015 102.742 48.3009V47.7586C102.742 47.2345 102.835 46.7736 103.022 46.3758C103.21 45.9782 103.475 45.6728 103.818 45.4598C104.162 45.2468 104.56 45.1403 105.011 45.1403C105.61 45.1403 106.091 45.3076 106.452 45.6419C106.814 45.9764 107.024 46.4393 107.083 47.0305H106.336C106.271 46.58 106.131 46.2535 105.916 46.0515C105.7 45.8496 105.399 45.7484 105.011 45.7484C104.536 45.7484 104.164 45.9242 103.894 46.2756C103.624 46.6269 103.489 47.1272 103.489 47.7757V48.3222C103.489 48.9345 103.617 49.4218 103.873 49.7837C104.129 50.1453 104.486 50.3264 104.946 50.3264C105.359 50.3264 105.676 50.2327 105.896 50.0456C106.117 49.8585 106.264 49.5325 106.336 49.0676H107.083Z" fill="#191D1E"/>
<path d="M111.325 48.2504H108.882V50.2488H111.721V50.8569H108.138V45.2177H111.682V45.8257H108.882V47.6421H111.325V48.2504Z" fill="#191D1E"/>
<path d="M116.556 49.8693L118.167 45.2177H118.981L116.889 50.8571H116.231L114.143 45.2177H114.953L116.556 49.8693Z" fill="#191D1E"/>
<path d="M120.573 50.8571H119.83V45.2177H120.573V50.8571Z" fill="#191D1E"/>
<path d="M125.993 48.2195C125.993 48.772 125.9 49.2542 125.714 49.6661C125.528 50.078 125.265 50.3925 124.924 50.6092C124.583 50.826 124.186 50.9345 123.731 50.9345C123.287 50.9345 122.893 50.8252 122.55 50.6072C122.206 50.389 121.94 50.078 121.75 49.6737C121.56 49.2696 121.462 48.8017 121.457 48.2697V47.8628C121.457 47.3206 121.552 46.8417 121.74 46.426C121.929 46.0103 122.196 45.6921 122.54 45.4714C122.885 45.2506 123.279 45.1401 123.723 45.1401C124.175 45.1401 124.574 45.2493 124.918 45.4673C125.263 45.6856 125.528 46.0018 125.714 46.4162C125.9 46.8306 125.993 47.3128 125.993 47.8628V48.2195ZM125.253 47.8553C125.253 47.1865 125.119 46.6734 124.851 46.3157C124.582 45.9581 124.206 45.7793 123.723 45.7793C123.253 45.7793 122.884 45.9581 122.614 46.3157C122.344 46.6734 122.205 47.1697 122.198 47.8051V48.2195C122.198 48.8677 122.334 49.3768 122.606 49.7473C122.879 50.118 123.253 50.3031 123.731 50.3031C124.211 50.3031 124.583 50.128 124.847 49.7782C125.11 49.4283 125.246 48.9267 125.253 48.2735V47.8553H125.253Z" fill="#191D1E"/>
<path d="M127.737 50.2488H130.41V50.8569H126.99V45.2177H127.738V50.2488H127.737Z" fill="#191D1E"/>
<path d="M134.485 48.2504H132.041V50.2488H134.88V50.8569H131.297V45.2177H134.841V45.8257H132.041V47.6421H134.485V48.2504Z" fill="#191D1E"/>
<path d="M140.179 50.8571H139.432L136.593 46.5114V50.8571H135.845V45.2177H136.593L139.439 49.5828V45.2177H140.179V50.8571H140.179Z" fill="#191D1E"/>
<path d="M145.371 49.0676C145.301 49.6641 145.081 50.1245 144.71 50.4485C144.34 50.7727 143.847 50.9347 143.233 50.9347C142.566 50.9347 142.033 50.6959 141.631 50.2182C141.23 49.7405 141.029 49.1015 141.029 48.3009V47.7586C141.029 47.2345 141.123 46.7736 141.31 46.3758C141.497 45.9782 141.762 45.6728 142.106 45.4598C142.449 45.2468 142.847 45.1403 143.299 45.1403C143.898 45.1403 144.378 45.3076 144.739 45.6419C145.101 45.9764 145.311 46.4393 145.371 47.0305H144.623C144.558 46.58 144.419 46.2535 144.203 46.0515C143.987 45.8496 143.686 45.7484 143.298 45.7484C142.823 45.7484 142.451 45.9242 142.181 46.2756C141.911 46.6269 141.776 47.1272 141.776 47.7757V48.3222C141.776 48.9345 141.904 49.4218 142.16 49.7837C142.416 50.1453 142.773 50.3264 143.233 50.3264C143.646 50.3264 143.962 50.2327 144.183 50.0456C144.404 49.8585 144.551 49.5325 144.623 49.0676H145.371Z" fill="#191D1E"/>
<path d="M149.454 48.2504H147.01V50.2488H149.849V50.8569H146.267V45.2177H149.81V45.8257H147.01V47.6421H149.454V48.2504Z" fill="#191D1E"/>
<path d="M153.561 48.6495V50.8571H152.818V45.2177H154.897C155.515 45.2177 155.998 45.3752 156.348 45.6901C156.698 46.0051 156.873 46.4222 156.873 46.9411C156.873 47.4886 156.701 47.9101 156.359 48.2057C156.017 48.5015 155.527 48.6492 154.889 48.6492L153.561 48.6495ZM153.561 48.0412H154.897C155.295 48.0412 155.6 47.9475 155.812 47.7599C156.023 47.5725 156.129 47.3015 156.129 46.9471C156.129 46.6108 156.023 46.3419 155.812 46.1402C155.6 45.9385 155.309 45.8338 154.94 45.826H153.561V48.0412Z" fill="#191D1E"/>
<path d="M159.771 48.5759H158.447V50.8571H157.699V45.2177H159.566C160.201 45.2177 160.69 45.3624 161.032 45.6514C161.374 45.9408 161.545 46.3617 161.545 46.914C161.545 47.2651 161.45 47.5713 161.26 47.832C161.07 48.0927 160.806 48.2876 160.468 48.4169L161.793 50.8104V50.8569H160.995L159.771 48.5759ZM158.447 47.9676H159.589C159.958 47.9676 160.252 47.8719 160.47 47.6805C160.688 47.4891 160.798 47.233 160.798 46.9122C160.798 46.5629 160.694 46.2954 160.486 46.109C160.278 45.9227 159.978 45.8282 159.585 45.8257H158.447L158.447 47.9676Z" fill="#191D1E"/>
<path d="M165.814 48.2504H163.37V50.2488H166.209V50.8569H162.627V45.2177H166.171V45.8257H163.37V47.6421H165.814V48.2504Z" fill="#191D1E"/>
<path d="M169.041 49.8693L170.653 45.2177H171.466L169.374 50.8571H168.716L166.628 45.2177H167.438L169.041 49.8693Z" fill="#191D1E"/>
<path d="M175.448 48.2504H173.004V50.2488H175.843V50.8569H172.261V45.2177H175.805V45.8257H173.004V47.6421H175.448V48.2504Z" fill="#191D1E"/>
<path d="M181.143 50.8571H180.395L177.556 46.5114V50.8571H176.808V45.2177H177.556L180.403 49.5828V45.2177H181.142L181.143 50.8571Z" fill="#191D1E"/>
<path d="M186.287 45.826H184.475V50.8571H183.735V45.826H181.926V45.2179H186.287V45.826Z" fill="#191D1E"/>
<path d="M187.961 50.8571H187.218V45.2177H187.961V50.8571Z" fill="#191D1E"/>
<path d="M193.223 48.2195C193.223 48.772 193.13 49.2542 192.944 49.6661C192.758 50.078 192.495 50.3925 192.154 50.6092C191.813 50.826 191.415 50.9345 190.961 50.9345C190.516 50.9345 190.123 50.8252 189.78 50.6072C189.436 50.389 189.169 50.078 188.98 49.6737C188.79 49.2696 188.692 48.8017 188.687 48.2697V47.8628C188.687 47.3206 188.781 46.8417 188.97 46.426C189.158 46.0103 189.425 45.6921 189.77 45.4714C190.115 45.2506 190.509 45.1401 190.953 45.1401C191.405 45.1401 191.803 45.2493 192.148 45.4673C192.493 45.6856 192.758 46.0018 192.944 46.4162C193.13 46.8306 193.223 47.3128 193.223 47.8628V48.2195ZM192.483 47.8553C192.483 47.1865 192.349 46.6734 192.08 46.3157C191.811 45.9581 191.436 45.7793 190.953 45.7793C190.483 45.7793 190.113 45.9581 189.843 46.3157C189.574 46.6734 189.435 47.1697 189.427 47.8051V48.2195C189.427 48.8677 189.563 49.3768 189.836 49.7473C190.108 50.118 190.483 50.3031 190.961 50.3031C191.441 50.3031 191.813 50.128 192.076 49.7782C192.339 49.4283 192.475 48.9267 192.483 48.2735V47.8553H192.483Z" fill="#191D1E"/>
<path d="M198.236 50.8571H197.488L194.649 46.5114V50.8571H193.902V45.2177H194.649L197.496 49.5828V45.2177H198.236V50.8571Z" fill="#191D1E"/>
<path d="M202.125 4.63037C202.491 4.63037 202.841 4.72179 203.177 4.90438C203.513 5.08722 203.776 5.34918 203.968 5.69049C204.16 6.03181 204.256 6.38895 204.256 6.76192C204.256 7.13287 204.162 7.48675 203.974 7.8233C203.786 8.15984 203.523 8.42255 203.187 8.61067C202.85 8.79878 202.496 8.89296 202.125 8.89296C201.754 8.89296 201.4 8.79878 201.063 8.61067C200.727 8.42255 200.465 8.15984 200.276 7.8233C200.088 7.48675 199.994 7.13287 199.994 6.76192C199.994 6.38895 200.09 6.03181 200.282 5.69049C200.474 5.34943 200.738 5.08722 201.073 4.90438C201.409 4.72179 201.76 4.63037 202.125 4.63037ZM202.128 5.04779C201.834 5.04779 201.553 5.12113 201.285 5.26755C201.015 5.41422 200.803 5.62469 200.649 5.8992C200.494 6.17372 200.416 6.46129 200.416 6.76167C200.416 7.06004 200.492 7.3451 200.643 7.61584C200.795 7.88659 201.006 8.09831 201.276 8.25026C201.547 8.40246 201.831 8.47831 202.128 8.47831C202.427 8.47831 202.711 8.40221 202.981 8.25026C203.251 8.09806 203.462 7.88659 203.614 7.61584C203.766 7.3451 203.842 7.06029 203.842 6.76167C203.842 6.46104 203.765 6.17346 203.61 5.8992C203.455 5.62444 203.242 5.41422 202.973 5.26755C202.702 5.12113 202.421 5.04779 202.128 5.04779ZM201.162 5.64051H201.621C202.052 5.64051 202.293 5.64227 202.345 5.64604C202.497 5.6591 202.615 5.68924 202.699 5.73671C202.784 5.78392 202.854 5.85626 202.911 5.9537C202.968 6.05115 202.996 6.15915 202.996 6.27794C202.996 6.44119 202.942 6.58084 202.836 6.69662C202.729 6.8124 202.58 6.88423 202.387 6.91236C202.455 6.93823 202.508 6.96661 202.545 6.997C202.582 7.02764 202.633 7.08566 202.698 7.17105C202.715 7.1934 202.771 7.28507 202.865 7.44632L203.132 7.90266H202.565L202.375 7.53547C202.247 7.28884 202.142 7.13338 202.058 7.06958C201.975 7.00554 201.869 6.97364 201.741 6.97364H201.621V7.90291H201.162V5.64051ZM201.621 6.617H201.808C202.073 6.617 202.238 6.60671 202.302 6.58636C202.366 6.56627 202.416 6.53035 202.454 6.47912C202.491 6.42839 202.509 6.37012 202.509 6.30532C202.509 6.24253 202.491 6.18627 202.455 6.13705C202.419 6.08782 202.367 6.05266 202.301 6.03131C202.234 6.00996 202.07 5.99941 201.808 5.99941H201.621L201.621 6.617Z" fill="#191D1E"/>
<path d="M24.384 30.8655C27.6595 29.5562 31.0665 28.306 34.5929 27.1185L39.4191 15.1058L43.1686 24.4372C46.1769 23.5667 49.2724 22.7489 52.4417 21.9799L44.7617 4.63765H34.2388L22.2831 31.7209C22.978 31.4331 23.6777 31.1478 24.384 30.8655Z" fill="#191D1E"/>
<path d="M88.4741 16.1076L93.3899 4.63765H82.8131L77.4132 17.33C81.0178 16.8513 84.7088 16.4454 88.4741 16.1076Z" fill="#191D1E"/>
<path d="M67.9771 18.7633L62.0913 4.63765H50.5432L57.4568 20.8228C60.878 20.0741 64.3796 19.3819 67.9771 18.7633Z" fill="#191D1E"/>
<path d="M46.088 31.7623L47.4053 35.0723L50.3735 42.411H61.4901L54.9163 27.5718C51.8274 28.9253 48.8768 30.326 46.088 31.7623Z" fill="#191D1E"/>
<path d="M86.112 17.0336C86.0309 17.054 85.9492 17.0753 85.8681 17.0957C85.0978 17.2893 84.3248 17.4895 83.55 17.6939C83.337 17.7502 83.1243 17.8062 82.911 17.8632C82.0541 18.0923 81.1956 18.3256 80.3339 18.5677C80.3241 18.5704 80.3143 18.5732 80.3046 18.576C78.9885 18.9459 77.6868 19.3279 76.3958 19.7182L72.344 29.2445L69.3246 21.9972C69.2116 22.0359 69.0978 22.0743 68.9848 22.113C68.709 22.2079 68.4342 22.3034 68.16 22.399C67.843 22.5098 67.5271 22.6211 67.2121 22.7331C66.9567 22.8238 66.701 22.9144 66.4466 23.0058C66.0726 23.1402 65.7009 23.2761 65.33 23.412C65.1386 23.482 64.9462 23.5513 64.7558 23.6219C62.9749 24.2812 61.2281 24.9576 59.5187 25.6492L66.6782 42.411H77.201L88.3048 16.5007C87.5755 16.6747 86.8456 16.85 86.112 17.0336Z" fill="#191D1E"/>
<path d="M80.3327 18.5732C84.1694 17.495 87.9628 16.5476 91.6899 15.7251C65.4553 19.0007 43.2503 25.5726 25.1134 33.8456C23.8019 34.4439 22.5117 35.0509 21.2429 35.6663C17.4361 37.5122 13.8207 39.4328 10.397 41.4117C9.83541 41.7362 9.29518 42.0669 8.7439 42.3944H29.222C40.5242 33.4378 58.8108 24.6212 80.3327 18.5732Z" fill="url(#paint0_linear_0_6817)"/>
<defs>
<linearGradient id="paint0_linear_0_6817" x1="13.9117" y1="42.8744" x2="91.6006" y2="13.6349" gradientUnits="userSpaceOnUse">
<stop stop-color="#C62433"/>
<stop offset="1" stop-color="#B21F2D"/>
</linearGradient>
</defs>
</svg>
