<svg width="243" height="49" viewBox="0 0 243 49" fill="none" xmlns="http://www.w3.org/2000/svg">
<path d="M4.84253 44.55H238.158V4.05005L4.84253 4.05005V44.55Z" fill="#C4373A"/>
<path d="M101.595 15.9004C102.912 15.9004 104.111 16.1384 105.196 16.6108C106.274 17.0876 107.202 17.7332 107.983 18.5443C108.753 19.3562 109.354 20.3001 109.774 21.3728C110.196 22.448 110.409 23.5766 110.409 24.7559C110.423 24.7752 110.423 24.7909 110.409 24.8067C110.409 25.9895 110.19 27.1199 109.763 28.2021C109.332 29.2844 108.734 30.2309 107.957 31.0429C107.181 31.8547 106.246 32.503 105.159 32.9894C104.071 33.4733 102.867 33.7139 101.541 33.7139C100.222 33.7139 99.0192 33.4768 97.9445 32.9982C96.8612 32.5249 95.9363 31.881 95.1583 31.0699C94.3795 30.2555 93.7844 29.314 93.3674 28.2415C92.9423 27.1654 92.7311 26.0385 92.7311 24.8584V24.8067C92.7311 23.6282 92.9423 22.4935 93.3736 21.4121C93.8029 20.3299 94.412 19.3798 95.1803 18.567C95.9609 17.7551 96.8858 17.1113 97.9807 16.624C99.0693 16.1409 100.272 15.9004 101.595 15.9004ZM125.601 15.9489C126.877 15.9489 127.985 16.1221 128.936 16.4781C129.886 16.8316 130.801 17.3601 131.696 18.0643L130.557 19.5665C129.747 18.9095 128.936 18.4326 128.117 18.1387C127.297 17.843 126.45 17.6952 125.554 17.6952C124.414 17.6952 123.516 17.962 122.856 18.4974C122.197 19.0293 121.868 19.6881 121.868 20.4773V20.5262C121.868 20.9348 121.937 21.2988 122.063 21.6181C122.197 21.94 122.437 22.2331 122.785 22.507C123.134 22.779 123.608 23.0223 124.221 23.2462C124.83 23.4676 125.613 23.6776 126.57 23.8709C128.499 24.283 129.923 24.8692 130.842 25.6286C131.757 26.3949 132.215 27.4299 132.215 28.744V28.7921C132.215 29.5296 132.069 30.2007 131.772 30.7991C131.481 31.3983 131.072 31.9119 130.563 32.3362C130.045 32.7641 129.423 33.0895 128.696 33.3223C127.971 33.5506 127.183 33.6669 126.323 33.6669C124.938 33.6669 123.672 33.4403 122.523 32.9872C121.373 32.5358 120.282 31.8472 119.239 30.9103L120.456 29.4807C121.364 30.3039 122.278 30.9128 123.202 31.3153C124.126 31.7177 125.19 31.9172 126.4 31.9172C127.569 31.9172 128.504 31.6469 129.202 31.0948C129.905 30.5446 130.256 29.8428 130.256 28.9924V28.94C130.256 28.5471 130.191 28.1902 130.057 27.8709C129.923 27.5524 129.696 27.2585 129.367 26.9978C129.035 26.7344 128.577 26.4956 127.987 26.2838C127.399 26.0713 126.652 25.863 125.741 25.6688C124.754 25.4545 123.885 25.2104 123.151 24.9304C122.415 24.6522 121.804 24.3145 121.327 23.9217C120.846 23.5288 120.494 23.0687 120.257 22.5393C120.025 22.0179 119.911 21.4029 119.911 20.6977V20.6496C119.911 19.9759 120.051 19.3548 120.329 18.7774C120.614 18.2035 121.007 17.7074 121.519 17.2865C122.031 16.8692 122.634 16.542 123.331 16.3023C124.022 16.0687 124.779 15.9489 125.601 15.9489ZM37.1763 15.9873V18.0774L32.6016 20.094V29.4718L37.1763 31.5103V33.505L19.7289 25.6538L17.6704 24.778L19.7289 23.8341L37.1763 15.9873ZM59.6624 16.1946V17.9925H49.0919V23.8183H58.5465V25.6197H49.0919V31.6249H59.7839V33.4193H47.14V16.1946H59.6624ZM179.716 16.1946V26.4805L189.664 16.1946H192.187L184.763 23.7221L192.513 33.4193H190.062L183.402 25.079L179.716 28.7937V33.4193H177.756V16.1946H179.716ZM214.019 16.1946V17.9925H203.449V23.8183H223.221V25.6197H203.449V31.6249H214.144V33.4193H201.497V16.1946H214.019ZM166.744 16.1942V33.4189H164.785V16.1942H166.744ZM148.628 16.1932C149.602 16.1932 150.485 16.3192 151.288 16.5773C152.085 16.8318 152.77 17.1888 153.342 17.6586C153.911 18.1258 154.348 18.6936 154.648 19.3673C154.954 20.0409 155.115 20.8038 155.115 21.6577V21.7067C155.115 22.6384 154.931 23.4583 154.57 24.1573C154.202 24.8519 153.712 25.4389 153.095 25.9122C152.478 26.3891 151.752 26.7477 150.931 26.9823C150.102 27.2237 149.231 27.3436 148.3 27.3436H144.094V33.4187H142.14V16.1932H148.628ZM77.1116 16.1932C78.1835 16.1932 79.1393 16.3482 79.9753 16.6483C80.8053 16.9509 81.4935 17.3762 82.0373 17.9167C82.4659 18.342 82.7951 18.8451 83.0292 19.4181C83.2598 19.992 83.3742 20.6229 83.3742 21.3131V21.3603C83.3742 22.0664 83.2598 22.6998 83.0292 23.2711C82.7951 23.8346 82.4712 24.3279 82.055 24.7461C81.6334 25.1653 81.1335 25.509 80.5509 25.7802C79.9753 26.048 79.3479 26.251 78.6711 26.3821L83.9938 33.4179H81.5955L76.5668 26.7269H71.6208V33.4179H69.6618V16.1932H77.1116ZM101.541 17.6939C100.554 17.6939 99.6431 17.8776 98.8106 18.2486C97.9745 18.6213 97.2599 19.1243 96.6676 19.7621C96.0762 20.4043 95.608 21.1479 95.2665 22.0018C94.9312 22.854 94.7623 23.7726 94.7623 24.7559V24.8067C94.7623 25.7897 94.9312 26.714 95.2665 27.5748C95.608 28.434 96.0823 29.189 96.6896 29.825C97.303 30.468 98.0247 30.9755 98.8572 31.3525C99.6889 31.7305 100.605 31.916 101.595 31.916C102.585 31.916 103.5 31.7367 104.329 31.3657C105.162 30.9965 105.874 30.489 106.469 29.853C107.063 29.2108 107.532 28.4636 107.869 27.6133C108.21 26.7594 108.373 25.8417 108.373 24.8584V24.8067C108.373 23.8225 108.21 22.8994 107.869 22.0395C107.532 21.1768 107.052 20.4262 106.45 19.7893C105.835 19.1471 105.114 18.637 104.28 18.2608C103.443 17.8837 102.531 17.6939 101.541 17.6939ZM30.8416 20.8586L22.0074 24.772L30.8416 28.7071V20.8586ZM148.488 17.9911H144.094V25.5457H148.392C149.113 25.5457 149.77 25.4547 150.352 25.2754C150.931 25.0943 151.427 24.8396 151.852 24.5046C152.278 24.1659 152.594 23.767 152.816 23.2999C153.043 22.8353 153.156 22.3235 153.156 21.7671V21.718C153.156 20.4932 152.727 19.5667 151.874 18.9342C151.025 18.3035 149.892 17.9911 148.488 17.9911ZM76.977 17.9912H71.6208V24.978H76.9532C77.5982 24.978 78.1924 24.8975 78.7406 24.7339C79.2845 24.5686 79.7536 24.3376 80.1514 24.0314C80.5509 23.7286 80.8598 23.3612 81.0825 22.9228C81.3069 22.4872 81.4169 21.9955 81.4169 21.4355V21.3866C81.4169 20.3201 81.0288 19.4899 80.2534 18.8905C79.4746 18.2913 78.3859 17.9912 76.977 17.9912Z" fill="white"/>
</svg>
