<svg  viewBox="20 16 220 50" fill="none" xmlns="http://www.w3.org/2000/svg"><defs>
<filter id="filter0_f_0_766" x="27.1035" y="10.436" width="35.7949" height="30.6667" filterUnits="userSpaceOnUse" color-interpolation-filters="sRGB">
<feFlood flood-opacity="0" result="BackgroundImageFix"/>
<feBlend mode="normal" in="SourceGraphic" in2="BackgroundImageFix" result="shape"/>
<feGaussianBlur stdDeviation="3.5" result="effect1_foregroundBlur_0_766"/>
</filter>
<filter id="filter1_f_0_766" x="37.3596" y="11.718" width="35.7949" height="30.6667" filterUnits="userSpaceOnUse" color-interpolation-filters="sRGB">
<feFlood flood-opacity="0" result="BackgroundImageFix"/>
<feBlend mode="normal" in="SourceGraphic" in2="BackgroundImageFix" result="shape"/>
<feGaussianBlur stdDeviation="3.5" result="effect1_foregroundBlur_0_766"/>
</filter>
<filter id="filter2_f_0_766" x="46.3339" y="20.6924" width="35.7949" height="30.6667" filterUnits="userSpaceOnUse" color-interpolation-filters="sRGB">
<feFlood flood-opacity="0" result="BackgroundImageFix"/>
<feBlend mode="normal" in="SourceGraphic" in2="BackgroundImageFix" result="shape"/>
<feGaussianBlur stdDeviation="3.5" result="effect1_foregroundBlur_0_766"/>
</filter>
<filter id="filter3_f_0_766" x="45.0527" y="32.231" width="35.7949" height="30.6667" filterUnits="userSpaceOnUse" color-interpolation-filters="sRGB">
<feFlood flood-opacity="0" result="BackgroundImageFix"/>
<feBlend mode="normal" in="SourceGraphic" in2="BackgroundImageFix" result="shape"/>
<feGaussianBlur stdDeviation="3.5" result="effect1_foregroundBlur_0_766"/>
</filter>
<filter id="filter4_f_0_766" x="36.0781" y="38.6411" width="35.7949" height="30.6667" filterUnits="userSpaceOnUse" color-interpolation-filters="sRGB">
<feFlood flood-opacity="0" result="BackgroundImageFix"/>
<feBlend mode="normal" in="SourceGraphic" in2="BackgroundImageFix" result="shape"/>
<feGaussianBlur stdDeviation="3.5" result="effect1_foregroundBlur_0_766"/>
</filter>
<filter id="filter5_f_0_766" x="24.5391" y="39.9231" width="35.7949" height="30.6667" filterUnits="userSpaceOnUse" color-interpolation-filters="sRGB">
<feFlood flood-opacity="0" result="BackgroundImageFix"/>
<feBlend mode="normal" in="SourceGraphic" in2="BackgroundImageFix" result="shape"/>
<feGaussianBlur stdDeviation="3.5" result="effect1_foregroundBlur_0_766"/>
</filter>
<filter id="filter6_f_0_766" x="97.0781" y="23.895" width="23.3923" height="21.1824" filterUnits="userSpaceOnUse" color-interpolation-filters="sRGB">
<feFlood flood-opacity="0" result="BackgroundImageFix"/>
<feBlend mode="normal" in="SourceGraphic" in2="BackgroundImageFix" result="shape"/>
<feGaussianBlur stdDeviation="3.5" result="effect1_foregroundBlur_0_766"/>
</filter>
<filter id="filter7_f_0_766" x="101.498" y="24.4475" width="23.3923" height="21.1824" filterUnits="userSpaceOnUse" color-interpolation-filters="sRGB">
<feFlood flood-opacity="0" result="BackgroundImageFix"/>
<feBlend mode="normal" in="SourceGraphic" in2="BackgroundImageFix" result="shape"/>
<feGaussianBlur stdDeviation="3.5" result="effect1_foregroundBlur_0_766"/>
</filter>
<filter id="filter8_f_0_766" x="105.365" y="28.3149" width="23.3923" height="21.1824" filterUnits="userSpaceOnUse" color-interpolation-filters="sRGB">
<feFlood flood-opacity="0" result="BackgroundImageFix"/>
<feBlend mode="normal" in="SourceGraphic" in2="BackgroundImageFix" result="shape"/>
<feGaussianBlur stdDeviation="3.5" result="effect1_foregroundBlur_0_766"/>
</filter>
<filter id="filter9_f_0_766" x="104.812" y="33.2874" width="23.3923" height="21.1824" filterUnits="userSpaceOnUse" color-interpolation-filters="sRGB">
<feFlood flood-opacity="0" result="BackgroundImageFix"/>
<feBlend mode="normal" in="SourceGraphic" in2="BackgroundImageFix" result="shape"/>
<feGaussianBlur stdDeviation="3.5" result="effect1_foregroundBlur_0_766"/>
</filter>
<filter id="filter10_f_0_766" x="100.945" y="36.0498" width="23.3923" height="21.1824" filterUnits="userSpaceOnUse" color-interpolation-filters="sRGB">
<feFlood flood-opacity="0" result="BackgroundImageFix"/>
<feBlend mode="normal" in="SourceGraphic" in2="BackgroundImageFix" result="shape"/>
<feGaussianBlur stdDeviation="3.5" result="effect1_foregroundBlur_0_766"/>
</filter>
<filter id="filter11_f_0_766" x="95.9727" y="36.6023" width="23.3923" height="21.1824" filterUnits="userSpaceOnUse" color-interpolation-filters="sRGB">
<feFlood flood-opacity="0" result="BackgroundImageFix"/>
<feBlend mode="normal" in="SourceGraphic" in2="BackgroundImageFix" result="shape"/>
<feGaussianBlur stdDeviation="3.5" result="effect1_foregroundBlur_0_766"/>
</filter>
<linearGradient id="paint0_linear_0_766" x1="21.9231" y1="20" x2="28.0128" y2="30.8974" gradientUnits="userSpaceOnUse">
<stop stop-color="#D1FF26"/>
<stop offset="1" stop-color="#3AFB21"/>
</linearGradient>
<linearGradient id="paint1_linear_0_766" x1="25.4487" y1="20" x2="25.4487" y2="30.8975" gradientUnits="userSpaceOnUse">
<stop stop-color="#FFF72E"/>
<stop offset="1"/>
</linearGradient>
<linearGradient id="paint2_linear_0_766" x1="35.7046" y1="30.2563" x2="35.7046" y2="50.1281" gradientUnits="userSpaceOnUse">
<stop stop-color="#2CFD50"/>
<stop offset="1" stop-color="#3B8BFF"/>
</linearGradient>
<linearGradient id="paint3_linear_0_766" x1="35.7044" y1="30.2564" x2="35.7044" y2="50.1282" gradientUnits="userSpaceOnUse">
<stop stop-color="#FFF72E"/>
<stop offset="1"/>
</linearGradient>
<linearGradient id="paint4_linear_0_766" x1="55.5772" y1="20" x2="55.5772" y2="60.3847" gradientUnits="userSpaceOnUse">
<stop stop-color="#FFF72E"/>
<stop offset="1"/>
</linearGradient>
<linearGradient id="paint5_linear_0_766" x1="55.5774" y1="20" x2="55.5774" y2="60.3847" gradientUnits="userSpaceOnUse">
<stop stop-color="#FFF72E"/>
<stop offset="1"/>
</linearGradient>
<linearGradient id="paint6_linear_0_766" x1="55.5772" y1="20" x2="55.5772" y2="60.3847" gradientUnits="userSpaceOnUse">
<stop stop-color="#FFF72E"/>
<stop offset="1"/>
</linearGradient>
<linearGradient id="paint7_linear_0_766" x1="98.8287" y1="32" x2="101.453" y2="36.6961" gradientUnits="userSpaceOnUse">
<stop stop-color="#D1FF26"/>
<stop offset="1" stop-color="#3AFB21"/>
</linearGradient>
<linearGradient id="paint8_linear_0_766" x1="100.349" y1="32.0001" x2="100.349" y2="36.6962" gradientUnits="userSpaceOnUse">
<stop stop-color="#FFF72E"/>
<stop offset="1"/>
</linearGradient>
<linearGradient id="paint9_linear_0_766" x1="104.768" y1="36.4199" x2="104.768" y2="44.9835" gradientUnits="userSpaceOnUse">
<stop stop-color="#2CFD50"/>
<stop offset="1" stop-color="#3B8BFF"/>
</linearGradient>
<linearGradient id="paint10_linear_0_766" x1="104.769" y1="36.42" x2="104.769" y2="44.9835" gradientUnits="userSpaceOnUse">
<stop stop-color="#FFF72E"/>
<stop offset="1"/>
</linearGradient>
<linearGradient id="paint11_linear_0_766" x1="113.331" y1="32.0001" x2="113.331" y2="49.4034" gradientUnits="userSpaceOnUse">
<stop stop-color="#FFF72E"/>
<stop offset="1"/>
</linearGradient>
<linearGradient id="paint12_linear_0_766" x1="113.331" y1="32.0001" x2="113.331" y2="49.4034" gradientUnits="userSpaceOnUse">
<stop stop-color="#FFF72E"/>
<stop offset="1"/>
</linearGradient>
<linearGradient id="paint13_linear_0_766" x1="113.331" y1="32.0001" x2="113.331" y2="49.4034" gradientUnits="userSpaceOnUse">
<stop stop-color="#FFF72E"/>
<stop offset="1"/>
</linearGradient>
<clipPath id="clip0_0_766">
<rect width="50" height="41.0256" fill="white" transform="translate(20 20)"/>
</clipPath>
<clipPath id="clip1_0_766">
<rect width="100" height="17.6796" fill="white" transform="translate(98 32)"/>
</clipPath>
</defs><path d="M69.6797 40.1924C69.6797 51.1672 60.7828 60.0641 49.8079 60.0641H42.4361C41.9051 60.0641 41.4746 59.6336 41.4746 59.1026V50.7693C41.4746 50.2382 41.9051 49.8077 42.4361 49.8077H49.8079C55.1183 49.8077 59.4233 45.5027 59.4233 40.1924C59.4233 34.882 55.1183 30.577 49.8079 30.577H42.4361C41.9051 30.577 41.4746 30.1465 41.4746 29.6154V21.2821C41.4746 20.7511 41.9051 20.3206 42.4361 20.3206H49.8079C60.7828 20.3206 69.6797 29.2175 69.6797 40.1924Z" stroke="url(#paint6_linear_0_766)" stroke-opacity="0.5" style="mix-blend-mode:overlay" stroke-width="0.5"/><path d="M119.409 40.7017C119.409 45.4312 115.575 49.2653 110.845 49.2653H107.669C107.44 49.2653 107.254 49.0797 107.254 48.8509V45.2597C107.254 45.0309 107.44 44.8454 107.669 44.8454H110.845C113.134 44.8454 114.989 42.9902 114.989 40.7017C114.989 38.4133 113.134 36.5581 110.845 36.5581H107.669C107.44 36.5581 107.254 36.3726 107.254 36.1437V32.5525C107.254 32.3237 107.44 32.1382 107.669 32.1382H110.845C115.575 32.1382 119.409 35.9722 119.409 40.7017Z" stroke="url(#paint13_linear_0_766)" stroke-opacity="0.5" style="mix-blend-mode:overlay" stroke-width="0.5"/><g clip-path="url(#clip0_0_766)">
<path d="M29.6154 20H21.2821C20.574 20 20 20.574 20 21.2821V29.6154C20 30.3234 20.574 30.8974 21.2821 30.8974H29.6154C30.3234 30.8974 30.8974 30.3234 30.8974 29.6154V21.2821C30.8974 20.574 30.3234 20 29.6154 20Z" fill="url(#paint0_linear_0_766)"/>
<path d="M29.6154 20.3206H21.282C20.751 20.3206 20.3205 20.7511 20.3205 21.2821V29.6154C20.3205 30.1465 20.751 30.577 21.282 30.577H29.6154C30.1464 30.577 30.5769 30.1465 30.5769 29.6154V21.2821C30.5769 20.7511 30.1464 20.3206 29.6154 20.3206Z" stroke="url(#paint1_linear_0_766)" stroke-opacity="0.5" style="mix-blend-mode:overlay" stroke-width="0.5"/>
<path d="M39.8712 30.2563H31.5379C30.8299 30.2563 30.2559 30.8303 30.2559 31.5384V48.8461C30.2559 49.5541 30.8299 50.1281 31.5379 50.1281H39.8712C40.5793 50.1281 41.1533 49.5541 41.1533 48.8461V31.5384C41.1533 30.8303 40.5793 30.2563 39.8712 30.2563Z" fill="url(#paint2_linear_0_766)"/>
<path d="M39.871 30.5769H31.5377C31.0067 30.5769 30.5762 31.0074 30.5762 31.5384V48.8461C30.5762 49.3772 31.0067 49.8077 31.5377 49.8077H39.871C40.4021 49.8077 40.8326 49.3772 40.8326 48.8461V31.5384C40.8326 31.0074 40.4021 30.5769 39.871 30.5769Z" stroke="url(#paint3_linear_0_766)" stroke-opacity="0.5" style="mix-blend-mode:overlay" stroke-width="0.5"/>
<path d="M70.0004 40.1923C70.0004 51.3442 60.9601 60.3846 49.8081 60.3846H42.4363C41.7283 60.3846 41.1543 59.8106 41.1543 59.1026V50.7692C41.1543 50.0612 41.7283 49.4872 42.4363 49.4872H49.8081C54.9416 49.4872 59.103 45.3258 59.103 40.1923C59.103 35.0588 54.9416 30.8974 49.8081 30.8974H42.4363C41.7283 30.8974 41.1543 30.3234 41.1543 29.6154V21.2821C41.1543 20.574 41.7283 20 42.4363 20H49.8081C60.9601 20 70.0004 29.0404 70.0004 40.1923Z" fill="white"/>
<path d="M69.6797 40.1924C69.6797 51.1672 60.7828 60.0641 49.8079 60.0641H42.4361C41.9051 60.0641 41.4746 59.6336 41.4746 59.1026V50.7693C41.4746 50.2382 41.9051 49.8077 42.4361 49.8077H49.8079C55.1183 49.8077 59.4233 45.5027 59.4233 40.1924C59.4233 34.882 55.1183 30.577 49.8079 30.577H42.4361C41.9051 30.577 41.4746 30.1465 41.4746 29.6154V21.2821C41.4746 20.7511 41.9051 20.3206 42.4361 20.3206H49.8079C60.7828 20.3206 69.6797 29.2175 69.6797 40.1924Z" stroke="url(#paint4_linear_0_766)" stroke-opacity="0.5" style="mix-blend-mode:overlay" stroke-width="0.5"/>
<mask id="mask0_0_766" style="mask-type:alpha" maskUnits="userSpaceOnUse" x="41" y="20" width="30" height="41">
<path d="M70.0004 40.1923C70.0004 51.3442 60.9601 60.3846 49.8081 60.3846H42.4363C41.7283 60.3846 41.1543 59.8106 41.1543 59.1026V50.7692C41.1543 50.0612 41.7283 49.4872 42.4363 49.4872H49.8081C54.9416 49.4872 59.103 45.3258 59.103 40.1923C59.103 35.0588 54.9416 30.8974 49.8081 30.8974H42.4363C41.7283 30.8974 41.1543 30.3234 41.1543 29.6154V21.2821C41.1543 20.574 41.7283 20 42.4363 20H49.8081C60.9601 20 70.0004 29.0404 70.0004 40.1923Z" fill="#B09090"/>
<path d="M69.6799 40.1924C69.6799 51.1672 60.783 60.0641 49.8081 60.0641H42.4363C41.9053 60.0641 41.4748 59.6336 41.4748 59.1026V50.7693C41.4748 50.2382 41.9053 49.8077 42.4363 49.8077H49.8081C55.1185 49.8077 59.4235 45.5027 59.4235 40.1924C59.4235 34.882 55.1185 30.577 49.8081 30.577H42.4363C41.9053 30.577 41.4748 30.1465 41.4748 29.6154V21.2821C41.4748 20.7511 41.9053 20.3206 42.4363 20.3206H49.8081C60.783 20.3206 69.6799 29.2175 69.6799 40.1924Z" stroke="url(#paint5_linear_0_766)" stroke-opacity="0.5" stroke-width="0.5"/>
</mask>
<g mask="url(#mask0_0_766)">
<g filter="url(#filter0_f_0_766)">
<path d="M45.001 34.1027C51.0194 34.1027 55.8984 30.3717 55.8984 25.7694C55.8984 21.167 51.0194 17.436 45.001 17.436C38.9825 17.436 34.1035 21.167 34.1035 25.7694C34.1035 30.3717 38.9825 34.1027 45.001 34.1027Z" fill="#90FC2F"/>
</g><g filter="url(#filter1_f_0_766)">
<path d="M55.257 35.3847C61.2755 35.3847 66.1544 31.6537 66.1544 27.0514C66.1544 22.449 61.2755 18.718 55.257 18.718C49.2385 18.718 44.3596 22.449 44.3596 27.0514C44.3596 31.6537 49.2385 35.3847 55.257 35.3847Z" fill="#FFB515"/>
</g><g filter="url(#filter2_f_0_766)">
<path d="M64.2314 44.3591C70.2499 44.3591 75.1288 40.6281 75.1288 36.0257C75.1288 31.4233 70.2499 27.6924 64.2314 27.6924C58.2129 27.6924 53.3339 31.4233 53.3339 36.0257C53.3339 40.6281 58.2129 44.3591 64.2314 44.3591Z" fill="#FF7E20"/>
</g><g filter="url(#filter3_f_0_766)">
<path d="M62.9502 55.8976C68.9687 55.8976 73.8476 52.1667 73.8476 47.5643C73.8476 42.9619 68.9687 39.231 62.9502 39.231C56.9317 39.231 52.0527 42.9619 52.0527 47.5643C52.0527 52.1667 56.9317 55.8976 62.9502 55.8976Z" fill="#FF6070"/>
</g><g filter="url(#filter4_f_0_766)">
<path d="M53.9756 62.3078C59.994 62.3078 64.873 58.5768 64.873 53.9744C64.873 49.3721 59.994 45.6411 53.9756 45.6411C47.9571 45.6411 43.0781 49.3721 43.0781 53.9744C43.0781 58.5768 47.9571 62.3078 53.9756 62.3078Z" fill="#E44CD0"/>
</g><g filter="url(#filter5_f_0_766)">
<path d="M42.4365 63.5898C48.455 63.5898 53.3339 59.8588 53.3339 55.2564C53.3339 50.6541 48.455 46.9231 42.4365 46.9231C36.418 46.9231 31.5391 50.6541 31.5391 55.2564C31.5391 59.8588 36.418 63.5898 42.4365 63.5898Z" fill="#6137FF"/>
</g><g clip-path="url(#clip1_0_766)">
<path d="M125.625 45.6047H129.167C132.076 45.6047 134.624 43.9251 134.624 40.356C134.624 36.7718 132.076 35.1072 129.167 35.1072H125.625V45.6047ZM127.886 43.6552V37.0418H128.941C130.674 37.0418 132.332 37.8815 132.332 40.356C132.332 42.8304 130.674 43.6552 128.941 43.6552H127.886Z" fill="black"/>
<path d="M136.541 47.0295H135.651V48.6641H136.767C138.319 48.6641 138.817 47.8993 139.314 46.5046L139.63 45.6048L142.404 38.0466H140.249L138.666 42.9355L137.068 38.0466H134.928L137.671 45.5149L137.385 46.2647C137.189 46.8045 136.872 47.0295 136.541 47.0295Z" fill="black"/>
<path d="M142.959 45.6046H145.069V41.4656C145.069 40.4909 145.717 39.786 146.637 39.786C147.511 39.786 148.099 40.446 148.099 41.3607V45.6046H150.209V40.8959C150.209 39.1562 149.094 37.9265 147.375 37.9265C146.335 37.9265 145.491 38.3614 145.069 39.0962V38.0465H142.959V45.6046Z" fill="black"/>
<path d="M154.461 45.7247C155.35 45.7247 156.149 45.3647 156.525 44.8099V45.6046H158.636V38.0465H156.525V38.7963C156.103 38.2714 155.35 37.9265 154.43 37.9265C152.215 37.9265 150.873 39.4712 150.873 41.8256C150.873 44.18 152.215 45.7247 154.461 45.7247ZM152.938 41.8256C152.938 40.5509 153.677 39.7111 154.792 39.7111C155.923 39.7111 156.661 40.5509 156.661 41.8256C156.661 43.0853 155.923 43.9251 154.792 43.9251C153.677 43.9251 152.938 43.0853 152.938 41.8256Z" fill="black"/>
<path d="M163.691 45.7248C165.921 45.7248 167.278 44.1802 167.278 41.8258C167.278 39.4713 165.921 37.9267 163.721 37.9267C162.771 37.9267 162.033 38.2866 161.611 38.8415V34.7625H159.516V45.6048H161.611V44.7801C162.033 45.3649 162.816 45.7248 163.691 45.7248ZM161.49 41.8258C161.49 40.5511 162.228 39.7113 163.344 39.7113C164.459 39.7113 165.198 40.5511 165.198 41.8258C165.198 43.0854 164.459 43.9253 163.344 43.9253C162.228 43.9253 161.49 43.0854 161.49 41.8258Z" fill="black"/>
<path d="M171.734 45.7247C174.07 45.7247 175.743 44.0751 175.743 41.8256C175.743 39.5761 174.07 37.9265 171.734 37.9265C169.398 37.9265 167.725 39.5761 167.725 41.8256C167.725 44.0751 169.398 45.7247 171.734 45.7247ZM169.835 41.8256C169.835 40.5659 170.604 39.7111 171.734 39.7111C172.864 39.7111 173.633 40.5659 173.633 41.8256C173.633 43.0703 172.864 43.9251 171.734 43.9251C170.604 43.9251 169.835 43.0703 169.835 41.8256Z" fill="black"/>
<path d="M179.906 45.7247C180.795 45.7247 181.594 45.3647 181.971 44.8099V45.6046H184.081V38.0465H181.971V38.7963C181.549 38.2714 180.795 37.9265 179.875 37.9265C177.66 37.9265 176.318 39.4712 176.318 41.8256C176.318 44.18 177.66 45.7247 179.906 45.7247ZM178.384 41.8256C178.384 40.5509 179.122 39.7111 180.237 39.7111C181.368 39.7111 182.106 40.5509 182.106 41.8256C182.106 43.0853 181.368 43.9251 180.237 43.9251C179.122 43.9251 178.384 43.0853 178.384 41.8256Z" fill="black"/>
<path d="M188.607 39.7862H189.859V38.0466H189C188.08 38.0466 187.507 38.3615 187.1 39.3063V38.0466H184.99V45.6048H187.1V41.9307C187.1 40.641 187.568 39.7862 188.607 39.7862Z" fill="black"/>
<path d="M193.478 45.7248C194.352 45.7248 195.136 45.3649 195.558 44.7801V45.6048H197.653V34.7625H195.558V38.8415C195.136 38.2866 194.397 37.9267 193.448 37.9267C191.247 37.9267 189.891 39.4713 189.891 41.8258C189.891 44.1802 191.247 45.7248 193.478 45.7248ZM191.971 41.8258C191.971 40.5511 192.709 39.7113 193.824 39.7113C194.94 39.7113 195.678 40.5511 195.678 41.8258C195.678 43.0854 194.94 43.9253 193.824 43.9253C192.709 43.9253 191.971 43.0854 191.971 41.8258Z" fill="black"/>
<path d="M102.144 32H98.5525C98.2474 32 98 32.2474 98 32.5525V36.1436C98 36.4488 98.2474 36.6961 98.5525 36.6961H102.144C102.449 36.6961 102.696 36.4488 102.696 36.1436V32.5525C102.696 32.2474 102.449 32 102.144 32Z" fill="url(#paint7_linear_0_766)"/>
<path d="M102.144 32.1382H98.553C98.3242 32.1382 98.1387 32.3237 98.1387 32.5525V36.1437C98.1387 36.3726 98.3242 36.5581 98.553 36.5581H102.144C102.373 36.5581 102.559 36.3726 102.559 36.1437V32.5525C102.559 32.3237 102.373 32.1382 102.144 32.1382Z" stroke="url(#paint8_linear_0_766)" stroke-opacity="0.5" style="mix-blend-mode:overlay" stroke-width="0.5"/>
<path d="M106.564 36.4199H102.972C102.667 36.4199 102.42 36.6673 102.42 36.9724V44.431C102.42 44.7361 102.667 44.9835 102.972 44.9835H106.564C106.869 44.9835 107.116 44.7361 107.116 44.431V36.9724C107.116 36.6673 106.869 36.4199 106.564 36.4199Z" fill="url(#paint9_linear_0_766)"/>
<path d="M106.564 36.5581H102.973C102.744 36.5581 102.559 36.7436 102.559 36.9725V44.431C102.559 44.6599 102.744 44.8454 102.973 44.8454H106.564C106.793 44.8454 106.978 44.6599 106.978 44.431V36.9725C106.978 36.7436 106.793 36.5581 106.564 36.5581Z" stroke="url(#paint10_linear_0_766)" stroke-opacity="0.5" style="mix-blend-mode:overlay" stroke-width="0.5"/>
<path d="M119.546 40.7017C119.546 45.5075 115.65 49.4033 110.845 49.4033H107.668C107.363 49.4033 107.115 49.156 107.115 48.8508V45.2597C107.115 44.9545 107.363 44.7072 107.668 44.7072H110.845C113.057 44.7072 114.85 42.9139 114.85 40.7017C114.85 38.4894 113.057 36.6961 110.845 36.6961H107.668C107.363 36.6961 107.115 36.4488 107.115 36.1436V32.5525C107.115 32.2474 107.363 32 107.668 32H110.845C115.65 32 119.546 35.8959 119.546 40.7017Z" fill="white"/>
<path d="M119.409 40.7017C119.409 45.4312 115.575 49.2653 110.845 49.2653H107.669C107.44 49.2653 107.254 49.0797 107.254 48.8509V45.2597C107.254 45.0309 107.44 44.8454 107.669 44.8454H110.845C113.134 44.8454 114.989 42.9902 114.989 40.7017C114.989 38.4133 113.134 36.5581 110.845 36.5581H107.669C107.44 36.5581 107.254 36.3726 107.254 36.1437V32.5525C107.254 32.3237 107.44 32.1382 107.669 32.1382H110.845C115.575 32.1382 119.409 35.9722 119.409 40.7017Z" stroke="url(#paint11_linear_0_766)" stroke-opacity="0.5" style="mix-blend-mode:overlay" stroke-width="0.5"/>
<mask id="mask1_0_766" style="mask-type:alpha" maskUnits="userSpaceOnUse" x="107" y="31" width="13" height="19">
<path d="M119.546 40.7017C119.546 45.5075 115.65 49.4033 110.845 49.4033H107.668C107.363 49.4033 107.115 49.156 107.115 48.8508V45.2597C107.115 44.9545 107.363 44.7072 107.668 44.7072H110.845C113.057 44.7072 114.85 42.9139 114.85 40.7017C114.85 38.4894 113.057 36.6961 110.845 36.6961H107.668C107.363 36.6961 107.115 36.4488 107.115 36.1436V32.5525C107.115 32.2474 107.363 32 107.668 32H110.845C115.65 32 119.546 35.8959 119.546 40.7017Z" fill="#B09090"/>
<path d="M119.409 40.7017C119.409 45.4312 115.575 49.2653 110.845 49.2653H107.668C107.439 49.2653 107.254 49.0797 107.254 48.8509V45.2597C107.254 45.0309 107.439 44.8454 107.668 44.8454H110.845C113.134 44.8454 114.989 42.9902 114.989 40.7017C114.989 38.4133 113.134 36.5581 110.845 36.5581H107.668C107.439 36.5581 107.254 36.3726 107.254 36.1437V32.5525C107.254 32.3237 107.439 32.1382 107.668 32.1382H110.845C115.575 32.1382 119.409 35.9722 119.409 40.7017Z" stroke="url(#paint12_linear_0_766)" stroke-opacity="0.5" stroke-width="0.5"/>
</mask>
<g mask="url(#mask1_0_766)">
<g filter="url(#filter6_f_0_766)">
<path d="M108.774 38.0773C111.368 38.0773 113.47 36.4695 113.47 34.4862C113.47 32.5028 111.368 30.895 108.774 30.895C106.181 30.895 104.078 32.5028 104.078 34.4862C104.078 36.4695 106.181 38.0773 108.774 38.0773Z" fill="#90FC2F"/>
</g><g filter="url(#filter7_f_0_766)">
<path d="M113.194 38.6298C115.788 38.6298 117.89 37.022 117.89 35.0387C117.89 33.0553 115.788 31.4475 113.194 31.4475C110.601 31.4475 108.498 33.0553 108.498 35.0387C108.498 37.022 110.601 38.6298 113.194 38.6298Z" fill="#FFB515"/>
</g><g filter="url(#filter8_f_0_766)">
<path d="M117.061 42.4973C119.655 42.4973 121.757 40.8894 121.757 38.9061C121.757 36.9228 119.655 35.3149 117.061 35.3149C114.468 35.3149 112.365 36.9228 112.365 38.9061C112.365 40.8894 114.468 42.4973 117.061 42.4973Z" fill="#FF7E20"/>
</g><g filter="url(#filter9_f_0_766)">
<path d="M116.509 47.4697C119.102 47.4697 121.205 45.8619 121.205 43.8785C121.205 41.8952 119.102 40.2874 116.509 40.2874C113.915 40.2874 111.812 41.8952 111.812 43.8785C111.812 45.8619 113.915 47.4697 116.509 47.4697Z" fill="#FF6070"/>
</g><g filter="url(#filter10_f_0_766)">
<path d="M112.641 50.2321C115.235 50.2321 117.338 48.6243 117.338 46.641C117.338 44.6576 115.235 43.0498 112.641 43.0498C110.048 43.0498 107.945 44.6576 107.945 46.641C107.945 48.6243 110.048 50.2321 112.641 50.2321Z" fill="#E44CD0"/>
</g><g filter="url(#filter11_f_0_766)">
<path d="M107.669 50.7846C110.262 50.7846 112.365 49.1768 112.365 47.1935C112.365 45.2101 110.262 43.6023 107.669 43.6023C105.075 43.6023 102.973 45.2101 102.973 47.1935C102.973 49.1768 105.075 50.7846 107.669 50.7846Z" fill="#6137FF"/>
</g></svg>