<svg  viewBox="20 16 50 50" fill="none" xmlns="http://www.w3.org/2000/svg"><defs>
<filter id="filter0_f_0_766" x="27.1035" y="10.436" width="35.7949" height="30.6667" filterUnits="userSpaceOnUse" color-interpolation-filters="sRGB">
<feFlood flood-opacity="0" result="BackgroundImageFix"/>
<feBlend mode="normal" in="SourceGraphic" in2="BackgroundImageFix" result="shape"/>
<feGaussianBlur stdDeviation="3.5" result="effect1_foregroundBlur_0_766"/>
</filter>
<filter id="filter1_f_0_766" x="37.3596" y="11.718" width="35.7949" height="30.6667" filterUnits="userSpaceOnUse" color-interpolation-filters="sRGB">
<feFlood flood-opacity="0" result="BackgroundImageFix"/>
<feBlend mode="normal" in="SourceGraphic" in2="BackgroundImageFix" result="shape"/>
<feGaussianBlur stdDeviation="3.5" result="effect1_foregroundBlur_0_766"/>
</filter>
<filter id="filter2_f_0_766" x="46.3339" y="20.6924" width="35.7949" height="30.6667" filterUnits="userSpaceOnUse" color-interpolation-filters="sRGB">
<feFlood flood-opacity="0" result="BackgroundImageFix"/>
<feBlend mode="normal" in="SourceGraphic" in2="BackgroundImageFix" result="shape"/>
<feGaussianBlur stdDeviation="3.5" result="effect1_foregroundBlur_0_766"/>
</filter>
<filter id="filter3_f_0_766" x="45.0527" y="32.231" width="35.7949" height="30.6667" filterUnits="userSpaceOnUse" color-interpolation-filters="sRGB">
<feFlood flood-opacity="0" result="BackgroundImageFix"/>
<feBlend mode="normal" in="SourceGraphic" in2="BackgroundImageFix" result="shape"/>
<feGaussianBlur stdDeviation="3.5" result="effect1_foregroundBlur_0_766"/>
</filter>
<filter id="filter4_f_0_766" x="36.0781" y="38.6411" width="35.7949" height="30.6667" filterUnits="userSpaceOnUse" color-interpolation-filters="sRGB">
<feFlood flood-opacity="0" result="BackgroundImageFix"/>
<feBlend mode="normal" in="SourceGraphic" in2="BackgroundImageFix" result="shape"/>
<feGaussianBlur stdDeviation="3.5" result="effect1_foregroundBlur_0_766"/>
</filter>
<filter id="filter5_f_0_766" x="24.5391" y="39.9231" width="35.7949" height="30.6667" filterUnits="userSpaceOnUse" color-interpolation-filters="sRGB">
<feFlood flood-opacity="0" result="BackgroundImageFix"/>
<feBlend mode="normal" in="SourceGraphic" in2="BackgroundImageFix" result="shape"/>
<feGaussianBlur stdDeviation="3.5" result="effect1_foregroundBlur_0_766"/>
</filter>
<filter id="filter6_f_0_766" x="97.0781" y="23.895" width="23.3923" height="21.1824" filterUnits="userSpaceOnUse" color-interpolation-filters="sRGB">
<feFlood flood-opacity="0" result="BackgroundImageFix"/>
<feBlend mode="normal" in="SourceGraphic" in2="BackgroundImageFix" result="shape"/>
<feGaussianBlur stdDeviation="3.5" result="effect1_foregroundBlur_0_766"/>
</filter>
<filter id="filter7_f_0_766" x="101.498" y="24.4475" width="23.3923" height="21.1824" filterUnits="userSpaceOnUse" color-interpolation-filters="sRGB">
<feFlood flood-opacity="0" result="BackgroundImageFix"/>
<feBlend mode="normal" in="SourceGraphic" in2="BackgroundImageFix" result="shape"/>
<feGaussianBlur stdDeviation="3.5" result="effect1_foregroundBlur_0_766"/>
</filter>
<filter id="filter8_f_0_766" x="105.365" y="28.3149" width="23.3923" height="21.1824" filterUnits="userSpaceOnUse" color-interpolation-filters="sRGB">
<feFlood flood-opacity="0" result="BackgroundImageFix"/>
<feBlend mode="normal" in="SourceGraphic" in2="BackgroundImageFix" result="shape"/>
<feGaussianBlur stdDeviation="3.5" result="effect1_foregroundBlur_0_766"/>
</filter>
<filter id="filter9_f_0_766" x="104.812" y="33.2874" width="23.3923" height="21.1824" filterUnits="userSpaceOnUse" color-interpolation-filters="sRGB">
<feFlood flood-opacity="0" result="BackgroundImageFix"/>
<feBlend mode="normal" in="SourceGraphic" in2="BackgroundImageFix" result="shape"/>
<feGaussianBlur stdDeviation="3.5" result="effect1_foregroundBlur_0_766"/>
</filter>
<filter id="filter10_f_0_766" x="100.945" y="36.0498" width="23.3923" height="21.1824" filterUnits="userSpaceOnUse" color-interpolation-filters="sRGB">
<feFlood flood-opacity="0" result="BackgroundImageFix"/>
<feBlend mode="normal" in="SourceGraphic" in2="BackgroundImageFix" result="shape"/>
<feGaussianBlur stdDeviation="3.5" result="effect1_foregroundBlur_0_766"/>
</filter>
<filter id="filter11_f_0_766" x="95.9727" y="36.6023" width="23.3923" height="21.1824" filterUnits="userSpaceOnUse" color-interpolation-filters="sRGB">
<feFlood flood-opacity="0" result="BackgroundImageFix"/>
<feBlend mode="normal" in="SourceGraphic" in2="BackgroundImageFix" result="shape"/>
<feGaussianBlur stdDeviation="3.5" result="effect1_foregroundBlur_0_766"/>
</filter>
<linearGradient id="paint0_linear_0_766" x1="21.9231" y1="20" x2="28.0128" y2="30.8974" gradientUnits="userSpaceOnUse">
<stop stop-color="#D1FF26"/>
<stop offset="1" stop-color="#3AFB21"/>
</linearGradient>
<linearGradient id="paint1_linear_0_766" x1="25.4487" y1="20" x2="25.4487" y2="30.8975" gradientUnits="userSpaceOnUse">
<stop stop-color="#FFF72E"/>
<stop offset="1"/>
</linearGradient>
<linearGradient id="paint2_linear_0_766" x1="35.7046" y1="30.2563" x2="35.7046" y2="50.1281" gradientUnits="userSpaceOnUse">
<stop stop-color="#2CFD50"/>
<stop offset="1" stop-color="#3B8BFF"/>
</linearGradient>
<linearGradient id="paint3_linear_0_766" x1="35.7044" y1="30.2564" x2="35.7044" y2="50.1282" gradientUnits="userSpaceOnUse">
<stop stop-color="#FFF72E"/>
<stop offset="1"/>
</linearGradient>
<linearGradient id="paint4_linear_0_766" x1="55.5772" y1="20" x2="55.5772" y2="60.3847" gradientUnits="userSpaceOnUse">
<stop stop-color="#FFF72E"/>
<stop offset="1"/>
</linearGradient>
<linearGradient id="paint5_linear_0_766" x1="55.5774" y1="20" x2="55.5774" y2="60.3847" gradientUnits="userSpaceOnUse">
<stop stop-color="#FFF72E"/>
<stop offset="1"/>
</linearGradient>
<linearGradient id="paint6_linear_0_766" x1="55.5772" y1="20" x2="55.5772" y2="60.3847" gradientUnits="userSpaceOnUse">
<stop stop-color="#FFF72E"/>
<stop offset="1"/>
</linearGradient>
<linearGradient id="paint7_linear_0_766" x1="98.8287" y1="32" x2="101.453" y2="36.6961" gradientUnits="userSpaceOnUse">
<stop stop-color="#D1FF26"/>
<stop offset="1" stop-color="#3AFB21"/>
</linearGradient>
<linearGradient id="paint8_linear_0_766" x1="100.349" y1="32.0001" x2="100.349" y2="36.6962" gradientUnits="userSpaceOnUse">
<stop stop-color="#FFF72E"/>
<stop offset="1"/>
</linearGradient>
<linearGradient id="paint9_linear_0_766" x1="104.768" y1="36.4199" x2="104.768" y2="44.9835" gradientUnits="userSpaceOnUse">
<stop stop-color="#2CFD50"/>
<stop offset="1" stop-color="#3B8BFF"/>
</linearGradient>
<linearGradient id="paint10_linear_0_766" x1="104.769" y1="36.42" x2="104.769" y2="44.9835" gradientUnits="userSpaceOnUse">
<stop stop-color="#FFF72E"/>
<stop offset="1"/>
</linearGradient>
<linearGradient id="paint11_linear_0_766" x1="113.331" y1="32.0001" x2="113.331" y2="49.4034" gradientUnits="userSpaceOnUse">
<stop stop-color="#FFF72E"/>
<stop offset="1"/>
</linearGradient>
<linearGradient id="paint12_linear_0_766" x1="113.331" y1="32.0001" x2="113.331" y2="49.4034" gradientUnits="userSpaceOnUse">
<stop stop-color="#FFF72E"/>
<stop offset="1"/>
</linearGradient>
<linearGradient id="paint13_linear_0_766" x1="113.331" y1="32.0001" x2="113.331" y2="49.4034" gradientUnits="userSpaceOnUse">
<stop stop-color="#FFF72E"/>
<stop offset="1"/>
</linearGradient>
<clipPath id="clip0_0_766">
<rect width="50" height="41.0256" fill="white" transform="translate(20 20)"/>
</clipPath>
<clipPath id="clip1_0_766">
<rect width="100" height="17.6796" fill="white" transform="translate(98 32)"/>
</clipPath>
</defs><path d="M69.6797 40.1924C69.6797 51.1672 60.7828 60.0641 49.8079 60.0641H42.4361C41.9051 60.0641 41.4746 59.6336 41.4746 59.1026V50.7693C41.4746 50.2382 41.9051 49.8077 42.4361 49.8077H49.8079C55.1183 49.8077 59.4233 45.5027 59.4233 40.1924C59.4233 34.882 55.1183 30.577 49.8079 30.577H42.4361C41.9051 30.577 41.4746 30.1465 41.4746 29.6154V21.2821C41.4746 20.7511 41.9051 20.3206 42.4361 20.3206H49.8079C60.7828 20.3206 69.6797 29.2175 69.6797 40.1924Z" stroke="url(#paint6_linear_0_766)" stroke-opacity="0.5" style="mix-blend-mode:overlay" stroke-width="0.5"/><path d="M119.409 40.7017C119.409 45.4312 115.575 49.2653 110.845 49.2653H107.669C107.44 49.2653 107.254 49.0797 107.254 48.8509V45.2597C107.254 45.0309 107.44 44.8454 107.669 44.8454H110.845C113.134 44.8454 114.989 42.9902 114.989 40.7017C114.989 38.4133 113.134 36.5581 110.845 36.5581H107.669C107.44 36.5581 107.254 36.3726 107.254 36.1437V32.5525C107.254 32.3237 107.44 32.1382 107.669 32.1382H110.845C115.575 32.1382 119.409 35.9722 119.409 40.7017Z" stroke="url(#paint13_linear_0_766)" stroke-opacity="0.5" style="mix-blend-mode:overlay" stroke-width="0.5"/></svg>