<svg width="172" height="69" viewBox="0 0 172 69" fill="none" xmlns="http://www.w3.org/2000/svg">
<path d="M79.0117 25.7759C75.4992 25.7759 72.669 27.1897 70.3714 30.0952C68.8236 27.3056 66.0884 25.7759 62.6248 25.7759C58.8023 25.7759 56.5566 27.7596 55.0299 29.703V26.3124H48.6154V52.0781H55.0299V37.7864C55.0299 34.0612 57.0923 31.6543 60.284 31.6543C63.4372 31.6543 65.2458 33.836 65.2458 37.6399V52.0781H71.6603V37.7864C71.6603 34.0037 73.6738 31.6543 76.9148 31.6543C80.1142 31.6543 81.8765 33.797 81.8765 37.6887V52.0781H88.2906V35.8845C88.2906 29.5547 84.8222 25.7759 79.0117 25.7759Z" fill="#232B32"/>
<path d="M132.78 42.111C132.78 44.8777 129.824 48.0439 125.948 48.0439C123.138 48.0439 121.084 46.6396 121.084 44.1704V44.0735C121.084 41.411 123.187 39.813 126.966 39.813C129.291 39.813 131.278 40.2488 132.78 40.8299V42.111ZM126.943 25.7578C122.752 25.7578 119.908 26.6053 117.014 27.9015L118.584 32.6012C120.979 31.6042 123.201 31.0357 126.144 31.0357C130.385 31.0357 132.68 32.8135 132.68 36.5526V36.7683C130.635 36.1202 128.539 35.7151 125.595 35.7151C119.16 35.7151 114.676 38.5069 114.676 44.1903V44.5063C114.676 49.7906 119.11 52.719 124.049 52.719C128.09 52.719 130.834 51.4963 132.63 49.3526V52.0839H139V36.8254C139 32.7335 137.836 30.5934 135.89 28.6992C134.044 26.8046 130.884 25.7578 126.943 25.7578ZM159.29 44.7134C157.949 46.1398 156.298 46.8527 154.337 46.8527C152.314 46.8527 150.636 46.1514 149.303 44.7484C147.97 43.3463 147.303 41.5083 147.303 39.2358C147.303 37.0109 147.97 35.2084 149.303 33.8291C150.636 32.4499 152.314 31.7603 154.337 31.7603C156.345 31.7603 158.007 32.462 159.325 33.8642C160.642 35.2672 161.301 37.0654 161.301 39.2596C161.301 41.4694 160.63 43.2875 159.29 44.7134ZM164.195 29.621C161.858 27.0977 159.019 25.8361 155.679 25.8361C154.141 25.8361 152.698 26.1262 151.35 26.706C150.001 27.2858 148.746 28.1557 147.586 29.3153V18.0039H141.211V52.0713H147.586V49.3682C148.84 50.5594 150.103 51.4172 151.373 51.9421C152.644 52.4669 154.016 52.7298 155.49 52.7298C158.799 52.7298 161.662 51.4483 164.077 48.8861C166.492 46.3235 167.7 43.1383 167.7 39.3301C167.7 35.3805 166.531 32.1447 164.195 29.621ZM101.045 17.4409H94.6746V52.0713H113.315V45.7947H101.045V17.4409Z" fill="#ECA52E"/>
<path d="M31.7612 58.6814L30.4676 60.8445L29.0372 60.8443L29.0434 62.1109C29.0434 62.893 28.4082 63.5286 27.6252 63.5286C26.8422 63.5286 26.2071 62.893 26.2071 62.1109L26.2017 60.8443H21.1777L21.1839 62.1109C21.1839 62.893 20.5487 63.5286 19.7662 63.5286C18.9832 63.5286 18.348 62.893 18.348 62.1109L18.3426 60.8443H13.3189L13.3253 62.1109C13.3253 62.893 12.6897 63.5286 11.9067 63.5286C11.1237 63.5286 10.4886 62.893 10.4886 62.1109L10.4834 60.8443L8.95844 60.8445L7.76382 58.6814H31.7612Z" fill="#4273A5"/>
<path d="M19.7716 5.27148H19.786C19.899 5.27383 20.0094 5.33128 20.0596 5.46259C20.2001 5.82707 20.4358 6.26246 20.6416 6.65936C20.741 6.8522 20.9732 7.09691 21.3874 7.1903C28.5058 7.94521 34.0426 13.5931 34.0863 20.466H34.0915V45.4815H5.43326V20.466H5.43888C5.48211 13.5914 11.0224 7.94218 18.1434 7.18944C18.5204 7.09691 18.7898 6.8509 18.8901 6.65807C19.0967 6.259 19.3237 5.81756 19.4725 5.45654C19.5188 5.34449 19.6452 5.27409 19.7716 5.27148Z" fill="url(#paint0_linear_0_8991)"/>
<path d="M18.9354 21.3908C18.5251 21.3908 18.0798 21.3908 17.5527 21.3908C15.9673 21.3908 15.3014 22.4129 15.3014 23.7009C15.3014 26.6341 16.9051 28.4223 16.9051 30.569C16.9051 32.7866 16.0321 34.5074 13.3804 35.0798C16.0321 35.6523 16.9051 36.6856 16.9051 38.9032C16.9051 41.0853 15.3014 43.7327 15.3014 46.6299C15.3014 47.9171 15.7641 48.7048 17.1204 48.7048H17.8908V52.2095H16.1644C12.4647 52.2095 10.7694 49.8138 10.7694 46.952C10.7694 43.0171 13.4211 40.477 13.4211 38.3307C13.4211 37.0791 12.9801 36.3946 11.2532 36.3946H9.83508V33.7948H11.2532C12.9801 33.7948 13.4211 33.2518 13.4211 32.0351C13.4211 29.8889 11.7785 26.8809 11.7785 22.9819C11.7785 20.3186 15.0022 16.7321 18.9354 18.6488V21.3908ZM28.5083 36.3946C26.7811 36.3946 26.2475 37.0791 26.2475 38.3307C26.2475 40.477 28.8996 43.0171 28.8996 46.952C28.8996 49.8138 27.2035 52.2095 23.5033 52.2095H21.7773V48.7048H22.5474C23.9046 48.7048 24.3667 47.9171 24.3667 46.6299C24.3667 43.7327 22.7636 41.0853 22.7636 38.9032C22.7636 36.6856 23.4929 35.6523 26.1446 35.0798C23.4929 34.5074 22.7636 32.7866 22.7636 30.569C22.7636 28.4223 24.3667 26.6341 24.3667 23.7009C24.3667 22.4129 23.7018 21.3908 22.115 21.3908C21.5292 21.3908 21.0436 21.3908 20.5896 21.3908V18.7041C24.5777 16.6608 27.8901 20.2926 27.8901 22.9819C27.8901 26.8809 26.2475 29.8889 26.2475 32.0351C26.2475 33.2518 26.7811 33.7948 28.5083 33.7948H29.69V36.3946H28.5083Z" fill="#152331"/>
<path d="M33.7083 47.1277C33.5549 47.5704 33.493 48.0905 33.4701 48.5251C33.4701 48.535 33.4714 48.5445 33.4714 48.5536V57.5325C33.4714 58.3155 32.8367 58.9506 32.0533 58.9506H7.47093C6.68792 58.9506 6.05278 58.3155 6.05278 57.5325V48.5536C6.05278 48.5428 6.05408 48.5324 6.05494 48.5207C6.0316 48.0901 5.9689 47.5756 5.81628 47.1359C5.4665 46.1263 4.29999 45.7186 4.29999 45.7186L4.37781 45.1682H35.1464L35.2251 45.7186C35.2251 45.7186 34.0594 46.1185 33.7083 47.1277Z" fill="#5488B5"/>
<path d="M15.6198 49.9947C16.2208 49.9947 16.7077 50.4819 16.7077 51.0825C16.7077 51.6835 16.2208 52.1703 15.6198 52.1703H6.05211V49.9947H15.6198ZM33.469 49.9912V52.1669H23.9017C23.3007 52.1669 22.8139 51.6796 22.8139 51.079C22.8139 50.478 23.3007 49.9912 23.9017 49.9912H33.469Z" fill="#87B4D5"/>
<defs>
<linearGradient id="paint0_linear_0_8991" x1="34.0915" y1="25.3765" x2="5.43326" y2="25.3765" gradientUnits="userSpaceOnUse">
<stop stop-color="#F8C41B"/>
<stop offset="1" stop-color="#F9AC18"/>
</linearGradient>
</defs>
</svg>
