<svg width="48" height="48" viewBox="0 0 48 48" fill="none" xmlns="http://www.w3.org/2000/svg">
<path fill-rule="evenodd" clip-rule="evenodd" d="M22.5 36.2143C34.098 36.2143 43.5 29.7864 43.5 21.8571C43.5 13.9279 34.098 7.5 22.5 7.5C10.902 7.5 1.5 13.9279 1.5 21.8571C1.5 29.7864 10.902 36.2143 22.5 36.2143ZM25.335 32.5714C33.9755 32.5714 40.98 29.7856 40.98 22.8214C40.98 15.8571 33.9755 13.0714 25.335 13.0714C16.6945 13.0714 9.68999 17.4366 9.68999 22.8214C9.68999 28.2061 16.6945 32.5714 25.335 32.5714Z" fill="url(#paint0_linear_0_5703)"/>
<path fill-rule="evenodd" clip-rule="evenodd" d="M34.05 29.5714H33.42L34.8369 30.1497C35.9579 30.6073 36.8901 31.4451 37.4764 32.5221L41.82 40.5H33.84L30.1073 33.2632C29.7985 32.6645 29.3815 32.131 28.8781 31.6908L28.6418 31.4841C28.3373 31.2178 27.9495 31.0714 27.5485 31.0714H25.86V40.5H18.72V16.3928L34.05 16.314C36.78 16.314 39.72 19.2069 39.72 22.9427C39.72 26.6785 36.78 29.5714 34.05 29.5714ZM26.07 21.6428L30.48 21.6456C31.533 21.7013 32.37 22.5902 32.37 23.6786C32.37 24.7669 31.533 25.6586 30.48 25.7143H26.07V21.6428Z" fill="url(#paint1_linear_0_5703)"/>
<defs>
<linearGradient id="paint0_linear_0_5703" x1="5.805" y1="13.7143" x2="43.6644" y2="26.7362" gradientUnits="userSpaceOnUse">
<stop stop-color="#C8CBCD"/>
<stop offset="1" stop-color="#88888F"/>
</linearGradient>
<linearGradient id="paint1_linear_0_5703" x1="41.82" y1="40.5" x2="14.6968" y2="17.7913" gradientUnits="userSpaceOnUse">
<stop stop-color="#185DAC"/>
<stop offset="1" stop-color="#2F72C4"/>
</linearGradient>
</defs>
</svg>
