<svg width="222" height="54" viewBox="0 0 222 54" fill="none" xmlns="http://www.w3.org/2000/svg">
<path d="M69.2019 37.0631C68.5426 37.9501 67.7755 38.7976 66.9005 39.6055C63.5965 42.5313 59.8139 43.9937 55.5531 43.9926C51.3587 43.9914 47.8175 42.5499 44.9296 39.6676L44.6568 44.1117H37.4304L38.5533 25.0894C38.6819 22.9972 36.7221 21.301 34.6711 21.301C32.6201 21.301 30.5294 22.9972 30.4011 25.0894L29.2782 44.1117H21.6795L22.8024 25.0894C22.9307 22.9972 20.7486 21.2063 18.6976 21.2063C16.6468 21.2063 14.7788 22.997 14.6505 25.0894L13.5276 44.1117H6.24341L8.06367 15.0962H13.6338C15.1258 14.3249 17.0378 13.8867 18.7813 13.8867C22.0167 13.8867 25.2979 15.3885 27.0684 17.7456C29.128 15.3885 31.8687 13.8867 35.1041 13.8867C39.2117 13.8867 43.1078 16.3066 44.8786 19.8252C45.3231 19.3154 45.8057 18.82 46.3266 18.3391C49.6302 15.413 53.3959 13.9509 57.6234 13.952C61.8847 13.9532 65.4654 15.4173 68.3657 18.3449C69.1274 19.1511 69.7761 19.9978 70.3121 20.885C70.9714 19.9956 71.7386 19.147 72.6136 18.3391C75.9172 15.413 79.6829 13.9509 83.9103 13.952C88.1717 13.9532 91.7524 15.4173 94.6526 18.3449C97.4807 21.3384 98.7526 24.8903 98.4695 29.0009C98.1885 33.0787 96.428 36.6137 93.1874 39.6055C89.8835 42.5313 86.1008 43.9937 81.84 43.9926C77.6126 43.9914 74.0486 42.527 71.1483 39.5991C70.3867 38.7932 69.7379 37.9478 69.2019 37.0631ZM63.0223 23.131C61.4624 21.5191 59.5066 20.7126 57.1538 20.7121C54.8013 20.7112 52.717 21.5168 50.901 23.1279C49.1167 24.7721 48.1469 26.7287 47.9904 28.9978C47.8339 31.2674 48.5338 33.2246 50.0917 34.8697C51.6856 36.4819 53.6589 37.2875 56.0114 37.2883C58.3639 37.2892 60.4307 36.4839 62.213 34.8728C64.031 33.2284 65.0186 31.2711 65.1751 29.0021C65.3314 26.7333 64.6133 24.7764 63.0223 23.131ZM89.3092 23.131C87.7493 21.5191 85.7936 20.7126 83.4408 20.7121C81.0883 20.7112 79.0039 21.5168 77.188 23.1279C75.4037 24.7721 74.4338 26.7287 74.2773 28.9978C74.1208 31.2674 74.8208 33.2246 76.3787 34.8697C77.9725 36.4819 79.9458 37.2875 82.2983 37.2883C84.6508 37.2892 86.7177 36.4839 88.4999 34.8728C90.3179 33.2284 91.3056 31.2711 91.4621 29.0021C91.6183 26.7333 90.9002 24.7764 89.3092 23.131Z" fill="#414347"/>
<path d="M147.894 37.0452C147.232 37.9389 146.46 38.7925 145.579 39.6059C142.275 42.5318 138.493 43.9942 134.232 43.993C130.005 43.9919 126.441 42.5275 123.54 39.5996C120.712 36.607 119.439 33.0712 119.72 28.993C119.94 25.7996 121.053 22.9438 123.057 20.4257H111.392L110.574 32.3387C110.329 35.8923 111.259 37.0638 114.09 37.0638C115.475 37.0638 116.728 37.0679 116.728 37.0679L116.342 43.7637C116.342 43.7637 113.584 43.7493 111.236 43.7493C108.525 43.7493 106.297 42.8785 105.015 41.3724C103.564 39.6862 103.024 37.0362 103.289 33.1813L103.802 20.4251H99.9485L100.4 13.8486L136.495 13.8492L136.488 13.9535C140.668 13.9965 144.186 15.4603 147.045 18.3453C147.812 19.1571 148.464 20.01 149.002 20.9039C149.664 20.0078 150.436 19.153 151.317 18.3396C154.621 15.4134 158.387 13.9513 162.614 13.9525C166.875 13.9536 170.456 15.4177 173.356 18.3453C176.184 21.3388 177.456 24.8908 177.173 29.0014C176.892 33.0792 175.132 36.6142 171.891 39.6059C168.587 42.5318 164.804 43.9942 160.544 43.993C156.316 43.9919 152.752 42.5275 149.852 39.5996C149.085 38.7881 148.433 37.9366 147.894 37.0452ZM141.701 23.1315C140.141 21.5195 138.186 20.7131 135.833 20.7125C133.48 20.7117 131.396 21.5172 129.58 23.1283C127.796 24.7725 126.826 26.7291 126.669 28.9982C126.513 31.2679 127.213 33.2251 128.771 34.8701C130.364 36.4824 132.338 37.2879 134.69 37.2888C137.043 37.2897 139.11 36.4844 140.892 34.8733C142.71 33.2288 143.698 31.2716 143.854 29.0025C144.01 26.7338 143.292 24.7768 141.701 23.1315ZM168.013 23.1315C166.453 21.5195 164.497 20.7131 162.144 20.7125C159.792 20.7117 157.708 21.5172 155.892 23.1283C154.107 24.7725 153.137 26.7291 152.981 28.9982C152.824 31.2679 153.524 33.2251 155.082 34.8701C156.676 36.4824 158.649 37.2879 161.002 37.2888C163.354 37.2897 165.421 36.4844 167.204 34.8733C169.022 33.2288 170.009 31.2716 170.166 29.0025C170.322 26.7338 169.604 24.7768 168.013 23.1315Z" fill="#6E788C"/>
<path d="M195.982 12.6559C195.859 8.52545 189.098 4.44043 189.098 4.44043L187.917 4.72439L190.132 11.2413C190.132 11.2413 190.071 13.0078 188.31 13.5173C186.55 14.0271 185.315 12.7086 185.315 12.7086L183.588 6.16403L182.364 6.66779C182.364 6.66779 179.002 15.7185 179.45 16.8474C180.091 19.7681 181.971 22.3283 182.183 26.7387C182.394 31.1488 179.322 41.3754 179.024 44.0248C178.727 46.6745 181.058 48.7795 183.356 48.8391C185.655 48.8987 187.89 46.9455 187.957 44.8171C188.025 42.6887 187.795 32.4219 188.342 27.8901C188.89 23.3586 196.105 16.7861 195.982 12.6559ZM183.58 46.709C182.347 46.778 181.292 45.8341 181.223 44.6002C181.154 43.3665 182.097 42.3104 183.33 42.2413C184.563 42.1723 185.619 43.1165 185.688 44.3501C185.757 45.5841 184.813 46.6402 183.58 46.709Z" fill="#414347"/>
<path d="M198.7 38.2728C198.7 38.2728 196.893 40.3364 194.547 43.1893C199.365 46.6123 206.035 47.3649 210.291 42.6869C211.531 41.3244 214.03 37.8056 211.367 32.7337C208.705 27.6622 201.625 25.2237 203.934 21.99C205.683 19.5408 210.102 21.7506 211.832 23.4805C212.529 22.8464 214.742 20.7071 215.757 19.5025C211.063 13.6352 201.005 13.038 197.537 19.1671C191.803 29.3024 208.261 33.871 205.114 38.6321C203.033 41.7807 198.7 38.2728 198.7 38.2728Z" fill="#6E788C"/>
</svg>
