<svg width="48" height="48" viewBox="0 0 48 48" fill="none" xmlns="http://www.w3.org/2000/svg">
<ellipse cx="15.75" cy="15" rx="12.75" ry="12" fill="#184AA9"/>
<circle cx="33" cy="33" r="12" fill="#2173F0"/>
<circle cx="24" cy="24" r="19.5" fill="url(#paint0_linear_0_5342)"/>
<path d="M24.1031 13.5C27.2732 13.5 31.5 15 30.4433 17C28.999 19.7336 26.2165 17 24.1031 17C21.9898 17 20.9331 18 20.9331 19C20.9331 20 21.4614 21 24.1031 22C26.7449 23 31.5 24.5 31.5 28.5C31.5 32.5 27.8016 34.5 23.0465 34.5C18.7868 34.5 15.6496 32.5 16.7063 30.5C17.9215 28.2 20.9331 31 23.0465 31C25.1598 31 27.2732 30.5 27.2732 28.5C27.2732 26.5 24.1031 26 21.9897 25C19.348 23.75 16.7063 22.5 16.7063 19C16.7063 15.5 20.9331 13.5 24.1031 13.5Z" fill="white"/>
<defs>
<linearGradient id="paint0_linear_0_5342" x1="8.83333" y1="12.0833" x2="38.0833" y2="36.4583" gradientUnits="userSpaceOnUse">
<stop stop-color="#297AC0"/>
<stop offset="1" stop-color="#48B0F9"/>
</linearGradient>
</defs>
</svg>
