<svg width="199" height="60" viewBox="0 0 199 60" fill="none" xmlns="http://www.w3.org/2000/svg">
<path d="M52.1826 22.8301C52.1826 26.1178 54.4073 28.7348 58.0055 28.7348C59.935 28.7348 61.5387 27.9341 62.6017 26.9842V22.4217H57.8755V23.5826H61.359V26.4283C60.5736 27.0668 59.363 27.5739 58.0545 27.5739C55.2745 27.5739 53.524 25.5457 53.524 22.7972C53.524 20.2291 55.3395 18.087 57.8755 18.087C59.4945 18.087 60.4749 18.6269 61.359 19.3955L62.1926 18.4136C61.0485 17.4492 59.8539 16.8925 57.9237 16.8925C54.4891 16.8925 52.1826 19.6739 52.1826 22.8301Z" fill="#8CC63F"/>
<path fill-rule="evenodd" clip-rule="evenodd" d="M74.1661 24.0896L77.4867 28.539H79.0728L75.5565 23.8609C77.3552 23.5336 78.6644 22.4217 78.6644 20.5075C78.6644 18.4464 77.0439 17.089 74.5256 17.089H69.602V28.539H70.8945V24.0896H74.1661ZM70.8945 18.2835H74.4277C76.2761 18.2835 77.3552 19.1339 77.3552 20.5572C77.3552 22.0446 76.1285 22.9287 74.4108 22.9287H70.8945V18.2835Z" fill="#8CC63F"/>
<path d="M93.7939 18.2667H86.8094V22.1762H93.0582V23.3539H86.8094V27.3605H93.8758V28.539H85.5169V17.089H93.7939V18.2667Z" fill="#8CC63F"/>
<path d="M101.857 18.2667H108.842V17.089H100.565V28.539H108.923V27.3605H101.857V23.3539H108.106V22.1762H101.857V18.2667Z" fill="#8CC63F"/>
<path d="M124.036 17.089H125.295V28.539H124.266L116.873 19.15V28.539H115.613V17.089H116.823L124.036 26.2653V17.089Z" fill="#8CC63F"/>
<path d="M133.915 17.089H132.624V28.539H140.361V27.3452H133.915V17.089Z" fill="#8CC63F"/>
<path d="M147.263 28.5385H145.971V17.0885H147.263V28.5385Z" fill="#8CC63F"/>
<path d="M153.216 22.8301C153.216 26.1178 155.441 28.7348 159.039 28.7348C160.969 28.7348 162.572 27.9341 163.635 26.9842V22.4217H158.909V23.5826H162.393V26.4283C161.606 27.0668 160.397 27.5739 159.088 27.5739C156.308 27.5739 154.558 25.5457 154.558 22.7972C154.558 20.2291 156.373 18.087 158.909 18.087C160.528 18.087 161.508 18.6269 162.393 19.3955L163.226 18.4136C162.082 17.4492 160.887 16.8925 158.957 16.8925C155.523 16.8925 153.216 19.6739 153.216 22.8301Z" fill="#8CC63F"/>
<path d="M171.601 23.3863V28.5385H170.309V17.0893H171.601V22.1757H178.209V17.0893H179.501V28.5385H178.209V23.3863H171.601Z" fill="#8CC63F"/>
<path d="M188.874 28.5387H190.182V18.2833H194.025V17.0887H185.029V18.2833H188.874V28.5387Z" fill="#8CC63F"/>
<path d="M131.635 42.1042C131.635 44.1285 133.128 45.7208 135.151 45.7208C136.423 45.7208 137.225 45.229 137.956 44.4887L137.436 43.9779C136.763 44.6195 136.133 44.9889 135.171 44.9889C133.629 44.9889 132.457 43.7163 132.457 42.0836C132.457 40.4508 133.618 39.1989 135.171 39.1989C136.123 39.1989 136.785 39.6004 137.375 40.161L137.917 39.5805C137.215 38.919 136.454 38.4678 135.181 38.4678C133.118 38.4678 131.635 40.0998 131.635 42.1042Z" fill="#808285"/>
<path d="M101.534 39.3092H97.2559V41.7044H101.083V42.424H97.2559V44.8782H101.583V45.6001H96.4651V38.588H101.534V39.3092Z" fill="#808285"/>
<path d="M85.1291 43.6774H85.0894L82.5343 39.9309V45.6H81.7634V38.5879H82.5641L85.1184 42.4156L87.6743 38.5879H88.475V45.6H87.6834V39.9209L85.1291 43.6774Z" fill="#808285"/>
<path fill-rule="evenodd" clip-rule="evenodd" d="M109.183 45.5995H111.617C113.821 45.5995 115.343 44.0669 115.343 42.0839C115.343 40.1001 113.821 38.5874 111.617 38.5874H109.183V45.5995ZM109.974 39.3193H111.617C113.391 39.3193 114.522 40.5421 114.522 42.1038C114.522 43.6669 113.391 44.8692 111.617 44.8692H109.974V39.3193Z" fill="#808285"/>
<path d="M123.884 45.5996H123.094V38.5875H123.884V45.5996Z" fill="#808285"/>
<path fill-rule="evenodd" clip-rule="evenodd" d="M151.877 45.5995H151.025L150.204 43.7465H146.387L145.556 45.5995H144.744L147.939 38.5377H148.681L151.877 45.5995ZM148.3 39.4593L146.697 43.0353H149.893L148.3 39.4593Z" fill="#808285"/>
<path d="M160.056 38.5878H159.264V45.5999H164.004V44.8695H160.056V38.5878Z" fill="#808285"/>
<path fill-rule="evenodd" clip-rule="evenodd" d="M16.8072 51.2146C16.8072 53.4839 18.6456 55.3263 20.9182 55.3263C23.1897 55.3263 25.0276 53.4835 25.0276 51.2146C25.0276 50.3801 24.7788 49.6032 24.351 48.9546L26.3044 48.5648C27.912 48.2813 28.9923 46.7521 28.7207 45.1412C28.4488 43.5241 26.9145 42.428 25.291 42.7053L16.1225 44.2635C15.8464 44.3098 15.5855 44.1237 15.5394 43.849L15.5391 43.8471C15.4925 43.5722 15.6775 43.3107 15.9545 43.264L26.2483 41.5242C27.8662 41.2513 28.9599 39.7173 28.6854 38.098L13.0317 37.2111C13.3057 38.828 14.8375 39.9232 16.4586 39.6497L25.6704 38.0939C25.9458 38.047 26.2068 38.232 26.2534 38.5087L26.2537 38.5101C26.2999 38.7826 26.1151 39.0454 25.8381 39.0922L15.5445 40.832C13.9255 41.1052 12.8333 42.6387 13.1072 44.2583C13.3797 45.8781 14.9143 46.9685 16.5328 46.6955L25.7063 45.1365C25.981 45.0895 26.2423 45.2752 26.2885 45.5501L26.2887 45.5509C26.3352 45.8266 26.1485 46.0897 25.8723 46.1365L25.8546 46.1395L21.0143 47.1055C20.9824 47.1047 20.9503 47.1044 20.9182 47.1044C18.646 47.1044 16.8072 48.9463 16.8072 51.2146ZM22.5613 51.2146C22.5613 50.3922 21.957 49.7103 21.1685 49.5897L21.1384 49.5957L21.1363 49.5851C21.065 49.5756 20.9922 49.5707 20.9182 49.5707C20.009 49.5707 19.2736 50.3076 19.2736 51.2146C19.2736 52.1235 20.0094 52.8599 20.9182 52.8599C21.825 52.8599 22.5613 52.1239 22.5613 51.2146Z" fill="#8CC63F"/>
<path d="M13.0317 37.2111L28.6852 38.0973C28.4116 36.4785 26.8779 35.3871 25.2576 35.6623L16.0481 37.2178C15.7743 37.2638 15.5106 37.0783 15.4633 36.7989C15.427 36.5848 15.5337 36.3753 15.7184 36.2731L15.881 36.2164L25.9735 34.5374L27.9028 34.1934C28.4113 33.0981 28.8865 32.7354 29.6 32.1909C29.9342 31.9358 30.3207 31.6409 30.7874 31.212L30.9004 31.1081C32.3254 29.7993 33.997 28.2639 35.5068 25.8408C38.8171 20.5282 37.5952 10.3785 28.354 5.81292C28.0441 4.97259 27.236 4.37366 26.2884 4.37366C25.0724 4.37366 24.0866 5.35867 24.0866 6.57464C24.0866 7.78984 25.0724 8.77639 26.2884 8.77639C26.7469 8.77639 27.1728 8.63593 27.5253 8.39574C34.9953 12.333 35.6833 20.4962 33.2351 24.4253C31.9195 26.5367 30.476 27.863 29.0439 29.179L28.9762 29.2411C28.0732 30.071 27.1456 30.9254 26.3332 31.9773L16.9791 33.5334C15.9834 31.5466 14.5521 30.2265 13.1774 28.9632L13.1097 28.901C11.6776 27.5851 10.2341 26.2588 8.91852 24.1474C6.51488 20.2898 7.13433 12.3507 14.2272 8.33688C14.595 8.61283 15.052 8.77639 15.5474 8.77639C16.7626 8.77639 17.7484 7.78984 17.7484 6.57464C17.7484 5.35867 16.7626 4.37366 15.5474 4.37366C14.6553 4.37366 13.8878 4.90312 13.5417 5.66489C4.53591 10.2905 3.36754 20.3001 6.64677 25.5629C8.15659 27.986 9.82821 29.5214 11.2532 30.8302L11.3662 30.934C12.6027 32.0704 13.591 33.0063 14.3182 34.24C13.3721 34.8693 12.8289 36.0147 13.0317 37.2111Z" fill="#8CC63F"/>
<path d="M22.3411 24.591V21.2138H25.7183V18.5371H22.3411V15.1577H19.6644V18.5371H16.2858V21.2138H19.6644V24.591H22.3411Z" fill="#8CC63F"/>
</svg>
