<svg width="48" height="48" viewBox="0 0 48 48" fill="none" xmlns="http://www.w3.org/2000/svg">
<circle cx="24" cy="24" r="21" fill="black"/>
<path fill-rule="evenodd" clip-rule="evenodd" d="M23.1679 9.25192C23.6718 8.91603 24.3282 8.91603 24.8321 9.25192L38.3321 18.2519C38.7493 18.5301 39 18.9985 39 19.5V28.5C39 29.0015 38.7493 29.4699 38.3321 29.7481L24.8321 38.7481C24.3282 39.084 23.6718 39.084 23.1679 38.7481L9.66795 29.7481C9.25065 29.4699 9 29.0015 9 28.5V19.5C9 18.9985 9.25065 18.5301 9.66795 18.2519L23.1679 9.25192ZM12 22.3028L14.5458 24L12 25.6972V22.3028ZM13.2042 28.5L22.5 34.6972V29.3028L17.25 25.8028L13.2042 28.5ZM19.9542 24L24 26.6972L28.0458 24L24 21.3028L19.9542 24ZM25.5 18.6972L30.75 22.1972L34.7958 19.5L25.5 13.3028V18.6972ZM22.5 13.3028V18.6972L17.25 22.1972L13.2042 19.5L22.5 13.3028ZM36 22.3028L33.4542 24L36 25.6972V22.3028ZM34.7958 28.5L30.75 25.8028L25.5 29.3028V34.6972L34.7958 28.5Z" fill="white"/>
</svg>
