<svg width="308" height="39" viewBox="0 0 308 39" fill="none" xmlns="http://www.w3.org/2000/svg">
<path d="M67.6655 3.37891C69.3181 3.37891 70.7998 3.66384 72.2244 4.17672C73.5921 4.74658 74.7888 5.4874 75.8146 6.45617C76.8403 7.42494 77.6381 8.56467 78.151 9.87538C78.7209 11.1861 79.0058 12.5537 79.0058 14.0353C79.0058 15.574 78.7209 16.9417 78.151 18.2524C77.5812 19.5631 76.7834 20.7028 75.8146 21.6146C74.7888 22.5833 73.5921 23.3241 72.2244 23.837C70.8568 24.4069 69.3181 24.6348 67.6655 24.6348H61.1121V35.1203H54.3307V3.37891H67.6655ZM61.1121 9.53341V18.5942H67.4376C68.1214 18.5942 68.7483 18.4803 69.3181 18.2524C69.888 18.0244 70.4009 17.6825 70.8568 17.2836C71.2557 16.8847 71.5976 16.3718 71.8825 15.8589C72.1105 15.289 72.2244 14.7192 72.2244 14.0923C72.2244 13.4655 72.1105 12.8956 71.8825 12.3257C71.6546 11.7559 71.3127 11.3 70.8568 10.9011C70.4579 10.5022 69.945 10.1603 69.3181 9.93231C68.7483 9.70437 68.1214 9.59045 67.4376 9.59045H61.1121V9.53341Z" fill="#282929"/>
<path d="M95.3039 19.0501C95.133 18.9931 94.962 18.9931 94.7911 18.9362C94.6201 18.8792 94.3921 18.8792 94.1072 18.8222C93.8223 18.7652 93.5374 18.7652 93.1954 18.7652C91.5998 18.7652 90.3461 19.2781 89.3773 20.2468C88.4656 21.2156 87.9527 22.6973 87.9527 24.5778V35.1203H81.8551V12.8956H88.0667V15.7449C88.5226 15.232 89.0924 14.7762 89.7193 14.3203C90.2891 13.9783 90.916 13.6364 91.7138 13.3515C92.5116 13.0666 93.4234 12.8956 94.4491 12.8956H95.3609V19.0501H95.3039Z" fill="#282929"/>
<path d="M120.492 24.0079C120.492 25.4896 120.15 26.9143 119.523 28.2249C118.896 29.5926 118.042 30.7323 116.959 31.7581C115.876 32.7839 114.622 33.5817 113.198 34.2085C111.773 34.8354 110.234 35.1203 108.696 35.1203C107.1 35.1203 105.561 34.8354 104.137 34.2085C102.712 33.5817 101.458 32.7839 100.376 31.7581C99.293 30.7323 98.4382 29.5356 97.8113 28.2249C97.1845 26.8573 96.8426 25.4896 96.8426 24.0079C96.8426 22.5263 97.1845 21.1016 97.8113 19.791C98.4382 18.4233 99.293 17.2836 100.376 16.2578C101.458 15.232 102.712 14.4342 104.137 13.8074C105.561 13.1805 107.043 12.8956 108.696 12.8956C110.291 12.8956 111.773 13.1805 113.198 13.8074C114.622 14.4342 115.876 15.232 116.959 16.2578C118.042 17.2836 118.896 18.4803 119.523 19.791C120.207 21.1586 120.492 22.5263 120.492 24.0079ZM103.282 24.0079C103.282 24.8058 103.453 25.5466 103.738 26.2304C104.023 26.9143 104.422 27.4841 104.935 27.94C105.448 28.3959 106.017 28.7948 106.701 29.0797C107.385 29.3647 108.069 29.4786 108.81 29.4786C109.551 29.4786 110.234 29.3647 110.918 29.0797C111.602 28.7948 112.172 28.3959 112.685 27.94C113.198 27.4841 113.597 26.8573 113.881 26.2304C114.166 25.5466 114.337 24.8058 114.337 24.0079C114.337 23.2101 114.166 22.4693 113.881 21.7855C113.597 21.1016 113.198 20.5318 112.685 20.0759C112.172 19.62 111.602 19.2211 110.918 18.9362C110.234 18.6512 109.551 18.5373 108.81 18.5373C108.069 18.5373 107.385 18.6512 106.701 18.9362C106.017 19.2211 105.448 19.62 104.935 20.0759C104.422 20.5318 104.023 21.1586 103.738 21.7855C103.453 22.5263 103.282 23.2671 103.282 24.0079Z" fill="#282929"/>
<path d="M134.34 12.8956C135.422 12.8956 136.334 13.0666 137.189 13.4085C138.044 13.7505 138.728 14.0924 139.24 14.4913C139.867 14.9472 140.437 15.517 140.893 16.0868V3.37891H146.991V35.1203H140.893V32.214C140.437 32.7839 139.867 33.2967 139.24 33.6956C138.671 34.0946 137.987 34.4365 137.189 34.7214C136.334 35.0064 135.422 35.1773 134.34 35.1773C132.915 35.1773 131.547 34.8923 130.294 34.3225C128.983 33.7526 127.9 32.9549 126.874 31.986C125.906 31.0173 125.108 29.8206 124.538 28.4529C123.968 27.0853 123.683 25.6036 123.683 24.0079C123.683 22.4124 123.968 20.9877 124.538 19.563C125.108 18.1953 125.906 16.9987 126.874 16.0299C127.843 15.0611 128.983 14.2633 130.294 13.6935C131.547 13.1806 132.915 12.8956 134.34 12.8956ZM135.479 29.7636C136.22 29.7636 136.904 29.6497 137.588 29.3647C138.272 29.0798 138.842 28.6809 139.354 28.225C139.867 27.7121 140.266 27.1422 140.551 26.4014C140.836 25.7175 141.007 24.9197 141.007 24.0649C141.007 23.2101 140.836 22.4693 140.551 21.7285C140.266 21.0447 139.867 20.4179 139.354 19.905C138.842 19.3921 138.272 19.0502 137.588 18.7653C136.904 18.4803 136.22 18.3663 135.479 18.3663C134.739 18.3663 134.055 18.4803 133.371 18.7653C132.687 19.0502 132.117 19.4491 131.604 19.905C131.091 20.4179 130.692 20.9877 130.408 21.7285C130.123 22.4124 129.952 23.2101 129.952 24.0649C129.952 24.9197 130.123 25.6606 130.408 26.4014C130.692 27.0852 131.091 27.7121 131.604 28.225C132.117 28.7379 132.687 29.0798 133.371 29.3647C134.055 29.5927 134.739 29.7636 135.479 29.7636Z" fill="#282929"/>
<path d="M166.537 32.7269C166.081 33.1828 165.511 33.6386 164.884 33.9806C164.314 34.2655 163.688 34.5504 162.89 34.8354C162.092 35.1203 161.18 35.2343 160.154 35.2343C158.901 35.2343 157.761 35.0063 156.735 34.6074C155.653 34.1515 154.741 33.5817 154 32.7839C153.202 31.986 152.632 31.0173 152.233 29.8775C151.834 28.7378 151.606 27.4841 151.606 26.0595V12.9526H157.704V25.3186C157.704 26.5723 158.103 27.5411 158.901 28.3389C159.699 29.1367 160.724 29.5356 162.035 29.5356C163.403 29.5356 164.485 29.1367 165.34 28.2249C166.195 27.3701 166.594 26.1164 166.594 24.4069V12.9526H172.691V35.1773H166.594V32.7269H166.537Z" fill="#282929"/>
<path d="M176.51 24.0079C176.51 22.5263 176.851 21.1016 177.478 19.791C178.105 18.4233 178.96 17.2836 180.043 16.2578C181.125 15.232 182.436 14.4342 183.861 13.8074C185.342 13.1805 186.881 12.8956 188.534 12.8956C190.072 12.8956 191.44 13.1236 192.523 13.5794C193.662 14.0353 194.574 14.5482 195.372 15.1181C196.227 15.8019 196.968 16.5427 197.594 17.3975L193.719 21.1586C193.378 20.6458 192.922 20.1899 192.409 19.734C192.01 19.3921 191.44 19.0501 190.756 18.7652C190.072 18.4803 189.331 18.3093 188.477 18.3093C187.679 18.3093 186.938 18.4803 186.254 18.7652C185.57 19.0501 184.943 19.449 184.374 20.0189C183.804 20.5318 183.405 21.1586 183.063 21.8425C182.721 22.5263 182.607 23.2671 182.607 24.0649C182.607 24.8627 182.778 25.6036 183.063 26.2874C183.405 26.9712 183.804 27.5981 184.374 28.111C184.943 28.6238 185.57 29.0228 186.254 29.3647C186.938 29.6496 187.736 29.8206 188.477 29.8206C189.331 29.8206 190.072 29.7066 190.756 29.4217C191.44 29.1367 192.01 28.8518 192.466 28.5099C193.036 28.111 193.491 27.6551 193.89 27.1422L197.538 30.7893C196.911 31.6441 196.17 32.3849 195.315 33.0688C194.574 33.6387 193.605 34.1515 192.466 34.6074C191.326 35.0633 190.015 35.2913 188.477 35.2913C186.824 35.2913 185.285 35.0063 183.804 34.3795C182.322 33.7526 181.068 32.9548 179.986 31.9291C178.903 30.9033 178.048 29.7066 177.421 28.3959C176.794 26.9143 176.51 25.5466 176.51 24.0079Z" fill="#282929"/>
<path d="M209.79 5.94329V12.9526H214.348V18.3663H209.79V27.1992C209.79 27.883 210.074 28.5099 210.587 28.9658C211.1 29.4217 211.727 29.7066 212.525 29.7066C213.152 29.7066 213.722 29.6496 214.178 29.4786C214.405 29.4217 214.633 29.3647 214.804 29.2507V34.4935C214.462 34.6075 214.064 34.7214 213.608 34.8354C213.266 34.9494 212.81 35.0064 212.297 35.0634C211.784 35.1203 211.271 35.1773 210.701 35.1773C208.422 35.1773 206.712 34.5505 205.459 33.2968C204.262 32.0431 203.635 30.1055 203.635 27.4841V18.4233H199.76V13.0096H201.811C202.495 13.0096 203.122 12.7246 203.578 12.2118C204.034 11.6989 204.319 10.9581 204.319 10.0463V5.94329H209.79Z" fill="#282929"/>
<path d="M233.838 3.37891C235.49 3.37891 236.972 3.66384 238.397 4.17672C239.764 4.74658 240.961 5.4874 241.987 6.45617C243.013 7.42494 243.81 8.56467 244.323 9.87538C244.893 11.1861 245.178 12.5537 245.178 14.0353C245.178 15.574 244.893 16.9417 244.323 18.2524C243.753 19.5631 242.956 20.7028 241.987 21.6146C240.961 22.5833 239.764 23.3241 238.397 23.837C237.029 24.4069 235.49 24.6348 233.838 24.6348H227.284V35.1203H220.503V3.37891H233.838ZM227.284 9.53341V18.5942H233.61C234.294 18.5942 234.921 18.4803 235.49 18.2524C236.06 18.0244 236.573 17.6825 237.029 17.2836C237.428 16.8847 237.77 16.3718 238.055 15.8589C238.283 15.289 238.397 14.7192 238.397 14.0923C238.397 13.4655 238.283 12.8956 238.055 12.3257C237.827 11.7559 237.485 11.3 237.029 10.9011C236.63 10.5022 236.117 10.1603 235.49 9.93231C234.921 9.70437 234.294 9.59045 233.61 9.59045H227.284V9.53341Z" fill="#282929"/>
<path d="M254.695 35.1203H248.597V3.37891H254.695V35.1203Z" fill="#282929"/>
<path d="M272.133 32.7269C271.677 33.1828 271.107 33.6386 270.48 33.9806C269.967 34.2655 269.34 34.5504 268.6 34.8354C267.859 35.1203 267.004 35.2343 266.035 35.2343C264.895 35.2343 263.87 35.0633 262.958 34.7214C262.046 34.3795 261.248 33.9806 260.621 33.4107C259.938 32.8408 259.425 32.214 259.083 31.4732C258.741 30.7323 258.57 29.9915 258.57 29.1937C258.57 27.4841 259.14 26.0595 260.337 24.9197C261.533 23.78 263.129 23.0392 265.18 22.6973L272.133 21.4436C272.133 20.5318 271.791 19.791 271.164 19.2211C270.537 18.6512 269.568 18.3093 268.258 18.3093C267.403 18.3093 266.662 18.4233 266.035 18.6512C265.408 18.8792 264.895 19.1641 264.497 19.449C264.041 19.791 263.585 20.1329 263.3 20.5888L259.881 17.1696C260.507 16.3718 261.248 15.6879 262.103 15.0611C262.844 14.4912 263.756 14.0353 264.838 13.5794C265.921 13.1236 267.232 12.8956 268.713 12.8956C270.138 12.8956 271.449 13.1236 272.589 13.5794C273.728 14.0353 274.754 14.6622 275.609 15.403C276.464 16.2008 277.09 17.1126 277.546 18.1384C278.002 19.1641 278.23 20.3038 278.23 21.5575V35.1203H272.133V32.7269ZM267.631 30.2195C268.998 30.2195 270.081 29.8206 270.936 29.0228C271.791 28.2249 272.19 27.0852 272.19 25.6036V24.9767L267.175 25.8315C265.522 26.0595 264.667 26.8573 264.667 28.111C264.667 28.7378 264.895 29.2507 265.351 29.6496C265.807 30.0485 266.605 30.2195 267.631 30.2195Z" fill="#282929"/>
<path d="M288.944 15.8589C289.4 15.289 289.969 14.8331 290.596 14.3773C291.166 13.9783 291.793 13.6364 292.591 13.3515C293.389 13.0096 294.3 12.8956 295.326 12.8956C296.58 12.8956 297.72 13.1236 298.745 13.5225C299.828 13.9783 300.74 14.6052 301.481 15.403C302.278 16.2578 302.848 17.2266 303.247 18.4233C303.646 19.62 303.874 20.9307 303.874 22.4693V35.1203H297.777V23.1532C297.777 21.8425 297.378 20.7597 296.58 19.9619C295.782 19.1641 294.756 18.7652 293.446 18.7652C292.078 18.7652 290.995 19.2211 290.14 20.0759C289.286 20.9307 288.887 22.1844 288.887 23.894V35.1203H282.789V12.8956H288.887V15.8589H288.944Z" fill="#282929"/>
<path d="M44.0162 12.3258H14.3833C13.7564 12.3258 13.2436 11.813 13.2436 11.1861V4.34774C13.2436 3.72089 13.7564 3.20801 14.3833 3.20801H44.0162C44.6431 3.20801 45.1559 3.72089 45.1559 4.34774V11.1861C45.1559 11.813 44.7 12.3258 44.0162 12.3258Z" fill="#0A6CB9"/>
<path d="M34.8984 23.7233H5.26546C4.63861 23.7233 4.12573 23.2104 4.12573 22.5836V15.7452C4.12573 15.1183 4.63861 14.6055 5.26546 14.6055H34.8984C35.5252 14.6055 36.0381 15.1183 36.0381 15.7452V22.5836C36.0381 23.2104 35.5822 23.7233 34.8984 23.7233Z" fill="#FFC33D"/>
<path d="M45.1559 35.1208H15.523C14.8962 35.1208 14.3833 34.6079 14.3833 33.981V27.1427C14.3833 26.5158 14.8962 26.0029 15.523 26.0029H45.1559C45.7828 26.0029 46.2957 26.5158 46.2957 27.1427V33.981C46.2957 34.6079 45.8398 35.1208 45.1559 35.1208Z" fill="#CD2D1F"/>
</svg>
