<svg  viewBox="20 16 50 50" fill="none" xmlns="http://www.w3.org/2000/svg"><defs>
<clipPath id="clip0_0_1144">
<rect width="100" height="22.8571" fill="white" transform="translate(75 30)"/>
</clipPath>
</defs><path d="M39.7383 31.7015C39.7383 33.9881 38.7717 36.0098 37.1883 37.5914C35.43 39.3498 32.88 39.7914 32.88 41.2848C32.88 43.3064 36.1333 42.6914 39.255 45.8131C41.3217 47.8798 42.595 50.6048 42.595 53.7698C42.595 60.0114 37.5833 64.9798 31.2983 64.9798C25.0117 64.9781 20 60.0164 20 53.7714C20 50.6064 21.275 47.8814 23.3417 45.8148C26.4617 42.6948 29.715 43.3098 29.715 41.2881C29.715 39.7931 27.165 39.3531 25.4067 37.5948C23.8233 36.0114 22.8567 33.9898 22.8567 31.6165C22.8567 27.0448 26.5933 23.3515 31.165 23.3515C32.045 23.3515 32.8367 23.4848 33.495 23.4848C34.6833 23.4848 35.2983 22.9565 35.2983 22.1215C35.2983 21.6381 35.0783 21.0215 35.0783 20.3631C35.0783 18.8681 36.3533 17.6365 37.8917 17.6365C39.43 17.6365 40.6617 18.9115 40.6617 20.4498C40.6617 22.0765 39.3867 22.8248 38.42 23.1765C37.6283 23.4398 37.0117 23.7915 37.0117 24.5831C37.0117 26.0731 39.7383 27.5248 39.7383 31.7015ZM38.8583 53.7731C38.8583 49.4231 35.65 45.9048 31.2983 45.9048C26.945 45.9048 23.7367 49.4214 23.7367 53.7731C23.7367 58.0814 26.945 61.6431 31.2983 61.6431C35.6483 61.6431 38.8583 58.0764 38.8583 53.7731ZM36.2667 31.6131C36.2667 28.8448 34.025 26.5581 31.3 26.5581C28.5733 26.5581 26.3333 28.8448 26.3333 31.6131C26.3333 34.3831 28.5733 36.6698 31.3 36.6698C34.025 36.6698 36.2667 34.3831 36.2667 31.6131Z" fill="#008561"/></svg>