<svg  viewBox="20 16 50 50" fill="none" xmlns="http://www.w3.org/2000/svg"><defs>
<linearGradient id="paint0_linear_0_397" x1="152.779" y1="33" x2="198" y2="45.8676" gradientUnits="userSpaceOnUse">
<stop stop-color="#00BBC6"/>
<stop offset="0.489354" stop-color="#355AE4"/>
<stop offset="1" stop-color="#7225E3"/>
</linearGradient>
<linearGradient id="paint1_linear_0_397" x1="29.5588" y1="25" x2="120" y2="50.7353" gradientUnits="userSpaceOnUse">
<stop stop-color="#00BBC6"/>
<stop offset="0.489354" stop-color="#355AE4"/>
<stop offset="1" stop-color="#7225E3"/>
</linearGradient>
<clipPath id="clip0_0_397">
<rect width="50" height="15.9314" fill="white" transform="translate(148 33)"/>
</clipPath>
<clipPath id="clip1_0_397">
<rect width="100" height="31.8627" fill="white" transform="translate(20 25)"/>
</clipPath>
</defs><g clip-path="url(#clip0_0_397)">
<path d="M197.652 43.8892C197.567 43.8892 197.49 43.9438 197.45 44.0581C196.938 45.5111 196.245 46.3755 195.675 46.3755C195.348 46.3755 195.215 46.0129 195.215 45.4441C195.215 44.0208 196.073 41.0029 196.505 39.6269C196.555 39.4605 196.588 39.3114 196.588 39.1848C196.588 38.7849 196.367 38.5887 195.823 38.5887C195.235 38.5887 194.602 38.8172 193.987 39.8877C193.775 38.9438 193.133 38.5315 192.235 38.5315C191.198 38.5315 190.195 39.1947 189.37 40.2702C188.545 41.3457 187.575 41.6984 186.845 41.5246C187.37 40.2479 187.565 39.2941 187.565 38.5862C187.565 37.4759 187.013 36.8052 186.12 36.8052C184.763 36.8052 183.98 38.0919 183.98 39.4456C183.98 40.4913 184.458 41.5668 185.508 42.0884C184.627 44.0655 183.342 45.8539 182.855 45.8539C182.225 45.8539 182.04 42.7913 182.075 40.6006C182.098 39.3437 182.202 39.2792 182.202 38.8991C182.202 38.6805 182.06 38.5315 181.487 38.5315C180.152 38.5315 179.74 39.6542 179.677 40.9433C179.657 41.4332 179.58 41.9191 179.448 42.3914C178.89 44.3686 177.74 45.8688 176.99 45.8688C176.642 45.8688 176.548 45.5235 176.548 45.0715C176.548 43.6482 177.35 41.8698 177.35 40.3522C177.35 39.2369 176.858 38.5315 175.93 38.5315C174.838 38.5315 173.392 39.8231 172.025 42.2424C172.475 40.3894 172.66 38.5961 171.327 38.5961C171.038 38.6004 170.755 38.6737 170.5 38.8097C170.415 38.8494 170.343 38.9138 170.295 38.9944C170.247 39.075 170.224 39.1682 170.23 39.2618C170.358 41.2339 168.63 46.2861 166.993 46.2861C166.695 46.2861 166.55 45.9657 166.55 45.449C166.55 44.0233 167.405 41.0129 167.835 39.6343C167.89 39.4555 167.92 39.3015 167.92 39.1674C167.92 38.7898 167.685 38.5961 167.153 38.5961C166.567 38.5961 165.933 38.8172 165.32 39.8877C165.105 38.9438 164.462 38.5315 163.565 38.5315C162.092 38.5315 160.448 40.0789 159.725 42.0958C158.758 44.7883 156.807 47.3889 154.182 47.3889C151.8 47.3889 150.543 45.4192 150.543 42.307C150.543 37.8137 153.862 34.1426 156.325 34.1426C157.502 34.1426 158.065 34.8877 158.065 36.0303C158.065 37.4138 157.288 38.0571 157.288 38.5837C157.288 38.7451 157.422 38.9041 157.69 38.9041C158.76 38.9041 160.02 37.6547 160.02 35.9508C160.02 34.2469 158.628 33 156.165 33C152.095 33 148 37.0685 148 42.2821C148 46.4301 150.06 48.9314 153.622 48.9314C156.052 48.9314 158.175 47.0536 159.32 44.8628C159.45 46.6785 160.28 47.6274 161.545 47.6274C162.67 47.6274 163.58 46.9617 164.275 45.7918C164.542 47.0163 165.253 47.6149 166.175 47.6149C167.233 47.6149 168.118 46.9493 168.96 45.7123C168.948 46.6835 169.17 47.5975 170.017 47.5975C170.417 47.5975 170.895 47.5056 170.98 47.1579C171.872 43.4918 174.077 40.4987 174.752 40.4987C174.952 40.4987 175.008 40.69 175.008 40.916C175.008 41.912 174.3 43.9537 174.3 45.2578C174.3 46.6661 174.902 47.5975 176.148 47.5975C177.527 47.5975 178.93 45.9185 179.865 43.4644C180.158 45.757 180.79 47.6075 181.78 47.6075C182.995 47.6075 185.152 45.0665 186.46 42.3765C186.973 42.4411 187.742 42.4237 188.483 41.9046C188.167 42.6969 187.983 43.5638 187.983 44.4306C187.983 46.9269 189.183 47.6274 190.215 47.6274C191.338 47.6274 192.248 46.9617 192.945 45.7918C193.175 46.8474 193.763 47.6125 194.842 47.6125C196.533 47.6125 198 45.8961 198 44.4878C198 44.1152 197.84 43.8892 197.652 43.8892ZM162.575 46.2438C161.892 46.2438 161.625 45.5608 161.625 44.5424C161.625 42.7739 162.843 39.8206 164.13 39.8206C164.693 39.8206 164.905 40.4788 164.905 41.2836C164.905 43.0794 163.748 46.2438 162.575 46.2438ZM185.952 40.9657C185.545 40.4838 185.398 39.8281 185.398 39.2444C185.398 38.5241 185.662 37.9155 185.98 37.9155C186.298 37.9155 186.395 38.226 186.395 38.6582C186.395 39.381 186.135 40.4366 185.952 40.9657ZM191.245 46.2438C190.562 46.2438 190.295 45.459 190.295 44.5424C190.295 42.836 191.513 39.8206 192.81 39.8206C193.373 39.8206 193.573 40.4739 193.573 41.2836C193.573 43.0794 192.435 46.2438 191.245 46.2438Z" fill="url(#paint0_linear_0_397)"/>
</g><g clip-path="url(#clip1_0_397)">
<path d="M119.305 46.7783C119.135 46.7783 118.98 46.8876 118.9 47.1161C117.875 50.0223 116.49 51.751 115.35 51.751C114.695 51.751 114.43 51.0257 114.43 49.8881C114.43 47.0416 116.145 41.0059 117.01 38.2538C117.11 37.9209 117.175 37.6229 117.175 37.3696C117.175 36.5698 116.735 36.1773 115.645 36.1773C114.47 36.1773 113.205 36.6343 111.975 38.7754C111.55 36.8877 110.265 36.063 108.47 36.063C106.395 36.063 104.39 37.3894 102.74 39.5404C101.09 41.6914 99.15 42.3969 97.6902 42.0491C98.7402 39.4957 99.1299 37.5881 99.1299 36.1723C99.1299 33.9518 98.025 32.6105 96.2402 32.6105C93.525 32.6105 91.9598 35.1838 91.9598 37.8911C91.9598 39.9825 92.9152 42.1335 95.0152 43.1768C93.2549 47.131 90.6848 50.7078 89.7098 50.7078C88.45 50.7078 88.0799 44.5826 88.15 40.2011C88.1951 37.6875 88.4049 37.5583 88.4049 36.7982C88.4049 36.3611 88.1201 36.063 86.975 36.063C84.3049 36.063 83.4799 38.3084 83.3549 40.8867C83.3147 41.8665 83.1603 42.8383 82.8951 43.7828C81.7799 47.7371 79.4799 50.7376 77.9799 50.7376C77.2848 50.7376 77.0951 50.0471 77.0951 49.1429C77.0951 46.2965 78.7 42.7396 78.7 39.7044C78.7 37.4739 77.7152 36.063 75.8598 36.063C73.675 36.063 70.7848 38.6462 68.05 43.4848C68.95 39.7789 69.3201 36.1922 66.655 36.1922C66.0769 36.2008 65.5092 36.3473 65 36.6194C64.829 36.6988 64.6861 36.8275 64.5898 36.9888C64.4935 37.15 64.4482 37.3364 64.46 37.5235C64.715 41.4679 61.26 51.5722 57.985 51.5722C57.39 51.5722 57.1 50.9313 57.1 49.898C57.1 47.0466 58.81 41.0257 59.67 38.2687C59.78 37.911 59.84 37.603 59.84 37.3348C59.84 36.5797 59.37 36.1922 58.305 36.1922C57.135 36.1922 55.865 36.6343 54.64 38.7754C54.21 36.8877 52.925 36.063 51.13 36.063C48.185 36.063 44.895 39.1579 43.45 43.1917C41.515 48.5767 37.615 53.7778 32.365 53.7778C27.6 53.7778 25.085 49.8384 25.085 43.6139C25.085 34.6274 31.725 27.2851 36.65 27.2851C39.005 27.2851 40.13 28.7754 40.13 31.0606C40.13 33.8276 38.575 35.1142 38.575 36.1674C38.575 36.4902 38.845 36.8082 39.38 36.8082C41.52 36.8082 44.04 34.3095 44.04 30.9016C44.04 27.4938 41.255 25 36.33 25C28.19 25 20 33.1371 20 43.5643C20 51.8603 24.12 56.8627 31.245 56.8627C36.105 56.8627 40.35 53.1072 42.64 48.7257C42.9 52.3571 44.56 54.2547 47.09 54.2547C49.34 54.2547 51.16 52.9234 52.55 50.5836C53.085 53.0326 54.505 54.2299 56.35 54.2299C58.465 54.2299 60.235 52.8985 61.92 50.4246C61.895 52.367 62.34 54.1951 64.035 54.1951C64.835 54.1951 65.79 54.0113 65.96 53.3158C67.745 45.9835 72.1549 39.9975 73.5049 39.9975C73.9049 39.9975 74.0152 40.38 74.0152 40.832C74.0152 42.8241 72.6 46.9075 72.6 49.5155C72.6 52.3322 73.8049 54.1951 76.2951 54.1951C79.0549 54.1951 81.8598 50.837 83.7299 45.9289C84.3152 50.514 85.5799 54.215 87.5598 54.215C89.9902 54.215 94.3049 49.133 96.9201 43.753C97.9451 43.8822 99.4848 43.8474 100.965 42.8092C100.335 44.3939 99.9652 46.1276 99.9652 47.8613C99.9652 52.8538 102.365 54.2547 104.43 54.2547C106.675 54.2547 108.495 52.9234 109.89 50.5836C110.35 52.6949 111.525 54.2249 113.685 54.2249C117.065 54.2249 120 50.7923 120 47.9755C120 47.2304 119.68 46.7783 119.305 46.7783ZM49.15 51.4877C47.785 51.4877 47.25 50.1216 47.25 48.0849C47.25 44.5478 49.685 38.6413 52.26 38.6413C53.385 38.6413 53.81 39.9577 53.81 41.5673C53.81 45.1589 51.495 51.4877 49.15 51.4877ZM95.9049 40.9314C95.0902 39.9676 94.7951 38.6562 94.7951 37.4888C94.7951 36.0481 95.325 34.831 95.9598 34.831C96.5951 34.831 96.7902 35.452 96.7902 36.3164C96.7902 37.762 96.2701 39.8732 95.9049 40.9314ZM106.49 51.4877C105.125 51.4877 104.59 49.9179 104.59 48.0849C104.59 44.6721 107.025 38.6413 109.62 38.6413C110.745 38.6413 111.145 39.9478 111.145 41.5673C111.145 45.1589 108.87 51.4877 106.49 51.4877Z" fill="url(#paint1_linear_0_397)"/>
</g></svg>