<svg width="231" height="52" viewBox="0 0 231 52" fill="none" xmlns="http://www.w3.org/2000/svg">
<path d="M195.481 13.8547C195.376 15.0196 195.217 16.2375 195.164 17.5084C195.111 18.8322 195.058 20.156 195.058 21.4268H200.936L199.294 25.9807H195.058V38.4245C195.058 39.2188 195.111 39.8542 195.164 40.3837C195.217 40.8603 195.429 41.2839 195.587 41.6016C195.746 41.9193 196.064 42.0782 196.435 42.2371C196.805 42.343 197.282 42.3959 197.864 42.3959C198.182 42.3959 198.5 42.343 198.87 42.29C199.241 42.2371 199.665 42.1312 200.3 41.9193L201.094 45.8908C199.401 46.6137 197.587 47.0089 195.746 47.0557C194.052 47.0557 192.622 46.738 191.351 46.0496C190.133 45.3612 189.286 44.514 188.915 43.402C188.809 43.1372 188.757 42.9254 188.651 42.6607C188.598 42.5018 188.545 42.2371 188.545 41.9193C188.545 41.6016 188.492 41.2839 188.492 40.9133V25.9807H186.003V21.4268H188.492V18.2497C188.492 17.4025 188.545 16.4493 188.757 15.4962L195.481 13.8547ZM214.438 20.7914C217.986 20.7914 220.793 22.0623 222.964 24.604C224.023 25.7689 224.658 27.0927 225.188 28.5224C225.611 29.9521 225.876 31.6996 225.876 33.8177C225.929 35.9357 225.611 37.7891 225.135 39.3247C224.658 40.8603 223.864 42.29 222.752 43.5079C221.852 44.6199 220.687 45.4142 219.363 46.1026C218.092 46.738 216.398 47.0028 214.438 47.0028C212.744 47.0028 211.208 46.685 209.832 46.1026C208.402 45.4671 207.237 44.6199 206.284 43.455C205.278 42.343 204.589 40.9662 204.007 39.3247C203.477 37.7361 203.212 35.9357 203.212 33.9765C203.212 32.0173 203.477 30.2169 204.007 28.5754C204.536 26.9339 205.278 25.5571 206.284 24.3922C207.29 23.2272 208.455 22.38 209.832 21.6916C211.261 21.0562 212.797 20.7914 214.438 20.7914ZM166.834 20.7384C167.47 21.7975 167.734 22.8036 167.734 23.8626C168.211 23.492 168.741 23.1743 169.164 22.8565C169.588 22.5388 170.064 22.2211 170.647 22.0093C171.335 21.6386 171.971 21.3739 172.818 21.215C173.612 21.0562 174.406 20.9503 175.148 20.9503C176.578 20.9503 177.795 21.268 178.907 21.9563C179.947 22.5527 180.75 23.4871 181.184 24.604C181.502 25.4512 181.661 26.6161 181.661 28.1518V46.4203H175.307V30.2169H175.148C175.148 28.7872 174.989 27.834 174.671 27.3575C174.354 26.8809 173.771 26.6161 172.977 26.6161C172.288 26.6161 171.547 26.775 170.753 27.2516C169.958 27.6752 169.164 28.2577 168.423 28.8931V46.5262H161.857V28.2577C161.857 26.0337 161.539 24.0744 161.01 22.38L166.834 20.7384ZM126.591 12.372V27.94L136.281 12.372H144.753L133.845 28.1518L145.971 46.4203H136.969L126.591 28.6813V46.4203H119.495V12.372H126.591ZM154.973 20.7384V46.4203H148.354V21.7975L154.973 20.7384ZM214.65 25.7689C213.856 25.7689 213.168 26.0337 212.585 26.4573C211.95 26.8809 211.526 27.5693 211.314 28.3106C211.049 28.999 210.891 29.7403 210.838 30.6405C210.732 31.5407 210.679 32.5998 210.679 33.8706C210.679 36.6771 210.996 38.8481 211.526 40.1719C211.844 40.8603 212.267 41.3898 212.956 41.7075C213.552 42.0444 214.23 42.2093 214.915 42.1841C216.398 42.1841 217.404 41.4957 218.039 40.1719C218.675 38.8481 218.939 36.6771 218.939 33.7117C218.78 30.4287 218.304 28.2577 217.457 27.0927C216.779 26.2376 215.741 25.7479 214.65 25.7689ZM151.902 10.4657C153.014 10.4657 153.914 10.8364 154.708 11.6307C155.503 12.4249 155.873 13.431 155.873 14.4901C155.732 15.5555 155.271 16.5528 154.549 17.3495C153.793 18.1086 152.761 18.5289 151.69 18.5145C150.578 18.5145 149.625 18.1438 148.883 17.3495C148.124 16.5932 147.704 15.5616 147.719 14.4901C147.719 13.3251 148.142 12.4249 148.936 11.6307C149.731 10.8364 150.737 10.4657 151.902 10.4657Z" fill="#333333"/>
<path d="M51.6632 46.6848H30.4823C27.1993 46.5789 23.5456 46.3141 20.4744 45.7316C18.9388 45.4669 17.5091 45.0962 16.1323 44.7255C15.4439 44.5137 14.8085 44.3549 14.1731 44.1431C13.0147 43.7501 11.867 43.3263 10.7312 42.8722C10.2016 42.6604 9.72507 42.3956 9.30145 42.1838C8.40126 41.7073 7.60698 41.3366 7.02451 40.9659C6.38908 40.5953 5.91251 40.2776 5.5948 40.0657L5.11823 39.748C5.11823 39.748 5.27708 39.8539 5.64775 40.0657C5.96546 40.2776 6.44203 40.5423 7.07746 40.913C7.71289 41.2836 8.50717 41.6543 9.40736 42.0779C10.3075 42.5015 11.3666 42.9252 12.5315 43.2958C13.114 43.5076 13.6965 43.7195 14.3319 43.8783C14.9673 44.0901 15.6028 44.249 16.2911 44.4078C17.6679 44.7255 19.0976 45.0433 20.6332 45.308C23.6515 45.8375 26.9345 46.1553 30.2176 46.2612C31.7532 46.3671 51.6632 46.6848 51.6632 46.6848Z" fill="url(#paint0_linear_0_8567)"/>
<path d="M116.053 29.5815C116.053 21.1091 109.063 12.9545 100.75 12.9545C94.3427 12.9545 87.0882 13.7488 73.2147 31.3818C55.2639 54.0454 45.9443 42.9784 45.4148 42.2371C46.7386 44.8317 49.3862 46.685 52.5104 46.685H100.75C109.169 46.685 116.053 38.0538 116.053 29.5815Z" fill="url(#paint1_linear_0_8567)"/>
<path d="M52.5632 46.6851C48.1682 46.6851 44.5674 43.1373 44.5674 38.7423C44.5674 34.3472 48.2211 30.164 52.5103 30.164C60.9297 30.164 62.0946 37.7891 75.2268 41.5487C83.7521 43.9845 100.697 46.6851 100.697 46.6851H52.5632Z" fill="url(#paint2_linear_0_8567)"/>
<path d="M100.697 46.6849C99.0025 45.9965 92.3835 43.8255 91.2715 36.624C90.1595 29.3165 94.5546 25.3981 93.1778 16.9787C91.9599 9.56536 85.7645 5.91166 79.5691 4.6408C76.3919 4.00538 72.8971 4.16423 69.3493 5.43509C59.3943 9.03584 56.0583 20.3676 57.9116 28.1516C59.4472 34.5588 65.8015 40.8601 81.0517 43.5607C94.078 45.8377 95.137 46.0495 100.697 46.6849Z" fill="url(#paint3_linear_0_8567)"/>
<path d="M91.2715 36.624C90.1595 29.3166 94.5545 25.3981 93.1778 16.9787C93.011 16.0637 92.781 15.1614 92.4894 14.2782C87.6707 16.1844 81.6342 20.6324 73.2148 31.3288C55.264 54.0453 45.9444 42.9783 45.4149 42.2369C46.7387 44.8316 49.4392 46.6849 52.5634 46.6849H100.75C99.0025 45.9966 92.3835 43.8255 91.2715 36.624Z" fill="url(#paint4_linear_0_8567)"/>
<path d="M59.9766 32.8113C62.1477 36.8356 71.2555 43.3488 100.697 46.6847C77.3979 43.6665 66.5427 39.2714 59.9766 32.8113Z" fill="url(#paint5_linear_0_8567)"/>
<path d="M30.5353 46.6847C29.6352 46.6847 28.9468 45.9434 28.9468 45.0432C28.9468 44.143 29.6881 43.2958 30.5353 43.2958C32.2298 43.2958 32.4946 45.1491 35.1422 45.8904C36.8367 46.367 40.2256 46.6318 40.2256 46.6318L30.5353 46.6847Z" fill="url(#paint6_linear_0_8567)"/>
<path d="M52.5634 46.6849C50.2865 46.6849 48.1154 45.6258 46.6328 44.0902C42.4495 42.5016 41.7612 40.0129 38.637 40.0129C36.8895 40.0129 35.4598 41.7074 35.4598 43.4548C35.4598 45.2022 36.8895 46.6849 38.637 46.6849H57.9116H52.5634Z" fill="url(#paint7_linear_0_8567)"/>
<path d="M109.116 15.8668C108.587 15.4432 108.004 15.0726 107.475 14.7548C106.892 14.4371 106.257 14.1194 105.516 13.9076C104.139 13.3781 102.709 13.1133 101.332 12.9545H100.75C98.2613 12.9545 95.6136 13.0604 92.4895 14.2783C92.8072 15.1255 93.0719 16.0257 93.1778 16.9788C94.131 22.8036 92.2777 26.5632 91.4304 30.6935C95.5077 27.4104 103.345 27.3045 107.74 27.5693H108.216C108.693 27.5693 109.116 27.5163 109.487 27.4104C113.776 26.2984 114.041 19.7853 109.116 15.8668Z" fill="url(#paint8_linear_0_8567)"/>
<path opacity="0.47" d="M91.4834 30.6401C91.1127 32.4405 90.9538 34.3997 91.2715 36.6237C92.3835 43.8252 98.8967 45.8374 100.697 46.6846H100.75C103.662 46.6846 106.363 45.6256 108.64 43.9841C108.11 43.5075 105.251 40.9658 104.404 38.3711C101.703 30.1635 107.846 27.7277 108.216 27.5689C105.251 27.5159 95.5607 27.41 91.4834 30.6401Z" fill="#E35702"/>
<path d="M91.2714 36.6241C92.2246 42.8725 97.4668 45.7319 100.697 46.6851C98.8436 45.7849 94.0779 42.8725 94.1308 37.842C94.2897 27.9929 104.615 27.6223 104.615 27.6223C100.273 27.6223 94.7133 28.0988 91.4303 30.6405C91.0067 32.4939 90.9007 34.4001 91.2714 36.6241Z" fill="url(#paint9_linear_0_8567)"/>
<path d="M54.5226 46.6848C52.6692 46.6318 47.9035 46.0493 45.3618 42.2368C46.7386 45.0433 49.4921 46.6848 52.6163 46.6848H54.5226Z" fill="url(#paint10_linear_0_8567)"/>
<path d="M90.6891 36.624C89.5771 29.3166 94.3428 25.3981 92.966 16.9787C92.8072 16.0256 92.4365 14.2782 92.4365 14.2782C92.7542 15.1254 93.019 16.0256 93.1249 16.9787C94.5017 25.3981 90.1066 29.3166 91.2186 36.624C92.3306 43.8255 98.9496 45.9966 100.644 46.6849C100.697 46.6849 91.907 44.5668 90.6891 36.624Z" fill="url(#paint11_linear_0_8567)"/>
<path d="M51.6632 46.6849H30.4823C29.8469 46.6849 29.4763 46.2613 29.4763 46.2613C30.0587 46.3143 51.6632 46.6849 51.6632 46.6849Z" fill="#EB7808"/>
<path d="M52.4575 46.6848H39.6431C38.1604 46.6848 37.4191 46.4201 37.4191 46.4201L52.4575 46.6848Z" fill="#E35702"/>
<path d="M91.4835 30.6405C95.5608 27.3575 103.715 27.2516 108.269 27.5693C108.269 27.5693 101.915 27.4105 97.52 28.3636C93.072 29.3697 91.4835 30.6405 91.4835 30.6405Z" fill="#E35702"/>
<defs>
<linearGradient id="paint0_linear_0_8567" x1="4.67884" y1="42.1468" x2="8.53011" y2="57.2629" gradientUnits="userSpaceOnUse">
<stop stop-color="#FEEC7F"/>
<stop offset="1" stop-color="#F3A21B"/>
</linearGradient>
<linearGradient id="paint1_linear_0_8567" x1="80.7339" y1="4.0162" x2="80.7339" y2="49.0627" gradientUnits="userSpaceOnUse">
<stop stop-color="#FEEC7F"/>
<stop offset="0.19" stop-color="#FEE97B"/>
<stop offset="0.39" stop-color="#FCDF6E"/>
<stop offset="0.61" stop-color="#FACF58"/>
<stop offset="0.82" stop-color="#F6B93A"/>
<stop offset="1" stop-color="#F3A21B"/>
</linearGradient>
<linearGradient id="paint2_linear_0_8567" x1="26.9187" y1="38.4246" x2="70.8685" y2="38.4246" gradientUnits="userSpaceOnUse">
<stop stop-color="#FEEC7F"/>
<stop offset="0.11" stop-color="#FDE373"/>
<stop offset="0.71" stop-color="#F6B434"/>
<stop offset="1" stop-color="#F3A21B"/>
</linearGradient>
<linearGradient id="paint3_linear_0_8567" x1="79.0609" y1="0.28811" x2="79.0609" y2="45.9805" gradientUnits="userSpaceOnUse">
<stop stop-color="#FEEC7F"/>
<stop offset="0.61" stop-color="#F7BC3F"/>
<stop offset="1" stop-color="#F3A21B"/>
</linearGradient>
<linearGradient id="paint4_linear_0_8567" x1="73.0824" y1="14.5958" x2="73.0824" y2="47.2038" gradientUnits="userSpaceOnUse">
<stop stop-color="#F9C32E"/>
<stop offset="0.52" stop-color="#F19819"/>
<stop offset="1" stop-color="#E96C04"/>
</linearGradient>
<linearGradient id="paint5_linear_0_8567" x1="49.672" y1="39.748" x2="90.3922" y2="39.748" gradientUnits="userSpaceOnUse">
<stop stop-color="#F7B425"/>
<stop offset="0.06" stop-color="#F3A620"/>
<stop offset="0.21" stop-color="#EC8816"/>
<stop offset="0.37" stop-color="#E6720E"/>
<stop offset="0.55" stop-color="#E26208"/>
<stop offset="0.74" stop-color="#E05805"/>
<stop offset="1" stop-color="#DF5504"/>
</linearGradient>
<linearGradient id="paint6_linear_0_8567" x1="34.5862" y1="42.1308" x2="34.5862" y2="48.178" gradientUnits="userSpaceOnUse">
<stop stop-color="#FEEC7F"/>
<stop offset="0.61" stop-color="#F7BD40"/>
<stop offset="1" stop-color="#F3A21B"/>
</linearGradient>
<linearGradient id="paint7_linear_0_8567" x1="46.7652" y1="32.6896" x2="46.7652" y2="44.6462" gradientUnits="userSpaceOnUse">
<stop stop-color="#FEEC7F"/>
<stop offset="0.23" stop-color="#FEEA7C"/>
<stop offset="0.42" stop-color="#FCE271"/>
<stop offset="0.6" stop-color="#FBD560"/>
<stop offset="0.78" stop-color="#F8C347"/>
<stop offset="0.94" stop-color="#F4AC28"/>
<stop offset="1" stop-color="#F3A21B"/>
</linearGradient>
<linearGradient id="paint8_linear_0_8567" x1="102.095" y1="14.22" x2="102.095" y2="37.2172" gradientUnits="userSpaceOnUse">
<stop stop-color="#F9C32E"/>
<stop offset="0.52" stop-color="#F19819"/>
<stop offset="1" stop-color="#E96C04"/>
</linearGradient>
<linearGradient id="paint9_linear_0_8567" x1="101.242" y1="31.1224" x2="92.1959" y2="37.7975" gradientUnits="userSpaceOnUse">
<stop stop-color="#E66A09"/>
<stop offset="1" stop-color="#E66A09"/>
</linearGradient>
<linearGradient id="paint10_linear_0_8567" x1="49.9422" y1="40.9553" x2="49.9422" y2="46.7695" gradientUnits="userSpaceOnUse">
<stop stop-color="#F7B425"/>
<stop offset="0.06" stop-color="#F3A620"/>
<stop offset="0.21" stop-color="#EC8816"/>
<stop offset="0.37" stop-color="#E6720E"/>
<stop offset="0.55" stop-color="#E26208"/>
<stop offset="0.74" stop-color="#E05805"/>
<stop offset="1" stop-color="#DF5504"/>
</linearGradient>
<linearGradient id="paint11_linear_0_8567" x1="95.5819" y1="9.44373" x2="95.5819" y2="35.549" gradientUnits="userSpaceOnUse">
<stop stop-color="#F7B425"/>
<stop offset="0.35" stop-color="#EF961A"/>
<stop offset="1" stop-color="#DF5504"/>
</linearGradient>
</defs>
</svg>
