<svg  viewBox="20 16 220 50" fill="none" xmlns="http://www.w3.org/2000/svg"><defs>
<clipPath id="clip0_0_1284">
<rect width="50" height="20" fill="white" transform="translate(164 29)"/>
</clipPath>
</defs><path d="M21.0293 20.4126V23.0926H40.0918V20.4126H21.0293ZM42.7943 20.4126V23.0926H69.9618C69.9618 23.0926 67.1868 20.4126 63.5118 20.4126H42.7943ZM75.2906 20.4126V23.0926H91.7243L90.7493 20.4126H75.2906ZM103.509 20.4126L102.534 23.0926H118.822V20.4126H103.509ZM21.0293 25.6251V28.3051H40.0918V25.6251H21.0293ZM42.7943 25.6288V28.3039H73.1118C73.1118 28.3039 72.7581 26.2413 72.1406 25.6288H42.7943ZM75.2906 25.6288V28.3039H93.5406L92.6381 25.6288H75.2906ZM101.558 25.6288L100.656 28.3039H118.821V25.6288H101.558ZM26.5081 30.8376V33.5214H34.7643V30.8376H26.5081ZM48.2731 30.8376V33.5214H56.5293V30.8376H48.2731ZM64.5606 30.8376V33.5214H72.8168C72.8168 33.5214 73.3418 32.1039 73.3418 30.8376H64.5606ZM80.7706 30.8376V33.5214H95.3956L94.4206 30.8376H80.7706ZM99.7618 30.8376L98.7818 33.5214H113.492V30.8376H99.7618ZM26.5093 36.0539V38.7339H34.7656V36.0539H26.5093ZM48.2743 36.0539V38.7339H69.3618C69.3618 38.7339 71.1243 37.3589 71.6868 36.0539H48.2743ZM80.7706 36.0539V38.7339H89.0268V37.2414L89.5518 38.7339H104.677L105.239 37.2414V38.7339H113.496V36.0539H97.9956L97.1731 38.3239L96.3481 36.0539H80.7706ZM26.5081 41.2664V43.9464H34.7643V41.2664H26.5081ZM48.2731 41.2664V43.9464H71.6856C71.1231 42.6464 69.3606 41.2664 69.3606 41.2664H48.2731ZM80.7693 41.2664V43.9464H89.0256V41.2664H80.7693ZM90.5256 41.2664L91.5256 43.9464H102.866L103.816 41.2664H90.5256ZM105.236 41.2664V43.9464H113.492V41.2664H105.236ZM26.5105 46.4789V49.1589H34.7668V46.4789H26.5105ZM48.2756 46.4789V49.1589H56.5318V46.4789H48.2756ZM64.5631 46.4789V49.1589H73.3431C73.3431 47.8939 72.8181 46.4789 72.8181 46.4789H64.5631ZM80.7731 46.4789V49.1589H89.0293V46.4789H80.7731ZM92.4031 46.4789L93.3706 49.1589H100.971L101.946 46.4789H92.4031ZM105.238 46.4789V49.1589H113.494V46.4789H105.238ZM21.1818 51.6914V54.3751H40.2443V51.6914H21.1818ZM42.7981 51.6914V54.3751H72.1456C72.7631 53.7601 73.1168 51.6914 73.1168 51.6914H42.7981ZM75.4431 51.6914V54.3751H89.0243V51.6914H75.4431ZM94.2806 51.6914L95.2756 54.3751H99.1431L100.077 51.6914H94.2806ZM105.238 51.6914V54.3751H118.973V51.6914H105.238ZM21.1818 56.9076V59.5876H40.2443V56.9076H21.1818ZM42.7981 56.9076V59.5826H63.5118C67.1868 59.5826 69.9618 56.9076 69.9618 56.9076H42.7981ZM75.4431 56.9076V59.5876H89.0243V56.9076H75.4431ZM96.1681 56.9076L97.1243 59.5801L97.2893 59.5839L98.2606 56.9089L96.1681 56.9076ZM105.239 56.9076V59.5876H118.974V56.9076H105.239Z" fill="black"/><g clip-path="url(#clip0_0_1284)">
<path d="M164.516 29.2063V30.5463H174.047V29.2063H164.516ZM175.398 29.2063V30.5463H188.982C188.982 30.5463 187.594 29.2063 185.757 29.2063H175.398ZM191.646 29.2063V30.5463H199.863L199.376 29.2063H191.646ZM205.756 29.2063L205.268 30.5463H213.412V29.2063H205.756ZM164.516 31.8126V33.1526H174.047V31.8126H164.516ZM175.398 31.8144V33.1519H190.557C190.557 33.1519 190.38 32.1207 190.071 31.8144H175.398ZM191.646 31.8144V33.1519H200.771L200.32 31.8144H191.646ZM204.78 31.8144L204.329 33.1519H213.411V31.8144H204.78ZM167.255 34.4188V35.7607H171.383V34.4188H167.255ZM178.138 34.4188V35.7607H182.266V34.4188H178.138ZM186.281 34.4188V35.7607H190.409C190.409 35.7607 190.672 35.0519 190.672 34.4188H186.281ZM194.386 34.4188V35.7607H201.699L201.211 34.4188H194.386ZM203.882 34.4188L203.392 35.7607H210.747V34.4188H203.882ZM167.256 37.0269V38.3669H171.384V37.0269H167.256ZM178.138 37.0269V38.3669H188.682C188.682 38.3669 189.563 37.6794 189.844 37.0269H178.138ZM194.386 37.0269V38.3669H198.514V37.6207L198.777 38.3669H206.339L206.621 37.6207V38.3669H210.749V37.0269H202.999L202.588 38.1619L202.175 37.0269H194.386ZM167.255 39.6332V40.9732H171.383V39.6332H167.255ZM178.138 39.6332V40.9732H189.844C189.563 40.3232 188.681 39.6332 188.681 39.6332H178.138ZM194.386 39.6332V40.9732H198.514V39.6332H194.386ZM199.264 39.6332L199.764 40.9732H205.434L205.909 39.6332H199.264ZM206.619 39.6332V40.9732H210.747V39.6332H206.619ZM167.256 42.2394V43.5794H171.384V42.2394H167.256ZM178.139 42.2394V43.5794H182.267V42.2394H178.139ZM186.283 42.2394V43.5794H190.673C190.673 42.9469 190.41 42.2394 190.41 42.2394H186.283ZM194.388 42.2394V43.5794H198.516V42.2394H194.388ZM200.203 42.2394L200.686 43.5794H204.486L204.974 42.2394H200.203ZM206.62 42.2394V43.5794H210.748V42.2394H206.62ZM164.592 44.8457V46.1876H174.123V44.8457H164.592ZM175.4 44.8457V46.1876H190.074C190.383 45.8801 190.559 44.8457 190.559 44.8457H175.4ZM191.723 44.8457V46.1876H198.513V44.8457H191.723ZM201.141 44.8457L201.639 46.1876H203.573L204.039 44.8457H201.141ZM206.62 44.8457V46.1876H213.488V44.8457H206.62ZM164.592 47.4538V48.7938H174.123V47.4538H164.592ZM175.4 47.4538V48.7913H185.757C187.594 48.7913 188.982 47.4538 188.982 47.4538H175.4ZM191.723 47.4538V48.7938H198.513V47.4538H191.723ZM202.085 47.4538L202.563 48.7901L202.646 48.7919L203.131 47.4544L202.085 47.4538ZM206.621 47.4538V48.7938H213.488V47.4538H206.621Z" fill="black"/>
</g></svg>