<svg width="184" height="65" viewBox="0 0 184 65" fill="none" xmlns="http://www.w3.org/2000/svg">
<path d="M19.2473 17.5656C22.5952 17.5656 25.7862 18.6903 28.088 20.6258V18.1671H34.7839V41.6813C34.7839 52.0913 29.4742 57.3748 19.0119 57.3748C13.9115 57.3748 9.67422 55.4131 6.06471 51.4113L5.28003 50.522L10.6681 46.2847L11.3743 47.1479C14.0422 50.4958 17.0502 51.202 19.1165 51.202C24.8446 51.202 27.7741 48.7957 28.0618 43.8522C25.7078 45.8662 22.9876 46.7032 19.0903 46.7032C10.145 46.7032 4.59998 39.0918 4.59998 32.0559C4.59998 24.0522 11.1651 17.5656 19.2473 17.5656ZM83.9046 18.1671L91.4898 36.4239L99.1535 18.1671H106.399L89.4758 57.3486H82.3614L87.6711 44.8723L76.3717 18.1671H83.9046ZM64.8893 17.5656C72.8668 17.5656 78.0195 21.4628 78.0719 27.5048V46.3632H71.6375V44.8985C69.6235 46.3109 67.3218 46.9648 64.4708 46.9648C57.1471 46.9648 52.0206 42.6752 52.0206 36.5286C52.0206 31.6897 55.9178 26.4847 64.4185 26.4847C66.9556 26.4847 69.3096 27.1386 71.3236 28.3418V27.871C71.3236 24.4707 67.688 23.7645 64.6539 23.7645C62.4306 23.7645 60.312 24.2876 57.958 25.4385L56.9641 25.9093L53.9561 20.1288L55.0808 19.658C58.4288 18.2456 61.646 17.5656 64.8893 17.5656ZM53.6161 17.5656V24.8369L52.256 24.4969C51.6021 24.3661 51.0005 24.2876 50.4512 24.2876C47.1818 24.2876 45.3247 26.5632 45.3247 30.5127V46.3893H38.6026V18.1671H45.3247V19.6842C47.3125 17.7486 49.5096 17.5656 52.4914 17.5656H53.6161ZM65.2293 32.6575C61.2798 32.6575 59.0042 34.1484 59.0042 36.7378C59.0042 39.3272 61.2798 40.8181 65.2293 40.8181C69.1788 40.8181 71.4544 39.3272 71.4544 36.7378C71.4544 34.1484 69.1788 32.6575 65.2293 32.6575ZM20.0058 23.9999C14.7485 23.9999 11.6098 28.1064 11.6098 32.0559C11.6098 37.5486 15.8732 40.5043 19.875 40.5043C24.4 40.5043 28.088 36.8163 28.0621 32.3175C28.0621 27.7925 24.3738 23.9999 20.0058 23.9999Z" fill="#A6AFBD"/>
<path d="M164.308 18.4812C168.31 18.4812 172.39 20.1552 174.614 23.3724H174.718V19.1351H179.4V42.5185C179.4 52.51 174.614 57.7151 164.099 57.7151C159.312 57.7151 155.101 55.9365 151.439 51.8823L155.18 48.9267C158.057 52.51 161.379 53.6086 164.177 53.6086C171.475 53.6086 174.692 49.9729 174.692 43.9309V41.9954H174.614C172.05 45.0556 169.408 46.5727 164.151 46.5727C155.049 46.5727 150.184 38.752 150.184 32.4485C150.184 24.5756 156.644 18.4812 164.308 18.4812ZM132.319 18.5074C140.846 18.5074 146.993 25.0725 146.993 32.71C146.993 40.4783 141.16 46.8865 132.319 46.8865C123.479 46.8865 117.646 40.4783 117.646 32.71C117.62 25.0725 123.766 18.5074 132.319 18.5074ZM112.336 6.68494V37.7843C112.336 40.8445 113.853 41.8908 115.344 41.8908H116.757V46.2588H114.821C110.505 46.2588 107.628 43.8001 107.628 38.1243V6.68494H112.336ZM132.293 22.8754C127.114 22.8754 122.616 27.0865 122.616 32.71C122.616 37.9151 127.088 42.4923 132.293 42.4923C137.498 42.4923 141.971 37.9151 141.971 32.71C141.971 27.0865 137.498 22.8754 132.293 22.8754ZM165.145 22.8754C158.789 22.8754 155.206 27.9235 155.206 32.4485C155.206 38.6997 160.097 42.44 164.988 42.44C170.35 42.44 174.718 38.1243 174.718 32.71C174.718 27.2435 170.245 22.8754 165.145 22.8754Z" fill="#FF3633"/>
<path d="M126.12 31.9252C126.512 31.9252 126.852 32.1345 127.036 32.4745H127.899L129.259 29.205C129.311 29.0481 129.468 28.9173 129.625 28.865C129.913 28.8127 130.2 28.9696 130.253 29.2573L131.691 35.5871L133.156 27.0603C133.182 26.851 133.339 26.6941 133.548 26.6418C133.836 26.5633 134.124 26.7464 134.202 27.0341L135.772 33.4423L136.582 31.0621C136.609 30.9575 136.687 30.8529 136.792 30.7744C137.027 30.6175 137.367 30.6698 137.524 30.9052L138.204 31.8729C138.23 32.1083 138.23 32.3437 138.23 32.5791C138.23 32.893 138.204 33.2069 138.178 33.4946C138.073 33.4684 137.995 33.39 137.916 33.3115L137.236 32.3699L136.19 35.5348C136.086 35.8225 135.798 35.9533 135.51 35.8748C135.327 35.8225 135.196 35.6655 135.17 35.5086L133.758 29.8066L132.267 38.4642C132.214 38.7519 131.953 38.935 131.665 38.9089C131.43 38.8827 131.273 38.6996 131.221 38.4642L129.625 31.1406L128.762 33.2069C128.683 33.4161 128.474 33.5469 128.265 33.5469H127.036C126.852 33.8608 126.512 34.07 126.12 34.07C125.545 34.07 125.048 33.5992 125.048 32.9976C125.074 32.4222 125.545 31.9252 126.12 31.9252Z" fill="#A6AFBD"/>
</svg>
