<svg width="135" height="88" viewBox="0 0 135 88" fill="none" xmlns="http://www.w3.org/2000/svg">
<path d="M63.9114 82.9158C85.1599 82.9158 102.384 65.4315 102.384 43.8624C102.384 22.2964 85.1599 4.81018 63.9114 4.81018C42.6683 4.81018 25.4438 22.296 25.4438 43.8624C25.4438 65.4311 42.6683 82.9158 63.9114 82.9158Z" fill="#FDB827"/>
<path d="M81.4486 47.8582C77.8557 52.2176 75.8176 53.7106 72.1674 53.7106C70.9249 53.7106 70.2776 53.4307 70.6273 52.8294L74.9565 44.1223H76.6071C78.4505 44.1223 78.1959 45.6757 77.6942 47.7782C77.606 48.0721 77.8281 48.0883 78.0469 47.8333L82.163 40.6C82.3641 40.1436 81.8439 40.0549 81.5904 40.3993C79.529 43.1982 77.3581 42.9903 76.4442 42.9903H75.6973L80.3234 34.1656H82.1875C84.5345 34.3108 85.628 36.3043 84.9487 41.1103H85.9257L89.3243 34.4096C89.5993 33.8438 89.0203 33.3248 88.3794 33.3248L65.3071 33.3316C63.9718 33.3316 63.9115 34.3572 65.1936 34.3572C66.2305 34.3572 66.1758 35.8457 65.2434 36.5657L55.4492 44.343L57.428 53.525C57.5721 54.2179 58.0191 54.548 58.7841 54.548H77.8617C78.6482 54.548 78.9734 54.2285 79.2272 53.9011L82.6809 47.9344C83.1588 47.0755 82.0502 47.1309 81.4486 47.8582ZM68.1596 43.6655L66.4795 43.6561C66.4518 43.656 66.4243 43.6613 66.3986 43.6718C66.3729 43.6823 66.3496 43.6978 66.3299 43.7174C66.3103 43.7369 66.2947 43.7602 66.284 43.7858C66.2734 43.8114 66.2679 43.8389 66.2679 43.8666C66.2679 43.9835 66.3637 44.079 66.4795 44.079L68.1818 44.0627C68.759 44.0627 69.2867 44.1363 69.1399 44.392L64.7281 52.8162C64.1812 53.82 63.0209 53.5631 62.8368 52.7608L60.652 41.4709L68.335 35.5133C69.0969 34.8581 70.5673 33.7895 71.3172 33.8012L72.9912 33.7918C74.0097 33.785 74.3741 34.2621 74.1315 34.8796L73.8362 35.4492C73.6442 35.7687 73.0429 35.8072 72.5299 35.8072L71.5642 35.8121C71.536 35.8117 71.508 35.817 71.4818 35.8276C71.4556 35.8382 71.4318 35.854 71.4118 35.8739C71.3918 35.8938 71.376 35.9175 71.3652 35.9436C71.3545 35.9697 71.349 35.9977 71.3492 36.026C71.3492 36.1452 71.4447 36.2383 71.5642 36.2383H72.5167C72.929 36.2383 73.445 36.2489 73.2556 36.5578L69.6925 43.3521C69.5273 43.6176 68.7872 43.6655 68.1596 43.6655Z" fill="#552582"/>
<path d="M52.3218 53.5227C52.1069 53.5173 51.8988 53.4459 51.726 53.318C51.5531 53.1902 51.4238 53.0122 51.3557 52.8083C51.1917 52.3183 51.2067 51.4466 51.4037 51.0618L60.3057 35.2768C60.4502 34.9849 60.8112 34.3764 61.2533 34.3764C62.0398 34.3779 62.3793 33.3433 61.0473 33.3433H53.9177C52.5854 33.3433 52.5722 34.358 53.8487 34.358C54.3693 34.358 54.5767 34.8687 54.4285 35.1799L52.4602 38.7498C52.2139 39.1413 51.6681 39.1715 51.0936 39.1715L49.3954 39.1651C49.3383 39.1651 49.2835 39.1878 49.2431 39.2282C49.2027 39.2686 49.18 39.3233 49.18 39.3805C49.18 39.4376 49.2027 39.4924 49.2431 39.5328C49.2835 39.5732 49.3383 39.5959 49.3954 39.5959H51.0789C51.5342 39.5959 51.8974 39.7332 51.6349 40.2616L45.0647 52.2297C44.5917 52.8883 43.649 53.0354 43.7026 51.7732L46.039 34.2444C46.1311 33.6971 45.9873 33.3259 45.4015 33.3259L41.8796 33.3323C41.4578 33.3323 41.1987 33.5368 40.9961 33.8095L39.7374 35.3926C39.5714 35.5567 39.2184 35.5556 38.8268 35.5556L35.8676 35.5507C35.8397 35.5506 35.8121 35.5561 35.7863 35.5667C35.7605 35.5774 35.7371 35.593 35.7173 35.6128C35.6976 35.6325 35.682 35.6559 35.6713 35.6817C35.6607 35.7075 35.6552 35.7351 35.6553 35.763C35.6553 35.883 35.7496 35.9788 35.8676 35.9788H38.2829C38.7114 35.9788 39.2119 36.0776 39.0305 36.2794L35.6413 40.5434C35.5395 40.6603 35.2113 40.6924 35.0087 40.6924L34.0517 40.6909C33.9322 40.6909 33.8367 40.7863 33.8367 40.9032C33.8367 41.0202 33.9322 41.1156 34.0517 41.1156L34.8499 41.1186C35.0977 41.1186 35.0996 41.2393 35.0008 41.3518L31.8134 45.3547C31.6493 45.5089 31.3317 45.541 31.022 45.541L28.2081 45.538C28.1801 45.538 28.1524 45.5435 28.1265 45.5542C28.1006 45.5649 28.0771 45.5806 28.0574 45.6004C28.0376 45.6202 28.0219 45.6437 28.0112 45.6696C28.0004 45.6954 27.9949 45.7231 27.9949 45.7511C27.9949 45.7791 28.0004 45.8068 28.0112 45.8327C28.0219 45.8585 28.0376 45.882 28.0574 45.9018C28.0771 45.9216 28.1006 45.9373 28.1265 45.948C28.1524 45.9587 28.1801 45.9642 28.2081 45.9642H30.6222C30.9892 45.9642 31.2721 46.0299 31.079 46.2766L26.5506 51.9577C25.6996 53.0418 21.6005 53.5933 20.802 53.5933L36.1166 24.9383C36.2622 24.609 36.8325 24.1062 37.4187 24.1062H40.6706C42.2058 24.1062 42.1606 23.0851 40.8283 23.0851H24.4797C23.149 23.0851 23.0954 24.1062 24.6269 24.1062H27.6551C28.514 24.1062 28.7905 24.6253 28.5706 25.0504L28.1356 25.8387C27.9934 26.0945 27.789 26.1971 26.9587 26.1971L21.6092 26.1941C21.5528 26.1941 21.4987 26.2165 21.4588 26.2564C21.4189 26.2963 21.3964 26.3504 21.3964 26.4068C21.3964 26.4632 21.4189 26.5173 21.4588 26.5572C21.4987 26.5971 21.5528 26.6195 21.6092 26.6195L26.9455 26.6211C27.2349 26.6211 27.6686 26.6965 27.3959 27.217L26.6453 28.6055C26.5189 28.8168 26.1919 28.9171 25.8154 28.9171L23.3915 28.9122C23.335 28.9121 23.2808 28.9344 23.2407 28.9742C23.2006 29.014 23.1779 29.0681 23.1776 29.1246C23.1776 29.2453 23.2712 29.3396 23.3915 29.3396L25.8037 29.3426C26.1489 29.3426 26.1583 29.5678 25.9584 29.8877L24.2353 33.0902C24.0882 33.3629 23.8083 33.3995 23.261 33.3995L22.2957 33.3949C22.2675 33.3948 22.2395 33.4002 22.2134 33.4109C22.1873 33.4216 22.1636 33.4374 22.1436 33.4573C22.1236 33.4772 22.1078 33.5009 22.097 33.527C22.0862 33.553 22.0807 33.581 22.0807 33.6092C22.0807 33.7261 22.1769 33.8212 22.2957 33.8212L23.2482 33.8231C23.611 33.8231 23.7068 34.0256 23.5439 34.3723L22.1297 37.0014C21.9189 37.3749 21.619 37.5239 20.6782 37.5239L15.3291 37.5189C15.2739 37.5213 15.2217 37.5448 15.1834 37.5847C15.1452 37.6246 15.1238 37.6777 15.1238 37.733C15.1238 37.7883 15.1452 37.8414 15.1834 37.8813C15.2217 37.9212 15.2739 37.9448 15.3291 37.9471L20.6639 37.9482C21.2663 37.9576 21.4885 38.2213 21.2531 38.6536L18.4901 43.8421C18.3267 44.0722 17.8764 44.1069 17.108 44.1069L11.7592 44.1008C11.7027 44.1008 11.6485 44.1233 11.6085 44.1633C11.5685 44.2032 11.5461 44.2574 11.5461 44.314C11.5461 44.3705 11.5685 44.4247 11.6085 44.4647C11.6485 44.5046 11.7027 44.5271 11.7592 44.5271L17.0955 44.5286C17.7338 44.5286 18.1238 44.5557 17.9292 44.8918L16.3411 47.8854C16.0476 48.3418 15.228 48.3418 14.9081 48.3418L13.2107 48.3365C13.1827 48.3366 13.155 48.3423 13.1292 48.3531C13.1034 48.364 13.08 48.3798 13.0603 48.3997C13.0406 48.4196 13.025 48.4432 13.0145 48.4691C13.0039 48.495 12.9985 48.5228 12.9987 48.5508C12.9987 48.6688 13.0941 48.7631 13.2111 48.7631L14.893 48.7646C15.489 48.7646 15.8021 48.8672 15.6463 49.1867L13.5204 53.1813C13.3291 53.5378 12.4981 53.5544 11.8584 53.5544L3.58925 53.5469C3.53241 53.5476 3.47815 53.5707 3.43809 53.611C3.39804 53.6514 3.37539 53.7058 3.375 53.7626C3.375 53.8777 3.47383 53.9754 3.58925 53.9754L11.8463 53.9773C12.394 53.9773 13.0851 54.044 12.8274 54.482L11.4748 57.0319C11.3465 57.242 10.8837 57.2605 10.216 57.2605L8.52124 57.2567C8.46481 57.2567 8.4107 57.2791 8.3708 57.319C8.33091 57.3589 8.30849 57.413 8.30849 57.4694C8.30849 57.5259 8.33091 57.58 8.3708 57.6199C8.4107 57.6598 8.46481 57.6822 8.52124 57.6822H10.2047C10.6132 57.6822 11.1153 57.7297 10.9395 58.0417L10.0908 59.6697C9.8177 60.0752 9.54498 60.435 8.88901 60.435H4.73974C3.2045 60.435 3.25844 61.4565 4.59074 61.4565L28.9579 61.4716C29.6709 61.4716 29.6931 61.3765 30.0288 60.85L33.6432 54.5499L52.1128 54.5514C53.447 54.554 53.1037 53.5487 52.3222 53.5227H52.3218ZM37.8336 51.6465C37.6529 52.6861 36.6073 53.3722 35.2913 53.7223L33.9356 54.0591L35.0502 52.052C35.3433 51.5058 34.7002 51.1844 33.9989 51.9962C29.2839 57.4921 27.7777 60.1204 20.504 60.1401L18.5489 60.1438C17.9578 60.1438 17.3087 59.913 17.71 59.3479L20.2826 54.5536L30.0583 54.5548C31.3921 54.5548 31.0496 53.5491 30.2657 53.5231C29.7486 53.5057 29.1831 53.2093 28.7833 52.5767C28.6701 52.402 28.4272 51.7053 28.8078 51.1693L32.5512 46.1936H38.7744L37.834 51.6465H37.8336ZM39.2417 45.3558H33.1725L40.8509 35.2278L39.2417 45.3558ZM131.608 48.4878C131.508 47.9876 131.329 48.2916 130.999 48.9227C130.897 49.1124 130.577 49.1188 130.257 49.1188L129.282 49.1222C129.254 49.1221 129.226 49.1276 129.2 49.1385C129.173 49.1493 129.15 49.1652 129.13 49.1852C129.11 49.2053 129.094 49.2291 129.083 49.2554C129.072 49.2816 129.067 49.3097 129.067 49.338C129.067 49.4523 129.163 49.5473 129.282 49.5473H130.243C130.606 49.5473 130.614 49.791 130.442 50.1573C129.769 51.5892 129.077 52.5488 128.157 53.6993C128.013 53.8792 127.644 54.0369 127.352 54.0369L126.369 54.0429C126.341 54.0429 126.313 54.0484 126.287 54.0592C126.262 54.07 126.238 54.0857 126.218 54.1056C126.199 54.1255 126.183 54.1491 126.172 54.175C126.162 54.201 126.156 54.2287 126.157 54.2568C126.157 54.3729 126.251 54.4691 126.369 54.4691H127.33C127.814 54.4691 127.323 54.7656 127.242 54.8746C125.538 57.1484 124.363 58.1639 123.113 59.182C122.965 59.3 122.259 59.2574 121.764 59.254L120.796 59.2574C120.739 59.2574 120.684 59.2801 120.644 59.3206C120.603 59.3611 120.58 59.4159 120.58 59.4732C120.58 59.5304 120.603 59.5853 120.644 59.6257C120.684 59.6662 120.739 59.6889 120.796 59.6889H121.752C122.481 59.6889 121.932 60.1076 121.824 60.197C119.166 62.4105 115.213 63.1215 113.403 62.8959C107.529 62.1604 106.318 57.701 105.883 55.9187C105.795 55.5457 105.512 54.7811 105.418 54.3099C105.237 53.3782 107.887 53.1134 108.62 53.6038C109.727 54.3458 112.317 55.1081 114.354 55.1142C116.237 55.1217 120.093 53.7524 121.208 50.5175C122.351 47.2075 119.484 43.5328 118.212 42.2657C116.597 40.6475 115.067 38.0727 115.713 36.1829C116.198 34.7563 117.009 34.1101 118.749 34.1101C120.996 34.1101 122.629 35.5556 122.629 37.605C122.629 37.7898 122.52 38.0055 122.371 38.0055L121.577 38.0086C121.52 38.0092 121.466 38.0322 121.426 38.0726C121.385 38.113 121.363 38.1677 121.362 38.2247C121.363 38.2815 121.385 38.3359 121.426 38.376C121.466 38.4161 121.521 38.4386 121.577 38.4386L122.322 38.4367C122.533 38.4367 122.665 38.5963 122.609 38.8535C122.466 39.5385 122.417 40.0206 122.268 40.709C122.178 41.1069 122.764 41.3831 122.966 41.093L126.499 34.7861C126.755 34.3104 126.186 34.1829 125.768 34.3308C124.8 34.6635 123.228 34.8985 122.67 34.496C121.349 33.5485 120.144 32.9415 118.304 32.9415C115.161 32.9415 112.963 33.7129 111.553 36.2976C111.443 36.5001 111.134 36.4971 110.871 36.4971H110.268C110.211 36.4971 110.157 36.5195 110.117 36.5593C110.078 36.5991 110.055 36.6531 110.055 36.7095C110.055 36.7658 110.078 36.8198 110.117 36.8596C110.157 36.8995 110.211 36.9218 110.268 36.9218L110.781 36.9169C111 36.9169 111.147 36.9792 111.037 37.2349C110.941 37.4676 110.853 37.7106 110.772 37.9644C110.415 39.0844 110.531 40.6539 111.091 42.0522C111.127 42.1458 111.007 42.1892 110.791 42.1892H109.832C109.803 42.1892 109.775 42.1948 109.749 42.2057C109.723 42.2166 109.699 42.2325 109.679 42.2525C109.66 42.2726 109.644 42.2963 109.633 42.3225C109.622 42.3486 109.617 42.3766 109.617 42.4049C109.617 42.5226 109.712 42.6173 109.832 42.6173H110.791C111.226 42.6192 111.331 42.6644 111.51 42.9175C112.008 43.6154 112.514 44.1329 113.151 44.9458C113.354 45.1985 112.496 45.2702 112.04 45.2675L108.235 45.2657C108.114 45.2657 108.022 45.3637 108.022 45.4807C108.022 45.5087 108.027 45.5365 108.038 45.5625C108.048 45.5885 108.064 45.6121 108.084 45.6319C108.104 45.6518 108.127 45.6674 108.153 45.6781C108.179 45.6887 108.207 45.694 108.235 45.6938L112.088 45.6889C112.707 45.6889 113.77 45.681 113.89 45.816C114.82 46.8933 115.947 48.5496 116.14 49.9438C116.194 50.3474 116.044 50.516 115.548 50.516H115.031C115.003 50.5159 114.976 50.5213 114.95 50.532C114.924 50.5427 114.901 50.5583 114.881 50.5781C114.861 50.5979 114.846 50.6214 114.835 50.6473C114.824 50.6731 114.819 50.7008 114.819 50.7287C114.819 50.8464 114.914 50.9411 115.032 50.9411H115.488C115.881 50.9411 116.095 51.0064 116.003 51.301C115.502 52.8966 114.754 54.0519 111.704 54.0357C108.506 54.0176 107.855 50.8823 108.79 47.6111C108.974 46.9623 108.782 46.6806 108.49 47.1943L106.263 50.6903C106.209 50.7733 105.995 50.9732 105.655 50.9732L105.341 50.9713C105.285 50.9713 105.231 50.9937 105.191 51.0337C105.151 51.0737 105.128 51.1279 105.128 51.1844C105.128 51.2409 105.151 51.2951 105.191 51.3351C105.231 51.3751 105.285 51.3975 105.341 51.3975C105.623 51.3975 105.733 51.5488 105.623 51.7057L104.81 52.9773C103.462 49.9011 101.209 46.1117 100.008 44.733L100.029 44.6666C102.996 44.4856 107.369 41.7086 108.088 39.2243C109.33 34.9166 105.146 33.324 102.863 33.324L92.838 33.3259C91.5053 33.3259 91.4076 34.3368 92.6856 34.3368C93.3766 34.3368 93.9805 34.9407 93.6761 35.5522L91.4563 39.5544C91.2729 39.8825 90.5815 39.8622 89.6872 39.8622H88.7147C88.6577 39.8622 88.6031 39.8848 88.5628 39.9251C88.5225 39.9654 88.4999 40.02 88.4999 40.077C88.4999 40.134 88.5225 40.1886 88.5628 40.2289C88.6031 40.2692 88.6577 40.2918 88.7147 40.2918H89.6709C90.3107 40.2918 91.0149 40.3284 90.7762 40.7867L88.1508 45.5259C88.0248 45.7462 87.6831 45.7643 86.791 45.7643L85.8231 45.7658C85.7656 45.7667 85.7108 45.7902 85.6705 45.8311C85.6302 45.872 85.6077 45.9272 85.6077 45.9846C85.6077 46.0978 85.7038 46.1974 85.8227 46.1974H86.7672C87.4737 46.1974 87.7351 46.2905 87.5329 46.6538L84.0257 52.998C83.607 53.4518 83.109 53.5386 82.2524 53.5386C80.9737 53.5386 80.9869 54.5521 82.3211 54.5521H90.9063C92.2405 54.5521 91.9021 53.5205 91.1122 53.5205C90.6532 53.5205 90.1632 52.671 90.4721 52.1621L94.8553 43.8598H95.3008C97.2494 43.8598 97.7217 47.0585 98.0864 50.5488C98.114 50.8008 97.6387 50.8102 96.6659 50.8102L94.2299 50.8185C94.2019 50.8184 94.1741 50.8238 94.1482 50.8344C94.1222 50.845 94.0987 50.8607 94.0788 50.8805C94.059 50.9002 94.0433 50.9237 94.0325 50.9496C94.0218 50.9755 94.0163 51.0033 94.0164 51.0313C94.0167 51.0878 94.0392 51.142 94.0792 51.182C94.1192 51.2221 94.1733 51.2447 94.2299 51.2451H96.6383C97.2807 51.2451 98.1747 51.2516 98.1985 51.4541C98.3648 52.9882 98.4904 54.336 98.7865 55.5657C98.8771 55.9482 98.1932 55.8878 97.4629 55.8878L94.3585 55.8908C94.3021 55.891 94.248 55.9134 94.2079 55.9531C94.1678 55.9929 94.1449 56.0468 94.1442 56.1032C94.1442 56.2239 94.2393 56.319 94.3589 56.319L97.4595 56.3223C98.4338 56.3223 98.9374 56.3223 98.9925 56.5215C100.327 61.4195 106.055 65.2754 111.623 65.0626C116.402 64.8816 120.44 62.2811 122.503 60.6244C125.256 58.4177 129.292 53.7981 130.938 50.4402C131.234 49.825 131.721 49.0351 131.608 48.4878ZM99.4859 41.9689C98.8156 42.5158 97.7617 43.151 97.5568 42.9496C97.2709 42.6667 96.383 42.0537 95.9073 41.835L99.888 34.5616C100.052 34.3059 100.241 34.1667 100.679 34.1667C102.227 34.1667 102.734 35.8457 102.007 37.9376C101.496 39.4039 100.669 40.993 99.4859 41.9689Z" fill="#552582"/>
<path d="M51.137 26.8628C50.329 27.9043 49.2619 28.1706 48.0646 28.1706H47.727L49.8386 23.9889C49.9393 23.7965 50.1623 23.6456 50.4391 23.6456C50.7032 23.6456 50.6692 23.1179 50.3241 23.1179H46.9934C46.7108 23.1179 46.612 23.6456 46.876 23.6456C47.1597 23.6456 47.2106 23.9602 47.0756 24.2265L45.1843 27.953C45.0553 28.154 44.8459 28.2072 44.6154 28.2695C44.334 28.3411 44.1417 28.8436 44.4593 28.8436H49.7741C50.1853 28.8436 50.2815 28.6927 50.3901 28.5456L51.4599 26.8896C51.613 26.6912 51.2901 26.6629 51.1366 26.8632L51.137 26.8628ZM67.1472 23.2658C66.985 23.3567 66.6047 23.4016 66.4384 23.2624C66.0152 22.9112 65.1815 22.64 64.7451 22.64C63.4928 22.64 62.5856 22.8875 62.0398 24.0696C61.5758 25.079 62.0518 25.9228 63.1563 26.4328C63.635 26.6554 64.2691 26.9451 64.0261 27.5192C63.8489 27.9424 63.3585 27.985 62.9164 27.9832C62.3238 27.9756 61.4302 27.5298 61.2933 26.6927C61.2461 26.4193 60.9281 26.4834 60.8369 26.6286L60.0798 28.1363C59.961 28.3362 60.2741 28.558 60.3974 28.4275C60.652 28.154 61.2073 28.0869 61.4807 28.2706C61.8595 28.5218 62.8304 28.9624 63.4037 28.9563C64.6749 28.9465 65.5135 28.6218 66.2102 27.5309C66.8442 26.5377 66.4542 25.5521 65.2947 25.0043C64.6817 24.7188 64.1578 24.2077 64.4309 23.6456C64.6119 23.2809 65.154 23.359 65.4244 23.4042C65.9439 23.4933 66.6066 23.9806 66.6832 24.4087C66.7164 24.5909 66.9476 24.6275 67.0517 24.4642L67.4497 23.5336C67.5413 23.3537 67.2479 23.213 67.1472 23.2658ZM104.027 24.7641L104.491 23.9127C104.694 23.5374 104.363 23.1108 103.833 23.1108H97.627C97.1811 23.1108 97.3086 23.5759 97.4912 23.5759C97.8903 23.5759 98.008 24.0632 97.7666 24.4751L95.9013 27.9062C95.6236 28.2363 95.4449 28.3773 95.0465 28.3773C94.7263 28.3773 94.6116 28.8439 95.0597 28.8439H101.35C101.604 28.8439 101.719 28.7534 101.809 28.6252L102.663 27.4898C102.871 27.2174 102.422 27.2174 102.285 27.3528C101.201 28.4381 100.038 28.4094 99.195 28.4094H98.4621L99.3207 26.4845H99.507C100.058 26.4845 100.696 26.477 100.865 26.8994C100.91 26.9994 101.179 27.0805 101.29 26.8994L102.024 25.4295C102.144 25.2122 101.814 25.1741 101.722 25.3306C101.435 25.8482 100.158 25.7093 99.8257 25.7093H99.6394L100.713 23.594H101.908C102.65 23.594 103.289 24.1183 103.5 24.6916C103.551 24.8282 103.948 24.9383 104.027 24.7641ZM88.1493 23.1108H85.9411C85.4938 23.1108 85.6273 23.5759 85.8072 23.5759C86.2814 23.5759 86.7099 24.1304 86.4515 24.643L85.5356 26.3167L83.5187 23.3639C83.3844 23.1828 83.0679 23.0942 82.793 23.0942H80.6202C80.1736 23.0942 80.277 23.5585 80.4588 23.5585C80.9197 23.5585 80.8017 23.9037 80.6878 24.1496L78.9549 27.4834C78.844 27.7497 78.3743 27.7866 78.2257 27.4483L76.8885 23.0813C76.8331 22.909 76.0489 22.9184 75.8489 23.0813L72.4918 25.8512H70.7491C70.4058 25.8512 70.2682 25.996 70.2682 26.1782C70.2682 26.3619 70.3994 26.5298 70.7623 26.5298L71.671 26.5268L70.7619 27.2778C70.2584 27.6512 69.742 28.1718 69.3934 28.1718H69.1856C68.8555 28.1718 68.6688 28.2257 68.6688 28.4897C68.6688 28.7545 68.8091 28.8447 69.1199 28.8447H71.8283C72.3402 28.8447 72.2391 28.1789 71.9837 28.1789C71.7023 28.1789 71.2383 27.8225 71.6699 27.3208L72.4971 26.5302H74.1266C75.0934 26.5302 75.7697 27.6501 75.1926 27.9986L74.7479 28.2446C74.5374 28.3536 74.4461 28.8454 74.7479 28.8454H80.0393C80.4354 28.8454 80.3535 28.3283 80.1702 28.3283C79.6308 28.3283 79.8862 27.5467 79.9907 27.3393L81.3803 24.7041L83.3354 28.4905C83.461 28.7281 83.5775 28.8454 83.8061 28.8454H84.5553C84.7906 28.8454 84.8721 28.7081 84.98 28.526L87.2033 24.5072C87.5627 23.7886 87.8377 23.583 88.2885 23.583C88.4707 23.5808 88.5989 23.1108 88.1489 23.1108H88.1493ZM73.3439 25.8504L75.4144 24.1617L75.4238 25.8504H73.3439ZM56.7943 22.8599C54.9324 22.8599 53.0158 23.7769 52.6311 25.7305C52.2984 27.4313 53.4749 29.1932 55.5552 29.1932C57.5329 29.1932 59.3601 27.8979 59.7271 26.0228C60.0945 24.1383 58.6921 22.8599 56.7943 22.8599ZM57.3232 26.4411C56.7302 27.6169 55.743 28.3196 55.1124 28.0031C54.4843 27.6867 54.4541 26.4766 55.0452 25.2986C55.6329 24.1217 56.6219 23.4201 57.2526 23.7369C57.8803 24.053 57.9105 25.2635 57.3232 26.4415V26.4411ZM94.4426 25.7101H92.053C91.6064 25.7101 91.7377 26.1775 91.9172 26.1775C92.1062 26.1775 92.2831 26.2763 92.2831 26.5788C92.2831 27.5448 91.8742 27.9168 91.041 27.9168C90.1319 27.9168 89.8018 26.8115 90.4167 25.4574C90.8071 24.5913 91.8437 23.7814 93.0707 23.7814C93.8263 23.7814 94.4603 23.944 94.5535 24.6502C94.5769 24.824 94.8394 24.824 94.9266 24.66L95.4969 23.6423C95.561 23.5336 95.4611 23.4046 95.2876 23.3933C95.1423 23.3835 94.813 23.5721 94.601 23.4137C94.1209 23.0576 93.0809 22.7113 92.2933 22.7113C91.0074 22.7113 89.2134 23.0018 88.0033 25.1058C86.9102 27.0073 88.5042 29.0175 89.9844 29.019C90.8052 29.022 91.7599 28.4135 92.3061 28.1816L92.9176 28.5988C93.0051 28.7055 93.1982 28.8428 93.3804 28.8428H93.6067C93.8198 28.8428 93.9009 28.5573 93.9836 28.3747L94.9198 26.1016C95.0405 25.8742 94.9741 25.7097 94.4426 25.7097V25.7101ZM127.21 23.2658C127.05 23.3567 126.667 23.4016 126.504 23.2624C126.08 22.9112 125.247 22.64 124.81 22.64C123.558 22.64 122.649 22.8875 122.105 24.0696C121.637 25.079 122.116 25.9228 123.221 26.4328C123.702 26.6554 124.338 26.9451 124.094 27.5192C123.914 27.9424 123.421 27.985 122.979 27.9832C122.389 27.9756 121.495 27.5298 121.356 26.6927C121.311 26.4193 120.993 26.4834 120.903 26.6286L120.144 28.1363C120.025 28.3362 120.338 28.558 120.461 28.4275C120.718 28.154 121.273 28.0869 121.549 28.2706C121.924 28.5218 122.89 28.9624 123.472 28.9563C124.738 28.9465 125.578 28.6218 126.271 27.5309C126.909 26.5377 126.517 25.5521 125.359 25.0043C124.744 24.7188 124.221 24.2077 124.496 23.6456C124.672 23.2809 125.221 23.359 125.493 23.4042C126.007 23.4933 126.673 23.9806 126.749 24.4087C126.781 24.5909 127.012 24.6275 127.114 24.4642L127.513 23.5336C127.602 23.3537 127.31 23.213 127.21 23.2658ZM110.578 26.8628C109.776 27.9043 108.705 28.1706 107.505 28.1706H107.168L109.283 23.9889C109.384 23.7965 109.604 23.6456 109.881 23.6456C110.146 23.6456 110.114 23.1179 109.765 23.1179H106.436C106.153 23.1179 106.053 23.6456 106.317 23.6456C106.602 23.6456 106.655 23.9602 106.517 24.2265L104.626 27.953C104.497 28.154 104.29 28.2072 104.057 28.2695C103.775 28.3411 103.584 28.8436 103.903 28.8436H109.217C109.627 28.8436 109.727 28.6927 109.835 28.5456L110.901 26.8896C111.059 26.6912 110.734 26.6629 110.578 26.8632V26.8628ZM118.595 23.5932C119.335 23.5932 119.978 24.1172 120.187 24.6909C120.235 24.8282 120.632 24.9383 120.716 24.7641L121.178 23.9127C121.377 23.5374 121.047 23.1108 120.517 23.1108H114.312C113.865 23.1108 113.996 23.5759 114.178 23.5759C114.578 23.5759 114.698 24.0632 114.454 24.4751L112.59 27.9062C112.312 28.2363 112.13 28.3773 111.733 28.3773C111.413 28.3773 111.3 28.8439 111.749 28.8439H118.036C118.291 28.8439 118.406 28.7534 118.495 28.6252L119.35 27.4898C119.56 27.2174 119.108 27.2174 118.971 27.3528C117.886 28.4381 116.722 28.4094 115.881 28.4094H115.148L116.009 26.4845H116.192C116.745 26.4845 117.382 26.477 117.549 26.8994C117.594 26.9994 117.866 27.0805 117.977 26.8994L118.71 25.4295C118.831 25.2122 118.499 25.1741 118.411 25.3306C118.118 25.8482 116.846 25.7093 116.51 25.7093H116.328L117.402 23.594H118.596V23.5932H118.595Z" fill="#552582"/>
<path d="M51.1366 26.8628C50.3289 27.9043 49.2616 28.1704 48.0643 28.1704H47.7268L49.8386 23.9888C49.9393 23.7962 50.1621 23.6456 50.4388 23.6456C50.7028 23.6456 50.6691 23.118 50.3241 23.118H46.9935C46.7107 23.118 46.6117 23.6456 46.8757 23.6456C47.1594 23.6456 47.2106 23.9603 47.0754 24.2265L45.1842 27.9529C45.055 28.1538 44.8457 28.2072 44.6155 28.2694C44.334 28.3412 44.1414 28.8433 44.4592 28.8433H49.7743C50.1853 28.8433 50.2812 28.6927 50.3898 28.5456L51.4597 26.8895C51.6129 26.6912 51.2903 26.6627 51.1366 26.8628Z" fill="#552582"/>
<path d="M67.1471 23.266C66.9847 23.3566 66.6047 23.4017 66.4383 23.2625C66.015 22.911 65.1815 22.64 64.745 22.64C63.493 22.64 62.5854 22.8873 62.0395 24.0693C61.5759 25.0789 62.0518 25.9229 63.1559 26.4329C63.6348 26.6553 64.2691 26.9451 64.0262 27.519C63.8489 27.9424 63.3586 27.9848 62.9164 27.9831C62.3236 27.9756 61.4301 27.5295 61.2931 26.6925C61.2458 26.4193 60.928 26.4832 60.8365 26.6286L60.0796 28.1363C59.961 28.3359 60.274 28.5579 60.3974 28.4274C60.6518 28.1538 61.2073 28.0868 61.4805 28.2707C61.8592 28.5215 62.8302 28.9624 63.4037 28.9563C64.6745 28.9466 65.5133 28.6218 66.2098 27.5309C66.8442 26.5375 66.4541 25.5521 65.2944 25.0044C64.6815 24.7186 64.1575 24.2077 64.4307 23.6456C64.6115 23.2809 65.1539 23.3593 65.4244 23.4043C65.9436 23.4932 66.6064 23.9805 66.6831 24.4086C66.7163 24.5907 66.9475 24.6275 67.0517 24.4642L67.4496 23.5335C67.5411 23.3536 67.2478 23.213 67.1471 23.266Z" fill="#552582"/>
<path d="M104.026 24.7641L104.491 23.9126C104.694 23.5374 104.363 23.1106 103.833 23.1106H97.627C97.1809 23.1106 97.3083 23.576 97.4913 23.576C97.8901 23.576 98.0079 24.0632 97.7662 24.4752L95.9013 27.906C95.6233 28.2361 95.4447 28.3771 95.0463 28.3771C94.7263 28.3771 94.6116 28.8437 95.0594 28.8437H101.349C101.604 28.8437 101.719 28.7536 101.809 28.6249L102.663 27.4897C102.871 27.2174 102.422 27.2174 102.285 27.3527C101.201 28.4379 100.038 28.4095 99.1947 28.4095H98.4619L99.3204 26.4846H99.5068C100.058 26.4846 100.695 26.4771 100.865 26.8996C100.909 26.9994 101.179 27.0804 101.29 26.8996L102.024 25.4295C102.144 25.2119 101.814 25.1738 101.722 25.3306C101.435 25.848 100.157 25.7093 99.8256 25.7093H99.639L100.713 23.5939H101.908C102.65 23.5939 103.289 24.1179 103.5 24.6914C103.551 24.828 103.948 24.9383 104.026 24.7641Z" fill="#552582"/>
<path d="M88.1491 23.1106H85.9409C85.4935 23.1106 85.6271 23.576 85.807 23.576C86.2811 23.576 86.7097 24.1302 86.4514 24.6428L85.5356 26.3165L83.5187 23.3636C83.3843 23.1828 83.0678 23.094 82.7929 23.094H80.6202C80.1736 23.094 80.277 23.5584 80.4586 23.5584C80.9196 23.5584 80.8014 23.9034 80.6876 24.1494L78.9549 27.4831C78.8437 27.7497 78.3744 27.7865 78.2255 27.4481L76.8885 23.0813C76.8329 22.9088 76.0489 22.9184 75.8488 23.0813L72.4915 25.8511H70.7491C70.4059 25.8511 70.268 25.996 70.268 26.1781C70.268 26.362 70.3994 26.5297 70.7618 26.5297L71.6707 26.5266L70.7618 27.2778C70.2584 27.6512 69.7418 28.1718 69.3933 28.1718H69.1854C68.8553 28.1718 68.6684 28.2256 68.6684 28.4896C68.6684 28.7544 68.8089 28.8446 69.1197 28.8446H71.8283C72.34 28.8446 72.2389 28.1788 71.9837 28.1788C71.7022 28.1788 71.2381 27.8224 71.6698 27.3207L72.4967 26.5301H74.1266C75.0932 26.5301 75.7696 27.6499 75.1926 27.9984L74.7478 28.2444C74.5372 28.3534 74.4457 28.8455 74.7478 28.8455H80.0392C80.435 28.8455 80.3536 28.328 80.1701 28.328C79.6304 28.328 79.886 27.5466 79.9907 27.3391L81.3802 24.7041L83.3353 28.4905C83.4609 28.7282 83.5774 28.8455 83.8059 28.8455H84.5549C84.7905 28.8455 84.8719 28.708 84.98 28.5259L87.2031 24.5071C87.5625 23.7887 87.8374 23.583 88.2883 23.583C88.4704 23.5808 88.5987 23.1106 88.1491 23.1106ZM73.3438 25.8502L75.4141 24.1617L75.4237 25.8502H73.3438Z" fill="#552582"/>
<path d="M56.7941 22.8597C54.9322 22.8597 53.0156 23.7769 52.6308 25.7303C52.2981 27.431 53.4748 29.1931 55.5551 29.1931C57.5326 29.1931 59.3599 27.8977 59.7267 26.0227C60.0945 24.1381 58.6918 22.8597 56.7941 22.8597ZM57.3229 26.4412C56.7301 27.6167 55.7429 28.3197 55.1121 28.0032C54.4843 27.6867 54.4541 26.4767 55.0451 25.2986C55.6326 24.1219 56.6216 23.4201 57.2524 23.7366C57.8802 24.0531 57.9104 25.2636 57.3229 26.4412Z" fill="#552582"/>
<path d="M94.4426 25.7097H92.0528C91.6062 25.7097 91.7376 26.1772 91.9171 26.1772C92.1062 26.1772 92.2831 26.2762 92.2831 26.5787C92.2831 27.5449 91.8742 27.9165 91.0406 27.9165C90.1318 27.9165 89.8017 26.8116 90.4164 25.4571C90.8069 24.5912 91.8435 23.7813 93.0706 23.7813C93.8262 23.7813 94.4601 23.9441 94.5534 24.6503C94.5766 24.8241 94.8392 24.8241 94.9264 24.6599L95.4968 23.6421C95.5607 23.5335 95.4609 23.4043 95.2875 23.393C95.1422 23.3833 94.813 23.572 94.6011 23.4135C94.1208 23.0576 93.0807 22.7113 92.2931 22.7113C91.0074 22.7113 89.2133 23.0016 88.0033 25.1056C86.9102 27.0073 88.5041 29.0171 89.9843 29.0189C90.8051 29.0219 91.7599 28.4134 92.3058 28.1818L92.9174 28.5986C93.005 28.7054 93.198 28.8429 93.3801 28.8429H93.6069C93.8197 28.8429 93.9011 28.557 93.9834 28.3745L94.9198 26.1015C95.0406 25.8743 94.9741 25.7097 94.4426 25.7097Z" fill="#552582"/>
<path d="M127.209 23.266C127.049 23.3566 126.667 23.4017 126.503 23.2625C126.08 22.911 125.246 22.64 124.81 22.64C123.558 22.64 122.649 22.8873 122.105 24.0693C121.637 25.0789 122.115 25.9229 123.221 26.4329C123.702 26.6553 124.338 26.9451 124.094 27.519C123.914 27.9424 123.421 27.9848 122.979 27.9831C122.389 27.9756 121.495 27.5295 121.356 26.6925C121.311 26.4193 120.993 26.4832 120.903 26.6286L120.144 28.1363C120.025 28.3359 120.337 28.5579 120.461 28.4274C120.718 28.1538 121.273 28.0868 121.549 28.2707C121.924 28.5215 122.89 28.9624 123.472 28.9563C124.738 28.9466 125.578 28.6218 126.271 27.5309C126.909 26.5375 126.516 25.5521 125.359 25.0044C124.744 24.7186 124.221 24.2077 124.496 23.6456C124.672 23.2809 125.221 23.3593 125.493 23.4043C126.006 23.4932 126.673 23.9805 126.749 24.4086C126.781 24.5907 127.012 24.6275 127.114 24.4642L127.513 23.5335C127.602 23.3536 127.31 23.213 127.209 23.266Z" fill="#552582"/>
<path d="M110.578 26.8628C109.775 27.9043 108.705 28.1704 107.505 28.1704H107.168L109.283 23.9888C109.384 23.7962 109.603 23.6456 109.881 23.6456C110.146 23.6456 110.113 23.118 109.765 23.118H106.436C106.153 23.118 106.053 23.6456 106.317 23.6456C106.601 23.6456 106.654 23.9603 106.517 24.2265L104.625 27.9529C104.497 28.1538 104.29 28.2072 104.057 28.2694C103.775 28.3412 103.584 28.8433 103.903 28.8433H109.217C109.627 28.8433 109.727 28.6927 109.834 28.5456L110.9 26.8895C111.059 26.6912 110.734 26.6627 110.578 26.8628Z" fill="#552582"/>
<path d="M118.595 23.593C119.335 23.593 119.977 24.117 120.187 24.6905C120.235 24.828 120.632 24.9383 120.715 24.7641L121.178 23.9126C121.377 23.5374 121.047 23.1106 120.517 23.1106H114.313C113.865 23.1106 113.995 23.576 114.178 23.576C114.578 23.576 114.698 24.0632 114.454 24.4752L112.589 27.906C112.312 28.2361 112.13 28.3771 111.733 28.3771C111.413 28.3771 111.3 28.8437 111.749 28.8437H118.036C118.291 28.8437 118.405 28.7536 118.495 28.6249L119.35 27.4897C119.56 27.2174 119.108 27.2174 118.971 27.3527C117.886 28.4379 116.722 28.4095 115.881 28.4095H115.147L116.009 26.4846H116.192C116.744 26.4846 117.382 26.4771 117.549 26.8996C117.595 26.9994 117.866 27.0804 117.977 26.8996L118.71 25.4295C118.83 25.2119 118.499 25.1738 118.411 25.3306C118.118 25.848 116.846 25.7093 116.509 25.7093H116.328L117.401 23.5939H118.595V23.593H118.595Z" fill="#552582"/>
<path d="M94.153 18.5714C93.6758 18.0207 93.0168 16.8514 88.2855 12.7274C81.3234 6.66113 72.1018 3.89319 63.4389 3.89319C57.055 3.89319 51.464 5.32733 45.2741 8.73389C37.3882 13.0755 34.1216 18.0652 33.3147 19.0814C32.7165 19.8268 32.6312 20.2632 33.0179 20.488C33.294 20.6446 33.8251 20.0644 34.3215 19.41C36.6673 16.3116 39.7518 13.2381 42.9991 11.4302C44.0089 11.5773 45.4219 12.9846 45.9704 13.7304C43.8958 14.8627 40.4503 17.487 39.1467 18.4968C38.0211 19.3681 37.6319 19.8585 37.9363 20.2131C38.1909 20.5073 39.0513 19.9286 39.7729 19.3379C41.0192 18.3131 44.7256 15.6866 46.5596 14.6994C47.8089 16.1607 47.4057 18.86 46.9651 19.4466C46.7274 19.7612 46.692 20.0954 46.9651 20.25C47.2193 20.3952 47.5007 20.0248 47.8644 19.4994C48.7131 18.2708 48.3728 15.2965 47.6429 14.2249C49.8798 12.8356 53.0917 11.907 55.0381 11.4683C55.2025 11.7795 57.5616 18.668 58.0105 19.9196C58.2545 20.6042 58.4989 21.4243 58.9991 21.2707C59.3348 21.1704 59.113 20.4175 58.835 19.6653C58.4899 18.731 56.7057 12.9439 56.1576 11.2302C56.7996 10.8821 60.6732 10.096 61.6422 10.1356C61.1669 12.6546 62.9511 13.6862 64.9632 15.0102C66.0359 15.7134 72.8415 19.625 74.2662 20.5035C75.0772 21.0071 75.7079 21.3258 75.8799 21.0893C76.0813 20.8177 75.5302 20.2493 74.78 19.8102C74.1813 19.4605 67.8484 15.7865 65.2023 14.1144C63.3076 12.9179 62.2872 11.635 62.741 9.95151C63.3657 9.7697 65.274 9.75536 67.2573 9.7697C80.7591 9.87909 91.5868 17.6186 92.7965 18.8593C93.411 19.4892 94.2646 20.029 94.5947 19.7747C94.8033 19.614 94.4426 18.9023 94.153 18.5714ZM47.0737 13.2381C46.7109 12.6301 44.9942 11.0635 44.0659 10.7553C46.2318 9.14844 51.2585 6.85238 53.1668 6.44688C53.4949 6.99459 54.3772 9.33252 54.6695 10.3185C52.9827 10.6829 48.5048 12.2883 47.0737 13.2381ZM61.8237 8.89269C60.0647 9.00434 56.8709 9.69577 55.7336 10.0258C55.4394 9.26047 54.6345 6.88369 54.3772 6.11909C57.6155 5.19983 61.3831 4.88034 64.2846 5.13269C63.4758 5.75207 62.1205 8.19939 61.8237 8.89231V8.89269ZM70.5949 8.78368C67.6655 8.5781 65.274 8.49436 63.1812 8.71201C63.7885 7.18508 64.9971 5.75735 65.9367 5.13269C67.9299 5.21379 69.9898 5.50499 71.6231 5.82751C76.8456 6.85728 84.9664 10.0424 88.4684 14.7368C83.8024 11.6248 76.0546 9.17333 70.5949 8.78368ZM97.0763 64.802C97.5769 63.8831 97.9835 63.3603 97.5535 63.1215C97.1612 62.9057 96.7821 63.7556 96.3068 64.5813C94.7286 67.3228 93.0062 69.5823 89.1142 73.1262C84.8031 77.054 79.8489 79.335 78.1224 79.9182C76.6562 75.7915 71.0603 58.2197 70.9117 57.7176C70.6929 56.967 70.5051 56.7531 70.2516 56.8399C69.9668 56.9425 70.1422 57.3551 70.2893 58.0103C70.4364 58.6656 77.0975 79.4651 77.3167 80.1943C75.9927 80.8491 70.628 82.3519 66.8763 82.4726C63.535 82.5839 59.6098 82.4726 57.628 82.0162C55.3044 80.1415 50.022 72.6811 48.0149 68.7072C45.6528 64.0291 44.0878 59.7247 43.6845 57.8957C43.4906 57.0213 43.2428 56.3906 42.8026 56.4774C42.3303 56.5675 42.6019 57.2571 42.8781 58.1955C43.5876 60.601 44.7475 64.0113 47.2084 68.8728C49.8164 74.0224 54.4726 80.0626 55.8302 81.7076C51.5753 80.8121 46.4049 78.8246 41.4918 75.1559C37.2592 72.0043 33.6244 67.9848 31.7934 65.0573C31.4822 64.5541 31.1118 63.8442 30.658 64.1452C30.454 64.2795 30.7056 64.8521 31.0236 65.4221C33.6799 70.1934 40.1565 76.9446 48.4554 80.6488C58.127 84.9678 68.673 84.7374 78.1043 81.0864C86.3538 77.8922 93.5302 71.3205 97.0763 64.8023" fill="#231F20"/>
</svg>
