<svg width="162" height="73" viewBox="0 0 162 73" fill="none" xmlns="http://www.w3.org/2000/svg">
<path d="M82.5715 34.271C82.5715 32.8991 81.5221 31.2044 79.2623 31.2044H74.7433V41.5341H77.2451V37.4184H79.2623C81.603 37.4184 82.5715 35.7236 82.5715 34.271ZM78.4556 35.4815H77.326V33.0605H78.2136C79.5851 33.0605 80.0697 33.3833 80.0697 34.271C79.9888 35.078 79.5851 35.4815 78.4556 35.4815Z" fill="#F58220"/>
<path d="M92.2551 38.5482C92.2551 34.9166 87.1714 35.4009 87.1714 33.8675C87.1714 33.3833 87.7361 32.9798 88.6237 32.9798C89.5114 32.9798 90.3188 33.2219 91.8521 33.8675V31.85C90.5607 31.2851 89.5922 31.043 88.4627 31.043C86.122 31.043 84.5887 32.2535 84.5887 34.0289C84.5887 37.7412 89.6731 37.0956 89.6731 38.7903C89.6731 39.4359 89.1885 39.7587 88.22 39.7587C87.0905 39.7587 86.2028 39.4359 84.7505 38.4675V40.7271C85.719 41.292 86.6066 41.6955 88.3818 41.6955C90.6416 41.6955 92.2551 40.5657 92.2551 38.5482Z" fill="#F58220"/>
<path d="M99.9222 31.1236C96.1291 31.1236 94.1119 33.9482 94.1119 36.45C94.1119 39.1131 96.21 41.7762 99.9222 41.7762C103.554 41.7762 105.652 39.1131 105.652 36.45C105.732 33.9482 103.715 31.1236 99.9222 31.1236ZM99.9222 39.5166C97.9852 39.5166 96.6939 38.2253 96.6939 36.3692C96.6939 34.5131 97.9852 33.2219 99.9222 33.2219C101.859 33.2219 103.07 34.5131 103.07 36.3692C103.15 38.3061 101.859 39.5166 99.9222 39.5166Z" fill="#F58220"/>
<path d="M115.578 34.1903C115.578 32.657 114.367 31.2044 112.269 31.2044H107.75V41.5341H110.252V37.3376H110.978C112.35 37.3376 112.753 39.3552 113.803 41.5341H116.546C115.094 38.4675 114.852 37.257 113.803 36.6921C115.013 36.2079 115.578 35.3201 115.578 34.1903ZM111.624 35.4815H110.332V33.1412H111.624C112.592 33.1412 113.076 33.5447 113.076 34.271C112.996 35.1587 112.35 35.4815 111.624 35.4815Z" fill="#F58220"/>
<path d="M121.066 31.2044H118.564V41.5341H121.066V31.2044Z" fill="#F58220"/>
<path d="M131.799 41.5341H134.463L130.024 31.2044H127.118L123.083 41.5341H125.747L126.473 39.5166H130.992L131.799 41.5341ZM127.118 37.7412L128.571 33.7061L130.185 37.7412H127.118Z" fill="#F58220"/>
<path d="M140.676 38.871C140.676 39.5166 140.192 39.8394 139.223 39.8394C138.094 39.8394 137.206 39.5166 135.753 38.5482V40.8078C136.722 41.3727 137.609 41.7762 139.385 41.7762C141.644 41.7762 143.258 40.6464 143.258 38.6288C143.258 34.9974 138.174 35.4815 138.174 33.9482C138.174 33.464 138.74 33.0605 139.627 33.0605C140.515 33.0605 141.321 33.3026 142.775 33.9482V31.9307C141.483 31.3658 140.515 31.1236 139.385 31.1236C137.044 31.1236 135.511 32.3342 135.511 34.1096C135.592 37.7412 140.676 37.1762 140.676 38.871Z" fill="#F58220"/>
<path d="M148.02 31.2044H145.518V41.5341H148.02V31.2044Z" fill="#F58220"/>
<path d="M152.943 33.8675C152.943 33.3833 153.508 32.9798 154.395 32.9798C155.283 32.9798 156.09 33.2219 157.543 33.8675V31.85C156.251 31.2851 155.283 31.043 154.153 31.043C151.812 31.043 150.279 32.2535 150.279 34.0289C150.279 37.7412 155.364 37.0956 155.364 38.7903C155.364 39.4359 154.88 39.7587 153.911 39.7587C152.781 39.7587 151.893 39.4359 150.441 38.3867V40.6464C151.409 41.2113 152.297 41.6148 154.072 41.6148C156.332 41.6148 157.946 40.485 157.946 38.4675C158.107 34.9166 152.943 35.4009 152.943 33.8675Z" fill="#F58220"/>
<path d="M75.8746 21.9241L79.3449 26.2012H80.7171V19.5838H79.103V23.6189L75.7136 19.5838H74.2608V26.2012H75.8746V21.9241Z" fill="#52B9E9"/>
<path d="M84.4294 24.91H87.254L87.8187 26.2012H89.5131L86.6892 19.6645H84.8331L82.2504 26.2012H83.9447L84.4294 24.91ZM85.7207 21.1977L86.7694 23.7802H84.8331L85.7207 21.1977Z" fill="#52B9E9"/>
<path d="M91.7729 26.2012H93.3062V20.7943H95.6469V19.5838H89.4329V20.7943H91.7729V26.2012Z" fill="#52B9E9"/>
<path d="M99.0363 19.5838H97.4221V26.1206H99.0363V19.5838Z" fill="#52B9E9"/>
<path d="M104.605 26.282C106.864 26.282 108.236 24.5872 108.236 22.8925C108.236 21.2785 107.026 19.5031 104.605 19.5031C102.184 19.5031 100.973 21.2785 100.973 22.8925C100.892 24.5872 102.264 26.282 104.605 26.282ZM104.605 20.875C105.815 20.875 106.622 21.682 106.622 22.8925C106.622 24.103 105.815 24.91 104.605 24.91C103.394 24.91 102.587 24.103 102.587 22.8925C102.587 21.682 103.394 20.875 104.605 20.875Z" fill="#52B9E9"/>
<path d="M111.706 21.9241L115.257 26.2012H116.548V19.5838H115.015V23.6189L111.544 19.5838H110.092V26.2012H111.706V21.9241Z" fill="#52B9E9"/>
<path d="M120.341 24.91H123.166L123.731 26.2012H125.426L122.601 19.6645H120.745L118.162 26.2012H119.857L120.341 24.91ZM121.713 21.1977L122.762 23.7802H120.825L121.713 21.1977Z" fill="#52B9E9"/>
<path d="M131.801 24.9907H128.572V19.5838H126.959V26.2012H131.801V24.9907Z" fill="#52B9E9"/>
<path d="M74.2608 53.478H75.8746V50.7341H78.7801V49.5236H75.8746V48.071H78.7801V46.8605H74.2608V53.478Z" fill="#52B9E9"/>
<path d="M83.7837 46.7798C81.2819 46.7798 79.9906 48.5552 79.9906 50.1692C79.9906 51.8639 81.3628 53.5586 83.7837 53.5586C86.1237 53.5586 87.5768 51.8639 87.5768 50.1692C87.4959 48.5552 86.2046 46.7798 83.7837 46.7798ZM83.7837 52.1867C82.4924 52.1867 81.6856 51.3797 81.6856 50.1692C81.6856 48.9587 82.4924 48.1516 83.7837 48.1516C84.9941 48.1516 85.8817 48.9587 85.8817 50.1692C85.8009 51.3797 84.9941 52.1867 83.7837 52.1867Z" fill="#52B9E9"/>
<path d="M93.7908 50.5727C93.7908 51.7832 92.9834 52.1867 92.0958 52.1867C91.1273 52.1867 90.4816 51.6219 90.4816 50.6534V46.8605H88.8681V50.5727C88.8681 52.5902 90.2396 53.478 92.1766 53.478C93.9519 53.478 95.4851 52.7516 95.4851 50.5727V46.8605H93.871V50.5727H93.7908Z" fill="#52B9E9"/>
<path d="M102.022 50.8955L98.5517 46.8605H97.0184V53.478H98.7135V49.2815L102.345 53.478H103.717V46.8605H102.022V50.8955Z" fill="#52B9E9"/>
<path d="M108.236 46.8605H105.331V53.478H108.075C110.738 53.478 111.867 52.106 111.867 50.1692C111.867 48.3938 110.657 46.8605 108.236 46.8605ZM108.075 52.2675H107.026V48.071H108.075C109.608 48.071 110.254 49.0394 110.254 50.1692C110.254 51.1376 109.688 52.2675 108.075 52.2675Z" fill="#52B9E9"/>
<path d="M114.692 46.8605L112.029 53.3972H113.804L114.288 52.106H117.194L117.759 53.3972H119.534L116.629 46.8605H114.692ZM114.692 50.9762L115.66 48.3938L116.71 50.9762H114.692Z" fill="#52B9E9"/>
<path d="M118.889 48.071H121.229V53.478H122.924V48.071H125.264V46.8605H118.889V48.071Z" fill="#52B9E9"/>
<path d="M128.169 46.8605H126.555V53.3972H128.169V46.8605Z" fill="#52B9E9"/>
<path d="M133.334 46.7798C130.832 46.7798 129.541 48.5552 129.541 50.1692C129.541 51.8639 130.913 53.5586 133.334 53.5586C135.675 53.5586 137.127 51.8639 137.127 50.1692C137.046 48.5552 135.836 46.7798 133.334 46.7798ZM133.334 52.1867C132.043 52.1867 131.236 51.3797 131.236 50.1692C131.236 48.9587 132.043 48.1516 133.334 48.1516C134.544 48.1516 135.432 48.9587 135.432 50.1692C135.352 51.3797 134.544 52.1867 133.334 52.1867Z" fill="#52B9E9"/>
<path d="M143.422 50.8955L139.952 46.8605H138.418V53.478H140.032V49.2815L143.664 53.478H145.035V46.8605H143.422V50.8955Z" fill="#52B9E9"/>
<path d="M147.941 46.8605C147.053 46.8605 146.408 47.5061 146.408 48.3938C146.408 49.2815 147.134 49.9271 147.941 49.9271C148.829 49.9271 149.474 49.2815 149.474 48.3938C149.474 47.5061 148.829 46.8605 147.941 46.8605ZM147.941 49.5236C147.295 49.5236 146.811 49.0394 146.811 48.3131C146.811 47.5868 147.295 47.1025 147.941 47.1025C148.587 47.1025 149.07 47.5868 149.07 48.3131C149.07 49.0394 148.587 49.5236 147.941 49.5236Z" fill="#52B9E9"/>
<path d="M148.667 47.9903C148.667 47.5868 148.425 47.5061 147.941 47.5061H147.295V49.2008H147.699V48.4745H147.86L148.264 49.2008H148.667L148.183 48.4745C148.506 48.3938 148.667 48.3131 148.667 47.9903ZM148.022 48.2324H147.699V47.8289H147.941C148.102 47.8289 148.264 47.8289 148.264 47.9903C148.345 48.1516 148.183 48.2324 148.022 48.2324Z" fill="#52B9E9"/>
<path d="M33.748 60.5798C32.0533 55.657 21.4008 50.6536 22.9341 42.1799C12.7657 46.4571 4.05002 35.4011 4.05002 35.4011C4.13072 35.3203 4.29212 35.2397 4.37282 35.3203C4.45352 35.4011 10.5061 40.808 17.0429 39.6782C23.5796 38.6291 28.906 33.0607 32.0533 33.4642C32.2147 33.4642 32.2954 33.6256 32.2954 33.7063C32.2954 33.8677 32.2147 33.8677 32.0533 33.9484C29.8743 34.8362 25.92 39.5168 27.0498 46.0536C27.9375 51.2185 32.941 54.043 33.9901 60.0956C33.9094 60.4184 33.8287 60.499 33.748 60.5798Z" fill="#F58220"/>
<path d="M15.6709 49.5237C16.3972 51.1377 18.2533 51.864 19.8674 51.1377C21.4814 50.4114 22.2076 48.5553 21.4814 46.9413C20.755 45.3272 18.8989 44.601 17.2849 45.3272C15.5902 46.0536 14.9446 47.9097 15.6709 49.5237Z" fill="#F58220"/>
<path d="M36.411 12.3206C38.1058 17.2433 48.6776 22.2468 47.1443 30.7204C57.3126 26.4433 66.0283 37.4993 66.0283 37.4993C65.9476 37.58 65.7862 37.6607 65.7055 37.5799C65.6248 37.4993 59.5722 32.0923 53.0354 33.2221C46.4987 34.2712 41.1724 39.8396 38.025 39.4361C37.8636 39.4361 37.783 39.3554 37.783 39.194C37.783 39.0326 37.8636 39.0326 38.025 38.9519C40.204 38.0642 44.1583 33.3835 43.0285 26.8468C42.1409 21.6819 37.1374 18.8573 36.0883 12.8047C36.1689 12.482 36.3304 12.4013 36.411 12.3206Z" fill="#F58220"/>
<path d="M54.4881 23.3766C53.7618 21.7626 51.9057 21.0363 50.2916 21.7626C48.6776 22.489 47.9513 24.3451 48.6776 25.9591C49.404 27.5731 51.2601 28.2994 52.8741 27.5731C54.5688 26.8468 55.2144 24.9907 54.4881 23.3766Z" fill="#F58220"/>
<path d="M10.9081 35.0782C15.8309 33.3835 20.8344 22.8117 29.308 24.345C25.0308 14.1767 36.0869 5.46094 36.0869 5.46094C36.1676 5.54164 36.2483 5.70304 36.1676 5.78374C36.0869 5.86444 30.6799 11.917 31.8097 18.4538C32.8588 25.0713 38.4272 30.3169 38.0237 33.4642C38.0237 33.6256 37.943 33.7063 37.7816 33.7063C37.6202 33.7063 37.6202 33.6256 37.5395 33.4642C36.6518 31.2852 31.9712 27.3309 25.4343 28.4607C20.2695 29.3485 17.4449 34.3519 11.3924 35.401C11.0696 35.3203 10.9889 35.2396 10.9081 35.0782Z" fill="#52B9E9"/>
<path d="M21.9643 17.0011C20.3503 17.7275 19.624 19.5836 20.3503 21.1976C21.0766 22.8116 22.9327 23.538 24.5467 22.8116C26.1607 22.0854 26.8871 20.2292 26.1607 18.6151C25.4345 17.0011 23.5784 16.2749 21.9643 17.0011Z" fill="#52B9E9"/>
<path d="M59.1675 37.8221C54.2447 39.5168 49.2412 50.0886 40.7676 48.5553C45.0448 58.7236 33.9888 67.4394 33.9888 67.4394C33.908 67.3586 33.8273 67.1972 33.908 67.1165C33.9888 67.0359 39.3957 60.9833 38.2659 54.4464C37.2168 47.9097 31.6484 42.5834 32.0519 39.436C32.0519 39.2747 32.1326 39.1939 32.294 39.1939C32.4554 39.1939 32.4554 39.2747 32.5361 39.436C33.4238 41.615 38.1045 45.5694 44.6413 44.4395C49.8062 43.5518 52.6307 38.5484 58.6832 37.4993C59.0061 37.5799 59.1675 37.6607 59.1675 37.8221Z" fill="#52B9E9"/>
<path d="M48.1921 55.899C49.8061 55.1728 50.5324 53.3167 49.8061 51.7026C49.0798 50.0886 47.2237 49.3623 45.6097 50.0886C43.9957 50.8149 43.2693 52.671 43.9957 54.285C44.6413 55.899 46.5781 56.6254 48.1921 55.899Z" fill="#52B9E9"/>
<path d="M39.6389 67.4394H40.2038V65.664H40.7686V65.2605H38.9933V65.664H39.6389V67.4394Z" fill="#52B9E9"/>
<path d="M41.2529 67.4394H41.7371V65.9061L42.3827 67.4394H42.7862L43.3511 65.9061V67.4394H43.8353V65.2605H43.109L42.5441 66.6324L41.9792 65.2605H41.2529V67.4394Z" fill="#52B9E9"/>
</svg>
