<svg width="222" height="54" viewBox="0 0 222 54" fill="none" xmlns="http://www.w3.org/2000/svg">
<path d="M190.716 35.1649L190.716 35.1696H190.684L190.716 35.1649Z" fill="#100F0D"/>
<path d="M190.716 35.1696H191.2C192.041 37.0303 194.08 39.2346 197.463 39.2346C200.936 39.2346 203.051 36.6866 203.051 33.5519C203.051 30.1242 200.31 28.9974 197.401 27.8016C194.112 26.4495 190.607 25.009 190.607 20.0546C190.607 15.64 193.997 12.5883 199.247 12.5883C201.7 12.5883 203.478 13.1785 205.09 14.3678C204.586 15.3005 204.331 16.2373 203.993 17.7632H203.573C202.98 16.2373 201.795 14.0282 198.832 14.0282C195.875 14.0282 193.754 16.0631 193.754 18.9524C193.754 22.4874 196.607 23.6286 199.581 24.8182C202.818 26.1127 206.198 27.4645 206.198 32.0214C206.198 36.8543 202.565 40.9299 196.474 40.9299C193.256 40.9299 191.39 39.7454 189.956 38.6403C190.462 37.4522 190.549 36.6882 190.716 35.1696Z" fill="#100F0D"/>
<path fill-rule="evenodd" clip-rule="evenodd" d="M159.706 26.773C159.706 35.7681 165.807 40.9471 174.523 40.9471C183.24 40.9471 189.337 35.7681 189.337 26.773C189.337 17.778 183.246 12.599 174.529 12.599C165.813 12.599 159.715 17.772 159.715 26.7671L159.706 26.773ZM185.44 26.7701C185.439 35.5083 180.699 39.4953 174.525 39.4953C168.345 39.4953 163.604 35.5074 163.604 26.7671C163.604 17.9439 168.345 14.0389 174.519 14.0389C180.693 14.0389 185.439 17.943 185.44 26.7701Z" fill="#100F0D"/>
<path d="M157.608 40.9406C157.523 39.1629 157.436 30.4226 157.436 26.3458C157.436 23.2882 157.863 15.4012 158.117 13.108C157.982 13.1299 157.86 13.1521 157.745 13.1731C157.423 13.2316 157.158 13.2798 156.849 13.2798C156.422 13.2798 155.912 13.1969 155.488 13.1139C155.829 19.223 155.829 26.9498 155.829 33.9952V33.9958C151.569 29.7206 144.205 21.7441 138.113 15.1467L138.113 15.1463L138.109 15.1425C137.304 14.2704 136.521 13.4224 135.771 12.6102H135.178C135.261 14.3879 135.261 18.2099 135.261 23.2171C135.261 28.3901 134.751 38.5763 134.414 40.4488C134.447 40.4434 134.48 40.438 134.513 40.4326L134.516 40.4321C134.992 40.3544 135.466 40.2769 135.939 40.2769C136.36 40.2769 136.875 40.3658 137.296 40.4547C137.124 38.8429 136.955 30.5257 136.955 27.128C136.955 24.4495 136.991 22.5149 137.017 21.0887L137.017 21.0881L137.017 21.0874C137.032 20.2551 137.044 19.596 137.044 19.0632C137.909 19.9861 138.782 20.9145 139.658 21.8468L139.661 21.8504C145.635 28.2082 151.78 34.7477 157.019 40.9584H157.612L157.608 40.9406Z" fill="#100F0D"/>
<path fill-rule="evenodd" clip-rule="evenodd" d="M102.758 26.7849C102.758 35.78 108.856 40.9572 117.572 40.9572C126.289 40.9572 132.381 35.7794 132.381 26.7849C132.381 17.7898 126.289 12.6132 117.572 12.6132C108.856 12.6132 102.758 17.788 102.758 26.7837V26.7849ZM128.576 26.7846C128.576 35.5247 123.753 39.5125 117.572 39.5125C111.392 39.5125 106.652 35.5246 106.652 26.7843C106.652 17.9563 111.392 14.0525 117.572 14.0525C123.753 14.0525 128.576 17.9574 128.576 26.7846Z" fill="#100F0D"/>
<path fill-rule="evenodd" clip-rule="evenodd" d="M209.524 16.5063H209.138V13.668H210.228C210.868 13.668 211.147 13.9447 211.147 14.4519C211.147 14.9544 210.821 15.1731 210.489 15.2442L211.283 16.5063H210.85L210.08 15.2442H209.535L209.524 16.5063ZM209.969 14.9212L210.01 14.9213C210.372 14.922 210.76 14.9227 210.76 14.4454C210.76 14.0472 210.434 13.9891 210.138 13.9891H209.522V14.9218L209.969 14.9212Z" fill="#100F0D"/>
<path fill-rule="evenodd" clip-rule="evenodd" d="M212.414 15.083C212.412 15.7159 212.16 16.3224 211.712 16.7699C211.265 17.2174 210.658 17.4695 210.026 17.471C208.704 17.471 207.638 16.3961 207.638 15.083C207.638 13.7699 208.704 12.695 210.026 12.695C210.658 12.6965 211.265 12.9486 211.712 13.3961C212.16 13.8436 212.412 14.4501 212.414 15.083ZM212.027 15.0818C212.027 13.931 211.171 13.0173 210.026 13.0173C208.881 13.0173 208.026 13.9317 208.026 15.083C208.026 16.2343 208.881 17.1487 210.026 17.1487C211.171 17.1487 212.027 16.2308 212.027 15.0818Z" fill="#100F0D"/>
<path fill-rule="evenodd" clip-rule="evenodd" d="M84.4963 40.4251C84.664 37.0285 84.834 33.5472 84.834 30.156H84.8482V23.3895C84.8482 19.9112 84.6823 16.5158 84.5105 13.1204C86.0334 13.2034 87.5563 13.2864 88.9903 13.2864C89.7524 13.2864 90.5161 13.2433 91.279 13.2003C92.0405 13.1574 92.8012 13.1145 93.5589 13.1145C97.9616 13.1145 101.772 14.6374 101.772 19.3068C101.772 24.4798 96.6106 26.5182 93.6478 26.939C94.2746 27.7096 95.3901 29.1282 96.6898 30.7811C99.4076 34.2374 102.931 38.7178 104.474 40.4375C103.715 40.3486 102.868 40.2597 102.104 40.2597C101.391 40.2597 100.685 40.3369 99.9731 40.4145C99.9209 40.4202 99.8686 40.4259 99.8163 40.4316C98.2105 37.9665 92.9604 30.761 89.571 27.2708H88.0493V30.1566C88.0493 33.5519 88.2193 37.0303 88.387 40.4256L88.3269 40.4179C87.6682 40.3334 87.0161 40.2497 86.4399 40.2497C85.8488 40.2497 85.3213 40.3182 84.7461 40.3928C84.6639 40.4035 84.5807 40.4143 84.4963 40.4251ZM88.198 17.6384C88.1237 19.5467 88.0493 21.4554 88.0493 23.364V25.5696C88.8101 25.7402 89.6604 25.8267 90.6708 25.8267C93.9743 25.8267 98.2929 24.4692 98.2929 19.7151C98.2929 15.5582 94.8205 14.539 92.1125 14.539C90.333 14.539 89.1485 14.622 88.3023 14.7079C88.2742 15.6846 88.2361 16.6614 88.198 17.6384Z" fill="#100F0D"/>
<path d="M63.4331 23.4446V30.2389L63.4455 30.2146C63.4455 33.5211 63.2713 37.0054 63.1054 40.3178C63.1431 40.3129 63.1805 40.308 63.2176 40.3031C63.851 40.22 64.4151 40.146 65.0532 40.146C65.6079 40.146 66.1662 40.2192 66.7956 40.3018C66.8359 40.3071 66.8765 40.3125 66.9174 40.3178C66.7455 37.0113 66.6626 33.5271 66.6626 30.2206V26.7422C66.6626 26.6593 66.7455 26.5763 66.8285 26.5763C66.9174 26.5763 67.0833 26.6652 67.2551 26.8311C68.9498 28.5318 74.8719 35.7432 78.5967 40.3297C79.2722 40.2408 80.0367 40.1578 80.7122 40.1578C81.5595 40.1578 82.3216 40.2408 83.0824 40.3297C81.515 38.5437 79.9581 36.7593 78.4119 34.9872C75.6178 31.7848 72.8586 28.6224 70.135 25.563C72.9259 22.2506 79.1063 16.485 82.6617 13.3444C82.0632 13.4333 81.3877 13.5163 80.7951 13.5163C80.2328 13.5163 79.7468 13.4362 79.2668 13.3572C79.2409 13.3529 79.2151 13.3487 79.1893 13.3444C75.545 17.5101 71.0653 22.4225 67.421 25.569C67.3794 25.6006 67.3417 25.6295 67.3071 25.656C67.0612 25.8447 66.9781 25.9085 66.8285 25.9085C66.7396 25.9085 66.6566 25.8255 66.6566 25.6537V23.4446C66.6566 20.0546 66.7396 16.6586 66.9114 13.3492C66.8454 13.3576 66.7802 13.3659 66.7157 13.3742C66.1151 13.4512 65.58 13.5198 65.0449 13.5198C64.428 13.5198 63.8804 13.4497 63.271 13.3716C63.2131 13.3642 63.1545 13.3567 63.0953 13.3492L63.0998 13.4386C63.2643 16.7198 63.4331 20.0857 63.4331 23.4446Z" fill="#100F0D"/>
<path d="M27.6181 17.7631C31.5562 17.7631 32.4906 16.731 33.4863 15.6312C33.5594 15.5504 33.6329 15.4693 33.7079 15.3882C33.7938 15.3882 40.3137 6.13532 40.3137 6.13532C40.3137 6.13532 40.738 6.30598 41.2423 6.56196C41.2423 6.56196 37.4321 11.9916 32.5257 18.7835C31.7643 19.8027 30.3226 21.4998 27.5304 21.4998H10.1802C10.4317 20.4337 10.7735 19.4618 11.0711 18.6156C11.1768 18.3151 11.2769 18.0305 11.3654 17.7631H27.6181Z" fill="#F03B25"/>
<path d="M15.0049 12.0769H24.1481C25.451 12.0769 26.309 11.072 26.903 10.3765C27.0416 10.2142 27.1658 10.0687 27.278 9.95675C27.278 10.0397 31.2565 4.44 31.2565 4.44C25.7551 4.52296 19.5753 6.72966 15.0049 12.0763V12.0769Z" fill="#F03B25"/>
<path d="M9.92662 22.4272H28.8862C28.9077 22.4272 28.9412 22.4279 28.9856 22.4288C29.8101 22.4454 34.4089 22.5382 36.3347 19.8021C38.4501 16.9122 44.4628 8.42794 44.4628 8.42794C44.7166 8.58072 44.8165 8.67331 44.9313 8.7798C45.0057 8.84884 45.0865 8.92372 45.2195 9.02464C45.2195 9.02464 35.1519 23.1098 35.1519 23.1928C33.3725 25.563 30.4944 26.1615 28.2119 26.1615H9.58649C9.58649 25.1423 9.67241 23.6965 9.92662 22.4224V22.4272Z" fill="#F03B25"/>
<path d="M53.8549 26.6732C53.8545 32.2721 51.9109 37.4443 48.2695 41.2659L40.1449 29.9841C39.3805 28.9649 38.0253 27.2666 35.8251 26.6747C37.9845 26.007 39.33 24.361 40.1018 23.4167L40.1449 23.364L48.2689 11.9916C51.9109 15.8132 53.8545 20.9854 53.8549 26.6732Z" fill="#F03B25"/>
<path d="M26.6025 13.0961H14.1575V13.0967C13.1419 14.3648 12.1274 16.0655 11.8738 16.7469H25.7551C27.5316 16.6598 28.9692 15.8948 30.3226 13.7752C30.4091 13.6887 36.6713 4.94842 36.6713 4.94842L35.5738 4.77657L31.337 10.637C31.337 10.637 29.5617 13.1791 26.6025 13.0961Z" fill="#F03B25"/>
<path d="M28.8862 30.8374H9.92662V30.8439C9.67241 29.564 9.58649 28.13 9.58649 27.1049H28.2119C30.4944 27.1049 33.3725 27.6974 35.1519 30.0736C35.1519 30.1566 45.2196 44.2417 45.2196 44.2417C45.0834 44.3435 45.0021 44.4187 44.9262 44.4889C44.8135 44.5931 44.7129 44.6862 44.4628 44.8384C44.4628 44.8384 38.4501 36.3482 36.3347 33.4684C34.385 30.7757 29.6953 30.8285 28.9566 30.8368C28.9264 30.8371 28.9027 30.8374 28.8862 30.8374Z" fill="#F03B25"/>
<path d="M11.366 35.4949H27.6181C31.5501 35.4949 32.4877 36.529 33.4817 37.6252C33.5563 37.7076 33.6313 37.7903 33.7079 37.8729C33.7938 37.8729 40.3137 47.1275 40.3137 47.1275C40.3137 47.1275 40.738 46.9616 41.2423 46.7068C41.2423 46.7068 37.4321 41.273 32.5257 34.4882C31.7643 33.469 30.3226 31.7683 27.5304 31.7683C27.5304 31.8572 10.1802 31.7683 10.1802 31.7683C10.4336 32.8498 10.7797 33.8293 11.0794 34.6775C11.182 34.968 11.2792 35.243 11.3654 35.5015L11.366 35.4949Z" fill="#F03B25"/>
<path d="M15.0049 41.196H24.1481C25.4517 41.196 26.3101 42.202 26.904 42.8982C27.0422 43.0602 27.1661 43.2055 27.278 43.3173L31.2565 48.84C25.7551 48.7511 19.5753 46.5468 15.0049 41.2019V41.196Z" fill="#F03B25"/>
<path d="M26.6025 40.1679H14.1575C13.1419 38.8962 12.381 37.5357 11.8738 36.5177H25.7551C27.5316 36.6042 28.9692 37.3651 30.3226 39.4888C30.4091 39.5747 36.6713 48.3132 36.6713 48.3132L35.5738 48.4851L31.337 42.6317C31.337 42.6317 29.5617 40.1679 26.6025 40.1679Z" fill="#F03B25"/>
</svg>
