<svg width="48" height="48" viewBox="0 0 48 48" fill="none" xmlns="http://www.w3.org/2000/svg">
<path d="M3 17.9333C3 12.7062 3 10.0926 4.01727 8.09609C4.91209 6.33991 6.33991 4.91209 8.09609 4.01727C10.0926 3 12.7062 3 17.9333 3H30.0667C35.2938 3 37.9074 3 39.9039 4.01727C41.6601 4.91209 43.0879 6.33991 43.9827 8.09609C45 10.0926 45 12.7062 45 17.9333V30.0667C45 35.2938 45 37.9074 43.9827 39.9039C43.0879 41.6601 41.6601 43.0879 39.9039 43.9827C37.9074 45 35.2938 45 30.0667 45H17.9333C12.7062 45 10.0926 45 8.09609 43.9827C6.33991 43.0879 4.91209 41.6601 4.01727 39.9039C3 37.9074 3 35.2938 3 30.0667V17.9333Z" fill="white"/>
<path d="M12 32.293V38.2837C12 39.505 13.0004 40.4948 14.2325 40.4948H20.1833V32.293H12Z" fill="#188038"/>
<path d="M27.8223 40.4967H33.7676C34.9996 40.4967 36 39.5068 36 38.2855V32.293H27.8223V40.4967Z" fill="#1967D2"/>
<path d="M27.8205 32.293H20.1833V40.4967H27.8205V32.293Z" fill="#34A853"/>
<path d="M14.2325 7.5C13.0004 7.5 12 8.48988 12 9.71116V32.2929H20.1833V15.7643H27.8204V7.5H14.2325Z" fill="#FBBC05"/>
<path d="M36 15.7644H27.8223V32.293H36V15.7644Z" fill="#4285F4"/>
<path d="M27.8223 15.7643H35.9982L27.8223 7.5V15.7643Z" fill="#EA4335"/>
</svg>
