<svg  viewBox="20 16 220 50" fill="none" xmlns="http://www.w3.org/2000/svg"><defs>
<filter id="filter0_dd_0_2217" x="96.2311" y="30.0696" width="25.0178" height="24.6394" filterUnits="userSpaceOnUse" color-interpolation-filters="sRGB">
<feFlood flood-opacity="0" result="BackgroundImageFix"/>
<feColorMatrix in="SourceAlpha" type="matrix" values="0 0 0 0 0 0 0 0 0 0 0 0 0 0 0 0 0 0 127 0" result="hardAlpha"/>
<feOffset dx="0.852015" dy="1.4606"/>
<feGaussianBlur stdDeviation="1.70403"/>
<feColorMatrix type="matrix" values="0 0 0 0 1 0 0 0 0 0.875 0 0 0 0 0.843 0 0 0 0.63 0"/>
<feBlend mode="normal" in2="BackgroundImageFix" result="effect1_dropShadow_0_2217"/>
<feColorMatrix in="SourceAlpha" type="matrix" values="0 0 0 0 0 0 0 0 0 0 0 0 0 0 0 0 0 0 127 0" result="hardAlpha"/>
<feOffset dx="0.365149" dy="0.730298"/>
<feGaussianBlur stdDeviation="1.21716"/>
<feColorMatrix type="matrix" values="0 0 0 0 0.771137 0 0 0 0 0.469437 0 0 0 0 0.40806 0 0 0 0.3 0"/>
<feBlend mode="normal" in2="effect1_dropShadow_0_2217" result="effect2_dropShadow_0_2217"/>
<feBlend mode="normal" in="SourceGraphic" in2="effect2_dropShadow_0_2217" result="shape"/>
</filter>
<filter id="filter1_ii_0_2217" x="98.8164" y="39.2344" width="11.9002" height="14.7443" filterUnits="userSpaceOnUse" color-interpolation-filters="sRGB">
<feFlood flood-opacity="0" result="BackgroundImageFix"/>
<feBlend mode="normal" in="SourceGraphic" in2="BackgroundImageFix" result="shape"/>
<feColorMatrix in="SourceAlpha" type="matrix" values="0 0 0 0 0 0 0 0 0 0 0 0 0 0 0 0 0 0 127 0" result="hardAlpha"/>
<feOffset dx="2.79947" dy="6.93784"/>
<feGaussianBlur stdDeviation="2.06918"/>
<feComposite in2="hardAlpha" operator="arithmetic" k2="-1" k3="1"/>
<feColorMatrix type="matrix" values="0 0 0 0 1 0 0 0 0 0.651 0 0 0 0 0.58 0 0 0 1 0"/>
<feBlend mode="normal" in2="shape" result="effect1_innerShadow_0_2217"/>
<feColorMatrix in="SourceAlpha" type="matrix" values="0 0 0 0 0 0 0 0 0 0 0 0 0 0 0 0 0 0 127 0" result="hardAlpha"/>
<feOffset dx="-2.24069" dy="14.7885"/>
<feGaussianBlur stdDeviation="2.01663"/>
<feComposite in2="hardAlpha" operator="arithmetic" k2="-1" k3="1"/>
<feColorMatrix type="matrix" values="0 0 0 0 1 0 0 0 0 0.875 0 0 0 0 0.843 0 0 0 0.48 0"/>
<feBlend mode="normal" in2="effect1_innerShadow_0_2217" result="effect2_innerShadow_0_2217"/>
</filter>
<filter id="filter2_ii_0_2217" x="98.8164" y="37.8955" width="10.683" height="11.9448" filterUnits="userSpaceOnUse" color-interpolation-filters="sRGB">
<feFlood flood-opacity="0" result="BackgroundImageFix"/>
<feBlend mode="normal" in="SourceGraphic" in2="BackgroundImageFix" result="shape"/>
<feColorMatrix in="SourceAlpha" type="matrix" values="0 0 0 0 0 0 0 0 0 0 0 0 0 0 0 0 0 0 127 0" result="hardAlpha"/>
<feOffset dx="0.121716" dy="-1.4606"/>
<feGaussianBlur stdDeviation="0.547724"/>
<feComposite in2="hardAlpha" operator="arithmetic" k2="-1" k3="1"/>
<feColorMatrix type="matrix" values="0 0 0 0 1 0 0 0 0 0.604589 0 0 0 0 0.591667 0 0 0 0.2 0"/>
<feBlend mode="multiply" in2="shape" result="effect1_innerShadow_0_2217"/>
<feColorMatrix in="SourceAlpha" type="matrix" values="0 0 0 0 0 0 0 0 0 0 0 0 0 0 0 0 0 0 127 0" result="hardAlpha"/>
<feOffset dx="1.58231" dy="-1.33888"/>
<feGaussianBlur stdDeviation="0.791157"/>
<feComposite in2="hardAlpha" operator="arithmetic" k2="-1" k3="1"/>
<feColorMatrix type="matrix" values="0 0 0 0 1 0 0 0 0 1 0 0 0 0 1 0 0 0 0.3 0"/>
<feBlend mode="normal" in2="effect1_innerShadow_0_2217" result="effect2_innerShadow_0_2217"/>
</filter>
<filter id="filter3_ii_0_2217" x="96.5757" y="35.6567" width="14.1409" height="15.623" filterUnits="userSpaceOnUse" color-interpolation-filters="sRGB">
<feFlood flood-opacity="0" result="BackgroundImageFix"/>
<feBlend mode="normal" in="SourceGraphic" in2="BackgroundImageFix" result="shape"/>
<feColorMatrix in="SourceAlpha" type="matrix" values="0 0 0 0 0 0 0 0 0 0 0 0 0 0 0 0 0 0 127 0" result="hardAlpha"/>
<feOffset dx="2.79947" dy="6.93784"/>
<feGaussianBlur stdDeviation="2.06918"/>
<feComposite in2="hardAlpha" operator="arithmetic" k2="-1" k3="1"/>
<feColorMatrix type="matrix" values="0 0 0 0 1 0 0 0 0 0.651 0 0 0 0 0.58 0 0 0 1 0"/>
<feBlend mode="normal" in2="shape" result="effect1_innerShadow_0_2217"/>
<feColorMatrix in="SourceAlpha" type="matrix" values="0 0 0 0 0 0 0 0 0 0 0 0 0 0 0 0 0 0 127 0" result="hardAlpha"/>
<feOffset dx="-2.24069" dy="14.7885"/>
<feGaussianBlur stdDeviation="2.01663"/>
<feComposite in2="hardAlpha" operator="arithmetic" k2="-1" k3="1"/>
<feColorMatrix type="matrix" values="0 0 0 0 1 0 0 0 0 0.875 0 0 0 0 0.843 0 0 0 0.48 0"/>
<feBlend mode="normal" in2="effect1_innerShadow_0_2217" result="effect2_innerShadow_0_2217"/>
</filter>
<filter id="filter4_ii_0_2217" x="98.8164" y="35.4133" width="9.95272" height="12.0932" filterUnits="userSpaceOnUse" color-interpolation-filters="sRGB">
<feFlood flood-opacity="0" result="BackgroundImageFix"/>
<feBlend mode="normal" in="SourceGraphic" in2="BackgroundImageFix" result="shape"/>
<feColorMatrix in="SourceAlpha" type="matrix" values="0 0 0 0 0 0 0 0 0 0 0 0 0 0 0 0 0 0 127 0" result="hardAlpha"/>
<feOffset dx="0.365149" dy="-0.243433"/>
<feGaussianBlur stdDeviation="0.912873"/>
<feComposite in2="hardAlpha" operator="arithmetic" k2="-1" k3="1"/>
<feColorMatrix type="matrix" values="0 0 0 0 0.996078 0 0 0 0 0.458823 0 0 0 0 0.411765 0 0 0 0.5 0"/>
<feBlend mode="normal" in2="shape" result="effect1_innerShadow_0_2217"/>
<feColorMatrix in="SourceAlpha" type="matrix" values="0 0 0 0 0 0 0 0 0 0 0 0 0 0 0 0 0 0 127 0" result="hardAlpha"/>
<feOffset dx="1.94746" dy="0.365149"/>
<feGaussianBlur stdDeviation="0.426008"/>
<feComposite in2="hardAlpha" operator="arithmetic" k2="-1" k3="1"/>
<feColorMatrix type="matrix" values="0 0 0 0 1 0 0 0 0 1 0 0 0 0 1 0 0 0 0.08 0"/>
<feBlend mode="normal" in2="effect1_innerShadow_0_2217" result="effect2_innerShadow_0_2217"/>
</filter>
<filter id="filter5_ii_0_2217" x="96.3533" y="30.1921" width="20.6355" height="21.2297" filterUnits="userSpaceOnUse" color-interpolation-filters="sRGB">
<feFlood flood-opacity="0" result="BackgroundImageFix"/>
<feBlend mode="normal" in="SourceGraphic" in2="BackgroundImageFix" result="shape"/>
<feColorMatrix in="SourceAlpha" type="matrix" values="0 0 0 0 0 0 0 0 0 0 0 0 0 0 0 0 0 0 127 0" result="hardAlpha"/>
<feOffset dx="-2.43385" dy="-1.82496"/>
<feGaussianBlur stdDeviation="1.76459"/>
<feComposite in2="hardAlpha" operator="arithmetic" k2="-1" k3="1"/>
<feColorMatrix type="matrix" values="0 0 0 0 0 0 0 0 0 0 0 0 0 0 0 0 0 0 0.1 0"/>
<feBlend mode="hard-light" in2="shape" result="effect1_innerShadow_0_2217"/>
<feColorMatrix in="SourceAlpha" type="matrix" values="0 0 0 0 0 0 0 0 0 0 0 0 0 0 0 0 0 0 127 0" result="hardAlpha"/>
<feOffset dx="-0.243215" dy="1.58175"/>
<feGaussianBlur stdDeviation="1.52137"/>
<feComposite in2="hardAlpha" operator="arithmetic" k2="-1" k3="1"/>
<feColorMatrix type="matrix" values="0 0 0 0 1 0 0 0 0 0.87451 0 0 0 0 0.843137 0 0 0 0.7 0"/>
<feBlend mode="soft-light" in2="effect1_innerShadow_0_2217" result="effect2_innerShadow_0_2217"/>
</filter>
<linearGradient id="paint0_linear_0_2217" x1="45.5235" y1="17.0521" x2="45.5235" y2="65.8616" gradientUnits="userSpaceOnUse">
<stop stop-color="white"/>
<stop offset="1" stop-color="#F6F8FC"/>
</linearGradient>
<linearGradient id="paint1_linear_0_2217" x1="39.165" y1="44.5153" x2="36.3814" y2="46.7054" gradientUnits="userSpaceOnUse">
<stop stop-color="#FFA794" stop-opacity="0.3"/>
<stop offset="1" stop-color="#FF9794"/>
</linearGradient>
<linearGradient id="paint2_linear_0_2217" x1="39.165" y1="44.5153" x2="36.3814" y2="46.7054" gradientUnits="userSpaceOnUse">
<stop stop-color="#FFA794" stop-opacity="0.3"/>
<stop offset="1" stop-color="#FF9794"/>
</linearGradient>
<linearGradient id="paint3_linear_0_2217" x1="38.9273" y1="51.5825" x2="41.9116" y2="48.9086" gradientUnits="userSpaceOnUse">
<stop stop-color="#FFDFD7"/>
<stop offset="1" stop-color="#FFDFD7"/>
</linearGradient>
<linearGradient id="paint4_linear_0_2217" x1="39.165" y1="38.5515" x2="36.0803" y2="41.6406" gradientUnits="userSpaceOnUse">
<stop stop-color="#FFA794" stop-opacity="0.3"/>
<stop offset="1" stop-color="#FF9794"/>
</linearGradient>
<linearGradient id="paint5_linear_0_2217" x1="39.165" y1="38.5515" x2="36.0803" y2="41.6406" gradientUnits="userSpaceOnUse">
<stop stop-color="#FFA794" stop-opacity="0.3"/>
<stop offset="1" stop-color="#FF9794"/>
</linearGradient>
<linearGradient id="paint6_linear_0_2217" x1="39.8182" y1="46.0734" x2="42.9571" y2="42.8667" gradientUnits="userSpaceOnUse">
<stop stop-color="#FFA694"/>
<stop offset="1" stop-color="#FFB7A9"/>
</linearGradient>
<linearGradient id="paint7_linear_0_2217" x1="55.9715" y1="47.4363" x2="34.3329" y2="32.5149" gradientUnits="userSpaceOnUse">
<stop stop-color="#FF6661"/>
<stop offset="1" stop-color="#FF7D73"/>
</linearGradient>
<linearGradient id="paint8_linear_0_2217" x1="55.9715" y1="47.4363" x2="34.3329" y2="32.5149" gradientUnits="userSpaceOnUse">
<stop stop-color="#FF6661"/>
<stop offset="1" stop-color="#FF7D73"/>
</linearGradient>
<linearGradient id="paint9_linear_0_2217" x1="55.9715" y1="47.4363" x2="34.3329" y2="32.5149" gradientUnits="userSpaceOnUse">
<stop stop-color="#FF6661"/>
<stop offset="1" stop-color="#FF7D73"/>
</linearGradient>
<linearGradient id="paint10_linear_0_2217" x1="55.9715" y1="47.4363" x2="34.3329" y2="32.5149" gradientUnits="userSpaceOnUse">
<stop stop-color="#FF6661"/>
<stop offset="1" stop-color="#FF7D73"/>
</linearGradient>
<linearGradient id="paint11_linear_0_2217" x1="55.9715" y1="47.4363" x2="34.3329" y2="32.5149" gradientUnits="userSpaceOnUse">
<stop stop-color="#FF6661"/>
<stop offset="1" stop-color="#FF7D73"/>
</linearGradient>
<linearGradient id="paint12_linear_0_2217" x1="55.9715" y1="47.4363" x2="34.3329" y2="32.5149" gradientUnits="userSpaceOnUse">
<stop stop-color="#FF6661"/>
<stop offset="1" stop-color="#FF7D73"/>
</linearGradient>
<linearGradient id="paint13_linear_0_2217" x1="107.888" y1="27" x2="107.888" y2="54.2" gradientUnits="userSpaceOnUse">
<stop stop-color="white"/>
<stop offset="1" stop-color="#F6F8FC"/>
</linearGradient>
<linearGradient id="paint14_linear_0_2217" x1="104.282" y1="42.3043" x2="102.724" y2="43.5525" gradientUnits="userSpaceOnUse">
<stop stop-color="#FFA794" stop-opacity="0.3"/>
<stop offset="1" stop-color="#FF9794"/>
</linearGradient>
<linearGradient id="paint15_linear_0_2217" x1="104.282" y1="42.3043" x2="102.724" y2="43.5525" gradientUnits="userSpaceOnUse">
<stop stop-color="#FFA794" stop-opacity="0.3"/>
<stop offset="1" stop-color="#FF9794"/>
</linearGradient>
<linearGradient id="paint16_linear_0_2217" x1="104.147" y1="46.2427" x2="105.813" y2="44.7222" gradientUnits="userSpaceOnUse">
<stop stop-color="#FFDFD7"/>
<stop offset="1" stop-color="#FFDFD7"/>
</linearGradient>
<linearGradient id="paint17_linear_0_2217" x1="104.282" y1="38.981" x2="102.563" y2="40.7339" gradientUnits="userSpaceOnUse">
<stop stop-color="#FFA794" stop-opacity="0.3"/>
<stop offset="1" stop-color="#FF9794"/>
</linearGradient>
<linearGradient id="paint18_linear_0_2217" x1="104.282" y1="38.981" x2="102.563" y2="40.7339" gradientUnits="userSpaceOnUse">
<stop stop-color="#FFA794" stop-opacity="0.3"/>
<stop offset="1" stop-color="#FF9794"/>
</linearGradient>
<linearGradient id="paint19_linear_0_2217" x1="104.653" y1="43.1727" x2="106.401" y2="41.3536" gradientUnits="userSpaceOnUse">
<stop stop-color="#FFA694"/>
<stop offset="1" stop-color="#FFB7A9"/>
</linearGradient>
<linearGradient id="paint20_linear_0_2217" x1="113.82" y1="43.9322" x2="101.685" y2="35.4091" gradientUnits="userSpaceOnUse">
<stop stop-color="#FF6661"/>
<stop offset="1" stop-color="#FF7D73"/>
</linearGradient>
<linearGradient id="paint21_linear_0_2217" x1="113.82" y1="43.9322" x2="101.685" y2="35.4091" gradientUnits="userSpaceOnUse">
<stop stop-color="#FF6661"/>
<stop offset="1" stop-color="#FF7D73"/>
</linearGradient>
<linearGradient id="paint22_linear_0_2217" x1="113.82" y1="43.9322" x2="101.685" y2="35.4091" gradientUnits="userSpaceOnUse">
<stop stop-color="#FF6661"/>
<stop offset="1" stop-color="#FF7D73"/>
</linearGradient>
<linearGradient id="paint23_linear_0_2217" x1="113.82" y1="43.9322" x2="101.685" y2="35.4091" gradientUnits="userSpaceOnUse">
<stop stop-color="#FF6661"/>
<stop offset="1" stop-color="#FF7D73"/>
</linearGradient>
<linearGradient id="paint24_linear_0_2217" x1="113.82" y1="43.9322" x2="101.685" y2="35.4091" gradientUnits="userSpaceOnUse">
<stop stop-color="#FF6661"/>
<stop offset="1" stop-color="#FF7D73"/>
</linearGradient>
<linearGradient id="paint25_linear_0_2217" x1="113.82" y1="43.9322" x2="101.685" y2="35.4091" gradientUnits="userSpaceOnUse">
<stop stop-color="#FF6661"/>
<stop offset="1" stop-color="#FF7D73"/>
</linearGradient>
<clipPath id="clip0_0_2217">
<rect width="100" height="27.2" fill="white" transform="translate(94 27)"/>
</clipPath>
</defs><path d="M52.2365 17.1904H38.8106C29.0798 17.1904 21.1914 25.0575 21.1914 34.762V48.1516C21.1914 57.8561 29.0798 65.7232 38.8106 65.7232H52.2365C61.9674 65.7232 69.8557 57.8561 69.8557 48.1516V34.762C69.8557 25.0575 61.9674 17.1904 52.2365 17.1904Z" fill="url(#paint0_linear_0_2217)" stroke="#D8DBE3" stroke-width="0.170081"/><path fill-rule="evenodd" clip-rule="evenodd" d="M45.57 53.1599V58.0385C44.7617 58.0385 44.0285 57.7178 43.4894 57.1981C43.4875 57.1981 43.4875 57.1981 43.4875 57.1965L43.0835 56.7153L29.8559 41.0137C29.8473 41.0097 29.841 41.001 29.8366 40.9922L29.7832 40.9305C29.779 40.926 29.7766 40.9218 29.7727 40.9174C29.7083 40.83 29.6528 40.7359 29.6164 40.6331C29.5672 40.5113 29.5394 40.3788 29.5353 40.2421V40.1609C29.5353 40.1353 29.5373 40.1092 29.5419 40.0836C29.5651 39.8146 29.6805 39.5747 29.8559 39.3867C30.0719 39.1537 30.3839 39.0063 30.7278 39.0063H33.6425L45.5678 53.1619L45.57 53.1599Z" fill="url(#paint1_linear_0_2217)"/><path fill-rule="evenodd" clip-rule="evenodd" d="M45.57 53.1599V58.0385C44.7617 58.0385 44.0285 57.7178 43.4894 57.1981C43.4875 57.1981 43.4875 57.1981 43.4875 57.1965L43.0835 56.7153L29.8559 41.0137C29.8473 41.0097 29.841 41.001 29.8366 40.9922L29.7832 40.9305C29.779 40.926 29.7766 40.9218 29.7727 40.9174C29.7083 40.83 29.6528 40.7359 29.6164 40.6331C29.5672 40.5113 29.5394 40.3788 29.5353 40.2421V40.1609C29.5353 40.1353 29.5373 40.1092 29.5419 40.0836C29.5651 39.8146 29.6805 39.5747 29.8559 39.3867C30.0719 39.1537 30.3839 39.0063 30.7278 39.0063H33.6425L45.5678 53.1619L45.57 53.1599Z" fill="url(#paint2_linear_0_2217)"/><path fill-rule="evenodd" clip-rule="evenodd" d="M45.57 53.1599V58.0385C44.7617 58.0385 44.0285 57.7178 43.4894 57.1981C43.4875 57.1981 43.4875 57.1981 43.4875 57.1965L43.0835 56.7153L33.2146 45.0012L29.8559 41.0137C29.8473 41.0097 29.841 41.001 29.8366 40.9922L29.7832 40.9305C29.779 40.926 29.7766 40.9218 29.7727 40.9174C29.7083 40.83 29.6528 40.7359 29.6164 40.6331C29.5672 40.5113 29.5394 40.3788 29.5353 40.2421V40.1609C29.5353 40.1353 29.5373 40.1092 29.5419 40.0836C29.5651 39.8146 29.6805 39.5747 29.8559 39.3867C30.0719 39.1537 30.3839 39.0063 30.7278 39.0063H33.6425L35.0128 40.6331L38.6921 45.0012L44.7251 52.1615L45.5678 53.1619L45.57 53.1599Z" fill="url(#paint3_linear_0_2217)" fill-opacity="0.4"/><path fill-rule="evenodd" clip-rule="evenodd" d="M45.57 46.6793V53.193L45.5678 53.1951L29.8338 34.5695C29.8178 34.5518 29.8019 34.5318 29.7859 34.5114C29.7159 34.4219 29.6577 34.3219 29.6153 34.2115C29.5675 34.0899 29.5394 33.9577 29.5353 33.818V33.7379C29.5432 33.4401 29.6636 33.1721 29.8559 32.9684C30.0706 32.7323 30.3829 32.5863 30.7278 32.5863H33.6663L45.57 46.6793Z" fill="url(#paint4_linear_0_2217)"/><path fill-rule="evenodd" clip-rule="evenodd" d="M45.57 46.6793V53.193L45.5678 53.1951L29.8338 34.5695C29.8178 34.5518 29.8019 34.5318 29.7859 34.5114C29.7159 34.4219 29.6577 34.3219 29.6153 34.2115C29.5675 34.0899 29.5394 33.9577 29.5353 33.818V33.7379C29.5432 33.4401 29.6636 33.1721 29.8559 32.9684C30.0706 32.7323 30.3829 32.5863 30.7278 32.5863H33.6663L45.57 46.6793Z" fill="url(#paint5_linear_0_2217)"/><path fill-rule="evenodd" clip-rule="evenodd" d="M45.57 46.6793V53.193L45.5678 53.1951L44.7261 52.1973L38.6931 45.0561L35.0132 40.6995L33.6425 39.0761L29.8338 34.5695C29.8178 34.5518 29.8019 34.5318 29.7859 34.5114C29.7159 34.4219 29.6577 34.3219 29.6153 34.2115C29.5675 34.0899 29.5394 33.9577 29.5353 33.818V33.7379C29.5432 33.4401 29.6636 33.1721 29.8559 32.9684C30.0706 32.7323 30.3829 32.5863 30.7278 32.5863H33.6663L35.0391 34.2115L39.1483 39.0761L40.519 40.6995L44.199 45.0561L45.57 46.6793Z" fill="url(#paint6_linear_0_2217)" fill-opacity="0.3"/><path fill-rule="evenodd" clip-rule="evenodd" d="M30.677 26.0552C30.3334 26.0552 30.0186 26.1997 29.8051 26.4365C29.6127 26.6371 29.4931 26.9099 29.4844 27.2065V27.2854C29.4882 27.4261 29.5159 27.5582 29.5655 27.6795C29.5676 27.6902 29.5721 27.6989 29.5759 27.7096C29.6147 27.8012 29.6636 27.8863 29.7257 27.9655C29.7468 27.9955 29.7707 28.0232 29.7964 28.0485C29.8006 28.055 29.8068 28.0612 29.8134 28.0678L45.5188 46.6585V58.038C45.594 58.038 45.6669 58.036 45.7393 58.0297C46.4597 57.979 47.1097 57.6716 47.5993 57.2003C47.6016 57.2003 47.6016 57.2003 47.6016 57.1978L48.0057 56.7184L61.2526 41.0359C61.2696 41.019 61.2846 40.9996 61.2997 40.9805C61.3724 40.8909 61.43 40.7903 61.4725 40.6797C61.5262 40.5475 61.5539 40.4028 61.5539 40.2488V27.2449C61.5539 26.9313 61.4319 26.6433 61.2313 26.4345C61.0152 26.1997 60.705 26.0552 60.3587 26.0552H30.677Z" fill="url(#paint7_linear_0_2217)"/><path fill-rule="evenodd" clip-rule="evenodd" d="M30.677 26.0552C30.3334 26.0552 30.0186 26.1997 29.8051 26.4365C29.6127 26.6371 29.4931 26.9099 29.4844 27.2065V27.2854C29.4882 27.4261 29.5159 27.5582 29.5655 27.6795C29.5676 27.6902 29.5721 27.6989 29.5759 27.7096C29.6147 27.8012 29.6636 27.8863 29.7257 27.9655C29.7468 27.9955 29.7707 28.0232 29.7964 28.0485C29.8006 28.055 29.8068 28.0612 29.8134 28.0678L45.5188 46.6585V58.038C45.594 58.038 45.6669 58.036 45.7393 58.0297C46.4597 57.979 47.1097 57.6716 47.5993 57.2003C47.6016 57.2003 47.6016 57.2003 47.6016 57.1978L48.0057 56.7184L61.2526 41.0359C61.2696 41.019 61.2846 40.9996 61.2997 40.9805C61.3724 40.8909 61.43 40.7903 61.4725 40.6797C61.5262 40.5475 61.5539 40.4028 61.5539 40.2488V27.2449C61.5539 26.9313 61.4319 26.6433 61.2313 26.4345C61.0152 26.1997 60.705 26.0552 60.3587 26.0552H30.677Z" fill="url(#paint8_linear_0_2217)"/><path fill-rule="evenodd" clip-rule="evenodd" d="M30.677 26.0552C30.3334 26.0552 30.0186 26.1997 29.8051 26.4365C29.6127 26.6371 29.4931 26.9099 29.4844 27.2065V27.2854C29.4882 27.4261 29.5159 27.5582 29.5655 27.6795C29.5676 27.6902 29.5721 27.6989 29.5759 27.7096C29.6147 27.8012 29.6636 27.8863 29.7257 27.9655C29.7468 27.9955 29.7707 28.0232 29.7964 28.0485C29.8006 28.055 29.8068 28.0612 29.8134 28.0678L45.5188 46.6585V58.038C45.594 58.038 45.6669 58.036 45.7393 58.0297C46.4597 57.979 47.1097 57.6716 47.5993 57.2003C47.6016 57.2003 47.6016 57.2003 47.6016 57.1978L48.0057 56.7184L61.2526 41.0359C61.2696 41.019 61.2846 40.9996 61.2997 40.9805C61.3724 40.8909 61.43 40.7903 61.4725 40.6797C61.5262 40.5475 61.5539 40.4028 61.5539 40.2488V27.2449C61.5539 26.9313 61.4319 26.6433 61.2313 26.4345C61.0152 26.1997 60.705 26.0552 60.3587 26.0552H30.677Z" fill="url(#paint9_linear_0_2217)"/><path fill-rule="evenodd" clip-rule="evenodd" d="M30.677 26.0552C30.3334 26.0552 30.0186 26.1997 29.8051 26.4365C29.6127 26.6371 29.4931 26.9099 29.4844 27.2065V27.2854C29.4882 27.4261 29.5159 27.5582 29.5655 27.6795C29.5676 27.6902 29.5721 27.6989 29.5759 27.7096C29.6147 27.8012 29.6636 27.8863 29.7257 27.9655C29.7468 27.9955 29.7707 28.0232 29.7964 28.0485C29.8006 28.055 29.8068 28.0612 29.8134 28.0678L45.5188 46.6585V58.038C45.594 58.038 45.6669 58.036 45.7393 58.0297C46.4597 57.979 47.1097 57.6716 47.5993 57.2003C47.6016 57.2003 47.6016 57.2003 47.6016 57.1978L48.0057 56.7184L61.2526 41.0359C61.2696 41.019 61.2846 40.9996 61.2997 40.9805C61.3724 40.8909 61.43 40.7903 61.4725 40.6797C61.5262 40.5475 61.5539 40.4028 61.5539 40.2488V27.2449C61.5539 26.9313 61.4319 26.6433 61.2313 26.4345C61.0152 26.1997 60.705 26.0552 60.3587 26.0552H30.677Z" fill="url(#paint10_linear_0_2217)"/><path fill-rule="evenodd" clip-rule="evenodd" d="M30.677 26.0552C30.3334 26.0552 30.0186 26.1997 29.8051 26.4365C29.6127 26.6371 29.4931 26.9099 29.4844 27.2065V27.2854C29.4882 27.4261 29.5159 27.5582 29.5655 27.6795C29.5676 27.6902 29.5721 27.6989 29.5759 27.7096C29.6147 27.8012 29.6636 27.8863 29.7257 27.9655C29.7468 27.9955 29.7707 28.0232 29.7964 28.0485C29.8006 28.055 29.8068 28.0612 29.8134 28.0678L45.5188 46.6585V58.038C45.594 58.038 45.6669 58.036 45.7393 58.0297C46.4597 57.979 47.1097 57.6716 47.5993 57.2003C47.6016 57.2003 47.6016 57.2003 47.6016 57.1978L48.0057 56.7184L61.2526 41.0359C61.2696 41.019 61.2846 40.9996 61.2997 40.9805C61.3724 40.8909 61.43 40.7903 61.4725 40.6797C61.5262 40.5475 61.5539 40.4028 61.5539 40.2488V27.2449C61.5539 26.9313 61.4319 26.6433 61.2313 26.4345C61.0152 26.1997 60.705 26.0552 60.3587 26.0552H30.677Z" fill="url(#paint11_linear_0_2217)"/><path fill-rule="evenodd" clip-rule="evenodd" d="M30.677 26.0552C30.3334 26.0552 30.0186 26.1997 29.8051 26.4365C29.6127 26.6371 29.4931 26.9099 29.4844 27.2065V27.2854C29.4882 27.4261 29.5159 27.5582 29.5655 27.6795C29.5676 27.6902 29.5721 27.6989 29.5759 27.7096C29.6147 27.8012 29.6636 27.8863 29.7257 27.9655C29.7468 27.9955 29.7707 28.0232 29.7964 28.0485C29.8006 28.055 29.8068 28.0612 29.8134 28.0678L45.5188 46.6585V58.038C45.594 58.038 45.6669 58.036 45.7393 58.0297C46.4597 57.979 47.1097 57.6716 47.5993 57.2003C47.6016 57.2003 47.6016 57.2003 47.6016 57.1978L48.0057 56.7184L61.2526 41.0359C61.2696 41.019 61.2846 40.9996 61.2997 40.9805C61.3724 40.8909 61.43 40.7903 61.4725 40.6797C61.5262 40.5475 61.5539 40.4028 61.5539 40.2488V27.2449C61.5539 26.9313 61.4319 26.6433 61.2313 26.4345C61.0152 26.1997 60.705 26.0552 60.3587 26.0552H30.677Z" fill="url(#paint12_linear_0_2217)"/><g clip-path="url(#clip0_0_2217)">
<path fill-rule="evenodd" clip-rule="evenodd" d="M135.692 39.9424C135.363 40.2826 134.949 40.4526 134.449 40.4526H132.354V36.9069H134.449C134.949 36.9069 135.363 37.0742 135.692 37.4086C136.022 37.7431 136.186 38.167 136.186 38.6796C136.186 39.1814 136.022 39.6025 135.692 39.9424ZM137.344 35.8867C136.561 35.1286 135.596 34.7494 134.449 34.7494H130.004V46.2282H132.354V42.6099H134.449C135.596 42.6099 136.561 42.2311 137.344 41.4727C138.128 40.7147 138.52 39.7836 138.52 38.6796C138.52 37.5759 138.128 36.645 137.344 35.8867ZM143.195 38.0205C142.723 38.288 142.385 38.6897 142.181 39.2248V37.6193H139.984V46.2284H142.181V42.2312C142.181 41.4283 142.445 40.8542 142.973 40.5084C143.501 40.1633 144.1 40.0292 144.77 40.107V37.6193C144.191 37.6193 143.665 37.7529 143.195 38.0205ZM148.278 43.5381C148.703 43.9618 149.236 44.1739 149.877 44.1739C150.518 44.1739 151.054 43.9618 151.485 43.5381C151.916 43.1139 152.131 42.5759 152.131 41.9238C152.131 41.2718 151.916 40.7334 151.485 40.3094C151.054 39.8855 150.518 39.6738 149.877 39.6738C149.236 39.6738 148.703 39.8855 148.278 40.3094C147.853 40.7334 147.64 41.2718 147.64 41.9238C147.64 42.5759 147.853 43.1139 148.278 43.5381ZM152.993 44.981C152.142 45.8125 151.104 46.2284 149.877 46.2284C148.651 46.2284 147.615 45.8125 146.77 44.981C145.925 44.1492 145.502 43.1303 145.502 41.9238C145.502 40.717 145.925 39.6978 146.77 38.8664C147.615 38.0351 148.651 37.6193 149.877 37.6193C151.104 37.6193 152.142 38.0351 152.993 38.8664C153.844 39.6978 154.269 40.717 154.269 41.9238C154.269 43.1303 153.844 44.1492 152.993 44.981ZM158.699 39.6931H160.624V37.6193H158.699V35.5247L156.502 36.1842V37.6193H155.021V39.6931H156.502V43.3501C156.502 44.4986 156.812 45.2961 157.43 45.7418C158.049 46.1875 159.114 46.3271 160.624 46.1597V44.203C160.204 44.2257 159.852 44.2284 159.568 44.2115C159.284 44.1949 159.068 44.1194 158.921 43.9858C158.773 43.8518 158.699 43.6401 158.699 43.3501V39.6931ZM164.132 43.5381C164.557 43.9618 165.091 44.1739 165.731 44.1739C166.372 44.1739 166.908 43.9618 167.339 43.5381C167.77 43.1139 167.985 42.5759 167.985 41.9238C167.985 41.2718 167.77 40.7334 167.339 40.3094C166.908 39.8855 166.372 39.6738 165.731 39.6738C165.091 39.6738 164.557 39.8855 164.132 40.3094C163.707 40.7334 163.494 41.2718 163.494 41.9238C163.494 42.5759 163.707 43.1139 164.132 43.5381ZM168.847 44.981C167.996 45.8125 166.958 46.2283 165.731 46.2283C164.505 46.2283 163.469 45.8125 162.624 44.981C161.779 44.1492 161.356 43.1303 161.356 41.9238C161.356 40.717 161.779 39.6978 162.624 38.8664C163.469 38.0351 164.505 37.6193 165.731 37.6193C166.958 37.6193 167.996 38.0351 168.847 38.8664C169.698 39.6978 170.123 40.717 170.123 41.9238C170.123 43.1303 169.698 44.1492 168.847 44.981ZM177.276 39.9424C176.947 40.2826 176.533 40.4526 176.033 40.4526H173.938V36.9069H176.033C176.533 36.9069 176.947 37.0742 177.276 37.4086C177.605 37.7431 177.77 38.167 177.77 38.6796C177.77 39.1814 177.605 39.6025 177.276 39.9424ZM178.928 35.8867C178.145 35.1286 177.18 34.7494 176.033 34.7494H171.588V46.2282H173.938V42.6099H176.033C177.18 42.6099 178.145 42.2311 178.928 41.4727C179.712 40.7147 180.103 39.7836 180.103 38.6796C180.103 37.5759 179.712 36.645 178.928 35.8867ZM181.569 46.2282H183.765V39.0542H181.569V46.2282ZM182.647 37.6191C182.254 37.6191 181.915 37.4778 181.627 37.1948C181.339 36.9124 181.195 36.5786 181.195 36.1931C181.195 35.8083 181.339 35.4714 181.627 35.1824C181.915 34.8937 182.254 34.7494 182.647 34.7494C183.051 34.7494 183.397 34.8937 183.685 35.1824C183.973 35.4714 184.117 35.8083 184.117 36.1931C184.117 36.5786 183.973 36.9124 183.685 37.1948C183.397 37.4778 183.051 37.6191 182.647 37.6191ZM191.812 41.1575H187.488C187.612 40.6356 187.865 40.2307 188.251 39.9427C188.635 39.655 189.121 39.5107 189.709 39.5107C190.206 39.5107 190.65 39.6468 191.04 39.9184C191.43 40.1902 191.687 40.603 191.812 41.1575ZM193.575 44.4837C193.575 44.4837 193.633 44.4046 193.705 44.2956C193.705 44.2956 192.269 43.8631 191.657 43.6804C191.235 44.1074 190.653 44.3207 189.912 44.3207C188.612 44.3207 187.815 43.8098 187.521 42.7878H193.915C193.97 42.4838 193.999 42.1955 193.999 41.9238C193.999 40.7066 193.595 39.6847 192.787 38.8584C191.979 38.0324 190.953 37.6193 189.709 37.6193C188.397 37.6193 187.323 38.0298 186.487 38.8502C185.65 39.671 185.233 40.6957 185.233 41.9238C185.233 43.163 185.656 44.1903 186.504 45.0054C187.352 45.8206 188.477 46.2284 189.879 46.2284C191.506 46.2284 192.739 45.647 193.575 44.4837Z" fill="#252830"/>
<path d="M111.698 27.0771H104.078C98.5553 27.0771 94.0781 31.4612 94.0781 36.8692V44.3308C94.0781 49.7388 98.5553 54.1229 104.078 54.1229H111.698C117.221 54.1229 121.698 49.7388 121.698 44.3308V36.8692C121.698 31.4612 117.221 27.0771 111.698 27.0771Z" fill="url(#paint13_linear_0_2217)" stroke="#D8DBE3" stroke-width="0.170081"/>
<g filter="url(#filter0_dd_0_2217)">
<g filter="url(#filter1_ii_0_2217)">
<path fill-rule="evenodd" clip-rule="evenodd" d="M107.917 47.1217V49.8404C107.458 49.8404 107.042 49.6617 106.736 49.3721C106.735 49.3721 106.735 49.3721 106.735 49.3712L106.506 49.1029L98.9984 40.353C98.9935 40.3507 98.9899 40.3459 98.9874 40.341L98.9571 40.3067C98.9547 40.3041 98.9534 40.3017 98.9512 40.2993C98.9146 40.2506 98.8831 40.1981 98.8624 40.1409C98.8345 40.073 98.8188 39.9992 98.8164 39.9229V39.8777C98.8164 39.8635 98.8176 39.849 98.8201 39.8346C98.8333 39.6848 98.8988 39.551 98.9984 39.4463C99.121 39.3165 99.2981 39.2344 99.4933 39.2344H101.147L107.916 47.1228L107.917 47.1217Z" fill="url(#paint14_linear_0_2217)"/>
<path fill-rule="evenodd" clip-rule="evenodd" d="M107.917 47.1217V49.8404C107.458 49.8404 107.042 49.6617 106.736 49.3721C106.735 49.3721 106.735 49.3721 106.735 49.3712L106.506 49.1029L98.9984 40.353C98.9935 40.3507 98.9899 40.3459 98.9874 40.341L98.9571 40.3067C98.9547 40.3041 98.9534 40.3017 98.9512 40.2993C98.9146 40.2506 98.8831 40.1981 98.8624 40.1409C98.8345 40.073 98.8188 39.9992 98.8164 39.9229V39.8777C98.8164 39.8635 98.8176 39.849 98.8201 39.8346C98.8333 39.6848 98.8988 39.551 98.9984 39.4463C99.121 39.3165 99.2981 39.2344 99.4933 39.2344H101.147L107.916 47.1228L107.917 47.1217Z" fill="url(#paint15_linear_0_2217)"/>
</g><g filter="url(#filter2_ii_0_2217)">
<path fill-rule="evenodd" clip-rule="evenodd" d="M107.917 47.1217V49.8404C107.458 49.8404 107.042 49.6617 106.736 49.3721C106.735 49.3721 106.735 49.3721 106.735 49.3712L106.506 49.1029L100.905 42.5752L98.9984 40.353C98.9935 40.3507 98.9899 40.3459 98.9874 40.341L98.9571 40.3067C98.9547 40.3041 98.9534 40.3017 98.9512 40.2993C98.9146 40.2506 98.8831 40.1981 98.8624 40.1409C98.8345 40.073 98.8188 39.9992 98.8164 39.9229V39.8777C98.8164 39.8635 98.8176 39.849 98.8201 39.8346C98.8333 39.6848 98.8988 39.551 98.9984 39.4463C99.121 39.3165 99.2981 39.2344 99.4933 39.2344H101.147L101.925 40.1409L104.014 42.5752L107.438 46.5653L107.916 47.1228L107.917 47.1217Z" fill="url(#paint16_linear_0_2217)" fill-opacity="0.4"/>
</g><g filter="url(#filter3_ii_0_2217)">
<path fill-rule="evenodd" clip-rule="evenodd" d="M107.917 43.5103V47.1402L107.916 47.1414L98.9858 36.7619C98.9768 36.752 98.9677 36.7409 98.9587 36.7295C98.9189 36.6797 98.8859 36.6239 98.8618 36.5624C98.8347 36.4947 98.8188 36.421 98.8164 36.3431V36.2984C98.8209 36.1325 98.8892 35.9831 98.9984 35.8697C99.1202 35.738 99.2975 35.6567 99.4933 35.6567H101.161L107.917 43.5103Z" fill="url(#paint17_linear_0_2217)"/>
<path fill-rule="evenodd" clip-rule="evenodd" d="M107.917 43.5103V47.1402L107.916 47.1414L98.9858 36.7619C98.9768 36.752 98.9677 36.7409 98.9587 36.7295C98.9189 36.6797 98.8859 36.6239 98.8618 36.5624C98.8347 36.4947 98.8188 36.421 98.8164 36.3431V36.2984C98.8209 36.1325 98.8892 35.9831 98.9984 35.8697C99.1202 35.738 99.2975 35.6567 99.4933 35.6567H101.161L107.917 43.5103Z" fill="url(#paint18_linear_0_2217)"/>
</g><g filter="url(#filter4_ii_0_2217)">
<path fill-rule="evenodd" clip-rule="evenodd" d="M107.917 43.5103V47.1402L107.916 47.1414L107.438 46.5853L104.014 42.6058L101.925 40.1779L101.147 39.2733L98.9858 36.7619C98.9768 36.752 98.9677 36.7409 98.9587 36.7295C98.9189 36.6797 98.8859 36.6239 98.8618 36.5624C98.8347 36.4947 98.8188 36.421 98.8164 36.3431V36.2984C98.8209 36.1325 98.8892 35.9831 98.9984 35.8697C99.1202 35.738 99.2975 35.6567 99.4933 35.6567H101.161L101.94 36.5624L104.272 39.2733L105.05 40.1779L107.139 42.6058L107.917 43.5103Z" fill="url(#paint19_linear_0_2217)" fill-opacity="0.3"/>
</g><g filter="url(#filter5_ii_0_2217)">
<path fill-rule="evenodd" clip-rule="evenodd" d="M99.464 32.0171C99.269 32.0171 99.0903 32.0976 98.9691 32.2296C98.8599 32.3414 98.792 32.4934 98.7871 32.6587V32.7026C98.7893 32.7811 98.805 32.8547 98.8332 32.9223C98.8343 32.9283 98.8369 32.9331 98.8391 32.939C98.8611 32.9901 98.8889 33.0375 98.9241 33.0816C98.9361 33.0984 98.9497 33.1138 98.9642 33.1279C98.9666 33.1315 98.9701 33.135 98.9739 33.1387L107.888 43.4987V49.8401C107.93 49.8401 107.972 49.839 108.013 49.8354C108.422 49.8072 108.791 49.6359 109.069 49.3733C109.07 49.3733 109.07 49.3733 109.07 49.3719L109.299 49.1047L116.818 40.3654C116.827 40.3559 116.836 40.3451 116.845 40.3345C116.886 40.2846 116.918 40.2286 116.943 40.1669C116.973 40.0933 116.989 40.0126 116.989 39.9268V32.6801C116.989 32.5053 116.919 32.3448 116.806 32.2285C116.683 32.0976 116.507 32.0171 116.31 32.0171H99.464Z" fill="url(#paint20_linear_0_2217)"/>
<path fill-rule="evenodd" clip-rule="evenodd" d="M99.464 32.0171C99.269 32.0171 99.0903 32.0976 98.9691 32.2296C98.8599 32.3414 98.792 32.4934 98.7871 32.6587V32.7026C98.7893 32.7811 98.805 32.8547 98.8332 32.9223C98.8343 32.9283 98.8369 32.9331 98.8391 32.939C98.8611 32.9901 98.8889 33.0375 98.9241 33.0816C98.9361 33.0984 98.9497 33.1138 98.9642 33.1279C98.9666 33.1315 98.9701 33.135 98.9739 33.1387L107.888 43.4987V49.8401C107.93 49.8401 107.972 49.839 108.013 49.8354C108.422 49.8072 108.791 49.6359 109.069 49.3733C109.07 49.3733 109.07 49.3733 109.07 49.3719L109.299 49.1047L116.818 40.3654C116.827 40.3559 116.836 40.3451 116.845 40.3345C116.886 40.2846 116.918 40.2286 116.943 40.1669C116.973 40.0933 116.989 40.0126 116.989 39.9268V32.6801C116.989 32.5053 116.919 32.3448 116.806 32.2285C116.683 32.0976 116.507 32.0171 116.31 32.0171H99.464Z" fill="url(#paint21_linear_0_2217)"/>
<path fill-rule="evenodd" clip-rule="evenodd" d="M99.464 32.0171C99.269 32.0171 99.0903 32.0976 98.9691 32.2296C98.8599 32.3414 98.792 32.4934 98.7871 32.6587V32.7026C98.7893 32.7811 98.805 32.8547 98.8332 32.9223C98.8343 32.9283 98.8369 32.9331 98.8391 32.939C98.8611 32.9901 98.8889 33.0375 98.9241 33.0816C98.9361 33.0984 98.9497 33.1138 98.9642 33.1279C98.9666 33.1315 98.9701 33.135 98.9739 33.1387L107.888 43.4987V49.8401C107.93 49.8401 107.972 49.839 108.013 49.8354C108.422 49.8072 108.791 49.6359 109.069 49.3733C109.07 49.3733 109.07 49.3733 109.07 49.3719L109.299 49.1047L116.818 40.3654C116.827 40.3559 116.836 40.3451 116.845 40.3345C116.886 40.2846 116.918 40.2286 116.943 40.1669C116.973 40.0933 116.989 40.0126 116.989 39.9268V32.6801C116.989 32.5053 116.919 32.3448 116.806 32.2285C116.683 32.0976 116.507 32.0171 116.31 32.0171H99.464Z" fill="url(#paint22_linear_0_2217)"/>
<path fill-rule="evenodd" clip-rule="evenodd" d="M99.464 32.0171C99.269 32.0171 99.0903 32.0976 98.9691 32.2296C98.8599 32.3414 98.792 32.4934 98.7871 32.6587V32.7026C98.7893 32.7811 98.805 32.8547 98.8332 32.9223C98.8343 32.9283 98.8369 32.9331 98.8391 32.939C98.8611 32.9901 98.8889 33.0375 98.9241 33.0816C98.9361 33.0984 98.9497 33.1138 98.9642 33.1279C98.9666 33.1315 98.9701 33.135 98.9739 33.1387L107.888 43.4987V49.8401C107.93 49.8401 107.972 49.839 108.013 49.8354C108.422 49.8072 108.791 49.6359 109.069 49.3733C109.07 49.3733 109.07 49.3733 109.07 49.3719L109.299 49.1047L116.818 40.3654C116.827 40.3559 116.836 40.3451 116.845 40.3345C116.886 40.2846 116.918 40.2286 116.943 40.1669C116.973 40.0933 116.989 40.0126 116.989 39.9268V32.6801C116.989 32.5053 116.919 32.3448 116.806 32.2285C116.683 32.0976 116.507 32.0171 116.31 32.0171H99.464Z" fill="url(#paint23_linear_0_2217)"/>
<path fill-rule="evenodd" clip-rule="evenodd" d="M99.464 32.0171C99.269 32.0171 99.0903 32.0976 98.9691 32.2296C98.8599 32.3414 98.792 32.4934 98.7871 32.6587V32.7026C98.7893 32.7811 98.805 32.8547 98.8332 32.9223C98.8343 32.9283 98.8369 32.9331 98.8391 32.939C98.8611 32.9901 98.8889 33.0375 98.9241 33.0816C98.9361 33.0984 98.9497 33.1138 98.9642 33.1279C98.9666 33.1315 98.9701 33.135 98.9739 33.1387L107.888 43.4987V49.8401C107.93 49.8401 107.972 49.839 108.013 49.8354C108.422 49.8072 108.791 49.6359 109.069 49.3733C109.07 49.3733 109.07 49.3733 109.07 49.3719L109.299 49.1047L116.818 40.3654C116.827 40.3559 116.836 40.3451 116.845 40.3345C116.886 40.2846 116.918 40.2286 116.943 40.1669C116.973 40.0933 116.989 40.0126 116.989 39.9268V32.6801C116.989 32.5053 116.919 32.3448 116.806 32.2285C116.683 32.0976 116.507 32.0171 116.31 32.0171H99.464Z" fill="url(#paint24_linear_0_2217)"/>
<path fill-rule="evenodd" clip-rule="evenodd" d="M99.464 32.0171C99.269 32.0171 99.0903 32.0976 98.9691 32.2296C98.8599 32.3414 98.792 32.4934 98.7871 32.6587V32.7026C98.7893 32.7811 98.805 32.8547 98.8332 32.9223C98.8343 32.9283 98.8369 32.9331 98.8391 32.939C98.8611 32.9901 98.8889 33.0375 98.9241 33.0816C98.9361 33.0984 98.9497 33.1138 98.9642 33.1279C98.9666 33.1315 98.9701 33.135 98.9739 33.1387L107.888 43.4987V49.8401C107.93 49.8401 107.972 49.839 108.013 49.8354C108.422 49.8072 108.791 49.6359 109.069 49.3733C109.07 49.3733 109.07 49.3733 109.07 49.3719L109.299 49.1047L116.818 40.3654C116.827 40.3559 116.836 40.3451 116.845 40.3345C116.886 40.2846 116.918 40.2286 116.943 40.1669C116.973 40.0933 116.989 40.0126 116.989 39.9268V32.6801C116.989 32.5053 116.919 32.3448 116.806 32.2285C116.683 32.0976 116.507 32.0171 116.31 32.0171H99.464Z" fill="url(#paint25_linear_0_2217)"/>
</g></svg>