<svg width="147" height="81" viewBox="0 0 147 81" fill="none" xmlns="http://www.w3.org/2000/svg">
<path d="M35.4366 20.1006C41.5154 20.1517 45.9203 21.9043 48.6513 25.3556C51.3823 28.8069 52.2834 33.5209 51.3561 39.4976C50.9959 42.2286 50.1969 44.9072 48.9604 47.5346C47.775 50.1621 46.1274 52.5315 44.0146 54.6443C41.4381 57.3228 38.6824 59.0229 35.7458 59.7447C32.8092 60.4664 29.769 60.8266 26.6269 60.8266H17.3534L14.4168 75.5096H3.67505L14.7259 20.1006H35.4366ZM127.053 20.1006C133.132 20.1517 137.537 21.9043 140.268 25.3556C142.999 28.8069 143.9 33.5209 142.972 39.4976C142.612 42.2286 141.813 44.9072 140.577 47.5346C139.391 50.1621 137.744 52.5315 135.631 54.6443C133.054 57.3228 130.299 59.0229 127.362 59.7447C124.425 60.4664 121.385 60.8266 118.243 60.8266H108.97L106.033 75.5096H95.2913L106.342 20.1006H127.053ZM74.2569 5.34039L71.243 20.1006H80.8256C86.0805 20.2042 89.9955 21.2861 92.5719 23.3464C95.1994 25.4066 95.9722 29.3231 94.8903 35.0927L89.7126 60.8266H78.8936L83.8394 36.2519C84.3541 33.6755 84.1996 31.847 83.3758 30.7651C82.5519 29.6832 80.7745 29.1423 78.0435 29.1423L69.4656 29.065L63.1287 60.8266H52.4642L63.5924 5.34039H74.2569ZM27.0905 28.9104C26.4723 28.9615 25.8803 28.9877 25.3131 28.9877L23.7519 28.9876L19.1308 52.0941C19.4399 52.1451 19.749 52.1714 20.0582 52.1714H21.1401C26.0859 52.2224 30.2079 51.7339 33.5047 50.7031C36.8014 49.6212 39.0177 45.8607 40.1507 39.4204C41.078 34.0108 40.1507 30.8934 37.3686 30.0696C34.6376 29.2458 31.2126 28.8594 27.0905 28.9104ZM118.707 28.9104C118.089 28.9615 117.497 28.9877 116.929 28.9877L115.368 28.9876L110.747 52.0941C111.056 52.1451 111.365 52.1714 111.674 52.1714H112.756C117.702 52.2224 121.824 51.7339 125.121 50.7031C128.418 49.6212 130.634 45.8607 131.767 39.4204C132.694 34.0108 131.767 30.8934 128.985 30.0696C126.254 29.2458 122.829 28.8594 118.707 28.9104Z" fill="black"/>
</svg>
