<svg width="199" height="60" viewBox="0 0 199 60" fill="none" xmlns="http://www.w3.org/2000/svg">
<path d="M83.2979 15.7486C84.7974 15.9107 86.1145 16.2146 87.2492 16.6604C88.4245 17.1062 89.3769 17.7141 90.1064 18.4841C90.8764 19.2136 91.383 20.166 91.6261 21.3413C91.7477 22.0302 91.7477 22.8205 91.6261 23.7121C91.5045 24.6037 91.3424 25.5155 91.1398 26.4476L88.4043 40.0038C88.2827 40.7738 88.1408 41.5641 87.9787 42.3746C87.8166 43.1446 87.7558 43.8538 87.7963 44.5023C87.7963 44.6239 87.7761 44.7657 87.7356 44.9278V45.2925C87.7356 45.7383 87.695 46.1841 87.614 46.6299C87.5329 47.0757 87.2695 47.3797 86.8237 47.5418C86.54 47.6634 86.2361 47.7241 85.9119 47.7241H80.5623C80.2381 47.6836 79.995 47.5823 79.8329 47.4202C79.5897 47.2581 79.4276 47.0352 79.3465 46.7515C79.2655 46.4273 79.1236 46.1639 78.921 45.9612C78.84 45.8802 78.7386 45.8194 78.6171 45.7789C78.536 45.6978 78.3942 45.6775 78.1915 45.7181C77.9484 45.7991 77.7255 45.9004 77.5228 46.022C77.3202 46.1436 77.1176 46.2449 76.9149 46.326C76.6718 46.4881 76.4084 46.6299 76.1247 46.7515C75.8815 46.8731 75.6181 46.9947 75.3344 47.1162C74.767 47.3594 74.1794 47.562 73.5715 47.7241C72.9636 47.8457 72.3557 47.9876 71.7478 48.1497C71.4236 48.2307 71.1196 48.2713 70.8359 48.2713C70.5928 48.3118 70.3293 48.3523 70.0457 48.3928H69.6809C69.5593 48.4334 69.4378 48.4536 69.3162 48.4536H68.6475C68.2017 48.5347 67.7964 48.5347 67.4317 48.4536H66.8846C66.6009 48.3726 66.3172 48.332 66.0335 48.332C65.7904 48.3726 65.5472 48.3523 65.304 48.2713C64.9393 48.1902 64.5746 48.1091 64.2098 48.0281C63.8451 47.9876 63.5209 47.8862 63.2372 47.7241C62.143 47.2783 61.2514 46.711 60.5624 46.022C59.8735 45.2925 59.4074 44.3402 59.1642 43.1649C59.0832 42.8812 59.0224 42.5773 58.9819 42.253C58.9819 41.9288 58.9616 41.5844 58.9211 41.2196C58.8806 41.017 58.8806 40.8143 58.9211 40.6117C59.0021 40.4091 59.0427 40.2064 59.0427 40.0038C59.0427 39.8822 59.0629 39.6391 59.1035 39.2743C59.1845 38.8691 59.2656 38.5854 59.3466 38.4233C59.5087 38.018 59.61 37.6735 59.6506 37.3898L60.2585 36.0525C60.5016 35.5661 60.7651 35.1406 61.0487 34.7759C61.9403 33.6006 62.8927 32.709 63.9059 32.1011C64.919 31.4932 66.1754 30.9664 67.6749 30.5206C68.2422 30.3179 68.8096 30.1761 69.377 30.095C69.9443 30.014 70.532 29.9127 71.1399 29.7911C71.4641 29.71 71.8086 29.6695 72.1733 29.6695C72.5786 29.629 72.9636 29.5682 73.3283 29.4871C73.612 29.4061 73.8957 29.3858 74.1794 29.4263C74.4631 29.4263 74.7873 29.3858 75.152 29.3048C75.4357 29.2237 75.7194 29.1832 76.0031 29.1832C76.2868 29.1832 76.5907 29.1427 76.9149 29.0616C77.8065 28.859 78.6171 28.6969 79.3465 28.5753C80.1165 28.4132 80.846 28.0484 81.535 27.4811C81.9402 27.1163 82.2645 26.7111 82.5076 26.2653C82.5481 26.1437 82.5684 26.0424 82.5684 25.9613C82.5684 25.8803 82.5887 25.7992 82.6292 25.7182C82.7103 25.6371 82.7508 25.5155 82.7508 25.3534C82.7913 25.1913 82.8318 25.0697 82.8724 24.9887V24.0768C82.7103 22.861 82.0213 22.0302 80.8055 21.5844C80.4813 21.4629 80.0558 21.3818 79.5289 21.3413C79.0426 21.2602 78.536 21.24 78.0092 21.2805C77.4823 21.2805 76.9555 21.321 76.4286 21.4021C75.9423 21.4831 75.5168 21.5844 75.152 21.706C74.8683 21.7871 74.6049 21.9086 74.3618 22.0708C74.1186 22.1923 73.8754 22.3342 73.6323 22.4963C73.3891 22.6584 73.1257 22.8813 72.842 23.165C72.5583 23.4487 72.3557 23.7121 72.2341 23.9552C71.9504 24.3605 71.7073 24.7455 71.5046 25.1103C71.302 25.475 70.9575 25.7182 70.4712 25.8397C70.147 25.9208 69.8025 25.9613 69.4378 25.9613H66.0335C65.8309 25.9613 65.608 25.9816 65.3648 26.0221C65.1622 26.0221 65.0001 26.0018 64.8785 25.9613H64.3314C64.2503 25.9208 64.149 25.9005 64.0275 25.9005C63.9059 25.9005 63.8046 25.86 63.7235 25.7789C63.4398 25.6979 63.2777 25.4345 63.2372 24.9887C63.2372 24.786 63.2777 24.5834 63.3588 24.3808C63.4398 24.1781 63.5209 23.9958 63.6019 23.8337C63.8046 23.3879 64.0072 22.9826 64.2098 22.6179C64.453 22.2126 64.6961 21.8479 64.9393 21.5236L65.4256 20.9157C65.5877 20.7131 65.7498 20.5105 65.9119 20.3078C66.3172 19.8621 66.8035 19.4365 67.3709 19.0313C67.4925 18.9907 67.6343 18.8894 67.7964 18.7273C68.0396 18.5652 68.2422 18.4234 68.4043 18.3018C68.607 18.1802 68.8299 18.0586 69.073 17.937C69.843 17.4912 70.6333 17.1468 71.4438 16.9036C72.2949 16.6199 73.146 16.3565 73.997 16.1133C74.5239 15.9918 75.0507 15.9107 75.5776 15.8702C76.1044 15.8296 76.6515 15.7486 77.2189 15.627C77.381 15.5865 77.6242 15.5865 77.9484 15.627C78.2726 15.6675 78.4955 15.6473 78.6171 15.5662C80.2786 15.5257 81.8389 15.5865 83.2979 15.7486ZM150.881 16.2349C152.259 16.7212 153.455 17.3697 154.468 18.1802C154.792 18.4234 155.096 18.707 155.38 19.0313C155.704 19.3149 155.967 19.6189 156.17 19.9431C156.251 20.1457 156.393 20.3078 156.595 20.4294C156.839 20.8752 157.041 21.3413 157.203 21.8276C157.406 22.2734 157.629 22.7394 157.872 23.2258C157.994 23.5905 158.075 23.9755 158.115 24.3808C158.196 24.7455 158.277 25.1508 158.358 25.5966C158.439 26.1234 158.48 26.6705 158.48 27.2379C158.52 27.8053 158.561 28.3727 158.602 28.94C158.602 29.2642 158.541 29.629 158.419 30.0342C158.338 30.399 158.318 30.7435 158.358 31.0677L158.237 31.7364C158.237 32.0606 158.156 32.4253 157.994 32.8306C157.832 33.2359 157.629 33.4993 157.386 33.6209C157.183 33.783 156.879 33.9045 156.474 33.9856C156.069 34.0261 155.623 34.0667 155.136 34.1072H153.738C153.293 34.0667 152.887 34.0464 152.523 34.0464H136.839C136.596 34.0464 136.373 34.0869 136.17 34.168C135.805 34.3301 135.562 34.4922 135.441 34.6543C135.359 34.7353 135.238 34.8974 135.076 35.1406C134.954 35.3432 134.893 35.5459 134.893 35.7485C134.934 35.9917 134.934 36.2348 134.893 36.478C134.893 36.6806 134.914 36.9035 134.954 37.1467C135.076 38.1193 135.299 38.9299 135.623 39.5783C135.988 40.1862 136.514 40.7333 137.203 41.2196C137.487 41.4222 137.791 41.5641 138.115 41.6451C138.48 41.6857 138.825 41.7667 139.149 41.8883C139.473 41.9694 139.898 42.0301 140.425 42.0707C140.993 42.1112 141.499 42.0909 141.945 42.0099H142.492C142.897 41.9288 143.282 41.8478 143.647 41.7667L144.741 41.402C145.187 41.1993 145.694 40.9359 146.261 40.6117C146.829 40.2875 147.274 39.9633 147.599 39.6391C147.842 39.3554 148.105 39.092 148.389 38.8488C148.672 38.5651 148.976 38.3625 149.301 38.2409C149.746 38.0383 150.273 37.9572 150.881 37.9977H153.374C153.657 37.9572 153.9 37.9775 154.103 38.0585H154.711C155.076 38.1396 155.339 38.2409 155.501 38.3625C155.623 38.4435 155.663 38.6259 155.623 38.9096C155.623 39.1933 155.562 39.4364 155.44 39.6391C155.116 40.2064 154.772 40.713 154.407 41.1588C154.083 41.6046 153.718 42.0504 153.313 42.4962C152.178 43.8336 150.962 44.9075 149.665 45.7181C148.369 46.5286 146.808 47.2176 144.985 47.7849C144.498 47.947 144.032 48.0484 143.586 48.0889C143.141 48.1294 142.654 48.2105 142.127 48.332C141.965 48.3726 141.783 48.3726 141.58 48.332C141.418 48.332 141.256 48.3523 141.094 48.3928H140.425C140.182 48.4739 139.939 48.4941 139.696 48.4536C139.453 48.4536 139.23 48.4334 139.027 48.3928C138.703 48.3523 138.419 48.3523 138.176 48.3928C137.933 48.4334 137.669 48.4131 137.386 48.332C137.183 48.251 136.96 48.2105 136.717 48.2105C136.474 48.2105 136.271 48.1699 136.109 48.0889C135.663 48.0078 135.218 47.9065 134.772 47.7849C134.367 47.7039 134.002 47.562 133.678 47.3594C133.272 47.1973 132.887 47.0555 132.523 46.9339C132.158 46.7718 131.834 46.5894 131.55 46.3868C130.415 45.5762 129.443 44.6441 128.632 43.5904C127.862 42.4962 127.295 41.2399 126.93 39.8214C126.808 39.3756 126.727 38.9299 126.687 38.4841C126.687 37.9977 126.626 37.5114 126.504 37.0251V36.5996C126.545 36.4375 126.565 36.2754 126.565 36.1132C126.525 35.6269 126.525 35.1001 126.565 34.5327L126.808 32.8306C126.849 32.628 126.869 32.4051 126.869 32.1619C126.91 31.9187 126.97 31.6958 127.052 31.4932L127.234 30.7637L127.72 29.3048C128.004 28.6158 128.267 27.9471 128.51 27.2987C128.754 26.6503 129.058 26.0424 129.422 25.475C132.016 21.2602 135.582 18.2815 140.121 16.5389C140.729 16.2957 141.337 16.1336 141.945 16.0525C142.553 15.931 143.201 15.7891 143.89 15.627C144.215 15.5865 144.519 15.5662 144.802 15.5662C145.086 15.5662 145.39 15.546 145.714 15.5054C147.781 15.4649 149.503 15.7081 150.881 16.2349ZM24.9851 4.38086C25.674 4.38086 26.1603 4.5227 26.444 4.80639C26.6872 5.00902 26.829 5.31297 26.8695 5.71824C26.9101 6.08298 26.9709 6.44772 27.0519 6.81246C27.133 7.46089 27.214 8.12958 27.2951 8.81853C27.4167 9.46696 27.518 10.1356 27.599 10.8246C28.0448 13.3778 28.4096 15.9715 28.6932 18.6057C29.0175 21.24 29.4025 23.8539 29.8483 26.4476C30.0104 27.2582 30.1319 28.089 30.213 28.94C30.2941 29.7911 30.4156 30.6219 30.5777 31.4324C30.6183 31.635 30.6588 31.8377 30.6993 32.0403C30.7398 32.243 30.8412 32.4051 31.0033 32.5266C31.0843 32.5672 31.1451 32.6077 31.1856 32.6482C31.2667 32.6887 31.368 32.6685 31.4896 32.5874C31.8138 32.5064 32.0772 32.2632 32.2799 31.8579C32.4825 31.4527 32.6851 31.0879 32.8878 30.7637C33.3741 29.8316 33.8401 28.9198 34.2859 28.0282C34.7317 27.0961 35.218 26.1639 35.7449 25.2318C37.0417 22.7597 38.3386 20.2876 39.6354 17.8155C40.9728 15.3028 42.2899 12.7901 43.5868 10.2775C43.911 9.62906 44.2352 9.0009 44.5594 8.393C44.9242 7.74457 45.2687 7.09615 45.5929 6.44772C45.755 6.12351 45.9373 5.79929 46.14 5.47508C46.3426 5.15087 46.6263 4.88744 46.991 4.68481C47.2747 4.48218 47.5989 4.38086 47.9637 4.38086H58.4196C58.8248 4.38086 59.1085 4.46191 59.2706 4.62402C59.6759 4.86718 59.7975 5.33324 59.6354 6.02219C59.5138 6.67062 59.3922 7.33931 59.2706 8.02826L57.4469 17.1468L52.8877 39.7607L51.8542 45.0494C51.7732 45.4952 51.6719 45.941 51.5503 46.3868C51.4287 46.792 51.2261 47.096 50.9424 47.2986C50.6587 47.5012 50.3345 47.6228 49.9698 47.6634H44.1947C43.911 47.5823 43.6476 47.5215 43.4044 47.481C43.2018 47.4405 43.0397 47.2986 42.9181 47.0555C42.7965 46.8528 42.756 46.5894 42.7965 46.2652C42.8776 45.941 42.9586 45.5965 43.0397 45.2318L43.6476 42.1315L46.8087 26.5084C46.8897 25.9411 46.9708 25.4142 47.0518 24.9279C47.1734 24.401 47.2747 23.8742 47.3558 23.3473C47.4368 23.0231 47.5179 22.6989 47.5989 22.3747C47.68 22.01 47.7205 21.6655 47.7205 21.3413C47.68 21.0576 47.68 20.7536 47.7205 20.4294C47.8016 20.1052 47.7408 19.9026 47.5382 19.8215C47.4166 19.781 47.3153 19.8013 47.2342 19.8823L47.0518 20.0647C46.8492 20.2268 46.6668 20.4294 46.5047 20.6726L46.14 21.2805C45.7752 21.8884 45.4105 22.5165 45.0458 23.165C44.7215 23.8134 44.3568 24.4618 43.9515 25.1103L43.5868 25.8397C43.5057 26.0829 43.3842 26.3261 43.2221 26.5692C42.8978 27.0961 42.5939 27.6229 42.3102 28.1498C42.0671 28.6766 41.7834 29.2035 41.4591 29.7303C41.3781 29.8519 41.3173 29.9937 41.2768 30.1558C41.2363 30.2774 41.1755 30.399 41.0944 30.5206C40.8512 30.8853 40.6284 31.2703 40.4257 31.6756C40.2636 32.0808 40.0407 32.4861 39.757 32.8914C39.5139 33.2561 39.291 33.6411 39.0883 34.0464C38.9262 34.4517 38.7236 34.8569 38.4804 35.2622C37.751 36.4375 37.0823 37.633 36.4744 38.8488C35.8665 40.0241 35.2383 41.1993 34.5899 42.3746C34.4683 42.4962 34.3872 42.6178 34.3467 42.7394C34.3467 42.8609 34.2859 42.9825 34.1643 43.1041C33.8807 43.5499 33.6172 44.0159 33.3741 44.5023C33.1714 44.9481 32.9283 45.3939 32.6446 45.8397C32.4825 46.1233 32.3204 46.3868 32.1583 46.6299C31.9962 46.8731 31.8138 47.0757 31.6112 47.2378C31.368 47.3999 31.1451 47.5012 30.9425 47.5418C30.7398 47.5418 30.4764 47.5823 30.1522 47.6634H28.754C28.4704 47.6634 28.1259 47.6836 27.7206 47.7241H26.5656C26.2009 47.7241 25.8564 47.7039 25.5322 47.6634C25.208 47.6228 24.9851 47.5418 24.8635 47.4202C24.5798 47.2176 24.3974 46.9947 24.3164 46.7515C24.2758 46.4678 24.1948 46.1436 24.0732 45.7789C23.9922 45.2925 23.9314 44.8062 23.8908 44.3199C23.8503 43.7931 23.7693 43.2865 23.6477 42.8001L23.5869 42.253C23.4653 41.7667 23.3843 41.2601 23.3437 40.7333C23.3032 40.1659 23.2221 39.6391 23.1006 39.1527V38.8488C23.1006 38.7272 23.0803 38.6056 23.0398 38.4841C22.9182 38.1193 22.8371 37.7343 22.7966 37.329C22.7561 36.9238 22.6953 36.5185 22.6142 36.1132V35.8093C22.6142 35.6877 22.594 35.5864 22.5535 35.5053C22.4724 35.1001 22.4116 34.6948 22.3711 34.2895C22.3711 33.8843 22.3103 33.479 22.1887 33.0737C22.0266 32.2632 21.8848 31.4122 21.7632 30.5206C21.6821 29.629 21.5606 28.7577 21.3984 27.9066C21.2363 26.8934 21.0945 25.86 20.9729 24.8063C20.8919 23.7526 20.7095 22.7394 20.4258 21.7668C20.3448 21.1994 20.2232 20.7334 20.0611 20.3686C19.98 20.2876 19.899 20.2268 19.8179 20.1863C19.7774 20.1052 19.6963 20.1052 19.5747 20.1863C19.3316 20.3078 19.1695 20.5105 19.0884 20.7942C19.0479 21.0779 18.9668 21.3615 18.8453 21.6452C18.6832 21.9289 18.5818 22.2329 18.5413 22.5571C18.5008 22.8408 18.4603 23.1447 18.4197 23.4689C18.3387 23.9147 18.2374 24.3605 18.1158 24.8063C18.0347 25.2521 17.9334 25.6979 17.8118 26.1437L14.59 42.3138L13.9821 45.2925L13.7389 46.2652C13.6984 46.5894 13.5768 46.8528 13.3742 47.0555C13.1715 47.3391 12.8271 47.5215 12.3407 47.6026C12.057 47.6836 11.7531 47.7241 11.4289 47.7241C11.1047 47.6836 10.7805 47.6634 10.4562 47.6634H6.07936C5.71462 47.6228 5.43093 47.5012 5.2283 47.2986C5.02566 47.096 4.94461 46.792 4.98514 46.3868L5.2283 45.0494L6.26173 39.6999L10.821 17.086L12.5231 8.57537C12.5636 8.33221 12.6042 8.04852 12.6447 7.72431C12.7257 7.35957 12.8068 7.01509 12.8878 6.69088C12.9689 6.36667 13.0499 6.06272 13.131 5.77903C13.2526 5.45482 13.3539 5.21166 13.435 5.04955C13.6781 4.76586 14.0429 4.56323 14.5292 4.44165C14.6508 4.40112 14.7318 4.40112 14.7723 4.44165C14.8534 4.44165 14.9547 4.42139 15.0763 4.38086H24.9851ZM190.286 16.5997C191.786 17.3697 192.84 18.5044 193.447 20.0039C193.65 20.4497 193.772 20.936 193.812 21.4629C193.893 21.9492 193.954 22.4558 193.995 22.9826C194.035 23.3068 194.035 23.6108 193.995 23.8945C193.954 24.1781 193.954 24.4618 193.995 24.7455C193.914 24.9887 193.893 25.1508 193.934 25.2318C193.893 25.7992 193.812 26.3868 193.691 26.9947C193.569 27.6026 193.448 28.1903 193.326 28.7577L192.292 34.168L190.286 44.0159C190.124 44.786 189.962 45.5357 189.8 46.2652C189.638 46.9541 189.253 47.3999 188.645 47.6026C188.402 47.6836 188.118 47.7241 187.794 47.7241H183.539C183.052 47.7241 182.627 47.7039 182.262 47.6634C181.897 47.5823 181.634 47.3999 181.472 47.1162C181.35 46.8731 181.31 46.5691 181.35 46.2044C181.431 45.7991 181.512 45.3736 181.593 44.9278L182.445 40.6725L184.268 31.6148C184.552 30.1153 184.755 28.7374 184.876 27.4811C185.038 26.1842 184.896 25.09 184.451 24.1984C184.045 23.3879 183.336 22.8205 182.323 22.4963C182.12 22.4152 181.897 22.3747 181.654 22.3747C181.452 22.3747 181.249 22.3342 181.046 22.2531C180.844 22.2126 180.58 22.2126 180.256 22.2531C179.972 22.2531 179.749 22.2734 179.587 22.3139C179.385 22.3544 179.223 22.3747 179.101 22.3747C178.979 22.3747 178.858 22.395 178.736 22.4355C177.764 22.6787 176.953 23.0029 176.305 23.4081C174.805 24.3402 173.752 25.6979 173.144 27.4811C172.576 29.2642 172.07 31.2703 171.624 33.4993L170.104 41.098L169.375 44.8062C169.294 45.171 169.213 45.5357 169.132 45.9004C169.05 46.2652 168.929 46.5691 168.767 46.8123C168.483 47.2581 168.098 47.5215 167.612 47.6026C167.166 47.6836 166.619 47.7241 165.97 47.7241H162.931C162.485 47.7241 162.039 47.7039 161.594 47.6634C161.148 47.6228 160.864 47.481 160.742 47.2378C160.499 46.8731 160.459 46.3462 160.621 45.6573C160.783 44.9683 160.925 44.3199 161.046 43.712L162.688 35.4446L165.363 22.0708L166.031 18.9705C166.112 18.5247 166.193 18.1194 166.274 17.7547C166.355 17.3899 166.538 17.086 166.821 16.8428C166.903 16.7212 167.044 16.6402 167.247 16.5997C167.45 16.5186 167.652 16.4578 167.855 16.4173H168.159C168.361 16.3768 168.564 16.3565 168.767 16.3565H171.989C172.313 16.3565 172.617 16.3768 172.9 16.4173C173.225 16.4173 173.508 16.4578 173.752 16.5389C173.995 16.6604 174.137 16.8428 174.177 17.086C174.258 17.3291 174.299 17.6128 174.299 17.937C174.299 18.0991 174.278 18.241 174.238 18.3626C174.197 18.4841 174.197 18.6057 174.238 18.7273C174.278 18.9299 174.319 19.0515 174.359 19.092C174.44 19.1326 174.542 19.1934 174.663 19.2744C175.069 19.3149 175.454 19.1731 175.818 18.8489C176.183 18.4841 176.548 18.2005 176.913 17.9978C178.169 17.1873 179.506 16.5389 180.925 16.0525C181.33 15.931 181.715 15.8499 182.08 15.8094C182.485 15.7689 182.931 15.7081 183.417 15.627C183.539 15.5865 183.721 15.5865 183.964 15.627C184.207 15.627 184.37 15.6067 184.451 15.5662C186.882 15.4852 188.827 15.8296 190.286 16.5997ZM79.9544 33.1345C79.7923 33.1751 79.6505 33.2156 79.5289 33.2561C79.4073 33.2561 79.2452 33.2764 79.0426 33.3169C78.7589 33.398 78.4549 33.4588 78.1307 33.4993C77.8065 33.5398 77.462 33.6006 77.0973 33.6816C76.9757 33.7222 76.7934 33.7424 76.5502 33.7424C75.9828 33.864 75.4357 33.9451 74.9089 33.9856C74.382 34.0261 73.8552 34.1274 73.3283 34.2895L72.3557 34.5327C72.072 34.5732 71.7883 34.6543 71.5046 34.7759C70.5725 35.1406 69.7417 35.6877 69.0122 36.4172C68.2827 37.1467 67.8572 38.1598 67.7356 39.4567C67.6951 40.1457 67.8167 40.713 68.1004 41.1588C68.2625 41.6046 68.607 41.9694 69.1338 42.253C69.6607 42.4962 70.2483 42.6786 70.8967 42.8001C71.5452 42.9217 72.2341 42.9623 72.9636 42.9217C73.7336 42.8407 74.4631 42.6988 75.152 42.4962C76.2868 42.172 77.2189 41.6654 77.9484 40.9764C78.7184 40.247 79.3668 39.3554 79.8936 38.3017C80.0152 38.018 80.1165 37.7343 80.1976 37.4506C80.2786 37.1264 80.4002 36.8022 80.5623 36.478L80.6839 35.9309C80.765 35.7282 80.8258 35.5054 80.8663 35.2622C80.9068 34.9785 80.9271 34.7353 80.9271 34.5327C80.9271 34.2895 80.9473 34.0667 80.9879 33.864C81.0284 33.6614 80.9676 33.4993 80.8055 33.3777C80.6434 33.2156 80.3597 33.1345 79.9544 33.1345ZM144.498 21.8884C144.377 21.9694 144.235 21.9897 144.073 21.9492C143.911 21.9086 143.769 21.9086 143.647 21.9492C143.404 22.0302 143.161 22.091 142.918 22.1315C142.675 22.1315 142.452 22.1721 142.249 22.2531C140.344 22.8205 138.804 23.935 137.629 25.5966C137.507 25.7587 137.366 25.9816 137.203 26.2653C137.041 26.5084 136.92 26.7718 136.839 27.0555C136.758 27.2987 136.717 27.5419 136.717 27.785C136.717 28.0282 136.818 28.2308 137.021 28.3929C137.305 28.5955 137.73 28.6969 138.298 28.6969H148.45C149.098 28.6563 149.544 28.474 149.787 28.1498C150.152 27.7445 150.273 27.2582 150.152 26.6908C150.071 26.0829 150.01 25.6371 149.969 25.3534C149.605 24.2592 149.017 23.4284 148.206 22.861C147.396 22.2531 146.16 21.9289 144.498 21.8884Z" fill="black"/>
<path d="M98.0031 14.5628C97.9345 14.7247 97.8695 14.9341 97.8091 15.1867L97.7647 15.3841C97.7502 15.4525 97.736 15.5236 97.7221 15.5972L97.6814 15.8257L97.6426 16.0691L97.6059 16.327L97.5714 16.5989L97.539 16.8845L97.509 17.1834C97.5042 17.2343 97.4995 17.2857 97.4949 17.3377L97.4686 17.6556L97.4447 17.9857L97.4235 18.3277C97.4202 18.3856 97.417 18.444 97.4139 18.5029L99.5319 19.528C99.4998 18.2915 99.5396 17.1223 99.651 16.048L99.6729 15.8566L99.6578 16.032L99.6389 16.322L99.6321 16.4604L99.6204 16.776L99.6161 16.9536L99.6114 17.3486L99.612 17.6803L99.617 18.0427L99.6231 18.3015L99.6368 18.716L99.6492 19.01L99.6646 19.3182C99.6674 19.3707 99.6704 19.4239 99.6734 19.4776C100.068 19.1559 100.54 18.7336 101.032 18.272L101.361 17.9591C101.417 17.9062 101.472 17.853 101.527 17.7996L101.858 17.4768L102.185 17.1524L102.503 16.8305L102.81 16.5151C102.471 15.8228 102.106 15.3142 101.766 14.9426L101.653 14.8238C101.579 14.7479 101.507 14.6785 101.436 14.6151L101.332 14.5244L101.232 14.4424C101.199 14.4164 101.167 14.3919 101.135 14.3686L101.043 14.3027L100.956 14.2442L100.836 14.1697L100.729 14.1098L100.609 14.0506L100.52 14.0121L100.357 13.9531L100.238 13.9149L100.121 13.8821L100.033 13.8599L99.9368 13.8384C99.9202 13.8349 99.9034 13.8315 99.8862 13.8281L99.7804 13.8093L99.6694 13.7934C99.0839 13.72 98.3274 13.7969 98.0031 14.5628Z" fill="url(#paint0_linear_0_8946)"/>
<path d="M100.086 25.7799C99.9883 25.0751 99.899 24.382 99.8183 23.7004C99.7528 23.1344 99.6992 22.5768 99.6552 22.0247L99.6176 21.5297C99.6169 21.5167 99.6165 21.504 99.6167 21.492C99.5704 20.8209 99.5368 20.1672 99.5219 19.5266L97.4082 18.5073L97.4024 18.6368L97.3882 18.9058C97.3672 19.4121 97.3515 19.9502 97.3471 20.5158C97.3419 21.1533 97.348 21.8183 97.3595 22.515C97.3745 23.1555 97.4006 23.8236 97.4353 24.5033C97.461 24.9396 97.4891 25.3792 97.5214 25.8245L97.5602 26.3395L100.388 27.772L100.288 27.1047L100.086 25.7799Z" fill="url(#paint1_linear_0_8946)"/>
<path d="M104.176 42.2L104.22 42.3508L104.501 43.305C104.541 43.4405 104.582 43.5768 104.624 43.7136L104.758 44.1474L104.803 44.3036C104.811 44.329 104.82 44.3544 104.83 44.3799L105.285 45.8396C105.689 45.7562 106.181 45.9067 106.7 46.1334L106.909 46.2278C106.527 45.7676 105.998 45.4599 105.365 45.3886C107.097 44.2336 108.236 42.7457 108.076 40.971C108.059 40.8139 108.038 40.6511 108.006 40.4867C107.98 41.141 107.719 41.6212 106.962 42.1344L106.869 42.1962C107.652 40.8184 107.867 39.8837 107.775 38.6752C107.752 38.3886 107.716 38.0846 107.663 37.7573C107.413 39.5566 106.447 40.721 105.033 41.4101L104.176 42.2Z" fill="url(#paint2_linear_0_8946)"/>
<path d="M103.161 40.0883L102.981 39.414L102.62 38.0491C102.448 37.3896 102.282 36.7259 102.118 36.0521C101.954 35.3782 101.795 34.7002 101.637 34.0221C101.476 33.3282 101.324 32.6358 101.179 31.9392L101.036 31.2505L100.76 29.8725C100.711 29.623 100.666 29.3793 100.622 29.1256C100.543 28.7017 100.47 28.2735 100.397 27.8453L100.382 27.776L97.5699 26.3408L97.5792 26.4299C97.5802 26.4453 97.5807 26.4609 97.5801 26.4762C97.6368 27.1129 97.692 27.7597 97.7673 28.4095C97.841 29.0694 97.9249 29.7309 98.023 30.3997C98.1064 30.9633 98.1956 31.5226 98.289 32.0877L98.3503 32.4266C98.4798 33.1259 98.6181 33.8009 98.7685 34.4314C98.9367 35.147 99.1168 35.8181 99.2989 36.4431C99.4213 36.8531 99.541 37.2472 99.6637 37.6213L99.7727 37.9363L99.998 38.5631C100.267 39.2941 100.564 40.0038 100.885 40.6965L103.727 42.1363C103.576 41.6138 103.436 41.0827 103.282 40.5443L103.203 40.2424L103.161 40.0883Z" fill="url(#paint3_linear_0_8946)"/>
<path d="M100.928 40.7906C101.271 41.5233 101.644 42.2332 102.057 42.9145L102.285 43.2844C102.016 43.176 101.676 43.122 101.345 43.098L101.18 43.0883C101.153 43.0871 101.126 43.086 101.1 43.0852L100.942 43.0817L100.72 43.0825L100.521 43.0883L100.354 43.0969L100.121 43.1161C100.119 43.1164 100.118 43.1166 100.118 43.1166C101.555 43.615 102.815 44.2254 103.61 45.1503C103.294 45.4982 102.703 45.7627 101.96 45.9781C102.513 46.038 102.935 46.0136 103.239 45.964L103.362 45.9414C103.381 45.9374 103.4 45.9334 103.418 45.9293L103.52 45.904L103.608 45.8782L103.715 45.8408L103.77 45.8183C103.314 46.199 103.028 46.8475 102.791 47.5745L102.709 47.8341C102.695 47.8778 102.682 47.9217 102.669 47.9657C103.273 46.9775 103.873 46.3231 104.457 46.073C105.109 48.2357 105.864 50.5376 106.691 52.9395L107.079 54.0551C107.209 54.4293 107.342 54.8056 107.476 55.1841C107.668 54.9357 107.69 54.661 107.609 54.381L107.344 53.6332L107.043 52.7593L106.576 51.3733L106.193 50.2111L105.77 48.8997L105.366 47.6204L104.995 46.4215L104.723 45.5237L104.501 44.7825C104.471 44.6853 104.444 44.5862 104.415 44.486L104.331 44.2108L104.091 43.3826L103.847 42.5306L103.738 42.138L103.734 42.1322L100.892 40.6924C100.898 40.7174 100.905 40.7379 100.914 40.7587L100.928 40.7906Z" fill="url(#paint4_linear_0_8946)"/>
<path d="M100.718 27.8326L100.768 28.1081C100.805 28.2955 100.839 28.4849 100.875 28.6753L101.182 30.2527L101.295 30.802L101.459 31.5783C101.487 31.7094 101.516 31.8415 101.544 31.9745C101.629 32.3675 101.719 32.7666 101.812 33.1743L102.005 34.0014L102.198 34.8082C102.23 34.9445 102.264 35.0817 102.297 35.2196L102.504 36.0545L102.71 36.866C102.815 37.2761 102.923 37.6929 103.036 38.1181C103.12 38.4319 103.206 38.7502 103.294 39.0726L103.59 40.1487L103.813 40.9396L104.044 41.7475C104.083 41.8833 104.122 42.0197 104.162 42.1565C104.164 42.1724 104.167 42.1883 104.176 42.1999L105.033 41.41L105.012 41.4186L104.966 41.441C105.984 40.4801 106.856 38.5548 107.055 36.8198C107.147 36.0205 107.138 35.1699 107.029 34.2419C106.949 33.5503 106.809 32.8235 106.615 32.0371C106.447 31.3575 106.238 30.6358 105.984 29.8761C105.827 30.1969 105.604 30.5126 105.33 30.8207L105.181 30.9832L105.13 31.036L105.023 31.1442C105.773 29.9776 105.862 28.725 105.64 27.4245C105.503 27.8102 105.236 28.3817 104.791 28.8952C104.734 28.9637 104.668 29.0306 104.601 29.0976C104.589 29.1061 104.579 29.1172 104.567 29.1287L104.547 29.146C104.796 28.7312 104.98 28.3373 105.098 27.9384C105.116 27.883 105.131 27.8268 105.144 27.7705L105.162 27.6858C105.192 27.5566 105.212 27.4258 105.232 27.2951L105.261 27.0421C105.272 26.8932 105.275 26.7403 105.268 26.585L105.249 26.2991C105.247 26.278 105.244 26.2571 105.241 26.2359L105.211 26.0529C105.206 26.0235 105.2 25.9947 105.194 25.9663C105.136 25.6265 105.072 25.3236 105.007 25.055L104.945 24.8138L104.889 24.6101L104.817 24.3692L104.722 24.0869C104.712 24.0585 104.702 24.0313 104.692 24.0053L104.635 23.8629C104.617 23.8191 104.6 23.779 104.583 23.7429L104.536 23.6467C104.527 23.6831 104.516 23.7214 104.5 23.7598L104.474 23.8173C104.297 24.2329 103.885 24.8029 103.51 25.2034C103.504 25.2076 103.498 25.2119 103.497 25.2219L103.419 25.2993C103.406 25.3133 103.393 25.3279 103.38 25.3431L103.395 25.3144L100.694 27.7878C100.717 27.8067 100.719 27.8226 100.718 27.8326Z" fill="url(#paint5_linear_0_8946)"/>
<path d="M99.6736 19.4773C99.6845 19.6746 99.6976 19.8802 99.7126 20.094L99.7454 20.5322C99.7513 20.607 99.7573 20.6827 99.7636 20.7593L99.8038 21.2294C99.8109 21.3094 99.8182 21.3904 99.8257 21.4722L99.832 21.5502C99.8335 21.5626 99.8356 21.5749 99.8389 21.5874C99.8617 21.8284 99.8872 22.0762 99.9153 22.3318L99.9752 22.8536C99.9964 23.0311 100.019 23.2123 100.043 23.3975L100.155 24.2461C100.208 24.6314 100.264 25.0306 100.328 25.4469L100.377 25.7623C100.426 26.0838 100.479 26.4125 100.536 26.75L100.714 27.7908L103.415 25.3174C103.979 24.2971 104.102 23.6623 104.094 22.8735C104.091 22.7148 104.084 22.5496 104.074 22.3803L104.062 22.2097C104.019 21.5185 103.936 20.7851 103.818 20.0772C103.707 19.391 103.571 18.7319 103.416 18.1675C103.318 17.8024 103.213 17.4775 103.107 17.1987C103.01 16.9573 102.91 16.7361 102.809 16.5249L102.502 16.8376C102.45 16.8904 102.397 16.9435 102.344 16.9968L102.022 17.3185L101.693 17.6411L101.361 17.9605C101.306 18.0133 101.251 18.0657 101.196 18.1178L100.869 18.4247C100.437 18.826 100.024 19.1914 99.6736 19.4773Z" fill="url(#paint6_linear_0_8946)"/>
<path d="M125.678 15.0925C125.591 15.1282 125.497 15.173 125.395 15.2267L125.238 15.3137C125.129 15.376 125.013 15.4471 124.891 15.5265L124.703 15.6519L124.505 15.7896L124.298 15.9394L124.081 16.1011C124.045 16.129 124.008 16.1574 123.97 16.1863L123.741 16.3655L123.505 16.556L123.26 16.7576L123.008 16.97L122.749 17.1932L122.483 17.4268L122.211 17.6707C122.165 17.7121 122.119 17.754 122.073 17.7963L122.963 20.3043C123.927 19.2763 124.894 18.3611 125.844 17.5813L126.178 17.3102L126.202 17.2918L125.972 17.4787L125.747 17.6735L125.503 17.8943L125.271 18.1114L125.077 18.2988L124.937 18.4357L124.634 18.7392L124.387 18.9936L124.03 19.3695L123.84 19.5737L123.643 19.7888L123.333 20.1327L123.117 20.3762C123.339 20.3973 123.582 20.4155 123.84 20.431L124.239 20.4522L124.658 20.4695L125.091 20.483L125.536 20.4926L125.988 20.4987C126.064 20.4994 126.14 20.4999 126.215 20.5003L126.67 20.5011C126.746 20.5009 126.821 20.5006 126.896 20.5002L127.344 20.4959C127.418 20.4949 127.491 20.4937 127.564 20.4925L127.996 20.4833C128.35 19.4272 128.431 18.578 128.404 17.9438L128.394 17.7833L128.381 17.6325C128.378 17.6082 128.375 17.5843 128.372 17.5608L128.353 17.4248L128.332 17.2987C128.328 17.2785 128.324 17.2587 128.32 17.2393L128.296 17.1281L128.27 17.0268L128.245 16.9355L128.219 16.8541L128.171 16.7217L128.133 16.6297L128.041 16.44L127.987 16.3388L127.942 16.2592L127.89 16.1718L127.831 16.0781L127.765 15.9798L127.692 15.8782C127.286 15.331 126.592 14.7152 125.678 15.0925Z" fill="url(#paint7_linear_0_8946)"/>
<path d="M118.442 25.7776C118.924 25.1325 119.403 24.5036 119.879 23.8908C120.375 23.2562 120.876 22.6469 121.382 22.0549C121.412 22.0182 121.442 21.9815 121.471 21.9528C121.967 21.3758 122.46 20.8228 122.957 20.2953L122.065 17.7954L121.957 17.8951L121.732 18.1003C121.313 18.4912 120.873 18.912 120.42 19.3637C120.165 19.6183 119.906 19.8806 119.643 20.1505L119.112 20.7004C119.022 20.7938 118.932 20.8879 118.842 20.9829C118.345 21.5105 117.835 22.0691 117.323 22.6438C116.997 23.0155 116.67 23.3917 116.342 23.7758L115.965 24.2213L117.103 27.621L117.553 27.0046L118.442 25.7776Z" fill="url(#paint8_linear_0_8946)"/>
<path d="M108.689 42.2453L108.519 42.5577L108.072 43.3928C107.997 43.5339 107.921 43.6761 107.846 43.8193L107.609 44.275C107.564 44.3588 107.52 44.4346 107.483 44.5197L107.234 45L106.69 46.0567C107.133 46.3438 107.429 46.963 107.689 47.6592C107.746 46.9849 107.565 46.3167 107.112 45.7567C109.424 46.2029 111.523 45.9104 112.805 44.3545C112.916 44.2145 113.028 44.0665 113.133 43.9092C112.591 44.4166 111.997 44.5952 110.975 44.4044L110.859 44.3817C112.584 43.8945 113.5 43.3132 114.386 42.2669C114.595 42.0179 114.808 41.7448 115.026 41.4395C113.394 42.689 111.691 42.8586 110.006 42.2906L108.689 42.2453Z" fill="url(#paint9_linear_0_8946)"/>
<path d="M109.46 39.8971L109.94 39.0541L110.734 37.6679C111.119 37.0007 111.513 36.3346 111.916 35.6617C112.319 34.9887 112.731 34.3169 113.142 33.6452C113.563 32.9585 113.992 32.281 114.428 31.6047C114.855 30.9353 115.299 30.2683 115.733 29.6081C115.891 29.3682 116.049 29.1363 116.216 28.8975C116.489 28.4934 116.77 28.0905 117.051 27.6875L117.094 27.6198L115.971 24.2305L115.907 24.3095C115.896 24.3228 115.884 24.3356 115.871 24.3475C115.411 24.9051 114.942 25.4696 114.486 26.0526C114.021 26.6424 113.563 27.2415 113.111 27.8579C112.73 28.3778 112.357 28.899 111.984 29.4282L111.764 29.7496C111.312 30.4155 110.887 31.0688 110.508 31.6958C110.074 32.4054 109.686 33.0888 109.336 33.7366C109.109 34.1639 108.892 34.5763 108.694 34.975C108.529 35.3127 108.371 35.6597 108.215 35.9987C107.85 36.8007 107.526 37.6086 107.234 38.4212L108.378 41.8382L108.6 41.4326L109.056 40.6167C109.132 40.4796 109.208 40.3416 109.284 40.2027L109.46 39.8971Z" fill="url(#paint10_linear_0_8946)"/>
<path d="M107.194 38.5301C106.887 39.3921 106.624 40.2603 106.415 41.1365L106.305 41.616C106.202 41.3786 106.036 41.1332 105.85 40.9016L105.736 40.7645C105.716 40.742 105.697 40.7197 105.677 40.6976L105.559 40.5674L105.441 40.4433L105.325 40.3261L105.159 40.1657L105.008 40.027L104.842 39.8817L104.694 39.7591C105.454 41.302 105.984 42.7945 105.889 44.1708C105.358 44.1998 104.672 43.9429 103.902 43.5256C104.234 43.9319 104.538 44.2185 104.794 44.4194L104.909 44.5062C104.928 44.5197 104.946 44.5327 104.964 44.5453L105.068 44.6152L105.164 44.6749L105.252 44.7249L105.331 44.7662L105.401 44.7994L105.461 44.8253C105.47 44.829 105.479 44.8325 105.487 44.8357C104.842 44.7814 104.127 45.0528 103.389 45.4269L103.142 45.5551L102.894 45.6891C104.166 45.3739 105.169 45.3236 105.837 45.5863C105.509 46.2083 105.178 46.8449 104.846 47.495L104.345 48.4802C103.592 49.9727 102.83 51.5307 102.06 53.1415L101.545 54.223C101.373 54.586 101.201 54.9514 101.029 55.3192C101.381 55.2722 101.617 55.0682 101.774 54.7788L102.357 53.5433L102.893 52.4325L103.578 51.0376L104.184 49.8249L104.783 48.64L105.353 47.5286L106.144 46.0086L106.705 44.9448L106.898 44.582L107.064 44.275L107.216 43.987L107.446 43.5613L107.919 42.6929C107.999 42.5463 108.08 42.3988 108.161 42.2503L108.385 41.8472L108.386 41.8391L107.242 38.4221C107.228 38.4474 107.217 38.4696 107.208 38.4932L107.194 38.5301Z" fill="url(#paint11_linear_0_8946)"/>
<path d="M117.32 27.9327L117.142 28.1944C117.022 28.3743 116.899 28.5536 116.776 28.7355L116.19 29.6204L115.771 30.2496L115.665 30.4125C115.505 30.6565 115.346 30.9045 115.184 31.1564L114.694 31.9235C114.369 32.4352 114.042 32.9623 113.707 33.5084L113.455 33.9216C113.054 34.5784 112.641 35.2663 112.225 35.9703L111.746 36.7875C111.505 37.2008 111.26 37.6219 111.014 38.0547C110.868 38.3097 110.722 38.5685 110.574 38.8306L109.846 40.129L109.623 40.5334L109.17 41.3576C109.018 41.6355 108.865 41.9164 108.712 42.1999C108.701 42.2148 108.691 42.2297 108.688 42.2458L110.006 42.2911C109.983 42.2795 109.959 42.276 109.928 42.2632C111.51 42.298 113.742 41.4409 115.281 40.2025C115.99 39.632 116.659 38.9405 117.308 38.1062C117.794 37.4865 118.258 36.7896 118.727 36.003C119.131 35.322 119.537 34.5754 119.936 33.762C119.554 33.8952 119.124 33.9718 118.658 34.0023L118.41 34.0152C118.355 34.018 118.3 34.0173 118.243 34.0174L118.154 34.0188C119.685 33.6759 120.752 32.7384 121.606 31.5147C121.19 31.7168 120.52 31.964 119.755 32.0245C119.655 32.0344 119.548 32.0352 119.441 32.0359C119.424 32.0336 119.408 32.0348 119.389 32.0344L119.359 32.0322C119.889 31.896 120.35 31.7251 120.762 31.4977C120.821 31.468 120.877 31.4342 120.932 31.399L121.014 31.3455C121.141 31.2655 121.261 31.1761 121.381 31.0868L121.605 30.9058C121.775 30.758 121.939 30.5928 122.089 30.4093L122.186 30.2979C122.201 30.2794 122.215 30.2605 122.229 30.2406L122.351 30.0695C122.37 30.0419 122.389 30.0145 122.406 29.9869C122.634 29.6605 122.827 29.3603 122.989 29.0873L123.057 28.9719C123.145 28.8203 123.223 28.6836 123.291 28.5538L123.371 28.401L123.492 28.1553C123.517 28.1043 123.54 28.0557 123.56 28.0093L123.596 27.9268L123.656 27.7776C123.674 27.7315 123.689 27.6892 123.702 27.651L123.719 27.5967C123.683 27.6188 123.644 27.6404 123.601 27.6591L123.534 27.6846C123.061 27.8785 122.277 28.0102 121.656 28.0343C121.648 28.0331 121.64 28.0319 121.631 28.0388L121.507 28.0395C121.486 28.0403 121.463 28.0416 121.441 28.0438L121.476 28.0325L117.336 27.8775C117.34 27.9109 117.329 27.9258 117.32 27.9327Z" fill="url(#paint12_linear_0_8946)"/>
<path d="M123.117 20.3765C122.969 20.5439 122.816 20.7199 122.659 20.9039L122.337 21.2827L122.002 21.6826L121.598 22.171C121.589 22.1822 121.581 22.1938 121.574 22.2064C121.343 22.4893 121.106 22.7856 120.862 23.0973L120.49 23.5767C120.427 23.6585 120.363 23.7414 120.299 23.8254L119.765 24.5321L119.416 25.0002C119.239 25.2387 119.059 25.4843 118.875 25.7382L118.69 25.9949C118.504 26.2497 118.318 26.5119 118.128 26.7813L117.745 27.3293L117.35 27.8959L121.489 28.0508C122.753 27.6769 123.357 27.2637 123.977 26.6227C124.101 26.4928 124.227 26.3539 124.353 26.2093L124.479 26.0629C124.993 25.4721 125.509 24.8157 125.977 24.1522C126.433 23.5117 126.847 22.8733 127.17 22.2956C127.381 21.9234 127.555 21.5788 127.691 21.2697C127.805 20.9985 127.9 20.7411 127.986 20.4905L127.557 20.498L127.115 20.5026L126.666 20.5041L126.213 20.5025C126.137 20.502 126.061 20.5013 125.986 20.5005L125.535 20.4939L125.09 20.4838C125.017 20.4818 124.944 20.4797 124.872 20.4774L124.446 20.4618C124.376 20.4589 124.307 20.4558 124.239 20.4526L123.84 20.4313C123.581 20.4157 123.339 20.3975 123.117 20.3765Z" fill="url(#paint13_linear_0_8946)"/>
<defs>
<linearGradient id="paint0_linear_0_8946" x1="98.53" y1="17.4302" x2="105.395" y2="15.1916" gradientUnits="userSpaceOnUse">
<stop stop-color="#F69923"/>
<stop offset="0.3123" stop-color="#F79A23"/>
<stop offset="0.8383" stop-color="#E97826"/>
</linearGradient>
<linearGradient id="paint1_linear_0_8946" x1="97.989" y1="55.1001" x2="106.412" y2="21.6607" gradientUnits="userSpaceOnUse">
<stop offset="0.3233" stop-color="#9E2064"/>
<stop offset="0.6302" stop-color="#C92037"/>
<stop offset="0.7514" stop-color="#CD2335"/>
<stop offset="1" stop-color="#E97826"/>
</linearGradient>
<linearGradient id="paint2_linear_0_8946" x1="105.543" y1="54.047" x2="111.076" y2="27.099" gradientUnits="userSpaceOnUse">
<stop stop-color="#282662"/>
<stop offset="0.0954839" stop-color="#662E8D"/>
<stop offset="0.7882" stop-color="#9F2064"/>
<stop offset="0.9487" stop-color="#CD2032"/>
</linearGradient>
<linearGradient id="paint3_linear_0_8946" x1="99.4318" y1="53.2717" x2="111.679" y2="23.4912" gradientUnits="userSpaceOnUse">
<stop offset="0.3233" stop-color="#9E2064"/>
<stop offset="0.6302" stop-color="#C92037"/>
<stop offset="0.7514" stop-color="#CD2335"/>
<stop offset="1" stop-color="#E97826"/>
</linearGradient>
<linearGradient id="paint4_linear_0_8946" x1="102.494" y1="51.8952" x2="112.356" y2="39.6082" gradientUnits="userSpaceOnUse">
<stop stop-color="#282662"/>
<stop offset="0.0954839" stop-color="#662E8D"/>
<stop offset="0.7882" stop-color="#9F2064"/>
<stop offset="0.9487" stop-color="#CD2032"/>
</linearGradient>
<linearGradient id="paint5_linear_0_8946" x1="103.253" y1="58.4673" x2="112.257" y2="15.8446" gradientUnits="userSpaceOnUse">
<stop offset="0.3233" stop-color="#9E2064"/>
<stop offset="0.6302" stop-color="#C92037"/>
<stop offset="0.7514" stop-color="#CD2335"/>
<stop offset="1" stop-color="#E97826"/>
</linearGradient>
<linearGradient id="paint6_linear_0_8946" x1="100.66" y1="69.0016" x2="109.133" y2="19.6746" gradientUnits="userSpaceOnUse">
<stop offset="0.3233" stop-color="#9E2064"/>
<stop offset="0.6302" stop-color="#C92037"/>
<stop offset="0.7514" stop-color="#CD2335"/>
<stop offset="1" stop-color="#E97826"/>
</linearGradient>
<linearGradient id="paint7_linear_0_8946" x1="123.127" y1="18.3082" x2="132.037" y2="15.9335" gradientUnits="userSpaceOnUse">
<stop stop-color="#F69923"/>
<stop offset="0.3123" stop-color="#F79A23"/>
<stop offset="0.8383" stop-color="#E97826"/>
</linearGradient>
<linearGradient id="paint8_linear_0_8946" x1="109.992" y1="56.6035" x2="128.12" y2="23.3897" gradientUnits="userSpaceOnUse">
<stop offset="0.3233" stop-color="#9E2064"/>
<stop offset="0.6302" stop-color="#C92037"/>
<stop offset="0.7514" stop-color="#CD2335"/>
<stop offset="1" stop-color="#E97826"/>
</linearGradient>
<linearGradient id="paint9_linear_0_8946" x1="104.971" y1="49.4773" x2="113.157" y2="35.7278" gradientUnits="userSpaceOnUse">
<stop stop-color="#282662"/>
<stop offset="0.0954839" stop-color="#662E8D"/>
<stop offset="0.7882" stop-color="#9F2064"/>
<stop offset="0.9487" stop-color="#CD2032"/>
</linearGradient>
<linearGradient id="paint10_linear_0_8946" x1="108.143" y1="54.2512" x2="126.527" y2="23.1316" gradientUnits="userSpaceOnUse">
<stop offset="0.3233" stop-color="#9E2064"/>
<stop offset="0.6302" stop-color="#C92037"/>
<stop offset="0.7514" stop-color="#CD2335"/>
<stop offset="1" stop-color="#E97826"/>
</linearGradient>
<linearGradient id="paint11_linear_0_8946" x1="103.754" y1="51.4844" x2="113.838" y2="36.4823" gradientUnits="userSpaceOnUse">
<stop stop-color="#282662"/>
<stop offset="0.0954839" stop-color="#662E8D"/>
<stop offset="0.7882" stop-color="#9F2064"/>
<stop offset="0.9487" stop-color="#CD2032"/>
</linearGradient>
<linearGradient id="paint12_linear_0_8946" x1="103.466" y1="54.2792" x2="124.659" y2="20.3204" gradientUnits="userSpaceOnUse">
<stop offset="0.3233" stop-color="#9E2064"/>
<stop offset="0.6302" stop-color="#C92037"/>
<stop offset="0.7514" stop-color="#CD2335"/>
<stop offset="1" stop-color="#E97826"/>
</linearGradient>
<linearGradient id="paint13_linear_0_8946" x1="103.536" y1="40.8247" x2="117.109" y2="18.4555" gradientUnits="userSpaceOnUse">
<stop offset="0.3233" stop-color="#9E2064"/>
<stop offset="0.6302" stop-color="#C92037"/>
<stop offset="0.7514" stop-color="#CD2335"/>
<stop offset="1" stop-color="#E97826"/>
</linearGradient>
</defs>
</svg>
