<svg width="48" height="48" viewBox="0 0 48 48" fill="none" xmlns="http://www.w3.org/2000/svg">
<rect x="15" y="3" width="30" height="42" rx="2" fill="#1066B5"/>
<rect x="15" y="3" width="30" height="42" rx="2" fill="url(#paint0_linear_0_5859)"/>
<rect x="15" y="7.5" width="15" height="15" fill="#32A9E7"/>
<rect x="15" y="22.5" width="15" height="15" fill="#167EB4"/>
<rect x="30" y="22.5" width="15" height="15" fill="#32A9E7"/>
<rect x="30" y="7.5" width="15" height="15" fill="#58D9FD"/>
<mask id="mask0_0_5859" style="mask-type:alpha" maskUnits="userSpaceOnUse" x="12" y="21" width="36" height="24">
<path d="M12 21H46C47.1046 21 48 21.8954 48 23V43C48 44.1046 47.1046 45 46 45H14C12.8954 45 12 44.1046 12 43V21Z" fill="url(#paint1_linear_0_5859)"/>
</mask>
<g mask="url(#mask0_0_5859)">
<path d="M48 21V27H45V21H48Z" fill="#135298"/>
<path d="M48 45V24L10.5 45H48Z" fill="url(#paint2_linear_0_5859)"/>
<path d="M12 45V24L49.5 45H12Z" fill="url(#paint3_linear_0_5859)"/>
</g>
<path d="M12 16.5C12 14.8431 13.3431 13.5 15 13.5H27C28.6569 13.5 30 14.8431 30 16.5V37.5C30 39.1569 28.6569 40.5 27 40.5H12V16.5Z" fill="black" fill-opacity="0.3"/>
<rect y="10.5" width="27" height="27" rx="2" fill="url(#paint4_linear_0_5859)"/>
<path d="M21 24.1039V23.8546C21 19.5332 17.8908 16.5 13.5237 16.5C9.13291 16.5 6 19.554 6 23.8961V24.1454C6 28.4668 9.10918 31.5 13.5 31.5C17.8671 31.5 21 28.446 21 24.1039ZM17.4636 24.1454C17.4636 27.0125 15.8497 28.7368 13.5237 28.7368C11.1978 28.7368 9.56013 26.9709 9.56013 24.1039V23.8546C9.56013 20.9875 11.1741 19.2632 13.5 19.2632C15.8022 19.2632 17.4636 21.0291 17.4636 23.8961V24.1454Z" fill="white"/>
<defs>
<linearGradient id="paint0_linear_0_5859" x1="15" y1="24" x2="45" y2="24" gradientUnits="userSpaceOnUse">
<stop stop-color="#064484"/>
<stop offset="1" stop-color="#0F65B5"/>
</linearGradient>
<linearGradient id="paint1_linear_0_5859" x1="12" y1="40.1538" x2="48" y2="40.1538" gradientUnits="userSpaceOnUse">
<stop stop-color="#1B366F"/>
<stop offset="1" stop-color="#2657B0"/>
</linearGradient>
<linearGradient id="paint2_linear_0_5859" x1="48" y1="34.5" x2="12" y2="34.5" gradientUnits="userSpaceOnUse">
<stop stop-color="#44DCFD"/>
<stop offset="0.453125" stop-color="#259ED0"/>
</linearGradient>
<linearGradient id="paint3_linear_0_5859" x1="12" y1="34.5" x2="48" y2="34.5" gradientUnits="userSpaceOnUse">
<stop stop-color="#259ED0"/>
<stop offset="1" stop-color="#44DCFD"/>
</linearGradient>
<linearGradient id="paint4_linear_0_5859" x1="0" y1="24" x2="27" y2="24" gradientUnits="userSpaceOnUse">
<stop stop-color="#064484"/>
<stop offset="1" stop-color="#0F65B5"/>
</linearGradient>
</defs>
</svg>
